<?xml version="1.0" encoding="UTF-8" ?>
<!DOCTYPE svg PUBLIC "-//W3C//DTD SVG 1.1//EN" "http://www.w3.org/Graphics/SVG/1.1/DTD/svg11.dtd">
<svg width="119pt" height="138pt" viewBox="0 0 119 138" version="1.1" xmlns="http://www.w3.org/2000/svg">
<g id="#1e3d227a">
<path fill="#1e3d22" opacity="0.48" d=" M 65.17 9.99 C 64.80 7.35 65.00 4.61 67.08 2.70 C 66.49 5.14 65.96 7.60 65.17 9.99 Z" />
</g>
<g id="#75ea7dff">
<path fill="#75ea7d" opacity="1.00" d=" M 67.08 2.70 C 67.63 3.11 68.72 3.93 69.26 4.34 C 70.41 7.08 69.63 10.08 69.14 12.87 C 66.07 14.26 62.92 15.63 59.49 15.73 C 61.72 14.20 63.96 12.49 65.17 9.99 C 65.96 7.60 66.49 5.14 67.08 2.70 Z" />
<path fill="#75ea7d" opacity="1.00" d=" M 24.80 44.94 C 26.49 36.64 32.69 30.48 39.03 25.38 C 38.76 25.87 38.23 26.84 37.96 27.33 C 35.44 30.05 32.56 32.58 30.99 36.00 C 29.04 39.77 28.70 44.07 27.21 48.00 C 26.98 47.25 26.52 45.76 26.29 45.02 C 26.34 45.88 26.45 47.61 26.50 48.48 L 24.86 48.48 C 24.85 47.60 24.82 45.82 24.80 44.94 Z" />
</g>
<g id="#62c96dff">
<path fill="#62c96d" opacity="1.00" d=" M 72.69 4.06 C 73.93 2.74 75.59 2.77 76.45 4.39 C 76.18 6.81 75.84 9.22 75.56 11.63 C 73.88 12.67 72.19 13.67 70.46 14.61 C 71.15 11.09 71.42 7.45 72.69 4.06 Z" />
</g>
<g id="#3a8246fc">
<path fill="#3a8246" opacity="1.00" d=" M 69.26 4.34 C 69.72 4.60 70.65 5.11 71.12 5.36 C 71.51 5.04 72.30 4.39 72.69 4.06 C 71.42 7.45 71.15 11.09 70.46 14.61 C 68.58 18.84 64.72 21.59 61.90 25.13 C 59.41 29.28 58.31 34.07 57.71 38.83 C 57.28 41.91 57.19 45.03 57.17 48.15 C 57.15 48.66 57.13 49.67 57.11 50.18 C 56.66 50.07 55.76 49.85 55.31 49.73 C 55.18 49.30 54.92 48.44 54.79 48.01 C 54.91 46.55 55.06 45.09 55.22 43.64 C 55.68 39.43 56.36 35.25 57.26 31.11 C 58.50 25.75 61.70 21.15 66.20 18.03 C 67.74 16.69 68.57 14.79 69.14 12.87 C 69.63 10.08 70.41 7.08 69.26 4.34 Z" />
</g>
<g id="#4da55eff">
<path fill="#4da55e" opacity="1.00" d=" M 76.45 4.39 C 76.63 4.89 76.97 5.87 77.15 6.36 C 77.28 8.78 77.18 11.21 77.33 13.63 C 78.56 19.93 85.31 23.09 86.72 29.32 C 88.29 34.52 83.61 38.87 79.51 41.18 C 72.09 43.60 64.54 45.58 57.17 48.15 C 57.19 45.03 57.28 41.91 57.71 38.83 C 57.83 40.44 58.00 42.05 58.17 43.65 C 64.09 40.43 71.87 38.16 74.17 31.04 C 73.88 29.10 73.13 26.58 70.93 26.10 C 68.56 25.33 66.04 25.65 63.65 26.17 C 63.07 25.83 62.48 25.48 61.90 25.13 C 64.72 21.59 68.58 18.84 70.46 14.61 C 72.19 13.67 73.88 12.67 75.56 11.63 C 75.84 9.22 76.18 6.81 76.45 4.39 Z" />
</g>
<g id="#4ca960ff">
<path fill="#4ca960" opacity="1.00" d=" M 77.15 6.36 C 78.48 5.73 79.81 5.08 81.14 4.43 C 79.41 8.72 81.52 12.83 84.71 15.70 C 83.96 16.74 83.21 17.78 82.47 18.83 C 80.83 17.02 79.13 15.28 77.33 13.63 C 77.18 11.21 77.28 8.78 77.15 6.36 Z" />
</g>
<g id="#66cc70ff">
<path fill="#66cc70" opacity="1.00" d=" M 59.49 15.73 C 62.92 15.63 66.07 14.26 69.14 12.87 C 68.57 14.79 67.74 16.69 66.20 18.03 C 60.72 18.24 55.14 18.84 50.04 20.99 C 45.85 22.77 41.94 25.13 37.96 27.33 C 38.23 26.84 38.76 25.87 39.03 25.38 C 41.44 22.81 45.00 21.63 48.11 20.10 C 51.93 18.71 55.50 16.54 59.49 15.73 Z" />
</g>
<g id="#378652ff">
<path fill="#378652" opacity="1.00" d=" M 77.33 13.63 C 79.13 15.28 80.83 17.02 82.47 18.83 C 83.21 17.78 83.96 16.74 84.71 15.70 C 90.15 19.89 96.59 22.51 102.26 26.35 C 102.31 28.48 102.56 30.64 102.19 32.74 C 101.15 35.07 99.39 36.98 97.91 39.03 C 96.90 33.39 94.15 27.77 89.13 24.67 C 91.21 27.39 93.70 29.95 94.78 33.28 C 96.30 37.83 96.40 42.70 96.16 47.44 C 92.72 48.68 89.30 50.01 85.74 50.91 L 85.18 51.06 C 84.91 49.65 84.73 48.20 84.10 46.89 C 82.82 45.63 80.80 46.27 79.19 46.08 C 78.48 46.06 77.06 46.04 76.35 46.02 C 77.96 44.82 78.95 43.09 79.51 41.18 C 83.61 38.87 88.29 34.52 86.72 29.32 C 85.31 23.09 78.56 19.93 77.33 13.63 Z" />
</g>
<g id="#56ac5cff">
<path fill="#56ac5c" opacity="1.00" d=" M 50.04 20.99 C 55.14 18.84 60.72 18.24 66.20 18.03 C 61.70 21.15 58.50 25.75 57.26 31.11 C 57.08 30.62 56.72 29.63 56.54 29.14 C 51.67 28.16 46.99 30.49 43.09 33.16 C 40.53 34.95 39.60 38.10 38.43 40.83 C 36.89 41.17 35.35 41.51 33.81 41.84 C 32.67 41.00 31.18 40.93 30.25 42.14 C 28.77 44.78 28.64 47.91 28.00 50.82 C 27.01 50.30 25.99 49.82 24.96 49.38 C 24.53 49.55 23.67 49.91 23.25 50.09 L 23.61 49.43 C 24.14 47.97 24.40 46.43 24.80 44.94 C 24.82 45.82 24.85 47.60 24.86 48.48 L 26.50 48.48 C 26.45 47.61 26.34 45.88 26.29 45.02 C 26.52 45.76 26.98 47.25 27.21 48.00 C 28.70 44.07 29.04 39.77 30.99 36.00 C 32.56 32.58 35.44 30.05 37.96 27.33 C 41.94 25.13 45.85 22.77 50.04 20.99 Z" />
</g>
<g id="#58b869ff">
<path fill="#58b869" opacity="1.00" d=" M 61.90 25.13 C 62.48 25.48 63.07 25.83 63.65 26.17 C 66.04 25.65 68.56 25.33 70.93 26.10 C 73.13 26.58 73.88 29.10 74.17 31.04 C 71.87 38.16 64.09 40.43 58.17 43.65 C 58.00 42.05 57.83 40.44 57.71 38.83 C 58.31 34.07 59.41 29.28 61.90 25.13 Z" />
</g>
<g id="#195036ff">
<path fill="#195036" opacity="1.00" d=" M 89.13 24.67 C 94.15 27.77 96.90 33.39 97.91 39.03 C 98.34 43.21 98.44 47.45 97.82 51.61 C 96.52 57.39 94.03 63.95 88.02 66.23 C 90.60 62.61 93.93 59.35 95.04 54.91 C 95.59 52.45 95.93 49.95 96.16 47.44 C 96.40 42.70 96.30 37.83 94.78 33.28 C 93.70 29.95 91.21 27.39 89.13 24.67 Z" />
</g>
<g id="#266e4bff">
<path fill="#266e4b" opacity="1.00" d=" M 102.26 26.35 C 112.57 33.16 118.83 45.98 115.94 58.28 C 115.65 57.53 115.05 56.04 114.76 55.29 C 114.84 51.34 114.93 47.10 111.93 44.09 C 107.54 47.15 102.67 49.39 97.82 51.61 C 98.44 47.45 98.34 43.21 97.91 39.03 C 99.39 36.98 101.15 35.07 102.19 32.74 C 102.56 30.64 102.31 28.48 102.26 26.35 Z" />
<path fill="#266e4b" opacity="1.00" d=" M 18.42 72.05 C 20.38 75.28 21.92 78.86 21.89 82.70 C 19.89 79.48 19.46 75.63 18.42 72.05 Z" />
<path fill="#266e4b" opacity="1.00" d=" M 48.51 81.65 C 50.40 77.87 52.95 74.44 56.27 71.80 C 55.01 74.11 53.62 76.34 52.30 78.61 C 51.30 79.90 50.25 81.36 48.51 81.65 Z" />
</g>
<g id="#55ba69ff">
<path fill="#55ba69" opacity="1.00" d=" M 43.09 33.16 C 46.99 30.49 51.67 28.16 56.54 29.14 C 56.72 29.63 57.08 30.62 57.26 31.11 C 56.36 35.25 55.68 39.43 55.22 43.64 C 49.61 42.74 43.74 43.16 38.43 40.83 C 39.60 38.10 40.53 34.95 43.09 33.16 Z" />
</g>
<g id="#419d5bff">
<path fill="#419d5b" opacity="1.00" d=" M 30.25 42.14 C 31.18 40.93 32.67 41.00 33.81 41.84 C 35.45 43.84 36.58 46.65 39.09 47.69 C 44.30 48.39 49.57 47.55 54.79 48.01 C 54.92 48.44 55.18 49.30 55.31 49.73 C 46.84 49.17 38.35 50.07 30.16 52.26 C 29.62 51.90 28.54 51.18 28.00 50.82 C 28.64 47.91 28.77 44.78 30.25 42.14 Z" />
</g>
<g id="#45ad68ff">
<path fill="#45ad68" opacity="1.00" d=" M 33.81 41.84 C 35.35 41.51 36.89 41.17 38.43 40.83 C 43.74 43.16 49.61 42.74 55.22 43.64 C 55.06 45.09 54.91 46.55 54.79 48.01 C 49.57 47.55 44.30 48.39 39.09 47.69 C 36.58 46.65 35.45 43.84 33.81 41.84 Z" />
</g>
<g id="#35935fff">
<path fill="#35935f" opacity="1.00" d=" M 57.17 48.15 C 64.54 45.58 72.09 43.60 79.51 41.18 C 78.95 43.09 77.96 44.82 76.35 46.02 C 77.06 46.04 78.48 46.06 79.19 46.08 C 74.16 47.23 69.42 49.32 64.89 51.76 C 63.64 51.49 62.40 51.23 61.15 50.98 C 59.80 50.71 58.45 50.46 57.11 50.18 C 57.13 49.67 57.15 48.66 57.17 48.15 Z" />
</g>
<g id="#115447ff">
<path fill="#115447" opacity="1.00" d=" M 97.82 51.61 C 102.67 49.39 107.54 47.15 111.93 44.09 C 114.93 47.10 114.84 51.34 114.76 55.29 C 111.80 59.18 110.46 64.34 106.21 67.16 C 101.88 70.99 95.80 69.95 90.53 69.56 C 86.35 67.54 85.42 62.35 85.86 58.17 C 88.97 57.23 92.03 56.13 95.04 54.91 C 93.93 59.35 90.60 62.61 88.02 66.23 C 94.03 63.95 96.52 57.39 97.82 51.61 Z" />
</g>
<g id="#61ce9cff">
<path fill="#61ce9c" opacity="1.00" d=" M 79.19 46.08 C 80.80 46.27 82.82 45.63 84.10 46.89 C 84.73 48.20 84.91 49.65 85.18 51.06 C 85.24 53.23 85.21 55.39 85.21 57.55 C 84.58 57.88 83.33 58.52 82.71 58.84 C 79.62 65.23 79.30 72.95 74.22 78.28 C 73.15 75.87 71.44 73.84 69.71 71.88 C 70.44 71.41 71.17 70.94 71.91 70.48 C 70.27 70.40 68.63 70.32 67.00 70.30 C 66.70 69.90 66.10 69.10 65.80 68.70 C 66.46 66.11 67.15 63.00 65.21 60.75 C 63.12 58.28 60.62 56.15 58.84 53.41 C 59.61 52.60 60.38 51.79 61.15 50.98 C 62.40 51.23 63.64 51.49 64.89 51.76 C 69.42 49.32 74.16 47.23 79.19 46.08 Z" />
</g>
<g id="#ddffddff">
<path fill="#ddffdd" opacity="1.00" d=" M 14.05 47.98 C 17.28 47.99 20.49 48.60 23.61 49.43 L 23.25 50.09 C 20.57 53.31 18.34 56.86 15.58 60.01 C 14.27 61.34 14.03 63.27 13.46 64.96 C 13.04 63.59 12.60 62.22 12.20 60.84 C 11.63 56.64 11.30 51.50 14.05 47.98 Z" />
</g>
<g id="#1f694bff">
<path fill="#1f694b" opacity="1.00" d=" M 85.74 50.91 C 89.30 50.01 92.72 48.68 96.16 47.44 C 95.93 49.95 95.59 52.45 95.04 54.91 C 92.03 56.13 88.97 57.23 85.86 58.17 C 85.93 55.75 85.86 53.33 85.74 50.91 Z" />
</g>
<g id="#bbffcbff">
<path fill="#bbffcb" opacity="1.00" d=" M 23.25 50.09 C 23.67 49.91 24.53 49.55 24.96 49.38 C 25.99 49.82 27.01 50.30 28.00 50.82 C 28.54 51.18 29.62 51.90 30.16 52.26 C 30.67 52.62 31.17 52.98 31.68 53.34 C 23.92 57.29 16.58 62.86 13.11 71.11 C 12.87 71.30 12.40 71.67 12.17 71.85 C 11.58 73.63 10.63 75.18 9.30 76.49 L 9.91 73.25 C 11.06 69.21 13.10 65.15 12.20 60.84 C 12.60 62.22 13.04 63.59 13.46 64.96 C 14.03 63.27 14.27 61.34 15.58 60.01 C 18.34 56.86 20.57 53.31 23.25 50.09 Z" />
</g>
<g id="#85f6bcff">
<path fill="#85f6bc" opacity="1.00" d=" M 30.16 52.26 C 38.35 50.07 46.84 49.17 55.31 49.73 C 52.51 51.17 49.93 52.99 47.66 55.15 C 51.00 57.54 57.17 58.85 56.88 63.95 C 55.84 70.72 48.62 73.63 43.41 76.81 C 42.97 76.36 42.09 75.46 41.66 75.01 C 44.37 72.85 47.07 70.65 49.62 68.29 C 52.75 65.75 49.06 61.32 45.89 61.31 C 41.73 61.90 37.85 63.95 34.63 66.59 C 32.64 68.53 28.73 70.20 29.50 73.56 C 30.54 76.67 33.55 78.93 36.86 78.93 C 33.47 82.39 28.60 83.35 24.36 85.35 C 22.84 84.85 21.33 84.33 19.82 83.82 C 18.61 79.18 17.65 73.73 13.11 71.11 C 16.58 62.86 23.92 57.29 31.68 53.34 C 31.17 52.98 30.67 52.62 30.16 52.26 M 18.42 72.05 C 19.46 75.63 19.89 79.48 21.89 82.70 C 21.92 78.86 20.38 75.28 18.42 72.05 M 24.76 78.80 C 26.14 79.74 27.61 80.57 29.19 81.12 C 29.51 78.21 26.68 75.93 24.76 78.80 Z" />
<path fill="#85f6bc" opacity="1.00" d=" M 7.15 89.08 C 8.51 89.78 9.89 90.48 11.28 91.14 C 10.46 92.81 9.68 94.49 8.79 96.13 C 8.50 96.40 7.92 96.94 7.63 97.21 C 7.11 94.53 6.66 91.80 7.15 89.08 Z" />
</g>
<g id="#74e4afff">
<path fill="#74e4af" opacity="1.00" d=" M 55.31 49.73 C 55.76 49.85 56.66 50.07 57.11 50.18 C 58.45 50.46 59.80 50.71 61.15 50.98 C 60.38 51.79 59.61 52.60 58.84 53.41 C 60.62 56.15 63.12 58.28 65.21 60.75 C 67.15 63.00 66.46 66.11 65.80 68.70 C 66.10 69.10 66.70 69.90 67.00 70.30 C 60.99 71.10 56.48 75.73 53.41 80.63 C 53.13 80.12 52.58 79.11 52.30 78.61 C 53.62 76.34 55.01 74.11 56.27 71.80 C 52.95 74.44 50.40 77.87 48.51 81.65 C 45.89 82.46 43.45 83.74 41.01 84.98 C 40.84 82.81 40.58 80.64 40.14 78.51 C 38.03 80.41 34.71 82.70 36.73 85.90 C 32.19 89.73 25.99 90.20 20.59 92.20 C 20.57 89.39 20.39 86.58 19.82 83.82 C 21.33 84.33 22.84 84.85 24.36 85.35 C 28.60 83.35 33.47 82.39 36.86 78.93 C 38.41 77.57 40.03 76.28 41.66 75.01 C 42.09 75.46 42.97 76.36 43.41 76.81 C 48.62 73.63 55.84 70.72 56.88 63.95 C 57.17 58.85 51.00 57.54 47.66 55.15 C 49.93 52.99 52.51 51.17 55.31 49.73 Z" />
<path fill="#74e4af" opacity="1.00" d=" M 45.04 121.07 C 47.82 119.89 50.74 121.37 53.55 121.66 C 50.73 121.74 47.68 122.34 45.04 121.07 Z" />
</g>
<g id="#369a75ff">
<path fill="#369a75" opacity="1.00" d=" M 85.18 51.06 L 85.74 50.91 C 85.86 53.33 85.93 55.75 85.86 58.17 C 85.42 62.35 86.35 67.54 90.53 69.56 C 97.84 72.50 100.19 80.64 106.29 85.08 C 106.43 86.26 106.57 87.44 106.72 88.62 C 104.17 90.73 100.51 92.26 99.68 95.78 C 97.49 103.58 95.67 111.60 92.22 118.96 C 90.56 120.70 89.26 122.72 88.59 125.04 C 87.43 127.57 85.04 129.20 82.71 130.56 C 81.52 130.69 80.59 131.22 79.93 132.15 L 78.95 133.42 L 78.10 131.99 C 77.65 129.41 75.31 129.80 74.75 132.10 C 74.20 132.15 73.11 132.25 72.56 132.30 C 72.62 131.87 72.74 131.03 72.79 130.61 C 72.73 130.05 72.60 128.93 72.53 128.37 C 74.64 128.08 77.26 128.68 78.88 126.94 C 80.61 124.93 81.77 122.52 83.24 120.32 C 88.00 118.95 88.84 112.80 87.29 108.77 C 84.54 107.51 81.42 109.56 79.23 111.19 C 77.60 112.25 78.64 114.29 78.59 115.85 C 75.65 117.36 72.91 119.22 70.41 121.38 C 70.24 120.88 69.91 119.88 69.74 119.38 C 70.65 115.86 73.14 113.19 75.44 110.52 C 79.31 105.70 83.98 101.62 88.25 97.17 C 89.66 95.68 91.93 94.65 92.30 92.45 C 93.36 86.22 93.09 79.58 89.91 73.97 C 86.80 76.29 84.52 79.44 82.88 82.92 C 79.31 89.93 72.40 94.06 66.72 99.14 C 63.68 100.16 60.65 101.23 57.54 102.06 C 51.09 102.80 44.73 104.34 38.67 106.68 C 34.29 108.48 29.49 107.35 24.93 107.11 C 26.63 110.27 29.04 112.94 31.28 115.71 C 33.64 118.34 32.69 122.07 32.69 125.26 C 31.51 125.90 30.34 126.54 29.16 127.19 C 29.02 127.95 28.73 129.49 28.58 130.25 L 27.54 130.07 C 28.43 128.73 28.26 127.71 27.02 127.04 C 25.73 127.59 25.37 128.57 25.94 130.00 C 25.19 129.96 23.71 129.88 22.97 129.84 C 24.98 128.14 22.10 126.53 21.26 128.82 C 20.69 128.02 20.12 127.24 19.55 126.45 C 22.10 126.25 24.59 125.18 26.33 123.28 C 27.40 120.53 27.00 117.19 24.95 114.99 C 22.09 111.54 18.84 108.14 18.18 103.49 C 25.62 104.27 33.32 105.75 40.64 103.41 C 48.91 101.51 55.83 96.43 63.04 92.24 C 61.62 91.99 60.20 91.76 58.77 91.55 C 63.65 90.49 68.74 90.17 73.44 88.37 C 76.25 87.55 75.24 84.05 75.37 81.88 C 75.72 82.53 76.08 83.18 76.45 83.82 C 78.74 78.41 82.34 73.62 84.04 67.95 C 85.23 64.62 85.17 61.04 85.21 57.55 C 85.21 55.39 85.24 53.23 85.18 51.06 Z" />
</g>
<g id="#125a66ff">
<path fill="#125a66" opacity="1.00" d=" M 106.21 67.16 C 110.46 64.34 111.80 59.18 114.76 55.29 C 115.05 56.04 115.65 57.53 115.94 58.28 C 114.75 61.14 113.82 64.25 111.54 66.48 C 108.64 70.15 104.14 71.82 100.44 74.49 C 103.17 77.33 106.08 80.07 108.08 83.52 C 107.63 83.91 106.74 84.69 106.29 85.08 C 100.19 80.64 97.84 72.50 90.53 69.56 C 95.80 69.95 101.88 70.99 106.21 67.16 Z" />
</g>
<g id="#45af86ff">
<path fill="#45af86" opacity="1.00" d=" M 82.71 58.84 C 83.33 58.52 84.58 57.88 85.21 57.55 C 85.17 61.04 85.23 64.62 84.04 67.95 C 82.34 73.62 78.74 78.41 76.45 83.82 C 76.08 83.18 75.72 82.53 75.37 81.88 C 74.99 80.68 74.63 79.47 74.22 78.28 C 79.30 72.95 79.62 65.23 82.71 58.84 Z" />
</g>
<g id="#35b378ff">
<path fill="#35b378" opacity="1.00" d=" M 34.63 66.59 C 37.85 63.95 41.73 61.90 45.89 61.31 C 49.06 61.32 52.75 65.75 49.62 68.29 C 44.75 69.58 42.10 74.54 37.68 76.76 C 34.62 79.25 29.96 75.47 30.41 72.02 C 31.71 70.13 33.22 68.40 34.63 66.59 Z" />
</g>
<g id="#1a734eff">
<path fill="#1a734e" opacity="1.00" d=" M 29.50 73.56 C 28.73 70.20 32.64 68.53 34.63 66.59 C 33.22 68.40 31.71 70.13 30.41 72.02 C 29.96 75.47 34.62 79.25 37.68 76.76 C 42.10 74.54 44.75 69.58 49.62 68.29 C 47.07 70.65 44.37 72.85 41.66 75.01 C 40.03 76.28 38.41 77.57 36.86 78.93 C 33.55 78.93 30.54 76.67 29.50 73.56 Z" />
<path fill="#1a734e" opacity="1.00" d=" M 79.23 111.19 C 81.42 109.56 84.54 107.51 87.29 108.77 C 88.84 112.80 88.00 118.95 83.24 120.32 C 81.73 118.79 80.18 117.30 78.59 115.85 C 78.64 114.29 77.60 112.25 79.23 111.19 Z" />
</g>
<g id="#0d593bff">
<path fill="#0d593b" opacity="1.00" d=" M 53.41 80.63 C 56.48 75.73 60.99 71.10 67.00 70.30 C 68.63 70.32 70.27 70.40 71.91 70.48 C 71.17 70.94 70.44 71.41 69.71 71.88 C 71.44 73.84 73.15 75.87 74.22 78.28 C 74.63 79.47 74.99 80.68 75.37 81.88 C 75.24 84.05 76.25 87.55 73.44 88.37 C 68.74 90.17 63.65 90.49 58.77 91.55 C 56.13 91.72 53.49 91.80 50.84 91.81 C 50.69 88.83 51.14 85.85 52.31 83.09 C 52.68 82.27 53.04 81.45 53.41 80.63 M 63.52 72.26 C 57.48 76.40 52.01 83.11 52.41 90.78 C 56.28 90.44 60.13 89.83 63.99 89.33 C 64.69 89.20 66.09 88.95 66.78 88.82 L 66.88 88.48 C 69.32 87.89 71.72 87.13 74.04 86.15 C 73.93 84.13 73.80 82.12 73.64 80.11 C 71.91 76.56 69.58 71.49 64.82 72.04 C 64.49 72.10 63.84 72.21 63.52 72.26 Z" />
<path fill="#0d593b" opacity="1.00" d=" M 12.17 71.85 C 12.40 71.67 12.87 71.30 13.11 71.11 C 17.65 73.73 18.61 79.18 19.82 83.82 C 20.39 86.58 20.57 89.39 20.59 92.20 C 17.44 92.60 14.26 92.18 11.28 91.14 C 9.89 90.48 8.51 89.78 7.15 89.08 C 7.59 83.74 7.91 78.28 9.91 73.25 L 9.30 76.49 C 10.63 75.18 11.58 73.63 12.17 71.85 M 9.53 76.67 C 9.27 77.72 8.98 78.77 8.68 79.82 C 8.44 83.25 6.64 88.13 10.92 89.69 C 10.67 86.28 10.44 82.82 11.17 79.45 C 11.17 83.02 11.35 86.58 11.51 90.15 C 14.14 90.65 16.80 91.05 19.47 91.36 C 19.61 84.79 18.18 77.81 13.85 72.67 C 12.38 73.97 11.06 75.43 9.53 76.67 Z" />
<path fill="#0d593b" opacity="1.00" d=" M 88.59 125.04 C 89.26 122.72 90.56 120.70 92.22 118.96 C 93.06 120.23 93.84 121.56 94.29 123.03 L 93.86 124.23 C 93.67 124.77 93.29 125.85 93.10 126.39 L 92.65 126.25 C 91.29 125.84 89.94 125.44 88.59 125.04 Z" />
</g>
<g id="#60242aff">
<path fill="#60242a" opacity="1.00" d=" M 63.52 72.26 C 63.84 72.21 64.49 72.10 64.82 72.04 C 66.30 74.14 67.63 76.40 68.17 78.94 C 68.42 82.18 67.82 85.40 66.88 88.48 L 66.78 88.82 C 66.09 88.95 64.69 89.20 63.99 89.33 C 64.31 88.67 64.95 87.34 65.27 86.68 C 66.63 83.91 67.16 80.77 66.45 77.74 C 65.66 75.82 64.55 74.06 63.52 72.26 Z" />
</g>
<g id="#b7b2b4ff">
<path fill="#b7b2b4" opacity="1.00" d=" M 64.82 72.04 C 69.58 71.49 71.91 76.56 73.64 80.11 C 72.20 81.40 70.76 82.69 69.31 83.98 C 68.93 82.30 68.57 80.61 68.17 78.94 C 67.63 76.40 66.30 74.14 64.82 72.04 Z" />
<path fill="#b7b2b4" opacity="1.00" d=" M 97.06 123.95 C 97.06 121.51 100.41 121.35 100.42 123.87 C 99.89 125.10 97.63 125.16 97.06 123.95 Z" />
<path fill="#b7b2b4" opacity="1.00" d=" M 21.26 128.82 C 22.10 126.53 24.98 128.14 22.97 129.84 C 22.54 129.58 21.68 129.07 21.26 128.82 Z" />
</g>
<g id="#af3742ff">
<path fill="#af3742" opacity="1.00" d=" M 52.41 90.78 C 52.01 83.11 57.48 76.40 63.52 72.26 C 64.55 74.06 65.66 75.82 66.45 77.74 C 65.95 79.41 66.06 81.48 64.80 82.80 C 63.39 82.88 62.01 82.52 60.63 82.30 C 60.15 81.15 59.63 79.84 58.13 79.93 C 57.02 82.06 57.54 84.45 57.96 86.69 C 58.84 86.55 59.72 86.43 60.60 86.33 C 62.16 86.40 63.72 86.54 65.27 86.68 C 64.95 87.34 64.31 88.67 63.99 89.33 C 60.13 89.83 56.28 90.44 52.41 90.78 Z" />
</g>
<g id="#ffffffff">
<path fill="#ffffff" opacity="1.00" d=" M 9.53 76.67 C 11.06 75.43 12.38 73.97 13.85 72.67 C 12.89 74.89 11.65 77.05 11.17 79.45 C 10.44 82.82 10.67 86.28 10.92 89.69 C 6.64 88.13 8.44 83.25 8.68 79.82 C 8.98 78.77 9.27 77.72 9.53 76.67 Z" />
<path fill="#ffffff" opacity="1.00" d=" M 14.54 87.95 C 14.77 85.60 13.65 81.38 16.88 80.83 C 16.49 83.20 17.11 86.65 14.54 87.95 Z" />
</g>
<g id="#e9505cff">
<path fill="#e9505c" opacity="1.00" d=" M 13.85 72.67 C 18.18 77.81 19.61 84.79 19.47 91.36 C 16.80 91.05 14.14 90.65 11.51 90.15 C 11.35 86.58 11.17 83.02 11.17 79.45 C 11.65 77.05 12.89 74.89 13.85 72.67 M 14.54 87.95 C 17.11 86.65 16.49 83.20 16.88 80.83 C 13.65 81.38 14.77 85.60 14.54 87.95 Z" />
</g>
<g id="#188463ff">
<path fill="#188463" opacity="1.00" d=" M 82.88 82.92 C 84.52 79.44 86.80 76.29 89.91 73.97 C 93.09 79.58 93.36 86.22 92.30 92.45 C 91.93 94.65 89.66 95.68 88.25 97.17 C 88.35 96.09 88.46 95.01 88.57 93.93 C 86.61 93.28 84.46 92.16 82.45 93.34 C 77.38 95.71 72.34 98.30 66.72 99.14 C 72.40 94.06 79.31 89.93 82.88 82.92 Z" />
</g>
<g id="#279061ff">
<path fill="#279061" opacity="1.00" d=" M 24.76 78.80 C 26.68 75.93 29.51 78.21 29.19 81.12 C 27.61 80.57 26.14 79.74 24.76 78.80 Z" />
<path fill="#279061" opacity="1.00" d=" M 17.08 112.17 C 19.87 113.16 22.72 114.46 24.44 116.99 C 24.87 119.16 22.88 120.96 22.03 122.84 C 20.75 123.11 19.48 123.39 18.20 123.68 C 17.65 121.31 16.79 119.01 16.39 116.60 C 16.59 115.12 16.82 113.65 17.08 112.17 Z" />
</g>
<g id="#992632ff">
<path fill="#992632" opacity="1.00" d=" M 66.45 77.74 C 67.16 80.77 66.63 83.91 65.27 86.68 C 63.72 86.54 62.16 86.40 60.60 86.33 C 60.63 84.99 60.64 83.64 60.63 82.30 C 62.01 82.52 63.39 82.88 64.80 82.80 C 66.06 81.48 65.95 79.41 66.45 77.74 Z" />
</g>
<g id="#2a9969ff">
<path fill="#2a9969" opacity="1.00" d=" M 36.73 85.90 C 34.71 82.70 38.03 80.41 40.14 78.51 C 40.58 80.64 40.84 82.81 41.01 84.98 C 39.60 85.34 38.16 85.61 36.73 85.90 Z" />
</g>
<g id="#68d5a4ff">
<path fill="#68d5a4" opacity="1.00" d=" M 52.30 78.61 C 52.58 79.11 53.13 80.12 53.41 80.63 C 53.04 81.45 52.68 82.27 52.31 83.09 C 50.30 85.58 48.04 88.16 44.83 89.03 C 39.06 90.69 34.04 94.46 28.01 95.26 C 24.33 95.98 20.71 94.68 17.05 94.57 C 14.24 94.65 11.50 95.43 8.79 96.13 C 9.68 94.49 10.46 92.81 11.28 91.14 C 14.26 92.18 17.44 92.60 20.59 92.20 C 25.99 90.20 32.19 89.73 36.73 85.90 C 38.16 85.61 39.60 85.34 41.01 84.98 C 43.45 83.74 45.89 82.46 48.51 81.65 C 50.25 81.36 51.30 79.90 52.30 78.61 Z" />
</g>
<g id="#8d8d8dff">
<path fill="#8d8d8d" opacity="1.00" d=" M 68.17 78.94 C 68.57 80.61 68.93 82.30 69.31 83.98 C 70.76 82.69 72.20 81.40 73.64 80.11 C 73.80 82.12 73.93 84.13 74.04 86.15 C 71.72 87.13 69.32 87.89 66.88 88.48 C 67.82 85.40 68.42 82.18 68.17 78.94 Z" />
</g>
<g id="#d7d4d5ff">
<path fill="#d7d4d5" opacity="1.00" d=" M 58.13 79.93 C 59.63 79.84 60.15 81.15 60.63 82.30 C 60.64 83.64 60.63 84.99 60.60 86.33 C 59.72 86.43 58.84 86.55 57.96 86.69 C 57.54 84.45 57.02 82.06 58.13 79.93 Z" />
</g>
<g id="#52bc90ff">
<path fill="#52bc90" opacity="1.00" d=" M 44.83 89.03 C 48.04 88.16 50.30 85.58 52.31 83.09 C 51.14 85.85 50.69 88.83 50.84 91.81 C 53.49 91.80 56.13 91.72 58.77 91.55 C 60.20 91.76 61.62 91.99 63.04 92.24 C 55.83 96.43 48.91 101.51 40.64 103.41 C 33.32 105.75 25.62 104.27 18.18 103.49 C 18.84 108.14 22.09 111.54 24.95 114.99 C 27.00 117.19 27.40 120.53 26.33 123.28 C 24.59 125.18 22.10 126.25 19.55 126.45 C 19.22 125.76 18.54 124.37 18.20 123.68 C 19.48 123.39 20.75 123.11 22.03 122.84 C 22.88 120.96 24.87 119.16 24.44 116.99 C 22.72 114.46 19.87 113.16 17.08 112.17 C 16.82 113.65 16.59 115.12 16.39 116.60 C 14.66 111.83 13.85 106.78 13.38 101.74 C 11.27 100.50 9.10 99.23 7.63 97.21 C 7.92 96.94 8.50 96.40 8.79 96.13 C 11.50 95.43 14.24 94.65 17.05 94.57 C 20.71 94.68 24.33 95.98 28.01 95.26 C 34.04 94.46 39.06 90.69 44.83 89.03 M 28.22 97.45 C 27.32 98.44 28.87 100.22 29.99 99.52 C 30.93 98.53 29.34 96.73 28.22 97.45 M 38.23 97.26 C 36.74 97.92 36.63 98.56 37.90 99.17 C 39.38 98.50 39.50 97.86 38.23 97.26 Z" />
</g>
<g id="#118261ff">
<path fill="#118261" opacity="1.00" d=" M 106.29 85.08 C 106.74 84.69 107.63 83.91 108.08 83.52 C 110.69 87.89 112.99 92.74 113.11 97.93 C 113.09 100.74 113.00 103.55 112.97 106.36 C 112.52 106.35 111.61 106.33 111.16 106.32 C 110.57 106.86 109.99 107.41 109.40 107.96 C 109.13 106.18 108.80 104.41 108.41 102.66 C 105.54 105.41 102.98 108.49 99.80 110.91 C 97.93 112.06 98.30 114.52 97.75 116.35 C 96.57 118.56 95.27 120.72 94.29 123.03 C 93.84 121.56 93.06 120.23 92.22 118.96 C 95.67 111.60 97.49 103.58 99.68 95.78 C 100.51 92.26 104.17 90.73 106.72 88.62 C 106.57 87.44 106.43 86.26 106.29 85.08 Z" />
</g>
<g id="#136d52ff">
<path fill="#136d52" opacity="1.00" d=" M 82.45 93.34 C 84.46 92.16 86.61 93.28 88.57 93.93 C 88.46 95.01 88.35 96.09 88.25 97.17 C 83.98 101.62 79.31 105.70 75.44 110.52 C 73.14 113.19 70.65 115.86 69.74 119.38 C 66.06 118.71 64.49 115.18 62.17 112.72 C 59.23 111.36 55.97 110.83 52.97 109.59 C 57.42 108.32 61.98 107.17 65.86 104.54 C 63.06 103.83 60.29 102.96 57.54 102.06 C 60.65 101.23 63.68 100.16 66.72 99.14 C 72.34 98.30 77.38 95.71 82.45 93.34 Z" />
</g>
<g id="#327257ff">
<path fill="#327257" opacity="1.00" d=" M 28.22 97.45 C 29.34 96.73 30.93 98.53 29.99 99.52 C 28.87 100.22 27.32 98.44 28.22 97.45 Z" />
</g>
<g id="#2a624aff">
<path fill="#2a624a" opacity="1.00" d=" M 38.23 97.26 C 39.50 97.86 39.38 98.50 37.90 99.17 C 36.63 98.56 36.74 97.92 38.23 97.26 Z" />
</g>
<g id="#0c5b3eff">
<path fill="#0c5b3e" opacity="1.00" d=" M 113.11 97.93 C 114.03 104.21 113.11 110.52 111.89 116.69 L 111.71 116.71 C 109.02 117.26 106.23 117.13 104.50 114.67 C 105.22 111.85 107.29 109.81 109.40 107.96 C 109.99 107.41 110.57 106.86 111.16 106.32 C 111.61 106.33 112.52 106.35 112.97 106.36 C 113.00 103.55 113.09 100.74 113.11 97.93 Z" />
</g>
<g id="#1d7b5dff">
<path fill="#1d7b5d" opacity="1.00" d=" M 38.67 106.68 C 44.73 104.34 51.09 102.80 57.54 102.06 C 60.29 102.96 63.06 103.83 65.86 104.54 C 61.98 107.17 57.42 108.32 52.97 109.59 C 55.97 110.83 59.23 111.36 62.17 112.72 C 64.49 115.18 66.06 118.71 69.74 119.38 C 69.91 119.88 70.24 120.88 70.41 121.38 C 70.72 123.93 70.77 126.51 70.87 129.07 C 70.38 126.62 70.18 124.13 70.02 121.64 C 64.53 122.24 59.04 121.53 53.55 121.66 C 50.74 121.37 47.82 119.89 45.04 121.07 L 44.46 121.24 C 44.65 120.16 44.17 119.51 43.02 119.29 C 42.09 118.76 41.25 118.10 40.50 117.30 C 41.08 121.70 39.64 126.24 36.71 129.56 C 35.37 129.74 34.03 129.92 32.69 130.11 C 33.54 128.75 33.34 127.76 32.08 127.15 C 30.77 127.71 30.43 128.69 31.04 130.09 C 30.43 130.13 29.20 130.21 28.58 130.25 C 28.73 129.49 29.02 127.95 29.16 127.19 C 30.34 126.54 31.51 125.90 32.69 125.26 C 32.69 122.07 33.64 118.34 31.28 115.71 C 29.04 112.94 26.63 110.27 24.93 107.11 C 29.49 107.35 34.29 108.48 38.67 106.68 Z" />
</g>
<g id="#126c50ff">
<path fill="#126c50" opacity="1.00" d=" M 99.80 110.91 C 102.98 108.49 105.54 105.41 108.41 102.66 C 108.80 104.41 109.13 106.18 109.40 107.96 C 107.29 109.81 105.22 111.85 104.50 114.67 C 102.60 112.06 99.81 115.66 97.75 116.35 C 98.30 114.52 97.93 112.06 99.80 110.91 Z" />
</g>
<g id="#287f61ff">
<path fill="#287f61" opacity="1.00" d=" M 97.75 116.35 C 99.81 115.66 102.60 112.06 104.50 114.67 C 106.23 117.13 109.02 117.26 111.71 116.71 C 111.11 120.44 109.21 124.62 104.73 124.38 C 106.30 121.86 101.86 121.58 103.01 124.25 C 102.40 124.32 101.20 124.46 100.59 124.53 L 100.42 123.87 C 100.41 121.35 97.06 121.51 97.06 123.95 C 96.26 124.02 94.66 124.16 93.86 124.23 L 94.29 123.03 C 95.27 120.72 96.57 118.56 97.75 116.35 Z" />
</g>
<g id="#4ead84ff">
<path fill="#4ead84" opacity="1.00" d=" M 70.41 121.38 C 72.91 119.22 75.65 117.36 78.59 115.85 C 80.18 117.30 81.73 118.79 83.24 120.32 C 81.77 122.52 80.61 124.93 78.88 126.94 C 77.26 128.68 74.64 128.08 72.53 128.37 C 72.60 128.93 72.73 130.05 72.79 130.61 L 72.04 130.52 L 70.93 130.39 L 70.87 129.07 C 70.77 126.51 70.72 123.93 70.41 121.38 Z" />
</g>
<g id="#7eb3a1ff">
<path fill="#7eb3a1" opacity="1.00" d=" M 43.02 119.29 C 44.17 119.51 44.65 120.16 44.46 121.24 C 42.88 121.57 42.40 120.92 43.02 119.29 Z" />
</g>
<g id="#789e97ff">
<path fill="#789e97" opacity="1.00" d=" M 103.01 124.25 C 101.86 121.58 106.30 121.86 104.73 124.38 C 104.30 124.34 103.44 124.28 103.01 124.25 Z" />
</g>
<g id="#1a8363ff">
<path fill="#1a8363" opacity="1.00" d=" M 88.59 125.04 C 89.94 125.44 91.29 125.84 92.65 126.25 C 90.85 130.50 86.67 133.27 82.02 133.04 C 82.19 132.42 82.54 131.18 82.71 130.56 C 85.04 129.20 87.43 127.57 88.59 125.04 Z" />
</g>
<g id="#9fc1b1ff">
<path fill="#9fc1b1" opacity="1.00" d=" M 25.94 130.00 C 25.37 128.57 25.73 127.59 27.02 127.04 C 28.26 127.71 28.43 128.73 27.54 130.07 C 27.14 130.05 26.34 130.02 25.94 130.00 Z" />
</g>
<g id="#8db5aeff">
<path fill="#8db5ae" opacity="1.00" d=" M 31.04 130.09 C 30.43 128.69 30.77 127.71 32.08 127.15 C 33.34 127.76 33.54 128.75 32.69 130.11 C 32.28 130.10 31.45 130.09 31.04 130.09 Z" />
</g>
<g id="#bad1d1ff">
<path fill="#bad1d1" opacity="1.00" d=" M 72.04 130.52 L 72.79 130.61 C 72.74 131.03 72.62 131.87 72.56 132.30 L 71.81 132.16 C 71.87 131.75 71.98 130.93 72.04 130.52 Z" />
</g>
<g id="#9abbb2fc">
<path fill="#9abbb2" opacity="1.00" d=" M 74.75 132.10 C 75.31 129.80 77.65 129.41 78.10 131.99 L 77.65 132.68 C 77.01 132.70 75.72 132.74 75.08 132.76 L 74.75 132.10 Z" />
</g>
<g id="#87afa5fd">
<path fill="#87afa5" opacity="1.00" d=" M 79.93 132.15 C 80.59 131.22 81.52 130.69 82.71 130.56 C 82.54 131.18 82.19 132.42 82.02 133.04 C 81.57 133.00 80.68 132.91 80.23 132.87 L 79.93 132.15 Z" />
</g>
</svg>
