<?xml version="1.0" encoding="UTF-8" ?>
<!DOCTYPE svg PUBLIC "-//W3C//DTD SVG 1.1//EN" "http://www.w3.org/Graphics/SVG/1.1/DTD/svg11.dtd">
<svg width="198pt" height="168pt" viewBox="0 0 198 168" version="1.1" xmlns="http://www.w3.org/2000/svg">
<g id="#fd7492fe">
<path fill="#fd7492" opacity="1.00" d=" M 90.44 6.33 C 92.82 6.29 95.72 4.15 97.91 6.09 C 102.35 7.55 104.27 13.86 101.70 17.70 C 100.08 21.05 99.06 24.73 96.58 27.59 C 91.85 30.90 85.85 31.14 80.30 31.83 C 79.26 30.52 78.39 29.08 77.26 27.84 C 75.83 30.27 74.52 32.75 73.04 35.14 C 73.18 33.40 72.91 31.49 74.00 29.99 C 77.63 24.14 81.26 18.27 85.39 12.76 C 85.39 12.49 85.37 11.95 85.36 11.68 C 86.30 9.64 89.69 8.96 90.44 6.33 Z" />
</g>
<g id="#fe6585ff">
<path fill="#fe6585" opacity="1.00" d=" M 97.91 6.09 C 100.17 5.00 102.56 5.84 104.87 6.27 C 105.21 7.83 105.62 9.37 105.99 10.92 C 108.01 20.88 104.06 31.14 96.98 38.01 C 90.08 41.99 81.74 40.44 74.24 42.24 C 71.51 44.01 71.90 47.45 71.24 50.31 C 71.15 46.94 70.97 43.58 71.15 40.22 C 71.78 38.53 72.34 36.81 73.04 35.14 C 74.52 32.75 75.83 30.27 77.26 27.84 C 78.39 29.08 79.26 30.52 80.30 31.83 C 85.85 31.14 91.85 30.90 96.58 27.59 C 99.06 24.73 100.08 21.05 101.70 17.70 C 104.27 13.86 102.35 7.55 97.91 6.09 Z" />
</g>
<g id="#e44356f8">
<path fill="#e44356" opacity="0.97" d=" M 104.87 6.27 C 106.86 5.79 109.00 4.50 109.85 7.04 C 111.54 8.00 113.43 8.51 113.11 10.93 C 111.01 10.99 108.91 11.06 106.82 11.14 L 105.99 10.92 C 105.62 9.37 105.21 7.83 104.87 6.27 Z" />
</g>
<g id="#f2647cf8">
<path fill="#f2647c" opacity="0.97" d=" M 109.85 7.04 C 110.66 4.36 114.70 7.63 116.87 6.33 C 121.55 12.92 130.30 17.74 131.80 26.17 C 126.67 20.73 119.12 18.44 114.02 12.90 C 113.79 12.41 113.34 11.43 113.11 10.93 C 113.43 8.51 111.54 8.00 109.85 7.04 Z" />
</g>
<g id="#fe5674ff">
<path fill="#fe5674" opacity="1.00" d=" M 105.99 10.92 L 106.82 11.14 C 107.36 12.43 107.94 13.71 108.64 14.92 L 109.10 15.74 C 107.96 24.10 109.56 33.38 103.04 40.04 C 96.65 51.01 81.65 46.79 72.11 53.03 C 71.27 52.27 70.98 51.36 71.24 50.31 C 71.90 47.45 71.51 44.01 74.24 42.24 C 81.74 40.44 90.08 41.99 96.98 38.01 C 104.06 31.14 108.01 20.88 105.99 10.92 Z" />
</g>
<g id="#c53244ff">
<path fill="#c53244" opacity="1.00" d=" M 106.82 11.14 C 108.91 11.06 111.01 10.99 113.11 10.93 C 113.34 11.43 113.79 12.41 114.02 12.90 L 114.05 13.78 C 112.14 12.99 110.34 14.13 108.64 14.92 C 107.94 13.71 107.36 12.43 106.82 11.14 Z" />
</g>
<g id="#e798a7f2">
<path fill="#e798a7" opacity="0.95" d=" M 76.02 22.01 C 79.15 18.65 81.63 14.34 85.36 11.68 C 85.37 11.95 85.39 12.49 85.39 12.76 C 81.26 18.27 77.63 24.14 74.00 29.99 C 72.91 31.49 73.18 33.40 73.04 35.14 C 72.34 36.81 71.78 38.53 71.15 40.22 C 71.12 39.68 71.06 38.61 71.04 38.08 C 70.36 32.26 74.15 27.24 76.02 22.01 Z" />
</g>
<g id="#951d2eff">
<path fill="#951d2e" opacity="1.00" d=" M 108.64 14.92 C 110.34 14.13 112.14 12.99 114.05 13.78 C 114.21 17.47 114.76 21.12 115.13 24.79 L 115.09 25.82 L 114.14 26.11 C 113.89 25.74 113.40 25.00 113.16 24.63 L 112.88 23.67 C 112.55 22.28 111.95 20.98 111.31 19.72 C 110.66 18.34 109.90 17.03 109.10 15.74 L 108.64 14.92 Z" />
</g>
<g id="#fa5671ff">
<path fill="#fa5671" opacity="1.00" d=" M 114.02 12.90 C 119.12 18.44 126.67 20.73 131.80 26.17 C 132.64 29.61 136.38 31.86 135.07 36.06 C 134.94 36.82 134.67 38.35 134.54 39.11 C 134.43 38.57 134.21 37.50 134.10 36.97 C 133.82 34.81 134.63 31.97 132.25 30.78 C 127.51 27.09 119.91 30.36 116.02 25.97 C 115.80 25.68 115.36 25.08 115.13 24.79 C 114.76 21.12 114.21 17.47 114.05 13.78 L 114.02 12.90 Z" />
</g>
<g id="#f24a65fe">
<path fill="#f24a65" opacity="1.00" d=" M 109.10 15.74 C 109.90 17.03 110.66 18.34 111.31 19.72 C 109.17 26.55 110.80 34.52 106.74 40.76 C 102.39 44.64 98.95 50.77 92.60 51.45 C 85.98 51.89 79.46 54.05 74.30 58.28 C 73.42 56.63 71.86 55.02 72.11 53.03 C 81.65 46.79 96.65 51.01 103.04 40.04 C 109.56 33.38 107.96 24.10 109.10 15.74 Z" />
</g>
<g id="#de425bfe">
<path fill="#de425b" opacity="1.00" d=" M 111.31 19.72 C 111.95 20.98 112.55 22.28 112.88 23.67 C 109.59 30.00 111.93 37.89 108.00 44.00 C 104.55 48.96 99.58 53.58 93.33 54.32 C 87.29 55.01 79.38 56.06 76.25 62.07 C 75.60 60.90 73.35 59.81 74.30 58.28 C 79.46 54.05 85.98 51.89 92.60 51.45 C 98.95 50.77 102.39 44.64 106.74 40.76 C 110.80 34.52 109.17 26.55 111.31 19.72 Z" />
</g>
<g id="#cc3a52fe">
<path fill="#cc3a52" opacity="1.00" d=" M 108.00 44.00 C 111.93 37.89 109.59 30.00 112.88 23.67 L 113.16 24.63 C 111.83 34.06 112.89 46.00 104.13 52.14 C 96.72 59.09 84.19 55.51 77.77 63.92 C 76.59 63.66 76.08 63.04 76.25 62.07 C 79.38 56.06 87.29 55.01 93.33 54.32 C 99.58 53.58 104.55 48.96 108.00 44.00 Z" />
</g>
<g id="#b83348fe">
<path fill="#b83348" opacity="1.00" d=" M 113.16 24.63 C 113.40 25.00 113.89 25.74 114.14 26.11 C 113.84 34.88 113.39 44.01 108.78 51.77 C 105.75 54.49 102.02 56.34 98.60 58.54 C 92.25 61.11 82.45 60.35 79.83 68.19 C 78.09 67.41 77.74 65.68 77.77 63.92 C 84.19 55.51 96.72 59.09 104.13 52.14 C 112.89 46.00 111.83 34.06 113.16 24.63 Z" />
</g>
<g id="#d2425bff">
<path fill="#d2425b" opacity="1.00" d=" M 115.13 24.79 C 115.36 25.08 115.80 25.68 116.02 25.97 C 115.99 29.94 115.15 34.57 118.08 37.80 C 121.82 37.04 125.44 34.12 129.36 35.51 C 130.96 35.93 132.55 36.39 134.10 36.97 C 134.21 37.50 134.43 38.57 134.54 39.11 C 134.44 39.56 134.24 40.46 134.14 40.91 C 127.75 41.70 121.21 46.29 114.82 44.02 C 115.01 37.95 114.99 31.88 115.09 25.82 L 115.13 24.79 Z" />
</g>
<g id="#a62c40ff">
<path fill="#a62c40" opacity="1.00" d=" M 114.14 26.11 L 115.09 25.82 C 114.99 31.88 115.01 37.95 114.82 44.02 L 114.74 44.83 C 114.32 47.85 113.81 50.89 114.01 53.95 C 119.69 54.11 125.39 53.84 131.07 54.07 C 130.98 55.78 130.46 57.41 129.90 59.01 C 129.12 58.17 128.46 56.59 127.01 57.05 C 122.69 57.37 118.51 58.78 114.19 58.97 C 112.06 56.86 113.31 53.55 112.81 50.85 C 108.73 55.79 104.26 61.25 97.60 62.46 C 94.73 62.45 92.17 63.52 89.72 64.80 L 89.58 63.98 C 86.76 66.26 83.47 67.80 79.83 68.19 C 82.45 60.35 92.25 61.11 98.60 58.54 C 102.02 56.34 105.75 54.49 108.78 51.77 C 113.39 44.01 113.84 34.88 114.14 26.11 Z" />
</g>
<g id="#e64a65ff">
<path fill="#e64a65" opacity="1.00" d=" M 116.02 25.97 C 119.91 30.36 127.51 27.09 132.25 30.78 C 134.63 31.97 133.82 34.81 134.10 36.97 C 132.55 36.39 130.96 35.93 129.36 35.51 C 125.44 34.12 121.82 37.04 118.08 37.80 C 115.15 34.57 115.99 29.94 116.02 25.97 Z" />
</g>
<g id="#cf506bee">
<path fill="#cf506b" opacity="0.93" d=" M 135.07 36.06 L 136.04 35.97 C 135.38 42.20 137.69 49.86 133.51 55.21 C 133.39 54.22 133.32 53.23 133.27 52.24 C 133.67 48.47 133.96 44.70 134.14 40.91 C 134.24 40.46 134.44 39.56 134.54 39.11 C 134.67 38.35 134.94 36.82 135.07 36.06 Z" />
</g>
<g id="#63303ba0">
<path fill="#63303b" opacity="0.63" d=" M 70.02 37.98 L 71.04 38.08 C 71.06 38.61 71.12 39.68 71.15 40.22 C 70.97 43.58 71.15 46.94 71.24 50.31 C 68.21 48.13 70.68 41.71 70.02 37.98 Z" />
</g>
<g id="#bf3c52ff">
<path fill="#bf3c52" opacity="1.00" d=" M 114.82 44.02 C 121.21 46.29 127.75 41.70 134.14 40.91 C 133.96 44.70 133.67 48.47 133.27 52.24 C 133.17 50.81 133.03 49.38 132.86 47.95 C 126.94 48.85 121.09 50.56 115.06 51.04 C 114.98 49.49 114.82 46.38 114.74 44.83 L 114.82 44.02 Z" />
</g>
<g id="#b0374cfe">
<path fill="#b0374c" opacity="1.00" d=" M 114.01 53.95 C 113.81 50.89 114.32 47.85 114.74 44.83 C 114.82 46.38 114.98 49.49 115.06 51.04 C 121.09 50.56 126.94 48.85 132.86 47.95 C 133.03 49.38 133.17 50.81 133.27 52.24 C 133.32 53.23 133.39 54.22 133.51 55.21 C 133.50 56.09 133.26 56.94 132.81 57.76 C 131.18 60.86 129.05 63.64 126.96 66.43 C 125.74 63.71 129.37 61.63 129.90 59.01 C 130.46 57.41 130.98 55.78 131.07 54.07 C 125.39 53.84 119.69 54.11 114.01 53.95 Z" />
</g>
<g id="#902637ff">
<path fill="#902637" opacity="1.00" d=" M 97.60 62.46 C 104.26 61.25 108.73 55.79 112.81 50.85 C 113.31 53.55 112.06 56.86 114.19 58.97 C 118.51 58.78 122.69 57.37 127.01 57.05 C 128.46 56.59 129.12 58.17 129.90 59.01 C 129.37 61.63 125.74 63.71 126.96 66.43 L 126.81 67.10 C 126.41 67.15 125.60 67.23 125.20 67.27 C 124.43 67.20 122.89 67.06 122.12 66.99 C 122.82 65.69 123.65 64.44 124.14 63.02 C 119.79 63.10 115.50 64.30 111.13 63.95 C 113.60 55.43 110.60 59.33 108.72 60.72 C 105.88 63.01 102.11 63.64 99.03 65.57 C 96.92 66.04 94.84 66.61 92.79 67.27 C 91.75 66.47 90.72 65.66 89.72 64.80 C 92.17 63.52 94.73 62.45 97.60 62.46 Z" />
</g>
<g id="#59bf58fd">
<path fill="#59bf58" opacity="1.00" d=" M 126.96 66.43 C 129.05 63.64 131.18 60.86 132.81 57.76 C 137.98 58.25 143.41 59.02 148.10 61.20 C 145.60 61.90 147.07 63.44 148.23 64.69 C 145.97 64.94 142.59 64.49 145.26 67.31 C 141.74 68.42 138.29 67.58 134.83 67.04 C 135.72 68.49 137.22 69.20 138.81 69.65 C 139.89 70.11 140.96 70.59 142.03 71.11 C 139.58 73.94 136.00 72.78 133.06 71.52 C 130.81 70.67 128.49 70.02 126.09 69.82 C 126.38 68.92 126.62 68.02 126.81 67.10 L 126.96 66.43 Z" />
</g>
<g id="#7a1f2cff">
<path fill="#7a1f2c" opacity="1.00" d=" M 108.72 60.72 C 110.60 59.33 113.60 55.43 111.13 63.95 C 115.50 64.30 119.79 63.10 124.14 63.02 C 123.65 64.44 122.82 65.69 122.12 66.99 C 122.89 67.06 124.43 67.20 125.20 67.27 C 122.79 67.93 120.53 68.98 118.32 70.11 C 118.66 68.39 118.98 66.66 119.03 64.90 C 115.84 65.03 114.77 68.98 112.02 69.96 C 110.56 69.67 110.12 67.88 109.08 66.97 C 106.59 66.49 105.05 68.60 103.25 69.85 C 102.01 68.27 101.15 66.14 99.03 65.57 C 102.11 63.64 105.88 63.01 108.72 60.72 Z" />
</g>
<g id="#3a743be5">
<path fill="#3a743b" opacity="0.90" d=" M 148.10 61.20 C 150.42 60.96 149.79 64.45 148.23 64.69 C 147.07 63.44 145.60 61.90 148.10 61.20 Z" />
</g>
<g id="#71ea6ffb">
<path fill="#71ea6f" opacity="1.00" d=" M 10.32 67.17 C 21.72 62.62 35.17 61.18 46.86 65.09 C 51.38 68.46 58.05 68.03 62.15 71.84 C 58.02 72.90 53.64 72.85 49.71 74.64 C 45.64 75.20 51.16 77.42 52.82 76.77 C 52.57 77.33 52.08 78.44 51.83 79.00 C 51.31 79.19 50.28 79.55 49.76 79.73 C 47.21 78.93 44.70 77.94 41.99 77.81 C 41.54 75.52 44.85 75.91 45.08 73.97 C 40.03 74.51 34.89 76.79 30.15 73.86 C 30.36 72.05 33.65 72.84 34.15 70.99 C 29.74 69.35 25.31 73.74 21.23 70.87 C 23.22 66.63 17.25 71.34 15.31 69.63 C 14.06 68.35 10.09 68.55 10.32 67.17 Z" />
</g>
<g id="#812d2fff">
<path fill="#812d2f" opacity="1.00" d=" M 79.83 68.19 C 83.47 67.80 86.76 66.26 89.58 63.98 L 89.72 64.80 C 89.35 66.14 89.06 67.50 88.71 68.85 C 86.18 68.45 83.65 68.36 81.19 69.16 C 80.85 68.91 80.17 68.43 79.83 68.19 Z" />
</g>
<g id="#57c55afc">
<path fill="#57c55a" opacity="1.00" d=" M 46.86 65.09 C 53.63 65.74 59.92 68.28 66.15 70.81 C 70.71 72.18 75.29 69.05 79.76 70.36 C 84.76 71.79 89.93 72.57 94.91 74.06 C 95.99 74.48 97.08 74.88 98.17 75.28 C 97.10 76.58 95.55 77.08 93.93 77.25 C 93.47 76.90 92.57 76.22 92.12 75.87 C 90.43 74.02 87.92 76.12 85.97 76.41 C 84.64 76.01 83.11 74.41 81.95 75.97 C 79.30 78.19 76.25 76.20 73.99 74.73 C 72.10 72.98 71.95 75.26 71.64 76.86 C 70.26 76.87 67.51 76.89 66.14 76.89 C 65.09 74.69 63.03 75.83 61.25 76.31 C 57.38 75.93 53.56 75.18 49.71 74.64 C 53.64 72.85 58.02 72.90 62.15 71.84 C 58.05 68.03 51.38 68.46 46.86 65.09 Z" />
</g>
<g id="#1f541efb">
<path fill="#1f541e" opacity="1.00" d=" M 88.71 68.85 C 89.06 67.50 89.35 66.14 89.72 64.80 C 90.72 65.66 91.75 66.47 92.79 67.27 C 94.13 68.40 95.63 69.33 97.13 70.25 C 96.53 71.60 95.72 72.83 94.91 74.06 C 89.93 72.57 84.76 71.79 79.76 70.36 C 80.11 70.06 80.83 69.46 81.19 69.16 C 83.65 68.36 86.18 68.45 88.71 68.85 Z" />
</g>
<g id="#123712ff">
<path fill="#123712" opacity="1.00" d=" M 112.02 69.96 C 114.77 68.98 115.84 65.03 119.03 64.90 C 118.98 66.66 118.66 68.39 118.32 70.11 C 120.53 68.98 122.79 67.93 125.20 67.27 C 125.60 67.23 126.41 67.15 126.81 67.10 C 126.62 68.02 126.38 68.92 126.09 69.82 C 124.64 70.92 123.21 72.07 121.77 73.19 C 119.65 75.05 117.97 77.26 116.73 79.81 C 115.89 81.03 116.11 82.62 115.86 84.01 C 114.70 84.00 113.53 83.99 112.37 83.95 C 111.96 82.93 111.26 82.19 110.27 81.74 C 106.91 79.52 103.33 77.68 99.81 75.74 C 104.77 75.21 108.24 72.06 109.08 66.97 C 110.12 67.88 110.56 69.67 112.02 69.96 Z" />
</g>
<g id="#7e1e2bff">
<path fill="#7e1e2b" opacity="1.00" d=" M 92.79 67.27 C 94.84 66.61 96.92 66.04 99.03 65.57 C 98.66 67.23 97.90 68.75 97.13 70.25 C 95.63 69.33 94.13 68.40 92.79 67.27 Z" />
</g>
<g id="#174918ff">
<path fill="#174918" opacity="1.00" d=" M 99.03 65.57 C 101.15 66.14 102.01 68.27 103.25 69.85 C 105.05 68.60 106.59 66.49 109.08 66.97 C 108.24 72.06 104.77 75.21 99.81 75.74 C 99.40 75.63 98.58 75.39 98.17 75.28 C 97.08 74.88 95.99 74.48 94.91 74.06 C 95.72 72.83 96.53 71.60 97.13 70.25 C 97.90 68.75 98.66 67.23 99.03 65.57 Z" />
</g>
<g id="#438d4afa">
<path fill="#438d4a" opacity="0.98" d=" M 134.83 67.04 C 138.29 67.58 141.74 68.42 145.26 67.31 C 147.51 66.55 147.04 67.60 145.81 68.85 C 143.47 69.07 141.13 69.33 138.81 69.65 C 137.22 69.20 135.72 68.49 134.83 67.04 Z" />
</g>
<g id="#050c053d">
<path fill="#050c05" opacity="0.24" d=" M 159.01 68.00 C 163.34 68.01 167.68 67.80 172.01 68.09 L 171.94 69.14 C 168.97 69.05 166.03 68.99 163.08 68.98 C 161.71 68.96 160.35 68.96 158.98 68.98 L 159.01 68.00 Z" />
</g>
<g id="#0e1d1076">
<path fill="#0e1d10" opacity="0.46" d=" M 138.81 69.65 C 141.13 69.33 143.47 69.07 145.81 68.85 C 146.59 71.11 142.40 69.05 142.03 71.11 C 140.96 70.59 139.89 70.11 138.81 69.65 Z" />
</g>
<g id="#53bb54fa">
<path fill="#53bb54" opacity="0.98" d=" M 144.27 72.34 C 148.19 69.64 154.16 70.21 158.98 68.98 C 160.35 68.96 161.71 68.96 163.08 68.98 C 164.10 70.47 163.50 71.91 162.64 73.28 C 162.78 74.56 163.71 75.62 164.07 76.86 C 162.76 77.03 160.14 77.38 158.83 77.56 C 157.62 77.39 156.43 77.10 155.21 77.02 C 155.56 82.08 147.93 82.28 145.17 79.07 C 143.59 83.26 137.06 85.32 133.64 82.63 C 133.81 82.36 134.15 81.82 134.33 81.54 C 137.22 82.02 140.08 81.46 142.89 80.77 C 142.72 78.76 141.96 76.66 143.27 74.84 C 143.63 74.02 143.96 73.18 144.27 72.34 Z" />
</g>
<g id="#5ecb5ef6">
<path fill="#5ecb5e" opacity="0.96" d=" M 163.08 68.98 C 166.03 68.99 168.97 69.05 171.94 69.14 L 172.76 69.24 C 175.81 69.67 178.92 70.04 182.02 70.05 C 187.23 69.92 192.49 71.18 196.89 74.05 C 198.18 77.34 188.48 72.64 191.91 77.06 C 189.03 77.51 186.72 75.64 184.12 74.85 C 184.32 75.41 184.72 76.52 184.92 77.08 C 181.14 78.48 178.42 75.80 175.17 74.86 C 177.08 78.80 169.60 78.74 167.80 76.19 C 166.06 74.22 165.87 75.87 165.78 77.76 C 163.50 78.29 160.56 80.13 158.83 77.56 C 160.14 77.38 162.76 77.03 164.07 76.86 C 163.71 75.62 162.78 74.56 162.64 73.28 C 163.50 71.91 164.10 70.47 163.08 68.98 Z" />
</g>
<g id="#3b823bc9">
<path fill="#3b823b" opacity="0.79" d=" M 172.76 69.24 C 175.22 69.97 181.05 67.43 182.02 70.05 C 178.92 70.04 175.81 69.67 172.76 69.24 Z" />
</g>
<g id="#48ac49ff">
<path fill="#48ac49" opacity="1.00" d=" M 121.77 73.19 C 123.21 72.07 124.64 70.92 126.09 69.82 C 128.49 70.02 130.81 70.67 133.06 71.52 C 131.51 72.74 133.38 73.39 134.27 74.19 C 132.57 75.15 130.78 75.93 128.96 76.63 C 128.53 76.70 127.67 76.85 127.24 76.92 C 125.36 75.76 123.42 74.66 121.77 73.19 Z" />
</g>
<g id="#327d36f9">
<path fill="#327d36" opacity="0.98" d=" M 142.03 71.11 C 142.59 71.41 143.71 72.03 144.27 72.34 C 143.96 73.18 143.63 74.02 143.27 74.84 C 140.79 73.57 138.00 75.19 135.36 75.04 C 135.09 74.83 134.54 74.40 134.27 74.19 C 133.38 73.39 131.51 72.74 133.06 71.52 C 136.00 72.78 139.58 73.94 142.03 71.11 Z" />
</g>
<g id="#348c36ff">
<path fill="#348c36" opacity="1.00" d=" M 116.73 79.81 C 117.97 77.26 119.65 75.05 121.77 73.19 C 123.42 74.66 125.36 75.76 127.24 76.92 C 123.95 78.48 120.51 80.37 116.73 79.81 Z" />
</g>
<g id="#3a863eff">
<path fill="#3a863e" opacity="1.00" d=" M 71.64 76.86 C 71.95 75.26 72.10 72.98 73.99 74.73 C 73.52 77.95 70.82 78.29 68.04 78.34 C 67.57 77.98 66.62 77.25 66.14 76.89 C 67.51 76.89 70.26 76.87 71.64 76.86 Z" />
</g>
<g id="#399240fe">
<path fill="#399240" opacity="1.00" d=" M 134.27 74.19 C 134.54 74.40 135.09 74.83 135.36 75.04 C 133.13 77.48 129.92 79.63 130.61 83.60 C 127.95 84.60 125.09 85.21 122.75 86.91 C 122.27 86.29 121.76 85.69 121.23 85.11 C 118.10 84.92 114.97 84.96 111.84 84.79 L 112.37 83.95 C 113.53 83.99 114.70 84.00 115.86 84.01 C 121.48 84.93 124.81 79.18 129.94 77.88 C 129.70 77.56 129.21 76.94 128.96 76.63 C 130.78 75.93 132.57 75.15 134.27 74.19 Z" />
</g>
<g id="#46a646fa">
<path fill="#46a646" opacity="0.98" d=" M 135.36 75.04 C 138.00 75.19 140.79 73.57 143.27 74.84 C 141.96 76.66 142.72 78.76 142.89 80.77 C 140.08 81.46 137.22 82.02 134.33 81.54 C 134.15 81.82 133.81 82.36 133.64 82.63 C 131.24 85.93 126.60 86.79 122.94 87.90 L 122.75 86.91 C 125.09 85.21 127.95 84.60 130.61 83.60 C 129.92 79.63 133.13 77.48 135.36 75.04 Z" />
</g>
<g id="#48a64cfe">
<path fill="#48a64c" opacity="1.00" d=" M 52.82 76.77 C 51.16 77.42 45.64 75.20 49.71 74.64 C 53.56 75.18 57.38 75.93 61.25 76.31 C 60.15 76.64 59.03 76.93 57.91 77.16 C 56.21 77.00 54.52 76.67 52.82 76.77 Z" />
</g>
<g id="#24532bff">
<path fill="#24532b" opacity="1.00" d=" M 61.25 76.31 C 63.03 75.83 65.09 74.69 66.14 76.89 C 66.62 77.25 67.57 77.98 68.04 78.34 C 67.88 80.24 67.47 82.11 67.01 83.97 C 65.00 83.03 63.15 81.77 61.11 80.89 C 60.65 80.66 59.73 80.21 59.27 79.99 C 59.98 78.58 59.24 77.71 57.91 77.16 C 59.03 76.93 60.15 76.64 61.25 76.31 Z" />
</g>
<g id="#15381cff">
<path fill="#15381c" opacity="1.00" d=" M 68.04 78.34 C 70.82 78.29 73.52 77.95 73.99 74.73 C 76.25 76.20 79.30 78.19 81.95 75.97 C 83.11 74.41 84.64 76.01 85.97 76.41 C 88.48 77.88 90.53 77.70 92.12 75.87 C 92.57 76.22 93.47 76.90 93.93 77.25 C 99.63 77.81 104.69 80.75 110.27 81.74 C 111.26 82.19 111.96 82.93 112.37 83.95 L 111.84 84.79 C 110.61 85.24 109.39 85.68 108.17 86.15 C 107.68 86.37 106.70 86.81 106.22 87.03 C 105.72 87.30 104.71 87.83 104.21 88.10 C 103.77 88.07 102.88 88.01 102.44 87.98 C 92.50 83.08 80.50 83.53 69.74 84.77 C 68.77 84.71 67.86 84.45 67.01 83.97 C 67.47 82.11 67.88 80.24 68.04 78.34 Z" />
</g>
<g id="#409644ff">
<path fill="#409644" opacity="1.00" d=" M 85.97 76.41 C 87.92 76.12 90.43 74.02 92.12 75.87 C 90.53 77.70 88.48 77.88 85.97 76.41 Z" />
</g>
<g id="#36853aff">
<path fill="#36853a" opacity="1.00" d=" M 98.17 75.28 C 98.58 75.39 99.40 75.63 99.81 75.74 C 103.33 77.68 106.91 79.52 110.27 81.74 C 104.69 80.75 99.63 77.81 93.93 77.25 C 95.55 77.08 97.10 76.58 98.17 75.28 Z" />
</g>
<g id="#33793ae0">
<path fill="#33793a" opacity="0.88" d=" M 52.82 76.77 C 54.52 76.67 56.21 77.00 57.91 77.16 C 59.24 77.71 59.98 78.58 59.27 79.99 L 58.54 79.88 C 56.33 79.25 53.95 80.11 51.83 79.00 C 52.08 78.44 52.57 77.33 52.82 76.77 Z" />
</g>
<g id="#277429ff">
<path fill="#277429" opacity="1.00" d=" M 116.73 79.81 C 120.51 80.37 123.95 78.48 127.24 76.92 C 127.67 76.85 128.53 76.70 128.96 76.63 C 129.21 76.94 129.70 77.56 129.94 77.88 C 124.81 79.18 121.48 84.93 115.86 84.01 C 116.11 82.62 115.89 81.03 116.73 79.81 Z" />
</g>
<g id="#59d1ccfd">
<path fill="#59d1cc" opacity="1.00" d=" M 49.76 79.73 C 50.28 79.55 51.31 79.19 51.83 79.00 C 53.95 80.11 56.33 79.25 58.54 79.88 C 57.11 80.49 55.62 80.92 54.15 81.42 C 55.21 84.07 50.88 92.96 59.01 89.01 C 61.38 88.34 60.98 90.22 60.67 91.84 C 59.51 94.46 58.80 97.25 58.76 100.14 C 56.20 97.64 57.46 94.31 57.93 91.28 C 56.24 90.91 54.54 90.61 52.87 90.17 C 50.37 88.04 50.55 83.09 49.76 79.73 Z" />
</g>
<g id="#4db3bbff">
<path fill="#4db3bb" opacity="1.00" d=" M 58.54 79.88 L 59.27 79.99 C 59.73 80.21 60.65 80.66 61.11 80.89 L 60.84 81.77 C 58.38 82.31 53.67 81.05 57.14 86.76 C 58.61 89.18 61.61 86.82 63.82 87.08 C 65.41 88.45 63.35 90.74 64.85 92.18 C 66.42 93.85 67.08 96.01 67.72 98.16 C 68.15 99.42 68.65 100.66 69.14 101.91 C 65.00 100.00 61.58 96.43 60.67 91.84 C 60.98 90.22 61.38 88.34 59.01 89.01 C 50.88 92.96 55.21 84.07 54.15 81.42 C 55.62 80.92 57.11 80.49 58.54 79.88 Z" />
</g>
<g id="#378d96ff">
<path fill="#378d96" opacity="1.00" d=" M 61.11 80.89 C 63.15 81.77 65.00 83.03 67.01 83.97 C 67.86 84.45 68.77 84.71 69.74 84.77 L 70.77 84.90 C 69.81 89.33 73.99 90.65 77.28 91.89 C 75.68 92.49 74.02 92.92 72.34 93.23 C 68.28 92.07 68.56 85.68 64.62 85.45 C 57.74 89.37 60.33 84.25 60.84 81.77 L 61.11 80.89 Z" />
</g>
<g id="#419da8ff">
<path fill="#419da8" opacity="1.00" d=" M 57.14 86.76 C 53.67 81.05 58.38 82.31 60.84 81.77 C 60.33 84.25 57.74 89.37 64.62 85.45 C 68.56 85.68 68.28 92.07 72.34 93.23 C 70.15 94.32 67.35 95.11 67.72 98.16 C 67.08 96.01 66.42 93.85 64.85 92.18 C 63.35 90.74 65.41 88.45 63.82 87.08 C 61.61 86.82 58.61 89.18 57.14 86.76 Z" />
</g>
<g id="#215d70ff">
<path fill="#215d70" opacity="1.00" d=" M 69.74 84.77 C 80.50 83.53 92.50 83.08 102.44 87.98 C 92.78 88.44 83.31 86.49 73.89 85.01 C 73.11 84.98 71.55 84.93 70.77 84.90 L 69.74 84.77 Z" />
</g>
<g id="#347f91ff">
<path fill="#347f91" opacity="1.00" d=" M 70.77 84.90 C 71.55 84.93 73.11 84.98 73.89 85.01 C 73.98 85.71 74.15 87.11 74.23 87.81 C 79.87 89.83 86.09 89.76 91.99 90.06 C 95.20 89.33 100.22 91.57 102.44 87.98 C 102.88 88.01 103.77 88.07 104.21 88.10 C 101.72 95.13 92.39 90.34 86.81 92.61 C 83.63 92.31 80.46 92.02 77.28 91.89 C 73.99 90.65 69.81 89.33 70.77 84.90 Z" />
</g>
<g id="#2c7083ff">
<path fill="#2c7083" opacity="1.00" d=" M 73.89 85.01 C 83.31 86.49 92.78 88.44 102.44 87.98 C 100.22 91.57 95.20 89.33 91.99 90.06 C 86.09 89.76 79.87 89.83 74.23 87.81 C 74.15 87.11 73.98 85.71 73.89 85.01 Z" />
</g>
<g id="#48a1b3ff">
<path fill="#48a1b3" opacity="1.00" d=" M 108.17 86.15 C 109.39 85.68 110.61 85.24 111.84 84.79 C 111.23 86.48 110.89 88.26 110.97 90.06 C 114.97 90.55 117.07 86.28 120.77 85.69 C 120.20 86.41 119.60 87.12 118.97 87.79 C 115.83 91.09 110.33 93.10 108.99 97.71 C 112.56 98.21 116.05 99.28 119.12 101.20 C 119.99 101.93 121.60 101.98 121.86 103.26 C 115.12 105.79 109.66 100.40 103.88 98.09 C 97.22 98.18 90.69 100.24 83.98 100.05 C 84.56 98.98 85.14 97.91 85.75 96.87 C 92.46 96.63 99.10 95.42 105.78 94.77 C 107.89 92.50 107.81 89.07 108.17 86.15 Z" />
</g>
<g id="#53b9c9ff">
<path fill="#53b9c9" opacity="1.00" d=" M 111.84 84.79 C 114.97 84.96 118.10 84.92 121.23 85.11 L 120.77 85.69 C 117.07 86.28 114.97 90.55 110.97 90.06 C 110.89 88.26 111.23 86.48 111.84 84.79 Z" />
</g>
<g id="#337b8ff6">
<path fill="#337b8f" opacity="0.96" d=" M 121.23 85.11 C 121.76 85.69 122.27 86.29 122.75 86.91 L 122.94 87.90 C 123.08 89.22 123.07 90.53 122.91 91.85 C 122.47 92.17 121.59 92.82 121.15 93.15 C 120.69 91.24 122.07 87.49 118.97 87.79 C 119.60 87.12 120.20 86.41 120.77 85.69 L 121.23 85.11 Z" />
</g>
<g id="#4397a9ff">
<path fill="#4397a9" opacity="1.00" d=" M 106.22 87.03 C 106.70 86.81 107.68 86.37 108.17 86.15 C 107.81 89.07 107.89 92.50 105.78 94.77 C 99.10 95.42 92.46 96.63 85.75 96.87 C 86.03 96.36 86.59 95.33 86.87 94.82 C 92.52 94.41 98.19 93.90 103.73 92.73 C 104.95 91.07 107.13 89.29 106.22 87.03 Z" />
</g>
<g id="#3d8d9fff">
<path fill="#3d8d9f" opacity="1.00" d=" M 104.21 88.10 C 104.71 87.83 105.72 87.30 106.22 87.03 C 107.13 89.29 104.95 91.07 103.73 92.73 C 98.19 93.90 92.52 94.41 86.87 94.82 C 86.86 94.27 86.82 93.16 86.81 92.61 C 92.39 90.34 101.72 95.13 104.21 88.10 Z" />
</g>
<g id="#1c2d37ff">
<path fill="#1c2d37" opacity="1.00" d=" M 108.99 97.71 C 110.33 93.10 115.83 91.09 118.97 87.79 C 122.07 87.49 120.69 91.24 121.15 93.15 C 121.06 96.00 121.05 98.95 119.12 101.20 C 116.05 99.28 112.56 98.21 108.99 97.71 Z" />
</g>
<g id="#5fcdd9fe">
<path fill="#5fcdd9" opacity="1.00" d=" M 52.87 90.17 C 54.54 90.61 56.24 90.91 57.93 91.28 C 57.46 94.31 56.20 97.64 58.76 100.14 C 60.44 102.88 62.93 105.39 63.11 108.78 C 58.98 110.62 61.65 115.76 64.21 117.83 C 66.56 118.68 66.39 115.45 67.25 114.08 C 70.87 114.02 74.61 113.65 78.15 114.68 C 80.81 115.18 84.75 116.46 81.83 120.73 C 77.77 124.80 73.51 130.11 67.31 130.41 C 62.14 130.68 56.95 129.89 51.77 130.15 C 51.05 130.13 49.63 130.09 48.91 130.07 C 48.21 129.51 47.51 128.95 46.81 128.39 C 49.55 127.65 53.75 125.55 52.16 122.08 C 52.87 122.03 54.29 121.92 55.00 121.87 C 54.60 117.43 53.24 113.13 52.35 108.78 C 52.22 107.66 51.84 106.66 51.21 105.79 C 50.94 105.54 50.42 105.05 50.15 104.80 C 48.45 108.79 44.03 113.63 46.78 118.15 C 47.01 118.49 47.47 119.15 47.70 119.49 L 48.11 120.10 C 46.79 119.70 45.47 119.30 44.14 118.92 C 44.48 109.89 47.97 100.89 53.80 94.02 C 53.47 92.74 53.07 91.48 52.87 90.17 M 56.04 108.01 C 56.55 110.60 53.53 117.18 57.96 115.99 C 57.45 113.40 60.47 106.81 56.04 108.01 Z" />
</g>
<g id="#56bccdff">
<path fill="#56bccd" opacity="1.00" d=" M 58.76 100.14 C 58.80 97.25 59.51 94.46 60.67 91.84 C 61.58 96.43 65.00 100.00 69.14 101.91 C 71.57 104.72 73.49 111.76 78.00 109.14 C 81.16 108.21 83.00 104.49 86.99 105.93 C 94.88 104.79 102.87 105.24 110.74 106.24 C 113.68 108.49 112.51 115.25 109.05 116.84 C 108.33 114.45 107.76 111.91 106.29 109.85 C 104.39 106.27 99.78 108.41 97.76 110.77 C 95.41 112.80 93.64 115.36 91.88 117.88 C 90.14 120.34 88.88 123.11 87.84 125.92 C 89.58 125.88 93.06 125.81 94.79 125.77 C 96.23 125.84 97.66 125.96 99.09 126.12 C 98.97 129.56 94.88 130.24 92.30 131.24 C 86.29 132.16 80.27 133.15 74.26 134.11 C 74.49 133.04 74.71 131.97 74.92 130.90 C 70.99 130.84 71.25 137.96 65.98 134.81 C 64.23 134.69 62.51 134.36 60.77 134.21 C 57.89 132.58 54.83 131.37 51.77 130.15 C 56.95 129.89 62.14 130.68 67.31 130.41 C 73.51 130.11 77.77 124.80 81.83 120.73 C 84.75 116.46 80.81 115.18 78.15 114.68 C 74.61 113.65 70.87 114.02 67.25 114.08 C 67.69 112.51 68.27 110.87 67.86 109.23 C 66.86 107.29 64.72 108.71 63.11 108.78 C 62.93 105.39 60.44 102.88 58.76 100.14 M 89.29 111.32 C 86.72 112.93 86.23 116.23 85.95 119.01 C 89.41 119.00 88.63 113.45 90.04 110.91 L 89.29 111.32 Z" />
</g>
<g id="#0a5065ff">
<path fill="#0a5065" opacity="1.00" d=" M 72.34 93.23 C 74.02 92.92 75.68 92.49 77.28 91.89 C 80.46 92.02 83.63 92.31 86.81 92.61 C 86.82 93.16 86.86 94.27 86.87 94.82 C 86.59 95.33 86.03 96.36 85.75 96.87 C 85.14 97.91 84.56 98.98 83.98 100.05 C 81.80 102.96 79.90 106.05 78.00 109.14 C 73.49 111.76 71.57 104.72 69.14 101.91 C 68.65 100.66 68.15 99.42 67.72 98.16 C 67.35 95.11 70.15 94.32 72.34 93.23 M 69.02 96.20 C 69.28 96.64 69.81 97.51 70.08 97.94 C 70.67 101.66 73.21 104.77 75.19 107.91 C 78.96 107.74 80.85 102.24 81.99 99.05 C 83.85 98.63 83.87 95.65 84.05 94.01 C 78.93 93.68 73.73 94.06 69.02 96.20 Z" />
</g>
<g id="#4193a9ff">
<path fill="#4193a9" opacity="1.00" d=" M 121.15 93.15 C 121.59 92.82 122.47 92.17 122.91 91.85 L 122.93 92.94 C 122.97 95.85 122.83 98.80 123.15 101.71 C 124.95 102.06 127.10 102.01 127.73 104.12 C 128.41 106.39 128.82 110.45 132.04 110.05 C 132.06 108.29 131.73 106.56 131.26 104.88 L 131.26 103.79 C 132.80 105.53 133.93 107.59 134.79 109.74 C 133.11 114.83 131.50 120.24 133.19 125.59 C 128.39 131.70 122.94 137.58 117.32 143.20 C 117.47 143.63 117.77 144.49 117.92 144.92 L 117.01 144.77 C 114.66 144.15 112.31 143.55 109.97 142.90 C 110.60 142.20 111.26 141.54 111.97 140.91 C 113.03 141.43 114.26 142.47 115.34 141.35 C 119.95 138.22 124.51 134.17 125.61 128.44 C 127.48 125.63 130.80 117.92 125.12 118.91 C 125.54 113.87 123.59 109.25 122.26 104.53 C 122.16 104.21 121.96 103.57 121.86 103.26 C 121.60 101.98 119.99 101.93 119.12 101.20 C 121.05 98.95 121.06 96.00 121.15 93.15 Z" />
</g>
<g id="#368495ff">
<path fill="#368495" opacity="1.00" d=" M 122.93 92.94 C 123.89 93.32 124.85 93.71 125.81 94.11 C 123.84 96.83 128.07 97.98 129.23 100.03 C 129.91 101.28 130.62 102.52 131.26 103.79 L 131.26 104.88 C 129.87 103.78 127.45 100.13 127.73 104.12 C 127.10 102.01 124.95 102.06 123.15 101.71 C 122.83 98.80 122.97 95.85 122.93 92.94 Z" />
</g>
<g id="#005b7dff">
<path fill="#005b7d" opacity="1.00" d=" M 69.02 96.20 C 73.73 94.06 78.93 93.68 84.05 94.01 C 83.87 95.65 83.85 98.63 81.99 99.05 C 78.01 98.72 74.05 98.32 70.08 97.94 C 69.81 97.51 69.28 96.64 69.02 96.20 Z" />
</g>
<g id="#165365eb">
<path fill="#165365" opacity="0.92" d=" M 125.81 94.11 C 127.50 95.10 130.26 95.96 130.87 97.80 C 130.32 98.54 129.77 99.29 129.23 100.03 C 128.07 97.98 123.84 96.83 125.81 94.11 Z" />
</g>
<g id="#016589ff">
<path fill="#016589" opacity="1.00" d=" M 70.08 97.94 C 74.05 98.32 78.01 98.72 81.99 99.05 C 80.85 102.24 78.96 107.74 75.19 107.91 C 73.21 104.77 70.67 101.66 70.08 97.94 Z" />
</g>
<g id="#51b2c5ff">
<path fill="#51b2c5" opacity="1.00" d=" M 83.98 100.05 C 90.69 100.24 97.22 98.18 103.88 98.09 C 109.66 100.40 115.12 105.79 121.86 103.26 C 121.96 103.57 122.16 104.21 122.26 104.53 C 117.56 107.38 121.53 113.75 120.07 118.26 C 119.56 116.97 118.56 114.40 118.05 113.11 C 114.90 115.90 114.06 121.24 110.45 123.93 L 110.08 123.13 C 109.64 121.98 109.12 120.88 108.55 119.80 C 108.48 118.95 108.41 118.10 108.30 117.25 L 109.05 116.84 C 112.51 115.25 113.68 108.49 110.74 106.24 C 102.87 105.24 94.88 104.79 86.99 105.93 C 83.00 104.49 81.16 108.21 78.00 109.14 C 79.90 106.05 81.80 102.96 83.98 100.05 Z" />
</g>
<g id="#05647ffd">
<path fill="#05647f" opacity="1.00" d=" M 129.23 100.03 C 129.77 99.29 130.32 98.54 130.87 97.80 C 134.64 101.04 138.83 104.45 141.20 108.98 C 140.94 111.76 139.73 114.49 137.29 116.01 C 136.45 113.93 135.72 111.79 134.79 109.74 C 133.93 107.59 132.80 105.53 131.26 103.79 C 130.62 102.52 129.91 101.28 129.23 100.03 Z" />
</g>
<g id="#0a5369ff">
<path fill="#0a5369" opacity="1.00" d=" M 127.73 104.12 C 127.45 100.13 129.87 103.78 131.26 104.88 C 131.73 106.56 132.06 108.29 132.04 110.05 C 128.82 110.45 128.41 106.39 127.73 104.12 Z" />
</g>
<g id="#dcdddeff">
<path fill="#dcddde" opacity="1.00" d=" M 50.15 104.80 C 50.42 105.05 50.94 105.54 51.21 105.79 C 48.76 109.53 47.72 113.84 46.78 118.15 C 44.03 113.63 48.45 108.79 50.15 104.80 Z" />
</g>
<g id="#53bfd1ff">
<path fill="#53bfd1" opacity="1.00" d=" M 120.07 118.26 C 121.53 113.75 117.56 107.38 122.26 104.53 C 123.59 109.25 125.54 113.87 125.12 118.91 C 124.56 127.35 119.13 134.22 112.26 138.66 C 110.39 139.75 108.50 140.78 106.63 141.86 C 105.67 142.21 104.72 142.56 103.77 142.91 C 101.63 143.33 96.71 145.80 101.21 146.74 C 99.42 146.96 97.62 147.18 95.85 147.52 C 86.54 146.98 77.11 147.54 68.05 144.87 L 67.10 144.59 C 65.79 144.08 64.47 143.58 63.16 143.03 C 61.94 142.48 60.66 141.94 59.28 142.02 C 58.62 145.65 58.02 149.61 55.18 152.26 C 55.29 148.79 56.06 145.39 56.44 141.96 C 57.45 139.66 54.84 138.66 53.31 137.62 C 53.01 137.18 52.42 136.28 52.12 135.83 C 51.28 134.68 50.18 133.78 49.22 132.74 C 49.18 132.29 49.09 131.38 49.04 130.92 C 50.73 131.87 52.44 132.78 54.08 133.82 C 59.08 139.34 66.43 141.16 73.00 144.00 C 80.56 145.26 88.95 146.45 96.24 143.40 C 98.98 142.58 101.72 141.68 104.26 140.35 C 108.17 138.22 112.35 136.24 115.48 133.01 C 119.02 128.97 120.13 123.48 120.07 118.26 Z" />
</g>
<g id="#c04954ff">
<path fill="#c04954" opacity="1.00" d=" M 51.21 105.79 C 51.84 106.66 52.22 107.66 52.35 108.78 C 49.68 111.91 52.18 118.53 47.70 119.49 C 47.47 119.15 47.01 118.49 46.78 118.15 C 47.72 113.84 48.76 109.53 51.21 105.79 Z" />
</g>
<g id="#2a929eff">
<path fill="#2a929e" opacity="1.00" d=" M 56.04 108.01 C 60.47 106.81 57.45 113.40 57.96 115.99 C 53.53 117.18 56.55 110.60 56.04 108.01 Z" />
</g>
<g id="#13687bff">
<path fill="#13687b" opacity="1.00" d=" M 63.11 108.78 C 64.72 108.71 66.86 107.29 67.86 109.23 C 68.27 110.87 67.69 112.51 67.25 114.08 C 66.39 115.45 66.56 118.68 64.21 117.83 C 61.65 115.76 58.98 110.62 63.11 108.78 M 64.20 110.17 C 62.03 111.24 63.17 115.40 64.86 115.85 C 65.59 114.14 67.64 108.99 64.20 110.17 Z" />
</g>
<g id="#265159ff">
<path fill="#265159" opacity="1.00" d=" M 97.76 110.77 C 99.78 108.41 104.39 106.27 106.29 109.85 C 106.01 110.15 105.45 110.75 105.17 111.06 C 104.44 108.88 102.57 108.89 100.86 110.01 C 100.32 110.21 99.23 110.63 98.69 110.83 L 97.76 110.77 Z" />
</g>
<g id="#5e353eff">
<path fill="#5e353e" opacity="1.00" d=" M 52.35 108.78 C 53.24 113.13 54.60 117.43 55.00 121.87 C 54.29 121.92 52.87 122.03 52.16 122.08 C 50.81 121.42 49.47 120.75 48.11 120.10 L 47.70 119.49 C 52.18 118.53 49.68 111.91 52.35 108.78 Z" />
</g>
<g id="#c9c8c9ff">
<path fill="#c9c8c9" opacity="1.00" d=" M 100.86 110.01 C 102.57 108.89 104.44 108.88 105.17 111.06 C 106.09 113.18 107.15 115.24 108.30 117.25 C 108.41 118.10 108.48 118.95 108.55 119.80 C 108.70 122.74 106.67 123.34 104.16 123.20 C 104.38 118.50 102.58 114.23 100.86 110.01 Z" />
</g>
<g id="#4db0c1fc">
<path fill="#4db0c1" opacity="1.00" d=" M 141.20 108.98 C 145.32 114.33 148.50 120.99 148.78 127.76 C 148.54 128.14 148.07 128.89 147.83 129.27 C 147.16 127.75 147.18 125.85 146.01 124.62 C 144.10 123.70 142.13 122.93 140.13 122.23 C 137.49 124.36 136.75 127.75 136.80 130.98 C 136.29 131.21 135.26 131.67 134.75 131.90 C 134.28 129.78 133.76 127.68 133.19 125.59 C 131.50 120.24 133.11 114.83 134.79 109.74 C 135.72 111.79 136.45 113.93 137.29 116.01 C 139.73 114.49 140.94 111.76 141.20 108.98 Z" />
</g>
<g id="#00759cff">
<path fill="#00759c" opacity="1.00" d=" M 64.20 110.17 C 67.64 108.99 65.59 114.14 64.86 115.85 C 63.17 115.40 62.03 111.24 64.20 110.17 Z" />
</g>
<g id="#842d38ff">
<path fill="#842d38" opacity="1.00" d=" M 98.69 110.83 C 99.23 110.63 100.32 110.21 100.86 110.01 C 102.58 114.23 104.38 118.50 104.16 123.20 C 102.41 123.67 100.60 123.86 98.80 123.95 C 101.37 123.48 102.57 121.78 102.04 119.17 C 102.50 116.22 101.11 113.60 99.17 111.50 L 98.69 110.83 Z" />
</g>
<g id="#49838bff">
<path fill="#49838b" opacity="1.00" d=" M 106.29 109.85 C 107.76 111.91 108.33 114.45 109.05 116.84 L 108.30 117.25 C 107.15 115.24 106.09 113.18 105.17 111.06 C 105.45 110.75 106.01 110.15 106.29 109.85 Z" />
</g>
<g id="#237f8fff">
<path fill="#237f8f" opacity="1.00" d=" M 89.29 111.32 L 90.04 110.91 C 88.63 113.45 89.41 119.00 85.95 119.01 C 86.23 116.23 86.72 112.93 89.29 111.32 Z" />
</g>
<g id="#21191dff">
<path fill="#21191d" opacity="1.00" d=" M 91.88 117.88 C 93.64 115.36 95.41 112.80 97.76 110.77 L 98.69 110.83 L 99.17 111.50 C 96.25 112.80 97.22 115.74 98.05 118.08 C 97.91 119.76 98.43 122.92 95.99 122.96 C 92.78 123.23 95.49 116.22 91.95 118.89 L 91.88 117.88 Z" />
</g>
<g id="#cd4b56ff">
<path fill="#cd4b56" opacity="1.00" d=" M 98.05 118.08 C 97.22 115.74 96.25 112.80 99.17 111.50 C 101.11 113.60 102.50 116.22 102.04 119.17 C 100.69 118.87 99.35 118.52 98.05 118.08 Z" />
</g>
<g id="#49a3bbff">
<path fill="#49a3bb" opacity="1.00" d=" M 110.45 123.93 C 114.06 121.24 114.90 115.90 118.05 113.11 C 118.56 114.40 119.56 116.97 120.07 118.26 C 120.13 123.48 119.02 128.97 115.48 133.01 C 109.14 129.19 101.47 132.80 94.76 133.61 C 87.39 133.96 80.31 136.16 73.04 137.13 C 68.70 137.57 64.42 136.51 60.77 134.21 C 62.51 134.36 64.23 134.69 65.98 134.81 C 71.25 137.96 70.99 130.84 74.92 130.90 C 74.71 131.97 74.49 133.04 74.26 134.11 C 80.27 133.15 86.29 132.16 92.30 131.24 C 94.88 130.24 98.97 129.56 99.09 126.12 C 97.66 125.96 96.23 125.84 94.79 125.77 C 99.92 125.12 105.27 125.29 110.08 123.13 L 110.45 123.93 Z" />
</g>
<g id="#2e5e6bff">
<path fill="#2e5e6b" opacity="1.00" d=" M 87.84 125.92 C 88.88 123.11 90.14 120.34 91.88 117.88 L 91.95 118.89 C 92.00 120.84 89.07 123.43 91.23 124.77 C 93.77 124.68 96.27 124.21 98.80 123.95 C 100.60 123.86 102.41 123.67 104.16 123.20 C 106.67 123.34 108.70 122.74 108.55 119.80 C 109.12 120.88 109.64 121.98 110.08 123.13 C 105.27 125.29 99.92 125.12 94.79 125.77 C 93.06 125.81 89.58 125.88 87.84 125.92 Z" />
</g>
<g id="#bd3645ff">
<path fill="#bd3645" opacity="1.00" d=" M 91.95 118.89 C 95.49 116.22 92.78 123.23 95.99 122.96 C 98.43 122.92 97.91 119.76 98.05 118.08 C 99.35 118.52 100.69 118.87 102.04 119.17 C 102.57 121.78 101.37 123.48 98.80 123.95 C 96.27 124.21 93.77 124.68 91.23 124.77 C 89.07 123.43 92.00 120.84 91.95 118.89 Z" />
</g>
<g id="#68e9eafd">
<path fill="#68e9ea" opacity="1.00" d=" M 44.14 118.92 C 45.47 119.30 46.79 119.70 48.11 120.10 C 49.47 120.75 50.81 121.42 52.16 122.08 C 53.75 125.55 49.55 127.65 46.81 128.39 L 45.96 128.05 C 41.99 126.70 42.87 122.09 44.14 118.92 Z" />
</g>
<g id="#3c879eff">
<path fill="#3c879e" opacity="1.00" d=" M 125.12 118.91 C 130.80 117.92 127.48 125.63 125.61 128.44 C 124.51 134.17 119.95 138.22 115.34 141.35 C 114.26 142.47 113.03 141.43 111.97 140.91 C 112.17 140.17 112.27 139.42 112.26 138.66 C 119.13 134.22 124.56 127.35 125.12 118.91 Z" />
</g>
<g id="#3c8ba4ff">
<path fill="#3c8ba4" opacity="1.00" d=" M 140.13 122.23 C 142.13 122.93 144.10 123.70 146.01 124.62 C 143.83 126.35 142.64 129.00 143.06 131.79 C 141.43 129.31 138.90 132.32 136.80 130.98 C 136.75 127.75 137.49 124.36 140.13 122.23 Z" />
</g>
<g id="#0a566fff">
<path fill="#0a566f" opacity="1.00" d=" M 143.06 131.79 C 142.64 129.00 143.83 126.35 146.01 124.62 C 147.18 125.85 147.16 127.75 147.83 129.27 C 147.86 129.97 147.93 131.37 147.96 132.07 C 146.38 133.18 144.62 132.65 143.06 131.79 Z" />
</g>
<g id="#469eb3fe">
<path fill="#469eb3" opacity="1.00" d=" M 117.32 143.20 C 122.94 137.58 128.39 131.70 133.19 125.59 C 133.76 127.68 134.28 129.78 134.75 131.90 C 135.39 136.52 133.58 141.30 134.74 145.86 C 133.45 148.89 132.56 152.06 131.42 155.15 C 129.85 151.90 126.01 153.00 123.01 153.04 C 119.73 153.58 115.37 153.25 114.07 156.97 L 113.65 157.95 C 112.71 153.96 113.89 149.26 111.28 145.79 C 111.21 146.33 111.07 147.41 111.00 147.95 L 110.23 147.80 C 109.30 143.45 104.04 148.57 101.21 146.74 C 96.71 145.80 101.63 143.33 103.77 142.91 C 104.15 145.75 105.85 146.15 108.86 144.12 C 109.14 143.82 109.69 143.20 109.97 142.90 C 112.31 143.55 114.66 144.15 117.01 144.77 C 116.80 146.26 116.40 149.24 116.19 150.74 C 117.15 153.19 119.53 150.54 120.94 149.81 C 121.73 147.39 119.67 146.05 117.92 144.92 C 117.77 144.49 117.47 143.63 117.32 143.20 Z" />
</g>
<g id="#c2d7d9f9">
<path fill="#c2d7d9" opacity="0.98" d=" M 45.96 128.05 L 46.81 128.39 C 47.51 128.95 48.21 129.51 48.91 130.07 L 49.04 130.92 C 49.09 131.38 49.18 132.29 49.22 132.74 C 47.04 133.09 46.36 129.74 45.96 128.05 Z" />
</g>
<g id="#64ddeaff">
<path fill="#64ddea" opacity="1.00" d=" M 147.83 129.27 C 148.07 128.89 148.54 128.14 148.78 127.76 C 148.83 128.31 148.93 129.43 148.98 129.98 C 148.99 133.37 149.06 136.78 148.88 140.16 L 148.74 141.31 C 148.49 140.68 148.01 139.44 147.77 138.81 C 147.81 137.13 147.91 133.75 147.96 132.07 C 147.93 131.37 147.86 129.97 147.83 129.27 Z" />
</g>
<g id="#408da5ff">
<path fill="#408da5" opacity="1.00" d=" M 48.91 130.07 C 49.63 130.09 51.05 130.13 51.77 130.15 C 54.83 131.37 57.89 132.58 60.77 134.21 C 64.42 136.51 68.70 137.57 73.04 137.13 C 72.77 137.61 72.23 138.58 71.96 139.06 C 81.72 139.58 91.19 136.11 100.98 137.03 C 103.38 139.07 104.10 135.66 105.04 133.97 C 103.20 134.07 100.30 133.30 100.72 136.15 C 100.06 133.37 96.93 134.05 94.76 133.61 C 101.47 132.80 109.14 129.19 115.48 133.01 C 112.35 136.24 108.17 138.22 104.26 140.35 C 100.46 140.30 96.72 139.83 92.99 139.21 C 86.56 139.56 80.19 140.77 73.77 141.30 C 66.44 140.85 60.49 136.77 54.08 133.82 C 52.44 132.78 50.73 131.87 49.04 130.92 L 48.91 130.07 Z" />
</g>
<g id="#4397afff">
<path fill="#4397af" opacity="1.00" d=" M 136.80 130.98 C 138.90 132.32 141.43 129.31 143.06 131.79 C 144.62 132.65 146.38 133.18 147.96 132.07 C 147.91 133.75 147.81 137.13 147.77 138.81 C 147.32 141.26 147.06 143.78 146.44 146.20 C 146.35 145.69 146.16 144.68 146.07 144.17 C 143.64 146.45 140.18 146.76 137.02 147.15 C 136.69 146.95 136.03 146.56 135.70 146.37 C 138.84 143.89 138.18 139.65 137.85 136.09 C 137.27 134.33 137.37 131.48 134.75 131.90 C 135.26 131.67 136.29 131.21 136.80 130.98 Z" />
</g>
<g id="#0e1e1f5f">
<path fill="#0e1e1f" opacity="0.37" d=" M 148.98 129.98 L 149.99 130.01 C 149.71 132.55 149.16 137.63 148.88 140.16 C 149.06 136.78 148.99 133.37 148.98 129.98 Z" />
</g>
<g id="#0b6a89ff">
<path fill="#0b6a89" opacity="1.00" d=" M 134.75 131.90 C 137.37 131.48 137.27 134.33 137.85 136.09 C 138.18 139.65 138.84 143.89 135.70 146.37 L 134.74 145.86 C 133.58 141.30 135.39 136.52 134.75 131.90 Z" />
</g>
<g id="#4ba8bdff">
<path fill="#4ba8bd" opacity="1.00" d=" M 54.08 133.82 C 60.49 136.77 66.44 140.85 73.77 141.30 C 81.23 142.54 88.94 141.15 96.24 143.40 C 88.95 146.45 80.56 145.26 73.00 144.00 C 66.43 141.16 59.08 139.34 54.08 133.82 Z" />
</g>
<g id="#34768fff">
<path fill="#34768f" opacity="1.00" d=" M 73.04 137.13 C 80.31 136.16 87.39 133.96 94.76 133.61 C 96.93 134.05 100.06 133.37 100.72 136.15 L 100.98 137.03 C 91.19 136.11 81.72 139.58 71.96 139.06 C 72.23 138.58 72.77 137.61 73.04 137.13 Z" />
</g>
<g id="#cfd6dcff">
<path fill="#cfd6dc" opacity="1.00" d=" M 100.72 136.15 C 100.30 133.30 103.20 134.07 105.04 133.97 C 104.10 135.66 103.38 139.07 100.98 137.03 L 100.72 136.15 Z" />
</g>
<g id="#04151558">
<path fill="#041515" opacity="0.35" d=" M 52.12 135.83 C 52.42 136.28 53.01 137.18 53.31 137.62 C 53.24 138.48 53.11 140.20 53.04 141.06 C 52.95 143.04 52.97 145.02 52.95 147.00 L 51.99 147.00 C 52.02 144.21 52.08 138.62 52.12 135.83 Z" />
</g>
<g id="#097c90ff">
<path fill="#097c90" opacity="1.00" d=" M 53.31 137.62 C 54.84 138.66 57.45 139.66 56.44 141.96 C 55.29 141.69 54.16 141.40 53.04 141.06 C 53.11 140.20 53.24 138.48 53.31 137.62 Z" />
</g>
<g id="#459bb5ff">
<path fill="#459bb5" opacity="1.00" d=" M 73.77 141.30 C 80.19 140.77 86.56 139.56 92.99 139.21 C 96.72 139.83 100.46 140.30 104.26 140.35 C 101.72 141.68 98.98 142.58 96.24 143.40 C 88.94 141.15 81.23 142.54 73.77 141.30 Z" />
</g>
<g id="#2a6e89ff">
<path fill="#2a6e89" opacity="1.00" d=" M 106.63 141.86 C 108.50 140.78 110.39 139.75 112.26 138.66 C 112.27 139.42 112.17 140.17 111.97 140.91 C 111.26 141.54 110.60 142.20 109.97 142.90 C 109.69 143.20 109.14 143.82 108.86 144.12 C 108.10 143.38 107.36 142.63 106.63 141.86 Z" />
</g>
<g id="#47a9b8eb">
<path fill="#47a9b8" opacity="0.92" d=" M 146.44 146.20 C 147.06 143.78 147.32 141.26 147.77 138.81 C 148.01 139.44 148.49 140.68 148.74 141.31 C 148.23 144.89 148.04 150.56 144.99 153.03 C 145.01 152.51 145.05 151.46 145.07 150.94 C 145.63 149.39 146.08 147.80 146.44 146.20 Z" />
</g>
<g id="#5cd6d8fa">
<path fill="#5cd6d8" opacity="0.98" d=" M 53.04 141.06 C 54.16 141.40 55.29 141.69 56.44 141.96 C 56.06 145.39 55.29 148.79 55.18 152.26 C 55.15 152.68 55.09 153.53 55.06 153.96 C 54.85 154.24 54.43 154.81 54.21 155.10 C 53.55 152.44 52.76 149.77 52.95 147.00 C 52.97 145.02 52.95 143.04 53.04 141.06 Z" />
</g>
<g id="#4ca9b9fe">
<path fill="#4ca9b9" opacity="1.00" d=" M 59.28 142.02 C 60.66 141.94 61.94 142.48 63.16 143.03 C 62.97 147.61 59.04 150.69 57.92 154.92 C 57.71 156.88 55.94 154.19 55.06 153.96 C 55.09 153.53 55.15 152.68 55.18 152.26 C 58.02 149.61 58.62 145.65 59.28 142.02 Z" />
</g>
<g id="#3887a0ff">
<path fill="#3887a0" opacity="1.00" d=" M 103.77 142.91 C 104.72 142.56 105.67 142.21 106.63 141.86 C 107.36 142.63 108.10 143.38 108.86 144.12 C 105.85 146.15 104.15 145.75 103.77 142.91 Z" />
</g>
<g id="#4698acff">
<path fill="#4698ac" opacity="1.00" d=" M 63.16 143.03 C 64.47 143.58 65.79 144.08 67.10 144.59 C 64.98 147.98 63.11 151.51 60.79 154.77 C 59.83 154.60 58.85 154.61 57.92 154.92 C 59.04 150.69 62.97 147.61 63.16 143.03 Z" />
</g>
<g id="#3e8aa1ff">
<path fill="#3e8aa1" opacity="1.00" d=" M 137.02 147.15 C 140.18 146.76 143.64 146.45 146.07 144.17 C 146.16 144.68 146.35 145.69 146.44 146.20 C 146.08 147.80 145.63 149.39 145.07 150.94 C 142.85 150.67 141.62 151.99 140.91 153.92 L 140.24 153.87 C 139.88 150.75 137.08 150.27 135.52 152.97 C 134.84 150.93 136.35 148.99 137.02 147.15 Z" />
</g>
<g id="#408aa0ff">
<path fill="#408aa0" opacity="1.00" d=" M 60.79 154.77 C 63.11 151.51 64.98 147.98 67.10 144.59 L 68.05 144.87 C 69.56 149.05 66.02 151.33 65.42 154.77 C 64.48 155.70 63.62 156.71 62.76 157.72 L 62.02 158.12 C 61.58 157.01 61.17 155.89 60.79 154.77 Z" />
</g>
<g id="#377e97fd">
<path fill="#377e97" opacity="1.00" d=" M 68.05 144.87 C 77.11 147.54 86.54 146.98 95.85 147.52 C 95.18 153.32 87.09 150.36 83.27 150.89 C 82.80 146.93 79.08 147.79 78.09 150.97 C 77.87 151.11 77.42 151.38 77.20 151.52 C 76.73 151.47 75.80 151.36 75.33 151.31 C 73.18 153.90 70.64 156.62 66.93 156.21 C 66.56 155.85 65.80 155.13 65.42 154.77 C 66.02 151.33 69.56 149.05 68.05 144.87 Z" />
</g>
<g id="#074f68ff">
<path fill="#074f68" opacity="1.00" d=" M 117.01 144.77 L 117.92 144.92 C 119.67 146.05 121.73 147.39 120.94 149.81 C 119.53 150.54 117.15 153.19 116.19 150.74 C 116.40 149.24 116.80 146.26 117.01 144.77 Z" />
</g>
<g id="#50bdc1fc">
<path fill="#50bdc1" opacity="1.00" d=" M 111.28 145.79 C 113.89 149.26 112.71 153.96 113.65 157.95 C 113.51 158.48 113.24 159.53 113.10 160.06 L 112.20 159.94 C 111.59 155.98 110.77 151.98 111.00 147.95 C 111.07 147.41 111.21 146.33 111.28 145.79 Z" />
</g>
<g id="#53b6ccfa">
<path fill="#53b6cc" opacity="0.98" d=" M 131.42 155.15 C 132.56 152.06 133.45 148.89 134.74 145.86 L 135.70 146.37 C 136.03 146.56 136.69 146.95 137.02 147.15 C 136.35 148.99 134.84 150.93 135.52 152.97 L 135.70 153.68 C 131.97 154.72 132.32 161.80 128.03 160.92 C 127.83 160.41 127.43 159.38 127.24 158.87 C 128.92 158.03 131.07 157.27 131.42 155.15 Z" />
</g>
<g id="#728a94f2">
<path fill="#728a94" opacity="0.95" d=" M 78.09 150.97 C 79.08 147.79 82.80 146.93 83.27 150.89 C 83.09 152.99 79.28 152.13 78.09 150.97 Z" />
</g>
<g id="#4191a7f2">
<path fill="#4191a7" opacity="0.95" d=" M 75.33 151.31 C 75.80 151.36 76.73 151.47 77.20 151.52 C 75.84 156.02 72.56 159.98 66.97 157.93 C 66.96 157.50 66.94 156.64 66.93 156.21 C 70.64 156.62 73.18 153.90 75.33 151.31 Z" />
</g>
<g id="#a1b0b3f3">
<path fill="#a1b0b3" opacity="0.95" d=" M 135.52 152.97 C 137.08 150.27 139.88 150.75 140.24 153.87 C 140.28 156.14 136.59 154.87 135.70 153.68 L 135.52 152.97 Z" />
</g>
<g id="#b4c1c5fd">
<path fill="#b4c1c5" opacity="1.00" d=" M 140.91 153.92 C 141.62 151.99 142.85 150.67 145.07 150.94 C 145.05 151.46 145.01 152.51 144.99 153.03 C 145.26 155.08 142.09 153.55 140.91 153.92 Z" />
</g>
<g id="#4494aaff">
<path fill="#4494aa" opacity="1.00" d=" M 114.07 156.97 C 115.37 153.25 119.73 153.58 123.01 153.04 C 126.01 153.00 129.85 151.90 131.42 155.15 C 131.07 157.27 128.92 158.03 127.24 158.87 C 125.29 157.15 124.39 158.95 123.75 160.77 C 123.38 160.76 122.64 160.75 122.27 160.74 C 121.67 157.27 118.17 157.41 117.72 160.88 C 117.34 160.90 116.59 160.93 116.21 160.95 C 116.07 159.31 115.61 157.78 114.07 156.97 Z" />
</g>
<g id="#99a3a9f0">
<path fill="#99a3a9" opacity="0.94" d=" M 55.06 153.96 C 55.94 154.19 57.71 156.88 57.92 154.92 C 58.85 154.61 59.83 154.60 60.79 154.77 C 61.17 155.89 61.58 157.01 62.02 158.12 C 58.98 157.93 55.96 157.31 52.93 157.99 C 53.02 156.87 53.45 155.91 54.21 155.10 C 54.43 154.81 54.85 154.24 55.06 153.96 Z" />
</g>
<g id="#8ba0a1ed">
<path fill="#8ba0a1" opacity="0.93" d=" M 62.76 157.72 C 63.62 156.71 64.48 155.70 65.42 154.77 C 65.80 155.13 66.56 155.85 66.93 156.21 C 66.94 156.64 66.96 157.50 66.97 157.93 C 65.79 159.45 63.92 159.02 62.76 157.72 Z" />
</g>
<g id="#97a2afff">
<path fill="#97a2af" opacity="1.00" d=" M 114.07 156.97 C 115.61 157.78 116.07 159.31 116.21 160.95 C 114.27 161.44 113.23 161.14 113.10 160.06 C 113.24 159.53 113.51 158.48 113.65 157.95 L 114.07 156.97 Z" />
</g>
<g id="#a1adb4f1">
<path fill="#a1adb4" opacity="0.95" d=" M 117.72 160.88 C 118.17 157.41 121.67 157.27 122.27 160.74 C 121.28 161.81 117.76 163.15 117.72 160.88 Z" />
</g>
<g id="#b7bebcf5">
<path fill="#b7bebc" opacity="0.96" d=" M 123.75 160.77 C 124.39 158.95 125.29 157.15 127.24 158.87 C 127.43 159.38 127.83 160.41 128.03 160.92 C 126.77 162.35 124.98 162.09 123.75 160.77 Z" />
</g>
</svg>
