<?xml version="1.0" encoding="UTF-8" ?>
<!DOCTYPE svg PUBLIC "-//W3C//DTD SVG 1.1//EN" "http://www.w3.org/Graphics/SVG/1.1/DTD/svg11.dtd">
<svg width="244pt" height="184pt" viewBox="0 0 244 184" version="1.1" xmlns="http://www.w3.org/2000/svg">
<g id="#786e3ff4">
<path fill="#786e3f" opacity="0.96" d=" M 106.13 4.91 C 107.95 5.67 108.04 8.30 109.84 9.09 C 109.92 8.32 110.07 6.76 110.15 5.99 C 113.00 5.17 112.64 9.70 114.85 9.87 C 115.68 8.64 116.35 7.31 117.18 6.09 C 119.21 5.46 119.24 7.94 120.20 9.07 C 120.74 9.69 121.29 10.31 121.84 10.93 C 117.37 13.11 111.74 12.57 107.80 15.68 C 107.42 15.78 106.66 15.98 106.29 16.09 C 106.07 15.56 105.62 14.52 105.40 14.00 C 104.31 11.95 101.97 5.05 105.92 7.91 C 105.97 7.16 106.08 5.66 106.13 4.91 Z" />
</g>
<g id="#635d35f7">
<path fill="#635d35" opacity="0.97" d=" M 120.20 9.07 C 122.75 9.61 122.36 5.44 124.65 6.22 C 125.33 7.53 126.13 8.78 127.14 9.87 C 129.06 9.16 130.09 6.97 131.85 5.88 C 131.92 6.67 132.05 8.25 132.12 9.05 C 132.84 8.21 136.67 5.62 135.61 8.07 C 134.75 10.73 132.73 11.04 130.29 10.36 C 128.06 12.00 124.92 12.96 123.73 15.64 C 122.11 16.14 120.50 16.70 118.87 17.18 C 118.45 17.21 117.62 17.28 117.20 17.32 C 114.85 16.95 112.55 16.34 110.19 16.04 C 109.59 15.95 108.39 15.77 107.80 15.68 C 111.74 12.57 117.37 13.11 121.84 10.93 C 121.29 10.31 120.74 9.69 120.20 9.07 Z" />
</g>
<g id="#474c29fb">
<path fill="#474c29" opacity="1.00" d=" M 130.29 10.36 C 132.73 11.04 134.75 10.73 135.61 8.07 C 136.38 8.41 137.19 8.48 138.05 8.27 C 138.41 11.02 136.84 13.37 135.81 15.78 C 135.57 16.06 135.09 16.63 134.85 16.91 C 133.19 17.02 131.53 17.15 129.87 17.28 L 129.13 17.30 C 127.34 16.71 125.56 16.10 123.73 15.64 C 124.92 12.96 128.06 12.00 130.29 10.36 Z" />
</g>
<g id="#68262da0">
<path fill="#68262d" opacity="0.63" d=" M 105.40 14.00 C 105.62 14.52 106.07 15.56 106.29 16.09 C 102.89 16.05 99.52 15.97 96.13 16.04 L 95.13 16.04 L 94.96 15.09 C 97.57 14.82 102.79 14.27 105.40 14.00 Z" />
</g>
<g id="#f97088fc">
<path fill="#f97088" opacity="1.00" d=" M 70.04 20.15 C 78.11 17.18 86.70 16.98 95.13 16.04 L 96.13 16.04 C 94.24 17.38 92.52 18.93 90.95 20.63 C 86.16 20.60 80.69 21.37 76.96 24.64 C 77.57 24.95 78.80 25.58 79.42 25.89 C 68.58 34.48 53.77 33.85 40.78 35.82 L 41.28 35.10 C 42.88 33.77 44.59 32.57 46.24 31.31 C 48.01 29.57 54.46 29.47 52.13 26.03 C 57.54 22.67 64.10 22.15 70.04 20.15 M 72.90 21.15 C 65.61 21.29 59.67 24.94 54.13 29.20 C 53.41 30.92 54.93 31.25 56.23 31.59 C 63.11 29.37 69.87 25.53 75.12 20.97 C 74.56 21.01 73.46 21.11 72.90 21.15 Z" />
</g>
<g id="#fb566aff">
<path fill="#fb566a" opacity="1.00" d=" M 96.13 16.04 C 99.52 15.97 102.89 16.05 106.29 16.09 C 104.13 18.00 101.98 19.91 99.82 21.82 C 97.89 22.51 95.96 23.20 94.08 24.00 L 93.27 23.64 C 92.60 22.56 91.82 21.56 90.95 20.63 C 92.52 18.93 94.24 17.38 96.13 16.04 Z" />
</g>
<g id="#ea4153ff">
<path fill="#ea4153" opacity="1.00" d=" M 106.29 16.09 C 106.66 15.98 107.42 15.78 107.80 15.68 C 108.39 15.77 109.59 15.95 110.19 16.04 C 109.59 17.39 108.84 18.68 108.07 19.95 C 107.10 20.34 106.11 20.71 105.12 21.06 C 103.35 21.25 101.58 21.53 99.82 21.82 C 101.98 19.91 104.13 18.00 106.29 16.09 Z" />
</g>
<g id="#d03b4aff">
<path fill="#d03b4a" opacity="1.00" d=" M 110.19 16.04 C 112.55 16.34 114.85 16.95 117.20 17.32 C 114.59 18.67 111.94 19.92 109.23 21.05 C 108.94 20.78 108.36 20.22 108.07 19.95 C 108.84 18.68 109.59 17.39 110.19 16.04 Z" />
</g>
<g id="#f0a5a8ff">
<path fill="#f0a5a8" opacity="1.00" d=" M 118.87 17.18 C 120.50 16.70 122.11 16.14 123.73 15.64 C 125.56 16.10 127.34 16.71 129.13 17.30 C 126.15 17.65 123.19 17.97 120.20 18.23 C 119.87 17.97 119.20 17.44 118.87 17.18 Z" />
</g>
<g id="#47242691">
<path fill="#472426" opacity="0.57" d=" M 134.85 16.91 C 135.09 16.63 135.57 16.06 135.81 15.78 C 138.29 16.68 143.86 14.57 145.01 16.98 C 142.94 17.02 140.87 17.09 138.81 17.15 C 137.49 17.05 136.17 16.98 134.85 16.91 Z" />
</g>
<g id="#fa5167fe">
<path fill="#fa5167" opacity="1.00" d=" M 117.20 17.32 C 117.62 17.28 118.45 17.21 118.87 17.18 C 119.20 17.44 119.87 17.97 120.20 18.23 C 115.88 20.71 111.10 24.25 111.81 29.87 C 110.79 30.76 109.78 31.68 108.98 32.79 C 112.69 34.41 116.78 37.38 120.78 34.87 C 127.42 38.00 134.44 40.96 142.00 40.07 C 146.60 39.75 153.58 41.16 156.32 36.25 L 156.90 35.94 C 157.27 39.62 158.04 43.29 158.01 47.01 C 155.12 47.85 152.69 46.69 150.10 45.94 C 143.58 44.46 136.78 44.52 130.17 43.68 C 122.61 40.85 114.57 38.99 107.72 34.56 C 107.28 34.63 106.40 34.79 105.96 34.86 C 105.91 33.09 105.81 29.55 105.76 27.78 C 106.47 25.34 107.44 22.92 109.23 21.05 C 111.94 19.92 114.59 18.67 117.20 17.32 Z" />
</g>
<g id="#ff637dff">
<path fill="#ff637d" opacity="1.00" d=" M 129.13 17.30 L 129.87 17.28 C 132.88 18.53 135.89 19.77 138.92 20.95 C 139.97 24.80 144.74 24.22 146.81 27.21 C 147.27 29.10 151.74 32.44 148.71 33.78 C 140.42 34.61 132.16 33.69 123.92 32.86 C 127.25 31.42 129.68 23.17 122.00 27.02 C 118.18 26.30 115.11 28.56 111.81 29.87 C 111.10 24.25 115.88 20.71 120.20 18.23 C 123.19 17.97 126.15 17.65 129.13 17.30 M 124.99 20.00 C 125.01 20.47 125.03 21.40 125.04 21.87 C 128.70 22.24 132.34 22.85 136.01 23.02 C 135.90 18.61 127.58 20.66 124.99 20.00 Z" />
</g>
<g id="#d73d4eff">
<path fill="#d73d4e" opacity="1.00" d=" M 129.87 17.28 C 131.53 17.15 133.19 17.02 134.85 16.91 C 136.17 16.98 137.49 17.05 138.81 17.15 C 143.70 16.65 146.89 20.08 150.20 22.89 C 148.08 22.65 145.95 22.07 143.82 22.56 C 142.18 22.05 140.56 21.47 138.92 20.95 C 135.89 19.77 132.88 18.53 129.87 17.28 Z" />
</g>
<g id="#f45569fc">
<path fill="#f45569" opacity="1.00" d=" M 138.81 17.15 C 140.87 17.09 142.94 17.02 145.01 16.98 C 151.72 17.32 158.25 19.22 164.89 20.16 L 165.02 20.99 C 163.46 21.02 160.34 21.09 158.78 21.12 C 160.81 24.32 164.29 25.79 167.95 26.13 C 167.97 26.82 168.02 28.22 168.04 28.92 C 166.80 28.48 165.54 28.09 164.28 27.74 C 162.20 26.59 159.96 25.80 157.69 25.14 C 155.23 24.27 152.69 23.67 150.20 22.89 C 146.89 20.08 143.70 16.65 138.81 17.15 Z" />
</g>
<g id="#3d3b09ff">
<path fill="#3d3b09" opacity="1.00" d=" M 105.12 21.06 C 106.11 20.71 107.10 20.34 108.07 19.95 C 108.36 20.22 108.94 20.78 109.23 21.05 C 107.44 22.92 106.47 25.34 105.76 27.78 C 104.83 31.20 104.83 34.63 105.78 38.07 C 105.87 38.77 106.06 40.18 106.15 40.89 C 103.56 42.85 100.05 44.71 100.93 48.62 C 103.42 47.45 104.31 50.86 103.79 52.72 C 102.66 53.97 101.37 55.07 100.09 56.18 C 100.04 53.11 100.04 50.06 100.00 47.00 C 100.00 45.33 99.98 43.66 99.96 41.99 C 100.06 40.72 100.19 39.46 100.35 38.20 C 101.84 32.46 103.01 26.63 105.12 21.06 Z" />
</g>
<g id="#ffcccdff">
<path fill="#ffcccd" opacity="1.00" d=" M 124.99 20.00 C 127.58 20.66 135.90 18.61 136.01 23.02 C 132.34 22.85 128.70 22.24 125.04 21.87 C 125.03 21.40 125.01 20.47 124.99 20.00 Z" />
</g>
<g id="#fff1f3ff">
<path fill="#fff1f3" opacity="1.00" d=" M 72.90 21.15 C 73.46 21.11 74.56 21.01 75.12 20.97 C 69.87 25.53 63.11 29.37 56.23 31.59 C 54.93 31.25 53.41 30.92 54.13 29.20 C 59.67 24.94 65.61 21.29 72.90 21.15 Z" />
</g>
<g id="#fcd5d3fe">
<path fill="#fcd5d3" opacity="1.00" d=" M 76.96 24.64 C 80.69 21.37 86.16 20.60 90.95 20.63 C 91.82 21.56 92.60 22.56 93.27 23.64 C 92.69 23.88 91.52 24.36 90.94 24.59 C 88.38 25.65 85.95 27.35 83.15 27.60 C 81.91 27.01 80.68 26.43 79.42 25.89 C 78.80 25.58 77.57 24.95 76.96 24.64 Z" />
</g>
<g id="#7b1b27ff">
<path fill="#7b1b27" opacity="1.00" d=" M 99.82 21.82 C 101.58 21.53 103.35 21.25 105.12 21.06 C 103.01 26.63 101.84 32.46 100.35 38.20 C 100.11 36.62 100.19 34.58 97.98 34.97 C 92.73 34.35 92.41 27.93 94.08 24.00 C 95.96 23.20 97.89 22.51 99.82 21.82 Z" />
</g>
<g id="#fe5972ff">
<path fill="#fe5972" opacity="1.00" d=" M 138.92 20.95 C 140.56 21.47 142.18 22.05 143.82 22.56 C 147.47 24.90 150.50 27.99 153.60 30.98 C 154.99 32.43 155.89 34.30 156.32 36.25 C 153.58 41.16 146.60 39.75 142.00 40.07 C 134.44 40.96 127.42 38.00 120.78 34.87 C 121.82 34.19 122.87 33.53 123.92 32.86 C 132.16 33.69 140.42 34.61 148.71 33.78 C 151.74 32.44 147.27 29.10 146.81 27.21 C 144.74 24.22 139.97 24.80 138.92 20.95 Z" />
</g>
<g id="#f6d2d0fa">
<path fill="#f6d2d0" opacity="0.98" d=" M 158.78 21.12 C 160.34 21.09 163.46 21.02 165.02 20.99 C 170.31 21.67 175.49 23.99 180.24 26.30 C 176.15 27.03 172.04 26.53 167.95 26.13 C 164.29 25.79 160.81 24.32 158.78 21.12 Z" />
</g>
<g id="#88202efd">
<path fill="#88202e" opacity="1.00" d=" M 143.82 22.56 C 145.95 22.07 148.08 22.65 150.20 22.89 C 152.69 23.67 155.23 24.27 157.69 25.14 C 158.58 27.99 161.80 28.18 164.28 27.74 C 165.54 28.09 166.80 28.48 168.04 28.92 C 173.86 31.01 178.91 34.64 184.05 37.99 C 184.38 38.25 185.04 38.76 185.37 39.02 C 180.11 43.07 172.23 39.92 167.23 36.79 C 164.79 35.65 162.65 32.49 159.69 33.57 C 157.45 33.58 156.17 28.13 153.60 30.98 C 150.50 27.99 147.47 24.90 143.82 22.56 Z" />
</g>
<g id="#8f2232f9">
<path fill="#8f2232" opacity="0.98" d=" M 90.94 24.59 C 91.52 24.36 92.69 23.88 93.27 23.64 L 94.08 24.00 C 92.41 27.93 92.73 34.35 97.98 34.97 C 100.19 34.58 100.11 36.62 100.35 38.20 C 100.19 39.46 100.06 40.72 99.96 41.99 C 98.63 42.00 97.30 42.00 95.97 42.00 C 92.62 40.65 89.19 42.85 86.10 40.77 C 85.56 35.59 86.79 28.45 91.89 25.86 C 91.65 25.54 91.18 24.91 90.94 24.59 Z" />
</g>
<g id="#8e3845ff">
<path fill="#8e3845" opacity="1.00" d=" M 157.69 25.14 C 159.96 25.80 162.20 26.59 164.28 27.74 C 161.80 28.18 158.58 27.99 157.69 25.14 Z" />
</g>
<g id="#ce5a71f0">
<path fill="#ce5a71" opacity="0.94" d=" M 44.92 30.37 C 46.91 28.33 49.50 27.06 52.13 26.03 C 54.46 29.47 48.01 29.57 46.24 31.31 C 45.91 31.07 45.25 30.61 44.92 30.37 Z" />
</g>
<g id="#fc5c72fe">
<path fill="#fc5c72" opacity="1.00" d=" M 79.42 25.89 C 80.68 26.43 81.91 27.01 83.15 27.60 C 79.80 30.03 76.66 32.96 73.01 34.86 C 64.61 35.84 56.77 39.78 48.40 41.31 C 48.24 41.72 47.93 42.54 47.77 42.95 C 47.08 42.97 45.69 43.00 44.99 43.01 C 41.86 43.03 38.78 42.51 35.76 41.71 C 37.06 39.44 38.96 37.65 40.78 35.82 C 53.77 33.85 68.58 34.48 79.42 25.89 Z" />
</g>
<g id="#f95b71fc">
<path fill="#f95b71" opacity="1.00" d=" M 167.95 26.13 C 172.04 26.53 176.15 27.03 180.24 26.30 C 183.84 25.83 187.14 28.10 190.08 29.89 C 195.57 33.09 200.72 37.05 205.31 41.35 C 199.48 42.81 193.66 41.05 187.81 41.08 C 187.19 40.51 186.57 39.94 185.95 39.37 C 191.25 40.00 188.70 33.99 184.91 34.12 C 181.66 32.85 183.80 36.38 184.05 37.99 C 178.91 34.64 173.86 31.01 168.04 28.92 C 168.02 28.22 167.97 26.82 167.95 26.13 Z" />
</g>
<g id="#ffd0d1ff">
<path fill="#ffd0d1" opacity="1.00" d=" M 111.81 29.87 C 115.11 28.56 118.18 26.30 122.00 27.02 C 129.68 23.17 127.25 31.42 123.92 32.86 C 122.87 33.53 121.82 34.19 120.78 34.87 C 116.78 37.38 112.69 34.41 108.98 32.79 C 109.78 31.68 110.79 30.76 111.81 29.87 Z" />
</g>
<g id="#893c2dff">
<path fill="#893c2d" opacity="1.00" d=" M 105.78 38.07 C 104.83 34.63 104.83 31.20 105.76 27.78 C 105.81 29.55 105.91 33.09 105.96 34.86 C 105.91 35.66 105.82 37.27 105.78 38.07 Z" />
</g>
<g id="#b6475cf5">
<path fill="#b6475c" opacity="0.96" d=" M 40.09 33.84 C 40.75 32.20 43.23 30.86 44.92 30.37 C 45.25 30.61 45.91 31.07 46.24 31.31 C 44.59 32.57 42.88 33.77 41.28 35.10 C 40.98 34.79 40.39 34.16 40.09 33.84 Z" />
</g>
<g id="#902432f8">
<path fill="#902432" opacity="0.97" d=" M 159.69 33.57 C 162.65 32.49 164.79 35.65 167.23 36.79 C 172.23 39.92 180.11 43.07 185.37 39.02 L 185.95 39.37 C 186.57 39.94 187.19 40.51 187.81 41.08 C 189.25 42.69 190.72 44.26 192.20 45.83 C 187.17 45.73 181.81 47.03 177.06 44.88 C 174.35 43.37 170.27 46.94 168.71 43.26 C 166.11 39.63 162.86 36.58 159.69 33.57 Z" />
</g>
<g id="#a23747f5">
<path fill="#a23747" opacity="0.96" d=" M 32.20 40.20 C 34.88 38.25 36.55 34.28 40.09 33.84 C 40.39 34.16 40.98 34.79 41.28 35.10 L 40.78 35.82 C 38.96 37.65 37.06 39.44 35.76 41.71 C 34.27 42.08 30.84 42.84 32.20 40.20 Z" />
</g>
<g id="#f0475dff">
<path fill="#f0475d" opacity="1.00" d=" M 105.96 34.86 C 106.40 34.79 107.28 34.63 107.72 34.56 C 114.57 38.99 122.61 40.85 130.17 43.68 C 136.78 44.52 143.58 44.46 150.10 45.94 L 150.03 46.95 C 146.67 46.97 143.34 46.96 139.99 47.00 C 136.91 47.00 133.86 47.06 130.79 47.14 C 129.26 47.02 127.74 46.90 126.22 46.77 C 123.20 46.36 120.19 46.00 117.14 45.87 C 117.31 45.42 117.65 44.52 117.82 44.07 C 113.86 41.98 109.66 40.34 105.78 38.07 C 105.82 37.27 105.91 35.66 105.96 34.86 Z" />
</g>
<g id="#ffb5b2ff">
<path fill="#ffb5b2" opacity="1.00" d=" M 184.05 37.99 C 183.80 36.38 181.66 32.85 184.91 34.12 C 188.70 33.99 191.25 40.00 185.95 39.37 L 185.37 39.02 C 185.04 38.76 184.38 38.25 184.05 37.99 Z" />
</g>
<g id="#f84d61fb">
<path fill="#f84d61" opacity="1.00" d=" M 48.40 41.31 C 56.77 39.78 64.61 35.84 73.01 34.86 C 70.61 37.60 67.36 39.94 64.73 42.66 C 63.07 42.59 59.74 45.14 59.82 42.22 C 59.35 42.40 58.40 42.75 57.93 42.92 C 54.54 42.98 51.16 43.01 47.77 42.95 C 47.93 42.54 48.24 41.72 48.40 41.31 Z" />
</g>
<g id="#d93f50ff">
<path fill="#d93f50" opacity="1.00" d=" M 105.78 38.07 C 109.66 40.34 113.86 41.98 117.82 44.07 C 117.65 44.52 117.31 45.42 117.14 45.87 C 113.93 44.75 110.57 46.04 107.27 45.92 C 106.89 44.24 106.57 42.55 106.15 40.89 C 106.06 40.18 105.87 38.77 105.78 38.07 Z" />
</g>
<g id="#343509ff">
<path fill="#343509" opacity="1.00" d=" M 100.93 48.62 C 100.05 44.71 103.56 42.85 106.15 40.89 C 106.57 42.55 106.89 44.24 107.27 45.92 C 110.57 46.04 113.93 44.75 117.14 45.87 L 116.68 46.75 C 115.78 49.11 118.97 50.87 119.91 52.86 C 118.05 54.49 115.99 56.33 113.02 55.14 C 109.56 54.60 106.66 57.23 103.27 56.33 C 102.15 57.57 101.20 58.94 100.13 60.22 C 100.09 58.87 100.08 57.52 100.09 56.18 C 101.37 55.07 102.66 53.97 103.79 52.72 C 104.31 50.86 103.42 47.45 100.93 48.62 Z" />
</g>
<g id="#e24355fa">
<path fill="#e24355" opacity="0.98" d=" M 187.81 41.08 C 193.66 41.05 199.48 42.81 205.31 41.35 C 207.35 41.62 210.87 46.32 208.01 47.00 C 204.66 46.99 201.34 46.96 198.00 47.03 C 196.07 46.79 193.50 47.70 192.20 45.83 C 190.72 44.26 189.25 42.69 187.81 41.08 Z" />
</g>
<g id="#0b060256">
<path fill="#0b0602" opacity="0.34" d=" M 95.97 42.00 C 97.30 42.00 98.63 42.00 99.96 41.99 C 99.98 43.66 100.00 45.33 100.00 47.00 L 99.07 46.99 C 99.21 44.56 99.19 42.24 96.09 42.86 L 95.97 42.00 Z" />
</g>
<g id="#4114187f">
<path fill="#411418" opacity="0.50" d=" M 44.99 43.01 C 45.69 43.00 47.08 42.97 47.77 42.95 C 51.16 43.01 54.54 42.98 57.93 42.92 L 58.02 43.95 C 53.68 43.99 49.35 44.17 45.02 43.96 L 44.99 43.01 Z" />
</g>
<g id="#ab3a3fff">
<path fill="#ab3a3f" opacity="1.00" d=" M 117.14 45.87 C 120.19 46.00 123.20 46.36 126.22 46.77 C 123.03 46.80 119.86 46.96 116.68 46.75 L 117.14 45.87 Z" />
</g>
<g id="#202204b3">
<path fill="#202204" opacity="0.70" d=" M 99.07 46.99 L 100.00 47.00 C 100.04 50.06 100.04 53.11 100.09 56.18 C 100.08 57.52 100.09 58.87 100.13 60.22 C 100.13 60.93 100.13 62.36 100.13 63.07 C 99.86 63.32 99.31 63.83 99.03 64.08 C 98.96 58.38 98.89 52.68 99.07 46.99 Z" />
</g>
<g id="#262a07ff">
<path fill="#262a07" opacity="1.00" d=" M 119.91 52.86 C 118.97 50.87 115.78 49.11 116.68 46.75 C 119.86 46.96 123.03 46.80 126.22 46.77 C 127.74 46.90 129.26 47.02 130.79 47.14 C 131.27 47.44 132.23 48.04 132.71 48.34 C 133.97 49.27 135.42 49.86 136.88 50.41 C 136.41 55.84 130.44 57.63 126.09 58.84 C 122.81 56.17 119.59 58.77 116.02 58.19 C 116.63 59.44 117.29 60.68 118.07 61.84 C 119.78 60.80 122.39 58.71 123.89 61.22 C 124.67 63.81 122.67 65.91 121.73 68.12 C 118.89 67.52 116.15 66.51 113.34 65.80 C 109.33 63.58 104.75 61.72 100.13 63.07 C 100.13 62.36 100.13 60.93 100.13 60.22 C 101.20 58.94 102.15 57.57 103.27 56.33 C 106.66 57.23 109.56 54.60 113.02 55.14 C 115.99 56.33 118.05 54.49 119.91 52.86 Z" />
</g>
<g id="#4f2a18fc">
<path fill="#4f2a18" opacity="1.00" d=" M 130.79 47.14 C 133.86 47.06 136.91 47.00 139.99 47.00 L 140.03 47.97 C 138.20 48.06 134.54 48.24 132.71 48.34 C 132.23 48.04 131.27 47.44 130.79 47.14 Z" />
</g>
<g id="#1e090c5a">
<path fill="#1e090c" opacity="0.35" d=" M 139.99 47.00 C 143.34 46.96 146.67 46.97 150.03 46.95 C 149.27 49.97 142.85 47.27 140.03 47.97 L 139.99 47.00 Z" />
</g>
<g id="#2d0c1075">
<path fill="#2d0c10" opacity="0.46" d=" M 198.00 47.03 C 201.34 46.96 204.66 46.99 208.01 47.00 L 208.00 47.99 C 205.50 47.75 200.50 47.27 198.00 47.03 Z" />
</g>
<g id="#1a2205fd">
<path fill="#1a2205" opacity="1.00" d=" M 132.71 48.34 C 134.54 48.24 138.20 48.06 140.03 47.97 C 140.00 52.65 139.42 57.30 138.92 61.95 C 138.85 62.43 138.69 63.38 138.61 63.85 C 138.36 66.96 136.32 69.12 133.93 70.88 C 129.83 70.10 125.74 69.28 121.73 68.12 C 122.67 65.91 124.67 63.81 123.89 61.22 C 122.39 58.71 119.78 60.80 118.07 61.84 C 117.29 60.68 116.63 59.44 116.02 58.19 C 119.59 58.77 122.81 56.17 126.09 58.84 C 130.44 57.63 136.41 55.84 136.88 50.41 C 135.42 49.86 133.97 49.27 132.71 48.34 Z" />
</g>
<g id="#1c5d33ff">
<path fill="#1c5d33" opacity="1.00" d=" M 100.13 63.07 C 104.75 61.72 109.33 63.58 113.34 65.80 C 110.83 67.57 105.94 64.18 105.93 68.42 C 104.69 67.95 103.01 66.47 102.63 68.63 C 100.97 68.28 99.34 66.48 97.66 67.59 C 95.68 67.84 96.41 69.94 96.13 71.33 C 94.01 68.67 92.02 71.30 90.60 73.13 L 89.86 73.00 C 90.57 69.28 94.48 68.12 97.04 65.97 C 97.28 65.74 97.77 65.28 98.02 65.05 C 98.27 64.81 98.78 64.32 99.03 64.08 C 99.31 63.83 99.86 63.32 100.13 63.07 Z" />
</g>
<g id="#1e5534f2">
<path fill="#1e5534" opacity="0.95" d=" M 138.92 61.95 C 144.58 63.87 150.61 64.41 156.24 66.37 C 150.92 67.13 145.52 67.19 140.16 66.94 C 139.48 66.00 138.97 64.97 138.61 63.85 C 138.69 63.38 138.85 62.43 138.92 61.95 Z" />
</g>
<g id="#1f6039f1">
<path fill="#1f6039" opacity="0.95" d=" M 66.97 64.11 C 72.31 63.80 77.82 64.73 83.00 63.02 C 87.95 64.13 92.91 65.13 98.02 65.05 C 97.77 65.28 97.28 65.74 97.04 65.97 C 94.64 65.95 92.67 67.26 90.71 68.45 C 82.91 66.45 74.64 67.35 66.89 65.14 L 66.97 64.11 Z" />
</g>
<g id="#15442bfa">
<path fill="#15442b" opacity="0.98" d=" M 133.93 70.88 C 136.32 69.12 138.36 66.96 138.61 63.85 C 138.97 64.97 139.48 66.00 140.16 66.94 C 145.52 67.19 150.92 67.13 156.24 66.37 C 162.46 66.89 168.69 68.00 174.84 69.23 L 175.13 69.94 C 175.32 70.48 175.70 71.55 175.89 72.09 C 173.27 71.29 164.62 67.03 166.75 72.12 C 165.56 71.84 163.17 71.30 161.97 71.03 C 160.03 69.47 158.06 67.34 154.98 68.99 C 149.82 69.11 144.68 70.27 139.92 72.26 C 141.47 74.31 144.12 74.83 146.31 75.92 C 145.02 76.89 143.38 77.15 141.89 77.67 L 141.13 77.64 C 137.36 77.11 133.30 77.47 129.83 75.59 C 132.90 74.93 136.00 75.84 139.09 75.96 C 138.87 73.38 136.34 71.36 133.93 70.88 Z" />
</g>
<g id="#32884dfd">
<path fill="#32884d" opacity="1.00" d=" M 49.91 68.95 C 54.21 65.20 61.44 65.81 66.89 65.14 C 74.64 67.35 82.91 66.45 90.71 68.45 C 92.67 67.26 94.64 65.95 97.04 65.97 C 94.48 68.12 90.57 69.28 89.86 73.00 C 88.73 74.77 87.30 76.30 85.88 77.83 C 85.45 78.12 84.60 78.71 84.17 79.01 C 83.21 76.39 81.30 73.98 81.68 71.04 C 72.55 71.43 62.04 71.39 54.84 77.85 C 54.13 77.97 52.70 78.20 51.98 78.32 C 50.47 77.57 52.72 76.08 52.90 75.02 C 52.12 74.94 50.57 74.78 49.80 74.70 C 52.06 73.32 55.98 72.57 55.03 69.09 C 53.33 68.96 51.62 68.95 49.91 68.95 Z" />
</g>
<g id="#286b41ff">
<path fill="#286b41" opacity="1.00" d=" M 105.93 68.42 C 105.94 64.18 110.83 67.57 113.34 65.80 C 116.15 66.51 118.89 67.52 121.73 68.12 C 125.74 69.28 129.83 70.10 133.93 70.88 C 136.34 71.36 138.87 73.38 139.09 75.96 C 136.00 75.84 132.90 74.93 129.83 75.59 C 124.06 70.91 116.39 69.66 109.10 69.67 C 107.92 69.68 106.96 68.87 105.93 68.42 Z" />
</g>
<g id="#32834eff">
<path fill="#32834e" opacity="1.00" d=" M 97.66 67.59 C 99.34 66.48 100.97 68.28 102.63 68.63 C 103.01 66.47 104.69 67.95 105.93 68.42 C 106.96 68.87 107.92 69.68 109.10 69.67 C 116.39 69.66 124.06 70.91 129.83 75.59 C 133.30 77.47 137.36 77.11 141.13 77.64 C 139.44 77.99 137.39 77.59 136.07 78.94 C 134.77 79.85 133.65 81.14 132.12 81.65 C 129.05 80.89 125.90 78.25 122.71 79.74 C 122.21 79.64 121.22 79.44 120.73 79.34 C 118.89 75.98 122.12 77.54 124.17 77.92 C 118.43 72.31 109.35 73.04 102.00 71.34 C 100.03 72.67 97.95 73.32 96.13 71.33 C 96.41 69.94 95.68 67.84 97.66 67.59 Z" />
</g>
<g id="#51cc6dfa">
<path fill="#51cc6d" opacity="0.98" d=" M 39.00 73.01 C 42.53 71.42 46.13 69.83 49.91 68.95 C 51.62 68.95 53.33 68.96 55.03 69.09 C 55.98 72.57 52.06 73.32 49.80 74.70 C 48.10 75.40 46.41 76.11 44.78 76.95 C 40.60 78.70 35.66 78.26 31.79 80.79 C 28.61 82.73 24.88 83.34 21.41 84.56 C 18.91 85.46 16.64 87.89 13.83 87.52 C 21.03 80.85 30.42 77.47 39.00 73.01 Z" />
</g>
<g id="#1c5234ff">
<path fill="#1c5234" opacity="1.00" d=" M 139.92 72.26 C 144.68 70.27 149.82 69.11 154.98 68.99 C 158.06 67.34 160.03 69.47 161.97 71.03 C 156.75 72.47 150.76 72.47 146.31 75.92 C 144.12 74.83 141.47 74.31 139.92 72.26 Z" />
</g>
<g id="#3c9655ff">
<path fill="#3c9655" opacity="1.00" d=" M 90.60 73.13 C 92.02 71.30 94.01 68.67 96.13 71.33 C 97.95 73.32 100.03 72.67 102.00 71.34 C 109.35 73.04 118.43 72.31 124.17 77.92 C 122.12 77.54 118.89 75.98 120.73 79.34 C 115.57 79.12 111.28 75.48 105.97 76.00 C 100.78 75.42 95.57 74.83 90.60 73.13 Z" />
</g>
<g id="#24653dfc">
<path fill="#24653d" opacity="1.00" d=" M 166.75 72.12 C 164.62 67.03 173.27 71.29 175.89 72.09 C 175.70 71.55 175.32 70.48 175.13 69.94 C 181.88 71.12 190.25 72.74 195.33 77.31 C 194.72 78.19 194.04 78.58 193.28 78.47 C 185.24 72.36 174.78 73.76 165.38 74.41 C 163.53 74.74 160.51 75.36 161.61 77.89 C 158.75 78.61 156.06 79.98 153.09 80.22 C 149.49 78.86 145.76 77.88 141.89 77.67 C 143.38 77.15 145.02 76.89 146.31 75.92 C 150.76 72.47 156.75 72.47 161.97 71.03 C 163.17 71.30 165.56 71.84 166.75 72.12 Z" />
</g>
<g id="#3d9b56ff">
<path fill="#3d9b56" opacity="1.00" d=" M 54.84 77.85 C 62.04 71.39 72.55 71.43 81.68 71.04 C 81.30 73.98 83.21 76.39 84.17 79.01 C 83.70 79.97 83.24 80.95 82.79 81.94 L 82.09 82.49 C 79.45 81.10 80.17 78.95 81.84 77.13 C 73.23 72.92 63.65 76.46 54.84 77.85 Z" />
</g>
<g id="#43a65dff">
<path fill="#43a65d" opacity="1.00" d=" M 89.86 73.00 L 90.60 73.13 C 95.57 74.83 100.78 75.42 105.97 76.00 C 111.28 75.48 115.57 79.12 120.73 79.34 C 121.22 79.44 122.21 79.64 122.71 79.74 C 124.39 80.90 126.09 82.03 127.87 83.06 C 128.54 83.92 129.24 84.77 129.84 85.70 C 128.31 86.61 126.82 87.60 125.19 88.33 C 120.97 87.59 116.93 83.60 112.66 84.81 C 110.69 82.90 109.48 79.73 106.35 79.62 C 99.54 78.92 92.71 78.30 85.88 77.83 C 87.30 76.30 88.73 74.77 89.86 73.00 Z" />
</g>
<g id="#307c47ff">
<path fill="#307c47" opacity="1.00" d=" M 165.38 74.41 C 174.78 73.76 185.24 72.36 193.28 78.47 C 194.04 78.58 194.72 78.19 195.33 77.31 L 195.97 76.91 C 195.98 77.70 195.99 79.30 196.00 80.09 C 187.41 79.61 178.14 75.75 169.98 79.95 C 168.22 81.04 163.57 81.23 165.97 84.03 C 162.24 84.00 161.54 81.08 161.61 77.89 C 160.51 75.36 163.53 74.74 165.38 74.41 Z" />
</g>
<g id="#47a69fff">
<path fill="#47a69f" opacity="1.00" d=" M 44.78 76.95 C 46.41 76.11 48.10 75.40 49.80 74.70 C 50.57 74.78 52.12 74.94 52.90 75.02 C 52.72 76.08 50.47 77.57 51.98 78.32 C 49.87 79.68 48.03 81.39 46.16 83.04 C 45.70 81.01 45.20 78.99 44.78 76.95 Z" />
</g>
<g id="#46ac5fff">
<path fill="#46ac5f" opacity="1.00" d=" M 54.84 77.85 C 63.65 76.46 73.23 72.92 81.84 77.13 C 80.17 78.95 79.45 81.10 82.09 82.49 C 81.20 83.50 78.50 85.11 78.10 83.00 C 77.99 79.76 73.05 79.73 71.01 79.98 C 65.17 78.98 59.79 81.47 54.24 82.69 C 52.00 81.36 49.77 82.92 47.85 84.07 C 47.42 83.82 46.58 83.30 46.16 83.04 C 48.03 81.39 49.87 79.68 51.98 78.32 C 52.70 78.20 54.13 77.97 54.84 77.85 Z" />
</g>
<g id="#1b6c37f7">
<path fill="#1b6c37" opacity="0.97" d=" M 31.79 80.79 C 35.66 78.26 40.60 78.70 44.78 76.95 C 45.20 78.99 45.70 81.01 46.16 83.04 C 46.58 83.30 47.42 83.82 47.85 84.07 C 47.31 84.93 47.11 86.11 46.20 86.68 C 44.90 85.85 43.44 86.29 42.10 86.74 C 40.99 85.37 39.24 80.32 38.01 85.00 C 36.84 88.77 33.19 91.73 29.14 90.98 C 29.06 90.21 28.90 88.65 28.82 87.87 C 25.89 91.06 24.30 96.67 19.22 96.98 C 19.30 94.81 18.15 94.63 17.63 96.68 C 17.00 99.23 14.66 100.78 12.15 101.06 C 12.07 100.27 11.91 98.68 11.83 97.89 C 10.03 99.02 8.98 101.27 6.98 101.98 C 4.15 101.72 6.33 98.64 5.22 96.97 C 6.49 92.87 9.96 89.08 13.83 87.52 C 16.64 87.89 18.91 85.46 21.41 84.56 C 24.88 83.34 28.61 82.73 31.79 80.79 Z" />
</g>
<g id="#25713cfa">
<path fill="#25713c" opacity="0.98" d=" M 195.97 76.91 C 197.72 78.09 200.32 78.43 201.37 80.36 C 199.62 81.18 197.76 80.44 196.00 80.09 C 195.99 79.30 195.98 77.70 195.97 76.91 Z" />
</g>
<g id="#49b161ff">
<path fill="#49b161" opacity="1.00" d=" M 84.17 79.01 C 84.60 78.71 85.45 78.12 85.88 77.83 C 92.71 78.30 99.54 78.92 106.35 79.62 C 109.48 79.73 110.69 82.90 112.66 84.81 C 112.95 85.16 113.55 85.87 113.84 86.22 C 109.61 85.50 105.81 83.29 101.62 82.43 C 95.36 81.76 89.07 82.02 82.79 81.94 C 83.24 80.95 83.70 79.97 84.17 79.01 Z" />
</g>
<g id="#3f8fa4ff">
<path fill="#3f8fa4" opacity="1.00" d=" M 136.07 78.94 C 137.39 77.59 139.44 77.99 141.13 77.64 L 141.89 77.67 C 145.76 77.88 149.49 78.86 153.09 80.22 C 152.69 81.49 152.27 82.75 151.91 84.03 C 150.15 85.80 149.74 82.19 147.98 83.53 C 141.68 86.26 135.12 88.76 129.66 93.01 C 127.37 95.01 126.61 99.21 122.11 97.27 C 116.80 97.09 110.96 100.30 106.08 96.94 L 105.62 96.02 C 108.13 95.56 110.65 95.14 113.18 94.75 C 114.00 94.63 114.81 94.48 115.62 94.32 C 124.52 96.52 129.47 87.16 136.03 83.05 C 138.18 82.50 139.19 78.26 136.07 78.94 Z" />
</g>
<g id="#27717cff">
<path fill="#27717c" opacity="1.00" d=" M 153.09 80.22 C 156.06 79.98 158.75 78.61 161.61 77.89 C 161.54 81.08 162.24 84.00 165.97 84.03 C 167.56 84.46 169.15 84.87 170.76 85.25 C 172.45 86.98 174.34 88.48 176.17 90.07 C 175.02 92.22 173.05 93.64 170.60 92.59 C 164.48 91.37 158.27 90.79 152.13 89.83 C 152.07 88.38 151.96 85.48 151.91 84.03 C 152.27 82.75 152.69 81.49 153.09 80.22 Z" />
</g>
<g id="#388f4ffd">
<path fill="#388f4f" opacity="1.00" d=" M 169.98 79.95 C 178.14 75.75 187.41 79.61 196.00 80.09 C 197.76 80.44 199.62 81.18 201.37 80.36 C 205.71 80.51 209.95 83.64 213.15 86.18 C 206.44 87.59 199.87 84.56 193.16 85.05 C 192.61 85.95 192.13 86.88 191.72 87.85 C 188.93 86.67 188.56 91.73 186.15 92.71 L 185.49 93.06 C 184.56 92.23 183.66 91.30 182.45 90.91 C 180.95 90.03 178.66 89.85 177.98 88.03 C 177.11 86.52 177.24 84.21 175.33 83.60 C 173.65 82.03 172.21 84.56 170.76 85.25 C 169.15 84.87 167.56 84.46 165.97 84.03 C 163.57 81.23 168.22 81.04 169.98 79.95 Z" />
</g>
<g id="#267279ff">
<path fill="#267279" opacity="1.00" d=" M 122.71 79.74 C 125.90 78.25 129.05 80.89 132.12 81.65 C 130.69 82.10 129.27 82.55 127.87 83.06 C 126.09 82.03 124.39 80.90 122.71 79.74 Z" />
</g>
<g id="#378598ff">
<path fill="#378598" opacity="1.00" d=" M 136.07 78.94 C 139.19 78.26 138.18 82.50 136.03 83.05 C 129.47 87.16 124.52 96.52 115.62 94.32 C 117.52 93.46 120.00 92.47 118.02 90.23 C 120.50 90.01 122.94 89.41 125.19 88.33 C 126.82 87.60 128.31 86.61 129.84 85.70 C 129.24 84.77 128.54 83.92 127.87 83.06 C 129.27 82.55 130.69 82.10 132.12 81.65 C 133.65 81.14 134.77 79.85 136.07 78.94 Z" />
</g>
<g id="#4ebd67ff">
<path fill="#4ebd67" opacity="1.00" d=" M 54.24 82.69 C 59.79 81.47 65.17 78.98 71.01 79.98 C 73.05 79.73 77.99 79.76 78.10 83.00 C 78.50 85.11 81.20 83.50 82.09 82.49 L 82.79 81.94 C 89.07 82.02 95.36 81.76 101.62 82.43 C 105.81 83.29 109.61 85.50 113.84 86.22 C 115.15 87.63 116.54 88.98 118.02 90.23 C 120.00 92.47 117.52 93.46 115.62 94.32 C 114.81 94.48 114.00 94.63 113.18 94.75 C 109.47 92.81 106.08 90.18 102.09 88.82 C 102.28 89.41 102.67 90.58 102.86 91.16 C 96.44 84.60 86.92 87.59 78.71 86.61 C 70.68 84.51 61.68 85.11 54.12 88.71 C 52.59 87.32 50.80 88.82 49.67 89.95 C 49.30 90.25 48.56 90.85 48.18 91.15 C 46.78 91.13 45.38 91.06 43.98 90.94 C 43.58 88.98 44.42 87.49 46.20 86.68 C 47.11 86.11 47.31 84.93 47.85 84.07 C 50.12 85.65 52.14 83.49 54.24 82.69 Z" />
</g>
<g id="#397946ff">
<path fill="#397946" opacity="1.00" d=" M 47.85 84.07 C 49.77 82.92 52.00 81.36 54.24 82.69 C 52.14 83.49 50.12 85.65 47.85 84.07 Z" />
</g>
<g id="#2f7885ff">
<path fill="#2f7885" opacity="1.00" d=" M 147.98 83.53 C 149.74 82.19 150.15 85.80 151.91 84.03 C 151.96 85.48 152.07 88.38 152.13 89.83 C 158.27 90.79 164.48 91.37 170.60 92.59 C 173.05 93.64 175.02 92.22 176.17 90.07 C 174.34 88.48 172.45 86.98 170.76 85.25 C 172.21 84.56 173.65 82.03 175.33 83.60 C 177.24 84.21 177.11 86.52 177.98 88.03 C 178.66 89.85 180.95 90.03 182.45 90.91 C 180.01 92.72 177.50 94.40 174.90 95.96 C 166.96 96.31 159.09 95.01 151.19 94.53 C 149.11 95.27 147.25 97.79 144.99 96.11 C 145.82 92.00 150.30 87.56 147.98 83.53 Z" />
</g>
<g id="#2e7881ff">
<path fill="#2e7881" opacity="1.00" d=" M 112.66 84.81 C 116.93 83.60 120.97 87.59 125.19 88.33 C 122.94 89.41 120.50 90.01 118.02 90.23 C 116.54 88.98 115.15 87.63 113.84 86.22 C 113.55 85.87 112.95 85.16 112.66 84.81 Z" />
</g>
<g id="#5e2229ff">
<path fill="#5e2229" opacity="1.00" d=" M 129.66 93.01 C 135.12 88.76 141.68 86.26 147.98 83.53 C 150.30 87.56 145.82 92.00 144.99 96.11 C 144.75 96.58 144.27 97.53 144.03 98.01 C 143.76 98.48 143.23 99.42 142.96 99.89 L 142.04 99.81 C 138.12 97.19 133.88 95.10 129.66 93.01 Z" />
</g>
<g id="#54ca6eff">
<path fill="#54ca6e" opacity="1.00" d=" M 54.12 88.71 C 61.68 85.11 70.68 84.51 78.71 86.61 C 86.92 87.59 96.44 84.60 102.86 91.16 C 103.81 92.76 104.70 94.40 105.62 96.02 L 106.08 96.94 C 106.35 99.41 103.56 99.27 101.89 99.88 C 97.29 100.75 95.16 95.04 91.21 93.77 C 91.97 97.07 93.21 100.33 92.95 103.78 C 91.90 104.54 90.82 105.27 89.75 106.01 C 88.15 106.70 86.63 106.87 85.89 104.98 C 84.19 102.69 82.36 100.48 79.99 98.87 C 80.26 101.98 80.95 105.03 81.49 108.10 C 81.32 108.62 80.98 109.65 80.81 110.16 C 78.90 110.59 77.05 111.23 75.15 111.71 C 73.97 109.20 72.95 106.63 71.76 104.14 C 69.47 103.75 68.35 106.59 66.79 107.82 C 65.25 108.85 63.71 109.88 62.20 110.96 C 61.68 110.68 60.63 110.11 60.11 109.83 C 59.46 108.91 58.81 107.99 58.20 107.05 C 58.87 106.47 59.53 105.87 60.16 105.25 C 61.78 103.72 62.89 101.76 64.01 99.86 C 61.45 100.56 59.15 101.93 56.86 103.25 C 55.64 103.56 54.40 103.83 53.14 104.01 C 52.50 103.35 51.87 102.67 51.25 101.99 C 51.49 101.50 51.96 100.53 52.20 100.05 C 54.00 98.56 55.62 96.87 57.06 95.04 C 58.11 94.03 59.19 93.06 60.13 91.95 C 57.14 92.62 54.30 94.04 52.02 96.09 C 51.36 96.63 50.71 97.19 50.07 97.74 C 49.66 97.82 48.86 97.99 48.46 98.07 C 48.11 97.61 47.42 96.69 47.07 96.23 C 44.12 94.28 49.12 93.84 48.18 91.15 C 48.56 90.85 49.30 90.25 49.67 89.95 C 51.03 92.21 53.02 89.91 54.12 88.71 Z" />
</g>
<g id="#43a759fa">
<path fill="#43a759" opacity="0.98" d=" M 193.16 85.05 C 199.87 84.56 206.44 87.59 213.15 86.18 C 221.68 90.94 230.50 97.50 235.69 106.25 C 235.49 108.54 235.95 110.79 236.01 113.07 C 234.37 113.10 233.33 111.82 232.11 110.96 C 232.06 111.72 231.95 113.25 231.90 114.01 C 229.03 113.14 227.27 110.77 225.88 108.27 C 220.03 110.73 219.02 102.13 214.98 99.91 C 215.03 101.47 217.39 105.26 214.19 103.67 C 208.40 102.97 207.19 96.93 204.23 92.93 C 203.66 94.58 203.19 96.25 202.68 97.91 C 200.06 97.97 197.59 96.80 195.28 95.70 C 193.92 93.16 192.82 90.50 191.72 87.85 C 192.13 86.88 192.61 85.95 193.16 85.05 Z" />
</g>
<g id="#02060418">
<path fill="#020604" opacity="0.09" d=" M 186.15 92.71 C 188.56 91.73 188.93 86.67 191.72 87.85 C 192.82 90.50 193.92 93.16 195.28 95.70 C 197.59 96.80 200.06 97.97 202.68 97.91 C 203.19 96.25 203.66 94.58 204.23 92.93 C 207.19 96.93 208.40 102.97 214.19 103.67 C 213.59 103.95 212.40 104.51 211.80 104.79 C 206.36 101.24 200.01 100.29 193.68 101.33 C 192.72 100.79 191.77 100.24 190.84 99.66 C 190.36 99.04 189.89 98.41 189.41 97.79 C 189.27 97.33 188.99 96.41 188.85 95.95 C 188.42 94.56 187.08 93.74 186.15 92.71 Z" />
</g>
<g id="#4b553dff">
<path fill="#4b553d" opacity="1.00" d=" M 49.67 89.95 C 50.80 88.82 52.59 87.32 54.12 88.71 C 53.02 89.91 51.03 92.21 49.67 89.95 Z" />
</g>
<g id="#388795ff">
<path fill="#388795" opacity="1.00" d=" M 102.09 88.82 C 106.08 90.18 109.47 92.81 113.18 94.75 C 110.65 95.14 108.13 95.56 105.62 96.02 C 104.70 94.40 103.81 92.76 102.86 91.16 C 102.67 90.58 102.28 89.41 102.09 88.82 Z" />
</g>
<g id="#347f8fff">
<path fill="#347f8f" opacity="1.00" d=" M 182.45 90.91 C 183.66 91.30 184.56 92.23 185.49 93.06 C 181.18 95.41 177.50 100.12 172.00 98.92 C 164.28 97.99 156.60 100.72 148.98 99.30 C 147.14 99.61 145.43 99.32 144.03 98.01 C 144.27 97.53 144.75 96.58 144.99 96.11 C 147.25 97.79 149.11 95.27 151.19 94.53 C 159.09 95.01 166.96 96.31 174.90 95.96 C 177.50 94.40 180.01 92.72 182.45 90.91 Z" />
</g>
<g id="#3ea766ff">
<path fill="#3ea766" opacity="1.00" d=" M 52.02 96.09 C 54.30 94.04 57.14 92.62 60.13 91.95 C 59.19 93.06 58.11 94.03 57.06 95.04 C 55.38 95.41 53.70 95.77 52.02 96.09 Z" />
</g>
<g id="#4596a9ff">
<path fill="#4596a9" opacity="1.00" d=" M 122.11 97.27 C 126.61 99.21 127.37 95.01 129.66 93.01 C 133.88 95.10 138.12 97.19 142.04 99.81 C 143.97 105.57 152.15 106.59 154.98 112.02 C 157.56 117.36 160.52 123.87 157.70 129.71 C 154.46 132.93 149.72 133.65 145.92 135.99 C 145.63 136.16 145.03 136.50 144.73 136.67 C 143.16 137.35 141.56 137.97 139.95 138.57 C 137.30 139.39 134.63 140.08 131.97 140.85 C 130.24 141.03 128.50 141.16 126.80 141.53 C 125.12 141.84 123.45 142.18 121.79 142.58 C 120.29 142.87 117.29 143.45 115.80 143.74 C 113.21 143.81 110.63 143.92 108.05 144.06 C 114.32 143.17 120.09 140.45 126.29 139.26 C 135.76 137.25 145.49 135.05 153.79 129.82 C 157.01 123.87 153.87 117.38 150.79 112.20 C 147.20 108.41 142.78 105.57 138.60 102.50 C 135.77 101.39 132.76 99.06 129.65 100.62 C 125.48 102.42 120.95 100.64 116.60 101.29 C 108.99 102.19 99.70 99.14 92.95 103.78 C 93.21 100.33 91.97 97.07 91.21 93.77 C 95.16 95.04 97.29 100.75 101.89 99.88 C 103.56 99.27 106.35 99.41 106.08 96.94 C 110.96 100.30 116.80 97.09 122.11 97.27 Z" />
</g>
<g id="#3a8598ff">
<path fill="#3a8598" opacity="1.00" d=" M 185.49 93.06 L 186.15 92.71 C 187.08 93.74 188.42 94.56 188.85 95.95 C 184.80 95.57 182.45 99.59 179.03 101.03 C 174.52 104.01 168.87 102.26 164.00 104.21 C 164.22 107.18 167.81 109.18 166.50 112.33 C 165.84 120.33 173.19 124.15 177.71 129.34 C 178.27 132.76 178.60 136.20 178.68 139.66 C 175.71 145.68 171.58 151.10 166.31 155.29 C 164.17 157.35 161.24 160.65 158.05 159.34 C 158.87 158.40 159.64 157.42 160.34 156.40 C 167.27 153.07 172.29 146.50 175.95 139.89 C 176.62 134.37 176.38 128.10 170.94 125.06 C 167.21 123.26 166.51 119.29 164.85 116.00 C 163.68 115.86 162.77 116.26 162.10 117.22 C 162.10 120.96 163.63 124.51 164.36 128.16 L 164.05 128.89 C 163.78 129.40 163.25 130.41 162.99 130.92 C 159.05 133.27 155.34 135.99 151.21 137.99 C 149.15 137.14 146.93 136.87 144.73 136.67 C 145.03 136.50 145.63 136.16 145.92 135.99 C 152.88 135.97 161.60 131.82 161.68 124.01 C 160.24 118.83 159.17 113.56 158.79 108.19 C 153.64 105.19 148.53 102.06 142.96 99.89 C 143.23 99.42 143.76 98.48 144.03 98.01 C 145.43 99.32 147.14 99.61 148.98 99.30 C 156.60 100.72 164.28 97.99 172.00 98.92 C 177.50 100.12 181.18 95.41 185.49 93.06 Z" />
</g>
<g id="#58dccdff">
<path fill="#58dccd" opacity="1.00" d=" M 52.02 96.09 C 53.70 95.77 55.38 95.41 57.06 95.04 C 55.62 96.87 54.00 98.56 52.20 100.05 C 51.50 99.26 50.79 98.49 50.07 97.74 C 50.71 97.19 51.36 96.63 52.02 96.09 Z" />
</g>
<g id="#43a098dd">
<path fill="#43a098" opacity="0.87" d=" M 47.07 96.23 C 47.42 96.69 48.11 97.61 48.46 98.07 C 48.44 100.90 45.71 99.93 45.23 97.92 C 45.22 97.05 45.83 96.48 47.07 96.23 Z" />
</g>
<g id="#3f8da1ff">
<path fill="#3f8da1" opacity="1.00" d=" M 179.03 101.03 C 182.45 99.59 184.80 95.57 188.85 95.95 C 188.99 96.41 189.27 97.33 189.41 97.79 C 185.33 105.50 175.55 106.00 170.20 112.26 C 169.66 114.77 170.81 117.27 171.34 119.70 C 174.25 122.48 177.65 124.70 180.69 127.32 C 183.42 131.26 179.51 138.71 185.74 140.17 L 185.94 140.85 C 184.83 142.35 184.69 145.66 182.17 144.96 C 181.29 143.80 181.05 142.35 180.65 140.99 C 178.13 141.87 179.69 144.27 180.14 146.07 C 175.31 151.19 172.37 159.10 164.76 160.67 C 161.88 161.33 158.93 163.92 156.01 162.15 C 155.82 160.82 156.26 159.76 157.33 158.97 L 158.05 159.34 C 161.24 160.65 164.17 157.35 166.31 155.29 C 171.58 151.10 175.71 145.68 178.68 139.66 C 178.60 136.20 178.27 132.76 177.71 129.34 C 173.19 124.15 165.84 120.33 166.50 112.33 C 167.81 109.18 164.22 107.18 164.00 104.21 C 168.87 102.26 174.52 104.01 179.03 101.03 Z" />
</g>
<g id="#4cadbaf8">
<path fill="#4cadba" opacity="0.97" d=" M 45.23 97.92 C 45.71 99.93 48.44 100.90 48.46 98.07 C 48.86 97.99 49.66 97.82 50.07 97.74 C 48.09 102.04 44.96 105.69 43.04 110.01 C 41.47 113.08 40.72 116.69 38.23 119.23 C 38.01 118.61 37.58 117.37 37.36 116.76 C 38.85 110.42 41.78 103.72 45.23 97.92 Z" />
</g>
<g id="#6ef5f1ff">
<path fill="#6ef5f1" opacity="1.00" d=" M 50.07 97.74 C 50.79 98.49 51.50 99.26 52.20 100.05 C 51.96 100.53 51.49 101.50 51.25 101.99 C 50.41 104.19 49.86 106.50 48.97 108.68 C 48.51 109.68 48.23 110.73 48.13 111.83 C 47.91 113.24 47.44 114.60 46.89 115.92 C 45.71 119.39 45.63 122.85 46.66 126.30 C 47.37 127.83 48.37 129.32 49.83 130.21 C 50.82 130.62 51.83 131.00 52.85 131.34 C 51.78 135.77 46.32 134.70 42.81 135.91 L 42.05 135.95 C 41.74 135.42 41.12 134.35 40.81 133.82 C 40.63 133.53 40.29 132.95 40.12 132.66 L 39.83 131.90 C 39.21 130.16 38.57 128.43 37.87 126.72 C 37.96 124.22 38.08 121.72 38.23 119.23 C 40.72 116.69 41.47 113.08 43.04 110.01 C 44.96 105.69 48.09 102.04 50.07 97.74 Z" />
</g>
<g id="#4396a9fe">
<path fill="#4396a9" opacity="1.00" d=" M 189.41 97.79 C 189.89 98.41 190.36 99.04 190.84 99.66 C 188.91 102.15 191.83 106.99 194.95 105.30 C 195.45 106.89 195.93 108.48 196.59 110.01 C 198.24 113.94 200.63 117.56 201.92 121.64 C 199.57 126.96 204.06 132.76 204.68 138.07 C 204.58 138.39 204.38 139.04 204.28 139.37 L 203.09 139.35 C 202.75 137.72 202.07 134.44 201.73 132.81 C 200.37 135.30 198.72 139.17 201.71 141.17 C 199.70 149.78 196.31 157.95 193.01 166.10 C 193.16 166.64 193.46 167.71 193.61 168.25 L 193.85 169.09 C 194.15 170.98 195.16 172.84 194.86 174.79 C 193.06 176.57 190.70 178.50 187.98 177.87 C 188.91 172.75 189.34 167.55 189.81 162.38 C 188.81 162.00 187.81 161.62 186.82 161.23 C 188.51 160.92 191.81 161.76 190.72 159.04 C 190.65 157.37 190.35 155.73 190.07 154.09 C 191.27 154.79 192.38 155.74 193.78 156.03 C 196.02 144.07 199.11 131.15 194.64 119.32 C 194.10 117.00 191.71 116.36 189.89 115.31 C 190.69 115.20 192.27 114.97 193.07 114.86 C 192.74 112.88 191.80 110.97 190.11 109.83 C 190.33 111.28 190.66 112.71 190.89 114.16 C 189.41 112.89 188.19 111.37 186.87 109.94 C 186.82 111.97 187.84 113.62 189.17 115.05 C 187.54 116.74 185.92 118.44 184.31 120.14 C 186.18 124.83 191.33 131.33 186.37 135.35 C 185.90 136.91 185.92 138.56 185.74 140.17 C 179.51 138.71 183.42 131.26 180.69 127.32 C 177.65 124.70 174.25 122.48 171.34 119.70 C 170.81 117.27 169.66 114.77 170.20 112.26 C 175.55 106.00 185.33 105.50 189.41 97.79 Z" />
</g>
<g id="#4ca7adff">
<path fill="#4ca7ad" opacity="1.00" d=" M 79.99 98.87 C 82.36 100.48 84.19 102.69 85.89 104.98 C 83.37 104.61 81.39 105.18 81.49 108.10 C 80.95 105.03 80.26 101.98 79.99 98.87 Z" />
</g>
<g id="#4ebdbcff">
<path fill="#4ebdbc" opacity="1.00" d=" M 56.86 103.25 C 59.15 101.93 61.45 100.56 64.01 99.86 C 62.89 101.76 61.78 103.72 60.16 105.25 C 59.06 104.58 57.96 103.92 56.86 103.25 Z" />
</g>
<g id="#4ca0b5ff">
<path fill="#4ca0b5" opacity="1.00" d=" M 129.65 100.62 C 132.76 99.06 135.77 101.39 138.60 102.50 C 142.78 105.57 147.20 108.41 150.79 112.20 C 153.87 117.38 157.01 123.87 153.79 129.82 C 145.49 135.05 135.76 137.25 126.29 139.26 C 120.09 140.45 114.32 143.17 108.05 144.06 C 99.20 144.95 90.76 148.73 81.89 148.90 C 99.33 143.37 117.48 140.56 134.87 134.78 C 139.52 133.40 145.26 132.35 147.40 127.37 C 149.36 121.68 147.22 114.23 141.83 111.17 C 135.73 108.90 127.93 106.04 121.87 109.88 C 120.06 109.93 118.46 108.82 116.79 108.23 C 117.38 108.14 118.56 107.96 119.15 107.87 C 114.23 103.58 107.05 107.29 102.94 111.04 C 103.53 109.64 104.24 108.31 104.90 106.96 C 99.89 106.58 94.54 108.04 89.75 106.01 C 90.82 105.27 91.90 104.54 92.95 103.78 C 99.70 99.14 108.99 102.19 116.60 101.29 C 120.95 100.64 125.48 102.42 129.65 100.62 Z" />
</g>
<g id="#3f8ea0ff">
<path fill="#3f8ea0" opacity="1.00" d=" M 142.04 99.81 L 142.96 99.89 C 148.53 102.06 153.64 105.19 158.79 108.19 C 159.17 113.56 160.24 118.83 161.68 124.01 C 161.60 131.82 152.88 135.97 145.92 135.99 C 149.72 133.65 154.46 132.93 157.70 129.71 C 160.52 123.87 157.56 117.36 154.98 112.02 C 152.15 106.59 143.97 105.57 142.04 99.81 Z" />
</g>
<g id="#45a0b0fd">
<path fill="#45a0b0" opacity="1.00" d=" M 194.95 105.30 C 191.83 106.99 188.91 102.15 190.84 99.66 C 191.77 100.24 192.72 100.79 193.68 101.33 C 197.56 103.69 202.56 103.62 206.05 106.92 C 212.75 109.30 214.22 118.83 221.71 119.37 C 223.68 120.51 223.88 124.84 226.31 124.31 C 227.64 123.88 227.01 126.52 227.51 127.35 C 227.39 133.65 227.62 140.16 225.64 146.23 C 225.49 144.70 225.18 141.63 225.03 140.09 C 225.13 136.43 225.25 132.69 223.67 129.31 C 221.64 126.04 216.89 126.36 214.77 123.23 C 211.00 119.73 210.49 113.82 206.02 110.97 C 203.08 109.02 200.76 105.04 196.83 105.09 C 196.36 105.14 195.42 105.25 194.95 105.30 Z" />
</g>
<g id="#51babff9">
<path fill="#51babf" opacity="0.98" d=" M 193.68 101.33 C 200.01 100.29 206.36 101.24 211.80 104.79 C 218.95 108.91 223.80 116.74 226.31 124.31 C 223.88 124.84 223.68 120.51 221.71 119.37 C 214.22 118.83 212.75 109.30 206.05 106.92 C 202.56 103.62 197.56 103.69 193.68 101.33 Z" />
</g>
<g id="#5fd1d9ff">
<path fill="#5fd1d9" opacity="1.00" d=" M 51.25 101.99 C 51.87 102.67 52.50 103.35 53.14 104.01 C 54.69 105.22 56.62 105.86 58.20 107.05 C 58.81 107.99 59.46 108.91 60.11 109.83 C 60.15 110.31 60.22 111.26 60.26 111.73 C 60.18 112.25 60.02 113.28 59.93 113.80 C 58.32 115.25 56.74 116.72 55.09 118.13 C 52.93 115.05 50.90 111.90 48.97 108.68 C 49.86 106.50 50.41 104.19 51.25 101.99 Z" />
</g>
<g id="#419a98ff">
<path fill="#419a98" opacity="1.00" d=" M 53.14 104.01 C 54.40 103.83 55.64 103.56 56.86 103.25 C 57.96 103.92 59.06 104.58 60.16 105.25 C 59.53 105.87 58.87 106.47 58.20 107.05 C 56.62 105.86 54.69 105.22 53.14 104.01 Z" />
</g>
<g id="#58b4c7ff">
<path fill="#58b4c7" opacity="1.00" d=" M 66.79 107.82 C 68.35 106.59 69.47 103.75 71.76 104.14 C 72.95 106.63 73.97 109.20 75.15 111.71 C 77.05 111.23 78.90 110.59 80.81 110.16 C 86.78 112.81 93.84 112.33 99.98 114.91 C 100.02 116.74 100.10 120.41 100.14 122.24 C 101.07 120.76 101.54 119.06 102.14 117.44 C 102.74 116.25 103.33 115.06 103.88 113.85 C 107.69 114.16 111.48 114.68 115.18 115.71 C 109.94 119.55 104.43 123.19 100.94 128.85 C 101.43 128.85 102.42 128.85 102.91 128.86 C 105.83 129.82 107.91 132.34 110.83 133.37 C 112.99 134.73 116.44 135.46 118.10 133.13 C 118.78 133.04 120.13 132.87 120.81 132.78 C 122.69 132.65 125.24 131.22 126.00 133.79 C 116.69 138.37 106.52 140.76 96.35 142.51 C 92.61 143.16 88.87 145.25 85.02 144.42 C 84.74 144.10 84.19 143.46 83.91 143.15 C 88.96 142.21 94.25 141.45 98.82 138.95 C 97.50 135.80 96.62 132.51 97.80 129.16 C 91.78 121.91 81.83 120.26 75.44 113.57 C 73.30 110.63 69.63 109.85 66.79 107.82 Z" />
</g>
<g id="#51a9c0ff">
<path fill="#51a9c0" opacity="1.00" d=" M 81.49 108.10 C 81.39 105.18 83.37 104.61 85.89 104.98 C 86.63 106.87 88.15 106.70 89.75 106.01 C 94.54 108.04 99.89 106.58 104.90 106.96 C 104.24 108.31 103.53 109.64 102.94 111.04 C 102.24 112.42 101.52 113.79 100.79 115.16 L 99.98 114.91 C 93.84 112.33 86.78 112.81 80.81 110.16 C 80.98 109.65 81.32 108.62 81.49 108.10 Z" />
</g>
<g id="#3e8ca0ff">
<path fill="#3e8ca0" opacity="1.00" d=" M 194.95 105.30 C 195.42 105.25 196.36 105.14 196.83 105.09 C 199.80 108.46 203.43 111.29 205.97 115.03 C 209.36 122.76 213.31 130.54 219.36 136.55 C 221.54 136.86 223.37 137.71 224.17 139.89 C 223.91 142.67 224.80 145.81 223.17 148.26 C 222.83 146.70 223.65 143.38 221.27 143.40 C 217.35 144.41 211.70 144.94 209.94 140.33 C 213.13 138.30 213.40 133.76 210.09 131.70 C 206.43 124.97 205.13 116.99 199.79 111.23 C 198.85 110.30 197.87 108.32 196.59 110.01 C 195.93 108.48 195.45 106.89 194.95 105.30 Z" />
</g>
<g id="#4394a9ff">
<path fill="#4394a9" opacity="1.00" d=" M 196.83 105.09 C 200.76 105.04 203.08 109.02 206.02 110.97 C 210.49 113.82 211.00 119.73 214.77 123.23 C 216.89 126.36 221.64 126.04 223.67 129.31 C 225.25 132.69 225.13 136.43 225.03 140.09 L 224.17 139.89 C 223.37 137.71 221.54 136.86 219.36 136.55 C 213.31 130.54 209.36 122.76 205.97 115.03 C 203.43 111.29 199.80 108.46 196.83 105.09 Z" />
</g>
<g id="#3c7e8fff">
<path fill="#3c7e8f" opacity="1.00" d=" M 102.94 111.04 C 107.05 107.29 114.23 103.58 119.15 107.87 C 118.56 107.96 117.38 108.14 116.79 108.23 C 112.28 107.81 105.63 108.94 103.88 113.85 C 103.33 115.06 102.74 116.25 102.14 117.44 C 101.80 116.87 101.13 115.73 100.79 115.16 C 101.52 113.79 102.24 112.42 102.94 111.04 Z" />
</g>
<g id="#5dbcd1ff">
<path fill="#5dbcd1" opacity="1.00" d=" M 62.20 110.96 C 63.71 109.88 65.25 108.85 66.79 107.82 C 69.63 109.85 73.30 110.63 75.44 113.57 C 81.83 120.26 91.78 121.91 97.80 129.16 C 96.62 132.51 97.50 135.80 98.82 138.95 C 94.25 141.45 88.96 142.21 83.91 143.15 C 83.44 143.12 82.50 143.08 82.03 143.06 C 80.11 142.47 79.38 144.20 79.37 145.78 C 77.05 146.82 74.35 147.49 71.97 146.19 C 71.29 144.74 70.60 143.29 69.88 141.86 C 72.92 141.60 77.19 141.89 78.84 139.08 C 74.88 133.43 74.08 126.26 70.78 120.26 C 68.10 118.64 65.61 116.85 63.83 114.22 C 63.34 114.44 62.36 114.88 61.88 115.11 C 61.97 113.72 62.08 112.34 62.20 110.96 Z" />
</g>
<g id="#53acc0ff">
<path fill="#53acc0" opacity="1.00" d=" M 103.88 113.85 C 105.63 108.94 112.28 107.81 116.79 108.23 C 118.46 108.82 120.06 109.93 121.87 109.88 C 127.93 106.04 135.73 108.90 141.83 111.17 C 147.22 114.23 149.36 121.68 147.40 127.37 C 145.26 132.35 139.52 133.40 134.87 134.78 C 117.48 140.56 99.33 143.37 81.89 148.90 C 80.14 148.99 76.65 149.17 74.90 149.26 C 72.75 148.71 70.60 148.15 68.40 147.83 C 66.20 146.62 63.98 145.44 61.77 144.26 C 64.04 144.22 66.35 144.03 67.94 142.23 C 68.30 144.31 69.93 145.80 71.97 146.19 C 74.35 147.49 77.05 146.82 79.37 145.78 C 79.38 144.20 80.11 142.47 82.03 143.06 C 81.51 143.64 80.13 145.65 81.68 145.74 C 82.81 145.35 83.93 144.91 85.02 144.42 C 88.87 145.25 92.61 143.16 96.35 142.51 C 106.52 140.76 116.69 138.37 126.00 133.79 C 125.24 131.22 122.69 132.65 120.81 132.78 C 126.54 129.45 128.86 121.96 126.07 115.94 C 126.31 114.91 126.55 113.89 126.79 112.87 C 122.61 112.30 118.88 114.21 115.18 115.71 C 111.48 114.68 107.69 114.16 103.88 113.85 Z" />
</g>
<g id="#2d525cff">
<path fill="#2d525c" opacity="1.00" d=" M 48.13 111.83 C 48.23 110.73 48.51 109.68 48.97 108.68 C 50.90 111.90 52.93 115.05 55.09 118.13 C 56.73 121.11 59.30 123.71 60.08 127.09 C 59.10 126.80 58.16 126.42 57.24 125.97 L 56.87 125.02 C 56.46 123.96 55.97 122.92 55.35 121.96 C 53.73 119.36 51.71 117.04 49.87 114.60 C 49.30 113.67 48.72 112.74 48.13 111.83 Z" />
</g>
<g id="#398398ff">
<path fill="#398398" opacity="1.00" d=" M 196.59 110.01 C 197.87 108.32 198.85 110.30 199.79 111.23 C 205.13 116.99 206.43 124.97 210.09 131.70 C 208.05 131.70 205.86 132.56 205.81 134.92 C 207.15 134.53 208.82 132.13 209.80 134.18 C 212.94 136.46 208.62 138.39 206.96 139.88 C 207.71 139.99 209.19 140.21 209.94 140.33 C 211.70 144.94 217.35 144.41 221.27 143.40 C 223.65 143.38 222.83 146.70 223.17 148.26 C 221.20 148.48 221.20 147.29 221.68 145.80 C 219.27 146.10 219.07 149.13 218.94 151.06 C 220.00 150.79 221.04 150.47 222.07 150.10 C 221.82 152.66 222.11 155.38 220.75 157.67 C 217.77 158.37 214.75 159.00 211.80 159.79 C 211.39 159.87 210.57 160.05 210.16 160.13 C 207.01 160.05 203.91 159.94 200.79 159.82 C 205.91 159.01 210.95 157.70 215.77 155.79 C 213.34 153.36 211.83 149.92 208.69 148.32 C 206.36 147.33 205.60 144.38 203.06 143.76 C 203.45 142.29 203.88 140.83 204.28 139.37 C 204.38 139.04 204.58 138.39 204.68 138.07 C 206.33 132.28 203.91 126.88 201.92 121.64 C 200.63 117.56 198.24 113.94 196.59 110.01 Z" />
</g>
<g id="#4694a1ff">
<path fill="#4694a1" opacity="1.00" d=" M 60.11 109.83 C 60.63 110.11 61.68 110.68 62.20 110.96 C 62.08 112.34 61.97 113.72 61.88 115.11 L 61.79 116.18 C 61.25 114.71 60.78 113.21 60.26 111.73 C 60.22 111.26 60.15 110.31 60.11 109.83 Z" />
</g>
<g id="#357080ff">
<path fill="#357080" opacity="1.00" d=" M 186.87 109.94 C 188.19 111.37 189.41 112.89 190.89 114.16 C 190.66 112.71 190.33 111.28 190.11 109.83 C 191.80 110.97 192.74 112.88 193.07 114.86 C 192.27 114.97 190.69 115.20 189.89 115.31 L 189.17 115.05 C 187.84 113.62 186.82 111.97 186.87 109.94 Z" />
</g>
<g id="#dcdedfff">
<path fill="#dcdedf" opacity="1.00" d=" M 48.13 111.83 C 48.72 112.74 49.30 113.67 49.87 114.60 C 49.27 116.24 48.93 117.95 48.57 119.66 C 48.20 121.16 47.90 122.69 47.63 124.22 C 47.33 121.45 46.99 118.70 46.89 115.92 C 47.44 114.60 47.91 113.24 48.13 111.83 Z" />
</g>
<g id="#54b3c8ff">
<path fill="#54b3c8" opacity="1.00" d=" M 60.26 111.73 C 60.78 113.21 61.25 114.71 61.79 116.18 C 61.76 117.87 62.94 120.97 60.04 119.99 C 60.01 118.45 59.96 115.35 59.93 113.80 C 60.02 113.28 60.18 112.25 60.26 111.73 Z" />
</g>
<g id="#263d47ff">
<path fill="#263d47" opacity="1.00" d=" M 115.18 115.71 C 118.88 114.21 122.61 112.30 126.79 112.87 C 126.55 113.89 126.31 114.91 126.07 115.94 L 125.27 115.65 C 122.56 113.94 119.82 115.90 117.74 117.62 C 114.11 119.54 110.70 121.80 107.68 124.59 C 107.22 124.95 106.31 125.67 105.86 126.03 C 104.87 126.96 103.91 127.93 102.91 128.86 C 102.42 128.85 101.43 128.85 100.94 128.85 C 104.43 123.19 109.94 119.55 115.18 115.71 Z" />
</g>
<g id="#60c7deff">
<path fill="#60c7de" opacity="1.00" d=" M 55.09 118.13 C 56.74 116.72 58.32 115.25 59.93 113.80 C 59.96 115.35 60.01 118.45 60.04 119.99 C 62.94 120.97 61.76 117.87 61.79 116.18 L 61.88 115.11 C 62.36 114.88 63.34 114.44 63.83 114.22 C 65.61 116.85 68.10 118.64 70.78 120.26 C 74.08 126.26 74.88 133.43 78.84 139.08 C 77.19 141.89 72.92 141.60 69.88 141.86 C 69.39 141.95 68.43 142.14 67.94 142.23 C 66.35 144.03 64.04 144.22 61.77 144.26 C 61.32 144.09 60.43 143.76 59.99 143.59 C 57.60 142.68 55.28 141.61 52.93 140.59 C 51.38 139.91 49.79 139.33 48.22 138.73 C 46.79 138.15 45.34 137.65 43.91 137.10 C 43.64 136.80 43.08 136.21 42.81 135.91 C 46.32 134.70 51.78 135.77 52.85 131.34 C 51.83 131.00 50.82 130.62 49.83 130.21 C 53.03 130.52 56.71 129.71 57.24 125.97 C 58.16 126.42 59.10 126.80 60.08 127.09 C 59.30 123.71 56.73 121.11 55.09 118.13 Z" />
</g>
<g id="#cf4458ff">
<path fill="#cf4458" opacity="1.00" d=" M 48.57 119.66 C 48.93 117.95 49.27 116.24 49.87 114.60 C 51.71 117.04 53.73 119.36 55.35 121.96 C 54.48 122.99 53.62 124.17 52.12 124.14 C 52.56 121.64 51.03 119.95 48.57 119.66 Z" />
</g>
<g id="#4893a4ff">
<path fill="#4893a4" opacity="1.00" d=" M 99.98 114.91 L 100.79 115.16 C 101.13 115.73 101.80 116.87 102.14 117.44 C 101.54 119.06 101.07 120.76 100.14 122.24 C 100.10 120.41 100.02 116.74 99.98 114.91 Z" />
</g>
<g id="#f3f4f5ff">
<path fill="#f3f4f5" opacity="1.00" d=" M 117.74 117.62 C 119.82 115.90 122.56 113.94 125.27 115.65 C 126.83 121.58 125.63 128.71 119.38 131.40 C 115.14 133.02 105.60 132.05 105.86 126.03 C 106.31 125.67 107.22 124.95 107.68 124.59 C 109.39 126.24 111.45 127.50 113.93 127.12 C 115.99 127.37 117.16 125.46 118.09 123.94 C 119.60 122.01 119.04 119.49 117.74 117.62 Z" />
</g>
<g id="#489aaeff">
<path fill="#489aae" opacity="1.00" d=" M 189.17 115.05 L 189.89 115.31 C 191.71 116.36 194.10 117.00 194.64 119.32 C 199.11 131.15 196.02 144.07 193.78 156.03 C 192.38 155.74 191.27 154.79 190.07 154.09 C 190.35 155.73 190.65 157.37 190.72 159.04 C 187.91 161.51 187.10 158.05 186.19 155.89 C 186.70 154.16 188.59 153.24 189.63 151.81 C 188.98 150.21 188.23 148.65 187.61 147.04 C 183.00 150.39 180.29 155.43 176.70 159.69 C 171.51 161.95 166.11 163.74 160.82 165.74 C 158.04 166.83 156.18 166.22 155.21 163.93 C 155.41 163.49 155.81 162.59 156.01 162.15 C 158.93 163.92 161.88 161.33 164.76 160.67 C 172.37 159.10 175.31 151.19 180.14 146.07 C 184.29 148.12 188.50 144.52 185.94 140.85 L 185.74 140.17 C 185.92 138.56 185.90 136.91 186.37 135.35 C 191.33 131.33 186.18 124.83 184.31 120.14 C 185.92 118.44 187.54 116.74 189.17 115.05 Z" />
</g>
<g id="#5bb6b4ff">
<path fill="#5bb6b4" opacity="1.00" d=" M 46.66 126.30 C 45.63 122.85 45.71 119.39 46.89 115.92 C 46.99 118.70 47.33 121.45 47.63 124.22 C 47.63 124.71 47.65 125.70 47.66 126.20 L 46.66 126.30 Z" />
</g>
<g id="#3b616cff">
<path fill="#3b616c" opacity="1.00" d=" M 125.27 115.65 L 126.07 115.94 C 128.86 121.96 126.54 129.45 120.81 132.78 C 120.13 132.87 118.78 133.04 118.10 133.13 C 116.28 133.19 112.65 133.31 110.83 133.37 C 107.91 132.34 105.83 129.82 102.91 128.86 C 103.91 127.93 104.87 126.96 105.86 126.03 C 105.60 132.05 115.14 133.02 119.38 131.40 C 125.63 128.71 126.83 121.58 125.27 115.65 Z" />
</g>
<g id="#357d92ff">
<path fill="#357d92" opacity="1.00" d=" M 162.10 117.22 C 162.77 116.26 163.68 115.86 164.85 116.00 C 166.51 119.29 167.21 123.26 170.94 125.06 C 176.38 128.10 176.62 134.37 175.95 139.89 C 172.29 146.50 167.27 153.07 160.34 156.40 C 159.82 155.29 159.34 154.16 158.89 153.02 L 158.60 152.25 C 162.36 154.12 165.42 150.18 167.71 147.74 C 171.35 143.05 176.00 137.67 173.73 131.27 C 171.49 128.09 169.05 123.96 165.11 122.91 C 165.04 124.21 165.01 125.51 165.00 126.82 C 164.84 127.16 164.52 127.83 164.36 128.16 C 163.63 124.51 162.10 120.96 162.10 117.22 Z" />
</g>
<g id="#5cd6d1f4">
<path fill="#5cd6d1" opacity="0.96" d=" M 37.36 116.76 C 37.58 117.37 38.01 118.61 38.23 119.23 C 38.08 121.72 37.96 124.22 37.87 126.72 C 35.32 128.09 36.35 130.93 36.71 133.20 C 36.71 133.59 36.69 134.37 36.69 134.75 C 34.48 139.83 37.25 145.82 33.24 150.25 C 33.35 139.07 33.15 127.32 37.36 116.76 Z" />
</g>
<g id="#cb4756ff">
<path fill="#cb4756" opacity="1.00" d=" M 107.68 124.59 C 110.70 121.80 114.11 119.54 117.74 117.62 C 119.04 119.49 119.60 122.01 118.09 123.94 C 115.41 121.83 111.41 123.84 113.93 127.12 C 111.45 127.50 109.39 126.24 107.68 124.59 Z" />
</g>
<g id="#f2f4f4ff">
<path fill="#f2f4f4" opacity="1.00" d=" M 47.63 124.22 C 47.90 122.69 48.20 121.16 48.57 119.66 C 49.06 121.58 50.27 123.32 52.12 124.14 C 53.62 124.17 54.48 122.99 55.35 121.96 C 55.97 122.92 56.46 123.96 56.87 125.02 C 55.43 126.53 54.52 129.38 52.00 129.05 C 50.00 129.31 48.97 127.30 47.66 126.20 C 47.65 125.70 47.63 124.71 47.63 124.22 Z" />
</g>
<g id="#d66f82ff">
<path fill="#d66f82" opacity="1.00" d=" M 48.57 119.66 C 51.03 119.95 52.56 121.64 52.12 124.14 C 50.27 123.32 49.06 121.58 48.57 119.66 Z" />
</g>
<g id="#39a6b5ff">
<path fill="#39a6b5" opacity="1.00" d=" M 204.68 138.07 C 204.06 132.76 199.57 126.96 201.92 121.64 C 203.91 126.88 206.33 132.28 204.68 138.07 Z" />
</g>
<g id="#dc717dff">
<path fill="#dc717d" opacity="1.00" d=" M 113.93 127.12 C 111.41 123.84 115.41 121.83 118.09 123.94 C 117.16 125.46 115.99 127.37 113.93 127.12 Z" />
</g>
<g id="#2f7489ff">
<path fill="#2f7489" opacity="1.00" d=" M 165.11 122.91 C 169.05 123.96 171.49 128.09 173.73 131.27 C 176.00 137.67 171.35 143.05 167.71 147.74 C 165.42 150.18 162.36 154.12 158.60 152.25 C 158.89 151.66 159.47 150.47 159.76 149.88 C 166.51 148.96 170.66 141.31 171.94 135.07 C 170.21 131.94 169.48 126.38 165.00 126.82 C 165.01 125.51 165.04 124.21 165.11 122.91 Z" />
</g>
<g id="#43777fff">
<path fill="#43777f" opacity="1.00" d=" M 52.00 129.05 C 54.52 129.38 55.43 126.53 56.87 125.02 L 57.24 125.97 C 56.71 129.71 53.03 130.52 49.83 130.21 C 48.37 129.32 47.37 127.83 46.66 126.30 L 47.66 126.20 C 48.97 127.30 50.00 129.31 52.00 129.05 Z" />
</g>
<g id="#52bcc8ff">
<path fill="#52bcc8" opacity="1.00" d=" M 36.71 133.20 C 36.35 130.93 35.32 128.09 37.87 126.72 C 38.57 128.43 39.21 130.16 39.83 131.90 C 38.78 132.31 37.74 132.74 36.71 133.20 Z" />
</g>
<g id="#296a80ff">
<path fill="#296a80" opacity="1.00" d=" M 165.00 126.82 C 169.48 126.38 170.21 131.94 171.94 135.07 C 170.66 141.31 166.51 148.96 159.76 149.88 C 160.03 149.38 160.58 148.40 160.86 147.90 C 165.42 145.83 168.63 140.92 169.01 136.03 C 168.18 133.25 168.03 128.29 164.05 128.89 L 164.36 128.16 C 164.52 127.83 164.84 127.16 165.00 126.82 Z" />
</g>
<g id="#225f75ff">
<path fill="#225f75" opacity="1.00" d=" M 164.05 128.89 C 168.03 128.29 168.18 133.25 169.01 136.03 C 168.63 140.92 165.42 145.83 160.86 147.90 C 163.55 143.67 167.22 139.52 166.02 134.00 C 166.91 131.12 164.33 132.35 162.69 132.67 C 162.76 132.23 162.91 131.36 162.99 130.92 C 163.25 130.41 163.78 129.40 164.05 128.89 Z" />
</g>
<g id="#307a91ff">
<path fill="#307a91" opacity="1.00" d=" M 151.21 137.99 C 155.34 135.99 159.05 133.27 162.99 130.92 C 162.91 131.36 162.76 132.23 162.69 132.67 C 162.50 133.20 162.12 134.27 161.94 134.80 C 160.03 136.46 158.77 138.80 156.59 140.14 C 154.96 138.84 152.82 138.99 150.87 138.78 L 151.21 137.99 Z" />
</g>
<g id="#387c8fff">
<path fill="#387c8f" opacity="1.00" d=" M 36.71 133.20 C 37.74 132.74 38.78 132.31 39.83 131.90 L 40.12 132.66 C 38.72 133.41 37.08 135.01 38.16 136.70 C 39.68 137.01 40.10 134.79 40.81 133.82 C 41.12 134.35 41.74 135.42 42.05 135.95 C 40.57 137.11 38.94 138.03 37.01 138.11 C 36.93 137.27 36.77 135.59 36.69 134.75 C 36.69 134.37 36.71 133.59 36.71 133.20 Z" />
</g>
<g id="#185469ff">
<path fill="#185469" opacity="1.00" d=" M 162.69 132.67 C 164.33 132.35 166.91 131.12 166.02 134.00 C 167.22 139.52 163.55 143.67 160.86 147.90 C 160.58 148.40 160.03 149.38 159.76 149.88 C 159.47 150.47 158.89 151.66 158.60 152.25 C 156.62 151.05 153.27 150.19 156.32 146.35 C 157.77 142.30 161.03 139.05 161.94 134.80 C 162.12 134.27 162.50 133.20 162.69 132.67 Z" />
</g>
<g id="#2d6371ff">
<path fill="#2d6371" opacity="1.00" d=" M 205.81 134.92 C 205.86 132.56 208.05 131.70 210.09 131.70 C 213.40 133.76 213.13 138.30 209.94 140.33 C 209.19 140.21 207.71 139.99 206.96 139.88 C 208.62 138.39 212.94 136.46 209.80 134.18 C 208.82 132.13 207.15 134.53 205.81 134.92 Z" />
</g>
<g id="#4dabbdff">
<path fill="#4dabbd" opacity="1.00" d=" M 38.16 136.70 C 37.08 135.01 38.72 133.41 40.12 132.66 C 40.29 132.95 40.63 133.53 40.81 133.82 C 40.10 134.79 39.68 137.01 38.16 136.70 Z" />
</g>
<g id="#3d808fff">
<path fill="#3d808f" opacity="1.00" d=" M 110.83 133.37 C 112.65 133.31 116.28 133.19 118.10 133.13 C 116.44 135.46 112.99 134.73 110.83 133.37 Z" />
</g>
<g id="#2f7481ff">
<path fill="#2f7481" opacity="1.00" d=" M 201.71 141.17 C 198.72 139.17 200.37 135.30 201.73 132.81 C 202.07 134.44 202.75 137.72 203.09 139.35 C 202.75 139.81 202.05 140.72 201.71 141.17 Z" />
</g>
<g id="#58baccfa">
<path fill="#58bacc" opacity="0.98" d=" M 33.24 150.25 C 37.25 145.82 34.48 139.83 36.69 134.75 C 36.77 135.59 36.93 137.27 37.01 138.11 L 37.06 138.97 C 36.91 148.17 38.97 157.72 45.20 164.74 L 44.94 165.60 C 43.38 167.06 42.44 168.99 41.74 170.97 C 41.07 170.97 39.75 170.96 39.09 170.96 C 38.55 169.99 38.04 169.03 37.51 168.07 C 37.18 163.96 32.14 164.63 31.67 168.21 L 30.97 168.14 C 31.45 162.15 34.03 156.50 33.24 150.25 Z" />
</g>
<g id="#1c6479ff">
<path fill="#1c6479" opacity="1.00" d=" M 156.59 140.14 C 158.77 138.80 160.03 136.46 161.94 134.80 C 161.03 139.05 157.77 142.30 156.32 146.35 C 153.27 150.19 156.62 151.05 158.60 152.25 L 158.89 153.02 C 158.65 153.28 158.17 153.79 157.93 154.05 C 155.97 153.81 153.40 154.67 152.08 152.75 C 151.59 148.31 153.68 144.33 155.91 140.71 L 156.59 140.14 Z" />
</g>
<g id="#4697adff">
<path fill="#4697ad" opacity="1.00" d=" M 37.01 138.11 C 38.94 138.03 40.57 137.11 42.05 135.95 L 42.81 135.91 C 43.08 136.21 43.64 136.80 43.91 137.10 C 44.08 138.37 44.24 139.66 44.40 140.94 C 44.63 146.07 45.49 151.79 50.27 154.70 C 54.23 157.44 57.10 161.31 60.30 164.84 C 58.41 166.79 56.54 168.87 56.88 171.80 C 54.90 172.14 52.87 172.06 50.88 171.84 C 50.99 171.18 51.22 169.86 51.33 169.19 C 53.18 168.62 54.84 167.42 53.77 165.29 C 49.37 161.26 45.77 156.52 42.46 151.59 C 41.47 147.48 40.88 143.29 39.77 139.22 C 39.10 139.16 37.74 139.03 37.06 138.97 L 37.01 138.11 Z" />
</g>
<g id="#6891a0ff">
<path fill="#6891a0" opacity="1.00" d=" M 43.91 137.10 C 45.34 137.65 46.79 138.15 48.22 138.73 C 47.88 141.03 45.49 145.34 44.40 140.94 C 44.24 139.66 44.08 138.37 43.91 137.10 Z" />
</g>
<g id="#2a798eff">
<path fill="#2a798e" opacity="1.00" d=" M 139.95 138.57 C 141.56 137.97 143.16 137.35 144.73 136.67 C 146.93 136.87 149.15 137.14 151.21 137.99 L 150.87 138.78 C 146.34 139.92 141.77 141.15 137.88 143.83 C 134.07 146.51 128.98 147.40 125.84 150.97 C 123.90 152.03 121.94 153.06 120.01 154.15 C 115.01 155.30 109.88 156.41 104.73 155.71 C 106.12 155.36 107.53 155.14 108.95 155.00 C 112.17 154.64 116.49 153.89 118.31 151.10 C 120.79 149.51 123.45 148.25 126.09 146.94 C 127.90 148.74 128.63 146.97 129.16 145.20 L 129.75 145.16 C 133.87 144.79 137.73 142.51 140.86 139.87 C 140.63 139.54 140.18 138.89 139.95 138.57 Z" />
</g>
<g id="#4fa6beff">
<path fill="#4fa6be" opacity="1.00" d=" M 37.06 138.97 C 37.74 139.03 39.10 139.16 39.77 139.22 C 40.88 143.29 41.47 147.48 42.46 151.59 C 45.77 156.52 49.37 161.26 53.77 165.29 C 54.84 167.42 53.18 168.62 51.33 169.19 C 51.09 168.89 50.59 168.27 50.35 167.96 C 49.10 166.23 47.42 164.83 45.20 164.74 C 38.97 157.72 36.91 148.17 37.06 138.97 Z" />
</g>
<g id="#3c899cfe">
<path fill="#3c899c" opacity="1.00" d=" M 48.22 138.73 C 49.79 139.33 51.38 139.91 52.93 140.59 C 52.20 141.91 52.50 143.41 52.53 144.84 C 52.10 147.49 52.36 150.04 53.83 152.26 C 55.32 155.86 59.96 156.74 62.92 158.98 C 65.68 162.80 68.06 167.11 72.16 169.69 C 69.50 170.77 66.66 171.25 63.86 171.85 C 63.22 169.23 62.65 166.50 60.30 164.84 C 57.10 161.31 54.23 157.44 50.27 154.70 C 45.49 151.79 44.63 146.07 44.40 140.94 C 45.49 145.34 47.88 141.03 48.22 138.73 Z" />
</g>
<g id="#246c81ff">
<path fill="#246c81" opacity="1.00" d=" M 131.97 140.85 C 134.63 140.08 137.30 139.39 139.95 138.57 C 140.18 138.89 140.63 139.54 140.86 139.87 C 137.73 142.51 133.87 144.79 129.75 145.16 C 130.36 143.66 131.15 142.24 131.97 140.85 Z" />
</g>
<g id="#2b859bff">
<path fill="#2b859b" opacity="1.00" d=" M 137.88 143.83 C 141.77 141.15 146.34 139.92 150.87 138.78 C 152.82 138.99 154.96 138.84 156.59 140.14 L 155.91 140.71 C 153.42 142.21 151.30 144.21 149.14 146.14 C 149.43 143.75 151.88 139.32 144.98 143.03 C 138.43 145.10 132.58 149.25 125.84 150.97 C 128.98 147.40 134.07 146.51 137.88 143.83 Z" />
</g>
<g id="#39a8b9ff">
<path fill="#39a8b9" opacity="1.00" d=" M 203.09 139.35 L 204.28 139.37 C 203.88 140.83 203.45 142.29 203.06 143.76 C 201.17 149.24 198.93 154.60 197.13 160.11 C 196.71 161.35 196.28 162.59 195.89 163.85 C 194.93 164.61 193.97 165.35 193.01 166.10 C 196.31 157.95 199.70 149.78 201.71 141.17 C 202.05 140.72 202.75 139.81 203.09 139.35 Z" />
</g>
<g id="#3992a5f5">
<path fill="#3992a5" opacity="0.96" d=" M 224.17 139.89 L 225.03 140.09 C 225.18 141.63 225.49 144.70 225.64 146.23 C 225.10 151.44 222.67 156.92 224.83 162.10 C 225.57 163.60 224.20 164.71 222.97 165.25 L 222.28 164.95 C 222.04 164.37 221.57 163.22 221.33 162.64 C 221.36 157.72 214.97 160.70 211.80 159.79 C 214.75 159.00 217.77 158.37 220.75 157.67 C 222.11 155.38 221.82 152.66 222.07 150.10 C 222.35 149.64 222.90 148.72 223.17 148.26 C 224.80 145.81 223.91 142.67 224.17 139.89 Z" />
</g>
<g id="#7e5158ff">
<path fill="#7e5158" opacity="1.00" d=" M 52.53 144.84 C 52.50 143.41 52.20 141.91 52.93 140.59 C 55.28 141.61 57.60 142.68 59.99 143.59 C 58.45 144.91 59.83 146.56 60.28 148.03 C 59.27 148.46 58.25 148.87 57.23 149.28 C 57.70 150.30 58.26 151.28 58.78 152.29 C 57.95 151.89 57.11 151.50 56.28 151.11 C 55.17 148.93 53.89 146.86 52.53 144.84 Z" />
</g>
<g id="#4e768aff">
<path fill="#4e768a" opacity="1.00" d=" M 126.80 141.53 C 128.50 141.16 130.24 141.03 131.97 140.85 C 131.15 142.24 130.36 143.66 129.75 145.16 L 129.16 145.20 C 129.04 143.47 129.09 141.47 126.80 141.53 Z" />
</g>
<g id="#227589ff">
<path fill="#227589" opacity="1.00" d=" M 149.14 146.14 C 151.30 144.21 153.42 142.21 155.91 140.71 C 153.68 144.33 151.59 148.31 152.08 152.75 C 153.40 154.67 155.97 153.81 157.93 154.05 C 154.99 157.56 149.22 156.55 146.07 153.81 C 145.72 151.83 146.46 149.91 147.04 148.06 C 147.75 147.43 148.45 146.79 149.14 146.14 Z" />
</g>
<g id="#316975ff">
<path fill="#316975" opacity="1.00" d=" M 180.14 146.07 C 179.69 144.27 178.13 141.87 180.65 140.99 C 181.05 142.35 181.29 143.80 182.17 144.96 C 184.69 145.66 184.83 142.35 185.94 140.85 C 188.50 144.52 184.29 148.12 180.14 146.07 Z" />
</g>
<g id="#366e7cff">
<path fill="#366e7c" opacity="1.00" d=" M 67.94 142.23 C 68.43 142.14 69.39 141.95 69.88 141.86 C 70.60 143.29 71.29 144.74 71.97 146.19 C 69.93 145.80 68.30 144.31 67.94 142.23 Z" />
</g>
<g id="#6f8492ff">
<path fill="#6f8492" opacity="1.00" d=" M 121.79 142.58 C 123.45 142.18 125.12 141.84 126.80 141.53 C 129.09 141.47 129.04 143.47 129.16 145.20 C 128.63 146.97 127.90 148.74 126.09 146.94 C 126.58 144.15 124.40 142.50 121.79 142.58 Z" />
</g>
<g id="#29555eff">
<path fill="#29555e" opacity="1.00" d=" M 82.03 143.06 C 82.50 143.08 83.44 143.12 83.91 143.15 C 84.19 143.46 84.74 144.10 85.02 144.42 C 83.93 144.91 82.81 145.35 81.68 145.74 C 80.13 145.65 81.51 143.64 82.03 143.06 Z" />
</g>
<g id="#9f6270ff">
<path fill="#9f6270" opacity="1.00" d=" M 115.80 143.74 C 117.29 143.45 120.29 142.87 121.79 142.58 C 124.40 142.50 126.58 144.15 126.09 146.94 C 123.45 148.25 120.79 149.51 118.31 151.10 C 117.47 150.04 116.61 149.00 115.79 147.93 C 116.83 146.60 118.04 145.41 119.09 144.09 C 118.27 144.00 116.62 143.82 115.80 143.74 Z" />
</g>
<g id="#2c93a7fd">
<path fill="#2c93a7" opacity="1.00" d=" M 125.84 150.97 C 132.58 149.25 138.43 145.10 144.98 143.03 C 151.88 139.32 149.43 143.75 149.14 146.14 C 148.45 146.79 147.75 147.43 147.04 148.06 C 145.10 150.00 142.01 151.34 141.01 153.99 C 141.63 155.88 142.79 157.55 144.27 158.87 C 147.25 159.15 150.28 157.98 153.26 158.54 C 150.00 161.23 145.14 161.05 141.22 161.71 C 138.45 161.25 135.64 160.98 133.06 159.81 C 132.03 154.90 140.09 153.96 139.03 148.92 C 132.61 150.46 126.59 153.30 120.29 155.26 L 120.01 154.15 C 121.94 153.06 123.90 152.03 125.84 150.97 Z" />
</g>
<g id="#bd7c87ff">
<path fill="#bd7c87" opacity="1.00" d=" M 60.28 148.03 C 59.83 146.56 58.45 144.91 59.99 143.59 C 60.43 143.76 61.32 144.09 61.77 144.26 C 63.98 145.44 66.20 146.62 68.40 147.83 C 67.54 148.85 66.68 149.89 65.71 150.82 C 63.35 151.78 61.91 149.23 60.28 148.03 Z" />
</g>
<g id="#a96679ff">
<path fill="#a96679" opacity="1.00" d=" M 108.05 144.06 C 110.63 143.92 113.21 143.81 115.80 143.74 C 116.62 143.82 118.27 144.00 119.09 144.09 C 118.04 145.41 116.83 146.60 115.79 147.93 C 114.93 149.09 114.39 150.45 113.71 151.72 C 112.80 151.21 111.95 150.62 111.05 150.11 C 110.23 151.69 109.66 153.37 108.95 155.00 C 107.53 155.14 106.12 155.36 104.73 155.71 C 100.85 156.30 96.95 156.77 93.03 157.03 C 87.27 156.99 81.50 157.05 75.74 157.32 C 69.95 156.21 63.97 155.24 58.78 152.29 C 58.26 151.28 57.70 150.30 57.23 149.28 C 58.25 148.87 59.27 148.46 60.28 148.03 C 61.91 149.23 63.35 151.78 65.71 150.82 C 66.68 149.89 67.54 148.85 68.40 147.83 C 70.60 148.15 72.75 148.71 74.90 149.26 C 76.92 150.51 80.80 151.73 81.89 148.90 C 90.76 148.73 99.20 144.95 108.05 144.06 Z" />
</g>
<g id="#367d91ff">
<path fill="#367d91" opacity="1.00" d=" M 203.06 143.76 C 205.60 144.38 206.36 147.33 208.69 148.32 C 211.83 149.92 213.34 153.36 215.77 155.79 C 210.95 157.70 205.91 159.01 200.79 159.82 C 199.57 159.92 198.35 160.01 197.13 160.11 C 198.93 154.60 201.17 149.24 203.06 143.76 Z" />
</g>
<g id="#75959fff">
<path fill="#75959f" opacity="1.00" d=" M 53.83 152.26 C 52.36 150.04 52.10 147.49 52.53 144.84 C 53.89 146.86 55.17 148.93 56.28 151.11 C 55.67 151.40 54.45 151.97 53.83 152.26 Z" />
</g>
<g id="#2e6b7dff">
<path fill="#2e6b7d" opacity="1.00" d=" M 218.94 151.06 C 219.07 149.13 219.27 146.10 221.68 145.80 C 221.20 147.29 221.20 148.48 223.17 148.26 C 222.90 148.72 222.35 149.64 222.07 150.10 C 221.04 150.47 220.00 150.79 218.94 151.06 Z" />
</g>
<g id="#4da4b9fe">
<path fill="#4da4b9" opacity="1.00" d=" M 176.70 159.69 C 180.29 155.43 183.00 150.39 187.61 147.04 C 188.23 148.65 188.98 150.21 189.63 151.81 C 188.59 153.24 186.70 154.16 186.19 155.89 C 186.39 157.52 184.99 160.45 186.82 161.23 C 187.81 161.62 188.81 162.00 189.81 162.38 C 189.34 167.55 188.91 172.75 187.98 177.87 C 186.06 178.74 184.00 179.22 181.89 178.90 C 187.77 175.64 184.37 163.23 177.36 165.42 C 172.34 167.92 166.20 167.88 161.89 171.73 C 159.11 173.16 158.66 176.04 158.96 178.90 L 158.23 178.71 C 157.16 178.42 156.08 178.16 155.00 177.96 C 154.00 175.21 153.34 172.35 152.26 169.63 C 151.83 167.44 154.07 165.63 155.21 163.93 C 156.18 166.22 158.04 166.83 160.82 165.74 C 166.11 163.74 171.51 161.95 176.70 159.69 Z" />
</g>
<g id="#7d919aff">
<path fill="#7d919a" opacity="1.00" d=" M 113.71 151.72 C 114.39 150.45 114.93 149.09 115.79 147.93 C 116.61 149.00 117.47 150.04 118.31 151.10 C 116.49 153.89 112.17 154.64 108.95 155.00 C 109.66 153.37 110.23 151.69 111.05 150.11 C 111.95 150.62 112.80 151.21 113.71 151.72 Z" />
</g>
<g id="#288697fd">
<path fill="#288697" opacity="1.00" d=" M 141.01 153.99 C 142.01 151.34 145.10 150.00 147.04 148.06 C 146.46 149.91 145.72 151.83 146.07 153.81 C 149.22 156.55 154.99 157.56 157.93 154.05 C 158.17 153.79 158.65 153.28 158.89 153.02 C 159.34 154.16 159.82 155.29 160.34 156.40 C 159.64 157.42 158.87 158.40 158.05 159.34 L 157.33 158.97 C 156.14 157.71 154.66 158.84 153.26 158.54 C 150.28 157.98 147.25 159.15 144.27 158.87 C 142.79 157.55 141.63 155.88 141.01 153.99 Z" />
</g>
<g id="#5c95aaff">
<path fill="#5c95aa" opacity="1.00" d=" M 74.90 149.26 C 76.65 149.17 80.14 148.99 81.89 148.90 C 80.80 151.73 76.92 150.51 74.90 149.26 Z" />
</g>
<g id="#31a6b6fb">
<path fill="#31a6b6" opacity="1.00" d=" M 120.29 155.26 C 126.59 153.30 132.61 150.46 139.03 148.92 C 140.09 153.96 132.03 154.90 133.06 159.81 C 135.64 160.98 138.45 161.25 141.22 161.71 C 132.02 163.96 122.28 162.93 113.07 164.84 C 107.74 163.78 102.50 162.19 97.06 161.76 L 96.67 160.83 C 101.55 160.14 106.48 159.56 111.27 158.32 C 114.34 157.52 117.34 156.43 120.29 155.26 Z" />
</g>
<g id="#3aa7b3fe">
<path fill="#3aa7b3" opacity="1.00" d=" M 56.28 151.11 C 57.11 151.50 57.95 151.89 58.78 152.29 C 63.97 155.24 69.95 156.21 75.74 157.32 C 76.74 157.63 77.75 157.93 78.76 158.21 C 80.69 158.86 82.82 159.22 84.24 160.83 C 82.61 161.06 79.35 161.52 77.72 161.75 C 75.72 162.03 73.80 161.14 71.81 161.05 C 68.81 160.53 65.94 159.40 62.92 158.98 C 59.96 156.74 55.32 155.86 53.83 152.26 C 54.45 151.97 55.67 151.40 56.28 151.11 Z" />
</g>
<g id="#2d899cff">
<path fill="#2d899c" opacity="1.00" d=" M 104.73 155.71 C 109.88 156.41 115.01 155.30 120.01 154.15 L 120.29 155.26 C 117.34 156.43 114.34 157.52 111.27 158.32 C 105.17 158.04 99.08 158.00 92.99 157.98 L 93.03 157.03 C 96.95 156.77 100.85 156.30 104.73 155.71 Z" />
</g>
<g id="#306774ff">
<path fill="#306774" opacity="1.00" d=" M 186.19 155.89 C 187.10 158.05 187.91 161.51 190.72 159.04 C 191.81 161.76 188.51 160.92 186.82 161.23 C 184.99 160.45 186.39 157.52 186.19 155.89 Z" />
</g>
<g id="#71727bff">
<path fill="#71727b" opacity="1.00" d=" M 75.74 157.32 C 81.50 157.05 87.27 156.99 93.03 157.03 L 92.99 157.98 C 88.24 158.02 83.50 158.01 78.76 158.21 C 77.75 157.93 76.74 157.63 75.74 157.32 Z" />
</g>
<g id="#2f9aadff">
<path fill="#2f9aad" opacity="1.00" d=" M 78.76 158.21 C 83.50 158.01 88.24 158.02 92.99 157.98 C 99.08 158.00 105.17 158.04 111.27 158.32 C 106.48 159.56 101.55 160.14 96.67 160.83 C 92.52 160.93 88.38 160.97 84.24 160.83 C 82.82 159.22 80.69 158.86 78.76 158.21 Z" />
</g>
<g id="#2e7384f7">
<path fill="#2e7384" opacity="0.97" d=" M 62.92 158.98 C 65.94 159.40 68.81 160.53 71.81 161.05 C 71.74 163.76 76.33 168.95 72.16 169.69 C 68.06 167.11 65.68 162.80 62.92 158.98 Z" />
</g>
<g id="#489ab0ff">
<path fill="#489ab0" opacity="1.00" d=" M 197.13 160.11 C 198.35 160.01 199.57 159.92 200.79 159.82 C 203.91 159.94 207.01 160.05 210.16 160.13 C 209.11 160.71 207.98 161.16 207.05 161.92 C 204.78 163.24 203.75 165.60 202.93 167.96 C 201.18 167.98 197.70 168.02 195.96 168.04 C 195.93 166.64 195.91 165.24 195.89 163.85 C 196.28 162.59 196.71 161.35 197.13 160.11 Z" />
</g>
<g id="#58a8bcff">
<path fill="#58a8bc" opacity="1.00" d=" M 210.16 160.13 C 210.57 160.05 211.39 159.87 211.80 159.79 C 214.97 160.70 221.36 157.72 221.33 162.64 C 218.02 161.20 216.45 165.28 216.94 167.96 L 216.02 167.97 C 216.02 166.65 215.98 165.34 215.91 164.03 C 214.63 163.95 213.36 163.95 212.10 164.03 C 212.01 165.35 211.97 166.66 211.97 167.98 L 211.05 168.00 C 211.81 164.81 209.85 162.91 207.05 161.92 C 207.98 161.16 209.11 160.71 210.16 160.13 Z" />
</g>
<g id="#3bb9cdfe">
<path fill="#3bb9cd" opacity="1.00" d=" M 77.72 161.75 C 79.35 161.52 82.61 161.06 84.24 160.83 C 88.38 160.97 92.52 160.93 96.67 160.83 L 97.06 161.76 C 96.55 161.82 95.51 161.93 95.00 161.99 C 89.98 161.99 84.98 162.06 79.97 161.95 C 79.40 161.90 78.28 161.80 77.72 161.75 Z" />
</g>
<g id="#0c292b76">
<path fill="#0c292b" opacity="0.46" d=" M 79.97 161.95 C 84.98 162.06 89.98 161.99 95.00 161.99 L 95.00 162.98 C 91.25 162.98 83.76 162.97 80.01 162.97 L 79.97 161.95 Z" />
</g>
<g id="#adc4cdfe">
<path fill="#adc4cd" opacity="1.00" d=" M 207.05 161.92 C 209.85 162.91 211.81 164.81 211.05 168.00 L 211.02 168.97 C 209.33 168.92 205.93 168.84 204.24 168.80 C 203.91 168.59 203.25 168.17 202.93 167.96 C 203.75 165.60 204.78 163.24 207.05 161.92 Z" />
</g>
<g id="#cbd4dcff">
<path fill="#cbd4dc" opacity="1.00" d=" M 216.94 167.96 C 216.45 165.28 218.02 161.20 221.33 162.64 C 221.57 163.22 222.04 164.37 222.28 164.95 C 221.24 165.71 219.84 166.43 219.99 167.96 C 219.23 167.96 217.70 167.96 216.94 167.96 Z" />
</g>
<g id="#85a4b2ff">
<path fill="#85a4b2" opacity="1.00" d=" M 193.01 166.10 C 193.97 165.35 194.93 164.61 195.89 163.85 C 195.91 165.24 195.93 166.64 195.96 168.04 C 195.37 168.09 194.20 168.20 193.61 168.25 C 193.46 167.71 193.16 166.64 193.01 166.10 Z" />
</g>
<g id="#4092a8ff">
<path fill="#4092a8" opacity="1.00" d=" M 212.10 164.03 C 213.36 163.95 214.63 163.95 215.91 164.03 C 215.98 165.34 216.02 166.65 216.02 167.97 C 214.67 167.99 213.32 167.99 211.97 167.98 C 211.97 166.66 212.01 165.35 212.10 164.03 Z" />
</g>
<g id="#cadfe8ff">
<path fill="#cadfe8" opacity="1.00" d=" M 31.67 168.21 C 32.14 164.63 37.18 163.96 37.51 168.07 C 36.05 168.11 33.13 168.18 31.67 168.21 Z" />
</g>
<g id="#b2c2cdff">
<path fill="#b2c2cd" opacity="1.00" d=" M 45.20 164.74 C 47.42 164.83 49.10 166.23 50.35 167.96 C 49.70 170.40 46.78 170.67 44.85 171.75 C 45.42 169.70 46.12 167.58 44.94 165.60 L 45.20 164.74 Z" />
</g>
<g id="#97abb4f9">
<path fill="#97abb4" opacity="0.98" d=" M 60.30 164.84 C 62.65 166.50 63.22 169.23 63.86 171.85 C 62.12 174.22 59.14 171.94 56.88 171.80 C 56.54 168.87 58.41 166.79 60.30 164.84 Z" />
</g>
<g id="#57b0c4ff">
<path fill="#57b0c4" opacity="1.00" d=" M 177.36 165.42 C 184.37 163.23 187.77 175.64 181.89 178.90 L 181.09 179.03 C 180.76 177.67 181.48 175.75 180.23 174.80 C 177.22 170.89 172.71 175.22 172.79 178.95 C 171.23 178.93 169.66 178.91 168.10 178.87 C 167.35 175.64 166.06 171.35 161.89 171.73 C 166.20 167.88 172.34 167.92 177.36 165.42 Z" />
</g>
<g id="#abc3cbfa">
<path fill="#abc3cb" opacity="0.98" d=" M 222.28 164.95 L 222.97 165.25 C 223.05 165.74 223.21 166.71 223.28 167.19 C 222.31 167.92 221.22 168.17 219.99 167.96 C 219.84 166.43 221.24 165.71 222.28 164.95 Z" />
</g>
<g id="#c7dfdeff">
<path fill="#c7dfde" opacity="1.00" d=" M 41.74 170.97 C 42.44 168.99 43.38 167.06 44.94 165.60 C 46.12 167.58 45.42 169.70 44.85 171.75 C 44.41 171.87 43.54 172.12 43.10 172.25 L 42.06 171.96 L 41.74 170.97 Z" />
</g>
<g id="#11191b5e">
<path fill="#11191b" opacity="0.37" d=" M 223.28 167.19 L 224.04 166.88 C 224.02 167.40 223.99 168.44 223.97 168.95 C 219.64 168.99 215.33 169.15 211.02 168.97 L 211.05 168.00 L 211.97 167.98 C 213.32 167.99 214.67 167.99 216.02 167.97 L 216.94 167.96 C 217.70 167.96 219.23 167.96 219.99 167.96 C 221.22 168.17 222.31 167.92 223.28 167.19 Z" />
</g>
<g id="#b2c4ccfa">
<path fill="#b2c4cc" opacity="0.98" d=" M 30.97 168.14 L 31.67 168.21 C 33.13 168.18 36.05 168.11 37.51 168.07 C 38.04 169.03 38.55 169.99 39.09 170.96 C 36.08 170.97 33.09 170.99 30.09 171.03 C 30.37 170.06 30.66 169.10 30.97 168.14 Z" />
</g>
<g id="#7d9aa4f1">
<path fill="#7d9aa4" opacity="0.95" d=" M 50.35 167.96 C 50.59 168.27 51.09 168.89 51.33 169.19 C 51.22 169.86 50.99 171.18 50.88 171.84 C 48.67 172.73 43.28 174.57 43.10 172.25 C 43.54 172.12 44.41 171.87 44.85 171.75 C 46.78 170.67 49.70 170.40 50.35 167.96 Z" />
</g>
<g id="#0b161960">
<path fill="#0b1619" opacity="0.38" d=" M 193.61 168.25 C 194.20 168.20 195.37 168.09 195.96 168.04 C 197.70 168.02 201.18 167.98 202.93 167.96 C 203.25 168.17 203.91 168.59 204.24 168.80 C 200.76 168.96 197.32 169.06 193.85 169.09 L 193.61 168.25 Z" />
</g>
<g id="#97b2bbfb">
<path fill="#97b2bb" opacity="1.00" d=" M 146.65 177.34 C 148.13 174.52 150.10 171.93 152.26 169.63 C 153.34 172.35 154.00 175.21 155.00 177.96 C 152.19 177.84 149.29 178.43 146.65 177.34 Z" />
</g>
<g id="#222c2e7f">
<path fill="#222c2e" opacity="0.50" d=" M 30.09 171.03 C 33.09 170.99 36.08 170.97 39.09 170.96 C 39.75 170.96 41.07 170.97 41.74 170.97 L 42.06 171.96 C 39.29 170.67 30.86 174.31 30.09 171.03 Z" />
</g>
<g id="#b0c2ccfe">
<path fill="#b0c2cc" opacity="1.00" d=" M 158.96 178.90 C 158.66 176.04 159.11 173.16 161.89 171.73 C 166.06 171.35 167.35 175.64 168.10 178.87 C 166.62 179.04 165.14 179.28 163.70 179.65 C 162.33 179.69 158.71 181.13 158.96 178.90 Z" />
</g>
<g id="#c2d3dafe">
<path fill="#c2d3da" opacity="1.00" d=" M 172.79 178.95 C 172.71 175.22 177.22 170.89 180.23 174.80 C 179.73 176.50 179.21 178.19 178.81 179.93 C 177.29 180.04 175.74 180.16 174.24 179.81 C 173.88 179.60 173.16 179.16 172.79 178.95 Z" />
</g>
<g id="#89b6befb">
<path fill="#89b6be" opacity="1.00" d=" M 180.23 174.80 C 181.48 175.75 180.76 177.67 181.09 179.03 L 181.05 180.04 C 180.49 180.01 179.37 179.95 178.81 179.93 C 179.21 178.19 179.73 176.50 180.23 174.80 Z" />
</g>
<g id="#0c13134f">
<path fill="#0c1313" opacity="0.31" d=" M 145.91 177.09 L 146.65 177.34 C 149.29 178.43 152.19 177.84 155.00 177.96 C 156.08 178.16 157.16 178.42 158.23 178.71 C 155.30 177.24 145.77 182.30 145.91 177.09 Z" />
</g>
<g id="#2b353a8c">
<path fill="#2b353a" opacity="0.55" d=" M 163.70 179.65 C 165.14 179.28 166.62 179.04 168.10 178.87 C 169.66 178.91 171.23 178.93 172.79 178.95 C 173.16 179.16 173.88 179.60 174.24 179.81 C 170.72 179.98 167.18 180.28 163.70 179.65 Z" />
</g>
</svg>
