<?xml version="1.0" encoding="UTF-8" ?>
<!DOCTYPE svg PUBLIC "-//W3C//DTD SVG 1.1//EN" "http://www.w3.org/Graphics/SVG/1.1/DTD/svg11.dtd">
<svg width="95pt" height="130pt" viewBox="0 0 95 130" version="1.1" xmlns="http://www.w3.org/2000/svg">
<g id="#f4a463fe">
<path fill="#f4a463" opacity="1.00" d=" M 37.25 3.10 C 46.94 0.44 60.01 3.81 63.28 14.24 C 62.52 17.20 60.44 19.31 58.13 21.18 C 57.45 18.73 55.52 17.32 53.09 16.83 C 53.33 17.27 53.80 18.15 54.03 18.60 C 52.84 19.26 51.78 20.10 50.78 21.02 C 50.10 21.75 49.75 22.67 49.73 23.76 C 49.28 26.40 49.09 29.09 48.79 31.76 C 46.39 36.00 43.42 39.93 38.82 41.88 C 35.83 42.02 32.84 42.06 29.85 42.15 C 29.35 41.76 28.35 41.00 27.85 40.62 C 26.47 39.49 24.72 39.08 23.00 38.78 C 23.03 36.18 23.09 33.55 24.10 31.12 C 28.55 33.48 27.41 24.74 28.02 21.88 C 28.10 20.12 27.89 18.36 27.37 16.68 L 27.24 16.12 C 29.11 10.98 32.97 7.53 37.43 4.71 C 37.40 4.46 37.35 3.95 37.32 3.69 L 37.25 3.10 Z" />
</g>
<g id="#ebcc71f4">
<path fill="#ebcc71" opacity="0.96" d=" M 27.24 16.12 C 27.00 10.53 31.84 4.91 37.32 3.69 C 37.35 3.95 37.40 4.46 37.43 4.71 C 32.97 7.53 29.11 10.98 27.24 16.12 Z" />
</g>
<g id="#c37649fc">
<path fill="#c37649" opacity="1.00" d=" M 63.28 14.24 L 63.90 13.90 C 64.31 17.95 65.09 21.98 65.12 26.06 C 65.79 29.28 62.62 29.46 60.29 29.92 C 59.96 28.54 59.68 27.15 59.32 25.78 C 58.95 24.24 58.51 22.72 58.13 21.18 C 60.44 19.31 62.52 17.20 63.28 14.24 Z" />
</g>
<g id="#bcb6b5f6">
<path fill="#bcb6b5" opacity="0.96" d=" M 25.97 22.09 C 26.33 20.43 24.97 16.90 27.37 16.68 C 27.89 18.36 28.10 20.12 28.02 21.88 C 26.97 23.22 25.62 25.17 25.97 22.09 Z" />
</g>
<g id="#1e2d37ff">
<path fill="#1e2d37" opacity="1.00" d=" M 53.09 16.83 C 55.52 17.32 57.45 18.73 58.13 21.18 C 58.51 22.72 58.95 24.24 59.32 25.78 C 59.05 27.38 58.53 30.59 58.26 32.20 C 58.19 30.64 58.04 27.51 57.97 25.94 C 54.48 25.01 56.94 33.07 53.25 30.03 L 53.04 29.10 C 53.09 28.39 53.19 26.97 53.24 26.26 C 55.67 24.08 56.80 21.05 54.03 18.60 C 53.80 18.15 53.33 17.27 53.09 16.83 Z" />
</g>
<g id="#dce0e5ff">
<path fill="#dce0e5" opacity="1.00" d=" M 50.78 21.02 C 51.78 20.10 52.84 19.26 54.03 18.60 C 56.80 21.05 55.67 24.08 53.24 26.26 C 52.97 25.94 52.43 25.31 52.16 24.99 C 51.54 23.73 51.10 22.39 50.78 21.02 Z" />
</g>
<g id="#f14b00f7">
<path fill="#f14b00" opacity="0.97" d=" M 75.21 30.86 C 71.98 26.46 76.06 22.28 78.80 18.99 C 80.03 22.23 81.03 25.56 81.73 28.96 C 80.74 32.36 77.95 31.87 75.21 30.86 Z" />
</g>
<g id="#1b2d31ff">
<path fill="#1b2d31" opacity="1.00" d=" M 49.73 23.76 C 49.75 22.67 50.10 21.75 50.78 21.02 C 51.10 22.39 51.54 23.73 52.16 24.99 C 51.50 25.74 50.83 26.47 50.14 27.19 C 50.04 26.33 49.83 24.62 49.73 23.76 Z" />
</g>
<g id="#335961ef">
<path fill="#335961" opacity="0.94" d=" M 24.10 31.12 C 24.83 28.23 23.60 23.01 25.97 22.09 C 25.62 25.17 26.97 23.22 28.02 21.88 C 27.41 24.74 28.55 33.48 24.10 31.12 Z" />
</g>
<g id="#7d522fff">
<path fill="#7d522f" opacity="1.00" d=" M 48.79 31.76 C 49.09 29.09 49.28 26.40 49.73 23.76 C 49.83 24.62 50.04 26.33 50.14 27.19 C 50.00 28.86 49.85 30.52 49.67 32.18 L 48.79 31.76 Z" />
</g>
<g id="#17546cff">
<path fill="#17546c" opacity="1.00" d=" M 52.16 24.99 C 52.43 25.31 52.97 25.94 53.24 26.26 C 53.19 26.97 53.09 28.39 53.04 29.10 C 50.79 26.62 50.43 30.39 51.06 32.05 L 51.14 32.89 C 50.78 32.71 50.04 32.36 49.67 32.18 C 49.85 30.52 50.00 28.86 50.14 27.19 C 50.83 26.47 51.50 25.74 52.16 24.99 Z" />
</g>
<g id="#034156ff">
<path fill="#034156" opacity="1.00" d=" M 53.25 30.03 C 56.94 33.07 54.48 25.01 57.97 25.94 C 58.04 27.51 58.19 30.64 58.26 32.20 L 57.86 33.00 C 56.36 33.05 53.36 33.16 51.86 33.21 L 51.14 32.89 L 51.06 32.05 C 52.34 32.02 53.07 31.35 53.25 30.03 Z" />
</g>
<g id="#984f31fc">
<path fill="#984f31" opacity="1.00" d=" M 59.32 25.78 C 59.68 27.15 59.96 28.54 60.29 29.92 C 62.62 29.46 65.79 29.28 65.12 26.06 L 66.02 25.96 C 64.94 30.80 68.26 38.67 63.83 42.15 C 62.38 40.93 60.95 39.68 59.56 38.39 C 56.49 40.58 53.50 43.12 49.51 43.31 C 48.91 42.13 48.07 41.12 47.08 40.25 C 50.28 39.49 53.85 37.76 54.83 34.34 C 53.84 33.98 52.85 33.60 51.86 33.21 C 53.36 33.16 56.36 33.05 57.86 33.00 L 58.26 32.20 C 58.53 30.59 59.05 27.38 59.32 25.78 Z" />
</g>
<g id="#0c739aff">
<path fill="#0c739a" opacity="1.00" d=" M 51.06 32.05 C 50.43 30.39 50.79 26.62 53.04 29.10 L 53.25 30.03 C 53.07 31.35 52.34 32.02 51.06 32.05 Z" />
</g>
<g id="#f07b00f7">
<path fill="#f07b00" opacity="0.97" d=" M 75.21 30.86 C 77.95 31.87 80.74 32.36 81.73 28.96 C 83.14 30.48 84.53 32.20 84.77 34.34 C 83.54 33.89 82.48 32.88 81.19 32.68 C 78.69 34.04 76.04 35.92 73.04 35.29 C 73.89 33.94 73.30 31.06 75.21 30.86 Z" />
</g>
<g id="#c97a49ff">
<path fill="#c97a49" opacity="1.00" d=" M 38.82 41.88 C 43.42 39.93 46.39 36.00 48.79 31.76 L 49.67 32.18 C 50.04 32.36 50.78 32.71 51.14 32.89 L 51.86 33.21 C 52.85 33.60 53.84 33.98 54.83 34.34 C 53.85 37.76 50.28 39.49 47.08 40.25 C 45.64 40.66 44.23 41.14 42.83 41.63 C 41.49 41.76 40.16 41.84 38.82 41.88 Z" />
</g>
<g id="#f7bd00fb">
<path fill="#f7bd00" opacity="1.00" d=" M 81.19 32.68 C 82.48 32.88 83.54 33.89 84.77 34.34 C 86.79 38.20 86.85 45.56 82.98 48.09 C 81.38 48.04 79.78 48.03 78.20 47.81 C 76.05 44.81 77.98 41.35 78.03 38.07 C 76.09 38.18 74.15 38.43 72.21 38.57 C 73.42 42.28 71.33 44.96 68.33 46.29 C 65.57 42.40 69.44 36.72 73.04 35.29 C 76.04 35.92 78.69 34.04 81.19 32.68 Z" />
</g>
<g id="#833a23fe">
<path fill="#833a23" opacity="1.00" d=" M 49.51 43.31 C 53.50 43.12 56.49 40.58 59.56 38.39 C 60.95 39.68 62.38 40.93 63.83 42.15 C 63.46 43.43 63.05 44.70 62.63 45.96 C 56.66 51.14 48.48 51.64 40.95 52.06 C 38.89 49.39 43.21 49.88 44.70 48.69 C 46.80 47.95 45.21 45.68 45.23 44.14 C 45.66 43.46 46.11 42.80 46.57 42.15 C 46.84 43.89 48.15 43.83 49.51 43.31 Z" />
</g>
<g id="#fae502fd">
<path fill="#fae502" opacity="1.00" d=" M 72.21 38.57 C 74.15 38.43 76.09 38.18 78.03 38.07 C 77.98 41.35 76.05 44.81 78.20 47.81 C 79.78 48.03 81.38 48.04 82.98 48.09 C 82.36 51.51 81.62 55.82 77.86 56.99 C 77.12 57.03 75.63 57.12 74.89 57.17 C 72.90 55.45 71.26 53.38 69.28 51.65 C 69.01 50.75 68.73 49.85 68.44 48.96 C 68.41 48.29 68.36 46.96 68.33 46.29 C 71.33 44.96 73.42 42.28 72.21 38.57 Z" />
</g>
<g id="#c16f43fc">
<path fill="#c16f43" opacity="1.00" d=" M 23.00 38.78 C 24.72 39.08 26.47 39.49 27.85 40.62 C 25.42 43.87 30.74 44.82 33.05 45.05 L 33.86 45.19 C 35.46 46.28 37.69 46.89 38.23 48.98 C 37.62 49.00 36.41 49.05 35.81 49.07 C 34.50 49.04 33.19 49.02 31.88 48.99 C 31.30 48.41 30.71 47.84 30.10 47.29 C 27.38 44.79 24.04 42.53 23.00 38.78 Z" />
</g>
<g id="#b15952ff">
<path fill="#b15952" opacity="1.00" d=" M 42.83 41.63 C 44.23 41.14 45.64 40.66 47.08 40.25 C 48.07 41.12 48.91 42.13 49.51 43.31 C 48.15 43.83 46.84 43.89 46.57 42.15 C 46.11 42.80 45.66 43.46 45.23 44.14 C 45.12 42.65 44.31 41.81 42.83 41.63 Z" />
</g>
<g id="#994d47ff">
<path fill="#994d47" opacity="1.00" d=" M 33.05 45.05 C 30.74 44.82 25.42 43.87 27.85 40.62 C 28.35 41.00 29.35 41.76 29.85 42.15 C 30.89 43.14 31.97 44.10 33.05 45.05 Z" />
</g>
<g id="#e16f78ff">
<path fill="#e16f78" opacity="1.00" d=" M 29.85 42.15 C 32.84 42.06 35.83 42.02 38.82 41.88 C 40.16 41.84 41.49 41.76 42.83 41.63 C 44.31 41.81 45.12 42.65 45.23 44.14 C 43.87 44.51 42.50 44.86 41.12 45.13 C 39.30 45.14 35.67 45.18 33.86 45.19 L 33.05 45.05 C 31.97 44.10 30.89 43.14 29.85 42.15 Z" />
</g>
<g id="#9b4e2eff">
<path fill="#9b4e2e" opacity="1.00" d=" M 41.12 45.13 C 42.50 44.86 43.87 44.51 45.23 44.14 C 45.21 45.68 46.80 47.95 44.70 48.69 C 43.21 49.88 38.89 49.39 40.95 52.06 C 39.10 51.39 36.11 51.57 35.81 49.07 C 36.41 49.05 37.62 49.00 38.23 48.98 C 41.21 49.82 41.19 47.40 41.12 45.13 Z" />
</g>
<g id="#af603dff">
<path fill="#af603d" opacity="1.00" d=" M 33.86 45.19 C 35.67 45.18 39.30 45.14 41.12 45.13 C 41.19 47.40 41.21 49.82 38.23 48.98 C 37.69 46.89 35.46 46.28 33.86 45.19 Z" />
</g>
<g id="#b56139fc">
<path fill="#b56139" opacity="1.00" d=" M 40.95 52.06 C 48.48 51.64 56.66 51.14 62.63 45.96 C 63.52 47.84 66.46 51.20 68.44 48.96 C 68.73 49.85 69.01 50.75 69.28 51.65 C 65.58 53.07 61.64 54.08 57.63 53.41 C 54.22 51.98 51.18 53.44 48.87 55.69 C 47.58 55.17 46.31 54.63 45.03 54.12 C 43.27 54.13 39.75 54.17 37.99 54.19 L 37.39 53.81 C 35.84 51.69 32.00 52.80 31.62 49.84 L 31.88 48.99 C 33.19 49.02 34.50 49.04 35.81 49.07 C 36.11 51.57 39.10 51.39 40.95 52.06 Z" />
</g>
<g id="#e6854cfb">
<path fill="#e6854c" opacity="1.00" d=" M 30.10 47.29 C 30.71 47.84 31.30 48.41 31.88 48.99 L 31.62 49.84 C 30.84 52.85 29.26 56.68 31.41 59.46 C 30.62 61.41 29.34 63.14 28.72 65.17 C 28.19 60.37 27.09 55.68 25.93 51.02 C 27.06 49.56 28.93 48.78 30.10 47.29 Z" />
</g>
<g id="#c16f43ff">
<path fill="#c16f43" opacity="1.00" d=" M 31.41 59.46 C 29.26 56.68 30.84 52.85 31.62 49.84 C 32.00 52.80 35.84 51.69 37.39 53.81 C 35.67 55.29 32.99 56.46 33.03 59.10 L 32.86 59.96 C 31.87 62.26 30.77 64.52 29.87 66.86 L 29.04 67.08 C 28.96 66.60 28.80 65.65 28.72 65.17 C 29.34 63.14 30.62 61.41 31.41 59.46 Z" />
</g>
<g id="#d27d4bfc">
<path fill="#d27d4b" opacity="1.00" d=" M 20.76 56.17 C 22.10 54.16 23.85 52.27 25.93 51.02 C 27.09 55.68 28.19 60.37 28.72 65.17 C 28.80 65.65 28.96 66.60 29.04 67.08 C 26.26 67.37 23.51 68.68 22.02 71.14 C 19.42 72.77 16.51 74.23 14.99 77.06 C 14.50 79.01 11.00 81.23 11.41 78.08 C 13.15 75.61 15.06 73.20 17.89 71.85 C 22.92 69.46 25.28 63.73 24.77 58.41 C 23.45 57.63 22.09 56.93 20.76 56.17 Z" />
</g>
<g id="#cf7b4bff">
<path fill="#cf7b4b" opacity="1.00" d=" M 57.63 53.41 C 61.64 54.08 65.58 53.07 69.28 51.65 C 71.26 53.38 72.90 55.45 74.89 57.17 C 75.16 57.64 75.71 58.57 75.98 59.04 C 72.64 58.10 69.40 56.82 66.01 56.05 C 64.34 56.44 63.38 58.17 62.21 59.31 C 61.23 64.55 65.30 68.43 67.17 72.90 C 66.09 72.26 65.02 71.59 63.91 71.00 C 64.19 76.35 66.83 81.48 65.07 86.89 C 67.90 85.61 70.78 84.44 73.51 82.94 C 73.59 83.39 73.75 84.28 73.83 84.73 C 69.24 86.08 65.20 88.61 62.05 92.25 C 60.26 81.78 61.57 68.81 53.20 60.75 C 52.33 58.63 50.67 57.03 48.87 55.69 C 51.18 53.44 54.22 51.98 57.63 53.41 Z" />
</g>
<g id="#96562eff">
<path fill="#96562e" opacity="1.00" d=" M 37.39 53.81 L 37.99 54.19 C 39.91 55.67 43.57 56.48 45.03 54.12 C 46.31 54.63 47.58 55.17 48.87 55.69 C 50.67 57.03 52.33 58.63 53.20 60.75 L 52.25 60.81 C 51.25 59.80 50.28 58.75 49.17 57.87 C 45.64 54.93 39.38 55.04 35.61 56.95 C 34.73 57.64 33.88 58.38 33.03 59.10 C 32.99 56.46 35.67 55.29 37.39 53.81 Z" />
</g>
<g id="#763719ff">
<path fill="#763719" opacity="1.00" d=" M 37.99 54.19 C 39.75 54.17 43.27 54.13 45.03 54.12 C 43.57 56.48 39.91 55.67 37.99 54.19 Z" />
</g>
<g id="#e89157fc">
<path fill="#e89157" opacity="1.00" d=" M 18.22 58.22 C 19.09 57.59 19.61 56.29 20.76 56.17 C 22.09 56.93 23.45 57.63 24.77 58.41 C 25.28 63.73 22.92 69.46 17.89 71.85 C 15.06 73.20 13.15 75.61 11.41 78.08 C 9.46 74.37 4.77 76.45 1.88 77.95 C 4.92 69.88 12.77 64.66 18.22 58.22 Z" />
</g>
<g id="#ce9860ff">
<path fill="#ce9860" opacity="1.00" d=" M 35.61 56.95 C 39.38 55.04 45.64 54.93 49.17 57.87 C 44.83 58.40 38.63 61.19 35.61 56.95 Z" />
</g>
<g id="#de8651fe">
<path fill="#de8651" opacity="1.00" d=" M 62.21 59.31 C 63.38 58.17 64.34 56.44 66.01 56.05 C 69.40 56.82 72.64 58.10 75.98 59.04 C 75.71 58.57 75.16 57.64 74.89 57.17 C 75.63 57.12 77.12 57.03 77.86 56.99 C 77.93 59.48 78.31 61.92 79.24 64.24 C 75.32 63.56 69.90 57.47 66.10 61.27 C 63.48 67.75 69.86 71.36 71.85 76.28 C 70.13 75.39 68.63 74.16 67.17 72.90 C 65.30 68.43 61.23 64.55 62.21 59.31 Z" />
</g>
<g id="#d8a86aff">
<path fill="#d8a86a" opacity="1.00" d=" M 33.03 59.10 C 33.88 58.38 34.73 57.64 35.61 56.95 C 38.63 61.19 44.83 58.40 49.17 57.87 C 50.28 58.75 51.25 59.80 52.25 60.81 C 45.86 61.75 38.63 63.81 32.86 59.96 L 33.03 59.10 Z" />
</g>
<g id="#e2ba76ff">
<path fill="#e2ba76" opacity="1.00" d=" M 32.86 59.96 C 38.63 63.81 45.86 61.75 52.25 60.81 L 53.20 60.75 C 53.89 64.03 55.98 66.80 57.07 69.96 C 48.85 65.37 38.93 64.85 29.87 66.86 C 30.77 64.52 31.87 62.26 32.86 59.96 Z" />
</g>
<g id="#e69158fe">
<path fill="#e69158" opacity="1.00" d=" M 66.10 61.27 C 69.90 57.47 75.32 63.56 79.24 64.24 C 82.62 66.77 83.94 71.35 85.96 74.97 C 86.00 76.28 86.03 77.58 86.06 78.89 C 83.76 78.66 81.46 78.33 79.24 79.17 C 78.95 81.06 78.81 83.03 77.73 84.68 C 72.85 88.45 76.44 95.98 72.42 100.39 C 70.39 102.56 68.84 106.93 65.19 105.94 C 62.86 102.75 62.24 98.72 60.80 95.11 C 61.24 94.17 61.65 93.21 62.05 92.25 C 65.20 88.61 69.24 86.08 73.83 84.73 C 73.75 84.28 73.59 83.39 73.51 82.94 C 73.02 80.71 72.43 78.49 71.85 76.28 C 69.86 71.36 63.48 67.75 66.10 61.27 Z" />
</g>
<g id="#996033ff">
<path fill="#996033" opacity="1.00" d=" M 53.20 60.75 C 61.57 68.81 60.26 81.78 62.05 92.25 C 61.65 93.21 61.24 94.17 60.80 95.11 L 59.94 94.69 C 60.00 93.12 60.04 91.54 60.04 89.97 C 60.05 86.55 60.28 83.08 59.40 79.74 C 58.82 76.44 58.32 73.08 57.07 69.96 C 55.98 66.80 53.89 64.03 53.20 60.75 Z" />
</g>
<g id="#eccd83ff">
<path fill="#eccd83" opacity="1.00" d=" M 29.87 66.86 C 38.93 64.85 48.85 65.37 57.07 69.96 C 58.32 73.08 58.82 76.44 59.40 79.74 C 59.24 82.76 59.06 85.80 58.95 88.83 C 53.60 91.66 51.88 99.65 44.79 99.85 C 49.92 95.59 55.56 90.92 56.97 84.06 C 53.31 75.80 42.94 71.12 34.17 72.08 C 32.12 74.65 30.72 77.74 28.36 80.05 C 27.95 78.95 27.55 77.86 27.14 76.76 L 27.08 75.88 C 27.14 75.48 27.25 74.68 27.31 74.29 C 28.02 71.92 28.65 69.52 29.04 67.08 L 29.87 66.86 Z" />
</g>
<g id="#b97343fd">
<path fill="#b97343" opacity="1.00" d=" M 22.02 71.14 C 23.51 68.68 26.26 67.37 29.04 67.08 C 28.65 69.52 28.02 71.92 27.31 74.29 C 27.24 73.68 27.11 72.46 27.05 71.85 C 28.07 67.39 24.27 70.49 22.02 71.14 Z" />
</g>
<g id="#964e2df6">
<path fill="#964e2d" opacity="0.96" d=" M 22.02 71.14 C 24.27 70.49 28.07 67.39 27.05 71.85 C 22.88 73.23 19.22 75.90 14.99 77.06 C 16.51 74.23 19.42 72.77 22.02 71.14 Z" />
</g>
<g id="#bb6d42ff">
<path fill="#bb6d42" opacity="1.00" d=" M 63.91 71.00 C 65.02 71.59 66.09 72.26 67.17 72.90 C 68.63 74.16 70.13 75.39 71.85 76.28 C 72.43 78.49 73.02 80.71 73.51 82.94 C 70.78 84.44 67.90 85.61 65.07 86.89 C 66.83 81.48 64.19 76.35 63.91 71.00 Z" />
</g>
<g id="#f7dd8eff">
<path fill="#f7dd8e" opacity="1.00" d=" M 34.17 72.08 C 42.94 71.12 53.31 75.80 56.97 84.06 C 55.56 90.92 49.92 95.59 44.79 99.85 C 36.04 103.55 29.03 93.37 27.09 85.91 C 27.06 82.85 27.09 79.81 27.14 76.76 C 27.55 77.86 27.95 78.95 28.36 80.05 C 30.72 77.74 32.12 74.65 34.17 72.08 Z" />
</g>
<g id="#8c4a2fe7">
<path fill="#8c4a2f" opacity="0.91" d=" M 85.96 74.97 C 88.02 75.59 88.72 78.14 89.06 80.04 C 87.87 80.10 86.87 79.72 86.06 78.89 C 86.03 77.58 86.00 76.28 85.96 74.97 Z" />
</g>
<g id="#775e37a5">
<path fill="#775e37" opacity="0.65" d=" M 25.03 85.42 C 27.15 83.13 24.46 77.27 27.08 75.88 L 27.14 76.76 C 27.09 79.81 27.06 82.85 27.09 85.91 C 26.58 85.79 25.55 85.54 25.03 85.42 Z" />
</g>
<g id="#b0914dff">
<path fill="#b0914d" opacity="1.00" d=" M 59.40 79.74 C 60.28 83.08 60.05 86.55 60.04 89.97 L 59.07 89.97 L 58.95 88.83 C 59.06 85.80 59.24 82.76 59.40 79.74 Z" />
</g>
<g id="#de9056f9">
<path fill="#de9056" opacity="0.98" d=" M 23.30 106.29 C 17.40 101.18 19.73 89.27 25.03 85.42 C 25.55 85.54 26.58 85.79 27.09 85.91 C 27.23 88.85 27.28 91.82 27.73 94.74 C 25.75 98.38 24.78 102.44 23.30 106.29 Z" />
</g>
<g id="#cb7b4afe">
<path fill="#cb7b4a" opacity="1.00" d=" M 72.42 100.39 C 76.44 95.98 72.85 88.45 77.73 84.68 C 78.09 89.40 76.89 94.08 76.84 98.81 C 73.04 103.41 69.43 108.74 63.21 109.91 C 62.94 109.43 62.40 108.48 62.13 108.00 C 62.34 105.53 61.86 103.25 59.09 102.76 C 59.06 100.48 59.63 98.24 59.61 95.95 C 59.69 95.63 59.86 95.00 59.94 94.69 L 60.80 95.11 C 62.24 98.72 62.86 102.75 65.19 105.94 C 68.84 106.93 70.39 102.56 72.42 100.39 Z" />
</g>
<g id="#e0c37fff">
<path fill="#e0c37f" opacity="1.00" d=" M 27.09 85.91 C 29.03 93.37 36.04 103.55 44.79 99.85 C 51.88 99.65 53.60 91.66 58.95 88.83 L 59.07 89.97 C 55.25 100.14 42.96 107.56 32.72 102.04 C 32.06 101.31 31.44 100.57 30.84 99.80 C 29.95 98.03 28.86 96.37 27.73 94.74 C 27.28 91.82 27.23 88.85 27.09 85.91 Z" />
</g>
<g id="#caa56aff">
<path fill="#caa56a" opacity="1.00" d=" M 59.07 89.97 L 60.04 89.97 C 60.04 91.54 60.00 93.12 59.94 94.69 C 59.86 95.00 59.69 95.63 59.61 95.95 C 59.24 96.48 58.50 97.54 58.13 98.07 C 52.74 101.58 47.87 106.53 41.13 107.11 L 40.24 106.77 C 38.53 106.04 36.80 105.36 35.08 104.65 C 34.45 103.96 33.81 103.28 33.18 102.60 L 32.72 102.04 C 42.96 107.56 55.25 100.14 59.07 89.97 Z" />
</g>
<g id="#cd7a4aff">
<path fill="#cd7a4a" opacity="1.00" d=" M 23.30 106.29 C 24.78 102.44 25.75 98.38 27.73 94.74 C 28.86 96.37 29.95 98.03 30.84 99.80 C 27.68 102.15 27.36 106.85 24.09 108.97 C 23.78 108.09 23.52 107.19 23.30 106.29 Z" />
</g>
<g id="#7b462bfc">
<path fill="#7b462b" opacity="1.00" d=" M 59.61 95.95 C 59.63 98.24 59.06 100.48 59.09 102.76 C 59.16 104.67 60.48 106.17 61.19 107.86 C 60.85 109.07 59.78 109.46 57.98 109.03 C 57.26 109.01 55.82 108.97 55.10 108.95 C 54.40 108.40 53.73 107.82 53.08 107.21 C 54.88 105.72 57.37 104.65 57.02 101.87 C 57.35 100.60 57.74 99.33 58.13 98.07 C 58.50 97.54 59.24 96.48 59.61 95.95 Z" />
</g>
<g id="#b08756fc">
<path fill="#b08756" opacity="1.00" d=" M 41.13 107.11 C 47.87 106.53 52.74 101.58 58.13 98.07 C 57.74 99.33 57.35 100.60 57.02 101.87 C 53.15 104.14 49.71 107.33 45.16 108.17 C 44.08 107.68 40.53 109.00 41.13 107.11 Z" />
</g>
<g id="#b4643efa">
<path fill="#b4643e" opacity="0.98" d=" M 63.21 109.91 C 69.43 108.74 73.04 103.41 76.84 98.81 C 77.08 100.87 76.31 102.83 75.80 104.79 C 73.60 106.49 70.20 107.80 69.90 110.92 C 71.91 110.93 73.91 110.62 75.92 110.77 C 76.89 112.00 77.19 113.55 77.12 115.09 C 76.78 116.06 76.44 117.02 76.08 117.99 C 73.71 116.03 73.52 119.20 72.82 120.89 C 72.42 120.91 71.61 120.95 71.20 120.97 C 71.04 119.39 70.80 117.77 69.27 116.95 C 68.76 118.26 68.28 119.58 67.82 120.91 C 67.38 120.94 66.50 121.01 66.07 121.04 C 66.03 119.66 65.97 118.28 65.89 116.90 C 64.77 117.78 63.72 118.76 62.67 119.74 L 62.04 120.23 C 60.01 116.35 65.20 113.45 63.21 109.91 Z" />
</g>
<g id="#b3603cfb">
<path fill="#b3603c" opacity="1.00" d=" M 24.09 108.97 C 27.36 106.85 27.68 102.15 30.84 99.80 C 31.44 100.57 32.06 101.31 32.72 102.04 L 33.18 102.60 C 30.22 102.92 23.59 111.35 29.74 109.94 C 31.20 109.99 32.68 110.03 34.15 110.07 C 34.36 113.21 31.32 114.57 29.69 116.75 C 28.49 118.80 25.76 117.75 23.83 117.96 C 25.94 117.30 26.88 114.53 24.15 114.04 C 23.23 115.18 22.43 116.43 21.71 117.71 L 20.99 118.02 L 20.97 116.94 C 21.62 114.24 20.33 113.77 18.06 114.67 C 18.03 114.02 17.96 112.73 17.93 112.08 C 19.93 110.93 22.06 110.05 24.09 108.97 Z" />
</g>
<g id="#966642fb">
<path fill="#966642" opacity="1.00" d=" M 45.16 108.17 C 49.71 107.33 53.15 104.14 57.02 101.87 C 57.37 104.65 54.88 105.72 53.08 107.21 C 53.73 107.82 54.40 108.40 55.10 108.95 C 53.06 108.96 51.03 108.97 49.00 109.02 C 47.98 108.59 44.41 109.99 45.16 108.17 Z" />
</g>
<g id="#97492cff">
<path fill="#97492c" opacity="1.00" d=" M 29.74 109.94 C 23.59 111.35 30.22 102.92 33.18 102.60 C 33.81 103.28 34.45 103.96 35.08 104.65 C 32.53 105.38 30.63 107.49 29.74 109.94 Z" />
</g>
<g id="#bb663fff">
<path fill="#bb663f" opacity="1.00" d=" M 59.09 102.76 C 61.86 103.25 62.34 105.53 62.13 108.00 L 61.19 107.86 C 60.48 106.17 59.16 104.67 59.09 102.76 Z" />
</g>
<g id="#712d1bfb">
<path fill="#712d1b" opacity="1.00" d=" M 29.74 109.94 C 30.63 107.49 32.53 105.38 35.08 104.65 C 36.80 105.36 38.53 106.04 40.24 106.77 C 39.88 107.05 39.16 107.62 38.80 107.91 C 37.27 108.68 35.69 109.34 34.15 110.07 C 32.68 110.03 31.20 109.99 29.74 109.94 Z" />
</g>
<g id="#974f2df5">
<path fill="#974f2d" opacity="0.96" d=" M 69.90 110.92 C 70.20 107.80 73.60 106.49 75.80 104.79 C 76.02 106.77 76.09 108.78 75.92 110.77 C 73.91 110.62 71.91 110.93 69.90 110.92 Z" />
</g>
<g id="#873e26f7">
<path fill="#873e26" opacity="0.97" d=" M 34.15 110.07 C 35.69 109.34 37.27 108.68 38.80 107.91 C 41.40 110.26 40.37 115.17 36.93 115.88 C 34.54 116.35 32.16 117.35 29.69 116.75 C 31.32 114.57 34.36 113.21 34.15 110.07 Z" />
</g>
<g id="#2317117d">
<path fill="#231711" opacity="0.49" d=" M 49.00 109.02 C 51.03 108.97 53.06 108.96 55.10 108.95 C 55.82 108.97 57.26 109.01 57.98 109.03 C 57.98 112.25 51.42 109.25 49.03 109.96 L 49.00 109.02 Z" />
</g>
<g id="#ab8e87e9">
<path fill="#ab8e87" opacity="0.91" d=" M 14.04 116.78 C 13.90 114.54 16.26 113.12 17.93 112.08 C 17.96 112.73 18.03 114.02 18.06 114.67 C 20.33 113.77 21.62 114.24 20.97 116.94 C 19.06 119.06 16.29 117.09 14.04 116.78 Z" />
</g>
<g id="#bc9d9cff">
<path fill="#bc9d9c" opacity="1.00" d=" M 24.15 114.04 C 26.88 114.53 25.94 117.30 23.83 117.96 C 23.30 117.90 22.24 117.77 21.71 117.71 C 22.43 116.43 23.23 115.18 24.15 114.04 Z" />
</g>
<g id="#83472ee7">
<path fill="#83472e" opacity="0.91" d=" M 77.12 115.09 C 78.84 115.22 78.64 120.70 76.01 121.09 C 76.03 120.31 76.06 118.76 76.08 117.99 C 76.44 117.02 76.78 116.06 77.12 115.09 Z" />
</g>
<g id="#c3a9a9ff">
<path fill="#c3a9a9" opacity="1.00" d=" M 62.67 119.74 C 63.72 118.76 64.77 117.78 65.89 116.90 C 65.97 118.28 66.03 119.66 66.07 121.04 C 64.26 121.44 63.13 121.01 62.67 119.74 Z" />
</g>
<g id="#bfa3a3fd">
<path fill="#bfa3a3" opacity="1.00" d=" M 69.27 116.95 C 70.80 117.77 71.04 119.39 71.20 120.97 C 70.36 120.95 68.67 120.92 67.82 120.91 C 68.28 119.58 68.76 118.26 69.27 116.95 Z" />
</g>
<g id="#c7aeb2fe">
<path fill="#c7aeb2" opacity="1.00" d=" M 72.82 120.89 C 73.52 119.20 73.71 116.03 76.08 117.99 C 76.06 118.76 76.03 120.31 76.01 121.09 C 75.21 121.04 73.62 120.94 72.82 120.89 Z" />
</g>
</svg>
