<?xml version="1.0" encoding="UTF-8" ?>
<!DOCTYPE svg PUBLIC "-//W3C//DTD SVG 1.1//EN" "http://www.w3.org/Graphics/SVG/1.1/DTD/svg11.dtd">
<svg width="110pt" height="178pt" viewBox="0 0 110 178" version="1.1" xmlns="http://www.w3.org/2000/svg">
<g id="#b16d00d3">
<path fill="#b16d00" opacity="0.83" d=" M 81.04 3.89 C 81.85 4.74 83.80 5.32 83.64 6.66 C 83.43 7.78 83.27 8.91 83.17 10.05 C 81.08 9.47 81.96 5.75 81.04 3.89 Z" />
</g>
<g id="#f68800f9">
<path fill="#f68800" opacity="0.98" d=" M 83.17 10.05 C 83.27 8.91 83.43 7.78 83.64 6.66 C 84.96 7.66 85.82 9.12 86.97 10.30 C 86.84 11.61 86.66 12.91 86.40 14.20 C 85.61 13.29 84.81 12.39 83.99 11.51 C 83.78 11.14 83.37 10.41 83.17 10.05 Z" />
</g>
<g id="#974000c4">
<path fill="#974000" opacity="0.77" d=" M 83.17 10.05 C 83.37 10.41 83.78 11.14 83.99 11.51 C 83.28 12.84 83.01 14.33 82.74 15.80 C 81.21 14.85 81.58 11.21 83.17 10.05 Z" />
</g>
<g id="#fa5e00fc">
<path fill="#fa5e00" opacity="1.00" d=" M 86.97 10.30 C 91.37 12.92 96.29 18.16 96.81 23.85 C 96.63 25.99 96.61 28.13 96.74 30.28 L 96.76 31.09 C 91.25 31.96 86.43 34.95 81.04 36.17 L 81.01 35.11 C 80.77 33.34 81.48 31.71 82.16 30.12 C 85.88 28.04 90.22 27.58 94.02 25.84 C 93.77 21.66 91.35 17.98 89.81 14.18 C 86.93 12.88 89.05 18.05 86.03 17.03 C 86.12 16.32 86.30 14.91 86.40 14.20 C 86.66 12.91 86.84 11.61 86.97 10.30 Z" />
</g>
<g id="#f95000fc">
<path fill="#f95000" opacity="1.00" d=" M 82.74 15.80 C 83.01 14.33 83.28 12.84 83.99 11.51 C 84.81 12.39 85.61 13.29 86.40 14.20 C 86.30 14.91 86.12 16.32 86.03 17.03 C 89.05 18.05 86.93 12.88 89.81 14.18 C 91.35 17.98 93.77 21.66 94.02 25.84 C 90.22 27.58 85.88 28.04 82.16 30.12 C 82.15 28.68 82.13 25.79 82.12 24.34 C 86.26 23.50 82.21 18.53 82.74 15.80 Z" />
</g>
<g id="#f7846bfd">
<path fill="#f7846b" opacity="1.00" d=" M 58.02 19.97 C 59.77 18.13 61.67 19.62 62.83 21.25 C 63.12 25.95 60.89 30.27 60.98 34.95 C 63.24 38.79 67.81 40.91 69.22 45.35 C 63.94 43.91 60.07 47.03 56.63 50.58 C 52.52 49.72 48.32 50.41 44.97 52.94 C 43.00 54.72 40.48 53.49 38.23 53.17 C 37.26 54.86 38.43 59.94 35.17 60.20 C 34.54 59.36 33.90 58.53 33.26 57.71 C 32.20 54.62 31.83 51.32 32.02 48.07 C 35.56 40.26 44.60 37.99 50.13 32.11 C 53.00 28.29 54.67 23.36 58.02 19.97 Z" />
</g>
<g id="#883400b8">
<path fill="#883400" opacity="0.72" d=" M 96.81 23.85 C 99.43 24.34 99.10 27.05 99.05 29.09 C 98.34 28.43 97.68 27.69 97.09 26.89 C 97.00 27.74 96.82 29.43 96.74 30.28 C 96.61 28.13 96.63 25.99 96.81 23.85 Z" />
</g>
<g id="#fd7300fe">
<path fill="#fd7300" opacity="1.00" d=" M 81.04 36.17 C 86.43 34.95 91.25 31.96 96.76 31.09 C 98.55 31.56 99.55 34.10 100.03 35.85 C 93.49 36.02 87.34 38.64 81.04 40.09 C 81.03 38.78 81.03 37.48 81.04 36.17 Z" />
</g>
<g id="#0c060039">
<path fill="#0c0600" opacity="0.22" d=" M 80.03 34.98 L 81.01 35.11 L 81.04 36.17 C 81.03 37.48 81.03 38.78 81.04 40.09 C 81.03 40.82 81.01 42.30 80.99 43.03 C 78.77 42.06 80.48 37.40 80.03 34.98 Z" />
</g>
<g id="#fb8900fd">
<path fill="#fb8900" opacity="1.00" d=" M 81.04 40.09 C 87.34 38.64 93.49 36.02 100.03 35.85 C 101.25 36.18 101.87 36.91 101.87 38.02 C 100.46 40.08 97.73 39.79 95.59 40.43 C 90.86 40.86 86.50 42.75 82.01 44.11 C 81.76 43.84 81.25 43.30 80.99 43.03 C 81.01 42.30 81.03 40.82 81.04 40.09 Z" />
</g>
<g id="#f5a000fa">
<path fill="#f5a000" opacity="0.98" d=" M 95.59 40.43 C 97.73 39.79 100.46 40.08 101.87 38.02 C 102.90 39.94 103.04 41.96 101.87 43.85 C 96.85 45.13 90.46 45.03 86.64 48.68 C 83.80 49.45 82.11 46.64 82.01 44.11 C 86.50 42.75 90.86 40.86 95.59 40.43 Z" />
</g>
<g id="#f9d200fc">
<path fill="#f9d200" opacity="1.00" d=" M 86.64 48.68 C 90.46 45.03 96.85 45.13 101.87 43.85 C 101.76 47.99 98.94 51.51 95.78 53.91 C 94.93 54.36 94.07 54.79 93.20 55.19 C 90.23 53.89 86.90 52.40 86.64 48.68 Z" />
</g>
<g id="#e16d5afd">
<path fill="#e16d5a" opacity="1.00" d=" M 56.63 50.58 C 60.07 47.03 63.94 43.91 69.22 45.35 C 72.54 48.14 73.42 53.70 75.42 57.66 C 76.70 59.82 75.55 62.18 74.65 64.22 C 73.44 59.20 71.96 53.49 67.01 50.90 C 65.23 51.69 64.11 53.48 63.00 55.02 C 62.36 55.97 61.74 56.93 61.14 57.91 C 60.48 58.64 59.80 59.34 59.10 60.02 C 56.42 59.94 54.19 61.56 52.30 63.29 C 51.06 68.16 50.87 74.57 44.96 76.03 C 45.14 74.60 45.44 73.19 45.70 71.77 C 42.62 72.15 42.95 74.73 43.65 77.05 C 42.00 77.04 38.69 77.02 37.04 77.02 C 33.79 75.99 33.49 71.58 31.99 69.01 C 29.97 66.37 32.07 63.41 33.09 60.89 C 33.97 62.03 34.85 63.17 35.90 64.17 C 35.70 62.84 35.42 61.52 35.17 60.20 C 38.43 59.94 37.26 54.86 38.23 53.17 C 40.48 53.49 43.00 54.72 44.97 52.94 C 48.32 50.41 52.52 49.72 56.63 50.58 M 50.28 53.31 C 47.64 53.95 49.16 62.26 50.26 57.11 C 50.36 56.12 51.98 52.27 50.28 53.31 Z" />
</g>
<g id="#c25746fd">
<path fill="#c25746" opacity="1.00" d=" M 63.00 55.02 C 64.11 53.48 65.23 51.69 67.01 50.90 C 71.96 53.49 73.44 59.20 74.65 64.22 C 74.47 70.28 68.49 73.38 64.50 77.11 C 64.37 76.63 64.11 75.66 63.98 75.17 C 65.84 73.76 67.50 72.08 68.63 70.02 C 69.74 68.50 70.84 66.87 71.09 64.95 C 68.46 64.49 66.87 66.53 65.22 68.21 C 62.09 72.70 53.45 68.34 51.96 74.07 C 49.34 76.16 46.47 77.92 43.79 79.93 C 41.48 80.02 39.25 79.33 37.01 78.91 C 37.01 78.44 37.03 77.49 37.04 77.02 C 38.69 77.02 42.00 77.04 43.65 77.05 C 42.95 74.73 42.62 72.15 45.70 71.77 C 45.44 73.19 45.14 74.60 44.96 76.03 C 50.87 74.57 51.06 68.16 52.30 63.29 C 54.19 61.56 56.42 59.94 59.10 60.02 C 58.35 61.31 57.63 62.63 57.00 63.99 C 58.62 64.06 60.24 64.07 61.85 63.97 C 63.28 63.93 64.69 63.66 66.07 63.26 C 69.73 63.42 68.80 57.87 67.13 55.96 C 66.37 54.66 65.29 54.08 63.87 54.83 L 63.00 55.02 Z" />
</g>
<g id="#af5040ff">
<path fill="#af5040" opacity="1.00" d=" M 50.28 53.31 C 51.98 52.27 50.36 56.12 50.26 57.11 C 49.16 62.26 47.64 53.95 50.28 53.31 Z" />
</g>
<g id="#bbbbbdff">
<path fill="#bbbbbd" opacity="1.00" d=" M 63.87 54.83 C 65.29 54.08 66.37 54.66 67.13 55.96 C 67.11 58.17 66.85 60.40 65.83 62.40 C 65.36 60.95 65.02 59.46 64.67 57.98 C 64.42 56.93 64.15 55.87 63.87 54.83 Z" />
</g>
<g id="#e4705dfb">
<path fill="#e4705d" opacity="1.00" d=" M 93.20 55.19 C 94.07 54.79 94.93 54.36 95.78 53.91 C 96.97 60.57 98.98 67.19 99.03 74.00 C 98.99 79.00 99.00 84.01 99.00 89.01 C 98.82 94.76 97.78 100.43 96.67 106.06 L 95.61 106.51 C 93.87 105.46 92.56 103.92 91.53 102.19 C 90.59 102.98 89.18 103.65 89.01 104.98 C 89.90 107.40 92.28 109.28 92.06 112.05 C 90.15 112.24 88.47 111.38 87.02 110.24 C 85.43 105.75 82.78 101.71 81.28 97.19 C 81.82 96.42 82.40 95.69 83.02 94.99 C 91.43 83.79 91.72 68.68 93.20 55.19 Z" />
</g>
<g id="#786e6cff">
<path fill="#786e6c" opacity="1.00" d=" M 63.00 55.02 L 63.87 54.83 C 64.15 55.87 64.42 56.93 64.67 57.98 C 64.10 58.74 63.52 59.49 62.93 60.23 C 62.33 59.45 61.74 58.68 61.14 57.91 C 61.74 56.93 62.36 55.97 63.00 55.02 Z" />
</g>
<g id="#a15042ff">
<path fill="#a15042" opacity="1.00" d=" M 67.13 55.96 C 68.80 57.87 69.73 63.42 66.07 63.26 L 65.83 62.40 C 66.85 60.40 67.11 58.17 67.13 55.96 Z" />
</g>
<g id="#64392ffb">
<path fill="#64392f" opacity="1.00" d=" M 33.26 57.71 C 33.90 58.53 34.54 59.36 35.17 60.20 C 35.42 61.52 35.70 62.84 35.90 64.17 C 34.85 63.17 33.97 62.03 33.09 60.89 C 33.13 60.10 33.22 58.51 33.26 57.71 Z" />
</g>
<g id="#271c20ff">
<path fill="#271c20" opacity="1.00" d=" M 61.14 57.91 C 61.74 58.68 62.33 59.45 62.93 60.23 C 62.50 61.45 62.16 62.71 61.85 63.97 C 60.24 64.07 58.62 64.06 57.00 63.99 C 57.63 62.63 58.35 61.31 59.10 60.02 C 59.80 59.34 60.48 58.64 61.14 57.91 Z" />
</g>
<g id="#4b4049ff">
<path fill="#4b4049" opacity="1.00" d=" M 62.93 60.23 C 63.52 59.49 64.10 58.74 64.67 57.98 C 65.02 59.46 65.36 60.95 65.83 62.40 L 66.07 63.26 C 64.69 63.66 63.28 63.93 61.85 63.97 C 62.16 62.71 62.50 61.45 62.93 60.23 Z" />
</g>
<g id="#b94d3cff">
<path fill="#b94d3c" opacity="1.00" d=" M 65.22 68.21 C 66.87 66.53 68.46 64.49 71.09 64.95 C 70.84 66.87 69.74 68.50 68.63 70.02 C 64.42 69.58 60.92 73.60 56.68 72.50 C 54.91 72.00 53.46 73.39 51.96 74.07 C 53.45 68.34 62.09 72.70 65.22 68.21 Z" />
</g>
<g id="#a94132ff">
<path fill="#a94132" opacity="1.00" d=" M 56.68 72.50 C 60.92 73.60 64.42 69.58 68.63 70.02 C 67.50 72.08 65.84 73.76 63.98 75.17 C 61.72 76.87 59.57 78.74 57.15 80.22 C 58.76 78.11 60.46 76.07 62.06 73.96 C 55.26 73.53 50.79 81.14 43.79 79.93 C 46.47 77.92 49.34 76.16 51.96 74.07 C 53.46 73.39 54.91 72.00 56.68 72.50 Z" />
</g>
<g id="#8f3024fc">
<path fill="#8f3024" opacity="1.00" d=" M 43.79 79.93 C 50.79 81.14 55.26 73.53 62.06 73.96 C 60.46 76.07 58.76 78.11 57.15 80.22 C 55.36 81.43 53.57 82.67 51.81 83.92 C 49.18 84.56 46.49 84.88 43.82 85.25 C 43.19 85.12 41.93 84.87 41.29 84.75 C 39.88 82.74 37.54 81.50 37.01 78.91 C 39.25 79.33 41.48 80.02 43.79 79.93 Z" />
</g>
<g id="#13090748">
<path fill="#130907" opacity="0.28" d=" M 99.03 74.00 L 99.99 74.00 C 99.99 77.75 99.98 85.24 99.98 88.99 L 99.00 89.01 C 99.00 84.01 98.99 79.00 99.03 74.00 Z" />
</g>
<g id="#bd4f3efe">
<path fill="#bd4f3e" opacity="1.00" d=" M 57.15 80.22 C 59.57 78.74 61.72 76.87 63.98 75.17 C 64.11 75.66 64.37 76.63 64.50 77.11 C 64.84 81.18 67.88 83.67 71.05 85.80 C 70.56 85.91 69.58 86.12 69.09 86.23 C 69.14 88.58 69.24 93.28 69.29 95.63 C 71.35 98.23 73.62 100.65 75.83 103.13 C 82.02 108.71 80.09 118.59 85.58 124.86 C 82.76 129.18 79.35 133.09 76.28 137.23 C 76.75 125.03 72.49 113.00 65.92 102.86 C 65.70 102.40 65.26 101.49 65.04 101.03 C 62.91 95.97 60.12 91.23 57.66 86.34 C 55.80 85.33 53.77 84.68 51.81 83.92 C 53.57 82.67 55.36 81.43 57.15 80.22 Z" />
</g>
<g id="#d05d4cff">
<path fill="#d05d4c" opacity="1.00" d=" M 43.82 85.25 C 46.49 84.88 49.18 84.56 51.81 83.92 C 53.77 84.68 55.80 85.33 57.66 86.34 C 60.12 91.23 62.91 95.97 65.04 101.03 C 60.42 97.57 55.28 94.35 49.17 94.89 C 48.39 91.03 48.87 85.75 43.82 85.25 Z" />
</g>
<g id="#ef7858fd">
<path fill="#ef7858" opacity="1.00" d=" M 38.99 86.69 C 39.49 85.68 40.26 85.03 41.29 84.75 C 41.93 84.87 43.19 85.12 43.82 85.25 C 48.87 85.75 48.39 91.03 49.17 94.89 C 48.13 95.85 46.98 96.73 46.19 97.92 L 45.81 98.45 C 45.26 99.19 44.75 99.95 44.28 100.74 C 41.99 104.29 40.65 108.31 39.18 112.24 C 38.76 108.32 40.07 104.63 40.52 100.82 C 40.50 100.40 40.48 99.55 40.47 99.12 C 39.28 95.40 45.27 87.79 38.99 86.69 Z" />
</g>
<g id="#de6451fe">
<path fill="#de6451" opacity="1.00" d=" M 71.91 86.09 C 73.46 84.13 75.37 86.48 76.78 87.23 C 79.07 89.61 81.92 91.73 83.02 94.99 C 82.40 95.69 81.82 96.42 81.28 97.19 C 82.78 101.71 85.43 105.75 87.02 110.24 C 84.87 111.32 82.85 109.85 80.85 109.13 C 81.76 113.89 83.34 118.62 86.52 122.37 C 88.28 124.80 87.80 128.00 87.96 130.82 C 85.88 136.34 80.75 139.61 75.03 140.13 C 75.46 139.17 75.87 138.20 76.28 137.23 C 79.35 133.09 82.76 129.18 85.58 124.86 C 80.09 118.59 82.02 108.71 75.83 103.13 C 74.92 97.94 74.57 92.68 73.62 87.50 C 73.20 87.14 72.34 86.44 71.91 86.09 Z" />
</g>
<g id="#d05a49ff">
<path fill="#d05a49" opacity="1.00" d=" M 69.09 86.23 C 69.58 86.12 70.56 85.91 71.05 85.80 L 71.91 86.09 C 72.34 86.44 73.20 87.14 73.62 87.50 C 74.57 92.68 74.92 97.94 75.83 103.13 C 73.62 100.65 71.35 98.23 69.29 95.63 C 69.24 93.28 69.14 88.58 69.09 86.23 Z" />
</g>
<g id="#cf5a49fc">
<path fill="#cf5a49" opacity="1.00" d=" M 36.35 88.69 C 36.05 87.32 37.97 86.86 38.99 86.69 C 45.27 87.79 39.28 95.40 40.47 99.12 C 40.31 98.33 40.01 96.73 39.86 95.93 C 36.97 97.67 35.19 100.73 32.22 102.34 C 34.32 98.03 37.91 93.76 36.35 88.69 Z" />
</g>
<g id="#de6755fe">
<path fill="#de6755" opacity="1.00" d=" M 30.47 96.71 C 31.64 93.97 33.84 90.56 36.35 88.69 C 37.91 93.76 34.32 98.03 32.22 102.34 C 29.38 104.84 26.09 106.90 23.69 109.87 C 20.51 117.32 20.51 125.98 15.90 132.86 C 12.87 134.55 9.23 134.82 6.00 136.08 C 4.41 130.54 11.04 131.27 14.29 129.24 C 20.94 122.70 17.55 110.27 25.97 104.94 C 27.88 102.66 31.32 100.05 30.47 96.71 Z" />
</g>
<g id="#934d40ff">
<path fill="#934d40" opacity="1.00" d=" M 49.17 94.89 C 55.28 94.35 60.42 97.57 65.04 101.03 C 65.26 101.49 65.70 102.40 65.92 102.86 C 65.66 103.16 65.15 103.75 64.89 104.04 C 64.28 103.31 63.66 102.60 63.02 101.90 C 60.18 99.45 56.67 97.10 52.82 97.02 C 50.56 96.82 48.33 97.27 46.19 97.92 C 46.98 96.73 48.13 95.85 49.17 94.89 Z" />
</g>
<g id="#b54d3cfc">
<path fill="#b54d3c" opacity="1.00" d=" M 32.22 102.34 C 35.19 100.73 36.97 97.67 39.86 95.93 C 40.01 96.73 40.31 98.33 40.47 99.12 C 40.48 99.55 40.50 100.40 40.52 100.82 C 35.47 104.34 31.20 109.54 26.17 112.73 C 24.15 113.12 23.68 111.68 23.69 109.87 C 26.09 106.90 29.38 104.84 32.22 102.34 Z" />
</g>
<g id="#f27c64fc">
<path fill="#f27c64" opacity="1.00" d=" M 12.96 114.98 C 16.79 107.21 23.72 101.76 30.47 96.71 C 31.32 100.05 27.88 102.66 25.97 104.94 C 17.55 110.27 20.94 122.70 14.29 129.24 C 11.04 131.27 4.41 130.54 6.00 136.08 C 5.98 136.81 5.94 138.27 5.92 139.00 L 5.07 138.85 C 1.58 130.03 8.94 122.19 12.96 114.98 Z" />
</g>
<g id="#e2ab97ff">
<path fill="#e2ab97" opacity="1.00" d=" M 46.19 97.92 C 48.33 97.27 50.56 96.82 52.82 97.02 C 61.44 106.73 64.55 120.72 62.40 133.36 C 61.15 138.78 57.16 142.62 53.23 146.24 C 52.12 146.87 52.50 147.94 52.79 148.93 L 52.09 149.21 C 50.83 149.17 49.81 148.66 49.02 147.70 L 48.49 147.18 C 52.75 140.81 58.26 134.13 58.01 126.00 C 58.99 117.89 55.32 109.09 48.35 104.68 C 47.32 102.68 46.77 100.48 45.81 98.45 L 46.19 97.92 Z" />
</g>
<g id="#d8a18cff">
<path fill="#d8a18c" opacity="1.00" d=" M 52.82 97.02 C 56.67 97.10 60.18 99.45 63.02 101.90 C 63.55 111.06 70.04 119.25 67.85 128.89 C 65.59 137.10 61.72 146.42 52.79 148.93 C 52.50 147.94 52.12 146.87 53.23 146.24 C 57.16 142.62 61.15 138.78 62.40 133.36 C 64.55 120.72 61.44 106.73 52.82 97.02 Z" />
</g>
<g id="#ebb6a1ff">
<path fill="#ebb6a1" opacity="1.00" d=" M 44.28 100.74 C 44.75 99.95 45.26 99.19 45.81 98.45 C 46.77 100.48 47.32 102.68 48.35 104.68 C 55.32 109.09 58.99 117.89 58.01 126.00 C 58.26 134.13 52.75 140.81 48.49 147.18 C 47.83 146.58 47.20 145.94 46.61 145.26 C 48.22 137.78 50.27 129.57 46.62 122.33 C 43.63 115.50 46.33 107.73 44.28 100.74 Z" />
</g>
<g id="#f9c2a4fe">
<path fill="#f9c2a4" opacity="1.00" d=" M 44.28 100.74 C 46.33 107.73 43.63 115.50 46.62 122.33 C 50.27 129.57 48.22 137.78 46.61 145.26 L 45.98 144.62 C 45.36 143.91 44.75 143.21 44.14 142.51 C 43.52 141.48 42.83 140.50 42.13 139.52 C 41.02 137.07 40.01 134.57 39.02 132.07 C 38.47 128.70 38.28 125.31 38.14 121.91 C 37.73 118.60 37.59 115.23 39.18 112.24 C 40.65 108.31 41.99 104.29 44.28 100.74 Z" />
</g>
<g id="#ce9680fd">
<path fill="#ce9680" opacity="1.00" d=" M 63.02 101.90 C 63.66 102.60 64.28 103.31 64.89 104.04 C 69.14 109.78 71.44 116.61 73.04 123.49 C 72.63 128.73 69.99 133.37 68.20 138.24 C 66.58 142.94 61.54 145.46 59.89 149.90 C 61.21 149.94 62.53 149.94 63.85 149.92 C 65.34 150.07 66.82 150.28 68.29 150.60 C 62.79 152.60 57.50 150.60 52.00 149.88 L 52.09 149.21 L 52.79 148.93 C 61.72 146.42 65.59 137.10 67.85 128.89 C 70.04 119.25 63.55 111.06 63.02 101.90 Z" />
</g>
<g id="#eb725ffe">
<path fill="#eb725f" opacity="1.00" d=" M 89.01 104.98 C 89.18 103.65 90.59 102.98 91.53 102.19 C 92.56 103.92 93.87 105.46 95.61 106.51 C 101.37 113.00 103.12 121.90 105.06 130.07 C 105.40 132.84 104.31 131.43 103.26 130.12 C 102.99 137.21 94.71 133.83 90.27 136.28 C 89.43 137.79 89.03 139.47 88.77 141.16 L 88.58 142.13 C 85.81 138.74 88.28 134.66 87.96 130.82 C 87.80 128.00 88.28 124.80 86.52 122.37 C 83.34 118.62 81.76 113.89 80.85 109.13 C 82.85 109.85 84.87 111.32 87.02 110.24 C 88.47 111.38 90.15 112.24 92.06 112.05 C 92.28 109.28 89.90 107.40 89.01 104.98 Z" />
</g>
<g id="#824033ff">
<path fill="#824033" opacity="1.00" d=" M 64.89 104.04 C 65.15 103.75 65.66 103.16 65.92 102.86 C 72.49 113.00 76.75 125.03 76.28 137.23 C 75.87 138.20 75.46 139.17 75.03 140.13 C 74.54 141.09 74.07 142.07 73.62 143.05 C 73.43 142.73 73.05 142.10 72.87 141.78 C 73.51 139.93 73.99 138.02 74.23 136.08 C 74.77 133.31 75.42 130.44 74.39 127.72 C 74.03 126.28 73.59 124.86 73.04 123.49 C 71.44 116.61 69.14 109.78 64.89 104.04 Z" />
</g>
<g id="#be5445f8">
<path fill="#be5445" opacity="0.97" d=" M 15.90 132.86 C 20.51 125.98 20.51 117.32 23.69 109.87 C 23.68 111.68 24.15 113.12 26.17 112.73 C 21.83 120.54 20.99 129.66 17.82 137.92 L 17.06 137.82 C 15.74 137.45 14.42 137.09 13.05 136.92 C 13.06 138.22 13.11 139.51 13.20 140.80 C 12.97 141.07 12.51 141.60 12.28 141.87 C 11.77 138.48 8.59 138.85 5.92 139.00 C 5.94 138.27 5.98 136.81 6.00 136.08 C 9.23 134.82 12.87 134.55 15.90 132.86 Z" />
</g>
<g id="#ef785ffb">
<path fill="#ef785f" opacity="1.00" d=" M 27.52 131.82 C 29.61 127.79 33.70 123.28 38.14 121.91 C 38.28 125.31 38.47 128.70 39.02 132.07 C 38.09 130.88 37.18 129.68 36.12 128.61 C 34.80 127.20 32.53 128.21 31.75 129.75 C 28.06 134.38 29.73 140.42 30.70 145.69 C 29.04 147.61 26.64 149.21 26.93 152.08 C 26.77 152.35 26.47 152.88 26.31 153.14 C 24.56 151.09 22.54 148.75 23.06 145.83 C 24.52 147.70 26.97 152.33 25.13 143.05 C 25.78 139.30 28.01 135.72 27.52 131.82 Z" />
</g>
<g id="#c68c75ff">
<path fill="#c68c75" opacity="1.00" d=" M 68.20 138.24 C 69.99 133.37 72.63 128.73 73.04 123.49 C 73.59 124.86 74.03 126.28 74.39 127.72 C 74.31 130.50 74.26 133.29 74.23 136.08 C 73.74 136.14 72.74 136.26 72.25 136.32 C 70.36 141.43 64.84 144.60 63.85 149.92 C 62.53 149.94 61.21 149.94 59.89 149.90 C 61.54 145.46 66.58 142.94 68.20 138.24 Z" />
</g>
<g id="#e36b59ff">
<path fill="#e36b59" opacity="1.00" d=" M 31.75 129.75 C 32.53 128.21 34.80 127.20 36.12 128.61 C 30.77 131.22 34.39 137.04 35.91 141.08 C 35.17 146.02 33.13 152.44 26.93 152.08 C 26.64 149.21 29.04 147.61 30.70 145.69 C 29.73 140.42 28.06 134.38 31.75 129.75 Z" />
</g>
<g id="#985f4bff">
<path fill="#985f4b" opacity="1.00" d=" M 74.39 127.72 C 75.42 130.44 74.77 133.31 74.23 136.08 C 74.26 133.29 74.31 130.50 74.39 127.72 Z" />
</g>
<g id="#d7614ffe">
<path fill="#d7614f" opacity="1.00" d=" M 35.91 141.08 C 34.39 137.04 30.77 131.22 36.12 128.61 C 37.18 129.68 38.09 130.88 39.02 132.07 C 40.01 134.57 41.02 137.07 42.13 139.52 C 37.92 143.22 38.27 150.23 33.02 153.03 C 30.47 153.73 31.29 158.76 28.43 157.71 C 28.01 156.78 27.58 155.85 27.14 154.93 C 26.93 154.48 26.52 153.59 26.31 153.14 C 26.47 152.88 26.77 152.35 26.93 152.08 C 33.13 152.44 35.17 146.02 35.91 141.08 Z" />
</g>
<g id="#d86553fe">
<path fill="#d86553" opacity="1.00" d=" M 103.26 130.12 C 104.31 131.43 105.40 132.84 105.06 130.07 C 107.08 129.97 105.63 133.83 106.23 135.30 C 101.58 138.63 94.97 136.83 90.67 140.73 C 90.19 140.84 89.24 141.05 88.77 141.16 C 89.03 139.47 89.43 137.79 90.27 136.28 C 94.71 133.83 102.99 137.21 103.26 130.12 Z" />
</g>
<g id="#e26b59fd">
<path fill="#e26b59" opacity="1.00" d=" M 75.03 140.13 C 80.75 139.61 85.88 136.34 87.96 130.82 C 88.28 134.66 85.81 138.74 88.58 142.13 C 88.32 145.21 87.32 148.47 88.80 151.37 C 86.84 153.21 84.52 154.64 82.50 156.42 C 82.39 158.66 81.65 160.62 80.27 162.28 C 79.97 161.98 79.36 161.36 79.05 161.05 C 79.23 156.20 75.22 152.70 72.83 148.83 L 72.89 147.93 C 73.07 146.29 73.30 144.66 73.62 143.05 C 74.07 142.07 74.54 141.09 75.03 140.13 Z" />
</g>
<g id="#f88569fc">
<path fill="#f88569" opacity="1.00" d=" M 27.52 131.82 C 28.01 135.72 25.78 139.30 25.13 143.05 C 26.97 152.33 24.52 147.70 23.06 145.83 C 21.94 140.70 24.47 135.73 27.52 131.82 Z" />
</g>
<g id="#c55644fd">
<path fill="#c55644" opacity="1.00" d=" M 106.23 135.30 L 106.99 134.91 C 107.00 136.44 107.01 139.50 107.02 141.03 L 106.11 140.91 C 106.02 140.43 105.86 139.46 105.78 138.98 C 102.00 139.45 98.37 140.88 94.95 142.53 C 96.03 142.89 97.09 143.30 98.14 143.76 C 96.82 143.83 95.50 143.93 94.19 144.06 C 94.61 146.66 95.05 149.27 95.68 151.83 C 93.40 152.99 90.25 154.75 91.06 157.80 C 92.24 158.69 93.54 159.38 94.87 160.02 C 94.99 158.62 95.11 157.22 95.21 155.82 C 95.77 156.95 96.24 158.12 96.80 159.26 C 97.74 161.88 101.99 166.09 98.30 168.00 C 97.68 166.49 97.03 164.98 96.15 163.61 C 94.10 161.61 91.53 165.81 91.85 167.94 L 91.02 167.95 C 90.10 166.20 89.32 164.35 88.06 162.81 C 85.63 163.52 84.43 165.57 83.82 167.90 C 83.38 167.91 82.50 167.92 82.06 167.93 C 81.69 166.04 82.96 162.52 79.94 162.76 L 80.27 162.28 C 81.65 160.62 82.39 158.66 82.50 156.42 C 84.52 154.64 86.84 153.21 88.80 151.37 C 89.16 150.85 89.87 149.80 90.23 149.28 C 92.98 147.54 94.21 143.84 91.25 141.60 L 90.67 140.73 C 94.97 136.83 101.58 138.63 106.23 135.30 Z" />
</g>
<g id="#bd8068fe">
<path fill="#bd8068" opacity="1.00" d=" M 72.25 136.32 C 72.74 136.26 73.74 136.14 74.23 136.08 C 73.99 138.02 73.51 139.93 72.87 141.78 C 70.60 143.62 68.13 145.73 68.98 149.02 C 70.30 148.74 71.59 148.32 72.89 147.93 L 72.83 148.83 C 71.54 149.77 70.01 151.15 68.29 150.60 C 66.82 150.28 65.34 150.07 63.85 149.92 C 64.84 144.60 70.36 141.43 72.25 136.32 Z" />
</g>
<g id="#c69c98f1">
<path fill="#c69c98" opacity="0.95" d=" M 13.05 136.92 C 14.42 137.09 15.74 137.45 17.06 137.82 C 16.98 140.54 17.01 143.35 15.89 145.89 C 14.13 145.27 14.21 142.34 13.20 140.80 C 13.11 139.51 13.06 138.22 13.05 136.92 Z" />
</g>
<g id="#e3b8aaf7">
<path fill="#e3b8aa" opacity="0.97" d=" M 5.07 138.85 L 5.92 139.00 C 6.10 140.71 5.77 142.64 6.94 144.07 C 6.96 144.83 6.98 146.35 6.99 147.11 C 3.44 145.97 5.21 141.75 5.07 138.85 Z" />
</g>
<g id="#c89a8ef5">
<path fill="#c89a8e" opacity="0.96" d=" M 5.92 139.00 C 8.59 138.85 11.77 138.48 12.28 141.87 C 11.79 144.28 11.04 146.63 10.78 149.09 C 9.04 147.86 8.41 145.59 6.94 144.07 C 5.77 142.64 6.10 140.71 5.92 139.00 Z" />
</g>
<g id="#ab483bf7">
<path fill="#ab483b" opacity="0.97" d=" M 94.95 142.53 C 98.37 140.88 102.00 139.45 105.78 138.98 C 105.86 139.46 106.02 140.43 106.11 140.91 C 106.09 142.32 106.02 143.74 105.91 145.16 C 105.09 142.25 102.52 143.19 100.87 144.79 C 100.46 145.09 99.63 145.67 99.21 145.96 C 98.94 145.41 98.41 144.31 98.14 143.76 C 97.09 143.30 96.03 142.89 94.95 142.53 Z" />
</g>
<g id="#c55644fa">
<path fill="#c55644" opacity="0.98" d=" M 33.02 153.03 C 38.27 150.23 37.92 143.22 42.13 139.52 C 42.83 140.50 43.52 141.48 44.14 142.51 C 41.00 146.85 38.71 151.75 35.21 155.85 C 36.55 156.71 39.24 158.42 40.58 159.27 C 41.05 161.04 41.27 162.99 43.08 163.90 C 38.84 165.09 34.49 166.05 30.05 166.01 L 29.78 164.99 C 31.50 165.01 33.21 165.04 34.92 164.97 C 34.35 163.23 33.74 161.49 32.87 159.88 C 31.00 160.99 29.75 162.76 29.78 164.99 C 29.35 164.99 28.49 164.98 28.06 164.98 C 28.03 163.29 28.02 161.59 27.90 159.91 C 26.77 159.97 25.74 160.31 24.80 160.92 C 24.38 161.15 23.53 161.62 23.10 161.85 C 22.98 160.59 22.27 159.90 20.99 159.78 C 22.03 156.93 27.30 158.54 27.14 154.93 C 27.58 155.85 28.01 156.78 28.43 157.71 C 31.29 158.76 30.47 153.73 33.02 153.03 Z" />
</g>
<g id="#e1a99cff">
<path fill="#e1a99c" opacity="1.00" d=" M 88.77 141.16 C 89.24 141.05 90.19 140.84 90.67 140.73 L 91.25 141.60 C 90.92 144.16 90.36 146.69 90.23 149.28 C 89.87 149.80 89.16 150.85 88.80 151.37 C 87.32 148.47 88.32 145.21 88.58 142.13 L 88.77 141.16 Z" />
</g>
<g id="#ad6d56ff">
<path fill="#ad6d56" opacity="1.00" d=" M 68.98 149.02 C 68.13 145.73 70.60 143.62 72.87 141.78 C 73.05 142.10 73.43 142.73 73.62 143.05 C 73.30 144.66 73.07 146.29 72.89 147.93 C 71.59 148.32 70.30 148.74 68.98 149.02 Z" />
</g>
<g id="#bf8978ff">
<path fill="#bf8978" opacity="1.00" d=" M 91.25 141.60 C 94.21 143.84 92.98 147.54 90.23 149.28 C 90.36 146.69 90.92 144.16 91.25 141.60 Z" />
</g>
<g id="#b94f3efb">
<path fill="#b94f3e" opacity="1.00" d=" M 35.21 155.85 C 38.71 151.75 41.00 146.85 44.14 142.51 C 44.75 143.21 45.36 143.91 45.98 144.62 C 43.92 146.99 42.25 149.79 41.83 152.95 C 42.33 152.67 43.34 152.11 43.84 151.83 C 46.88 154.24 49.25 163.96 43.08 163.90 C 41.27 162.99 41.05 161.04 40.58 159.27 C 39.24 158.42 36.55 156.71 35.21 155.85 Z" />
</g>
<g id="#c08e8af0">
<path fill="#c08e8a" opacity="0.94" d=" M 100.87 144.79 C 102.52 143.19 105.09 142.25 105.91 145.16 C 106.12 147.38 106.37 152.21 103.24 151.92 C 102.71 149.47 101.89 147.09 100.87 144.79 Z" />
</g>
<g id="#dba79efa">
<path fill="#dba79e" opacity="0.98" d=" M 94.19 144.06 C 95.50 143.93 96.82 143.83 98.14 143.76 C 98.41 144.31 98.94 145.41 99.21 145.96 C 99.41 148.98 97.71 151.52 96.60 154.19 C 96.37 153.60 95.91 152.42 95.68 151.83 C 95.05 149.27 94.61 146.66 94.19 144.06 Z" />
</g>
<g id="#a54332f6">
<path fill="#a54332" opacity="0.96" d=" M 41.83 152.95 C 42.25 149.79 43.92 146.99 45.98 144.62 L 46.61 145.26 C 47.20 145.94 47.83 146.58 48.49 147.18 L 49.02 147.70 C 46.72 148.21 45.40 150.27 43.84 151.83 C 43.34 152.11 42.33 152.67 41.83 152.95 Z" />
</g>
<g id="#ae4938f7">
<path fill="#ae4938" opacity="0.97" d=" M 91.06 157.80 C 90.25 154.75 93.40 152.99 95.68 151.83 C 95.91 152.42 96.37 153.60 96.60 154.19 C 97.31 155.79 96.88 157.58 96.80 159.26 C 96.24 158.12 95.77 156.95 95.21 155.82 C 95.11 157.22 94.99 158.62 94.87 160.02 C 93.54 159.38 92.24 158.69 91.06 157.80 Z" />
</g>
<g id="#bb8778f4">
<path fill="#bb8778" opacity="0.96" d=" M 19.03 159.93 C 19.52 159.89 20.50 159.82 20.99 159.78 C 22.27 159.90 22.98 160.59 23.10 161.85 C 22.47 162.78 22.13 163.80 22.09 164.91 C 21.63 164.63 20.71 164.08 20.26 163.80 C 19.95 162.74 19.61 161.70 19.26 160.66 L 19.03 159.93 Z" />
</g>
<g id="#c18677fe">
<path fill="#c18677" opacity="1.00" d=" M 24.80 160.92 C 25.74 160.31 26.77 159.97 27.90 159.91 C 28.02 161.59 28.03 163.29 28.06 164.98 C 26.63 165.04 25.20 165.03 23.77 164.97 C 24.35 163.69 24.91 162.36 24.80 160.92 Z" />
</g>
<g id="#e3ac9ffe">
<path fill="#e3ac9f" opacity="1.00" d=" M 29.78 164.99 C 29.75 162.76 31.00 160.99 32.87 159.88 C 33.74 161.49 34.35 163.23 34.92 164.97 C 33.21 165.04 31.50 165.01 29.78 164.99 Z" />
</g>
<g id="#e6b1aeff">
<path fill="#e6b1ae" opacity="1.00" d=" M 15.86 163.98 C 16.71 162.64 17.83 161.39 19.26 160.66 C 19.61 161.70 19.95 162.74 20.26 163.80 C 18.79 163.96 17.33 164.02 15.86 163.98 Z" />
</g>
<g id="#daa99bff">
<path fill="#daa99b" opacity="1.00" d=" M 23.10 161.85 C 23.53 161.62 24.38 161.15 24.80 160.92 C 24.91 162.36 24.35 163.69 23.77 164.97 C 23.35 164.95 22.51 164.93 22.09 164.91 C 22.13 163.80 22.47 162.78 23.10 161.85 Z" />
</g>
<g id="#bc5742db">
<path fill="#bc5742" opacity="0.86" d=" M 76.78 167.98 C 74.67 167.23 76.65 161.33 79.05 161.05 C 79.36 161.36 79.97 161.98 80.27 162.28 L 79.94 162.76 C 79.75 162.96 79.36 163.37 79.17 163.57 C 77.62 164.59 76.88 166.15 76.78 167.98 Z" />
</g>
<g id="#cd8f81ff">
<path fill="#cd8f81" opacity="1.00" d=" M 79.17 163.57 C 79.36 163.37 79.75 162.96 79.94 162.76 C 82.96 162.52 81.69 166.04 82.06 167.93 C 81.30 167.94 79.78 167.95 79.02 167.96 C 79.11 166.50 79.25 165.04 79.17 163.57 Z" />
</g>
<g id="#e1a491fa">
<path fill="#e1a491" opacity="0.98" d=" M 83.82 167.90 C 84.43 165.57 85.63 163.52 88.06 162.81 C 88.03 164.55 88.01 166.29 88.00 168.03 L 87.97 169.01 C 87.55 168.93 86.70 168.77 86.28 168.69 C 85.67 168.49 84.44 168.10 83.82 167.90 Z" />
</g>
<g id="#c68575ff">
<path fill="#c68575" opacity="1.00" d=" M 88.06 162.81 C 89.32 164.35 90.10 166.20 91.02 167.95 C 90.27 167.97 88.76 168.01 88.00 168.03 C 88.01 166.29 88.03 164.55 88.06 162.81 Z" />
</g>
<g id="#df9e8dff">
<path fill="#df9e8d" opacity="1.00" d=" M 91.85 167.94 C 91.53 165.81 94.10 161.61 96.15 163.61 C 95.05 165.06 93.97 166.52 92.82 167.94 L 91.85 167.94 Z" />
</g>
<g id="#eeb6a5ff">
<path fill="#eeb6a5" opacity="1.00" d=" M 76.78 167.98 C 76.88 166.15 77.62 164.59 79.17 163.57 C 79.25 165.04 79.11 166.50 79.02 167.96 C 78.46 167.97 77.34 167.97 76.78 167.98 Z" />
</g>
<g id="#ebb7a9ff">
<path fill="#ebb7a9" opacity="1.00" d=" M 92.82 167.94 C 93.97 166.52 95.05 165.06 96.15 163.61 C 97.03 164.98 97.68 166.49 98.30 168.00 C 96.47 167.99 94.65 167.97 92.82 167.94 Z" />
</g>
<g id="#140e0c4d">
<path fill="#140e0c" opacity="0.30" d=" M 76.78 167.98 C 77.34 167.97 78.46 167.97 79.02 167.96 C 79.78 167.95 81.30 167.94 82.06 167.93 C 82.50 167.92 83.38 167.91 83.82 167.90 C 84.44 168.10 85.67 168.49 86.28 168.69 C 83.56 168.07 78.34 170.54 76.78 167.98 Z" />
</g>
<g id="#291c196d">
<path fill="#291c19" opacity="0.43" d=" M 88.00 168.03 C 88.76 168.01 90.27 167.97 91.02 167.95 L 91.85 167.94 L 92.82 167.94 C 94.65 167.97 96.47 167.99 98.30 168.00 C 96.49 170.78 91.09 168.32 87.97 169.01 L 88.00 168.03 Z" />
</g>
</svg>
