<?xml version="1.0" encoding="UTF-8" ?>
<!DOCTYPE svg PUBLIC "-//W3C//DTD SVG 1.1//EN" "http://www.w3.org/Graphics/SVG/1.1/DTD/svg11.dtd">
<svg width="254pt" height="199pt" viewBox="0 0 254 199" version="1.1" xmlns="http://www.w3.org/2000/svg">
<g id="#ffe261ff">
<path fill="#ffe261" opacity="1.00" d=" M 207.34 0.00 L 207.69 0.00 C 209.96 1.28 212.52 -0.10 214.94 0.17 C 219.17 0.61 223.29 1.78 227.50 2.36 C 232.55 3.07 237.64 4.09 242.17 6.54 C 240.00 6.50 237.85 6.24 235.72 5.87 C 230.96 2.66 225.00 3.97 219.64 3.13 C 213.82 2.15 207.91 2.45 202.05 2.53 C 194.63 2.69 187.37 4.71 179.94 4.64 C 174.78 4.57 169.65 5.11 164.56 5.87 C 170.71 3.56 177.36 3.60 183.84 3.54 C 191.64 2.16 199.68 1.88 207.34 0.00 Z" />
<path fill="#ffe261" opacity="1.00" d=" M 23.88 10.86 C 30.84 12.09 36.94 16.32 42.16 20.90 C 44.14 22.29 43.91 24.56 43.41 26.63 C 46.19 26.72 48.54 25.34 50.51 23.50 C 51.32 24.21 52.09 24.96 52.98 25.59 C 54.43 25.03 55.77 24.23 57.13 23.48 C 55.64 22.22 53.99 21.16 52.28 20.23 C 53.56 19.94 54.84 19.56 56.15 19.45 C 58.43 19.68 60.79 21.19 62.91 19.58 C 65.98 20.80 69.27 21.39 72.56 21.51 C 75.11 23.30 77.03 25.78 78.64 28.41 C 81.61 30.78 83.92 33.80 86.53 36.54 C 83.33 40.47 81.08 45.06 77.87 48.98 C 74.21 44.90 69.76 41.52 66.71 36.91 C 60.61 35.54 57.41 29.41 52.05 26.73 C 48.57 27.08 45.30 28.98 41.67 28.75 C 41.95 27.49 42.42 26.24 42.37 24.93 C 40.78 22.83 38.75 21.13 36.90 19.27 C 33.27 15.47 28.16 13.76 23.88 10.86 Z" />
</g>
<g id="#ffa94cff">
<path fill="#ffa94c" opacity="1.00" d=" M 179.94 4.64 C 187.37 4.71 194.63 2.69 202.05 2.53 C 207.91 2.45 213.82 2.15 219.64 3.13 C 225.00 3.97 230.96 2.66 235.72 5.87 C 224.74 5.29 213.67 3.22 202.69 4.88 C 198.61 5.07 194.52 5.41 190.52 6.26 C 183.49 7.93 176.12 7.03 169.19 9.20 C 162.64 11.19 156.27 13.75 149.73 15.79 C 145.52 17.09 141.55 19.01 137.69 21.13 C 131.94 21.81 126.61 24.99 122.60 29.08 C 120.59 29.82 118.65 30.75 116.71 31.64 C 116.30 30.24 114.53 28.47 116.34 27.35 C 118.30 25.87 120.76 25.28 122.88 24.06 C 126.59 22.27 129.26 18.88 133.11 17.33 C 143.14 12.35 154.09 9.74 164.56 5.87 C 169.65 5.11 174.78 4.57 179.94 4.64 Z" />
</g>
<g id="#9e5927b4">
<path fill="#9e5927" opacity="0.71" d=" M 190.52 6.26 C 194.52 5.41 198.61 5.07 202.69 4.88 C 199.32 5.77 195.84 6.01 192.42 6.63 C 191.95 6.53 190.99 6.35 190.52 6.26 Z" />
</g>
<g id="#0f747eff">
<path fill="#0f747e" opacity="1.00" d=" M 169.19 9.20 C 176.12 7.03 183.49 7.93 190.52 6.26 C 190.99 6.35 191.95 6.53 192.42 6.63 C 187.33 8.62 181.34 10.40 178.75 15.72 C 177.08 18.47 179.36 21.37 180.16 24.02 C 178.50 23.82 176.85 23.62 175.21 23.39 C 169.46 24.29 164.44 27.43 159.96 30.97 C 151.45 37.85 147.67 48.78 145.59 59.17 C 145.10 64.70 140.62 68.49 137.37 72.57 C 137.83 70.75 138.23 68.91 138.65 67.08 C 136.35 65.25 133.98 63.15 130.96 62.70 C 128.56 62.74 126.23 63.37 123.89 63.85 C 124.40 61.96 124.68 60.03 124.98 58.10 C 127.18 53.16 130.63 48.59 131.07 43.05 C 131.79 38.02 131.73 32.86 130.40 27.94 C 132.79 25.62 135.03 23.14 137.69 21.13 C 141.55 19.01 145.52 17.09 149.73 15.79 C 156.27 13.75 162.64 11.19 169.19 9.20 Z" />
<path fill="#0f747e" opacity="1.00" d=" M 76.22 68.06 C 76.63 68.44 76.63 68.44 76.22 68.06 Z" />
</g>
<g id="#ffff6fff">
<path fill="#ffff6f" opacity="1.00" d=" M 23.88 10.86 C 37.31 10.29 50.60 14.39 62.91 19.58 C 60.79 21.19 58.43 19.68 56.15 19.45 C 54.84 19.56 53.56 19.94 52.28 20.23 C 53.99 21.16 55.64 22.22 57.13 23.48 C 55.77 24.23 54.43 25.03 52.98 25.59 C 52.09 24.96 51.32 24.21 50.51 23.50 C 48.54 25.34 46.19 26.72 43.41 26.63 C 43.91 24.56 44.14 22.29 42.16 20.90 C 36.94 16.32 30.84 12.09 23.88 10.86 Z" />
</g>
<g id="#dad75eda">
<path fill="#dad75e" opacity="0.85" d=" M 11.36 11.89 C 14.99 10.04 19.30 11.39 23.22 11.05 C 19.51 12.96 15.32 12.30 11.36 11.89 Z" />
</g>
<g id="#ffa649ff">
<path fill="#ffa649" opacity="1.00" d=" M 23.22 11.05 L 23.88 10.86 C 28.16 13.76 33.27 15.47 36.90 19.27 C 38.75 21.13 40.78 22.83 42.37 24.93 C 42.42 26.24 41.95 27.49 41.67 28.75 C 45.30 28.98 48.57 27.08 52.05 26.73 C 57.41 29.41 60.61 35.54 66.71 36.91 C 69.76 41.52 74.21 44.90 77.87 48.98 C 81.08 45.06 83.33 40.47 86.53 36.54 C 86.95 36.09 87.79 35.19 88.21 34.75 C 90.07 36.27 89.49 38.40 88.59 40.30 C 86.81 44.11 85.18 48.01 83.89 52.02 C 82.98 55.83 77.93 55.74 76.11 52.74 C 75.82 52.41 75.26 51.76 74.97 51.44 C 72.96 49.07 70.66 46.98 68.56 44.69 C 69.00 46.35 69.38 48.01 69.79 49.68 C 68.22 52.53 65.63 54.31 62.47 54.97 C 62.30 50.27 64.31 45.67 63.94 41.05 C 58.93 36.31 53.21 32.06 46.98 29.06 C 45.61 29.98 44.22 30.87 42.82 31.75 C 42.07 31.01 41.28 30.29 40.61 29.47 C 40.80 28.47 41.64 27.57 41.51 26.54 C 39.49 24.53 37.54 22.47 35.59 20.40 C 32.81 17.95 29.17 16.84 26.18 14.71 C 25.76 14.36 24.94 13.67 24.53 13.32 C 19.39 14.15 14.14 15.18 9.01 13.65 C 9.77 13.04 10.55 12.45 11.36 11.89 C 15.32 12.30 19.51 12.96 23.22 11.05 Z" />
</g>
<g id="#a66534ff">
<path fill="#a66534" opacity="1.00" d=" M 9.01 13.65 C 14.14 15.18 19.39 14.15 24.53 13.32 C 24.94 13.67 25.76 14.36 26.18 14.71 C 23.78 14.62 21.40 15.00 19.01 15.06 C 17.12 15.14 15.17 15.12 13.37 15.82 C 14.42 17.59 15.54 19.31 16.43 21.16 C 12.76 19.95 10.01 17.23 7.86 14.12 C 8.14 14.01 8.72 13.77 9.01 13.65 Z" />
</g>
<g id="#0d6065ff">
<path fill="#0d6065" opacity="1.00" d=" M 13.37 15.82 C 15.17 15.12 17.12 15.14 19.01 15.06 C 18.10 16.03 17.19 16.99 16.27 17.95 C 16.32 19.02 16.37 20.09 16.43 21.16 C 15.54 19.31 14.42 17.59 13.37 15.82 Z" />
<path fill="#0d6065" opacity="1.00" d=" M 123.89 63.85 C 126.23 63.37 128.56 62.74 130.96 62.70 C 133.98 63.15 136.35 65.25 138.65 67.08 C 138.23 68.91 137.83 70.75 137.37 72.57 C 132.95 77.93 130.74 84.70 127.75 90.90 C 126.92 89.36 126.27 87.72 125.58 86.11 C 126.00 85.74 126.86 85.00 127.28 84.62 C 127.26 84.06 127.23 83.50 127.21 82.94 C 131.13 80.55 134.58 74.28 130.78 70.34 C 128.81 68.04 125.87 67.00 122.89 67.32 C 123.23 66.16 123.57 65.01 123.89 63.85 Z" />
</g>
<g id="#d57c36ff">
<path fill="#d57c36" opacity="1.00" d=" M 122.60 29.08 C 126.61 24.99 131.94 21.81 137.69 21.13 C 135.03 23.14 132.79 25.62 130.40 27.94 C 131.73 32.86 131.79 38.02 131.07 43.05 C 130.63 48.59 127.18 53.16 124.98 58.10 C 124.36 58.96 123.76 59.84 123.18 60.74 C 122.32 62.07 121.56 63.46 120.91 64.91 C 120.25 64.13 119.59 63.36 118.94 62.59 C 117.74 63.38 116.54 64.18 115.33 64.98 C 115.67 63.23 115.45 61.12 117.02 59.90 C 122.56 54.35 126.54 46.89 127.03 38.97 C 127.21 35.33 126.25 31.76 125.48 28.24 C 124.52 28.51 123.56 28.79 122.60 29.08 Z" />
</g>
<g id="#ffe762ff">
<path fill="#ffe762" opacity="1.00" d=" M 83.89 52.02 C 85.18 48.01 86.81 44.11 88.59 40.30 C 90.96 43.40 92.93 46.81 94.26 50.49 C 96.07 55.44 98.45 60.20 99.71 65.33 C 97.43 64.02 95.43 62.30 93.72 60.31 C 91.07 57.20 86.97 56.14 83.54 54.20 C 83.63 53.65 83.80 52.57 83.89 52.02 Z" />
</g>
<g id="#ffd55dff">
<path fill="#ffd55d" opacity="1.00" d=" M 69.79 49.68 C 69.91 50.15 70.15 51.10 70.27 51.58 C 71.84 51.51 73.40 51.45 74.97 51.44 C 75.26 51.76 75.82 52.41 76.11 52.74 C 73.59 55.35 71.43 58.68 67.80 59.81 C 65.36 60.73 62.72 60.24 60.19 60.12 C 60.27 59.46 60.44 58.16 60.52 57.51 C 61.09 56.77 61.65 56.03 62.21 55.28 L 62.47 54.97 C 65.63 54.31 68.22 52.53 69.79 49.68 Z" />
</g>
<g id="#ffaf4dff">
<path fill="#ffaf4d" opacity="1.00" d=" M 76.11 52.74 C 77.93 55.74 82.98 55.83 83.89 52.02 C 83.80 52.57 83.63 53.65 83.54 54.20 C 86.97 56.14 91.07 57.20 93.72 60.31 C 95.43 62.30 97.43 64.02 99.71 65.33 C 103.40 68.76 107.14 72.23 111.56 74.69 L 112.45 75.20 C 114.42 76.02 115.63 77.91 115.25 80.09 C 109.84 79.85 106.88 74.74 101.82 73.64 C 98.16 71.84 94.88 69.21 90.94 68.02 C 89.64 67.31 88.69 68.15 88.18 69.29 L 87.72 70.56 C 87.59 70.91 87.31 71.63 87.17 71.98 C 86.74 71.87 85.89 71.65 85.46 71.54 C 84.29 72.02 83.12 72.55 81.89 72.88 C 79.74 73.09 78.36 71.08 76.77 69.99 C 78.19 69.06 79.58 68.11 80.98 67.15 C 80.23 66.44 79.49 65.72 78.76 64.99 C 78.68 64.44 78.51 63.35 78.43 62.80 C 76.66 64.57 74.89 66.36 73.44 68.41 C 73.47 67.19 73.50 65.96 73.53 64.74 C 69.24 65.67 64.36 66.38 61.34 69.90 C 60.65 68.27 59.97 66.63 59.28 65.00 C 57.95 62.54 57.93 59.14 60.52 57.51 C 60.44 58.16 60.27 59.46 60.19 60.12 C 62.72 60.24 65.36 60.73 67.80 59.81 C 71.43 58.68 73.59 55.35 76.11 52.74 Z" />
</g>
<g id="#0c5458ff">
<path fill="#0c5458" opacity="1.00" d=" M 123.18 60.74 C 123.76 59.84 124.36 58.96 124.98 58.10 C 124.68 60.03 124.40 61.96 123.89 63.85 C 123.57 65.01 123.23 66.16 122.89 67.32 C 125.87 67.00 128.81 68.04 130.78 70.34 C 134.58 74.28 131.13 80.55 127.21 82.94 C 127.23 83.50 127.26 84.06 127.28 84.62 C 126.86 85.00 126.00 85.74 125.58 86.11 C 124.76 84.27 123.59 82.61 122.32 81.06 C 121.30 79.52 120.41 77.89 119.56 76.26 C 123.01 71.82 120.90 65.70 123.18 60.74 Z" />
<path fill="#0c5458" opacity="1.00" d=" M 54.65 104.69 C 54.65 104.57 54.64 104.31 54.64 104.19 L 54.65 104.69 Z" />
</g>
<g id="#333429ff">
<path fill="#333429" opacity="1.00" d=" M 120.91 64.91 C 121.56 63.46 122.32 62.07 123.18 60.74 C 120.90 65.70 123.01 71.82 119.56 76.26 C 120.41 77.89 121.30 79.52 122.32 81.06 C 120.58 79.83 118.51 78.75 117.79 76.60 C 120.34 73.22 119.96 68.83 120.91 64.91 Z" />
</g>
<g id="#6a2615ff">
<path fill="#6a2615" opacity="1.00" d=" M 73.44 68.41 C 74.89 66.36 76.66 64.57 78.43 62.80 C 78.51 63.35 78.68 64.44 78.76 64.99 C 76.99 63.98 76.50 66.61 77.64 67.51 C 79.21 68.93 79.52 65.82 78.76 64.99 C 79.49 65.72 80.23 66.44 80.98 67.15 C 79.58 68.11 78.19 69.06 76.77 69.99 C 74.89 71.20 72.95 72.31 70.95 73.32 C 71.71 71.65 72.51 69.99 73.44 68.41 M 76.22 68.06 C 76.63 68.44 76.63 68.44 76.22 68.06 Z" />
<path fill="#6a2615" opacity="1.00" d=" M 63.55 87.11 L 63.90 87.22 C 64.25 87.69 64.95 88.61 65.30 89.07 C 65.68 88.50 66.05 87.93 66.43 87.37 C 67.48 88.71 68.57 90.02 69.71 91.28 C 68.46 91.81 67.19 92.29 65.94 92.81 L 65.66 92.92 C 65.17 92.58 64.18 91.89 63.69 91.55 C 63.65 90.06 63.61 88.58 63.55 87.11 Z" />
<path fill="#6a2615" opacity="1.00" d=" M 124.26 124.63 C 124.71 124.44 125.61 124.07 126.06 123.88 C 126.94 129.38 124.52 134.77 123.86 140.20 C 123.21 142.18 122.47 144.15 121.90 146.16 C 122.12 144.13 122.33 142.09 122.56 140.06 C 123.06 135.95 124.09 131.94 125.15 127.95 L 125.32 127.10 C 125.05 126.48 124.52 125.24 124.26 124.63 Z" />
</g>
<g id="#a85925ff">
<path fill="#a85925" opacity="1.00" d=" M 115.33 64.98 C 116.54 64.18 117.74 63.38 118.94 62.59 C 119.59 63.36 120.25 64.13 120.91 64.91 C 119.96 68.83 120.34 73.22 117.79 76.60 C 116.47 74.67 115.04 72.82 113.88 70.78 C 114.49 68.88 115.03 66.95 115.33 64.98 Z" />
</g>
<g id="#d77d37ff">
<path fill="#d77d37" opacity="1.00" d=" M 59.28 65.00 C 59.97 66.63 60.65 68.27 61.34 69.90 C 62.34 72.40 64.30 74.28 66.24 76.07 C 64.84 77.58 63.42 79.08 61.97 80.54 C 63.21 83.31 65.67 85.91 69.01 85.12 C 67.33 85.86 65.63 86.57 63.90 87.22 L 63.55 87.11 C 61.46 86.41 59.39 85.65 57.37 84.78 C 57.10 83.13 56.83 81.49 56.64 79.83 C 59.85 75.52 57.62 69.85 59.28 65.00 Z" />
</g>
<g id="#fd8c3cff">
<path fill="#fd8c3c" opacity="1.00" d=" M 61.34 69.90 C 64.36 66.38 69.24 65.67 73.53 64.74 C 73.50 65.96 73.47 67.19 73.44 68.41 C 72.51 69.99 71.71 71.65 70.95 73.32 C 72.95 72.31 74.89 71.20 76.77 69.99 C 78.36 71.08 79.74 73.09 81.89 72.88 C 83.12 72.55 84.29 72.02 85.46 71.54 C 85.89 71.65 86.74 71.87 87.17 71.98 C 85.53 75.33 81.16 74.15 78.89 76.75 C 75.44 79.36 73.02 83.28 69.01 85.12 C 65.67 85.91 63.21 83.31 61.97 80.54 C 63.42 79.08 64.84 77.58 66.24 76.07 C 64.30 74.28 62.34 72.40 61.34 69.90 M 66.35 82.22 C 65.10 83.67 67.71 84.72 68.52 83.41 C 69.87 81.97 67.14 80.83 66.35 82.22 Z" />
</g>
<g id="#cdb9b4ff">
<path fill="#cdb9b4" opacity="1.00" d=" M 77.64 67.51 C 76.50 66.61 76.99 63.98 78.76 64.99 C 79.52 65.82 79.21 68.93 77.64 67.51 Z" />
</g>
<g id="#e7883cff">
<path fill="#e7883c" opacity="1.00" d=" M 88.18 69.29 C 88.69 68.15 89.64 67.31 90.94 68.02 C 94.88 69.21 98.16 71.84 101.82 73.64 C 102.82 75.24 103.88 76.80 104.99 78.32 C 104.54 82.91 100.25 85.17 96.87 87.54 C 92.78 89.97 87.79 92.09 83.11 89.96 C 83.12 89.29 83.16 87.93 83.18 87.25 C 86.84 90.18 92.00 89.17 95.55 86.58 C 97.68 85.00 100.28 82.96 99.99 79.99 C 100.17 78.08 99.20 76.35 97.73 75.21 C 94.85 72.80 91.57 70.91 88.18 69.29 Z" />
</g>
<g id="#ce7937ff">
<path fill="#ce7937" opacity="1.00" d=" M 88.18 69.29 C 91.57 70.91 94.85 72.80 97.73 75.21 C 99.20 76.35 100.17 78.08 99.99 79.99 C 100.28 82.96 97.68 85.00 95.55 86.58 C 92.00 89.17 86.84 90.18 83.18 87.25 C 83.27 85.78 83.42 84.31 83.51 82.84 C 84.12 84.29 84.03 86.74 86.10 86.85 C 89.87 87.96 93.45 85.17 94.93 81.88 C 93.79 77.43 90.51 74.04 87.72 70.56 L 88.18 69.29 Z" />
</g>
<g id="#bf642eff">
<path fill="#bf642e" opacity="1.00" d=" M 87.17 71.98 C 87.31 71.63 87.59 70.91 87.72 70.56 C 90.51 74.04 93.79 77.43 94.93 81.88 C 93.45 85.17 89.87 87.96 86.10 86.85 C 84.03 86.74 84.12 84.29 83.51 82.84 C 83.56 81.13 83.59 79.42 83.59 77.71 C 79.27 81.55 80.50 87.78 79.63 92.92 L 78.88 92.86 C 78.45 91.76 78.06 90.64 77.67 89.52 C 76.75 89.68 75.83 89.84 74.92 90.00 C 76.49 86.67 77.83 83.25 78.92 79.73 C 79.41 78.72 79.91 77.71 80.39 76.70 L 78.89 76.75 C 81.16 74.15 85.53 75.33 87.17 71.98 Z" />
</g>
<g id="#f08036ff">
<path fill="#f08036" opacity="1.00" d=" M 112.45 75.20 C 112.93 73.72 113.41 72.25 113.88 70.78 C 115.04 72.82 116.47 74.67 117.79 76.60 C 118.51 78.75 120.58 79.83 122.32 81.06 C 123.59 82.61 124.76 84.27 125.58 86.11 C 126.27 87.72 126.92 89.36 127.75 90.90 C 129.18 93.25 130.72 95.54 131.84 98.06 C 130.24 99.76 128.41 101.21 126.49 102.52 L 126.01 101.69 C 125.96 96.62 122.16 91.72 117.08 90.89 C 117.15 91.37 117.29 92.32 117.36 92.80 C 118.01 97.21 119.13 101.58 119.06 106.07 C 118.19 106.12 116.46 106.23 115.59 106.28 C 112.75 102.29 115.14 97.51 114.83 93.10 C 114.04 89.19 111.50 85.68 111.95 81.53 C 113.06 81.06 114.16 80.58 115.25 80.09 C 115.63 77.91 114.42 76.02 112.45 75.20 Z" />
</g>
<g id="#ff8f3dff">
<path fill="#ff8f3d" opacity="1.00" d=" M 101.82 73.64 C 106.88 74.74 109.84 79.85 115.25 80.09 C 114.16 80.58 113.06 81.06 111.95 81.53 C 111.50 85.68 114.04 89.19 114.83 93.10 C 115.14 97.51 112.75 102.29 115.59 106.28 C 114.96 107.12 114.34 107.95 113.72 108.79 C 113.35 108.70 112.62 108.51 112.25 108.41 C 110.83 106.53 108.93 105.12 106.87 104.03 C 107.32 104.05 108.21 104.10 108.66 104.13 C 106.22 100.76 105.67 96.59 104.14 92.83 C 102.84 89.85 99.70 88.59 96.87 87.54 C 100.25 85.17 104.54 82.91 104.99 78.32 C 103.88 76.80 102.82 75.24 101.82 73.64 Z" />
</g>
<g id="#9a403bff">
<path fill="#9a403b" opacity="1.00" d=" M 69.01 85.12 C 73.02 83.28 75.44 79.36 78.89 76.75 L 80.39 76.70 C 79.91 77.71 79.41 78.72 78.92 79.73 C 75.42 83.26 74.33 88.90 69.71 91.28 C 68.57 90.02 67.48 88.71 66.43 87.37 C 66.05 87.93 65.68 88.50 65.30 89.07 C 64.95 88.61 64.25 87.69 63.90 87.22 C 65.63 86.57 67.33 85.86 69.01 85.12 Z" />
</g>
<g id="#ff9f46ff">
<path fill="#ff9f46" opacity="1.00" d=" M 79.63 92.92 C 80.50 87.78 79.27 81.55 83.59 77.71 C 83.59 79.42 83.56 81.13 83.51 82.84 C 83.42 84.31 83.27 85.78 83.18 87.25 C 83.16 87.93 83.12 89.29 83.11 89.96 C 87.79 92.09 92.78 89.97 96.87 87.54 C 99.70 88.59 102.84 89.85 104.14 92.83 C 105.67 96.59 106.22 100.76 108.66 104.13 C 108.21 104.10 107.32 104.05 106.87 104.03 C 98.46 99.92 88.78 97.53 79.52 99.99 C 79.50 99.44 79.48 98.35 79.46 97.80 C 79.58 96.17 79.60 94.55 79.63 92.92 Z" />
</g>
<g id="#9e5121ff">
<path fill="#9e5121" opacity="1.00" d=" M 69.71 91.28 C 74.33 88.90 75.42 83.26 78.92 79.73 C 77.83 83.25 76.49 86.67 74.92 90.00 C 75.83 89.84 76.75 89.68 77.67 89.52 C 78.06 90.64 78.45 91.76 78.88 92.86 C 73.77 93.14 71.66 98.35 67.76 100.78 C 68.46 97.85 70.29 95.47 72.14 93.18 C 70.29 92.97 68.44 92.77 66.58 92.64 L 65.94 92.81 C 67.19 92.29 68.46 91.81 69.71 91.28 Z" />
<path fill="#9e5121" opacity="1.00" d=" M 117.08 90.89 C 122.16 91.72 125.96 96.62 126.01 101.69 C 122.94 98.92 119.93 96.05 117.36 92.80 C 117.29 92.32 117.15 91.37 117.08 90.89 Z" />
</g>
<g id="#bd6321ff">
<path fill="#bd6321" opacity="1.00" d=" M 66.35 82.22 C 67.14 80.83 69.87 81.97 68.52 83.41 C 67.71 84.72 65.10 83.67 66.35 82.22 Z" />
</g>
<g id="#ff9e44ff">
<path fill="#ff9e44" opacity="1.00" d=" M 65.66 92.92 L 65.94 92.81 L 66.58 92.64 C 66.50 95.30 66.57 97.95 66.89 100.59 L 66.31 99.90 C 64.93 98.65 64.24 95.95 61.96 96.33 C 60.52 96.31 59.08 96.42 57.65 96.52 C 57.40 97.67 57.16 98.82 56.93 99.97 C 56.72 101.02 56.53 102.07 56.35 103.13 L 54.94 103.35 C 52.54 102.54 51.79 99.96 50.68 97.97 C 53.81 92.23 61.28 96.58 65.66 92.92 Z" />
</g>
<g id="#cb682aff">
<path fill="#cb682a" opacity="1.00" d=" M 66.58 92.64 C 68.44 92.77 70.29 92.97 72.14 93.18 C 70.29 95.47 68.46 97.85 67.76 100.78 L 67.50 101.33 C 67.34 101.15 67.04 100.78 66.89 100.59 C 66.57 97.95 66.50 95.30 66.58 92.64 Z" />
</g>
<g id="#dc7630ff">
<path fill="#dc7630" opacity="1.00" d=" M 117.36 92.80 C 119.93 96.05 122.94 98.92 126.01 101.69 L 126.49 102.52 C 124.24 104.17 122.12 106.42 119.06 106.07 C 119.13 101.58 118.01 97.21 117.36 92.80 Z" />
</g>
<g id="#d87934ff">
<path fill="#d87934" opacity="1.00" d=" M 57.65 96.52 C 59.08 96.42 60.52 96.31 61.96 96.33 C 64.24 95.95 64.93 98.65 66.31 99.90 C 65.97 100.07 65.28 100.41 64.94 100.57 L 64.39 101.53 C 63.29 100.51 62.19 99.50 61.09 98.49 C 59.70 98.99 58.31 99.48 56.93 99.97 C 57.16 98.82 57.40 97.67 57.65 96.52 Z" />
</g>
<g id="#ab642ce3">
<path fill="#ab642c" opacity="0.89" d=" M 49.16 101.52 C 49.64 100.32 50.15 99.14 50.68 97.97 C 51.79 99.96 52.54 102.54 54.94 103.35 L 54.64 104.19 C 54.64 104.31 54.65 104.57 54.65 104.69 L 54.94 105.35 C 54.66 106.95 54.12 108.48 53.68 110.04 C 53.57 109.59 53.37 108.68 53.27 108.22 C 53.69 105.20 52.13 102.41 49.16 101.52 Z" />
</g>
<g id="#b36122f6">
<path fill="#b36122" opacity="0.96" d=" M 78.02 106.34 C 78.12 103.44 78.64 100.58 79.46 97.80 C 79.48 98.35 79.50 99.44 79.52 99.99 C 88.78 97.53 98.46 99.92 106.87 104.03 C 108.93 105.12 110.83 106.53 112.25 108.41 C 111.79 108.30 110.85 108.09 110.38 107.99 C 102.40 103.39 93.39 99.55 83.96 100.67 C 81.19 100.96 79.49 103.40 78.29 105.65 L 78.02 106.34 Z" />
<path fill="#b36122" opacity="0.96" d=" M 136.83 176.44 C 139.14 176.38 141.41 176.84 143.67 177.28 C 143.37 178.33 143.07 179.38 142.77 180.44 C 141.74 180.46 140.72 180.49 139.69 180.53 C 138.72 179.18 137.77 177.82 136.83 176.44 Z" />
</g>
<g id="#fe9a43ff">
<path fill="#fe9a43" opacity="1.00" d=" M 131.84 98.06 C 132.26 99.15 132.64 100.25 133.05 101.34 C 129.96 107.03 126.90 113.01 127.03 119.66 C 126.11 119.62 125.19 119.59 124.27 119.55 C 123.80 117.84 123.33 116.13 122.86 114.42 C 122.65 114.50 122.25 114.65 122.04 114.73 C 117.75 115.76 114.35 118.67 110.51 120.65 L 109.80 120.10 C 110.65 117.85 111.75 115.71 113.01 113.66 C 114.15 112.41 115.14 111.03 115.90 109.52 C 115.36 109.34 114.26 108.98 113.72 108.79 C 114.34 107.95 114.96 107.12 115.59 106.28 C 116.46 106.23 118.19 106.12 119.06 106.07 C 122.12 106.42 124.24 104.17 126.49 102.52 C 128.41 101.21 130.24 99.76 131.84 98.06 Z" />
</g>
<g id="#93451aff">
<path fill="#93451a" opacity="1.00" d=" M 56.93 99.97 C 58.31 99.48 59.70 98.99 61.09 98.49 C 62.19 99.50 63.29 100.51 64.39 101.53 C 64.02 102.22 63.65 102.91 63.27 103.60 C 61.40 104.16 59.53 104.71 57.65 105.26 C 57.24 104.53 56.81 103.82 56.35 103.13 C 56.53 102.07 56.72 101.02 56.93 99.97 Z" />
<path fill="#93451a" opacity="1.00" d=" M 78.22 135.90 C 76.71 133.40 77.73 130.38 77.74 127.65 C 78.47 134.03 82.07 139.44 86.43 143.96 C 82.61 142.66 80.26 139.16 78.22 135.90 Z" />
<path fill="#93451a" opacity="1.00" d=" M 144.52 150.35 C 146.25 149.72 147.53 151.21 148.78 152.14 C 154.02 156.58 159.52 160.72 164.64 165.30 C 170.82 170.90 176.82 176.79 183.95 181.21 C 193.73 187.03 204.24 191.53 215.08 194.97 C 219.06 196.42 223.24 197.19 227.42 197.79 L 226.66 198.58 C 225.00 197.54 222.79 197.01 221.14 198.37 C 220.92 198.36 220.47 198.33 220.24 198.32 C 217.20 195.39 212.75 195.26 208.99 193.78 C 202.63 191.93 196.84 188.70 190.78 186.13 C 184.62 183.31 178.68 179.81 173.67 175.21 C 164.29 166.93 155.23 158.17 144.67 151.38 L 144.52 150.35 Z" />
</g>
<g id="#c8a599ff">
<path fill="#c8a599" opacity="1.00" d=" M 64.94 100.57 C 65.28 100.41 65.97 100.07 66.31 99.90 L 66.89 100.59 C 67.04 100.78 67.34 101.15 67.50 101.33 C 67.00 102.41 66.55 103.51 66.09 104.61 C 65.16 104.26 64.23 103.90 63.27 103.60 C 63.65 102.91 64.02 102.22 64.39 101.53 L 64.94 100.57 Z" />
<path fill="#c8a599" opacity="1.00" d=" M 73.37 180.30 C 73.60 176.63 74.72 173.06 77.23 170.30 C 77.77 172.31 78.38 174.30 78.96 176.29 C 77.17 177.73 75.27 179.01 73.37 180.30 Z" />
</g>
<g id="#ffd792ff">
<path fill="#ffd792" opacity="1.00" d=" M 78.29 105.65 C 79.49 103.40 81.19 100.96 83.96 100.67 C 93.39 99.55 102.40 103.39 110.38 107.99 C 109.46 109.68 108.52 111.36 107.58 113.03 C 107.80 114.62 108.02 116.21 108.24 117.80 C 109.73 116.31 111.32 114.93 113.01 113.66 C 111.75 115.71 110.65 117.85 109.80 120.10 C 109.75 120.86 109.63 122.37 109.58 123.13 C 110.08 123.42 111.09 124.00 111.60 124.29 C 109.85 126.08 108.82 128.38 107.48 130.47 C 105.56 131.83 103.29 132.68 100.99 133.16 C 97.41 132.12 94.20 129.95 91.26 127.72 C 85.74 121.11 82.67 112.97 78.29 105.65 Z" />
</g>
<g id="#e5813bff">
<path fill="#e5813b" opacity="1.00" d=" M 49.16 101.52 C 52.13 102.41 53.69 105.20 53.27 108.22 C 52.29 109.15 51.31 110.07 50.33 110.99 C 47.93 108.36 47.41 104.65 49.16 101.52 Z" />
</g>
<g id="#da712fff">
<path fill="#da712f" opacity="1.00" d=" M 127.03 119.66 C 126.90 113.01 129.96 107.03 133.05 101.34 L 133.50 102.53 C 133.00 104.23 132.42 105.92 131.89 107.61 C 130.21 112.07 131.24 116.82 132.47 121.24 C 133.89 125.33 129.62 128.19 128.96 131.98 C 127.40 138.10 124.92 145.37 128.82 151.12 C 131.30 155.32 136.95 154.79 140.37 157.72 C 143.56 160.52 142.32 165.26 144.33 168.68 C 145.68 171.07 146.77 173.60 147.31 176.31 C 146.37 175.54 145.42 174.79 144.46 174.04 C 144.34 174.54 144.11 175.53 144.00 176.03 C 143.92 176.34 143.75 176.97 143.67 177.28 C 141.41 176.84 139.14 176.38 136.83 176.44 L 136.01 176.71 C 136.53 175.10 135.79 173.56 135.46 172.02 C 135.77 170.97 136.34 170.03 136.82 169.05 C 138.06 168.63 139.29 168.16 140.50 167.64 C 140.94 167.45 141.81 167.07 142.24 166.88 C 140.93 164.10 140.01 160.65 137.02 159.19 C 133.37 157.25 129.07 155.82 127.06 151.87 C 124.28 148.57 125.25 144.02 123.86 140.20 C 124.52 134.77 126.94 129.38 126.06 123.88 C 124.95 123.52 123.84 123.18 122.72 122.87 C 122.24 120.18 122.02 117.45 122.04 114.73 C 122.25 114.65 122.65 114.50 122.86 114.42 C 123.33 116.13 123.80 117.84 124.27 119.55 C 125.19 119.59 126.11 119.62 127.03 119.66 Z" />
</g>
<g id="#d1b3a0ff">
<path fill="#d1b3a0" opacity="1.00" d=" M 54.94 103.35 L 56.35 103.13 C 56.81 103.82 57.24 104.53 57.65 105.26 C 57.97 106.47 58.26 107.69 58.55 108.91 C 57.39 107.68 56.17 106.51 54.94 105.35 L 54.65 104.69 L 54.64 104.19 L 54.94 103.35 Z" />
<path fill="#d1b3a0" opacity="1.00" d=" M 136.01 176.71 L 136.83 176.44 C 137.77 177.82 138.72 179.18 139.69 180.53 C 138.90 183.21 137.75 185.77 136.05 188.01 C 134.93 184.91 133.62 181.64 134.69 178.34 C 135.02 177.93 135.68 177.11 136.01 176.71 Z" />
</g>
<g id="#ff9843ff">
<path fill="#ff9843" opacity="1.00" d=" M 133.50 102.53 C 134.30 104.44 135.15 106.34 135.96 108.25 C 134.09 112.34 135.95 116.61 137.84 120.29 C 142.06 128.10 141.81 137.25 142.33 145.87 C 142.48 148.56 142.91 151.34 144.51 153.60 C 144.93 155.07 145.47 156.52 146.18 157.88 C 148.03 160.92 149.15 164.34 149.41 167.89 C 149.41 168.78 149.43 170.56 149.43 171.44 C 147.66 169.17 145.82 166.94 143.87 164.82 C 144.16 162.95 144.63 161.08 144.56 159.18 C 142.72 155.47 140.01 152.10 135.73 151.28 C 135.43 151.01 134.84 150.46 134.55 150.18 C 135.34 148.82 135.35 147.43 134.57 146.03 C 134.39 145.60 134.03 144.75 133.85 144.32 C 133.26 146.52 132.84 148.76 132.48 151.01 C 130.66 147.66 130.11 143.43 131.89 139.95 C 132.81 138.06 134.91 137.34 136.60 136.33 C 138.16 131.28 138.88 125.54 136.42 120.65 C 134.40 116.49 133.01 112.08 131.89 107.61 C 132.42 105.92 133.00 104.23 133.50 102.53 Z" />
</g>
<g id="#e0b67dff">
<path fill="#e0b67d" opacity="1.00" d=" M 78.02 106.34 L 78.29 105.65 C 82.67 112.97 85.74 121.11 91.26 127.72 C 94.20 129.95 97.41 132.12 100.99 133.16 C 103.29 132.68 105.56 131.83 107.48 130.47 C 108.82 128.38 109.85 126.08 111.60 124.29 C 111.09 124.00 110.08 123.42 109.58 123.13 C 109.63 122.37 109.75 120.86 109.80 120.10 L 110.51 120.65 C 110.89 120.95 111.66 121.54 112.05 121.83 C 114.65 119.98 117.08 117.76 120.24 116.88 C 120.61 119.38 120.21 121.87 119.21 124.17 C 119.18 124.64 119.11 125.58 119.07 126.05 C 119.53 126.03 120.45 125.99 120.90 125.97 C 122.03 125.54 123.14 125.09 124.26 124.63 C 124.52 125.24 125.05 126.48 125.32 127.10 L 125.15 127.95 C 124.65 127.81 123.65 127.55 123.14 127.41 C 119.49 130.86 119.03 136.19 116.05 140.10 C 113.68 143.99 109.95 147.91 105.01 147.63 C 99.25 146.99 93.87 144.18 89.41 140.57 C 83.03 134.03 78.66 125.53 77.34 116.45 C 77.46 113.07 77.69 109.70 78.02 106.34 Z" />
</g>
<g id="#cb7232ff">
<path fill="#cb7232" opacity="1.00" d=" M 110.38 107.99 C 110.85 108.09 111.79 108.30 112.25 108.41 C 112.62 108.51 113.35 108.70 113.72 108.79 C 114.26 108.98 115.36 109.34 115.90 109.52 C 115.14 111.03 114.15 112.41 113.01 113.66 C 111.32 114.93 109.73 116.31 108.24 117.80 C 108.02 116.21 107.80 114.62 107.58 113.03 C 108.52 111.36 109.46 109.68 110.38 107.99 Z" />
</g>
<g id="#f28639ff">
<path fill="#f28639" opacity="1.00" d=" M 132.47 121.24 C 131.24 116.82 130.21 112.07 131.89 107.61 C 133.01 112.08 134.40 116.49 136.42 120.65 C 138.88 125.54 138.16 131.28 136.60 136.33 C 134.91 137.34 132.81 138.06 131.89 139.95 C 130.11 143.43 130.66 147.66 132.48 151.01 C 132.84 148.76 133.26 146.52 133.85 144.32 C 134.03 144.75 134.39 145.60 134.57 146.03 C 133.70 147.21 133.11 149.16 134.55 150.18 C 134.84 150.46 135.43 151.01 135.73 151.28 C 140.01 152.10 142.72 155.47 144.56 159.18 C 144.63 161.08 144.16 162.95 143.87 164.82 C 145.82 166.94 147.66 169.17 149.43 171.44 C 149.42 172.68 149.42 173.93 149.42 175.17 C 149.13 175.68 148.55 176.71 148.26 177.22 C 148.02 177.00 147.55 176.54 147.31 176.31 C 146.77 173.60 145.68 171.07 144.33 168.68 C 142.32 165.26 143.56 160.52 140.37 157.72 C 136.95 154.79 131.30 155.32 128.82 151.12 C 124.92 145.37 127.40 138.10 128.96 131.98 C 129.62 128.19 133.89 125.33 132.47 121.24 Z" />
</g>
<g id="#b6895eff">
<path fill="#b6895e" opacity="1.00" d=" M 50.33 110.99 C 51.31 110.07 52.29 109.15 53.27 108.22 C 53.37 108.68 53.57 109.59 53.68 110.04 C 53.91 110.95 54.18 111.85 54.46 112.74 C 53.07 112.18 51.68 111.62 50.33 110.99 Z" />
<path fill="#b6895e" opacity="1.00" d=" M 120.35 139.46 C 120.90 139.61 122.01 139.91 122.56 140.06 C 122.33 142.09 122.12 144.13 121.90 146.16 C 121.58 148.33 121.66 150.55 122.19 152.68 C 116.41 151.28 110.48 154.01 104.69 152.26 C 107.72 151.86 111.19 152.50 113.92 151.01 C 116.03 147.15 118.24 143.33 120.35 139.46 Z" />
</g>
<g id="#ffbc52ff">
<path fill="#ffbc52" opacity="1.00" d=" M 137.84 120.29 C 135.95 116.61 134.09 112.34 135.96 108.25 C 138.10 113.01 139.37 118.17 142.62 122.35 C 141.38 126.11 144.27 129.49 144.43 133.19 C 144.61 138.91 144.72 144.63 144.52 150.35 L 144.67 151.38 L 144.51 153.60 C 142.91 151.34 142.48 148.56 142.33 145.87 C 141.81 137.25 142.06 128.10 137.84 120.29 Z" />
</g>
<g id="#aa5928ff">
<path fill="#aa5928" opacity="1.00" d=" M 110.51 120.65 C 114.35 118.67 117.75 115.76 122.04 114.73 C 122.02 117.45 122.24 120.18 122.72 122.87 C 123.84 123.18 124.95 123.52 126.06 123.88 C 125.61 124.07 124.71 124.44 124.26 124.63 C 123.14 125.09 122.03 125.54 120.90 125.97 C 121.26 124.44 120.69 123.84 119.21 124.17 C 120.21 121.87 120.61 119.38 120.24 116.88 C 117.08 117.76 114.65 119.98 112.05 121.83 C 111.66 121.54 110.89 120.95 110.51 120.65 Z" />
<path fill="#aa5928" opacity="1.00" d=" M 74.39 157.49 C 78.52 158.10 82.62 158.97 86.55 160.43 C 87.01 161.84 87.49 163.25 87.87 164.69 C 87.76 164.89 87.53 165.28 87.42 165.48 C 85.65 165.32 83.89 165.26 82.12 165.27 C 81.53 164.77 80.95 164.27 80.36 163.77 C 78.13 161.92 75.80 160.08 74.39 157.49 Z" />
</g>
<g id="#c59466ff">
<path fill="#c59466" opacity="1.00" d=" M 76.65 122.32 C 76.85 120.36 77.09 118.40 77.34 116.45 C 78.66 125.53 83.03 134.03 89.41 140.57 C 93.87 144.18 99.25 146.99 105.01 147.63 C 109.95 147.91 113.68 143.99 116.05 140.10 C 119.03 136.19 119.49 130.86 123.14 127.41 C 123.65 127.55 124.65 127.81 125.15 127.95 C 124.09 131.94 123.06 135.95 122.56 140.06 C 122.01 139.91 120.90 139.61 120.35 139.46 C 118.24 143.33 116.03 147.15 113.92 151.01 C 111.19 152.50 107.72 151.86 104.69 152.26 C 104.30 152.20 103.51 152.07 103.12 152.01 C 101.71 151.76 100.30 151.51 98.91 151.18 C 94.36 149.50 90.60 146.34 86.43 143.96 C 82.07 139.44 78.47 134.03 77.74 127.65 C 77.42 125.86 77.02 124.10 76.65 122.32 Z" />
</g>
<g id="#c56f31ff">
<path fill="#c56f31" opacity="1.00" d=" M 70.09 146.00 C 69.25 137.71 70.64 128.54 76.65 122.32 C 77.02 124.10 77.42 125.86 77.74 127.65 C 77.73 130.38 76.71 133.40 78.22 135.90 C 80.26 139.16 82.61 142.66 86.43 143.96 C 90.60 146.34 94.36 149.50 98.91 151.18 L 98.62 151.86 C 95.53 156.32 93.30 161.28 91.50 166.38 C 90.85 168.00 91.08 169.80 91.67 171.41 C 93.16 171.79 94.71 171.50 96.22 171.43 C 95.17 172.73 94.02 173.94 92.93 175.20 C 90.93 174.85 88.93 174.55 86.94 174.16 C 83.58 172.14 85.62 167.86 87.42 165.48 C 87.53 165.28 87.76 164.89 87.87 164.69 C 87.49 163.25 87.01 161.84 86.55 160.43 C 82.62 158.97 78.52 158.10 74.39 157.49 C 72.35 153.93 70.49 150.14 70.09 146.00 M 78.29 149.89 C 77.12 150.30 76.32 152.58 77.89 152.98 C 80.07 153.46 80.91 149.00 78.29 149.89 Z" />
</g>
<g id="#fd9e49ff">
<path fill="#fd9e49" opacity="1.00" d=" M 144.43 133.19 C 144.27 129.49 141.38 126.11 142.62 122.35 C 143.55 123.74 144.54 125.10 145.65 126.35 C 145.39 128.56 145.41 130.82 146.24 132.91 C 148.28 138.76 149.72 145.19 154.36 149.63 C 160.65 155.99 166.84 162.48 173.72 168.22 C 178.78 173.32 185.12 176.79 190.79 181.11 C 196.14 184.23 201.71 187.01 207.37 189.54 C 210.19 190.92 214.23 191.35 215.08 194.97 C 204.24 191.53 193.73 187.03 183.95 181.21 C 176.82 176.79 170.82 170.90 164.64 165.30 C 159.52 160.72 154.02 156.58 148.78 152.14 C 147.53 151.21 146.25 149.72 144.52 150.35 C 144.72 144.63 144.61 138.91 144.43 133.19 Z" />
</g>
<g id="#89685aff">
<path fill="#89685a" opacity="1.00" d=" M 119.21 124.17 C 120.69 123.84 121.26 124.44 120.90 125.97 C 120.45 125.99 119.53 126.03 119.07 126.05 C 119.11 125.58 119.18 124.64 119.21 124.17 Z" />
</g>
<g id="#ffb753ff">
<path fill="#ffb753" opacity="1.00" d=" M 146.24 132.91 C 145.41 130.82 145.39 128.56 145.65 126.35 C 146.87 127.63 148.06 128.93 149.17 130.31 C 149.72 133.99 151.22 137.51 153.69 140.32 C 160.87 148.45 168.39 156.33 176.75 163.27 C 185.46 172.59 196.30 179.72 207.65 185.43 C 215.77 190.52 225.24 192.80 233.57 197.54 C 231.51 197.54 229.47 197.65 227.42 197.79 C 223.24 197.19 219.06 196.42 215.08 194.97 C 214.23 191.35 210.19 190.92 207.37 189.54 C 201.71 187.01 196.14 184.23 190.79 181.11 C 185.12 176.79 178.78 173.32 173.72 168.22 C 166.84 162.48 160.65 155.99 154.36 149.63 C 149.72 145.19 148.28 138.76 146.24 132.91 Z" />
</g>
<g id="#ffd05cff">
<path fill="#ffd05c" opacity="1.00" d=" M 149.17 130.31 C 155.21 136.78 160.95 143.54 167.37 149.65 C 175.53 157.51 182.93 166.30 192.47 172.57 C 203.90 180.21 215.94 187.07 228.84 191.92 C 231.92 192.97 235.58 193.94 236.50 197.57 L 234.70 197.59 C 234.41 197.58 233.85 197.55 233.57 197.54 C 225.24 192.80 215.77 190.52 207.65 185.43 C 196.30 179.72 185.46 172.59 176.75 163.27 C 168.39 156.33 160.87 148.45 153.69 140.32 C 151.22 137.51 149.72 133.99 149.17 130.31 Z" />
</g>
<g id="#bc652eff">
<path fill="#bc652e" opacity="1.00" d=" M 121.90 146.16 C 122.47 144.15 123.21 142.18 123.86 140.20 C 125.25 144.02 124.28 148.57 127.06 151.87 C 129.07 155.82 133.37 157.25 137.02 159.19 C 140.01 160.65 140.93 164.10 142.24 166.88 C 141.81 167.07 140.94 167.45 140.50 167.64 C 138.89 167.16 137.29 166.70 135.68 166.24 C 133.19 163.73 130.35 161.39 126.70 160.98 C 125.16 158.23 123.69 155.45 122.19 152.68 C 121.66 150.55 121.58 148.33 121.90 146.16 Z" />
</g>
<g id="#b05c1cff">
<path fill="#b05c1c" opacity="1.00" d=" M 134.55 150.18 C 133.11 149.16 133.70 147.21 134.57 146.03 C 135.35 147.43 135.34 148.82 134.55 150.18 Z" />
</g>
<g id="#94410094">
<path fill="#944100" opacity="0.58" d=" M 252.09 152.40 C 252.41 150.83 253.02 149.35 254.00 148.08 L 254.00 154.37 L 253.38 153.71 C 253.06 153.38 252.42 152.73 252.09 152.40 Z" />
</g>
<g id="#a65a23ff">
<path fill="#a65a23" opacity="1.00" d=" M 78.29 149.89 C 80.91 149.00 80.07 153.46 77.89 152.98 C 76.32 152.58 77.12 150.30 78.29 149.89 Z" />
</g>
<g id="#fdae4aff">
<path fill="#fdae4a" opacity="1.00" d=" M 98.91 151.18 C 100.30 151.51 101.71 151.76 103.12 152.01 C 103.92 153.01 104.72 154.00 105.54 155.00 C 104.96 157.70 104.38 160.49 102.68 162.76 C 102.49 160.35 102.44 157.92 102.58 155.51 C 101.36 155.51 100.14 155.51 98.92 155.52 C 98.81 154.30 98.71 153.08 98.62 151.86 L 98.91 151.18 Z" />
</g>
<g id="#f6873aff">
<path fill="#f6873a" opacity="1.00" d=" M 91.50 166.38 C 93.30 161.28 95.53 156.32 98.62 151.86 C 98.71 153.08 98.81 154.30 98.92 155.52 C 100.14 155.51 101.36 155.51 102.58 155.51 C 102.44 157.92 102.49 160.35 102.68 162.76 C 100.74 165.80 98.40 168.56 96.22 171.43 C 94.71 171.50 93.16 171.79 91.67 171.41 C 91.08 169.80 90.85 168.00 91.50 166.38 Z" />
</g>
<g id="#e3b982ff">
<path fill="#e3b982" opacity="1.00" d=" M 144.67 151.38 C 155.23 158.17 164.29 166.93 173.67 175.21 C 178.68 179.81 184.62 183.31 190.78 186.13 C 190.31 186.33 189.38 186.74 188.91 186.94 C 179.65 182.77 171.45 176.63 163.31 170.64 C 158.16 167.24 152.75 163.90 149.07 158.81 C 148.50 157.63 147.31 157.69 146.18 157.88 C 145.47 156.52 144.93 155.07 144.51 153.60 L 144.67 151.38 Z" />
</g>
<g id="#ff9f00ff">
<path fill="#ff9f00" opacity="1.00" d=" M 252.09 152.40 C 252.42 152.73 253.06 153.38 253.38 153.71 C 253.27 156.11 253.30 158.54 252.85 160.90 C 251.73 163.61 249.60 165.71 247.66 167.84 C 247.51 165.19 246.35 162.83 244.84 160.72 C 247.79 158.53 251.72 156.52 252.09 152.40 Z" />
</g>
<g id="#d2a173ff">
<path fill="#d2a173" opacity="1.00" d=" M 146.18 157.88 C 147.31 157.69 148.50 157.63 149.07 158.81 C 152.75 163.90 158.16 167.24 163.31 170.64 C 171.45 176.63 179.65 182.77 188.91 186.94 C 189.38 186.74 190.31 186.33 190.78 186.13 C 196.84 188.70 202.63 191.93 208.99 193.78 C 212.75 195.26 217.20 195.39 220.24 198.32 C 217.05 198.41 213.95 197.66 210.93 196.73 C 195.40 192.72 180.55 186.34 166.61 178.44 C 160.92 174.87 155.12 171.44 149.41 167.89 C 149.15 164.34 148.03 160.92 146.18 157.88 Z" />
</g>
<g id="#a25224ff">
<path fill="#a25224" opacity="1.00" d=" M 126.70 160.98 C 130.35 161.39 133.19 163.73 135.68 166.24 C 137.29 166.70 138.89 167.16 140.50 167.64 C 139.29 168.16 138.06 168.63 136.82 169.05 C 135.13 169.24 133.43 169.33 131.73 169.45 C 130.50 167.46 129.37 165.41 128.34 163.31 C 127.97 163.89 127.62 164.47 127.27 165.06 C 127.36 164.51 127.54 163.41 127.64 162.86 C 127.40 162.39 126.93 161.45 126.70 160.98 Z" />
</g>
<g id="#ff5100ff">
<path fill="#ff5100" opacity="1.00" d=" M 239.57 164.31 C 241.30 163.08 243.07 161.90 244.84 160.72 C 246.35 162.83 247.51 165.19 247.66 167.84 C 245.76 170.66 245.24 174.07 246.06 177.37 C 241.73 175.36 237.04 174.34 232.41 173.28 C 233.93 171.74 235.77 170.59 237.47 169.27 C 238.52 167.80 238.92 165.97 239.57 164.31 Z" />
</g>
<g id="#b8632aff">
<path fill="#b8632a" opacity="1.00" d=" M 127.27 165.06 C 127.62 164.47 127.97 163.89 128.34 163.31 C 129.37 165.41 130.50 167.46 131.73 169.45 C 133.43 169.33 135.13 169.24 136.82 169.05 C 136.34 170.03 135.77 170.97 135.46 172.02 C 135.79 173.56 136.53 175.10 136.01 176.71 C 135.68 177.11 135.02 177.93 134.69 178.34 C 134.22 179.01 133.79 179.71 133.39 180.42 C 132.72 180.42 131.38 180.41 130.72 180.41 C 129.94 178.86 129.17 177.31 128.41 175.77 C 128.03 176.20 127.26 177.06 126.88 177.50 C 124.04 173.76 126.38 169.09 127.27 165.06 Z" />
</g>
<g id="#a95925ff">
<path fill="#a95925" opacity="1.00" d=" M 80.36 163.77 C 80.95 164.27 81.53 164.77 82.12 165.27 C 83.89 165.26 85.65 165.32 87.42 165.48 C 85.62 167.86 83.58 172.14 86.94 174.16 C 86.89 174.88 86.77 176.33 86.72 177.05 C 86.03 177.43 85.35 177.84 84.69 178.25 C 83.47 176.75 82.25 175.25 81.04 173.75 C 80.68 174.25 79.96 175.25 79.60 175.74 L 78.96 176.29 C 78.38 174.30 77.77 172.31 77.23 170.30 C 78.02 168.01 79.19 165.88 80.36 163.77 Z" />
</g>
<g id="#ff8200ff">
<path fill="#ff8200" opacity="1.00" d=" M 246.56 180.16 C 247.67 177.03 248.74 173.86 250.62 171.09 C 250.17 175.60 249.29 180.07 247.70 184.33 C 241.15 181.56 234.16 180.18 227.29 178.49 C 228.92 176.68 230.67 174.99 232.41 173.28 C 237.04 174.34 241.73 175.36 246.06 177.37 C 246.19 178.07 246.44 179.46 246.56 180.16 Z" />
</g>
<g id="#d4af9aff">
<path fill="#d4af9a" opacity="1.00" d=" M 81.04 173.75 C 82.25 175.25 83.47 176.75 84.69 178.25 C 82.10 180.42 79.84 182.93 77.45 185.30 C 77.32 181.97 78.23 178.74 79.60 175.74 C 79.96 175.25 80.68 174.25 81.04 173.75 Z" />
</g>
<g id="#d0ad97ff">
<path fill="#d0ad97" opacity="1.00" d=" M 86.94 174.16 C 88.93 174.55 90.93 174.85 92.93 175.20 C 90.86 177.83 88.99 180.61 86.73 183.09 C 86.67 181.07 86.63 179.06 86.72 177.05 C 86.77 176.33 86.89 174.88 86.94 174.16 Z" />
</g>
<g id="#d0aa9fff">
<path fill="#d0aa9f" opacity="1.00" d=" M 144.00 176.03 C 144.11 175.53 144.34 174.54 144.46 174.04 C 145.42 174.79 146.37 175.54 147.31 176.31 C 147.55 176.54 148.02 177.00 148.26 177.22 C 148.35 179.72 148.01 182.20 147.42 184.62 C 146.16 183.33 144.92 182.03 143.63 180.77 C 143.72 179.19 143.82 177.60 144.00 176.03 Z" />
</g>
<g id="#d2b19eff">
<path fill="#d2b19e" opacity="1.00" d=" M 126.88 177.50 C 127.26 177.06 128.03 176.20 128.41 175.77 C 129.17 177.31 129.94 178.86 130.72 180.41 C 129.18 181.94 127.59 183.42 125.88 184.75 C 126.04 182.31 126.23 179.86 126.88 177.50 Z" />
</g>
<g id="#ffbe00ff">
<path fill="#ffbe00" opacity="1.00" d=" M 227.11 187.71 C 226.41 184.70 226.18 181.43 227.29 178.49 C 234.16 180.18 241.15 181.56 247.70 184.33 C 246.72 186.30 245.29 187.99 244.11 189.83 C 238.58 188.63 232.80 186.53 227.11 187.71 Z" />
</g>
<g id="#fff300ff">
<path fill="#fff300" opacity="1.00" d=" M 227.11 187.71 C 232.80 186.53 238.58 188.63 244.11 189.83 C 242.94 193.52 240.22 196.40 236.50 197.57 C 235.58 193.94 231.92 192.97 228.84 191.92 C 228.24 190.52 227.65 189.12 227.11 187.71 Z" />
</g>
<g id="#a47748de">
<path fill="#a47748" opacity="0.87" d=" M 227.42 197.79 C 229.47 197.65 231.51 197.54 233.57 197.54 C 233.85 197.55 234.41 197.58 234.70 197.59 C 234.61 197.95 234.43 198.65 234.34 199.00 L 226.29 199.00 L 226.66 198.58 L 227.42 197.79 Z" />
</g>
<g id="#af8966d3">
<path fill="#af8966" opacity="0.83" d=" M 221.14 198.37 C 222.79 197.01 225.00 197.54 226.66 198.58 L 226.29 199.00 L 221.52 199.00 L 221.14 198.37 Z" />
</g>
</svg>
