<?xml version="1.0" encoding="UTF-8" ?>
<!DOCTYPE svg PUBLIC "-//W3C//DTD SVG 1.1//EN" "http://www.w3.org/Graphics/SVG/1.1/DTD/svg11.dtd">
<svg width="113pt" height="129pt" viewBox="0 0 113 129" version="1.1" xmlns="http://www.w3.org/2000/svg">
<g id="#4d9090bf">
<path fill="#4d9090" opacity="0.75" d=" M 46.00 5.98 C 46.06 2.74 52.56 5.76 54.97 5.04 L 55.01 5.98 C 52.00 6.00 49.00 6.03 46.00 5.98 Z" />
</g>
<g id="#76eafbfe">
<path fill="#76eafb" opacity="1.00" d=" M 29.92 13.93 C 33.86 9.44 39.76 5.61 46.00 5.98 C 49.00 6.03 52.00 6.00 55.01 5.98 C 58.36 6.06 63.14 6.94 64.90 9.76 C 63.23 11.45 59.61 13.36 61.99 16.00 C 64.36 19.07 64.89 23.73 61.14 25.99 L 60.22 25.83 C 57.30 24.38 54.02 24.79 53.06 27.98 C 51.98 31.49 51.81 35.25 52.08 38.89 C 52.30 39.42 52.76 40.48 52.98 41.01 L 52.85 41.81 C 48.76 44.60 44.01 45.98 39.40 47.62 C 38.86 46.84 38.30 46.08 37.72 45.33 C 33.36 46.08 29.30 43.88 25.15 42.87 C 22.28 33.21 23.91 22.14 29.92 13.93 M 54.34 22.39 C 52.99 23.44 50.63 23.87 50.96 26.05 C 53.44 26.19 54.82 23.69 56.09 21.94 C 55.65 22.05 54.78 22.28 54.34 22.39 M 26.14 26.77 C 26.11 27.32 26.06 28.43 26.03 28.98 L 25.05 29.02 C 25.47 31.43 23.78 36.09 25.99 37.03 C 24.16 41.28 34.19 43.17 31.98 37.96 C 31.75 34.30 33.14 29.45 30.10 26.84 L 30.09 25.74 C 29.40 22.98 25.18 24.00 26.14 26.77 Z" />
</g>
<g id="#6edbfafe">
<path fill="#6edbfa" opacity="1.00" d=" M 61.99 16.00 C 59.61 13.36 63.23 11.45 64.90 9.76 C 67.95 11.86 70.73 14.76 72.20 18.25 C 71.57 18.31 70.94 18.37 70.31 18.45 C 71.45 24.01 64.72 26.88 64.68 32.23 L 64.07 31.84 C 63.54 29.95 62.62 28.19 61.23 26.79 L 61.14 25.99 C 64.89 23.73 64.36 19.07 61.99 16.00 Z" />
</g>
<g id="#5cc6e6fc">
<path fill="#5cc6e6" opacity="1.00" d=" M 70.31 18.45 C 70.94 18.37 71.57 18.31 72.20 18.25 C 73.70 19.05 74.68 21.98 74.88 23.84 C 74.57 24.06 73.95 24.49 73.64 24.71 C 70.49 26.76 68.61 30.22 65.85 32.73 C 65.55 32.61 64.97 32.36 64.68 32.23 C 64.72 26.88 71.45 24.01 70.31 18.45 Z" />
</g>
<g id="#51aabfff">
<path fill="#51aabf" opacity="1.00" d=" M 54.34 22.39 C 54.78 22.28 55.65 22.05 56.09 21.94 C 54.82 23.69 53.44 26.19 50.96 26.05 C 50.63 23.87 52.99 23.44 54.34 22.39 Z" />
</g>
<g id="#738d91ff">
<path fill="#738d91" opacity="1.00" d=" M 26.14 26.77 C 25.18 24.00 29.40 22.98 30.09 25.74 C 27.32 25.48 28.15 28.38 27.87 30.17 C 27.09 29.15 26.70 27.91 26.14 26.77 Z" />
</g>
<g id="#3ccdf1f8">
<path fill="#3ccdf1" opacity="0.97" d=" M 73.64 24.71 C 73.95 24.49 74.57 24.06 74.88 23.84 C 75.65 24.75 76.04 25.80 76.03 26.98 C 76.02 29.71 75.96 32.45 75.85 35.18 L 75.68 36.31 C 75.36 34.96 75.15 33.58 74.98 32.20 C 74.97 29.63 74.31 27.16 73.64 24.71 Z" />
</g>
<g id="#5c7a87ff">
<path fill="#5c7a87" opacity="1.00" d=" M 53.06 27.98 C 54.02 24.79 57.30 24.38 60.22 25.83 L 59.13 25.90 C 56.45 25.36 54.43 27.23 54.90 29.94 C 54.26 29.31 53.65 28.66 53.06 27.98 Z" />
</g>
<g id="#4db4d6ff">
<path fill="#4db4d6" opacity="1.00" d=" M 65.85 32.73 C 68.61 30.22 70.49 26.76 73.64 24.71 C 74.31 27.16 74.97 29.63 74.98 32.20 L 74.31 31.68 C 73.57 31.04 72.79 30.44 71.99 29.87 C 69.72 32.23 67.83 34.98 65.28 37.06 C 64.97 35.95 64.67 34.85 64.38 33.74 C 64.30 33.27 64.15 32.32 64.07 31.84 L 64.68 32.23 C 64.97 32.36 65.55 32.61 65.85 32.73 Z" />
</g>
<g id="#eaeaeaff">
<path fill="#eaeaea" opacity="1.00" d=" M 27.87 30.17 C 28.15 28.38 27.32 25.48 30.09 25.74 L 30.10 26.84 C 30.05 28.56 30.36 30.80 27.87 30.17 Z" />
</g>
<g id="#e5e4e6ff">
<path fill="#e5e4e6" opacity="1.00" d=" M 54.90 29.94 C 54.43 27.23 56.45 25.36 59.13 25.90 C 60.94 28.63 57.49 32.78 54.90 29.94 Z" />
</g>
<g id="#2a252cff">
<path fill="#2a252c" opacity="1.00" d=" M 59.13 25.90 L 60.22 25.83 L 61.14 25.99 L 61.23 26.79 C 61.37 29.14 61.87 31.46 61.94 33.81 C 59.41 33.61 58.55 35.74 57.52 37.59 C 56.16 37.91 53.44 38.57 52.08 38.89 C 51.81 35.25 51.98 31.49 53.06 27.98 C 53.65 28.66 54.26 29.31 54.90 29.94 C 57.49 32.78 60.94 28.63 59.13 25.90 Z" />
</g>
<g id="#2e272eff">
<path fill="#2e272e" opacity="1.00" d=" M 26.14 26.77 C 26.70 27.91 27.09 29.15 27.87 30.17 C 30.36 30.80 30.05 28.56 30.10 26.84 C 33.14 29.45 31.75 34.30 31.98 37.96 C 28.61 38.32 27.81 34.93 26.17 32.74 C 26.11 31.49 26.06 30.23 26.03 28.98 C 26.06 28.43 26.11 27.32 26.14 26.77 Z" />
</g>
<g id="#6f858aff">
<path fill="#6f858a" opacity="1.00" d=" M 61.23 26.79 C 62.62 28.19 63.54 29.95 64.07 31.84 C 64.15 32.32 64.30 33.27 64.38 33.74 C 64.15 36.04 63.70 38.36 62.24 40.21 C 62.13 38.08 62.05 35.94 61.94 33.81 C 61.87 31.46 61.37 29.14 61.23 26.79 Z" />
</g>
<g id="#04181851">
<path fill="#041818" opacity="0.32" d=" M 76.03 26.98 C 78.20 27.93 76.57 32.56 76.91 34.97 L 75.85 35.18 C 75.96 32.45 76.02 29.71 76.03 26.98 Z" />
</g>
<g id="#7ab2b6ff">
<path fill="#7ab2b6" opacity="1.00" d=" M 25.05 29.02 L 26.03 28.98 C 26.06 30.23 26.11 31.49 26.17 32.74 C 26.11 34.17 26.05 35.60 25.99 37.03 C 23.78 36.09 25.47 31.43 25.05 29.02 Z" />
</g>
<g id="#449fbfff">
<path fill="#449fbf" opacity="1.00" d=" M 65.28 37.06 C 67.83 34.98 69.72 32.23 71.99 29.87 C 72.79 30.44 73.57 31.04 74.31 31.68 C 74.26 32.23 74.15 33.33 74.09 33.88 C 73.60 33.72 72.60 33.42 72.11 33.26 C 69.06 37.75 64.27 41.39 62.12 46.37 C 61.04 46.73 59.93 47.02 58.82 47.26 C 57.08 47.28 55.41 47.75 53.73 48.15 C 53.25 48.06 52.29 47.88 51.81 47.79 C 55.02 46.59 57.69 44.38 60.28 42.19 C 58.42 42.09 54.71 41.91 52.85 41.81 L 52.98 41.01 C 55.81 40.39 59.97 42.13 62.24 40.21 C 63.70 38.36 64.15 36.04 64.38 33.74 C 64.67 34.85 64.97 35.95 65.28 37.06 Z" />
</g>
<g id="#24a1c7f5">
<path fill="#24a1c7" opacity="0.96" d=" M 74.31 31.68 L 74.98 32.20 C 75.15 33.58 75.36 34.96 75.68 36.31 C 76.17 38.54 74.96 40.69 74.56 42.85 C 73.66 44.08 72.80 45.35 71.93 46.61 L 71.04 47.00 C 71.73 44.70 72.79 42.53 73.35 40.19 C 73.54 38.61 73.91 35.46 74.09 33.88 C 74.15 33.33 74.26 32.23 74.31 31.68 Z" />
</g>
<g id="#9f5d86ff">
<path fill="#9f5d86" opacity="1.00" d=" M 26.17 32.74 C 27.81 34.93 28.61 38.32 31.98 37.96 C 34.19 43.17 24.16 41.28 25.99 37.03 C 26.05 35.60 26.11 34.17 26.17 32.74 Z" />
</g>
<g id="#3693b6ff">
<path fill="#3693b6" opacity="1.00" d=" M 72.11 33.26 C 72.60 33.42 73.60 33.72 74.09 33.88 C 73.91 35.46 73.54 38.61 73.35 40.19 C 72.54 34.59 67.48 42.00 66.18 44.21 C 65.14 45.46 63.67 46.03 62.12 46.37 C 64.27 41.39 69.06 37.75 72.11 33.26 Z" />
</g>
<g id="#964c74ff">
<path fill="#964c74" opacity="1.00" d=" M 57.52 37.59 C 58.55 35.74 59.41 33.61 61.94 33.81 C 62.05 35.94 62.13 38.08 62.24 40.21 C 59.97 42.13 55.81 40.39 52.98 41.01 C 52.76 40.48 52.30 39.42 52.08 38.89 C 53.44 38.57 56.16 37.91 57.52 37.59 Z" />
</g>
<g id="#2b87a8ff">
<path fill="#2b87a8" opacity="1.00" d=" M 66.18 44.21 C 67.48 42.00 72.54 34.59 73.35 40.19 C 72.79 42.53 71.73 44.70 71.04 47.00 C 70.40 47.94 69.75 48.86 69.11 49.79 C 68.52 50.07 67.35 50.65 66.76 50.93 C 65.44 47.95 70.68 47.26 70.04 44.04 C 70.68 42.13 68.01 44.18 67.19 44.04 L 66.18 44.21 Z" />
</g>
<g id="#62c0deff">
<path fill="#62c0de" opacity="1.00" d=" M 39.40 47.62 C 44.01 45.98 48.76 44.60 52.85 41.81 C 54.71 41.91 58.42 42.09 60.28 42.19 C 57.69 44.38 55.02 46.59 51.81 47.79 C 49.71 47.97 47.62 48.29 45.62 49.00 C 44.36 49.26 43.12 49.61 41.89 50.01 C 37.97 48.87 34.05 47.70 30.14 46.52 C 28.81 45.95 27.47 45.39 26.09 44.98 L 25.17 44.68 C 25.16 44.23 25.16 43.32 25.15 42.87 C 29.30 43.88 33.36 46.08 37.72 45.33 C 38.30 46.08 38.86 46.84 39.40 47.62 Z" />
</g>
<g id="#2d7b98ff">
<path fill="#2d7b98" opacity="1.00" d=" M 67.19 44.04 C 68.01 44.18 70.68 42.13 70.04 44.04 C 70.68 47.26 65.44 47.95 66.76 50.93 C 63.66 52.28 60.56 53.69 57.25 54.42 C 56.41 54.27 54.73 53.99 53.90 53.85 C 54.22 51.95 55.86 50.77 56.89 49.25 C 55.84 48.89 54.78 48.53 53.73 48.15 C 55.41 47.75 57.08 47.28 58.82 47.26 C 61.99 48.37 66.52 47.92 67.19 44.04 Z" />
</g>
<g id="#cd9ea0fe">
<path fill="#cd9ea0" opacity="1.00" d=" M 71.93 46.61 C 72.80 45.35 73.66 44.08 74.56 42.85 C 76.67 45.27 79.34 47.27 81.07 50.00 C 79.37 49.99 77.67 50.00 75.97 49.98 C 75.55 49.91 74.71 49.77 74.29 49.69 C 73.61 48.58 72.81 47.56 71.93 46.61 Z" />
</g>
<g id="#26667fff">
<path fill="#26667f" opacity="1.00" d=" M 66.18 44.21 L 67.19 44.04 C 66.52 47.92 61.99 48.37 58.82 47.26 C 59.93 47.02 61.04 46.73 62.12 46.37 C 63.67 46.03 65.14 45.46 66.18 44.21 Z" />
</g>
<g id="#67aec4ff">
<path fill="#67aec4" opacity="1.00" d=" M 26.09 44.98 C 27.47 45.39 28.81 45.95 30.14 46.52 C 29.87 46.82 29.35 47.41 29.09 47.71 C 31.71 49.12 38.31 49.02 37.20 53.19 C 35.56 52.86 33.95 52.41 32.30 52.14 C 32.16 54.86 30.77 57.06 29.05 59.06 C 24.30 61.42 19.35 63.62 14.02 64.19 C 14.28 63.91 14.79 63.34 15.04 63.05 C 19.42 60.81 25.79 59.95 27.73 54.71 C 28.79 52.41 26.84 50.39 26.02 48.38 C 27.16 47.35 26.65 46.14 26.09 44.98 Z" />
</g>
<g id="#63a3b8ff">
<path fill="#63a3b8" opacity="1.00" d=" M 29.09 47.71 C 29.35 47.41 29.87 46.82 30.14 46.52 C 34.05 47.70 37.97 48.87 41.89 50.01 C 41.79 51.64 41.50 53.29 41.83 54.91 C 40.20 54.61 38.59 54.17 36.96 53.85 L 37.20 53.19 C 38.31 49.02 31.71 49.12 29.09 47.71 Z" />
</g>
<g id="#c17748ff">
<path fill="#c17748" opacity="1.00" d=" M 71.04 47.00 L 71.93 46.61 C 72.81 47.56 73.61 48.58 74.29 49.69 C 73.97 49.98 73.31 50.55 72.99 50.83 C 72.04 51.18 71.10 51.55 70.16 51.93 C 69.90 51.39 69.37 50.32 69.11 49.79 C 69.75 48.86 70.40 47.94 71.04 47.00 Z" />
</g>
<g id="#70c0d8fc">
<path fill="#70c0d8" opacity="1.00" d=" M 17.92 50.95 C 19.68 49.10 23.37 47.78 26.02 48.38 C 26.84 50.39 28.79 52.41 27.73 54.71 C 25.79 59.95 19.42 60.81 15.04 63.05 C 17.38 59.84 22.81 57.84 22.81 53.32 C 21.21 52.48 19.56 51.72 17.92 50.95 Z" />
</g>
<g id="#458ba2ff">
<path fill="#458ba2" opacity="1.00" d=" M 45.62 49.00 C 47.62 48.29 49.71 47.97 51.81 47.79 C 52.29 47.88 53.25 48.06 53.73 48.15 C 54.78 48.53 55.84 48.89 56.89 49.25 C 55.86 50.77 54.22 51.95 53.90 53.85 C 54.73 53.99 56.41 54.27 57.25 54.42 C 55.93 54.77 54.61 55.07 53.29 55.38 C 51.09 55.15 48.90 54.97 46.70 54.86 C 47.59 53.22 48.78 51.78 49.86 50.27 C 48.44 49.88 47.00 49.52 45.62 49.00 Z" />
</g>
<g id="#5197b0ff">
<path fill="#5197b0" opacity="1.00" d=" M 41.89 50.01 C 43.12 49.61 44.36 49.26 45.62 49.00 C 47.00 49.52 48.44 49.88 49.86 50.27 C 48.78 51.78 47.59 53.22 46.70 54.86 C 46.21 54.98 45.24 55.22 44.75 55.34 C 44.02 55.23 42.56 55.01 41.83 54.91 C 41.50 53.29 41.79 51.64 41.89 50.01 Z" />
</g>
<g id="#e69753ff">
<path fill="#e69753" opacity="1.00" d=" M 66.76 50.93 C 67.35 50.65 68.52 50.07 69.11 49.79 C 69.37 50.32 69.90 51.39 70.16 51.93 C 67.46 54.30 68.20 57.95 68.12 61.21 C 67.11 61.48 66.09 61.70 65.06 61.89 C 66.73 59.89 63.98 59.33 62.59 58.49 C 54.81 57.84 47.06 56.45 39.23 57.07 C 38.02 57.98 38.08 59.47 37.95 60.82 C 36.97 60.50 35.99 60.18 35.01 59.86 L 35.25 59.03 C 35.67 57.74 36.53 55.15 36.96 53.85 C 38.59 54.17 40.20 54.61 41.83 54.91 C 42.56 55.01 44.02 55.23 44.75 55.34 C 47.58 55.83 50.52 56.38 53.29 55.38 C 54.61 55.07 55.93 54.77 57.25 54.42 C 60.56 53.69 63.66 52.28 66.76 50.93 Z" />
</g>
<g id="#71c1d8ff">
<path fill="#71c1d8" opacity="1.00" d=" M 72.99 50.83 C 73.31 50.55 73.97 49.98 74.29 49.69 C 74.71 49.77 75.55 49.91 75.97 49.98 C 76.78 51.90 79.05 54.21 77.20 56.20 C 74.04 59.75 74.71 65.79 78.21 68.84 C 79.50 68.73 80.75 68.36 82.01 68.10 C 82.02 68.60 82.03 69.59 82.03 70.08 L 81.09 70.16 C 79.11 69.99 77.16 69.59 75.28 68.95 C 74.95 68.74 74.30 68.30 73.97 68.08 C 71.89 66.71 69.87 65.22 68.73 62.94 C 68.85 62.51 69.09 61.66 69.21 61.24 C 70.76 57.89 72.40 54.50 72.99 50.83 Z" />
</g>
<g id="#72d2eefd">
<path fill="#72d2ee" opacity="1.00" d=" M 75.97 49.98 C 77.67 50.00 79.37 49.99 81.07 50.00 C 84.67 52.16 87.80 56.65 88.16 61.06 C 88.44 64.82 84.21 65.85 82.01 68.10 C 80.75 68.36 79.50 68.73 78.21 68.84 C 74.71 65.79 74.04 59.75 77.20 56.20 C 79.05 54.21 76.78 51.90 75.97 49.98 Z" />
</g>
<g id="#72d4effc">
<path fill="#72d4ef" opacity="1.00" d=" M 4.71 58.70 C 8.59 55.57 13.13 52.40 17.92 50.95 C 19.56 51.72 21.21 52.48 22.81 53.32 C 22.81 57.84 17.38 59.84 15.04 63.05 C 14.79 63.34 14.28 63.91 14.02 64.19 C 12.80 64.96 11.52 65.65 10.22 66.27 C 7.81 66.14 5.50 65.44 3.20 64.78 C 3.85 62.70 2.13 59.91 4.71 58.70 Z" />
</g>
<g id="#7bb8c5ff">
<path fill="#7bb8c5" opacity="1.00" d=" M 70.16 51.93 C 71.10 51.55 72.04 51.18 72.99 50.83 C 72.40 54.50 70.76 57.89 69.21 61.24 L 68.12 61.21 C 68.20 57.95 67.46 54.30 70.16 51.93 Z" />
</g>
<g id="#70939cff">
<path fill="#70939c" opacity="1.00" d=" M 32.30 52.14 C 33.95 52.41 35.56 52.86 37.20 53.19 L 36.96 53.85 C 36.53 55.15 35.67 57.74 35.25 59.03 C 35.17 58.28 35.02 56.79 34.94 56.04 C 33.31 57.04 31.73 58.12 30.10 59.12 L 29.05 59.06 C 30.77 57.06 32.16 54.86 32.30 52.14 Z" />
</g>
<g id="#b79b73ff">
<path fill="#b79b73" opacity="1.00" d=" M 44.75 55.34 C 45.24 55.22 46.21 54.98 46.70 54.86 C 48.90 54.97 51.09 55.15 53.29 55.38 C 50.52 56.38 47.58 55.83 44.75 55.34 Z" />
</g>
<g id="#4c8398ff">
<path fill="#4c8398" opacity="1.00" d=" M 30.10 59.12 C 31.73 58.12 33.31 57.04 34.94 56.04 C 35.02 56.79 35.17 58.28 35.25 59.03 C 32.73 60.19 30.40 61.71 27.96 63.01 C 27.43 62.98 26.36 62.91 25.82 62.87 C 27.24 61.61 28.72 60.42 30.10 59.12 Z" />
</g>
<g id="#ecad5fff">
<path fill="#ecad5f" opacity="1.00" d=" M 39.23 57.07 C 47.06 56.45 54.81 57.84 62.59 58.49 C 63.98 59.33 66.73 59.89 65.06 61.89 C 56.05 62.85 46.59 64.32 37.95 60.82 C 38.08 59.47 38.02 57.98 39.23 57.07 Z" />
</g>
<g id="#4298b2f9">
<path fill="#4298b2" opacity="0.98" d=" M 14.02 64.19 C 19.35 63.62 24.30 61.42 29.05 59.06 L 30.10 59.12 C 28.72 60.42 27.24 61.61 25.82 62.87 C 23.07 63.71 20.18 64.23 17.66 65.70 C 20.55 65.86 26.32 66.18 29.21 66.34 C 28.64 66.48 27.50 66.76 26.93 66.90 C 24.85 66.64 24.99 68.47 24.91 69.97 L 24.12 69.91 C 24.07 69.43 23.97 68.47 23.92 67.99 C 23.95 64.69 18.19 67.74 16.00 66.99 C 14.55 66.81 11.66 66.45 10.22 66.27 C 11.52 65.65 12.80 64.96 14.02 64.19 Z" />
</g>
<g id="#2e697dff">
<path fill="#2e697d" opacity="1.00" d=" M 27.96 63.01 C 30.40 61.71 32.73 60.19 35.25 59.03 L 35.01 59.86 C 34.79 60.39 34.36 61.44 34.15 61.96 C 33.51 62.71 32.86 63.45 32.20 64.18 C 30.29 64.28 25.47 66.45 27.96 63.01 Z" />
</g>
<g id="#8c662cff">
<path fill="#8c662c" opacity="1.00" d=" M 35.01 59.86 C 35.99 60.18 36.97 60.50 37.95 60.82 C 46.59 64.32 56.05 62.85 65.06 61.89 C 66.09 61.70 67.11 61.48 68.12 61.21 L 69.21 61.24 C 69.09 61.66 68.85 62.51 68.73 62.94 C 67.43 63.09 66.14 63.28 64.86 63.52 C 61.16 63.89 57.47 64.29 53.79 64.73 C 53.11 64.78 51.74 64.89 51.06 64.94 L 50.18 64.83 C 49.84 64.78 49.16 64.68 48.81 64.63 C 46.61 64.28 44.41 63.94 42.21 63.61 C 39.57 62.88 36.91 62.06 34.15 61.96 C 34.36 61.44 34.79 60.39 35.01 59.86 Z" />
</g>
<g id="#2e9abdf7">
<path fill="#2e9abd" opacity="0.97" d=" M 88.16 61.06 C 89.15 61.30 89.45 62.27 89.05 63.97 C 89.03 65.28 89.01 66.60 89.00 67.92 C 88.01 68.48 87.02 69.04 86.03 69.59 C 85.54 69.69 84.55 69.88 84.06 69.97 L 83.04 70.04 L 82.03 70.08 C 82.03 69.59 82.02 68.60 82.01 68.10 C 84.21 65.85 88.44 64.82 88.16 61.06 Z" />
</g>
<g id="#e1ac5eff">
<path fill="#e1ac5e" opacity="1.00" d=" M 34.15 61.96 C 36.91 62.06 39.57 62.88 42.21 63.61 C 37.06 63.59 36.84 70.16 33.75 73.25 C 32.69 70.57 32.12 67.72 31.73 64.88 L 32.20 64.18 C 32.86 63.45 33.51 62.71 34.15 61.96 Z" />
</g>
<g id="#2a7f98ff">
<path fill="#2a7f98" opacity="1.00" d=" M 17.66 65.70 C 20.18 64.23 23.07 63.71 25.82 62.87 C 26.36 62.91 27.43 62.98 27.96 63.01 C 25.47 66.45 30.29 64.28 32.20 64.18 L 31.73 64.88 C 31.29 65.21 30.42 65.86 29.98 66.19 L 29.21 66.34 C 26.32 66.18 20.55 65.86 17.66 65.70 Z" />
</g>
<g id="#dfa45bff">
<path fill="#dfa45b" opacity="1.00" d=" M 64.86 63.52 C 66.14 63.28 67.43 63.09 68.73 62.94 C 69.87 65.22 71.89 66.71 73.97 68.08 C 73.35 69.54 72.77 71.01 72.12 72.45 C 69.22 69.89 67.26 66.50 64.86 63.52 Z" />
</g>
<g id="#e9c86fff">
<path fill="#e9c86f" opacity="1.00" d=" M 33.75 73.25 C 36.84 70.16 37.06 63.59 42.21 63.61 C 44.41 63.94 46.61 64.28 48.81 64.63 C 48.83 70.10 49.08 75.56 49.85 80.97 C 45.36 81.34 41.08 80.08 36.81 78.99 L 36.14 78.80 C 35.39 76.93 34.49 75.12 33.75 73.25 Z" />
</g>
<g id="#725d1dff">
<path fill="#725d1d" opacity="1.00" d=" M 48.81 64.63 C 49.16 64.68 49.84 64.78 50.18 64.83 C 50.16 67.64 49.84 70.52 50.62 73.27 C 51.01 75.92 50.24 78.99 51.87 81.28 C 54.10 82.66 56.45 82.85 58.93 81.84 L 58.97 82.94 C 57.22 82.98 53.71 83.05 51.95 83.08 C 52.32 86.13 53.19 89.08 54.14 91.99 C 54.62 93.43 55.15 94.86 55.76 96.25 L 56.06 96.98 C 55.59 96.98 54.65 96.96 54.18 96.95 C 53.67 95.63 53.11 94.32 52.53 93.03 C 51.54 89.64 50.63 86.22 49.30 82.95 C 49.43 82.45 49.71 81.46 49.85 80.97 C 49.08 75.56 48.83 70.10 48.81 64.63 Z" />
</g>
<g id="#e3b563ff">
<path fill="#e3b563" opacity="1.00" d=" M 53.79 64.73 C 57.47 64.29 61.16 63.89 64.86 63.52 C 67.26 66.50 69.22 69.89 72.12 72.45 C 71.16 74.69 70.33 76.99 69.20 79.15 C 64.95 73.87 62.19 63.77 53.79 64.73 Z" />
</g>
<g id="#68c6e3fd">
<path fill="#68c6e3" opacity="1.00" d=" M 89.05 63.97 C 94.77 63.88 99.80 68.39 100.95 73.80 C 98.23 73.43 97.44 75.74 96.70 77.85 C 93.36 77.40 90.88 79.87 89.81 82.81 C 89.34 82.64 88.39 82.30 87.92 82.13 L 87.89 81.23 C 88.52 76.82 89.16 72.39 89.00 67.92 C 89.01 66.60 89.03 65.28 89.05 63.97 Z" />
</g>
<g id="#a57f3fff">
<path fill="#a57f3f" opacity="1.00" d=" M 29.98 66.19 C 30.42 65.86 31.29 65.21 31.73 64.88 C 32.12 67.72 32.69 70.57 33.75 73.25 C 34.49 75.12 35.39 76.93 36.14 78.80 L 35.32 79.11 C 32.65 75.22 31.26 70.68 29.98 66.19 Z" />
</g>
<g id="#aa8a40ff">
<path fill="#aa8a40" opacity="1.00" d=" M 50.18 64.83 L 51.06 64.94 C 50.92 67.71 50.78 70.49 50.62 73.27 C 49.84 70.52 50.16 67.64 50.18 64.83 Z" />
</g>
<g id="#e9c970ff">
<path fill="#e9c970" opacity="1.00" d=" M 51.06 64.94 C 51.74 64.89 53.11 64.78 53.79 64.73 C 62.19 63.77 64.95 73.87 69.20 79.15 C 68.11 81.73 65.04 80.87 62.83 81.17 C 61.53 81.12 60.23 81.08 58.93 81.05 C 57.16 81.10 53.63 81.22 51.87 81.28 C 50.24 78.99 51.01 75.92 50.62 73.27 C 50.78 70.49 50.92 67.71 51.06 64.94 Z" />
</g>
<g id="#d9b466fe">
<path fill="#d9b466" opacity="1.00" d=" M 29.21 66.34 L 29.98 66.19 C 31.26 70.68 32.65 75.22 35.32 79.11 C 35.03 80.35 34.78 81.60 34.57 82.85 C 34.25 84.22 34.01 85.61 33.79 87.00 C 33.40 86.72 32.60 86.17 32.21 85.90 C 31.34 84.69 29.51 83.76 29.49 82.19 C 29.53 77.00 26.23 72.22 26.93 66.90 C 27.50 66.76 28.64 66.48 29.21 66.34 Z" />
</g>
<g id="#041f2468">
<path fill="#041f24" opacity="0.41" d=" M 16.00 66.99 C 18.19 67.74 23.95 64.69 23.92 67.99 C 21.54 67.52 16.84 69.23 16.00 66.99 Z" />
</g>
<g id="#e6d8d7f7">
<path fill="#e6d8d7" opacity="0.97" d=" M 24.91 69.97 C 24.99 68.47 24.85 66.64 26.93 66.90 C 26.23 72.22 29.53 77.00 29.49 82.19 C 26.95 78.66 24.89 74.41 24.91 69.97 Z" />
</g>
<g id="#6f5c27ff">
<path fill="#6f5c27" opacity="1.00" d=" M 73.97 68.08 C 74.30 68.30 74.95 68.74 75.28 68.95 C 73.59 72.98 71.34 76.79 70.12 81.00 C 70.30 81.33 70.67 82.00 70.85 82.33 C 71.82 83.37 72.83 84.37 73.83 85.39 C 74.18 85.82 74.89 86.68 75.24 87.11 C 75.96 87.91 76.87 88.51 77.70 89.20 L 78.14 89.96 C 77.70 90.24 76.82 90.80 76.38 91.08 C 75.71 90.36 75.04 89.66 74.35 88.97 C 74.04 88.65 73.43 88.01 73.12 87.69 C 72.49 86.98 71.87 86.28 71.25 85.57 C 70.62 84.53 70.04 83.45 69.14 82.62 C 67.91 81.38 65.84 82.34 64.29 82.32 C 63.93 82.03 63.20 81.46 62.83 81.17 C 65.04 80.87 68.11 81.73 69.20 79.15 C 70.33 76.99 71.16 74.69 72.12 72.45 C 72.77 71.01 73.35 69.54 73.97 68.08 Z" />
</g>
<g id="#77adbfff">
<path fill="#77adbf" opacity="1.00" d=" M 86.03 69.59 C 87.02 69.04 88.01 68.48 89.00 67.92 C 89.16 72.39 88.52 76.82 87.89 81.23 C 87.66 80.92 87.19 80.29 86.95 79.98 C 86.53 76.61 88.00 72.66 86.03 69.59 Z" />
</g>
<g id="#cdac5fff">
<path fill="#cdac5f" opacity="1.00" d=" M 75.28 68.95 C 77.16 69.59 79.11 69.99 81.09 70.16 C 79.78 75.34 76.71 81.67 70.85 82.33 C 70.67 82.00 70.30 81.33 70.12 81.00 C 71.34 76.79 73.59 72.98 75.28 68.95 Z" />
</g>
<g id="#baa75dff">
<path fill="#baa75d" opacity="1.00" d=" M 81.09 70.16 L 82.03 70.08 L 83.04 70.04 C 83.01 71.27 82.98 72.49 82.95 73.72 C 80.74 78.22 77.91 82.36 73.83 85.39 C 72.83 84.37 71.82 83.37 70.85 82.33 C 76.71 81.67 79.78 75.34 81.09 70.16 Z" />
</g>
<g id="#585a31ff">
<path fill="#585a31" opacity="1.00" d=" M 83.04 70.04 L 84.06 69.97 C 84.58 73.29 84.91 76.63 85.07 79.98 C 85.04 82.63 85.02 85.27 85.02 87.93 C 83.19 87.79 84.39 85.14 83.96 83.94 C 83.91 80.84 84.51 77.61 83.27 74.68 L 82.95 73.72 C 82.98 72.49 83.01 71.27 83.04 70.04 Z" />
</g>
<g id="#7e97a4ff">
<path fill="#7e97a4" opacity="1.00" d=" M 84.06 69.97 C 84.55 69.88 85.54 69.69 86.03 69.59 C 88.00 72.66 86.53 76.61 86.95 79.98 L 86.03 79.99 L 85.07 79.98 C 84.91 76.63 84.58 73.29 84.06 69.97 Z" />
</g>
<g id="#a99f59ff">
<path fill="#a99f59" opacity="1.00" d=" M 73.83 85.39 C 77.91 82.36 80.74 78.22 82.95 73.72 L 83.27 74.68 C 82.59 79.73 80.53 85.40 75.24 87.11 C 74.89 86.68 74.18 85.82 73.83 85.39 Z" />
</g>
<g id="#4faecbff">
<path fill="#4faecb" opacity="1.00" d=" M 96.70 77.85 C 97.44 75.74 98.23 73.43 100.95 73.80 C 103.20 75.72 103.11 80.60 102.79 83.65 C 98.30 87.42 96.11 93.29 90.68 96.14 C 90.15 95.09 89.64 94.02 89.14 92.96 C 88.87 92.45 88.35 91.43 88.09 90.92 C 87.78 90.43 87.16 89.45 86.85 88.96 C 86.98 86.65 87.37 84.37 87.92 82.13 C 88.39 82.30 89.34 82.64 89.81 82.81 C 92.09 81.80 93.91 78.97 96.72 80.20 C 97.94 81.41 98.96 82.80 100.10 84.08 C 100.36 81.39 98.27 79.69 96.70 77.85 Z" />
</g>
<g id="#948f51ff">
<path fill="#948f51" opacity="1.00" d=" M 83.27 74.68 C 84.51 77.61 83.91 80.84 83.96 83.94 C 82.12 85.97 79.82 87.49 77.70 89.20 C 76.87 88.51 75.96 87.91 75.24 87.11 C 80.53 85.40 82.59 79.73 83.27 74.68 Z" />
</g>
<g id="#43879eff">
<path fill="#43879e" opacity="1.00" d=" M 89.81 82.81 C 90.88 79.87 93.36 77.40 96.70 77.85 C 98.27 79.69 100.36 81.39 100.10 84.08 C 98.96 82.80 97.94 81.41 96.72 80.20 C 93.91 78.97 92.09 81.80 89.81 82.81 Z" />
</g>
<g id="#7e6626ff">
<path fill="#7e6626" opacity="1.00" d=" M 35.32 79.11 L 36.14 78.80 L 36.81 78.99 C 36.67 79.48 36.40 80.47 36.26 80.96 C 36.05 82.29 35.86 83.62 35.69 84.95 C 35.41 84.43 34.85 83.38 34.57 82.85 C 34.78 81.60 35.03 80.35 35.32 79.11 Z" />
</g>
<g id="#9a853cff">
<path fill="#9a853c" opacity="1.00" d=" M 36.81 78.99 C 41.08 80.08 45.36 81.34 49.85 80.97 C 49.71 81.46 49.43 82.45 49.30 82.95 C 44.85 83.03 40.67 81.21 36.26 80.96 C 36.40 80.47 36.67 79.48 36.81 78.99 Z" />
</g>
<g id="#3a443eff">
<path fill="#3a443e" opacity="1.00" d=" M 85.07 79.98 L 86.03 79.99 C 85.98 82.71 85.95 85.43 85.92 88.16 L 85.02 87.93 C 85.02 85.27 85.04 82.63 85.07 79.98 Z" />
</g>
<g id="#5790a3ff">
<path fill="#5790a3" opacity="1.00" d=" M 86.03 79.99 L 86.95 79.98 C 87.19 80.29 87.66 80.92 87.89 81.23 L 87.92 82.13 C 87.37 84.37 86.98 86.65 86.85 88.96 L 85.95 88.98 L 85.92 88.16 C 85.95 85.43 85.98 82.71 86.03 79.99 Z" />
</g>
<g id="#dfc36bff">
<path fill="#dfc36b" opacity="1.00" d=" M 36.26 80.96 C 40.67 81.21 44.85 83.03 49.30 82.95 C 50.63 86.22 51.54 89.64 52.53 93.03 C 46.50 95.24 40.94 90.56 35.89 88.17 C 35.84 87.37 35.74 85.76 35.69 84.95 C 35.86 83.62 36.05 82.29 36.26 80.96 Z" />
</g>
<g id="#c6b15cff">
<path fill="#c6b15c" opacity="1.00" d=" M 51.87 81.28 C 53.63 81.22 57.16 81.10 58.93 81.05 L 58.93 81.84 C 56.45 82.85 54.10 82.66 51.87 81.28 Z" />
</g>
<g id="#9d883eff">
<path fill="#9d883e" opacity="1.00" d=" M 58.93 81.05 C 60.23 81.08 61.53 81.12 62.83 81.17 C 63.20 81.46 63.93 82.03 64.29 82.32 C 62.57 82.87 60.76 82.98 58.97 82.94 L 58.93 81.84 L 58.93 81.05 Z" />
</g>
<g id="#dbc66dff">
<path fill="#dbc66d" opacity="1.00" d=" M 64.29 82.32 C 65.84 82.34 67.91 81.38 69.14 82.62 C 64.22 85.87 59.47 89.42 54.14 91.99 C 53.19 89.08 52.32 86.13 51.95 83.08 C 53.71 83.05 57.22 82.98 58.97 82.94 C 60.76 82.98 62.57 82.87 64.29 82.32 Z" />
</g>
<g id="#9d803eff">
<path fill="#9d803e" opacity="1.00" d=" M 33.79 87.00 C 34.01 85.61 34.25 84.22 34.57 82.85 C 34.85 83.38 35.41 84.43 35.69 84.95 C 35.74 85.76 35.84 87.37 35.89 88.17 C 35.36 87.88 34.32 87.29 33.79 87.00 Z" />
</g>
<g id="#c7b564ff">
<path fill="#c7b564" opacity="1.00" d=" M 54.14 91.99 C 59.47 89.42 64.22 85.87 69.14 82.62 C 70.04 83.45 70.62 84.53 71.25 85.57 C 65.89 88.83 60.84 92.57 55.76 96.25 C 55.15 94.86 54.62 93.43 54.14 91.99 Z" />
</g>
<g id="#7b794fff">
<path fill="#7b794f" opacity="1.00" d=" M 77.70 89.20 C 79.82 87.49 82.12 85.97 83.96 83.94 C 84.39 85.14 83.19 87.79 85.02 87.93 L 85.92 88.16 L 85.95 88.98 C 83.50 88.79 81.12 89.04 78.83 89.74 L 78.14 89.96 L 77.70 89.20 Z" />
</g>
<g id="#3693b5f7">
<path fill="#3693b5" opacity="0.97" d=" M 90.68 96.14 C 96.11 93.29 98.30 87.42 102.79 83.65 C 103.05 90.31 98.24 96.78 91.96 98.92 L 91.04 98.93 C 90.95 98.24 90.77 96.84 90.68 96.14 Z" />
</g>
<g id="#75a4b2ff">
<path fill="#75a4b2" opacity="1.00" d=" M 32.21 85.90 C 32.60 86.17 33.40 86.72 33.79 87.00 C 34.32 87.29 35.36 87.88 35.89 88.17 C 38.03 90.00 40.13 91.88 42.18 93.81 C 42.10 95.20 42.01 96.58 41.92 97.97 L 41.00 98.29 C 38.06 94.50 35.83 89.42 30.74 88.20 C 31.10 87.62 31.84 86.47 32.21 85.90 Z" />
</g>
<g id="#b6a65cff">
<path fill="#b6a65c" opacity="1.00" d=" M 55.76 96.25 C 60.84 92.57 65.89 88.83 71.25 85.57 C 71.87 86.28 72.49 86.98 73.12 87.69 C 69.07 90.88 63.38 92.68 60.50 97.16 C 59.02 97.08 57.54 97.03 56.06 96.98 L 55.76 96.25 Z" />
</g>
<g id="#67b2c9fb">
<path fill="#67b2c9" opacity="1.00" d=" M 29.05 89.99 C 29.23 88.75 29.80 88.15 30.74 88.20 C 35.83 89.42 38.06 94.50 41.00 98.29 C 41.15 101.97 38.34 106.50 41.72 109.28 C 43.43 110.50 42.50 112.31 41.91 113.86 C 39.60 114.68 34.38 116.69 34.00 114.08 C 35.97 113.77 38.56 114.66 39.90 112.77 C 41.04 109.04 34.33 107.74 37.66 103.37 C 37.91 97.81 35.07 91.06 29.05 89.99 Z" />
</g>
<g id="#c9aa5eff">
<path fill="#c9aa5e" opacity="1.00" d=" M 35.89 88.17 C 40.94 90.56 46.50 95.24 52.53 93.03 C 53.11 94.32 53.67 95.63 54.18 96.95 C 52.72 97.03 51.25 97.12 49.78 97.21 C 48.49 97.15 47.20 97.10 45.91 97.05 C 45.47 96.76 44.57 96.18 44.13 95.89 C 43.50 95.18 42.85 94.49 42.18 93.81 C 40.13 91.88 38.03 90.00 35.89 88.17 Z" />
</g>
<g id="#a59553ff">
<path fill="#a59553" opacity="1.00" d=" M 60.50 97.16 C 63.38 92.68 69.07 90.88 73.12 87.69 C 73.43 88.01 74.04 88.65 74.35 88.97 C 71.30 92.51 66.08 93.80 63.73 97.90 C 62.61 97.85 61.53 97.60 60.50 97.16 Z" />
</g>
<g id="#92844bff">
<path fill="#92844b" opacity="1.00" d=" M 74.35 88.97 C 75.04 89.66 75.71 90.36 76.38 91.08 C 73.24 92.05 69.63 94.28 69.87 98.01 C 67.82 98.02 65.77 98.03 63.73 97.90 C 66.08 93.80 71.30 92.51 74.35 88.97 Z" />
</g>
<g id="#6ea7b7ff">
<path fill="#6ea7b7" opacity="1.00" d=" M 78.83 89.74 C 81.12 89.04 83.50 88.79 85.95 88.98 L 86.85 88.96 C 87.16 89.45 87.78 90.43 88.09 90.92 C 84.92 90.99 81.77 90.98 78.83 89.74 Z" />
</g>
<g id="#74d2edfd">
<path fill="#74d2ed" opacity="1.00" d=" M 29.05 89.99 C 35.07 91.06 37.91 97.81 37.66 103.37 C 34.33 107.74 41.04 109.04 39.90 112.77 C 38.56 114.66 35.97 113.77 34.00 114.08 C 30.94 114.20 27.82 114.31 25.08 112.80 C 24.76 110.40 27.57 109.44 28.81 107.79 C 24.74 102.67 25.83 95.27 29.05 89.99 Z" />
</g>
<g id="#70b6ccfe">
<path fill="#70b6cc" opacity="1.00" d=" M 78.14 89.96 L 78.83 89.74 C 81.77 90.98 84.92 90.99 88.09 90.92 C 88.35 91.43 88.87 92.45 89.14 92.96 C 88.11 93.37 87.07 93.76 86.03 94.12 C 82.39 92.12 78.15 93.23 75.77 96.70 C 72.45 99.02 74.79 103.71 73.21 106.99 C 71.47 106.27 69.63 105.94 67.77 105.70 C 69.80 105.32 71.50 104.56 70.94 102.16 C 71.50 97.92 74.02 94.49 76.38 91.08 C 76.82 90.80 77.70 90.24 78.14 89.96 Z" />
</g>
<g id="#709eacff">
<path fill="#709eac" opacity="1.00" d=" M 69.87 98.01 C 69.63 94.28 73.24 92.05 76.38 91.08 C 74.02 94.49 71.50 97.92 70.94 102.16 C 70.68 101.85 70.16 101.23 69.90 100.93 L 69.87 100.06 C 69.87 99.55 69.87 98.52 69.87 98.01 Z" />
</g>
<g id="#70ceeafd">
<path fill="#70ceea" opacity="1.00" d=" M 75.77 96.70 C 78.15 93.23 82.39 92.12 86.03 94.12 C 89.82 99.10 86.62 105.12 83.90 109.73 C 84.37 109.80 85.31 109.94 85.78 110.01 C 87.49 110.36 89.18 110.78 90.90 111.11 C 92.61 111.81 93.55 114.12 94.11 115.86 C 87.49 116.28 80.84 117.64 74.20 116.84 C 71.89 114.39 73.96 110.15 73.21 106.99 C 74.79 103.71 72.45 99.02 75.77 96.70 Z" />
</g>
<g id="#5cbad8fe">
<path fill="#5cbad8" opacity="1.00" d=" M 86.03 94.12 C 87.07 93.76 88.11 93.37 89.14 92.96 C 89.64 94.02 90.15 95.09 90.68 96.14 C 90.77 96.84 90.95 98.24 91.04 98.93 L 90.81 99.76 C 88.49 102.79 88.00 106.83 85.78 110.01 C 85.31 109.94 84.37 109.80 83.90 109.73 C 86.62 105.12 89.82 99.10 86.03 94.12 Z" />
</g>
<g id="#4589a1fe">
<path fill="#4589a1" opacity="1.00" d=" M 42.18 93.81 C 42.85 94.49 43.50 95.18 44.13 95.89 C 44.08 99.25 43.89 102.62 44.01 105.98 C 46.40 106.62 43.56 100.54 46.15 102.70 C 46.13 104.45 46.29 106.19 46.61 107.91 C 46.11 111.71 43.58 108.10 42.24 106.70 C 42.05 103.78 41.95 100.89 41.92 97.97 C 42.01 96.58 42.10 95.20 42.18 93.81 Z" />
</g>
<g id="#316d81f3">
<path fill="#316d81" opacity="0.95" d=" M 44.13 95.89 C 44.57 96.18 45.47 96.76 45.91 97.05 C 46.38 97.31 47.30 97.84 47.77 98.10 C 46.97 99.37 47.63 103.16 46.15 102.70 C 43.56 100.54 46.40 106.62 44.01 105.98 C 43.89 102.62 44.08 99.25 44.13 95.89 Z" />
</g>
<g id="#908d4ff8">
<path fill="#908d4f" opacity="0.97" d=" M 45.91 97.05 C 47.20 97.10 48.49 97.15 49.78 97.21 C 54.22 97.62 58.59 98.49 63.01 99.06 C 62.58 100.06 62.16 101.07 61.77 102.09 C 56.93 101.60 52.14 100.26 47.77 98.10 C 47.30 97.84 46.38 97.31 45.91 97.05 Z" />
</g>
<g id="#706735ff">
<path fill="#706735" opacity="1.00" d=" M 49.78 97.21 C 51.25 97.12 52.72 97.03 54.18 96.95 C 54.65 96.96 55.59 96.98 56.06 96.98 C 57.54 97.03 59.02 97.08 60.50 97.16 C 61.53 97.60 62.61 97.85 63.73 97.90 C 65.77 98.03 67.82 98.02 69.87 98.01 C 69.87 98.52 69.87 99.55 69.87 100.06 C 67.57 99.82 65.31 99.31 63.01 99.06 C 58.59 98.49 54.22 97.62 49.78 97.21 Z" />
</g>
<g id="#499ab4fc">
<path fill="#499ab4" opacity="1.00" d=" M 41.00 98.29 L 41.92 97.97 C 41.95 100.89 42.05 103.78 42.24 106.70 C 43.58 108.10 46.11 111.71 46.61 107.91 C 47.25 109.47 48.34 111.02 47.91 112.80 C 46.05 113.75 44.00 114.30 41.91 113.86 C 42.50 112.31 43.43 110.50 41.72 109.28 C 38.34 106.50 41.15 101.97 41.00 98.29 Z" />
</g>
<g id="#718457ff">
<path fill="#718457" opacity="1.00" d=" M 63.01 99.06 C 65.31 99.31 67.57 99.82 69.87 100.06 L 69.90 100.93 C 67.18 101.22 64.50 101.84 61.77 102.09 C 62.16 101.07 62.58 100.06 63.01 99.06 Z" />
</g>
<g id="#26738dcd">
<path fill="#26738d" opacity="0.80" d=" M 91.04 98.93 L 91.96 98.92 C 91.18 101.33 93.47 106.99 91.01 108.00 C 90.96 105.25 90.89 102.50 90.81 99.76 L 91.04 98.93 Z" />
</g>
<g id="#48a8cafe">
<path fill="#48a8ca" opacity="1.00" d=" M 85.78 110.01 C 88.00 106.83 88.49 102.79 90.81 99.76 C 90.89 102.50 90.96 105.25 91.01 108.00 C 90.99 108.78 90.93 110.33 90.90 111.11 C 89.18 110.78 87.49 110.36 85.78 110.01 Z" />
</g>
<g id="#48879cfd">
<path fill="#48879c" opacity="1.00" d=" M 61.77 102.09 C 64.50 101.84 67.18 101.22 69.90 100.93 C 70.16 101.23 70.68 101.85 70.94 102.16 C 71.50 104.56 69.80 105.32 67.77 105.70 C 65.31 106.19 63.19 103.88 61.77 102.09 Z" />
</g>
</svg>
