<?xml version="1.0" encoding="UTF-8" ?>
<!DOCTYPE svg PUBLIC "-//W3C//DTD SVG 1.1//EN" "http://www.w3.org/Graphics/SVG/1.1/DTD/svg11.dtd">
<svg width="138pt" height="169pt" viewBox="0 0 138 169" version="1.1" xmlns="http://www.w3.org/2000/svg">
<g id="#d6eef3fa">
<path fill="#d6eef3" opacity="0.98" d=" M 32.04 9.92 C 36.17 10.19 37.14 15.63 36.93 18.99 C 35.98 27.03 34.65 35.09 35.18 43.21 C 34.98 44.92 34.74 46.63 34.31 48.30 C 34.16 44.87 34.10 41.43 33.95 38.00 C 32.81 28.66 33.51 19.22 32.04 9.92 Z" />
</g>
<g id="#b7d7e9f9">
<path fill="#b7d7e9" opacity="0.98" d=" M 112.29 11.32 C 113.74 10.52 115.21 11.35 116.27 12.36 C 108.88 15.42 101.69 19.28 96.80 25.87 C 91.78 29.86 89.72 35.87 87.84 41.70 C 86.91 41.49 85.99 41.26 85.07 41.00 C 85.05 40.29 84.99 38.88 84.97 38.17 C 89.25 25.70 99.95 15.67 112.29 11.32 Z" />
</g>
<g id="#809cc7fd">
<path fill="#809cc7" opacity="1.00" d=" M 116.27 12.36 L 117.08 12.00 C 116.75 15.34 113.89 17.45 112.01 19.95 C 103.49 26.83 98.54 36.88 93.16 46.17 C 91.24 48.28 91.78 51.45 94.26 52.82 C 97.11 53.91 98.44 50.62 100.14 49.04 C 99.72 51.30 99.24 53.86 97.22 55.27 C 93.33 54.88 85.90 56.42 84.67 50.91 C 87.55 51.60 90.50 50.68 90.27 47.24 C 90.79 36.46 98.17 28.38 105.10 20.91 C 101.68 21.60 99.82 25.10 97.05 27.00 L 96.80 25.87 C 101.69 19.28 108.88 15.42 116.27 12.36 Z" />
</g>
<g id="#afd2ecfd">
<path fill="#afd2ec" opacity="1.00" d=" M 36.93 18.99 C 38.91 20.54 38.92 25.18 38.95 28.00 C 38.45 31.24 38.13 34.50 37.84 37.77 C 36.83 39.52 35.98 41.36 35.18 43.21 C 34.65 35.09 35.98 27.03 36.93 18.99 Z" />
</g>
<g id="#8daacffd">
<path fill="#8daacf" opacity="1.00" d=" M 112.01 19.95 L 112.99 20.17 C 113.01 21.84 113.05 25.18 113.07 26.85 C 112.59 34.08 107.64 40.53 102.82 45.78 C 101.84 46.79 100.99 47.92 100.14 49.04 C 98.44 50.62 97.11 53.91 94.26 52.82 C 91.78 51.45 91.24 48.28 93.16 46.17 C 98.54 36.88 103.49 26.83 112.01 19.95 Z" />
</g>
<g id="#16191f67">
<path fill="#16191f" opacity="0.40" d=" M 112.99 20.17 C 114.87 20.90 114.81 26.02 113.07 26.85 C 113.05 25.18 113.01 21.84 112.99 20.17 Z" />
</g>
<g id="#536d94ff">
<path fill="#536d94" opacity="1.00" d=" M 97.05 27.00 C 99.82 25.10 101.68 21.60 105.10 20.91 C 98.17 28.38 90.79 36.46 90.27 47.24 C 90.09 45.40 89.88 43.57 89.69 41.74 C 90.96 36.32 93.78 31.44 97.05 27.00 Z" />
</g>
<g id="#9dbddeff">
<path fill="#9dbdde" opacity="1.00" d=" M 87.84 41.70 C 89.72 35.87 91.78 29.86 96.80 25.87 L 97.05 27.00 C 93.78 31.44 90.96 36.32 89.69 41.74 C 89.08 43.82 88.59 45.93 87.78 47.94 C 86.47 48.08 85.24 47.60 84.07 47.08 C 83.90 44.98 84.06 42.88 84.20 40.79 L 85.07 41.00 C 85.99 41.26 86.91 41.49 87.84 41.70 Z" />
</g>
<g id="#88a5cafa">
<path fill="#88a5ca" opacity="0.98" d=" M 38.95 28.00 C 41.12 27.83 39.60 31.59 39.99 33.05 C 39.61 36.36 39.32 39.68 38.91 42.99 C 38.34 47.03 35.83 50.67 36.09 54.85 L 35.17 54.90 C 34.05 54.11 33.58 52.56 34.28 51.33 C 36.77 47.37 38.06 42.45 37.84 37.77 C 38.13 34.50 38.45 31.24 38.95 28.00 Z" />
</g>
<g id="#b9d9f7fb">
<path fill="#b9d9f7" opacity="1.00" d=" M 41.85 42.38 C 50.74 32.20 67.24 28.89 79.20 35.36 C 68.45 36.24 57.51 37.93 47.79 42.82 C 42.35 45.10 42.92 52.19 38.89 55.87 C 38.88 60.61 38.95 65.36 39.22 70.10 C 38.94 70.63 38.38 71.70 38.10 72.24 L 38.07 71.21 C 37.96 65.74 38.26 60.22 37.21 54.81 C 38.24 50.49 39.56 46.21 41.85 42.38 Z" />
</g>
<g id="#677faff9">
<path fill="#677faf" opacity="0.98" d=" M 39.99 33.05 C 43.35 33.17 39.40 40.11 41.85 42.38 C 39.56 46.21 38.24 50.49 37.21 54.81 L 36.09 54.85 C 35.83 50.67 38.34 47.03 38.91 42.99 C 39.32 39.68 39.61 36.36 39.99 33.05 Z" />
</g>
<g id="#a3c0faff">
<path fill="#a3c0fa" opacity="1.00" d=" M 79.20 35.36 C 79.69 35.61 80.68 36.12 81.17 36.37 C 78.99 36.88 76.56 37.19 75.26 39.26 C 75.02 43.66 75.67 48.65 71.99 51.99 C 69.05 57.92 60.98 58.11 58.00 63.98 C 56.12 68.22 54.82 72.71 52.68 76.84 C 50.27 76.13 45.53 78.60 44.08 75.26 C 44.81 74.61 45.49 73.91 46.13 73.16 C 48.59 70.77 45.05 65.15 48.82 63.52 C 48.21 62.94 47.57 62.40 46.92 61.88 C 46.69 61.62 46.22 61.11 45.99 60.85 C 45.45 60.16 44.86 59.50 44.22 58.89 C 43.97 58.63 43.46 58.10 43.20 57.84 C 42.00 56.53 40.86 54.49 38.89 55.87 C 42.92 52.19 42.35 45.10 47.79 42.82 C 57.51 37.93 68.45 36.24 79.20 35.36 Z" />
</g>
<g id="#95afebfe">
<path fill="#95afeb" opacity="1.00" d=" M 81.17 36.37 C 81.67 36.60 82.65 37.05 83.15 37.28 C 74.47 39.02 80.06 50.58 76.17 56.16 C 73.67 55.77 71.78 57.37 69.92 58.75 C 69.68 58.92 69.19 59.27 68.94 59.44 C 68.46 59.75 67.50 60.36 67.02 60.67 C 66.54 60.98 65.58 61.61 65.10 61.93 C 63.97 62.63 60.09 65.72 63.58 64.55 C 67.17 63.12 64.10 69.31 65.71 71.22 C 66.61 73.03 67.17 76.24 69.79 75.90 C 70.65 75.98 72.37 76.16 73.23 76.24 C 71.12 77.19 68.91 77.93 66.74 78.75 C 65.15 79.03 63.57 79.43 62.11 80.16 C 60.11 80.12 57.23 80.61 58.64 77.76 C 57.18 78.56 55.92 79.65 54.56 80.60 C 50.53 81.30 46.97 79.20 43.14 78.52 C 41.88 78.21 40.58 78.11 39.29 77.99 C 38.73 77.74 37.60 77.25 37.04 77.01 C 36.91 74.98 36.94 72.94 37.07 70.92 L 38.07 71.21 L 38.10 72.24 C 36.49 75.53 41.56 76.22 41.33 72.88 C 41.77 73.15 42.64 73.71 43.07 73.99 C 43.32 74.31 43.82 74.94 44.08 75.26 C 45.53 78.60 50.27 76.13 52.68 76.84 C 54.82 72.71 56.12 68.22 58.00 63.98 C 60.98 58.11 69.05 57.92 71.99 51.99 C 75.67 48.65 75.02 43.66 75.26 39.26 C 76.56 37.19 78.99 36.88 81.17 36.37 Z" />
</g>
<g id="#8ca5e3ff">
<path fill="#8ca5e3" opacity="1.00" d=" M 83.15 37.28 C 83.60 37.50 84.51 37.94 84.97 38.17 C 84.99 38.88 85.05 40.29 85.07 41.00 L 84.20 40.79 C 83.93 40.54 83.39 40.06 83.11 39.81 C 80.87 37.93 79.83 38.98 80.00 42.97 C 77.71 48.93 80.47 55.59 78.12 61.48 C 77.75 60.84 77.01 59.56 76.64 58.92 C 76.46 58.00 76.31 57.08 76.17 56.16 C 80.06 50.58 74.47 39.02 83.15 37.28 Z" />
</g>
<g id="#06060626">
<path fill="#060606" opacity="0.15" d=" M 33.16 47.98 C 33.35 45.48 33.75 40.49 33.95 38.00 C 34.10 41.43 34.16 44.87 34.31 48.30 L 33.16 47.98 Z" />
</g>
<g id="#9ebcdbfd">
<path fill="#9ebcdb" opacity="1.00" d=" M 35.18 43.21 C 35.98 41.36 36.83 39.52 37.84 37.77 C 38.06 42.45 36.77 47.37 34.28 51.33 C 34.29 50.57 34.30 49.06 34.31 48.30 C 34.74 46.63 34.98 44.92 35.18 43.21 Z" />
</g>
<g id="#829adbff">
<path fill="#829adb" opacity="1.00" d=" M 80.00 42.97 C 79.83 38.98 80.87 37.93 83.11 39.81 C 78.61 48.27 81.84 58.72 81.22 67.89 C 81.16 70.01 84.63 73.77 81.32 74.31 C 78.47 74.47 76.36 74.04 77.89 70.88 C 78.09 67.75 77.99 64.61 78.12 61.48 C 80.47 55.59 77.71 48.93 80.00 42.97 Z" />
</g>
<g id="#768ccfff">
<path fill="#768ccf" opacity="1.00" d=" M 83.11 39.81 C 83.39 40.06 83.93 40.54 84.20 40.79 C 84.06 42.88 83.90 44.98 84.07 47.08 C 84.24 48.36 84.50 49.63 84.67 50.91 C 80.90 56.50 85.82 63.47 86.59 69.34 C 88.26 72.65 84.60 74.68 82.85 76.92 C 81.64 77.35 80.43 77.80 79.21 78.20 C 78.69 78.18 77.65 78.14 77.13 78.12 C 76.43 77.45 75.76 76.75 75.12 76.02 C 78.17 77.04 80.23 76.47 81.32 74.31 C 84.63 73.77 81.16 70.01 81.22 67.89 C 81.84 58.72 78.61 48.27 83.11 39.81 Z" />
</g>
<g id="#8eabd1ff">
<path fill="#8eabd1" opacity="1.00" d=" M 87.78 47.94 C 88.59 45.93 89.08 43.82 89.69 41.74 C 89.88 43.57 90.09 45.40 90.27 47.24 C 90.50 50.68 87.55 51.60 84.67 50.91 C 84.50 49.63 84.24 48.36 84.07 47.08 C 85.24 47.60 86.47 48.08 87.78 47.94 Z" />
</g>
<g id="#b6d7edfd">
<path fill="#b6d7ed" opacity="1.00" d=" M 100.14 49.04 C 100.99 47.92 101.84 46.79 102.82 45.78 C 104.28 46.88 107.60 47.27 106.88 49.71 C 101.31 54.05 100.50 61.61 97.62 67.69 C 96.97 67.81 95.69 68.06 95.04 68.19 C 94.79 67.86 94.30 67.21 94.05 66.88 C 93.99 63.63 93.96 60.40 94.07 57.15 C 95.19 56.66 96.30 56.10 97.22 55.27 C 99.24 53.86 99.72 51.30 100.14 49.04 Z" />
</g>
<g id="#9fbedffe">
<path fill="#9fbedf" opacity="1.00" d=" M 97.62 67.69 C 100.50 61.61 101.31 54.05 106.88 49.71 C 109.10 50.78 110.15 53.62 110.04 55.98 C 110.01 59.37 110.05 62.77 109.85 66.15 L 109.72 67.23 C 108.15 65.59 111.01 58.43 107.07 59.58 C 107.00 58.47 106.96 57.36 106.95 56.25 C 110.51 58.34 108.67 53.08 106.19 54.08 C 105.43 54.87 104.89 55.79 104.56 56.84 C 104.13 58.11 103.94 59.44 103.68 60.75 C 101.35 64.42 100.49 68.70 99.92 72.95 C 98.08 71.60 96.37 70.05 95.04 68.19 C 95.69 68.06 96.97 67.81 97.62 67.69 Z" />
</g>
<g id="#6980c4ff">
<path fill="#6980c4" opacity="1.00" d=" M 86.59 69.34 C 85.82 63.47 80.90 56.50 84.67 50.91 C 85.90 56.42 93.33 54.88 97.22 55.27 C 96.30 56.10 95.19 56.66 94.07 57.15 C 92.23 60.70 92.32 66.78 93.78 71.15 C 93.59 71.99 93.37 72.82 93.10 73.63 C 92.22 74.97 91.44 76.37 90.74 77.81 C 88.53 79.93 86.32 82.09 83.79 83.83 C 81.98 84.19 80.27 84.89 78.64 85.75 C 76.85 86.23 75.06 86.72 73.23 87.04 C 72.88 86.72 72.16 86.09 71.80 85.78 C 78.17 84.20 87.20 82.59 89.12 75.16 C 86.94 75.40 84.91 76.23 82.85 76.92 C 84.60 74.68 88.26 72.65 86.59 69.34 Z" />
</g>
<g id="#5a7d9eff">
<path fill="#5a7d9e" opacity="1.00" d=" M 106.19 54.08 C 108.67 53.08 110.51 58.34 106.95 56.25 C 105.13 54.94 106.46 60.84 105.31 58.48 C 105.13 58.07 104.75 57.25 104.56 56.84 C 104.89 55.79 105.43 54.87 106.19 54.08 Z" />
</g>
<g id="#333d4081">
<path fill="#333d40" opacity="0.51" d=" M 35.17 54.90 L 36.09 54.85 L 37.21 54.81 C 38.26 60.22 37.96 65.74 38.07 71.21 L 37.07 70.92 C 36.77 66.05 37.33 61.15 36.84 56.29 C 36.43 55.94 35.59 55.25 35.17 54.90 Z" />
</g>
<g id="#7f8698ff">
<path fill="#7f8698" opacity="1.00" d=" M 38.89 55.87 C 40.86 54.49 42.00 56.53 43.20 57.84 L 42.19 57.75 C 41.62 57.61 40.49 57.31 39.93 57.17 C 39.95 61.32 39.94 65.48 40.12 69.64 L 39.22 70.10 C 38.95 65.36 38.88 60.61 38.89 55.87 Z" />
</g>
<g id="#656b7cff">
<path fill="#656b7c" opacity="1.00" d=" M 69.92 58.75 C 71.78 57.37 73.67 55.77 76.17 56.16 C 76.31 57.08 76.46 58.00 76.64 58.92 C 76.45 59.23 76.07 59.85 75.89 60.17 C 75.02 57.68 72.88 57.61 71.76 59.98 C 71.30 59.67 70.38 59.06 69.92 58.75 Z" />
</g>
<g id="#7b99c2fd">
<path fill="#7b99c2" opacity="1.00" d=" M 105.31 58.48 C 106.46 60.84 105.13 54.94 106.95 56.25 C 106.96 57.36 107.00 58.47 107.07 59.58 C 111.01 58.43 108.15 65.59 109.72 67.23 C 109.58 68.67 108.51 69.85 107.74 71.02 C 106.79 70.35 105.89 68.74 104.69 69.94 C 104.07 66.91 103.98 63.82 103.68 60.75 C 103.94 59.44 104.13 58.11 104.56 56.84 C 104.75 57.25 105.13 58.07 105.31 58.48 Z" />
</g>
<g id="#3e525f9a">
<path fill="#3e525f" opacity="0.60" d=" M 110.04 55.98 L 111.01 56.01 C 110.72 58.54 110.14 63.61 109.85 66.15 C 110.05 62.77 110.01 59.37 110.04 55.98 Z" />
</g>
<g id="#f3f4f4ff">
<path fill="#f3f4f4" opacity="1.00" d=" M 39.93 57.17 C 40.49 57.31 41.62 57.61 42.19 57.75 C 42.10 58.25 41.92 59.26 41.83 59.77 C 41.20 62.58 40.59 65.53 41.61 68.31 L 41.82 69.20 C 42.17 70.81 42.61 72.40 43.07 73.99 C 42.64 73.71 41.77 73.15 41.33 72.88 C 40.96 71.79 40.55 70.71 40.12 69.64 C 39.94 65.48 39.95 61.32 39.93 57.17 Z" />
</g>
<g id="#7d9fdfff">
<path fill="#7d9fdf" opacity="1.00" d=" M 93.78 71.15 C 92.32 66.78 92.23 60.70 94.07 57.15 C 93.96 60.40 93.99 63.63 94.05 66.88 C 94.05 67.66 94.06 69.21 94.06 69.99 L 93.78 71.15 Z" />
</g>
<g id="#3e2926ff">
<path fill="#3e2926" opacity="1.00" d=" M 42.19 57.75 L 43.20 57.84 C 43.46 58.10 43.97 58.63 44.22 58.89 C 41.30 60.87 44.76 64.86 45.99 60.85 C 46.22 61.11 46.69 61.62 46.92 61.88 C 46.55 64.27 46.24 66.66 45.99 69.07 C 44.65 69.83 43.21 69.80 41.82 69.20 L 41.61 68.31 C 41.69 65.46 41.76 62.61 41.83 59.77 C 41.92 59.26 42.10 58.25 42.19 57.75 Z" />
</g>
<g id="#e1e2e1ff">
<path fill="#e1e2e1" opacity="1.00" d=" M 71.76 59.98 C 72.88 57.61 75.02 57.68 75.89 60.17 C 76.00 60.81 76.23 62.08 76.35 62.72 C 76.25 65.90 76.11 69.08 76.19 72.26 C 75.88 72.77 75.25 73.79 74.93 74.30 C 73.88 74.28 72.84 74.29 71.79 74.23 C 72.38 73.29 72.73 72.28 72.83 71.20 C 73.17 67.42 73.46 63.48 71.76 59.98 Z" />
</g>
<g id="#a4a9b3ff">
<path fill="#a4a9b3" opacity="1.00" d=" M 44.22 58.89 C 44.86 59.50 45.45 60.16 45.99 60.85 C 44.76 64.86 41.30 60.87 44.22 58.89 Z" />
</g>
<g id="#3a2726ff">
<path fill="#3a2726" opacity="1.00" d=" M 68.94 59.44 C 69.19 59.27 69.68 58.92 69.92 58.75 C 70.38 59.06 71.30 59.67 71.76 59.98 C 73.46 63.48 73.17 67.42 72.83 71.20 C 72.49 70.00 71.80 67.60 71.46 66.40 C 70.92 68.16 70.51 69.95 69.93 71.70 C 68.51 70.49 67.39 69.53 65.71 71.22 C 65.84 68.10 66.43 64.86 65.10 61.93 C 65.58 61.61 66.54 60.98 67.02 60.67 C 67.26 61.92 67.23 63.55 69.04 63.00 C 71.20 63.51 69.42 60.29 68.94 59.44 Z" />
</g>
<g id="#424961ff">
<path fill="#424961" opacity="1.00" d=" M 75.89 60.17 C 76.07 59.85 76.45 59.23 76.64 58.92 C 77.01 59.56 77.75 60.84 78.12 61.48 C 77.99 64.61 78.09 67.75 77.89 70.88 L 77.11 71.07 C 76.97 68.27 77.11 65.44 76.35 62.72 C 76.23 62.08 76.00 60.81 75.89 60.17 Z" />
</g>
<g id="#adadadff">
<path fill="#adadad" opacity="1.00" d=" M 41.61 68.31 C 40.59 65.53 41.20 62.58 41.83 59.77 C 41.76 62.61 41.69 65.46 41.61 68.31 Z" />
</g>
<g id="#adb2b7ff">
<path fill="#adb2b7" opacity="1.00" d=" M 67.02 60.67 C 67.50 60.36 68.46 59.75 68.94 59.44 C 69.42 60.29 71.20 63.51 69.04 63.00 C 67.23 63.55 67.26 61.92 67.02 60.67 Z" />
</g>
<g id="#8babd4ff">
<path fill="#8babd4" opacity="1.00" d=" M 99.92 72.95 C 100.49 68.70 101.35 64.42 103.68 60.75 C 103.98 63.82 104.07 66.91 104.69 69.94 C 105.67 73.13 105.81 76.49 106.12 79.80 C 105.60 79.62 104.57 79.27 104.05 79.10 C 102.95 76.88 101.61 74.77 99.92 72.95 Z" />
</g>
<g id="#676d8bff">
<path fill="#676d8b" opacity="1.00" d=" M 46.92 61.88 C 47.57 62.40 48.21 62.94 48.82 63.52 C 45.05 65.15 48.59 70.77 46.13 73.16 C 46.08 71.80 46.03 70.43 45.99 69.07 C 46.24 66.66 46.55 64.27 46.92 61.88 Z" />
</g>
<g id="#596689ff">
<path fill="#596689" opacity="1.00" d=" M 63.58 64.55 C 60.09 65.72 63.97 62.63 65.10 61.93 C 66.43 64.86 65.84 68.10 65.71 71.22 C 64.10 69.31 67.17 63.12 63.58 64.55 Z" />
</g>
<g id="#a4a4a4ff">
<path fill="#a4a4a4" opacity="1.00" d=" M 76.35 62.72 C 77.11 65.44 76.97 68.27 77.11 71.07 C 76.88 71.37 76.42 71.96 76.19 72.26 C 76.11 69.08 76.25 65.90 76.35 62.72 Z" />
</g>
<g id="#6e4541ff">
<path fill="#6e4541" opacity="1.00" d=" M 71.46 66.40 C 71.80 67.60 72.49 70.00 72.83 71.20 C 72.73 72.28 72.38 73.29 71.79 74.23 C 71.11 74.78 70.45 75.33 69.79 75.90 C 67.17 76.24 66.61 73.03 65.71 71.22 C 67.39 69.53 68.51 70.49 69.93 71.70 C 70.51 69.95 70.92 68.16 71.46 66.40 Z" />
</g>
<g id="#a1a9c9ff">
<path fill="#a1a9c9" opacity="1.00" d=" M 94.05 66.88 C 94.30 67.21 94.79 67.86 95.04 68.19 C 96.37 70.05 98.08 71.60 99.92 72.95 C 101.61 74.77 102.95 76.88 104.05 79.10 C 102.74 78.70 101.45 78.27 100.15 77.86 C 98.25 75.14 96.21 72.51 94.06 69.99 C 94.06 69.21 94.05 67.66 94.05 66.88 Z" />
</g>
<g id="#7c4d46ff">
<path fill="#7c4d46" opacity="1.00" d=" M 41.82 69.20 C 43.21 69.80 44.65 69.83 45.99 69.07 C 46.03 70.43 46.08 71.80 46.13 73.16 C 45.49 73.91 44.81 74.61 44.08 75.26 C 43.82 74.94 43.32 74.31 43.07 73.99 C 42.61 72.40 42.17 70.81 41.82 69.20 Z" />
</g>
<g id="#4f688cf1">
<path fill="#4f688c" opacity="0.95" d=" M 104.69 69.94 C 105.89 68.74 106.79 70.35 107.74 71.02 C 107.68 71.93 107.61 72.84 107.56 73.75 C 108.16 77.34 107.68 79.35 106.12 79.80 C 105.81 76.49 105.67 73.13 104.69 69.94 Z" />
</g>
<g id="#829fdffe">
<path fill="#829fdf" opacity="1.00" d=" M 39.22 70.10 L 40.12 69.64 C 40.55 70.71 40.96 71.79 41.33 72.88 C 41.56 76.22 36.49 75.53 38.10 72.24 C 38.38 71.70 38.94 70.63 39.22 70.10 Z" />
</g>
<g id="#8d91b9ff">
<path fill="#8d91b9" opacity="1.00" d=" M 94.06 69.99 C 96.21 72.51 98.25 75.14 100.15 77.86 C 98.86 77.93 97.58 78.01 96.30 78.11 C 95.29 76.57 94.28 75.04 93.10 73.63 C 93.37 72.82 93.59 71.99 93.78 71.15 L 94.06 69.99 Z" />
</g>
<g id="#5973c8ff">
<path fill="#5973c8" opacity="1.00" d=" M 77.11 71.07 L 77.89 70.88 C 76.36 74.04 78.47 74.47 81.32 74.31 C 80.23 76.47 78.17 77.04 75.12 76.02 C 75.07 75.59 74.98 74.73 74.93 74.30 C 75.25 73.79 75.88 72.77 76.19 72.26 C 76.42 71.96 76.88 71.37 77.11 71.07 Z" />
</g>
<g id="#889ed9ff">
<path fill="#889ed9" opacity="1.00" d=" M 69.79 75.90 C 70.45 75.33 71.11 74.78 71.79 74.23 C 72.84 74.29 73.88 74.28 74.93 74.30 C 74.98 74.73 75.07 75.59 75.12 76.02 C 75.76 76.75 76.43 77.45 77.13 78.12 C 73.68 78.49 70.22 78.99 66.74 78.75 C 68.91 77.93 71.12 77.19 73.23 76.24 C 72.37 76.16 70.65 75.98 69.79 75.90 Z" />
</g>
<g id="#646367ff">
<path fill="#646367" opacity="1.00" d=" M 90.74 77.81 C 91.44 76.37 92.22 74.97 93.10 73.63 C 94.28 75.04 95.29 76.57 96.30 78.11 C 94.44 78.01 92.59 77.91 90.74 77.81 Z" />
</g>
<g id="#95b1e7fb">
<path fill="#95b1e7" opacity="1.00" d=" M 106.12 79.80 C 107.68 79.35 108.16 77.34 107.56 73.75 C 108.41 76.37 107.71 79.48 109.14 81.85 C 112.20 83.95 116.59 84.65 118.33 88.30 C 115.83 88.41 110.83 88.63 108.33 88.75 C 103.68 86.83 102.43 80.19 96.82 80.02 C 96.29 79.81 95.23 79.37 94.70 79.16 C 95.10 78.89 95.90 78.37 96.30 78.11 C 97.58 78.01 98.86 77.93 100.15 77.86 C 101.45 78.27 102.74 78.70 104.05 79.10 C 104.57 79.27 105.60 79.62 106.12 79.80 Z" />
</g>
<g id="#5a6db4ff">
<path fill="#5a6db4" opacity="1.00" d=" M 82.85 76.92 C 84.91 76.23 86.94 75.40 89.12 75.16 C 87.20 82.59 78.17 84.20 71.80 85.78 C 70.15 85.80 66.86 85.85 65.21 85.88 C 62.97 85.14 58.43 86.44 59.00 83.17 C 65.45 84.09 72.22 78.93 78.05 83.09 C 78.31 81.45 77.28 80.27 76.25 79.16 C 77.24 78.85 78.22 78.53 79.21 78.20 C 80.43 77.80 81.64 77.35 82.85 76.92 Z" />
</g>
<g id="#a3bee5f5">
<path fill="#a3bee5" opacity="0.96" d=" M 18.80 87.49 C 23.87 82.44 30.57 79.73 37.04 77.01 C 37.60 77.25 38.73 77.74 39.29 77.99 C 39.01 79.16 38.29 79.87 37.13 80.11 C 32.06 79.63 28.43 84.12 24.15 86.18 C 22.69 87.71 20.82 88.36 18.80 87.49 Z" />
</g>
<g id="#7d93d4ff">
<path fill="#7d93d4" opacity="1.00" d=" M 39.29 77.99 C 40.58 78.11 41.88 78.21 43.14 78.52 C 37.64 81.60 35.76 88.22 31.75 92.79 C 28.13 95.36 23.81 97.06 19.34 97.19 C 17.86 96.64 16.36 96.15 14.86 95.66 C 16.23 89.83 23.10 93.43 27.04 91.01 C 32.01 89.16 33.60 83.64 37.13 80.11 C 38.29 79.87 39.01 79.16 39.29 77.99 Z" />
</g>
<g id="#6f84c6fe">
<path fill="#6f84c6" opacity="1.00" d=" M 54.56 80.60 C 55.92 79.65 57.18 78.56 58.64 77.76 C 57.23 80.61 60.11 80.12 62.11 80.16 C 59.05 82.41 54.06 80.35 51.94 83.77 C 56.08 85.73 60.68 86.06 65.21 85.88 C 66.86 85.85 70.15 85.80 71.80 85.78 C 72.16 86.09 72.88 86.72 73.23 87.04 C 72.24 87.39 71.24 87.75 70.25 88.11 C 67.11 88.10 63.98 88.08 60.85 88.11 C 57.94 87.75 55.08 87.09 52.18 86.66 C 50.83 85.93 49.49 85.20 48.10 84.58 C 47.12 84.14 46.12 83.77 45.09 83.46 C 44.17 83.11 43.22 82.99 42.25 83.10 C 38.51 88.08 36.35 94.46 31.04 98.06 C 27.32 100.35 21.60 99.14 19.04 103.09 C 17.34 102.99 14.67 102.78 13.97 101.05 C 15.86 99.95 18.40 99.37 19.34 97.19 C 23.81 97.06 28.13 95.36 31.75 92.79 C 35.76 88.22 37.64 81.60 43.14 78.52 C 46.97 79.20 50.53 81.30 54.56 80.60 Z" />
</g>
<g id="#677abeff">
<path fill="#677abe" opacity="1.00" d=" M 66.74 78.75 C 70.22 78.99 73.68 78.49 77.13 78.12 C 77.65 78.14 78.69 78.18 79.21 78.20 C 78.22 78.53 77.24 78.85 76.25 79.16 C 77.28 80.27 78.31 81.45 78.05 83.09 C 72.22 78.93 65.45 84.09 59.00 83.17 C 58.43 86.44 62.97 85.14 65.21 85.88 C 60.68 86.06 56.08 85.73 51.94 83.77 C 54.06 80.35 59.05 82.41 62.11 80.16 C 63.57 79.43 65.15 79.03 66.74 78.75 Z" />
</g>
<g id="#78737cff">
<path fill="#78737c" opacity="1.00" d=" M 83.79 83.83 C 86.32 82.09 88.53 79.93 90.74 77.81 C 92.59 77.91 94.44 78.01 96.30 78.11 C 95.90 78.37 95.10 78.89 94.70 79.16 C 94.23 79.16 93.29 79.15 92.83 79.15 C 92.29 79.33 91.21 79.70 90.68 79.88 C 89.97 80.84 89.33 81.85 88.72 82.89 C 87.43 90.55 89.63 102.63 98.87 104.22 C 99.95 104.58 101.06 104.80 102.20 104.87 C 102.61 104.93 103.42 105.06 103.83 105.13 L 104.24 105.64 C 102.52 107.04 100.89 108.55 99.22 110.01 C 98.31 106.49 93.62 106.03 91.85 103.13 C 87.57 97.45 85.21 90.72 83.79 83.83 Z" />
</g>
<g id="#6d82c7ff">
<path fill="#6d82c7" opacity="1.00" d=" M 90.68 79.88 C 91.21 79.70 92.29 79.33 92.83 79.15 C 94.64 82.78 97.02 86.27 97.46 90.41 C 97.21 95.62 100.50 100.76 105.31 102.66 C 109.65 102.64 113.98 102.04 118.32 102.20 C 118.20 102.61 117.96 103.43 117.84 103.84 C 116.31 104.55 114.67 104.95 112.99 105.03 C 111.97 105.12 110.97 105.28 109.98 105.52 C 109.51 105.63 108.57 105.85 108.09 105.96 C 106.67 105.68 105.26 105.35 103.83 105.13 C 103.42 105.06 102.61 104.93 102.20 104.87 C 100.03 101.41 96.65 98.66 95.45 94.63 C 94.47 89.54 93.44 84.36 90.68 79.88 Z" />
</g>
<g id="#7a8fd1ff">
<path fill="#7a8fd1" opacity="1.00" d=" M 92.83 79.15 C 93.29 79.15 94.23 79.16 94.70 79.16 C 95.23 79.37 96.29 79.81 96.82 80.02 C 99.52 84.39 101.14 89.21 101.59 94.36 C 101.58 98.34 108.11 101.04 110.15 97.16 C 112.28 93.44 116.57 92.51 120.34 91.23 L 121.12 90.99 C 121.04 91.42 120.89 92.27 120.82 92.70 C 119.70 93.91 118.65 95.18 117.53 96.40 C 115.58 96.34 112.48 97.25 113.11 99.78 C 114.34 101.67 116.82 100.76 118.70 100.92 C 118.61 101.24 118.42 101.88 118.32 102.20 C 113.98 102.04 109.65 102.64 105.31 102.66 C 100.50 100.76 97.21 95.62 97.46 90.41 C 97.02 86.27 94.64 82.78 92.83 79.15 Z" />
</g>
<g id="#89a0defc">
<path fill="#89a0de" opacity="1.00" d=" M 24.15 86.18 C 28.43 84.12 32.06 79.63 37.13 80.11 C 33.60 83.64 32.01 89.16 27.04 91.01 C 23.10 93.43 16.23 89.83 14.86 95.66 C 14.09 95.29 13.37 94.85 12.70 94.32 C 14.22 91.77 15.93 88.11 18.80 87.49 C 20.82 88.36 22.69 87.71 24.15 86.18 Z" />
</g>
<g id="#6374bbff">
<path fill="#6374bb" opacity="1.00" d=" M 88.72 82.89 C 89.33 81.85 89.97 80.84 90.68 79.88 C 93.44 84.36 94.47 89.54 95.45 94.63 C 96.65 98.66 100.03 101.41 102.20 104.87 C 101.06 104.80 99.95 104.58 98.87 104.22 C 96.64 100.68 93.53 97.53 92.55 93.36 C 91.51 89.78 90.57 86.15 88.72 82.89 Z" />
</g>
<g id="#849cdcfe">
<path fill="#849cdc" opacity="1.00" d=" M 96.82 80.02 C 102.43 80.19 103.68 86.83 108.33 88.75 C 110.83 88.63 115.83 88.41 118.33 88.30 C 119.79 88.05 120.08 90.20 120.34 91.23 C 116.57 92.51 112.28 93.44 110.15 97.16 C 108.11 101.04 101.58 98.34 101.59 94.36 C 101.14 89.21 99.52 84.39 96.82 80.02 Z" />
</g>
<g id="#6073b8fa">
<path fill="#6073b8" opacity="0.98" d=" M 42.25 83.10 C 43.22 82.99 44.17 83.11 45.09 83.46 C 40.17 90.24 37.29 99.53 28.81 102.78 C 30.43 103.00 33.67 103.46 35.29 103.69 C 29.84 104.78 24.46 105.26 18.94 103.88 L 19.04 103.09 C 21.60 99.14 27.32 100.35 31.04 98.06 C 36.35 94.46 38.51 88.08 42.25 83.10 Z" />
</g>
<g id="#5968aeff">
<path fill="#5968ae" opacity="1.00" d=" M 98.87 104.22 C 89.63 102.63 87.43 90.55 88.72 82.89 C 90.57 86.15 91.51 89.78 92.55 93.36 C 93.53 97.53 96.64 100.68 98.87 104.22 Z" />
</g>
<g id="#5667afff">
<path fill="#5667af" opacity="1.00" d=" M 28.81 102.78 C 37.29 99.53 40.17 90.24 45.09 83.46 C 46.12 83.77 47.12 84.14 48.10 84.58 C 45.99 85.21 45.21 87.42 44.04 89.04 C 41.26 93.91 37.86 98.50 36.05 103.86 L 35.29 103.69 C 33.67 103.46 30.43 103.00 28.81 102.78 Z" />
</g>
<g id="#888183ff">
<path fill="#888183" opacity="1.00" d=" M 78.64 85.75 C 80.27 84.89 81.98 84.19 83.79 83.83 C 85.21 90.72 87.57 97.45 91.85 103.13 C 93.62 106.03 98.31 106.49 99.22 110.01 C 98.27 110.41 97.32 110.81 96.38 111.21 C 90.12 105.23 85.20 97.96 82.24 89.81 C 81.75 87.93 79.98 86.96 78.64 85.75 Z" />
</g>
<g id="#4d5ba0fe">
<path fill="#4d5ba0" opacity="1.00" d=" M 44.04 89.04 C 45.21 87.42 45.99 85.21 48.10 84.58 C 46.91 87.29 45.95 90.14 46.00 93.13 C 44.78 95.35 43.67 97.64 42.92 100.06 C 42.67 100.59 42.17 101.63 41.92 102.16 C 40.54 102.67 39.15 103.15 37.77 103.66 C 37.34 103.71 36.48 103.81 36.05 103.86 C 37.86 98.50 41.26 93.91 44.04 89.04 Z" />
</g>
<g id="#958c8dff">
<path fill="#958c8d" opacity="1.00" d=" M 48.10 84.58 C 49.49 85.20 50.83 85.93 52.18 86.66 C 50.23 88.91 48.20 91.11 46.00 93.13 C 45.95 90.14 46.91 87.29 48.10 84.58 Z" />
</g>
<g id="#968f89ff">
<path fill="#968f89" opacity="1.00" d=" M 73.23 87.04 C 75.06 86.72 76.85 86.23 78.64 85.75 C 79.98 86.96 81.75 87.93 82.24 89.81 C 85.20 97.96 90.12 105.23 96.38 111.21 C 94.65 112.15 92.93 113.11 91.08 113.80 C 89.18 105.86 83.01 99.58 79.92 92.06 C 78.59 87.39 73.31 89.38 69.70 88.75 L 70.25 88.11 C 71.24 87.75 72.24 87.39 73.23 87.04 Z" />
</g>
<g id="#a29a91ff">
<path fill="#a29a91" opacity="1.00" d=" M 46.00 93.13 C 48.20 91.11 50.23 88.91 52.18 86.66 C 55.08 87.09 57.94 87.75 60.85 88.11 C 61.87 89.06 63.75 89.51 63.95 91.07 L 63.01 91.05 C 59.73 90.90 56.48 90.41 53.22 90.19 C 49.44 93.15 47.67 98.35 42.92 100.06 C 43.67 97.64 44.78 95.35 46.00 93.13 Z" />
</g>
<g id="#443f38ff">
<path fill="#443f38" opacity="1.00" d=" M 60.85 88.11 C 63.98 88.08 67.11 88.10 70.25 88.11 L 69.70 88.75 C 68.23 89.55 66.12 89.82 65.66 91.72 C 64.70 93.34 65.11 95.31 65.01 97.09 L 64.03 96.96 C 64.01 95.00 64.07 93.03 63.95 91.07 C 63.75 89.51 61.87 89.06 60.85 88.11 Z" />
</g>
<g id="#a79f91ff">
<path fill="#a79f91" opacity="1.00" d=" M 65.66 91.72 C 66.12 89.82 68.23 89.55 69.70 88.75 C 73.31 89.38 78.59 87.39 79.92 92.06 C 83.01 99.58 89.18 105.86 91.08 113.80 C 89.80 114.27 88.52 114.71 87.23 115.13 C 87.30 114.65 87.45 113.69 87.52 113.21 C 84.38 106.15 80.45 99.42 75.87 93.21 C 73.34 90.54 68.92 92.58 65.66 91.72 Z" />
</g>
<g id="#b4aa99ff">
<path fill="#b4aa99" opacity="1.00" d=" M 53.22 90.19 C 56.48 90.41 59.73 90.90 63.01 91.05 C 63.00 91.78 62.99 93.24 62.99 93.96 C 54.25 90.75 50.68 99.88 43.83 102.53 C 43.35 102.44 42.39 102.25 41.92 102.16 C 42.17 101.63 42.67 100.59 42.92 100.06 C 47.67 98.35 49.44 93.15 53.22 90.19 Z" />
</g>
<g id="#958764ff">
<path fill="#958764" opacity="1.00" d=" M 63.01 91.05 L 63.95 91.07 C 64.07 93.03 64.01 95.00 64.03 96.96 C 63.97 102.04 64.05 107.14 63.81 112.22 C 63.45 109.44 63.09 106.68 62.98 103.89 C 62.98 102.15 62.98 98.66 62.98 96.92 C 62.98 96.18 62.98 94.70 62.99 93.96 C 62.99 93.24 63.00 91.78 63.01 91.05 Z" />
</g>
<g id="#b8ae99ff">
<path fill="#b8ae99" opacity="1.00" d=" M 65.01 97.09 C 65.11 95.31 64.70 93.34 65.66 91.72 C 68.92 92.58 73.34 90.54 75.87 93.21 C 80.45 99.42 84.38 106.15 87.52 113.21 C 87.45 113.69 87.30 114.65 87.23 115.13 C 84.46 116.12 81.64 117.10 78.67 117.15 L 77.69 116.82 C 79.04 116.42 80.42 116.11 81.78 115.76 C 79.54 109.73 76.20 104.21 73.70 98.29 C 72.19 95.58 69.01 95.61 66.24 95.26 C 65.88 96.58 65.58 97.91 65.21 99.23 C 65.16 98.69 65.06 97.63 65.01 97.09 Z" />
</g>
<g id="#babdd0fb">
<path fill="#babdd0" opacity="1.00" d=" M 117.53 96.40 C 118.65 95.18 119.70 93.91 120.82 92.70 C 123.41 94.32 123.82 98.37 125.07 101.06 L 124.03 101.13 C 121.76 101.24 120.56 99.51 119.29 97.96 C 119.14 98.70 118.85 100.18 118.70 100.92 C 116.82 100.76 114.34 101.67 113.11 99.78 C 112.48 97.25 115.58 96.34 117.53 96.40 Z" />
</g>
<g id="#b6b9ccfd">
<path fill="#b6b9cc" opacity="1.00" d=" M 10.19 96.25 C 11.03 95.70 11.55 94.01 12.70 94.32 C 13.37 94.85 14.09 95.29 14.86 95.66 C 16.36 96.15 17.86 96.64 19.34 97.19 C 18.40 99.37 15.86 99.95 13.97 101.05 C 11.42 100.87 6.49 102.26 10.19 96.25 Z" />
</g>
<g id="#c2b8a1ff">
<path fill="#c2b8a1" opacity="1.00" d=" M 43.83 102.53 C 50.68 99.88 54.25 90.75 62.99 93.96 C 62.98 94.70 62.98 96.18 62.98 96.92 C 56.41 96.13 52.26 102.20 46.84 104.87 C 44.02 107.47 40.63 104.63 37.77 103.66 C 39.15 103.15 40.54 102.67 41.92 102.16 C 42.39 102.25 43.35 102.44 43.83 102.53 Z" />
</g>
<g id="#cfc3a3ff">
<path fill="#cfc3a3" opacity="1.00" d=" M 66.24 95.26 C 69.01 95.61 72.19 95.58 73.70 98.29 C 76.20 104.21 79.54 109.73 81.78 115.76 C 80.42 116.11 79.04 116.42 77.69 116.82 C 73.86 117.37 70.01 118.15 66.13 117.98 C 66.00 116.69 65.89 115.39 65.82 114.09 C 67.22 111.07 66.97 108.68 65.07 106.93 C 65.08 104.36 65.12 101.79 65.21 99.23 C 65.58 97.91 65.88 96.58 66.24 95.26 Z" />
</g>
<g id="#d1c6a8fe">
<path fill="#d1c6a8" opacity="1.00" d=" M 46.84 104.87 C 52.26 102.20 56.41 96.13 62.98 96.92 C 62.98 98.66 62.98 102.15 62.98 103.89 C 55.39 99.96 48.30 112.99 40.96 107.10 C 41.18 108.08 41.41 109.07 41.66 110.05 C 41.41 110.35 40.90 110.97 40.64 111.28 L 39.92 111.04 C 38.01 109.54 38.24 106.02 37.77 103.66 C 40.63 104.63 44.02 107.47 46.84 104.87 Z" />
</g>
<g id="#756741ff">
<path fill="#756741" opacity="1.00" d=" M 64.03 96.96 L 65.01 97.09 C 65.06 97.63 65.16 98.69 65.21 99.23 C 65.12 101.79 65.08 104.36 65.07 106.93 C 63.88 109.79 64.13 112.18 65.82 114.09 C 65.89 115.39 66.00 116.69 66.13 117.98 C 70.01 118.15 73.86 117.37 77.69 116.82 L 78.67 117.15 C 79.71 117.54 80.77 117.90 81.84 118.23 L 82.14 118.96 C 76.81 118.82 71.51 119.35 66.24 120.10 C 66.46 122.37 66.75 124.63 67.11 126.89 C 70.54 129.20 74.61 130.17 78.54 131.26 C 80.12 131.77 81.75 132.11 83.38 132.47 L 82.86 132.97 C 82.63 133.19 82.16 133.62 81.93 133.84 C 81.51 133.79 80.67 133.70 80.25 133.65 C 78.99 133.34 77.72 133.09 76.44 132.87 C 73.32 131.61 70.31 130.01 67.02 129.24 C 62.59 130.91 58.06 132.29 53.60 133.89 C 52.80 133.53 51.99 133.18 51.19 132.84 C 51.11 132.44 50.95 131.62 50.87 131.22 C 55.99 132.71 61.20 129.64 65.85 127.72 C 65.30 125.51 66.84 120.69 64.16 120.10 C 59.06 118.92 53.79 118.48 48.83 116.76 C 49.42 116.50 50.59 116.00 51.17 115.75 C 55.40 116.62 59.66 117.29 63.91 118.02 C 63.89 116.57 63.83 113.67 63.81 112.22 C 64.05 107.14 63.97 102.04 64.03 96.96 Z" />
</g>
<g id="#5b6699e2">
<path fill="#5b6699" opacity="0.89" d=" M 119.29 97.96 C 120.56 99.51 121.76 101.24 124.03 101.13 C 122.63 102.70 119.76 102.71 117.84 103.84 C 117.96 103.43 118.20 102.61 118.32 102.20 C 118.42 101.88 118.61 101.24 118.70 100.92 C 118.85 100.18 119.14 98.70 119.29 97.96 Z" />
</g>
<g id="#ded1abff">
<path fill="#ded1ab" opacity="1.00" d=" M 40.96 107.10 C 48.30 112.99 55.39 99.96 62.98 103.89 C 63.09 106.68 63.45 109.44 63.81 112.22 C 63.83 113.67 63.89 116.57 63.91 118.02 C 59.66 117.29 55.40 116.62 51.17 115.75 C 47.81 114.21 44.02 113.07 41.66 110.05 C 41.41 109.07 41.18 108.08 40.96 107.10 Z" />
</g>
<g id="#69676eff">
<path fill="#69676e" opacity="1.00" d=" M 103.83 105.13 C 105.26 105.35 106.67 105.68 108.09 105.96 C 107.95 107.63 107.79 109.31 107.56 110.97 C 106.39 113.40 106.32 115.74 107.33 118.00 L 107.04 118.68 L 106.21 119.15 C 105.15 115.24 107.56 110.17 105.10 106.69 C 104.89 106.42 104.46 105.90 104.24 105.64 L 103.83 105.13 Z" />
</g>
<g id="#889fcafe">
<path fill="#889fca" opacity="1.00" d=" M 109.98 105.52 C 110.97 105.28 111.97 105.12 112.99 105.03 C 112.93 105.71 112.80 107.07 112.74 107.75 C 112.24 111.20 112.00 114.70 111.78 118.18 L 111.64 119.31 C 111.20 117.60 111.04 115.84 110.93 114.09 C 110.75 111.21 111.83 107.97 109.98 105.52 Z" />
</g>
<g id="#453c2cff">
<path fill="#453c2c" opacity="1.00" d=" M 99.22 110.01 C 100.89 108.55 102.52 107.04 104.24 105.64 C 104.46 105.90 104.89 106.42 105.10 106.69 C 103.33 108.20 101.64 109.81 99.88 111.34 C 99.72 111.01 99.39 110.34 99.22 110.01 Z" />
</g>
<g id="#848ab5ff">
<path fill="#848ab5" opacity="1.00" d=" M 108.09 105.96 C 108.57 105.85 109.51 105.63 109.98 105.52 C 111.83 107.97 110.75 111.21 110.93 114.09 C 110.07 113.60 109.21 113.11 108.34 112.64 C 108.15 112.22 107.76 111.39 107.56 110.97 C 107.79 109.31 107.95 107.63 108.09 105.96 Z" />
</g>
<g id="#b6a67fff">
<path fill="#b6a67f" opacity="1.00" d=" M 65.07 106.93 C 66.97 108.68 67.22 111.07 65.82 114.09 C 64.13 112.18 63.88 109.79 65.07 106.93 Z" />
</g>
<g id="#807d82ff">
<path fill="#807d82" opacity="1.00" d=" M 99.88 111.34 C 101.64 109.81 103.33 108.20 105.10 106.69 C 107.56 110.17 105.15 115.24 106.21 119.15 C 105.89 119.58 105.24 120.43 104.92 120.86 C 101.18 122.96 97.68 125.52 95.26 129.10 C 93.06 129.79 91.21 131.11 89.74 132.87 C 89.24 132.86 88.22 132.86 87.71 132.86 C 91.49 127.38 96.76 122.97 100.39 117.36 C 101.58 115.73 100.28 113.80 100.04 112.08 L 99.88 111.34 Z" />
</g>
<g id="#2a2d3885">
<path fill="#2a2d38" opacity="0.52" d=" M 111.78 118.18 C 112.00 114.70 112.24 111.20 112.74 107.75 C 111.74 110.44 114.81 116.79 111.78 118.18 Z" />
</g>
<g id="#938355ff">
<path fill="#938355" opacity="1.00" d=" M 40.64 111.28 C 40.90 110.97 41.41 110.35 41.66 110.05 C 44.02 113.07 47.81 114.21 51.17 115.75 C 50.59 116.00 49.42 116.50 48.83 116.76 C 45.74 115.58 43.32 113.12 40.64 111.28 Z" />
</g>
<g id="#63583fff">
<path fill="#63583f" opacity="1.00" d=" M 96.38 111.21 C 97.32 110.81 98.27 110.41 99.22 110.01 C 99.39 110.34 99.72 111.01 99.88 111.34 L 100.04 112.08 C 97.38 113.30 94.63 114.30 91.96 115.49 C 88.65 116.63 85.36 117.97 81.84 118.23 C 80.77 117.90 79.71 117.54 78.67 117.15 C 81.64 117.10 84.46 116.12 87.23 115.13 C 88.52 114.71 89.80 114.27 91.08 113.80 C 92.93 113.11 94.65 112.15 96.38 111.21 Z" />
</g>
<g id="#e1d6acff">
<path fill="#e1d6ac" opacity="1.00" d=" M 39.92 111.04 L 40.64 111.28 C 43.32 113.12 45.74 115.58 48.83 116.76 C 53.79 118.48 59.06 118.92 64.16 120.10 C 63.42 122.74 61.94 125.13 59.70 126.75 C 55.78 127.53 51.79 127.87 47.82 128.24 C 44.83 124.55 42.23 120.45 41.31 115.74 C 40.87 114.16 40.32 112.62 39.92 111.04 Z" />
</g>
<g id="#505161ff">
<path fill="#505161" opacity="1.00" d=" M 107.33 118.00 C 106.32 115.74 106.39 113.40 107.56 110.97 C 107.76 111.39 108.15 112.22 108.34 112.64 C 108.41 114.46 108.42 116.43 107.33 118.00 Z" />
</g>
<g id="#948e8aff">
<path fill="#948e8a" opacity="1.00" d=" M 91.96 115.49 C 94.63 114.30 97.38 113.30 100.04 112.08 C 100.28 113.80 101.58 115.73 100.39 117.36 C 96.76 122.97 91.49 127.38 87.71 132.86 C 86.10 132.92 84.48 132.94 82.86 132.97 L 83.38 132.47 C 87.20 130.24 88.44 125.58 91.72 122.74 C 93.86 121.05 93.61 117.48 91.96 115.49 Z" />
</g>
<g id="#6b73a2f7">
<path fill="#6b73a2" opacity="0.97" d=" M 108.34 112.64 C 109.21 113.11 110.07 113.60 110.93 114.09 C 111.04 115.84 111.20 117.60 111.64 119.31 C 111.76 119.98 112.00 121.31 112.12 121.98 L 111.40 121.66 C 111.10 121.22 110.51 120.34 110.21 119.90 C 109.39 119.12 108.33 118.71 107.04 118.68 L 107.33 118.00 C 108.42 116.43 108.41 114.46 108.34 112.64 Z" />
</g>
<g id="#7185c5fb">
<path fill="#7185c5" opacity="1.00" d=" M 41.31 115.74 C 42.23 120.45 44.83 124.55 47.82 128.24 C 48.13 128.61 48.74 129.36 49.05 129.73 C 45.28 129.35 49.41 134.82 47.85 136.01 C 47.32 140.34 42.73 145.41 46.57 149.49 C 48.44 150.94 46.23 154.05 49.05 154.73 C 46.40 155.82 40.03 159.17 39.02 156.08 C 41.54 156.07 44.39 156.26 45.83 153.75 C 47.17 149.89 41.09 150.67 40.59 147.36 C 37.82 140.85 46.85 136.91 44.55 130.38 C 43.69 126.71 42.07 123.29 40.67 119.80 L 40.80 118.93 C 40.93 118.13 41.18 116.53 41.31 115.74 Z" />
</g>
<g id="#aaa294ff">
<path fill="#aaa294" opacity="1.00" d=" M 81.84 118.23 C 85.36 117.97 88.65 116.63 91.96 115.49 C 93.61 117.48 93.86 121.05 91.72 122.74 C 88.44 125.58 87.20 130.24 83.38 132.47 C 81.75 132.11 80.12 131.77 78.54 131.26 C 79.28 126.23 86.42 124.87 84.99 119.14 C 84.28 119.09 82.86 119.00 82.14 118.96 L 81.84 118.23 Z" />
</g>
<g id="#a6c3f8ff">
<path fill="#a6c3f8" opacity="1.00" d=" M 34.03 123.95 C 35.15 121.89 37.07 120.19 39.07 118.99 C 35.01 131.08 27.93 142.74 28.96 155.97 C 26.32 155.56 23.65 155.25 21.01 154.88 C 20.26 151.97 23.03 150.45 25.00 149.00 C 26.88 148.27 27.22 146.39 27.45 144.61 C 27.53 137.15 31.82 130.83 34.03 123.95 Z" />
</g>
<g id="#92aceaff">
<path fill="#92acea" opacity="1.00" d=" M 39.07 118.99 C 39.51 118.97 40.37 118.95 40.80 118.93 L 40.67 119.80 C 37.31 124.32 41.84 130.39 38.98 135.01 C 37.12 138.94 32.74 141.99 34.00 147.00 C 34.91 150.54 32.89 153.41 30.93 155.96 C 30.44 155.96 29.45 155.97 28.96 155.97 C 27.93 142.74 35.01 131.08 39.07 118.99 Z" />
</g>
<g id="#c2b89eff">
<path fill="#c2b89e" opacity="1.00" d=" M 66.24 120.10 C 71.51 119.35 76.81 118.82 82.14 118.96 C 82.86 119.00 84.28 119.09 84.99 119.14 C 86.42 124.87 79.28 126.23 78.54 131.26 C 74.61 130.17 70.54 129.20 67.11 126.89 C 66.75 124.63 66.46 122.37 66.24 120.10 Z" />
</g>
<g id="#687bc2ff">
<path fill="#687bc2" opacity="1.00" d=" M 106.21 119.15 L 107.04 118.68 C 107.70 123.46 102.88 126.06 100.64 129.68 C 97.67 132.59 95.85 138.13 91.07 138.14 C 91.09 137.69 91.13 136.78 91.15 136.32 C 97.05 132.64 101.09 126.54 104.92 120.86 C 105.24 120.43 105.89 119.58 106.21 119.15 Z" />
</g>
<g id="#7388cbff">
<path fill="#7388cb" opacity="1.00" d=" M 107.04 118.68 C 108.33 118.71 109.39 119.12 110.21 119.90 C 108.83 122.81 107.17 125.58 104.79 127.79 C 100.56 132.22 97.69 138.32 91.89 140.98 C 91.44 141.26 90.56 141.83 90.12 142.12 C 90.40 140.78 90.74 139.46 91.07 138.14 C 95.85 138.13 97.67 132.59 100.64 129.68 C 102.88 126.06 107.70 123.46 107.04 118.68 Z" />
</g>
<g id="#839adbff">
<path fill="#839adb" opacity="1.00" d=" M 38.98 135.01 C 41.84 130.39 37.31 124.32 40.67 119.80 C 42.07 123.29 43.69 126.71 44.55 130.38 C 46.85 136.91 37.82 140.85 40.59 147.36 C 41.09 150.67 47.17 149.89 45.83 153.75 C 44.39 156.26 41.54 156.07 39.02 156.08 C 36.32 156.10 33.62 156.06 30.93 155.96 C 32.89 153.41 34.91 150.54 34.00 147.00 C 32.74 141.99 37.12 138.94 38.98 135.01 Z" />
</g>
<g id="#cfc3a2ff">
<path fill="#cfc3a2" opacity="1.00" d=" M 64.16 120.10 C 66.84 120.69 65.30 125.51 65.85 127.72 C 61.20 129.64 55.99 132.71 50.87 131.22 C 50.42 130.85 49.51 130.10 49.05 129.73 C 48.74 129.36 48.13 128.61 47.82 128.24 C 51.79 127.87 55.78 127.53 59.70 126.75 C 61.94 125.13 63.42 122.74 64.16 120.10 Z" />
</g>
<g id="#7d94d5ff">
<path fill="#7d94d5" opacity="1.00" d=" M 110.21 119.90 C 110.51 120.34 111.10 121.22 111.40 121.66 C 111.54 123.20 111.80 126.30 111.94 127.84 C 108.75 129.61 104.55 130.08 103.00 134.00 C 100.38 137.37 98.24 141.73 93.72 142.87 C 93.29 142.90 92.42 142.94 91.99 142.97 C 91.96 142.47 91.91 141.48 91.89 140.98 C 97.69 138.32 100.56 132.22 104.79 127.79 C 107.17 125.58 108.83 122.81 110.21 119.90 Z" />
</g>
<g id="#5f6eb6ff">
<path fill="#5f6eb6" opacity="1.00" d=" M 95.26 129.10 C 97.68 125.52 101.18 122.96 104.92 120.86 C 101.09 126.54 97.05 132.64 91.15 136.32 L 91.15 135.32 C 91.85 134.63 92.54 133.93 93.22 133.22 C 94.55 132.22 95.00 130.67 95.26 129.10 Z" />
</g>
<g id="#869fdefc">
<path fill="#869fde" opacity="1.00" d=" M 111.40 121.66 L 112.12 121.98 C 118.46 128.46 120.90 138.43 122.80 147.09 C 123.18 150.42 125.43 153.39 124.95 156.83 C 115.85 158.68 106.38 157.87 97.21 156.78 C 94.49 155.27 98.30 151.27 96.65 149.32 C 95.70 147.16 94.32 145.18 93.72 142.87 C 98.24 141.73 100.38 137.37 103.00 134.00 C 104.55 130.08 108.75 129.61 111.94 127.84 C 111.80 126.30 111.54 123.20 111.40 121.66 M 115.24 136.04 C 114.80 137.94 114.31 139.84 113.61 141.67 C 112.14 144.26 109.07 146.48 110.09 149.84 C 111.91 151.09 113.90 152.14 115.98 152.88 C 117.98 152.28 119.95 151.57 121.88 150.79 C 120.24 145.93 121.72 137.31 115.24 136.04 Z" />
</g>
<g id="#c9dde1ee">
<path fill="#c9dde1" opacity="0.93" d=" M 32.23 125.24 C 32.68 124.92 33.58 124.27 34.03 123.95 C 31.82 130.83 27.53 137.15 27.45 144.61 C 27.22 146.39 26.88 148.27 25.00 149.00 C 26.11 140.75 28.38 132.65 32.23 125.24 Z" />
</g>
<g id="#b7b09afd">
<path fill="#b7b09a" opacity="1.00" d=" M 53.60 133.89 C 58.06 132.29 62.59 130.91 67.02 129.24 C 70.31 130.01 73.32 131.61 76.44 132.87 C 74.37 135.21 69.20 135.83 69.99 139.76 C 72.95 139.43 75.77 140.24 78.23 141.73 C 77.68 141.78 76.59 141.89 76.04 141.95 C 69.90 141.75 63.78 139.90 58.05 137.70 C 56.37 136.68 54.90 135.36 53.60 133.89 Z" />
</g>
<g id="#6e6c7aff">
<path fill="#6e6c7a" opacity="1.00" d=" M 89.74 132.87 C 91.21 131.11 93.06 129.79 95.26 129.10 C 95.00 130.67 94.55 132.22 93.22 133.22 C 92.35 133.13 90.61 132.95 89.74 132.87 Z" />
</g>
<g id="#6176b9fd">
<path fill="#6176b9" opacity="1.00" d=" M 47.85 136.01 C 49.41 134.82 45.28 129.35 49.05 129.73 C 49.51 130.10 50.42 130.85 50.87 131.22 C 50.95 131.62 51.11 132.44 51.19 132.84 C 52.06 137.28 49.48 141.78 50.80 146.11 C 50.85 148.20 52.49 154.61 49.05 154.73 C 46.23 154.05 48.44 150.94 46.57 149.49 C 42.73 145.41 47.32 140.34 47.85 136.01 Z" />
</g>
<g id="#5161a4f8">
<path fill="#5161a4" opacity="0.97" d=" M 51.19 132.84 C 51.99 133.18 52.80 133.53 53.60 133.89 C 54.90 135.36 56.37 136.68 58.05 137.70 C 55.71 140.21 51.90 142.06 51.69 145.88 L 50.80 146.11 C 49.48 141.78 52.06 137.28 51.19 132.84 Z" />
</g>
<g id="#a5a497ff">
<path fill="#a5a497" opacity="1.00" d=" M 76.44 132.87 C 77.72 133.09 78.99 133.34 80.25 133.65 C 79.40 135.28 78.33 136.87 78.01 138.72 C 80.38 139.39 82.77 139.99 85.14 140.67 C 83.99 141.00 82.85 141.36 81.72 141.75 C 81.24 141.85 80.30 142.05 79.83 142.16 C 79.43 142.05 78.63 141.83 78.23 141.73 C 75.77 140.24 72.95 139.43 69.99 139.76 C 69.20 135.83 74.37 135.21 76.44 132.87 Z" />
</g>
<g id="#4f483cff">
<path fill="#4f483c" opacity="1.00" d=" M 81.93 133.84 C 82.16 133.62 82.63 133.19 82.86 132.97 C 84.48 132.94 86.10 132.92 87.71 132.86 C 88.22 132.86 89.24 132.86 89.74 132.87 C 90.61 132.95 92.35 133.13 93.22 133.22 C 92.54 133.93 91.85 134.63 91.15 135.32 C 88.42 134.89 85.70 134.47 82.99 134.02 L 81.93 133.84 Z" />
</g>
<g id="#93938fff">
<path fill="#93938f" opacity="1.00" d=" M 80.25 133.65 C 80.67 133.70 81.51 133.79 81.93 133.84 L 82.99 134.02 C 83.23 135.22 83.29 136.44 83.43 137.66 C 85.32 138.20 87.23 138.67 89.12 139.18 C 87.87 139.85 86.50 140.27 85.14 140.67 C 82.77 139.99 80.38 139.39 78.01 138.72 C 78.33 136.87 79.40 135.28 80.25 133.65 Z" />
</g>
<g id="#818284ff">
<path fill="#818284" opacity="1.00" d=" M 82.99 134.02 C 85.70 134.47 88.42 134.89 91.15 135.32 L 91.15 136.32 C 91.13 136.78 91.09 137.69 91.07 138.14 C 90.58 138.40 89.61 138.92 89.12 139.18 C 87.23 138.67 85.32 138.20 83.43 137.66 C 83.29 136.44 83.23 135.22 82.99 134.02 Z" />
</g>
<g id="#7991d4ff">
<path fill="#7991d4" opacity="1.00" d=" M 115.24 136.04 C 121.72 137.31 120.24 145.93 121.88 150.79 C 119.95 151.57 117.98 152.28 115.98 152.88 C 113.90 152.14 111.91 151.09 110.09 149.84 C 109.07 146.48 112.14 144.26 113.61 141.67 C 114.31 139.84 114.80 137.94 115.24 136.04 Z" />
</g>
<g id="#6e82aeff">
<path fill="#6e82ae" opacity="1.00" d=" M 89.12 139.18 C 89.61 138.92 90.58 138.40 91.07 138.14 C 90.74 139.46 90.40 140.78 90.12 142.12 C 88.86 143.79 89.10 140.23 87.77 141.86 C 85.98 143.65 83.72 142.34 81.72 141.75 C 82.85 141.36 83.99 141.00 85.14 140.67 C 86.50 140.27 87.87 139.85 89.12 139.18 Z" />
</g>
<g id="#4e6593ff">
<path fill="#4e6593" opacity="1.00" d=" M 87.77 141.86 C 89.10 140.23 88.86 143.79 90.12 142.12 C 90.56 141.83 91.44 141.26 91.89 140.98 C 91.91 141.48 91.96 142.47 91.99 142.97 C 91.76 143.23 91.32 143.77 91.10 144.04 C 90.64 144.07 89.73 144.15 89.27 144.19 C 86.81 144.26 84.35 144.37 81.90 144.50 C 80.87 144.13 80.54 142.90 79.83 142.16 C 80.30 142.05 81.24 141.85 81.72 141.75 C 83.72 142.34 85.98 143.65 87.77 141.86 Z" />
</g>
<g id="#5f74a3f4">
<path fill="#5f74a3" opacity="0.96" d=" M 76.04 141.95 C 76.59 141.89 77.68 141.78 78.23 141.73 C 78.63 141.83 79.43 142.05 79.83 142.16 C 80.54 142.90 80.87 144.13 81.90 144.50 C 83.11 145.01 84.30 145.55 85.48 146.13 C 84.29 147.09 83.07 148.02 81.86 148.95 C 79.45 147.07 75.03 145.79 76.04 141.95 Z" />
</g>
<g id="#334b6bfe">
<path fill="#334b6b" opacity="1.00" d=" M 81.90 144.50 C 84.35 144.37 86.81 144.26 89.27 144.19 C 88.23 145.24 86.95 145.91 85.48 146.13 C 84.30 145.55 83.11 145.01 81.90 144.50 Z" />
</g>
<g id="#6d95c2f3">
<path fill="#6d95c2" opacity="0.95" d=" M 89.27 144.19 C 89.73 144.15 90.64 144.07 91.10 144.04 C 89.32 147.14 85.33 148.91 81.86 148.95 C 83.07 148.02 84.29 147.09 85.48 146.13 C 86.95 145.91 88.23 145.24 89.27 144.19 Z" />
</g>
</svg>
