<?xml version="1.0" encoding="UTF-8" ?>
<!DOCTYPE svg PUBLIC "-//W3C//DTD SVG 1.1//EN" "http://www.w3.org/Graphics/SVG/1.1/DTD/svg11.dtd">
<svg width="203pt" height="195pt" viewBox="0 0 203 195" version="1.1" xmlns="http://www.w3.org/2000/svg">
<g id="#a4caebff">
<path fill="#a4caeb" opacity="1.00" d=" M 71.00 16.81 C 72.01 16.75 73.02 16.69 74.02 16.62 C 72.24 16.25 71.50 19.28 73.73 18.27 C 73.97 17.94 74.43 17.29 74.67 16.96 C 75.82 17.24 76.97 17.56 78.11 17.91 C 77.84 18.01 77.31 18.22 77.04 18.33 C 75.58 19.73 74.21 21.21 72.81 22.66 C 72.16 20.73 71.60 18.77 71.00 16.81 Z" />
<path fill="#a4caeb" opacity="1.00" d=" M 29.51 76.84 C 33.93 76.35 38.52 75.78 42.79 77.42 C 41.13 81.08 39.46 84.74 37.34 88.16 C 37.11 88.21 36.64 88.32 36.40 88.38 C 35.73 87.93 34.40 87.02 33.73 86.57 C 33.30 87.86 32.86 89.14 32.43 90.42 C 31.11 90.43 29.80 90.45 28.49 90.46 C 28.01 91.39 27.54 92.32 27.06 93.26 C 26.51 90.88 25.39 88.48 25.98 86.00 C 26.60 82.76 26.54 78.97 29.51 76.84 Z" />
</g>
<g id="#cefafeff">
<path fill="#cefafe" opacity="1.00" d=" M 73.73 18.27 C 71.50 19.28 72.24 16.25 74.02 16.62 L 74.67 16.96 C 74.43 17.29 73.97 17.94 73.73 18.27 Z" />
</g>
<g id="#cafaffff">
<path fill="#cafaff" opacity="1.00" d=" M 77.04 18.33 C 77.31 18.22 77.84 18.01 78.11 17.91 C 83.76 17.45 89.64 17.79 95.05 19.52 C 95.65 19.78 96.24 20.04 96.83 20.31 C 91.62 21.73 86.38 23.04 81.06 23.99 C 78.56 24.37 76.44 25.82 74.46 27.31 C 73.17 28.82 72.73 30.79 72.91 32.73 C 73.68 33.35 74.48 33.93 75.30 34.47 C 72.02 36.94 69.28 40.01 66.71 43.20 L 67.21 41.32 C 67.69 40.12 68.16 38.92 68.66 37.72 C 69.68 35.41 70.79 33.13 71.82 30.82 C 72.99 28.27 72.99 25.40 72.81 22.66 C 74.21 21.21 75.58 19.73 77.04 18.33 Z" />
</g>
<g id="#afd7ffff">
<path fill="#afd7ff" opacity="1.00" d=" M 95.05 19.52 C 99.02 19.03 102.93 17.96 106.96 18.01 C 109.70 17.59 112.05 19.46 114.75 19.52 C 110.33 20.85 105.66 19.74 101.18 20.60 C 96.86 22.23 93.42 25.70 88.86 26.81 C 84.66 27.95 79.88 25.70 76.12 28.50 C 75.91 28.43 75.47 28.29 75.26 28.22 L 74.46 27.31 C 76.44 25.82 78.56 24.37 81.06 23.99 C 86.38 23.04 91.62 21.73 96.83 20.31 C 96.24 20.04 95.65 19.78 95.05 19.52 Z" />
</g>
<g id="#9fc3eaff">
<path fill="#9fc3ea" opacity="1.00" d=" M 114.75 19.52 C 118.30 18.44 121.99 17.46 125.73 17.64 L 126.37 18.83 C 124.55 19.22 122.70 19.53 120.98 20.25 C 118.87 21.38 117.12 23.06 115.38 24.68 C 114.46 24.28 113.54 23.89 112.63 23.49 C 111.48 24.57 110.34 25.66 109.20 26.74 C 108.13 26.06 107.06 25.38 106.00 24.70 C 105.51 24.99 104.52 25.57 104.03 25.86 C 99.98 28.11 96.05 30.64 92.77 33.95 C 92.64 33.02 92.39 31.15 92.27 30.22 C 91.97 30.23 91.38 30.26 91.09 30.27 C 86.01 31.08 80.89 30.38 76.12 28.50 C 79.88 25.70 84.66 27.95 88.86 26.81 C 93.42 25.70 96.86 22.23 101.18 20.60 C 105.66 19.74 110.33 20.85 114.75 19.52 Z" />
</g>
<g id="#557292fa">
<path fill="#557292" opacity="0.98" d=" M 120.98 20.25 C 122.70 19.53 124.55 19.22 126.37 18.83 C 125.91 22.44 125.37 26.03 124.55 29.58 C 124.32 30.64 124.09 31.71 123.86 32.78 C 122.98 31.97 122.10 31.16 121.19 30.38 C 122.73 27.09 123.50 23.51 123.81 19.90 C 123.10 19.99 121.69 20.16 120.98 20.25 Z" />
</g>
<g id="#2c2c2fff">
<path fill="#2c2c2f" opacity="1.00" d=" M 120.98 20.25 C 121.69 20.16 123.10 19.99 123.81 19.90 C 123.50 23.51 122.73 27.09 121.19 30.38 C 120.06 29.48 118.90 28.63 117.71 27.82 C 116.61 27.08 115.49 26.36 114.39 25.63 C 114.64 25.40 115.13 24.92 115.38 24.68 C 117.12 23.06 118.87 21.38 120.98 20.25 Z" />
</g>
<g id="#83a1c7ff">
<path fill="#83a1c7" opacity="1.00" d=" M 112.63 23.49 C 113.54 23.89 114.46 24.28 115.38 24.68 C 115.13 24.92 114.64 25.40 114.39 25.63 C 115.49 26.36 116.61 27.08 117.71 27.82 C 117.76 30.22 119.46 33.47 117.24 35.25 C 113.91 36.99 109.95 36.43 106.44 37.58 C 103.69 39.77 101.89 42.99 98.81 44.81 C 94.98 47.13 90.89 48.99 86.77 50.72 C 85.08 50.88 83.37 50.88 81.68 50.91 C 86.41 48.77 91.47 46.93 95.43 43.47 C 97.50 41.86 97.62 39.15 97.95 36.78 C 95.71 36.19 93.47 35.60 91.30 34.78 C 97.17 34.60 103.08 34.80 108.91 33.93 C 108.11 31.27 107.31 28.61 106.53 25.94 C 105.90 25.92 104.65 25.88 104.03 25.86 C 104.52 25.57 105.51 24.99 106.00 24.70 C 107.06 25.38 108.13 26.06 109.20 26.74 C 110.34 25.66 111.48 24.57 112.63 23.49 Z" />
</g>
<g id="#a29476ff">
<path fill="#a29476" opacity="1.00" d=" M 92.77 33.95 C 96.05 30.64 99.98 28.11 104.03 25.86 C 104.65 25.88 105.90 25.92 106.53 25.94 C 107.31 28.61 108.11 31.27 108.91 33.93 C 103.08 34.80 97.17 34.60 91.30 34.78 L 90.91 34.53 C 90.94 33.11 91.02 31.69 91.09 30.27 C 91.38 30.26 91.97 30.23 92.27 30.22 C 92.39 31.15 92.64 33.02 92.77 33.95 M 101.44 29.39 C 100.10 30.01 98.82 30.74 99.11 32.48 C 99.84 31.75 100.57 31.04 101.31 30.32 C 101.27 31.10 101.20 32.65 101.16 33.43 C 103.21 33.22 105.26 33.03 107.31 32.84 C 106.88 30.77 106.19 28.77 105.30 26.86 C 104.00 27.69 102.72 28.55 101.44 29.39 Z" />
</g>
<g id="#a68860ff">
<path fill="#a68860" opacity="1.00" d=" M 53.12 34.75 C 55.19 31.88 57.58 29.27 59.88 26.60 C 61.17 26.91 62.44 27.31 63.73 27.63 C 65.26 31.05 66.49 34.64 68.66 37.72 C 68.16 38.92 67.69 40.12 67.21 41.32 L 66.40 42.08 C 64.23 39.29 62.01 36.52 59.70 33.84 C 59.47 32.87 59.24 31.90 59.02 30.93 C 57.23 32.44 55.59 34.42 53.12 34.75 Z" />
</g>
<g id="#a58769ff">
<path fill="#a58769" opacity="1.00" d=" M 68.66 37.72 C 66.49 34.64 65.26 31.05 63.73 27.63 C 66.42 28.72 69.10 29.80 71.82 30.82 C 70.79 33.13 69.68 35.41 68.66 37.72 Z" />
</g>
<g id="#f3f3f3ff">
<path fill="#f3f3f3" opacity="1.00" d=" M 72.91 32.73 C 72.73 30.79 73.17 28.82 74.46 27.31 L 75.26 28.22 C 75.36 28.68 75.56 29.59 75.66 30.05 C 75.60 31.07 75.50 33.11 75.44 34.14 C 74.81 33.79 73.54 33.08 72.91 32.73 Z" />
</g>
<g id="#ffffffff">
<path fill="#ffffff" opacity="1.00" d=" M 101.44 29.39 C 102.72 28.55 104.00 27.69 105.30 26.86 C 106.19 28.77 106.88 30.77 107.31 32.84 C 105.26 33.03 103.21 33.22 101.16 33.43 C 101.20 32.65 101.27 31.10 101.31 30.32 C 100.57 31.04 99.84 31.75 99.11 32.48 C 98.82 30.74 100.10 30.01 101.44 29.39 Z" />
</g>
<g id="#7490b6ff">
<path fill="#7490b6" opacity="1.00" d=" M 117.71 27.82 C 118.90 28.63 120.06 29.48 121.19 30.38 C 122.10 31.16 122.98 31.97 123.86 32.78 C 124.09 31.71 124.32 30.64 124.55 29.58 C 124.57 30.20 124.62 31.43 124.64 32.05 C 124.71 32.68 124.84 33.95 124.90 34.59 L 125.08 35.84 C 123.31 37.84 121.88 40.69 119.02 41.22 C 116.63 41.39 114.34 40.50 112.05 39.96 C 112.22 41.05 112.38 42.14 112.55 43.24 C 109.92 44.76 107.05 45.81 104.05 46.34 C 98.19 47.41 92.79 50.42 86.77 50.72 C 90.89 48.99 94.98 47.13 98.81 44.81 C 101.89 42.99 103.69 39.77 106.44 37.58 C 109.95 36.43 113.91 36.99 117.24 35.25 C 119.46 33.47 117.76 30.22 117.71 27.82 Z" />
</g>
<g id="#95b7d8ff">
<path fill="#95b7d8" opacity="1.00" d=" M 75.26 28.22 C 75.47 28.29 75.91 28.43 76.12 28.50 C 80.89 30.38 86.01 31.08 91.09 30.27 C 91.02 31.69 90.94 33.11 90.91 34.53 L 91.30 34.78 C 93.47 35.60 95.71 36.19 97.95 36.78 C 97.62 39.15 97.50 41.86 95.43 43.47 C 91.47 46.93 86.41 48.77 81.68 50.91 C 77.78 51.09 73.89 50.68 70.09 49.87 C 69.07 50.97 68.07 52.08 67.09 53.21 L 66.43 51.35 C 67.13 49.54 67.93 47.76 68.74 45.99 C 76.50 51.40 87.54 48.11 92.56 40.58 C 93.34 38.94 92.29 36.95 90.64 36.37 C 86.82 34.84 82.59 35.12 78.57 34.75 C 78.57 33.01 78.65 31.28 78.71 29.55 C 78.19 30.71 78.88 32.98 77.07 33.01 C 76.46 32.10 75.99 31.11 75.66 30.05 C 75.56 29.59 75.36 28.68 75.26 28.22 Z" />
</g>
<g id="#26241fff">
<path fill="#26241f" opacity="1.00" d=" M 77.07 33.01 C 78.88 32.98 78.19 30.71 78.71 29.55 C 78.65 31.28 78.57 33.01 78.57 34.75 C 77.47 34.71 76.38 34.62 75.30 34.47 C 74.48 33.93 73.68 33.35 72.91 32.73 C 73.54 33.08 74.81 33.79 75.44 34.14 C 75.50 33.11 75.60 31.07 75.66 30.05 C 75.99 31.11 76.46 32.10 77.07 33.01 Z" />
<path fill="#26241f" opacity="1.00" d=" M 170.63 43.67 C 172.85 40.79 176.61 41.77 179.58 42.60 C 179.54 43.07 179.46 44.02 179.42 44.49 C 179.94 44.47 181.00 44.43 181.52 44.41 C 181.46 46.85 181.37 49.28 181.28 51.72 C 179.78 52.68 178.25 53.64 176.56 54.24 C 171.42 54.20 167.43 48.06 170.63 43.67 Z" />
</g>
<g id="#c9cac9ff">
<path fill="#c9cac9" opacity="1.00" d=" M 124.55 29.58 C 128.17 31.77 131.39 34.53 134.75 37.10 C 137.82 39.31 141.02 41.54 142.88 44.95 C 143.74 46.20 144.64 47.42 145.58 48.62 C 150.54 54.87 154.66 61.78 158.26 68.90 L 157.88 70.26 C 155.00 67.00 152.60 63.37 149.93 59.95 C 147.48 56.79 143.97 54.70 141.35 51.70 C 135.92 45.07 132.08 36.77 124.64 32.05 C 124.62 31.43 124.57 30.20 124.55 29.58 Z" />
</g>
<g id="#8f7556fe">
<path fill="#8f7556" opacity="1.00" d=" M 53.12 34.75 C 55.59 34.42 57.23 32.44 59.02 30.93 C 59.24 31.90 59.47 32.87 59.70 33.84 C 57.29 36.40 55.12 39.18 53.30 42.19 C 52.64 42.50 51.97 42.80 51.31 43.11 C 51.17 42.84 50.88 42.30 50.73 42.04 C 50.85 40.54 51.04 39.04 51.35 37.57 C 51.82 36.57 52.46 35.63 53.12 34.75 Z" />
</g>
<g id="#52412aff">
<path fill="#52412a" opacity="1.00" d=" M 143.44 42.96 C 150.26 39.54 156.33 34.63 163.07 30.99 C 163.82 30.93 165.33 30.81 166.08 30.75 C 168.61 33.61 171.38 36.25 173.98 39.05 C 169.59 38.77 168.11 33.51 164.00 32.64 C 162.19 33.02 160.64 34.09 159.08 35.03 C 153.75 38.45 148.27 41.64 142.88 44.95 C 141.02 41.54 137.82 39.31 134.75 37.10 C 138.02 38.46 140.54 41.01 143.44 42.96 Z" />
<path fill="#52412a" opacity="1.00" d=" M 184.22 44.92 C 185.14 47.45 184.26 50.06 183.60 52.54 C 187.61 58.22 190.01 64.74 192.70 71.09 C 192.09 72.61 192.12 74.62 190.58 75.57 C 184.72 79.76 178.58 83.56 172.74 87.79 C 173.06 88.94 173.37 90.08 173.68 91.23 C 173.24 90.08 172.79 88.93 172.32 87.79 C 170.89 88.97 169.46 90.16 168.04 91.35 C 169.59 96.89 171.22 102.40 172.95 107.89 C 174.13 111.74 176.06 115.55 175.59 119.69 C 175.01 117.76 174.37 115.84 173.76 113.91 C 171.73 106.75 168.98 99.83 166.77 92.73 C 166.71 92.38 166.59 91.68 166.52 91.33 C 166.53 91.04 166.55 90.46 166.55 90.17 C 174.20 85.76 181.30 80.47 188.56 75.47 C 192.14 72.99 189.74 68.56 188.51 65.47 C 186.76 61.16 184.68 56.99 182.40 52.93 C 184.17 50.65 184.42 47.70 184.22 44.92 Z" />
<path fill="#52412a" opacity="1.00" d=" M 145.58 48.62 C 145.77 48.52 146.14 48.33 146.33 48.23 C 148.88 49.27 151.52 50.46 153.32 52.65 C 156.67 56.38 156.73 62.05 160.47 65.52 C 163.43 68.33 166.54 71.26 167.85 75.26 C 169.19 78.23 167.88 81.44 167.30 84.43 C 166.89 84.70 166.08 85.23 165.67 85.50 C 163.31 79.91 161.28 74.18 158.26 68.90 C 154.66 61.78 150.54 54.87 145.58 48.62 Z" />
<path fill="#52412a" opacity="1.00" d=" M 63.09 95.62 L 64.40 94.71 C 64.14 95.54 63.63 97.21 63.38 98.04 C 66.53 99.53 69.51 101.47 72.91 102.38 C 73.45 102.52 74.55 102.79 75.09 102.93 C 74.38 103.28 72.96 103.98 72.25 104.33 C 71.12 103.84 70.01 103.32 68.88 102.83 C 66.39 101.78 64.02 100.49 61.77 99.00 C 58.72 101.75 54.92 103.42 50.76 103.41 L 51.80 101.99 C 53.52 101.58 55.27 101.31 57.02 101.01 C 57.22 100.97 57.63 100.90 57.84 100.87 C 59.60 99.13 61.14 97.16 63.09 95.62 Z" />
</g>
<g id="#d1cdc4ff">
<path fill="#d1cdc4" opacity="1.00" d=" M 5.64 35.15 C 6.31 33.24 7.90 32.19 9.81 31.76 C 11.46 32.29 13.12 32.74 14.79 33.20 C 16.97 35.99 20.03 37.84 23.12 39.47 C 20.11 39.63 17.10 39.77 14.11 40.11 C 13.81 40.48 13.21 41.21 12.91 41.58 C 11.79 43.05 10.75 44.59 9.70 46.11 C 9.34 46.63 8.62 47.66 8.26 48.18 C 9.99 48.33 11.72 48.48 13.46 48.67 C 12.61 48.74 10.91 48.90 10.06 48.97 C 8.06 48.55 5.75 48.23 4.34 46.58 C 2.82 43.56 3.35 39.90 4.57 36.87 C 4.70 40.05 4.82 43.27 5.63 46.37 C 6.74 47.09 7.83 46.14 8.85 45.74 C 11.03 42.36 12.24 38.34 10.93 34.39 C 10.21 34.29 8.76 34.11 8.04 34.02 C 7.44 34.30 6.24 34.86 5.64 35.15 Z" />
<path fill="#d1cdc4" opacity="1.00" d=" M 42.84 174.20 C 45.76 172.34 48.95 170.96 52.23 169.89 L 52.35 170.07 C 52.93 170.49 54.08 171.31 54.65 171.73 C 50.87 173.15 46.92 174.34 42.84 174.20 Z" />
</g>
<g id="#c3c0b5ff">
<path fill="#c3c0b5" opacity="1.00" d=" M 14.79 33.20 C 18.86 34.03 22.87 35.14 26.90 36.13 C 28.63 36.52 30.24 37.91 30.40 39.75 C 30.81 42.00 30.66 44.43 31.56 46.56 C 33.72 48.82 36.80 46.62 39.14 45.88 C 38.93 42.43 35.77 40.97 33.02 39.73 L 32.04 39.25 C 34.17 39.07 36.60 37.88 38.59 39.22 C 41.93 41.85 45.70 43.84 49.35 45.98 C 48.02 47.15 47.04 49.22 45.01 49.23 C 40.07 49.49 35.04 50.43 30.14 49.36 C 30.01 47.10 29.87 44.84 29.72 42.58 C 24.10 42.57 18.42 42.87 12.91 41.58 C 13.21 41.21 13.81 40.48 14.11 40.11 C 17.10 39.77 20.11 39.63 23.12 39.47 C 20.03 37.84 16.97 35.99 14.79 33.20 Z" />
</g>
<g id="#b6b5afff">
<path fill="#b6b5af" opacity="1.00" d=" M 124.64 32.05 C 132.08 36.77 135.92 45.07 141.35 51.70 C 143.97 54.70 147.48 56.79 149.93 59.95 C 152.60 63.37 155.00 67.00 157.88 70.26 L 158.26 68.90 C 161.28 74.18 163.31 79.91 165.67 85.50 C 166.20 87.00 166.48 88.57 166.55 90.17 C 166.55 90.46 166.53 91.04 166.52 91.33 C 165.88 91.70 164.60 92.45 163.96 92.82 C 163.10 80.81 156.80 69.14 147.09 61.99 C 143.22 61.00 139.17 60.77 135.34 59.58 C 133.65 52.18 134.10 43.16 127.92 37.75 C 126.91 36.70 125.88 35.67 124.90 34.59 C 124.84 33.95 124.71 32.68 124.64 32.05 Z" />
</g>
<g id="#bc9767ff">
<path fill="#bc9767" opacity="1.00" d=" M 159.08 35.03 C 160.64 34.09 162.19 33.02 164.00 32.64 C 168.11 33.51 169.59 38.77 173.98 39.05 L 174.49 39.18 C 172.24 39.79 170.21 40.99 168.61 42.68 C 167.36 41.38 166.10 40.09 164.85 38.79 C 164.09 38.70 162.58 38.51 161.83 38.42 C 156.61 41.61 151.60 45.12 146.33 48.23 C 146.14 48.33 145.77 48.52 145.58 48.62 C 144.64 47.42 143.74 46.20 142.88 44.95 C 148.27 41.64 153.75 38.45 159.08 35.03 Z" />
</g>
<g id="#7b796dff">
<path fill="#7b796d" opacity="1.00" d=" M 5.64 35.15 C 6.24 34.86 7.44 34.30 8.04 34.02 C 8.76 34.11 10.21 34.29 10.93 34.39 C 12.24 38.34 11.03 42.36 8.85 45.74 C 8.49 42.04 7.67 38.33 5.64 35.15 Z" />
</g>
<g id="#1a1814ff">
<path fill="#1a1814" opacity="1.00" d=" M 53.30 42.19 C 55.12 39.18 57.29 36.40 59.70 33.84 C 62.01 36.52 64.23 39.29 66.40 42.08 C 64.98 43.37 63.52 44.60 62.15 45.94 C 59.25 44.57 56.28 43.36 53.30 42.19 Z" />
</g>
<g id="#b1ada1fe">
<path fill="#b1ada1" opacity="1.00" d=" M 5.18 34.30 L 5.64 35.15 C 7.67 38.33 8.49 42.04 8.85 45.74 C 7.83 46.14 6.74 47.09 5.63 46.37 C 4.82 43.27 4.70 40.05 4.57 36.87 C 4.75 36.00 4.95 35.15 5.18 34.30 Z" />
</g>
<g id="#a8d0f5ff">
<path fill="#a8d0f5" opacity="1.00" d=" M 75.30 34.47 C 76.38 34.62 77.47 34.71 78.57 34.75 C 82.59 35.12 86.82 34.84 90.64 36.37 C 92.29 36.95 93.34 38.94 92.56 40.58 C 87.54 48.11 76.50 51.40 68.74 45.99 C 67.93 47.76 67.13 49.54 66.43 51.35 L 66.05 50.29 C 65.80 47.91 66.09 45.50 66.71 43.20 C 69.28 40.01 72.02 36.94 75.30 34.47 M 70.94 41.26 L 71.51 41.53 C 73.63 45.48 78.62 45.31 82.48 45.43 C 84.43 44.96 86.12 43.73 88.00 43.02 C 87.87 42.69 87.61 42.02 87.48 41.69 C 87.60 39.82 87.91 37.16 85.59 36.51 C 80.46 35.46 74.03 36.67 70.94 41.26 Z" />
</g>
<g id="#9c9888ff">
<path fill="#9c9888" opacity="1.00" d=" M 124.90 34.59 C 125.88 35.67 126.91 36.70 127.92 37.75 C 129.16 41.60 130.54 45.43 131.24 49.43 C 131.66 53.19 131.50 56.98 131.82 60.75 C 137.14 61.66 142.53 62.67 147.51 64.87 C 149.55 65.64 150.52 67.71 151.76 69.35 C 149.31 68.07 146.75 66.99 144.04 66.40 C 141.64 66.45 139.24 66.63 136.84 66.77 C 133.28 66.67 129.72 66.41 126.16 66.43 C 126.01 65.79 125.72 64.50 125.58 63.85 C 125.78 61.71 125.99 59.58 126.31 57.45 C 126.54 56.34 126.77 55.22 126.99 54.10 C 127.63 50.98 127.67 47.77 127.20 44.63 C 126.52 41.69 125.61 38.81 125.08 35.84 L 124.90 34.59 Z" />
</g>
<g id="#bce7ffff">
<path fill="#bce7ff" opacity="1.00" d=" M 70.94 41.26 C 74.03 36.67 80.46 35.46 85.59 36.51 C 87.91 37.16 87.60 39.82 87.48 41.69 C 85.55 42.16 83.86 43.22 82.29 44.41 C 79.17 44.58 75.97 44.36 73.38 42.43 C 72.91 42.21 71.98 41.76 71.51 41.53 L 70.94 41.26 Z" />
</g>
<g id="#667fa3ff">
<path fill="#667fa3" opacity="1.00" d=" M 119.02 41.22 C 121.88 40.69 123.31 37.84 125.08 35.84 C 125.61 38.81 126.52 41.69 127.20 44.63 C 125.73 46.96 124.12 49.19 122.34 51.30 C 121.57 46.69 118.01 43.73 114.01 41.84 C 115.18 45.27 115.61 49.76 111.93 51.83 C 105.45 55.18 98.27 50.76 91.45 51.90 C 89.19 51.99 86.93 52.24 84.67 52.34 C 80.09 51.93 75.41 51.22 70.88 52.38 C 69.68 52.86 68.48 53.36 67.34 53.97 L 67.09 53.21 C 68.07 52.08 69.07 50.97 70.09 49.87 C 73.89 50.68 77.78 51.09 81.68 50.91 C 83.37 50.88 85.08 50.88 86.77 50.72 C 92.79 50.42 98.19 47.41 104.05 46.34 C 107.05 45.81 109.92 44.76 112.55 43.24 C 112.38 42.14 112.22 41.05 112.05 39.96 C 114.34 40.50 116.63 41.39 119.02 41.22 Z" />
</g>
<g id="#a5a197ff">
<path fill="#a5a197" opacity="1.00" d=" M 51.35 37.57 C 51.04 39.04 50.85 40.54 50.73 42.04 C 50.88 42.30 51.17 42.84 51.31 43.11 C 52.48 45.24 54.41 47.71 53.03 50.22 C 51.07 53.17 47.88 55.00 45.44 57.53 C 44.93 57.27 43.92 56.76 43.41 56.51 C 43.05 56.69 42.70 56.89 42.35 57.10 C 39.16 55.56 35.49 55.48 32.24 54.14 C 30.63 53.08 29.24 51.73 27.78 50.48 C 28.30 49.38 28.76 48.25 29.23 47.12 C 22.73 46.52 16.19 46.83 9.70 46.11 C 10.75 44.59 11.79 43.05 12.91 41.58 C 18.42 42.87 24.10 42.57 29.72 42.58 C 29.87 44.84 30.01 47.10 30.14 49.36 C 35.04 50.43 40.07 49.49 45.01 49.23 C 47.04 49.22 48.02 47.15 49.35 45.98 C 45.70 43.84 41.93 41.85 38.59 39.22 C 42.04 39.72 45.37 40.74 48.75 41.58 C 49.61 40.24 50.48 38.90 51.35 37.57 Z" />
</g>
<g id="#a3a29bff">
<path fill="#a3a29b" opacity="1.00" d=" M 127.92 37.75 C 134.10 43.16 133.65 52.18 135.34 59.58 C 139.17 60.77 143.22 61.00 147.09 61.99 C 156.80 69.14 163.10 80.81 163.96 92.82 C 164.60 92.45 165.88 91.70 166.52 91.33 C 166.59 91.68 166.71 92.38 166.77 92.73 C 165.91 93.62 165.01 94.47 164.11 95.33 C 160.62 98.18 157.69 101.82 153.49 103.70 C 148.50 106.06 142.83 108.46 137.24 106.88 C 133.64 106.18 130.02 105.25 127.05 103.00 C 130.71 103.66 134.26 104.98 138.01 105.12 C 141.37 105.08 144.57 103.83 147.67 102.65 C 149.66 101.72 151.73 100.78 153.29 99.18 C 159.45 93.58 160.33 83.90 157.02 76.56 C 156.41 74.93 155.45 73.45 154.45 72.05 C 153.70 71.28 152.94 70.52 152.18 69.77 C 152.08 69.67 151.87 69.45 151.76 69.35 C 150.52 67.71 149.55 65.64 147.51 64.87 C 142.53 62.67 137.14 61.66 131.82 60.75 C 131.50 56.98 131.66 53.19 131.24 49.43 C 130.54 45.43 129.16 41.60 127.92 37.75 Z" />
<path fill="#a3a29b" opacity="1.00" d=" M 118.18 88.35 C 118.48 88.50 119.09 88.78 119.39 88.92 L 119.32 90.98 C 118.85 92.23 118.34 93.45 117.83 94.68 C 116.06 95.22 114.31 95.80 112.51 96.21 C 111.98 96.14 110.92 95.99 110.39 95.91 C 109.30 95.69 108.19 95.59 107.09 95.36 C 107.26 95.16 107.59 94.75 107.76 94.54 C 108.39 94.29 109.66 93.80 110.29 93.55 C 110.71 93.87 111.54 94.51 111.96 94.83 C 114.28 93.40 116.60 91.95 118.89 90.48 C 118.71 89.95 118.35 88.89 118.18 88.35 Z" />
</g>
<g id="#25231eff">
<path fill="#25231e" opacity="1.00" d=" M 146.33 48.23 C 151.60 45.12 156.61 41.61 161.83 38.42 C 162.58 38.51 164.09 38.70 164.85 38.79 C 166.10 40.09 167.36 41.38 168.61 42.68 C 166.62 44.83 164.61 46.96 162.55 49.05 C 159.23 51.52 158.97 55.53 159.42 59.34 C 160.08 60.05 160.75 60.75 161.43 61.44 C 162.50 62.52 163.59 63.58 164.68 64.64 C 168.35 64.74 172.00 63.69 174.49 60.86 C 175.76 59.71 177.02 58.54 178.28 57.38 C 180.43 61.11 182.41 64.95 183.83 69.01 C 184.00 69.54 184.35 70.60 184.53 71.13 C 183.83 72.77 182.82 74.29 181.24 75.20 C 176.59 78.28 171.92 81.31 167.30 84.43 C 167.88 81.44 169.19 78.23 167.85 75.26 C 166.54 71.26 163.43 68.33 160.47 65.52 C 156.73 62.05 156.67 56.38 153.32 52.65 C 151.52 50.46 148.88 49.27 146.33 48.23 Z" />
</g>
<g id="#ece9d8ff">
<path fill="#ece9d8" opacity="1.00" d=" M 174.49 39.18 C 175.10 39.22 176.31 39.29 176.92 39.33 C 177.76 39.95 178.70 40.21 179.74 40.12 C 181.82 41.00 183.32 42.89 184.22 44.92 C 184.42 47.70 184.17 50.65 182.40 52.93 L 181.71 53.81 C 181.61 53.28 181.39 52.24 181.28 51.72 C 181.37 49.28 181.46 46.85 181.52 44.41 C 181.00 44.43 179.94 44.47 179.42 44.49 C 179.46 44.02 179.54 43.07 179.58 42.60 C 176.61 41.77 172.85 40.79 170.63 43.67 C 167.43 48.06 171.42 54.20 176.56 54.24 C 172.86 55.84 169.73 53.30 167.52 50.58 C 166.58 51.33 165.64 52.09 164.70 52.84 C 163.98 51.58 163.27 50.31 162.55 49.05 C 164.61 46.96 166.62 44.83 168.61 42.68 C 170.21 40.99 172.24 39.79 174.49 39.18 Z" />
</g>
<g id="#59594b9a">
<path fill="#59594b" opacity="0.60" d=" M 176.92 39.33 C 178.34 38.16 179.28 38.42 179.74 40.12 C 178.70 40.21 177.76 39.95 176.92 39.33 Z" />
</g>
<g id="#e2dcc6ff">
<path fill="#e2dcc6" opacity="1.00" d=" M 30.40 39.75 C 31.05 39.74 32.36 39.73 33.02 39.73 C 35.77 40.97 38.93 42.43 39.14 45.88 C 36.80 46.62 33.72 48.82 31.56 46.56 C 30.66 44.43 30.81 42.00 30.40 39.75 Z" />
<path fill="#e2dcc6" opacity="1.00" d=" M 46.22 100.37 C 48.37 99.85 50.51 99.32 52.70 99.00 C 54.16 99.63 55.57 100.35 57.02 101.01 C 55.27 101.31 53.52 101.58 51.80 101.99 C 51.13 101.71 49.79 101.17 49.12 100.90 C 48.46 106.92 48.35 113.00 47.40 119.00 C 46.38 114.55 45.09 110.17 44.33 105.67 C 44.55 106.28 44.99 107.50 45.21 108.11 C 45.88 106.00 46.57 103.90 47.26 101.80 C 46.92 101.32 46.57 100.84 46.22 100.37 Z" />
</g>
<g id="#77746cff">
<path fill="#77746c" opacity="1.00" d=" M 51.31 43.11 C 51.97 42.80 52.64 42.50 53.30 42.19 C 54.63 44.63 57.05 47.05 56.46 50.06 C 54.78 53.57 51.48 55.88 48.75 58.52 C 47.65 58.18 46.55 57.84 45.44 57.53 C 47.88 55.00 51.07 53.17 53.03 50.22 C 54.41 47.71 52.48 45.24 51.31 43.11 Z" />
</g>
<g id="#fefef8ff">
<path fill="#fefef8" opacity="1.00" d=" M 66.40 42.08 L 67.21 41.32 L 66.71 43.20 C 66.09 45.50 65.80 47.91 66.05 50.29 C 64.34 52.68 62.91 55.54 60.21 56.98 C 57.06 58.75 53.72 60.14 50.46 61.69 L 51.83 59.60 C 54.95 54.82 58.31 50.17 62.15 45.94 C 63.52 44.60 64.98 43.37 66.40 42.08 Z" />
</g>
<g id="#546b8aff">
<path fill="#546b8a" opacity="1.00" d=" M 71.51 41.53 C 71.98 41.76 72.91 42.21 73.38 42.43 C 75.97 44.36 79.17 44.58 82.29 44.41 C 83.86 43.22 85.55 42.16 87.48 41.69 C 87.61 42.02 87.87 42.69 88.00 43.02 C 86.12 43.73 84.43 44.96 82.48 45.43 C 78.62 45.31 73.63 45.48 71.51 41.53 Z" />
<path fill="#546b8a" opacity="1.00" d=" M 58.62 79.31 C 59.56 78.10 60.50 76.89 61.44 75.69 C 61.51 79.50 61.22 83.32 60.48 87.07 C 59.78 85.62 59.08 84.18 58.39 82.74 C 57.67 88.44 56.06 94.04 52.86 98.86 L 52.70 99.00 C 50.51 99.32 48.37 99.85 46.22 100.37 C 45.19 100.62 44.15 100.85 43.11 101.05 C 39.95 101.36 36.94 99.96 33.89 99.33 C 35.57 99.15 37.24 98.95 38.91 98.76 C 39.05 98.08 39.32 96.73 39.46 96.05 C 37.74 95.22 36.07 94.31 34.35 93.49 L 34.55 92.84 C 36.07 94.04 37.93 94.57 39.77 95.05 C 39.35 93.24 38.91 91.45 38.44 89.66 C 37.75 89.25 37.07 88.82 36.40 88.38 C 36.64 88.32 37.11 88.21 37.34 88.16 C 37.96 88.24 38.57 88.33 39.18 88.45 C 38.81 91.27 40.01 93.62 42.36 95.20 C 43.17 93.13 43.64 90.95 43.93 88.75 C 45.48 88.03 47.04 87.32 48.60 86.62 C 48.37 84.61 48.13 82.60 47.89 80.59 C 48.15 80.96 48.67 81.70 48.93 82.07 C 49.92 83.63 50.80 85.26 51.70 86.88 C 53.33 85.81 54.96 84.73 56.59 83.66 C 56.48 81.93 56.36 80.19 56.24 78.46 C 57.04 78.74 57.83 79.02 58.62 79.31 Z" />
</g>
<g id="#48576bff">
<path fill="#48576b" opacity="1.00" d=" M 114.01 41.84 C 118.01 43.73 121.57 46.69 122.34 51.30 C 122.67 53.40 122.87 55.52 123.10 57.64 C 124.39 56.45 125.69 55.27 126.99 54.10 C 126.77 55.22 126.54 56.34 126.31 57.45 C 124.43 60.51 121.79 62.97 118.97 65.13 C 120.23 62.10 121.60 58.98 121.35 55.62 L 121.34 54.45 C 120.55 50.82 119.74 46.86 116.60 44.48 C 116.02 47.07 116.07 50.05 114.19 52.13 C 112.54 54.02 109.98 54.64 107.69 55.35 C 102.33 53.97 96.89 52.91 91.45 51.90 C 98.27 50.76 105.45 55.18 111.93 51.83 C 115.61 49.76 115.18 45.27 114.01 41.84 Z" />
</g>
<g id="#55544eff">
<path fill="#55544e" opacity="1.00" d=" M 53.30 42.19 C 56.28 43.36 59.25 44.57 62.15 45.94 C 58.31 50.17 54.95 54.82 51.83 59.60 C 50.81 59.23 49.78 58.87 48.75 58.52 C 51.48 55.88 54.78 53.57 56.46 50.06 C 57.05 47.05 54.63 44.63 53.30 42.19 Z" />
</g>
<g id="#948f83ff">
<path fill="#948f83" opacity="1.00" d=" M 116.60 44.48 C 119.74 46.86 120.55 50.82 121.34 54.45 C 116.85 55.33 112.21 56.97 107.69 55.35 C 109.98 54.64 112.54 54.02 114.19 52.13 C 116.07 50.05 116.02 47.07 116.60 44.48 Z" />
</g>
<g id="#536988ff">
<path fill="#536988" opacity="1.00" d=" M 122.34 51.30 C 124.12 49.19 125.73 46.96 127.20 44.63 C 127.67 47.77 127.63 50.98 126.99 54.10 C 125.69 55.27 124.39 56.45 123.10 57.64 C 122.87 55.52 122.67 53.40 122.34 51.30 Z" />
</g>
<g id="#928c7cff">
<path fill="#928c7c" opacity="1.00" d=" M 8.26 48.18 C 8.62 47.66 9.34 46.63 9.70 46.11 C 16.19 46.83 22.73 46.52 29.23 47.12 C 28.76 48.25 28.30 49.38 27.78 50.48 C 26.83 52.19 24.68 52.55 22.92 52.14 C 18.61 51.20 14.32 50.14 10.06 48.97 C 10.91 48.90 12.61 48.74 13.46 48.67 C 11.72 48.48 9.99 48.33 8.26 48.18 Z" />
</g>
<g id="#c1beb9ff">
<path fill="#c1beb9" opacity="1.00" d=" M 159.42 59.34 C 158.97 55.53 159.23 51.52 162.55 49.05 C 163.27 50.31 163.98 51.58 164.70 52.84 C 165.64 52.09 166.58 51.33 167.52 50.58 C 169.73 53.30 172.86 55.84 176.56 54.24 C 178.25 53.64 179.78 52.68 181.28 51.72 C 181.39 52.24 181.61 53.28 181.71 53.81 C 180.66 55.08 179.48 56.24 178.28 57.38 C 177.02 58.54 175.76 59.71 174.49 60.86 C 173.36 60.18 172.25 59.44 171.02 58.95 C 167.82 59.79 164.87 61.61 161.43 61.44 C 160.75 60.75 160.08 60.05 159.42 59.34 Z" />
</g>
<g id="#edebc9ff">
<path fill="#edebc9" opacity="1.00" d=" M 66.05 50.29 L 66.43 51.35 L 67.09 53.21 L 67.34 53.97 C 64.12 56.97 60.95 60.34 56.53 61.50 C 55.90 61.68 54.64 62.03 54.01 62.20 C 52.82 62.05 51.64 61.88 50.46 61.69 C 53.72 60.14 57.06 58.75 60.21 56.98 C 62.91 55.54 64.34 52.68 66.05 50.29 Z" />
</g>
<g id="#b2aa95ff">
<path fill="#b2aa95" opacity="1.00" d=" M 70.88 52.38 C 75.41 51.22 80.09 51.93 84.67 52.34 C 85.25 52.44 86.41 52.64 86.99 52.75 C 86.58 56.43 86.90 61.00 83.48 63.41 C 80.69 64.95 77.40 65.15 74.32 65.70 C 72.42 64.68 70.87 63.16 69.26 61.77 C 70.79 61.16 72.41 60.68 73.74 59.67 C 74.04 56.90 72.10 54.66 70.88 52.38 Z" />
</g>
<g id="#858174ff">
<path fill="#858174" opacity="1.00" d=" M 84.67 52.34 C 86.93 52.24 89.19 51.99 91.45 51.90 C 96.89 52.91 102.33 53.97 107.69 55.35 C 112.21 56.97 116.85 55.33 121.34 54.45 L 121.35 55.62 C 121.14 58.34 120.26 60.97 118.64 63.18 C 114.98 63.50 111.39 64.34 107.87 65.38 C 101.47 67.27 94.86 68.36 88.54 70.54 C 85.78 69.94 83.02 69.39 80.32 68.59 C 85.33 66.89 91.06 64.90 93.48 59.73 C 93.39 56.17 90.50 53.19 86.99 52.75 C 86.41 52.64 85.25 52.44 84.67 52.34 Z" />
<path fill="#858174" opacity="1.00" d=" M 52.35 170.07 C 52.58 169.81 53.03 169.29 53.25 169.03 C 55.18 170.29 57.06 171.64 58.81 173.15 C 61.19 175.27 63.28 177.70 65.71 179.78 C 55.70 181.11 45.54 181.02 35.46 180.98 C 36.10 179.99 36.75 179.02 37.39 178.03 C 37.36 178.67 37.29 179.94 37.26 180.58 C 44.97 181.24 52.69 180.28 60.39 179.87 C 61.19 179.83 62.80 179.75 63.61 179.70 C 60.91 176.74 58.03 173.92 54.65 171.73 C 54.08 171.31 52.93 170.49 52.35 170.07 Z" />
</g>
<g id="#cbc4a2ff">
<path fill="#cbc4a2" opacity="1.00" d=" M 67.34 53.97 C 68.48 53.36 69.68 52.86 70.88 52.38 C 72.10 54.66 74.04 56.90 73.74 59.67 C 72.41 60.68 70.79 61.16 69.26 61.77 C 68.46 61.26 67.67 60.76 66.87 60.26 C 64.39 61.93 62.06 63.83 60.07 66.07 C 58.93 64.51 57.72 63.02 56.53 61.50 C 60.95 60.34 64.12 56.97 67.34 53.97 Z" />
</g>
<g id="#999383ff">
<path fill="#999383" opacity="1.00" d=" M 86.99 52.75 C 90.50 53.19 93.39 56.17 93.48 59.73 C 91.06 64.90 85.33 66.89 80.32 68.59 C 78.27 67.73 76.28 66.74 74.32 65.70 C 77.40 65.15 80.69 64.95 83.48 63.41 C 86.90 61.00 86.58 56.43 86.99 52.75 Z" />
</g>
<g id="#997e5bff">
<path fill="#997e5b" opacity="1.00" d=" M 181.71 53.81 L 182.40 52.93 C 184.68 56.99 186.76 61.16 188.51 65.47 C 186.94 66.65 185.38 67.83 183.83 69.01 C 182.41 64.95 180.43 61.11 178.28 57.38 C 179.48 56.24 180.66 55.08 181.71 53.81 Z" />
</g>
<g id="#a48561ff">
<path fill="#a48561" opacity="1.00" d=" M 42.35 57.10 C 42.70 56.89 43.05 56.69 43.41 56.51 C 43.92 56.76 44.93 57.27 45.44 57.53 C 45.03 59.84 44.61 62.15 44.21 64.46 C 42.96 64.85 41.71 65.28 40.51 65.81 C 40.58 62.81 41.36 59.91 42.35 57.10 Z" />
</g>
<g id="#232220ff">
<path fill="#232220" opacity="1.00" d=" M 121.35 55.62 C 121.60 58.98 120.23 62.10 118.97 65.13 C 121.79 62.97 124.43 60.51 126.31 57.45 C 125.99 59.58 125.78 61.71 125.58 63.85 C 125.14 65.51 124.61 67.15 124.10 68.79 C 123.67 68.66 122.80 68.39 122.37 68.26 C 114.14 66.20 106.92 71.89 98.92 72.40 C 91.94 73.43 84.62 71.98 78.56 68.35 C 75.52 66.36 71.97 65.49 68.38 65.22 C 68.62 64.06 68.94 62.91 69.26 61.77 C 70.87 63.16 72.42 64.68 74.32 65.70 C 76.28 66.74 78.27 67.73 80.32 68.59 C 83.02 69.39 85.78 69.94 88.54 70.54 C 95.22 72.45 102.22 70.94 108.76 69.19 C 112.41 67.93 116.37 66.53 118.64 63.18 C 120.26 60.97 121.14 58.34 121.35 55.62 Z" />
</g>
<g id="#201c14ff">
<path fill="#201c14" opacity="1.00" d=" M 45.44 57.53 C 46.55 57.84 47.65 58.18 48.75 58.52 C 49.78 58.87 50.81 59.23 51.83 59.60 L 50.46 61.69 C 49.93 62.16 49.37 62.60 48.81 63.03 C 47.29 63.54 45.76 64.01 44.21 64.46 C 44.61 62.15 45.03 59.84 45.44 57.53 Z" />
</g>
<g id="#a2a08fff">
<path fill="#a2a08f" opacity="1.00" d=" M 161.43 61.44 C 164.87 61.61 167.82 59.79 171.02 58.95 C 172.25 59.44 173.36 60.18 174.49 60.86 C 172.00 63.69 168.35 64.74 164.68 64.64 C 163.59 63.58 162.50 62.52 161.43 61.44 Z" />
</g>
<g id="#99937bff">
<path fill="#99937b" opacity="1.00" d=" M 60.07 66.07 C 62.06 63.83 64.39 61.93 66.87 60.26 C 67.67 60.76 68.46 61.26 69.26 61.77 C 68.94 62.91 68.62 64.06 68.38 65.22 C 68.16 67.66 68.05 70.12 67.86 72.57 C 65.85 78.88 64.96 85.71 65.65 92.31 C 65.23 93.11 64.83 93.92 64.40 94.71 L 63.09 95.62 C 63.37 93.59 63.69 91.56 64.02 89.54 C 62.59 89.90 61.17 90.27 59.74 90.64 C 59.93 89.75 60.30 87.96 60.48 87.07 C 61.22 83.32 61.51 79.50 61.44 75.69 C 61.38 73.09 61.15 70.50 60.59 67.97 C 60.46 67.49 60.20 66.55 60.07 66.07 Z" />
</g>
<g id="#9ec2e6ff">
<path fill="#9ec2e6" opacity="1.00" d=" M 48.81 63.03 C 49.37 62.60 49.93 62.16 50.46 61.69 C 51.64 61.88 52.82 62.05 54.01 62.20 C 53.77 64.40 53.69 66.61 53.61 68.82 C 51.04 70.77 47.80 70.53 44.78 70.16 C 46.67 71.16 48.54 72.19 50.40 73.25 C 46.04 76.31 40.78 74.87 35.89 74.75 C 38.97 73.94 41.92 72.71 44.73 71.23 C 42.51 70.83 40.27 70.57 38.02 70.40 C 40.65 69.68 43.41 69.17 45.78 67.78 C 47.16 66.48 47.92 64.68 48.81 63.03 Z" />
<path fill="#9ec2e6" opacity="1.00" d=" M 131.34 144.57 C 134.52 140.62 138.80 137.81 143.39 135.75 C 148.36 136.29 154.15 135.16 158.20 138.78 C 160.88 142.15 162.24 147.10 160.14 151.12 C 156.51 159.25 148.74 164.41 141.24 168.63 C 135.56 165.46 131.18 160.11 129.40 153.86 C 129.08 150.66 129.56 147.30 131.34 144.57 M 142.38 140.59 C 139.40 142.37 137.52 145.61 135.07 148.05 C 131.67 151.57 134.13 156.56 135.75 160.30 C 136.82 163.31 140.72 163.24 143.16 162.09 C 149.66 159.50 152.99 152.89 155.96 147.00 C 154.95 145.08 154.00 143.11 152.65 141.39 C 150.42 137.77 145.67 140.19 142.38 140.59 Z" />
</g>
<g id="#8baaceff">
<path fill="#8baace" opacity="1.00" d=" M 54.01 62.20 C 54.64 62.03 55.90 61.68 56.53 61.50 C 56.97 63.54 57.63 65.59 57.58 67.70 C 57.16 70.01 55.45 71.79 54.16 73.68 C 53.09 73.20 52.01 72.73 50.93 72.26 C 51.58 73.57 52.23 74.87 52.88 76.17 C 51.42 76.92 49.99 77.77 48.42 78.30 C 46.63 78.16 45.07 77.05 43.42 76.44 C 44.07 77.55 44.72 78.66 45.37 79.78 C 43.68 81.92 42.22 84.23 41.15 86.73 C 40.65 87.16 39.67 88.02 39.18 88.45 C 38.57 88.33 37.96 88.24 37.34 88.16 C 39.46 84.74 41.13 81.08 42.79 77.42 C 38.52 75.78 33.93 76.35 29.51 76.84 C 29.72 76.68 30.14 76.35 30.35 76.19 C 32.17 75.62 34.03 75.18 35.89 74.75 C 40.78 74.87 46.04 76.31 50.40 73.25 C 48.54 72.19 46.67 71.16 44.78 70.16 C 47.80 70.53 51.04 70.77 53.61 68.82 C 53.69 66.61 53.77 64.40 54.01 62.20 Z" />
</g>
<g id="#7490b3ff">
<path fill="#7490b3" opacity="1.00" d=" M 56.53 61.50 C 57.72 63.02 58.93 64.51 60.07 66.07 C 60.20 66.55 60.46 67.49 60.59 67.97 C 59.88 71.34 58.09 74.50 54.77 75.82 C 54.65 77.03 54.56 78.25 54.31 79.44 C 52.77 80.75 50.79 81.36 48.93 82.07 C 48.67 81.70 48.15 80.96 47.89 80.59 C 48.13 82.60 48.37 84.61 48.60 86.62 C 47.04 87.32 45.48 88.03 43.93 88.75 C 43.00 88.08 42.07 87.41 41.15 86.73 C 42.22 84.23 43.68 81.92 45.37 79.78 C 44.72 78.66 44.07 77.55 43.42 76.44 C 45.07 77.05 46.63 78.16 48.42 78.30 C 49.99 77.77 51.42 76.92 52.88 76.17 C 52.23 74.87 51.58 73.57 50.93 72.26 C 52.01 72.73 53.09 73.20 54.16 73.68 C 55.45 71.79 57.16 70.01 57.58 67.70 C 57.63 65.59 56.97 63.54 56.53 61.50 Z" />
</g>
<g id="#bae3ffff">
<path fill="#bae3ff" opacity="1.00" d=" M 44.21 64.46 C 45.76 64.01 47.29 63.54 48.81 63.03 C 47.92 64.68 47.16 66.48 45.78 67.78 C 43.41 69.17 40.65 69.68 38.02 70.40 C 40.27 70.57 42.51 70.83 44.73 71.23 C 41.92 72.71 38.97 73.94 35.89 74.75 C 34.03 75.18 32.17 75.62 30.35 76.19 C 33.67 72.67 36.90 69.04 40.51 65.81 C 41.71 65.28 42.96 64.85 44.21 64.46 Z" />
</g>
<g id="#67675aff">
<path fill="#67675a" opacity="1.00" d=" M 107.87 65.38 C 111.39 64.34 114.98 63.50 118.64 63.18 C 116.37 66.53 112.41 67.93 108.76 69.19 C 102.22 70.94 95.22 72.45 88.54 70.54 C 94.86 68.36 101.47 67.27 107.87 65.38 Z" />
</g>
<g id="#8c876fff">
<path fill="#8c876f" opacity="1.00" d=" M 124.10 68.79 C 124.61 67.15 125.14 65.51 125.58 63.85 C 125.72 64.50 126.01 65.79 126.16 66.43 C 129.72 66.41 133.28 66.67 136.84 66.77 C 131.63 68.08 129.43 73.36 125.10 75.93 C 122.54 76.82 120.11 78.01 117.81 79.44 C 118.46 75.40 120.56 71.86 122.37 68.26 C 122.80 68.39 123.67 68.66 124.10 68.79 Z" />
</g>
<g id="#bfb48bff">
<path fill="#bfb48b" opacity="1.00" d=" M 68.38 65.22 C 71.97 65.49 75.52 66.36 78.56 68.35 C 84.62 71.98 91.94 73.43 98.92 72.40 C 106.92 71.89 114.14 66.20 122.37 68.26 C 120.56 71.86 118.46 75.40 117.81 79.44 C 117.17 76.31 115.06 72.50 111.26 73.51 C 100.51 75.97 89.23 76.82 78.42 74.23 C 74.94 73.24 71.36 73.85 67.89 74.49 L 67.86 72.57 C 68.05 70.12 68.16 67.66 68.38 65.22 Z" />
</g>
<g id="#886f53ff">
<path fill="#886f53" opacity="1.00" d=" M 188.51 65.47 C 189.74 68.56 192.14 72.99 188.56 75.47 C 181.30 80.47 174.20 85.76 166.55 90.17 C 166.48 88.57 166.20 87.00 165.67 85.50 C 166.08 85.23 166.89 84.70 167.30 84.43 C 171.92 81.31 176.59 78.28 181.24 75.20 C 182.82 74.29 183.83 72.77 184.53 71.13 C 184.35 70.60 184.00 69.54 183.83 69.01 C 185.38 67.83 186.94 66.65 188.51 65.47 Z" />
</g>
<g id="#b8e4feff">
<path fill="#b8e4fe" opacity="1.00" d=" M 125.10 75.93 C 129.43 73.36 131.63 68.08 136.84 66.77 C 139.24 66.63 141.64 66.45 144.04 66.40 C 144.18 68.05 144.33 69.69 144.48 71.34 C 141.69 71.61 138.91 71.95 136.14 72.41 C 137.59 72.95 139.04 73.53 140.57 73.81 L 142.49 74.19 C 137.54 75.37 132.48 76.03 127.57 77.37 C 126.77 77.31 125.17 77.21 124.37 77.16 L 125.10 75.93 Z" />
</g>
<g id="#a3c9f4ff">
<path fill="#a3c9f4" opacity="1.00" d=" M 144.04 66.40 C 146.75 66.99 149.31 68.07 151.76 69.35 C 151.87 69.45 152.08 69.67 152.18 69.77 C 151.17 72.07 150.17 74.38 149.16 76.68 C 147.00 74.00 143.86 73.18 140.57 73.81 C 139.04 73.53 137.59 72.95 136.14 72.41 C 138.91 71.95 141.69 71.61 144.48 71.34 C 144.33 69.69 144.18 68.05 144.04 66.40 Z" />
</g>
<g id="#67809fff">
<path fill="#67809f" opacity="1.00" d=" M 60.59 67.97 C 61.15 70.50 61.38 73.09 61.44 75.69 C 60.50 76.89 59.56 78.10 58.62 79.31 C 57.83 79.02 57.04 78.74 56.24 78.46 C 56.36 80.19 56.48 81.93 56.59 83.66 C 54.96 84.73 53.33 85.81 51.70 86.88 C 50.80 85.26 49.92 83.63 48.93 82.07 C 50.79 81.36 52.77 80.75 54.31 79.44 C 54.56 78.25 54.65 77.03 54.77 75.82 C 58.09 74.50 59.88 71.34 60.59 67.97 Z" />
</g>
<g id="#90b2dcff">
<path fill="#90b2dc" opacity="1.00" d=" M 152.18 69.77 C 152.94 70.52 153.70 71.28 154.45 72.05 C 154.81 74.86 154.26 77.64 152.20 79.71 C 151.22 78.66 150.21 77.65 149.16 76.68 C 150.17 74.38 151.17 72.07 152.18 69.77 Z" />
</g>
<g id="#7f9cc4ff">
<path fill="#7f9cc4" opacity="1.00" d=" M 154.45 72.05 C 155.45 73.45 156.41 74.93 157.02 76.56 C 157.06 80.28 156.22 83.92 155.24 87.49 C 154.32 84.86 153.33 82.25 152.20 79.71 C 154.26 77.64 154.81 74.86 154.45 72.05 Z" />
</g>
<g id="#8d8568ff">
<path fill="#8d8568" opacity="1.00" d=" M 65.65 92.31 C 64.96 85.71 65.85 78.88 67.86 72.57 L 67.89 74.49 C 68.38 80.53 67.39 86.53 65.65 92.31 Z" />
</g>
<g id="#d2c69cff">
<path fill="#d2c69c" opacity="1.00" d=" M 67.89 74.49 C 71.36 73.85 74.94 73.24 78.42 74.23 C 89.23 76.82 100.51 75.97 111.26 73.51 C 115.06 72.50 117.17 76.31 117.81 79.44 C 116.64 80.18 115.51 80.98 114.40 81.82 C 113.65 82.46 112.92 83.13 112.23 83.84 C 105.50 78.71 96.79 81.02 89.03 79.92 C 83.94 79.50 78.47 78.50 73.66 80.73 C 68.95 82.96 70.20 89.89 65.65 92.31 C 67.39 86.53 68.38 80.53 67.89 74.49 Z" />
</g>
<g id="#4d6078ff">
<path fill="#4d6078" opacity="1.00" d=" M 140.57 73.81 C 143.86 73.18 147.00 74.00 149.16 76.68 C 150.21 77.65 151.22 78.66 152.20 79.71 C 153.33 82.25 154.32 84.86 155.24 87.49 C 154.92 91.43 154.58 95.42 153.29 99.18 C 151.73 100.78 149.66 101.72 147.67 102.65 C 150.35 98.77 153.26 94.69 153.27 89.75 C 153.13 88.23 152.95 86.71 152.69 85.20 C 152.14 82.81 151.43 80.37 149.75 78.51 C 148.14 76.94 146.49 75.43 144.87 73.88 C 144.27 73.95 143.09 74.11 142.49 74.19 L 140.57 73.81 Z" />
<path fill="#4d6078" opacity="1.00" d=" M 124.20 77.45 L 124.37 77.16 C 125.17 77.21 126.77 77.31 127.57 77.37 C 130.53 78.55 132.92 80.73 134.72 83.33 C 135.32 84.78 135.85 86.26 136.23 87.79 C 136.71 93.00 136.11 99.43 130.65 101.84 C 132.50 98.51 134.91 95.27 135.14 91.32 C 134.79 88.86 134.33 86.41 133.70 84.00 C 131.58 80.54 128.31 77.95 124.20 77.45 Z" />
<path fill="#4d6078" opacity="1.00" d=" M 163.82 132.97 C 164.35 133.23 165.42 133.74 165.95 134.00 C 167.06 134.64 168.12 135.36 169.18 136.10 C 172.11 139.12 172.45 143.54 173.74 147.35 C 174.21 146.86 175.14 145.87 175.61 145.38 C 175.10 146.02 174.59 146.67 174.08 147.31 C 174.24 152.54 174.64 157.80 174.07 163.02 C 174.11 158.91 174.04 154.79 173.66 150.69 C 172.52 154.49 172.86 158.90 170.09 162.04 C 167.07 166.65 161.73 168.67 156.89 170.75 C 153.44 171.34 149.92 171.26 146.46 170.77 C 139.58 169.98 133.87 165.28 130.80 159.22 C 128.49 156.13 127.94 152.31 128.02 148.54 C 129.14 147.23 130.23 145.89 131.34 144.57 C 129.56 147.30 129.08 150.66 129.40 153.86 C 131.18 160.11 135.56 165.46 141.24 168.63 C 142.71 169.09 144.21 169.50 145.75 169.75 C 155.43 171.31 166.44 167.08 171.09 158.12 C 172.28 154.90 172.88 151.44 173.02 148.02 C 172.11 142.01 169.03 136.29 163.82 132.97 Z" />
<path fill="#4d6078" opacity="1.00" d=" M 70.49 143.26 C 71.44 144.01 72.41 144.75 73.38 145.48 C 73.30 146.69 73.21 147.90 73.09 149.11 C 72.84 150.80 72.55 152.49 72.26 154.18 C 70.05 158.13 67.91 162.48 63.94 164.94 C 61.13 166.50 57.82 166.54 54.70 166.83 C 56.33 166.33 57.98 165.86 59.62 165.37 C 63.53 164.42 66.31 161.19 68.33 157.91 C 71.44 153.63 71.04 148.23 70.49 143.26 Z" />
<path fill="#4d6078" opacity="1.00" d=" M 90.09 171.25 C 84.79 167.13 82.18 159.87 83.19 153.30 C 86.99 155.85 91.20 157.67 95.24 159.80 C 94.70 159.69 93.62 159.46 93.08 159.35 C 93.75 162.71 91.33 167.54 94.43 169.87 L 94.40 169.88 L 93.75 170.28 C 93.59 172.49 93.54 174.72 93.57 176.94 L 94.48 177.08 L 94.68 177.11 C 94.16 177.20 93.10 177.39 92.57 177.48 C 91.93 175.36 92.20 172.58 90.09 171.25 Z" />
</g>
<g id="#9dc1eaff">
<path fill="#9dc1ea" opacity="1.00" d=" M 142.49 74.19 C 143.09 74.11 144.27 73.95 144.87 73.88 C 146.49 75.43 148.14 76.94 149.75 78.51 C 144.86 80.47 139.83 82.06 134.72 83.33 C 132.92 80.73 130.53 78.55 127.57 77.37 C 132.48 76.03 137.54 75.37 142.49 74.19 Z" />
</g>
<g id="#a5cbeeff">
<path fill="#a5cbee" opacity="1.00" d=" M 117.81 79.44 C 120.11 78.01 122.54 76.82 125.10 75.93 L 124.37 77.16 L 124.20 77.45 C 128.31 77.95 131.58 80.54 133.70 84.00 C 132.38 85.34 131.32 87.10 129.59 87.94 C 126.17 88.98 122.67 89.73 119.32 90.98 L 119.39 88.92 C 119.09 88.78 118.48 88.50 118.18 88.35 C 117.68 88.17 116.68 87.79 116.18 87.60 C 116.81 85.46 117.60 83.38 118.48 81.33 C 117.12 81.50 115.76 81.66 114.40 81.82 C 115.51 80.98 116.64 80.18 117.81 79.44 Z" />
</g>
<g id="#61799fff">
<path fill="#61799f" opacity="1.00" d=" M 157.02 76.56 C 160.33 83.90 159.45 93.58 153.29 99.18 C 154.58 95.42 154.92 91.43 155.24 87.49 C 156.22 83.92 157.06 80.28 157.02 76.56 Z" />
</g>
<g id="#ebdfb3ff">
<path fill="#ebdfb3" opacity="1.00" d=" M 73.66 80.73 C 78.47 78.50 83.94 79.50 89.03 79.92 C 96.79 81.02 105.50 78.71 112.23 83.84 C 111.33 85.59 110.62 87.42 109.92 89.25 C 111.07 89.29 112.23 89.33 113.38 89.37 C 111.26 90.77 108.65 91.96 107.76 94.54 C 107.59 94.75 107.26 95.16 107.09 95.36 C 108.19 95.59 109.30 95.69 110.39 95.91 C 109.44 98.28 109.07 100.81 108.94 103.34 C 101.80 105.29 94.33 105.55 86.98 105.09 C 86.54 105.03 85.64 104.91 85.20 104.85 C 91.11 104.08 97.10 104.48 103.03 103.85 C 104.93 98.71 102.56 92.79 98.39 89.55 C 92.93 87.58 86.80 87.06 81.09 88.09 C 77.06 91.45 73.63 96.43 73.84 101.92 C 73.61 102.03 73.14 102.27 72.91 102.38 C 69.51 101.47 66.53 99.53 63.38 98.04 C 63.63 97.21 64.14 95.54 64.40 94.71 C 64.83 93.92 65.23 93.11 65.65 92.31 C 70.20 89.89 68.95 82.96 73.66 80.73 Z" />
</g>
<g id="#809ec7ff">
<path fill="#809ec7" opacity="1.00" d=" M 134.72 83.33 C 139.83 82.06 144.86 80.47 149.75 78.51 C 151.43 80.37 152.14 82.81 152.69 85.20 C 147.48 87.17 141.91 87.73 136.49 88.86 C 136.42 88.59 136.30 88.06 136.23 87.79 C 135.85 86.26 135.32 84.78 134.72 83.33 Z" />
</g>
<g id="#98bcdcff">
<path fill="#98bcdc" opacity="1.00" d=" M 114.40 81.82 C 115.76 81.66 117.12 81.50 118.48 81.33 C 117.60 83.38 116.81 85.46 116.18 87.60 C 115.24 88.19 114.31 88.78 113.38 89.37 C 112.23 89.33 111.07 89.29 109.92 89.25 C 110.62 87.42 111.33 85.59 112.23 83.84 C 112.92 83.13 113.65 82.46 114.40 81.82 Z" />
</g>
<g id="#43576dff">
<path fill="#43576d" opacity="1.00" d=" M 58.39 82.74 C 59.08 84.18 59.78 85.62 60.48 87.07 C 60.30 87.96 59.93 89.75 59.74 90.64 C 58.66 94.22 55.82 96.78 52.86 98.86 C 56.06 94.04 57.67 88.44 58.39 82.74 Z" />
</g>
<g id="#7d9abfff">
<path fill="#7d9abf" opacity="1.00" d=" M 133.70 84.00 C 134.33 86.41 134.79 88.86 135.14 91.32 C 130.85 94.55 125.36 95.06 120.42 96.78 L 119.62 97.05 C 119.17 96.46 118.28 95.27 117.83 94.68 C 118.34 93.45 118.85 92.23 119.32 90.98 C 122.67 89.73 126.17 88.98 129.59 87.94 C 131.32 87.10 132.38 85.34 133.70 84.00 Z" />
</g>
<g id="#708ab2ff">
<path fill="#708ab2" opacity="1.00" d=" M 152.69 85.20 C 152.95 86.71 153.13 88.23 153.27 89.75 C 148.24 91.92 143.00 94.21 137.38 93.62 C 137.10 92.03 136.81 90.44 136.49 88.86 C 141.91 87.73 147.48 87.17 152.69 85.20 Z" />
</g>
<g id="#fbfbdbff">
<path fill="#fbfbdb" opacity="1.00" d=" M 32.43 90.42 C 32.86 89.14 33.30 87.86 33.73 86.57 C 34.40 87.02 35.73 87.93 36.40 88.38 C 37.07 88.82 37.75 89.25 38.44 89.66 C 38.91 91.45 39.35 93.24 39.77 95.05 C 37.93 94.57 36.07 94.04 34.55 92.84 C 33.84 92.04 33.13 91.23 32.43 90.42 Z" />
</g>
<g id="#e7e7cfff">
<path fill="#e7e7cf" opacity="1.00" d=" M 39.18 88.45 C 39.67 88.02 40.65 87.16 41.15 86.73 C 42.07 87.41 43.00 88.08 43.93 88.75 C 43.64 90.95 43.17 93.13 42.36 95.20 C 40.01 93.62 38.81 91.27 39.18 88.45 Z" />
</g>
<g id="#fff4c7ff">
<path fill="#fff4c7" opacity="1.00" d=" M 73.84 101.92 C 73.63 96.43 77.06 91.45 81.09 88.09 C 86.80 87.06 92.93 87.58 98.39 89.55 C 102.56 92.79 104.93 98.71 103.03 103.85 C 97.10 104.48 91.11 104.08 85.20 104.85 C 81.77 104.55 78.41 103.81 75.09 102.93 C 74.55 102.79 73.45 102.52 72.91 102.38 C 73.14 102.27 73.61 102.03 73.84 101.92 Z" />
</g>
<g id="#ffffe1ff">
<path fill="#ffffe1" opacity="1.00" d=" M 113.38 89.37 C 114.31 88.78 115.24 88.19 116.18 87.60 C 116.68 87.79 117.68 88.17 118.18 88.35 C 118.35 88.89 118.71 89.95 118.89 90.48 C 116.60 91.95 114.28 93.40 111.96 94.83 C 111.54 94.51 110.71 93.87 110.29 93.55 C 109.66 93.80 108.39 94.29 107.76 94.54 C 108.65 91.96 111.26 90.77 113.38 89.37 Z" />
</g>
<g id="#60789cff">
<path fill="#60789c" opacity="1.00" d=" M 136.23 87.79 C 136.30 88.06 136.42 88.59 136.49 88.86 C 136.81 90.44 137.10 92.03 137.38 93.62 C 143.00 94.21 148.24 91.92 153.27 89.75 C 153.26 94.69 150.35 98.77 147.67 102.65 C 144.57 103.83 141.37 105.08 138.01 105.12 C 134.26 104.98 130.71 103.66 127.05 103.00 C 126.16 102.82 125.24 102.89 124.35 102.90 C 124.09 102.91 123.58 102.93 123.33 102.94 L 122.95 102.96 C 121.59 102.65 120.25 102.31 118.91 101.93 C 118.46 101.76 117.55 101.41 117.10 101.24 C 118.21 99.76 119.32 98.28 120.42 96.78 C 125.36 95.06 130.85 94.55 135.14 91.32 C 134.91 95.27 132.50 98.51 130.65 101.84 C 136.11 99.43 136.71 93.00 136.23 87.79 Z" />
</g>
<g id="#afae96ff">
<path fill="#afae96" opacity="1.00" d=" M 59.74 90.64 C 61.17 90.27 62.59 89.90 64.02 89.54 C 63.69 91.56 63.37 93.59 63.09 95.62 C 61.14 97.16 59.60 99.13 57.84 100.87 C 57.63 100.90 57.22 100.97 57.02 101.01 C 55.57 100.35 54.16 99.63 52.70 99.00 L 52.86 98.86 C 55.82 96.78 58.66 94.22 59.74 90.64 Z" />
</g>
<g id="#9e8466ff">
<path fill="#9e8466" opacity="1.00" d=" M 168.04 91.35 C 169.46 90.16 170.89 88.97 172.32 87.79 C 172.79 88.93 173.24 90.08 173.68 91.23 C 175.47 99.87 177.01 108.67 176.96 117.53 C 176.78 119.74 176.60 121.96 176.70 124.18 C 176.32 122.95 175.95 121.71 175.60 120.47 C 175.60 120.28 175.59 119.89 175.59 119.69 C 176.06 115.55 174.13 111.74 172.95 107.89 C 171.22 102.40 169.59 96.89 168.04 91.35 Z" />
</g>
<g id="#86a3c6ff">
<path fill="#86a3c6" opacity="1.00" d=" M 28.49 90.46 C 29.80 90.45 31.11 90.43 32.43 90.42 C 33.13 91.23 33.84 92.04 34.55 92.84 L 34.35 93.49 C 33.76 95.03 33.66 96.66 33.75 98.29 L 33.56 99.64 C 31.09 97.90 28.00 96.37 27.06 93.26 C 27.54 92.32 28.01 91.39 28.49 90.46 Z" />
</g>
<g id="#b4b3aeff">
<path fill="#b4b3ae" opacity="1.00" d=" M 164.11 95.33 C 165.01 94.47 165.91 93.62 166.77 92.73 C 168.98 99.83 171.73 106.75 173.76 113.91 C 173.28 116.59 173.21 119.31 173.11 122.02 C 172.94 126.35 171.81 130.74 172.92 135.04 C 173.56 138.27 175.09 141.23 176.90 143.96 C 176.58 144.31 175.93 145.02 175.61 145.38 C 175.14 145.87 174.21 146.86 173.74 147.35 C 172.45 143.54 172.11 139.12 169.18 136.10 C 171.20 128.23 170.93 120.06 170.60 112.01 C 170.40 109.85 170.39 107.00 168.10 105.92 C 164.34 103.89 159.75 105.03 155.94 103.04 C 159.29 101.20 161.67 98.17 164.11 95.33 Z" />
</g>
<g id="#ecdac4ff">
<path fill="#ecdac4" opacity="1.00" d=" M 33.75 98.29 C 33.66 96.66 33.76 95.03 34.35 93.49 C 36.07 94.31 37.74 95.22 39.46 96.05 C 39.32 96.73 39.05 98.08 38.91 98.76 C 37.24 98.95 35.57 99.15 33.89 99.33 L 33.75 98.29 Z" />
</g>
<g id="#e8e2beff">
<path fill="#e8e2be" opacity="1.00" d=" M 112.51 96.21 C 114.31 95.80 116.06 95.22 117.83 94.68 C 118.28 95.27 119.17 96.46 119.62 97.05 C 117.32 97.80 114.89 98.65 113.43 100.71 C 112.38 102.20 110.64 102.88 108.94 103.34 C 109.07 100.81 109.44 98.28 110.39 95.91 C 110.92 95.99 111.98 96.14 112.51 96.21 Z" />
</g>
<g id="#484235ff">
<path fill="#484235" opacity="1.00" d=" M 153.49 103.70 C 157.69 101.82 160.62 98.18 164.11 95.33 C 161.67 98.17 159.29 101.20 155.94 103.04 C 153.62 104.21 151.26 105.28 148.93 106.44 C 149.16 107.08 149.39 107.72 149.63 108.36 C 151.05 112.43 153.02 116.26 154.75 120.20 C 156.24 123.63 157.47 127.16 158.42 130.77 C 157.21 129.65 156.01 128.51 154.82 127.37 C 152.39 128.43 149.98 129.52 147.56 130.61 C 140.02 133.97 131.86 135.57 123.89 137.57 L 123.45 137.64 C 112.37 139.64 101.09 139.79 89.88 139.15 C 90.43 138.69 91.52 137.78 92.07 137.32 C 104.32 138.13 116.70 137.34 128.71 134.73 C 133.57 133.55 138.35 132.08 143.03 130.29 C 147.13 128.89 151.07 127.03 154.70 124.63 C 152.22 118.79 150.17 112.77 147.47 107.02 C 145.90 107.54 144.33 108.08 142.75 108.55 L 141.68 108.75 C 135.37 108.92 129.38 106.57 124.35 102.90 C 125.24 102.89 126.16 102.82 127.05 103.00 C 130.02 105.25 133.64 106.18 137.24 106.88 C 142.83 108.46 148.50 106.06 153.49 103.70 Z" />
</g>
<g id="#cdc3a0ff">
<path fill="#cdc3a0" opacity="1.00" d=" M 113.43 100.71 C 114.89 98.65 117.32 97.80 119.62 97.05 L 120.42 96.78 C 119.32 98.28 118.21 99.76 117.10 101.24 C 117.55 101.41 118.46 101.76 118.91 101.93 C 108.56 104.76 97.73 107.12 86.98 105.09 C 94.33 105.55 101.80 105.29 108.94 103.34 C 110.64 102.88 112.38 102.20 113.43 100.71 Z" />
</g>
<g id="#e6dbb6ff">
<path fill="#e6dbb6" opacity="1.00" d=" M 50.76 103.41 C 54.92 103.42 58.72 101.75 61.77 99.00 C 64.02 100.49 66.39 101.78 68.88 102.83 C 65.61 104.37 62.19 105.84 59.66 108.52 C 57.35 110.93 54.06 111.92 51.28 113.63 C 50.82 110.25 50.09 106.82 50.76 103.41 Z" />
</g>
<g id="#fffff2ff">
<path fill="#fffff2" opacity="1.00" d=" M 43.11 101.05 C 44.15 100.85 45.19 100.62 46.22 100.37 C 46.57 100.84 46.92 101.32 47.26 101.80 C 46.57 103.90 45.88 106.00 45.21 108.11 C 44.99 107.50 44.55 106.28 44.33 105.67 C 43.82 104.15 43.50 102.59 43.11 101.05 Z" />
</g>
<g id="#c1c0b0ff">
<path fill="#c1c0b0" opacity="1.00" d=" M 49.12 100.90 C 49.79 101.17 51.13 101.71 51.80 101.99 L 50.76 103.41 C 50.09 106.82 50.82 110.25 51.28 113.63 C 51.35 114.29 51.51 115.59 51.59 116.25 C 51.49 119.62 51.52 123.01 52.15 126.34 C 50.53 123.92 48.91 121.49 47.40 119.00 C 48.35 113.00 48.46 106.92 49.12 100.90 Z" />
</g>
<g id="#887858ff">
<path fill="#887858" opacity="1.00" d=" M 86.98 105.09 C 97.73 107.12 108.56 104.76 118.91 101.93 C 120.25 102.31 121.59 102.65 122.95 102.96 C 118.64 105.73 113.42 105.97 108.53 106.87 C 101.21 108.13 93.77 107.51 86.39 107.67 C 82.09 107.22 77.77 106.51 73.71 104.96 L 72.25 104.33 C 72.96 103.98 74.38 103.28 75.09 102.93 C 78.41 103.81 81.77 104.55 85.20 104.85 C 85.64 104.91 86.54 105.03 86.98 105.09 Z" />
</g>
<g id="#f2e7c4ff">
<path fill="#f2e7c4" opacity="1.00" d=" M 68.88 102.83 C 70.01 103.32 71.12 103.84 72.25 104.33 L 73.71 104.96 C 71.51 106.64 68.93 107.95 67.16 110.13 C 65.57 113.14 63.88 116.10 62.33 119.14 C 61.42 120.35 63.20 121.28 64.00 121.88 C 74.26 128.16 87.59 128.16 98.43 123.37 C 102.29 121.93 104.48 118.25 106.83 115.12 C 105.43 113.01 104.03 110.89 102.64 108.77 C 105.34 108.47 108.02 108.03 110.70 107.61 C 112.41 109.87 114.13 112.11 115.89 114.34 C 114.55 118.64 113.63 123.95 109.25 126.26 C 101.72 131.10 92.48 130.63 83.97 131.99 C 78.52 132.97 72.99 132.36 67.60 131.34 C 60.62 128.77 53.66 123.75 51.59 116.25 C 51.51 115.59 51.35 114.29 51.28 113.63 C 54.06 111.92 57.35 110.93 59.66 108.52 C 62.19 105.84 65.61 104.37 68.88 102.83 Z" />
</g>
<g id="#d5cbb0ff">
<path fill="#d5cbb0" opacity="1.00" d=" M 108.53 106.87 C 113.42 105.97 118.64 105.73 122.95 102.96 L 123.33 102.94 C 123.12 103.41 122.70 104.34 122.49 104.81 C 125.64 107.19 129.91 109.23 130.54 113.58 C 131.24 117.43 132.04 122.04 129.26 125.29 C 126.41 128.96 122.81 132.17 118.62 134.23 C 113.09 136.27 107.08 135.98 101.28 135.80 C 107.96 132.08 116.26 130.72 121.19 124.35 C 123.14 120.75 124.11 116.22 122.58 112.28 C 121.43 109.99 119.33 108.14 116.95 107.19 C 114.86 106.90 112.77 107.34 110.70 107.61 C 108.02 108.03 105.34 108.47 102.64 108.77 C 97.21 109.37 91.64 109.38 86.39 107.67 C 93.77 107.51 101.21 108.13 108.53 106.87 Z" />
</g>
<g id="#c7bfa6ff">
<path fill="#c7bfa6" opacity="1.00" d=" M 123.33 102.94 C 123.58 102.93 124.09 102.91 124.35 102.90 C 129.38 106.57 135.37 108.92 141.68 108.75 C 137.12 112.60 140.00 119.06 138.10 124.02 C 136.79 128.86 132.78 132.17 128.71 134.73 C 116.70 137.34 104.32 138.13 92.07 137.32 C 89.69 136.77 87.34 136.08 84.94 135.64 C 90.38 136.02 95.84 135.81 101.28 135.80 C 107.08 135.98 113.09 136.27 118.62 134.23 C 122.81 132.17 126.41 128.96 129.26 125.29 C 132.04 122.04 131.24 117.43 130.54 113.58 C 129.91 109.23 125.64 107.19 122.49 104.81 C 122.70 104.34 123.12 103.41 123.33 102.94 Z" />
</g>
<g id="#a6a49aff">
<path fill="#a6a49a" opacity="1.00" d=" M 148.93 106.44 C 151.26 105.28 153.62 104.21 155.94 103.04 C 159.75 105.03 164.34 103.89 168.10 105.92 C 170.39 107.00 170.40 109.85 170.60 112.01 C 170.93 120.06 171.20 128.23 169.18 136.10 C 168.12 135.36 167.06 134.64 165.95 134.00 C 167.34 128.43 168.07 122.07 165.09 116.91 C 160.42 113.38 155.15 110.39 149.63 108.36 C 149.39 107.72 149.16 107.08 148.93 106.44 Z" />
</g>
<g id="#fff4cdff">
<path fill="#fff4cd" opacity="1.00" d=" M 73.71 104.96 C 77.77 106.51 82.09 107.22 86.39 107.67 C 91.64 109.38 97.21 109.37 102.64 108.77 C 104.03 110.89 105.43 113.01 106.83 115.12 C 104.48 118.25 102.29 121.93 98.43 123.37 C 87.59 128.16 74.26 128.16 64.00 121.88 C 63.20 121.28 61.42 120.35 62.33 119.14 C 63.88 116.10 65.57 113.14 67.16 110.13 C 68.93 107.95 71.51 106.64 73.71 104.96 Z" />
</g>
<g id="#e3d9baff">
<path fill="#e3d9ba" opacity="1.00" d=" M 110.70 107.61 C 112.77 107.34 114.86 106.90 116.95 107.19 C 119.33 108.14 121.43 109.99 122.58 112.28 C 124.11 116.22 123.14 120.75 121.19 124.35 C 116.26 130.72 107.96 132.08 101.28 135.80 C 95.84 135.81 90.38 136.02 84.94 135.64 C 79.01 134.92 73.19 133.47 67.60 131.34 C 72.99 132.36 78.52 132.97 83.97 131.99 C 92.48 130.63 101.72 131.10 109.25 126.26 C 113.63 123.95 114.55 118.64 115.89 114.34 C 114.13 112.11 112.41 109.87 110.70 107.61 Z" />
</g>
<g id="#a59e8bff">
<path fill="#a59e8b" opacity="1.00" d=" M 142.75 108.55 C 144.33 108.08 145.90 107.54 147.47 107.02 C 150.17 112.77 152.22 118.79 154.70 124.63 C 151.07 127.03 147.13 128.89 143.03 130.29 C 143.43 123.18 146.68 116.42 145.73 109.21 C 144.98 109.04 143.49 108.72 142.75 108.55 Z" />
</g>
<g id="#908d80ff">
<path fill="#908d80" opacity="1.00" d=" M 149.63 108.36 C 155.15 110.39 160.42 113.38 165.09 116.91 C 168.07 122.07 167.34 128.43 165.95 134.00 C 165.42 133.74 164.35 133.23 163.82 132.97 C 162.21 132.23 160.52 131.67 158.82 131.18 C 159.59 131.09 161.14 130.90 161.91 130.81 C 163.43 126.06 159.91 120.44 154.75 120.20 C 153.02 116.26 151.05 112.43 149.63 108.36 Z" />
</g>
<g id="#b8af9aff">
<path fill="#b8af9a" opacity="1.00" d=" M 141.68 108.75 L 142.75 108.55 C 143.49 108.72 144.98 109.04 145.73 109.21 C 146.68 116.42 143.43 123.18 143.03 130.29 C 138.35 132.08 133.57 133.55 128.71 134.73 C 132.78 132.17 136.79 128.86 138.10 124.02 C 140.00 119.06 137.12 112.60 141.68 108.75 Z" />
</g>
<g id="#c7c8c6ff">
<path fill="#c7c8c6" opacity="1.00" d=" M 173.11 122.02 C 173.21 119.31 173.28 116.59 173.76 113.91 C 174.37 115.84 175.01 117.76 175.59 119.69 C 175.59 119.89 175.60 120.28 175.60 120.47 C 173.46 127.96 177.74 135.14 177.37 142.65 L 176.90 143.96 C 175.09 141.23 173.56 138.27 172.92 135.04 C 171.81 130.74 172.94 126.35 173.11 122.02 Z" />
</g>
<g id="#979785ff">
<path fill="#979785" opacity="1.00" d=" M 52.15 126.34 C 51.52 123.01 51.49 119.62 51.59 116.25 C 53.66 123.75 60.62 128.77 67.60 131.34 C 73.19 133.47 79.01 134.92 84.94 135.64 C 87.34 136.08 89.69 136.77 92.07 137.32 C 91.52 137.78 90.43 138.69 89.88 139.15 L 89.24 139.66 C 76.95 137.70 63.83 134.52 55.07 125.00 C 55.10 125.42 55.15 126.24 55.17 126.66 C 54.69 127.01 53.71 127.71 53.23 128.06 C 52.96 127.63 52.42 126.77 52.15 126.34 Z" />
</g>
<g id="#584f42c9">
<path fill="#584f42" opacity="0.79" d=" M 176.96 117.53 C 178.05 121.21 178.49 125.09 178.06 128.91 C 177.64 127.32 177.16 125.75 176.70 124.18 C 176.60 121.96 176.78 119.74 176.96 117.53 Z" />
</g>
<g id="#7d7868ff">
<path fill="#7d7868" opacity="1.00" d=" M 154.75 120.20 C 159.91 120.44 163.43 126.06 161.91 130.81 C 161.14 130.90 159.59 131.09 158.82 131.18 L 156.97 130.95 C 154.61 130.61 152.33 131.39 150.21 132.34 C 149.54 131.91 148.22 131.04 147.56 130.61 C 149.98 129.52 152.39 128.43 154.82 127.37 C 156.01 128.51 157.21 129.65 158.42 130.77 C 157.47 127.16 156.24 123.63 154.75 120.20 Z" />
</g>
<g id="#dcdddbff">
<path fill="#dcdddb" opacity="1.00" d=" M 177.37 142.65 C 177.74 135.14 173.46 127.96 175.60 120.47 C 175.95 121.71 176.32 122.95 176.70 124.18 C 177.16 125.75 177.64 127.32 178.06 128.91 C 178.47 133.44 179.31 138.37 177.37 142.65 Z" />
</g>
<g id="#cec4acff">
<path fill="#cec4ac" opacity="1.00" d=" M 55.07 125.00 C 63.83 134.52 76.95 137.70 89.24 139.66 C 95.06 141.00 101.03 141.60 107.00 141.38 C 104.65 141.88 102.13 142.04 99.98 143.20 C 98.31 144.93 97.74 147.41 96.32 149.33 C 91.98 151.74 86.72 150.25 82.45 148.42 C 78.47 146.40 74.79 143.75 70.39 142.65 C 64.50 138.22 59.58 132.53 55.17 126.66 C 55.15 126.24 55.10 125.42 55.07 125.00 Z" />
</g>
<g id="#8eaec7ff">
<path fill="#8eaec7" opacity="1.00" d=" M 53.23 128.06 C 53.71 127.71 54.69 127.01 55.17 126.66 C 59.58 132.53 64.50 138.22 70.39 142.65 L 70.49 143.26 C 71.04 148.23 71.44 153.63 68.33 157.91 C 67.55 154.31 67.58 150.47 65.94 147.11 C 64.47 144.08 62.61 141.20 60.18 138.85 C 57.40 136.13 53.63 134.89 50.22 133.18 C 50.91 131.72 51.59 130.25 52.33 128.81 C 52.55 128.62 53.00 128.24 53.23 128.06 Z" />
</g>
<g id="#a3c7eaff">
<path fill="#a3c7ea" opacity="1.00" d=" M 47.43 134.43 C 48.41 132.06 49.95 129.93 52.33 128.81 C 51.59 130.25 50.91 131.72 50.22 133.18 C 53.63 134.89 57.40 136.13 60.18 138.85 C 62.61 141.20 64.47 144.08 65.94 147.11 C 67.58 150.47 67.55 154.31 68.33 157.91 C 66.31 161.19 63.53 164.42 59.62 165.37 C 57.12 164.96 54.64 164.46 52.15 163.99 C 52.53 165.66 52.95 167.34 53.25 169.03 C 53.03 169.29 52.58 169.81 52.35 170.07 L 52.23 169.89 C 51.38 167.37 52.11 164.01 49.51 162.39 C 46.19 160.04 44.74 155.98 44.43 152.07 C 44.30 146.07 45.25 140.03 47.43 134.43 M 45.31 154.49 C 46.40 150.60 46.20 146.52 45.76 142.55 C 44.57 146.42 44.95 150.53 45.31 154.49 Z" />
</g>
<g id="#9b9586ff">
<path fill="#9b9586" opacity="1.00" d=" M 123.89 137.57 C 131.86 135.57 140.02 133.97 147.56 130.61 C 148.22 131.04 149.54 131.91 150.21 132.34 C 147.90 133.41 145.66 134.62 143.39 135.75 C 138.80 137.81 134.52 140.62 131.34 144.57 C 130.23 145.89 129.14 147.23 128.02 148.54 L 127.68 148.94 C 124.77 150.89 121.79 152.79 119.36 155.34 C 117.65 156.84 116.21 158.87 113.99 159.60 C 110.00 160.39 105.89 160.02 101.90 159.43 C 108.12 158.00 113.14 153.84 117.83 149.75 C 121.97 146.04 126.06 142.27 129.79 138.15 C 127.83 137.93 125.86 137.70 123.89 137.57 Z" />
</g>
<g id="#8fb0d5ff">
<path fill="#8fb0d5" opacity="1.00" d=" M 150.21 132.34 C 152.33 131.39 154.61 130.61 156.97 130.95 C 158.98 134.56 163.10 136.13 165.53 139.35 C 168.53 144.43 168.46 151.25 165.14 156.18 C 160.72 162.89 154.19 169.15 145.75 169.75 C 144.21 169.50 142.71 169.09 141.24 168.63 C 148.74 164.41 156.51 159.25 160.14 151.12 C 162.24 147.10 160.88 142.15 158.20 138.78 C 154.15 135.16 148.36 136.29 143.39 135.75 C 145.66 134.62 147.90 133.41 150.21 132.34 Z" />
</g>
<g id="#7a97beff">
<path fill="#7a97be" opacity="1.00" d=" M 156.97 130.95 L 158.82 131.18 C 160.52 131.67 162.21 132.23 163.82 132.97 C 169.03 136.29 172.11 142.01 173.02 148.02 C 172.88 151.44 172.28 154.90 171.09 158.12 C 166.44 167.08 155.43 171.31 145.75 169.75 C 154.19 169.15 160.72 162.89 165.14 156.18 C 168.46 151.25 168.53 144.43 165.53 139.35 C 163.10 136.13 158.98 134.56 156.97 130.95 Z" />
</g>
<g id="#bab29fff">
<path fill="#bab29f" opacity="1.00" d=" M 89.88 139.15 C 101.09 139.79 112.37 139.64 123.45 137.64 C 120.30 140.81 116.30 142.98 113.23 146.23 C 109.58 149.90 105.79 153.86 100.81 155.65 C 96.13 156.03 91.62 154.11 86.94 153.99 C 84.89 153.08 82.83 152.18 80.82 151.18 C 78.40 149.21 75.90 147.33 73.38 145.48 C 72.41 144.75 71.44 144.01 70.49 143.26 L 70.39 142.65 C 74.79 143.75 78.47 146.40 82.45 148.42 C 86.72 150.25 91.98 151.74 96.32 149.33 C 97.74 147.41 98.31 144.93 99.98 143.20 C 102.13 142.04 104.65 141.88 107.00 141.38 C 101.03 141.60 95.06 141.00 89.24 139.66 L 89.88 139.15 Z" />
</g>
<g id="#aca493ff">
<path fill="#aca493" opacity="1.00" d=" M 123.45 137.64 L 123.89 137.57 C 125.86 137.70 127.83 137.93 129.79 138.15 C 126.06 142.27 121.97 146.04 117.83 149.75 C 113.14 153.84 108.12 158.00 101.90 159.43 C 96.63 158.58 91.38 157.06 86.94 153.99 C 91.62 154.11 96.13 156.03 100.81 155.65 C 105.79 153.86 109.58 149.90 113.23 146.23 C 116.30 142.98 120.30 140.81 123.45 137.64 Z" />
</g>
<g id="#abd1f5ff">
<path fill="#abd1f5" opacity="1.00" d=" M 142.38 140.59 C 145.67 140.19 150.42 137.77 152.65 141.39 C 154.00 143.11 154.95 145.08 155.96 147.00 C 152.99 152.89 149.66 159.50 143.16 162.09 C 140.72 163.24 136.82 163.31 135.75 160.30 C 134.13 156.56 131.67 151.57 135.07 148.05 C 137.52 145.61 139.40 142.37 142.38 140.59 Z" />
</g>
<g id="#b6defeff">
<path fill="#b6defe" opacity="1.00" d=" M 45.31 154.49 C 44.95 150.53 44.57 146.42 45.76 142.55 C 46.20 146.52 46.40 150.60 45.31 154.49 Z" />
</g>
<g id="#5f7594ff">
<path fill="#5f7594" opacity="1.00" d=" M 73.38 145.48 C 75.90 147.33 78.40 149.21 80.82 151.18 C 81.62 151.88 82.39 152.61 83.19 153.30 C 82.18 159.87 84.79 167.13 90.09 171.25 C 92.20 172.58 91.93 175.36 92.57 177.48 C 89.71 179.20 86.41 179.78 83.17 180.31 L 83.12 180.27 C 79.69 177.24 75.06 173.34 70.34 176.25 C 69.77 177.36 69.20 178.47 68.65 179.59 C 68.75 177.69 68.29 175.44 69.89 174.01 C 72.58 171.04 75.17 167.78 75.93 163.73 C 76.96 158.85 77.45 152.58 73.09 149.11 C 73.21 147.90 73.30 146.69 73.38 145.48 Z" />
</g>
<g id="#807b6eff">
<path fill="#807b6e" opacity="1.00" d=" M 119.36 155.34 C 121.79 152.79 124.77 150.89 127.68 148.94 C 126.72 152.04 126.20 155.33 126.87 158.55 C 122.83 158.85 118.84 159.66 115.04 161.08 C 119.24 161.34 123.44 161.33 127.64 161.31 C 127.98 162.50 128.31 163.70 128.63 164.90 C 128.10 164.90 127.02 164.91 126.48 164.91 C 118.15 161.61 109.04 161.43 100.20 161.55 C 98.45 161.33 96.82 160.53 95.24 159.80 C 91.20 157.67 86.99 155.85 83.19 153.30 C 82.39 152.61 81.62 151.88 80.82 151.18 C 82.83 152.18 84.89 153.08 86.94 153.99 C 91.38 157.06 96.63 158.58 101.90 159.43 C 105.89 160.02 110.00 160.39 113.99 159.60 C 116.21 158.87 117.65 156.84 119.36 155.34 Z" />
</g>
<g id="#8aaacbff">
<path fill="#8aaacb" opacity="1.00" d=" M 127.68 148.94 L 128.02 148.54 C 127.94 152.31 128.49 156.13 130.80 159.22 C 133.87 165.28 139.58 169.98 146.46 170.77 C 144.71 171.88 143.06 173.23 141.08 173.93 C 138.52 174.02 136.00 173.32 133.47 173.01 C 133.25 175.35 133.02 177.69 132.80 180.04 C 132.52 179.80 131.95 179.32 131.67 179.08 C 130.81 174.37 130.15 169.51 128.63 164.90 C 128.31 163.70 127.98 162.50 127.64 161.31 C 127.45 160.62 127.06 159.24 126.87 158.55 C 126.20 155.33 126.72 152.04 127.68 148.94 Z" />
</g>
<g id="#748eb0ff">
<path fill="#748eb0" opacity="1.00" d=" M 73.09 149.11 C 77.45 152.58 76.96 158.85 75.93 163.73 C 75.17 167.78 72.58 171.04 69.89 174.01 C 68.29 175.44 68.75 177.69 68.65 179.59 C 68.64 179.95 68.62 180.68 68.60 181.05 C 67.65 180.60 66.67 180.20 65.71 179.78 C 63.28 177.70 61.19 175.27 58.81 173.15 C 63.84 171.85 69.10 169.66 71.97 165.07 C 73.99 161.73 72.70 157.76 72.26 154.18 C 72.55 152.49 72.84 150.80 73.09 149.11 Z" />
</g>
<g id="#627a9eff">
<path fill="#627a9e" opacity="1.00" d=" M 170.09 162.04 C 172.86 158.90 172.52 154.49 173.66 150.69 C 174.04 154.79 174.11 158.91 174.07 163.02 C 174.11 168.40 172.31 173.66 172.73 179.02 C 170.41 180.50 168.73 182.69 167.22 184.96 C 172.01 185.26 176.80 185.42 181.59 185.35 C 180.95 184.24 180.32 183.13 179.68 182.03 C 180.68 183.14 181.52 184.38 182.32 185.64 C 176.60 186.00 170.89 185.33 165.18 185.30 C 164.99 185.64 164.60 186.31 164.41 186.65 C 163.45 181.92 158.92 178.12 154.13 177.86 C 149.61 178.35 146.22 181.65 143.07 184.60 C 144.49 180.31 148.79 178.36 151.66 175.21 C 153.23 173.53 154.89 171.91 156.89 170.75 C 161.73 168.67 167.07 166.65 170.09 162.04 Z" />
</g>
<g id="#7f9dbdff">
<path fill="#7f9dbd" opacity="1.00" d=" M 72.26 154.18 C 72.70 157.76 73.99 161.73 71.97 165.07 C 69.10 169.66 63.84 171.85 58.81 173.15 C 57.06 171.64 55.18 170.29 53.25 169.03 C 52.95 167.34 52.53 165.66 52.15 163.99 C 54.64 164.46 57.12 164.96 59.62 165.37 C 57.98 165.86 56.33 166.33 54.70 166.83 C 57.82 166.54 61.13 166.50 63.94 164.94 C 67.91 162.48 70.05 158.13 72.26 154.18 Z" />
</g>
<g id="#545144ff">
<path fill="#545144" opacity="1.00" d=" M 115.04 161.08 C 118.84 159.66 122.83 158.85 126.87 158.55 C 127.06 159.24 127.45 160.62 127.64 161.31 C 123.44 161.33 119.24 161.34 115.04 161.08 Z" />
</g>
<g id="#838374ff">
<path fill="#838374" opacity="1.00" d=" M 100.20 161.55 C 109.04 161.43 118.15 161.61 126.48 164.91 C 117.64 165.85 108.61 164.24 100.20 161.55 Z" />
</g>
<g id="#aaa79ffd">
<path fill="#aaa79f" opacity="1.00" d=" M 93.75 170.28 L 94.40 169.88 C 98.15 170.59 101.92 172.39 104.27 175.52 C 103.62 175.58 102.33 175.70 101.69 175.76 C 99.74 175.80 97.82 176.13 95.97 176.74 L 94.48 177.08 L 93.57 176.94 C 93.54 174.72 93.59 172.49 93.75 170.28 Z" />
</g>
<g id="#7e9abbff">
<path fill="#7e9abb" opacity="1.00" d=" M 146.46 170.77 C 149.92 171.26 153.44 171.34 156.89 170.75 C 154.89 171.91 153.23 173.53 151.66 175.21 C 148.79 178.36 144.49 180.31 143.07 184.60 C 142.86 184.97 142.44 185.72 142.23 186.09 C 140.83 185.89 139.42 185.74 138.01 185.69 C 136.58 183.54 134.90 181.56 132.80 180.04 C 133.02 177.69 133.25 175.35 133.47 173.01 C 136.00 173.32 138.52 174.02 141.08 173.93 C 143.06 173.23 144.71 171.88 146.46 170.77 Z" />
</g>
<g id="#fefedcff">
<path fill="#fefedc" opacity="1.00" d=" M 42.84 174.20 C 46.92 174.34 50.87 173.15 54.65 171.73 C 58.03 173.92 60.91 176.74 63.61 179.70 C 62.80 179.75 61.19 179.83 60.39 179.87 C 53.89 180.08 48.29 175.13 41.77 176.62 C 40.87 176.74 39.98 176.88 39.09 177.05 C 40.32 176.08 41.58 175.14 42.84 174.20 Z" />
</g>
<g id="#bfbfb4ff">
<path fill="#bfbfb4" opacity="1.00" d=" M 70.34 176.25 C 75.06 173.34 79.69 177.24 83.12 180.27 C 80.54 181.10 77.85 181.55 75.20 182.09 C 74.91 180.90 74.62 179.71 74.34 178.52 C 73.20 178.51 72.07 178.51 70.93 178.48 C 70.79 177.92 70.49 176.81 70.34 176.25 Z" />
</g>
<g id="#ffffefff">
<path fill="#ffffef" opacity="1.00" d=" M 41.77 176.62 C 48.29 175.13 53.89 180.08 60.39 179.87 C 52.69 180.28 44.97 181.24 37.26 180.58 C 37.29 179.94 37.36 178.67 37.39 178.03 C 37.82 177.79 38.66 177.30 39.09 177.05 C 39.98 176.88 40.87 176.74 41.77 176.62 Z" />
</g>
<g id="#4b49459c">
<path fill="#4b4945" opacity="0.61" d=" M 95.97 176.74 C 97.82 176.13 99.74 175.80 101.69 175.76 C 101.37 177.86 97.47 177.80 95.97 176.74 Z" />
</g>
<g id="#f7f7e1ff">
<path fill="#f7f7e1" opacity="1.00" d=" M 68.65 179.59 C 69.20 178.47 69.77 177.36 70.34 176.25 C 70.49 176.81 70.79 177.92 70.93 178.48 C 72.07 178.51 73.20 178.51 74.34 178.52 C 74.62 179.71 74.91 180.90 75.20 182.09 C 72.95 182.15 70.60 182.28 68.60 181.05 C 68.62 180.68 68.64 179.95 68.65 179.59 Z" />
</g>
<g id="#d0d0c6ff">
<path fill="#d0d0c6" opacity="1.00" d=" M 143.07 184.60 C 146.22 181.65 149.61 178.35 154.13 177.86 C 158.92 178.12 163.45 181.92 164.41 186.65 C 163.64 188.94 160.67 189.16 158.75 190.13 C 158.08 187.80 157.38 185.49 156.67 183.17 C 152.67 183.22 149.56 185.84 146.18 187.59 C 147.23 188.03 148.28 188.48 149.34 188.91 C 146.82 188.41 144.33 187.63 142.23 186.09 C 142.44 185.72 142.86 184.97 143.07 184.60 Z" />
</g>
<g id="#ffffe6ff">
<path fill="#ffffe6" opacity="1.00" d=" M 167.22 184.96 C 168.73 182.69 170.41 180.50 172.73 179.02 L 173.57 178.42 C 175.57 179.68 177.53 181.03 179.68 182.03 C 180.32 183.13 180.95 184.24 181.59 185.35 C 176.80 185.42 172.01 185.26 167.22 184.96 Z" />
</g>
<g id="#eae7d0ff">
<path fill="#eae7d0" opacity="1.00" d=" M 123.88 186.59 C 124.85 182.73 128.51 180.89 131.67 179.08 C 131.95 179.32 132.52 179.80 132.80 180.04 C 134.90 181.56 136.58 183.54 138.01 185.69 C 133.33 186.34 128.60 186.66 123.88 186.59 Z" />
</g>
<g id="#fefee9ff">
<path fill="#fefee9" opacity="1.00" d=" M 146.18 187.59 C 149.56 185.84 152.67 183.22 156.67 183.17 C 157.38 185.49 158.08 187.80 158.75 190.13 C 155.58 190.20 152.36 189.94 149.34 188.91 C 148.28 188.48 147.23 188.03 146.18 187.59 Z" />
</g>
</svg>
