<?xml version="1.0" encoding="UTF-8" ?>
<!DOCTYPE svg PUBLIC "-//W3C//DTD SVG 1.1//EN" "http://www.w3.org/Graphics/SVG/1.1/DTD/svg11.dtd">
<svg width="65pt" height="72pt" viewBox="0 0 65 72" version="1.1" xmlns="http://www.w3.org/2000/svg">
<g id="#8bc457fb">
<path fill="#8bc457" opacity="1.00" d=" M 11.79 7.29 C 19.79 1.49 33.05 1.33 39.07 9.88 C 38.30 9.92 36.74 10.00 35.97 10.04 C 32.00 11.36 38.37 19.40 34.45 21.50 C 29.74 25.04 23.88 21.05 20.81 17.19 C 20.71 15.77 20.59 14.33 20.72 12.90 L 21.65 12.71 C 25.69 12.58 34.46 13.68 33.53 7.87 C 33.39 4.77 29.74 6.18 27.89 6.84 C 22.81 9.11 16.35 11.94 11.79 7.29 Z" />
</g>
<g id="#ee8342fd">
<path fill="#ee8342" opacity="1.00" d=" M 5.18 4.23 C 7.43 5.15 9.63 6.17 11.79 7.29 C 16.35 11.94 22.81 9.11 27.89 6.84 C 29.74 6.18 33.39 4.77 33.53 7.87 C 30.76 11.50 25.51 10.94 21.65 12.71 L 20.72 12.90 C 19.00 12.92 17.76 13.84 16.92 15.30 L 16.37 14.79 C 14.40 12.27 11.30 11.46 8.35 10.67 C 6.58 10.09 4.82 9.50 3.10 8.79 C 2.45 6.82 3.76 5.36 5.18 4.23 Z" />
</g>
<g id="#c57635ff">
<path fill="#c57635" opacity="1.00" d=" M 33.53 7.87 C 34.46 13.68 25.69 12.58 21.65 12.71 C 25.51 10.94 30.76 11.50 33.53 7.87 Z" />
</g>
<g id="#7fa846ff">
<path fill="#7fa846" opacity="1.00" d=" M 34.45 21.50 C 38.37 19.40 32.00 11.36 35.97 10.04 C 35.88 13.71 35.79 17.44 36.98 20.96 C 37.08 21.39 37.28 22.25 37.38 22.67 C 34.35 26.00 29.47 25.19 25.94 23.12 C 26.30 24.81 28.04 30.93 24.94 29.15 C 26.10 21.77 11.71 20.95 11.99 28.03 L 11.92 29.03 C 9.97 28.05 8.69 26.11 8.12 24.05 C 9.44 21.44 12.21 20.73 14.69 19.66 C 15.58 18.17 16.01 16.48 16.37 14.79 L 16.92 15.30 C 16.23 18.54 18.62 18.11 20.81 17.19 C 23.88 21.05 29.74 25.04 34.45 21.50 Z" />
</g>
<g id="#b5ae6afc">
<path fill="#b5ae6a" opacity="1.00" d=" M 35.97 10.04 C 36.74 10.00 38.30 9.92 39.07 9.88 C 41.05 10.48 41.53 13.18 42.09 14.97 C 40.63 13.79 39.52 12.25 38.16 10.97 C 36.10 14.79 37.81 20.49 41.74 22.36 L 41.96 23.12 L 40.98 23.21 C 39.56 22.63 38.25 21.81 36.98 20.96 C 35.79 17.44 35.88 13.71 35.97 10.04 Z" />
</g>
<g id="#8fc256fb">
<path fill="#8fc256" opacity="1.00" d=" M 8.35 10.67 C 11.30 11.46 14.40 12.27 16.37 14.79 C 16.01 16.48 15.58 18.17 14.69 19.66 C 12.21 20.73 9.44 21.44 8.12 24.05 C 6.75 19.74 6.20 14.80 8.35 10.67 Z" />
</g>
<g id="#191910f7">
<path fill="#191910" opacity="0.97" d=" M 38.16 10.97 C 39.52 12.25 40.63 13.79 42.09 14.97 C 43.50 16.13 44.02 21.89 41.74 22.36 C 37.81 20.49 36.10 14.79 38.16 10.97 Z" />
</g>
<g id="#ba5d2aff">
<path fill="#ba5d2a" opacity="1.00" d=" M 16.92 15.30 C 17.76 13.84 19.00 12.92 20.72 12.90 C 20.59 14.33 20.71 15.77 20.81 17.19 C 18.62 18.11 16.23 18.54 16.92 15.30 Z" />
</g>
<g id="#597e2cff">
<path fill="#597e2c" opacity="1.00" d=" M 36.98 20.96 C 38.25 21.81 39.56 22.63 40.98 23.21 C 40.21 24.68 39.51 26.19 38.88 27.72 C 36.83 29.07 34.88 30.55 33.12 32.26 C 31.52 31.28 30.17 28.32 28.11 30.05 C 28.07 28.68 28.06 27.30 28.09 25.93 C 29.78 26.44 31.36 27.26 33.04 27.83 C 35.23 27.17 38.92 25.47 37.38 22.67 C 37.28 22.25 37.08 21.39 36.98 20.96 Z" />
</g>
<g id="#88c85bff">
<path fill="#88c85b" opacity="1.00" d=" M 11.99 28.03 C 11.71 20.95 26.10 21.77 24.94 29.15 C 23.11 27.93 21.11 26.86 18.83 27.00 C 20.44 28.70 24.25 28.99 23.96 31.84 C 20.63 32.25 15.93 34.82 13.71 31.28 C 12.09 29.86 14.44 28.27 14.90 26.86 C 13.92 27.22 12.95 27.60 11.99 28.03 Z" />
</g>
<g id="#72943efc">
<path fill="#72943e" opacity="1.00" d=" M 25.94 23.12 C 29.47 25.19 34.35 26.00 37.38 22.67 C 38.92 25.47 35.23 27.17 33.04 27.83 C 31.36 27.26 29.78 26.44 28.09 25.93 C 28.06 27.30 28.07 28.68 28.11 30.05 C 27.18 32.15 23.40 30.76 26.08 33.31 C 24.45 34.28 22.69 35.02 20.82 35.42 C 19.27 35.09 17.74 34.68 16.19 34.36 C 14.90 37.51 13.56 40.66 12.78 43.98 C 8.97 40.25 11.87 33.78 11.92 29.03 L 11.99 28.03 C 12.95 27.60 13.92 27.22 14.90 26.86 C 14.44 28.27 12.09 29.86 13.71 31.28 C 15.93 34.82 20.63 32.25 23.96 31.84 C 24.25 28.99 20.44 28.70 18.83 27.00 C 21.11 26.86 23.11 27.93 24.94 29.15 C 28.04 30.93 26.30 24.81 25.94 23.12 Z" />
</g>
<g id="#689d28ed">
<path fill="#689d28" opacity="0.93" d=" M 40.98 23.21 L 41.96 23.12 C 41.64 24.80 41.13 26.43 40.72 28.08 C 40.26 27.99 39.34 27.81 38.88 27.72 C 39.51 26.19 40.21 24.68 40.98 23.21 Z" />
</g>
<g id="#708b30fe">
<path fill="#708b30" opacity="1.00" d=" M 33.12 32.26 C 34.88 30.55 36.83 29.07 38.88 27.72 C 41.05 30.90 35.83 32.33 35.25 35.31 C 33.30 40.58 37.61 43.52 41.97 43.90 C 40.97 45.44 40.04 47.00 39.77 48.85 C 36.81 46.81 34.46 53.11 36.00 54.93 C 35.66 56.94 38.95 55.65 40.14 56.21 C 39.58 57.20 38.96 58.16 38.28 59.07 C 37.54 57.81 36.61 56.83 35.20 57.84 C 34.93 56.55 34.71 55.21 33.92 54.12 C 33.33 53.08 32.65 52.11 31.99 51.13 C 33.07 49.77 34.07 47.95 36.10 48.46 C 35.63 47.53 35.03 46.66 34.45 45.79 L 34.15 44.86 C 34.05 44.18 33.85 42.83 33.76 42.15 C 33.26 39.49 32.63 36.86 32.07 34.22 C 32.33 33.73 32.86 32.75 33.12 32.26 Z" />
</g>
<g id="#78a044f9">
<path fill="#78a044" opacity="0.98" d=" M 38.88 27.72 C 39.34 27.81 40.26 27.99 40.72 28.08 C 41.58 29.37 43.40 31.08 42.68 32.66 C 40.78 35.08 39.70 38.15 40.09 41.24 C 41.28 39.55 42.03 37.61 42.86 35.73 C 45.18 37.03 42.83 41.64 41.97 43.90 C 37.61 43.52 33.30 40.58 35.25 35.31 C 35.83 32.33 41.05 30.90 38.88 27.72 Z" />
</g>
<g id="#36350fff">
<path fill="#36350f" opacity="1.00" d=" M 28.11 30.05 C 30.17 28.32 31.52 31.28 33.12 32.26 C 32.86 32.75 32.33 33.73 32.07 34.22 C 30.16 33.45 28.15 32.92 26.08 33.31 C 23.40 30.76 27.18 32.15 28.11 30.05 Z" />
</g>
<g id="#d1a340ff">
<path fill="#d1a340" opacity="1.00" d=" M 26.08 33.31 C 28.15 32.92 30.16 33.45 32.07 34.22 C 32.63 36.86 33.26 39.49 33.76 42.15 C 32.63 42.09 31.51 42.01 30.39 41.91 C 30.57 40.66 30.83 39.43 30.90 38.18 C 28.16 35.68 24.19 36.32 20.82 35.42 C 22.69 35.02 24.45 34.28 26.08 33.31 Z" />
</g>
<g id="#b5c76bff">
<path fill="#b5c76b" opacity="1.00" d=" M 40.09 41.24 C 39.70 38.15 40.78 35.08 42.68 32.66 C 42.72 33.43 42.81 34.96 42.86 35.73 C 42.03 37.61 41.28 39.55 40.09 41.24 Z" />
</g>
<g id="#e4c660ff">
<path fill="#e4c660" opacity="1.00" d=" M 16.19 34.36 C 17.74 34.68 19.27 35.09 20.82 35.42 C 24.19 36.32 28.16 35.68 30.90 38.18 C 30.83 39.43 30.57 40.66 30.39 41.91 C 31.51 42.01 32.63 42.09 33.76 42.15 C 33.85 42.83 34.05 44.18 34.15 44.86 C 32.60 45.65 31.12 46.65 29.37 46.94 C 26.53 45.03 23.74 48.13 20.83 48.33 C 20.38 48.28 19.50 48.16 19.05 48.10 C 18.83 47.80 18.38 47.20 18.16 46.90 C 18.75 45.43 19.30 43.76 17.43 43.04 C 16.92 44.30 16.62 45.73 15.36 46.49 C 14.14 45.97 13.28 45.14 12.78 43.98 C 13.56 40.66 14.90 37.51 16.19 34.36 Z" />
</g>
<g id="#e2df7df3">
<path fill="#e2df7d" opacity="0.95" d=" M 51.27 41.28 C 52.85 40.20 55.84 41.72 54.70 43.72 C 52.82 48.21 49.27 51.97 44.81 53.91 L 44.03 54.11 C 46.23 49.83 46.78 43.66 51.27 41.28 Z" />
</g>
<g id="#bea248ff">
<path fill="#bea248" opacity="1.00" d=" M 17.43 43.04 C 19.30 43.76 18.75 45.43 18.16 46.90 C 17.59 46.92 16.45 46.96 15.88 46.98 L 14.83 46.99 L 15.36 46.49 C 16.62 45.73 16.92 44.30 17.43 43.04 Z" />
</g>
<g id="#b08f37ff">
<path fill="#b08f37" opacity="1.00" d=" M 29.37 46.94 C 31.12 46.65 32.60 45.65 34.15 44.86 L 34.45 45.79 C 33.00 47.25 31.37 48.49 29.83 49.85 C 26.53 49.92 23.22 50.03 19.92 49.80 C 19.70 49.37 19.27 48.52 19.05 48.10 C 19.50 48.16 20.38 48.28 20.83 48.33 C 23.91 49.34 26.72 48.34 29.37 46.94 Z" />
</g>
<g id="#c8a24dff">
<path fill="#c8a24d" opacity="1.00" d=" M 20.83 48.33 C 23.74 48.13 26.53 45.03 29.37 46.94 C 26.72 48.34 23.91 49.34 20.83 48.33 Z" />
</g>
<g id="#524c18ff">
<path fill="#524c18" opacity="1.00" d=" M 34.45 45.79 C 35.03 46.66 35.63 47.53 36.10 48.46 C 34.07 47.95 33.07 49.77 31.99 51.13 C 31.45 50.81 30.37 50.17 29.83 49.85 C 31.37 48.49 33.00 47.25 34.45 45.79 Z" />
</g>
<g id="#52591fc3">
<path fill="#52591f" opacity="0.76" d=" M 15.88 46.98 C 16.45 46.96 17.59 46.92 18.16 46.90 C 18.38 47.20 18.83 47.80 19.05 48.10 C 19.27 48.52 19.70 49.37 19.92 49.80 C 19.21 50.49 18.66 51.28 18.25 52.18 C 17.87 53.18 17.46 54.18 17.02 55.17 C 16.17 52.17 19.47 48.42 15.88 46.98 Z" />
</g>
<g id="#7b9743f6">
<path fill="#7b9743" opacity="0.96" d=" M 36.00 54.93 C 34.46 53.11 36.81 46.81 39.77 48.85 C 41.54 50.37 41.00 52.88 40.97 54.95 C 40.76 55.26 40.35 55.89 40.14 56.21 C 38.95 55.65 35.66 56.94 36.00 54.93 Z" />
</g>
<g id="#d3a742ff">
<path fill="#d3a742" opacity="1.00" d=" M 18.25 52.18 C 18.66 51.28 19.21 50.49 19.92 49.80 C 23.22 50.03 26.53 49.92 29.83 49.85 C 30.37 50.17 31.45 50.81 31.99 51.13 C 32.65 52.11 33.33 53.08 33.92 54.12 C 29.24 51.39 23.44 50.28 18.25 52.18 Z" />
</g>
<g id="#dabd5dfc">
<path fill="#dabd5d" opacity="1.00" d=" M 18.25 52.18 C 23.44 50.28 29.24 51.39 33.92 54.12 C 34.71 55.21 34.93 56.55 35.20 57.84 C 34.88 58.33 34.25 59.31 33.93 59.80 C 33.00 59.70 32.06 59.64 31.11 59.64 C 28.50 59.16 26.16 60.80 24.07 62.14 C 24.04 65.08 29.62 64.22 29.05 68.01 C 24.43 68.83 23.12 63.18 20.91 60.34 C 18.34 61.49 15.35 57.34 17.02 55.17 C 17.46 54.18 17.87 53.18 18.25 52.18 M 22.23 52.18 C 18.66 54.00 20.99 57.29 22.27 59.84 C 25.87 60.88 30.00 57.96 29.94 54.17 C 27.74 52.73 24.89 51.64 22.23 52.18 Z" />
</g>
<g id="#e9cd67ff">
<path fill="#e9cd67" opacity="1.00" d=" M 22.23 52.18 C 24.89 51.64 27.74 52.73 29.94 54.17 C 30.00 57.96 25.87 60.88 22.27 59.84 C 20.99 57.29 18.66 54.00 22.23 52.18 Z" />
</g>
<g id="#8dbe50f9">
<path fill="#8dbe50" opacity="0.98" d=" M 40.97 54.95 C 41.99 54.67 43.01 54.39 44.03 54.11 L 44.81 53.91 C 44.08 55.50 44.63 57.11 44.71 58.75 C 43.83 60.82 42.21 62.40 40.73 64.05 C 38.84 63.33 37.67 61.98 37.81 59.85 L 38.28 59.07 C 38.96 58.16 39.58 57.20 40.14 56.21 C 40.35 55.89 40.76 55.26 40.97 54.95 Z" />
</g>
<g id="#5f7226ff">
<path fill="#5f7226" opacity="1.00" d=" M 35.20 57.84 C 36.61 56.83 37.54 57.81 38.28 59.07 L 37.81 59.85 C 36.19 61.65 37.63 64.02 38.05 66.01 C 36.72 66.32 35.42 66.71 34.10 67.02 C 36.46 64.78 35.56 62.19 33.93 59.80 C 34.25 59.31 34.88 58.33 35.20 57.84 Z" />
</g>
<g id="#c2aa50fe">
<path fill="#c2aa50" opacity="1.00" d=" M 24.07 62.14 C 26.16 60.80 28.50 59.16 31.11 59.64 C 30.15 60.61 29.11 61.50 28.23 62.55 C 29.82 63.84 34.88 66.26 31.05 67.84 C 32.11 68.11 33.17 68.39 34.22 68.67 C 32.71 68.51 29.40 70.10 29.05 68.01 C 29.62 64.22 24.04 65.08 24.07 62.14 Z" />
</g>
<g id="#a5973ffb">
<path fill="#a5973f" opacity="1.00" d=" M 31.11 59.64 C 32.06 59.64 33.00 59.70 33.93 59.80 C 35.56 62.19 36.46 64.78 34.10 67.02 C 35.42 66.71 36.72 66.32 38.05 66.01 L 39.01 65.92 C 38.63 68.14 35.98 68.19 34.22 68.67 C 33.17 68.39 32.11 68.11 31.05 67.84 C 34.88 66.26 29.82 63.84 28.23 62.55 C 29.11 61.50 30.15 60.61 31.11 59.64 Z" />
</g>
<g id="#75a231fc">
<path fill="#75a231" opacity="1.00" d=" M 38.05 66.01 C 37.63 64.02 36.19 61.65 37.81 59.85 C 37.67 61.98 38.84 63.33 40.73 64.05 C 40.86 65.19 40.29 65.81 39.01 65.92 L 38.05 66.01 Z" />
</g>
</svg>
