<?xml version="1.0" encoding="UTF-8" ?>
<!DOCTYPE svg PUBLIC "-//W3C//DTD SVG 1.1//EN" "http://www.w3.org/Graphics/SVG/1.1/DTD/svg11.dtd">
<svg width="77pt" height="125pt" viewBox="0 0 77 125" version="1.1" xmlns="http://www.w3.org/2000/svg">
<g id="#a4e74dff">
<path fill="#a4e74d" opacity="1.00" d=" M 27.99 4.74 C 31.25 4.01 35.42 4.13 36.36 8.10 C 34.89 10.61 33.34 13.29 30.61 14.59 C 28.05 16.26 24.30 17.03 23.37 20.36 C 22.39 23.51 22.91 26.87 22.33 30.09 C 21.45 34.29 23.82 38.44 22.68 42.62 C 21.94 47.50 18.59 51.29 16.61 55.66 C 14.94 58.82 14.05 62.62 10.97 64.79 C 10.98 64.23 11.00 63.10 11.01 62.54 C 13.21 56.15 13.96 49.36 15.93 42.89 C 16.12 35.88 20.27 29.87 20.92 22.97 C 20.75 22.53 20.40 21.66 20.22 21.23 C 21.21 17.51 21.67 13.62 23.30 10.10 C 24.04 10.61 24.78 11.11 25.53 11.61 C 27.51 8.48 29.95 5.37 34.06 5.50 C 32.03 5.28 30.01 5.02 27.99 4.74 Z" />
<path fill="#a4e74d" opacity="1.00" d=" M 18.36 99.36 C 19.56 99.40 20.76 99.53 21.95 99.72 C 23.52 101.41 24.24 103.63 25.41 105.57 C 27.37 107.51 29.84 108.87 31.79 110.84 L 30.06 111.21 C 28.24 110.27 26.47 109.17 25.02 107.70 C 24.18 106.73 23.28 105.83 22.31 104.99 C 20.74 103.31 19.59 101.29 18.36 99.36 Z" />
</g>
<g id="#b0e752f4">
<path fill="#b0e752" opacity="0.96" d=" M 23.30 10.10 C 24.70 8.17 26.19 6.31 27.99 4.74 C 30.01 5.02 32.03 5.28 34.06 5.50 C 29.95 5.37 27.51 8.48 25.53 11.61 C 24.78 11.11 24.04 10.61 23.30 10.10 Z" />
</g>
<g id="#94d549ff">
<path fill="#94d549" opacity="1.00" d=" M 36.36 8.10 C 37.35 10.61 38.57 13.01 39.59 15.51 C 38.63 15.37 37.77 15.00 37.00 14.39 C 34.29 19.30 37.32 24.28 38.87 28.98 C 40.89 34.55 38.37 40.34 38.76 46.03 C 38.59 49.81 39.55 55.40 35.02 57.00 C 32.80 58.66 30.16 58.39 27.91 56.96 C 27.36 57.23 26.27 57.77 25.73 58.03 C 24.76 57.13 23.78 56.25 22.80 55.36 C 19.69 57.86 17.74 61.33 15.66 64.64 C 14.15 65.20 12.49 65.15 10.91 65.36 L 10.97 64.79 C 14.05 62.62 14.94 58.82 16.61 55.66 C 18.59 51.29 21.94 47.50 22.68 42.62 C 23.82 38.44 21.45 34.29 22.33 30.09 C 22.91 26.87 22.39 23.51 23.37 20.36 C 24.30 17.03 28.05 16.26 30.61 14.59 C 33.34 13.29 34.89 10.61 36.36 8.10 Z" />
</g>
<g id="#7dbf3dff">
<path fill="#7dbf3d" opacity="1.00" d=" M 38.87 28.98 C 37.32 24.28 34.29 19.30 37.00 14.39 C 37.77 15.00 38.63 15.37 39.59 15.51 C 42.13 21.44 44.53 27.43 47.42 33.20 C 45.66 34.03 43.33 34.48 42.65 36.59 C 40.62 41.02 42.54 45.74 43.64 50.12 C 44.21 55.25 43.36 60.43 42.45 65.48 C 39.23 65.52 35.96 65.87 32.79 65.19 C 30.01 63.29 28.28 60.22 25.73 58.03 C 26.27 57.77 27.36 57.23 27.91 56.96 C 30.16 58.39 32.80 58.66 35.02 57.00 C 39.55 55.40 38.59 49.81 38.76 46.03 C 38.37 40.34 40.89 34.55 38.87 28.98 Z" />
</g>
<g id="#c9f35bf9">
<path fill="#c9f35b" opacity="0.98" d=" M 20.22 21.23 C 20.40 21.66 20.75 22.53 20.92 22.97 C 20.27 29.87 16.12 35.88 15.93 42.89 C 13.96 49.36 13.21 56.15 11.01 62.54 C 10.93 60.36 10.87 58.17 11.03 56.00 C 11.40 54.00 11.81 52.01 12.22 50.03 C 12.98 46.84 14.16 43.64 13.53 40.31 C 13.22 38.46 14.68 37.04 15.43 35.50 C 17.75 31.01 18.55 25.96 20.22 21.23 Z" />
</g>
<g id="#2f3b2fff">
<path fill="#2f3b2f" opacity="1.00" d=" M 47.42 33.20 C 47.89 34.02 48.36 34.83 48.84 35.65 C 45.51 34.33 43.77 37.29 42.88 39.97 C 46.13 39.97 49.53 39.96 52.31 41.90 C 51.85 43.84 51.24 45.81 49.92 47.35 C 48.31 45.66 47.66 43.44 47.27 41.20 C 45.82 41.50 44.36 41.81 42.91 42.11 C 43.28 45.12 44.44 47.95 46.10 50.47 C 47.26 51.19 48.46 52.32 49.94 51.99 C 51.53 50.98 52.31 49.18 53.24 47.61 C 53.39 48.05 53.68 48.93 53.82 49.37 C 52.72 50.87 52.00 53.33 49.87 53.56 C 48.23 53.55 46.74 52.69 45.21 52.17 C 45.39 56.70 43.96 61.41 45.09 65.80 C 49.72 70.29 57.05 72.87 59.11 79.47 C 58.25 78.50 57.37 77.54 56.47 76.60 C 53.07 73.23 49.25 70.22 44.88 68.22 C 43.82 71.03 43.25 73.98 43.00 76.96 C 42.41 82.92 41.10 88.77 40.21 94.68 C 40.45 94.83 40.94 95.11 41.18 95.26 C 42.93 95.96 44.75 96.51 46.60 96.87 C 49.45 97.56 52.36 97.90 55.29 97.83 C 56.02 99.98 56.67 102.16 57.43 104.30 C 58.03 105.76 58.75 107.17 59.70 108.44 C 60.46 109.11 61.23 109.78 62.02 110.44 C 56.96 113.63 50.74 113.79 44.95 114.07 C 50.11 113.52 55.52 113.50 60.24 111.07 C 59.26 110.20 58.28 109.31 57.33 108.40 C 56.82 107.43 56.35 106.44 55.93 105.43 C 54.78 103.23 54.33 99.35 50.97 99.92 C 41.37 101.13 31.52 101.28 21.95 99.72 C 20.76 99.53 19.56 99.40 18.36 99.36 L 18.12 99.34 C 17.69 98.26 16.86 97.48 16.05 96.69 L 15.77 95.91 C 16.25 94.70 16.25 93.51 15.75 92.33 C 13.74 86.71 12.13 80.93 11.27 75.02 C 10.90 72.73 10.81 70.32 9.60 68.27 C 9.78 67.94 10.15 67.28 10.33 66.95 C 10.13 63.29 10.27 59.59 11.03 56.00 C 10.87 58.17 10.93 60.36 11.01 62.54 C 11.00 63.10 10.98 64.23 10.97 64.79 L 10.91 65.36 C 12.49 65.15 14.15 65.20 15.66 64.64 C 17.74 61.33 19.69 57.86 22.80 55.36 C 23.78 56.25 24.76 57.13 25.73 58.03 C 28.28 60.22 30.01 63.29 32.79 65.19 C 35.96 65.87 39.23 65.52 42.45 65.48 C 43.36 60.43 44.21 55.25 43.64 50.12 C 42.54 45.74 40.62 41.02 42.65 36.59 C 43.33 34.48 45.66 34.03 47.42 33.20 M 21.55 57.49 L 21.78 58.52 C 19.54 60.47 17.43 62.97 17.11 66.04 C 17.73 68.54 18.86 71.00 20.75 72.79 L 20.65 73.01 C 21.09 73.56 21.98 74.67 22.42 75.23 C 25.65 72.78 29.34 70.00 30.42 65.91 C 28.39 62.43 25.44 58.82 21.55 57.49 M 11.66 71.85 C 12.80 78.20 13.54 84.74 16.18 90.71 C 16.33 92.46 17.36 94.60 19.40 94.67 C 23.79 96.14 28.51 95.06 33.05 95.29 C 34.94 95.00 38.43 95.66 38.76 93.05 C 40.61 84.80 41.56 76.36 42.50 67.97 C 39.67 66.07 35.39 67.42 32.00 67.05 L 31.93 67.70 C 29.21 71.20 26.36 74.59 22.89 77.38 C 20.07 74.61 17.80 71.26 16.83 67.39 L 15.98 67.72 L 16.62 66.73 C 15.62 66.69 13.63 66.61 12.64 66.57 L 11.54 65.71 C 10.77 67.70 11.41 69.83 11.66 71.85 M 17.63 94.94 C 17.53 95.44 17.32 96.45 17.21 96.95 L 17.74 98.22 C 27.42 100.28 37.55 99.91 47.41 99.15 C 38.19 94.14 27.37 97.97 17.63 94.94 Z" />
</g>
<g id="#8cce44ff">
<path fill="#8cce44" opacity="1.00" d=" M 42.88 39.97 C 43.77 37.29 45.51 34.33 48.84 35.65 C 50.17 37.34 51.56 39.10 52.22 41.18 L 52.31 41.90 C 49.53 39.96 46.13 39.97 42.88 39.97 Z" />
</g>
<g id="#d7daa4ef">
<path fill="#d7daa4" opacity="0.94" d=" M 12.22 50.03 C 11.99 46.79 11.30 43.05 13.53 40.31 C 14.16 43.64 12.98 46.84 12.22 50.03 Z" />
</g>
<g id="#898b88f3">
<path fill="#898b88" opacity="0.95" d=" M 52.22 41.18 C 52.68 43.31 53.13 45.44 53.24 47.61 C 52.31 49.18 51.53 50.98 49.94 51.99 C 48.46 52.32 47.26 51.19 46.10 50.47 C 47.38 49.44 48.68 48.42 49.92 47.35 C 51.24 45.81 51.85 43.84 52.31 41.90 L 52.22 41.18 Z" />
</g>
<g id="#cececeff">
<path fill="#cecece" opacity="1.00" d=" M 42.91 42.11 C 44.36 41.81 45.82 41.50 47.27 41.20 C 47.66 43.44 48.31 45.66 49.92 47.35 C 48.68 48.42 47.38 49.44 46.10 50.47 C 44.44 47.95 43.28 45.12 42.91 42.11 Z" />
</g>
<g id="#71b237ff">
<path fill="#71b237" opacity="1.00" d=" M 49.87 53.56 C 52.00 53.33 52.72 50.87 53.82 49.37 C 54.05 50.68 54.51 51.98 54.49 53.32 C 53.66 58.91 54.91 64.62 57.49 69.60 C 59.44 73.25 59.93 77.39 60.17 81.46 C 59.90 80.96 59.38 79.97 59.11 79.47 C 57.05 72.87 49.72 70.29 45.09 65.80 C 43.96 61.41 45.39 56.70 45.21 52.17 C 46.74 52.69 48.23 53.55 49.87 53.56 Z" />
</g>
<g id="#a5d975ff">
<path fill="#a5d975" opacity="1.00" d=" M 57.49 69.60 C 54.91 64.62 53.66 58.91 54.49 53.32 C 56.00 58.53 59.11 63.15 60.17 68.51 C 61.18 74.36 61.53 80.35 63.01 86.11 C 63.39 88.42 65.91 89.21 67.58 90.39 L 67.53 91.03 C 67.32 94.34 66.55 97.70 67.44 100.99 L 67.61 101.88 L 67.17 102.61 C 66.06 104.29 65.40 106.19 64.78 108.09 C 64.20 109.17 62.90 109.64 62.02 110.44 C 61.23 109.78 60.46 109.11 59.70 108.44 C 62.01 105.99 63.25 102.57 62.65 99.21 C 61.65 93.32 61.12 87.36 60.17 81.46 C 59.93 77.39 59.44 73.25 57.49 69.60 Z" />
<path fill="#a5d975" opacity="1.00" d=" M 43.54 111.81 C 48.40 112.22 53.05 110.54 57.33 108.40 C 58.28 109.31 59.26 110.20 60.24 111.07 C 55.52 113.50 50.11 113.52 44.95 114.07 C 43.53 114.23 42.15 114.12 40.80 113.74 C 39.11 112.91 37.24 112.72 35.39 112.90 C 33.87 112.75 32.46 112.25 31.14 111.42 C 35.27 110.74 39.38 112.16 43.54 111.81 Z" />
</g>
<g id="#7cbc3dff">
<path fill="#7cbc3d" opacity="1.00" d=" M 21.55 57.49 C 25.44 58.82 28.39 62.43 30.42 65.91 C 29.34 70.00 25.65 72.78 22.42 75.23 C 21.98 74.67 21.09 73.56 20.65 73.01 L 20.75 72.79 C 23.77 68.50 23.35 63.26 21.78 58.52 L 21.55 57.49 Z" />
<path fill="#7cbc3d" opacity="1.00" d=" M 64.78 108.09 C 65.40 106.19 66.06 104.29 67.17 102.61 C 67.84 102.64 69.16 102.72 69.82 102.75 C 68.33 104.69 66.96 106.85 64.78 108.09 Z" />
</g>
<g id="#94d747ff">
<path fill="#94d747" opacity="1.00" d=" M 17.11 66.04 C 17.43 62.97 19.54 60.47 21.78 58.52 C 23.35 63.26 23.77 68.50 20.75 72.79 C 18.86 71.00 17.73 68.54 17.11 66.04 Z" />
</g>
<g id="#acf251ff">
<path fill="#acf251" opacity="1.00" d=" M 11.66 71.85 C 11.41 69.83 10.77 67.70 11.54 65.71 L 12.64 66.57 C 13.35 72.18 14.74 77.67 15.90 83.20 C 16.35 85.67 18.04 88.40 16.18 90.71 C 13.54 84.74 12.80 78.20 11.66 71.85 Z" />
</g>
<g id="#a1e44dff">
<path fill="#a1e44d" opacity="1.00" d=" M 12.64 66.57 C 13.63 66.61 15.62 66.69 16.62 66.73 L 15.98 67.72 C 15.59 67.89 14.80 68.21 14.40 68.38 C 17.20 72.83 19.51 77.59 21.70 82.37 C 23.83 86.71 19.41 90.37 19.40 94.67 C 17.36 94.60 16.33 92.46 16.18 90.71 C 18.04 88.40 16.35 85.67 15.90 83.20 C 14.74 77.67 13.35 72.18 12.64 66.57 Z" />
</g>
<g id="#69ab34ff">
<path fill="#69ab34" opacity="1.00" d=" M 32.00 67.05 C 35.39 67.42 39.67 66.07 42.50 67.97 C 41.56 76.36 40.61 84.80 38.76 93.05 C 38.43 95.66 34.94 95.00 33.05 95.29 C 28.51 95.06 23.79 96.14 19.40 94.67 C 24.31 94.22 29.74 94.04 33.78 90.85 C 37.83 83.87 35.19 74.87 39.53 68.03 C 36.99 67.97 34.46 67.86 31.93 67.70 L 32.00 67.05 Z" />
</g>
<g id="#83c541ff">
<path fill="#83c541" opacity="1.00" d=" M 14.40 68.38 C 14.80 68.21 15.59 67.89 15.98 67.72 L 16.83 67.39 C 17.80 71.26 20.07 74.61 22.89 77.38 C 26.36 74.59 29.21 71.20 31.93 67.70 C 34.46 67.86 36.99 67.97 39.53 68.03 C 35.19 74.87 37.83 83.87 33.78 90.85 C 29.74 94.04 24.31 94.22 19.40 94.67 C 19.41 90.37 23.83 86.71 21.70 82.37 C 19.51 77.59 17.20 72.83 14.40 68.38 Z" />
</g>
<g id="#87c741ff">
<path fill="#87c741" opacity="1.00" d=" M 9.60 68.27 C 10.81 70.32 10.90 72.73 11.27 75.02 C 12.13 80.93 13.74 86.71 15.75 92.33 C 16.25 93.51 16.25 94.70 15.77 95.91 L 15.13 95.91 C 14.47 93.41 11.52 92.48 10.88 89.98 C 9.98 87.48 9.15 84.94 8.58 82.35 C 7.93 79.33 8.70 76.07 7.37 73.20 C 8.00 71.51 8.77 69.87 9.60 68.27 Z" />
</g>
<g id="#7bbc3cff">
<path fill="#7bbc3c" opacity="1.00" d=" M 43.00 76.96 C 43.25 73.98 43.82 71.03 44.88 68.22 C 49.25 70.22 53.07 73.23 56.47 76.60 C 56.78 78.94 57.11 81.27 57.36 83.62 C 56.60 85.37 55.88 87.16 54.79 88.74 C 51.18 92.80 44.07 90.36 41.18 95.26 C 40.94 95.11 40.45 94.83 40.21 94.68 C 41.10 88.77 42.41 82.92 43.00 76.96 Z" />
</g>
<g id="#a1dd4aff">
<path fill="#a1dd4a" opacity="1.00" d=" M 7.37 73.20 C 8.70 76.07 7.93 79.33 8.58 82.35 C 9.15 84.94 9.98 87.48 10.88 89.98 C 11.52 92.48 14.47 93.41 15.13 95.91 C 11.09 94.99 8.21 91.22 5.64 88.13 C 5.37 87.58 4.81 86.48 4.53 85.93 C 4.68 84.27 4.79 82.60 4.94 80.94 C 5.38 78.26 6.46 75.74 7.37 73.20 Z" />
</g>
<g id="#87ce6eff">
<path fill="#87ce6e" opacity="1.00" d=" M 56.47 76.60 C 57.37 77.54 58.25 78.50 59.11 79.47 C 59.38 79.97 59.90 80.96 60.17 81.46 C 61.12 87.36 61.65 93.32 62.65 99.21 C 63.25 102.57 62.01 105.99 59.70 108.44 C 58.75 107.17 58.03 105.76 57.43 104.30 C 58.77 100.15 59.87 95.76 58.84 91.40 C 57.07 93.17 56.12 95.51 55.29 97.83 C 52.36 97.90 49.45 97.56 46.60 96.87 C 48.98 96.62 51.40 96.46 53.70 95.75 C 56.70 92.57 58.38 87.97 57.36 83.62 C 57.11 81.27 56.78 78.94 56.47 76.60 Z" />
</g>
<g id="#3f461c74">
<path fill="#3f461c" opacity="0.45" d=" M 5.64 88.13 C 3.12 86.48 4.03 83.30 4.94 80.94 C 4.79 82.60 4.68 84.27 4.53 85.93 C 4.81 86.48 5.37 87.58 5.64 88.13 Z" />
</g>
<g id="#65a831ff">
<path fill="#65a831" opacity="1.00" d=" M 54.79 88.74 C 55.88 87.16 56.60 85.37 57.36 83.62 C 58.38 87.97 56.70 92.57 53.70 95.75 C 51.40 96.46 48.98 96.62 46.60 96.87 C 44.75 96.51 42.93 95.96 41.18 95.26 C 44.07 90.36 51.18 92.80 54.79 88.74 Z" />
</g>
<g id="#8ecb5fff">
<path fill="#8ecb5f" opacity="1.00" d=" M 67.53 91.03 L 67.58 90.36 C 69.17 90.77 70.73 91.32 72.22 92.01 L 72.21 92.99 C 71.86 94.77 72.72 97.29 71.05 98.53 C 70.92 97.73 70.67 96.12 70.55 95.32 C 70.12 97.06 70.66 99.14 68.98 100.33 C 68.59 100.50 67.82 100.82 67.44 100.99 C 66.55 97.70 67.32 94.34 67.53 91.03 Z" />
</g>
<g id="#63ad36ff">
<path fill="#63ad36" opacity="1.00" d=" M 55.29 97.83 C 56.12 95.51 57.07 93.17 58.84 91.40 C 59.87 95.76 58.77 100.15 57.43 104.30 C 56.67 102.16 56.02 99.98 55.29 97.83 Z" />
</g>
<g id="#5a753cc6">
<path fill="#5a753c" opacity="0.78" d=" M 72.21 92.99 C 73.70 96.41 71.48 99.82 70.10 102.85 C 69.29 102.17 68.91 101.33 68.98 100.33 C 70.66 99.14 70.12 97.06 70.55 95.32 C 70.67 96.12 70.92 97.73 71.05 98.53 C 72.72 97.29 71.86 94.77 72.21 92.99 Z" />
</g>
<g id="#7bce57ff">
<path fill="#7bce57" opacity="1.00" d=" M 17.63 94.94 C 27.37 97.97 38.19 94.14 47.41 99.15 C 37.55 99.91 27.42 100.28 17.74 98.22 L 17.21 96.95 C 17.32 96.45 17.53 95.44 17.63 94.94 Z" />
</g>
<g id="#69ac34ff">
<path fill="#69ac34" opacity="1.00" d=" M 21.95 99.72 C 31.52 101.28 41.37 101.13 50.97 99.92 C 54.33 99.35 54.78 103.23 55.93 105.43 C 52.22 108.31 47.98 110.36 43.54 111.81 C 39.38 112.16 35.27 110.74 31.14 111.42 C 30.87 111.37 30.33 111.26 30.06 111.21 L 31.79 110.84 C 29.84 108.87 27.37 107.51 25.41 105.57 C 24.24 103.63 23.52 101.41 21.95 99.72 Z" />
</g>
<g id="#131c0944">
<path fill="#131c09" opacity="0.27" d=" M 22.31 104.99 C 23.28 105.83 24.18 106.73 25.02 107.70 C 23.46 109.20 20.76 106.53 22.31 104.99 Z" />
</g>
<g id="#7ecd64ff">
<path fill="#7ecd64" opacity="1.00" d=" M 43.54 111.81 C 47.98 110.36 52.22 108.31 55.93 105.43 C 56.35 106.44 56.82 107.43 57.33 108.40 C 53.05 110.54 48.40 112.22 43.54 111.81 Z" />
</g>
<g id="#3e502c8d">
<path fill="#3e502c" opacity="0.55" d=" M 35.39 112.90 C 37.24 112.72 39.11 112.91 40.80 113.74 C 39.40 114.82 35.79 114.87 35.39 112.90 Z" />
</g>
</svg>
