<?xml version="1.0" encoding="UTF-8" ?>
<!DOCTYPE svg PUBLIC "-//W3C//DTD SVG 1.1//EN" "http://www.w3.org/Graphics/SVG/1.1/DTD/svg11.dtd">
<svg width="226pt" height="177pt" viewBox="0 0 226 177" version="1.1" xmlns="http://www.w3.org/2000/svg">
<g id="#d4d9e3ff">
<path fill="#d4d9e3" opacity="1.00" d=" M 42.38 0.00 L 45.15 0.00 C 45.19 0.45 45.27 1.36 45.31 1.81 C 44.21 4.20 41.99 1.72 42.38 0.00 Z" />
<path fill="#d4d9e3" opacity="1.00" d=" M 146.98 42.93 C 152.19 39.72 160.19 41.50 162.86 47.22 C 163.91 49.27 163.36 51.63 163.09 53.80 C 158.37 58.60 152.03 61.34 146.29 64.71 C 141.77 61.94 138.09 57.84 136.61 52.69 C 139.73 49.12 142.89 45.42 146.98 42.93 Z" />
</g>
<g id="#34302e3e">
<path fill="#34302e" opacity="0.24" d=" M 63.25 3.35 C 63.79 3.84 63.79 3.84 63.25 3.35 Z" />
</g>
<g id="#333334ff">
<path fill="#333334" opacity="1.00" d=" M 25.71 21.57 C 29.34 15.57 36.76 14.49 43.03 13.08 C 55.90 11.20 67.91 17.80 78.00 25.06 C 79.86 26.72 82.58 26.89 84.29 28.75 C 87.22 31.46 90.76 33.52 93.26 36.69 C 98.33 42.39 100.30 49.97 104.78 56.06 C 106.80 58.28 106.36 63.69 110.54 62.34 C 110.43 50.47 111.98 38.24 117.77 27.70 C 119.16 26.67 121.72 26.83 121.69 29.04 C 120.96 30.83 119.24 31.77 117.81 32.91 C 116.23 34.98 115.44 37.53 114.78 40.02 C 112.98 47.36 112.27 54.93 112.25 62.47 C 112.15 63.30 111.96 64.94 111.87 65.77 C 111.29 64.87 110.71 63.97 110.15 63.07 C 108.86 62.90 107.57 62.73 106.27 62.57 L 105.71 62.14 C 104.94 60.37 104.13 58.62 103.24 56.90 C 103.37 59.40 104.09 61.83 104.24 64.33 C 103.71 64.43 102.64 64.63 102.11 64.73 C 101.70 60.62 98.41 57.82 96.11 54.68 C 94.08 52.27 91.94 49.93 89.65 47.77 C 85.88 44.53 82.04 40.86 77.02 39.78 C 73.31 39.06 69.01 39.47 66.06 42.03 C 63.51 45.10 64.21 50.18 67.33 52.61 C 70.99 55.74 75.34 57.90 79.49 60.31 C 82.12 61.76 84.74 63.22 87.33 64.73 L 85.47 65.81 C 77.33 60.85 67.92 57.68 61.04 50.87 C 59.00 49.03 57.99 45.70 54.94 45.34 C 48.07 43.88 41.12 42.30 34.07 42.18 C 31.27 41.81 31.25 45.10 31.80 46.96 C 32.66 51.46 35.76 56.74 40.93 56.67 C 47.42 57.04 53.86 57.93 60.23 59.23 C 59.88 59.67 59.18 60.56 58.84 61.00 C 52.93 60.02 46.98 58.68 40.96 58.88 C 38.08 59.28 37.73 62.72 38.02 65.03 C 38.74 70.57 41.57 76.01 46.00 79.49 C 47.43 80.27 48.91 80.96 50.41 81.61 C 47.20 82.08 44.19 84.39 44.63 87.97 C 45.20 94.50 48.81 102.33 56.04 103.40 C 58.54 102.93 60.91 101.96 63.32 101.19 C 67.63 99.79 71.96 98.47 76.32 97.25 C 79.93 96.26 83.53 95.24 87.16 94.33 C 89.88 93.63 92.61 92.95 95.35 92.32 C 96.43 92.99 97.52 93.64 98.64 94.26 C 95.05 94.63 91.52 95.41 88.02 96.26 C 84.58 97.14 81.16 98.08 77.76 99.09 C 71.59 101.07 65.28 102.75 59.36 105.42 C 56.22 106.51 57.07 111.04 59.23 112.74 C 64.58 117.62 72.70 116.16 78.99 114.23 C 82.05 113.13 85.03 111.81 87.98 110.45 C 89.70 109.66 91.42 108.87 93.10 107.98 C 93.11 108.45 93.12 109.37 93.13 109.84 C 88.75 111.97 84.24 113.82 79.71 115.59 C 78.53 115.96 77.34 116.28 76.14 116.59 C 74.46 116.52 72.79 116.36 71.11 116.21 C 71.67 116.51 72.78 117.11 73.33 117.41 C 72.26 118.15 71.10 118.70 69.79 118.76 C 66.31 118.35 62.79 118.63 59.31 118.19 C 59.47 119.25 59.65 120.31 59.84 121.38 C 59.98 121.53 60.26 121.84 60.39 121.99 C 60.80 122.34 61.62 123.03 62.03 123.38 C 61.58 123.73 60.70 124.44 60.26 124.79 C 61.95 128.11 64.08 131.18 66.43 134.07 L 65.65 134.72 C 66.11 135.39 66.60 136.04 67.08 136.69 C 67.33 136.47 67.83 136.02 68.08 135.80 C 71.24 138.13 74.62 140.16 78.31 141.56 C 78.66 139.33 79.04 137.11 79.42 134.88 C 79.81 135.48 80.59 136.67 80.99 137.26 C 80.77 138.87 80.62 140.50 80.48 142.13 C 85.40 142.21 90.05 140.48 94.19 137.94 C 94.18 143.03 92.57 147.97 93.03 153.06 C 91.78 148.92 92.29 144.76 93.76 140.77 C 88.46 145.16 81.98 148.83 74.81 147.74 C 67.56 145.66 61.61 140.02 58.76 133.09 C 56.53 127.81 54.77 122.21 54.50 116.45 C 49.73 113.70 46.06 109.52 42.82 105.15 C 39.53 98.06 35.99 90.81 35.40 82.90 C 34.47 77.36 34.07 71.72 32.74 66.26 C 29.00 57.46 25.53 48.44 23.92 38.97 C 22.56 33.24 22.89 26.80 25.71 21.57 M 42.00 23.85 C 50.27 26.50 58.14 30.23 65.90 34.04 C 70.44 34.05 74.96 34.95 78.98 37.10 C 87.75 41.83 95.28 48.81 100.86 57.06 C 99.52 47.84 92.08 41.42 85.85 35.18 C 83.15 32.11 79.10 30.79 76.55 27.57 C 69.07 22.35 60.49 17.28 51.03 17.81 C 47.38 18.04 42.26 19.41 42.00 23.85 M 41.13 25.51 C 41.11 25.77 41.08 26.30 41.06 26.56 C 48.88 28.05 55.76 32.21 63.13 34.93 C 56.10 31.13 48.76 27.89 41.13 25.51 M 32.53 39.34 C 40.67 40.60 48.86 41.71 56.89 43.63 C 57.02 40.69 58.67 38.23 60.68 36.22 C 52.89 32.34 44.74 28.64 36.04 27.53 C 30.11 27.64 28.46 35.82 32.53 39.34 Z" />
</g>
<g id="#333335ff">
<path fill="#333335" opacity="1.00" d=" M 146.54 26.56 C 152.78 20.92 160.13 15.19 169.01 15.47 C 179.97 15.92 191.24 21.60 196.27 31.70 C 201.58 40.05 202.21 50.35 201.80 59.98 C 201.97 65.76 199.24 71.24 200.06 77.04 C 200.13 85.64 201.93 94.58 198.72 102.84 C 197.36 106.07 196.13 109.39 194.39 112.43 C 191.07 115.78 187.78 119.36 183.42 121.36 C 183.83 130.07 182.08 139.55 176.51 146.51 C 172.61 150.56 166.79 153.60 161.06 152.41 C 158.06 151.95 155.12 150.97 152.43 149.57 C 145.04 144.88 138.36 139.11 132.62 132.51 C 132.36 132.01 131.83 131.01 131.57 130.51 C 134.15 132.48 136.40 134.83 138.82 136.98 C 143.07 140.60 147.93 143.49 153.23 145.27 C 152.94 145.69 152.37 146.54 152.08 146.96 C 155.68 147.27 159.30 147.27 162.91 146.98 C 162.62 146.57 162.05 145.76 161.76 145.36 C 164.96 144.34 168.15 143.02 170.62 140.67 C 170.98 140.33 171.69 139.66 172.04 139.32 C 174.81 136.83 176.73 133.61 178.11 130.19 C 174.64 127.76 170.75 126.05 166.76 124.67 C 167.98 123.56 169.14 122.37 170.30 121.19 C 173.39 120.12 177.10 118.91 178.41 115.57 C 179.08 114.02 178.29 112.42 177.93 110.91 C 179.81 110.21 181.71 109.46 183.39 108.31 C 190.13 105.22 193.61 96.50 190.16 89.79 C 187.84 86.45 183.26 86.35 179.63 85.69 C 180.25 85.27 181.49 84.43 182.12 84.00 C 184.99 84.15 188.73 85.59 190.75 82.74 C 195.04 77.50 196.30 69.07 191.80 63.57 C 191.23 62.75 190.66 61.93 190.10 61.11 C 196.92 60.57 198.08 50.48 193.69 46.42 C 185.95 45.77 178.11 47.35 170.49 48.74 C 169.28 51.50 167.68 54.11 165.42 56.14 C 164.64 55.36 163.87 54.58 163.09 53.80 C 163.36 51.63 163.91 49.27 162.86 47.22 C 160.19 41.50 152.19 39.72 146.98 42.93 C 142.89 45.42 139.73 49.12 136.61 52.69 C 133.69 56.25 131.16 60.11 128.70 64.00 C 127.39 66.13 126.26 68.35 125.14 70.58 C 124.91 70.17 124.46 69.35 124.23 68.94 C 124.37 68.30 124.66 67.02 124.80 66.37 C 130.64 56.18 137.26 45.82 147.22 39.20 C 150.91 36.60 155.43 36.26 159.78 36.02 C 165.88 32.30 172.28 29.09 178.87 26.31 C 175.02 20.15 166.65 18.52 160.16 21.02 C 154.26 23.29 149.58 27.76 145.32 32.28 C 136.23 42.45 128.74 54.15 123.91 66.94 C 123.55 67.14 122.84 67.55 122.48 67.76 C 122.22 67.50 121.69 66.99 121.42 66.73 C 123.79 65.54 123.51 61.99 124.75 59.82 C 130.35 47.77 137.22 36.12 146.54 26.56 M 177.17 29.58 C 172.27 31.72 167.17 33.73 162.89 37.00 C 168.69 33.98 174.54 30.96 180.88 29.22 C 179.86 28.00 178.33 29.38 177.17 29.58 M 164.96 38.79 C 167.24 40.93 169.42 43.35 170.10 46.50 C 177.58 45.22 185.09 44.09 192.65 43.46 C 195.91 37.62 189.35 29.26 182.86 31.08 C 176.42 32.31 170.44 35.26 164.96 38.79 M 171.06 123.81 C 173.44 125.18 175.92 126.37 178.30 127.75 C 178.35 126.27 178.41 124.78 178.47 123.29 C 176.00 123.46 173.53 123.62 171.06 123.81 Z" />
</g>
<g id="#dbdee8ff">
<path fill="#dbdee8" opacity="1.00" d=" M 42.00 23.85 C 42.26 19.41 47.38 18.04 51.03 17.81 C 60.49 17.28 69.07 22.35 76.55 27.57 C 79.10 30.79 83.15 32.11 85.85 35.18 C 92.08 41.42 99.52 47.84 100.86 57.06 C 95.28 48.81 87.75 41.83 78.98 37.10 C 74.96 34.95 70.44 34.05 65.90 34.04 C 58.14 30.23 50.27 26.50 42.00 23.85 Z" />
<path fill="#dbdee8" opacity="1.00" d=" M 32.53 39.34 C 28.46 35.82 30.11 27.64 36.04 27.53 C 44.74 28.64 52.89 32.34 60.68 36.22 C 58.67 38.23 57.02 40.69 56.89 43.63 C 48.86 41.71 40.67 40.60 32.53 39.34 Z" />
<path fill="#dbdee8" opacity="1.00" d=" M 31.80 46.96 C 31.25 45.10 31.27 41.81 34.07 42.18 C 41.12 42.30 48.07 43.88 54.94 45.34 C 57.99 45.70 59.00 49.03 61.04 50.87 C 67.92 57.68 77.33 60.85 85.47 65.81 C 85.88 66.07 86.71 66.61 87.12 66.88 C 78.47 63.36 69.39 60.99 60.23 59.23 C 53.86 57.93 47.42 57.04 40.93 56.67 C 35.76 56.74 32.66 51.46 31.80 46.96 Z" />
</g>
<g id="#dadde7ff">
<path fill="#dadde7" opacity="1.00" d=" M 160.16 21.02 C 166.65 18.52 175.02 20.15 178.87 26.31 C 172.28 29.09 165.88 32.30 159.78 36.02 C 155.43 36.26 150.91 36.60 147.22 39.20 C 137.26 45.82 130.64 56.18 124.80 66.37 L 123.91 66.94 C 128.74 54.15 136.23 42.45 145.32 32.28 C 149.58 27.76 154.26 23.29 160.16 21.02 Z" />
<path fill="#dadde7" opacity="1.00" d=" M 170.49 48.74 C 178.11 47.35 185.95 45.77 193.69 46.42 C 198.08 50.48 196.92 60.57 190.10 61.11 C 174.11 61.20 158.05 63.47 142.92 68.74 C 150.47 64.64 158.50 61.30 165.42 56.14 C 167.68 54.11 169.28 51.50 170.49 48.74 Z" />
</g>
<g id="#bec7d5ff">
<path fill="#bec7d5" opacity="1.00" d=" M 41.13 25.51 C 48.76 27.89 56.10 31.13 63.13 34.93 C 55.76 32.21 48.88 28.05 41.06 26.56 C 41.08 26.30 41.11 25.77 41.13 25.51 Z" />
<path fill="#bec7d5" opacity="1.00" d=" M 128.70 64.00 C 131.16 60.11 133.69 56.25 136.61 52.69 C 138.09 57.84 141.77 61.94 146.29 64.71 C 142.95 66.45 139.59 68.18 136.46 70.27 C 133.27 69.02 130.18 67.26 128.70 64.00 Z" />
</g>
<g id="#c6cddaff">
<path fill="#c6cdda" opacity="1.00" d=" M 177.17 29.58 C 178.33 29.38 179.86 28.00 180.88 29.22 C 174.54 30.96 168.69 33.98 162.89 37.00 C 167.17 33.73 172.27 31.72 177.17 29.58 Z" />
<path fill="#c6cdda" opacity="1.00" d=" M 89.65 47.77 C 91.94 49.93 94.08 52.27 96.11 54.68 C 95.72 56.93 95.53 59.33 94.31 61.33 C 93.08 63.40 90.75 64.35 88.79 65.55 C 88.43 65.35 87.70 64.94 87.33 64.73 C 84.74 63.22 82.12 61.76 79.49 60.31 C 81.02 59.89 82.64 59.66 84.08 58.94 C 87.17 56.01 88.92 51.92 89.65 47.77 Z" />
</g>
<g id="#dadce7ff">
<path fill="#dadce7" opacity="1.00" d=" M 164.96 38.79 C 170.44 35.26 176.42 32.31 182.86 31.08 C 189.35 29.26 195.91 37.62 192.65 43.46 C 185.09 44.09 177.58 45.22 170.10 46.50 C 169.42 43.35 167.24 40.93 164.96 38.79 Z" />
</g>
<g id="#d3d9e3ff">
<path fill="#d3d9e3" opacity="1.00" d=" M 66.06 42.03 C 69.01 39.47 73.31 39.06 77.02 39.78 C 82.04 40.86 85.88 44.53 89.65 47.77 C 88.92 51.92 87.17 56.01 84.08 58.94 C 82.64 59.66 81.02 59.89 79.49 60.31 C 75.34 57.90 70.99 55.74 67.33 52.61 C 64.21 50.18 63.51 45.10 66.06 42.03 Z" />
</g>
<g id="#262628ff">
<path fill="#262628" opacity="1.00" d=" M 163.09 53.80 C 163.87 54.58 164.64 55.36 165.42 56.14 C 158.50 61.30 150.47 64.64 142.92 68.74 C 158.05 63.47 174.11 61.20 190.10 61.11 C 190.66 61.93 191.23 62.75 191.80 63.57 C 180.46 62.46 169.09 64.65 157.98 66.75 C 153.15 67.75 148.41 69.15 143.73 70.73 C 140.40 71.88 137.17 73.32 134.04 74.92 C 132.03 76.08 130.24 77.56 128.47 79.05 C 128.48 78.01 128.49 76.97 128.51 75.92 C 131.14 74.02 133.74 72.06 136.46 70.27 C 139.59 68.18 142.95 66.45 146.29 64.71 C 152.03 61.34 158.37 58.60 163.09 53.80 Z" />
</g>
<g id="#b7c0d1ff">
<path fill="#b7c0d1" opacity="1.00" d=" M 96.11 54.68 C 98.41 57.82 101.70 60.62 102.11 64.73 C 99.23 65.42 96.88 67.33 94.71 69.25 C 92.75 68.00 90.80 66.73 88.79 65.55 C 90.75 64.35 93.08 63.40 94.31 61.33 C 95.53 59.33 95.72 56.93 96.11 54.68 Z" />
<path fill="#b7c0d1" opacity="1.00" d=" M 140.10 83.65 C 145.66 83.74 151.24 83.61 156.78 84.23 C 154.70 84.58 152.62 84.86 150.53 85.09 C 153.21 88.82 152.23 93.67 154.30 97.62 C 153.75 98.16 153.21 98.71 152.67 99.25 C 149.73 98.26 146.81 97.21 143.87 96.22 C 143.60 91.81 143.04 87.18 140.10 83.65 Z" />
</g>
<g id="#abb5caff">
<path fill="#abb5ca" opacity="1.00" d=" M 104.24 64.33 C 104.09 61.83 103.37 59.40 103.24 56.90 C 104.13 58.62 104.94 60.37 105.71 62.14 L 106.27 62.57 C 107.57 62.73 108.86 62.90 110.15 63.07 C 108.19 63.54 106.22 63.97 104.24 64.33 Z" />
<path fill="#abb5ca" opacity="1.00" d=" M 165.47 124.26 L 166.76 124.67 C 170.75 126.05 174.64 127.76 178.11 130.19 C 176.73 133.61 174.81 136.83 172.04 139.32 C 169.87 136.94 167.56 134.69 165.10 132.61 C 165.71 129.87 165.78 127.04 165.47 124.26 Z" />
</g>
<g id="#d8dce6ff">
<path fill="#d8dce6" opacity="1.00" d=" M 38.02 65.03 C 37.73 62.72 38.08 59.28 40.96 58.88 C 46.98 58.68 52.93 60.02 58.84 61.00 C 65.40 62.16 71.84 63.90 78.24 65.74 C 72.71 68.61 74.62 76.54 68.95 79.32 C 61.30 79.14 53.64 80.03 46.00 79.49 C 41.57 76.01 38.74 70.57 38.02 65.03 Z" />
<path fill="#d8dce6" opacity="1.00" d=" M 157.98 66.75 C 169.09 64.65 180.46 62.46 191.80 63.57 C 196.30 69.07 195.04 77.50 190.75 82.74 C 188.73 85.59 184.99 84.15 182.12 84.00 C 174.90 83.31 167.69 82.70 160.46 82.25 C 163.05 80.67 166.13 80.73 169.06 80.54 C 167.19 80.21 165.33 79.88 163.47 79.56 C 161.83 76.58 159.85 73.77 158.51 70.64 C 158.68 69.88 158.91 69.13 159.20 68.40 C 158.79 67.85 158.39 67.30 157.98 66.75 Z" />
</g>
<g id="#212324ff">
<path fill="#212324" opacity="1.00" d=" M 60.23 59.23 C 69.39 60.99 78.47 63.36 87.12 66.88 C 86.71 66.61 85.88 66.07 85.47 65.81 L 87.33 64.73 C 87.70 64.94 88.43 65.35 88.79 65.55 C 90.80 66.73 92.75 68.00 94.71 69.25 C 94.46 69.70 93.96 70.60 93.72 71.05 C 93.59 71.25 93.35 71.65 93.23 71.85 C 90.84 70.77 88.47 69.65 86.06 68.61 C 83.50 67.54 80.88 66.59 78.24 65.74 C 71.84 63.90 65.40 62.16 58.84 61.00 C 59.18 60.56 59.88 59.67 60.23 59.23 Z" />
</g>
<g id="#6f5ba2ff">
<path fill="#6f5ba2" opacity="1.00" d=" M 110.15 63.07 C 110.71 63.97 111.29 64.87 111.87 65.77 C 111.96 64.94 112.15 63.30 112.25 62.47 C 115.55 63.12 119.18 64.00 121.42 66.73 C 121.69 66.99 122.22 67.50 122.48 67.76 C 119.65 68.49 116.88 66.92 114.04 67.10 C 112.49 67.31 111.00 67.84 109.52 68.32 C 109.36 68.97 109.03 70.27 108.87 70.92 L 108.66 71.60 C 108.48 72.15 108.11 73.25 107.93 73.80 C 107.76 74.29 107.42 75.28 107.25 75.78 C 106.37 77.94 104.59 82.48 101.66 80.33 C 100.63 77.62 100.85 74.62 100.24 71.80 C 99.85 70.73 99.42 69.69 98.95 68.67 C 97.15 69.33 95.37 70.07 93.72 71.05 C 93.96 70.60 94.46 69.70 94.71 69.25 C 96.88 67.33 99.23 65.42 102.11 64.73 C 102.64 64.63 103.71 64.43 104.24 64.33 C 106.22 63.97 108.19 63.54 110.15 63.07 Z" />
</g>
<g id="#a4b1c6ff">
<path fill="#a4b1c6" opacity="1.00" d=" M 125.14 70.58 C 126.26 68.35 127.39 66.13 128.70 64.00 C 130.18 67.26 133.27 69.02 136.46 70.27 C 133.74 72.06 131.14 74.02 128.51 75.92 C 128.24 75.80 127.69 75.56 127.42 75.43 C 126.75 73.77 126.02 72.14 125.14 70.58 Z" />
</g>
<g id="#c9d0ddff">
<path fill="#c9d0dd" opacity="1.00" d=" M 78.24 65.74 C 80.88 66.59 83.50 67.54 86.06 68.61 C 84.00 71.54 82.27 74.68 80.47 77.77 C 82.60 77.97 84.68 78.47 86.54 79.57 C 80.67 79.47 74.81 79.22 68.95 79.32 C 74.62 76.54 72.71 68.61 78.24 65.74 Z" />
</g>
<g id="#5e4a84ff">
<path fill="#5e4a84" opacity="1.00" d=" M 109.52 68.32 C 111.00 67.84 112.49 67.31 114.04 67.10 C 116.88 66.92 119.65 68.49 122.48 67.76 C 122.84 67.55 123.55 67.14 123.91 66.94 L 124.80 66.37 C 124.66 67.02 124.37 68.30 124.23 68.94 C 124.46 69.35 124.91 70.17 125.14 70.58 C 126.02 72.14 126.75 73.77 127.42 75.43 C 125.27 74.90 123.07 74.59 120.90 74.18 L 120.46 73.81 C 117.48 70.88 112.83 67.84 108.87 70.92 C 109.03 70.27 109.36 68.97 109.52 68.32 Z" />
<path fill="#5e4a84" opacity="1.00" d=" M 105.83 92.35 C 106.14 92.14 106.76 91.72 107.06 91.51 C 107.26 92.09 107.66 93.24 107.86 93.82 C 107.36 93.46 106.34 92.72 105.83 92.35 Z" />
</g>
<g id="#cbd2deff">
<path fill="#cbd2de" opacity="1.00" d=" M 143.73 70.73 C 148.41 69.15 153.15 67.75 157.98 66.75 C 158.39 67.30 158.79 67.85 159.20 68.40 C 158.91 69.13 158.68 69.88 158.51 70.64 C 159.85 73.77 161.83 76.58 163.47 79.56 C 165.33 79.88 167.19 80.21 169.06 80.54 C 166.13 80.73 163.05 80.67 160.46 82.25 C 156.74 82.19 153.03 81.82 149.32 81.67 C 148.37 81.51 146.47 81.17 145.52 81.00 C 146.87 80.57 148.21 80.11 149.56 79.66 C 147.06 77.07 145.49 73.82 143.73 70.73 Z" />
<path fill="#cbd2de" opacity="1.00" d=" M 65.70 83.27 C 69.63 83.05 73.53 82.47 77.32 81.37 C 79.39 81.37 81.45 81.49 83.51 81.59 C 81.14 83.03 78.36 83.20 75.66 83.20 C 78.04 87.11 75.90 91.75 74.76 95.73 C 75.15 96.11 75.93 96.87 76.32 97.25 C 71.96 98.47 67.63 99.79 63.32 101.19 C 62.90 100.84 62.06 100.16 61.64 99.82 C 64.12 94.64 64.77 88.87 65.70 83.27 Z" />
</g>
<g id="#b9c3d3ff">
<path fill="#b9c3d3" opacity="1.00" d=" M 86.06 68.61 C 88.47 69.65 90.84 70.77 93.23 71.85 C 91.63 74.33 89.93 76.85 89.69 79.89 C 88.63 79.79 87.59 79.68 86.54 79.57 C 84.68 78.47 82.60 77.97 80.47 77.77 C 82.27 74.68 84.00 71.54 86.06 68.61 Z" />
</g>
<g id="#ca3829ff">
<path fill="#ca3829" opacity="1.00" d=" M 93.72 71.05 C 95.37 70.07 97.15 69.33 98.95 68.67 C 99.42 69.69 99.85 70.73 100.24 71.80 C 100.32 77.34 99.19 83.36 95.05 87.37 C 94.20 87.35 92.49 87.32 91.64 87.30 C 90.81 85.54 90.10 83.73 89.55 81.87 C 89.58 81.37 89.65 80.38 89.69 79.89 C 89.93 76.85 91.63 74.33 93.23 71.85 C 93.35 71.65 93.59 71.25 93.72 71.05 M 95.17 76.87 C 97.93 77.16 98.22 73.93 97.86 71.95 C 95.18 71.70 93.62 74.74 95.17 76.87 Z" />
</g>
<g id="#c83828ff">
<path fill="#c83828" opacity="1.00" d=" M 108.87 70.92 C 112.83 67.84 117.48 70.88 120.46 73.81 C 119.11 77.68 117.16 81.30 114.60 84.50 C 112.93 84.63 111.27 84.79 109.60 84.89 L 109.07 84.74 C 108.26 81.80 107.12 78.89 107.25 75.78 C 107.42 75.28 107.76 74.29 107.93 73.80 C 108.43 75.11 108.93 76.43 109.43 77.75 C 110.46 77.38 111.49 77.02 112.54 76.67 C 112.41 75.48 112.36 74.26 111.95 73.13 C 110.88 72.55 109.79 72.04 108.66 71.60 L 108.87 70.92 Z" />
</g>
<g id="#b5c0d0ff">
<path fill="#b5c0d0" opacity="1.00" d=" M 134.04 74.92 C 137.17 73.32 140.40 71.88 143.73 70.73 C 145.49 73.82 147.06 77.07 149.56 79.66 C 148.21 80.11 146.87 80.57 145.52 81.00 C 142.06 81.11 138.60 81.03 135.15 80.73 C 136.02 80.30 136.90 79.87 137.78 79.44 C 136.57 77.91 135.32 76.40 134.04 74.92 Z" />
</g>
<g id="#e75445ff">
<path fill="#e75445" opacity="1.00" d=" M 95.17 76.87 C 93.62 74.74 95.18 71.70 97.86 71.95 C 98.22 73.93 97.93 77.16 95.17 76.87 Z" />
</g>
<g id="#5a488cff">
<path fill="#5a488c" opacity="1.00" d=" M 100.24 71.80 C 100.85 74.62 100.63 77.62 101.66 80.33 C 104.59 82.48 106.37 77.94 107.25 75.78 C 107.12 78.89 108.26 81.80 109.07 84.74 C 108.98 85.37 108.78 86.63 108.69 87.26 C 105.76 86.08 102.37 84.36 99.32 86.20 C 96.74 88.13 98.12 92.67 101.36 92.76 C 105.81 96.21 111.75 95.24 116.95 94.75 C 117.89 97.48 119.36 100.18 119.17 103.15 C 118.16 102.44 117.15 101.72 116.13 101.03 C 114.42 100.64 112.67 100.51 110.93 100.39 C 110.94 99.41 110.96 98.43 110.96 97.45 C 111.10 97.17 111.38 96.62 111.51 96.35 C 107.30 96.17 103.09 95.70 99.07 94.39 L 98.64 94.26 C 97.52 93.64 96.43 92.99 95.35 92.32 C 93.78 90.92 92.56 89.18 91.64 87.30 C 92.49 87.32 94.20 87.35 95.05 87.37 C 99.19 83.36 100.32 77.34 100.24 71.80 Z" />
</g>
<g id="#ee5b4dff">
<path fill="#ee5b4d" opacity="1.00" d=" M 107.93 73.80 C 108.11 73.25 108.48 72.15 108.66 71.60 C 109.79 72.04 110.88 72.55 111.95 73.13 C 112.36 74.26 112.41 75.48 112.54 76.67 C 111.49 77.02 110.46 77.38 109.43 77.75 C 108.93 76.43 108.43 75.11 107.93 73.80 Z" />
</g>
<g id="#a12d21ff">
<path fill="#a12d21" opacity="1.00" d=" M 120.46 73.81 L 120.90 74.18 C 122.15 76.58 123.14 79.23 122.77 81.99 C 122.70 86.14 118.04 89.27 114.14 88.08 C 112.27 87.62 111.05 86.03 109.60 84.89 C 111.27 84.79 112.93 84.63 114.60 84.50 C 117.16 81.30 119.11 77.68 120.46 73.81 Z" />
</g>
<g id="#402e66ff">
<path fill="#402e66" opacity="1.00" d=" M 120.90 74.18 C 123.07 74.59 125.27 74.90 127.42 75.43 C 127.69 75.56 128.24 75.80 128.51 75.92 C 128.49 76.97 128.48 78.01 128.47 79.05 C 128.45 79.99 128.42 80.93 128.38 81.86 C 128.30 82.42 128.15 83.53 128.08 84.09 C 127.18 86.52 125.78 88.70 124.26 90.79 C 125.21 91.08 126.16 91.36 127.11 91.62 C 125.30 91.67 123.48 91.93 121.81 92.67 C 120.19 93.37 118.59 94.12 116.95 94.75 C 111.75 95.24 105.81 96.21 101.36 92.76 C 102.85 92.62 104.34 92.48 105.83 92.35 C 106.34 92.72 107.36 93.46 107.86 93.82 C 108.54 91.70 108.40 89.44 108.69 87.26 C 108.78 86.63 108.98 85.37 109.07 84.74 L 109.60 84.89 C 111.05 86.03 112.27 87.62 114.14 88.08 C 118.04 89.27 122.70 86.14 122.77 81.99 C 123.14 79.23 122.15 76.58 120.90 74.18 Z" />
</g>
<g id="#9dabc3ff">
<path fill="#9dabc3" opacity="1.00" d=" M 128.47 79.05 C 130.24 77.56 132.03 76.08 134.04 74.92 C 135.32 76.40 136.57 77.91 137.78 79.44 C 136.90 79.87 136.02 80.30 135.15 80.73 C 138.60 81.03 142.06 81.11 145.52 81.00 C 146.47 81.17 148.37 81.51 149.32 81.67 C 142.34 81.68 135.35 81.45 128.38 81.86 C 128.42 80.93 128.45 79.99 128.47 79.05 Z" />
</g>
<g id="#161616ff">
<path fill="#161616" opacity="1.00" d=" M 46.00 79.49 C 53.64 80.03 61.30 79.14 68.95 79.32 C 74.81 79.22 80.67 79.47 86.54 79.57 C 87.59 79.68 88.63 79.79 89.69 79.89 C 89.65 80.38 89.58 81.37 89.55 81.87 C 88.87 81.82 87.52 81.72 86.85 81.67 C 85.73 81.62 84.62 81.60 83.51 81.59 C 81.45 81.49 79.39 81.37 77.32 81.37 C 68.35 81.10 59.37 81.24 50.41 81.61 C 48.91 80.96 47.43 80.27 46.00 79.49 Z" />
</g>
<g id="#d7dbe5ff">
<path fill="#d7dbe5" opacity="1.00" d=" M 50.41 81.61 C 59.37 81.24 68.35 81.10 77.32 81.37 C 73.53 82.47 69.63 83.05 65.70 83.27 C 64.77 88.87 64.12 94.64 61.64 99.82 C 62.06 100.16 62.90 100.84 63.32 101.19 C 60.91 101.96 58.54 102.93 56.04 103.40 C 48.81 102.33 45.20 94.50 44.63 87.97 C 44.19 84.39 47.20 82.08 50.41 81.61 Z" />
</g>
<g id="#202020ff">
<path fill="#202020" opacity="1.00" d=" M 149.32 81.67 C 153.03 81.82 156.74 82.19 160.46 82.25 C 167.69 82.70 174.90 83.31 182.12 84.00 C 181.49 84.43 180.25 85.27 179.63 85.69 C 172.02 84.99 164.41 84.35 156.78 84.23 C 151.24 83.61 145.66 83.74 140.10 83.65 C 138.11 83.64 136.11 83.65 134.11 83.70 C 132.10 83.76 130.08 83.91 128.08 84.09 C 128.15 83.53 128.30 82.42 128.38 81.86 C 135.35 81.45 142.34 81.68 149.32 81.67 Z" />
</g>
<g id="#bcc5d4ff">
<path fill="#bcc5d4" opacity="1.00" d=" M 83.51 81.59 C 84.62 81.60 85.73 81.62 86.85 81.67 C 83.90 85.10 81.79 92.13 87.16 94.33 C 83.53 95.24 79.93 96.26 76.32 97.25 C 75.93 96.87 75.15 96.11 74.76 95.73 C 75.90 91.75 78.04 87.11 75.66 83.20 C 78.36 83.20 81.14 83.03 83.51 81.59 Z" />
</g>
<g id="#acb7cbff">
<path fill="#acb7cb" opacity="1.00" d=" M 86.85 81.67 C 87.52 81.72 88.87 81.82 89.55 81.87 C 90.10 83.73 90.81 85.54 91.64 87.30 C 92.56 89.18 93.78 90.92 95.35 92.32 C 92.61 92.95 89.88 93.63 87.16 94.33 C 81.79 92.13 83.90 85.10 86.85 81.67 Z" />
</g>
<g id="#8898b5ff">
<path fill="#8898b5" opacity="1.00" d=" M 128.08 84.09 C 130.08 83.91 132.10 83.76 134.11 83.70 C 135.08 86.82 137.54 90.37 135.37 93.53 C 132.63 92.82 129.87 92.25 127.11 91.62 C 126.16 91.36 125.21 91.08 124.26 90.79 C 125.78 88.70 127.18 86.52 128.08 84.09 Z" />
</g>
<g id="#a2afc5ff">
<path fill="#a2afc5" opacity="1.00" d=" M 134.11 83.70 C 136.11 83.65 138.11 83.64 140.10 83.65 C 143.04 87.18 143.60 91.81 143.87 96.22 C 141.05 95.28 138.24 94.30 135.37 93.53 C 137.54 90.37 135.08 86.82 134.11 83.70 Z" />
</g>
<g id="#c8cfdcff">
<path fill="#c8cfdc" opacity="1.00" d=" M 150.53 85.09 C 152.62 84.86 154.70 84.58 156.78 84.23 C 158.15 86.54 161.06 85.92 163.30 86.36 C 163.31 88.48 163.58 90.62 164.57 92.54 C 166.24 95.82 165.83 99.91 168.44 102.74 C 168.01 103.09 167.15 103.79 166.73 104.14 C 162.03 102.54 157.37 100.84 152.67 99.25 C 153.21 98.71 153.75 98.16 154.30 97.62 C 152.23 93.67 153.21 88.82 150.53 85.09 Z" />
<path fill="#c8cfdc" opacity="1.00" d=" M 59.36 105.42 C 65.28 102.75 71.59 101.07 77.76 99.09 C 77.67 103.61 77.96 108.13 77.65 112.64 C 77.98 113.04 78.66 113.83 78.99 114.23 C 72.70 116.16 64.58 117.62 59.23 112.74 C 57.07 111.04 56.22 106.51 59.36 105.42 Z" />
</g>
<g id="#d5dae4ff">
<path fill="#d5dae4" opacity="1.00" d=" M 156.78 84.23 C 164.41 84.35 172.02 84.99 179.63 85.69 C 183.26 86.35 187.84 86.45 190.16 89.79 C 193.61 96.50 190.13 105.22 183.39 108.31 C 177.48 109.04 172.26 105.59 166.73 104.14 C 167.15 103.79 168.01 103.09 168.44 102.74 C 165.83 99.91 166.24 95.82 164.57 92.54 C 163.58 90.62 163.31 88.48 163.30 86.36 C 161.06 85.92 158.15 86.54 156.78 84.23 Z" />
</g>
<g id="#58a2e0ff">
<path fill="#58a2e0" opacity="1.00" d=" M 99.32 86.20 C 102.37 84.36 105.76 86.08 108.69 87.26 C 108.40 89.44 108.54 91.70 107.86 93.82 C 107.66 93.24 107.26 92.09 107.06 91.51 C 106.76 91.72 106.14 92.14 105.83 92.35 C 104.34 92.48 102.85 92.62 101.36 92.76 C 98.12 92.67 96.74 88.13 99.32 86.20 Z" />
</g>
<g id="#1b1c1eff">
<path fill="#1b1c1e" opacity="1.00" d=" M 121.81 92.67 C 123.48 91.93 125.30 91.67 127.11 91.62 C 129.87 92.25 132.63 92.82 135.37 93.53 C 138.24 94.30 141.05 95.28 143.87 96.22 C 146.81 97.21 149.73 98.26 152.67 99.25 C 157.37 100.84 162.03 102.54 166.73 104.14 C 172.26 105.59 177.48 109.04 183.39 108.31 C 181.71 109.46 179.81 110.21 177.93 110.91 C 171.01 108.24 164.03 105.73 157.11 103.08 C 153.42 101.67 149.70 100.35 145.97 99.05 C 143.99 98.37 142.00 97.70 140.00 97.06 C 138.02 96.42 136.04 95.79 134.04 95.22 C 131.75 94.63 129.44 94.13 127.12 93.72 C 125.35 93.38 123.58 93.02 121.81 92.67 Z" />
<path fill="#1b1c1e" opacity="1.00" d=" M 71.11 116.21 C 72.79 116.36 74.46 116.52 76.14 116.59 C 71.38 120.75 74.00 129.19 79.99 130.46 C 84.43 130.67 88.00 127.45 91.42 125.05 C 93.16 123.65 94.78 122.11 96.40 120.58 C 96.73 121.09 97.40 122.12 97.73 122.64 C 93.20 127.08 87.99 131.00 81.82 132.81 C 81.52 134.29 81.23 135.77 80.99 137.26 C 80.59 136.67 79.81 135.48 79.42 134.88 C 79.52 134.33 79.72 133.21 79.82 132.65 C 77.90 131.70 76.03 130.65 74.23 129.50 C 72.14 131.56 70.15 133.73 68.08 135.80 C 67.83 136.02 67.33 136.47 67.08 136.69 C 66.60 136.04 66.11 135.39 65.65 134.72 L 66.43 134.07 C 68.77 132.23 70.81 130.06 72.91 127.97 C 71.94 125.39 71.51 122.67 71.62 119.92 C 68.30 120.70 65.05 121.78 62.03 123.38 C 61.62 123.03 60.80 122.34 60.39 121.99 C 63.32 120.38 66.44 119.09 69.79 118.76 C 71.10 118.70 72.26 118.15 73.33 117.41 C 72.78 117.11 71.67 116.51 71.11 116.21 Z" />
</g>
<g id="#4e3c76ff">
<path fill="#4e3c76" opacity="1.00" d=" M 116.95 94.75 C 118.59 94.12 120.19 93.37 121.81 92.67 C 123.58 93.02 125.35 93.38 127.12 93.72 C 125.73 93.66 124.34 93.61 122.95 93.59 C 125.04 96.73 126.86 100.07 127.84 103.74 C 128.11 104.68 128.38 105.63 128.64 106.58 C 128.49 107.25 128.19 108.60 128.04 109.27 C 127.49 108.18 126.93 107.10 126.35 106.03 C 124.91 109.48 124.50 113.37 122.58 116.61 C 118.28 121.53 111.36 121.53 105.62 123.58 C 105.37 124.21 104.87 125.47 104.62 126.10 C 103.42 125.65 102.24 125.13 101.09 124.60 C 100.68 124.39 99.87 123.97 99.47 123.77 L 98.29 123.09 C 99.67 119.13 104.35 119.63 107.63 118.53 C 110.95 118.09 112.77 115.11 115.09 113.07 C 116.13 112.13 117.56 111.53 118.28 110.28 C 118.83 107.94 118.94 105.53 119.17 103.15 C 119.36 100.18 117.89 97.48 116.95 94.75 Z" />
</g>
<g id="#a0acc2ff">
<path fill="#a0acc2" opacity="1.00" d=" M 98.64 94.26 L 99.07 94.39 C 97.94 96.13 96.82 97.89 95.69 99.63 L 96.95 99.80 L 97.08 100.26 C 94.56 101.92 93.70 104.73 93.69 107.62 L 93.10 107.98 C 91.42 108.87 89.70 109.66 87.98 110.45 C 87.58 105.73 87.69 100.98 88.02 96.26 C 91.52 95.41 95.05 94.63 98.64 94.26 Z" />
</g>
<g id="#5f4e95ff">
<path fill="#5f4e95" opacity="1.00" d=" M 99.07 94.39 C 103.09 95.70 107.30 96.17 111.51 96.35 C 111.38 96.62 111.10 97.17 110.96 97.45 C 110.96 98.43 110.94 99.41 110.93 100.39 C 110.29 100.94 109.65 101.48 109.00 102.02 C 109.70 102.71 110.41 103.40 111.12 104.10 C 109.80 105.01 108.50 105.95 107.23 106.93 C 108.49 107.67 109.75 108.42 111.04 109.12 C 110.57 110.12 108.56 111.11 109.79 112.24 C 111.52 112.68 113.32 112.81 115.09 113.07 C 112.77 115.11 110.95 118.09 107.63 118.53 C 104.35 119.63 99.67 119.13 98.29 123.09 C 98.15 122.98 97.87 122.75 97.73 122.64 C 97.40 122.12 96.73 121.09 96.40 120.58 C 94.67 117.22 93.84 113.52 93.13 109.84 C 93.12 109.37 93.11 108.45 93.10 107.98 L 93.69 107.62 C 93.83 108.40 94.12 109.95 94.27 110.73 C 95.54 111.48 97.00 111.74 98.46 111.84 C 98.52 110.73 98.58 109.62 98.65 108.51 C 99.65 107.99 100.65 107.48 101.65 106.97 C 101.23 105.92 100.81 104.87 100.40 103.82 C 100.91 102.86 101.42 101.89 101.93 100.93 C 100.31 100.38 98.64 99.99 96.95 99.80 L 95.69 99.63 C 96.82 97.89 97.94 96.13 99.07 94.39 Z" />
</g>
<g id="#7d8faeff">
<path fill="#7d8fae" opacity="1.00" d=" M 122.95 93.59 C 124.34 93.61 125.73 93.66 127.12 93.72 C 129.44 94.13 131.75 94.63 134.04 95.22 C 133.50 95.64 132.42 96.48 131.88 96.89 C 131.48 99.69 131.35 102.57 130.06 105.17 C 129.51 104.81 128.40 104.10 127.84 103.74 C 126.86 100.07 125.04 96.73 122.95 93.59 Z" />
</g>
<g id="#919fbaff">
<path fill="#919fba" opacity="1.00" d=" M 131.88 96.89 C 132.42 96.48 133.50 95.64 134.04 95.22 C 136.04 95.79 138.02 96.42 140.00 97.06 C 138.61 101.07 137.41 105.17 136.88 109.40 C 134.55 108.07 132.30 106.64 130.06 105.17 C 131.35 102.57 131.48 99.69 131.88 96.89 Z" />
</g>
<g id="#b6bfd1ff">
<path fill="#b6bfd1" opacity="1.00" d=" M 77.76 99.09 C 81.16 98.08 84.58 97.14 88.02 96.26 C 87.69 100.98 87.58 105.73 87.98 110.45 C 85.03 111.81 82.05 113.13 78.99 114.23 C 78.66 113.83 77.98 113.04 77.65 112.64 C 77.96 108.13 77.67 103.61 77.76 99.09 Z" />
</g>
<g id="#a7b2c7ff">
<path fill="#a7b2c7" opacity="1.00" d=" M 140.00 97.06 C 142.00 97.70 143.99 98.37 145.97 99.05 C 145.34 101.96 144.43 105.00 145.22 107.98 C 145.73 110.12 146.43 112.25 146.30 114.48 C 143.09 112.92 139.98 111.17 136.88 109.40 C 137.41 105.17 138.61 101.07 140.00 97.06 Z" />
</g>
<g id="#5aa0e1ff">
<path fill="#5aa0e1" opacity="1.00" d=" M 96.95 99.80 C 98.64 99.99 100.31 100.38 101.93 100.93 C 101.42 101.89 100.91 102.86 100.40 103.82 C 100.81 104.87 101.23 105.92 101.65 106.97 C 100.65 107.48 99.65 107.99 98.65 108.51 C 98.58 109.62 98.52 110.73 98.46 111.84 C 97.00 111.74 95.54 111.48 94.27 110.73 C 98.16 108.77 98.65 103.91 97.08 100.26 L 96.95 99.80 Z" />
</g>
<g id="#5ca7ecff">
<path fill="#5ca7ec" opacity="1.00" d=" M 110.93 100.39 C 112.67 100.51 114.42 100.64 116.13 101.03 C 116.50 103.69 117.38 106.99 114.83 108.90 C 113.90 110.30 112.29 109.46 111.04 109.12 C 109.75 108.42 108.49 107.67 107.23 106.93 C 108.50 105.95 109.80 105.01 111.12 104.10 C 110.41 103.40 109.70 102.71 109.00 102.02 C 109.65 101.48 110.29 100.94 110.93 100.39 Z" />
</g>
<g id="#bac3d3ff">
<path fill="#bac3d3" opacity="1.00" d=" M 145.22 107.98 C 144.43 105.00 145.34 101.96 145.97 99.05 C 149.70 100.35 153.42 101.67 157.11 103.08 C 157.53 107.15 154.15 110.65 155.26 114.77 C 155.91 115.69 156.70 116.51 157.45 117.36 C 157.35 117.84 157.13 118.81 157.02 119.29 C 153.34 117.93 149.80 116.23 146.30 114.48 C 146.43 112.25 145.73 110.12 145.22 107.98 Z" />
</g>
<g id="#6cc4f7ff">
<path fill="#6cc4f7" opacity="1.00" d=" M 93.69 107.62 C 93.70 104.73 94.56 101.92 97.08 100.26 C 98.65 103.91 98.16 108.77 94.27 110.73 C 94.12 109.95 93.83 108.40 93.69 107.62 Z" />
</g>
<g id="#4b82bcff">
<path fill="#4b82bc" opacity="1.00" d=" M 116.13 101.03 C 117.15 101.72 118.16 102.44 119.17 103.15 C 118.94 105.53 118.83 107.94 118.28 110.28 C 117.56 111.53 116.13 112.13 115.09 113.07 C 113.32 112.81 111.52 112.68 109.79 112.24 C 108.56 111.11 110.57 110.12 111.04 109.12 C 112.29 109.46 113.90 110.30 114.83 108.90 C 117.38 106.99 116.50 103.69 116.13 101.03 Z" />
</g>
<g id="#232526ff">
<path fill="#232526" opacity="1.00" d=" M 127.84 103.74 C 128.40 104.10 129.51 104.81 130.06 105.17 C 132.30 106.64 134.55 108.07 136.88 109.40 C 139.98 111.17 143.09 112.92 146.30 114.48 C 149.80 116.23 153.34 117.93 157.02 119.29 C 161.25 120.86 165.78 121.82 170.30 121.19 C 169.14 122.37 167.98 123.56 166.76 124.67 L 165.47 124.26 C 165.78 127.04 165.71 129.87 165.10 132.61 C 167.56 134.69 169.87 136.94 172.04 139.32 C 171.69 139.66 170.98 140.33 170.62 140.67 C 168.37 138.40 166.09 136.17 163.80 133.94 C 161.90 134.80 159.98 135.61 158.05 136.41 C 158.80 139.49 159.53 142.56 160.24 145.64 C 160.62 145.57 161.38 145.43 161.76 145.36 C 162.05 145.76 162.62 146.57 162.91 146.98 C 159.30 147.27 155.68 147.27 152.08 146.96 C 152.37 146.54 152.94 145.69 153.23 145.27 C 154.86 145.50 156.50 145.72 158.14 145.93 C 157.46 142.59 157.17 138.89 155.12 136.07 C 151.77 134.39 148.19 133.05 145.28 130.61 C 140.94 127.26 136.80 123.64 133.02 119.67 C 131.45 118.04 129.90 116.41 128.33 114.78 C 128.50 113.69 128.61 112.59 128.68 111.49 L 129.69 112.59 C 133.07 116.06 136.27 119.72 139.85 123.01 C 144.56 127.08 149.15 131.73 155.12 133.87 C 159.36 135.40 164.09 131.38 163.69 127.00 C 163.50 125.16 163.15 122.44 160.94 122.04 C 156.12 120.80 151.48 118.96 147.07 116.67 C 142.82 114.45 138.50 112.37 134.35 109.99 C 132.44 108.86 130.54 107.72 128.64 106.58 C 128.38 105.63 128.11 104.68 127.84 103.74 Z" />
</g>
<g id="#c9d1ddff">
<path fill="#c9d1dd" opacity="1.00" d=" M 155.26 114.77 C 154.15 110.65 157.53 107.15 157.11 103.08 C 164.03 105.73 171.01 108.24 177.93 110.91 C 178.29 112.42 179.08 114.02 178.41 115.57 C 177.10 118.91 173.39 120.12 170.30 121.19 C 165.78 121.82 161.25 120.86 157.02 119.29 C 157.13 118.81 157.35 117.84 157.45 117.36 C 156.70 116.51 155.91 115.69 155.26 114.77 Z" />
</g>
<g id="#3c2e66ff">
<path fill="#3c2e66" opacity="1.00" d=" M 122.58 116.61 C 124.50 113.37 124.91 109.48 126.35 106.03 C 126.93 107.10 127.49 108.18 128.04 109.27 C 128.25 110.01 128.46 110.75 128.68 111.49 C 128.61 112.59 128.50 113.69 128.33 114.78 C 127.38 116.87 126.28 118.90 125.25 120.95 C 125.59 121.94 125.95 122.92 126.32 123.91 C 125.78 123.41 124.69 122.42 124.14 121.93 L 122.73 123.05 C 121.92 123.68 121.11 124.31 120.29 124.92 C 118.28 125.66 116.21 126.19 114.10 126.55 C 112.70 126.68 111.29 126.75 109.88 126.75 C 109.37 126.75 108.35 126.76 107.84 126.76 C 106.76 126.58 105.68 126.36 104.62 126.10 C 104.87 125.47 105.37 124.21 105.62 123.58 C 111.36 121.53 118.28 121.53 122.58 116.61 Z" />
</g>
<g id="#64779cff">
<path fill="#64779c" opacity="1.00" d=" M 128.04 109.27 C 128.19 108.60 128.49 107.25 128.64 106.58 C 130.54 107.72 132.44 108.86 134.35 109.99 C 132.80 110.86 131.24 111.73 129.69 112.59 L 128.68 111.49 C 128.46 110.75 128.25 110.01 128.04 109.27 Z" />
</g>
<g id="#8f9eb9ff">
<path fill="#8f9eb9" opacity="1.00" d=" M 79.71 115.59 C 84.24 113.82 88.75 111.97 93.13 109.84 C 93.84 113.52 94.67 117.22 96.40 120.58 C 94.78 122.11 93.16 123.65 91.42 125.05 C 88.97 120.32 83.42 119.03 79.71 115.59 Z" />
</g>
<g id="#7e8dadff">
<path fill="#7e8dad" opacity="1.00" d=" M 129.69 112.59 C 131.24 111.73 132.80 110.86 134.35 109.99 C 138.50 112.37 142.82 114.45 147.07 116.67 C 145.34 117.36 143.52 117.90 141.96 118.93 C 141.11 120.21 140.52 121.63 139.85 123.01 C 136.27 119.72 133.07 116.06 129.69 112.59 Z" />
</g>
<g id="#7485a8ff">
<path fill="#7485a8" opacity="1.00" d=" M 125.25 120.95 C 126.28 118.90 127.38 116.87 128.33 114.78 C 129.90 116.41 131.45 118.04 133.02 119.67 C 130.27 121.61 128.61 124.42 129.34 127.86 C 127.75 127.09 126.97 125.45 126.32 123.91 C 125.95 122.92 125.59 121.94 125.25 120.95 Z" />
</g>
<g id="#9fabc3ff">
<path fill="#9fabc3" opacity="1.00" d=" M 76.14 116.59 C 77.34 116.28 78.53 115.96 79.71 115.59 C 83.42 119.03 88.97 120.32 91.42 125.05 C 88.00 127.45 84.43 130.67 79.99 130.46 C 74.00 129.19 71.38 120.75 76.14 116.59 Z" />
</g>
<g id="#99a5beff">
<path fill="#99a5be" opacity="1.00" d=" M 141.96 118.93 C 143.52 117.90 145.34 117.36 147.07 116.67 C 151.48 118.96 156.12 120.80 160.94 122.04 C 163.15 122.44 163.50 125.16 163.69 127.00 C 164.09 131.38 159.36 135.40 155.12 133.87 C 149.15 131.73 144.56 127.08 139.85 123.01 C 140.52 121.63 141.11 120.21 141.96 118.93 Z" />
</g>
<g id="#b3bed4ff">
<path fill="#b3bed4" opacity="1.00" d=" M 59.31 118.19 C 62.79 118.63 66.31 118.35 69.79 118.76 C 66.44 119.09 63.32 120.38 60.39 121.99 C 60.26 121.84 59.98 121.53 59.84 121.38 C 59.65 120.31 59.47 119.25 59.31 118.19 Z" />
</g>
<g id="#adb8ccff">
<path fill="#adb8cc" opacity="1.00" d=" M 62.03 123.38 C 65.05 121.78 68.30 120.70 71.62 119.92 C 71.51 122.67 71.94 125.39 72.91 127.97 C 70.81 130.06 68.77 132.23 66.43 134.07 C 64.08 131.18 61.95 128.11 60.26 124.79 C 60.70 124.44 61.58 123.73 62.03 123.38 Z" />
</g>
<g id="#8c9ab6ff">
<path fill="#8c9ab6" opacity="1.00" d=" M 129.34 127.86 C 128.61 124.42 130.27 121.61 133.02 119.67 C 136.80 123.64 140.94 127.26 145.28 130.61 C 142.26 131.77 139.08 133.36 138.82 136.98 C 136.40 134.83 134.15 132.48 131.57 130.51 C 130.80 129.86 130.08 129.16 129.34 128.49 L 129.34 127.86 Z" />
</g>
<g id="#a8b4c9ff">
<path fill="#a8b4c9" opacity="1.00" d=" M 97.73 122.64 C 97.87 122.75 98.15 122.98 98.29 123.09 L 99.47 123.77 C 98.87 125.06 98.25 126.35 97.71 127.67 C 96.27 130.99 95.17 134.45 94.19 137.94 C 90.05 140.48 85.40 142.21 80.48 142.13 C 80.62 140.50 80.77 138.87 80.99 137.26 C 81.23 135.77 81.52 134.29 81.82 132.81 C 87.99 131.00 93.20 127.08 97.73 122.64 Z" />
</g>
<g id="#4578cfff">
<path fill="#4578cf" opacity="1.00" d=" M 120.29 124.92 C 121.11 124.31 121.92 123.68 122.73 123.05 C 123.81 124.61 124.70 126.29 125.37 128.07 C 124.65 128.26 123.92 128.44 123.20 128.63 C 123.52 131.13 123.69 133.65 123.56 136.17 C 122.96 135.19 122.37 134.21 121.78 133.23 C 119.30 134.97 116.88 136.79 114.55 138.72 C 113.78 137.70 113.00 136.68 112.23 135.66 C 112.49 133.57 112.77 131.47 113.12 129.40 C 113.63 130.96 114.15 132.53 114.66 134.10 C 117.85 132.23 121.58 129.04 120.29 124.92 Z" />
</g>
<g id="#afb9ceff">
<path fill="#afb9ce" opacity="1.00" d=" M 171.06 123.81 C 173.53 123.62 176.00 123.46 178.47 123.29 C 178.41 124.78 178.35 126.27 178.30 127.75 C 175.92 126.37 173.44 125.18 171.06 123.81 Z" />
</g>
<g id="#4c85d7ff">
<path fill="#4c85d7" opacity="1.00" d=" M 99.47 123.77 C 99.87 123.97 100.68 124.39 101.09 124.60 C 100.43 127.13 99.09 129.98 100.63 132.47 C 102.49 135.81 104.12 139.32 104.52 143.17 C 103.62 146.27 102.84 149.45 101.23 152.28 C 100.76 148.86 100.79 145.40 100.59 141.96 C 100.39 139.12 98.10 136.98 97.56 134.23 C 97.27 132.05 97.50 129.84 97.71 127.67 C 98.25 126.35 98.87 125.06 99.47 123.77 Z" />
</g>
<g id="#3a63bdff">
<path fill="#3a63bd" opacity="1.00" d=" M 101.09 124.60 C 102.24 125.13 103.42 125.65 104.62 126.10 C 105.68 126.36 106.76 126.58 107.84 126.76 C 105.99 132.09 107.12 138.00 104.52 143.17 C 104.12 139.32 102.49 135.81 100.63 132.47 C 99.09 129.98 100.43 127.13 101.09 124.60 Z" />
</g>
<g id="#3c65bfff">
<path fill="#3c65bf" opacity="1.00" d=" M 114.10 126.55 C 116.21 126.19 118.28 125.66 120.29 124.92 C 121.58 129.04 117.85 132.23 114.66 134.10 C 114.15 132.53 113.63 130.96 113.12 129.40 C 113.45 128.45 113.78 127.50 114.10 126.55 Z" />
</g>
<g id="#335397ff">
<path fill="#335397" opacity="1.00" d=" M 107.84 126.76 C 108.35 126.76 109.37 126.75 109.88 126.75 C 110.52 131.99 108.99 137.14 107.46 142.09 C 105.64 147.10 103.83 152.29 100.42 156.47 C 99.44 157.78 97.83 158.16 96.34 158.57 L 96.47 158.42 C 98.23 156.51 99.89 154.50 101.23 152.28 C 102.84 149.45 103.62 146.27 104.52 143.17 C 107.12 138.00 105.99 132.09 107.84 126.76 Z" />
</g>
<g id="#5ca6f1ff">
<path fill="#5ca6f1" opacity="1.00" d=" M 94.19 137.94 C 95.17 134.45 96.27 130.99 97.71 127.67 C 97.50 129.84 97.27 132.05 97.56 134.23 C 98.10 136.98 100.39 139.12 100.59 141.96 C 100.79 145.40 100.76 148.86 101.23 152.28 C 99.89 154.50 98.23 156.51 96.47 158.42 C 94.10 157.67 93.16 155.35 93.03 153.06 C 92.57 147.97 94.18 143.03 94.19 137.94 Z" />
</g>
<g id="#477bb3fd">
<path fill="#477bb3" opacity="1.00" d=" M 123.20 128.63 C 123.92 128.44 124.65 128.26 125.37 128.07 C 125.66 129.32 126.00 130.57 126.18 131.84 C 126.17 135.28 126.17 138.72 126.15 142.16 C 125.70 147.11 124.57 152.06 122.65 156.65 C 121.92 158.58 120.03 159.38 118.19 159.88 L 118.48 159.41 C 119.91 157.28 120.94 154.92 121.82 152.51 C 124.45 147.46 122.90 141.61 123.56 136.17 C 123.69 133.65 123.52 131.13 123.20 128.63 Z" />
</g>
<g id="#b2bbceff">
<path fill="#b2bbce" opacity="1.00" d=" M 68.08 135.80 C 70.15 133.73 72.14 131.56 74.23 129.50 C 76.03 130.65 77.90 131.70 79.82 132.65 C 79.72 133.21 79.52 134.33 79.42 134.88 C 79.04 137.11 78.66 139.33 78.31 141.56 C 74.62 140.16 71.24 138.13 68.08 135.80 Z" />
</g>
<g id="#a6b1c6ff">
<path fill="#a6b1c6" opacity="1.00" d=" M 138.82 136.98 C 139.08 133.36 142.26 131.77 145.28 130.61 C 148.19 133.05 151.77 134.39 155.12 136.07 C 157.17 138.89 157.46 142.59 158.14 145.93 C 156.50 145.72 154.86 145.50 153.23 145.27 C 147.93 143.49 143.07 140.60 138.82 136.98 Z" />
</g>
<g id="#0d192369">
<path fill="#0d1923" opacity="0.41" d=" M 126.18 131.84 C 127.33 135.18 127.00 138.79 126.15 142.16 C 126.17 138.72 126.17 135.28 126.18 131.84 Z" />
</g>
<g id="#5396e5ff">
<path fill="#5396e5" opacity="1.00" d=" M 114.55 138.72 C 116.88 136.79 119.30 134.97 121.78 133.23 C 122.37 134.21 122.96 135.19 123.56 136.17 C 122.90 141.61 124.45 147.46 121.82 152.51 C 120.92 150.15 120.93 146.91 118.48 145.51 C 116.72 145.09 115.64 147.00 114.33 147.84 C 114.20 144.98 113.75 142.13 112.60 139.49 C 112.34 138.23 112.22 136.95 112.23 135.66 C 113.00 136.68 113.78 137.70 114.55 138.72 Z" />
</g>
<g id="#b0baccff">
<path fill="#b0bacc" opacity="1.00" d=" M 158.05 136.41 C 159.98 135.61 161.90 134.80 163.80 133.94 C 166.09 136.17 168.37 138.40 170.62 140.67 C 168.15 143.02 164.96 144.34 161.76 145.36 C 161.38 145.43 160.62 145.57 160.24 145.64 C 159.53 142.56 158.80 139.49 158.05 136.41 Z" />
</g>
<g id="#5eadf5ff">
<path fill="#5eadf5" opacity="1.00" d=" M 112.60 139.49 C 113.75 142.13 114.20 144.98 114.33 147.84 C 115.64 147.00 116.72 145.09 118.48 145.51 C 120.93 146.91 120.92 150.15 121.82 152.51 C 120.94 154.92 119.91 157.28 118.48 159.41 C 116.54 159.07 115.11 157.50 114.60 155.66 C 112.97 150.45 112.20 144.95 112.60 139.49 Z" />
</g>
</svg>
