<?xml version="1.0" encoding="UTF-8" ?>
<!DOCTYPE svg PUBLIC "-//W3C//DTD SVG 1.1//EN" "http://www.w3.org/Graphics/SVG/1.1/DTD/svg11.dtd">
<svg width="44pt" height="72pt" viewBox="0 0 44 72" version="1.1" xmlns="http://www.w3.org/2000/svg">
<g id="#fefefaff">
<path fill="#fefefa" opacity="1.00" d=" M 14.49 8.11 C 14.72 8.12 15.20 8.15 15.44 8.16 C 16.72 11.11 18.01 14.05 19.27 17.00 C 19.55 18.66 19.73 20.34 19.93 22.01 C 16.56 22.64 12.43 23.59 9.98 20.42 C 12.63 16.83 12.90 12.17 14.49 8.11 Z" />
</g>
<g id="#dda366ff">
<path fill="#dda366" opacity="1.00" d=" M 19.27 17.00 C 19.52 17.45 20.00 18.35 20.25 18.80 C 25.12 19.90 30.03 22.89 31.17 28.10 C 31.07 28.57 30.89 29.50 30.79 29.96 C 27.96 31.47 27.18 34.87 25.01 37.03 C 23.17 38.53 21.03 39.60 19.00 40.82 C 18.06 39.54 17.13 38.24 16.14 37.00 C 15.29 36.24 14.43 35.49 13.53 34.80 C 10.83 34.38 7.60 33.32 5.18 35.10 C 3.02 37.07 4.24 40.15 4.97 42.48 L 4.39 42.35 C 2.35 40.32 1.33 37.31 0.98 34.50 C 1.50 33.66 2.01 32.82 2.51 31.97 C 3.47 31.93 5.39 31.84 6.35 31.80 C 9.84 31.62 13.36 31.85 16.75 32.68 C 17.92 33.31 19.07 33.96 20.23 34.62 C 23.92 34.84 26.67 30.76 25.47 27.36 C 24.96 24.54 22.10 23.34 19.93 22.01 C 19.73 20.34 19.55 18.66 19.27 17.00 Z" />
</g>
<g id="#fec47eff">
<path fill="#fec47e" opacity="1.00" d=" M 0.98 34.50 C 0.45 28.40 3.88 22.59 9.20 19.72 L 9.98 20.42 C 12.43 23.59 16.56 22.64 19.93 22.01 C 22.10 23.34 24.96 24.54 25.47 27.36 C 26.67 30.76 23.92 34.84 20.23 34.62 C 21.00 33.28 22.53 31.49 20.74 30.21 C 18.78 29.72 17.53 31.07 16.75 32.68 C 13.36 31.85 9.84 31.62 6.35 31.80 C 5.90 30.54 5.46 29.28 5.00 28.02 C 4.58 28.28 3.73 28.80 3.31 29.06 C 3.11 29.79 2.71 31.24 2.51 31.97 C 2.01 32.82 1.50 33.66 0.98 34.50 Z" />
</g>
<g id="#695138ff">
<path fill="#695138" opacity="1.00" d=" M 3.31 29.06 C 3.73 28.80 4.58 28.28 5.00 28.02 C 5.46 29.28 5.90 30.54 6.35 31.80 C 5.39 31.84 3.47 31.93 2.51 31.97 C 2.71 31.24 3.11 29.79 3.31 29.06 Z" />
<path fill="#695138" opacity="1.00" d=" M 16.75 32.68 C 17.53 31.07 18.78 29.72 20.74 30.21 C 22.53 31.49 21.00 33.28 20.23 34.62 C 19.07 33.96 17.92 33.31 16.75 32.68 M 19.27 31.26 C 19.74 31.70 19.74 31.70 19.27 31.26 Z" />
</g>
<g id="#cf9055ff">
<path fill="#cf9055" opacity="1.00" d=" M 31.17 28.10 C 32.38 31.62 32.05 35.43 30.68 38.85 C 29.94 37.03 29.76 35.07 29.68 33.13 C 26.92 40.21 19.67 43.65 13.00 46.15 C 15.19 47.08 17.35 48.11 19.34 49.42 C 19.17 50.23 18.84 51.86 18.67 52.67 C 16.57 52.84 14.56 53.47 12.61 54.22 C 12.13 53.45 11.72 52.65 11.38 51.82 C 10.92 50.22 10.45 48.62 9.86 47.06 C 9.77 46.82 9.58 46.33 9.49 46.09 C 7.60 45.12 5.87 43.87 4.39 42.35 L 4.97 42.48 C 5.38 42.55 6.20 42.68 6.61 42.75 C 8.94 43.08 11.47 43.76 13.70 42.59 C 15.91 41.66 15.65 38.93 16.14 37.00 C 17.13 38.24 18.06 39.54 19.00 40.82 C 21.03 39.60 23.17 38.53 25.01 37.03 C 27.18 34.87 27.96 31.47 30.79 29.96 C 30.89 29.50 31.07 28.57 31.17 28.10 Z" />
</g>
<g id="#bd844aff">
<path fill="#bd844a" opacity="1.00" d=" M 19.27 31.26 C 19.74 31.70 19.74 31.70 19.27 31.26 Z" />
<path fill="#bd844a" opacity="1.00" d=" M 12.61 54.22 C 14.56 53.47 16.57 52.84 18.67 52.67 C 19.02 52.89 19.73 53.32 20.08 53.54 C 19.35 53.69 17.89 54.00 17.16 54.16 C 16.89 54.58 16.33 55.41 16.06 55.83 C 18.91 55.95 21.83 56.16 24.48 57.36 C 23.68 57.64 22.09 58.20 21.29 58.48 C 21.32 59.69 21.37 60.91 21.47 62.12 C 22.09 62.88 22.74 63.62 23.35 64.39 C 23.52 64.69 23.86 65.29 24.04 65.59 C 23.01 66.27 21.97 66.91 20.90 67.52 C 19.79 66.73 18.96 65.67 18.22 64.55 C 14.89 66.80 13.26 62.14 15.59 60.07 C 15.07 60.15 14.03 60.31 13.51 60.39 C 13.56 58.68 13.38 56.96 12.46 55.47 L 11.99 54.45 L 12.61 54.22 Z" />
</g>
<g id="#a5703cff">
<path fill="#a5703c" opacity="1.00" d=" M 13.00 46.15 C 19.67 43.65 26.92 40.21 29.68 33.13 C 29.76 35.07 29.94 37.03 30.68 38.85 C 29.72 40.73 28.50 42.45 27.02 43.95 C 26.87 47.22 27.44 50.44 28.00 53.64 C 28.20 55.92 29.17 57.99 30.75 59.64 C 32.30 58.76 34.01 58.26 35.79 58.20 C 35.88 57.59 36.05 56.35 36.14 55.74 C 36.71 57.41 36.51 59.19 36.15 60.87 C 33.92 62.86 31.28 64.32 28.43 65.20 C 27.46 62.65 25.19 63.11 23.35 64.39 C 22.74 63.62 22.09 62.88 21.47 62.12 C 23.58 61.27 25.85 59.92 24.48 57.36 C 21.83 56.16 18.91 55.95 16.06 55.83 C 16.33 55.41 16.89 54.58 17.16 54.16 C 17.89 54.00 19.35 53.69 20.08 53.54 C 22.07 53.52 22.60 51.55 23.26 50.06 C 21.95 49.84 20.65 49.63 19.34 49.42 C 17.35 48.11 15.19 47.08 13.00 46.15 Z" />
</g>
<g id="#fd99b6ff">
<path fill="#fd99b6" opacity="1.00" d=" M 5.18 35.10 C 7.60 33.32 10.83 34.38 13.53 34.80 C 13.10 36.79 13.68 39.45 11.84 40.83 C 10.20 41.71 8.38 42.18 6.61 42.75 C 6.20 42.68 5.38 42.55 4.97 42.48 C 4.24 40.15 3.02 37.07 5.18 35.10 Z" />
</g>
<g id="#c6717cff">
<path fill="#c6717c" opacity="1.00" d=" M 13.53 34.80 C 14.43 35.49 15.29 36.24 16.14 37.00 C 15.65 38.93 15.91 41.66 13.70 42.59 C 11.47 43.76 8.94 43.08 6.61 42.75 C 8.38 42.18 10.20 41.71 11.84 40.83 C 13.68 39.45 13.10 36.79 13.53 34.80 Z" />
</g>
<g id="#da7884fb">
<path fill="#da7884" opacity="1.00" d=" M 9.86 47.06 C 10.45 48.62 10.92 50.22 11.38 51.82 C 8.06 54.00 6.79 48.26 9.86 47.06 Z" />
</g>
<g id="#e07d87ff">
<path fill="#e07d87" opacity="1.00" d=" M 19.34 49.42 C 20.65 49.63 21.95 49.84 23.26 50.06 C 22.60 51.55 22.07 53.52 20.08 53.54 C 19.73 53.32 19.02 52.89 18.67 52.67 C 18.84 51.86 19.17 50.23 19.34 49.42 Z" />
</g>
<g id="#c98e51ff">
<path fill="#c98e51" opacity="1.00" d=" M 28.00 53.64 C 30.76 53.69 34.75 52.49 36.14 55.74 C 36.05 56.35 35.88 57.59 35.79 58.20 C 34.01 58.26 32.30 58.76 30.75 59.64 C 29.17 57.99 28.20 55.92 28.00 53.64 Z" />
</g>
<g id="#eb838dff">
<path fill="#eb838d" opacity="1.00" d=" M 13.51 60.39 C 10.59 60.07 10.22 56.96 12.46 55.47 C 13.38 56.96 13.56 58.68 13.51 60.39 Z" />
</g>
<g id="#e37f88ff">
<path fill="#e37f88" opacity="1.00" d=" M 21.29 58.48 C 22.09 58.20 23.68 57.64 24.48 57.36 C 25.85 59.92 23.58 61.27 21.47 62.12 C 21.37 60.91 21.32 59.69 21.29 58.48 Z" />
</g>
<g id="#e4838dff">
<path fill="#e4838d" opacity="1.00" d=" M 28.43 65.20 C 31.28 64.32 33.92 62.86 36.15 60.87 C 36.04 61.42 35.82 62.50 35.71 63.05 C 34.38 63.77 33.25 64.75 32.27 65.89 C 29.93 68.12 25.84 68.91 24.04 65.59 C 23.86 65.29 23.52 64.69 23.35 64.39 C 25.19 63.11 27.46 62.65 28.43 65.20 Z" />
</g>
<g id="#3a1e1e75">
<path fill="#3a1e1e" opacity="0.46" d=" M 32.27 65.89 C 33.25 64.75 34.38 63.77 35.71 63.05 C 36.84 64.94 33.94 67.28 32.27 65.89 Z" />
</g>
</svg>
