<?xml version="1.0" encoding="UTF-8" ?>
<!DOCTYPE svg PUBLIC "-//W3C//DTD SVG 1.1//EN" "http://www.w3.org/Graphics/SVG/1.1/DTD/svg11.dtd">
<svg width="80pt" height="135pt" viewBox="0 0 80 135" version="1.1" xmlns="http://www.w3.org/2000/svg">
<g id="#39392175">
<path fill="#393921" opacity="0.46" d=" M 27.81 4.96 C 30.71 3.51 34.30 3.62 37.22 4.97 C 34.09 4.76 30.94 4.86 27.81 4.96 Z" />
</g>
<g id="#fffe7fff">
<path fill="#fffe7f" opacity="1.00" d=" M 2.85 34.03 C 3.31 20.25 14.00 7.13 27.81 4.96 C 30.94 4.86 34.09 4.76 37.22 4.97 C 39.80 5.54 42.40 6.20 44.69 7.57 C 41.93 9.87 38.10 7.83 35.13 7.03 C 31.21 5.09 27.57 8.25 23.82 9.08 C 19.64 11.66 14.90 13.85 12.00 18.01 C 8.99 21.89 7.10 26.51 6.36 31.35 C 4.67 33.78 4.87 36.93 6.97 39.05 C 8.98 41.63 11.49 43.80 14.30 45.48 C 13.57 45.76 12.12 46.33 11.40 46.62 C 10.45 45.50 9.33 44.54 8.23 43.58 C 8.34 46.95 7.88 50.29 7.29 53.60 C 6.82 51.80 5.56 49.89 6.22 48.02 C 7.03 46.58 7.50 44.93 7.08 43.29 L 6.76 43.04 C 4.06 40.97 2.84 37.35 2.85 34.03 Z" />
</g>
<g id="#f5e06cff">
<path fill="#f5e06c" opacity="1.00" d=" M 23.82 9.08 C 27.57 8.25 31.21 5.09 35.13 7.03 C 38.10 7.83 41.93 9.87 44.69 7.57 C 49.12 9.72 52.60 13.38 55.59 17.23 C 53.43 16.87 51.31 15.71 49.11 16.03 C 45.33 17.66 42.53 21.03 38.61 22.37 C 34.42 23.08 29.75 22.41 26.13 25.09 C 20.99 28.55 19.71 35.21 19.75 41.00 C 19.96 44.33 18.05 47.18 17.18 50.28 C 15.43 49.47 13.73 48.56 12.10 47.53 L 11.40 46.62 C 12.12 46.33 13.57 45.76 14.30 45.48 C 14.73 45.46 15.59 45.42 16.02 45.39 C 15.46 43.45 14.86 41.52 14.02 39.68 C 13.77 39.15 13.26 38.09 13.00 37.55 C 11.72 34.90 10.41 32.25 8.83 29.75 C 8.00 30.27 7.18 30.81 6.36 31.35 C 7.10 26.51 8.99 21.89 12.00 18.01 C 14.90 13.85 19.64 11.66 23.82 9.08 Z" />
</g>
<g id="#e3ce67ff">
<path fill="#e3ce67" opacity="1.00" d=" M 38.61 22.37 C 42.53 21.03 45.33 17.66 49.11 16.03 C 51.31 15.71 53.43 16.87 55.59 17.23 C 56.68 18.91 57.66 20.65 58.66 22.39 C 56.10 22.38 52.73 21.43 51.10 24.06 C 48.86 27.20 47.16 30.77 44.17 33.32 C 42.44 32.18 39.91 30.00 37.96 31.98 C 34.30 35.29 31.27 39.49 29.49 44.11 C 29.53 44.64 29.62 45.71 29.67 46.25 C 29.88 46.76 30.09 47.26 30.32 47.77 C 28.17 49.26 26.01 50.74 23.81 52.15 C 24.78 55.98 22.29 59.80 23.66 63.68 C 22.46 62.27 22.00 60.50 21.67 58.72 C 21.51 57.92 21.25 57.15 20.93 56.40 C 20.10 54.84 16.73 52.81 19.51 51.31 C 18.73 50.97 17.95 50.63 17.18 50.28 C 18.05 47.18 19.96 44.33 19.75 41.00 C 19.71 35.21 20.99 28.55 26.13 25.09 C 29.75 22.41 34.42 23.08 38.61 22.37 Z" />
</g>
<g id="#cdaf52ff">
<path fill="#cdaf52" opacity="1.00" d=" M 51.10 24.06 C 52.73 21.43 56.10 22.38 58.66 22.39 C 59.44 23.91 60.37 25.39 60.80 27.06 C 61.25 29.95 59.16 32.23 58.00 34.66 C 60.41 38.09 63.42 41.45 63.90 45.80 C 62.76 46.64 62.33 47.64 62.62 48.79 L 62.55 48.67 C 62.19 48.61 61.48 48.49 61.12 48.43 C 57.87 51.42 55.09 55.26 50.66 56.56 C 44.78 59.12 38.57 56.13 32.81 54.65 C 36.18 49.30 42.64 47.93 47.59 44.55 C 50.30 42.35 54.50 45.72 56.73 42.80 C 57.24 40.04 57.03 37.22 56.99 34.43 C 53.27 36.77 50.92 40.81 46.88 42.68 C 43.08 44.52 39.46 46.74 35.54 48.32 C 32.51 49.58 29.07 50.12 26.58 52.41 C 27.09 52.72 28.12 53.35 28.64 53.67 C 27.33 55.75 25.84 57.76 24.90 60.05 C 24.46 62.73 24.61 65.47 24.65 68.17 C 24.42 66.65 24.06 65.16 23.66 63.68 C 22.29 59.80 24.78 55.98 23.81 52.15 C 26.01 50.74 28.17 49.26 30.32 47.77 C 30.09 47.26 29.88 46.76 29.67 46.25 C 36.10 44.72 42.12 41.42 46.96 36.93 C 46.06 35.70 45.17 34.46 44.17 33.32 C 47.16 30.77 48.86 27.20 51.10 24.06 Z" />
</g>
<g id="#222022ff">
<path fill="#222022" opacity="1.00" d=" M 6.36 31.35 C 7.18 30.81 8.00 30.27 8.83 29.75 C 10.41 32.25 11.72 34.90 13.00 37.55 C 10.26 39.14 11.46 44.11 14.87 43.72 C 14.66 42.71 14.23 40.69 14.02 39.68 C 14.86 41.52 15.46 43.45 16.02 45.39 C 15.59 45.42 14.73 45.46 14.30 45.48 C 11.49 43.80 8.98 41.63 6.97 39.05 C 4.87 36.93 4.67 33.78 6.36 31.35 Z" />
</g>
<g id="#191719ff">
<path fill="#191719" opacity="1.00" d=" M 37.96 31.98 C 39.91 30.00 42.44 32.18 44.17 33.32 C 45.17 34.46 46.06 35.70 46.96 36.93 C 42.12 41.42 36.10 44.72 29.67 46.25 C 29.62 45.71 29.53 44.64 29.49 44.11 C 31.27 39.49 34.30 35.29 37.96 31.98 M 30.16 43.24 C 31.21 45.63 32.87 44.04 34.34 43.11 C 34.56 41.69 34.48 40.31 34.09 38.97 C 31.85 38.81 31.17 41.74 30.16 43.24 Z" />
</g>
<g id="#c2a149ff">
<path fill="#c2a149" opacity="1.00" d=" M 46.88 42.68 C 50.92 40.81 53.27 36.77 56.99 34.43 C 57.03 37.22 57.24 40.04 56.73 42.80 C 54.50 45.72 50.30 42.35 47.59 44.55 C 42.64 47.93 36.18 49.30 32.81 54.65 C 30.89 53.52 29.66 55.07 30.54 56.95 C 28.98 58.26 27.41 59.56 25.98 61.01 C 25.98 61.37 25.98 62.09 25.98 62.46 C 26.07 69.83 26.70 77.19 28.15 84.43 C 28.52 86.80 29.27 89.08 30.20 91.29 C 33.36 88.79 33.77 84.54 35.24 81.04 C 36.16 78.19 37.88 75.28 37.00 72.20 C 36.10 67.83 35.73 63.07 32.62 59.59 C 32.74 59.11 33.00 58.16 33.13 57.68 C 34.61 60.13 37.14 62.42 36.70 65.55 C 36.14 68.41 38.05 70.74 39.44 73.02 C 38.61 76.01 35.68 78.97 37.23 82.14 C 37.43 82.35 37.82 82.77 38.01 82.98 C 37.48 82.64 36.41 81.97 35.87 81.63 C 35.46 82.79 35.05 83.94 34.64 85.10 C 35.64 85.32 36.63 85.56 37.63 85.80 C 34.57 87.09 33.28 90.27 31.69 92.93 C 28.56 93.37 28.13 89.92 27.22 87.75 C 25.20 81.42 24.77 74.77 24.65 68.17 C 24.61 65.47 24.46 62.73 24.90 60.05 C 25.84 57.76 27.33 55.75 28.64 53.67 C 28.12 53.35 27.09 52.72 26.58 52.41 C 29.07 50.12 32.51 49.58 35.54 48.32 C 39.46 46.74 43.08 44.52 46.88 42.68 Z" />
</g>
<g id="#a3a192ff">
<path fill="#a3a192" opacity="1.00" d=" M 14.87 43.72 C 11.46 44.11 10.26 39.14 13.00 37.55 C 13.26 38.09 13.77 39.15 14.02 39.68 C 14.23 40.69 14.66 42.71 14.87 43.72 Z" />
</g>
<g id="#a7a2a5ff">
<path fill="#a7a2a5" opacity="1.00" d=" M 30.16 43.24 C 31.17 41.74 31.85 38.81 34.09 38.97 C 34.48 40.31 34.56 41.69 34.34 43.11 C 32.87 44.04 31.21 45.63 30.16 43.24 Z" />
</g>
<g id="#5d5d3592">
<path fill="#5d5d35" opacity="0.57" d=" M 6.76 43.04 L 7.08 43.29 C 7.50 44.93 7.03 46.58 6.22 48.02 C 5.38 46.55 5.50 44.25 6.76 43.04 Z" />
</g>
<g id="#f0d461ff">
<path fill="#f0d461" opacity="1.00" d=" M 8.23 43.58 C 9.33 44.54 10.45 45.50 11.40 46.62 L 12.10 47.53 C 13.53 49.77 14.96 52.00 16.54 54.13 C 14.22 54.91 11.92 55.69 9.62 56.49 C 9.03 55.86 8.46 55.22 7.91 54.56 C 7.75 54.32 7.44 53.84 7.29 53.60 C 7.88 50.29 8.34 46.95 8.23 43.58 Z" />
</g>
<g id="#ba9f3bff">
<path fill="#ba9f3b" opacity="1.00" d=" M 12.10 47.53 C 13.73 48.56 15.43 49.47 17.18 50.28 C 17.95 50.63 18.73 50.97 19.51 51.31 C 16.73 52.81 20.10 54.84 20.93 56.40 C 18.62 57.44 16.25 58.35 13.76 58.82 C 12.96 58.62 12.17 58.41 11.38 58.18 C 10.94 57.76 10.06 56.92 9.62 56.49 C 11.92 55.69 14.22 54.91 16.54 54.13 C 14.96 52.00 13.53 49.77 12.10 47.53 Z" />
</g>
<g id="#8d7224ff">
<path fill="#8d7224" opacity="1.00" d=" M 61.12 48.43 C 61.48 48.49 62.19 48.61 62.55 48.67 C 60.48 51.52 58.02 54.08 55.10 56.06 C 52.19 57.63 49.29 59.50 45.97 60.02 C 41.60 59.77 37.44 58.29 33.28 57.03 L 33.13 57.68 C 33.00 58.16 32.74 59.11 32.62 59.59 C 32.10 58.93 31.06 57.61 30.54 56.95 C 29.66 55.07 30.89 53.52 32.81 54.65 C 38.57 56.13 44.78 59.12 50.66 56.56 C 55.09 55.26 57.87 51.42 61.12 48.43 Z" />
<path fill="#8d7224" opacity="1.00" d=" M 21.00 97.78 C 22.44 96.54 24.16 95.68 25.95 95.07 C 34.74 93.85 44.08 96.60 50.54 102.74 C 50.28 103.82 50.04 104.91 49.82 106.00 C 48.53 104.15 47.18 102.32 45.46 100.84 C 40.22 97.56 33.96 96.00 27.79 96.25 C 25.60 96.76 22.75 96.70 21.49 98.94 C 21.41 101.24 21.93 103.54 22.04 105.85 C 21.65 103.20 20.79 100.36 21.00 97.78 Z" />
</g>
<g id="#bf9f49ff">
<path fill="#bf9f49" opacity="1.00" d=" M 62.55 48.67 L 62.62 48.79 C 63.36 49.91 63.71 51.22 64.12 52.49 C 63.29 53.94 62.50 55.42 61.72 56.90 C 63.06 65.93 63.43 75.42 60.24 84.12 C 57.80 90.67 55.48 97.58 50.54 102.74 C 44.08 96.60 34.74 93.85 25.95 95.07 C 25.94 92.19 25.07 89.47 23.21 87.25 C 23.82 86.60 24.43 85.97 25.06 85.34 C 25.55 86.34 26.13 87.33 27.22 87.75 C 28.13 89.92 28.56 93.37 31.69 92.93 C 33.28 90.27 34.57 87.09 37.63 85.80 C 43.41 89.45 48.15 94.85 50.55 101.29 C 53.25 97.90 49.09 94.51 47.31 91.78 C 49.63 88.05 52.53 84.44 53.20 79.96 C 53.96 75.99 52.99 71.98 53.03 67.99 C 54.55 64.61 58.53 62.89 59.71 59.26 C 58.15 58.23 56.61 57.16 55.10 56.06 C 58.02 54.08 60.48 51.52 62.55 48.67 Z" />
</g>
<g id="#fbf175fe">
<path fill="#fbf175" opacity="1.00" d=" M 7.91 54.56 C 8.46 55.22 9.03 55.86 9.62 56.49 C 10.06 56.92 10.94 57.76 11.38 58.18 C 10.92 59.58 10.46 60.98 10.01 62.38 C 9.54 62.11 8.60 61.56 8.13 61.29 C 7.86 59.06 7.77 56.80 7.91 54.56 Z" />
</g>
<g id="#dbbd54ff">
<path fill="#dbbd54" opacity="1.00" d=" M 20.93 56.40 C 21.25 57.15 21.51 57.92 21.67 58.72 C 21.12 61.03 20.39 63.29 19.92 65.62 C 18.69 66.07 17.47 66.52 16.25 66.98 C 16.11 64.45 15.96 61.91 15.62 59.40 C 15.15 59.25 14.22 58.96 13.76 58.82 C 16.25 58.35 18.62 57.44 20.93 56.40 Z" />
</g>
<g id="#cfb355ff">
<path fill="#cfb355" opacity="1.00" d=" M 45.97 60.02 C 49.29 59.50 52.19 57.63 55.10 56.06 C 56.61 57.16 58.15 58.23 59.71 59.26 C 56.59 62.27 53.67 65.50 50.30 68.24 C 47.24 70.48 43.66 68.69 40.52 67.69 C 39.22 67.02 37.97 66.27 36.70 65.55 C 37.14 62.42 34.61 60.13 33.13 57.68 L 33.28 57.03 C 37.44 58.29 41.60 59.77 45.97 60.02 Z" />
</g>
<g id="#bd9b46ff">
<path fill="#bd9b46" opacity="1.00" d=" M 25.98 61.01 C 27.41 59.56 28.98 58.26 30.54 56.95 C 31.06 57.61 32.10 58.93 32.62 59.59 C 35.73 63.07 36.10 67.83 37.00 72.20 C 37.88 75.28 36.16 78.19 35.24 81.04 C 33.77 84.54 33.36 88.79 30.20 91.29 C 29.27 89.08 28.52 86.80 28.15 84.43 C 32.06 78.67 33.70 71.03 30.41 64.60 C 29.74 62.77 27.53 62.92 25.98 62.46 C 25.98 62.09 25.98 61.37 25.98 61.01 Z" />
</g>
<g id="#f1d563ff">
<path fill="#f1d563" opacity="1.00" d=" M 11.38 58.18 C 12.17 58.41 12.96 58.62 13.76 58.82 C 14.22 58.96 15.15 59.25 15.62 59.40 C 15.96 61.91 16.11 64.45 16.25 66.98 C 15.16 67.40 14.06 67.81 12.97 68.23 C 13.03 70.31 13.15 72.39 13.33 74.46 C 13.72 72.71 14.07 70.94 14.43 69.19 C 15.00 69.19 16.15 69.21 16.72 69.21 C 17.79 74.82 20.21 80.00 22.22 85.30 C 21.08 86.68 20.08 88.19 19.08 89.69 C 18.47 89.35 17.25 88.67 16.64 88.34 L 16.21 88.10 C 13.63 81.47 11.79 74.51 11.62 67.36 C 10.04 65.59 9.05 63.44 8.13 61.29 C 8.60 61.56 9.54 62.11 10.01 62.38 C 10.46 60.98 10.92 59.58 11.38 58.18 Z" />
</g>
<g id="#f4dd6bff">
<path fill="#f4dd6b" opacity="1.00" d=" M 19.92 65.62 C 20.39 63.29 21.12 61.03 21.67 58.72 C 22.00 60.50 22.46 62.27 23.66 63.68 C 24.06 65.16 24.42 66.65 24.65 68.17 C 24.77 74.77 25.20 81.42 27.22 87.75 C 26.13 87.33 25.55 86.34 25.06 85.34 C 24.81 84.85 24.31 83.86 24.06 83.37 C 21.03 78.00 18.58 71.90 19.92 65.62 Z" />
</g>
<g id="#8d7126ff">
<path fill="#8d7126" opacity="1.00" d=" M 59.71 59.26 C 58.53 62.89 54.55 64.61 53.03 67.99 C 52.99 71.98 53.96 75.99 53.20 79.96 C 52.53 84.44 49.63 88.05 47.31 91.78 C 49.09 94.51 53.25 97.90 50.55 101.29 C 48.15 94.85 43.41 89.45 37.63 85.80 C 36.63 85.56 35.64 85.32 34.64 85.10 C 35.05 83.94 35.46 82.79 35.87 81.63 C 36.41 81.97 37.48 82.64 38.01 82.98 C 38.58 83.55 39.14 84.12 39.71 84.69 C 41.77 86.68 44.05 88.41 46.20 90.30 C 51.12 84.91 53.06 77.15 50.87 70.13 C 50.72 69.65 50.44 68.71 50.30 68.24 C 53.67 65.50 56.59 62.27 59.71 59.26 Z" />
</g>
<g id="#cfb556ff">
<path fill="#cfb556" opacity="1.00" d=" M 25.98 62.46 C 27.53 62.92 29.74 62.77 30.41 64.60 C 33.70 71.03 32.06 78.67 28.15 84.43 C 26.70 77.19 26.07 69.83 25.98 62.46 Z" />
</g>
<g id="#cfa746ff">
<path fill="#cfa746" opacity="1.00" d=" M 16.25 66.98 C 17.47 66.52 18.69 66.07 19.92 65.62 C 18.58 71.90 21.03 78.00 24.06 83.37 C 23.60 83.85 22.68 84.81 22.22 85.30 C 20.21 80.00 17.79 74.82 16.72 69.21 C 16.15 69.21 15.00 69.19 14.43 69.19 C 14.07 70.94 13.72 72.71 13.33 74.46 C 13.15 72.39 13.03 70.31 12.97 68.23 C 14.06 67.81 15.16 67.40 16.25 66.98 Z" />
</g>
<g id="#916c2aff">
<path fill="#916c2a" opacity="1.00" d=" M 36.70 65.55 C 37.97 66.27 39.22 67.02 40.52 67.69 C 40.92 69.56 41.50 71.44 41.43 73.37 C 40.61 76.54 38.85 79.34 37.23 82.14 C 35.68 78.97 38.61 76.01 39.44 73.02 C 38.05 70.74 36.14 68.41 36.70 65.55 Z" />
</g>
<g id="#b18e3cff">
<path fill="#b18e3c" opacity="1.00" d=" M 40.52 67.69 C 43.66 68.69 47.24 70.48 50.30 68.24 C 50.44 68.71 50.72 69.65 50.87 70.13 C 48.82 70.61 46.77 71.08 44.72 71.56 C 44.12 76.35 40.32 79.91 39.71 84.69 C 39.14 84.12 38.58 83.55 38.01 82.98 C 37.82 82.77 37.43 82.35 37.23 82.14 C 38.85 79.34 40.61 76.54 41.43 73.37 C 41.50 71.44 40.92 69.56 40.52 67.69 Z" />
</g>
<g id="#c3a34cff">
<path fill="#c3a34c" opacity="1.00" d=" M 44.72 71.56 C 46.77 71.08 48.82 70.61 50.87 70.13 C 53.06 77.15 51.12 84.91 46.20 90.30 C 44.05 88.41 41.77 86.68 39.71 84.69 C 40.32 79.91 44.12 76.35 44.72 71.56 Z" />
</g>
<g id="#a98f2dff">
<path fill="#a98f2d" opacity="1.00" d=" M 22.22 85.30 C 22.68 84.81 23.60 83.85 24.06 83.37 C 24.31 83.86 24.81 84.85 25.06 85.34 C 24.43 85.97 23.82 86.60 23.21 87.25 C 22.31 88.33 21.47 89.48 20.65 90.63 C 20.26 90.39 19.47 89.92 19.08 89.69 C 20.08 88.19 21.08 86.68 22.22 85.30 Z" />
</g>
<g id="#e6cc60ff">
<path fill="#e6cc60" opacity="1.00" d=" M 16.64 88.34 C 17.25 88.67 18.47 89.35 19.08 89.69 C 19.47 89.92 20.26 90.39 20.65 90.63 C 21.47 89.48 22.31 88.33 23.21 87.25 C 25.07 89.47 25.94 92.19 25.95 95.07 C 24.16 95.68 22.44 96.54 21.00 97.78 C 19.72 94.55 17.59 91.71 16.64 88.34 Z" />
</g>
<g id="#dfc75fff">
<path fill="#dfc75f" opacity="1.00" d=" M 21.49 98.94 C 22.75 96.70 25.60 96.76 27.79 96.25 C 29.63 98.16 33.17 99.77 32.17 103.01 C 30.87 105.19 28.08 105.68 26.05 106.96 C 24.88 107.63 23.91 108.58 22.94 109.51 C 22.56 108.31 22.26 107.09 22.04 105.85 C 23.85 103.82 23.48 100.71 21.49 98.94 Z" />
</g>
<g id="#cdb054ff">
<path fill="#cdb054" opacity="1.00" d=" M 27.79 96.25 C 33.96 96.00 40.22 97.56 45.46 100.84 C 44.98 103.88 44.62 107.17 42.13 109.32 C 37.18 106.87 31.50 105.95 26.05 106.96 C 28.08 105.68 30.87 105.19 32.17 103.01 C 33.17 99.77 29.63 98.16 27.79 96.25 Z" />
</g>
<g id="#fde571ff">
<path fill="#fde571" opacity="1.00" d=" M 21.49 98.94 C 23.48 100.71 23.85 103.82 22.04 105.85 C 21.93 103.54 21.41 101.24 21.49 98.94 Z" />
</g>
<g id="#b19243ff">
<path fill="#b19243" opacity="1.00" d=" M 45.46 100.84 C 47.18 102.32 48.53 104.15 49.82 106.00 C 48.77 108.57 47.60 111.10 45.98 113.37 C 44.77 111.95 43.51 110.58 42.13 109.32 C 44.62 107.17 44.98 103.88 45.46 100.84 Z" />
</g>
<g id="#8d7525fd">
<path fill="#8d7525" opacity="1.00" d=" M 22.94 109.51 C 23.91 108.58 24.88 107.63 26.05 106.96 C 31.50 105.95 37.18 106.87 42.13 109.32 C 43.51 110.58 44.77 111.95 45.98 113.37 C 45.76 113.69 45.31 114.33 45.09 114.65 C 43.04 112.74 40.90 110.88 38.33 109.70 C 34.42 108.28 30.11 107.42 26.01 108.60 C 25.07 109.30 24.15 110.01 23.23 110.74 L 22.90 110.99 C 22.91 110.62 22.93 109.88 22.94 109.51 Z" />
</g>
<g id="#c9ad52ff">
<path fill="#c9ad52" opacity="1.00" d=" M 26.01 108.60 C 30.11 107.42 34.42 108.28 38.33 109.70 C 38.53 111.11 38.75 112.53 38.98 113.94 C 37.39 115.81 35.84 117.75 34.83 120.02 C 36.98 119.80 39.12 119.51 41.19 118.87 C 37.75 123.88 28.90 123.80 26.26 118.36 C 27.00 118.55 27.75 118.71 28.50 118.86 C 29.86 115.75 30.98 112.54 31.68 109.21 C 29.79 109.02 27.90 108.82 26.01 108.60 Z" />
</g>
<g id="#dabf5cff">
<path fill="#dabf5c" opacity="1.00" d=" M 23.23 110.74 C 24.15 110.01 25.07 109.30 26.01 108.60 C 27.90 108.82 29.79 109.02 31.68 109.21 C 30.98 112.54 29.86 115.75 28.50 118.86 C 27.75 118.71 27.00 118.55 26.26 118.36 C 24.93 115.96 24.18 113.30 23.23 110.74 Z" />
</g>
<g id="#ba9943ff">
<path fill="#ba9943" opacity="1.00" d=" M 38.33 109.70 C 40.90 110.88 43.04 112.74 45.09 114.65 C 43.76 116.03 42.56 117.53 41.19 118.87 C 39.12 119.51 36.98 119.80 34.83 120.02 C 35.84 117.75 37.39 115.81 38.98 113.94 C 38.75 112.53 38.53 111.11 38.33 109.70 Z" />
</g>
</svg>
