<?xml version="1.0" encoding="UTF-8" ?>
<!DOCTYPE svg PUBLIC "-//W3C//DTD SVG 1.1//EN" "http://www.w3.org/Graphics/SVG/1.1/DTD/svg11.dtd">
<svg width="148pt" height="181pt" viewBox="0 0 148 181" version="1.1" xmlns="http://www.w3.org/2000/svg">
<g id="#30302f80">
<path fill="#30302f" opacity="0.50" d=" M 21.45 8.41 C 25.44 6.98 28.73 11.18 31.59 13.42 C 44.65 26.45 54.58 42.18 63.91 57.98 C 60.71 57.91 57.64 58.85 54.76 60.16 L 53.65 60.59 C 50.80 57.92 48.08 55.10 45.01 52.69 C 40.58 52.99 40.96 58.86 39.52 62.00 C 32.02 48.84 26.42 34.63 22.46 20.03 C 21.73 16.25 20.07 12.23 21.45 8.41 Z" />
</g>
<g id="#27282980">
<path fill="#272829" opacity="0.50" d=" M 113.02 17.05 C 119.61 13.11 126.93 8.96 134.90 9.65 C 139.78 9.72 142.69 14.76 143.67 19.01 C 145.71 28.51 145.25 38.46 143.27 47.93 C 141.75 53.18 140.42 58.70 136.95 63.07 C 133.58 60.97 129.91 59.42 126.08 58.37 C 130.86 55.44 136.62 54.45 141.11 51.03 C 137.96 51.23 135.09 52.59 132.19 53.70 C 132.15 48.28 131.90 42.85 132.32 37.44 C 134.78 36.22 137.37 35.08 139.22 32.97 C 131.20 35.41 124.18 40.31 116.63 43.85 C 116.28 41.85 115.80 39.85 114.97 37.98 C 103.90 44.11 93.45 51.31 82.34 57.35 C 80.59 58.60 78.54 57.97 76.68 57.42 C 85.24 41.26 98.14 27.59 113.02 17.05 Z" />
</g>
<g id="#23242580">
<path fill="#232425" opacity="0.50" d=" M 116.63 43.85 C 124.18 40.31 131.20 35.41 139.22 32.97 C 137.37 35.08 134.78 36.22 132.32 37.44 C 131.90 42.85 132.15 48.28 132.19 53.70 C 135.09 52.59 137.96 51.23 141.11 51.03 C 136.62 54.45 130.86 55.44 126.08 58.37 C 129.91 59.42 133.58 60.97 136.95 63.07 C 136.30 64.08 135.66 65.08 135.02 66.09 C 135.72 68.71 136.30 71.38 136.53 74.09 C 133.31 74.30 129.87 73.62 126.78 74.69 C 124.05 80.05 122.26 85.85 120.38 91.54 C 121.70 91.89 123.05 92.19 124.34 92.70 C 125.03 94.11 125.14 95.71 125.50 97.22 C 118.98 101.34 110.63 103.63 103.10 101.17 C 99.27 100.23 95.78 98.29 91.97 97.30 C 91.95 99.62 91.88 101.98 91.04 104.17 C 90.97 101.31 91.46 98.48 92.32 95.76 C 91.46 93.99 90.56 92.00 88.50 91.39 C 87.19 90.92 85.88 90.48 84.56 90.07 C 84.51 85.93 86.89 81.35 84.04 77.64 C 82.94 75.35 80.46 75.42 79.27 77.69 C 76.72 75.96 78.53 72.84 78.30 70.37 C 78.16 67.10 76.51 64.10 74.20 61.85 C 75.01 60.36 75.83 58.89 76.68 57.42 C 78.54 57.97 80.59 58.60 82.34 57.35 C 93.45 51.31 103.90 44.11 114.97 37.98 C 115.80 39.85 116.28 41.85 116.63 43.85 Z" />
</g>
<g id="#abaa97ff">
<path fill="#abaa97" opacity="1.00" d=" M 39.52 62.00 C 40.96 58.86 40.58 52.99 45.01 52.69 C 48.08 55.10 50.80 57.92 53.65 60.59 L 54.76 60.16 C 55.83 60.95 56.42 62.04 56.55 63.41 C 55.29 62.82 53.93 62.32 52.93 61.31 C 50.57 58.77 47.45 57.18 44.75 55.05 C 43.12 57.46 42.82 60.37 42.12 63.12 C 41.96 62.04 41.79 60.98 41.60 59.91 C 40.40 64.44 39.67 69.12 37.84 73.46 C 37.31 73.63 36.26 73.96 35.74 74.13 C 37.30 70.18 38.21 66.02 39.52 62.00 Z" />
<path fill="#abaa97" opacity="1.00" d=" M 24.61 89.34 C 28.41 89.47 32.25 90.04 36.03 89.30 C 36.67 89.89 37.31 90.48 37.95 91.08 C 36.38 91.10 34.82 91.13 33.26 91.16 C 33.92 92.06 34.57 92.97 35.23 93.89 C 32.91 100.39 31.00 107.05 29.09 113.69 C 29.53 113.74 30.42 113.86 30.87 113.92 C 26.24 123.98 21.84 134.15 16.96 144.09 C 18.23 139.16 20.10 134.41 21.27 129.46 C 23.47 124.40 25.30 119.19 26.71 113.85 C 28.69 106.61 32.01 99.70 32.90 92.19 C 30.19 91.08 27.39 90.24 24.61 89.34 Z" />
</g>
<g id="#b8aaaaff">
<path fill="#b8aaaa" opacity="1.00" d=" M 68.30 54.00 C 69.22 53.59 70.19 53.27 71.07 53.99 L 70.93 55.30 C 70.82 56.83 70.43 58.69 71.60 59.93 L 71.83 60.19 C 71.71 61.64 71.61 63.09 71.52 64.54 C 71.47 65.69 71.46 66.85 71.48 68.00 C 71.53 68.44 71.64 69.31 71.70 69.75 C 71.19 72.33 70.52 74.93 68.77 76.98 C 66.57 74.24 67.82 70.70 68.02 67.56 C 68.44 64.81 68.61 62.04 68.56 59.26 C 67.21 60.92 65.91 62.80 63.74 63.46 C 64.77 61.66 65.73 59.83 66.64 57.97 C 67.27 56.68 67.82 55.35 68.30 54.00 Z" />
<path fill="#b8aaaa" opacity="1.00" d=" M 36.40 123.99 L 37.31 123.77 C 38.30 129.09 35.93 134.83 38.86 139.77 C 37.30 138.08 35.34 136.45 34.90 134.09 C 35.51 130.74 36.08 127.39 36.40 123.99 Z" />
<path fill="#b8aaaa" opacity="1.00" d=" M 31.26 149.20 C 34.25 147.57 37.73 147.04 40.53 145.03 L 40.33 146.78 C 36.53 148.87 31.71 150.02 29.77 154.36 C 29.55 154.58 29.12 155.01 28.91 155.23 C 28.10 155.54 27.28 155.59 26.44 155.37 C 27.64 153.05 29.01 150.65 31.26 149.20 Z" />
</g>
<g id="#383838a6">
<path fill="#383838" opacity="0.65" d=" M 70.93 55.30 C 72.66 55.48 72.54 58.80 71.60 59.93 C 70.43 58.69 70.82 56.83 70.93 55.30 Z" />
</g>
<g id="#25252580">
<path fill="#252525" opacity="0.50" d=" M 42.12 63.12 C 42.82 60.37 43.12 57.46 44.75 55.05 C 47.45 57.18 50.57 58.77 52.93 61.31 C 51.99 62.27 51.08 63.24 50.14 64.19 C 49.81 64.52 49.15 65.16 48.82 65.48 C 47.71 66.50 46.64 67.56 45.70 68.74 L 45.41 69.31 C 44.35 68.08 43.29 66.85 42.23 65.62 C 41.69 68.29 40.94 70.92 40.04 73.49 C 40.50 69.99 41.15 66.51 42.12 63.12 Z" />
</g>
<g id="#fff854ff">
<path fill="#fff854" opacity="1.00" d=" M 54.76 60.16 C 57.64 58.85 60.71 57.91 63.91 57.98 C 64.59 57.98 65.96 57.97 66.64 57.97 C 65.73 59.83 64.77 61.66 63.74 63.46 C 61.08 66.69 61.59 72.36 57.02 73.86 C 55.61 73.51 54.58 72.38 53.41 71.59 C 52.92 72.86 52.41 74.13 51.94 75.41 C 51.45 72.18 51.30 68.92 50.77 65.70 C 50.61 65.32 50.30 64.57 50.14 64.19 C 51.08 63.24 51.99 62.27 52.93 61.31 C 53.93 62.32 55.29 62.82 56.55 63.41 C 56.42 62.04 55.83 60.95 54.76 60.16 Z" />
<path fill="#fff854" opacity="1.00" d=" M 66.26 144.35 C 66.78 144.44 67.83 144.62 68.36 144.71 C 70.43 148.93 71.45 153.53 72.93 157.97 C 72.49 157.76 71.60 157.34 71.15 157.14 C 69.64 152.83 68.02 148.56 66.26 144.35 Z" />
</g>
<g id="#a19387ff">
<path fill="#a19387" opacity="1.00" d=" M 41.60 59.91 C 41.79 60.98 41.96 62.04 42.12 63.12 C 41.15 66.51 40.50 69.99 40.04 73.49 C 38.95 74.17 37.87 74.87 36.80 75.58 C 35.57 79.63 33.90 83.53 32.11 87.37 L 30.96 86.92 C 30.42 84.81 31.85 82.38 31.76 80.10 C 31.67 77.48 33.08 74.85 35.74 74.13 C 36.26 73.96 37.31 73.63 37.84 73.46 C 39.67 69.12 40.40 64.44 41.60 59.91 Z" />
</g>
<g id="#fee14dff">
<path fill="#fee14d" opacity="1.00" d=" M 63.74 63.46 C 65.91 62.80 67.21 60.92 68.56 59.26 C 68.61 62.04 68.44 64.81 68.02 67.56 C 66.05 69.85 64.51 72.55 63.82 75.52 C 63.48 77.34 63.38 79.20 63.31 81.06 C 62.33 85.63 56.83 85.15 53.29 86.13 L 53.24 86.14 C 53.02 85.88 52.57 85.35 52.34 85.08 C 51.80 84.45 50.71 83.19 50.17 82.56 C 50.72 82.21 51.80 81.50 52.34 81.14 C 52.21 79.23 52.09 77.32 51.94 75.41 C 52.41 74.13 52.92 72.86 53.41 71.59 C 54.58 72.38 55.61 73.51 57.02 73.86 C 61.59 72.36 61.08 66.69 63.74 63.46 Z" />
<path fill="#fee14d" opacity="1.00" d=" M 71.83 60.19 C 72.42 60.60 73.61 61.43 74.20 61.85 C 76.51 64.10 78.16 67.10 78.30 70.37 L 77.51 71.34 C 77.43 70.02 77.11 68.76 76.54 67.57 C 75.30 65.93 73.37 65.23 71.52 64.54 C 71.61 63.09 71.71 61.64 71.83 60.19 Z" />
</g>
<g id="#e14333ff">
<path fill="#e14333" opacity="1.00" d=" M 48.82 65.48 C 49.15 65.16 49.81 64.52 50.14 64.19 C 50.30 64.57 50.61 65.32 50.77 65.70 C 50.40 70.56 51.95 75.29 51.75 80.13 C 51.38 80.61 50.65 81.57 50.28 82.05 C 49.00 80.46 47.69 78.91 46.32 77.40 C 44.96 74.90 44.90 72.04 45.41 69.31 L 45.70 68.74 C 46.16 69.29 47.08 70.38 47.54 70.92 C 49.50 69.72 49.03 67.42 48.82 65.48 Z" />
</g>
<g id="#a63332ff">
<path fill="#a63332" opacity="1.00" d=" M 71.48 68.00 C 71.46 66.85 71.47 65.69 71.52 64.54 C 73.37 65.23 75.30 65.93 76.54 67.57 C 73.61 71.30 73.12 76.06 72.22 80.55 C 71.99 80.65 71.53 80.86 71.30 80.96 C 69.75 81.00 68.20 81.00 66.65 80.97 C 67.36 79.65 68.01 78.28 68.77 76.98 C 70.52 74.93 71.19 72.33 71.70 69.75 C 73.92 69.73 73.31 66.03 71.48 68.00 Z" />
</g>
<g id="#e79161f6">
<path fill="#e79161" opacity="0.96" d=" M 45.70 68.74 C 46.64 67.56 47.71 66.50 48.82 65.48 C 49.03 67.42 49.50 69.72 47.54 70.92 C 47.08 70.38 46.16 69.29 45.70 68.74 Z" />
</g>
<g id="#5a4b43ff">
<path fill="#5a4b43" opacity="1.00" d=" M 51.75 80.13 C 51.95 75.29 50.40 70.56 50.77 65.70 C 51.30 68.92 51.45 72.18 51.94 75.41 C 52.09 77.32 52.21 79.23 52.34 81.14 C 51.80 81.50 50.72 82.21 50.17 82.56 C 50.71 83.19 51.80 84.45 52.34 85.08 C 50.11 84.68 47.71 84.58 45.77 83.27 C 42.83 81.59 41.60 77.42 37.82 77.24 C 38.60 81.50 34.50 84.17 33.62 88.03 C 33.25 87.87 32.49 87.53 32.11 87.37 C 33.90 83.53 35.57 79.63 36.80 75.58 C 37.87 74.87 38.95 74.17 40.04 73.49 C 41.54 75.50 44.36 75.91 46.32 77.40 C 47.69 78.91 49.00 80.46 50.28 82.05 C 50.65 81.57 51.38 80.61 51.75 80.13 Z" />
</g>
<g id="#e16658ff">
<path fill="#e16658" opacity="1.00" d=" M 71.48 68.00 C 73.31 66.03 73.92 69.73 71.70 69.75 C 71.64 69.31 71.53 68.44 71.48 68.00 Z" />
</g>
<g id="#da2e2eff">
<path fill="#da2e2e" opacity="1.00" d=" M 63.82 75.52 C 64.51 72.55 66.05 69.85 68.02 67.56 C 67.82 70.70 66.57 74.24 68.77 76.98 C 68.01 78.28 67.36 79.65 66.65 80.97 C 63.49 81.64 64.40 77.37 63.82 75.52 Z" />
</g>
<g id="#7c1818ff">
<path fill="#7c1818" opacity="1.00" d=" M 76.54 67.57 C 77.11 68.76 77.43 70.02 77.51 71.34 C 76.91 74.97 75.48 78.53 72.22 80.55 C 73.12 76.06 73.61 71.30 76.54 67.57 Z" />
<path fill="#7c1818" opacity="1.00" d=" M 63.31 81.06 C 63.38 79.20 63.48 77.34 63.82 75.52 C 64.40 77.37 63.49 81.64 66.65 80.97 C 68.20 81.00 69.75 81.00 71.30 80.96 C 69.10 82.05 66.61 82.04 64.23 82.26 C 64.00 81.96 63.54 81.36 63.31 81.06 Z" />
</g>
<g id="#956f25ff">
<path fill="#956f25" opacity="1.00" d=" M 77.51 71.34 L 78.30 70.37 C 78.53 72.84 76.72 75.96 79.27 77.69 C 77.73 80.01 76.50 82.56 76.26 85.37 C 77.59 85.34 78.91 85.32 80.24 85.29 C 80.58 86.90 80.94 88.50 81.29 90.10 C 79.05 90.58 76.79 91.36 75.43 93.34 L 75.25 93.35 C 71.51 93.35 67.87 95.06 65.41 97.87 C 64.99 97.66 64.15 97.25 63.73 97.05 L 64.28 96.10 C 65.88 93.07 69.24 91.82 71.63 89.59 C 72.37 87.69 72.01 85.62 72.01 83.64 C 70.36 83.56 68.72 83.48 67.08 83.34 C 66.11 83.01 65.16 82.65 64.23 82.26 C 66.61 82.04 69.10 82.05 71.30 80.96 C 71.53 80.86 71.99 80.65 72.22 80.55 C 75.48 78.53 76.91 74.97 77.51 71.34 Z" />
</g>
<g id="#26272880">
<path fill="#262728" opacity="0.50" d=" M 126.78 74.69 C 129.87 73.62 133.31 74.30 136.53 74.09 C 137.33 83.14 132.52 91.79 125.50 97.22 C 125.14 95.71 125.03 94.11 124.34 92.70 C 123.05 92.19 121.70 91.89 120.38 91.54 C 122.26 85.85 124.05 80.05 126.78 74.69 Z" />
</g>
<g id="#a39486ff">
<path fill="#a39486" opacity="1.00" d=" M 79.27 77.69 C 80.46 75.42 82.94 75.35 84.04 77.64 C 83.44 81.66 83.33 85.76 83.74 89.81 C 83.13 89.88 81.90 90.03 81.29 90.10 C 80.94 88.50 80.58 86.90 80.24 85.29 C 78.91 85.32 77.59 85.34 76.26 85.37 C 76.50 82.56 77.73 80.01 79.27 77.69 Z" />
<path fill="#a39486" opacity="1.00" d=" M 60.83 96.69 C 59.22 101.88 54.71 105.34 51.03 109.06 C 48.54 111.70 44.40 112.96 43.24 116.67 C 42.92 116.95 42.30 117.51 41.99 117.78 C 40.87 118.44 39.74 119.09 38.63 119.78 C 37.71 120.92 36.87 122.24 37.31 123.77 L 36.40 123.99 C 34.00 121.65 36.94 119.11 37.83 116.91 C 37.93 114.87 40.09 114.35 41.54 113.45 C 44.79 111.92 47.22 109.24 49.86 106.89 C 53.56 103.53 57.27 100.20 60.83 96.69 Z" />
</g>
<g id="#726a68ec">
<path fill="#726a68" opacity="0.93" d=" M 84.04 77.64 C 86.89 81.35 84.51 85.93 84.56 90.07 L 83.74 89.81 C 83.33 85.76 83.44 81.66 84.04 77.64 Z" />
</g>
<g id="#d0ac3efe">
<path fill="#d0ac3e" opacity="1.00" d=" M 63.31 81.06 C 63.54 81.36 64.00 81.96 64.23 82.26 C 65.16 82.65 66.11 83.01 67.08 83.34 C 64.77 85.93 61.16 87.27 59.45 90.36 C 61.82 90.43 64.02 89.55 66.05 88.42 C 64.28 90.21 62.34 92.23 62.65 94.97 C 62.33 94.75 61.71 94.29 61.39 94.06 C 59.62 90.51 55.66 89.21 53.29 86.13 C 56.83 85.15 62.33 85.63 63.31 81.06 Z" />
</g>
<g id="#aa7e2aff">
<path fill="#aa7e2a" opacity="1.00" d=" M 67.08 83.34 C 68.72 83.48 70.36 83.56 72.01 83.64 C 72.01 85.62 72.37 87.69 71.63 89.59 C 69.24 91.82 65.88 93.07 64.28 96.10 C 63.87 95.82 63.06 95.26 62.65 94.97 C 62.34 92.23 64.28 90.21 66.05 88.42 C 64.02 89.55 61.82 90.43 59.45 90.36 C 61.16 87.27 64.77 85.93 67.08 83.34 Z" />
</g>
<g id="#fcf5d8ff">
<path fill="#fcf5d8" opacity="1.00" d=" M 21.92 90.38 C 23.81 87.15 27.70 87.27 30.96 86.92 L 32.11 87.37 C 32.49 87.53 33.25 87.87 33.62 88.03 C 34.23 88.35 35.43 88.99 36.03 89.30 C 32.25 90.04 28.41 89.47 24.61 89.34 C 27.39 90.24 30.19 91.08 32.90 92.19 C 32.01 99.70 28.69 106.61 26.71 113.85 C 25.30 119.19 23.47 124.40 21.27 129.46 C 21.25 127.68 20.98 125.87 21.36 124.12 C 24.17 113.38 24.98 102.24 25.56 91.19 C 24.34 90.92 23.13 90.65 21.92 90.38 Z" />
</g>
<g id="#ffffeaff">
<path fill="#ffffea" opacity="1.00" d=" M 75.43 93.34 C 76.79 91.36 79.05 90.58 81.29 90.10 C 81.90 90.03 83.13 89.88 83.74 89.81 L 84.56 90.07 C 85.88 90.48 87.19 90.92 88.50 91.39 C 84.19 92.31 79.80 92.79 75.43 93.34 Z" />
<path fill="#ffffea" opacity="1.00" d=" M 74.58 94.77 C 78.08 94.37 81.58 93.63 85.13 93.97 C 85.32 107.63 85.66 121.32 84.78 134.97 C 84.27 139.85 84.90 144.86 83.38 149.61 C 82.99 147.51 82.75 145.39 82.23 143.31 C 81.73 141.18 81.34 139.03 80.98 136.87 C 80.66 135.02 80.29 133.17 79.95 131.32 L 79.85 130.65 C 79.69 129.66 79.52 128.67 79.35 127.68 C 78.83 124.96 78.32 122.24 77.86 119.52 C 77.78 119.08 77.62 118.20 77.54 117.76 C 77.22 116.02 76.92 114.28 76.60 112.53 C 76.48 111.84 76.22 110.46 76.10 109.77 C 75.99 109.21 75.79 108.09 75.69 107.53 C 75.41 106.07 75.12 104.62 74.81 103.18 C 74.39 101.08 74.00 98.98 73.61 96.88 C 73.85 96.35 74.34 95.30 74.58 94.77 Z" />
</g>
<g id="#fefef4ff">
<path fill="#fefef4" opacity="1.00" d=" M 21.92 90.38 C 23.13 90.65 24.34 90.92 25.56 91.19 C 24.98 102.24 24.17 113.38 21.36 124.12 C 20.98 125.87 21.25 127.68 21.27 129.46 C 20.10 134.41 18.23 139.16 16.96 144.09 C 16.66 144.47 16.05 145.24 15.74 145.63 C 17.51 127.19 20.25 108.83 21.92 90.38 Z" />
</g>
<g id="#a19181ff">
<path fill="#a19181" opacity="1.00" d=" M 33.26 91.16 C 34.82 91.13 36.38 91.10 37.95 91.08 C 38.31 92.71 38.72 94.33 39.14 95.95 C 36.30 101.90 33.75 107.99 30.87 113.92 C 30.42 113.86 29.53 113.74 29.09 113.69 C 31.00 107.05 32.91 100.39 35.23 93.89 C 34.57 92.97 33.92 92.06 33.26 91.16 Z" />
</g>
<g id="#c0baa9ff">
<path fill="#c0baa9" opacity="1.00" d=" M 88.50 91.39 C 90.56 92.00 91.46 93.99 92.32 95.76 C 91.46 98.48 90.97 101.31 91.04 104.17 C 91.02 104.52 90.99 105.21 90.97 105.56 C 90.45 108.87 89.93 112.18 89.53 115.51 C 89.48 115.85 89.40 116.52 89.36 116.86 C 89.33 117.14 89.27 117.70 89.25 117.99 C 88.97 120.44 88.66 122.88 88.28 125.32 C 87.80 128.03 87.25 130.73 86.67 133.43 C 85.43 124.97 87.27 116.49 87.51 108.03 C 87.57 103.48 88.39 98.99 88.80 94.46 C 87.58 94.29 86.35 94.12 85.13 93.97 C 81.58 93.63 78.08 94.37 74.58 94.77 C 74.75 94.42 75.08 93.71 75.25 93.35 L 75.43 93.34 C 79.80 92.79 84.19 92.31 88.50 91.39 Z" />
</g>
<g id="#77511bff">
<path fill="#77511b" opacity="1.00" d=" M 65.41 97.87 C 67.87 95.06 71.51 93.35 75.25 93.35 C 75.08 93.71 74.75 94.42 74.58 94.77 C 74.34 95.30 73.85 96.35 73.61 96.88 C 74.00 98.98 74.39 101.08 74.81 103.18 C 74.05 101.98 73.23 100.82 72.41 99.66 C 70.01 99.36 67.58 99.00 65.41 97.87 Z" />
</g>
<g id="#5e5242ff">
<path fill="#5e5242" opacity="1.00" d=" M 61.39 94.06 C 61.71 94.29 62.33 94.75 62.65 94.97 C 63.06 95.26 63.87 95.82 64.28 96.10 L 63.73 97.05 C 62.59 99.08 61.39 101.08 60.01 102.96 C 58.56 104.85 56.88 106.54 55.37 108.39 C 55.28 108.76 55.10 109.52 55.01 109.90 C 61.97 112.31 69.37 111.97 76.60 112.53 C 76.92 114.28 77.22 116.02 77.54 117.76 C 71.43 117.83 65.27 118.54 59.21 117.44 C 57.21 117.14 55.07 116.47 53.17 117.55 C 52.38 117.06 51.69 116.43 50.96 115.86 C 51.01 118.24 50.96 120.63 50.99 123.01 C 50.36 118.92 50.89 114.76 51.97 110.79 C 49.07 112.77 46.17 114.74 43.24 116.67 C 44.40 112.96 48.54 111.70 51.03 109.06 C 54.71 105.34 59.22 101.88 60.83 96.69 C 61.10 96.45 61.65 95.97 61.93 95.73 L 61.39 94.06 Z" />
</g>
<g id="#e1ddcbff">
<path fill="#e1ddcb" opacity="1.00" d=" M 85.13 93.97 C 86.35 94.12 87.58 94.29 88.80 94.46 C 88.39 98.99 87.57 103.48 87.51 108.03 C 87.27 116.49 85.43 124.97 86.67 133.43 C 86.63 134.02 86.54 135.21 86.50 135.81 C 86.37 137.41 86.18 139.01 85.92 140.61 C 85.08 143.91 85.02 147.33 84.40 150.68 C 83.70 150.60 83.36 150.25 83.38 149.61 C 84.90 144.86 84.27 139.85 84.78 134.97 C 85.66 121.32 85.32 107.63 85.13 93.97 Z" />
</g>
<g id="#bb7f25ff">
<path fill="#bb7f25" opacity="1.00" d=" M 60.01 102.96 C 61.39 101.08 62.59 99.08 63.73 97.05 C 64.15 97.25 64.99 97.66 65.41 97.87 C 67.58 99.00 70.01 99.36 72.41 99.66 C 73.23 100.82 74.05 101.98 74.81 103.18 C 75.12 104.62 75.41 106.07 75.69 107.53 C 70.95 104.63 65.02 105.33 60.01 102.96 Z" />
</g>
<g id="#dfa633ff">
<path fill="#dfa633" opacity="1.00" d=" M 60.01 102.96 C 65.02 105.33 70.95 104.63 75.69 107.53 C 75.79 108.09 75.99 109.21 76.10 109.77 C 69.16 110.59 62.09 110.42 55.37 108.39 C 56.88 106.54 58.56 104.85 60.01 102.96 Z" />
</g>
<g id="#433930ff">
<path fill="#433930" opacity="1.00" d=" M 90.97 105.56 C 93.55 108.77 94.39 112.99 95.02 116.96 C 94.90 115.89 94.35 115.25 93.36 115.04 C 92.10 114.56 90.68 114.95 89.53 115.51 C 89.93 112.18 90.45 108.87 90.97 105.56 Z" />
<path fill="#433930" opacity="1.00" d=" M 53.17 117.55 C 55.07 116.47 57.21 117.14 59.21 117.44 C 65.27 118.54 71.43 117.83 77.54 117.76 C 77.62 118.20 77.78 119.08 77.86 119.52 L 76.37 119.78 C 73.56 120.04 70.74 120.09 67.92 120.02 C 63.99 119.85 60.04 119.54 56.19 118.65 C 55.44 118.38 53.93 117.83 53.17 117.55 Z" />
<path fill="#433930" opacity="1.00" d=" M 53.45 126.95 C 54.05 126.91 55.26 126.83 55.86 126.78 C 60.45 127.90 65.17 128.38 69.88 128.32 C 71.54 128.31 73.19 128.26 74.84 128.16 C 76.35 128.02 77.85 127.86 79.35 127.68 C 79.52 128.67 79.69 129.66 79.85 130.65 C 71.06 129.67 61.54 131.25 53.45 126.95 Z" />
<path fill="#433930" opacity="1.00" d=" M 78.18 135.52 C 78.78 134.13 79.39 132.73 79.95 131.32 C 80.29 133.17 80.66 135.02 80.98 136.87 C 79.61 137.00 78.25 137.16 76.88 137.27 C 72.29 137.69 67.65 137.61 63.09 136.95 C 61.45 136.70 59.82 136.36 58.23 135.88 C 59.50 134.73 61.22 135.26 62.73 135.34 C 67.85 136.03 73.03 135.66 78.18 135.52 Z" />
</g>
<g id="#413623ff">
<path fill="#413623" opacity="1.00" d=" M 55.01 109.90 C 55.10 109.52 55.28 108.76 55.37 108.39 C 62.09 110.42 69.16 110.59 76.10 109.77 C 76.22 110.46 76.48 111.84 76.60 112.53 C 69.37 111.97 61.97 112.31 55.01 109.90 Z" />
</g>
<g id="#292114ff">
<path fill="#292114" opacity="1.00" d=" M 89.53 115.51 C 90.68 114.95 92.10 114.56 93.36 115.04 C 92.24 115.98 90.96 117.19 89.36 116.86 C 89.40 116.52 89.48 115.85 89.53 115.51 Z" />
</g>
<g id="#b1862dff">
<path fill="#b1862d" opacity="1.00" d=" M 93.36 115.04 C 94.35 115.25 94.90 115.89 95.02 116.96 C 95.21 119.31 94.93 121.65 94.57 123.97 C 92.59 122.17 90.47 120.42 89.25 117.99 C 89.27 117.70 89.33 117.14 89.36 116.86 C 90.96 117.19 92.24 115.98 93.36 115.04 Z" />
</g>
<g id="#fee64fff">
<path fill="#fee64f" opacity="1.00" d=" M 50.96 115.86 C 51.69 116.43 52.38 117.06 53.17 117.55 C 53.93 117.83 55.44 118.38 56.19 118.65 C 56.07 121.34 55.89 124.03 55.66 126.72 C 54.20 126.11 52.77 125.43 51.39 124.67 C 51.29 124.25 51.09 123.42 50.99 123.01 C 50.96 120.63 51.01 118.24 50.96 115.86 Z" />
</g>
<g id="#62554fff">
<path fill="#62554f" opacity="1.00" d=" M 38.63 119.78 C 39.74 119.09 40.87 118.44 41.99 117.78 C 41.77 118.25 41.35 119.20 41.13 119.67 C 43.34 121.38 45.52 123.96 45.19 126.95 C 44.48 129.97 43.73 133.00 42.94 136.01 C 42.94 134.61 42.92 133.21 42.87 131.81 C 41.99 133.52 41.12 135.25 40.26 136.98 C 40.68 131.18 40.23 125.38 38.63 119.78 Z" />
</g>
<g id="#7c7474ff">
<path fill="#7c7474" opacity="1.00" d=" M 89.25 117.99 C 90.47 120.42 92.59 122.17 94.57 123.97 C 97.81 126.93 100.61 130.34 103.11 133.95 C 106.16 138.76 108.41 144.04 111.79 148.65 C 111.16 148.74 109.88 148.92 109.24 149.01 C 109.16 149.48 108.98 150.42 108.90 150.89 C 107.51 146.76 104.24 143.74 101.04 140.97 C 97.77 138.21 95.03 134.92 92.32 131.65 L 92.46 131.26 C 93.69 130.01 92.07 126.89 90.68 128.86 C 90.01 127.60 89.16 126.44 88.28 125.32 C 88.66 122.88 88.97 120.44 89.25 117.99 Z" />
</g>
<g id="#fbce47ff">
<path fill="#fbce47" opacity="1.00" d=" M 56.19 118.65 C 60.04 119.54 63.99 119.85 67.92 120.02 C 68.32 120.34 69.11 120.97 69.50 121.29 C 69.16 122.95 68.85 124.61 68.49 126.26 C 68.96 126.93 69.43 127.62 69.88 128.32 C 65.17 128.38 60.45 127.90 55.86 126.78 L 55.66 126.72 C 55.89 124.03 56.07 121.34 56.19 118.65 Z" />
</g>
<g id="#766e69ff">
<path fill="#766e69" opacity="1.00" d=" M 37.31 123.77 C 36.87 122.24 37.71 120.92 38.63 119.78 C 40.23 125.38 40.68 131.18 40.26 136.98 C 41.12 135.25 41.99 133.52 42.87 131.81 C 42.92 133.21 42.94 134.61 42.94 136.01 C 42.59 139.49 44.08 142.72 45.19 145.92 C 45.18 148.04 42.79 148.57 41.23 149.16 C 37.17 150.33 33.50 152.43 29.77 154.36 C 31.71 150.02 36.53 148.87 40.33 146.78 L 40.53 145.03 C 40.98 143.05 39.63 141.45 38.86 139.77 C 35.93 134.83 38.30 129.09 37.31 123.77 Z" />
</g>
<g id="#e6bc42ff">
<path fill="#e6bc42" opacity="1.00" d=" M 67.92 120.02 C 70.74 120.09 73.56 120.04 76.37 119.78 C 75.71 122.54 75.27 125.35 74.84 128.16 C 73.19 128.26 71.54 128.31 69.88 128.32 C 69.43 127.62 68.96 126.93 68.49 126.26 C 68.85 124.61 69.16 122.95 69.50 121.29 C 69.11 120.97 68.32 120.34 67.92 120.02 Z" />
</g>
<g id="#d1a33cff">
<path fill="#d1a33c" opacity="1.00" d=" M 76.37 119.78 L 77.86 119.52 C 78.32 122.24 78.83 124.96 79.35 127.68 C 77.85 127.86 76.35 128.02 74.84 128.16 C 75.27 125.35 75.71 122.54 76.37 119.78 Z" />
</g>
<g id="#585148ff">
<path fill="#585148" opacity="1.00" d=" M 51.39 124.67 C 52.77 125.43 54.20 126.11 55.66 126.72 L 55.86 126.78 C 55.26 126.83 54.05 126.91 53.45 126.95 C 61.54 131.25 71.06 129.67 79.85 130.65 L 79.95 131.32 C 79.39 132.73 78.78 134.13 78.18 135.52 C 73.03 135.66 67.85 136.03 62.73 135.34 C 61.22 135.26 59.50 134.73 58.23 135.88 C 57.05 135.43 55.92 134.88 54.77 134.37 L 54.66 134.31 C 53.07 131.30 51.43 128.16 51.39 124.67 Z" />
</g>
<g id="#423d33ff">
<path fill="#423d33" opacity="1.00" d=" M 88.28 125.32 C 89.16 126.44 90.01 127.60 90.68 128.86 C 91.13 129.46 92.02 130.66 92.46 131.26 L 92.32 131.65 C 92.12 132.13 91.71 133.09 91.51 133.57 C 89.85 134.34 88.17 135.07 86.50 135.81 C 86.54 135.21 86.63 134.02 86.67 133.43 C 87.25 130.73 87.80 128.03 88.28 125.32 Z" />
</g>
<g id="#98918dff">
<path fill="#98918d" opacity="1.00" d=" M 90.68 128.86 C 92.07 126.89 93.69 130.01 92.46 131.26 C 92.02 130.66 91.13 129.46 90.68 128.86 Z" />
</g>
<g id="#aea343f5">
<path fill="#aea343" opacity="0.96" d=" M 86.50 135.81 C 88.17 135.07 89.85 134.34 91.51 133.57 C 90.20 136.28 88.54 138.99 85.92 140.61 C 86.18 139.01 86.37 137.41 86.50 135.81 Z" />
</g>
<g id="#f6d14dff">
<path fill="#f6d14d" opacity="1.00" d=" M 54.77 134.37 C 55.92 134.88 57.05 135.43 58.23 135.88 C 59.82 136.36 61.45 136.70 63.09 136.95 C 63.29 138.22 64.43 139.56 63.77 140.84 C 63.09 141.03 61.74 141.40 61.06 141.59 C 58.58 139.55 56.85 136.79 54.77 134.37 Z" />
</g>
<g id="#d4b441ff">
<path fill="#d4b441" opacity="1.00" d=" M 63.09 136.95 C 67.65 137.61 72.29 137.69 76.88 137.27 C 74.91 138.89 73.09 140.73 72.25 143.20 C 75.24 144.51 78.43 143.22 81.54 143.33 C 81.10 144.54 80.67 145.76 80.24 146.98 C 78.13 145.45 75.57 145.89 73.18 146.34 C 76.19 151.78 74.87 158.12 75.99 164.00 C 75.86 164.76 75.60 166.27 75.47 167.03 C 75.24 166.91 74.78 166.68 74.55 166.56 C 73.36 163.44 72.32 160.26 71.15 157.14 C 71.60 157.34 72.49 157.76 72.93 157.97 C 71.45 153.53 70.43 148.93 68.36 144.71 C 67.83 144.62 66.78 144.44 66.26 144.35 C 64.37 143.76 62.70 142.66 61.06 141.59 C 61.74 141.40 63.09 141.03 63.77 140.84 C 64.43 139.56 63.29 138.22 63.09 136.95 Z" />
</g>
<g id="#ba9636ff">
<path fill="#ba9636" opacity="1.00" d=" M 76.88 137.27 C 78.25 137.16 79.61 137.00 80.98 136.87 C 81.34 139.03 81.73 141.18 82.23 143.31 L 81.54 143.33 C 78.43 143.22 75.24 144.51 72.25 143.20 C 73.09 140.73 74.91 138.89 76.88 137.27 Z" />
</g>
<g id="#bb9937ff">
<path fill="#bb9937" opacity="1.00" d=" M 73.18 146.34 C 75.57 145.89 78.13 145.45 80.24 146.98 C 79.15 152.73 77.50 158.35 75.99 164.00 C 74.87 158.12 76.19 151.78 73.18 146.34 Z" />
</g>
<g id="#b0a9a2ff">
<path fill="#b0a9a2" opacity="1.00" d=" M 109.24 149.01 C 109.88 148.92 111.16 148.74 111.79 148.65 C 114.94 151.98 119.18 154.67 119.99 159.58 C 119.95 160.05 119.88 160.99 119.84 161.46 C 118.93 160.66 117.97 159.91 117.17 159.00 C 116.71 158.07 116.03 157.36 115.13 156.86 C 113.13 154.79 110.88 152.97 108.90 150.89 C 108.98 150.42 109.16 149.48 109.24 149.01 Z" />
</g>
<g id="#2d2d2d7c">
<path fill="#2d2d2d" opacity="0.49" d=" M 28.91 155.23 C 29.82 158.36 23.54 157.16 26.44 155.37 C 27.28 155.59 28.10 155.54 28.91 155.23 Z" />
</g>
<g id="#2323235d">
<path fill="#232323" opacity="0.36" d=" M 115.13 156.86 C 116.03 157.36 116.71 158.07 117.17 159.00 C 115.36 159.34 114.68 158.63 115.13 156.86 Z" />
</g>
<g id="#2f2e2f8a">
<path fill="#2f2e2f" opacity="0.54" d=" M 119.99 159.58 L 120.58 159.42 C 121.65 160.59 121.55 161.48 120.27 162.09 L 119.84 161.46 C 119.88 160.99 119.95 160.05 119.99 159.58 Z" />
</g>
</svg>
