<?xml version="1.0" encoding="UTF-8" ?>
<!DOCTYPE svg PUBLIC "-//W3C//DTD SVG 1.1//EN" "http://www.w3.org/Graphics/SVG/1.1/DTD/svg11.dtd">
<svg width="78pt" height="96pt" viewBox="0 0 78 96" version="1.1" xmlns="http://www.w3.org/2000/svg">
<g id="#c48f48fe">
<path fill="#c48f48" opacity="1.00" d=" M 17.98 9.96 C 20.53 7.01 24.65 6.31 27.80 4.19 C 28.64 5.02 29.05 6.36 30.25 6.76 C 33.26 7.85 30.45 11.96 31.87 14.40 C 28.54 17.61 24.98 20.75 22.69 24.83 C 21.19 24.94 19.68 24.99 18.18 25.05 C 17.87 24.56 17.25 23.58 16.94 23.10 C 16.72 19.84 15.64 16.55 16.20 13.30 C 17.40 12.07 22.36 9.67 17.98 9.96 Z" />
</g>
<g id="#966933f1">
<path fill="#966933" opacity="0.95" d=" M 30.25 6.76 C 29.26 5.16 33.95 5.77 33.24 7.76 C 34.53 7.21 35.62 6.88 34.58 8.66 C 32.93 11.11 37.46 9.00 37.29 11.17 C 35.47 12.23 33.63 13.25 31.87 14.40 C 30.45 11.96 33.26 7.85 30.25 6.76 Z" />
</g>
<g id="#ece062f7">
<path fill="#ece062" opacity="0.97" d=" M 13.18 10.13 C 14.77 9.93 16.38 9.91 17.98 9.96 C 22.36 9.67 17.40 12.07 16.20 13.30 C 15.64 16.55 16.72 19.84 16.94 23.10 C 16.47 22.80 15.53 22.20 15.05 21.90 C 14.44 21.17 13.83 20.45 13.20 19.73 C 12.28 16.64 11.57 13.10 13.18 10.13 Z" />
</g>
<g id="#857038ce">
<path fill="#857038" opacity="0.81" d=" M 38.05 10.94 C 38.20 9.00 42.29 11.58 44.04 11.20 C 43.74 11.65 43.14 12.56 42.83 13.01 C 41.25 12.29 39.64 11.65 38.05 10.94 Z" />
</g>
<g id="#cfb465fd">
<path fill="#cfb465" opacity="1.00" d=" M 37.29 11.17 L 38.05 10.94 C 39.64 11.65 41.25 12.29 42.83 13.01 C 45.70 15.33 41.43 16.02 39.64 16.68 C 37.49 17.24 35.68 18.53 33.80 19.64 C 32.45 20.28 31.12 20.96 29.78 21.63 C 27.70 22.62 25.65 23.67 23.64 24.79 L 22.69 24.83 C 24.98 20.75 28.54 17.61 31.87 14.40 C 33.63 13.25 35.47 12.23 37.29 11.17 Z" />
</g>
<g id="#ab7a3dfc">
<path fill="#ab7a3d" opacity="1.00" d=" M 33.80 19.64 C 35.68 18.53 37.49 17.24 39.64 16.68 C 42.00 21.68 42.19 27.26 42.57 32.69 C 42.32 33.81 42.12 34.93 41.97 36.07 C 41.90 36.61 41.75 37.70 41.68 38.24 C 41.34 36.84 41.06 35.42 40.74 34.02 C 38.35 33.99 37.77 36.88 36.16 38.18 C 36.07 36.81 36.01 35.44 35.97 34.07 C 38.09 31.50 40.49 28.58 40.93 25.19 C 38.79 23.05 36.36 21.26 33.80 19.64 Z" />
</g>
<g id="#5f533dfa">
<path fill="#5f533d" opacity="0.98" d=" M 11.99 27.05 C 10.88 23.40 11.29 20.96 13.20 19.73 C 13.83 20.45 14.44 21.17 15.05 21.90 C 13.75 22.02 13.09 25.14 14.82 24.72 C 14.88 24.02 14.99 22.61 15.05 21.90 C 15.53 22.20 16.47 22.80 16.94 23.10 C 17.25 23.58 17.87 24.56 18.18 25.05 C 17.91 25.48 17.37 26.35 17.10 26.78 C 15.40 26.90 13.70 26.98 11.99 27.05 Z" />
</g>
<g id="#3a3329ff">
<path fill="#3a3329" opacity="1.00" d=" M 29.78 21.63 C 31.12 20.96 32.45 20.28 33.80 19.64 C 36.36 21.26 38.79 23.05 40.93 25.19 C 40.49 28.58 38.09 31.50 35.97 34.07 L 35.86 32.88 C 36.13 31.61 36.47 30.36 36.70 29.09 C 33.04 26.21 27.63 28.23 23.70 25.75 L 23.64 24.79 C 25.65 23.67 27.70 22.62 29.78 21.63 C 30.22 23.35 29.03 26.99 32.01 25.98 C 32.01 24.09 32.59 21.36 29.78 21.63 Z" />
</g>
<g id="#cdc9c5ff">
<path fill="#cdc9c5" opacity="1.00" d=" M 14.82 24.72 C 13.09 25.14 13.75 22.02 15.05 21.90 C 14.99 22.61 14.88 24.02 14.82 24.72 Z" />
<path fill="#cdc9c5" opacity="1.00" d=" M 29.78 21.63 C 32.59 21.36 32.01 24.09 32.01 25.98 C 29.03 26.99 30.22 23.35 29.78 21.63 Z" />
</g>
<g id="#cc9481ff">
<path fill="#cc9481" opacity="1.00" d=" M 18.18 25.05 C 19.68 24.99 21.19 24.94 22.69 24.83 L 23.64 24.79 L 23.70 25.75 C 23.61 26.05 23.43 26.66 23.34 26.97 C 21.66 30.10 16.57 30.06 16.67 34.13 C 16.23 33.10 15.92 32.04 15.74 30.93 C 16.08 29.63 18.46 27.91 17.10 26.78 C 17.37 26.35 17.91 25.48 18.18 25.05 Z" />
</g>
<g id="#d6bb69ff">
<path fill="#d6bb69" opacity="1.00" d=" M 23.34 26.97 C 23.43 26.66 23.61 26.05 23.70 25.75 C 27.63 28.23 33.04 26.21 36.70 29.09 C 36.47 30.36 36.13 31.61 35.86 32.88 C 34.42 34.68 33.22 37.03 34.79 39.18 C 36.54 46.82 31.41 53.37 25.63 57.53 C 23.07 57.18 20.74 58.42 19.22 60.27 C 17.75 62.52 19.99 65.79 17.13 67.22 C 14.39 67.28 11.57 67.04 9.87 64.62 C 10.96 64.17 12.06 63.74 13.14 63.28 C 16.08 65.05 14.62 60.76 15.06 59.07 C 20.54 55.16 30.52 53.01 28.90 44.22 C 25.79 40.81 20.95 39.54 17.99 36.03 C 19.58 36.43 21.18 36.97 22.85 36.95 C 24.47 36.79 27.72 36.46 29.34 36.30 C 31.22 34.72 28.31 33.12 27.44 31.86 C 27.05 31.35 26.27 30.33 25.88 29.82 C 25.12 28.80 24.24 27.87 23.34 26.97 Z" />
</g>
<g id="#f1d471fe">
<path fill="#f1d471" opacity="1.00" d=" M 11.99 27.05 C 13.70 26.98 15.40 26.90 17.10 26.78 C 18.46 27.91 16.08 29.63 15.74 30.93 C 13.41 36.03 19.23 40.68 20.62 45.31 C 21.12 50.50 15.59 54.22 15.06 59.07 C 14.62 60.76 16.08 65.05 13.14 63.28 C 12.47 61.92 11.80 60.55 11.28 59.13 C 12.43 53.73 16.99 49.33 15.54 43.37 C 14.78 41.27 16.29 36.91 14.06 36.09 C 13.57 36.04 12.59 35.94 12.09 35.88 L 12.26 34.98 C 13.20 32.35 11.53 29.74 11.99 27.05 Z" />
</g>
<g id="#b17b74ff">
<path fill="#b17b74" opacity="1.00" d=" M 23.34 26.97 C 24.24 27.87 25.12 28.80 25.88 29.82 C 24.00 30.48 22.10 31.27 20.78 32.82 C 20.08 33.47 19.41 34.16 18.78 34.88 C 20.37 34.96 23.57 35.12 25.16 35.20 C 24.40 35.80 23.63 36.39 22.85 36.95 C 21.18 36.97 19.58 36.43 17.99 36.03 C 17.66 35.56 17.00 34.60 16.67 34.13 C 16.57 30.06 21.66 30.10 23.34 26.97 Z" />
</g>
<g id="#99655aff">
<path fill="#99655a" opacity="1.00" d=" M 20.78 32.82 C 22.10 31.27 24.00 30.48 25.88 29.82 C 26.27 30.33 27.05 31.35 27.44 31.86 C 27.16 32.42 26.59 33.53 26.30 34.09 C 26.46 30.75 22.71 33.10 20.78 32.82 Z" />
</g>
<g id="#e1c671ff">
<path fill="#e1c671" opacity="1.00" d=" M 20.62 45.31 C 19.23 40.68 13.41 36.03 15.74 30.93 C 15.92 32.04 16.23 33.10 16.67 34.13 C 17.00 34.60 17.66 35.56 17.99 36.03 C 20.95 39.54 25.79 40.81 28.90 44.22 C 30.52 53.01 20.54 55.16 15.06 59.07 C 15.59 54.22 21.12 50.50 20.62 45.31 Z" />
</g>
<g id="#835148ff">
<path fill="#835148" opacity="1.00" d=" M 20.78 32.82 C 22.71 33.10 26.46 30.75 26.30 34.09 C 26.02 34.37 25.45 34.92 25.16 35.20 C 23.57 35.12 20.37 34.96 18.78 34.88 C 19.41 34.16 20.08 33.47 20.78 32.82 Z" />
</g>
<g id="#c7ab65ff">
<path fill="#c7ab65" opacity="1.00" d=" M 27.44 31.86 C 28.31 33.12 31.22 34.72 29.34 36.30 C 27.72 36.46 24.47 36.79 22.85 36.95 C 23.63 36.39 24.40 35.80 25.16 35.20 C 25.45 34.92 26.02 34.37 26.30 34.09 C 26.59 33.53 27.16 32.42 27.44 31.86 Z" />
</g>
<g id="#956c36ff">
<path fill="#956c36" opacity="1.00" d=" M 34.79 39.18 C 33.22 37.03 34.42 34.68 35.86 32.88 L 35.97 34.07 C 36.01 35.44 36.07 36.81 36.16 38.18 C 37.77 36.88 38.35 33.99 40.74 34.02 C 41.06 35.42 41.34 36.84 41.68 38.24 C 41.75 38.70 41.89 39.62 41.96 40.07 C 41.08 40.38 40.19 40.66 39.30 40.92 C 37.83 40.26 36.31 39.72 34.79 39.18 Z" />
</g>
<g id="#f2db51f9">
<path fill="#f2db51" opacity="0.98" d=" M 41.97 36.07 C 42.12 34.93 42.32 33.81 42.57 32.69 C 45.35 32.79 47.69 34.39 50.16 35.48 C 47.43 35.68 44.69 35.78 41.97 36.07 Z" />
</g>
<g id="#dcbc4eed">
<path fill="#dcbc4e" opacity="0.93" d=" M 8.06 40.04 C 9.48 38.52 9.92 35.37 12.26 34.98 L 12.09 35.88 C 10.16 39.86 6.54 43.50 7.16 48.22 C 6.81 51.26 6.05 54.23 5.34 57.21 C 2.31 51.68 5.71 45.22 8.06 40.04 Z" />
</g>
<g id="#eaad50fb">
<path fill="#eaad50" opacity="1.00" d=" M 41.97 36.07 C 44.69 35.78 47.43 35.68 50.16 35.48 C 53.05 37.29 56.96 40.29 58.13 43.88 C 57.68 43.72 56.80 43.38 56.36 43.22 C 53.72 37.59 46.74 41.29 42.10 41.01 L 41.96 40.07 C 41.89 39.62 41.75 38.70 41.68 38.24 C 41.75 37.70 41.90 36.61 41.97 36.07 Z" />
</g>
<g id="#dba551ff">
<path fill="#dba551" opacity="1.00" d=" M 12.09 35.88 C 12.59 35.94 13.57 36.04 14.06 36.09 C 12.86 39.10 11.62 42.08 10.37 45.06 C 8.61 42.94 8.25 47.21 7.16 48.22 C 6.54 43.50 10.16 39.86 12.09 35.88 Z" />
</g>
<g id="#fcea73ff">
<path fill="#fcea73" opacity="1.00" d=" M 14.06 36.09 C 16.29 36.91 14.78 41.27 15.54 43.37 C 16.99 49.33 12.43 53.73 11.28 59.13 C 10.73 57.68 10.15 56.25 9.64 54.79 C 9.87 51.54 9.95 48.29 10.37 45.06 C 11.62 42.08 12.86 39.10 14.06 36.09 Z" />
</g>
<g id="#caac5efd">
<path fill="#caac5e" opacity="1.00" d=" M 34.79 39.18 C 36.31 39.72 37.83 40.26 39.30 40.92 C 38.25 50.61 31.18 60.19 21.07 61.17 C 21.57 64.26 21.95 67.53 23.95 70.06 C 22.54 69.89 21.12 69.70 19.70 69.65 C 18.58 69.49 17.42 68.31 17.13 67.22 C 19.99 65.79 17.75 62.52 19.22 60.27 C 20.74 58.42 23.07 57.18 25.63 57.53 C 31.41 53.37 36.54 46.82 34.79 39.18 Z" />
</g>
<g id="#c0a159ff">
<path fill="#c0a159" opacity="1.00" d=" M 39.30 40.92 C 40.19 40.66 41.08 40.38 41.96 40.07 L 42.10 41.01 C 42.01 41.70 41.81 43.07 41.72 43.75 C 40.72 46.74 39.72 49.72 38.69 52.70 C 35.87 55.91 32.34 58.38 29.25 61.31 C 28.95 63.79 27.99 66.27 28.06 68.82 C 33.31 73.12 40.71 70.83 46.20 68.07 C 40.81 75.00 31.02 72.88 23.95 70.06 C 21.95 67.53 21.57 64.26 21.07 61.17 C 31.18 60.19 38.25 50.61 39.30 40.92 Z" />
</g>
<g id="#d29b50ff">
<path fill="#d29b50" opacity="1.00" d=" M 42.10 41.01 C 46.74 41.29 53.72 37.59 56.36 43.22 C 54.33 43.28 52.30 43.30 50.27 43.27 C 48.70 45.36 47.68 47.95 45.19 49.17 C 44.15 47.29 42.96 45.50 41.72 43.75 C 41.81 43.07 42.01 41.70 42.10 41.01 Z" />
</g>
<g id="#c28c46fd">
<path fill="#c28c46" opacity="1.00" d=" M 50.27 43.27 C 52.30 43.30 54.33 43.28 56.36 43.22 C 56.80 43.38 57.68 43.72 58.13 43.88 C 61.01 46.57 62.59 50.94 63.73 54.82 C 63.53 55.14 63.13 55.77 62.94 56.09 C 62.47 55.98 61.53 55.77 61.06 55.66 C 59.91 52.05 57.11 47.27 52.39 49.22 C 50.95 51.68 49.62 54.20 47.88 56.46 C 46.85 54.63 45.88 52.76 44.96 50.86 C 45.02 50.44 45.13 49.59 45.19 49.17 C 47.68 47.95 48.70 45.36 50.27 43.27 Z" />
</g>
<g id="#c49247fb">
<path fill="#c49247" opacity="1.00" d=" M 7.16 48.22 C 8.25 47.21 8.61 42.94 10.37 45.06 C 9.95 48.29 9.87 51.54 9.64 54.79 C 8.47 57.12 7.89 59.64 7.31 62.17 C 6.52 60.63 4.76 59.10 5.34 57.21 C 6.05 54.23 6.81 51.26 7.16 48.22 Z" />
</g>
<g id="#b59450ff">
<path fill="#b59450" opacity="1.00" d=" M 38.69 52.70 C 39.72 49.72 40.72 46.74 41.72 43.75 C 42.96 45.50 44.15 47.29 45.19 49.17 C 45.13 49.59 45.02 50.44 44.96 50.86 C 44.56 50.76 43.75 50.55 43.34 50.45 C 41.62 53.30 39.56 55.91 37.33 58.38 C 37.24 60.79 37.07 65.62 36.99 68.03 C 42.37 69.43 45.53 64.58 49.08 61.69 C 49.34 62.17 49.87 63.12 50.13 63.60 C 48.76 65.04 47.57 66.64 46.20 68.07 C 40.71 70.83 33.31 73.12 28.06 68.82 C 27.99 66.27 28.95 63.79 29.25 61.31 C 32.34 58.38 35.87 55.91 38.69 52.70 Z" />
</g>
<g id="#b27d3eff">
<path fill="#b27d3e" opacity="1.00" d=" M 52.39 49.22 C 57.11 47.27 59.91 52.05 61.06 55.66 C 62.38 62.59 55.73 63.34 51.60 66.02 C 51.11 65.21 50.62 64.40 50.13 63.60 C 49.87 63.12 49.34 62.17 49.08 61.69 C 48.53 59.99 48.12 58.24 47.88 56.46 C 49.62 54.20 50.95 51.68 52.39 49.22 Z" />
</g>
<g id="#a98646ff">
<path fill="#a98646" opacity="1.00" d=" M 43.34 50.45 C 43.75 50.55 44.56 50.76 44.96 50.86 C 45.88 52.76 46.85 54.63 47.88 56.46 C 48.12 58.24 48.53 59.99 49.08 61.69 C 45.53 64.58 42.37 69.43 36.99 68.03 C 37.07 65.62 37.24 60.79 37.33 58.38 C 39.56 55.91 41.62 53.30 43.34 50.45 Z" />
</g>
<g id="#a6763af8">
<path fill="#a6763a" opacity="0.97" d=" M 7.31 62.17 C 7.89 59.64 8.47 57.12 9.64 54.79 C 10.15 56.25 10.73 57.68 11.28 59.13 C 11.80 60.55 12.47 61.92 13.14 63.28 C 12.06 63.74 10.96 64.17 9.87 64.62 C 8.83 65.04 7.13 63.20 7.31 62.17 Z" />
</g>
<g id="#ded380f9">
<path fill="#ded380" opacity="0.98" d=" M 62.94 56.09 C 63.13 55.77 63.53 55.14 63.73 54.82 C 65.90 57.67 65.28 61.73 65.99 65.00 C 66.70 67.61 63.34 67.56 61.74 68.41 C 60.86 67.85 60.20 67.09 59.75 66.15 C 62.40 63.45 61.99 59.51 62.94 56.09 Z" />
</g>
<g id="#9c6e34ff">
<path fill="#9c6e34" opacity="1.00" d=" M 51.60 66.02 C 55.73 63.34 62.38 62.59 61.06 55.66 C 61.53 55.77 62.47 55.98 62.94 56.09 C 61.99 59.51 62.40 63.45 59.75 66.15 C 57.38 67.83 54.62 68.36 52.01 66.85 L 51.60 66.02 Z" />
</g>
<g id="#d1bf75fb">
<path fill="#d1bf75" opacity="1.00" d=" M 46.20 68.07 C 47.57 66.64 48.76 65.04 50.13 63.60 C 50.62 64.40 51.11 65.21 51.60 66.02 L 52.01 66.85 C 51.63 67.85 51.26 68.86 50.91 69.88 C 49.91 71.50 49.82 74.40 47.95 75.02 C 46.33 75.00 44.71 74.95 43.10 74.86 C 40.12 73.86 36.98 74.81 33.93 74.96 C 32.33 74.99 30.72 75.00 29.12 74.97 C 25.89 73.55 21.40 72.90 19.70 69.65 C 21.12 69.70 22.54 69.89 23.95 70.06 C 31.02 72.88 40.81 75.00 46.20 68.07 Z" />
</g>
<g id="#e0b550f6">
<path fill="#e0b550" opacity="0.96" d=" M 52.01 66.85 C 54.62 68.36 57.38 67.83 59.75 66.15 C 60.20 67.09 60.86 67.85 61.74 68.41 C 63.02 69.45 64.31 70.57 65.10 72.04 C 62.62 72.95 60.12 66.47 59.78 70.92 C 56.81 70.78 53.86 70.23 50.91 69.88 C 51.26 68.86 51.63 67.85 52.01 66.85 Z" />
</g>
<g id="#0806051b">
<path fill="#080605" opacity="0.11" d=" M 33.93 74.96 C 36.98 74.81 40.12 73.86 43.10 74.86 C 43.05 76.39 42.96 79.44 42.91 80.97 C 40.23 80.51 37.53 80.04 34.85 80.79 C 33.26 79.11 32.50 77.03 33.93 74.96 Z" />
</g>
<g id="#8e5e56f1">
<path fill="#8e5e56" opacity="0.95" d=" M 29.12 74.97 C 30.72 75.00 32.33 74.99 33.93 74.96 C 32.50 77.03 33.26 79.11 34.85 80.79 C 33.44 81.71 35.95 83.09 36.28 84.13 L 35.88 84.88 C 30.31 82.82 25.79 88.49 19.93 87.01 C 20.73 86.17 21.55 85.32 22.13 84.31 C 23.09 84.94 24.11 86.75 24.95 84.96 C 26.28 82.79 29.06 83.10 31.03 81.86 C 30.99 79.74 30.11 77.78 29.43 75.81 L 29.12 74.97 Z" />
</g>
<g id="#a57264f4">
<path fill="#a57264" opacity="0.96" d=" M 43.10 74.86 C 44.71 74.95 46.33 75.00 47.95 75.02 C 47.93 77.33 47.59 79.62 47.60 81.94 C 46.89 83.16 46.09 84.39 46.03 85.85 L 45.89 86.70 C 42.69 87.18 39.77 88.64 36.77 89.76 L 36.78 88.79 C 36.98 87.20 36.95 85.07 38.92 84.67 C 40.78 85.62 43.13 84.27 42.70 82.15 C 41.08 81.56 40.05 83.51 38.83 84.20 C 38.19 84.19 36.92 84.15 36.28 84.13 C 35.95 83.09 33.44 81.71 34.85 80.79 C 37.53 80.04 40.23 80.51 42.91 80.97 C 42.96 79.44 43.05 76.39 43.10 74.86 Z" />
</g>
<g id="#ae7b6bf4">
<path fill="#ae7b6b" opacity="0.96" d=" M 29.43 75.81 C 30.11 77.78 30.99 79.74 31.03 81.86 C 29.06 83.10 26.28 82.79 24.95 84.96 C 24.11 86.75 23.09 84.94 22.13 84.31 C 20.30 81.97 19.35 83.87 18.78 85.93 C 17.07 85.94 13.65 85.96 11.94 85.98 C 13.27 76.81 27.46 84.98 29.43 75.81 Z" />
</g>
<g id="#d89279ff">
<path fill="#d89279" opacity="1.00" d=" M 38.83 84.20 C 40.05 83.51 41.08 81.56 42.70 82.15 C 43.13 84.27 40.78 85.62 38.92 84.67 L 38.83 84.20 Z" />
</g>
<g id="#f1ae7aff">
<path fill="#f1ae7a" opacity="1.00" d=" M 46.03 85.85 C 46.09 84.39 46.89 83.16 47.60 81.94 C 48.89 82.60 49.32 83.57 48.90 84.86 C 47.94 85.19 46.99 85.52 46.03 85.85 Z" />
</g>
<g id="#cfb79cff">
<path fill="#cfb79c" opacity="1.00" d=" M 18.78 85.93 C 19.35 83.87 20.30 81.97 22.13 84.31 C 21.55 85.32 20.73 86.17 19.93 87.01 C 19.64 86.74 19.06 86.20 18.78 85.93 Z" />
</g>
<g id="#3a292085">
<path fill="#3a2920" opacity="0.52" d=" M 36.28 84.13 C 36.92 84.15 38.19 84.19 38.83 84.20 L 38.92 84.67 C 36.95 85.07 36.98 87.20 36.78 88.79 C 35.35 88.51 35.89 86.00 35.88 84.88 L 36.28 84.13 Z" />
</g>
<g id="#bf9d84f6">
<path fill="#bf9d84" opacity="0.96" d=" M 46.03 85.85 C 46.99 85.52 47.94 85.19 48.90 84.86 C 51.00 84.46 49.74 87.63 49.82 88.79 C 48.71 91.35 46.17 88.17 45.89 86.70 L 46.03 85.85 Z" />
</g>
</svg>
