<?xml version="1.0" encoding="UTF-8" ?>
<!DOCTYPE svg PUBLIC "-//W3C//DTD SVG 1.1//EN" "http://www.w3.org/Graphics/SVG/1.1/DTD/svg11.dtd">
<svg width="256pt" height="140pt" viewBox="0 0 256 140" version="1.1" xmlns="http://www.w3.org/2000/svg">
<g id="#e74c30f9">
<path fill="#e74c30" opacity="0.98" d=" M 113.31 7.12 C 121.68 3.72 133.31 2.33 139.32 10.39 C 132.27 9.56 124.55 5.20 118.70 11.65 C 115.07 14.00 111.14 16.05 109.13 20.11 C 109.49 18.04 108.54 17.98 107.07 18.93 C 106.02 13.91 113.17 11.98 113.37 7.70 L 113.31 7.12 Z" />
</g>
<g id="#f0623af9">
<path fill="#f0623a" opacity="0.98" d=" M 102.28 18.26 C 104.96 13.96 107.85 8.57 113.37 7.70 C 113.17 11.98 106.02 13.91 107.07 18.93 C 107.10 19.40 107.16 20.33 107.19 20.79 C 106.78 24.89 106.12 29.10 104.14 32.77 L 103.23 33.03 C 102.52 28.16 101.24 23.12 102.28 18.26 Z" />
</g>
<g id="#cd3d29fe">
<path fill="#cd3d29" opacity="1.00" d=" M 118.70 11.65 C 124.55 5.20 132.27 9.56 139.32 10.39 C 139.55 10.63 140.02 11.11 140.25 11.35 C 135.28 11.75 130.30 12.08 125.33 12.34 C 122.82 13.28 121.09 15.40 119.17 17.15 C 119.04 15.31 118.88 13.48 118.70 11.65 Z" />
</g>
<g id="#b83b29fd">
<path fill="#b83b29" opacity="1.00" d=" M 140.25 11.35 C 142.58 13.96 147.43 17.44 146.87 21.80 C 145.96 23.77 143.86 22.51 143.98 20.72 C 144.44 15.94 138.46 15.53 135.20 14.16 C 130.76 18.45 126.87 23.38 123.85 28.76 C 122.38 30.16 120.90 31.57 119.65 33.17 C 118.10 35.12 116.66 37.13 115.15 39.10 C 115.05 37.69 114.94 36.27 114.82 34.86 C 113.90 35.82 113.08 36.88 112.20 37.88 C 111.39 36.73 111.30 32.61 109.57 35.13 C 108.24 30.45 107.93 25.57 107.19 20.79 C 107.16 20.33 107.10 19.40 107.07 18.93 C 108.54 17.98 109.49 18.04 109.13 20.11 C 109.10 21.84 109.06 25.31 109.03 27.05 C 113.18 24.62 116.41 21.04 119.17 17.15 C 121.09 15.40 122.82 13.28 125.33 12.34 C 130.30 12.08 135.28 11.75 140.25 11.35 Z" />
</g>
<g id="#d04b34ff">
<path fill="#d04b34" opacity="1.00" d=" M 109.13 20.11 C 111.14 16.05 115.07 14.00 118.70 11.65 C 118.88 13.48 119.04 15.31 119.17 17.15 C 116.41 21.04 113.18 24.62 109.03 27.05 C 109.06 25.31 109.10 21.84 109.13 20.11 Z" />
</g>
<g id="#9a3222fc">
<path fill="#9a3222" opacity="1.00" d=" M 135.20 14.16 C 138.46 15.53 144.44 15.94 143.98 20.72 C 143.02 21.76 142.15 22.87 141.27 23.97 C 140.97 23.44 140.37 22.36 140.07 21.83 C 142.57 30.13 138.09 27.28 138.80 23.86 C 138.17 24.57 137.56 25.30 136.99 26.05 C 134.92 27.76 132.66 29.21 130.49 30.78 C 129.58 31.37 128.69 31.99 127.82 32.63 C 125.35 33.66 123.48 35.64 123.66 38.48 C 121.93 38.86 118.72 37.08 118.88 39.91 C 117.54 39.98 116.19 40.03 114.85 40.07 C 113.24 40.03 111.64 40.01 110.03 40.01 C 110.00 39.52 109.94 38.53 109.91 38.04 C 109.82 37.31 109.66 35.86 109.57 35.13 C 111.30 32.61 111.39 36.73 112.20 37.88 C 113.08 36.88 113.90 35.82 114.82 34.86 C 114.94 36.27 115.05 37.69 115.15 39.10 C 116.66 37.13 118.10 35.12 119.65 33.17 C 121.89 34.35 123.78 30.70 123.85 28.76 C 126.87 23.38 130.76 18.45 135.20 14.16 Z" />
</g>
<g id="#d84832ff">
<path fill="#d84832" opacity="1.00" d=" M 107.19 20.79 C 107.93 25.57 108.24 30.45 109.57 35.13 C 109.66 35.86 109.82 37.31 109.91 38.04 C 107.22 40.03 107.80 34.62 105.27 33.86 C 104.99 33.59 104.42 33.04 104.14 32.77 C 106.12 29.10 106.78 24.89 107.19 20.79 Z" />
</g>
<g id="#824620fd">
<path fill="#824620" opacity="1.00" d=" M 136.99 26.05 L 137.88 25.91 C 137.84 26.37 137.74 27.29 137.69 27.74 C 137.26 30.85 136.99 33.98 136.92 37.12 C 134.77 35.01 131.51 33.80 130.49 30.78 C 132.66 29.21 134.92 27.76 136.99 26.05 Z" />
</g>
<g id="#a6682dfd">
<path fill="#a6682d" opacity="1.00" d=" M 65.94 27.98 C 70.30 27.98 74.67 27.88 79.04 28.01 L 78.87 28.79 C 78.33 29.02 77.26 29.46 76.72 29.69 C 82.47 30.25 88.59 31.06 93.39 34.57 C 95.01 35.89 97.11 35.92 99.10 36.04 C 100.33 36.47 101.58 36.84 102.85 37.17 C 103.05 39.13 103.53 41.05 104.29 42.87 C 104.24 44.06 103.87 45.07 103.17 45.90 C 99.68 43.76 96.13 41.69 92.93 39.12 C 82.99 30.27 67.06 29.38 55.60 35.78 C 56.53 30.21 64.18 31.58 68.23 29.34 C 67.70 29.24 66.65 29.05 66.12 28.95 L 65.94 27.98 Z" />
</g>
<g id="#9f612bfe">
<path fill="#9f612b" opacity="1.00" d=" M 136.92 37.12 C 136.99 33.98 137.26 30.85 137.69 27.74 C 139.04 29.42 139.28 31.66 139.49 33.73 C 139.39 35.41 138.02 38.01 140.32 38.69 C 145.35 40.31 151.18 40.97 156.24 39.22 C 158.45 38.35 160.79 37.96 163.12 37.56 C 167.94 36.43 172.57 34.61 177.40 33.48 C 180.81 31.81 184.88 33.41 186.42 36.63 C 185.89 36.60 184.84 36.53 184.31 36.50 C 178.77 35.63 173.43 38.47 168.24 40.16 C 157.77 41.08 146.93 46.35 136.81 40.83 C 136.87 39.60 136.91 38.36 136.92 37.12 Z" />
</g>
<g id="#c28137f9">
<path fill="#c28137" opacity="0.98" d=" M 49.39 36.70 C 53.17 32.27 59.94 28.80 66.12 28.95 C 66.65 29.05 67.70 29.24 68.23 29.34 C 64.18 31.58 56.53 30.21 55.60 35.78 C 49.80 41.17 44.95 47.65 39.45 53.41 C 38.62 55.19 36.58 54.91 34.95 54.99 C 35.97 53.70 37.03 52.44 38.07 51.16 C 41.29 46.25 47.92 42.40 49.39 36.70 Z" />
</g>
<g id="#c07933f1">
<path fill="#c07933" opacity="0.95" d=" M 76.72 29.69 C 77.26 29.46 78.33 29.02 78.87 28.79 C 85.22 28.64 90.91 31.40 96.80 33.20 L 96.66 33.73 C 95.70 35.33 98.24 35.30 99.10 36.04 C 97.11 35.92 95.01 35.89 93.39 34.57 C 88.59 31.06 82.47 30.25 76.72 29.69 Z" />
</g>
<g id="#6f2318ff">
<path fill="#6f2318" opacity="1.00" d=" M 119.65 33.17 C 120.90 31.57 122.38 30.16 123.85 28.76 C 123.78 30.70 121.89 34.35 119.65 33.17 Z" />
</g>
<g id="#32261eff">
<path fill="#32261e" opacity="1.00" d=" M 127.82 32.63 C 128.69 31.99 129.58 31.37 130.49 30.78 C 131.51 33.80 134.77 35.01 136.92 37.12 C 136.91 38.36 136.87 39.60 136.81 40.83 C 135.75 43.19 134.69 45.55 133.81 47.98 C 133.55 47.72 133.04 47.20 132.79 46.94 C 133.34 44.50 135.37 40.93 132.82 39.18 C 131.16 36.90 128.26 38.72 126.06 38.92 C 126.93 36.91 127.51 34.79 127.82 32.63 Z" />
</g>
<g id="#66421bb6">
<path fill="#66421b" opacity="0.71" d=" M 178.01 31.00 C 180.51 31.24 185.51 31.73 188.01 31.97 C 184.66 32.01 181.33 32.01 177.98 31.98 L 178.01 31.00 Z" />
</g>
<g id="#8a5526ff">
<path fill="#8a5526" opacity="1.00" d=" M 55.60 35.78 C 67.06 29.38 82.99 30.27 92.93 39.12 C 91.75 38.69 90.59 38.25 89.42 37.82 C 85.07 36.31 80.91 33.97 76.23 33.70 C 73.08 33.16 69.80 32.57 66.71 33.64 C 62.76 34.32 58.78 35.53 55.77 38.30 C 55.70 37.46 55.64 36.62 55.60 35.78 Z" />
</g>
<g id="#b87936fa">
<path fill="#b87936" opacity="0.98" d=" M 160.97 36.12 C 167.13 36.96 172.02 31.88 177.98 31.98 C 181.33 32.01 184.66 32.01 188.01 31.97 C 189.55 31.62 190.45 31.87 190.70 32.71 C 193.37 41.58 198.83 49.95 204.90 57.10 C 204.95 56.33 205.06 54.80 205.11 54.03 C 207.15 55.69 209.30 54.49 211.05 53.07 L 211.23 54.14 C 210.18 55.47 208.89 56.86 207.04 56.53 C 207.31 57.57 207.68 58.58 208.02 59.60 C 206.93 60.79 205.01 61.78 205.47 63.66 C 205.98 68.50 210.68 72.00 214.25 74.91 C 214.05 75.46 213.65 76.57 213.45 77.12 C 205.96 70.00 200.61 60.80 193.37 53.62 C 192.05 50.37 190.61 47.18 189.11 44.01 C 188.92 42.60 188.94 41.13 188.39 39.80 C 187.91 38.64 187.15 37.64 186.42 36.63 C 184.88 33.41 180.81 31.81 177.40 33.48 C 172.57 34.61 167.94 36.43 163.12 37.56 C 162.61 37.42 161.58 37.13 161.06 36.99 L 160.97 36.12 Z" />
</g>
<g id="#96784dff">
<path fill="#96784d" opacity="1.00" d=" M 66.71 33.64 C 69.80 32.57 73.08 33.16 76.23 33.70 C 73.05 33.75 69.88 33.91 66.71 33.64 Z" />
</g>
<g id="#6e5732ea">
<path fill="#6e5732" opacity="0.92" d=" M 103.23 33.03 L 104.14 32.77 C 104.42 33.04 104.99 33.59 105.27 33.86 C 105.27 35.00 105.30 36.15 105.20 37.29 C 104.61 37.26 103.44 37.20 102.85 37.17 C 102.87 36.66 102.91 35.63 102.93 35.12 C 103.01 34.60 103.16 33.55 103.23 33.03 Z" />
</g>
<g id="#d3cccbff">
<path fill="#d3cccb" opacity="1.00" d=" M 123.66 38.48 C 123.48 35.64 125.35 33.66 127.82 32.63 C 127.51 34.79 126.93 36.91 126.06 38.92 C 125.46 38.81 124.26 38.59 123.66 38.48 Z" />
</g>
<g id="#cc8539fe">
<path fill="#cc8539" opacity="1.00" d=" M 204.90 57.10 C 198.83 49.95 193.37 41.58 190.70 32.71 C 192.22 32.55 193.35 32.95 194.09 33.90 C 194.98 35.93 195.96 37.93 196.99 39.90 C 197.70 45.56 201.30 50.06 205.11 54.03 C 205.06 54.80 204.95 56.33 204.90 57.10 Z" />
</g>
<g id="#c0a377fd">
<path fill="#c0a377" opacity="1.00" d=" M 55.77 38.30 C 58.78 35.53 62.76 34.32 66.71 33.64 C 69.88 33.91 73.05 33.75 76.23 33.70 C 80.91 33.97 85.07 36.31 89.42 37.82 C 89.24 38.32 88.89 39.32 88.71 39.82 C 82.00 40.72 75.63 37.96 69.07 37.16 C 67.42 37.59 65.47 37.98 64.58 39.61 C 60.01 41.05 55.19 41.63 51.04 44.10 C 52.59 42.14 54.19 40.23 55.77 38.30 Z" />
</g>
<g id="#df923df9">
<path fill="#df923d" opacity="0.98" d=" M 99.10 36.04 C 98.24 35.30 95.70 35.33 96.66 33.73 C 98.82 33.81 100.94 34.28 102.93 35.12 C 102.91 35.63 102.87 36.66 102.85 37.17 C 101.58 36.84 100.33 36.47 99.10 36.04 Z" />
</g>
<g id="#b8a89cff">
<path fill="#b8a89c" opacity="1.00" d=" M 105.27 33.86 C 107.80 34.62 107.22 40.03 109.91 38.04 C 109.94 38.53 110.00 39.52 110.03 40.01 C 109.45 40.08 108.27 40.22 107.69 40.29 L 106.95 40.36 C 106.34 39.35 105.76 38.33 105.20 37.29 C 105.30 36.15 105.27 35.00 105.27 33.86 Z" />
</g>
<g id="#ba6f2ff6">
<path fill="#ba6f2f" opacity="0.96" d=" M 140.32 38.69 C 138.02 38.01 139.39 35.41 139.49 33.73 C 142.56 35.26 145.53 37.13 149.05 37.39 L 149.09 37.99 C 145.95 36.97 142.30 41.61 150.97 39.04 C 152.73 39.07 154.48 39.15 156.24 39.22 C 151.18 40.97 145.35 40.31 140.32 38.69 Z" />
</g>
<g id="#f9a642ff">
<path fill="#f9a642" opacity="1.00" d=" M 194.09 33.90 C 194.47 33.99 195.24 34.18 195.62 34.28 C 199.79 38.81 206.08 41.16 211.85 42.96 C 211.98 42.42 212.23 41.35 212.35 40.81 C 213.15 41.64 213.96 42.44 214.71 43.32 C 215.83 44.97 213.03 45.96 213.90 47.61 C 212.71 48.97 211.73 50.49 210.90 52.09 C 205.33 49.28 199.87 45.61 196.99 39.90 C 195.96 37.93 194.98 35.93 194.09 33.90 Z" />
</g>
<g id="#f8c14dfc">
<path fill="#f8c14d" opacity="1.00" d=" M 195.62 34.28 C 201.31 34.56 206.22 38.20 211.78 39.26 L 212.06 39.98 L 212.35 40.81 C 212.23 41.35 211.98 42.42 211.85 42.96 C 206.08 41.16 199.79 38.81 195.62 34.28 Z" />
</g>
<g id="#9a6834f9">
<path fill="#9a6834" opacity="0.98" d=" M 39.45 53.41 C 44.95 47.65 49.80 41.17 55.60 35.78 C 55.64 36.62 55.70 37.46 55.77 38.30 C 54.19 40.23 52.59 42.14 51.04 44.10 C 39.25 55.86 29.32 69.57 16.61 80.32 C 16.23 78.85 16.69 77.37 16.95 75.93 C 21.01 70.72 26.96 67.02 30.21 61.23 C 32.02 59.31 34.05 57.55 34.95 54.99 C 36.58 54.91 38.62 55.19 39.45 53.41 Z" />
</g>
<g id="#764822ff">
<path fill="#764822" opacity="1.00" d=" M 168.24 40.16 C 173.43 38.47 178.77 35.63 184.31 36.50 C 183.15 36.93 181.99 37.38 180.83 37.82 C 179.49 38.14 178.16 38.47 176.86 38.90 C 170.28 40.78 164.06 43.68 157.78 46.34 C 155.97 47.02 154.25 47.90 152.58 48.85 C 152.13 49.01 151.24 49.33 150.79 49.49 L 149.83 49.74 C 152.94 42.65 162.59 44.35 168.24 40.16 Z" />
</g>
<g id="#f9e95efc">
<path fill="#f9e95e" opacity="1.00" d=" M 44.01 40.99 C 45.65 39.40 47.50 37.97 49.39 36.70 C 47.92 42.40 41.29 46.25 38.07 51.16 C 37.69 46.82 41.72 44.15 44.01 40.99 Z" />
</g>
<g id="#bc9667fe">
<path fill="#bc9667" opacity="1.00" d=" M 64.58 39.61 C 65.47 37.98 67.42 37.59 69.07 37.16 C 75.63 37.96 82.00 40.72 88.71 39.82 C 88.89 39.32 89.24 38.32 89.42 37.82 C 90.59 38.25 91.75 38.69 92.93 39.12 C 96.13 41.69 99.68 43.76 103.17 45.90 C 102.86 46.15 102.26 46.67 101.96 46.93 C 96.18 44.22 88.93 39.70 82.86 43.56 C 82.49 43.67 81.75 43.87 81.38 43.97 C 81.08 43.68 80.47 43.09 80.16 42.80 C 77.84 42.11 75.35 41.91 72.69 42.21 C 71.17 41.49 69.84 40.25 68.11 40.10 C 67.23 39.98 65.46 39.73 64.58 39.61 Z" />
</g>
<g id="#f8f29bff">
<path fill="#f8f29b" opacity="1.00" d=" M 102.85 37.17 C 103.44 37.20 104.61 37.26 105.20 37.29 C 105.76 38.33 106.34 39.35 106.95 40.36 C 106.92 40.65 106.86 41.24 106.83 41.54 C 105.99 43.21 107.74 46.09 105.98 46.97 C 105.40 45.61 104.85 44.24 104.29 42.87 C 103.53 41.05 103.05 39.13 102.85 37.17 Z" />
</g>
<g id="#bd8c35dc">
<path fill="#bd8c35" opacity="0.86" d=" M 149.05 37.39 C 151.10 36.31 153.92 36.52 155.99 37.50 C 153.78 38.26 151.49 38.43 149.09 37.99 L 149.05 37.39 Z" />
</g>
<g id="#f49940fe">
<path fill="#f49940" opacity="1.00" d=" M 155.99 37.50 C 157.58 36.83 159.37 36.91 161.06 36.99 C 161.58 37.13 162.61 37.42 163.12 37.56 C 160.79 37.96 158.45 38.35 156.24 39.22 C 154.48 39.15 152.73 39.07 150.97 39.04 C 142.30 41.61 145.95 36.97 149.09 37.99 C 151.49 38.43 153.78 38.26 155.99 37.50 Z" />
</g>
<g id="#c6a979ff">
<path fill="#c6a979" opacity="1.00" d=" M 180.83 37.82 C 181.99 37.38 183.15 36.93 184.31 36.50 C 184.84 36.53 185.89 36.60 186.42 36.63 C 187.15 37.64 187.91 38.64 188.39 39.80 C 188.42 43.83 183.62 40.87 181.33 40.61 C 179.57 40.33 180.46 38.93 180.83 37.82 Z" />
</g>
<g id="#a6875bff">
<path fill="#a6875b" opacity="1.00" d=" M 118.88 39.91 C 118.72 37.08 121.93 38.86 123.66 38.48 C 124.26 38.59 125.46 38.81 126.06 38.92 C 128.26 38.72 131.16 36.90 132.82 39.18 C 135.37 40.93 133.34 44.50 132.79 46.94 C 131.97 48.33 131.37 49.84 130.79 51.35 C 130.30 50.00 130.68 48.58 130.72 47.20 C 127.75 47.14 124.83 46.80 121.97 46.02 L 121.10 45.76 C 120.89 45.21 120.48 44.13 120.27 43.58 C 119.85 42.34 119.39 41.12 118.88 39.91 Z" />
</g>
<g id="#b08f63ff">
<path fill="#b08f63" opacity="1.00" d=" M 176.86 38.90 C 178.16 38.47 179.49 38.14 180.83 37.82 C 180.46 38.93 179.57 40.33 181.33 40.61 C 183.62 40.87 188.42 43.83 188.39 39.80 C 188.94 41.13 188.92 42.60 189.11 44.01 C 187.48 43.94 185.85 43.86 184.23 43.73 C 181.55 42.86 178.81 42.23 176.05 41.72 C 176.26 40.76 176.53 39.82 176.86 38.90 Z" />
</g>
<g id="#9c784eff">
<path fill="#9c784e" opacity="1.00" d=" M 157.78 46.34 C 164.06 43.68 170.28 40.78 176.86 38.90 C 176.53 39.82 176.26 40.76 176.05 41.72 C 178.81 42.23 181.55 42.86 184.23 43.73 C 177.67 44.49 171.06 44.98 164.61 46.52 C 162.27 47.16 159.99 47.10 157.78 46.34 Z" />
</g>
<g id="#e1cc89f7">
<path fill="#e1cc89" opacity="0.97" d=" M 68.11 40.10 C 69.84 40.25 71.17 41.49 72.69 42.21 C 73.43 43.17 74.23 44.07 75.06 44.95 C 72.30 47.29 68.98 44.50 66.09 43.81 C 66.65 42.51 67.28 41.25 68.11 40.10 Z" />
</g>
<g id="#eec17aff">
<path fill="#eec17a" opacity="1.00" d=" M 106.95 40.36 L 107.69 40.29 C 108.23 40.48 109.30 40.85 109.84 41.04 C 109.33 42.28 108.88 43.55 108.55 44.85 C 108.10 43.69 107.58 42.54 106.83 41.54 C 106.86 41.24 106.92 40.65 106.95 40.36 Z" />
</g>
<g id="#d29083ff">
<path fill="#d29083" opacity="1.00" d=" M 107.69 40.29 C 108.27 40.22 109.45 40.08 110.03 40.01 C 111.64 40.01 113.24 40.03 114.85 40.07 C 115.35 40.38 116.35 40.99 116.85 41.30 C 113.99 44.26 111.75 47.61 110.04 51.35 C 109.70 47.75 110.12 44.28 111.77 41.09 C 111.29 41.08 110.32 41.05 109.84 41.04 C 109.30 40.85 108.23 40.48 107.69 40.29 Z" />
</g>
<g id="#bc8473ff">
<path fill="#bc8473" opacity="1.00" d=" M 114.85 40.07 C 116.19 40.03 117.54 39.98 118.88 39.91 C 119.39 41.12 119.85 42.34 120.27 43.58 C 115.61 43.74 113.69 48.46 111.96 52.04 C 108.26 54.75 117.41 51.66 119.09 52.11 C 118.01 53.07 116.99 54.09 116.00 55.13 C 115.55 55.02 114.64 54.81 114.19 54.70 C 112.63 54.00 110.16 54.37 109.72 52.28 L 110.04 51.35 C 111.75 47.61 113.99 44.26 116.85 41.30 C 116.35 40.99 115.35 40.38 114.85 40.07 Z" />
</g>
<g id="#8d5525ff">
<path fill="#8d5525" opacity="1.00" d=" M 136.81 40.83 C 146.93 46.35 157.77 41.08 168.24 40.16 C 162.59 44.35 152.94 42.65 149.83 49.74 C 148.50 55.47 142.30 53.54 137.94 54.95 C 137.62 55.13 136.98 55.49 136.65 55.67 C 134.67 56.28 132.72 56.98 130.78 57.71 C 127.48 58.56 124.08 58.93 120.72 59.40 C 120.21 59.36 119.20 59.28 118.69 59.24 L 117.81 59.09 C 117.34 58.81 116.42 58.24 115.95 57.96 C 115.96 57.49 115.99 56.55 116.00 56.08 C 121.18 56.07 126.86 55.56 130.95 52.00 C 132.71 51.38 133.45 49.68 133.81 47.98 C 134.69 45.55 135.75 43.19 136.81 40.83 Z" />
</g>
<g id="#eb963dff">
<path fill="#eb963d" opacity="1.00" d=" M 196.99 39.90 C 199.87 45.61 205.33 49.28 210.90 52.09 L 211.05 53.07 C 209.30 54.49 207.15 55.69 205.11 54.03 C 201.30 50.06 197.70 45.56 196.99 39.90 Z" />
</g>
<g id="#f8f7aefb">
<path fill="#f8f7ae" opacity="1.00" d=" M 212.06 39.98 C 225.22 41.84 236.80 49.25 249.93 51.20 C 249.70 51.65 249.24 52.54 249.02 52.98 C 244.60 53.02 240.19 52.90 235.79 53.15 C 236.38 53.75 237.04 54.26 237.76 54.70 C 242.88 57.71 247.94 60.83 252.72 64.37 C 252.79 65.03 252.95 66.35 253.03 67.01 C 247.15 64.99 239.53 65.01 235.05 60.83 C 230.53 54.36 220.64 52.38 213.06 51.94 C 213.38 50.51 214.75 49.09 213.90 47.61 C 213.03 45.96 215.83 44.97 214.71 43.32 C 213.96 42.44 213.15 41.64 212.35 40.81 L 212.06 39.98 Z" />
</g>
<g id="#edecd8f6">
<path fill="#edecd8" opacity="0.96" d=" M 32.74 44.71 C 36.03 42.75 40.25 42.15 44.01 40.99 C 41.72 44.15 37.69 46.82 38.07 51.16 C 37.03 52.44 35.97 53.70 34.95 54.99 C 32.94 56.75 30.62 58.36 30.21 61.23 C 26.96 67.02 21.01 70.72 16.95 75.93 C 15.78 76.28 14.76 76.95 13.89 77.80 C 12.31 79.75 7.07 80.10 11.23 74.33 C 14.13 71.86 18.10 70.33 20.09 66.94 C 17.27 67.33 15.39 69.77 12.95 71.04 C 13.00 70.57 13.10 69.64 13.15 69.17 C 18.37 63.97 25.62 60.90 30.11 55.00 C 26.32 55.93 22.62 57.22 18.76 57.84 C 23.55 53.36 30.03 51.08 35.26 47.30 C 38.44 44.60 29.57 47.40 32.74 44.71 Z" />
</g>
<g id="#fbd2a7ff">
<path fill="#fbd2a7" opacity="1.00" d=" M 109.84 41.04 C 110.32 41.05 111.29 41.08 111.77 41.09 C 110.12 44.28 109.70 47.75 110.04 51.35 L 109.72 52.28 C 109.55 51.93 109.19 51.22 109.01 50.86 C 108.85 48.86 108.59 46.86 108.55 44.85 C 108.88 43.55 109.33 42.28 109.84 41.04 Z" />
</g>
<g id="#c9aa77f8">
<path fill="#c9aa77" opacity="0.97" d=" M 72.69 42.21 C 75.35 41.91 77.84 42.11 80.16 42.80 C 78.54 43.62 76.98 45.09 75.06 44.95 C 74.23 44.07 73.43 43.17 72.69 42.21 Z" />
</g>
<g id="#b18255ff">
<path fill="#b18255" opacity="1.00" d=" M 82.86 43.56 C 88.93 39.70 96.18 44.22 101.96 46.93 C 102.40 47.18 103.29 47.67 103.74 47.92 C 104.10 48.43 104.84 49.45 105.20 49.96 C 104.99 50.99 104.75 52.01 104.48 53.02 C 103.94 52.72 102.88 52.13 102.34 51.84 C 99.73 50.30 95.62 52.22 93.83 49.18 C 92.02 46.20 87.99 47.15 85.12 45.85 C 84.38 45.07 83.63 44.31 82.86 43.56 Z" />
</g>
<g id="#fbe57dff">
<path fill="#fbe57d" opacity="1.00" d=" M 105.98 46.97 C 107.74 46.09 105.99 43.21 106.83 41.54 C 107.58 42.54 108.10 43.69 108.55 44.85 C 108.59 46.86 108.85 48.86 109.01 50.86 C 107.85 50.29 106.88 50.31 106.60 51.78 C 106.12 51.19 105.65 50.58 105.20 49.96 C 104.84 49.45 104.10 48.43 103.74 47.92 C 104.30 47.68 105.42 47.21 105.98 46.97 Z" />
</g>
<g id="#eeaf5bff">
<path fill="#eeaf5b" opacity="1.00" d=" M 104.29 42.87 C 104.85 44.24 105.40 45.61 105.98 46.97 C 105.42 47.21 104.30 47.68 103.74 47.92 C 103.29 47.67 102.40 47.18 101.96 46.93 C 102.26 46.67 102.86 46.15 103.17 45.90 C 103.87 45.07 104.24 44.06 104.29 42.87 Z" />
</g>
<g id="#e3c879f9">
<path fill="#e3c879" opacity="0.98" d=" M 81.38 43.97 C 81.75 43.87 82.49 43.67 82.86 43.56 C 83.63 44.31 84.38 45.07 85.12 45.85 C 82.65 48.78 85.53 49.98 88.17 50.79 C 85.28 51.44 82.32 50.83 80.09 48.84 C 79.92 47.12 79.57 44.96 81.38 43.97 Z" />
</g>
<g id="#aa6e68ff">
<path fill="#aa6e68" opacity="1.00" d=" M 111.96 52.04 C 113.69 48.46 115.61 43.74 120.27 43.58 C 120.48 44.13 120.89 45.21 121.10 45.76 C 117.91 47.64 115.48 50.78 111.96 52.04 Z" />
</g>
<g id="#926d47fa">
<path fill="#926d47" opacity="0.98" d=" M 164.61 46.52 C 171.06 44.98 177.67 44.49 184.23 43.73 C 185.85 43.86 187.48 43.94 189.11 44.01 C 190.61 47.18 192.05 50.37 193.37 53.62 C 192.21 53.49 191.07 53.28 189.95 53.01 C 189.01 52.36 188.09 51.67 187.12 51.08 C 186.06 53.15 185.29 56.02 188.14 56.98 C 183.79 57.80 180.12 55.27 175.99 54.96 C 176.26 56.31 176.73 57.62 177.03 58.97 C 170.12 60.41 163.89 57.01 158.11 53.78 C 156.00 52.46 154.16 50.77 152.58 48.85 C 154.25 47.90 155.97 47.02 157.78 46.34 C 159.99 47.10 162.27 47.16 164.61 46.52 M 172.34 47.42 C 168.77 48.78 163.89 49.12 162.00 52.89 C 165.67 54.58 169.49 56.84 173.63 55.47 C 174.44 53.28 176.17 52.62 178.35 53.40 C 183.89 57.01 183.93 51.17 184.76 48.12 C 180.71 47.18 176.48 46.53 172.34 47.42 Z" />
</g>
<g id="#c69e66f9">
<path fill="#c69e66" opacity="0.98" d=" M 85.12 45.85 C 87.99 47.15 92.02 46.20 93.83 49.18 C 95.62 52.22 99.73 50.30 102.34 51.84 C 99.37 56.09 90.21 53.87 91.83 47.90 C 90.51 48.71 89.71 50.48 88.17 50.79 C 85.53 49.98 82.65 48.78 85.12 45.85 Z" />
</g>
<g id="#965e56ff">
<path fill="#965e56" opacity="1.00" d=" M 111.96 52.04 C 115.48 50.78 117.91 47.64 121.10 45.76 L 121.97 46.02 C 122.54 47.91 123.10 49.83 123.02 51.83 C 121.71 51.93 120.40 52.03 119.09 52.11 C 117.41 51.66 108.26 54.75 111.96 52.04 Z" />
</g>
<g id="#a07b4fff">
<path fill="#a07b4f" opacity="1.00" d=" M 121.97 46.02 C 124.83 46.80 127.75 47.14 130.72 47.20 C 130.68 48.58 130.30 50.00 130.79 51.35 L 130.95 52.00 C 126.86 55.56 121.18 56.07 116.00 56.08 L 116.00 55.13 C 116.99 54.09 118.01 53.07 119.09 52.11 C 120.40 52.03 121.71 51.93 123.02 51.83 C 123.10 49.83 122.54 47.91 121.97 46.02 Z" />
</g>
<g id="#6e4824ff">
<path fill="#6e4824" opacity="1.00" d=" M 130.79 51.35 C 131.37 49.84 131.97 48.33 132.79 46.94 C 133.04 47.20 133.55 47.72 133.81 47.98 C 133.45 49.68 132.71 51.38 130.95 52.00 L 130.79 51.35 Z" />
</g>
<g id="#89603eff">
<path fill="#89603e" opacity="1.00" d=" M 172.34 47.42 C 176.48 46.53 180.71 47.18 184.76 48.12 C 183.93 51.17 183.89 57.01 178.35 53.40 C 176.17 52.62 174.44 53.28 173.63 55.47 C 169.49 56.84 165.67 54.58 162.00 52.89 C 163.89 49.12 168.77 48.78 172.34 47.42 Z" />
</g>
<g id="#cc9142ff">
<path fill="#cc9142" opacity="1.00" d=" M 210.90 52.09 C 211.73 50.49 212.71 48.97 213.90 47.61 C 214.75 49.09 213.38 50.51 213.06 51.94 C 212.47 52.69 211.86 53.43 211.23 54.14 L 211.05 53.07 L 210.90 52.09 Z" />
</g>
<g id="#a88756ff">
<path fill="#a88756" opacity="1.00" d=" M 150.79 49.49 C 151.24 49.33 152.13 49.01 152.58 48.85 C 154.16 50.77 156.00 52.46 158.11 53.78 C 158.05 55.80 158.58 57.77 158.59 59.77 C 157.97 64.73 158.64 69.96 156.63 74.66 C 155.45 79.65 152.02 84.77 153.93 90.01 C 154.49 95.24 155.51 100.32 157.32 105.26 L 156.92 106.10 C 156.68 105.85 156.20 105.34 155.97 105.08 C 153.63 99.77 152.04 94.07 148.93 89.13 C 144.04 91.62 138.64 93.17 134.04 96.18 C 134.01 97.84 134.58 99.43 134.98 101.02 C 132.62 99.92 131.32 97.77 132.04 95.14 C 138.35 90.22 146.97 87.20 150.22 79.24 C 154.67 71.11 152.21 61.53 152.70 52.70 C 153.15 51.17 151.73 50.39 150.79 49.49 Z" />
</g>
<g id="#e8b750fa">
<path fill="#e8b750" opacity="0.98" d=" M 105.20 49.96 C 105.65 50.58 106.12 51.19 106.60 51.78 C 106.88 50.31 107.85 50.29 109.01 50.86 C 109.19 51.22 109.55 51.93 109.72 52.28 C 110.16 54.37 112.63 54.00 114.19 54.70 C 113.07 54.98 111.96 55.29 110.86 55.63 C 109.04 55.01 107.29 53.91 105.30 54.10 C 104.93 55.15 104.56 56.21 104.21 57.26 C 103.99 55.82 104.08 54.41 104.48 53.02 C 104.75 52.01 104.99 50.99 105.20 49.96 Z" />
</g>
<g id="#6f451eff">
<path fill="#6f451e" opacity="1.00" d=" M 137.94 54.95 C 142.30 53.54 148.50 55.47 149.83 49.74 C 149.86 51.55 149.76 53.37 149.16 55.09 C 145.41 55.04 141.68 54.94 137.94 54.95 Z" />
</g>
<g id="#ae8d5cff">
<path fill="#ae8d5c" opacity="1.00" d=" M 149.83 49.74 L 150.79 49.49 C 151.73 50.39 153.15 51.17 152.70 52.70 C 152.21 61.53 154.67 71.11 150.22 79.24 C 146.97 87.20 138.35 90.22 132.04 95.14 C 131.32 97.77 132.62 99.92 134.98 101.02 C 137.47 102.76 140.25 103.98 143.06 105.08 C 143.73 105.70 144.39 106.32 145.05 106.96 C 143.47 106.99 141.89 106.98 140.31 106.95 C 135.72 104.38 129.20 100.34 130.12 94.20 C 135.61 89.10 143.76 86.23 146.90 78.94 C 150.71 72.18 153.54 62.97 148.95 55.98 L 149.16 55.09 C 149.76 53.37 149.86 51.55 149.83 49.74 Z" />
</g>
<g id="#d0b86ff1">
<path fill="#d0b86f" opacity="0.95" d=" M 187.12 51.08 C 188.09 51.67 189.01 52.36 189.95 53.01 C 191.98 54.44 190.59 57.67 188.14 56.98 C 185.29 56.02 186.06 53.15 187.12 51.08 Z" />
</g>
<g id="#faf494fd">
<path fill="#faf494" opacity="1.00" d=" M 213.06 51.94 C 220.64 52.38 230.53 54.36 235.05 60.83 C 234.52 60.94 233.45 61.15 232.92 61.25 C 237.66 68.16 247.33 70.61 249.88 79.02 C 250.46 80.49 248.12 80.25 247.26 80.64 C 244.40 78.38 241.18 76.68 238.12 74.74 C 236.47 73.65 234.88 72.35 232.91 71.90 C 233.97 73.48 235.29 74.87 236.68 76.18 C 239.43 79.97 245.82 82.19 244.01 88.02 C 244.64 90.44 241.86 91.09 240.19 91.86 C 235.95 86.87 230.40 83.33 225.95 78.53 C 224.86 76.67 222.60 78.04 221.14 76.85 C 216.89 71.04 213.48 64.44 208.02 59.60 C 207.68 58.58 207.31 57.57 207.04 56.53 C 208.89 56.86 210.18 55.47 211.23 54.14 C 211.86 53.43 212.47 52.69 213.06 51.94 Z" />
</g>
<g id="#57574493">
<path fill="#575744" opacity="0.58" d=" M 235.79 53.15 C 240.19 52.90 244.60 53.02 249.02 52.98 C 247.72 56.20 240.67 52.48 237.76 54.70 C 237.04 54.26 236.38 53.75 235.79 53.15 Z" />
</g>
<g id="#f9f4a0fc">
<path fill="#f9f4a0" opacity="1.00" d=" M 105.30 54.10 C 107.29 53.91 109.04 55.01 110.86 55.63 C 111.63 56.33 112.38 57.05 113.11 57.79 C 109.02 69.93 118.36 80.95 118.02 92.97 C 118.39 94.90 116.38 95.30 115.14 96.11 C 111.84 87.30 109.31 78.29 105.45 69.67 C 106.13 65.42 103.33 61.43 104.21 57.26 C 104.56 56.21 104.93 55.15 105.30 54.10 Z" />
</g>
<g id="#fff6a8ff">
<path fill="#fff6a8" opacity="1.00" d=" M 30.21 61.23 C 30.62 58.36 32.94 56.75 34.95 54.99 C 34.05 57.55 32.02 59.31 30.21 61.23 Z" />
</g>
<g id="#c88337ff">
<path fill="#c88337" opacity="1.00" d=" M 110.86 55.63 C 111.96 55.29 113.07 54.98 114.19 54.70 C 114.64 54.81 115.55 55.02 116.00 55.13 L 116.00 56.08 C 115.99 56.55 115.96 57.49 115.95 57.96 L 114.99 57.92 C 114.52 57.89 113.58 57.82 113.11 57.79 C 112.38 57.05 111.63 56.33 110.86 55.63 Z" />
</g>
<g id="#977548ff">
<path fill="#977548" opacity="1.00" d=" M 136.65 55.67 C 136.98 55.49 137.62 55.13 137.94 54.95 C 141.68 54.94 145.41 55.04 149.16 55.09 L 148.95 55.98 C 148.47 55.99 147.49 56.02 147.00 56.04 C 143.54 56.00 140.09 56.02 136.65 55.67 Z" />
</g>
<g id="#bd9f67ff">
<path fill="#bd9f67" opacity="1.00" d=" M 130.78 57.71 C 132.72 56.98 134.67 56.28 136.65 55.67 C 140.09 56.02 143.54 56.00 147.00 56.04 C 150.42 66.31 146.72 78.53 138.26 85.25 C 134.52 88.61 128.70 90.47 127.68 96.09 C 125.72 93.19 128.27 89.34 131.07 88.09 C 139.26 83.52 145.42 74.60 145.05 64.99 C 145.15 62.89 144.39 60.63 142.71 59.31 C 138.68 59.10 134.77 58.12 130.78 57.71 Z" />
</g>
<g id="#b79662ff">
<path fill="#b79662" opacity="1.00" d=" M 147.00 56.04 C 147.49 56.02 148.47 55.99 148.95 55.98 C 153.54 62.97 150.71 72.18 146.90 78.94 C 143.76 86.23 135.61 89.10 130.12 94.20 C 129.20 100.34 135.72 104.38 140.31 106.95 C 140.09 107.20 139.65 107.70 139.42 107.94 C 137.02 106.95 134.50 106.29 131.98 105.72 C 132.22 105.28 132.70 104.41 132.94 103.97 C 131.13 101.38 129.21 98.87 127.68 96.09 C 128.70 90.47 134.52 88.61 138.26 85.25 C 146.72 78.53 150.42 66.31 147.00 56.04 Z" />
</g>
<g id="#f7dd8cfe">
<path fill="#f7dd8c" opacity="1.00" d=" M 113.11 57.79 C 113.58 57.82 114.52 57.89 114.99 57.92 L 115.16 58.80 C 114.79 63.32 115.80 67.68 116.93 72.01 C 118.45 77.66 118.70 83.61 120.75 89.13 C 121.08 92.30 122.34 95.54 121.77 98.72 C 120.65 99.98 119.40 101.10 118.14 102.21 C 116.43 100.93 115.30 98.26 115.14 96.11 C 116.38 95.30 118.39 94.90 118.02 92.97 C 118.36 80.95 109.02 69.93 113.11 57.79 Z" />
</g>
<g id="#dfc583ff">
<path fill="#dfc583" opacity="1.00" d=" M 114.99 57.92 L 115.95 57.96 C 116.42 58.24 117.34 58.81 117.81 59.09 C 118.76 66.09 128.79 64.85 130.72 71.34 C 134.21 79.94 120.95 82.05 122.87 90.23 C 122.21 89.46 121.54 88.71 120.85 87.96 C 119.81 82.08 125.90 78.13 124.72 72.36 C 121.08 68.20 116.91 64.19 115.16 58.80 L 114.99 57.92 Z" />
</g>
<g id="#c5a66eff">
<path fill="#c5a66e" opacity="1.00" d=" M 120.72 59.40 C 124.08 58.93 127.48 58.56 130.78 57.71 C 134.77 58.12 138.68 59.10 142.71 59.31 C 144.39 60.63 145.15 62.89 145.05 64.99 C 145.42 74.60 139.26 83.52 131.07 88.09 C 128.27 89.34 125.72 93.19 127.68 96.09 C 129.21 98.87 131.13 101.38 132.94 103.97 C 132.70 104.41 132.22 105.28 131.98 105.72 C 130.76 106.01 129.92 106.82 129.42 107.94 C 128.65 108.24 127.86 108.34 127.04 108.24 C 126.73 107.69 126.12 106.59 125.82 106.04 C 126.86 104.71 128.16 103.54 128.96 102.03 C 128.00 99.70 126.60 97.57 125.76 95.19 C 126.01 93.57 126.51 90.34 126.76 88.72 C 132.07 85.21 137.99 81.48 140.03 75.05 C 142.53 70.97 141.46 64.16 136.66 62.42 C 131.21 62.29 125.88 61.08 120.72 59.40 Z" />
</g>
<g id="#e9d08bff">
<path fill="#e9d08b" opacity="1.00" d=" M 115.16 58.80 C 116.91 64.19 121.08 68.20 124.72 72.36 C 125.90 78.13 119.81 82.08 120.85 87.96 L 120.75 89.13 C 118.70 83.61 118.45 77.66 116.93 72.01 C 115.80 67.68 114.79 63.32 115.16 58.80 Z" />
</g>
<g id="#d5bc7cff">
<path fill="#d5bc7c" opacity="1.00" d=" M 117.81 59.09 L 118.69 59.24 C 123.28 65.49 134.05 62.13 136.70 70.26 C 136.59 74.00 134.84 77.71 132.85 80.84 C 129.87 83.76 125.67 85.66 124.06 89.75 C 123.80 90.12 123.28 90.85 123.03 91.22 L 122.87 90.23 C 120.95 82.05 134.21 79.94 130.72 71.34 C 128.79 64.85 118.76 66.09 117.81 59.09 Z" />
</g>
<g id="#ccb174ff">
<path fill="#ccb174" opacity="1.00" d=" M 118.69 59.24 C 119.20 59.28 120.21 59.36 120.72 59.40 C 125.88 61.08 131.21 62.29 136.66 62.42 C 141.46 64.16 142.53 70.97 140.03 75.05 C 137.99 81.48 132.07 85.21 126.76 88.72 C 126.51 90.34 126.01 93.57 125.76 95.19 C 125.33 93.83 124.48 91.11 124.06 89.75 C 125.67 85.66 129.87 83.76 132.85 80.84 C 134.84 77.71 136.59 74.00 136.70 70.26 C 134.05 62.13 123.28 65.49 118.69 59.24 Z" />
</g>
<g id="#b2986afd">
<path fill="#b2986a" opacity="1.00" d=" M 156.63 74.66 C 158.64 69.96 157.97 64.73 158.59 59.77 C 159.11 62.06 160.40 64.31 159.84 66.73 C 159.35 69.77 158.95 72.86 157.85 75.77 C 154.96 82.79 155.83 90.70 156.98 98.03 C 157.08 99.58 158.04 100.86 158.79 102.17 L 159.08 102.69 C 158.47 103.54 157.89 104.39 157.32 105.26 C 155.51 100.32 154.49 95.24 153.93 90.01 C 152.02 84.77 155.45 79.65 156.63 74.66 Z" />
</g>
<g id="#ebd387fa">
<path fill="#ebd387" opacity="0.98" d=" M 205.47 63.66 C 205.01 61.78 206.93 60.79 208.02 59.60 C 213.48 64.44 216.89 71.04 221.14 76.85 C 222.60 78.04 224.86 76.67 225.95 78.53 C 225.82 78.86 225.54 79.50 225.41 79.83 C 228.06 84.70 231.77 88.96 233.98 94.08 C 234.86 95.85 232.68 99.61 231.27 96.80 C 225.99 89.22 220.54 81.69 214.25 74.91 C 211.63 70.93 208.88 67.01 205.47 63.66 Z" />
</g>
<g id="#936936ff">
<path fill="#936936" opacity="1.00" d=" M 214.25 74.91 C 210.68 72.00 205.98 68.50 205.47 63.66 C 208.88 67.01 211.63 70.93 214.25 74.91 Z" />
</g>
<g id="#d4c191ff">
<path fill="#d4c191" opacity="1.00" d=" M 157.85 75.77 C 158.95 72.86 159.35 69.77 159.84 66.73 C 159.96 72.82 160.05 78.91 159.94 85.00 C 159.90 85.44 159.81 86.32 159.77 86.76 C 159.68 89.45 158.06 105.06 157.87 92.00 C 157.00 86.56 157.36 81.20 157.85 75.77 Z" />
</g>
<g id="#15130d4e">
<path fill="#15130d" opacity="0.31" d=" M 159.84 66.73 L 160.88 67.06 C 161.00 73.03 161.20 79.01 160.94 84.98 L 159.94 85.00 C 160.05 78.91 159.96 72.82 159.84 66.73 Z" />
</g>
<g id="#1f1f1351">
<path fill="#1f1f13" opacity="0.32" d=" M 232.91 71.90 C 234.88 72.35 236.47 73.65 238.12 74.74 C 237.76 75.10 237.04 75.82 236.68 76.18 C 235.29 74.87 233.97 73.48 232.91 71.90 Z" />
</g>
<g id="#956833ef">
<path fill="#956833" opacity="0.94" d=" M 214.25 74.91 C 220.54 81.69 225.99 89.22 231.27 96.80 C 224.22 91.96 219.50 83.82 213.26 77.75 L 213.45 77.12 C 213.65 76.57 214.05 75.46 214.25 74.91 Z" />
</g>
<g id="#997e49e4">
<path fill="#997e49" opacity="0.89" d=" M 13.89 77.80 C 14.76 76.95 15.78 76.28 16.95 75.93 C 16.69 77.37 16.23 78.85 16.61 80.32 C 16.15 82.50 13.11 83.74 10.98 84.06 C 9.74 80.72 14.63 80.89 13.89 77.80 Z" />
</g>
<g id="#b8a479f8">
<path fill="#b8a479" opacity="0.97" d=" M 156.98 98.03 C 155.83 90.70 154.96 82.79 157.85 75.77 C 157.36 81.20 157.00 86.56 157.87 92.00 C 158.06 105.06 159.68 89.45 159.77 86.76 C 159.91 90.16 160.08 93.57 160.09 96.98 C 160.04 98.79 159.68 100.57 158.79 102.17 C 158.04 100.86 157.08 99.58 156.98 98.03 Z" />
</g>
<g id="#f0c37efe">
<path fill="#f0c37e" opacity="1.00" d=" M 120.85 87.96 C 121.54 88.71 122.21 89.46 122.87 90.23 L 123.03 91.22 C 123.26 94.35 125.13 97.01 125.83 100.02 C 125.73 102.78 120.20 103.11 121.88 106.34 C 121.81 106.77 121.67 107.64 121.60 108.07 C 121.30 107.74 120.70 107.08 120.40 106.75 C 119.90 105.10 119.09 103.62 118.14 102.21 C 119.40 101.10 120.65 99.98 121.77 98.72 C 122.34 95.54 121.08 92.30 120.75 89.13 L 120.85 87.96 Z" />
</g>
<g id="#9e7b4fff">
<path fill="#9e7b4f" opacity="1.00" d=" M 134.04 96.18 C 138.64 93.17 144.04 91.62 148.93 89.13 C 152.04 94.07 153.63 99.77 155.97 105.08 C 152.46 102.45 149.81 98.99 147.54 95.29 C 144.19 94.95 140.41 95.56 138.06 98.16 C 139.64 100.52 142.23 102.27 143.06 105.08 C 140.25 103.98 137.47 102.76 134.98 101.02 C 134.58 99.43 134.01 97.84 134.04 96.18 Z" />
</g>
<g id="#ddb075ff">
<path fill="#ddb075" opacity="1.00" d=" M 124.06 89.75 C 124.48 91.11 125.33 93.83 125.76 95.19 C 126.60 97.57 128.00 99.70 128.96 102.03 C 128.16 103.54 126.86 104.71 125.82 106.04 C 124.51 106.25 123.20 106.40 121.88 106.34 C 120.20 103.11 125.73 102.78 125.83 100.02 C 125.13 97.01 123.26 94.35 123.03 91.22 C 123.28 90.85 123.80 90.12 124.06 89.75 Z" />
</g>
<g id="#966d45ff">
<path fill="#966d45" opacity="1.00" d=" M 138.06 98.16 C 140.41 95.56 144.19 94.95 147.54 95.29 C 149.81 98.99 152.46 102.45 155.97 105.08 C 156.20 105.34 156.68 105.85 156.92 106.10 C 156.40 107.21 155.86 108.30 155.21 109.34 C 153.90 107.06 149.79 103.31 147.80 105.80 C 147.21 108.18 147.10 110.81 144.97 112.33 C 143.01 111.96 141.07 111.50 139.12 111.12 L 138.07 110.90 C 138.53 109.92 138.98 108.93 139.42 107.94 C 139.65 107.70 140.09 107.20 140.31 106.95 C 141.89 106.98 143.47 106.99 145.05 106.96 C 144.39 106.32 143.73 105.70 143.06 105.08 C 142.23 102.27 139.64 100.52 138.06 98.16 Z" />
</g>
<g id="#c77a47fb">
<path fill="#c77a47" opacity="1.00" d=" M 160.09 96.98 C 161.46 97.87 162.81 98.81 164.07 99.85 C 163.29 99.92 161.71 100.05 160.93 100.12 C 161.19 102.97 164.68 103.67 166.22 105.79 C 166.08 107.26 165.95 108.73 165.81 110.20 C 165.37 109.82 164.47 109.06 164.03 108.68 C 162.45 106.62 160.97 104.48 159.08 102.69 L 158.79 102.17 C 159.68 100.57 160.04 98.79 160.09 96.98 Z" />
</g>
<g id="#e65e36f4">
<path fill="#e65e36" opacity="0.96" d=" M 160.93 100.12 C 161.71 100.05 163.29 99.92 164.07 99.85 C 174.62 105.70 181.05 116.33 189.10 124.96 C 187.31 124.22 184.30 124.75 183.29 123.13 C 181.39 118.30 176.43 115.29 172.89 111.55 C 170.71 109.58 168.43 107.73 166.22 105.79 C 164.68 103.67 161.19 102.97 160.93 100.12 Z" />
</g>
<g id="#a63322fe">
<path fill="#a63322" opacity="1.00" d=" M 157.32 105.26 C 157.89 104.39 158.47 103.54 159.08 102.69 C 160.97 104.48 162.45 106.62 164.03 108.68 C 162.82 112.05 160.33 114.71 157.04 116.13 C 156.59 116.09 155.68 116.01 155.22 115.97 C 155.04 114.34 154.55 112.78 153.18 111.77 C 153.94 111.03 154.72 110.29 155.21 109.34 C 155.86 108.30 156.40 107.21 156.92 106.10 L 157.32 105.26 Z" />
</g>
<g id="#b0695fff">
<path fill="#b0695f" opacity="1.00" d=" M 147.80 105.80 C 149.79 103.31 153.90 107.06 155.21 109.34 C 154.72 110.29 153.94 111.03 153.18 111.77 L 152.36 111.70 C 150.97 111.36 149.57 111.08 148.19 110.74 C 147.94 109.10 147.88 107.45 147.80 105.80 Z" />
</g>
<g id="#995753f8">
<path fill="#995753" opacity="0.97" d=" M 121.88 106.34 C 123.20 106.40 124.51 106.25 125.82 106.04 C 126.12 106.59 126.73 107.69 127.04 108.24 C 126.46 110.16 126.02 112.11 125.73 114.10 C 124.19 113.32 122.55 112.72 121.07 111.81 C 121.14 110.55 121.40 109.31 121.60 108.07 C 121.67 107.64 121.81 106.77 121.88 106.34 Z" />
</g>
<g id="#9f3c2be9">
<path fill="#9f3c2b" opacity="0.91" d=" M 129.42 107.94 C 129.92 106.82 130.76 106.01 131.98 105.72 C 134.50 106.29 137.02 106.95 139.42 107.94 C 138.98 108.93 138.53 109.92 138.07 110.90 C 135.88 112.34 131.11 113.92 132.68 117.21 L 132.90 117.98 C 132.90 118.49 132.89 119.52 132.89 120.03 L 131.79 119.69 C 131.13 117.32 129.15 115.91 127.06 114.86 C 127.99 112.63 130.05 110.51 129.42 107.94 Z" />
</g>
<g id="#e7a799fe">
<path fill="#e7a799" opacity="1.00" d=" M 144.97 112.33 C 147.10 110.81 147.21 108.18 147.80 105.80 C 147.88 107.45 147.94 109.10 148.19 110.74 C 149.57 111.08 150.97 111.36 152.36 111.70 C 150.93 111.82 149.50 111.97 148.08 112.15 C 147.98 113.44 147.93 114.73 147.94 116.03 C 149.35 114.51 150.79 113.04 152.36 111.70 L 153.18 111.77 C 154.55 112.78 155.04 114.34 155.22 115.97 L 155.14 117.07 C 155.40 120.68 153.69 117.22 152.47 116.20 C 151.47 118.45 149.42 119.59 147.08 120.05 C 146.01 120.33 144.94 120.61 143.87 120.90 C 144.16 117.60 150.73 119.86 146.89 114.11 C 146.68 113.21 146.04 112.62 144.97 112.33 Z" />
</g>
<g id="#e09553ff">
<path fill="#e09553" opacity="1.00" d=" M 166.22 105.79 C 168.43 107.73 170.71 109.58 172.89 111.55 C 172.33 112.98 172.04 114.50 171.80 116.01 L 171.11 115.80 C 169.35 113.92 167.58 112.05 165.81 110.20 C 165.95 108.73 166.08 107.26 166.22 105.79 Z" />
</g>
<g id="#b57571f9">
<path fill="#b57571" opacity="0.98" d=" M 120.40 106.75 C 120.70 107.08 121.30 107.74 121.60 108.07 C 121.40 109.31 121.14 110.55 121.07 111.81 C 122.55 112.72 124.19 113.32 125.73 114.10 C 126.06 114.29 126.73 114.67 127.06 114.86 C 129.15 115.91 131.13 117.32 131.79 119.69 C 131.36 120.71 132.82 123.33 131.05 123.01 C 130.32 122.98 128.86 122.94 128.14 122.92 C 127.91 121.54 127.84 120.07 126.83 119.00 C 125.36 118.86 124.25 119.87 123.22 120.77 C 120.46 122.15 118.03 123.53 118.89 127.14 L 118.37 126.65 C 117.70 125.90 116.98 125.21 116.22 124.56 C 116.89 122.75 117.50 120.92 118.07 119.08 C 119.73 118.06 121.80 117.51 123.11 116.03 C 121.91 114.31 120.51 112.75 119.32 111.03 C 119.57 109.58 120.02 108.17 120.40 106.75 Z" />
</g>
<g id="#0d08062e">
<path fill="#0d0806" opacity="0.18" d=" M 127.04 108.24 C 127.86 108.34 128.65 108.24 129.42 107.94 C 130.05 110.51 127.99 112.63 127.06 114.86 C 126.73 114.67 126.06 114.29 125.73 114.10 C 126.02 112.11 126.46 110.16 127.04 108.24 Z" />
</g>
<g id="#b93c28f9">
<path fill="#b93c28" opacity="0.98" d=" M 157.04 116.13 C 160.33 114.71 162.82 112.05 164.03 108.68 C 164.47 109.06 165.37 109.82 165.81 110.20 C 167.58 112.05 169.35 113.92 171.11 115.80 C 171.08 117.36 171.01 120.49 170.98 122.05 C 169.00 122.41 167.53 121.13 166.13 119.98 C 166.06 120.75 165.92 122.30 165.85 123.07 C 162.39 121.80 158.18 119.93 157.04 116.13 Z" />
</g>
<g id="#dc9e8bf8">
<path fill="#dc9e8b" opacity="0.97" d=" M 119.32 111.03 C 120.51 112.75 121.91 114.31 123.11 116.03 C 121.80 117.51 119.73 118.06 118.07 119.08 C 117.54 119.03 116.49 118.93 115.96 118.88 C 116.77 117.75 117.25 116.66 115.35 116.62 C 112.62 115.05 110.38 117.88 108.11 119.04 C 105.91 121.70 108.13 128.70 103.02 128.12 C 100.26 127.53 103.12 122.64 104.00 121.00 C 106.84 114.55 115.48 115.96 119.32 111.03 Z" />
</g>
<g id="#eeb495ff">
<path fill="#eeb495" opacity="1.00" d=" M 132.68 117.21 C 131.11 113.92 135.88 112.34 138.07 110.90 L 139.12 111.12 C 137.55 112.84 135.65 114.20 134.02 115.86 C 133.69 116.20 133.02 116.87 132.68 117.21 Z" />
</g>
<g id="#c08174fc">
<path fill="#c08174" opacity="1.00" d=" M 139.12 111.12 C 141.07 111.50 143.01 111.96 144.97 112.33 C 146.04 112.62 146.68 113.21 146.89 114.11 C 150.73 119.86 144.16 117.60 143.87 120.90 C 143.49 122.99 141.16 123.90 141.86 120.92 C 143.16 118.92 145.06 115.08 141.95 114.06 C 138.96 113.05 140.84 116.68 140.44 118.30 L 139.28 118.03 C 137.66 117.00 135.98 116.01 134.02 115.86 C 135.65 114.20 137.55 112.84 139.12 111.12 Z" />
</g>
<g id="#ffeeceff">
<path fill="#ffeece" opacity="1.00" d=" M 148.08 112.15 C 149.50 111.97 150.93 111.82 152.36 111.70 C 150.79 113.04 149.35 114.51 147.94 116.03 C 147.93 114.73 147.98 113.44 148.08 112.15 Z" />
</g>
<g id="#f0af60f8">
<path fill="#f0af60" opacity="0.97" d=" M 171.80 116.01 C 172.04 114.50 172.33 112.98 172.89 111.55 C 176.43 115.29 181.39 118.30 183.29 123.13 C 181.43 121.39 179.72 122.61 178.12 123.95 C 176.10 121.22 173.89 118.67 171.80 116.01 Z" />
</g>
<g id="#a67160f8">
<path fill="#a67160" opacity="0.97" d=" M 140.44 118.30 C 140.84 116.68 138.96 113.05 141.95 114.06 C 145.06 115.08 143.16 118.92 141.86 120.92 C 140.48 121.19 140.71 119.17 140.44 118.30 Z" />
</g>
<g id="#af7772f8">
<path fill="#af7772" opacity="0.97" d=" M 108.11 119.04 C 110.38 117.88 112.62 115.05 115.35 116.62 C 114.43 117.96 113.51 119.29 112.70 120.70 C 111.56 121.26 110.40 121.76 109.26 122.32 C 108.32 124.64 109.95 128.11 107.85 130.12 C 106.23 129.80 104.64 129.39 103.05 128.98 L 103.02 128.12 C 108.13 128.70 105.91 121.70 108.11 119.04 Z" />
</g>
<g id="#8f5952fc">
<path fill="#8f5952" opacity="1.00" d=" M 134.02 115.86 C 135.98 116.01 137.66 117.00 139.28 118.03 C 138.96 118.56 138.33 119.61 138.02 120.14 C 137.07 118.06 134.91 117.93 132.90 117.98 L 132.68 117.21 C 133.02 116.87 133.69 116.20 134.02 115.86 Z" />
</g>
<g id="#bc948af8">
<path fill="#bc948a" opacity="0.97" d=" M 152.47 116.20 C 153.69 117.22 155.40 120.68 155.14 117.07 L 156.03 116.99 C 156.81 122.33 157.46 128.38 153.89 132.90 C 149.51 130.24 149.17 124.44 147.08 120.05 C 149.42 119.59 151.47 118.45 152.47 116.20 Z" />
</g>
<g id="#e9bea2f9">
<path fill="#e9bea2" opacity="0.98" d=" M 115.35 116.62 C 117.25 116.66 116.77 117.75 115.96 118.88 C 114.72 120.67 113.60 122.53 112.31 124.28 C 112.16 123.05 112.29 121.86 112.70 120.70 C 113.51 119.29 114.43 117.96 115.35 116.62 Z" />
</g>
<g id="#c6aa94fa">
<path fill="#c6aa94" opacity="0.98" d=" M 132.90 117.98 C 134.91 117.93 137.07 118.06 138.02 120.14 C 137.78 122.18 136.52 123.92 135.76 125.80 C 133.76 125.37 132.91 122.02 132.89 120.03 C 132.89 119.52 132.90 118.49 132.90 117.98 Z" />
</g>
<g id="#c4827cf8">
<path fill="#c4827c" opacity="0.97" d=" M 112.31 124.28 C 113.60 122.53 114.72 120.67 115.96 118.88 C 116.49 118.93 117.54 119.03 118.07 119.08 C 117.50 120.92 116.89 122.75 116.22 124.56 C 115.09 124.58 113.96 124.66 112.85 124.81 L 111.90 124.91 L 112.31 124.28 Z" />
</g>
<g id="#d4aca0ff">
<path fill="#d4aca0" opacity="1.00" d=" M 123.22 120.77 C 124.25 119.87 125.36 118.86 126.83 119.00 C 127.84 120.07 127.91 121.54 128.14 122.92 C 124.62 122.26 127.43 124.47 128.29 125.89 C 127.52 127.06 126.57 128.09 125.71 129.18 C 125.09 126.76 125.65 123.88 124.12 121.82 C 123.90 121.56 123.45 121.03 123.22 120.77 Z" />
</g>
<g id="#433d3584">
<path fill="#433d35" opacity="0.52" d=" M 124.12 121.82 C 125.65 123.88 125.09 126.76 125.71 129.18 L 125.82 130.00 C 121.46 131.01 124.67 124.35 124.12 121.82 Z" />
</g>
<g id="#856660ec">
<path fill="#856660" opacity="0.93" d=" M 128.29 125.89 C 127.43 124.47 124.62 122.26 128.14 122.92 C 128.86 122.94 130.32 122.98 131.05 123.01 C 130.40 124.13 129.56 125.42 128.29 125.89 Z" />
</g>
<g id="#7e5756fa">
<path fill="#7e5756" opacity="0.98" d=" M 112.85 124.81 C 113.96 124.66 115.09 124.58 116.22 124.56 C 116.98 125.21 117.70 125.90 118.37 126.65 C 118.11 127.18 117.58 128.24 117.31 128.77 C 116.67 126.76 115.17 125.64 113.03 125.76 L 112.85 124.81 Z" />
</g>
<g id="#b69c89f4">
<path fill="#b69c89" opacity="0.96" d=" M 113.03 125.76 C 115.17 125.64 116.67 126.76 117.31 128.77 C 116.75 130.56 116.94 134.58 114.17 133.91 C 112.92 131.38 113.04 128.52 113.03 125.76 Z" />
</g>
<g id="#bca692f3">
<path fill="#bca692" opacity="0.95" d=" M 103.05 128.98 C 104.64 129.39 106.23 129.80 107.85 130.12 C 108.39 132.17 107.59 134.15 106.80 136.01 C 104.35 134.45 102.11 132.16 103.05 128.98 Z" />
</g>
</svg>
