<?xml version="1.0" encoding="UTF-8" ?>
<!DOCTYPE svg PUBLIC "-//W3C//DTD SVG 1.1//EN" "http://www.w3.org/Graphics/SVG/1.1/DTD/svg11.dtd">
<svg width="259pt" height="169pt" viewBox="0 0 259 169" version="1.1" xmlns="http://www.w3.org/2000/svg">
<g id="#e1d59bfa">
<path fill="#e1d59b" opacity="0.98" d=" M 231.34 0.00 L 232.92 0.00 C 234.84 3.68 239.25 6.83 237.44 11.54 C 234.91 16.66 233.25 22.22 230.14 27.03 C 221.18 30.35 214.46 37.22 208.86 44.77 C 208.54 44.58 207.89 44.19 207.57 43.99 C 209.12 40.76 210.96 37.44 210.79 33.74 C 216.43 21.78 224.98 11.49 231.34 0.00 Z" />
</g>
<g id="#cbb480fa">
<path fill="#cbb480" opacity="0.98" d=" M 13.82 12.78 C 14.11 12.53 14.69 12.01 14.98 11.76 C 19.06 16.84 22.90 22.15 26.21 27.76 C 28.01 32.01 30.35 36.03 33.13 39.70 C 33.43 39.56 34.01 39.28 34.30 39.14 C 34.50 39.47 34.89 40.13 35.08 40.46 C 33.77 42.11 34.86 44.12 35.04 45.96 C 30.31 42.42 27.99 32.89 20.79 34.34 C 18.49 29.95 15.81 25.76 13.70 21.27 C 13.76 18.44 13.80 15.61 13.82 12.78 Z" />
</g>
<g id="#a9976bd1">
<path fill="#a9976b" opacity="0.82" d=" M 13.70 21.27 C 12.77 18.77 11.97 14.93 13.82 12.78 C 13.80 15.61 13.76 18.44 13.70 21.27 Z" />
</g>
<g id="#d7c58efc">
<path fill="#d7c58e" opacity="1.00" d=" M 229.02 29.17 C 235.05 27.01 236.48 18.89 241.99 15.83 C 246.30 18.20 247.54 23.39 248.58 27.79 C 246.69 32.08 244.20 36.08 241.77 40.09 C 236.88 41.55 233.47 37.65 229.07 36.97 C 227.10 37.98 225.73 39.84 224.00 41.18 C 222.93 40.81 221.87 40.46 220.80 40.13 C 218.27 41.71 216.10 43.81 213.74 45.61 C 208.67 49.08 203.54 54.33 203.87 61.00 C 203.35 63.31 203.37 65.95 201.84 67.86 C 200.46 67.74 199.10 67.44 197.73 67.25 C 197.51 66.64 197.09 65.43 196.88 64.83 L 197.30 64.00 C 200.59 57.27 203.94 50.57 207.57 43.99 C 207.89 44.19 208.54 44.58 208.86 44.77 C 214.46 37.22 221.18 30.35 230.14 27.03 C 229.86 27.57 229.30 28.64 229.02 29.17 Z" />
</g>
<g id="#f4f095f4">
<path fill="#f4f095" opacity="0.96" d=" M 121.45 30.63 C 126.03 29.52 129.51 24.93 134.63 26.42 C 142.12 28.69 149.16 31.98 155.67 36.35 C 159.39 38.73 161.87 35.25 164.68 33.76 C 164.58 34.96 164.47 36.17 164.37 37.38 C 163.32 40.77 159.93 40.30 156.84 40.07 C 152.69 38.47 148.31 37.54 144.24 35.71 C 143.15 31.65 138.22 30.47 134.93 32.79 C 133.24 33.83 131.61 34.97 130.08 36.24 C 126.24 36.46 128.89 32.49 129.88 30.78 C 126.73 31.28 125.95 35.08 123.19 36.16 C 123.05 34.73 122.92 33.30 122.79 31.87 C 121.24 33.45 120.20 35.69 117.96 36.43 C 117.38 36.05 116.22 35.30 115.64 34.93 C 116.63 32.57 119.54 32.08 121.45 30.63 Z" />
</g>
<g id="#bc9d6dfe">
<path fill="#bc9d6d" opacity="1.00" d=" M 11.13 26.98 L 11.80 27.19 C 12.64 29.22 14.20 30.79 15.80 32.25 C 18.91 37.54 23.78 41.47 27.05 46.64 C 25.86 49.74 23.30 52.61 19.99 49.97 C 18.77 49.00 17.54 48.06 16.30 47.13 C 14.17 44.00 12.24 40.72 10.67 37.28 C 10.75 34.44 10.78 31.60 10.75 28.76 C 10.84 28.32 11.03 27.42 11.13 26.98 Z" />
</g>
<g id="#cdc5a1d8">
<path fill="#cdc5a1" opacity="0.85" d=" M 11.80 27.19 C 14.18 27.90 15.62 30.14 16.86 32.14 L 15.80 32.25 C 14.20 30.79 12.64 29.22 11.80 27.19 Z" />
</g>
<g id="#dbd49ce4">
<path fill="#dbd49c" opacity="0.89" d=" M 26.21 27.76 C 29.67 30.95 31.75 35.25 34.30 39.14 C 34.01 39.28 33.43 39.56 33.13 39.70 C 30.35 36.03 28.01 32.01 26.21 27.76 Z" />
</g>
<g id="#18150f1f">
<path fill="#18150f" opacity="0.12" d=" M 9.74 35.99 C 8.13 34.44 7.44 30.10 9.90 29.18 C 10.35 31.43 10.27 33.75 9.74 35.99 Z" />
</g>
<g id="#7d6c4da1">
<path fill="#7d6c4d" opacity="0.63" d=" M 9.90 29.18 L 10.75 28.76 C 10.78 31.60 10.75 34.44 10.67 37.28 C 10.44 36.95 9.98 36.31 9.74 35.99 C 10.27 33.75 10.35 31.43 9.90 29.18 Z" />
</g>
<g id="#fbd878ff">
<path fill="#fbd878" opacity="1.00" d=" M 123.19 36.16 C 125.95 35.08 126.73 31.28 129.88 30.78 C 128.89 32.49 126.24 36.46 130.08 36.24 C 129.02 38.29 127.51 40.07 125.31 40.93 C 123.82 39.35 123.28 41.94 122.36 42.82 C 122.20 40.63 119.79 40.91 119.52 42.88 C 117.17 41.62 118.12 38.73 117.96 36.43 C 120.20 35.69 121.24 33.45 122.79 31.87 C 122.92 33.30 123.05 34.73 123.19 36.16 Z" />
</g>
<g id="#f4eeb7fe">
<path fill="#f4eeb7" opacity="1.00" d=" M 15.80 32.25 L 16.86 32.14 C 18.11 33.56 19.47 34.89 20.87 36.17 C 23.64 40.03 27.73 43.36 28.92 48.15 C 28.45 47.77 27.51 47.02 27.05 46.64 C 23.78 41.47 18.91 37.54 15.80 32.25 Z" />
</g>
<g id="#fdd879ff">
<path fill="#fdd879" opacity="1.00" d=" M 134.93 32.79 C 138.22 30.47 143.15 31.65 144.24 35.71 C 141.16 36.66 138.17 37.88 135.24 39.24 C 133.79 39.15 132.35 39.03 130.90 38.87 C 130.87 35.96 135.35 35.88 134.93 32.79 Z" />
</g>
<g id="#ecc06cff">
<path fill="#ecc06c" opacity="1.00" d=" M 130.08 36.24 C 131.61 34.97 133.24 33.83 134.93 32.79 C 135.35 35.88 130.87 35.96 130.90 38.87 C 132.35 39.03 133.79 39.15 135.24 39.24 L 134.59 39.68 C 130.65 42.32 126.52 45.04 124.08 49.21 C 124.02 48.41 123.90 46.79 123.84 45.98 C 124.16 44.25 124.70 42.58 125.31 40.93 C 127.51 40.07 129.02 38.29 130.08 36.24 Z" />
</g>
<g id="#c1a372fe">
<path fill="#c1a372" opacity="1.00" d=" M 20.79 34.34 C 27.99 32.89 30.31 42.42 35.04 45.96 C 37.38 49.22 39.35 52.73 41.32 56.22 C 36.03 55.51 34.73 48.53 30.02 46.86 C 30.41 48.35 31.08 49.78 31.27 51.32 C 30.21 50.47 29.12 49.58 28.92 48.15 C 27.73 43.36 23.64 40.03 20.87 36.17 C 20.85 35.71 20.81 34.80 20.79 34.34 Z" />
</g>
<g id="#f47351f5">
<path fill="#f47351" opacity="0.96" d=" M 164.37 37.38 C 166.26 36.18 167.48 33.51 170.05 33.95 C 169.56 37.77 167.83 42.89 164.23 44.39 C 161.33 44.01 157.43 43.61 156.84 40.07 C 159.93 40.30 163.32 40.77 164.37 37.38 Z" />
</g>
<g id="#9a6d36f0">
<path fill="#9a6d36" opacity="0.94" d=" M 191.82 65.76 C 199.39 55.88 203.11 43.61 210.79 33.74 C 210.96 37.44 209.12 40.76 207.57 43.99 C 203.94 50.57 200.59 57.27 197.30 64.00 C 196.48 63.11 195.85 63.23 195.40 64.36 C 193.99 67.10 191.00 68.20 188.41 69.51 C 185.82 70.80 185.03 74.10 182.32 75.22 L 181.95 74.05 C 184.63 70.59 187.92 67.79 191.82 65.76 Z" />
</g>
<g id="#e0b163fa">
<path fill="#e0b163" opacity="0.98" d=" M 113.73 38.95 C 114.39 37.62 114.97 36.25 115.64 34.93 C 116.22 35.30 117.38 36.05 117.96 36.43 C 118.12 38.73 117.17 41.62 119.52 42.88 C 119.79 40.91 122.20 40.63 122.36 42.82 C 123.28 41.94 123.82 39.35 125.31 40.93 C 124.70 42.58 124.16 44.25 123.84 45.98 C 120.93 44.16 120.77 46.88 120.31 49.20 C 118.09 45.80 114.94 42.93 113.73 38.95 Z" />
</g>
<g id="#d2bf8af9">
<path fill="#d2bf8a" opacity="0.98" d=" M 242.78 41.04 C 245.25 38.68 247.90 36.39 251.01 34.93 C 257.93 38.05 255.45 47.65 250.11 51.41 C 246.18 49.31 240.86 46.38 242.78 41.04 Z" />
</g>
<g id="#f76045fe">
<path fill="#f76045" opacity="1.00" d=" M 135.24 39.24 C 138.17 37.88 141.16 36.66 144.24 35.71 C 148.31 37.54 152.69 38.47 156.84 40.07 C 157.43 43.61 161.33 44.01 164.23 44.39 C 159.91 45.62 155.49 44.70 151.23 43.83 C 148.45 42.77 145.76 40.72 142.63 41.34 C 139.53 42.93 137.08 40.92 134.59 39.68 L 135.24 39.24 Z" />
</g>
<g id="#cbb380fb">
<path fill="#cbb380" opacity="1.00" d=" M 224.00 41.18 C 225.73 39.84 227.10 37.98 229.07 36.97 C 233.47 37.65 236.88 41.55 241.77 40.09 C 242.02 40.33 242.53 40.80 242.78 41.04 C 240.86 46.38 246.18 49.31 250.11 51.41 C 248.58 53.32 246.95 55.16 244.82 56.42 C 240.11 55.58 236.36 51.15 231.18 52.58 C 230.24 51.95 229.24 51.40 228.14 51.10 C 226.75 50.59 227.59 48.85 227.37 47.76 C 227.21 45.22 225.42 43.16 224.00 41.18 Z" />
</g>
<g id="#a93f34f3">
<path fill="#a93f34" opacity="0.95" d=" M 113.14 52.19 C 112.66 47.55 110.35 42.94 113.73 38.95 C 114.94 42.93 118.09 45.80 120.31 49.20 C 120.20 49.59 120.00 50.36 119.89 50.75 C 119.67 51.07 119.23 51.73 119.01 52.06 C 117.87 51.90 115.63 52.56 116.57 50.66 C 117.40 48.76 115.13 47.89 114.00 46.85 C 113.53 48.59 115.95 52.02 113.14 52.19 Z" />
</g>
<g id="#d74b3afc">
<path fill="#d74b3a" opacity="1.00" d=" M 124.08 49.21 C 126.52 45.04 130.65 42.32 134.59 39.68 C 137.08 40.92 139.53 42.93 142.63 41.34 C 145.76 40.72 148.45 42.77 151.23 43.83 C 149.11 43.90 147.00 43.96 144.88 43.99 C 143.22 44.05 141.49 43.88 139.92 44.50 C 138.88 44.85 137.87 45.27 136.90 45.77 C 135.26 46.53 133.67 47.40 131.96 47.96 C 129.73 48.59 127.65 49.61 125.75 50.92 C 125.22 50.69 124.17 50.24 123.65 50.02 L 124.08 49.21 Z" />
</g>
<g id="#c7ac7bff">
<path fill="#c7ac7b" opacity="1.00" d=" M 213.74 45.61 C 216.10 43.81 218.27 41.71 220.80 40.13 C 221.47 41.75 222.88 43.13 222.96 44.94 C 219.62 54.04 210.90 59.65 207.90 68.92 C 206.28 71.84 200.45 74.53 198.02 70.99 C 197.18 69.92 196.36 68.83 195.56 67.74 C 195.96 66.75 196.40 65.78 196.88 64.83 C 197.09 65.43 197.51 66.64 197.73 67.25 C 198.22 69.40 200.95 71.67 203.03 70.09 C 207.21 67.78 206.39 61.87 209.60 58.63 C 211.37 54.56 217.01 50.18 213.74 45.61 Z" />
</g>
<g id="#c1a374ff">
<path fill="#c1a374" opacity="1.00" d=" M 220.80 40.13 C 221.87 40.46 222.93 40.81 224.00 41.18 C 225.42 43.16 227.21 45.22 227.37 47.76 C 227.59 48.85 226.75 50.59 228.14 51.10 C 224.98 53.18 221.73 55.17 218.84 57.62 C 219.63 57.78 221.20 58.10 221.99 58.26 C 222.44 62.17 218.15 64.40 216.05 67.05 C 211.13 70.06 206.27 75.32 200.08 74.97 C 197.32 74.21 194.54 72.11 194.74 68.96 C 194.95 68.65 195.35 68.04 195.56 67.74 C 196.36 68.83 197.18 69.92 198.02 70.99 C 200.45 74.53 206.28 71.84 207.90 68.92 C 210.90 59.65 219.62 54.04 222.96 44.94 C 222.88 43.13 221.47 41.75 220.80 40.13 Z" />
</g>
<g id="#86562bff">
<path fill="#86562b" opacity="1.00" d=" M 35.04 45.96 C 34.86 44.12 33.77 42.11 35.08 40.46 C 35.75 41.25 36.40 42.06 37.03 42.88 C 38.45 50.54 43.75 56.68 47.84 63.12 C 50.05 67.12 53.65 70.04 57.34 72.60 C 63.50 74.04 69.88 74.67 75.78 77.12 C 81.95 81.21 89.91 81.06 97.00 82.02 C 101.29 82.58 105.51 77.97 109.43 78.99 C 109.02 80.34 108.59 81.69 108.14 83.02 C 100.13 83.20 92.10 84.72 84.10 83.82 C 79.10 82.46 74.32 80.38 69.30 79.12 C 64.55 77.51 59.69 76.08 55.22 73.75 C 49.25 69.02 45.85 62.17 41.32 56.22 C 39.35 52.73 37.38 49.22 35.04 45.96 Z" />
</g>
<g id="#c58a41ed">
<path fill="#c58a41" opacity="0.93" d=" M 37.03 42.88 C 44.10 51.36 49.25 61.22 56.32 69.69 C 60.79 71.57 65.82 70.89 70.36 72.53 C 75.92 74.07 80.96 77.55 86.98 77.04 L 87.00 78.05 L 86.99 79.01 C 83.20 78.69 79.58 77.37 75.78 77.12 C 69.88 74.67 63.50 74.04 57.34 72.60 C 53.65 70.04 50.05 67.12 47.84 63.12 C 43.75 56.68 38.45 50.54 37.03 42.88 Z" />
</g>
<g id="#d18c41f4">
<path fill="#d18c41" opacity="0.96" d=" M 139.92 44.50 C 141.49 43.88 143.22 44.05 144.88 43.99 C 145.55 48.00 146.87 51.90 147.04 55.98 C 145.59 60.02 148.48 62.71 151.15 64.81 C 151.69 65.94 152.23 67.06 152.75 68.20 C 148.20 66.60 144.72 60.11 139.73 63.78 C 141.50 60.37 144.00 57.06 144.58 53.22 C 143.24 50.21 141.74 47.24 139.92 44.50 Z" />
</g>
<g id="#b39468f4">
<path fill="#b39468" opacity="0.96" d=" M 11.44 53.64 C 10.28 51.04 6.82 46.48 10.96 44.90 C 12.74 45.65 14.31 49.07 16.30 47.13 C 17.54 48.06 18.77 49.00 19.99 49.97 L 18.92 50.01 C 18.41 50.03 17.39 50.08 16.87 50.10 C 18.31 51.96 20.05 53.55 21.82 55.10 C 23.29 56.68 24.67 58.90 27.10 58.91 C 26.19 61.65 26.93 65.39 23.98 66.81 C 22.62 66.42 21.22 66.15 19.81 66.02 C 21.69 67.30 23.83 69.38 26.27 68.30 C 27.73 69.33 30.04 69.82 30.12 71.95 C 28.75 71.70 27.41 71.31 26.05 71.02 C 27.63 73.24 29.52 75.60 27.77 78.34 C 21.23 74.84 12.73 70.65 12.88 62.12 C 14.90 62.90 16.85 64.06 19.09 64.07 C 18.17 59.69 12.82 57.94 11.44 53.64 Z" />
</g>
<g id="#b38b49ff">
<path fill="#b38b49" opacity="1.00" d=" M 120.31 49.20 C 120.77 46.88 120.93 44.16 123.84 45.98 C 123.90 46.79 124.02 48.41 124.08 49.21 L 123.65 50.02 C 122.38 50.21 121.13 50.45 119.89 50.75 C 120.00 50.36 120.20 49.59 120.31 49.20 Z" />
</g>
<g id="#423d36ff">
<path fill="#423d36" opacity="1.00" d=" M 136.90 45.77 C 137.87 45.27 138.88 44.85 139.92 44.50 C 141.74 47.24 143.24 50.21 144.58 53.22 C 144.00 57.06 141.50 60.37 139.73 63.78 C 139.45 64.14 138.90 64.85 138.62 65.21 C 138.40 64.85 137.95 64.12 137.73 63.76 C 139.02 60.32 141.79 57.06 140.92 53.17 C 139.58 52.10 137.96 51.20 136.19 51.22 L 135.16 51.13 C 135.84 49.38 136.49 47.61 136.90 45.77 Z" />
</g>
<g id="#d9dadaff">
<path fill="#d9dada" opacity="1.00" d=" M 131.96 47.96 C 133.67 47.40 135.26 46.53 136.90 45.77 C 136.49 47.61 135.84 49.38 135.16 51.13 C 133.74 51.07 132.33 50.99 130.93 50.87 C 131.21 49.88 131.56 48.91 131.96 47.96 Z" />
</g>
<g id="#ceb783ff">
<path fill="#ceb783" opacity="1.00" d=" M 203.87 61.00 C 203.54 54.33 208.67 49.08 213.74 45.61 C 217.01 50.18 211.37 54.56 209.60 58.63 C 206.39 61.87 207.21 67.78 203.03 70.09 C 200.95 71.67 198.22 69.40 197.73 67.25 C 199.10 67.44 200.46 67.74 201.84 67.86 C 203.37 65.95 203.35 63.31 203.87 61.00 Z" />
</g>
<g id="#ac885eff">
<path fill="#ac885e" opacity="1.00" d=" M 19.99 49.97 C 23.30 52.61 25.86 49.74 27.05 46.64 C 27.51 47.02 28.45 47.77 28.92 48.15 C 29.12 49.58 30.21 50.47 31.27 51.32 C 31.44 51.47 31.78 51.78 31.95 51.93 C 31.54 53.01 30.60 54.27 31.76 55.24 C 36.93 62.10 43.27 68.09 47.21 75.82 C 51.85 78.65 55.92 83.82 62.00 83.14 C 67.17 84.07 72.77 83.10 77.59 85.51 C 81.22 87.17 85.22 87.88 89.10 88.75 C 94.95 88.62 100.61 86.67 106.27 85.30 C 99.78 92.58 88.56 91.78 79.65 90.59 C 74.72 92.53 71.90 86.51 66.98 88.19 C 61.45 89.74 57.76 85.40 52.96 84.11 C 49.51 82.74 45.02 82.79 42.90 79.28 C 44.18 78.87 47.05 79.44 45.66 77.30 C 41.81 74.35 36.71 72.11 34.91 67.26 C 35.70 67.13 37.29 66.86 38.08 66.73 C 35.13 63.20 31.90 59.54 27.10 58.91 C 25.60 57.10 23.95 55.42 22.12 53.95 C 21.06 52.63 19.98 51.33 18.92 50.01 L 19.99 49.97 Z" />
</g>
<g id="#b9986bff">
<path fill="#b9986b" opacity="1.00" d=" M 30.02 46.86 C 34.73 48.53 36.03 55.51 41.32 56.22 C 45.85 62.17 49.25 69.02 55.22 73.75 C 59.69 76.08 64.55 77.51 69.30 79.12 C 61.68 80.47 52.23 79.45 47.33 72.71 C 43.23 65.34 40.33 55.43 31.95 51.93 C 31.78 51.78 31.44 51.47 31.27 51.32 C 31.08 49.78 30.41 48.35 30.02 46.86 Z" />
</g>
<g id="#ddca93ff">
<path fill="#ddca93" opacity="1.00" d=" M 114.00 46.85 C 115.13 47.89 117.40 48.76 116.57 50.66 C 115.63 52.56 117.87 51.90 119.01 52.06 L 118.65 52.75 C 118.08 53.80 117.52 54.86 117.07 55.97 C 117.06 56.67 117.06 58.07 117.06 58.78 C 117.17 63.61 122.78 67.78 127.40 65.25 L 127.98 65.09 C 128.83 68.24 132.31 65.89 132.72 63.67 C 135.05 60.10 132.00 58.68 130.16 56.90 C 129.27 55.43 128.53 53.87 127.90 52.27 L 128.73 52.33 C 130.75 53.99 133.69 54.71 134.77 57.31 C 135.56 61.57 135.28 66.10 132.65 69.66 C 128.26 73.38 120.90 66.68 117.86 72.72 C 116.24 82.04 118.64 92.48 125.47 99.52 C 130.55 103.29 135.56 107.70 141.89 109.15 C 147.41 110.53 153.22 109.63 158.84 110.13 C 161.07 113.77 162.82 117.91 163.21 122.20 C 163.23 123.56 163.37 124.91 163.66 126.25 C 163.48 126.75 163.11 127.76 162.93 128.26 C 161.35 125.21 160.61 121.38 157.39 119.56 C 152.47 114.80 144.97 116.35 139.02 113.93 C 129.31 110.73 121.77 103.19 115.99 95.01 C 114.09 93.75 113.16 89.75 110.28 90.09 C 109.52 91.76 108.06 97.70 107.56 92.83 C 107.48 91.30 107.34 89.78 107.34 88.25 C 107.73 86.53 107.95 84.77 108.14 83.02 C 108.59 81.69 109.02 80.34 109.43 78.99 C 109.98 77.87 109.92 76.22 111.26 75.70 C 115.52 75.09 116.31 68.98 115.11 65.53 C 114.15 61.20 111.25 56.60 113.14 52.19 C 115.95 52.02 113.53 48.59 114.00 46.85 Z" />
</g>
<g id="#695e4eff">
<path fill="#695e4e" opacity="1.00" d=" M 125.75 50.92 C 127.65 49.61 129.73 48.59 131.96 47.96 C 131.56 48.91 131.21 49.88 130.93 50.87 C 132.33 50.99 133.74 51.07 135.16 51.13 L 136.19 51.22 C 133.70 51.61 131.22 51.98 128.73 52.33 L 127.90 52.27 L 127.29 52.21 C 126.90 51.88 126.13 51.24 125.75 50.92 Z" />
</g>
<g id="#ece6b1ff">
<path fill="#ece6b1" opacity="1.00" d=" M 16.87 50.10 C 17.39 50.08 18.41 50.03 18.92 50.01 C 19.98 51.33 21.06 52.63 22.12 53.95 L 21.82 55.10 C 20.05 53.55 18.31 51.96 16.87 50.10 Z" />
</g>
<g id="#f5d8cdff">
<path fill="#f5d8cd" opacity="1.00" d=" M 119.89 50.75 C 121.13 50.45 122.38 50.21 123.65 50.02 C 124.17 50.24 125.22 50.69 125.75 50.92 C 126.13 51.24 126.90 51.88 127.29 52.21 C 124.49 53.06 121.51 51.91 118.65 52.75 L 119.01 52.06 C 119.23 51.73 119.67 51.07 119.89 50.75 Z" />
</g>
<g id="#e6d89eff">
<path fill="#e6d89e" opacity="1.00" d=" M 136.19 51.22 C 137.96 51.20 139.58 52.10 140.92 53.17 C 141.79 57.06 139.02 60.32 137.73 63.76 C 136.73 65.33 137.54 67.16 137.62 68.85 C 137.28 71.79 139.08 75.97 135.72 77.72 C 131.98 79.09 127.93 78.72 124.03 79.18 C 121.72 90.07 130.96 99.35 140.68 102.34 C 143.54 104.00 146.71 103.57 149.79 102.94 C 153.89 103.27 157.28 100.59 160.92 99.15 C 162.66 104.99 159.89 112.15 164.54 116.84 C 164.21 118.18 163.54 120.86 163.21 122.20 C 162.82 117.91 161.07 113.77 158.84 110.13 C 153.22 109.63 147.41 110.53 141.89 109.15 C 135.56 107.70 130.55 103.29 125.47 99.52 C 118.64 92.48 116.24 82.04 117.86 72.72 C 120.90 66.68 128.26 73.38 132.65 69.66 C 135.28 66.10 135.56 61.57 134.77 57.31 C 133.69 54.71 130.75 53.99 128.73 52.33 C 131.22 51.98 133.70 51.61 136.19 51.22 Z" />
</g>
<g id="#b9996cff">
<path fill="#b9996c" opacity="1.00" d=" M 228.14 51.10 C 229.24 51.40 230.24 51.95 231.18 52.58 C 231.86 54.98 232.51 57.39 233.35 59.74 C 235.11 60.95 237.20 60.19 239.16 60.14 C 237.36 61.97 234.51 63.07 233.95 65.83 C 226.63 63.77 218.13 67.54 212.87 72.74 C 213.69 72.88 215.34 73.15 216.17 73.29 C 209.80 78.71 196.68 81.06 192.66 71.95 C 193.36 70.96 194.05 69.96 194.74 68.96 C 194.54 72.11 197.32 74.21 200.08 74.97 C 206.27 75.32 211.13 70.06 216.05 67.05 C 218.15 64.40 222.44 62.17 221.99 58.26 C 221.20 58.10 219.63 57.78 218.84 57.62 C 221.73 55.17 224.98 53.18 228.14 51.10 Z" />
</g>
<g id="#b28f63ff">
<path fill="#b28f63" opacity="1.00" d=" M 31.95 51.93 C 40.33 55.43 43.23 65.34 47.33 72.71 C 52.23 79.45 61.68 80.47 69.30 79.12 C 74.32 80.38 79.10 82.46 84.10 83.82 C 92.10 84.72 100.13 83.20 108.14 83.02 C 107.95 84.77 107.73 86.53 107.34 88.25 C 107.55 86.47 107.20 85.49 106.27 85.30 C 100.61 86.67 94.95 88.62 89.10 88.75 C 85.22 87.88 81.22 87.17 77.59 85.51 C 72.77 83.10 67.17 84.07 62.00 83.14 C 55.92 83.82 51.85 78.65 47.21 75.82 C 43.27 68.09 36.93 62.10 31.76 55.24 C 30.60 54.27 31.54 53.01 31.95 51.93 Z" />
</g>
<g id="#eeb1b2ff">
<path fill="#eeb1b2" opacity="1.00" d=" M 118.65 52.75 C 121.51 51.91 124.49 53.06 127.29 52.21 L 127.90 52.27 C 128.53 53.87 129.27 55.43 130.16 56.90 C 125.75 57.29 121.36 57.01 117.07 55.97 C 117.52 54.86 118.08 53.80 118.65 52.75 Z" />
</g>
<g id="#c2a877f9">
<path fill="#c2a877" opacity="0.98" d=" M 231.18 52.58 C 236.36 51.15 240.11 55.58 244.82 56.42 C 245.11 56.58 245.70 56.90 245.99 57.06 C 248.03 58.00 247.13 60.13 247.23 61.89 C 247.68 64.08 248.59 66.14 249.33 68.24 C 247.56 69.26 245.77 70.26 244.02 71.31 C 241.22 69.83 238.91 66.12 239.57 62.84 C 237.59 63.61 235.77 64.74 233.95 65.83 C 234.51 63.07 237.36 61.97 239.16 60.14 C 237.20 60.19 235.11 60.95 233.35 59.74 C 232.51 57.39 231.86 54.98 231.18 52.58 Z" />
</g>
<g id="#c7b280f5">
<path fill="#c7b280" opacity="0.96" d=" M 245.99 57.06 C 249.95 56.03 253.40 52.53 257.65 53.17 C 258.10 54.24 258.55 55.30 259.00 56.37 L 259.00 59.67 C 257.66 64.12 252.88 65.82 249.33 68.24 C 248.59 66.14 247.68 64.08 247.23 61.89 C 247.13 60.13 248.03 58.00 245.99 57.06 Z" />
</g>
<g id="#d1bd88ff">
<path fill="#d1bd88" opacity="1.00" d=" M 22.12 53.95 C 23.95 55.42 25.60 57.10 27.10 58.91 C 24.67 58.90 23.29 56.68 21.82 55.10 L 22.12 53.95 Z" />
</g>
<g id="#d99b9eff">
<path fill="#d99b9e" opacity="1.00" d=" M 117.07 55.97 C 121.36 57.01 125.75 57.29 130.16 56.90 C 130.12 57.40 130.05 58.41 130.01 58.91 C 126.90 59.05 123.93 59.63 121.14 60.98 C 119.82 60.17 118.47 59.42 117.06 58.78 C 117.06 58.07 117.06 56.67 117.07 55.97 Z" />
</g>
<g id="#d5b987ff">
<path fill="#d5b987" opacity="1.00" d=" M 130.16 56.90 C 132.00 58.68 135.05 60.10 132.72 63.67 C 132.31 65.89 128.83 68.24 127.98 65.09 C 128.96 63.14 130.11 61.17 130.01 58.91 C 130.05 58.41 130.12 57.40 130.16 56.90 Z" />
</g>
<g id="#a57f57fd">
<path fill="#a57f57" opacity="1.00" d=" M 27.10 58.91 C 31.90 59.54 35.13 63.20 38.08 66.73 C 37.29 66.86 35.70 67.13 34.91 67.26 C 36.71 72.11 41.81 74.35 45.66 77.30 C 47.05 79.44 44.18 78.87 42.90 79.28 C 45.02 82.79 49.51 82.74 52.96 84.11 C 57.76 85.40 61.45 89.74 66.98 88.19 C 71.90 86.51 74.72 92.53 79.65 90.59 C 88.56 91.78 99.78 92.58 106.27 85.30 C 107.20 85.49 107.55 86.47 107.34 88.25 C 107.34 89.78 107.48 91.30 107.56 92.83 C 107.44 93.84 107.35 94.86 107.29 95.88 C 105.13 98.53 101.64 100.31 98.19 100.01 C 98.02 98.61 97.87 97.21 97.72 95.82 C 96.86 96.79 96.13 97.86 95.42 98.95 C 92.20 96.81 88.32 99.39 84.96 99.90 C 85.51 95.99 82.54 100.29 81.20 101.17 C 76.51 100.62 71.40 100.11 68.06 103.97 C 67.95 103.43 67.75 102.36 67.64 101.82 C 68.08 100.87 68.50 99.93 68.92 98.97 C 65.56 99.59 62.21 100.23 58.86 100.88 C 59.60 100.34 60.33 99.78 61.04 99.20 C 56.70 98.05 52.47 96.40 48.00 95.76 C 48.72 95.14 49.45 94.52 50.18 93.91 C 51.47 94.33 54.25 94.04 53.75 92.15 C 52.54 91.34 50.52 91.68 49.92 93.11 L 49.33 92.90 C 47.27 92.15 45.14 91.66 42.94 91.41 C 45.12 89.29 40.11 88.62 39.24 86.77 C 37.64 86.01 39.50 83.88 38.24 83.25 C 36.31 82.25 34.26 81.52 32.23 80.74 C 31.23 80.23 30.23 79.73 29.23 79.23 C 28.86 79.01 28.13 78.57 27.77 78.34 C 29.52 75.60 27.63 73.24 26.05 71.02 C 27.41 71.31 28.75 71.70 30.12 71.95 C 30.04 69.82 27.73 69.33 26.27 68.30 C 25.69 67.93 24.55 67.18 23.98 66.81 C 26.93 65.39 26.19 61.65 27.10 58.91 Z" />
</g>
<g id="#b07b7aff">
<path fill="#b07b7a" opacity="1.00" d=" M 117.06 58.78 C 118.47 59.42 119.82 60.17 121.14 60.98 C 123.29 62.33 125.84 63.12 127.40 65.25 C 122.78 67.78 117.17 63.61 117.06 58.78 Z" />
</g>
<g id="#c78787ff">
<path fill="#c78787" opacity="1.00" d=" M 121.14 60.98 C 123.93 59.63 126.90 59.05 130.01 58.91 C 130.11 61.17 128.96 63.14 127.98 65.09 L 127.40 65.25 C 125.84 63.12 123.29 62.33 121.14 60.98 Z" />
</g>
<g id="#c78840ff">
<path fill="#c78840" opacity="1.00" d=" M 139.73 63.78 C 144.72 60.11 148.20 66.60 152.75 68.20 L 153.09 68.79 C 151.11 68.61 150.99 70.20 150.93 71.74 C 147.72 72.27 144.49 72.85 141.23 72.91 C 140.18 70.41 139.41 67.80 138.62 65.21 C 138.90 64.85 139.45 64.14 139.73 63.78 Z" />
</g>
<g id="#835529ff">
<path fill="#835529" opacity="1.00" d=" M 195.40 64.36 C 195.85 63.23 196.48 63.11 197.30 64.00 L 196.88 64.83 C 196.40 65.78 195.96 66.75 195.56 67.74 C 195.35 68.04 194.95 68.65 194.74 68.96 C 194.05 69.96 193.36 70.96 192.66 71.95 C 188.49 76.84 182.87 81.82 176.00 81.19 C 171.74 81.75 167.45 80.99 163.20 80.75 C 161.66 80.54 158.58 80.13 157.05 79.92 C 156.54 79.28 156.03 78.65 155.51 78.02 C 155.20 77.46 154.56 76.35 154.24 75.79 C 154.22 75.30 154.18 74.32 154.16 73.83 C 158.69 79.15 166.61 79.68 173.03 78.35 C 176.42 78.62 179.88 77.69 182.32 75.22 C 185.03 74.10 185.82 70.80 188.41 69.51 C 191.00 68.20 193.99 67.10 195.40 64.36 Z" />
</g>
<g id="#b7996dfc">
<path fill="#b7996d" opacity="1.00" d=" M 233.95 65.83 C 235.77 64.74 237.59 63.61 239.57 62.84 C 238.91 66.12 241.22 69.83 244.02 71.31 C 242.81 72.02 241.57 72.67 240.32 73.30 C 238.62 73.15 236.91 73.05 235.23 72.80 C 235.20 70.38 234.77 68.06 233.95 65.83 Z" />
</g>
<g id="#9d723bff">
<path fill="#9d723b" opacity="1.00" d=" M 137.62 68.85 C 137.54 67.16 136.73 65.33 137.73 63.76 C 137.95 64.12 138.40 64.85 138.62 65.21 C 139.41 67.80 140.18 70.41 141.23 72.91 C 144.49 72.85 147.72 72.27 150.93 71.74 C 152.20 72.10 153.27 72.87 154.16 73.83 C 154.18 74.32 154.22 75.30 154.24 75.79 C 153.93 75.58 153.31 75.18 153.00 74.97 C 148.92 73.45 144.29 74.19 139.96 74.00 C 139.06 72.34 138.28 70.61 137.62 68.85 Z" />
</g>
<g id="#f4d158f6">
<path fill="#f4d158" opacity="0.96" d=" M 151.15 64.81 C 159.27 68.00 166.29 73.98 175.14 75.21 C 172.41 75.94 169.56 75.97 166.77 76.29 C 161.66 75.01 157.11 72.12 153.09 68.79 L 152.75 68.20 C 152.23 67.06 151.69 65.94 151.15 64.81 Z" />
</g>
<g id="#af9165ff">
<path fill="#af9165" opacity="1.00" d=" M 212.87 72.74 C 218.13 67.54 226.63 63.77 233.95 65.83 C 234.77 68.06 235.20 70.38 235.23 72.80 C 236.91 73.05 238.62 73.15 240.32 73.30 L 239.74 73.90 C 237.64 74.68 235.07 74.84 233.82 76.97 C 236.55 76.68 239.21 75.98 241.93 75.62 C 242.83 77.91 239.89 81.34 240.12 84.29 C 238.64 84.54 235.70 85.05 234.23 85.31 C 233.40 85.23 231.74 85.07 230.91 84.99 C 231.16 81.74 234.88 74.98 227.13 77.66 C 218.22 75.53 209.98 81.10 201.33 81.56 C 198.04 81.39 192.77 77.90 190.95 81.98 C 189.24 83.89 188.34 87.21 185.33 87.25 C 183.58 87.49 181.81 87.41 180.06 87.68 C 175.26 85.71 170.28 83.97 165.01 83.94 C 162.91 83.91 161.45 82.24 159.84 81.13 C 160.68 81.04 162.36 80.85 163.20 80.75 C 167.45 80.99 171.74 81.75 176.00 81.19 C 182.87 81.82 188.49 76.84 192.66 71.95 C 196.68 81.06 209.80 78.71 216.17 73.29 C 215.34 73.15 213.69 72.88 212.87 72.74 Z" />
</g>
<g id="#eae2baff">
<path fill="#eae2ba" opacity="1.00" d=" M 19.81 66.02 C 21.22 66.15 22.62 66.42 23.98 66.81 C 24.55 67.18 25.69 67.93 26.27 68.30 C 23.83 69.38 21.69 67.30 19.81 66.02 Z" />
</g>
<g id="#b27b3afd">
<path fill="#b27b3a" opacity="1.00" d=" M 113.11 69.99 C 113.74 68.49 114.37 66.98 115.11 65.53 C 116.31 68.98 115.52 75.09 111.26 75.70 C 109.92 76.22 109.98 77.87 109.43 78.99 C 105.51 77.97 101.29 82.58 97.00 82.02 C 89.91 81.06 81.95 81.21 75.78 77.12 C 79.58 77.37 83.20 78.69 86.99 79.01 C 94.79 79.81 102.97 79.48 109.42 74.47 C 111.23 73.56 112.68 72.03 113.11 69.99 Z" />
</g>
<g id="#eee4a7ff">
<path fill="#eee4a7" opacity="1.00" d=" M 135.72 77.72 C 139.08 75.97 137.28 71.79 137.62 68.85 C 138.28 70.61 139.06 72.34 139.96 74.00 C 143.31 76.11 148.75 74.55 153.00 74.97 C 153.31 75.18 153.93 75.58 154.24 75.79 C 154.56 76.35 155.20 77.46 155.51 78.02 C 153.72 79.35 152.57 76.67 151.07 76.00 C 148.44 78.63 151.90 81.57 152.92 84.04 C 154.77 88.21 156.63 93.05 155.79 97.70 C 153.65 99.27 151.47 100.84 149.79 102.94 C 146.71 103.57 143.54 104.00 140.68 102.34 C 130.96 99.35 121.72 90.07 124.03 79.18 C 127.93 78.72 131.98 79.09 135.72 77.72 Z" />
</g>
<g id="#ba7b39ff">
<path fill="#ba7b39" opacity="1.00" d=" M 150.93 71.74 C 150.99 70.20 151.11 68.61 153.09 68.79 C 157.11 72.12 161.66 75.01 166.77 76.29 C 168.33 76.54 171.46 77.05 173.03 77.30 L 173.03 78.35 C 166.61 79.68 158.69 79.15 154.16 73.83 C 153.27 72.87 152.20 72.10 150.93 71.74 Z" />
</g>
<g id="#e2a248ec">
<path fill="#e2a248" opacity="0.93" d=" M 98.25 77.29 C 103.70 76.08 108.02 72.13 113.11 69.99 C 112.68 72.03 111.23 73.56 109.42 74.47 C 102.97 79.48 94.79 79.81 86.99 79.01 L 87.00 78.05 C 90.77 78.09 94.52 77.84 98.25 77.29 Z" />
</g>
<g id="#bca474f3">
<path fill="#bca474" opacity="0.95" d=" M 242.79 73.72 C 247.53 73.20 252.24 72.16 257.02 72.00 C 257.56 80.78 247.02 83.28 240.12 84.29 C 239.89 81.34 242.83 77.91 241.93 75.62 C 243.19 75.23 245.73 74.46 246.99 74.07 C 245.59 73.92 244.19 73.80 242.79 73.72 Z" />
</g>
<g id="#d8ca90ff">
<path fill="#d8ca90" opacity="1.00" d=" M 139.96 74.00 C 144.29 74.19 148.92 73.45 153.00 74.97 C 148.75 74.55 143.31 76.11 139.96 74.00 Z" />
</g>
<g id="#c78b42e4">
<path fill="#c78b42" opacity="0.89" d=" M 175.14 75.21 C 177.32 74.38 179.60 73.91 181.95 74.05 L 182.32 75.22 C 179.16 75.63 176.09 76.47 173.03 77.30 C 171.46 77.05 168.33 76.54 166.77 76.29 C 169.56 75.97 172.41 75.94 175.14 75.21 Z" />
</g>
<g id="#e3dba5f9">
<path fill="#e3dba5" opacity="0.98" d=" M 233.82 76.97 C 235.07 74.84 237.64 74.68 239.74 73.90 C 240.51 73.86 242.03 73.76 242.79 73.72 C 244.19 73.80 245.59 73.92 246.99 74.07 C 245.73 74.46 243.19 75.23 241.93 75.62 C 239.21 75.98 236.55 76.68 233.82 76.97 Z" />
</g>
<g id="#a76d34ff">
<path fill="#a76d34" opacity="1.00" d=" M 173.03 77.30 C 176.09 76.47 179.16 75.63 182.32 75.22 C 179.88 77.69 176.42 78.62 173.03 78.35 L 173.03 77.30 Z" />
</g>
<g id="#f1df9efe">
<path fill="#f1df9e" opacity="1.00" d=" M 151.07 76.00 C 152.57 76.67 153.72 79.35 155.51 78.02 C 156.03 78.65 156.54 79.28 157.05 79.92 C 157.32 80.39 157.87 81.34 158.15 81.81 C 157.76 86.12 159.09 90.28 161.14 93.99 C 162.14 93.75 163.13 93.44 164.09 93.08 C 164.67 95.67 165.60 98.17 166.34 100.72 C 166.35 106.81 165.20 113.11 166.61 119.12 L 166.74 119.75 C 165.09 121.58 164.71 124.09 163.66 126.25 C 163.37 124.91 163.23 123.56 163.21 122.20 C 163.54 120.86 164.21 118.18 164.54 116.84 C 159.89 112.15 162.66 104.99 160.92 99.15 C 157.28 100.59 153.89 103.27 149.79 102.94 C 151.47 100.84 153.65 99.27 155.79 97.70 C 156.63 93.05 154.77 88.21 152.92 84.04 C 151.90 81.57 148.44 78.63 151.07 76.00 Z" />
</g>
<g id="#1e170a1f">
<path fill="#1e170a" opacity="0.12" d=" M 86.98 77.04 C 90.74 76.98 94.49 77.15 98.25 77.29 C 94.52 77.84 90.77 78.09 87.00 78.05 L 86.98 77.04 Z" />
</g>
<g id="#a5875efd">
<path fill="#a5875e" opacity="1.00" d=" M 201.33 81.56 C 209.98 81.10 218.22 75.53 227.13 77.66 C 234.88 74.98 231.16 81.74 230.91 84.99 C 228.47 85.07 226.46 82.62 224.03 84.00 C 217.12 87.18 209.41 83.97 202.15 85.08 C 202.06 88.11 199.22 88.14 196.97 89.06 C 197.68 91.13 199.21 92.65 200.94 93.92 C 201.30 96.08 202.89 98.41 205.40 97.72 C 205.79 98.89 206.21 100.20 204.81 100.86 C 201.07 100.32 197.39 99.09 194.65 96.43 C 190.44 97.37 186.32 95.62 182.96 93.15 C 183.32 90.72 181.72 89.14 180.06 87.68 C 181.81 87.41 183.58 87.49 185.33 87.25 C 188.34 87.21 189.24 83.89 190.95 81.98 C 192.77 77.90 198.04 81.39 201.33 81.56 Z" />
</g>
<g id="#413f3945">
<path fill="#413f39" opacity="0.27" d=" M 29.23 79.23 C 30.23 79.73 31.23 80.23 32.23 80.74 C 28.45 80.86 24.67 81.02 20.88 81.04 C 22.15 78.66 27.09 80.55 29.23 79.23 Z" />
</g>
<g id="#98855df3">
<path fill="#98855d" opacity="0.95" d=" M 157.05 79.92 C 158.58 80.13 161.66 80.54 163.20 80.75 C 162.36 80.85 160.68 81.04 159.84 81.13 C 161.45 82.24 162.91 83.91 165.01 83.94 C 170.28 83.97 175.26 85.71 180.06 87.68 C 181.72 89.14 183.32 90.72 182.96 93.15 C 180.38 91.51 177.51 90.43 174.72 89.22 C 170.55 87.37 166.79 83.22 161.79 85.78 C 160.63 84.41 159.42 83.07 158.15 81.81 C 157.87 81.34 157.32 80.39 157.05 79.92 Z" />
</g>
<g id="#d9cda7f1">
<path fill="#d9cda7" opacity="0.95" d=" M 20.88 81.04 C 24.67 81.02 28.45 80.86 32.23 80.74 C 34.26 81.52 36.31 82.25 38.24 83.25 C 32.88 84.75 27.32 81.61 21.84 82.17 C 21.60 81.89 21.12 81.32 20.88 81.04 Z" />
</g>
<g id="#ae8d61f7">
<path fill="#ae8d61" opacity="0.97" d=" M 21.84 82.17 C 27.32 81.61 32.88 84.75 38.24 83.25 C 39.50 83.88 37.64 86.01 39.24 86.77 C 40.11 88.62 45.12 89.29 42.94 91.41 C 35.33 89.98 26.25 89.62 21.84 82.17 Z" />
</g>
<g id="#edd193fc">
<path fill="#edd193" opacity="1.00" d=" M 158.15 81.81 C 159.42 83.07 160.63 84.41 161.79 85.78 C 162.98 88.05 163.77 90.53 164.09 93.08 C 163.13 93.44 162.14 93.75 161.14 93.99 C 159.09 90.28 157.76 86.12 158.15 81.81 Z" />
</g>
<g id="#9d7852fc">
<path fill="#9d7852" opacity="1.00" d=" M 224.03 84.00 C 226.46 82.62 228.47 85.07 230.91 84.99 C 231.74 85.07 233.40 85.23 234.23 85.31 C 232.76 85.78 231.27 86.22 229.81 86.71 C 228.53 86.41 227.25 86.17 225.95 86.03 C 224.64 85.70 223.39 85.79 222.19 86.30 C 221.08 88.14 223.99 88.27 225.11 88.00 C 224.77 91.31 220.56 91.88 219.72 94.93 C 219.27 94.94 218.36 94.95 217.90 94.96 C 215.93 94.20 213.87 93.66 211.80 93.23 C 210.39 95.31 208.21 96.25 205.85 96.84 L 205.18 96.74 C 203.88 95.63 202.41 94.76 200.94 93.92 C 199.21 92.65 197.68 91.13 196.97 89.06 C 199.22 88.14 202.06 88.11 202.15 85.08 C 209.41 83.97 217.12 87.18 224.03 84.00 Z" />
</g>
<g id="#c6ad81ff">
<path fill="#c6ad81" opacity="1.00" d=" M 222.19 86.30 C 223.39 85.79 224.64 85.70 225.95 86.03 C 225.74 86.52 225.32 87.51 225.11 88.00 C 223.99 88.27 221.08 88.14 222.19 86.30 Z" />
</g>
<g id="#d0c8ace3">
<path fill="#d0c8ac" opacity="0.89" d=" M 225.95 86.03 C 227.25 86.17 228.53 86.41 229.81 86.71 C 232.28 87.76 234.89 88.48 237.25 89.79 C 233.14 89.65 229.14 88.67 225.11 88.00 C 225.32 87.51 225.74 86.52 225.95 86.03 Z" />
</g>
<g id="#aa885df6">
<path fill="#aa885d" opacity="0.96" d=" M 225.11 88.00 C 229.14 88.67 233.14 89.65 237.25 89.79 C 239.15 90.22 241.04 90.71 242.91 91.25 C 243.87 95.01 238.88 94.84 236.62 96.40 C 231.04 96.55 225.32 95.52 219.72 94.93 C 220.56 91.88 224.77 91.31 225.11 88.00 Z" />
</g>
<g id="#cdb683fe">
<path fill="#cdb683" opacity="1.00" d=" M 110.28 90.09 C 113.16 89.75 114.09 93.75 115.99 95.01 C 121.77 103.19 129.31 110.73 139.02 113.93 C 144.97 116.35 152.47 114.80 157.39 119.56 C 160.61 121.38 161.35 125.21 162.93 128.26 C 162.62 129.50 162.28 130.73 161.96 131.97 L 161.19 132.40 C 160.79 130.14 161.73 127.07 159.24 125.79 C 152.55 122.38 144.75 121.75 137.68 119.33 C 129.63 116.51 123.25 110.52 116.64 105.37 C 112.78 103.32 114.65 108.97 114.25 111.19 C 111.36 106.37 109.28 101.13 107.29 95.88 C 107.35 94.86 107.44 93.84 107.56 92.83 C 108.06 97.70 109.52 91.76 110.28 90.09 Z" />
</g>
<g id="#e4d7b0ff">
<path fill="#e4d7b0" opacity="1.00" d=" M 49.92 93.11 C 50.52 91.68 52.54 91.34 53.75 92.15 C 54.25 94.04 51.47 94.33 50.18 93.91 L 49.92 93.11 Z" />
</g>
<g id="#ac8d63f2">
<path fill="#ac8d63" opacity="0.95" d=" M 49.33 92.90 L 49.92 93.11 L 50.18 93.91 C 49.45 94.52 48.72 95.14 48.00 95.76 C 52.47 96.40 56.70 98.05 61.04 99.20 C 60.33 99.78 59.60 100.34 58.86 100.88 C 56.31 101.40 53.81 102.21 51.23 102.53 C 47.76 101.36 44.32 100.12 40.94 98.73 C 43.66 96.67 46.59 94.93 49.33 92.90 Z" />
</g>
<g id="#a88e62f9">
<path fill="#a88e62" opacity="0.98" d=" M 205.85 96.84 C 208.21 96.25 210.39 95.31 211.80 93.23 C 213.45 96.56 217.92 97.52 221.16 98.96 C 221.81 99.55 222.43 100.17 223.03 100.82 C 217.17 103.81 211.07 99.22 205.85 96.84 Z" />
</g>
<g id="#e6dfcdf5">
<path fill="#e6dfcd" opacity="0.96" d=" M 211.80 93.23 C 213.87 93.66 215.93 94.20 217.90 94.96 C 218.96 96.31 220.05 97.64 221.16 98.96 C 217.92 97.52 213.45 96.56 211.80 93.23 Z" />
</g>
<g id="#d8d1baf4">
<path fill="#d8d1ba" opacity="0.96" d=" M 200.94 93.92 C 202.41 94.76 203.88 95.63 205.18 96.74 L 205.40 97.72 C 202.89 98.41 201.30 96.08 200.94 93.92 Z" />
</g>
<g id="#ac8b60f9">
<path fill="#ac8b60" opacity="0.98" d=" M 84.96 99.90 C 88.32 99.39 92.20 96.81 95.42 98.95 C 94.72 101.76 92.90 103.68 89.92 103.85 C 83.67 107.58 85.31 102.52 84.96 99.90 Z" />
</g>
<g id="#ab8c62f2">
<path fill="#ab8c62" opacity="0.95" d=" M 68.06 103.97 C 71.40 100.11 76.51 100.62 81.20 101.17 C 78.64 104.09 75.45 107.33 70.98 105.98 C 62.83 109.46 66.58 104.33 67.64 101.82 C 67.75 102.36 67.95 103.43 68.06 103.97 Z" />
</g>
<g id="#514c3756">
<path fill="#514c37" opacity="0.34" d=" M 166.34 100.72 C 168.03 106.66 166.52 113.05 166.61 119.12 C 165.20 113.11 166.35 106.81 166.34 100.72 Z" />
</g>
<g id="#bfa575fd">
<path fill="#bfa575" opacity="1.00" d=" M 114.25 111.19 C 114.65 108.97 112.78 103.32 116.64 105.37 C 123.25 110.52 129.63 116.51 137.68 119.33 C 144.75 121.75 152.55 122.38 159.24 125.79 C 161.73 127.07 160.79 130.14 161.19 132.40 C 158.22 124.84 147.75 126.57 141.32 124.59 C 134.87 122.89 129.19 119.17 122.95 116.92 C 123.01 121.62 127.11 124.88 129.01 128.94 C 127.66 129.01 126.32 129.05 124.97 129.07 C 122.27 122.63 117.41 117.40 114.25 111.19 Z" />
</g>
<g id="#b4976bfe">
<path fill="#b4976b" opacity="1.00" d=" M 122.95 116.92 C 129.19 119.17 134.87 122.89 141.32 124.59 C 147.75 126.57 158.22 124.84 161.19 132.40 C 160.92 132.85 160.38 133.76 160.10 134.21 L 159.39 133.82 C 157.30 129.42 151.56 128.78 147.31 128.63 C 143.19 128.54 139.25 127.20 135.16 127.01 C 134.06 128.39 134.08 130.21 133.64 131.84 C 131.06 131.95 128.48 132.04 125.90 132.10 C 125.56 131.10 125.25 130.09 124.97 129.07 C 126.32 129.05 127.66 129.01 129.01 128.94 C 127.11 124.88 123.01 121.62 122.95 116.92 Z" />
</g>
<g id="#aa3b2af2">
<path fill="#aa3b2a" opacity="0.95" d=" M 163.66 126.25 C 164.71 124.09 165.09 121.58 166.74 119.75 C 170.38 122.48 174.20 124.96 177.88 127.64 C 176.61 130.03 181.20 130.84 182.22 132.85 C 178.45 132.14 174.67 131.48 171.00 130.37 C 168.07 131.33 165.04 131.84 161.96 131.97 C 162.28 130.73 162.62 129.50 162.93 128.26 C 163.11 127.76 163.48 126.75 163.66 126.25 Z" />
</g>
<g id="#a68a62fd">
<path fill="#a68a62" opacity="1.00" d=" M 135.16 127.01 C 139.25 127.20 143.19 128.54 147.31 128.63 C 151.56 128.78 157.30 129.42 159.39 133.82 C 153.73 130.25 146.40 129.89 140.90 133.88 C 139.90 134.54 139.02 135.36 138.10 136.13 C 134.67 135.92 130.99 134.74 127.68 136.12 C 126.91 134.87 126.30 133.51 125.90 132.10 C 128.48 132.04 131.06 131.95 133.64 131.84 C 134.08 130.21 134.06 128.39 135.16 127.01 Z" />
</g>
<g id="#db8057e2">
<path fill="#db8057" opacity="0.89" d=" M 182.22 132.85 C 181.20 130.84 176.61 130.03 177.88 127.64 C 182.30 130.26 187.02 132.69 190.09 136.99 C 187.43 135.66 184.81 134.28 182.22 132.85 Z" />
</g>
<g id="#a27956fc">
<path fill="#a27956" opacity="1.00" d=" M 140.90 133.88 C 146.40 129.89 153.73 130.25 159.39 133.82 L 160.10 134.21 C 159.23 135.33 158.15 136.25 157.12 137.20 C 156.83 136.60 156.26 135.39 155.98 134.79 C 154.53 132.67 151.52 134.76 150.01 136.04 C 149.18 135.63 148.34 135.25 147.50 134.88 C 146.09 134.04 144.45 133.98 142.87 133.94 C 142.38 133.93 141.39 133.90 140.90 133.88 Z" />
</g>
<g id="#c34033e5">
<path fill="#c34033" opacity="0.90" d=" M 142.87 133.94 C 144.45 133.98 146.09 134.04 147.50 134.88 C 146.14 135.77 144.81 136.81 143.17 137.11 C 143.09 136.32 142.94 134.73 142.87 133.94 Z" />
</g>
<g id="#d59393fb">
<path fill="#d59393" opacity="1.00" d=" M 150.01 136.04 C 151.52 134.76 154.53 132.67 155.98 134.79 C 153.31 134.56 155.11 137.28 154.89 138.80 C 153.75 140.36 151.69 139.83 150.03 140.08 C 150.02 138.73 150.02 137.38 150.01 136.04 Z" />
</g>
<g id="#8e7756f7">
<path fill="#8e7756" opacity="0.97" d=" M 127.68 136.12 C 130.99 134.74 134.67 135.92 138.10 136.13 C 137.39 137.16 136.70 138.20 135.96 139.22 C 133.75 138.19 131.34 137.91 128.92 138.14 C 128.61 137.63 127.99 136.63 127.68 136.12 Z" />
</g>
<g id="#e7adabf5">
<path fill="#e7adab" opacity="0.96" d=" M 154.89 138.80 C 155.11 137.28 153.31 134.56 155.98 134.79 C 156.26 135.39 156.83 136.60 157.12 137.20 C 155.70 143.14 162.47 145.87 164.12 151.01 C 160.94 149.72 159.25 146.26 156.04 144.95 C 153.54 143.40 150.48 144.77 147.74 144.72 C 148.48 143.16 149.24 141.61 150.03 140.08 C 151.69 139.83 153.75 140.36 154.89 138.80 Z" />
</g>
<g id="#d09596f9">
<path fill="#d09596" opacity="0.98" d=" M 128.92 138.14 C 131.34 137.91 133.75 138.19 135.96 139.22 C 136.05 140.79 136.24 142.38 136.96 143.81 C 131.73 143.05 135.17 149.82 135.60 153.08 C 135.81 153.81 136.22 155.26 136.43 155.99 C 135.29 157.03 133.76 157.14 132.31 156.91 C 132.33 155.55 131.34 152.63 129.95 154.57 C 127.92 157.31 127.46 162.59 130.79 164.26 C 130.96 165.83 130.98 167.42 131.01 169.00 L 128.08 169.00 L 128.21 168.04 C 129.07 165.30 125.18 164.34 124.20 162.07 C 124.41 164.46 122.99 165.44 120.73 165.51 C 117.65 164.55 118.70 160.52 118.04 157.99 C 119.10 150.25 129.99 146.44 128.92 138.14 M 123.01 158.02 C 122.00 160.95 125.27 159.87 126.99 159.98 C 128.00 157.05 124.73 158.13 123.01 158.02 Z" />
</g>
<g id="#fac6c4fe">
<path fill="#fac6c4" opacity="1.00" d=" M 135.60 153.08 C 135.17 149.82 131.73 143.05 136.96 143.81 C 138.51 145.33 141.18 146.47 141.06 149.00 C 138.55 149.22 136.11 150.32 135.60 153.08 Z" />
</g>
<g id="#ce9396fa">
<path fill="#ce9396" opacity="0.98" d=" M 147.74 144.72 C 150.48 144.77 153.54 143.40 156.04 144.95 C 159.25 146.26 160.94 149.72 164.12 151.01 C 164.27 151.46 164.56 152.35 164.71 152.80 C 163.91 155.13 163.98 157.33 164.92 159.40 C 164.75 159.65 164.41 160.16 164.23 160.42 C 162.46 160.06 160.69 159.68 158.99 159.08 C 159.13 156.47 158.99 153.75 157.18 151.69 C 156.35 154.60 157.36 157.41 158.17 160.12 C 157.90 160.36 157.34 160.84 157.06 161.08 C 155.29 161.46 153.51 161.84 151.72 162.11 C 151.50 159.71 151.31 157.31 151.17 154.91 C 152.76 154.76 155.94 155.93 154.95 153.15 C 153.30 152.94 151.65 152.83 150.00 152.67 C 150.09 151.28 149.44 150.71 148.04 150.96 C 147.94 154.35 147.99 157.77 148.16 161.17 C 146.55 162.90 145.04 159.65 143.12 159.75 C 142.94 158.28 142.82 156.80 142.68 155.32 C 143.54 155.20 145.27 154.95 146.13 154.82 C 145.40 153.41 144.39 152.18 143.58 150.82 C 144.45 148.47 145.93 146.43 147.74 144.72 Z" />
</g>
<g id="#b59591de">
<path fill="#b59591" opacity="0.87" d=" M 135.60 153.08 C 136.11 150.32 138.55 149.22 141.06 149.00 C 141.22 151.07 140.67 153.10 139.81 154.97 C 138.25 154.76 136.98 153.75 135.60 153.08 Z" />
</g>
<g id="#916265db">
<path fill="#916265" opacity="0.86" d=" M 142.68 155.32 C 142.37 153.77 143.04 152.25 143.58 150.82 C 144.39 152.18 145.40 153.41 146.13 154.82 C 145.27 154.95 143.54 155.20 142.68 155.32 Z" />
</g>
<g id="#f2bdbdfd">
<path fill="#f2bdbd" opacity="1.00" d=" M 148.04 150.96 C 149.44 150.71 150.09 151.28 150.00 152.67 C 149.77 152.99 149.32 153.63 149.10 153.95 C 148.87 155.99 149.29 158.02 149.69 160.02 C 149.31 160.31 148.54 160.89 148.16 161.17 C 147.99 157.77 147.94 154.35 148.04 150.96 Z" />
</g>
<g id="#3427283d">
<path fill="#342728" opacity="0.24" d=" M 157.18 151.69 C 158.99 153.75 159.13 156.47 158.99 159.08 L 158.97 159.95 L 158.17 160.12 C 157.36 157.41 156.35 154.60 157.18 151.69 Z" />
</g>
<g id="#a57176f0">
<path fill="#a57176" opacity="0.94" d=" M 149.10 153.95 C 149.32 153.63 149.77 152.99 150.00 152.67 C 151.65 152.83 153.30 152.94 154.95 153.15 C 155.94 155.93 152.76 154.76 151.17 154.91 C 150.65 154.67 149.61 154.19 149.10 153.95 Z" />
</g>
<g id="#e6bbbcef">
<path fill="#e6bbbc" opacity="0.94" d=" M 164.92 159.40 C 163.98 157.33 163.91 155.13 164.71 152.80 C 164.72 154.97 166.55 157.49 164.92 159.40 Z" />
</g>
<g id="#b07d7fe9">
<path fill="#b07d7f" opacity="0.91" d=" M 129.95 154.57 C 131.34 152.63 132.33 155.55 132.31 156.91 C 133.76 157.14 135.29 157.03 136.43 155.99 C 136.55 159.28 141.21 167.69 135.09 167.98 C 131.03 164.60 132.43 158.85 129.95 154.57 Z" />
</g>
<g id="#4b3f3f59">
<path fill="#4b3f3f" opacity="0.35" d=" M 149.10 153.95 C 149.61 154.19 150.65 154.67 151.17 154.91 C 151.31 157.31 151.50 159.71 151.72 162.11 C 151.24 162.80 150.75 163.49 150.26 164.17 C 150.11 162.78 149.92 161.40 149.69 160.02 C 149.29 158.02 148.87 155.99 149.10 153.95 Z" />
</g>
<g id="#dec1c0ea">
<path fill="#dec1c0" opacity="0.92" d=" M 130.79 164.26 C 127.46 162.59 127.92 157.31 129.95 154.57 C 130.13 157.79 130.39 161.04 130.79 164.26 Z" />
</g>
<g id="#14111119">
<path fill="#141111" opacity="0.10" d=" M 129.95 154.57 C 132.43 158.85 131.03 164.60 135.09 167.98 C 133.93 168.26 132.79 168.60 131.67 169.00 L 131.01 169.00 C 130.98 167.42 130.96 165.83 130.79 164.26 C 130.39 161.04 130.13 157.79 129.95 154.57 Z" />
</g>
<g id="#a56d74ff">
<path fill="#a56d74" opacity="1.00" d=" M 123.01 158.02 C 124.73 158.13 128.00 157.05 126.99 159.98 C 125.27 159.87 122.00 160.95 123.01 158.02 Z" />
</g>
<g id="#a58d82ed">
<path fill="#a58d82" opacity="0.93" d=" M 158.99 159.08 C 160.69 159.68 162.46 160.06 164.23 160.42 C 164.79 164.59 158.98 163.43 158.97 159.95 L 158.99 159.08 Z" />
</g>
<g id="#a28180e3">
<path fill="#a28180" opacity="0.89" d=" M 143.12 159.75 C 145.04 159.65 146.55 162.90 148.16 161.17 C 148.54 160.89 149.31 160.31 149.69 160.02 C 149.92 161.40 150.11 162.78 150.26 164.17 C 147.91 166.41 143.31 162.41 143.12 159.75 Z" />
</g>
<g id="#a68780e1">
<path fill="#a68780" opacity="0.88" d=" M 151.72 162.11 C 153.51 161.84 155.29 161.46 157.06 161.08 C 157.02 162.40 156.96 163.72 156.87 165.04 C 154.51 165.50 153.06 163.70 151.72 162.11 Z" />
</g>
<g id="#aa817ef2">
<path fill="#aa817e" opacity="0.95" d=" M 124.20 162.07 C 125.18 164.34 129.07 165.30 128.21 168.04 C 125.70 167.22 122.95 167.01 120.73 165.51 C 122.99 165.44 124.41 164.46 124.20 162.07 Z" />
</g>
</svg>
