<?xml version="1.0" encoding="UTF-8" ?>
<!DOCTYPE svg PUBLIC "-//W3C//DTD SVG 1.1//EN" "http://www.w3.org/Graphics/SVG/1.1/DTD/svg11.dtd">
<svg width="96pt" height="164pt" viewBox="0 0 96 164" version="1.1" xmlns="http://www.w3.org/2000/svg">
<g id="#d5aec2f1">
<path fill="#d5aec2" opacity="0.95" d=" M 46.02 23.67 C 46.35 19.70 49.63 14.99 54.09 16.00 C 56.47 16.26 57.86 18.35 59.12 20.14 C 58.63 19.87 57.65 19.33 57.16 19.06 C 54.26 18.15 50.97 18.52 48.56 20.45 C 47.71 23.30 47.76 26.32 47.57 29.27 C 47.05 27.40 46.49 25.55 46.02 23.67 Z" />
</g>
<g id="#ab7ec3ff">
<path fill="#ab7ec3" opacity="1.00" d=" M 48.56 20.45 C 50.97 18.52 54.26 18.15 57.16 19.06 C 53.69 23.37 50.38 27.88 48.37 33.09 C 47.19 30.06 46.20 26.94 46.02 23.67 C 46.49 25.55 47.05 27.40 47.57 29.27 C 47.76 26.32 47.71 23.30 48.56 20.45 Z" />
</g>
<g id="#9c71b2ff">
<path fill="#9c71b2" opacity="1.00" d=" M 48.37 33.09 C 50.38 27.88 53.69 23.37 57.16 19.06 C 57.65 19.33 58.63 19.87 59.12 20.14 C 59.93 21.12 60.23 22.21 60.03 23.41 C 59.92 23.94 59.71 24.99 59.60 25.52 C 59.30 24.44 58.71 22.28 58.42 21.20 L 57.82 22.57 C 56.27 26.65 54.32 30.60 51.16 33.70 C 52.72 34.28 54.30 35.38 56.05 34.96 C 58.00 34.28 59.45 32.73 61.01 31.45 C 60.50 33.14 59.58 34.80 59.62 36.61 C 60.54 40.12 62.29 43.35 63.60 46.73 C 64.11 45.74 64.62 44.76 65.10 43.75 C 67.52 56.18 67.11 68.94 65.98 81.48 C 68.50 80.10 71.26 79.32 74.10 78.91 C 74.63 79.52 75.17 80.13 75.71 80.74 C 71.16 80.60 67.15 82.77 63.44 85.16 C 63.86 83.62 62.82 82.27 61.91 81.15 C 63.82 66.04 62.54 50.56 57.62 36.12 C 54.09 37.19 50.68 35.85 48.37 33.09 M 63.24 57.54 C 62.86 64.38 62.80 71.28 63.33 78.12 C 64.69 71.40 64.45 64.26 63.24 57.54 Z" />
</g>
<g id="#875e9dff">
<path fill="#875e9d" opacity="1.00" d=" M 51.16 33.70 C 54.32 30.60 56.27 26.65 57.82 22.57 C 57.63 25.31 58.45 27.96 59.66 30.40 C 59.65 28.77 59.62 27.15 59.60 25.52 C 59.71 24.99 59.92 23.94 60.03 23.41 L 60.14 22.87 C 62.53 29.62 64.19 36.66 65.10 43.75 C 64.62 44.76 64.11 45.74 63.60 46.73 C 62.29 43.35 60.54 40.12 59.62 36.61 C 59.58 34.80 60.50 33.14 61.01 31.45 C 59.45 32.73 58.00 34.28 56.05 34.96 C 54.30 35.38 52.72 34.28 51.16 33.70 Z" />
</g>
<g id="#764f83ff">
<path fill="#764f83" opacity="1.00" d=" M 57.82 22.57 L 58.42 21.20 C 58.71 22.28 59.30 24.44 59.60 25.52 C 59.62 27.15 59.65 28.77 59.66 30.40 C 58.45 27.96 57.63 25.31 57.82 22.57 Z" />
</g>
<g id="#bd8acbff">
<path fill="#bd8acb" opacity="1.00" d=" M 63.24 57.54 C 64.45 64.26 64.69 71.40 63.33 78.12 C 62.80 71.28 62.86 64.38 63.24 57.54 Z" />
</g>
<g id="#e4aea4ff">
<path fill="#e4aea4" opacity="1.00" d=" M 19.75 81.73 C 20.44 80.49 20.85 79.04 21.87 78.01 C 24.34 77.42 26.85 78.32 28.66 80.02 C 25.91 79.41 21.39 78.47 21.16 82.49 C 21.45 83.38 22.02 85.14 22.30 86.02 C 21.68 87.91 21.08 89.80 20.52 91.71 C 20.01 93.31 19.44 94.90 18.94 96.51 L 18.90 95.52 C 18.82 92.05 18.76 88.56 19.12 85.10 C 19.38 84.17 19.56 83.23 19.68 82.28 L 19.75 81.73 Z" />
</g>
<g id="#996ba6ff">
<path fill="#996ba6" opacity="1.00" d=" M 21.16 82.49 C 21.39 78.47 25.91 79.41 28.66 80.02 C 30.24 81.39 31.55 83.04 32.65 84.81 C 28.78 84.24 24.94 83.54 21.16 82.49 Z" />
</g>
<g id="#a076a0ff">
<path fill="#a076a0" opacity="1.00" d=" M 60.65 89.00 C 61.48 86.45 61.23 83.69 61.91 81.15 C 61.91 82.69 61.67 84.29 62.26 85.76 C 62.55 85.61 63.14 85.31 63.44 85.16 C 67.15 82.77 71.16 80.60 75.71 80.74 C 77.26 82.80 78.37 85.16 79.00 87.67 C 79.13 90.53 79.17 93.40 79.09 96.26 C 78.75 97.97 78.70 99.85 77.74 101.36 L 76.78 102.84 C 77.38 97.22 78.69 91.49 77.26 85.88 C 76.00 84.32 74.46 81.99 72.10 82.72 C 64.61 84.01 58.90 90.98 59.26 98.62 C 58.86 98.57 58.06 98.47 57.66 98.42 C 55.73 98.12 53.81 97.82 51.88 97.54 C 52.93 96.26 53.93 94.94 54.99 93.66 C 56.14 93.07 57.29 92.49 58.44 91.91 C 59.36 91.77 60.74 90.18 59.07 89.91 C 57.70 89.74 56.34 89.79 54.98 90.05 C 56.81 89.44 58.74 89.23 60.65 89.00 Z" />
</g>
<g id="#c290c7ff">
<path fill="#c290c7" opacity="1.00" d=" M 61.91 81.15 C 62.82 82.27 63.86 83.62 63.44 85.16 C 63.14 85.31 62.55 85.61 62.26 85.76 C 61.67 84.29 61.91 82.69 61.91 81.15 Z" />
</g>
<g id="#4638397f">
<path fill="#463839" opacity="0.50" d=" M 18.90 95.52 C 17.44 91.37 17.47 86.01 19.68 82.28 C 19.56 83.23 19.38 84.17 19.12 85.10 C 18.76 88.56 18.82 92.05 18.90 95.52 Z" />
</g>
<g id="#7a5a8cfe">
<path fill="#7a5a8c" opacity="1.00" d=" M 21.16 82.49 C 24.94 83.54 28.78 84.24 32.65 84.81 C 33.59 86.42 33.59 88.51 34.02 90.33 C 32.40 91.40 30.87 92.61 29.43 93.92 C 28.67 91.47 27.87 89.00 26.59 86.77 C 25.48 85.64 24.33 84.57 23.18 83.49 C 22.96 84.12 22.52 85.39 22.30 86.02 C 22.02 85.14 21.45 83.38 21.16 82.49 Z" />
</g>
<g id="#855988ff">
<path fill="#855988" opacity="1.00" d=" M 59.26 98.62 C 58.90 90.98 64.61 84.01 72.10 82.72 C 74.46 81.99 76.00 84.32 77.26 85.88 C 76.08 85.65 74.90 85.42 73.72 85.21 C 69.05 84.55 65.28 88.38 63.13 92.09 C 61.26 94.94 63.26 98.05 64.41 100.73 C 63.93 101.87 63.43 103.01 63.06 104.19 C 63.83 105.88 65.20 107.19 66.36 108.62 C 65.70 108.81 64.39 109.19 63.74 109.39 C 63.33 109.40 62.52 109.42 62.11 109.43 C 61.39 109.27 59.94 108.96 59.22 108.80 C 59.33 105.41 59.20 102.01 59.26 98.62 Z" />
<path fill="#855988" opacity="1.00" d=" M 18.94 96.51 C 19.44 94.90 20.01 93.31 20.52 91.71 C 20.72 96.55 22.06 101.47 26.11 104.50 C 26.07 104.85 25.99 105.55 25.94 105.90 C 24.27 105.38 22.62 104.78 21.00 104.11 C 20.29 101.60 19.01 99.14 18.94 96.51 Z" />
</g>
<g id="#685353ff">
<path fill="#685353" opacity="1.00" d=" M 23.18 83.49 C 24.33 84.57 25.48 85.64 26.59 86.77 C 26.34 90.85 25.59 94.89 24.24 98.76 C 24.95 99.99 25.67 101.22 26.34 102.48 C 26.28 102.98 26.16 104.00 26.11 104.50 C 22.06 101.47 20.72 96.55 20.52 91.71 C 21.08 89.80 21.68 87.91 22.30 86.02 C 22.52 85.39 22.96 84.12 23.18 83.49 Z" />
</g>
<g id="#685656ff">
<path fill="#685656" opacity="1.00" d=" M 63.13 92.09 C 65.28 88.38 69.05 84.55 73.72 85.21 C 77.39 89.95 76.99 96.41 74.63 101.62 C 72.32 104.84 65.82 104.87 64.41 100.73 C 63.26 98.05 61.26 94.94 63.13 92.09 Z" />
</g>
<g id="#6d5475ff">
<path fill="#6d5475" opacity="1.00" d=" M 73.72 85.21 C 74.90 85.42 76.08 85.65 77.26 85.88 C 78.69 91.49 77.38 97.22 76.78 102.84 C 76.57 103.60 76.36 104.37 76.16 105.13 C 72.90 106.30 69.65 107.52 66.36 108.62 C 65.20 107.19 63.83 105.88 63.06 104.19 C 63.43 103.01 63.93 101.87 64.41 100.73 C 65.82 104.87 72.32 104.84 74.63 101.62 C 76.99 96.41 77.39 89.95 73.72 85.21 Z" />
<path fill="#6d5475" opacity="1.00" d=" M 27.53 109.77 C 27.53 108.37 27.54 106.97 27.61 105.57 C 27.78 108.26 29.13 110.49 31.11 112.23 C 33.02 111.49 34.90 110.70 36.77 109.88 L 38.48 109.88 C 37.70 110.88 36.92 111.88 36.13 112.88 C 33.79 112.80 31.46 112.62 29.13 112.48 C 28.59 111.58 28.04 110.68 27.53 109.77 Z" />
</g>
<g id="#78645cff">
<path fill="#78645c" opacity="1.00" d=" M 26.59 86.77 C 27.87 89.00 28.67 91.47 29.43 93.92 C 27.88 96.56 26.99 99.51 26.34 102.48 C 25.67 101.22 24.95 99.99 24.24 98.76 C 25.59 94.89 26.34 90.85 26.59 86.77 Z" />
</g>
<g id="#e8c7ccfe">
<path fill="#e8c7cc" opacity="1.00" d=" M 34.02 90.33 C 39.76 87.22 46.87 87.10 52.91 89.43 C 47.26 91.55 40.61 89.18 35.42 92.67 C 31.13 95.48 29.13 100.43 27.75 105.15 L 27.61 105.57 C 27.54 106.97 27.53 108.37 27.53 109.77 C 26.47 114.36 27.67 118.95 27.38 123.55 C 26.74 123.44 25.45 123.23 24.81 123.12 C 21.29 127.20 18.37 131.98 17.19 137.28 C 15.67 137.66 14.15 138.07 12.61 138.37 C 15.42 137.41 17.20 134.80 18.26 132.17 C 19.79 128.36 22.20 125.00 24.72 121.79 C 22.78 119.06 21.64 115.71 22.34 112.36 C 22.01 111.62 21.70 110.87 21.40 110.12 C 22.20 110.37 22.99 110.64 23.78 110.91 C 24.29 109.96 24.78 109.00 25.27 108.04 C 25.44 107.51 25.78 106.43 25.94 105.90 C 25.99 105.55 26.07 104.85 26.11 104.50 C 26.16 104.00 26.28 102.98 26.34 102.48 C 26.99 99.51 27.88 96.56 29.43 93.92 C 30.87 92.61 32.40 91.40 34.02 90.33 Z" />
<path fill="#e8c7cc" opacity="1.00" d=" M 3.50 98.80 C 7.12 99.50 10.30 101.50 13.52 103.19 C 13.72 103.73 14.12 104.81 14.33 105.35 C 10.75 103.12 6.88 101.31 3.50 98.80 Z" />
</g>
<g id="#1b161f69">
<path fill="#1b161f" opacity="0.41" d=" M 79.00 87.67 C 80.44 90.33 80.29 93.54 79.09 96.26 C 79.17 93.40 79.13 90.53 79.00 87.67 Z" />
</g>
<g id="#c593c9ff">
<path fill="#c593c9" opacity="1.00" d=" M 52.91 89.43 C 53.60 89.62 54.29 89.83 54.98 90.05 C 56.13 90.68 57.24 91.37 58.44 91.91 C 57.29 92.49 56.14 93.07 54.99 93.66 C 50.22 95.53 45.15 96.28 40.14 97.17 C 35.11 98.11 31.52 102.03 27.75 105.15 C 29.13 100.43 31.13 95.48 35.42 92.67 C 40.61 89.18 47.26 91.55 52.91 89.43 Z" />
</g>
<g id="#fbebe7ff">
<path fill="#fbebe7" opacity="1.00" d=" M 54.98 90.05 C 56.34 89.79 57.70 89.74 59.07 89.91 C 60.74 90.18 59.36 91.77 58.44 91.91 C 57.24 91.37 56.13 90.68 54.98 90.05 Z" />
</g>
<g id="#a67abeff">
<path fill="#a67abe" opacity="1.00" d=" M 40.14 97.17 C 45.15 96.28 50.22 95.53 54.99 93.66 C 53.93 94.94 52.93 96.26 51.88 97.54 C 49.37 100.44 46.81 103.48 43.30 105.20 C 40.86 106.37 38.73 108.03 36.77 109.88 C 34.90 110.70 33.02 111.49 31.11 112.23 C 29.13 110.49 27.78 108.26 27.61 105.57 L 27.75 105.15 C 31.52 102.03 35.11 98.11 40.14 97.17 Z" />
</g>
<g id="#9570acff">
<path fill="#9570ac" opacity="1.00" d=" M 51.88 97.54 C 53.81 97.82 55.73 98.12 57.66 98.42 C 53.65 100.84 49.07 103.67 47.90 108.55 C 46.91 108.94 45.92 109.34 44.93 109.76 C 42.07 110.97 39.19 112.22 36.13 112.88 C 36.92 111.88 37.70 110.88 38.48 109.88 L 36.77 109.88 C 38.73 108.03 40.86 106.37 43.30 105.20 C 46.81 103.48 49.37 100.44 51.88 97.54 Z" />
</g>
<g id="#12090cff">
<path fill="#12090c" opacity="1.00" d=" M 57.66 98.42 C 58.06 98.47 58.86 98.57 59.26 98.62 C 59.20 102.01 59.33 105.41 59.22 108.80 C 55.47 108.32 51.67 108.27 47.90 108.55 C 49.07 103.67 53.65 100.84 57.66 98.42 M 53.75 101.86 C 53.71 102.98 53.64 105.22 53.61 106.33 C 53.41 105.10 53.19 103.87 52.97 102.64 C 52.68 103.05 52.11 103.85 51.82 104.25 C 51.48 104.52 50.81 105.05 50.48 105.31 C 50.05 105.88 49.18 107.01 48.75 107.58 C 50.89 107.63 53.02 107.68 55.16 107.68 C 56.00 107.71 57.69 107.79 58.54 107.82 C 58.95 104.93 59.10 101.98 58.42 99.12 C 56.84 99.99 55.27 100.89 53.75 101.86 Z" />
<path fill="#12090c" opacity="1.00" d=" M 39.72 116.79 C 39.96 114.76 41.61 113.68 43.24 112.81 C 43.50 113.27 44.03 114.21 44.29 114.68 C 44.74 115.92 45.18 117.15 45.64 118.39 C 43.69 118.43 41.75 118.48 39.80 118.54 C 39.78 118.10 39.74 117.22 39.72 116.79 Z" />
</g>
<g id="#d5d5d5ff">
<path fill="#d5d5d5" opacity="1.00" d=" M 53.75 101.86 C 55.27 100.89 56.84 99.99 58.42 99.12 C 59.10 101.98 58.95 104.93 58.54 107.82 C 57.69 107.79 56.00 107.71 55.16 107.68 C 54.95 105.68 54.62 103.69 53.75 101.86 Z" />
<path fill="#d5d5d5" opacity="1.00" d=" M 50.48 105.31 C 50.81 105.05 51.48 104.52 51.82 104.25 C 52.22 105.76 51.78 106.11 50.48 105.31 Z" />
</g>
<g id="#bda1a5ff">
<path fill="#bda1a5" opacity="1.00" d=" M 76.78 102.84 L 77.74 101.36 C 78.47 102.52 79.19 103.69 79.90 104.87 C 84.37 103.69 88.94 102.77 93.57 102.65 C 89.66 104.89 84.77 104.50 80.61 106.26 C 81.58 108.22 82.31 110.29 82.95 112.38 C 81.74 110.07 79.94 108.15 77.99 106.44 C 77.19 108.31 76.43 110.20 75.73 112.12 C 75.65 110.85 75.55 109.58 75.42 108.32 C 73.74 108.52 72.06 108.72 70.39 109.01 C 69.95 109.09 69.06 109.25 68.61 109.34 C 66.99 109.38 65.36 109.37 63.74 109.39 C 64.39 109.19 65.70 108.81 66.36 108.62 C 69.65 107.52 72.90 106.30 76.16 105.13 C 76.36 104.37 76.57 103.60 76.78 102.84 Z" />
<path fill="#bda1a5" opacity="1.00" d=" M 13.52 103.19 C 16.78 105.09 20.31 106.75 22.97 109.48 C 23.55 109.12 24.70 108.40 25.27 108.04 C 24.78 109.00 24.29 109.96 23.78 110.91 C 22.99 110.64 22.20 110.37 21.40 110.12 C 18.96 108.72 16.34 107.32 14.33 105.35 C 14.12 104.81 13.72 103.73 13.52 103.19 Z" />
</g>
<g id="#ac6b84ff">
<path fill="#ac6b84" opacity="1.00" d=" M 51.82 104.25 C 52.11 103.85 52.68 103.05 52.97 102.64 C 53.19 103.87 53.41 105.10 53.61 106.33 C 53.64 105.22 53.71 102.98 53.75 101.86 C 54.62 103.69 54.95 105.68 55.16 107.68 C 53.02 107.68 50.89 107.63 48.75 107.58 C 49.18 107.01 50.05 105.88 50.48 105.31 C 51.78 106.11 52.22 105.76 51.82 104.25 Z" />
<path fill="#ac6b84" opacity="1.00" d=" M 34.40 119.48 C 34.89 121.31 35.36 123.16 35.68 125.03 L 35.60 125.47 C 38.70 125.70 41.78 126.10 44.84 126.62 C 44.11 128.67 43.41 130.73 42.67 132.77 L 42.44 133.27 C 39.21 134.20 35.71 133.75 33.61 130.89 C 33.72 128.88 33.89 126.83 33.45 124.84 C 33.79 123.06 34.07 121.26 34.40 119.48 Z" />
</g>
<g id="#785789ff">
<path fill="#785789" opacity="1.00" d=" M 77.99 106.44 C 79.94 108.15 81.74 110.07 82.95 112.38 C 84.35 116.80 83.63 121.47 83.97 126.01 C 83.99 126.81 84.04 128.40 84.06 129.20 C 82.90 128.09 81.74 126.98 80.60 125.87 C 81.02 123.96 81.44 122.04 81.86 120.13 C 79.31 119.70 76.75 119.33 74.18 119.00 C 74.67 120.72 75.16 122.44 75.62 124.16 C 75.02 128.41 75.57 132.67 75.70 136.92 C 75.68 137.43 75.65 138.44 75.63 138.94 C 72.47 139.85 69.20 139.56 66.29 138.03 C 65.29 135.80 64.51 133.48 63.70 131.17 L 63.86 131.02 C 65.05 129.82 66.44 128.76 67.33 127.30 C 67.81 125.41 67.16 123.44 67.06 121.54 C 67.75 118.89 68.31 116.16 67.91 113.42 C 67.66 112.50 67.39 111.59 67.11 110.68 C 67.49 110.35 68.24 109.67 68.61 109.34 C 69.06 109.25 69.95 109.09 70.39 109.01 C 71.91 111.88 71.41 115.28 72.13 118.37 C 73.66 116.50 75.02 114.45 75.73 112.12 C 76.43 110.20 77.19 108.31 77.99 106.44 Z" />
</g>
<g id="#cfb3bbff">
<path fill="#cfb3bb" opacity="1.00" d=" M 44.93 109.76 C 45.92 109.34 46.91 108.94 47.90 108.55 C 51.67 108.27 55.47 108.32 59.22 108.80 C 59.94 108.96 61.39 109.27 62.11 109.43 C 61.30 109.88 60.49 110.35 59.69 110.83 C 59.94 111.51 60.44 112.89 60.69 113.57 C 60.78 115.45 61.08 117.47 60.27 119.23 C 58.21 122.17 53.43 122.88 50.88 120.18 C 48.17 117.19 46.79 113.29 44.93 109.76 Z" />
</g>
<g id="#826d73ff">
<path fill="#826d73" opacity="1.00" d=" M 62.11 109.43 C 62.52 109.42 63.33 109.40 63.74 109.39 C 65.36 109.37 66.99 109.38 68.61 109.34 C 68.24 109.67 67.49 110.35 67.11 110.68 C 66.03 111.38 64.90 112.00 63.74 112.54 C 62.98 112.80 61.45 113.32 60.69 113.57 C 60.44 112.89 59.94 111.51 59.69 110.83 C 60.49 110.35 61.30 109.88 62.11 109.43 Z" />
</g>
<g id="#9865a1ff">
<path fill="#9865a1" opacity="1.00" d=" M 70.39 109.01 C 72.06 108.72 73.74 108.52 75.42 108.32 C 75.55 109.58 75.65 110.85 75.73 112.12 C 75.02 114.45 73.66 116.50 72.13 118.37 C 71.41 115.28 71.91 111.88 70.39 109.01 Z" />
</g>
<g id="#ba9ea7ff">
<path fill="#ba9ea7" opacity="1.00" d=" M 27.53 109.77 C 28.04 110.68 28.59 111.58 29.13 112.48 C 31.46 112.62 33.79 112.80 36.13 112.88 C 39.19 112.22 42.07 110.97 44.93 109.76 C 46.79 113.29 48.17 117.19 50.88 120.18 C 53.43 122.88 58.21 122.17 60.27 119.23 C 61.08 117.47 60.78 115.45 60.69 113.57 C 61.45 113.32 62.98 112.80 63.74 112.54 C 63.62 115.59 64.10 119.24 61.51 121.46 C 58.81 123.81 55.01 125.57 51.39 124.62 C 48.36 121.83 47.47 117.41 44.29 114.68 C 44.03 114.21 43.50 113.27 43.24 112.81 C 41.61 113.68 39.96 114.76 39.72 116.79 C 39.26 118.24 38.84 119.70 38.44 121.16 C 38.34 119.61 38.18 118.06 38.02 116.51 C 34.94 116.15 31.88 115.72 28.83 115.18 C 29.87 117.90 30.80 120.65 31.55 123.47 C 31.99 126.00 32.48 128.56 33.61 130.89 C 35.71 133.75 39.21 134.20 42.44 133.27 C 42.95 133.70 43.97 134.56 44.48 134.98 C 40.36 135.41 36.18 135.24 32.28 133.78 C 32.59 133.36 33.20 132.52 33.51 132.10 C 32.65 130.24 31.80 128.37 30.84 126.55 C 29.74 125.49 28.58 124.50 27.38 123.55 C 27.67 118.95 26.47 114.36 27.53 109.77 Z" />
</g>
<g id="#a78998ff">
<path fill="#a78998" opacity="1.00" d=" M 63.74 112.54 C 64.90 112.00 66.03 111.38 67.11 110.68 C 67.39 111.59 67.66 112.50 67.91 113.42 C 66.62 117.00 64.85 120.37 62.87 123.61 L 64.03 123.17 C 62.87 123.88 61.72 124.62 60.57 125.35 C 60.91 125.89 61.59 126.98 61.93 127.53 C 58.99 128.50 55.85 128.42 52.83 128.96 C 49.80 130.55 47.11 132.76 44.75 135.22 L 44.48 134.98 C 43.97 134.56 42.95 133.70 42.44 133.27 L 42.67 132.77 C 45.53 129.89 48.91 125.91 46.87 121.60 C 46.56 120.79 45.95 119.19 45.64 118.39 C 45.18 117.15 44.74 115.92 44.29 114.68 C 47.47 117.41 48.36 121.83 51.39 124.62 C 55.01 125.57 58.81 123.81 61.51 121.46 C 64.10 119.24 63.62 115.59 63.74 112.54 Z" />
</g>
<g id="#caa7b1ff">
<path fill="#caa7b1" opacity="1.00" d=" M 62.87 123.61 C 64.85 120.37 66.62 117.00 67.91 113.42 C 68.31 116.16 67.75 118.89 67.06 121.54 C 66.05 122.08 65.04 122.63 64.03 123.17 L 62.87 123.61 Z" />
</g>
<g id="#c5b3cfff">
<path fill="#c5b3cf" opacity="1.00" d=" M 28.83 115.18 C 31.88 115.72 34.94 116.15 38.02 116.51 C 38.18 118.06 38.34 119.61 38.44 121.16 C 38.17 122.20 37.88 123.23 37.59 124.25 C 37.11 124.45 36.16 124.84 35.68 125.03 C 35.36 123.16 34.89 121.31 34.40 119.48 C 34.07 121.26 33.79 123.06 33.45 124.84 L 31.55 123.47 C 30.80 120.65 29.87 117.90 28.83 115.18 Z" />
</g>
<g id="#6e4454ff">
<path fill="#6e4454" opacity="1.00" d=" M 38.44 121.16 C 38.84 119.70 39.26 118.24 39.72 116.79 C 39.74 117.22 39.78 118.10 39.80 118.54 C 39.89 119.17 40.06 120.42 40.15 121.05 C 42.30 121.89 44.61 122.17 46.87 121.60 C 48.91 125.91 45.53 129.89 42.67 132.77 C 43.41 130.73 44.11 128.67 44.84 126.62 C 41.78 126.10 38.70 125.70 35.60 125.47 L 35.68 125.03 C 36.16 124.84 37.11 124.45 37.59 124.25 C 37.88 123.23 38.17 122.20 38.44 121.16 Z" />
</g>
<g id="#432a2fff">
<path fill="#432a2f" opacity="1.00" d=" M 39.80 118.54 C 41.75 118.48 43.69 118.43 45.64 118.39 C 45.95 119.19 46.56 120.79 46.87 121.60 C 44.61 122.17 42.30 121.89 40.15 121.05 C 40.06 120.42 39.89 119.17 39.80 118.54 Z" />
</g>
<g id="#664775ff">
<path fill="#664775" opacity="1.00" d=" M 74.18 119.00 C 76.75 119.33 79.31 119.70 81.86 120.13 C 81.44 122.04 81.02 123.96 80.60 125.87 C 81.74 126.98 82.90 128.09 84.06 129.20 C 84.04 128.40 83.99 126.81 83.97 126.01 C 84.35 127.49 84.68 128.99 85.00 130.50 C 82.65 131.02 80.30 131.54 77.95 132.05 C 77.16 129.43 76.45 126.78 75.62 124.16 C 75.16 122.44 74.67 120.72 74.18 119.00 Z" />
</g>
<g id="#62486eff">
<path fill="#62486e" opacity="1.00" d=" M 64.03 123.17 C 65.04 122.63 66.05 122.08 67.06 121.54 C 67.16 123.44 67.81 125.41 67.33 127.30 C 66.44 128.76 65.05 129.82 63.86 131.02 C 63.23 129.85 62.62 128.66 61.93 127.53 C 61.59 126.98 60.91 125.89 60.57 125.35 C 61.72 124.62 62.87 123.88 64.03 123.17 Z" />
</g>
<g id="#725583ff">
<path fill="#725583" opacity="1.00" d=" M 24.81 123.12 C 25.45 123.23 26.74 123.44 27.38 123.55 C 28.58 124.50 29.74 125.49 30.84 126.55 C 28.20 130.05 25.51 133.52 22.73 136.92 C 20.88 136.86 19.02 137.00 17.19 137.28 C 18.37 131.98 21.29 127.20 24.81 123.12 Z" />
</g>
<g id="#704c51ff">
<path fill="#704c51" opacity="1.00" d=" M 31.55 123.47 L 33.45 124.84 C 33.89 126.83 33.72 128.88 33.61 130.89 C 32.48 128.56 31.99 126.00 31.55 123.47 Z" />
</g>
<g id="#98729dff">
<path fill="#98729d" opacity="1.00" d=" M 75.70 136.92 C 75.57 132.67 75.02 128.41 75.62 124.16 C 76.45 126.78 77.16 129.43 77.95 132.05 C 78.21 132.54 78.73 133.53 78.99 134.02 C 78.70 134.45 78.12 135.31 77.83 135.75 C 77.52 136.41 76.91 137.73 76.60 138.40 L 75.70 136.92 Z" />
</g>
<g id="#5a4169ff">
<path fill="#5a4169" opacity="1.00" d=" M 22.73 136.92 C 25.51 133.52 28.20 130.05 30.84 126.55 C 31.80 128.37 32.65 130.24 33.51 132.10 C 33.20 132.52 32.59 133.36 32.28 133.78 C 36.18 135.24 40.36 135.41 44.48 134.98 C 40.21 135.49 35.32 136.92 31.40 134.57 C 29.61 135.82 27.90 137.19 26.22 138.57 C 25.06 138.00 23.90 137.45 22.73 136.92 Z" />
</g>
<g id="#947b7bff">
<path fill="#947b7b" opacity="1.00" d=" M 77.95 132.05 C 80.30 131.54 82.65 131.02 85.00 130.50 C 86.13 132.17 87.21 133.88 88.03 135.72 C 87.51 136.03 86.46 136.65 85.94 136.96 C 84.03 135.83 81.84 136.03 80.19 137.55 L 80.15 136.70 C 80.07 135.69 79.69 134.80 78.99 134.02 C 78.73 133.53 78.21 132.54 77.95 132.05 Z" />
</g>
<g id="#ad9386ee">
<path fill="#ad9386" opacity="0.93" d=" M 78.99 134.02 C 79.69 134.80 80.07 135.69 80.15 136.70 C 79.57 136.46 78.41 135.98 77.83 135.75 C 78.12 135.31 78.70 134.45 78.99 134.02 Z" />
</g>
<g id="#9b8586ff">
<path fill="#9b8586" opacity="1.00" d=" M 17.19 137.28 C 19.02 137.00 20.88 136.86 22.73 136.92 C 23.90 137.45 25.06 138.00 26.22 138.57 C 24.18 141.47 20.82 142.38 17.42 142.27 C 15.95 141.36 14.23 141.57 12.60 141.73 C 11.74 141.55 10.03 141.19 9.17 141.01 C 9.92 139.66 10.93 138.35 12.61 138.37 C 14.15 138.07 15.67 137.66 17.19 137.28 Z" />
</g>
<g id="#a38b81ff">
<path fill="#a38b81" opacity="1.00" d=" M 66.29 138.03 C 69.20 139.56 72.47 139.85 75.63 138.94 C 75.61 140.29 75.65 141.63 75.70 142.98 C 74.50 142.27 73.29 141.56 72.09 140.86 C 71.19 141.64 70.29 142.42 69.38 143.20 C 70.21 143.65 71.03 144.11 71.85 144.58 C 70.28 144.69 68.70 144.69 67.12 144.80 C 66.69 144.48 65.83 143.84 65.39 143.52 C 65.91 141.72 67.14 139.93 66.29 138.03 Z" />
</g>
<g id="#bc9f97fb">
<path fill="#bc9f97" opacity="1.00" d=" M 75.63 138.94 C 75.65 138.44 75.68 137.43 75.70 136.92 L 76.60 138.40 C 77.70 140.14 78.58 142.04 78.92 144.09 C 76.70 143.78 74.39 143.89 72.33 144.85 L 71.85 144.58 C 71.03 144.11 70.21 143.65 69.38 143.20 C 70.29 142.42 71.19 141.64 72.09 140.86 C 73.29 141.56 74.50 142.27 75.70 142.98 C 75.65 141.63 75.61 140.29 75.63 138.94 Z" />
</g>
<g id="#332c2c7f">
<path fill="#332c2c" opacity="0.50" d=" M 72.33 144.85 C 74.39 143.89 76.70 143.78 78.92 144.09 C 77.66 145.85 74.29 145.32 72.33 144.85 Z" />
</g>
</svg>
