<?xml version="1.0" encoding="UTF-8" ?>
<!DOCTYPE svg PUBLIC "-//W3C//DTD SVG 1.1//EN" "http://www.w3.org/Graphics/SVG/1.1/DTD/svg11.dtd">
<svg width="139pt" height="151pt" viewBox="0 0 139 151" version="1.1" xmlns="http://www.w3.org/2000/svg">
<g id="#dda53ef9">
<path fill="#dda53e" opacity="0.98" d=" M 21.07 4.13 C 26.31 0.57 32.30 7.41 36.85 9.21 L 36.96 9.96 C 36.77 11.86 36.33 14.23 33.91 14.28 C 31.12 12.34 28.70 7.18 24.68 8.62 C 22.95 8.44 22.29 5.47 21.07 4.13 Z" />
</g>
<g id="#f4cc48f9">
<path fill="#f4cc48" opacity="0.98" d=" M 69.66 7.38 C 72.91 10.52 74.13 0.71 76.43 5.57 C 78.55 5.82 79.57 7.49 80.38 9.28 C 79.49 13.25 75.88 10.87 73.11 11.00 C 68.35 11.46 63.70 12.71 58.91 12.85 L 58.95 12.07 C 58.62 9.61 62.01 9.57 62.37 7.23 C 63.60 7.32 65.14 8.16 65.41 6.34 C 66.14 3.64 68.17 7.03 69.66 7.38 Z" />
</g>
<g id="#edb042fc">
<path fill="#edb042" opacity="1.00" d=" M 80.38 9.28 C 81.34 7.98 82.53 6.86 83.82 5.89 C 83.55 8.51 84.42 9.54 86.80 8.28 C 86.78 11.35 89.49 8.34 91.00 8.02 C 91.05 9.33 91.03 10.65 90.96 11.97 C 84.61 12.07 78.36 12.78 72.19 14.26 C 72.50 13.17 72.81 12.09 73.11 11.00 C 75.88 10.87 79.49 13.25 80.38 9.28 Z" />
</g>
<g id="#c38a34fa">
<path fill="#c38a34" opacity="0.98" d=" M 104.23 16.96 C 111.91 10.00 122.04 7.31 132.03 6.01 C 132.10 8.15 131.31 11.01 129.25 11.93 C 128.88 10.99 128.44 10.09 127.92 9.23 C 123.21 10.14 118.61 11.82 114.76 14.75 C 114.29 15.00 113.35 15.49 112.88 15.74 C 110.66 16.71 108.98 18.49 107.15 20.02 C 102.59 20.75 99.97 24.83 96.77 27.73 C 96.46 27.61 95.85 27.36 95.55 27.23 C 97.43 23.99 99.83 21.11 101.98 18.05 C 100.57 16.57 98.65 17.10 97.07 17.95 C 93.15 16.09 87.03 20.91 89.96 25.00 C 91.59 30.11 91.52 36.32 89.23 41.18 C 87.89 43.34 87.85 39.79 87.23 38.86 C 87.00 37.42 88.58 34.81 86.20 34.77 C 86.84 31.41 87.18 27.99 86.66 24.60 C 84.46 19.72 88.81 16.40 92.15 13.99 C 94.13 13.90 96.19 13.94 97.90 15.09 C 99.82 16.80 104.27 12.84 104.23 16.96 Z" />
</g>
<g id="#c79f6cfe">
<path fill="#c79f6c" opacity="1.00" d=" M 24.68 8.62 C 28.70 7.18 31.12 12.34 33.91 14.28 L 34.32 14.82 C 33.38 19.71 34.63 24.41 35.81 29.09 C 36.47 30.71 34.83 31.53 33.86 32.45 C 32.36 30.06 31.26 27.45 30.31 24.81 L 30.13 24.03 C 30.33 20.66 29.08 17.56 27.35 14.74 C 26.36 12.75 25.17 10.82 24.68 8.62 Z" />
</g>
<g id="#a6712ffa">
<path fill="#a6712f" opacity="0.98" d=" M 114.76 14.75 C 118.61 11.82 123.21 10.14 127.92 9.23 C 128.44 10.09 128.88 10.99 129.25 11.93 C 128.88 13.54 127.69 15.07 128.13 16.79 C 129.31 17.88 131.66 20.08 132.84 21.17 C 131.36 24.34 126.78 26.73 128.31 30.71 C 127.95 32.54 130.84 39.17 127.32 39.64 C 125.21 38.79 123.03 39.76 120.92 40.05 L 121.37 39.34 C 127.04 31.22 126.60 20.49 125.89 11.00 C 122.09 11.96 118.53 13.68 114.76 14.75 Z" />
</g>
<g id="#c98e35fd">
<path fill="#c98e35" opacity="1.00" d=" M 36.96 9.96 C 38.87 11.68 42.30 12.89 42.58 15.67 C 41.77 18.24 42.59 21.39 44.71 23.09 C 45.00 22.01 45.29 20.92 45.58 19.84 C 46.55 21.02 47.06 22.79 48.77 23.08 C 44.61 24.24 48.13 31.05 42.85 30.36 C 40.95 24.72 38.28 19.32 34.32 14.82 L 33.91 14.28 C 36.33 14.23 36.77 11.86 36.96 9.96 Z" />
</g>
<g id="#d9bb40ea">
<path fill="#d9bb40" opacity="0.92" d=" M 55.98 12.02 C 55.99 10.19 58.04 12.16 58.95 12.07 L 58.91 12.85 C 55.65 14.45 52.61 16.48 50.19 19.20 C 50.01 17.66 49.61 15.70 51.78 15.69 C 51.93 14.47 52.05 13.25 52.16 12.03 C 53.34 11.84 55.82 13.98 55.98 12.02 Z" />
</g>
<g id="#fbc245fe">
<path fill="#fbc245" opacity="1.00" d=" M 58.91 12.85 C 63.70 12.71 68.35 11.46 73.11 11.00 C 72.81 12.09 72.50 13.17 72.19 14.26 C 70.20 14.03 68.22 13.69 66.23 13.47 C 64.63 16.09 62.11 17.46 59.20 18.26 C 55.25 23.03 50.37 27.46 47.41 32.85 C 48.02 37.40 46.32 41.33 44.30 45.17 C 44.03 44.57 43.49 43.38 43.22 42.78 C 43.03 40.79 42.92 38.79 42.83 36.79 C 42.84 35.18 42.85 31.96 42.85 30.36 C 48.13 31.05 44.61 24.24 48.77 23.08 C 49.24 21.78 49.69 20.49 50.19 19.20 C 52.61 16.48 55.65 14.45 58.91 12.85 Z" />
</g>
<g id="#bb8430e5">
<path fill="#bb8430" opacity="0.90" d=" M 95.12 12.38 C 96.67 12.19 98.11 10.80 99.66 11.21 C 99.72 12.13 99.25 13.72 98.20 13.93 C 97.22 13.32 96.16 12.87 95.12 12.38 Z" />
</g>
<g id="#a07a56ff">
<path fill="#a07a56" opacity="1.00" d=" M 114.76 14.75 C 118.53 13.68 122.09 11.96 125.89 11.00 C 126.60 20.49 127.04 31.22 121.37 39.34 C 119.37 38.80 116.50 39.79 115.25 37.71 C 113.70 32.55 114.71 26.84 111.99 21.99 C 110.46 19.90 112.42 17.83 112.88 15.74 C 113.35 15.49 114.29 15.00 114.76 14.75 Z" />
</g>
<g id="#dda441ff">
<path fill="#dda441" opacity="1.00" d=" M 72.19 14.26 C 78.36 12.78 84.61 12.07 90.96 11.97 C 92.38 11.86 93.77 11.99 95.12 12.38 C 96.16 12.87 97.22 13.32 98.20 13.93 L 97.90 15.09 C 96.19 13.94 94.13 13.90 92.15 13.99 C 87.05 14.10 79.68 13.42 76.94 18.97 C 74.20 21.95 79.25 23.93 80.62 26.19 C 80.25 29.88 79.01 33.75 75.33 35.39 C 68.24 39.23 65.33 47.33 58.98 52.00 C 59.52 52.05 60.62 52.16 61.17 52.22 C 58.15 52.93 55.12 52.88 52.22 51.88 C 51.67 48.10 50.88 44.32 49.09 40.91 C 49.02 39.57 49.01 38.23 49.06 36.88 C 51.24 37.55 53.29 39.83 55.71 38.74 C 60.56 35.18 64.88 30.53 67.65 25.22 C 65.94 22.79 64.30 20.23 66.30 17.40 C 68.65 17.12 70.71 16.15 72.19 14.26 Z" />
</g>
<g id="#eaaf44ff">
<path fill="#eaaf44" opacity="1.00" d=" M 66.23 13.47 C 68.22 13.69 70.20 14.03 72.19 14.26 C 70.71 16.15 68.65 17.12 66.30 17.40 C 64.30 20.23 65.94 22.79 67.65 25.22 C 64.88 30.53 60.56 35.18 55.71 38.74 C 53.29 39.83 51.24 37.55 49.06 36.88 C 49.01 38.23 49.02 39.57 49.09 40.91 C 48.43 38.26 48.89 35.31 47.41 32.85 C 50.37 27.46 55.25 23.03 59.20 18.26 C 62.11 17.46 64.63 16.09 66.23 13.47 Z" />
</g>
<g id="#d19a3dff">
<path fill="#d19a3d" opacity="1.00" d=" M 76.94 18.97 C 79.68 13.42 87.05 14.10 92.15 13.99 C 88.81 16.40 84.46 19.72 86.66 24.60 C 87.18 27.99 86.84 31.41 86.20 34.77 C 83.96 36.31 81.65 37.80 79.76 39.77 C 78.68 40.76 77.64 41.79 76.63 42.85 C 75.09 44.32 73.92 46.12 72.85 47.94 C 69.74 47.51 68.67 50.82 68.06 53.24 C 65.81 54.43 63.76 51.05 61.17 52.22 C 60.62 52.16 59.52 52.05 58.98 52.00 C 65.33 47.33 68.24 39.23 75.33 35.39 C 79.01 33.75 80.25 29.88 80.62 26.19 C 79.25 23.93 74.20 21.95 76.94 18.97 Z" />
</g>
<g id="#dba242f5">
<path fill="#dba242" opacity="0.96" d=" M 27.35 14.74 C 29.08 17.56 30.33 20.66 30.13 24.03 C 26.56 22.45 23.50 17.88 27.35 14.74 Z" />
</g>
<g id="#bd9564ff">
<path fill="#bd9564" opacity="1.00" d=" M 34.32 14.82 C 38.28 19.32 40.95 24.72 42.85 30.36 C 42.85 31.96 42.84 35.18 42.83 36.79 C 42.15 38.15 42.21 40.64 40.02 39.95 C 36.85 39.16 35.84 34.72 33.86 32.45 C 34.83 31.53 36.47 30.71 35.81 29.09 C 34.63 24.41 33.38 19.71 34.32 14.82 Z" />
</g>
<g id="#b3782cf9">
<path fill="#b3782c" opacity="0.98" d=" M 44.71 23.09 C 42.59 21.39 41.77 18.24 42.58 15.67 C 44.24 16.19 45.69 18.12 45.58 19.84 C 45.29 20.92 45.00 22.01 44.71 23.09 Z" />
</g>
<g id="#97704cff">
<path fill="#97704c" opacity="1.00" d=" M 107.15 20.02 C 108.98 18.49 110.66 16.71 112.88 15.74 C 112.42 17.83 110.46 19.90 111.99 21.99 C 114.71 26.84 113.70 32.55 115.25 37.71 C 116.50 39.79 119.37 38.80 121.37 39.34 L 120.92 40.05 C 115.87 43.50 109.41 43.74 103.75 41.70 C 102.42 38.15 100.84 34.70 99.44 31.18 C 100.03 29.01 101.17 27.07 102.15 25.06 C 104.00 23.57 105.64 21.85 107.15 20.02 Z" />
</g>
<g id="#b57d2fff">
<path fill="#b57d2f" opacity="1.00" d=" M 89.96 25.00 C 87.03 20.91 93.15 16.09 97.07 17.95 C 94.59 20.28 90.11 25.62 95.55 27.23 C 95.85 27.36 96.46 27.61 96.77 27.73 C 99.97 24.83 102.59 20.75 107.15 20.02 C 105.64 21.85 104.00 23.57 102.15 25.06 C 95.84 27.75 96.98 35.30 96.87 40.91 C 93.71 45.22 89.79 48.94 86.63 53.27 L 85.81 53.27 C 85.51 52.99 84.92 52.44 84.62 52.16 C 83.87 48.89 88.51 43.55 82.96 43.38 C 84.57 42.50 87.45 42.41 87.08 39.92 L 87.23 38.86 C 87.85 39.79 87.89 43.34 89.23 41.18 C 91.52 36.32 91.59 30.11 89.96 25.00 Z" />
</g>
<g id="#ad7128ff">
<path fill="#ad7128" opacity="1.00" d=" M 97.07 17.95 C 98.65 17.10 100.57 16.57 101.98 18.05 C 99.83 21.11 97.43 23.99 95.55 27.23 C 90.11 25.62 94.59 20.28 97.07 17.95 Z" />
</g>
<g id="#d4993afa">
<path fill="#d4993a" opacity="0.98" d=" M 30.31 24.81 C 31.26 27.45 32.36 30.06 33.86 32.45 C 35.84 34.72 36.85 39.16 40.02 39.95 C 42.21 40.64 42.15 38.15 42.83 36.79 C 42.92 38.79 43.03 40.79 43.22 42.78 C 33.88 44.21 27.05 33.18 30.31 24.81 Z" />
</g>
<g id="#a9732dff">
<path fill="#a9732d" opacity="1.00" d=" M 96.87 40.91 C 96.98 35.30 95.84 27.75 102.15 25.06 C 101.17 27.07 100.03 29.01 99.44 31.18 C 100.84 34.70 102.42 38.15 103.75 41.70 C 103.20 43.52 103.41 45.43 103.33 47.30 C 98.47 49.12 93.31 50.31 88.93 53.21 C 88.16 53.26 87.40 53.28 86.63 53.27 C 89.79 48.94 93.71 45.22 96.87 40.91 Z" />
</g>
<g id="#d2993dff">
<path fill="#d2993d" opacity="1.00" d=" M 47.41 32.85 C 48.89 35.31 48.43 38.26 49.09 40.91 C 50.88 44.32 51.67 48.10 52.22 51.88 C 50.80 51.42 50.09 49.95 48.95 49.08 C 47.54 49.54 46.17 50.09 44.85 50.77 L 44.11 51.13 C 44.03 49.15 43.72 47.09 44.30 45.17 C 46.32 41.33 48.02 37.40 47.41 32.85 Z" />
</g>
<g id="#755a30ff">
<path fill="#755a30" opacity="1.00" d=" M 79.76 39.77 C 81.65 37.80 83.96 36.31 86.20 34.77 C 88.58 34.81 87.00 37.42 87.23 38.86 L 87.08 39.92 C 85.46 36.98 82.72 38.41 80.68 40.04 L 79.76 39.77 Z" />
</g>
<g id="#d4b887f0">
<path fill="#d4b887" opacity="0.94" d=" M 14.92 37.95 C 24.68 41.25 34.81 44.66 42.89 51.29 L 43.12 52.16 C 42.76 53.47 42.39 54.77 42.08 56.09 C 41.81 56.34 41.27 56.84 41.00 57.10 C 36.67 55.31 31.13 54.05 27.93 50.93 C 31.40 51.16 34.60 52.85 38.09 53.05 C 31.93 46.38 21.08 44.70 14.92 37.95 Z" />
</g>
<g id="#e9e8e7ff">
<path fill="#e9e8e7" opacity="1.00" d=" M 80.68 40.04 C 82.72 38.41 85.46 36.98 87.08 39.92 C 87.45 42.41 84.57 42.50 82.96 43.38 L 82.27 43.21 C 81.72 42.16 81.19 41.10 80.68 40.04 Z" />
</g>
<g id="#9c6528fe">
<path fill="#9c6528" opacity="1.00" d=" M 120.92 40.05 C 123.03 39.76 125.21 38.79 127.32 39.64 C 127.18 40.25 126.89 41.47 126.75 42.08 C 118.98 43.99 111.12 45.49 103.33 47.30 C 103.41 45.43 103.20 43.52 103.75 41.70 C 109.41 43.74 115.87 43.50 120.92 40.05 Z" />
</g>
<g id="#3a2c1cff">
<path fill="#3a2c1c" opacity="1.00" d=" M 76.63 42.85 C 77.64 41.79 78.68 40.76 79.76 39.77 L 80.68 40.04 C 81.19 41.10 81.72 42.16 82.27 43.21 C 81.49 45.00 79.43 45.42 77.95 46.44 C 77.45 45.26 77.01 44.07 76.63 42.85 Z" />
</g>
<g id="#d7b889fe">
<path fill="#d7b889" opacity="1.00" d=" M 103.33 47.30 C 111.12 45.49 118.98 43.99 126.75 42.08 C 128.09 42.50 130.00 43.82 127.79 44.66 C 125.92 45.49 124.02 46.37 122.70 48.00 C 121.02 45.68 118.39 45.96 116.02 46.98 C 115.45 47.14 114.29 47.48 113.71 47.65 C 108.70 48.47 104.05 50.67 99.21 52.11 C 95.54 52.42 92.37 54.44 89.06 55.87 C 89.03 55.21 88.96 53.88 88.93 53.21 C 93.31 50.31 98.47 49.12 103.33 47.30 Z" />
</g>
<g id="#84653cff">
<path fill="#84653c" opacity="1.00" d=" M 72.85 47.94 C 73.92 46.12 75.09 44.32 76.63 42.85 C 77.01 44.07 77.45 45.26 77.95 46.44 C 76.43 47.47 74.67 47.92 72.85 47.94 Z" />
</g>
<g id="#c08b3aff">
<path fill="#c08b3a" opacity="1.00" d=" M 82.27 43.21 L 82.96 43.38 C 88.51 43.55 83.87 48.89 84.62 52.16 C 84.23 52.08 83.44 51.91 83.05 51.83 C 81.12 51.29 79.15 50.95 77.19 50.58 C 73.93 49.28 71.07 52.44 68.06 53.24 C 68.67 50.82 69.74 47.51 72.85 47.94 C 74.67 47.92 76.43 47.47 77.95 46.44 C 79.43 45.42 81.49 45.00 82.27 43.21 Z" />
</g>
<g id="#a5814bfb">
<path fill="#a5814b" opacity="1.00" d=" M 122.70 48.00 C 124.02 46.37 125.92 45.49 127.79 44.66 C 128.05 44.99 128.58 45.66 128.84 45.99 C 126.88 46.85 124.92 47.73 123.08 48.84 L 122.70 48.00 Z" />
</g>
<g id="#06050312">
<path fill="#060503" opacity="0.07" d=" M 116.02 46.98 C 118.39 45.96 121.02 45.68 122.70 48.00 L 123.08 48.84 C 123.95 50.82 124.84 52.82 125.04 55.00 C 125.18 56.05 125.37 57.10 125.61 58.14 C 125.75 58.80 126.03 60.13 126.17 60.79 C 126.13 64.26 126.06 67.74 126.18 71.22 C 126.02 71.99 125.71 73.54 125.56 74.32 C 119.89 66.19 119.77 55.88 116.02 46.98 Z" />
</g>
<g id="#e7c894fb">
<path fill="#e7c894" opacity="1.00" d=" M 123.08 48.84 C 124.92 47.73 126.88 46.85 128.84 45.99 C 130.71 47.81 131.58 50.32 131.92 52.85 C 129.44 52.87 127.14 53.73 125.04 55.00 C 124.84 52.82 123.95 50.82 123.08 48.84 Z" />
</g>
<g id="#b88232f9">
<path fill="#b88232" opacity="0.98" d=" M 113.71 47.65 C 114.29 47.48 115.45 47.14 116.02 46.98 C 119.77 55.88 119.89 66.19 125.56 74.32 L 125.48 75.15 C 125.28 77.77 126.39 80.29 127.13 82.75 C 127.06 87.53 127.03 92.31 127.01 97.09 C 126.26 101.50 125.95 106.46 123.51 110.21 C 122.97 107.86 123.95 105.59 124.26 103.29 C 126.75 90.44 121.57 77.96 118.23 65.80 C 118.07 64.60 117.38 63.97 116.16 63.92 C 117.52 60.65 115.71 57.15 114.59 54.01 L 114.43 53.19 C 114.25 51.33 113.95 49.49 113.71 47.65 Z" />
</g>
<g id="#aa7230ff">
<path fill="#aa7230" opacity="1.00" d=" M 99.21 52.11 C 104.05 50.67 108.70 48.47 113.71 47.65 C 113.95 49.49 114.25 51.33 114.43 53.19 C 107.22 54.03 100.08 55.53 92.82 55.91 C 94.87 54.51 97.08 53.39 99.21 52.11 Z" />
</g>
<g id="#ebd3a4ff">
<path fill="#ebd3a4" opacity="1.00" d=" M 44.85 50.77 C 46.17 50.09 47.54 49.54 48.95 49.08 C 50.09 49.95 50.80 51.42 52.22 51.88 C 55.12 52.88 58.15 52.93 61.17 52.22 C 63.76 51.05 65.81 54.43 68.06 53.24 C 71.07 52.44 73.93 49.28 77.19 50.58 C 77.81 53.78 80.18 56.75 79.30 60.11 C 78.70 62.95 81.14 65.28 81.05 68.11 C 76.94 64.50 73.13 60.54 68.72 57.27 C 65.61 57.40 62.62 58.65 59.76 59.82 C 57.85 59.84 55.95 59.67 54.05 59.72 C 52.96 58.57 51.54 56.98 51.71 59.74 C 50.91 63.74 50.91 67.82 51.12 71.88 C 49.27 70.64 50.51 63.56 47.01 65.92 C 46.56 64.24 46.05 62.58 45.64 60.90 C 45.38 59.66 45.13 58.41 44.91 57.16 C 44.93 55.03 44.91 52.90 44.85 50.77 Z" />
</g>
<g id="#c79f6bff">
<path fill="#c79f6b" opacity="1.00" d=" M 44.11 51.13 L 44.85 50.77 C 44.91 52.90 44.93 55.03 44.91 57.16 C 43.97 56.81 43.02 56.45 42.08 56.09 C 42.39 54.77 42.76 53.47 43.12 52.16 C 43.37 51.91 43.86 51.39 44.11 51.13 Z" />
</g>
<g id="#dcc299ff">
<path fill="#dcc299" opacity="1.00" d=" M 77.19 50.58 C 79.15 50.95 81.12 51.29 83.05 51.83 C 81.30 59.80 85.15 67.11 89.88 73.15 C 89.16 78.55 90.36 84.01 92.08 89.15 C 91.63 90.06 91.17 90.97 90.71 91.87 C 89.05 90.62 87.59 89.12 85.90 87.92 C 86.33 91.11 88.63 93.37 90.99 95.32 C 90.00 98.36 91.22 101.62 90.72 104.73 C 86.91 111.90 79.08 115.38 71.67 117.64 C 63.02 118.61 54.49 111.93 45.85 114.81 L 44.91 115.02 L 45.24 114.13 C 46.11 111.71 48.87 111.76 51.00 111.29 C 58.39 112.34 67.04 116.52 74.00 112.00 C 76.44 110.51 79.32 109.06 79.99 106.00 C 79.01 103.01 74.50 100.00 78.15 97.16 C 77.34 97.06 75.73 96.86 74.93 96.76 C 75.74 94.87 76.16 92.82 75.44 90.83 C 75.85 89.59 75.70 87.24 77.65 88.27 C 78.75 90.30 79.74 92.38 80.92 94.36 C 80.01 95.51 80.23 96.44 81.69 96.85 C 83.05 94.75 84.84 92.40 83.53 89.81 C 83.31 85.60 79.32 84.55 75.97 85.98 C 78.43 82.36 79.39 78.17 78.93 73.79 C 78.91 69.96 75.36 67.23 73.39 64.15 C 72.14 62.57 70.73 61.13 69.20 59.83 C 68.91 59.59 68.33 59.11 68.04 58.87 L 67.04 58.97 C 66.49 59.18 65.39 59.59 64.84 59.80 C 63.15 59.88 61.45 59.86 59.76 59.82 C 62.62 58.65 65.61 57.40 68.72 57.27 C 73.13 60.54 76.94 64.50 81.05 68.11 C 81.14 65.28 78.70 62.95 79.30 60.11 C 80.18 56.75 77.81 53.78 77.19 50.58 Z" />
</g>
<g id="#d2b58cff">
<path fill="#d2b58c" opacity="1.00" d=" M 83.05 51.83 C 83.44 51.91 84.23 52.08 84.62 52.16 C 84.92 52.44 85.51 52.99 85.81 53.27 C 85.86 55.55 86.19 57.78 86.81 59.96 C 87.25 61.48 87.63 63.06 88.64 64.33 C 90.79 66.89 92.04 71.41 96.04 71.14 C 96.35 73.52 95.13 75.61 94.27 77.72 C 95.49 78.09 96.80 78.25 97.93 78.89 C 93.95 79.12 95.99 85.17 94.81 87.88 C 94.37 88.20 93.50 88.84 93.07 89.16 L 92.08 89.15 C 90.36 84.01 89.16 78.55 89.88 73.15 C 85.15 67.11 81.30 59.80 83.05 51.83 Z" />
</g>
<g id="#c19c6fff">
<path fill="#c19c6f" opacity="1.00" d=" M 89.06 55.87 C 92.37 54.44 95.54 52.42 99.21 52.11 C 97.08 53.39 94.87 54.51 92.82 55.91 C 100.08 55.53 107.22 54.03 114.43 53.19 L 114.59 54.01 C 107.97 56.76 100.57 57.01 93.77 59.25 C 91.50 59.50 86.75 56.46 86.81 59.96 C 86.19 57.78 85.86 55.55 85.81 53.27 L 86.63 53.27 C 87.40 53.28 88.16 53.26 88.93 53.21 C 88.96 53.88 89.03 55.21 89.06 55.87 Z" />
</g>
<g id="#9d7d50ec">
<path fill="#9d7d50" opacity="0.93" d=" M 125.04 55.00 C 127.14 53.73 129.44 52.87 131.92 52.85 C 132.54 53.76 132.95 54.76 133.15 55.85 C 130.00 55.01 126.09 53.90 125.61 58.14 C 125.37 57.10 125.18 56.05 125.04 55.00 Z" />
</g>
<g id="#aa712dff">
<path fill="#aa712d" opacity="1.00" d=" M 114.59 54.01 C 115.71 57.15 117.52 60.65 116.16 63.92 C 110.09 63.20 104.21 61.50 98.17 60.64 C 96.70 60.18 95.22 59.74 93.77 59.25 C 100.57 57.01 107.97 56.76 114.59 54.01 Z" />
</g>
<g id="#f0d39cfe">
<path fill="#f0d39c" opacity="1.00" d=" M 125.61 58.14 C 126.09 53.90 130.00 55.01 133.15 55.85 C 133.18 56.45 133.24 57.64 133.27 58.23 C 131.33 58.91 129.13 59.13 127.68 60.75 C 129.25 60.82 132.39 60.96 133.96 61.03 C 133.98 61.78 134.02 63.27 134.04 64.02 C 133.91 68.02 133.68 72.02 132.90 75.95 C 130.41 75.96 127.91 75.71 125.48 75.15 L 125.56 74.32 C 125.71 73.54 126.02 71.99 126.18 71.22 C 127.17 67.74 127.17 64.26 126.17 60.79 C 126.03 60.13 125.75 58.80 125.61 58.14 Z" />
</g>
<g id="#a28048e8">
<path fill="#a28048" opacity="0.91" d=" M 42.08 56.09 C 43.02 56.45 43.97 56.81 44.91 57.16 C 45.13 58.41 45.38 59.66 45.64 60.90 C 45.21 62.01 44.80 63.12 44.37 64.23 C 44.27 63.69 44.06 62.60 43.96 62.06 C 43.60 61.08 42.72 60.64 41.31 60.76 C 40.87 59.74 40.11 59.07 39.04 58.77 C 39.69 58.21 40.34 57.65 41.00 57.10 C 41.27 56.84 41.81 56.34 42.08 56.09 Z" />
</g>
<g id="#7a4b45ff">
<path fill="#7a4b45" opacity="1.00" d=" M 51.71 59.74 C 51.54 56.98 52.96 58.57 54.05 59.72 C 54.64 63.44 56.25 66.86 58.13 70.08 C 58.65 71.60 58.99 73.16 59.33 74.73 C 59.15 76.79 59.01 78.84 58.91 80.90 L 57.94 81.03 C 54.00 74.49 50.25 67.83 51.71 59.74 Z" />
</g>
<g id="#a6794dff">
<path fill="#a6794d" opacity="1.00" d=" M 86.81 59.96 C 86.75 56.46 91.50 59.50 93.77 59.25 C 95.22 59.74 96.70 60.18 98.17 60.64 C 93.27 61.04 99.16 63.71 101.21 63.69 C 98.69 63.67 96.17 63.45 93.66 63.75 C 91.99 63.93 90.31 64.13 88.64 64.33 C 87.63 63.06 87.25 61.48 86.81 59.96 Z" />
</g>
<g id="#af8c59fa">
<path fill="#af8c59" opacity="0.98" d=" M 133.27 58.23 C 134.18 58.33 134.41 59.26 133.96 61.03 C 132.39 60.96 129.25 60.82 127.68 60.75 C 129.13 59.13 131.33 58.91 133.27 58.23 Z" />
</g>
<g id="#dec089f8">
<path fill="#dec089" opacity="0.97" d=" M 29.96 61.04 C 31.67 58.98 36.18 59.34 39.04 58.77 C 40.11 59.07 40.87 59.74 41.31 60.76 C 37.53 60.90 33.75 61.01 29.96 61.04 Z" />
</g>
<g id="#dfd1beff">
<path fill="#dfd1be" opacity="1.00" d=" M 54.05 59.72 C 55.95 59.67 57.85 59.84 59.76 59.82 C 61.45 59.86 63.15 59.88 64.84 59.80 C 65.08 62.11 65.07 65.24 62.42 66.15 C 59.37 62.07 62.87 72.08 58.13 70.08 C 56.25 66.86 54.64 63.44 54.05 59.72 Z" />
</g>
<g id="#d1c1b0ff">
<path fill="#d1c1b0" opacity="1.00" d=" M 64.84 59.80 C 65.39 59.59 66.49 59.18 67.04 58.97 C 67.09 61.67 67.15 64.37 67.22 67.08 C 65.81 67.96 64.46 68.93 63.07 69.83 L 62.64 68.85 C 62.58 67.95 62.51 67.05 62.42 66.15 C 65.07 65.24 65.08 62.11 64.84 59.80 Z" />
</g>
<g id="#bea590ff">
<path fill="#bea590" opacity="1.00" d=" M 67.04 58.97 L 68.04 58.87 C 67.95 61.62 67.64 64.35 67.22 67.08 C 67.15 64.37 67.09 61.67 67.04 58.97 Z" />
</g>
<g id="#a88772ff">
<path fill="#a88772" opacity="1.00" d=" M 68.04 58.87 C 68.33 59.11 68.91 59.59 69.20 59.83 C 69.13 61.61 69.07 63.40 69.03 65.19 C 68.75 67.77 68.46 70.35 68.11 72.93 C 66.75 72.82 64.98 73.21 64.69 71.42 C 66.35 70.49 67.24 68.99 67.22 67.08 C 67.64 64.35 67.95 61.62 68.04 58.87 Z" />
</g>
<g id="#d3b280ff">
<path fill="#d3b280" opacity="1.00" d=" M 51.12 71.88 C 50.91 67.82 50.91 63.74 51.71 59.74 C 50.25 67.83 54.00 74.49 57.94 81.03 C 58.49 82.46 59.18 83.83 59.89 85.19 C 54.65 82.94 54.15 76.20 51.12 71.88 Z" />
</g>
<g id="#825145ff">
<path fill="#825145" opacity="1.00" d=" M 69.20 59.83 C 70.73 61.13 72.14 62.57 73.39 64.15 C 71.97 64.64 70.50 64.92 69.03 65.19 C 69.07 63.40 69.13 61.61 69.20 59.83 Z" />
</g>
<g id="#362c1f7c">
<path fill="#362c1f" opacity="0.49" d=" M 29.96 61.04 C 33.75 61.01 37.53 60.90 41.31 60.76 C 42.72 60.64 43.60 61.08 43.96 62.06 C 39.32 62.02 34.67 62.15 30.03 61.96 L 29.96 61.04 Z" />
</g>
<g id="#f9c346fc">
<path fill="#f9c346" opacity="1.00" d=" M 44.37 64.23 C 44.80 63.12 45.21 62.01 45.64 60.90 C 46.05 62.58 46.56 64.24 47.01 65.92 C 47.59 69.14 48.11 72.38 48.53 75.63 C 44.73 76.47 42.93 80.02 41.10 83.06 C 41.18 82.35 41.34 80.94 41.42 80.23 C 42.25 78.28 42.26 76.19 40.08 75.24 C 43.63 72.84 42.53 67.67 44.37 64.23 Z" />
</g>
<g id="#c19b6dff">
<path fill="#c19b6d" opacity="1.00" d=" M 101.21 63.69 C 99.16 63.71 93.27 61.04 98.17 60.64 C 104.21 61.50 110.09 63.20 116.16 63.92 C 117.38 63.97 118.07 64.60 118.23 65.80 C 117.70 65.78 116.64 65.76 116.11 65.74 C 112.81 65.27 109.50 65.03 106.20 64.59 C 104.55 64.23 102.88 63.96 101.21 63.69 Z" />
</g>
<g id="#58533e99">
<path fill="#58533e" opacity="0.60" d=" M 126.17 60.79 C 127.17 64.26 127.17 67.74 126.18 71.22 C 126.06 67.74 126.13 64.26 126.17 60.79 Z" />
</g>
<g id="#ad7732ff">
<path fill="#ad7732" opacity="1.00" d=" M 93.66 63.75 C 96.17 63.45 98.69 63.67 101.21 63.69 C 102.88 63.96 104.55 64.23 106.20 64.59 C 104.79 64.95 103.02 64.80 102.28 66.32 C 100.22 70.45 99.31 75.33 99.85 79.90 C 99.37 79.65 98.41 79.14 97.93 78.89 C 96.80 78.25 95.49 78.09 94.27 77.72 C 95.13 75.61 96.35 73.52 96.04 71.14 C 96.12 68.46 94.54 66.18 93.66 63.75 Z" />
</g>
<g id="#bb7568ff">
<path fill="#bb7568" opacity="1.00" d=" M 73.39 64.15 C 75.36 67.23 78.91 69.96 78.93 73.79 C 78.35 74.91 77.80 76.06 77.22 77.18 C 74.66 79.88 72.14 78.14 69.86 76.09 C 69.26 75.05 68.71 73.97 68.11 72.93 C 68.46 70.35 68.75 67.77 69.03 65.19 C 70.50 64.92 71.97 64.64 73.39 64.15 Z" />
</g>
<g id="#cbab81ff">
<path fill="#cbab81" opacity="1.00" d=" M 88.64 64.33 C 90.31 64.13 91.99 63.93 93.66 63.75 C 94.54 66.18 96.12 68.46 96.04 71.14 C 92.04 71.41 90.79 66.89 88.64 64.33 Z" />
</g>
<g id="#d8b482fb">
<path fill="#d8b482" opacity="1.00" d=" M 134.04 64.02 C 135.16 64.28 135.50 65.32 135.05 67.16 C 135.05 68.83 135.05 72.17 135.05 73.84 C 134.82 78.03 134.34 82.31 132.73 86.23 C 131.44 85.51 130.20 84.69 128.96 83.89 C 128.50 83.61 127.59 83.04 127.13 82.75 C 126.39 80.29 125.28 77.77 125.48 75.15 C 127.91 75.71 130.41 75.96 132.90 75.95 C 133.68 72.02 133.91 68.02 134.04 64.02 Z" />
</g>
<g id="#f9e4acff">
<path fill="#f9e4ac" opacity="1.00" d=" M 47.01 65.92 C 50.51 63.56 49.27 70.64 51.12 71.88 C 54.15 76.20 54.65 82.94 59.89 85.19 C 60.21 85.35 60.85 85.69 61.18 85.86 C 64.51 87.95 60.61 90.22 59.05 92.07 C 58.95 90.41 60.28 88.41 58.82 87.07 C 57.43 86.63 56.76 87.61 56.32 88.75 C 55.16 89.97 54.85 93.33 52.63 92.48 C 52.84 90.57 52.95 88.66 52.91 86.75 C 51.55 88.31 50.46 90.31 51.57 92.34 C 51.90 93.74 52.01 95.52 53.95 94.95 C 55.33 95.00 56.71 95.05 58.09 95.09 C 57.07 96.21 54.38 96.75 55.34 98.71 C 55.74 102.67 60.01 103.71 62.95 105.39 C 60.65 109.06 54.96 105.83 51.66 107.64 C 48.58 108.05 45.97 109.83 43.14 110.98 C 41.27 105.83 39.49 100.57 39.96 94.98 C 39.79 90.95 40.42 87.01 41.10 83.06 C 42.93 80.02 44.73 76.47 48.53 75.63 C 48.11 72.38 47.59 69.14 47.01 65.92 Z" />
</g>
<g id="#bfa691ff">
<path fill="#bfa691" opacity="1.00" d=" M 58.13 70.08 C 62.87 72.08 59.37 62.07 62.42 66.15 C 62.51 67.05 62.58 67.95 62.64 68.85 C 61.50 71.97 62.82 75.41 64.31 78.18 C 64.68 79.44 67.13 78.56 66.93 80.16 C 67.07 81.98 64.62 82.79 63.71 84.20 C 62.62 84.13 61.70 83.77 60.94 83.11 C 61.19 80.20 60.50 77.38 59.33 74.73 C 58.99 73.16 58.65 71.60 58.13 70.08 Z" />
</g>
<g id="#a56c29ff">
<path fill="#a56c29" opacity="1.00" d=" M 102.28 66.32 C 103.02 64.80 104.79 64.95 106.20 64.59 C 109.50 65.03 112.81 65.27 116.11 65.74 C 117.92 74.20 123.77 82.35 121.34 91.30 C 120.42 89.66 119.52 88.01 118.70 86.33 C 119.74 80.40 116.74 73.39 110.22 72.28 C 106.50 74.22 103.16 77.51 102.74 81.88 C 101.97 80.95 101.03 80.22 99.85 79.90 C 99.31 75.33 100.22 70.45 102.28 66.32 Z" />
</g>
<g id="#af762eff">
<path fill="#af762e" opacity="1.00" d=" M 116.11 65.74 C 116.64 65.76 117.70 65.78 118.23 65.80 C 121.57 77.96 126.75 90.44 124.26 103.29 C 123.31 102.43 122.37 101.56 121.33 100.81 C 121.25 99.08 121.08 95.63 121.00 93.91 C 121.09 93.25 121.25 91.95 121.34 91.30 C 123.77 82.35 117.92 74.20 116.11 65.74 Z" />
</g>
<g id="#c1ad9aff">
<path fill="#c1ad9a" opacity="1.00" d=" M 63.07 69.83 C 64.46 68.93 65.81 67.96 67.22 67.08 C 67.24 68.99 66.35 70.49 64.69 71.42 L 63.73 71.31 C 63.56 70.94 63.23 70.20 63.07 69.83 Z" />
</g>
<g id="#0f0c093f">
<path fill="#0f0c09" opacity="0.25" d=" M 135.05 67.16 C 136.85 67.95 136.84 73.04 135.05 73.84 C 135.05 72.17 135.05 68.83 135.05 67.16 Z" />
</g>
<g id="#8b7966ff">
<path fill="#8b7966" opacity="1.00" d=" M 64.31 78.18 C 62.82 75.41 61.50 71.97 62.64 68.85 L 63.07 69.83 C 63.23 70.20 63.56 70.94 63.73 71.31 C 64.11 73.58 65.19 75.89 64.31 78.18 Z" />
</g>
<g id="#b39882ff">
<path fill="#b39882" opacity="1.00" d=" M 63.73 71.31 L 64.69 71.42 C 64.98 73.21 66.75 72.82 68.11 72.93 C 68.71 73.97 69.26 75.05 69.86 76.09 C 70.33 77.33 70.82 78.56 71.25 79.81 C 72.44 84.54 67.16 85.58 63.71 84.20 C 64.62 82.79 67.07 81.98 66.93 80.16 C 67.13 78.56 64.68 79.44 64.31 78.18 C 65.19 75.89 64.11 73.58 63.73 71.31 Z" />
</g>
<g id="#975f23ff">
<path fill="#975f23" opacity="1.00" d=" M 110.22 72.28 C 116.74 73.39 119.74 80.40 118.70 86.33 C 118.03 85.27 117.40 84.19 117.01 83.00 C 115.88 80.48 114.47 76.54 111.09 76.93 C 109.98 78.87 109.18 80.93 108.67 83.11 C 107.69 84.10 106.67 85.06 105.72 86.09 C 104.88 84.87 103.99 83.68 103.05 82.54 L 102.74 81.88 C 103.16 77.51 106.50 74.22 110.22 72.28 Z" />
</g>
<g id="#cdaf86ff">
<path fill="#cdaf86" opacity="1.00" d=" M 77.22 77.18 C 77.80 76.06 78.35 74.91 78.93 73.79 C 79.39 78.17 78.43 82.36 75.97 85.98 C 74.30 86.42 72.62 86.89 70.88 87.00 C 72.63 85.72 74.61 84.41 75.15 82.17 C 75.84 80.51 76.52 78.84 77.22 77.18 Z" />
</g>
<g id="#d18130f7">
<path fill="#d18130" opacity="0.97" d=" M 31.89 80.55 C 33.43 77.46 37.07 76.34 40.08 75.24 C 42.26 76.19 42.25 78.28 41.42 80.23 C 40.37 79.63 39.25 79.20 38.08 78.94 C 36.47 79.02 35.17 80.00 33.89 80.88 C 33.39 80.80 32.39 80.63 31.89 80.55 Z" />
</g>
<g id="#d3b99cff">
<path fill="#d3b99c" opacity="1.00" d=" M 59.33 74.73 C 60.50 77.38 61.19 80.20 60.94 83.11 C 60.26 82.38 59.58 81.64 58.91 80.90 C 59.01 78.84 59.15 76.79 59.33 74.73 Z" />
</g>
<g id="#9c735fff">
<path fill="#9c735f" opacity="1.00" d=" M 69.86 76.09 C 72.14 78.14 74.66 79.88 77.22 77.18 C 76.52 78.84 75.84 80.51 75.15 82.17 C 72.75 83.59 71.61 82.26 71.25 79.81 C 70.82 78.56 70.33 77.33 69.86 76.09 Z" />
</g>
<g id="#854d1aff">
<path fill="#854d1a" opacity="1.00" d=" M 111.09 76.93 C 114.47 76.54 115.88 80.48 117.01 83.00 C 116.61 82.95 115.80 82.85 115.40 82.80 C 113.04 82.10 110.80 82.20 108.67 83.11 C 109.18 80.93 109.98 78.87 111.09 76.93 Z" />
</g>
<g id="#926238fc">
<path fill="#926238" opacity="1.00" d=" M 33.89 80.88 C 35.17 80.00 36.47 79.02 38.08 78.94 C 35.68 81.66 32.95 85.40 34.84 89.13 C 34.69 89.28 34.41 89.59 34.27 89.74 C 32.69 89.52 29.54 89.07 27.97 88.84 C 30.05 86.27 32.78 84.10 33.89 80.88 Z" />
</g>
<g id="#865023fd">
<path fill="#865023" opacity="1.00" d=" M 38.08 78.94 C 39.25 79.20 40.37 79.63 41.42 80.23 C 41.34 80.94 41.18 82.35 41.10 83.06 C 40.11 83.92 39.10 84.76 38.12 85.64 C 36.81 86.60 36.13 88.17 34.84 89.13 C 32.95 85.40 35.68 81.66 38.08 78.94 Z" />
</g>
<g id="#c6a37aff">
<path fill="#c6a37a" opacity="1.00" d=" M 94.81 87.88 C 95.99 85.17 93.95 79.12 97.93 78.89 C 98.41 79.14 99.37 79.65 99.85 79.90 C 99.19 82.82 97.62 85.77 98.23 88.81 C 100.30 93.51 100.55 99.85 105.80 102.24 C 104.22 106.14 102.04 110.21 97.95 111.92 C 91.08 115.51 83.82 118.27 77.15 122.25 C 77.73 123.20 78.41 124.09 79.06 124.99 C 77.74 125.02 76.42 125.05 75.10 125.10 C 70.38 124.41 65.60 123.76 61.12 122.05 C 59.32 120.52 56.94 119.17 54.52 119.88 L 53.77 119.98 C 50.95 120.27 47.93 118.33 46.86 115.76 C 55.96 114.63 64.54 121.55 73.66 120.61 C 82.63 116.26 94.21 113.50 98.99 103.93 C 97.16 98.73 95.17 93.47 94.81 87.88 Z" />
</g>
<g id="#a5774bf6">
<path fill="#a5774b" opacity="0.96" d=" M 27.04 81.94 C 27.19 80.14 30.41 81.00 31.89 80.55 C 32.39 80.63 33.39 80.80 33.89 80.88 C 32.78 84.10 30.05 86.27 27.97 88.84 C 29.54 89.07 32.69 89.52 34.27 89.74 C 31.15 91.60 27.31 91.50 24.00 92.94 C 25.90 89.40 26.39 85.18 28.84 81.98 C 28.39 81.97 27.49 81.95 27.04 81.94 Z" />
</g>
<g id="#b5916bff">
<path fill="#b5916b" opacity="1.00" d=" M 71.25 79.81 C 71.61 82.26 72.75 83.59 75.15 82.17 C 74.61 84.41 72.63 85.72 70.88 87.00 C 67.58 87.25 64.33 86.74 61.18 85.86 C 60.85 85.69 60.21 85.35 59.89 85.19 C 59.18 83.83 58.49 82.46 57.94 81.03 L 58.91 80.90 C 59.58 81.64 60.26 82.38 60.94 83.11 C 61.70 83.77 62.62 84.13 63.71 84.20 C 67.16 85.58 72.44 84.54 71.25 79.81 Z" />
</g>
<g id="#bd9972ff">
<path fill="#bd9972" opacity="1.00" d=" M 99.85 79.90 C 101.03 80.22 101.97 80.95 102.74 81.88 L 103.05 82.54 C 102.02 84.19 99.85 86.25 102.19 87.83 C 103.16 90.01 104.74 87.53 105.98 86.93 C 106.24 87.27 106.76 87.95 107.03 88.28 C 102.92 91.35 105.84 96.89 109.97 98.16 C 110.58 99.98 110.34 101.89 110.29 103.77 C 110.16 105.47 110.07 107.19 109.83 108.88 C 101.42 114.30 91.01 115.79 83.19 122.19 C 81.74 122.78 82.49 123.98 82.93 125.01 C 81.64 125.01 80.35 125.00 79.06 124.99 C 78.41 124.09 77.73 123.20 77.15 122.25 C 83.82 118.27 91.08 115.51 97.95 111.92 C 102.04 110.21 104.22 106.14 105.80 102.24 C 100.55 99.85 100.30 93.51 98.23 88.81 C 97.62 85.77 99.19 82.82 99.85 79.90 Z" />
</g>
<g id="#c49967f7">
<path fill="#c49967" opacity="0.97" d=" M 18.08 87.07 C 21.03 85.44 23.54 82.29 27.04 81.94 C 27.49 81.95 28.39 81.97 28.84 81.98 C 26.39 85.18 25.90 89.40 24.00 92.94 C 23.71 94.90 21.37 93.06 20.22 93.04 C 21.24 91.86 22.21 90.58 22.10 88.93 C 19.52 90.22 16.30 92.73 16.61 95.88 C 15.28 97.20 14.15 99.22 12.01 99.06 C 11.17 94.16 16.31 91.11 18.08 87.07 Z" />
</g>
<g id="#d89c59ff">
<path fill="#d89c59" opacity="1.00" d=" M 108.67 83.11 C 110.80 82.20 113.04 82.10 115.40 82.80 C 115.38 87.06 109.96 81.93 109.01 85.88 C 108.37 86.70 107.71 87.50 107.03 88.28 C 106.76 87.95 106.24 87.27 105.98 86.93 L 105.72 86.09 C 106.67 85.06 107.69 84.10 108.67 83.11 Z" />
</g>
<g id="#cc9036e7">
<path fill="#cc9036" opacity="0.91" d=" M 38.12 85.64 C 39.10 84.76 40.11 83.92 41.10 83.06 C 40.42 87.01 39.79 90.95 39.96 94.98 C 36.60 94.63 40.67 87.91 38.12 85.64 Z" />
</g>
<g id="#b48a63ff">
<path fill="#b48a63" opacity="1.00" d=" M 102.19 87.83 C 99.85 86.25 102.02 84.19 103.05 82.54 C 103.99 83.68 104.88 84.87 105.72 86.09 L 105.98 86.93 C 104.74 87.53 103.16 90.01 102.19 87.83 Z" />
</g>
<g id="#c49563ff">
<path fill="#c49563" opacity="1.00" d=" M 115.40 82.80 C 115.80 82.85 116.61 82.95 117.01 83.00 C 117.40 84.19 118.03 85.27 118.70 86.33 C 119.52 88.01 120.42 89.66 121.34 91.30 C 121.25 91.95 121.09 93.25 121.00 93.91 C 118.87 92.43 116.80 93.47 115.02 94.92 C 115.80 92.31 117.07 88.68 113.53 87.65 C 112.89 85.65 110.64 86.12 109.01 85.88 C 109.96 81.93 115.38 87.06 115.40 82.80 Z" />
</g>
<g id="#c39c65fa">
<path fill="#c39c65" opacity="0.98" d=" M 127.13 82.75 C 127.59 83.04 128.50 83.61 128.96 83.89 L 128.86 84.69 C 128.67 86.33 128.30 89.59 128.11 91.22 C 129.04 89.91 129.78 88.47 130.29 86.95 C 131.13 88.10 130.91 89.61 131.07 90.95 C 129.83 93.01 129.30 95.97 127.01 97.09 C 127.03 92.31 127.06 87.53 127.13 82.75 Z" />
</g>
<g id="#8a6d49e3">
<path fill="#8a6d49" opacity="0.89" d=" M 128.96 83.89 C 130.20 84.69 131.44 85.51 132.73 86.23 C 132.53 87.70 132.66 90.53 131.07 90.95 C 130.91 89.61 131.13 88.10 130.29 86.95 C 129.94 86.38 129.22 85.26 128.86 84.69 L 128.96 83.89 Z" />
</g>
<g id="#ead3a6ff">
<path fill="#ead3a6" opacity="1.00" d=" M 75.97 85.98 C 79.32 84.55 83.31 85.60 83.53 89.81 C 82.80 91.40 81.90 92.91 80.92 94.36 C 79.74 92.38 78.75 90.30 77.65 88.27 C 75.70 87.24 75.85 89.59 75.44 90.83 C 74.99 92.55 74.47 94.25 73.85 95.92 C 72.48 94.98 71.22 93.90 69.84 92.98 C 70.58 95.24 71.92 97.31 73.60 98.98 C 73.93 98.42 74.60 97.31 74.93 96.76 C 75.73 96.86 77.34 97.06 78.15 97.16 C 74.50 100.00 79.01 103.01 79.99 106.00 C 79.32 109.06 76.44 110.51 74.00 112.00 C 67.04 116.52 58.39 112.34 51.00 111.29 C 48.87 111.76 46.11 111.71 45.24 114.13 C 44.56 113.08 43.36 112.27 43.14 110.98 C 45.97 109.83 48.58 108.05 51.66 107.64 C 54.96 105.83 60.65 109.06 62.95 105.39 C 60.01 103.71 55.74 102.67 55.34 98.71 C 54.38 96.75 57.07 96.21 58.09 95.09 C 56.71 95.05 55.33 95.00 53.95 94.95 C 55.14 93.08 57.47 91.18 56.32 88.75 C 56.76 87.61 57.43 86.63 58.82 87.07 C 60.28 88.41 58.95 90.41 59.05 92.07 C 60.61 90.22 64.51 87.95 61.18 85.86 C 64.33 86.74 67.58 87.25 70.88 87.00 C 72.62 86.89 74.30 86.42 75.97 85.98 M 61.29 94.22 C 59.76 94.55 58.08 96.00 59.18 97.66 C 60.54 98.05 63.20 94.89 61.29 94.22 Z" />
</g>
<g id="#dab58aff">
<path fill="#dab58a" opacity="1.00" d=" M 128.11 91.22 C 128.30 89.59 128.67 86.33 128.86 84.69 C 129.22 85.26 129.94 86.38 130.29 86.95 C 129.78 88.47 129.04 89.91 128.11 91.22 Z" />
</g>
<g id="#b3885eff">
<path fill="#b3885e" opacity="1.00" d=" M 109.01 85.88 C 110.64 86.12 112.89 85.65 113.53 87.65 C 112.40 88.99 111.24 90.30 110.10 91.64 C 109.54 91.53 108.41 91.31 107.85 91.20 C 108.26 93.61 109.44 95.78 109.97 98.16 C 105.84 96.89 102.92 91.35 107.03 88.28 C 107.71 87.50 108.37 86.70 109.01 85.88 Z" />
</g>
<g id="#dcc791ff">
<path fill="#dcc791" opacity="1.00" d=" M 51.57 92.34 C 50.46 90.31 51.55 88.31 52.91 86.75 C 52.95 88.66 52.84 90.57 52.63 92.48 L 51.57 92.34 Z" />
</g>
<g id="#ad946eff">
<path fill="#ad946e" opacity="1.00" d=" M 85.90 87.92 C 87.59 89.12 89.05 90.62 90.71 91.87 C 91.17 90.97 91.63 90.06 92.08 89.15 L 93.07 89.16 C 92.45 91.24 91.88 93.34 90.99 95.32 C 88.63 93.37 86.33 91.11 85.90 87.92 Z" />
</g>
<g id="#d1b38aff">
<path fill="#d1b38a" opacity="1.00" d=" M 93.07 89.16 C 93.50 88.84 94.37 88.20 94.81 87.88 C 95.17 93.47 97.16 98.73 98.99 103.93 C 94.21 113.50 82.63 116.26 73.66 120.61 C 64.54 121.55 55.96 114.63 46.86 115.76 L 45.93 115.92 L 45.85 114.81 C 54.49 111.93 63.02 118.61 71.67 117.64 C 79.08 115.38 86.91 111.90 90.72 104.73 C 91.22 101.62 90.00 98.36 90.99 95.32 C 91.88 93.34 92.45 91.24 93.07 89.16 Z" />
</g>
<g id="#d5ab77ff">
<path fill="#d5ab77" opacity="1.00" d=" M 113.53 87.65 C 117.07 88.68 115.80 92.31 115.02 94.92 C 116.80 93.47 118.87 92.43 121.00 93.91 C 121.08 95.63 121.25 99.08 121.33 100.81 C 120.53 101.83 119.87 103.32 118.29 102.91 C 117.32 100.24 117.31 94.81 113.13 96.55 C 112.08 94.93 111.37 93.11 110.10 91.64 C 111.24 90.30 112.40 88.99 113.53 87.65 Z" />
</g>
<g id="#a17a55f8">
<path fill="#a17a55" opacity="0.97" d=" M 16.61 95.88 C 16.30 92.73 19.52 90.22 22.10 88.93 C 22.21 90.58 21.24 91.86 20.22 93.04 C 19.15 94.06 18.34 96.06 16.61 95.88 Z" />
</g>
<g id="#b19e6dff">
<path fill="#b19e6d" opacity="1.00" d=" M 56.32 88.75 C 57.47 91.18 55.14 93.08 53.95 94.95 C 52.01 95.52 51.90 93.74 51.57 92.34 L 52.63 92.48 C 54.85 93.33 55.16 89.97 56.32 88.75 Z" />
</g>
<g id="#a29068ff">
<path fill="#a29068" opacity="1.00" d=" M 83.53 89.81 C 84.84 92.40 83.05 94.75 81.69 96.85 C 80.23 96.44 80.01 95.51 80.92 94.36 C 81.90 92.91 82.80 91.40 83.53 89.81 Z" />
</g>
<g id="#b29d75ff">
<path fill="#b29d75" opacity="1.00" d=" M 75.44 90.83 C 76.16 92.82 75.74 94.87 74.93 96.76 C 74.60 97.31 73.93 98.42 73.60 98.98 C 71.92 97.31 70.58 95.24 69.84 92.98 C 71.22 93.90 72.48 94.98 73.85 95.92 C 74.47 94.25 74.99 92.55 75.44 90.83 Z" />
</g>
<g id="#a16929fe">
<path fill="#a16929" opacity="1.00" d=" M 107.85 91.20 C 108.41 91.31 109.54 91.53 110.10 91.64 C 111.37 93.11 112.08 94.93 113.13 96.55 C 117.31 94.81 117.32 100.24 118.29 102.91 C 119.87 103.32 120.53 101.83 121.33 100.81 C 122.37 101.56 123.31 102.43 124.26 103.29 C 123.95 105.59 122.97 107.86 123.51 110.21 C 123.21 112.21 120.73 113.41 119.61 115.10 C 121.59 107.88 115.05 110.31 111.08 109.93 C 110.89 108.39 110.49 105.31 110.29 103.77 C 110.34 101.89 110.58 99.98 109.97 98.16 C 109.44 95.78 108.26 93.61 107.85 91.20 Z" />
</g>
<g id="#a99567ff">
<path fill="#a99567" opacity="1.00" d=" M 61.29 94.22 C 63.20 94.89 60.54 98.05 59.18 97.66 C 58.08 96.00 59.76 94.55 61.29 94.22 Z" />
</g>
<g id="#b48e67ff">
<path fill="#b48e67" opacity="1.00" d=" M 110.29 103.77 C 110.49 105.31 110.89 108.39 111.08 109.93 C 110.84 110.46 110.35 111.52 110.11 112.05 C 103.48 114.88 96.51 116.87 90.03 120.04 C 88.48 121.20 85.08 122.66 86.93 125.03 C 85.59 125.03 84.26 125.02 82.93 125.01 C 82.49 123.98 81.74 122.78 83.19 122.19 C 91.01 115.79 101.42 114.30 109.83 108.88 C 110.07 107.19 110.16 105.47 110.29 103.77 Z" />
</g>
<g id="#945c21fd">
<path fill="#945c21" opacity="1.00" d=" M 111.08 109.93 C 115.05 110.31 121.59 107.88 119.61 115.10 C 119.33 117.18 116.74 118.53 115.25 120.00 C 115.68 116.16 112.21 115.47 109.19 115.97 C 109.55 114.68 109.84 113.37 110.11 112.05 C 110.35 111.52 110.84 110.46 111.08 109.93 Z" />
</g>
<g id="#ab835dff">
<path fill="#ab835d" opacity="1.00" d=" M 90.03 120.04 C 96.51 116.87 103.48 114.88 110.11 112.05 C 109.84 113.37 109.55 114.68 109.19 115.97 C 104.54 116.57 99.91 117.58 95.61 119.49 C 93.03 120.47 89.43 121.36 89.76 124.88 C 89.29 124.92 88.36 125.00 87.89 125.04 L 86.93 125.03 C 85.08 122.66 88.48 121.20 90.03 120.04 Z" />
</g>
<g id="#a17651ff">
<path fill="#a17651" opacity="1.00" d=" M 95.61 119.49 C 99.91 117.58 104.54 116.57 109.19 115.97 C 108.18 116.99 107.12 117.96 106.07 118.95 C 100.51 119.25 95.21 121.63 90.71 124.80 L 89.76 124.88 C 89.43 121.36 93.03 120.47 95.61 119.49 Z" />
</g>
<g id="#884d1bfd">
<path fill="#884d1b" opacity="1.00" d=" M 109.19 115.97 C 112.21 115.47 115.68 116.16 115.25 120.00 C 114.40 120.86 113.46 121.61 112.64 122.51 C 109.91 126.15 106.12 128.84 101.16 127.91 C 99.12 128.66 100.90 124.80 99.03 125.17 C 98.53 125.12 97.53 125.02 97.03 124.98 C 96.21 124.91 94.57 124.78 93.75 124.72 C 97.70 122.28 103.65 123.57 106.07 118.95 C 107.12 117.96 108.18 116.99 109.19 115.97 Z" />
</g>
<g id="#ba8f61ff">
<path fill="#ba8f61" opacity="1.00" d=" M 54.52 119.88 C 56.94 119.17 59.32 120.52 61.12 122.05 C 58.78 121.85 56.55 121.05 54.52 119.88 Z" />
</g>
<g id="#976b45ff">
<path fill="#976b45" opacity="1.00" d=" M 90.71 124.80 C 95.21 121.63 100.51 119.25 106.07 118.95 C 103.65 123.57 97.70 122.28 93.75 124.72 C 92.99 124.74 91.47 124.78 90.71 124.80 Z" />
</g>
<g id="#8c562bfb">
<path fill="#8c562b" opacity="1.00" d=" M 53.77 119.98 L 54.52 119.88 C 56.55 121.05 58.78 121.85 61.12 122.05 C 65.60 123.76 70.38 124.41 75.10 125.10 C 74.69 126.34 74.25 127.57 73.81 128.80 C 70.97 129.95 68.18 131.58 65.11 131.91 C 62.87 129.67 60.67 126.63 57.09 126.97 L 56.05 126.88 C 55.33 125.20 54.84 123.44 54.23 121.73 C 54.12 121.29 53.88 120.42 53.77 119.98 Z" />
</g>
<g id="#9e632efa">
<path fill="#9e632e" opacity="0.98" d=" M 51.22 122.77 C 51.35 121.83 52.35 121.48 54.23 121.73 C 54.84 123.44 55.33 125.20 56.05 126.88 C 55.26 126.97 53.70 127.16 52.92 127.25 C 52.29 125.78 51.81 124.25 51.22 122.77 Z" />
</g>
<g id="#a5764cfa">
<path fill="#a5764c" opacity="0.98" d=" M 48.93 122.96 C 49.50 122.91 50.65 122.82 51.22 122.77 C 51.81 124.25 52.29 125.78 52.92 127.25 C 50.70 128.57 49.05 130.56 47.85 132.82 C 45.18 133.20 42.58 134.10 39.85 133.95 C 43.62 133.04 43.41 128.08 46.82 126.83 C 48.26 126.89 49.71 126.92 51.16 126.91 C 50.84 125.68 50.12 124.63 49.37 123.63 L 48.93 122.96 Z" />
</g>
<g id="#a26430fc">
<path fill="#a26430" opacity="1.00" d=" M 101.16 127.91 C 106.12 128.84 109.91 126.15 112.64 122.51 C 113.89 122.84 115.79 123.24 115.96 124.81 C 114.34 126.21 112.78 127.69 111.09 129.00 C 108.76 128.86 106.49 129.33 104.74 130.95 C 103.17 130.75 101.63 130.38 100.10 130.01 C 99.09 129.60 98.07 129.22 97.05 128.85 C 96.75 127.24 98.12 126.25 99.03 125.17 C 100.90 124.80 99.12 128.66 101.16 127.91 Z" />
</g>
<g id="#c88c55ff">
<path fill="#c88c55" opacity="1.00" d=" M 47.96 124.98 C 48.32 124.64 49.02 123.96 49.37 123.63 C 50.12 124.63 50.84 125.68 51.16 126.91 C 49.71 126.92 48.26 126.89 46.82 126.83 C 47.10 126.36 47.68 125.44 47.96 124.98 Z" />
</g>
<g id="#c59e6ef7">
<path fill="#c59e6e" opacity="0.97" d=" M 36.35 125.39 C 40.20 125.22 44.18 126.04 47.96 124.98 C 47.68 125.44 47.10 126.36 46.82 126.83 C 43.41 128.08 43.62 133.04 39.85 133.95 C 38.11 134.98 36.13 135.56 34.17 136.04 C 35.11 131.19 30.67 133.96 27.93 134.04 C 28.12 129.29 33.21 127.91 36.35 125.39 Z" />
</g>
<g id="#8c6130e7">
<path fill="#8c6130" opacity="0.91" d=" M 75.10 125.10 C 76.42 125.05 77.74 125.02 79.06 124.99 C 80.35 125.00 81.64 125.01 82.93 125.01 C 84.26 125.02 85.59 125.03 86.93 125.03 L 87.89 125.04 L 88.04 125.95 C 85.36 126.03 80.01 126.19 77.33 126.27 C 76.13 127.06 75.34 128.68 73.81 128.80 C 74.25 127.57 74.69 126.34 75.10 125.10 Z" />
</g>
<g id="#623f18cc">
<path fill="#623f18" opacity="0.80" d=" M 87.89 125.04 C 88.36 125.00 89.29 124.92 89.76 124.88 L 90.71 124.80 C 91.47 124.78 92.99 124.74 93.75 124.72 C 94.57 124.78 96.21 124.91 97.03 124.98 C 96.94 128.30 90.48 125.25 88.04 125.95 L 87.89 125.04 Z" />
</g>
<g id="#a87a4df1">
<path fill="#a87a4d" opacity="0.95" d=" M 111.09 129.00 C 112.78 127.69 114.34 126.21 115.96 124.81 C 117.23 125.20 117.80 125.82 117.68 126.69 C 115.62 128.91 114.73 131.82 114.33 134.76 C 114.80 134.97 115.74 135.39 116.20 135.60 C 114.80 136.00 113.40 136.42 112.02 136.88 C 113.37 134.22 112.11 131.52 111.09 129.00 Z" />
</g>
<g id="#c19567fa">
<path fill="#c19567" opacity="0.98" d=" M 52.92 127.25 C 53.70 127.16 55.26 126.97 56.05 126.88 L 57.09 126.97 C 58.72 129.56 54.82 131.31 55.71 133.95 C 53.32 135.30 50.67 136.22 48.08 137.09 C 47.94 135.66 47.87 134.24 47.85 132.82 C 49.05 130.56 50.70 128.57 52.92 127.25 Z" />
</g>
<g id="#9f6f49fb">
<path fill="#9f6f49" opacity="1.00" d=" M 57.09 126.97 C 60.67 126.63 62.87 129.67 65.11 131.91 C 62.23 133.44 58.99 134.44 55.71 133.95 C 54.82 131.31 58.72 129.56 57.09 126.97 Z" />
</g>
<g id="#d2a773f6">
<path fill="#d2a773" opacity="0.96" d=" M 114.33 134.76 C 114.73 131.82 115.62 128.91 117.68 126.69 C 121.91 128.81 125.90 132.62 124.86 137.80 C 122.25 140.94 119.26 135.63 116.20 135.60 C 115.74 135.39 114.80 134.97 114.33 134.76 Z" />
</g>
<g id="#c79d6df7">
<path fill="#c79d6d" opacity="0.97" d=" M 94.21 138.92 C 92.13 135.60 92.88 129.96 97.05 128.85 C 98.07 129.22 99.09 129.60 100.10 130.01 C 99.43 132.22 98.51 134.44 98.58 136.80 C 97.56 138.07 95.85 138.93 94.21 138.92 Z" />
</g>
<g id="#dab079fd">
<path fill="#dab079" opacity="1.00" d=" M 104.74 130.95 C 106.49 129.33 108.76 128.86 111.09 129.00 C 112.11 131.52 113.37 134.22 112.02 136.88 C 110.94 141.19 106.79 137.83 105.07 135.87 C 102.40 134.99 104.11 132.73 104.74 130.95 Z" />
</g>
<g id="#9f734af3">
<path fill="#9f734a" opacity="0.95" d=" M 100.10 130.01 C 101.63 130.38 103.17 130.75 104.74 130.95 C 104.11 132.73 102.40 134.99 105.07 135.87 C 102.88 135.96 100.70 136.20 98.58 136.80 C 98.51 134.44 99.43 132.22 100.10 130.01 Z" />
</g>
</svg>
