<?xml version="1.0" encoding="UTF-8" ?>
<!DOCTYPE svg PUBLIC "-//W3C//DTD SVG 1.1//EN" "http://www.w3.org/Graphics/SVG/1.1/DTD/svg11.dtd">
<svg width="60pt" height="80pt" viewBox="0 0 60 80" version="1.1" xmlns="http://www.w3.org/2000/svg">
<g id="#d3914af7">
<path fill="#d3914a" opacity="0.97" d=" M 17.12 1.92 C 21.12 3.30 23.11 9.70 27.80 7.05 C 27.80 9.28 28.80 11.21 29.90 13.08 C 29.16 14.86 27.39 15.98 26.12 17.37 C 24.45 16.49 22.70 13.94 20.67 15.59 C 18.84 16.27 18.86 18.47 17.96 19.94 C 17.74 19.72 17.31 19.29 17.09 19.07 C 16.42 17.56 15.77 17.51 15.14 18.93 L 14.40 19.42 C 13.62 14.38 10.84 9.94 10.20 4.85 C 12.93 6.65 19.94 9.12 17.12 1.92 Z" />
<path fill="#d3914a" opacity="0.97" d=" M 14.23 20.21 C 14.24 20.40 14.27 20.79 14.28 20.99 L 14.23 20.21 Z" />
<path fill="#d3914a" opacity="0.97" d=" M 14.48 21.86 L 15.13 22.15 C 15.08 22.82 14.98 24.16 14.93 24.84 C 13.57 24.29 13.42 23.30 14.48 21.86 Z" />
</g>
<g id="#a36a41fa">
<path fill="#a36a41" opacity="0.98" d=" M 27.80 7.05 C 29.12 2.46 33.64 6.17 36.10 2.99 C 35.72 4.79 34.78 6.38 34.05 8.06 C 35.98 7.57 39.09 5.91 37.09 9.08 C 41.19 9.07 45.01 7.21 49.08 6.96 C 47.73 8.60 46.66 10.66 44.94 11.89 C 39.46 13.81 37.62 19.47 34.80 23.93 C 32.11 24.80 29.98 23.44 27.83 22.34 C 29.62 20.19 28.82 17.44 25.78 18.67 L 24.77 18.77 C 25.11 18.42 25.78 17.72 26.12 17.37 C 27.39 15.98 29.16 14.86 29.90 13.08 C 28.80 11.21 27.80 9.28 27.80 7.05 Z" />
</g>
<g id="#8e5635fa">
<path fill="#8e5635" opacity="0.98" d=" M 34.80 23.93 C 37.62 19.47 39.46 13.81 44.94 11.89 C 44.27 13.68 43.19 15.26 42.07 16.79 C 46.50 17.27 41.64 21.13 39.81 22.09 C 37.57 23.11 36.95 25.44 36.57 27.66 C 34.64 28.73 32.62 30.28 30.29 29.89 C 29.58 28.26 29.06 26.56 28.33 24.95 C 28.09 24.72 27.60 24.27 27.35 24.04 C 27.03 23.78 26.37 23.26 26.05 23.01 L 26.00 21.99 C 26.46 22.08 27.37 22.25 27.83 22.34 C 29.98 23.44 32.11 24.80 34.80 23.93 Z" />
</g>
<g id="#b07950ff">
<path fill="#b07950" opacity="1.00" d=" M 20.67 15.59 C 22.70 13.94 24.45 16.49 26.12 17.37 C 25.78 17.72 25.11 18.42 24.77 18.77 C 22.12 20.45 22.96 22.96 26.05 23.01 C 26.37 23.26 27.03 23.78 27.35 24.04 C 25.92 23.93 24.49 23.79 23.07 23.62 C 22.29 22.84 21.46 22.02 20.24 22.17 C 19.65 22.12 18.48 22.02 17.89 21.97 C 17.91 21.46 17.94 20.45 17.96 19.94 C 18.86 18.47 18.84 16.27 20.67 15.59 Z" />
<path fill="#b07950" opacity="1.00" d=" M 17.09 19.07 C 17.31 19.29 17.74 19.72 17.96 19.94 L 17.16 19.67 L 17.09 19.07 Z" />
<path fill="#b07950" opacity="1.00" d=" M 15.91 21.95 C 16.41 21.96 17.40 21.96 17.89 21.97 C 17.29 23.49 16.63 23.48 15.91 21.95 Z" />
</g>
<g id="#f3e592ff">
<path fill="#f3e592" opacity="1.00" d=" M 15.14 18.93 C 15.77 17.51 16.42 17.56 17.09 19.07 C 16.60 19.03 15.63 18.97 15.14 18.93 Z" />
<path fill="#f3e592" opacity="1.00" d=" M 15.13 22.15 L 15.91 21.95 C 16.63 23.48 17.29 23.49 17.89 21.97 C 18.48 22.02 19.65 22.12 20.24 22.17 C 17.66 24.55 16.22 27.36 16.95 31.13 L 15.98 30.87 C 15.59 29.92 15.22 28.97 14.87 28.01 C 14.89 27.22 14.91 25.63 14.93 24.84 C 14.98 24.16 15.08 22.82 15.13 22.15 Z" />
</g>
<g id="#b9b5b1ff">
<path fill="#b9b5b1" opacity="1.00" d=" M 25.78 18.67 C 28.82 17.44 29.62 20.19 27.83 22.34 C 27.37 22.25 26.46 22.08 26.00 21.99 C 25.95 21.16 25.84 19.50 25.78 18.67 Z" />
<path fill="#b9b5b1" opacity="1.00" d=" M 14.40 19.42 L 15.14 18.93 C 15.63 18.97 16.60 19.03 17.09 19.07 L 17.16 19.67 C 16.85 20.24 16.22 21.38 15.91 21.95 L 15.13 22.15 L 14.48 21.86 L 14.28 20.99 C 14.27 20.79 14.24 20.40 14.23 20.21 L 14.40 19.42 Z" />
</g>
<g id="#4f3f33ff">
<path fill="#4f3f33" opacity="1.00" d=" M 26.05 23.01 C 22.96 22.96 22.12 20.45 24.77 18.77 L 25.78 18.67 C 25.84 19.50 25.95 21.16 26.00 21.99 L 26.05 23.01 Z" />
<path fill="#4f3f33" opacity="1.00" d=" M 15.91 21.95 C 16.22 21.38 16.85 20.24 17.16 19.67 L 17.96 19.94 C 17.94 20.45 17.91 21.46 17.89 21.97 C 17.40 21.96 16.41 21.96 15.91 21.95 Z" />
</g>
<g id="#e5b8a6ff">
<path fill="#e5b8a6" opacity="1.00" d=" M 20.24 22.17 C 21.46 22.02 22.29 22.84 23.07 23.62 C 21.01 26.13 19.31 28.89 17.66 31.68 L 17.06 32.20 L 16.95 31.13 C 16.22 27.36 17.66 24.55 20.24 22.17 Z" />
</g>
<g id="#8a4d2efd">
<path fill="#8a4d2e" opacity="1.00" d=" M 36.57 27.66 C 36.95 25.44 37.57 23.11 39.81 22.09 C 39.54 24.75 43.80 24.45 42.75 27.08 C 39.66 26.32 43.68 31.14 39.93 30.04 C 36.54 29.31 38.67 32.92 39.05 34.65 C 36.68 34.61 35.68 36.32 34.98 38.31 C 32.51 35.70 33.01 38.92 32.91 40.95 C 31.93 40.33 31.00 39.64 30.03 39.02 C 30.06 39.78 30.14 41.30 30.18 42.06 C 29.14 44.28 26.79 43.49 24.89 43.22 C 24.76 41.77 24.49 38.87 24.36 37.42 C 26.23 35.84 29.13 30.97 24.97 30.78 C 26.55 29.11 28.23 27.40 28.33 24.95 C 29.06 26.56 29.58 28.26 30.29 29.89 C 32.62 30.28 34.64 28.73 36.57 27.66 Z" />
</g>
<g id="#c59689ff">
<path fill="#c59689" opacity="1.00" d=" M 17.66 31.68 C 19.31 28.89 21.01 26.13 23.07 23.62 C 24.49 23.79 25.92 23.93 27.35 24.04 C 25.53 27.92 21.13 29.71 18.60 33.11 C 18.37 32.75 17.90 32.03 17.66 31.68 Z" />
</g>
<g id="#b2786eff">
<path fill="#b2786e" opacity="1.00" d=" M 27.35 24.04 C 27.60 24.27 28.09 24.72 28.33 24.95 C 28.23 27.40 26.55 29.11 24.97 30.78 C 23.37 32.73 21.01 33.16 18.60 33.11 C 21.13 29.71 25.53 27.92 27.35 24.04 Z" />
</g>
<g id="#ad4131f8">
<path fill="#ad4131" opacity="0.97" d=" M 39.93 30.04 C 43.68 31.14 39.66 26.32 42.75 27.08 C 47.28 28.81 51.30 32.26 52.30 37.20 C 49.89 36.18 47.49 35.12 45.11 34.02 C 44.15 35.50 44.33 38.87 41.91 37.14 C 41.42 34.73 40.65 32.39 39.93 30.04 Z" />
</g>
<g id="#ca5837f7">
<path fill="#ca5837" opacity="0.97" d=" M 10.51 33.81 C 11.12 31.64 12.82 29.16 14.87 28.01 C 15.22 28.97 15.59 29.92 15.98 30.87 C 15.67 31.07 15.04 31.47 14.73 31.67 C 11.64 32.93 11.90 36.52 12.23 39.25 C 11.98 39.74 11.50 40.73 11.25 41.22 C 11.05 38.74 10.80 36.27 10.51 33.81 Z" />
</g>
<g id="#43261aff">
<path fill="#43261a" opacity="1.00" d=" M 39.05 34.65 C 38.67 32.92 36.54 29.31 39.93 30.04 C 40.65 32.39 41.42 34.73 41.91 37.14 L 42.05 38.05 C 41.07 36.90 40.09 35.75 39.05 34.65 Z" />
</g>
<g id="#94392afa">
<path fill="#94392a" opacity="0.98" d=" M 14.73 31.67 C 15.04 31.47 15.67 31.07 15.98 30.87 L 16.95 31.13 L 17.06 32.20 C 16.36 34.11 15.47 35.94 14.96 37.91 C 14.86 42.27 14.95 46.64 15.00 51.00 C 12.93 51.12 10.77 48.96 10.37 47.18 C 10.59 45.69 11.03 42.71 11.25 41.22 C 11.50 40.73 11.98 39.74 12.23 39.25 C 13.72 36.98 14.16 34.28 14.73 31.67 Z" />
</g>
<g id="#aa643bff">
<path fill="#aa643b" opacity="1.00" d=" M 18.60 33.11 C 21.01 33.16 23.37 32.73 24.97 30.78 C 29.13 30.97 26.23 35.84 24.36 37.42 C 24.49 38.87 24.76 41.77 24.89 43.22 C 24.70 44.26 24.50 45.30 24.28 46.33 C 22.10 47.54 23.23 42.53 21.09 43.27 C 17.79 44.81 19.02 39.97 18.44 38.02 C 18.49 36.38 18.46 34.74 18.60 33.11 Z" />
</g>
<g id="#b44535ff">
<path fill="#b44535" opacity="1.00" d=" M 12.23 39.25 C 11.90 36.52 11.64 32.93 14.73 31.67 C 14.16 34.28 13.72 36.98 12.23 39.25 Z" />
</g>
<g id="#c7823dff">
<path fill="#c7823d" opacity="1.00" d=" M 17.06 32.20 L 17.66 31.68 C 17.90 32.03 18.37 32.75 18.60 33.11 C 18.46 34.74 18.49 36.38 18.44 38.02 C 17.43 36.81 16.15 37.35 14.96 37.91 C 15.47 35.94 16.36 34.11 17.06 32.20 Z" />
</g>
<g id="#e46a42f7">
<path fill="#e46a42" opacity="0.97" d=" M 10.51 33.81 C 10.80 36.27 11.05 38.74 11.25 41.22 C 11.03 42.71 10.59 45.69 10.37 47.18 C 8.54 43.02 8.10 37.80 10.51 33.81 Z" />
</g>
<g id="#a33c36fa">
<path fill="#a33c36" opacity="0.98" d=" M 45.11 34.02 C 47.49 35.12 49.89 36.18 52.30 37.20 C 54.67 41.57 53.27 47.86 52.95 52.90 L 52.28 52.72 C 51.35 52.30 50.76 52.69 50.52 53.88 C 48.74 52.73 47.98 50.71 47.23 48.83 C 45.69 45.14 43.14 41.95 42.05 38.05 L 41.91 37.14 C 44.33 38.87 44.15 35.50 45.11 34.02 Z" />
</g>
<g id="#a8795bff">
<path fill="#a8795b" opacity="1.00" d=" M 34.98 38.31 C 35.68 36.32 36.68 34.61 39.05 34.65 C 40.09 35.75 41.07 36.90 42.05 38.05 C 43.14 41.95 45.69 45.14 47.23 48.83 L 47.14 49.87 C 45.87 49.36 44.64 48.72 43.30 48.40 C 42.10 49.09 41.20 50.83 39.63 50.28 L 40.14 49.51 C 43.87 46.07 40.99 39.80 37.50 37.22 C 36.75 38.04 36.07 39.75 34.98 38.31 Z" />
</g>
<g id="#eedaa6fe">
<path fill="#eedaa6" opacity="1.00" d=" M 14.96 37.91 C 16.15 37.35 17.43 36.81 18.44 38.02 C 19.02 39.97 17.79 44.81 21.09 43.27 C 23.23 42.53 22.10 47.54 24.28 46.33 C 27.33 46.71 30.99 46.25 32.70 49.26 C 32.82 50.90 32.69 52.55 32.92 54.18 C 30.03 55.04 26.96 54.77 23.99 55.03 C 21.14 55.58 25.08 56.47 26.15 56.09 C 27.12 57.85 25.68 59.35 24.91 60.85 C 24.86 61.19 24.77 61.88 24.72 62.22 L 25.06 62.95 C 24.59 63.17 23.65 63.60 23.18 63.82 C 20.27 59.67 17.42 55.46 15.00 51.00 C 14.95 46.64 14.86 42.27 14.96 37.91 Z" />
</g>
<g id="#c29d7bff">
<path fill="#c29d7b" opacity="1.00" d=" M 32.91 40.95 C 33.01 38.92 32.51 35.70 34.98 38.31 C 36.07 39.75 36.75 38.04 37.50 37.22 C 40.99 39.80 43.87 46.07 40.14 49.51 C 39.18 46.98 39.11 43.91 36.75 42.17 C 35.11 42.14 31.82 42.08 30.18 42.06 C 30.14 41.30 30.06 39.78 30.03 39.02 C 31.00 39.64 31.93 40.33 32.91 40.95 Z" />
</g>
<g id="#d6b895ff">
<path fill="#d6b895" opacity="1.00" d=" M 30.18 42.06 C 31.82 42.08 35.11 42.14 36.75 42.17 C 39.11 43.91 39.18 46.98 40.14 49.51 L 39.63 50.28 C 37.59 51.89 35.56 53.70 32.92 54.18 C 32.69 52.55 32.82 50.90 32.70 49.26 C 30.99 46.25 27.33 46.71 24.28 46.33 C 24.50 45.30 24.70 44.26 24.89 43.22 C 26.79 43.49 29.14 44.28 30.18 42.06 Z" />
</g>
<g id="#bb9578fe">
<path fill="#bb9578" opacity="1.00" d=" M 43.30 48.40 C 44.64 48.72 45.87 49.36 47.14 49.87 C 47.09 50.54 46.99 51.88 46.94 52.55 C 46.22 53.30 46.53 56.26 45.24 55.60 C 42.49 55.48 41.44 60.81 38.37 61.38 C 33.95 62.34 29.26 61.87 24.72 62.22 C 24.77 61.88 24.86 61.19 24.91 60.85 C 28.08 60.61 31.54 61.64 34.61 60.59 C 37.01 58.17 39.23 55.41 40.19 52.08 C 36.09 54.99 31.22 56.37 26.15 56.09 C 25.08 56.47 21.14 55.58 23.99 55.03 C 26.96 54.77 30.03 55.04 32.92 54.18 C 35.56 53.70 37.59 51.89 39.63 50.28 C 41.20 50.83 42.10 49.09 43.30 48.40 Z" />
</g>
<g id="#bf6663f5">
<path fill="#bf6663" opacity="0.96" d=" M 47.23 48.83 C 47.98 50.71 48.74 52.73 50.52 53.88 C 50.76 52.69 51.35 52.30 52.28 52.72 C 53.54 54.66 51.39 55.99 49.99 56.91 C 48.33 56.36 48.13 53.81 46.94 52.55 C 46.99 51.88 47.09 50.54 47.14 49.87 L 47.23 48.83 Z" />
</g>
<g id="#d1b38fff">
<path fill="#d1b38f" opacity="1.00" d=" M 26.15 56.09 C 31.22 56.37 36.09 54.99 40.19 52.08 C 39.23 55.41 37.01 58.17 34.61 60.59 C 31.54 61.64 28.08 60.61 24.91 60.85 C 25.68 59.35 27.12 57.85 26.15 56.09 Z" />
</g>
<g id="#dca696fd">
<path fill="#dca696" opacity="1.00" d=" M 38.37 61.38 C 41.44 60.81 42.49 55.48 45.24 55.60 C 45.27 57.92 44.27 60.07 42.88 61.88 C 40.91 62.28 38.96 62.76 36.96 63.00 L 36.00 63.03 C 33.24 63.09 30.45 62.92 27.76 63.61 C 26.86 63.39 25.96 63.17 25.06 62.95 L 24.72 62.22 C 29.26 61.87 33.95 62.34 38.37 61.38 Z" />
</g>
<g id="#c09776ed">
<path fill="#c09776" opacity="0.93" d=" M 36.96 63.00 C 38.96 62.76 40.91 62.28 42.88 61.88 C 42.69 64.36 40.54 67.75 43.69 69.33 C 45.75 71.91 50.32 72.94 48.99 77.08 C 46.06 76.46 43.98 73.98 41.32 72.71 C 40.68 71.39 39.99 70.09 39.34 68.78 C 39.03 66.48 39.17 64.16 36.96 63.00 Z" />
</g>
<g id="#be9276f0">
<path fill="#be9276" opacity="0.94" d=" M 23.18 63.82 C 23.65 63.60 24.59 63.17 25.06 62.95 C 25.96 63.17 26.86 63.39 27.76 63.61 C 27.31 66.00 22.68 66.44 24.00 69.85 C 25.81 70.14 28.39 69.54 29.02 71.85 C 23.97 72.41 19.96 75.29 15.25 76.80 C 15.01 73.15 10.23 75.16 7.86 75.81 C 8.20 74.58 8.71 73.40 9.23 72.23 C 13.57 73.15 17.01 70.56 20.16 68.18 C 21.63 67.08 21.39 64.52 23.18 63.82 Z" />
</g>
<g id="#34262279">
<path fill="#342622" opacity="0.47" d=" M 27.76 63.61 C 30.45 62.92 33.24 63.09 36.00 63.03 C 35.04 65.24 30.19 63.61 27.76 63.61 Z" />
</g>
<g id="#e9cc90fc">
<path fill="#e9cc90" opacity="1.00" d=" M 39.34 68.78 C 39.99 70.09 40.68 71.39 41.32 72.71 C 41.08 74.10 41.19 76.99 39.17 76.83 C 36.61 75.07 37.38 70.77 39.34 68.78 Z" />
</g>
</svg>
