<?xml version="1.0" encoding="UTF-8" ?>
<!DOCTYPE svg PUBLIC "-//W3C//DTD SVG 1.1//EN" "http://www.w3.org/Graphics/SVG/1.1/DTD/svg11.dtd">
<svg width="260pt" height="107pt" viewBox="0 0 260 107" version="1.1" xmlns="http://www.w3.org/2000/svg">
<g id="#e1dbc9e7">
<path fill="#e1dbc9" opacity="0.91" d=" M 20.94 9.83 C 21.85 7.19 18.53 0.74 22.65 0.89 C 21.75 3.17 23.38 5.04 24.34 6.96 C 22.48 7.03 21.67 8.16 21.73 10.01 L 20.94 9.83 Z" />
</g>
<g id="#f3e8bff7">
<path fill="#f3e8bf" opacity="0.97" d=" M 218.97 11.81 C 221.88 8.09 224.11 3.63 228.00 0.84 C 227.89 4.22 227.36 7.57 226.98 10.93 C 228.25 10.38 229.29 8.94 230.76 9.12 C 232.37 11.69 234.31 14.09 235.71 16.79 C 232.42 20.94 228.48 24.45 224.11 27.42 C 219.50 23.83 221.21 16.81 218.97 11.81 Z" />
</g>
<g id="#f6ebc3f9">
<path fill="#f6ebc3" opacity="0.98" d=" M 204.86 12.85 C 209.40 7.71 214.49 2.08 221.92 1.97 C 220.55 8.00 214.46 11.15 211.15 16.05 C 208.56 15.81 206.20 16.82 203.91 17.87 C 204.13 16.18 204.52 14.52 204.86 12.85 Z" />
</g>
<g id="#beb59cc0">
<path fill="#beb59c" opacity="0.75" d=" M 21.73 10.01 C 21.67 8.16 22.48 7.03 24.34 6.96 C 25.42 9.23 26.31 11.60 26.88 14.05 L 25.73 14.28 C 24.81 12.69 22.96 6.21 22.67 11.20 C 22.44 10.90 21.97 10.30 21.73 10.01 Z" />
</g>
<g id="#e1ceacf5">
<path fill="#e1ceac" opacity="0.96" d=" M 15.74 19.48 C 13.71 15.98 16.18 7.59 20.94 9.83 L 21.73 10.01 C 21.97 10.30 22.44 10.90 22.67 11.20 C 23.34 13.41 24.24 15.54 24.84 17.77 C 24.61 18.31 24.13 19.39 23.89 19.93 C 21.25 18.05 18.57 18.92 15.74 19.48 Z" />
</g>
<g id="#3b312142">
<path fill="#3b3121" opacity="0.26" d=" M 22.67 11.20 C 22.96 6.21 24.81 12.69 25.73 14.28 C 26.02 15.88 26.38 17.49 27.20 18.92 C 27.29 22.94 25.68 19.40 24.84 17.77 C 24.24 15.54 23.34 13.41 22.67 11.20 Z" />
</g>
<g id="#e2c8a1fc">
<path fill="#e2c8a1" opacity="1.00" d=" M 211.93 17.82 C 214.19 15.72 216.72 13.92 218.97 11.81 C 221.21 16.81 219.50 23.83 224.11 27.42 C 222.92 28.52 221.69 29.61 220.23 30.35 C 218.17 30.08 215.99 30.08 214.14 29.00 C 210.93 25.90 210.99 21.90 211.93 17.82 Z" />
</g>
<g id="#cf924df2">
<path fill="#cf924d" opacity="0.95" d=" M 165.41 43.47 C 179.64 34.70 192.52 24.08 204.86 12.85 C 204.52 14.52 204.13 16.18 203.91 17.87 C 206.20 16.82 208.56 15.81 211.15 16.05 C 210.22 17.14 209.22 18.16 208.16 19.12 C 203.06 20.14 197.22 20.94 194.04 25.58 C 189.93 29.47 185.54 33.06 180.83 36.19 C 175.93 39.72 171.13 43.94 165.21 45.54 L 164.60 45.04 C 164.80 44.65 165.21 43.87 165.41 43.47 Z" />
</g>
<g id="#ddbf60e4">
<path fill="#ddbf60" opacity="0.89" d=" M 25.73 14.28 L 26.88 14.05 C 29.46 21.92 34.10 28.79 38.10 35.96 C 33.31 33.18 31.70 27.44 29.16 22.84 C 28.60 21.49 27.93 20.19 27.20 18.92 C 26.38 17.49 26.02 15.88 25.73 14.28 Z" />
</g>
<g id="#c6b59df8">
<path fill="#c6b59d" opacity="0.97" d=" M 15.74 19.48 C 18.57 18.92 21.25 18.05 23.89 19.93 C 24.39 21.70 24.91 23.45 25.34 25.24 C 24.23 26.80 22.88 28.14 21.19 29.06 C 18.71 26.29 17.38 22.76 15.74 19.48 Z" />
</g>
<g id="#cb9150f4">
<path fill="#cb9150" opacity="0.96" d=" M 23.89 19.93 C 24.13 19.39 24.61 18.31 24.84 17.77 C 25.68 19.40 27.29 22.94 27.20 18.92 C 27.93 20.19 28.60 21.49 29.16 22.84 C 28.19 24.11 26.92 24.95 25.34 25.24 C 24.91 23.45 24.39 21.70 23.89 19.93 Z" />
</g>
<g id="#c2674dcf">
<path fill="#c2674d" opacity="0.81" d=" M 100.09 17.85 C 103.36 19.13 101.56 22.83 100.83 25.24 L 100.10 25.23 C 100.07 24.67 100.01 23.53 99.98 22.97 C 99.99 21.26 100.00 19.55 100.09 17.85 Z" />
</g>
<g id="#cfa370fb">
<path fill="#cfa370" opacity="1.00" d=" M 210.83 18.88 C 211.11 18.61 211.66 18.08 211.93 17.82 C 210.99 21.90 210.93 25.90 214.14 29.00 C 212.74 28.35 211.31 27.70 210.04 26.80 C 209.76 24.10 210.33 21.49 210.83 18.88 Z" />
</g>
<g id="#c88947fd">
<path fill="#c88947" opacity="1.00" d=" M 194.04 25.58 C 197.22 20.94 203.06 20.14 208.16 19.12 C 207.01 20.39 205.87 21.68 204.92 23.10 C 207.49 22.79 208.95 20.39 210.83 18.88 C 210.33 21.49 209.76 24.10 210.04 26.80 C 211.31 27.70 212.74 28.35 214.14 29.00 C 215.99 30.08 218.17 30.08 220.23 30.35 C 218.52 31.34 216.88 32.43 215.20 33.48 C 212.39 31.79 209.98 29.44 207.02 28.01 C 199.54 32.56 190.61 33.36 183.03 37.85 C 182.75 37.70 182.17 37.41 181.88 37.26 C 186.24 33.90 190.77 30.73 194.76 26.93 C 194.58 26.59 194.22 25.92 194.04 25.58 Z" />
</g>
<g id="#ca6c54db">
<path fill="#ca6c54" opacity="0.86" d=" M 103.23 20.11 C 106.54 19.01 104.59 23.51 104.03 25.14 C 103.59 25.16 102.72 25.20 102.29 25.22 C 102.64 23.52 102.90 21.81 103.23 20.11 Z" />
</g>
<g id="#b27941fd">
<path fill="#b27941" opacity="1.00" d=" M 25.34 25.24 C 26.92 24.95 28.19 24.11 29.16 22.84 C 31.70 27.44 33.31 33.18 38.10 35.96 C 38.81 36.60 39.51 37.26 40.19 37.93 C 39.63 40.20 41.70 42.34 43.98 41.88 C 44.27 42.97 44.59 44.06 44.92 45.14 C 39.19 44.54 33.70 42.39 29.12 38.87 C 26.36 35.70 23.93 32.25 21.19 29.06 C 22.88 28.14 24.23 26.80 25.34 25.24 Z" />
</g>
<g id="#9d5241ae">
<path fill="#9d5241" opacity="0.68" d=" M 97.07 28.19 C 97.05 25.63 96.09 21.88 99.98 22.97 C 100.01 23.53 100.07 24.67 100.10 25.23 C 99.11 26.25 98.10 27.23 97.07 28.19 Z" />
</g>
<g id="#d57158f8">
<path fill="#d57158" opacity="0.97" d=" M 100.10 25.23 L 100.83 25.24 C 101.20 25.23 101.93 25.22 102.29 25.22 C 102.72 25.20 103.59 25.16 104.03 25.14 C 103.93 27.07 103.39 29.73 106.10 28.28 C 105.83 30.91 105.15 33.48 104.96 36.13 C 104.32 35.39 103.68 34.66 103.04 33.93 C 102.73 36.26 102.44 38.59 102.15 40.93 L 102.03 41.82 C 101.10 43.56 99.95 45.17 98.92 46.85 C 97.26 46.31 95.54 45.96 93.82 45.64 C 94.85 42.61 95.00 39.43 94.68 36.24 C 94.71 34.43 94.78 32.56 96.96 33.68 C 96.98 32.99 97.00 31.59 97.01 30.89 C 97.02 30.22 97.06 28.87 97.07 28.19 C 98.10 27.23 99.11 26.25 100.10 25.23 Z" />
</g>
<g id="#81592eff">
<path fill="#81592e" opacity="1.00" d=" M 180.83 36.19 C 185.54 33.06 189.93 29.47 194.04 25.58 C 194.22 25.92 194.58 26.59 194.76 26.93 C 190.77 30.73 186.24 33.90 181.88 37.26 C 181.62 36.99 181.10 36.46 180.83 36.19 Z" />
</g>
<g id="#bc7f42fc">
<path fill="#bc7f42" opacity="1.00" d=" M 183.03 37.85 C 190.61 33.36 199.54 32.56 207.02 28.01 C 209.98 29.44 212.39 31.79 215.20 33.48 C 211.83 36.78 205.59 37.64 203.92 42.07 C 208.40 40.25 213.16 39.20 218.01 38.98 L 218.00 39.93 C 214.08 38.58 213.45 44.28 215.78 45.97 C 216.32 46.23 217.39 46.74 217.93 46.99 C 219.84 48.53 221.27 50.80 223.84 51.29 C 224.86 52.17 225.93 53.00 227.00 53.83 C 226.43 54.12 225.30 54.70 224.73 54.99 L 223.76 55.09 C 223.34 55.11 222.48 55.15 222.06 55.17 L 221.34 54.72 C 219.86 53.84 218.46 52.81 216.91 52.05 C 214.66 52.17 212.51 53.01 210.25 52.98 C 209.79 51.40 210.40 49.23 208.68 48.30 C 205.28 47.34 201.06 48.03 198.06 45.83 C 198.00 42.81 198.76 39.82 198.91 36.81 C 196.62 37.06 196.47 39.75 195.17 41.20 C 192.20 46.04 185.48 44.47 181.03 47.08 C 175.15 49.95 167.99 54.52 161.52 50.97 C 162.65 49.05 163.71 47.08 164.60 45.04 L 165.21 45.54 C 171.13 43.94 175.93 39.72 180.83 36.19 C 181.10 36.46 181.62 36.99 181.88 37.26 C 182.17 37.41 182.75 37.70 183.03 37.85 Z" />
</g>
<g id="#47251d54">
<path fill="#47251d" opacity="0.33" d=" M 94.68 36.24 C 93.25 33.80 94.28 31.49 97.01 30.89 C 97.00 31.59 96.98 32.99 96.96 33.68 C 94.78 32.56 94.71 34.43 94.68 36.24 Z" />
</g>
<g id="#ddcdacf3">
<path fill="#ddcdac" opacity="0.95" d=" M 4.17 33.05 C 8.22 33.68 12.26 34.55 16.15 35.87 C 13.08 38.58 11.28 42.42 8.09 45.02 C 8.48 46.71 11.41 49.71 7.88 49.28 C 5.06 48.69 2.50 47.34 0.00 45.95 L 0.00 44.41 C 0.77 42.43 1.32 40.37 2.16 38.42 C 3.48 38.57 4.80 38.81 6.12 38.95 C 4.39 37.42 1.32 35.21 4.17 33.05 Z" />
</g>
<g id="#e99856f8">
<path fill="#e99856" opacity="0.97" d=" M 104.96 36.13 C 106.73 33.21 111.15 31.19 112.36 35.67 L 111.82 36.57 C 110.77 37.26 109.78 38.02 108.87 38.88 C 106.68 37.83 105.57 38.69 105.42 41.02 C 104.45 39.81 103.26 40.25 102.15 40.93 C 102.44 38.59 102.73 36.26 103.04 33.93 C 103.68 34.66 104.32 35.39 104.96 36.13 Z" />
</g>
<g id="#f5edcaf7">
<path fill="#f5edca" opacity="0.97" d=" M 230.03 37.01 C 234.63 36.47 239.03 34.54 243.75 35.09 C 245.09 35.84 245.11 37.31 244.86 38.65 C 243.12 39.58 239.85 39.24 239.82 41.84 C 241.79 41.27 243.70 40.46 245.74 40.12 C 247.15 42.86 248.17 45.80 248.72 48.84 C 245.97 50.01 243.08 50.85 240.16 51.47 C 238.77 49.98 238.41 47.08 235.96 47.05 C 232.74 46.98 233.21 42.57 230.37 41.60 C 228.20 40.81 229.84 38.54 230.03 37.01 Z" />
</g>
<g id="#cebea2f7">
<path fill="#cebea2" opacity="0.97" d=" M 16.15 35.87 C 17.37 36.25 18.57 36.68 19.78 37.10 C 18.46 39.54 20.59 41.81 21.33 44.07 C 18.04 43.72 17.12 47.66 15.74 49.90 C 15.55 50.36 15.17 51.29 14.99 51.76 C 18.96 52.93 23.44 52.88 26.97 55.17 C 26.87 57.31 26.16 59.34 25.74 61.43 C 21.91 61.48 18.40 59.50 15.01 57.99 C 11.05 56.61 11.66 50.91 7.88 49.28 C 11.41 49.71 8.48 46.71 8.09 45.02 C 11.28 42.42 13.08 38.58 16.15 35.87 Z" />
</g>
<g id="#bf8244fd">
<path fill="#bf8244" opacity="1.00" d=" M 112.36 35.67 C 113.13 36.72 113.89 37.78 114.67 38.83 L 115.20 39.61 C 116.00 42.15 115.08 44.97 116.66 47.30 C 119.28 51.57 117.01 56.64 113.85 59.86 C 109.19 58.97 108.83 53.35 107.10 49.72 C 107.21 48.76 107.36 47.80 107.55 46.86 C 107.84 47.13 108.41 47.69 108.69 47.97 C 108.62 45.42 110.44 43.87 112.86 43.62 C 112.71 41.24 112.04 38.94 111.82 36.57 L 112.36 35.67 Z" />
</g>
<g id="#c8935af8">
<path fill="#c8935a" opacity="0.97" d=" M 19.78 37.10 C 20.86 37.47 21.94 37.83 23.02 38.19 C 19.84 39.02 22.73 42.13 21.33 44.07 C 20.59 41.81 18.46 39.54 19.78 37.10 Z" />
</g>
<g id="#ac6f38ff">
<path fill="#ac6f38" opacity="1.00" d=" M 108.87 38.88 C 109.78 38.02 110.77 37.26 111.82 36.57 C 112.04 38.94 112.71 41.24 112.86 43.62 C 110.44 43.87 108.62 45.42 108.69 47.97 C 108.41 47.69 107.84 47.13 107.55 46.86 C 108.00 44.20 108.63 41.57 108.87 38.88 Z" />
</g>
<g id="#b3763cfd">
<path fill="#b3763c" opacity="1.00" d=" M 195.17 41.20 C 196.47 39.75 196.62 37.06 198.91 36.81 C 198.76 39.82 198.00 42.81 198.06 45.83 C 201.06 48.03 205.28 47.34 208.68 48.30 C 210.40 49.23 209.79 51.40 210.25 52.98 C 212.51 53.01 214.66 52.17 216.91 52.05 C 218.46 52.81 219.86 53.84 221.34 54.72 C 219.75 54.99 216.57 55.52 214.98 55.78 C 213.61 56.12 212.23 56.45 210.86 56.81 C 209.21 57.11 207.26 56.78 206.05 58.19 C 206.23 59.74 206.77 61.21 207.32 62.66 C 208.54 65.64 212.46 63.59 215.02 64.02 L 214.92 64.96 C 213.85 65.19 212.78 65.44 211.72 65.73 C 211.25 65.80 210.31 65.94 209.83 66.00 L 209.06 65.72 C 206.53 64.82 204.14 67.52 201.65 68.04 C 201.29 67.98 200.58 67.85 200.22 67.79 C 198.79 67.33 197.31 67.00 195.84 66.74 C 197.20 65.41 198.80 64.32 200.06 62.89 C 200.03 61.11 198.26 60.03 197.45 58.57 C 196.72 54.77 197.31 50.71 195.83 47.07 C 192.65 48.27 186.60 44.55 184.92 48.89 C 188.20 49.94 191.70 49.78 195.11 50.18 C 193.07 52.51 190.99 55.86 187.00 53.94 C 178.65 53.50 170.58 56.52 162.23 55.95 C 161.03 54.98 160.98 53.43 160.77 52.03 C 160.96 51.76 161.33 51.24 161.52 50.97 C 167.99 54.52 175.15 49.95 181.03 47.08 C 185.48 44.47 192.20 46.04 195.17 41.20 Z" />
</g>
<g id="#e5d0abfa">
<path fill="#e5d0ab" opacity="0.98" d=" M 218.01 38.98 C 222.05 38.53 225.94 37.12 230.03 37.01 C 229.84 38.54 228.20 40.81 230.37 41.60 C 233.21 42.57 232.74 46.98 235.96 47.05 C 238.41 47.08 238.77 49.98 240.16 51.47 C 239.06 51.73 237.95 51.95 236.83 52.12 C 235.64 52.04 234.96 52.61 234.77 53.80 C 231.46 54.46 228.09 54.71 224.73 54.99 C 225.30 54.70 226.43 54.12 227.00 53.83 C 228.60 52.24 229.45 49.49 229.84 47.22 C 227.25 42.62 220.33 46.27 218.08 41.84 C 218.06 41.36 218.02 40.41 218.00 39.93 L 218.01 38.98 Z" />
</g>
<g id="#b17d45fe">
<path fill="#b17d45" opacity="1.00" d=" M 23.02 38.19 C 24.27 38.57 25.52 38.94 26.78 39.28 C 28.68 39.79 31.23 40.18 28.17 41.43 C 29.35 42.69 31.55 43.58 30.97 45.70 C 29.31 46.09 27.51 46.09 26.05 47.04 C 28.57 51.75 30.75 56.67 34.01 60.94 C 31.24 60.95 28.48 61.11 25.74 61.43 C 26.16 59.34 26.87 57.31 26.97 55.17 C 23.44 52.88 18.96 52.93 14.99 51.76 C 15.17 51.29 15.55 50.36 15.74 49.90 C 18.14 48.59 20.02 46.44 21.33 44.07 C 22.73 42.13 19.84 39.02 23.02 38.19 Z" />
</g>
<g id="#d09b4de1">
<path fill="#d09b4d" opacity="0.88" d=" M 40.19 37.93 C 41.79 38.88 43.14 40.20 43.98 41.88 C 41.70 42.34 39.63 40.20 40.19 37.93 Z" />
</g>
<g id="#f0af5cff">
<path fill="#f0af5c" opacity="1.00" d=" M 105.42 41.02 C 105.57 38.69 106.68 37.83 108.87 38.88 C 108.63 41.57 108.00 44.20 107.55 46.86 C 107.36 47.80 107.21 48.76 107.10 49.72 C 106.60 50.03 105.60 50.64 105.10 50.95 C 103.88 47.67 104.75 44.31 105.42 41.02 Z" />
</g>
<g id="#dbbc8be9">
<path fill="#dbbc8b" opacity="0.91" d=" M 114.67 38.83 C 117.69 38.64 120.53 39.28 123.18 40.76 L 123.06 41.88 C 120.12 42.50 117.46 41.44 115.20 39.61 L 114.67 38.83 Z" />
</g>
<g id="#a76e39fe">
<path fill="#a76e39" opacity="1.00" d=" M 26.78 39.28 C 27.37 39.17 28.54 38.97 29.12 38.87 C 33.70 42.39 39.19 44.54 44.92 45.14 C 46.20 46.30 47.67 47.18 49.23 47.88 C 50.22 48.83 51.16 49.82 52.06 50.85 C 53.44 53.55 55.94 55.34 58.74 56.36 C 62.49 58.32 66.86 58.39 70.96 59.16 L 71.09 60.14 C 62.99 62.52 55.47 58.17 48.67 54.37 C 43.95 52.71 38.80 53.13 33.95 52.01 C 33.12 54.93 36.55 55.59 36.94 58.04 C 37.46 60.81 40.52 61.81 42.23 63.78 C 39.51 63.64 33.86 65.90 35.72 61.95 C 35.07 61.98 33.77 62.05 33.11 62.08 C 32.64 62.12 31.70 62.19 31.23 62.23 C 29.39 62.07 27.55 61.81 25.74 61.43 C 28.48 61.11 31.24 60.95 34.01 60.94 C 30.75 56.67 28.57 51.75 26.05 47.04 C 27.51 46.09 29.31 46.09 30.97 45.70 C 31.55 43.58 29.35 42.69 28.17 41.43 C 31.23 40.18 28.68 39.79 26.78 39.28 Z" />
</g>
<g id="#b4773fff">
<path fill="#b4773f" opacity="1.00" d=" M 102.15 40.93 C 103.26 40.25 104.45 39.81 105.42 41.02 C 104.75 44.31 103.88 47.67 105.10 50.95 C 105.60 50.64 106.60 50.03 107.10 49.72 C 108.83 53.35 109.19 58.97 113.85 59.86 C 117.01 56.64 119.28 51.57 116.66 47.30 C 115.08 44.97 116.00 42.15 115.20 39.61 C 117.46 41.44 120.12 42.50 123.06 41.88 C 123.02 42.37 122.95 43.33 122.91 43.81 L 121.98 43.53 C 120.99 43.21 119.98 43.02 118.95 42.94 C 119.01 45.96 120.92 48.48 121.59 51.36 C 121.63 55.52 121.38 59.69 120.84 63.81 C 117.20 65.30 111.45 69.13 108.80 64.25 C 107.24 60.45 107.25 56.02 105.90 52.06 C 104.89 52.56 103.92 53.13 102.95 53.70 C 102.45 53.56 101.45 53.29 100.94 53.16 C 100.79 52.56 100.49 51.36 100.33 50.76 C 99.98 49.42 99.49 48.12 98.92 46.85 C 102.37 48.04 104.35 45.52 103.98 42.23 C 103.49 42.13 102.52 41.92 102.03 41.82 L 102.15 40.93 Z" />
</g>
<g id="#d3a46fff">
<path fill="#d3a46f" opacity="1.00" d=" M 215.78 45.97 C 213.45 44.28 214.08 38.58 218.00 39.93 C 218.02 40.41 218.06 41.36 218.08 41.84 C 216.75 42.88 215.97 44.29 215.78 45.97 Z" />
</g>
<g id="#f4c893ff">
<path fill="#f4c893" opacity="1.00" d=" M 123.18 40.76 L 123.88 41.04 C 124.70 44.18 128.76 44.39 131.23 45.80 C 129.74 45.93 128.26 46.07 126.78 46.21 C 125.35 45.64 124.15 44.69 122.91 43.81 C 122.95 43.33 123.02 42.37 123.06 41.88 L 123.18 40.76 Z" />
</g>
<g id="#ece5b7ed">
<path fill="#ece5b7" opacity="0.93" d=" M 123.88 41.04 C 128.11 42.54 132.36 44.07 136.32 46.20 C 134.65 47.01 132.90 46.09 131.23 45.80 C 128.76 44.39 124.70 44.18 123.88 41.04 Z" />
</g>
<g id="#ce8e4ae8">
<path fill="#ce8e4a" opacity="0.91" d=" M 43.98 41.88 C 45.93 43.70 48.06 45.41 49.23 47.88 C 47.67 47.18 46.20 46.30 44.92 45.14 C 44.59 44.06 44.27 42.97 43.98 41.88 Z" />
</g>
<g id="#ceccc3ff">
<path fill="#ceccc3" opacity="1.00" d=" M 102.03 41.82 C 102.52 41.92 103.49 42.13 103.98 42.23 C 104.35 45.52 102.37 48.04 98.92 46.85 C 99.95 45.17 101.10 43.56 102.03 41.82 Z" />
</g>
<g id="#d9be98ff">
<path fill="#d9be98" opacity="1.00" d=" M 218.08 41.84 C 220.33 46.27 227.25 42.62 229.84 47.22 C 229.45 49.49 228.60 52.24 227.00 53.83 C 225.93 53.00 224.86 52.17 223.84 51.29 C 222.28 49.26 221.00 46.40 217.93 46.99 C 217.39 46.74 216.32 46.23 215.78 45.97 C 215.97 44.29 216.75 42.88 218.08 41.84 Z" />
</g>
<g id="#a46a35fc">
<path fill="#a46a35" opacity="1.00" d=" M 118.95 42.94 C 119.98 43.02 120.99 43.21 121.98 43.53 C 120.68 47.43 125.22 49.34 126.97 52.00 C 125.84 54.14 124.44 56.12 123.14 58.15 C 123.63 59.85 123.19 63.62 125.84 62.93 C 126.67 61.44 128.34 58.47 129.18 56.98 C 132.21 58.62 134.64 61.11 137.22 63.37 C 137.45 64.83 137.68 66.30 137.67 67.79 C 137.34 69.29 138.38 70.58 138.97 71.87 C 138.52 71.95 137.61 72.11 137.16 72.19 C 136.57 76.80 137.51 81.63 136.14 86.11 C 131.70 85.37 128.62 80.39 124.00 81.57 C 119.47 78.98 114.13 80.64 109.19 80.95 C 108.01 76.38 107.47 71.66 105.93 67.20 C 105.49 66.03 104.87 64.94 104.25 63.86 C 105.01 60.43 104.92 56.73 102.95 53.70 C 103.92 53.13 104.89 52.56 105.90 52.06 C 107.25 56.02 107.24 60.45 108.80 64.25 C 111.45 69.13 117.20 65.30 120.84 63.81 C 121.38 59.69 121.63 55.52 121.59 51.36 C 120.92 48.48 119.01 45.96 118.95 42.94 Z" />
</g>
<g id="#bc9970ff">
<path fill="#bc9970" opacity="1.00" d=" M 15.74 49.90 C 17.12 47.66 18.04 43.72 21.33 44.07 C 20.02 46.44 18.14 48.59 15.74 49.90 Z" />
</g>
<g id="#9e6432fc">
<path fill="#9e6432" opacity="1.00" d=" M 126.97 52.00 C 125.22 49.34 120.68 47.43 121.98 43.53 L 122.91 43.81 C 124.15 44.69 125.35 45.64 126.78 46.21 C 128.29 46.91 129.86 47.57 131.11 48.72 C 128.43 54.16 135.86 56.30 138.13 60.08 C 137.85 61.18 137.55 62.28 137.22 63.37 C 134.64 61.11 132.21 58.62 129.18 56.98 C 128.34 58.47 126.67 61.44 125.84 62.93 C 123.19 63.62 123.63 59.85 123.14 58.15 C 124.44 56.12 125.84 54.14 126.97 52.00 Z" />
</g>
<g id="#d1a7a2fe">
<path fill="#d1a7a2" opacity="1.00" d=" M 92.88 47.79 C 93.12 47.25 93.59 46.18 93.82 45.64 C 95.54 45.96 97.26 46.31 98.92 46.85 C 99.49 48.12 99.98 49.42 100.33 50.76 C 98.99 51.98 97.35 53.02 96.68 54.79 C 95.99 56.02 95.40 57.29 94.82 58.57 L 94.29 59.09 C 93.39 57.59 92.30 56.17 91.92 54.43 C 93.04 52.37 94.71 49.95 92.88 47.79 Z" />
</g>
<g id="#d6b795f3">
<path fill="#d6b795" opacity="0.95" d=" M 126.78 46.21 C 128.26 46.07 129.74 45.93 131.23 45.80 C 132.90 46.09 134.65 47.01 136.32 46.20 C 138.93 46.75 141.47 47.58 143.98 48.49 C 143.60 49.35 143.53 50.25 143.76 51.19 C 139.60 51.81 136.35 46.98 132.48 48.83 C 132.14 48.80 131.46 48.75 131.11 48.72 C 129.86 47.57 128.29 46.91 126.78 46.21 Z" />
</g>
<g id="#a96d37fc">
<path fill="#a96d37" opacity="1.00" d=" M 184.92 48.89 C 186.60 44.55 192.65 48.27 195.83 47.07 C 197.31 50.71 196.72 54.77 197.45 58.57 C 198.26 60.03 200.03 61.11 200.06 62.89 C 198.80 64.32 197.20 65.41 195.84 66.74 C 194.12 66.93 192.41 67.09 190.69 67.25 L 191.20 66.31 C 193.93 64.70 194.34 61.94 192.66 59.34 C 188.79 56.20 183.75 57.77 179.23 57.18 C 174.61 59.35 188.94 63.37 176.45 60.38 C 171.25 58.78 165.84 59.49 160.76 61.21 C 156.82 60.68 152.92 61.60 149.00 61.79 C 145.35 61.39 141.78 60.45 138.13 60.08 C 135.86 56.30 128.43 54.16 131.11 48.72 C 131.46 48.75 132.14 48.80 132.48 48.83 L 133.06 49.61 C 138.34 54.74 145.28 61.48 153.25 58.38 C 155.07 57.63 156.92 56.74 158.20 55.19 C 158.49 54.86 159.08 54.19 159.37 53.86 C 159.85 53.26 160.32 52.65 160.77 52.03 C 160.98 53.43 161.03 54.98 162.23 55.95 C 170.58 56.52 178.65 53.50 187.00 53.94 C 190.99 55.86 193.07 52.51 195.11 50.18 C 191.70 49.78 188.20 49.94 184.92 48.89 Z" />
</g>
<g id="#cca273ff">
<path fill="#cca273" opacity="1.00" d=" M 217.93 46.99 C 221.00 46.40 222.28 49.26 223.84 51.29 C 221.27 50.80 219.84 48.53 217.93 46.99 Z" />
</g>
<g id="#dec09df2">
<path fill="#dec09d" opacity="0.95" d=" M 82.78 51.77 C 86.11 50.36 89.45 48.95 92.88 47.79 C 94.71 49.95 93.04 52.37 91.92 54.43 L 91.09 53.96 L 91.34 53.12 C 91.51 52.61 91.85 51.58 92.02 51.06 C 88.93 51.25 85.85 51.57 82.78 51.77 Z" />
</g>
<g id="#c4a282ff">
<path fill="#c4a282" opacity="1.00" d=" M 132.48 48.83 C 136.35 46.98 139.60 51.81 143.76 51.19 C 144.83 51.48 145.90 51.77 146.97 52.05 L 146.82 53.08 C 144.91 52.98 142.99 52.87 141.08 52.64 C 138.43 51.59 135.79 50.46 133.06 49.61 L 132.48 48.83 Z" />
</g>
<g id="#e7debeec">
<path fill="#e7debe" opacity="0.93" d=" M 143.76 51.19 C 143.53 50.25 143.60 49.35 143.98 48.49 C 149.03 50.51 154.22 52.10 159.37 53.86 C 159.08 54.19 158.49 54.86 158.20 55.19 C 157.46 55.10 155.98 54.91 155.24 54.82 C 152.58 53.64 149.82 52.66 146.97 52.05 C 145.90 51.77 144.83 51.48 143.76 51.19 Z" />
</g>
<g id="#e1964bff">
<path fill="#e1964b" opacity="1.00" d=" M 133.06 49.61 C 135.79 50.46 138.43 51.59 141.08 52.64 C 139.12 54.68 144.58 55.31 145.87 56.86 C 148.11 58.06 150.57 58.56 153.25 58.38 C 145.28 61.48 138.34 54.74 133.06 49.61 Z" />
</g>
<g id="#d39d4fe7">
<path fill="#d39d4f" opacity="0.91" d=" M 52.06 50.85 C 54.89 52.33 57.81 53.75 61.02 54.21 L 61.02 54.94 L 60.99 55.89 C 60.43 56.01 59.30 56.24 58.74 56.36 C 55.94 55.34 53.44 53.55 52.06 50.85 Z" />
</g>
<g id="#f4b25efb">
<path fill="#f4b25e" opacity="1.00" d=" M 82.78 51.77 C 85.85 51.57 88.93 51.25 92.02 51.06 C 91.85 51.58 91.51 52.61 91.34 53.12 C 88.45 53.51 85.65 54.48 83.18 56.03 C 81.79 56.07 80.41 56.12 79.03 56.18 C 76.73 53.98 81.21 54.10 78.87 52.53 C 80.16 52.24 81.47 52.00 82.78 51.77 Z" />
</g>
<g id="#9f726cff">
<path fill="#9f726c" opacity="1.00" d=" M 100.33 50.76 C 100.49 51.36 100.79 52.56 100.94 53.16 C 99.52 53.70 98.10 54.25 96.68 54.79 C 97.35 53.02 98.99 51.98 100.33 50.76 Z" />
</g>
<g id="#986232fb">
<path fill="#986232" opacity="1.00" d=" M 33.95 52.01 C 38.80 53.13 43.95 52.71 48.67 54.37 C 55.47 58.17 62.99 62.52 71.09 60.14 C 73.81 60.13 76.52 60.14 79.24 60.20 C 72.59 63.02 65.16 63.29 58.13 64.64 C 55.03 64.21 51.78 63.53 48.73 64.64 C 48.34 64.73 47.55 64.90 47.16 64.98 C 45.68 64.06 43.91 63.99 42.23 63.78 C 40.52 61.81 37.46 60.81 36.94 58.04 C 36.55 55.59 33.12 54.93 33.95 52.01 Z" />
</g>
<g id="#e5be92ff">
<path fill="#e5be92" opacity="1.00" d=" M 146.97 52.05 C 149.82 52.66 152.58 53.64 155.24 54.82 C 153.21 54.88 151.17 54.93 149.13 54.88 C 148.36 54.29 147.59 53.69 146.82 53.08 L 146.97 52.05 Z" />
</g>
<g id="#7674637b">
<path fill="#767463" opacity="0.48" d=" M 234.77 53.80 C 234.96 52.61 235.64 52.04 236.83 52.12 C 237.91 52.35 241.57 54.16 239.36 54.72 C 237.85 54.32 236.31 54.03 234.77 53.80 Z" />
</g>
<g id="#f2d474f5">
<path fill="#f2d474" opacity="0.96" d=" M 68.09 54.20 C 71.69 53.74 75.30 53.22 78.87 52.53 C 81.21 54.10 76.73 53.98 79.03 56.18 C 73.04 57.58 66.93 57.08 60.99 55.89 L 61.02 54.94 C 63.76 56.12 66.12 55.88 68.09 54.20 Z" />
</g>
<g id="#b87a3dfa">
<path fill="#b87a3d" opacity="0.98" d=" M 83.18 56.03 C 85.65 54.48 88.45 53.51 91.34 53.12 L 91.09 53.96 C 90.01 55.94 88.79 57.84 87.84 59.90 C 84.97 60.03 82.10 60.08 79.24 60.20 C 76.52 60.14 73.81 60.13 71.09 60.14 L 70.96 59.16 C 74.37 58.16 81.74 61.04 83.18 56.03 Z" />
</g>
<g id="#935f33f4">
<path fill="#935f33" opacity="0.96" d=" M 96.68 54.79 C 98.10 54.25 99.52 53.70 100.94 53.16 C 101.45 53.29 102.45 53.56 102.95 53.70 C 104.92 56.73 105.01 60.43 104.25 63.86 C 103.79 63.63 102.87 63.16 102.41 62.93 C 102.06 61.99 101.72 61.06 101.39 60.12 C 98.94 60.46 95.86 61.86 94.82 58.57 C 95.40 57.29 95.99 56.02 96.68 54.79 Z" />
</g>
<g id="#fbc458ff">
<path fill="#fbc458" opacity="1.00" d=" M 145.87 56.86 C 144.58 55.31 139.12 54.68 141.08 52.64 C 142.99 52.87 144.91 52.98 146.82 53.08 C 147.59 53.69 148.36 54.29 149.13 54.88 C 147.63 55.01 145.59 54.70 145.87 56.86 Z" />
</g>
<g id="#32301732">
<path fill="#323017" opacity="0.20" d=" M 61.02 54.21 C 62.79 54.21 66.32 54.20 68.09 54.20 C 66.12 55.88 63.76 56.12 61.02 54.94 L 61.02 54.21 Z" />
</g>
<g id="#edd1d0f2">
<path fill="#edd1d0" opacity="0.95" d=" M 91.09 53.96 L 91.92 54.43 C 92.30 56.17 93.39 57.59 94.29 59.09 C 89.89 63.38 87.53 69.18 84.06 74.18 C 83.34 68.97 85.80 64.42 87.84 59.90 C 88.79 57.84 90.01 55.94 91.09 53.96 Z" />
</g>
<g id="#f7eecbf9">
<path fill="#f7eecb" opacity="0.98" d=" M 224.73 54.99 C 228.09 54.71 231.46 54.46 234.77 53.80 C 236.31 54.03 237.85 54.32 239.36 54.72 L 238.29 54.84 C 236.21 54.98 233.78 54.72 232.73 56.93 C 234.19 56.69 237.10 56.19 238.56 55.95 C 241.12 61.09 234.62 61.64 231.15 62.46 C 227.88 61.06 226.09 57.63 223.76 55.09 L 224.73 54.99 Z" />
</g>
<g id="#fce571ff">
<path fill="#fce571" opacity="1.00" d=" M 145.87 56.86 C 145.59 54.70 147.63 55.01 149.13 54.88 C 151.17 54.93 153.21 54.88 155.24 54.82 C 155.98 54.91 157.46 55.10 158.20 55.19 C 156.92 56.74 155.07 57.63 153.25 58.38 C 150.57 58.56 148.11 58.06 145.87 56.86 Z" />
</g>
<g id="#d5ac7cff">
<path fill="#d5ac7c" opacity="1.00" d=" M 214.98 55.78 C 216.57 55.52 219.75 54.99 221.34 54.72 L 222.06 55.17 C 220.43 57.19 218.07 57.39 214.98 55.78 Z" />
</g>
<g id="#e8d1abfd">
<path fill="#e8d1ab" opacity="1.00" d=" M 222.06 55.17 C 222.48 55.15 223.34 55.11 223.76 55.09 C 226.09 57.63 227.88 61.06 231.15 62.46 C 229.50 63.03 227.88 63.68 226.21 64.20 C 224.20 64.11 222.19 64.01 220.18 63.92 C 219.92 63.67 219.38 63.19 219.11 62.95 C 217.55 60.36 214.68 59.62 212.00 58.74 C 212.92 57.69 213.98 56.76 214.98 55.78 C 218.07 57.39 220.43 57.19 222.06 55.17 Z" />
</g>
<g id="#80807481">
<path fill="#808074" opacity="0.51" d=" M 232.73 56.93 C 233.78 54.72 236.21 54.98 238.29 54.84 L 238.56 55.95 C 237.10 56.19 234.19 56.69 232.73 56.93 Z" />
</g>
<g id="#cf8b48ff">
<path fill="#cf8b48" opacity="1.00" d=" M 58.74 56.36 C 59.30 56.24 60.43 56.01 60.99 55.89 C 66.93 57.08 73.04 57.58 79.03 56.18 C 80.41 56.12 81.79 56.07 83.18 56.03 C 81.74 61.04 74.37 58.16 70.96 59.16 C 66.86 58.39 62.49 58.32 58.74 56.36 Z" />
</g>
<g id="#d2a572ff">
<path fill="#d2a572" opacity="1.00" d=" M 210.86 56.81 C 212.23 56.45 213.61 56.12 214.98 55.78 C 213.98 56.76 212.92 57.69 212.00 58.74 C 214.68 59.62 217.55 60.36 219.11 62.95 C 216.07 61.78 212.95 60.67 210.18 58.93 C 210.35 58.40 210.69 57.34 210.86 56.81 Z" />
</g>
<g id="#9b6230fc">
<path fill="#9b6230" opacity="1.00" d=" M 179.23 57.18 C 183.75 57.77 188.79 56.20 192.66 59.34 C 194.34 61.94 193.93 64.70 191.20 66.31 C 187.71 66.15 184.26 66.05 180.78 66.10 C 173.94 65.28 167.19 63.73 160.76 61.21 C 165.84 59.49 171.25 58.78 176.45 60.38 C 188.94 63.37 174.61 59.35 179.23 57.18 Z" />
</g>
<g id="#c28244ff">
<path fill="#c28244" opacity="1.00" d=" M 206.05 58.19 C 207.26 56.78 209.21 57.11 210.86 56.81 C 210.69 57.34 210.35 58.40 210.18 58.93 C 212.95 60.67 216.07 61.78 219.11 62.95 C 219.38 63.19 219.92 63.67 220.18 63.92 C 218.46 63.94 216.74 63.98 215.02 64.02 C 212.46 63.59 208.54 65.64 207.32 62.66 C 206.77 61.21 206.23 59.74 206.05 58.19 Z" />
</g>
<g id="#b0a68ecd">
<path fill="#b0a68e" opacity="0.80" d=" M 31.23 62.23 C 31.70 62.19 32.64 62.12 33.11 62.08 C 32.54 66.30 37.01 64.96 40.04 65.21 L 40.05 65.93 C 34.68 65.86 29.36 64.85 23.98 64.88 C 23.53 61.30 29.20 63.41 31.23 62.23 Z" />
</g>
<g id="#b68f63ff">
<path fill="#b68f63" opacity="1.00" d=" M 33.11 62.08 C 33.77 62.05 35.07 61.98 35.72 61.95 C 33.86 65.90 39.51 63.64 42.23 63.78 C 43.91 63.99 45.68 64.06 47.16 64.98 C 45.38 65.04 41.82 65.15 40.04 65.21 C 37.01 64.96 32.54 66.30 33.11 62.08 Z" />
</g>
<g id="#5e3b1b9f">
<path fill="#5e3b1b" opacity="0.62" d=" M 105.93 67.20 C 103.57 68.51 102.68 64.70 102.41 62.93 C 102.87 63.16 103.79 63.63 104.25 63.86 C 104.87 64.94 105.49 66.03 105.93 67.20 Z" />
</g>
<g id="#ab835ff9">
<path fill="#ab835f" opacity="0.98" d=" M 48.73 64.64 C 51.78 63.53 55.03 64.21 58.13 64.64 C 57.42 64.82 55.99 65.17 55.27 65.34 C 53.09 65.12 50.91 64.88 48.73 64.64 Z" />
</g>
<g id="#5e452d7b">
<path fill="#5e452d" opacity="0.48" d=" M 215.02 64.02 C 216.74 63.98 218.46 63.94 220.18 63.92 C 222.19 64.01 224.20 64.11 226.21 64.20 C 222.49 64.89 218.72 65.14 214.92 64.96 L 215.02 64.02 Z" />
</g>
<g id="#5f53417c">
<path fill="#5f5341" opacity="0.49" d=" M 40.04 65.21 C 41.82 65.15 45.38 65.04 47.16 64.98 L 47.00 65.79 C 45.26 65.83 41.79 65.90 40.05 65.93 L 40.04 65.21 Z" />
</g>
<g id="#b3a991d8">
<path fill="#b3a991" opacity="0.85" d=" M 47.16 64.98 C 47.55 64.90 48.34 64.73 48.73 64.64 C 50.91 64.88 53.09 65.12 55.27 65.34 C 52.61 66.26 49.77 65.81 47.00 65.79 L 47.16 64.98 Z" />
</g>
<g id="#c6a071fb">
<path fill="#c6a071" opacity="1.00" d=" M 201.65 68.04 C 204.14 67.52 206.53 64.82 209.06 65.72 C 208.30 66.44 207.55 67.17 206.81 67.91 C 205.09 67.97 203.37 68.01 201.65 68.04 Z" />
</g>
<g id="#6c4321af">
<path fill="#6c4321" opacity="0.69" d=" M 180.78 66.10 C 184.26 66.05 187.71 66.15 191.20 66.31 L 190.69 67.25 C 187.38 67.01 184.05 66.67 180.78 66.10 Z" />
</g>
<g id="#d5b991ff">
<path fill="#d5b991" opacity="1.00" d=" M 206.81 67.91 C 207.55 67.17 208.30 66.44 209.06 65.72 L 209.83 66.00 C 212.77 67.02 216.02 66.91 219.11 67.13 L 219.07 67.82 C 216.02 67.89 213.02 67.98 209.99 68.01 C 209.19 67.99 207.61 67.94 206.81 67.91 Z" />
</g>
<g id="#ebe7c6f4">
<path fill="#ebe7c6" opacity="0.96" d=" M 209.83 66.00 C 210.31 65.94 211.25 65.80 211.72 65.73 C 213.54 65.81 217.17 65.96 218.99 66.04 L 219.11 67.13 C 216.02 66.91 212.77 67.02 209.83 66.00 Z" />
</g>
<g id="#8f8d8090">
<path fill="#8f8d80" opacity="0.56" d=" M 218.99 66.04 C 221.31 66.32 230.04 64.64 226.01 67.72 C 223.69 66.68 221.39 66.48 219.11 67.13 L 218.99 66.04 Z" />
</g>
<g id="#271c103e">
<path fill="#271c10" opacity="0.24" d=" M 190.69 67.25 C 192.41 67.09 194.12 66.93 195.84 66.74 C 197.31 67.00 198.79 67.33 200.22 67.79 C 197.04 68.06 193.83 67.75 190.69 67.25 Z" />
</g>
<g id="#f6e7c1ff">
<path fill="#f6e7c1" opacity="1.00" d=" M 219.11 67.13 C 221.39 66.48 223.69 66.68 226.01 67.72 C 225.33 67.91 223.97 68.30 223.29 68.49 C 221.87 68.33 220.46 68.11 219.07 67.82 L 219.11 67.13 Z" />
</g>
<g id="#cf9a4ae7">
<path fill="#cf9a4a" opacity="0.91" d=" M 138.97 71.87 C 138.38 70.58 137.34 69.29 137.67 67.79 C 144.04 70.23 152.78 69.86 157.13 76.03 C 151.01 74.99 144.95 73.55 138.97 71.87 Z" />
</g>
<g id="#37332b44">
<path fill="#37332b" opacity="0.27" d=" M 201.65 68.04 C 203.37 68.01 205.09 67.97 206.81 67.91 C 207.61 67.94 209.19 67.99 209.99 68.01 L 210.00 69.05 C 207.19 69.05 204.39 68.55 201.65 68.04 Z" />
</g>
<g id="#938874a9">
<path fill="#938874" opacity="0.66" d=" M 209.99 68.01 C 213.02 67.98 216.02 67.89 219.07 67.82 C 220.46 68.11 221.87 68.33 223.29 68.49 C 218.96 69.58 214.39 68.81 210.00 69.05 L 209.99 68.01 Z" />
</g>
<g id="#7f4d26ee">
<path fill="#7f4d26" opacity="0.93" d=" M 109.19 80.95 C 114.13 80.64 119.47 78.98 124.00 81.57 C 128.62 80.39 131.70 85.37 136.14 86.11 C 135.85 87.32 135.08 88.29 134.36 89.26 C 134.91 86.00 130.55 86.51 130.35 89.19 C 127.53 86.38 125.77 81.75 120.86 82.38 C 118.72 83.23 119.62 89.13 116.06 88.82 C 115.75 86.48 114.42 85.70 112.43 87.05 C 111.35 85.01 109.91 83.15 109.19 80.95 Z" />
</g>
<g id="#a87a6fea">
<path fill="#a87a6f" opacity="0.92" d=" M 112.43 87.05 C 114.42 85.70 115.75 86.48 116.06 88.82 C 115.38 89.81 114.96 90.90 114.78 92.09 C 113.07 91.28 111.09 90.85 109.72 89.47 C 111.04 89.11 111.94 88.31 112.43 87.05 Z" />
</g>
<g id="#b08e8aeb">
<path fill="#b08e8a" opacity="0.92" d=" M 130.35 89.19 C 130.55 86.51 134.91 86.00 134.36 89.26 C 134.27 89.73 134.10 90.66 134.01 91.12 C 133.32 89.70 132.45 88.59 131.10 90.06 C 131.80 91.42 134.14 93.46 131.05 93.08 C 129.52 92.40 129.38 97.06 130.94 95.93 C 133.09 95.51 134.21 93.18 134.01 91.12 C 134.34 90.94 134.99 90.58 135.32 90.40 C 136.76 91.32 139.64 93.18 141.08 94.11 C 140.85 95.92 139.83 97.49 138.88 99.01 C 137.65 98.24 136.95 96.88 135.93 95.88 C 132.31 97.57 133.93 102.91 132.73 106.14 C 128.53 103.62 131.58 95.91 126.27 95.10 C 125.43 97.08 124.85 99.16 123.88 101.08 C 119.90 99.52 122.24 93.79 124.73 91.72 C 126.16 89.58 129.83 91.96 130.35 89.19 Z" />
</g>
<g id="#b3918cef">
<path fill="#b3918c" opacity="0.94" d=" M 102.47 89.20 C 104.83 87.78 107.39 88.26 109.72 89.47 C 111.09 90.85 113.07 91.28 114.78 92.09 C 115.86 93.89 115.74 95.67 114.03 97.00 C 112.95 97.80 112.00 98.75 111.62 100.08 C 109.63 97.46 107.58 94.30 104.20 93.50 C 101.13 92.97 98.55 94.82 95.85 95.93 C 95.97 92.41 98.13 88.61 102.47 89.20 Z" />
</g>
<g id="#d8b4acff">
<path fill="#d8b4ac" opacity="1.00" d=" M 131.10 90.06 C 132.45 88.59 133.32 89.70 134.01 91.12 C 134.21 93.18 133.09 95.51 130.94 95.93 C 129.38 97.06 129.52 92.40 131.05 93.08 C 134.14 93.46 131.80 91.42 131.10 90.06 Z" />
</g>
<g id="#ceaba9ef">
<path fill="#ceaba9" opacity="0.94" d=" M 111.62 100.08 C 112.00 98.75 112.95 97.80 114.03 97.00 C 114.05 98.40 115.48 100.18 114.36 101.36 C 113.47 102.89 112.27 100.69 111.62 100.08 Z" />
</g>
</svg>
