<?xml version="1.0" encoding="UTF-8" ?>
<!DOCTYPE svg PUBLIC "-//W3C//DTD SVG 1.1//EN" "http://www.w3.org/Graphics/SVG/1.1/DTD/svg11.dtd">
<svg width="108pt" height="102pt" viewBox="0 0 108 102" version="1.1" xmlns="http://www.w3.org/2000/svg">
<g id="#c982cdff">
<path fill="#c982cd" opacity="1.00" d=" M 44.29 10.99 C 48.17 6.25 54.18 3.95 60.11 3.20 C 62.68 4.16 65.34 4.97 67.64 6.52 C 66.21 6.42 64.78 6.39 63.35 6.35 C 61.80 10.76 59.62 14.96 56.56 18.53 C 54.50 21.36 51.41 23.92 51.40 27.72 C 49.66 27.62 47.89 27.58 46.22 27.04 C 43.90 26.19 42.75 23.82 41.31 21.99 C 41.38 20.48 41.46 18.98 41.56 17.47 L 41.80 16.54 L 42.22 15.92 C 42.63 15.75 43.45 15.41 43.85 15.24 L 44.30 15.08 C 44.40 13.72 44.40 12.36 44.29 10.99 Z" />
<path fill="#c982cd" opacity="1.00" d=" M 70.22 31.19 C 70.98 30.30 71.72 29.41 72.46 28.51 C 71.34 31.54 70.08 34.55 68.13 37.14 C 68.64 35.38 69.11 33.60 69.67 31.84 C 69.81 31.68 70.08 31.35 70.22 31.19 Z" />
</g>
<g id="#ac6eb4ff">
<path fill="#ac6eb4" opacity="1.00" d=" M 63.35 6.35 C 64.78 6.39 66.21 6.42 67.64 6.52 C 68.93 7.33 70.11 8.30 71.34 9.20 L 70.93 10.32 C 69.52 12.49 67.92 14.55 66.09 16.38 C 65.70 16.67 64.94 17.26 64.55 17.55 C 63.89 18.58 63.28 19.65 62.68 20.72 C 59.86 24.21 56.12 27.52 51.40 27.72 C 51.41 23.92 54.50 21.36 56.56 18.53 C 59.62 14.96 61.80 10.76 63.35 6.35 Z" />
<path fill="#ac6eb4" opacity="1.00" d=" M 97.40 81.69 C 101.18 79.47 104.11 75.98 104.94 71.59 C 105.55 74.47 105.07 77.33 103.90 79.99 C 101.41 82.36 98.51 84.52 95.00 84.95 C 83.02 87.08 70.78 87.45 58.64 87.57 L 57.65 87.52 C 64.12 87.70 70.50 86.33 76.97 86.20 C 83.85 85.39 91.30 85.36 97.40 81.69 Z" />
</g>
<g id="#885599ff">
<path fill="#885599" opacity="1.00" d=" M 70.93 10.32 L 71.18 9.95 C 74.13 15.54 75.08 22.64 72.46 28.51 C 71.72 29.41 70.98 30.30 70.22 31.19 C 68.26 29.56 70.02 27.56 70.64 25.77 C 72.29 22.37 71.71 18.51 71.56 14.88 C 71.32 16.53 71.08 18.17 70.85 19.82 C 69.28 18.65 67.71 17.47 66.09 16.38 C 67.92 14.55 69.52 12.49 70.93 10.32 Z" />
</g>
<g id="#ea9aeaf9">
<path fill="#ea9aea" opacity="0.98" d=" M 42.95 12.41 C 43.29 12.05 43.96 11.35 44.29 10.99 C 44.40 12.36 44.40 13.72 44.30 15.08 L 43.85 15.24 C 42.82 14.60 42.52 13.66 42.95 12.41 Z" />
</g>
<g id="#696444da">
<path fill="#696444" opacity="0.85" d=" M 42.21 13.53 C 42.21 14.13 42.22 15.33 42.22 15.92 L 41.80 16.54 C 41.00 16.97 40.21 17.40 39.42 17.84 C 38.97 16.17 40.70 14.14 42.21 13.53 Z" />
</g>
<g id="#613572ff">
<path fill="#613572" opacity="1.00" d=" M 71.56 14.88 C 71.71 18.51 72.29 22.37 70.64 25.77 C 70.02 27.56 68.26 29.56 70.22 31.19 C 70.08 31.35 69.81 31.68 69.67 31.84 C 66.81 33.37 63.97 34.93 61.02 36.29 C 59.16 36.38 57.30 36.36 55.44 36.33 C 58.91 33.61 62.50 31.02 65.46 27.71 C 65.31 27.46 65.01 26.94 64.86 26.68 C 67.04 25.66 69.09 24.37 69.73 21.88 C 68.05 20.39 66.29 18.98 64.55 17.55 C 64.94 17.26 65.70 16.67 66.09 16.38 C 67.71 17.47 69.28 18.65 70.85 19.82 C 71.08 18.17 71.32 16.53 71.56 14.88 Z" />
<path fill="#613572" opacity="1.00" d=" M 40.37 21.02 C 40.86 19.87 41.21 18.67 41.56 17.47 C 41.46 18.98 41.38 20.48 41.31 21.99 C 42.75 23.82 43.90 26.19 46.22 27.04 C 47.89 27.58 49.66 27.62 51.40 27.72 C 56.12 27.52 59.86 24.21 62.68 20.72 C 62.67 21.26 62.65 22.34 62.64 22.88 C 60.38 25.17 57.52 26.69 54.85 28.44 C 49.57 29.62 43.21 28.03 41.18 22.48 C 40.98 22.12 40.57 21.38 40.37 21.02 Z" />
<path fill="#613572" opacity="1.00" d=" M 26.15 67.09 L 26.74 66.47 L 26.55 67.83 C 25.13 70.13 24.10 72.67 23.71 75.36 C 23.73 76.98 23.84 78.60 24.02 80.22 C 24.42 81.39 24.88 82.54 25.34 83.70 C 26.60 83.99 27.85 84.29 29.10 84.59 C 27.05 84.82 25.00 85.06 22.96 85.42 L 22.10 85.56 C 22.56 84.84 23.02 84.12 23.47 83.40 C 23.17 82.19 22.86 80.99 22.59 79.77 C 22.53 79.09 22.41 77.72 22.35 77.03 C 22.56 73.45 23.57 69.71 26.15 67.09 Z" />
</g>
<g id="#cfb985fe">
<path fill="#cfb985" opacity="1.00" d=" M 39.42 17.84 C 40.21 17.40 41.00 16.97 41.80 16.54 L 41.56 17.47 C 41.21 18.67 40.86 19.87 40.37 21.02 L 39.48 22.43 C 39.46 21.28 39.43 18.98 39.42 17.84 Z" />
</g>
<g id="#4c4234ff">
<path fill="#4c4234" opacity="1.00" d=" M 62.68 20.72 C 63.28 19.65 63.89 18.58 64.55 17.55 C 66.29 18.98 68.05 20.39 69.73 21.88 C 69.09 24.37 67.04 25.66 64.86 26.68 C 64.11 25.41 63.35 24.16 62.64 22.88 C 62.65 22.34 62.67 21.26 62.68 20.72 M 63.96 20.42 C 62.95 21.54 63.73 24.19 65.52 23.60 C 67.68 23.08 65.36 19.88 63.96 20.42 Z" />
</g>
<g id="#7d744aff">
<path fill="#7d744a" opacity="1.00" d=" M 63.96 20.42 C 65.36 19.88 67.68 23.08 65.52 23.60 C 63.73 24.19 62.95 21.54 63.96 20.42 Z" />
</g>
<g id="#fec4feff">
<path fill="#fec4fe" opacity="1.00" d=" M 39.48 22.43 L 40.37 21.02 C 40.57 21.38 40.98 22.12 41.18 22.48 C 40.20 25.73 40.47 29.23 39.45 32.43 C 35.66 35.70 30.73 37.77 27.92 42.09 C 26.33 44.91 27.73 48.08 29.50 50.43 C 25.64 51.68 20.69 49.15 17.69 52.73 C 15.53 55.78 16.18 59.85 15.79 63.40 C 13.45 63.92 10.73 64.14 9.07 66.08 C 7.44 68.38 6.39 71.03 5.05 73.50 C 3.71 66.83 8.14 60.25 14.28 57.85 C 14.02 53.59 16.64 50.03 18.65 46.51 C 23.47 41.02 30.11 37.64 35.58 32.90 C 36.93 31.71 38.26 30.48 39.57 29.24 C 39.33 27.61 39.12 25.98 38.94 24.34 C 38.86 23.64 39.05 23.01 39.48 22.43 Z" />
</g>
<g id="#bb79c2ff">
<path fill="#bb79c2" opacity="1.00" d=" M 41.18 22.48 C 43.21 28.03 49.57 29.62 54.85 28.44 C 52.71 30.98 49.73 32.50 46.98 34.27 C 45.65 34.01 44.31 33.77 42.97 33.54 C 44.39 36.01 46.74 37.64 48.96 39.33 C 44.28 45.45 35.55 44.80 30.41 50.20 C 30.18 50.26 29.73 50.37 29.50 50.43 C 27.73 48.08 26.33 44.91 27.92 42.09 C 30.73 37.77 35.66 35.70 39.45 32.43 C 40.47 29.23 40.20 25.73 41.18 22.48 Z" />
</g>
<g id="#8a5598ff">
<path fill="#8a5598" opacity="1.00" d=" M 54.85 28.44 C 57.52 26.69 60.38 25.17 62.64 22.88 C 63.35 24.16 64.11 25.41 64.86 26.68 C 65.01 26.94 65.31 27.46 65.46 27.71 C 62.50 31.02 58.91 33.61 55.44 36.33 C 57.30 36.36 59.16 36.38 61.02 36.29 C 58.64 37.38 56.20 38.35 53.77 39.33 C 54.61 40.05 55.49 40.72 56.39 41.35 C 56.64 41.62 57.15 42.16 57.41 42.43 C 54.74 44.31 52.33 46.63 49.38 48.07 C 46.11 48.84 42.76 49.22 39.54 50.20 C 36.50 50.34 33.45 50.21 30.41 50.20 C 35.55 44.80 44.28 45.45 48.96 39.33 C 46.74 37.64 44.39 36.01 42.97 33.54 C 44.31 33.77 45.65 34.01 46.98 34.27 C 49.73 32.50 52.71 30.98 54.85 28.44 M 50.29 35.27 C 50.39 38.58 53.33 33.66 50.29 35.27 Z" />
</g>
<g id="#e2b88dfa">
<path fill="#e2b88d" opacity="0.98" d=" M 37.88 24.65 L 38.94 24.34 C 39.12 25.98 39.33 27.61 39.57 29.24 C 38.26 30.48 36.93 31.71 35.58 32.90 C 35.12 31.30 35.30 29.77 36.13 28.31 C 37.14 27.23 38.82 26.41 37.88 24.65 Z" />
</g>
<g id="#80595dff">
<path fill="#80595d" opacity="1.00" d=" M 61.02 36.29 C 63.97 34.93 66.81 33.37 69.67 31.84 C 69.11 33.60 68.64 35.38 68.13 37.14 C 67.68 38.09 67.18 39.01 66.63 39.91 L 66.31 39.75 C 65.00 38.58 63.55 40.39 64.19 41.72 C 61.60 41.46 58.99 41.47 56.39 41.35 C 55.49 40.72 54.61 40.05 53.77 39.33 C 56.20 38.35 58.64 37.38 61.02 36.29 Z" />
</g>
<g id="#513358ff">
<path fill="#513358" opacity="1.00" d=" M 50.29 35.27 C 53.33 33.66 50.39 38.58 50.29 35.27 Z" />
</g>
<g id="#bd6c8dff">
<path fill="#bd6c8d" opacity="1.00" d=" M 64.19 41.72 C 63.55 40.39 65.00 38.58 66.31 39.75 C 65.96 40.26 65.26 41.29 64.92 41.80 L 64.19 41.72 Z" />
</g>
<g id="#673a7cff">
<path fill="#673a7c" opacity="1.00" d=" M 56.39 41.35 C 58.99 41.47 61.60 41.46 64.19 41.72 L 64.92 41.80 C 63.65 44.12 61.46 45.74 59.40 47.31 C 58.78 47.38 57.54 47.52 56.92 47.59 C 56.56 48.06 55.83 49.01 55.46 49.48 C 50.23 50.68 44.85 50.18 39.54 50.20 C 42.76 49.22 46.11 48.84 49.38 48.07 C 52.33 46.63 54.74 44.31 57.41 42.43 C 57.15 42.16 56.64 41.62 56.39 41.35 Z" />
</g>
<g id="#28262863">
<path fill="#282628" opacity="0.39" d=" M 72.90 46.02 C 77.64 45.25 82.99 43.88 87.53 45.93 C 82.65 45.75 77.78 46.01 72.90 46.02 Z" />
</g>
<g id="#fba6fcff">
<path fill="#fba6fc" opacity="1.00" d=" M 59.40 47.31 C 63.90 46.94 68.40 46.48 72.90 46.02 C 77.78 46.01 82.65 45.75 87.53 45.93 C 89.29 46.49 91.10 47.07 92.55 48.28 C 88.70 49.64 84.57 49.46 80.58 49.96 C 72.98 50.81 65.35 51.52 57.70 51.61 C 52.81 51.68 47.92 52.07 43.02 52.01 C 36.04 52.14 28.64 51.63 22.26 55.01 C 19.64 56.15 18.58 59.12 18.25 61.75 C 18.27 62.08 18.31 62.73 18.33 63.05 C 21.04 64.31 23.99 64.91 26.92 65.39 C 26.88 65.66 26.79 66.20 26.74 66.47 L 26.15 67.09 C 22.12 66.77 18.04 66.06 14.01 66.73 C 9.65 68.17 8.80 73.05 7.95 76.95 C 7.53 76.69 6.70 76.18 6.28 75.93 C 5.88 75.11 5.47 74.30 5.05 73.50 C 6.39 71.03 7.44 68.38 9.07 66.08 C 10.73 64.14 13.45 63.92 15.79 63.40 C 16.18 59.85 15.53 55.78 17.69 52.73 C 20.69 49.15 25.64 51.68 29.50 50.43 C 29.73 50.37 30.18 50.26 30.41 50.20 C 33.45 50.21 36.50 50.34 39.54 50.20 C 44.85 50.18 50.23 50.68 55.46 49.48 C 55.83 49.01 56.56 48.06 56.92 47.59 C 57.54 47.52 58.78 47.38 59.40 47.31 Z" />
<path fill="#fba6fc" opacity="1.00" d=" M 99.79 65.46 C 100.25 65.65 101.18 66.05 101.64 66.24 C 100.81 66.96 99.98 67.68 99.14 68.41 C 97.21 68.35 95.27 68.28 93.34 68.26 C 84.71 68.52 76.09 68.81 67.47 68.73 C 59.23 68.32 50.98 68.60 42.75 68.02 C 43.57 67.67 44.39 67.35 45.21 67.03 C 50.28 67.34 55.37 67.65 60.45 67.50 C 68.90 67.65 77.35 67.59 85.79 67.20 C 87.88 67.10 89.97 67.00 92.06 66.90 C 94.71 66.94 97.35 66.52 99.79 65.46 Z" />
</g>
<g id="#af71b8ff">
<path fill="#af71b8" opacity="1.00" d=" M 92.55 48.28 C 93.30 49.24 94.08 50.19 94.92 51.08 C 90.34 50.93 86.69 53.94 82.61 55.48 C 76.04 58.10 69.24 60.09 62.56 62.41 C 56.90 64.43 50.67 64.38 45.21 67.03 C 44.39 67.35 43.57 67.67 42.75 68.02 C 42.59 68.09 42.25 68.23 42.08 68.30 C 41.85 68.11 41.40 67.73 41.17 67.53 C 37.22 66.04 32.89 65.96 28.72 65.96 C 28.37 66.29 27.68 66.95 27.33 67.27 L 26.55 67.83 L 26.74 66.47 C 26.79 66.20 26.88 65.66 26.92 65.39 C 23.99 64.91 21.04 64.31 18.33 63.05 C 18.31 62.73 18.27 62.08 18.25 61.75 C 22.87 62.76 27.71 63.90 32.38 62.51 C 41.12 60.14 50.09 58.88 58.88 56.75 C 60.54 56.48 61.85 55.42 63.09 54.38 C 61.32 53.41 59.54 52.46 57.70 51.61 C 65.35 51.52 72.98 50.81 80.58 49.96 C 84.57 49.46 88.70 49.64 92.55 48.28 Z" />
</g>
<g id="#895498ff">
<path fill="#895498" opacity="1.00" d=" M 82.61 55.48 C 86.69 53.94 90.34 50.93 94.92 51.08 C 95.32 52.37 95.76 53.65 95.98 54.98 C 95.01 56.91 94.03 58.84 92.98 60.72 C 92.91 60.06 92.77 58.73 92.70 58.07 C 87.06 60.48 81.66 63.54 75.73 65.21 C 70.65 66.11 65.30 65.40 60.45 67.50 C 55.37 67.65 50.28 67.34 45.21 67.03 C 50.67 64.38 56.90 64.43 62.56 62.41 C 69.24 60.09 76.04 58.10 82.61 55.48 Z" />
</g>
<g id="#ca83cfff">
<path fill="#ca83cf" opacity="1.00" d=" M 22.26 55.01 C 28.64 51.63 36.04 52.14 43.02 52.01 C 47.92 52.07 52.81 51.68 57.70 51.61 C 59.54 52.46 61.32 53.41 63.09 54.38 C 61.85 55.42 60.54 56.48 58.88 56.75 C 50.09 58.88 41.12 60.14 32.38 62.51 C 27.71 63.90 22.87 62.76 18.25 61.75 C 18.58 59.12 19.64 56.15 22.26 55.01 Z" />
</g>
<g id="#a24bb0f3">
<path fill="#a24bb0" opacity="0.95" d=" M 92.98 60.72 C 94.03 58.84 95.01 56.91 95.98 54.98 C 96.89 57.85 95.68 60.68 95.10 63.46 C 94.07 64.59 93.06 65.74 92.06 66.90 C 89.97 67.00 87.88 67.10 85.79 67.20 C 88.73 65.75 91.47 63.71 92.98 60.72 Z" />
</g>
<g id="#6a3f7fff">
<path fill="#6a3f7f" opacity="1.00" d=" M 75.73 65.21 C 81.66 63.54 87.06 60.48 92.70 58.07 C 92.77 58.73 92.91 60.06 92.98 60.72 C 91.47 63.71 88.73 65.75 85.79 67.20 C 77.35 67.59 68.90 67.65 60.45 67.50 C 65.30 65.40 70.65 66.11 75.73 65.21 Z" />
</g>
<g id="#f0d5eff9">
<path fill="#f0d5ef" opacity="0.98" d=" M 92.06 66.90 C 93.06 65.74 94.07 64.59 95.10 63.46 C 96.67 64.11 98.23 64.77 99.79 65.46 C 97.35 66.52 94.71 66.94 92.06 66.90 Z" />
</g>
<g id="#e99aecff">
<path fill="#e99aec" opacity="1.00" d=" M 28.72 65.96 C 32.89 65.96 37.22 66.04 41.17 67.53 C 36.58 68.40 31.93 67.66 27.33 67.27 C 27.68 66.95 28.37 66.29 28.72 65.96 Z" />
</g>
<g id="#8e599dff">
<path fill="#8e599d" opacity="1.00" d=" M 101.64 66.24 L 101.84 66.07 C 102.95 67.84 104.76 69.39 104.94 71.59 C 104.11 75.98 101.18 79.47 97.40 81.69 C 98.40 79.98 100.11 78.36 100.24 76.33 C 97.78 74.72 96.35 72.12 94.97 69.61 C 95.27 71.85 95.58 74.10 95.79 76.36 C 82.26 80.27 68.56 84.14 54.45 85.14 C 50.08 85.28 45.72 84.48 41.34 84.68 C 41.15 83.47 40.97 82.26 40.80 81.05 C 54.99 79.35 69.32 77.72 82.95 73.18 C 86.49 71.76 91.61 72.38 93.34 68.26 C 95.27 68.28 97.21 68.35 99.14 68.41 C 99.98 67.68 100.81 66.96 101.64 66.24 Z" />
</g>
<g id="#cc86d1ff">
<path fill="#cc86d1" opacity="1.00" d=" M 7.95 76.95 C 8.80 73.05 9.65 68.17 14.01 66.73 C 18.04 66.06 22.12 66.77 26.15 67.09 C 23.57 69.71 22.56 73.45 22.35 77.03 C 18.78 75.79 15.32 73.60 11.49 73.49 C 10.12 75.21 9.18 77.23 8.37 79.27 C 7.61 78.20 6.93 77.07 6.28 75.93 C 6.70 76.18 7.53 76.69 7.95 76.95 Z" />
</g>
<g id="#ce86d2ff">
<path fill="#ce86d2" opacity="1.00" d=" M 27.33 67.27 C 31.93 67.66 36.58 68.40 41.17 67.53 C 40.05 69.78 39.21 72.16 38.89 74.66 C 33.81 74.72 28.79 76.32 23.71 75.36 C 24.10 72.67 25.13 70.13 26.55 67.83 L 27.33 67.27 Z" />
</g>
<g id="#6e4081ff">
<path fill="#6e4081" opacity="1.00" d=" M 41.17 67.53 C 41.40 67.73 41.85 68.11 42.08 68.30 C 41.24 71.09 40.64 73.97 40.55 76.89 C 40.58 78.28 40.67 79.66 40.80 81.05 C 40.97 82.26 41.15 83.47 41.34 84.68 C 45.72 84.48 50.08 85.28 54.45 85.14 C 68.56 84.14 82.26 80.27 95.79 76.36 C 95.58 74.10 95.27 71.85 94.97 69.61 C 96.35 72.12 97.78 74.72 100.24 76.33 C 100.11 78.36 98.40 79.98 97.40 81.69 C 91.30 85.36 83.85 85.39 76.97 86.20 C 70.50 86.33 64.12 87.70 57.65 87.52 C 48.18 87.25 38.71 86.90 29.33 85.48 C 32.29 84.08 35.65 84.79 38.81 84.69 C 38.84 82.90 38.84 81.12 38.83 79.34 C 38.83 77.78 38.85 76.22 38.89 74.66 C 39.21 72.16 40.05 69.78 41.17 67.53 Z" />
</g>
<g id="#c37fcaff">
<path fill="#c37fca" opacity="1.00" d=" M 42.75 68.02 C 50.98 68.60 59.23 68.32 67.47 68.73 C 70.22 69.76 73.11 70.37 76.04 70.56 C 64.48 74.05 52.40 74.89 40.55 76.89 C 40.64 73.97 41.24 71.09 42.08 68.30 C 42.25 68.23 42.59 68.09 42.75 68.02 Z" />
</g>
<g id="#ad70b6ff">
<path fill="#ad70b6" opacity="1.00" d=" M 67.47 68.73 C 76.09 68.81 84.71 68.52 93.34 68.26 C 91.61 72.38 86.49 71.76 82.95 73.18 C 69.32 77.72 54.99 79.35 40.80 81.05 C 40.67 79.66 40.58 78.28 40.55 76.89 C 52.40 74.89 64.48 74.05 76.04 70.56 C 73.11 70.37 70.22 69.76 67.47 68.73 Z" />
</g>
<g id="#b878bfff">
<path fill="#b878bf" opacity="1.00" d=" M 11.49 73.49 C 15.32 73.60 18.78 75.79 22.35 77.03 C 22.41 77.72 22.53 79.09 22.59 79.77 C 17.81 79.72 12.80 77.32 8.33 80.03 L 8.37 79.27 C 9.18 77.23 10.12 75.21 11.49 73.49 Z" />
</g>
<g id="#b977c1ff">
<path fill="#b977c1" opacity="1.00" d=" M 23.71 75.36 C 28.79 76.32 33.81 74.72 38.89 74.66 C 38.85 76.22 38.83 77.78 38.83 79.34 C 34.05 80.96 28.96 80.45 24.02 80.22 C 23.84 78.60 23.73 76.98 23.71 75.36 Z" />
</g>
<g id="#965ea1ff">
<path fill="#965ea1" opacity="1.00" d=" M 8.33 80.03 C 12.80 77.32 17.81 79.72 22.59 79.77 C 22.86 80.99 23.17 82.19 23.47 83.40 C 23.02 84.12 22.56 84.84 22.10 85.56 C 17.07 85.04 12.49 82.80 8.33 80.03 Z" />
</g>
<g id="#965fa3ff">
<path fill="#965fa3" opacity="1.00" d=" M 24.02 80.22 C 28.96 80.45 34.05 80.96 38.83 79.34 C 38.84 81.12 38.84 82.90 38.81 84.69 C 35.65 84.79 32.29 84.08 29.33 85.48 C 38.71 86.90 48.18 87.25 57.65 87.52 L 58.64 87.57 C 46.40 87.93 34.09 87.32 21.95 85.59 L 22.96 85.42 C 25.00 85.06 27.05 84.82 29.10 84.59 C 27.85 84.29 26.60 83.99 25.34 83.70 C 24.88 82.54 24.42 81.39 24.02 80.22 Z" />
</g>
</svg>
