<?xml version="1.0" encoding="UTF-8" ?>
<!DOCTYPE svg PUBLIC "-//W3C//DTD SVG 1.1//EN" "http://www.w3.org/Graphics/SVG/1.1/DTD/svg11.dtd">
<svg width="159pt" height="176pt" viewBox="0 0 159 176" version="1.1" xmlns="http://www.w3.org/2000/svg">
<g id="#62626294">
<path fill="#626262" opacity="0.58" d=" M 50.31 4.17 C 50.36 2.32 53.76 2.14 54.94 3.19 C 53.52 3.96 51.93 4.31 50.31 4.17 Z" />
</g>
<g id="#fbe8ffff">
<path fill="#fbe8ff" opacity="1.00" d=" M 54.94 3.19 C 61.69 2.62 68.41 5.19 74.68 7.53 C 69.28 8.27 64.42 4.54 58.99 5.55 C 51.35 6.53 43.50 9.36 38.08 15.04 C 34.86 18.22 33.95 22.83 33.23 27.12 C 33.18 27.48 33.07 28.20 33.02 28.56 C 31.59 25.80 32.72 22.92 33.81 20.28 C 32.55 20.42 31.27 20.50 30.04 20.83 C 24.05 22.25 21.30 28.37 18.35 33.14 C 20.97 25.90 26.22 19.71 33.04 16.11 C 35.06 15.40 35.18 12.94 36.62 11.60 C 38.98 9.14 41.75 6.58 45.23 6.05 C 45.68 5.81 46.59 5.31 47.04 5.06 C 48.07 4.52 49.16 4.22 50.31 4.17 C 51.93 4.31 53.52 3.96 54.94 3.19 Z" />
<path fill="#fbe8ff" opacity="1.00" d=" M 28.57 82.06 C 32.67 84.66 35.91 88.33 39.55 91.50 C 43.37 94.81 45.74 99.50 46.61 104.44 L 45.24 104.42 C 45.01 103.21 44.73 102.01 44.40 100.82 C 40.38 93.61 33.73 88.41 28.57 82.06 Z" />
<path fill="#fbe8ff" opacity="1.00" d=" M 45.04 105.45 C 45.47 105.47 46.32 105.53 46.75 105.55 C 46.24 111.94 46.40 118.35 46.31 124.76 L 45.10 124.11 C 44.80 118.74 44.94 113.37 45.02 108.01 L 45.03 106.94 L 45.04 105.45 Z" />
<path fill="#fbe8ff" opacity="1.00" d=" M 45.36 125.07 C 45.78 125.44 46.60 126.18 47.01 126.55 C 47.48 130.64 48.68 134.68 48.41 138.83 C 47.21 136.07 46.54 133.11 46.07 130.15 C 45.83 128.46 45.59 126.76 45.36 125.07 Z" />
</g>
<g id="#6a6a6aa3">
<path fill="#6a6a6a" opacity="0.64" d=" M 45.28 5.16 L 46.21 4.65 L 47.04 5.06 C 46.59 5.31 45.68 5.81 45.23 6.05 L 45.28 5.16 Z" />
</g>
<g id="#bea9feff">
<path fill="#bea9fe" opacity="1.00" d=" M 38.08 15.04 C 43.50 9.36 51.35 6.53 58.99 5.55 C 64.42 4.54 69.28 8.27 74.68 7.53 C 75.44 7.58 76.15 7.80 76.81 8.20 C 77.61 8.79 78.41 9.40 79.20 10.03 C 72.03 9.85 65.21 6.75 58.04 7.16 C 53.89 7.55 50.03 9.25 46.47 11.32 C 47.88 13.92 49.24 16.53 50.58 19.16 C 48.45 23.25 45.02 26.22 41.32 28.85 C 40.40 28.55 39.47 28.28 38.54 28.01 L 37.86 27.40 L 36.94 27.36 C 35.70 27.30 34.46 27.21 33.23 27.12 C 33.95 22.83 34.86 18.22 38.08 15.04 Z" />
</g>
<g id="#b5a0e3ff">
<path fill="#b5a0e3" opacity="1.00" d=" M 46.47 11.32 C 50.03 9.25 53.89 7.55 58.04 7.16 C 65.21 6.75 72.03 9.85 79.20 10.03 C 78.41 9.40 77.61 8.79 76.81 8.20 C 80.92 9.72 85.00 11.36 89.07 13.00 C 88.48 13.04 87.29 13.12 86.69 13.16 C 82.12 11.31 77.19 11.55 72.37 11.18 C 67.17 9.21 60.91 6.57 55.63 9.70 C 53.90 12.83 52.73 16.27 50.58 19.16 C 49.24 16.53 47.88 13.92 46.47 11.32 Z" />
</g>
<g id="#9783caff">
<path fill="#9783ca" opacity="1.00" d=" M 55.63 9.70 C 60.91 6.57 67.17 9.21 72.37 11.18 C 69.71 10.94 67.04 10.68 64.39 10.39 C 63.01 12.32 61.66 14.27 60.21 16.15 C 58.89 17.78 57.59 19.42 56.29 21.06 C 56.79 21.53 57.79 22.48 58.29 22.95 C 57.48 22.84 55.86 22.61 55.05 22.50 L 54.57 24.53 C 54.19 26.17 53.82 27.80 53.46 29.45 C 49.74 30.53 46.08 32.03 42.11 31.41 C 41.92 30.77 41.52 29.49 41.32 28.85 C 45.02 26.22 48.45 23.25 50.58 19.16 C 52.73 16.27 53.90 12.83 55.63 9.70 M 43.20 28.22 C 43.77 28.74 43.77 28.74 43.20 28.22 Z" />
<path fill="#9783ca" opacity="1.00" d=" M 18.35 33.14 C 21.30 28.37 24.05 22.25 30.04 20.83 C 28.62 23.74 25.41 25.10 23.77 27.84 C 18.38 36.12 16.38 46.24 16.87 56.02 C 16.52 57.69 16.14 59.36 15.88 61.05 C 13.81 51.77 14.91 41.95 18.35 33.14 Z" />
</g>
<g id="#7a6cb6ff">
<path fill="#7a6cb6" opacity="1.00" d=" M 64.39 10.39 C 67.04 10.68 69.71 10.94 72.37 11.18 C 77.19 11.55 82.12 11.31 86.69 13.16 C 80.80 16.23 74.00 12.64 67.80 14.59 C 67.45 14.28 66.76 13.68 66.41 13.37 C 65.55 14.42 64.68 15.46 63.81 16.49 C 63.43 16.45 62.68 16.36 62.30 16.32 C 61.78 16.27 60.74 16.19 60.21 16.15 C 61.66 14.27 63.01 12.32 64.39 10.39 Z" />
</g>
<g id="#6c599eff">
<path fill="#6c599e" opacity="1.00" d=" M 63.81 16.49 C 64.68 15.46 65.55 14.42 66.41 13.37 C 66.76 13.68 67.45 14.28 67.80 14.59 C 67.85 16.65 67.96 18.80 67.00 20.70 C 65.35 20.75 64.25 21.87 63.24 23.02 C 62.97 21.20 62.68 19.33 61.57 17.81 L 61.20 17.14 C 61.48 16.94 62.03 16.52 62.30 16.32 C 62.68 16.36 63.43 16.45 63.81 16.49 Z" />
</g>
<g id="#7467caff">
<path fill="#7467ca" opacity="1.00" d=" M 86.69 13.16 C 87.29 13.12 88.48 13.04 89.07 13.00 C 92.52 14.13 95.77 15.81 99.03 17.38 C 98.63 17.53 97.84 17.82 97.44 17.96 C 97.81 18.49 98.57 19.54 98.94 20.07 C 98.60 19.95 97.91 19.71 97.56 19.59 C 89.53 16.38 80.84 15.92 72.29 16.52 C 70.06 19.16 69.21 22.46 68.71 25.81 C 68.34 27.97 65.95 28.42 64.26 29.16 C 64.99 28.13 65.73 27.11 66.46 26.09 C 66.59 24.29 66.72 22.48 67.00 20.70 C 67.96 18.80 67.85 16.65 67.80 14.59 C 74.00 12.64 80.80 16.23 86.69 13.16 Z" />
</g>
<g id="#2b2333ff">
<path fill="#2b2333" opacity="1.00" d=" M 60.21 16.15 C 60.74 16.19 61.78 16.27 62.30 16.32 C 62.03 16.52 61.48 16.94 61.20 17.14 C 60.63 17.62 59.49 18.58 58.92 19.06 C 59.44 20.35 59.95 21.64 60.47 22.92 C 58.75 24.16 56.63 24.41 54.57 24.53 L 55.05 22.50 C 55.86 22.61 57.48 22.84 58.29 22.95 C 57.79 22.48 56.79 21.53 56.29 21.06 C 57.59 19.42 58.89 17.78 60.21 16.15 Z" />
<path fill="#2b2333" opacity="1.00" d=" M 60.59 31.09 C 61.79 30.74 63.00 30.39 64.21 30.04 C 64.73 32.04 65.27 34.05 65.67 36.08 C 66.11 38.75 66.55 41.42 66.98 44.09 C 71.73 40.09 76.21 35.70 81.61 32.57 C 84.07 31.22 86.76 29.58 89.68 30.38 C 83.86 34.86 78.70 40.12 73.83 45.60 C 70.87 48.79 68.13 52.17 65.34 55.50 C 63.02 52.73 60.51 50.12 57.85 47.67 C 53.00 43.24 47.92 39.03 42.48 35.34 C 44.12 34.89 45.80 34.56 47.50 34.43 C 52.51 37.54 57.30 40.97 62.23 44.21 C 61.86 39.84 61.03 35.53 60.02 31.27 L 60.59 31.09 Z" />
<path fill="#2b2333" opacity="1.00" d=" M 44.40 100.82 C 44.73 102.01 45.01 103.21 45.24 104.42 L 46.61 104.44 C 48.20 104.47 49.79 104.49 51.38 104.54 C 56.43 104.88 61.48 105.51 66.52 104.64 C 72.61 106.31 78.81 103.91 84.97 104.76 L 84.26 105.76 C 81.65 106.20 79.00 106.19 76.36 106.12 C 74.12 106.07 71.87 106.08 69.63 106.28 C 64.51 106.40 59.41 106.08 54.30 105.76 C 51.79 105.70 49.27 105.69 46.75 105.55 C 46.32 105.53 45.47 105.47 45.04 105.45 L 45.03 106.94 C 44.86 104.89 44.68 102.85 44.40 100.82 Z" />
<path fill="#2b2333" opacity="1.00" d=" M 92.64 143.58 C 92.71 145.76 92.69 147.95 92.39 150.12 C 89.93 157.00 84.53 162.87 77.58 165.32 C 75.89 165.98 74.07 165.68 72.36 165.29 C 83.15 164.12 92.01 154.35 92.64 143.58 Z" />
</g>
<g id="#4b3d7fff">
<path fill="#4b3d7f" opacity="1.00" d=" M 72.29 16.52 C 80.84 15.92 89.53 16.38 97.56 19.59 C 97.54 20.14 97.50 21.26 97.47 21.82 C 94.09 22.04 90.69 22.04 87.33 22.51 C 83.34 23.10 80.29 25.93 76.85 27.77 C 73.54 29.66 69.77 30.56 66.45 32.44 C 66.06 33.62 65.79 34.84 65.67 36.08 C 65.27 34.05 64.73 32.04 64.21 30.04 C 63.00 30.39 61.79 30.74 60.59 31.09 C 61.23 30.11 61.87 29.13 62.52 28.15 C 59.55 28.86 56.51 29.22 53.46 29.45 C 53.82 27.80 54.19 26.17 54.57 24.53 C 56.63 24.41 58.75 24.16 60.47 22.92 C 60.75 22.58 61.30 21.90 61.58 21.55 C 61.61 20.31 61.61 19.06 61.57 17.81 C 62.68 19.33 62.97 21.20 63.24 23.02 C 64.25 21.87 65.35 20.75 67.00 20.70 C 66.72 22.48 66.59 24.29 66.46 26.09 C 65.73 27.11 64.99 28.13 64.26 29.16 C 65.95 28.42 68.34 27.97 68.71 25.81 C 69.21 22.46 70.06 19.16 72.29 16.52 Z" />
</g>
<g id="#7777dfff">
<path fill="#7777df" opacity="1.00" d=" M 99.03 17.38 C 102.00 18.17 104.48 20.22 106.85 22.08 C 107.33 22.99 108.01 23.69 108.92 24.17 C 112.29 27.13 114.82 31.01 116.72 35.04 L 116.18 35.97 C 112.39 28.91 106.27 23.31 98.94 20.07 C 98.57 19.54 97.81 18.49 97.44 17.96 C 97.84 17.82 98.63 17.53 99.03 17.38 Z" />
<path fill="#7777df" opacity="1.00" d=" M 116.28 154.13 C 116.67 151.33 116.83 148.37 118.88 146.20 C 120.48 153.80 116.82 161.93 110.34 166.11 C 111.48 163.90 112.97 161.85 113.71 159.46 C 114.09 158.11 114.45 156.76 114.82 155.42 C 115.19 155.10 115.92 154.45 116.28 154.13 Z" />
<path fill="#7777df" opacity="1.00" d=" M 98.49 168.50 C 102.72 168.77 106.24 166.37 109.48 164.00 L 109.92 165.68 C 104.25 171.67 94.86 171.91 87.06 172.13 C 81.57 170.78 75.57 170.33 70.80 167.03 C 78.32 167.95 86.01 172.48 93.57 169.35 C 93.26 169.89 92.66 170.97 92.36 171.51 C 93.95 170.91 95.52 170.22 96.98 169.34 C 97.36 169.13 98.11 168.71 98.49 168.50 Z" />
</g>
<g id="#b0a0e0ff">
<path fill="#b0a0e0" opacity="1.00" d=" M 58.92 19.06 C 59.49 18.58 60.63 17.62 61.20 17.14 L 61.57 17.81 C 61.61 19.06 61.61 20.31 61.58 21.55 C 61.30 21.90 60.75 22.58 60.47 22.92 C 59.95 21.64 59.44 20.35 58.92 19.06 Z" />
<path fill="#b0a0e0" opacity="1.00" d=" M 46.75 105.55 C 49.27 105.69 51.79 105.70 54.30 105.76 C 53.06 106.21 51.84 106.73 50.62 107.23 C 51.38 113.04 49.43 119.88 53.53 124.74 L 54.14 125.32 C 51.52 125.28 48.90 125.18 46.31 124.76 C 46.40 118.35 46.24 111.94 46.75 105.55 Z" />
</g>
<g id="#5c4b8dff">
<path fill="#5c4b8d" opacity="1.00" d=" M 30.04 20.83 C 31.27 20.50 32.55 20.42 33.81 20.28 C 32.72 22.92 31.59 25.80 33.02 28.56 C 33.53 29.63 34.27 30.57 34.97 31.52 C 37.44 32.86 40.04 33.94 42.48 35.34 C 47.92 39.03 53.00 43.24 57.85 47.67 C 56.82 48.35 55.79 49.03 54.76 49.70 C 47.78 44.15 39.44 40.75 31.89 36.10 C 30.14 34.96 28.19 34.19 26.11 33.97 C 26.12 35.72 26.13 37.47 26.23 39.22 C 24.97 38.16 23.71 37.10 22.46 36.05 C 21.45 37.84 20.55 39.71 20.03 41.71 C 18.76 46.43 18.28 51.33 16.87 56.02 C 16.38 46.24 18.38 36.12 23.77 27.84 C 25.41 25.10 28.62 23.74 30.04 20.83 Z" />
</g>
<g id="#5c4c8dff">
<path fill="#5c4c8d" opacity="1.00" d=" M 97.56 19.59 C 97.91 19.71 98.60 19.95 98.94 20.07 C 106.27 23.31 112.39 28.91 116.18 35.97 C 116.02 36.24 115.71 36.77 115.55 37.04 C 113.64 35.01 111.61 33.10 109.26 31.59 C 110.48 34.53 112.88 37.22 112.55 40.59 C 110.76 37.44 108.53 34.59 106.24 31.81 C 105.06 30.22 103.87 28.64 102.70 27.04 C 97.99 25.93 93.33 27.32 89.68 30.38 C 86.76 29.58 84.07 31.22 81.61 32.57 C 76.21 35.70 71.73 40.09 66.98 44.09 C 66.55 41.42 66.11 38.75 65.67 36.08 C 65.79 34.84 66.06 33.62 66.45 32.44 C 69.77 30.56 73.54 29.66 76.85 27.77 C 80.29 25.93 83.34 23.10 87.33 22.51 C 90.69 22.04 94.09 22.04 97.47 21.82 C 97.50 21.26 97.54 20.14 97.56 19.59 Z" />
</g>
<g id="#19192d5c">
<path fill="#19192d" opacity="0.36" d=" M 106.85 22.08 C 108.64 21.68 109.33 22.38 108.92 24.17 C 108.01 23.69 107.33 22.99 106.85 22.08 Z" />
</g>
<g id="#a08bddff">
<path fill="#a08bdd" opacity="1.00" d=" M 33.23 27.12 C 34.46 27.21 35.70 27.30 36.94 27.36 C 36.81 28.91 37.35 29.13 38.54 28.01 C 39.47 28.28 40.40 28.55 41.32 28.85 C 41.52 29.49 41.92 30.77 42.11 31.41 C 39.73 31.37 37.35 31.44 34.97 31.52 C 34.27 30.57 33.53 29.63 33.02 28.56 C 33.07 28.20 33.18 27.48 33.23 27.12 Z" />
</g>
<g id="#7766a7ff">
<path fill="#7766a7" opacity="1.00" d=" M 36.94 27.36 L 37.86 27.40 L 38.54 28.01 C 37.35 29.13 36.81 28.91 36.94 27.36 Z" />
</g>
<g id="#6b5a9bff">
<path fill="#6b5a9b" opacity="1.00" d=" M 89.68 30.38 C 93.33 27.32 97.99 25.93 102.70 27.04 C 103.87 28.64 105.06 30.22 106.24 31.81 C 106.20 32.32 106.13 33.34 106.09 33.85 C 105.26 33.36 104.44 32.86 103.61 32.39 C 102.23 31.66 100.68 30.86 99.48 32.36 C 92.91 37.62 85.46 41.62 78.74 46.67 C 77.45 45.20 75.54 45.54 73.83 45.60 C 78.70 40.12 83.86 34.86 89.68 30.38 Z" />
</g>
<g id="#534582ff">
<path fill="#534582" opacity="1.00" d=" M 43.20 28.22 C 43.77 28.74 43.77 28.74 43.20 28.22 Z" />
</g>
<g id="#3e316aff">
<path fill="#3e316a" opacity="1.00" d=" M 53.46 29.45 C 56.51 29.22 59.55 28.86 62.52 28.15 C 61.87 29.13 61.23 30.11 60.59 31.09 L 60.02 31.27 C 55.92 32.56 51.79 33.90 47.50 34.43 C 45.80 34.56 44.12 34.89 42.48 35.34 C 40.04 33.94 37.44 32.86 34.97 31.52 C 37.35 31.44 39.73 31.37 42.11 31.41 C 46.08 32.03 49.74 30.53 53.46 29.45 Z" />
</g>
<g id="#584886ff">
<path fill="#584886" opacity="1.00" d=" M 47.50 34.43 C 51.79 33.90 55.92 32.56 60.02 31.27 C 61.03 35.53 61.86 39.84 62.23 44.21 C 57.30 40.97 52.51 37.54 47.50 34.43 Z" />
</g>
<g id="#342e3bff">
<path fill="#342e3b" opacity="1.00" d=" M 99.48 32.36 C 100.68 30.86 102.23 31.66 103.61 32.39 C 104.97 38.50 104.45 44.84 102.78 50.82 C 101.41 55.61 98.89 60.00 95.56 63.70 C 93.34 65.72 90.73 67.24 87.99 68.45 C 84.40 69.13 80.46 69.59 77.10 67.82 C 72.87 65.78 70.76 60.79 71.30 56.25 C 72.78 52.40 75.54 49.21 78.74 46.67 C 85.46 41.62 92.91 37.62 99.48 32.36 M 94.77 40.70 C 89.50 44.23 83.94 47.34 79.03 51.37 L 79.12 51.68 C 77.35 53.35 75.60 55.39 75.68 57.99 C 75.25 62.03 78.99 65.73 83.00 65.46 C 88.14 65.05 92.87 61.91 95.53 57.54 C 99.40 51.38 100.52 43.86 100.36 36.70 C 98.49 38.02 96.64 39.38 94.77 40.70 Z" />
</g>
<g id="#8370b5ff">
<path fill="#8370b5" opacity="1.00" d=" M 103.61 32.39 C 104.44 32.86 105.26 33.36 106.09 33.85 C 106.13 33.34 106.20 32.32 106.24 31.81 C 108.53 34.59 110.76 37.44 112.55 40.59 C 113.45 42.86 114.28 45.17 114.94 47.53 C 110.70 47.81 106.76 49.50 102.78 50.82 C 104.45 44.84 104.97 38.50 103.61 32.39 Z" />
</g>
<g id="#6f60a7ff">
<path fill="#6f60a7" opacity="1.00" d=" M 109.26 31.59 C 111.61 33.10 113.64 35.01 115.55 37.04 C 115.71 36.77 116.02 36.24 116.18 35.97 L 116.72 35.04 C 121.85 44.37 123.36 56.08 118.96 65.99 C 114.73 75.15 106.65 81.61 99.50 88.42 C 94.27 93.41 86.95 97.29 84.99 104.76 L 84.97 104.76 C 78.81 103.91 72.61 106.31 66.52 104.64 C 66.97 104.58 67.88 104.47 68.33 104.41 C 69.56 104.29 70.79 104.22 72.02 104.19 C 74.70 103.90 78.21 104.69 79.97 102.10 C 83.18 97.92 87.82 95.25 91.33 91.37 C 94.23 88.15 98.17 86.19 101.50 83.48 C 107.34 78.69 113.54 73.74 116.59 66.61 C 119.38 61.08 119.49 54.50 117.50 48.70 C 117.04 53.89 117.47 59.34 115.16 64.17 L 114.81 62.91 C 114.95 62.24 115.22 60.90 115.35 60.22 C 116.23 56.03 115.64 51.71 114.94 47.53 C 114.28 45.17 113.45 42.86 112.55 40.59 C 112.88 37.22 110.48 34.53 109.26 31.59 Z" />
</g>
<g id="#2d2635ff">
<path fill="#2d2635" opacity="1.00" d=" M 26.11 33.97 C 28.19 34.19 30.14 34.96 31.89 36.10 C 39.44 40.75 47.78 44.15 54.76 49.70 C 58.27 52.36 60.82 56.44 60.17 61.01 C 58.75 63.80 57.15 66.86 54.11 68.16 C 50.99 69.82 47.31 69.57 44.05 68.52 C 38.76 65.93 34.78 61.26 32.17 56.06 C 29.57 50.69 27.48 45.06 26.23 39.22 C 26.13 37.47 26.12 35.72 26.11 33.97 M 30.50 39.79 C 32.17 47.13 34.74 54.53 39.49 60.48 C 42.58 64.18 48.07 67.37 52.79 64.78 C 56.73 62.84 57.06 56.86 54.09 53.94 C 50.95 50.52 46.64 48.59 42.63 46.40 C 38.53 44.31 34.67 41.76 30.50 39.79 Z" />
</g>
<g id="#6f5ea1ff">
<path fill="#6f5ea1" opacity="1.00" d=" M 20.03 41.71 C 20.55 39.71 21.45 37.84 22.46 36.05 C 23.71 37.10 24.97 38.16 26.23 39.22 C 27.48 45.06 29.57 50.69 32.17 56.06 C 31.11 56.47 30.05 56.89 28.99 57.31 C 25.22 52.60 21.59 47.63 20.03 41.71 Z" />
</g>
<g id="#b53e47ff">
<path fill="#b53e47" opacity="1.00" d=" M 94.77 40.70 C 96.64 39.38 98.49 38.02 100.36 36.70 C 100.52 43.86 99.40 51.38 95.53 57.54 C 92.87 61.91 88.14 65.05 83.00 65.46 C 78.99 65.73 75.25 62.03 75.68 57.99 C 75.60 55.39 77.35 53.35 79.12 51.68 C 79.87 55.13 81.52 58.49 84.72 60.28 C 85.09 60.44 85.83 60.75 86.20 60.91 L 84.38 61.13 C 86.49 63.31 90.19 62.01 91.89 59.92 C 95.41 55.72 97.25 50.29 98.14 44.95 C 98.88 42.60 96.14 41.91 94.77 40.70 Z" />
</g>
<g id="#a1363eff">
<path fill="#a1363e" opacity="1.00" d=" M 30.50 39.79 C 34.67 41.76 38.53 44.31 42.63 46.40 C 46.64 48.59 50.95 50.52 54.09 53.94 C 57.06 56.86 56.73 62.84 52.79 64.78 C 48.07 67.37 42.58 64.18 39.49 60.48 C 34.74 54.53 32.17 47.13 30.50 39.79 M 35.82 45.97 C 36.75 49.51 38.18 52.89 39.95 56.08 C 41.32 58.43 43.02 61.25 46.01 61.54 C 48.62 60.88 47.70 57.03 50.16 55.86 C 50.01 55.22 49.72 53.94 49.57 53.31 C 45.03 50.80 40.21 48.79 35.82 45.97 Z" />
</g>
<g id="#9c2f32ff">
<path fill="#9c2f32" opacity="1.00" d=" M 79.03 51.37 C 83.94 47.34 89.50 44.23 94.77 40.70 C 96.14 41.91 98.88 42.60 98.14 44.95 C 97.25 50.29 95.41 55.72 91.89 59.92 C 90.19 62.01 86.49 63.31 84.38 61.13 L 86.20 60.91 C 88.81 61.02 90.83 59.14 92.12 57.06 C 94.77 53.14 95.70 48.40 96.25 43.78 C 92.19 46.66 87.96 49.27 83.58 51.63 C 82.23 52.18 82.04 53.71 81.48 54.87 C 82.45 55.64 83.42 56.41 84.39 57.18 C 84.47 57.96 84.63 59.51 84.72 60.28 C 81.52 58.49 79.87 55.13 79.12 51.68 L 79.03 51.37 Z" />
</g>
<g id="#7f6db7ff">
<path fill="#7f6db7" opacity="1.00" d=" M 20.03 41.71 C 21.59 47.63 25.22 52.60 28.99 57.31 C 30.05 56.89 31.11 56.47 32.17 56.06 C 34.78 61.26 38.76 65.93 44.05 68.52 C 42.84 69.75 41.63 70.99 40.43 72.24 C 36.92 70.44 33.95 67.82 30.88 65.41 C 31.01 67.31 31.13 69.22 31.35 71.12 C 27.11 68.22 23.25 64.81 19.90 60.91 C 20.18 65.71 22.80 69.79 24.77 74.02 C 24.64 74.32 24.38 74.91 24.25 75.20 C 20.44 69.50 16.29 63.21 16.87 56.02 C 18.28 51.33 18.76 46.43 20.03 41.71 Z" />
</g>
<g id="#bd9f72ff">
<path fill="#bd9f72" opacity="1.00" d=" M 83.58 51.63 C 87.96 49.27 92.19 46.66 96.25 43.78 C 95.70 48.40 94.77 53.14 92.12 57.06 C 90.83 59.14 88.81 61.02 86.20 60.91 C 85.83 60.75 85.09 60.44 84.72 60.28 C 84.63 59.51 84.47 57.96 84.39 57.18 C 83.42 56.41 82.45 55.64 81.48 54.87 C 82.04 53.71 82.23 52.18 83.58 51.63 Z" />
</g>
<g id="#7766afff">
<path fill="#7766af" opacity="1.00" d=" M 73.83 45.60 C 75.54 45.54 77.45 45.20 78.74 46.67 C 75.54 49.21 72.78 52.40 71.30 56.25 C 68.09 57.50 64.75 58.44 61.32 58.82 C 60.94 59.55 60.55 60.28 60.17 61.01 C 60.82 56.44 58.27 52.36 54.76 49.70 C 55.79 49.03 56.82 48.35 57.85 47.67 C 60.51 50.12 63.02 52.73 65.34 55.50 C 68.13 52.17 70.87 48.79 73.83 45.60 Z" />
</g>
<g id="#a18662ff">
<path fill="#a18662" opacity="1.00" d=" M 35.82 45.97 C 40.21 48.79 45.03 50.80 49.57 53.31 C 49.72 53.94 50.01 55.22 50.16 55.86 C 47.70 57.03 48.62 60.88 46.01 61.54 C 43.02 61.25 41.32 58.43 39.95 56.08 C 38.18 52.89 36.75 49.51 35.82 45.97 Z" />
</g>
<g id="#907dcbff">
<path fill="#907dcb" opacity="1.00" d=" M 102.78 50.82 C 106.76 49.50 110.70 47.81 114.94 47.53 C 115.64 51.71 116.23 56.03 115.35 60.22 C 115.16 58.27 114.88 56.32 114.59 54.38 C 110.27 55.94 106.03 57.78 102.10 60.18 C 99.99 61.47 98.08 63.27 95.56 63.70 C 98.89 60.00 101.41 55.61 102.78 50.82 Z" />
</g>
<g id="#8f7cc9ff">
<path fill="#8f7cc9" opacity="1.00" d=" M 117.50 48.70 C 119.49 54.50 119.38 61.08 116.59 66.61 C 113.54 73.74 107.34 78.69 101.50 83.48 C 98.17 86.19 94.23 88.15 91.33 91.37 C 87.82 95.25 83.18 97.92 79.97 102.10 C 78.21 104.69 74.70 103.90 72.02 104.19 C 71.55 103.63 71.07 103.08 70.60 102.53 C 75.54 97.51 79.69 91.63 85.61 87.66 C 90.79 84.45 96.76 82.88 102.20 80.24 C 107.25 75.15 111.40 69.21 114.81 62.91 L 115.16 64.17 C 117.47 59.34 117.04 53.89 117.50 48.70 Z" />
</g>
<g id="#9b88e4ff">
<path fill="#9b88e4" opacity="1.00" d=" M 102.10 60.18 C 106.03 57.78 110.27 55.94 114.59 54.38 C 114.88 56.32 115.16 58.27 115.35 60.22 C 115.22 60.90 114.95 62.24 114.81 62.91 C 111.40 69.21 107.25 75.15 102.20 80.24 C 96.76 82.88 90.79 84.45 85.61 87.66 C 79.69 91.63 75.54 97.51 70.60 102.53 C 71.07 103.08 71.55 103.63 72.02 104.19 C 70.79 104.22 69.56 104.29 68.33 104.41 C 67.39 103.73 66.45 103.07 65.51 102.40 C 66.95 98.49 68.40 94.58 69.70 90.61 C 70.40 90.10 71.11 89.60 71.81 89.09 C 71.06 88.99 69.56 88.80 68.81 88.70 C 80.42 87.24 94.01 84.52 100.62 73.73 C 102.05 70.94 102.80 67.85 102.85 64.72 C 98.29 68.65 93.23 72.40 87.22 73.68 C 86.59 73.52 85.33 73.20 84.70 73.04 C 85.75 71.48 86.82 69.92 87.99 68.45 C 90.73 67.24 93.34 65.72 95.56 63.70 C 98.08 63.27 99.99 61.47 102.10 60.18 Z" />
</g>
<g id="#c3aef9ff">
<path fill="#c3aef9" opacity="1.00" d=" M 15.88 61.05 C 16.14 59.36 16.52 57.69 16.87 56.02 C 16.29 63.21 20.44 69.50 24.25 75.20 C 24.11 75.53 23.81 76.18 23.66 76.51 C 19.91 72.04 17.27 66.71 15.88 61.05 Z" />
<path fill="#c3aef9" opacity="1.00" d=" M 108.09 133.32 C 108.36 133.46 108.90 133.74 109.17 133.89 C 110.83 135.30 112.41 136.81 114.04 138.27 C 112.94 138.34 111.84 138.42 110.75 138.49 C 110.98 139.77 110.30 140.71 109.37 141.49 C 108.16 140.95 106.95 140.42 105.75 139.90 C 105.65 140.35 105.46 141.26 105.37 141.72 C 103.76 141.99 102.16 142.27 100.55 142.56 L 99.66 141.40 C 99.43 141.12 98.99 140.55 98.77 140.26 C 95.87 140.88 93.24 139.59 90.90 138.02 C 93.30 138.22 95.65 138.80 98.04 139.08 C 101.10 138.92 104.16 138.57 107.23 138.81 C 107.32 138.44 107.50 137.70 107.60 137.33 C 108.23 137.08 109.49 136.59 110.13 136.35 C 108.03 135.60 105.83 134.19 103.54 135.28 C 103.54 134.76 103.54 134.25 103.56 133.74 C 104.69 133.64 106.96 133.43 108.09 133.32 Z" />
</g>
<g id="#8875ccff">
<path fill="#8875cc" opacity="1.00" d=" M 61.32 58.82 C 64.75 58.44 68.09 57.50 71.30 56.25 C 70.76 60.79 72.87 65.78 77.10 67.82 C 80.46 69.59 84.40 69.13 87.99 68.45 C 86.82 69.92 85.75 71.48 84.70 73.04 C 85.33 73.20 86.59 73.52 87.22 73.68 C 79.31 75.66 72.10 70.83 65.20 67.74 C 57.71 71.55 48.79 76.62 40.43 72.24 C 41.63 70.99 42.84 69.75 44.05 68.52 C 47.31 69.57 50.99 69.82 54.11 68.16 C 57.15 66.86 58.75 63.80 60.17 61.01 C 60.55 60.28 60.94 59.55 61.32 58.82 Z" />
</g>
<g id="#9682dcff">
<path fill="#9682dc" opacity="1.00" d=" M 19.90 60.91 C 23.25 64.81 27.11 68.22 31.35 71.12 C 31.61 72.41 31.95 73.68 32.34 74.94 C 30.20 74.36 28.06 73.78 25.91 73.23 C 26.58 75.17 27.31 77.08 28.26 78.90 C 27.27 78.72 26.27 78.56 25.26 78.42 L 25.01 78.39 C 24.56 77.76 24.11 77.14 23.66 76.51 C 23.81 76.18 24.11 75.53 24.25 75.20 C 24.38 74.91 24.64 74.32 24.77 74.02 C 22.80 69.79 20.18 65.71 19.90 60.91 Z" />
</g>
<g id="#383043ff">
<path fill="#383043" opacity="1.00" d=" M 102.85 64.72 C 102.80 67.85 102.05 70.94 100.62 73.73 C 100.34 72.19 100.28 70.62 100.31 69.06 C 94.07 73.66 85.98 77.39 78.15 74.97 C 73.60 74.04 69.65 71.26 65.14 70.35 C 59.43 72.20 54.12 75.63 47.97 75.95 C 43.05 76.30 38.95 73.09 34.30 72.12 C 34.53 74.06 34.66 76.02 34.38 77.96 C 33.66 76.98 32.98 75.97 32.34 74.94 C 31.95 73.68 31.61 72.41 31.35 71.12 C 31.13 69.22 31.01 67.31 30.88 65.41 C 33.95 67.82 36.92 70.44 40.43 72.24 C 48.79 76.62 57.71 71.55 65.20 67.74 C 72.10 70.83 79.31 75.66 87.22 73.68 C 93.23 72.40 98.29 68.65 102.85 64.72 Z" />
</g>
<g id="#453e54ff">
<path fill="#453e54" opacity="1.00" d=" M 78.15 74.97 C 85.98 77.39 94.07 73.66 100.31 69.06 C 100.28 70.62 100.34 72.19 100.62 73.73 C 94.01 84.52 80.42 87.24 68.81 88.70 C 66.08 89.40 63.82 91.15 61.68 92.90 C 59.68 90.47 57.17 88.23 53.91 87.85 C 46.57 86.85 39.15 83.82 34.38 77.96 C 34.66 76.02 34.53 74.06 34.30 72.12 C 38.95 73.09 43.05 76.30 47.97 75.95 C 54.12 75.63 59.43 72.20 65.14 70.35 C 69.65 71.26 73.60 74.04 78.15 74.97 Z" />
</g>
<g id="#a995fcff">
<path fill="#a995fc" opacity="1.00" d=" M 25.91 73.23 C 28.06 73.78 30.20 74.36 32.34 74.94 C 32.98 75.97 33.66 76.98 34.38 77.96 C 39.15 83.82 46.57 86.85 53.91 87.85 C 57.17 88.23 59.68 90.47 61.68 92.90 C 63.82 91.15 66.08 89.40 68.81 88.70 C 69.56 88.80 71.06 88.99 71.81 89.09 C 71.11 89.60 70.40 90.10 69.70 90.61 C 68.40 94.58 66.95 98.49 65.51 102.40 C 66.45 103.07 67.39 103.73 68.33 104.41 C 67.88 104.47 66.97 104.58 66.52 104.64 C 61.48 105.51 56.43 104.88 51.38 104.54 C 51.42 99.74 50.47 94.61 46.82 91.19 C 41.31 86.17 34.87 82.30 28.26 78.90 C 27.31 77.08 26.58 75.17 25.91 73.23 Z" />
</g>
<g id="#b49fe7ff">
<path fill="#b49fe7" opacity="1.00" d=" M 25.26 78.42 C 26.27 78.56 27.27 78.72 28.26 78.90 C 34.87 82.30 41.31 86.17 46.82 91.19 C 50.47 94.61 51.42 99.74 51.38 104.54 C 49.79 104.49 48.20 104.47 46.61 104.44 C 45.74 99.50 43.37 94.81 39.55 91.50 C 35.91 88.33 32.67 84.66 28.57 82.06 C 27.22 81.09 26.31 79.67 25.26 78.42 Z" />
</g>
<g id="#aa99f8ff">
<path fill="#aa99f8" opacity="1.00" d=" M 54.30 105.76 C 59.41 106.08 64.51 106.40 69.63 106.28 L 68.65 106.58 C 66.73 107.02 64.77 107.27 62.89 107.87 C 60.51 112.85 60.37 118.56 58.65 123.78 C 56.94 124.10 55.23 124.42 53.53 124.74 C 49.43 119.88 51.38 113.04 50.62 107.23 C 51.84 106.73 53.06 106.21 54.30 105.76 Z" />
</g>
<g id="#8474baff">
<path fill="#8474ba" opacity="1.00" d=" M 69.63 106.28 C 71.87 106.08 74.12 106.07 76.36 106.12 C 76.16 111.83 75.24 117.51 75.65 123.23 C 72.97 123.74 70.27 124.08 67.57 124.39 C 67.59 118.44 68.59 112.33 71.46 107.06 C 70.76 106.94 69.36 106.70 68.65 106.58 L 69.63 106.28 Z" />
</g>
<g id="#6b5ca2ff">
<path fill="#6b5ca2" opacity="1.00" d=" M 76.36 106.12 C 79.00 106.19 81.65 106.20 84.26 105.76 C 84.14 106.16 83.90 106.96 83.78 107.36 C 82.26 111.68 82.95 116.33 83.34 120.78 C 84.13 117.93 84.12 114.97 84.11 112.04 C 84.07 116.46 84.31 120.87 84.60 125.25 C 82.98 131.23 86.73 136.96 89.93 141.72 C 90.30 141.26 91.05 140.34 91.43 139.88 C 94.56 143.73 98.10 147.40 102.74 149.40 C 102.92 151.84 102.82 154.30 102.52 156.73 C 98.70 155.19 93.96 154.56 92.39 150.12 C 92.69 147.95 92.71 145.76 92.64 143.58 C 92.01 154.35 83.15 164.12 72.36 165.29 C 70.65 164.93 68.90 164.64 67.17 165.05 C 67.00 165.07 66.66 165.12 66.49 165.14 L 66.40 164.62 C 66.21 163.56 66.02 162.50 65.84 161.44 C 70.54 157.86 72.63 152.22 74.65 146.89 C 74.21 146.84 73.32 146.73 72.88 146.68 C 76.71 145.12 80.61 143.50 83.81 140.83 C 84.90 139.85 86.33 138.74 86.02 137.09 C 82.95 139.08 80.38 141.92 76.84 143.23 C 75.90 137.92 76.62 132.47 75.79 127.16 C 75.41 126.66 74.66 125.66 74.28 125.17 C 77.53 124.16 82.66 125.06 83.74 120.97 C 81.05 121.77 78.39 122.66 75.65 123.23 C 75.24 117.51 76.16 111.83 76.36 106.12 Z" />
</g>
<g id="#9a8adeff">
<path fill="#9a8ade" opacity="1.00" d=" M 62.89 107.87 C 64.77 107.27 66.73 107.02 68.65 106.58 C 69.36 106.70 70.76 106.94 71.46 107.06 C 68.59 112.33 67.59 118.44 67.57 124.39 C 63.10 124.80 58.63 125.39 54.14 125.32 L 53.53 124.74 C 55.23 124.42 56.94 124.10 58.65 123.78 C 60.37 118.56 60.51 112.85 62.89 107.87 Z" />
</g>
<g id="#363050ff">
<path fill="#363050" opacity="1.00" d=" M 46.07 130.15 C 44.21 122.94 44.41 115.37 45.02 108.01 C 44.94 113.37 44.80 118.74 45.10 124.11 L 46.31 124.76 C 48.90 125.18 51.52 125.28 54.14 125.32 C 58.63 125.39 63.10 124.80 67.57 124.39 C 70.27 124.08 72.97 123.74 75.65 123.23 C 78.39 122.66 81.05 121.77 83.74 120.97 C 82.66 125.06 77.53 124.16 74.28 125.17 C 71.99 125.58 69.69 125.97 67.37 126.22 C 66.49 126.29 64.74 126.43 63.86 126.50 C 58.25 126.87 52.62 126.95 47.01 126.55 C 46.60 126.18 45.78 125.44 45.36 125.07 C 45.59 126.76 45.83 128.46 46.07 130.15 Z" />
<path fill="#363050" opacity="1.00" d=" M 76.84 143.23 C 80.38 141.92 82.95 139.08 86.02 137.09 C 86.33 138.74 84.90 139.85 83.81 140.83 C 80.61 143.50 76.71 145.12 72.88 146.68 C 71.06 147.19 69.25 147.74 67.41 148.21 C 62.27 149.01 56.66 149.78 51.84 147.28 C 51.68 147.00 51.35 146.44 51.19 146.15 C 54.76 147.26 58.51 147.61 62.23 147.31 C 65.10 146.86 67.95 146.25 70.75 145.47 C 72.82 144.82 74.86 144.09 76.84 143.23 Z" />
<path fill="#363050" opacity="1.00" d=" M 102.74 149.40 C 101.91 146.66 100.88 143.98 99.66 141.40 L 100.55 142.56 C 101.96 144.44 102.93 146.60 103.69 148.81 C 104.06 151.97 104.04 155.17 103.60 158.32 C 102.48 161.97 100.56 165.31 98.49 168.50 C 98.11 168.71 97.36 169.13 96.98 169.34 L 95.40 169.38 C 98.45 165.59 101.56 161.64 102.52 156.73 C 102.82 154.30 102.92 151.84 102.74 149.40 Z" />
</g>
<g id="#7476dcfb">
<path fill="#7476dc" opacity="1.00" d=" M 83.34 120.78 C 82.95 116.33 82.26 111.68 83.78 107.36 C 83.96 108.92 84.07 110.48 84.11 112.04 C 84.12 114.97 84.13 117.93 83.34 120.78 Z" />
</g>
<g id="#8979c0ff">
<path fill="#8979c0" opacity="1.00" d=" M 67.37 126.22 C 69.69 125.97 71.99 125.58 74.28 125.17 C 72.86 126.45 70.78 127.69 71.13 129.94 C 71.26 135.13 70.03 140.30 70.75 145.47 C 67.95 146.25 65.10 146.86 62.23 147.31 C 66.01 140.94 66.31 133.37 67.37 126.22 Z" />
</g>
<g id="#7d6db1ff">
<path fill="#7d6db1" opacity="1.00" d=" M 74.28 125.17 C 74.66 125.66 75.41 126.66 75.79 127.16 C 76.62 132.47 75.90 137.92 76.84 143.23 C 74.86 144.09 72.82 144.82 70.75 145.47 C 70.03 140.30 71.26 135.13 71.13 129.94 C 70.78 127.69 72.86 126.45 74.28 125.17 Z" />
</g>
<g id="#8474b7ff">
<path fill="#8474b7" opacity="1.00" d=" M 89.93 141.72 C 86.73 136.96 82.98 131.23 84.60 125.25 C 85.24 128.89 86.46 132.40 86.94 136.07 C 87.40 136.30 88.32 136.77 88.78 137.00 C 89.48 137.35 90.19 137.68 90.90 138.02 C 93.24 139.59 95.87 140.88 98.77 140.26 C 98.99 140.55 99.43 141.12 99.66 141.40 C 100.88 143.98 101.91 146.66 102.74 149.40 C 98.10 147.40 94.56 143.73 91.43 139.88 C 91.05 140.34 90.30 141.26 89.93 141.72 Z" />
</g>
<g id="#a494dfff">
<path fill="#a494df" opacity="1.00" d=" M 47.01 126.55 C 52.62 126.95 58.25 126.87 63.86 126.50 C 61.28 130.32 60.63 134.95 59.27 139.26 C 56.08 140.63 53.01 142.27 50.24 144.39 C 49.59 142.56 48.74 140.76 48.41 138.83 C 48.68 134.68 47.48 130.64 47.01 126.55 Z" />
</g>
<g id="#9686d0ff">
<path fill="#9686d0" opacity="1.00" d=" M 63.86 126.50 C 64.74 126.43 66.49 126.29 67.37 126.22 C 66.31 133.37 66.01 140.94 62.23 147.31 C 58.51 147.61 54.76 147.26 51.19 146.15 L 51.16 146.15 C 50.93 145.71 50.47 144.83 50.24 144.39 C 53.01 142.27 56.08 140.63 59.27 139.26 C 60.63 134.95 61.28 130.32 63.86 126.50 Z" />
<path fill="#9686d0" opacity="1.00" d=" M 122.11 134.06 C 123.80 134.66 125.46 135.35 127.12 136.06 C 127.01 137.35 126.90 138.64 126.77 139.94 C 125.53 137.74 123.87 135.84 122.11 134.06 Z" />
</g>
<g id="#ffffffff">
<path fill="#ffffff" opacity="1.00" d=" M 88.78 137.00 C 88.67 130.33 95.75 125.63 101.99 126.89 L 101.14 128.41 C 100.67 128.46 99.71 128.55 99.24 128.60 C 100.96 129.08 102.60 129.78 104.17 130.64 C 102.70 131.01 101.23 131.36 99.76 131.71 C 101.20 131.54 102.64 131.37 104.08 131.21 C 105.42 131.91 106.75 132.62 108.09 133.32 C 106.96 133.43 104.69 133.64 103.56 133.74 C 103.54 134.25 103.54 134.76 103.54 135.28 C 105.83 134.19 108.03 135.60 110.13 136.35 C 109.49 136.59 108.23 137.08 107.60 137.33 C 107.50 137.70 107.32 138.44 107.23 138.81 C 104.16 138.57 101.10 138.92 98.04 139.08 C 95.65 138.80 93.30 138.22 90.90 138.02 C 90.19 137.68 89.48 137.35 88.78 137.00 M 95.43 133.09 C 93.94 133.32 93.72 136.11 95.62 134.95 C 97.09 134.71 97.32 131.95 95.43 133.09 Z" />
</g>
<g id="#8177c5ff">
<path fill="#8177c5" opacity="1.00" d=" M 101.99 126.89 C 103.76 127.19 105.48 127.69 107.23 128.10 C 107.90 130.02 108.56 131.94 109.17 133.89 C 108.90 133.74 108.36 133.46 108.09 133.32 C 106.75 132.62 105.42 131.91 104.08 131.21 C 102.64 131.37 101.20 131.54 99.76 131.71 C 101.23 131.36 102.70 131.01 104.17 130.64 C 102.60 129.78 100.96 129.08 99.24 128.60 C 99.71 128.55 100.67 128.46 101.14 128.41 L 101.99 126.89 Z" />
</g>
<g id="#6c5ea6ff">
<path fill="#6c5ea6" opacity="1.00" d=" M 107.23 128.10 C 112.30 129.75 117.38 131.60 122.11 134.06 C 123.87 135.84 125.53 137.74 126.77 139.94 C 126.31 141.43 125.78 142.90 125.27 144.38 L 125.23 144.48 C 122.76 143.91 120.29 143.32 117.82 142.75 C 118.17 143.90 118.53 145.05 118.88 146.20 C 116.83 148.37 116.67 151.33 116.28 154.13 C 115.92 154.45 115.19 155.10 114.82 155.42 C 114.39 152.34 113.81 149.20 112.07 146.55 C 112.29 149.58 112.55 152.61 113.01 155.62 C 109.63 155.35 106.63 157.13 103.60 158.32 C 104.04 155.17 104.06 151.97 103.69 148.81 C 105.81 147.28 108.41 147.36 110.88 147.52 C 110.23 146.04 109.59 144.56 108.96 143.08 C 110.66 142.84 112.37 142.60 114.08 142.36 C 113.94 141.84 113.68 140.82 113.55 140.31 C 113.98 140.29 114.85 140.25 115.28 140.23 C 119.53 140.44 117.94 135.30 117.82 132.70 C 116.90 134.91 115.98 137.12 115.20 139.38 C 114.91 139.11 114.33 138.55 114.04 138.27 C 112.41 136.81 110.83 135.30 109.17 133.89 C 108.56 131.94 107.90 130.02 107.23 128.10 Z" />
</g>
<g id="#d9d3e4ff">
<path fill="#d9d3e4" opacity="1.00" d=" M 95.43 133.09 C 97.32 131.95 97.09 134.71 95.62 134.95 C 93.72 136.11 93.94 133.32 95.43 133.09 Z" />
</g>
<g id="#473a70ff">
<path fill="#473a70" opacity="1.00" d=" M 115.20 139.38 C 115.98 137.12 116.90 134.91 117.82 132.70 C 117.94 135.30 119.53 140.44 115.28 140.23 L 115.20 139.38 Z" />
</g>
<g id="#5f529aff">
<path fill="#5f529a" opacity="1.00" d=" M 127.12 136.06 C 127.55 136.23 128.40 136.58 128.83 136.75 C 129.02 138.39 129.20 140.04 129.39 141.68 C 133.08 143.14 136.96 144.18 140.38 146.26 C 140.35 146.80 140.30 147.90 140.27 148.45 C 135.39 146.67 130.21 145.94 125.27 144.38 C 125.78 142.90 126.31 141.43 126.77 139.94 C 126.90 138.64 127.01 137.35 127.12 136.06 Z" />
</g>
<g id="#8073b4ff">
<path fill="#8073b4" opacity="1.00" d=" M 128.83 136.75 C 132.99 138.45 137.03 140.40 141.17 142.13 C 141.23 142.59 141.34 143.49 141.40 143.94 C 141.14 144.52 140.63 145.68 140.38 146.26 C 136.96 144.18 133.08 143.14 129.39 141.68 C 129.20 140.04 129.02 138.39 128.83 136.75 Z" />
</g>
<g id="#8a79beff">
<path fill="#8a79be" opacity="1.00" d=" M 110.75 138.49 C 111.84 138.42 112.94 138.34 114.04 138.27 C 114.33 138.55 114.91 139.11 115.20 139.38 L 115.28 140.23 C 114.85 140.25 113.98 140.29 113.55 140.31 C 113.68 140.82 113.94 141.84 114.08 142.36 C 112.37 142.60 110.66 142.84 108.96 143.08 C 109.59 144.56 110.23 146.04 110.88 147.52 C 108.41 147.36 105.81 147.28 103.69 148.81 C 102.93 146.60 101.96 144.44 100.55 142.56 C 102.16 142.27 103.76 141.99 105.37 141.72 C 105.46 141.26 105.65 140.35 105.75 139.90 C 106.95 140.42 108.16 140.95 109.37 141.49 C 110.30 140.71 110.98 139.77 110.75 138.49 Z" />
</g>
<g id="#5e4f97ff">
<path fill="#5e4f97" opacity="1.00" d=" M 141.17 142.13 C 141.99 142.46 142.82 142.78 143.65 143.10 L 143.60 143.23 C 143.29 143.98 142.68 145.47 142.37 146.22 C 146.71 147.91 151.24 148.98 155.78 149.99 C 155.60 149.54 155.24 148.64 155.06 148.19 C 156.88 148.84 156.64 150.52 155.96 151.94 C 150.77 151.21 145.82 149.40 140.68 148.44 C 141.51 147.08 142.05 145.49 141.40 143.94 C 141.34 143.49 141.23 142.59 141.17 142.13 Z" />
<path fill="#5e4f97" opacity="1.00" d=" M 77.58 165.32 C 84.53 162.87 89.93 157.00 92.39 150.12 C 93.96 154.56 98.70 155.19 102.52 156.73 C 101.56 161.64 98.45 165.59 95.40 169.38 L 96.98 169.34 C 95.52 170.22 93.95 170.91 92.36 171.51 C 92.66 170.97 93.26 169.89 93.57 169.35 C 86.01 172.48 78.32 167.95 70.80 167.03 C 69.42 166.78 68.34 165.74 67.17 165.05 C 68.90 164.64 70.65 164.93 72.36 165.29 C 74.07 165.68 75.89 165.98 77.58 165.32 Z" />
</g>
<g id="#8571bbff">
<path fill="#8571bb" opacity="1.00" d=" M 142.37 146.22 C 142.68 145.47 143.29 143.98 143.60 143.23 C 147.48 144.75 151.22 146.59 155.06 148.19 C 155.24 148.64 155.60 149.54 155.78 149.99 C 151.24 148.98 146.71 147.91 142.37 146.22 Z" />
</g>
<g id="#7f6fb3ff">
<path fill="#7f6fb3" opacity="1.00" d=" M 67.41 148.21 C 69.25 147.74 71.06 147.19 72.88 146.68 C 73.32 146.73 74.21 146.84 74.65 146.89 C 72.63 152.22 70.54 157.86 65.84 161.44 C 66.02 162.50 66.21 163.56 66.40 164.62 C 64.29 163.05 62.33 161.30 60.48 159.43 C 62.68 155.63 66.36 152.60 67.41 148.21 Z" />
</g>
<g id="#4b4079ff">
<path fill="#4b4079" opacity="1.00" d=" M 112.07 146.55 C 113.81 149.20 114.39 152.34 114.82 155.42 C 114.45 156.76 114.09 158.11 113.71 159.46 C 113.48 158.17 113.25 156.89 113.01 155.62 C 112.55 152.61 112.29 149.58 112.07 146.55 Z" />
</g>
<g id="#8d7dbfff">
<path fill="#8d7dbf" opacity="1.00" d=" M 51.84 147.28 C 56.66 149.78 62.27 149.01 67.41 148.21 C 66.36 152.60 62.68 155.63 60.48 159.43 C 56.28 156.43 54.40 151.55 51.84 147.28 Z" />
</g>
<g id="#564a96ff">
<path fill="#564a96" opacity="1.00" d=" M 103.60 158.32 C 106.63 157.13 109.63 155.35 113.01 155.62 C 113.25 156.89 113.48 158.17 113.71 159.46 C 112.97 161.85 111.48 163.90 110.34 166.11 L 110.14 166.46 L 109.92 165.68 L 109.48 164.00 C 106.24 166.37 102.72 168.77 98.49 168.50 C 100.56 165.31 102.48 161.97 103.60 158.32 Z" />
</g>
</svg>
