<?xml version="1.0" encoding="UTF-8" ?>
<!DOCTYPE svg PUBLIC "-//W3C//DTD SVG 1.1//EN" "http://www.w3.org/Graphics/SVG/1.1/DTD/svg11.dtd">
<svg width="114pt" height="124pt" viewBox="0 0 114 124" version="1.1" xmlns="http://www.w3.org/2000/svg">
<g id="#1d1a18ff">
<path fill="#1d1a18" opacity="1.00" d=" M 4.87 21.09 C 3.39 15.65 2.01 9.42 4.68 4.13 C 10.74 8.50 14.28 15.37 16.88 22.19 C 15.43 18.92 13.96 15.49 11.15 13.14 C 6.50 11.94 3.78 17.13 4.87 21.09 Z" />
</g>
<g id="#1a1715ff">
<path fill="#1a1715" opacity="1.00" d=" M 57.32 13.51 C 60.39 9.99 64.19 7.04 68.65 5.51 C 68.71 12.14 65.82 18.29 62.36 23.77 C 62.04 22.25 61.69 20.74 61.33 19.23 C 61.14 18.65 60.76 17.49 60.57 16.90 C 59.63 15.64 58.50 14.55 57.32 13.51 Z" />
<path fill="#1a1715" opacity="1.00" d=" M 11.19 54.74 C 11.06 51.82 11.02 46.85 15.42 47.82 L 14.87 48.49 C 13.21 49.67 13.31 51.44 13.88 53.18 C 14.35 52.81 15.29 52.09 15.76 51.73 C 15.92 51.24 16.23 50.27 16.38 49.79 C 16.85 52.25 16.62 55.35 14.07 56.60 C 12.17 57.39 11.97 55.53 12.33 54.26 L 11.19 54.74 Z" />
</g>
<g id="#ffe359ff">
<path fill="#ffe359" opacity="1.00" d=" M 4.87 21.09 C 3.78 17.13 6.50 11.94 11.15 13.14 C 10.11 18.03 8.86 22.88 7.35 27.65 C 6.45 25.49 5.52 23.34 4.87 21.09 Z" />
</g>
<g id="#fbc851ff">
<path fill="#fbc851" opacity="1.00" d=" M 11.15 13.14 C 13.96 15.49 15.43 18.92 16.88 22.19 C 17.97 24.76 18.64 27.50 18.99 30.27 C 20.15 30.89 21.41 31.30 22.71 31.49 C 21.19 32.70 19.29 33.12 17.38 32.86 C 15.69 33.90 14.11 35.11 12.68 36.48 L 12.19 36.94 C 10.66 33.80 8.98 30.74 7.35 27.65 C 8.86 22.88 10.11 18.03 11.15 13.14 Z" />
</g>
<g id="#ffe15dff">
<path fill="#ffe15d" opacity="1.00" d=" M 57.32 13.51 C 58.50 14.55 59.63 15.64 60.57 16.90 C 54.29 20.96 50.37 27.44 46.39 33.54 C 44.20 33.60 42.10 32.85 40.01 32.33 C 36.64 38.12 36.71 45.59 31.52 50.30 C 31.93 53.47 30.37 56.22 28.91 58.89 C 27.94 60.39 29.22 62.02 29.57 63.50 C 25.30 63.87 20.91 64.03 16.76 62.81 C 18.85 65.19 22.07 64.68 24.92 64.69 C 22.15 67.08 20.87 70.96 17.32 72.42 C 15.82 71.45 14.24 70.62 12.66 69.79 C 11.36 73.45 10.44 77.22 9.17 80.89 C 8.52 76.61 8.60 71.64 11.26 68.03 C 12.76 66.72 12.04 64.60 11.97 62.89 C 11.72 59.52 10.22 56.46 8.66 53.52 C 9.27 48.39 10.51 43.32 12.73 38.64 C 12.72 38.10 12.69 37.02 12.68 36.48 C 14.11 35.11 15.69 33.90 17.38 32.86 C 19.29 33.12 21.19 32.70 22.71 31.49 L 23.00 31.31 C 29.98 28.23 38.16 29.10 45.02 32.10 C 47.93 25.20 52.14 18.92 57.32 13.51 M 11.19 54.74 L 12.33 54.26 C 11.97 55.53 12.17 57.39 14.07 56.60 C 16.62 55.35 16.85 52.25 16.38 49.79 C 16.00 49.46 15.25 48.81 14.87 48.49 L 15.42 47.82 C 11.02 46.85 11.06 51.82 11.19 54.74 M 22.37 57.99 C 22.38 61.31 25.43 56.58 22.37 57.99 Z" />
</g>
<g id="#f9ce54ff">
<path fill="#f9ce54" opacity="1.00" d=" M 46.39 33.54 C 50.37 27.44 54.29 20.96 60.57 16.90 C 60.76 17.49 61.14 18.65 61.33 19.23 C 55.35 24.50 52.48 32.75 45.36 36.76 C 45.00 41.70 45.09 46.91 42.44 51.30 C 40.50 48.77 37.25 47.65 34.44 49.56 C 34.17 49.81 33.65 50.31 33.38 50.56 C 33.01 52.36 32.66 54.45 34.05 55.92 C 35.58 58.02 38.40 57.38 40.61 57.44 C 39.99 56.64 39.37 55.84 38.74 55.05 C 39.81 54.87 40.88 54.57 41.97 54.72 C 42.35 55.08 43.10 55.80 43.48 56.15 C 39.90 59.03 39.05 63.56 39.76 67.89 C 39.39 67.72 38.63 67.37 38.26 67.20 C 36.70 71.55 32.58 75.88 34.69 80.72 C 32.68 84.66 30.45 88.74 30.24 93.25 C 30.12 94.82 31.40 95.98 32.13 97.21 C 31.46 98.47 31.14 100.17 29.66 100.75 C 25.56 102.52 20.90 102.16 16.76 103.82 C 14.06 104.95 11.68 106.70 9.25 108.30 C 7.15 105.77 5.83 102.77 5.35 99.52 L 5.76 99.81 C 6.60 100.51 7.72 101.05 8.80 100.56 C 11.27 98.46 12.91 95.40 13.27 92.17 C 14.61 94.28 16.08 96.30 17.61 98.27 C 19.68 98.89 21.66 97.40 22.72 95.73 C 24.08 92.06 23.90 87.97 22.75 84.27 C 21.28 80.16 18.65 76.59 17.32 72.42 C 20.87 70.96 22.15 67.08 24.92 64.69 C 26.59 64.68 28.26 64.64 29.93 64.56 C 29.84 64.29 29.66 63.77 29.57 63.50 C 29.22 62.02 27.94 60.39 28.91 58.89 C 30.37 56.22 31.93 53.47 31.52 50.30 C 36.71 45.59 36.64 38.12 40.01 32.33 C 42.10 32.85 44.20 33.60 46.39 33.54 Z" />
</g>
<g id="#deaf45ff">
<path fill="#deaf45" opacity="1.00" d=" M 45.36 36.76 C 52.48 32.75 55.35 24.50 61.33 19.23 C 61.69 20.74 62.04 22.25 62.36 23.77 C 59.22 28.74 55.66 33.45 51.79 37.88 C 52.80 39.52 53.66 41.25 54.27 43.09 C 53.55 43.98 52.37 44.69 52.36 45.97 C 51.82 49.90 51.51 53.86 50.70 57.75 C 48.47 56.56 45.98 56.19 43.48 56.15 C 43.10 55.80 42.35 55.08 41.97 54.72 C 42.12 53.58 42.27 52.44 42.44 51.30 C 45.09 46.91 45.00 41.70 45.36 36.76 Z" />
</g>
<g id="#f8da5cff">
<path fill="#f8da5c" opacity="1.00" d=" M 56.68 56.17 C 75.56 50.70 94.43 45.23 113.51 40.49 C 111.93 49.27 110.11 58.00 108.35 66.74 C 96.51 66.94 84.67 67.17 72.84 67.52 C 75.36 73.45 78.54 79.07 81.30 84.89 C 75.22 86.43 69.13 87.98 63.06 89.57 C 63.57 90.61 64.09 91.64 64.60 92.68 C 63.84 92.75 62.32 92.89 61.56 92.96 C 61.24 89.00 60.78 85.05 60.12 81.13 C 60.57 80.90 61.48 80.44 61.93 80.21 C 63.69 79.38 65.45 78.55 67.21 77.70 C 63.97 71.79 60.57 65.98 57.30 60.10 C 57.03 58.80 56.86 57.48 56.68 56.17 Z" />
</g>
<g id="#c99637ff">
<path fill="#c99637" opacity="1.00" d=" M 54.27 43.09 L 54.57 42.77 C 55.75 47.15 56.21 51.67 56.68 56.17 C 56.86 57.48 57.03 58.80 57.30 60.10 C 56.67 67.02 58.27 73.93 59.91 80.62 C 60.42 80.52 61.42 80.32 61.93 80.21 C 61.48 80.44 60.57 80.90 60.12 81.13 C 60.78 85.05 61.24 89.00 61.56 92.96 C 61.78 95.21 62.09 97.45 62.38 99.70 L 61.54 100.17 C 60.98 101.52 60.56 102.91 60.15 104.31 C 60.00 102.83 59.84 101.35 59.68 99.88 C 58.53 102.14 57.99 105.26 55.27 106.18 C 49.63 108.76 43.40 109.39 37.47 111.01 C 33.01 110.85 28.52 110.28 24.08 111.09 C 24.14 111.89 24.25 113.50 24.31 114.30 C 19.19 116.00 13.73 116.84 8.34 116.65 C 8.41 116.26 8.57 115.47 8.65 115.08 C 9.22 114.84 10.36 114.36 10.93 114.12 C 10.36 114.62 9.82 115.15 9.29 115.69 C 13.09 116.96 16.46 114.29 19.37 112.25 C 18.25 111.80 17.13 111.35 16.01 110.91 C 21.84 104.11 32.08 107.21 39.37 103.36 C 42.86 100.83 45.63 97.12 46.31 92.79 C 43.47 94.37 41.22 96.74 38.61 98.64 C 36.93 99.98 35.01 98.33 33.29 97.92 C 35.79 94.81 38.20 91.61 40.20 88.14 C 42.75 83.60 46.25 79.66 48.48 74.93 C 50.11 73.04 51.52 70.96 52.79 68.80 C 51.20 68.78 49.62 68.77 48.03 68.77 C 49.40 67.20 51.15 65.69 51.57 63.55 C 51.67 61.58 51.05 59.67 50.70 57.75 C 51.51 53.86 51.82 49.90 52.36 45.97 C 52.37 44.69 53.55 43.98 54.27 43.09 Z" />
</g>
<g id="#9c9c9cff">
<path fill="#9c9c9c" opacity="1.00" d=" M 13.88 53.18 C 13.31 51.44 13.21 49.67 14.87 48.49 C 15.25 48.81 16.00 49.46 16.38 49.79 C 16.23 50.27 15.92 51.24 15.76 51.73 C 15.29 52.09 14.35 52.81 13.88 53.18 Z" />
</g>
<g id="#33251bff">
<path fill="#33251b" opacity="1.00" d=" M 34.44 49.56 C 37.25 47.65 40.50 48.77 42.44 51.30 C 42.27 52.44 42.12 53.58 41.97 54.72 C 40.88 54.57 39.81 54.87 38.74 55.05 C 39.37 55.84 39.99 56.64 40.61 57.44 C 38.40 57.38 35.58 58.02 34.05 55.92 C 32.66 54.45 33.01 52.36 33.38 50.56 C 33.96 52.04 36.08 54.39 37.42 52.42 C 39.34 50.50 35.77 49.80 34.44 49.56 Z" />
<path fill="#33251b" opacity="1.00" d=" M 24.92 64.69 C 22.07 64.68 18.85 65.19 16.76 62.81 C 20.91 64.03 25.30 63.87 29.57 63.50 C 29.66 63.77 29.84 64.29 29.93 64.56 C 28.26 64.64 26.59 64.68 24.92 64.69 Z" />
</g>
<g id="#aaaaa7ff">
<path fill="#aaaaa7" opacity="1.00" d=" M 33.38 50.56 C 33.65 50.31 34.17 49.81 34.44 49.56 C 35.77 49.80 39.34 50.50 37.42 52.42 C 36.08 54.39 33.96 52.04 33.38 50.56 Z" />
</g>
<g id="#ff8b5dff">
<path fill="#ff8b5d" opacity="1.00" d=" M 8.46 53.11 L 8.66 53.52 C 10.22 56.46 11.72 59.52 11.97 62.89 C 12.04 64.60 12.76 66.72 11.26 68.03 C 6.38 64.70 7.14 58.07 8.46 53.11 Z" />
</g>
<g id="#e06848ff">
<path fill="#e06848" opacity="1.00" d=" M 43.48 56.15 C 45.98 56.19 48.47 56.56 50.70 57.75 C 51.05 59.67 51.67 61.58 51.57 63.55 C 51.15 65.69 49.40 67.20 48.03 68.77 L 47.21 69.58 C 44.64 69.49 42.07 69.09 39.76 67.89 C 39.05 63.56 39.90 59.03 43.48 56.15 Z" />
</g>
<g id="#a98b30ff">
<path fill="#a98b30" opacity="1.00" d=" M 22.37 57.99 C 25.43 56.58 22.38 61.31 22.37 57.99 Z" />
</g>
<g id="#edbc4aff">
<path fill="#edbc4a" opacity="1.00" d=" M 38.26 67.20 C 38.63 67.37 39.39 67.72 39.76 67.89 C 42.07 69.09 44.64 69.49 47.21 69.58 C 45.00 71.46 42.25 72.45 39.76 73.88 C 37.65 75.80 36.29 78.40 34.69 80.72 C 32.58 75.88 36.70 71.55 38.26 67.20 Z" />
</g>
<g id="#fecf48ff">
<path fill="#fecf48" opacity="1.00" d=" M 47.21 69.58 L 48.03 68.77 C 49.62 68.77 51.20 68.78 52.79 68.80 C 51.52 70.96 50.11 73.04 48.48 74.93 C 40.46 80.16 37.21 89.57 32.13 97.21 C 31.40 95.98 30.12 94.82 30.24 93.25 C 30.45 88.74 32.68 84.66 34.69 80.72 C 36.29 78.40 37.65 75.80 39.76 73.88 C 42.25 72.45 45.00 71.46 47.21 69.58 Z" />
</g>
<g id="#fdc846ff">
<path fill="#fdc846" opacity="1.00" d=" M 9.17 80.89 C 10.44 77.22 11.36 73.45 12.66 69.79 C 14.24 70.62 15.82 71.45 17.32 72.42 C 18.65 76.59 21.28 80.16 22.75 84.27 C 21.44 87.53 21.55 91.08 21.56 94.53 C 20.22 95.76 18.90 97.00 17.61 98.27 C 16.08 96.30 14.61 94.28 13.27 92.17 C 12.36 89.92 11.82 87.54 11.45 85.15 C 11.06 86.12 10.66 87.09 10.24 88.06 C 10.47 85.62 9.70 83.24 9.17 80.89 Z" />
</g>
<g id="#e6b648ff">
<path fill="#e6b648" opacity="1.00" d=" M 32.13 97.21 C 37.21 89.57 40.46 80.16 48.48 74.93 C 46.25 79.66 42.75 83.60 40.20 88.14 C 38.20 91.61 35.79 94.81 33.29 97.92 C 35.01 98.33 36.93 99.98 38.61 98.64 C 41.22 96.74 43.47 94.37 46.31 92.79 C 45.63 97.12 42.86 100.83 39.37 103.36 C 32.08 107.21 21.84 104.11 16.01 110.91 C 15.27 111.70 14.58 112.58 13.53 112.96 C 13.55 111.83 14.71 109.98 12.02 110.42 C 10.93 109.97 10.15 109.02 9.25 108.30 C 11.68 106.70 14.06 104.95 16.76 103.82 C 20.90 102.16 25.56 102.52 29.66 100.75 C 31.14 100.17 31.46 98.47 32.13 97.21 Z" />
</g>
<g id="#fefe63ff">
<path fill="#fefe63" opacity="1.00" d=" M 11.45 85.15 C 11.82 87.54 12.36 89.92 13.27 92.17 C 12.91 95.40 11.27 98.46 8.80 100.56 C 7.72 101.05 6.60 100.51 5.76 99.81 C 5.70 95.40 8.63 91.93 10.24 88.06 C 10.66 87.09 11.06 86.12 11.45 85.15 Z" />
</g>
<g id="#daa839ff">
<path fill="#daa839" opacity="1.00" d=" M 21.56 94.53 C 21.55 91.08 21.44 87.53 22.75 84.27 C 23.90 87.97 24.08 92.06 22.72 95.73 C 21.66 97.40 19.68 98.89 17.61 98.27 C 18.90 97.00 20.22 95.76 21.56 94.53 Z" />
</g>
<g id="#d7981cf9">
<path fill="#d7981c" opacity="0.98" d=" M 61.56 92.96 C 62.32 92.89 63.84 92.75 64.60 92.68 C 65.96 95.30 67.24 97.97 68.51 100.63 C 66.46 100.37 64.41 100.10 62.38 99.70 C 62.09 97.45 61.78 95.21 61.56 92.96 Z" />
</g>
<g id="#b97e2eff">
<path fill="#b97e2e" opacity="1.00" d=" M 55.27 106.18 C 57.99 105.26 58.53 102.14 59.68 99.88 C 59.84 101.35 60.00 102.83 60.15 104.31 C 60.56 102.91 60.98 101.52 61.54 100.17 C 61.68 105.63 58.06 110.52 53.44 113.11 C 53.71 114.88 53.82 116.68 53.54 118.46 C 51.60 118.56 49.66 118.58 47.72 118.37 L 48.55 118.27 C 50.07 118.11 51.59 117.93 53.12 117.74 C 53.06 116.25 53.00 114.76 52.94 113.28 C 51.02 113.36 49.10 113.48 47.17 113.48 C 43.70 113.33 40.37 112.20 37.11 111.10 L 37.47 111.01 C 43.40 109.39 49.63 108.76 55.27 106.18 Z" />
</g>
<g id="#f3ce50fc">
<path fill="#f3ce50" opacity="1.00" d=" M 13.53 112.96 C 14.58 112.58 15.27 111.70 16.01 110.91 C 17.13 111.35 18.25 111.80 19.37 112.25 C 16.46 114.29 13.09 116.96 9.29 115.69 C 9.82 115.15 10.36 114.62 10.93 114.12 C 11.58 113.83 12.88 113.25 13.53 112.96 Z" />
</g>
<g id="#ffd551ff">
<path fill="#ffd551" opacity="1.00" d=" M 47.17 113.48 C 49.10 113.48 51.02 113.36 52.94 113.28 C 53.00 114.76 53.06 116.25 53.12 117.74 C 51.59 117.93 50.07 118.11 48.55 118.27 C 46.62 117.50 47.64 115.01 47.17 113.48 Z" />
</g>
</svg>
