<?xml version="1.0" encoding="UTF-8" ?>
<!DOCTYPE svg PUBLIC "-//W3C//DTD SVG 1.1//EN" "http://www.w3.org/Graphics/SVG/1.1/DTD/svg11.dtd">
<svg width="144pt" height="181pt" viewBox="0 0 144 181" version="1.1" xmlns="http://www.w3.org/2000/svg">
<g id="#de8c29ff">
<path fill="#de8c29" opacity="1.00" d=" M 26.80 5.62 C 28.24 6.03 29.01 7.54 30.26 8.32 C 29.94 9.87 29.62 11.98 27.76 12.36 C 26.66 12.53 25.89 13.23 25.32 14.14 C 22.78 11.49 25.62 8.21 26.80 5.62 Z" />
</g>
<g id="#cb802dff">
<path fill="#cb802d" opacity="1.00" d=" M 30.26 8.32 C 33.44 10.74 36.57 13.25 39.72 15.72 C 36.40 18.04 35.21 23.11 30.43 23.33 C 28.72 20.27 26.96 17.23 25.32 14.14 C 25.89 13.23 26.66 12.53 27.76 12.36 C 29.62 11.98 29.94 9.87 30.26 8.32 Z" />
<path fill="#cb802d" opacity="1.00" d=" M 27.64 163.92 C 29.91 163.55 32.33 164.15 34.24 162.49 C 36.00 163.06 37.79 163.87 38.77 165.53 C 37.10 165.84 35.36 166.08 33.89 167.01 C 32.59 166.46 31.31 165.89 29.99 165.40 C 31.18 165.48 32.10 165.16 32.75 164.42 C 31.10 163.91 29.34 164.02 27.64 163.92 Z" />
</g>
<g id="#c79565ff">
<path fill="#c79565" opacity="1.00" d=" M 54.41 9.15 C 58.88 15.25 62.74 21.87 68.04 27.32 C 67.20 28.69 66.49 30.15 65.47 31.39 C 63.92 31.97 62.33 32.40 60.77 32.91 L 60.12 33.00 C 59.87 32.76 59.35 32.28 59.09 32.04 C 58.88 31.85 58.44 31.45 58.23 31.25 C 54.66 32.26 56.39 36.94 55.27 39.61 C 53.84 42.91 53.73 46.49 53.89 50.03 C 54.31 51.86 52.25 52.90 50.76 52.25 C 42.49 43.80 36.40 33.48 30.43 23.33 C 35.21 23.11 36.40 18.04 39.72 15.72 C 44.24 18.69 48.15 22.64 52.91 25.20 C 53.30 19.84 53.78 14.49 54.41 9.15 M 54.22 13.07 C 53.94 17.04 53.70 21.06 54.05 25.03 C 54.27 24.77 54.70 24.24 54.92 23.98 C 55.07 20.33 55.60 16.63 54.97 13.00 L 54.22 13.07 Z" />
</g>
<g id="#e5af77ff">
<path fill="#e5af77" opacity="1.00" d=" M 54.22 13.07 L 54.97 13.00 C 55.60 16.63 55.07 20.33 54.92 23.98 C 54.70 24.24 54.27 24.77 54.05 25.03 C 53.70 21.06 53.94 17.04 54.22 13.07 Z" />
</g>
<g id="#bd8855ff">
<path fill="#bd8855" opacity="1.00" d=" M 68.04 27.32 C 69.40 28.89 71.28 30.16 72.25 31.97 C 71.16 33.16 70.45 34.83 69.05 35.67 C 67.34 35.48 65.64 35.21 63.92 35.23 C 62.84 34.54 61.32 34.18 60.77 32.91 C 62.33 32.40 63.92 31.97 65.47 31.39 C 66.49 30.15 67.20 28.69 68.04 27.32 Z" />
</g>
<g id="#ad805aff">
<path fill="#ad805a" opacity="1.00" d=" M 58.23 31.25 C 58.44 31.45 58.88 31.85 59.09 32.04 C 59.00 32.79 58.81 34.30 58.72 35.05 C 57.89 36.10 57.65 37.44 57.99 38.74 C 57.73 40.86 57.25 42.98 56.84 45.08 C 55.62 46.37 55.84 48.18 55.93 49.80 L 55.82 51.02 C 54.63 51.93 54.83 53.48 55.01 54.78 L 55.14 56.62 C 53.44 56.43 52.98 54.46 51.81 53.49 C 50.92 53.43 50.57 53.02 50.76 52.25 C 52.25 52.90 54.31 51.86 53.89 50.03 C 53.73 46.49 53.84 42.91 55.27 39.61 C 56.39 36.94 54.66 32.26 58.23 31.25 Z" />
</g>
<g id="#b57843ff">
<path fill="#b57843" opacity="1.00" d=" M 72.25 31.97 L 72.70 31.89 C 74.00 33.74 76.06 35.10 77.17 36.99 C 75.79 38.48 74.75 40.31 73.03 41.45 C 70.07 39.26 66.84 37.46 63.92 35.23 C 65.64 35.21 67.34 35.48 69.05 35.67 C 70.45 34.83 71.16 33.16 72.25 31.97 Z" />
</g>
<g id="#3a2b1d90">
<path fill="#3a2b1d" opacity="0.56" d=" M 57.99 38.74 C 57.65 37.44 57.89 36.10 58.72 35.05 C 59.54 35.95 59.63 38.84 57.99 38.74 Z" />
</g>
<g id="#542708ff">
<path fill="#542708" opacity="1.00" d=" M 77.17 36.99 C 81.02 40.06 84.44 43.97 87.92 47.54 L 86.84 48.03 C 87.38 49.94 88.83 51.49 89.04 53.53 L 88.03 53.37 C 83.37 48.99 78.08 45.36 73.03 41.45 C 74.75 40.31 75.79 38.48 77.17 36.99 Z" />
</g>
<g id="#35291e89">
<path fill="#35291e" opacity="0.54" d=" M 55.93 49.80 C 55.84 48.18 55.62 46.37 56.84 45.08 C 57.50 46.41 57.58 49.31 55.93 49.80 Z" />
</g>
<g id="#9c4a08ff">
<path fill="#9c4a08" opacity="1.00" d=" M 86.84 48.03 L 87.92 47.54 C 88.21 47.90 88.81 48.62 89.10 48.98 C 89.25 50.09 89.88 50.75 91.00 50.95 C 92.01 51.42 92.64 52.21 92.87 53.30 C 92.95 54.42 93.53 55.05 94.62 55.19 C 96.08 55.80 97.55 57.61 97.88 59.17 C 97.85 60.34 98.43 60.99 99.63 61.13 C 101.96 62.81 103.47 65.66 105.13 68.04 C 105.39 68.57 105.92 69.62 106.19 70.15 C 105.77 70.97 105.15 71.65 104.33 72.17 C 100.51 66.87 96.65 61.54 92.05 56.88 C 91.73 55.94 91.13 55.27 90.23 54.87 C 89.93 54.54 89.34 53.87 89.04 53.53 C 88.83 51.49 87.38 49.94 86.84 48.03 Z" />
</g>
<g id="#2a150399">
<path fill="#2a1503" opacity="0.60" d=" M 89.10 48.98 C 90.54 48.85 91.17 49.51 91.00 50.95 C 89.88 50.75 89.25 50.09 89.10 48.98 Z" />
</g>
<g id="#3a2b2294">
<path fill="#3a2b22" opacity="0.58" d=" M 55.01 54.78 C 54.83 53.48 54.63 51.93 55.82 51.02 C 56.42 52.03 56.61 54.76 55.01 54.78 Z" />
</g>
<g id="#492000c9">
<path fill="#492000" opacity="0.79" d=" M 92.87 53.30 C 94.35 53.06 94.93 53.69 94.62 55.19 C 93.53 55.05 92.95 54.42 92.87 53.30 Z" />
</g>
<g id="#0c05014e">
<path fill="#0c0501" opacity="0.31" d=" M 90.23 54.87 C 91.13 55.27 91.73 55.94 92.05 56.88 C 90.32 57.19 89.72 56.51 90.23 54.87 Z" />
</g>
<g id="#905b22ff">
<path fill="#905b22" opacity="1.00" d=" M 19.18 57.06 C 22.49 63.82 25.66 70.86 28.00 78.02 C 27.94 80.60 28.27 83.27 27.56 85.79 C 26.74 87.42 26.02 89.08 25.55 90.85 C 24.94 90.27 24.36 89.66 23.81 89.03 C 23.72 81.58 23.50 73.75 20.87 66.73 C 20.14 63.56 19.73 60.28 19.18 57.06 Z" />
</g>
<g id="#583612ff">
<path fill="#583612" opacity="1.00" d=" M 79.30 64.17 C 82.36 62.34 85.02 59.50 88.21 58.17 C 87.32 59.78 86.45 61.44 85.21 62.80 L 85.26 61.41 C 79.68 67.27 74.24 73.33 69.51 79.91 C 67.80 82.55 66.07 85.23 64.91 88.17 C 64.14 89.97 64.20 92.77 66.27 93.67 C 68.93 94.41 71.67 93.68 74.25 93.00 C 73.00 95.98 66.72 95.39 68.02 98.98 C 67.78 98.63 67.29 97.95 67.05 97.60 C 64.83 97.62 62.52 98.14 60.42 97.11 C 61.52 96.23 62.89 95.83 64.05 95.04 C 62.82 92.08 62.70 88.90 64.01 85.94 C 67.87 78.75 73.31 72.63 78.73 66.61 C 78.84 66.13 79.06 65.18 79.18 64.70 L 79.30 64.17 Z" />
</g>
<g id="#542904d8">
<path fill="#542904" opacity="0.85" d=" M 97.88 59.17 C 99.29 58.93 99.87 59.58 99.63 61.13 C 98.43 60.99 97.85 60.34 97.88 59.17 Z" />
</g>
<g id="#d9b55dff">
<path fill="#d9b55d" opacity="1.00" d=" M 69.51 79.91 C 74.24 73.33 79.68 67.27 85.26 61.41 L 85.21 62.80 C 82.43 68.01 80.16 74.17 82.06 80.08 C 82.98 83.22 86.44 84.64 89.36 85.30 C 87.90 85.86 86.35 86.17 84.95 86.87 C 82.19 88.02 79.85 89.95 77.11 91.12 C 75.97 91.30 74.84 91.57 73.70 91.74 C 72.22 88.23 72.04 84.49 71.78 80.78 C 71.04 80.46 70.28 80.17 69.51 79.91 Z" />
</g>
<g id="#875620ff">
<path fill="#875620" opacity="1.00" d=" M 59.91 83.02 C 65.43 76.11 71.79 69.49 79.18 64.70 C 79.06 65.18 78.84 66.13 78.73 66.61 C 73.31 72.63 67.87 78.75 64.01 85.94 C 62.07 84.42 61.54 87.38 60.18 88.12 C 59.00 88.60 57.74 89.00 56.86 89.99 C 56.95 89.49 57.13 88.50 57.22 88.00 C 57.43 87.19 57.56 86.35 57.46 85.51 C 58.73 85.21 59.23 83.99 59.91 83.02 Z" />
</g>
<g id="#ffff88ff">
<path fill="#ffff88" opacity="1.00" d=" M 20.87 66.73 C 23.50 73.75 23.72 81.58 23.81 89.03 C 23.40 90.21 24.49 93.06 22.18 92.39 C 21.97 90.12 21.51 87.75 20.00 85.96 C 19.71 85.60 19.14 84.88 18.86 84.52 C 18.58 84.18 18.02 83.49 17.74 83.15 C 18.73 82.67 19.55 81.96 20.21 81.02 C 21.01 80.30 21.28 79.41 21.02 78.33 C 21.35 74.47 21.43 70.58 20.87 66.73 Z" />
</g>
<g id="#281404ff">
<path fill="#281404" opacity="1.00" d=" M 105.13 68.04 C 108.15 71.27 110.19 75.60 112.04 79.64 C 111.37 79.97 110.04 80.63 109.37 80.96 C 107.59 78.10 106.08 75.05 104.33 72.17 C 105.15 71.65 105.77 70.97 106.19 70.15 C 105.92 69.62 105.39 68.57 105.13 68.04 Z" />
<path fill="#281404" opacity="1.00" d=" M 27.01 110.91 C 26.94 109.01 29.62 108.29 30.32 110.22 C 28.64 110.47 28.14 111.47 28.83 113.22 C 30.57 113.62 31.17 112.84 30.63 110.88 C 32.43 111.80 31.85 116.08 29.42 115.63 C 27.64 114.83 27.18 112.67 27.01 110.91 Z" />
</g>
<g id="#3c3c1f72">
<path fill="#3c3c1f" opacity="0.45" d=" M 20.21 81.02 C 19.31 79.46 19.58 78.56 21.02 78.33 C 21.28 79.41 21.01 80.30 20.21 81.02 Z" />
</g>
<g id="#7b4514ff">
<path fill="#7b4514" opacity="1.00" d=" M 28.00 78.02 C 29.54 80.91 30.45 84.38 30.96 87.67 C 31.40 87.50 32.29 87.17 32.74 87.00 C 29.57 90.55 26.51 94.45 25.16 99.09 C 25.28 98.52 25.54 97.38 25.66 96.81 C 21.42 94.90 21.92 89.52 20.00 85.96 C 21.51 87.75 21.97 90.12 22.18 92.39 C 24.49 93.06 23.40 90.21 23.81 89.03 C 24.36 89.66 24.94 90.27 25.55 90.85 C 26.02 89.08 26.74 87.42 27.56 85.79 C 28.27 83.27 27.94 80.60 28.00 78.02 Z" />
</g>
<g id="#d2aa53ff">
<path fill="#d2aa53" opacity="1.00" d=" M 64.91 88.17 C 66.07 85.23 67.80 82.55 69.51 79.91 C 70.28 80.17 71.04 80.46 71.78 80.78 C 72.04 84.49 72.22 88.23 73.70 91.74 C 74.84 91.57 75.97 91.30 77.11 91.12 C 76.45 92.14 75.31 92.54 74.25 93.00 C 71.67 93.68 68.93 94.41 66.27 93.67 C 64.20 92.77 64.14 89.97 64.91 88.17 Z" />
</g>
<g id="#442105ff">
<path fill="#442105" opacity="1.00" d=" M 109.37 80.96 C 110.04 80.63 111.37 79.97 112.04 79.64 C 118.40 91.60 120.29 105.71 118.04 119.02 C 115.79 129.34 110.67 139.72 101.52 145.53 C 96.34 148.88 90.06 150.61 83.88 150.17 C 83.53 151.09 83.28 152.05 83.12 153.05 L 83.05 151.87 C 83.98 148.99 83.52 146.00 83.25 143.06 C 83.82 144.08 83.97 145.25 83.71 146.57 C 90.87 147.72 98.42 144.61 103.76 139.79 C 113.29 130.71 116.85 116.81 115.69 103.97 C 115.36 95.91 112.54 88.25 109.37 80.96 Z" />
</g>
<g id="#74653aac">
<path fill="#74653a" opacity="0.67" d=" M 17.26 83.00 L 17.74 83.15 C 18.02 83.49 18.58 84.18 18.86 84.52 C 18.34 84.85 17.31 85.52 16.80 85.85 C 16.54 85.72 16.04 85.46 15.79 85.33 C 16.16 84.75 16.89 83.59 17.26 83.00 Z" />
</g>
<g id="#ffd659ff">
<path fill="#ffd659" opacity="1.00" d=" M 32.74 87.00 C 38.68 83.14 46.55 82.08 53.38 84.01 C 51.65 85.23 49.36 86.44 49.72 88.97 C 50.31 94.93 55.19 98.96 59.30 102.74 C 62.21 105.06 60.81 110.24 57.60 111.61 C 54.09 113.72 53.64 118.17 53.80 121.87 C 50.98 125.27 46.64 128.05 42.04 127.87 C 38.89 128.07 35.92 126.87 32.97 125.94 C 29.57 124.97 27.55 121.83 24.74 119.91 C 24.64 119.60 24.43 119.00 24.33 118.69 C 25.45 116.17 25.41 112.42 23.12 110.55 C 23.94 106.76 23.56 102.70 25.16 99.09 C 26.51 94.45 29.57 90.55 32.74 87.00 M 27.01 110.91 C 27.18 112.67 27.64 114.83 29.42 115.63 C 31.85 116.08 32.43 111.80 30.63 110.88 C 30.56 110.71 30.40 110.38 30.32 110.22 C 29.62 108.29 26.94 109.01 27.01 110.91 M 45.90 110.38 C 45.80 110.55 45.60 110.89 45.50 111.06 C 42.17 114.68 48.83 118.99 51.14 115.15 C 54.14 112.21 48.88 107.59 46.13 110.51 L 45.90 110.38 M 35.89 120.09 C 34.92 121.78 37.94 122.59 38.99 121.67 C 40.43 119.72 37.01 119.57 35.89 120.09 M 31.14 121.23 C 32.13 125.00 36.85 124.81 39.96 124.86 C 42.20 124.85 46.27 125.10 46.28 121.93 C 44.78 122.38 43.69 123.84 41.96 123.61 C 38.30 123.54 33.77 124.38 31.14 121.23 Z" />
<path fill="#ffd659" opacity="1.00" d=" M 29.19 133.86 C 29.56 133.63 30.30 133.17 30.67 132.95 C 30.55 135.24 29.99 137.51 30.16 139.83 C 29.02 140.33 26.92 140.08 26.76 141.76 C 26.06 144.40 25.72 147.21 24.03 149.47 C 23.28 144.10 25.88 138.94 28.45 134.52 C 28.64 134.35 29.01 134.02 29.19 133.86 Z" />
</g>
<g id="#fbbc4eff">
<path fill="#fbbc4e" opacity="1.00" d=" M 53.38 84.01 C 54.71 84.63 56.24 84.64 57.46 85.51 C 57.56 86.35 57.43 87.19 57.22 88.00 C 55.72 87.56 53.43 87.95 53.78 90.03 C 53.96 93.33 56.09 97.25 59.89 96.95 L 60.42 97.11 C 62.52 98.14 64.83 97.62 67.05 97.60 C 67.29 97.95 67.78 98.63 68.02 98.98 L 68.19 100.04 C 68.58 102.99 69.44 106.00 68.79 108.98 C 67.86 111.24 66.68 113.38 65.66 115.59 C 65.08 115.09 64.51 114.59 63.94 114.08 C 62.64 112.52 60.49 111.49 58.54 112.60 C 55.62 114.44 54.95 118.69 56.36 121.68 C 57.54 122.16 58.76 122.31 60.04 122.16 C 59.18 122.57 58.33 122.99 57.49 123.43 C 56.77 124.58 56.26 125.86 55.87 127.16 C 56.12 128.97 57.43 130.44 57.83 132.23 C 56.22 131.82 54.63 131.40 53.03 130.96 C 47.81 129.48 42.31 129.43 36.93 129.67 C 34.37 129.76 32.44 131.32 30.67 132.95 C 30.30 133.17 29.56 133.63 29.19 133.86 C 29.00 133.40 28.60 132.48 28.40 132.02 C 29.04 128.78 27.71 125.47 26.43 122.55 C 26.07 122.35 25.34 121.96 24.98 121.76 C 23.48 122.81 23.00 124.78 21.99 126.25 C 21.94 124.82 21.91 123.40 21.88 121.98 C 22.81 121.25 23.76 120.56 24.74 119.91 C 27.55 121.83 29.57 124.97 32.97 125.94 C 35.92 126.87 38.89 128.07 42.04 127.87 C 46.64 128.05 50.98 125.27 53.80 121.87 C 53.64 118.17 54.09 113.72 57.60 111.61 C 60.81 110.24 62.21 105.06 59.30 102.74 C 55.19 98.96 50.31 94.93 49.72 88.97 C 49.36 86.44 51.65 85.23 53.38 84.01 Z" />
</g>
<g id="#1a150965">
<path fill="#1a1509" opacity="0.40" d=" M 15.19 85.37 L 15.79 85.33 C 16.04 85.46 16.54 85.72 16.80 85.85 C 17.36 86.15 18.50 86.74 19.07 87.04 C 19.31 88.76 18.50 91.94 16.42 91.90 L 16.49 91.65 C 16.58 91.26 16.78 90.48 16.87 90.10 C 17.48 88.63 17.11 87.70 15.75 87.32 L 15.34 87.20 C 15.30 86.74 15.23 85.83 15.19 85.37 Z" />
</g>
<g id="#754316ff">
<path fill="#754316" opacity="1.00" d=" M 60.18 88.12 C 61.54 87.38 62.07 84.42 64.01 85.94 C 62.70 88.90 62.82 92.08 64.05 95.04 C 62.89 95.83 61.52 96.23 60.42 97.11 L 59.89 96.95 C 58.25 94.96 56.05 92.85 56.86 89.99 C 57.74 89.00 59.00 88.60 60.18 88.12 Z" />
</g>
<g id="#8f5f22ff">
<path fill="#8f5f22" opacity="1.00" d=" M 89.36 85.30 C 92.01 85.88 94.45 88.67 93.26 91.47 C 92.51 94.49 87.20 94.46 87.20 91.07 C 86.72 89.30 88.42 88.33 89.89 88.13 C 89.01 89.31 87.36 90.21 88.25 91.93 C 90.02 94.18 93.53 91.46 92.43 89.07 C 91.51 85.79 87.54 86.21 84.95 86.87 C 86.35 86.17 87.90 85.86 89.36 85.30 Z" />
<path fill="#8f5f22" opacity="1.00" d=" M 12.98 123.98 C 13.89 120.99 17.75 119.46 20.49 121.02 L 20.59 122.06 C 18.23 124.31 15.64 126.34 13.66 128.96 C 12.92 127.41 13.17 125.63 12.98 123.98 Z" />
<path fill="#8f5f22" opacity="1.00" d=" M 31.14 121.23 C 33.77 124.38 38.30 123.54 41.96 123.61 C 43.69 123.84 44.78 122.38 46.28 121.93 C 46.27 125.10 42.20 124.85 39.96 124.86 C 36.85 124.81 32.13 125.00 31.14 121.23 Z" />
</g>
<g id="#feeb79ff">
<path fill="#feeb79" opacity="1.00" d=" M 15.34 87.20 L 15.75 87.32 C 15.19 88.59 15.56 89.52 16.87 90.10 C 16.78 90.48 16.58 91.26 16.49 91.65 C 15.62 90.83 14.17 88.25 15.34 87.20 Z" />
<path fill="#feeb79" opacity="1.00" d=" M 58.54 112.60 C 60.49 111.49 62.64 112.52 63.94 114.08 C 64.04 117.23 62.75 120.41 60.04 122.16 C 58.76 122.31 57.54 122.16 56.36 121.68 C 54.95 118.69 55.62 114.44 58.54 112.60 Z" />
</g>
<g id="#03020115">
<path fill="#030201" opacity="0.08" d=" M 15.75 87.32 C 17.11 87.70 17.48 88.63 16.87 90.10 C 15.56 89.52 15.19 88.59 15.75 87.32 Z" />
</g>
<g id="#eea03aff">
<path fill="#eea03a" opacity="1.00" d=" M 53.78 90.03 C 53.43 87.95 55.72 87.56 57.22 88.00 C 57.13 88.50 56.95 89.49 56.86 89.99 C 56.05 92.85 58.25 94.96 59.89 96.95 C 56.09 97.25 53.96 93.33 53.78 90.03 Z" />
</g>
<g id="#dba144ff">
<path fill="#dba144" opacity="1.00" d=" M 68.19 100.04 C 69.31 102.88 69.26 105.96 69.59 108.94 C 72.40 114.17 76.00 119.19 77.05 125.16 C 76.61 125.06 75.75 124.87 75.32 124.77 C 73.54 123.13 71.45 121.69 68.93 121.71 L 67.79 121.58 C 68.26 121.30 69.21 120.76 69.68 120.48 C 70.12 119.05 68.61 118.06 67.67 117.29 C 65.60 118.62 63.97 120.49 62.24 122.22 C 58.60 125.08 60.36 130.19 60.94 134.06 C 60.49 134.07 59.59 134.09 59.14 134.10 C 58.81 133.63 58.16 132.70 57.83 132.23 C 57.43 130.44 56.12 128.97 55.87 127.16 C 56.26 125.86 56.77 124.58 57.49 123.43 C 58.33 122.99 59.18 122.57 60.04 122.16 C 62.75 120.41 64.04 117.23 63.94 114.08 C 64.51 114.59 65.08 115.09 65.66 115.59 C 66.68 113.38 67.86 111.24 68.79 108.98 C 69.44 106.00 68.58 102.99 68.19 100.04 Z" />
</g>
<g id="#ffefccff">
<path fill="#ffefcc" opacity="1.00" d=" M 28.83 113.22 C 28.14 111.47 28.64 110.47 30.32 110.22 C 30.40 110.38 30.56 110.71 30.63 110.88 C 31.17 112.84 30.57 113.62 28.83 113.22 Z" />
<path fill="#ffefcc" opacity="1.00" d=" M 45.90 110.38 L 46.13 110.51 C 47.53 110.94 49.99 112.50 47.86 113.84 C 45.94 114.50 46.32 111.98 45.50 111.06 C 45.60 110.89 45.80 110.55 45.90 110.38 Z" />
<path fill="#ffefcc" opacity="1.00" d=" M 30.67 132.95 C 32.44 131.32 34.37 129.76 36.93 129.67 C 42.31 129.43 47.81 129.48 53.03 130.96 C 54.04 133.20 55.43 135.74 54.00 138.15 C 51.90 144.25 44.83 145.55 40.62 149.67 C 39.21 151.40 36.87 150.32 35.01 150.37 C 33.43 149.29 32.84 147.42 32.14 145.74 C 31.44 143.78 30.81 141.80 30.16 139.83 C 29.99 137.51 30.55 135.24 30.67 132.95 Z" />
</g>
<g id="#685745ff">
<path fill="#685745" opacity="1.00" d=" M 46.13 110.51 C 48.88 107.59 54.14 112.21 51.14 115.15 C 48.83 118.99 42.17 114.68 45.50 111.06 C 46.32 111.98 45.94 114.50 47.86 113.84 C 49.99 112.50 47.53 110.94 46.13 110.51 Z" />
</g>
<g id="#fdf786ff">
<path fill="#fdf786" opacity="1.00" d=" M 23.12 110.55 C 25.41 112.42 25.45 116.17 24.33 118.69 C 22.74 116.25 22.59 113.35 23.12 110.55 Z" />
</g>
<g id="#c88935ff">
<path fill="#c88935" opacity="1.00" d=" M 62.24 122.22 C 63.97 120.49 65.60 118.62 67.67 117.29 C 68.61 118.06 70.12 119.05 69.68 120.48 C 69.21 120.76 68.26 121.30 67.79 121.58 C 64.37 122.88 61.66 126.90 63.46 130.48 C 66.02 131.74 69.64 135.82 72.28 133.08 C 73.83 134.42 75.72 135.41 77.85 135.13 C 72.00 139.60 66.95 147.00 68.49 154.68 C 69.39 156.09 71.25 156.90 72.90 156.65 C 76.13 155.76 79.12 154.03 81.19 151.36 C 81.65 151.49 82.58 151.74 83.05 151.87 L 83.12 153.05 C 82.28 156.40 80.58 159.82 77.66 161.85 L 76.68 161.94 C 73.39 162.02 70.40 164.46 67.06 163.25 C 65.11 162.45 65.10 159.90 63.47 158.72 C 63.21 156.42 65.42 155.13 65.80 153.04 C 66.76 148.46 68.14 143.48 66.36 138.93 C 65.04 136.82 62.85 135.55 60.94 134.06 C 60.36 130.19 58.60 125.08 62.24 122.22 Z" />
</g>
<g id="#463219ff">
<path fill="#463219" opacity="1.00" d=" M 35.89 120.09 C 37.01 119.57 40.43 119.72 38.99 121.67 C 37.94 122.59 34.92 121.78 35.89 120.09 Z" />
</g>
<g id="#6b4116ff">
<path fill="#6b4116" opacity="1.00" d=" M 20.59 122.06 L 21.17 122.09 C 21.16 124.55 21.93 127.28 20.42 129.47 C 19.12 131.16 16.72 130.86 14.86 131.34 C 12.52 129.60 11.96 126.66 12.98 123.98 C 13.17 125.63 12.92 127.41 13.66 128.96 C 15.64 126.34 18.23 124.31 20.59 122.06 Z" />
</g>
<g id="#bd7b2eff">
<path fill="#bd7b2e" opacity="1.00" d=" M 21.17 122.09 L 21.88 121.98 C 21.91 123.40 21.94 124.82 21.99 126.25 C 21.98 126.97 21.95 128.43 21.93 129.16 C 23.18 130.07 24.96 128.75 26.26 129.68 C 26.99 130.44 27.71 131.22 28.40 132.02 C 28.60 132.48 29.00 133.40 29.19 133.86 C 29.01 134.02 28.64 134.35 28.45 134.52 C 27.95 134.29 26.94 133.83 26.43 133.60 C 22.71 134.85 17.21 135.05 14.86 131.34 C 16.72 130.86 19.12 131.16 20.42 129.47 C 21.93 127.28 21.16 124.55 21.17 122.09 Z" />
</g>
<g id="#e89735ff">
<path fill="#e89735" opacity="1.00" d=" M 21.99 126.25 C 23.00 124.78 23.48 122.81 24.98 121.76 C 25.34 121.96 26.07 122.35 26.43 122.55 C 27.71 125.47 29.04 128.78 28.40 132.02 C 27.71 131.22 26.99 130.44 26.26 129.68 C 24.96 128.75 23.18 130.07 21.93 129.16 C 21.95 128.43 21.98 126.97 21.99 126.25 Z" />
</g>
<g id="#ed9d38ff">
<path fill="#ed9d38" opacity="1.00" d=" M 63.46 130.48 C 61.66 126.90 64.37 122.88 67.79 121.58 L 68.93 121.71 C 69.45 123.90 69.77 126.14 70.49 128.28 C 70.90 129.57 71.16 130.92 71.79 132.13 L 72.28 133.08 C 69.64 135.82 66.02 131.74 63.46 130.48 Z" />
<path fill="#ed9d38" opacity="1.00" d=" M 68.39 164.97 C 71.23 165.83 74.23 165.11 77.14 165.20 C 77.39 165.68 77.89 166.64 78.15 167.12 C 74.46 166.88 70.78 167.65 67.12 167.35 C 67.44 166.76 68.07 165.57 68.39 164.97 Z" />
</g>
<g id="#f7c14cff">
<path fill="#f7c14c" opacity="1.00" d=" M 68.93 121.71 C 71.45 121.69 73.54 123.13 75.32 124.77 C 73.32 125.34 71.82 126.76 70.49 128.28 C 69.77 126.14 69.45 123.90 68.93 121.71 Z" />
</g>
<g id="#936023ff">
<path fill="#936023" opacity="1.00" d=" M 70.49 128.28 C 71.82 126.76 73.32 125.34 75.32 124.77 C 75.75 124.87 76.61 125.06 77.05 125.16 C 77.62 125.42 78.76 125.92 79.34 126.18 C 76.21 127.27 73.70 129.46 71.79 132.13 C 71.16 130.92 70.90 129.57 70.49 128.28 Z" />
</g>
<g id="#683e16ff">
<path fill="#683e16" opacity="1.00" d=" M 79.34 126.18 C 81.67 127.69 81.75 130.86 80.32 133.07 C 80.88 134.71 81.38 136.37 81.81 138.06 C 80.76 136.90 80.70 135.29 80.16 133.91 C 79.58 134.21 78.43 134.82 77.85 135.13 C 75.72 135.41 73.83 134.42 72.28 133.08 L 71.79 132.13 C 73.70 129.46 76.21 127.27 79.34 126.18 Z" />
</g>
<g id="#e6d1b4ff">
<path fill="#e6d1b4" opacity="1.00" d=" M 53.03 130.96 C 54.63 131.40 56.22 131.82 57.83 132.23 C 58.16 132.70 58.81 133.63 59.14 134.10 C 59.15 136.47 59.73 139.10 58.35 141.23 C 56.41 144.32 53.10 146.16 50.21 148.23 C 47.96 149.63 46.09 151.60 43.70 152.76 C 41.15 153.96 38.41 152.79 35.88 152.18 L 35.11 151.64 C 35.08 151.32 35.03 150.69 35.01 150.37 C 36.87 150.32 39.21 151.40 40.62 149.67 C 44.83 145.55 51.90 144.25 54.00 138.15 C 55.43 135.74 54.04 133.20 53.03 130.96 Z" />
</g>
<g id="#d4bc9eff">
<path fill="#d4bc9e" opacity="1.00" d=" M 59.14 134.10 C 59.59 134.09 60.49 134.07 60.94 134.06 C 62.85 135.55 65.04 136.82 66.36 138.93 C 66.20 140.71 66.62 142.81 65.33 144.28 C 62.84 147.17 59.37 148.94 56.65 151.59 C 54.02 154.00 49.56 154.87 48.69 158.78 C 48.33 158.67 47.63 158.45 47.28 158.34 C 44.81 157.72 42.43 156.83 40.11 155.79 C 38.55 154.77 37.20 153.48 35.88 152.18 C 38.41 152.79 41.15 153.96 43.70 152.76 C 46.09 151.60 47.96 149.63 50.21 148.23 C 53.10 146.16 56.41 144.32 58.35 141.23 C 59.73 139.10 59.15 136.47 59.14 134.10 Z" />
</g>
<g id="#e7ac48ff">
<path fill="#e7ac48" opacity="1.00" d=" M 77.85 135.13 C 78.43 134.82 79.58 134.21 80.16 133.91 C 80.70 135.29 80.76 136.90 81.81 138.06 C 82.29 139.72 82.84 141.37 83.25 143.06 C 83.52 146.00 83.98 148.99 83.05 151.87 C 82.58 151.74 81.65 151.49 81.19 151.36 C 79.12 154.03 76.13 155.76 72.90 156.65 C 71.25 156.90 69.39 156.09 68.49 154.68 C 66.95 147.00 72.00 139.60 77.85 135.13 Z" />
</g>
<g id="#bb9574ff">
<path fill="#bb9574" opacity="1.00" d=" M 66.36 138.93 C 68.14 143.48 66.76 148.46 65.80 153.04 C 65.42 155.13 63.21 156.42 63.47 158.72 C 58.55 157.10 53.53 160.52 48.69 158.78 C 49.56 154.87 54.02 154.00 56.65 151.59 C 59.37 148.94 62.84 147.17 65.33 144.28 C 66.62 142.81 66.20 140.71 66.36 138.93 Z" />
</g>
<g id="#febf4cff">
<path fill="#febf4c" opacity="1.00" d=" M 26.76 141.76 C 26.92 140.08 29.02 140.33 30.16 139.83 C 30.81 141.80 31.44 143.78 32.14 145.74 C 27.46 147.48 28.58 153.44 27.55 157.37 C 25.30 155.31 24.35 152.41 24.03 149.47 C 25.72 147.21 26.06 144.40 26.76 141.76 Z" />
</g>
<g id="#e9a23eff">
<path fill="#e9a23e" opacity="1.00" d=" M 27.55 157.37 C 28.58 153.44 27.46 147.48 32.14 145.74 C 32.84 147.42 33.43 149.29 35.01 150.37 C 35.03 150.69 35.08 151.32 35.11 151.64 C 31.19 152.57 30.60 157.00 31.32 160.34 C 29.72 160.15 28.70 158.71 27.52 157.76 L 27.55 157.37 Z" />
</g>
<g id="#c5802fff">
<path fill="#c5802f" opacity="1.00" d=" M 31.32 160.34 C 30.60 157.00 31.19 152.57 35.11 151.64 L 35.88 152.18 C 37.20 153.48 38.55 154.77 40.11 155.79 C 38.53 155.81 36.92 155.81 35.40 156.30 C 35.17 157.73 35.07 159.17 34.79 160.59 C 34.40 160.73 33.64 161.02 33.25 161.16 C 32.79 161.03 31.86 160.78 31.39 160.66 L 31.32 160.34 Z" />
</g>
<g id="#a66622ff">
<path fill="#a66622" opacity="1.00" d=" M 35.40 156.30 C 36.92 155.81 38.53 155.81 40.11 155.79 C 42.43 156.83 44.81 157.72 47.28 158.34 C 46.64 158.89 45.36 160.00 44.73 160.55 C 42.67 161.56 40.41 161.93 38.17 162.31 C 39.20 165.57 43.14 164.70 45.74 165.01 C 45.86 165.50 46.08 166.50 46.19 166.99 C 45.52 170.29 41.21 168.94 38.89 170.25 L 37.98 169.99 C 36.58 169.24 35.15 168.58 33.71 167.93 L 33.89 167.01 C 35.36 166.08 37.10 165.84 38.77 165.53 C 37.79 163.87 36.00 163.06 34.24 162.49 C 33.99 162.16 33.50 161.49 33.25 161.16 C 33.64 161.02 34.40 160.73 34.79 160.59 C 35.07 159.17 35.17 157.73 35.40 156.30 Z" />
</g>
<g id="#8f551eff">
<path fill="#8f551e" opacity="1.00" d=" M 38.17 162.31 C 40.41 161.93 42.67 161.56 44.73 160.55 C 44.99 162.75 47.39 164.64 46.19 166.99 C 46.08 166.50 45.86 165.50 45.74 165.01 C 43.14 164.70 39.20 165.57 38.17 162.31 Z" />
</g>
<g id="#975d22f2">
<path fill="#975d22" opacity="0.95" d=" M 67.06 163.25 C 70.40 164.46 73.39 162.02 76.68 161.94 C 76.80 162.76 77.02 164.38 77.14 165.20 C 74.23 165.11 71.23 165.83 68.39 164.97 C 68.06 164.54 67.39 163.68 67.06 163.25 Z" />
</g>
<g id="#7f4d1bff">
<path fill="#7f4d1b" opacity="1.00" d=" M 16.51 165.75 C 20.00 165.52 23.36 164.23 26.81 164.07 C 27.62 164.98 28.68 165.42 29.99 165.40 C 31.31 165.89 32.59 166.46 33.89 167.01 L 33.71 167.93 C 32.18 167.88 30.56 167.46 29.10 168.07 C 25.47 170.98 20.78 172.70 16.13 172.86 C 15.02 172.49 13.03 173.05 12.60 171.58 C 11.18 168.99 13.71 165.61 16.51 165.75 Z" />
</g>
<g id="#f5a034ff">
<path fill="#f5a034" opacity="1.00" d=" M 26.81 164.07 L 27.64 163.92 C 29.34 164.02 31.10 163.91 32.75 164.42 C 32.10 165.16 31.18 165.48 29.99 165.40 C 28.68 165.42 27.62 164.98 26.81 164.07 Z" />
</g>
<g id="#8b531dff">
<path fill="#8b531d" opacity="1.00" d=" M 67.12 167.35 C 70.78 167.65 74.46 166.88 78.15 167.12 C 79.47 167.40 80.43 168.68 81.31 169.64 C 81.18 170.20 80.93 171.33 80.80 171.90 C 78.38 172.74 78.05 169.60 77.40 168.08 C 77.16 169.67 76.98 171.26 76.64 172.84 C 75.50 173.52 73.11 173.81 72.95 171.95 C 72.52 170.59 72.08 169.22 71.40 167.96 C 71.30 170.76 71.41 174.18 68.08 175.03 C 65.57 173.45 67.01 169.77 67.12 167.35 Z" />
</g>
<g id="#5e3713ff">
<path fill="#5e3713" opacity="1.00" d=" M 16.13 172.86 C 20.78 172.70 25.47 170.98 29.10 168.07 C 30.56 167.46 32.18 167.88 33.71 167.93 C 35.15 168.58 36.58 169.24 37.98 169.99 L 37.74 170.39 C 30.59 171.04 23.04 175.26 16.13 172.86 Z" />
</g>
<g id="#684017ff">
<path fill="#684017" opacity="1.00" d=" M 71.40 167.96 C 72.08 169.22 72.52 170.59 72.95 171.95 C 73.11 173.81 75.50 173.52 76.64 172.84 C 76.98 171.26 77.16 169.67 77.40 168.08 C 78.05 169.60 78.38 172.74 80.80 171.90 C 80.93 171.33 81.18 170.20 81.31 169.64 L 81.47 169.18 C 82.17 171.16 82.82 173.60 81.29 175.39 C 76.98 175.83 72.57 175.55 68.22 175.64 L 68.08 175.03 C 71.41 174.18 71.30 170.76 71.40 167.96 Z" />
</g>
</svg>
