<?xml version="1.0" encoding="UTF-8" ?>
<!DOCTYPE svg PUBLIC "-//W3C//DTD SVG 1.1//EN" "http://www.w3.org/Graphics/SVG/1.1/DTD/svg11.dtd">
<svg width="106pt" height="140pt" viewBox="0 0 106 140" version="1.1" xmlns="http://www.w3.org/2000/svg">
<g id="#fed95cff">
<path fill="#fed95c" opacity="1.00" d=" M 36.95 23.96 C 39.58 23.54 42.26 23.41 44.90 23.81 C 42.93 23.91 40.83 23.84 39.18 25.10 C 42.72 27.07 47.09 26.51 50.79 25.31 C 52.55 25.60 54.15 26.75 55.95 27.02 C 60.35 25.91 65.00 24.59 69.51 25.85 C 66.35 27.11 63.14 28.26 59.94 29.45 C 57.04 30.05 54.06 31.65 54.47 35.11 C 49.66 30.67 43.14 28.63 36.73 28.00 C 37.33 27.18 37.93 26.36 38.53 25.53 C 38.40 25.40 38.13 25.13 37.99 24.99 L 36.95 23.96 Z" />
</g>
<g id="#ffdf62ff">
<path fill="#ffdf62" opacity="1.00" d=" M 13.13 24.19 C 17.76 23.86 22.52 24.20 26.88 25.89 C 26.58 25.97 25.98 26.13 25.68 26.21 C 25.57 27.38 25.51 28.56 25.44 29.73 C 26.82 29.30 28.20 28.80 29.64 28.58 C 35.63 28.19 41.93 28.67 47.25 31.68 C 45.49 35.50 43.68 39.30 41.82 43.08 C 40.71 42.70 39.62 42.27 38.51 41.91 C 33.42 39.38 27.62 40.26 22.56 42.36 C 22.53 39.45 23.05 36.59 23.60 33.74 L 23.07 33.14 L 22.44 32.44 C 19.95 29.91 17.46 26.94 13.71 26.45 L 13.10 26.28 C 13.11 25.76 13.12 24.71 13.13 24.19 Z" />
</g>
<g id="#ffff73ff">
<path fill="#ffff73" opacity="1.00" d=" M 28.89 26.44 C 31.46 25.28 34.16 24.36 36.95 23.96 L 37.99 24.99 C 36.27 28.12 32.79 28.25 29.64 28.58 C 28.20 28.80 26.82 29.30 25.44 29.73 C 25.51 28.56 25.57 27.38 25.68 26.21 C 25.98 26.13 26.58 25.97 26.88 25.89 C 27.38 26.02 28.39 26.30 28.89 26.44 Z" />
<path fill="#ffff73" opacity="1.00" d=" M 39.18 25.10 C 40.83 23.84 42.93 23.91 44.90 23.81 C 46.91 24.10 48.88 24.62 50.79 25.31 C 47.09 26.51 42.72 27.07 39.18 25.10 Z" />
</g>
<g id="#b47529ff">
<path fill="#b47529" opacity="1.00" d=" M 37.99 24.99 C 38.13 25.13 38.40 25.40 38.53 25.53 C 37.93 26.36 37.33 27.18 36.73 28.00 C 43.14 28.63 49.66 30.67 54.47 35.11 C 57.80 38.58 61.08 42.19 63.32 46.48 C 65.17 52.25 65.93 58.71 63.52 64.43 C 62.84 66.34 61.26 68.19 62.09 70.33 C 61.81 70.83 61.26 71.83 60.99 72.33 C 63.86 71.87 66.90 71.03 69.71 72.27 C 72.48 72.97 74.20 75.39 76.06 77.35 C 76.38 76.93 77.02 76.09 77.34 75.67 C 77.34 78.98 77.34 82.33 78.60 85.45 C 79.70 85.60 80.80 85.74 81.91 85.88 C 81.74 81.54 80.03 77.54 78.16 73.71 C 77.37 72.51 78.01 71.12 78.21 69.86 C 78.68 70.88 79.15 71.91 79.60 72.94 C 80.05 73.94 80.47 74.95 80.86 75.98 C 81.68 79.10 82.55 82.23 84.23 85.02 C 83.99 87.22 81.39 86.92 79.97 88.00 C 78.46 89.22 77.29 90.80 76.13 92.34 C 79.26 86.73 76.09 80.49 72.76 75.81 C 70.94 74.14 68.58 73.36 66.22 72.85 C 62.85 76.36 59.46 79.84 56.10 83.36 C 57.11 84.55 58.12 85.73 59.14 86.91 C 61.62 90.54 64.35 94.09 65.78 98.31 C 65.04 98.57 63.56 99.09 62.81 99.35 C 62.26 97.66 61.75 95.97 61.15 94.30 C 59.27 89.51 56.02 85.38 51.70 82.58 L 51.95 82.28 C 52.97 82.50 53.98 82.74 55.00 82.98 C 58.11 79.76 61.29 76.60 64.24 73.23 C 62.90 73.20 61.56 73.14 60.22 73.06 C 58.36 72.80 56.51 72.42 54.66 72.05 C 54.89 71.70 55.36 71.00 55.59 70.65 C 56.30 70.58 57.72 70.45 58.43 70.38 C 62.74 64.13 64.56 56.21 62.46 48.81 C 61.17 45.49 59.41 42.34 57.00 39.70 C 54.63 36.86 51.96 34.27 48.86 32.23 C 46.36 35.78 44.84 39.87 43.17 43.85 C 45.90 45.85 48.50 48.03 50.99 50.33 C 50.44 51.17 49.92 52.03 49.44 52.90 C 49.49 50.77 47.80 49.33 46.41 47.97 C 43.47 45.77 40.22 44.05 36.84 42.64 C 37.26 42.46 38.09 42.10 38.51 41.91 C 39.62 42.27 40.71 42.70 41.82 43.08 C 43.68 39.30 45.49 35.50 47.25 31.68 C 41.93 28.67 35.63 28.19 29.64 28.58 C 32.79 28.25 36.27 28.12 37.99 24.99 Z" />
<path fill="#b47529" opacity="1.00" d=" M 28.55 121.81 C 30.04 122.84 31.64 123.70 33.27 124.49 C 32.11 125.89 30.64 126.98 28.96 127.67 C 25.83 128.07 22.66 128.25 19.52 127.81 C 21.13 124.21 25.40 123.51 28.55 121.81 Z" />
</g>
<g id="#cb9137ff">
<path fill="#cb9137" opacity="1.00" d=" M 69.51 25.85 L 69.81 25.73 C 69.97 28.57 70.07 31.48 69.19 34.22 C 68.43 37.14 66.57 39.98 67.47 43.10 C 66.05 47.01 67.41 51.03 68.18 54.91 C 68.98 54.02 69.77 53.14 70.57 52.25 C 70.86 52.66 71.15 53.06 71.45 53.47 C 71.21 54.78 70.98 56.08 70.80 57.40 C 68.66 59.89 68.14 63.23 67.10 66.24 C 65.38 67.54 63.66 68.85 62.09 70.33 C 61.26 68.19 62.84 66.34 63.52 64.43 C 65.93 58.71 65.17 52.25 63.32 46.48 C 64.97 43.68 64.45 40.15 62.28 37.78 C 60.47 36.04 58.34 34.67 56.37 33.11 C 57.56 31.88 58.73 30.64 59.94 29.45 C 63.14 28.26 66.35 27.11 69.51 25.85 M 64.08 29.34 C 66.71 30.20 65.17 32.91 64.27 34.54 C 62.87 33.59 59.42 29.37 58.76 32.82 C 60.72 34.09 62.70 35.33 64.49 36.84 C 66.35 34.44 66.92 31.42 67.56 28.53 C 66.31 28.12 65.20 28.95 64.08 29.34 Z" />
</g>
<g id="#c9812bff">
<path fill="#c9812b" opacity="1.00" d=" M 13.71 26.45 C 17.46 26.94 19.95 29.91 22.44 32.44 C 21.44 33.84 20.45 35.25 19.63 36.77 C 18.34 33.00 14.63 30.44 13.71 26.45 Z" />
</g>
<g id="#875a23ff">
<path fill="#875a23" opacity="1.00" d=" M 64.08 29.34 C 65.20 28.95 66.31 28.12 67.56 28.53 C 66.92 31.42 66.35 34.44 64.49 36.84 C 62.70 35.33 60.72 34.09 58.76 32.82 C 59.42 29.37 62.87 33.59 64.27 34.54 C 65.17 32.91 66.71 30.20 64.08 29.34 Z" />
</g>
<g id="#dda543ff">
<path fill="#dda543" opacity="1.00" d=" M 54.47 35.11 C 54.06 31.65 57.04 30.05 59.94 29.45 C 58.73 30.64 57.56 31.88 56.37 33.11 C 58.34 34.67 60.47 36.04 62.28 37.78 C 64.45 40.15 64.97 43.68 63.32 46.48 C 61.08 42.19 57.80 38.58 54.47 35.11 Z" />
</g>
<g id="#fffa74ff">
<path fill="#fffa74" opacity="1.00" d=" M 22.44 32.44 L 23.07 33.14 C 22.43 36.40 21.62 39.63 21.36 42.95 C 19.81 44.93 18.41 47.20 16.08 48.35 C 15.22 44.29 18.04 40.39 19.63 36.77 C 20.45 35.25 21.44 33.84 22.44 32.44 Z" />
</g>
<g id="#b19642ff">
<path fill="#b19642" opacity="1.00" d=" M 23.07 33.14 L 23.60 33.74 C 23.05 36.59 22.53 39.45 22.56 42.36 C 27.62 40.26 33.42 39.38 38.51 41.91 C 38.09 42.10 37.26 42.46 36.84 42.64 C 35.18 42.38 33.53 42.09 31.87 41.79 C 30.99 45.44 30.37 49.14 30.09 52.88 C 33.12 53.18 36.18 53.43 39.12 54.27 C 41.24 55.56 43.16 57.16 45.04 58.79 C 45.56 58.62 46.61 58.30 47.14 58.14 C 46.71 60.42 46.62 62.75 46.85 65.06 C 46.48 63.77 46.17 62.46 45.86 61.16 C 42.86 64.50 39.22 67.27 34.95 68.77 C 34.43 68.92 33.39 69.22 32.87 69.37 C 28.06 70.67 22.82 68.54 20.58 64.03 C 24.42 67.76 29.91 68.98 34.90 66.92 C 38.47 65.61 41.48 63.22 43.99 60.40 C 41.91 58.26 39.47 56.42 36.48 55.85 C 30.71 54.30 24.78 54.85 19.11 56.45 C 21.30 53.38 25.00 52.95 28.46 52.69 C 28.86 49.05 29.42 45.42 30.05 41.81 C 25.11 42.13 20.01 44.65 17.65 49.15 C 17.42 51.80 18.01 54.44 18.48 57.03 C 18.78 58.56 19.02 60.10 19.10 61.65 C 19.06 63.26 18.95 64.86 18.78 66.46 C 18.37 66.17 17.55 65.58 17.14 65.29 L 18.61 66.24 C 17.93 62.32 18.68 57.76 16.81 54.26 L 15.23 54.70 C 15.88 53.02 15.88 51.36 15.22 49.73 L 14.87 48.90 L 16.08 48.35 C 18.41 47.20 19.81 44.93 21.36 42.95 C 21.62 39.63 22.43 36.40 23.07 33.14 Z" />
</g>
<g id="#f3c656ff">
<path fill="#f3c656" opacity="1.00" d=" M 43.17 43.85 C 44.84 39.87 46.36 35.78 48.86 32.23 C 51.96 34.27 54.63 36.86 57.00 39.70 C 55.65 42.46 55.88 45.52 56.13 48.48 C 54.18 48.30 52.36 48.93 50.99 50.33 C 48.50 48.03 45.90 45.85 43.17 43.85 Z" />
</g>
<g id="#dfae48ff">
<path fill="#dfae48" opacity="1.00" d=" M 57.00 39.70 C 59.41 42.34 61.17 45.49 62.46 48.81 C 61.25 49.91 60.04 51.01 58.84 52.13 C 58.28 50.68 57.17 49.59 56.13 48.48 C 55.88 45.52 55.65 42.46 57.00 39.70 Z" />
</g>
<g id="#ffe264ff">
<path fill="#ffe264" opacity="1.00" d=" M 17.65 49.15 C 20.01 44.65 25.11 42.13 30.05 41.81 C 29.42 45.42 28.86 49.05 28.46 52.69 C 25.00 52.95 21.30 53.38 19.11 56.45 C 18.95 56.59 18.64 56.89 18.48 57.03 C 18.01 54.44 17.42 51.80 17.65 49.15 Z" />
</g>
<g id="#fed45eff">
<path fill="#fed45e" opacity="1.00" d=" M 31.87 41.79 C 33.53 42.09 35.18 42.38 36.84 42.64 C 40.22 44.05 43.47 45.77 46.41 47.97 C 44.41 50.53 42.04 52.80 39.12 54.27 C 36.18 53.43 33.12 53.18 30.09 52.88 C 30.37 49.14 30.99 45.44 31.87 41.79 Z" />
</g>
<g id="#e8bb47fc">
<path fill="#e8bb47" opacity="1.00" d=" M 67.47 43.10 C 68.87 46.04 67.98 49.89 70.57 52.25 C 69.77 53.14 68.98 54.02 68.18 54.91 C 67.41 51.03 66.05 47.01 67.47 43.10 Z" />
</g>
<g id="#ebbd50ff">
<path fill="#ebbd50" opacity="1.00" d=" M 46.41 47.97 C 47.80 49.33 49.49 50.77 49.44 52.90 C 48.60 54.62 47.80 56.35 47.14 58.14 C 46.61 58.30 45.56 58.62 45.04 58.79 C 43.16 57.16 41.24 55.56 39.12 54.27 C 42.04 52.80 44.41 50.53 46.41 47.97 Z" />
<path fill="#ebbd50" opacity="1.00" d=" M 70.80 57.40 C 70.98 56.08 71.21 54.78 71.45 53.47 C 74.08 57.49 76.43 61.73 78.19 66.21 C 77.95 66.64 77.47 67.49 77.23 67.92 C 75.07 65.07 73.70 61.60 70.74 59.41 C 70.76 58.91 70.79 57.90 70.80 57.40 Z" />
</g>
<g id="#011522ff">
<path fill="#011522" opacity="1.00" d=" M 50.99 50.33 C 52.36 48.93 54.18 48.30 56.13 48.48 C 57.17 49.59 58.28 50.68 58.84 52.13 C 59.02 54.88 58.41 57.57 57.49 60.14 C 58.45 62.28 58.69 64.70 57.97 66.95 C 57.96 64.86 57.99 62.75 57.26 60.76 C 54.77 63.74 52.26 68.31 47.67 67.54 C 47.47 66.92 47.06 65.68 46.85 65.06 C 46.62 62.75 46.71 60.42 47.14 58.14 C 47.80 56.35 48.60 54.62 49.44 52.90 C 49.92 52.03 50.44 51.17 50.99 50.33 M 49.53 54.43 C 50.26 55.32 51.08 56.11 51.98 56.82 C 54.61 55.54 55.73 51.70 53.19 49.73 C 51.79 51.15 50.59 52.75 49.53 54.43 Z" />
</g>
<g id="#c58d37ff">
<path fill="#c58d37" opacity="1.00" d=" M 62.46 48.81 C 64.56 56.21 62.74 64.13 58.43 70.38 C 57.72 70.45 56.30 70.58 55.59 70.65 C 56.38 69.41 57.18 68.19 57.97 66.95 C 58.69 64.70 58.45 62.28 57.49 60.14 C 58.41 57.57 59.02 54.88 58.84 52.13 C 60.04 51.01 61.25 49.91 62.46 48.81 Z" />
</g>
<g id="#00314aff">
<path fill="#00314a" opacity="1.00" d=" M 17.14 65.29 C 14.81 60.68 12.59 54.78 14.88 49.79 C 14.62 51.47 14.59 53.15 14.79 54.83 L 15.23 54.70 L 16.81 54.26 C 18.68 57.76 17.93 62.32 18.61 66.24 L 17.14 65.29 Z" />
</g>
<g id="#ffffffff">
<path fill="#ffffff" opacity="1.00" d=" M 14.88 49.79 L 15.22 49.73 C 15.88 51.36 15.88 53.02 15.23 54.70 L 14.79 54.83 C 14.59 53.15 14.62 51.47 14.88 49.79 Z" />
</g>
<g id="#adaeaeff">
<path fill="#adaeae" opacity="1.00" d=" M 49.53 54.43 C 50.59 52.75 51.79 51.15 53.19 49.73 C 55.73 51.70 54.61 55.54 51.98 56.82 C 51.08 56.11 50.26 55.32 49.53 54.43 Z" />
</g>
<g id="#ffd75fff">
<path fill="#ffd75f" opacity="1.00" d=" M 19.11 56.45 C 24.78 54.85 30.71 54.30 36.48 55.85 C 36.51 59.25 34.30 62.04 32.97 65.02 C 33.61 65.65 34.26 66.29 34.90 66.92 C 29.91 68.98 24.42 67.76 20.58 64.03 C 20.07 63.25 19.58 62.46 19.10 61.65 C 19.02 60.10 18.78 58.56 18.48 57.03 C 18.64 56.89 18.95 56.59 19.11 56.45 Z" />
</g>
<g id="#ecbf52ff">
<path fill="#ecbf52" opacity="1.00" d=" M 36.48 55.85 C 39.47 56.42 41.91 58.26 43.99 60.40 C 41.48 63.22 38.47 65.61 34.90 66.92 C 34.26 66.29 33.61 65.65 32.97 65.02 C 34.30 62.04 36.51 59.25 36.48 55.85 Z" />
</g>
<g id="#d7a845fc">
<path fill="#d7a845" opacity="1.00" d=" M 101.39 57.11 C 102.69 57.64 104.71 58.13 104.20 60.03 C 102.37 65.86 99.84 71.49 96.95 76.88 C 95.90 76.37 94.85 75.89 93.81 75.36 C 92.17 74.70 92.00 72.90 91.63 71.41 C 92.29 71.75 93.61 72.43 94.27 72.77 C 97.65 68.56 100.27 63.80 102.66 58.97 C 102.43 58.63 101.96 57.95 101.73 57.60 L 101.39 57.11 Z" />
</g>
<g id="#a97b2fff">
<path fill="#a97b2f" opacity="1.00" d=" M 67.10 66.24 C 68.14 63.23 68.66 59.89 70.80 57.40 C 70.79 57.90 70.76 58.91 70.74 59.41 C 70.39 61.19 69.88 62.94 69.38 64.68 C 70.06 64.94 71.41 65.46 72.09 65.72 C 71.57 65.84 70.52 66.08 70.00 66.20 C 69.27 66.21 67.83 66.23 67.10 66.24 Z" />
</g>
<g id="#ffdb60ff">
<path fill="#ffdb60" opacity="1.00" d=" M 85.71 67.18 C 91.04 64.00 95.96 59.92 101.73 57.60 C 101.96 57.95 102.43 58.63 102.66 58.97 C 100.27 63.80 97.65 68.56 94.27 72.77 C 93.61 72.43 92.29 71.75 91.63 71.41 C 90.87 68.82 87.78 68.37 85.71 67.18 Z" />
</g>
<g id="#d8a23fff">
<path fill="#d8a23f" opacity="1.00" d=" M 69.38 64.68 C 69.88 62.94 70.39 61.19 70.74 59.41 C 73.70 61.60 75.07 65.07 77.23 67.92 C 77.47 67.49 77.95 66.64 78.19 66.21 C 78.97 67.65 79.70 69.11 80.43 70.57 C 80.14 71.35 79.86 72.14 79.60 72.94 C 79.15 71.91 78.68 70.88 78.21 69.86 C 78.01 71.12 77.37 72.51 78.16 73.71 C 80.03 77.54 81.74 81.54 81.91 85.88 C 80.80 85.74 79.70 85.60 78.60 85.45 C 77.34 82.33 77.34 78.98 77.34 75.67 C 77.16 71.42 74.29 67.16 70.00 66.20 C 70.52 66.08 71.57 65.84 72.09 65.72 C 71.41 65.46 70.06 64.94 69.38 64.68 Z" />
</g>
<g id="#ebc68aff">
<path fill="#ebc68a" opacity="1.00" d=" M 34.95 68.77 C 39.22 67.27 42.86 64.50 45.86 61.16 C 46.17 62.46 46.48 63.77 46.85 65.06 C 47.06 65.68 47.47 66.92 47.67 67.54 C 42.05 72.13 35.81 76.37 31.91 82.66 C 33.17 82.48 34.42 82.27 35.68 82.11 C 40.25 82.63 44.60 84.24 48.82 86.00 C 48.24 87.21 47.75 88.47 47.27 89.73 C 46.78 89.94 45.79 90.38 45.30 90.59 C 42.16 88.49 38.75 86.66 34.93 86.28 C 31.43 85.91 28.04 84.53 24.49 84.76 C 24.35 84.49 24.06 83.93 23.92 83.65 C 23.79 83.41 23.52 82.91 23.39 82.67 C 23.23 82.21 22.91 81.29 22.75 80.83 C 22.45 78.40 22.42 75.94 22.40 73.49 C 23.68 75.11 24.92 76.75 26.13 78.43 C 26.92 79.51 27.72 80.59 28.53 81.66 C 31.72 77.78 34.93 73.82 36.88 69.15 C 36.40 69.05 35.43 68.86 34.95 68.77 Z" />
</g>
<g id="#fef9b9ff">
<path fill="#fef9b9" opacity="1.00" d=" M 19.10 61.65 C 19.58 62.46 20.07 63.25 20.58 64.03 C 22.82 68.54 28.06 70.67 32.87 69.37 C 29.79 71.77 29.37 76.13 26.13 78.43 C 24.92 76.75 23.68 75.11 22.40 73.49 C 22.13 73.13 21.59 72.40 21.31 72.04 C 21.14 71.78 20.78 71.28 20.60 71.03 C 19.91 69.97 19.25 68.90 18.60 67.82 C 18.65 67.48 18.74 66.80 18.78 66.46 C 18.95 64.86 19.06 63.26 19.10 61.65 Z" />
</g>
<g id="#c79a61ff">
<path fill="#c79a61" opacity="1.00" d=" M 47.67 67.54 C 52.26 68.31 54.77 63.74 57.26 60.76 C 57.99 62.75 57.96 64.86 57.97 66.95 C 57.18 68.19 56.38 69.41 55.59 70.65 C 55.36 71.00 54.89 71.70 54.66 72.05 C 56.51 72.42 58.36 72.80 60.22 73.06 C 58.15 74.91 55.98 76.67 54.00 78.63 C 49.53 77.73 45.18 79.68 40.72 79.17 C 42.82 77.58 45.02 76.12 47.09 74.50 C 42.18 74.49 38.66 78.71 35.68 82.11 C 34.42 82.27 33.17 82.48 31.91 82.66 C 35.81 76.37 42.05 72.13 47.67 67.54 Z" />
</g>
<g id="#e9a840ff">
<path fill="#e9a840" opacity="1.00" d=" M 15.35 64.86 C 15.80 64.97 16.69 65.18 17.14 65.29 C 17.55 65.58 18.37 66.17 18.78 66.46 C 18.74 66.80 18.65 67.48 18.60 67.82 C 19.25 68.90 19.91 69.97 20.60 71.03 C 19.97 71.97 19.49 72.98 19.17 74.06 C 17.43 73.07 15.71 72.05 13.89 71.23 C 14.54 70.94 15.82 70.37 16.46 70.08 C 16.36 68.49 16.14 66.89 15.54 65.41 L 15.35 64.86 Z" />
</g>
<g id="#ffba45ff">
<path fill="#ffba45" opacity="1.00" d=" M 10.95 67.21 C 12.33 66.28 13.88 65.60 15.54 65.41 C 16.14 66.89 16.36 68.49 16.46 70.08 C 14.20 69.74 11.94 69.47 9.67 69.25 C 10.09 68.57 10.52 67.89 10.95 67.21 Z" />
</g>
<g id="#fec14dff">
<path fill="#fec14d" opacity="1.00" d=" M 67.10 66.24 C 67.83 66.23 69.27 66.21 70.00 66.20 C 74.29 67.16 77.16 71.42 77.34 75.67 C 77.02 76.09 76.38 76.93 76.06 77.35 C 74.20 75.39 72.48 72.97 69.71 72.27 C 66.90 71.03 63.86 71.87 60.99 72.33 C 61.26 71.83 61.81 70.83 62.09 70.33 C 63.66 68.85 65.38 67.54 67.10 66.24 Z" />
</g>
<g id="#b28d39f4">
<path fill="#b28d39" opacity="0.96" d=" M 8.10 69.74 C 8.97 68.80 9.88 67.90 10.95 67.21 C 10.52 67.89 10.09 68.57 9.67 69.25 C 11.94 69.47 14.20 69.74 16.46 70.08 C 15.82 70.37 14.54 70.94 13.89 71.23 C 13.40 71.23 12.40 71.23 11.90 71.23 C 12.51 74.57 13.59 77.80 15.18 80.80 C 17.69 80.49 20.25 80.32 22.75 80.83 C 22.91 81.29 23.23 82.21 23.39 82.67 C 19.91 81.40 16.00 81.78 13.02 84.05 C 9.77 85.96 9.32 89.94 8.46 93.23 C 8.19 93.43 7.66 93.84 7.39 94.04 C 7.22 93.62 6.89 92.78 6.73 92.36 C 7.82 88.01 9.54 83.71 13.40 81.09 C 11.99 77.97 11.11 74.66 10.66 71.28 C 9.81 70.76 8.95 70.25 8.10 69.74 Z" />
</g>
<g id="#fdd45bff">
<path fill="#fdd45b" opacity="1.00" d=" M 80.43 70.57 C 82.09 69.29 83.96 68.33 85.71 67.18 C 87.78 68.37 90.87 68.82 91.63 71.41 C 92.00 72.90 92.17 74.70 93.81 75.36 C 91.84 77.61 90.02 79.98 88.41 82.50 C 86.38 79.82 83.85 77.54 80.86 75.98 C 80.47 74.95 80.05 73.94 79.60 72.94 C 79.86 72.14 80.14 71.35 80.43 70.57 Z" />
<path fill="#fdd45b" opacity="1.00" d=" M 5.93 117.04 C 7.25 117.39 8.57 117.74 9.89 118.10 C 10.47 118.59 11.06 119.08 11.63 119.58 C 11.07 120.77 10.52 121.96 9.96 123.16 C 8.33 121.69 6.81 120.08 5.73 118.16 C 5.78 117.88 5.88 117.32 5.93 117.04 Z" />
</g>
<g id="#f6dfa3ff">
<path fill="#f6dfa3" opacity="1.00" d=" M 32.87 69.37 C 33.39 69.22 34.43 68.92 34.95 68.77 C 35.43 68.86 36.40 69.05 36.88 69.15 C 34.93 73.82 31.72 77.78 28.53 81.66 C 27.72 80.59 26.92 79.51 26.13 78.43 C 29.37 76.13 29.79 71.77 32.87 69.37 Z" />
</g>
<g id="#ffd158ff">
<path fill="#ffd158" opacity="1.00" d=" M 8.10 69.74 C 8.95 70.25 9.81 70.76 10.66 71.28 C 11.11 74.66 11.99 77.97 13.40 81.09 C 9.54 83.71 7.82 88.01 6.73 92.36 C 4.11 90.03 3.55 86.35 3.81 83.03 C 3.64 78.22 5.92 73.86 8.10 69.74 Z" />
</g>
<g id="#f5be4fff">
<path fill="#f5be4f" opacity="1.00" d=" M 11.90 71.23 C 12.40 71.23 13.40 71.23 13.89 71.23 C 15.71 72.05 17.43 73.07 19.17 74.06 C 19.62 74.21 20.51 74.51 20.96 74.67 C 21.05 74.01 21.23 72.69 21.31 72.04 C 21.59 72.40 22.13 73.13 22.40 73.49 C 22.42 75.94 22.45 78.40 22.75 80.83 C 20.25 80.32 17.69 80.49 15.18 80.80 C 13.59 77.80 12.51 74.57 11.90 71.23 Z" />
</g>
<g id="#b37e2fff">
<path fill="#b37e2f" opacity="1.00" d=" M 20.60 71.03 C 20.78 71.28 21.14 71.78 21.31 72.04 C 21.23 72.69 21.05 74.01 20.96 74.67 C 20.51 74.51 19.62 74.21 19.17 74.06 C 19.49 72.98 19.97 71.97 20.60 71.03 Z" />
</g>
<g id="#ffcb55ff">
<path fill="#ffcb55" opacity="1.00" d=" M 60.22 73.06 C 61.56 73.14 62.90 73.20 64.24 73.23 C 61.29 76.60 58.11 79.76 55.00 82.98 C 53.98 82.74 52.97 82.50 51.95 82.28 C 52.64 81.07 53.29 79.83 54.00 78.63 C 55.98 76.67 58.15 74.91 60.22 73.06 Z" />
</g>
<g id="#f6c353ff">
<path fill="#f6c353" opacity="1.00" d=" M 66.22 72.85 C 68.58 73.36 70.94 74.14 72.76 75.81 C 70.69 80.87 67.86 86.20 62.93 88.98 C 61.66 88.30 60.39 87.62 59.14 86.91 C 58.12 85.73 57.11 84.55 56.10 83.36 C 59.46 79.84 62.85 76.36 66.22 72.85 Z" />
</g>
<g id="#e3b77cff">
<path fill="#e3b77c" opacity="1.00" d=" M 35.68 82.11 C 38.66 78.71 42.18 74.49 47.09 74.50 C 45.02 76.12 42.82 77.58 40.72 79.17 C 45.18 79.68 49.53 77.73 54.00 78.63 C 53.29 79.83 52.64 81.07 51.95 82.28 L 51.70 82.58 C 50.74 83.72 49.76 84.84 48.82 86.00 C 44.60 84.24 40.25 82.63 35.68 82.11 Z" />
</g>
<g id="#d3a943ff">
<path fill="#d3a943" opacity="1.00" d=" M 93.81 75.36 C 94.85 75.89 95.90 76.37 96.95 76.88 C 94.42 81.85 91.72 86.76 88.55 91.35 L 88.17 90.83 C 86.80 88.93 85.40 87.05 84.23 85.02 C 82.55 82.23 81.68 79.10 80.86 75.98 C 83.85 77.54 86.38 79.82 88.41 82.50 C 90.02 79.98 91.84 77.61 93.81 75.36 Z" />
</g>
<g id="#d3a040ff">
<path fill="#d3a040" opacity="1.00" d=" M 72.76 75.81 C 76.09 80.49 79.26 86.73 76.13 92.34 C 75.91 92.78 75.47 93.66 75.25 94.10 L 74.94 93.07 C 74.35 93.69 73.77 94.31 73.19 94.94 C 70.89 96.40 68.35 97.41 65.78 98.31 C 64.35 94.09 61.62 90.54 59.14 86.91 C 60.39 87.62 61.66 88.30 62.93 88.98 C 67.86 86.20 70.69 80.87 72.76 75.81 Z" />
</g>
<g id="#f0bb4eff">
<path fill="#f0bb4e" opacity="1.00" d=" M 13.02 84.05 C 16.00 81.78 19.91 81.40 23.39 82.67 C 23.52 82.91 23.79 83.41 23.92 83.65 C 18.11 86.24 15.00 91.83 10.82 96.25 C 9.26 95.94 7.72 96.34 6.19 96.62 C 6.09 96.56 5.88 96.45 5.78 96.40 C 6.18 95.81 6.98 94.63 7.39 94.04 C 7.66 93.84 8.19 93.43 8.46 93.23 C 9.32 89.94 9.77 85.96 13.02 84.05 Z" />
</g>
<g id="#efb74dff">
<path fill="#efb74d" opacity="1.00" d=" M 48.82 86.00 C 49.76 84.84 50.74 83.72 51.70 82.58 C 56.02 85.38 59.27 89.51 61.15 94.30 C 58.90 97.13 53.80 98.76 50.89 96.02 L 50.44 95.71 C 49.26 95.24 48.04 94.97 46.78 94.91 C 47.99 94.08 47.93 92.49 47.56 91.25 C 47.49 90.87 47.34 90.11 47.27 89.73 C 47.75 88.47 48.24 87.21 48.82 86.00 Z" />
</g>
<g id="#dfa643ff">
<path fill="#dfa643" opacity="1.00" d=" M 10.82 96.25 C 15.00 91.83 18.11 86.24 23.92 83.65 C 24.06 83.93 24.35 84.49 24.49 84.76 C 25.16 86.43 25.69 88.15 26.13 89.89 C 24.73 89.27 23.28 88.75 21.73 89.14 C 19.28 92.08 15.31 94.23 14.46 98.20 C 13.25 97.54 12.05 96.87 10.82 96.25 Z" />
</g>
<g id="#f5da9dff">
<path fill="#f5da9d" opacity="1.00" d=" M 24.49 84.76 C 28.04 84.53 31.43 85.91 34.93 86.28 C 38.75 86.66 42.16 88.49 45.30 90.59 C 45.79 90.38 46.78 89.94 47.27 89.73 C 47.34 90.11 47.49 90.87 47.56 91.25 C 46.62 92.28 44.90 93.16 45.13 94.80 C 45.54 94.83 46.37 94.88 46.78 94.91 C 48.04 94.97 49.26 95.24 50.44 95.71 C 48.93 97.24 47.16 98.48 45.28 99.52 C 48.61 100.93 52.21 101.12 55.77 100.79 C 54.75 105.31 56.35 110.95 52.25 114.29 C 48.03 119.32 41.42 120.69 35.88 123.65 C 38.00 124.57 40.20 125.40 42.53 125.61 C 46.47 126.04 50.43 126.08 54.38 126.37 C 49.99 127.32 45.47 127.10 41.01 126.99 C 38.61 126.46 36.33 125.50 33.97 124.82 C 33.79 124.74 33.44 124.57 33.27 124.49 C 31.64 123.70 30.04 122.84 28.55 121.81 C 27.48 120.94 26.45 120.03 25.44 119.09 L 24.48 118.17 C 29.44 116.83 34.89 117.23 39.39 114.40 C 42.48 113.18 42.94 109.29 42.54 106.41 C 41.24 102.04 38.03 97.99 33.66 96.42 C 30.70 95.87 27.67 95.76 24.72 95.13 L 25.09 94.30 C 25.75 92.92 25.98 91.40 26.13 89.89 C 25.69 88.15 25.16 86.43 24.49 84.76 Z" />
</g>
<g id="#f1b84cff">
<path fill="#f1b84c" opacity="1.00" d=" M 84.23 85.02 C 85.40 87.05 86.80 88.93 88.17 90.83 C 89.26 92.84 90.44 94.84 91.13 97.04 C 91.16 97.70 91.22 99.02 91.25 99.68 C 85.13 98.24 78.68 98.65 72.62 100.20 C 73.48 98.16 74.36 96.13 75.25 94.10 C 75.47 93.66 75.91 92.78 76.13 92.34 C 77.29 90.80 78.46 89.22 79.97 88.00 C 81.39 86.92 83.99 87.22 84.23 85.02 Z" />
</g>
<g id="#b28737fc">
<path fill="#b28737" opacity="1.00" d=" M 14.46 98.20 C 15.31 94.23 19.28 92.08 21.73 89.14 C 22.43 91.11 23.62 92.83 25.09 94.30 L 24.72 95.13 C 24.56 95.49 24.23 96.21 24.07 96.58 C 22.94 95.38 21.85 94.15 20.78 92.90 C 19.65 93.46 18.55 94.09 17.56 94.88 C 18.72 95.89 19.88 96.90 21.04 97.92 C 19.37 98.15 17.70 98.38 16.03 98.58 C 16.08 99.02 16.17 99.90 16.22 100.34 C 14.60 105.41 15.17 111.10 16.84 116.08 C 19.18 116.85 21.64 117.13 24.02 117.73 L 24.48 118.17 L 25.44 119.09 C 20.23 119.07 15.12 117.73 9.89 118.10 C 8.57 117.74 7.25 117.39 5.93 117.04 C 5.88 117.32 5.78 117.88 5.73 118.16 L 5.64 118.64 C 5.09 117.50 4.58 116.35 4.07 115.19 C 5.35 115.28 6.63 115.39 7.90 115.52 C 10.06 115.77 12.21 116.10 14.36 116.41 C 13.59 110.81 13.75 105.16 13.67 99.53 C 11.81 98.92 9.95 98.33 8.13 97.61 C 7.65 97.36 6.68 96.86 6.19 96.62 C 7.72 96.34 9.26 95.94 10.82 96.25 C 12.05 96.87 13.25 97.54 14.46 98.20 Z" />
</g>
<g id="#dab481ff">
<path fill="#dab481" opacity="1.00" d=" M 21.73 89.14 C 23.28 88.75 24.73 89.27 26.13 89.89 C 25.98 91.40 25.75 92.92 25.09 94.30 C 23.62 92.83 22.43 91.11 21.73 89.14 Z" />
</g>
<g id="#d3a96dff">
<path fill="#d3a96d" opacity="1.00" d=" M 45.13 94.80 C 44.90 93.16 46.62 92.28 47.56 91.25 C 47.93 92.49 47.99 94.08 46.78 94.91 C 46.37 94.88 45.54 94.83 45.13 94.80 Z" />
</g>
<g id="#e2c18dff">
<path fill="#e2c18d" opacity="1.00" d=" M 17.56 94.88 C 18.55 94.09 19.65 93.46 20.78 92.90 C 21.85 94.15 22.94 95.38 24.07 96.58 C 24.03 97.62 24.01 98.67 24.00 99.72 C 21.36 99.24 18.70 98.86 16.03 98.58 C 17.70 98.38 19.37 98.15 21.04 97.92 C 19.88 96.90 18.72 95.89 17.56 94.88 Z" />
</g>
<g id="#a38034f8">
<path fill="#a38034" opacity="0.97" d=" M 73.19 94.94 C 73.77 94.31 74.35 93.69 74.94 93.07 L 75.25 94.10 C 74.36 96.13 73.48 98.16 72.62 100.20 C 78.68 98.65 85.13 98.24 91.25 99.68 C 91.22 99.02 91.16 97.70 91.13 97.04 C 92.52 100.23 92.75 103.73 92.89 107.17 C 92.61 105.46 92.21 103.78 91.76 102.12 L 90.93 101.61 C 89.53 101.22 88.11 100.91 86.69 100.59 C 86.48 106.41 87.02 112.25 86.27 118.05 C 87.81 118.12 89.35 118.19 90.89 118.26 C 90.51 118.92 90.11 119.57 89.70 120.20 C 86.20 120.66 82.68 120.92 79.16 121.17 C 75.58 121.45 71.98 121.25 68.45 120.56 C 70.36 120.06 72.24 119.46 74.15 118.99 C 77.36 118.66 80.58 118.54 83.80 118.59 C 85.40 112.79 85.27 106.63 84.99 100.67 C 80.80 100.66 76.47 100.73 72.55 102.42 C 72.37 102.78 72.01 103.51 71.83 103.87 C 71.34 104.75 70.73 105.61 69.59 105.31 C 70.85 101.88 71.94 98.38 73.19 94.94 Z" />
</g>
<g id="#cb9539ff">
<path fill="#cb9539" opacity="1.00" d=" M 61.15 94.30 C 61.75 95.97 62.26 97.66 62.81 99.35 C 59.12 100.60 55.16 100.62 51.38 99.79 C 51.23 98.53 51.07 97.27 50.89 96.02 C 53.80 98.76 58.90 97.13 61.15 94.30 Z" />
</g>
<g id="#ffeaabff">
<path fill="#ffeaab" opacity="1.00" d=" M 24.72 95.13 C 27.67 95.76 30.70 95.87 33.66 96.42 C 38.03 97.99 41.24 102.04 42.54 106.41 C 42.94 109.29 42.48 113.18 39.39 114.40 C 34.89 117.23 29.44 116.83 24.48 118.17 L 24.02 117.73 C 19.22 113.18 17.47 106.61 16.22 100.34 C 16.17 99.90 16.08 99.02 16.03 98.58 C 18.70 98.86 21.36 99.24 24.00 99.72 C 24.01 98.67 24.03 97.62 24.07 96.58 C 24.23 96.21 24.56 95.49 24.72 95.13 Z" />
</g>
<g id="#d7b379ff">
<path fill="#d7b379" opacity="1.00" d=" M 65.78 98.31 C 68.35 97.41 70.89 96.40 73.19 94.94 C 71.94 98.38 70.85 101.88 69.59 105.31 C 67.47 111.47 65.24 117.59 62.46 123.47 C 62.04 124.63 60.89 125.18 59.91 125.78 C 53.85 127.66 47.25 128.54 41.01 126.99 C 45.47 127.10 49.99 127.32 54.38 126.37 C 50.43 126.08 46.47 126.04 42.53 125.61 C 47.07 121.60 53.61 120.32 57.29 115.21 C 59.72 111.67 62.48 107.25 61.39 102.79 C 61.03 99.99 57.70 100.95 55.77 100.79 C 52.21 101.12 48.61 100.93 45.28 99.52 C 47.16 98.48 48.93 97.24 50.44 95.71 L 50.89 96.02 C 51.07 97.27 51.23 98.53 51.38 99.79 C 55.16 100.62 59.12 100.60 62.81 99.35 C 63.56 99.09 65.04 98.57 65.78 98.31 Z" />
</g>
<g id="#ffde5dff">
<path fill="#ffde5d" opacity="1.00" d=" M 5.61 96.31 L 5.78 96.40 C 5.88 96.45 6.09 96.56 6.19 96.62 C 6.68 96.86 7.65 97.36 8.13 97.61 C 6.21 103.44 5.52 109.70 7.90 115.52 C 6.63 115.39 5.35 115.28 4.07 115.19 C 1.66 109.12 2.88 102.09 5.61 96.31 Z" />
</g>
<g id="#f7c353ff">
<path fill="#f7c353" opacity="1.00" d=" M 8.13 97.61 C 9.95 98.33 11.81 98.92 13.67 99.53 C 13.75 105.16 13.59 110.81 14.36 116.41 C 12.21 116.10 10.06 115.77 7.90 115.52 C 5.52 109.70 6.21 103.44 8.13 97.61 Z" />
</g>
<g id="#e8b44aff">
<path fill="#e8b44a" opacity="1.00" d=" M 16.84 116.08 C 15.17 111.10 14.60 105.41 16.22 100.34 C 17.47 106.61 19.22 113.18 24.02 117.73 C 21.64 117.13 19.18 116.85 16.84 116.08 Z" />
</g>
<g id="#e5c78dff">
<path fill="#e5c78d" opacity="1.00" d=" M 55.77 100.79 C 57.70 100.95 61.03 99.99 61.39 102.79 C 62.48 107.25 59.72 111.67 57.29 115.21 C 53.61 120.32 47.07 121.60 42.53 125.61 C 40.20 125.40 38.00 124.57 35.88 123.65 C 41.42 120.69 48.03 119.32 52.25 114.29 C 56.35 110.95 54.75 105.31 55.77 100.79 Z" />
</g>
<g id="#efbe51ff">
<path fill="#efbe51" opacity="1.00" d=" M 72.55 102.42 C 76.47 100.73 80.80 100.66 84.99 100.67 C 85.27 106.63 85.40 112.79 83.80 118.59 C 80.58 118.54 77.36 118.66 74.15 118.99 C 72.64 119.07 71.13 119.14 69.63 119.20 C 70.10 114.05 71.30 109.01 71.83 103.87 C 72.01 103.51 72.37 102.78 72.55 102.42 Z" />
</g>
<g id="#d5a544fe">
<path fill="#d5a544" opacity="1.00" d=" M 86.27 118.05 C 87.02 112.25 86.48 106.41 86.69 100.59 C 88.11 100.91 89.53 101.22 90.93 101.61 C 91.09 106.27 90.89 110.93 90.89 115.59 C 92.56 113.38 92.11 110.32 92.82 107.73 C 93.10 111.35 92.18 114.91 90.89 118.26 C 89.35 118.19 87.81 118.12 86.27 118.05 Z" />
</g>
<g id="#ecbf4cfe">
<path fill="#ecbf4c" opacity="1.00" d=" M 90.93 101.61 L 91.76 102.12 C 92.21 103.78 92.61 105.46 92.89 107.17 L 92.82 107.73 C 92.11 110.32 92.56 113.38 90.89 115.59 C 90.89 110.93 91.09 106.27 90.93 101.61 Z" />
</g>
<g id="#b58f40f3">
<path fill="#b58f40" opacity="0.95" d=" M 69.59 105.31 C 70.73 105.61 71.34 104.75 71.83 103.87 C 71.30 109.01 70.10 114.05 69.63 119.20 C 71.13 119.14 72.64 119.07 74.15 118.99 C 72.24 119.46 70.36 120.06 68.45 120.56 C 65.62 120.40 63.41 122.07 63.87 125.08 C 62.50 125.01 61.18 125.24 59.91 125.78 C 60.89 125.18 62.04 124.63 62.46 123.47 C 65.24 117.59 67.47 111.47 69.59 105.31 M 65.98 119.32 C 69.69 119.08 68.74 114.06 69.17 111.44 C 67.20 113.58 67.00 116.69 65.98 119.32 Z" />
</g>
<g id="#f4be50ff">
<path fill="#f4be50" opacity="1.00" d=" M 65.98 119.32 C 67.00 116.69 67.20 113.58 69.17 111.44 C 68.74 114.06 69.69 119.08 65.98 119.32 Z" />
</g>
<g id="#d29b3eff">
<path fill="#d29b3e" opacity="1.00" d=" M 9.89 118.10 C 15.12 117.73 20.23 119.07 25.44 119.09 C 26.45 120.03 27.48 120.94 28.55 121.81 C 25.40 123.51 21.13 124.21 19.52 127.81 C 18.84 127.74 18.17 127.67 17.51 127.61 C 14.86 126.35 12.25 124.99 9.96 123.16 C 10.52 121.96 11.07 120.77 11.63 119.58 C 11.06 119.08 10.47 118.59 9.89 118.10 Z" />
</g>
<g id="#c89339ff">
<path fill="#c89339" opacity="1.00" d=" M 79.16 121.17 C 82.68 120.92 86.20 120.66 89.70 120.20 C 88.14 123.06 85.94 125.84 82.94 127.22 C 79.07 128.03 76.25 132.20 71.95 130.94 C 70.66 130.43 67.82 130.26 68.41 128.28 C 71.76 125.78 75.88 124.66 79.55 122.73 C 79.45 122.34 79.25 121.56 79.16 121.17 Z" />
</g>
<g id="#ebad45ff">
<path fill="#ebad45" opacity="1.00" d=" M 63.87 125.08 C 63.41 122.07 65.62 120.40 68.45 120.56 C 71.98 121.25 75.58 121.45 79.16 121.17 C 79.25 121.56 79.45 122.34 79.55 122.73 C 75.88 124.66 71.76 125.78 68.41 128.28 C 67.82 130.26 70.66 130.43 71.95 130.94 C 76.25 132.20 79.07 128.03 82.94 127.22 C 82.01 127.91 80.99 128.45 80.00 129.04 C 82.02 131.72 82.74 135.96 79.62 138.16 C 78.98 136.87 78.74 135.27 77.55 134.33 C 76.52 134.77 75.62 135.45 74.69 136.07 C 73.70 135.57 72.71 135.06 71.73 134.56 C 70.19 135.10 69.36 136.35 68.94 137.87 C 68.50 137.63 67.62 137.13 67.18 136.88 C 65.05 134.54 64.45 131.18 66.98 128.83 C 66.03 127.99 65.06 127.16 64.07 126.37 L 63.87 125.08 Z" />
</g>
<g id="#cb8e34ff">
<path fill="#cb8e34" opacity="1.00" d=" M 33.27 124.49 C 33.44 124.57 33.79 124.74 33.97 124.82 C 36.54 126.64 38.05 130.83 34.87 132.86 C 29.64 133.68 24.29 135.71 19.01 134.75 C 22.45 132.51 26.08 130.57 29.73 128.69 C 29.54 128.44 29.16 127.93 28.96 127.67 C 30.64 126.98 32.11 125.89 33.27 124.49 Z" />
</g>
<g id="#e7a33fff">
<path fill="#e7a33f" opacity="1.00" d=" M 17.51 127.61 C 18.17 127.67 18.84 127.74 19.52 127.81 C 22.66 128.25 25.83 128.07 28.96 127.67 C 29.16 127.93 29.54 128.44 29.73 128.69 C 26.08 130.57 22.45 132.51 19.01 134.75 L 18.81 134.30 C 18.49 133.56 18.16 132.83 17.81 132.11 C 15.92 132.05 13.99 131.86 12.45 130.65 C 13.58 128.90 15.72 128.39 17.51 127.61 Z" />
</g>
<g id="#e5ba8bff">
<path fill="#e5ba8b" opacity="1.00" d=" M 8.82 135.59 C 9.57 133.64 11.10 132.19 12.45 130.65 C 13.99 131.86 15.92 132.05 17.81 132.11 C 18.16 132.83 18.49 133.56 18.81 134.30 L 18.64 135.41 C 15.37 135.53 12.09 136.09 8.82 135.59 Z" />
</g>
<g id="#f4d09cff">
<path fill="#f4d09c" opacity="1.00" d=" M 74.69 136.07 C 75.62 135.45 76.52 134.77 77.55 134.33 C 78.74 135.27 78.98 136.87 79.62 138.16 C 76.19 139.73 72.34 139.25 68.94 137.87 C 69.36 136.35 70.19 135.10 71.73 134.56 C 72.71 135.06 73.70 135.57 74.69 136.07 Z" />
</g>
</svg>
