<?xml version="1.0" encoding="UTF-8" ?>
<!DOCTYPE svg PUBLIC "-//W3C//DTD SVG 1.1//EN" "http://www.w3.org/Graphics/SVG/1.1/DTD/svg11.dtd">
<svg width="137pt" height="152pt" viewBox="0 0 137 152" version="1.1" xmlns="http://www.w3.org/2000/svg">
<g id="#ba7e25fc">
<path fill="#ba7e25" opacity="1.00" d=" M 50.96 13.03 C 54.68 7.04 61.67 4.10 68.06 2.00 L 68.25 3.13 C 67.85 4.46 67.27 5.71 66.53 6.88 C 63.08 11.42 61.14 17.11 56.69 20.82 C 54.29 21.26 51.96 21.11 49.70 20.39 C 51.68 17.17 55.29 14.75 56.09 10.94 C 54.32 11.48 52.68 12.36 50.96 13.03 Z" />
</g>
<g id="#b77d25fb">
<path fill="#b77d25" opacity="1.00" d=" M 34.16 15.09 C 35.92 10.86 36.72 5.41 40.93 2.90 C 42.35 5.03 43.26 7.27 43.66 9.63 C 42.82 14.14 46.25 18.83 43.80 23.19 C 42.79 21.33 41.64 18.77 40.38 21.88 C 36.74 20.40 35.37 25.93 32.31 26.97 C 31.95 25.88 31.59 24.80 31.22 23.72 C 29.86 20.32 33.76 18.26 34.16 15.09 Z" />
</g>
<g id="#9a651dfe">
<path fill="#9a651d" opacity="1.00" d=" M 68.25 3.13 L 69.06 2.92 C 69.03 5.70 68.96 11.26 68.92 14.04 C 68.45 13.80 67.51 13.32 67.05 13.08 C 65.45 16.21 64.46 19.66 64.00 23.14 C 63.73 23.97 63.45 24.78 63.15 25.59 C 61.61 27.92 60.29 30.39 58.72 32.70 C 56.49 34.34 53.73 34.40 51.20 35.13 C 49.45 35.76 47.72 36.46 45.91 36.94 C 45.76 35.41 45.44 32.35 45.28 30.82 C 45.07 29.55 44.82 28.29 44.54 27.03 C 47.89 25.05 52.11 29.01 54.41 31.66 C 55.58 33.21 56.18 30.41 56.58 29.65 C 59.35 21.87 65.61 15.20 66.53 6.88 C 67.27 5.71 67.85 4.46 68.25 3.13 Z" />
</g>
<g id="#a97121fe">
<path fill="#a97121" opacity="1.00" d=" M 66.53 6.88 C 65.61 15.20 59.35 21.87 56.58 29.65 C 56.18 30.41 55.58 33.21 54.41 31.66 C 52.11 29.01 47.89 25.05 44.54 27.03 C 44.23 25.76 44.01 24.48 43.80 23.19 C 46.25 18.83 42.82 14.14 43.66 9.63 C 45.95 10.69 46.06 13.78 45.98 16.00 C 45.43 18.62 46.54 22.11 49.70 20.39 C 51.96 21.11 54.29 21.26 56.69 20.82 C 61.14 17.11 63.08 11.42 66.53 6.88 Z" />
</g>
<g id="#925918f8">
<path fill="#925918" opacity="0.97" d=" M 50.96 13.03 C 52.68 12.36 54.32 11.48 56.09 10.94 C 55.29 14.75 51.68 17.17 49.70 20.39 C 46.54 22.11 45.43 18.62 45.98 16.00 C 48.27 15.11 45.79 19.92 47.78 18.78 C 48.38 16.71 48.58 13.84 50.96 13.03 Z" />
</g>
<g id="#774814fc">
<path fill="#774814" opacity="1.00" d=" M 67.05 13.08 C 67.51 13.32 68.45 13.80 68.92 14.04 C 69.16 14.34 69.62 14.93 69.86 15.22 C 69.48 16.52 69.25 17.85 69.09 19.19 C 67.52 20.66 65.72 21.86 64.00 23.14 C 64.46 19.66 65.45 16.21 67.05 13.08 Z" />
</g>
<g id="#a86f22f3">
<path fill="#a86f22" opacity="0.95" d=" M 69.86 15.22 C 72.49 14.30 76.53 11.18 76.91 15.89 C 74.31 17.00 71.69 18.09 69.09 19.19 C 69.25 17.85 69.48 16.52 69.86 15.22 Z" />
</g>
<g id="#7a7332b0">
<path fill="#7a7332" opacity="0.69" d=" M 18.08 14.05 C 18.50 14.20 19.35 14.50 19.78 14.65 C 19.57 16.23 19.15 19.39 18.94 20.97 C 16.82 20.47 18.43 16.09 18.08 14.05 Z" />
</g>
<g id="#f3c755fe">
<path fill="#f3c755" opacity="1.00" d=" M 76.91 15.89 C 79.01 14.93 84.70 11.77 84.05 16.11 C 83.24 17.64 82.47 19.19 81.72 20.74 L 81.10 21.21 C 79.05 23.04 77.10 24.99 75.25 27.05 C 70.36 28.35 66.64 32.25 61.89 33.98 C 62.64 31.23 65.11 28.41 63.15 25.59 C 63.45 24.78 63.73 23.97 64.00 23.14 C 65.72 21.86 67.52 20.66 69.09 19.19 C 71.69 18.09 74.31 17.00 76.91 15.89 Z" />
</g>
<g id="#a46c20f9">
<path fill="#a46c20" opacity="0.98" d=" M 84.05 16.11 C 87.39 15.53 90.64 14.52 94.00 14.05 C 95.62 12.99 95.54 17.54 94.04 16.95 C 89.54 17.08 86.40 21.98 81.72 20.74 C 82.47 19.19 83.24 17.64 84.05 16.11 Z" />
</g>
<g id="#f2c856fe">
<path fill="#f2c856" opacity="1.00" d=" M 18.94 20.97 C 19.15 19.39 19.57 16.23 19.78 14.65 C 22.62 16.32 27.42 17.77 27.61 21.69 C 27.26 25.29 26.07 31.84 30.46 33.66 C 35.32 36.21 31.27 46.42 37.97 47.07 C 38.03 43.27 37.09 39.58 35.94 36.01 C 36.34 31.04 38.96 26.59 40.38 21.88 C 41.64 18.77 42.79 21.33 43.80 23.19 C 44.01 24.48 44.23 25.76 44.54 27.03 C 44.82 28.29 45.07 29.55 45.28 30.82 C 43.51 35.94 41.18 41.21 42.14 46.78 C 44.91 49.96 49.81 45.90 50.57 42.65 C 51.67 40.70 51.79 36.50 54.83 37.05 C 56.35 39.02 56.63 41.60 57.15 43.96 C 55.28 44.84 53.49 45.89 51.85 47.15 C 50.63 48.21 49.68 49.68 49.14 51.20 C 48.70 52.77 48.28 54.34 47.86 55.92 C 46.99 60.06 46.02 64.26 43.85 67.95 C 42.54 68.05 41.23 68.01 39.93 67.83 C 42.49 63.70 45.95 59.32 45.86 54.23 C 42.78 51.26 38.37 49.74 34.24 49.02 C 34.13 49.49 33.92 50.42 33.82 50.89 C 33.32 50.90 32.33 50.93 31.84 50.94 C 31.62 48.69 31.33 46.44 29.64 44.76 C 28.32 42.24 28.89 38.67 26.85 36.65 C 25.95 35.90 24.92 35.32 23.95 34.66 C 23.40 33.49 22.94 32.28 22.30 31.15 C 20.44 28.09 18.71 24.66 18.94 20.97 Z" />
</g>
<g id="#8c5a1bfd">
<path fill="#8c5a1b" opacity="1.00" d=" M 81.72 20.74 C 86.40 21.98 89.54 17.08 94.04 16.95 C 93.85 19.20 92.06 20.84 90.92 22.66 C 87.01 22.29 83.90 26.28 79.75 24.82 C 80.20 23.62 80.65 22.41 81.10 21.21 L 81.72 20.74 Z" />
</g>
<g id="#aa7221fe">
<path fill="#aa7221" opacity="1.00" d=" M 32.31 26.97 C 35.37 25.93 36.74 20.40 40.38 21.88 C 38.96 26.59 36.34 31.04 35.94 36.01 C 30.92 34.09 30.80 28.38 29.20 23.93 C 29.71 23.88 30.71 23.77 31.22 23.72 C 31.59 24.80 31.95 25.88 32.31 26.97 Z" />
</g>
<g id="#c8993bff">
<path fill="#c8993b" opacity="1.00" d=" M 75.25 27.05 C 77.10 24.99 79.05 23.04 81.10 21.21 C 80.65 22.41 80.20 23.62 79.75 24.82 C 78.69 26.10 77.76 27.48 76.80 28.84 C 75.40 30.13 74.05 31.49 72.76 32.89 C 71.11 34.56 69.41 36.42 66.81 35.95 L 65.85 35.98 C 68.78 32.80 73.49 31.10 75.25 27.05 Z" />
</g>
<g id="#e3b44afe">
<path fill="#e3b44a" opacity="1.00" d=" M 30.46 33.66 C 26.07 31.84 27.26 25.29 27.61 21.69 C 28.01 22.25 28.80 23.37 29.20 23.93 C 30.80 28.38 30.92 34.09 35.94 36.01 C 37.09 39.58 38.03 43.27 37.97 47.07 C 31.27 46.42 35.32 36.21 30.46 33.66 Z" />
</g>
<g id="#7a4a15fd">
<path fill="#7a4a15" opacity="1.00" d=" M 79.75 24.82 C 83.90 26.28 87.01 22.29 90.92 22.66 C 90.62 24.33 89.49 25.70 88.65 27.13 C 88.37 27.60 87.82 28.54 87.54 29.01 C 85.51 31.93 92.35 30.59 90.92 33.73 C 88.91 34.14 86.90 34.55 84.91 35.03 C 85.52 32.76 85.47 30.38 85.83 28.07 C 82.81 28.25 79.80 28.61 76.80 28.84 C 77.76 27.48 78.69 26.10 79.75 24.82 Z" />
</g>
<g id="#e3b54bff">
<path fill="#e3b54b" opacity="1.00" d=" M 58.72 32.70 C 60.29 30.39 61.61 27.92 63.15 25.59 C 65.11 28.41 62.64 31.23 61.89 33.98 C 66.64 32.25 70.36 28.35 75.25 27.05 C 73.49 31.10 68.78 32.80 65.85 35.98 C 64.87 36.33 63.88 36.66 62.88 36.97 C 61.61 37.33 60.35 37.74 59.11 38.21 C 59.37 39.84 59.89 41.41 60.29 43.00 C 59.25 43.33 58.20 43.65 57.15 43.96 C 56.63 41.60 56.35 39.02 54.83 37.05 C 51.79 36.50 51.67 40.70 50.57 42.65 C 49.81 45.90 44.91 49.96 42.14 46.78 C 41.18 41.21 43.51 35.94 45.28 30.82 C 45.44 32.35 45.76 35.41 45.91 36.94 C 45.64 39.39 41.66 45.55 46.89 43.94 C 48.53 41.11 49.93 38.14 51.20 35.13 C 53.73 34.40 56.49 34.34 58.72 32.70 Z" />
</g>
<g id="#2417066c">
<path fill="#241706" opacity="0.42" d=" M 87.54 29.01 C 87.82 28.54 88.37 27.60 88.65 27.13 C 92.05 27.90 95.53 28.02 99.00 28.07 L 99.00 29.01 C 95.17 29.01 91.36 29.02 87.54 29.01 Z" />
</g>
<g id="#6a3c10ff">
<path fill="#6a3c10" opacity="1.00" d=" M 76.80 28.84 C 79.80 28.61 82.81 28.25 85.83 28.07 C 85.47 30.38 85.52 32.76 84.91 35.03 C 80.53 34.11 77.84 40.40 80.70 43.30 C 84.47 46.25 89.73 44.23 94.06 45.12 C 93.89 46.80 93.38 48.41 92.94 50.03 C 90.34 49.97 87.75 49.87 85.17 49.74 C 83.66 49.48 80.64 48.96 79.13 48.70 C 77.03 47.58 74.81 46.54 73.14 44.79 C 72.71 39.11 79.73 37.53 81.08 32.99 C 78.30 33.28 75.32 34.73 72.76 32.89 C 74.05 31.49 75.40 30.13 76.80 28.84 Z" />
</g>
<g id="#0b070239">
<path fill="#0b0702" opacity="0.22" d=" M 99.00 28.07 C 101.42 28.47 106.16 26.74 107.04 29.05 C 104.36 29.02 101.67 29.00 99.00 29.01 L 99.00 28.07 Z" />
</g>
<g id="#8e5a1afd">
<path fill="#8e5a1a" opacity="1.00" d=" M 90.92 33.73 C 92.35 30.59 85.51 31.93 87.54 29.01 C 94.66 30.40 102.18 30.56 109.33 29.35 C 111.06 28.56 109.40 31.50 109.47 32.32 C 109.45 35.63 106.53 37.43 104.01 38.89 C 98.71 39.05 93.56 41.65 88.21 40.88 C 86.84 39.10 85.67 37.14 84.91 35.03 C 86.90 34.55 88.91 34.14 90.92 33.73 Z" />
</g>
<g id="#b57321ff">
<path fill="#b57321" opacity="1.00" d=" M 87.54 29.01 C 91.36 29.02 95.17 29.01 99.00 29.01 C 101.67 29.00 104.36 29.02 107.04 29.05 C 107.61 29.12 108.76 29.28 109.33 29.35 C 102.18 30.56 94.66 30.40 87.54 29.01 Z" />
</g>
<g id="#c08025fb">
<path fill="#c08025" opacity="1.00" d=" M 22.30 31.15 C 22.94 32.28 23.40 33.49 23.95 34.66 C 22.16 35.98 21.89 38.18 21.36 40.18 C 19.96 37.71 17.80 35.22 18.02 32.21 C 19.47 31.95 20.97 31.84 22.30 31.15 Z" />
</g>
<g id="#5a2e0bff">
<path fill="#5a2e0b" opacity="1.00" d=" M 66.81 35.95 C 69.41 36.42 71.11 34.56 72.76 32.89 C 75.32 34.73 78.30 33.28 81.08 32.99 C 79.73 37.53 72.71 39.11 73.14 44.79 C 74.81 46.54 77.03 47.58 79.13 48.70 C 78.02 48.96 76.93 49.30 75.87 49.72 C 74.20 50.35 72.54 51.02 70.93 51.80 C 69.22 52.15 67.38 54.09 65.66 53.10 C 65.81 52.63 66.10 51.69 66.25 51.22 C 68.44 46.22 65.31 40.92 66.81 35.95 Z" />
</g>
<g id="#985f1cfa">
<path fill="#985f1c" opacity="0.98" d=" M 21.36 40.18 C 21.89 38.18 22.16 35.98 23.95 34.66 C 24.92 35.32 25.95 35.90 26.85 36.65 C 25.59 39.39 24.92 42.34 24.22 45.26 C 22.62 44.24 21.78 41.98 21.36 40.18 Z" />
</g>
<g id="#d6a744ff">
<path fill="#d6a744" opacity="1.00" d=" M 45.91 36.94 C 47.72 36.46 49.45 35.76 51.20 35.13 C 49.93 38.14 48.53 41.11 46.89 43.94 C 41.66 45.55 45.64 39.39 45.91 36.94 Z" />
</g>
<g id="#7a4915fe">
<path fill="#7a4915" opacity="1.00" d=" M 80.70 43.30 C 77.84 40.40 80.53 34.11 84.91 35.03 C 85.67 37.14 86.84 39.10 88.21 40.88 C 93.56 41.65 98.71 39.05 104.01 38.89 C 101.82 41.67 97.94 43.27 96.61 46.86 L 95.66 47.16 C 93.98 47.54 95.78 49.97 95.85 51.13 C 94.87 50.78 93.90 50.41 92.94 50.03 C 93.38 48.41 93.89 46.80 94.06 45.12 C 89.73 44.23 84.47 46.25 80.70 43.30 Z" />
</g>
<g id="#b28333ff">
<path fill="#b28333" opacity="1.00" d=" M 62.88 36.97 C 63.88 36.66 64.87 36.33 65.85 35.98 L 66.81 35.95 C 65.31 40.92 68.44 46.22 66.25 51.22 C 65.85 49.62 66.70 46.93 64.40 46.66 C 63.31 45.77 62.16 46.38 61.11 46.94 C 61.16 45.54 61.27 44.15 61.26 42.74 C 63.49 41.56 61.95 38.88 62.88 36.97 Z" />
</g>
<g id="#7f4c17fe">
<path fill="#7f4c17" opacity="1.00" d=" M 24.22 45.26 C 24.92 42.34 25.59 39.39 26.85 36.65 C 28.89 38.67 28.32 42.24 29.64 44.76 C 28.67 47.11 29.58 49.55 30.01 51.91 C 30.20 52.89 30.41 53.87 30.64 54.85 C 30.74 60.54 24.41 61.58 20.07 63.11 C 18.46 62.38 15.64 62.72 14.92 60.99 C 16.86 60.26 18.85 59.64 20.70 58.68 C 23.97 56.66 22.98 52.07 25.27 49.23 C 25.44 48.92 25.78 48.28 25.95 47.97 C 25.60 46.92 24.46 46.34 24.22 45.26 Z" />
</g>
<g id="#d2a241ff">
<path fill="#d2a241" opacity="1.00" d=" M 59.11 38.21 C 60.35 37.74 61.61 37.33 62.88 36.97 C 61.95 38.88 63.49 41.56 61.26 42.74 L 60.29 43.00 C 59.89 41.41 59.37 39.84 59.11 38.21 Z" />
</g>
<g id="#181d1aff">
<path fill="#181d1a" opacity="1.00" d=" M 57.15 43.96 C 58.20 43.65 59.25 43.33 60.29 43.00 L 61.26 42.74 C 61.27 44.15 61.16 45.54 61.11 46.94 C 61.81 50.74 58.77 53.07 55.90 54.81 C 53.23 55.23 50.58 55.87 47.86 55.92 C 48.28 54.34 48.70 52.77 49.14 51.20 C 51.56 52.75 54.04 51.51 55.17 49.07 C 54.56 47.82 52.92 47.82 51.85 47.15 C 53.49 45.89 55.28 44.84 57.15 43.96 Z" />
</g>
<g id="#4e514dff">
<path fill="#4e514d" opacity="1.00" d=" M 30.01 51.91 C 29.58 49.55 28.67 47.11 29.64 44.76 C 31.33 46.44 31.62 48.69 31.84 50.94 C 31.55 51.25 30.98 51.87 30.69 52.18 L 30.01 51.91 Z" />
</g>
<g id="#c0a067ff">
<path fill="#c0a067" opacity="1.00" d=" M 61.11 46.94 C 62.16 46.38 63.31 45.77 64.40 46.66 C 63.94 51.43 61.46 55.75 57.74 58.75 C 55.09 59.71 57.00 62.04 57.28 63.71 C 61.00 66.97 66.11 68.96 68.07 73.84 C 68.06 74.39 68.04 75.48 68.03 76.03 C 64.34 75.57 64.10 70.45 61.15 68.84 C 57.70 67.48 53.11 61.85 49.67 66.06 C 48.53 66.90 47.39 67.77 46.01 68.18 C 47.83 62.20 54.94 60.35 57.96 55.12 C 57.45 55.04 56.42 54.89 55.90 54.81 C 58.77 53.07 61.81 50.74 61.11 46.94 Z" />
</g>
<g id="#878274ff">
<path fill="#878274" opacity="1.00" d=" M 49.14 51.20 C 49.68 49.68 50.63 48.21 51.85 47.15 C 52.92 47.82 54.56 47.82 55.17 49.07 C 54.04 51.51 51.56 52.75 49.14 51.20 Z" />
</g>
<g id="#b7955cff">
<path fill="#b7955c" opacity="1.00" d=" M 64.40 46.66 C 66.70 46.93 65.85 49.62 66.25 51.22 C 66.10 51.69 65.81 52.63 65.66 53.10 C 64.69 54.69 63.77 56.31 62.75 57.86 C 61.43 59.17 59.15 60.54 60.19 62.73 C 61.48 64.23 63.00 65.72 65.03 66.05 C 65.77 66.59 66.50 67.15 67.22 67.73 C 67.87 69.49 68.54 71.25 69.08 73.06 L 68.82 74.23 L 68.07 73.84 C 66.11 68.96 61.00 66.97 57.28 63.71 C 57.00 62.04 55.09 59.71 57.74 58.75 C 61.46 55.75 63.94 51.43 64.40 46.66 Z" />
</g>
<g id="#845118fe">
<path fill="#845118" opacity="1.00" d=" M 95.85 51.13 C 95.78 49.97 93.98 47.54 95.66 47.16 C 102.01 50.87 109.50 49.07 116.35 50.64 C 115.51 52.10 114.37 53.65 112.77 54.31 C 107.05 53.90 101.27 53.08 95.85 51.13 Z" />
</g>
<g id="#915b1bf3">
<path fill="#915b1b" opacity="0.95" d=" M 95.66 47.16 L 96.61 46.86 C 103.35 46.93 110.08 47.61 116.79 48.22 C 118.51 48.55 117.80 51.09 116.35 50.64 C 109.50 49.07 102.01 50.87 95.66 47.16 Z" />
</g>
<g id="#5f390fbd">
<path fill="#5f390f" opacity="0.74" d=" M 15.98 48.98 C 16.79 46.06 23.14 48.78 25.95 47.97 C 25.78 48.28 25.44 48.92 25.27 49.23 C 23.89 49.14 22.50 49.08 21.12 49.06 C 19.40 49.01 17.69 48.99 15.98 48.98 Z" />
</g>
<g id="#9f671ef7">
<path fill="#9f671e" opacity="0.97" d=" M 2.96 52.09 C 7.33 51.21 11.55 49.46 15.98 48.98 C 17.69 48.99 19.40 49.01 21.12 49.06 C 17.24 51.55 14.82 55.60 11.79 58.98 C 9.03 57.19 3.19 56.09 2.96 52.09 Z" />
</g>
<g id="#8d581afe">
<path fill="#8d581a" opacity="1.00" d=" M 21.12 49.06 C 22.50 49.08 23.89 49.14 25.27 49.23 C 22.98 52.07 23.97 56.66 20.70 58.68 C 18.85 59.64 16.86 60.26 14.92 60.99 C 13.39 61.43 12.33 60.26 11.79 58.98 C 14.82 55.60 17.24 51.55 21.12 49.06 Z" />
</g>
<g id="#fcd45dff">
<path fill="#fcd45d" opacity="1.00" d=" M 34.24 49.02 C 38.37 49.74 42.78 51.26 45.86 54.23 C 45.95 59.32 42.49 63.70 39.93 67.83 C 39.44 67.64 38.46 67.26 37.97 67.07 C 37.48 66.03 36.98 65.00 36.49 63.97 L 36.47 63.21 C 36.50 60.84 36.15 58.49 35.91 56.14 C 35.85 54.19 34.70 52.55 33.82 50.89 C 33.92 50.42 34.13 49.49 34.24 49.02 Z" />
</g>
<g id="#895519fe">
<path fill="#895519" opacity="1.00" d=" M 75.87 49.72 C 76.93 49.30 78.02 48.96 79.13 48.70 C 80.64 48.96 83.66 49.48 85.17 49.74 C 84.68 49.80 83.70 49.93 83.21 50.00 C 84.09 52.25 84.86 54.53 85.39 56.89 C 91.86 57.39 98.32 56.75 104.68 55.57 C 108.18 54.74 111.79 56.54 115.25 55.44 C 116.46 54.71 117.84 55.49 117.94 56.87 C 116.70 57.71 115.40 58.51 113.98 58.97 C 109.43 57.36 104.63 59.08 99.99 58.23 C 91.67 58.89 81.50 63.17 74.05 57.81 C 73.93 54.97 76.16 52.62 75.87 49.72 Z" />
</g>
<g id="#7d4b16fe">
<path fill="#7d4b16" opacity="1.00" d=" M 70.93 51.80 C 72.54 51.02 74.20 50.35 75.87 49.72 C 76.16 52.62 73.93 54.97 74.05 57.81 C 81.50 63.17 91.67 58.89 99.99 58.23 C 104.63 59.08 109.43 57.36 113.98 58.97 C 113.86 60.64 111.36 60.56 110.12 61.11 C 101.79 62.93 93.33 60.02 84.99 61.87 C 79.71 61.95 72.92 63.65 69.15 58.76 C 68.42 56.26 70.33 54.11 70.93 51.80 Z" />
</g>
<g id="#9a621eff">
<path fill="#9a621e" opacity="1.00" d=" M 83.21 50.00 C 83.70 49.93 84.68 49.80 85.17 49.74 C 87.75 49.87 90.34 49.97 92.94 50.03 C 93.90 50.41 94.87 50.78 95.85 51.13 C 101.27 53.08 107.05 53.90 112.77 54.31 C 113.39 54.59 114.63 55.16 115.25 55.44 C 111.79 56.54 108.18 54.74 104.68 55.57 C 98.32 56.75 91.86 57.39 85.39 56.89 C 84.86 54.53 84.09 52.25 83.21 50.00 Z" />
</g>
<g id="#3d4136ff">
<path fill="#3d4136" opacity="1.00" d=" M 30.69 52.18 C 30.98 51.87 31.55 51.25 31.84 50.94 C 32.33 50.93 33.32 50.90 33.82 50.89 C 34.70 52.55 35.85 54.19 35.91 56.14 C 34.00 55.06 32.24 53.74 30.69 52.18 Z" />
</g>
<g id="#ebe39fff">
<path fill="#ebe39f" opacity="1.00" d=" M 30.01 51.91 L 30.69 52.18 C 32.24 53.74 34.00 55.06 35.91 56.14 C 36.15 58.49 36.50 60.84 36.47 63.21 C 34.32 60.57 32.40 57.76 30.64 54.85 C 30.41 53.87 30.20 52.89 30.01 51.91 Z" />
</g>
<g id="#744313fd">
<path fill="#744313" opacity="1.00" d=" M 65.66 53.10 C 67.38 54.09 69.22 52.15 70.93 51.80 C 70.33 54.11 68.42 56.26 69.15 58.76 C 72.92 63.65 79.71 61.95 84.99 61.87 C 93.33 60.02 101.79 62.93 110.12 61.11 C 109.08 62.86 107.04 63.88 105.06 64.04 C 97.11 64.63 89.22 62.13 81.30 63.30 C 75.45 64.35 68.24 63.69 63.98 59.05 C 63.94 59.82 63.86 61.34 63.82 62.10 C 62.67 61.06 63.11 59.24 62.75 57.86 C 63.77 56.31 64.69 54.69 65.66 53.10 Z" />
</g>
<g id="#6a3d11fd">
<path fill="#6a3d11" opacity="1.00" d=" M 20.07 63.11 C 24.41 61.58 30.74 60.54 30.64 54.85 C 32.40 57.76 34.32 60.57 36.47 63.21 L 36.49 63.97 C 34.67 64.92 32.89 65.95 31.02 66.80 C 28.91 65.47 26.56 64.78 24.06 64.77 C 22.86 64.15 20.15 64.72 20.07 63.11 Z" />
</g>
<g id="#d3b579ff">
<path fill="#d3b579" opacity="1.00" d=" M 47.86 55.92 C 50.58 55.87 53.23 55.23 55.90 54.81 C 56.42 54.89 57.45 55.04 57.96 55.12 C 54.94 60.35 47.83 62.20 46.01 68.18 C 47.39 67.77 48.53 66.90 49.67 66.06 C 53.53 67.79 57.66 69.19 60.78 72.18 C 63.32 75.38 64.68 79.55 67.95 82.13 C 67.36 83.25 66.77 84.37 66.17 85.48 C 61.48 78.78 56.81 70.49 48.01 68.99 C 44.59 69.53 41.58 71.51 38.18 72.17 C 38.10 70.47 38.04 68.77 37.97 67.07 C 38.46 67.26 39.44 67.64 39.93 67.83 C 41.23 68.01 42.54 68.05 43.85 67.95 C 46.02 64.26 46.99 60.06 47.86 55.92 Z" />
</g>
<g id="#a37e49ff">
<path fill="#a37e49" opacity="1.00" d=" M 60.19 62.73 C 59.15 60.54 61.43 59.17 62.75 57.86 C 63.11 59.24 62.67 61.06 63.82 62.10 C 64.09 62.36 64.62 62.88 64.89 63.14 C 64.93 63.87 65.00 65.32 65.03 66.05 C 63.00 65.72 61.48 64.23 60.19 62.73 Z" />
</g>
<g id="#6b3c10ff">
<path fill="#6b3c10" opacity="1.00" d=" M 63.98 59.05 C 68.24 63.69 75.45 64.35 81.30 63.30 C 89.22 62.13 97.11 64.63 105.06 64.04 L 104.91 64.91 C 104.30 65.12 103.09 65.52 102.48 65.73 C 102.11 65.83 101.39 66.03 101.02 66.14 C 95.73 67.37 90.74 74.60 94.29 79.71 C 96.82 82.86 101.36 81.54 104.94 82.15 C 103.84 87.47 100.82 94.05 106.10 97.98 C 100.72 100.66 103.83 107.41 104.87 111.96 C 103.40 111.75 102.99 112.21 103.61 113.33 L 103.83 114.25 C 103.19 114.11 101.91 113.83 101.27 113.69 C 101.54 109.40 99.94 105.46 98.84 101.43 C 102.10 100.09 100.01 97.00 99.51 94.59 C 98.79 91.74 99.74 89.02 99.84 86.22 C 97.49 83.32 93.60 82.90 90.33 81.62 C 87.99 80.21 87.79 76.64 88.26 74.31 C 89.67 70.64 93.84 69.24 96.12 66.20 C 90.63 64.73 84.85 64.85 79.36 66.25 C 79.26 66.61 79.07 67.33 78.97 67.69 C 73.92 67.56 68.76 66.56 64.89 63.14 C 64.62 62.88 64.09 62.36 63.82 62.10 C 63.86 61.34 63.94 59.82 63.98 59.05 Z" />
</g>
<g id="#8e5a1aff">
<path fill="#8e5a1a" opacity="1.00" d=" M 64.89 63.14 C 68.76 66.56 73.92 67.56 78.97 67.69 C 80.13 68.72 81.25 69.81 82.10 71.12 C 77.90 72.96 74.22 71.46 70.72 69.23 C 69.56 68.70 68.39 68.22 67.22 67.73 C 66.50 67.15 65.77 66.59 65.03 66.05 C 65.00 65.32 64.93 63.87 64.89 63.14 Z" />
</g>
<g id="#895619ff">
<path fill="#895619" opacity="1.00" d=" M 36.49 63.97 C 36.98 65.00 37.48 66.03 37.97 67.07 C 38.04 68.77 38.10 70.47 38.18 72.17 C 37.93 72.43 37.42 72.94 37.17 73.20 C 37.10 72.39 36.96 70.78 36.88 69.98 C 34.80 69.35 34.36 71.51 33.94 73.02 C 31.48 71.24 28.76 69.03 25.37 70.53 C 24.07 70.94 23.41 69.68 22.60 68.94 C 23.65 67.72 28.08 65.57 24.05 65.91 L 24.06 64.77 C 26.56 64.78 28.91 65.47 31.02 66.80 C 32.89 65.95 34.67 64.92 36.49 63.97 Z" />
</g>
<g id="#c9ab72ff">
<path fill="#c9ab72" opacity="1.00" d=" M 49.67 66.06 C 53.11 61.85 57.70 67.48 61.15 68.84 C 64.10 70.45 64.34 75.57 68.03 76.03 C 68.03 78.07 67.98 80.10 67.95 82.13 C 64.68 79.55 63.32 75.38 60.78 72.18 C 57.66 69.19 53.53 67.79 49.67 66.06 Z" />
</g>
<g id="#5e320dff">
<path fill="#5e320d" opacity="1.00" d=" M 79.36 66.25 C 84.85 64.85 90.63 64.73 96.12 66.20 C 93.84 69.24 89.67 70.64 88.26 74.31 C 87.79 76.64 87.99 80.21 90.33 81.62 C 93.60 82.90 97.49 83.32 99.84 86.22 C 99.74 89.02 98.79 91.74 99.51 94.59 C 100.01 97.00 102.10 100.09 98.84 101.43 C 96.50 96.99 94.19 91.61 88.90 90.13 C 87.43 86.17 86.45 82.07 85.15 78.07 C 84.98 76.94 84.68 75.85 84.25 74.81 C 83.71 73.48 82.93 72.28 82.10 71.12 C 81.25 69.81 80.13 68.72 78.97 67.69 C 79.07 67.33 79.26 66.61 79.36 66.25 Z" />
</g>
<g id="#8e5a1afa">
<path fill="#8e5a1a" opacity="0.98" d=" M 102.48 65.73 C 103.09 65.52 104.30 65.12 104.91 64.91 C 110.43 66.16 115.96 67.33 121.53 68.36 C 123.19 72.59 130.99 69.35 131.00 73.93 C 128.82 75.43 126.49 76.42 124.04 76.90 C 119.34 75.60 114.62 78.90 109.97 77.12 C 106.80 76.91 104.94 73.05 105.76 70.13 C 105.37 68.31 103.20 67.47 102.48 65.73 Z" />
</g>
<g id="#b9751ff7">
<path fill="#b9751f" opacity="0.97" d=" M 21.28 66.68 C 21.57 65.81 22.49 65.55 24.05 65.91 C 28.08 65.57 23.65 67.72 22.60 68.94 C 22.25 69.23 21.55 69.80 21.19 70.08 C 21.27 68.95 21.40 67.82 21.28 66.68 Z" />
</g>
<g id="#734313fe">
<path fill="#734313" opacity="1.00" d=" M 94.29 79.71 C 90.74 74.60 95.73 67.37 101.02 66.14 C 98.26 68.85 98.42 73.12 98.29 76.67 C 99.65 82.72 109.08 76.77 110.23 82.88 C 110.40 83.41 110.76 84.46 110.94 84.99 L 109.99 84.93 C 109.05 84.57 108.11 84.24 107.15 83.95 C 107.41 85.75 107.86 87.55 107.58 89.37 C 104.01 94.96 111.61 94.92 112.20 98.99 L 111.70 99.87 L 110.90 99.53 C 108.69 97.91 105.98 100.25 107.33 102.68 C 108.99 105.81 110.13 112.15 104.87 111.96 C 103.83 107.41 100.72 100.66 106.10 97.98 C 100.82 94.05 103.84 87.47 104.94 82.15 C 101.36 81.54 96.82 82.86 94.29 79.71 Z" />
</g>
<g id="#7d4c16fd">
<path fill="#7d4c16" opacity="1.00" d=" M 101.02 66.14 C 101.39 66.03 102.11 65.83 102.48 65.73 C 103.20 67.47 105.37 68.31 105.76 70.13 C 104.94 73.05 106.80 76.91 109.97 77.12 C 114.62 78.90 119.34 75.60 124.04 76.90 L 123.79 77.76 C 119.33 79.42 115.13 82.89 110.23 82.88 C 109.08 76.77 99.65 82.72 98.29 76.67 C 98.42 73.12 98.26 68.85 101.02 66.14 Z" />
</g>
<g id="#d18f2af7">
<path fill="#d18f2a" opacity="0.97" d=" M 17.09 68.21 C 18.46 67.64 19.84 67.06 21.28 66.68 C 21.40 67.82 21.27 68.95 21.19 70.08 C 20.83 70.62 20.11 71.69 19.75 72.22 L 19.12 71.97 C 18.30 70.83 16.67 69.84 17.09 68.21 Z" />
</g>
<g id="#ab792bff">
<path fill="#ab792b" opacity="1.00" d=" M 67.22 67.73 C 68.39 68.22 69.56 68.70 70.72 69.23 C 71.05 70.49 71.12 71.93 72.27 72.77 C 76.26 73.44 80.24 74.22 84.25 74.81 C 84.68 75.85 84.98 76.94 85.15 78.07 C 80.11 75.47 74.49 74.56 69.08 73.06 C 68.54 71.25 67.87 69.49 67.22 67.73 Z" />
</g>
<g id="#9a6822ff">
<path fill="#9a6822" opacity="1.00" d=" M 21.19 70.08 C 21.55 69.80 22.25 69.23 22.60 68.94 C 23.41 69.68 24.07 70.94 25.37 70.53 C 28.76 69.03 31.48 71.24 33.94 73.02 C 33.57 74.54 32.96 75.99 32.35 77.43 C 31.17 76.02 30.10 74.51 28.71 73.29 C 25.83 72.63 22.51 73.61 19.75 72.22 C 20.11 71.69 20.83 70.62 21.19 70.08 Z" />
</g>
<g id="#ddc184ff">
<path fill="#ddc184" opacity="1.00" d=" M 38.18 72.17 C 41.58 71.51 44.59 69.53 48.01 68.99 C 56.81 70.49 61.48 78.78 66.17 85.48 C 65.39 87.29 64.41 89.02 63.06 90.48 C 59.69 83.58 54.94 75.87 47.01 73.99 C 43.73 75.25 40.47 76.22 36.90 75.71 C 36.97 75.09 37.10 73.83 37.17 73.20 C 37.42 72.94 37.93 72.43 38.18 72.17 Z" />
</g>
<g id="#9d6a23ff">
<path fill="#9d6a23" opacity="1.00" d=" M 70.72 69.23 C 74.22 71.46 77.90 72.96 82.10 71.12 C 82.93 72.28 83.71 73.48 84.25 74.81 C 80.24 74.22 76.26 73.44 72.27 72.77 C 71.12 71.93 71.05 70.49 70.72 69.23 Z" />
</g>
<g id="#734311fc">
<path fill="#734311" opacity="1.00" d=" M 33.94 73.02 C 34.36 71.51 34.80 69.35 36.88 69.98 C 36.96 70.78 37.10 72.39 37.17 73.20 C 37.10 73.83 36.97 75.09 36.90 75.71 L 36.75 76.55 C 36.50 77.62 36.29 78.69 36.13 79.77 C 35.50 82.26 34.82 84.73 33.94 87.14 C 32.90 85.73 32.51 81.84 30.12 83.56 L 29.22 83.97 C 29.15 83.59 29.02 82.82 28.95 82.44 C 31.33 81.96 31.61 79.32 32.35 77.43 C 32.96 75.99 33.57 74.54 33.94 73.02 Z" />
</g>
<g id="#aa792bff">
<path fill="#aa792b" opacity="1.00" d=" M 19.12 71.97 L 19.75 72.22 C 22.51 73.61 25.83 72.63 28.71 73.29 C 30.10 74.51 31.17 76.02 32.35 77.43 C 31.61 79.32 31.33 81.96 28.95 82.44 C 28.58 80.02 28.19 77.60 27.77 75.19 C 24.46 75.03 21.06 75.20 17.86 74.21 C 18.17 73.65 18.80 72.53 19.12 71.97 Z" />
</g>
<g id="#bb8b35ff">
<path fill="#bb8b35" opacity="1.00" d=" M 69.08 73.06 C 74.49 74.56 80.11 75.47 85.15 78.07 C 86.45 82.07 87.43 86.17 88.90 90.13 C 85.52 89.44 86.65 84.74 84.14 82.88 C 80.80 77.34 73.62 77.79 68.82 74.23 L 69.08 73.06 Z" />
</g>
<g id="#b78531fe">
<path fill="#b78531" opacity="1.00" d=" M 16.93 74.05 L 17.86 74.21 C 21.06 75.20 24.46 75.03 27.77 75.19 C 28.19 77.60 28.58 80.02 28.95 82.44 C 29.02 82.82 29.15 83.59 29.22 83.97 C 28.06 86.22 26.76 88.47 26.76 91.10 C 25.26 86.84 26.46 81.79 25.87 77.19 C 23.44 75.03 19.73 76.40 16.85 75.18 L 16.93 74.05 Z" />
</g>
<g id="#e7cd90ff">
<path fill="#e7cd90" opacity="1.00" d=" M 36.90 75.71 C 40.47 76.22 43.73 75.25 47.01 73.99 C 54.94 75.87 59.69 83.58 63.06 90.48 C 62.50 92.86 61.04 95.98 64.04 97.34 C 62.78 101.36 61.34 105.32 59.83 109.25 C 59.18 102.73 61.15 95.03 56.35 89.66 C 52.91 85.90 49.49 79.16 43.06 81.43 C 39.92 82.17 38.53 78.42 36.75 76.55 L 36.90 75.71 Z" />
</g>
<g id="#d3a341fe">
<path fill="#d3a341" opacity="1.00" d=" M 68.07 73.84 L 68.82 74.23 C 73.62 77.79 80.80 77.34 84.14 82.88 C 86.65 84.74 85.52 89.44 88.90 90.13 C 94.19 91.61 96.50 96.99 98.84 101.43 C 99.94 105.46 101.54 109.40 101.27 113.69 C 101.91 113.83 103.19 114.11 103.83 114.25 C 107.21 116.88 102.70 120.03 100.37 121.42 C 97.55 122.78 98.52 127.95 96.09 128.82 C 90.71 126.47 85.98 131.59 80.99 133.06 C 80.40 132.72 79.21 132.05 78.62 131.72 C 85.62 128.12 93.33 123.88 95.98 115.90 C 97.29 108.55 94.35 101.64 89.89 95.98 C 87.08 95.37 87.11 99.09 86.04 100.84 C 85.19 101.67 84.35 102.55 83.20 102.95 C 82.56 102.07 82.63 99.89 81.15 100.09 C 79.03 99.96 76.91 100.05 74.80 100.19 C 74.24 98.91 74.07 97.51 73.86 96.14 C 76.79 95.60 80.77 97.28 82.91 94.74 C 84.20 90.46 82.16 86.53 79.81 83.20 C 76.67 79.35 70.18 81.21 68.03 76.03 C 68.04 75.48 68.06 74.39 68.07 73.84 Z" />
</g>
<g id="#c29138fd">
<path fill="#c29138" opacity="1.00" d=" M 15.91 74.98 L 16.85 75.18 C 19.73 76.40 23.44 75.03 25.87 77.19 C 26.46 81.79 25.26 86.84 26.76 91.10 C 27.03 91.39 27.57 91.99 27.84 92.29 C 27.16 95.01 26.78 97.87 25.17 100.23 C 24.05 99.73 22.92 99.27 21.78 98.85 C 26.43 93.27 23.99 85.89 23.80 79.30 C 21.27 78.13 17.52 78.78 16.21 75.86 L 15.91 74.98 Z" />
</g>
<g id="#d5a443ff">
<path fill="#d5a443" opacity="1.00" d=" M 16.21 75.86 C 17.52 78.78 21.27 78.13 23.80 79.30 C 23.99 85.89 26.43 93.27 21.78 98.85 C 21.28 98.64 20.29 98.21 19.79 98.00 C 22.35 94.59 23.78 90.09 22.11 85.97 C 21.61 81.93 16.95 81.31 13.90 79.98 C 14.61 78.57 15.38 77.19 16.21 75.86 Z" />
</g>
<g id="#e6b74cff">
<path fill="#e6b74c" opacity="1.00" d=" M 68.03 76.03 C 70.18 81.21 76.67 79.35 79.81 83.20 C 82.16 86.53 84.20 90.46 82.91 94.74 C 80.77 97.28 76.79 95.60 73.86 96.14 L 73.12 95.74 C 72.79 95.48 72.13 94.95 71.80 94.68 C 74.78 93.39 80.88 93.97 77.90 88.20 C 74.93 85.67 71.22 84.23 67.95 82.13 C 67.98 80.10 68.03 78.07 68.03 76.03 Z" />
</g>
<g id="#f0d697ff">
<path fill="#f0d697" opacity="1.00" d=" M 36.13 79.77 C 36.29 78.69 36.50 77.62 36.75 76.55 C 38.53 78.42 39.92 82.17 43.06 81.43 C 49.49 79.16 52.91 85.90 56.35 89.66 C 61.15 95.03 59.18 102.73 59.83 109.25 C 59.50 110.55 59.04 111.81 58.54 113.06 L 57.91 112.37 C 53.03 116.02 47.05 119.03 40.85 117.08 C 40.55 116.78 39.96 116.18 39.66 115.88 C 39.14 114.88 38.59 113.90 38.05 112.92 C 43.41 114.13 50.18 113.20 53.75 108.68 C 54.70 104.28 54.97 99.34 52.76 95.23 C 48.97 92.70 45.13 89.74 40.31 89.66 C 38.22 86.83 38.11 82.82 36.13 79.77 Z" />
</g>
<g id="#e6b64cff">
<path fill="#e6b64c" opacity="1.00" d=" M 13.90 79.98 C 16.95 81.31 21.61 81.93 22.11 85.97 C 23.78 90.09 22.35 94.59 19.79 98.00 C 18.80 97.64 17.81 97.27 16.83 96.89 C 18.22 95.19 20.69 93.65 19.99 91.08 C 18.90 87.14 13.73 85.34 13.87 80.94 L 13.90 79.98 Z" />
</g>
<g id="#fbe3a0ff">
<path fill="#fbe3a0" opacity="1.00" d=" M 36.13 79.77 C 38.11 82.82 38.22 86.83 40.31 89.66 C 45.13 89.74 48.97 92.70 52.76 95.23 C 54.97 99.34 54.70 104.28 53.75 108.68 C 50.18 113.20 43.41 114.13 38.05 112.92 C 36.75 110.64 35.54 108.30 34.70 105.81 C 34.65 103.86 34.25 101.95 33.99 100.02 C 33.95 95.96 33.90 91.90 33.86 87.84 L 33.94 87.14 C 34.82 84.73 35.50 82.26 36.13 79.77 Z" />
</g>
<g id="#f2ca55fc">
<path fill="#f2ca55" opacity="1.00" d=" M 11.19 99.86 C 8.76 93.93 9.95 85.81 13.87 80.94 C 13.73 85.34 18.90 87.14 19.99 91.08 C 20.69 93.65 18.22 95.19 16.83 96.89 C 14.01 96.40 13.70 97.90 14.80 100.12 C 14.12 100.08 12.75 99.99 12.07 99.95 L 11.19 99.86 Z" />
</g>
<g id="#f8cb58ff">
<path fill="#f8cb58" opacity="1.00" d=" M 67.95 82.13 C 71.22 84.23 74.93 85.67 77.90 88.20 C 80.88 93.97 74.78 93.39 71.80 94.68 C 71.39 94.74 70.57 94.87 70.16 94.93 C 67.77 94.80 65.51 95.32 64.04 97.34 C 61.04 95.98 62.50 92.86 63.06 90.48 C 64.41 89.02 65.39 87.29 66.17 85.48 C 66.77 84.37 67.36 83.25 67.95 82.13 Z" />
</g>
<g id="#985e1afd">
<path fill="#985e1a" opacity="1.00" d=" M 30.12 83.56 C 32.51 81.84 32.90 85.73 33.94 87.14 L 33.86 87.84 C 32.44 88.51 31.10 89.31 29.76 90.12 C 28.51 88.01 31.06 85.77 30.12 83.56 Z" />
</g>
<g id="#ae7222ff">
<path fill="#ae7222" opacity="1.00" d=" M 29.22 83.97 L 30.12 83.56 C 31.06 85.77 28.51 88.01 29.76 90.12 L 30.04 90.77 C 29.49 91.15 28.39 91.91 27.84 92.29 C 27.57 91.99 27.03 91.39 26.76 91.10 C 26.76 88.47 28.06 86.22 29.22 83.97 Z" />
</g>
<g id="#7d4c17fe">
<path fill="#7d4c17" opacity="1.00" d=" M 107.15 83.95 C 108.11 84.24 109.05 84.57 109.99 84.93 C 112.46 87.33 113.10 90.63 114.27 93.72 C 116.47 95.67 119.08 97.13 121.82 98.21 C 121.76 99.12 120.82 99.39 118.99 99.02 C 117.30 99.01 113.90 99.00 112.20 98.99 C 111.61 94.92 104.01 94.96 107.58 89.37 C 107.86 87.55 107.41 85.75 107.15 83.95 Z" />
</g>
<g id="#8c581bfb">
<path fill="#8c581b" opacity="1.00" d=" M 109.99 84.93 L 110.94 84.99 C 115.95 85.38 120.48 88.02 125.01 89.97 C 128.03 91.79 132.24 92.48 134.02 95.84 C 130.06 97.10 125.98 98.09 121.82 98.21 C 119.08 97.13 116.47 95.67 114.27 93.72 C 113.10 90.63 112.46 87.33 109.99 84.93 Z" />
</g>
<g id="#f4c454ff">
<path fill="#f4c454" opacity="1.00" d=" M 29.76 90.12 C 31.10 89.31 32.44 88.51 33.86 87.84 C 33.90 91.90 33.95 95.96 33.99 100.02 L 33.02 99.88 C 32.89 96.49 34.58 91.45 30.04 90.77 L 29.76 90.12 Z" />
</g>
<g id="#e5b64cff">
<path fill="#e5b64c" opacity="1.00" d=" M 27.84 92.29 C 28.39 91.91 29.49 91.15 30.04 90.77 C 34.58 91.45 32.89 96.49 33.02 99.88 C 29.64 99.42 28.64 101.13 30.03 105.01 C 29.56 110.79 33.43 116.63 30.80 122.20 C 29.87 120.18 28.81 118.23 27.82 116.25 C 27.62 110.77 24.09 105.92 25.17 100.23 C 26.78 97.87 27.16 95.01 27.84 92.29 Z" />
</g>
<g id="#f6e8bdfe">
<path fill="#f6e8bd" opacity="1.00" d=" M 64.04 97.34 C 65.51 95.32 67.77 94.80 70.16 94.93 C 68.77 102.94 63.69 109.66 61.06 117.18 C 59.52 119.76 57.74 122.20 56.33 124.85 C 55.11 126.41 54.30 126.43 53.89 124.92 C 55.30 120.91 57.11 117.06 58.54 113.06 C 59.04 111.81 59.50 110.55 59.83 109.25 C 61.34 105.32 62.78 101.36 64.04 97.34 Z" />
</g>
<g id="#e0cda2ff">
<path fill="#e0cda2" opacity="1.00" d=" M 70.16 94.93 C 70.57 94.87 71.39 94.74 71.80 94.68 C 72.13 94.95 72.79 95.48 73.12 95.74 C 69.52 103.08 66.80 111.13 61.06 117.18 C 63.69 109.66 68.77 102.94 70.16 94.93 Z" />
</g>
<g id="#bfa477fa">
<path fill="#bfa477" opacity="0.98" d=" M 73.12 95.74 L 73.86 96.14 C 74.07 97.51 74.24 98.91 74.80 100.19 C 69.94 104.84 67.45 111.36 63.83 116.91 C 61.38 119.71 57.00 123.37 58.63 127.29 C 58.65 129.67 56.04 126.39 56.33 124.85 C 57.74 122.20 59.52 119.76 61.06 117.18 C 66.80 111.13 69.52 103.08 73.12 95.74 Z" />
</g>
<g id="#e0b049ff">
<path fill="#e0b049" opacity="1.00" d=" M 86.04 100.84 C 87.11 99.09 87.08 95.37 89.89 95.98 C 94.35 101.64 97.29 108.55 95.98 115.90 C 93.33 123.88 85.62 128.12 78.62 131.72 C 77.20 132.83 76.19 130.68 75.61 129.72 C 79.45 126.67 84.87 126.14 87.81 121.82 C 93.54 116.38 92.75 107.42 88.69 101.29 C 88.03 101.18 86.70 100.95 86.04 100.84 Z" />
</g>
<g id="#f4e3b8ff">
<path fill="#f4e3b8" opacity="1.00" d=" M 14.80 100.12 C 13.70 97.90 14.01 96.40 16.83 96.89 C 17.81 97.27 18.80 97.64 19.79 98.00 C 20.29 98.21 21.28 98.64 21.78 98.85 C 23.29 104.79 24.83 110.86 27.82 116.25 C 28.81 118.23 29.87 120.18 30.80 122.20 C 31.59 124.14 32.57 126.01 33.08 128.05 C 30.71 128.26 28.72 126.91 26.84 125.69 C 25.12 123.71 23.37 121.76 21.68 119.77 C 20.65 118.01 19.53 116.31 18.32 114.67 C 17.85 113.55 16.63 112.43 17.20 111.13 C 18.52 107.34 15.67 103.73 14.80 100.12 Z" />
</g>
<g id="#dbc493ff">
<path fill="#dbc493" opacity="1.00" d=" M 21.78 98.85 C 22.92 99.27 24.05 99.73 25.17 100.23 C 24.09 105.92 27.62 110.77 27.82 116.25 C 24.83 110.86 23.29 104.79 21.78 98.85 Z" />
</g>
<g id="#7e4d16fd">
<path fill="#7e4d16" opacity="1.00" d=" M 107.33 102.68 C 105.98 100.25 108.69 97.91 110.90 99.53 C 109.59 103.29 115.20 105.66 116.94 108.72 C 115.49 110.04 110.64 109.94 111.73 112.33 C 112.61 115.00 105.48 112.27 103.61 113.33 C 102.99 112.21 103.40 111.75 104.87 111.96 C 110.13 112.15 108.99 105.81 107.33 102.68 Z" />
</g>
<g id="#3420089d">
<path fill="#342008" opacity="0.62" d=" M 112.20 98.99 C 113.90 99.00 117.30 99.01 118.99 99.02 C 118.57 101.07 114.61 99.41 112.84 100.61 C 112.55 100.43 111.98 100.06 111.70 99.87 L 112.20 98.99 Z" />
</g>
<g id="#decfa3f5">
<path fill="#decfa3" opacity="0.96" d=" M 12.07 99.95 C 12.75 99.99 14.12 100.08 14.80 100.12 C 15.67 103.73 18.52 107.34 17.20 111.13 C 14.71 108.40 14.11 103.45 12.07 99.95 Z" />
</g>
<g id="#d8a947ff">
<path fill="#d8a947" opacity="1.00" d=" M 30.03 105.01 C 28.64 101.13 29.64 99.42 33.02 99.88 L 33.99 100.02 C 34.25 101.95 34.65 103.86 34.70 105.81 C 33.39 113.54 36.06 121.38 33.92 129.04 C 32.88 129.58 31.85 130.13 30.87 130.78 C 33.54 131.73 36.55 131.68 39.03 133.13 C 38.61 135.18 37.81 137.13 37.02 139.06 L 36.03 139.05 C 34.40 139.00 32.77 138.94 31.15 138.88 C 31.64 133.95 26.28 134.32 22.96 133.98 C 24.22 132.22 28.28 131.48 25.89 128.89 C 26.16 127.81 26.48 126.74 26.84 125.69 C 28.72 126.91 30.71 128.26 33.08 128.05 C 32.57 126.01 31.59 124.14 30.80 122.20 C 33.43 116.63 29.56 110.79 30.03 105.01 Z" />
</g>
<g id="#d5bf95ff">
<path fill="#d5bf95" opacity="1.00" d=" M 74.80 100.19 C 76.91 100.05 79.03 99.96 81.15 100.09 C 77.28 106.03 73.66 112.36 68.32 117.14 C 68.65 113.66 65.55 116.75 63.83 116.91 C 67.45 111.36 69.94 104.84 74.80 100.19 Z" />
</g>
<g id="#cdb382ff">
<path fill="#cdb382" opacity="1.00" d=" M 81.15 100.09 C 82.63 99.89 82.56 102.07 83.20 102.95 C 78.32 107.16 75.22 113.05 70.92 117.84 C 70.26 118.50 69.61 119.17 68.97 119.86 C 66.87 121.79 64.80 123.75 62.74 125.73 L 61.76 125.86 C 60.81 122.02 66.35 120.11 68.32 117.14 C 73.66 112.36 77.28 106.03 81.15 100.09 Z" />
</g>
<g id="#895619f5">
<path fill="#895619" opacity="0.96" d=" M 116.94 108.72 C 115.20 105.66 109.59 103.29 110.90 99.53 L 111.70 99.87 C 111.98 100.06 112.55 100.43 112.84 100.61 C 115.86 103.05 120.14 104.42 122.07 107.91 C 118.68 109.47 115.54 111.94 111.73 112.33 C 110.64 109.94 115.49 110.04 116.94 108.72 Z" />
</g>
<g id="#edbe50fe">
<path fill="#edbe50" opacity="1.00" d=" M 83.20 102.95 C 84.35 102.55 85.19 101.67 86.04 100.84 C 86.70 100.95 88.03 101.18 88.69 101.29 C 92.75 107.42 93.54 116.38 87.81 121.82 C 84.87 126.14 79.45 126.67 75.61 129.72 C 73.25 129.53 70.63 127.08 67.81 126.73 L 68.43 126.33 C 71.54 125.00 70.12 120.54 70.92 117.84 C 75.22 113.05 78.32 107.16 83.20 102.95 Z" />
</g>
<g id="#cc9d40ff">
<path fill="#cc9d40" opacity="1.00" d=" M 33.92 129.04 C 36.06 121.38 33.39 113.54 34.70 105.81 C 35.54 108.30 36.75 110.64 38.05 112.92 C 38.59 113.90 39.14 114.88 39.66 115.88 C 39.16 120.58 40.23 128.10 33.92 129.04 Z" />
</g>
<g id="#e0c385fe">
<path fill="#e0c385" opacity="1.00" d=" M 40.85 117.08 C 47.05 119.03 53.03 116.02 57.91 112.37 L 58.54 113.06 C 57.11 117.06 55.30 120.91 53.89 124.92 C 53.40 124.73 52.42 124.36 51.92 124.17 C 50.59 123.65 49.27 123.12 47.95 122.59 C 45.51 120.85 42.99 119.19 40.85 117.08 Z" />
</g>
<g id="#f7e261fb">
<path fill="#f7e261" opacity="1.00" d=" M 18.32 114.67 C 19.53 116.31 20.65 118.01 21.68 119.77 C 21.18 121.48 20.98 123.26 20.85 125.03 C 18.58 122.48 17.51 118.16 18.32 114.67 Z" />
</g>
<g id="#e0cca1ff">
<path fill="#e0cca1" opacity="1.00" d=" M 63.83 116.91 C 65.55 116.75 68.65 113.66 68.32 117.14 C 66.35 120.11 60.81 122.02 61.76 125.86 C 60.72 126.34 59.68 126.82 58.63 127.29 C 57.00 123.37 61.38 119.71 63.83 116.91 Z" />
</g>
<g id="#b98934fc">
<path fill="#b98934" opacity="1.00" d=" M 33.92 129.04 C 40.23 128.10 39.16 120.58 39.66 115.88 C 39.96 116.18 40.55 116.78 40.85 117.08 C 42.99 119.19 45.51 120.85 47.95 122.59 C 47.04 123.88 46.91 125.46 46.92 127.00 C 46.73 130.60 50.85 132.65 48.95 136.80 C 44.98 137.59 41.09 138.99 37.02 139.06 C 37.81 137.13 38.61 135.18 39.03 133.13 C 36.55 131.68 33.54 131.73 30.87 130.78 C 31.85 130.13 32.88 129.58 33.92 129.04 Z" />
</g>
<g id="#a57b33ff">
<path fill="#a57b33" opacity="1.00" d=" M 68.97 119.86 C 69.61 119.17 70.26 118.50 70.92 117.84 C 70.12 120.54 71.54 125.00 68.43 126.33 C 64.34 124.53 69.16 122.76 68.97 119.86 Z" />
</g>
<g id="#f5c753ff">
<path fill="#f5c753" opacity="1.00" d=" M 20.85 125.03 C 20.98 123.26 21.18 121.48 21.68 119.77 C 23.37 121.76 25.12 123.71 26.84 125.69 C 26.48 126.74 26.16 127.81 25.89 128.89 C 23.54 129.21 22.08 126.64 20.85 125.03 Z" />
</g>
<g id="#b7904df9">
<path fill="#b7904d" opacity="0.98" d=" M 62.74 125.73 C 64.80 123.75 66.87 121.79 68.97 119.86 C 69.16 122.76 64.34 124.53 68.43 126.33 L 67.81 126.73 C 66.08 126.90 64.44 125.96 62.74 125.73 Z" />
</g>
<g id="#9a6c26f3">
<path fill="#9a6c26" opacity="0.95" d=" M 46.92 127.00 C 46.91 125.46 47.04 123.88 47.95 122.59 C 49.27 123.12 50.59 123.65 51.92 124.17 C 50.99 125.78 48.50 126.00 46.92 127.00 Z" />
</g>
<g id="#b88834f9">
<path fill="#b88834" opacity="0.98" d=" M 80.99 133.06 C 85.98 131.59 90.71 126.47 96.09 128.82 C 95.14 130.61 93.48 131.93 92.70 133.83 C 88.83 134.53 84.89 134.48 80.99 134.77 C 80.99 134.34 80.99 133.49 80.99 133.06 Z" />
</g>
<g id="#ceb98ef7">
<path fill="#ceb98e" opacity="0.97" d=" M 15.05 139.79 C 16.30 137.08 20.27 135.65 22.96 133.98 C 26.28 134.32 31.64 133.95 31.15 138.88 C 29.32 138.99 27.48 139.16 25.70 139.61 C 22.15 140.71 18.53 141.14 15.05 139.79 Z" />
</g>
<g id="#d5a545f9">
<path fill="#d5a545" opacity="0.98" d=" M 80.99 134.77 C 84.89 134.48 88.83 134.53 92.70 133.83 C 96.01 135.64 97.35 142.48 93.00 143.91 C 91.91 142.12 91.93 138.30 89.04 138.99 C 86.65 138.85 87.91 143.43 85.18 143.03 C 85.06 141.68 84.93 140.33 84.80 138.98 C 81.97 138.34 79.83 141.02 79.90 143.66 C 78.40 144.47 78.83 140.99 78.18 139.98 C 78.91 138.20 79.44 135.95 80.99 134.77 Z" />
</g>
<g id="#40351f8f">
<path fill="#40351f" opacity="0.56" d=" M 25.70 139.61 C 27.48 139.16 29.32 138.99 31.15 138.88 C 32.77 138.94 34.40 139.00 36.03 139.05 C 35.02 141.85 28.59 139.46 25.70 139.61 Z" />
</g>
<g id="#e6d09bfc">
<path fill="#e6d09b" opacity="1.00" d=" M 79.90 143.66 C 79.83 141.02 81.97 138.34 84.80 138.98 C 84.93 140.33 85.06 141.68 85.18 143.03 C 87.91 143.43 86.65 138.85 89.04 138.99 C 91.93 138.30 91.91 142.12 93.00 143.91 C 91.24 145.03 86.82 147.93 86.79 144.03 C 84.82 146.58 81.62 146.38 79.90 143.66 Z" />
</g>
</svg>
