<?xml version="1.0" encoding="UTF-8" ?>
<!DOCTYPE svg PUBLIC "-//W3C//DTD SVG 1.1//EN" "http://www.w3.org/Graphics/SVG/1.1/DTD/svg11.dtd">
<svg width="83pt" height="87pt" viewBox="0 0 83 87" version="1.1" xmlns="http://www.w3.org/2000/svg">
<g id="#b7c4f1ff">
<path fill="#b7c4f1" opacity="1.00" d=" M 10.06 12.96 C 11.37 12.92 12.56 12.53 13.63 11.81 C 16.97 13.76 20.15 16.16 22.50 19.27 C 20.39 19.31 18.28 19.57 16.18 19.87 C 15.33 18.88 14.46 17.91 13.62 16.92 C 13.76 18.21 14.05 20.80 14.20 22.09 C 13.05 18.94 11.62 15.92 10.06 12.96 Z" />
</g>
<g id="#a8b7e9ff">
<path fill="#a8b7e9" opacity="1.00" d=" M 58.58 15.09 C 58.89 15.30 59.52 15.71 59.84 15.92 C 65.04 16.00 70.18 17.02 75.35 17.58 C 75.50 17.86 75.80 18.42 75.95 18.70 C 74.90 19.14 73.84 19.55 72.75 19.91 C 71.31 20.18 69.83 20.35 68.36 20.31 C 64.47 19.28 60.38 19.51 56.61 20.89 C 52.13 23.21 47.79 25.94 44.45 29.78 C 44.80 30.21 45.51 31.07 45.86 31.51 C 44.83 34.23 44.07 37.05 43.53 39.91 C 42.88 38.00 42.22 36.09 41.59 34.17 C 41.57 31.63 41.57 29.08 41.46 26.53 C 42.41 26.12 43.36 25.69 44.30 25.25 C 45.95 24.35 46.82 22.52 48.21 21.30 C 51.23 18.57 55.10 17.11 58.58 15.09 Z" />
</g>
<g id="#353789ff">
<path fill="#353789" opacity="1.00" d=" M 13.62 16.92 C 14.46 17.91 15.33 18.88 16.18 19.87 C 18.72 22.80 21.68 26.20 20.46 30.40 L 19.73 32.11 C 18.76 31.31 17.81 30.50 16.85 29.68 C 15.62 27.33 14.48 24.75 14.20 22.09 C 14.05 20.80 13.76 18.21 13.62 16.92 Z" />
</g>
<g id="#a3b2e2ff">
<path fill="#a3b2e2" opacity="1.00" d=" M 16.18 19.87 C 18.28 19.57 20.39 19.31 22.50 19.27 C 23.57 20.41 24.42 21.74 25.25 23.06 C 22.97 25.00 21.59 27.68 20.46 30.40 C 21.68 26.20 18.72 22.80 16.18 19.87 Z" />
</g>
<g id="#2d3286ff">
<path fill="#2d3286" opacity="1.00" d=" M 56.61 20.89 C 60.38 19.51 64.47 19.28 68.36 20.31 C 68.15 22.18 68.09 24.08 67.56 25.90 C 64.45 28.59 62.53 35.06 57.37 33.20 C 59.23 30.14 61.60 26.66 60.27 22.93 C 59.05 22.25 57.83 21.57 56.61 20.89 Z" />
<path fill="#2d3286" opacity="1.00" d=" M 32.73 41.12 C 34.43 37.72 36.93 34.64 40.23 32.67 C 39.97 33.00 39.47 33.66 39.22 33.99 C 38.96 34.43 38.44 35.31 38.18 35.75 C 36.70 36.59 35.59 37.84 35.03 39.48 C 34.97 39.59 34.84 39.80 34.78 39.91 L 34.99 39.93 C 36.16 40.04 38.52 40.27 39.69 40.38 L 39.59 40.68 C 37.31 40.87 35.02 41.02 32.73 41.12 Z" />
<path fill="#2d3286" opacity="1.00" d=" M 52.82 59.48 C 52.45 57.19 51.75 54.77 52.80 52.55 C 53.53 53.69 54.24 54.84 54.95 56.00 C 54.23 57.15 53.54 58.33 52.82 59.48 Z" />
</g>
<g id="#6a7db9ff">
<path fill="#6a7db9" opacity="1.00" d=" M 68.36 20.31 C 69.83 20.35 71.31 20.18 72.75 19.91 C 69.88 21.71 69.83 25.37 68.42 28.14 C 67.21 30.56 65.99 33.15 63.78 34.84 C 61.60 36.16 59.06 36.82 56.55 37.13 C 56.09 36.99 55.17 36.71 54.71 36.57 C 57.66 35.72 60.90 35.31 63.43 33.43 C 65.66 31.52 66.69 28.62 67.56 25.90 C 68.09 24.08 68.15 22.18 68.36 20.31 Z" />
<path fill="#6a7db9" opacity="1.00" d=" M 38.67 45.71 C 39.35 45.66 40.04 45.61 40.72 45.56 C 44.62 46.93 48.64 47.86 52.74 48.41 C 51.72 51.28 50.83 54.35 48.65 56.60 C 46.01 59.94 41.81 61.18 38.02 62.70 C 34.09 62.97 29.76 62.73 27.01 59.52 C 30.32 58.08 34.30 57.48 36.81 54.70 C 37.86 51.83 37.04 48.47 38.67 45.71 M 40.83 50.05 C 42.40 52.13 44.86 53.08 47.40 53.24 C 46.02 50.93 43.44 49.94 40.83 50.05 Z" />
</g>
<g id="#2b5699ff">
<path fill="#2b5699" opacity="1.00" d=" M 44.45 29.78 C 47.79 25.94 52.13 23.21 56.61 20.89 C 57.83 21.57 59.05 22.25 60.27 22.93 C 57.53 26.33 53.83 28.71 50.65 31.66 C 48.98 32.87 50.01 35.02 49.95 36.68 L 49.72 37.31 L 49.24 36.53 C 48.20 34.80 47.10 33.10 45.86 31.51 C 45.51 31.07 44.80 30.21 44.45 29.78 Z" />
</g>
<g id="#bbcbf6ff">
<path fill="#bbcbf6" opacity="1.00" d=" M 25.25 23.06 C 26.31 24.48 27.77 23.75 28.84 22.82 L 29.43 23.08 C 32.31 24.94 35.79 24.13 38.80 23.10 C 40.70 23.63 42.54 24.37 44.30 25.25 C 43.36 25.69 42.41 26.12 41.46 26.53 C 41.57 29.08 41.57 31.63 41.59 34.17 C 41.35 33.73 40.89 32.83 40.66 32.38 C 40.55 32.45 40.33 32.60 40.23 32.67 C 36.93 34.64 34.43 37.72 32.73 41.12 C 33.33 43.23 33.00 45.86 31.09 47.19 C 29.29 48.13 27.38 46.92 25.64 46.45 C 27.04 46.02 26.77 42.74 25.22 44.44 C 25.17 44.88 25.05 45.77 24.99 46.22 C 24.65 46.36 23.98 46.64 23.65 46.78 C 23.19 45.74 22.75 44.70 22.34 43.65 C 22.15 44.49 21.76 46.17 21.57 47.01 C 20.59 47.50 19.62 47.99 18.64 48.49 C 18.25 47.61 17.85 46.73 17.45 45.85 L 17.03 44.94 L 16.52 43.83 C 13.05 44.70 9.49 45.16 5.91 45.01 C 5.29 44.92 4.04 44.73 3.42 44.63 C 7.81 43.29 12.42 42.94 16.99 42.80 C 17.59 39.46 18.57 36.21 19.35 32.91 C 18.25 32.06 17.51 30.88 16.85 29.68 C 17.81 30.50 18.76 31.31 19.73 32.11 L 20.46 30.40 C 21.59 27.68 22.97 25.00 25.25 23.06 M 29.88 24.47 C 28.31 26.22 27.41 30.08 31.07 29.60 C 34.32 28.72 32.56 24.62 29.88 24.47 M 20.64 39.83 C 21.47 38.35 21.24 36.37 20.73 34.81 C 19.63 35.53 18.00 39.98 20.64 39.83 Z" />
</g>
<g id="#f0fafeff">
<path fill="#f0fafe" opacity="1.00" d=" M 29.43 23.08 C 32.54 22.54 35.70 22.64 38.80 23.10 C 35.79 24.13 32.31 24.94 29.43 23.08 Z" />
</g>
<g id="#386cafff">
<path fill="#386caf" opacity="1.00" d=" M 50.65 31.66 C 53.83 28.71 57.53 26.33 60.27 22.93 C 61.60 26.66 59.23 30.14 57.37 33.20 C 55.29 35.10 52.61 35.97 49.95 36.68 C 50.01 35.02 48.98 32.87 50.65 31.66 Z" />
</g>
<g id="#96a6d8ff">
<path fill="#96a6d8" opacity="1.00" d=" M 29.88 24.47 C 32.56 24.62 34.32 28.72 31.07 29.60 C 27.41 30.08 28.31 26.22 29.88 24.47 Z" />
</g>
<g id="#262f62ec">
<path fill="#262f62" opacity="0.93" d=" M 57.37 33.20 C 62.53 35.06 64.45 28.59 67.56 25.90 C 66.69 28.62 65.66 31.52 63.43 33.43 C 60.90 35.31 57.66 35.72 54.71 36.57 C 55.17 36.71 56.09 36.99 56.55 37.13 L 56.79 37.21 C 54.81 37.56 53.98 38.95 53.96 40.88 C 54.20 39.58 54.38 38.27 54.51 36.96 L 53.15 37.66 C 52.00 37.61 50.85 37.49 49.72 37.31 L 49.95 36.68 C 52.61 35.97 55.29 35.10 57.37 33.20 Z" />
</g>
<g id="#8c9dcfff">
<path fill="#8c9dcf" opacity="1.00" d=" M 40.23 32.67 C 40.33 32.60 40.55 32.45 40.66 32.38 C 40.89 32.83 41.35 33.73 41.59 34.17 C 42.22 36.09 42.88 38.00 43.53 39.91 C 44.07 37.05 44.83 34.23 45.86 31.51 C 47.10 33.10 48.20 34.80 49.24 36.53 C 47.54 39.66 45.74 42.82 42.93 45.10 C 42.38 45.22 41.27 45.45 40.72 45.56 C 40.04 45.61 39.35 45.66 38.67 45.71 C 37.04 48.47 37.86 51.83 36.81 54.70 C 34.30 57.48 30.32 58.08 27.01 59.52 C 29.76 62.73 34.09 62.97 38.02 62.70 C 37.73 68.03 38.06 73.46 40.21 78.43 C 42.24 77.61 44.84 77.19 45.95 75.05 C 47.44 71.29 46.40 66.47 49.73 63.58 C 49.98 64.16 50.49 65.33 50.74 65.91 C 50.72 67.47 50.67 69.02 50.53 70.58 C 50.20 72.22 49.80 73.86 49.42 75.49 C 48.87 77.24 48.23 78.97 47.62 80.70 C 45.42 82.22 42.93 81.65 40.45 81.56 C 40.07 79.83 39.70 78.10 39.36 76.35 L 38.89 76.14 C 37.24 75.37 35.56 74.65 33.81 74.13 C 33.33 72.36 32.86 70.60 32.40 68.83 C 33.94 67.75 35.45 66.65 36.97 65.56 C 31.19 64.76 26.15 61.80 22.23 57.54 C 22.10 57.13 21.83 56.31 21.70 55.90 C 23.30 55.98 24.92 55.97 26.47 55.52 C 26.02 53.36 25.45 51.23 24.88 49.11 C 23.51 49.41 22.15 49.72 20.79 50.01 C 23.69 46.09 28.99 50.41 32.92 49.06 C 35.47 48.70 35.13 45.64 36.02 43.84 C 37.04 42.63 39.34 42.50 39.59 40.68 L 39.69 40.38 C 40.19 40.03 41.19 39.33 41.69 38.98 C 41.28 37.13 40.47 35.43 39.22 33.99 C 39.47 33.66 39.97 33.00 40.23 32.67 Z" />
<path fill="#8c9dcf" opacity="1.00" d=" M 49.89 78.43 C 53.00 78.12 56.37 79.32 59.20 77.59 C 60.01 78.36 60.82 79.12 61.65 79.88 C 58.11 80.54 54.57 79.35 51.00 80.03 C 50.73 79.63 50.17 78.83 49.89 78.43 Z" />
</g>
<g id="#9c5358ff">
<path fill="#9c5358" opacity="1.00" d=" M 20.64 39.83 C 18.00 39.98 19.63 35.53 20.73 34.81 C 21.24 36.37 21.47 38.35 20.64 39.83 Z" />
</g>
<g id="#eef1eeff">
<path fill="#eef1ee" opacity="1.00" d=" M 39.22 33.99 C 40.47 35.43 41.28 37.13 41.69 38.98 C 41.19 39.33 40.19 40.03 39.69 40.38 C 39.31 39.22 38.56 36.91 38.18 35.75 C 38.44 35.31 38.96 34.43 39.22 33.99 Z" />
</g>
<g id="#c1362eff">
<path fill="#c1362e" opacity="1.00" d=" M 35.03 39.48 C 35.59 37.84 36.70 36.59 38.18 35.75 C 38.56 36.91 39.31 39.22 39.69 40.38 C 38.52 40.27 36.16 40.04 34.99 39.93 L 35.03 39.48 Z" />
</g>
<g id="#7285c0ff">
<path fill="#7285c0" opacity="1.00" d=" M 42.93 45.10 C 45.74 42.82 47.54 39.66 49.24 36.53 L 49.72 37.31 C 50.85 37.49 52.00 37.61 53.15 37.66 C 52.52 37.98 51.26 38.62 50.64 38.94 C 51.24 41.50 51.92 44.04 52.58 46.58 C 49.33 46.31 46.16 45.52 42.93 45.10 Z" />
</g>
<g id="#9eaddeff">
<path fill="#9eadde" opacity="1.00" d=" M 53.15 37.66 L 54.51 36.96 C 54.38 38.27 54.20 39.58 53.96 40.88 C 58.00 44.38 61.28 48.74 64.23 53.20 C 61.09 53.86 57.54 53.83 54.95 56.00 C 54.24 54.84 53.53 53.69 52.80 52.55 C 51.75 54.77 52.45 57.19 52.82 59.48 C 52.31 60.26 51.78 61.03 51.23 61.78 C 50.85 62.23 50.11 63.13 49.73 63.58 C 46.40 66.47 47.44 71.29 45.95 75.05 C 44.84 77.19 42.24 77.61 40.21 78.43 C 38.06 73.46 37.73 68.03 38.02 62.70 C 41.81 61.18 46.01 59.94 48.65 56.60 C 50.83 54.35 51.72 51.28 52.74 48.41 C 48.64 47.86 44.62 46.93 40.72 45.56 C 41.27 45.45 42.38 45.22 42.93 45.10 C 46.16 45.52 49.33 46.31 52.58 46.58 C 51.92 44.04 51.24 41.50 50.64 38.94 C 51.26 38.62 52.52 37.98 53.15 37.66 M 52.72 42.53 C 53.87 45.47 55.64 48.84 59.11 49.31 C 58.21 46.34 55.85 43.10 52.72 42.53 Z" />
</g>
<g id="#f4a791ff">
<path fill="#f4a791" opacity="1.00" d=" M 34.78 39.91 C 34.84 39.80 34.97 39.59 35.03 39.48 L 34.99 39.93 L 34.78 39.91 Z" />
</g>
<g id="#a6b4e1ff">
<path fill="#a6b4e1" opacity="1.00" d=" M 31.09 47.19 C 33.00 45.86 33.33 43.23 32.73 41.12 C 35.02 41.02 37.31 40.87 39.59 40.68 C 39.34 42.50 37.04 42.63 36.02 43.84 C 35.13 45.64 35.47 48.70 32.92 49.06 C 28.99 50.41 23.69 46.09 20.79 50.01 C 22.15 49.72 23.51 49.41 24.88 49.11 C 25.45 51.23 26.02 53.36 26.47 55.52 C 24.92 55.97 23.30 55.98 21.70 55.90 L 20.92 55.71 C 21.03 53.44 18.46 52.06 18.49 49.91 C 18.52 49.55 18.60 48.84 18.64 48.49 C 19.62 47.99 20.59 47.50 21.57 47.01 C 21.76 46.17 22.15 44.49 22.34 43.65 C 22.75 44.70 23.19 45.74 23.65 46.78 C 23.98 46.64 24.65 46.36 24.99 46.22 L 25.64 46.45 C 27.38 46.92 29.29 48.13 31.09 47.19 Z" />
</g>
<g id="#4c4ea0ff">
<path fill="#4c4ea0" opacity="1.00" d=" M 52.72 42.53 C 55.85 43.10 58.21 46.34 59.11 49.31 C 55.64 48.84 53.87 45.47 52.72 42.53 Z" />
</g>
<g id="#1c202c5c">
<path fill="#1c202c" opacity="0.36" d=" M 5.91 45.01 C 9.49 45.16 13.05 44.70 16.52 43.83 L 17.03 44.94 C 13.32 45.05 9.61 45.48 5.91 45.01 Z" />
</g>
<g id="#8493bcff">
<path fill="#8493bc" opacity="1.00" d=" M 25.22 44.44 C 26.77 42.74 27.04 46.02 25.64 46.45 L 24.99 46.22 C 25.05 45.77 25.17 44.88 25.22 44.44 Z" />
</g>
<g id="#6a709dda">
<path fill="#6a709d" opacity="0.85" d=" M 17.45 45.85 C 17.85 46.73 18.25 47.61 18.64 48.49 C 18.60 48.84 18.52 49.55 18.49 49.91 C 17.18 47.71 15.36 50.70 13.57 49.96 L 13.68 49.35 C 13.73 47.26 16.97 47.98 17.45 45.85 Z" />
</g>
<g id="#9caed8f3">
<path fill="#9caed8" opacity="0.95" d=" M 10.25 51.38 C 10.49 50.19 12.47 48.83 13.68 49.35 L 13.57 49.96 C 12.74 51.00 11.63 51.47 10.25 51.38 Z" />
</g>
<g id="#8391c8ff">
<path fill="#8391c8" opacity="1.00" d=" M 40.83 50.05 C 43.44 49.94 46.02 50.93 47.40 53.24 C 44.86 53.08 42.40 52.13 40.83 50.05 Z" />
</g>
<g id="#7b90c7ff">
<path fill="#7b90c7" opacity="1.00" d=" M 54.95 56.00 C 57.54 53.83 61.09 53.86 64.23 53.20 C 65.01 54.72 65.84 56.24 66.31 57.90 C 66.71 62.36 65.68 66.83 63.98 70.94 C 63.74 71.29 63.27 72.00 63.03 72.36 C 62.20 70.70 61.43 69.02 60.46 67.44 C 57.86 65.74 54.51 65.86 51.51 65.86 C 52.72 64.74 52.59 62.70 51.23 61.78 C 51.78 61.03 52.31 60.26 52.82 59.48 C 53.54 58.33 54.23 57.15 54.95 56.00 Z" />
</g>
<g id="#bccbf4ff">
<path fill="#bccbf4" opacity="1.00" d=" M 20.92 55.71 L 21.70 55.90 C 21.83 56.31 22.10 57.13 22.23 57.54 C 21.72 62.05 22.27 66.56 22.42 71.06 C 22.30 72.72 22.73 75.05 20.72 75.70 C 21.52 69.03 19.30 62.33 20.92 55.71 Z" />
</g>
<g id="#9dabddff">
<path fill="#9dabdd" opacity="1.00" d=" M 22.23 57.54 C 26.15 61.80 31.19 64.76 36.97 65.56 C 35.45 66.65 33.94 67.75 32.40 68.83 C 31.56 68.09 30.72 67.35 29.89 66.60 C 29.60 69.34 29.72 72.18 28.82 74.81 C 27.98 77.34 25.12 77.83 22.99 78.79 C 23.84 79.57 24.68 80.36 25.53 81.16 C 23.50 81.09 21.48 81.07 19.46 81.11 C 20.12 80.13 20.69 79.09 21.14 78.01 C 20.74 77.59 19.93 76.75 19.53 76.33 L 20.72 75.70 C 22.73 75.05 22.30 72.72 22.42 71.06 C 22.27 66.56 21.72 62.05 22.23 57.54 Z" />
</g>
<g id="#1f254390">
<path fill="#1f2543" opacity="0.56" d=" M 66.31 57.90 C 67.98 62.27 66.66 67.26 63.98 70.94 C 65.68 66.83 66.71 62.36 66.31 57.90 Z" />
</g>
<g id="#3c4295ff">
<path fill="#3c4295" opacity="1.00" d=" M 51.23 61.78 C 52.59 62.70 52.72 64.74 51.51 65.86 L 50.74 65.91 C 50.49 65.33 49.98 64.16 49.73 63.58 C 50.11 63.13 50.85 62.23 51.23 61.78 Z" />
</g>
<g id="#6779b3ff">
<path fill="#6779b3" opacity="1.00" d=" M 50.74 65.91 L 51.51 65.86 C 54.51 65.86 57.86 65.74 60.46 67.44 C 61.43 69.02 62.20 70.70 63.03 72.36 C 64.14 74.36 65.07 76.61 64.13 78.88 C 63.30 79.20 62.47 79.54 61.65 79.88 C 60.82 79.12 60.01 78.36 59.20 77.59 C 60.13 76.40 61.01 75.17 61.90 73.94 C 59.15 70.48 54.60 70.14 50.53 70.58 C 50.67 69.02 50.72 67.47 50.74 65.91 Z" />
</g>
<g id="#788bc2fe">
<path fill="#788bc2" opacity="1.00" d=" M 29.89 66.60 C 30.72 67.35 31.56 68.09 32.40 68.83 C 32.86 70.60 33.33 72.36 33.81 74.13 C 33.24 74.14 32.09 74.17 31.52 74.18 C 31.21 75.01 30.58 76.66 30.27 77.49 C 29.59 79.70 27.82 81.04 25.53 81.16 C 24.68 80.36 23.84 79.57 22.99 78.79 C 25.12 77.83 27.98 77.34 28.82 74.81 C 29.72 72.18 29.60 69.34 29.89 66.60 Z" />
</g>
<g id="#4d589bff">
<path fill="#4d589b" opacity="1.00" d=" M 50.53 70.58 C 54.60 70.14 59.15 70.48 61.90 73.94 C 61.01 75.17 60.13 76.40 59.20 77.59 C 56.37 79.32 53.00 78.12 49.89 78.43 C 49.67 77.46 49.51 76.48 49.42 75.49 C 49.80 73.86 50.20 72.22 50.53 70.58 M 57.30 72.24 C 56.74 73.87 57.28 74.39 58.93 73.81 C 59.49 72.18 58.95 71.66 57.30 72.24 Z" />
</g>
<g id="#282e7cff">
<path fill="#282e7c" opacity="1.00" d=" M 57.30 72.24 C 58.95 71.66 59.49 72.18 58.93 73.81 C 57.28 74.39 56.74 73.87 57.30 72.24 Z" />
</g>
<g id="#54639df5">
<path fill="#54639d" opacity="0.96" d=" M 31.52 74.18 C 32.09 74.17 33.24 74.14 33.81 74.13 C 35.56 74.65 37.24 75.37 38.89 76.14 C 36.10 77.04 33.18 77.39 30.27 77.49 C 30.58 76.66 31.21 75.01 31.52 74.18 Z" />
</g>
</svg>
