<?xml version="1.0" encoding="UTF-8" ?>
<!DOCTYPE svg PUBLIC "-//W3C//DTD SVG 1.1//EN" "http://www.w3.org/Graphics/SVG/1.1/DTD/svg11.dtd">
<svg width="123pt" height="142pt" viewBox="0 0 123 142" version="1.1" xmlns="http://www.w3.org/2000/svg">
<g id="#bbe5cff5">
<path fill="#bbe5cf" opacity="0.96" d=" M 11.92 4.02 C 15.92 3.78 20.38 4.12 23.93 6.15 C 26.99 6.95 24.68 9.36 23.84 11.12 C 22.58 10.72 21.32 10.27 20.02 10.04 L 19.11 9.89 C 18.97 13.66 18.77 17.43 18.51 21.20 C 17.32 19.47 16.34 17.44 14.26 16.61 C 13.79 14.33 17.51 12.72 16.84 10.23 C 15.36 8.09 11.78 7.00 11.92 4.02 Z" />
</g>
<g id="#8cbdcafb">
<path fill="#8cbdca" opacity="1.00" d=" M 23.93 6.15 C 25.87 4.95 28.17 5.64 29.30 7.69 C 34.87 13.11 39.04 19.66 42.35 26.65 C 42.77 26.78 43.61 27.05 44.03 27.18 C 41.91 28.18 39.93 29.44 38.16 30.99 C 37.03 28.34 36.07 25.55 34.41 23.17 C 31.27 18.82 27.47 15.04 23.84 11.12 C 24.68 9.36 26.99 6.95 23.93 6.15 Z" />
</g>
<g id="#557271bb">
<path fill="#557271" opacity="0.73" d=" M 106.99 5.98 C 107.07 2.74 113.54 5.74 115.96 5.07 L 116.13 6.04 C 113.07 6.02 110.04 6.01 106.99 5.98 Z" />
</g>
<g id="#8abdc8fb">
<path fill="#8abdc8" opacity="1.00" d=" M 79.68 9.70 C 81.11 8.38 81.54 5.52 83.99 5.96 C 83.52 7.95 82.88 9.93 82.94 12.00 C 90.19 7.78 98.72 6.40 106.99 5.98 C 110.04 6.01 113.07 6.02 116.13 6.04 C 114.59 7.32 111.51 9.87 109.97 11.15 C 111.58 14.23 115.20 15.33 117.94 17.15 C 118.70 19.62 115.49 19.13 114.02 19.90 C 111.43 18.43 108.78 17.06 105.99 15.98 C 105.04 14.92 104.11 13.84 103.13 12.80 C 102.26 11.17 100.44 10.49 98.95 11.83 C 89.59 12.81 81.25 18.18 75.22 25.23 C 73.39 27.33 71.00 30.03 71.78 33.02 C 72.40 36.55 73.38 40.15 72.87 43.75 C 70.87 44.99 68.92 46.28 67.00 47.63 C 65.99 48.42 65.07 49.31 64.12 50.15 C 63.61 50.08 62.60 49.95 62.09 49.89 C 62.16 48.82 62.24 47.75 62.25 46.68 C 66.24 41.61 71.40 32.49 65.26 27.15 C 65.72 26.95 66.63 26.57 67.08 26.38 C 68.30 26.57 69.49 26.90 70.73 26.94 C 72.40 20.62 75.32 14.61 79.68 9.70 Z" />
</g>
<g id="#84b0b0f5">
<path fill="#84b0b0" opacity="0.96" d=" M 19.11 9.89 L 20.02 10.04 C 19.82 15.43 20.36 20.79 20.58 26.16 C 19.94 24.51 18.55 23.00 18.51 21.20 C 18.77 17.43 18.97 13.66 19.11 9.89 Z" />
</g>
<g id="#333e8bfc">
<path fill="#333e8b" opacity="1.00" d=" M 20.02 10.04 C 21.32 10.27 22.58 10.72 23.84 11.12 C 27.47 15.04 31.27 18.82 34.41 23.17 C 32.55 24.02 31.45 21.62 29.96 20.90 C 29.91 26.77 29.15 34.08 34.06 38.45 C 34.00 38.81 33.89 39.51 33.84 39.86 C 33.16 41.25 32.79 43.01 31.01 43.33 C 24.76 40.68 21.88 32.51 20.58 26.16 C 20.36 20.79 19.82 15.43 20.02 10.04 Z" />
</g>
<g id="#272e81ff">
<path fill="#272e81" opacity="1.00" d=" M 98.95 11.83 C 100.44 10.49 102.26 11.17 103.13 12.80 C 103.62 14.82 104.34 16.78 104.89 18.79 C 100.87 20.48 95.88 23.33 95.79 28.18 C 93.90 24.47 93.05 18.96 88.02 18.62 C 90.42 14.58 95.36 14.25 98.95 11.83 Z" />
</g>
<g id="#212f71ff">
<path fill="#212f71" opacity="1.00" d=" M 75.22 25.23 C 81.25 18.18 89.59 12.81 98.95 11.83 C 95.36 14.25 90.42 14.58 88.02 18.62 C 93.05 18.96 93.90 24.47 95.79 28.18 C 95.67 29.69 95.44 32.70 95.33 34.21 C 95.12 32.37 94.92 30.51 94.40 28.72 C 94.27 28.26 94.01 27.35 93.88 26.89 C 93.32 25.28 92.51 23.74 91.18 22.63 C 85.69 20.56 80.09 26.33 75.67 28.84 C 74.32 29.99 73.27 31.43 72.54 33.04 L 71.78 33.02 C 71.00 30.03 73.39 27.33 75.22 25.23 Z" />
</g>
<g id="#28396dff">
<path fill="#28396d" opacity="1.00" d=" M 103.13 12.80 C 104.11 13.84 105.04 14.92 105.99 15.98 C 107.57 21.81 108.20 27.80 107.98 33.82 C 106.05 36.26 104.07 38.91 101.17 40.25 C 103.62 36.41 108.47 33.32 107.03 27.98 C 107.22 24.76 105.68 21.83 104.89 18.79 C 104.34 16.78 103.62 14.82 103.13 12.80 Z" />
</g>
<g id="#5f95aef7">
<path fill="#5f95ae" opacity="0.97" d=" M 105.99 15.98 C 108.78 17.06 111.43 18.43 114.02 19.90 C 112.92 22.61 109.02 23.71 110.58 27.67 C 110.05 30.22 110.71 33.29 108.60 35.18 C 108.44 34.84 108.13 34.16 107.98 33.82 C 108.20 27.80 107.57 21.81 105.99 15.98 Z" />
</g>
<g id="#333793ff">
<path fill="#333793" opacity="1.00" d=" M 95.79 28.18 C 95.88 23.33 100.87 20.48 104.89 18.79 C 105.68 21.83 107.22 24.76 107.03 27.98 C 108.47 33.32 103.62 36.41 101.17 40.25 C 100.69 40.49 99.73 40.97 99.25 41.21 C 94.83 41.54 90.62 43.12 86.22 43.62 C 85.86 43.18 85.15 42.30 84.79 41.86 C 86.89 42.17 89.19 41.15 89.88 39.05 C 92.41 38.46 95.68 37.48 95.33 34.21 C 95.44 32.70 95.67 29.69 95.79 28.18 Z" />
</g>
<g id="#4588bbff">
<path fill="#4588bb" opacity="1.00" d=" M 29.96 20.90 C 31.45 21.62 32.55 24.02 34.41 23.17 C 36.07 25.55 37.03 28.34 38.16 30.99 C 36.98 33.57 36.15 36.41 34.06 38.45 C 29.15 34.08 29.91 26.77 29.96 20.90 Z" />
</g>
<g id="#2a5f9aff">
<path fill="#2a5f9a" opacity="1.00" d=" M 75.67 28.84 C 80.09 26.33 85.69 20.56 91.18 22.63 C 86.62 25.67 82.81 29.68 78.24 32.70 C 76.21 32.37 75.80 30.64 75.67 28.84 Z" />
</g>
<g id="#3168a2ff">
<path fill="#3168a2" opacity="1.00" d=" M 78.24 32.70 C 82.81 29.68 86.62 25.67 91.18 22.63 C 92.51 23.74 93.32 25.28 93.88 26.89 C 86.53 28.05 83.45 36.39 77.79 40.45 C 76.00 38.01 74.09 35.65 72.54 33.04 C 73.27 31.43 74.32 29.99 75.67 28.84 C 75.80 30.64 76.21 32.37 78.24 32.70 Z" />
</g>
<g id="#b0e7d9fc">
<path fill="#b0e7d9" opacity="1.00" d=" M 44.03 27.18 C 49.54 24.35 56.34 23.11 62.24 25.37 C 61.66 25.51 60.50 25.78 59.93 25.92 C 56.22 25.79 53.31 28.48 50.38 30.37 C 46.23 35.92 41.52 41.08 37.84 46.96 C 35.73 45.14 35.76 47.36 35.72 49.22 C 35.56 48.87 35.25 48.19 35.09 47.85 C 34.71 46.91 34.36 45.96 34.06 45.00 C 33.97 43.29 33.89 41.58 33.84 39.86 C 33.89 39.51 34.00 38.81 34.06 38.45 C 36.15 36.41 36.98 33.57 38.16 30.99 C 39.93 29.44 41.91 28.18 44.03 27.18 Z" />
</g>
<g id="#99ced5fe">
<path fill="#99ced5" opacity="1.00" d=" M 62.24 25.37 C 63.96 24.54 65.53 25.77 67.08 26.38 C 66.63 26.57 65.72 26.95 65.26 27.15 C 71.40 32.49 66.24 41.61 62.25 46.68 C 61.08 48.09 59.94 49.51 58.77 50.91 C 56.02 52.71 51.83 54.45 54.05 59.02 C 54.70 62.14 52.65 65.13 49.48 65.53 C 48.61 63.30 45.14 64.20 46.39 66.55 C 49.23 67.42 45.79 68.68 44.89 69.75 L 44.10 69.87 C 41.92 69.23 39.71 66.17 37.50 67.97 C 36.27 67.06 35.16 66.01 33.96 65.06 C 30.86 61.85 32.33 57.36 34.26 53.93 C 35.23 55.81 36.50 57.56 38.89 57.12 C 37.83 54.49 36.74 51.86 35.72 49.22 C 35.76 47.36 35.73 45.14 37.84 46.96 C 37.92 47.74 38.08 49.29 38.16 50.06 C 43.54 48.65 48.63 46.24 54.13 45.24 C 60.17 44.42 63.47 37.85 63.65 32.30 C 62.71 30.01 61.35 27.93 59.93 25.92 C 60.50 25.78 61.66 25.51 62.24 25.37 Z" />
</g>
<g id="#a4dce1ff">
<path fill="#a4dce1" opacity="1.00" d=" M 50.38 30.37 C 53.31 28.48 56.22 25.79 59.93 25.92 C 61.35 27.93 62.71 30.01 63.65 32.30 C 63.47 37.85 60.17 44.42 54.13 45.24 C 48.63 46.24 43.54 48.65 38.16 50.06 C 38.08 49.29 37.92 47.74 37.84 46.96 C 41.52 41.08 46.23 35.92 50.38 30.37 Z" />
</g>
<g id="#3b79b5ff">
<path fill="#3b79b5" opacity="1.00" d=" M 77.79 40.45 C 83.45 36.39 86.53 28.05 93.88 26.89 C 94.01 27.35 94.27 28.26 94.40 28.72 C 95.65 33.56 93.37 36.61 89.88 39.05 C 87.84 39.13 85.83 40.03 84.79 41.86 C 83.17 42.50 81.59 43.24 80.03 44.03 C 79.28 42.84 78.50 41.66 77.79 40.45 Z" />
</g>
<g id="#26457fff">
<path fill="#26457f" opacity="1.00" d=" M 94.40 28.72 C 94.92 30.51 95.12 32.37 95.33 34.21 C 95.68 37.48 92.41 38.46 89.88 39.05 C 93.37 36.61 95.65 33.56 94.40 28.72 Z" />
</g>
<g id="#6b9cb1ff">
<path fill="#6b9cb1" opacity="1.00" d=" M 71.78 33.02 L 72.54 33.04 C 74.09 35.65 76.00 38.01 77.79 40.45 C 78.50 41.66 79.28 42.84 80.03 44.03 C 80.06 44.53 80.12 45.54 80.15 46.04 C 79.71 53.57 73.16 58.48 68.92 64.05 C 68.38 64.30 67.28 64.79 66.74 65.04 C 61.19 69.09 53.61 67.91 48.40 72.33 C 48.25 72.70 47.96 73.44 47.81 73.81 C 46.88 73.52 45.94 73.23 45.00 72.96 C 43.72 71.75 40.13 69.60 44.10 69.87 L 44.89 69.75 C 49.01 69.10 52.67 66.54 57.04 67.06 C 59.87 67.03 63.01 65.71 63.68 62.69 C 69.92 54.28 54.90 60.85 58.80 56.25 C 61.51 56.58 64.24 57.01 66.98 57.02 C 68.67 57.06 70.36 57.05 72.04 56.92 C 72.03 55.54 71.92 54.14 71.52 52.81 C 71.25 50.66 69.94 48.78 67.86 48.03 L 67.00 47.63 C 68.92 46.28 70.87 44.99 72.87 43.75 C 73.38 40.15 72.40 36.55 71.78 33.02 Z" />
</g>
<g id="#4b7f9ef6">
<path fill="#4b7f9e" opacity="0.96" d=" M 101.17 40.25 C 104.07 38.91 106.05 36.26 107.98 33.82 C 108.13 34.16 108.44 34.84 108.60 35.18 C 108.33 40.55 100.92 40.78 98.78 44.70 C 96.36 43.48 94.27 45.62 92.20 46.58 C 90.21 46.28 88.22 46.59 86.23 46.66 C 85.10 46.32 83.97 46.00 82.83 45.72 C 88.33 44.54 94.41 44.39 99.25 41.21 C 99.73 40.97 100.69 40.49 101.17 40.25 Z" />
</g>
<g id="#243c76ff">
<path fill="#243c76" opacity="1.00" d=" M 84.79 41.86 C 85.83 40.03 87.84 39.13 89.88 39.05 C 89.19 41.15 86.89 42.17 84.79 41.86 Z" />
</g>
<g id="#588198f7">
<path fill="#588198" opacity="0.97" d=" M 31.01 43.33 C 32.79 43.01 33.16 41.25 33.84 39.86 C 33.89 41.58 33.97 43.29 34.06 45.00 C 32.62 45.29 31.61 44.57 31.01 43.33 Z" />
</g>
<g id="#273a6dff">
<path fill="#273a6d" opacity="1.00" d=" M 86.22 43.62 C 90.62 43.12 94.83 41.54 99.25 41.21 C 94.41 44.39 88.33 44.54 82.83 45.72 C 82.16 45.80 80.82 45.96 80.15 46.04 C 80.12 45.54 80.06 44.53 80.03 44.03 C 81.59 43.24 83.17 42.50 84.79 41.86 C 85.15 42.30 85.86 43.18 86.22 43.62 Z" />
</g>
<g id="#85b7bdfd">
<path fill="#85b7bd" opacity="1.00" d=" M 92.20 46.58 C 94.27 45.62 96.36 43.48 98.78 44.70 C 98.20 47.17 97.57 49.80 95.88 51.77 C 90.10 50.82 88.52 60.23 83.12 58.02 C 82.89 56.04 82.96 53.99 83.86 52.17 C 86.60 50.25 89.38 48.38 92.20 46.58 Z" />
</g>
<g id="#5a8facfe">
<path fill="#5a8fac" opacity="1.00" d=" M 80.15 46.04 C 80.82 45.96 82.16 45.80 82.83 45.72 C 83.97 46.00 85.10 46.32 86.23 46.66 C 82.54 45.51 79.76 51.75 83.86 52.17 C 82.96 53.99 82.89 56.04 83.12 58.02 C 83.13 60.37 84.10 62.86 83.28 65.14 C 82.32 59.09 78.94 69.14 75.75 66.25 C 76.83 64.66 77.17 62.80 77.02 60.90 C 74.23 61.71 71.70 63.19 68.92 64.05 C 73.16 58.48 79.71 53.57 80.15 46.04 Z" />
</g>
<g id="#090f1137">
<path fill="#090f11" opacity="0.22" d=" M 86.23 46.66 C 88.22 46.59 90.21 46.28 92.20 46.58 C 89.38 48.38 86.60 50.25 83.86 52.17 C 79.76 51.75 82.54 45.51 86.23 46.66 Z" />
</g>
<g id="#557d88ff">
<path fill="#557d88" opacity="1.00" d=" M 58.77 50.91 C 59.94 49.51 61.08 48.09 62.25 46.68 C 62.24 47.75 62.16 48.82 62.09 49.89 C 60.85 51.13 58.59 54.95 58.77 50.91 Z" />
</g>
<g id="#977164ec">
<path fill="#977164" opacity="0.93" d=" M 34.26 53.93 C 34.47 52.41 34.89 49.37 35.09 47.85 C 35.25 48.19 35.56 48.87 35.72 49.22 C 36.74 51.86 37.83 54.49 38.89 57.12 C 36.50 57.56 35.23 55.81 34.26 53.93 Z" />
</g>
<g id="#564b46ff">
<path fill="#564b46" opacity="1.00" d=" M 64.12 50.15 C 65.07 49.31 65.99 48.42 67.00 47.63 L 67.86 48.03 C 67.85 49.86 67.84 53.51 67.83 55.33 L 67.05 55.12 C 67.01 53.36 66.98 51.61 66.87 49.86 C 64.83 51.60 62.52 53.24 61.87 56.01 C 63.64 56.07 65.41 55.81 67.05 55.12 C 67.03 55.59 67.00 56.55 66.98 57.02 C 64.24 57.01 61.51 56.58 58.80 56.25 C 60.47 54.13 62.30 52.14 64.12 50.15 Z" />
</g>
<g id="#bbbec1ff">
<path fill="#bbbec1" opacity="1.00" d=" M 67.86 48.03 C 69.94 48.78 71.25 50.66 71.52 52.81 C 71.23 54.44 69.52 56.10 67.83 55.33 C 67.84 53.51 67.85 49.86 67.86 48.03 Z" />
</g>
<g id="#7caec0ff">
<path fill="#7caec0" opacity="1.00" d=" M 58.77 50.91 C 58.59 54.95 60.85 51.13 62.09 49.89 C 62.60 49.95 63.61 50.08 64.12 50.15 C 62.30 52.14 60.47 54.13 58.80 56.25 C 54.90 60.85 69.92 54.28 63.68 62.69 C 63.01 65.71 59.87 67.03 57.04 67.06 C 52.67 66.54 49.01 69.10 44.89 69.75 C 45.79 68.68 49.23 67.42 46.39 66.55 C 45.14 64.20 48.61 63.30 49.48 65.53 C 52.65 65.13 54.70 62.14 54.05 59.02 C 51.83 54.45 56.02 52.71 58.77 50.91 Z" />
</g>
<g id="#ba4d40ff">
<path fill="#ba4d40" opacity="1.00" d=" M 61.87 56.01 C 62.52 53.24 64.83 51.60 66.87 49.86 C 66.98 51.61 67.01 53.36 67.05 55.12 C 65.41 55.81 63.64 56.07 61.87 56.01 Z" />
</g>
<g id="#6c9db0fc">
<path fill="#6c9db0" opacity="1.00" d=" M 83.12 58.02 C 88.52 60.23 90.10 50.82 95.88 51.77 C 95.09 55.67 93.12 59.48 90.83 62.77 C 90.20 62.90 88.94 63.18 88.31 63.32 C 90.52 68.31 86.60 67.57 84.30 68.40 C 82.66 69.73 81.53 71.55 80.12 73.11 C 81.10 70.42 82.27 67.81 83.28 65.14 C 84.10 62.86 83.13 60.37 83.12 58.02 Z" />
</g>
<g id="#556d77ff">
<path fill="#556d77" opacity="1.00" d=" M 71.52 52.81 C 71.92 54.14 72.03 55.54 72.04 56.92 C 70.36 57.05 68.67 57.06 66.98 57.02 C 67.00 56.55 67.03 55.59 67.05 55.12 L 67.83 55.33 C 69.52 56.10 71.23 54.44 71.52 52.81 Z" />
</g>
<g id="#587c9aff">
<path fill="#587c9a" opacity="1.00" d=" M 68.92 64.05 C 71.70 63.19 74.23 61.71 77.02 60.90 C 77.17 62.80 76.83 64.66 75.75 66.25 C 75.11 67.08 74.50 67.93 73.83 68.74 C 71.50 67.43 69.17 66.14 66.74 65.04 C 67.28 64.79 68.38 64.30 68.92 64.05 Z" />
</g>
<g id="#4f83a6ff">
<path fill="#4f83a6" opacity="1.00" d=" M 75.75 66.25 C 78.94 69.14 82.32 59.09 83.28 65.14 C 82.27 67.81 81.10 70.42 80.12 73.11 C 74.16 76.97 66.96 78.90 59.90 79.10 C 55.35 78.57 51.57 76.17 47.81 73.81 C 47.96 73.44 48.25 72.70 48.40 72.33 C 53.61 67.91 61.19 69.09 66.74 65.04 C 69.17 66.14 71.50 67.43 73.83 68.74 C 74.50 67.93 75.11 67.08 75.75 66.25 Z" />
</g>
<g id="#78a9bdfe">
<path fill="#78a9bd" opacity="1.00" d=" M 88.31 63.32 C 88.94 63.18 90.20 62.90 90.83 62.77 C 90.58 65.17 90.32 67.56 90.02 69.96 C 90.73 71.70 92.59 73.00 92.74 74.92 C 91.64 80.95 94.55 86.77 94.52 92.68 C 92.28 96.70 92.22 103.31 87.39 104.92 C 85.91 104.59 84.38 104.53 82.89 104.23 C 91.04 100.66 93.72 87.68 87.78 81.14 C 84.26 80.37 80.98 82.49 78.97 85.22 C 77.30 81.20 79.29 77.05 80.12 73.11 C 81.53 71.55 82.66 69.73 84.30 68.40 C 86.60 67.57 90.52 68.31 88.31 63.32 Z" />
</g>
<g id="#8cbfcafd">
<path fill="#8cbfca" opacity="1.00" d=" M 33.96 65.06 C 35.16 66.01 36.27 67.06 37.50 67.97 C 34.92 72.87 40.74 77.26 37.74 81.71 C 35.77 85.88 35.29 90.51 33.81 94.83 C 32.67 98.12 28.32 99.45 28.00 103.06 L 27.84 103.93 L 27.00 103.99 C 26.99 103.50 26.98 102.51 26.97 102.01 C 27.01 97.66 26.99 93.32 26.99 88.98 C 27.02 84.94 30.01 81.42 29.42 77.30 C 29.42 72.44 36.66 69.86 33.96 65.06 Z" />
</g>
<g id="#7eaec1ff">
<path fill="#7eaec1" opacity="1.00" d=" M 37.50 67.97 C 39.71 66.17 41.92 69.23 44.10 69.87 C 40.13 69.60 43.72 71.75 45.00 72.96 C 47.92 77.56 52.64 80.15 57.27 82.69 C 56.91 82.94 56.18 83.43 55.82 83.67 C 51.66 83.87 47.73 85.14 43.95 86.75 C 43.94 85.03 43.93 81.59 43.93 79.86 C 34.40 84.32 39.87 99.91 28.84 102.91 L 28.00 103.06 C 28.32 99.45 32.67 98.12 33.81 94.83 C 35.29 90.51 35.77 85.88 37.74 81.71 C 40.74 77.26 34.92 72.87 37.50 67.97 Z" />
</g>
<g id="#74a1b7ff">
<path fill="#74a1b7" opacity="1.00" d=" M 45.00 72.96 C 45.94 73.23 46.88 73.52 47.81 73.81 C 51.57 76.17 55.35 78.57 59.90 79.10 C 64.56 79.32 69.72 80.57 71.99 85.06 C 71.47 85.07 70.42 85.07 69.90 85.07 C 65.67 84.37 61.54 83.18 57.27 82.69 C 52.64 80.15 47.92 77.56 45.00 72.96 Z" />
</g>
<g id="#6a96afff">
<path fill="#6a96af" opacity="1.00" d=" M 59.90 79.10 C 66.96 78.90 74.16 76.97 80.12 73.11 C 79.29 77.05 77.30 81.20 78.97 85.22 C 79.39 86.55 79.94 87.82 80.45 89.12 C 78.83 89.65 77.41 88.39 75.89 88.02 C 74.57 87.06 73.26 86.09 71.99 85.06 C 69.72 80.57 64.56 79.32 59.90 79.10 Z" />
</g>
<g id="#5c8aa4fb">
<path fill="#5c8aa4" opacity="1.00" d=" M 92.74 74.92 C 95.15 76.39 95.94 80.11 96.54 82.86 C 97.73 91.52 95.64 100.10 91.73 107.80 C 90.17 107.61 88.64 107.19 87.10 106.90 L 87.15 105.84 L 87.39 104.92 C 92.22 103.31 92.28 96.70 94.52 92.68 C 94.55 86.77 91.64 80.95 92.74 74.92 Z" />
</g>
<g id="#71a3b8ff">
<path fill="#71a3b8" opacity="1.00" d=" M 28.84 102.91 C 39.87 99.91 34.40 84.32 43.93 79.86 C 43.93 81.59 43.94 85.03 43.95 86.75 L 43.14 87.07 C 43.77 84.68 41.05 84.37 40.21 86.24 C 38.57 91.29 38.38 96.68 36.72 101.72 C 34.22 102.75 31.52 103.04 28.84 102.91 Z" />
</g>
<g id="#8ec1ceff">
<path fill="#8ec1ce" opacity="1.00" d=" M 78.97 85.22 C 80.98 82.49 84.26 80.37 87.78 81.14 C 93.72 87.68 91.04 100.66 82.89 104.23 L 82.13 104.08 C 81.57 103.71 80.43 102.96 79.86 102.58 C 79.88 102.23 79.93 101.52 79.95 101.17 C 80.30 97.19 82.70 92.91 80.45 89.12 C 79.94 87.82 79.39 86.55 78.97 85.22 Z" />
</g>
<g id="#9eadb9fe">
<path fill="#9eadb9" opacity="1.00" d=" M 55.82 83.67 C 56.18 83.43 56.91 82.94 57.27 82.69 C 61.54 83.18 65.67 84.37 69.90 85.07 C 75.41 91.01 74.72 100.46 74.91 107.93 C 74.85 112.44 67.61 114.57 69.86 118.98 C 67.51 121.16 63.84 119.68 60.93 120.01 L 61.30 119.36 C 63.49 115.33 67.90 113.01 69.73 108.67 C 71.27 101.10 68.79 93.54 64.81 87.20 C 62.68 84.47 58.97 84.23 55.82 83.67 Z" />
</g>
<g id="#709fb5fd">
<path fill="#709fb5" opacity="1.00" d=" M 91.73 107.80 C 95.64 100.10 97.73 91.52 96.54 82.86 C 102.32 88.97 101.44 99.02 101.96 106.77 C 99.47 107.25 99.02 109.06 100.62 112.22 C 100.64 114.93 99.58 117.55 98.81 120.13 C 98.52 119.64 97.95 118.68 97.66 118.20 C 92.68 119.74 87.56 120.77 82.37 121.34 C 82.11 121.76 81.59 122.61 81.34 123.04 C 80.39 120.63 79.58 118.17 78.36 115.89 C 81.31 112.64 84.42 108.61 82.13 104.08 L 82.89 104.23 C 84.38 104.53 85.91 104.59 87.39 104.92 L 87.15 105.84 C 86.35 105.92 84.75 106.08 83.96 106.16 C 84.24 107.49 84.71 108.77 85.17 110.05 C 86.12 109.23 86.48 107.96 87.10 106.90 C 88.64 107.19 90.17 107.61 91.73 107.80 Z" />
</g>
<g id="#b0bbc4ff">
<path fill="#b0bbc4" opacity="1.00" d=" M 43.95 86.75 C 47.73 85.14 51.66 83.87 55.82 83.67 C 58.97 84.23 62.68 84.47 64.81 87.20 C 68.79 93.54 71.27 101.10 69.73 108.67 C 67.90 113.01 63.49 115.33 61.30 119.36 C 59.94 118.90 57.80 119.52 56.97 118.08 C 56.26 116.36 54.59 115.88 52.92 115.56 C 59.92 113.99 63.81 106.45 62.36 99.68 C 59.34 94.78 56.86 87.31 50.11 86.72 C 46.92 85.55 44.83 89.27 42.07 90.23 C 42.38 89.16 42.74 88.11 43.14 87.07 L 43.95 86.75 Z" />
</g>
<g id="#6993a8ff">
<path fill="#6993a8" opacity="1.00" d=" M 40.21 86.24 C 41.05 84.37 43.77 84.68 43.14 87.07 C 42.74 88.11 42.38 89.16 42.07 90.23 C 40.97 94.58 37.97 99.31 40.12 103.69 C 39.14 103.58 38.14 103.51 37.15 103.49 C 35.13 103.19 33.46 104.65 31.60 105.16 C 30.51 103.97 29.15 104.32 27.84 104.86 L 27.84 103.93 L 28.00 103.06 L 28.84 102.91 C 31.52 103.04 34.22 102.75 36.72 101.72 C 38.38 96.68 38.57 91.29 40.21 86.24 Z" />
</g>
<g id="#92a5b4ff">
<path fill="#92a5b4" opacity="1.00" d=" M 69.90 85.07 C 70.42 85.07 71.47 85.07 71.99 85.06 C 73.26 86.09 74.57 87.06 75.89 88.02 C 76.36 92.28 77.15 96.51 78.26 100.65 C 78.68 100.78 79.53 101.04 79.95 101.17 C 79.93 101.52 79.88 102.23 79.86 102.58 C 76.99 107.07 76.58 112.82 74.72 117.83 C 73.20 118.56 71.60 119.27 69.86 118.98 C 67.61 114.57 74.85 112.44 74.91 107.93 C 74.72 100.46 75.41 91.01 69.90 85.07 Z" />
</g>
<g id="#c2c8cbff">
<path fill="#c2c8cb" opacity="1.00" d=" M 42.07 90.23 C 44.83 89.27 46.92 85.55 50.11 86.72 C 56.86 87.31 59.34 94.78 62.36 99.68 C 63.81 106.45 59.92 113.99 52.92 115.56 C 54.59 115.88 56.26 116.36 56.97 118.08 C 55.28 118.00 53.65 117.51 52.05 116.98 C 50.42 115.96 48.80 114.93 47.16 113.91 C 46.01 112.57 44.83 111.25 43.76 109.85 C 42.53 107.81 41.35 105.74 40.12 103.69 C 37.97 99.31 40.97 94.58 42.07 90.23 Z" />
</g>
<g id="#889aacff">
<path fill="#889aac" opacity="1.00" d=" M 75.89 88.02 C 77.41 88.39 78.83 89.65 80.45 89.12 C 82.70 92.91 80.30 97.19 79.95 101.17 C 79.53 101.04 78.68 100.78 78.26 100.65 C 77.15 96.51 76.36 92.28 75.89 88.02 Z" />
</g>
<g id="#4a6467b3">
<path fill="#4a6467" opacity="0.70" d=" M 26.04 89.03 L 26.99 88.98 C 26.99 93.32 27.01 97.66 26.97 102.01 L 26.01 101.99 C 26.00 97.67 25.83 93.35 26.04 89.03 Z" />
</g>
<g id="#90bfc7fc">
<path fill="#90bfc7" opacity="1.00" d=" M 31.60 105.16 C 33.46 104.65 35.13 103.19 37.15 103.49 C 35.63 110.05 38.34 117.15 34.57 123.23 C 31.29 118.89 28.97 113.65 28.13 108.24 C 29.35 107.29 30.59 106.35 31.60 105.16 Z" />
</g>
<g id="#76a3b7fe">
<path fill="#76a3b7" opacity="1.00" d=" M 37.15 103.49 C 38.14 103.51 39.14 103.58 40.12 103.69 C 41.35 105.74 42.53 107.81 43.76 109.85 C 43.56 114.97 41.90 120.44 37.67 123.64 C 36.01 124.49 36.18 127.82 33.84 126.36 C 34.11 125.32 34.35 124.28 34.57 123.23 C 38.34 117.15 35.63 110.05 37.15 103.49 Z" />
</g>
<g id="#889eadfd">
<path fill="#889ead" opacity="1.00" d=" M 74.72 117.83 C 76.58 112.82 76.99 107.07 79.86 102.58 C 80.43 102.96 81.57 103.71 82.13 104.08 C 84.42 108.61 81.31 112.64 78.36 115.89 C 77.57 117.07 76.02 117.47 74.72 117.83 Z" />
</g>
<g id="#bbc2c6fb">
<path fill="#bbc2c6" opacity="1.00" d=" M 27.84 104.86 C 29.15 104.32 30.51 103.97 31.60 105.16 C 30.59 106.35 29.35 107.29 28.13 108.24 C 28.06 107.40 27.91 105.70 27.84 104.86 Z" />
</g>
<g id="#b9c0c8ff">
<path fill="#b9c0c8" opacity="1.00" d=" M 83.96 106.16 C 84.75 106.08 86.35 105.92 87.15 105.84 L 87.10 106.90 C 86.48 107.96 86.12 109.23 85.17 110.05 C 84.71 108.77 84.24 107.49 83.96 106.16 Z" />
</g>
<g id="#2c417fe2">
<path fill="#2c417f" opacity="0.89" d=" M 100.62 112.22 C 99.02 109.06 99.47 107.25 101.96 106.77 C 102.27 108.73 101.33 110.48 100.62 112.22 Z" />
</g>
<g id="#5e88a1fa">
<path fill="#5e88a1" opacity="0.98" d=" M 37.67 123.64 C 41.90 120.44 43.56 114.97 43.76 109.85 C 44.83 111.25 46.01 112.57 47.16 113.91 C 46.59 118.21 45.29 122.22 41.74 124.95 C 39.33 124.96 36.06 124.35 36.90 127.86 C 35.27 127.86 32.08 128.95 33.01 126.14 L 33.84 126.36 C 36.18 127.82 36.01 124.49 37.67 123.64 Z" />
</g>
<g id="#4e7696fb">
<path fill="#4e7696" opacity="1.00" d=" M 47.16 113.91 C 48.80 114.93 50.42 115.96 52.05 116.98 C 52.34 120.83 49.87 124.15 49.76 127.97 C 48.35 127.93 45.51 127.85 44.10 127.82 C 43.31 126.86 42.52 125.91 41.74 124.95 C 45.29 122.22 46.59 118.21 47.16 113.91 Z" />
</g>
<g id="#618ca5fc">
<path fill="#618ca5" opacity="1.00" d=" M 82.37 121.34 C 87.56 120.77 92.68 119.74 97.66 118.20 C 97.95 118.68 98.52 119.64 98.81 120.13 C 98.74 122.52 97.44 124.73 97.11 127.11 C 95.84 127.49 93.32 128.25 92.06 128.63 C 91.58 128.75 90.63 128.97 90.15 129.09 C 92.82 124.61 86.45 124.68 84.67 127.77 C 83.48 128.03 82.27 128.11 81.04 128.00 C 81.40 126.35 81.83 124.70 81.34 123.04 C 81.59 122.61 82.11 121.76 82.37 121.34 Z" />
</g>
<g id="#8d99a8f5">
<path fill="#8d99a8" opacity="0.96" d=" M 36.90 127.86 C 36.06 124.35 39.33 124.96 41.74 124.95 C 42.52 125.91 43.31 126.86 44.10 127.82 C 41.85 128.69 38.88 129.98 36.90 127.86 Z" />
</g>
<g id="#9da5b2fc">
<path fill="#9da5b2" opacity="1.00" d=" M 84.67 127.77 C 86.45 124.68 92.82 124.61 90.15 129.09 C 88.48 128.63 85.01 130.06 84.67 127.77 Z" />
</g>
<g id="#343c459f">
<path fill="#343c45" opacity="0.62" d=" M 97.11 127.11 C 99.95 129.40 93.51 129.67 92.06 128.63 C 93.32 128.25 95.84 127.49 97.11 127.11 Z" />
</g>
</svg>
