<?xml version="1.0" encoding="UTF-8" ?>
<!DOCTYPE svg PUBLIC "-//W3C//DTD SVG 1.1//EN" "http://www.w3.org/Graphics/SVG/1.1/DTD/svg11.dtd">
<svg width="134pt" height="179pt" viewBox="0 0 134 179" version="1.1" xmlns="http://www.w3.org/2000/svg">
<g id="#0707073d">
<path fill="#070707" opacity="0.24" d=" M 95.10 0.00 L 96.97 0.00 C 96.35 1.56 95.72 1.56 95.10 0.00 Z" />
</g>
<g id="#c2f4f4ff">
<path fill="#c2f4f4" opacity="1.00" d=" M 17.45 11.80 C 22.11 12.74 26.48 14.88 30.17 17.86 C 28.36 17.32 26.58 16.68 24.80 16.03 C 24.31 16.46 23.33 17.32 22.84 17.74 C 22.51 18.01 21.85 18.55 21.52 18.82 C 20.77 17.82 20.02 16.83 19.27 15.83 C 18.30 14.67 17.48 13.37 17.45 11.80 Z" />
</g>
<g id="#86b6d4ff">
<path fill="#86b6d4" opacity="1.00" d=" M 101.98 15.01 C 104.09 14.69 106.39 13.61 108.41 14.80 C 106.92 16.55 105.34 18.22 103.76 19.89 C 105.63 22.25 106.88 24.99 107.99 27.77 C 107.86 28.39 107.59 29.63 107.46 30.25 C 105.72 25.56 102.79 19.12 96.71 19.99 C 95.13 20.49 93.59 21.11 92.11 21.83 C 86.81 24.90 82.04 29.08 78.81 34.32 C 78.11 33.64 77.42 32.95 76.72 32.27 C 81.75 22.87 91.89 17.35 101.98 15.01 Z" />
</g>
<g id="#77aacdff">
<path fill="#77aacd" opacity="1.00" d=" M 64.86 26.62 C 67.53 23.17 68.94 18.95 71.52 15.44 C 75.54 17.05 74.11 21.35 73.59 24.64 C 72.92 24.55 71.57 24.36 70.90 24.26 C 69.48 26.69 68.47 29.32 67.81 32.05 C 64.41 32.09 61.00 32.20 57.60 32.00 C 56.80 31.89 56.01 31.77 55.21 31.65 C 55.03 31.53 54.67 31.30 54.48 31.18 C 57.82 27.45 57.31 21.54 60.26 17.41 C 63.20 19.55 63.36 23.57 64.86 26.62 Z" />
</g>
<g id="#697e71ff">
<path fill="#697e71" opacity="1.00" d=" M 19.27 15.83 C 20.02 16.83 20.77 17.82 21.52 18.82 C 21.85 18.55 22.51 18.01 22.84 17.74 C 24.13 18.96 25.39 20.20 26.59 21.50 C 24.06 29.82 27.98 38.08 31.40 45.49 C 29.76 43.88 28.04 42.35 26.24 40.92 C 25.23 39.26 24.45 37.46 23.98 35.57 C 24.14 34.44 23.66 33.77 22.53 33.55 C 20.53 28.66 20.82 23.04 20.34 17.81 C 20.07 17.31 19.54 16.33 19.27 15.83 Z" />
</g>
<g id="#8ebdddff">
<path fill="#8ebddd" opacity="1.00" d=" M 22.84 17.74 C 23.33 17.32 24.31 16.46 24.80 16.03 C 26.58 16.68 28.36 17.32 30.17 17.86 L 30.77 18.05 C 32.13 19.44 33.46 20.86 34.70 22.37 C 32.34 22.51 29.98 22.57 27.63 22.69 C 27.37 22.39 26.85 21.80 26.59 21.50 C 25.39 20.20 24.13 18.96 22.84 17.74 Z" />
</g>
<g id="#5b6c62ff">
<path fill="#5b6c62" opacity="1.00" d=" M 92.11 21.83 C 93.59 21.11 95.13 20.49 96.71 19.99 C 101.94 21.34 104.93 26.19 106.30 31.09 C 104.45 30.51 102.58 29.98 100.69 29.53 C 99.02 25.75 95.17 24.19 92.11 21.83 Z" />
<path fill="#5b6c62" opacity="1.00" d=" M 35.35 53.88 C 35.48 53.74 35.75 53.47 35.88 53.33 C 36.27 57.07 36.48 60.82 36.95 64.55 C 36.20 64.58 34.72 64.63 33.98 64.66 C 33.42 64.70 32.30 64.78 31.74 64.82 C 32.38 64.69 33.66 64.43 34.30 64.30 C 34.62 60.82 35.78 57.40 35.35 53.88 Z" />
</g>
<g id="#223333ff">
<path fill="#223333" opacity="1.00" d=" M 96.71 19.99 C 102.79 19.12 105.72 25.56 107.46 30.25 C 108.32 36.31 107.67 43.44 102.59 47.57 C 98.30 51.76 92.15 52.78 86.39 52.91 C 85.87 52.04 85.34 51.18 84.82 50.32 L 84.57 49.09 C 87.80 51.91 91.61 49.46 94.57 47.56 C 97.09 45.97 98.78 43.47 100.41 41.04 L 101.55 41.46 C 100.17 44.95 97.45 47.57 94.91 50.23 C 98.63 48.91 102.08 46.65 104.44 43.44 C 106.96 39.87 106.73 35.24 106.30 31.09 C 104.93 26.19 101.94 21.34 96.71 19.99 Z" />
<path fill="#223333" opacity="1.00" d=" M 84.03 65.89 C 84.76 65.06 85.65 64.87 86.68 65.33 C 86.84 65.78 87.14 66.68 87.29 67.13 L 87.11 67.69 C 85.94 67.37 84.90 66.72 84.03 65.89 Z" />
<path fill="#223333" opacity="1.00" d=" M 60.03 85.09 C 70.07 84.00 79.90 79.07 85.97 70.86 C 84.32 75.27 80.28 78.00 76.57 80.55 C 72.99 83.06 68.73 84.39 64.48 85.21 C 60.17 85.93 55.73 86.67 51.43 85.45 C 49.23 84.89 47.06 84.11 45.14 82.88 C 49.86 84.64 54.96 86.06 60.03 85.09 Z" />
</g>
<g id="#4f524dff">
<path fill="#4f524d" opacity="1.00" d=" M 31.40 45.49 C 27.98 38.08 24.06 29.82 26.59 21.50 C 26.85 21.80 27.37 22.39 27.63 22.69 C 29.11 24.62 30.45 26.66 31.80 28.69 C 34.31 32.48 36.92 36.21 39.02 40.26 C 37.63 43.62 36.55 47.12 36.17 50.75 C 31.17 49.72 28.54 44.99 26.24 40.92 C 28.04 42.35 29.76 43.88 31.40 45.49 Z" />
<path fill="#4f524d" opacity="1.00" d=" M 32.79 133.07 C 38.86 138.86 46.48 142.95 54.70 144.66 C 61.10 146.14 67.75 145.96 74.24 145.37 C 77.55 144.82 80.82 144.05 84.04 143.13 C 88.65 141.54 93.00 139.22 96.98 136.39 L 96.72 137.74 C 94.46 139.60 91.90 141.03 89.31 142.36 C 81.15 146.61 71.80 146.99 62.81 147.03 C 55.09 146.36 47.38 144.30 40.80 140.11 C 37.64 138.34 35.21 135.43 31.75 134.19 C 32.09 133.82 32.44 133.44 32.79 133.07 Z" />
</g>
<g id="#7dafd2ff">
<path fill="#7dafd2" opacity="1.00" d=" M 27.63 22.69 C 29.98 22.57 32.34 22.51 34.70 22.37 L 34.81 22.37 C 35.75 24.26 36.72 26.14 37.65 28.03 C 37.15 28.32 36.15 28.89 35.65 29.17 C 34.37 29.01 33.08 28.85 31.80 28.69 C 30.45 26.66 29.11 24.62 27.63 22.69 Z" />
</g>
<g id="#374140ff">
<path fill="#374140" opacity="1.00" d=" M 78.81 34.32 C 82.04 29.08 86.81 24.90 92.11 21.83 C 95.17 24.19 99.02 25.75 100.69 29.53 C 102.12 33.32 102.88 37.53 101.55 41.46 L 100.41 41.04 C 101.53 36.49 100.07 32.10 97.61 28.26 C 93.87 34.18 89.37 39.58 84.85 44.90 C 83.91 46.07 84.62 47.73 84.57 49.09 L 84.82 50.32 C 82.19 47.11 78.96 44.47 75.70 41.94 C 76.44 39.29 77.36 36.68 78.81 34.32 Z" />
<path fill="#374140" opacity="1.00" d=" M 63.78 53.02 C 63.35 56.37 62.49 59.69 62.60 63.09 C 62.94 64.43 63.32 65.77 63.69 67.10 C 62.96 65.99 62.23 64.89 61.54 63.76 C 61.44 60.04 62.60 56.49 63.78 53.02 Z" />
<path fill="#374140" opacity="1.00" d=" M 37.24 82.26 C 38.96 83.63 40.67 85.02 42.17 86.64 C 46.09 91.90 51.52 96.02 54.49 101.96 C 56.12 105.54 55.60 109.69 52.68 112.45 C 49.49 113.61 46.06 114.13 42.69 113.57 C 46.31 113.38 50.74 113.38 53.06 110.07 C 55.01 108.00 54.40 104.92 53.46 102.53 C 52.08 98.63 48.89 95.85 46.20 92.85 C 43.66 90.11 41.43 87.08 38.74 84.48 C 38.30 84.15 37.42 83.51 36.97 83.19 C 36.09 83.84 35.22 84.51 34.38 85.22 C 35.26 84.17 36.25 83.21 37.24 82.26 Z" />
<path fill="#374140" opacity="1.00" d=" M 72.45 93.60 C 76.99 89.78 81.83 86.20 87.37 83.96 C 89.56 84.26 91.72 84.74 93.87 85.26 C 94.33 86.22 94.81 87.16 95.33 88.09 C 93.02 86.15 89.85 83.76 86.70 85.18 C 79.71 88.25 73.49 93.08 68.43 98.77 C 67.58 100.22 66.93 101.79 66.42 103.39 C 65.47 107.52 67.94 110.95 71.57 112.63 C 72.95 113.10 74.35 113.53 75.79 113.78 C 80.31 114.31 85.09 114.26 89.31 112.37 L 89.06 113.36 C 82.02 115.10 73.29 115.65 67.56 110.39 C 65.39 108.56 65.36 105.52 65.63 102.93 C 66.89 99.19 69.42 96.07 72.45 93.60 Z" />
<path fill="#374140" opacity="1.00" d=" M 29.64 132.06 C 29.61 128.39 29.29 124.71 29.68 121.05 C 29.92 121.62 30.41 122.78 30.65 123.35 C 40.48 132.75 54.82 134.82 67.88 134.42 C 75.96 134.46 83.94 132.66 91.61 130.21 C 92.70 129.75 93.77 129.27 94.84 128.76 C 94.56 129.21 94.02 130.11 93.74 130.56 C 90.51 131.52 87.27 132.47 84.03 133.38 C 80.63 134.27 77.13 134.58 73.69 135.21 C 73.39 135.27 72.79 135.38 72.49 135.43 C 62.13 135.79 51.39 135.38 41.73 131.24 C 37.37 129.46 33.63 126.51 30.05 123.52 C 30.23 126.02 30.41 128.53 30.58 131.03 C 31.32 131.71 32.05 132.39 32.79 133.07 C 32.44 133.44 32.09 133.82 31.75 134.19 C 34.77 139.39 37.95 144.77 43.50 147.63 C 42.10 147.23 40.71 146.79 39.43 146.08 C 38.38 145.19 37.34 144.28 36.34 143.33 C 33.52 140.15 32.37 135.98 30.38 132.31 C 28.00 133.94 25.56 135.63 22.72 136.34 C 22.33 136.44 21.55 136.64 21.16 136.74 C 21.07 136.50 20.90 136.03 20.81 135.79 C 24.13 135.59 26.94 133.83 29.64 132.06 Z" />
</g>
<g id="#5689b0ff">
<path fill="#5689b0" opacity="1.00" d=" M 70.90 24.26 C 71.57 24.36 72.92 24.55 73.59 24.64 C 73.20 27.71 73.05 30.81 72.56 33.87 L 72.49 34.20 C 70.95 33.44 69.41 32.67 67.81 32.05 C 68.47 29.32 69.48 26.69 70.90 24.26 Z" />
</g>
<g id="#689bc1ff">
<path fill="#689bc1" opacity="1.00" d=" M 31.80 28.69 C 33.08 28.85 34.37 29.01 35.65 29.17 C 36.15 28.89 37.15 28.32 37.65 28.03 C 39.27 31.20 41.04 34.29 43.11 37.18 C 42.13 37.88 41.16 38.61 40.21 39.36 C 39.91 39.58 39.32 40.03 39.02 40.26 C 36.92 36.21 34.31 32.48 31.80 28.69 Z" />
</g>
<g id="#464b48ff">
<path fill="#464b48" opacity="1.00" d=" M 84.85 44.90 C 89.37 39.58 93.87 34.18 97.61 28.26 C 100.07 32.10 101.53 36.49 100.41 41.04 C 98.78 43.47 97.09 45.97 94.57 47.56 C 91.61 49.46 87.80 51.91 84.57 49.09 C 84.62 47.73 83.91 46.07 84.85 44.90 Z" />
</g>
<g id="#3791bdff">
<path fill="#3791bd" opacity="1.00" d=" M 107.99 27.77 C 109.94 34.09 109.88 41.43 105.95 47.00 C 101.59 52.65 94.05 54.35 87.26 54.32 C 87.04 53.97 86.61 53.26 86.39 52.91 C 92.15 52.78 98.30 51.76 102.59 47.57 C 107.67 43.44 108.32 36.31 107.46 30.25 C 107.59 29.63 107.86 28.39 107.99 27.77 Z" />
<path fill="#3791bd" opacity="1.00" d=" M 40.17 155.02 C 41.70 152.47 43.15 149.54 46.15 148.47 L 47.65 148.99 C 47.27 150.42 46.97 151.94 46.00 153.11 C 44.19 154.10 42.19 154.63 40.17 155.02 Z" />
</g>
<g id="#75796dff">
<path fill="#75796d" opacity="1.00" d=" M 100.69 29.53 C 102.58 29.98 104.45 30.51 106.30 31.09 C 106.73 35.24 106.96 39.87 104.44 43.44 C 102.08 46.65 98.63 48.91 94.91 50.23 C 97.45 47.57 100.17 44.95 101.55 41.46 C 102.88 37.53 102.12 33.32 100.69 29.53 Z" />
</g>
<g id="#ace7edff">
<path fill="#ace7ed" opacity="1.00" d=" M 55.21 31.65 C 56.01 31.77 56.80 31.89 57.60 32.00 C 60.04 32.65 62.49 33.25 64.98 33.69 C 60.65 35.96 55.80 36.65 51.01 37.19 C 47.32 37.51 43.97 39.64 40.21 39.36 C 41.16 38.61 42.13 37.88 43.11 37.18 C 46.88 34.78 51.19 33.51 55.21 31.65 Z" />
<path fill="#ace7ed" opacity="1.00" d=" M 5.97 112.01 C 7.01 106.27 8.33 100.23 11.96 95.51 C 12.01 95.81 12.12 96.42 12.17 96.73 C 9.74 104.78 5.38 112.72 6.87 121.42 C 6.73 121.55 6.46 121.79 6.32 121.91 C 6.14 118.61 5.96 115.32 5.97 112.01 Z" />
</g>
<g id="#97c8e1ff">
<path fill="#97c8e1" opacity="1.00" d=" M 57.60 32.00 C 61.00 32.20 64.41 32.09 67.81 32.05 C 69.41 32.67 70.95 33.44 72.49 34.20 C 71.97 36.29 70.42 37.77 68.32 38.23 C 63.36 39.61 59.25 42.95 54.29 44.32 C 51.03 45.21 47.58 44.50 44.31 45.32 C 43.37 46.45 43.04 47.93 42.48 49.26 C 41.77 49.39 41.06 49.52 40.35 49.65 C 40.14 50.58 39.94 51.51 39.73 52.43 C 39.47 52.28 38.94 51.97 38.68 51.82 C 38.23 51.96 37.79 52.10 37.34 52.25 C 37.05 51.87 36.46 51.12 36.17 50.75 C 36.55 47.12 37.63 43.62 39.02 40.26 C 39.32 40.03 39.91 39.58 40.21 39.36 C 43.97 39.64 47.32 37.51 51.01 37.19 C 55.80 36.65 60.65 35.96 64.98 33.69 C 62.49 33.25 60.04 32.65 57.60 32.00 Z" />
</g>
<g id="#679dc1ff">
<path fill="#679dc1" opacity="1.00" d=" M 74.99 35.91 C 75.34 34.60 76.09 33.45 76.72 32.27 C 77.42 32.95 78.11 33.64 78.81 34.32 C 77.36 36.68 76.44 39.29 75.70 41.94 C 78.96 44.47 82.19 47.11 84.82 50.32 C 85.34 51.18 85.87 52.04 86.39 52.91 C 86.61 53.26 87.04 53.97 87.26 54.32 C 88.22 58.81 89.11 63.45 92.26 67.02 L 91.82 67.49 C 90.76 68.62 89.70 69.74 88.64 70.86 C 88.17 69.62 87.71 68.38 87.29 67.13 C 87.14 66.68 86.84 65.78 86.68 65.33 C 86.70 63.20 86.81 61.08 86.88 58.95 C 82.27 60.42 80.79 65.38 77.32 68.26 C 75.08 70.22 72.42 71.62 69.74 72.89 C 67.94 73.13 66.14 73.40 64.34 73.65 C 62.84 73.82 61.34 74.01 59.84 74.21 C 64.06 71.25 69.73 70.72 73.04 66.36 C 72.22 66.15 70.58 65.72 69.76 65.51 C 72.68 64.75 75.56 63.85 78.46 63.03 C 78.30 59.40 76.92 55.94 74.74 53.05 C 74.06 52.48 73.36 51.92 72.65 51.37 C 72.68 47.00 75.04 42.64 73.12 38.37 C 73.97 37.78 74.81 37.20 75.66 36.61 C 75.49 36.44 75.15 36.08 74.99 35.91 Z" />
</g>
<g id="#537b90d2">
<path fill="#537b90" opacity="0.82" d=" M 22.53 33.55 C 23.66 33.77 24.14 34.44 23.98 35.57 L 23.18 35.80 L 22.42 35.27 C 22.45 34.84 22.51 33.98 22.53 33.55 Z" />
</g>
<g id="#8dbbdbff">
<path fill="#8dbbdb" opacity="1.00" d=" M 72.49 34.20 L 72.56 33.87 C 73.40 34.52 74.20 35.20 74.99 35.91 C 75.15 36.08 75.49 36.44 75.66 36.61 C 74.81 37.20 73.97 37.78 73.12 38.37 C 75.04 42.64 72.68 47.00 72.65 51.37 C 73.36 51.92 74.06 52.48 74.74 53.05 C 70.04 54.28 67.50 58.88 66.16 63.19 C 65.79 62.70 65.05 61.70 64.68 61.20 C 63.99 61.83 63.29 62.46 62.60 63.09 C 62.49 59.69 63.35 56.37 63.78 53.02 C 62.60 56.49 61.44 60.04 61.54 63.76 C 61.23 64.05 60.59 64.63 60.27 64.92 C 60.08 64.23 59.71 62.84 59.53 62.15 C 59.46 67.24 55.51 71.06 51.14 73.04 C 49.60 73.00 48.89 73.70 49.02 75.14 C 46.76 75.49 44.41 75.55 42.49 74.12 C 41.71 72.74 40.76 72.57 39.63 73.60 C 38.67 73.42 37.70 73.25 36.74 73.08 C 35.04 70.57 34.03 67.72 33.98 64.66 C 34.72 64.63 36.20 64.58 36.95 64.55 C 36.48 60.82 36.27 57.07 35.88 53.33 C 35.83 52.90 35.75 52.03 35.70 51.60 C 28.67 49.55 25.15 42.28 23.18 35.80 L 23.98 35.57 C 24.45 37.46 25.23 39.26 26.24 40.92 C 28.54 44.99 31.17 49.72 36.17 50.75 C 36.46 51.12 37.05 51.87 37.34 52.25 C 37.79 52.10 38.23 51.96 38.68 51.82 C 38.94 51.97 39.47 52.28 39.73 52.43 C 39.94 51.51 40.14 50.58 40.35 49.65 C 41.06 49.52 41.77 49.39 42.48 49.26 C 43.04 47.93 43.37 46.45 44.31 45.32 C 47.58 44.50 51.03 45.21 54.29 44.32 C 59.25 42.95 63.36 39.61 68.32 38.23 C 70.42 37.77 71.97 36.29 72.49 34.20 M 44.26 47.33 C 43.92 50.23 46.60 52.47 47.93 54.81 C 51.27 54.24 52.12 50.81 51.33 47.94 C 49.07 47.81 46.20 45.60 44.26 47.33 Z" />
</g>
<g id="#5f91b2ff">
<path fill="#5f91b2" opacity="1.00" d=" M 44.26 47.33 C 46.20 45.60 49.07 47.81 51.33 47.94 C 52.12 50.81 51.27 54.24 47.93 54.81 C 46.60 52.47 43.92 50.23 44.26 47.33 Z" />
</g>
<g id="#382e1eff">
<path fill="#382e1e" opacity="1.00" d=" M 66.16 63.19 C 67.50 58.88 70.04 54.28 74.74 53.05 C 76.92 55.94 78.30 59.40 78.46 63.03 C 75.56 63.85 72.68 64.75 69.76 65.51 C 68.37 65.82 66.98 66.13 65.58 66.45 C 65.73 65.64 66.01 64.01 66.16 63.19 M 70.36 57.56 C 71.47 59.48 71.93 61.66 72.16 63.85 C 74.07 63.43 75.93 62.86 77.77 62.20 C 77.48 59.53 76.77 56.84 75.04 54.72 C 73.04 54.06 71.74 56.49 70.36 57.56 M 67.35 63.43 C 67.49 63.61 67.49 63.61 67.35 63.43 Z" />
</g>
<g id="#e2e2e2ff">
<path fill="#e2e2e2" opacity="1.00" d=" M 70.36 57.56 C 71.74 56.49 73.04 54.06 75.04 54.72 C 76.77 56.84 77.48 59.53 77.77 62.20 C 75.93 62.86 74.07 63.43 72.16 63.85 C 71.93 61.66 71.47 59.48 70.36 57.56 Z" />
</g>
<g id="#558bb0ff">
<path fill="#558bb0" opacity="1.00" d=" M 77.32 68.26 C 80.79 65.38 82.27 60.42 86.88 58.95 C 86.81 61.08 86.70 63.20 86.68 65.33 C 85.65 64.87 84.76 65.06 84.03 65.89 C 80.58 70.24 75.49 73.46 69.74 72.89 C 72.42 71.62 75.08 70.22 77.32 68.26 Z" />
</g>
<g id="#82aed1ff">
<path fill="#82aed1" opacity="1.00" d=" M 62.60 63.09 C 63.29 62.46 63.99 61.83 64.68 61.20 C 65.05 61.70 65.79 62.70 66.16 63.19 C 66.01 64.01 65.73 65.64 65.58 66.45 C 66.98 66.13 68.37 65.82 69.76 65.51 C 70.58 65.72 72.22 66.15 73.04 66.36 C 69.73 70.72 64.06 71.25 59.84 74.21 C 54.45 76.75 48.15 78.00 42.27 76.67 C 40.97 76.38 39.64 76.38 38.33 76.58 L 38.22 76.48 C 37.74 75.34 37.26 74.20 36.74 73.08 C 37.70 73.25 38.67 73.42 39.63 73.60 C 40.46 74.55 41.41 74.72 42.49 74.12 C 44.41 75.55 46.76 75.49 49.02 75.14 C 50.29 75.08 51.00 74.38 51.14 73.04 C 55.51 71.06 59.46 67.24 59.53 62.15 C 59.71 62.84 60.08 64.23 60.27 64.92 C 60.59 64.63 61.23 64.05 61.54 63.76 C 62.23 64.89 62.96 65.99 63.69 67.10 C 63.32 65.77 62.94 64.43 62.60 63.09 Z" />
</g>
<g id="#c9c9c9ff">
<path fill="#c9c9c9" opacity="1.00" d=" M 67.35 63.43 C 67.49 63.61 67.49 63.61 67.35 63.43 Z" />
</g>
<g id="#6598beff">
<path fill="#6598be" opacity="1.00" d=" M 29.28 65.59 C 29.90 65.40 31.13 65.01 31.74 64.82 C 32.30 64.78 33.42 64.70 33.98 64.66 C 34.03 67.72 35.04 70.57 36.74 73.08 C 37.26 74.20 37.74 75.34 38.22 76.48 C 37.96 78.42 37.62 80.34 37.24 82.26 C 36.25 83.21 35.26 84.17 34.38 85.22 C 33.93 86.03 33.53 86.86 33.18 87.72 C 32.60 89.05 32.00 90.36 31.46 91.70 C 29.38 91.33 27.28 91.54 25.30 92.27 C 22.29 93.31 19.11 92.45 16.06 92.18 C 16.30 93.08 16.54 93.98 16.79 94.88 C 15.51 94.87 14.23 94.89 12.95 94.93 C 14.62 93.16 15.18 90.73 16.47 88.72 C 20.69 88.54 25.10 89.36 29.20 88.19 C 33.80 85.23 34.02 78.86 33.62 73.95 C 33.73 71.05 31.32 69.19 29.44 67.39 C 29.73 67.17 30.32 66.75 30.61 66.54 C 30.31 66.32 29.70 65.89 29.39 65.67 L 29.28 65.59 Z" />
</g>
<g id="#7daed1ff">
<path fill="#7daed1" opacity="1.00" d=" M 16.27 81.05 C 17.59 74.08 22.33 67.58 29.39 65.67 C 29.70 65.89 30.31 66.32 30.61 66.54 C 30.32 66.75 29.73 67.17 29.44 67.39 C 31.32 69.19 33.73 71.05 33.62 73.95 C 34.02 78.86 33.80 85.23 29.20 88.19 C 25.10 89.36 20.69 88.54 16.47 88.72 C 17.34 87.18 18.17 85.62 19.00 84.06 C 18.09 83.05 17.18 82.05 16.27 81.05 Z" />
</g>
<g id="#729993ff">
<path fill="#729993" opacity="1.00" d=" M 69.74 72.89 C 75.49 73.46 80.58 70.24 84.03 65.89 C 84.90 66.72 85.94 67.37 87.11 67.69 C 86.78 68.77 86.40 69.82 85.97 70.86 C 79.90 79.07 70.07 84.00 60.03 85.09 C 54.96 86.06 49.86 84.64 45.14 82.88 C 44.20 82.26 43.37 81.51 42.56 80.75 C 42.17 80.38 41.40 79.62 41.01 79.25 C 45.78 80.06 50.76 81.43 55.51 79.75 C 59.12 78.87 62.06 76.49 64.34 73.65 C 66.14 73.40 67.94 73.13 69.74 72.89 Z" />
</g>
<g id="#4680adff">
<path fill="#4680ad" opacity="1.00" d=" M 87.29 67.13 C 87.71 68.38 88.17 69.62 88.64 70.86 C 89.70 69.74 90.76 68.62 91.82 67.49 C 96.44 67.38 101.71 66.24 105.79 68.96 C 102.76 67.99 99.39 67.38 96.29 68.39 C 93.75 69.88 93.15 72.98 91.75 75.34 C 89.22 77.60 89.06 81.18 87.37 83.96 C 81.83 86.20 76.99 89.78 72.45 93.60 C 65.89 91.14 58.19 92.78 52.29 88.57 C 51.21 87.93 51.70 86.45 51.43 85.45 C 55.73 86.67 60.17 85.93 64.48 85.21 C 68.73 84.39 72.99 83.06 76.57 80.55 C 80.28 78.00 84.32 75.27 85.97 70.86 C 86.40 69.82 86.78 68.77 87.11 67.69 L 87.29 67.13 Z" />
</g>
<g id="#699dc2ff">
<path fill="#699dc2" opacity="1.00" d=" M 96.29 68.39 C 99.39 67.38 102.76 67.99 105.79 68.96 C 110.02 71.21 115.21 73.47 116.69 78.47 C 117.71 81.28 118.11 84.70 116.57 87.39 C 116.25 85.55 115.86 83.73 115.48 81.91 C 115.14 83.42 114.80 84.93 114.46 86.45 C 108.75 89.11 106.96 95.31 104.74 100.67 C 103.09 98.46 101.23 96.30 98.51 95.42 C 98.20 94.40 97.86 93.39 97.49 92.39 C 102.36 90.78 106.21 87.12 109.06 82.96 C 110.02 80.22 109.39 77.10 108.67 74.36 C 106.72 73.07 104.40 72.30 102.06 72.13 C 98.36 72.88 96.07 76.25 94.42 79.37 C 93.98 79.40 93.08 79.47 92.63 79.50 C 92.35 78.11 92.06 76.72 91.75 75.34 C 93.15 72.98 93.75 69.88 96.29 68.39 Z" />
</g>
<g id="#7cacd0ff">
<path fill="#7cacd0" opacity="1.00" d=" M 94.42 79.37 C 96.07 76.25 98.36 72.88 102.06 72.13 C 104.40 72.30 106.72 73.07 108.67 74.36 C 109.39 77.10 110.02 80.22 109.06 82.96 C 106.21 87.12 102.36 90.78 97.49 92.39 C 96.86 90.91 96.12 89.49 95.33 88.09 C 94.81 87.16 94.33 86.22 93.87 85.26 C 93.36 83.36 93.01 81.42 92.63 79.50 C 93.08 79.47 93.98 79.40 94.42 79.37 Z" />
</g>
<g id="#617e9cff">
<path fill="#617e9c" opacity="1.00" d=" M 39.63 73.60 C 40.76 72.57 41.71 72.74 42.49 74.12 C 41.41 74.72 40.46 74.55 39.63 73.60 Z" />
</g>
<g id="#58768bff">
<path fill="#58768b" opacity="1.00" d=" M 49.02 75.14 C 48.89 73.70 49.60 73.00 51.14 73.04 C 51.00 74.38 50.29 75.08 49.02 75.14 Z" />
</g>
<g id="#a1bcacff">
<path fill="#a1bcac" opacity="1.00" d=" M 59.84 74.21 C 61.34 74.01 62.84 73.82 64.34 73.65 C 62.06 76.49 59.12 78.87 55.51 79.75 C 50.76 81.43 45.78 80.06 41.01 79.25 C 40.11 78.36 39.22 77.47 38.33 76.58 C 39.64 76.38 40.97 76.38 42.27 76.67 C 48.15 78.00 54.45 76.75 59.84 74.21 Z" />
</g>
<g id="#316d9aff">
<path fill="#316d9a" opacity="1.00" d=" M 87.37 83.96 C 89.06 81.18 89.22 77.60 91.75 75.34 C 92.06 76.72 92.35 78.11 92.63 79.50 C 93.01 81.42 93.36 83.36 93.87 85.26 C 91.72 84.74 89.56 84.26 87.37 83.96 Z" />
</g>
<g id="#6abbd4ff">
<path fill="#6abbd4" opacity="1.00" d=" M 38.22 76.48 L 38.33 76.58 C 39.22 77.47 40.11 78.36 41.01 79.25 C 41.40 79.62 42.17 80.38 42.56 80.75 C 42.54 82.72 42.42 84.69 42.17 86.64 C 40.67 85.02 38.96 83.63 37.24 82.26 C 37.62 80.34 37.96 78.42 38.22 76.48 Z" />
</g>
<g id="#528cb9ff">
<path fill="#528cb9" opacity="1.00" d=" M 42.56 80.75 C 43.37 81.51 44.20 82.26 45.14 82.88 C 47.06 84.11 49.23 84.89 51.43 85.45 C 51.70 86.45 51.21 87.93 52.29 88.57 C 58.19 92.78 65.89 91.14 72.45 93.60 C 69.42 96.07 66.89 99.19 65.63 102.93 C 64.70 100.65 61.99 100.52 59.91 100.07 C 57.91 99.66 55.16 99.48 54.49 101.96 C 51.52 96.02 46.09 91.90 42.17 86.64 C 42.42 84.69 42.54 82.72 42.56 80.75 Z" />
</g>
<g id="#4c81a7ff">
<path fill="#4c81a7" opacity="1.00" d=" M 114.46 86.45 C 114.80 84.93 115.14 83.42 115.48 81.91 C 115.86 83.73 116.25 85.55 116.57 87.39 C 116.35 87.81 115.91 88.64 115.69 89.05 C 116.73 92.39 118.25 95.58 118.79 99.06 C 114.10 99.77 108.89 99.27 104.86 102.20 C 102.15 105.27 100.86 109.22 98.93 112.77 C 97.45 110.67 95.11 110.12 92.68 110.65 C 97.72 107.34 99.34 101.14 98.51 95.42 C 101.23 96.30 103.09 98.46 104.74 100.67 C 106.96 95.31 108.75 89.11 114.46 86.45 Z" />
</g>
<g id="#c0edc4ff">
<path fill="#c0edc4" opacity="1.00" d=" M 34.38 85.22 C 35.22 84.51 36.09 83.84 36.97 83.19 C 37.42 83.51 38.30 84.15 38.74 84.48 C 38.03 85.69 37.31 86.91 36.58 88.11 C 35.68 88.56 34.78 89.02 33.90 89.49 C 33.72 89.04 33.36 88.16 33.18 87.72 C 33.53 86.86 33.93 86.03 34.38 85.22 Z" />
</g>
<g id="#a7c1aeff">
<path fill="#a7c1ae" opacity="1.00" d=" M 38.74 84.48 C 41.43 87.08 43.66 90.11 46.20 92.85 C 48.89 95.85 52.08 98.63 53.46 102.53 C 54.40 104.92 55.01 108.00 53.06 110.07 C 50.74 113.38 46.31 113.38 42.69 113.57 C 41.28 113.21 39.93 112.68 38.58 112.14 C 41.17 111.97 44.30 112.35 46.23 110.20 C 47.86 108.44 48.92 105.61 47.62 103.37 C 45.75 99.39 41.35 97.63 38.82 94.18 C 37.41 92.46 37.10 90.20 36.58 88.11 C 37.31 86.91 38.03 85.69 38.74 84.48 Z" />
</g>
<g id="#9cbdabff">
<path fill="#9cbdab" opacity="1.00" d=" M 86.70 85.18 C 89.85 83.76 93.02 86.15 95.33 88.09 C 96.12 89.49 96.86 90.91 97.49 92.39 C 97.86 93.39 98.20 94.40 98.51 95.42 C 99.34 101.14 97.72 107.34 92.68 110.65 C 91.55 111.22 90.44 111.81 89.31 112.37 C 85.09 114.26 80.31 114.31 75.79 113.78 C 81.64 112.93 88.05 110.14 90.53 104.40 C 92.36 100.52 92.81 96.04 92.23 91.83 C 91.33 90.99 90.26 90.62 89.03 90.72 C 81.30 91.30 76.55 100.10 68.43 98.77 C 73.49 93.08 79.71 88.25 86.70 85.18 Z" />
</g>
<g id="#eff1c6ff">
<path fill="#eff1c6" opacity="1.00" d=" M 33.18 87.72 C 33.36 88.16 33.72 89.04 33.90 89.49 C 33.81 89.85 33.63 90.59 33.55 90.96 C 33.07 92.93 32.50 94.97 32.90 97.02 C 33.34 100.09 36.28 102.02 37.04 104.95 C 36.45 106.55 35.44 107.94 34.54 109.38 C 33.11 107.66 32.03 105.67 31.24 103.58 C 31.14 102.39 31.01 101.21 30.86 100.02 C 31.08 98.32 31.14 96.59 30.92 94.88 C 31.06 94.09 31.33 92.50 31.46 91.70 C 32.00 90.36 32.60 89.05 33.18 87.72 Z" />
</g>
<g id="#c5d3b8ff">
<path fill="#c5d3b8" opacity="1.00" d=" M 33.90 89.49 C 34.78 89.02 35.68 88.56 36.58 88.11 C 37.10 90.20 37.41 92.46 38.82 94.18 C 41.35 97.63 45.75 99.39 47.62 103.37 C 48.92 105.61 47.86 108.44 46.23 110.20 C 44.30 112.35 41.17 111.97 38.58 112.14 C 37.75 111.80 36.94 111.42 36.15 111.00 L 35.73 110.59 C 38.29 109.99 42.32 110.18 43.00 106.90 C 44.00 103.81 41.15 101.72 39.28 99.79 C 36.67 97.37 34.50 94.43 33.55 90.96 C 33.63 90.59 33.81 89.85 33.90 89.49 Z" />
</g>
<g id="#598bafff">
<path fill="#598baf" opacity="1.00" d=" M 25.30 92.27 C 27.28 91.54 29.38 91.33 31.46 91.70 C 31.33 92.50 31.06 94.09 30.92 94.88 C 30.52 95.10 29.73 95.54 29.33 95.75 C 28.14 96.91 26.97 98.07 25.80 99.24 C 24.18 97.79 22.31 96.67 20.33 95.79 C 19.16 95.44 17.98 95.14 16.79 94.88 C 16.54 93.98 16.30 93.08 16.06 92.18 C 19.11 92.45 22.29 93.31 25.30 92.27 Z" />
</g>
<g id="#dbe2c1ff">
<path fill="#dbe2c1" opacity="1.00" d=" M 32.90 97.02 C 32.50 94.97 33.07 92.93 33.55 90.96 C 34.50 94.43 36.67 97.37 39.28 99.79 C 41.15 101.72 44.00 103.81 43.00 106.90 C 42.32 110.18 38.29 109.99 35.73 110.59 C 35.43 110.29 34.84 109.68 34.54 109.38 C 35.44 107.94 36.45 106.55 37.04 104.95 C 36.28 102.02 33.34 100.09 32.90 97.02 Z" />
</g>
<g id="#b7cab4ff">
<path fill="#b7cab4" opacity="1.00" d=" M 68.43 98.77 C 76.55 100.10 81.30 91.30 89.03 90.72 C 90.26 90.62 91.33 90.99 92.23 91.83 C 92.81 96.04 92.36 100.52 90.53 104.40 C 88.05 110.14 81.64 112.93 75.79 113.78 C 74.35 113.53 72.95 113.10 71.57 112.63 C 75.71 111.14 80.66 111.16 83.98 107.91 C 86.61 105.52 88.72 101.90 87.70 98.25 C 86.71 96.73 84.63 96.89 83.11 97.31 C 78.71 98.52 74.71 100.81 70.62 102.79 C 69.35 103.58 67.83 103.40 66.42 103.39 C 66.93 101.79 67.58 100.22 68.43 98.77 Z" />
</g>
<g id="#88badbff">
<path fill="#88badb" opacity="1.00" d=" M 11.85 94.96 L 12.95 94.93 C 14.23 94.89 15.51 94.87 16.79 94.88 C 17.98 95.14 19.16 95.44 20.33 95.79 C 18.81 96.90 17.27 98.01 15.75 99.13 C 17.84 100.76 20.24 101.97 22.25 103.70 C 24.04 106.17 23.50 110.10 20.89 111.81 C 18.49 113.22 15.24 112.99 13.30 115.19 C 11.25 117.36 9.26 119.61 6.87 121.42 C 5.38 112.72 9.74 104.78 12.17 96.73 C 12.12 96.42 12.01 95.81 11.96 95.51 L 11.85 94.96 Z" />
</g>
<g id="#1b242664">
<path fill="#1b2426" opacity="0.39" d=" M 29.33 95.75 C 29.73 95.54 30.52 95.10 30.92 94.88 C 31.14 96.59 31.08 98.32 30.86 100.02 C 30.00 98.76 29.17 97.35 29.33 95.75 Z" />
</g>
<g id="#79aacdff">
<path fill="#79aacd" opacity="1.00" d=" M 20.33 95.79 C 22.31 96.67 24.18 97.79 25.80 99.24 C 26.20 99.65 27.02 100.47 27.42 100.88 C 27.31 101.66 27.09 103.23 26.98 104.02 C 26.75 106.72 26.73 109.43 26.88 112.14 L 27.58 112.39 C 28.11 112.61 29.19 113.06 29.73 113.28 C 29.90 114.76 30.06 116.24 30.21 117.72 C 30.08 118.55 29.81 120.22 29.68 121.05 C 29.29 124.71 29.61 128.39 29.64 132.06 C 26.94 133.83 24.13 135.59 20.81 135.79 C 20.26 134.29 19.69 132.80 19.02 131.36 C 20.13 130.28 21.24 129.21 22.34 128.12 C 22.73 128.29 23.52 128.62 23.92 128.79 C 24.37 127.72 24.80 126.64 25.28 125.58 C 27.02 122.37 27.70 118.75 27.18 115.12 C 21.87 118.93 16.07 121.98 10.65 125.61 C 9.31 126.40 8.84 127.95 8.09 129.22 C 7.16 127.62 5.96 126.05 5.98 124.11 C 5.72 120.09 4.94 115.99 5.97 112.01 C 5.96 115.32 6.14 118.61 6.32 121.91 C 6.46 121.79 6.73 121.55 6.87 121.42 C 9.26 119.61 11.25 117.36 13.30 115.19 C 15.24 112.99 18.49 113.22 20.89 111.81 C 23.50 110.10 24.04 106.17 22.25 103.70 C 20.24 101.97 17.84 100.76 15.75 99.13 C 17.27 98.01 18.81 96.90 20.33 95.79 Z" />
</g>
<g id="#ccd6b9ff">
<path fill="#ccd6b9" opacity="1.00" d=" M 70.62 102.79 C 74.71 100.81 78.71 98.52 83.11 97.31 C 84.63 96.89 86.71 96.73 87.70 98.25 C 88.72 101.90 86.61 105.52 83.98 107.91 C 80.66 111.16 75.71 111.14 71.57 112.63 C 67.94 110.95 65.47 107.52 66.42 103.39 C 67.83 103.40 69.35 103.58 70.62 102.79 Z" />
</g>
<g id="#79abccff">
<path fill="#79abcc" opacity="1.00" d=" M 104.86 102.20 C 108.89 99.27 114.10 99.77 118.79 99.06 C 119.26 99.94 119.75 100.83 120.24 101.71 C 117.22 107.73 120.01 114.69 117.69 120.85 C 114.79 127.57 107.74 131.19 101.07 133.17 C 100.58 133.34 99.59 133.66 99.09 133.82 C 97.67 134.19 96.23 134.47 94.78 134.71 C 96.36 133.08 98.70 131.05 97.48 128.53 C 97.23 127.25 96.14 127.46 95.18 127.68 C 95.13 127.33 95.03 126.65 94.97 126.30 C 97.55 120.80 104.23 120.41 109.43 119.50 C 113.39 118.16 113.35 113.54 113.95 110.12 C 111.79 108.87 109.50 107.87 107.32 106.67 C 105.63 105.85 105.56 103.72 104.86 102.20 Z" />
</g>
<g id="#73a2c3ff">
<path fill="#73a2c3" opacity="1.00" d=" M 54.49 101.96 C 55.16 99.48 57.91 99.66 59.91 100.07 C 61.99 100.52 64.70 100.65 65.63 102.93 C 65.36 105.52 65.39 108.56 67.56 110.39 C 73.29 115.65 82.02 115.10 89.06 113.36 C 88.81 114.37 88.55 115.37 88.28 116.38 C 89.36 118.36 90.64 120.26 91.42 122.39 C 91.56 125.00 91.07 127.62 91.61 130.21 C 83.94 132.66 75.96 134.46 67.88 134.42 C 68.77 133.80 69.66 133.18 70.55 132.56 C 68.77 125.29 66.70 117.34 60.21 112.80 C 58.20 110.42 55.15 111.88 52.68 112.45 C 55.60 109.69 56.12 105.54 54.49 101.96 Z" />
</g>
<g id="#0f191f64">
<path fill="#0f191f" opacity="0.39" d=" M 27.42 100.88 C 28.75 101.65 28.42 103.60 26.98 104.02 C 27.09 103.23 27.31 101.66 27.42 100.88 Z" />
</g>
<g id="#5c8eb0ff">
<path fill="#5c8eb0" opacity="1.00" d=" M 120.24 101.71 C 120.88 102.58 121.15 103.48 121.04 104.41 C 119.27 107.35 120.16 110.82 120.12 114.04 C 120.26 121.49 120.09 129.61 115.29 135.77 C 116.07 135.83 117.64 135.97 118.42 136.03 L 117.52 136.89 C 115.07 137.98 112.64 139.19 110.05 139.92 C 108.48 139.86 108.16 137.83 107.20 136.87 C 107.00 136.76 106.58 136.55 106.38 136.45 C 104.97 135.88 103.55 135.35 102.14 134.78 C 101.87 134.38 101.34 133.58 101.07 133.17 C 107.74 131.19 114.79 127.57 117.69 120.85 C 120.01 114.69 117.22 107.73 120.24 101.71 Z" />
</g>
<g id="#87b8daff">
<path fill="#87b8da" opacity="1.00" d=" M 98.93 112.77 C 100.86 109.22 102.15 105.27 104.86 102.20 C 105.56 103.72 105.63 105.85 107.32 106.67 C 109.50 107.87 111.79 108.87 113.95 110.12 C 113.35 113.54 113.39 118.16 109.43 119.50 C 104.23 120.41 97.55 120.80 94.97 126.30 C 93.68 121.42 97.05 117.01 98.93 112.77 Z" />
</g>
<g id="#92c6ddff">
<path fill="#92c6dd" opacity="1.00" d=" M 31.24 103.58 C 32.03 105.67 33.11 107.66 34.54 109.38 C 34.84 109.68 35.43 110.29 35.73 110.59 L 36.15 111.00 C 37.33 115.65 38.28 120.37 38.80 125.14 C 34.40 125.05 31.66 121.49 30.21 117.72 C 30.06 116.24 29.90 114.76 29.73 113.28 C 29.19 113.06 28.11 112.61 27.58 112.39 C 28.19 112.04 29.43 111.35 30.05 111.01 C 31.56 110.33 31.07 108.36 30.98 107.06 C 31.05 106.19 31.18 104.45 31.24 103.58 Z" />
</g>
<g id="#74a5c5ff">
<path fill="#74a5c5" opacity="1.00" d=" M 120.12 114.04 C 120.16 110.82 119.27 107.35 121.04 104.41 C 123.03 111.26 119.66 118.47 122.36 125.12 C 122.83 126.99 123.02 128.91 123.39 130.80 C 121.72 132.54 120.10 134.31 118.42 136.03 C 117.64 135.97 116.07 135.83 115.29 135.77 C 120.09 129.61 120.26 121.49 120.12 114.04 Z" />
</g>
<g id="#1d2a3070">
<path fill="#1d2a30" opacity="0.44" d=" M 30.05 111.01 C 29.33 109.72 29.55 107.77 30.98 107.06 C 31.07 108.36 31.56 110.33 30.05 111.01 Z" />
</g>
<g id="#6090b1ff">
<path fill="#6090b1" opacity="1.00" d=" M 92.68 110.65 C 95.11 110.12 97.45 110.67 98.93 112.77 C 97.05 117.01 93.68 121.42 94.97 126.30 C 95.03 126.65 95.13 127.33 95.18 127.68 L 94.84 128.76 C 93.77 129.27 92.70 129.75 91.61 130.21 C 91.07 127.62 91.56 125.00 91.42 122.39 C 90.64 120.26 89.36 118.36 88.28 116.38 C 88.55 115.37 88.81 114.37 89.06 113.36 L 89.31 112.37 C 90.44 111.81 91.55 111.22 92.68 110.65 Z" />
</g>
<g id="#87b4d4ff">
<path fill="#87b4d4" opacity="1.00" d=" M 36.15 111.00 C 36.94 111.42 37.75 111.80 38.58 112.14 C 39.93 112.68 41.28 113.21 42.69 113.57 C 46.06 114.13 49.49 113.61 52.68 112.45 C 55.15 111.88 58.20 110.42 60.21 112.80 C 66.70 117.34 68.77 125.29 70.55 132.56 C 69.66 133.18 68.77 133.80 67.88 134.42 C 54.82 134.82 40.48 132.75 30.65 123.35 C 30.41 122.78 29.92 121.62 29.68 121.05 C 29.81 120.22 30.08 118.55 30.21 117.72 C 31.66 121.49 34.40 125.05 38.80 125.14 C 38.28 120.37 37.33 115.65 36.15 111.00 Z" />
</g>
<g id="#6595b8ff">
<path fill="#6595b8" opacity="1.00" d=" M 10.65 125.61 C 16.07 121.98 21.87 118.93 27.18 115.12 C 27.70 118.75 27.02 122.37 25.28 125.58 C 24.45 124.03 23.65 122.47 22.86 120.91 C 20.07 121.49 19.70 123.99 19.71 126.46 C 19.31 125.84 18.92 125.23 18.54 124.61 C 15.33 126.58 11.96 128.37 9.23 131.01 C 8.94 130.57 8.37 129.67 8.09 129.22 C 8.84 127.95 9.31 126.40 10.65 125.61 Z" />
</g>
<g id="#b7d3deff">
<path fill="#b7d3de" opacity="1.00" d=" M 19.71 126.46 C 19.70 123.99 20.07 121.49 22.86 120.91 C 23.65 122.47 24.45 124.03 25.28 125.58 C 24.80 126.64 24.37 127.72 23.92 128.79 C 23.52 128.62 22.73 128.29 22.34 128.12 C 21.68 127.70 20.36 126.87 19.71 126.46 Z" />
</g>
<g id="#4c80a5ff">
<path fill="#4c80a5" opacity="1.00" d=" M 9.23 131.01 C 11.96 128.37 15.33 126.58 18.54 124.61 C 18.92 125.23 19.31 125.84 19.71 126.46 C 20.36 126.87 21.68 127.70 22.34 128.12 C 21.24 129.21 20.13 130.28 19.02 131.36 C 17.77 128.01 13.81 129.15 11.57 130.74 C 13.60 132.74 15.58 134.79 17.66 136.73 C 15.52 137.26 13.68 135.82 11.99 134.74 C 10.91 133.63 10.09 132.30 9.23 131.01 Z" />
</g>
<g id="#dadfbbff">
<path fill="#dadfbb" opacity="1.00" d=" M 30.05 123.52 C 33.63 126.51 37.37 129.46 41.73 131.24 C 51.39 135.38 62.13 135.79 72.49 135.43 C 69.93 137.26 66.13 136.51 64.14 139.16 C 61.79 142.16 58.07 143.26 54.70 144.66 C 46.48 142.95 38.86 138.86 32.79 133.07 C 32.05 132.39 31.32 131.71 30.58 131.03 C 30.41 128.53 30.23 126.02 30.05 123.52 Z" />
</g>
<g id="#bdd8e4ff">
<path fill="#bdd8e4" opacity="1.00" d=" M 95.18 127.68 C 96.14 127.46 97.23 127.25 97.48 128.53 C 98.70 131.05 96.36 133.08 94.78 134.71 C 94.35 134.79 93.48 134.93 93.05 135.00 C 93.24 133.52 93.45 132.03 93.74 130.56 C 94.02 130.11 94.56 129.21 94.84 128.76 L 95.18 127.68 Z" />
</g>
<g id="#a2c6d8ff">
<path fill="#a2c6d8" opacity="1.00" d=" M 11.57 130.74 C 13.81 129.15 17.77 128.01 19.02 131.36 C 19.69 132.80 20.26 134.29 20.81 135.79 C 20.90 136.03 21.07 136.50 21.16 136.74 C 20.59 136.99 19.45 137.49 18.88 137.74 C 18.47 137.40 18.07 137.07 17.66 136.73 C 15.58 134.79 13.60 132.74 11.57 130.74 Z" />
</g>
<g id="#a4b8a2ff">
<path fill="#a4b8a2" opacity="1.00" d=" M 84.03 133.38 C 87.27 132.47 90.51 131.52 93.74 130.56 C 93.45 132.03 93.24 133.52 93.05 135.00 C 93.48 134.93 94.35 134.79 94.78 134.71 C 96.23 134.47 97.67 134.19 99.09 133.82 C 98.37 134.67 97.69 135.54 96.98 136.39 C 93.00 139.22 88.65 141.54 84.04 143.13 C 83.67 142.78 82.92 142.08 82.54 141.73 C 84.03 139.38 88.36 135.08 84.03 133.38 Z" />
</g>
<g id="#6597bcff">
<path fill="#6597bc" opacity="1.00" d=" M 123.39 130.80 C 125.72 133.64 125.61 137.61 125.81 141.08 C 125.19 143.57 123.93 145.84 123.05 148.24 C 122.68 147.78 121.95 146.85 121.58 146.39 C 118.24 151.58 111.54 152.05 105.95 152.07 C 102.32 151.90 98.49 152.32 95.13 150.66 C 94.92 151.07 94.49 151.89 94.28 152.30 C 93.48 151.00 92.56 149.77 91.65 148.54 C 94.98 145.36 97.05 141.20 99.06 137.12 C 99.56 135.75 100.76 135.04 102.14 134.78 C 101.29 137.13 100.54 139.52 100.17 141.99 C 103.36 141.77 104.86 138.83 106.38 136.45 C 106.58 136.55 107.00 136.76 107.20 136.87 C 108.16 137.83 108.48 139.86 110.05 139.92 C 112.64 139.19 115.07 137.98 117.52 136.89 L 118.42 136.03 C 120.10 134.31 121.72 132.54 123.39 130.80 M 103.74 144.47 C 105.94 143.76 107.96 141.82 107.77 139.33 C 104.55 138.90 103.27 141.73 103.74 144.47 Z" />
</g>
<g id="#649bc2ff">
<path fill="#649bc2" opacity="1.00" d=" M 22.72 136.34 C 25.56 135.63 28.00 133.94 30.38 132.31 C 32.37 135.98 33.52 140.15 36.34 143.33 C 32.29 147.59 27.10 150.60 23.36 155.15 C 25.53 156.76 28.26 156.96 30.86 157.26 C 29.81 158.07 28.76 158.89 27.72 159.70 C 27.60 160.44 27.48 161.19 27.37 161.94 C 27.23 162.92 27.14 163.91 27.11 164.90 C 22.66 164.54 18.19 164.09 13.72 164.54 C 14.99 164.17 16.25 163.78 17.52 163.40 C 17.34 162.28 17.16 161.16 16.98 160.05 C 16.09 159.62 15.20 159.22 14.31 158.82 L 13.53 158.45 C 14.50 157.98 16.43 157.02 17.40 156.55 L 15.72 155.50 C 16.41 155.48 17.02 155.71 17.55 156.15 C 18.35 155.64 19.15 155.13 19.94 154.62 C 18.96 153.34 18.01 152.04 17.08 150.73 L 17.16 150.51 C 18.56 146.70 20.35 142.97 20.85 138.89 C 21.81 138.48 22.77 138.07 23.73 137.66 C 23.48 137.33 22.97 136.67 22.72 136.34 Z" />
</g>
<g id="#4f6e76fa">
<path fill="#4f6e76" opacity="0.98" d=" M 99.09 133.82 C 99.59 133.66 100.58 133.34 101.07 133.17 C 101.34 133.58 101.87 134.38 102.14 134.78 C 100.76 135.04 99.56 135.75 99.06 137.12 C 97.05 141.20 94.98 145.36 91.65 148.54 C 91.22 148.61 90.36 148.74 89.92 148.80 C 92.47 145.34 95.99 142.16 96.72 137.74 L 96.98 136.39 C 97.69 135.54 98.37 134.67 99.09 133.82 Z" />
</g>
<g id="#bac7abff">
<path fill="#bac7ab" opacity="1.00" d=" M 73.69 135.21 C 77.13 134.58 80.63 134.27 84.03 133.38 C 88.36 135.08 84.03 139.38 82.54 141.73 C 82.92 142.08 83.67 142.78 84.04 143.13 C 80.82 144.05 77.55 144.82 74.24 145.37 C 73.82 144.96 72.98 144.15 72.55 143.75 C 74.75 141.77 76.09 139.14 76.80 136.30 C 76.02 136.03 74.47 135.49 73.69 135.21 Z" />
</g>
<g id="#7dafd1ff">
<path fill="#7dafd1" opacity="1.00" d=" M 11.99 134.74 C 13.68 135.82 15.52 137.26 17.66 136.73 C 18.07 137.07 18.47 137.40 18.88 137.74 C 19.45 137.49 20.59 136.99 21.16 136.74 C 21.55 136.64 22.33 136.44 22.72 136.34 C 22.97 136.67 23.48 137.33 23.73 137.66 C 22.77 138.07 21.81 138.48 20.85 138.89 C 20.35 142.97 18.56 146.70 17.16 150.51 C 14.58 145.63 11.15 140.54 11.99 134.74 Z" />
</g>
<g id="#bfcdb0ff">
<path fill="#bfcdb0" opacity="1.00" d=" M 31.75 134.19 C 35.21 135.43 37.64 138.34 40.80 140.11 C 47.38 144.30 55.09 146.36 62.81 147.03 C 66.58 147.85 70.46 147.76 74.29 148.07 C 69.79 149.86 65.07 151.59 60.14 151.29 C 61.21 151.74 62.28 152.19 63.35 152.66 C 62.50 152.77 60.82 152.99 59.98 153.10 C 55.63 152.50 51.54 150.94 47.65 148.99 L 46.15 148.47 C 45.27 148.19 44.38 147.91 43.50 147.63 C 37.95 144.77 34.77 139.39 31.75 134.19 Z" />
</g>
<g id="#bbdce8ff">
<path fill="#bbdce8" opacity="1.00" d=" M 102.14 134.78 C 103.55 135.35 104.97 135.88 106.38 136.45 C 104.86 138.83 103.36 141.77 100.17 141.99 C 100.54 139.52 101.29 137.13 102.14 134.78 Z" />
</g>
<g id="#ccd3b3ff">
<path fill="#ccd3b3" opacity="1.00" d=" M 72.49 135.43 C 72.79 135.38 73.39 135.27 73.69 135.21 C 74.47 135.49 76.02 136.03 76.80 136.30 C 76.09 139.14 74.75 141.77 72.55 143.75 C 72.98 144.15 73.82 144.96 74.24 145.37 C 67.75 145.96 61.10 146.14 54.70 144.66 C 58.07 143.26 61.79 142.16 64.14 139.16 C 66.13 136.51 69.93 137.26 72.49 135.43 Z" />
</g>
<g id="#86a394ff">
<path fill="#86a394" opacity="1.00" d=" M 89.31 142.36 C 91.90 141.03 94.46 139.60 96.72 137.74 C 95.99 142.16 92.47 145.34 89.92 148.80 C 87.60 150.81 84.67 151.95 81.76 152.83 C 83.74 150.13 86.20 147.85 88.45 145.40 C 89.46 144.66 89.32 143.44 89.31 142.36 Z" />
</g>
<g id="#acd1e0ff">
<path fill="#acd1e0" opacity="1.00" d=" M 103.74 144.47 C 103.27 141.73 104.55 138.90 107.77 139.33 C 107.96 141.82 105.94 143.76 103.74 144.47 Z" />
</g>
<g id="#a7b9a3ff">
<path fill="#a7b9a3" opacity="1.00" d=" M 62.81 147.03 C 71.80 146.99 81.15 146.61 89.31 142.36 C 89.32 143.44 89.46 144.66 88.45 145.40 C 86.20 147.85 83.74 150.13 81.76 152.83 C 74.68 154.66 67.08 154.98 59.98 153.10 C 60.82 152.99 62.50 152.77 63.35 152.66 C 62.28 152.19 61.21 151.74 60.14 151.29 C 65.07 151.59 69.79 149.86 74.29 148.07 C 70.46 147.76 66.58 147.85 62.81 147.03 Z" />
</g>
<g id="#4e85acff">
<path fill="#4e85ac" opacity="1.00" d=" M 23.36 155.15 C 27.10 150.60 32.29 147.59 36.34 143.33 C 37.34 144.28 38.38 145.19 39.43 146.08 C 36.15 149.79 32.01 152.53 28.20 155.65 C 32.51 155.72 36.77 156.39 41.06 156.78 C 43.01 157.14 44.56 155.73 46.01 154.68 C 47.24 156.57 47.16 158.82 47.11 160.98 C 42.88 165.20 36.33 165.80 30.66 165.75 C 31.73 165.25 32.79 164.75 33.86 164.26 C 33.92 160.88 29.47 158.96 27.37 161.94 C 27.48 161.19 27.60 160.44 27.72 159.70 C 28.76 158.89 29.81 158.07 30.86 157.26 C 28.26 156.96 25.53 156.76 23.36 155.15 Z" />
</g>
<g id="#41759dff">
<path fill="#41759d" opacity="1.00" d=" M 39.43 146.08 C 40.71 146.79 42.10 147.23 43.50 147.63 C 44.38 147.91 45.27 148.19 46.15 148.47 C 43.15 149.54 41.70 152.47 40.17 155.02 C 42.19 154.63 44.19 154.10 46.00 153.11 C 46.00 153.50 46.01 154.29 46.01 154.68 C 44.56 155.73 43.01 157.14 41.06 156.78 C 36.77 156.39 32.51 155.72 28.20 155.65 C 32.01 152.53 36.15 149.79 39.43 146.08 Z" />
</g>
<g id="#4e82a7ff">
<path fill="#4e82a7" opacity="1.00" d=" M 105.95 152.07 C 111.54 152.05 118.24 151.58 121.58 146.39 C 121.95 146.85 122.68 147.78 123.05 148.24 C 122.07 151.35 120.00 154.41 120.57 157.79 C 120.21 156.49 119.91 155.17 119.59 153.86 C 119.01 155.14 118.43 156.43 117.85 157.71 C 110.95 159.53 103.90 158.23 96.92 158.08 L 96.47 158.08 C 95.46 160.22 95.82 162.62 96.08 164.89 C 94.44 162.46 96.05 159.40 96.09 156.73 C 95.58 155.21 94.86 153.79 94.28 152.30 C 94.49 151.89 94.92 151.07 95.13 150.66 C 98.49 152.32 102.32 151.90 105.95 152.07 Z" />
</g>
<g id="#5b91bcff">
<path fill="#5b91bc" opacity="1.00" d=" M 117.85 157.71 C 118.43 156.43 119.01 155.14 119.59 153.86 C 119.91 155.17 120.21 156.49 120.57 157.79 C 122.30 160.20 124.75 162.40 124.69 165.63 C 123.22 164.49 122.11 162.33 120.06 162.26 C 117.66 162.46 117.56 165.35 116.74 167.06 C 113.05 167.17 109.37 167.23 105.68 167.20 C 104.87 165.61 105.05 162.57 102.71 162.55 C 100.53 162.38 99.16 164.35 98.17 165.99 C 98.72 166.43 99.81 167.29 100.36 167.72 C 98.52 167.84 97.01 166.85 95.69 165.70 L 96.08 164.89 C 97.28 162.84 97.69 160.35 96.92 158.08 C 103.90 158.23 110.95 159.53 117.85 157.71 Z" />
</g>
<g id="#6eacd1ff">
<path fill="#6eacd1" opacity="1.00" d=" M 96.47 158.08 L 96.92 158.08 C 97.69 160.35 97.28 162.84 96.08 164.89 C 95.82 162.62 95.46 160.22 96.47 158.08 Z" />
</g>
<g id="#a6ccdeff">
<path fill="#a6ccde" opacity="1.00" d=" M 13.34 158.86 L 14.31 158.82 C 15.20 159.22 16.09 159.62 16.98 160.05 C 17.16 161.16 17.34 162.28 17.52 163.40 C 16.25 163.78 14.99 164.17 13.72 164.54 C 12.87 164.77 11.16 165.23 10.31 165.46 C 10.51 164.63 10.90 162.97 11.09 162.14 C 12.00 161.17 12.82 160.10 13.34 158.86 Z" />
</g>
<g id="#9ecbdbff">
<path fill="#9ecbdb" opacity="1.00" d=" M 27.37 161.94 C 29.47 158.96 33.92 160.88 33.86 164.26 C 32.79 164.75 31.73 165.25 30.66 165.75 C 29.92 166.08 28.44 166.73 27.70 167.05 C 27.55 166.51 27.26 165.44 27.11 164.90 C 27.14 163.91 27.23 162.92 27.37 161.94 Z" />
</g>
<g id="#abd2e5ff">
<path fill="#abd2e5" opacity="1.00" d=" M 98.17 165.99 C 99.16 164.35 100.53 162.38 102.71 162.55 C 105.05 162.57 104.87 165.61 105.68 167.20 C 104.45 167.73 103.26 168.35 102.09 169.01 C 101.66 168.69 100.79 168.04 100.36 167.72 C 99.81 167.29 98.72 166.43 98.17 165.99 Z" />
</g>
<g id="#afd7e6ff">
<path fill="#afd7e6" opacity="1.00" d=" M 116.74 167.06 C 117.56 165.35 117.66 162.46 120.06 162.26 C 122.11 162.33 123.22 164.49 124.69 165.63 C 123.91 166.60 123.14 167.58 122.37 168.56 C 120.54 167.88 118.68 167.28 116.74 167.06 Z" />
</g>
</svg>
