<?xml version="1.0" encoding="UTF-8" ?>
<!DOCTYPE svg PUBLIC "-//W3C//DTD SVG 1.1//EN" "http://www.w3.org/Graphics/SVG/1.1/DTD/svg11.dtd">
<svg width="117pt" height="128pt" viewBox="0 0 117 128" version="1.1" xmlns="http://www.w3.org/2000/svg">
<g id="#d5a8c5fb">
<path fill="#d5a8c5" opacity="1.00" d=" M 6.04 17.17 C 6.75 16.21 8.51 15.36 9.34 16.67 C 13.52 21.93 17.56 27.62 19.23 34.24 C 15.57 34.43 10.80 34.06 9.16 38.10 C 7.84 33.82 6.82 29.42 6.02 25.01 C 6.01 22.40 6.01 19.79 6.04 17.17 Z" />
</g>
<g id="#1713134b">
<path fill="#171313" opacity="0.29" d=" M 5.08 16.97 L 6.04 17.17 C 6.01 19.79 6.01 22.40 6.02 25.01 C 3.75 24.14 5.48 19.38 5.08 16.97 Z" />
</g>
<g id="#b186b2fd">
<path fill="#b186b2" opacity="1.00" d=" M 95.00 24.32 C 99.52 25.41 103.68 23.52 108.05 22.96 C 108.06 25.96 104.74 27.28 102.89 29.17 C 102.30 29.89 101.90 30.73 101.68 31.68 C 99.97 30.57 97.87 29.20 95.92 30.73 C 87.65 34.43 79.04 37.90 72.71 44.71 C 63.58 51.36 60.30 62.85 54.65 72.12 C 52.54 74.52 51.56 77.40 51.92 80.70 C 49.77 83.25 47.03 85.24 45.04 87.93 C 44.10 89.09 43.06 90.27 42.77 91.79 C 41.54 93.04 40.39 94.36 39.47 95.85 C 38.87 96.66 38.28 97.48 37.69 98.30 C 33.82 98.47 30.99 100.88 29.07 104.08 C 28.61 104.32 27.68 104.82 27.22 105.07 C 25.20 104.94 22.73 106.73 21.04 105.11 C 27.12 103.31 28.28 95.02 24.81 90.39 C 29.02 90.39 31.57 85.91 31.04 82.07 C 31.00 79.48 30.64 76.95 29.97 74.47 C 33.83 75.10 36.86 78.01 37.39 81.93 C 39.71 81.54 41.30 79.45 42.96 77.95 C 46.40 74.78 44.82 69.29 48.02 66.01 C 49.86 64.56 48.12 62.49 47.51 60.88 C 47.48 58.31 48.99 55.88 50.36 53.77 C 51.12 56.45 48.93 59.82 51.20 61.94 C 52.87 62.32 54.43 61.91 55.00 60.17 C 57.51 56.65 53.15 52.70 54.76 48.95 C 57.37 44.75 59.51 40.27 62.16 36.11 C 67.01 34.56 63.33 39.45 63.98 42.04 C 66.91 42.46 67.08 38.67 69.11 37.33 C 70.13 37.44 71.38 38.20 72.23 37.25 C 79.24 32.09 86.89 27.38 95.00 24.32 Z" />
</g>
<g id="#9d70a4fb">
<path fill="#9d70a4" opacity="1.00" d=" M 101.68 31.68 C 101.90 30.73 102.30 29.89 102.89 29.17 C 102.87 30.82 105.64 31.00 104.74 32.73 C 103.43 34.17 102.06 35.54 100.75 36.98 C 100.30 36.66 99.40 36.02 98.94 35.70 C 98.70 33.83 100.06 30.29 96.93 30.86 L 95.92 30.73 C 97.87 29.20 99.97 30.57 101.68 31.68 Z" />
</g>
<g id="#05485dff">
<path fill="#05485d" opacity="1.00" d=" M 72.71 44.71 C 79.04 37.90 87.65 34.43 95.92 30.73 L 96.93 30.86 C 98.71 33.09 97.42 35.75 96.48 38.02 C 94.46 35.90 91.96 37.89 90.26 39.27 C 80.73 48.09 73.07 58.76 63.39 67.37 C 62.26 70.25 61.14 73.23 61.20 76.37 C 59.99 77.00 59.46 76.48 59.62 74.81 C 60.36 72.58 61.15 70.31 61.04 67.92 C 57.72 67.22 57.63 73.87 54.65 72.12 C 60.30 62.85 63.58 51.36 72.71 44.71 Z" />
</g>
<g id="#143545ff">
<path fill="#143545" opacity="1.00" d=" M 96.93 30.86 C 100.06 30.29 98.70 33.83 98.94 35.70 C 93.58 45.67 88.86 56.65 80.06 64.10 C 86.05 55.76 91.58 47.05 96.48 38.02 C 97.42 35.75 98.71 33.09 96.93 30.86 Z" />
</g>
<g id="#b286b2fc">
<path fill="#b286b2" opacity="1.00" d=" M 9.16 38.10 C 10.80 34.06 15.57 34.43 19.23 34.24 C 20.88 36.47 21.96 40.84 22.11 44.10 C 19.84 48.72 19.74 53.95 19.97 59.01 C 19.94 60.87 21.10 62.70 22.86 63.33 C 22.85 63.82 22.83 64.78 22.82 65.26 C 21.23 66.50 19.48 67.49 17.87 68.70 L 17.20 68.97 C 13.36 59.04 11.63 48.40 9.16 38.10 Z" />
</g>
<g id="#875c94fc">
<path fill="#875c94" opacity="1.00" d=" M 80.06 64.10 C 88.86 56.65 93.58 45.67 98.94 35.70 C 99.40 36.02 100.30 36.66 100.75 36.98 C 95.21 49.84 87.70 61.99 77.56 71.80 C 72.94 74.76 68.47 77.96 64.01 81.16 C 64.18 83.94 65.12 86.58 65.60 89.31 C 65.71 97.31 61.61 104.26 57.95 111.08 L 57.57 110.45 C 59.75 103.61 55.48 106.16 53.37 107.36 C 52.08 109.75 47.75 112.03 49.92 115.02 C 49.50 114.95 48.67 114.83 48.26 114.76 C 44.82 114.24 41.38 113.74 37.94 113.29 C 43.18 109.14 49.70 107.56 55.48 104.53 C 57.98 100.75 62.40 97.94 61.61 92.63 C 63.88 87.63 58.78 84.46 57.91 80.07 C 65.48 75.94 73.79 72.13 79.09 65.05 C 79.34 64.81 79.82 64.34 80.06 64.10 Z" />
</g>
<g id="#005461ff">
<path fill="#005461" opacity="1.00" d=" M 90.26 39.27 C 91.96 37.89 94.46 35.90 96.48 38.02 C 91.58 47.05 86.05 55.76 80.06 64.10 C 79.82 64.34 79.34 64.81 79.09 65.05 C 73.00 68.52 67.96 74.07 61.20 76.37 C 61.14 73.23 62.26 70.25 63.39 67.37 C 73.07 58.76 80.73 48.09 90.26 39.27 Z" />
</g>
<g id="#996d9efc">
<path fill="#996d9e" opacity="1.00" d=" M 22.11 44.10 C 24.06 43.77 22.55 47.64 23.02 49.01 C 22.95 53.78 23.06 58.56 22.86 63.33 C 21.10 62.70 19.94 60.87 19.97 59.01 C 19.74 53.95 19.84 48.72 22.11 44.10 Z" />
</g>
<g id="#a378a5fa">
<path fill="#a378a5" opacity="0.98" d=" M 50.36 53.77 C 50.12 51.32 50.64 46.63 53.96 46.96 C 53.91 47.40 53.79 48.26 53.74 48.69 C 54.42 51.59 49.94 60.00 55.00 60.17 C 54.43 61.91 52.87 62.32 51.20 61.94 C 48.93 59.82 51.12 56.45 50.36 53.77 Z" />
</g>
<g id="#614366cd">
<path fill="#614366" opacity="0.80" d=" M 23.02 49.01 L 23.98 49.00 C 24.72 54.33 22.73 60.33 24.89 65.36 C 24.22 65.92 23.53 65.89 22.82 65.26 C 22.83 64.78 22.85 63.82 22.86 63.33 C 23.06 58.56 22.95 53.78 23.02 49.01 Z" />
</g>
<g id="#946a99fc">
<path fill="#946a99" opacity="1.00" d=" M 55.00 60.17 C 49.94 60.00 54.42 51.59 53.74 48.69 L 54.76 48.95 C 53.15 52.70 57.51 56.65 55.00 60.17 Z" />
</g>
<g id="#d8a7c1fc">
<path fill="#d8a7c1" opacity="1.00" d=" M 24.89 65.36 C 30.67 61.38 38.82 59.65 45.16 63.19 C 44.92 63.43 44.43 63.92 44.18 64.16 C 37.75 63.41 30.79 65.38 26.42 70.25 C 26.48 71.72 26.45 73.17 24.95 73.91 C 22.87 73.95 17.62 73.63 19.64 77.03 L 19.93 77.81 C 17.02 86.53 22.31 95.26 19.47 103.87 C 19.65 105.65 19.87 107.43 19.91 109.22 C 18.64 107.37 17.74 105.30 16.66 103.34 C 14.53 101.96 15.17 104.93 14.73 106.17 C 14.49 105.66 14.01 104.64 13.78 104.13 C 14.77 99.57 14.96 94.89 15.32 90.25 C 15.77 86.84 16.09 83.42 16.01 79.98 C 15.54 76.03 18.60 72.69 17.87 68.70 C 19.48 67.49 21.23 66.50 22.82 65.26 C 23.53 65.89 24.22 65.92 24.89 65.36 Z" />
</g>
<g id="#b98eb8fe">
<path fill="#b98eb8" opacity="1.00" d=" M 47.51 60.88 C 48.12 62.49 49.86 64.56 48.02 66.01 C 44.82 69.29 46.40 74.78 42.96 77.95 C 41.30 79.45 39.71 81.54 37.39 81.93 C 36.86 78.01 33.83 75.10 29.97 74.47 C 29.41 74.31 28.30 74.00 27.74 73.85 C 31.07 72.33 34.43 70.82 38.02 70.04 C 41.15 69.66 42.60 66.48 44.18 64.16 C 44.43 63.92 44.92 63.43 45.16 63.19 C 45.94 62.42 46.73 61.65 47.51 60.88 Z" />
</g>
<g id="#c799bfff">
<path fill="#c799bf" opacity="1.00" d=" M 26.42 70.25 C 30.79 65.38 37.75 63.41 44.18 64.16 C 42.60 66.48 41.15 69.66 38.02 70.04 C 34.43 70.82 31.07 72.33 27.74 73.85 C 27.04 73.86 25.65 73.89 24.95 73.91 C 26.45 73.17 26.48 71.72 26.42 70.25 Z" />
</g>
<g id="#163646ff">
<path fill="#163646" opacity="1.00" d=" M 61.20 76.37 C 67.96 74.07 73.00 68.52 79.09 65.05 C 73.79 72.13 65.48 75.94 57.91 80.07 C 57.84 78.15 58.80 76.46 59.62 74.81 C 59.46 76.48 59.99 77.00 61.20 76.37 Z" />
</g>
<g id="#90669cff">
<path fill="#90669c" opacity="1.00" d=" M 54.65 72.12 C 57.63 73.87 57.72 67.22 61.04 67.92 C 61.15 70.31 60.36 72.58 59.62 74.81 C 58.80 76.46 57.84 78.15 57.91 80.07 C 58.78 84.46 63.88 87.63 61.61 92.63 C 62.40 97.94 57.98 100.75 55.48 104.53 C 49.70 107.56 43.18 109.14 37.94 113.29 C 37.61 113.71 36.94 114.55 36.60 114.97 C 34.78 114.93 32.95 114.90 31.13 114.91 L 30.95 114.08 C 31.11 112.33 29.54 111.72 28.33 110.93 C 26.86 109.79 25.45 108.59 24.08 107.33 C 25.44 106.95 27.01 106.76 27.22 105.07 C 27.68 104.82 28.61 104.32 29.07 104.08 C 28.75 105.02 28.46 105.97 28.19 106.93 C 31.37 107.54 34.85 108.29 37.89 106.85 C 43.35 104.41 49.29 103.24 54.70 100.68 C 60.44 96.72 57.46 88.38 56.06 82.98 C 55.72 81.05 53.44 81.00 51.92 80.70 C 51.56 77.40 52.54 74.52 54.65 72.12 Z" />
</g>
<g id="#9e73a4fe">
<path fill="#9e73a4" opacity="1.00" d=" M 64.01 81.16 C 68.47 77.96 72.94 74.76 77.56 71.80 C 83.94 76.74 91.86 81.91 94.05 90.07 C 94.00 90.56 93.90 91.53 93.85 92.02 C 88.40 88.51 83.42 80.74 76.20 81.77 C 75.32 80.80 74.32 79.95 72.93 79.91 C 72.98 81.99 73.90 83.87 74.62 85.77 C 73.50 88.74 76.22 91.23 76.68 94.09 C 77.31 96.30 77.99 98.51 78.32 100.79 C 77.24 106.46 76.72 113.04 71.73 116.77 C 68.67 117.15 61.34 113.69 61.98 119.61 L 61.17 119.99 C 60.34 118.08 60.05 116.02 59.82 113.97 C 59.25 112.97 58.54 112.06 57.95 111.08 C 61.61 104.26 65.71 97.31 65.60 89.31 C 65.12 86.58 64.18 83.94 64.01 81.16 Z" />
</g>
<g id="#a47aaaff">
<path fill="#a47aaa" opacity="1.00" d=" M 19.64 77.03 C 17.62 73.63 22.87 73.95 24.95 73.91 C 25.65 73.89 27.04 73.86 27.74 73.85 C 28.30 74.00 29.41 74.31 29.97 74.47 C 30.64 76.95 31.00 79.48 31.04 82.07 C 28.61 82.52 26.15 82.28 23.70 82.02 C 26.73 81.12 30.41 80.09 28.95 76.10 C 26.15 76.42 21.39 73.23 19.64 77.03 Z" />
</g>
<g id="#92699eff">
<path fill="#92699e" opacity="1.00" d=" M 19.64 77.03 C 21.39 73.23 26.15 76.42 28.95 76.10 C 30.41 80.09 26.73 81.12 23.70 82.02 L 23.09 81.99 C 22.92 80.07 21.27 78.95 19.93 77.81 L 19.64 77.03 Z" />
</g>
<g id="#bf93bdff">
<path fill="#bf93bd" opacity="1.00" d=" M 19.93 77.81 C 21.27 78.95 22.92 80.07 23.09 81.99 C 21.56 85.04 21.70 88.45 24.81 90.39 C 28.28 95.02 27.12 103.31 21.04 105.11 C 20.65 104.80 19.86 104.18 19.47 103.87 C 22.31 95.26 17.02 86.53 19.93 77.81 Z" />
</g>
<g id="#7b636bba">
<path fill="#7b636b" opacity="0.73" d=" M 15.03 80.02 L 16.01 79.98 C 16.09 83.42 15.77 86.84 15.32 90.25 C 15.10 86.84 14.86 83.43 15.03 80.02 Z" />
</g>
<g id="#613d69ff">
<path fill="#613d69" opacity="1.00" d=" M 72.93 79.91 C 74.32 79.95 75.32 80.80 76.20 81.77 C 76.42 82.32 76.85 83.42 77.07 83.97 C 77.46 86.50 76.85 87.62 74.62 85.77 C 73.90 83.87 72.98 81.99 72.93 79.91 Z" />
</g>
<g id="#9b72a5ff">
<path fill="#9b72a5" opacity="1.00" d=" M 45.04 87.93 C 47.03 85.24 49.77 83.25 51.92 80.70 C 53.44 81.00 55.72 81.05 56.06 82.98 C 57.46 88.38 60.44 96.72 54.70 100.68 C 49.29 103.24 43.35 104.41 37.89 106.85 C 34.85 108.29 31.37 107.54 28.19 106.93 C 28.46 105.97 28.75 105.02 29.07 104.08 C 30.99 100.88 33.82 98.47 37.69 98.30 C 39.44 98.86 41.27 99.12 43.11 99.16 C 44.61 98.87 50.15 98.96 48.06 96.73 C 48.97 96.04 50.00 95.39 50.35 94.21 C 51.53 91.89 51.18 88.28 48.89 86.82 C 47.66 87.08 46.86 88.03 46.05 88.91 C 45.80 88.66 45.29 88.17 45.04 87.93 Z" />
</g>
<g id="#8b6298fb">
<path fill="#8b6298" opacity="1.00" d=" M 76.20 81.77 C 83.42 80.74 88.40 88.51 93.85 92.02 C 93.90 91.53 94.00 90.56 94.05 90.07 L 94.89 90.06 C 95.72 96.06 97.62 103.87 92.64 108.35 C 91.35 106.09 92.65 103.94 93.77 101.97 C 92.90 96.08 88.60 91.49 84.24 87.78 C 82.14 85.93 78.65 86.52 77.07 83.97 C 76.85 83.42 76.42 82.32 76.20 81.77 Z" />
</g>
<g id="#6f4870ff">
<path fill="#6f4870" opacity="1.00" d=" M 23.09 81.99 L 23.70 82.02 C 26.15 82.28 28.61 82.52 31.04 82.07 C 31.57 85.91 29.02 90.39 24.81 90.39 C 21.70 88.45 21.56 85.04 23.09 81.99 Z" />
</g>
<g id="#835a91ff">
<path fill="#835a91" opacity="1.00" d=" M 77.07 83.97 C 78.65 86.52 82.14 85.93 84.24 87.78 C 88.60 91.49 92.90 96.08 93.77 101.97 C 92.65 103.94 91.35 106.09 92.64 108.35 C 92.69 109.15 92.18 109.71 91.10 110.04 C 91.20 102.22 86.65 95.50 82.80 89.07 C 79.49 88.37 77.26 91.16 76.68 94.09 C 76.22 91.23 73.50 88.74 74.62 85.77 C 76.85 87.62 77.46 86.50 77.07 83.97 Z" />
</g>
<g id="#d4d4d4ff">
<path fill="#d4d4d4" opacity="1.00" d=" M 46.05 88.91 C 46.86 88.03 47.66 87.08 48.89 86.82 C 49.34 89.29 49.96 91.73 50.35 94.21 C 50.00 95.39 48.97 96.04 48.06 96.73 C 47.60 96.79 46.69 96.90 46.23 96.96 C 46.03 95.49 45.64 92.53 45.44 91.06 C 45.59 90.52 45.90 89.45 46.05 88.91 Z" />
</g>
<g id="#7c637fff">
<path fill="#7c637f" opacity="1.00" d=" M 48.89 86.82 C 51.18 88.28 51.53 91.89 50.35 94.21 C 49.96 91.73 49.34 89.29 48.89 86.82 Z" />
</g>
<g id="#593c4bff">
<path fill="#593c4b" opacity="1.00" d=" M 45.04 87.93 C 45.29 88.17 45.80 88.66 46.05 88.91 C 45.90 89.45 45.59 90.52 45.44 91.06 C 44.77 91.24 43.44 91.61 42.77 91.79 C 43.06 90.27 44.10 89.09 45.04 87.93 Z" />
</g>
<g id="#795088fe">
<path fill="#795088" opacity="1.00" d=" M 76.68 94.09 C 77.26 91.16 79.49 88.37 82.80 89.07 C 86.65 95.50 91.20 102.22 91.10 110.04 C 91.42 111.84 90.66 112.51 88.84 112.04 C 87.30 110.94 85.70 109.93 84.25 108.71 C 83.89 103.83 83.98 98.89 82.76 94.12 C 81.24 94.12 78.20 94.10 76.68 94.09 Z" />
</g>
<g id="#a88887ff">
<path fill="#a88887" opacity="1.00" d=" M 45.44 91.06 C 45.64 92.53 46.03 95.49 46.23 96.96 L 45.43 97.12 C 44.80 95.22 43.73 93.53 42.77 91.79 C 43.44 91.61 44.77 91.24 45.44 91.06 Z" />
</g>
<g id="#4c1f29ff">
<path fill="#4c1f29" opacity="1.00" d=" M 39.47 95.85 C 40.39 94.36 41.54 93.04 42.77 91.79 C 43.73 93.53 44.80 95.22 45.43 97.12 C 44.77 97.44 43.45 98.08 42.79 98.40 C 41.60 97.65 40.50 96.79 39.47 95.85 Z" />
</g>
<g id="#6e457eff">
<path fill="#6e457e" opacity="1.00" d=" M 76.68 94.09 C 78.20 94.10 81.24 94.12 82.76 94.12 C 83.98 98.89 83.89 103.83 84.25 108.71 C 85.70 109.93 87.30 110.94 88.84 112.04 C 87.94 113.51 88.80 116.58 87.05 116.97 C 87.00 116.27 86.91 114.87 86.86 114.16 C 83.56 114.43 80.28 115.05 76.95 115.01 C 78.74 110.51 79.72 105.59 78.32 100.79 C 77.99 98.51 77.31 96.30 76.68 94.09 Z" />
</g>
<g id="#623447ff">
<path fill="#623447" opacity="1.00" d=" M 37.69 98.30 C 38.28 97.48 38.87 96.66 39.47 95.85 C 40.50 96.79 41.60 97.65 42.79 98.40 L 43.11 99.16 C 41.27 99.12 39.44 98.86 37.69 98.30 Z" />
</g>
<g id="#78597cff">
<path fill="#78597c" opacity="1.00" d=" M 45.43 97.12 L 46.23 96.96 C 46.69 96.90 47.60 96.79 48.06 96.73 C 50.15 98.96 44.61 98.87 43.11 99.16 L 42.79 98.40 C 43.45 98.08 44.77 97.44 45.43 97.12 Z" />
</g>
<g id="#90689bfc">
<path fill="#90689b" opacity="1.00" d=" M 78.32 100.79 C 79.72 105.59 78.74 110.51 76.95 115.01 C 80.28 115.05 83.56 114.43 86.86 114.16 C 86.91 114.87 87.00 116.27 87.05 116.97 L 87.05 117.94 C 84.32 117.98 78.87 118.05 76.14 118.09 C 74.75 120.49 74.05 125.16 70.17 123.83 C 71.13 119.47 63.95 119.34 64.90 123.74 L 64.20 124.00 C 64.08 122.23 63.45 120.66 61.98 119.61 C 61.34 113.69 68.67 117.15 71.73 116.77 C 76.72 113.04 77.24 106.46 78.32 100.79 Z" />
</g>
<g id="#a580a9fb">
<path fill="#a580a9" opacity="1.00" d=" M 14.73 106.17 C 15.17 104.93 14.53 101.96 16.66 103.34 C 17.74 105.30 18.64 107.37 19.91 109.22 C 19.87 107.43 19.65 105.65 19.47 103.87 C 19.86 104.18 20.65 104.80 21.04 105.11 C 22.73 106.73 25.20 104.94 27.22 105.07 C 27.01 106.76 25.44 106.95 24.08 107.33 C 25.45 108.59 26.86 109.79 28.33 110.93 C 27.52 111.76 26.70 112.57 25.85 113.35 C 22.10 109.41 16.44 112.95 15.89 117.72 C 19.59 115.98 20.66 118.85 22.17 120.76 C 18.80 122.71 15.27 120.48 11.94 121.84 C 11.85 115.87 11.85 109.88 13.02 104.00 L 13.78 104.13 C 14.01 104.64 14.49 105.66 14.73 106.17 Z" />
</g>
<g id="#774f84fc">
<path fill="#774f84" opacity="1.00" d=" M 53.37 107.36 C 55.48 106.16 59.75 103.61 57.57 110.45 L 57.95 111.08 C 58.54 112.06 59.25 112.97 59.82 113.97 C 56.44 113.77 53.29 115.39 49.92 115.02 C 47.75 112.03 52.08 109.75 53.37 107.36 Z" />
</g>
<g id="#7f548af9">
<path fill="#7f548a" opacity="0.98" d=" M 15.89 117.72 C 16.44 112.95 22.10 109.41 25.85 113.35 C 27.39 114.22 29.26 113.90 30.95 114.08 L 31.13 114.91 C 30.87 115.09 30.37 115.44 30.11 115.61 C 29.35 115.74 27.81 115.98 27.04 116.10 C 24.12 116.11 25.25 121.82 22.17 120.76 C 20.66 118.85 19.59 115.98 15.89 117.72 Z" />
</g>
<g id="#b4758cff">
<path fill="#b4758c" opacity="1.00" d=" M 28.33 110.93 C 29.54 111.72 31.11 112.33 30.95 114.08 C 29.26 113.90 27.39 114.22 25.85 113.35 C 26.70 112.57 27.52 111.76 28.33 110.93 Z" />
</g>
<g id="#593563df">
<path fill="#593563" opacity="0.87" d=" M 36.60 114.97 C 36.94 114.55 37.61 113.71 37.94 113.29 C 41.38 113.74 44.82 114.24 48.26 114.76 C 44.38 114.94 40.49 115.12 36.60 114.97 Z" />
</g>
<g id="#2e203697">
<path fill="#2e2036" opacity="0.59" d=" M 30.11 115.61 C 30.37 115.44 30.87 115.09 31.13 114.91 C 32.95 114.90 34.78 114.93 36.60 114.97 C 36.02 117.08 31.86 116.21 30.11 115.61 Z" />
</g>
<g id="#b19abbff">
<path fill="#b19abb" opacity="1.00" d=" M 61.17 119.99 L 61.98 119.61 C 63.45 120.66 64.08 122.23 64.20 124.00 C 60.86 125.05 60.45 122.71 61.17 119.99 Z" />
</g>
<g id="#ac97b6fb">
<path fill="#ac97b6" opacity="1.00" d=" M 64.90 123.74 C 63.95 119.34 71.13 119.47 70.17 123.83 C 68.40 123.90 66.26 125.56 64.90 123.74 Z" />
</g>
</svg>
