<?xml version="1.0" encoding="UTF-8" ?>
<!DOCTYPE svg PUBLIC "-//W3C//DTD SVG 1.1//EN" "http://www.w3.org/Graphics/SVG/1.1/DTD/svg11.dtd">
<svg width="183pt" height="164pt" viewBox="0 0 183 164" version="1.1" xmlns="http://www.w3.org/2000/svg">
<g id="#b68bb6ff">
<path fill="#b68bb6" opacity="1.00" d=" M 92.09 9.84 C 95.40 9.75 93.92 13.70 94.12 15.75 C 92.26 18.28 90.60 20.96 88.98 23.65 C 88.99 22.73 89.00 20.88 89.01 19.95 C 89.90 16.56 90.38 12.93 92.09 9.84 Z" />
</g>
<g id="#a77aa7ff">
<path fill="#a77aa7" opacity="1.00" d=" M 88.98 23.65 C 90.60 20.96 92.26 18.28 94.12 15.75 C 94.10 17.45 94.11 19.15 93.87 20.83 C 92.95 25.78 92.82 30.83 92.97 35.85 C 92.51 35.73 91.60 35.50 91.14 35.38 C 89.77 41.90 88.75 48.64 84.95 54.30 C 83.91 50.82 83.14 47.26 82.28 43.72 C 81.46 48.76 81.35 53.92 81.82 59.00 C 81.90 62.05 85.04 64.08 87.89 63.80 C 92.65 63.42 96.83 60.86 101.08 58.91 C 100.51 56.87 99.46 55.02 97.21 54.60 C 94.48 54.15 94.41 51.18 94.13 49.00 C 94.68 49.62 95.24 50.24 95.80 50.85 C 99.29 48.97 101.83 45.85 103.21 42.16 C 102.86 42.02 102.16 41.74 101.81 41.59 L 101.19 41.33 C 102.25 41.04 103.75 41.55 103.28 42.92 C 102.46 47.37 100.21 51.97 101.63 56.52 C 102.96 60.22 107.59 58.42 110.43 58.16 L 109.70 58.86 C 108.18 58.83 106.56 58.61 105.17 59.36 C 105.38 59.64 105.80 60.21 106.02 60.49 C 103.82 60.91 101.85 62.00 100.05 63.29 C 102.19 64.07 104.32 64.86 106.44 65.69 C 104.98 67.71 103.47 69.70 101.77 71.53 C 97.14 70.37 92.04 72.57 89.16 76.24 C 87.72 78.16 88.93 80.29 89.99 82.03 C 93.48 80.03 96.48 77.34 99.14 74.35 C 101.78 75.80 104.62 74.64 106.35 72.41 C 112.29 65.32 118.91 58.75 126.36 53.27 C 134.31 48.80 141.48 43.12 148.97 37.94 C 150.45 36.98 151.41 35.48 152.33 34.01 C 153.30 33.76 154.27 33.51 155.25 33.25 C 157.43 30.60 160.29 28.66 162.99 26.60 C 163.73 30.89 158.83 32.74 156.47 35.50 L 156.15 35.56 C 154.18 35.73 152.50 36.82 151.05 38.08 C 147.06 41.47 142.80 44.53 138.88 48.00 C 138.54 48.20 137.86 48.62 137.52 48.83 C 132.73 51.89 127.44 54.30 123.34 58.31 C 115.57 66.03 108.31 74.25 100.31 81.73 C 97.43 82.78 94.38 84.46 93.86 87.81 L 93.42 87.98 C 93.20 87.31 92.76 85.97 92.54 85.30 C 90.97 85.80 89.27 86.72 87.66 85.78 C 88.05 82.87 85.17 81.31 83.26 79.73 C 81.82 78.49 79.89 78.26 78.10 77.90 C 77.64 75.45 77.58 72.85 76.53 70.55 C 74.89 69.06 72.62 68.56 70.68 67.53 C 69.55 66.88 68.47 66.16 67.38 65.44 C 67.84 65.08 68.78 64.36 69.24 63.99 C 70.83 63.03 71.48 61.24 72.10 59.60 C 75.43 50.37 76.36 40.53 77.93 30.90 C 77.98 32.98 78.13 35.06 78.27 37.14 C 79.74 32.80 81.02 28.36 81.26 23.76 C 82.23 29.50 82.06 35.35 82.62 41.14 C 82.86 40.86 83.32 40.29 83.56 40.00 C 85.31 33.30 87.01 26.58 89.01 19.95 C 89.00 20.88 88.99 22.73 88.98 23.65 Z" />
</g>
<g id="#855b8fff">
<path fill="#855b8f" opacity="1.00" d=" M 92.97 35.85 C 92.82 30.83 92.95 25.78 93.87 20.83 C 93.94 29.65 92.98 38.49 93.91 47.30 C 93.97 47.72 94.07 48.58 94.13 49.00 C 94.41 51.18 94.48 54.15 97.21 54.60 C 99.46 55.02 100.51 56.87 101.08 58.91 C 96.83 60.86 92.65 63.42 87.89 63.80 C 85.04 64.08 81.90 62.05 81.82 59.00 C 81.35 53.92 81.46 48.76 82.28 43.72 C 83.14 47.26 83.91 50.82 84.95 54.30 C 85.40 55.19 85.65 56.33 86.64 56.81 C 93.22 52.22 93.05 43.03 92.97 35.85 Z" />
</g>
<g id="#ba8db9fb">
<path fill="#ba8db9" opacity="1.00" d=" M 78.96 25.23 C 79.54 24.86 80.69 24.13 81.26 23.76 C 81.02 28.36 79.74 32.80 78.27 37.14 C 78.13 35.06 77.98 32.98 77.93 30.90 L 78.27 29.82 C 78.89 28.38 79.43 26.80 78.96 25.23 Z" />
</g>
<g id="#4b38499a">
<path fill="#4b3849" opacity="0.60" d=" M 78.27 29.82 C 77.26 28.70 77.12 25.29 78.96 25.23 C 79.43 26.80 78.89 28.38 78.27 29.82 Z" />
</g>
<g id="#bd91b9ff">
<path fill="#bd91b9" opacity="1.00" d=" M 141.06 39.14 C 147.47 35.18 153.66 30.87 160.22 27.15 C 160.91 27.01 162.30 26.74 162.99 26.60 C 160.29 28.66 157.43 30.60 155.25 33.25 C 154.27 33.51 153.30 33.76 152.33 34.01 C 151.41 35.48 150.45 36.98 148.97 37.94 C 141.48 43.12 134.31 48.80 126.36 53.27 C 118.91 58.75 112.29 65.32 106.35 72.41 C 104.62 74.64 101.78 75.80 99.14 74.35 C 99.80 73.64 101.12 72.24 101.77 71.53 C 103.47 69.70 104.98 67.71 106.44 65.69 C 104.32 64.86 102.19 64.07 100.05 63.29 C 101.85 62.00 103.82 60.91 106.02 60.49 C 107.43 60.55 108.83 60.00 109.70 58.86 L 110.43 58.16 C 112.66 57.25 115.27 56.92 117.08 55.18 C 124.16 48.58 132.72 43.93 141.06 39.14 Z" />
</g>
<g id="#d4a5c2ff">
<path fill="#d4a5c2" opacity="1.00" d=" M 6.49 34.41 C 5.80 32.34 4.51 30.31 4.83 28.04 C 5.71 29.40 6.25 29.29 6.45 27.71 C 10.19 30.70 12.79 34.87 16.16 38.26 C 16.73 39.37 17.27 40.48 17.78 41.62 C 14.39 44.37 13.34 48.65 12.21 52.65 C 10.41 46.54 8.81 40.36 6.49 34.41 Z" />
<path fill="#d4a5c2" opacity="1.00" d=" M 40.87 111.07 C 41.47 110.70 42.66 109.98 43.26 109.61 C 43.66 114.33 40.81 118.42 40.52 123.06 C 40.13 125.29 39.09 127.30 37.88 129.19 C 36.00 132.10 34.32 135.12 32.41 138.01 C 32.74 133.52 35.96 130.11 37.47 126.02 C 38.88 122.80 39.10 119.20 40.47 115.97 C 41.15 114.84 41.23 113.50 40.99 112.23 L 40.87 111.07 Z" />
</g>
<g id="#f7cde3ff">
<path fill="#f7cde3" opacity="1.00" d=" M 4.83 28.04 C 5.23 27.96 6.04 27.80 6.45 27.71 C 6.25 29.29 5.71 29.40 4.83 28.04 Z" />
</g>
<g id="#966b99ff">
<path fill="#966b99" opacity="1.00" d=" M 91.14 35.38 C 91.60 35.50 92.51 35.73 92.97 35.85 C 93.05 43.03 93.22 52.22 86.64 56.81 C 85.65 56.33 85.40 55.19 84.95 54.30 C 88.75 48.64 89.77 41.90 91.14 35.38 Z" />
</g>
<g id="#906396ff">
<path fill="#906396" opacity="1.00" d=" M 151.05 38.08 C 152.50 36.82 154.18 35.73 156.15 35.56 C 153.87 38.41 150.85 40.59 148.87 43.69 C 151.19 43.67 153.67 42.42 155.93 43.25 C 156.83 46.00 153.39 47.49 151.47 48.67 C 140.36 55.96 136.33 69.33 128.68 79.54 C 127.99 80.20 127.31 80.85 126.61 81.50 C 126.37 81.74 125.87 82.22 125.63 82.46 C 126.68 87.15 127.14 91.93 127.11 96.74 C 127.58 96.61 128.53 96.36 129.00 96.23 C 129.44 97.98 130.03 99.68 130.61 101.38 C 130.22 102.86 129.94 104.36 129.64 105.86 C 131.51 103.43 132.90 100.68 133.87 97.77 C 134.09 98.15 134.55 98.89 134.78 99.27 C 134.85 98.47 135.00 96.87 135.07 96.07 C 135.96 100.77 137.32 105.37 139.27 109.75 C 139.53 117.08 143.14 123.82 144.14 131.09 C 144.04 133.76 143.79 136.43 143.55 139.09 C 143.05 136.01 142.78 132.88 141.93 129.88 C 141.07 126.77 138.29 124.38 138.32 121.02 C 138.13 117.38 138.08 113.73 137.90 110.09 C 135.96 115.85 129.24 115.71 124.46 117.50 C 124.25 117.75 123.82 118.26 123.61 118.52 C 122.97 120.46 123.14 122.50 123.33 124.49 C 120.78 124.69 118.20 125.23 116.14 126.86 C 115.26 128.29 114.41 129.75 113.49 131.16 C 112.77 132.28 112.03 133.39 111.44 134.58 C 111.40 135.63 111.37 136.68 111.36 137.74 C 113.56 139.21 115.84 140.59 118.37 141.43 C 121.89 141.97 124.37 138.98 126.94 137.11 C 127.27 138.05 127.60 138.99 127.93 139.94 C 125.60 143.34 122.24 145.76 118.85 148.00 C 119.37 148.28 120.40 148.84 120.92 149.12 C 119.77 150.14 118.63 151.18 117.48 152.22 C 118.31 152.72 119.15 153.20 120.01 153.67 C 118.56 153.41 117.11 153.15 115.67 152.89 C 113.92 150.62 111.40 149.22 108.85 148.06 C 108.91 148.50 109.04 149.40 109.10 149.85 C 107.83 146.67 105.40 144.21 103.74 141.26 C 105.98 137.48 107.76 133.45 109.12 129.26 C 108.11 129.71 107.10 130.16 106.09 130.61 C 104.10 128.67 101.58 127.52 98.85 127.12 C 100.07 125.48 101.24 123.80 102.21 122.00 C 103.72 117.62 103.27 112.78 101.24 108.65 C 99.53 105.10 98.50 101.18 96.21 97.95 C 95.18 97.64 94.10 97.51 93.05 97.32 C 93.38 94.16 93.56 90.98 93.86 87.81 C 94.38 84.46 97.43 82.78 100.31 81.73 C 98.25 84.20 96.32 86.82 95.10 89.82 C 96.25 89.44 97.41 89.04 98.56 88.63 C 98.55 90.46 98.56 92.29 98.65 94.12 C 98.75 95.03 98.94 96.85 99.04 97.76 C 100.93 104.00 103.98 109.87 105.16 116.34 C 107.91 112.91 110.03 108.95 113.34 105.99 C 114.84 105.36 116.38 104.19 118.09 104.55 C 119.75 105.50 120.75 107.25 122.09 108.59 C 123.38 109.07 124.44 107.03 124.54 105.94 C 124.42 102.51 123.37 99.00 121.10 96.36 C 120.85 92.94 120.28 89.53 119.11 86.29 C 118.50 86.43 117.27 86.72 116.65 86.86 C 115.61 86.18 114.57 85.51 113.54 84.84 C 118.12 82.18 123.78 81.29 127.68 77.58 C 134.41 68.66 139.18 58.21 141.27 47.22 C 140.67 47.41 139.48 47.80 138.88 48.00 C 142.80 44.53 147.06 41.47 151.05 38.08 Z" />
</g>
<g id="#c899beff">
<path fill="#c899be" opacity="1.00" d=" M 16.16 38.26 C 18.54 40.95 20.88 43.68 23.64 45.99 C 22.69 49.67 19.68 52.88 20.22 56.85 C 20.34 58.67 20.64 60.48 20.86 62.30 C 19.77 61.96 18.67 61.65 17.59 61.27 C 15.45 58.65 12.96 56.08 12.21 52.65 C 13.34 48.65 14.39 44.37 17.78 41.62 C 17.27 40.48 16.73 39.37 16.16 38.26 Z" />
</g>
<g id="#c591b4ff">
<path fill="#c591b4" opacity="1.00" d=" M 101.81 41.59 C 102.16 41.74 102.86 42.02 103.21 42.16 C 101.83 45.85 99.29 48.97 95.80 50.85 C 95.24 50.24 94.68 49.62 94.13 49.00 C 94.07 48.58 93.97 47.72 93.91 47.30 C 96.86 45.86 99.19 43.51 101.81 41.59 Z" />
</g>
<g id="#be90b9ff">
<path fill="#be90b9" opacity="1.00" d=" M 23.64 45.99 C 25.27 47.61 26.82 49.30 28.39 50.97 C 27.65 51.21 26.91 51.45 26.16 51.69 C 26.02 56.46 26.94 61.15 27.50 65.86 C 27.92 68.63 26.41 71.13 25.53 73.65 C 22.86 69.53 20.44 65.27 17.59 61.27 C 18.67 61.65 19.77 61.96 20.86 62.30 C 20.64 60.48 20.34 58.67 20.22 56.85 C 19.68 52.88 22.69 49.67 23.64 45.99 Z" />
</g>
<g id="#192e44ff">
<path fill="#192e44" opacity="1.00" d=" M 137.52 48.83 C 137.86 48.62 138.54 48.20 138.88 48.00 C 139.48 47.80 140.67 47.41 141.27 47.22 C 139.18 58.21 134.41 68.66 127.68 77.58 C 123.78 81.29 118.12 82.18 113.54 84.84 C 111.63 85.82 109.76 86.89 107.94 88.04 C 104.09 90.35 101.10 93.79 99.04 97.76 C 98.94 96.85 98.75 95.03 98.65 94.12 C 103.21 90.09 107.74 85.88 113.29 83.23 C 117.38 80.88 122.09 79.69 125.97 76.97 C 131.06 71.56 133.53 64.33 136.56 57.68 C 137.49 55.06 139.21 52.40 138.83 49.54 C 138.50 49.36 137.85 49.01 137.52 48.83 Z" />
</g>
<g id="#00465bff">
<path fill="#00465b" opacity="1.00" d=" M 137.52 48.83 C 137.85 49.01 138.50 49.36 138.83 49.54 C 139.21 52.40 137.49 55.06 136.56 57.68 C 133.53 64.33 131.06 71.56 125.97 76.97 C 122.09 79.69 117.38 80.88 113.29 83.23 C 107.74 85.88 103.21 90.09 98.65 94.12 C 98.56 92.29 98.55 90.46 98.56 88.63 C 97.41 89.04 96.25 89.44 95.10 89.82 C 96.32 86.82 98.25 84.20 100.31 81.73 C 108.31 74.25 115.57 66.03 123.34 58.31 C 127.44 54.30 132.73 51.89 137.52 48.83 Z" />
</g>
<g id="#ad7fabff">
<path fill="#ad7fab" opacity="1.00" d=" M 26.16 51.69 C 26.91 51.45 27.65 51.21 28.39 50.97 C 31.61 55.14 34.69 59.58 36.60 64.50 C 35.71 70.70 38.60 78.86 45.14 80.60 C 44.82 79.43 44.48 78.26 44.10 77.11 C 45.63 78.57 47.12 80.43 49.37 80.68 L 49.98 80.82 C 45.96 82.02 42.93 85.05 39.56 87.39 C 36.18 81.53 27.99 80.11 25.53 73.65 C 26.41 71.13 27.92 68.63 27.50 65.86 C 26.94 61.15 26.02 56.46 26.16 51.69 Z" />
</g>
<g id="#e4abc7ff">
<path fill="#e4abc7" opacity="1.00" d=" M 105.17 59.36 C 106.56 58.61 108.18 58.83 109.70 58.86 C 108.83 60.00 107.43 60.55 106.02 60.49 C 105.80 60.21 105.38 59.64 105.17 59.36 Z" />
</g>
<g id="#dc9eb6f7">
<path fill="#dc9eb6" opacity="0.97" d=" M 60.19 66.30 C 63.82 63.56 67.75 61.01 72.10 59.60 C 71.48 61.24 70.83 63.03 69.24 63.99 C 68.64 64.16 67.43 64.50 66.82 64.67 C 65.26 66.92 62.62 68.07 60.19 66.30 Z" />
</g>
<g id="#c894b2ff">
<path fill="#c894b2" opacity="1.00" d=" M 66.82 64.67 C 67.43 64.50 68.64 64.16 69.24 63.99 C 68.78 64.36 67.84 65.08 67.38 65.44 C 68.47 66.16 69.55 66.88 70.68 67.53 C 70.31 70.58 70.54 74.35 67.54 76.18 C 61.56 73.30 56.43 79.11 50.76 80.22 C 52.99 74.97 56.37 70.47 60.19 66.30 C 62.62 68.07 65.26 66.92 66.82 64.67 Z" />
</g>
<g id="#966596ff">
<path fill="#966596" opacity="1.00" d=" M 36.60 64.50 C 38.97 68.78 41.21 73.13 44.10 77.11 C 44.48 78.26 44.82 79.43 45.14 80.60 C 38.60 78.86 35.71 70.70 36.60 64.50 Z" />
</g>
<g id="#be92bbff">
<path fill="#be92bb" opacity="1.00" d=" M 70.68 67.53 C 72.62 68.56 74.89 69.06 76.53 70.55 C 77.58 72.85 77.64 75.45 78.10 77.90 C 77.74 78.49 77.02 79.68 76.66 80.27 C 79.74 81.62 82.79 83.05 85.72 84.73 C 85.44 87.65 86.27 90.90 84.57 93.51 C 82.13 98.05 77.23 100.24 73.59 103.63 C 70.99 102.32 68.64 100.54 66.91 98.19 C 66.58 97.78 65.92 96.97 65.59 96.57 C 58.65 97.43 51.62 98.42 44.63 98.08 C 48.41 95.76 52.96 95.58 57.03 93.99 C 59.66 93.07 61.91 91.38 64.14 89.75 C 62.92 88.95 61.67 88.18 60.45 87.39 C 61.05 86.89 61.65 86.39 62.25 85.89 C 63.37 86.20 64.49 86.48 65.61 86.74 C 65.89 86.17 66.46 85.03 66.74 84.46 C 68.49 81.92 69.03 78.99 67.54 76.18 C 70.54 74.35 70.31 70.58 70.68 67.53 Z" />
</g>
<g id="#8f6192ff">
<path fill="#8f6192" opacity="1.00" d=" M 89.16 76.24 C 92.04 72.57 97.14 70.37 101.77 71.53 C 101.12 72.24 99.80 73.64 99.14 74.35 C 96.48 77.34 93.48 80.03 89.99 82.03 C 88.93 80.29 87.72 78.16 89.16 76.24 Z" />
</g>
<g id="#d09fc1ff">
<path fill="#d09fc1" opacity="1.00" d=" M 50.76 80.22 C 56.43 79.11 61.56 73.30 67.54 76.18 C 69.03 78.99 68.49 81.92 66.74 84.46 C 66.02 84.00 64.57 83.08 63.85 82.61 C 62.09 83.24 60.32 83.87 58.56 84.51 C 59.79 84.98 61.01 85.47 62.25 85.89 C 61.65 86.39 61.05 86.89 60.45 87.39 C 61.67 88.18 62.92 88.95 64.14 89.75 C 61.91 91.38 59.66 93.07 57.03 93.99 C 52.96 95.58 48.41 95.76 44.63 98.08 C 45.03 98.44 45.83 99.17 46.23 99.54 C 44.79 102.49 43.48 105.50 42.14 108.50 C 40.70 104.15 39.17 99.58 40.16 94.95 C 40.76 92.39 40.74 89.80 39.56 87.39 C 42.93 85.05 45.96 82.02 49.98 80.82 L 49.37 80.68 L 50.76 80.22 Z" />
</g>
<g id="#754e77ff">
<path fill="#754e77" opacity="1.00" d=" M 78.10 77.90 C 79.89 78.26 81.82 78.49 83.26 79.73 C 85.17 81.31 88.05 82.87 87.66 85.78 L 85.72 84.73 C 82.79 83.05 79.74 81.62 76.66 80.27 C 77.02 79.68 77.74 78.49 78.10 77.90 Z" />
</g>
<g id="#a877b3fe">
<path fill="#a877b3" opacity="1.00" d=" M 126.61 81.50 C 127.31 80.85 127.99 80.20 128.68 79.54 C 131.63 84.67 134.63 90.04 135.07 96.07 C 135.00 96.87 134.85 98.47 134.78 99.27 C 134.55 98.89 134.09 98.15 133.87 97.77 C 133.77 97.26 133.59 96.24 133.50 95.73 C 132.49 97.59 131.49 99.45 130.61 101.38 C 130.03 99.68 129.44 97.98 129.00 96.23 C 129.03 91.22 129.05 86.05 126.61 81.50 Z" />
</g>
<g id="#6d4776ff">
<path fill="#6d4776" opacity="1.00" d=" M 125.63 82.46 C 125.87 82.22 126.37 81.74 126.61 81.50 C 129.05 86.05 129.03 91.22 129.00 96.23 C 128.53 96.36 127.58 96.61 127.11 96.74 C 127.14 91.93 126.68 87.15 125.63 82.46 Z" />
</g>
<g id="#875f86ff">
<path fill="#875f86" opacity="1.00" d=" M 58.56 84.51 C 60.32 83.87 62.09 83.24 63.85 82.61 C 64.57 83.08 66.02 84.00 66.74 84.46 C 66.46 85.03 65.89 86.17 65.61 86.74 C 64.49 86.48 63.37 86.20 62.25 85.89 C 61.01 85.47 59.79 84.98 58.56 84.51 Z" />
</g>
<g id="#b589b4ff">
<path fill="#b589b4" opacity="1.00" d=" M 85.72 84.73 L 87.66 85.78 C 89.27 86.72 90.97 85.80 92.54 85.30 C 92.76 85.97 93.20 87.31 93.42 87.98 C 92.56 88.32 91.71 88.69 90.86 89.06 C 90.91 95.25 88.26 101.48 83.18 105.16 C 80.68 106.68 78.08 108.03 75.75 109.79 C 75.78 109.30 75.84 108.32 75.87 107.83 C 76.24 106.49 76.58 105.15 76.90 103.80 C 74.05 107.40 70.92 112.24 72.89 116.95 C 71.68 119.46 72.41 122.12 73.75 124.40 C 71.60 128.80 67.03 130.43 62.83 132.21 C 61.76 133.50 58.90 134.36 59.66 136.44 C 57.94 136.93 56.25 137.53 54.56 138.14 L 53.87 137.49 C 53.11 136.72 52.40 135.93 51.68 135.14 C 54.99 133.94 59.07 133.69 61.45 130.80 C 62.86 129.06 64.16 127.24 65.44 125.40 C 65.79 125.33 66.51 125.21 66.86 125.14 C 66.96 122.54 66.99 119.93 66.96 117.32 C 63.60 117.48 60.38 118.49 57.08 118.99 C 51.83 116.42 50.85 109.78 51.25 104.53 C 52.79 106.30 54.37 108.03 55.98 109.73 C 58.70 108.71 61.62 107.82 63.72 105.71 C 65.75 103.73 66.18 100.79 66.91 98.19 C 68.64 100.54 70.99 102.32 73.59 103.63 C 77.23 100.24 82.13 98.05 84.57 93.51 C 86.27 90.90 85.44 87.65 85.72 84.73 Z" />
</g>
<g id="#845a8fff">
<path fill="#845a8f" opacity="1.00" d=" M 107.94 88.04 C 109.76 86.89 111.63 85.82 113.54 84.84 C 114.57 85.51 115.61 86.18 116.65 86.86 C 117.07 91.49 117.19 96.59 120.39 100.31 C 120.57 99.32 120.93 97.35 121.10 96.36 C 123.37 99.00 124.42 102.51 124.54 105.94 C 123.41 102.13 121.70 106.84 122.09 108.59 C 120.75 107.25 119.75 105.50 118.09 104.55 C 116.38 104.19 114.84 105.36 113.34 105.99 C 111.47 104.04 109.39 102.22 108.03 99.86 C 108.03 96.52 109.06 93.29 109.75 90.05 C 109.14 89.38 108.54 88.71 107.94 88.04 Z" />
</g>
<g id="#563560ff">
<path fill="#563560" opacity="1.00" d=" M 116.65 86.86 C 117.27 86.72 118.50 86.43 119.11 86.29 C 120.28 89.53 120.85 92.94 121.10 96.36 C 120.93 97.35 120.57 99.32 120.39 100.31 C 117.19 96.59 117.07 91.49 116.65 86.86 Z" />
</g>
<g id="#a175a4ff">
<path fill="#a175a4" opacity="1.00" d=" M 90.86 89.06 C 91.71 88.69 92.56 88.32 93.42 87.98 L 93.86 87.81 C 93.56 90.98 93.38 94.16 93.05 97.32 C 94.10 97.51 95.18 97.64 96.21 97.95 C 98.50 101.18 99.53 105.10 101.24 108.65 C 103.27 112.78 103.72 117.62 102.21 122.00 C 98.96 121.63 95.70 121.37 92.43 121.19 C 92.25 122.79 92.04 124.40 91.77 125.99 C 91.21 127.53 90.88 129.88 88.69 129.28 C 88.49 127.13 88.23 124.99 87.92 122.85 C 81.14 126.27 75.27 131.38 68.02 133.91 C 66.48 132.81 64.64 132.48 62.83 132.21 C 67.03 130.43 71.60 128.80 73.75 124.40 C 72.41 122.12 71.68 119.46 72.89 116.95 C 73.91 113.92 74.58 110.77 75.87 107.83 C 75.84 108.32 75.78 109.30 75.75 109.79 C 78.08 108.03 80.68 106.68 83.18 105.16 C 88.26 101.48 90.91 95.25 90.86 89.06 M 80.48 114.59 C 79.04 115.20 77.81 116.09 77.15 117.57 C 80.85 116.69 85.26 116.66 88.06 113.75 C 88.15 113.02 88.34 111.55 88.44 110.81 C 88.68 111.07 89.17 111.57 89.41 111.83 C 89.26 109.21 88.78 106.63 88.19 104.09 C 85.12 107.05 81.06 110.13 80.48 114.59 Z" />
</g>
<g id="#784f84ff">
<path fill="#784f84" opacity="1.00" d=" M 99.04 97.76 C 101.10 93.79 104.09 90.35 107.94 88.04 C 108.54 88.71 109.14 89.38 109.75 90.05 C 109.06 93.29 108.03 96.52 108.03 99.86 C 109.39 102.22 111.47 104.04 113.34 105.99 C 110.03 108.95 107.91 112.91 105.16 116.34 C 103.98 109.87 100.93 104.00 99.04 97.76 Z" />
</g>
<g id="#8b6298ff">
<path fill="#8b6298" opacity="1.00" d=" M 44.63 98.08 C 51.62 98.42 58.65 97.43 65.59 96.57 C 65.92 96.97 66.58 97.78 66.91 98.19 C 66.18 100.79 65.75 103.73 63.72 105.71 C 61.62 107.82 58.70 108.71 55.98 109.73 C 54.37 108.03 52.79 106.30 51.25 104.53 C 49.70 102.74 47.98 101.12 46.23 99.54 C 45.83 99.17 45.03 98.44 44.63 98.08 Z" />
</g>
<g id="#6c4376fe">
<path fill="#6c4376" opacity="1.00" d=" M 130.61 101.38 C 131.49 99.45 132.49 97.59 133.50 95.73 C 133.59 96.24 133.77 97.26 133.87 97.77 C 132.90 100.68 131.51 103.43 129.64 105.86 C 129.94 104.36 130.22 102.86 130.61 101.38 Z" />
</g>
<g id="#bf92bbff">
<path fill="#bf92bb" opacity="1.00" d=" M 46.23 99.54 C 47.98 101.12 49.70 102.74 51.25 104.53 C 50.85 109.78 51.83 116.42 57.08 118.99 C 60.38 118.49 63.60 117.48 66.96 117.32 C 66.99 119.93 66.96 122.54 66.86 125.14 C 66.51 125.21 65.79 125.33 65.44 125.40 C 62.37 125.33 61.86 128.45 61.45 130.80 C 59.07 133.69 54.99 133.94 51.68 135.14 C 50.22 133.50 48.70 131.93 47.14 130.39 C 45.72 128.98 44.44 127.44 43.20 125.87 C 42.41 124.83 41.47 123.94 40.52 123.06 C 40.81 118.42 43.66 114.33 43.26 109.61 C 42.66 109.98 41.47 110.70 40.87 111.07 C 41.32 110.22 41.75 109.36 42.14 108.50 C 43.48 105.50 44.79 102.49 46.23 99.54 M 44.66 105.00 C 45.18 108.18 46.21 111.30 46.08 114.57 C 45.46 114.42 44.21 114.11 43.59 113.96 C 43.83 115.73 44.93 117.13 46.07 118.44 C 49.79 114.26 45.92 108.68 45.69 103.92 C 45.43 104.19 44.92 104.73 44.66 105.00 Z" />
</g>
<g id="#ae7fa2ff">
<path fill="#ae7fa2" opacity="1.00" d=" M 44.66 105.00 C 44.92 104.73 45.43 104.19 45.69 103.92 C 45.92 108.68 49.79 114.26 46.07 118.44 C 44.93 117.13 43.83 115.73 43.59 113.96 C 44.21 114.11 45.46 114.42 46.08 114.57 C 46.21 111.30 45.18 108.18 44.66 105.00 Z" />
</g>
<g id="#754c75ff">
<path fill="#754c75" opacity="1.00" d=" M 72.89 116.95 C 70.92 112.24 74.05 107.40 76.90 103.80 C 76.58 105.15 76.24 106.49 75.87 107.83 C 74.58 110.77 73.91 113.92 72.89 116.95 Z" />
</g>
<g id="#392f20ff">
<path fill="#392f20" opacity="1.00" d=" M 80.48 114.59 C 81.06 110.13 85.12 107.05 88.19 104.09 C 88.78 106.63 89.26 109.21 89.41 111.83 C 89.17 111.57 88.68 111.07 88.44 110.81 C 88.46 108.90 87.99 107.04 87.50 105.20 C 86.26 106.49 85.03 107.81 83.81 109.12 C 84.04 110.98 84.25 112.84 84.44 114.71 C 85.35 114.47 87.16 113.99 88.06 113.75 C 85.26 116.66 80.85 116.69 77.15 117.57 C 77.81 116.09 79.04 115.20 80.48 114.59 Z" />
</g>
<g id="#633e71ff">
<path fill="#633e71" opacity="1.00" d=" M 122.09 108.59 C 121.70 106.84 123.41 102.13 124.54 105.94 C 124.44 107.03 123.38 109.07 122.09 108.59 Z" />
</g>
<g id="#d7d7d8ff">
<path fill="#d7d7d8" opacity="1.00" d=" M 83.81 109.12 C 85.03 107.81 86.26 106.49 87.50 105.20 C 87.99 107.04 88.46 108.90 88.44 110.81 C 88.34 111.55 88.15 113.02 88.06 113.75 C 87.16 113.99 85.35 114.47 84.44 114.71 C 84.25 112.84 84.04 110.98 83.81 109.12 Z" />
</g>
<g id="#7f5488ff">
<path fill="#7f5488" opacity="1.00" d=" M 124.46 117.50 C 129.24 115.71 135.96 115.85 137.90 110.09 C 138.08 113.73 138.13 117.38 138.32 121.02 C 138.29 124.38 141.07 126.77 141.93 129.88 C 142.78 132.88 143.05 136.01 143.55 139.09 C 143.79 136.43 144.04 133.76 144.14 131.09 C 144.30 134.99 144.47 138.89 144.57 142.79 C 143.84 141.77 143.24 140.65 142.66 139.54 C 141.31 140.70 139.96 141.86 138.64 143.04 C 136.86 142.88 135.07 142.90 133.30 142.63 C 130.73 141.56 129.29 138.84 128.65 136.26 C 127.08 130.32 125.87 124.26 123.61 118.52 C 123.82 118.26 124.25 117.75 124.46 117.50 Z" />
</g>
<g id="#694e56ad">
<path fill="#694e56" opacity="0.68" d=" M 40.47 115.97 C 39.29 115.20 39.22 112.09 40.99 112.23 C 41.23 113.50 41.15 114.84 40.47 115.97 Z" />
</g>
<g id="#9d72a1ff">
<path fill="#9d72a1" opacity="1.00" d=" M 123.33 124.49 C 123.14 122.50 122.97 120.46 123.61 118.52 C 125.87 124.26 127.08 130.32 128.65 136.26 C 129.29 138.84 130.73 141.56 133.30 142.63 C 135.07 142.90 136.86 142.88 138.64 143.04 C 139.30 143.21 140.63 143.54 141.30 143.71 C 138.17 143.45 135.05 143.61 131.97 144.12 C 131.26 144.04 129.84 143.88 129.14 143.80 C 128.74 142.51 128.35 141.22 127.93 139.94 C 127.60 138.99 127.27 138.05 126.94 137.11 C 124.37 138.98 121.89 141.97 118.37 141.43 C 117.25 138.14 114.87 135.48 111.44 134.58 C 112.03 133.39 112.77 132.28 113.49 131.16 C 115.87 132.67 118.33 134.05 120.91 135.19 C 120.57 132.89 120.36 130.53 119.47 128.37 C 118.45 127.69 117.26 127.33 116.14 126.86 C 118.20 125.23 120.78 124.69 123.33 124.49 Z" />
</g>
<g id="#6f447eff">
<path fill="#6f447e" opacity="1.00" d=" M 92.43 121.19 C 95.70 121.37 98.96 121.63 102.21 122.00 C 101.24 123.80 100.07 125.48 98.85 127.12 C 97.29 129.15 95.99 131.36 94.90 133.68 C 94.12 133.79 92.56 134.02 91.78 134.14 C 91.56 133.07 91.38 132.00 91.25 130.92 C 93.12 128.13 96.20 126.18 97.16 122.79 C 95.28 123.70 93.48 124.78 91.77 125.99 C 92.04 124.40 92.25 122.79 92.43 121.19 Z" />
</g>
<g id="#724a82ff">
<path fill="#724a82" opacity="1.00" d=" M 68.02 133.91 C 75.27 131.38 81.14 126.27 87.92 122.85 C 88.23 124.99 88.49 127.13 88.69 129.28 C 82.64 130.15 77.17 133.46 71.66 136.00 C 68.49 137.87 64.75 137.77 61.21 137.78 C 61.77 137.06 62.33 136.34 62.89 135.62 C 64.63 135.15 66.33 134.54 68.02 133.91 Z" />
</g>
<g id="#895698ff">
<path fill="#895698" opacity="1.00" d=" M 91.77 125.99 C 93.48 124.78 95.28 123.70 97.16 122.79 C 96.20 126.18 93.12 128.13 91.25 130.92 C 91.38 132.00 91.56 133.07 91.78 134.14 C 89.52 134.14 87.27 134.20 85.01 134.26 C 84.23 136.25 84.00 138.91 81.51 139.48 C 81.96 137.69 82.45 135.91 82.92 134.13 C 79.78 134.02 76.82 135.06 74.09 136.55 C 73.49 136.41 72.27 136.13 71.66 136.00 C 77.17 133.46 82.64 130.15 88.69 129.28 C 90.88 129.88 91.21 127.53 91.77 125.99 Z" />
</g>
<g id="#70486fff">
<path fill="#70486f" opacity="1.00" d=" M 40.52 123.06 C 41.47 123.94 42.41 124.83 43.20 125.87 C 43.24 126.61 43.32 128.08 43.36 128.82 C 41.46 129.89 39.58 131.00 37.70 132.12 C 37.74 131.39 37.84 129.92 37.88 129.19 C 39.09 127.30 40.13 125.29 40.52 123.06 Z" />
</g>
<g id="#795e79ff">
<path fill="#795e79" opacity="1.00" d=" M 61.45 130.80 C 61.86 128.45 62.37 125.33 65.44 125.40 C 64.16 127.24 62.86 129.06 61.45 130.80 Z" />
</g>
<g id="#b384adff">
<path fill="#b384ad" opacity="1.00" d=" M 43.20 125.87 C 44.44 127.44 45.72 128.98 47.14 130.39 C 46.01 130.73 44.88 131.09 43.76 131.47 C 38.65 134.23 33.63 138.48 32.97 144.63 C 32.18 143.25 31.85 141.68 31.65 140.12 C 31.84 139.59 32.22 138.54 32.41 138.01 C 34.32 135.12 36.00 132.10 37.88 129.19 C 37.84 129.92 37.74 131.39 37.70 132.12 C 39.58 131.00 41.46 129.89 43.36 128.82 C 43.32 128.08 43.24 126.61 43.20 125.87 Z" />
</g>
<g id="#875689ff">
<path fill="#875689" opacity="1.00" d=" M 94.90 133.68 C 95.99 131.36 97.29 129.15 98.85 127.12 C 101.58 127.52 104.10 128.67 106.09 130.61 C 107.10 130.16 108.11 129.71 109.12 129.26 C 107.76 133.45 105.98 137.48 103.74 141.26 C 102.92 140.19 101.66 139.82 100.46 139.37 C 98.50 137.58 97.12 135.21 94.90 133.68 Z" />
</g>
<g id="#64406aff">
<path fill="#64406a" opacity="1.00" d=" M 116.14 126.86 C 117.26 127.33 118.45 127.69 119.47 128.37 C 120.36 130.53 120.57 132.89 120.91 135.19 C 118.33 134.05 115.87 132.67 113.49 131.16 C 114.41 129.75 115.26 128.29 116.14 126.86 Z" />
</g>
<g id="#84598bff">
<path fill="#84598b" opacity="1.00" d=" M 43.76 131.47 C 44.88 131.09 46.01 130.73 47.14 130.39 C 48.70 131.93 50.22 133.50 51.68 135.14 C 52.40 135.93 53.11 136.72 53.87 137.49 C 50.77 139.12 49.31 142.27 49.50 145.71 C 50.44 145.32 51.39 144.94 52.32 144.53 C 51.84 145.79 52.11 147.79 50.63 148.44 C 48.78 149.08 46.79 149.16 44.86 149.49 C 44.38 148.69 43.40 147.07 42.91 146.27 C 41.44 146.72 38.67 148.17 40.89 149.69 C 37.56 148.90 34.19 149.90 30.86 150.11 C 29.87 149.27 28.85 148.36 27.55 148.07 C 27.56 147.88 27.59 147.50 27.61 147.31 C 30.10 147.95 32.54 148.88 35.12 149.11 C 35.83 149.07 37.23 148.97 37.93 148.92 C 37.76 147.10 37.43 145.27 37.65 143.44 C 38.25 141.24 39.98 139.62 41.36 137.89 C 41.33 137.33 41.28 136.22 41.25 135.66 C 42.28 135.13 43.31 134.59 44.35 134.07 C 44.15 133.20 43.96 132.33 43.76 131.47 Z" />
</g>
<g id="#9b6e9eff">
<path fill="#9b6e9e" opacity="1.00" d=" M 32.97 144.63 C 33.63 138.48 38.65 134.23 43.76 131.47 C 43.96 132.33 44.15 133.20 44.35 134.07 C 43.31 134.59 42.28 135.13 41.25 135.66 C 41.28 136.22 41.33 137.33 41.36 137.89 C 39.98 139.62 38.25 141.24 37.65 143.44 C 37.43 145.27 37.76 147.10 37.93 148.92 C 37.23 148.97 35.83 149.07 35.12 149.11 C 34.59 147.53 33.87 146.03 32.97 144.63 Z" />
</g>
<g id="#dc96a8ff">
<path fill="#dc96a8" opacity="1.00" d=" M 59.66 136.44 C 58.90 134.36 61.76 133.50 62.83 132.21 C 64.64 132.48 66.48 132.81 68.02 133.91 C 66.33 134.54 64.63 135.15 62.89 135.62 C 62.08 135.83 60.47 136.23 59.66 136.44 Z" />
</g>
<g id="#764c83ff">
<path fill="#764c83" opacity="1.00" d=" M 74.09 136.55 C 76.82 135.06 79.78 134.02 82.92 134.13 C 82.45 135.91 81.96 137.69 81.51 139.48 L 81.49 139.54 C 78.58 139.83 75.68 140.24 72.90 141.14 C 73.54 140.43 74.18 139.71 74.82 139.00 C 74.64 138.39 74.28 137.16 74.09 136.55 Z" />
</g>
<g id="#6a446fff">
<path fill="#6a446f" opacity="1.00" d=" M 111.44 134.58 C 114.87 135.48 117.25 138.14 118.37 141.43 C 115.84 140.59 113.56 139.21 111.36 137.74 C 111.37 136.68 111.40 135.63 111.44 134.58 Z" />
</g>
<g id="#9a769eff">
<path fill="#9a769e" opacity="1.00" d=" M 59.66 136.44 C 60.47 136.23 62.08 135.83 62.89 135.62 C 62.33 136.34 61.77 137.06 61.21 137.78 C 64.75 137.77 68.49 137.87 71.66 136.00 C 72.27 136.13 73.49 136.41 74.09 136.55 C 74.28 137.16 74.64 138.39 74.82 139.00 C 74.18 139.71 73.54 140.43 72.90 141.14 C 71.89 140.74 70.89 140.34 69.88 139.94 C 64.93 138.33 59.39 140.68 54.56 138.14 C 56.25 137.53 57.94 136.93 59.66 136.44 Z" />
</g>
<g id="#653d74fe">
<path fill="#653d74" opacity="1.00" d=" M 49.50 145.71 C 49.31 142.27 50.77 139.12 53.87 137.49 L 54.56 138.14 C 59.39 140.68 64.93 138.33 69.88 139.94 C 66.29 139.65 62.68 139.80 59.09 139.95 C 57.07 141.79 54.85 143.45 52.32 144.53 C 51.39 144.94 50.44 145.32 49.50 145.71 Z" />
</g>
<g id="#b49ebaff">
<path fill="#b49eba" opacity="1.00" d=" M 31.32 144.52 C 31.57 143.07 31.55 141.59 31.65 140.12 C 31.85 141.68 32.18 143.25 32.97 144.63 C 33.87 146.03 34.59 147.53 35.12 149.11 C 32.54 148.88 30.10 147.95 27.61 147.31 C 28.85 146.39 30.11 145.49 31.32 144.52 Z" />
<path fill="#b49eba" opacity="1.00" d=" M 128.15 149.13 C 128.45 149.33 129.04 149.73 129.34 149.93 C 130.58 150.56 131.04 151.96 131.80 153.05 C 131.40 152.98 130.60 152.86 130.20 152.79 C 129.03 152.59 127.86 152.38 126.70 152.17 C 127.18 151.16 127.67 150.14 128.15 149.13 Z" />
</g>
<g id="#855c90ff">
<path fill="#855c90" opacity="1.00" d=" M 118.85 148.00 C 122.24 145.76 125.60 143.34 127.93 139.94 C 128.35 141.22 128.74 142.51 129.14 143.80 C 129.84 143.88 131.26 144.04 131.97 144.12 C 131.37 144.31 130.17 144.67 129.58 144.85 C 129.48 146.54 129.40 148.23 129.34 149.93 C 129.04 149.73 128.45 149.33 128.15 149.13 C 127.67 150.14 127.18 151.16 126.70 152.17 C 127.86 152.38 129.03 152.59 130.20 152.79 C 127.96 152.84 125.72 152.81 123.48 152.82 C 123.35 152.16 123.08 150.85 122.94 150.20 C 122.44 149.93 121.43 149.39 120.92 149.12 C 120.40 148.84 119.37 148.28 118.85 148.00 Z" />
</g>
<g id="#a086aefd">
<path fill="#a086ae" opacity="1.00" d=" M 138.64 143.04 C 139.96 141.86 141.31 140.70 142.66 139.54 C 143.24 140.65 143.84 141.77 144.57 142.79 C 144.80 143.14 145.27 143.84 145.51 144.19 C 144.46 144.07 142.35 143.83 141.30 143.71 C 140.63 143.54 139.30 143.21 138.64 143.04 Z" />
</g>
<g id="#a081a6fc">
<path fill="#a081a6" opacity="1.00" d=" M 40.89 149.69 C 38.67 148.17 41.44 146.72 42.91 146.27 C 43.40 147.07 44.38 148.69 44.86 149.49 C 43.49 150.17 42.17 150.23 40.89 149.69 Z" />
</g>
<g id="#a27da8fe">
<path fill="#a27da8" opacity="1.00" d=" M 108.85 148.06 C 111.40 149.22 113.92 150.62 115.67 152.89 L 113.66 153.04 C 112.44 152.84 111.22 152.67 110.01 152.45 C 109.79 151.80 109.33 150.50 109.10 149.85 C 109.04 149.40 108.91 148.50 108.85 148.06 Z" />
</g>
<g id="#b39cb3ff">
<path fill="#b39cb3" opacity="1.00" d=" M 120.92 149.12 C 121.43 149.39 122.44 149.93 122.94 150.20 C 123.08 150.85 123.35 152.16 123.48 152.82 L 123.74 154.14 C 122.81 154.03 120.94 153.79 120.01 153.67 C 119.15 153.20 118.31 152.72 117.48 152.22 C 118.63 151.18 119.77 150.14 120.92 149.12 Z" />
</g>
<g id="#221e256e">
<path fill="#221e25" opacity="0.43" d=" M 110.01 152.45 C 111.22 152.67 112.44 152.84 113.66 153.04 C 113.85 155.24 109.17 154.54 110.01 152.45 Z" />
</g>
</svg>
