<?xml version="1.0" encoding="UTF-8" ?>
<!DOCTYPE svg PUBLIC "-//W3C//DTD SVG 1.1//EN" "http://www.w3.org/Graphics/SVG/1.1/DTD/svg11.dtd">
<svg width="189pt" height="192pt" viewBox="0 0 189 192" version="1.1" xmlns="http://www.w3.org/2000/svg">
<g id="#ac73a4fd">
<path fill="#ac73a4" opacity="1.00" d=" M 77.21 9.21 C 77.80 7.88 79.24 7.76 79.73 9.24 C 80.72 13.75 80.80 18.42 82.15 22.86 C 84.28 21.13 83.56 16.08 85.17 13.11 C 89.91 11.84 86.27 21.86 87.81 23.69 C 84.75 25.77 85.41 30.73 88.84 32.02 C 89.08 31.58 89.54 30.71 89.78 30.27 C 91.96 27.85 90.79 21.99 94.87 21.96 L 95.19 26.68 C 95.60 26.79 96.43 27.00 96.84 27.10 C 96.56 28.09 96.29 29.08 96.03 30.07 C 94.25 32.65 88.79 35.45 92.18 38.86 C 90.42 42.11 85.67 45.06 86.89 49.00 C 86.30 50.05 85.67 51.09 85.05 52.14 C 84.32 53.09 83.56 54.02 82.82 54.97 C 80.84 56.37 77.31 60.67 79.85 52.09 C 75.60 50.72 78.68 56.98 79.79 58.95 C 77.27 60.91 74.31 62.26 71.44 63.65 C 70.96 62.69 70.20 62.14 69.18 62.01 C 68.24 64.19 67.28 66.35 64.87 67.22 C 64.68 66.20 64.47 65.17 64.23 64.16 C 67.90 60.34 70.59 55.51 71.01 50.16 C 69.03 48.45 65.68 49.94 64.00 48.07 C 65.66 47.91 67.57 48.35 69.05 47.38 C 71.60 46.09 73.59 43.99 74.42 41.21 C 77.23 36.55 71.24 34.47 67.70 33.20 C 66.91 31.63 67.50 30.68 69.19 30.40 C 70.68 30.00 72.52 29.74 73.07 28.04 C 75.74 22.17 76.16 15.50 77.21 9.21 Z" />
</g>
<g id="#9b6798f9">
<path fill="#9b6798" opacity="0.98" d=" M 104.68 17.57 C 111.82 15.88 117.27 10.68 123.78 7.85 C 123.58 9.36 123.19 12.38 122.99 13.89 C 124.48 13.93 127.47 14.01 128.97 14.04 L 129.01 14.95 C 127.26 15.00 125.51 15.06 123.76 15.20 C 127.39 17.33 131.16 19.26 135.03 20.92 C 138.45 19.87 139.96 15.54 144.21 16.94 C 141.71 20.26 137.40 22.97 138.97 28.02 C 137.92 30.73 143.09 32.94 139.01 34.33 C 136.62 34.11 137.03 31.42 136.29 29.74 C 135.31 24.27 131.79 20.01 126.24 18.80 C 123.51 17.72 120.47 17.74 117.71 18.59 C 116.36 18.92 114.98 19.18 113.70 19.75 C 108.01 22.23 102.29 24.96 97.79 29.33 C 97.35 29.51 96.47 29.88 96.03 30.07 C 96.29 29.08 96.56 28.09 96.84 27.10 C 98.84 23.71 100.03 18.17 104.68 17.57 Z" />
</g>
<g id="#bd81a9f7">
<path fill="#bd81a9" opacity="0.97" d=" M 34.18 13.86 C 38.21 15.52 40.80 19.64 45.08 20.84 C 47.25 21.22 48.67 23.05 49.99 24.65 C 48.19 25.08 47.78 26.95 46.93 28.33 C 46.06 27.73 45.17 27.15 44.28 26.58 C 43.56 25.97 42.82 25.38 42.08 24.81 C 39.73 22.44 35.95 22.66 33.18 24.21 C 31.46 26.64 30.45 29.46 29.34 32.20 C 29.42 28.26 25.38 25.90 25.07 22.21 C 28.86 20.06 36.68 21.05 34.18 13.86 Z" />
</g>
<g id="#b379a7fc">
<path fill="#b379a7" opacity="1.00" d=" M 123.76 15.20 C 125.51 15.06 127.26 15.00 129.01 14.95 C 133.83 15.54 140.23 13.66 144.21 16.94 C 139.96 15.54 138.45 19.87 135.03 20.92 C 131.16 19.26 127.39 17.33 123.76 15.20 Z" />
</g>
<g id="#724e7aff">
<path fill="#724e7a" opacity="1.00" d=" M 117.71 18.59 C 120.47 17.74 123.51 17.72 126.24 18.80 C 123.39 18.75 120.55 18.68 117.71 18.59 Z" />
</g>
<g id="#2d4556fc">
<path fill="#2d4556" opacity="1.00" d=" M 113.70 19.75 C 114.98 19.18 116.36 18.92 117.71 18.59 C 120.55 18.68 123.39 18.75 126.24 18.80 C 131.79 20.01 135.31 24.27 136.29 29.74 C 136.23 31.59 136.11 35.27 136.05 37.12 C 136.35 38.63 135.27 39.60 133.97 40.08 C 133.76 34.99 136.74 29.43 133.01 25.00 C 132.08 22.51 129.43 21.60 127.22 20.63 C 123.20 19.18 119.07 20.29 115.07 20.98 C 114.73 20.67 114.04 20.06 113.70 19.75 Z" />
</g>
<g id="#20374aff">
<path fill="#20374a" opacity="1.00" d=" M 97.79 29.33 C 102.29 24.96 108.01 22.23 113.70 19.75 C 114.04 20.06 114.73 20.67 115.07 20.98 C 117.44 22.57 120.49 23.25 121.96 25.98 C 123.79 31.67 124.54 39.98 117.99 42.99 C 113.00 47.78 105.61 45.62 99.74 48.36 L 98.92 48.12 C 98.58 47.13 98.26 46.13 97.93 45.13 L 98.86 45.28 C 106.26 46.63 114.82 44.61 120.25 39.28 C 122.27 34.70 122.85 28.67 119.13 24.68 C 112.08 19.58 104.78 25.74 99.08 29.81 C 98.76 29.69 98.11 29.45 97.79 29.33 Z" />
</g>
<g id="#436076ff">
<path fill="#436076" opacity="1.00" d=" M 115.07 20.98 C 119.07 20.29 123.20 19.18 127.22 20.63 C 124.86 21.74 122.78 23.41 121.96 25.98 C 120.49 23.25 117.44 22.57 115.07 20.98 Z" />
</g>
<g id="#4f7482ff">
<path fill="#4f7482" opacity="1.00" d=" M 121.96 25.98 C 122.78 23.41 124.86 21.74 127.22 20.63 C 129.43 21.60 132.08 22.51 133.01 25.00 C 136.74 29.43 133.76 34.99 133.97 40.08 C 133.76 40.57 133.32 41.56 133.10 42.05 C 123.66 48.99 111.05 50.39 99.74 48.36 C 105.61 45.62 113.00 47.78 117.99 42.99 C 124.54 39.98 123.79 31.67 121.96 25.98 Z" />
</g>
<g id="#885792fc">
<path fill="#885792" opacity="1.00" d=" M 52.93 22.01 C 56.39 21.27 59.91 24.42 61.58 26.73 C 61.82 29.56 66.03 30.82 67.70 33.20 C 69.83 36.06 74.40 37.13 74.42 41.21 C 73.59 43.99 71.60 46.09 69.05 47.38 C 66.07 41.17 62.63 35.04 58.12 29.81 C 57.45 29.15 56.75 28.54 56.00 27.99 C 54.37 26.46 53.34 24.20 52.93 22.01 Z" />
</g>
<g id="#5d5a6ff6">
<path fill="#5d5a6f" opacity="0.96" d=" M 33.18 24.21 C 35.95 22.66 39.73 22.44 42.08 24.81 L 41.05 24.85 C 37.13 24.50 31.50 24.15 31.97 29.99 C 30.30 32.84 31.18 35.89 31.83 38.78 C 31.57 39.35 31.07 40.48 30.82 41.05 C 27.14 39.48 28.15 35.41 29.34 32.20 C 30.45 29.46 31.46 26.64 33.18 24.21 Z" />
</g>
<g id="#21435eff">
<path fill="#21435e" opacity="1.00" d=" M 99.08 29.81 C 104.78 25.74 112.08 19.58 119.13 24.68 C 109.50 26.05 104.62 38.56 93.91 37.19 C 94.97 40.19 97.66 42.30 98.86 45.28 L 97.93 45.13 L 97.12 44.91 C 95.59 42.80 94.15 40.60 92.18 38.86 C 88.79 35.45 94.25 32.65 96.03 30.07 C 96.47 29.88 97.35 29.51 97.79 29.33 C 98.11 29.45 98.76 29.69 99.08 29.81 Z" />
</g>
<g id="#8d598bf4">
<path fill="#8d598b" opacity="0.96" d=" M 88.84 32.02 C 85.41 30.73 84.75 25.77 87.81 23.69 L 88.77 23.98 C 89.02 25.55 89.53 28.70 89.78 30.27 C 89.54 30.71 89.08 31.58 88.84 32.02 Z" />
</g>
<g id="#547c86fd">
<path fill="#547c86" opacity="1.00" d=" M 31.97 29.99 C 31.50 24.15 37.13 24.50 41.05 24.85 C 38.76 32.99 38.76 46.39 48.74 49.34 C 50.37 50.09 52.20 49.95 53.95 50.08 C 53.94 50.81 53.91 52.28 53.90 53.02 C 47.17 53.60 34.21 54.44 33.07 45.06 C 32.98 42.91 32.46 40.82 31.83 38.78 C 31.18 35.89 30.30 32.84 31.97 29.99 Z" />
</g>
<g id="#214450ff">
<path fill="#214450" opacity="1.00" d=" M 41.05 24.85 L 42.08 24.81 C 42.82 25.38 43.56 25.97 44.28 26.58 C 43.46 26.73 41.84 27.04 41.03 27.20 C 40.78 33.22 40.68 40.33 44.71 45.29 C 46.70 48.06 50.82 46.96 53.18 48.90 C 51.70 49.07 50.22 49.22 48.74 49.34 C 38.76 46.39 38.76 32.99 41.05 24.85 Z" />
</g>
<g id="#ad74a5fc">
<path fill="#ad74a5" opacity="1.00" d=" M 46.93 28.33 C 47.78 26.95 48.19 25.08 49.99 24.65 C 53.03 26.28 53.73 30.67 57.01 32.10 C 56.74 30.71 56.30 29.37 56.00 27.99 C 56.75 28.54 57.45 29.15 58.12 29.81 C 58.32 31.88 58.69 33.91 59.03 35.95 C 57.53 34.76 56.48 35.48 55.84 37.10 C 53.13 33.91 50.42 30.69 46.93 28.33 Z" />
</g>
<g id="#224f68ff">
<path fill="#224f68" opacity="1.00" d=" M 93.91 37.19 C 104.62 38.56 109.50 26.05 119.13 24.68 C 122.85 28.67 122.27 34.70 120.25 39.28 C 114.82 44.61 106.26 46.63 98.86 45.28 C 97.66 42.30 94.97 40.19 93.91 37.19 Z" />
</g>
<g id="#2c6372ff">
<path fill="#2c6372" opacity="1.00" d=" M 41.03 27.20 C 41.84 27.04 43.46 26.73 44.28 26.58 C 45.17 27.15 46.06 27.73 46.93 28.33 C 50.42 30.69 53.13 33.91 55.84 37.10 C 56.61 41.62 53.27 45.48 53.95 50.08 C 52.20 49.95 50.37 50.09 48.74 49.34 C 50.22 49.22 51.70 49.07 53.18 48.90 C 50.82 46.96 46.70 48.06 44.71 45.29 C 40.68 40.33 40.78 33.22 41.03 27.20 Z" />
</g>
<g id="#9e6d98f3">
<path fill="#9e6d98" opacity="0.95" d=" M 67.70 33.20 C 66.03 30.82 61.82 29.56 61.58 26.73 C 64.20 27.84 66.24 30.10 69.19 30.40 C 67.50 30.68 66.91 31.63 67.70 33.20 Z" />
</g>
<g id="#9965a9ff">
<path fill="#9965a9" opacity="1.00" d=" M 58.12 29.81 C 62.63 35.04 66.07 41.17 69.05 47.38 C 67.57 48.35 65.66 47.91 64.00 48.07 C 62.07 46.01 60.82 43.53 60.28 40.77 C 59.88 39.16 59.42 37.57 59.03 35.95 C 58.69 33.91 58.32 31.88 58.12 29.81 Z" />
</g>
<g id="#76517bf2">
<path fill="#76517b" opacity="0.95" d=" M 136.29 29.74 C 137.03 31.42 136.62 34.11 139.01 34.33 C 138.22 35.44 137.23 36.42 136.05 37.12 C 136.11 35.27 136.23 31.59 136.29 29.74 Z" />
</g>
<g id="#9b679cff">
<path fill="#9b679c" opacity="1.00" d=" M 67.70 33.20 C 71.24 34.47 77.23 36.55 74.42 41.21 C 74.40 37.13 69.83 36.06 67.70 33.20 Z" />
</g>
<g id="#e19dbaff">
<path fill="#e19dba" opacity="1.00" d=" M 55.84 37.10 C 56.48 35.48 57.53 34.76 59.03 35.95 C 59.42 37.57 59.88 39.16 60.28 40.77 C 60.06 45.48 59.49 50.16 59.24 54.86 C 58.52 54.23 57.80 53.61 57.08 52.99 C 57.02 54.33 56.97 55.68 56.92 57.02 C 55.91 56.04 54.91 55.04 53.90 54.06 L 53.90 53.02 C 53.91 52.28 53.94 50.81 53.95 50.08 C 53.27 45.48 56.61 41.62 55.84 37.10 Z" />
</g>
<g id="#39555ef2">
<path fill="#39555e" opacity="0.95" d=" M 30.82 41.05 C 31.07 40.48 31.57 39.35 31.83 38.78 C 32.46 40.82 32.98 42.91 33.07 45.06 C 31.46 44.63 31.30 42.41 30.82 41.05 Z" />
</g>
<g id="#976297ff">
<path fill="#976297" opacity="1.00" d=" M 92.18 38.86 C 94.15 40.60 95.59 42.80 97.12 44.91 C 95.19 47.28 95.18 52.41 91.29 51.99 C 90.64 49.57 89.66 46.82 86.89 49.00 C 85.67 45.06 90.42 42.11 92.18 38.86 Z" />
</g>
<g id="#bb80afff">
<path fill="#bb80af" opacity="1.00" d=" M 60.28 40.77 C 60.82 43.53 62.07 46.01 64.00 48.07 C 65.68 49.94 69.03 48.45 71.01 50.16 C 70.59 55.51 67.90 60.34 64.23 64.16 C 61.72 62.26 61.92 63.75 62.79 65.95 C 60.80 65.48 58.79 65.03 56.74 64.94 C 61.04 63.49 60.79 58.41 59.24 54.86 C 59.49 50.16 60.06 45.48 60.28 40.77 Z" />
</g>
<g id="#3b4e60f2">
<path fill="#3b4e60" opacity="0.95" d=" M 99.74 48.36 C 111.05 50.39 123.66 48.99 133.10 42.05 C 129.11 49.62 118.33 49.43 110.83 51.11 C 106.90 50.94 102.90 51.05 99.05 50.11 C 99.02 49.61 98.95 48.62 98.92 48.12 L 99.74 48.36 Z" />
</g>
<g id="#8b598cff">
<path fill="#8b598c" opacity="1.00" d=" M 97.12 44.91 L 97.93 45.13 C 98.26 46.13 98.58 47.13 98.92 48.12 C 98.95 48.62 99.02 49.61 99.05 50.11 C 97.58 53.17 95.68 55.99 93.90 58.87 C 89.44 56.11 92.84 68.46 88.07 65.07 C 84.66 63.35 80.47 64.00 76.87 64.56 C 72.76 64.93 68.96 69.29 64.87 67.22 C 67.28 66.35 68.24 64.19 69.18 62.01 C 70.20 62.14 70.96 62.69 71.44 63.65 C 74.31 62.26 77.27 60.91 79.79 58.95 C 78.68 56.98 75.60 50.72 79.85 52.09 C 77.31 60.67 80.84 56.37 82.82 54.97 C 84.36 55.63 87.26 57.06 87.33 54.26 C 88.73 54.00 90.15 53.69 90.47 52.07 L 91.29 51.99 C 95.18 52.41 95.19 47.28 97.12 44.91 Z" />
</g>
<g id="#645365ff">
<path fill="#645365" opacity="1.00" d=" M 86.89 49.00 C 89.66 46.82 90.64 49.57 91.29 51.99 L 90.47 52.07 C 89.36 49.44 87.55 50.69 85.85 51.93 L 85.05 52.14 C 85.67 51.09 86.30 50.05 86.89 49.00 Z" />
</g>
<g id="#cec8ceff">
<path fill="#cec8ce" opacity="1.00" d=" M 85.85 51.93 C 87.55 50.69 89.36 49.44 90.47 52.07 C 90.15 53.69 88.73 54.00 87.33 54.26 C 86.96 53.67 86.22 52.51 85.85 51.93 Z" />
</g>
<g id="#814e84fd">
<path fill="#814e84" opacity="1.00" d=" M 99.05 50.11 C 102.90 51.05 106.90 50.94 110.83 51.11 C 113.92 54.39 116.48 58.12 119.71 61.27 L 120.23 61.82 C 119.76 61.81 118.80 61.78 118.33 61.77 C 115.17 58.80 111.51 55.35 107.00 54.93 C 106.51 57.52 107.68 59.86 109.24 61.82 C 109.15 62.63 108.96 64.23 108.87 65.04 C 106.26 65.54 104.93 62.97 102.90 61.98 C 99.95 61.59 97.42 63.65 96.00 66.05 C 95.51 66.04 94.54 66.02 94.06 66.01 C 94.02 64.22 93.94 60.65 93.90 58.87 C 95.68 55.99 97.58 53.17 99.05 50.11 M 99.33 56.22 C 98.47 57.80 97.06 59.17 96.94 61.06 C 98.83 60.93 100.20 59.53 101.78 58.67 C 102.55 57.21 100.78 55.45 99.33 56.22 Z" />
</g>
<g id="#342c34ff">
<path fill="#342c34" opacity="1.00" d=" M 85.05 52.14 L 85.85 51.93 C 86.22 52.51 86.96 53.67 87.33 54.26 C 87.26 57.06 84.36 55.63 82.82 54.97 C 83.56 54.02 84.32 53.09 85.05 52.14 Z" />
</g>
<g id="#b17d93f7">
<path fill="#b17d93" opacity="0.97" d=" M 57.08 52.99 C 57.80 53.61 58.52 54.23 59.24 54.86 C 60.27 59.58 54.94 58.27 52.97 55.91 C 53.20 55.45 53.67 54.52 53.90 54.06 C 54.91 55.04 55.91 56.04 56.92 57.02 C 56.97 55.68 57.02 54.33 57.08 52.99 Z" />
</g>
<g id="#d991b2fe">
<path fill="#d991b2" opacity="1.00" d=" M 59.24 54.86 C 60.79 58.41 61.04 63.49 56.74 64.94 C 55.83 64.66 54.93 64.35 54.04 64.02 C 53.96 62.34 53.92 60.64 53.53 58.99 C 53.39 58.22 53.11 56.68 52.97 55.91 C 54.94 58.27 60.27 59.58 59.24 54.86 Z" />
</g>
<g id="#713f78ff">
<path fill="#713f78" opacity="1.00" d=" M 107.00 54.93 C 111.51 55.35 115.17 58.80 118.33 61.77 L 118.01 62.56 C 117.34 63.21 116.68 63.88 116.03 64.55 C 113.76 65.91 114.11 68.58 113.69 70.84 C 113.30 70.96 112.52 71.20 112.13 71.32 C 111.45 69.63 108.60 68.10 110.20 66.22 C 111.59 64.65 110.71 62.91 109.24 61.82 C 107.68 59.86 106.51 57.52 107.00 54.93 Z" />
</g>
<g id="#975b8eff">
<path fill="#975b8e" opacity="1.00" d=" M 99.33 56.22 C 100.78 55.45 102.55 57.21 101.78 58.67 C 100.20 59.53 98.83 60.93 96.94 61.06 C 97.06 59.17 98.47 57.80 99.33 56.22 Z" />
</g>
<g id="#a480a7ff">
<path fill="#a480a7" opacity="1.00" d=" M 88.07 65.07 C 92.84 68.46 89.44 56.11 93.90 58.87 C 93.94 60.65 94.02 64.22 94.06 66.01 C 89.83 68.30 85.18 69.65 80.95 71.94 C 80.20 71.96 78.70 72.01 77.94 72.04 C 77.99 71.53 78.07 70.50 78.12 69.99 C 80.81 69.10 84.04 68.99 85.66 66.30 C 86.86 69.11 88.77 67.70 88.07 65.07 Z" />
</g>
<g id="#b885a6f9">
<path fill="#b885a6" opacity="0.98" d=" M 50.85 62.78 C 50.69 60.26 50.98 59.01 53.53 58.99 C 53.92 60.64 53.96 62.34 54.04 64.02 C 54.01 65.34 54.00 66.66 53.99 67.98 C 52.63 66.12 51.51 62.75 48.65 64.62 C 48.21 64.68 47.31 64.81 46.86 64.87 C 47.61 63.24 49.23 62.93 50.85 62.78 Z" />
</g>
<g id="#ae6f9cfb">
<path fill="#ae6f9c" opacity="1.00" d=" M 119.71 61.27 C 126.13 58.78 137.07 60.98 139.31 68.28 C 135.34 67.87 131.32 67.19 127.32 66.65 C 124.95 65.03 123.25 62.25 120.23 61.82 L 119.71 61.27 Z" />
</g>
<g id="#794780ff">
<path fill="#794780" opacity="1.00" d=" M 96.00 66.05 C 97.42 63.65 99.95 61.59 102.90 61.98 C 104.93 62.97 106.26 65.54 108.87 65.04 C 108.96 64.23 109.15 62.63 109.24 61.82 C 110.71 62.91 111.59 64.65 110.20 66.22 C 108.60 68.10 111.45 69.63 112.13 71.32 C 111.14 72.34 110.16 73.36 109.15 74.36 C 108.37 73.31 107.64 72.24 106.82 71.23 C 105.56 71.82 104.36 72.54 103.12 73.19 C 104.74 71.14 106.44 69.16 108.04 67.09 C 104.44 64.99 99.88 64.45 96.00 66.05 Z" />
</g>
<g id="#9f669aff">
<path fill="#9f669a" opacity="1.00" d=" M 118.33 61.77 C 118.80 61.78 119.76 61.81 120.23 61.82 C 123.25 62.25 124.95 65.03 127.32 66.65 C 131.32 67.19 135.34 67.87 139.31 68.28 L 140.06 68.24 C 140.11 68.75 140.22 69.77 140.28 70.28 C 132.59 69.27 128.68 77.60 124.80 82.79 C 123.30 85.21 120.28 83.67 119.17 81.71 C 118.67 75.92 119.14 70.12 119.73 64.36 C 119.30 63.91 118.44 63.01 118.01 62.56 L 118.33 61.77 Z" />
</g>
<g id="#834f65ff">
<path fill="#834f65" opacity="1.00" d=" M 62.79 65.95 C 61.92 63.75 61.72 62.26 64.23 64.16 C 64.47 65.17 64.68 66.20 64.87 67.22 C 62.51 66.61 62.54 69.56 61.73 71.02 C 60.25 68.83 55.37 68.11 56.74 64.94 C 58.79 65.03 60.80 65.48 62.79 65.95 Z" />
</g>
<g id="#935b90fe">
<path fill="#935b90" opacity="1.00" d=" M 116.03 64.55 C 116.68 63.88 117.34 63.21 118.01 62.56 C 118.44 63.01 119.30 63.91 119.73 64.36 C 119.14 70.12 118.67 75.92 119.17 81.71 C 120.28 83.67 123.30 85.21 124.80 82.79 C 128.68 77.60 132.59 69.27 140.28 70.28 C 142.02 70.18 140.53 73.83 140.89 75.17 C 140.06 73.93 138.99 72.29 137.26 73.17 C 132.52 77.21 129.12 82.47 124.73 86.82 C 122.61 87.40 120.74 85.77 118.84 85.10 C 117.97 83.98 117.02 82.92 115.92 82.02 C 115.99 81.59 116.12 80.72 116.19 80.29 C 117.35 75.11 117.40 69.69 116.03 64.55 Z" />
</g>
<g id="#9b6397fd">
<path fill="#9b6397" opacity="1.00" d=" M 48.65 64.62 C 51.51 62.75 52.63 66.12 53.99 67.98 C 54.20 68.28 54.61 68.88 54.82 69.18 C 54.03 70.73 52.47 70.38 51.03 70.25 C 51.01 74.88 52.09 79.44 51.99 84.07 C 48.39 84.52 45.74 80.88 42.34 81.23 C 40.93 83.64 39.30 86.10 38.57 88.80 C 39.59 94.16 36.96 99.08 36.17 104.24 C 38.45 102.90 40.09 100.73 41.95 98.89 C 41.94 99.39 41.92 100.40 41.91 100.91 C 39.69 105.49 37.66 110.17 36.61 115.18 C 36.42 113.88 36.05 111.28 35.86 109.99 C 33.35 109.88 30.99 110.86 28.58 111.39 C 26.24 110.90 22.77 112.27 22.98 115.01 L 22.15 114.77 C 21.99 113.67 21.43 111.88 20.00 112.11 C 16.51 111.55 14.25 116.86 17.88 118.44 C 18.94 118.83 20.02 119.14 21.14 119.35 C 20.49 119.99 19.84 120.62 19.19 121.25 C 14.81 118.89 11.58 114.15 11.25 109.25 C 11.70 108.12 12.13 106.98 12.58 105.86 C 13.44 106.90 14.22 108.31 15.82 107.98 C 20.55 109.28 20.12 100.23 26.02 104.01 C 28.32 104.15 30.52 105.09 32.85 104.99 C 34.56 101.41 35.23 97.37 36.53 93.61 C 37.93 90.83 37.45 88.98 35.11 88.04 C 34.59 87.74 33.56 87.13 33.04 86.83 C 34.69 84.08 37.52 82.11 39.90 79.93 C 41.27 77.04 43.47 75.18 46.68 74.59 C 48.50 71.61 47.80 67.91 48.65 64.62 Z" />
</g>
<g id="#a57ca4ff">
<path fill="#a57ca4" opacity="1.00" d=" M 54.04 64.02 C 54.93 64.35 55.83 64.66 56.74 64.94 C 55.37 68.11 60.25 68.83 61.73 71.02 C 62.07 71.54 62.74 72.59 63.08 73.11 C 60.00 72.63 57.09 71.34 54.82 69.18 C 54.61 68.88 54.20 68.28 53.99 67.98 C 54.00 66.66 54.01 65.34 54.04 64.02 Z" />
</g>
<g id="#c98298ff">
<path fill="#c98298" opacity="1.00" d=" M 76.87 64.56 C 80.47 64.00 84.66 63.35 88.07 65.07 C 88.77 67.70 86.86 69.11 85.66 66.30 C 84.04 68.99 80.81 69.10 78.12 69.99 C 78.30 67.97 79.24 65.65 76.87 64.56 Z" />
</g>
<g id="#ac6e9bf8">
<path fill="#ac6e9b" opacity="0.97" d=" M 39.90 79.93 C 38.69 74.50 41.44 66.58 46.86 64.87 C 47.31 64.81 48.21 64.68 48.65 64.62 C 47.80 67.91 48.50 71.61 46.68 74.59 C 43.47 75.18 41.27 77.04 39.90 79.93 Z" />
</g>
<g id="#d68a9bff">
<path fill="#d68a9b" opacity="1.00" d=" M 64.87 67.22 C 68.96 69.29 72.76 64.93 76.87 64.56 C 79.24 65.65 78.30 67.97 78.12 69.99 C 78.07 70.50 77.99 71.53 77.94 72.04 C 76.01 72.72 74.02 73.26 72.15 74.11 C 69.10 73.97 66.03 73.91 63.08 73.11 C 62.74 72.59 62.07 71.54 61.73 71.02 C 62.54 69.56 62.51 66.61 64.87 67.22 Z" />
</g>
<g id="#6c3d7aff">
<path fill="#6c3d7a" opacity="1.00" d=" M 96.00 66.05 C 99.88 64.45 104.44 64.99 108.04 67.09 C 106.44 69.16 104.74 71.14 103.12 73.19 C 101.47 74.24 99.78 75.22 98.11 76.24 C 94.10 76.65 98.66 73.69 99.17 72.00 C 91.18 71.00 84.87 77.95 76.82 76.94 C 82.53 72.14 90.26 70.84 96.00 66.05 Z" />
</g>
<g id="#884c83ff">
<path fill="#884c83" opacity="1.00" d=" M 113.69 70.84 C 114.11 68.58 113.76 65.91 116.03 64.55 C 117.40 69.69 117.35 75.11 116.19 80.29 C 115.14 77.78 114.21 75.22 113.19 72.69 C 113.32 72.23 113.56 71.30 113.69 70.84 Z" />
</g>
<g id="#784683ff">
<path fill="#784683" opacity="1.00" d=" M 80.95 71.94 C 85.18 69.65 89.83 68.30 94.06 66.01 C 94.54 66.02 95.51 66.04 96.00 66.05 C 90.26 70.84 82.53 72.14 76.82 76.94 C 84.87 77.95 91.18 71.00 99.17 72.00 C 98.66 73.69 94.10 76.65 98.11 76.24 C 90.88 80.86 81.53 82.16 73.31 79.73 C 72.18 79.23 71.76 78.39 72.04 77.18 C 74.97 75.36 78.02 73.74 80.95 71.94 Z" />
</g>
<g id="#91598fff">
<path fill="#91598f" opacity="1.00" d=" M 51.03 70.25 C 52.47 70.38 54.03 70.73 54.82 69.18 C 57.09 71.34 60.00 72.63 63.08 73.11 C 66.03 73.91 69.10 73.97 72.15 74.11 C 68.57 78.68 62.41 74.42 57.74 74.67 L 57.11 74.67 C 55.87 73.56 54.47 72.64 53.00 71.87 C 54.97 73.18 50.60 80.32 54.82 80.13 C 54.80 80.54 54.77 81.37 54.75 81.78 C 54.43 82.79 54.13 83.80 53.85 84.81 C 52.64 89.29 47.77 84.53 45.38 87.38 C 43.95 89.78 39.75 92.13 42.00 95.20 C 42.00 96.43 41.98 97.66 41.95 98.89 C 40.09 100.73 38.45 102.90 36.17 104.24 C 36.96 99.08 39.59 94.16 38.57 88.80 C 39.30 86.10 40.93 83.64 42.34 81.23 C 45.74 80.88 48.39 84.52 51.99 84.07 C 52.09 79.44 51.01 74.88 51.03 70.25 Z" />
</g>
<g id="#875187ff">
<path fill="#875187" opacity="1.00" d=" M 103.12 73.19 C 104.36 72.54 105.56 71.82 106.82 71.23 C 107.64 72.24 108.37 73.31 109.15 74.36 C 101.49 81.02 91.16 84.12 81.11 84.33 C 73.99 85.88 67.21 82.59 60.81 80.08 C 58.91 78.82 57.64 77.04 57.74 74.67 C 62.41 74.42 68.57 78.68 72.15 74.11 C 74.02 73.26 76.01 72.72 77.94 72.04 C 78.70 72.01 80.20 71.96 80.95 71.94 C 78.02 73.74 74.97 75.36 72.04 77.18 C 71.76 78.39 72.18 79.23 73.31 79.73 C 81.53 82.16 90.88 80.86 98.11 76.24 C 99.78 75.22 101.47 74.24 103.12 73.19 Z" />
</g>
<g id="#5d425fff">
<path fill="#5d425f" opacity="1.00" d=" M 112.13 71.32 C 112.52 71.20 113.30 70.96 113.69 70.84 C 113.56 71.30 113.32 72.23 113.19 72.69 C 112.42 73.33 111.67 73.99 110.93 74.67 C 110.26 75.30 109.59 75.94 108.95 76.59 C 107.53 77.65 106.08 78.67 104.70 79.78 C 96.51 83.12 88.13 87.02 79.00 86.05 C 75.16 86.43 71.48 85.09 67.66 85.21 C 64.73 84.56 63.10 81.79 60.81 80.08 C 67.21 82.59 73.99 85.88 81.11 84.33 C 91.16 84.12 101.49 81.02 109.15 74.36 C 110.16 73.36 111.14 72.34 112.13 71.32 Z" />
</g>
<g id="#824b82ff">
<path fill="#824b82" opacity="1.00" d=" M 53.00 71.87 C 54.47 72.64 55.87 73.56 57.11 74.67 L 56.80 75.59 C 55.51 76.79 54.94 78.39 54.82 80.13 C 50.60 80.32 54.97 73.18 53.00 71.87 Z" />
</g>
<g id="#8b6695ff">
<path fill="#8b6695" opacity="1.00" d=" M 110.93 74.67 C 111.67 73.99 112.42 73.33 113.19 72.69 C 114.21 75.22 115.14 77.78 116.19 80.29 C 116.12 80.72 115.99 81.59 115.92 82.02 C 113.65 79.94 113.96 75.74 110.93 74.67 Z" />
</g>
<g id="#8a548afe">
<path fill="#8a548a" opacity="1.00" d=" M 137.26 73.17 C 138.99 72.29 140.06 73.93 140.89 75.17 C 143.23 77.82 146.36 79.63 149.10 81.86 C 146.56 81.85 143.99 82.13 141.80 83.52 C 140.69 83.91 139.83 84.68 139.31 85.74 C 138.53 86.94 137.79 88.17 137.03 89.38 C 134.96 88.31 133.09 86.87 130.91 86.03 C 126.94 84.83 126.59 90.65 122.77 90.49 C 120.63 89.41 118.65 87.73 118.84 85.10 C 120.74 85.77 122.61 87.40 124.73 86.82 C 129.12 82.47 132.52 77.21 137.26 73.17 Z" />
</g>
<g id="#bca7c2ff">
<path fill="#bca7c2" opacity="1.00" d=" M 57.11 74.67 L 57.74 74.67 C 57.64 77.04 58.91 78.82 60.81 80.08 C 63.10 81.79 64.73 84.56 67.66 85.21 C 70.52 89.89 77.26 89.34 82.00 90.00 C 89.99 91.50 98.73 84.90 105.96 90.18 C 106.44 92.60 104.38 94.39 103.22 96.25 C 96.25 104.56 82.09 95.32 75.72 103.80 L 74.91 104.04 C 71.62 104.86 68.42 106.46 64.95 105.98 C 61.88 100.67 71.68 100.45 73.14 96.00 C 72.14 93.54 69.19 92.90 67.05 91.85 C 62.92 90.37 60.12 86.83 57.29 83.67 C 57.09 80.98 56.93 78.29 56.80 75.59 L 57.11 74.67 Z" />
</g>
<g id="#9479a4ff">
<path fill="#9479a4" opacity="1.00" d=" M 108.95 76.59 C 109.59 75.94 110.26 75.30 110.93 74.67 C 113.96 75.74 113.65 79.94 115.92 82.02 C 116.77 88.30 117.18 94.64 117.00 100.98 C 114.90 102.84 112.53 104.29 109.78 104.94 C 110.24 100.78 113.25 97.56 114.64 93.71 C 115.17 87.50 112.39 81.59 108.95 76.59 Z" />
</g>
<g id="#d3bdccfe">
<path fill="#d3bdcc" opacity="1.00" d=" M 54.82 80.13 C 54.94 78.39 55.51 76.79 56.80 75.59 C 56.93 78.29 57.09 80.98 57.29 83.67 C 60.12 86.83 62.92 90.37 67.05 91.85 C 69.19 92.90 72.14 93.54 73.14 96.00 C 71.68 100.45 61.88 100.67 64.95 105.98 C 64.51 105.95 63.64 105.89 63.21 105.85 C 62.52 105.23 61.80 104.65 61.04 104.11 C 57.09 101.84 56.31 96.91 55.12 92.87 C 55.07 92.20 54.96 90.87 54.90 90.21 C 54.87 87.40 54.82 84.59 54.75 81.78 C 54.77 81.37 54.80 80.54 54.82 80.13 Z" />
</g>
<g id="#a088afff">
<path fill="#a088af" opacity="1.00" d=" M 104.70 79.78 C 106.08 78.67 107.53 77.65 108.95 76.59 C 112.39 81.59 115.17 87.50 114.64 93.71 C 113.25 97.56 110.24 100.78 109.78 104.94 C 107.29 106.30 104.59 105.47 101.98 105.02 C 101.78 104.55 101.37 103.60 101.17 103.13 C 104.99 100.42 111.95 98.24 110.03 91.97 C 111.92 86.73 107.07 83.57 104.70 79.78 Z" />
</g>
<g id="#ae97b8ff">
<path fill="#ae97b8" opacity="1.00" d=" M 79.00 86.05 C 88.13 87.02 96.51 83.12 104.70 79.78 C 107.07 83.57 111.92 86.73 110.03 91.97 C 111.95 98.24 104.99 100.42 101.17 103.13 C 101.37 103.60 101.78 104.55 101.98 105.02 C 98.27 104.90 94.62 104.34 90.93 104.00 C 90.25 103.94 88.90 103.81 88.22 103.75 C 85.39 103.28 82.43 102.43 79.74 103.75 C 78.40 103.80 77.06 103.82 75.72 103.80 C 82.09 95.32 96.25 104.56 103.22 96.25 C 104.38 94.39 106.44 92.60 105.96 90.18 C 98.73 84.90 89.99 91.50 82.00 90.00 C 77.26 89.34 70.52 89.89 67.66 85.21 C 71.48 85.09 75.16 86.43 79.00 86.05 Z" />
</g>
<g id="#b78ba8fe">
<path fill="#b78ba8" opacity="1.00" d=" M 53.85 84.81 C 54.13 83.80 54.43 82.79 54.75 81.78 C 54.82 84.59 54.87 87.40 54.90 90.21 C 54.67 89.95 54.19 89.42 53.96 89.16 C 53.91 87.71 53.88 86.26 53.85 84.81 Z" />
</g>
<g id="#87699aff">
<path fill="#87699a" opacity="1.00" d=" M 115.92 82.02 C 117.02 82.92 117.97 83.98 118.84 85.10 C 118.65 87.73 120.63 89.41 122.77 90.49 L 123.39 90.97 C 122.82 92.99 122.06 94.96 121.26 96.90 C 120.51 97.87 119.73 98.81 118.94 99.74 C 118.45 100.05 117.48 100.67 117.00 100.98 C 117.18 94.64 116.77 88.30 115.92 82.02 Z" />
</g>
<g id="#c382abff">
<path fill="#c382ab" opacity="1.00" d=" M 141.80 83.52 C 143.99 82.13 146.56 81.85 149.10 81.86 L 149.98 81.93 C 151.77 86.16 155.92 91.19 152.71 95.72 C 148.81 98.18 143.47 95.35 139.99 99.00 C 133.60 102.48 135.74 110.96 136.20 116.67 C 136.66 116.81 137.59 117.09 138.05 117.23 L 137.89 118.03 C 136.66 118.26 135.84 119.15 135.05 120.04 C 133.53 115.81 132.95 111.35 132.86 106.86 C 133.68 105.42 134.03 103.79 134.36 102.18 C 134.90 100.84 135.45 99.50 136.10 98.20 L 136.87 97.84 C 137.20 97.68 137.84 97.36 138.17 97.21 C 140.79 95.85 143.08 93.96 145.69 92.58 C 147.09 89.03 142.78 86.67 141.80 83.52 Z" />
</g>
<g id="#af73a3fe">
<path fill="#af73a3" opacity="1.00" d=" M 149.98 81.93 C 151.69 81.74 152.72 83.05 153.72 84.21 C 154.45 88.46 156.31 92.49 156.01 96.91 C 154.08 100.54 150.47 102.80 147.06 104.88 C 147.04 103.82 146.83 102.82 146.43 101.87 C 143.45 96.40 137.62 104.11 140.85 107.30 C 141.16 107.55 141.77 108.06 142.08 108.31 C 138.66 109.84 138.96 114.10 138.05 117.23 C 137.59 117.09 136.66 116.81 136.20 116.67 C 135.74 110.96 133.60 102.48 139.99 99.00 C 143.47 95.35 148.81 98.18 152.71 95.72 C 155.92 91.19 151.77 86.16 149.98 81.93 Z" />
</g>
<g id="#d38db2ff">
<path fill="#d38db2" opacity="1.00" d=" M 139.31 85.74 C 139.83 84.68 140.69 83.91 141.80 83.52 C 142.78 86.67 147.09 89.03 145.69 92.58 C 143.08 93.96 140.79 95.85 138.17 97.21 C 138.50 93.38 140.28 89.54 139.31 85.74 Z" />
</g>
<g id="#9a659afd">
<path fill="#9a659a" opacity="1.00" d=" M 153.72 84.21 C 154.06 84.39 154.74 84.77 155.08 84.95 C 156.95 88.35 157.79 92.53 160.78 95.17 C 160.85 94.65 160.99 93.61 161.06 93.10 L 162.06 92.98 C 162.16 98.45 158.31 103.13 158.72 108.73 C 156.50 110.24 157.14 112.06 158.82 113.68 C 158.06 115.34 158.01 117.17 157.97 118.96 C 156.47 119.00 153.47 119.06 151.97 119.09 C 152.28 121.41 152.95 123.67 153.09 126.01 C 150.79 125.05 148.52 123.91 146.70 122.17 C 151.12 117.77 156.57 112.84 156.02 105.96 C 150.29 105.43 148.63 112.72 147.26 117.15 C 147.20 116.59 147.08 115.48 147.02 114.92 C 147.42 112.93 145.42 112.55 143.98 112.05 C 140.89 112.66 141.19 117.74 137.89 118.03 L 138.05 117.23 C 138.96 114.10 138.66 109.84 142.08 108.31 C 144.57 108.37 146.37 107.33 147.06 104.88 C 150.47 102.80 154.08 100.54 156.01 96.91 C 156.31 92.49 154.45 88.46 153.72 84.21 Z" />
</g>
<g id="#824d85ff">
<path fill="#824d85" opacity="1.00" d=" M 45.38 87.38 C 47.77 84.53 52.64 89.29 53.85 84.81 C 53.88 86.26 53.91 87.71 53.96 89.16 C 48.92 88.28 45.29 91.82 42.00 95.20 C 39.75 92.13 43.95 89.78 45.38 87.38 Z" />
</g>
<g id="#af87a8fd">
<path fill="#af87a8" opacity="1.00" d=" M 155.08 84.95 C 160.00 83.52 161.66 89.28 161.06 93.10 C 160.99 93.61 160.85 94.65 160.78 95.17 C 157.79 92.53 156.95 88.35 155.08 84.95 Z" />
</g>
<g id="#7b4a82fe">
<path fill="#7b4a82" opacity="1.00" d=" M 122.77 90.49 C 126.59 90.65 126.94 84.83 130.91 86.03 C 133.09 86.87 134.96 88.31 137.03 89.38 C 137.02 90.02 137.02 91.32 137.02 91.97 C 135.68 91.34 134.33 90.61 132.83 90.49 C 132.40 90.43 131.55 90.32 131.13 90.26 C 130.96 94.50 132.60 98.42 134.36 102.18 C 134.03 103.79 133.68 105.42 132.86 106.86 C 130.76 108.95 129.26 111.55 128.10 114.26 C 128.73 111.33 126.24 110.16 124.31 108.67 C 122.39 105.55 122.15 101.75 122.04 98.19 C 122.83 95.41 126.57 94.36 126.01 91.17 C 125.36 91.12 124.05 91.02 123.39 90.97 L 122.77 90.49 Z" />
</g>
<g id="#f2a1b9ff">
<path fill="#f2a1b9" opacity="1.00" d=" M 139.31 85.74 C 140.28 89.54 138.50 93.38 138.17 97.21 C 137.84 97.36 137.20 97.68 136.87 97.84 C 136.98 95.88 137.03 93.93 137.02 91.97 C 137.02 91.32 137.02 90.02 137.03 89.38 C 137.79 88.17 138.53 86.94 139.31 85.74 Z" />
</g>
<g id="#b97ca9ff">
<path fill="#b97ca9" opacity="1.00" d=" M 32.05 88.00 C 32.30 87.70 32.79 87.12 33.04 86.83 C 33.56 87.13 34.59 87.74 35.11 88.04 C 34.63 92.52 33.35 97.12 30.81 100.87 C 27.02 101.58 22.38 98.47 18.93 100.85 C 17.31 100.95 15.69 101.01 14.07 101.07 L 13.08 101.08 C 13.28 100.78 13.69 100.18 13.90 99.87 C 17.51 96.72 22.27 97.29 26.72 96.74 C 28.74 94.01 31.39 91.46 32.05 88.00 Z" />
</g>
<g id="#c987a8f5">
<path fill="#c987a8" opacity="0.96" d=" M 19.78 94.78 C 24.07 92.77 26.77 87.00 32.05 88.00 C 31.39 91.46 28.74 94.01 26.72 96.74 C 22.27 97.29 17.51 96.72 13.90 99.87 C 13.63 96.70 18.05 96.62 19.78 94.78 Z" />
</g>
<g id="#a872a3ff">
<path fill="#a872a3" opacity="1.00" d=" M 35.11 88.04 C 37.45 88.98 37.93 90.83 36.53 93.61 C 35.23 97.37 34.56 101.41 32.85 104.99 C 30.52 105.09 28.32 104.15 26.02 104.01 C 20.12 100.23 20.55 109.28 15.82 107.98 C 16.72 105.54 18.18 103.34 18.93 100.85 C 22.38 98.47 27.02 101.58 30.81 100.87 C 33.35 97.12 34.63 92.52 35.11 88.04 Z" />
</g>
<g id="#6e4077f7">
<path fill="#6e4077" opacity="0.97" d=" M 42.00 95.20 C 45.29 91.82 48.92 88.28 53.96 89.16 C 54.19 89.42 54.67 89.95 54.90 90.21 C 54.96 90.87 55.07 92.20 55.12 92.87 C 50.57 92.18 47.17 95.12 43.92 97.86 C 42.35 98.26 43.89 101.45 41.91 100.91 C 41.92 100.40 41.94 99.39 41.95 98.89 C 41.98 97.66 42.00 96.43 42.00 95.20 Z" />
</g>
<g id="#8f5995f8">
<path fill="#8f5995" opacity="0.97" d=" M 131.13 90.26 C 131.55 90.32 132.40 90.43 132.83 90.49 C 134.04 93.01 135.07 95.61 136.10 98.20 C 135.45 99.50 134.90 100.84 134.36 102.18 C 132.60 98.42 130.96 94.50 131.13 90.26 Z" />
</g>
<g id="#0d080b32">
<path fill="#0d080b" opacity="0.20" d=" M 132.83 90.49 C 134.33 90.61 135.68 91.34 137.02 91.97 C 137.03 93.93 136.98 95.88 136.87 97.84 L 136.10 98.20 C 135.07 95.61 134.04 93.01 132.83 90.49 Z" />
</g>
<g id="#673e74ff">
<path fill="#673e74" opacity="1.00" d=" M 123.39 90.97 C 124.05 91.02 125.36 91.12 126.01 91.17 C 126.57 94.36 122.83 95.41 122.04 98.19 C 121.85 97.87 121.46 97.23 121.26 96.90 C 122.06 94.96 122.82 92.99 123.39 90.97 Z" />
</g>
<g id="#503a56ff">
<path fill="#503a56" opacity="1.00" d=" M 121.26 96.90 C 121.46 97.23 121.85 97.87 122.04 98.19 C 122.15 101.75 122.39 105.55 124.31 108.67 C 126.24 110.16 128.73 111.33 128.10 114.26 L 127.77 115.15 C 127.27 114.01 126.82 112.84 126.20 111.76 C 124.76 112.76 123.45 113.93 122.13 115.08 L 122.04 114.02 C 125.43 111.23 122.34 107.91 121.00 104.89 C 120.99 104.14 120.98 102.66 120.98 101.91 C 121.19 100.42 120.52 99.69 118.94 99.74 C 119.73 98.81 120.51 97.87 121.26 96.90 Z" />
</g>
<g id="#665572ff">
<path fill="#665572" opacity="1.00" d=" M 117.00 100.98 C 117.48 100.67 118.45 100.05 118.94 99.74 C 120.52 99.69 121.19 100.42 120.98 101.91 C 117.47 100.37 115.10 105.19 111.83 105.99 C 109.52 106.68 107.15 107.11 104.77 107.36 C 101.10 106.95 97.47 106.24 93.78 106.15 C 93.38 106.08 92.58 105.96 92.18 105.89 C 91.89 105.65 91.33 105.16 91.04 104.91 L 90.93 104.00 C 94.62 104.34 98.27 104.90 101.98 105.02 C 104.59 105.47 107.29 106.30 109.78 104.94 C 112.53 104.29 114.90 102.84 117.00 100.98 Z" />
</g>
<g id="#cfbbcdff">
<path fill="#cfbbcd" opacity="1.00" d=" M 140.85 107.30 C 137.62 104.11 143.45 96.40 146.43 101.87 C 145.76 104.66 143.15 106.03 140.85 107.30 Z" />
</g>
<g id="#c08b9eef">
<path fill="#c08b9e" opacity="0.94" d=" M 11.25 109.25 C 11.45 106.78 10.20 101.93 13.08 101.08 L 14.07 101.07 C 13.59 102.67 13.07 104.26 12.58 105.86 C 12.13 106.98 11.70 108.12 11.25 109.25 Z" />
</g>
<g id="#d7c1cdff">
<path fill="#d7c1cd" opacity="1.00" d=" M 14.07 101.07 C 15.69 101.01 17.31 100.95 18.93 100.85 C 18.18 103.34 16.72 105.54 15.82 107.98 C 14.22 108.31 13.44 106.90 12.58 105.86 C 13.07 104.26 13.59 102.67 14.07 101.07 Z" />
</g>
<g id="#957ca7ff">
<path fill="#957ca7" opacity="1.00" d=" M 111.83 105.99 C 115.10 105.19 117.47 100.37 120.98 101.91 C 120.98 102.66 120.99 104.14 121.00 104.89 C 117.95 105.31 114.92 105.97 111.83 105.99 Z" />
</g>
<g id="#aa90b6ff">
<path fill="#aa90b6" opacity="1.00" d=" M 146.43 101.87 C 146.83 102.82 147.04 103.82 147.06 104.88 C 146.37 107.33 144.57 108.37 142.08 108.31 C 141.77 108.06 141.16 107.55 140.85 107.30 C 143.15 106.03 145.76 104.66 146.43 101.87 Z" />
</g>
<g id="#9583a0ff">
<path fill="#9583a0" opacity="1.00" d=" M 79.74 103.75 C 82.43 102.43 85.39 103.28 88.22 103.75 C 85.39 103.78 82.56 103.78 79.74 103.75 Z" />
</g>
<g id="#c998abf5">
<path fill="#c998ab" opacity="0.96" d=" M 61.04 104.11 C 61.80 104.65 62.52 105.23 63.21 105.85 L 62.87 106.69 C 62.23 108.15 61.76 109.68 61.21 111.18 C 60.98 110.00 60.71 108.84 60.41 107.68 C 60.57 106.48 60.84 105.30 61.04 104.11 Z" />
</g>
<g id="#7e6f82ff">
<path fill="#7e6f82" opacity="1.00" d=" M 64.95 105.98 C 68.42 106.46 71.62 104.86 74.91 104.04 L 74.95 104.96 L 74.97 105.91 C 71.82 106.41 68.76 107.28 65.75 108.31 C 64.78 107.79 63.82 107.24 62.87 106.69 L 63.21 105.85 C 63.64 105.89 64.51 105.95 64.95 105.98 Z" />
</g>
<g id="#584c5fff">
<path fill="#584c5f" opacity="1.00" d=" M 74.91 104.04 L 75.72 103.80 C 77.06 103.82 78.40 103.80 79.74 103.75 C 82.56 103.78 85.39 103.78 88.22 103.75 C 88.90 103.81 90.25 103.94 90.93 104.00 L 91.04 104.91 C 85.68 104.95 80.32 105.05 74.95 104.96 L 74.91 104.04 Z" />
<path fill="#584c5f" opacity="1.00" d=" M 117.12 119.24 C 118.98 117.72 120.50 115.85 122.04 114.02 L 122.13 115.08 C 121.11 117.70 119.66 120.30 117.07 121.63 C 115.36 121.98 113.66 122.37 111.99 122.88 C 110.34 122.93 108.68 122.95 107.03 122.94 C 104.67 122.18 102.28 121.54 99.92 120.77 C 100.25 120.51 100.90 119.99 101.23 119.73 C 101.88 119.88 103.17 120.19 103.82 120.34 C 108.11 121.14 113.25 121.66 117.12 119.24 Z" />
</g>
<g id="#aa98b3ff">
<path fill="#aa98b3" opacity="1.00" d=" M 74.95 104.96 C 80.32 105.05 85.68 104.95 91.04 104.91 C 91.33 105.16 91.89 105.65 92.18 105.89 C 90.70 105.95 89.22 106.02 87.75 106.09 C 83.49 106.01 79.23 105.97 74.97 105.91 L 74.95 104.96 Z" />
</g>
<g id="#a18ab0ff">
<path fill="#a18ab0" opacity="1.00" d=" M 111.83 105.99 C 114.92 105.97 117.95 105.31 121.00 104.89 C 122.34 107.91 125.43 111.23 122.04 114.02 C 120.50 115.85 118.98 117.72 117.12 119.24 C 115.33 116.48 116.93 113.15 116.89 110.19 C 113.31 108.22 108.60 109.14 104.77 107.36 C 107.15 107.11 109.52 106.68 111.83 105.99 Z" />
</g>
<g id="#cbbcd0ff">
<path fill="#cbbcd0" opacity="1.00" d=" M 65.75 108.31 C 68.76 107.28 71.82 106.41 74.97 105.91 C 79.23 105.97 83.49 106.01 87.75 106.09 C 88.54 110.16 93.21 109.99 95.90 112.15 C 96.04 113.86 95.91 115.57 95.82 117.27 C 93.23 116.62 90.75 115.62 88.20 114.86 C 85.88 114.41 83.54 114.02 81.20 113.70 C 76.38 110.86 69.39 113.06 65.75 108.31 Z" />
</g>
<g id="#baa8c3ff">
<path fill="#baa8c3" opacity="1.00" d=" M 87.75 106.09 C 89.22 106.02 90.70 105.95 92.18 105.89 C 92.58 105.96 93.38 106.08 93.78 106.15 C 98.59 109.78 105.02 109.86 109.96 113.16 C 109.62 116.54 107.86 120.62 103.82 120.34 C 103.17 120.19 101.88 119.88 101.23 119.73 C 99.48 118.80 97.65 118.03 95.82 117.27 C 95.91 115.57 96.04 113.86 95.90 112.15 C 93.21 109.99 88.54 110.16 87.75 106.09 Z" />
</g>
<g id="#ab97b8ff">
<path fill="#ab97b8" opacity="1.00" d=" M 93.78 106.15 C 97.47 106.24 101.10 106.95 104.77 107.36 C 108.60 109.14 113.31 108.22 116.89 110.19 C 116.93 113.15 115.33 116.48 117.12 119.24 C 113.25 121.66 108.11 121.14 103.82 120.34 C 107.86 120.62 109.62 116.54 109.96 113.16 C 105.02 109.86 98.59 109.78 93.78 106.15 Z" />
</g>
<g id="#85538eff">
<path fill="#85538e" opacity="1.00" d=" M 147.26 117.15 C 148.63 112.72 150.29 105.43 156.02 105.96 C 156.57 112.84 151.12 117.77 146.70 122.17 C 145.20 122.88 143.54 123.09 141.89 123.03 C 141.97 121.62 143.06 120.85 144.11 120.11 C 145.23 119.22 146.45 118.36 147.26 117.15 Z" />
</g>
<g id="#e2d2d8ff">
<path fill="#e2d2d8" opacity="1.00" d=" M 61.21 111.18 C 61.76 109.68 62.23 108.15 62.87 106.69 C 63.82 107.24 64.78 107.79 65.75 108.31 C 69.39 113.06 76.38 110.86 81.20 113.70 C 79.34 113.93 77.38 113.92 75.68 114.79 L 74.84 115.15 C 70.90 116.60 67.47 119.89 63.11 119.79 C 62.71 118.63 61.96 117.66 61.16 116.75 C 61.06 114.89 61.09 113.03 61.21 111.18 Z" />
</g>
<g id="#9a6397ff">
<path fill="#9a6397" opacity="1.00" d=" M 128.10 114.26 C 129.26 111.55 130.76 108.95 132.86 106.86 C 132.95 111.35 133.53 115.81 135.05 120.04 C 135.03 121.80 135.02 123.55 135.02 125.31 C 132.62 126.39 129.92 125.71 128.21 123.74 C 127.04 121.04 127.50 117.99 127.77 115.15 L 128.10 114.26 Z" />
</g>
<g id="#bb78a2fb">
<path fill="#bb78a2" opacity="1.00" d=" M 48.02 126.90 C 49.59 119.57 54.15 112.02 60.41 107.68 C 60.71 108.84 60.98 110.00 61.21 111.18 C 61.09 113.03 61.06 114.89 61.16 116.75 L 60.31 116.55 C 58.23 116.01 55.32 115.13 54.88 118.91 C 52.99 121.42 50.43 123.62 49.58 126.78 C 49.19 126.81 48.41 126.87 48.02 126.90 Z" />
</g>
<g id="#b47ba3f7">
<path fill="#b47ba3" opacity="0.97" d=" M 158.82 113.68 C 157.14 112.06 156.50 110.24 158.72 108.73 C 163.43 112.21 170.35 112.41 174.11 116.93 C 172.74 116.66 171.39 116.34 170.03 116.03 C 169.59 115.74 168.71 115.16 168.27 114.87 C 167.50 114.15 166.95 114.37 166.61 115.54 C 163.97 115.16 161.42 114.31 158.82 113.68 Z" />
</g>
<g id="#86558bfb">
<path fill="#86558b" opacity="1.00" d=" M 28.58 111.39 C 30.99 110.86 33.35 109.88 35.86 109.99 C 36.05 111.28 36.42 113.88 36.61 115.18 C 36.10 117.24 35.11 119.99 33.12 121.02 C 32.70 119.77 33.71 117.47 32.16 116.95 C 27.86 114.07 22.88 122.14 28.74 123.35 L 29.08 124.10 C 25.62 123.71 22.21 123.00 18.86 121.97 L 19.19 121.25 C 19.84 120.62 20.49 119.99 21.14 119.35 C 22.66 118.36 23.05 116.74 22.98 115.01 C 22.77 112.27 26.24 110.90 28.58 111.39 Z" />
</g>
<g id="#d7c2cfff">
<path fill="#d7c2cf" opacity="1.00" d=" M 17.88 118.44 C 14.25 116.86 16.51 111.55 20.00 112.11 C 19.91 113.73 20.00 115.35 20.18 116.95 C 19.60 117.33 18.46 118.07 17.88 118.44 Z" />
</g>
<g id="#bda4beff">
<path fill="#bda4be" opacity="1.00" d=" M 20.00 112.11 C 21.43 111.88 21.99 113.67 22.15 114.77 C 21.56 115.57 20.90 116.29 20.18 116.95 C 20.00 115.35 19.91 113.73 20.00 112.11 Z" />
</g>
<g id="#9b83abff">
<path fill="#9b83ab" opacity="1.00" d=" M 122.13 115.08 C 123.45 113.93 124.76 112.76 126.20 111.76 C 125.98 115.94 123.99 119.71 123.19 123.76 C 122.77 125.09 122.27 126.40 121.77 127.70 C 118.52 128.78 117.57 132.30 115.85 134.90 C 113.34 139.61 109.56 143.51 107.07 148.22 C 104.65 148.84 102.24 149.48 99.78 149.94 C 107.31 143.07 113.26 134.66 117.36 125.33 C 118.18 124.14 118.06 122.68 117.07 121.63 C 119.66 120.30 121.11 117.70 122.13 115.08 Z" />
</g>
<g id="#8f5d92ff">
<path fill="#8f5d92" opacity="1.00" d=" M 126.20 111.76 C 126.82 112.84 127.27 114.01 127.77 115.15 C 127.50 117.99 127.04 121.04 128.21 123.74 C 129.92 125.71 132.62 126.39 135.02 125.31 C 135.71 125.32 136.39 125.29 137.08 125.23 C 138.36 125.15 139.64 125.02 140.91 124.86 C 141.01 123.19 140.95 121.53 140.91 119.86 C 141.71 119.92 143.31 120.05 144.11 120.11 C 143.06 120.85 141.97 121.62 141.89 123.03 C 143.54 123.09 145.20 122.88 146.70 122.17 C 148.52 123.91 150.79 125.05 153.09 126.01 C 152.95 123.67 152.28 121.41 151.97 119.09 C 153.47 119.06 156.47 119.00 157.97 118.96 C 158.35 122.45 157.01 125.70 155.83 128.89 C 155.10 129.43 154.53 131.73 153.41 130.62 C 150.20 127.93 145.97 127.68 142.00 127.12 C 136.44 127.43 130.63 133.43 125.41 129.70 C 124.91 127.63 124.35 125.57 123.19 123.76 C 123.99 119.71 125.98 115.94 126.20 111.76 Z" />
</g>
<g id="#c6aec6ff">
<path fill="#c6aec6" opacity="1.00" d=" M 137.89 118.03 C 141.19 117.74 140.89 112.66 143.98 112.05 C 145.42 112.55 147.42 112.93 147.02 114.92 C 144.99 116.57 142.70 117.94 140.91 119.86 C 139.50 121.55 138.25 123.37 137.08 125.23 C 136.39 125.29 135.71 125.32 135.02 125.31 C 135.02 123.55 135.03 121.80 135.05 120.04 C 135.84 119.15 136.66 118.26 137.89 118.03 Z" />
</g>
<g id="#a094a4ff">
<path fill="#a094a4" opacity="1.00" d=" M 75.68 114.79 C 77.38 113.92 79.34 113.93 81.20 113.70 C 83.54 114.02 85.88 114.41 88.20 114.86 C 84.03 114.85 79.85 114.83 75.68 114.79 Z" />
</g>
<g id="#704075ff">
<path fill="#704075" opacity="1.00" d=" M 157.97 118.96 C 158.01 117.17 158.06 115.34 158.82 113.68 C 158.91 115.12 159.00 116.55 159.09 117.99 C 159.50 122.22 158.21 126.19 156.93 130.13 C 156.66 129.82 156.11 129.20 155.83 128.89 C 157.01 125.70 158.35 122.45 157.97 118.96 Z" />
</g>
<g id="#a06a9dff">
<path fill="#a06a9d" opacity="1.00" d=" M 158.82 113.68 C 161.42 114.31 163.97 115.16 166.61 115.54 C 166.95 114.37 167.50 114.15 168.27 114.87 C 168.15 116.25 168.01 117.63 167.83 119.01 C 164.80 119.52 161.91 118.88 159.09 117.99 C 159.00 116.55 158.91 115.12 158.82 113.68 Z" />
</g>
<g id="#a388b5ff">
<path fill="#a388b5" opacity="1.00" d=" M 20.18 116.95 C 20.90 116.29 21.56 115.57 22.15 114.77 L 22.98 115.01 C 23.05 116.74 22.66 118.36 21.14 119.35 C 20.02 119.14 18.94 118.83 17.88 118.44 C 18.46 118.07 19.60 117.33 20.18 116.95 Z" />
</g>
<g id="#837980ff">
<path fill="#837980" opacity="1.00" d=" M 63.11 119.79 C 67.47 119.89 70.90 116.60 74.84 115.15 C 75.19 115.42 75.87 115.95 76.21 116.22 C 71.48 118.25 67.19 121.78 61.87 122.08 C 62.18 121.50 62.80 120.36 63.11 119.79 Z" />
</g>
<g id="#685f6bff">
<path fill="#685f6b" opacity="1.00" d=" M 74.84 115.15 L 75.68 114.79 C 79.85 114.83 84.03 114.85 88.20 114.86 C 90.75 115.62 93.23 116.62 95.82 117.27 C 97.65 118.03 99.48 118.80 101.23 119.73 C 100.90 119.99 100.25 120.51 99.92 120.77 C 98.98 120.50 98.04 120.22 97.10 119.94 C 92.62 118.06 88.04 115.72 83.05 115.94 C 81.34 116.01 77.92 116.15 76.21 116.22 C 75.87 115.95 75.19 115.42 74.84 115.15 Z" />
</g>
<g id="#a58db4ff">
<path fill="#a58db4" opacity="1.00" d=" M 140.91 119.86 C 142.70 117.94 144.99 116.57 147.02 114.92 C 147.08 115.48 147.20 116.59 147.26 117.15 C 146.45 118.36 145.23 119.22 144.11 120.11 C 143.31 120.05 141.71 119.92 140.91 119.86 Z" />
</g>
<g id="#8c5a97ff">
<path fill="#8c5a97" opacity="1.00" d=" M 168.27 114.87 C 168.71 115.16 169.59 115.74 170.03 116.03 C 169.98 116.47 169.86 117.34 169.80 117.77 C 168.90 121.56 167.47 125.26 167.08 129.16 C 166.50 129.90 165.84 130.57 165.12 131.17 C 165.32 130.07 165.52 128.97 165.74 127.88 C 162.76 128.38 159.71 128.91 156.93 130.13 C 158.21 126.19 159.50 122.22 159.09 117.99 C 161.91 118.88 164.80 119.52 167.83 119.01 C 168.01 117.63 168.15 116.25 168.27 114.87 Z" />
</g>
<g id="#c9b3c6ff">
<path fill="#c9b3c6" opacity="1.00" d=" M 28.74 123.35 C 22.88 122.14 27.86 114.07 32.16 116.95 C 31.45 119.01 30.57 121.00 29.77 123.02 L 28.74 123.35 Z" />
</g>
<g id="#9c6599fe">
<path fill="#9c6599" opacity="1.00" d=" M 54.88 118.91 C 55.32 115.13 58.23 116.01 60.31 116.55 C 60.20 118.42 59.98 122.16 59.87 124.04 C 56.19 126.11 52.31 128.01 48.04 128.30 C 48.27 138.87 49.87 150.56 57.63 158.38 C 60.25 160.11 60.87 163.28 62.02 165.99 C 60.35 166.00 58.67 166.00 56.99 166.03 C 54.90 166.05 52.81 165.98 50.73 165.72 C 51.83 165.38 52.93 165.04 54.03 164.70 C 52.24 162.71 50.53 160.52 48.18 159.17 C 46.71 158.33 45.21 157.55 43.70 156.77 C 50.51 151.89 44.11 143.24 45.59 136.64 C 46.72 133.09 44.95 129.54 45.74 126.02 C 46.31 126.24 47.45 126.68 48.02 126.90 C 48.41 126.87 49.19 126.81 49.58 126.78 C 50.43 123.62 52.99 121.42 54.88 118.91 Z" />
</g>
<g id="#d9cad5ff">
<path fill="#d9cad5" opacity="1.00" d=" M 76.21 116.22 C 77.92 116.15 81.34 116.01 83.05 115.94 C 84.57 119.77 85.42 123.88 85.99 127.94 C 82.77 133.97 78.49 139.44 73.77 144.37 C 70.56 142.95 68.33 140.22 66.20 137.54 C 65.91 137.08 65.33 136.15 65.04 135.69 C 64.40 134.71 63.75 133.73 63.09 132.77 C 62.41 131.48 61.82 130.16 61.18 128.86 C 60.64 127.28 60.16 125.68 59.87 124.04 C 59.98 122.16 60.20 118.42 60.31 116.55 L 61.16 116.75 C 61.96 117.66 62.71 118.63 63.11 119.79 C 62.80 120.36 62.18 121.50 61.87 122.08 C 67.19 121.78 71.48 118.25 76.21 116.22 Z" />
</g>
<g id="#c8baceff">
<path fill="#c8bace" opacity="1.00" d=" M 83.05 115.94 C 88.04 115.72 92.62 118.06 97.10 119.94 C 99.73 132.35 90.14 142.35 79.88 147.37 C 77.79 146.49 75.76 145.45 73.77 144.37 C 78.49 139.44 82.77 133.97 85.99 127.94 C 85.42 123.88 84.57 119.77 83.05 115.94 Z" />
</g>
<g id="#a26ea0fc">
<path fill="#a26ea0" opacity="1.00" d=" M 170.03 116.03 C 171.39 116.34 172.74 116.66 174.11 116.93 C 176.19 117.03 177.39 118.93 178.90 120.11 L 178.85 120.87 C 178.65 121.21 178.26 121.90 178.07 122.24 C 175.35 121.62 172.81 120.46 170.11 119.80 C 170.03 119.29 169.88 118.28 169.80 117.77 C 169.86 117.34 169.98 116.47 170.03 116.03 Z" />
</g>
<g id="#a385b2fc">
<path fill="#a385b2" opacity="1.00" d=" M 32.16 116.95 C 33.71 117.47 32.70 119.77 33.12 121.02 C 32.87 122.62 31.20 123.21 29.77 123.02 C 30.57 121.00 31.45 119.01 32.16 116.95 Z" />
</g>
<g id="#74457eff">
<path fill="#74457e" opacity="1.00" d=" M 167.08 129.16 C 167.47 125.26 168.90 121.56 169.80 117.77 C 169.88 118.28 170.03 119.29 170.11 119.80 C 169.98 123.10 169.22 126.55 167.08 129.16 Z" />
</g>
<g id="#baa9c4ff">
<path fill="#baa9c4" opacity="1.00" d=" M 97.10 119.94 C 98.04 120.22 98.98 120.50 99.92 120.77 C 102.28 121.54 104.67 122.18 107.03 122.94 C 104.98 126.52 105.00 130.94 102.23 134.16 C 99.23 139.93 94.43 144.41 89.66 148.71 C 88.26 148.78 85.45 148.93 84.05 149.00 L 83.18 148.69 C 82.08 148.25 80.97 147.84 79.88 147.37 C 90.14 142.35 99.73 132.35 97.10 119.94 Z" />
</g>
<g id="#a88eb4ff">
<path fill="#a88eb4" opacity="1.00" d=" M 137.08 125.23 C 138.25 123.37 139.50 121.55 140.91 119.86 C 140.95 121.53 141.01 123.19 140.91 124.86 C 139.64 125.02 138.36 125.15 137.08 125.23 Z" />
</g>
<g id="#9160a4fb">
<path fill="#9160a4" opacity="1.00" d=" M 170.11 119.80 C 172.81 120.46 175.35 121.62 178.07 122.24 C 178.03 125.03 176.72 127.51 175.97 130.13 C 179.36 128.41 178.93 124.08 178.85 120.87 L 178.90 120.11 C 182.63 121.76 185.17 126.34 186.99 130.05 C 187.49 134.39 181.96 133.07 179.01 132.93 C 170.90 131.19 162.66 132.78 154.67 134.32 C 153.13 132.45 156.04 131.48 156.93 130.13 C 159.71 128.91 162.76 128.38 165.74 127.88 C 165.52 128.97 165.32 130.07 165.12 131.17 C 165.84 130.57 166.50 129.90 167.08 129.16 C 169.22 126.55 169.98 123.10 170.11 119.80 Z" />
</g>
<g id="#754b82ff">
<path fill="#754b82" opacity="1.00" d=" M 178.07 122.24 C 178.26 121.90 178.65 121.21 178.85 120.87 C 178.93 124.08 179.36 128.41 175.97 130.13 C 176.72 127.51 178.03 125.03 178.07 122.24 Z" />
</g>
<g id="#a58fb4ff">
<path fill="#a58fb4" opacity="1.00" d=" M 111.99 122.88 C 113.66 122.37 115.36 121.98 117.07 121.63 C 118.06 122.68 118.18 124.14 117.36 125.33 C 113.26 134.66 107.31 143.07 99.78 149.94 L 98.81 150.14 C 98.07 150.09 96.60 149.99 95.86 149.94 C 99.57 143.76 106.10 139.76 108.97 132.99 C 109.83 129.80 114.29 126.37 111.99 122.88 Z" />
</g>
<g id="#af9bbbff">
<path fill="#af9bbb" opacity="1.00" d=" M 107.03 122.94 C 108.68 122.95 110.34 122.93 111.99 122.88 C 114.29 126.37 109.83 129.80 108.97 132.99 C 106.10 139.76 99.57 143.76 95.86 149.94 C 92.54 149.96 89.24 150.00 85.93 150.02 C 85.46 149.76 84.52 149.26 84.05 149.00 C 85.45 148.93 88.26 148.78 89.66 148.71 C 94.43 144.41 99.23 139.93 102.23 134.16 C 105.00 130.94 104.98 126.52 107.03 122.94 Z" />
</g>
<g id="#915a91ff">
<path fill="#915a91" opacity="1.00" d=" M 48.04 128.30 C 52.31 128.01 56.19 126.11 59.87 124.04 C 60.16 125.68 60.64 127.28 61.18 128.86 C 58.17 130.05 55.14 131.17 52.07 132.21 C 53.23 136.00 53.77 139.90 54.26 143.83 C 57.32 148.95 59.67 154.73 64.24 158.75 C 66.54 160.50 67.89 163.13 68.23 165.97 C 66.16 166.00 64.09 166.01 62.02 165.99 C 60.87 163.28 60.25 160.11 57.63 158.38 C 49.87 150.56 48.27 138.87 48.04 128.30 Z" />
</g>
<g id="#89558bfe">
<path fill="#89558b" opacity="1.00" d=" M 123.19 123.76 C 124.35 125.57 124.91 127.63 125.41 129.70 C 130.63 133.43 136.44 127.43 142.00 127.12 C 145.97 127.68 150.20 127.93 153.41 130.62 C 154.53 131.73 155.10 129.43 155.83 128.89 C 156.11 129.20 156.66 129.82 156.93 130.13 C 156.04 131.48 153.13 132.45 154.67 134.32 C 155.08 135.60 155.13 136.94 154.81 138.31 L 154.04 137.94 C 151.56 135.54 151.61 129.25 147.21 130.10 C 141.62 128.25 138.15 131.67 136.44 136.18 C 133.63 131.20 129.18 138.95 125.17 137.98 C 123.80 135.57 123.30 132.62 121.13 130.72 C 121.32 129.71 121.53 128.70 121.77 127.70 C 122.27 126.40 122.77 125.09 123.19 123.76 Z" />
</g>
<g id="#ac72a1f8">
<path fill="#ac72a1" opacity="0.97" d=" M 42.19 125.13 C 42.61 125.33 43.45 125.71 43.88 125.90 C 41.99 133.93 42.20 142.14 42.37 150.31 C 42.17 152.16 42.11 154.29 40.01 154.95 C 41.77 147.99 35.16 142.91 35.31 136.27 C 37.44 132.46 39.79 128.77 42.19 125.13 Z" />
</g>
<g id="#a46b9ffe">
<path fill="#a46b9f" opacity="1.00" d=" M 43.88 125.90 C 44.34 125.93 45.28 125.99 45.74 126.02 C 44.95 129.54 46.72 133.09 45.59 136.64 C 44.11 143.24 50.51 151.89 43.70 156.77 C 42.14 156.40 40.47 155.97 39.11 157.13 C 39.34 156.59 39.79 155.50 40.01 154.95 C 42.11 154.29 42.17 152.16 42.37 150.31 C 42.20 142.14 41.99 133.93 43.88 125.90 Z" />
</g>
<g id="#9176a2ff">
<path fill="#9176a2" opacity="1.00" d=" M 115.85 134.90 C 117.57 132.30 118.52 128.78 121.77 127.70 C 121.53 128.70 121.32 129.71 121.13 130.72 L 120.92 131.69 C 118.27 136.47 114.78 140.80 112.81 145.93 C 112.31 146.31 111.32 147.07 110.82 147.45 C 109.57 147.70 108.32 147.96 107.07 148.22 C 109.56 143.51 113.34 139.61 115.85 134.90 Z" />
</g>
<g id="#855187fe">
<path fill="#855187" opacity="1.00" d=" M 52.07 132.21 C 55.14 131.17 58.17 130.05 61.18 128.86 C 61.82 130.16 62.41 131.48 63.09 132.77 C 60.75 133.53 58.39 134.27 56.12 135.25 C 56.16 143.89 63.31 150.38 67.79 157.20 C 70.61 159.14 72.80 161.64 74.05 164.87 C 72.19 165.57 70.26 166.28 68.23 165.97 C 67.89 163.13 66.54 160.50 64.24 158.75 C 59.67 154.73 57.32 148.95 54.26 143.83 C 53.77 139.90 53.23 136.00 52.07 132.21 Z" />
</g>
<g id="#986196fd">
<path fill="#986196" opacity="1.00" d=" M 136.44 136.18 C 138.15 131.67 141.62 128.25 147.21 130.10 C 144.54 131.29 141.56 132.26 139.78 134.74 C 137.07 141.69 135.49 150.86 141.21 156.87 C 145.41 156.51 149.13 153.91 151.85 150.82 C 153.34 146.69 154.28 142.34 154.04 137.94 L 154.81 138.31 C 156.52 138.89 157.65 140.11 158.08 141.96 C 161.62 148.41 162.39 155.83 162.02 163.06 C 162.05 165.16 161.71 165.44 161.01 163.91 C 159.86 157.51 158.25 151.20 156.71 144.88 C 153.70 147.15 155.46 151.64 153.65 154.68 C 152.34 159.58 146.66 160.45 144.10 164.10 L 143.81 164.74 C 141.69 165.08 139.76 166.06 138.01 167.27 C 136.92 166.96 136.15 166.31 135.68 165.30 C 133.00 160.81 129.26 157.05 126.80 152.43 C 131.25 151.01 136.04 147.52 133.91 141.93 C 134.55 139.93 135.48 138.04 136.44 136.18 Z" />
</g>
<g id="#a16a9eff">
<path fill="#a16a9e" opacity="1.00" d=" M 147.21 130.10 C 151.61 129.25 151.56 135.54 154.04 137.94 C 154.28 142.34 153.34 146.69 151.85 150.82 C 149.13 153.91 145.41 156.51 141.21 156.87 C 135.49 150.86 137.07 141.69 139.78 134.74 C 141.56 132.26 144.54 131.29 147.21 130.10 Z" />
</g>
<g id="#7f497ffe">
<path fill="#7f497f" opacity="1.00" d=" M 121.13 130.72 C 123.30 132.62 123.80 135.57 125.17 137.98 C 129.18 138.95 133.63 131.20 136.44 136.18 C 135.48 138.04 134.55 139.93 133.91 141.93 C 130.29 143.30 126.28 144.76 124.67 148.64 L 124.30 149.24 C 124.04 148.62 123.51 147.39 123.25 146.77 L 122.95 145.96 C 122.02 144.25 122.60 141.24 120.22 140.85 C 120.37 137.78 120.62 134.74 120.92 131.69 L 121.13 130.72 Z" />
</g>
<g id="#856898ff">
<path fill="#856898" opacity="1.00" d=" M 112.81 145.93 C 114.78 140.80 118.27 136.47 120.92 131.69 C 120.62 134.74 120.37 137.78 120.22 140.85 C 118.65 143.65 115.60 144.77 112.81 145.93 Z" />
</g>
<g id="#7b4881fe">
<path fill="#7b4881" opacity="1.00" d=" M 56.12 135.25 C 58.39 134.27 60.75 133.53 63.09 132.77 C 63.75 133.73 64.40 134.71 65.04 135.69 C 63.31 136.37 61.53 137.03 60.05 138.19 C 59.96 146.66 69.41 149.68 72.44 156.66 C 74.16 158.11 77.06 156.39 77.77 159.11 C 78.95 162.13 77.63 165.40 74.05 164.87 C 72.80 161.64 70.61 159.14 67.79 157.20 C 63.31 150.38 56.16 143.89 56.12 135.25 Z" />
</g>
<g id="#703e76fe">
<path fill="#703e76" opacity="1.00" d=" M 60.05 138.19 C 61.53 137.03 63.31 136.37 65.04 135.69 C 65.33 136.15 65.91 137.08 66.20 137.54 C 63.87 138.57 62.90 141.95 65.72 143.29 C 70.08 146.90 73.13 152.94 79.23 153.73 C 78.73 155.52 78.13 157.28 77.77 159.11 C 77.06 156.39 74.16 158.11 72.44 156.66 C 69.41 149.68 59.96 146.66 60.05 138.19 Z" />
</g>
<g id="#64366dfc">
<path fill="#64366d" opacity="1.00" d=" M 65.72 143.29 C 62.90 141.95 63.87 138.57 66.20 137.54 C 68.33 140.22 70.56 142.95 73.77 144.37 C 75.76 145.45 77.79 146.49 79.88 147.37 C 80.97 147.84 82.08 148.25 83.18 148.69 C 79.86 148.25 81.40 153.56 79.23 153.73 C 73.13 152.94 70.08 146.90 65.72 143.29 Z" />
</g>
<g id="#573364ff">
<path fill="#573364" opacity="1.00" d=" M 120.22 140.85 C 122.60 141.24 122.02 144.25 122.95 145.96 C 118.47 144.02 114.97 148.58 110.82 147.45 C 111.32 147.07 112.31 146.31 112.81 145.93 C 115.60 144.77 118.65 143.65 120.22 140.85 Z" />
</g>
<g id="#9a5a8dff">
<path fill="#9a5a8d" opacity="1.00" d=" M 124.67 148.64 C 126.28 144.76 130.29 143.30 133.91 141.93 C 136.04 147.52 131.25 151.01 126.80 152.43 C 126.07 151.18 125.37 149.91 124.67 148.64 Z" />
</g>
<g id="#89578ffd">
<path fill="#89578f" opacity="1.00" d=" M 153.65 154.68 C 155.46 151.64 153.70 147.15 156.71 144.88 C 158.25 151.20 159.86 157.51 161.01 163.91 C 161.71 165.44 162.05 165.16 162.02 163.06 C 163.76 163.90 163.08 168.04 164.91 169.91 C 162.88 171.04 160.44 172.27 158.07 171.77 C 157.02 170.00 155.98 168.15 154.28 166.91 C 153.28 166.10 152.17 165.45 151.09 164.75 C 148.76 163.33 146.43 163.11 144.10 164.10 C 146.66 160.45 152.34 159.58 153.65 154.68 Z" />
</g>
<g id="#6f427af9">
<path fill="#6f427a" opacity="0.98" d=" M 110.82 147.45 C 114.97 148.58 118.47 144.02 122.95 145.96 L 123.25 146.77 C 121.23 150.42 115.94 150.65 112.19 151.55 C 107.94 149.76 103.54 150.47 99.20 151.65 C 99.10 151.27 98.91 150.52 98.81 150.14 L 99.78 149.94 C 102.24 149.48 104.65 148.84 107.07 148.22 C 108.32 147.96 109.57 147.70 110.82 147.45 Z" />
</g>
<g id="#ad709dfa">
<path fill="#ad709d" opacity="0.98" d=" M 124.30 149.24 L 124.67 148.64 C 125.37 149.91 126.07 151.18 126.80 152.43 C 129.26 157.05 133.00 160.81 135.68 165.30 C 136.15 166.31 136.92 166.96 138.01 167.27 C 136.64 168.80 135.24 170.30 133.86 171.82 C 129.88 172.43 125.36 172.66 122.12 169.90 C 123.36 166.63 125.92 163.25 124.53 159.63 C 123.14 156.24 122.64 152.58 124.30 149.24 Z" />
</g>
<g id="#81558df7">
<path fill="#81558d" opacity="0.97" d=" M 85.93 150.02 C 89.24 150.00 92.54 149.96 95.86 149.94 C 96.60 149.99 98.07 150.09 98.81 150.14 C 98.91 150.52 99.10 151.27 99.20 151.65 C 103.54 150.47 107.94 149.76 112.19 151.55 C 103.89 154.82 94.44 153.98 86.23 150.81 L 85.93 150.02 Z" />
</g>
<g id="#cbbacafa">
<path fill="#cbbaca" opacity="0.98" d=" M 39.11 157.13 C 40.47 155.97 42.14 156.40 43.70 156.77 C 45.21 157.55 46.71 158.33 48.18 159.17 C 44.10 160.38 40.53 162.96 38.85 166.98 C 36.11 166.98 30.65 166.98 27.91 166.98 C 29.87 161.95 34.72 159.60 39.11 157.13 Z" />
</g>
<g id="#baa7c2fc">
<path fill="#baa7c2" opacity="1.00" d=" M 48.18 159.17 C 50.53 160.52 52.24 162.71 54.03 164.70 C 52.93 165.04 51.83 165.38 50.73 165.72 C 46.67 165.42 42.80 166.46 38.85 166.98 C 40.53 162.96 44.10 160.38 48.18 159.17 Z" />
</g>
<g id="#b088aaff">
<path fill="#b088aa" opacity="1.00" d=" M 144.10 164.10 C 146.43 163.11 148.76 163.33 151.09 164.75 C 149.27 164.75 145.63 164.74 143.81 164.74 L 144.10 164.10 Z" />
</g>
<g id="#d9c6d2fe">
<path fill="#d9c6d2" opacity="1.00" d=" M 138.01 167.27 C 139.76 166.06 141.69 165.08 143.81 164.74 C 145.63 164.74 149.27 164.75 151.09 164.75 C 152.17 165.45 153.28 166.10 154.28 166.91 C 153.34 170.18 151.73 173.18 149.89 176.02 C 144.40 175.76 138.57 174.83 133.86 171.82 C 135.24 170.30 136.64 168.80 138.01 167.27 Z" />
</g>
<g id="#0704083a">
<path fill="#070408" opacity="0.23" d=" M 56.99 166.03 C 58.67 166.00 60.35 166.00 62.02 165.99 C 64.09 166.01 66.16 166.00 68.23 165.97 L 67.94 166.97 C 65.21 166.97 59.75 166.98 57.02 166.99 L 56.99 166.03 Z" />
</g>
<g id="#b5a4c2fa">
<path fill="#b5a4c2" opacity="0.98" d=" M 154.28 166.91 C 155.98 168.15 157.02 170.00 158.07 171.77 C 155.74 173.77 153.29 176.46 149.89 176.02 C 151.73 173.18 153.34 170.18 154.28 166.91 Z" />
</g>
</svg>
