<?xml version="1.0" encoding="UTF-8" ?>
<!DOCTYPE svg PUBLIC "-//W3C//DTD SVG 1.1//EN" "http://www.w3.org/Graphics/SVG/1.1/DTD/svg11.dtd">
<svg width="158pt" height="135pt" viewBox="0 0 158 135" version="1.1" xmlns="http://www.w3.org/2000/svg">
<g id="#736967a5">
<path fill="#736967" opacity="0.65" d=" M 70.35 5.18 C 70.41 3.32 73.93 3.24 75.09 4.32 C 73.60 5.00 71.98 5.31 70.35 5.18 Z" />
</g>
<g id="#ffe9dcff">
<path fill="#ffe9dc" opacity="1.00" d=" M 75.09 4.32 C 83.23 3.35 91.63 6.29 98.32 10.91 C 95.58 10.80 93.20 9.38 90.64 8.60 C 84.80 7.23 78.72 5.41 72.70 6.80 C 69.90 7.87 66.85 8.05 64.03 9.01 C 59.28 11.64 54.15 15.07 52.84 20.72 C 52.24 23.62 51.45 26.53 49.02 28.44 C 47.90 30.54 46.90 32.71 45.79 34.81 C 42.75 39.13 41.91 44.40 40.04 49.22 C 39.20 51.30 36.57 50.74 34.81 51.03 C 37.70 48.63 40.19 44.20 38.88 40.51 C 39.06 39.29 39.31 38.09 39.60 36.90 C 42.79 35.62 43.71 32.07 45.44 29.43 C 48.45 24.37 52.91 19.61 52.84 13.35 C 49.61 12.31 46.18 12.67 42.89 12.01 C 44.56 10.17 47.02 10.72 49.19 10.85 C 49.64 10.97 50.53 11.20 50.98 11.31 C 52.09 11.96 53.36 12.20 54.64 12.13 C 55.23 12.20 56.42 12.34 57.02 12.41 C 60.56 8.82 65.24 5.69 70.35 5.18 C 71.98 5.31 73.60 5.00 75.09 4.32 Z" />
<path fill="#ffe9dc" opacity="1.00" d=" M 35.43 80.86 C 35.79 80.29 36.51 79.17 36.86 78.60 C 37.52 81.96 38.26 85.31 39.52 88.51 C 40.10 89.67 39.34 90.92 39.19 92.09 C 38.75 91.87 37.87 91.41 37.44 91.19 C 36.55 87.79 35.87 84.34 35.43 80.86 Z" />
</g>
<g id="#fcc9caff">
<path fill="#fcc9ca" opacity="1.00" d=" M 72.70 6.80 C 78.72 5.41 84.80 7.23 90.64 8.60 C 93.20 9.38 95.58 10.80 98.32 10.91 L 98.76 10.98 C 100.62 12.48 102.43 14.05 103.93 15.92 C 105.04 15.66 106.16 15.40 107.27 15.15 C 110.29 16.86 113.86 15.89 116.60 14.10 C 115.82 14.04 114.25 13.93 113.47 13.87 L 113.12 13.85 C 114.75 13.45 116.38 13.02 118.04 12.78 L 119.54 12.53 C 119.09 16.49 120.84 20.19 121.95 23.89 C 117.20 25.13 111.03 26.86 107.18 22.81 C 101.31 16.82 93.14 14.03 85.33 11.58 C 79.22 10.80 72.90 10.78 66.80 11.74 C 61.74 12.80 57.46 16.47 55.12 21.00 C 53.67 24.54 54.04 28.57 52.34 32.04 C 52.04 31.47 51.44 30.35 51.14 29.79 C 50.87 29.62 50.34 29.28 50.07 29.11 L 49.02 28.44 C 51.45 26.53 52.24 23.62 52.84 20.72 C 54.15 15.07 59.28 11.64 64.03 9.01 C 66.85 8.05 69.90 7.87 72.70 6.80 Z" />
</g>
<g id="#deac73fe">
<path fill="#deac73" opacity="1.00" d=" M 27.09 10.01 C 31.55 9.53 36.10 9.69 40.58 10.04 C 36.69 11.51 32.50 11.27 28.43 11.22 C 28.65 11.53 29.11 12.15 29.34 12.46 C 28.63 13.78 27.94 15.11 27.24 16.43 C 26.67 14.44 24.57 11.51 27.09 10.01 Z" />
</g>
<g id="#c79968ff">
<path fill="#c79968" opacity="1.00" d=" M 40.58 10.04 C 41.45 10.05 43.21 10.05 44.09 10.06 C 42.68 11.15 41.24 12.21 39.87 13.35 C 35.33 12.85 31.83 16.17 29.77 19.84 C 29.38 19.65 28.59 19.28 28.20 19.09 C 27.89 18.20 27.57 17.32 27.24 16.43 C 27.94 15.11 28.63 13.78 29.34 12.46 C 29.11 12.15 28.65 11.53 28.43 11.22 C 32.50 11.27 36.69 11.51 40.58 10.04 Z" />
</g>
<g id="#342b2bff">
<path fill="#342b2b" opacity="1.00" d=" M 44.09 10.06 C 45.79 10.28 47.50 10.54 49.19 10.85 C 47.02 10.72 44.56 10.17 42.89 12.01 C 38.04 16.62 35.41 23.02 32.36 28.87 C 32.12 28.01 31.31 27.23 31.46 26.31 C 35.09 22.58 36.82 17.51 39.87 13.35 C 41.24 12.21 42.68 11.15 44.09 10.06 Z" />
<path fill="#342b2b" opacity="1.00" d=" M 118.04 12.78 C 119.28 12.49 120.53 12.21 121.79 11.98 C 121.42 12.47 120.68 13.45 120.31 13.94 C 121.92 19.23 123.58 24.53 125.93 29.54 C 129.95 25.32 133.10 20.38 136.78 15.87 C 137.92 14.32 139.75 13.59 141.39 12.71 C 137.13 24.05 131.10 34.59 124.61 44.79 C 122.23 45.21 119.85 45.62 117.52 46.25 C 115.36 46.42 113.20 46.55 111.04 46.68 C 114.23 43.04 117.75 39.70 120.90 36.01 C 122.22 34.51 123.53 32.98 124.85 31.46 C 123.98 28.90 122.93 26.41 121.95 23.89 C 120.84 20.19 119.09 16.49 119.54 12.53 L 118.04 12.78 Z" />
<path fill="#342b2b" opacity="1.00" d=" M 81.39 47.44 C 81.58 47.36 81.96 47.20 82.15 47.13 C 84.07 48.60 83.78 51.10 83.82 53.24 C 83.09 54.66 81.81 55.60 80.36 56.18 C 82.95 54.06 84.05 49.99 81.39 47.44 Z" />
</g>
<g id="#4f484585">
<path fill="#4f4845" opacity="0.52" d=" M 50.98 11.31 C 51.80 10.10 55.02 10.32 54.64 12.13 C 53.36 12.20 52.09 11.96 50.98 11.31 Z" />
</g>
<g id="#f0b9bdff">
<path fill="#f0b9bd" opacity="1.00" d=" M 66.80 11.74 C 72.90 10.78 79.22 10.80 85.33 11.58 C 93.14 14.03 101.31 16.82 107.18 22.81 C 111.03 26.86 117.20 25.13 121.95 23.89 C 122.93 26.41 123.98 28.90 124.85 31.46 C 123.53 32.98 122.22 34.51 120.90 36.01 C 118.05 35.37 115.39 36.87 112.74 37.67 C 110.00 35.91 105.71 32.11 103.25 36.28 C 100.90 43.09 98.11 49.76 95.23 56.37 C 93.98 58.92 93.49 62.68 90.12 63.18 C 87.63 63.24 85.05 63.29 82.76 62.20 C 85.15 62.31 87.59 62.51 89.94 61.92 C 91.25 61.03 90.88 59.19 89.53 58.58 C 87.12 57.54 84.38 57.80 81.82 57.68 C 84.65 56.62 90.50 57.66 90.05 53.14 C 88.74 51.97 87.05 51.37 85.51 50.59 C 84.95 51.48 84.39 52.36 83.82 53.24 C 83.78 51.10 84.07 48.60 82.15 47.13 C 85.45 43.74 89.48 40.58 90.73 35.79 C 91.67 32.31 93.24 28.94 93.59 25.33 C 92.05 19.82 85.09 20.01 80.48 19.94 L 80.44 20.65 C 79.79 26.32 78.87 32.47 74.91 36.87 C 70.98 40.78 65.01 39.81 60.00 39.65 C 56.02 39.67 53.79 35.98 51.93 33.02 L 52.34 32.04 C 54.04 28.57 53.67 24.54 55.12 21.00 C 57.46 16.47 61.74 12.80 66.80 11.74 M 62.00 23.83 C 62.41 23.44 63.24 22.65 63.65 22.26 C 65.28 25.42 65.29 29.11 66.72 32.31 C 68.91 34.38 71.81 32.17 73.32 30.34 C 76.58 27.24 76.12 22.42 76.66 18.33 C 72.23 13.02 62.16 17.02 62.00 23.83 Z" />
</g>
<g id="#9a7657ff">
<path fill="#9a7657" opacity="1.00" d=" M 123.95 11.90 C 128.62 11.27 133.32 10.83 138.04 10.71 C 139.63 10.35 140.57 11.60 141.39 12.71 C 139.75 13.59 137.92 14.32 136.78 15.87 C 133.10 20.38 129.95 25.32 125.93 29.54 C 123.58 24.53 121.92 19.23 120.31 13.94 C 124.28 13.54 128.27 13.21 132.19 12.40 C 129.45 12.13 126.70 11.92 123.95 11.90 Z" />
</g>
<g id="#fec5c4ff">
<path fill="#fec5c4" opacity="1.00" d=" M 32.36 28.87 C 35.41 23.02 38.04 16.62 42.89 12.01 C 46.18 12.67 49.61 12.31 52.84 13.35 C 52.91 19.61 48.45 24.37 45.44 29.43 C 43.71 32.07 42.79 35.62 39.60 36.90 C 39.31 38.09 39.06 39.29 38.88 40.51 C 36.36 36.84 34.49 32.77 32.36 28.87 Z" />
</g>
<g id="#b18862fe">
<path fill="#b18862" opacity="1.00" d=" M 121.79 11.98 C 122.33 11.96 123.41 11.92 123.95 11.90 C 126.70 11.92 129.45 12.13 132.19 12.40 C 128.27 13.21 124.28 13.54 120.31 13.94 C 120.68 13.45 121.42 12.47 121.79 11.98 Z" />
</g>
<g id="#ab825cff">
<path fill="#ab825c" opacity="1.00" d=" M 29.77 19.84 C 31.83 16.17 35.33 12.85 39.87 13.35 C 36.82 17.51 35.09 22.58 31.46 26.31 L 31.18 26.63 C 30.21 24.10 29.16 21.61 28.20 19.09 C 28.59 19.28 29.38 19.65 29.77 19.84 Z" />
</g>
<g id="#fcebe8fe">
<path fill="#fcebe8" opacity="1.00" d=" M 107.27 15.15 C 109.33 14.68 111.36 14.03 113.47 13.87 C 114.25 13.93 115.82 14.04 116.60 14.10 C 113.86 15.89 110.29 16.86 107.27 15.15 Z" />
</g>
<g id="#f1c4c8ff">
<path fill="#f1c4c8" opacity="1.00" d=" M 62.00 23.83 C 62.16 17.02 72.23 13.02 76.66 18.33 C 76.12 22.42 76.58 27.24 73.32 30.34 C 71.81 32.17 68.91 34.38 66.72 32.31 C 65.29 29.11 65.28 25.42 63.65 22.26 C 63.24 22.65 62.41 23.44 62.00 23.83 Z" />
</g>
<g id="#eea8abff">
<path fill="#eea8ab" opacity="1.00" d=" M 80.48 19.94 C 85.09 20.01 92.05 19.82 93.59 25.33 C 93.24 28.94 91.67 32.31 90.73 35.79 C 89.48 40.58 85.45 43.74 82.15 47.13 C 81.96 47.20 81.58 47.36 81.39 47.44 L 79.59 48.14 C 79.27 47.98 78.62 47.64 78.30 47.48 C 77.69 48.17 77.07 48.86 76.44 49.54 C 72.16 51.97 67.06 52.72 62.21 51.99 C 61.82 50.66 61.43 49.33 61.03 48.01 L 60.67 46.83 C 66.51 46.21 72.82 46.34 77.91 42.96 C 82.20 40.10 85.45 35.19 85.67 29.98 C 83.98 27.70 82.89 25.11 82.44 22.31 C 81.76 21.77 81.10 21.21 80.44 20.65 L 80.48 19.94 Z" />
</g>
<g id="#e99396ff">
<path fill="#e99396" opacity="1.00" d=" M 80.44 20.65 C 81.10 21.21 81.76 21.77 82.44 22.31 C 82.89 25.11 83.98 27.70 85.67 29.98 C 85.45 35.19 82.20 40.10 77.91 42.96 C 72.82 46.34 66.51 46.21 60.67 46.83 C 60.41 46.55 59.90 45.97 59.64 45.69 C 57.70 44.49 55.57 43.59 53.73 42.23 C 51.12 40.04 50.41 36.03 51.93 33.02 C 53.79 35.98 56.02 39.67 60.00 39.65 C 65.01 39.81 70.98 40.78 74.91 36.87 C 78.87 32.47 79.79 26.32 80.44 20.65 Z" />
</g>
<g id="#febcbdff">
<path fill="#febcbd" opacity="1.00" d=" M 49.02 28.44 L 50.07 29.11 C 49.25 32.63 47.22 36.13 48.10 39.85 C 48.85 43.19 50.23 47.06 53.88 48.09 C 53.60 50.01 53.64 51.96 53.85 53.88 C 54.34 54.12 55.32 54.60 55.80 54.84 C 55.37 52.68 54.35 50.25 55.85 48.26 L 57.24 47.90 C 57.27 49.74 57.28 51.57 57.40 53.41 L 57.80 53.63 L 58.99 54.23 C 59.98 54.67 60.97 55.09 61.97 55.51 C 59.43 56.16 56.81 56.54 54.20 56.14 C 52.46 55.99 50.71 55.86 48.97 55.84 C 49.49 55.35 50.02 54.88 50.55 54.40 C 48.95 53.77 46.56 53.92 46.04 51.88 C 42.69 46.58 45.40 40.48 45.79 34.81 C 46.90 32.71 47.90 30.54 49.02 28.44 Z" />
</g>
<g id="#fda9a8ff">
<path fill="#fda9a8" opacity="1.00" d=" M 50.07 29.11 C 50.34 29.28 50.87 29.62 51.14 29.79 C 51.44 30.35 52.04 31.47 52.34 32.04 L 51.93 33.02 C 50.41 36.03 51.12 40.04 53.73 42.23 C 55.57 43.59 57.70 44.49 59.64 45.69 C 58.86 46.44 58.08 47.20 57.24 47.90 L 55.85 48.26 C 56.22 47.52 56.95 46.03 57.32 45.28 C 56.04 46.03 54.81 46.91 53.88 48.09 C 50.23 47.06 48.85 43.19 48.10 39.85 C 47.22 36.13 49.25 32.63 50.07 29.11 Z" />
</g>
<g id="#e3acb2ff">
<path fill="#e3acb2" opacity="1.00" d=" M 103.25 36.28 C 105.71 32.11 110.00 35.91 112.74 37.67 C 115.39 36.87 118.05 35.37 120.90 36.01 C 117.75 39.70 114.23 43.04 111.04 46.68 C 113.20 46.55 115.36 46.42 117.52 46.25 C 115.80 47.68 113.57 48.00 111.44 48.37 C 111.11 50.63 110.89 52.90 110.73 55.18 C 107.76 56.45 103.81 57.08 102.37 60.37 C 100.09 64.27 101.60 68.86 101.99 73.04 C 101.16 72.44 100.31 71.87 99.46 71.31 C 96.78 78.21 94.11 85.39 88.61 90.61 C 82.02 99.81 70.51 102.65 61.63 108.93 C 59.97 107.97 58.08 107.56 56.17 107.72 C 55.98 106.50 55.81 105.28 55.71 104.06 C 59.01 101.90 61.97 99.20 65.64 97.67 C 70.52 95.57 74.89 92.38 78.68 88.69 C 83.85 81.26 88.49 73.39 91.58 64.85 C 91.09 64.29 90.60 63.74 90.12 63.18 C 93.49 62.68 93.98 58.92 95.23 56.37 C 98.11 49.76 100.90 43.09 103.25 36.28 Z" />
</g>
<g id="#fecbcbff">
<path fill="#fecbcb" opacity="1.00" d=" M 40.04 49.22 C 41.91 44.40 42.75 39.13 45.79 34.81 C 45.40 40.48 42.69 46.58 46.04 51.88 C 46.56 53.92 48.95 53.77 50.55 54.40 C 50.02 54.88 49.49 55.35 48.97 55.84 C 47.05 56.86 47.36 59.07 48.82 60.34 C 50.37 60.73 51.94 61.10 53.50 61.50 C 53.25 61.77 52.74 62.32 52.48 62.59 C 53.26 62.99 54.04 63.39 54.82 63.79 C 48.78 71.50 55.90 82.79 49.64 90.54 C 47.89 92.69 49.46 95.28 50.67 97.23 C 51.25 98.64 51.67 100.11 51.91 101.61 C 50.35 107.79 50.56 114.23 49.60 120.51 C 42.86 112.08 39.57 101.61 37.44 91.19 C 37.87 91.41 38.75 91.87 39.19 92.09 C 39.34 90.92 40.10 89.67 39.52 88.51 C 38.26 85.31 37.52 81.96 36.86 78.60 C 36.51 79.17 35.79 80.29 35.43 80.86 C 35.23 80.05 35.06 79.25 34.89 78.44 C 34.41 77.92 33.44 76.90 32.95 76.38 L 32.96 76.38 C 34.17 76.43 35.38 76.45 36.60 76.47 C 37.21 75.07 37.84 73.68 38.50 72.30 C 41.70 67.75 41.08 61.86 40.29 56.66 C 39.83 53.46 36.10 53.05 33.86 51.56 L 33.18 51.15 L 34.81 51.03 C 36.57 50.74 39.20 51.30 40.04 49.22 Z" />
</g>
<g id="#da989dff">
<path fill="#da989d" opacity="1.00" d=" M 117.52 46.25 C 119.85 45.62 122.23 45.21 124.61 44.79 C 124.73 45.35 124.98 46.48 125.11 47.04 C 125.12 47.53 125.14 48.50 125.15 48.99 C 123.60 47.63 121.72 46.99 119.66 47.04 C 120.02 50.25 119.09 53.31 117.07 55.83 C 114.97 55.53 112.85 55.28 110.73 55.18 C 110.89 52.90 111.11 50.63 111.44 48.37 C 113.57 48.00 115.80 47.68 117.52 46.25 Z" />
</g>
<g id="#9c7070ff">
<path fill="#9c7070" opacity="1.00" d=" M 53.88 48.09 C 54.81 46.91 56.04 46.03 57.32 45.28 C 56.95 46.03 56.22 47.52 55.85 48.26 C 54.35 50.25 55.37 52.68 55.80 54.84 C 55.32 54.60 54.34 54.12 53.85 53.88 C 53.64 51.96 53.60 50.01 53.88 48.09 Z" />
</g>
<g id="#a87c7eff">
<path fill="#a87c7e" opacity="1.00" d=" M 57.24 47.90 C 58.08 47.20 58.86 46.44 59.64 45.69 C 59.90 45.97 60.41 46.55 60.67 46.83 L 61.03 48.01 C 60.88 48.56 60.58 49.65 60.44 50.20 C 59.82 49.78 58.58 48.93 57.96 48.51 C 57.88 50.22 57.79 51.92 57.80 53.63 L 57.40 53.41 C 57.28 51.57 57.27 49.74 57.24 47.90 Z" />
</g>
<g id="#1d3a49ff">
<path fill="#1d3a49" opacity="1.00" d=" M 78.30 47.48 C 78.62 47.64 79.27 47.98 79.59 48.14 C 79.69 50.74 79.09 53.27 77.89 55.57 C 75.62 54.32 76.53 51.62 76.44 49.54 C 77.07 48.86 77.69 48.17 78.30 47.48 M 77.94 49.20 C 78.57 49.76 78.57 49.76 77.94 49.20 Z" />
</g>
<g id="#d08c92ff">
<path fill="#d08c92" opacity="1.00" d=" M 119.66 47.04 C 121.72 46.99 123.60 47.63 125.15 48.99 C 125.14 48.50 125.12 47.53 125.11 47.04 C 125.70 48.20 126.26 49.38 126.89 50.52 C 126.53 50.98 125.83 51.90 125.48 52.36 C 127.52 61.13 128.79 70.21 127.29 79.18 C 125.95 86.07 123.79 92.76 121.55 99.41 C 120.07 106.69 115.19 112.56 111.80 118.96 C 113.08 118.40 114.36 117.82 115.60 117.15 C 113.44 120.41 110.80 123.41 107.56 125.64 C 107.72 121.85 108.32 118.04 109.54 114.44 C 111.12 111.83 113.98 110.16 115.19 107.28 C 117.47 102.14 120.09 97.11 121.63 91.67 C 122.82 87.35 125.03 83.39 126.16 79.05 C 124.18 80.54 122.25 82.12 120.11 83.37 C 120.31 80.39 122.56 78.55 124.46 76.54 C 125.87 70.42 123.45 63.97 120.10 58.88 C 119.12 57.83 118.09 56.84 117.07 55.83 C 119.09 53.31 120.02 50.25 119.66 47.04 Z" />
</g>
<g id="#ebbec3ff">
<path fill="#ebbec3" opacity="1.00" d=" M 61.03 48.01 C 61.43 49.33 61.82 50.66 62.21 51.99 C 67.06 52.72 72.16 51.97 76.44 49.54 C 76.53 51.62 75.62 54.32 77.89 55.57 C 79.09 53.27 79.69 50.74 79.59 48.14 L 81.39 47.44 C 84.05 49.99 82.95 54.06 80.36 56.18 C 81.81 55.60 83.09 54.66 83.82 53.24 C 84.39 52.36 84.95 51.48 85.51 50.59 C 87.05 51.37 88.74 51.97 90.05 53.14 C 90.50 57.66 84.65 56.62 81.82 57.68 C 79.59 58.95 80.62 61.62 82.76 62.20 C 85.05 63.29 87.63 63.24 90.12 63.18 C 90.60 63.74 91.09 64.29 91.58 64.85 C 88.49 73.39 83.85 81.26 78.68 88.69 C 74.89 92.38 70.52 95.57 65.64 97.67 C 61.97 99.20 59.01 101.90 55.71 104.06 C 54.46 103.21 53.19 102.41 51.91 101.61 C 51.67 100.11 51.25 98.64 50.67 97.23 C 55.39 91.72 63.34 90.63 68.16 85.23 C 73.04 79.84 75.13 72.74 77.86 66.17 C 77.53 65.94 76.87 65.48 76.54 65.25 C 76.30 65.83 75.82 66.98 75.58 67.56 C 73.20 65.84 71.14 63.18 67.99 63.01 C 63.57 62.62 59.27 61.42 55.43 59.19 C 55.02 58.17 54.61 57.15 54.20 56.14 C 56.81 56.54 59.43 56.16 61.97 55.51 C 60.97 55.09 59.98 54.67 58.99 54.23 C 59.49 52.90 60.01 51.56 60.44 50.20 C 60.58 49.65 60.88 48.56 61.03 48.01 M 60.53 57.29 C 62.65 59.99 66.17 56.98 68.91 58.34 C 70.50 58.56 73.31 60.21 73.91 57.78 C 69.45 57.03 65.04 56.10 60.53 57.29 Z" />
</g>
<g id="#383337ff">
<path fill="#383337" opacity="1.00" d=" M 57.96 48.51 C 58.58 48.93 59.82 49.78 60.44 50.20 C 60.01 51.56 59.49 52.90 58.99 54.23 L 57.80 53.63 C 57.79 51.92 57.88 50.22 57.96 48.51 Z" />
</g>
<g id="#aeaeaeff">
<path fill="#aeaeae" opacity="1.00" d=" M 77.94 49.20 C 78.57 49.76 78.57 49.76 77.94 49.20 Z" />
</g>
<g id="#e5a3abff">
<path fill="#e5a3ab" opacity="1.00" d=" M 125.48 52.36 C 125.83 51.90 126.53 50.98 126.89 50.52 C 127.92 51.58 128.93 52.67 129.92 53.77 C 128.44 54.20 127.66 55.48 128.06 57.01 C 128.92 62.42 130.09 67.80 131.72 73.04 C 132.32 74.97 132.30 77.02 132.12 79.02 C 131.96 82.94 128.02 85.39 128.04 89.41 C 127.38 93.83 124.77 97.75 124.49 102.24 C 124.18 102.48 123.55 102.97 123.24 103.22 C 121.16 108.10 118.76 112.87 115.60 117.15 C 114.36 117.82 113.08 118.40 111.80 118.96 C 115.19 112.56 120.07 106.69 121.55 99.41 C 123.79 92.76 125.95 86.07 127.29 79.18 C 128.79 70.21 127.52 61.13 125.48 52.36 Z" />
</g>
<g id="#eeb6baff">
<path fill="#eeb6ba" opacity="1.00" d=" M 15.02 62.91 C 20.45 57.96 26.95 53.86 33.86 51.56 C 36.10 53.05 39.83 53.46 40.29 56.66 C 41.08 61.86 41.70 67.75 38.50 72.30 C 38.52 69.38 38.80 66.32 37.46 63.62 C 30.72 66.94 24.49 71.28 18.69 76.02 C 20.24 77.02 22.01 77.55 23.86 77.29 C 20.06 77.72 15.86 78.73 12.34 76.72 C 10.16 75.75 8.22 73.48 8.99 70.96 C 9.87 67.60 12.31 64.94 15.02 62.91 Z" />
</g>
<g id="#d9979cff">
<path fill="#d9979c" opacity="1.00" d=" M 128.06 57.01 C 127.66 55.48 128.44 54.20 129.92 53.77 C 135.11 61.75 138.11 71.20 137.80 80.75 C 137.31 83.41 137.29 86.24 135.96 88.66 C 135.29 82.80 136.00 76.88 135.45 71.01 C 135.07 75.99 135.96 81.51 133.03 85.90 C 132.02 87.84 129.92 88.61 128.04 89.41 C 128.02 85.39 131.96 82.94 132.12 79.02 C 132.30 77.02 132.32 74.97 131.72 73.04 C 130.09 67.80 128.92 62.42 128.06 57.01 Z" />
</g>
<g id="#f5bcbfff">
<path fill="#f5bcbf" opacity="1.00" d=" M 102.37 60.37 C 103.81 57.08 107.76 56.45 110.73 55.18 C 112.85 55.28 114.97 55.53 117.07 55.83 C 118.09 56.84 119.12 57.83 120.10 58.88 C 120.00 62.77 121.79 66.55 121.45 70.39 C 119.08 73.68 115.02 75.41 111.90 77.97 C 109.46 78.10 107.18 76.75 104.93 75.95 C 103.97 74.95 103.02 73.96 101.99 73.04 C 101.60 68.86 100.09 64.27 102.37 60.37 Z" />
</g>
<g id="#b5838cff">
<path fill="#b5838c" opacity="1.00" d=" M 48.82 60.34 C 47.36 59.07 47.05 56.86 48.97 55.84 C 50.71 55.86 52.46 55.99 54.20 56.14 C 54.61 57.15 55.02 58.17 55.43 59.19 C 53.36 60.17 51.08 60.39 48.82 60.34 M 48.99 57.06 C 49.00 57.53 49.02 58.47 49.04 58.94 C 50.52 58.96 52.00 58.98 53.49 59.00 C 53.69 56.23 50.72 57.32 48.99 57.06 Z" />
</g>
<g id="#e7a9bdff">
<path fill="#e7a9bd" opacity="1.00" d=" M 48.99 57.06 C 50.72 57.32 53.69 56.23 53.49 59.00 C 52.00 58.98 50.52 58.96 49.04 58.94 C 49.02 58.47 49.00 57.53 48.99 57.06 Z" />
</g>
<g id="#7b6062ff">
<path fill="#7b6062" opacity="1.00" d=" M 60.53 57.29 C 65.04 56.10 69.45 57.03 73.91 57.78 C 73.31 60.21 70.50 58.56 68.91 58.34 C 66.17 56.98 62.65 59.99 60.53 57.29 Z" />
</g>
<g id="#a87b86ff">
<path fill="#a87b86" opacity="1.00" d=" M 82.76 62.20 C 80.62 61.62 79.59 58.95 81.82 57.68 C 84.38 57.80 87.12 57.54 89.53 58.58 C 90.88 59.19 91.25 61.03 89.94 61.92 C 87.59 62.51 85.15 62.31 82.76 62.20 M 81.89 59.04 C 82.16 59.51 82.71 60.47 82.99 60.95 C 85.07 60.99 87.15 61.01 89.23 60.94 C 87.85 58.22 84.34 59.22 81.89 59.04 Z" />
</g>
<g id="#f2c8cdff">
<path fill="#f2c8cd" opacity="1.00" d=" M 48.82 60.34 C 51.08 60.39 53.36 60.17 55.43 59.19 C 59.27 61.42 63.57 62.62 67.99 63.01 C 71.14 63.18 73.20 65.84 75.58 67.56 C 75.82 66.98 76.30 65.83 76.54 65.25 C 76.87 65.48 77.53 65.94 77.86 66.17 C 75.13 72.74 73.04 79.84 68.16 85.23 C 63.34 90.63 55.39 91.72 50.67 97.23 C 49.46 95.28 47.89 92.69 49.64 90.54 C 55.90 82.79 48.78 71.50 54.82 63.79 C 54.04 63.39 53.26 62.99 52.48 62.59 C 52.74 62.32 53.25 61.77 53.50 61.50 C 51.94 61.10 50.37 60.73 48.82 60.34 Z" />
</g>
<g id="#daa2b8ff">
<path fill="#daa2b8" opacity="1.00" d=" M 81.89 59.04 C 84.34 59.22 87.85 58.22 89.23 60.94 C 87.15 61.01 85.07 60.99 82.99 60.95 C 82.71 60.47 82.16 59.51 81.89 59.04 Z" />
</g>
<g id="#e2a6abff">
<path fill="#e2a6ab" opacity="1.00" d=" M 120.10 58.88 C 123.45 63.97 125.87 70.42 124.46 76.54 C 122.56 78.55 120.31 80.39 120.11 83.37 C 119.27 83.52 118.43 83.64 117.59 83.74 L 117.49 83.46 C 120.81 82.11 119.00 76.19 115.72 76.68 C 116.04 78.22 116.36 79.77 116.77 81.30 C 113.78 83.52 110.33 81.55 107.73 79.70 C 106.75 78.49 105.87 77.19 104.93 75.95 C 107.18 76.75 109.46 78.10 111.90 77.97 C 115.02 75.41 119.08 73.68 121.45 70.39 C 121.79 66.55 120.00 62.77 120.10 58.88 Z" />
</g>
<g id="#da999eff">
<path fill="#da999e" opacity="1.00" d=" M 18.69 76.02 C 24.49 71.28 30.72 66.94 37.46 63.62 C 38.80 66.32 38.52 69.38 38.50 72.30 C 37.84 73.68 37.21 75.07 36.60 76.47 C 35.38 76.45 34.17 76.43 32.96 76.38 C 31.18 76.05 29.40 75.71 27.61 75.39 C 30.60 75.05 33.59 74.74 36.59 74.53 C 36.87 72.45 36.99 70.36 36.95 68.27 C 32.13 70.23 27.65 72.89 23.29 75.70 C 24.32 76.09 25.35 76.47 26.39 76.83 C 25.76 76.94 24.49 77.18 23.86 77.29 C 22.01 77.55 20.24 77.02 18.69 76.02 Z" />
</g>
<g id="#c97e85ff">
<path fill="#c97e85" opacity="1.00" d=" M 23.29 75.70 C 27.65 72.89 32.13 70.23 36.95 68.27 C 36.99 70.36 36.87 72.45 36.59 74.53 C 33.59 74.74 30.60 75.05 27.61 75.39 C 29.40 75.71 31.18 76.05 32.96 76.38 L 32.95 76.38 C 30.75 76.20 28.56 76.50 26.39 76.83 C 25.35 76.47 24.32 76.09 23.29 75.70 Z" />
</g>
<g id="#d5999fff">
<path fill="#d5999f" opacity="1.00" d=" M 99.46 71.31 C 100.31 71.87 101.16 72.44 101.99 73.04 C 103.02 73.96 103.97 74.95 104.93 75.95 C 105.87 77.19 106.75 78.49 107.73 79.70 C 107.58 81.63 107.64 83.71 106.37 85.31 C 102.61 91.10 98.35 96.63 93.23 101.29 C 88.31 105.10 82.29 107.10 76.78 109.87 C 76.63 110.11 76.34 110.59 76.20 110.83 C 78.92 112.97 82.66 112.21 85.66 113.73 C 81.82 114.15 77.95 113.92 74.09 114.05 C 74.05 114.19 73.97 114.48 73.94 114.63 C 69.99 112.37 65.46 111.42 61.63 108.93 C 70.51 102.65 82.02 99.81 88.61 90.61 C 94.11 85.39 96.78 78.21 99.46 71.31 Z" />
</g>
<g id="#cb8187ff">
<path fill="#cb8187" opacity="1.00" d=" M 135.45 71.01 C 136.00 76.88 135.29 82.80 135.96 88.66 C 137.29 86.24 137.31 83.41 137.80 80.75 C 137.34 84.11 137.66 87.76 135.80 90.75 C 134.46 93.11 133.59 95.75 131.98 97.93 C 129.64 99.62 127.05 100.92 124.49 102.24 C 124.77 97.75 127.38 93.83 128.04 89.41 C 129.92 88.61 132.02 87.84 133.03 85.90 C 135.96 81.51 135.07 75.99 135.45 71.01 Z" />
</g>
<g id="#f3cccbff">
<path fill="#f3cccb" opacity="1.00" d=" M 115.72 76.68 C 119.00 76.19 120.81 82.11 117.49 83.46 C 117.31 82.92 116.95 81.84 116.77 81.30 C 116.36 79.77 116.04 78.22 115.72 76.68 Z" />
</g>
<g id="#c68087ff">
<path fill="#c68087" opacity="1.00" d=" M 120.11 83.37 C 122.25 82.12 124.18 80.54 126.16 79.05 C 125.03 83.39 122.82 87.35 121.63 91.67 C 120.09 97.11 117.47 102.14 115.19 107.28 C 113.98 110.16 111.12 111.83 109.54 114.44 C 108.32 118.04 107.72 121.85 107.56 125.64 L 107.55 125.97 C 105.02 126.52 102.46 126.95 99.87 127.00 C 101.01 126.49 102.13 125.93 103.25 125.38 C 99.54 123.56 95.44 122.81 91.34 123.44 C 88.70 120.59 86.29 117.54 84.37 114.16 C 80.94 114.55 77.48 114.46 74.06 114.99 L 74.76 115.66 C 74.41 115.99 73.70 116.65 73.34 116.98 C 73.49 116.39 73.79 115.21 73.94 114.63 C 73.97 114.48 74.05 114.19 74.09 114.05 C 77.95 113.92 81.82 114.15 85.66 113.73 C 82.66 112.21 78.92 112.97 76.20 110.83 C 76.34 110.59 76.63 110.11 76.78 109.87 C 82.29 107.10 88.31 105.10 93.23 101.29 C 98.35 96.63 102.61 91.10 106.37 85.31 C 107.64 83.71 107.58 81.63 107.73 79.70 C 110.33 81.55 113.78 83.52 116.77 81.30 C 116.95 81.84 117.31 82.92 117.49 83.46 L 117.59 83.74 C 118.43 83.64 119.27 83.52 120.11 83.37 Z" />
</g>
<g id="#f7b8b9ff">
<path fill="#f7b8b9" opacity="1.00" d=" M 51.91 101.61 C 53.19 102.41 54.46 103.21 55.71 104.06 C 55.81 105.28 55.98 106.50 56.17 107.72 C 56.45 110.29 56.73 112.88 57.39 115.39 C 58.35 117.96 55.43 119.54 53.85 120.99 C 53.01 121.67 52.17 122.37 51.35 123.08 L 51.33 123.10 C 50.77 122.23 50.19 121.36 49.60 120.51 C 50.56 114.23 50.35 107.79 51.91 101.61 Z" />
</g>
<g id="#f0abafff">
<path fill="#f0abaf" opacity="1.00" d=" M 56.17 107.72 C 58.08 107.56 59.97 107.97 61.63 108.93 C 65.46 111.42 69.99 112.37 73.94 114.63 C 73.79 115.21 73.49 116.39 73.34 116.98 C 72.22 119.26 69.82 120.43 67.94 121.98 C 66.74 122.80 65.72 124.24 64.10 124.14 C 62.81 124.21 61.52 124.29 60.23 124.38 C 60.30 123.79 60.44 122.61 60.52 122.02 C 58.31 121.56 56.09 121.21 53.85 120.99 C 55.43 119.54 58.35 117.96 57.39 115.39 C 56.73 112.88 56.45 110.29 56.17 107.72 Z" />
</g>
<g id="#f8dfdfff">
<path fill="#f8dfdf" opacity="1.00" d=" M 51.35 123.08 C 52.17 122.37 53.01 121.67 53.85 120.99 C 56.09 121.21 58.31 121.56 60.52 122.02 C 60.44 122.61 60.30 123.79 60.23 124.38 C 57.24 124.63 53.84 125.20 51.35 123.08 Z" />
</g>
<g id="#807172b3">
<path fill="#807172" opacity="0.70" d=" M 51.33 123.10 L 51.35 123.08 C 53.84 125.20 57.24 124.63 60.23 124.38 C 61.52 124.29 62.81 124.21 64.10 124.14 C 61.16 125.30 57.93 125.09 54.84 125.02 C 53.43 125.11 51.91 124.44 51.33 123.10 Z" />
</g>
<g id="#eddcdcff">
<path fill="#eddcdc" opacity="1.00" d=" M 91.34 123.44 C 95.44 122.81 99.54 123.56 103.25 125.38 C 102.13 125.93 101.01 126.49 99.87 127.00 C 97.64 127.16 95.35 127.15 93.18 126.55 C 92.37 125.65 91.91 124.50 91.34 123.44 Z" />
</g>
</svg>
