<?xml version="1.0" encoding="UTF-8" ?>
<!DOCTYPE svg PUBLIC "-//W3C//DTD SVG 1.1//EN" "http://www.w3.org/Graphics/SVG/1.1/DTD/svg11.dtd">
<svg width="204pt" height="183pt" viewBox="0 0 204 183" version="1.1" xmlns="http://www.w3.org/2000/svg">
<g id="#6e5b50ff">
<path fill="#6e5b50" opacity="1.00" d=" M 13.85 8.00 C 12.45 6.57 12.67 3.25 15.12 3.26 C 18.23 3.90 21.05 5.43 24.01 6.54 C 31.17 9.59 38.63 12.03 45.51 15.70 C 38.27 16.30 31.10 14.17 23.85 14.96 C 24.02 18.02 24.86 20.98 26.16 23.74 C 21.70 18.79 17.96 13.24 13.85 8.00 Z" />
</g>
<g id="#6b584fff">
<path fill="#6b584f" opacity="1.00" d=" M 144.14 15.53 C 153.39 12.33 162.73 9.37 172.12 6.61 C 175.43 5.44 176.04 11.04 173.26 11.77 C 167.41 13.09 164.66 19.02 159.64 21.76 C 159.20 20.09 158.84 18.40 158.22 16.78 C 153.64 15.46 148.68 17.23 144.14 15.53 Z" />
</g>
<g id="#54332fff">
<path fill="#54332f" opacity="1.00" d=" M 159.64 21.76 C 164.66 19.02 167.41 13.09 173.26 11.77 C 169.71 16.61 165.15 20.60 161.16 25.07 C 157.06 29.01 153.55 33.58 149.08 37.12 C 150.56 34.45 151.89 31.70 153.39 29.04 C 154.17 27.74 154.90 26.40 155.55 25.02 C 155.66 24.72 155.86 24.12 155.97 23.81 C 156.53 22.09 157.05 20.35 157.59 18.62 C 151.00 16.26 143.73 17.83 136.88 18.00 C 139.26 17.08 141.67 16.20 144.14 15.53 C 148.68 17.23 153.64 15.46 158.22 16.78 C 158.84 18.40 159.20 20.09 159.64 21.76 Z" />
<path fill="#54332f" opacity="1.00" d=" M 63.75 69.90 C 59.52 68.23 59.65 61.24 63.88 59.72 C 63.25 61.14 62.50 62.51 61.98 63.98 C 61.41 66.18 63.39 67.84 63.75 69.90 Z" />
<path fill="#54332f" opacity="1.00" d=" M 66.25 60.12 C 69.23 61.43 68.42 68.13 65.21 69.13 C 64.72 66.82 64.73 64.45 64.94 62.11 C 65.45 62.45 66.47 63.13 66.98 63.47 L 67.18 61.90 L 65.09 62.19 C 65.38 61.67 65.96 60.64 66.25 60.12 Z" />
<path fill="#54332f" opacity="1.00" d=" M 88.30 60.88 C 93.38 61.57 91.28 70.63 86.26 70.47 C 87.23 69.19 88.33 68.02 89.33 66.77 C 90.47 64.80 88.92 62.74 88.30 60.88 Z" />
<path fill="#54332f" opacity="1.00" d=" M 64.67 73.61 C 69.03 74.21 73.39 72.56 77.71 73.67 C 79.84 74.16 82.01 74.44 84.20 74.22 C 84.21 74.55 84.23 75.21 84.24 75.54 C 80.11 76.48 76.14 74.20 72.02 74.85 C 69.56 74.95 66.13 76.51 64.67 73.61 Z" />
</g>
<g id="#fdddd1ff">
<path fill="#fdddd1" opacity="1.00" d=" M 73.17 18.61 C 81.35 12.63 93.23 12.44 101.49 18.37 C 97.50 19.17 94.09 15.85 90.06 16.21 C 86.60 15.54 83.68 17.98 80.29 17.82 C 77.89 17.86 75.59 18.86 73.17 18.61 Z" />
</g>
<g id="#fecfc6ff">
<path fill="#fecfc6" opacity="1.00" d=" M 23.85 14.96 C 31.10 14.17 38.27 16.30 45.51 15.70 C 52.58 18.31 59.44 21.74 66.21 25.09 C 68.40 22.85 70.33 19.97 73.17 18.61 C 75.59 18.86 77.89 17.86 80.29 17.82 C 83.68 17.98 86.60 15.54 90.06 16.21 C 94.09 15.85 97.50 19.17 101.49 18.37 L 101.81 18.34 C 103.75 20.04 105.68 21.77 107.32 23.78 C 106.78 23.82 105.71 23.91 105.18 23.96 C 101.17 21.58 96.42 22.34 91.98 22.22 C 85.86 22.05 79.70 22.52 73.72 23.85 C 70.68 24.61 68.75 28.08 65.48 27.93 C 65.01 27.72 64.08 27.32 63.62 27.11 C 59.72 30.36 56.46 34.28 52.80 37.77 C 50.01 40.64 46.87 43.34 45.31 47.13 C 43.85 45.54 42.45 43.89 41.10 42.19 C 39.32 39.87 37.37 37.69 35.36 35.56 C 35.07 35.23 34.50 34.57 34.21 34.24 C 31.52 30.75 28.80 27.27 26.16 23.74 C 24.86 20.98 24.02 18.02 23.85 14.96 Z" />
</g>
<g id="#fccec8ff">
<path fill="#fccec8" opacity="1.00" d=" M 112.88 27.28 C 120.70 23.75 128.87 21.06 136.88 18.00 C 143.73 17.83 151.00 16.26 157.59 18.62 C 157.05 20.35 156.53 22.09 155.97 23.81 C 155.94 22.60 155.90 21.39 155.83 20.18 C 146.75 27.25 136.05 31.77 126.08 37.38 C 121.77 36.71 117.69 35.02 113.82 33.07 C 112.33 31.84 111.51 30.02 110.45 28.46 C 111.27 28.08 112.08 27.69 112.88 27.28 Z" />
</g>
<g id="#ecbab5ff">
<path fill="#ecbab5" opacity="1.00" d=" M 126.08 37.38 C 136.05 31.77 146.75 27.25 155.83 20.18 C 155.90 21.39 155.94 22.60 155.97 23.81 C 155.86 24.12 155.66 24.72 155.55 25.02 C 150.12 27.83 145.66 32.12 140.43 35.26 C 135.15 38.35 130.19 42.01 124.62 44.59 C 121.35 46.05 119.46 49.55 119.05 52.98 C 118.45 65.36 114.61 77.29 113.45 89.61 C 112.62 98.96 108.86 107.90 103.58 115.60 C 98.84 121.34 92.65 126.05 85.62 128.61 C 79.44 130.78 73.30 133.10 67.08 135.16 C 65.42 135.60 65.57 137.41 67.10 137.89 C 67.71 138.85 68.30 139.82 68.87 140.81 C 66.50 140.74 63.59 139.00 61.63 140.96 C 63.04 142.65 64.82 143.96 66.57 145.27 C 65.63 149.47 63.56 154.34 66.83 158.07 L 66.11 158.14 C 65.60 157.94 64.58 157.52 64.06 157.32 C 62.84 156.55 61.56 155.82 60.54 154.78 C 60.03 152.19 60.86 149.55 60.91 146.95 C 61.58 142.95 58.18 140.10 56.14 137.12 C 56.57 136.47 57.00 135.83 57.43 135.18 C 57.03 134.00 56.64 132.82 56.25 131.64 C 58.73 130.11 60.91 128.12 63.44 126.68 C 73.37 123.53 84.11 120.32 91.08 112.06 C 96.34 104.33 100.27 95.69 102.78 86.68 C 104.13 81.99 103.74 76.99 105.26 72.32 C 107.35 64.72 106.71 56.81 107.22 49.04 C 107.52 46.38 106.64 43.80 106.45 41.17 C 106.63 38.35 107.71 35.68 108.44 32.96 C 112.84 33.92 115.95 37.51 120.15 38.92 C 122.27 39.59 124.28 38.35 126.08 37.38 Z" />
</g>
<g id="#fcc3bcff">
<path fill="#fcc3bc" opacity="1.00" d=" M 73.72 23.85 C 79.70 22.52 85.86 22.05 91.98 22.22 C 96.42 22.34 101.17 21.58 105.18 23.96 C 105.71 23.91 106.78 23.82 107.32 23.78 L 107.63 23.75 C 109.05 25.45 110.26 27.82 112.88 27.28 C 112.08 27.69 111.27 28.08 110.45 28.46 C 111.51 30.02 112.33 31.84 113.82 33.07 C 117.69 35.02 121.77 36.71 126.08 37.38 C 124.28 38.35 122.27 39.59 120.15 38.92 C 115.95 37.51 112.84 33.92 108.44 32.96 C 107.71 35.68 106.63 38.35 106.45 41.17 C 106.64 43.80 107.52 46.38 107.22 49.04 C 106.69 48.89 105.63 48.58 105.10 48.43 C 104.44 48.75 103.78 49.06 103.12 49.38 C 102.15 49.06 101.18 48.75 100.21 48.44 C 98.49 50.57 96.96 53.57 93.88 53.77 C 88.72 54.31 83.41 54.34 78.60 56.56 C 74.35 57.12 70.12 57.75 65.96 58.81 C 60.80 58.72 55.29 55.03 54.14 49.84 C 53.83 44.84 56.51 40.30 59.75 36.71 C 58.77 40.86 57.52 46.40 61.49 49.38 C 64.73 50.48 67.92 51.72 71.08 53.03 C 77.02 54.34 82.86 50.98 86.99 46.96 C 90.59 43.73 95.79 40.61 95.16 35.00 C 93.42 35.00 91.41 34.07 89.80 34.81 C 87.73 37.81 86.55 41.37 84.14 44.15 C 79.89 49.40 71.51 50.71 65.87 47.07 C 61.91 43.31 63.06 37.36 62.27 32.47 C 63.42 31.02 64.42 29.45 65.48 27.93 C 68.75 28.08 70.68 24.61 73.72 23.85 Z" />
</g>
<g id="#dfa4a1ff">
<path fill="#dfa4a1" opacity="1.00" d=" M 140.43 35.26 C 145.66 32.12 150.12 27.83 155.55 25.02 C 154.90 26.40 154.17 27.74 153.39 29.04 C 148.17 31.95 144.11 36.42 139.30 39.91 C 135.75 41.29 132.55 43.37 129.38 45.46 C 125.96 52.63 128.51 61.06 125.16 68.28 C 121.34 75.58 121.36 84.09 121.66 92.12 C 120.05 95.97 121.31 100.47 119.12 104.17 C 116.60 108.74 115.55 114.02 112.34 118.21 C 108.72 123.61 103.81 128.09 98.08 131.17 C 91.61 135.17 83.71 135.37 76.84 138.36 C 84.75 141.42 93.19 143.32 101.70 143.17 C 101.00 143.89 100.29 144.61 99.59 145.34 C 102.73 148.59 106.93 144.65 110.67 145.35 C 113.61 145.88 118.13 145.51 119.58 148.63 C 116.23 152.31 114.36 157.60 109.71 159.89 C 109.26 160.12 108.35 160.59 107.90 160.83 L 107.80 160.18 C 109.50 155.86 113.25 152.69 114.77 148.31 C 109.08 145.01 101.72 150.65 96.05 146.50 C 96.01 147.97 95.97 149.45 95.97 150.93 C 95.50 149.02 95.29 147.06 95.08 145.11 C 92.39 145.78 88.52 143.97 86.85 146.84 C 86.98 146.44 87.23 145.64 87.35 145.24 C 89.61 144.84 91.89 144.60 94.17 144.36 C 88.71 143.42 83.27 142.31 77.84 141.16 C 74.13 140.47 71.03 137.39 67.10 137.89 C 65.57 137.41 65.42 135.60 67.08 135.16 C 73.30 133.10 79.44 130.78 85.62 128.61 C 92.65 126.05 98.84 121.34 103.58 115.60 C 108.86 107.90 112.62 98.96 113.45 89.61 C 114.61 77.29 118.45 65.36 119.05 52.98 C 119.46 49.55 121.35 46.05 124.62 44.59 C 130.19 42.01 135.15 38.35 140.43 35.26 Z" />
</g>
<g id="#ffefd6ff">
<path fill="#ffefd6" opacity="1.00" d=" M 52.80 37.77 C 56.46 34.28 59.72 30.36 63.62 27.11 C 64.08 27.32 65.01 27.72 65.48 27.93 C 64.42 29.45 63.42 31.02 62.27 32.47 C 61.93 32.79 61.25 33.41 60.91 33.72 C 54.33 38.52 51.97 46.85 49.74 54.28 C 49.54 53.79 49.12 52.81 48.92 52.32 C 48.12 50.34 46.77 48.66 45.31 47.13 C 46.87 43.34 50.01 40.64 52.80 37.77 Z" />
</g>
<g id="#dd9da7ff">
<path fill="#dd9da7" opacity="1.00" d=" M 10.98 30.05 C 11.18 27.88 13.16 27.40 14.98 27.93 C 21.48 29.73 27.81 32.10 34.21 34.24 C 34.50 34.57 35.07 35.23 35.36 35.56 C 33.25 35.72 31.14 35.87 29.03 36.02 C 28.20 35.10 27.38 34.18 26.55 33.27 C 23.56 34.25 20.43 35.11 17.28 34.29 C 17.53 35.12 17.78 35.95 18.02 36.77 C 15.55 34.69 12.05 33.38 10.98 30.05 Z" />
</g>
<g id="#c67676ff">
<path fill="#c67676" opacity="1.00" d=" M 139.30 39.91 C 144.11 36.42 148.17 31.95 153.39 29.04 C 151.89 31.70 150.56 34.45 149.08 37.12 C 146.85 40.18 143.77 42.48 141.17 45.22 C 139.39 46.82 137.90 48.84 135.74 49.96 C 133.80 50.79 131.89 51.70 130.03 52.69 C 129.80 46.58 135.74 43.81 139.30 39.91 Z" />
</g>
<g id="#de919aff">
<path fill="#de919a" opacity="1.00" d=" M 195.27 31.20 C 197.03 30.77 199.38 31.66 199.38 33.74 C 195.68 36.21 191.89 38.54 188.09 40.86 C 183.66 42.57 179.39 44.68 175.25 46.99 C 170.64 47.56 166.10 49.57 161.41 48.42 C 156.76 47.40 151.93 48.68 147.35 47.31 C 163.39 42.12 178.98 35.60 195.27 31.20 Z" />
</g>
<g id="#dc8f9aff">
<path fill="#dc8f9a" opacity="1.00" d=" M 17.28 34.29 C 20.43 35.11 23.56 34.25 26.55 33.27 C 27.38 34.18 28.20 35.10 29.03 36.02 C 31.14 35.87 33.25 35.72 35.36 35.56 C 37.37 37.69 39.32 39.87 41.10 42.19 C 35.65 44.39 30.30 41.10 24.79 41.03 C 22.35 39.96 20.27 38.19 18.02 36.77 C 17.78 35.95 17.53 35.12 17.28 34.29 Z" />
</g>
<g id="#f6a7a0ff">
<path fill="#f6a7a0" opacity="1.00" d=" M 60.91 33.72 C 61.25 33.41 61.93 32.79 62.27 32.47 C 63.06 37.36 61.91 43.31 65.87 47.07 C 71.51 50.71 79.89 49.40 84.14 44.15 C 86.55 41.37 87.73 37.81 89.80 34.81 C 91.41 34.07 93.42 35.00 95.16 35.00 C 95.79 40.61 90.59 43.73 86.99 46.96 C 82.86 50.98 77.02 54.34 71.08 53.03 C 67.92 51.72 64.73 50.48 61.49 49.38 C 57.52 46.40 58.77 40.86 59.75 36.71 C 60.13 35.71 60.52 34.72 60.91 33.72 Z" />
</g>
<g id="#f6cec8ff">
<path fill="#f6cec8" opacity="1.00" d=" M 49.74 54.28 C 51.97 46.85 54.33 38.52 60.91 33.72 C 60.52 34.72 60.13 35.71 59.75 36.71 C 56.51 40.30 53.83 44.84 54.14 49.84 C 55.29 55.03 60.80 58.72 65.96 58.81 C 70.12 57.75 74.35 57.12 78.60 56.56 C 83.41 54.34 88.72 54.31 93.88 53.77 C 96.96 53.57 98.49 50.57 100.21 48.44 C 101.18 48.75 102.15 49.06 103.12 49.38 C 103.78 49.06 104.44 48.75 105.10 48.43 C 105.63 48.58 106.69 48.89 107.22 49.04 C 106.71 56.81 107.35 64.72 105.26 72.32 C 103.74 76.99 104.13 81.99 102.78 86.68 C 100.27 95.69 96.34 104.33 91.08 112.06 C 84.11 120.32 73.37 123.53 63.44 126.68 C 60.91 128.12 58.73 130.11 56.25 131.64 C 56.64 132.82 57.03 134.00 57.43 135.18 C 57.00 135.83 56.57 136.47 56.14 137.12 C 58.18 140.10 61.58 142.95 60.91 146.95 C 60.86 149.55 60.03 152.19 60.54 154.78 C 61.56 155.82 62.84 156.55 64.06 157.32 C 63.13 157.57 62.19 157.83 61.26 158.09 C 58.86 155.52 56.32 153.05 54.41 150.09 C 54.83 150.28 55.66 150.67 56.08 150.86 C 56.08 146.00 55.94 140.44 51.85 137.07 C 51.48 137.34 50.74 137.88 50.37 138.14 L 50.16 138.27 C 49.29 132.24 46.42 126.75 45.23 120.79 C 45.75 121.98 46.31 123.14 46.83 124.33 C 47.07 125.07 47.30 125.82 47.53 126.56 C 49.46 125.51 51.54 124.61 53.15 123.08 C 54.29 121.54 54.89 119.65 56.15 118.19 C 59.78 115.91 64.44 115.70 67.71 112.73 C 70.72 110.09 74.55 108.10 76.43 104.40 C 78.94 99.83 80.71 94.88 83.46 90.43 C 85.20 87.67 86.75 84.80 88.10 81.82 C 86.77 80.32 85.31 78.93 83.71 77.71 C 83.84 77.40 84.10 76.78 84.23 76.47 C 84.23 76.24 84.23 75.77 84.24 75.54 C 84.23 75.21 84.21 74.55 84.20 74.22 C 82.01 74.44 79.84 74.16 77.71 73.67 C 78.06 73.24 78.75 72.37 79.09 71.94 C 74.76 71.59 70.42 71.77 66.08 71.69 C 62.41 71.65 58.89 70.33 55.23 70.24 C 51.57 72.71 51.05 77.57 49.36 81.35 C 49.52 85.60 47.59 89.61 44.47 92.45 C 43.27 85.53 43.73 78.41 45.57 71.64 C 46.80 65.81 49.72 60.35 49.74 54.28 M 63.75 69.90 C 63.39 67.84 61.41 66.18 61.98 63.98 C 62.50 62.51 63.25 61.14 63.88 59.72 C 59.65 61.24 59.52 68.23 63.75 69.90 M 66.25 60.12 C 65.96 60.64 65.38 61.67 65.09 62.19 L 67.18 61.90 L 66.98 63.47 C 66.47 63.13 65.45 62.45 64.94 62.11 C 64.73 64.45 64.72 66.82 65.21 69.13 C 68.42 68.13 69.23 61.43 66.25 60.12 M 83.98 70.07 C 85.74 68.42 86.15 66.02 86.68 63.78 C 86.00 63.84 84.64 63.96 83.95 64.02 C 83.60 62.55 84.93 61.63 85.52 60.48 C 81.77 61.56 81.52 67.52 83.98 70.07 M 88.30 60.88 C 88.92 62.74 90.47 64.80 89.33 66.77 C 88.33 68.02 87.23 69.19 86.26 70.47 C 91.28 70.63 93.38 61.57 88.30 60.88 Z" />
</g>
<g id="#c0666fff">
<path fill="#c0666f" opacity="1.00" d=" M 188.09 40.86 C 191.89 38.54 195.68 36.21 199.38 33.74 C 199.24 35.52 197.98 36.68 196.63 37.65 C 191.33 41.89 185.55 45.47 180.01 49.37 C 176.98 51.54 173.36 52.81 170.68 55.47 C 172.57 56.52 174.71 56.72 176.82 56.95 C 175.18 56.95 173.54 56.99 171.91 56.96 C 171.60 56.89 170.98 56.74 170.67 56.67 C 169.76 56.74 168.85 56.83 167.95 56.95 C 168.62 55.36 168.64 53.29 170.23 52.26 C 175.86 47.97 182.98 45.88 188.09 40.86 Z" />
<path fill="#c0666f" opacity="1.00" d=" M 182.24 65.12 C 184.54 64.66 186.86 64.33 189.19 64.03 C 184.16 67.17 178.33 68.65 172.77 70.56 C 170.58 71.23 168.35 71.94 166.50 73.36 C 164.67 75.04 160.17 76.13 159.27 73.21 C 162.07 70.90 165.70 70.13 169.13 69.23 C 173.57 68.10 177.93 66.69 182.24 65.12 Z" />
</g>
<g id="#dd8d8aff">
<path fill="#dd8d8a" opacity="1.00" d=" M 129.38 45.46 C 132.55 43.37 135.75 41.29 139.30 39.91 C 135.74 43.81 129.80 46.58 130.03 52.69 C 131.89 51.70 133.80 50.79 135.74 49.96 C 135.55 50.42 135.16 51.34 134.97 51.80 C 134.66 52.13 134.04 52.78 133.72 53.10 C 133.42 53.34 132.81 53.82 132.50 54.06 C 132.79 54.95 133.08 55.84 133.38 56.73 C 135.15 61.73 137.00 66.74 137.74 72.03 L 136.62 71.60 C 135.44 71.33 134.24 71.13 133.05 70.94 C 129.87 70.61 126.38 71.84 124.69 74.66 C 123.53 80.11 123.99 85.95 126.44 91.00 C 125.47 90.17 124.46 89.39 123.44 88.62 C 122.97 89.85 122.40 91.03 121.66 92.12 C 121.36 84.09 121.34 75.58 125.16 68.28 C 128.51 61.06 125.96 52.63 129.38 45.46 Z" />
</g>
<g id="#d78189ff">
<path fill="#d78189" opacity="1.00" d=" M 24.79 41.03 C 30.30 41.10 35.65 44.39 41.10 42.19 C 42.45 43.89 43.85 45.54 45.31 47.13 C 46.77 48.66 48.12 50.34 48.92 52.32 C 47.40 55.52 46.15 58.84 45.41 62.31 C 44.83 64.01 44.90 66.35 42.96 67.13 C 39.08 65.31 35.06 63.85 31.13 62.16 L 31.56 62.03 C 34.44 61.02 37.51 60.83 40.53 60.69 C 40.59 59.70 40.63 58.71 40.67 57.72 C 41.83 56.79 42.99 55.86 44.14 54.93 C 43.55 54.14 42.98 53.35 42.37 52.57 C 36.62 48.57 30.24 45.48 24.79 41.03 Z" />
</g>
<g id="#d4727aff">
<path fill="#d4727a" opacity="1.00" d=" M 175.25 46.99 C 179.39 44.68 183.66 42.57 188.09 40.86 C 182.98 45.88 175.86 47.97 170.23 52.26 C 168.64 53.29 168.62 55.36 167.95 56.95 C 166.42 59.90 161.20 62.54 163.78 66.22 C 169.78 68.71 176.07 65.06 182.24 65.12 C 177.93 66.69 173.57 68.10 169.13 69.23 C 165.70 70.13 162.07 70.90 159.27 73.21 C 160.17 76.13 164.67 75.04 166.50 73.36 C 166.89 73.80 167.67 74.69 168.06 75.13 C 166.89 75.72 165.73 76.31 164.57 76.92 C 167.24 80.95 171.90 85.60 177.15 83.25 C 177.03 83.91 176.79 85.22 176.68 85.88 C 169.74 85.55 163.12 83.05 156.14 82.89 L 155.80 82.68 C 158.02 79.96 154.44 78.39 152.77 76.86 C 153.05 72.84 150.17 69.71 148.83 66.14 C 147.07 61.47 142.42 58.86 138.19 56.77 C 136.66 55.87 134.95 56.18 133.38 56.73 C 133.08 55.84 132.79 54.95 132.50 54.06 C 132.81 53.82 133.42 53.34 133.72 53.10 C 138.17 52.74 142.54 51.24 147.04 52.08 C 151.96 52.34 156.94 56.16 161.80 53.82 C 166.23 51.43 171.10 49.90 175.25 46.99 Z" />
</g>
<g id="#db7e88ff">
<path fill="#db7e88" opacity="1.00" d=" M 134.97 51.80 C 138.86 49.78 143.21 48.76 147.35 47.31 C 151.93 48.68 156.76 47.40 161.41 48.42 C 166.10 49.57 170.64 47.56 175.25 46.99 C 171.10 49.90 166.23 51.43 161.80 53.82 C 156.94 56.16 151.96 52.34 147.04 52.08 C 142.54 51.24 138.17 52.74 133.72 53.10 C 134.04 52.78 134.66 52.13 134.97 51.80 Z" />
</g>
<g id="#de8e97ff">
<path fill="#de8e97" opacity="1.00" d=" M 42.37 52.57 C 42.98 53.35 43.55 54.14 44.14 54.93 C 42.99 55.86 41.83 56.79 40.67 57.72 C 40.63 58.71 40.59 59.70 40.53 60.69 C 37.51 60.83 34.44 61.02 31.56 62.03 C 29.49 61.23 27.48 60.29 25.49 59.31 C 26.84 58.41 27.54 56.82 28.92 55.99 C 31.33 55.33 33.83 55.03 36.27 54.50 C 34.23 54.25 32.18 54.02 30.12 53.97 C 34.20 53.48 38.33 53.37 42.37 52.57 Z" />
</g>
<g id="#ffe1ccff">
<path fill="#ffe1cc" opacity="1.00" d=" M 45.41 62.31 C 46.15 58.84 47.40 55.52 48.92 52.32 C 49.12 52.81 49.54 53.79 49.74 54.28 C 49.72 60.35 46.80 65.81 45.57 71.64 C 43.73 78.41 43.27 85.53 44.47 92.45 C 44.26 93.15 44.03 93.85 43.81 94.54 C 43.05 93.78 42.29 93.02 41.52 92.27 L 40.97 91.73 C 40.69 91.49 40.11 91.01 39.83 90.77 C 40.53 84.51 41.12 78.15 39.79 71.93 C 37.41 71.77 34.83 71.33 32.64 72.53 C 28.57 75.05 25.46 78.78 21.81 81.82 C 18.80 82.61 16.15 80.23 13.55 79.09 C 23.22 74.84 32.24 68.39 42.96 67.13 C 44.90 66.35 44.83 64.01 45.41 62.31 Z" />
</g>
<g id="#3d2b2e73">
<path fill="#3d2b2e" opacity="0.45" d=" M 23.53 54.47 C 25.09 54.40 26.65 54.33 28.21 54.25 C 26.75 54.52 25.30 54.83 23.84 55.13 C 23.80 55.88 23.72 57.37 23.68 58.11 C 22.80 57.02 23.35 55.70 23.53 54.47 Z" />
</g>
<g id="#e69ca2fb">
<path fill="#e69ca2" opacity="1.00" d=" M 28.21 54.25 C 28.69 54.18 29.64 54.04 30.12 53.97 C 32.18 54.02 34.23 54.25 36.27 54.50 C 33.83 55.03 31.33 55.33 28.92 55.99 C 27.54 56.82 26.84 58.41 25.49 59.31 C 25.04 59.01 24.14 58.41 23.68 58.11 C 23.72 57.37 23.80 55.88 23.84 55.13 C 25.30 54.83 26.75 54.52 28.21 54.25 Z" />
</g>
<g id="#d2646cff">
<path fill="#d2646c" opacity="1.00" d=" M 133.38 56.73 C 134.95 56.18 136.66 55.87 138.19 56.77 C 142.42 58.86 147.07 61.47 148.83 66.14 C 150.17 69.71 153.05 72.84 152.77 76.86 C 154.44 78.39 158.02 79.96 155.80 82.68 C 149.73 79.20 143.56 75.91 137.74 72.03 C 137.00 66.74 135.15 61.73 133.38 56.73 Z" />
</g>
<g id="#d98690ff">
<path fill="#d98690" opacity="1.00" d=" M 167.95 56.95 C 168.85 56.83 169.76 56.74 170.67 56.67 C 170.98 56.74 171.60 56.89 171.91 56.96 C 175.45 58.13 179.26 58.55 182.51 60.51 C 185.50 62.48 189.16 61.61 192.50 61.43 C 192.09 62.97 190.69 63.87 189.19 64.03 C 186.86 64.33 184.54 64.66 182.24 65.12 C 176.07 65.06 169.78 68.71 163.78 66.22 C 161.20 62.54 166.42 59.90 167.95 56.95 Z" />
</g>
<g id="#e899aaff">
<path fill="#e899aa" opacity="1.00" d=" M 171.91 56.96 C 173.54 56.99 175.18 56.95 176.82 56.95 C 177.42 57.04 178.62 57.23 179.22 57.32 C 180.93 58.02 182.77 58.26 184.61 58.08 C 187.42 58.55 191.86 57.92 192.81 61.41 L 192.50 61.43 C 189.16 61.61 185.50 62.48 182.51 60.51 C 179.26 58.55 175.45 58.13 171.91 56.96 Z" />
</g>
<g id="#5137398c">
<path fill="#513739" opacity="0.55" d=" M 179.22 57.32 C 180.57 56.21 184.31 56.03 184.61 58.08 C 182.77 58.26 180.93 58.02 179.22 57.32 Z" />
</g>
<g id="#49414fff">
<path fill="#49414f" opacity="1.00" d=" M 83.98 70.07 C 81.52 67.52 81.77 61.56 85.52 60.48 C 84.93 61.63 83.60 62.55 83.95 64.02 C 84.64 63.96 86.00 63.84 86.68 63.78 C 86.15 66.02 85.74 68.42 83.98 70.07 Z" />
</g>
<g id="#fedad3ff">
<path fill="#fedad3" opacity="1.00" d=" M 55.23 70.24 C 58.89 70.33 62.41 71.65 66.08 71.69 C 70.42 71.77 74.76 71.59 79.09 71.94 C 78.75 72.37 78.06 73.24 77.71 73.67 C 73.39 72.56 69.03 74.21 64.67 73.61 C 66.13 76.51 69.56 74.95 72.02 74.85 C 76.14 74.20 80.11 76.48 84.24 75.54 C 84.23 75.77 84.23 76.24 84.23 76.47 C 84.10 76.78 83.84 77.40 83.71 77.71 C 85.31 78.93 86.77 80.32 88.10 81.82 C 86.75 84.80 85.20 87.67 83.46 90.43 C 80.71 94.88 78.94 99.83 76.43 104.40 C 74.55 108.10 70.72 110.09 67.71 112.73 C 64.44 115.70 59.78 115.91 56.15 118.19 C 54.89 119.65 54.29 121.54 53.15 123.08 C 51.54 124.61 49.46 125.51 47.53 126.56 C 47.30 125.82 47.07 125.07 46.83 124.33 C 47.48 120.94 48.51 117.50 47.93 114.02 C 47.25 109.83 45.08 106.06 44.42 101.86 C 43.87 98.55 42.94 95.31 41.52 92.27 C 42.29 93.02 43.05 93.78 43.81 94.54 C 44.03 93.85 44.26 93.15 44.47 92.45 C 47.59 89.61 49.52 85.60 49.36 81.35 C 51.05 77.57 51.57 72.71 55.23 70.24 Z" />
</g>
<g id="#e5a7a3ff">
<path fill="#e5a7a3" opacity="1.00" d=" M 124.69 74.66 C 126.38 71.84 129.87 70.61 133.05 70.94 C 129.34 73.34 127.09 77.61 127.25 82.03 C 127.51 86.22 128.87 91.22 133.35 92.67 C 139.41 94.76 145.42 98.19 152.01 97.73 C 155.66 96.72 159.28 95.56 163.08 95.26 C 164.85 95.03 166.57 94.49 168.28 93.96 C 164.39 90.09 159.89 86.91 156.14 82.89 C 163.12 83.05 169.74 85.55 176.68 85.88 C 176.79 85.22 177.03 83.91 177.15 83.25 C 174.73 79.91 170.88 78.08 168.06 75.13 C 167.67 74.69 166.89 73.80 166.50 73.36 C 168.35 71.94 170.58 71.23 172.77 70.56 C 174.99 74.99 177.05 79.50 178.91 84.09 C 179.30 89.57 179.92 95.13 179.48 100.63 C 177.10 96.69 178.37 91.90 177.53 87.57 C 175.49 91.89 178.24 97.17 175.24 101.17 C 172.60 105.35 171.33 110.29 168.06 114.08 C 165.02 118.42 160.29 121.03 155.94 123.86 C 152.72 125.23 149.22 125.81 145.82 126.58 C 143.50 127.19 141.67 125.30 139.89 124.16 C 140.44 120.54 140.71 116.90 140.87 113.26 C 143.69 113.44 146.64 113.72 149.30 112.52 C 153.52 110.92 156.52 107.46 159.13 103.93 C 161.01 101.67 163.53 99.31 162.42 96.05 C 159.38 97.20 157.01 99.65 153.87 100.56 C 149.75 101.45 146.73 105.26 142.25 104.71 C 141.92 105.04 141.28 105.69 140.96 106.02 C 140.92 104.03 140.86 102.05 140.91 100.06 C 141.11 99.81 141.53 99.32 141.74 99.07 C 140.25 98.68 138.76 98.28 137.29 97.85 C 134.18 96.88 131.00 95.92 128.28 94.06 C 127.65 93.05 127.04 92.03 126.44 91.00 C 123.99 85.95 123.53 80.11 124.69 74.66 M 164.20 96.21 C 162.94 99.53 167.51 98.00 169.21 97.87 C 168.59 95.53 166.13 95.33 164.20 96.21 Z" />
</g>
<g id="#f8b9b3ff">
<path fill="#f8b9b3" opacity="1.00" d=" M 133.05 70.94 C 134.24 71.13 135.44 71.33 136.62 71.60 C 136.32 72.62 136.13 73.66 136.06 74.72 C 139.57 78.26 142.85 82.02 146.04 85.86 C 147.94 89.18 148.67 93.63 152.76 95.04 C 154.33 92.45 156.03 89.94 157.84 87.51 C 158.36 87.94 159.41 88.79 159.94 89.21 C 160.09 91.04 160.25 92.86 160.40 94.69 C 161.07 94.83 162.41 95.11 163.08 95.26 C 159.28 95.56 155.66 96.72 152.01 97.73 C 145.42 98.19 139.41 94.76 133.35 92.67 C 128.87 91.22 127.51 86.22 127.25 82.03 C 127.09 77.61 129.34 73.34 133.05 70.94 Z" />
</g>
<g id="#ffcac1ff">
<path fill="#ffcac1" opacity="1.00" d=" M 32.64 72.53 C 34.83 71.33 37.41 71.77 39.79 71.93 C 41.12 78.15 40.53 84.51 39.83 90.77 C 38.01 87.32 39.29 83.43 39.22 79.75 C 39.04 77.45 38.16 75.27 37.54 73.06 C 32.79 72.74 29.72 76.72 26.75 79.77 C 22.71 83.87 24.43 90.10 24.03 95.24 C 19.86 95.24 15.76 94.01 12.11 92.01 C 12.60 92.06 13.57 92.16 14.06 92.20 C 13.23 88.66 11.79 85.31 10.16 82.07 L 9.88 81.50 C 11.14 80.75 12.36 79.95 13.55 79.09 C 16.15 80.23 18.80 82.61 21.81 81.82 C 25.46 78.78 28.57 75.05 32.64 72.53 Z" />
</g>
<g id="#ffcfc3ff">
<path fill="#ffcfc3" opacity="1.00" d=" M 136.06 74.72 C 136.13 73.66 136.32 72.62 136.62 71.60 L 137.74 72.03 C 143.56 75.91 149.73 79.20 155.80 82.68 L 156.14 82.89 C 159.89 86.91 164.39 90.09 168.28 93.96 C 166.57 94.49 164.85 95.03 163.08 95.26 C 162.41 95.11 161.07 94.83 160.40 94.69 C 160.25 92.86 160.09 91.04 159.94 89.21 C 159.41 88.79 158.36 87.94 157.84 87.51 C 156.03 89.94 154.33 92.45 152.76 95.04 C 148.67 93.63 147.94 89.18 146.04 85.86 C 142.85 82.02 139.57 78.26 136.06 74.72 Z" />
</g>
<g id="#ffbeb6ff">
<path fill="#ffbeb6" opacity="1.00" d=" M 26.75 79.77 C 29.72 76.72 32.79 72.74 37.54 73.06 C 38.16 75.27 39.04 77.45 39.22 79.75 C 39.29 83.43 38.01 87.32 39.83 90.77 L 40.10 91.58 C 39.59 91.87 38.57 92.44 38.06 92.72 C 37.42 91.09 36.79 89.45 36.16 87.81 C 34.05 89.54 31.96 91.29 29.88 93.05 C 30.87 93.49 31.86 93.92 32.85 94.36 C 29.92 94.72 26.98 95.07 24.03 95.24 C 24.43 90.10 22.71 83.87 26.75 79.77 Z" />
</g>
<g id="#d98d98ff">
<path fill="#d98d98" opacity="1.00" d=" M 168.06 75.13 C 170.88 78.08 174.73 79.91 177.15 83.25 C 171.90 85.60 167.24 80.95 164.57 76.92 C 165.73 76.31 166.89 75.72 168.06 75.13 Z" />
</g>
<g id="#ffe7d9ff">
<path fill="#ffe7d9" opacity="1.00" d=" M 4.47 85.91 C 6.05 84.21 8.15 83.17 10.16 82.07 C 11.79 85.31 13.23 88.66 14.06 92.20 C 13.57 92.16 12.60 92.06 12.11 92.01 L 11.19 91.87 C 10.20 91.58 9.21 91.27 8.23 90.95 C 8.11 89.70 7.93 88.45 7.69 87.22 C 6.78 87.01 5.86 86.83 4.94 86.68 L 4.47 85.91 Z" />
<path fill="#ffe7d9" opacity="1.00" d=" M 62.23 158.23 C 63.35 158.16 64.48 158.11 65.60 158.08 C 65.68 158.74 65.84 160.07 65.92 160.74 C 65.62 160.80 65.03 160.92 64.74 160.98 C 64.02 160.91 62.58 160.78 61.87 160.72 L 61.99 159.81 C 62.05 159.41 62.17 158.62 62.23 158.23 Z" />
</g>
<g id="#807d72a6">
<path fill="#807d72" opacity="0.65" d=" M 4.09 85.30 L 4.47 85.91 L 4.94 86.68 C 5.86 86.83 6.78 87.01 7.69 87.22 C 7.93 88.45 8.11 89.70 8.23 90.95 C 9.21 91.27 10.20 91.58 11.19 91.87 C 9.87 91.60 8.56 91.32 7.25 91.01 C 8.93 87.74 3.30 88.11 4.09 85.30 Z" />
</g>
<g id="#eba8a3fe">
<path fill="#eba8a3" opacity="1.00" d=" M 29.88 93.05 C 31.96 91.29 34.05 89.54 36.16 87.81 C 36.79 89.45 37.42 91.09 38.06 92.72 L 38.13 92.89 C 36.37 93.37 34.61 93.87 32.85 94.36 C 31.86 93.92 30.87 93.49 29.88 93.05 Z" />
</g>
<g id="#d49493ff">
<path fill="#d49493" opacity="1.00" d=" M 123.44 88.62 C 124.46 89.39 125.47 90.17 126.44 91.00 C 127.04 92.03 127.65 93.05 128.28 94.06 C 127.19 93.39 126.09 92.74 124.97 92.11 C 124.62 95.79 126.62 98.98 127.56 102.40 C 127.56 108.59 125.56 114.81 121.74 119.73 C 115.40 129.30 105.24 135.41 94.89 139.82 C 112.02 142.80 129.55 130.78 134.49 114.43 C 136.28 109.07 136.39 103.38 137.29 97.85 C 138.76 98.28 140.25 98.68 141.74 99.07 C 141.53 99.32 141.11 99.81 140.91 100.06 C 140.65 100.36 140.15 100.97 139.89 101.27 C 139.51 106.81 139.43 112.45 137.68 117.78 C 135.60 125.17 131.78 131.88 129.12 139.04 C 130.77 141.13 131.83 143.56 132.40 146.16 C 131.75 147.44 130.92 148.61 130.12 149.80 C 129.54 147.81 129.16 145.72 128.19 143.87 C 122.89 139.53 114.55 139.18 108.82 142.79 C 114.37 143.32 120.88 142.38 125.20 146.74 C 122.73 151.34 119.51 155.46 116.58 159.77 C 117.46 160.50 118.33 161.24 119.20 161.98 C 117.66 162.17 116.12 162.38 114.59 162.63 C 113.05 161.58 111.41 160.68 109.71 159.89 C 114.36 157.60 116.23 152.31 119.58 148.63 C 118.13 145.51 113.61 145.88 110.67 145.35 C 106.93 144.65 102.73 148.59 99.59 145.34 C 100.29 144.61 101.00 143.89 101.70 143.17 C 93.19 143.32 84.75 141.42 76.84 138.36 C 83.71 135.37 91.61 135.17 98.08 131.17 C 103.81 128.09 108.72 123.61 112.34 118.21 C 115.55 114.02 116.60 108.74 119.12 104.17 C 121.31 100.47 120.05 95.97 121.66 92.12 C 122.40 91.03 122.97 89.85 123.44 88.62 Z" />
</g>
<g id="#d49290ff">
<path fill="#d49290" opacity="1.00" d=" M 175.24 101.17 C 178.24 97.17 175.49 91.89 177.53 87.57 C 178.37 91.90 177.10 96.69 179.48 100.63 C 177.53 105.61 176.85 111.23 173.40 115.49 C 170.95 118.67 169.26 122.60 165.69 124.73 C 162.64 126.75 159.84 129.15 156.71 131.04 C 153.94 132.08 150.94 132.21 148.07 132.85 C 145.21 133.30 142.30 134.36 139.41 133.48 C 138.62 133.93 137.83 134.37 137.04 134.82 C 138.15 131.31 139.49 127.85 139.89 124.16 C 141.67 125.30 143.50 127.19 145.82 126.58 C 149.22 125.81 152.72 125.23 155.94 123.86 C 160.29 121.03 165.02 118.42 168.06 114.08 C 171.33 110.29 172.60 105.35 175.24 101.17 Z" />
</g>
<g id="#39353162">
<path fill="#393531" opacity="0.38" d=" M 39.83 90.77 C 40.11 91.01 40.69 91.49 40.97 91.73 C 41.12 97.85 40.62 104.04 41.87 110.08 C 39.58 104.17 41.32 97.60 40.10 91.58 L 39.83 90.77 Z" />
</g>
<g id="#ffe7d8ff">
<path fill="#ffe7d8" opacity="1.00" d=" M 40.97 91.73 L 41.52 92.27 C 42.94 95.31 43.87 98.55 44.42 101.86 C 45.08 106.06 47.25 109.83 47.93 114.02 C 48.51 117.50 47.48 120.94 46.83 124.33 C 46.31 123.14 45.75 121.98 45.23 120.79 C 43.81 117.33 42.65 113.75 41.87 110.08 C 40.62 104.04 41.12 97.85 40.97 91.73 Z" />
</g>
<g id="#ca8585ff">
<path fill="#ca8585" opacity="1.00" d=" M 124.97 92.11 C 126.09 92.74 127.19 93.39 128.28 94.06 C 131.00 95.92 134.18 96.88 137.29 97.85 C 136.39 103.38 136.28 109.07 134.49 114.43 C 129.55 130.78 112.02 142.80 94.89 139.82 C 105.24 135.41 115.40 129.30 121.74 119.73 C 125.56 114.81 127.56 108.59 127.56 102.40 C 126.62 98.98 124.62 95.79 124.97 92.11 Z" />
</g>
<g id="#f8c7bfff">
<path fill="#f8c7bf" opacity="1.00" d=" M 164.20 96.21 C 166.13 95.33 168.59 95.53 169.21 97.87 C 167.51 98.00 162.94 99.53 164.20 96.21 Z" />
</g>
<g id="#d18b88ff">
<path fill="#d18b88" opacity="1.00" d=" M 153.87 100.56 C 157.01 99.65 159.38 97.20 162.42 96.05 C 163.53 99.31 161.01 101.67 159.13 103.93 C 159.03 103.19 158.82 101.71 158.72 100.97 C 156.29 102.40 154.13 104.20 151.96 105.99 C 148.91 108.54 144.80 109.27 141.72 111.77 C 144.23 112.16 146.76 112.43 149.30 112.52 C 146.64 113.72 143.69 113.44 140.87 113.26 C 140.97 110.85 141.00 108.43 140.96 106.02 C 141.28 105.69 141.92 105.04 142.25 104.71 C 146.73 105.26 149.75 101.45 153.87 100.56 Z" />
</g>
<g id="#f0b5b5ff">
<path fill="#f0b5b5" opacity="1.00" d=" M 139.89 101.27 C 140.15 100.97 140.65 100.36 140.91 100.06 C 140.86 102.05 140.92 104.03 140.96 106.02 C 141.00 108.43 140.97 110.85 140.87 113.26 C 140.71 116.90 140.44 120.54 139.89 124.16 C 139.49 127.85 138.15 131.31 137.04 134.82 C 136.33 138.91 134.20 142.49 132.40 146.16 C 131.83 143.56 130.77 141.13 129.12 139.04 C 131.78 131.88 135.60 125.17 137.68 117.78 C 139.43 112.45 139.51 106.81 139.89 101.27 Z" />
</g>
<g id="#bc706eff">
<path fill="#bc706e" opacity="1.00" d=" M 151.96 105.99 C 154.13 104.20 156.29 102.40 158.72 100.97 C 158.82 101.71 159.03 103.19 159.13 103.93 C 156.52 107.46 153.52 110.92 149.30 112.52 C 146.76 112.43 144.23 112.16 141.72 111.77 C 144.80 109.27 148.91 108.54 151.96 105.99 Z" />
</g>
<g id="#ffdbcfff">
<path fill="#ffdbcf" opacity="1.00" d=" M 50.37 138.14 C 50.74 137.88 51.48 137.34 51.85 137.07 C 55.94 140.44 56.08 146.00 56.08 150.86 C 55.66 150.67 54.83 150.28 54.41 150.09 C 51.77 146.82 50.99 142.21 50.37 138.14 Z" />
</g>
<g id="#eaa8a5ff">
<path fill="#eaa8a5" opacity="1.00" d=" M 67.10 137.89 C 71.03 137.39 74.13 140.47 77.84 141.16 C 83.27 142.31 88.71 143.42 94.17 144.36 C 91.89 144.60 89.61 144.84 87.35 145.24 C 87.23 145.64 86.98 146.44 86.85 146.84 C 85.07 150.71 86.17 156.93 81.85 158.99 C 81.43 158.99 80.58 159.00 80.16 159.00 C 83.86 156.66 84.43 151.99 84.90 148.01 C 83.97 145.79 81.18 145.60 79.19 144.85 C 75.23 143.60 71.20 142.51 67.05 142.14 C 68.47 143.77 69.92 145.37 71.36 146.97 C 70.15 150.39 68.42 154.12 70.47 157.59 C 69.25 157.71 68.04 157.91 66.83 158.07 C 63.56 154.34 65.63 149.47 66.57 145.27 C 64.82 143.96 63.04 142.65 61.63 140.96 C 63.59 139.00 66.50 140.74 68.87 140.81 C 68.30 139.82 67.71 138.85 67.10 137.89 Z" />
</g>
<g id="#c98787ff">
<path fill="#c98787" opacity="1.00" d=" M 108.82 142.79 C 114.55 139.18 122.89 139.53 128.19 143.87 C 129.16 145.72 129.54 147.81 130.12 149.80 L 130.20 150.12 C 127.62 154.84 125.41 161.33 119.20 161.98 C 118.33 161.24 117.46 160.50 116.58 159.77 C 119.51 155.46 122.73 151.34 125.20 146.74 C 120.88 142.38 114.37 143.32 108.82 142.79 Z" />
</g>
<g id="#d88c89ff">
<path fill="#d88c89" opacity="1.00" d=" M 67.05 142.14 C 71.20 142.51 75.23 143.60 79.19 144.85 C 78.49 144.92 77.09 145.05 76.39 145.12 C 78.95 148.57 76.38 152.35 75.73 155.95 C 76.02 157.85 78.08 158.81 79.21 160.22 C 76.11 160.02 73.32 158.68 70.47 157.59 C 68.42 154.12 70.15 150.39 71.36 146.97 C 69.92 145.37 68.47 143.77 67.05 142.14 Z" />
</g>
<g id="#c87171ff">
<path fill="#c87171" opacity="1.00" d=" M 76.39 145.12 C 77.09 145.05 78.49 144.92 79.19 144.85 C 81.18 145.60 83.97 145.79 84.90 148.01 C 84.43 151.99 83.86 156.66 80.16 159.00 C 80.58 159.00 81.43 158.99 81.85 158.99 C 80.97 159.40 80.09 159.81 79.21 160.22 C 78.08 158.81 76.02 157.85 75.73 155.95 C 76.38 152.35 78.95 148.57 76.39 145.12 Z" />
</g>
<g id="#efb4aeff">
<path fill="#efb4ae" opacity="1.00" d=" M 96.05 146.50 C 101.72 150.65 109.08 145.01 114.77 148.31 C 113.25 152.69 109.50 155.86 107.80 160.18 C 107.40 160.20 106.62 160.22 106.22 160.23 L 105.62 159.90 C 104.20 160.32 102.82 160.87 101.46 161.47 L 101.46 161.47 C 100.07 157.76 96.44 155.15 95.97 150.93 C 95.97 149.45 96.01 147.97 96.05 146.50 Z" />
</g>
<g id="#70585abb">
<path fill="#70585a" opacity="0.73" d=" M 61.26 158.09 C 62.19 157.83 63.13 157.57 64.06 157.32 C 64.58 157.52 65.60 157.94 66.11 158.14 L 66.83 158.07 C 68.04 157.91 69.25 157.71 70.47 157.59 C 73.32 158.68 76.11 160.02 79.21 160.22 C 74.21 161.31 69.08 161.77 63.99 161.23 L 64.74 160.98 C 65.03 160.92 65.62 160.80 65.92 160.74 C 65.84 160.07 65.68 158.74 65.60 158.08 C 64.48 158.11 63.35 158.16 62.23 158.23 C 62.17 158.62 62.05 159.41 61.99 159.81 C 61.80 159.38 61.44 158.52 61.26 158.09 M 66.41 161.03 C 69.08 161.04 71.74 160.95 74.40 160.71 C 72.48 158.32 66.13 156.43 66.41 161.03 Z" />
</g>
<g id="#f0c4caff">
<path fill="#f0c4ca" opacity="1.00" d=" M 66.41 161.03 C 66.13 156.43 72.48 158.32 74.40 160.71 C 71.74 160.95 69.08 161.04 66.41 161.03 Z" />
</g>
<g id="#edd1d5fc">
<path fill="#edd1d5" opacity="1.00" d=" M 101.46 161.47 C 102.82 160.87 104.20 160.32 105.62 159.90 L 106.22 160.23 C 106.43 161.30 106.49 162.39 106.40 163.49 C 104.46 163.40 102.81 162.73 101.46 161.47 Z" />
</g>
<g id="#ebc4cbff">
<path fill="#ebc4cb" opacity="1.00" d=" M 107.90 160.83 C 108.35 160.59 109.26 160.12 109.71 159.89 C 111.41 160.68 113.05 161.58 114.59 162.63 C 112.18 163.02 109.75 163.16 107.32 163.36 C 107.46 162.72 107.76 161.46 107.90 160.83 Z" />
</g>
</svg>
