<?xml version="1.0" encoding="UTF-8" ?>
<!DOCTYPE svg PUBLIC "-//W3C//DTD SVG 1.1//EN" "http://www.w3.org/Graphics/SVG/1.1/DTD/svg11.dtd">
<svg width="157pt" height="139pt" viewBox="0 0 157 139" version="1.1" xmlns="http://www.w3.org/2000/svg">
<g id="#241a0d53">
<path fill="#241a0d" opacity="0.33" d=" M 87.02 9.05 C 89.49 7.49 93.21 7.52 95.37 9.63 C 92.71 8.58 89.81 8.93 87.02 9.05 Z" />
</g>
<g id="#ee904eff">
<path fill="#ee904e" opacity="1.00" d=" M 52.67 15.94 C 55.91 9.33 64.68 6.18 71.10 10.24 L 71.59 11.11 C 69.90 11.29 68.15 11.18 66.51 11.69 C 64.50 12.97 62.96 14.97 60.73 15.91 C 58.80 16.44 56.78 16.52 54.80 16.71 C 54.26 17.54 53.72 18.38 53.18 19.22 C 53.05 18.40 52.80 16.76 52.67 15.94 Z" />
</g>
<g id="#f09f56f6">
<path fill="#f09f56" opacity="0.96" d=" M 84.30 10.32 C 84.98 10.00 86.34 9.37 87.02 9.05 C 89.81 8.93 92.71 8.58 95.37 9.63 C 95.86 9.94 96.83 10.56 97.31 10.87 C 92.99 10.31 88.62 10.84 84.30 10.32 Z" />
</g>
<g id="#a65f31ff">
<path fill="#a65f31" opacity="1.00" d=" M 71.10 10.24 C 73.74 11.34 74.53 14.34 75.34 16.81 C 74.75 16.73 73.56 16.57 72.96 16.49 C 70.12 23.07 70.42 30.36 69.21 37.31 C 68.90 37.50 68.29 37.88 67.98 38.07 C 67.13 38.61 66.29 39.17 65.43 39.69 C 64.89 39.88 63.82 40.27 63.29 40.46 C 63.39 38.32 63.37 36.08 62.23 34.18 C 61.63 35.30 61.04 36.44 60.46 37.57 C 60.19 37.25 59.64 36.62 59.37 36.30 C 58.97 37.66 58.57 39.03 58.17 40.39 C 55.53 40.66 52.74 41.00 50.34 39.59 C 47.19 37.51 43.48 39.19 40.01 38.81 C 36.85 38.28 34.05 39.96 31.60 41.74 C 35.88 41.62 40.22 41.03 44.36 42.48 C 48.10 42.59 51.89 42.67 55.33 44.39 C 55.61 46.47 55.99 48.54 56.48 50.59 C 53.52 55.06 47.28 54.46 43.85 58.37 C 43.24 58.11 42.64 57.84 42.04 57.57 C 41.92 58.23 41.69 59.57 41.57 60.23 C 40.37 55.63 39.94 50.89 39.61 46.15 C 38.28 46.33 36.95 46.42 35.62 46.42 C 34.27 50.53 35.09 54.80 35.93 58.91 C 35.27 59.75 34.61 60.60 33.95 61.44 C 32.98 59.44 31.60 57.68 30.33 55.85 C 29.92 54.78 29.56 53.68 29.25 52.57 C 28.98 48.56 27.25 44.92 26.35 41.05 C 27.26 40.48 28.18 39.92 29.09 39.35 C 31.73 37.79 34.29 36.06 37.13 34.91 C 40.16 34.32 43.28 34.33 46.35 34.36 C 49.80 34.39 52.83 37.74 56.35 36.23 C 58.95 34.63 58.47 30.99 59.36 28.42 C 60.80 28.11 62.26 27.88 63.66 27.42 C 66.33 24.99 67.13 21.27 68.38 18.03 C 69.15 15.58 71.10 13.66 71.59 11.11 L 71.10 10.24 Z" />
</g>
<g id="#ef904eff">
<path fill="#ef904e" opacity="1.00" d=" M 77.27 17.96 C 78.92 14.81 80.66 11.46 84.30 10.32 C 88.62 10.84 92.99 10.31 97.31 10.87 C 97.61 11.10 98.22 11.57 98.52 11.80 C 95.23 12.06 91.77 12.17 88.82 13.85 C 85.21 15.84 81.13 16.62 77.27 17.96 Z" />
</g>
<g id="#cb7942ff">
<path fill="#cb7942" opacity="1.00" d=" M 66.51 11.69 C 68.15 11.18 69.90 11.29 71.59 11.11 C 71.10 13.66 69.15 15.58 68.38 18.03 C 67.13 21.27 66.33 24.99 63.66 27.42 C 62.26 27.88 60.80 28.11 59.36 28.42 C 58.47 30.99 58.95 34.63 56.35 36.23 C 52.83 37.74 49.80 34.39 46.35 34.36 C 43.28 34.33 40.16 34.32 37.13 34.91 C 34.29 36.06 31.73 37.79 29.09 39.35 C 28.98 38.88 28.75 37.95 28.64 37.49 C 28.87 36.70 29.34 35.13 29.57 34.34 C 33.13 32.34 36.71 29.89 40.92 29.65 C 45.94 29.08 50.92 30.06 55.85 30.88 C 57.32 28.87 58.96 27.00 60.66 25.18 C 58.77 21.79 54.55 22.03 51.69 23.97 C 53.69 21.80 52.22 18.59 52.67 15.94 C 52.80 16.76 53.05 18.40 53.18 19.22 C 53.72 18.38 54.26 17.54 54.80 16.71 C 56.78 16.52 58.80 16.44 60.73 15.91 C 62.96 14.97 64.50 12.97 66.51 11.69 Z" />
</g>
<g id="#cf7a41ff">
<path fill="#cf7a41" opacity="1.00" d=" M 88.82 13.85 C 91.77 12.17 95.23 12.06 98.52 11.80 C 99.69 12.44 100.55 13.50 101.54 14.37 C 99.26 15.05 96.54 15.01 94.72 16.74 C 90.15 20.96 86.62 26.14 82.30 30.60 C 83.25 30.76 84.21 30.93 85.16 31.09 C 81.35 32.01 77.73 33.55 74.17 35.16 C 74.25 29.90 74.92 24.63 76.52 19.61 C 76.71 19.20 77.09 18.37 77.27 17.96 C 81.13 16.62 85.21 15.84 88.82 13.85 Z" />
</g>
<g id="#a05a2fff">
<path fill="#a05a2f" opacity="1.00" d=" M 94.72 16.74 C 96.54 15.01 99.26 15.05 101.54 14.37 C 102.50 15.84 103.96 17.13 104.21 18.96 C 104.44 21.39 104.17 23.83 103.81 26.23 C 103.07 23.91 102.49 21.31 100.06 20.18 C 94.83 23.01 91.98 28.50 89.48 33.63 C 89.17 33.14 88.56 32.15 88.25 31.66 C 87.22 31.44 86.19 31.25 85.16 31.09 C 84.21 30.93 83.25 30.76 82.30 30.60 C 86.62 26.14 90.15 20.96 94.72 16.74 Z" />
</g>
<g id="#854521ff">
<path fill="#854521" opacity="1.00" d=" M 72.96 16.49 C 73.56 16.57 74.75 16.73 75.34 16.81 C 75.73 17.74 76.12 18.68 76.52 19.61 C 74.92 24.63 74.25 29.90 74.17 35.16 C 72.51 35.87 70.84 36.53 69.21 37.31 C 70.42 30.36 70.12 23.07 72.96 16.49 Z" />
</g>
<g id="#693418ff">
<path fill="#693418" opacity="1.00" d=" M 104.21 18.96 C 104.94 21.61 105.11 24.52 104.06 27.11 C 102.85 28.24 101.58 29.30 100.36 30.42 C 99.42 29.79 98.47 29.16 97.53 28.53 C 97.55 27.34 97.56 26.15 97.57 24.96 C 94.55 29.17 92.62 34.03 90.65 38.79 C 90.03 40.05 90.09 41.47 90.58 42.78 C 87.76 47.83 84.52 52.64 81.25 57.41 C 78.67 60.83 76.02 64.24 74.10 68.10 C 90.53 63.60 99.88 46.51 116.30 41.97 C 112.42 45.49 107.87 48.46 104.89 52.84 C 105.06 53.33 105.40 54.31 105.58 54.81 C 99.98 57.66 94.48 60.71 88.89 63.58 C 86.35 64.92 83.88 66.39 81.49 67.98 C 79.93 69.02 78.39 70.11 76.86 71.18 C 75.01 69.74 72.96 68.51 70.68 67.88 C 73.73 64.70 76.96 61.39 78.22 57.04 C 76.14 58.28 74.08 59.57 72.04 60.88 C 72.13 60.34 72.31 59.26 72.39 58.72 C 79.03 55.68 83.02 49.10 85.56 42.55 C 86.31 40.66 86.23 38.61 86.26 36.62 C 83.27 39.19 81.00 42.45 78.60 45.54 C 76.14 48.90 73.48 52.52 73.45 56.88 C 72.46 56.90 71.48 56.91 70.50 56.93 C 68.57 55.44 66.22 55.13 63.87 55.35 C 64.72 54.14 65.55 52.92 66.41 51.71 C 69.10 48.88 71.70 45.95 74.40 43.13 C 78.66 38.90 83.21 34.94 88.25 31.66 C 88.56 32.15 89.17 33.14 89.48 33.63 C 91.98 28.50 94.83 23.01 100.06 20.18 C 102.49 21.31 103.07 23.91 103.81 26.23 C 104.17 23.83 104.44 21.39 104.21 18.96 Z" />
</g>
<g id="#e98b4cff">
<path fill="#e98b4c" opacity="1.00" d=" M 40.04 23.51 C 43.17 20.33 48.51 21.36 51.69 23.97 C 54.55 22.03 58.77 21.79 60.66 25.18 C 58.96 27.00 57.32 28.87 55.85 30.88 C 50.92 30.06 45.94 29.08 40.92 29.65 C 36.71 29.89 33.13 32.34 29.57 34.34 C 29.34 35.13 28.87 36.70 28.64 37.49 C 28.03 35.35 27.87 33.12 27.91 30.90 C 28.58 28.32 30.37 26.29 32.24 24.49 C 34.31 25.14 36.44 25.57 38.60 25.75 C 38.96 25.19 39.68 24.07 40.04 23.51 Z" />
</g>
<g id="#fcbe66ff">
<path fill="#fcbe66" opacity="1.00" d=" M 32.24 24.49 C 34.36 22.28 37.43 23.96 40.04 23.51 C 39.68 24.07 38.96 25.19 38.60 25.75 C 36.44 25.57 34.31 25.14 32.24 24.49 Z" />
</g>
<g id="#eb9853fa">
<path fill="#eb9853" opacity="0.98" d=" M 107.20 26.32 C 109.25 25.09 111.54 24.22 113.92 24.00 C 116.80 24.68 119.63 25.61 122.31 26.88 C 118.89 26.86 115.45 26.72 112.06 27.21 C 110.36 27.64 108.70 27.11 107.20 26.32 Z" />
</g>
<g id="#53220bff">
<path fill="#53220b" opacity="1.00" d=" M 90.65 38.79 C 92.62 34.03 94.55 29.17 97.57 24.96 C 97.56 26.15 97.55 27.34 97.53 28.53 C 98.47 29.16 99.42 29.79 100.36 30.42 C 98.17 32.45 96.24 34.74 94.43 37.11 C 93.04 38.92 91.76 40.82 90.58 42.78 C 90.09 41.47 90.03 40.05 90.65 38.79 Z" />
</g>
<g id="#d77f44ff">
<path fill="#d77f44" opacity="1.00" d=" M 107.13 26.28 L 107.20 26.32 C 108.70 27.11 110.36 27.64 112.06 27.21 C 115.45 26.72 118.89 26.86 122.31 26.88 C 124.55 27.23 125.24 30.10 126.61 31.64 C 124.85 31.16 123.07 30.21 121.20 30.51 C 112.64 32.27 103.99 34.65 96.98 40.11 C 96.15 39.09 95.30 38.09 94.43 37.11 C 96.24 34.74 98.17 32.45 100.36 30.42 C 101.58 29.30 102.85 28.24 104.06 27.11 C 104.82 26.90 106.36 26.49 107.13 26.28 Z" />
</g>
<g id="#b66836ff">
<path fill="#b66836" opacity="1.00" d=" M 96.98 40.11 C 103.99 34.65 112.64 32.27 121.20 30.51 C 123.07 30.21 124.85 31.16 126.61 31.64 C 127.29 32.94 128.03 34.20 128.80 35.44 C 124.34 35.39 119.67 34.61 115.45 36.52 C 104.66 40.88 95.19 47.94 86.45 55.52 C 85.00 56.80 83.29 57.94 81.25 57.41 C 84.52 52.64 87.76 47.83 90.58 42.78 C 91.76 40.82 93.04 38.92 94.43 37.11 C 95.30 38.09 96.15 39.09 96.98 40.11 Z" />
</g>
<g id="#b67a55ff">
<path fill="#b67a55" opacity="1.00" d=" M 27.31 37.13 C 27.38 35.04 27.60 32.96 27.91 30.90 C 27.87 33.12 28.03 35.35 28.64 37.49 C 28.75 37.95 28.98 38.88 29.09 39.35 C 28.18 39.92 27.26 40.48 26.35 41.05 C 27.25 44.92 28.98 48.56 29.25 52.57 C 27.49 53.51 25.75 54.46 24.02 55.44 C 22.57 53.70 21.07 52.00 19.79 50.14 C 20.98 45.13 21.22 39.97 21.92 34.88 C 23.71 35.63 25.54 36.32 27.31 37.13 Z" />
</g>
<g id="#d08b61ff">
<path fill="#d08b61" opacity="1.00" d=" M 85.16 31.09 C 86.19 31.25 87.22 31.44 88.25 31.66 C 83.21 34.94 78.66 38.90 74.40 43.13 C 72.89 42.80 71.38 42.51 69.87 42.23 C 69.25 40.84 68.62 39.45 67.98 38.07 C 68.29 37.88 68.90 37.50 69.21 37.31 C 70.84 36.53 72.51 35.87 74.17 35.16 C 77.73 33.55 81.35 32.01 85.16 31.09 Z" />
</g>
<g id="#d38d63fe">
<path fill="#d38d63" opacity="1.00" d=" M 12.10 32.34 C 15.49 32.66 18.74 33.69 21.92 34.88 C 21.22 39.97 20.98 45.13 19.79 50.14 C 19.63 49.81 19.30 49.14 19.14 48.81 L 18.83 47.80 C 17.36 43.29 14.02 39.38 12.93 34.84 C 15.96 34.66 14.43 32.20 12.15 33.03 L 12.10 32.34 Z" />
</g>
<g id="#ffcd91ff">
<path fill="#ffcd91" opacity="1.00" d=" M 12.15 33.03 C 14.43 32.20 15.96 34.66 12.93 34.84 C 12.73 34.39 12.34 33.48 12.15 33.03 Z" />
</g>
<g id="#6d371aff">
<path fill="#6d371a" opacity="1.00" d=" M 60.46 37.57 C 61.04 36.44 61.63 35.30 62.23 34.18 C 63.37 36.08 63.39 38.32 63.29 40.46 C 61.01 43.83 58.78 47.23 56.48 50.59 C 55.99 48.54 55.61 46.47 55.33 44.39 C 51.89 42.67 48.10 42.59 44.36 42.48 C 40.22 41.03 35.88 41.62 31.60 41.74 C 34.05 39.96 36.85 38.28 40.01 38.81 C 43.48 39.19 47.19 37.51 50.34 39.59 C 52.74 41.00 55.53 40.66 58.17 40.39 C 58.57 39.03 58.97 37.66 59.37 36.30 C 59.64 36.62 60.19 37.25 60.46 37.57 Z" />
</g>
<g id="#8f4d26ff">
<path fill="#8f4d26" opacity="1.00" d=" M 115.45 36.52 C 119.67 34.61 124.34 35.39 128.80 35.44 C 129.75 39.84 130.15 44.99 127.45 48.87 C 125.93 48.82 124.41 48.86 122.90 48.93 C 123.31 48.80 124.14 48.55 124.56 48.42 C 124.86 48.19 125.47 47.75 125.78 47.53 C 125.75 45.55 125.95 43.14 124.12 41.82 C 121.72 40.13 118.82 41.27 116.30 41.97 C 99.88 46.51 90.53 63.60 74.10 68.10 C 76.02 64.24 78.67 60.83 81.25 57.41 C 83.29 57.94 85.00 56.80 86.45 55.52 C 95.19 47.94 104.66 40.88 115.45 36.52 Z" />
</g>
<g id="#854c32ff">
<path fill="#854c32" opacity="1.00" d=" M 78.60 45.54 C 81.00 42.45 83.27 39.19 86.26 36.62 C 86.23 38.61 86.31 40.66 85.56 42.55 C 83.02 49.10 79.03 55.68 72.39 58.72 C 72.31 59.26 72.13 60.34 72.04 60.88 C 74.08 59.57 76.14 58.28 78.22 57.04 C 76.96 61.39 73.73 64.70 70.68 67.88 L 69.40 67.85 C 70.65 64.35 71.05 60.61 70.50 56.93 C 71.48 56.91 72.46 56.90 73.45 56.88 C 73.48 52.52 76.14 48.90 78.60 45.54 Z" />
</g>
<g id="#b77b58ff">
<path fill="#b77b58" opacity="1.00" d=" M 65.43 39.69 C 66.29 39.17 67.13 38.61 67.98 38.07 C 68.62 39.45 69.25 40.84 69.87 42.23 C 71.38 42.51 72.89 42.80 74.40 43.13 C 71.70 45.95 69.10 48.88 66.41 51.71 C 64.06 51.79 61.90 52.77 59.80 53.73 C 61.23 48.86 64.74 44.77 65.43 39.69 Z" />
</g>
<g id="#a16549ff">
<path fill="#a16549" opacity="1.00" d=" M 63.29 40.46 C 63.82 40.27 64.89 39.88 65.43 39.69 C 64.74 44.77 61.23 48.86 59.80 53.73 C 61.90 52.77 64.06 51.79 66.41 51.71 C 65.55 52.92 64.72 54.14 63.87 55.35 C 66.22 55.13 68.57 55.44 70.50 56.93 C 71.05 60.61 70.65 64.35 69.40 67.85 C 68.51 69.40 67.51 70.88 66.62 72.42 C 65.61 74.97 65.24 78.08 62.82 79.77 C 58.34 83.66 52.37 84.68 47.03 86.83 C 46.55 87.04 45.58 87.45 45.10 87.66 L 44.74 87.81 C 42.77 87.62 40.82 87.26 38.90 86.78 C 37.85 86.43 36.84 85.98 35.88 85.43 C 37.05 85.52 38.23 85.58 39.40 85.66 C 39.78 84.45 40.16 83.24 40.55 82.03 C 42.26 81.21 43.67 79.87 43.88 77.87 C 44.80 72.94 48.14 68.91 48.87 63.93 C 48.76 65.94 48.83 67.97 48.88 69.99 C 53.21 73.10 59.21 69.87 60.06 64.95 C 60.39 62.59 58.40 60.91 57.31 59.04 C 57.42 58.00 57.53 56.96 57.64 55.92 C 51.94 56.89 46.22 59.01 42.02 63.13 C 41.90 62.40 41.68 60.96 41.57 60.23 C 41.69 59.57 41.92 58.23 42.04 57.57 C 42.64 57.84 43.24 58.11 43.85 58.37 C 47.28 54.46 53.52 55.06 56.48 50.59 C 58.78 47.23 61.01 43.83 63.29 40.46 Z" />
</g>
<g id="#56240bff">
<path fill="#56240b" opacity="1.00" d=" M 116.30 41.97 C 118.82 41.27 121.72 40.13 124.12 41.82 C 125.95 43.14 125.75 45.55 125.78 47.53 C 125.47 47.75 124.86 48.19 124.56 48.42 C 124.20 46.80 124.47 44.94 123.52 43.51 C 121.94 42.28 119.89 42.98 118.09 43.07 C 118.31 45.67 119.70 47.84 121.96 49.13 C 119.36 49.64 116.80 50.35 114.29 51.22 C 111.63 52.05 109.05 53.13 106.54 54.34 L 105.58 54.81 C 105.40 54.31 105.06 53.33 104.89 52.84 C 107.87 48.46 112.42 45.49 116.30 41.97 Z" />
</g>
<g id="#6f3518ff">
<path fill="#6f3518" opacity="1.00" d=" M 118.09 43.07 C 119.89 42.98 121.94 42.28 123.52 43.51 C 124.47 44.94 124.20 46.80 124.56 48.42 C 124.14 48.55 123.31 48.80 122.90 48.93 L 121.96 49.13 C 119.70 47.84 118.31 45.67 118.09 43.07 Z" />
</g>
<g id="#c3723bff">
<path fill="#c3723b" opacity="1.00" d=" M 35.62 46.42 C 36.95 46.42 38.28 46.33 39.61 46.15 C 39.94 50.89 40.37 55.63 41.57 60.23 C 41.68 60.96 41.90 62.40 42.02 63.13 C 41.89 63.56 41.64 64.42 41.51 64.86 C 39.43 63.10 37.39 61.23 35.93 58.91 C 35.09 54.80 34.27 50.53 35.62 46.42 Z" />
</g>
<g id="#feb57fff">
<path fill="#feb57f" opacity="1.00" d=" M 12.89 54.90 C 13.50 51.66 16.26 49.53 18.83 47.80 L 19.14 48.81 C 17.66 50.43 15.77 51.76 14.78 53.76 C 13.19 57.66 13.68 61.96 13.48 66.07 C 13.36 65.65 13.12 64.80 13.00 64.38 C 12.86 61.22 12.58 58.05 12.89 54.90 Z" />
<path fill="#feb57f" opacity="1.00" d=" M 24.02 55.44 C 25.75 54.46 27.49 53.51 29.25 52.57 C 29.56 53.68 29.92 54.78 30.33 55.85 C 29.92 56.66 29.51 57.47 29.12 58.29 C 28.49 59.83 27.99 61.41 27.51 63.00 C 29.43 64.52 30.79 66.54 31.68 68.80 C 30.88 68.70 29.27 68.50 28.47 68.40 C 29.49 69.41 30.52 70.40 31.62 71.33 C 31.99 70.70 32.74 69.45 33.12 68.83 C 34.20 72.09 32.87 75.22 31.04 77.90 L 30.87 77.37 C 29.75 74.40 28.82 71.36 27.76 68.37 L 27.20 66.78 C 26.08 63.01 25.61 59.05 24.02 55.44 Z" />
</g>
<g id="#e2874aff">
<path fill="#e2874a" opacity="1.00" d=" M 122.90 48.93 C 124.41 48.86 125.93 48.82 127.45 48.87 C 130.45 49.07 133.84 49.24 136.11 51.48 C 136.38 51.83 136.92 52.53 137.19 52.88 C 134.71 52.54 132.54 53.76 130.25 54.42 C 126.98 54.31 123.15 54.18 120.85 51.53 C 118.66 51.57 116.47 51.44 114.29 51.22 C 116.80 50.35 119.36 49.64 121.96 49.13 L 122.90 48.93 Z" />
</g>
<g id="#e68a4bff">
<path fill="#e68a4b" opacity="1.00" d=" M 19.14 48.81 C 19.30 49.14 19.63 49.81 19.79 50.14 C 21.07 52.00 22.57 53.70 24.02 55.44 C 25.61 59.05 26.08 63.01 27.20 66.78 C 24.09 66.30 20.92 66.15 17.82 66.78 C 18.11 67.84 18.40 68.90 18.67 69.97 L 18.17 70.59 C 16.52 69.17 14.99 67.63 13.48 66.07 C 13.68 61.96 13.19 57.66 14.78 53.76 C 15.77 51.76 17.66 50.43 19.14 48.81 Z" />
</g>
<g id="#d07d45ff">
<path fill="#d07d45" opacity="1.00" d=" M 106.54 54.34 C 109.05 53.13 111.63 52.05 114.29 51.22 C 116.47 51.44 118.66 51.57 120.85 51.53 C 123.15 54.18 126.98 54.31 130.25 54.42 C 132.54 53.76 134.71 52.54 137.19 52.88 C 136.92 52.53 136.38 51.83 136.11 51.48 C 138.39 52.86 140.41 54.68 141.68 57.05 C 137.08 59.31 132.31 61.89 126.99 61.40 C 119.51 61.73 112.48 58.65 106.54 54.34 Z" />
</g>
<g id="#bc6e3cff">
<path fill="#bc6e3c" opacity="1.00" d=" M 105.58 54.81 L 106.54 54.34 C 112.48 58.65 119.51 61.73 126.99 61.40 C 132.31 61.89 137.08 59.31 141.68 57.05 C 142.92 59.75 142.90 62.83 142.86 65.75 C 142.39 66.86 141.89 67.95 141.39 69.04 C 141.24 68.46 140.96 67.28 140.81 66.70 C 132.91 69.62 123.97 67.61 116.17 71.07 C 114.11 72.98 113.20 75.87 111.04 77.74 C 110.83 77.68 110.41 77.56 110.20 77.50 C 111.38 76.19 112.43 74.77 113.19 73.17 C 110.04 72.82 106.77 72.62 103.96 70.99 C 100.60 68.89 96.46 70.31 92.87 69.20 C 91.44 67.40 90.24 65.44 88.89 63.58 C 94.48 60.71 99.98 57.66 105.58 54.81 Z" />
</g>
<g id="#4b321c82">
<path fill="#4b321c" opacity="0.51" d=" M 13.00 64.38 C 12.02 61.34 11.31 57.86 12.89 54.90 C 12.58 58.05 12.86 61.22 13.00 64.38 Z" />
</g>
<g id="#c98962ff">
<path fill="#c98962" opacity="1.00" d=" M 30.33 55.85 C 31.60 57.68 32.98 59.44 33.95 61.44 C 34.83 63.66 36.06 65.70 37.50 67.60 C 39.58 69.91 38.28 73.24 39.42 75.93 C 38.12 76.34 35.90 75.48 35.45 77.28 C 35.58 78.13 35.73 78.96 35.92 79.80 C 35.45 81.29 35.01 82.79 34.51 84.28 C 32.29 82.86 31.83 80.21 31.04 77.90 C 32.87 75.22 34.20 72.09 33.12 68.83 C 32.06 65.33 33.40 59.82 29.12 58.29 C 29.51 57.47 29.92 56.66 30.33 55.85 Z" />
</g>
<g id="#b27857ff">
<path fill="#b27857" opacity="1.00" d=" M 42.02 63.13 C 46.22 59.01 51.94 56.89 57.64 55.92 C 57.53 56.96 57.42 58.00 57.31 59.04 C 53.43 57.33 49.59 60.00 48.87 63.93 C 48.14 68.91 44.80 72.94 43.88 77.87 C 43.67 79.87 42.26 81.21 40.55 82.03 C 40.16 83.24 39.78 84.45 39.40 85.66 C 38.23 85.58 37.05 85.52 35.88 85.43 L 34.25 84.89 L 34.51 84.28 C 35.01 82.79 35.45 81.29 35.92 79.80 C 36.46 80.09 37.55 80.66 38.10 80.95 C 39.79 79.72 40.56 77.86 39.42 75.93 C 38.28 73.24 39.58 69.91 37.50 67.60 C 36.06 65.70 34.83 63.66 33.95 61.44 C 34.61 60.60 35.27 59.75 35.93 58.91 C 37.39 61.23 39.43 63.10 41.51 64.86 C 41.64 64.42 41.89 63.56 42.02 63.13 Z" />
</g>
<g id="#805f56ff">
<path fill="#805f56" opacity="1.00" d=" M 27.51 63.00 C 27.99 61.41 28.49 59.83 29.12 58.29 C 33.40 59.82 32.06 65.33 33.12 68.83 C 32.74 69.45 31.99 70.70 31.62 71.33 C 30.52 70.40 29.49 69.41 28.47 68.40 C 29.27 68.50 30.88 68.70 31.68 68.80 C 30.79 66.54 29.43 64.52 27.51 63.00 M 31.22 65.82 C 32.38 65.36 32.57 64.46 31.76 63.13 C 30.60 63.59 30.42 64.49 31.22 65.82 Z" />
</g>
<g id="#72524bff">
<path fill="#72524b" opacity="1.00" d=" M 48.87 63.93 C 49.59 60.00 53.43 57.33 57.31 59.04 C 58.40 60.91 60.39 62.59 60.06 64.95 C 59.21 69.87 53.21 73.10 48.88 69.99 C 48.83 67.97 48.76 65.94 48.87 63.93 M 50.53 63.20 C 49.35 64.00 49.90 67.42 51.61 66.06 C 52.71 65.25 52.24 61.86 50.53 63.20 M 52.36 67.40 C 52.21 68.37 52.42 70.39 53.92 69.74 C 56.34 68.87 58.62 66.72 57.83 63.94 C 55.63 64.28 53.37 65.28 52.36 67.40 Z" />
</g>
<g id="#e3d6d6ff">
<path fill="#e3d6d6" opacity="1.00" d=" M 31.22 65.82 C 30.42 64.49 30.60 63.59 31.76 63.13 C 32.57 64.46 32.38 65.36 31.22 65.82 Z" />
</g>
<g id="#ece9e7ff">
<path fill="#ece9e7" opacity="1.00" d=" M 50.53 63.20 C 52.24 61.86 52.71 65.25 51.61 66.06 C 49.90 67.42 49.35 64.00 50.53 63.20 Z" />
</g>
<g id="#8f796fff">
<path fill="#8f796f" opacity="1.00" d=" M 52.36 67.40 C 53.37 65.28 55.63 64.28 57.83 63.94 C 58.62 66.72 56.34 68.87 53.92 69.74 C 52.42 70.39 52.21 68.37 52.36 67.40 Z" />
</g>
<g id="#9e572cff">
<path fill="#9e572c" opacity="1.00" d=" M 81.49 67.98 C 83.88 66.39 86.35 64.92 88.89 63.58 C 90.24 65.44 91.44 67.40 92.87 69.20 C 96.46 70.31 100.60 68.89 103.96 70.99 C 106.77 72.62 110.04 72.82 113.19 73.17 C 112.43 74.77 111.38 76.19 110.20 77.50 C 108.58 76.84 106.95 76.22 105.27 75.73 C 99.29 74.35 93.08 75.13 87.00 74.65 C 88.28 74.24 89.56 73.83 90.84 73.43 C 87.21 72.61 84.01 70.69 81.49 67.98 Z" />
</g>
<g id="#b36334ff">
<path fill="#b36334" opacity="1.00" d=" M 17.82 66.78 C 20.92 66.15 24.09 66.30 27.20 66.78 L 27.76 68.37 C 24.61 68.98 20.86 66.66 18.67 69.97 C 18.40 68.90 18.11 67.84 17.82 66.78 Z" />
</g>
<g id="#ae6034ff">
<path fill="#ae6034" opacity="1.00" d=" M 116.17 71.07 C 123.97 67.61 132.91 69.62 140.81 66.70 C 140.96 67.28 141.24 68.46 141.39 69.04 C 141.89 67.95 142.39 66.86 142.86 65.75 C 143.31 69.56 140.54 72.62 138.59 75.59 C 135.63 78.51 131.45 79.75 127.51 80.73 C 121.96 81.96 115.39 81.93 111.04 77.74 C 113.20 75.87 114.11 72.98 116.17 71.07 Z" />
</g>
<g id="#d07b43ff">
<path fill="#d07b43" opacity="1.00" d=" M 18.67 69.97 C 20.86 66.66 24.61 68.98 27.76 68.37 C 28.82 71.36 29.75 74.40 30.87 77.37 C 26.26 75.95 21.96 73.56 18.17 70.59 L 18.67 69.97 Z" />
</g>
<g id="#d28c61ff">
<path fill="#d28c61" opacity="1.00" d=" M 66.62 72.42 C 67.51 70.88 68.51 69.40 69.40 67.85 L 70.68 67.88 C 72.96 68.51 75.01 69.74 76.86 71.18 L 77.55 71.75 C 77.63 73.54 77.73 75.33 77.83 77.12 C 73.76 76.72 69.87 74.84 66.62 72.42 Z" />
</g>
<g id="#7f411efe">
<path fill="#7f411e" opacity="1.00" d=" M 76.86 71.18 C 78.39 70.11 79.93 69.02 81.49 67.98 C 84.01 70.69 87.21 72.61 90.84 73.43 C 89.56 73.83 88.28 74.24 87.00 74.65 C 93.08 75.13 99.29 74.35 105.27 75.73 C 97.47 75.03 89.53 74.86 81.80 76.23 C 80.55 74.59 79.11 73.09 77.55 71.75 L 76.86 71.18 Z" />
</g>
<g id="#b27856ff">
<path fill="#b27856" opacity="1.00" d=" M 62.82 79.77 C 65.24 78.08 65.61 74.97 66.62 72.42 C 69.87 74.84 73.76 76.72 77.83 77.12 C 77.73 75.33 77.63 73.54 77.55 71.75 C 79.11 73.09 80.55 74.59 81.80 76.23 C 82.77 77.70 83.59 79.27 84.24 80.91 C 84.06 81.44 83.70 82.50 83.52 83.03 C 78.87 79.55 70.40 82.50 71.04 88.95 C 71.35 97.76 71.04 106.74 68.15 115.15 C 67.84 116.60 66.36 117.07 65.26 117.78 C 63.19 116.63 60.93 116.31 58.64 116.98 C 59.03 113.78 59.08 110.56 59.22 107.35 C 55.12 106.76 55.36 111.54 55.05 114.29 L 53.45 114.21 C 53.60 111.98 53.74 109.73 53.52 107.50 C 55.14 107.11 56.77 106.73 58.40 106.36 C 60.12 102.98 59.69 99.25 58.48 95.79 C 57.78 93.36 57.13 90.65 55.05 88.99 C 52.88 87.01 49.79 86.96 47.03 86.83 C 52.37 84.68 58.34 83.66 62.82 79.77 Z" />
</g>
<g id="#51362fff">
<path fill="#51362f" opacity="1.00" d=" M 35.45 77.28 C 35.90 75.48 38.12 76.34 39.42 75.93 C 40.56 77.86 39.79 79.72 38.10 80.95 C 37.55 80.66 36.46 80.09 35.92 79.80 C 35.73 78.96 35.58 78.13 35.45 77.28 Z" />
</g>
<g id="#9e6749ff">
<path fill="#9e6749" opacity="1.00" d=" M 71.04 88.95 C 70.40 82.50 78.87 79.55 83.52 83.03 C 83.70 82.50 84.06 81.44 84.24 80.91 C 86.70 88.23 87.13 96.62 84.79 104.00 L 84.26 103.96 C 84.11 103.59 83.80 102.84 83.65 102.46 C 81.27 105.81 77.09 106.55 73.72 108.48 C 72.21 111.76 71.72 115.40 70.38 118.76 L 69.19 118.67 C 67.87 118.43 66.56 118.13 65.26 117.78 C 66.36 117.07 67.84 116.60 68.15 115.15 C 71.04 106.74 71.35 97.76 71.04 88.95 Z" />
</g>
<g id="#cf8f66ff">
<path fill="#cf8f66" opacity="1.00" d=" M 38.90 86.78 C 40.82 87.26 42.77 87.62 44.74 87.81 C 43.22 91.39 43.21 95.34 43.87 99.11 C 42.97 100.25 41.32 101.29 41.72 102.98 C 42.02 107.05 43.16 111.01 43.21 115.11 C 41.49 118.98 41.80 123.23 41.49 127.34 C 40.98 122.79 41.81 118.13 40.19 113.73 C 39.24 104.80 36.98 95.75 38.90 86.78 Z" />
</g>
<g id="#cdc0a1ff">
<path fill="#cdc0a1" opacity="1.00" d=" M 45.10 87.66 C 45.58 87.45 46.55 87.04 47.03 86.83 C 49.79 86.96 52.88 87.01 55.05 88.99 C 57.13 90.65 57.78 93.36 58.48 95.79 C 58.40 97.28 58.49 99.09 57.09 100.05 C 54.03 102.03 50.30 102.39 46.80 103.05 C 46.09 102.39 45.40 101.71 44.73 101.02 C 49.00 100.88 54.03 98.48 54.67 93.85 C 50.78 93.05 46.74 91.65 45.10 87.66 Z" />
</g>
<g id="#ddceaaff">
<path fill="#ddceaa" opacity="1.00" d=" M 44.74 87.81 L 45.10 87.66 C 46.74 91.65 50.78 93.05 54.67 93.85 C 54.03 98.48 49.00 100.88 44.73 101.02 C 44.52 100.54 44.08 99.59 43.87 99.11 C 43.21 95.34 43.22 91.39 44.74 87.81 Z" />
</g>
<g id="#ac9679ff">
<path fill="#ac9679" opacity="1.00" d=" M 58.48 95.79 C 59.69 99.25 60.12 102.98 58.40 106.36 C 56.77 106.73 55.14 107.11 53.52 107.50 C 53.30 107.37 52.87 107.10 52.65 106.96 C 51.90 106.52 50.41 105.63 49.66 105.19 C 48.68 104.52 47.72 103.81 46.80 103.05 C 50.30 102.39 54.03 102.03 57.09 100.05 C 58.49 99.09 58.40 97.28 58.48 95.79 Z" />
</g>
<g id="#a06a4dff">
<path fill="#a06a4d" opacity="1.00" d=" M 41.72 102.98 C 41.32 101.29 42.97 100.25 43.87 99.11 C 44.08 99.59 44.52 100.54 44.73 101.02 C 45.40 101.71 46.09 102.39 46.80 103.05 C 47.72 103.81 48.68 104.52 49.66 105.19 C 47.86 108.65 50.11 112.53 49.51 116.22 C 49.10 116.53 48.30 117.14 47.90 117.45 C 46.34 116.66 44.77 115.88 43.21 115.11 C 43.16 111.01 42.02 107.05 41.72 102.98 Z" />
</g>
<g id="#87553eff">
<path fill="#87553e" opacity="1.00" d=" M 83.65 102.46 C 83.80 102.84 84.11 103.59 84.26 103.96 L 84.04 104.94 C 81.54 107.94 82.84 112.35 83.04 115.92 C 81.42 115.32 79.80 114.72 78.19 114.11 C 77.28 114.69 76.36 115.27 75.43 115.83 L 74.49 115.88 C 74.02 113.44 73.82 110.96 73.72 108.48 C 77.09 106.55 81.27 105.81 83.65 102.46 Z" />
</g>
<g id="#a16850ff">
<path fill="#a16850" opacity="1.00" d=" M 83.04 115.92 C 82.84 112.35 81.54 107.94 84.04 104.94 C 85.31 108.81 84.12 112.99 84.43 116.99 L 83.18 117.09 L 83.04 115.92 Z" />
</g>
<g id="#784129ff">
<path fill="#784129" opacity="1.00" d=" M 49.51 116.22 C 50.11 112.53 47.86 108.65 49.66 105.19 C 50.41 105.63 51.90 106.52 52.65 106.96 C 53.12 111.78 52.72 116.61 52.29 121.41 C 51.73 123.44 51.24 125.48 50.78 127.53 C 49.98 129.70 49.89 133.47 46.88 133.62 C 44.25 133.86 41.55 133.91 38.97 133.28 C 37.75 132.23 38.71 130.41 38.84 129.07 C 38.87 130.39 38.93 131.71 39.01 133.03 C 41.28 132.96 43.55 132.88 45.83 132.80 C 46.58 130.48 48.25 128.07 47.33 125.57 C 46.54 123.29 46.06 120.92 46.38 118.51 C 46.76 118.24 47.52 117.71 47.90 117.45 C 48.30 117.14 49.10 116.53 49.51 116.22 Z" />
</g>
<g id="#6f422eff">
<path fill="#6f422e" opacity="1.00" d=" M 55.05 114.29 C 55.36 111.54 55.12 106.76 59.22 107.35 C 59.08 110.56 59.03 113.78 58.64 116.98 C 58.40 118.47 58.09 119.95 57.80 121.43 C 55.55 119.70 54.60 117.09 55.05 114.29 Z" />
</g>
<g id="#945637ff">
<path fill="#945637" opacity="1.00" d=" M 40.19 113.73 C 41.81 118.13 40.98 122.79 41.49 127.34 C 41.80 123.23 41.49 118.98 43.21 115.11 C 44.77 115.88 46.34 116.66 47.90 117.45 C 47.52 117.71 46.76 118.24 46.38 118.51 C 46.06 120.92 46.54 123.29 47.33 125.57 C 48.25 128.07 46.58 130.48 45.83 132.80 C 43.55 132.88 41.28 132.96 39.01 133.03 C 38.93 131.71 38.87 130.39 38.84 129.07 C 42.45 124.64 39.86 118.85 40.19 113.73 Z" />
</g>
<g id="#884d2fff">
<path fill="#884d2f" opacity="1.00" d=" M 53.45 114.21 L 55.05 114.29 C 54.60 117.09 55.55 119.70 57.80 121.43 C 57.39 123.58 57.08 125.74 56.67 127.88 C 54.70 127.89 52.74 127.75 50.78 127.53 C 51.24 125.48 51.73 123.44 52.29 121.41 C 53.14 119.10 53.36 116.65 53.45 114.21 Z" />
</g>
<g id="#6b3924ff">
<path fill="#6b3924" opacity="1.00" d=" M 75.43 115.83 C 76.36 115.27 77.28 114.69 78.19 114.11 C 79.80 114.72 81.42 115.32 83.04 115.92 L 83.18 117.09 C 82.98 118.27 82.76 119.45 82.55 120.62 C 80.65 120.16 78.76 119.70 76.86 119.23 C 76.40 118.09 75.92 116.96 75.43 115.83 Z" />
</g>
<g id="#985839ff">
<path fill="#985839" opacity="1.00" d=" M 58.64 116.98 C 60.93 116.31 63.19 116.63 65.26 117.78 C 66.56 118.13 67.87 118.43 69.19 118.67 C 68.45 118.84 66.97 119.18 66.24 119.35 C 65.06 122.75 65.32 126.36 64.93 129.87 C 64.62 133.98 59.32 132.48 56.55 133.20 C 55.16 131.78 56.64 129.58 56.67 127.88 C 57.08 125.74 57.39 123.58 57.80 121.43 C 58.09 119.95 58.40 118.47 58.64 116.98 Z" />
</g>
<g id="#874c2fff">
<path fill="#874c2f" opacity="1.00" d=" M 74.49 115.88 L 75.43 115.83 C 75.92 116.96 76.40 118.09 76.86 119.23 C 78.76 119.70 80.65 120.16 82.55 120.62 C 82.76 119.45 82.98 118.27 83.18 117.09 L 84.43 116.99 C 84.38 120.42 84.60 123.99 83.18 127.20 C 79.99 127.09 76.49 127.84 73.49 126.69 C 71.65 122.92 76.25 119.80 74.49 115.88 Z" />
</g>
<g id="#854a30fd">
<path fill="#854a30" opacity="1.00" d=" M 66.24 119.35 C 66.97 119.18 68.45 118.84 69.19 118.67 L 70.38 118.76 C 68.44 123.38 67.67 128.38 65.99 133.05 C 63.01 134.19 59.64 133.61 56.55 133.20 C 59.32 132.48 64.62 133.98 64.93 129.87 C 65.32 126.36 65.06 122.75 66.24 119.35 Z" />
</g>
</svg>
