<?xml version="1.0" encoding="UTF-8" ?>
<!DOCTYPE svg PUBLIC "-//W3C//DTD SVG 1.1//EN" "http://www.w3.org/Graphics/SVG/1.1/DTD/svg11.dtd">
<svg width="196pt" height="191pt" viewBox="0 0 196 191" version="1.1" xmlns="http://www.w3.org/2000/svg">
<g id="#fefa85ff">
<path fill="#fefa85" opacity="1.00" d=" M 82.02 7.21 C 84.66 6.71 87.41 5.06 90.10 6.16 C 90.78 6.97 91.64 7.30 92.67 7.14 C 94.72 6.91 96.68 7.75 98.66 8.16 C 93.69 10.36 88.25 9.94 83.06 8.99 C 78.51 8.08 75.14 13.29 70.62 11.38 C 73.80 8.63 78.19 8.50 82.02 7.21 Z" />
</g>
<g id="#74743ea7">
<path fill="#74743e" opacity="0.65" d=" M 90.10 6.16 C 91.65 5.17 92.51 5.49 92.67 7.14 C 91.64 7.30 90.78 6.97 90.10 6.16 Z" />
</g>
<g id="#feec70ff">
<path fill="#feec70" opacity="1.00" d=" M 98.66 8.16 C 100.70 8.52 102.69 9.14 104.51 10.16 C 101.69 12.11 98.19 11.81 94.96 12.29 C 92.54 12.90 90.36 14.19 88.04 15.08 C 89.31 13.75 90.61 12.46 91.92 11.16 C 88.07 11.77 83.70 11.82 80.79 14.79 C 76.99 18.65 71.46 20.91 69.07 26.03 C 66.65 30.93 63.92 35.69 61.79 40.72 C 60.29 46.67 59.45 52.79 58.66 58.87 C 58.11 62.48 59.93 65.86 60.26 69.41 C 57.87 66.92 57.10 63.45 55.57 60.45 C 52.36 54.15 53.17 46.87 51.52 40.15 C 50.88 41.76 50.12 43.31 49.26 44.81 C 47.04 43.70 44.70 42.89 42.36 42.06 C 38.52 39.90 34.52 38.04 30.70 35.84 C 34.59 33.13 38.85 30.16 43.86 30.71 C 46.29 27.27 48.08 23.17 51.30 20.42 C 55.76 18.79 60.08 16.64 64.73 15.63 C 66.41 13.93 68.32 12.51 70.40 11.34 L 70.62 11.38 C 75.14 13.29 78.51 8.08 83.06 8.99 C 88.25 9.94 93.69 10.36 98.66 8.16 Z" />
</g>
<g id="#eed666ff">
<path fill="#eed666" opacity="1.00" d=" M 104.51 10.16 L 104.74 10.04 C 106.20 10.83 107.66 11.60 109.12 12.37 C 109.25 12.69 109.52 13.33 109.66 13.65 C 103.59 14.21 97.62 15.47 91.64 16.56 C 88.07 17.04 85.66 19.89 82.94 21.94 C 79.87 24.45 76.19 26.49 74.24 30.09 C 72.22 33.82 70.39 37.65 68.37 41.38 C 65.74 45.91 67.45 51.27 67.14 56.19 C 65.78 60.13 67.44 64.09 68.01 68.00 C 68.72 72.83 70.39 77.45 71.61 82.16 C 68.16 81.27 64.52 80.70 61.03 81.73 C 61.19 81.41 61.51 80.77 61.67 80.46 C 54.69 81.13 49.48 74.78 42.63 75.40 C 40.06 74.38 37.98 72.56 37.04 69.92 C 40.80 71.29 44.33 74.44 48.55 73.65 C 48.31 72.61 48.03 71.58 47.72 70.56 C 49.25 70.85 50.76 71.17 52.28 71.51 C 50.84 69.01 49.34 66.55 47.86 64.08 C 50.77 66.21 53.14 68.98 56.07 71.09 C 56.86 65.02 52.88 59.88 52.11 54.04 C 51.48 51.13 51.71 47.79 49.66 45.39 C 49.56 45.24 49.36 44.96 49.26 44.81 C 50.12 43.31 50.88 41.76 51.52 40.15 C 53.17 46.87 52.36 54.15 55.57 60.45 C 57.10 63.45 57.87 66.92 60.26 69.41 C 59.93 65.86 58.11 62.48 58.66 58.87 C 59.45 52.79 60.29 46.67 61.79 40.72 C 63.92 35.69 66.65 30.93 69.07 26.03 C 71.46 20.91 76.99 18.65 80.79 14.79 C 83.70 11.82 88.07 11.77 91.92 11.16 C 90.61 12.46 89.31 13.75 88.04 15.08 C 90.36 14.19 92.54 12.90 94.96 12.29 C 98.19 11.81 101.69 12.11 104.51 10.16 Z" />
</g>
<g id="#ffff88ff">
<path fill="#ffff88" opacity="1.00" d=" M 109.12 12.37 C 112.79 14.76 117.56 14.84 121.40 17.12 C 113.81 18.11 106.24 14.92 98.67 16.41 C 91.77 17.28 86.51 22.23 80.83 25.77 C 76.11 28.65 74.19 34.05 71.61 38.65 C 70.41 41.05 68.77 43.31 68.15 45.97 C 67.78 49.37 68.06 52.85 67.14 56.19 C 67.45 51.27 65.74 45.91 68.37 41.38 C 70.39 37.65 72.22 33.82 74.24 30.09 C 76.19 26.49 79.87 24.45 82.94 21.94 C 85.66 19.89 88.07 17.04 91.64 16.56 C 97.62 15.47 103.59 14.21 109.66 13.65 C 109.52 13.33 109.25 12.69 109.12 12.37 Z" />
</g>
<g id="#fde96fff">
<path fill="#fde96f" opacity="1.00" d=" M 98.67 16.41 C 106.24 14.92 113.81 18.11 121.40 17.12 C 124.62 17.35 127.42 19.24 129.57 21.56 C 128.64 22.23 127.71 22.90 126.78 23.58 C 121.51 23.96 116.38 22.41 111.16 22.28 C 105.82 23.84 100.08 24.99 95.60 28.52 C 91.93 31.22 87.16 32.59 84.61 36.63 C 81.14 41.85 75.70 46.15 74.51 52.59 C 73.85 56.51 71.81 60.19 71.98 64.24 C 74.03 58.62 77.64 53.80 80.69 48.71 C 82.75 45.35 86.34 43.51 89.46 41.30 C 93.48 38.63 97.03 34.94 101.93 33.91 C 107.00 32.81 111.85 30.45 117.07 30.15 C 125.00 30.87 133.29 31.38 140.40 35.32 C 142.85 36.75 145.52 37.75 147.97 39.19 C 148.72 39.82 149.47 40.46 150.21 41.11 C 147.16 41.36 144.10 41.68 141.03 41.72 C 137.23 41.87 133.76 40.00 130.02 39.65 C 125.80 39.26 121.56 40.15 117.62 41.65 C 111.46 44.03 104.80 45.42 99.36 49.37 C 95.52 52.23 91.04 54.20 87.47 57.42 C 83.17 62.19 78.75 66.96 75.56 72.59 C 73.60 75.93 72.82 80.01 73.82 83.80 C 75.05 79.65 77.02 75.80 79.92 72.58 C 82.36 69.80 85.00 67.17 88.14 65.17 C 91.78 62.87 94.95 59.88 98.76 57.85 C 108.00 53.43 118.30 52.32 128.32 51.03 C 131.00 50.84 133.69 50.73 136.38 50.73 C 141.39 52.65 146.66 53.92 151.47 56.35 C 149.01 59.43 145.28 57.07 142.17 56.66 C 137.69 55.40 133.48 57.96 129.37 59.34 C 124.30 61.56 118.57 61.87 113.71 64.63 C 108.87 67.40 102.88 67.06 98.19 70.15 C 91.70 74.24 84.29 76.68 77.97 81.03 C 76.03 82.13 75.63 84.35 75.19 86.33 C 79.39 86.90 82.80 83.84 86.66 82.75 C 94.32 80.34 101.73 76.59 109.89 76.20 C 117.13 75.83 124.66 73.57 131.73 76.18 C 136.25 77.90 141.26 78.74 145.09 81.89 C 148.82 84.85 152.37 88.03 155.93 91.20 C 151.09 92.57 149.05 85.22 144.19 86.32 C 139.16 87.06 134.07 87.43 129.00 86.85 C 124.43 85.87 120.53 89.41 115.99 89.00 C 110.27 88.54 104.67 90.15 98.98 89.93 C 92.36 88.90 85.63 89.19 78.99 88.24 C 76.11 87.71 73.82 90.05 71.07 90.31 C 68.01 89.95 64.92 89.06 61.84 89.88 C 58.05 90.82 54.17 90.21 50.43 89.37 C 50.45 89.87 50.49 90.86 50.51 91.36 C 47.53 89.12 45.43 85.99 43.83 82.67 C 47.96 82.83 52.19 84.82 56.25 83.27 C 57.85 82.78 59.43 82.21 61.03 81.73 C 64.52 80.70 68.16 81.27 71.61 82.16 C 70.39 77.45 68.72 72.83 68.01 68.00 C 67.44 64.09 65.78 60.13 67.14 56.19 C 68.06 52.85 67.78 49.37 68.15 45.97 C 68.77 43.31 70.41 41.05 71.61 38.65 C 74.19 34.05 76.11 28.65 80.83 25.77 C 86.51 22.23 91.77 17.28 98.67 16.41 Z" />
</g>
<g id="#edd567ff">
<path fill="#edd567" opacity="1.00" d=" M 25.21 21.94 C 26.45 20.74 28.08 20.05 29.54 19.16 C 28.62 21.00 27.73 22.86 26.62 24.58 C 24.30 27.14 24.13 30.59 23.60 33.82 C 21.11 40.41 16.71 46.01 13.18 52.04 C 12.63 50.97 11.43 49.68 12.46 48.49 C 14.90 44.59 16.70 40.29 19.62 36.71 C 20.92 35.33 20.80 33.34 21.16 31.61 C 22.48 28.37 23.74 25.11 25.21 21.94 Z" />
</g>
<g id="#fef685ff">
<path fill="#fef685" opacity="1.00" d=" M 11.34 37.91 C 13.32 30.82 18.98 25.49 25.21 21.94 C 23.74 25.11 22.48 28.37 21.16 31.61 C 18.10 34.21 16.09 37.71 14.14 41.16 C 13.21 40.08 12.27 38.99 11.34 37.91 Z" />
</g>
<g id="#dfbe5aff">
<path fill="#dfbe5a" opacity="1.00" d=" M 95.60 28.52 C 100.08 24.99 105.82 23.84 111.16 22.28 C 116.38 22.41 121.51 23.96 126.78 23.58 C 127.71 22.90 128.64 22.23 129.57 21.56 C 133.97 25.48 138.41 29.59 140.40 35.32 C 133.29 31.38 125.00 30.87 117.07 30.15 C 111.85 30.45 107.00 32.81 101.93 33.91 C 97.03 34.94 93.48 38.63 89.46 41.30 C 86.34 43.51 82.75 45.35 80.69 48.71 C 77.64 53.80 74.03 58.62 71.98 64.24 C 71.81 60.19 73.85 56.51 74.51 52.59 C 75.70 46.15 81.14 41.85 84.61 36.63 C 87.16 32.59 91.93 31.22 95.60 28.52 Z" />
</g>
<g id="#dab758ff">
<path fill="#dab758" opacity="1.00" d=" M 23.60 33.82 C 24.13 30.59 24.30 27.14 26.62 24.58 C 26.45 25.92 26.00 27.29 26.31 28.65 C 28.80 31.66 33.23 29.88 36.55 29.76 C 34.50 31.77 32.18 33.48 30.19 35.56 C 30.32 35.63 30.57 35.77 30.70 35.84 C 34.52 38.04 38.52 39.90 42.36 42.06 C 39.43 41.56 36.45 41.44 33.47 41.40 C 33.53 42.65 33.59 43.89 33.67 45.14 C 31.36 44.10 28.82 44.14 26.38 44.65 C 26.22 43.96 25.90 42.59 25.73 41.91 C 22.13 45.21 19.13 49.12 16.39 53.16 C 15.31 52.82 14.23 52.45 13.18 52.04 C 16.71 46.01 21.11 40.41 23.60 33.82 Z" />
</g>
<g id="#ffe56aff">
<path fill="#ffe56a" opacity="1.00" d=" M 26.31 28.65 C 30.11 28.64 33.97 28.00 37.72 28.98 L 36.55 29.76 C 33.23 29.88 28.80 31.66 26.31 28.65 Z" />
</g>
<g id="#fbe971ff">
<path fill="#fbe971" opacity="1.00" d=" M 14.14 41.16 C 16.09 37.71 18.10 34.21 21.16 31.61 C 20.80 33.34 20.92 35.33 19.62 36.71 C 16.70 40.29 14.90 44.59 12.46 48.49 C 11.43 49.68 12.63 50.97 13.18 52.04 C 14.23 52.45 15.31 52.82 16.39 53.16 C 17.93 53.18 19.46 53.16 21.00 53.11 C 21.98 53.99 22.96 54.86 23.95 55.74 C 22.63 57.81 21.28 59.86 19.99 61.96 C 19.71 62.46 19.14 63.45 18.85 63.95 C 17.92 65.28 18.24 66.59 19.30 67.70 C 16.18 69.74 13.39 72.27 10.95 75.08 C 10.80 77.45 13.81 76.41 15.28 76.98 C 17.97 78.25 20.63 79.58 23.41 80.65 C 26.59 81.66 28.23 84.81 30.61 86.93 C 31.27 86.02 31.93 85.11 32.59 84.20 C 33.46 85.22 34.33 86.25 35.18 87.29 C 34.64 87.35 33.55 87.48 33.00 87.54 C 32.89 89.14 32.79 90.75 32.70 92.35 C 31.94 92.36 31.18 92.37 30.42 92.39 C 30.08 94.01 29.73 95.64 29.39 97.27 C 28.47 97.44 27.55 97.62 26.63 97.79 C 25.51 101.01 23.78 103.93 21.72 106.63 C 19.73 110.10 18.22 113.88 15.43 116.85 C 15.74 117.99 16.05 119.12 16.36 120.26 C 15.89 119.95 14.97 119.31 14.51 119.00 C 12.50 115.83 10.59 112.59 8.71 109.34 C 8.67 108.58 8.60 107.05 8.57 106.29 L 7.53 106.61 C 4.69 96.32 10.01 86.17 10.37 75.93 C 9.75 75.65 8.51 75.10 7.89 74.82 C 7.64 73.91 7.40 73.00 7.17 72.09 C 8.10 70.09 7.92 67.94 7.39 65.86 C 7.42 61.91 8.63 57.87 7.41 53.98 C 6.12 50.01 5.47 45.87 4.25 41.89 C 6.27 43.13 8.27 44.43 10.18 45.84 C 10.20 43.16 10.68 40.51 11.34 37.91 C 12.27 38.99 13.21 40.08 14.14 41.16 M 9.45 70.47 C 7.99 71.41 7.92 72.52 9.23 73.82 C 10.43 74.14 12.19 73.42 11.94 71.94 C 12.45 70.50 10.31 70.66 9.45 70.47 Z" />
</g>
<g id="#e1c15dff">
<path fill="#e1c15d" opacity="1.00" d=" M 147.97 39.19 C 149.57 39.81 151.13 40.52 152.68 41.27 C 153.63 43.02 154.60 44.77 155.56 46.52 C 151.51 46.46 146.56 44.75 143.80 48.79 C 141.22 48.98 138.51 49.07 136.38 50.73 C 133.69 50.73 131.00 50.84 128.32 51.03 C 126.16 49.67 123.96 47.00 121.13 48.05 C 116.23 49.39 111.16 50.04 106.28 51.42 C 102.32 53.34 98.67 55.84 94.58 57.50 C 90.18 59.17 87.97 63.62 84.27 66.26 C 82.11 67.81 80.41 69.90 79.92 72.58 C 77.02 75.80 75.05 79.65 73.82 83.80 C 72.82 80.01 73.60 75.93 75.56 72.59 C 78.75 66.96 83.17 62.19 87.47 57.42 C 91.04 54.20 95.52 52.23 99.36 49.37 C 104.80 45.42 111.46 44.03 117.62 41.65 C 121.56 40.15 125.80 39.26 130.02 39.65 C 133.76 40.00 137.23 41.87 141.03 41.72 C 144.10 41.68 147.16 41.36 150.21 41.11 C 149.47 40.46 148.72 39.82 147.97 39.19 Z" />
</g>
<g id="#cba14bff">
<path fill="#cba14b" opacity="1.00" d=" M 33.47 41.40 C 36.45 41.44 39.43 41.56 42.36 42.06 C 44.70 42.89 47.04 43.70 49.26 44.81 C 49.36 44.96 49.56 45.24 49.66 45.39 C 46.14 46.13 42.63 47.34 39.00 47.24 C 37.14 46.77 35.43 45.88 33.67 45.14 C 33.59 43.89 33.53 42.65 33.47 41.40 Z" />
</g>
<g id="#c99c47ff">
<path fill="#c99c47" opacity="1.00" d=" M 16.39 53.16 C 19.13 49.12 22.13 45.21 25.73 41.91 C 25.90 42.59 26.22 43.96 26.38 44.65 C 25.84 45.73 25.29 46.82 24.73 47.90 C 23.45 49.61 22.23 51.36 21.00 53.11 C 19.46 53.16 17.93 53.18 16.39 53.16 Z" />
</g>
<g id="#fae76eff">
<path fill="#fae76e" opacity="1.00" d=" M 26.38 44.65 C 28.82 44.14 31.36 44.10 33.67 45.14 C 35.43 45.88 37.14 46.77 39.00 47.24 C 42.63 47.34 46.14 46.13 49.66 45.39 C 51.71 47.79 51.48 51.13 52.11 54.04 C 52.88 59.88 56.86 65.02 56.07 71.09 C 53.14 68.98 50.77 66.21 47.86 64.08 C 49.34 66.55 50.84 69.01 52.28 71.51 C 50.76 71.17 49.25 70.85 47.72 70.56 C 44.04 64.99 40.85 59.10 37.04 53.60 C 37.28 53.25 37.76 52.54 37.99 52.19 C 39.56 51.70 40.91 50.78 42.19 49.79 C 37.43 48.59 32.72 47.12 28.34 44.85 C 27.96 45.21 27.21 45.91 26.83 46.26 C 26.30 46.67 25.25 47.49 24.73 47.90 C 25.29 46.82 25.84 45.73 26.38 44.65 Z" />
</g>
<g id="#cea24bff">
<path fill="#cea24b" opacity="1.00" d=" M 28.34 44.85 C 32.72 47.12 37.43 48.59 42.19 49.79 C 40.91 50.78 39.56 51.70 37.99 52.19 C 35.16 52.71 32.31 53.10 29.46 53.57 C 28.79 54.81 28.12 56.06 27.44 57.30 C 25.85 53.73 28.54 49.86 26.83 46.26 C 27.21 45.91 27.96 45.21 28.34 44.85 Z" />
</g>
<g id="#d5af51ff">
<path fill="#d5af51" opacity="1.00" d=" M 143.80 48.79 C 146.56 44.75 151.51 46.46 155.56 46.52 C 159.64 53.10 162.45 60.49 162.73 68.30 C 162.35 67.28 161.97 66.26 161.57 65.25 C 161.41 65.84 161.08 67.02 160.91 67.61 C 157.25 64.30 154.86 59.90 151.47 56.35 C 146.66 53.92 141.39 52.65 136.38 50.73 C 138.51 49.07 141.22 48.98 143.80 48.79 Z" />
</g>
<g id="#e3c65dff">
<path fill="#e3c65d" opacity="1.00" d=" M 24.73 47.90 C 25.25 47.49 26.30 46.67 26.83 46.26 C 28.54 49.86 25.85 53.73 27.44 57.30 C 28.12 56.06 28.79 54.81 29.46 53.57 C 32.31 53.10 35.16 52.71 37.99 52.19 C 37.76 52.54 37.28 53.25 37.04 53.60 C 34.72 54.06 32.04 53.76 30.02 55.14 C 29.90 56.62 30.17 58.10 30.25 59.57 C 30.11 62.43 29.01 65.61 30.79 68.19 C 33.09 71.50 35.26 75.08 38.39 77.65 C 42.62 79.02 47.04 79.72 51.30 80.99 C 48.74 78.65 45.73 76.90 42.63 75.40 C 49.48 74.78 54.69 81.13 61.67 80.46 C 61.51 80.77 61.19 81.41 61.03 81.73 C 59.43 82.21 57.85 82.78 56.25 83.27 C 52.19 84.82 47.96 82.83 43.83 82.67 C 45.43 85.99 47.53 89.12 50.51 91.36 C 55.15 94.87 61.00 95.74 66.60 96.46 C 70.72 96.68 73.21 101.89 71.14 105.34 C 69.89 107.60 68.32 109.68 67.21 112.02 C 67.69 108.50 68.17 101.70 63.00 101.94 C 60.11 101.58 57.00 102.09 54.33 100.70 C 52.13 99.62 50.10 98.24 48.04 96.94 C 40.70 110.91 39.05 126.83 36.03 142.09 C 35.39 145.58 34.19 149.04 34.43 152.64 C 34.64 156.11 34.97 159.58 35.06 163.07 L 35.08 163.58 C 31.94 165.61 32.13 169.63 30.05 172.28 C 29.48 172.37 28.33 172.55 27.76 172.64 C 29.83 162.80 31.81 152.93 33.06 142.94 C 34.93 134.40 34.30 125.66 34.40 117.00 C 34.58 114.61 32.69 112.93 31.46 111.12 C 30.89 112.99 30.34 114.87 29.70 116.71 C 29.22 116.73 28.27 116.75 27.79 116.76 C 27.37 116.71 26.54 116.61 26.13 116.56 C 25.26 119.54 24.12 122.64 24.60 125.79 C 26.76 129.09 29.17 132.33 29.91 136.31 C 29.88 139.93 29.20 143.48 28.56 147.03 C 27.56 141.03 26.29 134.88 23.22 129.56 C 23.17 130.15 23.09 131.34 23.05 131.93 C 21.10 127.06 17.58 123.16 14.51 119.00 C 14.97 119.31 15.89 119.95 16.36 120.26 C 16.05 119.12 15.74 117.99 15.43 116.85 C 18.22 113.88 19.73 110.10 21.72 106.63 C 23.78 103.93 25.51 101.01 26.63 97.79 C 27.55 97.62 28.47 97.44 29.39 97.27 C 29.73 95.64 30.08 94.01 30.42 92.39 C 31.18 92.37 31.94 92.36 32.70 92.35 C 32.79 90.75 32.89 89.14 33.00 87.54 C 33.55 87.48 34.64 87.35 35.18 87.29 C 34.33 86.25 33.46 85.22 32.59 84.20 C 31.93 85.11 31.27 86.02 30.61 86.93 C 28.23 84.81 26.59 81.66 23.41 80.65 C 20.63 79.58 17.97 78.25 15.28 76.98 C 18.27 74.03 21.85 71.57 26.11 70.98 C 24.36 72.83 22.48 74.55 20.67 76.34 C 24.33 75.64 28.88 75.34 31.18 71.99 C 30.36 70.52 28.63 70.13 27.25 69.38 C 28.51 66.31 29.32 63.03 28.83 59.69 C 27.37 60.70 26.01 61.85 24.62 62.96 C 24.34 63.16 23.79 63.54 23.52 63.73 C 23.71 62.89 24.08 61.22 24.27 60.38 C 22.83 60.88 21.40 61.38 19.99 61.96 C 21.28 59.86 22.63 57.81 23.95 55.74 C 22.96 54.86 21.98 53.99 21.00 53.11 C 22.23 51.36 23.45 49.61 24.73 47.90 Z" />
</g>
<g id="#cca14aff">
<path fill="#cca14a" opacity="1.00" d=" M 106.28 51.42 C 111.16 50.04 116.23 49.39 121.13 48.05 C 123.96 47.00 126.16 49.67 128.32 51.03 C 118.30 52.32 108.00 53.43 98.76 57.85 C 94.95 59.88 91.78 62.87 88.14 65.17 C 85.00 67.17 82.36 69.80 79.92 72.58 C 80.41 69.90 82.11 67.81 84.27 66.26 C 87.97 63.62 90.18 59.17 94.58 57.50 C 98.67 55.84 102.32 53.34 106.28 51.42 Z" />
</g>
<g id="#cb9f49ff">
<path fill="#cb9f49" opacity="1.00" d=" M 30.02 55.14 C 32.04 53.76 34.72 54.06 37.04 53.60 C 40.85 59.10 44.04 64.99 47.72 70.56 C 48.03 71.58 48.31 72.61 48.55 73.65 C 42.29 69.17 36.23 64.43 30.25 59.57 C 30.17 58.10 29.90 56.62 30.02 55.14 Z" />
</g>
<g id="#ebd165ff">
<path fill="#ebd165" opacity="1.00" d=" M 129.37 59.34 C 133.48 57.96 137.69 55.40 142.17 56.66 C 145.28 57.07 149.01 59.43 151.47 56.35 C 154.86 59.90 157.25 64.30 160.91 67.61 C 161.08 67.02 161.41 65.84 161.57 65.25 C 161.97 66.26 162.35 67.28 162.73 68.30 C 163.17 70.29 164.02 72.13 164.93 73.94 C 165.17 80.63 167.31 87.57 164.59 94.03 L 164.59 94.03 C 164.18 88.09 164.43 82.13 163.93 76.19 C 162.96 70.50 158.36 64.69 152.46 63.80 C 152.54 65.00 152.62 66.21 152.70 67.41 C 148.13 67.94 143.86 70.28 139.17 69.74 C 140.30 68.77 141.43 67.80 142.56 66.83 C 140.86 66.16 139.11 65.25 137.23 65.60 C 130.08 66.71 123.06 68.53 115.89 69.57 C 109.10 70.73 102.11 71.71 95.90 74.87 C 88.68 78.00 80.89 80.66 75.19 86.33 C 75.63 84.35 76.03 82.13 77.97 81.03 C 84.29 76.68 91.70 74.24 98.19 70.15 C 102.88 67.06 108.87 67.40 113.71 64.63 C 118.57 61.87 124.30 61.56 129.37 59.34 Z" />
</g>
<g id="#c89e48ff">
<path fill="#c89e48" opacity="1.00" d=" M 24.62 62.96 C 26.01 61.85 27.37 60.70 28.83 59.69 C 29.32 63.03 28.51 66.31 27.25 69.38 C 28.63 70.13 30.36 70.52 31.18 71.99 C 28.88 75.34 24.33 75.64 20.67 76.34 C 22.48 74.55 24.36 72.83 26.11 70.98 C 21.85 71.57 18.27 74.03 15.28 76.98 C 13.81 76.41 10.80 77.45 10.95 75.08 C 13.39 72.27 16.18 69.74 19.30 67.70 C 18.24 66.59 17.92 65.28 18.85 63.95 C 18.78 64.59 18.64 65.88 18.56 66.52 C 20.32 65.79 21.98 64.84 23.52 63.73 C 23.79 63.54 24.34 63.16 24.62 62.96 Z" />
</g>
<g id="#fbe66dff">
<path fill="#fbe66d" opacity="1.00" d=" M 30.79 68.19 C 29.01 65.61 30.11 62.43 30.25 59.57 C 36.23 64.43 42.29 69.17 48.55 73.65 C 44.33 74.44 40.80 71.29 37.04 69.92 C 37.98 72.56 40.06 74.38 42.63 75.40 C 45.73 76.90 48.74 78.65 51.30 80.99 C 47.04 79.72 42.62 79.02 38.39 77.65 C 35.26 75.08 33.09 71.50 30.79 68.19 Z" />
</g>
<g id="#8c4d26ff">
<path fill="#8c4d26" opacity="1.00" d=" M 19.99 61.96 C 21.40 61.38 22.83 60.88 24.27 60.38 C 24.08 61.22 23.71 62.89 23.52 63.73 C 21.98 64.84 20.32 65.79 18.56 66.52 C 18.64 65.88 18.78 64.59 18.85 63.95 C 19.14 63.45 19.71 62.46 19.99 61.96 Z" />
</g>
<g id="#dab756ff">
<path fill="#dab756" opacity="1.00" d=" M 152.46 63.80 C 158.36 64.69 162.96 70.50 163.93 76.19 C 162.85 74.91 161.78 73.63 160.71 72.34 C 159.02 73.22 157.34 74.10 155.67 74.99 C 156.81 77.61 158.36 80.13 158.82 82.99 C 159.16 86.64 158.81 90.32 159.04 93.99 C 158.04 93.02 156.98 92.11 155.93 91.20 C 152.37 88.03 148.82 84.85 145.09 81.89 C 141.26 78.74 136.25 77.90 131.73 76.18 C 124.66 73.57 117.13 75.83 109.89 76.20 C 101.73 76.59 94.32 80.34 86.66 82.75 C 82.80 83.84 79.39 86.90 75.19 86.33 C 80.89 80.66 88.68 78.00 95.90 74.87 C 102.11 71.71 109.10 70.73 115.89 69.57 C 123.06 68.53 130.08 66.71 137.23 65.60 C 139.11 65.25 140.86 66.16 142.56 66.83 C 141.43 67.80 140.30 68.77 139.17 69.74 C 143.86 70.28 148.13 67.94 152.70 67.41 C 152.62 66.21 152.54 65.00 152.46 63.80 Z" />
</g>
<g id="#827842ff">
<path fill="#827842" opacity="1.00" d=" M 9.45 70.47 C 10.31 70.66 12.45 70.50 11.94 71.94 C 12.19 73.42 10.43 74.14 9.23 73.82 C 7.92 72.52 7.99 71.41 9.45 70.47 Z" />
</g>
<g id="#cfa64cff">
<path fill="#cfa64c" opacity="1.00" d=" M 155.67 74.99 C 157.34 74.10 159.02 73.22 160.71 72.34 C 161.78 73.63 162.85 74.91 163.93 76.19 C 164.43 82.13 164.18 88.09 164.59 94.03 C 164.28 97.28 163.39 100.46 163.58 103.75 C 162.34 100.70 160.86 97.77 159.26 94.90 L 159.04 93.99 C 158.81 90.32 159.16 86.64 158.82 82.99 C 158.36 80.13 156.81 77.61 155.67 74.99 Z" />
</g>
<g id="#efd667ff">
<path fill="#efd667" opacity="1.00" d=" M 115.99 89.00 C 120.53 89.41 124.43 85.87 129.00 86.85 C 134.07 87.43 139.16 87.06 144.19 86.32 C 149.05 85.22 151.09 92.57 155.93 91.20 C 156.98 92.11 158.04 93.02 159.04 93.99 L 159.26 94.90 C 159.23 95.55 159.18 96.86 159.15 97.51 C 157.29 97.66 154.30 96.23 153.51 98.63 C 153.21 101.43 154.29 104.17 154.78 106.90 C 152.05 105.51 149.17 104.46 146.15 103.94 C 147.11 105.46 148.10 106.95 149.11 108.43 C 148.08 108.36 147.06 108.28 146.03 108.21 C 146.76 110.03 147.48 111.85 148.22 113.66 C 149.38 113.56 150.54 113.46 151.70 113.36 C 153.73 115.28 156.14 117.04 157.31 119.66 C 158.04 122.88 158.19 126.23 159.33 129.35 C 158.73 130.79 158.20 132.25 157.65 133.70 C 156.64 134.03 155.63 134.36 154.63 134.69 C 154.51 133.52 154.38 132.36 154.26 131.20 C 153.00 133.21 151.74 135.23 150.36 137.16 C 150.21 133.76 150.03 130.35 149.79 126.96 C 149.26 128.06 148.73 129.16 148.20 130.25 C 148.49 125.84 149.75 120.86 147.02 116.92 C 144.56 113.32 142.23 109.56 138.99 106.59 C 138.61 111.43 138.57 116.29 138.75 121.14 C 137.90 117.78 136.16 114.76 134.18 111.95 C 134.39 113.46 134.61 114.98 134.84 116.50 C 134.33 116.45 133.30 116.35 132.79 116.30 C 133.68 118.93 134.68 121.53 135.78 124.08 C 134.29 123.18 132.78 122.29 131.28 121.41 C 131.13 121.83 130.84 122.67 130.70 123.08 C 129.64 122.32 128.63 121.46 127.89 120.37 C 127.36 119.42 126.88 118.44 126.35 117.49 C 127.73 115.27 128.13 112.68 128.29 110.11 C 129.06 111.35 129.86 112.59 130.66 113.82 C 130.83 113.20 131.16 111.95 131.33 111.33 C 131.76 111.78 132.18 112.22 132.61 112.67 C 132.90 109.35 133.64 106.09 134.80 102.97 C 136.53 104.21 138.32 105.35 140.25 106.25 C 140.37 105.76 140.59 104.78 140.71 104.29 C 141.78 104.46 142.85 104.62 143.92 104.79 C 141.73 102.41 139.95 99.57 137.31 97.65 C 131.12 95.74 124.52 95.78 118.18 94.58 C 109.13 92.79 99.88 92.43 90.69 92.26 C 94.39 93.48 98.22 94.22 102.07 94.83 L 101.76 95.92 C 101.38 96.06 100.62 96.34 100.24 96.48 C 102.50 98.74 104.54 101.21 106.27 103.90 C 105.06 103.74 103.85 103.59 102.65 103.43 C 102.46 104.09 102.09 105.42 101.91 106.08 C 100.49 105.29 99.07 104.50 97.70 103.66 C 96.80 103.08 95.92 102.47 95.04 101.87 C 94.33 102.53 93.61 103.20 92.90 103.87 C 91.01 102.50 89.00 101.26 87.34 99.61 C 85.82 97.65 85.43 95.10 84.62 92.82 C 81.19 94.38 80.63 98.44 79.41 101.59 C 77.79 105.90 77.21 110.48 76.98 115.05 C 76.95 119.63 72.68 123.21 73.92 127.93 C 69.78 123.69 69.46 117.54 67.02 112.44 L 67.21 112.02 C 68.32 109.68 69.89 107.60 71.14 105.34 C 73.21 101.89 70.72 96.68 66.60 96.46 C 61.00 95.74 55.15 94.87 50.51 91.36 C 50.49 90.86 50.45 89.87 50.43 89.37 C 54.17 90.21 58.05 90.82 61.84 89.88 C 64.92 89.06 68.01 89.95 71.07 90.31 C 73.82 90.05 76.11 87.71 78.99 88.24 C 85.63 89.19 92.36 88.90 98.98 89.93 C 104.67 90.15 110.27 88.54 115.99 89.00 Z" />
</g>
<g id="#debd59ff">
<path fill="#debd59" opacity="1.00" d=" M 90.69 92.26 C 99.88 92.43 109.13 92.79 118.18 94.58 C 124.52 95.78 131.12 95.74 137.31 97.65 C 139.95 99.57 141.73 102.41 143.92 104.79 C 142.85 104.62 141.78 104.46 140.71 104.29 C 140.59 104.78 140.37 105.76 140.25 106.25 C 138.32 105.35 136.53 104.21 134.80 102.97 C 129.83 100.70 124.23 100.57 119.09 98.81 C 113.56 96.94 107.89 95.47 102.07 94.83 C 98.22 94.22 94.39 93.48 90.69 92.26 Z" />
</g>
<g id="#ddbc58ff">
<path fill="#ddbc58" opacity="1.00" d=" M 79.41 101.59 C 80.63 98.44 81.19 94.38 84.62 92.82 C 85.43 95.10 85.82 97.65 87.34 99.61 C 89.00 101.26 91.01 102.50 92.90 103.87 C 93.61 103.20 94.33 102.53 95.04 101.87 C 95.92 102.47 96.80 103.08 97.70 103.66 C 96.40 105.10 94.83 106.23 93.17 107.22 L 93.02 107.32 C 90.86 106.12 88.80 104.76 87.06 103.01 C 88.04 108.66 86.28 114.66 88.28 120.09 C 87.92 120.43 87.19 121.10 86.82 121.43 C 85.20 115.69 86.24 109.67 85.51 103.82 C 83.57 111.86 82.76 120.54 77.60 127.36 C 77.50 128.46 77.42 129.57 77.31 130.67 C 76.18 129.76 75.06 128.83 73.92 127.93 C 72.68 123.21 76.95 119.63 76.98 115.05 C 77.21 110.48 77.79 105.90 79.41 101.59 Z" />
</g>
<g id="#f4de6aff">
<path fill="#f4de6a" opacity="1.00" d=" M 102.07 94.83 C 107.89 95.47 113.56 96.94 119.09 98.81 C 124.23 100.57 129.83 100.70 134.80 102.97 C 133.64 106.09 132.90 109.35 132.61 112.67 C 132.18 112.22 131.76 111.78 131.33 111.33 C 131.16 111.95 130.83 113.20 130.66 113.82 C 129.86 112.59 129.06 111.35 128.29 110.11 C 128.13 112.68 127.73 115.27 126.35 117.49 C 123.04 113.36 119.93 109.06 117.77 104.21 C 117.41 104.61 116.69 105.41 116.33 105.81 C 115.09 104.38 113.83 102.99 112.49 101.67 C 112.69 102.83 112.90 103.98 113.12 105.14 C 112.23 104.52 111.35 103.91 110.46 103.29 C 110.15 103.88 109.54 105.05 109.23 105.64 C 107.12 102.12 104.54 98.93 101.76 95.92 L 102.07 94.83 Z" />
</g>
<g id="#e2c45cff">
<path fill="#e2c45c" opacity="1.00" d=" M 159.26 94.90 C 160.86 97.77 162.34 100.70 163.58 103.75 C 164.27 105.24 165.05 106.70 166.04 108.02 C 165.59 114.74 166.80 121.63 165.05 128.22 C 164.70 129.44 164.31 130.64 163.84 131.82 C 163.02 132.93 162.14 134.00 161.28 135.08 C 161.54 131.99 161.72 128.89 161.72 125.78 C 160.90 126.96 160.08 128.13 159.33 129.35 C 158.19 126.23 158.04 122.88 157.31 119.66 C 156.14 117.04 153.73 115.28 151.70 113.36 C 150.54 113.46 149.38 113.56 148.22 113.66 C 147.48 111.85 146.76 110.03 146.03 108.21 C 147.06 108.28 148.08 108.36 149.11 108.43 C 148.10 106.95 147.11 105.46 146.15 103.94 C 149.17 104.46 152.05 105.51 154.78 106.90 C 154.29 104.17 153.21 101.43 153.51 98.63 C 154.30 96.23 157.29 97.66 159.15 97.51 C 159.18 96.86 159.23 95.55 159.26 94.90 Z" />
</g>
<g id="#e6a431ff">
<path fill="#e6a431" opacity="1.00" d=" M 100.24 96.48 C 100.62 96.34 101.38 96.06 101.76 95.92 C 104.54 98.93 107.12 102.12 109.23 105.64 C 112.04 110.07 117.05 112.23 120.62 115.92 C 115.22 117.14 110.17 114.64 105.10 113.22 C 100.77 112.01 97.02 109.44 93.17 107.22 C 94.83 106.23 96.40 105.10 97.70 103.66 C 99.07 104.50 100.49 105.29 101.91 106.08 C 102.09 105.42 102.46 104.09 102.65 103.43 C 103.85 103.59 105.06 103.74 106.27 103.90 C 104.54 101.21 102.50 98.74 100.24 96.48 Z" />
</g>
<g id="#cca24bff">
<path fill="#cca24b" opacity="1.00" d=" M 36.03 142.09 C 39.05 126.83 40.70 110.91 48.04 96.94 C 50.10 98.24 52.13 99.62 54.33 100.70 C 57.00 102.09 60.11 101.58 63.00 101.94 C 68.17 101.70 67.69 108.50 67.21 112.02 L 67.02 112.44 C 66.33 114.22 65.04 115.64 63.80 117.05 C 64.01 117.37 64.41 118.02 64.61 118.34 C 63.03 119.34 60.73 120.03 60.33 122.12 C 59.99 124.64 59.64 127.72 61.71 129.62 L 59.74 128.78 C 61.41 131.55 63.39 134.59 62.10 137.94 C 61.92 136.18 61.67 134.42 61.41 132.66 C 61.28 134.58 61.17 136.50 61.08 138.42 C 57.72 133.62 52.17 130.99 49.00 126.04 C 51.71 122.59 54.96 119.56 57.31 115.83 C 59.82 114.97 62.20 113.74 64.33 112.15 C 58.56 113.09 53.14 115.47 47.34 116.32 C 47.66 112.22 47.75 108.11 47.64 104.01 C 46.88 108.30 45.95 112.56 44.63 116.71 C 43.95 119.16 42.94 121.67 43.41 124.25 C 40.00 134.03 37.55 144.08 35.45 154.21 C 35.08 157.12 36.83 160.45 35.06 163.07 C 34.97 159.58 34.64 156.11 34.43 152.64 C 34.19 149.04 35.39 145.58 36.03 142.09 Z" />
</g>
<g id="#eeb53fff">
<path fill="#eeb53f" opacity="1.00" d=" M 112.49 101.67 C 113.83 102.99 115.09 104.38 116.33 105.81 C 116.69 105.41 117.41 104.61 117.77 104.21 C 119.93 109.06 123.04 113.36 126.35 117.49 C 126.88 118.44 127.36 119.42 127.89 120.37 C 125.44 118.94 123.35 116.86 120.62 115.92 C 117.05 112.23 112.04 110.07 109.23 105.64 C 109.54 105.05 110.15 103.88 110.46 103.29 C 111.35 103.91 112.23 104.52 113.12 105.14 C 112.90 103.98 112.69 102.83 112.49 101.67 Z" />
</g>
<g id="#e8d268ff">
<path fill="#e8d268" opacity="1.00" d=" M 47.64 104.01 C 47.75 108.11 47.66 112.22 47.34 116.32 C 53.14 115.47 58.56 113.09 64.33 112.15 C 62.20 113.74 59.82 114.97 57.31 115.83 C 54.96 116.61 52.43 117.04 50.28 118.33 C 47.92 120.39 46.34 123.16 44.36 125.56 L 43.41 124.25 C 42.94 121.67 43.95 119.16 44.63 116.71 C 45.95 112.56 46.88 108.30 47.64 104.01 Z" />
</g>
<g id="#ca9f48ff">
<path fill="#ca9f48" opacity="1.00" d=" M 77.60 127.36 C 82.76 120.54 83.57 111.86 85.51 103.82 C 86.24 109.67 85.20 115.69 86.82 121.43 C 87.19 121.10 87.92 120.43 88.28 120.09 C 89.60 120.90 89.61 121.72 88.19 122.46 C 89.89 125.09 91.38 127.88 93.40 130.29 C 92.87 131.68 92.34 133.08 91.81 134.48 C 89.96 134.42 87.94 134.69 86.32 133.57 C 85.04 133.09 83.78 131.59 82.31 132.52 C 80.67 131.88 79.01 131.28 77.30 130.84 L 77.31 130.67 C 77.42 129.57 77.50 128.46 77.60 127.36 Z" />
</g>
<g id="#feeb6eff">
<path fill="#feeb6e" opacity="1.00" d=" M 138.99 106.59 C 142.23 109.56 144.56 113.32 147.02 116.92 C 149.75 120.86 148.49 125.84 148.20 130.25 C 147.54 131.73 146.56 133.03 145.61 134.33 L 145.81 133.17 C 145.98 130.32 146.23 127.35 145.36 124.59 C 144.20 122.34 142.56 120.40 141.26 118.24 C 141.05 120.54 140.90 122.99 139.25 124.79 C 139.13 123.88 138.88 122.05 138.75 121.14 C 138.57 116.29 138.61 111.43 138.99 106.59 Z" />
</g>
<g id="#0f0d0633">
<path fill="#0f0d06" opacity="0.20" d=" M 166.04 108.02 C 167.20 110.86 166.51 114.04 166.70 117.02 C 166.49 120.77 167.54 125.02 165.05 128.22 C 166.80 121.63 165.59 114.74 166.04 108.02 Z" />
</g>
<g id="#fae86fff">
<path fill="#fae86f" opacity="1.00" d=" M 31.46 111.12 C 32.69 112.93 34.58 114.61 34.40 117.00 C 34.30 125.66 34.93 134.40 33.06 142.94 C 31.81 152.93 29.83 162.80 27.76 172.64 C 25.26 172.40 22.61 172.89 20.27 171.78 C 19.30 169.53 22.36 168.76 22.57 166.77 C 23.07 162.63 27.65 160.44 27.80 156.13 C 28.27 147.81 24.70 139.96 23.05 131.93 C 23.09 131.34 23.17 130.15 23.22 129.56 C 26.29 134.88 27.56 141.03 28.56 147.03 C 29.20 143.48 29.88 139.93 29.91 136.31 C 30.39 129.70 28.81 123.24 27.79 116.76 C 28.27 116.75 29.22 116.73 29.70 116.71 C 30.34 114.87 30.89 112.99 31.46 111.12 Z" />
</g>
<g id="#f2b034ff">
<path fill="#f2b034" opacity="1.00" d=" M 134.18 111.95 C 136.16 114.76 137.90 117.78 138.75 121.14 C 138.88 122.05 139.13 123.88 139.25 124.79 C 137.86 126.60 138.65 128.92 138.78 130.98 C 136.18 128.25 133.18 125.92 130.70 123.08 C 130.84 122.67 131.13 121.83 131.28 121.41 C 132.78 122.29 134.29 123.18 135.78 124.08 C 134.68 121.53 133.68 118.93 132.79 116.30 C 133.30 116.35 134.33 116.45 134.84 116.50 C 134.61 114.98 134.39 113.46 134.18 111.95 Z" />
</g>
<g id="#d5af52ff">
<path fill="#d5af52" opacity="1.00" d=" M 26.13 116.56 C 26.54 116.61 27.37 116.71 27.79 116.76 C 28.81 123.24 30.39 129.70 29.91 136.31 C 29.17 132.33 26.76 129.09 24.60 125.79 C 24.12 122.64 25.26 119.54 26.13 116.56 Z" />
</g>
<g id="#dbb957ff">
<path fill="#dbb957" opacity="1.00" d=" M 50.28 118.33 C 52.43 117.04 54.96 116.61 57.31 115.83 C 54.96 119.56 51.71 122.59 49.00 126.04 C 52.17 130.99 57.72 133.62 61.08 138.42 C 61.17 136.50 61.28 134.58 61.41 132.66 C 61.67 134.42 61.92 136.18 62.10 137.94 C 59.40 144.33 56.63 150.68 54.16 157.16 C 52.99 160.23 49.73 161.68 46.61 161.55 L 45.92 160.44 C 45.31 158.45 46.02 156.64 47.92 155.75 C 48.06 156.54 48.33 158.11 48.47 158.90 C 50.80 156.97 52.98 154.70 53.73 151.67 C 55.05 147.02 57.39 142.75 58.68 138.11 C 57.41 137.02 55.93 136.23 54.51 135.38 C 54.22 136.21 53.86 137.01 53.43 137.78 C 53.28 132.23 47.92 129.09 44.36 125.56 C 46.34 123.16 47.92 120.39 50.28 118.33 Z" />
</g>
<g id="#f6b737ff">
<path fill="#f6b737" opacity="1.00" d=" M 141.26 118.24 C 142.56 120.40 144.20 122.34 145.36 124.59 C 146.23 127.35 145.98 130.32 145.81 133.17 C 145.47 132.66 144.78 131.65 144.44 131.15 C 143.51 135.18 143.60 139.98 140.01 142.75 C 139.11 138.88 139.14 134.91 138.78 130.98 C 138.65 128.92 137.86 126.60 139.25 124.79 C 140.90 122.99 141.05 120.54 141.26 118.24 Z" />
</g>
<g id="#d18b28ff">
<path fill="#d18b28" opacity="1.00" d=" M 60.33 122.12 C 60.73 120.03 63.03 119.34 64.61 118.34 C 67.74 123.73 70.08 129.52 72.88 135.07 C 69.16 133.25 65.44 131.42 61.71 129.62 C 59.64 127.72 59.99 124.64 60.33 122.12 Z" />
</g>
<g id="#da962cff">
<path fill="#da962c" opacity="1.00" d=" M 159.33 129.35 C 160.08 128.13 160.90 126.96 161.72 125.78 C 161.72 128.89 161.54 131.99 161.28 135.08 C 162.14 134.00 163.02 132.93 163.84 131.82 C 160.98 145.97 150.81 156.83 141.86 167.56 C 142.22 163.05 142.67 158.54 142.95 154.02 C 142.95 156.70 143.11 159.38 143.25 162.07 C 144.08 159.24 145.61 156.71 147.72 154.66 C 153.33 148.98 154.77 140.86 157.65 133.70 C 158.20 132.25 158.73 130.79 159.33 129.35 Z" />
</g>
<g id="#f9bb38ff">
<path fill="#f9bb38" opacity="1.00" d=" M 148.20 130.25 C 148.73 129.16 149.26 128.06 149.79 126.96 C 150.03 130.35 150.21 133.76 150.36 137.16 C 151.74 135.23 153.00 133.21 154.26 131.20 C 154.38 132.36 154.51 133.52 154.63 134.69 C 155.63 134.36 156.64 134.03 157.65 133.70 C 154.77 140.86 153.33 148.98 147.72 154.66 C 145.61 156.71 144.08 159.24 143.25 162.07 C 143.11 159.38 142.95 156.70 142.95 154.02 C 143.08 150.19 143.85 146.42 144.63 142.69 L 143.64 143.70 C 145.02 140.77 144.75 137.41 145.61 134.33 C 146.56 133.03 147.54 131.73 148.20 130.25 Z" />
</g>
<g id="#daba53ff">
<path fill="#daba53" opacity="1.00" d=" M 93.40 130.29 C 95.26 132.32 95.29 135.23 94.95 137.80 C 94.26 142.88 93.90 147.99 94.06 153.12 L 93.74 154.16 C 92.91 155.85 92.30 157.77 92.96 159.64 L 93.24 160.89 C 92.09 163.00 89.71 162.89 87.62 163.02 C 87.94 161.51 87.66 159.75 88.61 158.43 C 89.76 157.89 91.03 157.68 92.27 157.40 C 92.45 151.63 92.72 145.82 92.34 140.05 C 92.42 137.57 89.50 137.52 87.86 136.62 C 87.60 142.83 88.41 149.14 87.06 155.27 C 87.14 149.52 87.78 143.76 87.27 138.02 C 87.07 135.27 84.34 133.87 82.31 132.52 C 83.78 131.59 85.04 133.09 86.32 133.57 C 87.94 134.69 89.96 134.42 91.81 134.48 C 92.34 133.08 92.87 131.68 93.40 130.29 Z" />
</g>
<g id="#ca8d29f0">
<path fill="#ca8d29" opacity="0.94" d=" M 140.01 142.75 C 143.60 139.98 143.51 135.18 144.44 131.15 C 144.78 131.65 145.47 132.66 145.81 133.17 L 145.61 134.33 C 144.75 137.41 145.02 140.77 143.64 143.70 C 142.69 144.85 141.68 145.93 140.63 146.98 C 140.41 145.57 140.20 144.16 140.01 142.75 Z" />
</g>
<g id="#f8e66dff">
<path fill="#f8e66d" opacity="1.00" d=" M 54.51 135.38 C 55.93 136.23 57.41 137.02 58.68 138.11 C 57.39 142.75 55.05 147.02 53.73 151.67 C 52.98 154.70 50.80 156.97 48.47 158.90 C 48.33 158.11 48.06 156.54 47.92 155.75 C 46.02 156.64 45.31 158.45 45.92 160.44 L 45.47 161.23 C 44.85 161.21 43.62 161.18 43.01 161.17 C 42.93 160.35 42.79 158.73 42.72 157.91 C 43.16 156.93 43.58 155.94 43.98 154.95 C 45.14 154.74 46.30 154.55 47.45 154.37 C 49.78 149.09 51.27 143.51 53.25 138.11 L 53.43 137.78 C 53.86 137.01 54.22 136.21 54.51 135.38 Z" />
</g>
<g id="#f5e36cfe">
<path fill="#f5e36c" opacity="1.00" d=" M 87.86 136.62 C 89.50 137.52 92.42 137.57 92.34 140.05 C 92.72 145.82 92.45 151.63 92.27 157.40 C 91.03 157.68 89.76 157.89 88.61 158.43 C 87.66 159.75 87.94 161.51 87.62 163.02 C 86.49 162.86 85.37 162.71 84.25 162.55 C 83.21 160.26 84.00 157.00 86.77 156.50 C 86.84 156.19 86.99 155.57 87.06 155.27 C 88.41 149.14 87.60 142.83 87.86 136.62 Z" />
</g>
<g id="#655427a7">
<path fill="#655427" opacity="0.65" d=" M 94.06 153.12 C 93.90 147.99 94.26 142.88 94.95 137.80 C 95.17 142.92 94.89 148.06 94.06 153.12 Z" />
</g>
<g id="#827037bc">
<path fill="#827037" opacity="0.74" d=" M 92.96 159.64 C 92.30 157.77 92.91 155.85 93.74 154.16 C 94.58 155.61 94.70 159.13 92.96 159.64 Z" />
</g>
</svg>
