<?xml version="1.0" encoding="UTF-8" ?>
<!DOCTYPE svg PUBLIC "-//W3C//DTD SVG 1.1//EN" "http://www.w3.org/Graphics/SVG/1.1/DTD/svg11.dtd">
<svg width="124pt" height="132pt" viewBox="0 0 124 132" version="1.1" xmlns="http://www.w3.org/2000/svg">
<g id="#f9ecf2fd">
<path fill="#f9ecf2" opacity="1.00" d=" M 37.96 16.02 C 43.09 12.00 49.14 8.63 55.93 9.18 C 59.76 10.04 64.26 10.91 66.24 14.73 C 72.07 15.54 77.69 18.01 83.65 17.49 C 92.46 15.33 102.23 11.93 111.17 15.38 C 109.06 16.83 103.46 14.24 102.89 17.73 L 102.13 17.64 C 99.29 14.29 94.71 17.71 91.35 18.45 C 84.21 21.65 75.69 21.74 68.50 18.61 C 62.87 15.87 58.45 20.34 54.20 23.20 C 48.89 27.73 47.25 35.07 46.65 41.70 C 44.87 47.42 36.70 44.32 34.99 40.01 C 31.88 36.85 35.05 31.06 31.10 28.80 C 28.08 33.56 26.85 39.10 27.41 44.69 C 27.02 44.96 26.23 45.49 25.83 45.76 C 25.34 45.91 24.38 46.19 23.89 46.34 C 19.69 47.60 17.51 51.92 16.35 55.84 C 16.06 59.24 15.63 62.72 16.45 66.07 C 16.52 66.34 16.64 66.86 16.71 67.12 C 16.85 69.29 18.18 70.94 19.83 72.24 C 21.84 74.69 24.98 75.32 28.01 75.10 C 25.60 77.41 21.74 74.47 19.07 76.06 C 14.17 79.10 10.84 84.32 8.23 89.31 C 8.10 89.75 7.84 90.62 7.72 91.05 C 6.04 90.36 5.70 88.71 6.03 87.06 C 7.51 83.15 10.00 79.58 13.76 77.57 C 15.24 74.19 13.04 71.26 12.99 68.02 C 12.98 65.34 12.99 62.66 13.00 59.98 C 12.70 53.04 18.15 46.03 14.57 39.33 C 12.18 34.17 10.79 28.47 10.03 22.86 C 11.97 21.45 12.29 23.69 12.97 25.11 C 14.91 29.47 16.58 33.98 19.16 38.01 C 23.27 34.55 25.36 29.07 29.83 25.88 C 30.96 24.73 33.43 24.27 32.90 22.21 C 28.58 19.07 23.70 16.79 18.75 14.81 C 20.12 13.23 21.65 11.74 23.91 11.85 C 28.95 11.56 33.24 14.80 37.96 16.02 Z" />
</g>
<g id="#38383877">
<path fill="#383838" opacity="0.47" d=" M 11.03 11.03 C 11.77 8.76 16.61 10.47 18.98 10.04 L 19.00 10.99 C 16.34 11.02 13.69 11.03 11.03 11.03 Z" />
</g>
<g id="#eedde2f9">
<path fill="#eedde2" opacity="0.98" d=" M 8.97 13.99 C 8.77 12.69 9.49 10.92 11.03 11.03 C 13.69 11.03 16.34 11.02 19.00 10.99 C 20.38 11.46 24.10 9.93 23.91 11.85 C 21.65 11.74 20.12 13.23 18.75 14.81 C 15.32 14.54 9.16 14.93 12.54 20.59 C 12.71 22.10 12.84 23.61 12.97 25.11 C 12.29 23.69 11.97 21.45 10.03 22.86 C 9.02 20.03 8.97 16.98 8.97 13.99 Z" />
</g>
<g id="#483f49ff">
<path fill="#483f49" opacity="1.00" d=" M 12.54 20.59 C 9.16 14.93 15.32 14.54 18.75 14.81 C 23.70 16.79 28.58 19.07 32.90 22.21 C 33.43 24.27 30.96 24.73 29.83 25.88 C 25.36 29.07 23.27 34.55 19.16 38.01 C 16.58 33.98 14.91 29.47 12.97 25.11 C 12.84 23.61 12.71 22.10 12.54 20.59 Z" />
</g>
<g id="#f5d7e2fc">
<path fill="#f5d7e2" opacity="1.00" d=" M 111.17 15.38 C 111.72 15.64 112.81 16.17 113.36 16.43 C 112.45 18.17 111.08 19.62 109.19 20.28 C 108.68 19.93 107.66 19.23 107.15 18.88 C 105.93 17.94 104.32 18.02 102.89 17.73 C 103.46 14.24 109.06 16.83 111.17 15.38 Z" />
</g>
<g id="#fedfe9ff">
<path fill="#fedfe9" opacity="1.00" d=" M 91.35 18.45 C 94.71 17.71 99.29 14.29 102.13 17.64 C 100.94 17.99 99.76 18.36 98.59 18.76 C 94.25 19.91 90.04 21.47 85.95 23.31 C 78.67 25.15 71.51 23.12 64.34 22.33 C 57.57 24.81 53.54 31.00 49.62 36.66 C 47.75 38.71 50.99 41.01 53.02 40.50 C 53.38 45.15 47.07 46.50 43.71 48.66 C 38.00 48.92 33.75 43.96 32.50 38.65 C 31.99 36.85 31.75 34.88 30.12 33.70 C 29.84 38.17 30.42 42.61 30.93 47.04 C 29.25 46.55 27.55 46.08 25.83 45.76 C 26.23 45.49 27.02 44.96 27.41 44.69 C 26.85 39.10 28.08 33.56 31.10 28.80 C 35.05 31.06 31.88 36.85 34.99 40.01 C 36.70 44.32 44.87 47.42 46.65 41.70 C 47.25 35.07 48.89 27.73 54.20 23.20 C 58.45 20.34 62.87 15.87 68.50 18.61 C 75.69 21.74 84.21 21.65 91.35 18.45 Z" />
</g>
<g id="#e9b4bbfc">
<path fill="#e9b4bb" opacity="1.00" d=" M 113.36 16.43 C 114.65 15.14 113.86 19.62 113.82 20.67 C 111.29 21.92 110.81 25.06 109.17 27.14 C 109.06 26.57 108.84 25.41 108.73 24.84 C 108.90 23.32 109.04 21.80 109.19 20.28 C 111.08 19.62 112.45 18.17 113.36 16.43 Z" />
</g>
<g id="#c99da9ff">
<path fill="#c99da9" opacity="1.00" d=" M 98.59 18.76 C 99.76 18.36 100.94 17.99 102.13 17.64 L 102.89 17.73 C 104.32 18.02 105.93 17.94 107.15 18.88 C 104.29 18.84 101.44 18.80 98.59 18.76 Z" />
</g>
<g id="#453d48ff">
<path fill="#453d48" opacity="1.00" d=" M 85.95 23.31 C 90.04 21.47 94.25 19.91 98.59 18.76 C 99.07 23.41 105.52 17.86 107.85 21.12 C 107.20 26.10 101.38 27.03 98.75 30.74 C 97.15 33.16 94.77 30.85 92.66 30.70 C 90.76 29.14 88.91 27.52 87.08 25.89 C 86.69 25.04 86.31 24.18 85.95 23.31 Z" />
</g>
<g id="#3b333cff">
<path fill="#3b333c" opacity="1.00" d=" M 98.59 18.76 C 101.44 18.80 104.29 18.84 107.15 18.88 C 107.66 19.23 108.68 19.93 109.19 20.28 C 109.04 21.80 108.90 23.32 108.73 24.84 C 106.85 30.73 103.78 36.09 99.93 40.92 L 99.19 40.88 C 98.37 39.04 97.28 37.35 96.13 35.70 C 95.01 34.01 93.85 32.34 92.66 30.70 C 94.77 30.85 97.15 33.16 98.75 30.74 C 101.38 27.03 107.20 26.10 107.85 21.12 C 105.52 17.86 99.07 23.41 98.59 18.76 Z" />
</g>
<g id="#c18b91fb">
<path fill="#c18b91" opacity="1.00" d=" M 109.17 27.14 C 110.81 25.06 111.29 21.92 113.82 20.67 C 115.14 28.47 110.76 35.26 108.31 42.30 C 107.46 43.59 107.46 45.79 105.79 46.30 C 102.99 46.27 101.43 43.88 100.02 41.81 L 99.93 40.92 C 103.78 36.09 106.85 30.73 108.73 24.84 C 108.84 25.41 109.06 26.57 109.17 27.14 Z" />
</g>
<g id="#fed3dfff">
<path fill="#fed3df" opacity="1.00" d=" M 64.34 22.33 C 71.51 23.12 78.67 25.15 85.95 23.31 C 86.31 24.18 86.69 25.04 87.08 25.89 C 85.75 28.02 83.69 29.96 85.12 33.01 C 85.13 39.63 84.05 46.19 82.79 52.67 C 82.40 52.75 81.62 52.91 81.23 53.00 C 76.79 47.57 68.10 44.57 62.00 49.01 C 58.71 50.75 56.99 54.14 55.06 57.12 C 51.15 62.31 43.59 61.82 38.80 58.19 C 37.43 57.04 35.41 53.05 35.82 57.20 C 34.71 53.56 33.83 49.73 30.93 47.04 C 30.42 42.61 29.84 38.17 30.12 33.70 C 31.75 34.88 31.99 36.85 32.50 38.65 C 33.75 43.96 38.00 48.92 43.71 48.66 C 47.07 46.50 53.38 45.15 53.02 40.50 C 50.99 41.01 47.75 38.71 49.62 36.66 C 53.54 31.00 57.57 24.81 64.34 22.33 M 64.30 25.27 C 60.01 27.46 56.42 30.72 53.15 34.21 C 52.27 36.17 54.59 36.57 55.79 37.39 C 56.88 40.04 55.68 43.08 53.40 44.46 C 50.33 46.72 47.48 49.49 43.95 51.00 C 40.10 50.54 36.79 48.43 33.94 45.92 C 34.57 49.18 36.56 51.98 38.15 54.83 C 45.17 60.72 56.68 56.81 58.99 47.92 C 61.59 47.07 62.41 43.94 63.89 41.93 C 66.03 37.59 69.23 33.93 71.72 29.81 C 70.26 27.16 68.63 22.64 64.30 25.27 Z" />
</g>
<g id="#ffc8d8ff">
<path fill="#ffc8d8" opacity="1.00" d=" M 64.30 25.27 C 68.63 22.64 70.26 27.16 71.72 29.81 C 69.23 33.93 66.03 37.59 63.89 41.93 C 62.41 43.94 61.59 47.07 58.99 47.92 C 59.62 45.67 60.04 43.37 60.44 41.07 C 62.38 36.55 65.17 32.45 67.12 27.95 C 62.50 28.14 58.25 30.59 55.26 34.04 C 57.07 37.23 58.04 41.55 55.69 44.67 C 51.69 48.04 47.40 51.08 42.93 53.79 C 45.92 54.87 49.21 55.30 51.97 53.36 C 54.55 51.88 56.73 49.83 58.99 47.92 C 56.68 56.81 45.17 60.72 38.15 54.83 C 36.56 51.98 34.57 49.18 33.94 45.92 C 36.79 48.43 40.10 50.54 43.95 51.00 C 47.48 49.49 50.33 46.72 53.40 44.46 C 55.68 43.08 56.88 40.04 55.79 37.39 C 54.59 36.57 52.27 36.17 53.15 34.21 C 56.42 30.72 60.01 27.46 64.30 25.27 Z" />
</g>
<g id="#f8c3ccff">
<path fill="#f8c3cc" opacity="1.00" d=" M 87.08 25.89 C 88.91 27.52 90.76 29.14 92.66 30.70 C 93.85 32.34 95.01 34.01 96.13 35.70 C 90.97 35.14 91.42 41.86 90.11 45.01 C 89.25 51.09 86.70 56.66 84.32 62.25 C 84.09 60.08 83.63 57.94 82.75 55.93 C 82.33 54.91 81.75 53.97 81.23 53.00 C 81.62 52.91 82.40 52.75 82.79 52.67 C 84.05 46.19 85.13 39.63 85.12 33.01 C 83.69 29.96 85.75 28.02 87.08 25.89 Z" />
</g>
<g id="#fdbcccff">
<path fill="#fdbccc" opacity="1.00" d=" M 55.26 34.04 C 58.25 30.59 62.50 28.14 67.12 27.95 C 65.17 32.45 62.38 36.55 60.44 41.07 C 57.99 38.26 58.13 44.67 56.68 45.74 C 55.68 48.19 49.42 50.43 51.97 53.36 C 49.21 55.30 45.92 54.87 42.93 53.79 C 47.40 51.08 51.69 48.04 55.69 44.67 C 58.04 41.55 57.07 37.23 55.26 34.04 Z" />
</g>
<g id="#e9b5bdff">
<path fill="#e9b5bd" opacity="1.00" d=" M 90.11 45.01 C 91.42 41.86 90.97 35.14 96.13 35.70 C 97.28 37.35 98.37 39.04 99.19 40.88 C 93.18 49.05 92.23 59.83 85.65 67.67 C 85.16 69.24 83.72 68.91 82.68 68.09 C 83.11 66.81 83.57 65.53 83.85 64.21 C 83.97 63.72 84.20 62.74 84.32 62.25 C 86.70 56.66 89.25 51.09 90.11 45.01 Z" />
</g>
<g id="#eda8b5ff">
<path fill="#eda8b5" opacity="1.00" d=" M 56.68 45.74 C 58.13 44.67 57.99 38.26 60.44 41.07 C 60.04 43.37 59.62 45.67 58.99 47.92 C 56.73 49.83 54.55 51.88 51.97 53.36 C 49.42 50.43 55.68 48.19 56.68 45.74 Z" />
</g>
<g id="#dda9b1fe">
<path fill="#dda9b1" opacity="1.00" d=" M 99.19 40.88 L 99.93 40.92 L 100.02 41.81 C 100.22 44.74 100.58 47.66 100.68 50.60 C 95.73 53.99 95.17 60.33 91.95 64.97 C 89.59 68.85 85.84 71.53 83.26 75.24 C 80.47 76.63 82.74 78.05 84.02 78.73 C 79.31 78.49 75.68 81.91 74.00 86.02 C 70.99 87.09 69.08 89.72 66.70 91.69 C 61.17 96.61 54.02 99.50 49.22 105.25 C 48.25 107.84 52.10 108.53 53.93 109.03 C 55.58 109.10 57.23 109.06 58.88 109.04 C 60.89 109.03 62.91 108.98 64.93 108.96 C 66.74 109.03 68.56 109.13 70.31 109.66 C 69.70 109.75 68.47 109.92 67.86 110.00 C 65.38 109.40 63.08 109.56 60.96 110.49 C 59.64 111.22 58.43 112.13 57.18 112.97 C 56.93 109.06 50.55 111.48 48.40 110.38 C 45.76 112.39 42.45 113.84 40.62 116.70 C 39.18 119.85 34.71 117.51 31.95 117.96 C 32.03 117.52 32.19 116.63 32.27 116.19 C 37.03 113.49 41.53 109.89 46.95 108.69 C 46.08 107.65 45.11 106.70 44.22 105.70 C 49.39 95.85 62.07 94.40 68.59 85.61 C 71.68 81.10 76.57 77.87 79.11 73.02 C 80.24 71.33 81.50 69.73 82.68 68.09 C 83.72 68.91 85.16 69.24 85.65 67.67 C 92.23 59.83 93.18 49.05 99.19 40.88 Z" />
</g>
<g id="#d5a2aafd">
<path fill="#d5a2aa" opacity="1.00" d=" M 100.02 41.81 C 101.43 43.88 102.99 46.27 105.79 46.30 C 107.30 50.59 108.73 55.19 108.78 59.74 C 108.34 62.57 108.06 65.44 107.41 68.24 C 107.21 63.36 106.38 58.59 104.93 53.93 C 100.29 53.35 98.96 58.99 97.00 62.03 C 94.34 67.73 89.51 71.78 85.34 76.31 C 85.18 77.01 84.86 78.41 84.70 79.11 L 84.02 78.73 C 82.74 78.05 80.47 76.63 83.26 75.24 C 85.84 71.53 89.59 68.85 91.95 64.97 C 95.17 60.33 95.73 53.99 100.68 50.60 C 100.58 47.66 100.22 44.74 100.02 41.81 Z" />
</g>
<g id="#e6e6e7ff">
<path fill="#e6e6e7" opacity="1.00" d=" M 16.35 55.84 C 17.51 51.92 19.69 47.60 23.89 46.34 C 36.38 47.37 37.05 65.28 29.04 72.45 C 26.33 72.57 23.55 73.16 20.95 72.21 C 19.82 70.29 18.34 68.62 16.71 67.12 C 16.64 66.86 16.52 66.34 16.45 66.07 C 16.82 62.66 16.79 59.25 16.35 55.84 M 23.27 50.17 C 21.03 52.18 18.77 54.68 18.89 57.91 C 16.48 59.57 18.45 63.42 19.04 65.87 C 19.59 67.25 20.00 68.81 21.27 69.72 C 22.63 70.63 29.48 73.16 27.88 70.27 C 33.28 66.76 34.03 58.85 31.68 53.28 C 29.68 50.75 27.14 48.10 23.27 50.17 Z" />
</g>
<g id="#84777bff">
<path fill="#84777b" opacity="1.00" d=" M 23.89 46.34 C 24.38 46.19 25.34 45.91 25.83 45.76 C 27.55 46.08 29.25 46.55 30.93 47.04 C 33.83 49.73 34.71 53.56 35.82 57.20 C 35.83 62.92 34.48 69.17 30.16 73.22 C 29.88 73.02 29.32 72.64 29.04 72.45 C 37.05 65.28 36.38 47.37 23.89 46.34 Z" />
</g>
<g id="#87787cff">
<path fill="#87787c" opacity="1.00" d=" M 62.00 49.01 C 68.10 44.57 76.79 47.57 81.23 53.00 C 81.75 53.97 82.33 54.91 82.75 55.93 C 82.51 56.25 82.03 56.88 81.79 57.19 C 79.65 51.25 73.33 47.62 66.99 48.94 C 61.51 49.00 57.32 54.27 56.40 59.38 C 54.25 63.76 59.08 67.19 58.27 71.29 C 54.67 67.50 54.93 62.01 55.06 57.12 C 56.99 54.14 58.71 50.75 62.00 49.01 Z" />
</g>
<g id="#e4e6e6ff">
<path fill="#e4e6e6" opacity="1.00" d=" M 56.40 59.38 C 57.32 54.27 61.51 49.00 66.99 48.94 C 73.33 47.62 79.65 51.25 81.79 57.19 C 81.90 57.59 82.13 58.39 82.24 58.79 C 84.53 67.37 76.48 75.93 68.00 74.95 C 65.56 74.54 63.24 73.61 60.81 73.14 C 59.72 72.88 58.83 72.26 58.27 71.29 C 59.08 67.19 54.25 63.76 56.40 59.38 M 65.32 51.33 C 61.17 52.65 57.08 56.18 57.98 60.99 C 56.60 67.14 62.04 71.26 67.06 72.97 C 74.04 73.20 80.95 66.71 78.59 59.35 C 77.69 53.62 71.04 49.16 65.32 51.33 Z" />
</g>
<g id="#216372ff">
<path fill="#216372" opacity="1.00" d=" M 23.27 50.17 C 27.14 48.10 29.68 50.75 31.68 53.28 C 34.03 58.85 33.28 66.76 27.88 70.27 C 27.65 70.03 27.18 69.54 26.94 69.30 C 27.80 68.58 28.61 67.81 29.38 66.98 C 33.32 62.02 32.69 51.34 25.10 50.82 C 23.02 51.71 21.81 53.76 21.79 55.99 C 20.84 56.64 19.88 57.30 18.89 57.91 C 18.77 54.68 21.03 52.18 23.27 50.17 Z" />
</g>
<g id="#ddebefff">
<path fill="#ddebef" opacity="1.00" d=" M 21.79 55.99 C 21.81 53.76 23.02 51.71 25.10 50.82 C 25.86 52.78 26.78 55.38 24.85 56.99 C 23.81 56.73 22.79 56.39 21.79 55.99 Z" />
</g>
<g id="#0b778eff">
<path fill="#0b778e" opacity="1.00" d=" M 25.10 50.82 C 32.69 51.34 33.32 62.02 29.38 66.98 C 27.05 64.90 23.98 64.67 20.94 65.13 C 20.47 65.31 19.51 65.68 19.04 65.87 C 18.45 63.42 16.48 59.57 18.89 57.91 C 19.88 57.30 20.84 56.64 21.79 55.99 C 22.79 56.39 23.81 56.73 24.85 56.99 C 26.78 55.38 25.86 52.78 25.10 50.82 Z" />
</g>
<g id="#28606eff">
<path fill="#28606e" opacity="1.00" d=" M 65.32 51.33 C 71.04 49.16 77.69 53.62 78.59 59.35 C 80.95 66.71 74.04 73.20 67.06 72.97 C 62.04 71.26 56.60 67.14 57.98 60.99 C 57.08 56.18 61.17 52.65 65.32 51.33 M 63.88 54.24 C 59.05 54.00 57.18 62.96 60.10 65.92 C 61.14 68.53 63.97 70.64 66.80 71.00 C 68.89 70.82 72.33 71.93 73.02 69.14 C 73.47 69.08 74.36 68.96 74.81 68.90 C 79.15 63.98 77.90 52.88 70.10 53.12 C 68.15 50.90 65.42 52.42 63.88 54.24 Z" />
</g>
<g id="#d9e5eaff">
<path fill="#d9e5ea" opacity="1.00" d=" M 63.88 54.24 C 65.42 52.42 68.15 50.90 70.10 53.12 C 70.13 55.17 70.03 58.69 67.02 58.01 C 64.57 58.66 64.64 55.77 63.88 54.24 Z" />
</g>
<g id="#06728bff">
<path fill="#06728b" opacity="1.00" d=" M 70.10 53.12 C 77.90 52.88 79.15 63.98 74.81 68.90 C 74.36 68.96 73.47 69.08 73.02 69.14 C 72.03 68.32 71.07 67.47 70.06 66.69 C 67.09 65.32 63.35 66.31 60.10 65.92 C 57.18 62.96 59.05 54.00 63.88 54.24 C 64.64 55.77 64.57 58.66 67.02 58.01 C 70.03 58.69 70.13 55.17 70.10 53.12 Z" />
</g>
<g id="#d09ca3ff">
<path fill="#d09ca3" opacity="1.00" d=" M 97.00 62.03 C 98.96 58.99 100.29 53.35 104.93 53.93 C 106.38 58.59 107.21 63.36 107.41 68.24 C 107.09 69.91 106.79 71.59 106.39 73.25 C 105.11 69.14 108.27 62.16 103.15 60.01 C 98.82 63.97 97.17 69.89 92.99 73.97 C 91.28 76.64 87.54 77.78 86.69 81.03 C 86.02 80.39 85.36 79.75 84.70 79.11 C 84.86 78.41 85.18 77.01 85.34 76.31 C 89.51 71.78 94.34 67.73 97.00 62.03 Z" />
</g>
<g id="#fed9e3ff">
<path fill="#fed9e3" opacity="1.00" d=" M 35.82 57.20 C 35.41 53.05 37.43 57.04 38.80 58.19 C 43.59 61.82 51.15 62.31 55.06 57.12 C 54.93 62.01 54.67 67.50 58.27 71.29 C 58.83 72.26 59.72 72.88 60.81 73.14 C 61.19 73.60 61.95 74.52 62.33 74.98 C 56.23 78.15 51.53 83.66 44.87 85.79 C 40.41 87.02 36.68 89.86 32.39 91.50 C 29.80 92.85 26.52 93.36 25.02 96.17 C 23.25 95.24 22.57 93.06 21.12 91.72 C 21.36 91.52 21.84 91.14 22.08 90.95 C 24.76 88.47 22.51 84.43 20.88 82.04 C 16.50 84.17 12.94 87.89 8.23 89.31 C 10.84 84.32 14.17 79.10 19.07 76.06 C 21.74 74.47 25.60 77.41 28.01 75.10 C 28.74 74.49 29.46 73.86 30.16 73.22 C 34.48 69.17 35.83 62.92 35.82 57.20 M 47.34 75.40 C 46.03 76.54 40.56 74.99 42.72 77.31 C 43.95 79.67 49.99 75.92 47.34 75.40 Z" />
</g>
<g id="#cfcfcfff">
<path fill="#cfcfcf" opacity="1.00" d=" M 16.35 55.84 C 16.79 59.25 16.82 62.66 16.45 66.07 C 15.63 62.72 16.06 59.24 16.35 55.84 Z" />
</g>
<g id="#725c5eff">
<path fill="#725c5e" opacity="1.00" d=" M 81.79 57.19 C 82.03 56.88 82.51 56.25 82.75 55.93 C 83.63 57.94 84.09 60.08 84.32 62.25 C 84.20 62.74 83.97 63.72 83.85 64.21 C 83.44 62.86 82.64 60.15 82.24 58.79 C 82.13 58.39 81.90 57.59 81.79 57.19 Z" />
</g>
<g id="#827477ff">
<path fill="#827477" opacity="1.00" d=" M 82.24 58.79 C 82.64 60.15 83.44 62.86 83.85 64.21 C 83.57 65.53 83.11 66.81 82.68 68.09 C 81.50 69.73 80.24 71.33 79.11 73.02 C 75.64 75.86 71.04 75.98 66.77 76.31 C 65.27 75.92 63.80 75.44 62.33 74.98 C 61.95 74.52 61.19 73.60 60.81 73.14 C 63.24 73.61 65.56 74.54 68.00 74.95 C 76.48 75.93 84.53 67.37 82.24 58.79 Z" />
</g>
<g id="#0909092f">
<path fill="#090909" opacity="0.18" d=" M 12.05 60.03 L 13.00 59.98 C 12.99 62.66 12.98 65.34 12.99 68.02 C 10.78 67.09 12.46 62.43 12.05 60.03 Z" />
</g>
<g id="#c6949cfd">
<path fill="#c6949c" opacity="1.00" d=" M 103.15 60.01 C 108.27 62.16 105.11 69.14 106.39 73.25 C 105.31 79.36 102.69 85.13 99.40 90.36 C 98.63 91.92 97.34 93.48 97.61 95.32 C 95.84 98.29 92.24 101.26 88.65 102.21 C 95.25 92.98 104.52 83.33 102.95 70.81 C 98.57 75.13 94.65 79.93 90.34 84.33 C 91.57 89.98 88.51 99.40 80.83 95.28 C 82.75 95.05 84.63 94.45 86.16 93.22 C 86.40 92.97 86.90 92.45 87.15 92.20 C 89.33 89.71 90.26 85.37 88.04 82.75 C 87.70 82.32 87.03 81.46 86.69 81.03 C 87.54 77.78 91.28 76.64 92.99 73.97 C 97.17 69.89 98.82 63.97 103.15 60.01 Z" />
</g>
<g id="#d1b6c7f6">
<path fill="#d1b6c7" opacity="0.96" d=" M 107.41 68.24 C 108.06 65.44 108.34 62.57 108.78 59.74 C 110.34 72.36 106.08 86.07 97.61 95.32 C 97.34 93.48 98.63 91.92 99.40 90.36 C 102.69 85.13 105.31 79.36 106.39 73.25 C 106.79 71.59 107.09 69.91 107.41 68.24 Z" />
</g>
<g id="#3e8088ff">
<path fill="#3e8088" opacity="1.00" d=" M 19.04 65.87 C 19.51 65.68 20.47 65.31 20.94 65.13 C 20.17 69.01 24.13 69.31 26.94 69.30 C 27.18 69.54 27.65 70.03 27.88 70.27 C 29.48 73.16 22.63 70.63 21.27 69.72 C 20.00 68.81 19.59 67.25 19.04 65.87 Z" />
</g>
<g id="#7bbdc7ff">
<path fill="#7bbdc7" opacity="1.00" d=" M 20.94 65.13 C 23.98 64.67 27.05 64.90 29.38 66.98 C 28.61 67.81 27.80 68.58 26.94 69.30 C 24.13 69.31 20.17 69.01 20.94 65.13 Z" />
</g>
<g id="#62a7b4ff">
<path fill="#62a7b4" opacity="1.00" d=" M 60.10 65.92 C 63.35 66.31 67.09 65.32 70.06 66.69 C 67.80 67.03 66.63 68.80 66.80 71.00 C 63.97 70.64 61.14 68.53 60.10 65.92 Z" />
</g>
<g id="#c5bdbdff">
<path fill="#c5bdbd" opacity="1.00" d=" M 16.71 67.12 C 18.34 68.62 19.82 70.29 20.95 72.21 L 19.83 72.24 C 18.18 70.94 16.85 69.29 16.71 67.12 Z" />
</g>
<g id="#89b8c2ff">
<path fill="#89b8c2" opacity="1.00" d=" M 66.80 71.00 C 66.63 68.80 67.80 67.03 70.06 66.69 C 71.07 67.47 72.03 68.32 73.02 69.14 C 72.33 71.93 68.89 70.82 66.80 71.00 Z" />
</g>
<g id="#be828bfe">
<path fill="#be828b" opacity="1.00" d=" M 90.34 84.33 C 94.65 79.93 98.57 75.13 102.95 70.81 C 104.52 83.33 95.25 92.98 88.65 102.21 C 87.77 103.59 86.07 104.35 84.85 105.47 C 80.27 105.79 76.16 108.17 72.06 110.04 C 71.62 109.94 70.75 109.76 70.31 109.66 C 68.56 109.13 66.74 109.03 64.93 108.96 C 64.57 107.49 62.61 105.15 65.98 105.00 C 70.71 101.72 76.58 99.68 80.07 94.92 L 80.83 95.28 C 88.51 99.40 91.57 89.98 90.34 84.33 Z" />
</g>
<g id="#a29698ff">
<path fill="#a29698" opacity="1.00" d=" M 19.83 72.24 L 20.95 72.21 C 23.55 73.16 26.33 72.57 29.04 72.45 C 29.32 72.64 29.88 73.02 30.16 73.22 C 29.46 73.86 28.74 74.49 28.01 75.10 C 24.98 75.32 21.84 74.69 19.83 72.24 Z" />
</g>
<g id="#e7b3bbfe">
<path fill="#e7b3bb" opacity="1.00" d=" M 66.77 76.31 C 71.04 75.98 75.64 75.86 79.11 73.02 C 76.57 77.87 71.68 81.10 68.59 85.61 C 62.07 94.40 49.39 95.85 44.22 105.70 C 45.11 106.70 46.08 107.65 46.95 108.69 C 41.53 109.89 37.03 113.49 32.27 116.19 C 32.19 116.63 32.03 117.52 31.95 117.96 C 31.74 120.05 28.41 118.59 26.92 118.95 C 26.39 118.91 25.31 118.85 24.77 118.81 C 30.01 114.76 37.30 113.26 40.86 107.24 C 39.60 106.10 38.18 105.14 36.92 104.00 C 40.14 94.39 51.23 93.90 58.02 88.02 C 62.31 84.79 65.61 80.43 69.92 77.20 C 68.86 76.91 67.81 76.62 66.77 76.31 Z" />
</g>
<g id="#a1858aff">
<path fill="#a1858a" opacity="1.00" d=" M 47.34 75.40 C 49.99 75.92 43.95 79.67 42.72 77.31 C 40.56 74.99 46.03 76.54 47.34 75.40 Z" />
</g>
<g id="#f5c4ccfe">
<path fill="#f5c4cc" opacity="1.00" d=" M 62.33 74.98 C 63.80 75.44 65.27 75.92 66.77 76.31 C 67.81 76.62 68.86 76.91 69.92 77.20 C 65.61 80.43 62.31 84.79 58.02 88.02 C 51.23 93.90 40.14 94.39 36.92 104.00 C 38.18 105.14 39.60 106.10 40.86 107.24 C 37.30 113.26 30.01 114.76 24.77 118.81 C 22.85 118.93 20.92 118.98 19.00 119.04 C 17.26 119.46 16.28 119.16 16.05 118.11 C 22.96 117.02 31.37 113.92 33.54 106.58 C 34.56 105.96 35.79 105.56 36.26 104.35 C 34.82 104.56 33.38 104.81 31.92 104.93 C 32.44 104.62 33.49 104.00 34.01 103.70 C 31.56 100.69 26.51 99.53 25.02 96.17 C 26.52 93.36 29.80 92.85 32.39 91.50 C 36.68 89.86 40.41 87.02 44.87 85.79 C 51.53 83.66 56.23 78.15 62.33 74.98 Z" />
</g>
<g id="#fedce6ff">
<path fill="#fedce6" opacity="1.00" d=" M 74.00 86.02 C 75.68 81.91 79.31 78.49 84.02 78.73 L 84.70 79.11 C 85.36 79.75 86.02 80.39 86.69 81.03 C 87.03 81.46 87.70 82.32 88.04 82.75 C 87.20 85.81 87.10 89.03 87.15 92.20 C 86.90 92.45 86.40 92.97 86.16 93.22 C 83.37 93.18 80.58 93.13 77.80 93.07 L 77.00 92.69 C 76.33 92.14 75.67 91.58 75.02 91.02 C 74.74 89.34 74.36 87.68 74.00 86.02 Z" />
</g>
<g id="#f5bfcaff">
<path fill="#f5bfca" opacity="1.00" d=" M 8.23 89.31 C 12.94 87.89 16.50 84.17 20.88 82.04 C 22.51 84.43 24.76 88.47 22.08 90.95 C 22.07 90.46 22.04 89.47 22.03 88.98 C 21.99 88.22 21.93 86.69 21.89 85.93 C 16.92 86.75 12.51 89.54 7.72 91.05 C 7.84 90.62 8.10 89.75 8.23 89.31 Z" />
</g>
<g id="#f5c2c9ff">
<path fill="#f5c2c9" opacity="1.00" d=" M 88.04 82.75 C 90.26 85.37 89.33 89.71 87.15 92.20 C 87.10 89.03 87.20 85.81 88.04 82.75 Z" />
</g>
<g id="#d39fa7fd">
<path fill="#d39fa7" opacity="1.00" d=" M 7.72 91.05 C 12.51 89.54 16.92 86.75 21.89 85.93 C 21.93 86.69 21.99 88.22 22.03 88.98 C 19.09 87.78 16.39 89.70 13.72 90.70 C 15.38 90.93 18.69 91.39 20.35 91.62 C 16.92 90.70 9.91 94.26 7.72 91.05 Z" />
</g>
<g id="#d7a2a9ff">
<path fill="#d7a2a9" opacity="1.00" d=" M 66.70 91.69 C 69.08 89.72 70.99 87.09 74.00 86.02 C 74.36 87.68 74.74 89.34 75.02 91.02 C 73.52 89.88 71.85 89.68 70.77 91.77 C 65.57 97.00 58.79 100.38 53.73 105.74 C 52.45 106.63 53.53 107.99 53.93 109.03 C 52.10 108.53 48.25 107.84 49.22 105.25 C 54.02 99.50 61.17 96.61 66.70 91.69 Z" />
</g>
<g id="#c38d94fc">
<path fill="#c38d94" opacity="1.00" d=" M 13.72 90.70 C 16.39 89.70 19.09 87.78 22.03 88.98 C 22.04 89.47 22.07 90.46 22.08 90.95 C 21.84 91.14 21.36 91.52 21.12 91.72 L 20.35 91.62 C 18.69 91.39 15.38 90.93 13.72 90.70 Z" />
</g>
<g id="#d099a0ff">
<path fill="#d099a0" opacity="1.00" d=" M 70.77 91.77 C 71.85 89.68 73.52 89.88 75.02 91.02 C 75.67 91.58 76.33 92.14 77.00 92.69 C 72.04 96.14 67.53 100.25 62.23 103.23 C 60.41 104.49 57.53 106.55 58.88 109.04 C 57.23 109.06 55.58 109.10 53.93 109.03 C 53.53 107.99 52.45 106.63 53.73 105.74 C 58.79 100.38 65.57 97.00 70.77 91.77 Z" />
</g>
<g id="#c88e96ff">
<path fill="#c88e96" opacity="1.00" d=" M 62.23 103.23 C 67.53 100.25 72.04 96.14 77.00 92.69 L 77.80 93.07 C 78.56 93.68 79.32 94.30 80.07 94.92 C 76.58 99.68 70.71 101.72 65.98 105.00 C 62.61 105.15 64.57 107.49 64.93 108.96 C 62.91 108.98 60.89 109.03 58.88 109.04 C 57.53 106.55 60.41 104.49 62.23 103.23 Z" />
</g>
<g id="#f3c2c9ff">
<path fill="#f3c2c9" opacity="1.00" d=" M 77.80 93.07 C 80.58 93.13 83.37 93.18 86.16 93.22 C 84.63 94.45 82.75 95.05 80.83 95.28 L 80.07 94.92 C 79.32 94.30 78.56 93.68 77.80 93.07 Z" />
</g>
<g id="#f7e2e9fb">
<path fill="#f7e2e9" opacity="1.00" d=" M 31.92 104.93 C 33.38 104.81 34.82 104.56 36.26 104.35 C 35.79 105.56 34.56 105.96 33.54 106.58 C 31.37 113.92 22.96 117.02 16.05 118.11 C 13.67 117.91 15.34 113.76 16.30 112.28 C 20.12 107.88 26.13 105.32 31.92 104.93 Z" />
</g>
<g id="#fbebf1fd">
<path fill="#fbebf1" opacity="1.00" d=" M 72.06 110.04 C 76.16 108.17 80.27 105.79 84.85 105.47 C 87.21 106.46 89.96 107.55 91.16 109.97 C 88.88 114.06 86.04 117.81 83.73 121.88 C 77.56 123.38 66.97 117.16 72.06 110.04 Z" />
</g>
<g id="#c48f96fa">
<path fill="#c48f96" opacity="0.98" d=" M 48.40 110.38 C 50.55 111.48 56.93 109.06 57.18 112.97 L 57.08 113.92 C 51.61 114.59 46.22 117.67 40.62 116.70 C 42.45 113.84 45.76 112.39 48.40 110.38 Z" />
</g>
<g id="#816673c1">
<path fill="#816673" opacity="0.76" d=" M 60.96 110.49 C 63.08 109.56 65.38 109.40 67.86 110.00 C 66.88 112.10 62.84 111.28 60.96 110.49 Z" />
</g>
<g id="#ecc1c8fb">
<path fill="#ecc1c8" opacity="1.00" d=" M 91.16 109.97 C 92.57 110.39 93.29 111.71 93.22 113.14 C 92.97 113.62 92.48 114.59 92.23 115.07 C 89.40 116.37 87.60 118.97 86.78 121.91 C 86.01 121.90 84.49 121.88 83.73 121.88 C 86.04 117.81 88.88 114.06 91.16 109.97 Z" />
</g>
<g id="#b68c99ea">
<path fill="#b68c99" opacity="0.92" d=" M 93.22 113.14 L 94.03 112.87 C 95.34 117.11 94.24 121.13 89.87 121.97 C 90.73 119.69 91.66 117.44 92.23 115.07 C 92.48 114.59 92.97 113.62 93.22 113.14 Z" />
</g>
<g id="#d4a4aafe">
<path fill="#d4a4aa" opacity="1.00" d=" M 86.78 121.91 C 87.60 118.97 89.40 116.37 92.23 115.07 C 91.66 117.44 90.73 119.69 89.87 121.97 C 89.10 121.95 87.55 121.92 86.78 121.91 Z" />
</g>
<g id="#0c0a0a3a">
<path fill="#0c0a0a" opacity="0.23" d=" M 19.00 119.04 C 20.92 118.98 22.85 118.93 24.77 118.81 C 25.31 118.85 26.39 118.91 26.92 118.95 C 26.41 121.27 21.36 119.51 19.03 119.96 L 19.00 119.04 Z" />
</g>
</svg>
