<?xml version="1.0" encoding="UTF-8" ?>
<!DOCTYPE svg PUBLIC "-//W3C//DTD SVG 1.1//EN" "http://www.w3.org/Graphics/SVG/1.1/DTD/svg11.dtd">
<svg width="168pt" height="180pt" viewBox="0 0 168 180" version="1.1" xmlns="http://www.w3.org/2000/svg">
<g id="#ffffffff">
<path fill="#ffffff" opacity="1.00" d=" M 13.64 11.83 C 29.79 15.08 43.22 26.86 51.98 40.44 C 47.04 38.63 44.16 33.90 39.65 31.43 C 36.94 29.90 34.02 28.10 30.78 28.76 C 26.24 24.45 22.04 19.61 16.49 16.56 C 20.00 25.18 25.45 32.81 30.19 40.77 C 30.21 42.48 29.96 44.17 29.58 45.84 L 29.46 46.39 C 23.84 37.61 19.40 28.14 15.40 18.53 C 14.59 16.36 13.44 14.21 13.64 11.83 Z" />
<path fill="#ffffff" opacity="1.00" d=" M 98.61 159.64 C 102.88 156.14 108.99 156.96 113.75 154.39 C 115.00 156.14 116.15 157.97 117.28 159.80 C 112.06 158.67 106.12 156.97 101.30 160.28 C 98.68 161.35 97.97 164.20 96.92 166.53 C 96.43 164.07 96.99 161.57 98.61 159.64 Z" />
</g>
<g id="#3e343fff">
<path fill="#3e343f" opacity="1.00" d=" M 16.49 16.56 C 22.04 19.61 26.24 24.45 30.78 28.76 C 33.90 32.05 36.80 35.54 39.56 39.13 C 43.33 44.72 46.78 50.65 48.99 57.04 C 49.82 58.52 48.45 59.87 48.02 61.22 C 44.30 59.03 41.21 55.98 38.47 52.67 C 35.27 49.03 32.89 44.77 30.19 40.77 C 25.45 32.81 20.00 25.18 16.49 16.56 Z" />
<path fill="#3e343f" opacity="1.00" d=" M 49.65 71.52 C 51.72 70.36 54.02 69.71 56.37 69.44 C 56.57 69.87 56.99 70.75 57.20 71.18 C 52.82 68.93 48.28 72.64 46.28 76.38 C 43.69 81.42 42.73 88.50 47.02 92.91 C 49.56 95.64 54.11 94.98 56.61 92.53 C 62.14 87.59 64.09 77.83 58.73 72.07 C 59.15 72.34 59.98 72.87 60.40 73.13 C 60.74 73.37 61.42 73.86 61.76 74.10 C 63.99 80.50 62.41 87.90 57.83 92.88 C 55.60 94.85 52.50 96.44 49.50 95.34 C 47.07 94.57 45.77 92.27 44.58 90.21 C 42.61 83.72 44.80 76.20 49.65 71.52 Z" />
<path fill="#3e343f" opacity="1.00" d=" M 83.19 75.79 C 87.02 73.05 92.10 71.60 96.61 73.53 C 102.51 75.47 106.09 81.74 105.52 87.80 C 104.82 90.49 103.61 93.01 101.94 95.23 C 99.80 97.06 97.27 98.32 94.66 99.32 C 91.07 99.52 87.27 98.89 84.37 96.63 C 79.34 93.14 77.41 86.11 79.77 80.48 C 80.88 78.89 82.06 77.36 83.19 75.79 M 81.27 79.48 L 82.62 80.40 L 81.21 79.57 C 77.40 85.96 80.67 94.92 87.63 97.42 C 94.91 100.79 104.17 94.84 104.49 86.93 C 105.30 80.00 98.99 73.34 92.06 73.52 C 87.64 73.21 83.76 76.06 81.27 79.48 Z" />
</g>
<g id="#2e2e2e69">
<path fill="#2e2e2e" opacity="0.41" d=" M 159.35 24.00 C 159.56 22.08 163.57 22.23 164.12 23.89 C 162.53 24.07 160.93 23.98 159.35 24.00 Z" />
</g>
<g id="#f9d8d8ff">
<path fill="#f9d8d8" opacity="1.00" d=" M 155.02 24.79 C 156.45 24.47 157.88 24.17 159.35 24.00 C 160.93 23.98 162.53 24.07 164.12 23.89 C 162.84 29.84 158.72 34.63 155.38 39.56 C 155.43 37.89 155.40 36.22 155.39 34.55 C 157.12 32.46 158.66 30.20 159.68 27.67 C 155.59 28.38 151.68 29.79 147.78 31.18 C 147.99 30.53 148.40 29.21 148.61 28.56 C 152.01 27.15 155.64 26.41 159.11 25.19 C 157.75 25.02 156.38 24.89 155.02 24.79 Z" />
</g>
<g id="#5c5c5c92">
<path fill="#5c5c5c" opacity="0.57" d=" M 150.36 26.12 C 150.56 24.50 151.44 24.17 152.98 25.14 C 152.29 25.96 151.42 26.29 150.36 26.12 Z" />
</g>
<g id="#fcf5f7ff">
<path fill="#fcf5f7" opacity="1.00" d=" M 152.98 25.14 C 153.49 25.05 154.51 24.88 155.02 24.79 C 156.38 24.89 157.75 25.02 159.11 25.19 C 155.64 26.41 152.01 27.15 148.61 28.56 C 148.40 29.21 147.99 30.53 147.78 31.18 C 146.73 31.56 145.68 31.94 144.66 32.37 C 140.33 29.51 136.27 33.24 132.12 34.19 C 131.65 34.08 130.72 33.84 130.26 33.72 C 136.47 30.16 143.31 27.26 150.36 26.12 C 151.42 26.29 152.29 25.96 152.98 25.14 Z" />
</g>
<g id="#ffdee5ff">
<path fill="#ffdee5" opacity="1.00" d=" M 30.78 28.76 C 34.02 28.10 36.94 29.90 39.65 31.43 C 44.16 33.90 47.04 38.63 51.98 40.44 C 53.02 42.33 54.22 44.18 54.83 46.27 C 54.66 46.55 54.33 47.10 54.16 47.37 C 49.89 43.71 45.32 39.96 39.56 39.13 C 36.80 35.54 33.90 32.05 30.78 28.76 Z" />
</g>
<g id="#382e37ff">
<path fill="#382e37" opacity="1.00" d=" M 147.78 31.18 C 151.68 29.79 155.59 28.38 159.68 27.67 C 158.66 30.20 157.12 32.46 155.39 34.55 C 145.44 46.23 135.05 58.65 120.49 64.63 C 118.26 65.22 116.03 65.78 113.80 66.39 C 112.61 65.43 111.40 64.50 110.21 63.55 L 109.66 63.10 C 110.78 60.56 111.80 57.97 113.20 55.56 C 120.35 44.09 132.78 37.83 144.66 32.37 C 145.68 31.94 146.73 31.56 147.78 31.18 Z" />
<path fill="#382e37" opacity="1.00" d=" M 82.62 80.40 C 83.74 79.12 84.99 77.94 86.45 77.06 C 86.28 77.30 85.93 77.79 85.75 78.03 C 82.18 81.21 80.66 87.23 84.01 91.07 C 87.10 94.20 92.02 95.53 95.87 92.90 C 99.33 90.76 100.10 86.69 99.63 82.92 C 99.58 82.39 99.48 81.34 99.43 80.82 C 103.03 86.96 98.20 95.57 91.00 95.37 C 83.57 95.71 78.82 86.59 82.62 80.40 Z" />
<path fill="#382e37" opacity="1.00" d=" M 61.61 96.15 C 66.39 98.67 71.99 99.16 77.10 97.34 C 75.64 99.77 72.50 99.97 69.95 99.93 C 66.85 99.83 63.26 99.09 61.61 96.15 Z" />
<path fill="#382e37" opacity="1.00" d=" M 133.02 113.83 C 133.88 119.52 134.12 125.37 132.99 131.04 C 133.65 125.31 133.46 119.56 133.02 113.83 Z" />
</g>
<g id="#ffcfd9ff">
<path fill="#ffcfd9" opacity="1.00" d=" M 132.12 34.19 C 136.27 33.24 140.33 29.51 144.66 32.37 C 132.78 37.83 120.35 44.09 113.20 55.56 C 109.63 54.87 108.15 58.80 106.17 60.98 C 106.52 58.53 106.88 56.08 107.28 53.64 C 105.56 53.01 103.85 52.08 101.97 52.18 C 99.49 52.56 97.52 54.59 95.01 54.76 C 90.53 54.30 86.53 51.48 81.94 51.77 C 79.97 51.67 77.77 52.18 76.00 51.05 C 74.86 49.71 74.47 47.91 73.73 46.34 C 79.17 46.57 84.62 46.10 90.06 46.36 C 93.83 46.47 97.31 48.59 101.14 48.03 L 101.70 48.01 C 104.15 49.54 106.56 51.14 108.92 52.81 C 113.93 44.50 121.72 38.14 130.26 33.72 C 130.72 33.84 131.65 34.08 132.12 34.19 Z" />
</g>
<g id="#e4b5caff">
<path fill="#e4b5ca" opacity="1.00" d=" M 120.49 64.63 C 135.05 58.65 145.44 46.23 155.39 34.55 C 155.40 36.22 155.43 37.89 155.38 39.56 C 146.92 51.73 136.07 64.02 120.99 67.54 C 121.12 68.11 121.38 69.23 121.52 69.79 C 120.16 68.86 118.81 67.91 117.47 66.96 C 118.47 66.19 119.48 65.41 120.49 64.63 Z" />
<path fill="#e4b5ca" opacity="1.00" d=" M 128.73 132.68 C 130.43 127.12 129.44 121.02 131.91 115.67 C 132.98 125.38 130.84 135.29 125.59 143.54 C 124.48 145.14 122.98 146.58 122.60 148.57 L 122.52 148.83 C 119.98 151.24 116.88 152.88 113.75 154.39 C 108.99 156.96 102.88 156.14 98.61 159.64 L 99.47 158.08 C 94.32 158.60 89.16 159.10 83.98 158.90 C 88.55 157.47 93.39 157.85 98.10 157.50 C 96.15 157.35 94.19 157.20 92.23 157.14 L 91.73 156.25 C 96.78 156.34 102.01 156.91 106.90 155.29 C 117.44 152.27 126.28 143.44 128.73 132.68 Z" />
</g>
<g id="#ffc5d1ff">
<path fill="#ffc5d1" opacity="1.00" d=" M 39.56 39.13 C 45.32 39.96 49.89 43.71 54.16 47.37 C 52.02 50.82 50.76 54.83 51.36 58.91 C 51.82 61.00 50.44 62.60 49.25 64.11 C 44.33 62.06 39.55 59.41 35.96 55.40 C 36.80 54.49 37.64 53.58 38.47 52.67 C 41.21 55.98 44.30 59.03 48.02 61.22 C 48.45 59.87 49.82 58.52 48.99 57.04 C 46.78 50.65 43.33 44.72 39.56 39.13 Z" />
</g>
<g id="#fbdde1ff">
<path fill="#fbdde1" opacity="1.00" d=" M 30.19 40.77 C 32.89 44.77 35.27 49.03 38.47 52.67 C 37.64 53.58 36.80 54.49 35.96 55.40 C 33.74 52.34 30.44 49.46 29.58 45.84 C 29.96 44.17 30.21 42.48 30.19 40.77 Z" />
</g>
<g id="#ffd7dfff">
<path fill="#ffd7df" opacity="1.00" d=" M 56.32 45.12 C 60.38 41.57 66.81 40.28 71.32 43.76 C 67.02 45.33 61.94 46.03 58.64 49.46 C 55.19 55.56 56.97 62.79 56.37 69.44 C 54.02 69.71 51.72 70.36 49.65 71.52 C 49.29 68.32 51.48 65.83 53.65 63.80 C 53.10 60.29 52.47 56.66 53.31 53.14 C 53.98 50.44 56.30 48.31 56.29 45.43 L 56.32 45.12 Z" />
</g>
<g id="#10101040">
<path fill="#101010" opacity="0.25" d=" M 78.70 44.03 C 81.24 42.48 84.72 42.81 87.36 44.01 C 84.47 43.93 81.58 43.92 78.70 44.03 Z" />
</g>
<g id="#f6bac5ff">
<path fill="#f6bac5" opacity="1.00" d=" M 58.64 49.46 C 61.94 46.03 67.02 45.33 71.32 43.76 C 72.06 44.10 72.64 44.60 73.08 45.26 L 73.73 46.34 C 74.47 47.91 74.86 49.71 76.00 51.05 C 77.77 52.18 79.97 51.67 81.94 51.77 C 86.53 51.48 90.53 54.30 95.01 54.76 C 97.52 54.59 99.49 52.56 101.97 52.18 C 103.85 52.08 105.56 53.01 107.28 53.64 C 106.88 56.08 106.52 58.53 106.17 60.98 C 108.15 58.80 109.63 54.87 113.20 55.56 C 111.80 57.97 110.78 60.56 109.66 63.10 C 108.71 64.31 107.67 65.42 106.63 66.55 C 107.49 70.48 109.23 74.68 107.59 78.65 C 105.96 82.03 108.27 85.68 107.14 89.21 C 106.74 88.86 105.93 88.15 105.52 87.80 C 106.09 81.74 102.51 75.47 96.61 73.53 C 92.10 71.60 87.02 73.05 83.19 75.79 C 84.88 71.86 87.88 68.15 87.79 63.69 C 86.93 62.07 85.88 60.53 85.33 58.75 C 84.89 57.43 84.41 56.13 83.91 54.83 C 80.43 57.83 79.10 62.57 75.46 65.44 C 71.34 69.59 65.24 70.18 60.40 73.13 C 59.98 72.87 59.15 72.34 58.73 72.07 C 58.35 71.85 57.58 71.40 57.20 71.18 C 56.99 70.75 56.57 69.87 56.37 69.44 C 56.97 62.79 55.19 55.56 58.64 49.46 M 66.89 54.19 C 67.99 56.58 70.97 56.45 72.72 54.84 C 74.69 53.55 74.31 50.96 74.17 48.96 C 71.75 50.72 69.26 52.37 66.89 54.19 Z" />
</g>
<g id="#fffbfbff">
<path fill="#fffbfb" opacity="1.00" d=" M 73.08 45.26 C 74.96 44.91 76.82 44.44 78.70 44.03 C 81.58 43.92 84.47 43.93 87.36 44.01 C 92.13 44.65 96.84 45.80 101.14 48.03 C 97.31 48.59 93.83 46.47 90.06 46.36 C 84.62 46.10 79.17 46.57 73.73 46.34 L 73.08 45.26 Z" />
<path fill="#fffbfb" opacity="1.00" d=" M 46.28 76.38 C 48.28 72.64 52.82 68.93 57.20 71.18 C 57.58 71.40 58.35 71.85 58.73 72.07 C 64.09 77.83 62.14 87.59 56.61 92.53 C 54.11 94.98 49.56 95.64 47.02 92.91 C 42.73 88.50 43.69 81.42 46.28 76.38 M 49.57 75.11 L 49.64 75.41 C 48.90 76.05 48.33 76.79 47.94 77.62 C 45.54 81.95 45.16 88.87 50.03 91.63 C 54.35 93.38 58.18 89.32 59.51 85.59 C 60.99 81.55 60.87 75.67 56.66 73.33 C 54.17 71.95 51.53 73.62 49.57 75.11 Z" />
<path fill="#fffbfb" opacity="1.00" d=" M 37.62 114.72 C 41.23 117.83 39.73 123.04 40.48 127.20 C 42.07 124.39 42.61 121.18 43.46 118.11 C 45.64 126.63 50.52 135.69 46.54 144.48 C 39.74 136.26 37.72 125.12 37.62 114.72 Z" />
</g>
<g id="#fdeef2ff">
<path fill="#fdeef2" opacity="1.00" d=" M 54.83 46.27 L 56.29 45.43 C 56.30 48.31 53.98 50.44 53.31 53.14 C 52.47 56.66 53.10 60.29 53.65 63.80 C 51.48 65.83 49.29 68.32 49.65 71.52 C 44.80 76.20 42.61 83.72 44.58 90.21 C 43.11 92.31 41.74 94.48 40.41 96.67 C 35.96 95.86 32.31 99.34 28.58 101.18 L 26.87 101.10 C 30.20 98.00 34.48 96.41 38.66 94.83 C 41.78 84.48 43.46 73.43 49.25 64.11 C 50.44 62.60 51.82 61.00 51.36 58.91 C 50.76 54.83 52.02 50.82 54.16 47.37 C 54.33 47.10 54.66 46.55 54.83 46.27 Z" />
</g>
<g id="#e9a0adff">
<path fill="#e9a0ad" opacity="1.00" d=" M 66.89 54.19 C 69.26 52.37 71.75 50.72 74.17 48.96 C 74.31 50.96 74.69 53.55 72.72 54.84 C 70.97 56.45 67.99 56.58 66.89 54.19 Z" />
</g>
<g id="#d69fa4ff">
<path fill="#d69fa4" opacity="1.00" d=" M 75.46 65.44 C 79.10 62.57 80.43 57.83 83.91 54.83 C 84.41 56.13 84.89 57.43 85.33 58.75 C 85.53 61.55 85.38 64.43 84.23 67.03 C 84.22 65.62 84.20 64.20 84.15 62.79 C 81.66 66.01 79.61 69.84 75.94 71.90 C 73.69 73.21 71.40 74.48 69.39 76.14 C 67.51 75.84 65.65 75.41 63.81 74.92 C 63.30 74.72 62.27 74.31 61.76 74.10 C 61.42 73.86 60.74 73.37 60.40 73.13 C 65.24 70.18 71.34 69.59 75.46 65.44 Z" />
</g>
<g id="#f9a2b3ff">
<path fill="#f9a2b3" opacity="1.00" d=" M 85.33 58.75 C 85.88 60.53 86.93 62.07 87.79 63.69 C 87.88 68.15 84.88 71.86 83.19 75.79 C 82.06 77.36 80.88 78.89 79.77 80.48 C 77.76 80.44 75.91 81.25 74.01 81.78 C 69.70 81.89 63.82 80.18 63.81 74.92 C 65.65 75.41 67.51 75.84 69.39 76.14 C 71.82 76.43 74.39 76.60 76.68 75.57 C 80.38 74.09 82.56 70.45 84.23 67.03 C 85.38 64.43 85.53 61.55 85.33 58.75 Z" />
</g>
<g id="#ba7a7dff">
<path fill="#ba7a7d" opacity="1.00" d=" M 75.94 71.90 C 79.61 69.84 81.66 66.01 84.15 62.79 C 84.20 64.20 84.22 65.62 84.23 67.03 C 82.56 70.45 80.38 74.09 76.68 75.57 C 74.39 76.60 71.82 76.43 69.39 76.14 C 71.40 74.48 73.69 73.21 75.94 71.90 Z" />
</g>
<g id="#e1a6aeff">
<path fill="#e1a6ae" opacity="1.00" d=" M 106.63 66.55 C 107.67 65.42 108.71 64.31 109.66 63.10 L 110.21 63.55 C 110.64 65.24 110.11 66.90 109.56 68.49 C 112.31 68.98 115.02 68.18 117.47 66.96 C 118.81 67.91 120.16 68.86 121.52 69.79 L 121.74 69.94 C 122.33 71.72 123.24 73.43 123.55 75.29 C 123.50 76.61 123.27 77.95 123.59 79.25 C 126.04 88.53 128.84 97.77 130.25 107.30 C 126.64 107.86 127.40 113.65 123.75 114.81 C 118.62 116.34 113.14 115.01 107.95 114.34 C 108.44 116.63 109.29 118.80 110.00 121.02 C 110.01 123.73 108.89 126.26 108.10 128.80 L 107.30 127.60 C 104.41 122.09 101.44 116.62 97.73 111.59 C 98.79 107.53 99.68 103.38 101.79 99.70 C 102.77 98.32 102.42 96.72 101.94 95.23 C 103.61 93.01 104.82 90.49 105.52 87.80 C 105.93 88.15 106.74 88.86 107.14 89.21 C 108.27 85.68 105.96 82.03 107.59 78.65 C 109.23 74.68 107.49 70.48 106.63 66.55 M 111.94 98.06 C 112.47 98.02 113.54 97.94 114.08 97.89 C 109.41 101.04 105.90 107.33 109.33 112.66 C 114.11 112.35 119.63 113.77 123.73 110.65 C 125.10 108.27 125.39 105.42 126.31 102.85 C 126.74 103.13 127.60 103.69 128.03 103.96 C 128.13 99.06 125.65 94.75 123.17 90.71 C 119.41 93.15 114.85 94.48 111.94 98.06 Z" />
</g>
<g id="#b87a84ff">
<path fill="#b87a84" opacity="1.00" d=" M 110.21 63.55 C 111.40 64.50 112.61 65.43 113.80 66.39 C 116.03 65.78 118.26 65.22 120.49 64.63 C 119.48 65.41 118.47 66.19 117.47 66.96 C 115.02 68.18 112.31 68.98 109.56 68.49 C 110.11 66.90 110.64 65.24 110.21 63.55 Z" />
</g>
<g id="#006384ff">
<path fill="#006384" opacity="1.00" d=" M 49.57 75.11 C 51.53 73.62 54.17 71.95 56.66 73.33 C 60.87 75.67 60.99 81.55 59.51 85.59 C 58.18 89.32 54.35 93.38 50.03 91.63 C 45.16 88.87 45.54 81.95 47.94 77.62 C 47.79 81.25 47.68 84.91 48.33 88.50 C 50.32 91.61 54.98 91.33 56.56 88.00 C 58.62 85.43 59.00 82.14 58.99 78.95 C 57.37 80.17 55.92 81.77 53.96 82.45 C 50.32 82.12 50.54 78.03 49.64 75.41 L 49.57 75.11 M 54.32 75.34 C 53.07 76.39 52.97 79.54 55.10 79.59 C 56.19 79.09 56.93 78.28 57.33 77.16 C 58.13 75.17 55.47 73.41 54.32 75.34 Z" />
</g>
<g id="#f8bfcaff">
<path fill="#f8bfca" opacity="1.00" d=" M 61.76 74.10 C 62.27 74.31 63.30 74.72 63.81 74.92 C 63.82 80.18 69.70 81.89 74.01 81.78 C 75.91 81.25 77.76 80.44 79.77 80.48 C 77.41 86.11 79.34 93.14 84.37 96.63 C 87.27 98.89 91.07 99.52 94.66 99.32 C 93.24 100.17 91.80 101.01 90.34 101.79 C 90.50 102.90 90.66 104.00 90.83 105.11 C 88.78 102.98 86.60 100.97 84.20 99.25 C 77.86 93.72 68.33 90.50 60.34 94.13 C 59.71 93.82 58.45 93.19 57.83 92.88 C 62.41 87.90 63.99 80.50 61.76 74.10 Z" />
</g>
<g id="#ecececff">
<path fill="#ececec" opacity="1.00" d=" M 81.27 79.48 C 83.76 76.06 87.64 73.21 92.06 73.52 C 98.99 73.34 105.30 80.00 104.49 86.93 C 104.17 94.84 94.91 100.79 87.63 97.42 C 80.67 94.92 77.40 85.96 81.21 79.57 L 82.62 80.40 C 78.82 86.59 83.57 95.71 91.00 95.37 C 98.20 95.57 103.03 86.96 99.43 80.82 C 96.93 76.46 90.88 74.46 86.45 77.06 C 84.99 77.94 83.74 79.12 82.62 80.40 L 81.27 79.48 Z" />
</g>
<g id="#e7eef3ff">
<path fill="#e7eef3" opacity="1.00" d=" M 54.32 75.34 C 55.47 73.41 58.13 75.17 57.33 77.16 C 56.93 78.28 56.19 79.09 55.10 79.59 C 52.97 79.54 53.07 76.39 54.32 75.34 Z" />
</g>
<g id="#057f94ff">
<path fill="#057f94" opacity="1.00" d=" M 47.94 77.62 C 48.33 76.79 48.90 76.05 49.64 75.41 C 50.54 78.03 50.32 82.12 53.96 82.45 C 55.92 81.77 57.37 80.17 58.99 78.95 C 59.00 82.14 58.62 85.43 56.56 88.00 C 53.82 87.24 50.86 86.97 48.33 88.50 C 47.68 84.91 47.79 81.25 47.94 77.62 Z" />
</g>
<g id="#046683ff">
<path fill="#046683" opacity="1.00" d=" M 86.45 77.06 C 90.88 74.46 96.93 76.46 99.43 80.82 C 99.48 81.34 99.58 82.39 99.63 82.92 C 97.39 85.01 94.75 87.98 91.33 86.65 C 87.47 85.67 87.05 81.13 85.75 78.03 C 85.93 77.79 86.28 77.30 86.45 77.06 M 92.27 78.50 C 89.73 80.50 92.93 84.31 95.50 82.49 C 98.22 80.48 94.75 76.42 92.27 78.50 Z" />
</g>
<g id="#e7d2d5ff">
<path fill="#e7d2d5" opacity="1.00" d=" M 123.59 79.25 C 123.27 77.95 123.50 76.61 123.55 75.29 C 127.71 87.84 131.03 100.75 133.02 113.83 C 133.46 119.56 133.65 125.31 132.99 131.04 C 131.15 137.60 128.09 144.30 122.60 148.57 C 122.98 146.58 124.48 145.14 125.59 143.54 C 130.84 135.29 132.98 125.38 131.91 115.67 C 131.91 112.79 130.92 110.06 130.25 107.30 C 128.84 97.77 126.04 88.53 123.59 79.25 Z" />
<path fill="#e7d2d5" opacity="1.00" d=" M 82.65 105.83 C 83.02 103.58 81.38 100.39 84.20 99.25 C 86.60 100.97 88.78 102.98 90.83 105.11 C 93.11 107.48 95.30 109.93 97.51 112.37 C 96.16 117.34 95.66 122.61 93.15 127.20 C 89.01 134.75 82.39 141.10 74.30 144.21 C 69.20 146.11 64.41 148.75 59.97 151.88 C 67.49 155.51 76.03 157.71 84.41 157.16 C 87.02 157.19 89.62 157.13 92.23 157.14 C 94.19 157.20 96.15 157.35 98.10 157.50 C 93.39 157.85 88.55 157.47 83.98 158.90 C 78.35 162.34 71.53 162.94 65.26 164.64 C 67.43 162.70 70.31 162.03 73.01 161.16 C 74.75 160.62 76.43 159.89 78.04 159.03 C 75.58 158.26 73.05 157.74 70.52 157.34 C 68.52 156.68 66.53 155.97 64.51 155.39 C 63.11 154.97 61.71 154.55 60.31 154.13 C 57.72 152.84 54.98 151.84 52.47 150.39 C 54.88 148.47 56.93 146.18 58.90 143.84 C 62.36 139.85 67.11 137.42 71.21 134.22 C 74.65 130.55 75.63 125.39 78.20 121.17 C 81.12 116.61 82.02 111.11 82.65 105.83 Z" />
</g>
<g id="#eff5f8ff">
<path fill="#eff5f8" opacity="1.00" d=" M 92.27 78.50 C 94.75 76.42 98.22 80.48 95.50 82.49 C 92.93 84.31 89.73 80.50 92.27 78.50 Z" />
</g>
<g id="#067f93ff">
<path fill="#067f93" opacity="1.00" d=" M 84.01 91.07 C 80.66 87.23 82.18 81.21 85.75 78.03 C 87.05 81.13 87.47 85.67 91.33 86.65 C 94.75 87.98 97.39 85.01 99.63 82.92 C 100.10 86.69 99.33 90.76 95.87 92.90 C 92.61 89.96 88.01 89.78 84.01 91.07 Z" />
</g>
<g id="#88c3ccff">
<path fill="#88c3cc" opacity="1.00" d=" M 48.33 88.50 C 50.86 86.97 53.82 87.24 56.56 88.00 C 54.98 91.33 50.32 91.61 48.33 88.50 Z" />
</g>
<g id="#6eb8beff">
<path fill="#6eb8be" opacity="1.00" d=" M 84.01 91.07 C 88.01 89.78 92.61 89.96 95.87 92.90 C 92.02 95.53 87.10 94.20 84.01 91.07 Z" />
</g>
<g id="#ffd6deff">
<path fill="#ffd6de" opacity="1.00" d=" M 40.41 96.67 C 41.74 94.48 43.11 92.31 44.58 90.21 C 45.77 92.27 47.07 94.57 49.50 95.34 C 52.50 96.44 55.60 94.85 57.83 92.88 C 58.45 93.19 59.71 93.82 60.34 94.13 C 57.08 96.17 53.77 98.25 51.25 101.20 C 46.80 105.42 44.92 111.37 42.59 116.86 C 41.88 115.63 41.18 114.40 40.47 113.18 C 40.73 111.44 41.03 109.71 41.27 107.96 C 41.44 106.27 41.34 104.56 41.17 102.88 C 40.91 100.81 40.62 98.74 40.41 96.67 Z" />
</g>
<g id="#d39a9eff">
<path fill="#d39a9e" opacity="1.00" d=" M 111.94 98.06 C 114.85 94.48 119.41 93.15 123.17 90.71 C 125.65 94.75 128.13 99.06 128.03 103.96 C 127.60 103.69 126.74 103.13 126.31 102.85 C 122.80 100.24 118.83 96.47 114.08 97.89 C 113.54 97.94 112.47 98.02 111.94 98.06 Z" />
</g>
<g id="#f2e0e5ff">
<path fill="#f2e0e5" opacity="1.00" d=" M 60.34 94.13 C 68.33 90.50 77.86 93.72 84.20 99.25 C 81.38 100.39 83.02 103.58 82.65 105.83 C 82.02 111.11 81.12 116.61 78.20 121.17 C 75.63 125.39 74.65 130.55 71.21 134.22 C 67.11 137.42 62.36 139.85 58.90 143.84 C 56.93 146.18 54.88 148.47 52.47 150.39 C 50.59 148.70 48.74 146.97 47.07 145.07 C 48.58 144.97 50.08 144.83 51.58 144.67 C 51.81 140.58 52.89 136.66 54.22 132.82 C 52.62 127.20 53.55 121.32 52.56 115.61 C 51.72 110.83 52.99 105.83 51.25 101.20 C 53.77 98.25 57.08 96.17 60.34 94.13 M 61.61 96.15 C 63.26 99.09 66.85 99.83 69.95 99.93 C 72.50 99.97 75.64 99.77 77.10 97.34 C 71.99 99.16 66.39 98.67 61.61 96.15 Z" />
</g>
<g id="#fbbac8ff">
<path fill="#fbbac8" opacity="1.00" d=" M 28.58 101.18 C 32.31 99.34 35.96 95.86 40.41 96.67 C 40.62 98.74 40.91 100.81 41.17 102.88 C 35.07 106.29 29.39 110.41 23.93 114.76 C 24.17 115.38 24.64 116.64 24.87 117.27 C 23.63 117.12 22.40 116.94 21.16 116.74 L 21.25 116.46 C 22.93 111.06 24.89 105.57 28.58 101.18 Z" />
</g>
<g id="#eab8c1ff">
<path fill="#eab8c1" opacity="1.00" d=" M 94.66 99.32 C 97.27 98.32 99.80 97.06 101.94 95.23 C 102.42 96.72 102.77 98.32 101.79 99.70 C 99.68 103.38 98.79 107.53 97.73 111.59 L 97.51 112.37 C 95.30 109.93 93.11 107.48 90.83 105.11 C 90.66 104.00 90.50 102.90 90.34 101.79 C 91.80 101.01 93.24 100.17 94.66 99.32 Z" />
</g>
<g id="#f7b5c2ff">
<path fill="#f7b5c2" opacity="1.00" d=" M 114.08 97.89 C 118.83 96.47 122.80 100.24 126.31 102.85 C 125.39 105.42 125.10 108.27 123.73 110.65 C 119.63 113.77 114.11 112.35 109.33 112.66 C 105.90 107.33 109.41 101.04 114.08 97.89 Z" />
</g>
<g id="#ffd5dcff">
<path fill="#ffd5dc" opacity="1.00" d=" M 21.16 107.10 C 22.92 105.05 24.53 102.31 26.87 101.10 L 28.58 101.18 C 24.89 105.57 22.93 111.06 21.25 116.46 C 17.37 114.59 19.10 109.71 21.16 107.10 Z" />
</g>
<g id="#ffebeeff">
<path fill="#ffebee" opacity="1.00" d=" M 42.59 116.86 C 44.92 111.37 46.80 105.42 51.25 101.20 C 52.99 105.83 51.72 110.83 52.56 115.61 C 53.55 121.32 52.62 127.20 54.22 132.82 C 52.89 136.66 51.81 140.58 51.58 144.67 C 50.08 144.83 48.58 144.97 47.07 145.07 L 46.32 145.12 L 46.54 144.48 C 50.52 135.69 45.64 126.63 43.46 118.11 C 42.61 121.18 42.07 124.39 40.48 127.20 C 39.73 123.04 41.23 117.83 37.62 114.72 C 38.58 114.22 39.53 113.71 40.47 113.18 C 41.18 114.40 41.88 115.63 42.59 116.86 Z" />
</g>
<g id="#edacb7ff">
<path fill="#edacb7" opacity="1.00" d=" M 23.93 114.76 C 29.39 110.41 35.07 106.29 41.17 102.88 C 41.34 104.56 41.44 106.27 41.27 107.96 C 36.73 109.62 32.39 111.78 28.27 114.29 C 28.94 114.88 29.61 115.46 30.28 116.05 C 28.47 116.40 26.66 116.79 24.87 117.27 C 24.64 116.64 24.17 115.38 23.93 114.76 Z" />
</g>
<g id="#c69497ff">
<path fill="#c69497" opacity="1.00" d=" M 123.75 114.81 C 127.40 113.65 126.64 107.86 130.25 107.30 C 130.92 110.06 131.91 112.79 131.91 115.67 C 129.44 121.02 130.43 127.12 128.73 132.68 C 126.28 143.44 117.44 152.27 106.90 155.29 C 102.01 156.91 96.78 156.34 91.73 156.25 C 88.47 155.84 85.23 155.37 82.03 154.63 C 84.13 153.44 86.32 152.39 88.61 151.62 C 95.39 149.33 101.95 146.04 107.28 141.21 C 110.93 138.05 109.44 132.72 108.10 128.80 C 108.89 126.26 110.01 123.73 110.00 121.02 C 109.29 118.80 108.44 116.63 107.95 114.34 C 113.14 115.01 118.62 116.34 123.75 114.81 M 123.46 133.01 C 119.21 138.36 112.03 140.62 108.69 146.74 C 106.64 150.28 102.25 150.81 99.00 152.74 C 102.23 153.35 105.75 154.42 108.90 152.89 C 114.61 150.48 120.23 146.49 122.38 140.42 C 123.08 138.09 124.95 135.39 123.46 133.01 Z" />
</g>
<g id="#d6949bff">
<path fill="#d6949b" opacity="1.00" d=" M 28.27 114.29 C 32.39 111.78 36.73 109.62 41.27 107.96 C 41.03 109.71 40.73 111.44 40.47 113.18 C 39.53 113.71 38.58 114.22 37.62 114.72 C 35.19 115.26 32.70 115.46 30.28 116.05 C 29.61 115.46 28.94 114.88 28.27 114.29 Z" />
</g>
<g id="#d8bfc0ff">
<path fill="#d8bfc0" opacity="1.00" d=" M 97.51 112.37 L 97.73 111.59 C 101.44 116.62 104.41 122.09 107.30 127.60 C 105.26 132.75 101.48 136.79 97.59 140.60 C 89.70 146.94 79.73 149.53 70.74 153.81 C 75.00 155.98 79.84 156.08 84.41 157.16 C 76.03 157.71 67.49 155.51 59.97 151.88 C 64.41 148.75 69.20 146.11 74.30 144.21 C 82.39 141.10 89.01 134.75 93.15 127.20 C 95.66 122.61 96.16 117.34 97.51 112.37 Z" />
</g>
<g id="#caacabff">
<path fill="#caacab" opacity="1.00" d=" M 107.30 127.60 L 108.10 128.80 C 109.44 132.72 110.93 138.05 107.28 141.21 C 101.95 146.04 95.39 149.33 88.61 151.62 C 86.32 152.39 84.13 153.44 82.03 154.63 C 85.23 155.37 88.47 155.84 91.73 156.25 L 92.23 157.14 C 89.62 157.13 87.02 157.19 84.41 157.16 C 79.84 156.08 75.00 155.98 70.74 153.81 C 79.73 149.53 89.70 146.94 97.59 140.60 C 101.48 136.79 105.26 132.75 107.30 127.60 Z" />
</g>
<g id="#ba8284ff">
<path fill="#ba8284" opacity="1.00" d=" M 123.46 133.01 C 124.95 135.39 123.08 138.09 122.38 140.42 C 120.23 146.49 114.61 150.48 108.90 152.89 C 105.75 154.42 102.23 153.35 99.00 152.74 C 102.25 150.81 106.64 150.28 108.69 146.74 C 112.03 140.62 119.21 138.36 123.46 133.01 Z" />
</g>
<g id="#fef8fbff">
<path fill="#fef8fb" opacity="1.00" d=" M 60.31 154.13 C 61.71 154.55 63.11 154.97 64.51 155.39 C 60.86 156.99 56.83 156.34 52.98 156.31 C 49.70 156.29 46.45 155.87 43.26 155.16 C 48.86 153.67 54.63 154.69 60.31 154.13 Z" />
</g>
<g id="#fcd2daff">
<path fill="#fcd2da" opacity="1.00" d=" M 34.87 164.06 C 33.94 159.26 38.96 155.54 43.26 155.16 C 46.45 155.87 49.70 156.29 52.98 156.31 C 56.83 156.34 60.86 156.99 64.51 155.39 C 66.53 155.97 68.52 156.68 70.52 157.34 C 64.46 159.14 57.68 158.64 52.20 162.18 C 48.83 164.29 45.16 166.01 41.14 166.38 C 42.62 166.91 44.08 167.46 45.56 167.98 C 43.64 167.99 41.72 168.06 39.80 168.08 C 37.78 167.43 35.21 166.48 34.87 164.06 Z" />
</g>
<g id="#e0b6bafe">
<path fill="#e0b6ba" opacity="1.00" d=" M 52.20 162.18 C 57.68 158.64 64.46 159.14 70.52 157.34 C 73.05 157.74 75.58 158.26 78.04 159.03 C 76.43 159.89 74.75 160.62 73.01 161.16 C 73.69 160.38 74.35 159.58 74.99 158.77 C 69.63 159.06 64.50 160.88 59.39 162.39 C 54.49 163.73 51.09 169.00 45.56 167.98 C 44.08 167.46 42.62 166.91 41.14 166.38 C 45.16 166.01 48.83 164.29 52.20 162.18 Z" />
</g>
<g id="#f8cfd7ff">
<path fill="#f8cfd7" opacity="1.00" d=" M 101.30 160.28 C 106.12 156.97 112.06 158.67 117.28 159.80 L 118.00 159.94 L 118.31 161.05 C 114.36 165.80 108.10 168.08 102.27 169.55 C 103.20 169.88 104.12 170.22 105.05 170.55 C 104.24 170.74 102.63 171.11 101.82 171.30 C 100.59 170.47 99.35 169.66 98.13 168.82 C 97.74 168.05 97.33 167.29 96.92 166.53 C 97.97 164.20 98.68 161.35 101.30 160.28 Z" />
</g>
<g id="#bd8f8fff">
<path fill="#bd8f8f" opacity="1.00" d=" M 59.39 162.39 C 64.50 160.88 69.63 159.06 74.99 158.77 C 74.35 159.58 73.69 160.38 73.01 161.16 C 70.31 162.03 67.43 162.70 65.26 164.64 C 57.24 167.64 48.36 169.33 39.80 168.08 C 41.72 168.06 43.64 167.99 45.56 167.98 C 51.09 169.00 54.49 163.73 59.39 162.39 Z" />
</g>
<g id="#e8bec4ff">
<path fill="#e8bec4" opacity="1.00" d=" M 118.31 161.05 C 120.04 162.58 119.86 164.89 119.44 166.96 C 119.25 166.23 118.89 164.78 118.70 164.06 C 116.53 166.37 114.11 168.43 111.52 170.27 C 112.65 170.63 113.78 170.97 114.91 171.31 C 110.58 172.15 106.14 172.27 101.82 171.30 C 102.63 171.11 104.24 170.74 105.05 170.55 C 104.12 170.22 103.20 169.88 102.27 169.55 C 108.10 168.08 114.36 165.80 118.31 161.05 Z" />
</g>
<g id="#d4a7abfe">
<path fill="#d4a7ab" opacity="1.00" d=" M 111.52 170.27 C 114.11 168.43 116.53 166.37 118.70 164.06 C 118.89 164.78 119.25 166.23 119.44 166.96 C 118.70 169.04 116.72 170.24 114.91 171.31 C 113.78 170.97 112.65 170.63 111.52 170.27 Z" />
</g>
</svg>
