<?xml version="1.0" encoding="UTF-8" ?>
<!DOCTYPE svg PUBLIC "-//W3C//DTD SVG 1.1//EN" "http://www.w3.org/Graphics/SVG/1.1/DTD/svg11.dtd">
<svg width="180pt" height="124pt" viewBox="0 0 180 124" version="1.1" xmlns="http://www.w3.org/2000/svg">
<g id="#4eb9e4f9">
<path fill="#4eb9e4" opacity="0.98" d=" M 143.09 13.04 C 143.32 13.26 143.78 13.69 144.01 13.91 C 144.13 16.92 144.43 19.93 144.53 22.94 C 140.95 21.95 137.33 23.06 133.76 22.46 C 137.55 20.08 145.35 20.28 143.09 13.04 Z" />
</g>
<g id="#4894c3fa">
<path fill="#4894c3" opacity="0.98" d=" M 144.01 13.91 L 144.72 14.29 C 147.98 25.45 151.87 36.51 153.98 47.92 C 154.37 58.29 161.26 67.91 160.46 78.26 C 158.73 73.47 157.63 68.47 155.12 63.99 C 155.45 58.35 152.92 53.25 150.85 48.19 C 149.91 39.80 146.65 32.00 144.57 23.89 L 144.53 22.94 C 144.43 19.93 144.13 16.92 144.01 13.91 Z" />
</g>
<g id="#3b7da8ee">
<path fill="#3b7da8" opacity="0.93" d=" M 18.78 20.91 C 18.25 18.60 22.29 18.15 20.71 20.70 C 15.20 36.74 9.99 53.11 9.03 70.18 L 8.81 70.98 C 7.29 73.32 7.10 75.69 8.26 78.08 C 8.10 79.31 7.95 80.54 7.81 81.78 C 7.27 84.89 6.98 88.06 7.19 91.22 C 7.06 93.08 6.96 94.94 6.83 96.79 C 6.44 98.16 5.65 100.88 5.25 102.24 C 4.64 74.69 8.98 46.72 18.78 20.91 Z" />
</g>
<g id="#2a5b83fc">
<path fill="#2a5b83" opacity="1.00" d=" M 9.03 70.18 C 9.99 53.11 15.20 36.74 20.71 20.70 C 23.12 22.61 25.73 24.42 28.98 24.11 L 28.84 24.78 C 28.31 25.05 27.24 25.57 26.71 25.84 C 32.63 27.71 39.92 24.95 45.11 28.85 C 39.34 28.54 33.57 27.84 27.78 28.17 C 26.12 28.15 22.80 28.11 21.14 28.09 C 14.37 41.17 12.95 56.15 9.03 70.18 Z" />
</g>
<g id="#4091bef7">
<path fill="#4091be" opacity="0.97" d=" M 130.92 24.91 C 131.74 24.08 132.40 22.20 133.76 22.46 C 137.33 23.06 140.95 21.95 144.53 22.94 C 142.32 23.41 140.12 23.87 137.87 24.05 C 135.54 24.27 133.23 24.56 130.92 24.91 Z" />
</g>
<g id="#45476fff">
<path fill="#45476f" opacity="1.00" d=" M 137.87 24.05 C 140.12 23.87 142.32 23.41 144.53 22.94 L 144.57 23.89 C 142.63 25.71 137.62 25.41 140.12 28.99 C 138.43 27.99 136.65 26.07 137.87 24.05 Z" />
</g>
<g id="#3776a1fb">
<path fill="#3776a1" opacity="1.00" d=" M 130.92 24.91 C 133.23 24.56 135.54 24.27 137.87 24.05 C 136.65 26.07 138.43 27.99 140.12 28.99 C 140.36 30.39 140.57 31.82 140.34 33.24 C 138.96 31.36 137.66 29.42 136.35 27.49 C 135.68 25.26 133.38 26.29 131.93 27.00 C 129.63 26.33 127.51 27.82 127.22 30.16 C 125.21 31.55 123.11 32.77 120.97 33.94 C 120.47 33.96 119.47 34.00 118.97 34.02 C 121.13 29.95 126.30 28.73 129.30 25.31 C 129.70 25.21 130.51 25.01 130.92 24.91 Z" />
</g>
<g id="#996eb0ff">
<path fill="#996eb0" opacity="1.00" d=" M 144.57 23.89 C 146.65 32.00 149.91 39.80 150.85 48.19 C 147.24 41.81 144.73 34.78 140.12 28.99 C 137.62 25.41 142.63 25.71 144.57 23.89 Z" />
</g>
<g id="#34709bf4">
<path fill="#34709b" opacity="0.96" d=" M 26.71 25.84 C 27.24 25.57 28.31 25.05 28.84 24.78 C 30.64 24.95 34.24 25.29 36.04 25.46 C 38.29 26.17 40.56 26.36 42.84 26.00 C 44.17 26.22 47.00 26.37 46.96 28.10 C 46.96 28.56 46.97 29.49 46.98 29.96 L 46.22 29.53 C 45.94 29.36 45.39 29.02 45.11 28.85 C 39.92 24.95 32.63 27.71 26.71 25.84 Z" />
</g>
<g id="#1a334397">
<path fill="#1a3343" opacity="0.59" d=" M 36.04 25.46 C 37.86 24.62 42.07 23.76 42.84 26.00 C 40.56 26.36 38.29 26.17 36.04 25.46 Z" />
</g>
<g id="#293154ff">
<path fill="#293154" opacity="1.00" d=" M 131.93 27.00 C 133.38 26.29 135.68 25.26 136.35 27.49 C 135.41 27.35 134.55 27.49 133.77 27.90 C 130.77 29.81 127.78 31.74 124.90 33.81 C 120.63 36.16 117.81 40.14 115.10 44.05 C 112.58 47.27 108.04 49.60 107.70 54.08 C 106.79 53.31 105.87 52.55 104.92 51.83 C 105.23 51.44 105.84 50.66 106.15 50.27 C 111.59 45.30 116.37 39.68 120.97 33.94 C 123.11 32.77 125.21 31.55 127.22 30.16 C 129.19 29.86 130.65 28.41 131.93 27.00 Z" />
</g>
<g id="#2e5782ff">
<path fill="#2e5782" opacity="1.00" d=" M 127.22 30.16 C 127.51 27.82 129.63 26.33 131.93 27.00 C 130.65 28.41 129.19 29.86 127.22 30.16 Z" />
</g>
<g id="#7a548efc">
<path fill="#7a548e" opacity="1.00" d=" M 133.77 27.90 C 134.55 27.49 135.41 27.35 136.35 27.49 C 137.66 29.42 138.96 31.36 140.34 33.24 C 144.49 42.19 150.58 50.42 152.98 60.10 C 149.62 58.14 148.29 54.09 145.27 51.74 C 142.65 48.94 138.97 47.47 136.19 44.86 C 135.24 39.22 134.00 33.63 133.77 27.90 Z" />
</g>
<g id="#31294bfd">
<path fill="#31294b" opacity="1.00" d=" M 21.14 28.09 C 22.80 28.11 26.12 28.15 27.78 28.17 C 31.79 28.73 35.84 28.75 39.86 29.18 C 40.94 44.76 46.03 60.18 55.10 72.94 C 55.08 74.45 53.06 74.22 52.09 74.84 C 52.05 73.65 51.87 72.49 51.57 71.35 C 44.46 60.61 40.29 47.92 38.90 35.15 C 38.58 32.27 40.80 26.53 34.00 30.02 C 30.00 30.46 26.12 29.62 22.20 29.11 C 20.53 32.67 18.93 36.30 18.02 40.14 C 12.62 57.19 10.07 74.99 8.77 92.78 C 8.57 99.04 6.37 106.15 8.86 112.12 C 9.02 112.40 9.34 112.95 9.50 113.23 C 10.02 115.28 5.73 120.70 6.31 116.26 C 7.31 109.82 7.06 103.28 6.83 96.79 C 6.96 94.94 7.06 93.08 7.19 91.22 C 7.70 88.09 8.01 84.94 7.81 81.78 C 7.95 80.54 8.10 79.31 8.26 78.08 C 9.70 75.74 9.88 73.38 8.81 70.98 L 9.03 70.18 C 12.95 56.15 14.37 41.17 21.14 28.09 Z" />
</g>
<g id="#244e78ff">
<path fill="#244e78" opacity="1.00" d=" M 27.78 28.17 C 33.57 27.84 39.34 28.54 45.11 28.85 C 45.39 29.02 45.94 29.36 46.22 29.53 C 45.70 29.71 44.68 30.05 44.16 30.22 C 42.88 45.05 48.32 59.60 55.99 72.03 L 56.06 73.01 L 55.10 72.94 C 46.03 60.18 40.94 44.76 39.86 29.18 C 35.84 28.75 31.79 28.73 27.78 28.17 Z" />
</g>
<g id="#3d83aff9">
<path fill="#3d83af" opacity="0.98" d=" M 46.96 28.10 C 54.23 28.85 62.09 29.39 68.19 33.83 C 70.15 35.45 72.30 36.81 74.29 38.40 C 73.35 39.96 72.29 41.44 71.13 42.84 C 71.02 41.19 69.58 40.35 68.33 39.56 C 66.36 38.20 64.37 36.87 62.26 35.74 C 61.77 35.46 60.79 34.91 60.29 34.64 C 56.43 31.86 51.72 30.81 47.01 30.81 L 46.98 29.96 C 46.97 29.49 46.96 28.56 46.96 28.10 Z" />
</g>
<g id="#4899c8f4">
<path fill="#4899c8" opacity="0.96" d=" M 88.16 35.19 C 92.00 31.12 97.53 27.46 103.30 28.30 C 97.89 30.67 91.93 32.10 88.12 37.08 L 88.11 36.10 L 88.16 35.19 Z" />
</g>
<g id="#29547cf6">
<path fill="#29547c" opacity="0.96" d=" M 103.30 28.30 C 107.77 27.66 107.76 35.39 108.08 38.09 L 107.22 37.90 C 106.85 36.18 106.35 34.49 105.77 32.83 C 105.46 32.04 104.99 31.36 104.34 30.78 C 102.24 29.30 99.43 32.04 97.08 32.34 C 93.54 35.04 88.08 37.06 87.66 42.03 C 87.30 40.97 86.96 39.89 86.64 38.82 C 87.01 38.38 87.75 37.51 88.12 37.08 C 91.93 32.10 97.89 30.67 103.30 28.30 Z" />
</g>
<g id="#5f3f73fd">
<path fill="#5f3f73" opacity="1.00" d=" M 124.90 33.81 C 127.78 31.74 130.77 29.81 133.77 27.90 C 134.00 33.63 135.24 39.22 136.19 44.86 C 131.96 44.32 127.79 43.87 123.69 45.23 C 122.31 41.26 124.01 37.58 124.90 33.81 Z" />
</g>
<g id="#5b3c70ff">
<path fill="#5b3c70" opacity="1.00" d=" M 22.20 29.11 C 26.12 29.62 30.00 30.46 34.00 30.02 C 40.80 26.53 38.58 32.27 38.90 35.15 C 38.24 34.19 37.61 33.22 36.87 32.32 C 32.90 34.30 28.46 33.31 24.24 33.17 C 22.02 35.36 20.13 37.85 18.02 40.14 C 18.93 36.30 20.53 32.67 22.20 29.11 Z" />
</g>
<g id="#435e8efe">
<path fill="#435e8e" opacity="1.00" d=" M 140.12 28.99 C 144.73 34.78 147.24 41.81 150.85 48.19 C 152.92 53.25 155.45 58.35 155.12 63.99 C 153.35 63.90 153.57 61.35 152.98 60.10 C 150.58 50.42 144.49 42.19 140.34 33.24 C 140.57 31.82 140.36 30.39 140.12 28.99 Z" />
</g>
<g id="#302849fc">
<path fill="#302849" opacity="1.00" d=" M 44.16 30.22 C 44.68 30.05 45.70 29.71 46.22 29.53 L 46.98 29.96 L 47.01 30.81 C 43.74 30.44 45.42 34.29 45.22 36.23 C 46.03 47.70 50.53 58.37 55.21 68.71 C 55.63 68.55 56.48 68.23 56.90 68.07 C 56.57 69.22 58.05 72.48 55.99 72.03 C 48.32 59.60 42.88 45.05 44.16 30.22 Z" />
</g>
<g id="#573765ff">
<path fill="#573765" opacity="1.00" d=" M 97.08 32.34 C 99.43 32.04 102.24 29.30 104.34 30.78 C 101.65 33.27 100.21 36.31 101.12 40.20 C 101.06 41.74 99.13 44.59 102.00 44.15 L 101.79 44.81 C 101.23 45.12 100.10 45.73 99.54 46.03 C 97.05 47.54 95.72 44.80 93.98 43.47 L 93.67 42.77 C 95.15 39.93 97.87 38.15 100.09 35.95 C 99.19 34.66 98.11 33.52 97.08 32.34 Z" />
</g>
<g id="#44345eff">
<path fill="#44345e" opacity="1.00" d=" M 45.22 36.23 C 45.42 34.29 43.74 30.44 47.01 30.81 C 51.72 30.81 56.43 31.86 60.29 34.64 C 56.84 34.40 53.40 33.97 49.94 33.99 C 50.77 36.01 52.11 37.74 53.79 39.13 C 54.92 40.39 56.03 41.66 57.13 42.95 C 52.00 41.69 49.83 36.54 47.72 32.26 C 45.28 31.18 46.03 34.86 45.22 36.23 Z" />
</g>
<g id="#724882ff">
<path fill="#724882" opacity="1.00" d=" M 104.34 30.78 C 104.99 31.36 105.46 32.04 105.77 32.83 C 103.81 35.00 102.26 37.51 101.12 40.20 C 100.21 36.31 101.65 33.27 104.34 30.78 Z" />
</g>
<g id="#624277fe">
<path fill="#624277" opacity="1.00" d=" M 24.24 33.17 C 28.46 33.31 32.90 34.30 36.87 32.32 C 37.61 33.22 38.24 34.19 38.90 35.15 C 40.29 47.92 44.46 60.61 51.57 71.35 C 51.87 72.49 52.05 73.65 52.09 74.84 C 41.03 82.04 29.59 88.83 20.21 98.21 C 16.10 102.83 13.74 108.73 9.50 113.23 C 9.34 112.95 9.02 112.40 8.86 112.12 C 8.95 105.68 9.09 99.22 8.77 92.78 C 10.07 74.99 12.62 57.19 18.02 40.14 C 20.13 37.85 22.02 35.36 24.24 33.17 Z" />
</g>
<g id="#603f72fd">
<path fill="#603f72" opacity="1.00" d=" M 45.22 36.23 C 46.03 34.86 45.28 31.18 47.72 32.26 C 49.83 36.54 52.00 41.69 57.13 42.95 C 59.72 44.01 62.29 45.10 64.91 46.09 C 64.31 45.04 63.64 44.04 63.08 42.97 C 64.48 41.35 66.50 40.57 68.33 39.56 C 69.58 40.35 71.02 41.19 71.13 42.84 C 69.43 44.43 68.82 46.58 68.94 48.85 C 67.92 48.73 66.42 47.38 65.66 48.66 C 61.06 54.07 57.59 60.93 56.90 68.07 C 56.48 68.23 55.63 68.55 55.21 68.71 C 50.53 58.37 46.03 47.70 45.22 36.23 Z" />
</g>
<g id="#36284eff">
<path fill="#36284e" opacity="1.00" d=" M 87.66 42.03 C 88.08 37.06 93.54 35.04 97.08 32.34 C 98.11 33.52 99.19 34.66 100.09 35.95 C 97.87 38.15 95.15 39.93 93.67 42.77 C 92.45 42.55 91.23 42.28 90.00 42.16 C 89.41 42.13 88.25 42.06 87.66 42.03 Z" />
</g>
<g id="#835b98ff">
<path fill="#835b98" opacity="1.00" d=" M 101.12 40.20 C 102.26 37.51 103.81 35.00 105.77 32.83 C 106.35 34.49 106.85 36.18 107.22 37.90 C 106.69 40.58 104.24 42.87 102.00 44.15 C 99.13 44.59 101.06 41.74 101.12 40.20 Z" />
</g>
<g id="#603c6dff">
<path fill="#603c6d" opacity="1.00" d=" M 49.94 33.99 C 53.40 33.97 56.84 34.40 60.29 34.64 C 60.79 34.91 61.77 35.46 62.26 35.74 C 62.12 37.14 61.99 38.55 61.87 39.96 C 59.27 39.13 56.48 39.32 53.79 39.13 C 52.11 37.74 50.77 36.01 49.94 33.99 Z" />
</g>
<g id="#316792f1">
<path fill="#316792" opacity="0.95" d=" M 117.37 34.31 C 117.77 34.24 118.57 34.09 118.97 34.02 C 119.47 34.00 120.47 33.96 120.97 33.94 C 116.37 39.68 111.59 45.30 106.15 50.27 C 103.60 49.42 100.39 49.07 99.54 46.03 C 100.10 45.73 101.23 45.12 101.79 44.81 C 103.76 45.37 104.52 48.37 106.82 47.91 C 110.70 43.68 114.03 38.97 117.37 34.31 Z" />
</g>
<g id="#4a3161fa">
<path fill="#4a3161" opacity="0.98" d=" M 115.10 44.05 C 117.81 40.14 120.63 36.16 124.90 33.81 C 124.01 37.58 122.31 41.26 123.69 45.23 L 123.74 45.82 C 118.83 46.11 116.45 51.04 112.59 53.31 C 111.93 50.03 114.20 47.09 115.10 44.05 Z" />
</g>
<g id="#1c425393">
<path fill="#1c4253" opacity="0.58" d=" M 79.97 35.97 C 80.98 33.77 85.71 35.44 88.16 35.19 L 88.11 36.10 C 85.40 36.04 82.69 36.00 79.97 35.97 Z" />
</g>
<g id="#4e3059ff">
<path fill="#4e3059" opacity="1.00" d=" M 62.26 35.74 C 64.37 36.87 66.36 38.20 68.33 39.56 C 66.50 40.57 64.48 41.35 63.08 42.97 C 62.60 41.99 62.20 40.99 61.87 39.96 C 61.99 38.55 62.12 37.14 62.26 35.74 Z" />
</g>
<g id="#4ba3d6fd">
<path fill="#4ba3d6" opacity="1.00" d=" M 74.29 38.40 C 75.52 36.60 77.87 35.86 79.97 35.97 C 82.69 36.00 85.40 36.04 88.11 36.10 L 88.12 37.08 C 86.47 37.05 84.82 36.97 83.18 37.14 C 80.19 40.36 81.68 46.16 77.74 48.74 C 75.19 48.82 72.64 48.95 70.11 49.14 C 69.98 50.76 69.99 52.40 69.99 54.03 L 69.04 54.11 C 68.94 52.36 68.91 50.60 68.94 48.85 C 68.82 46.58 69.43 44.43 71.13 42.84 C 72.29 41.44 73.35 39.96 74.29 38.40 Z" />
</g>
<g id="#4795c5ff">
<path fill="#4795c5" opacity="1.00" d=" M 83.18 37.14 C 84.82 36.97 86.47 37.05 88.12 37.08 C 87.75 37.51 87.01 38.38 86.64 38.82 C 82.59 42.04 84.55 48.21 80.83 51.82 C 77.40 53.22 73.67 53.81 69.99 54.03 C 69.99 52.40 69.98 50.76 70.11 49.14 C 72.64 48.95 75.19 48.82 77.74 48.74 C 81.68 46.16 80.19 40.36 83.18 37.14 Z" />
</g>
<g id="#7d4b84ff">
<path fill="#7d4b84" opacity="1.00" d=" M 53.79 39.13 C 56.48 39.32 59.27 39.13 61.87 39.96 C 62.20 40.99 62.60 41.99 63.08 42.97 C 63.64 44.04 64.31 45.04 64.91 46.09 C 62.29 45.10 59.72 44.01 57.13 42.95 C 56.03 41.66 54.92 40.39 53.79 39.13 Z" />
</g>
<g id="#4185b2fe">
<path fill="#4185b2" opacity="1.00" d=" M 80.83 51.82 C 84.55 48.21 82.59 42.04 86.64 38.82 C 86.96 39.89 87.30 40.97 87.66 42.03 C 88.26 47.81 85.02 54.22 78.81 54.78 C 78.36 54.83 77.48 54.93 77.03 54.98 C 76.27 54.99 74.76 55.02 74.00 55.04 C 72.64 55.03 71.28 55.02 69.92 55.03 C 69.70 54.80 69.26 54.34 69.04 54.11 L 69.99 54.03 C 73.67 53.81 77.40 53.22 80.83 51.82 Z" />
</g>
<g id="#3a739dff">
<path fill="#3a739d" opacity="1.00" d=" M 87.66 42.03 C 88.25 42.06 89.41 42.13 90.00 42.16 C 90.49 46.00 90.00 49.77 88.17 53.15 C 87.04 53.76 85.89 54.32 84.76 54.94 C 84.08 54.97 82.72 55.01 82.04 55.03 C 81.23 54.97 79.62 54.84 78.81 54.78 C 85.02 54.22 88.26 47.81 87.66 42.03 Z" />
</g>
<g id="#32658eff">
<path fill="#32658e" opacity="1.00" d=" M 90.00 42.16 C 91.23 42.28 92.45 42.55 93.67 42.77 L 93.98 43.47 C 93.38 46.60 92.89 49.77 92.01 52.83 C 90.73 52.93 89.45 53.03 88.17 53.15 C 90.00 49.77 90.49 46.00 90.00 42.16 Z" />
</g>
<g id="#2a567fff">
<path fill="#2a567f" opacity="1.00" d=" M 92.01 52.83 C 92.89 49.77 93.38 46.60 93.98 43.47 C 95.72 44.80 97.05 47.54 99.54 46.03 C 100.39 49.07 103.60 49.42 106.15 50.27 C 105.84 50.66 105.23 51.44 104.92 51.83 C 103.23 51.91 101.54 51.97 99.84 52.04 C 98.22 51.86 96.75 52.33 95.92 53.81 C 94.63 53.43 93.32 53.11 92.01 52.83 Z" />
</g>
<g id="#3f2a55fb">
<path fill="#3f2a55" opacity="1.00" d=" M 107.70 54.08 C 108.04 49.60 112.58 47.27 115.10 44.05 C 114.20 47.09 111.93 50.03 112.59 53.31 C 112.68 54.69 110.81 55.55 109.82 56.30 C 109.11 55.56 108.40 54.82 107.70 54.08 Z" />
</g>
<g id="#30749ff5">
<path fill="#30749f" opacity="0.96" d=" M 153.98 47.92 L 154.75 48.29 C 160.32 62.90 166.99 77.33 169.02 92.98 C 169.00 95.99 169.02 99.02 169.00 102.04 C 168.87 104.42 168.72 106.81 168.54 109.20 C 164.79 99.31 162.87 88.43 160.46 78.26 C 161.26 67.91 154.37 58.29 153.98 47.92 Z" />
</g>
<g id="#214772ff">
<path fill="#214772" opacity="1.00" d=" M 95.92 53.81 C 96.75 52.33 98.22 51.86 99.84 52.04 C 101.62 53.31 103.36 54.64 104.82 56.28 C 105.99 64.63 94.80 72.93 87.63 67.07 C 88.84 66.13 90.05 65.18 91.21 64.19 C 94.70 62.10 96.47 57.78 95.92 53.81 Z" />
</g>
<g id="#1f517bfc">
<path fill="#1f517b" opacity="1.00" d=" M 99.84 52.04 C 101.54 51.97 103.23 51.91 104.92 51.83 C 105.87 52.55 106.79 53.31 107.70 54.08 C 108.40 54.82 109.11 55.56 109.82 56.30 C 111.96 59.39 114.71 61.96 117.07 64.86 C 116.54 65.18 115.47 65.82 114.93 66.14 C 112.81 64.53 110.97 62.17 108.11 61.93 C 107.55 62.95 108.94 66.58 107.10 65.83 C 107.03 65.37 106.89 64.44 106.82 63.98 C 102.00 70.77 90.97 73.70 84.84 67.20 C 85.53 67.17 86.93 67.10 87.63 67.07 C 94.80 72.93 105.99 64.63 104.82 56.28 C 103.36 54.64 101.62 53.31 99.84 52.04 Z" />
</g>
<g id="#51555eff">
<path fill="#51555e" opacity="1.00" d=" M 88.17 53.15 C 89.45 53.03 90.73 52.93 92.01 52.83 C 93.32 53.11 94.63 53.43 95.92 53.81 C 96.47 57.78 94.70 62.10 91.21 64.19 C 86.17 65.12 80.35 67.76 75.77 64.30 C 78.18 62.06 75.77 60.08 73.95 58.57 C 73.97 58.15 74.00 57.32 74.02 56.91 C 74.98 57.63 75.92 58.37 76.92 59.04 C 76.98 57.68 77.02 56.33 77.03 54.98 C 77.48 54.93 78.36 54.83 78.81 54.78 C 79.62 54.84 81.23 54.97 82.04 55.03 C 82.34 56.04 82.76 56.98 83.32 57.86 C 85.20 58.92 85.41 56.03 84.76 54.94 C 85.89 54.32 87.04 53.76 88.17 53.15 M 90.04 57.95 C 90.42 59.13 88.92 62.37 91.01 62.01 C 94.68 63.23 93.05 56.91 90.04 57.95 Z" />
</g>
<g id="#2e4159f1">
<path fill="#2e4159" opacity="0.95" d=" M 69.92 55.03 C 71.28 55.02 72.64 55.03 74.00 55.04 C 74.00 55.50 74.02 56.44 74.02 56.91 C 74.00 57.32 73.97 58.15 73.95 58.57 C 73.70 59.15 73.19 60.33 72.94 60.92 C 71.54 59.97 70.85 56.90 69.92 55.03 Z" />
</g>
<g id="#737694ff">
<path fill="#737694" opacity="1.00" d=" M 74.00 55.04 C 74.76 55.02 76.27 54.99 77.03 54.98 C 77.02 56.33 76.98 57.68 76.92 59.04 C 75.92 58.37 74.98 57.63 74.02 56.91 C 74.02 56.44 74.00 55.50 74.00 55.04 Z" />
</g>
<g id="#7a7892ff">
<path fill="#7a7892" opacity="1.00" d=" M 82.04 55.03 C 82.72 55.01 84.08 54.97 84.76 54.94 C 85.41 56.03 85.20 58.92 83.32 57.86 C 82.76 56.98 82.34 56.04 82.04 55.03 Z" />
</g>
<g id="#a499b7ff">
<path fill="#a499b7" opacity="1.00" d=" M 90.04 57.95 C 93.05 56.91 94.68 63.23 91.01 62.01 C 88.92 62.37 90.42 59.13 90.04 57.95 Z" />
</g>
<g id="#7c7aa1fc">
<path fill="#7c7aa1" opacity="1.00" d=" M 72.94 60.92 C 73.19 60.33 73.70 59.15 73.95 58.57 C 75.77 60.08 78.18 62.06 75.77 64.30 C 75.31 64.24 74.38 64.12 73.91 64.06 C 72.83 63.64 72.51 62.59 72.94 60.92 Z" />
</g>
<g id="#24618af6">
<path fill="#24618a" opacity="0.96" d=" M 73.91 64.06 C 74.38 64.12 75.31 64.24 75.77 64.30 C 80.35 67.76 86.17 65.12 91.21 64.19 C 90.05 65.18 88.84 66.13 87.63 67.07 C 86.93 67.10 85.53 67.17 84.84 67.20 C 90.97 73.70 102.00 70.77 106.82 63.98 C 106.89 64.44 107.03 65.37 107.10 65.83 C 106.41 67.74 104.99 69.27 103.99 71.01 C 105.51 74.90 109.03 77.86 110.10 81.89 C 109.91 82.19 109.53 82.81 109.34 83.11 C 106.69 79.87 104.48 76.29 101.87 73.01 C 99.68 72.88 97.72 74.06 95.65 74.58 C 86.96 76.23 79.41 69.91 73.91 64.06 Z" />
</g>
<g id="#264e76e9">
<path fill="#264e76" opacity="0.91" d=" M 114.93 66.14 C 115.47 65.82 116.54 65.18 117.07 64.86 C 125.36 71.55 132.00 79.91 139.80 87.18 C 140.12 87.90 140.75 89.35 141.07 90.07 C 132.10 82.41 123.40 74.24 114.93 66.14 Z" />
</g>
<g id="#285983ff">
<path fill="#285983" opacity="1.00" d=" M 8.26 78.08 C 7.10 75.69 7.29 73.32 8.81 70.98 C 9.88 73.38 9.70 75.74 8.26 78.08 Z" />
</g>
<g id="#274e72ff">
<path fill="#274e72" opacity="1.00" d=" M 7.19 91.22 C 6.98 88.06 7.27 84.89 7.81 81.78 C 8.01 84.94 7.70 88.09 7.19 91.22 Z" />
</g>
<g id="#1a4166d2">
<path fill="#1a4166" opacity="0.82" d=" M 110.10 81.89 C 112.54 84.17 115.11 87.52 115.03 91.09 C 112.55 89.18 110.75 85.86 109.34 83.11 C 109.53 82.81 109.91 82.19 110.10 81.89 Z" />
</g>
<g id="#462c55ff">
<path fill="#462c55" opacity="1.00" d=" M 8.86 112.12 C 6.37 106.15 8.57 99.04 8.77 92.78 C 9.09 99.22 8.95 105.68 8.86 112.12 Z" />
</g>
<g id="#0d293892">
<path fill="#0d2938" opacity="0.57" d=" M 169.02 92.98 C 172.24 93.13 169.25 99.53 169.96 101.97 L 169.00 102.04 C 169.02 99.02 169.00 95.99 169.02 92.98 Z" />
</g>
<g id="#2d668be7">
<path fill="#2d668b" opacity="0.91" d=" M 5.25 102.24 C 5.65 100.88 6.44 98.16 6.83 96.79 C 7.06 103.28 7.31 109.82 6.31 116.26 C 5.95 111.60 4.35 106.90 5.25 102.24 Z" />
</g>
<g id="#1a425ec5">
<path fill="#1a425e" opacity="0.77" d=" M 169.00 102.04 L 169.96 101.97 C 169.97 104.75 170.00 110.33 170.01 113.11 C 168.37 112.86 168.83 110.47 168.54 109.20 C 168.72 106.81 168.87 104.42 169.00 102.04 Z" />
</g>
</svg>
