<?xml version="1.0" encoding="UTF-8" ?>
<!DOCTYPE svg PUBLIC "-//W3C//DTD SVG 1.1//EN" "http://www.w3.org/Graphics/SVG/1.1/DTD/svg11.dtd">
<svg width="250pt" height="109pt" viewBox="0 0 250 109" version="1.1" xmlns="http://www.w3.org/2000/svg">
<g id="#386488e9">
<path fill="#386488" opacity="0.91" d=" M 118.20 13.08 C 119.99 13.20 121.92 14.53 122.95 15.91 C 122.22 16.57 121.50 17.24 120.80 17.92 C 119.27 18.37 117.75 18.83 116.22 19.25 C 116.73 17.15 117.39 15.08 118.20 13.08 Z" />
</g>
<g id="#38658be1">
<path fill="#38658b" opacity="0.88" d=" M 135.97 13.98 C 135.98 11.44 139.69 14.29 139.96 15.80 C 139.38 16.60 138.80 17.40 138.20 18.18 C 137.45 16.78 136.70 15.39 135.97 13.98 Z" />
</g>
<g id="#3c456ef1">
<path fill="#3c456e" opacity="0.95" d=" M 134.91 15.08 C 135.18 14.80 135.70 14.25 135.97 13.98 C 136.70 15.39 137.45 16.78 138.20 18.18 C 136.60 20.41 135.12 17.74 134.84 16.06 L 134.91 15.08 Z" />
</g>
<g id="#3d8e9da4">
<path fill="#3d8e9d" opacity="0.64" d=" M 126.00 15.96 C 126.00 12.72 132.53 15.73 134.91 15.08 L 134.84 16.06 L 134.14 16.33 C 131.42 16.22 128.71 16.09 126.00 15.96 Z" />
</g>
<g id="#55c1edff">
<path fill="#55c1ed" opacity="1.00" d=" M 120.80 17.92 C 121.50 17.24 122.22 16.57 122.95 15.91 C 123.71 15.92 125.24 15.95 126.00 15.96 C 128.71 16.09 131.42 16.22 134.14 16.33 C 133.65 16.54 132.67 16.96 132.18 17.17 C 128.39 17.46 124.61 17.90 120.80 17.92 Z" />
</g>
<g id="#458db7fd">
<path fill="#458db7" opacity="1.00" d=" M 134.14 16.33 L 134.84 16.06 C 135.12 17.74 136.60 20.41 138.20 18.18 C 138.80 17.40 139.38 16.60 139.96 15.80 C 144.53 20.23 147.97 26.66 149.69 32.65 C 149.30 34.09 149.05 35.56 148.81 37.04 C 146.83 38.49 145.53 35.88 144.04 34.91 C 143.06 32.74 141.58 30.85 139.59 29.52 L 138.91 28.97 C 138.11 28.43 137.26 27.99 136.34 27.66 C 137.45 25.94 138.37 24.09 138.03 21.97 C 134.39 21.57 131.32 23.86 128.19 25.33 C 127.09 28.29 130.75 29.23 132.29 30.99 C 127.93 32.08 122.94 32.88 118.69 30.99 C 117.62 28.57 121.57 28.48 121.05 26.08 C 120.45 25.36 119.78 24.71 119.04 24.14 C 122.12 19.88 127.79 19.44 132.18 17.17 C 132.67 16.96 133.65 16.54 134.14 16.33 Z" />
</g>
<g id="#4ca1d1fe">
<path fill="#4ca1d1" opacity="1.00" d=" M 120.80 17.92 C 124.61 17.90 128.39 17.46 132.18 17.17 C 127.79 19.44 122.12 19.88 119.04 24.14 C 117.77 23.26 116.50 22.41 115.15 21.67 C 114.82 20.57 115.18 19.76 116.22 19.25 C 117.75 18.83 119.27 18.37 120.80 17.92 Z" />
</g>
<g id="#0d182130">
<path fill="#0d1821" opacity="0.19" d=" M 53.20 19.99 C 54.13 18.03 58.05 18.70 59.90 19.35 L 59.87 19.96 C 58.20 19.96 54.87 19.98 53.20 19.99 Z" />
</g>
<g id="#2f607db3">
<path fill="#2f607d" opacity="0.70" d=" M 59.90 19.35 C 62.29 19.31 67.06 17.81 68.02 19.97 C 65.30 19.99 62.59 19.98 59.87 19.96 L 59.90 19.35 Z" />
</g>
<g id="#3b85abf9">
<path fill="#3b85ab" opacity="0.98" d=" M 185.15 20.66 C 187.21 16.21 191.88 22.11 193.96 23.97 C 195.08 25.48 196.34 26.88 197.69 28.17 C 210.81 40.07 220.29 55.13 230.64 69.33 C 234.31 74.66 237.92 80.07 240.94 85.82 L 240.12 86.13 L 239.28 85.84 C 231.57 72.59 221.43 61.03 212.16 48.89 C 205.36 40.94 198.81 32.72 191.05 25.66 C 190.08 24.63 189.12 23.58 188.06 22.63 C 187.22 21.80 186.19 21.19 185.15 20.66 Z" />
</g>
<g id="#3a789ef2">
<path fill="#3a789e" opacity="0.95" d=" M 20.86 42.88 C 28.08 31.35 40.05 23.46 53.20 19.99 C 54.87 19.98 58.20 19.96 59.87 19.96 C 62.59 19.98 65.30 19.99 68.02 19.97 C 73.09 19.54 76.87 23.70 81.05 25.93 C 89.54 31.40 100.30 29.05 109.21 33.33 C 106.13 33.75 103.04 34.03 99.94 34.08 C 98.17 34.15 94.63 34.28 92.85 34.35 C 87.73 33.13 82.88 31.03 78.17 28.73 C 77.68 28.50 76.72 28.04 76.24 27.80 C 73.79 25.82 71.27 23.76 68.25 22.72 C 63.86 21.80 59.12 21.44 54.72 22.60 C 50.19 23.22 45.75 24.58 41.72 26.75 C 38.43 28.24 35.45 30.39 32.86 32.90 C 32.61 33.11 32.11 33.54 31.86 33.76 C 29.75 34.55 28.17 36.17 27.06 38.10 C 25.01 39.70 22.96 41.32 20.86 42.88 Z" />
</g>
<g id="#336991f3">
<path fill="#336991" opacity="0.95" d=" M 180.75 26.74 C 183.09 25.36 183.14 22.16 185.15 20.66 C 186.19 21.19 187.22 21.80 188.06 22.63 C 186.33 24.39 184.90 26.41 183.21 28.21 C 181.08 31.45 176.98 31.81 173.97 33.84 L 173.39 34.03 C 168.23 32.46 163.29 34.95 158.19 35.29 C 156.36 34.69 154.57 34.02 152.77 33.37 C 158.82 32.10 164.76 30.24 171.02 30.12 C 174.57 30.19 177.64 28.20 180.75 26.74 Z" />
</g>
<g id="#335b8aff">
<path fill="#335b8a" opacity="1.00" d=" M 54.72 22.60 C 59.12 21.44 63.86 21.80 68.25 22.72 C 66.41 22.90 64.58 23.10 62.74 23.29 C 61.57 23.23 60.40 23.19 59.23 23.18 C 57.72 23.01 56.22 22.81 54.72 22.60 Z" />
</g>
<g id="#4a7c99fc">
<path fill="#4a7c99" opacity="1.00" d=" M 112.99 27.92 C 112.88 25.78 113.07 22.77 115.15 21.67 C 116.50 22.41 117.77 23.26 119.04 24.14 C 119.78 24.71 120.45 25.36 121.05 26.08 C 121.57 28.48 117.62 28.57 118.69 30.99 C 118.39 31.26 117.79 31.79 117.48 32.05 C 116.47 31.21 115.40 30.42 114.29 29.72 C 113.97 29.49 113.35 29.05 113.04 28.83 L 112.99 27.92 M 115.01 22.90 C 113.25 26.32 118.28 30.04 120.03 26.26 C 117.32 26.63 116.86 23.94 115.01 22.90 Z" />
</g>
<g id="#376a8bff">
<path fill="#376a8b" opacity="1.00" d=" M 128.19 25.33 C 131.32 23.86 134.39 21.57 138.03 21.97 C 138.37 24.09 137.45 25.94 136.34 27.66 C 137.26 27.99 138.11 28.43 138.91 28.97 C 137.89 29.26 136.88 29.58 135.87 29.93 C 134.68 30.29 133.49 30.68 132.29 30.99 C 130.75 29.23 127.09 28.29 128.19 25.33 M 136.04 23.23 C 133.69 24.14 131.37 25.11 129.08 26.16 C 129.67 29.02 134.07 28.47 135.30 26.30 C 136.32 25.86 138.31 22.18 136.04 23.23 Z" />
</g>
<g id="#4c3e72ff">
<path fill="#4c3e72" opacity="1.00" d=" M 41.72 26.75 C 45.75 24.58 50.19 23.22 54.72 22.60 C 56.22 22.81 57.72 23.01 59.23 23.18 C 53.06 22.85 47.74 26.59 41.72 26.75 Z" />
</g>
<g id="#774a85ff">
<path fill="#774a85" opacity="1.00" d=" M 59.23 23.18 C 60.40 23.19 61.57 23.23 62.74 23.29 C 64.48 23.70 66.26 23.93 68.02 24.22 C 60.47 32.31 55.56 42.33 51.33 52.36 C 49.96 51.94 49.21 51.13 49.09 49.92 C 49.44 48.48 51.71 46.41 49.49 45.56 C 45.52 43.02 49.63 35.59 46.04 32.91 C 43.98 31.97 41.69 30.22 39.36 31.44 C 37.30 32.38 35.15 33.08 32.86 32.90 C 35.45 30.39 38.43 28.24 41.72 26.75 C 47.74 26.59 53.06 22.85 59.23 23.18 Z" />
</g>
<g id="#403463ff">
<path fill="#403463" opacity="1.00" d=" M 62.74 23.29 C 64.58 23.10 66.41 22.90 68.25 22.72 C 71.27 23.76 73.79 25.82 76.24 27.80 C 75.09 27.63 73.94 27.42 72.80 27.19 C 72.35 26.81 71.45 26.05 71.00 25.67 C 70.11 25.03 69.13 24.39 68.02 24.22 C 66.26 23.93 64.48 23.70 62.74 23.29 Z" />
</g>
<g id="#dde3e7ff">
<path fill="#dde3e7" opacity="1.00" d=" M 115.01 22.90 C 116.86 23.94 117.32 26.63 120.03 26.26 C 118.28 30.04 113.25 26.32 115.01 22.90 Z" />
</g>
<g id="#e4e7e5ff">
<path fill="#e4e7e5" opacity="1.00" d=" M 136.04 23.23 C 138.31 22.18 136.32 25.86 135.30 26.30 C 134.07 28.47 129.67 29.02 129.08 26.16 C 131.37 25.11 133.69 24.14 136.04 23.23 Z" />
</g>
<g id="#403864ff">
<path fill="#403864" opacity="1.00" d=" M 183.21 28.21 C 184.90 26.41 186.33 24.39 188.06 22.63 C 189.12 23.58 190.08 24.63 191.05 25.66 C 189.23 26.05 187.37 26.55 185.90 27.75 C 182.78 31.16 178.81 33.98 173.97 33.84 C 176.98 31.81 181.08 31.45 183.21 28.21 Z" />
</g>
<g id="#583263fd">
<path fill="#583263" opacity="1.00" d=" M 68.02 24.22 C 69.13 24.39 70.11 25.03 71.00 25.67 C 69.85 26.13 68.77 26.75 67.86 27.59 C 61.65 34.82 55.75 43.37 53.74 52.84 C 53.45 54.57 50.68 53.67 51.33 52.36 C 55.56 42.33 60.47 32.31 68.02 24.22 Z" />
</g>
<g id="#af85ceee">
<path fill="#af85ce" opacity="0.93" d=" M 193.96 23.97 C 195.64 24.37 198.68 24.93 198.88 26.84 C 198.59 27.17 197.99 27.84 197.69 28.17 C 196.34 26.88 195.08 25.48 193.96 23.97 Z" />
</g>
<g id="#6d4681fd">
<path fill="#6d4681" opacity="1.00" d=" M 67.86 27.59 C 68.77 26.75 69.85 26.13 71.00 25.67 C 71.45 26.05 72.35 26.81 72.80 27.19 C 79.12 36.09 87.77 43.02 96.20 49.84 C 94.47 49.79 91.00 49.71 89.27 49.67 C 87.91 49.33 86.55 49.05 85.18 48.80 C 83.91 45.87 81.31 44.35 78.36 43.50 C 76.14 40.84 72.90 38.89 71.45 35.65 C 70.74 33.33 71.52 28.08 67.86 27.59 Z" />
</g>
<g id="#5c366afe">
<path fill="#5c366a" opacity="1.00" d=" M 185.90 27.75 C 187.37 26.55 189.23 26.05 191.05 25.66 C 191.12 30.54 193.81 34.96 192.90 39.99 C 194.20 43.43 191.44 46.97 192.68 50.30 C 193.34 51.93 190.07 50.66 189.14 51.01 C 190.85 43.46 190.61 35.71 188.83 28.21 C 188.10 28.10 186.63 27.87 185.90 27.75 Z" />
</g>
<g id="#724983fe">
<path fill="#724983" opacity="1.00" d=" M 191.05 25.66 C 198.81 32.72 205.36 40.94 212.16 48.89 C 211.44 48.84 209.99 48.75 209.26 48.70 C 206.40 48.26 203.50 47.66 200.69 48.57 C 197.99 49.04 195.35 49.75 192.68 50.30 C 191.44 46.97 194.20 43.43 192.90 39.99 C 193.81 34.96 191.12 30.54 191.05 25.66 Z" />
</g>
<g id="#553569fd">
<path fill="#553569" opacity="1.00" d=" M 72.80 27.19 C 73.94 27.42 75.09 27.63 76.24 27.80 C 76.72 28.04 77.68 28.50 78.17 28.73 C 77.94 29.26 77.49 30.33 77.27 30.86 C 84.51 38.35 92.16 45.59 101.22 50.86 C 99.50 50.94 97.41 51.43 96.20 49.84 C 87.77 43.02 79.12 36.09 72.80 27.19 Z" />
</g>
<g id="#c98edef8">
<path fill="#c98ede" opacity="0.97" d=" M 197.69 28.17 C 197.99 27.84 198.59 27.17 198.88 26.84 C 209.57 31.92 218.28 40.22 227.77 47.20 C 229.10 49.12 230.50 51.00 232.00 52.79 C 229.77 52.66 226.79 54.08 228.30 56.72 C 233.71 65.83 239.49 74.96 242.24 85.31 C 241.92 85.44 241.27 85.69 240.94 85.82 C 237.92 80.07 234.31 74.66 230.64 69.33 C 220.29 55.13 210.81 40.07 197.69 28.17 Z" />
</g>
<g id="#744985fd">
<path fill="#744985" opacity="1.00" d=" M 53.74 52.84 C 55.75 43.37 61.65 34.82 67.86 27.59 C 71.52 28.08 70.74 33.33 71.45 35.65 C 72.90 38.89 76.14 40.84 78.36 43.50 C 81.31 44.35 83.91 45.87 85.18 48.80 C 81.02 48.98 76.83 49.00 72.71 49.58 C 66.12 49.06 60.10 52.47 53.74 52.84 Z" />
</g>
<g id="#2f699bf2">
<path fill="#2f699b" opacity="0.95" d=" M 111.97 33.00 C 112.46 31.50 110.93 28.10 112.99 27.92 L 113.04 28.83 C 113.27 33.95 112.30 39.23 113.62 44.26 C 114.29 49.13 115.39 53.92 116.28 58.75 C 116.05 59.12 115.57 59.85 115.33 60.21 C 113.38 58.00 113.61 54.84 113.07 52.09 C 112.81 47.43 112.03 42.81 111.94 38.14 C 111.94 37.62 111.95 36.57 111.95 36.05 C 111.96 35.29 111.97 33.76 111.97 33.00 Z" />
</g>
<g id="#764880fd">
<path fill="#764880" opacity="1.00" d=" M 173.97 33.84 C 178.81 33.98 182.78 31.16 185.90 27.75 C 186.63 27.87 188.10 28.10 188.83 28.21 C 190.61 35.71 190.85 43.46 189.14 51.01 C 184.19 50.14 179.25 49.28 174.27 48.70 C 171.41 48.25 168.46 47.55 165.68 48.58 C 162.32 49.33 159.26 50.99 156.00 52.03 C 156.74 47.10 154.04 40.93 158.04 36.95 C 163.05 35.46 168.50 35.88 173.39 34.03 L 173.97 33.84 Z" />
</g>
<g id="#6d437cfd">
<path fill="#6d437c" opacity="1.00" d=" M 78.17 28.73 C 82.88 31.03 87.73 33.13 92.85 34.35 C 95.25 35.65 97.61 35.83 99.91 34.90 L 100.74 35.19 C 104.33 36.66 108.13 37.48 111.94 38.14 C 112.03 42.81 112.81 47.43 113.07 52.09 C 111.05 51.17 110.05 48.79 108.00 48.02 C 105.67 48.74 103.68 50.92 101.22 50.86 C 92.16 45.59 84.51 38.35 77.27 30.86 C 77.49 30.33 77.94 29.26 78.17 28.73 Z" />
</g>
<g id="#275c87ff">
<path fill="#275c87" opacity="1.00" d=" M 113.04 28.83 C 113.35 29.05 113.97 29.49 114.29 29.72 C 114.38 30.25 114.57 31.32 114.67 31.86 C 114.22 35.98 113.96 40.13 113.62 44.26 C 112.30 39.23 113.27 33.95 113.04 28.83 Z" />
</g>
<g id="#ad9bb4ff">
<path fill="#ad9bb4" opacity="1.00" d=" M 135.87 29.93 C 136.88 29.58 137.89 29.26 138.91 28.97 L 139.59 29.52 C 139.08 31.36 138.79 34.52 136.12 34.05 C 136.00 32.68 135.92 31.31 135.87 29.93 Z" />
</g>
<g id="#b4a1b6ff">
<path fill="#b4a1b6" opacity="1.00" d=" M 114.29 29.72 C 115.40 30.42 116.47 31.21 117.48 32.05 C 117.00 33.06 116.46 34.04 115.87 34.99 C 115.45 33.95 115.05 32.91 114.67 31.86 C 114.57 31.32 114.38 30.25 114.29 29.72 Z" />
</g>
<g id="#1d1e22ff">
<path fill="#1d1e22" opacity="1.00" d=" M 132.29 30.99 C 133.49 30.68 134.68 30.29 135.87 29.93 C 135.92 31.31 136.00 32.68 136.12 34.05 C 138.79 34.52 139.08 31.36 139.59 29.52 C 141.58 30.85 143.06 32.74 144.04 34.91 C 145.13 38.23 146.16 41.56 147.18 44.90 C 145.74 47.98 146.01 50.37 147.97 52.07 C 147.33 56.51 148.07 61.79 144.91 65.45 C 143.55 61.70 146.11 56.31 142.00 54.00 C 139.22 52.65 138.29 49.71 136.67 47.35 C 133.16 46.14 130.48 43.67 127.97 41.03 C 125.86 38.51 121.98 39.52 119.74 37.21 C 118.64 35.68 117.25 37.42 116.00 37.80 C 115.28 36.93 114.90 35.85 115.87 34.99 C 116.46 34.04 117.00 33.06 117.48 32.05 C 117.79 31.79 118.39 31.26 118.69 30.99 C 122.94 32.88 127.93 32.08 132.29 30.99 Z" />
</g>
<g id="#82528af9">
<path fill="#82528a" opacity="0.98" d=" M 39.36 31.44 C 41.69 30.22 43.98 31.97 46.04 32.91 C 49.63 35.59 45.52 43.02 49.49 45.56 C 51.71 46.41 49.44 48.48 49.09 49.92 C 45.83 48.68 42.47 47.71 39.02 47.17 C 32.76 48.16 27.88 52.35 22.86 55.86 C 13.86 66.77 8.42 79.94 3.73 93.13 C 3.50 92.86 3.04 92.33 2.81 92.06 C 4.07 82.13 6.92 72.46 9.82 62.90 C 10.23 61.49 10.79 59.97 11.97 59.02 C 15.45 55.37 16.87 50.09 20.10 46.12 C 22.54 43.60 26.00 41.65 27.06 38.10 C 29.37 37.58 30.90 35.80 31.86 33.76 C 32.11 33.54 32.61 33.11 32.86 32.90 C 35.15 33.08 37.30 32.38 39.36 31.44 Z" />
</g>
<g id="#232325ff">
<path fill="#232325" opacity="1.00" d=" M 113.62 44.26 C 113.96 40.13 114.22 35.98 114.67 31.86 C 115.05 32.91 115.45 33.95 115.87 34.99 C 114.90 35.85 115.28 36.93 116.00 37.80 C 117.25 37.42 118.64 35.68 119.74 37.21 C 121.98 39.52 125.86 38.51 127.97 41.03 C 130.48 43.67 133.16 46.14 136.67 47.35 C 138.29 49.71 139.22 52.65 142.00 54.00 C 146.11 56.31 143.55 61.70 144.91 65.45 C 144.37 66.34 143.83 67.24 143.28 68.13 L 142.45 68.48 C 141.74 66.01 140.99 62.33 138.02 61.83 C 135.17 66.52 139.42 68.07 142.45 68.48 C 140.22 69.79 137.79 70.72 135.29 71.37 C 132.10 71.27 128.94 71.14 125.77 71.17 C 124.82 70.91 123.89 70.58 122.98 70.20 C 123.18 69.69 123.59 68.67 123.80 68.15 C 124.71 66.12 123.13 59.93 120.68 62.76 C 120.00 64.18 119.88 65.78 119.61 67.31 C 118.66 64.39 117.40 61.60 116.28 58.75 C 115.39 53.92 114.29 49.13 113.62 44.26 Z" />
</g>
<g id="#2e5881f8">
<path fill="#2e5881" opacity="0.97" d=" M 109.21 33.33 C 109.90 33.25 111.28 33.09 111.97 33.00 C 111.97 33.76 111.96 35.29 111.95 36.05 C 108.22 35.60 104.50 35.00 100.74 35.19 L 99.91 34.90 L 99.94 34.08 C 103.04 34.03 106.13 33.75 109.21 33.33 Z" />
</g>
<g id="#2d577bf9">
<path fill="#2d577b" opacity="0.98" d=" M 148.81 37.04 C 149.05 35.56 149.30 34.09 149.69 32.65 C 150.46 32.83 152.00 33.19 152.77 33.37 C 154.57 34.02 156.36 34.69 158.19 35.29 C 155.31 35.77 152.33 35.73 149.59 36.78 L 148.81 37.04 Z" />
</g>
<g id="#3d375eff">
<path fill="#3d375e" opacity="1.00" d=" M 158.19 35.29 C 163.29 34.95 168.23 32.46 173.39 34.03 C 168.50 35.88 163.05 35.46 158.04 36.95 C 155.66 37.37 153.30 37.90 150.90 38.20 C 150.57 37.85 149.92 37.13 149.59 36.78 C 152.33 35.73 155.31 35.77 158.19 35.29 Z" />
</g>
<g id="#563967ff">
<path fill="#563967" opacity="1.00" d=" M 27.06 38.10 C 28.17 36.17 29.75 34.55 31.86 33.76 C 30.90 35.80 29.37 37.58 27.06 38.10 Z" />
</g>
<g id="#423c6fff">
<path fill="#423c6f" opacity="1.00" d=" M 92.85 34.35 C 94.63 34.28 98.17 34.15 99.94 34.08 L 99.91 34.90 C 97.61 35.83 95.25 35.65 92.85 34.35 Z" />
</g>
<g id="#3b305aff">
<path fill="#3b305a" opacity="1.00" d=" M 100.74 35.19 C 104.50 35.00 108.22 35.60 111.95 36.05 C 111.95 36.57 111.94 37.62 111.94 38.14 C 108.13 37.48 104.33 36.66 100.74 35.19 Z" />
</g>
<g id="#3b7caafa">
<path fill="#3b7caa" opacity="0.98" d=" M 144.04 34.91 C 145.53 35.88 146.83 38.49 148.81 37.04 L 149.59 36.78 C 149.92 37.13 150.57 37.85 150.90 38.20 C 151.03 43.88 151.90 49.51 153.10 55.06 C 153.08 59.41 151.88 63.84 149.68 67.59 C 148.99 68.61 148.36 69.66 147.93 70.82 C 143.69 78.33 133.61 80.65 126.03 77.01 C 123.88 76.64 123.64 74.31 125.94 74.06 C 129.32 76.59 134.12 78.48 138.04 76.06 C 141.15 74.55 142.28 71.18 143.28 68.13 C 143.83 67.24 144.37 66.34 144.91 65.45 C 148.07 61.79 147.33 56.51 147.97 52.07 C 149.08 49.23 148.82 46.84 147.18 44.90 C 146.16 41.56 145.13 38.23 144.04 34.91 Z" />
</g>
<g id="#6d3d6fff">
<path fill="#6d3d6f" opacity="1.00" d=" M 150.90 38.20 C 153.30 37.90 155.66 37.37 158.04 36.95 C 154.04 40.93 156.74 47.10 156.00 52.03 C 155.83 53.51 154.14 54.20 153.10 55.06 C 151.90 49.51 151.03 43.88 150.90 38.20 Z" />
</g>
<g id="#4e3e69ff">
<path fill="#4e3e69" opacity="1.00" d=" M 20.86 42.88 C 22.96 41.32 25.01 39.70 27.06 38.10 C 26.00 41.65 22.54 43.60 20.10 46.12 C 20.10 45.62 20.10 44.62 20.10 44.12 C 20.29 43.81 20.67 43.19 20.86 42.88 Z" />
</g>
<g id="#365779e1">
<path fill="#365779" opacity="0.88" d=" M 19.17 44.12 L 20.10 44.12 C 20.10 44.62 20.10 45.62 20.10 46.12 C 16.87 50.09 15.45 55.37 11.97 59.02 C 12.54 53.44 16.55 48.89 19.17 44.12 Z" />
</g>
<g id="#335977ff">
<path fill="#335977" opacity="1.00" d=" M 147.18 44.90 C 148.82 46.84 149.08 49.23 147.97 52.07 C 146.01 50.37 145.74 47.98 147.18 44.90 Z" />
</g>
<g id="#180e1a31">
<path fill="#180e1a" opacity="0.19" d=" M 165.68 48.58 C 168.46 47.55 171.41 48.25 174.27 48.70 C 171.42 49.11 168.50 49.20 165.68 48.58 Z" />
</g>
<g id="#4e325ba9">
<path fill="#4e325b" opacity="0.66" d=" M 200.69 48.57 C 203.50 47.66 206.40 48.26 209.26 48.70 C 206.42 49.11 203.50 49.21 200.69 48.57 Z" />
</g>
<g id="#20142648">
<path fill="#201426" opacity="0.28" d=" M 72.71 49.58 C 76.83 49.00 81.02 48.98 85.18 48.80 C 86.55 49.05 87.91 49.33 89.27 49.67 C 83.77 49.89 78.17 50.54 72.71 49.58 Z" />
</g>
<g id="#245980e4">
<path fill="#245980" opacity="0.89" d=" M 116.28 58.75 C 117.40 61.60 118.66 64.39 119.61 67.31 L 119.70 68.30 C 119.31 68.17 118.53 67.92 118.14 67.80 C 116.62 65.66 115.15 62.81 115.33 60.21 C 115.57 59.85 116.05 59.12 116.28 58.75 Z" />
</g>
<g id="#b9a2beff">
<path fill="#b9a2be" opacity="1.00" d=" M 120.68 62.76 C 123.13 59.93 124.71 66.12 123.80 68.15 C 120.95 67.72 120.67 65.19 120.68 62.76 Z" />
</g>
<g id="#b19bb8ff">
<path fill="#b19bb8" opacity="1.00" d=" M 138.02 61.83 C 140.99 62.33 141.74 66.01 142.45 68.48 C 139.42 68.07 135.17 66.52 138.02 61.83 Z" />
</g>
<g id="#514c68ff">
<path fill="#514c68" opacity="1.00" d=" M 119.61 67.31 C 119.88 65.78 120.00 64.18 120.68 62.76 C 120.67 65.19 120.95 67.72 123.80 68.15 C 123.59 68.67 123.18 69.69 122.98 70.20 C 121.75 69.82 120.70 69.07 119.70 68.30 L 119.61 67.31 Z" />
</g>
<g id="#316691f6">
<path fill="#316691" opacity="0.96" d=" M 113.21 72.28 C 114.80 70.74 116.17 68.84 118.14 67.80 C 118.53 67.92 119.31 68.17 119.70 68.30 C 120.70 69.07 121.75 69.82 122.98 70.20 C 123.89 70.58 124.82 70.91 125.77 71.17 C 128.84 72.03 132.22 72.46 135.29 71.37 C 137.79 70.72 140.22 69.79 142.45 68.48 L 143.28 68.13 C 142.28 71.18 141.15 74.55 138.04 76.06 C 134.12 78.48 129.32 76.59 125.94 74.06 C 123.64 74.31 123.88 76.64 126.03 77.01 C 122.54 81.18 118.29 84.95 115.90 90.07 C 111.88 88.35 115.48 83.46 117.01 80.99 C 115.81 77.88 110.53 76.92 113.21 72.28 M 118.25 71.22 C 113.49 72.88 119.22 79.33 121.82 75.81 C 124.31 74.27 120.02 70.71 118.25 71.22 Z" />
</g>
<g id="#34638aed">
<path fill="#34638a" opacity="0.93" d=" M 147.93 70.82 C 148.36 69.66 148.99 68.61 149.68 67.59 C 152.74 68.36 156.29 70.38 156.66 73.81 C 156.60 77.02 156.95 80.86 153.01 80.15 C 150.96 78.92 145.85 74.26 149.98 72.97 C 151.33 73.74 152.42 75.03 154.09 75.05 C 152.74 72.82 150.79 70.62 147.93 70.82 Z" />
</g>
<g id="#0205080c">
<path fill="#020508" opacity="0.05" d=" M 118.25 71.22 C 120.02 70.71 124.31 74.27 121.82 75.81 C 119.22 79.33 113.49 72.88 118.25 71.22 Z" />
</g>
<g id="#2d4459ff">
<path fill="#2d4459" opacity="1.00" d=" M 125.77 71.17 C 128.94 71.14 132.10 71.27 135.29 71.37 C 132.22 72.46 128.84 72.03 125.77 71.17 Z" />
</g>
<g id="#3a7398f0">
<path fill="#3a7398" opacity="0.94" d=" M 153.01 80.15 C 156.95 80.86 156.60 77.02 156.66 73.81 C 155.95 79.39 160.05 83.26 161.97 88.01 C 162.08 89.06 160.45 90.78 159.67 89.32 C 157.30 86.39 154.60 83.61 153.01 80.15 Z" />
</g>
<g id="#5b5c8dda">
<path fill="#5b5c8d" opacity="0.85" d=" M 242.24 85.31 L 242.80 85.12 C 244.60 89.41 246.53 93.66 248.05 98.06 C 244.85 94.89 242.44 90.23 240.12 86.13 L 240.94 85.82 C 241.27 85.69 241.92 85.44 242.24 85.31 Z" />
</g>
<g id="#39304fa0">
<path fill="#39304f" opacity="0.63" d=" M 2.24 96.70 C 1.78 95.39 1.24 92.67 2.81 92.06 C 3.04 92.33 3.50 92.86 3.73 93.13 C 4.27 94.30 3.41 96.48 2.24 96.70 Z" />
</g>
</svg>
