<?xml version="1.0" encoding="UTF-8" ?>
<!DOCTYPE svg PUBLIC "-//W3C//DTD SVG 1.1//EN" "http://www.w3.org/Graphics/SVG/1.1/DTD/svg11.dtd">
<svg width="124pt" height="116pt" viewBox="0 0 124 116" version="1.1" xmlns="http://www.w3.org/2000/svg">
<g id="#eeff87ff">
<path fill="#eeff87" opacity="1.00" d=" M 46.66 6.43 C 49.20 4.75 53.12 4.39 55.33 6.84 C 55.17 8.11 55.00 9.37 54.83 10.64 C 54.36 10.32 53.90 9.99 53.44 9.67 C 51.82 10.43 50.18 11.13 48.50 11.73 C 47.90 14.46 46.02 16.18 43.21 16.41 C 43.14 15.93 43.00 14.97 42.92 14.49 C 43.70 11.64 44.84 8.77 46.66 6.43 Z" />
</g>
<g id="#cdfd91ff">
<path fill="#cdfd91" opacity="1.00" d=" M 55.33 6.84 C 55.86 10.17 56.01 13.55 56.33 16.91 C 54.69 19.10 52.57 21.02 49.64 20.72 C 48.32 22.73 46.54 24.35 44.25 25.15 C 43.94 23.57 43.65 21.98 43.36 20.40 C 42.51 20.40 41.66 20.41 40.80 20.41 C 41.40 18.28 42.09 16.18 42.87 14.11 L 42.92 14.49 C 43.00 14.97 43.14 15.93 43.21 16.41 C 46.02 16.18 47.90 14.46 48.50 11.73 C 50.18 11.13 51.82 10.43 53.44 9.67 C 53.90 9.99 54.36 10.32 54.83 10.64 C 55.00 9.37 55.17 8.11 55.33 6.84 Z" />
</g>
<g id="#fefe90ff">
<path fill="#fefe90" opacity="1.00" d=" M 20.27 14.11 C 22.87 13.40 25.37 14.80 27.64 15.88 C 27.52 17.53 27.46 19.18 27.35 20.83 C 26.61 21.18 25.86 21.53 25.12 21.88 C 24.46 21.32 23.81 20.75 23.16 20.19 C 23.77 21.75 24.45 23.29 24.86 24.92 C 23.84 25.84 22.56 26.37 21.36 27.01 C 20.54 23.28 18.63 19.94 16.49 16.83 C 17.66 15.81 18.81 14.70 20.27 14.11 Z" />
</g>
<g id="#a8c872ff">
<path fill="#a8c872" opacity="1.00" d=" M 88.00 16.00 C 94.07 14.32 100.36 15.75 105.89 18.47 C 101.12 21.41 95.70 23.47 91.87 27.75 C 90.33 27.72 88.78 27.70 87.24 27.66 C 85.86 27.61 84.49 27.55 83.11 27.47 L 81.80 26.95 C 83.20 25.19 84.69 23.51 86.29 21.92 C 89.90 18.76 94.79 18.19 99.01 16.21 C 95.36 15.72 91.66 15.58 88.00 16.00 Z" />
</g>
<g id="#8de049f8">
<path fill="#8de049" opacity="0.97" d=" M 27.64 15.88 C 28.86 16.68 30.12 17.45 31.19 18.44 C 31.25 18.62 31.36 18.98 31.42 19.16 C 27.97 21.04 26.90 24.89 24.77 27.90 C 23.34 29.60 23.77 31.93 23.58 33.98 C 23.10 32.89 22.61 31.81 22.15 30.71 C 21.76 29.51 21.57 28.25 21.36 27.01 C 22.56 26.37 23.84 25.84 24.86 24.92 C 24.45 23.29 23.77 21.75 23.16 20.19 C 23.81 20.75 24.46 21.32 25.12 21.88 C 25.86 21.53 26.61 21.18 27.35 20.83 C 27.46 19.18 27.52 17.53 27.64 15.88 Z" />
</g>
<g id="#c8f379ff">
<path fill="#c8f379" opacity="1.00" d=" M 84.08 17.29 C 85.38 16.84 86.67 16.35 88.00 16.00 C 91.66 15.58 95.36 15.72 99.01 16.21 C 94.79 18.19 89.90 18.76 86.29 21.92 C 85.44 22.54 84.59 23.16 83.74 23.78 C 82.75 22.99 81.75 22.22 80.74 21.45 C 81.33 21.08 82.51 20.35 83.09 19.99 C 83.63 19.19 83.96 18.29 84.08 17.29 Z" />
</g>
<g id="#5ad342ff">
<path fill="#5ad342" opacity="1.00" d=" M 49.64 20.72 C 52.57 21.02 54.69 19.10 56.33 16.91 C 56.56 19.60 56.86 22.28 57.04 24.98 C 56.98 27.12 57.09 29.37 56.24 31.39 C 53.46 37.24 50.18 42.92 45.52 47.49 C 45.60 42.27 45.78 37.06 45.61 31.85 C 45.06 35.62 44.57 39.40 44.40 43.22 C 43.44 40.98 41.75 39.22 39.67 38.00 C 38.86 35.65 38.15 33.25 37.69 30.80 C 38.30 28.19 39.28 25.68 39.92 23.08 C 40.08 22.41 40.40 21.07 40.57 20.41 L 40.80 20.41 C 41.66 20.41 42.51 20.40 43.36 20.40 C 43.65 21.98 43.94 23.57 44.25 25.15 C 46.54 24.35 48.32 22.73 49.64 20.72 Z" />
</g>
<g id="#59c83bff">
<path fill="#59c83b" opacity="1.00" d=" M 31.19 18.44 C 33.81 20.62 36.28 23.00 38.34 25.74 C 35.97 27.61 34.13 30.06 31.72 31.88 C 29.70 30.42 28.40 28.21 26.73 26.40 C 27.22 28.73 27.80 31.04 28.48 33.33 C 26.26 35.07 24.82 37.49 24.11 40.20 C 23.35 37.06 22.55 33.92 22.15 30.71 C 22.61 31.81 23.10 32.89 23.58 33.98 C 23.77 31.93 23.34 29.60 24.77 27.90 C 26.90 24.89 27.97 21.04 31.42 19.16 C 31.36 18.98 31.25 18.62 31.19 18.44 Z" />
</g>
<g id="#56c23cff">
<path fill="#56c23c" opacity="1.00" d=" M 59.54 33.11 C 66.15 25.93 74.68 20.97 83.55 17.12 C 83.44 17.83 83.21 19.27 83.09 19.99 C 82.51 20.35 81.33 21.08 80.74 21.45 C 81.75 22.22 82.75 22.99 83.74 23.78 C 84.59 23.16 85.44 22.54 86.29 21.92 C 84.69 23.51 83.20 25.19 81.80 26.95 L 83.11 27.47 C 82.01 27.50 80.92 27.57 79.83 27.69 L 79.70 27.79 C 76.70 30.21 73.94 32.91 71.43 35.83 C 67.46 34.95 63.45 34.23 59.54 33.11 Z" />
</g>
<g id="#4aae39ff">
<path fill="#4aae39" opacity="1.00" d=" M 39.06 25.14 C 39.28 24.63 39.71 23.59 39.92 23.08 C 39.28 25.68 38.30 28.19 37.69 30.80 C 36.86 35.34 36.46 40.11 37.52 44.63 C 38.36 47.58 41.64 48.30 44.10 49.35 C 43.97 51.68 43.83 54.02 43.90 56.35 C 41.93 55.34 39.51 54.66 38.31 52.64 C 37.19 50.56 36.75 48.20 36.27 45.90 C 36.24 45.19 36.18 43.78 36.15 43.07 C 36.06 41.08 35.97 39.09 35.87 37.10 C 35.27 37.62 34.67 38.13 34.07 38.65 C 32.71 36.61 31.31 34.59 29.91 32.58 C 30.21 34.68 30.62 36.78 30.63 38.90 C 29.51 39.85 28.23 40.60 27.01 41.41 C 29.02 43.44 31.06 45.46 33.27 47.28 C 33.45 47.43 33.80 47.73 33.97 47.87 C 34.16 51.36 33.82 54.84 33.11 58.25 C 29.62 57.15 26.25 55.65 23.13 53.72 C 24.21 52.23 26.06 50.97 26.14 48.97 C 25.64 46.79 24.36 44.91 23.28 42.99 C 23.45 42.41 23.79 41.25 23.96 40.67 L 24.11 40.20 C 24.82 37.49 26.26 35.07 28.48 33.33 C 27.80 31.04 27.22 28.73 26.73 26.40 C 28.40 28.21 29.70 30.42 31.72 31.88 C 34.13 30.06 35.97 27.61 38.34 25.74 L 39.06 25.14 Z" />
</g>
<g id="#449f35ff">
<path fill="#449f35" opacity="1.00" d=" M 57.04 24.98 C 57.60 28.28 57.88 31.62 57.83 34.97 C 58.40 34.35 58.98 33.74 59.54 33.11 C 63.45 34.23 67.46 34.95 71.43 35.83 C 69.12 38.53 66.66 41.10 64.39 43.83 C 62.63 43.26 60.87 42.59 59.00 42.52 C 57.11 46.18 56.66 50.59 53.77 53.70 C 51.77 56.23 48.87 57.74 45.96 58.95 C 45.31 55.16 45.30 51.31 45.52 47.49 C 50.18 42.92 53.46 37.24 56.24 31.39 C 57.09 29.37 56.98 27.12 57.04 24.98 Z" />
</g>
<g id="#49ab38ff">
<path fill="#49ab38" opacity="1.00" d=" M 79.83 27.69 C 80.92 27.57 82.01 27.50 83.11 27.47 C 84.49 27.55 85.86 27.61 87.24 27.66 C 86.48 32.88 81.42 35.14 77.26 37.28 C 75.38 38.37 73.15 37.82 71.12 37.78 C 73.93 34.40 76.82 31.10 79.70 27.79 L 79.83 27.69 Z" />
</g>
<g id="#3b8c31ff">
<path fill="#3b8c31" opacity="1.00" d=" M 87.24 27.66 C 88.78 27.70 90.33 27.72 91.87 27.75 C 89.30 31.80 86.97 35.99 84.64 40.17 C 88.45 40.15 92.29 39.94 96.07 40.57 C 94.83 40.59 93.60 40.62 92.37 40.65 C 84.90 40.45 77.29 40.86 70.33 43.82 C 69.52 44.11 67.92 44.70 67.12 44.99 C 67.28 42.05 69.15 39.78 71.12 37.78 C 73.15 37.82 75.38 38.37 77.26 37.28 C 81.42 35.14 86.48 32.88 87.24 27.66 Z" />
</g>
<g id="#1f4f1fff">
<path fill="#1f4f1f" opacity="1.00" d=" M 71.43 35.83 C 73.94 32.91 76.70 30.21 79.70 27.79 C 76.82 31.10 73.93 34.40 71.12 37.78 C 69.15 39.78 67.28 42.05 67.12 44.99 C 63.43 47.33 60.25 50.40 57.59 53.86 C 57.47 52.41 56.63 50.37 58.17 49.35 C 60.41 47.70 62.74 46.12 64.39 43.83 C 66.66 41.10 69.12 38.53 71.43 35.83 Z" />
<path fill="#1f4f1f" opacity="1.00" d=" M 44.22 57.72 C 44.97 59.43 45.77 61.13 46.54 62.83 C 49.09 61.61 51.48 60.10 53.68 58.33 C 53.79 59.48 53.90 60.64 54.01 61.79 C 55.36 61.98 56.71 62.17 58.06 62.36 C 56.67 63.12 55.29 63.91 53.86 64.60 C 53.13 64.57 51.65 64.51 50.92 64.48 C 46.67 64.42 42.43 64.04 38.19 64.32 C 36.16 65.27 34.18 66.34 32.35 67.65 C 30.60 67.26 28.84 66.89 27.09 66.48 C 30.30 65.97 32.95 64.01 35.55 62.21 C 34.45 61.25 33.36 60.30 32.25 59.36 C 36.15 60.25 40.34 60.34 43.76 62.66 C 43.93 61.01 44.11 59.37 44.22 57.72 Z" />
</g>
<g id="#53c43eff">
<path fill="#53c43e" opacity="1.00" d=" M 37.52 44.63 C 36.46 40.11 36.86 35.34 37.69 30.80 C 38.15 33.25 38.86 35.65 39.67 38.00 C 41.75 39.22 43.44 40.98 44.40 43.22 C 44.33 45.26 44.22 47.30 44.10 49.35 C 41.64 48.30 38.36 47.58 37.52 44.63 Z" />
</g>
<g id="#2f6f2aff">
<path fill="#2f6f2a" opacity="1.00" d=" M 45.61 31.85 C 45.78 37.06 45.60 42.27 45.52 47.49 C 45.30 51.31 45.31 55.16 45.96 58.95 C 48.87 57.74 51.77 56.23 53.77 53.70 C 56.66 50.59 57.11 46.18 59.00 42.52 C 60.87 42.59 62.63 43.26 64.39 43.83 C 62.74 46.12 60.41 47.70 58.17 49.35 C 56.63 50.37 57.47 52.41 57.59 53.86 C 56.80 56.11 56.56 58.50 56.98 60.85 C 60.45 59.87 63.87 58.72 67.20 57.35 C 73.66 54.98 79.93 52.11 86.37 49.69 L 87.21 50.14 C 79.68 53.74 71.85 56.68 64.23 60.07 C 62.42 60.89 60.67 61.84 58.92 62.80 C 63.65 65.14 68.75 66.77 74.04 67.08 C 70.60 67.90 67.10 68.55 63.56 68.67 C 60.35 67.27 57.17 65.77 53.86 64.60 C 55.29 63.91 56.67 63.12 58.06 62.36 C 56.71 62.17 55.36 61.98 54.01 61.79 C 53.90 60.64 53.79 59.48 53.68 58.33 C 51.48 60.10 49.09 61.61 46.54 62.83 C 45.77 61.13 44.97 59.43 44.22 57.72 C 44.14 57.38 43.98 56.70 43.90 56.35 C 43.83 54.02 43.97 51.68 44.10 49.35 C 44.22 47.30 44.33 45.26 44.40 43.22 C 44.57 39.40 45.06 35.62 45.61 31.85 Z" />
</g>
<g id="#3c8c31ff">
<path fill="#3c8c31" opacity="1.00" d=" M 29.91 32.58 C 31.31 34.59 32.71 36.61 34.07 38.65 C 34.67 38.13 35.27 37.62 35.87 37.10 C 35.97 39.09 36.06 41.08 36.15 43.07 C 35.09 41.92 34.03 40.76 32.99 39.60 C 33.25 42.15 33.38 44.72 33.27 47.28 C 31.06 45.46 29.02 43.44 27.01 41.41 C 28.23 40.60 29.51 39.85 30.63 38.90 C 30.62 36.78 30.21 34.68 29.91 32.58 Z" />
</g>
<g id="#f7ff84ff">
<path fill="#f7ff84" opacity="1.00" d=" M 0.16 41.45 C 3.22 38.95 7.23 38.48 11.02 38.09 C 11.68 40.01 12.30 41.97 12.50 44.01 C 13.01 45.14 13.54 46.26 14.08 47.38 C 11.35 46.01 8.66 44.56 6.03 43.01 C 8.24 44.80 12.06 46.56 10.41 50.02 C 10.09 50.06 9.45 50.14 9.13 50.17 C 8.85 50.14 8.29 50.06 8.01 50.02 C 6.41 46.37 2.69 44.38 0.16 41.45 Z" />
</g>
<g id="#5bd23fff">
<path fill="#5bd23f" opacity="1.00" d=" M 11.02 38.09 C 15.44 38.24 19.81 39.14 23.96 40.67 C 23.79 41.25 23.45 42.41 23.28 42.99 C 24.36 44.91 25.64 46.79 26.14 48.97 C 26.06 50.97 24.21 52.23 23.13 53.72 C 19.78 51.69 16.46 49.60 12.92 47.92 C 15.06 49.69 17.26 51.38 19.57 52.92 C 18.06 53.27 16.55 53.62 15.03 53.97 C 14.64 54.54 13.85 55.69 13.45 56.27 C 12.01 54.25 10.26 52.39 9.13 50.17 C 9.45 50.14 10.09 50.06 10.41 50.02 C 12.06 46.56 8.24 44.80 6.03 43.01 C 8.66 44.56 11.35 46.01 14.08 47.38 C 13.54 46.26 13.01 45.14 12.50 44.01 C 12.30 41.97 11.68 40.01 11.02 38.09 Z" />
</g>
<g id="#276622ff">
<path fill="#276622" opacity="1.00" d=" M 32.99 39.60 C 34.03 40.76 35.09 41.92 36.15 43.07 C 36.18 43.78 36.24 45.19 36.27 45.90 C 36.25 46.72 36.20 48.35 36.18 49.17 C 35.63 48.84 34.52 48.20 33.97 47.87 C 33.80 47.73 33.45 47.43 33.27 47.28 C 33.38 44.72 33.25 42.15 32.99 39.60 Z" />
</g>
<g id="#54c53fff">
<path fill="#54c53f" opacity="1.00" d=" M 70.33 43.82 C 77.29 40.86 84.90 40.45 92.37 40.65 C 91.06 41.64 89.73 42.58 88.40 43.54 C 88.50 44.32 88.59 45.10 88.69 45.88 C 87.42 46.87 86.17 47.88 84.91 48.89 L 85.50 49.20 L 86.37 49.69 C 79.93 52.11 73.66 54.98 67.20 57.35 C 66.56 55.63 65.78 53.94 65.41 52.14 C 66.99 49.32 69.37 46.98 70.33 43.82 Z" />
</g>
<g id="#a7d385ff">
<path fill="#a7d385" opacity="1.00" d=" M 92.37 40.65 C 93.60 40.62 94.83 40.59 96.07 40.57 C 99.00 40.75 101.96 41.18 104.74 42.19 C 105.29 42.52 106.40 43.19 106.96 43.52 C 100.05 42.68 93.90 45.94 87.87 48.74 C 87.28 48.86 86.09 49.09 85.50 49.20 L 84.91 48.89 C 86.17 47.88 87.42 46.87 88.69 45.88 C 88.59 45.10 88.50 44.32 88.40 43.54 C 89.73 42.58 91.06 41.64 92.37 40.65 Z" />
</g>
<g id="#7fa66bfd">
<path fill="#7fa66b" opacity="1.00" d=" M 104.74 42.19 C 107.11 42.68 109.44 43.34 111.76 44.04 C 107.82 46.21 103.62 47.87 99.64 49.98 C 100.28 48.63 100.93 47.30 101.58 45.96 C 97.69 46.71 93.61 47.26 90.25 49.53 C 89.65 49.33 88.46 48.94 87.87 48.74 C 93.90 45.94 100.05 42.68 106.96 43.52 C 106.40 43.19 105.29 42.52 104.74 42.19 Z" />
</g>
<g id="#45a338ff">
<path fill="#45a338" opacity="1.00" d=" M 67.12 44.99 C 67.92 44.70 69.52 44.11 70.33 43.82 C 69.37 46.98 66.99 49.32 65.41 52.14 C 65.78 53.94 66.56 55.63 67.20 57.35 C 63.87 58.72 60.45 59.87 56.98 60.85 C 56.56 58.50 56.80 56.11 57.59 53.86 C 60.25 50.40 63.43 47.33 67.12 44.99 Z" />
</g>
<g id="#36812fff">
<path fill="#36812f" opacity="1.00" d=" M 36.27 45.90 C 36.75 48.20 37.19 50.56 38.31 52.64 C 39.51 54.66 41.93 55.34 43.90 56.35 C 43.98 56.70 44.14 57.38 44.22 57.72 C 44.11 59.37 43.93 61.01 43.76 62.66 C 40.34 60.34 36.15 60.25 32.25 59.36 C 33.36 60.30 34.45 61.25 35.55 62.21 C 32.95 64.01 30.30 65.97 27.09 66.48 C 25.95 66.12 24.81 65.74 23.68 65.34 C 26.47 63.86 29.15 62.14 31.63 60.18 C 30.46 59.49 29.28 58.80 28.10 58.12 C 25.22 56.45 22.35 54.75 19.57 52.92 C 17.26 51.38 15.06 49.69 12.92 47.92 C 16.46 49.60 19.78 51.69 23.13 53.72 C 26.25 55.65 29.62 57.15 33.11 58.25 C 33.82 54.84 34.16 51.36 33.97 47.87 C 34.52 48.20 35.63 48.84 36.18 49.17 C 36.20 48.35 36.25 46.72 36.27 45.90 Z" />
</g>
<g id="#95bb78ff">
<path fill="#95bb78" opacity="1.00" d=" M 90.25 49.53 C 93.61 47.26 97.69 46.71 101.58 45.96 C 100.93 47.30 100.28 48.63 99.64 49.98 C 98.16 51.10 96.68 52.23 95.21 53.37 C 94.43 53.17 92.89 52.76 92.12 52.56 C 91.60 52.42 90.57 52.14 90.06 52.00 C 90.10 51.38 90.20 50.15 90.25 49.53 Z" />
</g>
<g id="#4bb138ff">
<path fill="#4bb138" opacity="1.00" d=" M 85.50 49.20 C 86.09 49.09 87.28 48.86 87.87 48.74 C 88.46 48.94 89.65 49.33 90.25 49.53 C 90.20 50.15 90.10 51.38 90.06 52.00 C 90.57 52.14 91.60 52.42 92.12 52.56 C 87.61 55.31 83.03 58.00 78.29 60.33 C 73.77 61.86 68.72 61.60 64.23 60.07 C 71.85 56.68 79.68 53.74 87.21 50.14 L 86.37 49.69 L 85.50 49.20 Z" />
</g>
<g id="#53bf3bff">
<path fill="#53bf3b" opacity="1.00" d=" M 15.03 53.97 C 16.55 53.62 18.06 53.27 19.57 52.92 C 22.35 54.75 25.22 56.45 28.10 58.12 C 25.19 59.62 22.35 61.27 19.30 62.47 C 17.20 60.55 15.33 58.40 13.45 56.27 C 13.85 55.69 14.64 54.54 15.03 53.97 Z" />
</g>
<g id="#3f9633ff">
<path fill="#3f9633" opacity="1.00" d=" M 78.29 60.33 C 83.03 58.00 87.61 55.31 92.12 52.56 C 92.89 52.76 94.43 53.17 95.21 53.37 C 88.68 58.63 82.37 64.86 74.04 67.08 C 68.75 66.77 63.65 65.14 58.92 62.80 C 60.67 61.84 62.42 60.89 64.23 60.07 C 68.72 61.60 73.77 61.86 78.29 60.33 Z" />
</g>
<g id="#44a034fe">
<path fill="#44a034" opacity="1.00" d=" M 28.10 58.12 C 29.28 58.80 30.46 59.49 31.63 60.18 C 29.15 62.14 26.47 63.86 23.68 65.34 C 22.20 64.41 20.72 63.48 19.30 62.47 C 22.35 61.27 25.19 59.62 28.10 58.12 Z" />
</g>
<g id="#638a9aff">
<path fill="#638a9a" opacity="1.00" d=" M 38.19 64.32 C 42.43 64.04 46.67 64.42 50.92 64.48 C 52.53 65.86 54.10 67.31 55.41 68.98 C 51.28 67.75 47.01 67.05 42.69 66.99 C 41.80 66.94 40.90 66.90 40.01 66.85 C 39.41 66.00 38.80 65.16 38.19 64.32 Z" />
</g>
<g id="#7baab2ff">
<path fill="#7baab2" opacity="1.00" d=" M 32.35 67.65 C 34.18 66.34 36.16 65.27 38.19 64.32 C 38.80 65.16 39.41 66.00 40.01 66.85 C 40.90 66.90 41.80 66.94 42.69 66.99 C 43.31 67.99 43.96 68.97 44.62 69.94 C 39.87 71.00 34.70 72.30 31.78 76.58 L 30.64 77.93 C 30.42 78.20 29.98 78.73 29.76 79.00 L 29.44 79.45 C 29.29 80.22 28.99 81.76 28.85 82.53 C 28.57 84.03 28.30 85.53 27.95 87.02 C 27.03 88.92 25.88 90.69 24.69 92.44 C 24.19 91.60 23.70 90.75 23.21 89.91 C 24.56 84.17 25.56 78.36 27.39 72.74 C 28.55 70.65 30.60 69.22 32.35 67.65 Z" />
</g>
<g id="#4a7091ff">
<path fill="#4a7091" opacity="1.00" d=" M 50.92 64.48 C 51.65 64.51 53.13 64.57 53.86 64.60 C 57.17 65.77 60.35 67.27 63.56 68.67 C 72.64 74.42 76.54 90.75 66.00 96.95 C 65.52 96.93 64.57 96.90 64.10 96.88 C 66.29 94.20 68.54 91.46 69.43 88.03 C 66.41 89.86 63.48 91.93 60.10 93.07 C 52.33 95.92 43.70 95.58 36.20 99.29 C 32.92 99.57 29.94 97.27 27.20 95.64 C 27.66 95.13 28.57 94.10 29.02 93.59 C 38.27 93.06 48.97 93.17 55.86 85.93 C 60.68 81.42 58.54 73.85 55.41 68.98 C 54.10 67.31 52.53 65.86 50.92 64.48 Z" />
</g>
<g id="#5e8fb6ff">
<path fill="#5e8fb6" opacity="1.00" d=" M 42.69 66.99 C 47.01 67.05 51.28 67.75 55.41 68.98 C 58.54 73.85 60.68 81.42 55.86 85.93 C 48.97 93.17 38.27 93.06 29.02 93.59 C 30.17 91.97 30.88 90.11 31.59 88.27 C 32.83 88.40 34.08 88.48 35.32 88.56 C 35.54 87.95 35.97 86.72 36.18 86.10 C 36.73 86.29 37.82 86.67 38.36 86.86 L 36.25 87.01 C 37.37 87.65 38.42 89.38 39.92 88.79 C 40.86 88.20 41.70 87.49 42.57 86.80 C 44.39 86.03 45.84 84.66 47.25 83.31 C 48.71 83.08 50.18 82.91 51.61 82.56 C 53.00 81.11 51.57 79.02 51.17 77.42 C 49.11 74.82 46.71 72.51 44.62 69.94 C 43.96 68.97 43.31 67.99 42.69 66.99 Z" />
</g>
<g id="#6da5d0ff">
<path fill="#6da5d0" opacity="1.00" d=" M 44.62 69.94 C 46.71 72.51 49.11 74.82 51.17 77.42 C 49.80 78.16 46.68 77.64 47.07 79.97 C 47.12 80.80 47.21 82.48 47.25 83.31 C 45.84 84.66 44.39 86.03 42.57 86.80 C 41.16 86.84 39.76 86.86 38.36 86.86 C 37.82 86.67 36.73 86.29 36.18 86.10 C 35.97 86.72 35.54 87.95 35.32 88.56 C 34.08 88.48 32.83 88.40 31.59 88.27 C 30.37 87.87 29.16 87.45 27.95 87.02 C 28.30 85.53 28.57 84.03 28.85 82.53 C 30.31 82.35 32.21 82.53 32.96 80.92 C 33.85 79.28 32.61 77.89 31.78 76.58 C 34.70 72.30 39.87 71.00 44.62 69.94 Z" />
</g>
<g id="#99c9b0ef">
<path fill="#99c9b0" opacity="0.94" d=" M 23.21 89.91 C 21.87 83.94 23.21 77.32 27.39 72.74 C 25.56 78.36 24.56 84.17 23.21 89.91 Z" />
</g>
<g id="#63676eff">
<path fill="#63676e" opacity="1.00" d=" M 31.78 76.58 C 32.61 77.89 33.85 79.28 32.96 80.92 C 32.21 82.53 30.31 82.35 28.85 82.53 C 28.99 81.76 29.29 80.22 29.44 79.45 L 29.76 79.00 C 30.05 79.59 30.62 80.79 30.91 81.38 C 31.14 81.05 31.61 80.40 31.84 80.07 L 32.17 79.26 C 31.79 78.93 31.02 78.26 30.64 77.93 L 31.78 76.58 Z" />
</g>
<g id="#bb6157ff">
<path fill="#bb6157" opacity="1.00" d=" M 29.76 79.00 C 29.98 78.73 30.42 78.20 30.64 77.93 C 30.94 78.47 31.54 79.54 31.84 80.07 C 31.61 80.40 31.14 81.05 30.91 81.38 C 30.62 80.79 30.05 79.59 29.76 79.00 Z" />
</g>
<g id="#e2d2ccff">
<path fill="#e2d2cc" opacity="1.00" d=" M 30.64 77.93 C 31.02 78.26 31.79 78.93 32.17 79.26 L 31.84 80.07 C 31.54 79.54 30.94 78.47 30.64 77.93 Z" />
</g>
<g id="#4f596bff">
<path fill="#4f596b" opacity="1.00" d=" M 47.07 79.97 C 46.68 77.64 49.80 78.16 51.17 77.42 C 51.57 79.02 53.00 81.11 51.61 82.56 C 50.18 82.91 48.71 83.08 47.25 83.31 C 47.21 82.48 47.12 80.80 47.07 79.97 M 48.26 81.12 C 48.87 84.23 53.45 80.06 50.32 79.19 C 48.39 78.53 47.70 79.17 48.26 81.12 Z" />
</g>
<g id="#e6c1bfff">
<path fill="#e6c1bf" opacity="1.00" d=" M 48.26 81.12 C 47.70 79.17 48.39 78.53 50.32 79.19 C 50.16 80.39 49.47 81.04 48.26 81.12 Z" />
</g>
<g id="#c55a4cff">
<path fill="#c55a4c" opacity="1.00" d=" M 50.32 79.19 C 53.45 80.06 48.87 84.23 48.26 81.12 C 49.47 81.04 50.16 80.39 50.32 79.19 Z" />
</g>
<g id="#355e84ff">
<path fill="#355e84" opacity="1.00" d=" M 38.36 86.86 C 39.76 86.86 41.16 86.84 42.57 86.80 C 41.70 87.49 40.86 88.20 39.92 88.79 C 38.42 89.38 37.37 87.65 36.25 87.01 L 38.36 86.86 Z" />
</g>
<g id="#6d9dacff">
<path fill="#6d9dac" opacity="1.00" d=" M 27.95 87.02 C 29.16 87.45 30.37 87.87 31.59 88.27 C 30.88 90.11 30.17 91.97 29.02 93.59 C 28.57 94.10 27.66 95.13 27.20 95.64 C 26.28 94.70 25.35 93.77 24.42 92.83 L 24.69 92.44 C 25.88 90.69 27.03 88.92 27.95 87.02 Z" />
</g>
<g id="#375680ff">
<path fill="#375680" opacity="1.00" d=" M 60.10 93.07 C 63.48 91.93 66.41 89.86 69.43 88.03 C 68.54 91.46 66.29 94.20 64.10 96.88 C 64.57 96.90 65.52 96.93 66.00 96.95 C 64.12 98.08 62.08 98.89 60.03 99.64 C 60.47 103.13 64.94 105.14 63.64 108.97 C 61.67 113.83 55.35 113.26 51.07 112.81 C 53.43 111.86 55.71 110.70 57.71 109.11 C 58.28 107.23 58.68 105.31 59.05 103.39 C 57.56 103.22 56.08 103.06 54.59 102.90 C 54.85 102.29 55.36 101.07 55.62 100.46 C 51.40 100.89 47.16 100.91 42.92 100.97 C 42.46 100.99 41.54 101.03 41.08 101.05 C 40.22 102.98 38.33 103.94 36.54 104.85 C 36.22 106.26 35.91 107.67 35.59 109.08 C 36.11 109.74 36.63 110.41 37.15 111.08 C 35.42 111.11 33.69 111.15 31.96 111.14 C 32.28 108.64 32.71 106.16 33.38 103.73 C 33.17 103.75 32.74 103.79 32.52 103.81 L 31.99 103.87 C 34.20 103.04 36.86 102.75 38.16 100.51 C 37.54 100.26 36.30 99.76 35.68 99.50 L 36.20 99.29 C 43.70 95.58 52.33 95.92 60.10 93.07 Z" />
</g>
<g id="#283e68ff">
<path fill="#283e68" opacity="1.00" d=" M 41.08 101.05 C 41.54 101.03 42.46 100.99 42.92 100.97 C 44.27 102.95 46.55 105.31 45.10 107.86 C 40.41 111.59 33.61 112.90 27.90 111.09 C 29.25 111.12 30.61 111.14 31.96 111.14 C 33.69 111.15 35.42 111.11 37.15 111.08 C 36.63 110.41 36.11 109.74 35.59 109.08 C 35.91 107.67 36.22 106.26 36.54 104.85 C 38.33 103.94 40.22 102.98 41.08 101.05 Z" />
</g>
<g id="#4f7081ff">
<path fill="#4f7081" opacity="1.00" d=" M 54.59 102.90 C 56.08 103.06 57.56 103.22 59.05 103.39 C 58.68 105.31 58.28 107.23 57.71 109.11 C 57.19 108.62 56.14 107.64 55.62 107.15 C 53.27 107.42 50.91 107.69 48.56 107.97 C 50.47 106.16 52.50 104.49 54.59 102.90 Z" />
</g>
<g id="#5c8baaff">
<path fill="#5c8baa" opacity="1.00" d=" M 26.64 106.58 C 28.23 105.08 30.29 103.88 32.52 103.81 C 32.74 103.79 33.17 103.75 33.38 103.73 C 32.71 106.16 32.28 108.64 31.96 111.14 C 30.61 111.14 29.25 111.12 27.90 111.09 L 27.15 111.08 C 26.89 109.64 25.43 107.93 26.64 106.58 Z" />
</g>
<g id="#5d8ab5ff">
<path fill="#5d8ab5" opacity="1.00" d=" M 48.56 107.97 C 50.91 107.69 53.27 107.42 55.62 107.15 C 56.14 107.64 57.19 108.62 57.71 109.11 C 55.71 110.70 53.43 111.86 51.07 112.81 C 49.54 111.59 48.69 109.92 48.56 107.97 Z" />
</g>
</svg>
