<?xml version="1.0" encoding="UTF-8" ?>
<!DOCTYPE svg PUBLIC "-//W3C//DTD SVG 1.1//EN" "http://www.w3.org/Graphics/SVG/1.1/DTD/svg11.dtd">
<svg width="171pt" height="148pt" viewBox="0 0 171 148" version="1.1" xmlns="http://www.w3.org/2000/svg">
<g id="#3d281776">
<path fill="#3d2817" opacity="0.46" d=" M 45.43 7.00 C 45.65 5.05 50.34 4.91 50.70 6.87 C 48.94 6.95 47.19 7.00 45.43 7.00 Z" />
</g>
<g id="#dc8866ff">
<path fill="#dc8866" opacity="1.00" d=" M 68.18 8.77 C 73.38 6.60 79.26 4.78 85.00 6.09 C 88.39 6.57 91.66 8.27 95.14 7.59 C 99.16 7.06 103.06 8.66 106.98 9.31 C 106.62 10.61 106.29 11.91 105.98 13.21 C 105.38 10.33 102.68 9.92 100.19 9.72 C 97.47 9.24 94.70 9.43 92.05 10.14 C 90.06 10.27 88.08 9.92 86.14 9.52 C 86.66 9.16 87.70 8.43 88.22 8.06 C 83.45 7.63 78.44 6.74 73.83 8.55 C 71.47 9.48 69.07 10.33 66.58 10.82 C 64.38 10.63 62.16 10.56 59.95 10.63 C 58.65 10.67 57.91 11.40 57.74 12.81 C 54.64 14.10 51.08 15.08 49.00 17.92 C 46.23 21.70 43.67 25.82 42.53 30.41 C 42.14 34.11 42.70 37.83 42.50 41.54 C 41.95 40.30 41.46 39.05 41.01 37.78 C 40.08 34.17 39.90 30.42 40.22 26.72 C 41.91 22.22 43.71 17.46 47.44 14.22 C 50.05 12.10 53.02 10.47 55.83 8.64 C 59.90 8.90 63.99 9.06 68.06 8.78 L 68.18 8.77 Z" />
<path fill="#dc8866" opacity="1.00" d=" M 32.55 12.64 C 36.42 9.99 40.48 6.82 45.43 7.00 C 47.19 7.00 48.94 6.95 50.70 6.87 L 52.55 6.83 C 52.53 7.37 52.49 8.45 52.47 8.99 C 51.92 8.92 50.81 8.78 50.25 8.71 C 42.84 7.02 35.71 11.60 31.45 17.35 C 27.79 21.68 27.64 27.58 26.14 32.79 C 24.72 25.53 27.49 17.88 32.55 12.64 Z" />
</g>
<g id="#d46439ff">
<path fill="#d46439" opacity="1.00" d=" M 148.32 6.30 C 153.70 8.48 157.65 13.47 159.52 18.88 C 163.13 26.45 163.85 35.79 159.76 43.32 C 159.98 39.31 158.94 35.47 157.40 31.82 C 156.50 26.07 157.41 19.87 154.36 14.59 C 154.10 18.45 154.13 22.34 153.43 26.15 C 154.05 22.80 153.67 19.38 153.21 16.04 C 152.91 12.25 149.92 9.55 148.32 6.30 Z" />
</g>
<g id="#955652ff">
<path fill="#955652" opacity="1.00" d=" M 52.55 6.83 C 55.03 7.46 57.48 8.23 60.01 8.61 C 62.71 8.56 65.57 7.79 68.18 8.77 L 68.06 8.78 C 63.99 9.06 59.90 8.90 55.83 8.64 C 53.02 10.47 50.05 12.10 47.44 14.22 C 43.71 17.46 41.91 22.22 40.22 26.72 C 37.31 32.94 33.58 39.38 34.23 46.50 C 33.26 45.92 32.29 45.34 31.32 44.76 L 31.33 44.53 C 31.59 38.96 31.62 33.17 34.03 28.01 C 35.56 24.76 36.70 21.26 38.87 18.36 C 40.22 16.88 41.63 15.44 43.00 13.98 C 42.20 13.71 40.59 13.19 39.78 12.93 C 43.14 11.23 46.61 9.69 50.25 8.71 C 50.81 8.78 51.92 8.92 52.47 8.99 C 52.49 8.45 52.53 7.37 52.55 6.83 Z" />
</g>
<g id="#965450ff">
<path fill="#965450" opacity="1.00" d=" M 73.83 8.55 C 78.44 6.74 83.45 7.63 88.22 8.06 C 87.70 8.43 86.66 9.16 86.14 9.52 C 84.90 10.33 83.62 11.08 82.34 11.83 C 81.25 11.23 80.16 10.63 79.04 10.08 C 77.33 9.48 75.58 9.01 73.83 8.55 Z" />
</g>
<g id="#c47a5aff">
<path fill="#c47a5a" opacity="1.00" d=" M 31.45 17.35 C 35.71 11.60 42.84 7.02 50.25 8.71 C 46.61 9.69 43.14 11.23 39.78 12.93 C 37.89 13.73 36.48 15.26 35.25 16.86 C 33.81 18.72 32.52 20.74 31.86 23.03 C 29.64 21.45 28.79 26.25 31.40 24.94 C 30.25 27.31 28.51 29.56 28.45 32.29 C 28.44 35.39 29.00 38.45 29.60 41.47 C 27.50 39.01 26.64 35.92 26.14 32.79 C 27.64 27.58 27.79 21.68 31.45 17.35 Z" />
</g>
<g id="#ab705dff">
<path fill="#ab705d" opacity="1.00" d=" M 107.27 8.28 C 107.27 8.60 107.27 9.23 107.26 9.55 C 110.62 11.79 114.99 13.48 116.56 17.51 L 116.50 18.29 C 115.62 16.92 113.95 17.52 113.41 18.81 C 109.46 21.30 105.11 25.34 100.10 22.93 C 98.07 20.87 97.65 17.43 94.96 15.90 C 91.86 13.34 87.77 12.95 83.92 12.63 C 86.57 11.62 89.30 10.82 92.05 10.14 C 94.70 9.43 97.47 9.24 100.19 9.72 C 100.93 12.48 103.47 13.05 105.98 13.21 C 106.29 11.91 106.62 10.61 106.98 9.31 C 107.05 9.05 107.20 8.54 107.27 8.28 M 97.99 16.38 C 97.59 17.79 98.09 18.27 99.49 17.81 C 99.89 16.40 99.39 15.93 97.99 16.38 Z" />
</g>
<g id="#da7453ff">
<path fill="#da7453" opacity="1.00" d=" M 66.58 10.82 C 69.07 10.33 71.47 9.48 73.83 8.55 C 75.58 9.01 77.33 9.48 79.04 10.08 C 77.87 10.69 76.71 11.30 75.52 11.88 C 72.48 12.48 69.48 11.67 66.58 10.82 Z" />
</g>
<g id="#c15d49ff">
<path fill="#c15d49" opacity="1.00" d=" M 82.34 11.83 C 83.62 11.08 84.90 10.33 86.14 9.52 C 88.08 9.92 90.06 10.27 92.05 10.14 C 89.30 10.82 86.57 11.62 83.92 12.63 C 83.07 13.36 82.25 14.12 81.45 14.91 C 79.47 13.90 77.50 12.89 75.52 11.88 C 76.71 11.30 77.87 10.69 79.04 10.08 C 80.16 10.63 81.25 11.23 82.34 11.83 Z" />
</g>
<g id="#ac705eff">
<path fill="#ac705e" opacity="1.00" d=" M 59.95 10.63 C 62.16 10.56 64.38 10.63 66.58 10.82 C 69.48 11.67 72.48 12.48 75.52 11.88 C 77.50 12.89 79.47 13.90 81.45 14.91 C 76.79 19.37 74.88 25.84 70.35 30.41 C 65.23 36.56 57.25 38.91 50.23 42.15 C 48.10 43.06 47.17 45.33 45.95 47.14 L 45.72 46.94 C 44.53 45.21 43.43 43.42 42.50 41.54 C 42.70 37.83 42.14 34.11 42.53 30.41 C 43.67 25.82 46.23 21.70 49.00 17.92 C 51.08 15.08 54.64 14.10 57.74 12.81 C 59.26 12.75 59.99 12.02 59.95 10.63 M 64.25 16.64 C 66.11 16.65 67.97 16.65 69.83 16.64 C 69.63 15.64 69.43 14.63 69.24 13.62 C 67.01 13.40 63.59 13.45 64.25 16.64 M 52.25 22.22 C 48.10 23.32 53.52 29.33 55.69 26.72 C 58.26 24.80 54.87 20.18 52.25 22.22 M 62.05 29.81 C 64.07 29.78 66.14 29.54 67.07 27.49 C 64.80 26.08 61.51 26.51 62.05 29.81 Z" />
</g>
<g id="#efd1c3ff">
<path fill="#efd1c3" opacity="1.00" d=" M 100.19 9.72 C 102.68 9.92 105.38 10.33 105.98 13.21 C 103.47 13.05 100.93 12.48 100.19 9.72 Z" />
</g>
<g id="#e7c0acff">
<path fill="#e7c0ac" opacity="1.00" d=" M 57.74 12.81 C 57.91 11.40 58.65 10.67 59.95 10.63 C 59.99 12.02 59.26 12.75 57.74 12.81 Z" />
</g>
<g id="#e0c7cbff">
<path fill="#e0c7cb" opacity="1.00" d=" M 35.25 16.86 C 36.48 15.26 37.89 13.73 39.78 12.93 C 40.59 13.19 42.20 13.71 43.00 13.98 C 41.63 15.44 40.22 16.88 38.87 18.36 C 37.67 17.85 36.46 17.35 35.25 16.86 Z" />
</g>
<g id="#efe2daff">
<path fill="#efe2da" opacity="1.00" d=" M 64.25 16.64 C 63.59 13.45 67.01 13.40 69.24 13.62 C 69.43 14.63 69.63 15.64 69.83 16.64 C 67.97 16.65 66.11 16.65 64.25 16.64 Z" />
</g>
<g id="#905b52ff">
<path fill="#905b52" opacity="1.00" d=" M 81.45 14.91 C 82.25 14.12 83.07 13.36 83.92 12.63 C 87.77 12.95 91.86 13.34 94.96 15.90 C 97.65 17.43 98.07 20.87 100.10 22.93 C 105.11 25.34 109.46 21.30 113.41 18.81 C 114.07 20.16 116.78 20.18 116.50 18.29 L 116.56 17.51 C 118.48 19.96 119.87 22.85 120.00 26.01 C 119.93 28.00 119.80 29.99 119.72 31.98 C 118.90 30.17 118.10 28.34 117.33 26.51 C 114.37 30.36 111.63 34.78 107.08 36.91 C 104.23 38.11 101.32 39.16 98.51 40.46 C 94.65 38.80 89.95 36.94 88.60 32.54 C 87.42 28.71 86.90 24.67 85.13 21.02 C 82.17 25.97 81.24 31.98 77.36 36.40 C 71.09 44.70 60.85 48.23 51.44 51.64 C 49.60 50.15 47.76 48.66 45.95 47.14 C 47.17 45.33 48.10 43.06 50.23 42.15 C 57.25 38.91 65.23 36.56 70.35 30.41 C 74.88 25.84 76.79 19.37 81.45 14.91 M 112.03 24.50 C 110.77 25.41 112.16 27.83 113.52 26.76 C 114.75 25.85 113.38 23.48 112.03 24.50 Z" />
</g>
<g id="#e5683aff">
<path fill="#e5683a" opacity="1.00" d=" M 154.36 14.59 C 157.41 19.87 156.50 26.07 157.40 31.82 C 158.94 35.47 159.98 39.31 159.76 43.32 C 156.12 50.59 148.82 55.09 141.40 57.80 C 141.51 57.40 141.75 56.59 141.86 56.19 C 142.61 55.75 143.38 55.33 144.15 54.93 C 148.74 52.83 152.92 49.87 156.10 45.92 C 154.51 44.68 152.96 43.40 151.40 42.14 C 151.72 39.78 151.60 37.39 150.50 35.23 C 152.04 32.41 152.78 29.27 153.43 26.15 C 154.13 22.34 154.10 18.45 154.36 14.59 Z" />
</g>
<g id="#ccaca4ff">
<path fill="#ccaca4" opacity="1.00" d=" M 97.99 16.38 C 99.39 15.93 99.89 16.40 99.49 17.81 C 98.09 18.27 97.59 17.79 97.99 16.38 Z" />
</g>
<g id="#a66559ff">
<path fill="#a66559" opacity="1.00" d=" M 31.86 23.03 C 32.52 20.74 33.81 18.72 35.25 16.86 C 36.46 17.35 37.67 17.85 38.87 18.36 C 36.70 21.26 35.56 24.76 34.03 28.01 C 31.62 33.17 31.59 38.96 31.33 44.53 C 30.75 43.52 30.07 42.54 29.60 41.47 C 29.00 38.45 28.44 35.39 28.45 32.29 C 28.51 29.56 30.25 27.31 31.40 24.94 C 31.51 24.46 31.74 23.51 31.86 23.03 Z" />
</g>
<g id="#be9b8aff">
<path fill="#be9b8a" opacity="1.00" d=" M 113.41 18.81 C 113.95 17.52 115.62 16.92 116.50 18.29 C 116.78 20.18 114.07 20.16 113.41 18.81 Z" />
</g>
<g id="#e6dbd6ff">
<path fill="#e6dbd6" opacity="1.00" d=" M 52.25 22.22 C 54.87 20.18 58.26 24.80 55.69 26.72 C 53.52 29.33 48.10 23.32 52.25 22.22 Z" />
<path fill="#e6dbd6" opacity="1.00" d=" M 62.05 29.81 C 61.51 26.51 64.80 26.08 67.07 27.49 C 66.14 29.54 64.07 29.78 62.05 29.81 Z" />
</g>
<g id="#714745ff">
<path fill="#714745" opacity="1.00" d=" M 77.36 36.40 C 81.24 31.98 82.17 25.97 85.13 21.02 C 86.90 24.67 87.42 28.71 88.60 32.54 C 89.95 36.94 94.65 38.80 98.51 40.46 C 100.64 41.14 102.82 41.65 105.01 42.13 C 101.89 43.54 98.68 44.84 95.24 45.13 C 91.93 44.20 88.74 42.82 85.96 40.77 C 86.16 37.95 86.13 35.12 85.90 32.31 C 82.41 35.12 82.24 40.08 79.22 43.24 C 75.80 46.69 71.44 49.10 66.84 50.60 C 64.74 51.20 62.85 52.31 61.21 53.73 C 55.35 52.67 49.46 53.61 43.60 54.09 C 46.21 53.28 48.81 52.41 51.44 51.64 C 60.85 48.23 71.09 44.70 77.36 36.40 Z" />
</g>
<g id="#e5c3bcff">
<path fill="#e5c3bc" opacity="1.00" d=" M 31.40 24.94 C 28.79 26.25 29.64 21.45 31.86 23.03 C 31.74 23.51 31.51 24.46 31.40 24.94 Z" />
</g>
<g id="#af9c99ff">
<path fill="#af9c99" opacity="1.00" d=" M 112.03 24.50 C 113.38 23.48 114.75 25.85 113.52 26.76 C 112.16 27.83 110.77 25.41 112.03 24.50 Z" />
</g>
<g id="#74514aff">
<path fill="#74514a" opacity="1.00" d=" M 120.00 26.01 C 121.30 31.57 120.07 37.80 116.82 42.50 C 116.65 40.29 116.44 38.09 116.22 35.89 C 112.96 38.74 109.29 41.17 105.01 42.13 C 102.82 41.65 100.64 41.14 98.51 40.46 C 101.32 39.16 104.23 38.11 107.08 36.91 C 111.63 34.78 114.37 30.36 117.33 26.51 C 118.10 28.34 118.90 30.17 119.72 31.98 C 119.80 29.99 119.93 28.00 120.00 26.01 Z" />
</g>
<g id="#824448ff">
<path fill="#824448" opacity="1.00" d=" M 34.23 46.50 C 33.58 39.38 37.31 32.94 40.22 26.72 C 39.90 30.42 40.08 34.17 41.01 37.78 C 39.03 40.99 37.63 44.51 36.85 48.20 C 36.19 47.87 34.89 47.23 34.24 46.91 L 34.23 46.50 Z" />
</g>
<g id="#573940ff">
<path fill="#573940" opacity="1.00" d=" M 79.22 43.24 C 82.24 40.08 82.41 35.12 85.90 32.31 C 86.13 35.12 86.16 37.95 85.96 40.77 C 84.47 42.70 83.07 44.71 81.82 46.81 C 81.03 48.12 80.25 49.43 79.48 50.75 C 73.60 52.65 67.48 54.75 61.21 53.73 C 62.85 52.31 64.74 51.20 66.84 50.60 C 71.44 49.10 75.80 46.69 79.22 43.24 Z" />
</g>
<g id="#614243ff">
<path fill="#614243" opacity="1.00" d=" M 105.01 42.13 C 109.29 41.17 112.96 38.74 116.22 35.89 C 116.44 38.09 116.65 40.29 116.82 42.50 L 116.84 42.75 C 114.71 46.99 110.71 49.42 106.64 51.52 C 106.62 51.16 106.58 50.43 106.56 50.07 C 107.78 48.79 109.09 47.59 110.37 46.37 C 105.30 46.28 100.06 47.29 95.24 45.13 C 98.68 44.84 101.89 43.54 105.01 42.13 Z" />
</g>
<g id="#fe723cff">
<path fill="#fe723c" opacity="1.00" d=" M 150.50 35.23 C 151.60 37.39 151.72 39.78 151.40 42.14 C 152.96 43.40 154.51 44.68 156.10 45.92 C 152.92 49.87 148.74 52.83 144.15 54.93 C 143.53 52.79 142.91 50.64 142.29 48.49 C 141.85 48.30 140.98 47.92 140.54 47.73 C 140.61 47.43 140.74 46.83 140.81 46.53 C 144.58 43.26 148.10 39.64 150.50 35.23 Z" />
</g>
<g id="#69313cff">
<path fill="#69313c" opacity="1.00" d=" M 36.85 48.20 C 37.63 44.51 39.03 40.99 41.01 37.78 C 41.46 39.05 41.95 40.30 42.50 41.54 C 43.43 43.42 44.53 45.21 45.72 46.94 C 45.41 47.04 44.79 47.24 44.48 47.34 C 42.42 48.07 40.40 48.89 38.39 49.72 L 38.18 49.63 C 37.80 49.44 37.06 49.06 36.68 48.86 L 36.85 48.20 Z" />
</g>
<g id="#5f2e3aff">
<path fill="#5f2e3a" opacity="1.00" d=" M 81.82 46.81 C 83.07 44.71 84.47 42.70 85.96 40.77 C 88.74 42.82 91.93 44.20 95.24 45.13 C 100.06 47.29 105.30 46.28 110.37 46.37 C 109.09 47.59 107.78 48.79 106.56 50.07 C 106.58 50.43 106.62 51.16 106.64 51.52 L 106.72 52.48 C 104.95 52.34 103.20 52.16 101.44 51.95 C 97.21 50.42 92.74 49.87 88.40 48.79 C 86.18 48.20 84.00 47.51 81.82 46.81 Z" />
<path fill="#5f2e3a" opacity="1.00" d=" M 122.86 59.99 C 123.13 59.71 123.67 59.16 123.94 58.89 C 127.68 59.62 131.50 59.58 135.29 59.73 L 136.30 59.76 C 132.40 60.55 128.37 60.01 124.48 60.93 C 124.08 60.69 123.27 60.22 122.86 59.99 Z" />
</g>
<g id="#ff813fff">
<path fill="#ff813f" opacity="1.00" d=" M 117.61 55.97 C 125.75 53.99 134.03 51.67 140.81 46.53 C 140.74 46.83 140.61 47.43 140.54 47.73 C 140.98 47.92 141.85 48.30 142.29 48.49 C 142.91 50.64 143.53 52.79 144.15 54.93 C 143.38 55.33 142.61 55.75 141.86 56.19 C 141.75 56.59 141.51 57.40 141.40 57.80 L 141.38 57.87 C 139.37 58.55 137.38 59.33 135.29 59.73 C 131.50 59.58 127.68 59.62 123.94 58.89 C 123.67 59.16 123.13 59.71 122.86 59.99 C 122.52 59.75 121.83 59.27 121.48 59.03 C 121.56 58.54 121.72 57.55 121.81 57.06 C 120.41 56.69 119.01 56.32 117.61 55.97 Z" />
</g>
<g id="#df4c32ff">
<path fill="#df4c32" opacity="1.00" d=" M 44.48 47.34 C 44.79 47.24 45.41 47.04 45.72 46.94 L 45.95 47.14 C 47.76 48.66 49.60 50.15 51.44 51.64 C 48.81 52.41 46.21 53.28 43.60 54.09 L 43.10 54.17 C 42.56 54.23 41.48 54.34 40.94 54.40 C 42.91 52.48 44.23 50.09 44.48 47.34 Z" />
</g>
<g id="#b9382cff">
<path fill="#b9382c" opacity="1.00" d=" M 81.82 46.81 C 84.00 47.51 86.18 48.20 88.40 48.79 C 86.50 49.70 84.71 50.82 83.04 52.10 C 81.86 51.63 80.67 51.19 79.48 50.75 C 80.25 49.43 81.03 48.12 81.82 46.81 Z" />
</g>
<g id="#ff6939ff">
<path fill="#ff6939" opacity="1.00" d=" M 38.39 49.72 C 40.40 48.89 42.42 48.07 44.48 47.34 C 44.23 50.09 42.91 52.48 40.94 54.40 C 39.04 54.56 37.14 54.83 35.28 55.25 C 35.09 54.50 34.72 52.99 34.54 52.24 C 33.91 52.22 32.66 52.18 32.03 52.15 C 33.97 51.07 36.02 50.17 38.18 49.63 L 38.39 49.72 Z" />
</g>
<g id="#d94e33ff">
<path fill="#d94e33" opacity="1.00" d=" M 88.40 48.79 C 92.74 49.87 97.21 50.42 101.44 51.95 C 97.58 52.07 93.74 52.48 89.91 53.02 C 92.80 55.16 95.86 57.05 99.10 58.60 L 99.25 60.09 C 93.92 57.29 88.60 54.43 83.04 52.10 C 84.71 50.82 86.50 49.70 88.40 48.79 Z" />
</g>
<g id="#404073ff">
<path fill="#404073" opacity="1.00" d=" M 61.21 53.73 C 67.48 54.75 73.60 52.65 79.48 50.75 C 80.67 51.19 81.86 51.63 83.04 52.10 C 88.60 54.43 93.92 57.29 99.25 60.09 C 102.98 62.33 106.72 64.59 110.07 67.38 C 109.52 68.89 108.98 70.40 108.45 71.91 C 105.24 71.81 102.03 71.59 98.86 71.08 C 92.25 64.34 84.51 57.15 74.57 56.56 C 67.69 56.21 60.84 57.64 53.94 57.26 C 49.34 56.84 45.35 59.47 40.98 60.24 C 38.70 59.91 39.33 57.29 38.88 55.64 C 40.26 55.08 41.67 54.60 43.10 54.17 L 43.60 54.09 C 49.46 53.61 55.35 52.67 61.21 53.73 Z" />
</g>
<g id="#fe8f44ff">
<path fill="#fe8f44" opacity="1.00" d=" M 11.82 59.78 C 16.70 53.79 25.04 53.57 32.03 52.15 C 32.66 52.18 33.91 52.22 34.54 52.24 C 34.72 52.99 35.09 54.50 35.28 55.25 C 33.10 55.83 30.96 56.50 28.85 57.27 C 23.39 59.28 18.46 62.63 14.69 67.07 C 13.62 68.33 12.61 69.65 11.64 71.00 C 9.59 74.63 8.40 78.69 6.15 82.22 C 5.20 74.46 6.73 65.92 11.82 59.78 Z" />
</g>
<g id="#f5713cff">
<path fill="#f5713c" opacity="1.00" d=" M 89.91 53.02 C 93.74 52.48 97.58 52.07 101.44 51.95 C 103.20 52.16 104.95 52.34 106.72 52.48 L 107.61 52.55 C 110.84 53.96 114.17 55.18 117.61 55.97 C 119.01 56.32 120.41 56.69 121.81 57.06 C 121.72 57.55 121.56 58.54 121.48 59.03 C 121.83 59.27 122.52 59.75 122.86 59.99 C 123.27 60.22 124.08 60.69 124.48 60.93 L 125.00 61.20 C 126.31 62.93 127.70 64.61 128.92 66.41 C 126.75 67.39 124.41 68.08 122.00 67.74 C 117.68 67.33 113.03 67.15 109.34 64.58 C 106.04 62.39 102.72 60.22 99.10 58.60 C 95.86 57.05 92.80 55.16 89.91 53.02 Z" />
</g>
<g id="#875233ff">
<path fill="#875233" opacity="1.00" d=" M 35.28 55.25 C 37.14 54.83 39.04 54.56 40.94 54.40 C 41.48 54.34 42.56 54.23 43.10 54.17 C 41.67 54.60 40.26 55.08 38.88 55.64 C 36.10 58.97 33.88 62.75 32.34 66.80 L 32.20 66.14 C 31.75 62.96 30.36 60.06 28.85 57.27 C 30.96 56.50 33.10 55.83 35.28 55.25 Z" />
</g>
<g id="#4c6288ff">
<path fill="#4c6288" opacity="1.00" d=" M 32.34 66.80 C 33.88 62.75 36.10 58.97 38.88 55.64 C 39.33 57.29 38.70 59.91 40.98 60.24 C 45.35 59.47 49.34 56.84 53.94 57.26 C 60.84 57.64 67.69 56.21 74.57 56.56 C 84.51 57.15 92.25 64.34 98.86 71.08 C 103.29 75.34 103.77 81.61 104.24 87.37 C 103.53 87.58 102.12 88.01 101.41 88.22 C 101.34 96.58 101.48 105.96 95.55 112.59 C 89.71 119.07 81.00 121.65 72.77 123.55 C 76.40 123.91 80.04 124.28 83.66 124.72 C 76.77 126.03 69.53 126.13 62.67 124.55 C 62.55 124.52 62.30 124.46 62.18 124.43 C 61.69 123.97 60.71 123.06 60.22 122.61 C 68.81 120.19 77.79 116.60 83.37 109.31 C 85.94 106.21 86.59 102.12 87.83 98.41 C 82.45 96.05 77.39 100.21 72.08 100.78 C 71.91 98.61 71.75 96.44 71.58 94.26 C 73.12 93.70 74.97 93.35 75.69 91.67 C 77.76 90.56 80.68 90.10 81.59 87.62 C 82.46 85.63 81.36 83.62 80.50 81.85 C 78.15 79.64 75.18 78.24 72.00 77.74 C 61.81 75.82 50.98 74.59 40.93 77.84 C 38.25 78.50 37.08 81.11 36.38 83.52 C 35.03 83.11 33.68 82.74 32.32 82.38 C 32.06 78.27 32.08 74.14 31.36 70.08 C 31.67 68.98 31.95 67.87 32.34 66.80 M 45.97 69.03 C 42.19 71.06 37.76 70.70 33.63 71.13 C 34.78 73.65 37.95 72.65 40.12 72.65 C 46.13 72.38 51.70 68.08 53.40 62.29 C 50.27 63.77 48.99 67.39 45.97 69.03 M 66.88 62.71 C 67.27 67.39 70.48 71.61 75.02 72.96 C 80.44 74.47 86.22 74.94 91.80 74.12 C 91.47 73.80 90.80 73.16 90.46 72.84 C 84.73 72.19 78.44 72.82 73.28 69.79 C 70.22 68.26 70.19 63.80 66.88 62.71 Z" />
</g>
<g id="#783e2aff">
<path fill="#783e2a" opacity="1.00" d=" M 14.69 67.07 C 18.46 62.63 23.39 59.28 28.85 57.27 C 30.36 60.06 31.75 62.96 32.20 66.14 C 30.19 71.68 26.38 76.83 26.58 82.99 C 26.37 82.64 25.94 81.94 25.72 81.60 C 22.41 76.42 16.34 73.35 14.69 67.07 Z" />
</g>
<g id="#d56b3aff">
<path fill="#d56b3a" opacity="1.00" d=" M 99.10 58.60 C 102.72 60.22 106.04 62.39 109.34 64.58 C 113.03 67.15 117.68 67.33 122.00 67.74 C 124.41 68.08 126.75 67.39 128.92 66.41 L 128.98 66.39 C 129.54 67.87 130.15 69.34 130.59 70.86 C 130.28 71.20 129.65 71.86 129.34 72.19 C 129.17 71.72 128.83 70.77 128.66 70.29 C 127.92 71.63 127.26 73.04 126.29 74.23 C 123.85 75.26 121.22 75.70 118.65 76.30 C 117.68 75.03 116.66 73.80 115.57 72.64 C 113.86 70.75 111.99 69.03 110.07 67.38 C 106.72 64.59 102.98 62.33 99.25 60.09 L 99.10 58.60 Z" />
</g>
<g id="#111834ff">
<path fill="#111834" opacity="1.00" d=" M 45.97 69.03 C 48.99 67.39 50.27 63.77 53.40 62.29 C 51.70 68.08 46.13 72.38 40.12 72.65 C 37.95 72.65 34.78 73.65 33.63 71.13 C 37.76 70.70 42.19 71.06 45.97 69.03 Z" />
</g>
<g id="#131a36ff">
<path fill="#131a36" opacity="1.00" d=" M 66.88 62.71 C 70.19 63.80 70.22 68.26 73.28 69.79 C 78.44 72.82 84.73 72.19 90.46 72.84 C 90.80 73.16 91.47 73.80 91.80 74.12 C 86.22 74.94 80.44 74.47 75.02 72.96 C 70.48 71.61 67.27 67.39 66.88 62.71 Z" />
</g>
<g id="#8c412cff">
<path fill="#8c412c" opacity="1.00" d=" M 11.64 71.00 C 12.61 69.65 13.62 68.33 14.69 67.07 C 16.34 73.35 22.41 76.42 25.72 81.60 C 21.23 82.66 16.34 81.19 13.15 77.88 C 11.44 76.03 11.95 73.29 11.64 71.00 Z" />
</g>
<g id="#3c4f75ff">
<path fill="#3c4f75" opacity="1.00" d=" M 108.45 71.91 C 108.98 70.40 109.52 68.89 110.07 67.38 C 111.99 69.03 113.86 70.75 115.57 72.64 C 117.66 79.95 118.18 87.67 117.22 95.21 C 115.52 94.17 113.83 93.03 111.88 92.55 C 107.44 95.05 107.27 101.15 109.87 105.08 C 108.44 106.09 107.07 107.20 105.69 108.28 C 105.15 105.19 104.47 102.12 104.17 98.99 C 103.79 95.12 104.68 91.24 104.24 87.37 C 103.77 81.61 103.29 75.34 98.86 71.08 C 102.03 71.59 105.24 71.81 108.45 71.91 Z" />
</g>
<g id="#b96236ff">
<path fill="#b96236" opacity="1.00" d=" M 126.29 74.23 C 127.26 73.04 127.92 71.63 128.66 70.29 C 128.83 70.77 129.17 71.72 129.34 72.19 C 129.65 71.86 130.28 71.20 130.59 70.86 C 131.98 78.85 131.26 87.24 128.29 94.80 C 125.40 88.47 122.64 82.04 118.65 76.30 C 121.22 75.70 123.85 75.26 126.29 74.23 Z" />
</g>
<g id="#a9472eff">
<path fill="#a9472e" opacity="1.00" d=" M 6.15 82.22 C 8.40 78.69 9.59 74.63 11.64 71.00 C 11.95 73.29 11.44 76.03 13.15 77.88 C 16.34 81.19 21.23 82.66 25.72 81.60 C 25.94 81.94 26.37 82.64 26.58 82.99 C 27.69 84.24 27.77 85.50 26.83 86.77 C 22.99 87.87 18.43 88.52 15.01 85.95 C 12.49 83.13 11.32 79.41 10.61 75.76 C 7.98 78.38 9.14 82.80 6.51 85.36 C 6.38 84.31 6.26 83.27 6.15 82.22 Z" />
</g>
<g id="#687a99ff">
<path fill="#687a99" opacity="1.00" d=" M 31.36 70.08 C 32.08 74.14 32.06 78.27 32.32 82.38 C 32.49 84.92 32.64 87.47 32.78 90.02 C 31.84 89.50 30.90 88.99 29.95 88.50 L 29.87 89.14 C 29.27 86.87 28.70 84.60 28.09 82.33 C 28.91 78.19 29.77 74.02 31.36 70.08 Z" />
</g>
<g id="#665295ff">
<path fill="#665295" opacity="1.00" d=" M 40.93 77.84 C 50.98 74.59 61.81 75.82 72.00 77.74 C 75.18 78.24 78.15 79.64 80.50 81.85 C 75.46 80.51 70.31 79.38 65.07 79.70 C 57.15 80.07 49.00 79.04 41.28 81.24 C 39.33 81.53 39.13 83.76 38.36 85.19 C 38.82 85.10 39.73 84.91 40.18 84.82 C 46.53 83.75 52.97 83.03 59.41 83.64 C 60.94 84.34 62.45 85.09 63.95 85.84 C 55.71 86.12 46.71 85.04 39.19 89.08 C 37.14 88.01 36.95 85.51 36.38 83.52 C 37.08 81.11 38.25 78.50 40.93 77.84 Z" />
</g>
<g id="#563e7eff">
<path fill="#563e7e" opacity="1.00" d=" M 41.28 81.24 C 49.00 79.04 57.15 80.07 65.07 79.70 C 70.31 79.38 75.46 80.51 80.50 81.85 C 81.36 83.62 82.46 85.63 81.59 87.62 C 80.68 90.10 77.76 90.56 75.69 91.67 C 75.66 89.20 75.60 86.74 75.57 84.27 C 75.27 84.20 74.68 84.04 74.38 83.97 C 66.56 81.37 58.19 80.91 50.01 81.14 C 46.55 81.48 41.97 81.10 40.18 84.82 C 39.73 84.91 38.82 85.10 38.36 85.19 C 39.13 83.76 39.33 81.53 41.28 81.24 Z" />
</g>
<g id="#a45a73ff">
<path fill="#a45a73" opacity="1.00" d=" M 40.18 84.82 C 41.97 81.10 46.55 81.48 50.01 81.14 C 58.19 80.91 66.56 81.37 74.38 83.97 C 71.83 83.65 69.27 83.36 66.71 83.00 C 66.48 83.19 66.01 83.56 65.77 83.75 C 63.65 83.73 61.53 83.71 59.41 83.64 C 52.97 83.03 46.53 83.75 40.18 84.82 Z" />
</g>
<g id="#5a7c9bff">
<path fill="#5a7c9b" opacity="1.00" d=" M 32.32 82.38 C 33.68 82.74 35.03 83.11 36.38 83.52 C 36.95 85.51 37.14 88.01 39.19 89.08 C 40.71 89.01 42.22 88.92 43.74 88.80 C 47.94 89.10 52.62 89.16 56.09 91.92 C 58.95 94.33 61.25 97.32 63.84 100.01 C 64.22 98.28 64.62 96.55 64.94 94.80 C 64.55 98.38 64.76 102.29 67.97 104.55 C 69.30 105.74 70.57 107.00 71.85 108.25 C 70.97 110.11 70.43 112.36 68.57 113.53 C 64.03 116.61 58.86 118.57 54.03 121.13 C 54.72 121.88 55.42 122.63 56.12 123.36 C 55.57 123.26 54.47 123.06 53.92 122.95 C 46.01 120.89 37.61 117.50 33.33 110.06 C 33.81 110.40 34.78 111.07 35.27 111.41 C 35.71 109.83 36.56 108.27 36.48 106.59 C 35.51 100.34 31.33 95.23 29.87 89.14 L 29.95 88.50 C 30.90 88.99 31.84 89.50 32.78 90.02 C 32.64 87.47 32.49 84.92 32.32 82.38 Z" />
</g>
<g id="#6f8fa4ff">
<path fill="#6f8fa4" opacity="1.00" d=" M 28.09 82.33 C 28.70 84.60 29.27 86.87 29.87 89.14 C 31.33 95.23 35.51 100.34 36.48 106.59 C 36.56 108.27 35.71 109.83 35.27 111.41 C 34.78 111.07 33.81 110.40 33.33 110.06 C 31.03 107.28 29.68 103.83 28.67 100.40 C 28.45 99.68 28.24 98.95 28.03 98.23 C 27.66 95.73 27.39 93.21 27.08 90.70 C 26.28 90.71 24.69 90.72 23.90 90.73 C 24.98 90.18 26.07 89.65 27.16 89.13 C 27.64 86.89 27.81 84.60 28.09 82.33 Z" />
</g>
<g id="#cbc1cfff">
<path fill="#cbc1cf" opacity="1.00" d=" M 65.77 83.75 C 66.01 83.56 66.48 83.19 66.71 83.00 C 67.55 86.13 68.57 89.21 69.95 92.15 C 71.01 96.38 70.87 101.06 67.97 104.55 C 64.76 102.29 64.55 98.38 64.94 94.80 C 65.02 94.11 65.20 92.71 65.29 92.01 C 65.55 89.26 65.67 86.51 65.77 83.75 Z" />
</g>
<g id="#b195b4ff">
<path fill="#b195b4" opacity="1.00" d=" M 66.71 83.00 C 69.27 83.36 71.83 83.65 74.38 83.97 C 74.68 84.04 75.27 84.20 75.57 84.27 C 75.60 86.74 75.66 89.20 75.69 91.67 C 74.97 93.35 73.12 93.70 71.58 94.26 C 71.02 93.56 70.48 92.86 69.95 92.15 C 68.57 89.21 67.55 86.13 66.71 83.00 Z" />
</g>
<g id="#524681ff">
<path fill="#524681" opacity="1.00" d=" M 59.41 83.64 C 61.53 83.71 63.65 83.73 65.77 83.75 C 65.67 86.51 65.55 89.26 65.29 92.01 C 64.25 90.78 63.72 88.73 61.95 88.38 C 55.93 87.19 49.73 87.73 43.74 88.80 C 42.22 88.92 40.71 89.01 39.19 89.08 C 46.71 85.04 55.71 86.12 63.95 85.84 C 62.45 85.09 60.94 84.34 59.41 83.64 Z" />
</g>
<g id="#51658cff">
<path fill="#51658c" opacity="1.00" d=" M 43.74 88.80 C 49.73 87.73 55.93 87.19 61.95 88.38 C 63.72 88.73 64.25 90.78 65.29 92.01 C 65.20 92.71 65.02 94.11 64.94 94.80 C 64.62 96.55 64.22 98.28 63.84 100.01 C 61.25 97.32 58.95 94.33 56.09 91.92 C 52.62 89.16 47.94 89.10 43.74 88.80 Z" />
</g>
<g id="#39597bff">
<path fill="#39597b" opacity="1.00" d=" M 101.41 88.22 C 102.12 88.01 103.53 87.58 104.24 87.37 C 104.68 91.24 103.79 95.12 104.17 98.99 C 104.47 102.12 105.15 105.19 105.69 108.28 C 107.07 107.20 108.44 106.09 109.87 105.08 L 111.12 105.38 C 107.31 113.95 99.15 120.08 90.18 122.38 C 90.45 122.59 91.01 123.02 91.28 123.24 C 90.95 124.50 90.64 125.76 90.62 127.08 C 90.28 126.12 89.94 125.16 89.60 124.20 C 88.69 124.28 87.77 124.37 86.86 124.45 C 86.36 125.98 85.89 127.52 85.30 129.02 C 85.37 127.65 85.41 126.28 85.44 124.91 C 84.99 124.86 84.11 124.77 83.66 124.72 C 80.04 124.28 76.40 123.91 72.77 123.55 C 81.00 121.65 89.71 119.07 95.55 112.59 C 101.48 105.96 101.34 96.58 101.41 88.22 Z" />
</g>
<g id="#4f6389ff">
<path fill="#4f6389" opacity="1.00" d=" M 15.26 94.14 C 18.16 93.07 20.92 91.60 23.90 90.73 C 24.69 90.72 26.28 90.71 27.08 90.70 C 27.39 93.21 27.66 95.73 28.03 98.23 C 27.57 97.63 27.11 97.02 26.65 96.43 C 21.83 100.44 17.70 105.15 13.46 109.75 C 13.92 110.11 14.85 110.83 15.31 111.19 C 12.92 111.88 10.46 112.45 7.96 112.31 C 8.46 112.18 9.48 111.94 9.99 111.81 C 9.10 111.36 8.21 110.90 7.31 110.46 C 9.11 108.90 11.28 107.57 12.38 105.39 C 12.82 103.07 12.23 100.70 12.56 98.37 C 13.12 96.88 14.24 95.67 15.10 94.36 L 15.26 94.14 Z" />
</g>
<g id="#4d6e8eff">
<path fill="#4d6e8e" opacity="1.00" d=" M 69.95 92.15 C 70.48 92.86 71.02 93.56 71.58 94.26 C 71.75 96.44 71.91 98.61 72.08 100.78 C 77.39 100.21 82.45 96.05 87.83 98.41 C 86.59 102.12 85.94 106.21 83.37 109.31 C 77.79 116.60 68.81 120.19 60.22 122.61 C 60.71 123.06 61.69 123.97 62.18 124.43 C 60.17 124.04 58.13 123.76 56.12 123.36 C 55.42 122.63 54.72 121.88 54.03 121.13 C 58.86 118.57 64.03 116.61 68.57 113.53 C 70.43 112.36 70.97 110.11 71.85 108.25 C 70.57 107.00 69.30 105.74 67.97 104.55 C 70.87 101.06 71.01 96.38 69.95 92.15 Z" />
</g>
<g id="#4f608aff">
<path fill="#4f608a" opacity="1.00" d=" M 109.87 105.08 C 107.27 101.15 107.44 95.05 111.88 92.55 C 113.83 93.03 115.52 94.17 117.22 95.21 C 120.06 97.05 123.16 98.45 126.12 100.10 C 126.22 101.23 126.33 102.37 126.44 103.50 C 124.57 104.61 122.75 105.93 120.62 106.53 C 117.50 107.22 114.37 106.24 111.38 105.45 L 111.12 105.38 L 109.87 105.08 Z" />
</g>
<g id="#5a7a9cff">
<path fill="#5a7a9c" opacity="1.00" d=" M 3.81 101.86 C 6.57 98.11 11.07 96.36 15.10 94.36 C 14.24 95.67 13.12 96.88 12.56 98.37 C 12.23 100.70 12.82 103.07 12.38 105.39 C 11.28 107.57 9.11 108.90 7.31 110.46 C 8.21 110.90 9.10 111.36 9.99 111.81 C 9.48 111.94 8.46 112.18 7.96 112.31 C 3.41 111.59 1.05 105.50 3.81 101.86 Z" />
</g>
<g id="#3a537aff">
<path fill="#3a537a" opacity="1.00" d=" M 26.65 96.43 C 27.11 97.02 27.57 97.63 28.03 98.23 C 28.24 98.95 28.45 99.68 28.67 100.40 C 24.05 103.81 20.61 108.71 15.31 111.19 C 14.85 110.83 13.92 110.11 13.46 109.75 C 17.70 105.15 21.83 100.44 26.65 96.43 Z" />
</g>
<g id="#577697ff">
<path fill="#577697" opacity="1.00" d=" M 126.12 100.10 C 129.35 102.04 132.45 104.29 134.57 107.48 C 134.73 109.80 134.95 112.20 133.85 114.35 C 133.52 113.75 132.85 112.55 132.52 111.95 C 130.35 113.92 127.92 115.58 125.16 116.60 C 121.91 114.75 118.17 113.31 115.97 110.11 C 115.71 109.79 115.20 109.15 114.94 108.83 C 114.23 108.24 113.52 107.66 112.79 107.10 C 112.44 106.69 111.73 105.86 111.38 105.45 C 114.37 106.24 117.50 107.22 120.62 106.53 C 122.75 105.93 124.57 104.61 126.44 103.50 C 126.33 102.37 126.22 101.23 126.12 100.10 Z" />
</g>
<g id="#3b658bf3">
<path fill="#3b658b" opacity="0.95" d=" M 111.12 105.38 L 111.38 105.45 C 111.73 105.86 112.44 106.69 112.79 107.10 C 113.52 107.66 114.23 108.24 114.94 108.83 C 115.20 109.15 115.71 109.79 115.97 110.11 C 115.40 109.58 114.27 108.51 113.70 107.98 C 108.88 115.99 100.41 121.52 91.28 123.24 C 91.01 123.02 90.45 122.59 90.18 122.38 C 99.15 120.08 107.31 113.95 111.12 105.38 Z" />
</g>
<g id="#385d77e0">
<path fill="#385d77" opacity="0.88" d=" M 125.16 116.60 C 127.92 115.58 130.35 113.92 132.52 111.95 C 132.85 112.55 133.52 113.75 133.85 114.35 C 131.55 116.79 128.39 117.78 125.16 116.60 Z" />
</g>
<g id="#3e537bff">
<path fill="#3e537b" opacity="1.00" d=" M 53.92 122.95 C 54.47 123.06 55.57 123.26 56.12 123.36 C 58.13 123.76 60.17 124.04 62.18 124.43 C 62.30 124.46 62.55 124.52 62.67 124.55 C 62.32 125.59 62.09 126.65 62.00 127.75 C 64.34 129.48 65.04 132.90 63.31 135.32 C 62.10 137.08 59.75 137.03 57.86 137.34 C 50.14 138.19 42.41 139.20 34.66 139.82 C 32.83 139.47 31.01 139.03 29.19 138.60 C 29.70 138.17 30.21 137.73 30.72 137.30 C 36.01 136.00 41.17 134.04 46.65 133.61 C 50.49 133.32 54.30 132.47 57.69 130.58 C 57.29 129.36 56.89 128.14 56.55 126.91 C 56.55 126.25 56.55 124.95 56.55 124.30 C 55.67 123.85 54.80 123.40 53.92 122.95 Z" />
</g>
<g id="#454574ff">
<path fill="#454574" opacity="1.00" d=" M 86.86 124.45 C 87.77 124.37 88.69 124.28 89.60 124.20 C 89.94 125.16 90.28 126.12 90.62 127.08 C 90.84 127.68 91.28 128.89 91.50 129.49 C 91.81 129.79 92.44 130.39 92.75 130.70 C 90.45 130.53 88.34 131.46 86.26 132.28 C 85.63 131.94 84.99 131.68 84.31 131.48 C 83.64 132.72 83.59 134.16 83.40 135.53 L 83.33 136.18 C 83.51 133.72 82.67 130.43 85.30 129.02 C 85.89 127.52 86.36 125.98 86.86 124.45 Z" />
</g>
<g id="#4f5c87ff">
<path fill="#4f5c87" opacity="1.00" d=" M 56.55 126.91 C 56.89 128.14 57.29 129.36 57.69 130.58 C 54.30 132.47 50.49 133.32 46.65 133.61 C 41.17 134.04 36.01 136.00 30.72 137.30 C 32.42 135.50 33.83 133.31 36.01 132.06 C 38.96 131.28 42.10 131.23 44.85 129.75 C 48.66 128.47 53.53 130.14 56.55 126.91 Z" />
</g>
<g id="#557194ff">
<path fill="#557194" opacity="1.00" d=" M 23.06 131.91 C 30.00 129.42 37.59 129.73 44.85 129.75 C 42.10 131.23 38.96 131.28 36.01 132.06 C 33.83 133.31 32.42 135.50 30.72 137.30 C 30.21 137.73 29.70 138.17 29.19 138.60 C 31.01 139.03 32.83 139.47 34.66 139.82 C 30.58 140.58 26.38 140.81 22.32 139.74 C 24.62 137.74 24.38 134.50 24.90 131.76 C 24.44 131.80 23.52 131.87 23.06 131.91 Z" />
</g>
<g id="#7c8ca2ff">
<path fill="#7c8ca2" opacity="1.00" d=" M 84.31 131.48 C 84.99 131.68 85.63 131.94 86.26 132.28 C 88.34 131.46 90.45 130.53 92.75 130.70 C 95.74 132.77 99.39 133.48 102.50 135.34 C 98.90 135.38 95.08 134.37 91.65 135.70 C 89.28 137.16 91.19 139.93 91.60 141.93 C 90.48 141.61 89.36 141.30 88.26 140.96 C 86.39 139.43 84.26 137.88 83.40 135.53 C 83.59 134.16 83.64 132.72 84.31 131.48 Z" />
</g>
<g id="#5d80a2ff">
<path fill="#5d80a2" opacity="1.00" d=" M 19.54 136.09 C 20.42 134.59 20.96 132.03 23.06 131.91 C 23.52 131.87 24.44 131.80 24.90 131.76 C 24.38 134.50 24.62 137.74 22.32 139.74 C 21.29 138.60 20.41 137.35 19.54 136.09 Z" />
</g>
<g id="#5a799aff">
<path fill="#5a799a" opacity="1.00" d=" M 91.65 135.70 C 95.08 134.37 98.90 135.38 102.50 135.34 L 102.67 135.35 C 103.07 135.92 103.87 137.06 104.27 137.64 C 102.16 139.41 99.93 141.03 97.69 142.63 C 97.72 143.09 97.80 144.00 97.83 144.46 C 94.42 144.02 91.15 142.82 88.26 140.96 C 89.36 141.30 90.48 141.61 91.60 141.93 C 91.19 139.93 89.28 137.16 91.65 135.70 Z" />
</g>
<g id="#3c617ce9">
<path fill="#3c617c" opacity="0.91" d=" M 104.27 137.64 L 104.73 137.26 C 104.55 138.77 105.04 140.59 103.88 141.82 C 102.35 143.56 99.94 143.89 97.83 144.46 C 97.80 144.00 97.72 143.09 97.69 142.63 C 99.93 141.03 102.16 139.41 104.27 137.64 Z" />
</g>
</svg>
