<?xml version="1.0" encoding="UTF-8" ?>
<!DOCTYPE svg PUBLIC "-//W3C//DTD SVG 1.1//EN" "http://www.w3.org/Graphics/SVG/1.1/DTD/svg11.dtd">
<svg width="234pt" height="166pt" viewBox="0 0 234 166" version="1.1" xmlns="http://www.w3.org/2000/svg">
<g id="#ac683fff">
<path fill="#ac683f" opacity="1.00" d=" M 90.72 13.78 C 91.91 12.11 94.14 12.01 96.00 12.04 C 111.33 12.39 126.69 12.07 142.02 12.71 C 139.93 13.14 137.87 13.72 135.80 14.23 C 125.88 15.46 115.88 14.53 105.92 14.76 C 100.91 14.63 97.70 19.13 93.73 21.48 C 92.22 21.52 90.70 21.55 89.18 21.53 L 88.47 21.44 C 89.20 18.89 89.56 16.19 90.72 13.78 Z" />
</g>
<g id="#b56a3cee">
<path fill="#b56a3c" opacity="0.93" d=" M 135.80 14.23 C 137.87 13.72 139.93 13.14 142.02 12.71 C 142.60 13.06 143.77 13.75 144.35 14.09 C 141.50 14.18 138.65 14.15 135.80 14.23 Z" />
</g>
<g id="#955b3dff">
<path fill="#955b3d" opacity="1.00" d=" M 135.80 14.23 C 138.65 14.15 141.50 14.18 144.35 14.09 C 144.74 15.44 145.14 16.79 145.54 18.14 C 142.80 17.41 140.09 16.16 137.21 16.28 C 132.00 17.41 127.57 21.04 122.21 21.57 C 115.61 21.24 108.85 18.38 102.38 21.16 C 99.50 21.31 96.62 21.39 93.73 21.48 C 97.70 19.13 100.91 14.63 105.92 14.76 C 115.88 14.53 125.88 15.46 135.80 14.23 Z" />
</g>
<g id="#86543bff">
<path fill="#86543b" opacity="1.00" d=" M 122.21 21.57 C 127.57 21.04 132.00 17.41 137.21 16.28 C 140.09 16.16 142.80 17.41 145.54 18.14 C 145.68 19.23 145.84 20.31 146.01 21.40 C 161.40 18.62 177.36 20.73 192.24 25.08 L 190.18 24.76 C 182.83 23.37 175.52 21.70 168.05 21.05 C 165.86 20.90 163.67 20.88 161.48 20.86 C 158.13 20.79 154.77 20.90 151.46 21.44 C 148.64 21.87 145.85 22.44 143.06 23.04 C 139.76 23.38 136.72 24.73 133.93 26.47 C 123.72 23.22 113.05 21.82 102.38 21.16 C 108.85 18.38 115.61 21.24 122.21 21.57 Z" />
</g>
<g id="#70463fa0">
<path fill="#70463f" opacity="0.63" d=" M 45.31 23.15 C 49.98 21.30 55.08 21.01 60.02 20.38 C 69.48 19.87 79.18 18.99 88.47 21.44 L 89.18 21.53 C 87.96 21.53 86.75 21.53 85.54 21.51 C 81.40 20.76 77.19 20.56 73.00 20.78 C 68.25 20.73 63.50 20.88 58.78 21.44 C 54.28 21.94 49.81 22.64 45.31 23.15 Z" />
</g>
<g id="#fffeefff">
<path fill="#fffeef" opacity="1.00" d=" M 58.78 21.44 C 63.50 20.88 68.25 20.73 73.00 20.78 C 68.67 23.20 63.60 22.35 58.87 22.75 L 58.78 21.44 Z" />
<path fill="#fffeef" opacity="1.00" d=" M 116.34 31.77 C 122.23 30.10 129.71 29.53 134.56 33.96 C 131.04 34.85 127.41 35.51 123.76 35.10 C 121.20 34.77 118.66 34.27 116.16 33.64 C 116.21 33.17 116.30 32.24 116.34 31.77 Z" />
</g>
<g id="#fc6f78ff">
<path fill="#fc6f78" opacity="1.00" d=" M 73.00 20.78 C 77.19 20.56 81.40 20.76 85.54 21.51 C 81.26 22.30 77.01 23.20 72.73 23.91 C 66.48 24.80 60.29 26.09 54.30 28.07 C 50.23 29.07 46.34 30.61 42.58 32.46 C 37.92 33.40 33.90 35.98 29.76 38.17 C 25.43 37.66 21.92 40.48 18.20 42.16 C 15.54 43.53 12.60 44.42 10.20 46.25 C 8.54 49.25 7.26 52.49 4.93 55.08 C 4.91 55.86 4.87 57.43 4.86 58.21 C 4.46 57.85 3.67 57.11 3.27 56.74 C 3.08 56.45 2.68 55.85 2.48 55.56 C 2.48 52.81 2.55 50.07 2.56 47.33 C 7.35 43.02 12.30 38.66 18.45 36.41 C 31.34 30.34 44.73 24.96 58.87 22.75 C 63.60 22.35 68.67 23.20 73.00 20.78 Z" />
</g>
<g id="#ff7d7fff">
<path fill="#ff7d7f" opacity="1.00" d=" M 89.18 21.53 C 90.70 21.55 92.22 21.52 93.73 21.48 C 96.62 21.39 99.50 21.31 102.38 21.16 C 113.05 21.82 123.72 23.22 133.93 26.47 C 136.72 24.73 139.76 23.38 143.06 23.04 C 145.89 24.34 149.85 24.77 151.46 21.44 C 154.77 20.90 158.13 20.79 161.48 20.86 C 164.08 22.39 167.06 22.87 170.04 23.03 C 169.37 22.37 168.71 21.71 168.05 21.05 C 175.52 21.70 182.83 23.37 190.18 24.76 C 194.09 28.46 199.77 28.72 204.85 28.65 C 213.30 31.50 221.53 35.59 228.45 41.27 C 227.96 41.54 226.96 42.08 226.47 42.34 C 227.03 43.26 227.59 44.17 228.15 45.09 C 221.19 45.63 214.50 43.36 207.68 42.42 C 201.77 41.56 196.03 39.86 190.16 38.78 C 181.14 37.76 172.63 34.49 163.97 31.94 L 162.54 31.50 C 163.90 30.88 165.22 30.19 166.56 29.52 C 162.30 26.90 155.51 25.79 152.02 30.14 C 148.42 26.12 141.95 26.48 137.39 28.57 C 139.61 30.09 142.08 31.23 144.73 31.77 C 146.93 33.42 149.02 35.24 151.08 37.07 C 148.10 39.23 144.28 38.70 140.83 38.78 C 135.24 36.72 129.25 36.83 123.39 36.93 C 123.48 36.47 123.67 35.56 123.76 35.10 C 127.41 35.51 131.04 34.85 134.56 33.96 C 129.71 29.53 122.23 30.10 116.34 31.77 C 116.30 32.24 116.21 33.17 116.16 33.64 C 116.09 34.47 115.93 36.15 115.86 36.99 C 109.24 37.31 102.62 37.17 96.00 37.18 C 91.44 37.16 86.77 38.36 82.32 36.83 C 83.15 35.86 83.96 34.88 84.74 33.87 C 80.37 31.78 75.60 33.00 71.19 34.21 C 71.29 35.29 71.39 36.37 71.49 37.44 C 73.53 37.62 75.57 37.79 77.62 37.92 C 71.59 39.85 65.18 39.14 59.00 40.18 C 49.41 41.55 39.29 41.26 30.36 45.49 C 28.06 46.50 26.24 48.26 24.49 50.01 C 25.13 52.92 24.52 55.71 22.12 57.62 C 21.19 55.85 20.37 54.03 19.66 52.17 C 19.81 45.95 25.29 41.69 29.76 38.17 C 33.90 35.98 37.92 33.40 42.58 32.46 C 47.16 32.24 51.53 30.84 55.95 29.80 C 59.50 29.96 63.01 29.44 66.44 28.56 C 71.00 27.40 75.76 27.41 80.33 26.27 C 81.44 25.71 82.47 25.01 83.52 24.33 C 81.33 24.19 79.15 24.09 76.97 24.00 C 75.55 23.95 74.14 23.92 72.73 23.91 C 77.01 23.20 81.26 22.30 85.54 21.51 C 86.75 21.53 87.96 21.53 89.18 21.53 M 104.18 22.26 C 107.36 25.11 112.58 24.58 116.44 23.53 C 112.46 22.42 108.31 21.90 104.18 22.26 M 172.06 23.58 C 174.14 26.60 178.36 25.74 181.51 25.81 C 178.89 23.56 175.28 23.82 172.06 23.58 M 96.01 28.05 C 98.70 28.55 102.94 30.38 104.74 27.77 C 101.99 26.58 98.65 26.49 96.01 28.05 M 200.97 30.20 C 205.14 32.62 209.37 35.44 214.28 35.95 C 210.68 32.52 205.75 31.07 200.97 30.20 M 181.28 32.36 C 181.25 32.95 181.20 34.13 181.17 34.71 C 184.64 36.32 188.48 36.87 192.21 35.83 C 190.66 31.12 185.11 32.16 181.28 32.36 Z" />
</g>
<g id="#fda5a3ff">
<path fill="#fda5a3" opacity="1.00" d=" M 161.48 20.86 C 163.67 20.88 165.86 20.90 168.05 21.05 C 168.71 21.71 169.37 22.37 170.04 23.03 C 167.06 22.87 164.08 22.39 161.48 20.86 Z" />
</g>
<g id="#ff998aff">
<path fill="#ff998a" opacity="1.00" d=" M 45.31 23.15 C 49.81 22.64 54.28 21.94 58.78 21.44 L 58.87 22.75 C 44.73 24.96 31.34 30.34 18.45 36.41 C 12.30 38.66 7.35 43.02 2.56 47.33 C 2.55 50.07 2.48 52.81 2.48 55.56 C 1.29 52.87 1.11 49.89 0.72 47.02 C 3.07 43.65 5.00 39.82 8.54 37.51 C 13.10 34.37 17.87 31.42 23.07 29.47 C 27.79 30.20 32.37 28.47 36.55 26.47 C 35.62 26.38 33.76 26.21 32.83 26.13 C 36.90 24.82 41.07 23.75 45.31 23.15 Z" />
</g>
<g id="#fdcec0ff">
<path fill="#fdcec0" opacity="1.00" d=" M 104.18 22.26 C 108.31 21.90 112.46 22.42 116.44 23.53 C 112.58 24.58 107.36 25.11 104.18 22.26 Z" />
</g>
<g id="#ffbfb6ff">
<path fill="#ffbfb6" opacity="1.00" d=" M 143.06 23.04 C 145.85 22.44 148.64 21.87 151.46 21.44 C 149.85 24.77 145.89 24.34 143.06 23.04 Z" />
</g>
<g id="#ff9286ff">
<path fill="#ff9286" opacity="1.00" d=" M 54.30 28.07 C 60.29 26.09 66.48 24.80 72.73 23.91 C 74.14 23.92 75.55 23.95 76.97 24.00 C 76.31 24.62 75.65 25.24 74.99 25.86 C 76.76 26.02 78.54 26.18 80.33 26.27 C 75.76 27.41 71.00 27.40 66.44 28.56 C 63.01 29.44 59.50 29.96 55.95 29.80 C 55.54 29.37 54.71 28.50 54.30 28.07 Z" />
</g>
<g id="#ffd0bdff">
<path fill="#ffd0bd" opacity="1.00" d=" M 76.97 24.00 C 79.15 24.09 81.33 24.19 83.52 24.33 C 82.47 25.01 81.44 25.71 80.33 26.27 C 78.54 26.18 76.76 26.02 74.99 25.86 C 75.65 25.24 76.31 24.62 76.97 24.00 Z" />
</g>
<g id="#ffd2c5ff">
<path fill="#ffd2c5" opacity="1.00" d=" M 172.06 23.58 C 175.28 23.82 178.89 23.56 181.51 25.81 C 178.36 25.74 174.14 26.60 172.06 23.58 Z" />
</g>
<g id="#ffe7dfff">
<path fill="#ffe7df" opacity="1.00" d=" M 190.18 24.76 L 192.24 25.08 L 193.00 25.34 C 193.82 25.97 194.74 26.24 195.76 26.14 C 198.92 26.36 201.92 27.53 204.85 28.65 C 199.77 28.72 194.09 28.46 190.18 24.76 Z" />
<path fill="#ffe7df" opacity="1.00" d=" M 23.07 29.47 C 26.21 28.06 29.46 26.87 32.83 26.13 C 33.76 26.21 35.62 26.38 36.55 26.47 C 32.37 28.47 27.79 30.20 23.07 29.47 Z" />
<path fill="#ffe7df" opacity="1.00" d=" M 152.02 30.14 C 155.51 25.79 162.30 26.90 166.56 29.52 C 165.22 30.19 163.90 30.88 162.54 31.50 C 159.00 32.21 154.85 33.08 152.02 30.14 Z" />
</g>
<g id="#70574e9e">
<path fill="#70574e" opacity="0.62" d=" M 193.00 25.34 C 194.48 24.18 195.40 24.44 195.76 26.14 C 194.74 26.24 193.82 25.97 193.00 25.34 Z" />
</g>
<g id="#ffd3c6ff">
<path fill="#ffd3c6" opacity="1.00" d=" M 96.01 28.05 C 98.65 26.49 101.99 26.58 104.74 27.77 C 102.94 30.38 98.70 28.55 96.01 28.05 Z" />
</g>
<g id="#ed5e6eff">
<path fill="#ed5e6e" opacity="1.00" d=" M 137.39 28.57 C 141.95 26.48 148.42 26.12 152.02 30.14 C 154.85 33.08 159.00 32.21 162.54 31.50 L 163.97 31.94 C 163.94 32.54 163.87 33.75 163.83 34.35 C 161.44 34.40 159.05 34.48 156.66 34.50 C 152.60 33.96 148.73 32.58 144.73 31.77 C 142.08 31.23 139.61 30.09 137.39 28.57 Z" />
</g>
<g id="#fffff9ff">
<path fill="#fffff9" opacity="1.00" d=" M 42.58 32.46 C 46.34 30.61 50.23 29.07 54.30 28.07 C 54.71 28.50 55.54 29.37 55.95 29.80 C 51.53 30.84 47.16 32.24 42.58 32.46 Z" />
<path fill="#fffff9" opacity="1.00" d=" M 200.97 30.20 C 205.75 31.07 210.68 32.52 214.28 35.95 C 209.37 35.44 205.14 32.62 200.97 30.20 Z" />
<path fill="#fffff9" opacity="1.00" d=" M 71.19 34.21 C 75.60 33.00 80.37 31.78 84.74 33.87 C 83.96 34.88 83.15 35.86 82.32 36.83 C 80.76 37.22 79.19 37.56 77.62 37.92 C 75.57 37.79 73.53 37.62 71.49 37.44 C 71.39 36.37 71.29 35.29 71.19 34.21 Z" />
</g>
<g id="#c06174ff">
<path fill="#c06174" opacity="1.00" d=" M 144.73 31.77 C 148.73 32.58 152.60 33.96 156.66 34.50 C 159.54 35.42 162.24 36.78 165.01 37.97 C 172.90 41.45 181.69 41.78 189.85 44.42 C 202.96 48.49 216.84 47.71 230.34 49.18 C 230.69 47.92 231.04 46.67 231.42 45.41 C 232.11 46.52 232.79 47.65 233.47 48.77 C 232.42 53.70 232.09 59.45 227.45 62.51 C 216.59 68.73 203.54 68.75 191.39 68.42 C 199.04 66.35 207.17 67.12 214.79 64.81 C 218.59 63.56 222.64 62.32 225.67 59.61 C 227.68 57.25 224.36 54.73 222.02 55.05 C 215.17 55.54 208.40 56.88 201.55 57.44 C 194.55 56.32 187.46 56.07 180.40 55.50 C 177.10 55.10 173.64 54.90 170.63 53.36 C 168.34 51.63 167.21 48.75 164.84 47.09 C 162.71 45.60 160.31 44.56 157.99 43.41 C 154.46 47.23 149.22 47.86 144.68 49.78 C 140.84 52.28 137.30 55.42 132.77 56.66 C 115.15 61.30 96.91 63.22 78.77 64.50 C 72.46 65.13 66.10 64.54 59.79 65.26 C 62.57 65.74 65.36 66.17 68.14 66.64 C 67.26 66.89 65.50 67.39 64.62 67.64 C 59.88 67.44 55.15 67.14 50.43 66.73 C 50.82 66.43 51.60 65.82 51.99 65.51 C 47.82 65.19 43.63 64.85 39.59 63.70 C 42.53 62.28 45.65 61.09 48.96 60.99 C 60.27 60.41 71.66 61.61 82.92 60.06 C 93.12 59.44 103.22 58.09 113.28 56.37 C 125.61 55.64 135.67 47.21 147.81 45.58 C 146.40 44.90 145.01 44.20 143.57 43.59 C 147.36 43.32 150.90 41.88 154.21 40.11 C 153.17 39.09 152.15 38.06 151.08 37.07 C 149.02 35.24 146.93 33.42 144.73 31.77 Z" />
</g>
<g id="#e56d7aff">
<path fill="#e56d7a" opacity="1.00" d=" M 163.97 31.94 C 172.63 34.49 181.14 37.76 190.16 38.78 C 196.03 39.86 201.77 41.56 207.68 42.42 C 214.50 43.36 221.19 45.63 228.15 45.09 C 227.59 44.17 227.03 43.26 226.47 42.34 C 226.96 42.08 227.96 41.54 228.45 41.27 C 229.49 42.62 230.46 44.01 231.42 45.41 C 231.04 46.67 230.69 47.92 230.34 49.18 C 216.84 47.71 202.96 48.49 189.85 44.42 C 181.69 41.78 172.90 41.45 165.01 37.97 C 162.24 36.78 159.54 35.42 156.66 34.50 C 159.05 34.48 161.44 34.40 163.83 34.35 C 163.87 33.75 163.94 32.54 163.97 31.94 Z" />
</g>
<g id="#fffff3ff">
<path fill="#fffff3" opacity="1.00" d=" M 181.28 32.36 C 185.11 32.16 190.66 31.12 192.21 35.83 C 188.48 36.87 184.64 36.32 181.17 34.71 C 181.20 34.13 181.25 32.95 181.28 32.36 Z" />
</g>
<g id="#e9727eff">
<path fill="#e9727e" opacity="1.00" d=" M 116.16 33.64 C 118.66 34.27 121.20 34.77 123.76 35.10 C 123.67 35.56 123.48 36.47 123.39 36.93 C 129.25 36.83 135.24 36.72 140.83 38.78 C 139.33 39.31 137.84 39.88 136.36 40.46 C 136.21 41.03 135.91 42.18 135.76 42.75 C 122.52 41.03 109.29 43.78 96.04 43.93 C 89.35 43.65 82.72 44.83 76.05 45.06 C 67.33 45.49 58.76 47.42 50.05 47.83 C 43.20 48.20 36.38 49.31 29.84 51.36 C 31.65 52.63 33.50 53.86 35.18 55.29 C 32.25 57.46 28.71 58.90 26.71 62.16 C 25.08 60.75 23.53 59.25 22.12 57.62 C 24.52 55.71 25.13 52.92 24.49 50.01 C 26.24 48.26 28.06 46.50 30.36 45.49 C 39.29 41.26 49.41 41.55 59.00 40.18 C 65.18 39.14 71.59 39.85 77.62 37.92 C 79.19 37.56 80.76 37.22 82.32 36.83 C 86.77 38.36 91.44 37.16 96.00 37.18 C 102.62 37.17 109.24 37.31 115.86 36.99 C 115.93 36.15 116.09 34.47 116.16 33.64 Z" />
</g>
<g id="#e56776ff">
<path fill="#e56776" opacity="1.00" d=" M 151.08 37.07 C 152.15 38.06 153.17 39.09 154.21 40.11 C 150.90 41.88 147.36 43.32 143.57 43.59 C 140.98 43.22 138.37 42.94 135.76 42.75 C 135.91 42.18 136.21 41.03 136.36 40.46 C 137.84 39.88 139.33 39.31 140.83 38.78 C 144.28 38.70 148.10 39.23 151.08 37.07 Z" />
</g>
<g id="#bd5d70ff">
<path fill="#bd5d70" opacity="1.00" d=" M 18.20 42.16 C 21.92 40.48 25.43 37.66 29.76 38.17 C 25.29 41.69 19.81 45.95 19.66 52.17 C 19.46 51.63 19.05 50.55 18.84 50.02 C 16.20 51.95 11.24 53.84 12.72 57.98 C 12.91 61.24 16.63 60.85 18.94 61.62 C 16.92 61.74 14.90 61.90 12.88 61.99 C 9.31 61.29 4.77 60.60 3.27 56.74 C 3.67 57.11 4.46 57.85 4.86 58.21 C 4.87 57.43 4.91 55.86 4.93 55.08 C 7.26 52.49 8.54 49.25 10.20 46.25 C 12.60 44.42 15.54 43.53 18.20 42.16 Z" />
</g>
<g id="#d46a7aff">
<path fill="#d46a7a" opacity="1.00" d=" M 96.04 43.93 C 109.29 43.78 122.52 41.03 135.76 42.75 C 138.37 42.94 140.98 43.22 143.57 43.59 C 145.01 44.20 146.40 44.90 147.81 45.58 C 135.67 47.21 125.61 55.64 113.28 56.37 C 103.22 58.09 93.12 59.44 82.92 60.06 C 71.66 61.61 60.27 60.41 48.96 60.99 C 45.65 61.09 42.53 62.28 39.59 63.70 C 43.63 64.85 47.82 65.19 51.99 65.51 C 51.60 65.82 50.82 66.43 50.43 66.73 C 44.90 66.32 39.39 65.60 33.86 65.21 C 31.69 64.56 29.54 63.77 27.51 62.77 L 26.71 62.16 C 28.71 58.90 32.25 57.46 35.18 55.29 C 33.50 53.86 31.65 52.63 29.84 51.36 C 36.38 49.31 43.20 48.20 50.05 47.83 C 58.76 47.42 67.33 45.49 76.05 45.06 C 82.72 44.83 89.35 43.65 96.04 43.93 Z" />
</g>
<g id="#b2556dff">
<path fill="#b2556d" opacity="1.00" d=" M 144.68 49.78 C 149.22 47.86 154.46 47.23 157.99 43.41 C 160.31 44.56 162.71 45.60 164.84 47.09 C 167.21 48.75 168.34 51.63 170.63 53.36 C 173.64 54.90 177.10 55.10 180.40 55.50 C 187.46 56.07 194.55 56.32 201.55 57.44 C 196.73 58.33 191.83 58.50 186.95 58.90 C 177.84 59.90 168.63 58.60 159.77 56.47 C 159.47 53.80 159.27 51.07 158.39 48.52 C 150.25 47.54 144.47 54.79 137.32 57.31 C 135.80 57.07 134.29 56.85 132.77 56.66 C 137.30 55.42 140.84 52.28 144.68 49.78 Z" />
</g>
<g id="#96566cff">
<path fill="#96566c" opacity="1.00" d=" M 137.32 57.31 C 144.47 54.79 150.25 47.54 158.39 48.52 C 159.27 51.07 159.47 53.80 159.77 56.47 C 168.63 58.60 177.84 59.90 186.95 58.90 C 191.83 58.50 196.73 58.33 201.55 57.44 C 208.40 56.88 215.17 55.54 222.02 55.05 C 224.36 54.73 227.68 57.25 225.67 59.61 C 222.64 62.32 218.59 63.56 214.79 64.81 C 207.17 67.12 199.04 66.35 191.39 68.42 C 188.66 69.01 185.85 68.66 183.09 68.57 C 175.16 68.11 167.20 68.47 159.31 67.45 C 154.69 67.08 149.93 65.81 145.38 67.31 C 140.07 69.09 134.44 68.62 128.94 68.86 C 116.55 69.59 104.13 69.37 91.72 69.16 C 93.12 68.66 94.50 68.11 95.88 67.55 C 94.90 67.06 93.92 66.57 92.95 66.09 C 107.96 64.67 123.15 62.77 137.32 57.31 Z" />
</g>
<g id="#9b516aff">
<path fill="#9b516a" opacity="1.00" d=" M 12.72 57.98 C 11.24 53.84 16.20 51.95 18.84 50.02 C 19.05 50.55 19.46 51.63 19.66 52.17 C 20.37 54.03 21.19 55.85 22.12 57.62 C 23.53 59.25 25.08 60.75 26.71 62.16 L 27.51 62.77 C 22.63 63.00 17.69 62.94 12.88 61.99 C 14.90 61.90 16.92 61.74 18.94 61.62 C 16.63 60.85 12.91 61.24 12.72 57.98 Z" />
</g>
<g id="#aa5e72ff">
<path fill="#aa5e72" opacity="1.00" d=" M 78.77 64.50 C 96.91 63.22 115.15 61.30 132.77 56.66 C 134.29 56.85 135.80 57.07 137.32 57.31 C 123.15 62.77 107.96 64.67 92.95 66.09 C 93.92 66.57 94.90 67.06 95.88 67.55 C 94.50 68.11 93.12 68.66 91.72 69.16 C 86.32 69.28 80.92 69.40 75.52 69.20 C 75.12 69.06 74.33 68.78 73.93 68.64 C 70.87 68.01 67.73 67.86 64.62 67.64 C 65.50 67.39 67.26 66.89 68.14 66.64 C 65.36 66.17 62.57 65.74 59.79 65.26 C 66.10 64.54 72.46 65.13 78.77 64.50 Z" />
</g>
<g id="#362b3185">
<path fill="#362b31" opacity="0.52" d=" M 33.86 65.21 C 39.39 65.60 44.90 66.32 50.43 66.73 C 55.15 67.14 59.88 67.44 64.62 67.64 C 67.73 67.86 70.87 68.01 73.93 68.64 C 73.39 70.92 72.85 73.21 72.41 75.52 C 70.05 83.47 70.44 91.92 68.30 99.88 C 64.94 100.30 61.60 100.83 58.33 101.72 C 52.14 101.89 45.97 101.26 39.78 101.54 C 46.09 99.43 52.67 102.10 59.06 100.65 C 62.03 99.92 65.65 100.22 67.91 97.82 C 69.26 93.99 69.07 89.86 69.73 85.89 C 70.25 80.09 71.87 74.50 73.14 68.84 C 60.05 67.76 46.75 68.01 33.86 65.21 Z" />
</g>
<g id="#3c4b7dff">
<path fill="#3c4b7d" opacity="1.00" d=" M 145.38 67.31 C 149.93 65.81 154.69 67.08 159.31 67.45 C 159.20 67.86 158.99 68.67 158.89 69.08 C 156.88 74.11 158.53 79.53 157.46 84.69 C 153.10 83.81 149.16 80.56 144.51 82.09 C 144.10 83.18 143.68 84.27 143.27 85.36 C 141.96 85.42 140.64 85.49 139.33 85.56 C 138.06 83.86 136.73 82.21 135.38 80.58 C 130.94 78.92 126.24 77.96 121.50 78.62 C 117.21 76.64 112.39 77.20 107.85 76.42 C 104.29 75.81 100.71 75.36 97.14 74.80 C 93.51 74.30 90.75 71.50 87.18 70.80 C 83.60 70.11 79.90 70.40 76.33 69.63 L 75.52 69.20 C 80.92 69.40 86.32 69.28 91.72 69.16 C 104.13 69.37 116.55 69.59 128.94 68.86 C 134.44 68.62 140.07 69.09 145.38 67.31 Z" />
</g>
<g id="#5f6c91ff">
<path fill="#5f6c91" opacity="1.00" d=" M 73.93 68.64 C 74.33 68.78 75.12 69.06 75.52 69.20 L 76.33 69.63 C 76.27 72.32 76.13 75.01 76.24 77.71 C 75.82 85.26 78.73 93.12 76.20 100.46 C 75.90 100.95 75.30 101.94 75.00 102.43 C 74.27 100.43 73.56 98.43 72.87 96.42 C 72.51 96.48 71.79 96.61 71.43 96.67 C 71.54 89.61 73.02 82.60 72.41 75.52 C 72.85 73.21 73.39 70.92 73.93 68.64 Z" />
</g>
<g id="#485c89ff">
<path fill="#485c89" opacity="1.00" d=" M 76.33 69.63 C 79.90 70.40 83.60 70.11 87.18 70.80 C 90.75 71.50 93.51 74.30 97.14 74.80 C 100.71 75.36 104.29 75.81 107.85 76.42 C 112.39 77.20 117.21 76.64 121.50 78.62 C 126.24 77.96 130.94 78.92 135.38 80.58 C 136.73 82.21 138.06 83.86 139.33 85.56 C 141.80 89.88 147.45 92.00 147.90 97.44 C 146.95 96.45 145.97 95.50 145.00 94.53 C 144.43 94.72 143.87 94.91 143.30 95.10 C 141.29 94.65 139.28 94.20 137.27 93.74 C 137.77 97.39 139.11 100.92 139.29 104.59 C 138.31 108.83 137.61 113.11 137.49 117.46 C 137.28 116.64 136.88 115.00 136.67 114.18 C 133.90 114.05 131.12 113.91 128.35 113.77 C 128.21 112.19 128.07 110.61 127.93 109.03 C 126.03 107.44 124.32 105.43 121.99 104.49 C 119.75 104.64 117.45 105.72 115.25 104.76 C 113.16 104.09 111.68 102.40 110.34 100.75 C 110.08 100.42 109.57 99.78 109.31 99.45 C 106.90 102.07 103.72 104.27 99.97 103.72 C 96.09 104.02 93.20 101.17 90.54 98.79 C 90.68 99.31 90.96 100.34 91.10 100.86 C 89.65 98.96 88.10 97.13 86.49 95.36 C 87.09 93.19 88.85 90.74 87.44 88.54 C 86.60 86.99 84.05 86.31 82.95 87.95 C 81.62 89.68 82.03 92.11 81.69 94.16 C 80.27 88.54 77.87 83.25 76.24 77.71 C 76.13 75.01 76.27 72.32 76.33 69.63 M 117.38 88.35 C 114.62 89.00 113.56 92.46 115.00 94.76 C 116.55 97.44 121.16 96.76 122.14 93.92 C 123.31 91.10 120.44 87.40 117.38 88.35 Z" />
</g>
<g id="#3a5480ff">
<path fill="#3a5480" opacity="1.00" d=" M 157.46 84.69 C 158.53 79.53 156.88 74.11 158.89 69.08 C 160.70 73.83 161.46 78.89 162.43 83.86 C 163.49 90.67 164.71 97.57 164.13 104.48 C 163.58 104.25 162.48 103.79 161.93 103.56 C 160.89 103.23 159.85 102.93 158.80 102.68 C 155.72 103.84 155.26 107.27 154.26 109.98 C 153.16 107.28 152.15 104.55 151.23 101.79 C 150.10 100.35 148.98 98.91 147.90 97.44 C 147.45 92.00 141.80 89.88 139.33 85.56 C 140.64 85.49 141.96 85.42 143.27 85.36 C 143.68 84.27 144.10 83.18 144.51 82.09 C 149.16 80.56 153.10 83.81 157.46 84.69 Z" />
</g>
<g id="#758ba1ff">
<path fill="#758ba1" opacity="1.00" d=" M 72.41 75.52 C 73.02 82.60 71.54 89.61 71.43 96.67 C 70.31 106.79 75.08 116.04 78.92 125.06 C 80.00 128.23 84.16 129.94 83.64 133.64 C 77.20 129.74 73.10 122.80 70.81 115.81 C 70.62 113.12 70.07 110.42 68.48 108.18 C 66.85 105.69 67.41 102.53 68.30 99.88 C 70.44 91.92 70.05 83.47 72.41 75.52 Z" />
</g>
<g id="#4f6e94ff">
<path fill="#4f6e94" opacity="1.00" d=" M 76.24 77.71 C 77.87 83.25 80.27 88.54 81.69 94.16 C 83.27 94.63 84.88 94.98 86.49 95.36 C 88.10 97.13 89.65 98.96 91.10 100.86 C 95.19 107.68 105.95 106.87 110.34 100.75 C 111.68 102.40 113.16 104.09 115.25 104.76 C 117.45 105.72 119.75 104.64 121.99 104.49 C 124.32 105.43 126.03 107.44 127.93 109.03 C 128.07 110.61 128.21 112.19 128.35 113.77 C 131.12 113.91 133.90 114.05 136.67 114.18 C 136.88 115.00 137.28 116.64 137.49 117.46 C 136.84 123.11 135.55 129.31 131.51 133.53 C 127.74 135.46 123.13 135.21 119.56 137.70 C 135.57 140.01 151.02 130.42 159.85 117.58 C 160.04 118.22 160.41 119.49 160.59 120.13 C 156.79 129.12 148.40 135.45 139.10 138.06 C 139.45 140.14 139.99 142.19 140.73 144.17 C 139.86 142.35 139.16 140.45 138.45 138.56 C 136.56 138.99 134.66 139.43 132.76 139.81 C 132.48 139.86 131.94 139.97 131.67 140.02 C 124.55 141.05 117.37 141.65 110.17 141.47 C 110.32 143.85 110.37 146.24 110.13 148.62 C 109.61 146.56 109.15 144.48 108.70 142.41 C 102.34 147.67 94.90 151.67 86.99 154.06 C 84.08 154.82 82.15 157.74 79.04 157.91 C 76.29 158.25 73.50 158.25 70.73 158.14 C 70.20 157.94 69.14 157.53 68.61 157.33 L 68.68 156.91 C 69.36 154.20 69.01 150.32 72.38 149.38 C 80.78 145.89 90.54 148.55 98.76 144.17 C 98.05 144.10 96.65 143.95 95.95 143.87 C 97.94 143.03 100.02 142.14 101.27 140.27 C 99.86 139.87 98.45 139.48 97.05 139.08 C 97.87 139.00 99.50 138.84 100.32 138.76 C 97.52 137.60 94.38 136.97 92.01 134.99 C 91.75 131.34 92.83 127.76 92.78 124.12 C 91.51 121.29 88.93 119.36 86.74 117.28 C 81.14 113.16 80.49 105.63 76.20 100.46 C 78.73 93.12 75.82 85.26 76.24 77.71 Z" />
</g>
<g id="#493041ff">
<path fill="#493041" opacity="1.00" d=" M 82.95 87.95 C 84.05 86.31 86.60 86.99 87.44 88.54 C 88.85 90.74 87.09 93.19 86.49 95.36 C 84.88 94.98 83.27 94.63 81.69 94.16 C 82.03 92.11 81.62 89.68 82.95 87.95 M 83.49 89.49 C 82.51 90.97 82.71 93.75 84.99 93.73 C 87.79 92.72 86.38 87.15 83.49 89.49 Z" />
</g>
<g id="#322436ff">
<path fill="#322436" opacity="1.00" d=" M 117.38 88.35 C 120.44 87.40 123.31 91.10 122.14 93.92 C 121.16 96.76 116.55 97.44 115.00 94.76 C 113.56 92.46 114.62 89.00 117.38 88.35 M 117.22 90.18 C 114.39 91.24 116.14 96.19 119.03 94.99 C 122.44 94.18 120.30 88.45 117.22 90.18 Z" />
</g>
<g id="#e18b8eff">
<path fill="#e18b8e" opacity="1.00" d=" M 83.49 89.49 C 86.38 87.15 87.79 92.72 84.99 93.73 C 82.71 93.75 82.51 90.97 83.49 89.49 Z" />
</g>
<g id="#cb6b71ff">
<path fill="#cb6b71" opacity="1.00" d=" M 117.22 90.18 C 120.30 88.45 122.44 94.18 119.03 94.99 C 116.14 96.19 114.39 91.24 117.22 90.18 M 118.07 91.21 C 116.45 91.57 117.13 94.25 118.74 93.69 C 120.34 93.33 119.66 90.69 118.07 91.21 Z" />
</g>
<g id="#f0b2a6ff">
<path fill="#f0b2a6" opacity="1.00" d=" M 118.07 91.21 C 119.66 90.69 120.34 93.33 118.74 93.69 C 117.13 94.25 116.45 91.57 118.07 91.21 Z" />
</g>
<g id="#3f628aff">
<path fill="#3f628a" opacity="1.00" d=" M 137.27 93.74 C 139.28 94.20 141.29 94.65 143.30 95.10 C 143.87 94.91 144.43 94.72 145.00 94.53 C 145.97 95.50 146.95 96.45 147.90 97.44 C 148.98 98.91 150.10 100.35 151.23 101.79 C 152.15 104.55 153.16 107.28 154.26 109.98 C 155.26 107.27 155.72 103.84 158.80 102.68 C 157.69 105.28 155.71 107.91 156.38 110.89 C 157.13 113.31 158.71 115.35 159.85 117.58 C 151.02 130.42 135.57 140.01 119.56 137.70 C 123.13 135.21 127.74 135.46 131.51 133.53 C 135.55 129.31 136.84 123.11 137.49 117.46 C 137.61 113.11 138.31 108.83 139.29 104.59 C 139.11 100.92 137.77 97.39 137.27 93.74 Z" />
</g>
<g id="#5d789aff">
<path fill="#5d789a" opacity="1.00" d=" M 71.43 96.67 C 71.79 96.61 72.51 96.48 72.87 96.42 C 73.56 98.43 74.27 100.43 75.00 102.43 C 75.30 101.94 75.90 100.95 76.20 100.46 C 80.49 105.63 81.14 113.16 86.74 117.28 C 88.93 119.36 91.51 121.29 92.78 124.12 C 92.83 127.76 91.75 131.34 92.01 134.99 C 94.38 136.97 97.52 137.60 100.32 138.76 C 99.50 138.84 97.87 139.00 97.05 139.08 C 92.26 138.38 87.80 136.25 83.65 133.84 L 83.64 133.64 C 84.16 129.94 80.00 128.23 78.92 125.06 C 75.08 116.04 70.31 106.79 71.43 96.67 Z" />
</g>
<g id="#212c40ff">
<path fill="#212c40" opacity="1.00" d=" M 90.54 98.79 C 93.20 101.17 96.09 104.02 99.97 103.72 C 103.72 104.27 106.90 102.07 109.31 99.45 C 109.57 99.78 110.08 100.42 110.34 100.75 C 105.95 106.87 95.19 107.68 91.10 100.86 C 90.96 100.34 90.68 99.31 90.54 98.79 Z" />
</g>
<g id="#4e6690ff">
<path fill="#4e6690" opacity="1.00" d=" M 58.33 101.72 C 61.60 100.83 64.94 100.30 68.30 99.88 C 67.41 102.53 66.85 105.69 68.48 108.18 C 70.07 110.42 70.62 113.12 70.81 115.81 C 69.84 114.17 69.91 111.91 68.06 110.78 C 67.04 109.34 65.98 107.94 64.94 106.54 C 58.77 107.62 53.98 112.06 47.96 113.57 C 50.34 113.84 52.71 114.13 55.08 114.44 C 51.28 114.67 47.47 114.93 43.66 115.09 C 41.54 114.59 39.82 113.22 38.22 111.82 C 39.01 109.10 39.41 106.30 39.65 103.48 C 45.85 102.41 52.31 103.85 58.33 101.72 Z" />
</g>
<g id="#6980a0fe">
<path fill="#6980a0" opacity="1.00" d=" M 38.22 111.82 C 36.01 108.46 36.16 103.87 39.78 101.54 C 45.97 101.26 52.14 101.89 58.33 101.72 C 52.31 103.85 45.85 102.41 39.65 103.48 C 39.41 106.30 39.01 109.10 38.22 111.82 Z" />
</g>
<g id="#506b92ff">
<path fill="#506b92" opacity="1.00" d=" M 158.80 102.68 C 159.85 102.93 160.89 103.23 161.93 103.56 C 161.35 103.96 160.21 104.77 159.63 105.18 C 165.88 107.34 172.69 108.76 179.18 106.69 C 181.81 107.76 185.18 108.62 185.90 111.83 C 187.47 117.02 181.64 121.03 177.08 121.53 C 171.79 121.34 166.55 119.86 161.96 117.23 C 161.50 118.20 161.05 119.16 160.59 120.13 C 160.41 119.49 160.04 118.22 159.85 117.58 C 158.71 115.35 157.13 113.31 156.38 110.89 C 155.71 107.91 157.69 105.28 158.80 102.68 Z" />
</g>
<g id="#7a829aff">
<path fill="#7a829a" opacity="1.00" d=" M 159.63 105.18 C 160.21 104.77 161.35 103.96 161.93 103.56 C 162.48 103.79 163.58 104.25 164.13 104.48 C 168.79 106.88 174.13 106.27 179.18 106.69 C 172.69 108.76 165.88 107.34 159.63 105.18 Z" />
<path fill="#7a829a" opacity="1.00" d=" M 132.76 139.81 C 134.66 139.43 136.56 138.99 138.45 138.56 C 139.16 140.45 139.86 142.35 140.73 144.17 C 141.28 145.24 141.85 146.30 142.44 147.36 C 140.06 147.57 137.15 148.83 135.17 146.90 C 133.73 144.81 133.44 142.19 132.76 139.81 Z" />
</g>
<g id="#3f5d87ff">
<path fill="#3f5d87" opacity="1.00" d=" M 47.96 113.57 C 53.98 112.06 58.77 107.62 64.94 106.54 C 65.98 107.94 67.04 109.34 68.06 110.78 C 60.93 115.28 51.89 116.49 43.66 115.09 C 47.47 114.93 51.28 114.67 55.08 114.44 C 52.71 114.13 50.34 113.84 47.96 113.57 Z" />
</g>
<g id="#8695a3ff">
<path fill="#8695a3" opacity="1.00" d=" M 131.67 140.02 C 131.94 139.97 132.48 139.86 132.76 139.81 C 133.44 142.19 133.73 144.81 135.17 146.90 C 137.15 148.83 140.06 147.57 142.44 147.36 C 143.79 148.87 145.36 150.17 147.14 151.17 C 142.78 150.69 137.21 149.00 133.88 152.83 C 133.21 155.48 133.29 158.24 133.10 160.94 C 131.84 159.61 131.14 157.94 130.80 156.17 L 131.08 155.44 C 133.18 151.55 132.33 147.15 131.36 143.08 C 131.35 142.05 131.45 141.03 131.67 140.02 Z" />
</g>
<g id="#3c6188ff">
<path fill="#3c6188" opacity="1.00" d=" M 86.99 154.06 C 94.90 151.67 102.34 147.67 108.70 142.41 C 109.15 144.48 109.61 146.56 110.13 148.62 C 106.51 151.92 101.68 153.20 97.34 155.23 C 88.86 159.07 79.04 160.47 69.97 158.11 L 70.73 158.14 C 73.50 158.25 76.29 158.25 79.04 157.91 C 82.15 157.74 84.08 154.82 86.99 154.06 Z" />
</g>
<g id="#758aa0f9">
<path fill="#758aa0" opacity="0.98" d=" M 80.01 145.78 C 85.43 146.20 90.69 144.92 95.95 143.87 C 96.65 143.95 98.05 144.10 98.76 144.17 C 90.54 148.55 80.78 145.89 72.38 149.38 C 69.01 150.32 69.36 154.20 68.68 156.91 C 66.88 154.44 67.85 151.37 69.07 148.90 C 72.58 147.44 76.06 145.36 80.01 145.78 Z" />
</g>
<g id="#a7afb5ff">
<path fill="#a7afb5" opacity="1.00" d=" M 131.36 143.08 C 132.33 147.15 133.18 151.55 131.08 155.44 C 130.80 151.33 130.30 147.12 131.36 143.08 Z" />
</g>
<g id="#567599ff">
<path fill="#567599" opacity="1.00" d=" M 133.88 152.83 C 137.21 149.00 142.78 150.69 147.14 151.17 L 147.78 151.26 C 148.98 153.67 150.27 156.27 149.61 159.05 C 148.32 160.84 146.58 163.04 144.07 162.63 C 140.40 162.48 136.29 163.55 133.09 161.19 L 133.10 160.94 C 133.29 158.24 133.21 155.48 133.88 152.83 Z" />
</g>
</svg>
