<?xml version="1.0" encoding="UTF-8" ?>
<!DOCTYPE svg PUBLIC "-//W3C//DTD SVG 1.1//EN" "http://www.w3.org/Graphics/SVG/1.1/DTD/svg11.dtd">
<svg width="143pt" height="106pt" viewBox="0 0 143 106" version="1.1" xmlns="http://www.w3.org/2000/svg">
<g id="#eed6c4f5">
<path fill="#eed6c4" opacity="0.96" d=" M 40.98 26.23 C 45.55 22.82 51.66 23.27 56.97 24.21 C 53.69 25.08 50.30 25.32 46.94 25.63 C 44.73 25.97 42.99 27.53 41.30 28.87 C 39.18 30.49 37.23 32.63 37.38 35.49 C 36.74 35.94 35.46 36.82 34.82 37.26 C 35.47 34.39 36.00 31.21 38.24 29.10 C 39.23 28.21 40.11 27.22 40.98 26.23 Z" />
</g>
<g id="#fdafb7ff">
<path fill="#fdafb7" opacity="1.00" d=" M 56.97 24.21 L 57.13 24.39 C 58.14 25.49 59.17 26.57 60.19 27.65 C 61.29 27.64 62.40 27.63 63.50 27.63 C 63.78 28.05 64.34 28.90 64.62 29.33 C 62.32 28.79 60.36 29.87 59.04 31.71 C 58.90 31.11 58.62 29.90 58.49 29.29 C 57.21 29.33 55.94 29.37 54.67 29.41 C 54.37 30.48 54.05 31.54 53.71 32.60 C 53.10 33.49 52.45 34.36 51.80 35.22 C 50.19 35.47 48.42 35.59 47.24 36.86 C 46.97 36.25 46.44 35.01 46.17 34.40 C 44.86 34.54 43.15 34.05 42.29 35.37 C 40.79 36.76 42.07 38.55 42.41 40.11 C 39.03 40.61 38.63 44.46 37.44 47.04 C 37.16 47.87 36.92 48.72 36.70 49.57 C 36.17 48.24 35.65 46.90 35.15 45.56 L 35.83 45.11 C 40.15 43.56 37.60 38.76 37.38 35.49 C 37.23 32.63 39.18 30.49 41.30 28.87 C 41.40 29.42 41.60 30.52 41.70 31.07 C 44.09 30.18 46.48 29.32 48.90 28.52 C 48.88 27.92 48.83 26.71 48.81 26.11 C 48.34 25.99 47.40 25.75 46.94 25.63 C 50.30 25.32 53.69 25.08 56.97 24.21 Z" />
</g>
<g id="#fbea24ff">
<path fill="#fbea24" opacity="1.00" d=" M 57.13 24.39 C 59.52 24.87 61.63 26.10 63.50 27.63 C 62.40 27.63 61.29 27.64 60.19 27.65 C 59.17 26.57 58.14 25.49 57.13 24.39 Z" />
<path fill="#fbea24" opacity="1.00" d=" M 34.82 37.26 C 35.46 36.82 36.74 35.94 37.38 35.49 C 37.60 38.76 40.15 43.56 35.83 45.11 L 35.03 45.62 L 35.01 43.61 C 35.03 41.49 35.07 39.36 34.82 37.26 Z" />
</g>
<g id="#f9afb9ff">
<path fill="#f9afb9" opacity="1.00" d=" M 87.53 27.55 C 91.06 26.06 95.48 24.01 99.11 25.59 C 100.05 26.38 101.48 27.20 102.65 26.32 L 103.85 25.74 C 108.02 27.64 111.35 30.95 113.24 35.13 C 111.63 34.02 110.02 32.89 108.34 31.88 C 103.60 30.27 101.15 35.14 97.26 36.68 C 97.10 37.11 96.77 37.97 96.60 38.40 C 96.34 39.12 95.80 40.56 95.54 41.27 C 93.90 40.79 92.23 40.42 90.57 40.07 C 91.00 38.74 91.44 37.42 91.88 36.09 C 89.69 36.47 87.51 36.88 85.33 37.31 C 85.18 36.21 85.00 35.12 84.81 34.03 C 84.18 35.66 83.58 37.31 83.02 38.97 C 81.61 34.78 83.12 29.25 87.53 27.55 M 92.25 27.32 C 90.45 27.79 87.34 28.43 88.39 31.00 C 89.10 33.44 92.23 31.85 93.93 31.48 C 96.68 31.06 94.85 25.53 92.25 27.32 Z" />
</g>
<g id="#fdffffff">
<path fill="#fdffff" opacity="1.00" d=" M 99.11 25.59 C 99.96 24.79 102.81 24.74 102.65 26.32 C 101.48 27.20 100.05 26.38 99.11 25.59 Z" />
<path fill="#fdffff" opacity="1.00" d=" M 70.64 61.13 L 71.85 60.69 C 72.51 60.73 73.83 60.80 74.49 60.83 C 74.57 61.83 74.66 62.83 74.74 63.83 C 72.80 65.07 71.68 67.08 70.76 69.12 C 69.96 70.45 69.06 71.71 68.17 72.97 C 67.42 70.98 67.21 68.85 67.42 66.74 L 67.48 65.85 C 68.35 64.46 69.28 63.12 70.20 61.77 C 70.31 61.61 70.53 61.29 70.64 61.13 Z" />
</g>
<g id="#32322f55">
<path fill="#32322f" opacity="0.33" d=" M 38.24 29.10 C 36.75 27.58 39.42 24.82 40.98 26.23 C 40.11 27.22 39.23 28.21 38.24 29.10 Z" />
</g>
<g id="#fff52cff">
<path fill="#fff52c" opacity="1.00" d=" M 41.30 28.87 C 42.99 27.53 44.73 25.97 46.94 25.63 C 47.40 25.75 48.34 25.99 48.81 26.11 C 48.83 26.71 48.88 27.92 48.90 28.52 C 46.48 29.32 44.09 30.18 41.70 31.07 C 41.60 30.52 41.40 29.42 41.30 28.87 Z" />
</g>
<g id="#ffee25ff">
<path fill="#ffee25" opacity="1.00" d=" M 92.25 27.32 C 94.85 25.53 96.68 31.06 93.93 31.48 C 92.23 31.85 89.10 33.44 88.39 31.00 C 87.34 28.43 90.45 27.79 92.25 27.32 Z" />
</g>
<g id="#fdc421ff">
<path fill="#fdc421" opacity="1.00" d=" M 54.67 29.41 C 55.94 29.37 57.21 29.33 58.49 29.29 C 58.62 29.90 58.90 31.11 59.04 31.71 C 57.82 33.05 56.55 34.35 55.19 35.55 C 54.82 34.81 54.08 33.34 53.71 32.60 C 54.05 31.54 54.37 30.48 54.67 29.41 Z" />
</g>
<g id="#b47376ff">
<path fill="#b47376" opacity="1.00" d=" M 59.04 31.71 C 60.36 29.87 62.32 28.79 64.62 29.33 C 64.87 30.07 65.37 31.56 65.62 32.31 C 64.95 32.01 63.61 31.41 62.94 31.11 C 56.50 37.18 49.49 42.55 42.86 48.39 L 42.11 48.23 C 41.53 48.08 40.35 47.79 39.77 47.65 C 44.33 42.89 50.45 40.10 55.19 35.55 C 56.55 34.35 57.82 33.05 59.04 31.71 Z" />
</g>
<g id="#915757fb">
<path fill="#915757" opacity="1.00" d=" M 42.86 48.39 C 49.49 42.55 56.50 37.18 62.94 31.11 C 63.61 31.41 64.95 32.01 65.62 32.31 C 64.74 33.20 63.99 34.27 62.89 34.92 C 57.83 37.26 54.21 41.61 49.74 44.81 C 47.65 46.34 45.58 48.22 42.86 48.39 Z" />
</g>
<g id="#e59dafff">
<path fill="#e59daf" opacity="1.00" d=" M 97.26 36.68 C 101.15 35.14 103.60 30.27 108.34 31.88 C 104.88 33.45 103.74 37.10 104.27 40.66 C 102.27 41.56 100.22 42.56 97.97 42.56 C 98.43 41.87 99.35 40.49 99.82 39.80 C 99.01 39.45 97.41 38.75 96.60 38.40 C 96.77 37.97 97.10 37.11 97.26 36.68 Z" />
</g>
<g id="#f9c321ff">
<path fill="#f9c321" opacity="1.00" d=" M 108.34 31.88 C 110.02 32.89 111.63 34.02 113.24 35.13 L 113.23 35.83 C 113.21 36.39 113.17 37.51 113.15 38.07 C 112.46 37.39 111.77 36.70 111.08 36.03 C 108.93 37.75 106.83 39.54 104.78 41.38 L 104.27 40.66 C 103.74 37.10 104.88 33.45 108.34 31.88 Z" />
</g>
<g id="#db9498ff">
<path fill="#db9498" opacity="1.00" d=" M 51.80 35.22 C 52.45 34.36 53.10 33.49 53.71 32.60 C 54.08 33.34 54.82 34.81 55.19 35.55 C 50.45 40.10 44.33 42.89 39.77 47.65 C 39.19 47.49 38.02 47.19 37.44 47.04 C 38.63 44.46 39.03 40.61 42.41 40.11 C 44.45 39.74 45.94 38.38 47.24 36.86 C 48.42 35.59 50.19 35.47 51.80 35.22 Z" />
</g>
<g id="#fdcd24ff">
<path fill="#fdcd24" opacity="1.00" d=" M 42.29 35.37 C 43.15 34.05 44.86 34.54 46.17 34.40 C 46.44 35.01 46.97 36.25 47.24 36.86 C 45.94 38.38 44.45 39.74 42.41 40.11 C 42.07 38.55 40.79 36.76 42.29 35.37 Z" />
</g>
<g id="#b7757bff">
<path fill="#b7757b" opacity="1.00" d=" M 84.81 34.03 C 85.00 35.12 85.18 36.21 85.33 37.31 C 85.37 38.65 85.33 39.99 85.31 41.33 C 85.89 41.56 87.04 42.02 87.62 42.25 C 90.00 43.83 91.87 46.91 95.04 46.76 C 98.98 46.44 102.58 44.62 106.24 43.29 C 107.52 44.32 109.07 45.18 110.78 44.79 C 112.74 43.15 112.91 40.42 113.15 38.07 C 113.17 37.51 113.21 36.39 113.23 35.83 C 115.07 40.60 114.76 46.02 112.83 50.72 C 112.41 49.17 111.98 47.63 111.51 46.10 C 110.06 46.65 108.62 47.24 107.17 47.79 C 105.45 47.68 103.73 47.49 102.01 47.57 C 99.82 48.30 99.41 50.85 98.50 52.67 C 93.12 51.38 88.94 47.33 85.35 43.34 C 84.56 41.96 83.84 40.55 83.11 39.14 L 83.02 38.97 C 83.58 37.31 84.18 35.66 84.81 34.03 Z" />
</g>
<g id="#6a3e15ff">
<path fill="#6a3e15" opacity="1.00" d=" M 49.74 44.81 C 54.21 41.61 57.83 37.26 62.89 34.92 C 61.29 36.73 59.45 38.30 57.64 39.89 C 58.39 40.71 59.14 41.53 59.89 42.35 C 60.96 41.97 62.04 41.60 63.12 41.24 C 58.68 43.34 54.27 45.88 51.14 49.75 L 51.43 48.70 C 51.23 48.18 50.81 47.13 50.61 46.61 C 50.39 46.16 49.95 45.26 49.74 44.81 Z" />
<path fill="#6a3e15" opacity="1.00" d=" M 53.87 55.71 C 60.09 53.28 66.98 53.35 73.43 54.71 C 75.59 55.27 77.72 55.98 79.78 56.84 C 81.29 57.78 82.74 58.81 84.16 59.89 C 85.22 60.83 86.21 61.84 87.21 62.84 C 88.22 63.89 89.21 64.95 90.21 66.01 C 89.92 66.29 89.34 66.83 89.05 67.11 C 87.51 64.88 86.05 62.51 83.86 60.84 C 81.32 58.78 78.52 56.98 75.41 55.90 C 68.42 53.82 60.89 53.72 53.87 55.71 Z" />
<path fill="#6a3e15" opacity="1.00" d=" M 66.57 59.86 C 67.98 59.69 69.39 59.47 70.79 59.21 C 70.75 59.69 70.68 60.65 70.64 61.13 C 70.53 61.29 70.31 61.61 70.20 61.77 C 68.98 61.14 67.77 60.50 66.57 59.86 Z" />
</g>
<g id="#fec81cff">
<path fill="#fec81c" opacity="1.00" d=" M 85.33 37.31 C 87.51 36.88 89.69 36.47 91.88 36.09 C 91.44 37.42 91.00 38.74 90.57 40.07 C 89.58 40.79 88.60 41.52 87.62 42.25 C 87.04 42.02 85.89 41.56 85.31 41.33 C 85.33 39.99 85.37 38.65 85.33 37.31 Z" />
</g>
<g id="#db9e1bff">
<path fill="#db9e1b" opacity="1.00" d=" M 111.08 36.03 C 111.77 36.70 112.46 37.39 113.15 38.07 C 112.91 40.42 112.74 43.15 110.78 44.79 C 109.07 45.18 107.52 44.32 106.24 43.29 C 105.87 42.82 105.14 41.86 104.78 41.38 C 106.83 39.54 108.93 37.75 111.08 36.03 Z" />
</g>
<g id="#1818064d">
<path fill="#181806" opacity="0.30" d=" M 35.01 43.61 C 32.98 42.85 33.12 38.27 34.82 37.26 C 35.07 39.36 35.03 41.49 35.01 43.61 Z" />
</g>
<g id="#da802eff">
<path fill="#da802e" opacity="1.00" d=" M 83.11 39.14 C 83.84 40.55 84.56 41.96 85.35 43.34 C 81.85 45.70 77.69 43.67 73.85 44.43 C 68.37 44.87 62.88 45.21 57.44 46.01 C 62.77 42.60 69.24 42.36 75.37 42.68 C 75.41 42.34 75.50 41.64 75.55 41.30 C 76.83 40.89 78.11 40.48 79.40 40.12 C 80.81 40.25 82.20 40.44 83.59 40.69 L 83.11 39.14 Z" />
</g>
<g id="#fcc533ff">
<path fill="#fcc533" opacity="1.00" d=" M 95.54 41.27 C 95.80 40.56 96.34 39.12 96.60 38.40 C 97.41 38.75 99.01 39.45 99.82 39.80 C 99.35 40.49 98.43 41.87 97.97 42.56 C 97.36 42.24 96.14 41.59 95.54 41.27 Z" />
</g>
<g id="#fe9e3fff">
<path fill="#fe9e3f" opacity="1.00" d=" M 63.12 41.24 C 68.37 39.63 73.98 39.33 79.40 40.12 C 78.11 40.48 76.83 40.89 75.55 41.30 C 75.50 41.64 75.41 42.34 75.37 42.68 C 69.24 42.36 62.77 42.60 57.44 46.01 C 62.88 45.21 68.37 44.87 73.85 44.43 C 73.09 45.10 72.33 45.78 71.58 46.46 C 72.25 49.20 72.87 51.95 73.43 54.71 C 66.98 53.35 60.09 53.28 53.87 55.71 C 51.44 56.60 49.14 57.82 46.82 58.97 C 46.54 58.56 45.99 57.73 45.71 57.32 L 45.50 57.00 C 47.23 54.47 49.12 52.06 51.14 49.75 C 54.27 45.88 58.68 43.34 63.12 41.24 Z" />
<path fill="#fe9e3f" opacity="1.00" d=" M 75.41 55.90 C 78.52 56.98 81.32 58.78 83.86 60.84 L 81.76 60.92 C 78.61 59.48 75.04 59.11 71.85 60.69 L 70.64 61.13 C 70.68 60.65 70.75 59.69 70.79 59.21 C 72.31 58.08 73.85 56.99 75.41 55.90 Z" />
</g>
<g id="#d88b98ff">
<path fill="#d88b98" opacity="1.00" d=" M 87.62 42.25 C 88.60 41.52 89.58 40.79 90.57 40.07 C 92.23 40.42 93.90 40.79 95.54 41.27 C 96.14 41.59 97.36 42.24 97.97 42.56 C 100.22 42.56 102.27 41.56 104.27 40.66 L 104.78 41.38 C 105.14 41.86 105.87 42.82 106.24 43.29 C 102.58 44.62 98.98 46.44 95.04 46.76 C 91.87 46.91 90.00 43.83 87.62 42.25 Z" />
</g>
<g id="#9e5120ff">
<path fill="#9e5120" opacity="1.00" d=" M 73.85 44.43 C 77.69 43.67 81.85 45.70 85.35 43.34 C 88.94 47.33 93.12 51.38 98.50 52.67 C 100.82 53.19 103.15 53.71 105.46 54.29 L 104.10 55.15 L 103.48 55.54 C 103.68 56.09 104.08 57.20 104.28 57.75 C 101.77 58.23 99.39 59.19 97.20 60.49 C 95.27 56.73 92.57 53.40 89.12 50.94 C 87.67 49.88 86.17 48.91 84.62 48.02 C 83.09 47.25 81.53 46.56 79.94 45.94 C 77.94 45.30 75.90 44.83 73.85 44.43 Z" />
</g>
<g id="#6c4239e2">
<path fill="#6c4239" opacity="0.89" d=" M 42.86 48.39 C 45.58 48.22 47.65 46.34 49.74 44.81 C 49.95 45.26 50.39 46.16 50.61 46.61 C 47.03 48.06 44.62 51.33 41.24 53.15 C 40.13 52.50 39.01 51.86 37.90 51.22 C 38.46 51.30 39.59 51.47 40.15 51.56 C 41.01 51.05 41.86 50.53 42.70 49.99 C 42.56 49.55 42.26 48.67 42.11 48.23 L 42.86 48.39 Z" />
</g>
<g id="#e88e3cff">
<path fill="#e88e3c" opacity="1.00" d=" M 73.85 44.43 C 75.90 44.83 77.94 45.30 79.94 45.94 C 79.61 46.31 78.96 47.06 78.63 47.43 C 79.69 50.45 80.01 53.65 79.78 56.84 C 77.72 55.98 75.59 55.27 73.43 54.71 C 72.87 51.95 72.25 49.20 71.58 46.46 C 72.33 45.78 73.09 45.10 73.85 44.43 Z" />
</g>
<g id="#d58136ff">
<path fill="#d58136" opacity="1.00" d=" M 79.94 45.94 C 81.53 46.56 83.09 47.25 84.62 48.02 C 84.99 51.97 85.28 56.01 84.16 59.89 C 82.74 58.81 81.29 57.78 79.78 56.84 C 80.01 53.65 79.69 50.45 78.63 47.43 C 78.96 47.06 79.61 46.31 79.94 45.94 Z" />
</g>
<g id="#a56368ff">
<path fill="#a56368" opacity="1.00" d=" M 107.17 47.79 C 108.62 47.24 110.06 46.65 111.51 46.10 C 111.98 47.63 112.41 49.17 112.83 50.72 C 111.31 53.64 107.42 55.63 104.10 55.15 L 105.46 54.29 C 108.38 53.18 107.71 50.19 107.17 47.79 Z" />
</g>
<g id="#cf932efd">
<path fill="#cf932e" opacity="1.00" d=" M 36.70 49.57 C 36.92 48.72 37.16 47.87 37.44 47.04 C 38.02 47.19 39.19 47.49 39.77 47.65 C 40.35 47.79 41.53 48.08 42.11 48.23 C 42.26 48.67 42.56 49.55 42.70 49.99 C 41.86 50.53 41.01 51.05 40.15 51.56 C 39.59 51.47 38.46 51.30 37.90 51.22 C 37.60 50.80 37.00 49.98 36.70 49.57 Z" />
</g>
<g id="#c07330ff">
<path fill="#c07330" opacity="1.00" d=" M 84.62 48.02 C 86.17 48.91 87.67 49.88 89.12 50.94 C 89.69 54.98 91.12 59.97 87.21 62.84 C 86.21 61.84 85.22 60.83 84.16 59.89 C 85.28 56.01 84.99 51.97 84.62 48.02 Z" />
<path fill="#c07330" opacity="1.00" d=" M 81.76 60.92 L 83.86 60.84 C 86.05 62.51 87.51 64.88 89.05 67.11 C 88.01 68.37 87.05 69.69 86.20 71.09 C 85.86 68.37 85.68 65.44 83.72 63.32 C 83.10 62.50 82.43 61.70 81.76 60.92 Z" />
</g>
<g id="#b88016ff">
<path fill="#b88016" opacity="1.00" d=" M 98.50 52.67 C 99.41 50.85 99.82 48.30 102.01 47.57 C 103.73 47.49 105.45 47.68 107.17 47.79 C 107.71 50.19 108.38 53.18 105.46 54.29 C 103.15 53.71 100.82 53.19 98.50 52.67 Z" />
</g>
<g id="#ae652aff">
<path fill="#ae652a" opacity="1.00" d=" M 89.12 50.94 C 92.57 53.40 95.27 56.73 97.20 60.49 C 94.80 62.24 92.47 64.09 90.21 66.01 C 89.21 64.95 88.22 63.89 87.21 62.84 C 91.12 59.97 89.69 54.98 89.12 50.94 Z" />
</g>
<g id="#ffac4bff">
<path fill="#ffac4b" opacity="1.00" d=" M 25.05 54.90 C 28.53 53.78 31.59 55.54 34.13 57.75 C 28.58 64.37 30.23 73.36 28.15 81.16 C 26.47 87.47 26.48 94.03 26.68 100.50 C 23.02 95.11 19.99 89.32 16.40 83.88 C 18.12 78.43 16.53 72.56 18.37 67.14 C 20.13 61.89 23.44 56.36 29.32 55.24 C 27.90 55.11 26.47 55.00 25.05 54.90 Z" />
<path fill="#ffac4b" opacity="1.00" d=" M 97.20 60.49 C 99.39 59.19 101.77 58.23 104.28 57.75 C 107.05 57.88 109.89 57.82 112.58 58.57 C 115.14 59.47 115.75 62.49 116.39 64.80 C 115.84 64.70 114.73 64.50 114.17 64.41 C 107.27 69.91 103.12 77.83 97.21 84.23 C 93.90 87.96 89.15 90.28 86.56 94.65 C 84.95 97.21 83.45 99.83 82.12 102.55 C 81.97 97.36 82.74 92.21 82.46 87.00 C 82.83 81.54 83.99 76.11 86.20 71.09 C 87.05 69.69 88.01 68.37 89.05 67.11 C 89.34 66.83 89.92 66.29 90.21 66.01 C 92.47 64.09 94.80 62.24 97.20 60.49 Z" />
</g>
<g id="#ffd357ff">
<path fill="#ffd357" opacity="1.00" d=" M 15.03 63.22 C 18.21 60.29 20.48 55.84 25.05 54.90 C 26.47 55.00 27.90 55.11 29.32 55.24 C 23.44 56.36 20.13 61.89 18.37 67.14 C 16.53 72.56 18.12 78.43 16.40 83.88 C 15.31 81.94 14.04 80.02 13.60 77.81 C 12.11 72.92 14.46 68.07 15.03 63.22 Z" />
</g>
<g id="#ffba4bff">
<path fill="#ffba4b" opacity="1.00" d=" M 53.87 55.71 C 60.89 53.72 68.42 53.82 75.41 55.90 C 73.85 56.99 72.31 58.08 70.79 59.21 C 69.39 59.47 67.98 59.69 66.57 59.86 C 65.46 59.28 64.35 58.72 63.26 58.10 C 61.87 56.72 60.03 57.43 59.07 58.88 C 57.69 59.21 56.31 59.53 54.95 59.92 C 54.14 58.80 53.14 58.55 51.95 59.17 C 50.84 59.67 49.74 60.20 48.63 60.68 L 47.97 60.07 C 47.69 59.79 47.11 59.24 46.82 58.97 C 49.14 57.82 51.44 56.60 53.87 55.71 Z" />
</g>
<g id="#c8cfcfff">
<path fill="#c8cfcf" opacity="1.00" d=" M 44.79 58.35 C 45.02 58.09 45.48 57.58 45.71 57.32 C 45.99 57.73 46.54 58.56 46.82 58.97 C 47.11 59.24 47.69 59.79 47.97 60.07 C 47.66 60.72 47.02 62.02 46.70 62.68 C 44.83 62.56 42.93 62.47 41.07 62.74 C 41.27 61.95 41.48 61.16 41.68 60.37 C 42.81 60.02 43.93 59.67 45.06 59.33 C 43.42 59.13 41.79 58.93 40.15 58.78 C 41.66 58.36 43.21 58.02 44.79 58.35 Z" />
</g>
<g id="#a86e31ff">
<path fill="#a86e31" opacity="1.00" d=" M 59.07 58.88 C 60.03 57.43 61.87 56.72 63.26 58.10 C 62.31 59.51 60.47 59.28 59.07 58.88 Z" />
</g>
<g id="#cb7c38ff">
<path fill="#cb7c38" opacity="1.00" d=" M 34.13 57.75 C 34.91 58.73 35.68 59.73 36.44 60.73 C 33.00 64.01 31.89 69.79 35.36 73.48 C 35.57 73.71 36.01 74.19 36.23 74.43 C 33.95 81.66 30.54 88.54 29.00 96.00 C 28.74 97.86 27.74 99.46 26.69 100.98 L 26.68 100.50 C 26.48 94.03 26.47 87.47 28.15 81.16 C 30.23 73.36 28.58 64.37 34.13 57.75 Z" />
</g>
<g id="#fe9e44ff">
<path fill="#fe9e44" opacity="1.00" d=" M 63.26 58.10 C 64.35 58.72 65.46 59.28 66.57 59.86 C 67.77 60.50 68.98 61.14 70.20 61.77 C 69.28 63.12 68.35 64.46 67.48 65.85 C 67.02 64.24 65.69 63.33 64.07 64.07 C 63.50 65.28 63.72 66.37 64.72 67.31 C 62.91 68.75 61.30 70.39 59.73 72.07 C 56.75 72.55 54.76 70.90 53.67 68.29 C 52.65 68.35 51.64 68.40 50.63 68.47 C 51.05 65.70 50.96 62.63 48.63 60.68 C 49.74 60.20 50.84 59.67 51.95 59.17 C 51.19 61.31 53.96 60.59 54.95 59.92 C 56.31 59.53 57.69 59.21 59.07 58.88 C 60.47 59.28 62.31 59.51 63.26 58.10 M 51.04 65.18 C 51.61 65.58 52.74 66.36 53.31 66.76 C 54.43 66.31 56.12 64.20 54.36 63.51 C 53.05 62.40 52.08 64.82 51.04 65.18 Z" />
</g>
<g id="#f1f5f5ff">
<path fill="#f1f5f5" opacity="1.00" d=" M 36.44 60.73 C 37.53 59.88 38.70 58.89 40.15 58.78 C 41.79 58.93 43.42 59.13 45.06 59.33 C 43.93 59.67 42.81 60.02 41.68 60.37 C 41.48 61.16 41.27 61.95 41.07 62.74 C 39.78 64.00 38.34 65.26 37.76 67.03 C 37.00 69.19 36.26 71.37 35.36 73.48 C 31.89 69.79 33.00 64.01 36.44 60.73 Z" />
</g>
<g id="#a66e2cff">
<path fill="#a66e2c" opacity="1.00" d=" M 51.95 59.17 C 53.14 58.55 54.14 58.80 54.95 59.92 C 53.96 60.59 51.19 61.31 51.95 59.17 Z" />
</g>
<g id="#ccd7d7ff">
<path fill="#ccd7d7" opacity="1.00" d=" M 71.85 60.69 C 75.04 59.11 78.61 59.48 81.76 60.92 C 82.43 61.70 83.10 62.50 83.72 63.32 C 83.53 65.63 83.43 67.95 83.17 70.26 C 83.07 70.45 82.87 70.85 82.77 71.05 C 82.75 69.17 83.00 66.91 81.42 65.54 C 79.75 63.63 77.05 63.78 74.74 63.83 C 74.66 62.83 74.57 61.83 74.49 60.83 C 73.83 60.80 72.51 60.73 71.85 60.69 Z" />
</g>
<g id="#8f979eff">
<path fill="#8f979e" opacity="1.00" d=" M 46.70 62.68 C 47.02 62.02 47.66 60.72 47.97 60.07 L 48.63 60.68 C 50.96 62.63 51.05 65.70 50.63 68.47 C 49.89 70.15 49.04 71.78 48.16 73.39 C 46.34 74.82 44.22 75.92 41.85 75.94 C 42.22 75.59 42.96 74.90 43.34 74.56 C 43.34 74.31 43.35 73.81 43.36 73.56 C 45.22 72.36 47.61 71.29 48.22 68.94 C 49.08 66.71 47.48 64.66 46.70 62.68 Z" />
</g>
<g id="#121313ff">
<path fill="#121313" opacity="1.00" d=" M 37.76 67.03 C 38.34 65.26 39.78 64.00 41.07 62.74 C 42.93 62.47 44.83 62.56 46.70 62.68 C 47.48 64.66 49.08 66.71 48.22 68.94 C 47.61 71.29 45.22 72.36 43.36 73.56 C 39.78 73.82 36.61 70.65 37.76 67.03 Z" />
</g>
<g id="#9d622bff">
<path fill="#9d622b" opacity="1.00" d=" M 51.04 65.18 C 52.08 64.82 53.05 62.40 54.36 63.51 C 56.12 64.20 54.43 66.31 53.31 66.76 C 52.74 66.36 51.61 65.58 51.04 65.18 Z" />
</g>
<g id="#8f5725ff">
<path fill="#8f5725" opacity="1.00" d=" M 64.07 64.07 C 65.69 63.33 67.02 64.24 67.48 65.85 L 67.42 66.74 C 66.74 66.88 65.39 67.17 64.72 67.31 C 63.72 66.37 63.50 65.28 64.07 64.07 Z" />
</g>
<g id="#141414ff">
<path fill="#141414" opacity="1.00" d=" M 70.76 69.12 C 71.68 67.08 72.80 65.07 74.74 63.83 C 77.05 63.78 79.75 63.63 81.42 65.54 C 83.00 66.91 82.75 69.17 82.77 71.05 C 81.15 73.73 78.30 75.20 75.20 75.21 C 72.59 74.22 71.02 71.85 70.76 69.12 Z" />
</g>
<g id="#8c8d89ff">
<path fill="#8c8d89" opacity="1.00" d=" M 83.72 63.32 C 85.68 65.44 85.86 68.37 86.20 71.09 C 83.23 75.29 78.38 79.42 72.87 77.27 C 73.65 76.58 74.42 75.89 75.20 75.21 C 78.30 75.20 81.15 73.73 82.77 71.05 C 82.87 70.85 83.07 70.45 83.17 70.26 C 83.43 67.95 83.53 65.63 83.72 63.32 Z" />
</g>
<g id="#cc7b37ff">
<path fill="#cc7b37" opacity="1.00" d=" M 114.17 64.41 C 114.73 64.50 115.84 64.70 116.39 64.80 C 118.67 68.40 120.52 72.38 123.68 75.33 C 125.25 77.02 127.40 78.50 127.83 80.93 C 128.68 85.01 130.23 89.02 130.08 93.25 C 126.90 89.90 125.08 85.49 121.68 82.33 C 119.35 80.15 116.89 78.10 114.62 75.85 C 114.36 76.25 113.84 77.05 113.58 77.45 C 112.46 79.22 111.48 81.08 110.44 82.90 C 104.58 87.93 98.78 93.35 91.76 96.74 C 87.56 97.74 85.75 102.38 81.62 103.57 L 82.12 102.55 C 83.45 99.83 84.95 97.21 86.56 94.65 C 89.15 90.28 93.90 87.96 97.21 84.23 C 103.12 77.83 107.27 69.91 114.17 64.41 Z" />
</g>
<g id="#c8c8d3ff">
<path fill="#c8c8d3" opacity="1.00" d=" M 35.36 73.48 C 36.26 71.37 37.00 69.19 37.76 67.03 C 36.61 70.65 39.78 73.82 43.36 73.56 C 43.35 73.81 43.34 74.31 43.34 74.56 C 42.96 74.90 42.22 75.59 41.85 75.94 C 41.16 75.90 39.78 75.82 39.09 75.78 C 38.12 75.37 37.17 74.91 36.23 74.43 C 36.01 74.19 35.57 73.71 35.36 73.48 Z" />
</g>
<g id="#e88c3bff">
<path fill="#e88c3b" opacity="1.00" d=" M 64.72 67.31 C 65.39 67.17 66.74 66.88 67.42 66.74 C 67.21 68.85 67.42 70.98 68.17 72.97 C 68.85 73.88 69.59 74.74 70.36 75.59 C 69.48 76.23 68.62 76.88 67.74 77.53 C 64.79 72.65 58.54 72.30 53.51 73.30 C 51.73 73.49 49.94 73.48 48.16 73.39 C 49.04 71.78 49.89 70.15 50.63 68.47 C 51.64 68.40 52.65 68.35 53.67 68.29 C 54.76 70.90 56.75 72.55 59.73 72.07 C 61.30 70.39 62.91 68.75 64.72 67.31 Z" />
</g>
<g id="#c3d2d2ff">
<path fill="#c3d2d2" opacity="1.00" d=" M 68.17 72.97 C 69.06 71.71 69.96 70.45 70.76 69.12 C 71.02 71.85 72.59 74.22 75.20 75.21 C 74.42 75.89 73.65 76.58 72.87 77.27 C 72.02 76.74 71.18 76.18 70.36 75.59 C 69.59 74.74 68.85 73.88 68.17 72.97 Z" />
</g>
<g id="#9e5524ff">
<path fill="#9e5524" opacity="1.00" d=" M 72.87 77.27 C 78.38 79.42 83.23 75.29 86.20 71.09 C 83.99 76.11 82.83 81.54 82.46 87.00 C 79.36 88.11 76.29 89.32 73.09 90.13 C 70.64 90.39 68.18 90.53 65.72 90.44 C 64.55 89.99 63.37 89.54 62.20 89.11 C 63.17 87.86 64.16 86.63 65.14 85.39 C 64.76 85.15 63.98 84.67 63.59 84.43 C 64.88 83.34 66.18 82.28 67.49 81.23 C 65.39 81.55 63.30 81.92 61.20 82.23 C 60.79 82.19 59.98 82.10 59.57 82.06 C 61.64 80.58 64.24 79.16 64.83 76.46 C 61.78 73.11 56.92 73.60 52.84 73.83 L 53.51 73.30 C 58.54 72.30 64.79 72.65 67.74 77.53 C 68.62 76.88 69.48 76.23 70.36 75.59 C 71.18 76.18 72.02 76.74 72.87 77.27 Z" />
</g>
<g id="#cb7831ff">
<path fill="#cb7831" opacity="1.00" d=" M 41.85 75.94 C 44.22 75.92 46.34 74.82 48.16 73.39 C 49.94 73.48 51.73 73.49 53.51 73.30 L 52.84 73.83 C 51.35 75.63 50.42 77.79 50.28 80.13 C 49.98 80.43 49.38 81.04 49.09 81.35 C 50.04 83.83 51.07 86.28 52.20 88.69 C 47.43 87.24 43.66 83.81 41.10 79.61 C 40.52 82.49 39.98 85.37 39.36 88.24 C 37.55 86.99 38.12 84.49 37.60 82.63 C 37.26 82.90 36.57 83.46 36.23 83.73 C 36.28 83.58 36.39 83.27 36.44 83.12 C 37.30 80.67 38.19 78.22 39.09 75.78 C 39.78 75.82 41.16 75.90 41.85 75.94 Z" />
</g>
<g id="#f89841ff">
<path fill="#f89841" opacity="1.00" d=" M 52.84 73.83 C 56.92 73.60 61.78 73.11 64.83 76.46 C 64.24 79.16 61.64 80.58 59.57 82.06 C 57.06 81.80 54.54 81.67 52.07 81.20 C 51.62 80.93 50.72 80.39 50.28 80.13 C 50.42 77.79 51.35 75.63 52.84 73.83 Z" />
</g>
<g id="#ab5e27ff">
<path fill="#ab5e27" opacity="1.00" d=" M 36.23 74.43 C 37.17 74.91 38.12 75.37 39.09 75.78 C 38.19 78.22 37.30 80.67 36.44 83.12 C 36.39 83.27 36.28 83.58 36.23 83.73 C 35.07 88.51 31.33 91.85 29.00 96.00 C 30.54 88.54 33.95 81.66 36.23 74.43 Z" />
</g>
<g id="#db8438ff">
<path fill="#db8438" opacity="1.00" d=" M 110.44 82.90 C 111.48 81.08 112.46 79.22 113.58 77.45 C 119.14 82.67 119.81 90.51 121.03 97.61 C 116.80 93.26 114.44 87.47 110.44 82.90 Z" />
</g>
<g id="#cba275ff">
<path fill="#cba275" opacity="1.00" d=" M 49.09 81.35 C 49.38 81.04 49.98 80.43 50.28 80.13 C 50.72 80.39 51.62 80.93 52.07 81.20 C 52.34 81.50 52.88 82.12 53.15 82.43 C 54.05 84.48 54.90 86.55 55.83 88.58 C 55.15 88.69 53.81 88.89 53.14 89.00 L 52.40 89.11 L 52.20 88.69 C 51.07 86.28 50.04 83.83 49.09 81.35 Z" />
</g>
<g id="#2c2220ff">
<path fill="#2c2220" opacity="1.00" d=" M 52.07 81.20 C 54.54 81.67 57.06 81.80 59.57 82.06 C 59.98 82.10 60.79 82.19 61.20 82.23 L 60.38 83.05 C 59.90 84.62 59.58 86.23 59.30 87.84 C 59.52 87.98 59.95 88.24 60.16 88.38 C 59.09 88.54 56.94 88.85 55.86 89.01 C 58.93 90.48 62.41 90.31 65.72 90.44 C 68.18 90.53 70.64 90.39 73.09 90.13 C 68.10 91.08 62.99 90.67 57.94 90.72 C 56.16 90.80 54.71 89.64 53.14 89.00 C 53.81 88.89 55.15 88.69 55.83 88.58 C 54.90 86.55 54.05 84.48 53.15 82.43 C 52.88 82.12 52.34 81.50 52.07 81.20 Z" />
</g>
<g id="#a6846aff">
<path fill="#a6846a" opacity="1.00" d=" M 61.20 82.23 C 63.30 81.92 65.39 81.55 67.49 81.23 C 66.18 82.28 64.88 83.34 63.59 84.43 C 63.98 84.67 64.76 85.15 65.14 85.39 C 64.16 86.63 63.17 87.86 62.20 89.11 C 61.69 88.93 60.67 88.56 60.16 88.38 C 59.95 88.24 59.52 87.98 59.30 87.84 C 59.58 86.23 59.90 84.62 60.38 83.05 L 61.20 82.23 Z" />
</g>
<g id="#b86c3eff">
<path fill="#b86c3e" opacity="1.00" d=" M 65.72 90.44 C 62.41 90.31 58.93 90.48 55.86 89.01 C 56.94 88.85 59.09 88.54 60.16 88.38 C 60.67 88.56 61.69 88.93 62.20 89.11 C 63.37 89.54 64.55 89.99 65.72 90.44 Z" />
</g>
</svg>
