<?xml version="1.0" encoding="UTF-8" ?>
<!DOCTYPE svg PUBLIC "-//W3C//DTD SVG 1.1//EN" "http://www.w3.org/Graphics/SVG/1.1/DTD/svg11.dtd">
<svg width="179pt" height="171pt" viewBox="0 0 179 171" version="1.1" xmlns="http://www.w3.org/2000/svg">
<g id="#f6b4bbfa">
<path fill="#f6b4bb" opacity="0.98" d=" M 80.31 22.27 C 88.00 12.30 100.47 6.77 112.92 7.16 C 119.84 9.05 127.39 10.69 132.16 16.50 C 129.10 18.04 127.72 13.62 124.80 13.47 C 122.37 13.27 120.37 12.05 118.65 10.40 C 111.64 9.61 104.65 12.77 99.84 17.75 C 95.57 18.53 91.22 19.01 88.51 22.77 C 86.00 24.40 83.59 26.19 81.47 28.30 C 78.63 36.12 72.83 42.32 66.96 47.96 C 65.18 49.12 64.73 53.64 62.19 52.09 L 61.91 51.32 C 67.64 41.49 73.49 31.48 80.31 22.27 Z" />
</g>
<g id="#ed98b0fe">
<path fill="#ed98b0" opacity="1.00" d=" M 99.84 17.75 C 104.65 12.77 111.64 9.61 118.65 10.40 C 120.37 12.05 122.37 13.27 124.80 13.47 C 127.72 13.62 129.10 18.04 132.16 16.50 C 138.51 20.72 141.85 29.42 144.09 36.94 C 142.59 36.05 141.18 35.01 139.93 33.80 C 136.49 30.19 131.61 26.20 126.36 27.43 C 122.54 29.34 118.10 28.96 113.98 29.01 C 113.89 25.61 114.83 22.34 115.03 18.97 C 112.38 19.60 109.84 20.59 107.21 21.26 C 104.84 19.91 102.67 17.99 99.84 17.75 Z" />
</g>
<g id="#fec427ff">
<path fill="#fec427" opacity="1.00" d=" M 88.51 22.77 C 91.22 19.01 95.57 18.53 99.84 17.75 C 102.67 17.99 104.84 19.91 107.21 21.26 C 107.16 23.62 105.57 25.71 103.28 26.32 C 99.86 26.19 96.46 26.01 93.04 26.04 C 90.58 26.58 89.11 25.02 88.51 22.77 Z" />
</g>
<g id="#e08faeff">
<path fill="#e08fae" opacity="1.00" d=" M 107.21 21.26 C 109.84 20.59 112.38 19.60 115.03 18.97 C 114.83 22.34 113.89 25.61 113.98 29.01 C 118.10 28.96 122.54 29.34 126.36 27.43 C 131.61 26.20 136.49 30.19 139.93 33.80 C 138.16 33.99 136.95 35.43 136.61 37.10 C 135.02 32.89 129.36 31.05 126.10 34.21 C 125.92 36.58 126.69 38.88 126.88 41.22 C 124.95 40.92 123.03 40.57 121.11 40.27 C 120.29 38.88 119.64 37.41 118.78 36.06 C 116.51 35.58 115.60 38.22 114.74 39.80 C 113.71 42.56 111.66 44.94 111.03 47.83 C 113.37 49.58 116.23 50.36 119.03 51.01 C 117.54 52.28 116.84 54.12 115.85 55.76 C 110.42 56.02 106.16 52.78 101.68 50.34 C 98.68 48.66 94.46 51.90 97.13 55.75 C 99.10 58.22 102.36 58.69 104.99 60.15 C 105.49 63.74 101.14 63.51 99.86 60.96 C 97.49 62.48 95.79 64.89 93.83 66.91 C 92.64 66.90 91.45 66.87 90.26 66.83 C 86.64 63.38 80.51 63.01 76.12 65.20 C 76.17 67.82 76.79 70.35 76.94 72.97 C 70.94 74.37 64.17 77.09 58.30 73.69 C 55.67 71.85 53.13 74.71 51.71 76.74 C 50.23 77.00 47.27 77.54 45.79 77.80 C 44.02 77.87 43.67 79.73 42.88 80.95 C 40.25 79.90 37.48 80.04 34.84 80.93 C 36.43 79.15 37.75 77.14 39.35 75.37 C 46.78 75.06 52.66 70.20 59.06 67.04 C 62.18 65.23 65.78 63.94 68.28 61.23 C 66.69 61.15 63.50 60.98 61.91 60.90 C 63.52 57.59 66.90 55.69 69.99 53.96 C 73.76 54.05 77.51 53.82 81.24 53.30 C 84.02 53.05 87.97 52.03 88.81 49.16 C 86.49 46.41 82.48 46.14 79.12 46.32 C 78.08 43.66 82.45 40.01 84.76 37.74 C 86.76 35.34 88.06 40.26 90.37 39.52 C 97.54 40.58 103.69 37.68 109.02 33.27 C 105.42 31.38 99.11 31.71 97.79 27.14 C 99.63 26.99 101.56 27.11 103.28 26.32 C 105.57 25.71 107.16 23.62 107.21 21.26 Z" />
</g>
<g id="#f8a5b1fd">
<path fill="#f8a5b1" opacity="1.00" d=" M 81.47 28.30 C 83.59 26.19 86.00 24.40 88.51 22.77 C 89.11 25.02 90.58 26.58 93.04 26.04 L 92.97 26.93 C 90.04 30.25 86.27 32.60 82.20 34.28 C 78.54 37.68 76.24 42.31 74.31 46.86 L 75.04 47.40 C 73.37 48.09 71.73 48.85 70.10 49.61 C 60.66 56.00 53.65 66.80 42.03 70.16 C 42.26 69.59 42.71 68.45 42.94 67.88 C 48.55 64.20 53.61 58.72 59.29 55.03 C 60.96 55.07 62.17 53.71 62.19 52.09 C 64.73 53.64 65.18 49.12 66.96 47.96 C 72.83 42.32 78.63 36.12 81.47 28.30 Z" />
</g>
<g id="#f3aa69ff">
<path fill="#f3aa69" opacity="1.00" d=" M 93.04 26.04 C 96.46 26.01 99.86 26.19 103.28 26.32 C 101.56 27.11 99.63 26.99 97.79 27.14 C 96.18 27.05 94.58 26.98 92.97 26.93 L 93.04 26.04 Z" />
</g>
<g id="#ea95b1ff">
<path fill="#ea95b1" opacity="1.00" d=" M 82.20 34.28 C 86.27 32.60 90.04 30.25 92.97 26.93 C 94.58 26.98 96.18 27.05 97.79 27.14 C 99.11 31.71 105.42 31.38 109.02 33.27 C 103.69 37.68 97.54 40.58 90.37 39.52 C 88.06 40.26 86.76 35.34 84.76 37.74 C 82.45 40.01 78.08 43.66 79.12 46.32 C 77.77 46.72 76.41 47.05 75.04 47.40 L 74.31 46.86 C 76.24 42.31 78.54 37.68 82.20 34.28 Z" />
</g>
<g id="#d385a3ff">
<path fill="#d385a3" opacity="1.00" d=" M 126.10 34.21 C 129.36 31.05 135.02 32.89 136.61 37.10 C 138.61 40.10 140.91 43.54 144.80 44.06 C 144.87 43.57 145.01 42.57 145.09 42.08 C 147.09 41.89 145.62 45.67 146.08 47.09 C 145.97 50.88 144.40 54.04 140.28 54.35 C 140.63 59.91 140.84 65.49 141.56 71.02 C 141.23 73.11 141.40 75.76 139.39 77.04 C 136.50 73.05 131.24 73.99 126.92 74.05 C 126.80 75.45 127.63 76.49 128.77 77.19 C 129.98 78.21 131.72 77.91 133.18 78.23 C 132.83 82.40 127.36 79.00 125.32 77.69 C 119.35 75.95 113.09 78.52 107.00 77.95 C 103.25 76.83 100.04 78.12 97.58 80.66 C 87.11 81.56 76.60 80.92 66.16 79.98 L 65.40 79.80 C 63.53 78.62 61.46 77.86 59.24 77.72 C 56.73 77.37 54.22 77.04 51.71 76.74 C 53.13 74.71 55.67 71.85 58.30 73.69 C 64.17 77.09 70.94 74.37 76.94 72.97 C 76.79 70.35 76.17 67.82 76.12 65.20 C 80.51 63.01 86.64 63.38 90.26 66.83 C 87.24 66.91 84.22 66.77 81.23 67.18 C 79.47 68.08 79.99 70.21 80.07 71.82 C 82.81 74.03 86.75 73.51 89.96 74.33 C 92.35 75.72 94.71 75.85 97.04 74.74 C 98.62 74.91 100.20 75.07 101.78 75.23 C 105.28 76.13 108.77 76.15 112.25 75.28 C 116.54 74.74 115.14 69.93 111.79 69.08 C 116.79 65.70 122.42 69.37 127.84 68.95 C 132.11 61.87 122.72 57.87 122.71 51.16 C 121.49 51.06 120.26 51.01 119.03 51.01 C 116.23 50.36 113.37 49.58 111.03 47.83 C 111.66 44.94 113.71 42.56 114.74 39.80 C 115.60 38.22 116.51 35.58 118.78 36.06 C 119.64 37.41 120.29 38.88 121.11 40.27 C 118.94 41.29 115.14 41.22 118.08 45.85 C 124.89 46.61 131.09 50.10 138.01 50.03 C 139.60 43.21 131.52 42.26 126.88 41.22 C 126.69 38.88 125.92 36.58 126.10 34.21 Z" />
</g>
<g id="#f2af32fc">
<path fill="#f2af32" opacity="1.00" d=" M 136.61 37.10 C 136.95 35.43 138.16 33.99 139.93 33.80 C 141.18 35.01 142.59 36.05 144.09 36.94 C 145.74 37.92 144.80 40.46 145.09 42.08 C 145.01 42.57 144.87 43.57 144.80 44.06 C 140.91 43.54 138.61 40.10 136.61 37.10 Z" />
</g>
<g id="#f2ae25ff">
<path fill="#f2ae25" opacity="1.00" d=" M 121.11 40.27 C 123.03 40.57 124.95 40.92 126.88 41.22 C 131.52 42.26 139.60 43.21 138.01 50.03 C 131.09 50.10 124.89 46.61 118.08 45.85 C 115.14 41.22 118.94 41.29 121.11 40.27 Z" />
</g>
<g id="#fdbb27ff">
<path fill="#fdbb27" opacity="1.00" d=" M 79.12 46.32 C 82.48 46.14 86.49 46.41 88.81 49.16 C 87.97 52.03 84.02 53.05 81.24 53.30 C 77.38 53.13 73.53 52.91 69.67 53.18 C 68.71 52.01 69.66 50.77 70.10 49.61 C 71.73 48.85 73.37 48.09 75.04 47.40 C 76.41 47.05 77.77 46.72 79.12 46.32 Z" />
</g>
<g id="#c37b98fe">
<path fill="#c37b98" opacity="1.00" d=" M 146.08 47.09 L 146.94 46.98 C 146.93 60.04 153.92 72.76 163.22 81.16 C 162.89 81.40 162.22 81.89 161.89 82.13 C 158.46 81.16 154.78 80.55 151.25 81.23 C 148.96 82.19 151.55 84.47 151.83 86.06 C 151.37 86.32 150.44 86.85 149.97 87.11 C 149.57 86.81 148.78 86.21 148.39 85.91 C 144.08 83.86 139.09 85.78 134.49 86.00 C 130.19 83.84 125.23 84.46 120.65 83.40 C 118.50 82.58 116.67 84.32 114.86 85.19 C 112.96 85.06 111.18 84.43 109.50 83.58 C 102.35 82.00 95.18 84.56 87.99 83.96 C 80.68 83.28 73.36 82.74 66.06 81.91 C 66.08 81.43 66.13 80.47 66.16 79.98 C 76.60 80.92 87.11 81.56 97.58 80.66 C 100.04 78.12 103.25 76.83 107.00 77.95 C 113.09 78.52 119.35 75.95 125.32 77.69 C 127.36 79.00 132.83 82.40 133.18 78.23 C 134.73 77.93 137.83 77.34 139.39 77.04 C 141.40 75.76 141.23 73.11 141.56 71.02 C 140.84 65.49 140.63 59.91 140.28 54.35 C 144.40 54.04 145.97 50.88 146.08 47.09 Z" />
</g>
<g id="#ed99b1fe">
<path fill="#ed99b1" opacity="1.00" d=" M 42.03 70.16 C 53.65 66.80 60.66 56.00 70.10 49.61 C 69.66 50.77 68.71 52.01 69.67 53.18 L 69.99 53.96 C 66.90 55.69 63.52 57.59 61.91 60.90 C 63.50 60.98 66.69 61.15 68.28 61.23 C 65.78 63.94 62.18 65.23 59.06 67.04 C 52.66 70.20 46.78 75.06 39.35 75.37 C 37.75 77.14 36.43 79.15 34.84 80.93 L 33.97 81.14 C 33.15 80.14 32.34 79.14 31.66 78.05 C 32.40 75.41 34.63 73.29 36.98 72.08 C 38.70 71.53 40.37 70.85 42.03 70.16 Z" />
</g>
<g id="#d98aabff">
<path fill="#d98aab" opacity="1.00" d=" M 97.13 55.75 C 94.46 51.90 98.68 48.66 101.68 50.34 C 106.16 52.78 110.42 56.02 115.85 55.76 C 116.84 54.12 117.54 52.28 119.03 51.01 C 120.26 51.01 121.49 51.06 122.71 51.16 C 122.72 57.87 132.11 61.87 127.84 68.95 C 122.42 69.37 116.79 65.70 111.79 69.08 C 105.76 68.76 99.85 67.39 93.83 66.91 C 95.79 64.89 97.49 62.48 99.86 60.96 C 101.14 63.51 105.49 63.74 104.99 60.15 C 102.36 58.69 99.10 58.22 97.13 55.75 Z" />
</g>
<g id="#e8da4df4">
<path fill="#e8da4d" opacity="0.96" d=" M 59.29 55.03 C 59.20 53.69 60.17 50.89 61.91 51.32 L 62.19 52.09 C 62.17 53.71 60.96 55.07 59.29 55.03 Z" />
</g>
<g id="#f2a76aff">
<path fill="#f2a76a" opacity="1.00" d=" M 69.67 53.18 C 73.53 52.91 77.38 53.13 81.24 53.30 C 77.51 53.82 73.76 54.05 69.99 53.96 L 69.67 53.18 Z" />
</g>
<g id="#f0ad24ff">
<path fill="#f0ad24" opacity="1.00" d=" M 81.23 67.18 C 84.22 66.77 87.24 66.91 90.26 66.83 C 91.45 66.87 92.64 66.90 93.83 66.91 C 99.85 67.39 105.76 68.76 111.79 69.08 C 115.14 69.93 116.54 74.74 112.25 75.28 C 108.76 75.16 105.27 74.99 101.78 75.23 C 100.20 75.07 98.62 74.91 97.04 74.74 C 94.67 73.23 92.31 73.09 89.96 74.33 C 86.75 73.51 82.81 74.03 80.07 71.82 C 79.99 70.21 79.47 68.08 81.23 67.18 Z" />
</g>
<g id="#efcc42f4">
<path fill="#efcc42" opacity="0.96" d=" M 36.98 72.08 C 38.05 69.95 40.70 68.61 42.94 67.88 C 42.71 68.45 42.26 69.59 42.03 70.16 C 40.37 70.85 38.70 71.53 36.98 72.08 Z" />
</g>
<g id="#e19967ff">
<path fill="#e19967" opacity="1.00" d=" M 89.96 74.33 C 92.31 73.09 94.67 73.23 97.04 74.74 C 94.71 75.85 92.35 75.72 89.96 74.33 Z" />
</g>
<g id="#e5a621ff">
<path fill="#e5a621" opacity="1.00" d=" M 126.92 74.05 C 131.24 73.99 136.50 73.05 139.39 77.04 C 135.84 77.03 132.31 77.02 128.77 77.19 C 127.63 76.49 126.80 75.45 126.92 74.05 Z" />
</g>
<g id="#dc9467ff">
<path fill="#dc9467" opacity="1.00" d=" M 101.78 75.23 C 105.27 74.99 108.76 75.16 112.25 75.28 C 108.77 76.15 105.28 76.13 101.78 75.23 Z" />
</g>
<g id="#e09574ff">
<path fill="#e09574" opacity="1.00" d=" M 45.79 77.80 C 47.27 77.54 50.23 77.00 51.71 76.74 C 54.22 77.04 56.73 77.37 59.24 77.72 C 54.76 77.86 50.27 77.88 45.79 77.80 Z" />
</g>
<g id="#d79457ff">
<path fill="#d79457" opacity="1.00" d=" M 128.77 77.19 C 132.31 77.02 135.84 77.03 139.39 77.04 C 137.83 77.34 134.73 77.93 133.18 78.23 C 131.72 77.91 129.98 78.21 128.77 77.19 Z" />
</g>
<g id="#e5d753f0">
<path fill="#e5d753" opacity="0.94" d=" M 11.12 88.08 C 13.14 82.97 17.09 77.47 23.18 78.08 C 21.57 81.02 16.76 80.06 16.77 83.80 C 16.39 85.55 13.34 85.01 13.06 87.06 C 10.42 93.00 9.89 99.56 9.95 106.00 L 9.00 105.99 C 8.91 99.91 8.00 93.57 11.12 88.08 Z" />
</g>
<g id="#fcc150fe">
<path fill="#fcc150" opacity="1.00" d=" M 23.18 78.08 C 23.93 78.07 25.43 78.07 26.17 78.06 C 24.14 80.09 20.96 81.49 20.58 84.64 C 18.37 98.01 22.64 111.19 26.22 123.91 C 26.96 125.81 26.05 127.78 26.33 129.70 C 29.48 136.76 36.02 142.01 43.09 144.89 C 44.39 145.91 48.42 146.17 47.29 148.34 C 42.98 147.78 38.86 146.38 34.92 144.62 C 31.11 143.13 27.71 140.84 24.18 138.82 C 17.23 129.15 9.18 118.61 9.95 106.00 C 9.89 99.56 10.42 93.00 13.06 87.06 C 13.34 85.01 16.39 85.55 16.77 83.80 C 16.76 80.06 21.57 81.02 23.18 78.08 Z" />
</g>
<g id="#feb34bff">
<path fill="#feb34b" opacity="1.00" d=" M 26.17 78.06 C 27.56 77.82 29.10 77.94 29.94 79.22 C 28.35 102.01 38.34 123.80 50.24 142.70 C 51.05 144.83 51.38 147.18 53.06 148.87 C 51.62 148.73 48.73 148.47 47.29 148.34 C 48.42 146.17 44.39 145.91 43.09 144.89 C 36.02 142.01 29.48 136.76 26.33 129.70 C 26.05 127.78 26.96 125.81 26.22 123.91 C 22.64 111.19 18.37 98.01 20.58 84.64 C 20.96 81.49 24.14 80.09 26.17 78.06 Z" />
</g>
<g id="#ed9a43fe">
<path fill="#ed9a43" opacity="1.00" d=" M 29.94 79.22 C 30.37 78.92 31.23 78.34 31.66 78.05 C 32.34 79.14 33.15 80.14 33.97 81.14 C 34.65 82.02 35.34 82.89 36.02 83.77 C 34.02 96.42 37.69 109.01 42.47 120.63 C 44.98 126.02 45.17 132.36 48.90 137.18 C 50.79 139.85 51.65 143.95 54.96 145.14 C 56.54 145.93 59.73 146.35 58.87 148.81 C 57.45 150.64 54.98 148.66 53.06 148.87 C 51.38 147.18 51.05 144.83 50.24 142.70 C 38.34 123.80 28.35 102.01 29.94 79.22 Z" />
</g>
<g id="#eba422ff">
<path fill="#eba422" opacity="1.00" d=" M 42.88 80.95 C 43.67 79.73 44.02 77.87 45.79 77.80 C 50.27 77.88 54.76 77.86 59.24 77.72 C 61.46 77.86 63.53 78.62 65.40 79.80 C 65.22 80.27 64.86 81.20 64.68 81.67 C 57.97 81.67 51.55 83.98 44.88 84.29 L 44.15 84.08 C 43.75 83.02 43.32 81.98 42.88 80.95 Z" />
</g>
<g id="#d7839eff">
<path fill="#d7839e" opacity="1.00" d=" M 34.84 80.93 C 37.48 80.04 40.25 79.90 42.88 80.95 C 43.32 81.98 43.75 83.02 44.15 84.08 C 42.09 84.82 39.92 85.10 37.75 85.34 C 37.32 84.94 36.45 84.16 36.02 83.77 C 35.34 82.89 34.65 82.02 33.97 81.14 L 34.84 80.93 Z" />
</g>
<g id="#d99222ff">
<path fill="#d99222" opacity="1.00" d=" M 65.40 79.80 L 66.16 79.98 C 66.13 80.47 66.08 81.43 66.06 81.91 C 66.02 82.40 65.94 83.38 65.89 83.87 C 65.59 84.25 64.98 85.00 64.68 85.38 C 63.20 85.73 61.72 86.03 60.23 86.26 C 55.85 86.33 51.50 85.96 47.22 85.06 C 46.63 84.86 45.46 84.48 44.88 84.29 C 51.55 83.98 57.97 81.67 64.68 81.67 C 64.86 81.20 65.22 80.27 65.40 79.80 Z" />
</g>
<g id="#c6911fff">
<path fill="#c6911f" opacity="1.00" d=" M 151.25 81.23 C 154.78 80.55 158.46 81.16 161.89 82.13 C 164.35 85.10 168.45 87.73 167.99 92.11 C 162.38 91.22 155.45 91.10 151.83 86.06 C 151.55 84.47 148.96 82.19 151.25 81.23 Z" />
</g>
<g id="#a57a96f9">
<path fill="#a57a96" opacity="0.98" d=" M 163.22 81.16 C 168.10 84.89 172.35 91.61 172.29 98.30 C 171.15 98.60 169.99 98.82 168.83 98.98 C 168.54 97.30 168.32 95.62 168.12 93.94 C 168.09 93.48 168.03 92.57 167.99 92.11 C 168.45 87.73 164.35 85.10 161.89 82.13 C 162.22 81.89 162.89 81.40 163.22 81.16 Z" />
</g>
<g id="#bc7193ff">
<path fill="#bc7193" opacity="1.00" d=" M 66.06 81.91 C 73.36 82.74 80.68 83.28 87.99 83.96 C 95.18 84.56 102.35 82.00 109.50 83.58 C 111.18 84.43 112.96 85.06 114.86 85.19 C 115.00 85.66 115.28 86.61 115.41 87.08 C 112.33 88.25 109.18 88.49 106.51 86.56 C 92.98 85.56 79.45 84.54 65.89 83.87 C 65.94 83.38 66.02 82.40 66.06 81.91 Z" />
</g>
<g id="#cd8f23ff">
<path fill="#cd8f23" opacity="1.00" d=" M 114.86 85.19 C 116.67 84.32 118.50 82.58 120.65 83.40 C 125.23 84.46 130.19 83.84 134.49 86.00 C 131.86 87.91 129.15 89.72 126.31 91.31 C 123.70 90.49 120.97 90.22 118.27 89.95 C 117.34 88.97 116.40 88.01 115.41 87.08 C 115.28 86.61 115.00 85.66 114.86 85.19 Z" />
</g>
<g id="#d7883cff">
<path fill="#d7883c" opacity="1.00" d=" M 36.02 83.77 C 36.45 84.16 37.32 84.94 37.75 85.34 C 38.36 86.34 39.01 87.32 39.69 88.28 C 40.16 89.16 40.64 90.03 41.13 90.90 C 41.10 95.60 40.46 100.27 40.40 104.96 C 42.13 115.95 47.83 126.12 48.90 137.18 C 45.17 132.36 44.98 126.02 42.47 120.63 C 37.69 109.01 34.02 96.42 36.02 83.77 Z" />
</g>
<g id="#c77795ff">
<path fill="#c77795" opacity="1.00" d=" M 37.75 85.34 C 39.92 85.10 42.09 84.82 44.15 84.08 L 44.88 84.29 C 45.46 84.48 46.63 84.86 47.22 85.06 C 46.92 87.71 43.75 87.80 41.73 88.35 C 41.22 88.34 40.20 88.30 39.69 88.28 C 39.01 87.32 38.36 86.34 37.75 85.34 Z" />
</g>
<g id="#b1688aff">
<path fill="#b1688a" opacity="1.00" d=" M 64.68 85.38 C 64.98 85.00 65.59 84.25 65.89 83.87 C 79.45 84.54 92.98 85.56 106.51 86.56 C 109.18 88.49 112.33 88.25 115.41 87.08 C 116.40 88.01 117.34 88.97 118.27 89.95 C 113.27 92.12 108.42 89.66 103.60 88.55 C 90.70 86.64 77.58 86.84 64.68 85.38 Z" />
</g>
<g id="#b96d81ff">
<path fill="#b96d81" opacity="1.00" d=" M 47.22 85.06 C 51.50 85.96 55.85 86.33 60.23 86.26 C 54.99 86.84 49.80 87.92 44.87 89.81 C 43.60 90.50 42.72 88.86 41.73 88.35 C 43.75 87.80 46.92 87.71 47.22 85.06 Z" />
</g>
<g id="#a86080ff">
<path fill="#a86080" opacity="1.00" d=" M 60.23 86.26 C 61.72 86.03 63.20 85.73 64.68 85.38 C 77.58 86.84 90.70 86.64 103.60 88.55 C 108.42 89.66 113.27 92.12 118.27 89.95 C 120.97 90.22 123.70 90.49 126.31 91.31 C 125.29 92.13 124.28 92.96 123.21 93.71 C 121.57 93.44 119.91 93.30 118.25 93.20 C 110.58 93.81 103.65 89.81 96.02 89.87 C 78.35 87.12 59.80 86.28 42.95 93.18 C 42.32 92.43 41.71 91.68 41.13 90.90 C 40.64 90.03 40.16 89.16 39.69 88.28 C 40.20 88.30 41.22 88.34 41.73 88.35 C 42.72 88.86 43.60 90.50 44.87 89.81 C 49.80 87.92 54.99 86.84 60.23 86.26 Z" />
</g>
<g id="#fdb74cff">
<path fill="#fdb74c" opacity="1.00" d=" M 134.49 86.00 C 139.09 85.78 144.08 83.86 148.39 85.91 C 147.02 89.50 142.18 90.55 141.83 94.93 C 134.20 116.19 118.63 133.27 102.04 148.05 C 100.14 149.91 97.53 150.14 95.01 150.12 C 95.82 142.20 98.39 134.57 101.38 127.24 C 101.68 126.19 101.92 125.12 102.10 124.05 C 102.69 122.67 103.32 121.31 103.98 119.97 C 104.63 119.00 105.31 118.06 105.90 117.05 C 106.81 115.51 107.55 113.87 108.27 112.23 C 110.70 108.11 113.45 104.18 116.12 100.22 C 116.44 99.89 117.07 99.23 117.39 98.90 C 119.32 97.16 121.24 95.40 123.21 93.71 C 124.28 92.96 125.29 92.13 126.31 91.31 C 129.15 89.72 131.86 87.91 134.49 86.00 Z" />
</g>
<g id="#f4a247ff">
<path fill="#f4a247" opacity="1.00" d=" M 148.39 85.91 C 148.78 86.21 149.57 86.81 149.97 87.11 C 150.79 88.24 151.65 89.36 152.27 90.62 C 144.37 94.91 143.28 104.84 138.91 111.94 C 129.56 127.31 117.33 141.33 101.93 150.90 C 99.06 152.58 95.64 153.01 92.59 154.25 C 91.97 154.30 91.35 154.35 90.73 154.38 C 91.75 152.76 93.07 150.56 95.01 150.12 C 97.53 150.14 100.14 149.91 102.04 148.05 C 118.63 133.27 134.20 116.19 141.83 94.93 C 142.18 90.55 147.02 89.50 148.39 85.91 Z" />
</g>
<g id="#a96c7eff">
<path fill="#a96c7e" opacity="1.00" d=" M 149.97 87.11 C 150.44 86.85 151.37 86.32 151.83 86.06 C 155.45 91.10 162.38 91.22 167.99 92.11 C 168.03 92.57 168.09 93.48 168.12 93.94 C 163.24 91.70 158.50 94.68 153.86 95.79 L 153.09 96.03 C 152.93 94.22 153.28 92.23 152.27 90.62 C 151.65 89.36 150.79 88.24 149.97 87.11 Z" />
</g>
<g id="#9b5377ff">
<path fill="#9b5377" opacity="1.00" d=" M 42.95 93.18 C 59.80 86.28 78.35 87.12 96.02 89.87 C 103.65 89.81 110.58 93.81 118.25 93.20 C 117.31 98.18 112.08 94.65 108.90 94.13 C 94.56 90.81 79.68 89.68 64.98 90.01 C 57.83 90.66 50.86 92.57 43.91 94.30 C 43.67 94.02 43.19 93.46 42.95 93.18 Z" />
</g>
<g id="#8e486cff">
<path fill="#8e486c" opacity="1.00" d=" M 43.91 94.30 C 50.86 92.57 57.83 90.66 64.98 90.01 C 79.68 89.68 94.56 90.81 108.90 94.13 C 112.08 94.65 117.31 98.18 118.25 93.20 C 119.91 93.30 121.57 93.44 123.21 93.71 C 121.24 95.40 119.32 97.16 117.39 98.90 C 103.23 93.67 87.96 92.27 73.02 91.10 C 66.01 92.68 58.40 91.74 51.76 94.76 C 50.22 95.07 47.13 95.68 45.59 95.99 L 44.85 96.30 L 44.07 95.98 C 44.03 95.56 43.95 94.72 43.91 94.30 Z" />
</g>
<g id="#b67133fb">
<path fill="#b67133" opacity="1.00" d=" M 41.13 90.90 C 41.71 91.68 42.32 92.43 42.95 93.18 C 43.19 93.46 43.67 94.02 43.91 94.30 C 43.95 94.72 44.03 95.56 44.07 95.98 C 44.02 97.65 43.94 99.32 43.91 101.00 L 43.91 102.07 C 43.94 103.46 44.07 104.88 44.71 106.15 C 45.55 108.29 46.34 110.46 47.17 112.61 C 46.67 112.75 45.66 113.04 45.15 113.18 C 45.79 116.89 46.78 120.52 47.69 124.17 C 50.33 131.09 51.15 138.65 54.96 145.14 C 51.65 143.95 50.79 139.85 48.90 137.18 C 47.83 126.12 42.13 115.95 40.40 104.96 C 40.46 100.27 41.10 95.60 41.13 90.90 Z" />
</g>
<g id="#813b61ff">
<path fill="#813b61" opacity="1.00" d=" M 51.76 94.76 C 58.40 91.74 66.01 92.68 73.02 91.10 C 87.96 92.27 103.23 93.67 117.39 98.90 C 114.56 98.99 111.73 99.06 108.91 99.10 L 108.14 98.96 C 106.89 98.42 105.59 98.01 104.29 97.62 C 89.85 94.22 74.56 91.73 59.78 94.62 C 57.10 94.72 54.43 94.77 51.76 94.76 Z" />
</g>
<g id="#de8f41ff">
<path fill="#de8f41" opacity="1.00" d=" M 138.91 111.94 C 143.28 104.84 144.37 94.91 152.27 90.62 C 153.28 92.23 152.93 94.22 153.09 96.03 C 146.68 103.53 144.02 113.25 138.07 121.07 C 129.77 131.71 120.72 141.91 109.39 149.44 C 104.50 152.15 98.39 155.90 92.59 154.25 C 95.64 153.01 99.06 152.58 101.93 150.90 C 117.33 141.33 129.56 127.31 138.91 111.94 Z" />
</g>
<g id="#743055ff">
<path fill="#743055" opacity="1.00" d=" M 59.78 94.62 C 74.56 91.73 89.85 94.22 104.29 97.62 C 102.82 97.82 101.36 97.99 99.89 98.13 L 99.10 98.01 C 96.04 97.20 92.90 96.77 89.76 97.19 C 88.77 97.26 87.80 97.39 86.84 97.56 C 84.67 96.80 82.51 95.94 80.21 95.62 C 74.49 94.81 68.56 94.50 62.84 95.51 L 62.11 95.61 C 61.53 95.37 60.36 94.87 59.78 94.62 Z" />
</g>
<g id="#99617dff">
<path fill="#99617d" opacity="1.00" d=" M 153.86 95.79 C 158.50 94.68 163.24 91.70 168.12 93.94 C 168.32 95.62 168.54 97.30 168.83 98.98 C 167.77 100.03 166.82 101.18 165.85 102.32 L 165.20 102.25 C 162.16 99.25 158.14 98.48 153.96 99.96 C 153.94 98.57 153.91 97.18 153.86 95.79 Z" />
</g>
<g id="#592944ff">
<path fill="#592944" opacity="1.00" d=" M 45.59 95.99 C 47.13 95.68 50.22 95.07 51.76 94.76 C 54.43 94.77 57.10 94.72 59.78 94.62 C 60.36 94.87 61.53 95.37 62.11 95.61 C 60.70 95.92 59.30 96.24 57.91 96.61 L 57.24 96.59 C 55.55 96.13 53.79 96.06 52.04 96.12 C 49.91 95.79 47.73 95.64 45.59 95.99 Z" />
</g>
<g id="#551e3cff">
<path fill="#551e3c" opacity="1.00" d=" M 62.84 95.51 C 68.56 94.50 74.49 94.81 80.21 95.62 C 79.61 95.90 78.40 96.45 77.79 96.73 C 77.41 96.72 76.64 96.71 76.26 96.71 C 72.45 96.27 68.63 96.03 64.80 95.96 C 64.31 95.85 63.33 95.63 62.84 95.51 Z" />
</g>
<g id="#955320fb">
<path fill="#955320" opacity="1.00" d=" M 44.07 95.98 L 44.85 96.30 C 47.08 97.48 50.27 98.25 52.04 96.12 C 53.79 96.06 55.55 96.13 57.24 96.59 C 54.52 99.74 52.90 104.04 54.78 108.09 C 51.49 107.15 48.15 106.23 44.71 106.15 C 44.07 104.88 43.94 103.46 43.91 102.07 C 46.91 102.96 50.11 103.06 53.23 102.97 C 50.52 101.53 46.95 99.39 43.91 101.00 C 43.94 99.32 44.02 97.65 44.07 95.98 Z" />
</g>
<g id="#713d25ff">
<path fill="#713d25" opacity="1.00" d=" M 44.85 96.30 L 45.59 95.99 C 47.73 95.64 49.91 95.79 52.04 96.12 C 50.27 98.25 47.08 97.48 44.85 96.30 Z" />
</g>
<g id="#bdae98ff">
<path fill="#bdae98" opacity="1.00" d=" M 57.91 96.61 C 59.30 96.24 60.70 95.92 62.11 95.61 L 62.84 95.51 C 63.33 95.63 64.31 95.85 64.80 95.96 C 65.12 96.21 65.77 96.72 66.09 96.98 C 67.41 102.44 65.36 110.52 58.76 111.05 C 61.67 107.54 67.03 104.11 64.42 98.67 C 64.30 96.72 62.37 97.09 60.97 96.91 C 60.20 96.83 58.67 96.68 57.91 96.61 Z" />
</g>
<g id="#78320eff">
<path fill="#78320e" opacity="1.00" d=" M 64.80 95.96 C 68.63 96.03 72.45 96.27 76.26 96.71 C 74.78 99.56 72.50 102.41 73.18 105.83 C 73.54 108.10 71.36 107.53 69.91 107.75 C 69.66 104.79 71.27 100.73 68.26 98.80 C 67.57 98.15 66.85 97.55 66.09 96.98 C 65.77 96.72 65.12 96.21 64.80 95.96 Z" />
</g>
<g id="#c7b8a6ff">
<path fill="#c7b8a6" opacity="1.00" d=" M 77.79 96.73 C 78.40 96.45 79.61 95.90 80.21 95.62 C 82.51 95.94 84.67 96.80 86.84 97.56 C 87.26 103.83 83.78 110.65 76.91 111.19 C 76.45 110.92 75.53 110.36 75.07 110.08 L 74.73 109.23 C 79.59 108.99 85.42 105.59 85.00 100.08 C 84.28 96.83 80.48 96.81 77.79 96.73 Z" />
</g>
<g id="#c47a37fe">
<path fill="#c47a37" opacity="1.00" d=" M 153.09 96.03 L 153.86 95.79 C 153.91 97.18 153.94 98.57 153.96 99.96 L 153.77 100.85 C 153.00 106.76 149.38 111.57 146.58 116.63 C 140.07 127.33 132.56 137.94 122.12 145.14 C 118.80 148.21 114.46 150.15 111.64 153.73 C 111.42 154.00 110.98 154.54 110.76 154.81 C 103.35 156.73 95.69 158.25 87.99 158.00 C 87.44 155.80 88.50 154.39 90.73 154.38 C 91.35 154.35 91.97 154.30 92.59 154.25 C 98.39 155.90 104.50 152.15 109.39 149.44 C 120.72 141.91 129.77 131.71 138.07 121.07 C 144.02 113.25 146.68 103.53 153.09 96.03 Z" />
</g>
<g id="#f1ebcffe">
<path fill="#f1ebcf" opacity="1.00" d=" M 57.24 96.59 L 57.91 96.61 C 58.67 96.68 60.20 96.83 60.97 96.91 C 61.97 99.01 63.75 101.28 62.76 103.73 C 61.47 106.59 58.04 107.25 55.85 109.26 C 55.58 108.97 55.05 108.39 54.78 108.09 C 52.90 104.04 54.52 99.74 57.24 96.59 Z" />
</g>
<g id="#d4c9b7fe">
<path fill="#d4c9b7" opacity="1.00" d=" M 60.97 96.91 C 62.37 97.09 64.30 96.72 64.42 98.67 C 67.03 104.11 61.67 107.54 58.76 111.05 L 57.77 111.31 C 57.43 110.96 56.74 110.27 56.39 109.93 L 55.85 109.26 C 58.04 107.25 61.47 106.59 62.76 103.73 C 63.75 101.28 61.97 99.01 60.97 96.91 Z" />
</g>
<g id="#a38e7cff">
<path fill="#a38e7c" opacity="1.00" d=" M 66.09 96.98 C 66.85 97.55 67.57 98.15 68.26 98.80 C 69.82 104.19 66.23 107.82 63.75 111.85 C 63.01 111.96 61.52 112.18 60.78 112.29 C 60.09 112.23 58.71 112.11 58.01 112.05 L 57.77 111.31 L 58.76 111.05 C 65.36 110.52 67.41 102.44 66.09 96.98 Z" />
</g>
<g id="#ebe2c7ff">
<path fill="#ebe2c7" opacity="1.00" d=" M 76.26 96.71 C 76.64 96.71 77.41 96.72 77.79 96.73 C 80.48 96.81 84.28 96.83 85.00 100.08 C 85.42 105.59 79.59 108.99 74.73 109.23 C 74.20 108.10 73.70 106.96 73.18 105.83 C 72.50 102.41 74.78 99.56 76.26 96.71 Z" />
</g>
<g id="#6c2e0bff">
<path fill="#6c2e0b" opacity="1.00" d=" M 86.84 97.56 C 87.80 97.39 88.77 97.26 89.76 97.19 C 92.85 97.64 95.97 97.98 99.10 98.01 L 99.89 98.13 C 102.61 98.58 105.38 98.90 108.14 98.96 L 108.91 99.10 C 111.30 99.53 113.70 99.90 116.12 100.22 C 113.45 104.18 110.70 108.11 108.27 112.23 C 106.12 110.87 103.76 109.90 101.19 109.78 C 100.59 108.46 99.85 107.20 99.04 106.00 C 97.36 102.63 93.47 101.48 89.96 102.12 C 89.39 101.36 88.83 100.59 88.29 99.82 C 87.93 99.25 87.20 98.13 86.84 97.56 Z" />
</g>
<g id="#501b2dff">
<path fill="#501b2d" opacity="1.00" d=" M 89.76 97.19 C 92.90 96.77 96.04 97.20 99.10 98.01 C 95.97 97.98 92.85 97.64 89.76 97.19 Z" />
</g>
<g id="#ac998bff">
<path fill="#ac998b" opacity="1.00" d=" M 86.84 97.56 C 87.20 98.13 87.93 99.25 88.29 99.82 C 88.46 104.61 85.68 108.64 82.84 112.25 C 81.35 111.99 78.39 111.46 76.91 111.19 C 83.78 110.65 87.26 103.83 86.84 97.56 Z" />
</g>
<g id="#562134ff">
<path fill="#562134" opacity="1.00" d=" M 99.89 98.13 C 101.36 97.99 102.82 97.82 104.29 97.62 C 105.59 98.01 106.89 98.42 108.14 98.96 C 105.38 98.90 102.61 98.58 99.89 98.13 Z" />
</g>
<g id="#9d8729f6">
<path fill="#9d8729" opacity="0.96" d=" M 172.29 98.30 C 175.32 98.13 172.00 104.43 170.89 106.04 C 169.16 104.90 166.61 104.46 165.85 102.32 C 166.82 101.18 167.77 100.03 168.83 98.98 C 169.99 98.82 171.15 98.60 172.29 98.30 Z" />
</g>
<g id="#846a57ff">
<path fill="#846a57" opacity="1.00" d=" M 68.26 98.80 C 71.27 100.73 69.66 104.79 69.91 107.75 C 69.22 108.83 68.56 109.94 67.89 111.04 C 66.51 111.33 65.14 111.64 63.75 111.85 C 66.23 107.82 69.82 104.19 68.26 98.80 Z" />
</g>
<g id="#532536ff">
<path fill="#532536" opacity="1.00" d=" M 108.91 99.10 C 111.73 99.06 114.56 98.99 117.39 98.90 C 117.07 99.23 116.44 99.89 116.12 100.22 C 113.70 99.90 111.30 99.53 108.91 99.10 Z" />
</g>
<g id="#885478ff">
<path fill="#885478" opacity="1.00" d=" M 153.96 99.96 C 158.14 98.48 162.16 99.25 165.20 102.25 C 162.83 104.73 160.42 107.45 160.72 111.16 C 160.31 110.80 159.48 110.08 159.06 109.72 C 156.58 107.16 153.21 104.87 153.77 100.85 L 153.96 99.96 Z" />
</g>
<g id="#2d1a12c6">
<path fill="#2d1a12" opacity="0.78" d=" M 43.91 101.00 C 46.95 99.39 50.52 101.53 53.23 102.97 C 50.11 103.06 46.91 102.96 43.91 102.07 L 43.91 101.00 Z" />
</g>
<g id="#957f71ff">
<path fill="#957f71" opacity="1.00" d=" M 88.29 99.82 C 88.83 100.59 89.39 101.36 89.96 102.12 C 89.85 102.82 89.65 104.24 89.54 104.95 C 89.22 105.99 88.92 107.03 88.62 108.08 C 87.49 109.98 86.13 112.01 83.78 112.43 L 82.84 112.25 C 85.68 108.64 88.46 104.61 88.29 99.82 Z" />
</g>
<g id="#b06e33fa">
<path fill="#b06e33" opacity="0.98" d=" M 146.58 116.63 C 149.38 111.57 153.00 106.76 153.77 100.85 C 153.21 104.87 156.58 107.16 159.06 109.72 C 154.53 109.93 159.48 114.52 158.22 117.10 C 155.74 116.47 154.94 112.75 152.16 113.05 C 149.22 118.52 147.45 124.67 143.73 129.74 C 136.37 139.01 127.73 147.83 116.69 152.61 C 115.05 153.13 113.41 154.05 111.64 153.73 C 114.46 150.15 118.80 148.21 122.12 145.14 C 132.56 137.94 140.07 127.33 146.58 116.63 Z" />
</g>
<g id="#894011ff">
<path fill="#894011" opacity="1.00" d=" M 89.96 102.12 C 93.47 101.48 97.36 102.63 99.04 106.00 C 95.92 105.62 92.23 107.01 89.54 104.95 C 89.65 104.24 89.85 102.82 89.96 102.12 Z" />
</g>
<g id="#8b6592fe">
<path fill="#8b6592" opacity="1.00" d=" M 165.20 102.25 L 165.85 102.32 C 166.61 104.46 169.16 104.90 170.89 106.04 C 169.89 108.15 167.79 110.01 165.77 111.18 C 164.13 111.32 162.07 112.70 160.72 111.16 C 160.42 107.45 162.83 104.73 165.20 102.25 Z" />
</g>
<g id="#925221fd">
<path fill="#925221" opacity="1.00" d=" M 88.62 108.08 C 88.92 107.03 89.22 105.99 89.54 104.95 C 92.23 107.01 95.92 105.62 99.04 106.00 C 99.85 107.20 100.59 108.46 101.19 109.78 C 101.19 111.26 101.18 114.22 101.18 115.70 C 102.74 116.19 104.31 116.64 105.90 117.05 C 105.31 118.06 104.63 119.00 103.98 119.97 C 97.95 118.88 92.42 121.20 86.76 122.71 C 81.85 124.85 76.23 123.88 70.99 123.98 L 71.06 123.09 C 74.98 122.45 78.86 121.57 82.77 120.86 C 88.05 120.45 95.49 118.22 95.97 112.07 C 95.61 108.12 91.43 109.27 88.62 108.08 Z" />
</g>
<g id="#0906031e">
<path fill="#090603" opacity="0.12" d=" M 44.71 106.15 C 48.15 106.23 51.49 107.15 54.78 108.09 C 55.05 108.39 55.58 108.97 55.85 109.26 L 56.39 109.93 C 55.93 111.95 53.80 112.42 52.29 113.46 C 52.04 116.65 51.97 119.88 51.94 123.09 C 51.50 122.72 50.62 122.00 50.18 121.64 C 49.91 118.42 48.42 115.53 47.17 112.61 C 46.34 110.46 45.55 108.29 44.71 106.15 Z" />
</g>
<g id="#a75c20ff">
<path fill="#a75c20" opacity="1.00" d=" M 73.18 105.83 C 73.70 106.96 74.20 108.10 74.73 109.23 L 75.07 110.08 C 72.68 110.44 70.29 110.76 67.89 111.04 C 68.56 109.94 69.22 108.83 69.91 107.75 C 71.36 107.53 73.54 108.10 73.18 105.83 Z" />
</g>
<g id="#a56027ff">
<path fill="#a56027" opacity="1.00" d=" M 83.78 112.43 C 86.13 112.01 87.49 109.98 88.62 108.08 C 91.43 109.27 95.61 108.12 95.97 112.07 C 95.49 118.22 88.05 120.45 82.77 120.86 C 85.93 118.97 91.50 117.90 91.05 113.21 C 88.59 113.17 86.17 112.91 83.78 112.43 Z" />
</g>
<g id="#d48837f8">
<path fill="#d48837" opacity="0.97" d=" M 56.39 109.93 C 56.74 110.27 57.43 110.96 57.77 111.31 L 58.01 112.05 C 58.54 114.62 61.23 116.15 61.14 118.96 C 60.16 118.60 59.20 118.20 58.26 117.75 C 57.55 117.10 56.81 116.47 56.06 115.86 C 56.32 118.89 56.82 121.93 57.03 124.97 C 57.32 129.98 56.20 135.22 58.03 140.03 C 54.43 138.83 52.18 134.76 53.02 130.98 C 52.79 128.32 51.67 125.80 51.94 123.09 C 51.97 119.88 52.04 116.65 52.29 113.46 C 53.80 112.42 55.93 111.95 56.39 109.93 Z" />
</g>
<g id="#b56b2cfe">
<path fill="#b56b2c" opacity="1.00" d=" M 67.89 111.04 C 70.29 110.76 72.68 110.44 75.07 110.08 C 75.53 110.36 76.45 110.92 76.91 111.19 C 78.39 111.46 81.35 111.99 82.84 112.25 L 83.78 112.43 C 86.17 112.91 88.59 113.17 91.05 113.21 C 91.50 117.90 85.93 118.97 82.77 120.86 C 78.86 121.57 74.98 122.45 71.06 123.09 C 68.75 122.85 65.00 122.95 63.87 120.82 C 70.22 120.63 77.18 121.28 82.82 117.72 C 83.62 115.09 79.87 114.63 78.13 113.81 C 72.51 111.13 65.91 116.16 60.78 112.29 C 61.52 112.18 63.01 111.96 63.75 111.85 C 65.14 111.64 66.51 111.33 67.89 111.04 Z" />
</g>
<g id="#82451aff">
<path fill="#82451a" opacity="1.00" d=" M 101.19 109.78 C 103.76 109.90 106.12 110.87 108.27 112.23 C 107.55 113.87 106.81 115.51 105.90 117.05 C 104.31 116.64 102.74 116.19 101.18 115.70 C 101.18 114.22 101.19 111.26 101.19 109.78 Z" />
</g>
<g id="#c47730fa">
<path fill="#c47730" opacity="0.98" d=" M 158.22 117.10 C 159.48 114.52 154.53 109.93 159.06 109.72 C 159.48 110.08 160.31 110.80 160.72 111.16 C 162.07 112.70 164.13 111.32 165.77 111.18 C 169.11 114.00 172.22 117.47 176.70 118.38 C 178.71 118.94 177.90 121.28 177.93 122.82 C 174.75 124.07 173.31 127.47 173.75 130.89 C 173.39 136.40 170.95 141.55 170.93 147.09 C 168.68 150.22 164.07 153.04 159.95 154.06 C 160.58 149.87 165.56 147.85 166.92 143.94 C 168.60 138.55 169.39 132.85 168.86 127.22 C 165.93 123.33 160.60 120.80 158.22 117.10 Z" />
</g>
<g id="#c87b32ff">
<path fill="#c87b32" opacity="1.00" d=" M 58.01 112.05 C 58.71 112.11 60.09 112.23 60.78 112.29 C 65.91 116.16 72.51 111.13 78.13 113.81 C 79.87 114.63 83.62 115.09 82.82 117.72 C 77.18 121.28 70.22 120.63 63.87 120.82 C 62.47 121.38 61.22 120.41 61.14 118.96 C 61.23 116.15 58.54 114.62 58.01 112.05 Z" />
</g>
<g id="#7c5327ea">
<path fill="#7c5327" opacity="0.92" d=" M 45.15 113.18 C 45.66 113.04 46.67 112.75 47.17 112.61 C 48.42 115.53 49.91 118.42 50.18 121.64 C 48.67 121.82 47.83 122.67 47.69 124.17 C 46.78 120.52 45.79 116.89 45.15 113.18 Z" />
</g>
<g id="#955925ed">
<path fill="#955925" opacity="0.93" d=" M 56.06 115.86 C 56.81 116.47 57.55 117.10 58.26 117.75 C 58.19 119.56 58.05 123.19 57.98 125.00 L 57.03 124.97 C 56.82 121.93 56.32 118.89 56.06 115.86 Z" />
</g>
<g id="#a1632efb">
<path fill="#a1632e" opacity="1.00" d=" M 86.76 122.71 C 92.42 121.20 97.95 118.88 103.98 119.97 C 103.32 121.31 102.69 122.67 102.10 124.05 C 99.39 124.02 96.69 124.01 93.99 124.01 C 91.22 124.65 88.81 124.22 86.76 122.71 Z" />
</g>
<g id="#b77030fa">
<path fill="#b77030" opacity="0.98" d=" M 173.75 130.89 C 173.31 127.47 174.75 124.07 177.93 122.82 C 178.22 129.15 177.86 135.52 176.77 141.77 C 174.98 143.71 172.77 145.19 170.93 147.09 C 170.95 141.55 173.39 136.40 173.75 130.89 Z" />
</g>
<g id="#2d1d0b7b">
<path fill="#2d1d0b" opacity="0.48" d=" M 93.99 124.01 C 96.69 124.01 99.39 124.02 102.10 124.05 C 101.92 125.12 101.68 126.19 101.38 127.24 C 101.82 122.47 94.58 127.01 93.99 124.01 Z" />
</g>
<g id="#ba7532ea">
<path fill="#ba7532" opacity="0.92" d=" M 24.18 138.82 C 27.71 140.84 31.11 143.13 34.92 144.62 C 34.20 145.68 34.88 146.90 34.95 148.03 C 31.52 145.36 27.57 143.43 24.11 140.81 C 24.13 140.31 24.16 139.32 24.18 138.82 Z" />
</g>
</svg>
