<?xml version="1.0" encoding="UTF-8" ?>
<!DOCTYPE svg PUBLIC "-//W3C//DTD SVG 1.1//EN" "http://www.w3.org/Graphics/SVG/1.1/DTD/svg11.dtd">
<svg width="137pt" height="165pt" viewBox="0 0 137 165" version="1.1" xmlns="http://www.w3.org/2000/svg">
<g id="#b9aec8ef">
<path fill="#b9aec8" opacity="0.94" d=" M 31.82 11.91 C 32.84 9.86 33.73 6.02 36.79 7.15 C 40.39 9.95 40.41 15.14 37.38 18.39 C 35.71 27.50 39.95 36.07 41.07 44.90 C 41.01 48.05 43.20 50.90 42.48 54.06 L 42.05 53.08 C 41.14 50.81 39.92 48.63 39.51 46.21 C 37.52 38.25 35.57 30.26 34.88 22.06 C 33.92 18.73 29.83 15.61 31.82 11.91 Z" />
</g>
<g id="#c0b4cff7">
<path fill="#c0b4cf" opacity="0.97" d=" M 84.75 20.76 C 88.65 18.38 95.06 16.21 98.88 19.21 C 98.61 22.85 93.77 26.14 90.02 25.99 C 87.27 26.20 84.10 25.08 81.79 26.83 C 79.94 28.31 78.07 29.75 76.11 31.07 C 74.78 31.85 73.45 32.71 71.89 32.94 C 75.33 27.96 81.56 25.92 84.75 20.76 Z" />
</g>
<g id="#8f7fb9f5">
<path fill="#8f7fb9" opacity="0.96" d=" M 50.31 27.25 C 50.68 26.88 51.42 26.16 51.80 25.79 C 51.56 31.78 53.48 37.48 54.30 43.34 C 52.32 45.07 49.56 45.12 47.29 46.28 C 44.56 48.85 43.33 52.41 44.52 56.16 C 44.70 57.37 44.88 58.59 45.06 59.80 C 44.73 59.64 44.08 59.30 43.76 59.13 C 43.57 58.56 43.20 57.43 43.01 56.86 C 42.83 55.93 42.65 54.99 42.48 54.06 C 43.20 50.90 41.01 48.05 41.07 44.90 C 42.25 46.08 42.75 48.47 44.86 47.97 C 45.75 40.81 48.89 34.26 50.31 27.25 Z" />
</g>
<g id="#736c88d2">
<path fill="#736c88" opacity="0.82" d=" M 81.79 26.83 C 84.10 25.08 87.27 26.20 90.02 25.99 C 89.09 28.28 84.24 26.49 81.79 26.83 Z" />
</g>
<g id="#a093bcf5">
<path fill="#a093bc" opacity="0.96" d=" M 71.89 32.94 C 73.45 32.71 74.78 31.85 76.11 31.07 C 75.43 33.63 73.60 35.73 71.91 37.72 C 71.06 37.49 70.19 37.34 69.32 37.27 C 65.13 42.85 60.84 48.46 57.68 54.70 C 56.92 56.18 56.27 57.72 55.70 59.29 C 54.19 55.02 58.07 51.10 59.17 47.14 C 60.81 45.87 61.53 43.90 62.11 41.98 C 64.87 38.81 67.73 34.39 71.89 32.94 Z" />
</g>
<g id="#7365a8fd">
<path fill="#7365a8" opacity="1.00" d=" M 69.32 37.27 C 70.19 37.34 71.06 37.49 71.91 37.72 C 71.28 40.91 69.09 43.63 68.90 46.91 C 71.04 46.19 73.13 45.35 75.29 44.69 C 75.01 47.66 71.75 49.07 70.36 51.53 C 71.69 52.92 72.98 54.36 74.15 55.90 C 68.66 55.49 63.18 55.00 57.68 54.70 C 60.84 48.46 65.13 42.85 69.32 37.27 Z" />
</g>
<g id="#7d6eaefb">
<path fill="#7d6eae" opacity="1.00" d=" M 56.07 46.02 C 59.41 47.03 59.37 42.60 62.11 41.98 C 61.53 43.90 60.81 45.87 59.17 47.14 C 56.73 48.87 54.26 50.59 51.37 51.47 C 48.90 52.68 45.08 52.82 44.52 56.16 C 43.33 52.41 44.56 48.85 47.29 46.28 C 49.56 45.12 52.32 45.07 54.30 43.34 C 56.06 41.95 53.78 47.06 56.07 46.02 Z" />
</g>
<g id="#6d5fa1fb">
<path fill="#6d5fa1" opacity="1.00" d=" M 75.29 44.69 C 76.21 42.59 80.54 46.91 78.19 49.02 C 82.82 48.02 87.43 46.84 92.11 46.04 C 90.51 48.01 88.66 49.77 87.00 51.70 C 90.82 52.86 94.36 54.87 98.34 55.48 C 104.21 53.24 102.21 57.33 102.59 59.75 C 102.99 61.94 101.56 63.81 100.91 65.80 C 98.04 64.41 100.26 57.37 93.97 61.03 C 89.68 60.67 85.84 62.41 82.07 64.04 C 79.75 62.60 78.04 60.18 74.99 60.05 C 68.75 59.04 61.79 56.51 55.70 59.29 C 56.27 57.72 56.92 56.18 57.68 54.70 C 63.18 55.00 68.66 55.49 74.15 55.90 C 72.98 54.36 71.69 52.92 70.36 51.53 C 71.75 49.07 75.01 47.66 75.29 44.69 Z" />
</g>
<g id="#9283c1fb">
<path fill="#9283c1" opacity="1.00" d=" M 35.22 44.94 C 36.66 45.30 38.09 45.76 39.51 46.21 C 39.92 48.63 41.14 50.81 42.05 53.08 C 38.34 53.15 35.46 55.92 32.05 57.05 C 30.09 57.91 27.78 58.81 27.17 61.11 C 25.56 65.53 22.40 69.12 20.36 73.33 C 16.80 85.06 19.54 97.39 18.26 109.28 C 17.66 107.76 19.02 104.25 17.00 104.06 C 16.25 104.01 14.75 103.91 14.00 103.85 C 13.15 99.50 14.95 95.44 15.16 91.17 C 15.58 91.04 16.42 90.78 16.84 90.65 C 16.60 82.27 17.13 73.28 22.24 66.24 C 24.37 63.22 25.46 58.25 22.02 55.90 C 21.75 55.45 21.20 54.55 20.93 54.10 C 25.19 54.80 29.56 54.67 33.80 53.85 C 36.13 51.72 35.96 47.78 35.22 44.94 Z" />
</g>
<g id="#7264a9ff">
<path fill="#7264a9" opacity="1.00" d=" M 51.37 51.47 C 54.26 50.59 56.73 48.87 59.17 47.14 C 58.07 51.10 54.19 55.02 55.70 59.29 C 52.41 59.22 48.15 56.65 45.06 59.80 C 44.88 58.59 44.70 57.37 44.52 56.16 C 45.08 52.82 48.90 52.68 51.37 51.47 Z" />
</g>
<g id="#7e6fb0fe">
<path fill="#7e6fb0" opacity="1.00" d=" M 32.05 57.05 C 35.46 55.92 38.34 53.15 42.05 53.08 L 42.48 54.06 C 42.65 54.99 42.83 55.93 43.01 56.86 C 37.40 56.75 31.52 60.03 28.64 64.78 C 24.81 68.70 21.65 73.39 20.68 78.86 C 19.42 81.24 19.19 83.61 19.99 85.97 C 19.90 92.47 22.42 98.61 23.03 105.02 C 23.38 107.42 24.53 109.89 26.59 111.27 L 26.60 111.98 C 26.37 114.92 27.68 118.81 24.20 120.00 C 20.76 122.98 20.70 116.24 19.71 114.18 C 18.59 112.74 17.83 111.14 18.26 109.28 C 19.54 97.39 16.80 85.06 20.36 73.33 C 22.40 69.12 25.56 65.53 27.17 61.11 C 27.78 58.81 30.09 57.91 32.05 57.05 Z" />
</g>
<g id="#a696d1f8">
<path fill="#a696d1" opacity="0.97" d=" M 17.10 57.17 C 18.69 56.55 20.28 55.82 22.02 55.90 C 25.46 58.25 24.37 63.22 22.24 66.24 C 17.13 73.28 16.60 82.27 16.84 90.65 C 16.42 90.78 15.58 91.04 15.16 91.17 C 13.44 91.14 11.72 91.06 10.00 90.94 C 11.52 86.50 16.16 83.31 15.06 78.09 C 11.11 80.44 14.86 75.18 14.02 73.11 C 12.51 72.68 8.89 73.92 10.20 71.19 C 12.85 68.46 15.46 65.59 18.99 63.99 C 23.96 62.75 18.03 59.16 17.10 57.17 Z" />
</g>
<g id="#7060a4ff">
<path fill="#7060a4" opacity="1.00" d=" M 28.64 64.78 C 31.52 60.03 37.40 56.75 43.01 56.86 C 43.20 57.43 43.57 58.56 43.76 59.13 C 41.03 59.68 38.25 60.25 35.80 61.63 C 33.45 62.76 31.11 63.92 28.64 64.78 Z" />
</g>
<g id="#64579cfe">
<path fill="#64579c" opacity="1.00" d=" M 45.06 59.80 C 48.15 56.65 52.41 59.22 55.70 59.29 C 61.79 56.51 68.75 59.04 74.99 60.05 C 78.04 60.18 79.75 62.60 82.07 64.04 C 85.84 62.41 89.68 60.67 93.97 61.03 C 100.26 57.37 98.04 64.41 100.91 65.80 C 105.73 67.81 111.01 70.99 113.02 76.06 C 111.25 75.96 109.55 75.49 107.85 75.07 C 106.20 74.04 104.63 70.96 102.41 72.46 C 98.58 75.02 93.49 76.98 89.07 74.94 C 84.29 73.05 81.72 68.05 77.03 65.95 C 68.94 60.29 57.11 58.66 48.91 64.90 C 45.96 64.24 43.31 61.59 40.07 62.85 C 38.66 62.40 37.24 61.98 35.80 61.63 C 38.25 60.25 41.03 59.68 43.76 59.13 C 44.08 59.30 44.73 59.64 45.06 59.80 Z" />
</g>
<g id="#5e4f94ff">
<path fill="#5e4f94" opacity="1.00" d=" M 48.91 64.90 C 57.11 58.66 68.94 60.29 77.03 65.95 C 81.72 68.05 84.29 73.05 89.07 74.94 C 93.49 76.98 98.58 75.02 102.41 72.46 C 104.63 70.96 106.20 74.04 107.85 75.07 C 108.32 76.19 108.77 77.30 109.21 78.43 C 106.49 78.83 103.86 77.65 101.18 77.42 C 98.57 78.18 96.75 80.52 96.04 83.06 C 96.43 85.70 97.92 88.09 97.99 90.79 C 89.90 92.96 88.78 103.06 81.97 106.95 C 79.07 108.64 76.28 110.51 73.62 112.56 C 71.95 113.18 70.16 112.07 68.41 112.20 C 68.03 113.19 67.62 114.16 67.18 115.12 C 66.95 112.52 67.46 109.59 65.28 107.78 C 64.92 107.32 64.19 106.41 63.82 105.95 C 66.21 102.31 68.91 98.88 71.29 95.24 C 71.46 95.02 71.79 94.58 71.96 94.36 C 74.59 93.44 76.83 91.80 78.90 89.97 C 83.18 89.25 82.97 84.23 83.99 80.92 C 86.04 75.51 81.08 72.06 77.25 69.64 C 72.62 63.22 63.94 61.10 57.03 64.89 C 50.72 63.87 50.46 72.14 46.35 75.12 C 45.74 72.57 45.91 68.32 42.19 68.83 C 41.49 66.83 40.80 64.83 40.07 62.85 C 43.31 61.59 45.96 64.24 48.91 64.90 Z" />
</g>
<g id="#7d3557ff">
<path fill="#7d3557" opacity="1.00" d=" M 28.64 64.78 C 31.11 63.92 33.45 62.76 35.80 61.63 C 37.24 61.98 38.66 62.40 40.07 62.85 C 40.80 64.83 41.49 66.83 42.19 68.83 C 41.81 71.82 41.44 74.83 40.80 77.79 C 38.34 83.85 35.90 90.39 29.86 93.74 C 28.54 93.90 27.23 94.05 25.91 94.18 C 24.61 93.08 23.33 91.97 22.03 90.87 C 21.59 89.26 21.16 87.66 20.83 86.03 C 20.79 84.24 20.72 80.65 20.68 78.86 C 21.65 73.39 24.81 68.70 28.64 64.78 M 32.00 69.79 C 31.49 70.11 30.48 70.74 29.97 71.06 C 26.49 71.71 28.86 75.27 30.17 76.93 C 33.62 76.68 38.02 73.36 35.88 69.22 C 34.87 67.35 32.51 67.86 32.00 69.79 Z" />
</g>
<g id="#7d3455ff">
<path fill="#7d3455" opacity="1.00" d=" M 57.03 64.89 C 63.94 61.10 72.62 63.22 77.25 69.64 C 77.43 70.17 77.77 71.23 77.95 71.76 C 75.22 72.27 75.76 75.77 74.66 77.76 C 71.09 82.17 69.50 87.99 64.85 91.63 C 63.08 90.91 60.39 88.72 60.58 92.24 C 54.92 88.54 53.07 81.14 52.67 74.78 C 53.44 71.21 55.18 68.00 57.03 64.89 M 57.15 68.41 C 55.19 69.09 56.39 71.09 57.07 72.30 L 56.62 73.32 C 55.20 72.12 56.31 75.96 56.09 76.80 C 58.02 77.09 59.92 77.56 61.84 77.91 C 63.11 76.03 64.06 73.64 63.84 71.36 C 62.10 71.12 62.03 69.53 61.76 68.13 C 60.23 68.41 58.70 68.73 57.15 68.41 Z" />
</g>
<g id="#55468eff">
<path fill="#55468e" opacity="1.00" d=" M 46.35 75.12 C 50.46 72.14 50.72 63.87 57.03 64.89 C 55.18 68.00 53.44 71.21 52.67 74.78 C 51.51 78.49 49.50 82.16 46.03 84.12 C 43.73 82.53 41.12 80.82 40.80 77.79 C 41.44 74.83 41.81 71.82 42.19 68.83 C 45.91 68.32 45.74 72.57 46.35 75.12 Z" />
</g>
<g id="#8a4061ff">
<path fill="#8a4061" opacity="1.00" d=" M 32.00 69.79 C 32.51 67.86 34.87 67.35 35.88 69.22 C 38.02 73.36 33.62 76.68 30.17 76.93 C 28.86 75.27 26.49 71.71 29.97 71.06 C 29.97 72.41 30.02 73.76 30.10 75.11 C 32.32 75.07 35.98 69.43 32.00 69.79 Z" />
</g>
<g id="#873d5eff">
<path fill="#873d5e" opacity="1.00" d=" M 57.15 68.41 C 58.70 68.73 60.23 68.41 61.76 68.13 C 62.03 69.53 62.10 71.12 63.84 71.36 C 64.06 73.64 63.11 76.03 61.84 77.91 C 59.92 77.56 58.02 77.09 56.09 76.80 C 56.31 75.96 55.20 72.12 56.62 73.32 C 57.57 74.08 58.53 74.92 59.81 75.01 C 59.93 73.39 61.53 71.32 59.84 70.08 C 58.25 69.71 57.77 71.26 57.07 72.30 C 56.39 71.09 55.19 69.09 57.15 68.41 Z" />
</g>
<g id="#9e5476ff">
<path fill="#9e5476" opacity="1.00" d=" M 29.97 71.06 C 30.48 70.74 31.49 70.11 32.00 69.79 C 35.98 69.43 32.32 75.07 30.10 75.11 C 30.02 73.76 29.97 72.41 29.97 71.06 Z" />
</g>
<g id="#a3587aff">
<path fill="#a3587a" opacity="1.00" d=" M 57.07 72.30 C 57.77 71.26 58.25 69.71 59.84 70.08 C 61.53 71.32 59.93 73.39 59.81 75.01 C 58.53 74.92 57.57 74.08 56.62 73.32 L 57.07 72.30 Z" />
</g>
<g id="#58488cff">
<path fill="#58488c" opacity="1.00" d=" M 77.25 69.64 C 81.08 72.06 86.04 75.51 83.99 80.92 C 82.97 84.23 83.18 89.25 78.90 89.97 C 80.62 86.09 81.85 81.60 80.32 77.48 C 80.02 75.38 79.14 73.49 77.95 71.76 C 77.77 71.23 77.43 70.17 77.25 69.64 Z" />
</g>
<g id="#6f2e4cff">
<path fill="#6f2e4c" opacity="1.00" d=" M 74.66 77.76 C 75.76 75.77 75.22 72.27 77.95 71.76 C 79.14 73.49 80.02 75.38 80.32 77.48 C 78.12 78.75 78.58 81.33 77.29 83.18 C 75.25 86.97 72.07 90.02 70.03 93.82 C 68.35 93.92 66.68 94.04 65.02 94.27 C 63.50 93.69 62.00 93.05 60.58 92.24 C 60.39 88.72 63.08 90.91 64.85 91.63 C 69.50 87.99 71.09 82.17 74.66 77.76 Z" />
</g>
<g id="#4f3f84ff">
<path fill="#4f3f84" opacity="1.00" d=" M 46.03 84.12 C 49.50 82.16 51.51 78.49 52.67 74.78 C 53.07 81.14 54.92 88.54 60.58 92.24 C 62.00 93.05 63.50 93.69 65.02 94.27 L 64.94 94.76 C 61.94 97.31 60.82 103.51 56.13 102.98 C 56.08 102.46 55.97 101.41 55.92 100.89 C 56.17 97.76 56.85 91.97 52.35 91.63 C 51.21 91.09 50.07 90.54 48.88 90.09 C 44.42 88.07 39.10 88.95 35.31 91.79 C 34.28 93.11 33.30 94.48 32.65 96.03 C 31.73 95.25 30.81 94.48 29.86 93.74 C 35.90 90.39 38.34 83.85 40.80 77.79 C 41.12 80.82 43.73 82.53 46.03 84.12 Z" />
</g>
<g id="#58488cfe">
<path fill="#58488c" opacity="1.00" d=" M 101.18 77.42 C 103.86 77.65 106.49 78.83 109.21 78.43 C 112.17 80.22 113.52 85.14 116.04 88.06 C 113.42 88.17 111.23 86.58 108.91 85.62 C 105.74 84.89 106.42 79.61 103.20 80.08 C 102.06 81.97 101.12 83.97 100.26 86.00 C 100.74 88.22 101.93 90.31 101.89 92.63 C 98.23 93.36 95.31 94.89 96.75 99.66 C 92.07 100.05 86.99 103.17 87.55 108.65 C 85.85 112.34 81.52 111.93 78.25 113.23 C 75.70 115.87 75.82 119.95 73.86 122.95 C 70.91 122.98 68.01 122.22 65.08 122.08 C 60.63 124.51 58.36 130.27 52.92 131.02 C 56.33 127.08 58.13 121.48 63.02 119.07 C 64.62 118.02 66.13 116.74 67.18 115.12 C 67.62 114.16 68.03 113.19 68.41 112.20 C 70.16 112.07 71.95 113.18 73.62 112.56 C 76.28 110.51 79.07 108.64 81.97 106.95 C 88.78 103.06 89.90 92.96 97.99 90.79 C 97.92 88.09 96.43 85.70 96.04 83.06 C 96.75 80.52 98.57 78.18 101.18 77.42 Z" />
</g>
<g id="#602a44ff">
<path fill="#602a44" opacity="1.00" d=" M 77.29 83.18 C 78.58 81.33 78.12 78.75 80.32 77.48 C 81.85 81.60 80.62 86.09 78.90 89.97 C 76.83 91.80 74.59 93.44 71.96 94.36 C 71.48 94.22 70.51 93.95 70.03 93.82 C 72.07 90.02 75.25 86.97 77.29 83.18 Z" />
</g>
<g id="#7a4d80ff">
<path fill="#7a4d80" opacity="1.00" d=" M 19.99 85.97 C 19.19 83.61 19.42 81.24 20.68 78.86 C 20.72 80.65 20.79 84.24 20.83 86.03 L 19.99 85.97 Z" />
</g>
<g id="#534285fe">
<path fill="#534285" opacity="1.00" d=" M 103.20 80.08 C 106.42 79.61 105.74 84.89 108.91 85.62 C 107.22 87.51 108.58 89.85 108.98 91.93 C 102.27 92.75 102.37 100.40 102.33 105.55 C 100.88 107.69 100.76 111.39 97.91 112.03 C 98.53 110.04 99.23 108.08 99.78 106.07 C 97.05 104.97 94.03 104.96 91.13 105.04 C 90.04 108.16 90.33 111.52 89.73 114.73 C 88.31 117.17 84.60 114.07 83.50 117.46 C 79.55 116.10 78.21 119.92 76.73 122.76 C 74.47 126.66 69.23 123.67 66.02 126.02 C 62.76 127.72 61.26 131.31 58.74 133.84 C 56.13 134.13 53.61 133.07 51.02 132.89 C 51.64 132.25 52.27 131.63 52.92 131.02 C 58.36 130.27 60.63 124.51 65.08 122.08 C 68.01 122.22 70.91 122.98 73.86 122.95 C 75.82 119.95 75.70 115.87 78.25 113.23 C 81.52 111.93 85.85 112.34 87.55 108.65 C 86.99 103.17 92.07 100.05 96.75 99.66 C 95.31 94.89 98.23 93.36 101.89 92.63 C 101.93 90.31 100.74 88.22 100.26 86.00 C 101.12 83.97 102.06 81.97 103.20 80.08 Z" />
</g>
<g id="#7567aaff">
<path fill="#7567aa" opacity="1.00" d=" M 19.99 85.97 L 20.83 86.03 C 21.16 87.66 21.59 89.26 22.03 90.87 C 23.26 97.10 25.83 102.98 26.66 109.31 C 26.65 109.80 26.61 110.78 26.59 111.27 C 24.53 109.89 23.38 107.42 23.03 105.02 C 22.42 98.61 19.90 92.47 19.99 85.97 Z" />
</g>
<g id="#ba7d9dff">
<path fill="#ba7d9d" opacity="1.00" d=" M 35.31 91.79 C 39.10 88.95 44.42 88.07 48.88 90.09 C 48.73 95.31 44.25 99.08 39.04 98.02 C 38.07 97.63 37.10 97.24 36.12 96.87 C 35.95 95.16 35.74 93.46 35.31 91.79 Z" />
</g>
<g id="#a66b90ff">
<path fill="#a66b90" opacity="1.00" d=" M 48.88 90.09 C 50.07 90.54 51.21 91.09 52.35 91.63 C 52.23 92.42 51.97 93.98 51.84 94.76 C 48.40 96.98 45.11 99.78 40.70 99.36 C 40.20 99.21 39.21 98.92 38.72 98.78 L 39.04 98.02 C 44.25 99.08 48.73 95.31 48.88 90.09 Z" />
</g>
<g id="#6a5ca1ff">
<path fill="#6a5ca1" opacity="1.00" d=" M 22.03 90.87 C 23.33 91.97 24.61 93.08 25.91 94.18 C 27.33 97.63 29.25 101.03 29.16 104.87 C 28.93 105.35 28.46 106.30 28.23 106.78 C 27.84 107.42 27.06 108.68 26.66 109.31 C 25.83 102.98 23.26 97.10 22.03 90.87 Z" />
</g>
<g id="#a896c0ff">
<path fill="#a896c0" opacity="1.00" d=" M 35.31 91.79 C 35.74 93.46 35.95 95.16 36.12 96.87 C 36.13 99.04 36.70 101.24 36.19 103.39 C 33.53 101.91 33.05 98.75 32.65 96.03 C 33.30 94.48 34.28 93.11 35.31 91.79 Z" />
</g>
<g id="#9e8bb8ff">
<path fill="#9e8bb8" opacity="1.00" d=" M 52.35 91.63 C 56.85 91.97 56.17 97.76 55.92 100.89 C 55.02 102.11 54.12 103.32 53.04 104.39 C 52.47 102.20 51.89 100.02 51.29 97.84 C 51.50 96.82 51.68 95.79 51.84 94.76 C 51.97 93.98 52.23 92.42 52.35 91.63 Z" />
</g>
<g id="#4d4793f9">
<path fill="#4d4793" opacity="0.98" d=" M 102.33 105.55 C 102.37 100.40 102.27 92.75 108.98 91.93 C 110.71 92.75 110.90 95.29 111.93 96.86 C 111.21 96.94 109.78 97.10 109.06 97.18 C 108.93 101.46 109.08 105.75 108.96 110.03 C 107.73 109.22 106.67 108.08 105.14 107.87 C 104.60 111.85 105.46 116.14 103.88 119.94 C 102.02 118.93 100.42 116.95 98.16 117.05 C 96.26 120.31 95.89 124.33 93.28 127.26 C 92.32 129.02 91.40 126.19 90.78 125.58 C 92.10 120.78 92.49 114.14 97.91 112.03 C 100.76 111.39 100.88 107.69 102.33 105.55 Z" />
</g>
<g id="#5d4e93ff">
<path fill="#5d4e93" opacity="1.00" d=" M 25.91 94.18 C 27.23 94.05 28.54 93.90 29.86 93.74 C 30.81 94.48 31.73 95.25 32.65 96.03 C 33.05 98.75 33.53 101.91 36.19 103.39 C 37.01 104.04 37.91 104.60 38.80 105.16 C 43.34 107.10 48.59 107.06 52.94 109.60 C 54.19 110.13 55.46 110.65 56.70 111.21 C 56.12 112.40 55.42 113.54 54.93 114.78 C 56.24 114.91 57.56 115.05 58.88 115.19 C 58.66 116.44 58.32 117.67 58.10 118.92 C 59.39 119.01 60.69 119.05 61.99 119.05 L 63.02 119.07 C 58.13 121.48 56.33 127.08 52.92 131.02 C 52.27 131.63 51.64 132.25 51.02 132.89 C 48.64 132.32 41.03 134.99 44.06 130.74 C 45.93 130.09 47.87 130.53 49.77 130.68 C 52.43 128.60 54.44 125.33 54.96 122.07 C 52.84 117.43 50.33 112.01 44.68 111.33 C 41.67 109.60 38.78 116.03 36.74 111.96 C 36.34 109.97 39.28 107.92 36.26 107.06 C 34.92 106.24 33.67 105.06 32.00 105.08 C 31.29 105.02 29.87 104.92 29.16 104.87 C 29.25 101.03 27.33 97.63 25.91 94.18 Z" />
</g>
<g id="#5c3767ff">
<path fill="#5c3767" opacity="1.00" d=" M 65.02 94.27 C 66.68 94.04 68.35 93.92 70.03 93.82 C 70.51 93.95 71.48 94.22 71.96 94.36 C 71.79 94.58 71.46 95.02 71.29 95.24 C 69.17 95.19 67.05 95.06 64.94 94.76 L 65.02 94.27 Z" />
</g>
<g id="#8a5681ff">
<path fill="#8a5681" opacity="1.00" d=" M 40.70 99.36 C 45.11 99.78 48.40 96.98 51.84 94.76 C 51.68 95.79 51.50 96.82 51.29 97.84 C 48.21 99.87 44.23 100.73 40.70 99.36 Z" />
</g>
<g id="#55478bff">
<path fill="#55478b" opacity="1.00" d=" M 56.13 102.98 C 60.82 103.51 61.94 97.31 64.94 94.76 C 67.05 95.06 69.17 95.19 71.29 95.24 C 68.91 98.88 66.21 102.31 63.82 105.95 C 59.63 105.03 55.54 106.33 52.94 109.60 C 48.59 107.06 43.34 107.10 38.80 105.16 C 38.53 103.07 37.47 100.76 38.72 98.78 C 39.21 98.92 40.20 99.21 40.70 99.36 C 44.23 100.73 48.21 99.87 51.29 97.84 C 51.31 100.25 49.41 106.96 53.04 104.39 C 54.12 103.32 55.02 102.11 55.92 100.89 C 55.97 101.41 56.08 102.46 56.13 102.98 Z" />
</g>
<g id="#856a9dff">
<path fill="#856a9d" opacity="1.00" d=" M 36.12 96.87 C 37.10 97.24 38.07 97.63 39.04 98.02 L 38.72 98.78 C 37.47 100.76 38.53 103.07 38.80 105.16 C 37.91 104.60 37.01 104.04 36.19 103.39 C 36.70 101.24 36.13 99.04 36.12 96.87 Z" />
</g>
<g id="#8775a8ff">
<path fill="#8775a8" opacity="1.00" d=" M 51.29 97.84 C 51.89 100.02 52.47 102.20 53.04 104.39 C 49.41 106.96 51.31 100.25 51.29 97.84 Z" />
</g>
<g id="#625684d6">
<path fill="#625684" opacity="0.84" d=" M 17.00 104.06 C 19.02 104.25 17.66 107.76 18.26 109.28 C 17.83 111.14 18.59 112.74 19.71 114.18 C 14.26 114.98 17.83 107.35 17.00 104.06 Z" />
</g>
<g id="#b299a0ff">
<path fill="#b299a0" opacity="1.00" d=" M 29.16 104.87 C 29.87 104.92 31.29 105.02 32.00 105.08 C 32.39 106.68 32.75 108.29 32.92 109.93 C 32.17 112.72 30.79 115.46 31.89 118.38 C 30.46 117.60 28.83 116.85 28.17 115.25 C 30.68 112.74 29.78 109.53 28.23 106.78 C 28.46 106.30 28.93 105.35 29.16 104.87 Z" />
</g>
<g id="#9d8393ff">
<path fill="#9d8393" opacity="1.00" d=" M 32.00 105.08 C 33.67 105.06 34.92 106.24 36.26 107.06 C 35.76 108.61 34.85 110.34 32.92 109.93 C 32.75 108.29 32.39 106.68 32.00 105.08 Z" />
</g>
<g id="#4b3b80fd">
<path fill="#4b3b80" opacity="1.00" d=" M 91.13 105.04 C 94.03 104.96 97.05 104.97 99.78 106.07 C 99.23 108.08 98.53 110.04 97.91 112.03 C 92.49 114.14 92.10 120.78 90.78 125.58 C 90.11 128.11 89.50 132.39 85.99 131.95 L 85.73 131.00 C 84.89 128.75 85.76 126.45 85.91 124.16 C 84.60 123.03 82.86 122.67 81.21 122.35 C 78.32 124.14 75.79 126.72 72.35 127.42 C 69.02 128.24 65.36 129.69 64.27 133.29 C 63.10 135.44 65.53 136.70 66.78 137.96 C 65.32 139.14 64.05 141.38 61.93 140.22 C 59.62 138.52 57.68 143.50 56.16 140.73 C 54.38 138.58 52.37 136.30 49.26 137.07 C 49.91 135.70 50.54 134.33 51.02 132.89 C 53.61 133.07 56.13 134.13 58.74 133.84 C 61.26 131.31 62.76 127.72 66.02 126.02 C 69.23 123.67 74.47 126.66 76.73 122.76 C 78.21 119.92 79.55 116.10 83.50 117.46 C 84.60 114.07 88.31 117.17 89.73 114.73 C 90.33 111.52 90.04 108.16 91.13 105.04 Z" />
</g>
<g id="#aa8f99ff">
<path fill="#aa8f99" opacity="1.00" d=" M 52.94 109.60 C 55.54 106.33 59.63 105.03 63.82 105.95 C 64.19 106.41 64.92 107.32 65.28 107.78 C 66.03 112.09 65.09 116.11 61.99 119.05 C 60.69 119.05 59.39 119.01 58.10 118.92 C 58.32 117.67 58.66 116.44 58.88 115.19 C 57.56 115.05 56.24 114.91 54.93 114.78 C 55.42 113.54 56.12 112.40 56.70 111.21 C 55.46 110.65 54.19 110.13 52.94 109.60 Z" />
</g>
<g id="#d0b9b0ff">
<path fill="#d0b9b0" opacity="1.00" d=" M 28.23 106.78 C 29.78 109.53 30.68 112.74 28.17 115.25 C 27.59 114.18 27.07 113.09 26.60 111.98 L 26.59 111.27 C 26.61 110.78 26.65 109.80 26.66 109.31 C 27.06 108.68 27.84 107.42 28.23 106.78 Z" />
</g>
<g id="#866a85ff">
<path fill="#866a85" opacity="1.00" d=" M 36.26 107.06 C 39.28 107.92 36.34 109.97 36.74 111.96 C 35.86 113.93 37.69 117.53 35.30 118.28 C 34.67 116.91 31.88 115.28 33.99 114.00 C 36.02 112.80 33.52 111.25 32.92 109.93 C 34.85 110.34 35.76 108.61 36.26 107.06 Z" />
</g>
<g id="#997c8dff">
<path fill="#997c8d" opacity="1.00" d=" M 65.28 107.78 C 67.46 109.59 66.95 112.52 67.18 115.12 C 66.13 116.74 64.62 118.02 63.02 119.07 L 61.99 119.05 C 65.09 116.11 66.03 112.09 65.28 107.78 Z" />
</g>
<g id="#9a8091ff">
<path fill="#9a8091" opacity="1.00" d=" M 31.89 118.38 C 30.79 115.46 32.17 112.72 32.92 109.93 C 33.52 111.25 36.02 112.80 33.99 114.00 C 31.88 115.28 34.67 116.91 35.30 118.28 C 34.31 118.66 33.31 119.00 32.29 119.31 L 31.89 118.38 Z" />
</g>
<g id="#625397ff">
<path fill="#625397" opacity="1.00" d=" M 36.74 111.96 C 38.78 116.03 41.67 109.60 44.68 111.33 C 50.33 112.01 52.84 117.43 54.96 122.07 C 54.44 125.33 52.43 128.60 49.77 130.68 C 47.87 130.53 45.93 130.09 44.06 130.74 C 40.65 126.77 34.89 126.19 30.09 127.69 C 29.63 126.87 27.59 126.23 28.46 125.17 C 30.09 123.47 31.39 121.49 32.29 119.31 C 33.31 119.00 34.31 118.66 35.30 118.28 C 37.69 117.53 35.86 113.93 36.74 111.96 Z" />
</g>
<g id="#6e60a0fa">
<path fill="#6e60a0" opacity="0.98" d=" M 24.20 120.00 C 27.68 118.81 26.37 114.92 26.60 111.98 C 27.07 113.09 27.59 114.18 28.17 115.25 C 28.83 116.85 30.46 117.60 31.89 118.38 L 32.29 119.31 C 31.39 121.49 30.09 123.47 28.46 125.17 C 27.43 123.21 26.99 120.04 24.20 120.00 Z" />
</g>
<g id="#3f2f73fe">
<path fill="#3f2f73" opacity="1.00" d=" M 81.21 122.35 C 82.86 122.67 84.60 123.03 85.91 124.16 C 85.76 126.45 84.89 128.75 85.73 131.00 C 85.30 131.24 84.43 131.70 84.00 131.94 C 82.13 132.80 78.36 132.29 79.15 135.35 C 76.90 133.83 74.67 134.77 72.72 136.25 C 71.94 136.65 71.30 137.21 70.80 137.93 C 70.52 138.42 69.96 139.40 69.68 139.89 C 68.66 139.34 67.60 138.80 66.78 137.96 C 65.53 136.70 63.10 135.44 64.27 133.29 C 65.36 129.69 69.02 128.24 72.35 127.42 C 75.79 126.72 78.32 124.14 81.21 122.35 Z" />
</g>
<g id="#534183f8">
<path fill="#534183" opacity="0.97" d=" M 30.09 127.69 C 34.89 126.19 40.65 126.77 44.06 130.74 C 41.03 134.99 48.64 132.32 51.02 132.89 C 50.54 134.33 49.91 135.70 49.26 137.07 C 48.25 138.00 47.14 138.83 45.95 139.54 C 46.20 135.20 41.08 133.30 37.81 132.05 C 36.35 131.83 34.92 132.26 33.55 132.72 C 33.18 132.78 32.44 132.91 32.07 132.97 C 33.75 130.72 30.85 129.39 30.09 127.69 Z" />
</g>
<g id="#917588fa">
<path fill="#917588" opacity="0.98" d=" M 33.55 132.72 C 34.92 132.26 36.35 131.83 37.81 132.05 C 39.26 135.64 42.51 138.02 45.95 139.54 C 47.30 140.41 48.74 141.10 50.20 141.77 C 44.79 142.87 39.29 143.62 33.77 143.81 C 35.87 142.79 39.78 142.83 36.56 138.43 C 35.21 136.71 33.90 134.94 33.55 132.72 Z" />
</g>
<g id="#826582ff">
<path fill="#826582" opacity="1.00" d=" M 37.81 132.05 C 41.08 133.30 46.20 135.20 45.95 139.54 C 42.51 138.02 39.26 135.64 37.81 132.05 Z" />
</g>
<g id="#99758eff">
<path fill="#99758e" opacity="1.00" d=" M 79.15 135.35 C 78.36 132.29 82.13 132.80 84.00 131.94 L 84.03 132.93 C 82.54 134.00 80.93 134.88 79.15 135.35 Z" />
</g>
<g id="#ae949afd">
<path fill="#ae949a" opacity="1.00" d=" M 28.33 134.25 C 29.51 133.63 30.73 133.08 32.07 132.97 C 32.44 132.91 33.18 132.78 33.55 132.72 C 33.90 134.94 35.21 136.71 36.56 138.43 C 39.78 142.83 35.87 142.79 33.77 143.81 C 31.64 143.25 25.78 145.45 24.91 143.00 C 24.30 139.51 26.36 136.84 28.33 134.25 Z" />
</g>
<g id="#ad9198fb">
<path fill="#ad9198" opacity="1.00" d=" M 79.15 135.35 C 80.93 134.88 82.54 134.00 84.03 132.93 C 87.51 133.32 90.36 136.18 91.72 139.29 C 93.99 143.48 89.77 146.99 86.07 145.99 C 86.36 142.38 86.37 138.17 83.18 135.82 C 83.49 137.88 83.94 139.93 83.99 142.03 C 80.35 138.82 75.04 139.79 70.80 137.93 C 71.30 137.21 71.94 136.65 72.72 136.25 C 74.91 137.56 77.21 136.62 79.15 135.35 Z" />
</g>
<g id="#938883e6">
<path fill="#938883" opacity="0.90" d=" M 22.20 138.24 C 23.86 136.41 25.73 134.51 28.33 134.25 C 26.36 136.84 24.30 139.51 24.91 143.00 C 22.08 143.53 21.43 140.30 22.20 138.24 Z" />
</g>
<g id="#9e7991ff">
<path fill="#9e7991" opacity="1.00" d=" M 72.72 136.25 C 74.67 134.77 76.90 133.83 79.15 135.35 C 77.21 136.62 74.91 137.56 72.72 136.25 Z" />
</g>
<g id="#796468ff">
<path fill="#796468" opacity="1.00" d=" M 83.18 135.82 C 86.37 138.17 86.36 142.38 86.07 145.99 C 85.57 146.00 84.56 146.00 84.05 146.01 C 84.06 144.68 84.04 143.35 83.99 142.03 C 83.94 139.93 83.49 137.88 83.18 135.82 Z" />
</g>
<g id="#7a5b78fc">
<path fill="#7a5b78" opacity="1.00" d=" M 49.26 137.07 C 52.37 136.30 54.38 138.58 56.16 140.73 C 54.18 140.99 52.21 142.28 50.20 141.77 C 48.74 141.10 47.30 140.41 45.95 139.54 C 47.14 138.83 48.25 138.00 49.26 137.07 Z" />
</g>
<g id="#bba2a1fa">
<path fill="#bba2a1" opacity="0.98" d=" M 69.68 139.89 C 69.96 139.40 70.52 138.42 70.80 137.93 C 75.04 139.79 80.35 138.82 83.99 142.03 C 84.04 143.35 84.06 144.68 84.05 146.01 L 84.01 147.04 C 78.68 146.72 72.15 145.17 69.68 139.89 Z" />
</g>
</svg>
