<?xml version="1.0" encoding="UTF-8" ?>
<!DOCTYPE svg PUBLIC "-//W3C//DTD SVG 1.1//EN" "http://www.w3.org/Graphics/SVG/1.1/DTD/svg11.dtd">
<svg width="161pt" height="193pt" viewBox="0 0 161 193" version="1.1" xmlns="http://www.w3.org/2000/svg">
<g id="#5c5c5c95">
<path fill="#5c5c5c" opacity="0.58" d=" M 4.84 17.17 C 4.27 14.57 3.27 11.60 4.84 9.16 C 4.67 11.83 4.73 14.51 4.84 17.17 Z" />
</g>
<g id="#fcf7fdfe">
<path fill="#fcf7fd" opacity="1.00" d=" M 4.84 9.16 L 6.02 8.28 L 6.05 9.53 C 6.01 13.48 6.44 17.41 7.04 21.32 C 6.40 20.52 5.78 19.72 5.16 18.90 C 5.08 18.47 4.92 17.61 4.84 17.17 C 4.73 14.51 4.67 11.83 4.84 9.16 Z" />
</g>
<g id="#e6d9fcff">
<path fill="#e6d9fc" opacity="1.00" d=" M 139.31 18.25 C 142.98 15.01 146.39 11.19 150.98 9.23 L 151.81 9.82 C 140.36 17.07 131.89 27.94 122.81 37.80 C 107.26 56.34 91.32 74.78 79.25 95.86 C 76.70 99.61 75.04 103.90 72.22 107.47 C 81.34 87.10 95.12 69.27 109.07 51.99 C 118.83 40.47 128.59 28.91 139.31 18.25 Z" />
<path fill="#e6d9fc" opacity="1.00" d=" M 54.39 161.87 C 54.52 162.03 54.80 162.34 54.93 162.50 C 56.99 162.53 59.04 162.44 61.10 162.38 C 61.49 162.68 62.27 163.30 62.65 163.60 C 63.69 161.81 65.46 162.27 66.41 163.87 C 66.69 166.02 66.87 168.18 66.88 170.35 C 66.86 170.90 66.82 172.00 66.80 172.54 C 65.74 172.23 64.69 171.91 63.64 171.57 C 62.77 172.14 61.90 172.71 61.03 173.29 C 60.64 172.77 59.86 171.73 59.48 171.21 C 57.57 168.21 55.78 165.13 54.39 161.87 Z" />
</g>
<g id="#ae9fcfff">
<path fill="#ae9fcf" opacity="1.00" d=" M 150.98 9.23 C 151.51 8.93 152.57 8.34 153.10 8.05 C 154.64 9.66 155.74 11.61 154.99 13.89 C 152.79 17.26 149.60 19.80 146.39 22.15 C 146.63 17.43 150.32 14.18 152.86 10.55 C 152.60 10.37 152.07 10.00 151.81 9.82 L 150.98 9.23 Z" />
</g>
<g id="#e4deefff">
<path fill="#e4deef" opacity="1.00" d=" M 6.05 9.53 C 9.41 12.96 11.31 17.61 12.69 22.16 C 12.15 21.38 11.61 20.61 11.05 19.85 C 12.39 26.26 14.12 32.58 15.46 38.99 C 16.04 37.64 16.61 36.29 17.19 34.94 C 18.05 37.32 18.97 39.68 19.66 42.11 C 19.15 41.26 18.63 40.43 18.09 39.60 C 18.00 45.18 19.15 50.92 22.37 55.56 C 22.88 55.77 23.91 56.19 24.42 56.40 L 24.66 56.49 C 25.68 59.49 26.44 62.58 27.51 65.56 C 29.52 69.91 32.28 73.88 34.09 78.33 C 30.82 76.89 30.00 73.11 28.14 70.39 L 27.53 71.67 L 27.36 72.02 C 24.43 63.60 19.57 56.08 15.92 47.99 C 15.01 45.92 14.04 43.89 13.08 41.85 C 9.85 34.43 6.85 26.84 5.16 18.90 C 5.78 19.72 6.40 20.52 7.04 21.32 C 6.44 17.41 6.01 13.48 6.05 9.53 Z" />
</g>
<g id="#9388afff">
<path fill="#9388af" opacity="1.00" d=" M 151.81 9.82 C 152.07 10.00 152.60 10.37 152.86 10.55 C 150.32 14.18 146.63 17.43 146.39 22.15 C 149.60 19.80 152.79 17.26 154.99 13.89 C 154.84 15.12 154.70 16.36 154.56 17.60 L 154.35 17.77 C 149.95 20.95 146.86 25.48 142.84 29.07 L 143.13 27.95 C 141.00 29.73 138.84 31.70 138.17 34.51 C 137.87 34.94 137.56 35.37 137.25 35.79 L 136.75 35.15 C 134.83 36.97 132.71 38.81 132.15 41.52 C 131.76 42.01 131.37 42.49 130.98 42.97 L 131.15 41.86 C 125.95 46.48 121.99 52.24 117.46 57.48 C 107.53 69.18 99.45 82.27 90.18 94.48 C 90.38 89.13 92.42 84.11 92.95 78.81 C 87.35 83.63 86.41 92.75 79.25 95.86 C 91.32 74.78 107.26 56.34 122.81 37.80 C 131.89 27.94 140.36 17.07 151.81 9.82 Z" />
</g>
<g id="#ab9cc7ff">
<path fill="#ab9cc7" opacity="1.00" d=" M 142.84 29.07 C 146.86 25.48 149.95 20.95 154.35 17.77 C 152.64 23.64 150.37 29.32 147.83 34.88 C 143.25 38.74 138.02 41.72 133.23 45.30 C 129.41 47.84 126.43 51.45 122.45 53.77 C 124.62 49.67 128.03 46.49 130.98 42.97 C 131.37 42.49 131.76 42.01 132.15 41.52 C 133.85 39.61 135.63 37.77 137.25 35.79 C 137.56 35.37 137.87 34.94 138.17 34.51 C 139.65 32.63 141.23 30.83 142.84 29.07 Z" />
</g>
<g id="#fef8feff">
<path fill="#fef8fe" opacity="1.00" d=" M 11.05 19.85 C 11.61 20.61 12.15 21.38 12.69 22.16 C 14.43 26.33 15.71 30.68 17.19 34.94 C 16.61 36.29 16.04 37.64 15.46 38.99 C 14.12 32.58 12.39 26.26 11.05 19.85 Z" />
<path fill="#fef8fe" opacity="1.00" d=" M 45.94 70.97 C 46.45 65.89 47.05 60.81 48.02 55.80 C 48.50 58.86 48.39 61.97 47.94 65.03 C 46.51 75.98 46.01 87.01 45.60 98.04 C 45.66 104.74 44.39 111.36 44.56 118.06 C 44.37 115.24 44.14 112.42 44.06 109.59 C 44.69 104.38 44.45 99.13 44.63 93.90 C 44.85 89.00 44.63 84.08 45.21 79.20 C 45.56 76.46 45.83 73.72 45.94 70.97 Z" />
<path fill="#fef8fe" opacity="1.00" d=" M 50.26 168.50 C 49.17 165.36 47.71 159.00 52.36 158.24 L 52.28 160.05 C 52.24 160.53 52.17 161.50 52.13 161.98 C 52.52 161.57 53.30 160.75 53.69 160.34 L 54.39 161.87 C 55.78 165.13 57.57 168.21 59.48 171.21 C 58.68 171.63 57.88 172.05 57.08 172.48 C 56.76 171.87 56.13 170.65 55.81 170.04 C 55.34 170.54 54.39 171.55 53.92 172.06 C 53.16 170.91 52.40 169.78 51.61 168.66 C 51.27 168.62 50.60 168.54 50.26 168.50 Z" />
</g>
<g id="#63616fff">
<path fill="#63616f" opacity="1.00" d=" M 138.17 34.51 C 138.84 31.70 141.00 29.73 143.13 27.95 L 142.84 29.07 C 141.23 30.83 139.65 32.63 138.17 34.51 Z" />
<path fill="#63616f" opacity="1.00" d=" M 132.15 41.52 C 132.71 38.81 134.83 36.97 136.75 35.15 L 137.25 35.79 C 135.63 37.77 133.85 39.61 132.15 41.52 Z" />
<path fill="#63616f" opacity="1.00" d=" M 133.23 45.30 C 138.02 41.72 143.25 38.74 147.83 34.88 C 147.30 36.27 146.72 37.65 146.08 38.99 L 146.08 37.54 C 139.61 42.09 132.74 46.24 127.16 51.90 C 123.11 55.29 118.96 58.57 115.18 62.25 C 111.88 65.71 109.17 69.67 106.45 73.58 C 101.30 81.32 96.03 88.99 90.87 96.72 C 86.64 103.19 81.39 109.07 78.24 116.18 C 83.18 112.33 87.56 107.79 91.84 103.22 C 98.34 95.81 105.64 89.14 112.18 81.75 C 121.44 72.79 130.51 63.65 139.53 54.46 C 141.18 52.57 141.74 50.04 142.71 47.79 C 141.95 50.23 141.30 52.71 140.59 55.17 L 140.34 55.35 C 137.12 57.42 134.75 60.44 132.11 63.14 C 123.43 72.11 114.30 80.65 106.03 90.02 C 102.15 93.84 98.55 97.93 94.86 101.94 C 90.82 106.27 86.93 110.74 82.81 115.00 C 81.35 116.59 80.03 118.31 78.93 120.17 C 78.73 119.78 78.33 119.01 78.13 118.62 C 77.35 117.38 76.49 116.19 75.57 115.04 C 77.64 112.28 79.68 109.50 81.71 106.71 C 84.72 102.77 87.85 98.88 90.18 94.48 C 99.45 82.27 107.53 69.18 117.46 57.48 C 121.99 52.24 125.95 46.48 131.15 41.86 L 130.98 42.97 C 128.03 46.49 124.62 49.67 122.45 53.77 C 126.43 51.45 129.41 47.84 133.23 45.30 Z" />
<path fill="#63616f" opacity="1.00" d=" M 131.59 74.62 C 134.00 72.34 137.12 70.34 137.75 66.82 C 137.17 70.21 136.68 73.61 136.01 76.99 C 136.11 75.17 136.16 73.36 136.21 71.55 C 126.15 80.56 116.74 90.28 107.07 99.70 C 102.73 103.58 98.74 107.82 94.84 112.13 C 101.13 109.67 107.50 107.31 114.22 106.34 C 119.04 105.65 123.91 105.60 128.75 105.91 C 129.43 104.56 130.12 103.21 130.77 101.85 C 130.13 103.76 129.46 105.65 128.80 107.55 L 128.72 107.54 C 120.64 105.58 112.18 107.71 104.43 110.14 C 101.82 110.96 99.30 112.03 96.82 113.16 C 93.01 114.91 89.46 117.15 86.02 119.53 L 84.87 118.91 C 85.13 118.43 85.67 117.48 85.94 117.00 C 89.96 113.42 94.45 110.38 98.22 106.52 C 101.30 103.48 104.51 100.59 107.66 97.64 C 115.68 90.01 123.56 82.24 131.59 74.62 Z" />
<path fill="#63616f" opacity="1.00" d=" M 45.21 79.20 C 45.18 76.44 45.42 73.68 45.94 70.97 C 45.83 73.72 45.56 76.46 45.21 79.20 Z" />
<path fill="#63616f" opacity="1.00" d=" M 73.79 159.60 C 76.17 156.04 78.28 152.29 79.91 148.32 C 80.49 148.88 81.64 149.98 82.22 150.53 C 82.74 151.24 83.23 151.98 83.73 152.71 L 82.01 151.94 L 82.92 154.07 C 82.37 153.24 81.81 152.42 81.25 151.61 C 80.63 153.19 80.02 154.78 79.39 156.36 C 77.84 157.77 76.40 159.28 75.04 160.87 C 73.89 160.30 72.74 159.74 71.60 159.17 C 71.57 160.10 71.53 161.96 71.51 162.89 C 70.25 162.23 68.98 161.56 67.72 160.90 C 67.29 161.89 66.85 162.88 66.41 163.87 C 65.46 162.27 63.69 161.81 62.65 163.60 C 62.27 163.30 61.49 162.68 61.10 162.38 C 59.04 162.44 56.99 162.53 54.93 162.50 C 54.80 162.34 54.52 162.03 54.39 161.87 L 53.69 160.34 C 53.30 160.75 52.52 161.57 52.13 161.98 C 52.17 161.50 52.24 160.53 52.28 160.05 C 52.97 159.79 53.66 159.53 54.35 159.28 C 54.39 161.49 55.70 161.83 57.53 161.04 C 59.60 161.76 61.83 162.01 63.75 160.75 C 64.60 161.26 65.46 161.77 66.31 162.28 C 66.39 161.54 66.53 160.05 66.61 159.30 C 67.73 159.88 68.84 160.49 69.96 161.10 C 70.35 159.58 70.74 158.04 71.51 156.67 C 72.28 157.64 73.04 158.62 73.79 159.60 Z" />
<path fill="#63616f" opacity="1.00" d=" M 49.69 158.37 C 50.58 157.94 51.48 157.51 52.37 157.08 C 52.37 157.46 52.37 157.85 52.36 158.24 C 47.71 159.00 49.17 165.36 50.26 168.50 C 50.60 168.54 51.27 168.62 51.61 168.66 C 52.40 169.78 53.16 170.91 53.92 172.06 C 54.39 171.55 55.34 170.54 55.81 170.04 C 56.13 170.65 56.76 171.87 57.08 172.48 C 57.88 172.05 58.68 171.63 59.48 171.21 C 59.86 171.73 60.64 172.77 61.03 173.29 C 61.90 172.71 62.77 172.14 63.64 171.57 C 64.69 171.91 65.74 172.23 66.80 172.54 C 66.82 172.00 66.86 170.90 66.88 170.35 C 67.75 170.82 68.61 171.28 69.47 171.75 C 70.87 171.56 72.26 171.38 73.66 171.21 C 74.08 170.60 74.92 169.40 75.34 168.79 C 76.32 169.34 77.30 169.90 78.27 170.45 C 79.41 168.89 80.53 167.31 81.62 165.71 C 81.95 165.67 82.61 165.60 82.94 165.56 C 83.64 164.62 84.34 163.69 85.05 162.76 C 85.18 165.91 84.93 169.08 84.12 172.14 C 84.22 170.63 84.30 169.12 84.36 167.62 C 84.03 167.83 83.36 168.27 83.03 168.49 C 81.32 169.55 79.59 170.64 78.14 172.06 C 77.59 171.63 76.49 170.77 75.94 170.34 C 75.23 171.07 74.53 171.81 73.82 172.55 C 72.68 172.76 71.54 172.98 70.39 173.19 C 68.99 172.21 67.09 171.67 66.50 173.84 C 65.74 173.40 64.98 172.98 64.21 172.57 C 62.06 175.03 59.20 171.20 57.45 173.68 C 57.02 172.99 56.59 172.30 56.14 171.63 C 54.42 173.24 51.98 170.42 50.68 172.37 L 50.31 172.54 C 48.34 168.29 49.33 163.45 49.23 158.93 L 49.69 158.37 Z" />
<path fill="#63616f" opacity="1.00" d=" M 53.26 177.73 C 54.18 178.57 55.16 179.36 56.13 180.16 C 58.04 181.61 60.58 181.73 62.86 182.22 C 65.88 181.88 68.92 181.39 71.97 181.73 C 72.33 181.33 73.04 180.55 73.40 180.16 C 74.19 180.42 74.97 180.68 75.76 180.95 C 76.39 180.45 77.02 179.94 77.65 179.44 C 78.15 179.83 79.13 180.61 79.62 181.01 C 77.50 181.65 75.37 182.26 73.20 182.72 C 71.09 183.22 68.92 183.20 66.79 182.82 C 66.49 183.00 65.89 183.38 65.60 183.57 C 63.04 183.16 60.55 182.42 58.08 181.68 C 57.79 181.94 57.23 182.45 56.95 182.71 C 56.63 182.69 56.01 182.66 55.70 182.64 C 55.12 180.85 53.45 179.66 53.26 177.73 Z" />
</g>
<g id="#aa99c2ff">
<path fill="#aa99c2" opacity="1.00" d=" M 127.16 51.90 C 132.74 46.24 139.61 42.09 146.08 37.54 L 146.08 38.99 C 145.19 42.01 143.80 44.85 142.71 47.79 C 141.74 50.04 141.18 52.57 139.53 54.46 C 130.51 63.65 121.44 72.79 112.18 81.75 C 113.41 74.59 117.91 68.54 121.49 62.37 C 123.39 58.90 127.53 56.25 127.16 51.90 Z" />
</g>
<g id="#f7f0f8fd">
<path fill="#f7f0f8" opacity="1.00" d=" M 18.09 39.60 C 18.63 40.43 19.15 41.26 19.66 42.11 C 20.86 45.42 22.23 48.71 22.95 52.17 C 23.16 52.64 23.58 53.60 23.79 54.08 C 23.95 54.66 24.27 55.82 24.42 56.40 C 23.91 56.19 22.88 55.77 22.37 55.56 C 19.15 50.92 18.00 45.18 18.09 39.60 Z" />
</g>
<g id="#f3edf6ff">
<path fill="#f3edf6" opacity="1.00" d=" M 50.53 40.91 C 50.95 40.62 51.78 40.04 52.19 39.75 L 52.11 40.88 C 51.97 42.39 51.80 43.91 51.70 45.43 C 50.14 48.05 50.01 51.26 48.26 53.77 C 48.79 49.46 49.42 45.12 50.53 40.91 Z" />
<path fill="#f3edf6" opacity="1.00" d=" M 35.85 68.65 L 36.99 69.16 C 37.64 71.59 38.25 74.04 39.10 76.41 L 39.39 77.23 L 39.33 77.59 C 38.30 81.70 39.53 85.86 39.52 90.00 C 39.54 94.79 39.78 99.61 39.12 104.37 C 35.44 93.41 31.34 82.55 27.53 71.67 L 28.14 70.39 C 30.00 73.11 30.82 76.89 34.09 78.33 L 34.43 78.54 C 35.21 80.10 35.97 81.67 36.77 83.23 C 37.10 78.34 35.78 73.54 35.85 68.65 Z" />
</g>
<g id="#a49cdfff">
<path fill="#a49cdf" opacity="1.00" d=" M 52.11 40.88 C 53.15 57.92 52.14 75.15 54.90 92.08 C 54.85 93.34 54.80 94.60 54.74 95.86 C 54.28 94.36 53.82 92.85 53.07 91.46 C 51.98 102.72 55.22 114.03 53.24 125.25 C 52.45 128.85 50.51 132.06 49.74 135.66 C 51.17 135.97 52.60 136.27 54.03 136.58 C 53.64 138.31 52.57 139.68 51.17 140.73 C 49.73 138.91 48.49 136.96 47.25 135.00 C 47.20 136.83 47.16 138.67 47.08 140.51 C 46.06 139.15 44.53 137.91 44.51 136.06 C 45.11 134.88 45.91 133.82 46.66 132.75 C 46.40 131.44 46.13 130.14 45.85 128.84 C 48.91 125.67 51.33 121.62 51.14 117.06 C 51.33 102.39 50.45 87.70 50.81 73.02 C 51.65 63.86 52.53 54.63 51.70 45.43 C 51.80 43.91 51.97 42.39 52.11 40.88 Z" />
<path fill="#a49cdf" opacity="1.00" d=" M 82.75 69.44 C 82.88 69.73 83.15 70.30 83.28 70.59 C 82.48 72.69 81.67 74.79 81.15 76.98 L 81.00 77.53 L 80.87 77.56 C 79.61 77.78 78.36 78.04 77.13 78.38 C 78.86 75.32 80.72 72.32 82.75 69.44 Z" />
</g>
<g id="#18171aff">
<path fill="#18171a" opacity="1.00" d=" M 13.08 41.85 C 14.04 43.89 15.01 45.92 15.92 47.99 C 14.85 46.00 13.90 43.96 13.08 41.85 Z" />
<path fill="#18171a" opacity="1.00" d=" M 32.52 121.97 C 33.46 118.00 37.30 114.96 41.43 116.60 C 42.47 118.75 43.52 120.92 44.24 123.21 C 43.76 125.27 41.91 126.37 40.25 127.42 C 37.44 127.93 34.63 126.61 33.30 124.07 C 33.10 123.55 32.71 122.49 32.52 121.97 Z" />
<path fill="#18171a" opacity="1.00" d=" M 65.50 117.61 C 67.70 116.29 70.27 116.94 72.37 118.09 C 73.03 119.02 73.65 119.97 74.23 120.96 C 73.95 123.28 73.83 126.17 71.61 127.55 C 70.16 128.01 68.64 128.11 67.15 128.33 C 66.19 127.84 65.24 127.33 64.30 126.80 C 63.49 125.27 63.03 123.59 62.52 121.94 C 63.46 120.47 64.21 118.82 65.50 117.61 Z" />
<path fill="#18171a" opacity="1.00" d=" M 78.05 127.44 C 80.26 127.99 82.49 128.46 84.74 128.87 C 86.23 129.16 87.72 129.44 89.21 129.76 C 91.65 130.32 94.08 130.96 96.48 131.70 C 98.06 132.21 99.62 132.77 101.17 133.36 C 102.25 133.78 103.32 134.21 104.39 134.65 C 110.68 137.38 116.96 140.18 122.85 143.69 L 123.68 142.87 C 123.36 143.38 123.04 143.89 122.73 144.41 C 117.07 140.32 110.36 138.12 104.13 135.11 C 101.56 134.02 98.94 133.07 96.27 132.24 C 89.84 130.62 82.99 128.14 76.34 129.93 C 81.57 132.62 87.19 134.39 92.61 136.64 C 95.54 137.80 98.44 139.06 101.31 140.38 C 106.89 142.81 112.07 146.03 117.48 148.76 C 118.99 149.92 119.84 147.83 120.82 147.02 C 119.93 148.22 119.05 149.43 118.19 150.65 C 118.04 150.31 117.72 149.62 117.57 149.27 C 112.81 146.89 108.15 144.31 103.38 141.96 C 99.96 140.24 96.43 138.78 92.87 137.38 C 90.02 136.27 87.17 135.16 84.30 134.11 C 81.88 133.17 79.38 132.49 76.85 131.96 C 76.68 131.48 76.35 130.53 76.18 130.05 C 76.84 129.20 77.46 128.34 78.05 127.44 Z" />
<path fill="#18171a" opacity="1.00" d=" M 75.70 133.94 C 77.13 134.80 78.59 135.62 80.00 136.51 C 83.60 138.85 87.15 141.27 90.67 143.74 C 94.21 146.26 97.29 149.34 100.37 152.39 C 102.46 154.41 104.48 156.52 106.37 158.73 C 107.28 158.26 108.19 157.77 109.10 157.28 C 108.19 157.96 107.27 158.63 106.36 159.30 L 106.18 159.11 C 103.03 155.79 99.79 152.54 96.49 149.36 C 94.84 147.79 93.10 146.30 91.28 144.93 C 89.35 143.51 87.37 142.17 85.36 140.90 C 82.81 139.21 80.11 137.77 77.45 136.27 C 76.85 135.50 76.26 134.73 75.70 133.94 Z" />
</g>
<g id="#c7b3feff">
<path fill="#c7b3fe" opacity="1.00" d=" M 48.26 53.77 C 50.01 51.26 50.14 48.05 51.70 45.43 C 52.53 54.63 51.65 63.86 50.81 73.02 C 50.45 87.70 51.33 102.39 51.14 117.06 C 51.33 121.62 48.91 125.67 45.85 128.84 C 45.32 126.96 44.81 125.07 44.24 123.21 C 43.52 120.92 42.47 118.75 41.43 116.60 C 41.32 115.91 41.09 114.54 40.98 113.85 C 41.51 114.51 42.05 115.16 42.60 115.81 C 43.06 113.73 43.57 111.66 44.06 109.59 C 44.14 112.42 44.37 115.24 44.56 118.06 C 44.39 111.36 45.66 104.74 45.60 98.04 C 46.01 87.01 46.51 75.98 47.94 65.03 C 48.39 61.97 48.50 58.86 48.02 55.80 C 48.08 55.30 48.20 54.28 48.26 53.77 Z" />
</g>
<g id="#4848488d">
<path fill="#484848" opacity="0.55" d=" M 22.95 52.17 L 23.84 52.29 L 24.28 53.27 L 23.79 54.08 C 23.58 53.60 23.16 52.64 22.95 52.17 Z" />
</g>
<g id="#9f92b9ff">
<path fill="#9f92b9" opacity="1.00" d=" M 115.18 62.25 C 118.96 58.57 123.11 55.29 127.16 51.90 C 127.53 56.25 123.39 58.90 121.49 62.37 C 117.91 68.54 113.41 74.59 112.18 81.75 C 105.64 89.14 98.34 95.81 91.84 103.22 C 91.56 102.88 90.99 102.18 90.70 101.84 C 90.76 100.13 90.82 98.43 90.87 96.72 C 96.03 88.99 101.30 81.32 106.45 73.58 C 109.17 69.67 111.88 65.71 115.18 62.25 Z" />
</g>
<g id="#ac9cc3ff">
<path fill="#ac9cc3" opacity="1.00" d=" M 132.11 63.14 C 134.75 60.44 137.12 57.42 140.34 55.35 C 139.32 59.14 138.45 62.96 137.75 66.82 C 137.12 70.34 134.00 72.34 131.59 74.62 C 123.56 82.24 115.68 90.01 107.66 97.64 C 106.30 95.33 106.27 92.61 106.03 90.02 C 114.30 80.65 123.43 72.11 132.11 63.14 Z" />
</g>
<g id="#53536494">
<path fill="#535364" opacity="0.58" d=" M 36.99 69.16 C 38.47 71.29 38.76 73.91 39.10 76.41 C 38.25 74.04 37.64 71.59 36.99 69.16 Z" />
</g>
<g id="#3c3c5299">
<path fill="#3c3c52" opacity="0.60" d=" M 82.56 69.02 C 82.99 69.27 83.85 69.77 84.28 70.02 C 83.47 72.43 82.50 74.80 81.15 76.98 C 81.67 74.79 82.48 72.69 83.28 70.59 C 83.15 70.30 82.88 69.73 82.75 69.44 L 82.56 69.02 Z" />
</g>
<g id="#ad9dc4ff">
<path fill="#ad9dc4" opacity="1.00" d=" M 107.07 99.70 C 116.74 90.28 126.15 80.56 136.21 71.55 C 136.16 73.36 136.11 75.17 136.01 76.99 C 134.89 85.36 133.63 93.87 130.77 101.85 C 130.12 103.21 129.43 104.56 128.75 105.91 C 123.91 105.60 119.04 105.65 114.22 106.34 C 112.39 106.09 110.57 105.76 108.74 105.44 C 108.19 103.52 107.63 101.61 107.07 99.70 Z" />
</g>
<g id="#7473aaff">
<path fill="#7473aa" opacity="1.00" d=" M 77.13 78.38 C 78.36 78.04 79.61 77.78 80.87 77.56 C 76.55 89.10 71.80 100.49 67.98 112.22 C 63.05 112.92 60.40 117.43 58.48 121.53 C 56.91 124.75 56.49 128.36 55.47 131.77 C 56.35 131.54 57.23 131.30 58.12 131.07 C 58.14 131.63 58.19 132.77 58.22 133.33 C 57.67 133.83 56.57 134.81 56.03 135.30 C 56.61 137.79 57.26 140.27 57.75 142.78 C 57.31 145.65 58.34 148.40 60.36 150.45 C 56.68 152.23 51.54 149.64 50.01 145.96 C 48.81 142.59 44.26 142.58 42.65 139.56 C 42.17 137.16 42.17 134.71 41.97 132.28 C 42.57 133.21 43.17 134.14 43.78 135.07 C 44.31 132.97 43.59 130.06 45.85 128.84 C 46.13 130.14 46.40 131.44 46.66 132.75 C 45.91 133.82 45.11 134.88 44.51 136.06 C 44.53 137.91 46.06 139.15 47.08 140.51 C 47.16 138.67 47.20 136.83 47.25 135.00 C 48.49 136.96 49.73 138.91 51.17 140.73 C 52.28 140.71 53.39 140.65 54.50 140.61 C 54.51 138.36 56.18 134.62 52.88 134.00 C 54.84 128.03 55.50 121.53 59.13 116.23 C 63.29 107.72 68.97 99.92 71.98 90.88 C 74.06 87.45 77.54 83.62 76.45 79.38 L 76.27 78.79 C 76.48 78.69 76.91 78.48 77.13 78.38 Z" />
</g>
<g id="#aba6ecff">
<path fill="#aba6ec" opacity="1.00" d=" M 39.33 77.59 C 41.22 82.66 42.21 88.03 43.84 93.16 L 44.63 93.90 C 44.45 99.13 44.69 104.38 44.06 109.59 C 43.57 111.66 43.06 113.73 42.60 115.81 C 42.05 115.16 41.51 114.51 40.98 113.85 C 40.90 113.33 40.73 112.31 40.64 111.80 C 40.29 109.42 39.81 107.05 39.07 104.76 L 39.12 104.37 C 39.78 99.61 39.54 94.79 39.52 90.00 C 39.53 85.86 38.30 81.70 39.33 77.59 Z" />
</g>
<g id="#7e789eff">
<path fill="#7e789e" opacity="1.00" d=" M 79.25 95.86 C 86.41 92.75 87.35 83.63 92.95 78.81 C 92.42 84.11 90.38 89.13 90.18 94.48 C 87.85 98.88 84.72 102.77 81.71 106.71 C 80.26 103.38 83.31 100.20 81.80 96.82 C 78.14 102.05 75.94 108.22 71.29 112.77 L 70.61 112.46 C 70.83 110.72 71.02 108.85 72.22 107.47 C 75.04 103.90 76.70 99.61 79.25 95.86 Z" />
</g>
<g id="#908acaff">
<path fill="#908aca" opacity="1.00" d=" M 76.45 79.38 C 77.54 83.62 74.06 87.45 71.98 90.88 C 68.97 99.92 63.29 107.72 59.13 116.23 C 55.50 121.53 54.84 128.03 52.88 134.00 C 56.18 134.62 54.51 138.36 54.50 140.61 C 53.39 140.65 52.28 140.71 51.17 140.73 C 52.57 139.68 53.64 138.31 54.03 136.58 C 52.60 136.27 51.17 135.97 49.74 135.66 C 50.51 132.06 52.45 128.85 53.24 125.25 C 55.22 114.03 51.98 102.72 53.07 91.46 C 53.82 92.85 54.28 94.36 54.74 95.86 C 54.80 94.60 54.85 93.34 54.90 92.08 C 55.36 94.05 55.81 96.02 56.03 98.03 C 55.95 99.51 55.84 100.99 55.70 102.47 C 55.22 101.00 54.77 99.52 54.29 98.05 C 54.26 103.08 54.75 108.10 55.65 113.05 C 55.88 112.75 56.36 112.16 56.60 111.86 C 56.76 112.68 57.08 114.30 57.24 115.11 C 60.49 111.40 62.91 106.64 63.06 101.63 L 63.08 101.33 C 67.50 93.99 71.82 86.59 76.45 79.38 Z" />
</g>
<g id="#9b8fb5ff">
<path fill="#9b8fb5" opacity="1.00" d=" M 94.86 101.94 C 98.55 97.93 102.15 93.84 106.03 90.02 C 106.27 92.61 106.30 95.33 107.66 97.64 C 104.51 100.59 101.30 103.48 98.22 106.52 C 97.10 104.99 95.98 103.47 94.86 101.94 Z" />
</g>
<g id="#6f6b90ff">
<path fill="#6f6b90" opacity="1.00" d=" M 71.29 112.77 C 75.94 108.22 78.14 102.05 81.80 96.82 C 83.31 100.20 80.26 103.38 81.71 106.71 C 79.68 109.50 77.64 112.28 75.57 115.04 C 75.14 114.79 74.27 114.28 73.83 114.03 C 72.99 113.59 72.15 113.18 71.29 112.77 Z" />
</g>
<g id="#857ea3ff">
<path fill="#857ea3" opacity="1.00" d=" M 78.24 116.18 C 81.39 109.07 86.64 103.19 90.87 96.72 C 90.82 98.43 90.76 100.13 90.70 101.84 C 90.99 102.18 91.56 102.88 91.84 103.22 C 87.56 107.79 83.18 112.33 78.24 116.18 Z" />
</g>
<g id="#7979acff">
<path fill="#7979ac" opacity="1.00" d=" M 55.65 113.05 C 54.75 108.10 54.26 103.08 54.29 98.05 C 54.77 99.52 55.22 101.00 55.70 102.47 C 55.84 100.99 55.95 99.51 56.03 98.03 C 56.97 101.17 56.55 105.11 59.18 107.45 C 58.28 108.90 57.46 110.39 56.60 111.86 C 56.36 112.16 55.88 112.75 55.65 113.05 Z" />
</g>
<g id="#9d91b6ff">
<path fill="#9d91b6" opacity="1.00" d=" M 94.84 112.13 C 98.74 107.82 102.73 103.58 107.07 99.70 C 107.63 101.61 108.19 103.52 108.74 105.44 C 110.57 105.76 112.39 106.09 114.22 106.34 C 107.50 107.31 101.13 109.67 94.84 112.13 Z" />
</g>
<g id="#9f92e1fc">
<path fill="#9f92e1" opacity="1.00" d=" M 59.18 107.45 C 60.44 105.49 61.70 103.53 63.06 101.63 C 62.91 106.64 60.49 111.40 57.24 115.11 C 57.08 114.30 56.76 112.68 56.60 111.86 C 57.46 110.39 58.28 108.90 59.18 107.45 Z" />
</g>
<g id="#8a81a5ff">
<path fill="#8a81a5" opacity="1.00" d=" M 82.81 115.00 C 86.93 110.74 90.82 106.27 94.86 101.94 C 95.98 103.47 97.10 104.99 98.22 106.52 C 94.45 110.38 89.96 113.42 85.94 117.00 C 84.90 116.33 83.85 115.67 82.81 115.00 Z" />
</g>
<g id="#9b8db6ff">
<path fill="#9b8db6" opacity="1.00" d=" M 104.43 110.14 C 112.18 107.71 120.64 105.58 128.72 107.54 C 126.60 111.98 123.30 115.71 120.32 119.59 C 117.51 117.10 115.11 114.14 112.02 111.98 C 109.61 110.98 106.98 110.64 104.43 110.14 Z" />
</g>
<g id="#8c82aaff">
<path fill="#8c82aa" opacity="1.00" d=" M 96.82 113.16 C 99.30 112.03 101.82 110.96 104.43 110.14 C 106.98 110.64 109.61 110.98 112.02 111.98 C 115.11 114.14 117.51 117.10 120.32 119.59 C 119.80 119.81 118.75 120.25 118.22 120.47 C 115.43 120.24 112.74 119.42 110.07 118.66 C 105.95 117.97 101.75 118.15 97.60 117.78 C 100.05 117.41 102.48 116.92 104.91 116.50 C 102.23 115.34 99.53 114.24 96.82 113.16 Z" />
</g>
<g id="#fafafbfe">
<path fill="#fafafb" opacity="1.00" d=" M 30.56 115.64 C 33.00 112.69 36.88 111.33 40.64 111.80 C 40.73 112.31 40.90 113.33 40.98 113.85 C 41.09 114.54 41.32 115.91 41.43 116.60 C 37.30 114.96 33.46 118.00 32.52 121.97 C 32.71 122.49 33.10 123.55 33.30 124.07 C 32.23 124.78 31.16 125.48 30.08 126.16 L 29.19 126.61 C 28.48 123.01 27.72 118.55 30.56 115.64 Z" />
</g>
<g id="#fafdfeff">
<path fill="#fafdfe" opacity="1.00" d=" M 58.48 121.53 C 60.40 117.43 63.05 112.92 67.98 112.22 C 68.64 112.28 69.96 112.40 70.61 112.46 L 71.29 112.77 C 72.15 113.18 72.99 113.59 73.83 114.03 C 73.34 115.38 72.85 116.74 72.37 118.09 C 70.27 116.94 67.70 116.29 65.50 117.61 C 64.21 118.82 63.46 120.47 62.52 121.94 C 63.03 123.59 63.49 125.27 64.30 126.80 C 63.07 127.68 61.84 128.56 60.61 129.44 C 58.75 127.21 58.19 124.37 58.48 121.53 Z" />
</g>
<g id="#7b789aff">
<path fill="#7b789a" opacity="1.00" d=" M 86.02 119.53 C 89.46 117.15 93.01 114.91 96.82 113.16 C 99.53 114.24 102.23 115.34 104.91 116.50 C 102.48 116.92 100.05 117.41 97.60 117.78 C 97.27 117.81 96.60 117.86 96.27 117.89 C 94.73 118.06 93.16 118.19 91.68 118.68 C 90.69 122.33 90.18 126.10 89.21 129.76 C 87.72 129.44 86.23 129.16 84.74 128.87 C 84.67 126.23 84.47 123.59 84.13 120.97 C 84.75 120.48 85.38 120.00 86.02 119.53 Z" />
</g>
<g id="#cbdefcff">
<path fill="#cbdefc" opacity="1.00" d=" M 73.83 114.03 C 74.27 114.28 75.14 114.79 75.57 115.04 C 76.49 116.19 77.35 117.38 78.13 118.62 C 77.17 120.00 76.22 121.38 75.28 122.76 C 75.01 122.31 74.49 121.41 74.23 120.96 C 73.65 119.97 73.03 119.02 72.37 118.09 C 72.85 116.74 73.34 115.38 73.83 114.03 Z" />
</g>
<g id="#6d6d8dff">
<path fill="#6d6d8d" opacity="1.00" d=" M 78.93 120.17 C 80.03 118.31 81.35 116.59 82.81 115.00 C 83.85 115.67 84.90 116.33 85.94 117.00 C 85.67 117.48 85.13 118.43 84.87 118.91 L 86.02 119.53 C 85.38 120.00 84.75 120.48 84.13 120.97 C 84.47 123.59 84.67 126.23 84.74 128.87 C 82.49 128.46 80.26 127.99 78.05 127.44 C 78.50 125.04 78.73 122.60 78.93 120.17 Z" />
</g>
<g id="#8885a5ff">
<path fill="#8885a5" opacity="1.00" d=" M 91.68 118.68 C 93.16 118.19 94.73 118.06 96.27 117.89 C 97.76 122.41 96.27 127.08 96.48 131.70 C 94.08 130.96 91.65 130.32 89.21 129.76 C 90.18 126.10 90.69 122.33 91.68 118.68 Z" />
</g>
<g id="#9490b1ff">
<path fill="#9490b1" opacity="1.00" d=" M 96.27 117.89 C 96.60 117.86 97.27 117.81 97.60 117.78 C 101.75 118.15 105.95 117.97 110.07 118.66 C 108.37 124.24 105.57 129.45 101.17 133.36 C 99.62 132.77 98.06 132.21 96.48 131.70 C 96.27 127.08 97.76 122.41 96.27 117.89 Z" />
</g>
<g id="#a2b7deff">
<path fill="#a2b7de" opacity="1.00" d=" M 78.13 118.62 C 78.33 119.01 78.73 119.78 78.93 120.17 C 78.73 122.60 78.50 125.04 78.05 127.44 C 77.46 128.34 76.84 129.20 76.18 130.05 C 73.24 131.95 69.84 132.97 66.35 133.12 C 65.99 132.93 65.27 132.57 64.91 132.39 C 66.51 131.39 68.11 130.41 69.72 129.43 C 68.86 129.07 68.00 128.70 67.15 128.33 C 68.64 128.11 70.16 128.01 71.61 127.55 C 73.83 126.17 73.95 123.28 74.23 120.96 C 74.49 121.41 75.01 122.31 75.28 122.76 C 76.22 121.38 77.17 120.00 78.13 118.62 Z" />
</g>
<g id="#a09abcff">
<path fill="#a09abc" opacity="1.00" d=" M 101.17 133.36 C 105.57 129.45 108.37 124.24 110.07 118.66 C 112.74 119.42 115.43 120.24 118.22 120.47 C 118.76 120.94 119.84 121.87 120.37 122.34 C 120.19 122.91 119.83 124.06 119.64 124.64 C 114.43 127.66 107.28 128.69 104.39 134.65 C 103.32 134.21 102.25 133.78 101.17 133.36 Z" />
</g>
<g id="#4c4c87ff">
<path fill="#4c4c87" opacity="1.00" d=" M 55.47 131.77 C 56.49 128.36 56.91 124.75 58.48 121.53 C 58.19 124.37 58.75 127.21 60.61 129.44 C 61.97 130.52 63.41 131.50 64.91 132.39 C 65.27 132.57 65.99 132.93 66.35 133.12 C 64.10 133.87 61.97 134.91 59.86 135.98 C 59.32 135.08 58.78 134.20 58.22 133.33 C 58.19 132.77 58.14 131.63 58.12 131.07 C 57.23 131.30 56.35 131.54 55.47 131.77 Z" />
</g>
<g id="#bab5d2ff">
<path fill="#bab5d2" opacity="1.00" d=" M 120.37 122.34 C 123.15 123.89 125.97 125.90 127.11 129.02 C 127.70 133.83 126.33 138.86 123.68 142.87 L 122.85 143.69 C 116.96 140.18 110.68 137.38 104.39 134.65 C 107.28 128.69 114.43 127.66 119.64 124.64 C 119.83 124.06 120.19 122.91 120.37 122.34 Z" />
</g>
<g id="#acc3e3ff">
<path fill="#acc3e3" opacity="1.00" d=" M 44.24 123.21 C 44.81 125.07 45.32 126.96 45.85 128.84 C 43.59 130.06 44.31 132.97 43.78 135.07 C 43.17 134.14 42.57 133.21 41.97 132.28 L 41.82 131.99 C 40.01 132.04 38.19 132.08 36.38 132.03 C 35.94 131.85 35.06 131.47 34.63 131.29 C 36.55 130.18 38.60 129.32 40.69 128.57 C 40.58 128.29 40.36 127.71 40.25 127.42 C 41.91 126.37 43.76 125.27 44.24 123.21 Z" />
<path fill="#acc3e3" opacity="1.00" d=" M 83.03 168.49 C 83.36 168.27 84.03 167.83 84.36 167.62 C 84.30 169.12 84.22 170.63 84.12 172.14 C 83.65 174.85 82.52 177.38 81.79 180.03 C 81.54 179.51 81.04 178.47 80.79 177.95 C 81.81 174.86 82.60 171.71 83.03 168.49 Z" />
</g>
<g id="#cbe0fdff">
<path fill="#cbe0fd" opacity="1.00" d=" M 33.30 124.07 C 34.63 126.61 37.44 127.93 40.25 127.42 C 40.36 127.71 40.58 128.29 40.69 128.57 C 38.60 129.32 36.55 130.18 34.63 131.29 C 32.48 130.23 30.69 128.63 29.29 126.70 L 30.08 126.16 C 31.16 125.48 32.23 124.78 33.30 124.07 Z" />
</g>
<g id="#cfe4fcff">
<path fill="#cfe4fc" opacity="1.00" d=" M 64.30 126.80 C 65.24 127.33 66.19 127.84 67.15 128.33 C 68.00 128.70 68.86 129.07 69.72 129.43 C 68.11 130.41 66.51 131.39 64.91 132.39 C 63.41 131.50 61.97 130.52 60.61 129.44 C 61.84 128.56 63.07 127.68 64.30 126.80 Z" />
</g>
<g id="#817e9fff">
<path fill="#817e9f" opacity="1.00" d=" M 76.34 129.93 C 82.99 128.14 89.84 130.62 96.27 132.24 C 94.97 132.84 93.68 133.44 92.38 134.04 C 92.44 134.69 92.55 135.99 92.61 136.64 C 87.19 134.39 81.57 132.62 76.34 129.93 Z" />
</g>
<g id="#5e5d93ff">
<path fill="#5e5d93" opacity="1.00" d=" M 66.35 133.12 C 69.84 132.97 73.24 131.95 76.18 130.05 C 76.35 130.53 76.68 131.48 76.85 131.96 C 79.38 132.49 81.88 133.17 84.30 134.11 C 82.85 134.89 81.42 135.68 80.00 136.51 C 78.59 135.62 77.13 134.80 75.70 133.94 C 75.40 133.71 74.81 133.23 74.52 132.99 C 72.59 135.86 71.04 139.09 68.39 141.39 C 65.48 143.48 61.83 144.38 59.26 146.98 C 59.84 147.02 61.00 147.11 61.59 147.15 C 62.05 147.20 62.96 147.28 63.42 147.32 C 62.40 148.36 61.38 149.40 60.36 150.45 C 58.34 148.40 57.31 145.65 57.75 142.78 C 59.03 140.72 60.00 138.45 59.86 135.98 C 61.97 134.91 64.10 133.87 66.35 133.12 Z" />
</g>
<g id="#f7f8fafd">
<path fill="#f7f8fa" opacity="1.00" d=" M 36.38 132.03 C 38.19 132.08 40.01 132.04 41.82 131.99 L 41.97 132.28 C 41.86 134.89 41.64 137.48 41.46 140.08 C 40.40 138.70 39.33 137.34 38.36 135.89 C 37.62 134.65 37.00 133.34 36.38 132.03 Z" />
</g>
<g id="#9a97b9ff">
<path fill="#9a97b9" opacity="1.00" d=" M 41.46 140.08 C 41.64 137.48 41.86 134.89 41.97 132.28 C 42.17 134.71 42.17 137.16 42.65 139.56 C 44.26 142.58 48.81 142.59 50.01 145.96 C 51.54 149.64 56.68 152.23 60.36 150.45 C 61.38 149.40 62.40 148.36 63.42 147.32 C 65.65 146.45 67.87 145.54 70.09 144.64 C 69.46 145.68 68.84 146.72 68.22 147.76 C 68.90 147.75 69.58 147.73 70.27 147.72 C 71.47 149.79 73.45 150.02 75.53 149.13 C 75.45 147.52 75.38 145.90 75.38 144.29 C 76.55 145.32 77.73 146.35 78.90 147.38 C 79.16 147.62 79.66 148.09 79.91 148.32 C 78.28 152.29 76.17 156.04 73.79 159.60 C 73.04 158.62 72.28 157.64 71.51 156.67 C 69.77 154.98 67.11 155.78 64.94 155.58 C 61.16 155.80 57.41 155.10 53.91 153.68 C 53.37 153.12 52.82 152.57 52.25 152.03 C 50.50 150.97 48.67 150.04 46.84 149.12 C 46.78 150.74 46.72 152.36 46.72 153.98 C 46.05 152.63 46.14 151.11 46.32 149.66 C 42.74 145.64 41.30 140.34 38.36 135.89 C 39.33 137.34 40.40 138.70 41.46 140.08 Z" />
</g>
<g id="#b0b4c9ff">
<path fill="#b0b4c9" opacity="1.00" d=" M 74.52 132.99 C 74.81 133.23 75.40 133.71 75.70 133.94 C 76.26 134.73 76.85 135.50 77.45 136.27 C 77.27 138.26 76.88 140.23 76.06 142.07 C 75.80 141.48 75.29 140.31 75.03 139.72 C 74.55 139.95 73.58 140.40 73.09 140.62 C 74.13 138.88 75.00 137.05 75.72 135.16 C 72.47 136.75 71.15 140.23 68.86 142.78 C 66.71 144.65 64.05 145.78 61.59 147.15 C 61.00 147.11 59.84 147.02 59.26 146.98 C 61.83 144.38 65.48 143.48 68.39 141.39 C 71.04 139.09 72.59 135.86 74.52 132.99 Z" />
<path fill="#b0b4c9" opacity="1.00" d=" M 79.62 181.01 C 80.06 180.89 80.93 180.65 81.37 180.53 C 79.65 183.20 77.78 185.82 75.25 187.79 C 75.20 187.35 75.10 186.47 75.05 186.03 C 73.40 186.86 71.78 187.79 70.01 188.37 C 67.74 188.84 65.86 187.34 64.10 186.18 C 64.59 185.30 65.09 184.43 65.60 183.57 C 65.89 183.38 66.49 183.00 66.79 182.82 C 68.92 183.20 71.09 183.22 73.20 182.72 C 75.37 182.26 77.50 181.65 79.62 181.01 Z" />
</g>
<g id="#9e9cb9ff">
<path fill="#9e9cb9" opacity="1.00" d=" M 92.38 134.04 C 93.68 133.44 94.97 132.84 96.27 132.24 C 98.94 133.07 101.56 134.02 104.13 135.11 C 102.44 136.44 101.20 138.15 101.31 140.38 C 98.44 139.06 95.54 137.80 92.61 136.64 C 92.55 135.99 92.44 134.69 92.38 134.04 Z" />
</g>
<g id="#a9afc6ff">
<path fill="#a9afc6" opacity="1.00" d=" M 56.03 135.30 C 56.57 134.81 57.67 133.83 58.22 133.33 C 58.78 134.20 59.32 135.08 59.86 135.98 C 60.00 138.45 59.03 140.72 57.75 142.78 C 57.26 140.27 56.61 137.79 56.03 135.30 Z" />
</g>
<g id="#8481a1ff">
<path fill="#8481a1" opacity="1.00" d=" M 80.00 136.51 C 81.42 135.68 82.85 134.89 84.30 134.11 C 87.17 135.16 90.02 136.27 92.87 137.38 C 92.15 139.50 91.42 141.62 90.67 143.74 C 87.15 141.27 83.60 138.85 80.00 136.51 Z" />
</g>
<g id="#797d95ff">
<path fill="#797d95" opacity="1.00" d=" M 68.86 142.78 C 71.15 140.23 72.47 136.75 75.72 135.16 C 75.00 137.05 74.13 138.88 73.09 140.62 C 73.58 140.40 74.55 139.95 75.03 139.72 C 75.29 140.31 75.80 141.48 76.06 142.07 L 76.10 142.15 C 75.92 142.69 75.56 143.76 75.38 144.29 C 75.38 145.90 75.45 147.52 75.53 149.13 C 73.45 150.02 71.47 149.79 70.27 147.72 C 69.58 147.73 68.90 147.75 68.22 147.76 C 68.84 146.72 69.46 145.68 70.09 144.64 C 67.87 145.54 65.65 146.45 63.42 147.32 C 62.96 147.28 62.05 147.20 61.59 147.15 C 64.05 145.78 66.71 144.65 68.86 142.78 Z" />
</g>
<g id="#b8b4d1ff">
<path fill="#b8b4d1" opacity="1.00" d=" M 101.31 140.38 C 101.20 138.15 102.44 136.44 104.13 135.11 C 110.36 138.12 117.07 140.32 122.73 144.41 C 122.25 145.06 121.30 146.37 120.82 147.02 C 119.84 147.83 118.99 149.92 117.48 148.76 C 112.07 146.03 106.89 142.81 101.31 140.38 Z" />
</g>
<g id="#737292ff">
<path fill="#737292" opacity="1.00" d=" M 77.45 136.27 C 80.11 137.77 82.81 139.21 85.36 140.90 C 82.13 142.97 83.17 147.30 82.22 150.53 C 81.64 149.98 80.49 148.88 79.91 148.32 C 79.66 148.09 79.16 147.62 78.90 147.38 C 77.89 145.68 76.96 143.93 76.10 142.15 L 76.06 142.07 C 76.88 140.23 77.27 138.26 77.45 136.27 Z" />
</g>
<g id="#a3a0bdff">
<path fill="#a3a0bd" opacity="1.00" d=" M 92.87 137.38 C 96.43 138.78 99.96 140.24 103.38 141.96 C 101.08 144.97 99.85 148.59 100.37 152.39 C 97.29 149.34 94.21 146.26 90.67 143.74 C 91.42 141.62 92.15 139.50 92.87 137.38 Z" />
</g>
<g id="#827fa1ff">
<path fill="#827fa1" opacity="1.00" d=" M 82.22 150.53 C 83.17 147.30 82.13 142.97 85.36 140.90 C 87.37 142.17 89.35 143.51 91.28 144.93 C 88.32 148.29 87.98 152.86 87.51 157.10 C 86.11 155.76 84.76 154.36 83.73 152.71 C 83.23 151.98 82.74 151.24 82.22 150.53 Z" />
</g>
<g id="#b9b4d1ff">
<path fill="#b9b4d1" opacity="1.00" d=" M 100.37 152.39 C 99.85 148.59 101.08 144.97 103.38 141.96 C 108.15 144.31 112.81 146.89 117.57 149.27 C 117.72 149.62 118.04 150.31 118.19 150.65 C 120.63 152.19 123.20 153.69 125.03 155.97 C 124.12 158.98 121.31 161.82 117.99 161.65 C 115.40 160.22 114.36 157.30 112.92 154.90 C 111.65 155.71 110.40 156.54 109.10 157.28 C 108.19 157.77 107.28 158.26 106.37 158.73 C 104.48 156.52 102.46 154.41 100.37 152.39 Z" />
</g>
<g id="#9894b3ff">
<path fill="#9894b3" opacity="1.00" d=" M 87.51 157.10 C 87.98 152.86 88.32 148.29 91.28 144.93 C 93.10 146.30 94.84 147.79 96.49 149.36 C 95.48 149.44 94.46 149.52 93.45 149.60 C 92.37 153.10 91.11 156.70 91.59 160.43 C 90.29 159.26 88.90 158.17 87.51 157.10 Z" />
</g>
<g id="#fafafafe">
<path fill="#fafafa" opacity="1.00" d=" M 46.84 149.12 C 48.67 150.04 50.50 150.97 52.25 152.03 C 52.31 153.71 52.37 155.40 52.37 157.08 C 51.48 157.51 50.58 157.94 49.69 158.37 C 48.75 157.06 47.81 155.75 46.73 154.55 L 46.72 153.98 C 46.72 152.36 46.78 150.74 46.84 149.12 Z" />
</g>
<g id="#ada9c6ff">
<path fill="#ada9c6" opacity="1.00" d=" M 93.45 149.60 C 94.46 149.52 95.48 149.44 96.49 149.36 C 99.79 152.54 103.03 155.79 106.18 159.11 C 101.97 162.16 96.18 163.52 91.59 160.43 C 91.11 156.70 92.37 153.10 93.45 149.60 Z" />
</g>
<g id="#d9caf4ff">
<path fill="#d9caf4" opacity="1.00" d=" M 52.25 152.03 C 52.82 152.57 53.37 153.12 53.91 153.68 C 55.72 159.28 62.56 156.93 66.61 159.30 C 66.53 160.05 66.39 161.54 66.31 162.28 C 65.46 161.77 64.60 161.26 63.75 160.75 C 61.83 162.01 59.60 161.76 57.53 161.04 C 55.70 161.83 54.39 161.49 54.35 159.28 C 53.66 159.53 52.97 159.79 52.28 160.05 L 52.36 158.24 C 52.37 157.85 52.37 157.46 52.37 157.08 C 52.37 155.40 52.31 153.71 52.25 152.03 Z" />
</g>
<g id="#a4a4b7ff">
<path fill="#a4a4b7" opacity="1.00" d=" M 81.25 151.61 C 81.81 152.42 82.37 153.24 82.92 154.07 C 84.50 156.68 84.37 159.86 85.05 162.76 C 84.34 163.69 83.64 164.62 82.94 165.56 C 82.61 165.60 81.95 165.67 81.62 165.71 C 80.53 167.31 79.41 168.89 78.27 170.45 C 77.30 169.90 76.32 169.34 75.34 168.79 C 75.79 168.16 76.25 167.52 76.71 166.89 C 76.19 164.87 75.64 162.86 75.04 160.87 C 76.40 159.28 77.84 157.77 79.39 156.36 C 80.02 154.78 80.63 153.19 81.25 151.61 Z" />
</g>
<g id="#c0b6deff">
<path fill="#c0b6de" opacity="1.00" d=" M 53.91 153.68 C 57.41 155.10 61.16 155.80 64.94 155.58 C 67.11 155.78 69.77 154.98 71.51 156.67 C 70.74 158.04 70.35 159.58 69.96 161.10 C 68.84 160.49 67.73 159.88 66.61 159.30 C 62.56 156.93 55.72 159.28 53.91 153.68 Z" />
</g>
<g id="#cac4ddff">
<path fill="#cac4dd" opacity="1.00" d=" M 71.60 159.17 C 72.74 159.74 73.89 160.30 75.04 160.87 C 75.64 162.86 76.19 164.87 76.71 166.89 C 76.25 167.52 75.79 168.16 75.34 168.79 C 74.92 169.40 74.08 170.60 73.66 171.21 C 72.26 171.38 70.87 171.56 69.47 171.75 C 68.61 171.28 67.75 170.82 66.88 170.35 C 66.87 168.18 66.69 166.02 66.41 163.87 C 66.85 162.88 67.29 161.89 67.72 160.90 C 68.98 161.56 70.25 162.23 71.51 162.89 C 71.53 161.96 71.57 160.10 71.60 159.17 Z" />
</g>
<g id="#a6aabfff">
<path fill="#a6aabf" opacity="1.00" d=" M 78.14 172.06 C 79.59 170.64 81.32 169.55 83.03 168.49 C 82.60 171.71 81.81 174.86 80.79 177.95 C 80.64 178.25 80.32 178.85 80.17 179.15 C 80.47 179.50 81.07 180.19 81.37 180.53 C 80.93 180.65 80.06 180.89 79.62 181.01 C 79.13 180.61 78.15 179.83 77.65 179.44 C 77.02 179.94 76.39 180.45 75.76 180.95 C 74.97 180.68 74.19 180.42 73.40 180.16 C 75.69 177.92 77.16 175.08 78.14 172.06 Z" />
</g>
<g id="#fefefeff">
<path fill="#fefefe" opacity="1.00" d=" M 50.68 172.37 C 51.98 170.42 54.42 173.24 56.14 171.63 C 56.59 172.30 57.02 172.99 57.45 173.68 C 58.03 175.74 58.53 177.83 58.97 179.93 C 58.26 179.99 56.84 180.10 56.13 180.16 C 55.16 179.36 54.18 178.57 53.26 177.73 C 52.34 175.99 51.09 174.26 50.68 172.37 Z" />
</g>
<g id="#c2c0d3ff">
<path fill="#c2c0d3" opacity="1.00" d=" M 73.82 172.55 C 74.53 171.81 75.23 171.07 75.94 170.34 C 76.49 170.77 77.59 171.63 78.14 172.06 C 77.16 175.08 75.69 177.92 73.40 180.16 C 73.04 180.55 72.33 181.33 71.97 181.73 C 68.92 181.39 65.88 181.88 62.86 182.22 C 64.65 179.84 66.41 177.45 68.14 175.04 C 67.73 174.74 66.91 174.14 66.50 173.84 C 67.09 171.67 68.99 172.21 70.39 173.19 C 71.54 172.98 72.68 172.76 73.82 172.55 Z" />
</g>
<g id="#dfd6ebff">
<path fill="#dfd6eb" opacity="1.00" d=" M 57.45 173.68 C 59.20 171.20 62.06 175.03 64.21 172.57 C 64.98 172.98 65.74 173.40 66.50 173.84 C 66.91 174.14 67.73 174.74 68.14 175.04 C 66.41 177.45 64.65 179.84 62.86 182.22 C 60.58 181.73 58.04 181.61 56.13 180.16 C 56.84 180.10 58.26 179.99 58.97 179.93 C 58.53 177.83 58.03 175.74 57.45 173.68 Z" />
</g>
<g id="#e9e6f4ff">
<path fill="#e9e6f4" opacity="1.00" d=" M 56.95 182.71 C 57.23 182.45 57.79 181.94 58.08 181.68 C 60.55 182.42 63.04 183.16 65.60 183.57 C 65.09 184.43 64.59 185.30 64.10 186.18 C 65.86 187.34 67.74 188.84 70.01 188.37 C 71.78 187.79 73.40 186.86 75.05 186.03 C 75.10 186.47 75.20 187.35 75.25 187.79 C 72.91 189.46 70.06 191.96 66.99 190.73 C 62.97 189.09 59.58 186.12 56.95 182.71 Z" />
</g>
</svg>
