<?xml version="1.0" encoding="UTF-8" ?>
<!DOCTYPE svg PUBLIC "-//W3C//DTD SVG 1.1//EN" "http://www.w3.org/Graphics/SVG/1.1/DTD/svg11.dtd">
<svg width="131pt" height="96pt" viewBox="0 0 131 96" version="1.1" xmlns="http://www.w3.org/2000/svg">
<g id="#ffcbcbff">
<path fill="#ffcbcb" opacity="1.00" d=" M 36.26 17.58 C 39.84 10.24 47.15 5.01 55.15 3.62 C 62.17 1.88 69.45 3.70 75.83 6.71 C 65.08 2.68 51.92 2.94 42.76 10.54 C 40.10 12.43 39.07 15.90 36.26 17.58 Z" />
<path fill="#ffcbcb" opacity="1.00" d=" M 43.47 21.24 C 43.67 21.05 44.07 20.65 44.26 20.45 C 44.58 21.13 45.21 22.48 45.53 23.16 C 44.48 25.83 42.36 22.84 43.47 21.24 Z" />
<path fill="#ffcbcb" opacity="1.00" d=" M 60.29 22.99 C 61.80 21.63 63.45 24.41 61.85 25.36 C 60.40 26.46 58.94 23.98 60.29 22.99 Z" />
<path fill="#ffcbcb" opacity="1.00" d=" M 33.10 25.53 C 33.18 26.08 33.34 27.17 33.42 27.72 C 33.75 35.87 33.63 44.02 33.67 52.18 C 33.67 53.87 33.62 55.57 33.54 57.27 C 33.08 47.83 33.71 38.35 32.86 28.92 C 32.83 27.79 32.99 26.66 33.10 25.53 Z" />
<path fill="#ffcbcb" opacity="1.00" d=" M 42.66 36.54 C 45.38 35.19 48.45 35.41 51.39 35.45 C 51.44 36.11 51.50 36.77 51.55 37.43 C 50.23 37.57 48.90 37.72 47.58 37.89 C 45.17 38.11 43.15 39.59 41.03 40.63 C 40.96 39.08 42.01 37.85 42.66 36.54 Z" />
</g>
<g id="#a88971ff">
<path fill="#a88971" opacity="1.00" d=" M 42.76 10.54 C 51.92 2.94 65.08 2.68 75.83 6.71 C 80.17 8.68 83.24 12.53 85.64 16.52 C 84.99 16.51 83.67 16.50 83.02 16.49 C 83.51 22.02 82.48 28.20 77.61 31.58 C 75.29 32.43 72.65 32.31 70.31 31.60 C 68.46 30.64 67.26 28.82 65.81 27.37 C 65.03 28.15 64.24 28.93 63.48 29.75 C 63.80 26.67 64.47 23.02 61.57 20.93 C 59.93 21.84 58.72 23.25 57.95 24.94 C 57.53 25.68 57.10 26.41 56.68 27.15 C 53.34 25.54 49.71 26.03 46.32 27.17 C 46.55 24.54 47.51 20.84 44.31 19.63 L 44.26 20.45 C 44.07 20.65 43.67 21.05 43.47 21.24 C 42.50 22.24 41.91 23.44 41.69 24.84 C 41.22 26.78 41.08 28.77 40.99 30.76 C 40.49 30.03 40.01 29.30 39.52 28.57 C 38.70 30.20 37.69 31.74 36.40 33.05 C 35.37 31.29 34.35 29.53 33.42 27.72 C 33.34 27.17 33.18 26.08 33.10 25.53 C 33.76 22.85 34.87 20.29 35.98 17.77 L 36.26 17.58 C 39.07 15.90 40.10 12.43 42.76 10.54 Z" />
</g>
<g id="#a18269ff">
<path fill="#a18269" opacity="1.00" d=" M 83.02 16.49 C 83.67 16.50 84.99 16.51 85.64 16.52 C 87.03 19.85 88.64 23.19 89.04 26.82 C 88.99 37.63 89.00 48.45 88.56 59.27 C 88.48 58.76 88.32 57.75 88.24 57.24 C 88.19 54.08 88.21 50.92 88.20 47.75 C 88.41 42.14 88.29 36.51 87.55 30.94 L 87.13 31.58 C 83.99 35.32 81.60 39.65 78.32 43.29 C 76.74 45.26 73.03 45.89 71.67 43.38 C 68.88 39.44 66.23 35.37 62.78 31.95 C 62.96 31.40 63.31 30.30 63.48 29.75 C 64.24 28.93 65.03 28.15 65.81 27.37 C 67.26 28.82 68.46 30.64 70.31 31.60 C 72.65 32.31 75.29 32.43 77.61 31.58 C 82.48 28.20 83.51 22.02 83.02 16.49 Z" />
</g>
<g id="#3f3c39ff">
<path fill="#3f3c39" opacity="1.00" d=" M 44.31 19.63 C 47.51 20.84 46.55 24.54 46.32 27.17 C 46.08 28.15 45.82 29.12 45.54 30.09 C 45.24 30.81 44.94 31.53 44.63 32.24 C 44.42 31.57 44.00 30.24 43.79 29.57 C 43.21 29.19 42.04 28.44 41.46 28.06 C 41.52 27.25 41.63 25.64 41.69 24.84 C 41.91 23.44 42.50 22.24 43.47 21.24 C 42.36 22.84 44.48 25.83 45.53 23.16 C 45.21 22.48 44.58 21.13 44.26 20.45 L 44.31 19.63 Z" />
</g>
<g id="#3e3c37ff">
<path fill="#3e3c37" opacity="1.00" d=" M 57.95 24.94 C 58.72 23.25 59.93 21.84 61.57 20.93 C 64.47 23.02 63.80 26.67 63.48 29.75 C 63.31 30.30 62.96 31.40 62.78 31.95 C 62.02 32.81 61.24 33.64 60.44 34.46 C 59.62 33.83 58.79 33.21 57.95 32.62 C 57.66 30.07 57.61 27.49 57.95 24.94 M 60.29 22.99 C 58.94 23.98 60.40 26.46 61.85 25.36 C 63.45 24.41 61.80 21.63 60.29 22.99 M 59.53 30.56 C 58.05 31.77 60.38 34.18 61.41 32.29 C 62.86 30.91 60.76 29.15 59.53 30.56 Z" />
</g>
<g id="#8a654aff">
<path fill="#8a654a" opacity="1.00" d=" M 40.99 30.76 C 41.08 28.77 41.22 26.78 41.69 24.84 C 41.63 25.64 41.52 27.25 41.46 28.06 C 42.04 28.44 43.21 29.19 43.79 29.57 C 44.00 30.24 44.42 31.57 44.63 32.24 C 44.94 31.53 45.24 30.81 45.54 30.09 C 45.73 30.43 46.13 31.11 46.33 31.45 C 50.21 31.56 54.35 30.72 57.95 32.62 C 58.79 33.21 59.62 33.83 60.44 34.46 C 62.01 37.14 64.68 39.59 64.29 42.98 C 64.32 45.69 62.91 48.76 64.79 51.14 C 67.25 53.70 71.47 54.12 74.63 52.72 C 77.38 51.58 79.19 49.10 80.75 46.68 C 83.61 41.99 87.60 37.47 87.13 31.58 L 87.55 30.94 C 88.29 36.51 88.41 42.14 88.20 47.75 C 84.09 51.79 81.35 57.30 76.06 60.04 C 69.18 64.49 60.63 62.28 53.03 61.66 C 48.11 61.77 43.24 62.88 38.29 62.66 C 37.89 62.64 37.07 62.61 36.66 62.60 C 35.58 62.58 34.49 62.60 33.41 62.63 C 32.85 62.39 31.72 61.92 31.15 61.68 C 31.48 61.26 32.12 60.41 32.45 59.99 C 32.07 59.00 31.70 58.01 31.34 57.01 L 32.32 56.61 C 32.80 47.40 31.70 38.07 32.86 28.92 C 33.71 38.35 33.08 47.83 33.54 57.27 C 33.62 55.57 33.67 53.87 33.67 52.18 C 36.36 52.65 39.96 53.58 41.65 50.65 C 42.59 48.21 41.78 45.46 41.46 42.93 C 42.84 43.77 44.21 44.61 45.65 45.36 C 49.41 46.47 53.71 47.01 57.39 45.35 C 59.36 43.92 60.38 41.55 61.83 39.65 C 59.30 36.59 55.25 35.34 51.39 35.45 C 48.45 35.41 45.38 35.19 42.66 36.54 C 42.90 35.66 43.10 34.76 43.29 33.86 C 42.51 32.84 41.74 31.80 40.99 30.76 Z" />
</g>
<g id="#9c7b61ff">
<path fill="#9c7b61" opacity="1.00" d=" M 56.68 27.15 C 57.10 26.41 57.53 25.68 57.95 24.94 C 57.61 27.49 57.66 30.07 57.95 32.62 C 54.35 30.72 50.21 31.56 46.33 31.45 C 46.13 31.11 45.73 30.43 45.54 30.09 C 45.82 29.12 46.08 28.15 46.32 27.17 C 49.71 26.03 53.34 25.54 56.68 27.15 Z" />
</g>
<g id="#67432bff">
<path fill="#67432b" opacity="1.00" d=" M 89.04 26.82 C 90.10 37.18 88.68 47.65 89.63 58.02 C 92.15 57.32 94.64 58.13 97.06 58.81 C 94.80 58.97 92.62 59.62 90.57 60.56 C 92.80 62.95 94.91 65.45 96.82 68.12 C 95.70 67.91 94.59 67.71 93.48 67.50 C 92.70 66.52 91.91 65.54 91.13 64.56 C 89.41 64.40 87.69 64.25 85.97 64.14 C 87.58 63.00 89.13 61.75 90.60 60.44 C 87.83 60.95 85.11 61.70 82.41 62.53 C 81.93 63.37 81.44 64.22 80.96 65.06 C 79.25 64.63 77.53 64.27 75.79 63.99 C 79.45 60.95 82.96 57.72 86.09 54.12 C 86.81 55.16 87.54 56.19 88.24 57.24 C 88.32 57.75 88.48 58.76 88.56 59.27 C 89.00 48.45 88.99 37.63 89.04 26.82 Z" />
</g>
<g id="#9e7b61ff">
<path fill="#9e7b61" opacity="1.00" d=" M 33.42 27.72 C 34.35 29.53 35.37 31.29 36.40 33.05 C 37.69 31.74 38.70 30.20 39.52 28.57 C 40.01 29.30 40.49 30.03 40.99 30.76 C 41.74 31.80 42.51 32.84 43.29 33.86 C 43.10 34.76 42.90 35.66 42.66 36.54 C 42.01 37.85 40.96 39.08 41.03 40.63 C 41.17 41.40 41.31 42.17 41.46 42.93 C 41.78 45.46 42.59 48.21 41.65 50.65 C 39.96 53.58 36.36 52.65 33.67 52.18 C 33.63 44.02 33.75 35.87 33.42 27.72 Z" />
</g>
<g id="#6a6964ff">
<path fill="#6a6964" opacity="1.00" d=" M 59.53 30.56 C 60.76 29.15 62.86 30.91 61.41 32.29 C 60.38 34.18 58.05 31.77 59.53 30.56 Z" />
</g>
<g id="#98775eff">
<path fill="#98775e" opacity="1.00" d=" M 60.44 34.46 C 61.24 33.64 62.02 32.81 62.78 31.95 C 66.23 35.37 68.88 39.44 71.67 43.38 C 73.03 45.89 76.74 45.26 78.32 43.29 C 81.60 39.65 83.99 35.32 87.13 31.58 C 87.60 37.47 83.61 41.99 80.75 46.68 C 79.19 49.10 77.38 51.58 74.63 52.72 C 71.47 54.12 67.25 53.70 64.79 51.14 C 62.91 48.76 64.32 45.69 64.29 42.98 C 64.68 39.59 62.01 37.14 60.44 34.46 Z" />
</g>
<g id="#b68688ff">
<path fill="#b68688" opacity="1.00" d=" M 51.39 35.45 C 55.25 35.34 59.30 36.59 61.83 39.65 C 60.38 41.55 59.36 43.92 57.39 45.35 C 53.71 47.01 49.41 46.47 45.65 45.36 C 49.95 44.16 56.00 45.51 58.47 40.86 C 55.42 38.34 51.30 38.44 47.58 37.89 C 48.90 37.72 50.23 37.57 51.55 37.43 C 51.50 36.77 51.44 36.11 51.39 35.45 Z" />
</g>
<g id="#cfa3b6ff">
<path fill="#cfa3b6" opacity="1.00" d=" M 41.03 40.63 C 43.15 39.59 45.17 38.11 47.58 37.89 C 51.30 38.44 55.42 38.34 58.47 40.86 C 56.00 45.51 49.95 44.16 45.65 45.36 C 44.21 44.61 42.84 43.77 41.46 42.93 C 41.31 42.17 41.17 41.40 41.03 40.63 Z" />
</g>
<g id="#795134ff">
<path fill="#795134" opacity="1.00" d=" M 76.06 60.04 C 81.35 57.30 84.09 51.79 88.20 47.75 C 88.21 50.92 88.19 54.08 88.24 57.24 C 87.54 56.19 86.81 55.16 86.09 54.12 C 82.96 57.72 79.45 60.95 75.79 63.99 L 74.85 63.92 C 72.51 64.07 70.18 64.35 67.86 64.69 C 66.58 64.91 65.55 65.56 64.76 66.65 C 64.57 66.65 64.18 66.65 63.98 66.65 C 62.38 66.64 60.79 66.35 59.25 65.92 C 54.11 64.18 47.75 62.59 43.20 66.54 C 41.56 65.25 39.95 63.92 38.29 62.66 C 43.24 62.88 48.11 61.77 53.03 61.66 C 60.63 62.28 69.18 64.49 76.06 60.04 Z" />
</g>
<g id="#514737ff">
<path fill="#514737" opacity="1.00" d=" M 23.58 60.62 C 25.08 57.95 28.23 56.23 31.34 57.01 C 31.70 58.01 32.07 59.00 32.45 59.99 C 32.12 60.41 31.48 61.26 31.15 61.68 C 27.38 62.04 23.85 63.52 20.96 65.97 C 22.04 64.29 22.96 62.52 23.58 60.62 Z" />
</g>
<g id="#767267ff">
<path fill="#767267" opacity="1.00" d=" M 90.57 60.56 C 92.62 59.62 94.80 58.97 97.06 58.81 C 103.86 59.54 107.36 66.18 110.59 71.39 C 111.95 73.31 114.53 76.77 111.43 78.41 C 111.04 77.35 110.65 76.28 110.26 75.22 C 109.22 76.11 108.18 77.01 107.13 77.91 C 104.36 76.57 101.42 75.02 98.30 76.33 C 98.81 77.88 99.31 79.43 99.82 80.98 C 97.02 80.87 93.72 81.73 91.54 79.45 C 90.33 78.25 88.55 78.45 87.00 78.25 C 87.93 77.62 88.85 76.97 89.78 76.33 C 88.27 71.71 84.98 67.75 80.96 65.06 C 81.44 64.22 81.93 63.37 82.41 62.53 C 85.11 61.70 87.83 60.95 90.60 60.44 C 89.13 61.75 87.58 63.00 85.97 64.14 C 87.69 64.25 89.41 64.40 91.13 64.56 C 91.91 65.54 92.70 66.52 93.48 67.50 C 94.59 67.71 95.70 67.91 96.82 68.12 C 94.91 65.45 92.80 62.95 90.57 60.56 Z" />
</g>
<g id="#aca18dff">
<path fill="#aca18d" opacity="1.00" d=" M 12.67 74.10 C 15.09 68.66 19.98 65.19 23.58 60.62 C 22.96 62.52 22.04 64.29 20.96 65.97 C 23.85 63.52 27.38 62.04 31.15 61.68 C 31.72 61.92 32.85 62.39 33.41 62.63 C 32.66 62.85 31.17 63.30 30.42 63.52 C 26.01 65.65 23.08 69.84 19.42 72.98 C 19.12 72.40 18.53 71.24 18.24 70.65 C 16.63 72.17 15.59 74.51 13.48 75.41 L 12.67 74.10 Z" />
</g>
<g id="#645e50ff">
<path fill="#645e50" opacity="1.00" d=" M 33.41 62.63 C 34.49 62.60 35.58 62.58 36.66 62.60 C 38.15 64.49 39.64 66.37 41.15 68.24 C 40.44 68.98 39.76 69.75 39.09 70.52 C 35.39 71.61 33.28 74.91 32.07 78.36 C 34.12 76.66 36.07 74.84 37.93 72.94 C 39.39 72.32 40.88 71.77 42.38 71.22 C 43.02 73.53 44.02 75.72 45.75 77.43 C 44.31 78.29 42.86 79.14 41.51 80.14 C 41.66 77.77 40.71 75.69 38.98 74.11 C 37.71 76.75 36.36 79.37 34.47 81.63 C 28.99 80.74 23.22 81.35 17.93 79.46 C 18.93 78.46 19.93 77.46 20.93 76.47 C 24.15 76.65 28.00 78.19 30.73 75.77 C 33.21 73.27 34.39 69.80 34.89 66.38 C 33.40 65.44 31.91 64.48 30.42 63.52 C 31.17 63.30 32.66 62.85 33.41 62.63 Z" />
</g>
<g id="#544a3cff">
<path fill="#544a3c" opacity="1.00" d=" M 36.66 62.60 C 37.07 62.61 37.89 62.64 38.29 62.66 C 39.95 63.92 41.56 65.25 43.20 66.54 C 42.68 66.96 41.66 67.81 41.15 68.24 C 39.64 66.37 38.15 64.49 36.66 62.60 Z" />
</g>
<g id="#746e62ff">
<path fill="#746e62" opacity="1.00" d=" M 19.42 72.98 C 23.08 69.84 26.01 65.65 30.42 63.52 C 31.91 64.48 33.40 65.44 34.89 66.38 C 34.39 69.80 33.21 73.27 30.73 75.77 C 28.00 78.19 24.15 76.65 20.93 76.47 C 19.93 77.46 18.93 78.46 17.93 79.46 C 16.71 78.79 15.34 78.61 13.97 78.54 C 17.32 78.91 18.12 75.23 19.42 72.98 Z" />
</g>
<g id="#6d685cff">
<path fill="#6d685c" opacity="1.00" d=" M 43.20 66.54 C 47.75 62.59 54.11 64.18 59.25 65.92 C 59.58 69.30 59.83 72.71 60.85 75.96 C 64.55 74.46 65.43 70.04 63.98 66.65 C 64.18 66.65 64.57 66.65 64.76 66.65 C 66.25 67.53 68.18 66.53 67.86 64.69 C 70.18 64.35 72.51 64.07 74.85 63.92 C 73.09 65.97 73.42 69.25 75.31 71.09 C 75.71 69.32 76.09 67.54 76.45 65.77 C 82.65 68.10 84.18 75.60 83.31 81.50 C 86.24 81.69 89.17 81.92 92.10 81.93 C 84.29 82.76 76.36 82.98 68.48 83.29 C 68.61 81.64 68.79 79.99 69.02 78.35 C 72.20 77.81 75.47 77.54 78.54 76.50 C 80.37 75.85 80.47 73.62 81.03 72.06 C 78.48 71.90 76.06 72.69 73.74 73.66 C 71.14 74.83 68.26 74.52 65.50 74.49 C 64.60 77.21 63.92 80.00 63.46 82.83 C 57.41 82.99 51.32 83.53 45.26 82.87 C 43.45 82.55 41.64 82.14 39.84 81.74 C 40.26 81.34 41.09 80.54 41.51 80.14 C 42.86 79.14 44.31 78.29 45.75 77.43 C 44.02 75.72 43.02 73.53 42.38 71.22 C 40.88 71.77 39.39 72.32 37.93 72.94 C 38.22 72.33 38.80 71.12 39.09 70.52 C 39.76 69.75 40.44 68.98 41.15 68.24 C 41.66 67.81 42.68 66.96 43.20 66.54 Z" />
</g>
<g id="#5f594eff">
<path fill="#5f594e" opacity="1.00" d=" M 74.85 63.92 L 75.79 63.99 C 77.53 64.27 79.25 64.63 80.96 65.06 C 84.98 67.75 88.27 71.71 89.78 76.33 C 88.85 76.97 87.93 77.62 87.00 78.25 C 88.55 78.45 90.33 78.25 91.54 79.45 C 93.72 81.73 97.02 80.87 99.82 80.98 C 99.31 79.43 98.81 77.88 98.30 76.33 C 101.42 75.02 104.36 76.57 107.13 77.91 C 108.18 77.01 109.22 76.11 110.26 75.22 C 110.65 76.28 111.04 77.35 111.43 78.41 L 111.45 78.44 C 105.14 80.38 98.68 81.49 92.10 81.93 C 89.17 81.92 86.24 81.69 83.31 81.50 C 84.18 75.60 82.65 68.10 76.45 65.77 C 76.09 67.54 75.71 69.32 75.31 71.09 C 73.42 69.25 73.09 65.97 74.85 63.92 Z" />
</g>
<g id="#947c62ff">
<path fill="#947c62" opacity="1.00" d=" M 64.76 66.65 C 65.55 65.56 66.58 64.91 67.86 64.69 C 68.18 66.53 66.25 67.53 64.76 66.65 Z" />
</g>
<g id="#564e42ff">
<path fill="#564e42" opacity="1.00" d=" M 59.25 65.92 C 60.79 66.35 62.38 66.64 63.98 66.65 C 65.43 70.04 64.55 74.46 60.85 75.96 C 59.83 72.71 59.58 69.30 59.25 65.92 Z" />
</g>
<g id="#8d7f6bff">
<path fill="#8d7f6b" opacity="1.00" d=" M 32.07 78.36 C 33.28 74.91 35.39 71.61 39.09 70.52 C 38.80 71.12 38.22 72.33 37.93 72.94 C 36.07 74.84 34.12 76.66 32.07 78.36 Z" />
</g>
<g id="#635b4ef8">
<path fill="#635b4e" opacity="0.97" d=" M 13.48 75.41 C 15.59 74.51 16.63 72.17 18.24 70.65 C 18.53 71.24 19.12 72.40 19.42 72.98 C 18.12 75.23 17.32 78.91 13.97 78.54 L 12.93 77.98 C 13.07 77.34 13.34 76.05 13.48 75.41 Z" />
</g>
<g id="#78766bff">
<path fill="#78766b" opacity="1.00" d=" M 73.74 73.66 C 76.06 72.69 78.48 71.90 81.03 72.06 C 80.47 73.62 80.37 75.85 78.54 76.50 C 75.47 77.54 72.20 77.81 69.02 78.35 C 68.79 79.99 68.61 81.64 68.48 83.29 C 66.80 83.19 65.13 83.04 63.46 82.83 C 63.92 80.00 64.60 77.21 65.50 74.49 C 68.26 74.52 71.14 74.83 73.74 73.66 Z" />
</g>
<g id="#514739ff">
<path fill="#514739" opacity="1.00" d=" M 38.98 74.11 C 40.71 75.69 41.66 77.77 41.51 80.14 C 41.09 80.54 40.26 81.34 39.84 81.74 C 41.64 82.14 43.45 82.55 45.26 82.87 C 41.55 82.66 37.86 82.12 34.14 82.05 L 34.47 81.63 C 36.36 79.37 37.71 76.75 38.98 74.11 Z" />
</g>
</svg>
