<?xml version="1.0" encoding="UTF-8" ?>
<!DOCTYPE svg PUBLIC "-//W3C//DTD SVG 1.1//EN" "http://www.w3.org/Graphics/SVG/1.1/DTD/svg11.dtd">
<svg width="187pt" height="144pt" viewBox="0 0 187 144" version="1.1" xmlns="http://www.w3.org/2000/svg">
<g id="#d3aa86fa">
<path fill="#d3aa86" opacity="0.98" d=" M 84.87 28.16 C 90.30 3.73 126.61 -3.21 141.30 16.43 C 130.26 13.52 118.83 7.61 107.08 12.05 C 97.55 14.75 90.51 22.05 85.16 30.04 C 85.09 29.57 84.95 28.63 84.87 28.16 Z" />
</g>
<g id="#b59073fe">
<path fill="#b59073" opacity="1.00" d=" M 107.08 12.05 C 118.83 7.61 130.26 13.52 141.30 16.43 C 144.22 19.36 146.57 24.06 147.31 28.37 C 132.68 22.43 114.44 15.66 99.58 23.40 C 97.55 24.82 96.11 26.82 94.97 28.97 C 88.18 29.83 87.69 38.88 85.79 44.17 C 83.15 42.19 84.09 38.52 83.42 35.63 L 83.52 34.95 C 84.03 33.75 84.25 32.45 84.02 31.16 C 83.50 29.19 83.78 28.19 84.87 28.16 C 84.95 28.63 85.09 29.57 85.16 30.04 C 90.51 22.05 97.55 14.75 107.08 12.05 Z" />
</g>
<g id="#a07f66fe">
<path fill="#a07f66" opacity="1.00" d=" M 99.58 23.40 C 114.44 15.66 132.68 22.43 147.31 28.37 C 150.90 34.91 148.37 45.14 148.74 52.75 C 148.20 57.89 148.00 63.06 147.73 68.23 C 146.79 67.65 145.85 67.07 144.93 66.46 C 146.61 57.17 151.05 43.88 143.70 36.15 C 135.11 36.55 118.55 39.74 118.33 26.90 C 117.28 24.65 116.44 29.22 115.48 27.40 C 114.04 24.59 112.84 28.55 112.74 29.97 C 107.88 29.05 98.59 33.46 99.87 24.53 L 99.58 23.40 Z" />
</g>
<g id="#4a423bff">
<path fill="#4a423b" opacity="1.00" d=" M 94.97 28.97 C 96.11 26.82 97.55 24.82 99.58 23.40 L 99.87 24.53 C 99.92 29.46 100.59 34.83 98.02 39.29 C 93.01 38.38 95.46 32.64 94.97 28.97 Z" />
</g>
<g id="#906d53ff">
<path fill="#906d53" opacity="1.00" d=" M 99.87 24.53 C 98.59 33.46 107.88 29.05 112.74 29.97 C 112.89 33.43 112.55 37.09 114.13 40.30 L 113.32 40.33 C 108.70 37.48 103.05 37.82 98.02 39.29 C 100.59 34.83 99.92 29.46 99.87 24.53 Z" />
</g>
<g id="#3b3633ff">
<path fill="#3b3633" opacity="1.00" d=" M 112.74 29.97 C 112.84 28.55 114.04 24.59 115.48 27.40 C 116.44 29.22 117.28 24.65 118.33 26.90 C 118.01 31.37 119.15 37.11 115.05 40.30 L 114.13 40.30 C 112.55 37.09 112.89 33.43 112.74 29.97 Z" />
</g>
<g id="#8f6d54ff">
<path fill="#8f6d54" opacity="1.00" d=" M 118.33 26.90 C 118.55 39.74 135.11 36.55 143.70 36.15 C 151.05 43.88 146.61 57.17 144.93 66.46 L 144.15 66.01 C 144.40 60.47 147.07 54.13 143.84 49.03 C 139.69 51.16 135.05 53.11 130.30 51.70 C 126.24 49.58 123.28 45.19 118.46 44.78 C 117.36 43.25 116.23 41.76 115.05 40.30 C 119.15 37.11 118.01 31.37 118.33 26.90 Z" />
</g>
<g id="#9e785aff">
<path fill="#9e785a" opacity="1.00" d=" M 85.79 44.17 C 87.69 38.88 88.18 29.83 94.97 28.97 C 95.46 32.64 93.01 38.38 98.02 39.29 C 96.48 40.37 95.15 41.69 93.94 43.12 C 92.63 40.89 92.15 46.94 91.01 48.15 L 90.21 47.94 C 88.73 46.69 87.16 45.54 85.79 44.17 Z" />
</g>
<g id="#644f3ba0">
<path fill="#644f3b" opacity="0.63" d=" M 83.52 34.95 C 82.33 34.16 82.14 30.96 84.02 31.16 C 84.25 32.45 84.03 33.75 83.52 34.95 Z" />
</g>
<g id="#d5ac87fb">
<path fill="#d5ac87" opacity="1.00" d=" M 83.42 35.63 C 84.09 38.52 83.15 42.19 85.79 44.17 C 87.16 45.54 88.73 46.69 90.21 47.94 C 79.49 46.63 68.52 41.48 57.62 45.60 C 46.14 48.42 39.33 58.48 34.46 68.42 C 32.95 79.19 32.23 90.08 32.00 100.95 C 31.74 101.20 31.21 101.68 30.95 101.93 C 31.00 98.28 31.05 94.65 30.97 91.01 C 30.63 88.26 30.78 85.59 31.44 82.99 C 32.07 81.82 32.24 80.47 32.01 79.17 C 31.95 77.12 31.74 74.96 32.45 72.99 C 33.07 71.81 33.19 70.46 33.01 69.16 C 34.85 46.02 62.52 30.62 82.95 42.96 C 83.07 41.13 83.30 37.46 83.42 35.63 Z" />
</g>
<g id="#e7afa7ff">
<path fill="#e7afa7" opacity="1.00" d=" M 98.02 39.29 C 103.05 37.82 108.70 37.48 113.32 40.33 C 106.79 40.94 96.14 37.56 95.09 47.22 C 94.57 45.89 94.24 44.51 93.94 43.12 C 95.15 41.69 96.48 40.37 98.02 39.29 Z" />
</g>
<g id="#ba888cff">
<path fill="#ba888c" opacity="1.00" d=" M 95.09 47.22 C 96.14 37.56 106.79 40.94 113.32 40.33 L 114.13 40.30 L 115.05 40.30 C 116.23 41.76 117.36 43.25 118.46 44.78 C 115.83 44.53 112.97 43.84 110.80 45.80 C 107.28 48.92 101.49 46.28 98.65 50.32 C 97.13 49.81 95.75 48.69 95.09 47.22 Z" />
</g>
<g id="#835e43ff">
<path fill="#835e43" opacity="1.00" d=" M 91.01 48.15 C 92.15 46.94 92.63 40.89 93.94 43.12 C 94.24 44.51 94.57 45.89 95.09 47.22 C 95.75 48.69 97.13 49.81 98.65 50.32 C 104.85 50.98 117.18 53.96 118.46 44.78 C 123.28 45.19 126.24 49.58 130.30 51.70 C 135.05 53.11 139.69 51.16 143.84 49.03 C 147.07 54.13 144.40 60.47 144.15 66.01 C 130.28 59.00 110.93 60.60 100.88 73.27 C 100.37 70.36 100.06 67.44 99.36 64.57 C 98.75 61.53 97.92 58.46 96.22 55.83 C 94.69 53.13 93.00 50.53 91.01 48.15 Z" />
</g>
<g id="#ba9678ff">
<path fill="#ba9678" opacity="1.00" d=" M 57.62 45.60 C 68.52 41.48 79.49 46.63 90.21 47.94 L 91.01 48.15 C 93.00 50.53 94.69 53.13 96.22 55.83 C 79.09 57.29 57.61 49.47 44.66 64.66 C 32.99 73.44 40.48 90.34 32.00 100.95 C 32.23 90.08 32.95 79.19 34.46 68.42 C 39.33 58.48 46.14 48.42 57.62 45.60 Z" />
</g>
<g id="#9c6c67ff">
<path fill="#9c6c67" opacity="1.00" d=" M 110.80 45.80 C 112.97 43.84 115.83 44.53 118.46 44.78 C 117.18 53.96 104.85 50.98 98.65 50.32 C 101.49 46.28 107.28 48.92 110.80 45.80 Z" />
</g>
<g id="#514134b2">
<path fill="#514134" opacity="0.70" d=" M 147.73 68.23 C 148.00 63.06 148.20 57.89 148.74 52.75 C 148.92 58.24 149.25 63.76 148.85 69.25 C 148.57 69.00 148.01 68.48 147.73 68.23 Z" />
</g>
<g id="#a8866bff">
<path fill="#a8866b" opacity="1.00" d=" M 44.66 64.66 C 57.61 49.47 79.09 57.29 96.22 55.83 C 97.92 58.46 98.75 61.53 99.36 64.57 C 95.06 65.67 91.34 68.06 88.15 71.11 C 84.54 74.65 76.41 73.61 76.23 67.83 C 75.97 67.33 75.45 66.31 75.18 65.81 C 72.74 63.37 71.27 66.82 70.66 68.88 C 66.20 66.98 57.64 69.52 57.20 62.82 C 56.68 61.90 55.72 61.70 54.35 62.20 L 53.87 62.78 C 52.27 64.44 51.54 66.65 50.65 68.71 C 37.19 73.03 45.45 87.81 42.68 97.67 C 37.62 100.93 33.83 105.48 30.08 110.08 C 29.59 107.44 29.68 104.91 30.33 102.49 L 30.95 101.93 C 31.21 101.68 31.74 101.20 32.00 100.95 C 40.48 90.34 32.99 73.44 44.66 64.66 Z" />
</g>
<g id="#3e3833ff">
<path fill="#3e3833" opacity="1.00" d=" M 54.35 62.20 C 55.72 61.70 56.68 61.90 57.20 62.82 C 57.22 67.31 56.72 72.26 53.79 75.90 C 50.04 76.68 50.99 71.16 50.65 68.71 C 51.54 66.65 52.27 64.44 53.87 62.78 C 53.39 66.96 58.23 63.78 54.35 62.20 Z" />
</g>
<g id="#ca9d79ff">
<path fill="#ca9d79" opacity="1.00" d=" M 100.88 73.27 C 110.93 60.60 130.28 59.00 144.15 66.01 L 144.93 66.46 C 145.85 67.07 146.79 67.65 147.73 68.23 C 148.01 68.48 148.57 69.00 148.85 69.25 C 150.75 71.22 152.89 73.08 154.29 75.45 C 144.87 72.16 135.18 66.86 124.53 67.55 C 112.91 67.68 99.98 73.17 96.19 85.08 C 95.17 85.54 95.61 89.83 93.68 88.08 C 94.64 83.82 96.57 79.87 98.44 75.95 C 99.29 75.09 100.13 74.21 100.88 73.27 Z" />
</g>
<g id="#c8c8c8ff">
<path fill="#c8c8c8" opacity="1.00" d=" M 53.87 62.78 C 53.39 66.96 58.23 63.78 54.35 62.20 Z" />
</g>
<g id="#97755bff">
<path fill="#97755b" opacity="1.00" d=" M 57.20 62.82 C 57.64 69.52 66.20 66.98 70.66 68.88 C 70.33 71.91 69.93 74.97 70.01 78.03 C 75.85 79.61 75.84 71.43 76.23 67.83 C 76.41 73.61 84.54 74.65 88.15 71.11 C 91.34 68.06 95.06 65.67 99.36 64.57 C 100.06 67.44 100.37 70.36 100.88 73.27 C 100.13 74.21 99.29 75.09 98.44 75.95 C 90.78 76.83 86.42 87.35 79.38 91.44 C 70.11 100.59 57.35 103.27 44.97 105.04 C 39.13 105.15 32.57 111.74 36.74 117.32 C 34.15 116.92 31.55 116.64 28.98 116.15 C 31.97 111.19 27.51 112.07 23.87 112.91 C 25.07 110.49 28.02 111.20 30.08 110.08 C 33.83 105.48 37.62 100.93 42.68 97.67 C 45.45 87.81 37.19 73.03 50.65 68.71 C 50.99 71.16 50.04 76.68 53.79 75.90 C 56.72 72.26 57.22 67.31 57.20 62.82 M 50.73 78.75 C 46.69 81.26 49.57 86.51 52.97 88.10 C 53.50 88.35 54.57 88.86 55.11 89.11 C 58.97 91.49 67.54 92.48 72.06 89.09 C 74.75 88.43 76.25 81.00 72.40 82.12 C 71.43 80.74 70.01 79.40 68.21 79.55 C 62.87 76.70 56.19 76.28 50.73 78.75 Z" />
</g>
<g id="#3a3632ff">
<path fill="#3a3632" opacity="1.00" d=" M 70.66 68.88 C 71.27 66.82 72.74 63.37 75.18 65.81 C 70.42 65.61 75.41 70.56 75.18 65.81 C 75.45 66.31 75.97 67.33 76.23 67.83 C 75.84 71.43 75.85 79.61 70.01 78.03 C 69.93 74.97 70.33 71.91 70.66 68.88 Z" />
</g>
<g id="#c9c9c9ff">
<path fill="#c9c9c9" opacity="1.00" d=" M 75.18 65.81 C 70.42 65.61 75.41 70.56 75.18 65.81 Z" />
</g>
<g id="#aa876bff">
<path fill="#aa876b" opacity="1.00" d=" M 124.53 67.55 C 135.18 66.86 144.87 72.16 154.29 75.45 C 157.18 78.08 158.76 83.14 159.35 87.22 C 157.07 91.99 158.80 80.81 154.16 82.72 C 147.12 79.46 143.99 87.21 138.66 89.76 C 134.47 91.01 131.36 87.94 128.32 85.78 C 126.97 81.16 123.74 83.72 122.53 86.98 C 118.45 86.64 114.17 84.05 110.16 85.87 C 110.75 79.47 106.56 81.35 104.59 85.61 C 97.15 87.45 97.36 96.25 92.18 100.37 C 92.08 98.85 92.00 97.33 91.94 95.81 C 92.41 93.16 92.72 90.48 93.07 87.83 L 93.68 88.08 C 95.61 89.83 95.17 85.54 96.19 85.08 C 99.98 73.17 112.91 67.68 124.53 67.55 Z" />
</g>
<g id="#4c40318a">
<path fill="#4c4031" opacity="0.54" d=" M 32.45 72.99 C 31.34 72.15 31.16 69.01 33.01 69.16 C 33.19 70.46 33.07 71.81 32.45 72.99 Z" />
</g>
<g id="#8b684eff">
<path fill="#8b684e" opacity="1.00" d=" M 79.38 91.44 C 86.42 87.35 90.78 76.83 98.44 75.95 C 96.57 79.87 94.64 83.82 93.68 88.08 L 93.07 87.83 C 86.20 91.13 81.75 99.91 74.01 103.01 C 63.14 109.90 46.21 106.05 38.63 118.20 C 38.16 117.98 37.21 117.54 36.74 117.32 C 32.57 111.74 39.13 105.15 44.97 105.04 C 57.35 103.27 70.11 100.59 79.38 91.44 Z" />
</g>
<g id="#f2c9cbff">
<path fill="#f2c9cb" opacity="1.00" d=" M 50.73 78.75 C 56.19 76.28 62.87 76.70 68.21 79.55 C 62.45 80.32 55.38 76.64 51.16 82.22 C 51.48 84.25 52.34 86.14 52.97 88.10 C 49.57 86.51 46.69 81.26 50.73 78.75 Z" />
</g>
<g id="#665642a2">
<path fill="#665642" opacity="0.64" d=" M 31.44 82.99 C 30.35 82.14 30.18 79.02 32.01 79.17 C 32.24 80.47 32.07 81.82 31.44 82.99 Z" />
</g>
<g id="#cea0afff">
<path fill="#cea0af" opacity="1.00" d=" M 51.16 82.22 C 55.38 76.64 62.45 80.32 68.21 79.55 C 70.01 79.40 71.43 80.74 72.40 82.12 C 65.87 82.03 62.09 89.40 55.11 89.11 C 54.57 88.86 53.50 88.35 52.97 88.10 C 52.34 86.14 51.48 84.25 51.16 82.22 Z" />
</g>
<g id="#4a423cff">
<path fill="#4a423c" opacity="1.00" d=" M 104.59 85.61 C 106.56 81.35 110.75 79.47 110.16 85.87 C 108.47 88.88 109.87 94.61 106.02 96.11 C 101.77 94.74 104.83 88.94 104.59 85.61 Z" />
</g>
<g id="#b4878fff">
<path fill="#b4878f" opacity="1.00" d=" M 55.11 89.11 C 62.09 89.40 65.87 82.03 72.40 82.12 C 76.25 81.00 74.75 88.43 72.06 89.09 C 67.54 92.48 58.97 91.49 55.11 89.11 Z" />
</g>
<g id="#9c7c64ff">
<path fill="#9c7c64" opacity="1.00" d=" M 138.66 89.76 C 143.99 87.21 147.12 79.46 154.16 82.72 C 158.80 80.81 157.07 91.99 159.35 87.22 C 160.22 87.29 160.44 88.28 160.01 90.18 C 159.76 91.79 159.94 93.43 160.50 94.96 C 160.55 95.39 160.64 96.24 160.69 96.67 C 160.28 100.52 159.92 104.38 159.59 108.24 C 155.85 103.34 162.55 94.58 155.93 91.95 C 149.40 92.93 147.53 102.76 140.04 102.04 C 135.38 100.36 129.62 98.00 127.69 92.93 C 127.85 91.14 128.16 87.57 128.32 85.78 C 131.36 87.94 134.47 91.01 138.66 89.76 Z" />
</g>
<g id="#45403bff">
<path fill="#45403b" opacity="1.00" d=" M 122.53 86.98 C 123.74 83.72 126.97 81.16 128.32 85.78 C 128.16 87.57 127.85 91.14 127.69 92.93 C 127.00 94.71 126.20 96.47 124.90 97.90 C 119.66 97.26 122.39 90.63 122.53 86.98 Z" />
</g>
<g id="#936e53ff">
<path fill="#936e53" opacity="1.00" d=" M 110.16 85.87 C 114.17 84.05 118.45 86.64 122.53 86.98 C 122.39 90.63 119.66 97.26 124.90 97.90 C 126.20 96.47 127.00 94.71 127.69 92.93 C 129.62 98.00 135.38 100.36 140.04 102.04 C 147.53 102.76 149.40 92.93 155.93 91.95 C 162.55 94.58 155.85 103.34 159.59 108.24 C 159.93 109.89 160.38 111.51 160.93 113.11 C 161.63 114.36 161.02 115.47 160.20 116.48 C 154.14 115.76 158.91 105.55 154.10 105.12 C 146.49 110.88 135.29 114.69 127.20 107.79 C 126.96 106.27 126.48 103.23 126.24 101.71 C 124.27 99.94 121.82 98.87 119.37 97.98 C 113.27 95.70 100.74 95.94 101.64 104.96 C 98.74 108.47 98.20 113.22 95.75 117.00 C 92.83 116.71 89.70 119.41 87.08 117.99 C 95.31 116.33 90.91 106.35 92.18 100.37 C 97.36 96.25 97.15 87.45 104.59 85.61 C 104.83 88.94 101.77 94.74 106.02 96.11 C 109.87 94.61 108.47 88.88 110.16 85.87 Z" />
</g>
<g id="#7e5a41ff">
<path fill="#7e5a41" opacity="1.00" d=" M 74.01 103.01 C 81.75 99.91 86.20 91.13 93.07 87.83 C 92.72 90.48 92.41 93.16 91.94 95.81 C 84.71 105.88 72.77 110.13 63.71 118.07 C 61.56 117.97 59.44 117.63 57.35 117.18 C 53.58 115.35 49.34 114.61 45.17 115.04 C 43.21 116.61 41.53 120.58 38.63 118.20 C 46.21 106.05 63.14 109.90 74.01 103.01 Z" />
</g>
<g id="#3c302691">
<path fill="#3c3026" opacity="0.57" d=" M 160.01 90.18 C 161.99 90.34 161.56 93.83 160.50 94.96 C 159.94 93.43 159.76 91.79 160.01 90.18 Z" />
</g>
<g id="#4c382a90">
<path fill="#4c382a" opacity="0.56" d=" M 30.33 102.49 C 29.41 97.75 29.63 93.92 30.97 91.01 C 31.05 94.65 31.00 98.28 30.95 101.93 L 30.33 102.49 Z" />
</g>
<g id="#6c472eff">
<path fill="#6c472e" opacity="1.00" d=" M 63.71 118.07 C 72.77 110.13 84.71 105.88 91.94 95.81 C 92.00 97.33 92.08 98.85 92.18 100.37 C 90.91 106.35 95.31 116.33 87.08 117.99 C 82.42 112.00 78.17 121.61 73.40 118.76 C 70.19 118.11 66.94 118.32 63.71 118.07 Z" />
</g>
<g id="#f3bcbaff">
<path fill="#f3bcba" opacity="1.00" d=" M 101.64 104.96 C 100.74 95.94 113.27 95.70 119.37 97.98 C 119.05 101.83 113.56 97.68 111.98 99.27 C 106.96 97.21 104.41 102.07 101.64 104.96 Z" />
</g>
<g id="#594739bf">
<path fill="#594739" opacity="0.75" d=" M 159.59 108.24 C 159.92 104.38 160.28 100.52 160.69 96.67 C 160.97 102.14 161.14 107.63 160.93 113.11 C 160.38 111.51 159.93 109.89 159.59 108.24 Z" />
</g>
<g id="#ca9aa5ff">
<path fill="#ca9aa5" opacity="1.00" d=" M 119.37 97.98 C 121.82 98.87 124.27 99.94 126.24 101.71 C 119.83 104.67 113.54 108.01 106.47 109.09 C 104.45 108.27 103.07 106.51 101.64 104.96 C 104.41 102.07 106.96 97.21 111.98 99.27 C 113.56 97.68 119.05 101.83 119.37 97.98 Z" />
</g>
<g id="#af8186ff">
<path fill="#af8186" opacity="1.00" d=" M 106.47 109.09 C 113.54 108.01 119.83 104.67 126.24 101.71 C 126.48 103.23 126.96 106.27 127.20 107.79 C 121.22 111.88 112.89 112.53 106.47 109.09 Z" />
</g>
<g id="#805d43ff">
<path fill="#805d43" opacity="1.00" d=" M 95.75 117.00 C 98.20 113.22 98.74 108.47 101.64 104.96 C 103.07 106.51 104.45 108.27 106.47 109.09 C 112.89 112.53 121.22 111.88 127.20 107.79 C 135.29 114.69 146.49 110.88 154.10 105.12 C 158.91 105.55 154.14 115.76 160.20 116.48 C 157.35 122.31 150.57 119.84 145.95 118.21 C 142.14 119.21 138.09 119.40 134.65 121.51 C 128.83 122.60 123.19 118.10 117.32 119.18 C 115.04 121.78 114.03 126.20 110.33 127.18 C 112.18 120.97 107.94 118.84 103.02 120.54 C 100.61 119.34 98.16 118.20 95.75 117.00 Z" />
</g>
<g id="#584e44fc">
<path fill="#584e44" opacity="1.00" d=" M 23.87 112.91 C 27.51 112.07 31.97 111.19 28.98 116.15 C 26.83 117.99 21.09 124.33 19.74 118.96 C 20.12 117.94 20.48 116.91 20.85 115.89 C 21.25 114.41 22.02 112.67 23.87 112.91 Z" />
</g>
<g id="#726c66fd">
<path fill="#726c66" opacity="1.00" d=" M 160.93 113.11 C 171.29 113.23 177.06 123.97 181.85 131.78 C 168.36 138.76 152.71 137.81 138.00 139.02 C 129.33 138.98 120.67 138.94 112.00 139.03 C 110.29 139.05 108.58 138.88 106.91 138.51 C 105.48 138.37 102.62 138.08 101.19 137.94 C 97.98 138.14 94.74 138.24 91.82 136.79 C 94.39 130.65 98.86 125.64 103.02 120.54 C 107.94 118.84 112.18 120.97 110.33 127.18 C 114.03 126.20 115.04 121.78 117.32 119.18 C 123.19 118.10 128.83 122.60 134.65 121.51 C 138.09 119.40 142.14 119.21 145.95 118.21 C 150.57 119.84 157.35 122.31 160.20 116.48 C 161.02 115.47 161.63 114.36 160.93 113.11 M 142.39 121.49 C 139.23 122.27 136.11 123.15 133.01 124.12 C 132.07 128.78 137.19 131.40 139.19 134.92 C 142.09 133.99 145.22 133.27 147.91 131.83 C 147.93 127.57 149.63 118.30 142.39 121.49 Z" />
</g>
<g id="#726c66ff">
<path fill="#726c66" opacity="1.00" d=" M 38.63 118.20 C 41.53 120.58 43.21 116.61 45.17 115.04 C 49.34 114.61 53.58 115.35 57.35 117.18 C 48.17 119.88 59.69 125.62 63.56 126.46 C 68.33 120.97 71.34 135.36 65.17 130.82 C 61.08 128.60 62.62 133.96 63.98 135.97 C 56.29 135.91 48.54 136.47 40.90 135.56 C 38.69 134.92 36.47 134.72 34.24 134.95 C 32.00 134.13 24.83 136.36 24.15 134.13 C 25.90 132.11 27.61 130.04 29.02 127.77 C 26.22 128.58 23.56 130.96 24.15 134.13 C 22.76 133.58 21.37 133.03 19.96 132.52 C 18.68 131.96 17.28 131.87 15.92 131.76 C 17.34 127.54 18.27 123.16 19.74 118.96 C 21.09 124.33 26.83 117.99 28.98 116.15 C 31.55 116.64 34.15 116.92 36.74 117.32 C 37.21 117.54 38.16 117.98 38.63 118.20 Z" />
</g>
<g id="#9e9588f8">
<path fill="#9e9588" opacity="0.97" d=" M 8.15 127.28 C 13.00 124.18 15.92 118.99 20.85 115.89 C 20.48 116.91 20.12 117.94 19.74 118.96 C 18.27 123.16 17.34 127.54 15.92 131.76 L 15.22 132.12 C 12.69 131.06 6.97 131.24 8.15 127.28 Z" />
</g>
<g id="#685e55ff">
<path fill="#685e55" opacity="1.00" d=" M 73.40 118.76 C 78.17 121.61 82.42 112.00 87.08 117.99 C 89.70 119.41 92.83 116.71 95.75 117.00 C 98.16 118.20 100.61 119.34 103.02 120.54 C 98.86 125.64 94.39 130.65 91.82 136.79 C 91.10 136.72 89.64 136.59 88.92 136.53 C 87.49 136.38 84.62 136.07 83.19 135.92 C 76.79 135.97 70.38 136.23 63.98 135.97 C 62.62 133.96 61.08 128.60 65.17 130.82 C 71.34 135.36 68.33 120.97 63.56 126.46 C 59.69 125.62 48.17 119.88 57.35 117.18 C 59.44 117.63 61.56 117.97 63.71 118.07 C 66.94 118.32 70.19 118.11 73.40 118.76 Z" />
</g>
<g id="#625a53ff">
<path fill="#625a53" opacity="1.00" d=" M 142.39 121.49 C 149.63 118.30 147.93 127.57 147.91 131.83 C 145.22 133.27 142.09 133.99 139.19 134.92 C 137.19 131.40 132.07 128.78 133.01 124.12 C 136.11 123.15 139.23 122.27 142.39 121.49 Z" />
</g>
<g id="#a8a096ff">
<path fill="#a8a096" opacity="1.00" d=" M 24.15 134.13 C 23.56 130.96 26.22 128.58 29.02 127.77 C 27.61 130.04 25.90 132.11 24.15 134.13 Z" />
</g>
<g id="#282828a0">
<path fill="#282828" opacity="0.63" d=" M 15.22 132.12 L 15.92 131.76 C 17.28 131.87 18.68 131.96 19.96 132.52 C 18.79 133.35 15.47 134.02 15.22 132.12 Z" />
</g>
<g id="#29282896">
<path fill="#292828" opacity="0.59" d=" M 34.24 134.95 C 36.47 134.72 38.69 134.92 40.90 135.56 C 39.14 136.52 34.91 137.28 34.24 134.95 Z" />
</g>
<g id="#2421208b">
<path fill="#242120" opacity="0.55" d=" M 83.19 135.92 C 84.62 136.07 87.49 136.38 88.92 136.53 C 87.53 137.73 83.48 138.20 83.19 135.92 Z" />
</g>
<g id="#24242499">
<path fill="#242424" opacity="0.60" d=" M 101.19 137.94 C 102.62 138.08 105.48 138.37 106.91 138.51 C 105.54 139.75 101.49 140.21 101.19 137.94 Z" />
</g>
<g id="#1f1f1f85">
<path fill="#1f1f1f" opacity="0.52" d=" M 112.00 139.03 C 120.67 138.94 129.33 138.98 138.00 139.02 C 131.92 140.41 118.04 141.11 112.00 139.03 Z" />
</g>
</svg>
