<?xml version="1.0" encoding="UTF-8" ?>
<!DOCTYPE svg PUBLIC "-//W3C//DTD SVG 1.1//EN" "http://www.w3.org/Graphics/SVG/1.1/DTD/svg11.dtd">
<svg width="100pt" height="122pt" viewBox="0 0 100 122" version="1.1" xmlns="http://www.w3.org/2000/svg">
<g id="#f7e2a7ff">
<path fill="#f7e2a7" opacity="1.00" d=" M 35.86 3.79 C 35.80 2.60 36.17 1.57 36.98 0.69 C 36.93 4.99 38.02 9.55 36.70 13.70 C 35.83 15.85 35.26 18.12 34.83 20.40 C 34.81 18.28 34.83 16.16 34.90 14.04 C 32.34 12.00 29.52 10.33 26.67 8.72 C 29.47 9.09 31.97 10.42 34.44 11.70 C 34.72 11.82 35.28 12.07 35.56 12.20 C 35.60 9.39 35.67 6.59 35.86 3.79 Z" />
<path fill="#f7e2a7" opacity="1.00" d=" M 53.34 10.33 C 53.37 7.03 54.29 3.57 56.09 0.77 C 56.14 2.41 55.97 4.04 55.58 5.62 C 54.53 10.17 53.52 14.72 52.84 19.34 C 52.43 17.90 52.15 16.43 51.92 14.95 L 52.43 14.26 C 53.54 13.25 53.60 11.71 53.34 10.33 Z" />
<path fill="#f7e2a7" opacity="1.00" d=" M 37.45 72.64 C 38.62 76.03 39.88 79.41 40.40 82.97 C 41.19 87.12 39.01 90.99 38.62 95.06 C 38.31 94.78 37.69 94.23 37.38 93.95 C 36.13 92.92 35.83 91.23 35.23 89.81 C 36.61 86.12 36.13 82.20 35.34 78.44 L 35.37 78.02 C 36.03 76.21 36.77 74.44 37.45 72.64 Z" />
</g>
<g id="#343434ff">
<path fill="#343434" opacity="1.00" d=" M 34.44 11.70 C 35.65 9.24 35.45 6.43 35.86 3.79 C 35.67 6.59 35.60 9.39 35.56 12.20 C 35.28 12.07 34.72 11.82 34.44 11.70 Z" />
<path fill="#343434" opacity="1.00" d=" M 56.88 33.57 C 56.58 38.12 56.39 42.78 54.36 46.96 C 57.49 46.73 60.66 46.26 63.36 44.54 L 63.16 45.04 C 59.33 48.63 52.94 48.75 49.15 45.04 C 50.68 45.61 52.21 46.19 53.73 46.78 C 53.53 42.89 52.63 38.64 54.29 34.98 C 54.40 35.61 54.62 36.87 54.73 37.50 C 55.84 36.47 56.55 35.16 56.88 33.57 Z" />
</g>
<g id="#b29158ff">
<path fill="#b29158" opacity="1.00" d=" M 52.84 19.34 C 53.52 14.72 54.53 10.17 55.58 5.62 C 55.28 10.15 54.14 14.56 53.85 19.09 C 54.42 18.22 54.94 17.33 55.42 16.41 L 54.53 19.34 C 56.90 17.30 59.15 15.03 61.99 13.64 C 59.44 15.98 56.70 18.10 54.16 20.45 C 53.83 20.17 53.17 19.61 52.84 19.34 Z" />
<path fill="#b29158" opacity="1.00" d=" M 52.43 14.26 C 51.65 13.22 51.85 10.41 53.34 10.33 C 53.60 11.71 53.54 13.25 52.43 14.26 Z" />
<path fill="#b29158" opacity="1.00" d=" M 40.01 111.50 C 41.97 111.05 43.83 110.28 45.63 109.43 C 46.05 110.28 46.46 111.13 46.88 111.99 C 46.47 113.01 46.07 114.04 45.66 115.07 L 44.84 114.71 C 43.49 114.01 41.91 113.70 40.44 114.22 C 40.52 114.49 40.68 115.03 40.76 115.30 L 40.92 115.84 C 40.27 115.92 38.95 116.10 38.30 116.18 C 38.98 114.55 38.99 112.84 38.55 111.15 C 38.91 111.23 39.65 111.41 40.01 111.50 Z" />
</g>
<g id="#342622ff">
<path fill="#342622" opacity="1.00" d=" M 21.86 14.97 C 22.13 12.34 22.97 7.67 26.67 8.72 C 29.52 10.33 32.34 12.00 34.90 14.04 C 34.83 16.16 34.81 18.28 34.83 20.40 C 32.39 18.13 29.66 15.92 26.15 15.88 C 24.84 19.93 24.94 24.21 25.39 28.40 C 24.32 29.42 23.32 30.50 22.37 31.62 C 22.56 26.07 20.72 20.54 21.86 14.97 Z" />
</g>
<g id="#30231eff">
<path fill="#30231e" opacity="1.00" d=" M 61.99 13.64 C 65.45 11.35 69.60 9.56 73.83 9.80 C 79.03 16.25 77.32 25.04 77.19 32.66 C 76.88 32.95 76.25 33.53 75.93 33.82 L 75.31 34.13 C 72.28 30.99 70.00 26.89 65.94 24.94 C 62.02 23.21 57.64 23.33 53.49 22.63 C 53.35 22.37 53.08 21.86 52.94 21.60 C 53.25 21.31 53.85 20.74 54.16 20.45 C 56.70 18.10 59.44 15.98 61.99 13.64 M 58.53 22.46 C 60.83 22.92 63.17 23.20 65.41 23.87 C 68.24 24.86 70.15 27.33 72.40 29.18 C 72.36 25.25 73.36 19.98 69.85 17.20 C 65.44 16.57 61.55 19.62 58.53 22.46 Z" />
<path fill="#30231e" opacity="1.00" d=" M 21.09 39.33 C 21.72 34.93 25.04 30.22 29.90 30.24 C 31.67 31.83 32.85 33.93 33.39 36.24 C 33.40 37.96 33.30 39.68 33.10 41.40 C 32.92 38.56 32.39 35.68 30.75 33.29 C 29.92 32.65 29.07 32.04 28.23 31.41 C 24.51 32.52 22.38 35.90 21.09 39.33 Z" />
<path fill="#30231e" opacity="1.00" d=" M 48.59 37.42 C 50.67 33.88 54.41 30.39 58.87 31.46 C 63.38 32.28 65.76 37.43 64.44 41.62 C 64.30 37.63 62.33 33.27 57.98 32.56 C 52.73 33.16 48.96 37.31 47.32 42.12 C 47.61 40.52 48.05 38.95 48.59 37.42 Z" />
</g>
<g id="#d9ac64ff">
<path fill="#d9ac64" opacity="1.00" d=" M 34.83 20.40 C 35.26 18.12 35.83 15.85 36.70 13.70 L 38.04 13.41 L 37.64 15.01 L 37.53 15.46 C 37.50 15.84 37.46 16.60 37.44 16.98 L 37.39 17.87 C 37.28 19.22 37.09 20.55 36.87 21.88 L 36.68 22.84 C 36.48 23.86 36.29 24.88 36.10 25.91 C 39.72 26.42 43.38 26.60 47.01 26.09 C 46.81 25.13 46.60 24.17 46.38 23.21 L 46.01 21.75 C 46.47 21.69 47.39 21.58 47.85 21.52 C 48.66 22.18 49.47 22.83 50.28 23.48 C 50.54 22.15 50.80 20.82 51.05 19.49 C 51.32 17.97 51.61 16.46 51.92 14.95 C 52.15 16.43 52.43 17.90 52.84 19.34 C 53.17 19.61 53.83 20.17 54.16 20.45 C 53.85 20.74 53.25 21.31 52.94 21.60 C 53.08 21.86 53.35 22.37 53.49 22.63 C 53.20 25.02 53.32 27.71 51.92 29.77 C 49.33 31.52 46.97 33.56 44.85 35.87 C 43.30 37.62 40.77 36.90 38.75 36.83 C 42.79 35.54 46.17 32.52 46.41 28.04 L 45.93 27.03 C 42.85 26.93 39.24 25.75 36.56 27.81 C 35.92 28.90 35.31 30.01 34.71 31.13 C 34.85 28.88 34.73 26.63 34.46 24.40 C 34.47 24.07 34.47 23.42 34.48 23.09 C 34.58 22.19 34.68 21.29 34.83 20.40 Z" />
</g>
<g id="#eecc86ff">
<path fill="#eecc86" opacity="1.00" d=" M 37.64 15.01 C 40.33 13.98 43.76 12.58 46.30 14.70 C 47.99 15.83 48.02 18.04 48.50 19.80 C 49.35 19.70 50.20 19.59 51.05 19.49 C 50.80 20.82 50.54 22.15 50.28 23.48 C 49.47 22.83 48.66 22.18 47.85 21.52 C 47.39 21.58 46.47 21.69 46.01 21.75 C 42.96 21.89 39.92 21.79 36.87 21.88 C 37.09 20.55 37.28 19.22 37.39 17.87 C 40.67 18.15 43.95 18.48 47.25 18.54 C 45.09 15.53 40.58 17.49 37.44 16.98 C 37.46 16.60 37.50 15.84 37.53 15.46 L 37.64 15.01 Z" />
<path fill="#eecc86" opacity="1.00" d=" M 5.36 31.75 C 5.58 31.49 6.01 30.98 6.23 30.72 C 11.05 31.78 15.57 33.82 20.23 35.40 C 20.19 36.01 20.12 37.21 20.08 37.82 C 19.73 38.10 19.02 38.66 18.67 38.94 C 18.01 37.37 16.28 36.82 15.05 35.82 C 13.95 34.90 12.71 34.13 11.25 33.96 C 9.20 33.49 7.22 32.73 5.36 31.75 Z" />
</g>
<g id="#c17d32ff">
<path fill="#c17d32" opacity="1.00" d=" M 26.15 15.88 C 29.66 15.92 32.39 18.13 34.83 20.40 C 34.68 21.29 34.58 22.19 34.48 23.09 L 33.03 23.88 C 33.09 21.48 29.81 23.55 32.26 24.28 C 29.88 25.49 27.52 26.77 25.39 28.40 C 24.94 24.21 24.84 19.93 26.15 15.88 Z" />
</g>
<g id="#b09052ff">
<path fill="#b09052" opacity="1.00" d=" M 37.44 16.98 C 40.58 17.49 45.09 15.53 47.25 18.54 C 43.95 18.48 40.67 18.15 37.39 17.87 L 37.44 16.98 Z" />
</g>
<g id="#b47430ff">
<path fill="#b47430" opacity="1.00" d=" M 58.53 22.46 C 61.55 19.62 65.44 16.57 69.85 17.20 C 73.36 19.98 72.36 25.25 72.40 29.18 C 70.15 27.33 68.24 24.86 65.41 23.87 C 63.17 23.20 60.83 22.92 58.53 22.46 Z" />
</g>
<g id="#a38146ff">
<path fill="#a38146" opacity="1.00" d=" M 36.87 21.88 C 39.92 21.79 42.96 21.89 46.01 21.75 L 46.38 23.21 C 43.14 23.16 39.91 23.03 36.68 22.84 L 36.87 21.88 Z" />
</g>
<g id="#7d4b1dff">
<path fill="#7d4b1d" opacity="1.00" d=" M 32.26 24.28 C 29.81 23.55 33.09 21.48 33.03 23.88 L 32.26 24.28 Z" />
</g>
<g id="#eec780ff">
<path fill="#eec780" opacity="1.00" d=" M 36.10 25.91 C 36.29 24.88 36.48 23.86 36.68 22.84 C 39.91 23.03 43.14 23.16 46.38 23.21 C 46.60 24.17 46.81 25.13 47.01 26.09 C 43.38 26.60 39.72 26.42 36.10 25.91 Z" />
<path fill="#eec780" opacity="1.00" d=" M 18.38 111.23 C 22.94 110.52 27.57 110.40 32.17 110.07 C 28.01 111.34 23.65 112.20 19.29 111.45 L 18.38 111.23 Z" />
</g>
<g id="#e8ca8eff">
<path fill="#e8ca8e" opacity="1.00" d=" M 51.92 29.77 C 53.32 27.71 53.20 25.02 53.49 22.63 C 57.64 23.33 62.02 23.21 65.94 24.94 C 70.00 26.89 72.28 30.99 75.31 34.13 L 75.93 33.82 C 76.51 34.05 77.66 34.52 78.24 34.75 C 82.74 33.58 87.33 32.80 91.90 31.96 L 91.89 32.91 C 91.42 33.07 90.47 33.40 89.99 33.57 C 86.42 34.42 82.89 35.52 79.25 36.09 C 75.28 36.78 71.31 37.56 67.26 37.50 C 67.30 39.91 67.62 42.34 67.24 44.73 C 65.76 47.82 62.83 50.06 59.57 51.03 C 60.60 49.55 61.72 48.13 62.78 46.67 C 62.87 46.27 63.06 45.45 63.16 45.04 L 63.36 44.54 C 63.74 43.57 64.14 42.61 64.44 41.62 C 65.76 37.43 63.38 32.28 58.87 31.46 C 54.41 30.39 50.67 33.88 48.59 37.42 C 45.79 38.39 42.96 39.56 39.96 39.57 C 37.41 39.43 35.43 37.56 33.39 36.24 C 32.85 33.93 31.67 31.83 29.90 30.24 C 31.20 28.44 32.63 26.74 34.15 25.12 C 33.72 27.48 33.12 29.95 33.66 32.35 C 34.82 34.34 36.88 35.57 38.75 36.83 C 40.77 36.90 43.30 37.62 44.85 35.87 C 46.97 33.56 49.33 31.52 51.92 29.77 Z" />
</g>
<g id="#ffebaeff">
<path fill="#ffebae" opacity="1.00" d=" M 32.26 24.28 L 33.03 23.88 L 34.48 23.09 C 34.47 23.42 34.47 24.07 34.46 24.40 L 34.15 25.12 C 32.63 26.74 31.20 28.44 29.90 30.24 C 25.04 30.22 21.72 34.93 21.09 39.33 C 20.92 40.60 20.81 41.88 20.76 43.17 C 21.77 44.33 22.65 45.75 24.07 46.45 C 26.26 47.14 28.47 46.15 30.58 45.64 C 30.92 45.61 31.60 45.55 31.95 45.52 C 31.93 45.97 31.90 46.85 31.89 47.30 C 29.51 47.70 26.99 47.77 24.79 48.84 C 23.09 50.32 21.89 52.26 20.54 54.05 C 20.00 53.01 19.45 51.98 18.96 50.92 C 18.78 50.55 18.44 49.81 18.26 49.44 C 15.95 50.30 13.62 51.12 11.25 51.83 C 7.86 52.74 4.50 53.76 1.17 54.85 C 4.82 51.35 10.21 50.67 14.84 49.00 C 15.90 48.70 16.97 48.40 18.04 48.10 C 17.95 45.60 17.84 43.11 17.82 40.61 C 18.03 40.19 18.46 39.36 18.67 38.94 C 19.02 38.66 19.73 38.10 20.08 37.82 C 20.12 37.21 20.19 36.01 20.23 35.40 C 20.24 33.87 21.51 32.75 22.37 31.62 C 23.32 30.50 24.32 29.42 25.39 28.40 C 27.52 26.77 29.88 25.49 32.26 24.28 Z" />
</g>
<g id="#e6bf77ff">
<path fill="#e6bf77" opacity="1.00" d=" M 34.15 25.12 L 34.46 24.40 C 34.73 26.63 34.85 28.88 34.71 31.13 C 35.31 30.01 35.92 28.90 36.56 27.81 C 39.84 27.98 43.13 28.01 46.41 28.04 C 46.17 32.52 42.79 35.54 38.75 36.83 C 36.88 35.57 34.82 34.34 33.66 32.35 C 33.12 29.95 33.72 27.48 34.15 25.12 Z" />
</g>
<g id="#a88548ff">
<path fill="#a88548" opacity="1.00" d=" M 36.56 27.81 C 39.24 25.75 42.85 26.93 45.93 27.03 L 46.41 28.04 C 43.13 28.01 39.84 27.98 36.56 27.81 Z" />
</g>
<g id="#ecdeaeff">
<path fill="#ecdeae" opacity="1.00" d=" M 2.44 30.99 C -0.36 31.08 2.33 27.28 3.18 29.91 C 2.99 30.18 2.62 30.72 2.44 30.99 Z" />
<path fill="#ecdeae" opacity="1.00" d=" M 33.39 36.24 C 35.43 37.56 37.41 39.43 39.96 39.57 C 42.96 39.56 45.79 38.39 48.59 37.42 C 48.05 38.95 47.61 40.52 47.32 42.12 C 47.91 43.11 48.52 44.09 49.15 45.04 C 52.94 48.75 59.33 48.63 63.16 45.04 C 63.06 45.45 62.87 46.27 62.78 46.67 C 61.72 48.13 60.60 49.55 59.57 51.03 L 59.57 51.04 C 55.88 48.34 51.70 50.69 47.77 51.33 C 39.93 52.39 32.00 51.08 24.15 51.94 L 24.12 53.08 C 24.12 54.61 24.15 56.13 24.19 57.66 C 22.93 56.50 21.72 55.29 20.54 54.05 C 21.89 52.26 23.09 50.32 24.79 48.84 C 26.99 47.77 29.51 47.70 31.89 47.30 C 31.90 46.85 31.93 45.97 31.95 45.52 C 31.60 45.55 30.92 45.61 30.58 45.64 C 30.04 45.65 28.95 45.66 28.41 45.67 C 29.95 44.70 31.47 43.70 32.94 42.64 C 32.98 42.33 33.06 41.71 33.10 41.40 C 33.30 39.68 33.40 37.96 33.39 36.24 Z" />
</g>
<g id="#ecece8ff">
<path fill="#ecece8" opacity="1.00" d=" M 2.44 30.99 C 2.62 30.72 2.99 30.18 3.18 29.91 C 4.34 29.43 5.38 29.59 6.29 30.39 L 6.23 30.72 C 6.01 30.98 5.58 31.49 5.36 31.75 L 4.88 31.86 C 4.27 31.64 3.05 31.20 2.44 30.99 Z" />
<path fill="#ecece8" opacity="1.00" d=" M 29.37 37.50 C 29.80 36.09 30.28 34.69 30.75 33.29 C 32.39 35.68 32.92 38.56 33.10 41.40 C 33.06 41.71 32.98 42.33 32.94 42.64 C 31.47 43.70 29.95 44.70 28.41 45.67 L 27.12 45.77 C 27.88 43.01 28.57 40.24 29.37 37.50 Z" />
</g>
<g id="#eaeae8ff">
<path fill="#eaeae8" opacity="1.00" d=" M 21.09 39.33 C 22.38 35.90 24.51 32.52 28.23 31.41 C 27.86 32.95 27.46 34.49 27.11 36.04 C 26.30 39.38 26.41 42.84 26.54 46.24 C 24.40 45.64 22.45 44.59 20.76 43.17 C 20.81 41.88 20.92 40.60 21.09 39.33 Z" />
</g>
<g id="#dbc38fff">
<path fill="#dbc38f" opacity="1.00" d=" M 28.23 31.41 C 29.07 32.04 29.92 32.65 30.75 33.29 C 30.28 34.69 29.80 36.09 29.37 37.50 C 28.62 37.01 27.87 36.52 27.11 36.04 C 27.46 34.49 27.86 32.95 28.23 31.41 Z" />
<path fill="#dbc38f" opacity="1.00" d=" M 47.77 51.33 C 51.70 50.69 55.88 48.34 59.57 51.04 C 58.55 51.94 57.46 52.89 55.98 52.68 C 47.96 52.82 39.93 52.90 31.92 53.41 C 36.38 53.86 40.95 54.09 45.14 55.89 C 43.81 57.66 42.59 59.57 40.83 60.95 C 38.73 61.45 36.56 61.28 34.42 61.31 C 34.96 61.83 35.49 62.35 36.02 62.87 C 35.52 62.94 34.52 63.07 34.02 63.14 C 32.20 62.72 30.57 61.79 28.90 61.01 C 29.58 59.93 30.26 58.84 30.95 57.76 C 29.57 55.03 27.30 53.09 24.12 53.08 L 24.15 51.94 C 32.00 51.08 39.93 52.39 47.77 51.33 Z" />
</g>
<g id="#e8e7e4ff">
<path fill="#e8e7e4" opacity="1.00" d=" M 47.32 42.12 C 48.96 37.31 52.73 33.16 57.98 32.56 C 62.33 33.27 64.30 37.63 64.44 41.62 C 64.14 42.61 63.74 43.57 63.36 44.54 C 60.66 46.26 57.49 46.73 54.36 46.96 C 56.39 42.78 56.58 38.12 56.88 33.57 C 56.55 35.16 55.84 36.47 54.73 37.50 C 54.62 36.87 54.40 35.61 54.29 34.98 C 52.63 38.64 53.53 42.89 53.73 46.78 C 52.21 46.19 50.68 45.61 49.15 45.04 C 48.52 44.09 47.91 43.11 47.32 42.12 Z" />
</g>
<g id="#362f2279">
<path fill="#362f22" opacity="0.47" d=" M 89.99 33.57 C 90.47 33.40 91.42 33.07 91.89 32.91 L 91.69 33.75 C 91.26 33.70 90.42 33.61 89.99 33.57 Z" />
</g>
<g id="#2e2d2cff">
<path fill="#2e2d2c" opacity="1.00" d=" M 11.25 33.96 C 12.71 34.13 13.95 34.90 15.05 35.82 C 13.86 37.04 10.61 35.73 11.25 33.96 Z" />
<path fill="#2e2d2c" opacity="1.00" d=" M 27.11 36.04 C 27.87 36.52 28.62 37.01 29.37 37.50 C 28.57 40.24 27.88 43.01 27.12 45.77 L 28.41 45.67 C 28.95 45.66 30.04 45.65 30.58 45.64 C 28.47 46.15 26.26 47.14 24.07 46.45 C 22.65 45.75 21.77 44.33 20.76 43.17 C 22.45 44.59 24.40 45.64 26.54 46.24 C 26.41 42.84 26.30 39.38 27.11 36.04 Z" />
</g>
<g id="#cdb078ff">
<path fill="#cdb078" opacity="1.00" d=" M 67.26 37.50 C 71.31 37.56 75.28 36.78 79.25 36.09 C 79.43 37.03 79.57 37.98 79.68 38.93 C 78.71 42.93 78.59 47.05 78.02 51.12 C 75.17 50.79 72.31 50.45 69.44 50.50 C 67.16 53.18 65.96 56.96 62.64 58.61 C 57.88 61.11 52.32 61.67 47.76 64.63 C 49.49 64.70 51.23 64.75 52.97 64.74 C 54.79 66.97 56.38 69.47 58.65 71.28 C 61.96 73.07 65.60 74.16 69.03 75.71 C 68.95 75.24 68.78 74.31 68.70 73.84 C 71.69 75.97 74.30 78.56 76.88 81.15 C 74.64 82.23 72.33 83.15 70.01 84.02 C 68.37 82.50 66.75 80.96 64.91 79.68 C 64.54 83.07 65.37 86.52 64.54 89.87 C 64.13 92.36 62.79 94.55 62.15 96.97 C 62.65 100.45 63.42 103.89 63.93 107.37 C 62.19 107.79 60.44 108.22 58.70 108.64 C 58.39 107.95 57.77 106.57 57.46 105.88 C 57.42 106.67 57.34 108.27 57.30 109.07 C 57.06 109.24 56.59 109.58 56.35 109.75 C 56.24 107.50 56.45 105.23 56.12 102.99 C 55.95 101.38 55.77 99.77 55.59 98.16 C 50.85 97.84 46.09 97.87 41.37 98.43 C 41.43 100.98 41.52 103.53 41.64 106.08 C 43.14 106.69 44.65 107.31 46.12 108.01 C 47.94 109.37 48.06 111.90 48.10 113.98 C 47.49 114.25 46.27 114.80 45.66 115.07 C 46.07 114.04 46.47 113.01 46.88 111.99 C 46.46 111.13 46.05 110.28 45.63 109.43 C 43.83 110.28 41.97 111.05 40.01 111.50 C 40.76 110.75 41.51 110.01 42.26 109.27 C 39.43 106.57 39.02 102.63 38.32 99.00 C 38.46 98.27 38.64 97.53 38.83 96.81 C 38.89 97.40 38.99 98.57 39.04 99.15 C 43.88 92.90 53.60 93.75 57.89 86.96 C 59.89 81.62 57.97 75.03 53.52 71.48 C 50.80 70.06 47.66 69.79 44.70 69.13 C 43.79 67.73 42.87 66.34 41.96 64.95 C 40.56 65.98 39.15 67.00 37.80 68.09 C 38.71 67.00 39.65 65.94 40.59 64.88 C 38.35 64.51 36.13 63.97 34.02 63.14 C 34.52 63.07 35.52 62.94 36.02 62.87 C 35.49 62.35 34.96 61.83 34.42 61.31 C 36.56 61.28 38.73 61.45 40.83 60.95 C 42.59 59.57 43.81 57.66 45.14 55.89 C 40.95 54.09 36.38 53.86 31.92 53.41 C 39.93 52.90 47.96 52.82 55.98 52.68 C 57.46 52.89 58.55 51.94 59.57 51.04 L 59.57 51.03 C 62.83 50.06 65.76 47.82 67.24 44.73 C 67.62 42.34 67.30 39.91 67.26 37.50 M 44.98 96.55 C 49.58 96.77 54.56 97.92 58.95 96.07 C 62.19 94.76 62.84 91.08 62.93 88.00 C 59.17 94.22 51.64 95.74 44.98 96.55 Z" />
</g>
<g id="#dbc488f7">
<path fill="#dbc488" opacity="0.97" d=" M 78.02 51.12 C 78.59 47.05 78.71 42.93 79.68 38.93 L 80.18 40.65 C 80.33 44.19 80.10 47.78 79.02 51.18 L 78.81 51.98 C 83.66 54.03 89.44 54.50 93.46 58.11 C 88.23 57.00 83.25 54.89 77.94 54.07 C 76.17 54.80 75.08 56.63 73.54 57.73 C 74.20 56.17 74.93 54.64 75.70 53.13 C 73.61 52.27 71.52 51.40 69.44 50.50 C 72.31 50.45 75.17 50.79 78.02 51.12 Z" />
</g>
<g id="#3734266e">
<path fill="#373426" opacity="0.43" d=" M 17.23 47.44 C 17.07 45.14 16.69 42.73 17.82 40.61 C 17.84 43.11 17.95 45.60 18.04 48.10 C 16.97 48.40 15.90 48.70 14.84 49.00 C 15.64 48.48 16.43 47.96 17.23 47.44 Z" />
</g>
<g id="#3c392974">
<path fill="#3c3929" opacity="0.45" d=" M 80.18 40.65 C 81.70 44.13 80.59 47.93 79.02 51.18 C 80.10 47.78 80.33 44.19 80.18 40.65 Z" />
</g>
<g id="#7d6441be">
<path fill="#7d6441" opacity="0.75" d=" M 11.25 51.83 C 13.62 51.12 15.95 50.30 18.26 49.44 C 18.44 49.81 18.78 50.55 18.96 50.92 C 16.38 51.17 13.82 51.53 11.25 51.83 Z" />
</g>
<g id="#bc9b63ff">
<path fill="#bc9b63" opacity="1.00" d=" M 62.64 58.61 C 65.96 56.96 67.16 53.18 69.44 50.50 C 71.52 51.40 73.61 52.27 75.70 53.13 C 74.93 54.64 74.20 56.17 73.54 57.73 C 73.45 58.11 73.22 58.30 72.83 58.30 C 68.62 58.61 65.13 61.23 61.95 63.78 C 60.83 64.02 59.69 64.24 58.55 64.41 C 56.69 64.59 54.83 64.69 52.97 64.74 C 51.23 64.75 49.49 64.70 47.76 64.63 C 52.32 61.67 57.88 61.11 62.64 58.61 Z" />
</g>
<g id="#e7d296ff">
<path fill="#e7d296" opacity="1.00" d=" M 24.12 53.08 C 27.30 53.09 29.57 55.03 30.95 57.76 C 30.26 58.84 29.58 59.93 28.90 61.01 C 27.33 59.95 25.77 58.86 24.19 57.81 L 24.19 57.66 C 24.15 56.13 24.12 54.61 24.12 53.08 Z" />
</g>
<g id="#cfb16aff">
<path fill="#cfb16a" opacity="1.00" d=" M 61.95 63.78 C 65.13 61.23 68.62 58.61 72.83 58.30 L 72.30 59.11 C 69.48 60.92 66.44 62.42 63.25 63.47 L 61.95 63.78 Z" />
</g>
<g id="#ba7d36fe">
<path fill="#ba7d36" opacity="1.00" d=" M 63.25 63.47 C 66.44 62.42 69.48 60.92 72.30 59.11 C 71.40 63.78 69.45 68.14 67.93 72.62 C 66.13 70.89 64.15 69.38 62.22 67.81 C 62.56 66.36 62.91 64.91 63.25 63.47 Z" />
</g>
<g id="#cb9f5dff">
<path fill="#cb9f5d" opacity="1.00" d=" M 52.97 64.74 C 54.83 64.69 56.69 64.59 58.55 64.41 C 59.73 65.59 60.93 66.75 62.22 67.81 C 64.15 69.38 66.13 70.89 67.93 72.62 C 68.12 72.93 68.51 73.54 68.70 73.84 C 68.78 74.31 68.95 75.24 69.03 75.71 C 65.60 74.16 61.96 73.07 58.65 71.28 C 56.38 69.47 54.79 66.97 52.97 64.74 Z" />
</g>
<g id="#e6c380ff">
<path fill="#e6c380" opacity="1.00" d=" M 37.80 68.09 C 39.15 67.00 40.56 65.98 41.96 64.95 C 42.87 66.34 43.79 67.73 44.70 69.13 C 44.40 69.84 43.79 71.26 43.49 71.97 C 41.70 71.64 39.92 71.24 38.17 70.74 C 37.93 71.37 37.69 72.01 37.45 72.64 C 36.77 74.44 36.03 76.21 35.37 78.02 C 35.30 77.41 35.18 76.18 35.11 75.57 C 31.56 79.68 28.84 84.45 24.92 88.26 C 26.26 85.12 29.61 82.08 27.75 78.44 C 31.08 74.98 34.34 71.43 37.80 68.09 Z" />
</g>
<g id="#e3cd98ff">
<path fill="#e3cd98" opacity="1.00" d=" M 44.70 69.13 C 47.66 69.79 50.80 70.06 53.52 71.48 C 57.97 75.03 59.89 81.62 57.89 86.96 C 53.60 93.75 43.88 92.90 39.04 99.15 C 38.99 98.57 38.89 97.40 38.83 96.81 L 38.75 95.85 C 38.29 95.22 37.83 94.59 37.38 93.95 C 37.69 94.23 38.31 94.78 38.62 95.06 C 39.01 90.99 41.19 87.12 40.40 82.97 C 39.88 79.41 38.62 76.03 37.45 72.64 C 37.69 72.01 37.93 71.37 38.17 70.74 C 39.92 71.24 41.70 71.64 43.49 71.97 C 43.79 71.26 44.40 69.84 44.70 69.13 Z" />
</g>
<g id="#cbaf7aff">
<path fill="#cbaf7a" opacity="1.00" d=" M 24.92 88.26 C 28.84 84.45 31.56 79.68 35.11 75.57 C 35.18 76.18 35.30 77.41 35.37 78.02 L 35.34 78.44 C 35.25 79.01 35.07 80.14 34.98 80.71 C 29.84 85.99 24.82 91.52 20.58 97.55 C 20.23 101.03 18.58 104.01 15.78 106.14 C 14.60 105.90 13.42 105.85 12.22 105.97 L 10.58 106.04 L 11.22 105.47 C 13.77 103.24 16.55 100.99 17.71 97.67 C 19.09 93.82 22.81 91.64 24.92 88.26 Z" />
</g>
<g id="#e7d19aff">
<path fill="#e7d19a" opacity="1.00" d=" M 27.75 78.44 C 29.61 82.08 26.26 85.12 24.92 88.26 C 22.81 91.64 19.09 93.82 17.71 97.67 C 16.55 100.99 13.77 103.24 11.22 105.47 C 6.69 102.65 11.53 97.47 13.60 94.50 C 17.93 88.83 22.88 83.66 27.75 78.44 Z" />
</g>
<g id="#fffec1ff">
<path fill="#fffec1" opacity="1.00" d=" M 35.34 78.44 C 36.13 82.20 36.61 86.12 35.23 89.81 C 34.62 86.82 34.44 83.72 34.98 80.71 C 35.07 80.14 35.25 79.01 35.34 78.44 Z" />
</g>
<g id="#e3ca93ff">
<path fill="#e3ca93" opacity="1.00" d=" M 70.01 84.02 C 72.33 83.15 74.64 82.23 76.88 81.15 C 80.05 85.31 82.84 89.74 85.97 93.93 C 84.65 94.63 83.33 95.33 82.01 96.03 C 79.79 93.57 77.49 91.01 74.24 89.95 L 74.11 89.89 C 72.87 87.84 71.51 85.88 70.01 84.02 Z" />
</g>
<g id="#bb9d64ff">
<path fill="#bb9d64" opacity="1.00" d=" M 44.98 96.55 C 51.64 95.74 59.17 94.22 62.93 88.00 C 62.84 91.08 62.19 94.76 58.95 96.07 C 54.56 97.92 49.58 96.77 44.98 96.55 Z" />
</g>
<g id="#eed69eff">
<path fill="#eed69e" opacity="1.00" d=" M 74.24 89.95 C 77.49 91.01 79.79 93.57 82.01 96.03 C 83.33 95.33 84.65 94.63 85.97 93.93 C 86.52 94.70 87.03 95.49 87.50 96.30 C 87.38 97.15 87.44 98.11 86.86 98.82 C 84.56 101.95 81.65 104.57 79.13 107.53 C 77.07 105.08 78.17 102.24 79.75 99.93 C 79.02 96.24 75.86 93.36 74.24 89.95 Z" />
</g>
<g id="#dfc38bfe">
<path fill="#dfc38b" opacity="1.00" d=" M 87.50 96.30 C 88.81 97.48 90.20 98.57 91.65 99.56 C 91.15 102.76 89.52 105.57 87.58 108.11 C 87.89 105.95 87.99 103.73 86.99 101.72 C 84.88 103.86 83.32 106.62 80.70 108.20 C 80.31 108.03 79.52 107.70 79.13 107.53 C 81.65 104.57 84.56 101.95 86.86 98.82 C 87.44 98.11 87.38 97.15 87.50 96.30 Z" />
</g>
<g id="#bb9057ff">
<path fill="#bb9057" opacity="1.00" d=" M 41.37 98.43 C 46.09 97.87 50.85 97.84 55.59 98.16 C 55.77 99.77 55.95 101.38 56.12 102.99 C 55.79 101.56 55.47 100.13 55.04 98.73 C 51.53 98.25 47.91 98.94 44.35 98.83 C 45.32 101.64 44.63 105.11 46.12 108.01 C 44.65 107.31 43.14 106.69 41.64 106.08 C 41.52 103.53 41.43 100.98 41.37 98.43 Z" />
</g>
<g id="#d0b17bff">
<path fill="#d0b17b" opacity="1.00" d=" M 91.65 99.56 C 92.96 100.86 94.30 102.69 93.64 104.62 C 92.44 106.63 90.87 108.48 88.93 109.81 C 86.96 110.97 84.65 109.85 83.07 108.54 C 82.37 108.53 80.96 108.50 80.26 108.49 L 80.70 108.20 C 83.32 106.62 84.88 103.86 86.99 101.72 C 87.99 103.73 87.89 105.95 87.58 108.11 C 89.52 105.57 91.15 102.76 91.65 99.56 Z" />
</g>
<g id="#ead688f8">
<path fill="#ead688" opacity="0.97" d=" M 38.32 99.00 C 39.02 102.63 39.43 106.57 42.26 109.27 C 41.51 110.01 40.76 110.75 40.01 111.50 C 39.65 111.41 38.91 111.23 38.55 111.15 C 37.74 110.91 36.12 110.44 35.31 110.21 C 38.52 110.23 38.59 107.04 38.02 104.72 C 38.02 103.53 38.00 102.35 37.95 101.16 L 38.32 99.00 Z" />
</g>
<g id="#2020165a">
<path fill="#202016" opacity="0.35" d=" M 38.02 104.72 C 36.17 105.10 36.13 100.94 37.95 101.16 C 38.00 102.35 38.02 103.53 38.02 104.72 Z" />
</g>
<g id="#443c2591">
<path fill="#443c25" opacity="0.57" d=" M 12.22 105.97 C 13.42 105.85 14.60 105.90 15.78 106.14 C 15.92 107.85 11.91 107.73 12.22 105.97 Z" />
</g>
<g id="#fae997fd">
<path fill="#fae997" opacity="1.00" d=" M 57.30 109.07 C 57.34 108.27 57.42 106.67 57.46 105.88 C 57.77 106.57 58.39 107.95 58.70 108.64 C 60.44 108.22 62.19 107.79 63.93 107.37 C 64.45 109.01 65.00 110.65 65.25 112.36 C 62.05 110.69 58.38 111.13 55.17 112.51 C 55.47 111.82 56.06 110.44 56.35 109.75 C 56.59 109.58 57.06 109.24 57.30 109.07 Z" />
</g>
<g id="#b17432fd">
<path fill="#b17432" opacity="1.00" d=" M 32.17 110.07 C 33.23 109.77 34.28 109.82 35.31 110.21 C 36.12 110.44 37.74 110.91 38.55 111.15 C 38.99 112.84 38.98 114.55 38.30 116.18 C 33.55 117.08 28.76 118.31 23.90 117.60 C 21.53 117.10 17.85 118.03 17.00 115.01 C 16.48 113.56 17.59 112.42 18.35 111.34 L 19.29 111.45 C 23.65 112.20 28.01 111.34 32.17 110.07 Z" />
</g>
<g id="#fabd5aff">
<path fill="#fabd5a" opacity="1.00" d=" M 55.17 112.51 C 58.38 111.13 62.05 110.69 65.25 112.36 L 65.98 112.67 C 62.41 113.33 58.70 113.54 55.17 112.51 Z" />
</g>
<g id="#c88c3dff">
<path fill="#c88c3d" opacity="1.00" d=" M 54.83 112.43 L 55.17 112.51 C 58.70 113.54 62.41 113.33 65.98 112.67 C 66.54 113.87 67.12 115.05 67.69 116.25 C 66.22 115.66 64.76 115.07 63.30 114.46 C 62.63 115.44 61.96 116.42 61.29 117.41 C 60.75 117.54 59.66 117.79 59.11 117.91 C 58.45 116.47 57.79 115.03 57.13 113.59 C 57.09 115.45 57.06 117.31 56.96 119.17 C 56.37 119.18 55.18 119.20 54.58 119.21 C 55.58 117.63 55.09 115.71 54.55 114.08 C 54.62 113.67 54.76 112.85 54.83 112.43 Z" />
</g>
<g id="#ceb46efe">
<path fill="#ceb46e" opacity="1.00" d=" M 40.44 114.22 C 41.91 113.70 43.49 114.01 44.84 114.71 C 43.57 115.57 42.21 115.77 40.76 115.30 C 40.68 115.03 40.52 114.49 40.44 114.22 Z" />
</g>
<g id="#593f1a98">
<path fill="#593f1a" opacity="0.60" d=" M 54.08 119.04 C 52.16 118.77 52.00 114.29 54.03 114.18 C 53.80 115.79 53.87 117.43 54.08 119.04 Z" />
</g>
<g id="#e8a345ff">
<path fill="#e8a345" opacity="1.00" d=" M 54.03 114.18 L 54.55 114.08 C 55.09 115.71 55.58 117.63 54.58 119.21 L 54.08 119.04 C 53.87 117.43 53.80 115.79 54.03 114.18 Z" />
</g>
<g id="#9b6b30ff">
<path fill="#9b6b30" opacity="1.00" d=" M 57.13 113.59 C 57.79 115.03 58.45 116.47 59.11 117.91 C 59.66 117.79 60.75 117.54 61.29 117.41 C 61.96 116.42 62.63 115.44 63.30 114.46 C 64.76 115.07 66.22 115.66 67.69 116.25 C 67.58 117.01 67.34 118.53 67.23 119.29 C 63.81 119.32 60.38 119.27 56.96 119.17 C 57.06 117.31 57.09 115.45 57.13 113.59 Z" />
</g>
</svg>
