<?xml version="1.0" encoding="UTF-8" ?>
<!DOCTYPE svg PUBLIC "-//W3C//DTD SVG 1.1//EN" "http://www.w3.org/Graphics/SVG/1.1/DTD/svg11.dtd">
<svg width="127pt" height="152pt" viewBox="0 0 127 152" version="1.1" xmlns="http://www.w3.org/2000/svg">
<g id="#4a3a28f4">
<path fill="#4a3a28" opacity="0.96" d=" M 16.94 15.03 C 15.14 14.73 13.50 5.95 17.95 7.00 C 19.84 7.98 22.74 9.01 23.48 10.94 C 23.40 15.31 24.02 19.66 23.99 24.03 C 22.51 23.25 22.72 21.05 21.97 19.68 C 21.08 16.41 20.23 12.74 17.13 10.84 C 17.04 12.24 16.97 13.63 16.94 15.03 Z" />
</g>
<g id="#4b3928f1">
<path fill="#4b3928" opacity="0.95" d=" M 50.13 8.93 C 54.82 7.23 60.12 8.94 63.73 12.22 C 64.24 14.97 64.77 17.74 65.85 20.33 C 63.66 22.45 61.71 24.80 59.68 27.07 C 57.67 28.17 55.62 29.17 53.56 30.17 C 54.99 26.02 60.37 24.92 61.73 20.71 C 62.82 17.49 60.39 13.68 57.29 12.66 C 50.98 10.51 43.34 13.20 40.10 19.06 C 39.79 19.50 39.17 20.39 38.85 20.83 C 38.61 21.12 38.13 21.69 37.89 21.98 C 37.64 22.23 37.14 22.73 36.89 22.99 C 36.38 23.22 35.35 23.68 34.83 23.90 C 35.64 21.50 36.91 19.30 37.96 17.01 C 36.47 16.99 33.49 16.94 32.00 16.92 L 32.02 16.03 C 40.07 18.95 42.46 8.35 50.13 8.93 Z" />
</g>
<g id="#ab8554fa">
<path fill="#ab8554" opacity="0.98" d=" M 17.13 10.84 C 20.23 12.74 21.08 16.41 21.97 19.68 C 20.88 20.24 20.01 21.09 19.22 22.01 C 18.48 19.68 16.77 17.59 16.94 15.03 C 16.97 13.63 17.04 12.24 17.13 10.84 Z" />
</g>
<g id="#d2b175f5">
<path fill="#d2b175" opacity="0.96" d=" M 23.99 24.03 C 24.02 19.66 23.40 15.31 23.48 10.94 C 25.78 12.72 28.78 14.26 30.00 16.93 C 27.94 18.77 24.33 19.87 25.18 23.30 C 24.88 23.48 24.29 23.85 23.99 24.03 Z" />
</g>
<g id="#9e683eff">
<path fill="#9e683e" opacity="1.00" d=" M 40.10 19.06 C 43.34 13.20 50.98 10.51 57.29 12.66 L 56.26 12.81 C 51.93 12.28 51.00 17.37 47.70 19.07 C 45.19 18.29 42.62 18.32 40.10 19.06 Z" />
</g>
<g id="#b07c4aff">
<path fill="#b07c4a" opacity="1.00" d=" M 47.70 19.07 C 51.00 17.37 51.93 12.28 56.26 12.81 C 55.91 16.54 53.50 19.55 51.14 22.29 C 50.13 21.46 49.13 20.62 48.13 19.77 L 47.70 19.07 Z" />
</g>
<g id="#ba8c57ff">
<path fill="#ba8c57" opacity="1.00" d=" M 56.26 12.81 L 57.29 12.66 C 60.39 13.68 62.82 17.49 61.73 20.71 C 60.37 24.92 54.99 26.02 53.56 30.17 L 53.01 29.55 C 52.99 27.00 52.13 24.60 51.14 22.29 C 53.50 19.55 55.91 16.54 56.26 12.81 Z" />
</g>
<g id="#f1d48fff">
<path fill="#f1d48f" opacity="1.00" d=" M 25.18 23.30 C 24.33 19.87 27.94 18.77 30.00 16.93 C 30.50 16.92 31.50 16.92 32.00 16.92 C 33.49 16.94 36.47 16.99 37.96 17.01 C 36.91 19.30 35.64 21.50 34.83 23.90 C 35.35 23.68 36.38 23.22 36.89 22.99 C 39.56 23.69 42.86 23.05 44.93 25.23 C 44.95 26.42 45.68 34.84 41.85 32.13 L 41.13 31.75 C 41.05 29.99 40.45 28.10 38.60 27.52 C 35.07 26.62 33.74 22.72 30.35 21.60 C 28.48 20.28 26.87 22.71 25.18 23.30 Z" />
</g>
<g id="#c5925dff">
<path fill="#c5925d" opacity="1.00" d=" M 40.10 19.06 C 42.62 18.32 45.19 18.29 47.70 19.07 L 48.13 19.77 C 45.02 20.00 41.91 20.21 38.85 20.83 C 39.17 20.39 39.79 19.50 40.10 19.06 Z" />
</g>
<g id="#1919114f">
<path fill="#191911" opacity="0.31" d=" M 69.06 19.03 C 68.83 15.74 75.62 18.76 77.98 18.04 L 78.00 18.97 C 75.01 19.00 72.04 18.98 69.06 19.03 Z" />
</g>
<g id="#fbf7b4fe">
<path fill="#fbf7b4" opacity="1.00" d=" M 65.85 20.33 C 66.90 19.85 67.97 19.42 69.06 19.03 C 72.04 18.98 75.01 19.00 78.00 18.97 C 80.01 18.92 82.11 18.86 83.86 20.03 C 85.14 20.54 87.70 21.56 88.98 22.07 C 88.02 25.46 82.12 22.97 79.80 25.81 C 74.65 31.37 65.11 32.77 59.68 27.07 C 61.71 24.80 63.66 22.45 65.85 20.33 Z" />
</g>
<g id="#f3df9efc">
<path fill="#f3df9e" opacity="1.00" d=" M 19.22 22.01 C 20.01 21.09 20.88 20.24 21.97 19.68 C 22.72 21.05 22.51 23.25 23.99 24.03 C 24.29 23.85 24.88 23.48 25.18 23.30 C 26.87 22.71 28.48 20.28 30.35 21.60 C 33.74 22.72 35.07 26.62 38.60 27.52 C 40.45 28.10 41.05 29.99 41.13 31.75 C 37.49 34.16 33.40 36.78 31.63 40.92 C 30.93 43.49 29.24 45.53 27.23 47.20 C 25.15 47.28 20.30 45.82 23.29 49.04 C 22.28 50.44 20.75 50.98 19.10 51.20 C 16.97 51.76 15.92 54.14 13.96 55.09 C 13.72 51.59 19.17 50.83 18.03 46.99 C 15.56 46.67 13.32 47.95 10.91 48.18 C 10.67 47.96 10.17 47.53 9.93 47.32 C 12.25 46.37 14.65 45.65 17.00 44.79 C 15.27 40.67 10.49 42.35 6.91 41.93 C 8.54 39.26 12.27 40.53 14.96 40.72 C 14.33 37.65 15.80 34.95 17.46 32.61 C 19.32 35.81 18.40 39.55 18.18 43.02 C 20.68 43.68 22.85 41.64 21.92 39.10 C 20.72 36.47 19.89 33.08 17.13 31.68 C 16.95 28.47 17.18 24.68 19.22 22.01 M 29.29 31.30 C 27.96 31.51 25.30 31.92 23.96 32.13 C 23.39 35.14 27.63 35.92 29.33 34.33 C 30.03 33.85 30.79 30.63 29.29 31.30 Z" />
</g>
<g id="#d5aa72ff">
<path fill="#d5aa72" opacity="1.00" d=" M 38.85 20.83 C 41.91 20.21 45.02 20.00 48.13 19.77 C 49.13 20.62 50.13 21.46 51.14 22.29 C 52.13 24.60 52.99 27.00 53.01 29.55 C 50.83 34.20 48.55 41.15 42.77 41.08 C 42.91 39.40 43.01 37.72 43.07 36.03 C 43.53 36.23 44.46 36.63 44.93 36.83 C 47.70 33.40 49.92 28.73 49.72 24.30 C 48.01 18.93 41.82 22.25 37.89 21.98 C 38.13 21.69 38.61 21.12 38.85 20.83 Z" />
</g>
<g id="#f7df9bfe">
<path fill="#f7df9b" opacity="1.00" d=" M 83.86 20.03 C 87.03 20.08 90.18 20.38 93.19 21.41 C 92.11 21.68 91.03 21.97 89.96 22.25 C 90.75 23.20 91.64 24.05 92.56 24.87 C 93.96 26.39 95.33 27.96 96.38 29.75 C 92.27 29.22 88.24 28.18 84.09 28.02 C 81.35 29.66 78.95 31.88 75.91 32.99 C 72.27 32.91 68.63 32.71 65.01 32.38 C 61.78 33.32 58.12 34.86 54.93 33.12 C 54.47 32.14 54.01 31.15 53.56 30.17 C 55.62 29.17 57.67 28.17 59.68 27.07 C 65.11 32.77 74.65 31.37 79.80 25.81 C 82.12 22.97 88.02 25.46 88.98 22.07 C 87.70 21.56 85.14 20.54 83.86 20.03 Z" />
</g>
<g id="#e1bd80ff">
<path fill="#e1bd80" opacity="1.00" d=" M 37.89 21.98 C 41.82 22.25 48.01 18.93 49.72 24.30 C 49.92 28.73 47.70 33.40 44.93 36.83 C 44.46 36.63 43.53 36.23 43.07 36.03 C 42.87 35.44 42.48 34.26 42.29 33.67 C 42.18 33.29 41.96 32.52 41.85 32.13 C 45.68 34.84 44.95 26.42 44.93 25.23 C 42.86 23.05 39.56 23.69 36.89 22.99 C 37.14 22.73 37.64 22.23 37.89 21.98 Z" />
</g>
<g id="#e4c385f7">
<path fill="#e4c385" opacity="0.97" d=" M 93.19 21.41 C 96.01 22.89 102.04 23.28 101.98 27.12 C 98.71 26.98 95.83 24.05 92.56 24.87 C 91.64 24.05 90.75 23.20 89.96 22.25 C 91.03 21.97 92.11 21.68 93.19 21.41 Z" />
</g>
<g id="#cda570fb">
<path fill="#cda570" opacity="1.00" d=" M 92.56 24.87 C 95.83 24.05 98.71 26.98 101.98 27.12 C 108.45 31.96 113.07 40.57 113.64 48.77 C 113.30 51.84 113.11 54.94 112.86 58.02 C 110.83 56.90 107.91 56.12 109.46 52.40 C 108.07 45.98 106.98 37.79 100.32 34.70 C 100.01 34.53 99.39 34.17 99.08 34.00 C 98.22 32.55 97.38 31.10 96.38 29.75 C 95.33 27.96 93.96 26.39 92.56 24.87 Z" />
</g>
<g id="#f2d492ff">
<path fill="#f2d492" opacity="1.00" d=" M 75.91 32.99 C 78.95 31.88 81.35 29.66 84.09 28.02 C 88.24 28.18 92.27 29.22 96.38 29.75 C 97.38 31.10 98.22 32.55 99.08 34.00 C 94.71 33.04 90.76 30.35 86.07 31.02 C 82.32 32.34 79.61 36.46 75.01 34.89 C 72.82 36.83 66.76 32.60 65.96 37.05 C 64.08 39.24 64.45 41.69 65.86 43.90 C 60.54 43.09 55.11 43.46 49.84 42.43 C 51.63 42.29 55.22 41.99 57.01 41.85 C 58.30 38.43 56.09 35.92 54.93 33.12 C 58.12 34.86 61.78 33.32 65.01 32.38 C 68.63 32.71 72.27 32.91 75.91 32.99 Z" />
</g>
<g id="#cb9f6bff">
<path fill="#cb9f6b" opacity="1.00" d=" M 42.77 41.08 C 48.55 41.15 50.83 34.20 53.01 29.55 L 53.56 30.17 C 54.01 31.15 54.47 32.14 54.93 33.12 C 56.09 35.92 58.30 38.43 57.01 41.85 C 55.22 41.99 51.63 42.29 49.84 42.43 C 48.99 42.64 48.28 43.14 47.71 43.94 C 43.13 47.14 37.04 47.06 32.61 50.56 C 31.13 51.65 25.51 54.27 26.03 51.04 C 30.06 49.90 32.95 46.81 36.12 44.28 C 38.82 44.34 40.94 42.91 42.77 41.08 Z" />
</g>
<g id="#d96b4cff">
<path fill="#d96b4c" opacity="1.00" d=" M 29.29 31.30 C 30.79 30.63 30.03 33.85 29.33 34.33 C 27.63 35.92 23.39 35.14 23.96 32.13 C 25.30 31.92 27.96 31.51 29.29 31.30 Z" />
</g>
<g id="#e8c88aff">
<path fill="#e8c88a" opacity="1.00" d=" M 75.01 34.89 C 79.61 36.46 82.32 32.34 86.07 31.02 C 90.76 30.35 94.71 33.04 99.08 34.00 C 99.39 34.17 100.01 34.53 100.32 34.70 L 100.41 35.69 C 100.30 36.20 100.08 37.21 99.97 37.72 C 94.87 36.63 89.66 33.65 84.41 35.48 C 80.21 38.23 74.99 37.51 70.24 38.25 C 68.53 41.94 67.21 45.89 67.05 49.99 C 66.64 51.56 67.27 52.25 68.94 52.06 L 68.86 52.92 C 64.66 51.61 64.15 58.33 60.08 56.15 C 60.33 57.44 60.69 58.70 60.93 59.98 C 59.68 59.73 58.44 59.37 57.20 59.06 C 56.45 57.81 55.71 56.55 55.08 55.23 C 60.25 56.07 58.76 47.45 54.08 48.99 C 51.20 48.97 48.40 48.21 45.74 47.16 C 47.05 46.40 48.54 46.05 50.03 45.86 C 52.16 46.78 57.12 48.87 56.01 45.05 C 56.25 41.62 49.93 44.85 47.71 43.94 C 48.28 43.14 48.99 42.64 49.84 42.43 C 55.11 43.46 60.54 43.09 65.86 43.90 C 64.45 41.69 64.08 39.24 65.96 37.05 C 66.76 32.60 72.82 36.83 75.01 34.89 Z" />
</g>
<g id="#a59882ff">
<path fill="#a59882" opacity="1.00" d=" M 17.13 31.68 C 19.89 33.08 20.72 36.47 21.92 39.10 C 22.85 41.64 20.68 43.68 18.18 43.02 C 18.40 39.55 19.32 35.81 17.46 32.61 L 17.13 31.68 Z" />
</g>
<g id="#807364ff">
<path fill="#807364" opacity="1.00" d=" M 31.63 40.92 C 33.40 36.78 37.49 34.16 41.13 31.75 L 41.85 32.13 C 41.96 32.52 42.18 33.29 42.29 33.67 C 37.21 33.13 37.77 38.50 37.28 42.13 C 41.78 42.50 43.00 37.30 42.29 33.67 C 42.48 34.26 42.87 35.44 43.07 36.03 C 43.01 37.72 42.91 39.40 42.77 41.08 C 40.94 42.91 38.82 44.34 36.12 44.28 C 34.48 43.35 32.87 42.35 31.63 40.92 Z" />
</g>
<g id="#cececcff">
<path fill="#cececc" opacity="1.00" d=" M 37.28 42.13 C 37.77 38.50 37.21 33.13 42.29 33.67 C 43.00 37.30 41.78 42.50 37.28 42.13 Z" />
</g>
<g id="#e2be83ff">
<path fill="#e2be83" opacity="1.00" d=" M 84.41 35.48 C 89.66 33.65 94.87 36.63 99.97 37.72 C 100.08 37.21 100.30 36.20 100.41 35.69 C 104.21 42.50 107.27 50.15 106.38 58.13 C 106.06 56.10 106.26 53.60 103.78 53.04 C 103.41 52.84 102.67 52.43 102.31 52.23 C 102.39 50.08 101.89 47.96 101.17 45.95 C 100.55 44.34 100.19 42.48 98.79 41.33 C 95.35 41.97 92.43 40.01 89.64 38.33 C 84.42 38.44 79.33 39.70 74.15 40.20 C 71.81 43.85 69.92 47.82 68.94 52.06 C 67.27 52.25 66.64 51.56 67.05 49.99 C 67.21 45.89 68.53 41.94 70.24 38.25 C 74.99 37.51 80.21 38.23 84.41 35.48 Z" />
</g>
<g id="#d7b37bfd">
<path fill="#d7b37b" opacity="1.00" d=" M 100.32 34.70 C 106.98 37.79 108.07 45.98 109.46 52.40 C 107.91 56.12 110.83 56.90 112.86 58.02 C 113.11 54.94 113.30 51.84 113.64 48.77 C 114.28 50.46 115.21 52.11 115.02 53.98 C 115.00 58.32 115.03 62.67 114.97 67.01 C 114.58 69.09 113.96 71.12 113.59 73.21 C 113.29 72.09 112.98 70.98 112.67 69.87 C 109.92 73.56 107.46 77.51 105.71 81.77 C 104.26 87.47 104.13 93.43 103.62 99.28 C 103.20 97.59 103.03 95.85 102.90 94.13 C 102.91 91.10 103.40 87.94 101.82 85.23 C 100.61 85.35 99.42 85.63 98.21 85.72 C 97.14 85.39 96.08 85.06 95.02 84.71 C 95.44 82.56 97.40 81.18 98.25 79.21 C 98.50 78.73 99.01 77.76 99.26 77.28 C 101.90 73.30 101.97 68.46 102.16 63.84 L 102.96 64.11 C 104.44 67.57 99.86 76.87 105.88 77.01 C 108.22 72.84 110.21 68.47 111.84 63.97 C 111.39 61.23 107.22 60.63 106.38 58.13 C 107.27 50.15 104.21 42.50 100.41 35.69 L 100.32 34.70 Z" />
</g>
<g id="#dcb77afd">
<path fill="#dcb77a" opacity="1.00" d=" M 74.15 40.20 C 79.33 39.70 84.42 38.44 89.64 38.33 C 92.43 40.01 95.35 41.97 98.79 41.33 C 100.19 42.48 100.55 44.34 101.17 45.95 C 99.49 45.86 96.13 45.68 94.46 45.58 C 92.73 43.32 90.95 40.64 87.94 40.10 C 84.02 40.52 80.21 41.67 76.34 42.33 C 74.17 42.97 75.03 45.57 75.51 47.15 C 75.86 48.18 76.24 49.20 76.65 50.21 C 76.78 50.89 77.04 52.24 77.17 52.92 C 75.79 51.65 75.32 49.10 73.15 49.01 C 69.56 58.27 72.60 68.64 68.87 77.87 C 67.83 81.45 65.29 84.14 62.89 86.84 C 58.55 92.72 60.57 100.76 57.06 107.02 C 55.10 109.75 56.70 112.85 56.87 115.79 C 55.87 116.29 54.90 116.86 53.94 117.43 C 51.85 117.75 50.19 118.32 49.11 119.99 C 48.38 115.75 46.49 110.52 50.26 107.26 C 52.51 106.17 55.25 105.96 56.81 103.77 C 58.22 96.85 57.67 89.41 55.81 82.67 C 58.28 80.72 62.28 79.10 60.92 75.20 C 54.89 71.12 46.78 73.73 39.99 73.90 C 34.85 73.23 35.16 79.77 34.02 83.07 C 31.90 87.68 35.54 92.30 35.01 97.03 C 34.45 104.39 28.65 110.45 29.05 118.04 C 29.25 120.26 27.66 121.80 26.48 123.45 C 25.94 126.61 25.21 129.77 24.90 132.97 C 24.82 134.41 23.25 135.25 22.19 136.01 C 21.79 134.99 21.43 133.97 21.11 132.93 C 20.06 129.95 20.34 126.88 20.97 123.85 C 17.36 125.40 19.45 129.92 18.97 133.03 C 18.20 132.96 16.66 132.83 15.89 132.76 C 15.90 132.30 15.92 131.38 15.93 130.93 C 16.26 127.44 15.15 123.45 17.27 120.35 C 23.64 122.39 21.29 116.24 23.43 113.38 C 27.39 105.87 32.56 98.20 31.69 89.31 C 30.15 83.89 31.66 78.45 33.32 73.29 C 35.95 69.53 41.25 69.70 45.09 67.71 C 41.88 65.66 37.96 64.40 35.90 60.98 C 40.21 63.04 46.00 64.56 49.76 60.74 C 51.00 59.14 55.86 56.74 52.42 54.88 C 51.26 53.80 49.62 53.45 48.13 53.09 C 46.61 53.00 45.57 51.99 44.63 50.92 L 44.81 49.88 C 48.82 49.07 51.31 53.10 55.06 53.05 C 55.02 51.63 54.62 50.28 54.08 48.99 C 58.76 47.45 60.25 56.07 55.08 55.23 C 55.71 56.55 56.45 57.81 57.20 59.06 C 54.88 61.63 52.28 63.94 50.09 66.63 C 52.59 67.36 54.90 69.64 57.66 68.57 C 59.89 67.63 62.21 68.62 63.84 70.22 C 63.94 72.74 64.13 77.77 64.22 80.29 C 69.89 72.68 67.15 61.85 68.86 52.92 L 68.94 52.06 C 69.92 47.82 71.81 43.85 74.15 40.20 Z" />
</g>
<g id="#d6ae77ff">
<path fill="#d6ae77" opacity="1.00" d=" M 76.34 42.33 C 80.21 41.67 84.02 40.52 87.94 40.10 C 90.95 40.64 92.73 43.32 94.46 45.58 C 96.13 45.68 99.49 45.86 101.17 45.95 C 101.89 47.96 102.39 50.08 102.31 52.23 C 99.71 49.75 98.61 53.67 96.95 55.17 C 92.51 52.67 93.90 46.07 89.79 43.13 C 84.93 43.28 78.98 43.35 75.51 47.15 C 75.03 45.57 74.17 42.97 76.34 42.33 Z" />
</g>
<g id="#dcba81ff">
<path fill="#dcba81" opacity="1.00" d=" M 27.23 47.20 C 29.24 45.53 30.93 43.49 31.63 40.92 C 32.87 42.35 34.48 43.35 36.12 44.28 C 32.95 46.81 30.06 49.90 26.03 51.04 C 26.03 50.56 26.03 49.60 26.04 49.12 C 26.33 48.64 26.93 47.68 27.23 47.20 Z" />
</g>
<g id="#d0a66ffe">
<path fill="#d0a66f" opacity="1.00" d=" M 75.51 47.15 C 78.98 43.35 84.93 43.28 89.79 43.13 C 93.90 46.07 92.51 52.67 96.95 55.17 C 98.61 53.67 99.71 49.75 102.31 52.23 C 102.67 52.43 103.41 52.84 103.78 53.04 C 103.25 56.71 102.92 60.41 102.96 64.11 L 102.16 63.84 C 101.35 62.50 101.58 59.32 99.29 60.20 C 96.76 68.34 88.70 71.95 82.63 77.12 C 81.80 76.35 80.96 75.60 80.07 74.91 C 80.12 75.61 80.20 77.02 80.24 77.72 C 80.13 81.24 79.96 84.79 80.19 88.31 C 79.89 88.49 79.27 88.85 78.96 89.03 C 78.02 84.51 81.52 77.51 76.17 74.94 C 74.55 79.65 70.35 83.73 70.18 88.69 C 73.07 90.43 76.81 91.29 78.68 94.35 C 77.14 103.07 79.55 98.59 80.98 96.86 C 80.64 100.92 80.27 104.98 79.82 109.03 L 78.88 109.30 C 74.88 105.62 77.99 99.12 76.82 94.20 C 73.66 91.18 68.78 90.95 65.08 88.84 C 65.91 85.97 69.20 84.10 69.94 80.99 C 73.83 73.90 72.54 65.62 74.10 57.95 C 76.89 57.76 76.50 61.51 77.78 63.23 C 78.00 61.41 78.18 59.59 78.35 57.77 C 79.43 61.79 79.68 65.94 80.18 70.06 C 83.58 69.33 86.93 66.73 87.88 63.35 C 89.49 59.59 92.43 56.04 91.95 51.74 C 92.57 49.06 89.87 46.12 87.13 47.18 C 83.63 48.17 80.11 49.10 76.65 50.21 C 76.24 49.20 75.86 48.18 75.51 47.15 Z" />
</g>
<g id="#bd8b5afe">
<path fill="#bd8b5a" opacity="1.00" d=" M 32.61 50.56 C 37.04 47.06 43.13 47.14 47.71 43.94 C 48.48 44.58 49.25 45.22 50.03 45.86 C 48.54 46.05 47.05 46.40 45.74 47.16 C 45.03 47.78 44.72 48.69 44.81 49.88 L 44.63 50.92 C 39.34 53.91 34.33 58.67 27.78 58.24 C 26.79 58.01 25.82 57.72 24.80 57.63 C 23.02 57.19 21.80 55.37 20.71 53.98 C 20.82 52.11 22.60 52.08 24.01 51.69 C 25.14 51.36 25.31 49.91 26.04 49.12 C 26.03 49.60 26.03 50.56 26.03 51.04 C 25.51 54.27 31.13 51.65 32.61 50.56 Z" />
</g>
<g id="#cba06cff">
<path fill="#cba06c" opacity="1.00" d=" M 47.71 43.94 C 49.93 44.85 56.25 41.62 56.01 45.05 C 57.12 48.87 52.16 46.78 50.03 45.86 C 49.25 45.22 48.48 44.58 47.71 43.94 Z" />
</g>
<g id="#9d9a68cb">
<path fill="#9d9a68" opacity="0.80" d=" M 6.31 49.77 C 6.24 48.18 8.61 47.35 9.93 47.32 C 10.17 47.53 10.67 47.96 10.91 48.18 C 10.10 49.32 7.74 49.89 6.31 49.77 Z" />
</g>
<g id="#564835ff">
<path fill="#564835" opacity="1.00" d=" M 23.29 49.04 C 20.30 45.82 25.15 47.28 27.23 47.20 C 26.93 47.68 26.33 48.64 26.04 49.12 C 25.31 49.91 25.14 51.36 24.01 51.69 C 23.93 50.75 23.69 49.87 23.29 49.04 Z" />
</g>
<g id="#c89b68ff">
<path fill="#c89b68" opacity="1.00" d=" M 44.81 49.88 C 44.72 48.69 45.03 47.78 45.74 47.16 C 48.40 48.21 51.20 48.97 54.08 48.99 C 54.62 50.28 55.02 51.63 55.06 53.05 C 51.31 53.10 48.82 49.07 44.81 49.88 Z" />
</g>
<g id="#c69865ff">
<path fill="#c69865" opacity="1.00" d=" M 76.65 50.21 C 80.11 49.10 83.63 48.17 87.13 47.18 C 89.87 46.12 92.57 49.06 91.95 51.74 C 89.39 54.82 87.44 59.49 87.88 63.35 C 86.93 66.73 83.58 69.33 80.18 70.06 C 79.68 65.94 79.43 61.79 78.35 57.77 C 78.06 56.13 77.91 54.43 77.17 52.92 C 77.04 52.24 76.78 50.89 76.65 50.21 Z" />
</g>
<g id="#dfc187fa">
<path fill="#dfc187" opacity="0.98" d=" M 23.29 49.04 C 23.69 49.87 23.93 50.75 24.01 51.69 C 22.60 52.08 20.82 52.11 20.71 53.98 C 19.63 53.54 19.63 52.10 19.10 51.20 C 20.75 50.98 22.28 50.44 23.29 49.04 Z" />
</g>
<g id="#d6ad71fe">
<path fill="#d6ad71" opacity="1.00" d=" M 73.15 49.01 C 75.32 49.10 75.79 51.65 77.17 52.92 C 77.91 54.43 78.06 56.13 78.35 57.77 C 78.18 59.59 78.00 61.41 77.78 63.23 C 76.50 61.51 76.89 57.76 74.10 57.95 C 72.54 65.62 73.83 73.90 69.94 80.99 C 69.20 84.10 65.91 85.97 65.08 88.84 C 68.78 90.95 73.66 91.18 76.82 94.20 C 77.99 99.12 74.88 105.62 78.88 109.30 C 78.94 111.87 78.98 114.45 78.99 117.03 C 78.94 117.61 78.85 118.76 78.80 119.34 C 76.69 118.62 76.13 116.25 75.59 114.35 C 73.53 107.77 77.86 100.65 74.67 94.32 C 73.57 93.66 72.42 93.03 71.18 92.67 C 68.43 92.11 65.65 91.83 62.89 91.30 C 64.05 97.57 63.98 104.01 62.39 110.20 C 58.30 108.91 60.29 113.66 60.66 116.22 C 60.20 117.46 60.23 118.99 59.29 119.98 C 58.76 119.69 57.71 119.10 57.18 118.80 C 57.10 118.05 56.95 116.54 56.87 115.79 C 56.70 112.85 55.10 109.75 57.06 107.02 C 60.57 100.76 58.55 92.72 62.89 86.84 C 65.29 84.14 67.83 81.45 68.87 77.87 C 72.60 68.64 69.56 58.27 73.15 49.01 Z" />
</g>
<g id="#d0a66fff">
<path fill="#d0a66f" opacity="1.00" d=" M 27.78 58.24 C 34.33 58.67 39.34 53.91 44.63 50.92 C 45.57 51.99 46.61 53.00 48.13 53.09 C 45.15 55.48 42.14 57.93 39.80 60.97 C 44.39 61.62 50.93 59.91 52.42 54.88 C 55.86 56.74 51.00 59.14 49.76 60.74 C 46.00 64.56 40.21 63.04 35.90 60.98 C 34.68 60.14 33.50 59.12 31.93 59.12 C 30.54 58.87 29.14 58.64 27.78 58.24 Z" />
</g>
<g id="#a5794eff">
<path fill="#a5794e" opacity="1.00" d=" M 87.88 63.35 C 87.44 59.49 89.39 54.82 91.95 51.74 C 92.43 56.04 89.49 59.59 87.88 63.35 Z" />
</g>
<g id="#c29260ff">
<path fill="#c29260" opacity="1.00" d=" M 48.13 53.09 C 49.62 53.45 51.26 53.80 52.42 54.88 C 50.93 59.91 44.39 61.62 39.80 60.97 C 42.14 57.93 45.15 55.48 48.13 53.09 Z" />
</g>
<g id="#e1be82ff">
<path fill="#e1be82" opacity="1.00" d=" M 60.08 56.15 C 64.15 58.33 64.66 51.61 68.86 52.92 C 67.15 61.85 69.89 72.68 64.22 80.29 C 64.13 77.77 63.94 72.74 63.84 70.22 C 62.21 68.62 59.89 67.63 57.66 68.57 C 54.90 69.64 52.59 67.36 50.09 66.63 C 52.28 63.94 54.88 61.63 57.20 59.06 C 58.44 59.37 59.68 59.73 60.93 59.98 C 60.69 58.70 60.33 57.44 60.08 56.15 Z" />
</g>
<g id="#efd291ff">
<path fill="#efd291" opacity="1.00" d=" M 103.78 53.04 C 106.26 53.60 106.06 56.10 106.38 58.13 C 107.22 60.63 111.39 61.23 111.84 63.97 C 110.21 68.47 108.22 72.84 105.88 77.01 C 99.86 76.87 104.44 67.57 102.96 64.11 C 102.92 60.41 103.25 56.71 103.78 53.04 Z" />
</g>
<g id="#18150e52">
<path fill="#18150e" opacity="0.32" d=" M 115.02 53.98 L 115.99 54.01 C 115.99 58.33 116.17 62.66 115.95 66.98 L 114.97 67.01 C 115.03 62.67 115.00 58.32 115.02 53.98 Z" />
</g>
<g id="#ecd491fa">
<path fill="#ecd491" opacity="0.98" d=" M 24.80 57.63 C 25.82 57.72 26.79 58.01 27.78 58.24 C 29.14 58.64 30.54 58.87 31.93 59.12 C 33.34 62.70 32.05 66.31 30.81 69.73 C 29.61 74.74 29.10 79.89 28.43 85.00 C 29.39 89.86 30.67 95.35 27.80 99.80 C 25.80 102.82 25.34 106.51 23.67 109.69 C 23.30 110.68 22.65 110.91 21.72 110.38 C 24.88 103.68 26.22 96.35 26.87 89.09 C 23.54 79.06 23.15 67.96 24.80 57.63 Z" />
</g>
<g id="#e8c886fd">
<path fill="#e8c886" opacity="1.00" d=" M 31.93 59.12 C 33.50 59.12 34.68 60.14 35.90 60.98 C 37.96 64.40 41.88 65.66 45.09 67.71 C 41.25 69.70 35.95 69.53 33.32 73.29 C 31.66 78.45 30.15 83.89 31.69 89.31 C 32.56 98.20 27.39 105.87 23.43 113.38 C 21.29 116.24 23.64 122.39 17.27 120.35 C 15.15 123.45 16.26 127.44 15.93 130.93 C 14.48 130.31 12.54 129.23 12.85 131.81 C 9.17 130.52 4.31 138.96 6.97 129.01 C 5.08 124.65 8.63 119.96 12.90 119.79 C 17.61 118.80 19.34 113.04 21.72 110.38 C 22.65 110.91 23.30 110.68 23.67 109.69 C 25.34 106.51 25.80 102.82 27.80 99.80 C 30.67 95.35 29.39 89.86 28.43 85.00 C 29.10 79.89 29.61 74.74 30.81 69.73 C 32.05 66.31 33.34 62.70 31.93 59.12 Z" />
</g>
<g id="#c79a64fd">
<path fill="#c79a64" opacity="1.00" d=" M 99.29 60.20 C 101.58 59.32 101.35 62.50 102.16 63.84 C 101.97 68.46 101.90 73.30 99.26 77.28 C 99.13 74.45 99.87 71.70 100.01 68.89 C 95.93 69.87 93.96 74.54 90.03 76.06 C 84.69 76.62 88.05 79.97 89.19 81.97 C 92.40 81.94 95.28 80.23 98.25 79.21 C 97.40 81.18 95.44 82.56 95.02 84.71 C 96.08 85.06 97.14 85.39 98.21 85.72 C 94.52 86.07 90.84 85.72 87.15 85.75 C 86.91 82.32 84.26 79.93 82.63 77.12 C 88.70 71.95 96.76 68.34 99.29 60.20 Z" />
</g>
<g id="#bf8e5bff">
<path fill="#bf8e5b" opacity="1.00" d=" M 90.03 76.06 C 93.96 74.54 95.93 69.87 100.01 68.89 C 99.87 71.70 99.13 74.45 99.26 77.28 C 99.01 77.76 98.50 78.73 98.25 79.21 C 95.28 80.23 92.40 81.94 89.19 81.97 C 88.05 79.97 84.69 76.62 90.03 76.06 Z" />
</g>
<g id="#c49b6bf8">
<path fill="#c49b6b" opacity="0.97" d=" M 105.71 81.77 C 107.46 77.51 109.92 73.56 112.67 69.87 C 112.98 70.98 113.29 72.09 113.59 73.21 C 112.66 76.65 109.07 80.47 105.71 81.77 Z" />
</g>
<g id="#ca9d64fe">
<path fill="#ca9d64" opacity="1.00" d=" M 39.99 73.90 C 46.78 73.73 54.89 71.12 60.92 75.20 C 62.28 79.10 58.28 80.72 55.81 82.67 L 54.99 83.10 C 55.01 82.54 55.06 81.40 55.09 80.84 C 55.23 79.56 56.32 77.97 54.78 77.14 C 49.12 76.80 42.69 80.06 37.83 76.10 C 40.82 79.34 39.03 82.96 37.47 86.41 C 35.27 90.08 38.69 92.70 38.94 96.00 C 38.11 103.66 32.94 110.09 32.77 117.89 C 32.25 122.62 28.70 126.23 28.17 130.97 C 29.42 130.79 31.38 129.48 31.12 131.73 C 29.17 132.66 27.08 133.29 24.90 132.97 C 25.21 129.77 25.94 126.61 26.48 123.45 C 27.66 121.80 29.25 120.26 29.05 118.04 C 28.65 110.45 34.45 104.39 35.01 97.03 C 35.54 92.30 31.90 87.68 34.02 83.07 C 35.16 79.77 34.85 73.23 39.99 73.90 Z" />
</g>
<g id="#c59866fd">
<path fill="#c59866" opacity="1.00" d=" M 76.17 74.94 C 81.52 77.51 78.02 84.51 78.96 89.03 C 79.27 88.85 79.89 88.49 80.19 88.31 L 80.95 87.90 C 81.20 90.90 82.34 93.96 80.98 96.86 C 79.55 98.59 77.14 103.07 78.68 94.35 C 76.81 91.29 73.07 90.43 70.18 88.69 C 70.35 83.73 74.55 79.65 76.17 74.94 Z" />
</g>
<g id="#06050311">
<path fill="#060503" opacity="0.07" d=" M 80.07 74.91 C 80.96 75.60 81.80 76.35 82.63 77.12 C 84.26 79.93 86.91 82.32 87.15 85.75 C 87.25 86.34 87.46 87.52 87.56 88.11 C 87.18 94.75 90.65 103.77 84.94 108.92 C 83.39 109.83 81.81 110.74 80.61 112.13 C 80.33 111.10 80.06 110.07 79.82 109.03 C 80.27 104.98 80.64 100.92 80.98 96.86 C 82.34 93.96 81.20 90.90 80.95 87.90 C 80.90 84.50 81.54 80.96 80.24 77.72 C 80.20 77.02 80.12 75.61 80.07 74.91 Z" />
</g>
<g id="#b17f4efa">
<path fill="#b17f4e" opacity="0.98" d=" M 37.83 76.10 C 42.69 80.06 49.12 76.80 54.78 77.14 C 56.32 77.97 55.23 79.56 55.09 80.84 C 52.02 80.03 47.82 80.22 46.97 83.85 C 45.44 83.39 42.98 82.03 42.32 84.31 C 39.57 88.06 40.13 92.60 42.65 96.30 C 40.24 88.54 45.06 90.35 44.07 93.99 C 43.92 101.96 38.52 108.73 36.36 116.31 C 34.86 121.50 33.93 126.87 31.82 131.89 L 31.12 131.73 C 31.38 129.48 29.42 130.79 28.17 130.97 C 28.70 126.23 32.25 122.62 32.77 117.89 C 32.94 110.09 38.11 103.66 38.94 96.00 C 38.69 92.70 35.27 90.08 37.47 86.41 C 39.03 82.96 40.82 79.34 37.83 76.10 Z" />
</g>
<g id="#776445b9">
<path fill="#776445" opacity="0.73" d=" M 80.24 77.72 C 81.54 80.96 80.90 84.50 80.95 87.90 L 80.19 88.31 C 79.96 84.79 80.13 81.24 80.24 77.72 Z" />
</g>
<g id="#a47040f6">
<path fill="#a47040" opacity="0.96" d=" M 42.32 84.31 C 42.98 82.03 45.44 83.39 46.97 83.85 C 46.37 87.23 44.17 90.20 44.93 93.93 L 44.07 93.99 C 45.06 90.35 40.24 88.54 42.65 96.30 C 40.13 92.60 39.57 88.06 42.32 84.31 Z" />
</g>
<g id="#bf8f5cfd">
<path fill="#bf8f5c" opacity="1.00" d=" M 87.15 85.75 C 90.84 85.72 94.52 86.07 98.21 85.72 C 99.42 85.63 100.61 85.35 101.82 85.23 C 103.40 87.94 102.91 91.10 102.90 94.13 C 99.37 90.13 93.98 89.15 89.12 87.70 C 88.73 87.80 87.95 88.01 87.56 88.11 C 87.46 87.52 87.25 86.34 87.15 85.75 Z" />
</g>
<g id="#d6ac6efd">
<path fill="#d6ac6e" opacity="1.00" d=" M 87.56 88.11 C 87.95 88.01 88.73 87.80 89.12 87.70 C 89.17 92.04 96.17 90.56 97.67 94.31 C 98.95 97.94 98.14 102.83 101.38 105.61 C 102.57 106.57 103.21 107.98 103.97 109.27 C 103.99 110.92 104.03 114.21 104.05 115.85 C 103.36 117.92 103.67 122.29 100.35 120.80 C 98.97 118.77 97.11 118.79 95.61 120.68 L 94.96 121.16 C 95.05 118.45 95.05 115.75 94.97 113.06 C 91.61 112.21 94.71 118.64 93.93 120.69 C 92.06 121.34 90.78 122.90 89.17 123.98 C 88.43 121.55 86.56 120.71 84.14 120.59 C 83.62 118.89 82.74 117.59 80.94 118.83 L 80.00 119.07 C 80.00 118.54 79.99 117.48 79.98 116.95 C 80.17 115.34 80.45 113.74 80.61 112.13 C 81.81 110.74 83.39 109.83 84.94 108.92 C 90.65 103.77 87.18 94.75 87.56 88.11 Z" />
</g>
<g id="#c89c66fd">
<path fill="#c89c66" opacity="1.00" d=" M 89.12 87.70 C 93.98 89.15 99.37 90.13 102.90 94.13 C 103.03 95.85 103.20 97.59 103.62 99.28 C 104.20 102.55 103.99 105.95 103.97 109.27 C 103.21 107.98 102.57 106.57 101.38 105.61 C 98.14 102.83 98.95 97.94 97.67 94.31 C 96.17 90.56 89.17 92.04 89.12 87.70 Z" />
</g>
<g id="#e2ba78fe">
<path fill="#e2ba78" opacity="1.00" d=" M 62.89 91.30 C 65.65 91.83 68.43 92.11 71.18 92.67 C 69.53 92.91 66.35 93.25 67.26 95.68 C 67.18 105.23 73.33 114.22 70.77 123.72 C 68.30 125.96 70.10 130.23 67.03 131.95 C 65.47 130.86 63.76 131.12 62.75 132.77 C 61.62 133.09 60.48 133.12 59.32 132.87 C 59.13 130.64 55.75 128.30 55.86 131.91 C 52.58 132.82 55.65 126.05 55.05 124.03 C 55.29 121.93 58.10 121.50 59.29 119.98 C 60.23 118.99 60.20 117.46 60.66 116.22 C 61.35 114.25 61.96 112.25 62.39 110.20 C 63.98 104.01 64.05 97.57 62.89 91.30 Z" />
</g>
<g id="#dfbd7ffe">
<path fill="#dfbd7f" opacity="1.00" d=" M 67.26 95.68 C 66.35 93.25 69.53 92.91 71.18 92.67 C 72.42 93.03 73.57 93.66 74.67 94.32 C 77.86 100.65 73.53 107.77 75.59 114.35 C 76.13 116.25 76.69 118.62 78.80 119.34 C 79.80 123.44 80.07 127.67 78.82 131.76 C 76.43 133.61 73.31 136.62 71.11 132.84 C 71.00 129.79 70.95 126.76 70.77 123.72 C 73.33 114.22 67.18 105.23 67.26 95.68 Z" />
</g>
<g id="#2c231665">
<path fill="#2c2316" opacity="0.40" d=" M 78.88 109.30 L 79.82 109.03 C 80.06 110.07 80.33 111.10 80.61 112.13 C 80.45 113.74 80.17 115.34 79.98 116.95 L 78.99 117.03 C 78.98 114.45 78.94 111.87 78.88 109.30 Z" />
</g>
<g id="#0d0b083b">
<path fill="#0d0b08" opacity="0.23" d=" M 103.97 109.27 C 105.88 109.87 105.81 115.08 104.05 115.85 C 104.03 114.21 103.99 110.92 103.97 109.27 Z" />
</g>
<g id="#ae8955ff">
<path fill="#ae8955" opacity="1.00" d=" M 60.66 116.22 C 60.29 113.66 58.30 108.91 62.39 110.20 C 61.96 112.25 61.35 114.25 60.66 116.22 Z" />
</g>
<g id="#9f8052ff">
<path fill="#9f8052" opacity="1.00" d=" M 93.93 120.69 C 94.71 118.64 91.61 112.21 94.97 113.06 C 95.05 115.75 95.05 118.45 94.96 121.16 L 93.93 120.69 Z" />
</g>
<g id="#dfc9a4f5">
<path fill="#dfc9a4" opacity="0.96" d=" M 53.94 117.43 C 54.90 116.86 55.87 116.29 56.87 115.79 C 56.95 116.54 57.10 118.05 57.18 118.80 C 56.92 119.80 56.29 120.55 55.29 121.04 C 54.97 119.79 54.52 118.58 53.94 117.43 Z" />
</g>
<g id="#d7c7a7f1">
<path fill="#d7c7a7" opacity="0.95" d=" M 80.94 118.83 C 82.74 117.59 83.62 118.89 84.14 120.59 C 83.37 121.78 82.80 123.37 81.05 123.05 C 80.95 121.64 80.91 120.24 80.94 118.83 Z" />
</g>
<g id="#dac8a2f9">
<path fill="#dac8a2" opacity="0.98" d=" M 95.61 120.68 C 97.11 118.79 98.97 118.77 100.35 120.80 C 99.64 123.65 96.22 123.52 95.61 120.68 Z" />
</g>
<g id="#a58859f8">
<path fill="#a58859" opacity="0.97" d=" M 18.97 133.03 C 19.45 129.92 17.36 125.40 20.97 123.85 C 20.34 126.88 20.06 129.95 21.11 132.93 C 20.57 132.96 19.50 133.01 18.97 133.03 Z" />
</g>
<g id="#b6905fff">
<path fill="#b6905f" opacity="1.00" d=" M 67.03 131.95 C 70.10 130.23 68.30 125.96 70.77 123.72 C 70.95 126.76 71.00 129.79 71.11 132.84 C 69.73 133.01 68.34 133.03 66.95 132.90 L 67.03 131.95 Z" />
</g>
<g id="#e4cbaef9">
<path fill="#e4cbae" opacity="0.98" d=" M 12.85 131.81 C 12.54 129.23 14.48 130.31 15.93 130.93 C 15.92 131.38 15.90 132.30 15.89 132.76 C 15.31 134.02 14.73 135.40 13.04 135.05 C 12.99 134.24 12.89 132.62 12.85 131.81 Z" />
</g>
<g id="#d6c2a2f1">
<path fill="#d6c2a2" opacity="0.95" d=" M 55.86 131.91 C 55.75 128.30 59.13 130.64 59.32 132.87 C 58.31 135.98 54.69 135.41 55.86 131.91 Z" />
</g>
<g id="#d1baa7ef">
<path fill="#d1baa7" opacity="0.94" d=" M 62.75 132.77 C 63.76 131.12 65.47 130.86 67.03 131.95 L 66.95 132.90 C 66.94 134.38 65.30 135.17 64.26 135.97 C 63.75 134.90 63.24 133.83 62.75 132.77 Z" />
</g>
</svg>
