<?xml version="1.0" encoding="UTF-8" ?>
<!DOCTYPE svg PUBLIC "-//W3C//DTD SVG 1.1//EN" "http://www.w3.org/Graphics/SVG/1.1/DTD/svg11.dtd">
<svg width="140pt" height="163pt" viewBox="0 0 140 163" version="1.1" xmlns="http://www.w3.org/2000/svg">
<g id="#453b2aff">
<path fill="#453b2a" opacity="1.00" d=" M 76.02 6.91 C 76.22 4.56 79.92 4.71 80.33 6.87 C 79.46 11.95 78.40 17.00 77.96 22.15 C 76.60 22.95 75.24 23.74 73.82 24.42 C 72.32 21.50 70.61 18.66 69.46 15.57 C 68.63 13.67 71.48 11.68 72.86 13.36 C 74.17 15.02 74.21 17.31 74.95 19.25 C 75.48 15.15 75.22 10.98 76.02 6.91 Z" />
<path fill="#453b2a" opacity="1.00" d=" M 59.68 60.29 C 60.70 59.26 61.83 58.25 63.25 57.80 C 63.43 58.06 63.79 58.58 63.97 58.84 C 63.31 59.82 62.46 60.56 61.40 61.08 C 60.97 60.88 60.11 60.49 59.68 60.29 Z" />
</g>
<g id="#3e3424ff">
<path fill="#3e3424" opacity="1.00" d=" M 77.58 24.96 C 82.64 20.63 86.36 13.68 93.34 12.38 C 93.65 13.78 94.45 15.80 92.83 16.72 C 88.75 19.40 84.61 22.03 81.04 25.40 C 79.59 25.16 78.13 25.01 76.66 24.93 C 73.06 24.66 69.43 24.74 65.83 24.97 C 68.47 24.53 71.15 24.53 73.82 24.42 C 75.24 23.74 76.60 22.95 77.96 22.15 C 77.87 22.85 77.68 24.25 77.58 24.96 Z" />
<path fill="#3e3424" opacity="1.00" d=" M 41.51 44.25 C 43.09 43.91 44.69 43.61 46.30 43.42 C 47.89 44.19 49.44 45.07 50.92 46.04 C 52.51 48.27 52.65 51.00 52.48 53.63 C 50.99 55.59 49.10 57.16 47.04 58.48 C 45.51 57.62 43.67 57.70 42.08 58.33 C 40.42 57.47 39.19 56.06 38.43 54.37 C 38.14 50.68 38.92 47.02 41.51 44.25 M 42.16 45.08 C 38.02 47.42 37.26 55.23 42.06 57.21 C 46.09 58.37 52.08 55.81 51.69 51.00 C 51.87 46.44 46.14 42.89 42.16 45.08 Z" />
<path fill="#3e3424" opacity="1.00" d=" M 69.29 47.64 C 73.63 43.75 79.67 43.79 85.08 44.76 C 87.08 46.06 88.91 47.70 89.92 49.90 C 89.76 52.19 89.58 54.85 87.52 56.31 C 83.66 59.68 78.24 58.48 73.57 58.90 L 73.39 58.88 C 70.87 57.22 67.95 55.27 67.59 51.97 C 67.82 50.42 68.61 49.03 69.29 47.64 M 72.66 46.60 C 70.52 47.97 67.99 50.22 68.87 53.06 C 69.99 55.99 73.14 57.21 75.99 57.74 L 75.91 57.87 C 79.99 57.99 84.79 57.98 87.71 54.63 C 89.84 52.32 88.82 48.79 86.69 46.87 C 82.42 44.65 76.94 44.18 72.66 46.60 Z" />
<path fill="#3e3424" opacity="1.00" d=" M 45.18 49.47 C 46.77 49.49 46.71 52.21 45.18 52.32 C 43.56 52.30 43.68 49.60 45.18 49.47 Z" />
<path fill="#3e3424" opacity="1.00" d=" M 76.47 50.46 C 78.01 48.66 80.13 52.09 77.90 52.70 C 76.84 53.80 74.85 51.02 76.47 50.46 Z" />
<path fill="#3e3424" opacity="1.00" d=" M 52.73 58.33 C 53.07 58.17 53.76 57.86 54.10 57.70 C 55.46 58.20 56.55 60.19 55.23 61.30 C 54.59 60.76 53.30 59.69 52.65 59.15 L 52.73 58.33 Z" />
</g>
<g id="#ffef73ff">
<path fill="#ffef73" opacity="1.00" d=" M 46.17 33.06 C 51.59 28.31 58.86 26.23 65.83 24.97 C 69.43 24.74 73.06 24.66 76.66 24.93 C 69.90 26.64 62.72 27.11 56.37 30.18 C 50.42 33.52 43.72 37.33 41.51 44.25 C 38.92 47.02 38.14 50.68 38.43 54.37 C 37.64 55.63 36.84 56.89 36.10 58.18 C 36.09 56.56 36.01 54.94 35.95 53.31 C 36.37 46.63 39.18 39.77 44.09 35.14 C 45.01 34.68 45.70 33.98 46.17 33.06 Z" />
</g>
<g id="#ffdd66ff">
<path fill="#ffdd66" opacity="1.00" d=" M 76.66 24.93 C 78.13 25.01 79.59 25.16 81.04 25.40 C 81.73 25.57 83.11 25.93 83.80 26.11 C 84.88 26.66 85.95 27.25 87.02 27.83 C 81.02 28.83 74.76 28.81 69.04 31.06 C 61.14 34.53 53.01 37.86 46.30 43.42 C 44.69 43.61 43.09 43.91 41.51 44.25 C 43.72 37.33 50.42 33.52 56.37 30.18 C 62.72 27.11 69.90 26.64 76.66 24.93 Z" />
</g>
<g id="#fdce5eff">
<path fill="#fdce5e" opacity="1.00" d=" M 83.80 26.11 C 87.67 27.11 91.49 28.50 94.82 30.76 C 89.95 32.67 84.58 32.66 79.72 34.63 C 70.13 38.46 60.68 42.64 50.92 46.04 C 49.44 45.07 47.89 44.19 46.30 43.42 C 53.01 37.86 61.14 34.53 69.04 31.06 C 74.76 28.81 81.02 28.83 87.02 27.83 C 85.95 27.25 84.88 26.66 83.80 26.11 Z" />
</g>
<g id="#efc056ff">
<path fill="#efc056" opacity="1.00" d=" M 94.82 30.76 C 97.65 32.29 99.97 34.52 102.18 36.82 C 96.52 39.54 89.78 40.30 85.08 44.76 C 79.67 43.79 73.63 43.75 69.29 47.64 C 64.69 47.70 60.37 49.45 55.98 50.59 C 54.35 50.91 53.53 52.52 52.48 53.63 C 52.65 51.00 52.51 48.27 50.92 46.04 C 60.68 42.64 70.13 38.46 79.72 34.63 C 84.58 32.66 89.95 32.67 94.82 30.76 Z" />
</g>
<g id="#3535195f">
<path fill="#353519" opacity="0.37" d=" M 44.09 35.14 C 43.70 33.36 44.39 32.66 46.17 33.06 C 45.70 33.98 45.01 34.68 44.09 35.14 Z" />
</g>
<g id="#dbb351ff">
<path fill="#dbb351" opacity="1.00" d=" M 85.08 44.76 C 89.78 40.30 96.52 39.54 102.18 36.82 C 103.33 38.46 104.49 40.10 105.38 41.89 C 105.62 42.81 105.84 43.73 106.06 44.66 C 100.14 43.58 93.88 45.20 89.92 49.90 C 88.91 47.70 87.08 46.06 85.08 44.76 Z" />
</g>
<g id="#c59c46ff">
<path fill="#c59c46" opacity="1.00" d=" M 105.38 41.89 C 109.01 48.73 109.36 56.91 107.19 64.27 C 106.50 63.03 105.82 61.79 105.14 60.55 C 100.81 63.56 95.93 66.11 90.49 65.71 C 89.32 64.38 88.10 63.08 86.56 62.18 C 82.20 61.20 77.74 60.60 73.57 58.90 C 78.24 58.48 83.66 59.68 87.52 56.31 C 89.58 54.85 89.76 52.19 89.92 49.90 C 93.88 45.20 100.14 43.58 106.06 44.66 C 105.84 43.73 105.62 42.81 105.38 41.89 Z" />
</g>
<g id="#eeeeeeff">
<path fill="#eeeeee" opacity="1.00" d=" M 42.16 45.08 C 46.14 42.89 51.87 46.44 51.69 51.00 C 52.08 55.81 46.09 58.37 42.06 57.21 C 37.26 55.23 38.02 47.42 42.16 45.08 M 45.18 49.47 C 43.68 49.60 43.56 52.30 45.18 52.32 C 46.71 52.21 46.77 49.49 45.18 49.47 Z" />
</g>
<g id="#edededff">
<path fill="#ededed" opacity="1.00" d=" M 72.66 46.60 C 76.94 44.18 82.42 44.65 86.69 46.87 C 83.45 50.86 78.20 52.89 75.99 57.74 C 73.14 57.21 69.99 55.99 68.87 53.06 C 67.99 50.22 70.52 47.97 72.66 46.60 M 76.47 50.46 C 74.85 51.02 76.84 53.80 77.90 52.70 C 80.13 52.09 78.01 48.66 76.47 50.46 Z" />
</g>
<g id="#e9b34eff">
<path fill="#e9b34e" opacity="1.00" d=" M 55.98 50.59 C 60.37 49.45 64.69 47.70 69.29 47.64 C 68.61 49.03 67.82 50.42 67.59 51.97 C 67.95 55.27 70.87 57.22 73.39 58.88 C 68.82 59.71 66.06 55.67 62.56 53.63 C 60.63 53.40 58.61 53.03 56.70 53.57 C 54.21 54.95 52.30 57.14 49.95 58.73 C 49.17 58.82 47.63 59.02 46.85 59.11 L 47.04 58.48 C 49.10 57.16 50.99 55.59 52.48 53.63 C 53.53 52.52 54.35 50.91 55.98 50.59 Z" />
</g>
<g id="#dfdedeff">
<path fill="#dfdede" opacity="1.00" d=" M 86.69 46.87 C 88.82 48.79 89.84 52.32 87.71 54.63 C 84.79 57.98 79.99 57.99 75.91 57.87 L 75.99 57.74 C 78.20 52.89 83.45 50.86 86.69 46.87 Z" />
</g>
<g id="#1e1b0c56">
<path fill="#1e1b0c" opacity="0.34" d=" M 35.87 58.69 C 34.12 58.07 34.15 53.83 35.95 53.31 C 36.01 54.94 36.09 56.56 36.10 58.18 L 35.87 58.69 Z" />
</g>
<g id="#fde9a0ff">
<path fill="#fde9a0" opacity="1.00" d=" M 56.70 53.57 C 58.61 53.03 60.63 53.40 62.56 53.63 C 62.71 55.03 62.82 56.45 63.25 57.80 C 61.83 58.25 60.70 59.26 59.68 60.29 C 60.11 60.49 60.97 60.88 61.40 61.08 C 64.16 62.37 67.20 62.97 70.23 62.46 C 69.83 65.47 69.12 68.62 66.69 70.67 C 61.52 75.46 57.97 82.06 51.50 85.33 C 45.54 88.34 38.84 89.53 32.86 92.54 L 32.33 92.03 C 32.01 91.67 31.36 90.96 31.04 90.60 L 30.81 90.31 C 34.69 86.94 38.95 84.06 43.36 81.43 C 47.38 79.13 49.41 74.72 53.03 71.95 C 55.38 70.12 57.66 68.20 59.68 66.01 C 57.31 64.37 54.82 62.91 52.41 61.33 C 52.47 60.78 52.59 59.69 52.65 59.15 C 53.30 59.69 54.59 60.76 55.23 61.30 C 56.55 60.19 55.46 58.20 54.10 57.70 C 53.76 57.86 53.07 58.17 52.73 58.33 C 52.03 58.43 50.64 58.63 49.95 58.73 C 52.30 57.14 54.21 54.95 56.70 53.57 Z" />
</g>
<g id="#d9c788ff">
<path fill="#d9c788" opacity="1.00" d=" M 62.56 53.63 C 66.06 55.67 68.82 59.71 73.39 58.88 L 73.57 58.90 C 77.74 60.60 82.20 61.20 86.56 62.18 C 83.85 65.33 80.41 67.66 77.20 70.23 C 72.25 74.44 74.70 82.53 69.70 86.74 C 62.83 93.38 52.95 94.67 43.94 96.12 C 41.10 95.89 38.27 95.39 35.57 94.43 C 38.46 92.40 41.77 91.12 45.24 90.53 C 51.25 89.43 56.59 86.13 61.29 82.36 C 64.61 79.76 65.80 75.52 68.31 72.27 C 70.31 69.31 73.36 66.68 73.62 62.88 C 72.63 62.09 71.37 62.46 70.23 62.46 C 67.20 62.97 64.16 62.37 61.40 61.08 C 62.46 60.56 63.31 59.82 63.97 58.84 C 63.79 58.58 63.43 58.06 63.25 57.80 C 62.82 56.45 62.71 55.03 62.56 53.63 Z" />
</g>
<g id="#ffc85aff">
<path fill="#ffc85a" opacity="1.00" d=" M 36.10 58.18 C 36.84 56.89 37.64 55.63 38.43 54.37 C 39.19 56.06 40.42 57.47 42.08 58.33 C 43.25 59.17 44.74 59.29 46.14 59.32 L 45.75 59.43 C 43.67 60.02 41.56 60.58 39.64 61.60 C 37.39 64.58 38.95 68.50 38.97 71.87 L 38.73 72.02 C 38.70 67.38 36.09 63.29 35.87 58.69 L 36.10 58.18 Z" />
</g>
<g id="#a77330ff">
<path fill="#a77330" opacity="1.00" d=" M 42.08 58.33 C 43.67 57.70 45.51 57.62 47.04 58.48 L 46.85 59.11 L 46.14 59.32 C 44.74 59.29 43.25 59.17 42.08 58.33 Z" />
<path fill="#a77330" opacity="1.00" d=" M 93.05 71.96 C 97.22 71.59 100.82 69.17 104.90 68.43 L 105.75 68.25 C 104.32 70.93 102.69 73.52 100.70 75.83 L 100.59 76.52 C 100.46 77.22 100.22 78.61 100.10 79.30 C 92.93 79.58 85.76 79.32 78.59 79.30 C 80.12 75.94 82.90 73.49 85.55 71.03 C 88.00 71.64 90.51 72.34 93.05 71.96 Z" />
</g>
<g id="#fffaaeff">
<path fill="#fffaae" opacity="1.00" d=" M 46.14 59.32 L 46.85 59.11 C 47.63 59.02 49.17 58.82 49.95 58.73 C 50.64 58.63 52.03 58.43 52.73 58.33 L 52.65 59.15 C 52.59 59.69 52.47 60.78 52.41 61.33 C 54.82 62.91 57.31 64.37 59.68 66.01 C 57.66 68.20 55.38 70.12 53.03 71.95 C 49.41 74.72 47.38 79.13 43.36 81.43 C 38.95 84.06 34.69 86.94 30.81 90.31 C 29.89 88.73 29.15 87.04 28.58 85.30 C 28.26 78.94 33.98 75.01 38.73 72.02 L 38.97 71.87 C 43.44 69.67 47.68 65.86 48.03 60.57 C 47.46 60.29 46.32 59.71 45.75 59.43 L 46.14 59.32 Z" />
</g>
<g id="#fffed2ff">
<path fill="#fffed2" opacity="1.00" d=" M 39.64 61.60 C 41.56 60.58 43.67 60.02 45.75 59.43 C 46.32 59.71 47.46 60.29 48.03 60.57 C 47.68 65.86 43.44 69.67 38.97 71.87 C 38.95 68.50 37.39 64.58 39.64 61.60 Z" />
</g>
<g id="#b18339ff">
<path fill="#b18339" opacity="1.00" d=" M 90.49 65.71 C 95.93 66.11 100.81 63.56 105.14 60.55 C 105.82 61.79 106.50 63.03 107.19 64.27 C 106.75 65.58 106.32 66.90 105.88 68.21 L 104.90 68.43 C 100.82 69.17 97.22 71.59 93.05 71.96 C 90.51 72.34 88.00 71.64 85.55 71.03 C 87.27 69.32 88.85 67.49 90.49 65.71 Z" />
</g>
<g id="#eddd97ff">
<path fill="#eddd97" opacity="1.00" d=" M 70.23 62.46 C 71.37 62.46 72.63 62.09 73.62 62.88 C 73.36 66.68 70.31 69.31 68.31 72.27 C 65.80 75.52 64.61 79.76 61.29 82.36 C 56.59 86.13 51.25 89.43 45.24 90.53 C 41.77 91.12 38.46 92.40 35.57 94.43 C 35.27 94.30 34.67 94.04 34.37 93.91 C 33.99 93.57 33.23 92.88 32.86 92.54 C 38.84 89.53 45.54 88.34 51.50 85.33 C 57.97 82.06 61.52 75.46 66.69 70.67 C 69.12 68.62 69.83 65.47 70.23 62.46 Z" />
</g>
<g id="#bcab77ff">
<path fill="#bcab77" opacity="1.00" d=" M 86.56 62.18 C 88.10 63.08 89.32 64.38 90.49 65.71 C 88.85 67.49 87.27 69.32 85.55 71.03 C 82.90 73.49 80.12 75.94 78.59 79.30 C 77.02 83.04 75.98 87.16 73.23 90.27 C 70.73 93.20 66.99 94.52 63.50 95.85 C 57.02 96.64 50.47 97.04 43.95 96.51 L 43.94 96.12 C 52.95 94.67 62.83 93.38 69.70 86.74 C 74.70 82.53 72.25 74.44 77.20 70.23 C 80.41 67.66 83.85 65.33 86.56 62.18 Z" />
</g>
<g id="#d0963eff">
<path fill="#d0963e" opacity="1.00" d=" M 100.10 79.30 C 100.22 78.61 100.46 77.22 100.59 76.52 C 101.71 77.49 102.80 78.50 103.90 79.50 C 102.96 80.36 102.01 81.23 101.07 82.09 C 101.09 84.81 101.07 87.54 101.22 90.26 C 98.00 92.90 97.03 97.51 93.45 99.72 C 92.31 99.15 91.30 98.38 90.25 97.66 C 90.00 98.00 89.49 98.67 89.23 99.01 C 88.57 98.60 87.91 98.19 87.25 97.78 C 82.44 93.93 76.11 95.79 70.64 96.59 L 70.55 96.36 C 68.19 96.41 65.83 96.23 63.50 95.85 C 66.99 94.52 70.73 93.20 73.23 90.27 C 75.98 87.16 77.02 83.04 78.59 79.30 C 85.76 79.32 92.93 79.58 100.10 79.30 Z" />
</g>
<g id="#dda244ff">
<path fill="#dda244" opacity="1.00" d=" M 101.07 82.09 C 102.01 81.23 102.96 80.36 103.90 79.50 C 111.25 83.19 117.60 88.99 122.48 95.60 C 118.57 96.14 113.81 95.76 111.03 99.11 C 110.10 101.49 110.25 104.14 109.88 106.65 C 104.75 102.69 103.38 96.02 101.22 90.26 C 101.07 87.54 101.09 84.81 101.07 82.09 Z" />
</g>
<g id="#ebb44eff">
<path fill="#ebb44e" opacity="1.00" d=" M 28.46 84.96 L 28.58 85.30 C 29.15 87.04 29.89 88.73 30.81 90.31 L 31.04 90.60 C 27.32 95.93 24.01 101.76 18.67 105.69 C 14.30 109.66 9.07 112.78 5.44 117.51 C 5.17 116.69 4.91 115.86 4.69 115.03 C 4.82 114.39 5.09 113.13 5.22 112.49 C 7.89 111.19 10.46 109.61 12.48 107.42 C 17.71 101.91 23.19 96.47 26.90 89.77 C 27.55 88.72 27.27 87.45 27.30 86.30 C 27.59 85.96 28.17 85.29 28.46 84.96 Z" />
</g>
<g id="#fcc759ff">
<path fill="#fcc759" opacity="1.00" d=" M 13.14 101.07 C 17.64 95.95 22.05 90.67 27.30 86.30 C 27.27 87.45 27.55 88.72 26.90 89.77 C 23.19 96.47 17.71 101.91 12.48 107.42 C 10.46 109.61 7.89 111.19 5.22 112.49 C 5.09 113.13 4.82 114.39 4.69 115.03 C 4.40 115.08 3.82 115.17 3.53 115.22 L 2.77 115.34 C 4.75 109.63 9.66 105.80 13.14 101.07 Z" />
</g>
<g id="#d6a748ff">
<path fill="#d6a748" opacity="1.00" d=" M 18.67 105.69 C 24.01 101.76 27.32 95.93 31.04 90.60 C 31.36 90.96 32.01 91.67 32.33 92.03 C 30.89 97.16 28.61 102.01 27.15 107.14 C 27.15 106.39 27.15 104.91 27.15 104.17 C 23.07 108.28 17.76 110.71 13.14 114.10 C 11.59 114.83 12.17 116.57 12.11 117.90 C 10.77 118.01 9.42 118.11 8.08 118.20 C 7.01 118.51 5.91 118.67 4.81 118.78 C 4.63 117.53 3.52 116.48 3.53 115.22 C 3.82 115.17 4.40 115.08 4.69 115.03 C 4.91 115.86 5.17 116.69 5.44 117.51 C 9.07 112.78 14.30 109.66 18.67 105.69 Z" />
</g>
<g id="#c7a048ff">
<path fill="#c7a048" opacity="1.00" d=" M 93.45 99.72 C 97.03 97.51 98.00 92.90 101.22 90.26 C 103.38 96.02 104.75 102.69 109.88 106.65 C 112.13 108.97 114.52 111.21 117.43 112.69 C 122.71 115.42 126.99 120.16 133.04 121.25 C 133.76 116.74 131.50 112.82 128.93 109.34 C 129.77 109.47 130.62 109.59 131.47 109.72 C 133.11 112.02 135.04 114.19 136.16 116.81 C 136.98 119.28 137.38 121.87 138.03 124.39 C 129.48 124.81 122.68 118.82 115.20 115.66 C 113.05 114.36 111.08 112.80 109.14 111.22 C 109.12 117.84 107.48 125.75 101.14 129.17 C 94.47 134.06 86.71 137.04 78.65 138.68 C 70.52 141.37 62.09 143.12 53.49 143.06 C 51.91 142.68 50.34 142.31 48.77 141.90 C 48.28 141.75 47.30 141.44 46.81 141.29 L 46.19 141.08 L 44.95 140.29 C 48.98 138.12 53.58 137.03 57.27 134.22 C 60.50 131.50 65.01 131.61 68.53 129.50 C 76.21 124.77 83.68 119.26 88.80 111.71 C 91.05 107.81 89.83 103.18 89.23 99.01 C 89.49 98.67 90.00 98.00 90.25 97.66 C 91.30 98.38 92.31 99.15 93.45 99.72 Z" />
</g>
<g id="#ffd361ff">
<path fill="#ffd361" opacity="1.00" d=" M 32.33 92.03 L 32.86 92.54 C 33.23 92.88 33.99 93.57 34.37 93.91 C 36.07 100.36 35.50 107.11 34.77 113.66 C 34.05 119.40 34.98 125.39 32.70 130.88 C 29.34 125.19 26.59 118.80 26.92 112.05 C 26.96 110.41 27.06 108.77 27.15 107.14 C 28.61 102.01 30.89 97.16 32.33 92.03 Z" />
</g>
<g id="#ecbb53ff">
<path fill="#ecbb53" opacity="1.00" d=" M 34.37 93.91 C 34.67 94.04 35.27 94.30 35.57 94.43 C 38.27 95.39 41.10 95.89 43.94 96.12 L 43.95 96.51 C 43.94 97.45 43.90 98.38 43.86 99.32 L 44.39 98.83 C 47.19 104.28 49.13 111.94 56.43 112.55 C 58.10 115.95 56.54 119.54 53.76 121.75 C 48.45 125.89 46.81 134.39 39.26 135.40 C 39.47 136.20 39.69 137.00 39.91 137.80 C 37.25 135.77 34.81 133.48 32.70 130.88 C 34.98 125.39 34.05 119.40 34.77 113.66 C 35.50 107.11 36.07 100.36 34.37 93.91 Z" />
</g>
<g id="#e0a445ff">
<path fill="#e0a445" opacity="1.00" d=" M 70.64 96.59 C 76.11 95.79 82.44 93.93 87.25 97.78 C 83.64 100.79 78.81 101.43 74.94 103.98 C 72.33 105.63 70.27 107.95 68.05 110.07 C 66.87 110.88 65.74 111.76 64.62 112.65 C 61.89 112.51 59.16 112.52 56.43 112.55 C 49.13 111.94 47.19 104.28 44.39 98.83 L 43.86 99.32 C 43.90 98.38 43.94 97.45 43.95 96.51 C 50.47 97.04 57.02 96.64 63.50 95.85 C 65.83 96.23 68.19 96.41 70.55 96.36 L 70.64 96.59 Z" />
</g>
<g id="#dbab4bff">
<path fill="#dbab4b" opacity="1.00" d=" M 111.03 99.11 C 113.81 95.76 118.57 96.14 122.48 95.60 C 125.79 100.11 128.36 105.08 131.47 109.72 C 130.62 109.59 129.77 109.47 128.93 109.34 C 131.50 112.82 133.76 116.74 133.04 121.25 C 126.99 120.16 122.71 115.42 117.43 112.69 C 114.52 111.21 112.13 108.97 109.88 106.65 C 110.25 104.14 110.10 101.49 111.03 99.11 Z" />
</g>
<g id="#d8ab4cff">
<path fill="#d8ab4c" opacity="1.00" d=" M 87.25 97.78 C 87.91 98.19 88.57 98.60 89.23 99.01 C 89.83 103.18 91.05 107.81 88.80 111.71 C 83.68 119.26 76.21 124.77 68.53 129.50 C 65.01 131.61 60.50 131.50 57.27 134.22 C 53.58 137.03 48.98 138.12 44.95 140.29 L 44.83 140.35 C 43.18 139.52 41.54 138.67 39.91 137.80 C 39.69 137.00 39.47 136.20 39.26 135.40 C 46.81 134.39 48.45 125.89 53.76 121.75 C 56.54 119.54 58.10 115.95 56.43 112.55 C 59.16 112.52 61.89 112.51 64.62 112.65 C 65.74 111.76 66.87 110.88 68.05 110.07 C 70.27 107.95 72.33 105.63 74.94 103.98 C 78.81 101.43 83.64 100.79 87.25 97.78 Z" />
</g>
<g id="#bd9442ff">
<path fill="#bd9442" opacity="1.00" d=" M 13.14 114.10 C 17.76 110.71 23.07 108.28 27.15 104.17 C 27.15 104.91 27.15 106.39 27.15 107.14 C 27.06 108.77 26.96 110.41 26.92 112.05 C 21.91 113.81 17.18 116.29 12.11 117.90 C 12.17 116.57 11.59 114.83 13.14 114.10 Z" />
</g>
<g id="#b38d40ff">
<path fill="#b38d40" opacity="1.00" d=" M 109.14 111.22 C 111.08 112.80 113.05 114.36 115.20 115.66 C 113.64 125.03 109.17 134.95 100.31 139.44 C 99.22 140.05 98.14 140.67 97.06 141.29 C 91.41 144.09 84.98 145.06 78.72 144.90 C 74.98 144.91 71.24 144.90 67.50 145.07 C 65.84 145.16 64.18 145.30 62.52 145.38 C 59.40 145.09 56.44 144.05 53.49 143.06 C 62.09 143.12 70.52 141.37 78.65 138.68 C 86.71 137.04 94.47 134.06 101.14 129.17 C 107.48 125.75 109.12 117.84 109.14 111.22 Z" />
</g>
<g id="#ebba74ff">
<path fill="#ebba74" opacity="1.00" d=" M 46.19 141.08 L 46.81 141.29 C 46.39 142.73 45.42 144.15 45.52 145.68 C 47.15 148.94 50.96 150.04 54.08 151.38 L 54.13 152.31 C 48.81 151.83 43.48 152.37 38.15 152.49 C 37.87 151.95 37.29 150.88 37.01 150.35 C 38.73 148.09 40.37 145.77 42.10 143.53 C 43.31 142.50 44.70 141.65 46.19 141.08 Z" />
</g>
<g id="#e59f5bff">
<path fill="#e59f5b" opacity="1.00" d=" M 46.81 141.29 C 47.30 141.44 48.28 141.75 48.77 141.90 C 50.80 144.93 53.11 147.76 55.57 150.45 C 55.20 150.68 54.45 151.15 54.08 151.38 C 50.96 150.04 47.15 148.94 45.52 145.68 C 45.42 144.15 46.39 142.73 46.81 141.29 Z" />
</g>
<g id="#e49954ff">
<path fill="#e49954" opacity="1.00" d=" M 78.72 144.90 C 84.98 145.06 91.41 144.09 97.06 141.29 C 97.27 142.23 97.71 144.11 97.92 145.05 C 91.99 147.90 85.35 148.55 79.07 150.29 C 78.25 149.21 77.43 148.14 76.61 147.08 C 77.14 146.53 78.19 145.45 78.72 144.90 Z" />
</g>
<g id="#d48b4aff">
<path fill="#d48b4a" opacity="1.00" d=" M 48.77 141.90 C 50.34 142.31 51.91 142.68 53.49 143.06 C 56.44 144.05 59.40 145.09 62.52 145.38 C 60.38 147.29 58.02 148.95 55.57 150.45 C 53.11 147.76 50.80 144.93 48.77 141.90 Z" />
</g>
<g id="#e2ae6bff">
<path fill="#e2ae6b" opacity="1.00" d=" M 97.06 141.29 C 100.75 143.92 103.66 147.37 106.70 150.69 C 103.18 151.27 99.60 151.12 96.05 151.07 C 88.34 148.24 80.12 155.25 72.74 150.33 L 74.21 149.15 C 75.03 148.48 75.84 147.80 76.61 147.08 C 77.43 148.14 78.25 149.21 79.07 150.29 C 85.35 148.55 91.99 147.90 97.92 145.05 C 97.71 144.11 97.27 142.23 97.06 141.29 Z" />
</g>
<g id="#ffefa5ff">
<path fill="#ffefa5" opacity="1.00" d=" M 29.36 149.04 C 32.69 145.80 37.92 145.40 42.10 143.53 C 40.37 145.77 38.73 148.09 37.01 150.35 C 34.58 150.23 32.15 150.28 29.73 150.10 L 29.36 149.04 Z" />
</g>
<g id="#b78048ff">
<path fill="#b78048" opacity="1.00" d=" M 62.52 145.38 C 64.18 145.30 65.84 145.16 67.50 145.07 C 66.71 146.95 65.65 148.73 64.03 150.00 C 61.14 152.03 57.66 152.96 54.18 153.20 L 54.13 152.31 L 54.08 151.38 C 54.45 151.15 55.20 150.68 55.57 150.45 C 58.02 148.95 60.38 147.29 62.52 145.38 Z" />
</g>
<g id="#211b1151">
<path fill="#211b11" opacity="0.32" d=" M 67.50 145.07 C 71.24 144.90 74.98 144.91 78.72 144.90 C 78.19 145.45 77.14 146.53 76.61 147.08 C 75.84 147.80 75.03 148.48 74.21 149.15 C 74.83 147.92 75.44 146.69 76.05 145.46 C 73.42 145.57 70.80 145.65 68.17 145.74 C 67.11 147.44 65.67 148.86 64.03 150.00 C 65.65 148.73 66.71 146.95 67.50 145.07 Z" />
</g>
<g id="#dfbe7dff">
<path fill="#dfbe7d" opacity="1.00" d=" M 75.17 153.65 C 72.55 155.29 71.32 152.24 72.74 150.33 C 80.12 155.25 88.34 148.24 96.05 151.07 C 94.61 152.23 93.24 153.48 91.80 154.63 C 88.62 156.02 85.07 154.32 81.94 153.51 C 79.77 152.39 77.32 152.62 75.17 153.65 Z" />
</g>
<g id="#c5a970ff">
<path fill="#c5a970" opacity="1.00" d=" M 106.70 150.69 C 106.66 151.92 106.51 153.15 106.20 154.35 C 101.41 153.62 96.56 153.78 91.80 154.63 C 93.24 153.48 94.61 152.23 96.05 151.07 C 99.60 151.12 103.18 151.27 106.70 150.69 Z" />
</g>
<g id="#8b764cc9">
<path fill="#8b764c" opacity="0.79" d=" M 75.17 153.65 C 77.32 152.62 79.77 152.39 81.94 153.51 C 79.98 154.60 77.19 154.54 75.17 153.65 Z" />
</g>
</svg>
