<?xml version="1.0" encoding="UTF-8" ?>
<!DOCTYPE svg PUBLIC "-//W3C//DTD SVG 1.1//EN" "http://www.w3.org/Graphics/SVG/1.1/DTD/svg11.dtd">
<svg width="170pt" height="186pt" viewBox="0 0 170 186" version="1.1" xmlns="http://www.w3.org/2000/svg">
<g id="#a7dff6fc">
<path fill="#a7dff6" opacity="1.00" d=" M 76.20 25.09 C 78.07 21.46 77.04 14.93 80.80 13.15 C 83.59 18.79 85.84 24.76 89.27 30.05 C 89.89 31.02 91.83 32.23 89.68 32.65 C 80.05 36.15 69.72 42.53 67.28 53.22 C 64.19 46.37 62.86 38.42 61.97 30.97 C 63.38 31.62 64.75 32.35 66.05 33.21 C 63.94 33.95 63.72 36.10 63.99 38.05 C 66.54 38.47 68.44 36.73 70.01 34.99 C 75.90 38.05 74.49 28.18 76.20 25.09 Z" />
</g>
<g id="#95c6e9fd">
<path fill="#95c6e9" opacity="1.00" d=" M 89.27 30.05 C 96.62 25.38 101.57 17.63 109.01 12.91 C 109.20 15.26 108.50 17.51 107.70 19.69 C 104.20 22.85 103.97 27.88 101.78 31.86 C 99.13 36.87 98.50 43.24 93.70 46.81 C 88.19 47.13 82.37 43.25 77.09 46.11 C 73.19 47.47 71.21 51.16 68.91 54.28 C 68.45 54.21 67.52 54.07 67.06 54.00 L 67.28 53.22 C 69.72 42.53 80.05 36.15 89.68 32.65 C 91.83 32.23 89.89 31.02 89.27 30.05 Z" />
</g>
<g id="#85b3d8fe">
<path fill="#85b3d8" opacity="1.00" d=" M 101.78 31.86 C 103.97 27.88 104.20 22.85 107.70 19.69 C 107.83 23.71 108.07 28.37 105.96 31.89 C 105.48 31.72 104.54 31.37 104.06 31.20 C 102.83 34.42 102.81 38.00 103.52 41.35 C 104.59 46.63 95.32 49.27 97.03 54.12 L 96.24 54.14 C 89.70 54.04 84.74 48.30 78.28 49.27 C 74.66 50.26 74.33 54.99 71.00 56.36 C 70.30 55.67 69.60 54.98 68.91 54.28 C 71.21 51.16 73.19 47.47 77.09 46.11 C 82.37 43.25 88.19 47.13 93.70 46.81 C 98.50 43.24 99.13 36.87 101.78 31.86 Z" />
</g>
<g id="#7ba8c8fa">
<path fill="#7ba8c8" opacity="0.98" d=" M 104.06 31.20 C 104.54 31.37 105.48 31.72 105.96 31.89 C 106.21 34.00 105.96 36.13 105.15 38.09 C 113.98 37.06 122.23 33.04 131.10 31.99 C 130.24 33.41 129.06 34.61 127.78 35.65 C 117.23 40.05 106.66 45.33 99.08 54.16 C 98.57 54.15 97.54 54.13 97.03 54.12 C 95.32 49.27 104.59 46.63 103.52 41.35 C 102.81 38.00 102.83 34.42 104.06 31.20 Z" />
</g>
<g id="#93c6e5fa">
<path fill="#93c6e5" opacity="0.98" d=" M 66.05 33.21 C 67.25 33.88 69.98 33.29 70.01 34.99 C 68.44 36.73 66.54 38.47 63.99 38.05 C 63.72 36.10 63.94 33.95 66.05 33.21 Z" />
</g>
<g id="#6f98b8fe">
<path fill="#6f98b8" opacity="1.00" d=" M 99.08 54.16 C 106.66 45.33 117.23 40.05 127.78 35.65 C 127.88 37.43 125.94 38.42 124.90 39.62 C 120.83 38.92 118.32 43.45 115.25 45.25 C 109.75 49.32 105.11 54.64 99.12 58.01 C 99.06 57.49 98.92 56.44 98.85 55.92 C 98.91 55.48 99.02 54.60 99.08 54.16 Z" />
</g>
<g id="#648ea9fa">
<path fill="#648ea9" opacity="0.98" d=" M 115.25 45.25 C 118.32 43.45 120.83 38.92 124.90 39.62 C 121.99 45.24 116.47 49.57 112.98 54.98 C 108.68 58.56 108.74 64.36 106.07 68.90 C 106.86 69.00 108.44 69.22 109.23 69.32 C 108.66 69.58 107.51 70.11 106.94 70.37 C 105.89 70.79 105.89 72.22 105.23 73.03 C 99.79 68.22 109.98 62.84 105.93 56.94 C 102.30 56.91 100.01 60.33 97.22 62.19 C 97.44 60.43 98.16 58.57 97.36 56.85 L 97.11 56.04 C 97.55 56.01 98.42 55.95 98.85 55.92 C 98.92 56.44 99.06 57.49 99.12 58.01 C 105.11 54.64 109.75 49.32 115.25 45.25 Z" />
</g>
<g id="#79a4cbff">
<path fill="#79a4cb" opacity="1.00" d=" M 78.28 49.27 C 84.74 48.30 89.70 54.04 96.24 54.14 C 93.87 55.49 91.30 56.45 88.90 57.76 L 88.22 57.71 C 86.35 56.18 83.87 55.73 82.01 54.18 C 79.91 51.24 75.96 55.68 77.77 58.13 C 77.45 59.30 77.37 60.51 77.64 61.70 C 77.49 62.32 77.20 63.56 77.05 64.18 C 76.43 63.43 75.80 62.67 75.18 61.92 C 74.90 61.59 74.35 60.91 74.07 60.58 C 73.44 59.68 72.82 58.77 72.16 57.89 C 71.87 57.50 71.29 56.74 71.00 56.36 C 74.33 54.99 74.66 50.26 78.28 49.27 Z" />
</g>
<g id="#8b4a40ff">
<path fill="#8b4a40" opacity="1.00" d=" M 77.77 58.13 C 75.96 55.68 79.91 51.24 82.01 54.18 C 82.65 56.98 80.32 58.46 77.77 58.13 Z" />
</g>
<g id="#6c7689f8">
<path fill="#6c7689" opacity="0.97" d=" M 67.06 54.00 C 67.52 54.07 68.45 54.21 68.91 54.28 C 69.60 54.98 70.30 55.67 71.00 56.36 C 71.29 56.74 71.87 57.50 72.16 57.89 C 71.96 58.18 71.55 58.78 71.34 59.08 C 70.36 57.91 69.27 56.84 67.97 56.03 C 67.74 55.52 67.28 54.51 67.06 54.00 Z" />
</g>
<g id="#719abeff">
<path fill="#719abe" opacity="1.00" d=" M 82.01 54.18 C 83.87 55.73 86.35 56.18 88.22 57.71 L 87.91 58.63 C 86.38 60.17 85.13 61.95 83.82 63.66 C 81.90 62.60 79.85 61.84 77.64 61.70 C 77.37 60.51 77.45 59.30 77.77 58.13 C 80.32 58.46 82.65 56.98 82.01 54.18 Z" />
</g>
<g id="#4e5f70ff">
<path fill="#4e5f70" opacity="1.00" d=" M 96.24 54.14 L 97.03 54.12 C 97.54 54.13 98.57 54.15 99.08 54.16 C 99.02 54.60 98.91 55.48 98.85 55.92 C 98.42 55.95 97.55 56.01 97.11 56.04 C 95.45 55.91 94.17 57.00 92.91 57.89 C 92.15 57.88 90.63 57.87 89.86 57.86 L 88.90 57.76 C 91.30 56.45 93.87 55.49 96.24 54.14 Z" />
</g>
<g id="#dbd8d4fa">
<path fill="#dbd8d4" opacity="0.98" d=" M 67.97 56.03 C 69.27 56.84 70.36 57.91 71.34 59.08 C 71.26 60.52 71.26 61.96 71.14 63.39 C 70.64 63.01 69.63 62.24 69.12 61.86 C 67.32 60.49 68.17 57.97 67.97 56.03 Z" />
</g>
<g id="#d0ceceff">
<path fill="#d0cece" opacity="1.00" d=" M 92.91 57.89 C 94.17 57.00 95.45 55.91 97.11 56.04 L 97.36 56.85 C 96.30 59.48 95.94 63.98 92.00 63.00 C 92.39 61.31 92.74 59.61 92.91 57.89 Z" />
</g>
<g id="#586875ff">
<path fill="#586875" opacity="1.00" d=" M 97.36 56.85 C 98.16 58.57 97.44 60.43 97.22 62.19 C 94.77 66.24 88.46 63.39 86.14 65.97 L 85.98 66.78 C 82.85 66.06 80.43 61.95 77.05 64.18 C 77.20 63.56 77.49 62.32 77.64 61.70 C 79.85 61.84 81.90 62.60 83.82 63.66 C 85.13 61.95 86.38 60.17 87.91 58.63 L 87.92 59.70 C 87.23 61.08 86.43 62.42 85.87 63.86 C 87.91 63.54 89.94 63.14 92.00 63.00 C 95.94 63.98 96.30 59.48 97.36 56.85 Z" />
</g>
<g id="#5e88a5ff">
<path fill="#5e88a5" opacity="1.00" d=" M 97.22 62.19 C 100.01 60.33 102.30 56.91 105.93 56.94 C 109.98 62.84 99.79 68.22 105.23 73.03 C 103.34 76.25 99.31 77.53 95.79 77.92 C 96.29 76.60 96.86 75.32 97.42 74.03 C 97.65 73.57 98.11 72.65 98.34 72.19 C 98.58 71.91 99.05 71.36 99.28 71.09 C 102.41 69.75 103.44 66.27 103.93 63.18 C 101.08 60.39 97.54 64.91 94.81 66.15 C 91.91 66.07 89.03 66.01 86.14 65.97 C 88.46 63.39 94.77 66.24 97.22 62.19 Z" />
</g>
<g id="#784d49ff">
<path fill="#784d49" opacity="1.00" d=" M 72.16 57.89 C 72.82 58.77 73.44 59.68 74.07 60.58 C 73.29 61.75 73.09 65.05 71.14 63.39 C 71.26 61.96 71.26 60.52 71.34 59.08 C 71.55 58.78 71.96 58.18 72.16 57.89 Z" />
</g>
<g id="#494141ff">
<path fill="#494141" opacity="1.00" d=" M 88.22 57.71 L 88.90 57.76 L 89.86 57.86 C 90.27 59.27 90.71 60.67 91.01 62.11 C 89.48 62.05 88.73 60.79 87.92 59.70 L 87.91 58.63 L 88.22 57.71 Z" />
</g>
<g id="#b6827bff">
<path fill="#b6827b" opacity="1.00" d=" M 89.86 57.86 C 90.63 57.87 92.15 57.88 92.91 57.89 C 92.74 59.61 92.39 61.31 92.00 63.00 C 89.94 63.14 87.91 63.54 85.87 63.86 C 86.43 62.42 87.23 61.08 87.92 59.70 C 88.73 60.79 89.48 62.05 91.01 62.11 C 90.71 60.67 90.27 59.27 89.86 57.86 Z" />
</g>
<g id="#809aacfc">
<path fill="#809aac" opacity="1.00" d=" M 71.14 63.39 C 73.09 65.05 73.29 61.75 74.07 60.58 C 74.35 60.91 74.90 61.59 75.18 61.92 C 75.73 65.26 72.90 66.59 70.02 66.12 C 67.85 66.45 69.49 63.09 69.12 61.86 C 69.63 62.24 70.64 63.01 71.14 63.39 Z" />
</g>
<g id="#5f7074fc">
<path fill="#5f7074" opacity="1.00" d=" M 75.18 61.92 C 75.80 62.67 76.43 63.43 77.05 64.18 C 75.65 66.88 72.90 67.29 70.11 67.14 L 70.02 66.12 C 72.90 66.59 75.73 65.26 75.18 61.92 Z" />
</g>
<g id="#567a96ff">
<path fill="#567a96" opacity="1.00" d=" M 94.81 66.15 C 97.54 64.91 101.08 60.39 103.93 63.18 C 103.44 66.27 102.41 69.75 99.28 71.09 C 99.73 68.09 97.15 67.00 94.81 66.15 Z" />
</g>
<g id="#d0d2b8ff">
<path fill="#d0d2b8" opacity="1.00" d=" M 77.05 64.18 C 80.43 61.95 82.85 66.06 85.98 66.78 L 86.98 67.05 C 83.31 71.77 80.12 76.88 78.55 82.72 C 77.75 85.95 74.83 87.50 72.25 89.04 C 70.60 86.92 68.02 85.37 66.90 82.93 C 67.20 77.83 68.37 72.84 69.84 67.96 L 70.11 67.14 C 72.90 67.29 75.65 66.88 77.05 64.18 Z" />
</g>
<g id="#565d5bff">
<path fill="#565d5b" opacity="1.00" d=" M 86.14 65.97 C 89.03 66.01 91.91 66.07 94.81 66.15 C 97.15 67.00 99.73 68.09 99.28 71.09 C 99.05 71.36 98.58 71.91 98.34 72.19 C 98.41 69.65 96.93 67.25 94.11 68.00 C 93.39 67.97 91.95 67.92 91.24 67.89 C 89.83 67.55 88.41 67.25 86.98 67.05 L 85.98 66.78 L 86.14 65.97 Z" />
</g>
<g id="#babba6fd">
<path fill="#babba6" opacity="1.00" d=" M 86.98 67.05 C 88.41 67.25 89.83 67.55 91.24 67.89 C 90.98 68.18 90.46 68.75 90.20 69.04 C 88.85 69.11 87.49 69.62 86.85 70.89 C 83.98 75.30 80.88 79.82 80.08 85.14 C 79.42 86.15 78.76 87.15 78.12 88.18 C 75.18 88.58 73.41 90.05 73.42 93.16 C 73.08 91.80 71.69 90.51 72.25 89.04 C 74.83 87.50 77.75 85.95 78.55 82.72 C 80.12 76.88 83.31 71.77 86.98 67.05 Z" />
</g>
<g id="#739ec3fd">
<path fill="#739ec3" opacity="1.00" d=" M 67.31 68.72 C 67.37 67.87 68.22 67.61 69.84 67.96 C 68.37 72.84 67.20 77.83 66.90 82.93 C 65.59 82.62 62.08 84.01 62.22 82.25 C 62.77 78.61 62.88 74.82 64.34 71.39 C 65.25 70.44 68.34 70.50 67.31 68.72 Z" />
</g>
<g id="#999d8eff">
<path fill="#999d8e" opacity="1.00" d=" M 91.24 67.89 C 91.95 67.92 93.39 67.97 94.11 68.00 C 89.39 73.52 85.69 79.81 82.21 86.16 L 81.83 86.78 C 80.59 87.24 79.36 87.73 78.12 88.18 C 78.76 87.15 79.42 86.15 80.08 85.14 C 83.67 79.93 87.23 74.64 90.20 69.04 C 90.46 68.75 90.98 68.18 91.24 67.89 Z" />
</g>
<g id="#8a9083ff">
<path fill="#8a9083" opacity="1.00" d=" M 94.11 68.00 C 96.93 67.25 98.41 69.65 98.34 72.19 C 98.11 72.65 97.65 73.57 97.42 74.03 C 95.87 72.15 95.12 75.04 94.08 75.96 C 92.60 76.95 91.88 78.54 91.19 80.12 C 88.40 82.42 85.72 85.02 82.21 86.16 C 85.69 79.81 89.39 73.52 94.11 68.00 Z" />
</g>
<g id="#719cc0fa">
<path fill="#719cc0" opacity="0.98" d=" M 109.23 69.32 C 118.76 66.20 128.37 70.02 137.98 70.05 L 137.94 70.91 C 133.49 70.07 135.74 75.40 135.09 78.30 L 134.11 78.00 C 132.81 75.76 132.03 73.26 130.83 70.97 C 127.09 71.94 123.94 74.42 120.30 75.65 C 116.99 71.47 111.37 72.42 106.94 70.37 C 107.51 70.11 108.66 69.58 109.23 69.32 Z" />
</g>
<g id="#4f6b7ab0">
<path fill="#4f6b7a" opacity="0.69" d=" M 53.00 70.00 C 53.93 67.72 58.86 69.42 61.30 69.39 C 58.61 70.18 55.77 69.94 53.00 70.00 Z" />
</g>
<g id="#82b1d5fd">
<path fill="#82b1d5" opacity="1.00" d=" M 61.30 69.39 C 63.27 68.92 65.30 68.87 67.31 68.72 C 68.34 70.50 65.25 70.44 64.34 71.39 C 62.88 74.82 62.77 78.61 62.22 82.25 C 61.44 82.18 59.89 82.04 59.11 81.97 C 57.72 79.64 56.37 77.28 54.77 75.08 C 50.90 75.83 47.06 77.54 44.10 80.17 C 44.30 81.16 44.55 82.14 44.87 83.10 C 44.87 83.52 44.89 84.35 44.89 84.77 C 42.92 85.92 42.42 88.35 43.65 90.27 C 44.01 91.82 46.81 95.94 45.09 95.84 C 42.68 94.59 40.20 94.79 39.72 97.85 C 39.32 97.84 38.54 97.81 38.14 97.79 C 37.35 95.57 36.63 93.33 35.91 91.09 C 36.46 91.30 37.55 91.73 38.10 91.94 C 38.41 88.20 35.56 84.16 31.82 83.58 C 35.31 80.90 38.40 84.31 41.79 84.90 C 44.50 82.90 42.05 79.55 41.27 77.14 C 42.40 75.49 45.22 74.82 45.38 72.71 C 46.87 70.73 50.37 69.81 53.00 70.00 C 55.77 69.94 58.61 70.18 61.30 69.39 Z" />
</g>
<g id="#a7ac9aff">
<path fill="#a7ac9a" opacity="1.00" d=" M 86.85 70.89 C 87.49 69.62 88.85 69.11 90.20 69.04 C 87.23 74.64 83.67 79.93 80.08 85.14 C 80.88 79.82 83.98 75.30 86.85 70.89 Z" />
</g>
<g id="#6a93b8ff">
<path fill="#6a93b8" opacity="1.00" d=" M 105.23 73.03 C 105.89 72.22 105.89 70.79 106.94 70.37 C 111.37 72.42 116.99 71.47 120.30 75.65 C 123.94 74.42 127.09 71.94 130.83 70.97 C 132.03 73.26 132.81 75.76 134.11 78.00 C 131.64 77.80 131.14 74.77 129.03 73.95 C 124.49 76.41 120.68 81.62 115.08 80.97 C 110.87 80.67 111.63 73.65 106.94 74.98 C 108.95 83.13 109.81 91.51 110.24 99.90 C 110.44 106.49 113.57 113.50 109.69 119.71 C 104.08 128.77 92.49 133.14 82.12 133.06 L 81.30 133.01 L 81.07 132.00 C 91.41 130.55 104.33 127.02 107.64 115.64 C 108.70 104.60 107.02 92.87 101.93 82.95 C 97.91 81.23 95.29 83.51 92.85 85.92 C 93.95 83.30 94.79 80.58 95.79 77.92 C 99.31 77.53 103.34 76.25 105.23 73.03 Z" />
</g>
<g id="#84b3d8fc">
<path fill="#84b3d8" opacity="1.00" d=" M 135.09 78.30 C 135.74 75.40 133.49 70.07 137.94 70.91 C 141.84 70.27 145.45 72.20 147.77 75.26 C 148.14 78.04 147.70 80.97 148.27 83.75 C 150.78 87.74 154.27 91.07 156.33 95.35 C 152.77 97.05 150.47 90.83 146.48 93.56 C 145.24 94.01 143.97 95.52 142.70 94.30 C 138.57 90.83 132.50 92.60 128.69 95.70 C 126.27 98.77 124.81 102.51 123.04 106.00 C 122.04 105.68 121.04 105.39 120.03 105.13 C 119.76 104.88 119.22 104.37 118.95 104.12 C 119.22 103.82 119.77 103.22 120.04 102.92 C 124.51 96.48 128.61 89.80 134.75 84.73 C 134.79 84.29 134.88 83.41 134.93 82.97 C 134.95 82.51 134.98 81.60 134.99 81.14 C 135.01 80.43 135.06 79.01 135.09 78.30 Z" />
</g>
<g id="#8fc0def9">
<path fill="#8fc0de" opacity="0.98" d=" M 37.26 77.28 C 39.82 75.53 42.22 73.24 45.38 72.71 C 45.22 74.82 42.40 75.49 41.27 77.14 C 42.05 79.55 44.50 82.90 41.79 84.90 C 38.40 84.31 35.31 80.90 31.82 83.58 C 28.55 84.47 26.10 89.24 22.75 86.04 C 26.94 82.24 32.84 80.82 37.26 77.28 Z" />
</g>
<g id="#b9caa9ff">
<path fill="#b9caa9" opacity="1.00" d=" M 94.08 75.96 C 95.12 75.04 95.87 72.15 97.42 74.03 C 96.86 75.32 96.29 76.60 95.79 77.92 C 94.79 80.58 93.95 83.30 92.85 85.92 C 92.55 86.44 91.95 87.46 91.65 87.97 C 90.61 89.76 89.66 91.66 88.09 93.06 C 89.76 87.25 93.19 82.00 94.08 75.96 Z" />
</g>
<g id="#658caeff">
<path fill="#658cae" opacity="1.00" d=" M 115.08 80.97 C 120.68 81.62 124.49 76.41 129.03 73.95 C 131.14 74.77 131.64 77.80 134.11 78.00 L 135.09 78.30 C 135.06 79.01 135.01 80.43 134.99 81.14 C 130.72 78.01 125.71 79.79 121.85 82.66 C 118.61 82.81 114.02 83.38 112.60 86.65 C 111.08 96.78 115.76 106.76 114.87 116.90 C 113.92 119.93 113.32 123.56 110.02 125.04 C 102.73 131.37 93.26 134.46 83.76 135.27 L 82.89 135.10 C 82.76 134.79 82.52 134.17 82.39 133.86 L 82.12 133.06 C 92.49 133.14 104.08 128.77 109.69 119.71 C 113.57 113.50 110.44 106.49 110.24 99.90 C 109.81 91.51 108.95 83.13 106.94 74.98 C 111.63 73.65 110.87 80.67 115.08 80.97 Z" />
</g>
<g id="#6e96b9fd">
<path fill="#6e96b9" opacity="1.00" d=" M 44.10 80.17 C 47.06 77.54 50.90 75.83 54.77 75.08 C 56.37 77.28 57.72 79.64 59.11 81.97 C 57.75 81.81 56.46 81.36 55.17 80.94 C 55.34 80.42 55.69 79.38 55.86 78.86 C 51.91 79.37 48.33 81.24 44.87 83.10 C 44.55 82.14 44.30 81.16 44.10 80.17 Z" />
</g>
<g id="#816c6cff">
<path fill="#816c6c" opacity="1.00" d=" M 91.19 80.12 C 91.88 78.54 92.60 76.95 94.08 75.96 C 93.19 82.00 89.76 87.25 88.09 93.06 C 85.04 96.24 79.34 99.36 75.83 95.31 C 76.31 95.34 77.26 95.40 77.73 95.44 C 86.35 97.30 89.62 86.75 91.19 80.12 Z" />
</g>
<g id="#5b7e9af6">
<path fill="#5b7e9a" opacity="0.96" d=" M 44.87 83.10 C 48.33 81.24 51.91 79.37 55.86 78.86 C 55.69 79.38 55.34 80.42 55.17 80.94 C 52.62 82.98 48.39 84.88 44.89 84.77 C 44.89 84.35 44.87 83.52 44.87 83.10 Z" />
</g>
<g id="#567a97f9">
<path fill="#567a97" opacity="0.98" d=" M 121.85 82.66 C 125.71 79.79 130.72 78.01 134.99 81.14 C 134.98 81.60 134.95 82.51 134.93 82.97 C 131.71 83.25 128.48 83.60 125.25 83.79 C 124.13 83.38 122.99 83.00 121.85 82.66 Z" />
</g>
<g id="#b2808cff">
<path fill="#b2808c" opacity="1.00" d=" M 82.21 86.16 C 85.72 85.02 88.40 82.42 91.19 80.12 C 89.62 86.75 86.35 97.30 77.73 95.44 C 80.17 93.08 84.69 91.27 83.94 87.16 C 83.41 87.06 82.35 86.87 81.83 86.78 L 82.21 86.16 Z" />
</g>
<g id="#6086a5fe">
<path fill="#6086a5" opacity="1.00" d=" M 112.60 86.65 C 114.02 83.38 118.61 82.81 121.85 82.66 C 122.99 83.00 124.13 83.38 125.25 83.79 C 121.42 84.55 115.98 84.49 116.57 89.75 C 115.57 94.63 116.60 99.86 118.95 104.12 C 119.22 104.37 119.76 104.88 120.03 105.13 C 119.72 107.93 116.53 111.59 118.95 113.91 C 121.68 114.86 120.87 117.58 119.94 119.59 C 117.67 123.28 115.80 127.22 113.30 130.77 C 111.01 131.33 108.63 131.04 106.34 131.46 C 99.82 134.18 93.02 136.57 85.94 137.19 C 85.21 136.55 84.48 135.91 83.76 135.27 C 93.26 134.46 102.73 131.37 110.02 125.04 C 113.32 123.56 113.92 119.93 114.87 116.90 C 115.76 106.76 111.08 96.78 112.60 86.65 Z" />
</g>
<g id="#709abeff">
<path fill="#709abe" opacity="1.00" d=" M 92.85 85.92 C 95.29 83.51 97.91 81.23 101.93 82.95 C 107.02 92.87 108.70 104.60 107.64 115.64 C 104.33 127.02 91.41 130.55 81.07 132.00 C 80.78 131.56 80.21 130.67 79.93 130.22 C 88.09 128.72 98.52 126.72 101.98 118.00 C 105.73 109.66 103.83 99.53 99.27 91.83 C 98.22 88.76 94.09 89.06 91.65 87.97 C 91.95 87.46 92.55 86.44 92.85 85.92 Z" />
</g>
<g id="#02040410">
<path fill="#020404" opacity="0.06" d=" M 125.25 83.79 C 128.48 83.60 131.71 83.25 134.93 82.97 C 134.88 83.41 134.79 84.29 134.75 84.73 C 128.61 89.80 124.51 96.48 120.04 102.92 C 119.46 98.40 118.35 93.95 116.57 89.75 C 115.98 84.49 121.42 84.55 125.25 83.79 Z" />
</g>
<g id="#79a7cefd">
<path fill="#79a7ce" opacity="1.00" d=" M 22.75 86.04 C 26.10 89.24 28.55 84.47 31.82 83.58 C 35.56 84.16 38.41 88.20 38.10 91.94 C 37.55 91.73 36.46 91.30 35.91 91.09 C 35.76 90.74 35.46 90.05 35.31 89.71 C 35.68 84.66 28.34 86.59 26.68 89.67 C 23.16 92.38 26.82 97.51 25.04 101.08 C 23.68 101.05 22.32 101.04 20.96 101.03 C 20.93 98.26 21.70 95.59 21.95 92.86 C 23.42 88.24 18.49 90.85 15.98 91.08 C 17.83 89.12 20.81 88.15 22.75 86.04 Z" />
</g>
<g id="#6e9ab9fa">
<path fill="#6e9ab9" opacity="0.98" d=" M 43.65 90.27 C 42.42 88.35 42.92 85.92 44.89 84.77 C 45.09 86.69 45.27 88.86 43.65 90.27 Z" />
</g>
<g id="#6e96b9fe">
<path fill="#6e96b9" opacity="1.00" d=" M 26.68 89.67 C 28.34 86.59 35.68 84.66 35.31 89.71 L 34.39 89.53 C 28.58 86.26 24.13 95.73 27.94 98.98 L 28.92 99.21 C 28.32 100.52 27.13 101.52 25.93 102.28 C 25.71 101.98 25.26 101.38 25.04 101.08 C 26.82 97.51 23.16 92.38 26.68 89.67 Z" />
</g>
<g id="#bc8d94fc">
<path fill="#bc8d94" opacity="1.00" d=" M 78.12 88.18 C 79.36 87.73 80.59 87.24 81.83 86.78 C 82.35 86.87 83.41 87.06 83.94 87.16 C 84.69 91.27 80.17 93.08 77.73 95.44 C 77.26 95.40 76.31 95.34 75.83 95.31 L 75.06 95.26 C 74.98 95.75 74.81 96.73 74.72 97.22 L 74.09 96.85 C 73.85 95.62 73.55 94.41 73.42 93.16 C 73.41 90.05 75.18 88.58 78.12 88.18 Z" />
</g>
<g id="#76a1c5ff">
<path fill="#76a1c5" opacity="1.00" d=" M 88.09 93.06 C 89.66 91.66 90.61 89.76 91.65 87.97 C 94.09 89.06 98.22 88.76 99.27 91.83 C 103.83 99.53 105.73 109.66 101.98 118.00 C 98.52 126.72 88.09 128.72 79.93 130.22 C 79.46 129.86 78.50 129.13 78.03 128.77 L 77.80 127.80 L 78.10 126.96 C 86.06 126.98 95.80 123.56 97.87 114.88 C 101.17 108.18 97.12 101.15 92.90 96.08 C 91.43 96.05 88.49 95.98 87.02 95.94 C 87.39 94.98 87.74 94.03 88.09 93.06 Z" />
</g>
<g id="#5f82a2ff">
<path fill="#5f82a2" opacity="1.00" d=" M 27.94 98.98 C 24.13 95.73 28.58 86.26 34.39 89.53 C 32.72 90.48 31.01 91.38 29.38 92.39 C 28.74 94.55 28.28 96.76 27.94 98.98 Z" />
</g>
<g id="#7098bcf9">
<path fill="#7098bc" opacity="0.98" d=" M 15.98 91.08 C 18.49 90.85 23.42 88.24 21.95 92.86 C 17.46 92.55 16.20 97.52 15.13 100.90 C 15.58 100.91 16.47 100.95 16.92 100.96 C 17.20 102.20 16.72 103.75 15.29 103.87 C 14.09 102.60 12.75 101.45 11.18 100.67 C 10.04 96.84 12.61 92.67 15.98 91.08 Z" />
</g>
<g id="#adb5a8fb">
<path fill="#adb5a8" opacity="1.00" d=" M 29.38 92.39 C 31.01 91.38 32.72 90.48 34.39 89.53 L 35.31 89.71 C 35.46 90.05 35.76 90.74 35.91 91.09 C 36.63 93.33 37.35 95.57 38.14 97.79 C 34.80 96.91 31.30 96.29 28.92 99.21 L 27.94 98.98 C 28.28 96.76 28.74 94.55 29.38 92.39 Z" />
</g>
<g id="#6192abf1">
<path fill="#6192ab" opacity="0.95" d=" M 118.95 104.12 C 116.60 99.86 115.57 94.63 116.57 89.75 C 118.35 93.95 119.46 98.40 120.04 102.92 C 119.77 103.22 119.22 103.82 118.95 104.12 Z" />
</g>
<g id="#75a0c6fd">
<path fill="#75a0c6" opacity="1.00" d=" M 128.69 95.70 C 132.50 92.60 138.57 90.83 142.70 94.30 C 143.97 95.52 145.24 94.01 146.48 93.56 C 150.47 90.83 152.77 97.05 156.33 95.35 C 160.47 97.93 163.02 104.74 163.91 109.86 C 163.60 110.08 162.98 110.52 162.67 110.74 C 161.35 111.38 160.03 112.03 158.73 112.72 C 158.51 112.58 158.08 112.30 157.86 112.15 C 156.36 107.61 155.45 102.29 150.30 100.78 C 151.63 98.55 149.70 95.84 147.21 96.07 C 144.67 101.66 144.84 107.95 144.04 113.95 C 142.38 113.05 140.42 112.66 138.71 113.67 L 137.94 113.94 C 137.94 113.47 137.94 112.55 137.93 112.09 C 138.10 107.37 139.40 102.50 137.01 98.13 C 139.11 96.87 136.95 94.33 135.07 95.02 C 129.32 96.82 127.51 103.08 123.77 107.16 L 123.00 106.89 L 123.04 106.00 C 124.81 102.51 126.27 98.77 128.69 95.70 Z" />
</g>
<g id="#abb8b0fa">
<path fill="#abb8b0" opacity="0.98" d=" M 15.13 100.90 C 16.20 97.52 17.46 92.55 21.95 92.86 C 21.70 95.59 20.93 98.26 20.96 101.03 L 20.92 102.02 C 19.71 101.00 18.50 99.91 16.92 100.96 C 16.47 100.95 15.58 100.91 15.13 100.90 Z" />
</g>
<g id="#cadab6ff">
<path fill="#cadab6" opacity="1.00" d=" M 75.83 95.31 C 79.34 99.36 85.04 96.24 88.09 93.06 C 87.74 94.03 87.39 94.98 87.02 95.94 C 85.19 97.26 83.24 98.42 81.18 99.33 C 78.88 99.14 76.60 98.62 74.72 97.22 C 74.81 96.73 74.98 95.75 75.06 95.26 L 75.83 95.31 Z" />
</g>
<g id="#d5d9dbf9">
<path fill="#d5d9db" opacity="0.98" d=" M 39.72 97.85 C 40.20 94.79 42.68 94.59 45.09 95.84 C 45.13 98.60 45.08 101.37 44.93 104.13 C 42.56 102.66 41.39 99.98 39.72 97.85 Z" />
</g>
<g id="#6087a7ff">
<path fill="#6087a7" opacity="1.00" d=" M 123.77 107.16 C 127.51 103.08 129.32 96.82 135.07 95.02 C 136.95 94.33 139.11 96.87 137.01 98.13 C 130.97 98.48 129.27 104.12 125.92 107.92 L 125.14 108.23 C 124.79 107.96 124.11 107.43 123.77 107.16 Z" />
</g>
<g id="#7ba7cdff">
<path fill="#7ba7cd" opacity="1.00" d=" M 81.18 99.33 C 83.24 98.42 85.19 97.26 87.02 95.94 C 88.49 95.98 91.43 96.05 92.90 96.08 C 97.12 101.15 101.17 108.18 97.87 114.88 C 95.80 123.56 86.06 126.98 78.10 126.96 C 75.79 125.16 73.62 127.44 71.86 128.87 C 63.31 137.39 59.08 149.01 55.34 160.22 C 54.94 157.94 53.48 155.66 54.32 153.31 C 54.81 151.59 55.01 149.81 55.16 148.04 C 55.60 148.24 56.48 148.64 56.91 148.84 C 59.81 139.64 64.11 130.02 72.38 124.46 C 78.58 124.56 84.30 121.91 88.94 117.94 C 90.71 114.92 93.18 111.38 91.23 107.86 C 89.80 102.48 83.42 101.98 78.94 100.75 C 79.67 100.25 80.42 99.78 81.18 99.33 Z" />
</g>
<g id="#6588a5fc">
<path fill="#6588a5" opacity="1.00" d=" M 147.21 96.07 C 149.70 95.84 151.63 98.55 150.30 100.78 C 149.73 100.63 148.60 100.33 148.03 100.17 C 147.48 104.50 147.03 108.85 146.59 113.19 C 146.28 114.42 144.81 115.07 144.03 116.06 C 144.03 115.53 144.04 114.47 144.04 113.95 C 144.84 107.95 144.67 101.66 147.21 96.07 Z" />
</g>
<g id="#82b0d6fc">
<path fill="#82b0d6" opacity="1.00" d=" M 74.09 96.85 L 74.72 97.22 C 76.60 98.62 78.88 99.14 81.18 99.33 C 80.42 99.78 79.67 100.25 78.94 100.75 C 83.42 101.98 89.80 102.48 91.23 107.86 C 93.18 111.38 90.71 114.92 88.94 117.94 C 84.30 121.91 78.58 124.56 72.38 124.46 C 64.11 130.02 59.81 139.64 56.91 148.84 C 56.48 148.64 55.60 148.24 55.16 148.04 C 54.99 146.24 54.78 144.44 54.36 142.68 C 54.84 135.16 59.93 128.19 66.27 124.29 C 68.33 122.71 70.98 121.46 71.65 118.70 C 71.78 111.34 73.41 104.15 74.09 96.85 Z" />
</g>
<g id="#aab1a6fd">
<path fill="#aab1a6" opacity="1.00" d=" M 125.92 107.92 C 129.27 104.12 130.97 98.48 137.01 98.13 C 139.40 102.50 138.10 107.37 137.93 112.09 C 135.79 110.55 133.95 108.03 131.07 108.03 C 130.56 108.01 129.54 107.98 129.03 107.96 C 128.26 107.95 126.70 107.93 125.92 107.92 Z" />
</g>
<g id="#a7aea2fc">
<path fill="#a7aea2" opacity="1.00" d=" M 148.03 100.17 C 148.60 100.33 149.73 100.63 150.30 100.78 C 155.45 102.29 156.36 107.61 157.86 112.15 C 154.09 110.01 149.83 110.10 146.59 113.19 C 147.03 108.85 147.48 104.50 148.03 100.17 Z" />
</g>
<g id="#bec6c9f4">
<path fill="#bec6c9" opacity="0.96" d=" M 11.18 100.67 C 12.75 101.45 14.09 102.60 15.29 103.87 C 14.41 105.89 13.92 108.70 12.11 109.95 C 10.91 107.03 10.87 103.77 11.18 100.67 Z" />
</g>
<g id="#c6c9ccf0">
<path fill="#c6c9cc" opacity="0.94" d=" M 20.96 101.03 C 22.32 101.04 23.68 101.05 25.04 101.08 C 25.26 101.38 25.71 101.98 25.93 102.28 C 25.31 105.54 26.64 110.44 23.12 112.04 C 22.26 108.72 21.52 105.38 20.92 102.02 L 20.96 101.03 Z" />
</g>
<g id="#d8e0e3ff">
<path fill="#d8e0e3" opacity="1.00" d=" M 120.03 105.13 C 121.04 105.39 122.04 105.68 123.04 106.00 L 123.00 106.89 C 122.01 108.89 120.85 110.80 119.77 112.75 C 119.57 113.04 119.16 113.62 118.95 113.91 C 116.53 111.59 119.72 107.93 120.03 105.13 Z" />
</g>
<g id="#adc0c4ff">
<path fill="#adc0c4" opacity="1.00" d=" M 123.00 106.89 L 123.77 107.16 C 124.11 107.43 124.79 107.96 125.14 108.23 C 123.69 109.77 122.21 111.29 120.74 112.80 L 119.77 112.75 C 120.85 110.80 122.01 108.89 123.00 106.89 Z" />
</g>
<g id="#85b2d7ff">
<path fill="#85b2d7" opacity="1.00" d=" M 125.14 108.23 L 125.92 107.92 C 126.70 107.93 128.26 107.95 129.03 107.96 C 126.93 110.72 126.48 114.47 123.82 116.83 C 121.43 117.54 121.79 114.14 120.74 112.80 C 122.21 111.29 123.69 109.77 125.14 108.23 Z" />
</g>
<g id="#719cb8fc">
<path fill="#719cb8" opacity="1.00" d=" M 129.03 107.96 C 129.54 107.98 130.56 108.01 131.07 108.03 C 128.87 112.75 127.26 118.63 123.77 122.33 C 122.49 121.42 121.26 120.45 119.94 119.59 C 120.87 117.58 121.68 114.86 118.95 113.91 C 119.16 113.62 119.57 113.04 119.77 112.75 L 120.74 112.80 C 121.79 114.14 121.43 117.54 123.82 116.83 C 126.48 114.47 126.93 110.72 129.03 107.96 Z" />
</g>
<g id="#b5bdbcee">
<path fill="#b5bdbc" opacity="0.93" d=" M 158.73 112.72 C 160.03 112.03 161.35 111.38 162.67 110.74 C 165.36 113.14 163.11 117.09 162.82 120.11 C 161.34 117.74 159.54 115.42 158.73 112.72 Z" />
</g>
<g id="#cbcfd3f7">
<path fill="#cbcfd3" opacity="0.97" d=" M 138.71 113.67 C 140.42 112.66 142.38 113.05 144.04 113.95 C 144.04 114.47 144.03 115.53 144.03 116.06 C 144.32 119.25 141.85 121.66 140.19 124.10 C 139.40 120.67 139.03 117.16 138.71 113.67 Z" />
</g>
<g id="#78a4c9fe">
<path fill="#78a4c9" opacity="1.00" d=" M 113.30 130.77 C 115.80 127.22 117.67 123.28 119.94 119.59 C 121.26 120.45 122.49 121.42 123.77 122.33 C 127.42 128.88 132.46 134.89 134.28 142.31 C 133.17 142.36 132.21 141.73 131.19 141.41 C 128.67 144.94 124.88 149.01 120.27 146.72 C 116.28 143.01 114.06 137.68 111.69 132.83 C 112.09 132.32 112.90 131.29 113.30 130.77 Z" />
</g>
<g id="#709bbffd">
<path fill="#709bbf" opacity="1.00" d=" M 71.86 128.87 C 73.62 127.44 75.79 125.16 78.10 126.96 L 77.80 127.80 C 76.12 133.57 69.04 135.26 66.68 140.68 C 65.02 144.48 63.26 148.25 61.97 152.19 L 61.37 152.80 L 60.92 153.23 C 56.56 157.18 57.78 163.74 59.61 168.68 C 56.19 170.41 53.26 172.85 50.90 175.87 C 48.51 174.41 45.85 175.12 43.78 176.75 C 42.24 177.21 40.59 177.01 39.01 176.94 L 38.98 175.94 C 38.99 174.63 38.99 173.32 38.99 172.02 L 39.02 171.08 C 44.69 171.92 50.18 169.89 54.84 166.84 C 56.33 164.76 54.51 162.42 55.34 160.22 C 59.08 149.01 63.31 137.39 71.86 128.87 Z" />
</g>
<g id="#6892b7ff">
<path fill="#6892b7" opacity="1.00" d=" M 66.68 140.68 C 69.04 135.26 76.12 133.57 77.80 127.80 L 78.03 128.77 C 78.29 130.08 78.68 131.38 78.79 132.73 C 74.24 136.47 68.64 140.02 67.29 146.19 L 67.08 146.72 C 65.39 148.56 63.87 150.56 61.97 152.19 C 63.26 148.25 65.02 144.48 66.68 140.68 Z" />
</g>
<g id="#5e85a9ff">
<path fill="#5e85a9" opacity="1.00" d=" M 78.03 128.77 C 78.50 129.13 79.46 129.86 79.93 130.22 C 80.21 130.67 80.78 131.56 81.07 132.00 L 81.30 133.01 C 80.39 135.41 77.64 136.27 76.04 138.05 C 72.30 139.93 71.34 144.78 67.29 146.19 C 68.64 140.02 74.24 136.47 78.79 132.73 C 78.68 131.38 78.29 130.08 78.03 128.77 Z" />
</g>
<g id="#547c9afc">
<path fill="#547c9a" opacity="1.00" d=" M 106.34 131.46 C 108.63 131.04 111.01 131.33 113.30 130.77 C 112.90 131.29 112.09 132.32 111.69 132.83 L 111.12 133.23 C 108.90 134.22 107.42 137.30 104.68 136.43 C 102.77 136.45 98.41 135.99 99.04 138.87 C 101.18 140.30 103.91 140.03 106.32 140.74 L 106.03 141.78 C 100.70 141.98 95.21 142.70 90.04 141.03 C 85.10 142.82 81.10 147.08 75.92 148.03 C 75.41 147.98 74.40 147.88 73.89 147.83 C 77.39 144.99 80.91 142.10 84.91 139.98 C 85.96 140.39 87.03 140.74 88.11 141.04 C 87.94 139.49 86.89 138.34 85.94 137.19 C 93.02 136.57 99.82 134.18 106.34 131.46 Z" />
</g>
<g id="#567b9bff">
<path fill="#567b9b" opacity="1.00" d=" M 81.30 133.01 L 82.12 133.06 L 82.39 133.86 C 82.42 138.25 77.05 138.84 74.81 141.79 C 72.49 144.86 70.26 148.02 68.32 151.36 C 64.93 159.43 69.02 155.21 71.03 153.98 C 69.50 156.52 69.41 162.43 65.18 160.91 C 63.39 159.09 63.68 155.62 61.03 154.74 C 61.00 154.36 60.94 153.61 60.92 153.23 L 61.37 152.80 C 64.26 155.67 66.28 148.79 67.08 146.72 L 67.29 146.19 C 71.34 144.78 72.30 139.93 76.04 138.05 C 77.64 136.27 80.39 135.41 81.30 133.01 Z" />
</g>
<g id="#4b6d8bff">
<path fill="#4b6d8b" opacity="1.00" d=" M 104.68 136.43 C 107.42 137.30 108.90 134.22 111.12 133.23 C 109.79 135.81 108.32 138.31 106.98 140.89 L 106.32 140.74 C 103.91 140.03 101.18 140.30 99.04 138.87 C 98.41 135.99 102.77 136.45 104.68 136.43 Z" />
</g>
<g id="#6894b6fb">
<path fill="#6894b6" opacity="1.00" d=" M 111.12 133.23 L 111.69 132.83 C 114.06 137.68 116.28 143.01 120.27 146.72 C 124.88 149.01 128.67 144.94 131.19 141.41 C 132.21 141.73 133.17 142.36 134.28 142.31 L 134.91 142.36 C 136.97 150.07 138.50 157.94 139.15 165.91 C 140.38 169.16 143.68 170.84 146.23 172.94 C 147.59 174.60 145.00 178.34 147.96 178.05 L 148.00 179.05 C 145.31 178.68 142.70 177.82 139.96 178.02 C 136.93 178.63 135.98 175.61 134.21 173.89 C 134.10 174.41 133.87 175.47 133.76 175.99 C 130.77 174.03 127.72 176.30 127.89 179.70 C 126.27 179.82 124.72 179.15 123.14 178.92 C 124.54 176.95 123.13 173.58 121.03 173.02 C 118.96 174.32 117.11 175.96 115.01 177.24 C 114.07 176.05 113.13 174.86 112.11 173.75 C 115.14 170.72 120.71 169.19 121.03 163.99 C 121.23 163.71 121.65 163.16 121.85 162.88 C 120.66 165.98 122.46 169.96 125.83 169.01 C 123.50 163.53 133.10 166.18 133.16 160.97 C 134.26 158.71 135.30 156.36 135.01 153.78 C 135.00 152.07 134.98 148.64 134.97 146.92 C 132.23 148.02 130.60 150.57 128.26 152.22 C 124.81 154.62 120.61 152.76 116.91 153.82 C 114.63 154.21 114.80 149.27 113.00 149.00 C 112.00 145.56 108.45 143.87 106.98 140.89 C 108.32 138.31 109.79 135.81 111.12 133.23 Z" />
</g>
<g id="#4b708dfd">
<path fill="#4b708d" opacity="1.00" d=" M 82.39 133.86 C 82.52 134.17 82.76 134.79 82.89 135.10 C 83.48 136.76 84.18 138.37 84.91 139.98 C 80.91 142.10 77.39 144.99 73.89 147.83 C 74.40 147.88 75.41 147.98 75.92 148.03 C 76.53 150.12 72.94 148.02 72.76 149.85 C 72.08 151.17 71.61 152.60 71.03 153.98 C 69.02 155.21 64.93 159.43 68.32 151.36 C 70.26 148.02 72.49 144.86 74.81 141.79 C 77.05 138.84 82.42 138.25 82.39 133.86 Z" />
</g>
<g id="#3e5c75ff">
<path fill="#3e5c75" opacity="1.00" d=" M 82.89 135.10 L 83.76 135.27 C 84.48 135.91 85.21 136.55 85.94 137.19 C 86.89 138.34 87.94 139.49 88.11 141.04 C 87.03 140.74 85.96 140.39 84.91 139.98 C 84.18 138.37 83.48 136.76 82.89 135.10 Z" />
</g>
<g id="#96c9ebfe">
<path fill="#96c9eb" opacity="1.00" d=" M 54.36 142.68 C 54.78 144.44 54.99 146.24 55.16 148.04 C 55.01 149.81 54.81 151.59 54.32 153.31 L 54.14 152.18 C 54.06 149.39 54.06 146.60 54.13 143.82 L 54.36 142.68 Z" />
</g>
<g id="#141b1f5c">
<path fill="#141b1f" opacity="0.36" d=" M 53.08 144.04 L 54.13 143.82 C 54.06 146.60 54.06 149.39 54.14 152.18 C 51.71 151.10 53.45 146.53 53.08 144.04 Z" />
</g>
<g id="#46627bff">
<path fill="#46627b" opacity="1.00" d=" M 61.97 152.19 C 63.87 150.56 65.39 148.56 67.08 146.72 C 66.28 148.79 64.26 155.67 61.37 152.80 L 61.97 152.19 Z" />
</g>
<g id="#6288a8fe">
<path fill="#6288a8" opacity="1.00" d=" M 128.26 152.22 C 130.60 150.57 132.23 148.02 134.97 146.92 C 134.98 148.64 135.00 152.07 135.01 153.78 C 132.16 153.93 133.60 157.48 131.75 158.84 C 129.32 158.45 126.78 160.49 124.33 159.71 C 122.54 158.55 121.38 155.54 118.88 156.50 C 117.31 156.93 116.71 155.06 116.91 153.82 C 120.61 152.76 124.81 154.62 128.26 152.22 Z" />
</g>
<g id="#5b89a6fe">
<path fill="#5b89a6" opacity="1.00" d=" M 71.03 153.98 C 71.61 152.60 72.08 151.17 72.76 149.85 C 74.20 151.19 74.03 153.20 74.01 154.99 C 74.28 158.37 73.25 162.10 74.70 165.31 C 76.06 167.98 79.16 173.82 76.00 175.26 C 72.69 175.04 73.30 170.61 70.68 169.39 C 68.29 168.58 64.03 169.46 62.45 166.71 C 62.00 162.72 61.16 158.76 61.03 154.74 C 63.68 155.62 63.39 159.09 65.18 160.91 C 69.41 162.43 69.50 156.52 71.03 153.98 Z" />
</g>
<g id="#6893b6fe">
<path fill="#6893b6" opacity="1.00" d=" M 59.61 168.68 C 57.78 163.74 56.56 157.18 60.92 153.23 C 60.94 153.61 61.00 154.36 61.03 154.74 C 61.16 158.76 62.00 162.72 62.45 166.71 C 64.03 169.46 68.29 168.58 70.68 169.39 C 73.30 170.61 72.69 175.04 76.00 175.26 C 74.26 176.65 72.91 178.98 70.99 179.84 C 71.15 178.72 70.92 177.74 70.30 176.89 C 68.34 173.05 64.19 176.53 63.90 179.60 C 62.58 179.40 61.28 179.09 59.97 178.84 C 63.32 176.76 59.97 173.52 57.09 174.02 C 54.95 175.09 53.08 176.63 51.17 178.05 C 51.10 177.50 50.96 176.41 50.90 175.87 C 53.26 172.85 56.19 170.41 59.61 168.68 Z" />
</g>
<g id="#567995ff">
<path fill="#567995" opacity="1.00" d=" M 131.75 158.84 C 133.60 157.48 132.16 153.93 135.01 153.78 C 135.30 156.36 134.26 158.71 133.16 160.97 C 130.78 161.56 128.59 163.09 126.08 162.99 C 122.64 162.23 121.06 158.88 118.88 156.50 C 121.38 155.54 122.54 158.55 124.33 159.71 C 126.78 160.49 129.32 158.45 131.75 158.84 Z" />
</g>
<g id="#21343d93">
<path fill="#21343d" opacity="0.58" d=" M 74.01 154.99 C 76.90 155.87 74.37 162.43 74.70 165.31 C 73.25 162.10 74.28 158.37 74.01 154.99 Z" />
</g>
<g id="#5b87a4fc">
<path fill="#5b87a4" opacity="1.00" d=" M 118.88 156.50 C 121.06 158.88 122.64 162.23 126.08 162.99 C 128.59 163.09 130.78 161.56 133.16 160.97 C 133.10 166.18 123.50 163.53 125.83 169.01 C 122.46 169.96 120.66 165.98 121.85 162.88 C 121.65 163.16 121.23 163.71 121.03 163.99 C 118.92 162.96 119.26 158.82 118.88 156.50 Z" />
</g>
<g id="#d7dbddf8">
<path fill="#d7dbdd" opacity="0.97" d=" M 29.85 176.83 C 31.17 173.69 35.52 171.57 38.99 172.02 C 38.99 173.32 38.99 174.63 38.98 175.94 C 36.20 176.04 33.35 175.78 30.66 176.63 L 29.85 176.83 Z" />
</g>
<g id="#5b7c97f9">
<path fill="#5b7c97" opacity="0.98" d=" M 115.01 177.24 C 117.11 175.96 118.96 174.32 121.03 173.02 C 123.13 173.58 124.54 176.95 123.14 178.92 C 120.41 179.13 117.69 179.11 114.98 178.86 C 114.99 178.45 115.00 177.64 115.01 177.24 Z" />
</g>
<g id="#c6d1dbf7">
<path fill="#c6d1db" opacity="0.97" d=" M 146.23 172.94 C 150.45 172.61 154.33 175.28 156.06 179.04 C 153.31 179.10 150.72 177.96 147.96 178.05 C 145.00 178.34 147.59 174.60 146.23 172.94 Z" />
</g>
<g id="#5b7d98fb">
<path fill="#5b7d98" opacity="1.00" d=" M 51.17 178.05 C 53.08 176.63 54.95 175.09 57.09 174.02 C 59.97 173.52 63.32 176.76 59.97 178.84 C 56.58 178.89 53.28 179.52 49.95 180.01 L 50.00 179.03 C 50.29 178.78 50.87 178.29 51.17 178.05 Z" />
</g>
<g id="#b5c0c3f4">
<path fill="#b5c0c3" opacity="0.96" d=" M 106.95 180.90 C 106.23 177.54 108.90 174.31 112.11 173.75 C 113.13 174.86 114.07 176.05 115.01 177.24 C 115.00 177.64 114.99 178.45 114.98 178.86 C 112.17 178.94 109.55 179.94 106.95 180.90 Z" />
</g>
<g id="#6d8895f4">
<path fill="#6d8895" opacity="0.96" d=" M 134.21 173.89 C 135.98 175.61 136.93 178.63 139.96 178.02 C 139.99 180.09 136.16 178.62 134.66 179.22 C 134.33 178.15 134.03 177.07 133.76 175.99 C 133.87 175.47 134.10 174.41 134.21 173.89 Z" />
</g>
<g id="#c0cad0fa">
<path fill="#c0cad0" opacity="0.98" d=" M 43.78 176.75 C 45.85 175.12 48.51 174.41 50.90 175.87 C 50.96 176.41 51.10 177.50 51.17 178.05 C 50.87 178.29 50.29 178.78 50.00 179.03 C 47.64 179.68 45.25 180.17 42.90 180.84 C 42.96 179.43 43.24 178.05 43.78 176.75 Z" />
</g>
<g id="#cedddfff">
<path fill="#cedddf" opacity="1.00" d=" M 63.90 179.60 C 64.19 176.53 68.34 173.05 70.30 176.89 C 69.33 178.00 67.52 179.30 68.89 180.85 C 67.54 183.05 65.58 179.93 63.90 179.60 Z" />
</g>
<g id="#cbd6dbfa">
<path fill="#cbd6db" opacity="0.98" d=" M 127.89 179.70 C 127.72 176.30 130.77 174.03 133.76 175.99 C 134.03 177.07 134.33 178.15 134.66 179.22 C 134.93 180.45 133.08 181.60 132.02 181.98 C 130.64 181.22 129.34 180.32 127.89 179.70 Z" />
</g>
<g id="#41414195">
<path fill="#414141" opacity="0.58" d=" M 30.66 176.63 C 33.35 175.78 36.20 176.04 38.98 175.94 L 39.01 176.94 C 36.23 177.12 33.41 177.10 30.66 176.63 Z" />
</g>
<g id="#adb5b5f9">
<path fill="#adb5b5" opacity="0.98" d=" M 70.30 176.89 C 70.92 177.74 71.15 178.72 70.99 179.84 C 70.47 180.09 69.42 180.60 68.89 180.85 C 67.52 179.30 69.33 178.00 70.30 176.89 Z" />
</g>
</svg>
