<?xml version="1.0" encoding="UTF-8" ?>
<!DOCTYPE svg PUBLIC "-//W3C//DTD SVG 1.1//EN" "http://www.w3.org/Graphics/SVG/1.1/DTD/svg11.dtd">
<svg width="157pt" height="160pt" viewBox="0 0 157 160" version="1.1" xmlns="http://www.w3.org/2000/svg">
<g id="#d4a479ff">
<path fill="#d4a479" opacity="1.00" d=" M 93.20 7.04 C 94.03 3.88 97.99 3.40 100.27 5.34 C 98.27 8.64 96.12 11.84 94.13 15.14 C 91.31 19.59 91.96 25.29 89.08 29.72 C 89.46 22.05 91.29 14.46 93.20 7.04 Z" />
<path fill="#d4a479" opacity="1.00" d=" M 119.35 40.18 C 120.70 43.52 119.20 46.99 118.48 50.29 C 118.25 48.50 118.02 46.71 117.87 44.91 C 118.27 43.31 118.82 41.74 119.35 40.18 Z" />
</g>
<g id="#bc8f6bff">
<path fill="#bc8f6b" opacity="1.00" d=" M 100.27 5.34 L 100.40 5.12 C 100.65 5.67 101.14 6.76 101.39 7.30 C 95.36 14.73 98.68 26.55 91.06 33.10 C 92.88 32.88 94.70 32.68 96.52 32.48 C 96.67 34.65 96.85 36.83 97.00 39.00 C 97.13 42.77 96.73 46.52 96.70 50.29 C 94.81 46.60 95.81 42.30 95.10 38.35 C 93.18 38.12 91.27 37.89 89.36 37.65 C 89.64 35.01 90.17 32.26 89.08 29.72 C 91.96 25.29 91.31 19.59 94.13 15.14 C 96.12 11.84 98.27 8.64 100.27 5.34 Z" />
</g>
<g id="#9e6a4eff">
<path fill="#9e6a4e" opacity="1.00" d=" M 91.06 33.10 C 98.68 26.55 95.36 14.73 101.39 7.30 C 101.64 11.51 100.63 15.65 99.78 19.73 C 98.81 23.51 98.10 27.35 97.89 31.25 C 97.66 33.84 97.34 36.42 97.00 39.00 C 96.85 36.83 96.67 34.65 96.52 32.48 C 94.70 32.68 92.88 32.88 91.06 33.10 Z" />
</g>
<g id="#291c1370">
<path fill="#291c13" opacity="0.44" d=" M 97.89 31.25 C 98.10 27.35 98.81 23.51 99.78 19.73 C 99.39 23.60 98.92 27.49 97.89 31.25 Z" />
</g>
<g id="#b3805eff">
<path fill="#b3805e" opacity="1.00" d=" M 13.73 34.68 C 18.21 33.20 23.03 33.38 27.62 34.30 C 28.04 34.58 28.89 35.15 29.31 35.44 C 28.23 38.23 27.81 41.19 27.20 44.10 C 26.86 46.73 23.73 47.29 21.90 48.64 L 21.17 47.79 C 21.02 43.41 23.15 39.18 22.14 34.80 C 19.90 37.63 19.93 41.37 18.45 44.51 C 16.15 46.61 13.23 47.85 10.57 49.41 L 10.06 49.69 C 9.36 47.51 8.17 45.17 9.25 42.88 C 10.27 39.96 11.06 36.57 13.73 34.68 Z" />
</g>
<g id="#8f5e41fb">
<path fill="#8f5e41" opacity="1.00" d=" M 18.45 44.51 C 19.93 41.37 19.90 37.63 22.14 34.80 C 23.15 39.18 21.02 43.41 21.17 47.79 C 19.91 48.15 18.63 48.42 17.34 48.58 C 15.34 50.19 12.90 50.63 10.57 49.41 C 13.23 47.85 16.15 46.61 18.45 44.51 Z" />
</g>
<g id="#a16e4fff">
<path fill="#a16e4f" opacity="1.00" d=" M 29.31 35.44 C 30.88 40.64 31.14 46.16 32.12 51.51 C 29.01 51.77 26.00 50.91 23.29 49.40 C 23.24 49.77 23.15 50.52 23.10 50.89 C 22.73 53.53 22.54 56.21 22.79 58.88 C 21.33 55.57 23.66 51.70 21.90 48.64 C 23.73 47.29 26.86 46.73 27.20 44.10 C 27.81 41.19 28.23 38.23 29.31 35.44 Z" />
</g>
<g id="#b07d5dff">
<path fill="#b07d5d" opacity="1.00" d=" M 119.35 40.18 C 121.66 36.55 126.47 38.07 130.03 37.02 C 131.89 37.60 133.82 37.91 135.78 37.97 C 136.64 38.59 137.50 39.21 138.36 39.84 C 137.92 44.43 139.40 49.21 137.75 53.63 C 137.05 53.80 135.67 54.15 134.97 54.33 C 134.85 56.89 134.72 59.48 134.02 61.96 C 134.12 60.06 134.15 58.16 134.08 56.26 C 133.65 56.14 132.78 55.89 132.34 55.77 C 131.25 55.51 130.15 55.32 129.06 55.06 C 127.99 54.46 126.95 53.80 125.92 53.14 L 126.26 52.48 C 127.85 52.29 129.45 52.16 131.05 52.03 C 131.88 47.80 133.02 43.38 131.76 39.12 C 131.40 39.17 130.66 39.28 130.29 39.33 C 128.68 43.26 128.62 48.73 123.82 50.26 C 123.68 46.37 124.80 42.59 124.93 38.72 C 122.17 43.12 122.37 48.56 120.20 53.20 C 116.42 52.84 117.31 47.59 117.87 44.91 C 118.02 46.71 118.25 48.50 118.48 50.29 C 119.20 46.99 120.70 43.52 119.35 40.18 Z" />
</g>
<g id="#ecccb3ff">
<path fill="#ecccb3" opacity="1.00" d=" M 89.36 37.65 C 91.27 37.89 93.18 38.12 95.10 38.35 C 95.81 42.30 94.81 46.60 96.70 50.29 C 97.50 51.69 97.56 53.31 97.64 54.88 C 100.54 53.08 103.93 52.38 107.31 52.64 L 106.20 53.23 C 102.61 54.00 99.09 55.05 95.82 56.74 C 95.47 56.88 94.77 57.16 94.42 57.31 C 94.94 55.93 95.47 54.56 96.00 53.18 C 92.27 53.25 88.04 53.29 85.54 56.54 C 87.38 57.99 89.38 59.41 90.45 61.58 C 93.01 66.46 97.28 71.50 95.37 77.39 C 94.02 80.96 91.85 85.01 88.04 86.36 C 88.30 82.93 88.42 79.49 88.44 76.05 C 84.56 77.78 80.80 79.79 77.24 82.12 C 75.87 80.65 74.50 79.17 73.13 77.69 C 73.04 77.82 72.84 78.07 72.75 78.20 C 72.27 78.83 71.32 80.11 70.84 80.74 C 69.95 80.69 69.07 80.65 68.19 80.61 C 67.38 79.62 66.58 78.62 65.78 77.64 C 65.91 79.01 66.07 80.38 66.24 81.75 C 65.55 81.28 64.86 80.81 64.17 80.34 C 64.05 81.05 63.80 82.48 63.67 83.19 C 62.26 81.90 60.82 80.65 59.39 79.38 C 65.46 73.29 74.10 70.98 82.44 70.39 C 86.07 70.19 85.20 65.68 84.57 63.27 C 82.65 58.27 76.80 56.20 71.80 56.24 C 73.06 54.68 74.29 53.11 75.52 51.52 C 75.56 50.82 75.60 50.12 75.65 49.42 C 76.79 47.63 77.82 45.75 78.85 43.89 C 79.51 46.26 80.20 48.62 80.89 50.98 C 82.35 49.62 83.80 48.25 85.22 46.85 C 86.45 47.14 87.68 47.41 88.91 47.69 C 89.02 44.34 89.21 41.00 89.36 37.65 Z" />
</g>
<g id="#996547ff">
<path fill="#996547" opacity="1.00" d=" M 120.20 53.20 C 122.37 48.56 122.17 43.12 124.93 38.72 C 124.80 42.59 123.68 46.37 123.82 50.26 C 128.62 48.73 128.68 43.26 130.29 39.33 C 130.66 39.28 131.40 39.17 131.76 39.12 C 133.02 43.38 131.88 47.80 131.05 52.03 C 129.45 52.16 127.85 52.29 126.26 52.48 L 125.92 53.14 C 125.75 53.61 125.41 54.54 125.24 55.01 C 125.35 54.28 125.58 52.81 125.70 52.08 C 124.00 53.22 122.07 53.75 120.04 53.58 L 120.20 53.20 Z" />
</g>
<g id="#fedfc4ff">
<path fill="#fedfc4" opacity="1.00" d=" M 67.67 45.73 C 69.06 47.16 70.43 48.60 71.89 49.95 C 72.14 49.30 72.63 48.00 72.88 47.35 C 73.57 47.86 74.95 48.90 75.65 49.42 C 75.60 50.12 75.56 50.82 75.52 51.52 C 74.29 53.11 73.06 54.68 71.80 56.24 C 76.80 56.20 82.65 58.27 84.57 63.27 C 85.20 65.68 86.07 70.19 82.44 70.39 C 74.10 70.98 65.46 73.29 59.39 79.38 C 57.72 77.91 56.03 76.45 54.34 75.00 C 53.63 78.76 53.49 82.63 54.24 86.39 C 54.67 86.44 55.53 86.55 55.97 86.60 C 53.15 90.62 52.30 95.66 49.25 99.54 C 48.60 99.10 47.30 98.22 46.66 97.78 C 47.07 97.29 47.90 96.32 48.32 95.83 C 47.02 94.78 45.51 94.06 43.95 93.50 C 44.78 91.98 45.63 90.48 46.48 88.97 C 45.46 88.30 44.45 87.63 43.43 86.97 C 44.47 85.97 45.53 85.00 46.53 83.96 C 47.11 81.42 47.04 78.79 46.95 76.21 C 46.55 73.76 47.78 70.38 45.25 68.80 C 41.58 65.79 37.03 64.22 32.48 63.11 C 32.34 62.78 32.06 62.12 31.92 61.79 C 36.72 62.75 41.56 64.40 45.41 67.50 C 46.44 68.24 47.59 68.67 48.85 68.78 C 49.70 67.84 50.48 66.84 51.22 65.81 C 56.78 63.98 60.91 59.56 66.26 57.26 C 66.40 56.20 66.54 55.13 66.69 54.07 C 65.48 55.25 64.27 56.44 63.06 57.63 C 63.03 56.92 62.99 55.50 62.96 54.80 C 63.23 54.16 63.75 52.89 64.01 52.26 C 64.66 52.41 65.94 52.72 66.58 52.88 C 66.91 50.49 67.28 48.11 67.67 45.73 Z" />
</g>
<g id="#d2ac96ff">
<path fill="#d2ac96" opacity="1.00" d=" M 23.10 50.89 C 23.15 50.52 23.24 49.77 23.29 49.40 C 26.00 50.91 29.01 51.77 32.12 51.51 C 32.69 54.94 31.19 58.46 31.92 61.79 C 32.06 62.12 32.34 62.78 32.48 63.11 C 37.03 64.22 41.58 65.79 45.25 68.80 C 47.78 70.38 46.55 73.76 46.95 76.21 C 46.76 75.64 46.38 74.52 46.19 73.96 C 45.26 72.27 44.18 70.35 42.12 69.91 C 36.90 68.46 31.53 67.45 26.11 67.14 C 25.92 66.79 25.54 66.08 25.34 65.73 C 26.10 61.43 26.16 57.05 26.23 52.70 C 25.70 52.65 24.64 52.54 24.11 52.48 C 23.86 52.08 23.35 51.28 23.10 50.89 Z" />
</g>
<g id="#e0bfa7fe">
<path fill="#e0bfa7" opacity="1.00" d=" M 23.10 50.89 C 23.35 51.28 23.86 52.08 24.11 52.48 C 24.64 52.54 25.70 52.65 26.23 52.70 C 26.16 57.05 26.10 61.43 25.34 65.73 C 23.97 63.67 23.30 61.27 22.79 58.88 C 22.54 56.21 22.73 53.53 23.10 50.89 Z" />
</g>
<g id="#dcb59bff">
<path fill="#dcb59b" opacity="1.00" d=" M 46.94 50.69 C 52.65 51.11 57.72 53.86 62.39 56.97 C 62.38 56.15 62.35 54.52 62.34 53.71 L 62.96 54.80 C 62.99 55.50 63.03 56.92 63.06 57.63 C 64.27 56.44 65.48 55.25 66.69 54.07 C 66.54 55.13 66.40 56.20 66.26 57.26 C 60.91 59.56 56.78 63.98 51.22 65.81 C 50.28 62.91 49.23 60.06 48.42 57.13 C 49.53 59.47 50.48 61.89 51.78 64.14 C 53.77 63.08 55.51 61.64 57.23 60.20 C 55.10 57.21 52.40 54.68 49.15 52.94 C 48.93 54.22 48.71 55.50 48.49 56.77 C 47.93 56.16 46.81 54.94 46.25 54.33 L 47.60 53.05 C 47.44 52.46 47.11 51.28 46.94 50.69 Z" />
</g>
<g id="#915b3eff">
<path fill="#915b3e" opacity="1.00" d=" M 49.15 52.94 C 52.40 54.68 55.10 57.21 57.23 60.20 C 55.51 61.64 53.77 63.08 51.78 64.14 C 50.48 61.89 49.53 59.47 48.42 57.13 L 48.49 56.77 C 48.71 55.50 48.93 54.22 49.15 52.94 Z" />
</g>
<g id="#d3ad96ff">
<path fill="#d3ad96" opacity="1.00" d=" M 85.54 56.54 C 88.04 53.29 92.27 53.25 96.00 53.18 C 95.47 54.56 94.94 55.93 94.42 57.31 C 94.77 57.16 95.47 56.88 95.82 56.74 C 95.14 58.55 92.73 60.64 94.42 62.51 C 97.38 66.59 102.30 70.24 101.80 75.86 C 100.87 83.72 97.40 91.29 92.27 97.30 C 87.63 102.38 80.66 104.13 75.53 108.57 C 72.02 111.75 67.18 112.19 62.67 111.63 C 60.86 111.40 59.07 111.02 57.28 110.63 C 54.35 114.59 49.79 117.29 47.67 121.82 C 47.29 124.90 48.52 127.96 48.75 131.03 C 48.41 131.24 47.72 131.65 47.38 131.85 C 47.16 132.01 46.71 132.33 46.49 132.49 C 46.18 133.51 45.89 134.53 45.61 135.56 L 45.56 135.74 C 45.12 133.86 45.25 131.91 45.18 129.99 C 46.72 129.11 46.01 127.14 45.03 126.14 L 44.20 124.81 C 44.35 123.34 44.55 121.89 44.84 120.45 C 50.01 117.62 52.42 112.06 55.72 107.49 C 58.54 108.58 61.47 110.40 64.61 109.67 C 67.70 109.06 69.11 105.91 70.90 103.67 C 68.95 101.21 65.86 99.31 65.26 96.04 C 68.37 96.44 71.81 97.49 74.74 95.84 C 77.73 94.43 77.61 90.69 77.95 87.89 C 80.68 87.77 83.41 87.65 86.14 87.47 C 85.50 87.33 84.23 87.05 83.59 86.92 C 84.84 86.78 86.09 86.63 87.34 86.47 L 88.04 86.36 C 91.85 85.01 94.02 80.96 95.37 77.39 C 97.28 71.50 93.01 66.46 90.45 61.58 C 89.38 59.41 87.38 57.99 85.54 56.54 Z" />
</g>
<g id="#c3977fff">
<path fill="#c3977f" opacity="1.00" d=" M 95.82 56.74 C 99.09 55.05 102.61 54.00 106.20 53.23 C 107.11 54.20 108.07 55.13 108.97 56.11 C 108.26 56.75 107.52 57.36 106.76 57.94 C 106.30 60.10 105.82 62.26 105.29 64.42 C 106.19 65.86 107.05 67.34 107.79 68.88 C 108.27 69.04 109.22 69.34 109.69 69.49 C 108.20 70.09 106.57 70.16 105.01 70.49 C 104.98 70.81 104.92 71.44 104.89 71.75 C 104.28 74.28 105.09 76.71 106.33 78.89 C 108.58 76.88 110.77 74.52 113.82 73.80 C 118.98 72.26 124.94 71.82 128.91 67.76 C 131.74 64.46 131.75 59.85 132.34 55.77 C 132.78 55.89 133.65 56.14 134.08 56.26 C 134.15 58.16 134.12 60.06 134.02 61.96 C 133.20 65.67 131.26 68.94 128.83 71.82 C 126.41 72.81 124.05 73.91 121.66 74.94 C 116.55 74.63 110.20 75.86 107.63 80.79 C 105.18 84.62 105.37 89.33 104.29 93.60 C 103.25 98.30 100.66 102.81 96.47 105.34 C 91.38 108.46 85.84 110.82 80.93 114.25 C 82.71 114.76 84.52 114.92 86.37 114.74 C 86.44 115.00 86.58 115.53 86.65 115.79 C 85.62 115.86 84.59 115.92 83.57 115.98 C 82.62 116.84 81.54 117.55 80.44 118.20 C 79.82 117.75 78.56 116.85 77.94 116.39 C 76.48 119.63 74.02 116.09 72.11 115.26 C 70.51 116.28 68.99 115.52 67.55 114.65 L 66.41 114.23 C 65.16 113.37 63.92 112.50 62.67 111.63 C 67.18 112.19 72.02 111.75 75.53 108.57 C 80.66 104.13 87.63 102.38 92.27 97.30 C 97.40 91.29 100.87 83.72 101.80 75.86 C 102.30 70.24 97.38 66.59 94.42 62.51 C 92.73 60.64 95.14 58.55 95.82 56.74 M 94.18 61.30 C 97.05 63.37 100.15 65.08 103.22 66.84 C 104.21 64.33 105.59 61.84 105.52 59.07 C 105.33 57.74 105.88 55.39 104.15 54.94 C 100.03 55.47 97.08 58.65 94.18 61.30 Z" />
</g>
<g id="#e4c2abff">
<path fill="#e4c2ab" opacity="1.00" d=" M 125.92 53.14 C 126.95 53.80 127.99 54.46 129.06 55.06 C 128.84 59.22 128.29 63.36 127.41 67.43 C 123.79 68.11 120.13 68.61 116.56 69.53 C 112.76 70.52 109.52 72.79 106.18 74.74 C 105.73 73.75 105.30 72.75 104.89 71.75 C 104.92 71.44 104.98 70.81 105.01 70.49 C 106.57 70.16 108.20 70.09 109.69 69.49 C 114.24 66.38 119.80 65.66 124.92 64.01 L 125.66 63.66 C 126.20 60.85 125.99 57.98 125.26 55.22 L 125.24 55.01 C 125.41 54.54 125.75 53.61 125.92 53.14 Z" />
</g>
<g id="#7d4a31ff">
<path fill="#7d4a31" opacity="1.00" d=" M 94.18 61.30 C 97.08 58.65 100.03 55.47 104.15 54.94 C 105.88 55.39 105.33 57.74 105.52 59.07 C 105.59 61.84 104.21 64.33 103.22 66.84 C 100.15 65.08 97.05 63.37 94.18 61.30 Z" />
</g>
<g id="#d2ae98ff">
<path fill="#d2ae98" opacity="1.00" d=" M 129.06 55.06 C 130.15 55.32 131.25 55.51 132.34 55.77 C 131.75 59.85 131.74 64.46 128.91 67.76 C 124.94 71.82 118.98 72.26 113.82 73.80 C 110.77 74.52 108.58 76.88 106.33 78.89 C 105.09 76.71 104.28 74.28 104.89 71.75 C 105.30 72.75 105.73 73.75 106.18 74.74 C 109.52 72.79 112.76 70.52 116.56 69.53 C 120.13 68.61 123.79 68.11 127.41 67.43 C 128.29 63.36 128.84 59.22 129.06 55.06 Z" />
</g>
<g id="#fbd8bfff">
<path fill="#fbd8bf" opacity="1.00" d=" M 125.26 55.22 C 125.99 57.98 126.20 60.85 125.66 63.66 L 124.92 64.01 C 124.74 61.08 124.36 58.09 125.26 55.22 Z" />
</g>
<g id="#c69c85ff">
<path fill="#c69c85" opacity="1.00" d=" M 26.11 67.14 C 31.53 67.45 36.90 68.46 42.12 69.91 C 44.18 70.35 45.26 72.27 46.19 73.96 C 42.72 72.98 39.11 71.92 35.50 72.88 C 32.33 71.04 28.57 69.98 26.11 67.14 Z" />
</g>
<g id="#b4866eff">
<path fill="#b4866e" opacity="1.00" d=" M 35.50 72.88 C 39.11 71.92 42.72 72.98 46.19 73.96 C 46.38 74.52 46.76 75.64 46.95 76.21 C 47.04 78.79 47.11 81.42 46.53 83.96 C 46.47 82.33 47.07 80.59 46.51 79.02 C 43.30 76.19 39.10 75.04 35.50 72.88 Z" />
</g>
<g id="#a97961ff">
<path fill="#a97961" opacity="1.00" d=" M 107.63 80.79 C 110.20 75.86 116.55 74.63 121.66 74.94 C 118.20 77.31 112.72 77.82 110.88 81.89 C 113.04 85.17 116.15 87.72 118.74 90.66 C 116.57 91.07 114.39 91.51 112.23 91.99 C 113.75 93.17 115.25 94.39 116.85 95.47 C 116.80 96.02 116.70 97.11 116.65 97.66 C 114.70 97.89 112.76 98.11 110.81 98.35 C 111.63 99.24 112.45 100.13 113.27 101.03 C 111.51 101.38 109.74 101.69 107.97 102.05 C 105.01 102.04 104.29 105.11 103.16 107.23 C 98.38 107.02 94.83 110.91 92.90 114.88 C 92.52 114.40 91.76 113.45 91.39 112.98 C 90.27 114.62 88.94 116.14 86.79 116.35 L 86.65 115.79 C 86.58 115.53 86.44 115.00 86.37 114.74 C 84.52 114.92 82.71 114.76 80.93 114.25 C 85.84 110.82 91.38 108.46 96.47 105.34 C 100.66 102.81 103.25 98.30 104.29 93.60 C 105.37 89.33 105.18 84.62 107.63 80.79 Z" />
</g>
<g id="#884931ff">
<path fill="#884931" opacity="1.00" d=" M 54.24 86.39 C 53.49 82.63 53.63 78.76 54.34 75.00 C 56.03 76.45 57.72 77.91 59.39 79.38 C 60.82 80.65 62.26 81.90 63.67 83.19 C 64.52 83.97 65.37 84.76 66.22 85.55 C 65.92 85.72 65.32 86.05 65.03 86.22 C 63.93 85.15 62.82 84.08 61.71 83.02 C 61.47 84.45 61.23 85.88 61.01 87.31 C 61.59 87.27 62.75 87.17 63.34 87.12 C 63.00 87.29 62.33 87.62 61.99 87.78 C 59.97 87.43 57.98 86.95 55.97 86.60 C 55.53 86.55 54.67 86.44 54.24 86.39 M 54.45 76.66 C 54.32 78.97 54.12 81.30 54.30 83.62 C 55.13 84.85 56.33 85.73 57.42 86.71 C 57.40 84.35 57.41 81.98 57.65 79.63 C 56.59 78.63 55.53 77.64 54.45 76.66 Z" />
</g>
<g id="#894938ff">
<path fill="#894938" opacity="1.00" d=" M 77.24 82.12 C 80.80 79.79 84.56 77.78 88.44 76.05 C 88.42 79.49 88.30 82.93 88.04 86.36 L 87.34 86.47 C 87.41 83.60 87.47 80.74 87.50 77.88 C 86.01 78.66 84.53 79.44 83.05 80.23 C 82.92 82.48 82.76 84.73 82.55 86.98 L 83.59 86.92 C 84.23 87.05 85.50 87.33 86.14 87.47 C 83.41 87.65 80.68 87.77 77.95 87.89 L 77.95 87.16 C 77.90 86.29 77.79 84.56 77.73 83.70 C 76.25 84.63 74.77 85.58 73.27 86.48 L 72.05 86.16 C 73.71 84.73 75.42 83.35 77.24 82.12 M 81.34 81.26 C 80.59 82.58 80.59 84.43 81.32 85.76 C 82.61 85.29 82.72 81.64 81.34 81.26 Z" />
</g>
<g id="#f3f3f1ff">
<path fill="#f3f3f1" opacity="1.00" d=" M 54.45 76.66 C 55.53 77.64 56.59 78.63 57.65 79.63 C 57.41 81.98 57.40 84.35 57.42 86.71 C 56.33 85.73 55.13 84.85 54.30 83.62 C 54.12 81.30 54.32 78.97 54.45 76.66 Z" />
</g>
<g id="#a28674ff">
<path fill="#a28674" opacity="1.00" d=" M 65.78 77.64 C 66.58 78.62 67.38 79.62 68.19 80.61 C 68.15 82.28 68.09 83.95 68.01 85.62 C 67.39 84.34 66.77 83.06 66.24 81.75 C 66.07 80.38 65.91 79.01 65.78 77.64 Z" />
</g>
<g id="#dbb5a0ff">
<path fill="#dbb5a0" opacity="1.00" d=" M 72.75 78.20 C 72.84 78.07 73.04 77.82 73.13 77.69 C 74.50 79.17 75.87 80.65 77.24 82.12 C 75.42 83.35 73.71 84.73 72.05 86.16 L 73.27 86.48 C 73.70 86.59 74.56 86.81 74.99 86.93 C 74.79 89.50 74.59 92.22 72.64 94.15 C 72.14 92.73 71.67 91.30 71.14 89.90 C 69.51 88.02 69.36 92.89 70.15 93.89 C 68.50 94.56 66.87 95.27 65.26 96.04 C 65.86 99.31 68.95 101.21 70.90 103.67 C 69.11 105.91 67.70 109.06 64.61 109.67 C 61.47 110.40 58.54 108.58 55.72 107.49 C 52.42 112.06 50.01 117.62 44.84 120.45 C 47.10 115.15 50.40 110.37 52.91 105.18 C 54.82 105.76 56.72 106.65 58.75 106.60 C 60.29 105.81 61.68 104.57 62.43 102.99 C 61.92 99.97 60.56 97.09 60.54 93.99 C 60.69 91.85 61.42 89.83 61.99 87.78 C 62.33 87.62 63.00 87.29 63.34 87.12 C 63.76 86.89 64.60 86.45 65.03 86.22 C 65.32 86.05 65.92 85.72 66.22 85.55 C 65.37 84.76 64.52 83.97 63.67 83.19 C 63.80 82.48 64.05 81.05 64.17 80.34 C 64.86 80.81 65.55 81.28 66.24 81.75 C 66.77 83.06 67.39 84.34 68.01 85.62 C 68.09 83.95 68.15 82.28 68.19 80.61 C 69.07 80.65 69.95 80.69 70.84 80.74 C 70.48 82.36 70.25 84.01 70.05 85.66 C 72.11 83.71 72.94 80.98 72.75 78.20 M 65.10 94.52 C 68.20 94.41 66.59 90.79 66.87 88.80 C 63.79 88.86 65.41 92.59 65.10 94.52 Z" />
</g>
<g id="#9f826fff">
<path fill="#9f826f" opacity="1.00" d=" M 72.75 78.20 C 72.94 80.98 72.11 83.71 70.05 85.66 C 70.25 84.01 70.48 82.36 70.84 80.74 C 71.32 80.11 72.27 78.83 72.75 78.20 Z" />
</g>
<g id="#e4e2dfff">
<path fill="#e4e2df" opacity="1.00" d=" M 83.05 80.23 C 84.53 79.44 86.01 78.66 87.50 77.88 C 87.47 80.74 87.41 83.60 87.34 86.47 C 86.09 86.63 84.84 86.78 83.59 86.92 L 82.55 86.98 C 82.76 84.73 82.92 82.48 83.05 80.23 Z" />
</g>
<g id="#bb4e2cff">
<path fill="#bb4e2c" opacity="1.00" d=" M 81.34 81.26 C 82.72 81.64 82.61 85.29 81.32 85.76 C 80.59 84.43 80.59 82.58 81.34 81.26 Z" />
</g>
<g id="#d5d3d0ff">
<path fill="#d5d3d0" opacity="1.00" d=" M 61.01 87.31 C 61.23 85.88 61.47 84.45 61.71 83.02 C 62.82 84.08 63.93 85.15 65.03 86.22 C 64.60 86.45 63.76 86.89 63.34 87.12 C 62.75 87.17 61.59 87.27 61.01 87.31 Z" />
</g>
<g id="#d6d2cfff">
<path fill="#d6d2cf" opacity="1.00" d=" M 73.27 86.48 C 74.77 85.58 76.25 84.63 77.73 83.70 C 77.79 84.56 77.90 86.29 77.95 87.16 C 77.21 87.10 75.73 86.98 74.99 86.93 C 74.56 86.81 73.70 86.59 73.27 86.48 Z" />
</g>
<g id="#edccb3ff">
<path fill="#edccb3" opacity="1.00" d=" M 55.97 86.60 C 57.98 86.95 59.97 87.43 61.99 87.78 C 61.42 89.83 60.69 91.85 60.54 93.99 C 60.56 97.09 61.92 99.97 62.43 102.99 C 61.68 104.57 60.29 105.81 58.75 106.60 C 56.72 106.65 54.82 105.76 52.91 105.18 C 50.40 110.37 47.10 115.15 44.84 120.45 C 44.55 121.89 44.35 123.34 44.20 124.81 C 43.70 124.13 43.20 123.45 42.69 122.79 C 41.82 115.63 48.09 110.38 50.23 104.01 C 50.83 102.39 50.08 100.91 49.25 99.54 C 52.30 95.66 53.15 90.62 55.97 86.60 Z" />
</g>
<g id="#b98a80ff">
<path fill="#b98a80" opacity="1.00" d=" M 74.99 86.93 C 75.73 86.98 77.21 87.10 77.95 87.16 L 77.95 87.89 C 77.61 90.69 77.73 94.43 74.74 95.84 C 71.81 97.49 68.37 96.44 65.26 96.04 C 66.87 95.27 68.50 94.56 70.15 93.89 L 70.56 93.73 C 71.04 92.50 71.24 91.22 71.14 89.90 C 71.67 91.30 72.14 92.73 72.64 94.15 C 74.59 92.22 74.79 89.50 74.99 86.93 Z" />
</g>
<g id="#755c59ff">
<path fill="#755c59" opacity="1.00" d=" M 65.10 94.52 C 65.41 92.59 63.79 88.86 66.87 88.80 C 66.59 90.79 68.20 94.41 65.10 94.52 Z" />
</g>
<g id="#483a36ff">
<path fill="#483a36" opacity="1.00" d=" M 70.15 93.89 C 69.36 92.89 69.51 88.02 71.14 89.90 C 71.24 91.22 71.04 92.50 70.56 93.73 L 70.15 93.89 Z" />
</g>
<g id="#c29a82ff">
<path fill="#c29a82" opacity="1.00" d=" M 103.16 107.23 C 104.29 105.11 105.01 102.04 107.97 102.05 C 106.68 104.13 104.27 106.22 105.28 108.94 C 107.06 113.80 108.16 118.89 110.30 123.62 C 110.86 125.78 110.48 128.06 110.71 130.27 C 110.15 128.11 109.48 125.99 108.91 123.85 C 108.46 125.78 108.23 128.06 105.98 128.70 C 105.88 124.89 106.29 120.92 104.63 117.35 C 103.65 114.98 101.96 112.13 99.16 111.87 C 97.06 112.98 95.27 114.57 93.40 116.00 L 92.92 116.38 L 92.90 114.88 C 94.83 110.91 98.38 107.02 103.16 107.23 Z" />
</g>
<g id="#ad7c63fe">
<path fill="#ad7c63" opacity="1.00" d=" M 57.28 110.63 C 59.07 111.02 60.86 111.40 62.67 111.63 C 63.92 112.50 65.16 113.37 66.41 114.23 L 67.51 115.16 C 63.67 114.10 60.74 117.41 57.16 118.09 C 55.60 118.77 53.38 118.49 52.41 120.07 C 52.64 123.06 53.54 126.04 53.02 129.04 C 51.90 130.32 50.63 132.91 48.75 131.03 C 48.52 127.96 47.29 124.90 47.67 121.82 C 49.79 117.29 54.35 114.59 57.28 110.63 Z" />
</g>
<g id="#d1aa93ff">
<path fill="#d1aa93" opacity="1.00" d=" M 93.40 116.00 C 95.27 114.57 97.06 112.98 99.16 111.87 C 101.96 112.13 103.65 114.98 104.63 117.35 C 106.29 120.92 105.88 124.89 105.98 128.70 C 106.09 131.01 106.39 133.31 106.68 135.60 C 106.36 135.63 105.72 135.67 105.40 135.70 C 104.93 134.76 104.49 133.81 104.07 132.85 C 102.84 129.98 102.61 126.74 101.11 123.99 C 98.60 121.28 95.65 118.97 93.40 116.00 Z" />
</g>
<g id="#ad7f6eff">
<path fill="#ad7f6e" opacity="1.00" d=" M 108.91 123.85 C 109.48 125.99 110.15 128.11 110.71 130.27 C 110.81 130.73 111.00 131.64 111.10 132.10 C 111.02 132.58 110.87 133.55 110.80 134.03 C 109.45 134.62 108.08 135.16 106.68 135.60 C 106.39 133.31 106.09 131.01 105.98 128.70 C 108.23 128.06 108.46 125.78 108.91 123.85 Z" />
</g>
<g id="#f3c9abff">
<path fill="#f3c9ab" opacity="1.00" d=" M 45.03 126.14 C 46.01 127.14 46.72 129.11 45.18 129.99 C 44.33 128.72 44.28 127.44 45.03 126.14 Z" />
</g>
<g id="#a17154ff">
<path fill="#a17154" opacity="1.00" d=" M 48.75 131.03 C 50.63 132.91 51.90 130.32 53.02 129.04 C 52.47 131.82 52.04 134.62 51.71 137.44 C 55.06 136.62 58.56 135.22 61.99 136.57 C 64.71 137.08 65.65 141.84 62.77 142.81 C 60.29 143.22 58.00 140.71 55.55 141.63 C 51.24 144.44 49.52 149.55 46.73 153.64 C 45.55 155.44 43.33 155.99 41.32 156.22 C 43.86 151.49 48.17 147.58 49.33 142.20 C 48.67 138.75 46.67 135.48 47.38 131.85 C 47.72 131.65 48.41 131.24 48.75 131.03 Z" />
</g>
<g id="#bb8762ff">
<path fill="#bb8762" opacity="1.00" d=" M 46.49 132.49 C 46.71 132.33 47.16 132.01 47.38 131.85 C 46.67 135.48 48.67 138.75 49.33 142.20 C 48.17 147.58 43.86 151.49 41.32 156.22 C 40.91 156.34 40.09 156.59 39.67 156.71 C 39.64 152.65 42.46 149.67 43.79 146.09 C 43.76 145.65 43.71 144.77 43.69 144.33 C 42.93 144.17 41.42 143.84 40.66 143.68 C 42.50 141.11 47.05 139.38 45.61 135.56 C 45.89 134.53 46.18 133.51 46.49 132.49 Z" />
</g>
<g id="#936245ff">
<path fill="#936245" opacity="1.00" d=" M 111.10 132.10 C 111.43 134.48 111.66 136.88 111.88 139.28 C 111.16 139.51 109.71 139.98 108.98 140.22 C 108.26 139.24 107.53 138.27 106.80 137.30 C 106.69 137.46 106.47 137.79 106.36 137.95 C 104.23 137.96 102.11 137.89 99.98 137.90 C 101.82 137.54 103.70 136.92 105.59 137.51 C 105.07 135.96 104.57 134.40 104.07 132.85 C 104.49 133.81 104.93 134.76 105.40 135.70 C 105.72 135.67 106.36 135.63 106.68 135.60 C 108.08 135.16 109.45 134.62 110.80 134.03 C 110.87 133.55 111.02 132.58 111.10 132.10 Z" />
</g>
<g id="#c09069ff">
<path fill="#c09069" opacity="1.00" d=" M 106.36 137.95 C 106.47 137.79 106.69 137.46 106.80 137.30 C 107.53 138.27 108.26 139.24 108.98 140.22 C 108.70 143.07 106.45 147.31 110.28 148.55 C 112.55 149.95 112.77 152.73 112.43 155.11 C 111.15 157.30 108.17 156.59 106.16 156.03 C 102.63 152.61 105.58 147.42 104.66 143.25 C 102.50 143.06 100.30 145.13 98.28 143.65 C 97.55 142.29 97.92 140.75 98.00 139.30 L 98.38 139.32 C 100.71 139.42 103.04 139.54 105.38 139.45 C 105.62 139.07 106.11 138.33 106.36 137.95 M 105.40 147.47 C 104.78 149.07 104.58 151.15 105.46 152.69 C 107.07 152.09 106.61 148.32 105.40 147.47 Z" />
</g>
<g id="#e2a876ff">
<path fill="#e2a876" opacity="1.00" d=" M 98.38 139.32 C 98.78 138.96 99.58 138.25 99.98 137.90 C 102.11 137.89 104.23 137.96 106.36 137.95 C 106.11 138.33 105.62 139.07 105.38 139.45 C 103.04 139.54 100.71 139.42 98.38 139.32 Z" />
</g>
<g id="#a87858fe">
<path fill="#a87858" opacity="1.00" d=" M 108.98 140.22 C 109.71 139.98 111.16 139.51 111.88 139.28 C 115.96 142.00 118.85 146.91 123.90 147.85 C 122.42 147.74 120.87 147.17 119.41 147.60 C 117.97 148.51 116.78 149.77 115.53 150.91 C 113.93 149.81 112.17 148.99 110.28 148.55 C 106.45 147.31 108.70 143.07 108.98 140.22 Z" />
</g>
<g id="#a67656ff">
<path fill="#a67656" opacity="1.00" d=" M 39.82 143.50 L 40.66 143.68 C 41.42 143.84 42.93 144.17 43.69 144.33 C 43.71 144.77 43.76 145.65 43.79 146.09 C 41.73 147.65 39.64 149.16 37.48 150.58 C 37.28 151.75 37.07 152.93 36.93 154.12 C 35.01 154.32 33.09 154.52 31.16 154.66 L 31.26 154.45 C 32.31 152.51 33.12 150.32 34.81 148.84 C 36.34 148.10 38.03 147.78 39.65 147.32 C 39.68 146.60 39.75 145.14 39.78 144.42 L 39.82 143.50 Z" />
</g>
<g id="#c09368ff">
<path fill="#c09368" opacity="1.00" d=" M 30.02 147.90 C 33.39 147.01 37.14 147.05 39.78 144.42 C 39.75 145.14 39.68 146.60 39.65 147.32 C 38.03 147.78 36.34 148.10 34.81 148.84 C 33.12 150.32 32.31 152.51 31.26 154.45 C 27.72 153.80 28.72 150.12 30.02 147.90 Z" />
</g>
<g id="#c6956eff">
<path fill="#c6956e" opacity="1.00" d=" M 43.79 146.09 C 42.46 149.67 39.64 152.65 39.67 156.71 C 38.11 156.29 37.20 155.43 36.93 154.12 C 37.07 152.93 37.28 151.75 37.48 150.58 C 39.64 149.16 41.73 147.65 43.79 146.09 Z" />
</g>
<g id="#dba378ff">
<path fill="#dba378" opacity="1.00" d=" M 105.40 147.47 C 106.61 148.32 107.07 152.09 105.46 152.69 C 104.58 151.15 104.78 149.07 105.40 147.47 Z" />
</g>
<g id="#bb8a65ff">
<path fill="#bb8a65" opacity="1.00" d=" M 119.41 147.60 C 120.87 147.17 122.42 147.74 123.90 147.85 L 124.98 148.01 C 126.82 149.56 128.86 152.67 126.70 154.79 C 122.44 156.77 118.35 153.94 115.53 150.91 C 116.78 149.77 117.97 148.51 119.41 147.60 Z" />
</g>
</svg>
