<?xml version="1.0" encoding="UTF-8" ?>
<!DOCTYPE svg PUBLIC "-//W3C//DTD SVG 1.1//EN" "http://www.w3.org/Graphics/SVG/1.1/DTD/svg11.dtd">
<svg width="163pt" height="166pt" viewBox="0 0 163 166" version="1.1" xmlns="http://www.w3.org/2000/svg">
<g id="#fee7beff">
<path fill="#fee7be" opacity="1.00" d=" M 96.61 0.40 C 98.38 3.72 99.26 7.47 101.29 10.64 L 102.11 11.81 C 100.16 12.67 98.13 12.59 96.28 11.53 C 95.04 13.56 93.77 15.58 92.63 17.67 C 90.85 15.98 89.22 13.72 89.51 11.13 C 90.07 9.59 90.99 8.22 91.87 6.85 C 93.39 4.66 95.06 2.58 96.61 0.40 Z" />
</g>
<g id="#edccb4ff">
<path fill="#edccb4" opacity="1.00" d=" M 87.35 1.63 C 88.03 4.48 88.38 7.38 89.00 10.24 C 89.72 9.39 91.15 7.70 91.87 6.85 C 90.99 8.22 90.07 9.59 89.51 11.13 C 89.22 13.72 90.85 15.98 92.63 17.67 C 92.10 20.96 91.96 24.31 91.06 27.52 C 86.99 34.33 89.94 42.12 91.91 49.07 C 93.38 51.68 96.98 53.46 96.00 56.99 C 95.92 60.64 92.89 62.95 89.52 63.45 C 89.85 63.87 90.18 64.28 90.51 64.70 C 86.96 65.91 83.55 67.47 80.30 69.33 C 75.11 72.41 68.89 72.72 63.49 75.30 C 62.50 74.62 61.50 73.95 60.49 73.29 C 65.76 69.33 71.33 65.66 76.20 61.23 C 78.34 56.26 77.98 50.63 77.58 45.35 C 77.49 43.15 75.61 40.53 73.15 41.21 C 68.91 42.61 65.64 45.97 61.37 47.34 C 57.98 48.47 54.56 49.71 51.77 52.02 C 50.85 48.20 51.61 44.37 52.88 40.73 C 53.00 42.27 53.25 45.44 55.60 44.60 C 60.27 43.12 65.51 41.76 68.62 37.66 C 73.15 32.46 78.13 27.07 79.33 20.02 C 78.12 17.01 76.85 13.94 76.86 10.64 L 77.06 9.20 C 78.60 10.34 80.09 11.55 81.56 12.78 C 82.56 10.77 83.65 8.78 85.31 7.23 C 86.29 5.51 86.62 3.47 87.35 1.63 Z" />
</g>
<g id="#ffdbb6ff">
<path fill="#ffdbb6" opacity="1.00" d=" M 106.01 7.99 C 106.48 7.64 107.41 6.94 107.87 6.59 C 108.35 7.76 108.83 8.93 109.33 10.09 C 110.44 9.09 111.54 8.09 112.65 7.09 C 113.81 9.34 114.97 11.60 116.14 13.85 C 112.33 14.58 109.03 16.64 105.97 18.92 L 105.92 17.62 C 105.66 14.82 106.27 11.65 104.40 9.28 C 104.93 8.84 105.47 8.41 106.01 7.99 Z" />
</g>
<g id="#e0bba1ff">
<path fill="#e0bba1" opacity="1.00" d=" M 101.29 10.64 C 102.82 9.68 104.38 8.77 106.01 7.99 C 105.47 8.41 104.93 8.84 104.40 9.28 C 106.27 11.65 105.66 14.82 105.92 17.62 C 103.44 20.05 101.34 22.84 99.84 25.97 C 104.82 22.25 110.31 19.28 115.22 15.46 C 115.90 15.73 116.59 16.00 117.27 16.28 C 118.18 15.87 119.09 15.47 120.01 15.07 C 121.19 18.11 122.57 21.11 124.66 23.65 C 122.92 24.95 121.09 26.13 119.26 27.30 C 118.28 23.63 117.69 19.37 114.53 16.86 C 114.51 18.42 114.54 19.99 114.59 21.55 C 110.83 19.57 107.72 22.89 105.00 25.11 C 102.58 27.18 100.89 29.92 99.05 32.49 C 98.88 32.59 98.54 32.78 98.37 32.88 C 94.92 33.73 97.24 37.44 99.01 38.89 C 103.12 41.22 107.77 42.48 112.41 43.24 C 112.05 44.22 111.69 45.19 111.30 46.15 C 110.12 48.55 107.42 47.48 105.33 47.54 C 107.20 50.48 110.59 49.96 113.02 48.08 L 113.11 49.04 C 112.86 52.40 115.33 54.59 118.37 55.35 C 117.82 55.58 116.72 56.04 116.17 56.27 C 114.46 55.27 112.18 54.04 110.32 55.40 C 108.19 56.78 108.60 59.66 109.33 61.72 C 109.96 60.18 110.22 58.44 111.20 57.07 C 112.70 55.58 114.72 57.55 116.38 57.80 C 116.56 62.37 114.57 66.64 112.66 70.67 C 112.07 72.46 110.14 72.93 108.64 73.69 C 107.87 74.98 107.13 76.29 106.43 77.63 C 106.35 75.37 106.22 73.11 106.18 70.84 C 107.14 70.38 108.08 69.90 109.01 69.39 C 108.08 69.60 107.17 69.85 106.26 70.11 C 105.75 69.72 104.72 68.94 104.21 68.56 C 105.84 66.58 107.67 64.76 109.03 62.58 C 108.59 60.44 107.66 58.45 106.93 56.40 C 108.93 52.36 104.84 48.77 100.90 49.16 C 101.44 48.62 101.98 48.08 102.53 47.54 C 98.93 45.32 95.31 42.67 93.37 38.81 C 92.26 35.12 92.03 31.24 91.06 27.52 C 91.96 24.31 92.10 20.96 92.63 17.67 C 93.77 15.58 95.04 13.56 96.28 11.53 C 98.13 12.59 100.16 12.67 102.11 11.81 L 101.29 10.64 Z" />
</g>
<g id="#f1c7a6ff">
<path fill="#f1c7a6" opacity="1.00" d=" M 116.14 13.85 C 119.59 12.40 122.80 10.37 126.35 9.07 C 126.55 12.35 126.86 15.62 127.24 18.89 C 128.61 18.38 129.98 17.89 131.37 17.43 L 130.47 18.86 C 128.59 20.52 126.65 22.11 124.66 23.65 C 122.57 21.11 121.19 18.11 120.01 15.07 C 119.09 15.47 118.18 15.87 117.27 16.28 C 116.59 16.00 115.90 15.73 115.22 15.46 C 110.31 19.28 104.82 22.25 99.84 25.97 C 101.34 22.84 103.44 20.05 105.92 17.62 L 105.97 18.92 C 109.03 16.64 112.33 14.58 116.14 13.85 Z" />
</g>
<g id="#e5bfa4ff">
<path fill="#e5bfa4" opacity="1.00" d=" M 76.84 10.29 L 76.86 10.64 C 76.85 13.94 78.12 17.01 79.33 20.02 C 78.13 27.07 73.15 32.46 68.62 37.66 C 65.51 41.76 60.27 43.12 55.60 44.60 C 53.25 45.44 53.00 42.27 52.88 40.73 C 53.19 38.29 51.52 36.50 50.03 34.81 C 50.02 36.19 50.03 37.56 50.07 38.93 C 48.82 30.76 45.30 23.17 44.34 14.93 C 50.57 15.81 57.05 17.05 62.49 20.40 C 61.32 21.32 60.25 22.35 59.18 23.37 C 56.17 21.81 52.88 20.90 49.47 20.90 L 48.38 20.77 C 48.72 22.30 49.06 23.83 49.45 25.35 C 50.34 29.18 52.36 32.60 54.16 36.06 L 54.17 36.30 C 54.20 36.81 54.27 37.83 54.30 38.34 C 54.35 38.96 54.45 40.20 54.50 40.82 C 59.73 41.07 65.26 39.39 68.39 34.94 C 68.17 31.62 68.17 28.29 68.72 25.00 C 73.38 23.10 73.88 17.59 75.51 13.47 C 75.93 12.40 76.37 11.34 76.84 10.29 Z" />
</g>
<g id="#ffebbdff">
<path fill="#ffebbd" opacity="1.00" d=" M 71.24 17.71 C 72.23 15.57 73.14 13.40 74.10 11.24 C 74.46 11.80 75.16 12.91 75.51 13.47 C 73.88 17.59 73.38 23.10 68.72 25.00 C 67.19 23.64 65.61 22.34 64.01 21.05 C 64.03 19.68 64.05 18.30 64.07 16.93 L 64.10 15.35 C 65.07 16.37 66.04 17.39 67.02 18.41 C 67.28 17.65 67.80 16.12 68.06 15.36 C 69.12 16.14 70.18 16.93 71.24 17.71 Z" />
</g>
<g id="#dfb394fe">
<path fill="#dfb394" opacity="1.00" d=" M 131.37 17.43 C 133.69 16.11 136.43 15.53 138.87 14.40 C 137.66 19.06 136.86 23.81 135.78 28.50 C 134.21 28.72 132.62 28.85 131.05 29.00 C 131.45 25.39 132.11 21.81 132.92 18.27 C 132.31 18.42 131.08 18.71 130.47 18.86 L 131.37 17.43 Z" />
</g>
<g id="#d3ae95ff">
<path fill="#d3ae95" opacity="1.00" d=" M 63.76 20.25 C 63.85 19.14 63.96 18.03 64.07 16.93 C 64.05 18.30 64.03 19.68 64.01 21.05 C 65.61 22.34 67.19 23.64 68.72 25.00 C 68.17 28.29 68.17 31.62 68.39 34.94 C 65.26 39.39 59.73 41.07 54.50 40.82 C 54.45 40.20 54.35 38.96 54.30 38.34 C 59.01 39.94 63.74 37.06 66.94 33.79 C 66.50 33.28 66.05 32.77 65.60 32.27 C 61.43 26.93 55.15 24.23 49.47 20.90 C 52.88 20.90 56.17 21.81 59.18 23.37 C 60.25 22.35 61.32 21.32 62.49 20.40 L 63.76 20.25 Z" />
</g>
<g id="#b48271ff">
<path fill="#b48271" opacity="1.00" d=" M 114.53 16.86 C 117.69 19.37 118.28 23.63 119.26 27.30 C 119.92 30.66 120.49 34.04 121.05 37.41 C 118.39 38.07 115.28 38.27 113.83 35.45 C 115.67 35.30 117.49 34.90 119.31 34.60 C 119.12 33.17 118.93 31.74 118.75 30.31 C 118.05 30.80 117.35 31.29 116.65 31.78 C 115.63 28.49 114.23 25.29 112.08 22.57 C 109.40 25.49 107.24 28.83 104.77 31.94 C 104.13 31.43 103.50 30.92 102.87 30.40 C 101.94 31.72 100.83 32.80 99.05 32.49 C 100.89 29.92 102.58 27.18 105.00 25.11 C 107.72 22.89 110.83 19.57 114.59 21.55 C 114.54 19.99 114.51 18.42 114.53 16.86 Z" />
</g>
<g id="#cda58eff">
<path fill="#cda58e" opacity="1.00" d=" M 130.47 18.86 C 131.08 18.71 132.31 18.42 132.92 18.27 C 132.11 21.81 131.45 25.39 131.05 29.00 C 132.62 28.85 134.21 28.72 135.78 28.50 C 138.85 27.58 141.38 25.47 144.07 23.81 C 143.22 25.63 142.39 27.46 141.55 29.29 C 141.01 30.54 140.67 31.86 140.32 33.17 C 140.06 31.69 139.77 30.21 139.47 28.73 C 135.94 33.50 130.14 35.99 126.95 41.08 C 125.44 42.71 125.58 44.97 125.61 47.02 C 125.90 53.50 123.30 59.75 124.08 66.25 C 123.73 66.63 123.04 67.40 122.69 67.78 C 119.59 69.74 118.70 73.38 117.37 76.54 C 115.96 78.95 114.52 81.35 113.36 83.90 C 111.31 85.33 109.21 86.68 107.05 87.95 C 104.11 86.10 100.79 85.02 97.34 84.60 C 96.95 84.09 96.16 83.06 95.76 82.55 C 98.70 81.90 101.64 81.27 104.52 80.40 L 105.84 80.03 L 106.02 79.63 C 106.17 78.97 106.31 78.30 106.43 77.63 C 107.13 76.29 107.87 74.98 108.64 73.69 C 110.14 72.93 112.07 72.46 112.66 70.67 C 114.57 66.64 116.56 62.37 116.38 57.80 C 116.33 57.42 116.22 56.65 116.17 56.27 C 116.72 56.04 117.82 55.58 118.37 55.35 C 116.53 53.21 114.73 50.92 114.71 47.95 C 114.31 48.22 113.51 48.77 113.11 49.04 L 113.02 48.08 C 112.96 47.20 112.83 45.44 112.77 44.55 C 112.40 44.95 111.67 45.75 111.30 46.15 C 111.69 45.19 112.05 44.22 112.41 43.24 C 107.77 42.48 103.12 41.22 99.01 38.89 C 97.24 37.44 94.92 33.73 98.37 32.88 C 100.75 37.64 106.33 38.27 111.00 39.07 C 114.27 39.58 117.61 39.48 120.90 39.12 C 120.94 38.69 121.02 37.84 121.05 37.41 C 120.49 34.04 119.92 30.66 119.26 27.30 C 121.09 26.13 122.92 24.95 124.66 23.65 C 126.65 22.11 128.59 20.52 130.47 18.86 Z" />
</g>
<g id="#a86f63ff">
<path fill="#a86f63" opacity="1.00" d=" M 48.38 20.77 L 49.47 20.90 C 55.15 24.23 61.43 26.93 65.60 32.27 C 64.23 32.21 62.87 32.14 61.51 32.07 C 61.49 32.42 61.45 33.11 61.43 33.46 C 59.70 33.82 57.97 34.18 56.24 34.55 C 56.06 35.02 55.71 35.96 55.53 36.43 C 55.19 36.40 54.51 36.33 54.17 36.30 L 54.16 36.06 C 55.42 31.67 51.30 27.99 50.35 23.85 C 50.12 24.23 49.68 24.97 49.45 25.35 C 49.06 23.83 48.72 22.30 48.38 20.77 Z" />
</g>
<g id="#9a6155ff">
<path fill="#9a6155" opacity="1.00" d=" M 104.77 31.94 C 107.24 28.83 109.40 25.49 112.08 22.57 C 114.23 25.29 115.63 28.49 116.65 31.78 C 117.35 31.29 118.05 30.80 118.75 30.31 C 118.93 31.74 119.12 33.17 119.31 34.60 C 117.49 34.90 115.67 35.30 113.83 35.45 L 113.04 34.66 C 110.65 33.87 108.18 33.33 105.80 32.52 C 105.54 32.37 105.03 32.08 104.77 31.94 Z" />
</g>
<g id="#835853ff">
<path fill="#835853" opacity="1.00" d=" M 49.45 25.35 C 49.68 24.97 50.12 24.23 50.35 23.85 C 51.30 27.99 55.42 31.67 54.16 36.06 C 52.36 32.60 50.34 29.18 49.45 25.35 Z" />
</g>
<g id="#e3c3adff">
<path fill="#e3c3ad" opacity="1.00" d=" M 91.91 49.07 C 89.94 42.12 86.99 34.33 91.06 27.52 C 92.03 31.24 92.26 35.12 93.37 38.81 C 95.31 42.67 98.93 45.32 102.53 47.54 C 101.98 48.08 101.44 48.62 100.90 49.16 C 102.94 50.19 105.58 50.70 106.67 52.95 C 106.88 55.20 105.47 57.10 104.60 59.05 C 105.39 58.18 106.17 57.30 106.93 56.40 C 107.66 58.45 108.59 60.44 109.03 62.58 C 107.67 64.76 105.84 66.58 104.21 68.56 C 104.72 68.94 105.75 69.72 106.26 70.11 C 104.70 70.72 103.17 71.41 101.66 72.15 C 100.48 71.57 99.36 70.24 97.92 70.95 C 89.81 73.28 81.32 73.81 73.16 75.97 C 72.64 77.49 72.13 79.01 71.61 80.53 C 68.85 78.87 66.13 77.15 63.49 75.30 C 68.89 72.72 75.11 72.41 80.30 69.33 C 83.55 67.47 86.96 65.91 90.51 64.70 C 90.18 64.28 89.85 63.87 89.52 63.45 C 92.89 62.95 95.92 60.64 96.00 56.99 C 96.98 53.46 93.38 51.68 91.91 49.07 Z" />
</g>
<g id="#bc9179ff">
<path fill="#bc9179" opacity="1.00" d=" M 126.95 41.08 C 130.14 35.99 135.94 33.50 139.47 28.73 C 139.77 30.21 140.06 31.69 140.32 33.17 C 140.30 33.54 140.24 34.27 140.21 34.64 C 141.47 34.56 142.74 34.48 144.00 34.41 C 142.77 36.77 141.44 39.09 140.04 41.35 C 140.52 41.80 140.99 42.24 141.47 42.69 C 141.79 42.36 142.43 41.70 142.75 41.37 L 142.44 42.65 C 145.03 42.43 147.63 42.28 150.22 42.12 C 149.67 42.96 148.56 44.63 148.00 45.47 C 148.77 45.62 150.32 45.93 151.10 46.08 C 150.24 46.03 148.52 45.92 147.66 45.87 C 148.03 44.87 148.39 43.86 148.76 42.86 C 146.86 43.06 144.97 43.25 143.07 43.45 C 144.44 43.80 145.81 44.14 147.18 44.49 C 146.43 46.39 145.66 48.29 144.85 50.17 C 142.15 48.31 139.18 46.92 136.29 45.40 C 135.26 46.93 134.01 48.38 133.41 50.15 C 133.36 51.50 134.38 52.63 134.86 53.84 C 134.99 54.11 135.25 54.65 135.38 54.92 C 134.39 55.36 133.40 55.81 132.42 56.27 C 129.90 57.21 128.26 59.33 129.00 62.11 C 128.95 62.92 128.85 63.74 128.63 64.53 C 127.09 65.03 125.58 65.64 124.08 66.25 C 123.30 59.75 125.90 53.50 125.61 47.02 C 125.58 44.97 125.44 42.71 126.95 41.08 Z" />
</g>
<g id="#d3ad91ff">
<path fill="#d3ad91" opacity="1.00" d=" M 140.32 33.17 C 140.67 31.86 141.01 30.54 141.55 29.29 C 141.70 29.76 141.99 30.71 142.14 31.19 C 143.92 30.98 145.71 30.86 147.50 30.81 C 148.26 31.22 149.76 32.06 150.52 32.47 C 147.96 35.46 145.50 38.55 142.75 41.37 C 142.43 41.70 141.79 42.36 141.47 42.69 C 140.99 42.24 140.52 41.80 140.04 41.35 C 141.44 39.09 142.77 36.77 144.00 34.41 C 142.74 34.48 141.47 34.56 140.21 34.64 C 140.24 34.27 140.30 33.54 140.32 33.17 Z" />
</g>
<g id="#bf927aff">
<path fill="#bf927a" opacity="1.00" d=" M 102.87 30.40 C 103.50 30.92 104.13 31.43 104.77 31.94 C 105.03 32.08 105.54 32.37 105.80 32.52 C 108.18 33.33 110.65 33.87 113.04 34.66 L 113.83 35.45 C 115.28 38.27 118.39 38.07 121.05 37.41 C 121.02 37.84 120.94 38.69 120.90 39.12 C 117.61 39.48 114.27 39.58 111.00 39.07 C 106.33 38.27 100.75 37.64 98.37 32.88 C 98.54 32.78 98.88 32.59 99.05 32.49 C 100.83 32.80 101.94 31.72 102.87 30.40 Z" />
</g>
<g id="#ca9a7fff">
<path fill="#ca9a7f" opacity="1.00" d=" M 61.51 32.07 C 62.87 32.14 64.23 32.21 65.60 32.27 C 66.05 32.77 66.50 33.28 66.94 33.79 C 63.74 37.06 59.01 39.94 54.30 38.34 C 54.27 37.83 54.20 36.81 54.17 36.30 C 54.51 36.33 55.19 36.40 55.53 36.43 C 55.71 35.96 56.06 35.02 56.24 34.55 C 57.97 34.18 59.70 33.82 61.43 33.46 C 61.45 33.11 61.49 32.42 61.51 32.07 Z" />
</g>
<g id="#fed5aeff">
<path fill="#fed5ae" opacity="1.00" d=" M 50.03 34.81 C 51.52 36.50 53.19 38.29 52.88 40.73 C 51.61 44.37 50.85 48.20 51.77 52.02 C 49.03 55.37 49.30 59.95 48.84 64.01 C 48.42 67.99 48.95 71.97 49.19 75.94 C 48.74 75.44 47.86 74.46 47.42 73.97 C 46.67 72.72 46.41 71.10 45.30 70.11 C 42.86 68.34 40.16 66.96 37.56 65.43 C 39.45 63.65 41.18 61.67 43.29 60.14 C 45.37 59.56 46.28 56.65 43.59 56.27 C 42.72 55.96 40.98 55.35 40.11 55.04 C 41.98 53.28 43.84 51.53 45.76 49.83 C 45.22 47.42 44.70 45.00 44.18 42.59 C 46.30 42.71 48.43 42.84 50.56 42.99 C 50.37 41.64 50.21 40.28 50.07 38.93 C 50.03 37.56 50.02 36.19 50.03 34.81 Z" />
</g>
<g id="#f8d8bfff">
<path fill="#f8d8bf" opacity="1.00" d=" M 61.37 47.34 C 65.64 45.97 68.91 42.61 73.15 41.21 C 75.61 40.53 77.49 43.15 77.58 45.35 C 77.98 50.63 78.34 56.26 76.20 61.23 C 71.33 65.66 65.76 69.33 60.49 73.29 C 58.37 71.96 56.25 70.63 54.23 69.15 C 56.70 71.65 56.70 75.20 57.27 78.44 C 56.47 81.29 55.51 84.11 54.23 86.78 C 52.96 84.18 51.75 81.55 50.91 78.77 C 50.49 77.74 49.90 76.79 49.19 75.94 C 48.95 71.97 48.42 67.99 48.84 64.01 C 49.30 59.95 49.03 55.37 51.77 52.02 C 54.56 49.71 57.98 48.47 61.37 47.34 Z" />
</g>
<g id="#c8a38cf9">
<path fill="#c8a38c" opacity="0.98" d=" M 143.07 43.45 C 144.97 43.25 146.86 43.06 148.76 42.86 C 148.39 43.86 148.03 44.87 147.66 45.87 C 148.52 45.92 150.24 46.03 151.10 46.08 C 151.94 46.15 153.62 46.30 154.46 46.38 C 152.15 48.54 149.65 50.48 147.18 52.44 C 146.41 51.67 145.63 50.91 144.85 50.17 C 145.66 48.29 146.43 46.39 147.18 44.49 C 145.81 44.14 144.44 43.80 143.07 43.45 Z" />
</g>
<g id="#957969ff">
<path fill="#957969" opacity="1.00" d=" M 111.30 46.15 C 111.67 45.75 112.40 44.95 112.77 44.55 C 112.83 45.44 112.96 47.20 113.02 48.08 C 110.59 49.96 107.20 50.48 105.33 47.54 C 107.42 47.48 110.12 48.55 111.30 46.15 Z" />
</g>
<g id="#a77760ff">
<path fill="#a77760" opacity="1.00" d=" M 133.41 50.15 C 134.01 48.38 135.26 46.93 136.29 45.40 C 139.18 46.92 142.15 48.31 144.85 50.17 C 145.63 50.91 146.41 51.67 147.18 52.44 C 145.96 53.45 144.72 54.45 143.62 55.60 C 143.47 55.75 143.18 56.05 143.04 56.20 C 140.78 54.03 138.38 51.39 134.90 51.91 C 134.89 52.39 134.87 53.36 134.86 53.84 C 134.38 52.63 133.36 51.50 133.41 50.15 Z" />
</g>
<g id="#9b7d6bff">
<path fill="#9b7d6b" opacity="1.00" d=" M 113.11 49.04 C 113.51 48.77 114.31 48.22 114.71 47.95 C 114.73 50.92 116.53 53.21 118.37 55.35 C 115.33 54.59 112.86 52.40 113.11 49.04 Z" />
</g>
<g id="#2e221eff">
<path fill="#2e221e" opacity="1.00" d=" M 100.90 49.16 C 104.84 48.77 108.93 52.36 106.93 56.40 C 106.17 57.30 105.39 58.18 104.60 59.05 C 105.47 57.10 106.88 55.20 106.67 52.95 C 105.58 50.70 102.94 50.19 100.90 49.16 Z" />
<path fill="#2e221e" opacity="1.00" d=" M 139.24 66.57 C 142.25 66.10 145.39 66.00 148.28 67.13 C 150.44 68.87 152.17 71.06 153.73 73.34 C 153.79 77.66 151.76 81.62 151.71 85.87 C 150.43 80.83 148.59 75.86 145.17 71.84 C 143.43 69.83 141.38 68.13 139.24 66.57 Z" />
<path fill="#2e221e" opacity="1.00" d=" M 54.23 69.15 C 56.25 70.63 58.37 71.96 60.49 73.29 C 61.50 73.95 62.50 74.62 63.49 75.30 C 66.13 77.15 68.85 78.87 71.61 80.53 C 72.51 81.07 73.41 81.61 74.32 82.15 C 74.38 80.61 74.43 79.06 74.48 77.52 C 74.99 78.68 75.48 79.85 75.93 81.03 C 75.76 81.46 75.43 82.32 75.27 82.75 C 74.06 82.64 72.86 82.43 71.71 82.06 C 69.90 80.76 68.11 79.44 66.34 78.10 C 66.14 78.85 65.75 80.37 65.55 81.12 C 64.64 76.65 60.81 74.14 57.12 72.02 C 57.27 74.34 57.44 76.67 57.63 78.99 L 57.27 78.44 C 56.70 75.20 56.70 71.65 54.23 69.15 Z" />
<path fill="#2e221e" opacity="1.00" d=" M 106.26 70.11 C 107.17 69.85 108.08 69.60 109.01 69.39 C 108.08 69.90 107.14 70.38 106.18 70.84 C 106.22 73.11 106.35 75.37 106.43 77.63 C 106.31 78.30 106.17 78.97 106.02 79.63 L 105.84 80.03 C 105.59 77.32 105.08 74.63 104.28 72.03 C 101.33 73.49 98.45 75.09 95.62 76.78 C 95.80 78.46 95.98 80.14 96.14 81.82 C 98.90 81.14 101.69 80.65 104.52 80.40 C 101.64 81.27 98.70 81.90 95.76 82.55 C 94.16 82.90 92.56 83.26 90.94 83.53 C 90.65 83.41 90.07 83.16 89.78 83.03 C 91.85 82.81 93.90 82.29 95.68 81.19 C 95.10 80.44 93.93 78.93 93.35 78.18 C 91.45 79.52 89.56 80.87 87.59 82.11 C 86.75 82.42 85.91 82.70 85.05 82.95 C 84.72 82.81 84.04 82.52 83.70 82.38 C 83.36 81.91 82.69 80.98 82.35 80.51 C 82.61 79.30 82.86 78.10 83.10 76.89 C 83.55 78.71 84.11 80.51 84.73 82.28 C 90.25 78.71 95.75 75.05 101.66 72.15 C 103.17 71.41 104.70 70.72 106.26 70.11 Z" />
<path fill="#2e221e" opacity="1.00" d=" M 59.71 80.14 C 63.37 81.09 66.97 82.25 70.66 83.02 C 70.51 83.17 70.21 83.45 70.05 83.60 C 67.81 83.04 65.59 82.37 63.38 81.70 C 62.13 81.26 60.89 80.76 59.71 80.14 Z" />
<path fill="#2e221e" opacity="1.00" d=" M 75.26 93.66 C 74.85 92.01 74.55 90.25 75.18 88.61 C 75.85 90.32 76.44 92.06 77.00 93.81 C 76.57 93.77 75.70 93.70 75.26 93.66 Z" />
</g>
<g id="#7c442bff">
<path fill="#7c442b" opacity="1.00" d=" M 134.90 51.91 C 138.38 51.39 140.78 54.03 143.04 56.20 C 141.09 58.33 139.07 60.39 136.96 62.37 C 135.30 60.45 133.85 58.36 132.42 56.27 C 133.40 55.81 134.39 55.36 135.38 54.92 C 135.25 54.65 134.99 54.11 134.86 53.84 C 134.87 53.36 134.89 52.39 134.90 51.91 Z" />
</g>
<g id="#967c69ff">
<path fill="#967c69" opacity="1.00" d=" M 110.32 55.40 C 112.18 54.04 114.46 55.27 116.17 56.27 C 116.22 56.65 116.33 57.42 116.38 57.80 C 114.72 57.55 112.70 55.58 111.20 57.07 C 110.22 58.44 109.96 60.18 109.33 61.72 C 108.60 59.66 108.19 56.78 110.32 55.40 Z" />
</g>
<g id="#8b573cff">
<path fill="#8b573c" opacity="1.00" d=" M 143.04 56.20 C 143.18 56.05 143.47 55.75 143.62 55.60 C 143.70 55.76 143.86 56.08 143.95 56.25 C 145.08 58.57 146.38 60.81 147.59 63.10 C 144.87 63.48 142.21 64.19 139.66 65.21 C 138.74 64.28 137.83 63.34 136.96 62.37 C 139.07 60.39 141.09 58.33 143.04 56.20 Z" />
</g>
<g id="#a88663ee">
<path fill="#a88663" opacity="0.93" d=" M 43.59 56.27 C 46.28 56.65 45.37 59.56 43.29 60.14 C 42.64 59.00 43.29 57.42 43.59 56.27 Z" />
</g>
<g id="#ab7d66ff">
<path fill="#ab7d66" opacity="1.00" d=" M 129.00 62.11 C 128.26 59.33 129.90 57.21 132.42 56.27 C 133.85 58.36 135.30 60.45 136.96 62.37 C 137.83 63.34 138.74 64.28 139.66 65.21 C 142.21 64.19 144.87 63.48 147.59 63.10 C 147.87 64.43 148.07 65.78 148.28 67.13 C 145.39 66.00 142.25 66.10 139.24 66.57 C 136.25 64.11 132.34 62.69 128.63 64.53 C 128.85 63.74 128.95 62.92 129.00 62.11 Z" />
</g>
<g id="#bf9b85ff">
<path fill="#bf9b85" opacity="1.00" d=" M 143.95 56.25 C 147.06 58.28 150.20 60.28 153.32 62.30 C 153.36 62.65 153.44 63.34 153.48 63.69 C 153.19 63.99 152.62 64.58 152.33 64.88 C 151.32 65.67 149.51 65.70 148.91 66.90 C 151.65 68.06 152.65 70.80 153.73 73.34 C 152.17 71.06 150.44 68.87 148.28 67.13 C 148.07 65.78 147.87 64.43 147.59 63.10 C 146.38 60.81 145.08 58.57 143.95 56.25 Z" />
</g>
<g id="#c69771ff">
<path fill="#c69771" opacity="1.00" d=" M 14.08 64.19 C 18.11 62.25 22.45 60.87 26.96 60.86 C 27.60 61.18 28.87 61.82 29.50 62.14 C 27.10 65.67 22.90 66.32 19.01 67.00 C 17.64 66.62 16.76 69.34 18.33 69.53 C 20.12 70.69 22.11 71.45 24.19 71.87 C 23.75 72.22 22.87 72.91 22.43 73.26 C 22.88 73.93 23.33 74.59 23.78 75.26 C 21.78 82.18 20.09 89.32 16.60 95.68 C 15.44 98.16 12.82 99.26 10.52 100.42 C 10.45 101.12 10.38 101.82 10.32 102.53 C 9.15 101.78 7.80 101.24 6.84 100.20 C 4.56 94.12 3.30 87.46 4.90 81.04 C 4.59 85.55 4.53 90.13 5.49 94.57 C 7.04 90.11 5.79 85.31 6.87 80.77 C 7.60 77.76 8.25 74.69 7.99 71.57 L 7.99 71.35 C 9.87 68.86 11.29 65.80 14.08 64.19 Z" />
</g>
<g id="#ab7b59ff">
<path fill="#ab7b59" opacity="1.00" d=" M 29.50 62.14 C 31.64 63.04 33.68 64.20 35.11 66.08 C 35.63 65.86 36.66 65.42 37.17 65.20 L 37.56 65.43 C 40.16 66.96 42.86 68.34 45.30 70.11 C 41.72 70.34 38.49 68.88 35.54 67.01 C 34.59 68.28 33.68 69.59 32.59 70.75 C 30.29 70.80 28.17 69.60 25.93 69.19 C 23.42 68.45 20.84 69.20 18.33 69.53 C 16.76 69.34 17.64 66.62 19.01 67.00 C 22.90 66.32 27.10 65.67 29.50 62.14 Z" />
</g>
<g id="#362f2b6c">
<path fill="#362f2b" opacity="0.42" d=" M 153.32 62.30 C 156.83 61.29 154.94 67.36 152.33 64.88 C 152.62 64.58 153.19 63.99 153.48 63.69 C 153.44 63.34 153.36 62.65 153.32 62.30 Z" />
</g>
<g id="#c39570ff">
<path fill="#c39570" opacity="1.00" d=" M 128.63 64.53 C 132.34 62.69 136.25 64.11 139.24 66.57 C 141.38 68.13 143.43 69.83 145.17 71.84 C 143.64 72.63 141.81 73.38 141.33 75.23 C 139.61 79.96 138.63 84.98 136.34 89.50 C 134.85 91.92 132.78 93.93 131.34 96.40 C 129.61 100.29 124.82 100.42 121.64 102.63 C 119.90 100.14 118.16 97.63 116.76 94.92 C 115.25 91.38 114.43 87.59 113.36 83.90 C 114.52 81.35 115.96 78.95 117.37 76.54 C 120.86 75.74 124.11 74.01 126.79 71.62 C 128.55 70.56 126.75 68.66 126.44 67.23 C 125.19 67.41 123.94 67.58 122.69 67.78 C 123.04 67.40 123.73 66.63 124.08 66.25 C 125.58 65.64 127.09 65.03 128.63 64.53 Z" />
</g>
<g id="#966346ff">
<path fill="#966346" opacity="1.00" d=" M 35.54 67.01 C 38.49 68.88 41.72 70.34 45.30 70.11 C 46.41 71.10 46.67 72.72 47.42 73.97 C 46.85 74.14 45.72 74.48 45.16 74.65 C 43.07 73.91 40.94 73.30 38.80 72.74 C 38.40 75.16 38.06 77.59 37.68 80.02 C 37.43 80.43 36.94 81.26 36.69 81.67 C 36.28 82.01 35.47 82.68 35.06 83.01 C 34.21 83.60 33.28 84.04 32.26 84.32 C 31.28 89.64 31.43 95.69 28.10 100.19 C 23.35 103.84 16.68 104.29 10.95 103.12 C 13.88 103.03 16.81 102.82 19.74 102.66 C 19.38 102.42 18.66 101.93 18.30 101.68 C 21.37 99.24 24.30 96.28 25.21 92.32 C 26.60 86.17 28.40 80.12 29.94 74.01 C 28.13 73.03 26.21 72.28 24.19 71.87 C 22.11 71.45 20.12 70.69 18.33 69.53 C 20.84 69.20 23.42 68.45 25.93 69.19 C 28.17 69.60 30.29 70.80 32.59 70.75 C 33.68 69.59 34.59 68.28 35.54 67.01 Z" />
</g>
<g id="#b78560ff">
<path fill="#b78560" opacity="1.00" d=" M 122.69 67.78 C 123.94 67.58 125.19 67.41 126.44 67.23 C 126.75 68.66 128.55 70.56 126.79 71.62 C 124.11 74.01 120.86 75.74 117.37 76.54 C 118.70 73.38 119.59 69.74 122.69 67.78 Z" />
</g>
<g id="#d6b19cff">
<path fill="#d6b19c" opacity="1.00" d=" M 97.92 70.95 C 99.36 70.24 100.48 71.57 101.66 72.15 C 95.75 75.05 90.25 78.71 84.73 82.28 C 84.11 80.51 83.55 78.71 83.10 76.89 C 82.86 78.10 82.61 79.30 82.35 80.51 C 80.20 80.62 78.06 80.75 75.93 81.03 C 75.48 79.85 74.99 78.68 74.48 77.52 C 74.43 79.06 74.38 80.61 74.32 82.15 C 73.41 81.61 72.51 81.07 71.61 80.53 C 72.13 79.01 72.64 77.49 73.16 75.97 C 81.32 73.81 89.81 73.28 97.92 70.95 Z" />
</g>
<g id="#e4b283fb">
<path fill="#e4b283" opacity="1.00" d=" M 4.90 81.04 C 5.58 77.78 6.37 74.50 7.99 71.57 C 8.25 74.69 7.60 77.76 6.87 80.77 C 5.79 85.31 7.04 90.11 5.49 94.57 C 4.53 90.13 4.59 85.55 4.90 81.04 Z" />
</g>
<g id="#ac7b5aff">
<path fill="#ac7b5a" opacity="1.00" d=" M 24.19 71.87 C 26.21 72.28 28.13 73.03 29.94 74.01 C 28.40 80.12 26.60 86.17 25.21 92.32 C 24.30 96.28 21.37 99.24 18.30 101.68 C 18.66 101.93 19.38 102.42 19.74 102.66 C 16.81 102.82 13.88 103.03 10.95 103.12 C 10.79 102.97 10.48 102.68 10.32 102.53 C 10.38 101.82 10.45 101.12 10.52 100.42 C 12.82 99.26 15.44 98.16 16.60 95.68 C 20.09 89.32 21.78 82.18 23.78 75.26 C 23.33 74.59 22.88 73.93 22.43 73.26 C 22.87 72.91 23.75 72.22 24.19 71.87 Z" />
</g>
<g id="#b38361ff">
<path fill="#b38361" opacity="1.00" d=" M 141.33 75.23 C 141.81 73.38 143.64 72.63 145.17 71.84 C 148.59 75.86 150.43 80.83 151.71 85.87 L 151.87 86.45 C 152.39 89.50 152.20 92.62 151.44 95.62 C 151.06 92.99 150.78 90.36 150.52 87.72 C 146.95 94.26 142.61 100.89 135.89 104.55 C 133.28 105.92 130.90 107.71 128.16 108.81 C 126.71 108.17 125.43 107.21 124.22 106.20 C 123.33 105.03 122.49 103.83 121.64 102.63 C 124.82 100.42 129.61 100.29 131.34 96.40 C 132.78 93.93 134.85 91.92 136.34 89.50 C 138.63 84.98 139.61 79.96 141.33 75.23 Z" />
</g>
<g id="#814e36ff">
<path fill="#814e36" opacity="1.00" d=" M 38.80 72.74 C 40.94 73.30 43.07 73.91 45.16 74.65 C 45.72 74.48 46.85 74.14 47.42 73.97 C 47.86 74.46 48.74 75.44 49.19 75.94 C 49.90 76.79 50.49 77.74 50.91 78.77 C 50.40 77.98 49.88 77.20 49.36 76.42 C 47.31 78.66 44.61 80.05 41.87 81.25 C 40.47 80.86 39.07 80.45 37.68 80.02 C 38.06 77.59 38.40 75.16 38.80 72.74 Z" />
</g>
<g id="#f0eeecff">
<path fill="#f0eeec" opacity="1.00" d=" M 57.12 72.02 C 60.81 74.14 64.64 76.65 65.55 81.12 C 65.75 80.37 66.14 78.85 66.34 78.10 C 68.11 79.44 69.90 80.76 71.71 82.06 L 70.66 83.02 C 66.97 82.25 63.37 81.09 59.71 80.14 C 59.19 79.86 58.15 79.28 57.63 78.99 C 57.44 76.67 57.27 74.34 57.12 72.02 Z" />
<path fill="#f0eeec" opacity="1.00" d=" M 87.59 82.11 C 89.56 80.87 91.45 79.52 93.35 78.18 C 93.93 78.93 95.10 80.44 95.68 81.19 C 93.90 82.29 91.85 82.81 89.78 83.03 C 89.23 82.80 88.14 82.34 87.59 82.11 Z" />
</g>
<g id="#d6d5d2ff">
<path fill="#d6d5d2" opacity="1.00" d=" M 95.62 76.78 C 98.45 75.09 101.33 73.49 104.28 72.03 C 105.08 74.63 105.59 77.32 105.84 80.03 L 104.52 80.40 C 101.69 80.65 98.90 81.14 96.14 81.82 C 95.98 80.14 95.80 78.46 95.62 76.78 Z" />
</g>
<g id="#eecdb2ff">
<path fill="#eecdb2" opacity="1.00" d=" M 57.27 78.44 L 57.63 78.99 C 58.15 79.28 59.19 79.86 59.71 80.14 C 60.89 80.76 62.13 81.26 63.38 81.70 C 62.27 82.53 61.17 83.37 60.06 84.20 C 60.57 88.71 63.83 92.88 62.45 97.51 C 61.93 97.16 60.88 96.47 60.36 96.12 C 57.99 93.24 55.91 90.11 54.23 86.78 C 55.51 84.11 56.47 81.29 57.27 78.44 Z" />
</g>
<g id="#ca968fff">
<path fill="#ca968f" opacity="1.00" d=" M 75.93 81.03 C 78.06 80.75 80.20 80.62 82.35 80.51 C 82.69 80.98 83.36 81.91 83.70 82.38 C 84.04 82.52 84.72 82.81 85.05 82.95 C 86.41 83.50 87.78 84.02 89.15 84.55 C 88.70 87.55 87.06 90.12 85.49 92.64 C 85.06 92.06 84.63 91.48 84.20 90.90 C 83.62 90.13 83.03 89.37 82.42 88.63 C 82.45 89.88 82.53 91.13 82.67 92.38 C 80.79 92.88 78.91 93.40 77.00 93.81 C 76.44 92.06 75.85 90.32 75.18 88.61 C 74.55 90.25 74.85 92.01 75.26 93.66 C 73.76 93.50 72.26 93.31 70.76 93.12 C 69.00 90.21 69.35 86.76 70.05 83.60 C 70.21 83.45 70.51 83.17 70.66 83.02 L 71.71 82.06 C 72.86 82.43 74.06 82.64 75.27 82.75 C 75.43 82.32 75.76 81.46 75.93 81.03 Z" />
</g>
<g id="#1d1414b9">
<path fill="#1d1414" opacity="0.73" d=" M 35.06 83.01 C 35.47 82.68 36.28 82.01 36.69 81.67 L 36.76 82.60 L 35.92 83.28 L 35.06 83.01 Z" />
</g>
<g id="#d8b298ff">
<path fill="#d8b298" opacity="1.00" d=" M 63.38 81.70 C 65.59 82.37 67.81 83.04 70.05 83.60 C 69.35 86.76 69.00 90.21 70.76 93.12 C 73.74 97.18 78.54 101.01 77.56 106.62 C 81.87 108.19 86.37 109.14 90.94 109.56 C 88.96 109.74 86.98 109.94 85.00 110.05 C 83.70 109.85 82.43 109.59 81.16 109.26 C 79.11 108.76 77.07 108.24 75.02 107.74 C 73.45 107.08 71.94 106.29 70.46 105.45 C 68.93 104.41 67.45 103.30 66.01 102.13 C 63.97 100.29 62.14 98.21 60.36 96.12 C 60.88 96.47 61.93 97.16 62.45 97.51 C 63.83 92.88 60.57 88.71 60.06 84.20 C 61.17 83.37 62.27 82.53 63.38 81.70 Z" />
</g>
<g id="#af7870ff">
<path fill="#af7870" opacity="1.00" d=" M 85.05 82.95 C 85.91 82.70 86.75 82.42 87.59 82.11 C 88.14 82.34 89.23 82.80 89.78 83.03 C 90.07 83.16 90.65 83.41 90.94 83.53 C 92.38 86.08 95.37 89.09 93.32 92.12 C 91.61 95.67 87.44 96.51 83.87 96.48 C 83.79 96.09 83.63 95.32 83.55 94.93 C 83.78 93.59 84.00 92.25 84.20 90.90 C 84.63 91.48 85.06 92.06 85.49 92.64 C 87.06 90.12 88.70 87.55 89.15 84.55 C 87.78 84.02 86.41 83.50 85.05 82.95 Z" />
</g>
<g id="#c2967fff">
<path fill="#c2967f" opacity="1.00" d=" M 90.94 83.53 C 92.56 83.26 94.16 82.90 95.76 82.55 C 96.16 83.06 96.95 84.09 97.34 84.60 C 100.79 85.02 104.11 86.10 107.05 87.95 C 109.21 86.68 111.31 85.33 113.36 83.90 C 114.43 87.59 115.25 91.38 116.76 94.92 C 111.61 100.53 104.65 103.95 97.59 106.50 C 96.83 107.02 94.91 106.99 95.54 108.35 C 99.05 108.86 102.60 108.89 106.12 109.22 C 103.34 109.76 100.57 110.34 97.78 110.84 C 93.52 111.36 89.23 110.54 85.00 110.05 C 86.98 109.94 88.96 109.74 90.94 109.56 C 86.37 109.14 81.87 108.19 77.56 106.62 C 78.54 101.01 73.74 97.18 70.76 93.12 C 72.26 93.31 73.76 93.50 75.26 93.66 C 75.70 93.70 76.57 93.77 77.00 93.81 C 78.91 93.40 80.79 92.88 82.67 92.38 C 82.89 93.02 83.33 94.29 83.55 94.93 C 83.63 95.32 83.79 96.09 83.87 96.48 C 87.44 96.51 91.61 95.67 93.32 92.12 C 95.37 89.09 92.38 86.08 90.94 83.53 Z" />
</g>
<g id="#9c6a4cff">
<path fill="#9c6a4c" opacity="1.00" d=" M 151.87 86.45 C 152.46 88.98 152.79 91.57 152.85 94.16 C 152.19 97.22 149.60 99.27 147.62 101.51 C 143.87 105.60 138.65 108.59 132.99 108.64 C 133.29 110.50 133.67 112.35 134.25 114.14 C 133.81 114.49 132.93 115.19 132.49 115.54 C 132.33 114.13 131.75 112.99 130.73 112.09 C 130.08 112.81 129.85 113.74 130.04 114.90 C 130.67 118.34 126.76 119.88 123.96 119.50 C 122.86 118.57 122.34 117.16 121.44 116.06 C 120.95 116.63 120.47 117.19 119.99 117.76 C 119.71 117.02 119.16 115.53 118.88 114.78 C 119.85 111.48 122.09 108.82 124.22 106.20 C 125.43 107.21 126.71 108.17 128.16 108.81 C 130.90 107.71 133.28 105.92 135.89 104.55 C 142.61 100.89 146.95 94.26 150.52 87.72 C 150.78 90.36 151.06 92.99 151.44 95.62 C 152.20 92.62 152.39 89.50 151.87 86.45 Z" />
</g>
<g id="#2a201bff">
<path fill="#2a201b" opacity="1.00" d=" M 82.42 88.63 C 83.03 89.37 83.62 90.13 84.20 90.90 C 84.00 92.25 83.78 93.59 83.55 94.93 C 83.33 94.29 82.89 93.02 82.67 92.38 C 82.53 91.13 82.45 89.88 82.42 88.63 Z" />
<path fill="#2a201b" opacity="1.00" d=" M 80.36 122.70 C 83.46 124.31 83.00 128.09 83.22 131.05 C 83.53 133.32 82.29 135.30 81.52 137.33 C 75.98 139.47 69.33 139.38 64.26 136.08 C 63.01 132.21 61.93 126.88 64.90 123.53 C 65.42 125.43 66.15 127.27 67.09 129.01 C 68.66 129.63 70.28 130.15 71.90 130.62 C 74.56 130.19 77.74 129.99 79.54 127.68 C 80.13 126.09 80.19 124.37 80.36 122.70 Z" />
</g>
<g id="#b6876fff">
<path fill="#b6876f" opacity="1.00" d=" M 97.59 106.50 C 104.65 103.95 111.61 100.53 116.76 94.92 C 118.16 97.63 119.90 100.14 121.64 102.63 C 119.75 104.46 117.87 106.28 116.05 108.17 C 115.32 108.14 113.86 108.07 113.13 108.03 C 112.88 108.53 112.39 109.53 112.14 110.02 C 107.32 109.40 102.58 110.64 97.78 110.84 C 100.57 110.34 103.34 109.76 106.12 109.22 C 102.60 108.89 99.05 108.86 95.54 108.35 C 94.91 106.99 96.83 107.02 97.59 106.50 Z" />
</g>
<g id="#a27250ff">
<path fill="#a27250" opacity="1.00" d=" M 66.01 102.13 C 67.45 103.30 68.93 104.41 70.46 105.45 C 70.25 109.28 71.08 113.20 69.92 116.93 C 69.61 117.97 69.40 119.03 69.31 120.11 C 68.99 123.17 68.58 126.27 67.09 129.01 C 66.15 127.27 65.42 125.43 64.90 123.53 C 62.71 116.85 64.73 110.00 67.35 103.79 C 67.02 103.38 66.35 102.55 66.01 102.13 Z" />
</g>
<g id="#8e5b3eff">
<path fill="#8e5b3e" opacity="1.00" d=" M 116.05 108.17 C 117.87 106.28 119.75 104.46 121.64 102.63 C 122.49 103.83 123.33 105.03 124.22 106.20 C 122.09 108.82 119.85 111.48 118.88 114.78 C 117.94 112.57 117.03 110.36 116.05 108.17 Z" />
</g>
<g id="#88553aff">
<path fill="#88553a" opacity="1.00" d=" M 69.92 116.93 C 71.08 113.20 70.25 109.28 70.46 105.45 C 71.94 106.29 73.45 107.08 75.02 107.74 C 74.69 107.83 74.02 107.99 73.69 108.07 C 73.64 115.62 73.09 123.17 71.90 130.62 C 70.28 130.15 68.66 129.63 67.09 129.01 C 68.58 126.27 68.99 123.17 69.31 120.11 C 71.16 119.87 72.14 118.06 71.73 116.31 C 71.28 116.47 70.37 116.78 69.92 116.93 Z" />
</g>
<g id="#78452dff">
<path fill="#78452d" opacity="1.00" d=" M 73.69 108.07 C 74.02 107.99 74.69 107.83 75.02 107.74 C 77.07 108.24 79.11 108.76 81.16 109.26 C 79.74 111.41 78.41 113.63 77.28 115.96 C 78.65 118.03 79.63 120.33 80.36 122.70 C 80.19 124.37 80.13 126.09 79.54 127.68 C 77.74 129.99 74.56 130.19 71.90 130.62 C 73.09 123.17 73.64 115.62 73.69 108.07 Z" />
</g>
<g id="#714930ff">
<path fill="#714930" opacity="1.00" d=" M 130.04 114.90 C 129.85 113.74 130.08 112.81 130.73 112.09 C 131.75 112.99 132.33 114.13 132.49 115.54 C 131.58 117.07 130.51 116.26 130.04 114.90 Z" />
</g>
<g id="#8c5a3eff">
<path fill="#8c5a3e" opacity="1.00" d=" M 134.25 114.14 C 137.12 116.30 139.11 119.34 139.40 122.99 C 139.40 125.00 139.64 127.46 137.45 128.44 C 133.70 130.72 127.00 133.88 124.46 128.41 C 122.34 125.44 121.38 121.88 120.35 118.44 C 121.78 117.94 122.64 119.47 123.96 119.50 C 126.76 119.88 130.67 118.34 130.04 114.90 C 130.51 116.26 131.58 117.07 132.49 115.54 C 132.93 115.19 133.81 114.49 134.25 114.14 Z" />
</g>
<g id="#5f3823ff">
<path fill="#5f3823" opacity="1.00" d=" M 69.92 116.93 C 70.37 116.78 71.28 116.47 71.73 116.31 C 72.14 118.06 71.16 119.87 69.31 120.11 C 69.40 119.03 69.61 117.97 69.92 116.93 Z" />
</g>
<g id="#2d231eff">
<path fill="#2d231e" opacity="1.00" d=" M 139.40 122.99 C 143.33 123.50 143.53 128.14 144.82 131.09 C 146.03 133.72 141.91 135.48 143.84 138.15 C 143.59 137.61 143.09 136.53 142.85 135.98 C 138.79 138.94 133.72 139.49 129.30 141.55 C 129.18 140.11 127.43 140.05 126.50 139.36 C 125.34 135.89 122.33 132.10 124.46 128.41 C 127.00 133.88 133.70 130.72 137.45 128.44 C 139.64 127.46 139.40 125.00 139.40 122.99 Z" />
</g>
<g id="#986749ff">
<path fill="#986749" opacity="1.00" d=" M 64.26 136.08 C 69.33 139.38 75.98 139.47 81.52 137.33 C 82.96 140.67 84.29 144.85 82.34 148.24 C 80.21 151.87 75.33 149.15 72.28 151.26 C 68.84 153.46 65.25 155.99 60.94 155.72 C 55.46 155.18 49.96 154.81 44.46 154.39 L 44.52 154.28 C 47.04 148.81 51.77 145.06 56.76 141.97 C 56.32 141.89 55.43 141.72 54.98 141.64 C 58.10 139.82 61.28 138.11 64.26 136.08 M 51.89 147.78 C 49.91 149.11 50.31 151.84 50.09 153.90 C 53.25 155.02 56.23 153.77 58.36 151.36 C 59.82 149.89 63.78 147.03 60.05 145.77 C 57.26 146.05 54.45 146.61 51.89 147.78 Z" />
</g>
<g id="#a7714fff">
<path fill="#a7714f" opacity="1.00" d=" M 129.30 141.55 C 133.72 139.49 138.79 138.94 142.85 135.98 C 143.09 136.53 143.59 137.61 143.84 138.15 C 145.32 140.95 145.21 144.20 145.65 147.25 C 145.32 146.58 144.98 145.92 144.64 145.26 C 142.63 148.81 138.75 150.37 135.62 152.70 C 133.53 153.96 133.57 156.65 132.93 158.74 C 138.05 158.67 143.22 157.93 147.71 155.30 C 147.83 154.75 148.08 153.65 148.21 153.10 C 148.51 154.65 148.78 156.20 149.05 157.75 C 148.08 158.66 147.11 159.58 146.14 160.48 C 142.11 160.14 137.93 161.08 134.07 159.56 C 131.31 159.60 128.58 160.29 125.79 160.13 C 127.25 158.51 128.82 156.89 129.74 154.88 C 130.58 151.58 128.47 148.59 127.11 145.77 C 127.76 144.32 128.43 142.88 129.30 141.55 Z" />
</g>
<g id="#bd8c64fe">
<path fill="#bd8c64" opacity="1.00" d=" M 41.08 146.17 C 45.88 145.16 50.48 143.53 54.98 141.64 C 55.43 141.72 56.32 141.89 56.76 141.97 C 51.77 145.06 47.04 148.81 44.52 154.28 C 41.90 154.38 39.74 153.14 38.10 151.19 C 38.79 149.41 38.78 146.67 41.08 146.17 Z" />
</g>
<g id="#b98864ff">
<path fill="#b98864" opacity="1.00" d=" M 144.64 145.26 C 144.98 145.92 145.32 146.58 145.65 147.25 C 146.57 149.17 147.35 151.16 148.21 153.10 C 148.08 153.65 147.83 154.75 147.71 155.30 C 143.22 157.93 138.05 158.67 132.93 158.74 C 133.57 156.65 133.53 153.96 135.62 152.70 C 138.75 150.37 142.63 148.81 144.64 145.26 Z" />
</g>
<g id="#b38260ff">
<path fill="#b38260" opacity="1.00" d=" M 51.89 147.78 C 54.45 146.61 57.26 146.05 60.05 145.77 C 63.78 147.03 59.82 149.89 58.36 151.36 C 56.23 153.77 53.25 155.02 50.09 153.90 C 50.31 151.84 49.91 149.11 51.89 147.78 Z" />
</g>
<g id="#b78360ff">
<path fill="#b78360" opacity="1.00" d=" M 127.11 145.77 C 128.47 148.59 130.58 151.58 129.74 154.88 C 128.82 156.89 127.25 158.51 125.79 160.13 C 124.02 160.51 122.73 159.05 121.38 158.21 C 121.36 153.36 123.99 149.24 127.11 145.77 Z" />
</g>
</svg>
