<?xml version="1.0" encoding="UTF-8" ?>
<!DOCTYPE svg PUBLIC "-//W3C//DTD SVG 1.1//EN" "http://www.w3.org/Graphics/SVG/1.1/DTD/svg11.dtd">
<svg width="120pt" height="152pt" viewBox="0 0 120 152" version="1.1" xmlns="http://www.w3.org/2000/svg">
<g id="#f6e3aefb">
<path fill="#f6e3ae" opacity="1.00" d=" M 41.33 12.31 C 43.64 10.64 44.61 7.70 46.76 5.96 C 47.12 8.00 47.62 10.15 49.09 11.71 C 50.81 10.69 52.46 12.10 52.07 14.03 C 49.45 15.73 46.69 17.26 44.31 19.30 C 43.28 21.76 43.40 24.67 41.86 26.91 C 39.10 29.47 35.52 30.73 32.06 32.00 C 31.48 24.95 34.24 17.81 37.77 11.94 C 37.30 14.58 40.53 14.59 41.33 12.31 Z" />
</g>
<g id="#f2cc9aff">
<path fill="#f2cc9a" opacity="1.00" d=" M 52.07 14.03 C 54.44 12.66 55.71 13.22 55.26 16.14 C 54.03 19.42 49.84 20.14 47.83 22.81 C 43.63 27.54 39.92 33.93 33.20 35.12 C 32.99 34.54 32.57 33.38 32.36 32.80 L 32.06 32.00 C 35.52 30.73 39.10 29.47 41.86 26.91 C 43.40 24.67 43.28 21.76 44.31 19.30 C 46.69 17.26 49.45 15.73 52.07 14.03 Z" />
</g>
<g id="#f6d7a3fd">
<path fill="#f6d7a3" opacity="1.00" d=" M 81.18 18.33 C 87.27 16.50 94.91 12.90 100.82 17.16 C 103.25 18.85 106.66 20.35 107.84 23.02 L 106.83 23.20 C 101.89 23.20 98.62 27.27 95.00 30.01 C 92.57 32.17 90.07 29.01 87.63 28.40 C 81.17 27.37 76.44 33.61 70.13 33.43 C 68.63 33.62 67.23 34.54 65.68 34.26 C 68.72 27.33 73.79 20.86 81.18 18.33 Z" />
</g>
<g id="#dcb284fd">
<path fill="#dcb284" opacity="1.00" d=" M 55.26 16.14 C 58.29 14.88 58.50 17.49 57.70 19.79 C 57.38 20.74 57.04 21.67 56.69 22.60 C 49.87 22.50 43.88 28.14 40.83 33.86 C 38.51 35.05 36.28 36.44 33.84 37.38 L 32.94 37.01 L 32.74 35.94 L 33.20 35.12 C 39.92 33.93 43.63 27.54 47.83 22.81 C 49.84 20.14 54.03 19.42 55.26 16.14 Z" />
</g>
<g id="#c2976ffa">
<path fill="#c2976f" opacity="0.98" d=" M 56.69 22.60 C 57.04 21.67 57.38 20.74 57.70 19.79 C 58.35 22.79 59.19 25.75 59.68 28.78 C 58.69 29.92 57.65 31.02 56.66 32.16 C 56.70 29.19 56.08 26.53 53.00 26.03 C 49.15 27.52 45.91 30.23 42.89 32.97 C 42.38 33.19 41.35 33.64 40.83 33.86 C 43.88 28.14 49.87 22.50 56.69 22.60 Z" />
</g>
<g id="#e9c392fe">
<path fill="#e9c392" opacity="1.00" d=" M 95.00 30.01 C 98.62 27.27 101.89 23.20 106.83 23.20 C 107.20 25.72 110.52 25.33 111.58 27.38 C 112.50 29.39 115.68 30.79 114.44 33.30 C 113.98 34.69 115.10 36.02 115.24 37.39 C 113.94 37.83 112.57 38.16 111.19 37.94 C 109.60 36.08 109.41 32.04 106.08 33.01 C 101.96 34.66 98.89 38.27 94.65 39.70 C 89.72 41.84 86.11 37.91 82.00 36.27 C 77.81 36.44 73.51 36.79 69.87 39.03 C 68.22 38.36 66.51 37.87 64.83 37.29 C 64.50 35.62 64.79 34.62 65.68 34.26 C 67.23 34.54 68.63 33.62 70.13 33.43 C 76.44 33.61 81.17 27.37 87.63 28.40 C 90.07 29.01 92.57 32.17 95.00 30.01 Z" />
</g>
<g id="#ae7f5bfc">
<path fill="#ae7f5b" opacity="1.00" d=" M 42.89 32.97 C 45.91 30.23 49.15 27.52 53.00 26.03 C 56.08 26.53 56.70 29.19 56.66 32.16 C 56.50 32.38 56.16 32.81 55.99 33.03 C 52.90 28.04 46.97 30.85 42.89 32.97 Z" />
</g>
<g id="#a1704efb">
<path fill="#a1704e" opacity="1.00" d=" M 42.89 32.97 C 46.97 30.85 52.90 28.04 55.99 33.03 C 56.04 34.41 56.00 35.78 55.85 37.15 C 53.76 35.93 51.68 34.37 49.23 34.03 C 45.55 33.90 42.41 36.16 38.94 37.02 C 39.59 35.98 40.22 34.92 40.83 33.86 C 41.35 33.64 42.38 33.19 42.89 32.97 Z" />
</g>
<g id="#ea9551fc">
<path fill="#ea9551" opacity="1.00" d=" M 32.36 32.80 C 32.57 33.38 32.99 34.54 33.20 35.12 L 32.74 35.94 C 30.58 36.66 29.29 38.41 30.43 40.66 C 31.80 43.32 29.36 45.34 27.95 47.32 C 26.52 45.97 25.02 44.70 23.35 43.67 C 23.28 43.03 23.13 41.76 23.05 41.12 C 23.82 40.50 24.59 39.88 25.35 39.25 C 27.60 37.07 31.57 36.13 32.36 32.80 Z" />
</g>
<g id="#dbb488fe">
<path fill="#dbb488" opacity="1.00" d=" M 94.65 39.70 C 98.89 38.27 101.96 34.66 106.08 33.01 C 109.41 32.04 109.60 36.08 111.19 37.94 C 112.57 38.16 113.94 37.83 115.24 37.39 C 116.76 37.54 116.95 40.59 117.93 41.90 C 115.09 41.47 112.29 42.65 112.92 45.98 L 112.19 45.84 C 108.86 46.03 110.01 42.34 109.74 39.82 C 109.34 38.56 109.17 36.18 107.28 37.27 C 103.26 41.40 98.46 46.46 92.00 45.07 C 87.60 45.30 83.87 42.47 79.85 41.17 C 77.45 41.03 75.16 42.04 72.80 42.32 C 71.79 41.24 70.81 40.15 69.87 39.03 C 73.51 36.79 77.81 36.44 82.00 36.27 C 86.11 37.91 89.72 41.84 94.65 39.70 Z" />
</g>
<g id="#c3976fff">
<path fill="#c3976f" opacity="1.00" d=" M 33.84 37.38 C 36.28 36.44 38.51 35.05 40.83 33.86 C 40.22 34.92 39.59 35.98 38.94 37.02 C 37.29 37.43 35.46 38.41 33.84 37.38 Z" />
</g>
<g id="#c17342ff">
<path fill="#c17342" opacity="1.00" d=" M 38.94 37.02 C 42.41 36.16 45.55 33.90 49.23 34.03 C 48.36 37.88 43.64 37.83 40.98 39.94 C 38.00 42.29 33.06 41.03 32.94 37.01 L 33.84 37.38 C 35.46 38.41 37.29 37.43 38.94 37.02 Z" />
</g>
<g id="#d58048ff">
<path fill="#d58048" opacity="1.00" d=" M 49.23 34.03 C 51.68 34.37 53.76 35.93 55.85 37.15 C 56.84 38.45 58.65 39.40 58.90 41.09 C 58.10 44.81 56.61 48.32 54.06 51.19 C 53.89 50.57 53.53 49.33 53.35 48.72 C 53.01 47.42 52.70 46.08 51.82 45.02 C 49.81 44.92 47.90 45.75 46.08 46.51 C 44.04 47.20 42.63 48.89 41.10 50.31 C 37.13 50.64 33.15 49.85 29.17 50.05 C 28.74 49.15 28.33 48.24 27.95 47.32 C 29.36 45.34 31.80 43.32 30.43 40.66 C 29.29 38.41 30.58 36.66 32.74 35.94 L 32.94 37.01 C 33.06 41.03 38.00 42.29 40.98 39.94 C 43.64 37.83 48.36 37.88 49.23 34.03 Z" />
</g>
<g id="#c57841f3">
<path fill="#c57841" opacity="0.95" d=" M 19.86 39.89 C 18.59 35.35 25.66 34.51 25.35 39.25 C 24.59 39.88 23.82 40.50 23.05 41.12 C 23.25 38.72 20.96 37.23 19.86 39.89 Z" />
</g>
<g id="#bb6b3cfe">
<path fill="#bb6b3c" opacity="1.00" d=" M 58.90 41.09 C 61.95 43.29 63.05 37.92 64.83 37.29 C 66.51 37.87 68.22 38.36 69.87 39.03 C 70.81 40.15 71.79 41.24 72.80 42.32 C 73.20 43.17 73.60 44.03 74.00 44.88 L 74.03 45.79 L 72.97 46.21 C 72.25 45.11 71.57 43.99 70.87 42.88 C 68.67 36.99 62.01 41.79 60.06 45.07 C 61.39 48.70 61.46 52.64 62.72 56.26 C 62.96 56.77 63.44 57.79 63.67 58.30 C 63.97 58.79 64.55 59.77 64.84 60.26 C 67.30 61.60 70.12 62.01 72.81 62.62 C 74.46 63.20 76.11 63.79 77.81 64.25 C 85.78 69.46 90.55 78.45 91.18 87.87 C 91.62 87.66 92.50 87.23 92.94 87.02 C 93.17 92.16 90.40 97.33 91.75 102.32 C 90.41 104.92 86.78 105.77 86.58 108.99 C 86.71 112.42 84.93 115.54 82.00 117.16 C 79.72 116.25 79.25 112.35 76.29 113.04 C 75.79 116.08 74.95 119.04 73.98 121.96 C 72.71 126.20 72.49 130.81 73.54 135.12 L 73.66 135.83 C 75.00 140.26 70.90 143.29 67.12 143.02 C 67.05 142.24 66.91 140.68 66.84 139.90 C 65.27 140.18 63.96 141.11 62.66 141.95 C 59.52 142.47 56.94 140.60 54.09 139.74 C 53.08 137.26 56.71 133.87 53.74 132.28 C 49.25 134.47 46.59 128.87 49.38 126.26 C 49.59 125.98 50.02 125.42 50.23 125.14 C 51.26 124.11 52.28 123.06 53.24 121.97 C 53.44 122.23 53.82 122.76 54.01 123.02 C 55.90 126.02 58.47 131.49 62.74 130.82 C 69.01 125.05 75.75 118.13 75.01 108.88 C 70.76 113.37 66.60 118.00 61.03 120.94 C 60.67 120.77 59.96 120.43 59.60 120.27 C 59.61 116.01 64.89 115.15 65.48 110.95 C 65.68 110.74 66.09 110.30 66.29 110.09 C 69.45 107.40 75.26 105.48 73.03 99.98 C 72.71 97.34 72.67 93.09 68.92 93.83 C 74.10 92.00 65.26 88.79 64.09 86.80 C 64.13 84.29 67.66 84.09 69.22 82.59 C 70.74 83.38 72.69 84.77 72.26 81.87 C 72.77 82.65 73.30 83.41 73.86 84.16 C 74.00 82.71 74.12 81.26 74.21 79.81 C 75.04 83.14 79.34 82.47 78.34 78.78 C 79.13 80.39 78.98 82.24 79.20 83.98 C 77.65 87.03 79.08 92.47 80.96 88.20 C 82.56 82.30 82.91 75.33 78.25 70.76 C 75.08 65.57 69.32 62.54 63.30 62.10 C 63.20 62.50 63.00 63.30 62.90 63.70 L 62.02 63.65 C 61.71 60.84 60.56 57.78 57.97 56.33 C 60.34 54.45 55.34 54.84 54.22 53.79 C 54.18 53.14 54.10 51.84 54.06 51.19 C 56.61 48.32 58.10 44.81 58.90 41.09 Z" />
</g>
<g id="#d5ac81ff">
<path fill="#d5ac81" opacity="1.00" d=" M 107.28 37.27 C 109.17 36.18 109.34 38.56 109.74 39.82 C 106.39 41.24 105.17 45.41 101.72 46.71 C 95.84 49.98 88.54 49.36 82.68 46.35 C 80.05 44.85 76.92 45.22 74.00 44.88 C 73.60 44.03 73.20 43.17 72.80 42.32 C 75.16 42.04 77.45 41.03 79.85 41.17 C 83.87 42.47 87.60 45.30 92.00 45.07 C 98.46 46.46 103.26 41.40 107.28 37.27 Z" />
</g>
<g id="#b68b5cfa">
<path fill="#b68b5c" opacity="0.98" d=" M 19.86 39.89 C 20.96 37.23 23.25 38.72 23.05 41.12 C 23.13 41.76 23.28 43.03 23.35 43.67 C 23.51 44.15 23.84 45.13 24.00 45.62 C 22.40 47.43 21.81 49.71 22.05 52.09 C 21.38 52.87 20.70 53.63 19.99 54.37 C 19.45 52.14 18.89 49.91 18.30 47.70 C 18.10 45.19 18.36 41.90 19.86 39.89 Z" />
</g>
<g id="#795138ff">
<path fill="#795138" opacity="1.00" d=" M 60.06 45.07 C 62.01 41.79 68.67 36.99 70.87 42.88 C 70.63 43.17 70.15 43.75 69.91 44.04 C 68.98 42.27 67.22 41.41 65.28 42.18 C 63.39 45.51 61.85 49.83 63.86 53.45 C 63.84 54.15 63.79 55.55 63.77 56.25 L 62.72 56.26 C 61.46 52.64 61.39 48.70 60.06 45.07 Z" />
</g>
<g id="#cea37aff">
<path fill="#cea37a" opacity="1.00" d=" M 101.72 46.71 C 105.17 45.41 106.39 41.24 109.74 39.82 C 110.01 42.34 108.86 46.03 112.19 45.84 C 112.03 48.75 112.39 51.79 111.13 54.49 C 110.70 51.98 110.25 49.47 109.79 46.97 C 105.07 47.58 104.02 55.62 97.99 53.01 C 90.29 53.64 83.48 48.62 75.84 49.10 C 75.22 48.01 74.65 46.88 74.03 45.79 L 74.00 44.88 C 76.92 45.22 80.05 44.85 82.68 46.35 C 88.54 49.36 95.84 49.98 101.72 46.71 Z" />
</g>
<g id="#856047ff">
<path fill="#856047" opacity="1.00" d=" M 65.28 42.18 C 67.22 41.41 68.98 42.27 69.91 44.04 C 70.14 44.47 70.62 45.34 70.86 45.77 C 67.83 47.52 67.03 51.63 63.86 53.45 C 61.85 49.83 63.39 45.51 65.28 42.18 Z" />
</g>
<g id="#614330ff">
<path fill="#614330" opacity="1.00" d=" M 69.91 44.04 C 70.15 43.75 70.63 43.17 70.87 42.88 C 71.57 43.99 72.25 45.11 72.97 46.21 C 73.62 49.64 76.22 53.48 73.72 56.72 C 70.71 58.52 67.02 57.79 63.67 58.30 C 63.44 57.79 62.96 56.77 62.72 56.26 L 63.77 56.25 C 66.86 56.66 70.13 57.61 72.91 55.76 C 74.04 52.12 72.68 48.76 70.86 45.77 C 70.62 45.34 70.14 44.47 69.91 44.04 Z" />
</g>
<g id="#533f3bff">
<path fill="#533f3b" opacity="1.00" d=" M 23.35 43.67 C 25.02 44.70 26.52 45.97 27.95 47.32 C 28.33 48.24 28.74 49.15 29.17 50.05 C 28.38 50.67 27.60 51.29 26.81 51.91 C 25.79 52.12 24.77 52.51 23.71 52.27 C 23.81 50.07 25.26 47.68 24.00 45.62 C 23.84 45.13 23.51 44.15 23.35 43.67 Z" />
</g>
<g id="#795c4bff">
<path fill="#795c4b" opacity="1.00" d=" M 46.08 46.51 C 47.90 45.75 49.81 44.92 51.82 45.02 C 52.70 46.08 53.01 47.42 53.35 48.72 C 53.15 50.85 53.00 52.99 52.89 55.13 C 51.54 54.83 47.24 55.56 50.16 53.69 C 54.07 55.04 51.67 49.38 51.96 47.01 C 50.27 47.07 47.48 46.27 47.85 48.94 C 45.60 51.17 46.37 48.13 46.08 46.51 Z" />
</g>
<g id="#e4e1ddff">
<path fill="#e4e1dd" opacity="1.00" d=" M 22.05 52.09 C 21.81 49.71 22.40 47.43 24.00 45.62 C 25.26 47.68 23.81 50.07 23.71 52.27 C 23.30 52.22 22.47 52.14 22.05 52.09 Z" />
</g>
<g id="#927055ff">
<path fill="#927055" opacity="1.00" d=" M 63.86 53.45 C 67.03 51.63 67.83 47.52 70.86 45.77 C 72.68 48.76 74.04 52.12 72.91 55.76 C 70.13 57.61 66.86 56.66 63.77 56.25 C 63.79 55.55 63.84 54.15 63.86 53.45 Z" />
</g>
<g id="#a0562fff">
<path fill="#a0562f" opacity="1.00" d=" M 72.97 46.21 L 74.03 45.79 C 74.65 46.88 75.22 48.01 75.84 49.10 C 75.95 49.77 76.18 51.11 76.29 51.77 C 76.13 53.52 75.94 55.26 75.74 57.00 C 74.79 57.79 73.85 58.60 72.89 59.38 C 70.21 59.70 67.53 59.99 64.84 60.26 C 64.55 59.77 63.97 58.79 63.67 58.30 C 67.02 57.79 70.71 58.52 73.72 56.72 C 76.22 53.48 73.62 49.64 72.97 46.21 Z" />
</g>
<g id="#6b5743b2">
<path fill="#6b5743" opacity="0.70" d=" M 112.19 45.84 L 112.92 45.98 C 111.79 48.33 115.26 55.28 111.00 55.22 L 111.13 54.49 C 112.39 51.79 112.03 48.75 112.19 45.84 Z" />
</g>
<g id="#2f211eff">
<path fill="#2f211e" opacity="1.00" d=" M 41.10 50.31 C 42.63 48.89 44.04 47.20 46.08 46.51 C 46.37 48.13 45.60 51.17 47.85 48.94 C 47.88 49.46 47.95 50.52 47.98 51.05 C 45.84 51.45 43.64 51.50 41.50 51.94 L 40.75 51.87 C 40.84 51.48 41.01 50.70 41.10 50.31 Z" />
</g>
<g id="#dcdcdcff">
<path fill="#dcdcdc" opacity="1.00" d=" M 47.85 48.94 C 47.48 46.27 50.27 47.07 51.96 47.01 C 51.67 49.38 54.07 55.04 50.16 53.69 C 49.70 53.55 48.77 53.27 48.31 53.13 C 48.23 52.61 48.06 51.57 47.98 51.05 C 47.95 50.52 47.88 49.46 47.85 48.94 Z" />
</g>
<g id="#c3966efd">
<path fill="#c3966e" opacity="1.00" d=" M 97.99 53.01 C 104.02 55.62 105.07 47.58 109.79 46.97 C 110.25 49.47 110.70 51.98 111.13 54.49 L 111.00 55.22 C 109.77 59.15 109.14 64.73 105.84 66.96 C 106.78 63.65 108.25 60.51 109.17 57.19 C 99.15 61.29 88.80 55.86 79.01 53.26 C 78.48 53.42 77.40 53.76 76.87 53.93 C 76.72 53.39 76.43 52.31 76.29 51.77 C 76.18 51.11 75.95 49.77 75.84 49.10 C 83.48 48.62 90.29 53.64 97.99 53.01 Z" />
</g>
<g id="#e19f59f4">
<path fill="#e19f59" opacity="0.96" d=" M 18.30 47.70 C 18.89 49.91 19.45 52.14 19.99 54.37 C 19.41 55.00 18.81 55.61 18.19 56.22 C 17.91 53.36 17.94 50.52 18.30 47.70 Z" />
</g>
<g id="#824a2bff">
<path fill="#824a2b" opacity="1.00" d=" M 53.35 48.72 C 53.53 49.33 53.89 50.57 54.06 51.19 C 54.10 51.84 54.18 53.14 54.22 53.79 C 55.34 54.84 60.34 54.45 57.97 56.33 C 56.26 56.00 54.56 55.62 52.89 55.13 C 53.00 52.99 53.15 50.85 53.35 48.72 Z" />
</g>
<g id="#af7951ff">
<path fill="#af7951" opacity="1.00" d=" M 29.17 50.05 C 33.15 49.85 37.13 50.64 41.10 50.31 C 41.01 50.70 40.84 51.48 40.75 51.87 C 37.78 51.83 34.71 50.67 31.79 51.58 C 30.49 51.90 29.20 52.28 27.90 52.64 C 27.63 52.45 27.09 52.09 26.81 51.91 C 27.60 51.29 28.38 50.67 29.17 50.05 Z" />
</g>
<g id="#e6be92ff">
<path fill="#e6be92" opacity="1.00" d=" M 31.79 51.58 C 34.71 50.67 37.78 51.83 40.75 51.87 L 41.50 51.94 C 43.60 52.80 46.12 54.99 48.31 53.13 C 48.77 53.27 49.70 53.55 50.16 53.69 C 47.24 55.56 51.54 54.83 52.89 55.13 C 54.56 55.62 56.26 56.00 57.97 56.33 C 60.56 57.78 61.71 60.84 62.02 63.65 C 61.69 64.26 61.04 65.48 60.71 66.09 C 60.41 63.95 59.85 61.89 59.03 59.92 C 57.39 56.65 52.56 57.39 49.69 57.69 C 39.87 60.45 29.71 61.56 19.85 64.04 C 20.68 60.05 27.70 61.53 28.05 57.27 C 31.01 57.95 35.16 58.67 35.95 54.95 C 36.67 52.40 33.31 52.51 31.79 51.58 Z" />
</g>
<g id="#5d5560ff">
<path fill="#5d5560" opacity="1.00" d=" M 41.50 51.94 C 43.64 51.50 45.84 51.45 47.98 51.05 C 48.06 51.57 48.23 52.61 48.31 53.13 C 46.12 54.99 43.60 52.80 41.50 51.94 Z" />
</g>
<g id="#f1d4a3fc">
<path fill="#f1d4a3" opacity="1.00" d=" M 22.05 52.09 C 22.47 52.14 23.30 52.22 23.71 52.27 C 24.77 52.51 25.79 52.12 26.81 51.91 C 27.09 52.09 27.63 52.45 27.90 52.64 C 26.51 54.01 27.39 55.79 28.05 57.27 C 27.70 61.53 20.68 60.05 19.85 64.04 C 19.72 64.33 19.46 64.92 19.33 65.22 C 17.58 62.85 15.25 58.52 18.19 56.22 C 18.81 55.61 19.41 55.00 19.99 54.37 C 20.70 53.63 21.38 52.87 22.05 52.09 Z" />
</g>
<g id="#67625fff">
<path fill="#67625f" opacity="1.00" d=" M 27.90 52.64 C 29.20 52.28 30.49 51.90 31.79 51.58 C 33.31 52.51 36.67 52.40 35.95 54.95 C 35.16 58.67 31.01 57.95 28.05 57.27 C 27.39 55.79 26.51 54.01 27.90 52.64 Z" />
</g>
<g id="#aa7956fe">
<path fill="#aa7956" opacity="1.00" d=" M 76.29 51.77 C 76.43 52.31 76.72 53.39 76.87 53.93 C 76.74 55.86 78.52 56.42 80.02 56.91 C 88.22 58.98 96.22 61.87 103.99 65.15 C 104.40 67.35 102.96 69.21 102.63 71.30 C 102.18 73.06 100.41 74.26 98.63 74.37 C 97.89 72.31 101.92 72.50 100.87 70.19 C 98.25 67.72 95.16 65.84 92.22 63.79 C 87.37 60.07 79.91 61.46 75.74 57.00 C 75.94 55.26 76.13 53.52 76.29 51.77 Z" />
</g>
<g id="#b78863fd">
<path fill="#b78863" opacity="1.00" d=" M 76.87 53.93 C 77.40 53.76 78.48 53.42 79.01 53.26 C 88.80 55.86 99.15 61.29 109.17 57.19 C 108.25 60.51 106.78 63.65 105.84 66.96 C 105.29 68.70 104.59 70.75 102.63 71.30 C 102.96 69.21 104.40 67.35 103.99 65.15 C 96.22 61.87 88.22 58.98 80.02 56.91 C 78.52 56.42 76.74 55.86 76.87 53.93 Z" />
</g>
<g id="#daaf85ff">
<path fill="#daaf85" opacity="1.00" d=" M 49.69 57.69 C 52.56 57.39 57.39 56.65 59.03 59.92 C 55.02 59.06 50.85 59.54 46.99 60.87 C 40.76 62.84 34.01 61.87 27.79 63.74 C 25.15 64.64 22.34 65.23 20.07 66.93 C 19.88 66.50 19.51 65.65 19.33 65.22 C 19.46 64.92 19.72 64.33 19.85 64.04 C 29.71 61.56 39.87 60.45 49.69 57.69 Z" />
</g>
<g id="#9d6c49ff">
<path fill="#9d6c49" opacity="1.00" d=" M 72.89 59.38 C 73.85 58.60 74.79 57.79 75.74 57.00 C 79.91 61.46 87.37 60.07 92.22 63.79 C 95.16 65.84 98.25 67.72 100.87 70.19 C 101.92 72.50 97.89 72.31 98.63 74.37 C 98.41 74.57 97.97 74.98 97.75 75.19 C 95.16 64.17 81.61 63.15 72.89 59.38 Z" />
</g>
<g id="#d0a47dff">
<path fill="#d0a47d" opacity="1.00" d=" M 46.99 60.87 C 50.85 59.54 55.02 59.06 59.03 59.92 C 59.85 61.89 60.41 63.95 60.71 66.09 C 60.47 66.57 59.98 67.52 59.73 68.00 C 58.42 69.13 57.11 70.27 55.78 71.38 C 54.36 69.55 57.64 68.54 58.37 67.06 C 61.42 64.34 57.46 57.81 53.41 61.54 C 47.44 63.92 41.10 64.06 34.78 64.20 C 33.21 64.08 31.64 64.00 30.07 63.93 C 29.50 63.88 28.36 63.79 27.79 63.74 C 34.01 61.87 40.76 62.84 46.99 60.87 Z" />
</g>
<g id="#905d3cf9">
<path fill="#905d3c" opacity="0.98" d=" M 64.84 60.26 C 67.53 59.99 70.21 59.70 72.89 59.38 C 81.61 63.15 95.16 64.17 97.75 75.19 C 97.63 76.78 94.32 76.62 93.25 78.07 C 93.43 79.26 94.34 80.51 93.72 81.70 C 93.50 82.32 93.06 83.56 92.84 84.18 C 92.30 81.37 91.79 78.56 90.66 75.92 C 91.74 75.50 93.66 76.33 94.10 74.97 C 95.79 72.61 92.72 70.32 91.26 68.74 C 88.94 66.07 85.22 65.54 81.92 64.98 C 81.46 64.71 80.55 64.15 80.10 63.88 C 77.92 62.52 75.32 61.44 72.81 62.62 C 70.12 62.01 67.30 61.60 64.84 60.26 Z" />
</g>
<g id="#c2926cff">
<path fill="#c2926c" opacity="1.00" d=" M 53.41 61.54 C 57.46 57.81 61.42 64.34 58.37 67.06 C 57.86 62.61 53.53 64.10 51.01 65.96 C 45.56 66.05 40.00 66.02 34.78 64.20 C 41.10 64.06 47.44 63.92 53.41 61.54 Z" />
</g>
<g id="#4b4641ff">
<path fill="#4b4641" opacity="1.00" d=" M 63.30 62.10 C 69.32 62.54 75.08 65.57 78.25 70.76 C 78.41 72.84 80.20 76.37 76.74 75.89 C 73.72 70.29 68.86 65.99 62.90 63.70 C 63.00 63.30 63.20 62.50 63.30 62.10 Z" />
</g>
<g id="#6e4c34ff">
<path fill="#6e4c34" opacity="1.00" d=" M 72.81 62.62 C 75.32 61.44 77.92 62.52 80.10 63.88 C 79.52 63.97 78.38 64.15 77.81 64.25 C 76.11 63.79 74.46 63.20 72.81 62.62 Z" />
</g>
<g id="#b78963f9">
<path fill="#b78963" opacity="0.98" d=" M 20.07 66.93 C 22.34 65.23 25.15 64.64 27.79 63.74 C 28.36 63.79 29.50 63.88 30.07 63.93 C 27.56 65.60 26.25 68.29 24.85 70.84 C 24.48 71.16 23.76 71.80 23.39 72.13 C 22.95 69.98 20.76 68.89 20.07 66.93 Z" />
</g>
<g id="#aa7b58ff">
<path fill="#aa7b58" opacity="1.00" d=" M 30.07 63.93 C 31.64 64.00 33.21 64.08 34.78 64.20 C 40.00 66.02 45.56 66.05 51.01 65.96 C 43.29 67.12 35.25 68.14 28.00 71.14 C 28.03 74.00 31.64 74.82 33.41 76.61 C 37.34 76.92 41.27 77.14 45.21 77.25 C 38.88 78.68 31.51 79.33 26.99 73.89 C 26.33 73.16 25.65 72.45 24.96 71.75 L 24.85 70.84 C 26.25 68.29 27.56 65.60 30.07 63.93 Z" />
</g>
<g id="#ad7d5aff">
<path fill="#ad7d5a" opacity="1.00" d=" M 51.01 65.96 C 53.53 64.10 57.86 62.61 58.37 67.06 C 57.64 68.54 54.36 69.55 55.78 71.38 C 56.65 73.47 59.77 73.23 60.33 75.73 C 57.40 75.06 54.31 74.66 51.78 76.65 C 51.14 76.81 49.86 77.14 49.22 77.30 L 48.14 77.19 C 47.72 72.64 53.73 70.77 52.98 66.14 C 52.49 66.10 51.51 66.01 51.01 65.96 Z" />
</g>
<g id="#c77542ff">
<path fill="#c77542" opacity="1.00" d=" M 60.71 66.09 C 61.04 65.48 61.69 64.26 62.02 63.65 L 62.90 63.70 C 68.86 65.99 73.72 70.29 76.74 75.89 C 77.34 76.82 77.87 77.78 78.34 78.78 C 79.34 82.47 75.04 83.14 74.21 79.81 C 72.00 74.23 68.87 68.09 62.84 65.99 C 65.42 71.54 70.70 75.65 72.26 81.87 C 72.69 84.77 70.74 83.38 69.22 82.59 C 67.93 81.70 66.52 81.03 65.09 80.42 C 69.00 74.20 60.63 73.14 59.73 68.00 C 59.98 67.52 60.47 66.57 60.71 66.09 Z" />
</g>
<g id="#443b34ff">
<path fill="#443b34" opacity="1.00" d=" M 77.81 64.25 C 78.38 64.15 79.52 63.97 80.10 63.88 C 80.55 64.15 81.46 64.71 81.92 64.98 C 86.35 67.34 89.03 71.28 90.66 75.92 C 91.79 78.56 92.30 81.37 92.84 84.18 C 92.87 84.89 92.92 86.31 92.94 87.02 C 92.50 87.23 91.62 87.66 91.18 87.87 C 90.55 78.45 85.78 69.46 77.81 64.25 Z" />
</g>
<g id="#844f32ff">
<path fill="#844f32" opacity="1.00" d=" M 81.92 64.98 C 85.22 65.54 88.94 66.07 91.26 68.74 C 92.72 70.32 95.79 72.61 94.10 74.97 C 93.66 76.33 91.74 75.50 90.66 75.92 C 89.03 71.28 86.35 67.34 81.92 64.98 Z" />
</g>
<g id="#9a6a4aff">
<path fill="#9a6a4a" opacity="1.00" d=" M 51.01 65.96 C 51.51 66.01 52.49 66.10 52.98 66.14 C 53.73 70.77 47.72 72.64 48.14 77.19 C 47.41 77.20 45.94 77.23 45.21 77.25 C 41.27 77.14 37.34 76.92 33.41 76.61 C 31.64 74.82 28.03 74.00 28.00 71.14 C 35.25 68.14 43.29 67.12 51.01 65.96 Z" />
</g>
<g id="#51453cff">
<path fill="#51453c" opacity="1.00" d=" M 62.84 65.99 C 68.87 68.09 72.00 74.23 74.21 79.81 C 74.12 81.26 74.00 82.71 73.86 84.16 C 73.30 83.41 72.77 82.65 72.26 81.87 C 70.70 75.65 65.42 71.54 62.84 65.99 Z" />
</g>
<g id="#a75f36ff">
<path fill="#a75f36" opacity="1.00" d=" M 55.78 71.38 C 57.11 70.27 58.42 69.13 59.73 68.00 C 60.63 73.14 69.00 74.20 65.09 80.42 C 63.86 79.99 60.88 80.45 62.45 78.41 C 65.59 77.31 61.49 76.51 60.33 75.73 C 59.77 73.23 56.65 73.47 55.78 71.38 Z" />
<path fill="#a75f36" opacity="1.00" d=" M 62.18 109.94 C 63.31 110.17 64.41 110.51 65.48 110.95 C 64.89 115.15 59.61 116.01 59.60 120.27 C 58.67 119.81 57.74 119.33 56.82 118.85 C 57.88 115.48 60.48 112.97 62.18 109.94 Z" />
</g>
<g id="#ca9f75ff">
<path fill="#ca9f75" opacity="1.00" d=" M 23.39 72.13 C 23.76 71.80 24.48 71.16 24.85 70.84 L 24.96 71.75 C 24.76 78.67 32.87 83.07 39.00 82.07 C 44.18 82.05 48.70 78.88 53.82 78.39 C 57.03 79.28 58.22 82.67 60.02 85.11 C 61.76 87.69 62.53 91.11 60.97 94.00 L 59.89 94.08 C 56.52 93.40 58.41 97.95 56.70 99.75 C 53.56 104.59 51.32 110.00 47.65 114.50 C 45.49 115.29 43.14 116.36 42.86 118.97 C 40.64 118.26 38.00 115.71 35.81 117.84 C 34.13 119.58 30.57 119.66 30.99 122.73 C 30.57 122.86 29.74 123.12 29.32 123.25 C 28.80 122.27 28.29 121.29 27.79 120.31 C 29.66 116.41 34.62 117.43 36.36 113.37 C 44.04 114.05 50.54 107.70 52.84 100.87 C 54.35 96.61 56.94 92.90 59.00 88.93 C 58.33 85.73 56.72 81.43 52.79 81.50 C 47.50 82.22 42.45 84.59 36.99 84.06 C 31.28 84.17 24.85 80.94 23.79 74.84 C 23.71 74.36 23.57 73.40 23.49 72.92 L 23.39 72.13 Z" />
</g>
<g id="#3e3936ff">
<path fill="#3e3936" opacity="1.00" d=" M 78.25 70.76 C 82.91 75.33 82.56 82.30 80.96 88.20 C 80.38 86.79 79.89 85.34 79.20 83.98 C 78.98 82.24 79.13 80.39 78.34 78.78 C 77.87 77.78 77.34 76.82 76.74 75.89 C 80.20 76.37 78.41 72.84 78.25 70.76 Z" />
</g>
<g id="#c2966cff">
<path fill="#c2966c" opacity="1.00" d=" M 24.96 71.75 C 25.65 72.45 26.33 73.16 26.99 73.89 C 27.21 77.66 31.27 78.62 34.10 79.97 C 39.34 80.83 44.36 78.94 49.22 77.30 C 49.86 77.14 51.14 76.81 51.78 76.65 C 56.48 76.21 60.07 80.66 60.02 85.11 C 58.22 82.67 57.03 79.28 53.82 78.39 C 48.70 78.88 44.18 82.05 39.00 82.07 C 32.87 83.07 24.76 78.67 24.96 71.75 Z" />
</g>
<g id="#eecc9afe">
<path fill="#eecc9a" opacity="1.00" d=" M 23.49 72.92 C 23.57 73.40 23.71 74.36 23.79 74.84 C 23.05 75.51 22.33 76.20 21.64 76.92 C 19.62 78.62 20.73 82.09 22.73 83.29 C 26.49 86.04 30.49 88.80 35.10 89.88 C 39.43 89.97 43.56 88.08 47.89 87.98 C 47.56 91.26 47.70 94.54 47.85 97.84 C 43.32 100.89 38.77 104.03 35.53 108.51 C 32.08 108.29 28.65 108.54 25.21 108.88 C 23.49 106.80 22.92 103.59 20.43 102.24 C 19.68 103.05 18.92 103.87 18.16 104.67 L 17.20 105.05 C 16.56 102.18 18.82 99.78 19.01 97.01 C 19.49 94.16 15.60 94.51 14.08 92.90 C 15.51 89.72 17.47 86.68 17.96 83.17 C 16.99 82.27 14.44 82.20 15.22 80.35 C 17.42 79.49 19.09 77.77 19.40 75.37 C 20.75 74.54 22.15 73.78 23.49 72.92 Z" />
</g>
<g id="#b98b62ff">
<path fill="#b98b62" opacity="1.00" d=" M 26.99 73.89 C 31.51 79.33 38.88 78.68 45.21 77.25 C 45.94 77.23 47.41 77.20 48.14 77.19 L 49.22 77.30 C 44.36 78.94 39.34 80.83 34.10 79.97 C 31.27 78.62 27.21 77.66 26.99 73.89 Z" />
</g>
<g id="#d6ae81ff">
<path fill="#d6ae81" opacity="1.00" d=" M 21.64 76.92 C 22.33 76.20 23.05 75.51 23.79 74.84 C 24.85 80.94 31.28 84.17 36.99 84.06 C 42.45 84.59 47.50 82.22 52.79 81.50 C 56.72 81.43 58.33 85.73 59.00 88.93 C 56.94 92.90 54.35 96.61 52.84 100.87 C 50.54 107.70 44.04 114.05 36.36 113.37 C 34.62 117.43 29.66 116.41 27.79 120.31 C 27.52 120.01 26.98 119.42 26.71 119.13 C 27.47 118.17 28.26 117.23 29.05 116.30 C 33.21 111.97 38.69 109.21 44.29 107.26 C 51.35 104.56 51.03 96.22 54.52 90.59 C 56.75 87.11 51.51 82.86 48.09 85.21 C 38.89 88.53 26.05 86.85 21.64 76.92 Z" />
</g>
<g id="#bb8c65ff">
<path fill="#bb8c65" opacity="1.00" d=" M 51.78 76.65 C 54.31 74.66 57.40 75.06 60.33 75.73 C 61.49 76.51 65.59 77.31 62.45 78.41 C 60.88 80.45 63.86 79.99 65.09 80.42 C 66.52 81.03 67.93 81.70 69.22 82.59 C 67.66 84.09 64.13 84.29 64.09 86.80 C 65.26 88.79 74.10 92.00 68.92 93.83 C 67.60 93.91 66.28 93.97 64.96 94.01 C 63.63 94.00 62.30 93.99 60.97 94.00 C 62.53 91.11 61.76 87.69 60.02 85.11 C 60.07 80.66 56.48 76.21 51.78 76.65 Z" />
</g>
<g id="#e0b98bff">
<path fill="#e0b98b" opacity="1.00" d=" M 22.73 83.29 C 20.73 82.09 19.62 78.62 21.64 76.92 C 26.05 86.85 38.89 88.53 48.09 85.21 C 51.51 82.86 56.75 87.11 54.52 90.59 C 51.03 96.22 51.35 104.56 44.29 107.26 C 38.69 109.21 33.21 111.97 29.05 116.30 C 27.39 115.54 25.83 114.61 24.24 113.73 C 22.49 111.03 20.01 112.17 19.62 115.10 C 19.05 114.42 18.49 113.74 17.93 113.05 C 18.43 110.28 18.50 107.47 18.16 104.67 C 18.92 103.87 19.68 103.05 20.43 102.24 C 22.92 103.59 23.49 106.80 25.21 108.88 C 28.65 108.54 32.08 108.29 35.53 108.51 C 38.77 104.03 43.32 100.89 47.85 97.84 C 47.70 94.54 47.56 91.26 47.89 87.98 C 43.56 88.08 39.43 89.97 35.10 89.88 C 30.49 88.80 26.49 86.04 22.73 83.29 Z" />
</g>
<g id="#cd7e4cf4">
<path fill="#cd7e4c" opacity="0.96" d=" M 92.84 84.18 C 93.06 83.56 93.50 82.32 93.72 81.70 C 94.36 88.08 93.79 94.51 92.80 100.83 C 92.54 101.20 92.01 101.95 91.75 102.32 C 90.40 97.33 93.17 92.16 92.94 87.02 C 92.92 86.31 92.87 84.89 92.84 84.18 Z" />
</g>
<g id="#70452fff">
<path fill="#70452f" opacity="1.00" d=" M 79.20 83.98 C 79.89 85.34 80.38 86.79 80.96 88.20 C 79.08 92.47 77.65 87.03 79.20 83.98 Z" />
</g>
<g id="#b88a64ff">
<path fill="#b88a64" opacity="1.00" d=" M 56.70 99.75 C 58.41 97.95 56.52 93.40 59.89 94.08 C 60.18 96.84 62.95 99.84 59.95 101.98 L 59.25 101.72 C 59.01 101.63 58.53 101.44 58.29 101.35 C 56.26 107.26 50.55 111.53 50.11 118.07 C 50.08 118.50 50.02 119.37 49.99 119.80 C 49.96 120.41 49.89 121.62 49.85 122.23 C 47.53 121.07 45.69 118.79 42.86 118.97 C 43.14 116.36 45.49 115.29 47.65 114.50 C 51.32 110.00 53.56 104.59 56.70 99.75 Z" />
</g>
<g id="#ac7c58ff">
<path fill="#ac7c58" opacity="1.00" d=" M 59.89 94.08 L 60.97 94.00 C 62.30 93.99 63.63 94.00 64.96 94.01 C 65.66 95.28 66.34 96.55 66.95 97.87 C 65.61 97.97 64.27 98.07 62.93 98.18 C 62.94 99.96 66.48 103.34 63.13 103.23 C 62.06 102.83 61.00 102.42 59.95 101.98 C 62.95 99.84 60.18 96.84 59.89 94.08 Z" />
</g>
<g id="#a15a32ff">
<path fill="#a15a32" opacity="1.00" d=" M 64.96 94.01 C 66.28 93.97 67.60 93.91 68.92 93.83 C 69.42 98.81 69.01 104.92 64.91 108.43 C 63.17 107.18 63.33 105.12 63.13 103.23 C 66.48 103.34 62.94 99.96 62.93 98.18 C 64.27 98.07 65.61 97.97 66.95 97.87 C 66.34 96.55 65.66 95.28 64.96 94.01 Z" />
</g>
<g id="#b16336ff">
<path fill="#b16336" opacity="1.00" d=" M 68.92 93.83 C 72.67 93.09 72.71 97.34 73.03 99.98 C 75.26 105.48 69.45 107.40 66.29 110.09 C 65.94 109.67 65.25 108.84 64.91 108.43 C 69.01 104.92 69.42 98.81 68.92 93.83 Z" />
</g>
<g id="#ad7d58ff">
<path fill="#ad7d58" opacity="1.00" d=" M 58.29 101.35 C 58.53 101.44 59.01 101.63 59.25 101.72 C 61.10 104.52 60.67 107.06 57.71 108.76 L 57.11 109.19 C 55.05 110.96 53.81 113.63 53.02 116.20 C 52.06 116.84 51.08 117.45 50.11 118.07 C 50.55 111.53 56.26 107.26 58.29 101.35 Z" />
</g>
<g id="#3f342cf1">
<path fill="#3f342c" opacity="0.95" d=" M 91.75 102.32 C 92.01 101.95 92.54 101.20 92.80 100.83 C 92.98 102.79 93.21 104.80 92.82 106.76 C 91.75 107.86 90.70 108.97 89.69 110.14 C 88.63 109.81 87.59 109.43 86.58 108.99 C 86.78 105.77 90.41 104.92 91.75 102.32 Z" />
</g>
<g id="#a26f4cff">
<path fill="#a26f4c" opacity="1.00" d=" M 59.25 101.72 L 59.95 101.98 C 61.00 102.42 62.06 102.83 63.13 103.23 C 63.33 105.12 63.17 107.18 64.91 108.43 C 65.25 108.84 65.94 109.67 66.29 110.09 C 66.09 110.30 65.68 110.74 65.48 110.95 C 64.41 110.51 63.31 110.17 62.18 109.94 C 60.68 109.57 59.18 109.23 57.71 108.76 C 60.67 107.06 61.10 104.52 59.25 101.72 Z" />
</g>
<g id="#ce834df1">
<path fill="#ce834d" opacity="0.95" d=" M 17.20 105.05 L 18.16 104.67 C 18.50 107.47 18.43 110.28 17.93 113.05 L 17.09 113.05 C 16.77 110.36 16.81 107.69 17.20 105.05 Z" />
</g>
<g id="#c47947fa">
<path fill="#c47947" opacity="0.98" d=" M 89.69 110.14 C 90.70 108.97 91.75 107.86 92.82 106.76 C 92.99 108.19 93.08 109.63 93.09 111.07 C 92.77 111.57 92.14 112.59 91.83 113.09 C 91.12 112.10 90.42 111.11 89.69 110.14 Z" />
</g>
<g id="#9c6a48ff">
<path fill="#9c6a48" opacity="1.00" d=" M 53.02 116.20 C 53.81 113.63 55.05 110.96 57.11 109.19 C 58.02 112.82 57.05 116.52 53.02 116.20 Z" />
</g>
<g id="#8e5939ff">
<path fill="#8e5939" opacity="1.00" d=" M 57.11 109.19 L 57.71 108.76 C 59.18 109.23 60.68 109.57 62.18 109.94 C 60.48 112.97 57.88 115.48 56.82 118.85 C 52.49 115.83 59.05 126.80 54.01 123.02 C 53.82 122.76 53.44 122.23 53.24 121.97 C 52.51 120.81 51.29 120.14 49.99 119.80 C 50.02 119.37 50.08 118.50 50.11 118.07 C 51.08 117.45 52.06 116.84 53.02 116.20 C 57.05 116.52 58.02 112.82 57.11 109.19 Z" />
</g>
<g id="#403b38ff">
<path fill="#403b38" opacity="1.00" d=" M 61.03 120.94 C 66.60 118.00 70.76 113.37 75.01 108.88 C 75.75 118.13 69.01 125.05 62.74 130.82 C 58.47 131.49 55.90 126.02 54.01 123.02 C 59.05 126.80 52.49 115.83 56.82 118.85 C 57.74 119.33 58.67 119.81 59.60 120.27 C 59.96 120.43 60.67 120.77 61.03 120.94 Z" />
</g>
<g id="#b06236fe">
<path fill="#b06236" opacity="1.00" d=" M 82.00 117.16 C 84.93 115.54 86.71 112.42 86.58 108.99 C 87.59 109.43 88.63 109.81 89.69 110.14 C 90.42 111.11 91.12 112.10 91.83 113.09 C 90.88 114.66 89.83 116.19 89.10 117.88 C 89.82 119.15 90.96 118.51 91.98 118.06 C 92.61 119.94 92.51 121.89 91.80 123.74 C 89.46 125.70 85.67 125.01 83.71 127.69 C 81.02 129.53 82.24 133.07 81.90 135.90 C 79.66 137.78 76.37 135.89 73.66 135.83 L 73.54 135.12 C 73.89 132.82 74.26 130.53 74.65 128.25 C 75.87 126.63 77.38 122.52 73.99 122.82 L 73.98 121.96 C 74.95 119.04 75.79 116.08 76.29 113.04 C 79.25 112.35 79.72 116.25 82.00 117.16 Z" />
</g>
<g id="#3e3229f1">
<path fill="#3e3229" opacity="0.95" d=" M 93.09 111.07 C 95.00 110.70 93.82 114.51 93.70 115.77 C 93.12 116.53 92.54 117.29 91.98 118.06 C 90.96 118.51 89.82 119.15 89.10 117.88 C 89.83 116.19 90.88 114.66 91.83 113.09 C 92.14 112.59 92.77 111.57 93.09 111.07 Z" />
</g>
<g id="#b76e3fff">
<path fill="#b76e3f" opacity="1.00" d=" M 19.62 115.10 C 20.01 112.17 22.49 111.03 24.24 113.73 C 24.40 115.26 24.62 116.78 24.78 118.31 C 23.45 117.85 22.12 117.37 20.84 116.78 C 20.53 116.36 19.92 115.52 19.62 115.10 Z" />
</g>
<g id="#454645fa">
<path fill="#454645" opacity="0.98" d=" M 17.09 113.05 L 17.93 113.05 C 18.49 113.74 19.05 114.42 19.62 115.10 C 19.92 115.52 20.53 116.36 20.84 116.78 C 18.70 119.07 23.47 120.49 23.02 122.99 C 23.93 126.54 19.48 124.08 17.50 124.91 C 17.10 123.88 16.73 122.83 16.33 121.79 C 15.22 118.91 15.98 115.77 17.09 113.05 Z" />
</g>
<g id="#cc9e71ff">
<path fill="#cc9e71" opacity="1.00" d=" M 24.24 113.73 C 25.83 114.61 27.39 115.54 29.05 116.30 C 28.26 117.23 27.47 118.17 26.71 119.13 C 26.23 118.92 25.26 118.52 24.78 118.31 C 24.62 116.78 24.40 115.26 24.24 113.73 Z" />
</g>
<g id="#bf6e3ff9">
<path fill="#bf6e3f" opacity="0.98" d=" M 91.98 118.06 C 92.54 117.29 93.12 116.53 93.70 115.77 C 95.10 121.27 96.02 127.37 93.67 132.72 C 91.24 136.46 85.98 136.66 81.94 136.98 L 81.90 135.90 C 82.24 133.07 81.02 129.53 83.71 127.69 C 85.67 125.01 89.46 125.70 91.80 123.74 C 92.51 121.89 92.61 119.94 91.98 118.06 Z" />
</g>
<g id="#3c3836ff">
<path fill="#3c3836" opacity="1.00" d=" M 23.02 122.99 C 23.47 120.49 18.70 119.07 20.84 116.78 C 22.12 117.37 23.45 117.85 24.78 118.31 C 25.26 118.52 26.23 118.92 26.71 119.13 C 26.98 119.42 27.52 120.01 27.79 120.31 C 28.29 121.29 28.80 122.27 29.32 123.25 C 28.13 125.36 25.80 126.40 23.86 127.70 C 22.30 128.43 20.87 129.93 19.02 129.25 C 18.48 127.82 17.98 126.37 17.50 124.91 C 19.48 124.08 23.93 126.54 23.02 122.99 Z" />
</g>
<g id="#ad7c58fe">
<path fill="#ad7c58" opacity="1.00" d=" M 35.81 117.84 C 38.00 115.71 40.64 118.26 42.86 118.97 C 41.93 120.54 40.99 122.10 40.07 123.68 C 38.98 124.43 37.86 125.15 36.78 125.93 C 36.39 126.18 35.62 126.68 35.23 126.93 C 33.91 125.43 32.48 124.05 30.99 122.73 C 30.57 119.66 34.13 119.58 35.81 117.84 Z" />
</g>
<g id="#926446f0">
<path fill="#926446" opacity="0.94" d=" M 42.86 118.97 C 45.69 118.79 47.53 121.07 49.85 122.23 C 49.95 122.96 50.14 124.41 50.23 125.14 C 50.02 125.42 49.59 125.98 49.38 126.26 C 49.54 122.24 45.44 124.54 46.64 127.29 C 47.86 129.60 45.34 130.08 44.68 131.89 C 42.53 129.84 42.01 126.12 40.07 123.68 C 40.99 122.10 41.93 120.54 42.86 118.97 Z" />
</g>
<g id="#301e1480">
<path fill="#301e14" opacity="0.50" d=" M 49.99 119.80 C 51.29 120.14 52.51 120.81 53.24 121.97 C 52.28 123.06 51.26 124.11 50.23 125.14 C 50.14 124.41 49.95 122.96 49.85 122.23 C 49.89 121.62 49.96 120.41 49.99 119.80 Z" />
</g>
<g id="#cd804bf5">
<path fill="#cd804b" opacity="0.96" d=" M 16.33 121.79 C 16.73 122.83 17.10 123.88 17.50 124.91 C 17.98 126.37 18.48 127.82 19.02 129.25 C 18.86 131.96 18.66 140.45 13.91 139.39 C 14.23 140.28 14.59 141.14 14.98 142.00 C 14.23 142.00 12.74 142.00 11.99 142.00 C 11.59 139.70 12.60 137.65 13.57 135.65 C 14.66 131.06 14.91 126.30 16.33 121.79 Z" />
</g>
<g id="#d57d45ff">
<path fill="#d57d45" opacity="1.00" d=" M 73.54 135.12 C 72.49 130.81 72.71 126.20 73.98 121.96 L 73.99 122.82 C 73.96 124.65 74.13 126.48 74.65 128.25 C 74.26 130.53 73.89 132.82 73.54 135.12 Z" />
</g>
<g id="#9b5630fd">
<path fill="#9b5630" opacity="1.00" d=" M 29.32 123.25 C 29.74 123.12 30.57 122.86 30.99 122.73 C 30.69 128.55 30.66 134.58 28.28 140.00 C 28.41 140.47 28.67 141.41 28.80 141.88 C 27.22 142.22 25.67 142.66 24.10 143.05 C 25.15 141.56 24.39 140.47 22.96 139.67 C 26.79 137.06 26.21 132.25 25.86 128.14 C 25.36 128.03 24.36 127.81 23.86 127.70 C 25.80 126.40 28.13 125.36 29.32 123.25 Z" />
</g>
<g id="#904c2af7">
<path fill="#904c2a" opacity="0.97" d=" M 30.99 122.73 C 32.48 124.05 33.91 125.43 35.23 126.93 C 34.47 131.30 32.53 135.37 31.70 139.74 C 30.82 140.52 30.20 142.09 28.80 141.88 C 28.67 141.41 28.41 140.47 28.28 140.00 C 30.66 134.58 30.69 128.55 30.99 122.73 Z" />
</g>
<g id="#2e1a0f6b">
<path fill="#2e1a0f" opacity="0.42" d=" M 73.99 122.82 C 77.38 122.52 75.87 126.63 74.65 128.25 C 74.13 126.48 73.96 124.65 73.99 122.82 Z" />
</g>
<g id="#7f5c44d3">
<path fill="#7f5c44" opacity="0.83" d=" M 36.78 125.93 C 37.86 125.15 38.98 124.43 40.07 123.68 C 40.06 125.79 40.06 127.91 39.93 130.02 C 37.45 130.60 37.45 127.54 36.78 125.93 Z" />
</g>
<g id="#b4693bff">
<path fill="#b4693b" opacity="1.00" d=" M 19.02 129.25 C 20.87 129.93 22.30 128.43 23.86 127.70 C 24.36 127.81 25.36 128.03 25.86 128.14 C 26.21 132.25 26.79 137.06 22.96 139.67 C 22.21 140.41 21.48 141.18 20.76 141.95 C 18.83 142.00 16.91 142.02 14.98 142.00 C 14.59 141.14 14.23 140.28 13.91 139.39 C 18.66 140.45 18.86 131.96 19.02 129.25 Z" />
</g>
<g id="#ae9686f8">
<path fill="#ae9686" opacity="0.97" d=" M 20.76 141.95 C 21.48 141.18 22.21 140.41 22.96 139.67 C 24.39 140.47 25.15 141.56 24.10 143.05 C 23.33 143.01 21.78 142.94 21.01 142.90 L 20.76 141.95 Z" />
</g>
<g id="#8e6e56e1">
<path fill="#8e6e56" opacity="0.88" d=" M 54.09 139.74 C 56.94 140.60 59.52 142.47 62.66 141.95 L 63.04 142.87 C 60.03 143.02 57.02 143.10 54.01 142.97 C 54.03 142.17 54.07 140.55 54.09 139.74 Z" />
</g>
<g id="#b69d87fc">
<path fill="#b69d87" opacity="1.00" d=" M 62.66 141.95 C 63.96 141.11 65.27 140.18 66.84 139.90 C 66.91 140.68 67.05 142.24 67.12 143.02 C 65.76 143.07 64.39 143.02 63.04 142.87 L 62.66 141.95 Z" />
</g>
<g id="#2a1a1379">
<path fill="#2a1a13" opacity="0.47" d=" M 11.99 142.00 C 12.74 142.00 14.23 142.00 14.98 142.00 C 16.91 142.02 18.83 142.00 20.76 141.95 L 21.01 142.90 C 18.64 142.12 12.95 144.50 11.99 142.00 Z" />
</g>
</svg>
