<?xml version="1.0" encoding="UTF-8" ?>
<!DOCTYPE svg PUBLIC "-//W3C//DTD SVG 1.1//EN" "http://www.w3.org/Graphics/SVG/1.1/DTD/svg11.dtd">
<svg width="166pt" height="208pt" viewBox="0 0 166 208" version="1.1" xmlns="http://www.w3.org/2000/svg">
<g id="#f1ca9cfc">
<path fill="#f1ca9c" opacity="1.00" d=" M 112.32 8.01 C 114.00 8.66 113.97 10.50 114.22 12.01 C 115.80 12.05 116.75 10.70 117.94 9.90 C 117.95 11.44 117.98 14.51 117.99 16.05 C 118.17 18.98 118.93 14.61 120.04 15.01 C 121.50 17.66 122.40 20.57 123.72 23.29 C 125.85 28.00 131.51 30.13 133.09 35.21 C 130.45 35.44 127.80 35.45 125.16 35.60 C 123.27 37.23 121.56 39.07 119.67 40.69 C 116.94 42.09 113.84 40.54 111.11 41.83 L 110.28 41.82 C 106.49 41.04 102.72 39.95 98.82 39.90 C 100.08 37.53 104.94 32.96 96.03 36.04 C 91.25 37.49 89.39 36.43 90.62 32.84 C 90.46 32.01 90.28 31.20 90.07 30.38 C 96.48 25.46 101.86 19.32 106.97 12.99 C 107.03 8.82 112.21 11.43 112.32 8.01 Z" />
</g>
<g id="#e9c095fe">
<path fill="#e9c095" opacity="1.00" d=" M 55.43 19.13 C 57.72 16.63 60.06 14.11 62.74 12.00 C 63.17 13.61 64.99 18.25 65.18 14.01 C 66.84 14.66 66.54 17.26 67.18 18.76 C 70.02 17.03 74.14 18.20 73.14 22.18 C 71.92 23.59 69.01 24.53 70.16 26.85 C 73.23 33.06 73.12 41.33 69.20 47.20 C 63.79 56.97 48.56 49.72 42.68 59.34 L 42.05 58.78 C 41.33 57.91 40.60 57.06 39.89 56.18 C 41.92 53.57 45.61 53.37 47.81 50.92 C 44.90 48.00 46.90 44.28 48.23 41.11 C 51.61 42.32 55.18 42.97 58.50 44.37 C 62.36 46.29 65.51 43.31 67.79 40.73 C 69.02 37.36 65.57 34.97 63.81 32.56 C 56.52 33.80 55.79 24.10 55.43 19.13 Z" />
</g>
<g id="#f5cd9ffe">
<path fill="#f5cd9f" opacity="1.00" d=" M 50.89 19.71 C 52.52 18.37 53.04 16.01 54.84 14.92 C 55.04 16.32 55.22 17.73 55.43 19.13 C 55.79 24.10 56.52 33.80 63.81 32.56 C 65.57 34.97 69.02 37.36 67.79 40.73 C 65.51 43.31 62.36 46.29 58.50 44.37 C 55.18 42.97 51.61 42.32 48.23 41.11 C 46.90 44.28 44.90 48.00 47.81 50.92 C 45.61 53.37 41.92 53.57 39.89 56.18 C 39.66 55.90 39.20 55.35 38.97 55.07 C 37.76 53.35 36.36 51.78 34.92 50.25 C 40.38 48.75 41.16 41.96 43.90 37.88 C 43.30 33.90 43.05 29.91 43.24 25.88 C 43.34 23.93 45.71 23.42 45.18 26.06 C 48.09 24.38 46.55 17.34 50.89 19.71 Z" />
</g>
<g id="#d9af86fd">
<path fill="#d9af86" opacity="1.00" d=" M 73.14 22.18 C 74.45 21.97 74.29 24.20 75.10 24.93 C 76.40 24.35 77.64 23.64 78.93 23.03 C 78.98 24.36 79.03 25.69 79.10 27.02 C 80.26 27.21 83.06 24.85 82.94 26.97 C 82.32 29.79 85.47 28.85 87.18 29.33 C 83.82 30.52 78.68 30.03 76.94 33.96 C 74.78 39.03 73.74 44.57 72.84 49.99 C 72.33 50.19 71.31 50.59 70.80 50.79 C 70.28 51.01 69.25 51.47 68.73 51.70 C 66.66 52.61 64.64 53.65 62.71 54.84 C 59.74 56.83 56.05 58.04 53.83 60.98 C 50.31 60.74 46.83 60.06 43.33 60.86 C 43.16 60.48 42.84 59.72 42.68 59.34 C 48.56 49.72 63.79 56.97 69.20 47.20 C 73.12 41.33 73.23 33.06 70.16 26.85 C 69.01 24.53 71.92 23.59 73.14 22.18 Z" />
</g>
<g id="#fbe9b2fd">
<path fill="#fbe9b2" opacity="1.00" d=" M 36.19 24.03 C 38.74 23.55 41.00 24.89 43.24 25.88 C 43.05 29.91 43.30 33.90 43.90 37.88 C 41.16 41.96 40.38 48.75 34.92 50.25 C 34.40 50.16 33.37 49.99 32.86 49.90 C 32.90 49.49 32.97 48.66 33.01 48.25 C 34.40 46.33 33.68 42.78 30.88 42.97 L 30.17 42.69 C 29.72 41.44 28.30 39.91 29.78 38.79 C 32.10 36.89 29.54 34.27 29.09 32.06 C 35.42 34.60 35.56 27.78 36.19 24.03 Z" />
</g>
<g id="#cea37bff">
<path fill="#cea37b" opacity="1.00" d=" M 87.18 29.33 C 88.20 29.45 89.16 29.80 90.07 30.38 C 90.28 31.20 90.46 32.01 90.62 32.84 C 86.01 33.02 82.86 36.95 78.99 38.98 C 74.62 41.05 77.32 48.99 72.84 49.99 C 73.74 44.57 74.78 39.03 76.94 33.96 C 78.68 30.03 83.82 30.52 87.18 29.33 Z" />
</g>
<g id="#c29671ff">
<path fill="#c29671" opacity="1.00" d=" M 78.99 38.98 C 82.86 36.95 86.01 33.02 90.62 32.84 C 89.39 36.43 91.25 37.49 96.03 36.04 C 104.94 32.96 100.08 37.53 98.82 39.90 C 97.28 39.90 95.74 39.86 94.21 39.77 C 86.41 35.59 76.33 42.19 76.80 50.86 L 76.05 51.20 C 74.30 51.04 72.55 50.90 70.80 50.79 C 71.31 50.59 72.33 50.19 72.84 49.99 C 77.32 48.99 74.62 41.05 78.99 38.98 Z" />
</g>
<g id="#e1b78dff">
<path fill="#e1b78d" opacity="1.00" d=" M 125.16 35.60 C 127.80 35.45 130.45 35.44 133.09 35.21 C 135.80 36.66 139.51 39.59 139.26 43.32 C 136.30 44.15 132.97 42.43 130.28 44.28 C 126.42 49.60 121.14 55.55 114.10 55.78 C 110.69 54.88 107.30 53.89 103.89 53.00 C 106.13 49.17 108.81 45.63 111.11 41.83 C 113.84 40.54 116.94 42.09 119.67 40.69 C 121.56 39.07 123.27 37.23 125.16 35.60 Z" />
</g>
<g id="#b38562ff">
<path fill="#b38562" opacity="1.00" d=" M 76.80 50.86 C 76.33 42.19 86.41 35.59 94.21 39.77 C 91.63 39.90 88.80 39.88 86.81 41.79 C 83.26 44.55 80.85 48.76 76.80 50.86 Z" />
</g>
<g id="#d68349f6">
<path fill="#d68349" opacity="0.96" d=" M 13.03 40.18 C 17.58 39.17 24.23 37.52 27.30 41.50 C 23.60 42.86 18.58 39.13 16.20 43.24 C 16.78 48.28 19.80 53.13 23.91 56.20 C 23.43 56.44 22.46 56.93 21.98 57.18 C 17.60 53.12 13.74 46.51 13.03 40.18 Z" />
</g>
<g id="#ce7d47ff">
<path fill="#ce7d47" opacity="1.00" d=" M 86.81 41.79 C 88.80 39.88 91.63 39.90 94.21 39.77 C 95.74 39.86 97.28 39.90 98.82 39.90 C 102.72 39.95 106.49 41.04 110.28 41.82 C 108.74 42.86 107.17 43.90 105.31 44.22 C 100.39 41.45 94.45 41.53 89.14 43.08 C 88.55 42.76 87.39 42.11 86.81 41.79 Z" />
</g>
<g id="#9f5f37fb">
<path fill="#9f5f37" opacity="1.00" d=" M 16.20 43.24 C 18.58 39.13 23.60 42.86 27.30 41.50 C 28.37 41.38 29.12 42.53 30.17 42.69 L 30.88 42.97 C 29.64 45.11 31.99 46.60 33.01 48.25 C 32.97 48.66 32.90 49.49 32.86 49.90 C 32.44 52.65 32.22 55.43 31.95 58.20 L 31.07 58.14 C 28.12 56.81 25.75 57.07 23.98 58.90 L 23.27 58.80 C 22.95 58.40 22.31 57.59 21.98 57.18 C 22.46 56.93 23.43 56.44 23.91 56.20 C 26.06 55.70 32.04 56.49 30.54 52.94 C 29.82 50.40 28.72 47.95 27.17 45.80 C 25.40 42.24 21.41 42.84 17.98 43.01 C 17.62 47.04 19.99 50.86 22.94 53.42 C 24.39 54.46 26.47 53.92 28.17 54.20 C 26.74 54.85 25.24 55.35 23.91 56.20 C 19.80 53.13 16.78 48.28 16.20 43.24 Z" />
</g>
<g id="#b06437ff">
<path fill="#b06437" opacity="1.00" d=" M 76.80 50.86 C 80.85 48.76 83.26 44.55 86.81 41.79 C 87.39 42.11 88.55 42.76 89.14 43.08 C 88.37 43.63 87.61 44.19 86.87 44.77 C 83.77 47.28 80.84 50.84 80.90 55.01 C 80.30 56.30 79.67 57.58 79.00 58.84 C 78.32 59.86 77.86 61.04 77.00 61.94 C 76.24 58.94 75.31 55.96 75.13 52.85 C 77.11 53.41 77.00 52.54 76.05 51.20 L 76.80 50.86 Z" />
</g>
<g id="#824c2bff">
<path fill="#824c2b" opacity="1.00" d=" M 89.14 43.08 C 94.45 41.53 100.39 41.45 105.31 44.22 C 104.74 46.81 103.52 49.20 102.01 51.37 C 101.76 51.04 101.25 50.39 100.99 50.06 C 102.21 48.56 103.22 46.89 103.97 45.11 C 100.91 42.89 96.59 44.30 93.02 43.98 C 91.14 43.83 89.56 44.88 87.98 45.73 C 87.70 45.49 87.15 45.01 86.87 44.77 C 87.61 44.19 88.37 43.63 89.14 43.08 Z" />
</g>
<g id="#b36537ff">
<path fill="#b36537" opacity="1.00" d=" M 105.31 44.22 C 107.17 43.90 108.74 42.86 110.28 41.82 L 111.11 41.83 C 108.81 45.63 106.13 49.17 103.89 53.00 L 103.17 53.01 C 102.88 52.60 102.30 51.78 102.01 51.37 C 103.52 49.20 104.74 46.81 105.31 44.22 Z" />
</g>
<g id="#dbb085ff">
<path fill="#dbb085" opacity="1.00" d=" M 17.98 43.01 C 21.41 42.84 25.40 42.24 27.17 45.80 C 25.74 48.33 25.14 51.39 22.94 53.42 C 19.99 50.86 17.62 47.04 17.98 43.01 Z" />
</g>
<g id="#f6ca8dff">
<path fill="#f6ca8d" opacity="1.00" d=" M 30.88 42.97 C 33.68 42.78 34.40 46.33 33.01 48.25 C 31.99 46.60 29.64 45.11 30.88 42.97 Z" />
</g>
<g id="#d2a881fb">
<path fill="#d2a881" opacity="1.00" d=" M 130.28 44.28 C 132.97 42.43 136.30 44.15 139.26 43.32 L 139.89 43.20 C 140.97 51.27 143.47 59.11 143.53 67.33 C 142.72 71.98 146.08 76.56 144.01 81.01 C 143.29 84.07 141.66 86.81 139.64 89.18 C 140.53 81.79 142.44 74.49 142.07 66.98 C 142.07 65.40 142.06 63.81 141.86 62.24 C 140.45 57.10 140.70 51.19 136.76 47.12 C 136.13 47.12 134.85 47.13 134.22 47.13 C 130.42 51.05 127.84 56.02 123.71 59.64 C 119.68 60.68 114.55 64.64 111.14 60.90 C 108.18 58.61 104.14 57.90 101.64 55.00 C 102.02 54.50 102.79 53.50 103.17 53.01 L 103.89 53.00 C 107.30 53.89 110.69 54.88 114.10 55.78 C 121.14 55.55 126.42 49.60 130.28 44.28 Z" />
</g>
<g id="#a47656ff">
<path fill="#a47656" opacity="1.00" d=" M 87.98 45.73 C 89.56 44.88 91.14 43.83 93.02 43.98 C 89.88 47.24 88.47 54.06 94.16 55.48 C 90.11 56.31 85.93 55.00 82.02 53.88 C 83.48 50.82 85.73 48.23 87.98 45.73 Z" />
</g>
<g id="#ba8d69ff">
<path fill="#ba8d69" opacity="1.00" d=" M 93.02 43.98 C 96.59 44.30 100.91 42.89 103.97 45.11 C 103.22 46.89 102.21 48.56 100.99 50.06 C 99.96 50.84 98.97 51.68 98.05 52.59 C 96.83 53.64 95.69 54.86 94.16 55.48 C 88.47 54.06 89.88 47.24 93.02 43.98 Z" />
</g>
<g id="#6f3f23ff">
<path fill="#6f3f23" opacity="1.00" d=" M 80.90 55.01 C 80.84 50.84 83.77 47.28 86.87 44.77 C 87.15 45.01 87.70 45.49 87.98 45.73 C 85.73 48.23 83.48 50.82 82.02 53.88 C 85.93 55.00 90.11 56.31 94.16 55.48 C 95.69 54.86 96.83 53.64 98.05 52.59 C 98.23 52.91 98.59 53.57 98.77 53.89 C 94.30 58.90 86.48 57.41 80.90 55.01 Z" />
</g>
<g id="#c99d75ff">
<path fill="#c99d75" opacity="1.00" d=" M 27.17 45.80 C 28.72 47.95 29.82 50.40 30.54 52.94 C 29.94 53.26 28.76 53.89 28.17 54.20 C 26.47 53.92 24.39 54.46 22.94 53.42 C 25.14 51.39 25.74 48.33 27.17 45.80 Z" />
</g>
<g id="#cda17aff">
<path fill="#cda17a" opacity="1.00" d=" M 134.22 47.13 C 134.85 47.13 136.13 47.12 136.76 47.12 C 140.70 51.19 140.45 57.10 141.86 62.24 C 137.31 60.69 140.75 51.09 135.27 51.20 C 129.37 59.64 120.29 69.64 108.83 66.24 C 107.78 65.20 106.76 64.13 105.78 63.04 C 107.55 62.28 109.35 61.62 111.14 60.90 C 114.55 64.64 119.68 60.68 123.71 59.64 C 127.84 56.02 130.42 51.05 134.22 47.13 Z" />
</g>
<g id="#b7794cff">
<path fill="#b7794c" opacity="1.00" d=" M 32.86 49.90 C 33.37 49.99 34.40 50.16 34.92 50.25 C 36.36 51.78 37.76 53.35 38.97 55.07 L 38.01 55.06 C 37.55 54.74 36.63 54.09 36.18 53.77 C 33.39 49.73 32.69 55.35 31.95 58.20 C 32.22 55.43 32.44 52.65 32.86 49.90 Z" />
</g>
<g id="#95502bff">
<path fill="#95502b" opacity="1.00" d=" M 98.05 52.59 C 98.97 51.68 99.96 50.84 100.99 50.06 C 101.25 50.39 101.76 51.04 102.01 51.37 C 102.30 51.78 102.88 52.60 103.17 53.01 C 102.79 53.50 102.02 54.50 101.64 55.00 C 98.75 57.76 95.66 61.39 90.99 60.00 C 87.28 60.06 83.70 59.09 80.02 58.93 L 79.00 58.84 C 79.67 57.58 80.30 56.30 80.90 55.01 C 86.48 57.41 94.30 58.90 98.77 53.89 C 98.59 53.57 98.23 52.91 98.05 52.59 Z" />
</g>
<g id="#7a4929ff">
<path fill="#7a4929" opacity="1.00" d=" M 68.73 51.70 C 69.25 51.47 70.28 51.01 70.80 50.79 C 72.55 50.90 74.30 51.04 76.05 51.20 C 77.00 52.54 77.11 53.41 75.13 52.85 C 73.53 52.56 70.33 51.99 68.73 51.70 Z" />
</g>
<g id="#c79974ff">
<path fill="#c79974" opacity="1.00" d=" M 135.27 51.20 C 140.75 51.09 137.31 60.69 141.86 62.24 C 142.06 63.81 142.07 65.40 142.07 66.98 C 139.25 64.67 139.79 68.90 139.34 70.76 C 138.65 74.48 137.16 77.99 135.30 81.26 C 135.28 80.50 135.23 78.98 135.20 78.22 C 135.80 71.52 138.65 64.99 137.86 58.21 C 137.08 56.65 134.97 56.66 134.24 58.24 C 129.42 65.77 120.30 72.88 110.97 69.93 C 109.98 69.51 108.99 69.10 108.00 68.70 C 108.27 67.87 108.54 67.05 108.83 66.24 C 120.29 69.64 129.37 59.64 135.27 51.20 Z" />
</g>
<g id="#e19053ff">
<path fill="#e19053" opacity="1.00" d=" M 31.95 58.20 C 32.69 55.35 33.39 49.73 36.18 53.77 C 36.45 56.52 34.42 60.92 38.02 61.51 C 37.90 63.35 39.83 62.93 41.07 63.19 C 39.31 64.43 37.73 65.90 35.95 67.11 C 32.70 65.47 31.62 61.60 31.95 58.20 Z" />
</g>
<g id="#665447ff">
<path fill="#665447" opacity="1.00" d=" M 62.71 54.84 C 64.64 53.65 66.66 52.61 68.73 51.70 C 68.89 52.26 69.22 53.37 69.38 53.93 L 69.00 54.62 C 66.84 53.74 64.85 55.01 62.97 55.95 L 62.71 54.84 Z" />
</g>
<g id="#bd6e3eff">
<path fill="#bd6e3e" opacity="1.00" d=" M 68.73 51.70 C 70.33 51.99 73.53 52.56 75.13 52.85 C 75.31 55.96 76.24 58.94 77.00 61.94 C 73.05 66.23 66.46 64.45 61.86 67.14 C 60.36 66.62 58.96 65.84 57.59 65.05 C 58.99 64.57 61.80 63.62 63.20 63.15 C 63.72 62.96 64.75 62.59 65.26 62.41 L 65.92 62.16 C 67.02 61.80 68.11 61.38 69.17 60.91 C 71.67 60.02 70.59 55.69 69.38 53.93 C 69.22 53.37 68.89 52.26 68.73 51.70 Z" />
</g>
<g id="#7c4628ff">
<path fill="#7c4628" opacity="1.00" d=" M 30.54 52.94 C 32.04 56.49 26.06 55.70 23.91 56.20 C 25.24 55.35 26.74 54.85 28.17 54.20 C 28.76 53.89 29.94 53.26 30.54 52.94 Z" />
</g>
<g id="#e6e6e6ff">
<path fill="#e6e6e6" opacity="1.00" d=" M 36.18 53.77 C 36.63 54.09 37.55 54.74 38.01 55.06 C 38.02 57.21 38.52 59.39 38.02 61.51 C 34.42 60.92 36.45 56.52 36.18 53.77 Z" />
</g>
<g id="#d8d8d8ff">
<path fill="#d8d8d8" opacity="1.00" d=" M 62.97 55.95 C 64.85 55.01 66.84 53.74 69.00 54.62 C 68.79 56.71 68.78 58.83 69.17 60.91 C 68.11 61.38 67.02 61.80 65.92 62.16 C 64.54 60.70 63.94 58.79 63.20 56.96 L 62.97 55.95 Z" />
</g>
<g id="#5c361dff">
<path fill="#5c361d" opacity="1.00" d=" M 69.38 53.93 C 70.59 55.69 71.67 60.02 69.17 60.91 C 68.78 58.83 68.79 56.71 69.00 54.62 L 69.38 53.93 Z" />
</g>
<g id="#594a40ff">
<path fill="#594a40" opacity="1.00" d=" M 38.01 55.06 L 38.97 55.07 C 39.20 55.35 39.66 55.90 39.89 56.18 C 40.60 57.06 41.33 57.91 42.05 58.78 C 41.34 60.11 41.08 61.53 41.81 62.91 L 41.07 63.19 C 39.83 62.93 37.90 63.35 38.02 61.51 C 38.52 59.39 38.02 57.21 38.01 55.06 Z" />
</g>
<g id="#524137ff">
<path fill="#524137" opacity="1.00" d=" M 53.83 60.98 C 56.05 58.04 59.74 56.83 62.71 54.84 L 62.97 55.95 L 63.20 56.96 C 62.80 58.99 62.12 62.47 65.26 62.41 C 64.75 62.59 63.72 62.96 63.20 63.15 C 60.53 62.59 58.05 62.84 55.75 63.90 C 54.86 63.52 53.96 63.15 53.06 62.80 C 53.25 62.34 53.64 61.43 53.83 60.98 Z" />
</g>
<g id="#b18562ff">
<path fill="#b18562" opacity="1.00" d=" M 90.99 60.00 C 95.66 61.39 98.75 57.76 101.64 55.00 C 104.14 57.90 108.18 58.61 111.14 60.90 C 109.35 61.62 107.55 62.28 105.78 63.04 C 103.88 63.63 102.23 65.27 100.12 64.79 C 93.14 63.83 85.86 64.54 79.19 62.00 C 79.48 60.98 79.76 59.96 80.02 58.93 C 83.70 59.09 87.28 60.06 90.99 60.00 Z" />
</g>
<g id="#aeaeaeff">
<path fill="#aeaeae" opacity="1.00" d=" M 63.20 56.96 C 63.94 58.79 64.54 60.70 65.92 62.16 L 65.26 62.41 C 62.12 62.47 62.80 58.99 63.20 56.96 Z" />
</g>
<g id="#c0906bff">
<path fill="#c0906b" opacity="1.00" d=" M 134.24 58.24 C 134.97 56.66 137.08 56.65 137.86 58.21 C 138.65 64.99 135.80 71.52 135.20 78.22 C 134.60 74.05 135.23 69.97 136.01 65.91 C 133.18 65.89 132.81 69.69 130.01 70.00 C 124.97 71.91 120.13 75.27 114.49 74.81 C 114.02 72.72 112.65 71.16 110.97 69.93 C 120.30 72.88 129.42 65.77 134.24 58.24 Z" />
</g>
<g id="#d19c68ff">
<path fill="#d19c68" opacity="1.00" d=" M 23.98 58.90 C 25.75 57.07 28.12 56.81 31.07 58.14 C 29.25 59.93 26.88 60.18 23.98 58.90 Z" />
</g>
<g id="#f7d69ffc">
<path fill="#f7d69f" opacity="1.00" d=" M 31.07 58.14 L 31.95 58.20 C 31.62 61.60 32.70 65.47 35.95 67.11 C 37.73 65.90 39.31 64.43 41.07 63.19 L 41.81 62.91 C 44.51 62.30 47.28 61.92 50.05 61.93 C 51.65 63.65 51.28 69.68 48.28 66.91 C 45.66 64.18 41.63 64.68 39.06 67.19 C 38.62 69.31 41.06 70.16 42.25 71.43 C 38.93 73.60 34.31 75.16 31.92 78.94 C 34.42 81.86 36.14 85.34 37.07 89.06 C 34.09 89.16 33.25 85.69 31.36 83.99 C 31.28 85.69 30.80 86.01 29.93 84.95 C 28.07 82.31 24.96 86.16 22.65 84.44 C 19.15 83.93 23.46 81.74 24.00 80.13 C 23.08 79.63 22.14 79.16 21.19 78.73 C 21.71 77.50 22.37 76.33 22.90 75.11 C 21.85 74.02 20.30 74.07 18.93 73.76 C 20.18 72.00 21.84 70.57 23.78 69.64 C 24.75 66.63 19.56 66.50 19.24 64.27 C 21.45 62.88 25.21 62.09 23.27 58.80 L 23.98 58.90 C 26.88 60.18 29.25 59.93 31.07 58.14 Z" />
</g>
<g id="#9e7a5eff">
<path fill="#9e7a5e" opacity="1.00" d=" M 42.05 58.78 L 42.68 59.34 C 42.84 59.72 43.16 60.48 43.33 60.86 C 46.83 60.06 50.31 60.74 53.83 60.98 C 53.64 61.43 53.25 62.34 53.06 62.80 C 52.07 62.46 51.07 62.18 50.05 61.93 C 47.28 61.92 44.51 62.30 41.81 62.91 C 41.08 61.53 41.34 60.11 42.05 58.78 Z" />
</g>
<g id="#7e4a2aff">
<path fill="#7e4a2a" opacity="1.00" d=" M 77.00 61.94 C 77.86 61.04 78.32 59.86 79.00 58.84 L 80.02 58.93 C 79.76 59.96 79.48 60.98 79.19 62.00 C 78.79 62.49 78.00 63.47 77.61 63.96 C 72.96 67.17 67.27 66.99 61.86 67.14 C 66.46 64.45 73.05 66.23 77.00 61.94 Z" />
</g>
<g id="#e4b78afc">
<path fill="#e4b78a" opacity="1.00" d=" M 50.05 61.93 C 51.07 62.18 52.07 62.46 53.06 62.80 C 53.96 63.15 54.86 63.52 55.75 63.90 L 56.14 64.91 C 52.34 70.57 46.31 74.24 39.73 75.71 C 35.48 75.51 35.27 79.66 37.74 82.14 C 38.16 83.05 38.58 83.96 39.01 84.87 C 39.54 88.97 41.97 92.28 43.86 95.82 C 39.72 99.04 35.69 102.46 32.97 107.02 C 33.73 108.78 34.87 110.33 36.00 111.87 C 36.94 114.31 38.28 116.57 39.02 119.08 C 34.36 116.45 31.68 111.46 26.98 108.90 C 25.56 109.82 24.38 111.06 23.14 112.20 C 22.62 109.34 25.75 107.80 26.06 105.16 C 24.72 104.87 22.02 105.53 23.24 103.30 C 24.76 102.43 26.28 101.53 27.82 100.69 C 27.49 98.80 26.67 96.88 27.84 95.08 C 27.11 95.02 25.66 94.91 24.94 94.85 C 26.20 91.49 27.47 87.31 29.93 84.95 C 30.80 86.01 31.28 85.69 31.36 83.99 C 33.25 85.69 34.09 89.16 37.07 89.06 C 36.14 85.34 34.42 81.86 31.92 78.94 C 34.31 75.16 38.93 73.60 42.25 71.43 C 44.88 70.77 48.85 70.64 48.28 66.91 C 51.28 69.68 51.65 63.65 50.05 61.93 Z" />
</g>
<g id="#bc906cff">
<path fill="#bc906c" opacity="1.00" d=" M 79.19 62.00 C 85.86 64.54 93.14 63.83 100.12 64.79 C 102.23 65.27 103.88 63.63 105.78 63.04 C 106.76 64.13 107.78 65.20 108.83 66.24 C 108.54 67.05 108.27 67.87 108.00 68.70 C 106.40 68.04 103.41 68.11 102.98 70.01 C 104.29 72.96 107.66 74.19 110.25 75.81 C 107.40 77.24 102.61 74.43 100.19 77.19 C 98.39 78.62 99.17 81.22 98.76 83.21 C 97.58 81.99 96.56 80.60 95.97 79.00 C 96.26 76.83 100.48 76.27 99.81 74.25 C 93.14 69.50 83.79 69.35 77.61 63.96 C 78.00 63.47 78.79 62.49 79.19 62.00 Z" />
</g>
<g id="#9e5a31ff">
<path fill="#9e5a31" opacity="1.00" d=" M 55.75 63.90 C 58.05 62.84 60.53 62.59 63.20 63.15 C 61.80 63.62 58.99 64.57 57.59 65.05 C 57.23 65.01 56.50 64.95 56.14 64.91 L 55.75 63.90 Z" />
</g>
<g id="#c59974ff">
<path fill="#c59974" opacity="1.00" d=" M 61.86 67.14 C 67.27 66.99 72.96 67.17 77.61 63.96 C 83.79 69.35 93.14 69.50 99.81 74.25 C 100.48 76.27 96.26 76.83 95.97 79.00 C 96.56 80.60 97.58 81.99 98.76 83.21 C 99.55 84.10 100.36 84.98 101.17 85.86 C 100.37 85.89 98.78 85.95 97.98 85.98 C 96.24 85.98 92.75 85.97 91.00 85.97 C 85.57 84.26 81.24 87.19 78.21 91.26 C 78.10 93.54 79.05 95.73 79.04 98.02 C 77.39 97.83 75.78 97.40 74.13 97.16 C 73.03 100.66 72.81 104.37 71.84 107.92 C 69.47 106.91 67.35 105.45 65.13 104.17 C 63.87 105.64 62.89 107.32 61.71 108.84 C 57.80 110.49 58.17 103.51 54.21 105.07 C 53.75 106.36 53.36 107.67 53.01 108.99 C 52.42 111.23 50.87 113.01 49.68 114.96 C 49.01 115.75 48.30 117.97 49.89 118.13 C 54.74 120.14 59.78 117.59 63.42 114.46 C 67.31 112.75 70.98 110.50 75.01 109.10 C 77.90 110.85 86.08 112.33 82.89 116.83 C 81.21 120.11 80.60 123.82 79.14 127.20 C 79.32 122.80 80.87 118.57 80.94 114.18 C 75.49 109.49 68.18 114.26 63.06 117.11 C 56.65 122.45 47.56 120.17 41.74 115.15 C 40.05 111.18 41.83 107.50 45.02 104.98 C 47.76 106.20 45.67 111.53 48.81 113.20 C 50.99 109.22 52.86 105.09 55.01 101.10 C 56.81 102.65 58.74 103.97 60.81 105.04 C 61.69 103.41 62.27 101.63 63.19 100.02 C 65.71 99.54 67.29 102.46 69.81 101.99 C 71.80 99.48 71.15 95.95 71.90 92.98 C 64.86 93.52 58.05 95.71 50.81 95.18 C 48.96 94.80 47.13 94.32 45.36 93.64 C 43.30 90.65 42.36 86.80 39.01 84.87 C 38.58 83.96 38.16 83.05 37.74 82.14 C 43.75 83.69 43.78 91.72 49.33 93.71 C 54.65 93.90 60.44 95.11 65.39 92.52 C 69.68 91.63 71.78 86.92 76.65 87.69 C 77.59 84.79 78.63 81.92 79.79 79.09 C 79.38 78.86 78.55 78.39 78.14 78.15 L 77.30 77.72 C 73.02 71.27 65.41 69.44 58.08 70.04 C 53.79 71.58 50.67 76.20 45.84 75.94 C 51.16 72.94 55.53 67.96 61.86 67.14 Z" />
</g>
<g id="#636160ff">
<path fill="#636160" opacity="1.00" d=" M 39.06 67.19 C 41.63 64.68 45.66 64.18 48.28 66.91 C 48.85 70.64 44.88 70.77 42.25 71.43 C 41.06 70.16 38.62 69.31 39.06 67.19 Z" />
</g>
<g id="#d2a780ff">
<path fill="#d2a780" opacity="1.00" d=" M 56.14 64.91 C 56.50 64.95 57.23 65.01 57.59 65.05 C 58.96 65.84 60.36 66.62 61.86 67.14 C 55.53 67.96 51.16 72.94 45.84 75.94 C 43.80 76.04 41.76 75.86 39.73 75.71 C 46.31 74.24 52.34 70.57 56.14 64.91 Z" />
</g>
<g id="#b68764ff">
<path fill="#b68764" opacity="1.00" d=" M 130.01 70.00 C 132.81 69.69 133.18 65.89 136.01 65.91 C 135.23 69.97 134.60 74.05 135.20 78.22 C 135.23 78.98 135.28 80.50 135.30 81.26 C 134.87 83.55 133.47 85.43 132.11 87.25 C 132.01 82.78 132.87 78.37 132.99 73.92 C 127.00 75.19 121.30 78.26 115.10 78.72 C 112.10 78.50 109.13 77.84 106.12 78.02 C 104.60 78.79 104.04 80.65 102.92 81.88 C 102.65 82.13 102.11 82.63 101.84 82.88 C 101.07 82.97 99.53 83.13 98.76 83.21 C 99.17 81.22 98.39 78.62 100.19 77.19 C 102.61 74.43 107.40 77.24 110.25 75.81 C 107.66 74.19 104.29 72.96 102.98 70.01 C 103.41 68.11 106.40 68.04 108.00 68.70 C 108.99 69.10 109.98 69.51 110.97 69.93 C 112.65 71.16 114.02 72.72 114.49 74.81 C 120.13 75.27 124.97 71.91 130.01 70.00 Z" />
</g>
<g id="#bc8e6efc">
<path fill="#bc8e6e" opacity="1.00" d=" M 139.34 70.76 C 139.79 68.90 139.25 64.67 142.07 66.98 C 142.44 74.49 140.53 81.79 139.64 89.18 C 137.85 93.44 132.39 94.85 128.14 95.10 C 128.45 94.11 128.74 93.11 129.02 92.11 C 134.15 92.97 136.49 87.44 138.67 83.67 C 139.33 79.47 140.90 74.94 139.34 70.76 Z" />
</g>
<g id="#bd906bff">
<path fill="#bd906b" opacity="1.00" d=" M 45.84 75.94 C 50.67 76.20 53.79 71.58 58.08 70.04 C 65.41 69.44 73.02 71.27 77.30 77.72 C 76.78 77.80 75.74 77.98 75.22 78.06 L 74.29 78.21 C 73.98 77.90 73.37 77.26 73.06 76.95 C 67.47 69.85 56.22 71.61 49.78 76.77 C 45.93 77.20 41.70 76.30 38.11 78.19 C 38.22 78.62 38.44 79.48 38.55 79.91 C 43.45 83.29 47.26 87.79 50.17 92.96 C 61.46 94.09 73.02 88.42 78.14 78.15 C 78.55 78.39 79.38 78.86 79.79 79.09 C 78.63 81.92 77.59 84.79 76.65 87.69 C 71.78 86.92 69.68 91.63 65.39 92.52 C 60.44 95.11 54.65 93.90 49.33 93.71 C 43.78 91.72 43.75 83.69 37.74 82.14 C 35.27 79.66 35.48 75.51 39.73 75.71 C 41.76 75.86 43.80 76.04 45.84 75.94 Z" />
</g>
<g id="#ad7e5cff">
<path fill="#ad7e5c" opacity="1.00" d=" M 139.34 70.76 C 140.90 74.94 139.33 79.47 138.67 83.67 C 136.49 87.44 134.15 92.97 129.02 92.11 C 129.25 88.08 130.06 84.09 130.01 80.04 C 121.17 82.41 111.99 82.19 102.92 81.88 C 104.04 80.65 104.60 78.79 106.12 78.02 C 109.13 77.84 112.10 78.50 115.10 78.72 C 121.30 78.26 127.00 75.19 132.99 73.92 C 132.87 78.37 132.01 82.78 132.11 87.25 C 133.47 85.43 134.87 83.55 135.30 81.26 C 137.16 77.99 138.65 74.48 139.34 70.76 Z" />
</g>
<g id="#ac7f5dff">
<path fill="#ac7f5d" opacity="1.00" d=" M 49.78 76.77 C 56.22 71.61 67.47 69.85 73.06 76.95 C 72.59 76.90 71.65 76.81 71.17 76.76 C 69.54 76.43 67.92 76.88 66.32 77.09 C 60.94 75.20 55.27 76.50 49.78 76.77 Z" />
</g>
<g id="#9c6c4dff">
<path fill="#9c6c4d" opacity="1.00" d=" M 49.78 76.77 C 55.27 76.50 60.94 75.20 66.32 77.09 C 61.92 78.11 57.43 77.81 52.97 78.12 C 52.32 81.24 55.39 84.20 59.01 82.06 C 63.56 82.91 67.98 81.27 71.66 78.77 C 71.54 78.27 71.29 77.27 71.17 76.76 C 71.65 76.81 72.59 76.90 73.06 76.95 C 73.37 77.26 73.98 77.90 74.29 78.21 C 71.63 83.23 65.74 86.57 59.97 86.02 C 52.80 86.52 48.07 78.60 40.84 79.13 C 40.27 79.33 39.12 79.72 38.55 79.91 C 38.44 79.48 38.22 78.62 38.11 78.19 C 41.70 76.30 45.93 77.20 49.78 76.77 Z" />
</g>
<g id="#8f5f42ff">
<path fill="#8f5f42" opacity="1.00" d=" M 66.32 77.09 C 67.92 76.88 69.54 76.43 71.17 76.76 C 71.29 77.27 71.54 78.27 71.66 78.77 C 67.98 81.27 63.56 82.91 59.01 82.06 C 55.39 84.20 52.32 81.24 52.97 78.12 C 57.43 77.81 61.92 78.11 66.32 77.09 Z" />
</g>
<g id="#a97755ff">
<path fill="#a97755" opacity="1.00" d=" M 74.29 78.21 L 75.22 78.06 C 75.33 78.52 75.54 79.42 75.65 79.88 C 71.83 83.67 68.29 88.27 62.90 89.88 C 59.53 88.98 52.44 94.10 51.06 88.96 C 49.80 83.76 44.81 81.87 40.84 79.13 C 48.07 78.60 52.80 86.52 59.97 86.02 C 65.74 86.57 71.63 83.23 74.29 78.21 Z" />
</g>
<g id="#b3835fff">
<path fill="#b3835f" opacity="1.00" d=" M 75.22 78.06 C 75.74 77.98 76.78 77.80 77.30 77.72 L 78.14 78.15 C 73.02 88.42 61.46 94.09 50.17 92.96 C 47.26 87.79 43.45 83.29 38.55 79.91 C 39.12 79.72 40.27 79.33 40.84 79.13 C 44.81 81.87 49.80 83.76 51.06 88.96 C 52.44 94.10 59.53 88.98 62.90 89.88 C 68.29 88.27 71.83 83.67 75.65 79.88 C 75.54 79.42 75.33 78.52 75.22 78.06 Z" />
</g>
<g id="#a17353fe">
<path fill="#a17353" opacity="1.00" d=" M 102.92 81.88 C 111.99 82.19 121.17 82.41 130.01 80.04 C 130.06 84.09 129.25 88.08 129.02 92.11 C 128.74 93.11 128.45 94.11 128.14 95.10 C 126.46 97.27 125.70 102.59 122.06 102.07 C 122.79 100.15 123.48 98.23 124.33 96.36 C 128.07 94.28 128.26 87.96 125.74 85.15 C 117.71 84.93 109.54 85.68 101.84 82.88 C 102.11 82.63 102.65 82.13 102.92 81.88 Z" />
</g>
<g id="#996b4cff">
<path fill="#996b4c" opacity="1.00" d=" M 98.76 83.21 C 99.53 83.13 101.07 82.97 101.84 82.88 C 109.54 85.68 117.71 84.93 125.74 85.15 C 128.26 87.96 128.07 94.28 124.33 96.36 C 124.48 94.82 124.79 91.73 124.94 90.18 C 117.70 86.87 108.93 87.90 101.17 85.86 C 100.36 84.98 99.55 84.10 98.76 83.21 Z" />
</g>
<g id="#d2a881ff">
<path fill="#d2a881" opacity="1.00" d=" M 39.01 84.87 C 42.36 86.80 43.30 90.65 45.36 93.64 C 47.13 94.32 48.96 94.80 50.81 95.18 C 56.09 97.38 49.26 101.49 48.69 104.83 C 47.61 103.28 46.50 101.30 44.25 102.09 C 42.54 104.78 40.62 107.34 39.02 110.10 C 38.84 112.16 40.59 113.66 41.74 115.15 C 44.87 122.65 55.59 124.18 61.93 119.91 C 65.34 117.78 69.55 117.95 73.12 116.18 C 76.59 114.73 77.12 119.38 77.48 121.75 C 75.56 125.38 76.99 131.83 72.13 133.18 C 69.08 135.31 69.37 139.91 66.92 142.59 C 65.27 142.37 63.43 141.77 62.03 143.04 C 58.19 146.24 52.28 146.01 49.81 150.81 C 46.95 149.61 44.49 147.38 41.08 147.82 C 38.14 147.33 36.60 144.53 34.54 142.70 C 34.88 142.46 35.55 141.99 35.88 141.75 C 39.07 145.78 44.38 144.81 48.91 145.81 C 54.37 142.83 60.89 141.01 63.94 134.98 C 66.12 132.19 66.40 126.86 70.86 126.61 C 71.60 123.08 66.73 119.44 63.46 121.50 C 58.02 125.00 50.51 125.87 45.02 121.99 C 40.76 119.86 39.60 114.71 36.00 111.87 C 34.87 110.33 33.73 108.78 32.97 107.02 C 35.69 102.46 39.72 99.04 43.86 95.82 C 41.97 92.28 39.54 88.97 39.01 84.87 Z" />
</g>
<g id="#bb906cff">
<path fill="#bb906c" opacity="1.00" d=" M 78.21 91.26 C 81.24 87.19 85.57 84.26 91.00 85.97 C 90.77 86.44 90.32 87.38 90.09 87.85 C 88.54 90.62 89.28 93.98 88.94 97.03 C 86.10 94.84 82.76 96.07 82.69 99.80 C 79.83 99.76 76.85 99.70 75.15 102.25 C 74.00 105.82 78.34 107.27 80.96 108.11 C 84.47 109.16 88.71 112.83 88.71 116.61 C 81.63 118.35 83.83 127.85 77.97 131.13 C 78.34 129.81 78.75 128.51 79.14 127.20 C 80.60 123.82 81.21 120.11 82.89 116.83 C 86.08 112.33 77.90 110.85 75.01 109.10 C 70.98 110.50 67.31 112.75 63.42 114.46 C 59.78 117.59 54.74 120.14 49.89 118.13 C 48.30 117.97 49.01 115.75 49.68 114.96 C 51.54 118.55 56.30 116.14 58.97 114.82 C 59.34 111.88 56.38 106.23 53.01 108.99 C 53.36 107.67 53.75 106.36 54.21 105.07 C 58.17 103.51 57.80 110.49 61.71 108.84 C 62.89 107.32 63.87 105.64 65.13 104.17 C 67.35 105.45 69.47 106.91 71.84 107.92 C 72.81 104.37 73.03 100.66 74.13 97.16 C 75.78 97.40 77.39 97.83 79.04 98.02 C 79.05 95.73 78.10 93.54 78.21 91.26 Z" />
</g>
<g id="#9a6d4eff">
<path fill="#9a6d4e" opacity="1.00" d=" M 91.00 85.97 C 92.75 85.97 96.24 85.98 97.98 85.98 C 98.04 86.47 98.14 87.46 98.20 87.95 C 97.84 88.28 97.13 88.93 96.78 89.25 C 94.85 89.09 92.91 89.03 90.98 88.97 C 90.76 88.69 90.31 88.13 90.09 87.85 C 90.32 87.38 90.77 86.44 91.00 85.97 Z" />
</g>
<g id="#8e6044fe">
<path fill="#8e6044" opacity="1.00" d=" M 97.98 85.98 C 98.78 85.95 100.37 85.89 101.17 85.86 C 108.93 87.90 117.70 86.87 124.94 90.18 C 124.79 91.73 124.48 94.82 124.33 96.36 C 123.48 98.23 122.79 100.15 122.06 102.07 C 121.68 103.43 120.42 104.20 119.04 104.10 C 120.34 100.50 122.30 97.04 122.05 93.06 C 114.18 90.97 106.11 89.85 98.20 87.95 C 98.14 87.46 98.04 86.47 97.98 85.98 Z" />
</g>
<g id="#aa7c5aff">
<path fill="#aa7c5a" opacity="1.00" d=" M 90.09 87.85 C 90.31 88.13 90.76 88.69 90.98 88.97 C 91.91 90.78 92.83 92.62 94.04 94.28 C 93.52 94.45 92.47 94.80 91.95 94.98 C 90.65 95.17 89.80 96.13 88.94 97.03 C 89.28 93.98 88.54 90.62 90.09 87.85 Z" />
</g>
<g id="#84563bff">
<path fill="#84563b" opacity="1.00" d=" M 98.20 87.95 C 106.11 89.85 114.18 90.97 122.05 93.06 C 122.30 97.04 120.34 100.50 119.04 104.10 C 118.69 104.42 118.01 105.05 117.66 105.36 C 117.66 102.23 119.11 99.25 119.03 96.09 C 111.89 93.19 103.10 93.94 96.78 89.25 C 97.13 88.93 97.84 88.28 98.20 87.95 Z" />
</g>
<g id="#7b4c31fe">
<path fill="#7b4c31" opacity="1.00" d=" M 90.98 88.97 C 92.91 89.03 94.85 89.09 96.78 89.25 C 103.10 93.94 111.89 93.19 119.03 96.09 C 119.11 99.25 117.66 102.23 117.66 105.36 C 117.45 105.58 117.03 106.01 116.82 106.22 C 116.39 105.92 115.52 105.31 115.09 105.00 C 115.46 103.10 116.09 101.20 115.92 99.23 C 113.57 98.63 110.95 97.29 108.65 98.82 C 104.45 95.91 99.23 93.63 94.04 94.28 C 92.83 92.62 91.91 90.78 90.98 88.97 Z" />
</g>
<g id="#caa07aff">
<path fill="#caa07a" opacity="1.00" d=" M 50.81 95.18 C 58.05 95.71 64.86 93.52 71.90 92.98 C 71.15 95.95 71.80 99.48 69.81 101.99 C 67.29 102.46 65.71 99.54 63.19 100.02 C 62.27 101.63 61.69 103.41 60.81 105.04 C 58.74 103.97 56.81 102.65 55.01 101.10 C 52.86 105.09 50.99 109.22 48.81 113.20 C 45.67 111.53 47.76 106.20 45.02 104.98 C 41.83 107.50 40.05 111.18 41.74 115.15 C 40.59 113.66 38.84 112.16 39.02 110.10 C 40.62 107.34 42.54 104.78 44.25 102.09 C 46.50 101.30 47.61 103.28 48.69 104.83 C 49.26 101.49 56.09 97.38 50.81 95.18 Z" />
</g>
<g id="#c7723eff">
<path fill="#c7723e" opacity="1.00" d=" M 94.04 94.28 C 99.23 93.63 104.45 95.91 108.65 98.82 C 110.75 101.19 112.88 103.53 114.88 105.98 C 116.32 108.63 118.20 111.29 117.91 114.47 C 115.03 115.07 113.17 112.30 111.00 110.94 C 108.79 112.97 106.35 114.78 103.16 113.83 C 101.06 112.59 98.86 111.47 96.92 109.97 L 96.94 108.95 L 97.59 109.25 C 99.00 109.96 100.42 110.65 101.91 111.18 C 101.16 109.72 100.33 108.30 99.63 106.82 C 100.64 105.88 102.78 105.65 102.94 104.11 C 100.17 102.11 96.40 102.68 93.22 101.77 C 93.20 100.28 94.48 98.15 92.38 97.58 C 90.82 97.16 91.41 96.02 91.95 94.98 C 92.47 94.80 93.52 94.45 94.04 94.28 Z" />
</g>
<g id="#946446ff">
<path fill="#946446" opacity="1.00" d=" M 88.94 97.03 C 89.80 96.13 90.65 95.17 91.95 94.98 C 91.41 96.02 90.82 97.16 92.38 97.58 C 94.48 98.15 93.20 100.28 93.22 101.77 C 96.40 102.68 100.17 102.11 102.94 104.11 C 102.78 105.65 100.64 105.88 99.63 106.82 C 98.56 107.28 97.89 108.09 97.59 109.25 L 96.94 108.95 C 96.73 104.93 91.43 104.46 89.17 101.81 C 88.97 100.22 88.98 98.62 88.94 97.03 Z" />
</g>
<g id="#a67858ff">
<path fill="#a67858" opacity="1.00" d=" M 82.69 99.80 C 82.76 96.07 86.10 94.84 88.94 97.03 C 88.98 98.62 88.97 100.22 89.17 101.81 C 91.43 104.46 96.73 104.93 96.94 108.95 L 96.92 109.97 C 93.30 106.89 91.99 113.92 95.59 114.90 C 97.77 116.57 100.11 118.02 102.21 119.79 C 98.13 123.18 92.21 120.58 88.01 123.17 C 89.14 125.09 88.85 130.04 91.74 129.39 C 92.11 129.46 92.85 129.60 93.22 129.68 C 90.88 130.50 88.43 131.03 85.85 131.26 C 86.62 132.17 87.55 132.91 88.82 132.81 C 91.29 135.48 88.36 135.14 86.13 134.99 C 81.82 132.02 85.61 125.54 86.26 121.24 C 89.05 120.06 92.11 119.80 94.96 118.81 C 95.67 114.68 90.46 113.29 88.89 110.02 C 89.56 108.62 91.15 108.00 92.20 106.92 C 90.03 105.36 87.85 103.22 85.08 102.98 C 83.11 103.98 81.77 105.89 79.93 107.11 C 79.78 104.33 81.75 102.24 82.69 99.80 Z" />
</g>
<g id="#673d27ff">
<path fill="#673d27" opacity="1.00" d=" M 108.65 98.82 C 110.95 97.29 113.57 98.63 115.92 99.23 C 116.09 101.20 115.46 103.10 115.09 105.00 L 114.88 105.98 C 112.88 103.53 110.75 101.19 108.65 98.82 Z" />
</g>
<g id="#b08361ff">
<path fill="#b08361" opacity="1.00" d=" M 75.15 102.25 C 76.85 99.70 79.83 99.76 82.69 99.80 C 81.75 102.24 79.78 104.33 79.93 107.11 C 81.77 105.89 83.11 103.98 85.08 102.98 C 87.85 103.22 90.03 105.36 92.20 106.92 C 91.15 108.00 89.56 108.62 88.89 110.02 C 90.46 113.29 95.67 114.68 94.96 118.81 C 92.11 119.80 89.05 120.06 86.26 121.24 C 85.61 125.54 81.82 132.02 86.13 134.99 C 84.73 134.97 83.33 134.93 81.93 134.87 L 81.13 134.66 C 79.82 134.27 78.46 134.06 77.10 133.88 C 77.36 132.95 77.65 132.03 77.97 131.13 C 83.83 127.85 81.63 118.35 88.71 116.61 C 88.71 112.83 84.47 109.16 80.96 108.11 C 78.34 107.27 74.00 105.82 75.15 102.25 Z" />
</g>
<g id="#473c33f9">
<path fill="#473c33" opacity="0.98" d=" M 115.09 105.00 C 115.52 105.31 116.39 105.92 116.82 106.22 C 118.91 108.23 121.00 110.33 122.19 113.02 C 122.58 115.88 119.61 114.94 117.91 114.47 C 118.20 111.29 116.32 108.63 114.88 105.98 L 115.09 105.00 Z" />
</g>
<g id="#4c3b32ff">
<path fill="#4c3b32" opacity="1.00" d=" M 97.59 109.25 C 97.89 108.09 98.56 107.28 99.63 106.82 C 100.33 108.30 101.16 109.72 101.91 111.18 C 100.42 110.65 99.00 109.96 97.59 109.25 Z" />
</g>
<g id="#b08663ff">
<path fill="#b08663" opacity="1.00" d=" M 53.01 108.99 C 56.38 106.23 59.34 111.88 58.97 114.82 C 56.30 116.14 51.54 118.55 49.68 114.96 C 50.87 113.01 52.42 111.23 53.01 108.99 Z" />
</g>
<g id="#ba8c67fb">
<path fill="#ba8c67" opacity="1.00" d=" M 141.81 109.79 C 143.36 107.89 147.07 104.43 144.13 113.18 C 145.41 112.48 146.08 111.19 146.33 109.80 C 146.73 112.63 146.94 115.51 147.61 118.30 C 147.75 119.74 148.02 122.62 148.15 124.06 C 150.98 121.92 153.12 119.02 155.91 116.83 C 155.73 120.92 154.99 124.98 155.00 129.08 C 157.50 128.77 159.43 126.56 162.07 126.98 C 160.55 131.62 158.11 135.97 156.59 140.65 C 153.00 146.15 151.32 152.70 150.09 159.10 C 150.11 160.46 149.33 161.61 148.04 162.08 C 148.28 158.16 148.83 154.26 148.82 150.33 C 146.50 148.92 142.16 148.79 145.04 143.98 C 145.41 137.36 145.56 130.71 143.72 124.26 C 141.19 121.64 135.75 118.92 133.52 123.18 C 133.38 122.88 133.10 122.27 132.96 121.97 C 135.66 117.74 138.96 113.92 141.81 109.79 Z" />
</g>
<g id="#edc499ff">
<path fill="#edc499" opacity="1.00" d=" M 23.14 112.20 C 24.38 111.06 25.56 109.82 26.98 108.90 C 31.68 111.46 34.36 116.45 39.02 119.08 C 39.99 122.25 42.94 123.86 45.72 125.20 C 44.56 127.27 45.80 128.60 47.66 129.55 C 47.26 130.64 49.58 137.02 46.05 136.66 C 42.78 135.72 40.04 138.17 37.09 139.14 C 35.26 139.62 34.39 141.32 33.63 142.89 L 32.81 143.11 C 30.60 140.20 33.31 133.43 29.12 132.99 C 28.81 132.75 28.18 132.27 27.86 132.03 C 27.47 126.45 28.51 120.10 25.91 114.94 C 24.95 115.63 24.09 116.44 23.22 117.23 C 21.96 117.19 20.91 116.73 20.05 115.85 C 20.71 114.38 22.10 113.39 23.14 112.20 Z" />
</g>
<g id="#946648ff">
<path fill="#946648" opacity="1.00" d=" M 95.59 114.90 C 91.99 113.92 93.30 106.89 96.92 109.97 C 98.86 111.47 101.06 112.59 103.16 113.83 C 102.00 114.07 100.85 114.33 99.70 114.64 C 98.32 114.27 96.82 113.91 95.59 114.90 Z" />
</g>
<g id="#5b4432a1">
<path fill="#5b4432" opacity="0.63" d=" M 146.22 108.97 C 150.68 108.26 147.32 115.67 147.61 118.30 C 146.94 115.51 146.73 112.63 146.33 109.80 L 146.22 108.97 Z" />
</g>
<g id="#bc6b3bfe">
<path fill="#bc6b3b" opacity="1.00" d=" M 103.16 113.83 C 106.35 114.78 108.79 112.97 111.00 110.94 C 113.17 112.30 115.03 115.07 117.91 114.47 C 119.61 114.94 122.58 115.88 122.19 113.02 C 123.98 113.78 124.97 116.25 124.96 118.12 C 125.03 119.87 125.18 123.35 125.25 125.10 C 125.00 125.59 124.50 126.57 124.24 127.05 C 122.60 128.10 121.18 129.44 119.70 130.69 C 113.42 129.32 113.20 122.05 111.81 117.07 C 108.61 116.43 105.94 118.09 103.17 119.19 C 102.04 117.65 100.84 116.17 99.70 114.64 C 100.85 114.33 102.00 114.07 103.16 113.83 Z" />
</g>
<g id="#d9b28cff">
<path fill="#d9b28c" opacity="1.00" d=" M 36.00 111.87 C 39.60 114.71 40.76 119.86 45.02 121.99 C 50.51 125.87 58.02 125.00 63.46 121.50 C 66.73 119.44 71.60 123.08 70.86 126.61 C 66.40 126.86 66.12 132.19 63.94 134.98 C 60.89 141.01 54.37 142.83 48.91 145.81 C 44.38 144.81 39.07 145.78 35.88 141.75 C 36.84 140.55 38.17 141.24 39.32 141.69 C 42.57 143.11 46.24 142.74 49.72 142.77 C 51.63 139.97 53.41 137.09 55.36 134.33 C 57.85 134.32 62.09 136.85 59.17 130.10 C 60.46 130.33 61.72 130.69 63.01 130.93 C 62.88 129.31 63.62 127.05 61.71 126.25 C 56.36 126.17 50.87 127.23 45.72 125.20 C 42.94 123.86 39.99 122.25 39.02 119.08 C 38.28 116.57 36.94 114.31 36.00 111.87 Z" />
</g>
<g id="#c89d77ff">
<path fill="#c89d77" opacity="1.00" d=" M 63.06 117.11 C 68.18 114.26 75.49 109.49 80.94 114.18 C 80.87 118.57 79.32 122.80 79.14 127.20 C 78.75 128.51 78.34 129.81 77.97 131.13 C 77.65 132.03 77.36 132.95 77.10 133.88 C 76.53 135.45 76.40 137.98 74.15 137.64 C 72.15 140.24 70.41 143.03 68.73 145.84 C 64.77 143.54 62.36 147.72 58.89 148.85 C 52.62 150.93 52.29 158.87 51.80 164.42 C 51.86 164.80 51.98 165.55 52.03 165.93 L 52.18 166.79 C 51.65 166.56 50.60 166.09 50.08 165.85 C 49.46 163.84 48.79 161.85 48.07 159.88 C 47.64 158.51 47.15 157.16 46.73 155.79 C 46.78 155.07 46.87 153.64 46.92 152.93 C 44.92 152.65 44.26 154.65 43.29 155.95 C 42.12 154.19 41.10 156.01 40.08 156.86 C 39.57 155.24 39.16 153.59 38.74 151.95 C 38.42 149.67 36.80 148.06 34.81 147.06 C 34.01 145.82 33.25 144.53 32.81 143.11 L 33.63 142.89 L 34.54 142.70 C 36.60 144.53 38.14 147.33 41.08 147.82 C 44.49 147.38 46.95 149.61 49.81 150.81 C 52.28 146.01 58.19 146.24 62.03 143.04 C 63.43 141.77 65.27 142.37 66.92 142.59 C 69.37 139.91 69.08 135.31 72.13 133.18 C 76.99 131.83 75.56 125.38 77.48 121.75 C 77.12 119.38 76.59 114.73 73.12 116.18 C 69.55 117.95 65.34 117.78 61.93 119.91 C 55.59 124.18 44.87 122.65 41.74 115.15 C 47.56 120.17 56.65 122.45 63.06 117.11 Z" />
</g>
<g id="#8e502eff">
<path fill="#8e502e" opacity="1.00" d=" M 95.59 114.90 C 96.82 113.91 98.32 114.27 99.70 114.64 C 100.84 116.17 102.04 117.65 103.17 119.19 L 102.87 120.12 L 102.21 119.79 C 100.11 118.02 97.77 116.57 95.59 114.90 Z" />
</g>
<g id="#d6a67af7">
<path fill="#d6a67a" opacity="0.97" d=" M 23.22 117.23 C 24.09 116.44 24.95 115.63 25.91 114.94 C 28.51 120.10 27.47 126.45 27.86 132.03 L 27.12 131.47 C 26.55 130.83 25.96 130.21 25.36 129.61 C 24.38 126.54 24.64 121.14 19.98 121.81 C 21.11 120.33 22.49 118.99 23.22 117.23 Z" />
</g>
<g id="#b26437ff">
<path fill="#b26437" opacity="1.00" d=" M 103.17 119.19 C 105.94 118.09 108.61 116.43 111.81 117.07 C 113.20 122.05 113.42 129.32 119.70 130.69 C 121.18 129.44 122.60 128.10 124.24 127.05 C 123.97 128.62 123.45 130.09 122.17 131.11 C 119.44 132.99 120.03 139.54 116.25 138.81 C 114.22 135.17 111.16 131.87 110.53 127.61 C 109.25 125.43 111.02 121.89 108.79 120.07 C 107.39 119.70 106.18 120.48 105.04 121.17 C 104.50 120.91 103.41 120.38 102.87 120.12 L 103.17 119.19 Z" />
</g>
<g id="#97552efa">
<path fill="#97552e" opacity="0.98" d=" M 124.96 118.12 C 125.30 118.55 125.99 119.39 126.33 119.81 C 126.24 121.61 126.32 123.55 125.25 125.10 C 125.18 123.35 125.03 119.87 124.96 118.12 Z" />
</g>
<g id="#9e6f4fff">
<path fill="#9e6f4f" opacity="1.00" d=" M 88.01 123.17 C 92.21 120.58 98.13 123.18 102.21 119.79 L 102.87 120.12 C 103.41 120.38 104.50 120.91 105.04 121.17 C 105.28 124.03 101.70 122.67 99.94 123.20 L 99.16 123.23 C 97.41 123.20 93.92 123.14 92.17 123.11 C 91.58 125.16 90.98 127.29 91.74 129.39 C 88.85 130.04 89.14 125.09 88.01 123.17 Z" />
</g>
<g id="#a85c32ff">
<path fill="#a85c32" opacity="1.00" d=" M 105.04 121.17 C 106.18 120.48 107.39 119.70 108.79 120.07 C 111.02 121.89 109.25 125.43 110.53 127.61 C 111.16 131.87 114.22 135.17 116.25 138.81 C 120.03 139.54 119.44 132.99 122.17 131.11 C 123.11 133.98 120.41 136.19 120.96 139.07 C 122.96 138.37 124.84 137.37 126.87 136.76 C 125.16 139.14 121.30 140.42 121.96 143.93 C 125.18 145.53 128.10 144.28 130.99 143.14 C 131.18 144.99 131.83 146.72 132.47 148.45 C 125.35 155.18 113.21 149.01 110.29 140.71 C 106.28 136.52 111.98 126.32 105.09 124.88 C 105.06 126.45 104.98 129.58 104.95 131.15 L 104.21 131.25 C 103.48 130.16 102.75 129.09 102.06 127.98 C 101.41 126.36 100.62 124.80 99.94 123.20 C 101.70 122.67 105.28 124.03 105.04 121.17 Z" />
</g>
<g id="#3f3530fc">
<path fill="#3f3530" opacity="1.00" d=" M 126.33 119.81 C 127.17 120.57 128.00 121.35 128.80 122.16 C 129.30 125.13 130.01 128.07 130.24 131.09 C 129.30 133.08 128.21 135.01 126.87 136.76 C 124.84 137.37 122.96 138.37 120.96 139.07 C 120.41 136.19 123.11 133.98 122.17 131.11 C 123.45 130.09 123.97 128.62 124.24 127.05 C 124.50 126.57 125.00 125.59 125.25 125.10 C 126.32 123.55 126.24 121.61 126.33 119.81 Z" />
</g>
<g id="#946545fb">
<path fill="#946545" opacity="1.00" d=" M 128.80 122.16 C 129.11 119.04 130.48 123.91 131.76 124.00 C 132.06 123.49 132.66 122.48 132.96 121.97 C 133.10 122.27 133.38 122.88 133.52 123.18 C 134.02 124.42 134.56 125.65 135.14 126.87 C 135.06 131.32 134.93 135.79 134.74 140.25 C 134.26 139.11 133.83 137.96 133.37 136.82 C 132.34 135.09 133.14 128.49 130.24 131.09 C 130.01 128.07 129.30 125.13 128.80 122.16 Z" />
</g>
<g id="#b1835fff">
<path fill="#b1835f" opacity="1.00" d=" M 133.52 123.18 C 135.75 118.92 141.19 121.64 143.72 124.26 C 145.56 130.71 145.41 137.36 145.04 143.98 C 142.16 148.79 146.50 148.92 148.82 150.33 C 148.83 154.26 148.28 158.16 148.04 162.08 C 147.72 162.62 147.07 163.72 146.75 164.26 C 146.66 158.07 142.41 153.36 140.09 147.94 C 140.68 144.45 142.01 141.08 141.82 137.48 C 136.56 136.75 137.87 130.23 135.14 126.87 C 134.56 125.65 134.02 124.42 133.52 123.18 Z" />
</g>
<g id="#8f6345ff">
<path fill="#8f6345" opacity="1.00" d=" M 92.17 123.11 C 93.92 123.14 97.41 123.20 99.16 123.23 C 98.59 123.44 97.45 123.86 96.87 124.07 C 96.11 124.09 94.59 124.14 93.83 124.16 C 95.12 126.20 97.59 126.68 99.77 127.20 L 100.27 127.73 C 97.87 128.18 95.51 128.84 93.22 129.68 C 92.85 129.60 92.11 129.46 91.74 129.39 C 90.98 127.29 91.58 125.16 92.17 123.11 Z" />
</g>
<g id="#8a4828ff">
<path fill="#8a4828" opacity="1.00" d=" M 99.16 123.23 L 99.94 123.20 C 100.62 124.80 101.41 126.36 102.06 127.98 C 101.61 127.92 100.72 127.79 100.27 127.73 L 99.77 127.20 C 98.83 126.13 97.84 125.11 96.87 124.07 C 97.45 123.86 98.59 123.44 99.16 123.23 Z" />
</g>
<g id="#4f3223ff">
<path fill="#4f3223" opacity="1.00" d=" M 93.83 124.16 C 94.59 124.14 96.11 124.09 96.87 124.07 C 97.84 125.11 98.83 126.13 99.77 127.20 C 97.59 126.68 95.12 126.20 93.83 124.16 Z" />
</g>
<g id="#e0bb97ff">
<path fill="#e0bb97" opacity="1.00" d=" M 45.72 125.20 C 50.87 127.23 56.36 126.17 61.71 126.25 C 63.62 127.05 62.88 129.31 63.01 130.93 C 61.72 130.69 60.46 130.33 59.17 130.10 C 62.09 136.85 57.85 134.32 55.36 134.33 C 53.41 137.09 51.63 139.97 49.72 142.77 C 46.24 142.74 42.57 143.11 39.32 141.69 C 38.17 141.24 36.84 140.55 35.88 141.75 C 35.55 141.99 34.88 142.46 34.54 142.70 L 33.63 142.89 C 34.39 141.32 35.26 139.62 37.09 139.14 C 40.04 138.17 42.78 135.72 46.05 136.66 C 49.58 137.02 47.26 130.64 47.66 129.55 C 45.80 128.60 44.56 127.27 45.72 125.20 Z" />
</g>
<g id="#9c532dff">
<path fill="#9c532d" opacity="1.00" d=" M 105.09 124.88 C 111.98 126.32 106.28 136.52 110.29 140.71 C 113.21 149.01 125.35 155.18 132.47 148.45 C 133.84 147.41 135.01 146.15 136.10 144.83 C 136.81 146.76 137.01 148.80 137.17 150.83 L 137.09 151.84 C 130.36 155.14 122.18 158.04 114.88 154.72 C 116.12 150.68 112.21 152.93 109.92 153.02 C 110.41 151.23 111.20 149.55 111.86 147.83 C 110.17 148.56 108.60 149.51 106.94 150.29 C 106.55 149.97 105.75 149.31 105.36 148.98 C 105.68 147.34 105.72 145.66 105.62 143.99 C 106.59 139.65 105.55 135.41 104.95 131.15 C 104.98 129.58 105.06 126.45 105.09 124.88 Z" />
</g>
<g id="#a37654ff">
<path fill="#a37654" opacity="1.00" d=" M 135.14 126.87 C 137.87 130.23 136.56 136.75 141.82 137.48 C 142.01 141.08 140.68 144.45 140.09 147.94 C 142.41 153.36 146.66 158.07 146.75 164.26 C 146.85 165.62 144.94 166.19 144.13 167.10 C 146.66 160.71 140.43 155.70 137.17 150.83 C 137.01 148.80 136.81 146.76 136.10 144.83 C 135.65 143.30 135.16 141.79 134.74 140.25 C 134.93 135.79 135.06 131.32 135.14 126.87 Z" />
</g>
<g id="#302722ff">
<path fill="#302722" opacity="1.00" d=" M 93.22 129.68 C 95.51 128.84 97.87 128.18 100.27 127.73 C 100.72 127.79 101.61 127.92 102.06 127.98 C 102.75 129.09 103.48 130.16 104.21 131.25 C 101.48 131.33 95.97 127.72 96.00 132.84 C 98.95 135.38 106.65 137.30 103.14 142.51 C 103.37 139.32 100.88 138.42 98.21 137.72 C 96.89 137.02 95.59 136.29 94.28 135.58 C 92.63 134.35 90.82 133.32 88.82 132.81 C 91.68 132.56 95.52 132.81 93.22 129.68 Z" />
</g>
<g id="#3a2e26bb">
<path fill="#3a2e26" opacity="0.73" d=" M 25.36 129.61 C 25.96 130.21 26.55 130.83 27.12 131.47 C 25.82 133.03 26.03 135.11 25.91 137.00 C 23.80 136.24 25.39 131.75 25.36 129.61 Z" />
</g>
<g id="#65412dff">
<path fill="#65412d" opacity="1.00" d=" M 93.22 129.68 C 95.52 132.81 91.68 132.56 88.82 132.81 C 87.55 132.91 86.62 132.17 85.85 131.26 C 88.43 131.03 90.88 130.50 93.22 129.68 Z" />
</g>
<g id="#37322fff">
<path fill="#37322f" opacity="1.00" d=" M 96.00 132.84 C 95.97 127.72 101.48 131.33 104.21 131.25 L 104.95 131.15 C 105.55 135.41 106.59 139.65 105.62 143.99 C 105.03 143.81 103.87 143.45 103.29 143.27 L 103.14 142.51 C 106.65 137.30 98.95 135.38 96.00 132.84 Z" />
</g>
<g id="#b76537ff">
<path fill="#b76537" opacity="1.00" d=" M 130.24 131.09 C 133.14 128.49 132.34 135.09 133.37 136.82 C 132.95 139.04 132.22 141.23 130.99 143.14 C 128.10 144.28 125.18 145.53 121.96 143.93 C 121.30 140.42 125.16 139.14 126.87 136.76 C 128.21 135.01 129.30 133.08 130.24 131.09 Z" />
</g>
<g id="#de8a4dfc">
<path fill="#de8a4d" opacity="1.00" d=" M 25.91 137.00 C 26.03 135.11 25.82 133.03 27.12 131.47 L 27.86 132.03 C 28.18 132.27 28.81 132.75 29.12 132.99 C 28.84 133.21 28.29 133.67 28.01 133.90 C 26.64 134.56 27.29 136.24 27.34 137.39 C 27.55 143.69 30.55 149.51 30.06 155.89 C 29.50 155.74 28.38 155.44 27.82 155.29 L 27.16 154.91 C 26.95 148.92 26.85 142.93 25.91 137.00 Z" />
</g>
<g id="#b86b3cff">
<path fill="#b86b3c" opacity="1.00" d=" M 29.12 132.99 C 33.31 133.43 30.60 140.20 32.81 143.11 C 33.25 144.53 34.01 145.82 34.81 147.06 C 35.27 149.03 35.78 150.98 36.13 152.97 C 35.94 155.77 35.83 158.61 35.42 161.40 C 35.08 161.59 34.40 161.97 34.06 162.16 C 32.45 162.12 30.65 162.02 30.10 160.21 C 32.42 159.17 36.00 158.30 32.99 153.99 C 31.73 147.23 30.45 140.36 28.01 133.90 C 28.29 133.67 28.84 133.21 29.12 132.99 Z" />
</g>
<g id="#7c3e20ff">
<path fill="#7c3e20" opacity="1.00" d=" M 88.82 132.81 C 90.82 133.32 92.63 134.35 94.28 135.58 C 92.93 135.76 91.60 136.00 90.29 136.29 C 87.59 141.06 86.70 146.88 82.87 150.97 C 83.95 145.93 85.96 141.15 86.95 136.09 C 86.23 136.06 84.79 136.01 84.06 135.99 C 83.56 135.97 82.56 135.93 82.06 135.91 L 81.93 134.87 C 83.33 134.93 84.73 134.97 86.13 134.99 C 88.36 135.14 91.29 135.48 88.82 132.81 Z" />
</g>
<g id="#c97641ff">
<path fill="#c97641" opacity="1.00" d=" M 27.34 137.39 C 27.29 136.24 26.64 134.56 28.01 133.90 C 30.45 140.36 31.73 147.23 32.99 153.99 C 36.00 158.30 32.42 159.17 30.10 160.21 C 29.23 158.62 28.52 156.96 27.82 155.29 C 28.38 155.44 29.50 155.74 30.06 155.89 C 30.55 149.51 27.55 143.69 27.34 137.39 Z" />
</g>
<g id="#a87a59ff">
<path fill="#a87a59" opacity="1.00" d=" M 77.10 133.88 C 78.46 134.06 79.82 134.27 81.13 134.66 C 78.68 135.43 77.56 137.21 78.05 139.76 C 77.89 142.22 77.69 144.69 77.45 147.16 C 76.63 145.80 76.30 143.38 74.18 144.01 C 74.10 144.70 73.93 146.09 73.85 146.79 C 71.92 148.46 68.96 149.23 67.83 151.62 C 66.94 153.65 66.61 155.87 65.82 157.95 C 64.65 157.91 63.88 157.30 63.52 156.13 C 62.28 157.08 60.97 158.21 60.96 159.91 C 60.73 161.28 60.29 162.59 59.80 163.88 C 57.57 162.38 56.69 163.76 56.44 166.05 C 55.24 164.49 53.48 165.23 52.03 165.93 C 51.98 165.55 51.86 164.80 51.80 164.42 C 52.96 162.48 53.74 160.07 55.80 158.87 C 61.72 156.58 64.77 150.48 68.73 145.84 C 70.41 143.03 72.15 140.24 74.15 137.64 C 76.40 137.98 76.53 135.45 77.10 133.88 Z" />
</g>
<g id="#8c5e41ff">
<path fill="#8c5e41" opacity="1.00" d=" M 78.05 139.76 C 77.56 137.21 78.68 135.43 81.13 134.66 L 81.93 134.87 L 82.06 135.91 C 82.23 137.94 82.71 139.92 83.06 141.91 L 82.31 142.18 C 81.70 141.82 80.48 141.09 79.87 140.73 C 79.41 140.49 78.51 140.00 78.05 139.76 Z" />
</g>
<g id="#311b11ff">
<path fill="#311b11" opacity="1.00" d=" M 82.06 135.91 C 82.56 135.93 83.56 135.97 84.06 135.99 C 83.81 137.47 83.31 140.43 83.06 141.91 C 82.71 139.92 82.23 137.94 82.06 135.91 Z" />
</g>
<g id="#662f16ff">
<path fill="#662f16" opacity="1.00" d=" M 84.06 135.99 C 84.79 136.01 86.23 136.06 86.95 136.09 C 85.96 141.15 83.95 145.93 82.87 150.97 C 82.23 152.30 81.71 153.70 80.98 155.00 C 79.47 150.43 82.22 146.46 82.31 142.18 L 83.06 141.91 C 83.31 140.43 83.81 137.47 84.06 135.99 Z" />
</g>
<g id="#8b4724ff">
<path fill="#8b4724" opacity="1.00" d=" M 90.29 136.29 C 91.60 136.00 92.93 135.76 94.28 135.58 C 95.59 136.29 96.89 137.02 98.21 137.72 C 96.73 137.84 93.77 138.07 92.29 138.18 C 89.66 144.97 87.30 152.31 81.94 157.48 L 81.38 157.09 C 81.10 156.89 80.56 156.49 80.29 156.29 C 80.46 155.97 80.81 155.32 80.98 155.00 C 81.71 153.70 82.23 152.30 82.87 150.97 C 86.70 146.88 87.59 141.06 90.29 136.29 Z" />
</g>
<g id="#3c322cff">
<path fill="#3c322c" opacity="1.00" d=" M 133.37 136.82 C 133.83 137.96 134.26 139.11 134.74 140.25 C 135.16 141.79 135.65 143.30 136.10 144.83 C 135.01 146.15 133.84 147.41 132.47 148.45 C 131.83 146.72 131.18 144.99 130.99 143.14 C 132.22 141.23 132.95 139.04 133.37 136.82 Z" />
</g>
<g id="#9c532cff">
<path fill="#9c532c" opacity="1.00" d=" M 92.29 138.18 C 93.77 138.07 96.73 137.84 98.21 137.72 C 100.88 138.42 103.37 139.32 103.14 142.51 L 103.29 143.27 C 100.81 144.74 99.11 140.79 96.99 140.08 C 93.70 147.50 89.48 154.55 86.59 162.08 L 85.89 162.38 C 83.76 161.62 82.99 159.28 81.94 157.48 C 87.30 152.31 89.66 144.97 92.29 138.18 Z" />
</g>
<g id="#5e412fff">
<path fill="#5e412f" opacity="1.00" d=" M 78.05 139.76 C 78.51 140.00 79.41 140.49 79.87 140.73 C 79.43 143.53 79.13 146.39 78.69 149.20 C 78.20 148.56 77.79 147.88 77.45 147.16 C 77.69 144.69 77.89 142.22 78.05 139.76 Z" />
</g>
<g id="#ae6134ff">
<path fill="#ae6134" opacity="1.00" d=" M 96.99 140.08 C 99.11 140.79 100.81 144.74 103.29 143.27 C 103.87 143.45 105.03 143.81 105.62 143.99 C 105.72 145.66 105.68 147.34 105.36 148.98 C 104.97 151.26 104.48 153.53 103.66 155.69 C 102.42 158.64 98.39 159.52 97.99 162.98 C 94.83 166.44 89.80 164.49 86.59 162.08 C 89.48 154.55 93.70 147.50 96.99 140.08 Z" />
</g>
<g id="#211813ff">
<path fill="#211813" opacity="1.00" d=" M 78.69 149.20 C 79.13 146.39 79.43 143.53 79.87 140.73 C 80.48 141.09 81.70 141.82 82.31 142.18 C 82.22 146.46 79.47 150.43 80.98 155.00 C 80.81 155.32 80.46 155.97 80.29 156.29 C 76.78 158.27 72.78 154.58 73.76 150.82 C 73.81 149.47 73.84 148.13 73.85 146.79 C 73.93 146.09 74.10 144.70 74.18 144.01 C 76.30 143.38 76.63 145.80 77.45 147.16 C 77.79 147.88 78.20 148.56 78.69 149.20 Z" />
</g>
<g id="#c59c7bf6">
<path fill="#c59c7b" opacity="0.96" d=" M 150.09 159.10 C 151.32 152.70 153.00 146.15 156.59 140.65 C 157.65 141.53 160.90 141.69 159.69 143.72 C 156.47 148.80 154.12 154.78 150.09 159.10 Z" />
</g>
<g id="#b98c68ff">
<path fill="#b98c68" opacity="1.00" d=" M 58.89 148.85 C 62.36 147.72 64.77 143.54 68.73 145.84 C 64.77 150.48 61.72 156.58 55.80 158.87 C 53.74 160.07 52.96 162.48 51.80 164.42 C 52.29 158.87 52.62 150.93 58.89 148.85 Z" />
</g>
<g id="#bd8f69ff">
<path fill="#bd8f69" opacity="1.00" d=" M 34.81 147.06 C 36.80 148.06 38.42 149.67 38.74 151.95 C 37.86 152.27 36.99 152.61 36.13 152.97 C 35.78 150.98 35.27 149.03 34.81 147.06 Z" />
</g>
<g id="#986a4bff">
<path fill="#986a4b" opacity="1.00" d=" M 67.83 151.62 C 68.96 149.23 71.92 148.46 73.85 146.79 C 73.84 148.13 73.81 149.47 73.76 150.82 C 73.54 152.14 73.09 154.79 72.87 156.11 C 71.58 155.09 70.39 153.96 69.17 152.87 C 68.83 152.56 68.17 151.93 67.83 151.62 Z" />
</g>
<g id="#ae7e5aff">
<path fill="#ae7e5a" opacity="1.00" d=" M 106.94 150.29 C 108.60 149.51 110.17 148.56 111.86 147.83 C 111.20 149.55 110.41 151.23 109.92 153.02 C 112.21 152.93 116.12 150.68 114.88 154.72 C 113.53 157.64 112.33 160.67 111.86 163.87 C 112.85 163.55 113.84 163.22 114.82 162.87 L 114.97 163.76 C 114.36 165.08 113.72 166.38 113.02 167.66 C 112.03 169.13 111.10 170.65 110.16 172.16 C 109.67 167.99 109.35 163.77 108.34 159.68 L 108.13 158.70 C 107.95 157.06 107.76 155.42 107.44 153.81 C 107.26 152.64 107.10 151.46 106.94 150.29 Z" />
</g>
<g id="#3a302bff">
<path fill="#3a302b" opacity="1.00" d=" M 105.36 148.98 C 105.75 149.31 106.55 149.97 106.94 150.29 C 107.10 151.46 107.26 152.64 107.44 153.81 C 106.65 155.78 105.80 157.75 104.60 159.51 C 102.29 160.47 99.99 161.47 97.99 162.98 C 98.39 159.52 102.42 158.64 103.66 155.69 C 104.48 153.53 104.97 151.26 105.36 148.98 Z" />
</g>
<g id="#2f241eff">
<path fill="#2f241e" opacity="1.00" d=" M 72.87 156.11 C 73.09 154.79 73.54 152.14 73.76 150.82 C 72.78 154.58 76.78 158.27 80.29 156.29 C 80.56 156.49 81.10 156.89 81.38 157.09 C 78.20 157.74 75.07 158.57 71.87 159.09 C 70.52 159.12 69.16 159.16 67.81 159.21 C 67.10 157.06 68.78 154.96 69.17 152.87 C 70.39 153.96 71.58 155.09 72.87 156.11 Z" />
</g>
<g id="#966a4bfc">
<path fill="#966a4b" opacity="1.00" d=" M 137.17 150.83 C 140.43 155.70 146.66 160.71 144.13 167.10 C 143.89 169.38 141.78 171.02 139.88 171.99 C 140.69 168.91 144.59 167.21 142.76 163.32 C 140.78 161.16 138.63 159.16 136.78 156.90 C 136.83 156.17 136.92 154.70 136.97 153.97 C 137.00 153.44 137.06 152.37 137.09 151.84 L 137.17 150.83 Z" />
</g>
<g id="#9b5630ff">
<path fill="#9b5630" opacity="1.00" d=" M 36.13 152.97 C 36.99 152.61 37.86 152.27 38.74 151.95 C 39.16 153.59 39.57 155.24 40.08 156.86 C 41.10 156.01 42.12 154.19 43.29 155.95 C 43.25 156.40 43.15 157.28 43.10 157.73 C 41.71 158.58 40.31 159.39 38.88 160.18 C 37.73 160.59 36.57 160.98 35.42 161.40 C 35.83 158.61 35.94 155.77 36.13 152.97 Z" />
</g>
<g id="#86573afc">
<path fill="#86573a" opacity="1.00" d=" M 65.82 157.95 C 66.61 155.87 66.94 153.65 67.83 151.62 C 68.17 151.93 68.83 152.56 69.17 152.87 C 68.78 154.96 67.10 157.06 67.81 159.21 C 68.95 162.02 68.35 165.10 68.18 168.05 C 65.38 166.77 62.77 163.70 63.68 160.27 C 63.24 158.64 62.01 159.48 60.96 159.91 C 60.97 158.21 62.28 157.08 63.52 156.13 C 63.88 157.30 64.65 157.91 65.82 157.95 Z" />
</g>
<g id="#8f4927fc">
<path fill="#8f4927" opacity="1.00" d=" M 114.88 154.72 C 122.18 158.04 130.36 155.14 137.09 151.84 C 137.06 152.37 137.00 153.44 136.97 153.97 C 131.42 157.04 125.48 159.63 119.10 160.25 C 117.48 160.79 114.88 160.58 114.82 162.87 C 113.84 163.22 112.85 163.55 111.86 163.87 C 112.33 160.67 113.53 157.64 114.88 154.72 Z" />
</g>
<g id="#bd916cff">
<path fill="#bd916c" opacity="1.00" d=" M 43.29 155.95 C 44.26 154.65 44.92 152.65 46.92 152.93 C 46.87 153.64 46.78 155.07 46.73 155.79 C 46.11 157.56 46.47 161.09 43.82 159.14 C 43.64 158.78 43.28 158.08 43.10 157.73 C 43.15 157.28 43.25 156.40 43.29 155.95 Z" />
</g>
<g id="#3a3a39ff">
<path fill="#3a3a39" opacity="1.00" d=" M 107.44 153.81 C 107.76 155.42 107.95 157.06 108.13 158.70 C 101.64 161.87 102.99 174.79 94.07 174.99 C 91.08 173.32 87.11 171.09 87.12 167.22 C 89.11 164.40 92.82 168.31 95.38 166.43 C 96.98 166.03 97.79 164.50 97.99 162.98 C 99.99 161.47 102.29 160.47 104.60 159.51 C 105.80 157.75 106.65 155.78 107.44 153.81 Z" />
</g>
<g id="#844121ff">
<path fill="#844121" opacity="1.00" d=" M 119.10 160.25 C 125.48 159.63 131.42 157.04 136.97 153.97 C 136.92 154.70 136.83 156.17 136.78 156.90 C 136.57 157.14 136.16 157.63 135.95 157.87 C 130.36 159.58 124.96 161.86 119.53 163.99 C 118.02 163.79 116.50 163.51 114.97 163.76 L 114.82 162.87 C 114.88 160.58 117.48 160.79 119.10 160.25 Z" />
</g>
<g id="#423f3cfc">
<path fill="#423f3c" opacity="1.00" d=" M 27.16 154.91 L 27.82 155.29 C 28.52 156.96 29.23 158.62 30.10 160.21 C 30.65 162.02 32.45 162.12 34.06 162.16 C 33.07 162.64 32.05 163.06 31.01 163.43 C 32.21 164.46 33.58 165.29 34.81 166.30 C 35.14 168.21 33.49 169.95 32.30 171.31 C 30.63 173.61 26.59 167.75 26.77 171.92 L 25.78 171.69 L 25.86 170.96 C 25.80 169.47 25.67 166.49 25.61 165.00 C 24.64 161.78 26.88 158.27 27.16 154.91 Z" />
</g>
<g id="#8b664bff">
<path fill="#8b664b" opacity="1.00" d=" M 43.82 159.14 C 46.47 161.09 46.11 157.56 46.73 155.79 C 47.15 157.16 47.64 158.51 48.07 159.88 C 47.09 160.59 46.14 161.33 45.11 161.98 C 44.65 161.04 44.22 160.10 43.82 159.14 Z" />
</g>
<g id="#60321cff">
<path fill="#60321c" opacity="1.00" d=" M 81.38 157.09 L 81.94 157.48 C 82.99 159.28 83.76 161.62 85.89 162.38 C 82.42 163.64 85.73 167.99 86.00 170.82 C 80.94 170.08 75.78 171.22 70.68 171.18 L 69.69 170.98 C 72.08 167.14 78.05 165.65 78.15 160.30 C 75.83 160.20 71.71 162.69 71.87 159.09 C 75.07 158.57 78.20 157.74 81.38 157.09 Z" />
</g>
<g id="#87593dff">
<path fill="#87593d" opacity="1.00" d=" M 135.95 157.87 C 136.16 157.63 136.57 157.14 136.78 156.90 C 138.63 159.16 140.78 161.16 142.76 163.32 C 144.59 167.21 140.69 168.91 139.88 171.99 C 139.62 172.53 139.11 173.60 138.85 174.13 C 135.95 174.52 138.24 172.02 138.52 170.60 C 141.70 164.73 134.68 163.63 130.92 164.48 C 133.09 162.69 135.00 160.56 135.95 157.87 Z" />
</g>
<g id="#2c201bfd">
<path fill="#2c201b" opacity="1.00" d=" M 38.88 160.18 C 40.31 159.39 41.71 158.58 43.10 157.73 C 43.28 158.08 43.64 158.78 43.82 159.14 C 44.22 160.10 44.65 161.04 45.11 161.98 C 46.14 161.33 47.09 160.59 48.07 159.88 C 48.79 161.85 49.46 163.84 50.08 165.85 C 48.71 169.14 47.39 172.51 46.94 176.07 L 46.78 176.99 C 46.11 178.28 46.66 180.90 44.88 181.11 C 43.57 176.69 45.31 172.41 46.10 168.12 C 43.65 168.87 41.22 169.73 38.84 170.68 C 37.48 171.19 36.13 171.75 34.75 172.23 C 34.64 171.98 34.43 171.48 34.32 171.24 C 37.45 169.92 40.84 168.41 41.98 164.91 C 42.86 162.55 40.18 161.57 38.88 160.18 Z" />
</g>
<g id="#74371bff">
<path fill="#74371b" opacity="1.00" d=" M 119.53 163.99 C 124.96 161.86 130.36 159.58 135.95 157.87 C 135.00 160.56 133.09 162.69 130.92 164.48 C 127.12 165.84 123.01 166.65 119.53 163.99 Z" />
</g>
<g id="#704027ff">
<path fill="#704027" opacity="1.00" d=" M 67.81 159.21 C 69.16 159.16 70.52 159.12 71.87 159.09 C 71.71 162.69 75.83 160.20 78.15 160.30 C 78.05 165.65 72.08 167.14 69.69 170.98 L 68.87 170.95 C 68.74 170.43 68.48 169.38 68.35 168.86 L 68.18 168.05 C 68.35 165.10 68.95 162.02 67.81 159.21 Z" />
</g>
<g id="#393029ff">
<path fill="#393029" opacity="1.00" d=" M 94.07 174.99 C 102.99 174.79 101.64 161.87 108.13 158.70 L 108.34 159.68 C 108.01 161.38 108.78 164.77 106.10 163.32 C 106.13 163.68 106.18 164.40 106.21 164.76 C 105.12 166.38 104.01 167.99 102.93 169.63 C 101.38 171.75 100.21 174.12 98.63 176.22 C 97.14 176.35 96.98 177.77 96.62 178.97 C 93.54 177.72 91.12 175.15 88.01 173.82 C 87.73 173.53 87.17 172.95 86.89 172.66 C 86.67 172.20 86.23 171.28 86.00 170.82 C 85.73 167.99 82.42 163.64 85.89 162.38 L 86.59 162.08 C 89.80 164.49 94.83 166.44 97.99 162.98 C 97.79 164.50 96.98 166.03 95.38 166.43 C 92.82 168.31 89.11 164.40 87.12 167.22 C 87.11 171.09 91.08 173.32 94.07 174.99 Z" />
</g>
<g id="#322f2dff">
<path fill="#322f2d" opacity="1.00" d=" M 35.42 161.40 C 36.57 160.98 37.73 160.59 38.88 160.18 C 40.18 161.57 42.86 162.55 41.98 164.91 C 40.84 168.41 37.45 169.92 34.32 171.24 C 34.43 171.48 34.64 171.98 34.75 172.23 L 35.00 172.80 C 32.60 173.36 30.75 175.45 28.37 175.82 C 27.84 174.51 27.34 173.20 26.77 171.92 C 26.59 167.75 30.63 173.61 32.30 171.31 C 33.49 169.95 35.14 168.21 34.81 166.30 C 33.58 165.29 32.21 164.46 31.01 163.43 C 32.05 163.06 33.07 162.64 34.06 162.16 C 34.40 161.97 35.08 161.59 35.42 161.40 Z" />
</g>
<g id="#714a32f9">
<path fill="#714a32" opacity="0.98" d=" M 108.34 159.68 C 109.35 163.77 109.67 167.99 110.16 172.16 C 110.04 173.50 109.94 174.85 109.84 176.20 C 109.61 175.95 109.13 175.46 108.89 175.21 C 108.56 171.63 108.27 167.82 106.21 164.76 C 106.18 164.40 106.13 163.68 106.10 163.32 C 108.78 164.77 108.01 161.38 108.34 159.68 Z" />
</g>
<g id="#72482ff0">
<path fill="#72482f" opacity="0.94" d=" M 56.44 166.05 C 56.69 163.76 57.57 162.38 59.80 163.88 C 59.89 165.85 60.86 167.42 61.97 168.95 C 58.54 173.55 52.52 176.54 46.78 176.99 L 46.94 176.07 C 49.40 174.81 51.91 173.62 54.11 171.93 C 55.60 170.45 55.68 167.97 56.44 166.05 Z" />
</g>
<g id="#7a492dfc">
<path fill="#7a492d" opacity="1.00" d=" M 114.97 163.76 C 116.50 163.51 118.02 163.79 119.53 163.99 C 123.01 166.65 127.12 165.84 130.92 164.48 C 134.68 163.63 141.70 164.73 138.52 170.60 C 138.24 172.02 135.95 174.52 138.85 174.13 C 138.10 176.39 140.49 182.05 138.03 183.02 C 138.02 181.38 138.03 179.74 138.00 178.10 C 137.98 177.36 137.94 175.86 137.92 175.12 C 135.58 175.60 133.21 176.02 130.81 175.95 C 133.01 174.94 135.97 174.09 135.04 171.01 C 130.43 170.95 125.78 171.33 121.26 172.26 C 119.25 172.85 120.45 174.71 120.90 176.03 C 120.00 175.74 119.12 175.40 118.27 175.00 C 117.01 172.24 115.00 169.92 113.02 167.66 C 113.72 166.38 114.36 165.08 114.97 163.76 Z" />
</g>
<g id="#a5623df3">
<path fill="#a5623d" opacity="0.95" d=" M 25.61 165.00 C 25.67 166.49 25.80 169.47 25.86 170.96 C 25.19 169.98 24.65 168.93 24.08 167.90 C 24.08 166.70 24.59 165.73 25.61 165.00 Z" />
</g>
<g id="#9b6d4eff">
<path fill="#9b6d4e" opacity="1.00" d=" M 52.03 165.93 C 53.48 165.23 55.24 164.49 56.44 166.05 C 55.68 167.97 55.60 170.45 54.11 171.93 C 53.57 170.18 52.94 168.46 52.18 166.79 L 52.03 165.93 Z" />
</g>
<g id="#aa5b2fff">
<path fill="#aa5b2f" opacity="1.00" d=" M 106.21 164.76 C 108.27 167.82 108.56 171.63 108.89 175.21 C 106.10 174.24 106.11 170.07 102.93 169.63 C 104.01 167.99 105.12 166.38 106.21 164.76 Z" />
</g>
<g id="#6b3f28ff">
<path fill="#6b3f28" opacity="1.00" d=" M 50.08 165.85 C 50.60 166.09 51.65 166.56 52.18 166.79 C 52.94 168.46 53.57 170.18 54.11 171.93 C 51.91 173.62 49.40 174.81 46.94 176.07 C 47.39 172.51 48.71 169.14 50.08 165.85 Z" />
</g>
<g id="#dc854bfc">
<path fill="#dc854b" opacity="1.00" d=" M 24.08 167.90 C 24.65 168.93 25.19 169.98 25.86 170.96 L 25.78 171.69 C 25.10 177.16 23.72 183.27 26.58 188.36 C 26.94 189.38 27.66 191.76 25.97 191.90 C 22.07 192.47 22.09 197.09 20.86 200.00 C 20.37 200.01 19.38 200.02 18.88 200.03 C 18.51 197.72 18.16 195.41 17.83 193.11 C 13.00 191.46 19.90 201.05 14.07 199.09 C 11.25 198.36 10.65 193.50 11.20 191.27 C 17.81 185.11 22.72 176.90 24.08 167.90 Z" />
</g>
<g id="#6e3319ff">
<path fill="#6e3319" opacity="1.00" d=" M 38.84 170.68 C 41.22 169.73 43.65 168.87 46.10 168.12 C 45.31 172.41 43.57 176.69 44.88 181.11 C 42.30 182.83 41.67 181.47 42.97 177.02 C 45.43 172.84 41.88 170.73 38.84 170.68 Z" />
</g>
<g id="#07040219">
<path fill="#070402" opacity="0.10" d=" M 110.16 172.16 C 111.10 170.65 112.03 169.13 113.02 167.66 C 115.00 169.92 117.01 172.24 118.27 175.00 C 116.70 176.15 115.18 177.39 113.79 178.76 C 112.81 179.48 111.81 180.19 110.84 180.92 C 109.71 179.61 110.08 177.78 109.84 176.20 C 109.94 174.85 110.04 173.50 110.16 172.16 Z" />
</g>
<g id="#9e562efb">
<path fill="#9e562e" opacity="1.00" d=" M 68.35 168.86 C 68.48 169.38 68.74 170.43 68.87 170.95 C 69.21 174.99 74.37 174.22 77.01 175.97 C 80.66 177.12 78.44 181.65 79.10 184.57 C 80.13 184.57 81.16 184.54 82.19 184.57 C 77.30 187.96 70.53 184.02 65.00 186.03 L 65.04 185.10 C 67.00 185.00 68.98 184.75 70.74 183.83 C 70.37 181.63 70.39 179.41 70.71 177.20 C 69.05 175.44 66.90 174.25 64.94 172.85 C 65.94 171.41 67.21 170.18 68.35 168.86 Z" />
</g>
<g id="#823f20ff">
<path fill="#823f20" opacity="1.00" d=" M 70.68 171.18 C 75.78 171.22 80.94 170.08 86.00 170.82 C 86.23 171.28 86.67 172.20 86.89 172.66 C 86.07 174.94 85.74 177.80 83.28 178.96 C 81.17 173.70 75.63 172.61 70.68 171.18 Z" />
</g>
<g id="#b76838fe">
<path fill="#b76838" opacity="1.00" d=" M 98.63 176.22 C 100.21 174.12 101.38 171.75 102.93 169.63 C 106.11 170.07 106.10 174.24 108.89 175.21 C 109.13 175.46 109.61 175.95 109.84 176.20 C 110.08 177.78 109.71 179.61 110.84 180.92 C 112.65 183.78 115.16 186.37 114.89 189.99 C 114.21 189.99 112.85 189.97 112.17 189.96 C 111.89 187.91 111.98 185.27 109.96 184.07 C 106.18 182.53 105.63 177.81 102.14 175.85 C 100.18 178.69 98.50 181.71 96.58 184.57 C 93.48 185.56 90.29 186.22 87.13 186.96 C 86.92 185.43 86.52 182.38 86.31 180.86 C 86.88 178.51 87.39 176.15 88.01 173.82 C 91.12 175.15 93.54 177.72 96.62 178.97 C 96.98 177.77 97.14 176.35 98.63 176.22 Z" />
</g>
<g id="#8d4826fe">
<path fill="#8d4826" opacity="1.00" d=" M 34.75 172.23 C 36.13 171.75 37.48 171.19 38.84 170.68 C 41.88 170.73 45.43 172.84 42.97 177.02 C 41.67 181.47 42.30 182.83 44.88 181.11 C 45.29 183.41 44.38 185.61 43.79 187.79 C 42.82 189.15 42.22 191.38 40.12 191.08 C 39.12 185.16 39.31 179.05 37.80 173.23 C 37.10 173.12 35.70 172.90 35.00 172.80 L 34.75 172.23 Z" />
</g>
<g id="#944c27fe">
<path fill="#944c27" opacity="1.00" d=" M 68.87 170.95 L 69.69 170.98 L 70.68 171.18 C 75.63 172.61 81.17 173.70 83.28 178.96 C 85.74 177.80 86.07 174.94 86.89 172.66 C 87.17 172.95 87.73 173.53 88.01 173.82 C 87.39 176.15 86.88 178.51 86.31 180.86 C 85.28 182.27 83.97 184.26 82.19 184.57 C 81.16 184.54 80.13 184.57 79.10 184.57 C 78.44 181.65 80.66 177.12 77.01 175.97 C 74.37 174.22 69.21 174.99 68.87 170.95 Z" />
</g>
<g id="#693a22ff">
<path fill="#693a22" opacity="1.00" d=" M 121.26 172.26 C 125.78 171.33 130.43 170.95 135.04 171.01 C 135.97 174.09 133.01 174.94 130.81 175.95 C 127.50 176.00 124.21 176.16 120.90 176.03 C 120.45 174.71 119.25 172.85 121.26 172.26 Z" />
</g>
<g id="#c3723fff">
<path fill="#c3723f" opacity="1.00" d=" M 26.58 188.36 C 23.72 183.27 25.10 177.16 25.78 171.69 C 26.31 173.64 26.78 175.60 27.22 177.57 C 29.02 177.63 32.03 175.78 32.53 178.39 C 32.20 183.15 37.08 186.13 35.98 191.02 C 35.02 194.62 34.57 199.08 30.86 200.95 C 29.11 201.45 28.16 201.10 27.99 199.89 C 27.98 198.42 27.96 195.48 27.95 194.01 C 27.50 194.01 26.60 194.03 26.14 194.03 C 28.65 200.23 24.69 200.30 20.86 200.00 C 22.09 197.09 22.07 192.47 25.97 191.90 C 27.66 191.76 26.94 189.38 26.58 188.36 Z" />
</g>
<g id="#a45b31fd">
<path fill="#a45b31" opacity="1.00" d=" M 25.78 171.69 L 26.77 171.92 C 27.34 173.20 27.84 174.51 28.37 175.82 C 30.75 175.45 32.60 173.36 35.00 172.80 C 35.70 172.90 37.10 173.12 37.80 173.23 C 39.31 179.05 39.12 185.16 40.12 191.08 C 42.22 191.38 42.82 189.15 43.79 187.79 C 46.77 195.60 37.80 201.92 30.86 200.95 C 34.57 199.08 35.02 194.62 35.98 191.02 C 37.08 186.13 32.20 183.15 32.53 178.39 C 32.03 175.78 29.02 177.63 27.22 177.57 C 26.78 175.60 26.31 173.64 25.78 171.69 Z" />
</g>
<g id="#b86939fa">
<path fill="#b86939" opacity="0.98" d=" M 58.94 183.03 C 56.14 178.92 60.64 173.41 64.94 172.85 C 66.90 174.25 69.05 175.44 70.71 177.20 C 70.39 179.41 70.37 181.63 70.74 183.83 C 68.98 184.75 67.00 185.00 65.04 185.10 C 62.86 184.92 59.71 185.82 58.94 183.03 Z" />
</g>
<g id="#9a5029fc">
<path fill="#9a5029" opacity="1.00" d=" M 118.27 175.00 C 119.12 175.40 120.00 175.74 120.90 176.03 C 124.21 176.16 127.50 176.00 130.81 175.95 C 133.21 176.02 135.58 175.60 137.92 175.12 C 137.94 175.86 137.98 177.36 138.00 178.10 C 129.90 174.98 121.72 182.09 113.79 178.76 C 115.18 177.39 116.70 176.15 118.27 175.00 Z" />
</g>
<g id="#cb7843fd">
<path fill="#cb7843" opacity="1.00" d=" M 102.14 175.85 C 105.63 177.81 106.18 182.53 109.96 184.07 C 111.98 185.27 111.89 187.91 112.17 189.96 C 112.75 194.33 114.28 199.35 110.82 202.92 C 109.34 202.95 106.38 203.02 104.89 203.05 C 104.17 200.80 105.40 196.42 103.14 196.09 C 101.49 195.99 102.19 198.49 101.38 199.45 C 100.41 200.51 99.41 201.56 98.65 202.79 C 97.10 203.15 95.49 203.05 93.91 203.03 C 93.26 200.61 93.91 197.60 92.21 195.71 C 93.62 201.41 91.57 203.52 86.04 202.04 C 82.52 201.39 84.01 196.79 84.11 194.07 C 84.85 191.60 85.67 189.10 87.13 186.96 C 90.29 186.22 93.48 185.56 96.58 184.57 C 98.50 181.71 100.18 178.69 102.14 175.85 Z" />
</g>
<g id="#b16336fd">
<path fill="#b16336" opacity="1.00" d=" M 113.79 178.76 C 121.72 182.09 129.90 174.98 138.00 178.10 C 138.03 179.74 138.02 181.38 138.03 183.02 C 138.22 185.90 136.44 189.06 133.81 190.19 C 133.09 190.11 131.66 189.94 130.95 189.86 C 129.21 185.94 135.36 183.20 134.02 178.99 C 130.76 178.51 126.87 180.18 125.88 183.51 C 125.22 185.67 125.23 187.83 125.90 189.98 C 123.84 191.88 119.98 191.85 118.04 189.87 C 118.01 188.16 117.96 184.73 117.94 183.02 C 113.77 181.80 116.03 187.86 116.96 190.12 C 116.44 190.09 115.41 190.03 114.89 189.99 C 115.16 186.37 112.65 183.78 110.84 180.92 C 111.81 180.19 112.81 179.48 113.79 178.76 Z" />
</g>
<g id="#bc6c3cff">
<path fill="#bc6c3c" opacity="1.00" d=" M 125.88 183.51 C 126.87 180.18 130.76 178.51 134.02 178.99 C 135.36 183.20 129.21 185.94 130.95 189.86 C 129.68 189.94 128.43 190.03 127.17 190.15 C 126.85 188.49 126.20 185.17 125.88 183.51 Z" />
</g>
<g id="#6c3d21ff">
<path fill="#6c3d21" opacity="1.00" d=" M 116.96 190.12 C 116.03 187.86 113.77 181.80 117.94 183.02 C 117.96 184.73 118.01 188.16 118.04 189.87 L 116.96 190.12 Z" />
</g>
<g id="#6a3c20ff">
<path fill="#6a3c20" opacity="1.00" d=" M 125.90 189.98 C 125.23 187.83 125.22 185.67 125.88 183.51 C 126.20 185.17 126.85 188.49 127.17 190.15 L 125.90 189.98 Z" />
</g>
<g id="#6d3e22c1">
<path fill="#6d3e22" opacity="0.76" d=" M 127.17 190.15 C 128.43 190.03 129.68 189.94 130.95 189.86 C 131.66 189.94 133.09 190.11 133.81 190.19 C 132.88 191.74 128.09 191.76 127.17 190.15 Z" />
</g>
<g id="#a15c33ed">
<path fill="#a15c33" opacity="0.93" d=" M 14.07 199.09 C 19.90 201.05 13.00 191.46 17.83 193.11 C 18.16 195.41 18.51 197.72 18.88 200.03 C 17.50 199.60 13.87 201.07 14.07 199.09 Z" />
</g>
<g id="#59331adf">
<path fill="#59331a" opacity="0.87" d=" M 26.14 194.03 C 26.60 194.03 27.50 194.01 27.95 194.01 C 27.96 195.48 27.98 198.42 27.99 199.89 C 25.70 202.22 21.98 200.73 19.04 200.97 L 18.88 200.03 C 19.38 200.02 20.37 200.01 20.86 200.00 C 24.69 200.30 28.65 200.23 26.14 194.03 Z" />
</g>
<g id="#4f2e19d0">
<path fill="#4f2e19" opacity="0.82" d=" M 92.21 195.71 C 93.91 197.60 93.26 200.61 93.91 203.03 C 91.66 202.43 86.60 204.40 86.04 202.04 C 91.57 203.52 93.62 201.41 92.21 195.71 Z" />
</g>
<g id="#b06234ff">
<path fill="#b06234" opacity="1.00" d=" M 101.38 199.45 C 102.19 198.49 101.49 195.99 103.14 196.09 C 103.01 198.42 102.66 200.73 102.00 202.97 C 101.16 202.93 99.49 202.84 98.65 202.79 C 99.41 201.56 100.41 200.51 101.38 199.45 Z" />
</g>
<g id="#472913ea">
<path fill="#472913" opacity="0.92" d=" M 103.14 196.09 C 105.40 196.42 104.17 200.80 104.89 203.05 C 104.17 203.03 102.73 202.99 102.00 202.97 C 102.66 200.73 103.01 198.42 103.14 196.09 Z" />
</g>
</svg>
