<?xml version="1.0" encoding="UTF-8" ?>
<!DOCTYPE svg PUBLIC "-//W3C//DTD SVG 1.1//EN" "http://www.w3.org/Graphics/SVG/1.1/DTD/svg11.dtd">
<svg width="148pt" height="139pt" viewBox="0 0 148 139" version="1.1" xmlns="http://www.w3.org/2000/svg">
<g id="#75abe1ff">
<path fill="#75abe1" opacity="1.00" d=" M 50.08 9.23 C 59.33 7.95 69.29 9.01 77.34 14.05 C 70.51 13.04 64.00 10.09 56.99 10.34 C 49.58 10.00 43.02 13.90 36.07 15.78 C 36.37 15.99 36.96 16.42 37.25 16.64 C 35.93 17.04 34.60 17.42 33.30 17.86 C 29.04 19.78 25.54 23.10 22.94 26.93 C 22.34 27.78 21.71 28.62 21.18 29.52 C 20.07 31.27 19.32 33.24 18.98 35.29 C 18.72 36.65 18.48 38.03 18.25 39.40 C 17.74 39.45 16.70 39.56 16.19 39.61 C 13.76 46.94 11.32 54.59 12.46 62.42 C 10.59 70.28 10.70 78.74 14.27 86.13 C 14.14 87.66 13.87 89.18 13.56 90.68 C 10.23 86.65 8.66 81.59 7.00 76.72 C 8.22 73.28 8.14 69.60 8.15 66.00 C 8.15 60.46 9.34 55.03 10.73 49.69 C 11.97 44.75 14.48 40.16 14.90 35.00 C 21.75 21.48 35.29 12.00 50.08 9.23 Z" />
</g>
<g id="#6c9fd5ff">
<path fill="#6c9fd5" opacity="1.00" d=" M 36.07 15.78 C 43.02 13.90 49.58 10.00 56.99 10.34 C 64.00 10.09 70.51 13.04 77.34 14.05 C 78.91 14.55 80.27 15.54 81.71 16.33 C 80.76 16.91 79.81 17.50 78.86 18.08 C 66.74 12.07 51.93 12.91 39.76 18.32 C 38.91 17.77 38.08 17.21 37.25 16.64 C 36.96 16.42 36.37 15.99 36.07 15.78 Z" />
</g>
<g id="#608fc7ff">
<path fill="#608fc7" opacity="1.00" d=" M 39.76 18.32 C 51.93 12.91 66.74 12.07 78.86 18.08 C 79.81 17.50 80.76 16.91 81.71 16.33 C 87.74 20.35 93.02 25.49 97.04 31.54 C 97.56 32.31 98.06 33.08 98.56 33.86 C 95.97 33.55 93.45 32.88 90.96 32.12 C 88.32 31.12 85.06 33.70 83.17 30.65 C 82.81 30.99 82.10 31.66 81.75 32.00 C 81.03 29.67 79.76 27.55 77.93 25.94 C 74.39 20.74 67.48 18.29 61.58 20.84 C 54.22 20.73 46.81 22.23 40.13 25.34 C 40.04 23.00 39.93 20.66 39.76 18.32 Z" />
</g>
<g id="#5784beff">
<path fill="#5784be" opacity="1.00" d=" M 33.30 17.86 C 34.60 17.42 35.93 17.04 37.25 16.64 C 38.08 17.21 38.91 17.77 39.76 18.32 C 39.93 20.66 40.04 23.00 40.13 25.34 C 46.81 22.23 54.22 20.73 61.58 20.84 C 57.06 23.96 55.64 29.69 56.54 34.89 C 54.88 31.32 51.04 29.13 47.13 29.47 C 43.46 29.87 39.89 30.92 36.24 31.46 C 38.03 27.97 40.10 24.08 39.34 20.03 C 38.73 17.24 35.45 17.59 33.30 17.86 Z" />
</g>
<g id="#ccd4e7ff">
<path fill="#ccd4e7" opacity="1.00" d=" M 97.04 31.54 C 102.96 25.05 110.01 18.19 119.18 17.23 C 126.37 17.00 132.73 22.10 135.47 28.51 C 137.85 34.18 139.66 40.61 138.08 46.73 C 137.53 44.18 136.92 41.64 136.37 39.09 C 132.22 36.15 128.80 32.38 125.30 28.74 C 123.00 26.50 120.13 23.72 116.62 24.56 C 109.79 26.18 105.13 31.85 100.01 36.22 C 99.54 35.43 99.05 34.64 98.56 33.86 C 98.06 33.08 97.56 32.31 97.04 31.54 Z" />
</g>
<g id="#201e1eff">
<path fill="#201e1e" opacity="1.00" d=" M 22.94 26.93 C 25.54 23.10 29.04 19.78 33.30 17.86 C 35.45 17.59 38.73 17.24 39.34 20.03 C 40.10 24.08 38.03 27.97 36.24 31.46 C 33.56 35.38 30.11 38.77 26.12 41.34 C 24.30 41.60 22.48 41.73 20.65 41.85 C 19.85 41.03 19.05 40.21 18.25 39.40 C 18.48 38.03 18.72 36.65 18.98 35.29 C 19.09 36.71 19.23 38.13 19.39 39.55 C 22.61 41.09 25.89 39.77 28.99 38.65 C 26.61 37.96 23.41 38.48 21.74 36.26 C 20.42 34.58 20.88 32.30 20.89 30.33 C 21.90 32.28 22.93 34.23 23.98 36.16 C 26.58 33.52 28.16 29.85 26.46 26.26 C 25.02 27.03 23.60 27.82 22.19 28.64 L 22.94 26.93 M 32.37 22.38 C 30.62 23.25 29.17 25.02 29.40 27.07 C 31.82 29.96 37.05 26.86 36.60 23.43 C 36.15 21.54 33.76 21.86 32.37 22.38 Z" />
<path fill="#201e1e" opacity="1.00" d=" M 77.93 25.94 C 79.76 27.55 81.03 29.67 81.75 32.00 C 81.80 35.51 82.01 39.55 79.30 42.25 C 73.62 48.38 62.37 46.18 58.67 38.87 C 59.20 39.23 60.24 39.94 60.77 40.29 C 63.79 42.34 67.05 44.63 70.89 44.35 C 75.61 44.52 80.39 40.93 80.74 36.06 C 81.45 32.39 79.59 29.04 77.93 25.94 Z" />
</g>
<g id="#23201eff">
<path fill="#23201e" opacity="1.00" d=" M 61.58 20.84 C 67.48 18.29 74.39 20.74 77.93 25.94 C 77.10 25.22 75.44 23.78 74.61 23.06 C 76.02 25.52 77.84 28.05 77.75 31.03 C 77.93 35.32 74.89 39.29 70.89 40.65 C 67.62 42.03 64.07 40.96 60.77 40.29 C 60.24 39.94 59.20 39.23 58.67 38.87 C 57.83 37.61 57.20 36.24 56.54 34.89 C 55.64 29.69 57.06 23.96 61.58 20.84 M 61.44 24.66 C 60.10 25.24 59.47 26.70 59.42 28.09 C 60.55 31.63 66.10 31.41 67.28 28.03 C 68.06 24.91 63.78 23.14 61.44 24.66 M 67.63 38.53 C 71.52 39.82 74.44 36.06 75.78 32.92 C 74.54 32.09 73.69 30.29 72.00 30.39 C 67.85 29.52 64.41 35.54 67.63 38.53 Z" />
</g>
<g id="#fbfbfbff">
<path fill="#fbfbfb" opacity="1.00" d=" M 32.37 22.38 C 33.76 21.86 36.15 21.54 36.60 23.43 C 37.05 26.86 31.82 29.96 29.40 27.07 C 29.17 25.02 30.62 23.25 32.37 22.38 Z" />
<path fill="#fbfbfb" opacity="1.00" d=" M 18.98 35.29 C 19.32 33.24 20.07 31.27 21.18 29.52 L 20.89 30.33 C 20.88 32.30 20.42 34.58 21.74 36.26 C 23.41 38.48 26.61 37.96 28.99 38.65 C 25.89 39.77 22.61 41.09 19.39 39.55 C 19.23 38.13 19.09 36.71 18.98 35.29 Z" />
</g>
<g id="#fcfcfcff">
<path fill="#fcfcfc" opacity="1.00" d=" M 61.44 24.66 C 63.78 23.14 68.06 24.91 67.28 28.03 C 66.10 31.41 60.55 31.63 59.42 28.09 C 59.47 26.70 60.10 25.24 61.44 24.66 Z" />
</g>
<g id="#c0c7dcff">
<path fill="#c0c7dc" opacity="1.00" d=" M 116.62 24.56 C 120.13 23.72 123.00 26.50 125.30 28.74 C 128.80 32.38 132.22 36.15 136.37 39.09 C 136.92 41.64 137.53 44.18 138.08 46.73 C 137.29 50.53 134.53 53.99 130.93 55.59 C 124.46 58.66 118.82 63.13 112.55 66.55 C 112.17 63.67 112.80 60.87 114.41 58.45 C 116.42 52.78 117.25 46.71 117.04 40.70 C 120.64 38.36 124.64 36.77 128.44 34.83 C 119.28 35.14 111.89 41.36 105.27 47.05 C 103.61 43.40 102.00 39.72 100.01 36.22 C 105.13 31.85 109.79 26.18 116.62 24.56 Z" />
</g>
<g id="#eaeae9ff">
<path fill="#eaeae9" opacity="1.00" d=" M 74.61 23.06 C 75.44 23.78 77.10 25.22 77.93 25.94 C 79.59 29.04 81.45 32.39 80.74 36.06 C 80.39 40.93 75.61 44.52 70.89 44.35 C 67.05 44.63 63.79 42.34 60.77 40.29 C 64.07 40.96 67.62 42.03 70.89 40.65 C 74.89 39.29 77.93 35.32 77.75 31.03 C 77.84 28.05 76.02 25.52 74.61 23.06 Z" />
</g>
<g id="#616161ff">
<path fill="#616161" opacity="1.00" d=" M 21.18 29.52 C 21.71 28.62 22.34 27.78 22.94 26.93 L 22.19 28.64 C 23.60 27.82 25.02 27.03 26.46 26.26 C 28.16 29.85 26.58 33.52 23.98 36.16 C 22.93 34.23 21.90 32.28 20.89 30.33 L 21.18 29.52 Z" />
</g>
<g id="#4e76aeff">
<path fill="#4e76ae" opacity="1.00" d=" M 36.24 31.46 C 39.89 30.92 43.46 29.87 47.13 29.47 C 51.04 29.13 54.88 31.32 56.54 34.89 C 57.20 36.24 57.83 37.61 58.67 38.87 C 62.37 46.18 73.62 48.38 79.30 42.25 C 82.01 39.55 81.80 35.51 81.75 32.00 C 82.10 31.66 82.81 30.99 83.17 30.65 C 85.06 33.70 88.32 31.12 90.96 32.12 C 93.45 32.88 95.97 33.55 98.56 33.86 C 99.05 34.64 99.54 35.43 100.01 36.22 C 102.00 39.72 103.61 43.40 105.27 47.05 C 105.67 47.92 106.07 48.79 106.47 49.66 C 106.35 49.76 106.11 49.96 106.00 50.06 C 105.20 50.72 104.40 51.36 103.60 52.01 C 103.01 51.17 102.40 50.34 101.77 49.51 C 99.31 51.04 96.90 52.79 95.33 55.29 C 90.99 61.79 86.29 68.06 80.77 73.61 C 79.59 67.59 77.08 61.74 72.91 57.17 C 68.33 51.92 61.74 49.21 55.59 46.29 C 55.15 45.19 54.72 44.10 54.28 43.00 C 54.07 42.50 53.66 41.49 53.45 40.99 C 52.31 39.93 51.21 38.75 49.79 38.06 C 45.51 36.06 40.32 35.85 36.07 38.02 C 33.63 39.30 32.59 42.00 31.47 44.34 C 29.56 45.77 27.32 46.65 25.13 47.56 C 25.45 45.49 25.78 43.41 26.12 41.34 C 30.11 38.77 33.56 35.38 36.24 31.46 Z" />
</g>
<g id="#60605fff">
<path fill="#60605f" opacity="1.00" d=" M 67.63 38.53 C 64.41 35.54 67.85 29.52 72.00 30.39 C 73.69 30.29 74.54 32.09 75.78 32.92 C 74.44 36.06 71.52 39.82 67.63 38.53 Z" />
</g>
<g id="#2d4781ff">
<path fill="#2d4781" opacity="1.00" d=" M 105.27 47.05 C 111.89 41.36 119.28 35.14 128.44 34.83 C 124.64 36.77 120.64 38.36 117.04 40.70 C 113.24 43.35 109.92 46.59 106.47 49.66 C 106.07 48.79 105.67 47.92 105.27 47.05 Z" />
<path fill="#2d4781" opacity="1.00" d=" M 25.43 120.52 C 28.19 115.77 31.63 111.37 36.32 108.39 C 38.80 109.40 41.37 110.14 43.95 110.83 C 44.66 113.75 43.56 117.33 40.60 118.54 C 36.63 120.18 32.40 121.07 28.25 122.14 C 27.31 121.60 26.37 121.06 25.43 120.52 Z" />
</g>
<g id="#8acbf4fb">
<path fill="#8acbf4" opacity="1.00" d=" M 7.09 57.40 C 8.02 49.54 10.89 41.82 14.90 35.00 C 14.48 40.16 11.97 44.75 10.73 49.69 C 9.34 55.03 8.15 60.46 8.15 66.00 C 8.14 69.60 8.22 73.28 7.00 76.72 L 7.11 74.64 C 7.34 73.36 6.86 72.14 6.36 70.99 C 5.48 68.11 5.76 64.93 6.39 62.02 C 6.93 60.54 7.25 58.98 7.09 57.40 Z" />
</g>
<g id="#fcd4e9ff">
<path fill="#fcd4e9" opacity="1.00" d=" M 36.07 38.02 C 40.32 35.85 45.51 36.06 49.79 38.06 C 44.93 38.33 39.45 37.98 35.45 41.25 C 32.94 43.04 33.07 46.42 32.45 49.12 C 32.22 48.56 31.76 47.43 31.53 46.87 C 31.52 46.24 31.49 44.97 31.47 44.34 C 32.59 42.00 33.63 39.30 36.07 38.02 Z" />
</g>
<g id="#c8aacaff">
<path fill="#c8aaca" opacity="1.00" d=" M 49.79 38.06 C 51.21 38.75 52.31 39.93 53.45 40.99 C 52.58 41.81 51.72 42.62 50.86 43.44 C 47.07 41.12 42.56 40.50 38.48 42.49 L 37.76 42.71 C 36.82 43.31 35.52 43.66 35.18 44.86 C 36.28 46.84 37.75 48.57 39.15 50.35 C 37.70 51.10 36.28 51.88 34.86 52.67 C 34.01 51.51 33.21 50.33 32.45 49.12 C 33.07 46.42 32.94 43.04 35.45 41.25 C 39.45 37.98 44.93 38.33 49.79 38.06 Z" />
</g>
<g id="#6799d0ff">
<path fill="#6799d0" opacity="1.00" d=" M 16.19 39.61 C 16.70 39.56 17.74 39.45 18.25 39.40 C 19.05 40.21 19.85 41.03 20.65 41.85 C 18.33 45.24 17.30 49.22 16.93 53.27 C 15.42 56.30 13.81 59.30 12.46 62.42 C 11.32 54.59 13.76 46.94 16.19 39.61 Z" />
</g>
<g id="#ac92b6ff">
<path fill="#ac92b6" opacity="1.00" d=" M 38.48 42.49 C 42.56 40.50 47.07 41.12 50.86 43.44 C 51.72 42.62 52.58 41.81 53.45 40.99 C 53.66 41.49 54.07 42.50 54.28 43.00 C 55.88 47.23 53.03 52.07 48.37 51.99 C 48.82 52.36 49.73 53.12 50.18 53.49 C 45.18 53.79 40.18 53.87 35.22 53.12 L 34.86 52.67 C 36.28 51.88 37.70 51.10 39.15 50.35 C 37.75 48.57 36.28 46.84 35.18 44.86 C 35.52 43.66 36.82 43.31 37.76 42.71 C 37.48 43.39 36.91 44.73 36.62 45.41 C 40.49 47.64 45.90 48.64 49.26 44.96 C 46.04 42.92 42.24 42.36 38.48 42.49 Z" />
</g>
<g id="#b6c0d7ff">
<path fill="#b6c0d7" opacity="1.00" d=" M 106.47 49.66 C 109.92 46.59 113.24 43.35 117.04 40.70 C 117.25 46.71 116.42 52.78 114.41 58.45 C 112.80 60.87 112.17 63.67 112.55 66.55 C 111.38 67.25 110.20 67.92 109.01 68.56 C 109.11 62.26 107.83 56.06 106.00 50.06 C 106.11 49.96 106.35 49.76 106.47 49.66 Z" />
</g>
<g id="#5c88c4ff">
<path fill="#5c88c4" opacity="1.00" d=" M 20.65 41.85 C 22.48 41.73 24.30 41.60 26.12 41.34 C 25.78 43.41 25.45 45.49 25.13 47.56 C 21.99 48.80 19.34 50.95 16.93 53.27 C 17.30 49.22 18.33 45.24 20.65 41.85 Z" />
<path fill="#5c88c4" opacity="1.00" d=" M 73.99 112.71 C 78.22 110.54 83.13 112.09 87.65 111.25 C 89.41 112.48 91.11 113.80 92.77 115.16 C 90.14 117.42 87.43 114.90 84.82 114.12 C 80.14 112.24 75.04 114.18 71.27 117.12 C 71.27 119.52 71.23 121.92 71.17 124.33 C 67.75 120.62 69.92 114.86 73.99 112.71 Z" />
</g>
<g id="#583c4eff">
<path fill="#583c4e" opacity="1.00" d=" M 37.76 42.71 L 38.48 42.49 C 42.24 42.36 46.04 42.92 49.26 44.96 C 45.90 48.64 40.49 47.64 36.62 45.41 C 36.91 44.73 37.48 43.39 37.76 42.71 Z" />
</g>
<g id="#243970ff">
<path fill="#243970" opacity="1.00" d=" M 54.28 43.00 C 54.72 44.10 55.15 45.19 55.59 46.29 C 61.74 49.21 68.33 51.92 72.91 57.17 C 77.08 61.74 79.59 67.59 80.77 73.61 C 81.84 81.30 79.96 89.26 75.45 95.59 C 70.61 102.56 62.60 106.25 54.47 107.80 C 49.84 107.85 45.21 107.49 40.62 106.86 C 35.77 106.02 30.68 104.31 27.59 100.23 C 30.40 101.95 33.37 103.42 36.44 104.63 C 42.14 106.71 48.34 106.90 54.32 106.35 C 63.81 104.70 72.88 98.97 76.60 89.80 C 78.83 84.75 79.93 79.07 78.78 73.60 C 77.61 67.59 75.21 61.62 70.74 57.30 C 66.44 52.91 60.80 50.17 55.10 48.09 C 53.63 49.69 52.22 51.34 50.97 53.11 L 50.64 53.59 L 50.18 53.49 C 49.73 53.12 48.82 52.36 48.37 51.99 C 53.03 52.07 55.88 47.23 54.28 43.00 Z" />
<path fill="#243970" opacity="1.00" d=" M 25.13 47.56 C 27.32 46.65 29.56 45.77 31.47 44.34 C 31.49 44.97 31.52 46.24 31.53 46.87 C 29.80 47.30 28.08 47.74 26.39 48.31 C 24.60 49.19 22.84 50.15 21.20 51.29 C 11.63 59.05 9.83 73.60 14.40 84.58 L 14.27 86.13 C 10.70 78.74 10.59 70.28 12.46 62.42 C 13.81 59.30 15.42 56.30 16.93 53.27 C 19.34 50.95 21.99 48.80 25.13 47.56 Z" />
<path fill="#243970" opacity="1.00" d=" M 74.82 109.35 C 79.11 108.91 83.29 107.60 87.05 105.47 C 87.21 107.40 87.39 109.33 87.65 111.25 C 83.13 112.09 78.22 110.54 73.99 112.71 C 74.06 112.26 74.19 111.37 74.25 110.92 C 74.39 110.53 74.68 109.74 74.82 109.35 Z" />
</g>
<g id="#c3cbe1ff">
<path fill="#c3cbe1" opacity="1.00" d=" M 26.39 48.31 C 28.08 47.74 29.80 47.30 31.53 46.87 C 31.76 47.43 32.22 48.56 32.45 49.12 C 33.21 50.33 34.01 51.51 34.86 52.67 L 35.22 53.12 C 33.47 53.44 31.74 53.89 30.04 54.46 C 29.22 52.20 28.19 49.97 26.39 48.31 Z" />
</g>
<g id="#d3dceeff">
<path fill="#d3dcee" opacity="1.00" d=" M 21.20 51.29 C 22.84 50.15 24.60 49.19 26.39 48.31 C 28.19 49.97 29.22 52.20 30.04 54.46 C 27.36 55.70 25.00 57.54 22.89 59.60 C 22.55 56.78 22.00 54.00 21.20 51.29 Z" />
</g>
<g id="#c7cee1ff">
<path fill="#c7cee1" opacity="1.00" d=" M 50.97 53.11 C 52.22 51.34 53.63 49.69 55.10 48.09 C 60.80 50.17 66.44 52.91 70.74 57.30 C 75.21 61.62 77.61 67.59 78.78 73.60 C 76.46 76.68 74.00 79.69 72.15 83.10 C 73.53 74.44 69.89 65.37 63.17 59.82 C 59.75 56.45 55.11 54.95 50.64 53.59 L 50.97 53.11 Z" />
</g>
<g id="#3f609eff">
<path fill="#3f609e" opacity="1.00" d=" M 95.33 55.29 C 96.90 52.79 99.31 51.04 101.77 49.51 C 102.40 50.34 103.01 51.17 103.60 52.01 C 106.87 57.26 105.83 63.70 105.21 69.52 C 103.36 75.09 102.58 81.12 99.27 86.10 C 99.37 84.41 99.41 82.71 99.42 81.01 C 95.00 82.73 92.33 86.90 88.35 89.31 C 84.87 91.46 81.71 94.07 78.20 96.15 C 77.24 96.96 76.27 96.11 75.45 95.59 C 79.96 89.26 81.84 81.30 80.77 73.61 C 86.29 68.06 90.99 61.79 95.33 55.29 Z" />
</g>
<g id="#3965b7ff">
<path fill="#3965b7" opacity="1.00" d=" M 103.60 52.01 C 104.40 51.36 105.20 50.72 106.00 50.06 C 107.83 56.06 109.11 62.26 109.01 68.56 C 108.95 76.96 106.09 85.20 101.60 92.24 C 100.73 92.38 99.87 92.52 99.01 92.66 C 102.56 85.45 105.82 77.74 105.21 69.52 C 105.83 63.70 106.87 57.26 103.60 52.01 Z" />
</g>
<g id="#fafbfeff">
<path fill="#fafbfe" opacity="1.00" d=" M 14.40 84.58 C 9.83 73.60 11.63 59.05 21.20 51.29 C 22.00 54.00 22.55 56.78 22.89 59.60 C 17.10 65.89 16.05 75.20 18.01 83.24 C 19.90 89.59 24.14 94.87 29.09 99.16 C 28.51 99.24 27.35 99.41 26.78 99.49 C 21.61 95.47 17.32 90.45 14.40 84.58 Z" />
</g>
<g id="#2c2d2fff">
<path fill="#2c2d2f" opacity="1.00" d=" M 30.04 54.46 C 31.74 53.89 33.47 53.44 35.22 53.12 C 40.18 53.87 45.18 53.79 50.18 53.49 L 50.64 53.59 C 55.11 54.95 59.75 56.45 63.17 59.82 C 69.89 65.37 73.53 74.44 72.15 83.10 C 71.32 86.08 70.28 89.00 69.11 91.86 C 65.91 96.30 61.07 99.15 55.76 100.28 C 51.66 100.86 47.47 100.69 43.40 99.92 C 39.37 98.96 35.56 97.12 32.23 94.67 C 27.80 90.32 24.14 84.41 24.56 77.98 C 24.91 72.43 27.79 66.96 32.59 64.01 C 38.35 61.36 45.27 61.77 51.13 63.85 C 58.98 66.87 62.92 75.76 61.72 83.80 C 60.43 86.89 58.75 90.17 55.56 91.67 C 51.55 94.05 46.68 93.57 42.29 92.79 C 38.01 91.50 33.84 88.49 32.66 83.99 C 32.11 81.20 32.00 78.04 33.56 75.52 C 37.36 68.73 49.36 69.75 52.07 77.04 C 53.28 80.37 51.78 84.98 48.03 85.82 C 45.85 86.81 43.54 85.99 41.39 85.43 C 41.40 84.93 41.42 83.93 41.43 83.43 C 43.95 83.33 46.43 82.87 48.63 81.58 C 48.59 80.13 48.55 78.69 48.53 77.24 C 45.53 73.60 38.80 72.64 36.07 77.05 C 33.96 81.27 35.88 86.84 40.17 88.85 C 44.83 91.00 51.34 91.20 54.95 87.01 C 58.17 83.76 58.34 78.57 56.76 74.52 C 52.70 66.16 40.90 63.25 33.14 68.08 C 27.03 72.26 26.28 81.23 29.67 87.38 C 31.70 91.10 35.15 93.79 38.89 95.65 C 45.41 98.28 53.09 98.39 59.52 95.43 C 63.40 93.61 65.47 89.55 66.91 85.73 C 68.85 78.56 67.51 70.23 62.14 64.84 C 57.58 59.12 50.07 56.92 43.05 56.52 C 37.50 56.13 31.53 56.98 27.08 60.58 C 21.26 65.49 18.78 73.65 20.26 81.04 C 21.29 87.70 25.47 93.39 30.60 97.56 C 30.22 97.96 29.46 98.76 29.09 99.16 C 24.14 94.87 19.90 89.59 18.01 83.24 C 16.05 75.20 17.10 65.89 22.89 59.60 C 25.00 57.54 27.36 55.70 30.04 54.46 Z" />
</g>
<g id="#476a79aa">
<path fill="#476a79" opacity="0.67" d=" M 6.39 62.02 C 5.22 60.94 5.11 57.33 7.09 57.40 C 7.25 58.98 6.93 60.54 6.39 62.02 Z" />
</g>
<g id="#c8cde1ff">
<path fill="#c8cde1" opacity="1.00" d=" M 27.08 60.58 C 31.53 56.98 37.50 56.13 43.05 56.52 C 50.07 56.92 57.58 59.12 62.14 64.84 C 67.51 70.23 68.85 78.56 66.91 85.73 C 65.18 85.36 63.45 85.02 61.69 84.80 C 61.70 84.55 61.71 84.05 61.72 83.80 C 62.92 75.76 58.98 66.87 51.13 63.85 C 45.27 61.77 38.35 61.36 32.59 64.01 C 30.75 62.86 28.92 61.72 27.08 60.58 Z" />
</g>
<g id="#e2e9f7ff">
<path fill="#e2e9f7" opacity="1.00" d=" M 27.08 60.58 C 28.92 61.72 30.75 62.86 32.59 64.01 C 27.79 66.96 24.91 72.43 24.56 77.98 C 24.14 84.41 27.80 90.32 32.23 94.67 C 31.70 95.64 31.16 96.60 30.60 97.56 C 25.47 93.39 21.29 87.70 20.26 81.04 C 18.78 73.65 21.26 65.49 27.08 60.58 Z" />
</g>
<g id="#d3d9e9ff">
<path fill="#d3d9e9" opacity="1.00" d=" M 33.14 68.08 C 40.90 63.25 52.70 66.16 56.76 74.52 C 58.34 78.57 58.17 83.76 54.95 87.01 C 51.34 91.20 44.83 91.00 40.17 88.85 C 35.88 86.84 33.96 81.27 36.07 77.05 C 38.80 72.64 45.53 73.60 48.53 77.24 C 48.55 78.69 48.59 80.13 48.63 81.58 C 46.43 82.87 43.95 83.33 41.43 83.43 C 41.42 83.93 41.40 84.93 41.39 85.43 C 43.54 85.99 45.85 86.81 48.03 85.82 C 51.78 84.98 53.28 80.37 52.07 77.04 C 49.36 69.75 37.36 68.73 33.56 75.52 C 32.00 78.04 32.11 81.20 32.66 83.99 C 33.84 88.49 38.01 91.50 42.29 92.79 C 41.15 93.74 40.02 94.70 38.89 95.65 C 35.15 93.79 31.70 91.10 29.67 87.38 C 26.28 81.23 27.03 72.26 33.14 68.08 Z" />
</g>
<g id="#3156a7ff">
<path fill="#3156a7" opacity="1.00" d=" M 99.27 86.10 C 102.58 81.12 103.36 75.09 105.21 69.52 C 105.82 77.74 102.56 85.45 99.01 92.66 C 99.87 92.52 100.73 92.38 101.60 92.24 C 98.87 95.99 95.91 99.58 92.15 102.35 C 91.02 102.42 89.89 102.50 88.76 102.57 C 92.56 97.27 96.10 91.80 99.27 86.10 Z" />
</g>
<g id="#344e639a">
<path fill="#344e63" opacity="0.60" d=" M 6.36 70.99 C 6.86 72.14 7.34 73.36 7.11 74.64 C 5.28 74.93 5.11 71.80 6.36 70.99 Z" />
</g>
<g id="#acb3d1ff">
<path fill="#acb3d1" opacity="1.00" d=" M 78.78 73.60 C 79.93 79.07 78.83 84.75 76.60 89.80 C 74.07 90.96 71.62 92.30 69.18 93.65 C 69.17 93.20 69.13 92.31 69.11 91.86 C 70.28 89.00 71.32 86.08 72.15 83.10 C 74.00 79.69 76.46 76.68 78.78 73.60 Z" />
</g>
<g id="#314e8eff">
<path fill="#314e8e" opacity="1.00" d=" M 88.35 89.31 C 92.33 86.90 95.00 82.73 99.42 81.01 C 99.41 82.71 99.37 84.41 99.27 86.10 C 96.10 91.80 92.56 97.27 88.76 102.57 C 89.89 102.50 91.02 102.42 92.15 102.35 C 90.48 103.44 88.80 104.52 87.05 105.47 C 83.29 107.60 79.11 108.91 74.82 109.35 C 74.68 109.74 74.39 110.53 74.25 110.92 L 74.12 111.30 C 66.13 112.49 57.97 113.47 49.92 112.10 C 55.74 112.11 61.58 112.10 67.35 111.33 C 62.95 110.70 57.64 111.67 54.47 107.80 C 62.60 106.25 70.61 102.56 75.45 95.59 C 76.27 96.11 77.24 96.96 78.20 96.15 C 81.71 94.07 84.87 91.46 88.35 89.31 Z" />
</g>
<g id="#b5bcd7ff">
<path fill="#b5bcd7" opacity="1.00" d=" M 55.56 91.67 C 58.75 90.17 60.43 86.89 61.72 83.80 C 61.71 84.05 61.70 84.55 61.69 84.80 C 63.45 85.02 65.18 85.36 66.91 85.73 C 65.47 89.55 63.40 93.61 59.52 95.43 C 53.09 98.39 45.41 98.28 38.89 95.65 C 40.02 94.70 41.15 93.74 42.29 92.79 C 46.68 93.57 51.55 94.05 55.56 91.67 Z" />
</g>
<g id="#5a8cc1ff">
<path fill="#5a8cc1" opacity="1.00" d=" M 14.27 86.13 L 14.40 84.58 C 17.32 90.45 21.61 95.47 26.78 99.49 C 26.98 99.68 27.38 100.04 27.59 100.23 C 30.68 104.31 35.77 106.02 40.62 106.86 C 40.51 107.39 40.28 108.45 40.17 108.98 C 42.67 109.68 45.71 109.65 47.60 111.66 C 46.69 111.45 44.86 111.03 43.95 110.83 C 41.37 110.14 38.80 109.40 36.32 108.39 C 34.35 107.55 32.43 106.61 30.50 105.69 C 30.71 106.62 30.91 107.56 31.12 108.50 C 27.98 109.29 24.86 110.12 21.71 110.86 C 21.13 110.69 19.98 110.36 19.41 110.19 C 23.20 109.33 26.94 108.12 30.29 106.10 C 23.93 101.96 17.50 97.48 13.54 90.82 L 13.56 90.68 C 13.87 89.18 14.14 87.66 14.27 86.13 Z" />
</g>
<g id="#9ca3c6ff">
<path fill="#9ca3c6" opacity="1.00" d=" M 69.18 93.65 C 71.62 92.30 74.07 90.96 76.60 89.80 C 72.88 98.97 63.81 104.70 54.32 106.35 C 53.21 105.58 52.11 104.81 51.00 104.05 C 53.23 103.14 55.46 102.24 57.69 101.35 C 57.21 101.08 56.24 100.55 55.76 100.28 C 61.07 99.15 65.91 96.30 69.11 91.86 C 69.13 92.31 69.17 93.20 69.18 93.65 Z" />
</g>
<g id="#c0c6deff">
<path fill="#c0c6de" opacity="1.00" d=" M 32.23 94.67 C 35.56 97.12 39.37 98.96 43.40 99.92 C 43.37 100.33 43.31 101.15 43.27 101.56 C 40.99 102.57 38.71 103.59 36.44 104.63 C 33.37 103.42 30.40 101.95 27.59 100.23 C 27.38 100.04 26.98 99.68 26.78 99.49 C 27.35 99.41 28.51 99.24 29.09 99.16 C 29.46 98.76 30.22 97.96 30.60 97.56 C 31.16 96.60 31.70 95.64 32.23 94.67 Z" />
</g>
<g id="#abb2d1ff">
<path fill="#abb2d1" opacity="1.00" d=" M 43.40 99.92 C 47.47 100.69 51.66 100.86 55.76 100.28 C 56.24 100.55 57.21 101.08 57.69 101.35 C 55.46 102.24 53.23 103.14 51.00 104.05 C 52.11 104.81 53.21 105.58 54.32 106.35 C 48.34 106.90 42.14 106.71 36.44 104.63 C 38.71 103.59 40.99 102.57 43.27 101.56 C 43.31 101.15 43.37 100.33 43.40 99.92 Z" />
</g>
<g id="#395791ff">
<path fill="#395791" opacity="1.00" d=" M 30.50 105.69 C 32.43 106.61 34.35 107.55 36.32 108.39 C 31.63 111.37 28.19 115.77 25.43 120.52 C 26.37 121.06 27.31 121.60 28.25 122.14 C 22.51 123.06 16.66 123.90 10.86 123.06 C 12.68 122.98 14.51 122.83 16.34 122.73 C 17.54 122.73 18.75 122.73 19.96 122.72 C 19.15 122.37 18.34 122.01 17.53 121.66 C 18.55 120.69 19.56 119.73 20.57 118.76 C 20.62 116.09 20.92 113.42 21.71 110.86 C 24.86 110.12 27.98 109.29 31.12 108.50 C 30.91 107.56 30.71 106.62 30.50 105.69 Z" />
</g>
<g id="#3a5ca0ff">
<path fill="#3a5ca0" opacity="1.00" d=" M 40.62 106.86 C 45.21 107.49 49.84 107.85 54.47 107.80 C 57.64 111.67 62.95 110.70 67.35 111.33 C 61.58 112.10 55.74 112.11 49.92 112.10 C 49.43 112.07 48.45 112.02 47.96 111.99 L 47.60 111.66 C 45.71 109.65 42.67 109.68 40.17 108.98 C 40.28 108.45 40.51 107.39 40.62 106.86 Z" />
</g>
<g id="#42649cff">
<path fill="#42649c" opacity="1.00" d=" M 12.99 112.07 C 15.11 111.38 17.26 110.78 19.41 110.19 C 19.98 110.36 21.13 110.69 21.71 110.86 C 20.92 113.42 20.62 116.09 20.57 118.76 C 19.56 119.73 18.55 120.69 17.53 121.66 C 18.34 122.01 19.15 122.37 19.96 122.72 C 18.75 122.73 17.54 122.73 16.34 122.73 C 15.00 122.42 13.67 122.06 12.34 121.71 C 13.00 120.72 13.65 119.74 14.30 118.76 C 13.98 117.27 13.57 115.79 13.46 114.27 C 14.23 113.40 15.12 112.63 15.96 111.82 C 15.21 111.89 13.73 112.01 12.99 112.07 Z" />
</g>
<g id="#4c72abff">
<path fill="#4c72ab" opacity="1.00" d=" M 8.54 113.38 C 10.00 112.87 11.45 112.30 12.99 112.07 C 13.73 112.01 15.21 111.89 15.96 111.82 C 15.12 112.63 14.23 113.40 13.46 114.27 C 13.57 115.79 13.98 117.27 14.30 118.76 C 13.65 119.74 13.00 120.72 12.34 121.71 C 13.67 122.06 15.00 122.42 16.34 122.73 C 14.51 122.83 12.68 122.98 10.86 123.06 C 9.81 122.98 8.77 122.87 7.73 122.74 L 7.74 122.62 C 8.24 119.57 8.52 116.48 8.54 113.38 Z" />
</g>
<g id="#6080c1ff">
<path fill="#6080c1" opacity="1.00" d=" M 7.74 122.62 C 3.00 121.14 4.70 114.84 8.54 113.38 C 8.52 116.48 8.24 119.57 7.74 122.62 Z" />
</g>
<g id="#4a70a9ff">
<path fill="#4a70a9" opacity="1.00" d=" M 71.27 117.12 C 75.04 114.18 80.14 112.24 84.82 114.12 C 87.43 114.90 90.14 117.42 92.77 115.16 L 93.03 115.05 C 93.16 115.53 93.43 116.50 93.57 116.99 C 89.95 120.05 85.45 122.30 83.19 126.69 C 79.08 126.66 74.70 126.75 71.17 124.33 C 71.23 121.92 71.27 119.52 71.27 117.12 Z" />
</g>
<g id="#395a97ff">
<path fill="#395a97" opacity="1.00" d=" M 93.57 116.99 C 94.55 119.36 94.71 122.74 92.19 124.21 C 89.70 126.37 86.32 126.57 83.19 126.69 C 85.45 122.30 89.95 120.05 93.57 116.99 Z" />
</g>
</svg>
