<?xml version="1.0" encoding="UTF-8" ?>
<!DOCTYPE svg PUBLIC "-//W3C//DTD SVG 1.1//EN" "http://www.w3.org/Graphics/SVG/1.1/DTD/svg11.dtd">
<svg width="233pt" height="156pt" viewBox="0 0 233 156" version="1.1" xmlns="http://www.w3.org/2000/svg">
<g id="#608fc8ff">
<path fill="#608fc8" opacity="1.00" d=" M 128.05 12.68 C 131.13 8.27 135.30 3.91 140.89 3.14 C 144.75 2.29 148.68 3.40 152.10 5.22 C 152.37 5.70 152.93 6.67 153.21 7.15 C 151.60 7.93 150.00 8.70 148.39 9.46 C 142.12 4.83 132.44 8.12 130.25 15.56 C 125.50 16.26 121.89 19.49 118.06 22.07 C 116.89 23.03 115.38 23.15 113.94 23.22 C 112.55 23.28 111.49 24.40 110.76 25.47 C 110.47 25.86 109.90 26.63 109.61 27.02 C 111.42 27.93 113.25 28.81 115.10 29.66 C 114.43 29.77 113.11 29.98 112.45 30.08 C 104.86 28.51 97.28 30.97 90.46 34.16 C 81.38 37.72 74.38 44.93 68.63 52.59 C 69.24 46.83 73.84 42.56 75.63 37.18 C 74.02 35.83 72.59 34.27 72.11 32.16 C 75.98 35.64 81.95 36.68 86.23 33.29 C 91.33 30.39 92.26 23.82 90.86 18.59 C 91.78 16.45 94.00 13.11 91.05 11.57 C 89.18 11.56 87.35 11.97 85.51 12.25 C 82.76 10.85 79.61 11.26 76.63 11.21 C 77.78 10.23 78.79 9.09 80.04 8.24 C 82.17 7.85 84.34 7.72 86.48 7.42 C 84.27 7.15 82.06 6.91 79.83 6.84 C 86.00 5.24 91.69 8.74 96.35 12.36 C 94.60 15.24 93.67 18.59 95.30 21.75 C 100.93 22.18 106.29 20.16 111.59 18.56 C 115.65 17.26 119.84 16.21 123.51 13.95 C 125.10 13.79 126.68 13.63 128.27 13.46 C 122.61 12.89 116.94 12.72 111.26 12.77 L 111.18 12.77 C 116.74 11.49 122.44 12.45 128.05 12.68 M 102.32 27.81 C 104.45 27.68 104.63 25.35 103.65 23.85 C 101.97 24.42 102.60 26.48 102.32 27.81 Z" />
</g>
<g id="#4e75aeff">
<path fill="#4e75ae" opacity="1.00" d=" M 152.10 5.22 C 155.95 8.08 159.59 11.85 160.03 16.89 C 159.91 18.93 159.74 20.97 159.60 23.01 C 159.28 21.30 158.95 19.60 158.61 17.90 C 156.62 19.19 154.91 20.87 153.61 22.86 C 154.67 17.75 152.29 12.69 148.39 9.46 C 150.00 8.70 151.60 7.93 153.21 7.15 C 152.93 6.67 152.37 5.70 152.10 5.22 Z" />
</g>
<g id="#7db6efff">
<path fill="#7db6ef" opacity="1.00" d=" M 67.33 20.89 C 67.67 14.07 73.27 8.13 79.83 6.84 C 82.06 6.91 84.27 7.15 86.48 7.42 C 84.34 7.72 82.17 7.85 80.04 8.24 C 78.79 9.09 77.78 10.23 76.63 11.21 C 72.10 12.79 69.03 17.26 68.74 21.99 C 68.12 25.77 70.41 29.02 72.11 32.16 C 72.59 34.27 74.02 35.83 75.63 37.18 C 73.84 42.56 69.24 46.83 68.63 52.59 C 61.05 66.76 63.17 84.72 72.38 97.63 C 72.05 98.00 71.41 98.74 71.08 99.11 C 64.90 91.33 61.43 81.71 60.15 71.93 C 61.02 68.65 61.30 65.24 62.46 62.04 C 64.58 55.46 66.95 48.98 69.80 42.68 C 70.88 40.85 70.53 38.80 70.01 36.86 C 70.22 36.37 70.63 35.37 70.84 34.88 C 69.73 30.20 66.70 25.87 67.33 20.89 Z" />
</g>
<g id="#27292dff">
<path fill="#27292d" opacity="1.00" d=" M 130.25 15.56 C 132.44 8.12 142.12 4.83 148.39 9.46 C 152.29 12.69 154.67 17.75 153.61 22.86 C 152.33 26.83 149.54 30.03 145.75 31.81 C 141.87 31.78 137.54 32.29 134.42 29.43 C 130.14 26.65 129.88 21.23 130.11 16.64 L 130.25 15.56 M 137.33 9.34 C 129.50 12.52 129.12 24.60 136.10 28.89 C 141.49 33.29 150.56 29.78 151.96 23.07 C 155.13 14.77 145.43 5.41 137.33 9.34 Z" />
<path fill="#27292d" opacity="1.00" d=" M 68.74 21.99 C 69.03 17.26 72.10 12.79 76.63 11.21 C 79.61 11.26 82.76 10.85 85.51 12.25 C 87.69 13.99 89.53 16.12 90.86 18.59 C 92.26 23.82 91.33 30.39 86.23 33.29 C 81.95 36.68 75.98 35.64 72.11 32.16 C 70.41 29.02 68.12 25.77 68.74 21.99 M 79.16 12.11 C 73.21 12.03 68.67 18.28 69.38 23.94 C 69.71 29.71 75.21 34.77 81.05 34.13 C 86.29 33.44 90.00 28.10 89.66 23.00 C 90.05 17.38 84.92 11.74 79.16 12.11 Z" />
<path fill="#27292d" opacity="1.00" d=" M 102.32 27.81 C 102.60 26.48 101.97 24.42 103.65 23.85 C 104.63 25.35 104.45 27.68 102.32 27.81 Z" />
<path fill="#27292d" opacity="1.00" d=" M 144.21 56.05 C 144.42 56.45 144.83 57.25 145.03 57.65 C 146.81 61.26 148.08 65.09 149.15 68.96 C 151.67 83.06 147.97 99.14 136.43 108.38 C 134.91 110.06 132.17 109.65 131.94 107.21 C 133.99 105.63 135.91 103.87 137.46 101.78 C 140.53 97.97 142.60 93.46 144.11 88.83 C 146.17 81.28 146.02 73.23 143.60 65.78 C 142.73 63.22 141.63 60.75 140.30 58.40 C 141.60 57.62 142.91 56.83 144.21 56.05 Z" />
</g>
<g id="#ffffffff">
<path fill="#ffffff" opacity="1.00" d=" M 137.33 9.34 C 145.43 5.41 155.13 14.77 151.96 23.07 C 150.56 29.78 141.49 33.29 136.10 28.89 C 129.12 24.60 129.50 12.52 137.33 9.34 M 134.19 21.99 C 135.49 26.56 141.16 29.38 145.36 26.69 C 146.21 26.10 147.03 25.46 147.84 24.82 C 148.94 22.44 149.70 19.69 148.75 17.12 C 147.62 13.57 143.89 11.11 140.18 11.48 C 135.51 12.15 132.49 17.63 134.19 21.99 Z" />
<path fill="#ffffff" opacity="1.00" d=" M 79.16 12.11 C 84.92 11.74 90.05 17.38 89.66 23.00 C 90.00 28.10 86.29 33.44 81.05 34.13 C 75.21 34.77 69.71 29.71 69.38 23.94 C 68.67 18.28 73.21 12.03 79.16 12.11 M 77.12 15.24 C 70.56 17.03 69.96 27.21 75.95 30.12 C 80.72 33.18 86.94 28.24 86.38 22.99 C 86.68 18.30 81.75 13.80 77.12 15.24 Z" />
<path fill="#ffffff" opacity="1.00" d=" M 68.77 56.73 C 72.88 47.62 81.01 40.87 89.78 36.49 C 90.21 36.86 91.06 37.61 91.49 37.98 C 86.05 40.76 80.97 44.39 76.92 48.98 C 70.48 55.90 67.25 65.60 67.97 74.99 C 68.85 84.91 73.83 94.39 81.47 100.77 C 81.13 101.46 80.45 102.83 80.11 103.52 C 75.25 98.65 70.78 93.16 68.44 86.61 C 64.76 77.14 64.28 66.01 68.77 56.73 Z" />
<path fill="#ffffff" opacity="1.00" d=" M 191.12 41.15 C 193.50 39.89 196.16 39.39 198.75 40.33 C 200.09 41.81 201.15 43.72 202.96 44.66 C 208.68 45.59 214.86 45.05 220.08 48.01 C 222.25 49.39 225.59 49.82 226.44 52.58 C 224.66 52.74 222.87 52.99 221.08 53.04 C 217.74 52.39 215.25 49.87 212.71 47.80 C 207.47 48.70 201.96 48.04 196.96 50.11 C 194.07 50.70 193.27 53.85 192.24 56.18 C 190.27 60.76 190.17 65.78 189.86 70.67 C 188.36 66.84 189.41 62.59 188.36 58.65 C 187.30 58.19 186.24 57.74 185.19 57.28 C 184.98 55.20 184.78 53.12 184.59 51.04 C 185.69 47.16 187.94 43.64 191.12 41.15 Z" />
</g>
<g id="#2b2826ff">
<path fill="#2b2826" opacity="1.00" d=" M 134.19 21.99 C 132.49 17.63 135.51 12.15 140.18 11.48 C 143.89 11.11 147.62 13.57 148.75 17.12 C 149.70 19.69 148.94 22.44 147.84 24.82 C 147.45 24.15 146.68 22.83 146.29 22.16 C 145.10 22.31 143.91 22.46 142.73 22.61 C 142.35 23.84 141.97 25.08 141.59 26.31 C 142.76 26.04 145.09 25.50 146.26 25.23 L 145.36 26.69 C 141.16 29.38 135.49 26.56 134.19 21.99 M 136.47 18.53 C 137.81 20.87 141.62 19.49 141.54 16.93 C 141.74 15.30 140.16 14.40 139.05 13.60 C 137.10 14.29 135.06 16.43 136.47 18.53 Z" />
</g>
<g id="#517ab4ff">
<path fill="#517ab4" opacity="1.00" d=" M 85.51 12.25 C 87.35 11.97 89.18 11.56 91.05 11.57 C 94.00 13.11 91.78 16.45 90.86 18.59 C 89.53 16.12 87.69 13.99 85.51 12.25 Z" />
</g>
<g id="#71a6dcff">
<path fill="#71a6dc" opacity="1.00" d=" M 96.35 12.36 C 96.63 12.63 97.21 13.18 97.49 13.45 C 97.31 14.19 96.94 15.67 96.75 16.41 C 105.80 17.03 114.40 12.26 123.51 13.95 C 119.84 16.21 115.65 17.26 111.59 18.56 C 106.29 20.16 100.93 22.18 95.30 21.75 C 93.67 18.59 94.60 15.24 96.35 12.36 Z" />
</g>
<g id="#293e487b">
<path fill="#293e48" opacity="0.48" d=" M 104.41 14.09 C 104.40 12.23 107.87 12.18 109.01 13.22 C 107.61 14.04 106.01 14.24 104.41 14.09 Z" />
</g>
<g id="#89cafeff">
<path fill="#89cafe" opacity="1.00" d=" M 109.01 13.22 C 109.57 13.11 110.70 12.89 111.26 12.77 C 116.94 12.72 122.61 12.89 128.27 13.46 C 126.68 13.63 125.10 13.79 123.51 13.95 C 114.40 12.26 105.80 17.03 96.75 16.41 C 96.94 15.67 97.31 14.19 97.49 13.45 C 99.64 14.79 102.06 14.12 104.41 14.09 C 106.01 14.24 107.61 14.04 109.01 13.22 Z" />
<path fill="#89cafe" opacity="1.00" d=" M 65.88 40.55 C 67.31 39.38 68.71 38.17 70.01 36.86 C 70.53 38.80 70.88 40.85 69.80 42.68 C 66.95 48.98 64.58 55.46 62.46 62.04 C 61.91 60.88 61.38 59.71 60.78 58.57 C 61.53 53.96 63.14 49.55 63.85 44.93 C 64.07 43.29 64.85 41.82 65.88 40.55 Z" />
</g>
<g id="#fcfcfcff">
<path fill="#fcfcfc" opacity="1.00" d=" M 136.47 18.53 C 135.06 16.43 137.10 14.29 139.05 13.60 C 140.16 14.40 141.74 15.30 141.54 16.93 C 141.62 19.49 137.81 20.87 136.47 18.53 Z" />
</g>
<g id="#2b2927ff">
<path fill="#2b2927" opacity="1.00" d=" M 77.12 15.24 C 81.75 13.80 86.68 18.30 86.38 22.99 C 86.94 28.24 80.72 33.18 75.95 30.12 C 69.96 27.21 70.56 17.03 77.12 15.24 M 79.41 17.43 C 78.60 18.12 77.93 18.93 77.42 19.86 C 77.32 22.42 81.27 24.17 82.78 21.80 C 84.79 19.76 81.88 16.21 79.41 17.43 M 74.55 25.84 C 72.99 28.55 77.26 29.37 79.03 30.22 C 79.45 27.68 77.26 24.99 74.55 25.84 Z" />
</g>
<g id="#5683bcff">
<path fill="#5683bc" opacity="1.00" d=" M 118.06 22.07 C 121.89 19.49 125.50 16.26 130.25 15.56 L 130.11 16.64 C 128.56 20.65 124.18 23.98 125.44 28.68 C 125.59 31.07 129.39 32.41 127.69 34.94 C 122.87 32.49 117.26 32.51 112.45 30.08 C 113.11 29.98 114.43 29.77 115.10 29.66 C 113.25 28.81 111.42 27.93 109.61 27.02 C 109.90 26.63 110.47 25.86 110.76 25.47 C 110.96 29.21 114.25 25.11 113.94 23.22 C 115.38 23.15 116.89 23.03 118.06 22.07 Z" />
</g>
<g id="#fbfbfbff">
<path fill="#fbfbfb" opacity="1.00" d=" M 79.41 17.43 C 81.88 16.21 84.79 19.76 82.78 21.80 C 81.27 24.17 77.32 22.42 77.42 19.86 C 77.93 18.93 78.60 18.12 79.41 17.43 Z" />
</g>
<g id="#486da5ff">
<path fill="#486da5" opacity="1.00" d=" M 125.44 28.68 C 124.18 23.98 128.56 20.65 130.11 16.64 C 129.88 21.23 130.14 26.65 134.42 29.43 C 137.54 32.29 141.87 31.78 145.75 31.81 C 151.18 33.62 156.08 29.51 159.91 26.18 C 161.57 29.07 164.34 31.07 166.31 33.72 C 174.53 36.38 183.30 37.32 191.12 41.15 C 187.94 43.64 185.69 47.16 184.59 51.04 L 184.48 50.47 C 180.99 48.40 176.81 47.83 173.40 45.58 C 170.17 43.70 167.75 40.08 163.68 40.07 C 163.71 45.31 161.07 50.02 160.48 55.16 C 159.95 59.49 159.44 63.95 157.14 67.77 C 155.90 66.91 154.67 66.05 153.45 65.18 C 151.45 60.48 150.78 54.86 146.85 51.24 C 144.51 48.94 143.36 45.57 140.47 43.81 C 136.12 40.98 131.81 38.09 127.69 34.94 C 129.39 32.41 125.59 31.07 125.44 28.68 Z" />
</g>
<g id="#3f5f96ff">
<path fill="#3f5f96" opacity="1.00" d=" M 160.03 16.89 C 160.54 19.97 160.26 23.10 159.91 26.18 C 156.08 29.51 151.18 33.62 145.75 31.81 C 149.54 30.03 152.33 26.83 153.61 22.86 C 154.91 20.87 156.62 19.19 158.61 17.90 C 158.95 19.60 159.28 21.30 159.60 23.01 C 159.74 20.97 159.91 18.93 160.03 16.89 Z" />
</g>
<g id="#797974ff">
<path fill="#797974" opacity="1.00" d=" M 142.73 22.61 C 143.91 22.46 145.10 22.31 146.29 22.16 C 146.68 22.83 147.45 24.15 147.84 24.82 C 147.03 25.46 146.21 26.10 145.36 26.69 L 146.26 25.23 C 145.09 25.50 142.76 26.04 141.59 26.31 C 141.97 25.08 142.35 23.84 142.73 22.61 Z" />
</g>
<g id="#2b405cff">
<path fill="#2b405c" opacity="1.00" d=" M 110.76 25.47 C 111.49 24.40 112.55 23.28 113.94 23.22 C 114.25 25.11 110.96 29.21 110.76 25.47 Z" />
</g>
<g id="#6f6e69ff">
<path fill="#6f6e69" opacity="1.00" d=" M 74.55 25.84 C 77.26 24.99 79.45 27.68 79.03 30.22 C 77.26 29.37 72.99 28.55 74.55 25.84 Z" />
</g>
<g id="#5b88beff">
<path fill="#5b88be" opacity="1.00" d=" M 90.46 34.16 C 97.28 30.97 104.86 28.51 112.45 30.08 C 117.26 32.51 122.87 32.49 127.69 34.94 C 131.81 38.09 136.12 40.98 140.47 43.81 C 143.36 45.57 144.51 48.94 146.85 51.24 C 150.78 54.86 151.45 60.48 153.45 65.18 C 153.72 70.46 154.85 75.72 154.16 81.03 C 154.15 85.59 152.37 89.83 151.06 94.12 L 152.99 95.88 C 152.68 96.07 152.05 96.44 151.73 96.63 C 151.04 96.84 149.65 97.27 148.96 97.49 C 143.81 108.06 132.46 114.59 121.00 115.74 C 119.19 116.06 117.07 115.73 115.62 117.09 C 110.47 116.15 105.21 116.00 100.06 115.03 C 96.96 114.41 94.07 113.10 91.36 111.51 C 95.39 112.94 99.48 114.29 103.69 115.14 C 112.32 116.86 121.47 116.26 129.80 113.42 C 140.60 109.85 149.11 100.38 151.95 89.43 C 155.68 76.83 153.95 62.47 146.08 51.77 C 139.90 43.02 130.44 36.70 120.15 33.91 C 110.29 30.42 98.93 31.38 89.78 36.49 C 81.01 40.87 72.88 47.62 68.77 56.73 C 64.28 66.01 64.76 77.14 68.44 86.61 C 70.78 93.16 75.25 98.65 80.11 103.52 C 82.33 105.87 85.17 107.47 87.75 109.37 C 88.13 109.64 88.90 110.18 89.28 110.45 C 87.01 109.33 84.74 108.21 82.46 107.12 C 81.58 107.91 80.69 108.71 79.80 109.50 C 76.83 106.11 73.43 102.99 71.08 99.11 C 71.41 98.74 72.05 98.00 72.38 97.63 C 63.17 84.72 61.05 66.76 68.63 52.59 C 74.38 44.93 81.38 37.72 90.46 34.16 Z" />
</g>
<g id="#cfd9ecff">
<path fill="#cfd9ec" opacity="1.00" d=" M 89.78 36.49 C 98.93 31.38 110.29 30.42 120.15 33.91 C 130.44 36.70 139.90 43.02 146.08 51.77 C 145.75 53.73 145.40 55.69 145.03 57.65 C 144.83 57.25 144.42 56.45 144.21 56.05 C 139.27 47.24 130.60 41.17 121.47 37.28 C 111.89 33.49 100.95 34.17 91.49 37.98 C 91.06 37.61 90.21 36.86 89.78 36.49 Z" />
</g>
<g id="#313334ff">
<path fill="#313334" opacity="1.00" d=" M 91.49 37.98 C 100.95 34.17 111.89 33.49 121.47 37.28 C 130.60 41.17 139.27 47.24 144.21 56.05 C 142.91 56.83 141.60 57.62 140.30 58.40 C 138.01 54.19 134.96 50.40 131.22 47.41 C 124.92 42.40 117.37 38.89 109.34 37.95 C 90.16 36.40 70.75 52.36 70.25 71.95 C 69.64 82.75 75.59 92.89 83.76 99.57 C 84.60 100.21 85.47 100.82 86.35 101.42 C 85.89 101.86 84.99 102.74 84.53 103.18 C 83.50 102.40 82.48 101.59 81.47 100.77 C 73.83 94.39 68.85 84.91 67.97 74.99 C 67.25 65.60 70.48 55.90 76.92 48.98 C 80.97 44.39 86.05 40.76 91.49 37.98 Z" />
</g>
<g id="#e2effaff">
<path fill="#e2effa" opacity="1.00" d=" M 70.25 71.95 C 70.75 52.36 90.16 36.40 109.34 37.95 C 117.37 38.89 124.92 42.40 131.22 47.41 C 130.58 49.95 130.37 52.65 128.97 54.93 C 123.12 48.43 114.69 44.35 105.98 43.72 C 96.10 43.54 85.76 47.69 79.96 55.93 C 76.00 61.06 73.91 67.56 74.24 74.04 C 74.22 82.82 79.04 91.04 85.89 96.31 L 86.58 96.86 C 85.63 97.76 84.69 98.66 83.76 99.57 C 75.59 92.89 69.64 82.75 70.25 71.95 Z" />
</g>
<g id="#4c74adff">
<path fill="#4c74ad" opacity="1.00" d=" M 54.47 49.49 C 58.04 46.23 61.92 43.33 65.88 40.55 C 64.85 41.82 64.07 43.29 63.85 44.93 C 63.14 49.55 61.53 53.96 60.78 58.57 C 60.52 58.25 60.02 57.60 59.77 57.27 C 59.13 56.58 58.47 55.91 57.79 55.26 C 55.93 53.51 53.89 51.79 51.33 51.25 C 52.53 50.98 53.58 50.34 54.47 49.49 Z" />
</g>
<g id="#3a5895ff">
<path fill="#3a5895" opacity="1.00" d=" M 163.68 40.07 C 167.75 40.08 170.17 43.70 173.40 45.58 C 176.81 47.83 180.99 48.40 184.48 50.47 C 184.43 51.40 184.34 53.25 184.29 54.18 C 181.60 53.09 178.87 52.09 176.05 51.38 C 176.17 52.12 176.41 53.60 176.53 54.33 C 176.41 63.93 176.33 73.65 174.00 83.03 C 171.57 90.93 167.39 98.13 163.07 105.14 C 164.29 104.78 165.51 104.43 166.72 104.03 C 164.25 107.79 160.68 110.74 157.34 113.63 C 154.90 114.04 152.45 114.40 150.02 114.87 C 152.78 112.36 156.19 110.44 158.24 107.24 C 162.00 101.19 165.99 94.93 166.54 87.64 C 164.02 88.57 162.13 90.46 160.57 92.58 C 158.54 95.38 155.46 97.04 152.47 98.61 C 152.28 98.11 151.92 97.12 151.73 96.63 C 152.05 96.44 152.68 96.07 152.99 95.88 L 151.06 94.12 C 152.37 89.83 154.15 85.59 154.16 81.03 C 154.85 75.72 153.72 70.46 153.45 65.18 C 154.67 66.05 155.90 66.91 157.14 67.77 C 159.44 63.95 159.95 59.49 160.48 55.16 C 161.07 50.02 163.71 45.31 163.68 40.07 Z" />
</g>
<g id="#343536ff">
<path fill="#343536" opacity="1.00" d=" M 79.96 55.93 C 85.76 47.69 96.10 43.54 105.98 43.72 C 114.69 44.35 123.12 48.43 128.97 54.93 C 129.68 55.76 130.36 56.61 131.02 57.48 C 130.10 59.02 129.19 60.56 128.28 62.10 C 123.99 55.29 117.04 50.20 109.16 48.46 C 102.83 47.59 96.05 48.08 90.42 51.33 C 82.89 55.35 77.82 63.47 77.52 72.01 C 76.77 80.27 81.10 88.48 87.62 93.38 C 87.19 94.11 86.32 95.58 85.89 96.31 C 79.04 91.04 74.22 82.82 74.24 74.04 C 73.91 67.56 76.00 61.06 79.96 55.93 Z" />
</g>
<g id="#d5dff1ff">
<path fill="#d5dff1" opacity="1.00" d=" M 196.96 50.11 C 201.96 48.04 207.47 48.70 212.71 47.80 C 215.25 49.87 217.74 52.39 221.08 53.04 C 222.87 52.99 224.66 52.74 226.44 52.58 L 227.13 52.51 L 227.08 53.90 C 227.05 54.54 226.99 55.82 226.96 56.46 C 226.30 56.41 224.96 56.30 224.30 56.24 C 222.48 56.30 220.37 55.63 218.78 56.80 C 213.35 61.11 211.00 67.79 207.77 73.66 C 207.99 74.13 208.43 75.06 208.65 75.52 C 208.05 75.34 206.85 74.98 206.25 74.80 C 203.35 72.28 202.54 68.62 202.74 64.92 C 203.58 64.09 204.42 63.26 205.26 62.43 C 205.68 62.43 206.53 62.42 206.96 62.41 C 207.42 60.94 207.98 59.49 208.18 57.95 C 208.23 55.97 206.26 54.88 205.04 53.64 C 201.11 55.04 196.64 57.00 195.33 61.36 C 193.81 64.66 196.32 68.37 194.67 71.57 C 194.03 73.04 193.33 74.48 192.65 75.92 L 192.55 75.89 C 192.28 75.74 191.73 75.45 191.46 75.30 C 188.55 71.37 188.14 66.49 188.58 61.78 C 185.83 60.24 184.02 57.40 184.29 54.18 C 184.34 53.25 184.43 51.40 184.48 50.47 L 184.59 51.04 C 184.78 53.12 184.98 55.20 185.19 57.28 C 186.24 57.74 187.30 58.19 188.36 58.65 C 189.41 62.59 188.36 66.84 189.86 70.67 C 190.17 65.78 190.27 60.76 192.24 56.18 C 193.27 53.85 194.07 50.70 196.96 50.11 Z" />
</g>
<g id="#e0ebf9ff">
<path fill="#e0ebf9" opacity="1.00" d=" M 90.42 51.33 C 96.05 48.08 102.83 47.59 109.16 48.46 C 117.04 50.20 123.99 55.29 128.28 62.10 C 128.81 62.92 129.32 63.75 129.81 64.60 C 127.85 65.94 125.86 67.24 123.84 68.49 C 122.93 66.75 121.84 65.11 120.63 63.56 C 116.23 57.93 109.30 54.13 102.05 54.48 C 91.97 54.67 82.77 63.82 83.21 74.01 C 83.19 80.94 87.52 87.35 93.43 90.74 C 92.57 92.37 91.72 94.00 90.86 95.63 C 89.76 94.91 88.68 94.16 87.62 93.38 C 81.10 88.48 76.77 80.27 77.52 72.01 C 77.82 63.47 82.89 55.35 90.42 51.33 Z" />
</g>
<g id="#cdd3e5ff">
<path fill="#cdd3e5" opacity="1.00" d=" M 131.22 47.41 C 134.96 50.40 138.01 54.19 140.30 58.40 C 141.63 60.75 142.73 63.22 143.60 65.78 C 142.72 68.03 141.79 70.25 140.78 72.45 C 139.70 72.33 138.63 72.22 137.55 72.10 C 136.53 66.83 134.21 61.79 131.02 57.48 C 130.36 56.61 129.68 55.76 128.97 54.93 C 130.37 52.65 130.58 49.95 131.22 47.41 Z" />
</g>
<g id="#fdfeffff">
<path fill="#fdfeff" opacity="1.00" d=" M 40.09 51.78 C 43.83 51.62 47.61 50.22 51.33 51.25 C 53.89 51.79 55.93 53.51 57.79 55.26 C 54.40 55.83 51.32 53.85 47.97 53.74 C 44.42 53.56 40.72 53.28 37.27 54.32 C 32.15 58.27 29.30 64.55 27.85 70.71 C 27.85 74.99 28.65 79.27 28.07 83.56 C 27.76 83.51 27.14 83.40 26.83 83.35 C 22.86 81.83 23.09 77.23 22.38 73.77 C 21.60 68.91 24.34 64.46 26.68 60.43 C 29.36 55.62 34.47 51.84 40.09 51.78 Z" />
</g>
<g id="#b6bcd7ff">
<path fill="#b6bcd7" opacity="1.00" d=" M 146.08 51.77 C 153.95 62.47 155.68 76.83 151.95 89.43 C 149.73 88.21 150.66 85.75 150.90 83.79 C 151.93 78.80 150.81 73.69 149.15 68.96 C 148.08 65.09 146.81 61.26 145.03 57.65 C 145.40 55.69 145.75 53.73 146.08 51.77 Z" />
</g>
<g id="#dde4f4ff">
<path fill="#dde4f4" opacity="1.00" d=" M 27.85 70.71 C 29.30 64.55 32.15 58.27 37.27 54.32 C 40.72 53.28 44.42 53.56 47.97 53.74 C 51.32 53.85 54.40 55.83 57.79 55.26 C 58.47 55.91 59.13 56.58 59.77 57.27 C 58.56 57.86 57.54 59.26 56.07 59.06 C 53.05 57.84 50.53 55.16 47.05 55.33 C 44.42 55.54 40.63 54.20 38.99 56.97 C 37.46 58.74 40.43 59.95 41.24 61.29 C 40.76 64.11 40.88 67.53 38.47 69.52 C 35.30 72.37 31.44 75.14 30.69 79.65 C 30.01 81.34 30.86 82.92 31.79 84.29 C 31.21 85.01 30.63 85.72 30.05 86.43 C 28.86 85.38 27.64 84.35 26.45 83.29 L 26.83 83.35 C 27.14 83.40 27.76 83.51 28.07 83.56 C 28.65 79.27 27.85 74.99 27.85 70.71 Z" />
</g>
<g id="#c8cfe2ff">
<path fill="#c8cfe2" opacity="1.00" d=" M 195.33 61.36 C 196.64 57.00 201.11 55.04 205.04 53.64 C 206.26 54.88 208.23 55.97 208.18 57.95 C 207.98 59.49 207.42 60.94 206.96 62.41 C 206.53 62.42 205.68 62.43 205.26 62.43 C 204.93 60.99 204.61 59.55 204.28 58.11 C 202.88 58.98 200.79 59.31 200.29 61.11 C 199.09 64.64 199.86 68.60 198.26 72.02 C 196.92 73.74 195.28 75.19 193.73 76.72 C 193.44 76.51 192.84 76.10 192.55 75.89 L 192.65 75.92 C 193.33 74.48 194.03 73.04 194.67 71.57 C 196.32 68.37 193.81 64.66 195.33 61.36 Z" />
</g>
<g id="#a7c1eeff">
<path fill="#a7c1ee" opacity="1.00" d=" M 227.08 53.90 C 227.81 56.25 228.95 58.56 229.22 61.02 C 228.25 64.02 227.07 66.95 226.06 69.94 C 225.80 71.62 224.05 72.09 222.82 72.88 C 220.30 74.13 217.93 76.06 215.02 76.20 C 214.57 75.84 213.68 75.11 213.24 74.75 C 213.34 74.54 213.54 74.13 213.64 73.93 C 216.02 73.05 219.38 73.24 220.71 70.68 C 222.57 67.09 223.93 63.26 225.06 59.38 C 224.83 58.33 224.56 57.29 224.30 56.24 C 224.96 56.30 226.30 56.41 226.96 56.46 C 226.99 55.82 227.05 54.54 227.08 53.90 Z" />
</g>
<g id="#c5cee2ff">
<path fill="#c5cee2" opacity="1.00" d=" M 38.99 56.97 C 40.63 54.20 44.42 55.54 47.05 55.33 C 50.53 55.16 53.05 57.84 56.07 59.06 C 57.54 59.26 58.56 57.86 59.77 57.27 C 60.02 57.60 60.52 58.25 60.78 58.57 C 61.38 59.71 61.91 60.88 62.46 62.04 C 61.30 65.24 61.02 68.65 60.15 71.93 C 58.95 75.30 54.05 76.36 51.62 73.74 C 50.68 72.97 49.77 72.18 48.85 71.40 C 45.26 73.98 41.70 76.59 38.14 79.20 C 36.55 80.28 36.10 82.25 35.24 83.85 L 34.46 84.27 C 33.79 84.28 32.46 84.29 31.79 84.29 C 30.86 82.92 30.01 81.34 30.69 79.65 C 31.44 75.14 35.30 72.37 38.47 69.52 C 40.88 67.53 40.76 64.11 41.24 61.29 C 40.43 59.95 37.46 58.74 38.99 56.97 Z" />
</g>
<g id="#333434ff">
<path fill="#333434" opacity="1.00" d=" M 83.21 74.01 C 82.77 63.82 91.97 54.67 102.05 54.48 C 109.30 54.13 116.23 57.93 120.63 63.56 C 119.00 64.57 118.05 66.18 117.53 67.99 C 114.25 63.23 109.01 59.16 102.98 59.30 C 94.55 58.70 86.17 66.44 87.29 75.10 C 87.52 84.06 98.39 90.84 106.39 86.47 C 110.82 82.77 110.81 74.45 105.61 71.39 C 103.32 69.83 99.75 69.77 98.05 72.24 C 96.54 73.81 98.06 75.82 99.00 77.22 C 100.03 77.40 101.07 77.59 102.10 77.79 C 102.58 78.53 103.05 79.28 103.53 80.03 C 103.07 80.87 102.61 81.71 102.16 82.56 C 95.84 83.47 90.21 75.28 93.96 69.90 C 95.36 67.44 97.91 65.28 100.85 65.21 C 107.87 64.45 114.13 70.86 114.60 77.62 C 115.22 83.30 112.77 89.91 107.03 91.97 C 102.55 93.31 97.64 92.68 93.43 90.74 C 87.52 87.35 83.19 80.94 83.21 74.01 Z" />
</g>
<g id="#375daaff">
<path fill="#375daa" opacity="1.00" d=" M 174.00 83.03 C 176.33 73.65 176.41 63.93 176.53 54.33 C 182.45 71.10 177.67 90.42 166.72 104.03 C 165.51 104.43 164.29 104.78 163.07 105.14 C 167.39 98.13 171.57 90.93 174.00 83.03 Z" />
</g>
<g id="#bdc4ddff">
<path fill="#bdc4dd" opacity="1.00" d=" M 218.78 56.80 C 220.37 55.63 222.48 56.30 224.30 56.24 C 224.56 57.29 224.83 58.33 225.06 59.38 C 223.87 59.60 222.43 59.50 221.80 60.76 C 218.76 64.93 215.94 69.30 213.64 73.93 C 213.54 74.13 213.34 74.54 213.24 74.75 C 213.68 75.11 214.57 75.84 215.02 76.20 C 213.10 76.22 211.19 76.17 209.28 76.06 L 208.65 75.52 C 208.43 75.06 207.99 74.13 207.77 73.66 C 211.00 67.79 213.35 61.11 218.78 56.80 Z" />
</g>
<g id="#282a2eff">
<path fill="#282a2e" opacity="1.00" d=" M 128.28 62.10 C 129.19 60.56 130.10 59.02 131.02 57.48 C 134.21 61.79 136.53 66.83 137.55 72.10 C 138.42 76.61 138.70 81.21 138.22 85.78 C 136.93 92.12 134.53 98.33 130.06 103.14 C 123.20 109.32 113.67 111.40 104.65 110.84 C 100.10 110.38 95.72 109.00 91.51 107.25 C 89.03 106.18 86.69 104.80 84.53 103.18 C 84.99 102.74 85.89 101.86 86.35 101.42 C 89.95 103.87 93.91 105.82 98.19 106.78 C 108.00 108.98 119.75 107.71 126.78 99.79 C 133.56 91.97 135.02 80.48 132.15 70.75 C 131.58 68.62 130.80 66.56 129.81 64.60 C 129.32 63.75 128.81 62.92 128.28 62.10 Z" />
</g>
<g id="#a0a6caff">
<path fill="#a0a6ca" opacity="1.00" d=" M 200.29 61.11 C 200.79 59.31 202.88 58.98 204.28 58.11 C 204.61 59.55 204.93 60.99 205.26 62.43 C 204.42 63.26 203.58 64.09 202.74 64.92 C 202.54 68.62 203.35 72.28 206.25 74.80 C 206.85 74.98 208.05 75.34 208.65 75.52 L 209.28 76.06 C 208.54 75.84 207.06 75.40 206.32 75.18 C 204.99 77.31 203.85 80.33 200.91 80.57 C 198.46 81.21 196.28 79.68 194.50 78.21 C 193.12 77.82 190.88 77.23 191.46 75.30 C 191.73 75.45 192.28 75.74 192.55 75.89 C 192.84 76.10 193.44 76.51 193.73 76.72 C 195.28 75.19 196.92 73.74 198.26 72.02 C 199.86 68.60 199.09 64.64 200.29 61.11 Z" />
</g>
<g id="#dde4f2ff">
<path fill="#dde4f2" opacity="1.00" d=" M 87.29 75.10 C 86.17 66.44 94.55 58.70 102.98 59.30 C 109.01 59.16 114.25 63.23 117.53 67.99 C 118.91 70.00 119.92 72.25 120.60 74.59 C 120.04 77.52 119.16 80.40 117.78 83.06 C 116.64 81.29 115.52 79.50 114.60 77.62 C 114.13 70.86 107.87 64.45 100.85 65.21 C 97.91 65.28 95.36 67.44 93.96 69.90 C 90.21 75.28 95.84 83.47 102.16 82.56 C 102.61 81.71 103.07 80.87 103.53 80.03 C 103.05 79.28 102.58 78.53 102.10 77.79 C 101.07 77.59 100.03 77.40 99.00 77.22 C 98.06 75.82 96.54 73.81 98.05 72.24 C 99.75 69.77 103.32 69.83 105.61 71.39 C 110.81 74.45 110.82 82.77 106.39 86.47 C 98.39 90.84 87.52 84.06 87.29 75.10 Z" />
</g>
<g id="#939dc8ff">
<path fill="#939dc8" opacity="1.00" d=" M 221.80 60.76 C 222.43 59.50 223.87 59.60 225.06 59.38 C 223.93 63.26 222.57 67.09 220.71 70.68 C 219.38 73.24 216.02 73.05 213.64 73.93 C 215.94 69.30 218.76 64.93 221.80 60.76 Z" />
</g>
<g id="#2e3031ff">
<path fill="#2e3031" opacity="1.00" d=" M 117.53 67.99 C 118.05 66.18 119.00 64.57 120.63 63.56 C 121.84 65.11 122.93 66.75 123.84 68.49 C 126.27 73.86 127.31 79.89 126.34 85.75 C 125.03 91.44 121.69 96.67 116.79 99.91 C 114.21 101.61 111.16 102.30 108.26 103.25 C 100.56 103.90 92.78 101.38 86.58 96.86 L 85.89 96.31 C 86.32 95.58 87.19 94.11 87.62 93.38 C 88.68 94.16 89.76 94.91 90.86 95.63 C 96.93 99.19 104.83 100.82 111.34 97.46 C 119.58 93.52 123.65 83.15 120.60 74.59 C 119.92 72.25 118.91 70.00 117.53 67.99 Z" />
</g>
<g id="#c8cfe3ff">
<path fill="#c8cfe3" opacity="1.00" d=" M 129.81 64.60 C 130.80 66.56 131.58 68.62 132.15 70.75 C 131.92 75.91 133.04 81.14 131.55 86.20 C 130.73 86.46 129.91 86.72 129.09 86.98 C 128.72 87.62 128.35 88.25 127.98 88.89 C 127.43 87.84 126.88 86.80 126.34 85.75 C 127.31 79.89 126.27 73.86 123.84 68.49 C 125.86 67.24 127.85 65.94 129.81 64.60 Z" />
</g>
<g id="#b4bbd8ff">
<path fill="#b4bbd8" opacity="1.00" d=" M 143.60 65.78 C 146.02 73.23 146.17 81.28 144.11 88.83 C 143.74 87.94 143.37 87.06 143.00 86.18 C 141.95 87.13 140.90 88.08 139.85 89.04 C 139.29 87.96 138.73 86.88 138.22 85.78 C 138.70 81.21 138.42 76.61 137.55 72.10 C 138.63 72.22 139.70 72.33 140.78 72.45 C 141.79 70.25 142.72 68.03 143.60 65.78 Z" />
</g>
<g id="#949cc1ff">
<path fill="#949cc1" opacity="1.00" d=" M 149.15 68.96 C 150.81 73.69 151.93 78.80 150.90 83.79 C 150.66 85.75 149.73 88.21 151.95 89.43 C 149.11 100.38 140.60 109.85 129.80 113.42 C 121.47 116.26 112.32 116.86 103.69 115.14 C 104.44 115.04 105.95 114.84 106.71 114.74 C 106.25 114.23 105.79 113.72 105.34 113.21 C 106.53 112.94 107.72 112.68 108.91 112.41 C 107.49 111.87 106.08 111.32 104.65 110.84 C 113.67 111.40 123.20 109.32 130.06 103.14 C 132.65 103.29 134.85 101.44 137.46 101.78 C 135.91 103.87 133.99 105.63 131.94 107.21 C 132.17 109.65 134.91 110.06 136.43 108.38 C 147.97 99.14 151.67 83.06 149.15 68.96 Z" />
</g>
<g id="#b0b8d4ff">
<path fill="#b0b8d4" opacity="1.00" d=" M 132.15 70.75 C 135.02 80.48 133.56 91.97 126.78 99.79 C 119.75 107.71 108.00 108.98 98.19 106.78 C 101.16 104.59 104.97 104.68 108.26 103.25 C 111.16 102.30 114.21 101.61 116.79 99.91 C 121.69 96.67 125.03 91.44 126.34 85.75 C 126.88 86.80 127.43 87.84 127.98 88.89 C 128.35 88.25 128.72 87.62 129.09 86.98 C 129.91 86.72 130.73 86.46 131.55 86.20 C 133.04 81.14 131.92 75.91 132.15 70.75 Z" />
</g>
<g id="#98a1c9ff">
<path fill="#98a1c9" opacity="1.00" d=" M 38.14 79.20 C 41.70 76.59 45.26 73.98 48.85 71.40 C 49.77 72.18 50.68 72.97 51.62 73.74 C 49.27 73.72 48.89 76.56 47.66 78.03 C 43.30 79.47 39.25 81.64 35.24 83.85 C 36.10 82.25 36.55 80.28 38.14 79.20 Z" />
</g>
<g id="#c8cee4ff">
<path fill="#c8cee4" opacity="1.00" d=" M 120.60 74.59 C 123.65 83.15 119.58 93.52 111.34 97.46 C 104.83 100.82 96.93 99.19 90.86 95.63 C 91.72 94.00 92.57 92.37 93.43 90.74 C 97.64 92.68 102.55 93.31 107.03 91.97 C 112.77 89.91 115.22 83.30 114.60 77.62 C 115.52 79.50 116.64 81.29 117.78 83.06 C 119.16 80.40 120.04 77.52 120.60 74.59 Z" />
</g>
<g id="#a1baedff">
<path fill="#a1baed" opacity="1.00" d=" M 35.24 83.85 C 39.25 81.64 43.30 79.47 47.66 78.03 C 45.49 81.14 43.69 84.56 40.94 87.21 C 39.48 88.74 37.15 88.28 35.25 88.52 L 35.43 88.19 C 36.94 87.91 38.46 87.71 39.99 87.54 C 37.79 87.12 35.82 86.09 34.46 84.27 L 35.24 83.85 Z" />
</g>
<g id="#c0d4f9ff">
<path fill="#c0d4f9" opacity="1.00" d=" M 31.79 84.29 C 32.46 84.29 33.79 84.28 34.46 84.27 C 35.82 86.09 37.79 87.12 39.99 87.54 C 38.46 87.71 36.94 87.91 35.43 88.19 C 33.46 88.19 31.53 87.79 30.05 86.43 C 30.63 85.72 31.21 85.01 31.79 84.29 Z" />
</g>
<g id="#a1a9caff">
<path fill="#a1a9ca" opacity="1.00" d=" M 138.22 85.78 C 138.73 86.88 139.29 87.96 139.85 89.04 C 140.90 88.08 141.95 87.13 143.00 86.18 C 143.37 87.06 143.74 87.94 144.11 88.83 C 142.60 93.46 140.53 97.97 137.46 101.78 C 134.85 101.44 132.65 103.29 130.06 103.14 C 134.53 98.33 136.93 92.12 138.22 85.78 Z" />
</g>
<g id="#2f4b8cff">
<path fill="#2f4b8c" opacity="1.00" d=" M 160.57 92.58 C 162.13 90.46 164.02 88.57 166.54 87.64 C 165.99 94.93 162.00 101.19 158.24 107.24 C 156.19 110.44 152.78 112.36 150.02 114.87 C 152.45 114.40 154.90 114.04 157.34 113.63 C 156.97 114.26 156.24 115.53 155.87 116.17 C 154.96 121.58 148.53 121.48 144.22 121.43 C 143.95 123.37 143.70 125.32 143.12 127.21 C 143.46 124.56 143.85 121.92 143.82 119.25 C 137.99 119.44 132.52 121.99 126.66 121.89 C 128.48 121.37 130.29 120.78 132.10 120.23 C 126.55 119.52 121.00 118.68 115.62 117.09 C 117.07 115.73 119.19 116.06 121.00 115.74 C 132.46 114.59 143.81 108.06 148.96 97.49 C 149.65 97.27 151.04 96.84 151.73 96.63 C 151.92 97.12 152.28 98.11 152.47 98.61 C 155.46 97.04 158.54 95.38 160.57 92.58 Z" />
</g>
<g id="#c8cee0ff">
<path fill="#c8cee0" opacity="1.00" d=" M 86.58 96.86 C 92.78 101.38 100.56 103.90 108.26 103.25 C 104.97 104.68 101.16 104.59 98.19 106.78 C 93.91 105.82 89.95 103.87 86.35 101.42 C 85.47 100.82 84.60 100.21 83.76 99.57 C 84.69 98.66 85.63 97.76 86.58 96.86 Z" />
</g>
<g id="#cfd8e5ff">
<path fill="#cfd8e5" opacity="1.00" d=" M 81.47 100.77 C 82.48 101.59 83.50 102.40 84.53 103.18 C 86.69 104.80 89.03 106.18 91.51 107.25 C 90.25 107.96 89.00 108.66 87.75 109.37 C 85.17 107.47 82.33 105.87 80.11 103.52 C 80.45 102.83 81.13 101.46 81.47 100.77 Z" />
</g>
<g id="#476eb1ff">
<path fill="#476eb1" opacity="1.00" d=" M 82.46 107.12 C 84.74 108.21 87.01 109.33 89.28 110.45 C 89.80 110.71 90.84 111.25 91.36 111.51 C 94.07 113.10 96.96 114.41 100.06 115.03 C 99.78 115.91 99.23 117.65 98.95 118.53 C 95.83 117.62 92.86 116.27 90.36 114.16 C 90.28 115.45 90.20 116.74 90.14 118.04 C 89.64 116.86 89.10 115.70 88.58 114.53 C 85.72 112.74 82.77 111.10 79.80 109.50 C 80.69 108.71 81.58 107.91 82.46 107.12 Z" />
</g>
<g id="#b2b9d4ff">
<path fill="#b2b9d4" opacity="1.00" d=" M 87.75 109.37 C 89.00 108.66 90.25 107.96 91.51 107.25 C 95.72 109.00 100.10 110.38 104.65 110.84 C 106.08 111.32 107.49 111.87 108.91 112.41 C 107.72 112.68 106.53 112.94 105.34 113.21 C 105.79 113.72 106.25 114.23 106.71 114.74 C 105.95 114.84 104.44 115.04 103.69 115.14 C 99.48 114.29 95.39 112.94 91.36 111.51 C 90.84 111.25 89.80 110.71 89.28 110.45 C 88.90 110.18 88.13 109.64 87.75 109.37 Z" />
</g>
<g id="#517bb5ff">
<path fill="#517bb5" opacity="1.00" d=" M 88.58 114.53 C 89.10 115.70 89.64 116.86 90.14 118.04 L 90.12 118.87 C 89.52 122.73 90.37 127.57 87.49 130.59 C 82.68 133.38 76.74 133.31 71.83 135.96 C 70.87 137.02 70.73 138.53 70.30 139.84 C 73.29 142.24 75.97 145.17 76.27 149.19 C 75.65 149.36 74.41 149.70 73.78 149.87 C 71.06 150.27 68.23 149.72 65.53 149.26 C 62.36 148.12 61.58 143.66 63.23 140.98 C 66.80 136.29 72.37 133.63 77.97 132.23 C 81.26 131.47 83.94 129.39 86.61 127.46 C 88.00 123.29 88.26 118.88 88.58 114.53 Z" />
</g>
<g id="#3c5b92ff">
<path fill="#3c5b92" opacity="1.00" d=" M 90.36 114.16 C 92.86 116.27 95.83 117.62 98.95 118.53 C 99.19 118.61 99.66 118.78 99.90 118.87 C 100.10 122.26 100.01 125.73 101.03 129.01 C 102.11 133.05 104.98 136.77 104.15 141.16 C 103.53 143.22 102.58 145.91 100.05 146.11 C 99.29 146.07 97.78 146.00 97.02 145.96 C 99.22 144.11 101.92 142.18 102.09 139.01 C 102.29 135.93 101.53 131.87 98.85 130.11 C 95.28 130.47 92.26 132.85 89.04 134.29 C 89.28 136.97 90.11 139.54 90.64 142.17 C 90.66 144.83 89.77 148.03 86.85 148.80 C 82.54 149.48 78.16 150.05 73.78 149.87 C 74.41 149.70 75.65 149.36 76.27 149.19 C 78.29 148.94 80.33 148.84 82.36 148.73 C 85.29 144.57 83.15 139.63 80.45 135.97 C 82.98 132.38 88.05 133.06 91.19 130.35 C 94.14 127.75 96.24 124.32 97.67 120.69 C 95.17 120.01 92.66 119.38 90.12 118.87 L 90.14 118.04 C 90.20 116.74 90.28 115.45 90.36 114.16 Z" />
</g>
<g id="#3a5ba2ff">
<path fill="#3a5ba2" opacity="1.00" d=" M 100.06 115.03 C 105.21 116.00 110.47 116.15 115.62 117.09 C 121.00 118.68 126.55 119.52 132.10 120.23 C 130.29 120.78 128.48 121.37 126.66 121.89 C 117.70 122.68 108.42 121.92 99.90 118.87 C 99.66 118.78 99.19 118.61 98.95 118.53 C 99.23 117.65 99.78 115.91 100.06 115.03 Z" />
</g>
<g id="#5a87c4ff">
<path fill="#5a87c4" opacity="1.00" d=" M 144.22 121.43 C 148.53 121.48 154.96 121.58 155.87 116.17 C 155.55 117.98 155.64 119.83 155.63 121.67 C 154.96 125.82 152.85 129.74 153.60 134.07 C 150.28 134.29 146.83 134.25 143.76 135.71 C 142.12 136.89 140.04 138.03 139.54 140.15 C 139.12 142.48 139.09 144.87 138.90 147.23 C 136.49 143.16 137.39 137.72 140.04 133.96 C 141.40 131.88 142.33 129.55 143.12 127.21 C 143.70 125.32 143.95 123.37 144.22 121.43 Z" />
</g>
<g id="#4669a1ff">
<path fill="#4669a1" opacity="1.00" d=" M 90.12 118.87 C 92.66 119.38 95.17 120.01 97.67 120.69 C 96.24 124.32 94.14 127.75 91.19 130.35 C 88.05 133.06 82.98 132.38 80.45 135.97 C 83.15 139.63 85.29 144.57 82.36 148.73 C 80.33 148.84 78.29 148.94 76.27 149.19 C 75.97 145.17 73.29 142.24 70.30 139.84 C 70.73 138.53 70.87 137.02 71.83 135.96 C 76.74 133.31 82.68 133.38 87.49 130.59 C 90.37 127.57 89.52 122.73 90.12 118.87 Z" />
</g>
<g id="#476ca4ff">
<path fill="#476ca4" opacity="1.00" d=" M 153.60 134.07 C 152.85 129.74 154.96 125.82 155.63 121.67 C 156.02 124.15 155.98 126.74 156.78 129.15 C 159.48 133.38 163.62 136.39 166.62 140.37 C 164.88 139.95 163.10 139.69 161.32 139.89 C 162.68 143.77 163.15 147.90 162.14 151.92 C 160.92 152.11 159.71 152.17 158.51 152.09 C 156.47 151.52 154.43 150.98 152.36 150.60 C 154.26 149.71 155.99 148.51 157.41 146.97 C 153.32 143.70 147.43 145.73 143.15 142.88 C 140.80 140.83 142.80 137.91 143.76 135.71 C 146.83 134.25 150.28 134.29 153.60 134.07 Z" />
</g>
<g id="#324e85ff">
<path fill="#324e85" opacity="1.00" d=" M 89.04 134.29 C 92.26 132.85 95.28 130.47 98.85 130.11 C 101.53 131.87 102.29 135.93 102.09 139.01 C 101.92 142.18 99.22 144.11 97.02 145.96 C 97.78 146.00 99.29 146.07 100.05 146.11 C 95.75 147.41 91.30 148.18 86.85 148.80 C 89.77 148.03 90.66 144.83 90.64 142.17 C 90.11 139.54 89.28 136.97 89.04 134.29 Z" />
</g>
<g id="#5078b0ff">
<path fill="#5078b0" opacity="1.00" d=" M 139.54 140.15 C 140.04 138.03 142.12 136.89 143.76 135.71 C 142.80 137.91 140.80 140.83 143.15 142.88 C 147.43 145.73 153.32 143.70 157.41 146.97 C 155.99 148.51 154.26 149.71 152.36 150.60 C 154.43 150.98 156.47 151.52 158.51 152.09 C 151.92 152.32 143.69 153.07 138.87 147.65 L 138.90 147.23 C 139.09 144.87 139.12 142.48 139.54 140.15 Z" />
</g>
<g id="#3e5d99ff">
<path fill="#3e5d99" opacity="1.00" d=" M 161.32 139.89 C 163.10 139.69 164.88 139.95 166.62 140.37 L 166.72 140.39 C 168.82 144.67 167.36 150.97 162.14 151.92 C 163.15 147.90 162.68 143.77 161.32 139.89 Z" />
</g>
</svg>
