<?xml version="1.0" encoding="UTF-8" ?>
<!DOCTYPE svg PUBLIC "-//W3C//DTD SVG 1.1//EN" "http://www.w3.org/Graphics/SVG/1.1/DTD/svg11.dtd">
<svg width="196pt" height="187pt" viewBox="0 0 196 187" version="1.1" xmlns="http://www.w3.org/2000/svg">
<g id="#6697ccff">
<path fill="#6697cc" opacity="1.00" d=" M 119.10 10.55 C 125.15 4.97 135.09 3.05 142.34 7.39 C 142.04 7.75 141.45 8.46 141.15 8.81 C 138.62 7.66 135.59 6.45 132.94 7.97 C 129.06 10.10 124.55 10.61 120.67 12.72 C 118.54 13.72 117.57 15.96 116.38 17.84 C 116.11 16.61 115.85 15.39 115.59 14.16 C 111.81 13.62 108.00 14.18 104.39 15.34 C 99.78 16.84 94.93 17.20 90.19 18.08 C 89.43 17.19 88.68 16.31 87.92 15.43 C 87.73 15.22 87.35 14.81 87.16 14.60 C 97.71 12.55 108.34 10.81 119.10 10.55 Z" />
</g>
<g id="#507bb5ff">
<path fill="#507bb5" opacity="1.00" d=" M 132.94 7.97 C 135.59 6.45 138.62 7.66 141.15 8.81 C 141.45 8.46 142.04 7.75 142.34 7.39 C 144.50 8.61 146.08 10.49 147.55 12.44 C 151.57 16.41 157.79 16.12 162.78 18.15 C 164.40 19.59 164.70 22.44 167.19 22.86 C 172.38 24.61 177.35 26.88 182.38 29.00 C 186.57 31.65 188.55 36.15 190.15 40.64 C 189.59 40.97 188.46 41.63 187.89 41.96 C 188.79 47.20 189.42 52.59 188.71 57.88 C 186.97 61.37 184.02 64.29 180.67 66.28 C 179.73 64.39 178.71 62.54 177.58 60.75 C 175.98 59.02 174.27 57.38 172.49 55.84 C 170.07 54.46 167.52 53.31 164.88 52.44 C 165.52 46.66 167.31 41.10 168.66 35.46 C 165.35 33.00 164.72 29.06 163.59 25.41 C 159.68 20.18 152.19 20.48 147.11 16.85 C 146.42 17.89 145.75 18.92 145.07 19.96 C 140.26 12.87 129.18 12.74 123.20 18.38 C 119.25 21.83 117.41 27.65 119.62 32.57 C 119.26 33.19 118.52 34.42 118.15 35.04 C 118.75 37.28 119.20 39.61 120.34 41.66 C 121.77 43.60 124.22 44.30 126.29 45.34 C 125.99 45.87 125.70 46.40 125.42 46.94 L 125.99 47.50 C 123.32 49.01 120.43 50.10 117.85 51.75 C 115.83 53.83 114.29 56.31 112.51 58.58 C 112.45 56.90 112.42 55.23 112.43 53.55 C 113.18 53.12 113.93 52.69 114.67 52.27 C 112.42 50.96 109.58 50.12 108.38 47.60 C 106.86 44.77 103.79 43.34 101.72 40.99 C 98.97 41.56 96.21 42.34 93.82 43.87 C 91.85 45.58 91.17 48.64 88.43 49.48 C 84.10 51.33 79.41 54.26 74.56 52.51 C 70.54 51.56 68.48 47.47 67.84 43.72 C 71.11 45.51 74.84 45.97 78.51 45.56 C 79.92 46.27 81.62 47.40 83.05 46.02 C 89.22 38.12 90.40 27.80 90.19 18.08 C 94.93 17.20 99.78 16.84 104.39 15.34 C 108.00 14.18 111.81 13.62 115.59 14.16 C 115.85 15.39 116.11 16.61 116.38 17.84 C 117.57 15.96 118.54 13.72 120.67 12.72 C 124.55 10.61 129.06 10.10 132.94 7.97 Z" />
</g>
<g id="#5b8dc7ff">
<path fill="#5b8dc7" opacity="1.00" d=" M 60.76 19.01 C 62.77 15.38 65.72 11.84 69.99 10.97 C 73.25 10.54 76.59 10.57 79.83 11.13 C 80.35 11.45 81.39 12.09 81.91 12.42 C 79.19 15.60 74.27 16.47 72.60 20.52 C 68.41 19.74 64.08 20.84 61.31 24.20 C 61.22 22.71 61.07 21.23 60.86 19.76 L 60.76 19.01 Z" />
</g>
<g id="#527db5ff">
<path fill="#527db5" opacity="1.00" d=" M 79.83 11.13 C 82.55 11.50 85.24 12.59 87.16 14.60 C 87.35 14.81 87.73 15.22 87.92 15.43 C 84.18 17.55 82.51 21.70 79.75 24.80 C 77.58 23.04 75.15 21.64 72.60 20.52 C 74.27 16.47 79.19 15.60 81.91 12.42 C 81.39 12.09 80.35 11.45 79.83 11.13 Z" />
</g>
<g id="#6393caff">
<path fill="#6393ca" opacity="1.00" d=" M 147.55 12.44 C 157.46 13.79 166.75 17.90 175.59 22.40 C 178.15 24.24 180.28 26.65 182.38 29.00 C 177.35 26.88 172.38 24.61 167.19 22.86 C 164.70 22.44 164.40 19.59 162.78 18.15 C 157.79 16.12 151.57 16.41 147.55 12.44 Z" />
</g>
<g id="#1b1d24ff">
<path fill="#1b1d24" opacity="1.00" d=" M 123.20 18.38 C 129.18 12.74 140.26 12.87 145.07 19.96 C 146.56 23.00 147.91 26.50 146.73 29.89 C 144.39 39.50 131.05 44.04 123.25 38.14 L 123.69 36.90 C 128.78 40.55 135.68 39.91 140.73 36.53 C 144.81 33.29 146.69 27.50 144.82 22.56 C 143.44 19.86 141.14 17.71 138.33 16.55 C 137.88 16.37 136.99 16.00 136.54 15.81 C 130.14 13.95 122.99 17.65 120.44 23.71 C 118.62 27.40 119.57 32.09 122.56 34.90 C 122.38 35.24 122.03 35.93 121.85 36.28 C 121.07 35.07 120.32 33.84 119.62 32.57 C 117.41 27.65 119.25 21.83 123.20 18.38 Z" />
<path fill="#1b1d24" opacity="1.00" d=" M 61.31 24.20 C 64.08 20.84 68.41 19.74 72.60 20.52 C 75.15 21.64 77.58 23.04 79.75 24.80 C 82.66 28.18 85.28 32.33 84.56 37.02 C 84.73 40.93 81.81 43.95 78.51 45.56 C 74.84 45.97 71.11 45.51 67.84 43.72 C 66.23 42.30 64.71 40.78 63.30 39.16 C 62.08 37.10 61.20 34.85 60.52 32.55 C 60.23 29.74 60.08 26.83 61.31 24.20 M 65.31 21.57 C 66.21 25.67 70.25 28.13 73.10 30.93 C 76.29 33.52 79.26 36.60 83.17 38.09 C 84.33 32.18 80.86 26.07 75.75 23.15 C 72.81 20.73 68.82 21.42 65.31 21.57 M 62.99 24.00 C 57.22 32.69 65.95 45.34 75.95 44.40 C 78.84 44.44 81.11 42.39 82.67 40.17 C 80.80 39.58 79.17 38.51 77.81 37.11 C 77.66 38.51 77.32 41.81 75.07 40.89 C 72.12 39.14 71.99 35.43 71.58 32.44 C 69.62 30.41 67.34 28.66 65.72 26.31 C 64.89 25.46 64.52 23.77 62.99 24.00 M 73.31 34.23 C 73.76 35.59 74.03 37.21 75.59 37.68 C 76.42 35.95 74.92 34.53 73.31 34.23 Z" />
<path fill="#1b1d24" opacity="1.00" d=" M 104.13 45.98 C 105.84 47.73 107.83 49.71 107.46 52.39 C 106.97 52.43 106.00 52.51 105.51 52.54 C 104.18 50.61 104.32 48.20 104.13 45.98 Z" />
<path fill="#1b1d24" opacity="1.00" d=" M 95.68 53.71 C 95.00 50.94 97.19 48.66 98.96 46.85 C 98.64 49.34 98.74 52.94 95.68 53.71 Z" />
<path fill="#1b1d24" opacity="1.00" d=" M 157.93 106.99 C 159.80 104.79 160.66 101.59 163.59 100.46 C 160.17 107.36 154.40 112.93 147.53 116.34 C 138.24 121.44 127.37 122.54 116.95 122.49 C 114.11 122.42 111.10 122.64 108.52 121.22 C 109.16 121.34 110.43 121.57 111.06 121.69 C 117.86 122.67 124.80 121.94 131.55 120.89 C 141.56 119.41 151.31 114.76 157.93 106.99 Z" />
<path fill="#1b1d24" opacity="1.00" d=" M 149.60 106.30 C 150.62 104.94 152.39 104.65 153.90 104.07 C 153.55 107.11 151.81 111.01 148.23 110.88 C 148.65 109.34 149.09 107.81 149.60 106.30 Z" />
</g>
<g id="#476ca3ff">
<path fill="#476ca3" opacity="1.00" d=" M 79.75 24.80 C 82.51 21.70 84.18 17.55 87.92 15.43 C 88.68 16.31 89.43 17.19 90.19 18.08 C 90.40 27.80 89.22 38.12 83.05 46.02 C 81.62 47.40 79.92 46.27 78.51 45.56 C 81.81 43.95 84.73 40.93 84.56 37.02 C 85.28 32.33 82.66 28.18 79.75 24.80 Z" />
</g>
<g id="#5177adff">
<path fill="#5177ad" opacity="1.00" d=" M 120.44 23.71 C 122.99 17.65 130.14 13.95 136.54 15.81 C 131.89 22.18 126.38 27.95 122.56 34.90 C 119.57 32.09 118.62 27.40 120.44 23.71 Z" />
</g>
<g id="#1e1e1eff">
<path fill="#1e1e1e" opacity="1.00" d=" M 136.54 15.81 C 136.99 16.00 137.88 16.37 138.33 16.55 C 135.99 20.31 133.29 23.82 130.48 27.24 C 131.62 29.93 133.41 33.55 130.89 36.03 C 128.61 36.83 127.54 34.14 126.14 32.93 C 125.30 34.24 124.45 35.54 123.69 36.90 L 123.25 38.14 C 122.76 37.54 122.30 36.91 121.85 36.28 C 122.03 35.93 122.38 35.24 122.56 34.90 C 126.38 27.95 131.89 22.18 136.54 15.81 M 128.69 29.29 C 127.54 30.37 127.48 31.42 128.52 32.45 C 130.30 33.31 130.23 29.20 128.69 29.29 Z" />
</g>
<g id="#ddddddff">
<path fill="#dddddd" opacity="1.00" d=" M 138.33 16.55 C 141.14 17.71 143.44 19.86 144.82 22.56 C 142.52 25.64 140.19 28.75 137.17 31.17 C 135.63 32.54 133.68 33.66 132.91 35.69 C 135.51 35.97 138.12 36.22 140.73 36.53 C 135.68 39.91 128.78 40.55 123.69 36.90 C 124.45 35.54 125.30 34.24 126.14 32.93 C 127.54 34.14 128.61 36.83 130.89 36.03 C 133.41 33.55 131.62 29.93 130.48 27.24 C 133.29 23.82 135.99 20.31 138.33 16.55 Z" />
</g>
<g id="#486ca3ff">
<path fill="#486ca3" opacity="1.00" d=" M 147.11 16.85 C 152.19 20.48 159.68 20.18 163.59 25.41 C 164.72 29.06 165.35 33.00 168.66 35.46 C 167.31 41.10 165.52 46.66 164.88 52.44 C 162.30 52.42 159.74 52.71 157.19 52.99 C 153.87 51.76 150.57 50.51 147.27 49.23 C 145.14 48.42 143.01 47.58 140.82 46.98 C 135.96 46.53 130.57 45.32 125.99 47.50 L 125.42 46.94 C 125.70 46.40 125.99 45.87 126.29 45.34 C 124.22 44.30 121.77 43.60 120.34 41.66 C 119.20 39.61 118.75 37.28 118.15 35.04 C 118.52 34.42 119.26 33.19 119.62 32.57 C 120.32 33.84 121.07 35.07 121.85 36.28 C 122.30 36.91 122.76 37.54 123.25 38.14 C 131.05 44.04 144.39 39.50 146.73 29.89 C 147.91 26.50 146.56 23.00 145.07 19.96 C 145.75 18.92 146.42 17.89 147.11 16.85 Z" />
</g>
<g id="#8bcefeff">
<path fill="#8bcefe" opacity="1.00" d=" M 59.33 26.28 C 59.59 24.05 59.63 21.71 60.86 19.76 C 61.07 21.23 61.22 22.71 61.31 24.20 C 60.08 26.83 60.23 29.74 60.52 32.55 C 55.81 37.28 55.26 44.43 52.11 50.12 C 50.74 44.81 54.52 39.59 52.71 34.40 C 51.32 34.53 49.93 34.63 48.54 34.80 C 51.94 31.73 55.60 28.94 59.33 26.28 Z" />
<path fill="#8bcefe" opacity="1.00" d=" M 146.17 151.52 C 146.53 151.93 147.25 152.76 147.61 153.17 C 146.43 156.28 146.44 159.58 147.34 162.75 C 143.49 160.08 144.86 155.15 146.17 151.52 Z" />
</g>
<g id="#517ab1ff">
<path fill="#517ab1" opacity="1.00" d=" M 65.31 21.57 C 68.82 21.42 72.81 20.73 75.75 23.15 C 80.86 26.07 84.33 32.18 83.17 38.09 C 79.26 36.60 76.29 33.52 73.10 30.93 C 70.25 28.13 66.21 25.67 65.31 21.57 Z" />
</g>
<g id="#cececeff">
<path fill="#cecece" opacity="1.00" d=" M 144.82 22.56 C 146.69 27.50 144.81 33.29 140.73 36.53 C 138.12 36.22 135.51 35.97 132.91 35.69 C 133.68 33.66 135.63 32.54 137.17 31.17 C 140.19 28.75 142.52 25.64 144.82 22.56 Z" />
</g>
<g id="#eeeeeeff">
<path fill="#eeeeee" opacity="1.00" d=" M 62.99 24.00 C 64.52 23.77 64.89 25.46 65.72 26.31 C 67.34 28.66 69.62 30.41 71.58 32.44 C 71.99 35.43 72.12 39.14 75.07 40.89 C 77.32 41.81 77.66 38.51 77.81 37.11 C 79.17 38.51 80.80 39.58 82.67 40.17 C 81.11 42.39 78.84 44.44 75.95 44.40 C 65.95 45.34 57.22 32.69 62.99 24.00 Z" />
<path fill="#eeeeee" opacity="1.00" d=" M 128.69 29.29 C 130.23 29.20 130.30 33.31 128.52 32.45 C 127.48 31.42 127.54 30.37 128.69 29.29 Z" />
<path fill="#eeeeee" opacity="1.00" d=" M 73.31 34.23 C 74.92 34.53 76.42 35.95 75.59 37.68 C 74.03 37.21 73.76 35.59 73.31 34.23 Z" />
</g>
<g id="#73aae2ff">
<path fill="#73aae2" opacity="1.00" d=" M 60.52 32.55 C 61.20 34.85 62.08 37.10 63.30 39.16 C 61.58 44.33 60.12 49.62 59.65 55.06 C 56.50 55.25 53.36 55.57 50.22 55.86 C 50.58 52.09 51.16 47.98 48.52 44.83 C 51.09 42.91 52.94 39.06 50.11 36.48 C 47.84 37.52 45.73 38.87 43.75 40.38 L 43.69 39.14 C 44.93 37.35 46.73 35.98 48.54 34.80 C 49.93 34.63 51.32 34.53 52.71 34.40 C 54.52 39.59 50.74 44.81 52.11 50.12 C 55.26 44.43 55.81 37.28 60.52 32.55 Z" />
</g>
<g id="#5380bbff">
<path fill="#5380bb" opacity="1.00" d=" M 43.75 40.38 C 45.73 38.87 47.84 37.52 50.11 36.48 C 52.94 39.06 51.09 42.91 48.52 44.83 C 51.16 47.98 50.58 52.09 50.22 55.86 C 46.16 56.29 42.07 56.87 37.98 56.57 C 34.68 56.43 30.99 56.10 28.21 58.25 C 31.77 50.69 38.04 45.08 43.69 39.14 L 43.75 40.38 Z" />
</g>
<g id="#5682bbff">
<path fill="#5682bb" opacity="1.00" d=" M 59.65 55.06 C 60.12 49.62 61.58 44.33 63.30 39.16 C 64.71 40.78 66.23 42.30 67.84 43.72 C 68.48 47.47 70.54 51.56 74.56 52.51 C 79.41 54.26 84.10 51.33 88.43 49.48 C 91.17 48.64 91.85 45.58 93.82 43.87 C 96.21 42.34 98.97 41.56 101.72 40.99 C 103.79 43.34 106.86 44.77 108.38 47.60 C 109.58 50.12 112.42 50.96 114.67 52.27 C 113.93 52.69 113.18 53.12 112.43 53.55 C 112.42 55.23 112.45 56.90 112.51 58.58 C 112.19 59.04 111.55 59.95 111.23 60.40 C 111.17 60.48 111.06 60.65 111.00 60.73 C 99.78 64.31 87.91 61.76 76.45 62.35 C 75.94 61.86 75.44 61.35 74.95 60.83 C 74.03 59.85 73.13 58.85 72.18 57.91 C 69.65 57.06 67.05 56.46 64.44 55.91 C 62.85 55.57 61.26 55.27 59.65 55.06 M 104.13 45.98 C 104.32 48.20 104.18 50.61 105.51 52.54 C 106.00 52.51 106.97 52.43 107.46 52.39 C 107.83 49.71 105.84 47.73 104.13 45.98 M 95.68 53.71 C 98.74 52.94 98.64 49.34 98.96 46.85 C 97.19 48.66 95.00 50.94 95.68 53.71 Z" />
</g>
<g id="#42659fff">
<path fill="#42659f" opacity="1.00" d=" M 187.89 41.96 C 188.46 41.63 189.59 40.97 190.15 40.64 C 192.03 46.90 194.13 53.35 193.65 59.96 C 192.71 64.07 192.02 68.34 190.10 72.13 C 188.35 74.44 186.26 76.48 184.29 78.60 C 183.67 78.94 182.42 79.62 181.80 79.96 C 182.55 76.65 182.75 73.21 181.86 69.91 C 181.51 68.68 181.11 67.47 180.67 66.28 C 184.02 64.29 186.97 61.37 188.71 57.88 C 189.42 52.59 188.79 47.20 187.89 41.96 Z" />
</g>
<g id="#ffffffff">
<path fill="#ffffff" opacity="1.00" d=" M 125.99 47.50 C 130.57 45.32 135.96 46.53 140.82 46.98 C 136.68 49.45 131.53 46.90 127.36 49.23 C 124.34 50.85 121.02 52.06 118.30 54.18 C 116.35 56.56 115.22 61.33 111.23 60.40 C 111.55 59.95 112.19 59.04 112.51 58.58 C 114.29 56.31 115.83 53.83 117.85 51.75 C 120.43 50.10 123.32 49.01 125.99 47.50 Z" />
<path fill="#ffffff" opacity="1.00" d=" M 157.19 52.99 C 159.74 52.71 162.30 52.42 164.88 52.44 C 167.52 53.31 170.07 54.46 172.49 55.84 C 171.03 57.57 169.67 60.16 167.00 59.84 C 162.74 59.51 159.70 56.10 157.19 52.99 Z" />
<path fill="#ffffff" opacity="1.00" d=" M 142.74 53.72 C 144.54 53.45 146.36 53.23 148.17 53.03 C 148.95 57.23 145.42 60.19 142.81 62.87 C 139.08 66.51 136.46 71.15 132.66 74.70 C 129.54 76.62 125.33 79.12 121.98 76.31 C 121.89 75.96 121.70 75.27 121.61 74.92 C 120.83 69.90 122.66 63.71 127.80 61.72 C 129.39 61.03 130.99 60.38 132.58 59.69 C 134.84 58.83 136.87 57.53 138.74 56.01 C 140.04 55.20 141.41 54.49 142.74 53.72 Z" />
<path fill="#ffffff" opacity="1.00" d=" M 62.38 82.95 C 64.34 84.32 66.14 85.91 67.71 87.72 C 65.03 93.89 67.61 101.13 72.00 105.83 C 81.25 115.89 95.43 119.16 108.54 120.31 L 109.35 120.31 C 109.78 120.65 110.64 121.35 111.06 121.69 C 110.43 121.57 109.16 121.34 108.52 121.22 C 105.84 120.44 103.04 120.48 100.29 120.15 C 96.45 119.26 92.60 118.40 88.84 117.21 C 78.66 113.90 68.55 108.98 61.66 100.53 C 59.51 97.44 57.88 94.02 56.37 90.58 C 56.81 90.24 57.69 89.56 58.13 89.22 C 60.26 87.70 61.23 85.20 62.38 82.95 Z" />
</g>
<g id="#d6e2f4ff">
<path fill="#d6e2f4" opacity="1.00" d=" M 140.82 46.98 C 143.01 47.58 145.14 48.42 147.27 49.23 C 147.69 50.04 148.12 50.84 148.55 51.65 C 146.36 51.60 144.23 51.99 142.74 53.72 C 141.41 54.49 140.04 55.20 138.74 56.01 C 136.22 54.81 133.73 53.44 130.98 52.82 C 127.78 53.14 124.79 54.50 121.84 55.71 C 118.44 57.09 116.28 60.23 113.90 62.87 C 111.44 65.44 111.64 69.27 110.05 72.29 C 109.64 70.46 109.69 68.58 109.69 66.72 C 99.97 66.77 89.89 67.66 81.21 72.46 C 80.97 72.00 80.48 71.07 80.24 70.61 C 79.61 68.62 79.05 66.60 78.51 64.58 C 79.73 64.52 80.96 64.49 82.18 64.48 C 91.58 64.88 101.17 65.94 110.38 63.42 C 110.53 62.75 110.85 61.40 111.00 60.73 C 111.06 60.65 111.17 60.48 111.23 60.40 C 115.22 61.33 116.35 56.56 118.30 54.18 C 121.02 52.06 124.34 50.85 127.36 49.23 C 131.53 46.90 136.68 49.45 140.82 46.98 Z" />
</g>
<g id="#dee9faff">
<path fill="#dee9fa" opacity="1.00" d=" M 147.27 49.23 C 150.57 50.51 153.87 51.76 157.19 52.99 C 159.70 56.10 162.74 59.51 167.00 59.84 C 169.67 60.16 171.03 57.57 172.49 55.84 C 174.27 57.38 175.98 59.02 177.58 60.75 C 173.41 63.22 168.58 62.65 164.34 60.75 C 162.03 59.33 160.45 61.65 158.88 63.00 C 156.47 65.45 152.17 63.13 149.90 65.79 C 146.17 69.94 141.29 72.70 136.62 75.64 C 132.57 77.79 127.89 78.27 123.58 79.73 C 123.03 78.60 122.48 77.47 121.98 76.31 C 125.33 79.12 129.54 76.62 132.66 74.70 C 136.46 71.15 139.08 66.51 142.81 62.87 C 145.42 60.19 148.95 57.23 148.17 53.03 C 146.36 53.23 144.54 53.45 142.74 53.72 C 144.23 51.99 146.36 51.60 148.55 51.65 C 148.12 50.84 147.69 50.04 147.27 49.23 Z" />
</g>
<g id="#bac2dcff">
<path fill="#bac2dc" opacity="1.00" d=" M 121.84 55.71 C 124.79 54.50 127.78 53.14 130.98 52.82 C 133.73 53.44 136.22 54.81 138.74 56.01 C 136.87 57.53 134.84 58.83 132.58 59.69 C 128.28 57.98 122.69 57.73 119.14 61.16 C 115.74 63.73 114.66 68.13 113.75 72.06 C 113.86 74.59 114.96 76.94 115.70 79.34 C 115.05 79.32 113.77 79.28 113.13 79.26 C 112.11 78.37 111.10 77.48 110.10 76.58 C 111.27 75.27 110.65 73.81 110.08 72.41 L 110.05 72.29 C 111.64 69.27 111.44 65.44 113.90 62.87 C 116.28 60.23 118.44 57.09 121.84 55.71 Z" />
</g>
<g id="#d8e0f1ff">
<path fill="#d8e0f1" opacity="1.00" d=" M 50.22 55.86 C 53.36 55.57 56.50 55.25 59.65 55.06 C 61.26 55.27 62.85 55.57 64.44 55.91 C 62.69 56.67 60.93 57.62 58.96 57.61 C 52.57 57.74 46.18 58.21 39.78 57.98 C 40.74 59.25 41.69 60.51 42.65 61.77 C 38.04 63.87 33.97 66.88 30.15 70.18 C 26.40 73.61 20.81 71.16 16.68 73.82 C 18.50 69.88 20.74 66.14 23.51 62.80 C 23.53 62.40 23.56 61.60 23.57 61.20 C 23.72 60.88 24.02 60.23 24.16 59.91 L 24.66 60.20 C 27.29 61.87 30.74 62.81 33.74 61.66 C 35.37 60.19 36.24 58.00 37.98 56.57 C 42.07 56.87 46.16 56.29 50.22 55.86 Z" />
<path fill="#d8e0f1" opacity="1.00" d=" M 95.11 82.88 C 103.50 80.39 112.48 81.51 120.51 84.74 C 119.29 85.74 118.07 86.73 116.85 87.72 C 107.71 84.83 96.17 84.75 88.99 92.00 C 86.64 94.04 86.23 97.22 85.61 100.08 C 88.07 107.89 96.64 110.99 104.03 111.95 C 103.42 112.36 102.20 113.19 101.59 113.60 C 94.62 112.42 87.14 110.25 82.62 104.43 C 79.58 100.80 79.78 95.14 82.53 91.41 C 85.61 87.26 90.05 84.09 95.11 82.88 Z" />
</g>
<g id="#bcc4dbff">
<path fill="#bcc4db" opacity="1.00" d=" M 64.44 55.91 C 67.05 56.46 69.65 57.06 72.18 57.91 C 70.43 60.34 69.46 64.53 65.84 64.58 C 58.52 65.40 51.90 61.29 44.66 60.96 C 46.08 62.15 47.52 63.32 49.05 64.35 C 48.64 65.81 48.25 67.28 48.01 68.77 C 48.05 69.32 48.12 70.40 48.16 70.95 C 47.57 70.62 46.39 69.97 45.80 69.64 C 42.56 70.59 39.42 71.84 36.36 73.28 C 31.83 75.46 26.89 76.54 22.17 78.24 C 25.84 80.94 28.30 84.90 30.00 89.06 C 30.96 91.49 29.48 94.04 27.88 95.82 C 25.12 98.78 22.29 101.92 18.41 103.38 C 16.61 102.44 14.88 101.38 13.10 100.42 C 14.10 100.55 15.59 101.59 16.30 100.34 C 18.50 97.49 20.93 94.82 23.04 91.90 C 23.38 87.86 20.56 84.70 17.80 82.16 C 15.89 80.69 15.96 78.17 15.62 76.02 C 15.89 75.47 16.41 74.37 16.68 73.82 C 20.81 71.16 26.40 73.61 30.15 70.18 C 33.97 66.88 38.04 63.87 42.65 61.77 C 41.69 60.51 40.74 59.25 39.78 57.98 C 46.18 58.21 52.57 57.74 58.96 57.61 C 60.93 57.62 62.69 56.67 64.44 55.91 Z" />
</g>
<g id="#e9f4ffff">
<path fill="#e9f4ff" opacity="1.00" d=" M 28.21 58.25 C 30.99 56.10 34.68 56.43 37.98 56.57 C 36.24 58.00 35.37 60.19 33.74 61.66 C 30.74 62.81 27.29 61.87 24.66 60.20 C 25.87 59.59 27.07 58.98 28.21 58.25 Z" />
</g>
<g id="#99a0c2ff">
<path fill="#99a0c2" opacity="1.00" d=" M 72.18 57.91 C 73.13 58.85 74.03 59.85 74.95 60.83 C 73.85 64.77 74.19 68.87 73.72 72.89 C 73.00 76.23 70.76 78.98 69.16 81.94 C 70.46 82.86 71.77 83.79 73.07 84.72 C 69.81 85.10 66.11 84.78 63.78 82.18 C 61.98 79.59 62.32 76.26 61.74 73.30 L 61.57 72.46 C 57.72 69.28 53.38 66.81 49.05 64.35 C 47.52 63.32 46.08 62.15 44.66 60.96 C 51.90 61.29 58.52 65.40 65.84 64.58 C 69.46 64.53 70.43 60.34 72.18 57.91 Z" />
</g>
<g id="#9fa8d9ff">
<path fill="#9fa8d9" opacity="1.00" d=" M 119.14 61.16 C 122.69 57.73 128.28 57.98 132.58 59.69 C 130.99 60.38 129.39 61.03 127.80 61.72 C 124.57 58.96 121.01 62.64 118.59 64.72 C 117.32 67.58 117.19 70.86 116.85 73.95 C 117.46 75.46 118.93 76.37 120.04 77.48 C 120.43 76.84 121.22 75.56 121.61 74.92 C 121.70 75.27 121.89 75.96 121.98 76.31 C 122.48 77.47 123.03 78.60 123.58 79.73 C 123.74 80.06 124.07 80.71 124.24 81.04 C 120.53 81.81 116.02 82.20 113.13 79.26 C 113.77 79.28 115.05 79.32 115.70 79.34 C 114.96 76.94 113.86 74.59 113.75 72.06 C 114.66 68.13 115.74 63.73 119.14 61.16 Z" />
</g>
<g id="#c7cee4ff">
<path fill="#c7cee4" opacity="1.00" d=" M 158.88 63.00 C 160.45 61.65 162.03 59.33 164.34 60.75 C 168.58 62.65 173.41 63.22 177.58 60.75 C 178.71 62.54 179.73 64.39 180.67 66.28 C 181.11 67.47 181.51 68.68 181.86 69.91 C 180.42 72.34 177.84 73.44 175.20 72.22 C 174.36 69.61 171.80 67.32 168.96 67.59 C 166.49 69.52 164.84 72.57 161.64 73.46 C 158.92 74.95 155.90 74.16 153.01 73.88 C 148.80 74.24 144.94 76.17 141.21 78.04 C 136.62 80.43 131.47 81.37 126.63 83.12 C 125.77 82.50 124.97 81.80 124.24 81.04 C 124.07 80.71 123.74 80.06 123.58 79.73 C 127.89 78.27 132.57 77.79 136.62 75.64 C 141.29 72.70 146.17 69.94 149.90 65.79 C 152.17 63.13 156.47 65.45 158.88 63.00 Z" />
</g>
<g id="#8792beff">
<path fill="#8792be" opacity="1.00" d=" M 74.95 60.83 C 75.44 61.35 75.94 61.86 76.45 62.35 C 77.91 64.02 80.13 64.22 82.18 64.48 C 80.96 64.49 79.73 64.52 78.51 64.58 C 79.05 66.60 79.61 68.62 80.24 70.61 C 79.71 73.67 79.36 76.76 78.50 79.75 C 77.55 82.12 75.10 83.39 73.07 84.72 C 71.77 83.79 70.46 82.86 69.16 81.94 C 70.76 78.98 73.00 76.23 73.72 72.89 C 74.19 68.87 73.85 64.77 74.95 60.83 Z" />
</g>
<g id="#2c405aff">
<path fill="#2c405a" opacity="1.00" d=" M 76.45 62.35 C 87.91 61.76 99.78 64.31 111.00 60.73 C 110.85 61.40 110.53 62.75 110.38 63.42 C 101.17 65.94 91.58 64.88 82.18 64.48 C 80.13 64.22 77.91 64.02 76.45 62.35 Z" />
</g>
<g id="#8c94b8ff">
<path fill="#8c94b8" opacity="1.00" d=" M 118.59 64.72 C 121.01 62.64 124.57 58.96 127.80 61.72 C 122.66 63.71 120.83 69.90 121.61 74.92 C 121.22 75.56 120.43 76.84 120.04 77.48 C 118.93 76.37 117.46 75.46 116.85 73.95 C 117.19 70.86 117.32 67.58 118.59 64.72 Z" />
</g>
<g id="#fdfdfeff">
<path fill="#fdfdfe" opacity="1.00" d=" M 12.96 72.14 C 15.73 67.82 19.48 64.26 23.57 61.20 C 23.56 61.60 23.53 62.40 23.51 62.80 C 20.74 66.14 18.50 69.88 16.68 73.82 C 16.41 74.37 15.89 75.47 15.62 76.02 C 14.10 79.49 12.96 83.21 12.85 87.02 C 12.94 90.84 14.27 94.78 12.57 98.45 C 11.98 97.45 11.46 96.41 11.01 95.34 C 10.89 92.16 10.91 88.98 10.97 85.79 C 10.99 85.03 11.01 83.49 11.02 82.72 C 11.05 81.55 11.03 80.38 10.97 79.22 C 11.53 76.83 12.05 74.42 12.96 72.14 Z" />
</g>
<g id="#b8cbf3ff">
<path fill="#b8cbf3" opacity="1.00" d=" M 49.05 64.35 C 53.38 66.81 57.72 69.28 61.57 72.46 L 61.74 73.30 C 58.91 73.25 56.00 73.46 53.26 72.63 C 51.22 71.80 49.69 70.13 48.01 68.77 C 48.25 67.28 48.64 65.81 49.05 64.35 Z" />
</g>
<g id="#353535ff">
<path fill="#353535" opacity="1.00" d=" M 81.21 72.46 C 89.89 67.66 99.97 66.77 109.69 66.72 C 109.69 68.58 109.64 70.46 110.05 72.29 L 110.08 72.41 C 100.00 72.07 89.42 73.16 80.82 78.89 C 81.02 76.75 81.22 74.61 81.21 72.46 Z" />
</g>
<g id="#adb3d0ff">
<path fill="#adb3d0" opacity="1.00" d=" M 161.64 73.46 C 164.84 72.57 166.49 69.52 168.96 67.59 C 171.80 67.32 174.36 69.61 175.20 72.22 C 175.11 74.13 174.95 76.04 174.69 77.93 C 173.60 75.72 171.65 75.83 169.64 76.60 C 167.91 82.40 166.62 88.67 161.96 92.95 C 159.41 97.19 155.02 99.34 151.18 102.18 C 151.84 102.50 153.15 103.14 153.81 103.46 L 153.90 104.07 C 152.39 104.65 150.62 104.94 149.60 106.30 C 149.08 106.13 148.05 105.78 147.53 105.60 C 146.31 105.16 145.07 104.81 143.81 104.54 C 144.46 100.75 148.15 99.06 150.72 96.71 C 154.30 93.68 156.71 89.58 158.88 85.49 C 153.43 83.30 147.40 84.18 141.77 82.75 C 145.65 81.44 149.96 80.86 153.27 78.27 C 149.37 77.36 145.19 77.66 141.68 79.68 C 137.59 81.96 132.98 82.93 128.59 84.43 C 128.10 84.10 127.12 83.45 126.63 83.12 C 131.47 81.37 136.62 80.43 141.21 78.04 C 144.94 76.17 148.80 74.24 153.01 73.88 C 155.90 74.16 158.92 74.95 161.64 73.46 Z" />
</g>
<g id="#9ebbe8ff">
<path fill="#9ebbe8" opacity="1.00" d=" M 48.01 68.77 C 49.69 70.13 51.22 71.80 53.26 72.63 C 56.00 73.46 58.91 73.25 61.74 73.30 C 62.32 76.26 61.98 79.59 63.78 82.18 C 66.11 84.78 69.81 85.10 73.07 84.72 C 75.10 83.39 77.55 82.12 78.50 79.75 C 79.36 76.76 79.71 73.67 80.24 70.61 C 80.48 71.07 80.97 72.00 81.21 72.46 C 81.22 74.61 81.02 76.75 80.82 78.89 C 80.62 82.62 76.95 84.70 74.05 86.33 C 72.11 86.39 70.18 86.39 68.25 86.38 C 68.12 86.72 67.85 87.38 67.71 87.72 C 66.14 85.91 64.34 84.32 62.38 82.95 C 61.23 85.20 60.26 87.70 58.13 89.22 C 53.75 84.92 50.68 79.58 48.58 73.84 C 48.47 73.12 48.26 71.67 48.16 70.95 C 48.12 70.40 48.05 69.32 48.01 68.77 Z" />
</g>
<g id="#a2a8c9ff">
<path fill="#a2a8c9" opacity="1.00" d=" M 36.36 73.28 C 39.42 71.84 42.56 70.59 45.80 69.64 C 46.39 69.97 47.57 70.62 48.16 70.95 C 48.26 71.67 48.47 73.12 48.58 73.84 C 48.29 74.48 47.71 75.75 47.43 76.38 C 46.91 76.53 45.88 76.83 45.37 76.97 C 39.64 78.74 33.46 78.02 27.84 80.17 C 29.12 81.19 30.45 82.14 31.82 83.04 C 33.55 85.66 35.64 88.03 37.36 90.65 C 38.07 92.21 36.55 93.59 35.90 94.88 C 33.16 99.43 28.53 102.18 24.42 105.31 C 22.32 104.74 20.24 104.11 18.16 103.49 L 18.41 103.38 C 22.29 101.92 25.12 98.78 27.88 95.82 C 29.48 94.04 30.96 91.49 30.00 89.06 C 28.30 84.90 25.84 80.94 22.17 78.24 C 26.89 76.54 31.83 75.46 36.36 73.28 Z" />
</g>
<g id="#98b4e0ff">
<path fill="#98b4e0" opacity="1.00" d=" M 181.86 69.91 C 182.75 73.21 182.55 76.65 181.80 79.96 C 180.97 83.00 179.27 85.80 177.05 88.02 C 175.17 89.30 173.05 90.16 171.10 91.31 C 172.33 86.86 173.92 82.50 174.69 77.93 C 174.95 76.04 175.11 74.13 175.20 72.22 C 177.84 73.44 180.42 72.34 181.86 69.91 Z" />
</g>
<g id="#e1e9f7ff">
<path fill="#e1e9f7" opacity="1.00" d=" M 80.82 78.89 C 89.42 73.16 100.00 72.07 110.08 72.41 C 110.65 73.81 111.27 75.27 110.10 76.58 C 99.70 75.80 88.27 77.98 80.85 85.84 C 77.06 89.37 74.48 94.70 75.82 99.94 C 76.88 102.94 78.61 105.78 81.07 107.84 C 87.33 113.21 95.61 115.62 103.70 116.41 C 108.54 116.78 113.41 116.93 118.25 116.61 C 119.12 117.16 120.00 117.69 120.89 118.20 C 116.98 118.42 113.06 118.49 109.16 118.13 C 97.91 117.55 85.99 115.48 77.26 107.79 C 70.51 103.11 69.06 92.79 74.05 86.33 C 76.95 84.70 80.62 82.62 80.82 78.89 Z" />
</g>
<g id="#859cd1ff">
<path fill="#859cd1" opacity="1.00" d=" M 48.58 73.84 C 50.68 79.58 53.75 84.92 58.13 89.22 C 57.69 89.56 56.81 90.24 56.37 90.58 C 56.02 90.53 55.34 90.44 54.99 90.39 C 56.32 94.55 59.57 97.91 60.24 102.26 C 57.05 99.08 55.01 94.96 52.84 91.05 C 52.31 91.02 51.23 90.95 50.70 90.91 C 48.63 91.00 46.80 90.07 45.33 88.68 L 44.95 88.38 C 44.04 87.22 43.15 86.04 42.26 84.87 C 43.42 82.29 44.49 79.67 45.37 76.97 C 45.88 76.83 46.91 76.53 47.43 76.38 C 47.71 75.75 48.29 74.48 48.58 73.84 Z" />
</g>
<g id="#d7e0f1ff">
<path fill="#d7e0f1" opacity="1.00" d=" M 12.85 87.02 C 12.96 83.21 14.10 79.49 15.62 76.02 C 15.96 78.17 15.89 80.69 17.80 82.16 C 20.56 84.70 23.38 87.86 23.04 91.90 C 20.93 94.82 18.50 97.49 16.30 100.34 C 15.59 101.59 14.10 100.55 13.10 100.42 C 12.97 99.93 12.70 98.94 12.57 98.45 C 14.27 94.78 12.94 90.84 12.85 87.02 Z" />
</g>
<g id="#353536ff">
<path fill="#353536" opacity="1.00" d=" M 80.85 85.84 C 88.27 77.98 99.70 75.80 110.10 76.58 C 111.10 77.48 112.11 78.37 113.13 79.26 C 116.02 82.20 120.53 81.81 124.24 81.04 C 124.97 81.80 125.77 82.50 126.63 83.12 C 127.12 83.45 128.10 84.10 128.59 84.43 C 129.00 84.72 129.84 85.30 130.26 85.59 C 129.15 86.28 128.15 87.11 127.16 87.95 C 125.02 86.73 122.85 85.52 120.51 84.74 C 112.48 81.51 103.50 80.39 95.11 82.88 C 90.05 84.09 85.61 87.26 82.53 91.41 C 79.78 95.14 79.58 100.80 82.62 104.43 C 87.14 110.25 94.62 112.42 101.59 113.60 C 102.70 113.84 103.82 114.06 104.94 114.27 C 104.63 114.81 104.01 115.88 103.70 116.41 C 95.61 115.62 87.33 113.21 81.07 107.84 C 78.61 105.78 76.88 102.94 75.82 99.94 C 74.48 94.70 77.06 89.37 80.85 85.84 Z" />
</g>
<g id="#8f99c3ff">
<path fill="#8f99c3" opacity="1.00" d=" M 169.64 76.60 C 171.65 75.83 173.60 75.72 174.69 77.93 C 173.92 82.50 172.33 86.86 171.10 91.31 C 169.03 94.69 166.54 97.81 163.59 100.46 C 160.66 101.59 159.80 104.79 157.93 106.99 C 151.31 114.76 141.56 119.41 131.55 120.89 C 124.80 121.94 117.86 122.67 111.06 121.69 C 110.64 121.35 109.78 120.65 109.35 120.31 C 119.04 120.59 129.12 120.44 138.08 116.23 C 141.55 114.34 144.58 111.22 145.10 107.15 L 144.23 106.62 C 145.32 106.27 146.42 105.93 147.53 105.60 C 148.05 105.78 149.08 106.13 149.60 106.30 C 149.09 107.81 148.65 109.34 148.23 110.88 C 151.81 111.01 153.55 107.11 153.90 104.07 L 153.81 103.46 C 153.15 103.14 151.84 102.50 151.18 102.18 C 155.02 99.34 159.41 97.19 161.96 92.95 C 166.62 88.67 167.91 82.40 169.64 76.60 Z" />
</g>
<g id="#747dadff">
<path fill="#747dad" opacity="1.00" d=" M 27.84 80.17 C 33.46 78.02 39.64 78.74 45.37 76.97 C 44.49 79.67 43.42 82.29 42.26 84.87 C 43.15 86.04 44.04 87.22 44.95 88.38 C 40.48 86.82 36.28 84.62 31.82 83.04 C 30.45 82.14 29.12 81.19 27.84 80.17 Z" />
</g>
<g id="#999ebdff">
<path fill="#999ebd" opacity="1.00" d=" M 141.68 79.68 C 145.19 77.66 149.37 77.36 153.27 78.27 C 149.96 80.86 145.65 81.44 141.77 82.75 C 139.54 83.12 137.34 83.62 135.20 84.32 C 133.78 84.77 132.35 85.19 130.88 85.48 L 130.26 85.59 C 129.84 85.30 129.00 84.72 128.59 84.43 C 132.98 82.93 137.59 81.96 141.68 79.68 Z" />
</g>
<g id="#1d1d1d55">
<path fill="#1d1d1d" opacity="0.33" d=" M 11.02 82.72 C 9.19 83.12 9.12 78.92 10.97 79.22 C 11.03 80.38 11.05 81.55 11.02 82.72 Z" />
</g>
<g id="#365aa5ff">
<path fill="#365aa5" opacity="1.00" d=" M 181.80 79.96 C 182.42 79.62 183.67 78.94 184.29 78.60 C 183.64 89.08 178.98 98.80 173.31 107.46 C 170.43 112.85 165.48 118.51 167.98 125.00 C 167.98 125.78 167.98 127.35 167.98 128.14 C 167.23 127.17 166.87 125.78 165.78 125.15 C 160.80 124.67 155.97 126.41 151.57 128.54 C 149.64 129.60 147.42 129.56 145.29 129.58 C 145.03 129.93 144.51 130.63 144.25 130.98 C 139.42 124.47 130.65 127.75 123.92 127.80 C 117.04 128.23 108.71 124.83 103.05 130.24 C 102.05 129.09 101.07 127.92 100.05 126.78 C 98.89 125.80 97.63 124.95 96.35 124.13 C 98.92 124.15 101.49 124.02 104.05 123.79 C 103.83 121.62 100.80 122.16 100.29 120.15 C 103.04 120.48 105.84 120.44 108.52 121.22 C 111.10 122.64 114.11 122.42 116.95 122.49 C 127.37 122.54 138.24 121.44 147.53 116.34 C 154.40 112.93 160.17 107.36 163.59 100.46 C 166.54 97.81 169.03 94.69 171.10 91.31 C 173.05 90.16 175.17 89.30 177.05 88.02 C 179.27 85.80 180.97 83.00 181.80 79.96 Z" />
</g>
<g id="#929bc3ff">
<path fill="#929bc3" opacity="1.00" d=" M 31.82 83.04 C 36.28 84.62 40.48 86.82 44.95 88.38 L 45.33 88.68 C 40.73 90.20 41.30 95.64 39.15 99.13 C 36.77 103.14 31.71 103.82 28.38 106.76 C 27.02 106.31 25.66 105.86 24.30 105.41 L 24.42 105.31 C 28.53 102.18 33.16 99.43 35.90 94.88 C 36.55 93.59 38.07 92.21 37.36 90.65 C 35.64 88.03 33.55 85.66 31.82 83.04 Z" />
</g>
<g id="#c9d1e4ff">
<path fill="#c9d1e4" opacity="1.00" d=" M 135.20 84.32 C 137.34 83.62 139.54 83.12 141.77 82.75 C 147.40 84.18 153.43 83.30 158.88 85.49 C 156.71 89.58 154.30 93.68 150.72 96.71 C 148.15 99.06 144.46 100.75 143.81 104.54 C 139.49 105.29 134.15 100.29 131.03 105.03 C 130.68 104.46 130.33 103.88 129.99 103.30 L 129.64 102.36 L 130.36 102.03 C 134.81 100.65 140.21 99.48 142.52 94.95 C 140.71 93.32 138.56 92.01 137.03 90.11 C 136.34 88.20 135.86 86.23 135.20 84.32 Z" />
</g>
<g id="#c1c9dfff">
<path fill="#c1c9df" opacity="1.00" d=" M 120.51 84.74 C 122.85 85.52 125.02 86.73 127.16 87.95 C 127.16 89.66 127.14 91.37 127.17 93.09 C 123.84 91.09 120.53 89.01 116.85 87.72 C 118.07 86.73 119.29 85.74 120.51 84.74 Z" />
</g>
<g id="#e2e8f4ff">
<path fill="#e2e8f4" opacity="1.00" d=" M 130.88 85.48 C 132.35 85.19 133.78 84.77 135.20 84.32 C 135.86 86.23 136.34 88.20 137.03 90.11 C 138.56 92.01 140.71 93.32 142.52 94.95 C 140.21 99.48 134.81 100.65 130.36 102.03 C 131.73 99.84 134.66 99.03 135.82 96.86 C 135.47 93.30 133.71 89.92 133.66 86.25 C 132.97 86.06 131.58 85.67 130.88 85.48 Z" />
</g>
<g id="#21212158">
<path fill="#212121" opacity="0.35" d=" M 11.01 95.34 C 9.72 92.41 9.44 88.69 10.97 85.79 C 10.91 88.98 10.89 92.16 11.01 95.34 Z" />
</g>
<g id="#383838ff">
<path fill="#383838" opacity="1.00" d=" M 68.25 86.38 C 70.18 86.39 72.11 86.39 74.05 86.33 C 69.06 92.79 70.51 103.11 77.26 107.79 C 85.99 115.48 97.91 117.55 109.16 118.13 C 109.00 118.67 108.69 119.76 108.54 120.31 C 95.43 119.16 81.25 115.89 72.00 105.83 C 67.61 101.13 65.03 93.89 67.71 87.72 C 67.85 87.38 68.12 86.72 68.25 86.38 Z" />
</g>
<g id="#2d2f31ff">
<path fill="#2d2f31" opacity="1.00" d=" M 88.99 92.00 C 96.17 84.75 107.71 84.83 116.85 87.72 C 120.53 89.01 123.84 91.09 127.17 93.09 C 127.59 96.27 128.51 99.36 129.64 102.36 L 129.99 103.30 C 129.58 103.16 128.75 102.89 128.33 102.76 C 126.98 100.49 125.54 98.22 123.51 96.50 C 117.38 91.28 108.79 89.41 100.96 90.91 C 97.39 91.66 93.74 93.35 91.75 96.54 C 91.16 98.81 90.70 101.68 92.46 103.56 C 94.51 106.32 97.82 107.52 100.95 108.59 C 106.15 109.95 112.49 110.24 116.72 106.35 C 116.68 100.12 109.16 97.47 103.92 98.60 C 101.54 98.42 101.68 102.80 104.06 102.46 C 105.91 103.02 108.55 102.45 109.80 104.16 C 110.04 106.92 106.20 106.15 104.42 106.38 C 101.39 105.46 96.68 104.06 97.17 100.00 C 97.08 97.34 99.65 95.62 101.92 94.92 C 108.58 93.05 116.40 95.01 120.75 100.58 C 122.09 102.60 123.40 105.49 121.52 107.61 C 117.51 112.87 109.94 112.43 104.03 111.95 C 96.64 110.99 88.07 107.89 85.61 100.08 C 86.23 97.22 86.64 94.04 88.99 92.00 Z" />
</g>
<g id="#feffffff">
<path fill="#feffff" opacity="1.00" d=" M 127.16 87.95 C 128.15 87.11 129.15 86.28 130.26 85.59 L 130.88 85.48 C 131.58 85.67 132.97 86.06 133.66 86.25 C 133.71 89.92 135.47 93.30 135.82 96.86 C 134.66 99.03 131.73 99.84 130.36 102.03 L 129.64 102.36 C 128.51 99.36 127.59 96.27 127.17 93.09 C 127.14 91.37 127.16 89.66 127.16 87.95 Z" />
</g>
<g id="#9aadddff">
<path fill="#9aaddd" opacity="1.00" d=" M 39.15 99.13 C 41.30 95.64 40.73 90.20 45.33 88.68 C 46.80 90.07 48.63 91.00 50.70 90.91 C 49.04 93.57 51.65 96.43 50.56 99.23 C 48.98 100.21 51.90 102.26 50.03 102.67 C 49.91 100.09 49.77 97.51 49.56 94.94 C 49.34 96.63 49.14 98.32 48.93 100.02 C 46.82 99.84 44.35 98.82 42.63 100.59 C 39.17 103.38 35.06 105.15 31.54 107.83 C 30.48 107.48 29.43 107.12 28.38 106.76 C 31.71 103.82 36.77 103.14 39.15 99.13 Z" />
</g>
<g id="#517cbaff">
<path fill="#517cba" opacity="1.00" d=" M 54.99 90.39 C 55.34 90.44 56.02 90.53 56.37 90.58 C 57.88 94.02 59.51 97.44 61.66 100.53 C 68.55 108.98 78.66 113.90 88.84 117.21 C 88.70 117.59 88.42 118.34 88.28 118.72 C 90.23 119.34 92.17 119.99 94.10 120.68 C 89.93 122.41 84.55 122.72 81.97 126.97 C 77.84 134.59 76.06 143.21 74.91 151.73 L 73.62 151.86 C 73.91 146.87 74.47 141.91 74.99 136.94 C 75.74 131.83 77.99 127.08 78.94 122.02 C 79.06 117.52 75.14 114.56 71.78 112.29 C 67.80 109.23 63.38 106.61 60.30 102.55 L 60.24 102.26 C 59.57 97.91 56.32 94.55 54.99 90.39 Z" />
</g>
<g id="#ccd4e8ff">
<path fill="#ccd4e8" opacity="1.00" d=" M 91.75 96.54 C 93.74 93.35 97.39 91.66 100.96 90.91 C 108.79 89.41 117.38 91.28 123.51 96.50 C 122.59 97.85 121.67 99.21 120.75 100.58 C 116.40 95.01 108.58 93.05 101.92 94.92 C 99.65 95.62 97.08 97.34 97.17 100.00 C 96.68 104.06 101.39 105.46 104.42 106.38 C 103.30 107.18 102.13 107.89 100.95 108.59 C 97.82 107.52 94.51 106.32 92.46 103.56 C 90.70 101.68 91.16 98.81 91.75 96.54 Z" />
</g>
<g id="#a0bfeaff">
<path fill="#a0bfea" opacity="1.00" d=" M 49.56 94.94 C 49.77 97.51 49.91 100.09 50.03 102.67 C 48.11 105.87 45.83 109.11 42.12 110.36 C 38.36 110.81 35.00 108.90 31.54 107.83 C 35.06 105.15 39.17 103.38 42.63 100.59 C 44.35 98.82 46.82 99.84 48.93 100.02 C 49.14 98.32 49.34 96.63 49.56 94.94 Z" />
</g>
<g id="#a6afcfff">
<path fill="#a6afcf" opacity="1.00" d=" M 123.51 96.50 C 125.54 98.22 126.98 100.49 128.33 102.76 C 128.61 105.37 128.70 108.53 126.40 110.32 C 120.35 114.93 112.18 114.97 104.94 114.27 C 103.82 114.06 102.70 113.84 101.59 113.60 C 102.20 113.19 103.42 112.36 104.03 111.95 C 109.94 112.43 117.51 112.87 121.52 107.61 C 123.40 105.49 122.09 102.60 120.75 100.58 C 121.67 99.21 122.59 97.85 123.51 96.50 Z" />
</g>
<g id="#b9c0dbff">
<path fill="#b9c0db" opacity="1.00" d=" M 104.06 102.46 C 101.68 102.80 101.54 98.42 103.92 98.60 C 109.16 97.47 116.68 100.12 116.72 106.35 C 112.49 110.24 106.15 109.95 100.95 108.59 C 102.13 107.89 103.30 107.18 104.42 106.38 C 106.20 106.15 110.04 106.92 109.80 104.16 C 108.55 102.45 105.91 103.02 104.06 102.46 Z" />
</g>
<g id="#25272eff">
<path fill="#25272e" opacity="1.00" d=" M 128.33 102.76 C 128.75 102.89 129.58 103.16 129.99 103.30 C 130.33 103.88 130.68 104.46 131.03 105.03 C 131.86 106.21 132.71 107.37 133.59 108.52 C 130.42 113.94 124.01 115.62 118.25 116.61 C 113.41 116.93 108.54 116.78 103.70 116.41 C 104.01 115.88 104.63 114.81 104.94 114.27 C 112.18 114.97 120.35 114.93 126.40 110.32 C 128.70 108.53 128.61 105.37 128.33 102.76 Z" />
</g>
<g id="#bbd0f7ff">
<path fill="#bbd0f7" opacity="1.00" d=" M 131.03 105.03 C 134.15 100.29 139.49 105.29 143.81 104.54 C 145.07 104.81 146.31 105.16 147.53 105.60 C 146.42 105.93 145.32 106.27 144.23 106.62 C 142.55 107.14 140.90 107.71 139.23 108.23 C 137.35 108.39 135.47 108.44 133.59 108.52 C 132.71 107.37 131.86 106.21 131.03 105.03 Z" />
</g>
<g id="#23232cff">
<path fill="#23232c" opacity="1.00" d=" M 139.23 108.23 C 140.90 107.71 142.55 107.14 144.23 106.62 L 145.10 107.15 C 144.58 111.22 141.55 114.34 138.08 116.23 C 129.12 120.44 119.04 120.59 109.35 120.31 L 108.54 120.31 C 108.69 119.76 109.00 118.67 109.16 118.13 C 113.06 118.49 116.98 118.42 120.89 118.20 C 127.68 117.08 136.74 115.81 139.23 108.23 Z" />
</g>
<g id="#949cc4ff">
<path fill="#949cc4" opacity="1.00" d=" M 133.59 108.52 C 135.47 108.44 137.35 108.39 139.23 108.23 C 136.74 115.81 127.68 117.08 120.89 118.20 C 120.00 117.69 119.12 117.16 118.25 116.61 C 124.01 115.62 130.42 113.94 133.59 108.52 Z" />
</g>
<g id="#42649bff">
<path fill="#42649b" opacity="1.00" d=" M 88.28 118.72 C 88.42 118.34 88.70 117.59 88.84 117.21 C 92.60 118.40 96.45 119.26 100.29 120.15 C 100.80 122.16 103.83 121.62 104.05 123.79 C 101.49 124.02 98.92 124.15 96.35 124.13 C 97.63 124.95 98.89 125.80 100.05 126.78 C 97.70 126.11 94.98 126.26 93.82 128.78 C 89.64 136.13 84.79 143.52 83.65 152.08 C 87.13 154.11 91.20 153.79 94.96 152.85 C 97.01 157.06 100.11 163.66 94.72 166.75 C 95.10 164.11 96.63 160.88 94.18 158.78 C 91.81 156.30 88.10 157.08 85.31 158.30 C 85.04 161.81 84.47 165.29 83.52 168.68 C 84.45 169.20 85.38 169.72 86.31 170.24 C 83.03 170.97 79.74 172.09 76.37 172.05 C 76.01 171.85 75.29 171.47 74.93 171.27 C 75.70 169.29 77.13 167.35 76.95 165.15 C 75.97 163.09 73.19 161.23 74.58 158.71 C 75.79 155.59 79.32 154.81 82.01 153.47 C 80.77 153.34 79.54 153.21 78.31 153.08 C 77.18 152.62 76.05 152.17 74.91 151.73 C 76.06 143.21 77.84 134.59 81.97 126.97 C 84.55 122.72 89.93 122.41 94.10 120.68 C 92.17 119.99 90.23 119.34 88.28 118.72 Z" />
</g>
<g id="#314c84ff">
<path fill="#314c84" opacity="1.00" d=" M 151.57 128.54 C 155.97 126.41 160.80 124.67 165.78 125.15 C 166.87 125.78 167.23 127.17 167.98 128.14 C 167.98 127.35 167.98 125.78 167.98 125.00 C 169.49 129.17 170.37 133.55 171.08 137.92 C 171.08 141.92 170.16 145.82 169.51 149.74 C 166.70 150.27 163.92 150.97 161.12 151.54 C 159.35 150.97 156.61 150.49 157.12 147.96 C 157.01 141.57 164.78 137.83 163.23 131.33 C 163.87 131.79 164.51 132.24 165.16 132.69 C 164.97 130.83 164.96 127.32 162.11 128.14 C 156.67 129.85 151.45 132.73 145.58 132.64 C 145.11 132.11 144.66 131.56 144.25 130.98 C 144.51 130.63 145.03 129.93 145.29 129.58 C 147.42 129.56 149.64 129.60 151.57 128.54 Z" />
</g>
<g id="#304980ff">
<path fill="#304980" opacity="1.00" d=" M 93.82 128.78 C 94.98 126.26 97.70 126.11 100.05 126.78 C 101.07 127.92 102.05 129.09 103.05 130.24 C 98.00 136.63 94.60 144.58 94.96 152.85 C 91.20 153.79 87.13 154.11 83.65 152.08 C 84.79 143.52 89.64 136.13 93.82 128.78 Z" />
</g>
<g id="#39578eff">
<path fill="#39578e" opacity="1.00" d=" M 145.58 132.64 C 151.45 132.73 156.67 129.85 162.11 128.14 C 164.96 127.32 164.97 130.83 165.16 132.69 C 164.51 132.24 163.87 131.79 163.23 131.33 C 164.78 137.83 157.01 141.57 157.12 147.96 C 156.61 150.49 159.35 150.97 161.12 151.54 C 158.39 151.97 154.69 153.01 152.58 150.79 C 152.48 147.75 152.69 144.58 151.21 141.80 C 150.67 141.17 150.14 140.54 149.60 139.91 C 147.83 137.76 146.90 135.07 145.58 132.64 Z" />
</g>
<g id="#5c88beff">
<path fill="#5c88be" opacity="1.00" d=" M 149.60 139.91 C 150.14 140.54 150.67 141.17 151.21 141.80 C 150.44 144.94 148.68 148.19 149.79 151.47 C 150.68 154.08 150.23 156.86 150.62 159.54 C 151.43 162.23 154.05 163.56 156.30 164.89 C 155.48 164.92 153.84 164.97 153.02 165.00 C 151.02 164.64 149.15 163.81 147.35 162.92 L 147.34 162.75 C 146.44 159.58 146.43 156.28 147.61 153.17 C 147.25 152.76 146.53 151.93 146.17 151.52 C 148.32 148.02 148.96 143.90 149.60 139.91 Z" />
</g>
<g id="#476ca4ff">
<path fill="#476ca4" opacity="1.00" d=" M 151.21 141.80 C 152.69 144.58 152.48 147.75 152.58 150.79 C 154.69 153.01 158.39 151.97 161.12 151.54 C 163.92 150.97 166.70 150.27 169.51 149.74 C 175.10 153.29 182.83 154.53 186.25 160.88 C 187.61 163.17 188.47 167.26 185.14 168.26 C 174.40 170.15 163.39 167.85 153.02 165.00 C 153.84 164.97 155.48 164.92 156.30 164.89 C 154.05 163.56 151.43 162.23 150.62 159.54 C 150.23 156.86 150.68 154.08 149.79 151.47 C 148.68 148.19 150.44 144.94 151.21 141.80 Z" />
</g>
<g id="#6a9bd3ff">
<path fill="#6a9bd3" opacity="1.00" d=" M 73.62 151.86 L 74.91 151.73 C 76.05 152.17 77.18 152.62 78.31 153.08 C 76.01 153.83 73.69 154.50 71.34 155.06 C 72.15 154.02 72.94 152.98 73.62 151.86 Z" />
</g>
<g id="#4a71a9ff">
<path fill="#4a71a9" opacity="1.00" d=" M 78.31 153.08 C 79.54 153.21 80.77 153.34 82.01 153.47 C 79.32 154.81 75.79 155.59 74.58 158.71 C 73.19 161.23 75.97 163.09 76.95 165.15 C 77.13 167.35 75.70 169.29 74.93 171.27 C 72.41 170.93 69.86 170.82 67.33 170.61 C 64.54 167.40 65.94 163.16 64.74 159.48 L 64.68 159.29 C 66.93 157.93 68.89 156.04 71.34 155.06 C 73.69 154.50 76.01 153.83 78.31 153.08 Z" />
</g>
<g id="#38568eff">
<path fill="#38568e" opacity="1.00" d=" M 85.31 158.30 C 88.10 157.08 91.81 156.30 94.18 158.78 C 96.63 160.88 95.10 164.11 94.72 166.75 L 94.69 166.89 C 92.01 168.28 89.18 169.32 86.31 170.24 C 85.38 169.72 84.45 169.20 83.52 168.68 C 84.47 165.29 85.04 161.81 85.31 158.30 Z" />
</g>
<g id="#527fbaff">
<path fill="#527fba" opacity="1.00" d=" M 64.74 159.48 C 65.94 163.16 64.54 167.40 67.33 170.61 C 69.86 170.82 72.41 170.93 74.93 171.27 C 75.29 171.47 76.01 171.85 76.37 172.05 C 71.78 172.47 66.98 172.81 62.51 171.48 C 57.91 168.44 61.25 161.99 64.74 159.48 Z" />
</g>
</svg>
