<?xml version="1.0" encoding="UTF-8" ?>
<!DOCTYPE svg PUBLIC "-//W3C//DTD SVG 1.1//EN" "http://www.w3.org/Graphics/SVG/1.1/DTD/svg11.dtd">
<svg width="204pt" height="155pt" viewBox="0 0 204 155" version="1.1" xmlns="http://www.w3.org/2000/svg">
<g id="#e8c934fe">
<path fill="#e8c934" opacity="1.00" d=" M 107.26 13.28 C 108.37 13.12 111.51 12.09 111.15 14.11 C 109.75 16.59 107.87 18.75 105.98 20.86 C 102.91 22.33 100.47 24.78 98.23 27.29 C 96.96 30.10 101.31 30.69 102.05 32.97 C 105.04 38.39 105.00 46.30 98.96 49.50 C 93.31 52.40 85.73 56.77 87.12 64.23 C 87.09 64.90 87.05 66.25 87.02 66.92 C 86.73 67.15 86.14 67.62 85.84 67.86 C 85.10 67.88 83.62 67.93 82.88 67.95 C 83.22 59.91 89.18 53.69 93.20 47.21 C 97.07 41.45 96.10 34.49 94.43 28.22 C 95.99 25.56 98.31 23.46 100.00 20.89 C 100.23 19.88 100.41 18.85 100.42 17.80 C 101.89 15.89 105.17 14.94 107.26 13.28 Z" />
</g>
<g id="#b29125f4">
<path fill="#b29125" opacity="0.96" d=" M 111.15 14.11 L 111.95 13.91 C 112.74 20.00 113.34 26.15 112.93 32.29 C 112.23 32.40 111.54 32.38 110.85 32.24 L 110.89 31.16 C 111.02 27.06 111.04 22.97 110.95 18.87 C 109.42 19.13 108.27 20.18 107.06 21.05 L 105.98 20.86 C 107.87 18.75 109.75 16.59 111.15 14.11 Z" />
</g>
<g id="#f9df3afe">
<path fill="#f9df3a" opacity="1.00" d=" M 57.10 20.72 C 54.82 19.01 55.40 11.88 60.65 16.41 C 63.48 18.00 67.70 18.40 69.64 20.76 C 69.86 23.16 70.82 25.41 71.25 27.77 C 79.97 24.39 88.65 20.25 98.21 21.26 C 96.03 24.17 92.42 24.89 89.29 26.31 C 86.26 29.93 83.19 33.65 80.88 37.79 C 78.23 45.36 78.05 53.49 75.79 61.18 C 72.92 57.44 69.63 53.08 64.89 51.95 C 67.41 55.07 70.39 57.77 73.11 60.70 C 71.63 61.06 70.18 61.50 68.75 62.00 C 66.80 60.23 64.84 58.47 62.89 56.71 C 62.33 55.10 61.94 53.44 61.32 51.85 C 60.81 50.31 59.54 48.81 60.17 47.09 C 61.47 43.24 61.49 39.01 63.22 35.32 C 65.03 33.04 66.87 30.71 67.99 28.00 C 66.62 23.46 61.70 20.40 57.10 20.72 Z" />
</g>
<g id="#f7ed40fb">
<path fill="#f7ed40" opacity="1.00" d=" M 95.95 19.95 C 97.50 19.37 98.91 18.49 100.42 17.80 C 100.41 18.85 100.23 19.88 100.00 20.89 C 99.55 20.98 98.66 21.17 98.21 21.26 C 88.65 20.25 79.97 24.39 71.25 27.77 C 70.82 25.41 69.86 23.16 69.64 20.76 C 74.46 23.88 78.99 19.18 84.00 19.98 C 87.98 20.07 91.97 20.06 95.95 19.95 Z" />
</g>
<g id="#2f2f0c6f">
<path fill="#2f2f0c" opacity="0.44" d=" M 84.00 19.01 C 87.03 20.15 94.68 16.97 95.95 19.95 C 91.97 20.06 87.98 20.07 84.00 19.98 L 84.00 19.01 Z" />
</g>
<g id="#ba9452ff">
<path fill="#ba9452" opacity="1.00" d=" M 107.06 21.05 C 108.27 20.18 109.42 19.13 110.95 18.87 C 111.04 22.97 111.02 27.06 110.89 31.16 C 108.78 29.96 106.40 29.38 104.10 28.67 C 103.72 25.79 106.24 23.65 107.06 21.05 Z" />
</g>
<g id="#e8c937fd">
<path fill="#e8c937" opacity="1.00" d=" M 57.10 20.72 C 61.70 20.40 66.62 23.46 67.99 28.00 C 66.87 30.71 65.03 33.04 63.22 35.32 L 62.10 35.11 L 62.40 34.27 C 63.23 33.15 64.05 32.02 64.75 30.81 C 63.00 27.84 61.02 24.99 58.93 22.25 C 58.62 22.36 57.99 22.56 57.68 22.67 L 56.90 22.93 C 56.95 22.37 57.05 21.27 57.10 20.72 Z" />
</g>
<g id="#f2d438ff">
<path fill="#f2d438" opacity="1.00" d=" M 98.21 21.26 C 98.66 21.17 99.55 20.98 100.00 20.89 C 98.31 23.46 95.99 25.56 94.43 28.22 C 96.10 34.49 97.07 41.45 93.20 47.21 C 89.18 53.69 83.22 59.91 82.88 67.95 C 81.09 68.01 77.51 68.12 75.72 68.18 L 75.19 67.48 C 74.04 64.78 71.00 64.13 68.70 62.74 L 68.75 62.00 C 70.18 61.50 71.63 61.06 73.11 60.70 C 74.12 61.77 75.01 62.94 75.97 64.06 C 75.93 63.34 75.83 61.90 75.79 61.18 C 78.05 53.49 78.23 45.36 80.88 37.79 C 83.19 33.65 86.26 29.93 89.29 26.31 C 92.42 24.89 96.03 24.17 98.21 21.26 Z" />
</g>
<g id="#dcb72eff">
<path fill="#dcb72e" opacity="1.00" d=" M 98.23 27.29 C 100.47 24.78 102.91 22.33 105.98 20.86 C 104.32 23.56 102.60 26.21 101.03 28.96 C 104.26 30.16 107.53 31.32 110.85 32.24 C 111.54 32.38 112.23 32.40 112.93 32.29 C 114.07 33.60 114.27 35.41 114.91 36.97 C 111.30 34.85 111.40 39.10 110.83 41.96 C 108.22 53.04 95.91 57.50 90.81 66.92 C 89.55 66.93 88.28 66.93 87.02 66.92 C 87.05 66.25 87.09 64.90 87.12 64.23 C 89.68 58.40 93.83 53.56 99.72 50.77 C 99.53 50.45 99.15 49.82 98.96 49.50 C 105.00 46.30 105.04 38.39 102.05 32.97 C 101.31 30.69 96.96 30.10 98.23 27.29 Z" />
</g>
<g id="#8b6e2eff">
<path fill="#8b6e2e" opacity="1.00" d=" M 105.98 20.86 L 107.06 21.05 C 106.24 23.65 103.72 25.79 104.10 28.67 C 106.40 29.38 108.78 29.96 110.89 31.16 L 110.85 32.24 C 107.53 31.32 104.26 30.16 101.03 28.96 C 102.60 26.21 104.32 23.56 105.98 20.86 Z" />
</g>
<g id="#eedf77f7">
<path fill="#eedf77" opacity="0.97" d=" M 57.68 22.67 C 57.99 22.56 58.62 22.36 58.93 22.25 C 61.02 24.99 63.00 27.84 64.75 30.81 C 64.05 32.02 63.23 33.15 62.40 34.27 C 59.87 30.87 59.16 26.56 57.68 22.67 Z" />
</g>
<g id="#cea628fe">
<path fill="#cea628" opacity="1.00" d=" M 110.83 41.96 C 111.40 39.10 111.30 34.85 114.91 36.97 C 117.65 38.20 116.72 42.42 117.08 44.92 C 116.60 44.76 115.65 44.43 115.18 44.27 C 109.36 53.62 100.15 59.89 91.89 66.94 L 90.81 66.92 C 95.91 57.50 108.22 53.04 110.83 41.96 Z" />
</g>
<g id="#bc9022ff">
<path fill="#bc9022" opacity="1.00" d=" M 115.18 44.27 C 115.65 44.43 116.60 44.76 117.08 44.92 C 117.21 46.64 116.56 48.23 115.84 49.75 C 111.59 54.06 107.30 58.40 102.12 61.61 C 99.53 63.13 97.27 65.11 95.11 67.18 C 94.30 67.12 92.70 67.00 91.89 66.94 C 100.15 59.89 109.36 53.62 115.18 44.27 Z" />
</g>
<g id="#746314ff">
<path fill="#746314" opacity="1.00" d=" M 87.12 64.23 C 85.73 56.77 93.31 52.40 98.96 49.50 C 99.15 49.82 99.53 50.45 99.72 50.77 C 93.83 53.56 89.68 58.40 87.12 64.23 Z" />
</g>
<g id="#744f32fe">
<path fill="#744f32" opacity="1.00" d=" M 102.12 61.61 C 107.30 58.40 111.59 54.06 115.84 49.75 L 117.06 49.88 C 117.65 55.86 111.55 59.16 108.25 63.37 C 106.94 66.34 107.77 72.26 111.99 72.02 C 115.08 71.45 117.67 69.35 120.76 68.69 C 120.57 69.05 120.19 69.76 119.99 70.12 C 117.60 71.77 115.03 73.31 112.00 73.18 C 109.40 72.96 106.34 73.71 104.70 71.29 C 101.68 68.99 103.95 64.61 102.12 61.61 Z" />
</g>
<g id="#7b5b41fd">
<path fill="#7b5b41" opacity="1.00" d=" M 117.06 49.88 C 123.74 51.93 131.63 55.02 133.07 62.78 C 128.45 63.45 124.87 66.76 120.76 68.69 C 117.67 69.35 115.08 71.45 111.99 72.02 C 107.77 72.26 106.94 66.34 108.25 63.37 C 111.55 59.16 117.65 55.86 117.06 49.88 Z" />
</g>
<g id="#805f42fb">
<path fill="#805f42" opacity="1.00" d=" M 61.32 51.85 C 61.94 53.44 62.33 55.10 62.89 56.71 C 59.48 58.70 63.71 62.47 62.44 65.35 C 62.09 68.20 59.70 70.05 57.34 71.33 C 56.19 70.50 54.27 70.40 53.74 68.91 C 54.56 64.26 58.67 60.63 58.36 55.68 C 58.59 54.05 61.39 53.93 61.32 51.85 Z" />
</g>
<g id="#98831cff">
<path fill="#98831c" opacity="1.00" d=" M 64.89 51.95 C 69.63 53.08 72.92 57.44 75.79 61.18 C 75.83 61.90 75.93 63.34 75.97 64.06 C 75.01 62.94 74.12 61.77 73.11 60.70 C 70.39 57.77 67.41 55.07 64.89 51.95 Z" />
</g>
<g id="#8f6e4ff6">
<path fill="#8f6e4f" opacity="0.96" d=" M 51.26 63.29 C 52.97 60.26 55.35 57.46 58.36 55.68 C 58.67 60.63 54.56 64.26 53.74 68.91 C 51.04 69.61 49.34 65.28 51.26 63.29 Z" />
</g>
<g id="#78563afd">
<path fill="#78563a" opacity="1.00" d=" M 62.44 65.35 C 63.71 62.47 59.48 58.70 62.89 56.71 C 64.84 58.47 66.80 60.23 68.75 62.00 L 68.70 62.74 C 68.63 66.18 68.63 70.28 64.99 71.92 C 64.73 72.12 64.20 72.52 63.93 72.72 L 63.24 72.74 C 59.41 73.04 57.44 72.57 57.34 71.33 C 59.70 70.05 62.09 68.20 62.44 65.35 Z" />
</g>
<g id="#2c1d13ff">
<path fill="#2c1d13" opacity="1.00" d=" M 95.11 67.18 C 97.27 65.11 99.53 63.13 102.12 61.61 C 103.95 64.61 101.68 68.99 104.70 71.29 C 106.34 73.71 109.40 72.96 112.00 73.18 C 111.98 73.63 111.94 74.53 111.92 74.98 C 109.88 75.01 107.85 75.10 105.81 75.19 C 101.95 74.71 99.10 71.81 95.74 70.14 C 95.47 69.59 94.95 68.49 94.68 67.94 L 95.11 67.18 Z" />
</g>
<g id="#6a4529ff">
<path fill="#6a4529" opacity="1.00" d=" M 64.99 71.92 C 68.63 70.28 68.63 66.18 68.70 62.74 C 71.00 64.13 74.04 64.78 75.19 67.48 C 74.19 68.93 73.29 70.44 72.39 71.96 C 70.05 70.95 67.45 71.85 64.99 71.92 Z" />
</g>
<g id="#231912ea">
<path fill="#231912" opacity="0.92" d=" M 120.76 68.69 C 124.87 66.76 128.45 63.45 133.07 62.78 C 132.53 68.41 125.39 69.27 120.76 68.69 Z" />
</g>
<g id="#ceab66ff">
<path fill="#ceab66" opacity="1.00" d=" M 85.84 67.86 C 86.14 67.62 86.73 67.15 87.02 66.92 C 88.28 66.93 89.55 66.93 90.81 66.92 L 91.89 66.94 C 91.36 69.06 90.61 71.12 90.11 73.25 C 88.41 73.65 86.75 73.75 86.00 71.87 C 87.21 70.44 89.53 67.22 85.84 67.86 Z" />
</g>
<g id="#b48c50ff">
<path fill="#b48c50" opacity="1.00" d=" M 91.89 66.94 C 92.70 67.00 94.30 67.12 95.11 67.18 L 94.68 67.94 C 93.51 69.99 91.88 71.71 90.11 73.25 C 90.61 71.12 91.36 69.06 91.89 66.94 Z" />
</g>
<g id="#322114fc">
<path fill="#322114" opacity="1.00" d=" M 72.39 71.96 C 73.29 70.44 74.19 68.93 75.19 67.48 L 75.72 68.18 C 76.48 69.84 77.30 71.48 78.22 73.07 C 77.97 74.26 77.23 74.95 76.01 75.13 C 77.05 71.60 74.45 72.38 72.05 72.92 L 72.39 71.96 Z" />
</g>
<g id="#dfc57eff">
<path fill="#dfc57e" opacity="1.00" d=" M 75.72 68.18 C 77.51 68.12 81.09 68.01 82.88 67.95 C 83.62 67.93 85.10 67.88 85.84 67.86 C 89.53 67.22 87.21 70.44 86.00 71.87 C 84.87 73.23 83.87 74.91 82.01 75.31 C 81.11 73.99 79.77 73.32 78.22 73.07 C 77.30 71.48 76.48 69.84 75.72 68.18 Z" />
</g>
<g id="#775539fe">
<path fill="#775539" opacity="1.00" d=" M 90.11 73.25 C 91.88 71.71 93.51 69.99 94.68 67.94 C 94.95 68.49 95.47 69.59 95.74 70.14 C 98.07 74.07 102.16 76.77 104.13 81.01 C 96.41 80.93 88.76 79.50 81.02 79.93 C 81.19 80.24 81.52 80.86 81.69 81.17 L 82.09 81.94 C 80.05 82.02 78.06 82.43 76.11 83.01 C 76.20 80.38 74.72 77.62 76.01 75.13 C 77.23 74.95 77.97 74.26 78.22 73.07 C 79.77 73.32 81.11 73.99 82.01 75.31 C 84.58 77.61 88.20 75.23 90.11 73.25 Z" />
</g>
<g id="#664529ff">
<path fill="#664529" opacity="1.00" d=" M 95.74 70.14 C 99.10 71.81 101.95 74.71 105.81 75.19 C 109.03 76.21 109.37 79.20 109.20 82.17 C 109.00 82.53 108.60 83.26 108.40 83.62 L 107.65 83.91 C 106.14 83.33 104.54 83.04 102.93 82.82 C 100.95 82.44 98.96 82.06 96.94 81.90 C 96.51 81.85 95.65 81.76 95.22 81.71 C 90.75 80.93 86.21 80.96 81.69 81.17 C 81.52 80.86 81.19 80.24 81.02 79.93 C 88.76 79.50 96.41 80.93 104.13 81.01 C 102.16 76.77 98.07 74.07 95.74 70.14 Z" />
</g>
<g id="#ae771afb">
<path fill="#ae771a" opacity="1.00" d=" M 112.00 73.18 C 115.03 73.31 117.60 71.77 119.99 70.12 C 121.67 73.23 122.23 76.82 122.96 80.25 C 120.32 78.24 117.18 78.17 114.00 78.75 C 113.30 77.50 112.61 76.24 111.92 74.98 C 111.94 74.53 111.98 73.63 112.00 73.18 Z" />
</g>
<g id="#955e14f8">
<path fill="#955e14" opacity="0.97" d=" M 64.99 71.92 C 67.45 71.85 70.05 70.95 72.39 71.96 L 72.05 72.92 C 70.91 76.10 70.09 79.44 70.00 82.83 C 69.50 82.62 68.49 82.22 67.99 82.01 C 67.98 79.05 68.13 76.09 67.92 73.13 C 66.59 72.95 65.26 72.81 63.93 72.72 C 64.20 72.52 64.73 72.12 64.99 71.92 Z" />
</g>
<g id="#0e0b032a">
<path fill="#0e0b03" opacity="0.16" d=" M 72.05 72.92 C 74.45 72.38 77.05 71.60 76.01 75.13 C 74.72 77.62 76.20 80.38 76.11 83.01 C 74.87 87.49 76.32 91.92 77.79 96.14 C 77.31 96.14 76.33 96.15 75.85 96.16 C 74.79 94.51 73.87 92.78 72.97 91.05 C 73.58 87.60 73.13 84.49 70.00 82.83 C 70.09 79.44 70.91 76.10 72.05 72.92 Z" />
</g>
<g id="#a88750ff">
<path fill="#a88750" opacity="1.00" d=" M 82.01 75.31 C 83.87 74.91 84.87 73.23 86.00 71.87 C 86.75 73.75 88.41 73.65 90.11 73.25 C 88.20 75.23 84.58 77.61 82.01 75.31 Z" />
</g>
<g id="#ecd136fc">
<path fill="#ecd136" opacity="1.00" d=" M 186.28 73.35 C 187.87 72.93 189.48 72.60 191.07 72.16 C 191.14 75.14 190.08 78.02 188.66 80.60 C 181.56 87.48 178.14 98.50 168.18 102.13 C 167.23 100.94 166.17 99.83 165.08 98.77 C 163.30 96.87 161.54 94.90 159.18 93.71 L 158.98 93.05 C 169.32 88.36 177.97 80.90 186.28 73.35 Z" />
</g>
<g id="#b9821dfb">
<path fill="#b9821d" opacity="1.00" d=" M 63.24 72.74 L 63.93 72.72 C 65.26 72.81 66.59 72.95 67.92 73.13 C 68.13 76.09 67.98 79.05 67.99 82.01 C 65.71 81.78 63.44 81.52 61.18 81.23 C 61.34 78.32 62.37 75.51 63.24 72.74 Z" />
</g>
<g id="#5b3920f7">
<path fill="#5b3920" opacity="0.97" d=" M 105.81 75.19 C 107.85 75.10 109.88 75.01 111.92 74.98 C 112.61 76.24 113.30 77.50 114.00 78.75 L 114.07 79.59 L 113.31 80.02 C 111.94 80.74 110.59 81.50 109.20 82.17 C 109.37 79.20 109.03 76.21 105.81 75.19 Z" />
</g>
<g id="#c29522ff">
<path fill="#c29522" opacity="1.00" d=" M 114.00 78.75 C 117.18 78.17 120.32 78.24 122.96 80.25 C 122.53 82.61 122.71 84.86 123.49 87.01 C 123.64 87.72 123.94 89.14 124.09 89.85 C 120.16 88.71 116.54 94.01 114.85 96.99 C 114.35 97.92 113.82 98.83 113.32 99.76 C 112.07 101.37 110.63 102.87 109.84 104.78 C 108.95 106.16 108.11 107.64 106.77 108.63 C 104.50 108.30 102.13 108.88 100.81 110.89 C 99.80 110.64 98.82 110.32 97.86 109.95 C 101.43 107.99 105.39 106.30 107.98 102.97 C 110.16 99.80 112.00 96.39 114.46 93.42 C 116.78 90.83 120.42 89.22 121.69 85.80 C 121.49 83.76 119.90 82.00 118.16 81.02 C 116.86 80.38 115.46 79.99 114.07 79.59 L 114.00 78.75 Z" />
</g>
<g id="#f0cf36ff">
<path fill="#f0cf36" opacity="1.00" d=" M 109.20 82.17 C 110.59 81.50 111.94 80.74 113.31 80.02 C 113.52 87.21 109.03 93.64 105.57 99.61 C 103.79 101.77 102.57 104.79 99.69 105.66 C 95.39 107.60 90.52 106.04 86.04 106.02 C 85.78 105.57 85.26 104.68 85.00 104.23 C 85.20 103.91 85.61 103.26 85.81 102.94 C 95.73 104.76 105.61 96.31 107.04 86.83 C 107.64 85.82 108.62 84.89 108.40 83.62 C 108.60 83.26 109.00 82.53 109.20 82.17 Z" />
</g>
<g id="#e3bc2fff">
<path fill="#e3bc2f" opacity="1.00" d=" M 113.31 80.02 L 114.07 79.59 C 115.46 79.99 116.86 80.38 118.16 81.02 C 117.43 88.99 110.69 94.35 106.94 100.96 C 103.05 107.83 94.63 109.73 87.32 108.95 C 86.97 108.63 86.29 107.99 85.94 107.67 C 85.97 107.26 86.01 106.43 86.04 106.02 C 90.52 106.04 95.39 107.60 99.69 105.66 C 102.57 104.79 103.79 101.77 105.57 99.61 C 109.03 93.64 113.52 87.21 113.31 80.02 Z" />
</g>
<g id="#271c0573">
<path fill="#271c05" opacity="0.45" d=" M 122.96 80.25 C 125.19 80.97 124.35 85.22 123.49 87.01 C 122.71 84.86 122.53 82.61 122.96 80.25 Z" />
</g>
<g id="#f5cd32fc">
<path fill="#f5cd32" opacity="1.00" d=" M 61.18 81.23 C 63.44 81.52 65.71 81.78 67.99 82.01 C 68.49 82.22 69.50 82.62 70.00 82.83 C 73.13 84.49 73.58 87.60 72.97 91.05 C 69.02 86.32 61.86 89.92 57.69 86.22 C 58.80 84.51 60.54 83.22 61.18 81.23 Z" />
</g>
<g id="#b69622ff">
<path fill="#b69622" opacity="1.00" d=" M 81.69 81.17 C 86.21 80.96 90.75 80.93 95.22 81.71 C 90.84 81.84 86.46 81.96 82.09 81.94 L 81.69 81.17 Z" />
</g>
<g id="#d5aa29ff">
<path fill="#d5aa29" opacity="1.00" d=" M 118.16 81.02 C 119.90 82.00 121.49 83.76 121.69 85.80 C 120.42 89.22 116.78 90.83 114.46 93.42 C 112.00 96.39 110.16 99.80 107.98 102.97 C 105.39 106.30 101.43 107.99 97.86 109.95 C 98.82 110.32 99.80 110.64 100.81 110.89 C 101.80 112.89 101.86 115.00 100.97 117.04 C 99.40 117.11 97.82 117.09 96.27 116.82 C 95.42 114.89 94.87 112.84 93.88 110.98 C 91.73 111.46 92.22 114.23 91.73 115.87 C 90.51 115.95 89.29 115.97 88.07 115.93 C 87.76 115.65 87.13 115.08 86.82 114.79 L 86.90 114.04 C 86.98 113.39 87.15 112.09 87.24 111.44 C 87.34 110.61 87.37 109.79 87.32 108.95 C 94.63 109.73 103.05 107.83 106.94 100.96 C 110.69 94.35 117.43 88.99 118.16 81.02 Z" />
</g>
<g id="#c5a527f6">
<path fill="#c5a527" opacity="0.96" d=" M 168.18 102.13 C 178.14 98.50 181.56 87.48 188.66 80.60 C 189.02 83.54 186.72 86.10 185.68 88.71 C 181.59 95.46 177.22 102.60 170.73 107.28 C 169.83 105.59 168.98 103.87 168.18 102.13 Z" />
</g>
<g id="#e8c332fe">
<path fill="#e8c332" opacity="1.00" d=" M 76.11 83.01 C 78.06 82.43 80.05 82.02 82.09 81.94 C 86.46 81.96 90.84 81.84 95.22 81.71 C 95.65 81.76 96.51 81.85 96.94 81.90 C 96.25 84.99 95.73 88.12 95.19 91.24 C 91.13 95.15 83.24 97.25 85.00 104.23 C 83.75 100.54 79.52 99.50 77.79 96.14 C 76.32 91.92 74.87 87.49 76.11 83.01 Z" />
</g>
<g id="#dbb42eff">
<path fill="#dbb42e" opacity="1.00" d=" M 96.94 81.90 C 98.96 82.06 100.95 82.44 102.93 82.82 C 102.28 84.30 101.61 86.07 102.94 87.42 C 100.49 88.94 97.78 89.99 95.19 91.24 C 95.73 88.12 96.25 84.99 96.94 81.90 Z" />
</g>
<g id="#cb9e26ff">
<path fill="#cb9e26" opacity="1.00" d=" M 102.93 82.82 C 104.54 83.04 106.14 83.33 107.65 83.91 C 106.16 85.18 104.59 86.36 102.94 87.42 C 101.61 86.07 102.28 84.30 102.93 82.82 Z" />
</g>
<g id="#fdee3fff">
<path fill="#fdee3f" opacity="1.00" d=" M 107.65 83.91 L 108.40 83.62 C 108.62 84.89 107.64 85.82 107.04 86.83 C 102.96 88.55 99.97 92.06 96.03 94.06 C 92.28 96.48 87.31 98.30 85.81 102.94 C 85.61 103.26 85.20 103.91 85.00 104.23 C 83.24 97.25 91.13 95.15 95.19 91.24 C 97.78 89.99 100.49 88.94 102.94 87.42 C 104.59 86.36 106.16 85.18 107.65 83.91 Z" />
</g>
<g id="#fce73cfe">
<path fill="#fce73c" opacity="1.00" d=" M 58.31 94.95 C 56.39 92.88 53.93 87.02 57.69 86.22 C 61.86 89.92 69.02 86.32 72.97 91.05 C 73.87 92.78 74.79 94.51 75.85 96.16 C 76.35 97.01 76.83 97.86 77.31 98.73 C 70.30 99.92 62.90 100.22 56.96 104.89 C 56.59 104.65 55.84 104.18 55.47 103.94 C 55.64 103.23 55.98 101.80 56.16 101.09 C 56.29 98.85 59.49 96.89 58.31 94.95 Z" />
</g>
<g id="#fadb39ff">
<path fill="#fadb39" opacity="1.00" d=" M 96.03 94.06 C 99.97 92.06 102.96 88.55 107.04 86.83 C 105.61 96.31 95.73 104.76 85.81 102.94 C 87.31 98.30 92.28 96.48 96.03 94.06 Z" />
</g>
<g id="#b1871dfc">
<path fill="#b1871d" opacity="1.00" d=" M 114.85 96.99 C 116.54 94.01 120.16 88.71 124.09 89.85 C 123.66 91.10 124.94 93.93 123.03 94.05 C 120.72 94.38 118.72 95.67 116.77 96.85 C 116.29 96.89 115.33 96.95 114.85 96.99 Z" />
</g>
<g id="#7a5c12c0">
<path fill="#7a5c12" opacity="0.75" d=" M 116.77 96.85 C 118.72 95.67 120.72 94.38 123.03 94.05 L 123.35 95.32 C 121.24 96.15 119.07 96.92 116.77 96.85 Z" />
</g>
<g id="#e3aa26fd">
<path fill="#e3aa26" opacity="1.00" d=" M 123.35 95.32 C 125.98 94.58 128.70 93.64 131.19 95.34 C 129.64 95.49 126.53 95.80 124.98 95.96 C 122.39 96.39 125.82 97.38 126.79 97.17 C 127.58 97.87 128.39 98.56 129.22 99.23 C 125.13 102.22 118.29 99.22 116.02 105.03 C 113.64 107.41 112.62 110.54 113.02 113.82 C 112.16 113.51 111.29 113.22 110.42 112.93 L 110.33 112.22 C 110.43 107.79 115.06 104.10 113.32 99.76 C 113.82 98.83 114.35 97.92 114.85 96.99 C 115.33 96.95 116.29 96.89 116.77 96.85 C 119.07 96.92 121.24 96.15 123.35 95.32 Z" />
</g>
<g id="#806042fd">
<path fill="#806042" opacity="1.00" d=" M 149.89 98.85 C 152.63 96.62 155.82 94.82 159.18 93.71 C 161.54 94.90 163.30 96.87 165.08 98.77 C 165.58 101.07 167.07 102.93 168.02 105.04 C 166.54 107.07 164.10 108.26 162.20 109.87 C 161.41 109.23 161.19 106.45 159.93 107.80 L 159.31 108.19 C 159.04 107.57 158.52 106.31 158.25 105.69 C 158.18 105.29 158.03 104.50 157.95 104.11 C 157.75 101.62 155.50 98.95 152.88 99.05 C 152.13 99.00 150.63 98.90 149.89 98.85 Z" />
</g>
<g id="#d2a327fe">
<path fill="#d2a327" opacity="1.00" d=" M 58.31 94.95 C 59.49 96.89 56.29 98.85 56.16 101.09 C 54.86 101.78 53.00 101.97 52.72 103.70 C 50.98 109.08 47.06 113.28 43.55 117.57 C 41.42 119.02 41.12 115.46 40.15 114.22 C 42.18 109.87 43.87 105.35 46.19 101.14 C 48.74 99.13 52.76 100.10 54.98 98.07 C 55.78 96.72 56.98 95.75 58.31 94.95 Z" />
</g>
<g id="#ba8b19f7">
<path fill="#ba8b19" opacity="0.97" d=" M 131.19 95.34 C 134.22 95.14 134.32 101.85 132.14 102.02 L 132.02 101.16 C 132.36 98.23 129.10 97.28 126.79 97.17 C 125.82 97.38 122.39 96.39 124.98 95.96 C 126.53 95.80 129.64 95.49 131.19 95.34 Z" />
</g>
<g id="#d0a427ff">
<path fill="#d0a427" opacity="1.00" d=" M 75.85 96.16 C 76.33 96.15 77.31 96.14 77.79 96.14 C 79.52 99.50 83.75 100.54 85.00 104.23 C 85.26 104.68 85.78 105.57 86.04 106.02 C 86.01 106.43 85.97 107.26 85.94 107.67 C 85.26 108.74 84.61 109.82 83.94 110.91 C 80.83 109.20 77.89 112.17 75.00 113.11 L 74.02 113.00 C 74.15 111.27 74.41 109.57 74.67 107.86 C 73.42 107.99 72.09 108.09 71.16 109.05 C 71.79 110.35 72.53 111.60 73.14 112.92 C 73.10 113.66 73.04 115.15 73.01 115.89 C 70.71 115.98 68.43 116.31 66.22 116.96 C 65.90 116.67 65.27 116.09 64.95 115.80 C 64.88 113.79 67.09 109.52 63.44 111.27 C 62.70 113.81 61.16 116.84 57.98 116.11 L 57.72 115.24 C 58.15 113.14 57.08 109.50 60.09 109.14 C 66.56 107.38 75.39 107.51 79.09 100.86 C 78.52 100.13 77.93 99.42 77.31 98.73 C 76.83 97.86 76.35 97.01 75.85 96.16 Z" />
</g>
<g id="#d8b52bec">
<path fill="#d8b52b" opacity="0.93" d=" M 46.19 101.14 C 45.89 97.05 52.06 97.29 54.98 98.07 C 52.76 100.10 48.74 99.13 46.19 101.14 Z" />
</g>
<g id="#9c7011fe">
<path fill="#9c7011" opacity="1.00" d=" M 126.79 97.17 C 129.10 97.28 132.36 98.23 132.02 101.16 L 131.38 100.73 C 130.66 100.22 129.94 99.72 129.22 99.23 C 128.39 98.56 127.58 97.87 126.79 97.17 Z" />
</g>
<g id="#f0ce35ff">
<path fill="#f0ce35" opacity="1.00" d=" M 56.96 104.89 C 62.90 100.22 70.30 99.92 77.31 98.73 C 77.93 99.42 78.52 100.13 79.09 100.86 C 76.84 100.84 75.22 102.24 73.61 103.59 C 67.86 105.88 60.79 104.63 56.05 109.21 C 55.67 107.49 54.81 105.71 55.47 103.94 C 55.84 104.18 56.59 104.65 56.96 104.89 Z" />
</g>
<g id="#d3a528ff">
<path fill="#d3a528" opacity="1.00" d=" M 129.22 99.23 C 129.94 99.72 130.66 100.22 131.38 100.73 C 131.18 101.44 130.78 102.85 130.59 103.55 C 125.71 106.42 120.87 109.76 117.45 114.33 C 116.64 119.00 113.65 123.66 108.97 125.12 C 110.76 122.24 112.66 119.42 114.57 116.62 C 115.77 115.36 113.78 114.52 113.02 113.82 C 112.62 110.54 113.64 107.41 116.02 105.03 C 118.29 99.22 125.13 102.22 129.22 99.23 Z" />
</g>
<g id="#f6df3bfc">
<path fill="#f6df3b" opacity="1.00" d=" M 132.05 106.09 C 138.03 103.92 143.89 101.10 149.89 98.85 C 150.63 98.90 152.13 99.00 152.88 99.05 C 153.24 99.53 153.97 100.50 154.33 100.99 C 147.88 105.81 139.72 107.88 131.88 109.25 C 131.92 108.46 132.01 106.88 132.05 106.09 Z" />
</g>
<g id="#6c5724ff">
<path fill="#6c5724" opacity="1.00" d=" M 152.88 99.05 C 155.50 98.95 157.75 101.62 157.95 104.11 C 156.73 103.08 155.53 102.04 154.33 100.99 C 153.97 100.50 153.24 99.53 152.88 99.05 Z" />
</g>
<g id="#634727f6">
<path fill="#634727" opacity="0.96" d=" M 165.08 98.77 C 166.17 99.83 167.23 100.94 168.18 102.13 C 168.98 103.87 169.83 105.59 170.73 107.28 C 169.02 110.57 164.20 113.28 161.04 115.92 C 160.85 114.38 160.47 111.31 160.28 109.78 C 160.19 109.28 160.01 108.29 159.93 107.80 C 161.19 106.45 161.41 109.23 162.20 109.87 C 164.10 108.26 166.54 107.07 168.02 105.04 C 167.07 102.93 165.58 101.07 165.08 98.77 Z" />
</g>
<g id="#f5cb2eff">
<path fill="#f5cb2e" opacity="1.00" d=" M 113.32 99.76 C 115.06 104.10 110.43 107.79 110.33 112.22 C 110.08 111.89 109.59 111.23 109.34 110.90 C 109.58 108.86 109.80 106.83 109.84 104.78 C 110.63 102.87 112.07 101.37 113.32 99.76 Z" />
</g>
<g id="#dcbd2ff5">
<path fill="#dcbd2f" opacity="0.96" d=" M 16.71 105.73 C 19.89 101.28 26.95 99.20 31.18 103.45 C 30.15 103.47 29.12 103.39 28.09 103.29 C 23.34 101.91 21.10 107.58 17.86 110.01 C 16.93 109.51 16.11 108.83 15.13 108.45 C 11.87 110.28 7.59 111.41 5.66 114.86 C 4.25 115.48 1.12 114.49 2.62 112.67 C 4.22 106.66 11.10 104.31 16.71 105.73 Z" />
</g>
<g id="#dcc22fef">
<path fill="#dcc22f" opacity="0.94" d=" M 39.03 112.35 C 42.39 109.02 41.00 102.57 46.19 101.14 C 43.87 105.35 42.18 109.87 40.15 114.22 C 39.87 113.75 39.31 112.82 39.03 112.35 Z" />
</g>
<g id="#c19222fe">
<path fill="#c19222" opacity="1.00" d=" M 52.72 103.70 C 53.00 101.97 54.86 101.78 56.16 101.09 C 55.98 101.80 55.64 103.23 55.47 103.94 C 54.81 105.71 55.67 107.49 56.05 109.21 C 56.54 111.24 57.08 113.25 57.72 115.24 L 57.98 116.11 C 55.81 116.59 56.04 114.49 55.74 113.01 C 53.16 115.04 47.53 117.09 48.77 120.99 C 47.51 123.27 47.36 125.59 47.97 128.12 C 44.67 130.60 44.07 124.22 41.94 123.04 C 38.27 118.91 35.40 111.83 28.93 112.04 C 28.64 111.44 28.06 110.25 27.77 109.65 C 30.62 109.45 34.63 111.36 35.78 107.96 C 36.94 109.36 38.02 110.83 39.03 112.35 C 39.31 112.82 39.87 113.75 40.15 114.22 C 41.12 115.46 41.42 119.02 43.55 117.57 C 47.06 113.28 50.98 109.08 52.72 103.70 Z" />
</g>
<g id="#dfb82eff">
<path fill="#dfb82e" opacity="1.00" d=" M 73.61 103.59 C 75.22 102.24 76.84 100.84 79.09 100.86 C 75.39 107.51 66.56 107.38 60.09 109.14 C 57.08 109.50 58.15 113.14 57.72 115.24 C 57.08 113.25 56.54 111.24 56.05 109.21 C 60.79 104.63 67.86 105.88 73.61 103.59 Z" />
</g>
<g id="#c69b25fe">
<path fill="#c69b25" opacity="1.00" d=" M 131.38 100.73 L 132.02 101.16 L 132.14 102.02 C 132.14 103.37 132.11 104.73 132.05 106.09 C 132.01 106.88 131.92 108.46 131.88 109.25 L 131.79 110.29 L 131.22 109.75 C 130.82 106.07 126.94 109.21 125.36 110.39 C 121.85 112.61 114.82 117.03 118.91 121.81 C 118.24 123.18 117.68 124.61 116.80 125.87 C 113.75 125.98 110.74 126.04 107.70 126.14 C 108.02 125.88 108.65 125.38 108.97 125.12 C 113.65 123.66 116.64 119.00 117.45 114.33 C 120.87 109.76 125.71 106.42 130.59 103.55 C 130.78 102.85 131.18 101.44 131.38 100.73 Z" />
</g>
<g id="#f0cf35ff">
<path fill="#f0cf35" opacity="1.00" d=" M 154.33 100.99 C 155.53 102.04 156.73 103.08 157.95 104.11 C 158.03 104.50 158.18 105.29 158.25 105.69 C 152.39 108.13 146.57 111.23 140.02 111.15 C 137.23 111.17 133.62 113.15 131.79 110.29 L 131.88 109.25 C 139.72 107.88 147.88 105.81 154.33 100.99 Z" />
</g>
<g id="#cba026ff">
<path fill="#cba026" opacity="1.00" d=" M 17.86 110.01 C 21.10 107.58 23.34 101.91 28.09 103.29 C 25.97 105.08 23.88 106.90 21.81 108.75 C 23.30 108.97 26.28 109.43 27.77 109.65 C 28.06 110.25 28.64 111.44 28.93 112.04 C 25.59 110.02 21.65 110.06 17.86 110.01 Z" />
</g>
<g id="#b2841df8">
<path fill="#b2841d" opacity="0.97" d=" M 28.09 103.29 C 29.12 103.39 30.15 103.47 31.18 103.45 C 33.04 104.06 35.25 106.10 35.78 107.96 C 34.63 111.36 30.62 109.45 27.77 109.65 C 26.28 109.43 23.30 108.97 21.81 108.75 C 23.88 106.90 25.97 105.08 28.09 103.29 Z" />
</g>
<g id="#af821afe">
<path fill="#af821a" opacity="1.00" d=" M 106.77 108.63 C 108.11 107.64 108.95 106.16 109.84 104.78 C 109.80 106.83 109.58 108.86 109.34 110.90 C 107.72 116.02 101.71 118.57 96.79 119.37 C 95.96 121.77 94.05 123.54 92.74 125.67 L 92.12 126.01 C 91.73 125.00 91.37 123.99 91.03 122.98 C 92.42 120.28 91.84 117.57 88.29 117.90 C 88.23 117.41 88.13 116.43 88.07 115.93 C 89.29 115.97 90.51 115.95 91.73 115.87 C 92.22 114.23 91.73 111.46 93.88 110.98 C 94.87 112.84 95.42 114.89 96.27 116.82 C 97.82 117.09 99.40 117.11 100.97 117.04 C 104.06 116.34 103.70 111.64 100.81 110.89 C 102.13 108.88 104.50 108.30 106.77 108.63 Z" />
</g>
<g id="#e3c031ff">
<path fill="#e3c031" opacity="1.00" d=" M 140.02 111.15 C 146.57 111.23 152.39 108.13 158.25 105.69 C 158.52 106.31 159.04 107.57 159.31 108.19 C 152.71 113.57 144.12 114.40 135.99 115.03 C 133.66 115.33 131.74 113.79 129.79 112.81 C 130.25 111.78 130.73 110.76 131.22 109.75 L 131.79 110.29 C 133.62 113.15 137.23 111.17 140.02 111.15 Z" />
</g>
<g id="#c8a227f8">
<path fill="#c8a227" opacity="0.97" d=" M 15.13 108.45 C 16.11 108.83 16.93 109.51 17.86 110.01 C 17.82 112.08 18.75 115.11 15.96 115.65 C 12.57 114.49 9.16 114.60 5.66 114.86 C 7.59 111.41 11.87 110.28 15.13 108.45 Z" />
</g>
<g id="#bc8c20ff">
<path fill="#bc8c20" opacity="1.00" d=" M 71.16 109.05 C 72.09 108.09 73.42 107.99 74.67 107.86 C 74.41 109.57 74.15 111.27 74.02 113.00 L 73.14 112.92 C 72.53 111.60 71.79 110.35 71.16 109.05 Z" />
</g>
<g id="#bf8e20ff">
<path fill="#bf8e20" opacity="1.00" d=" M 83.94 110.91 C 84.61 109.82 85.26 108.74 85.94 107.67 C 86.29 107.99 86.97 108.63 87.32 108.95 C 87.37 109.79 87.34 110.61 87.24 111.44 C 86.11 111.47 84.97 111.41 83.94 110.91 Z" />
</g>
<g id="#bb9121fc">
<path fill="#bb9121" opacity="1.00" d=" M 125.36 110.39 C 126.94 109.21 130.82 106.07 131.22 109.75 C 130.73 110.76 130.25 111.78 129.79 112.81 C 129.04 113.49 128.29 114.18 127.54 114.87 C 125.87 115.60 124.26 116.48 122.75 117.49 C 121.80 118.03 120.87 118.60 119.95 119.20 C 124.77 122.79 130.12 125.82 136.40 125.46 C 147.70 123.88 138.27 124.69 139.68 127.29 C 136.65 129.36 130.68 130.77 126.64 131.97 C 125.32 128.50 122.63 125.99 119.88 123.61 C 119.64 123.16 119.15 122.26 118.91 121.81 C 114.82 117.03 121.85 112.61 125.36 110.39 Z" />
</g>
<g id="#d7b22cff">
<path fill="#d7b22c" opacity="1.00" d=" M 159.31 108.19 L 159.93 107.80 C 160.01 108.29 160.19 109.28 160.28 109.78 C 160.14 110.25 159.86 111.21 159.72 111.68 C 150.39 116.80 136.73 123.40 127.54 114.87 C 128.29 114.18 129.04 113.49 129.79 112.81 C 131.74 113.79 133.66 115.33 135.99 115.03 C 144.12 114.40 152.71 113.57 159.31 108.19 Z" />
</g>
<g id="#dfbd30fc">
<path fill="#dfbd30" opacity="1.00" d=" M 17.86 110.01 C 21.65 110.06 25.59 110.02 28.93 112.04 C 34.79 118.94 40.07 126.28 45.69 133.37 L 46.00 137.99 C 48.30 142.66 42.37 143.97 42.95 148.05 C 42.99 150.74 34.51 148.19 40.46 144.32 C 40.43 142.91 40.38 140.08 40.36 138.66 C 34.92 130.52 26.02 125.69 19.77 118.23 C 18.69 117.11 17.51 116.06 15.96 115.65 C 18.75 115.11 17.82 112.08 17.86 110.01 Z" />
</g>
<g id="#8e690bfd">
<path fill="#8e690b" opacity="1.00" d=" M 75.00 113.11 C 77.89 112.17 80.83 109.20 83.94 110.91 C 84.97 111.41 86.11 111.47 87.24 111.44 C 87.15 112.09 86.98 113.39 86.90 114.04 C 85.95 113.71 85.01 113.37 84.06 113.03 C 81.40 111.78 78.57 113.65 75.88 114.01 L 74.73 113.91 L 75.00 113.11 Z" />
</g>
<g id="#cba327ff">
<path fill="#cba327" opacity="1.00" d=" M 160.28 109.78 C 160.47 111.31 160.85 114.38 161.04 115.92 C 160.55 116.14 159.58 116.59 159.09 116.81 C 157.97 116.52 156.77 115.90 155.71 116.70 C 148.97 120.00 141.69 123.01 134.08 122.92 C 130.03 121.75 126.47 119.40 122.75 117.49 C 124.26 116.48 125.87 115.60 127.54 114.87 C 136.73 123.40 150.39 116.80 159.72 111.68 C 159.86 111.21 160.14 110.25 160.28 109.78 Z" />
</g>
<g id="#ae841bf7">
<path fill="#ae841b" opacity="0.97" d=" M 63.44 111.27 C 67.09 109.52 64.88 113.79 64.95 115.80 C 61.91 118.17 62.63 123.32 61.86 127.09 C 59.07 125.29 57.08 122.42 56.76 119.07 C 53.92 118.56 51.39 120.20 48.77 120.99 C 47.53 117.09 53.16 115.04 55.74 113.01 C 56.04 114.49 55.81 116.59 57.98 116.11 C 61.16 116.84 62.70 113.81 63.44 111.27 Z" />
</g>
<g id="#c49723ff">
<path fill="#c49723" opacity="1.00" d=" M 100.81 110.89 C 103.70 111.64 104.06 116.34 100.97 117.04 C 101.86 115.00 101.80 112.89 100.81 110.89 Z" />
</g>
<g id="#fbe238ff">
<path fill="#fbe238" opacity="1.00" d=" M 109.34 110.90 C 109.59 111.23 110.08 111.89 110.33 112.22 L 110.42 112.93 C 110.25 116.21 106.68 118.35 106.76 121.88 C 102.71 121.30 99.71 124.03 96.40 125.77 C 96.02 123.31 94.08 125.23 92.74 125.67 C 94.05 123.54 95.96 121.77 96.79 119.37 C 101.71 118.57 107.72 116.02 109.34 110.90 Z" />
</g>
<g id="#cba127fd">
<path fill="#cba127" opacity="1.00" d=" M 28.93 112.04 C 35.40 111.83 38.27 118.91 41.94 123.04 C 44.07 124.22 44.67 130.60 47.97 128.12 C 48.75 128.91 49.09 129.86 49.01 130.98 C 49.02 133.65 49.02 136.33 49.00 139.02 C 48.50 142.71 46.36 146.36 42.95 148.05 C 42.37 143.97 48.30 142.66 46.00 137.99 L 45.69 133.37 C 40.07 126.28 34.79 118.94 28.93 112.04 Z" />
</g>
<g id="#c49a24f6">
<path fill="#c49a24" opacity="0.96" d=" M 75.88 114.01 C 78.57 113.65 81.40 111.78 84.06 113.03 C 83.77 114.35 83.49 115.69 83.09 116.99 C 80.49 118.76 80.80 124.37 77.14 124.01 C 77.59 120.54 75.90 117.40 75.88 114.01 Z" />
</g>
<g id="#3b2c098e">
<path fill="#3b2c09" opacity="0.56" d=" M 73.14 112.92 L 74.02 113.00 L 75.00 113.11 L 74.73 113.91 C 72.56 115.84 75.66 122.05 72.99 123.02 C 73.01 121.34 73.00 119.67 72.98 117.99 C 72.99 117.47 73.00 116.42 73.01 115.89 C 73.04 115.15 73.10 113.66 73.14 112.92 Z" />
</g>
<g id="#b1841bfa">
<path fill="#b1841b" opacity="0.98" d=" M 84.06 113.03 C 85.01 113.37 85.95 113.71 86.90 114.04 L 86.82 114.79 C 85.48 116.34 86.88 118.25 87.19 119.92 C 86.98 122.35 83.34 118.33 83.09 116.99 C 83.49 115.69 83.77 114.35 84.06 113.03 Z" />
</g>
<g id="#e6b92dff">
<path fill="#e6b92d" opacity="1.00" d=" M 110.42 112.93 C 111.29 113.22 112.16 113.51 113.02 113.82 C 113.78 114.52 115.77 115.36 114.57 116.62 C 112.66 119.42 110.76 122.24 108.97 125.12 C 108.65 125.38 108.02 125.88 107.70 126.14 C 106.44 125.23 107.17 123.22 106.76 121.88 C 106.68 118.35 110.25 116.21 110.42 112.93 Z" />
</g>
<g id="#795c12c8">
<path fill="#795c12" opacity="0.78" d=" M 87.19 119.92 C 86.88 118.25 85.48 116.34 86.82 114.79 C 87.13 115.08 87.76 115.65 88.07 115.93 C 88.13 116.43 88.23 117.41 88.29 117.90 C 88.16 118.39 87.89 119.36 87.75 119.84 L 87.19 119.92 Z" />
</g>
<g id="#8b6c0ef4">
<path fill="#8b6c0e" opacity="0.96" d=" M 66.22 116.96 C 68.43 116.31 70.71 115.98 73.01 115.89 C 73.00 116.42 72.99 117.47 72.98 117.99 C 70.97 118.00 68.96 118.00 66.95 117.99 L 65.92 117.94 L 66.22 116.96 Z" />
</g>
<g id="#c09924fb">
<path fill="#c09924" opacity="1.00" d=" M 155.71 116.70 C 156.77 115.90 157.97 116.52 159.09 116.81 C 153.58 121.22 146.89 125.80 139.68 127.29 C 138.27 124.69 147.70 123.88 136.40 125.46 C 130.12 125.82 124.77 122.79 119.95 119.20 C 120.87 118.60 121.80 118.03 122.75 117.49 C 126.47 119.40 130.03 121.75 134.08 122.92 C 141.69 123.01 148.97 120.00 155.71 116.70 Z" />
</g>
<g id="#c59b25f8">
<path fill="#c59b25" opacity="0.97" d=" M 66.95 117.99 C 68.96 118.00 70.97 118.00 72.98 117.99 C 73.00 119.67 73.01 121.34 72.99 123.02 C 72.70 124.57 72.49 127.69 70.19 126.89 C 69.11 123.94 66.95 121.23 66.95 117.99 Z" />
</g>
<g id="#cea829f8">
<path fill="#cea829" opacity="0.97" d=" M 88.29 117.90 C 91.84 117.57 92.42 120.28 91.03 122.98 C 89.60 122.51 88.36 121.20 87.75 119.84 C 87.89 119.36 88.16 118.39 88.29 117.90 Z" />
</g>
<g id="#ebc833fd">
<path fill="#ebc833" opacity="1.00" d=" M 96.40 125.77 C 99.71 124.03 102.71 121.30 106.76 121.88 C 107.17 123.22 106.44 125.23 107.70 126.14 C 110.53 128.32 114.31 128.83 117.79 128.87 C 119.53 127.63 119.61 125.52 119.88 123.61 C 122.63 125.99 125.32 128.50 126.64 131.97 C 127.20 133.26 127.87 134.53 128.14 135.93 C 124.77 136.50 122.08 139.67 122.77 143.11 C 118.52 143.83 118.38 139.30 118.97 136.00 L 118.90 135.04 C 113.26 134.93 107.63 134.91 101.99 134.99 C 94.79 132.34 90.47 140.42 84.00 140.00 C 83.47 134.19 88.57 129.87 92.12 126.01 L 92.74 125.67 C 94.08 125.23 96.02 123.31 96.40 125.77 Z" />
</g>
<g id="#e0b82eff">
<path fill="#e0b82e" opacity="1.00" d=" M 116.80 125.87 C 117.68 124.61 118.24 123.18 118.91 121.81 C 119.15 122.26 119.64 123.16 119.88 123.61 C 119.61 125.52 119.53 127.63 117.79 128.87 C 114.31 128.83 110.53 128.32 107.70 126.14 C 110.74 126.04 113.75 125.98 116.80 125.87 Z" />
</g>
<g id="#0f0b0349">
<path fill="#0f0b03" opacity="0.29" d=" M 49.01 130.98 C 51.22 131.91 49.54 136.57 49.95 138.97 L 49.00 139.02 C 49.02 136.33 49.02 133.65 49.01 130.98 Z" />
</g>
<g id="#6d5e18ae">
<path fill="#6d5e18" opacity="0.68" d=" M 101.99 134.99 C 107.63 134.91 113.26 134.93 118.90 135.04 L 118.97 136.00 C 113.31 136.06 107.66 136.08 102.01 135.97 L 101.99 134.99 Z" />
</g>
<g id="#bd9a28f0">
<path fill="#bd9a28" opacity="0.94" d=" M 122.77 143.11 C 122.08 139.67 124.77 136.50 128.14 135.93 C 127.64 138.97 125.54 141.82 122.77 143.11 Z" />
</g>
</svg>
