<?xml version="1.0" encoding="UTF-8" ?>
<!DOCTYPE svg PUBLIC "-//W3C//DTD SVG 1.1//EN" "http://www.w3.org/Graphics/SVG/1.1/DTD/svg11.dtd">
<svg width="165pt" height="168pt" viewBox="0 0 165 168" version="1.1" xmlns="http://www.w3.org/2000/svg">
<g id="#f2cc33ff">
<path fill="#f2cc33" opacity="1.00" d=" M 68.02 2.95 C 73.75 6.03 77.76 11.48 82.93 15.37 L 82.86 15.54 C 81.86 18.29 80.42 21.26 77.08 21.44 C 75.39 17.58 74.06 12.24 69.26 11.31 C 68.78 9.86 68.66 8.30 68.13 6.86 C 67.39 5.45 67.35 4.14 68.02 2.95 Z" />
</g>
<g id="#d4ae28ff">
<path fill="#d4ae28" opacity="1.00" d=" M 118.96 5.13 C 119.83 4.60 120.76 4.28 121.74 4.19 C 122.22 6.56 121.01 9.15 120.59 11.55 L 120.37 11.67 C 119.19 12.30 117.71 12.67 117.15 14.03 C 115.49 17.10 113.02 19.73 111.78 23.00 C 112.03 24.75 112.51 26.44 112.94 28.15 C 111.54 28.91 110.01 28.87 108.52 28.41 C 108.44 28.14 108.28 27.61 108.20 27.34 L 109.49 27.02 C 108.36 25.80 106.98 24.85 105.74 23.76 C 107.94 19.78 111.83 17.13 114.29 13.35 L 113.35 12.64 C 114.14 10.98 115.36 9.60 117.18 9.06 C 118.96 8.80 118.68 6.87 118.90 5.56 L 118.96 5.13 Z" />
</g>
<g id="#eac631ff">
<path fill="#eac631" opacity="1.00" d=" M 98.78 19.89 C 105.38 15.00 111.53 9.23 118.90 5.56 C 118.68 6.87 118.96 8.80 117.18 9.06 C 115.36 9.60 114.14 10.98 113.35 12.64 C 110.25 16.58 106.49 19.96 103.69 24.13 C 105.14 25.27 106.71 26.24 108.20 27.34 C 108.28 27.61 108.44 28.14 108.52 28.41 C 108.86 30.14 109.33 31.87 109.28 33.64 C 107.77 37.84 104.10 41.01 99.62 41.46 C 95.95 43.31 93.11 46.45 90.00 49.10 C 87.13 51.42 86.58 55.28 86.26 58.73 C 83.86 61.08 86.05 64.19 85.32 66.99 C 82.91 67.44 84.45 69.75 85.99 70.16 L 86.24 71.31 C 85.76 71.42 84.81 71.62 84.34 71.73 C 83.19 71.36 81.51 71.36 81.04 70.01 C 81.40 69.11 81.77 68.20 82.14 67.30 C 81.62 67.47 80.57 67.81 80.04 67.98 C 79.38 65.98 78.79 63.96 78.25 61.93 C 77.98 58.86 76.70 55.63 74.72 53.17 C 75.39 52.68 76.73 51.71 77.40 51.22 C 78.58 51.85 79.74 52.52 81.02 52.94 L 81.24 52.00 C 80.77 50.85 80.02 49.87 79.22 48.93 L 79.30 48.54 C 79.59 47.93 80.17 46.72 80.46 46.11 C 82.99 44.93 85.52 45.39 88.04 46.30 C 88.05 44.94 88.07 43.57 88.11 42.20 C 88.98 41.35 89.94 40.59 90.93 39.88 C 92.61 40.86 94.26 39.41 95.61 38.53 C 97.80 36.82 99.87 34.89 101.48 32.62 C 102.81 29.68 101.13 26.70 100.15 23.95 C 100.85 22.62 101.84 21.47 102.69 20.23 C 101.39 20.09 100.08 19.97 98.78 19.89 M 81.12 53.70 C 81.15 56.69 79.47 60.54 81.69 63.00 C 81.95 60.01 83.07 56.27 81.12 53.70 Z" />
</g>
<g id="#47431174">
<path fill="#474311" opacity="0.45" d=" M 68.13 6.86 C 68.66 8.30 68.78 9.86 69.26 11.31 C 69.73 12.51 69.99 13.76 70.04 15.06 C 68.79 12.55 68.72 9.58 68.13 6.86 Z" />
</g>
<g id="#f7cf34ff">
<path fill="#f7cf34" opacity="1.00" d=" M 69.26 11.31 C 74.06 12.24 75.39 17.58 77.08 21.44 C 76.64 21.86 76.48 22.41 76.61 23.09 C 74.25 22.68 73.05 20.68 72.02 18.74 C 71.99 20.15 71.95 21.57 71.91 22.98 C 71.24 20.35 70.75 17.68 70.04 15.06 C 69.99 13.76 69.73 12.51 69.26 11.31 Z" />
</g>
<g id="#bd9121ff">
<path fill="#bd9121" opacity="1.00" d=" M 117.15 14.03 C 117.71 12.67 119.19 12.30 120.37 11.67 C 119.23 16.96 117.33 22.14 115.50 27.24 C 114.86 27.47 113.58 27.92 112.94 28.15 C 112.51 26.44 112.03 24.75 111.78 23.00 C 113.02 19.73 115.49 17.10 117.15 14.03 Z" />
</g>
<g id="#a57813ff">
<path fill="#a57813" opacity="1.00" d=" M 113.35 12.64 L 114.29 13.35 C 111.83 17.13 107.94 19.78 105.74 23.76 C 106.98 24.85 108.36 25.80 109.49 27.02 L 108.20 27.34 C 106.71 26.24 105.14 25.27 103.69 24.13 C 106.49 19.96 110.25 16.58 113.35 12.64 Z" />
<path fill="#a57813" opacity="1.00" d=" M 87.30 100.07 C 87.51 97.67 88.75 95.50 89.84 93.40 C 91.25 93.68 92.79 94.03 93.38 95.51 C 93.93 94.97 94.48 94.45 95.05 93.93 C 95.74 93.97 97.13 94.06 97.83 94.10 C 97.95 94.79 98.19 96.16 98.31 96.85 C 98.93 94.22 101.34 92.90 103.85 94.16 C 104.43 96.25 102.96 98.09 102.56 100.06 C 104.29 103.44 104.92 107.39 102.88 110.81 C 102.22 110.96 100.89 111.24 100.23 111.39 C 99.64 111.00 98.46 110.22 97.88 109.84 C 97.53 107.94 99.67 105.49 98.41 104.05 C 98.01 106.38 97.72 108.75 96.92 111.00 C 95.62 111.11 94.34 110.97 93.10 110.58 C 92.39 108.11 92.74 105.50 92.49 102.96 C 92.32 105.27 92.37 107.58 92.11 109.88 C 89.93 110.08 87.76 110.46 85.95 111.78 C 85.49 112.05 84.56 112.58 84.10 112.85 L 83.12 113.31 C 82.55 113.17 81.43 112.90 80.87 112.77 C 81.78 109.94 84.34 108.11 86.08 105.81 C 86.59 107.05 87.15 108.27 87.84 109.42 C 88.33 106.28 87.58 103.18 87.30 100.07 M 89.09 108.99 C 91.93 109.68 90.96 105.75 90.80 104.08 C 89.04 101.10 90.33 97.86 91.63 95.00 C 86.57 97.63 89.69 104.48 89.09 108.99 M 92.99 100.06 C 94.13 103.34 94.90 106.61 94.09 110.11 C 96.96 109.17 96.63 104.84 95.47 102.62 C 93.76 100.12 96.17 97.61 96.00 95.03 C 94.30 96.16 93.90 98.35 92.99 100.06 M 98.81 99.98 C 98.87 101.81 100.12 103.29 100.61 105.01 C 100.48 106.75 99.51 108.45 100.02 110.21 C 101.70 110.02 101.86 108.27 102.11 106.96 C 102.78 104.52 100.91 102.37 100.87 99.99 C 101.04 98.31 101.61 96.72 101.82 95.05 C 100.12 96.16 99.32 98.10 98.81 99.98 M 91.17 99.24 C 90.35 100.54 90.56 101.33 91.81 101.62 C 92.60 100.33 92.39 99.53 91.17 99.24 Z" />
</g>
<g id="#fff03bff">
<path fill="#fff03b" opacity="1.00" d=" M 77.08 21.44 C 80.42 21.26 81.86 18.29 82.86 15.54 C 84.35 16.94 85.84 18.33 87.29 19.77 C 90.00 20.20 92.80 19.56 95.53 20.03 C 91.76 22.36 85.76 19.81 83.36 24.33 C 80.44 28.68 76.22 32.05 73.70 36.70 C 72.77 38.30 73.33 40.19 73.60 41.89 C 73.92 43.31 73.72 44.97 74.86 46.07 C 75.09 46.91 75.32 47.75 75.56 48.59 L 75.89 49.86 C 76.27 50.20 77.02 50.88 77.40 51.22 C 76.73 51.71 75.39 52.68 74.72 53.17 C 72.93 51.06 70.85 49.25 68.79 47.43 C 66.54 44.08 68.11 39.78 68.89 36.17 C 70.53 34.00 71.06 31.06 72.94 28.97 C 72.98 26.92 72.26 24.97 71.91 22.98 C 71.95 21.57 71.99 20.15 72.02 18.74 C 73.05 20.68 74.25 22.68 76.61 23.09 C 76.48 22.41 76.64 21.86 77.08 21.44 Z" />
<path fill="#fff03b" opacity="1.00" d=" M 36.39 150.70 C 40.98 147.79 46.79 149.51 51.86 148.38 L 51.39 149.51 C 46.38 149.65 41.41 150.70 36.39 150.70 Z" />
</g>
<g id="#f8d735ff">
<path fill="#f8d735" opacity="1.00" d=" M 95.53 20.03 C 96.61 20.12 97.70 20.08 98.78 19.89 C 100.08 19.97 101.39 20.09 102.69 20.23 C 101.84 21.47 100.85 22.62 100.15 23.95 C 101.13 26.70 102.81 29.68 101.48 32.62 C 99.87 34.89 97.80 36.82 95.61 38.53 C 94.26 39.41 92.61 40.86 90.93 39.88 C 90.57 37.92 88.25 38.00 86.86 37.09 C 86.07 36.20 85.47 35.15 84.63 34.30 C 83.27 36.72 80.73 37.56 78.54 38.93 C 80.13 41.05 80.69 43.48 80.46 46.11 C 80.17 46.72 79.59 47.93 79.30 48.54 C 78.71 47.74 78.14 46.93 77.59 46.10 C 76.74 45.06 76.10 43.90 75.66 42.63 C 75.53 41.56 74.25 40.39 73.60 41.89 C 73.33 40.19 72.77 38.30 73.70 36.70 C 76.22 32.05 80.44 28.68 83.36 24.33 C 85.76 19.81 91.76 22.36 95.53 20.03 Z" />
</g>
<g id="#ddd9caff">
<path fill="#ddd9ca" opacity="1.00" d=" M 14.02 21.57 C 15.53 21.62 16.79 20.56 18.30 20.80 C 17.74 23.85 18.46 28.47 15.00 29.93 C 12.68 29.57 13.27 26.61 12.53 24.96 C 11.11 28.81 9.57 32.82 9.69 36.98 C 8.32 31.75 9.51 25.13 14.02 21.57 Z" />
</g>
<g id="#a8a89dff">
<path fill="#a8a89d" opacity="1.00" d=" M 18.30 20.80 C 19.41 21.38 20.54 21.91 21.69 22.39 L 21.49 22.98 C 19.94 27.11 18.59 31.42 15.96 35.01 C 14.69 35.95 12.90 35.80 11.47 36.46 C 11.13 36.94 10.44 37.88 10.09 38.36 L 9.69 36.98 C 9.57 32.82 11.11 28.81 12.53 24.96 C 13.27 26.61 12.68 29.57 15.00 29.93 C 18.46 28.47 17.74 23.85 18.30 20.80 Z" />
</g>
<g id="#787975ff">
<path fill="#787975" opacity="1.00" d=" M 21.49 22.98 L 22.07 22.73 L 22.49 23.80 C 23.47 31.68 17.39 37.83 12.98 43.58 C 11.69 42.03 10.79 40.24 10.09 38.36 C 10.44 37.88 11.13 36.94 11.47 36.46 C 12.90 35.80 14.69 35.95 15.96 35.01 C 18.59 31.42 19.94 27.11 21.49 22.98 Z" />
<path fill="#787975" opacity="1.00" d=" M 12.33 79.94 C 13.06 80.02 14.53 80.18 15.27 80.26 C 15.26 80.96 15.26 82.35 15.25 83.05 C 14.64 83.96 13.91 84.77 13.05 85.47 C 10.53 83.96 12.76 81.87 12.33 79.94 Z" />
</g>
<g id="#464a4eff">
<path fill="#464a4e" opacity="1.00" d=" M 22.49 23.80 C 26.61 28.65 25.59 36.25 22.50 41.41 C 21.75 43.94 18.17 44.85 18.47 47.73 C 17.26 47.28 16.03 46.84 14.78 46.52 L 14.58 46.46 C 14.16 45.44 13.58 44.51 12.98 43.58 C 17.39 37.83 23.47 31.68 22.49 23.80 Z" />
<path fill="#464a4e" opacity="1.00" d=" M 15.27 80.26 C 15.69 80.25 16.52 80.22 16.94 80.20 C 17.23 81.50 17.45 82.81 17.59 84.13 C 16.87 86.22 14.75 85.79 13.05 85.47 C 13.91 84.77 14.64 83.96 15.25 83.05 C 15.26 82.35 15.26 80.96 15.27 80.26 Z" />
</g>
<g id="#dfb92dff">
<path fill="#dfb92d" opacity="1.00" d=" M 112.94 28.15 C 113.58 27.92 114.86 27.47 115.50 27.24 C 115.26 28.77 114.23 30.11 114.22 31.67 C 115.21 33.43 116.32 35.13 117.34 36.88 C 114.50 40.78 111.63 45.00 107.06 47.01 C 104.11 48.18 101.22 50.69 97.89 50.10 L 97.97 49.24 C 98.16 48.87 98.53 48.11 98.72 47.73 C 100.35 46.00 99.63 43.58 99.62 41.46 C 104.10 41.01 107.77 37.84 109.28 33.64 C 109.33 31.87 108.86 30.14 108.52 28.41 C 110.01 28.87 111.54 28.91 112.94 28.15 Z" />
</g>
<g id="#a89765d5">
<path fill="#a89765" opacity="0.84" d=" M 138.14 29.44 C 139.27 29.44 139.98 29.94 140.27 30.95 C 139.96 31.21 139.34 31.74 139.03 32.00 C 137.94 31.53 137.65 30.67 138.14 29.44 Z" />
</g>
<g id="#bc8f20ff">
<path fill="#bc8f20" opacity="1.00" d=" M 140.27 30.95 C 144.18 31.98 144.61 36.80 145.82 40.06 C 147.30 39.92 148.77 39.89 150.25 39.95 C 149.12 40.16 148.01 40.40 146.90 40.68 C 146.18 43.47 147.20 46.47 146.73 49.35 C 146.56 50.92 146.39 52.49 146.28 54.06 C 145.36 53.48 144.42 52.92 143.54 52.29 C 142.93 49.47 144.28 46.00 142.05 43.73 C 141.70 46.22 141.49 48.72 141.20 51.21 C 141.88 46.73 140.19 42.52 139.68 38.16 C 139.40 36.28 138.11 34.63 138.27 32.64 L 139.03 32.00 C 139.34 31.74 139.96 31.21 140.27 30.95 Z" />
</g>
<g id="#9e6e17ff">
<path fill="#9e6e17" opacity="1.00" d=" M 84.63 34.30 C 85.47 35.15 86.07 36.20 86.86 37.09 C 88.25 38.00 90.57 37.92 90.93 39.88 C 89.94 40.59 88.98 41.35 88.11 42.20 C 88.07 43.57 88.05 44.94 88.04 46.30 C 85.52 45.39 82.99 44.93 80.46 46.11 C 80.69 43.48 80.13 41.05 78.54 38.93 C 80.73 37.56 83.27 36.72 84.63 34.30 M 84.25 36.47 C 83.63 38.44 81.77 38.78 79.97 38.77 C 80.17 39.81 80.74 40.71 81.65 41.47 C 81.59 42.26 81.48 43.85 81.42 44.65 C 83.26 43.83 85.06 44.24 86.86 44.86 C 86.79 44.16 86.65 42.75 86.58 42.05 C 87.12 40.83 88.70 40.49 89.16 39.21 C 88.42 39.06 86.95 38.77 86.21 38.62 C 85.65 37.70 85.00 36.98 84.25 36.47 Z" />
<path fill="#9e6e17" opacity="1.00" d=" M 23.68 65.72 C 24.85 65.10 26.07 64.58 27.31 64.13 C 27.90 65.26 28.30 66.48 28.78 67.66 C 29.30 70.14 32.33 72.64 30.13 75.07 C 28.62 76.05 26.76 76.13 25.04 76.49 C 24.82 76.36 24.37 76.12 24.15 76.00 C 23.84 75.46 23.23 74.38 22.93 73.84 C 22.88 73.58 22.78 73.05 22.73 72.79 C 23.62 71.34 24.80 69.96 24.92 68.17 C 24.87 67.69 24.75 66.72 24.70 66.23 L 23.68 65.72 M 25.98 68.06 C 25.54 69.68 26.12 70.22 27.72 69.66 C 28.21 68.02 27.63 67.48 25.98 68.06 Z" />
</g>
<g id="#7b5b41ff">
<path fill="#7b5b41" opacity="1.00" d=" M 58.10 37.08 C 61.68 36.93 65.52 34.32 68.89 36.17 C 68.11 39.78 66.54 44.08 68.79 47.43 C 67.74 51.21 66.66 55.09 64.42 58.35 C 62.89 60.36 60.31 62.05 57.70 61.28 C 54.86 60.08 53.76 63.40 52.40 65.14 C 50.93 63.97 48.97 63.20 48.18 61.38 C 49.23 60.07 50.02 58.58 50.73 57.07 C 47.32 54.37 43.85 51.80 39.89 49.94 C 39.89 47.00 40.06 44.06 40.81 41.21 L 40.83 41.36 C 40.91 41.94 41.08 43.10 41.16 43.67 C 45.68 42.64 50.58 42.17 54.37 39.24 C 51.25 38.79 48.10 39.17 44.97 38.87 C 49.40 38.48 54.13 39.68 58.10 37.08 Z" />
</g>
<g id="#e2bf80ff">
<path fill="#e2bf80" opacity="1.00" d=" M 155.03 36.06 L 155.62 35.95 C 158.24 37.24 155.16 39.98 154.78 36.89 L 155.03 36.06 Z" />
</g>
<g id="#7e6046ff">
<path fill="#7e6046" opacity="1.00" d=" M 155.62 35.95 C 157.28 36.62 159.23 37.04 160.11 38.78 C 158.80 39.13 157.48 39.42 156.13 39.58 L 154.69 39.72 C 154.64 42.51 154.69 45.35 154.08 48.10 C 154.00 46.76 153.90 45.43 153.78 44.10 C 152.54 46.87 150.19 50.03 146.73 49.35 C 147.20 46.47 146.18 43.47 146.90 40.68 C 148.01 40.40 149.12 40.16 150.25 39.95 C 151.59 39.97 152.93 39.99 154.27 40.00 C 153.97 38.72 154.14 37.68 154.78 36.89 C 155.16 39.98 158.24 37.24 155.62 35.95 Z" />
</g>
<g id="#f0ab7cff">
<path fill="#f0ab7c" opacity="1.00" d=" M 84.25 36.47 C 85.00 36.98 85.65 37.70 86.21 38.62 C 86.95 38.77 88.42 39.06 89.16 39.21 C 88.70 40.49 87.12 40.83 86.58 42.05 C 86.65 42.75 86.79 44.16 86.86 44.86 C 85.06 44.24 83.26 43.83 81.42 44.65 C 81.48 43.85 81.59 42.26 81.65 41.47 C 80.74 40.71 80.17 39.81 79.97 38.77 C 81.77 38.78 83.63 38.44 84.25 36.47 Z" />
</g>
<g id="#cea526ff">
<path fill="#cea526" opacity="1.00" d=" M 117.34 36.88 C 118.23 38.48 119.59 39.86 120.01 41.69 C 119.78 42.74 119.73 43.97 118.66 44.55 C 114.69 47.54 110.05 49.43 105.66 51.69 C 104.47 52.22 103.77 53.35 102.99 54.32 C 101.77 54.97 100.57 55.62 99.36 56.27 C 95.29 56.12 90.24 58.33 89.69 62.81 C 88.99 65.25 88.48 67.73 88.01 70.22 C 87.57 70.49 86.68 71.04 86.24 71.31 L 85.99 70.16 C 86.18 69.01 85.96 67.95 85.32 66.99 C 86.05 64.19 83.86 61.08 86.26 58.73 C 86.29 59.59 86.34 61.32 86.37 62.19 C 86.89 59.84 87.13 57.43 87.68 55.09 C 87.51 52.86 90.27 51.86 91.89 53.29 C 92.17 52.98 92.73 52.38 93.01 52.07 L 93.45 51.84 C 95.12 52.28 96.57 50.96 97.89 50.10 C 101.22 50.69 104.11 48.18 107.06 47.01 C 111.63 45.00 114.50 40.78 117.34 36.88 Z" />
</g>
<g id="#7e5e44ff">
<path fill="#7e5e44" opacity="1.00" d=" M 120.68 41.65 C 122.89 39.74 125.34 38.01 128.17 37.14 C 131.40 38.09 135.59 40.45 138.66 38.18 C 138.91 38.18 139.42 38.16 139.68 38.16 C 140.19 42.52 141.88 46.73 141.20 51.21 C 141.21 53.56 139.73 55.70 137.94 57.10 C 135.01 57.74 132.62 55.62 130.46 53.99 C 129.39 53.13 128.46 52.04 127.16 51.54 L 126.26 51.99 C 126.05 52.63 125.62 53.90 125.40 54.53 L 124.77 53.36 C 124.73 52.75 124.56 52.19 124.25 51.69 C 123.06 50.25 121.60 49.10 120.14 47.96 C 121.52 46.07 121.22 43.78 120.68 41.65 Z" />
</g>
<g id="#aa835efe">
<path fill="#aa835e" opacity="1.00" d=" M 128.17 37.14 C 131.63 35.61 135.16 37.91 138.66 38.18 C 135.59 40.45 131.40 38.09 128.17 37.14 Z" />
<path fill="#aa835e" opacity="1.00" d=" M 40.83 41.36 C 41.93 40.16 43.44 39.30 44.97 38.87 C 48.10 39.17 51.25 38.79 54.37 39.24 C 50.58 42.17 45.68 42.64 41.16 43.67 C 41.08 43.10 40.91 41.94 40.83 41.36 Z" />
</g>
<g id="#b4881efd">
<path fill="#b4881e" opacity="1.00" d=" M 156.13 39.58 C 157.48 39.42 158.80 39.13 160.11 38.78 C 160.89 43.82 160.24 49.06 157.39 53.37 C 155.66 48.98 156.68 44.16 156.13 39.58 Z" />
</g>
<g id="#c79b24ff">
<path fill="#c79b24" opacity="1.00" d=" M 154.69 39.72 L 156.13 39.58 C 156.68 44.16 155.66 48.98 157.39 53.37 C 154.96 57.81 155.47 63.09 153.08 67.58 C 152.91 67.62 152.56 67.70 152.39 67.74 C 152.21 67.36 151.86 66.59 151.68 66.21 C 148.88 67.87 144.03 69.96 145.00 73.89 C 148.59 75.12 149.90 70.37 151.99 68.41 C 154.37 71.30 156.51 75.37 160.62 75.83 L 161.47 75.33 C 161.70 75.89 162.17 77.02 162.40 77.58 C 162.09 77.90 161.48 78.54 161.17 78.85 C 158.04 77.01 154.03 75.93 152.89 72.05 C 150.56 73.61 148.48 75.50 146.13 77.03 C 145.78 77.12 145.08 77.29 144.72 77.38 C 146.25 79.48 148.72 80.96 149.50 83.54 C 150.94 88.09 152.68 92.54 154.26 97.03 C 154.31 100.39 153.97 103.75 153.92 107.11 C 153.27 105.96 152.58 104.84 151.91 103.71 C 152.13 100.64 153.28 97.26 151.40 94.46 C 146.94 89.63 141.26 85.80 138.07 79.91 C 136.09 76.44 133.71 73.24 131.42 69.98 C 131.86 69.65 132.76 69.00 133.20 68.67 C 136.82 68.82 139.35 71.79 141.78 74.13 C 141.61 72.68 141.54 71.23 141.34 69.79 C 139.36 68.03 136.93 66.75 135.35 64.56 C 132.64 60.58 127.52 59.75 123.91 56.89 C 124.01 55.68 124.30 54.50 124.77 53.36 L 125.40 54.53 C 125.58 54.84 125.95 55.47 126.13 55.78 C 127.60 55.26 129.02 54.59 130.46 53.99 C 132.62 55.62 135.01 57.74 137.94 57.10 C 139.73 55.70 141.21 53.56 141.20 51.21 C 141.49 48.72 141.70 46.22 142.05 43.73 C 144.28 46.00 142.93 49.47 143.54 52.29 C 144.42 52.92 145.36 53.48 146.28 54.06 C 147.06 54.67 147.89 55.17 148.79 55.57 C 150.47 55.86 152.29 54.48 152.37 52.70 C 152.96 51.18 153.62 49.67 154.08 48.10 C 154.69 45.35 154.64 42.51 154.69 39.72 Z" />
</g>
<g id="#b4a12dff">
<path fill="#b4a12d" opacity="1.00" d=" M 73.60 41.89 C 74.25 40.39 75.53 41.56 75.66 42.63 C 75.25 43.74 74.98 44.88 74.86 46.07 C 73.72 44.97 73.92 43.31 73.60 41.89 Z" />
</g>
<g id="#b1851efc">
<path fill="#b1851e" opacity="1.00" d=" M 120.01 41.69 L 120.68 41.65 C 121.22 43.78 121.52 46.07 120.14 47.96 C 118.66 48.45 117.19 48.96 115.74 49.52 C 111.44 50.99 107.28 52.83 102.99 54.32 C 103.77 53.35 104.47 52.22 105.66 51.69 C 110.05 49.43 114.69 47.54 118.66 44.55 C 119.73 43.97 119.78 42.74 120.01 41.69 Z" />
</g>
<g id="#583621ff">
<path fill="#583621" opacity="1.00" d=" M 90.00 49.10 C 93.11 46.45 95.95 43.31 99.62 41.46 C 99.63 43.58 100.35 46.00 98.72 47.73 C 98.51 46.20 98.41 44.66 98.41 43.11 C 96.59 44.36 94.78 45.69 93.32 47.36 C 93.73 48.71 92.68 49.76 91.99 50.75 L 91.47 48.81 C 90.36 49.74 89.35 50.78 88.76 52.12 C 90.25 51.58 91.67 51.57 93.01 52.07 C 92.73 52.38 92.17 52.98 91.89 53.29 C 90.27 51.86 87.51 52.86 87.68 55.09 C 87.13 57.43 86.89 59.84 86.37 62.19 C 86.34 61.32 86.29 59.59 86.26 58.73 C 86.58 55.28 87.13 51.42 90.00 49.10 Z" />
<path fill="#583621" opacity="1.00" d=" M 75.56 48.59 C 77.02 50.33 79.11 51.32 81.24 52.00 L 81.02 52.94 C 79.74 52.52 78.58 51.85 77.40 51.22 C 77.02 50.88 76.27 50.20 75.89 49.86 L 75.56 48.59 Z" />
<path fill="#583621" opacity="1.00" d=" M 93.45 51.84 C 94.22 50.22 96.32 49.54 97.97 49.24 L 97.89 50.10 C 96.57 50.96 95.12 52.28 93.45 51.84 Z" />
<path fill="#583621" opacity="1.00" d=" M 102.99 54.32 C 107.28 52.83 111.44 50.99 115.74 49.52 C 116.52 54.95 116.37 62.13 122.06 64.99 C 125.16 67.06 128.89 66.70 132.37 66.11 C 132.67 66.95 132.93 67.81 133.20 68.67 C 132.76 69.00 131.86 69.65 131.42 69.98 C 130.18 70.28 128.95 70.61 127.76 71.03 C 127.21 74.87 127.42 78.76 127.13 82.62 C 125.52 83.78 123.88 84.89 122.22 85.98 C 119.47 87.32 118.58 90.45 116.87 92.75 L 116.32 91.80 C 115.09 89.05 114.13 86.18 112.64 83.55 C 114.10 83.12 115.61 82.77 116.92 81.96 C 115.32 79.15 113.61 76.37 112.92 73.16 C 112.10 68.19 106.32 65.61 101.75 66.79 C 99.83 65.28 98.11 63.05 95.76 62.39 C 95.60 61.84 95.27 60.74 95.11 60.19 C 96.34 58.70 97.81 57.43 99.36 56.27 C 100.57 55.62 101.77 54.97 102.99 54.32 Z" />
</g>
<g id="#deded1ff">
<path fill="#deded1" opacity="1.00" d=" M 74.86 46.07 C 74.98 44.88 75.25 43.74 75.66 42.63 C 76.10 43.90 76.74 45.06 77.59 46.10 C 77.63 46.66 77.72 47.76 77.77 48.31 C 78.13 48.46 78.86 48.77 79.22 48.93 C 80.02 49.87 80.77 50.85 81.24 52.00 C 79.11 51.32 77.02 50.33 75.56 48.59 C 75.32 47.75 75.09 46.91 74.86 46.07 Z" />
<path fill="#deded1" opacity="1.00" d=" M 93.32 47.36 C 94.78 45.69 96.59 44.36 98.41 43.11 C 98.41 44.66 98.51 46.20 98.72 47.73 C 98.53 48.11 98.16 48.87 97.97 49.24 C 96.32 49.54 94.22 50.22 93.45 51.84 L 93.01 52.07 C 91.67 51.57 90.25 51.58 88.76 52.12 C 89.35 50.78 90.36 49.74 91.47 48.81 L 91.99 50.75 C 92.68 49.76 93.73 48.71 93.32 47.36 Z" />
</g>
<g id="#705034ff">
<path fill="#705034" opacity="1.00" d=" M 146.73 49.35 C 150.19 50.03 152.54 46.87 153.78 44.10 C 153.90 45.43 154.00 46.76 154.08 48.10 C 153.62 49.67 152.96 51.18 152.37 52.70 C 150.79 52.40 148.77 53.90 148.79 55.57 C 147.89 55.17 147.06 54.67 146.28 54.06 C 146.39 52.49 146.56 50.92 146.73 49.35 Z" />
</g>
<g id="#6c6555fc">
<path fill="#6c6555" opacity="1.00" d=" M 14.78 46.52 C 16.03 46.84 17.26 47.28 18.47 47.73 L 18.22 48.60 L 18.94 49.02 L 19.06 49.10 C 16.97 51.92 17.95 55.70 17.43 58.98 C 16.75 59.89 16.61 60.90 17.00 62.00 C 17.02 62.64 17.08 63.92 17.11 64.56 L 15.95 64.43 C 15.61 59.78 16.85 54.90 15.06 50.44 C 15.17 49.12 15.07 47.82 14.78 46.52 Z" />
</g>
<g id="#d1baa3ff">
<path fill="#d1baa3" opacity="1.00" d=" M 18.47 47.73 L 19.23 48.13 L 18.94 49.02 L 18.22 48.60 L 18.47 47.73 Z" />
</g>
<g id="#603e28ff">
<path fill="#603e28" opacity="1.00" d=" M 64.42 58.35 C 66.66 55.09 67.74 51.21 68.79 47.43 C 70.85 49.25 72.93 51.06 74.72 53.17 C 76.70 55.63 77.98 58.86 78.25 61.93 C 76.88 62.94 75.50 63.93 74.16 64.98 C 75.51 63.32 77.78 62.17 77.73 59.69 C 75.42 59.21 73.91 61.06 72.33 62.29 C 70.40 63.97 68.29 65.49 66.93 67.70 C 64.22 67.17 62.03 65.61 59.97 63.89 C 58.26 64.79 57.36 66.97 55.90 68.32 L 54.95 67.62 C 54.37 67.01 53.78 66.42 53.17 65.85 L 52.40 65.14 C 53.76 63.40 54.86 60.08 57.70 61.28 C 60.31 62.05 62.89 60.36 64.42 58.35 Z" />
</g>
<g id="#68462fff">
<path fill="#68462f" opacity="1.00" d=" M 115.74 49.52 C 117.19 48.96 118.66 48.45 120.14 47.96 C 121.60 49.10 123.06 50.25 124.25 51.69 C 123.48 51.62 121.93 51.47 121.16 51.39 C 121.85 52.47 122.63 53.48 123.36 54.53 C 123.72 54.24 124.42 53.65 124.77 53.36 C 124.30 54.50 124.01 55.68 123.91 56.89 C 127.52 59.75 132.64 60.58 135.35 64.56 C 136.93 66.75 139.36 68.03 141.34 69.79 C 141.54 71.23 141.61 72.68 141.78 74.13 C 139.35 71.79 136.82 68.82 133.20 68.67 C 132.93 67.81 132.67 66.95 132.37 66.11 C 128.89 66.70 125.16 67.06 122.06 64.99 C 116.37 62.13 116.52 54.95 115.74 49.52 Z" />
</g>
<g id="#d8a726ff">
<path fill="#d8a726" opacity="1.00" d=" M 17.43 58.98 C 17.95 55.70 16.97 51.92 19.06 49.10 C 19.91 49.81 20.66 50.63 21.30 51.53 C 17.03 52.46 20.86 58.33 17.94 59.79 L 17.43 58.98 Z" />
</g>
<g id="#898673fd">
<path fill="#898673" opacity="1.00" d=" M 15.06 50.44 C 16.85 54.90 15.61 59.78 15.95 64.43 L 14.96 64.28 L 14.06 63.93 C 14.11 63.43 14.21 62.44 14.26 61.94 C 15.23 58.20 14.63 54.26 15.06 50.44 Z" />
</g>
<g id="#eedeaeff">
<path fill="#eedeae" opacity="1.00" d=" M 121.16 51.39 C 121.93 51.47 123.48 51.62 124.25 51.69 C 124.56 52.19 124.73 52.75 124.77 53.36 C 124.42 53.65 123.72 54.24 123.36 54.53 C 122.63 53.48 121.85 52.47 121.16 51.39 Z" />
<path fill="#eedeae" opacity="1.00" d=" M 154.21 157.98 C 155.14 158.30 156.02 158.72 156.85 159.27 L 157.26 160.01 C 157.44 161.32 157.11 162.41 156.27 163.26 C 154.91 162.78 153.63 162.13 152.45 161.33 C 152.16 161.33 151.57 161.33 151.28 161.34 C 151.46 161.06 151.81 160.49 151.99 160.21 C 152.96 159.65 153.70 158.91 154.21 157.98 Z" />
</g>
<g id="#bd9120ff">
<path fill="#bd9120" opacity="1.00" d=" M 17.94 59.79 C 20.86 58.33 17.03 52.46 21.30 51.53 C 21.22 53.33 21.51 55.11 21.35 56.91 C 22.35 60.08 25.83 61.43 27.31 64.13 C 26.07 64.58 24.85 65.10 23.68 65.72 C 20.73 65.68 17.78 65.17 14.96 64.28 L 15.95 64.43 L 17.11 64.56 C 17.08 63.92 17.02 62.64 17.00 62.00 C 19.15 62.62 18.90 61.13 17.94 59.79 Z" />
</g>
<g id="#deb630ff">
<path fill="#deb630" opacity="1.00" d=" M 126.26 51.99 L 127.16 51.54 C 128.46 52.04 129.39 53.13 130.46 53.99 C 129.02 54.59 127.60 55.26 126.13 55.78 C 125.95 55.47 125.58 54.84 125.40 54.53 C 125.62 53.90 126.05 52.63 126.26 51.99 Z" />
</g>
<g id="#2c210d71">
<path fill="#2c210d" opacity="0.44" d=" M 148.79 55.57 C 148.77 53.90 150.79 52.40 152.37 52.70 C 152.29 54.48 150.47 55.86 148.79 55.57 Z" />
</g>
<g id="#c2a220ff">
<path fill="#c2a220" opacity="1.00" d=" M 81.12 53.70 C 83.07 56.27 81.95 60.01 81.69 63.00 C 79.47 60.54 81.15 56.69 81.12 53.70 Z" />
</g>
<g id="#b6871fff">
<path fill="#b6871f" opacity="1.00" d=" M 89.69 62.81 C 90.24 58.33 95.29 56.12 99.36 56.27 C 97.81 57.43 96.34 58.70 95.11 60.19 C 95.27 60.74 95.60 61.84 95.76 62.39 C 94.97 62.46 94.18 62.52 93.39 62.57 C 93.56 62.73 93.90 63.03 94.07 63.19 C 91.43 64.97 90.39 68.17 88.01 70.22 C 88.48 67.73 88.99 65.25 89.69 62.81 Z" />
</g>
<g id="#31280d84">
<path fill="#31280d" opacity="0.52" d=" M 17.00 62.00 C 16.61 60.90 16.75 59.89 17.43 58.98 L 17.94 59.79 C 18.90 61.13 19.15 62.62 17.00 62.00 Z" />
</g>
<g id="#d2a526ff">
<path fill="#d2a526" opacity="1.00" d=" M 48.72 63.52 C 48.46 62.82 48.28 62.11 48.18 61.38 C 48.97 63.20 50.93 63.97 52.40 65.14 L 53.17 65.85 C 51.04 68.83 48.49 71.49 46.62 74.65 C 45.61 76.12 44.79 77.95 43.07 78.71 C 40.50 77.37 36.82 75.99 36.50 72.68 C 37.83 73.42 38.87 74.56 40.15 75.35 C 43.46 71.74 46.33 67.79 48.72 63.52 Z" />
</g>
<g id="#b3883eff">
<path fill="#b3883e" opacity="1.00" d=" M 72.33 62.29 C 73.91 61.06 75.42 59.21 77.73 59.69 C 77.78 62.17 75.51 63.32 74.16 64.98 C 73.12 66.04 71.82 67.00 71.55 68.55 C 69.69 71.06 68.05 73.91 66.97 76.93 C 65.48 78.31 64.89 80.73 65.00 82.72 C 64.63 84.13 64.30 85.55 63.85 86.95 C 62.92 88.36 62.77 90.06 62.97 91.71 C 62.70 97.19 62.15 102.72 62.79 108.19 C 60.99 102.55 62.79 96.27 60.54 90.62 C 63.21 83.31 63.92 75.20 68.86 68.90 C 70.02 66.74 72.76 64.99 72.33 62.29 Z" />
<path fill="#b3883e" opacity="1.00" d=" M 111.95 89.84 C 114.38 91.18 114.42 94.29 116.20 96.07 C 116.28 94.65 116.32 93.22 116.32 91.80 L 116.87 92.75 C 116.96 94.11 117.04 95.48 117.14 96.84 C 115.37 100.52 114.27 104.46 113.41 108.44 C 112.95 108.63 112.04 109.01 111.58 109.19 C 112.90 105.29 112.62 101.12 112.58 97.06 C 112.67 94.60 111.07 92.29 111.95 89.84 Z" />
</g>
<g id="#e0b92dff">
<path fill="#e0b92d" opacity="1.00" d=" M 8.46 66.33 C 8.31 63.48 12.01 61.69 14.26 61.94 C 14.21 62.44 14.11 63.43 14.06 63.93 L 14.96 64.28 C 17.78 65.17 20.73 65.68 23.68 65.72 L 24.70 66.23 C 24.75 66.72 24.87 67.69 24.92 68.17 C 21.95 68.45 18.97 68.79 16.09 69.62 C 15.61 69.76 14.65 70.05 14.17 70.19 C 13.56 71.57 13.41 72.95 13.74 74.34 C 14.56 74.31 16.21 74.24 17.03 74.21 C 18.99 74.07 20.96 73.97 22.93 73.84 C 23.23 74.38 23.84 75.46 24.15 76.00 C 20.34 77.61 15.45 77.10 12.33 79.94 C 11.08 79.85 9.89 79.47 8.75 78.79 C 6.69 74.35 13.12 73.52 12.90 69.43 C 11.01 69.16 9.55 67.81 8.46 66.33 Z" />
</g>
<g id="#725138ff">
<path fill="#725138" opacity="1.00" d=" M 74.16 64.98 C 75.50 63.93 76.88 62.94 78.25 61.93 C 78.79 63.96 79.38 65.98 80.04 67.98 C 80.57 67.81 81.62 67.47 82.14 67.30 C 81.77 68.20 81.40 69.11 81.04 70.01 C 81.51 71.36 83.19 71.36 84.34 71.73 C 89.56 74.38 95.90 74.72 101.48 73.05 C 103.03 75.86 104.36 78.82 105.34 81.88 C 102.20 84.60 97.89 83.93 94.06 84.28 C 89.03 84.41 84.34 87.18 79.23 86.21 C 78.84 87.19 78.47 88.17 78.12 89.15 C 78.27 88.34 78.57 86.71 78.72 85.90 C 76.44 84.07 72.73 83.11 72.21 79.87 C 72.73 76.48 73.93 73.18 73.79 69.71 C 73.23 69.42 72.11 68.84 71.55 68.55 C 71.82 67.00 73.12 66.04 74.16 64.98 Z" />
</g>
<g id="#e2c771ff">
<path fill="#e2c771" opacity="1.00" d=" M 93.39 62.57 C 94.18 62.52 94.97 62.46 95.76 62.39 C 98.11 63.05 99.83 65.28 101.75 66.79 C 106.03 71.92 109.76 77.51 112.64 83.55 C 114.13 86.18 115.09 89.05 116.32 91.80 C 116.32 93.22 116.28 94.65 116.20 96.07 C 114.42 94.29 114.38 91.18 111.95 89.84 C 111.07 92.29 112.67 94.60 112.58 97.06 C 112.62 101.12 112.90 105.29 111.58 109.19 C 111.45 109.59 111.19 110.38 111.07 110.78 C 110.60 111.14 109.66 111.88 109.19 112.24 C 109.34 104.10 109.27 95.82 107.29 87.89 C 106.65 85.88 105.93 83.90 105.34 81.88 C 104.36 78.82 103.03 75.86 101.48 73.05 C 99.37 69.52 97.09 66.00 94.07 63.19 C 93.90 63.03 93.56 62.73 93.39 62.57 Z" />
</g>
<g id="#dec873ff">
<path fill="#dec873" opacity="1.00" d=" M 66.93 67.70 C 68.29 65.49 70.40 63.97 72.33 62.29 C 72.76 64.99 70.02 66.74 68.86 68.90 C 63.92 75.20 63.21 83.31 60.54 90.62 C 58.82 95.99 59.56 101.73 59.98 107.24 C 57.67 104.06 57.04 99.83 56.51 95.99 C 56.19 94.84 57.75 92.43 56.27 92.07 C 56.18 93.65 56.09 95.23 56.00 96.81 C 54.56 95.13 54.65 92.14 54.96 89.87 C 57.83 81.94 61.74 74.37 66.93 67.70 Z" />
</g>
<g id="#68462eff">
<path fill="#68462e" opacity="1.00" d=" M 88.01 70.22 C 90.39 68.17 91.43 64.97 94.07 63.19 C 97.09 66.00 99.37 69.52 101.48 73.05 C 95.90 74.72 89.56 74.38 84.34 71.73 C 84.81 71.62 85.76 71.42 86.24 71.31 C 86.68 71.04 87.57 70.49 88.01 70.22 Z" />
</g>
<g id="#a7791aff">
<path fill="#a7791a" opacity="1.00" d=" M 53.17 65.85 C 53.78 66.42 54.37 67.01 54.95 67.62 C 50.58 71.52 47.86 76.74 44.81 81.61 C 43.69 81.90 43.05 82.62 42.88 83.78 C 41.61 84.28 40.45 85.32 39.02 85.25 C 34.62 84.06 31.96 79.73 27.25 79.17 C 30.92 77.82 32.47 73.91 35.11 71.32 C 35.84 71.56 36.30 72.01 36.50 72.68 C 36.82 75.99 40.50 77.37 43.07 78.71 C 44.79 77.95 45.61 76.12 46.62 74.65 C 48.49 71.49 51.04 68.83 53.17 65.85 Z" />
</g>
<g id="#64432cff">
<path fill="#64432c" opacity="1.00" d=" M 101.75 66.79 C 106.32 65.61 112.10 68.19 112.92 73.16 C 113.61 76.37 115.32 79.15 116.92 81.96 C 115.61 82.77 114.10 83.12 112.64 83.55 C 109.76 77.51 106.03 71.92 101.75 66.79 Z" />
</g>
<g id="#a97a1aff">
<path fill="#a97a1a" opacity="1.00" d=" M 145.00 73.89 C 144.03 69.96 148.88 67.87 151.68 66.21 C 151.86 66.59 152.21 67.36 152.39 67.74 L 151.99 68.41 C 149.90 70.37 148.59 75.12 145.00 73.89 Z" />
</g>
<g id="#886b16ff">
<path fill="#886b16" opacity="1.00" d=" M 85.99 70.16 C 84.45 69.75 82.91 67.44 85.32 66.99 C 85.96 67.95 86.18 69.01 85.99 70.16 Z" />
</g>
<g id="#b78c1fff">
<path fill="#b78c1f" opacity="1.00" d=" M 16.09 69.62 C 18.97 68.79 21.95 68.45 24.92 68.17 C 24.80 69.96 23.62 71.34 22.73 72.79 C 22.78 73.05 22.88 73.58 22.93 73.84 C 20.96 73.97 18.99 74.07 17.03 74.21 C 16.83 72.66 16.56 71.11 16.09 69.62 Z" />
</g>
<g id="#ae8c49ff">
<path fill="#ae8c49" opacity="1.00" d=" M 25.98 68.06 C 27.63 67.48 28.21 68.02 27.72 69.66 C 26.12 70.22 25.54 69.68 25.98 68.06 Z" />
</g>
<g id="#c59120ff">
<path fill="#c59120" opacity="1.00" d=" M 28.78 67.66 C 31.24 68.14 34.03 68.78 35.11 71.32 C 32.47 73.91 30.92 77.82 27.25 79.17 C 26.72 78.97 25.66 78.58 25.13 78.39 L 24.61 77.17 L 25.04 76.49 C 26.76 76.13 28.62 76.05 30.13 75.07 C 32.33 72.64 29.30 70.14 28.78 67.66 Z" />
</g>
<g id="#d4b028f6">
<path fill="#d4b028" opacity="0.96" d=" M 152.39 67.74 C 152.56 67.70 152.91 67.62 153.08 67.58 C 155.43 69.33 156.82 72.13 159.42 73.60 C 159.93 74.03 160.95 74.90 161.47 75.33 L 160.62 75.83 C 156.51 75.37 154.37 71.30 151.99 68.41 L 152.39 67.74 Z" />
</g>
<g id="#766e58ff">
<path fill="#766e58" opacity="1.00" d=" M 14.17 70.19 C 14.65 70.05 15.61 69.76 16.09 69.62 C 16.56 71.11 16.83 72.66 17.03 74.21 C 16.21 74.24 14.56 74.31 13.74 74.34 C 13.41 72.95 13.56 71.57 14.17 70.19 Z" />
</g>
<g id="#b7891eff">
<path fill="#b7891e" opacity="1.00" d=" M 127.76 71.03 C 128.95 70.61 130.18 70.28 131.42 69.98 C 133.71 73.24 136.09 76.44 138.07 79.91 C 141.26 85.80 146.94 89.63 151.40 94.46 C 153.28 97.26 152.13 100.64 151.91 103.71 C 151.25 107.22 150.85 110.77 150.27 114.28 C 147.66 118.86 143.71 122.43 140.29 126.38 C 139.18 127.47 139.29 129.11 139.20 130.54 C 139.33 132.77 138.04 134.74 137.73 136.91 C 138.26 139.39 138.36 141.96 139.44 144.29 C 138.42 144.44 137.39 144.54 136.36 144.60 C 133.97 141.10 130.81 137.85 129.59 133.74 C 131.05 129.35 133.69 125.43 135.49 121.18 C 135.29 120.75 134.90 119.90 134.71 119.47 C 133.67 119.46 132.65 119.56 131.62 119.58 C 131.73 114.30 128.76 109.72 126.40 105.22 C 129.01 103.09 127.11 99.77 128.09 97.01 C 129.56 92.25 128.62 87.24 127.13 82.62 C 127.42 78.76 127.21 74.87 127.76 71.03 Z" />
</g>
<g id="#ae841cff">
<path fill="#ae841c" opacity="1.00" d=" M 146.13 77.03 C 148.48 75.50 150.56 73.61 152.89 72.05 C 154.03 75.93 158.04 77.01 161.17 78.85 C 161.48 78.54 162.09 77.90 162.40 77.58 L 162.74 77.18 C 162.92 80.61 160.10 83.01 157.03 83.86 C 157.04 85.77 157.36 87.65 157.61 89.54 C 155.55 88.37 156.07 86.08 155.79 84.12 C 152.76 81.50 149.50 79.19 146.13 77.03 Z" />
</g>
<g id="#af8a1ef3">
<path fill="#af8a1e" opacity="0.95" d=" M 12.33 79.94 C 15.45 77.10 20.34 77.61 24.15 76.00 C 24.37 76.12 24.82 76.36 25.04 76.49 L 24.61 77.17 C 24.04 78.03 23.41 78.84 22.72 79.61 C 20.80 79.84 18.88 80.11 16.94 80.20 C 16.52 80.22 15.69 80.25 15.27 80.26 C 14.53 80.18 13.06 80.02 12.33 79.94 Z" />
</g>
<g id="#3e331a86">
<path fill="#3e331a" opacity="0.53" d=" M 65.00 82.72 C 64.89 80.73 65.48 78.31 66.97 76.93 C 68.04 78.64 65.72 80.35 66.05 82.28 C 65.78 82.39 65.26 82.61 65.00 82.72 Z" />
</g>
<g id="#715037ff">
<path fill="#715037" opacity="1.00" d=" M 144.72 77.38 C 145.08 77.29 145.78 77.12 146.13 77.03 C 149.50 79.19 152.76 81.50 155.79 84.12 C 156.07 86.08 155.55 88.37 157.61 89.54 C 155.93 96.23 155.84 103.46 153.95 110.08 C 153.94 109.34 153.93 107.85 153.92 107.11 C 153.97 103.75 154.31 100.39 154.26 97.03 C 152.68 92.54 150.94 88.09 149.50 83.54 C 148.72 80.96 146.25 79.48 144.72 77.38 Z" />
</g>
<g id="#603f29ff">
<path fill="#603f29" opacity="1.00" d=" M 94.06 84.28 C 97.89 83.93 102.20 84.60 105.34 81.88 C 105.93 83.90 106.65 85.88 107.29 87.89 C 107.30 88.41 107.33 89.46 107.34 89.99 C 106.74 90.02 105.54 90.08 104.95 90.11 C 99.98 89.32 94.98 88.62 89.94 88.80 C 88.67 89.12 87.86 90.23 86.79 90.89 C 85.54 90.47 84.49 89.64 83.37 88.99 C 82.85 88.67 81.82 88.04 81.30 87.72 C 80.79 87.35 79.75 86.59 79.23 86.21 C 84.34 87.18 89.03 84.41 94.06 84.28 Z" />
</g>
<g id="#a67218ff">
<path fill="#a67218" opacity="1.00" d=" M 122.22 85.98 C 123.88 84.89 125.52 83.78 127.13 82.62 C 128.62 87.24 129.56 92.25 128.09 97.01 C 127.11 99.77 129.01 103.09 126.40 105.22 C 124.91 103.69 123.37 102.21 121.86 100.71 C 121.70 100.37 121.37 99.71 121.21 99.38 C 123.98 95.44 123.29 90.38 122.22 85.98 Z" />
</g>
<g id="#986113ff">
<path fill="#986113" opacity="1.00" d=" M 116.87 92.75 C 118.58 90.45 119.47 87.32 122.22 85.98 C 123.29 90.38 123.98 95.44 121.21 99.38 C 119.88 98.49 118.52 97.64 117.14 96.84 C 117.04 95.48 116.96 94.11 116.87 92.75 Z" />
</g>
<g id="#3c30178e">
<path fill="#3c3017" opacity="0.56" d=" M 62.97 91.71 C 62.77 90.06 62.92 88.36 63.85 86.95 C 64.48 88.21 64.75 91.49 62.97 91.71 Z" />
</g>
<g id="#fffb3cff">
<path fill="#fffb3c" opacity="1.00" d=" M 78.12 89.15 C 78.47 88.17 78.84 87.19 79.23 86.21 C 79.75 86.59 80.79 87.35 81.30 87.72 C 80.47 91.14 80.16 94.65 79.66 98.12 C 77.85 100.09 75.68 101.66 73.65 103.38 C 73.03 103.46 71.80 103.63 71.18 103.72 C 73.14 101.85 75.76 100.84 77.67 98.93 C 77.07 95.70 77.35 92.33 78.12 89.15 Z" />
</g>
<g id="#f6c82eff">
<path fill="#f6c82e" opacity="1.00" d=" M 81.30 87.72 C 81.82 88.04 82.85 88.67 83.37 88.99 C 83.28 91.73 82.83 94.45 82.22 97.12 C 81.58 97.37 80.30 97.87 79.66 98.12 C 80.16 94.65 80.47 91.14 81.30 87.72 Z" />
</g>
<g id="#996614ff">
<path fill="#996614" opacity="1.00" d=" M 107.29 87.89 C 109.27 95.82 109.34 104.10 109.19 112.24 C 109.66 111.88 110.60 111.14 111.07 110.78 C 112.90 113.04 114.93 115.14 117.18 117.00 C 114.18 117.80 113.30 121.79 110.02 122.07 C 107.67 122.14 105.54 121.01 103.47 120.04 C 104.29 119.50 105.10 118.95 105.89 118.37 C 102.90 117.94 99.92 117.49 96.96 116.87 C 96.88 115.56 97.52 115.06 98.88 115.39 C 100.96 115.94 103.40 116.54 105.35 115.31 C 107.08 107.16 109.40 97.77 104.95 90.11 C 105.54 90.08 106.74 90.02 107.34 89.99 C 107.33 89.46 107.30 88.41 107.29 87.89 Z" />
</g>
<g id="#dca323ff">
<path fill="#dca323" opacity="1.00" d=" M 83.37 88.99 C 84.49 89.64 85.54 90.47 86.79 90.89 C 87.86 90.23 88.67 89.12 89.94 88.80 C 89.76 89.78 89.62 90.77 89.51 91.77 C 90.28 92.01 91.06 92.24 91.84 92.45 C 91.34 92.69 90.34 93.16 89.84 93.40 C 88.75 95.50 87.51 97.67 87.30 100.07 C 87.58 103.18 88.33 106.28 87.84 109.42 C 87.15 108.27 86.59 107.05 86.08 105.81 C 85.66 102.53 85.55 99.21 85.03 95.93 C 84.47 96.17 83.36 96.65 82.81 96.89 L 82.22 97.12 C 82.83 94.45 83.28 91.73 83.37 88.99 Z" />
</g>
<g id="#b5841cff">
<path fill="#b5841c" opacity="1.00" d=" M 89.94 88.80 C 94.98 88.62 99.98 89.32 104.95 90.11 C 109.40 97.77 107.08 107.16 105.35 115.31 C 103.40 116.54 100.96 115.94 98.88 115.39 C 99.93 114.28 101.17 112.95 100.23 111.39 C 100.89 111.24 102.22 110.96 102.88 110.81 C 104.92 107.39 104.29 103.44 102.56 100.06 C 102.96 98.09 104.43 96.25 103.85 94.16 C 101.34 92.90 98.93 94.22 98.31 96.85 C 98.19 96.16 97.95 94.79 97.83 94.10 C 97.13 94.06 95.74 93.97 95.05 93.93 C 94.48 94.45 93.93 94.97 93.38 95.51 C 92.79 94.03 91.25 93.68 89.84 93.40 C 90.34 93.16 91.34 92.69 91.84 92.45 C 91.06 92.24 90.28 92.01 89.51 91.77 C 89.62 90.77 89.76 89.78 89.94 88.80 Z" />
</g>
<g id="#c4a458f8">
<path fill="#c4a458" opacity="0.97" d=" M 59.98 107.24 C 59.56 101.73 58.82 95.99 60.54 90.62 C 62.79 96.27 60.99 102.55 62.79 108.19 C 62.86 108.80 63.02 110.03 63.10 110.65 C 62.01 109.56 60.84 108.49 59.98 107.24 Z" />
</g>
<g id="#b57646ff">
<path fill="#b57646" opacity="1.00" d=" M 89.09 108.99 C 89.69 104.48 86.57 97.63 91.63 95.00 C 90.33 97.86 89.04 101.10 90.80 104.08 C 90.96 105.75 91.93 109.68 89.09 108.99 Z" />
</g>
<g id="#c17e53ff">
<path fill="#c17e53" opacity="1.00" d=" M 92.99 100.06 C 93.90 98.35 94.30 96.16 96.00 95.03 C 96.17 97.61 93.76 100.12 95.47 102.62 C 96.63 104.84 96.96 109.17 94.09 110.11 C 94.90 106.61 94.13 103.34 92.99 100.06 Z" />
</g>
<g id="#b57349ff">
<path fill="#b57349" opacity="1.00" d=" M 98.81 99.98 C 99.32 98.10 100.12 96.16 101.82 95.05 C 101.61 96.72 101.04 98.31 100.87 99.99 C 100.91 102.37 102.78 104.52 102.11 106.96 C 101.86 108.27 101.70 110.02 100.02 110.21 C 99.51 108.45 100.48 106.75 100.61 105.01 C 100.12 103.29 98.87 101.81 98.81 99.98 Z" />
</g>
<g id="#ae7e1bff">
<path fill="#ae7e1b" opacity="1.00" d=" M 82.81 96.89 C 83.36 96.65 84.47 96.17 85.03 95.93 C 85.55 99.21 85.66 102.53 86.08 105.81 C 84.34 108.11 81.78 109.94 80.87 112.77 C 81.43 112.90 82.55 113.17 83.12 113.31 C 82.06 113.81 81.00 114.28 79.96 114.78 C 75.88 116.43 71.92 118.37 67.78 119.86 C 69.33 121.90 71.42 123.55 72.69 125.85 C 73.04 130.09 72.44 134.20 70.58 138.04 C 70.69 140.32 69.74 142.80 70.80 144.94 C 69.77 143.20 69.45 141.18 68.68 139.33 C 67.27 136.25 64.84 133.80 63.07 130.95 C 62.02 128.83 62.46 126.28 63.48 124.23 C 61.99 124.11 60.49 124.06 59.00 123.86 C 59.39 120.37 63.35 119.37 66.03 118.06 C 70.54 116.63 74.20 113.59 78.18 111.16 C 80.31 109.80 82.15 107.32 81.44 104.67 C 80.79 101.95 81.56 99.30 82.81 96.89 Z" />
</g>
<g id="#bd9020ff">
<path fill="#bd9020" opacity="1.00" d=" M 79.66 98.12 C 80.30 97.87 81.58 97.37 82.22 97.12 L 82.81 96.89 C 81.56 99.30 80.79 101.95 81.44 104.67 C 82.15 107.32 80.31 109.80 78.18 111.16 C 74.20 113.59 70.54 116.63 66.03 118.06 C 63.35 119.37 59.39 120.37 59.00 123.86 C 60.49 124.06 61.99 124.11 63.48 124.23 C 62.46 126.28 62.02 128.83 63.07 130.95 C 64.84 133.80 67.27 136.25 68.68 139.33 C 69.45 141.18 69.77 143.20 70.80 144.94 L 70.96 145.27 C 71.14 145.92 71.51 147.22 71.70 147.87 C 68.47 147.28 66.96 144.09 65.50 141.53 C 64.14 138.99 62.08 136.96 60.06 134.95 C 56.58 130.32 51.31 125.54 52.82 119.11 C 53.82 118.87 54.70 119.46 55.60 119.75 C 56.19 118.32 57.03 117.00 58.19 115.97 L 58.33 116.00 C 65.45 119.15 73.10 113.65 77.07 107.95 C 77.10 105.74 75.53 104.24 73.65 103.38 C 75.68 101.66 77.85 100.09 79.66 98.12 Z" />
</g>
<g id="#c18d1fff">
<path fill="#c18d1f" opacity="1.00" d=" M 117.14 96.84 C 118.52 97.64 119.88 98.49 121.21 99.38 C 121.37 99.71 121.70 100.37 121.86 100.71 C 118.78 103.07 117.52 107.58 113.41 108.44 C 114.27 104.46 115.37 100.52 117.14 96.84 Z" />
</g>
<g id="#ba8c12ff">
<path fill="#ba8c12" opacity="1.00" d=" M 91.17 99.24 C 92.39 99.53 92.60 100.33 91.81 101.62 C 90.56 101.33 90.35 100.54 91.17 99.24 Z" />
</g>
<g id="#cea025ff">
<path fill="#cea025" opacity="1.00" d=" M 113.41 108.44 C 117.52 107.58 118.78 103.07 121.86 100.71 C 123.37 102.21 124.91 103.69 126.40 105.22 C 128.76 109.72 131.73 114.30 131.62 119.58 C 132.65 119.56 133.67 119.46 134.71 119.47 C 134.90 119.90 135.29 120.75 135.49 121.18 C 133.69 125.43 131.05 129.35 129.59 133.74 C 130.81 137.85 133.97 141.10 136.36 144.60 C 137.39 144.54 138.42 144.44 139.44 144.29 C 140.22 145.45 140.99 146.62 141.68 147.84 C 141.37 148.26 140.74 149.09 140.43 149.51 C 135.39 149.80 132.65 145.06 130.92 141.07 C 128.64 135.63 123.73 130.92 124.42 124.61 C 124.41 124.28 124.40 123.63 124.39 123.31 C 122.41 120.78 119.59 119.08 117.18 117.00 C 114.93 115.14 112.90 113.04 111.07 110.78 C 111.19 110.38 111.45 109.59 111.58 109.19 C 112.04 109.01 112.95 108.63 113.41 108.44 Z" />
</g>
<g id="#c39722ff">
<path fill="#c39722" opacity="1.00" d=" M 92.49 102.96 C 92.74 105.50 92.39 108.11 93.10 110.58 C 94.34 110.97 95.62 111.11 96.92 111.00 C 97.72 108.75 98.01 106.38 98.41 104.05 C 99.67 105.49 97.53 107.94 97.88 109.84 C 98.46 110.22 99.64 111.00 100.23 111.39 C 101.17 112.95 99.93 114.28 98.88 115.39 C 97.52 115.06 96.88 115.56 96.96 116.87 C 99.92 117.49 102.90 117.94 105.89 118.37 C 105.10 118.95 104.29 119.50 103.47 120.04 C 101.66 119.62 99.83 119.24 97.98 119.04 C 98.68 120.83 99.32 122.78 100.75 124.15 C 105.26 126.78 110.28 128.47 115.34 129.71 C 117.15 130.47 118.75 129.10 120.42 128.60 C 120.86 129.43 121.28 130.26 121.69 131.09 C 121.82 130.56 122.07 129.50 122.19 128.97 C 123.04 131.34 124.20 133.57 125.04 135.94 C 118.57 135.78 111.64 137.49 105.59 134.40 C 103.13 133.24 100.45 132.36 98.29 130.64 C 93.60 125.28 91.12 118.51 87.82 112.32 C 87.36 112.19 86.42 111.92 85.95 111.78 C 87.76 110.46 89.93 110.08 92.11 109.88 C 92.37 107.58 92.32 105.27 92.49 102.96 Z" />
</g>
<g id="#cca025ff">
<path fill="#cca025" opacity="1.00" d=" M 71.18 103.72 C 71.80 103.63 73.03 103.46 73.65 103.38 C 75.53 104.24 77.10 105.74 77.07 107.95 C 73.10 113.65 65.45 119.15 58.33 116.00 C 62.34 111.66 67.05 107.99 71.18 103.72 Z" />
</g>
<g id="#caaa29fe">
<path fill="#caaa29" opacity="1.00" d=" M 151.91 103.71 C 152.58 104.84 153.27 105.96 153.92 107.11 C 153.93 107.85 153.94 109.34 153.95 110.08 C 154.21 113.53 151.45 115.94 149.54 118.43 C 147.96 121.50 146.08 124.36 144.36 127.36 C 143.34 129.32 140.88 129.40 139.20 130.54 C 139.29 129.11 139.18 127.47 140.29 126.38 C 143.71 122.43 147.66 118.86 150.27 114.28 C 150.85 110.77 151.25 107.22 151.91 103.71 Z" />
</g>
<g id="#ddb42bff">
<path fill="#ddb42b" opacity="1.00" d=" M 84.10 112.85 C 84.56 112.58 85.49 112.05 85.95 111.78 C 86.42 111.92 87.36 112.19 87.82 112.32 C 91.12 118.51 93.60 125.28 98.29 130.64 C 100.45 132.36 103.13 133.24 105.59 134.40 C 111.64 137.49 118.57 135.78 125.04 135.94 C 124.20 133.57 123.04 131.34 122.19 128.97 C 122.47 127.32 123.41 125.90 124.42 124.61 C 123.73 130.92 128.64 135.63 130.92 141.07 C 132.65 145.06 135.39 149.80 140.43 149.51 C 140.74 149.09 141.37 148.26 141.68 147.84 C 142.26 148.93 143.30 149.68 143.97 150.68 C 144.48 152.21 145.18 153.68 145.75 155.19 C 145.65 156.84 145.41 158.48 145.69 160.13 C 140.66 160.10 135.64 160.31 130.62 160.36 C 130.35 160.72 129.82 161.44 129.56 161.81 C 129.25 161.08 128.63 159.62 128.33 158.89 C 129.48 157.88 130.81 156.96 131.50 155.55 C 131.56 151.62 131.19 147.66 130.38 143.81 C 130.15 146.03 130.20 148.27 129.92 150.49 L 129.26 150.79 C 130.59 146.09 128.53 141.19 126.24 137.10 C 121.17 137.50 116.10 138.14 111.01 138.14 C 107.04 137.09 103.00 136.34 99.00 135.44 C 96.47 134.20 94.48 132.11 92.26 130.41 L 93.00 129.74 C 88.27 125.10 88.36 117.85 84.10 112.85 Z" />
</g>
<g id="#f3cb30fe">
<path fill="#f3cb30" opacity="1.00" d=" M 83.12 113.31 L 84.10 112.85 C 88.36 117.85 88.27 125.10 93.00 129.74 L 92.26 130.41 C 90.43 129.00 88.67 127.50 86.79 126.15 C 84.43 122.42 82.26 118.56 79.96 114.78 C 81.00 114.28 82.06 113.81 83.12 113.31 Z" />
<path fill="#f3cb30" opacity="1.00" d=" M 74.09 147.25 C 75.42 146.98 76.77 146.85 78.15 146.85 C 78.54 147.16 79.32 147.76 79.71 148.07 C 77.99 148.03 75.02 148.93 74.09 147.25 Z" />
</g>
<g id="#dfb72cff">
<path fill="#dfb72c" opacity="1.00" d=" M 51.28 117.18 C 51.66 116.95 52.41 116.50 52.79 116.27 C 53.99 117.21 54.49 118.75 55.60 119.75 C 54.70 119.46 53.82 118.87 52.82 119.11 C 51.31 125.54 56.58 130.32 60.06 134.95 C 61.16 138.12 62.17 141.34 63.63 144.37 C 64.59 146.63 66.78 147.96 68.10 149.97 C 67.60 151.53 66.85 153.70 64.89 153.78 C 61.54 154.05 58.33 154.97 55.21 156.19 C 54.82 155.90 54.03 155.31 53.64 155.02 C 57.02 152.53 62.24 154.39 65.01 151.23 C 60.56 149.94 55.34 150.29 51.81 153.56 C 51.66 153.69 51.36 153.96 51.21 154.10 L 50.02 155.09 C 46.87 155.43 43.59 154.61 40.46 155.51 C 39.15 156.02 37.78 155.80 36.43 155.67 C 35.72 154.29 37.00 152.44 35.75 151.36 L 35.50 151.02 L 36.39 150.70 C 41.41 150.70 46.38 149.65 51.39 149.51 L 51.86 148.38 C 54.04 147.66 56.62 146.99 58.67 145.62 C 59.29 144.44 59.81 143.22 60.31 141.99 C 59.45 136.92 56.97 132.07 53.06 128.67 C 52.34 127.09 51.65 125.49 50.89 123.93 C 51.17 121.69 51.18 119.43 51.28 117.18 Z" />
</g>
<g id="#af801bff">
<path fill="#af801b" opacity="1.00" d=" M 110.02 122.07 C 113.30 121.79 114.18 117.80 117.18 117.00 C 119.59 119.08 122.41 120.78 124.39 123.31 C 124.40 123.63 124.41 124.28 124.42 124.61 C 123.41 125.90 122.47 127.32 122.19 128.97 C 122.07 129.50 121.82 130.56 121.69 131.09 C 121.28 130.26 120.86 129.43 120.42 128.60 C 118.75 129.10 117.15 130.47 115.34 129.71 C 110.28 128.47 105.26 126.78 100.75 124.15 C 99.32 122.78 98.68 120.83 97.98 119.04 C 99.83 119.24 101.66 119.62 103.47 120.04 C 105.54 121.01 107.67 122.14 110.02 122.07 Z" />
</g>
<g id="#c89e23ff">
<path fill="#c89e23" opacity="1.00" d=" M 60.06 134.95 C 62.08 136.96 64.14 138.99 65.50 141.53 C 66.96 144.09 68.47 147.28 71.70 147.87 C 71.51 147.22 71.14 145.92 70.96 145.27 C 73.08 146.72 75.70 146.60 78.15 146.85 C 76.77 146.85 75.42 146.98 74.09 147.25 C 75.02 148.93 77.99 148.03 79.71 148.07 C 79.87 149.46 80.03 150.86 80.17 152.26 C 74.92 153.04 70.13 155.86 65.01 157.10 C 60.90 156.75 57.09 158.58 53.05 158.38 C 53.07 156.72 52.55 155.14 51.21 154.10 C 51.36 153.96 51.66 153.69 51.81 153.56 C 52.27 153.92 53.18 154.65 53.64 155.02 C 54.03 155.31 54.82 155.90 55.21 156.19 C 58.33 154.97 61.54 154.05 64.89 153.78 C 66.85 153.70 67.60 151.53 68.10 149.97 C 66.78 147.96 64.59 146.63 63.63 144.37 C 62.17 141.34 61.16 138.12 60.06 134.95 Z" />
</g>
<g id="#fcd735ff">
<path fill="#fcd735" opacity="1.00" d=" M 130.38 143.81 C 131.19 147.66 131.56 151.62 131.50 155.55 C 130.81 156.96 129.48 157.88 128.33 158.89 C 126.27 157.43 124.75 159.92 123.85 161.46 L 123.48 162.06 C 123.27 160.45 122.44 158.80 122.98 157.18 C 124.21 155.87 126.75 155.78 126.67 153.49 C 126.63 152.00 128.03 151.22 129.26 150.79 L 129.92 150.49 C 130.20 148.27 130.15 146.03 130.38 143.81 Z" />
</g>
<g id="#b29b5df0">
<path fill="#b29b5d" opacity="0.94" d=" M 79.71 148.07 C 81.47 146.90 82.49 149.30 83.40 150.34 C 82.71 150.87 81.92 150.96 81.00 150.62 C 80.98 150.96 80.94 151.63 80.91 151.97 L 80.17 152.26 C 80.03 150.86 79.87 149.46 79.71 148.07 Z" />
</g>
<g id="#f9d734ff">
<path fill="#f9d734" opacity="1.00" d=" M 51.81 153.56 C 55.34 150.29 60.56 149.94 65.01 151.23 C 62.24 154.39 57.02 152.53 53.64 155.02 C 53.18 154.65 52.27 153.92 51.81 153.56 Z" />
</g>
<g id="#51472aab">
<path fill="#51472a" opacity="0.67" d=" M 81.00 150.62 C 81.92 150.96 82.71 150.87 83.40 150.34 C 85.94 150.84 82.09 153.26 80.91 151.97 C 80.94 151.63 80.98 150.96 81.00 150.62 Z" />
</g>
<g id="#edddaeff">
<path fill="#edddae" opacity="1.00" d=" M 30.17 157.34 C 30.37 154.62 33.44 152.47 35.75 151.36 C 37.00 152.44 35.72 154.29 36.43 155.67 C 34.44 156.51 32.23 156.66 30.17 157.34 Z" />
<path fill="#edddae" opacity="1.00" d=" M 123.85 161.46 C 124.75 159.92 126.27 157.43 128.33 158.89 C 128.63 159.62 129.25 161.08 129.56 161.81 C 129.14 162.98 128.35 163.83 127.19 164.36 C 125.72 163.87 124.93 162.45 123.85 161.46 Z" />
</g>
<g id="#f9d333ff">
<path fill="#f9d333" opacity="1.00" d=" M 143.97 150.68 C 145.25 152.10 146.87 153.93 148.94 153.79 C 151.21 153.40 152.87 155.28 154.77 156.15 C 155.73 157.08 158.66 157.29 156.85 159.27 C 156.02 158.72 155.14 158.30 154.21 157.98 C 152.46 157.60 151.72 158.34 151.99 160.21 C 151.81 160.49 151.46 161.06 151.28 161.34 C 149.52 160.43 147.74 159.77 145.69 160.13 C 145.41 158.48 145.65 156.84 145.75 155.19 C 145.18 153.68 144.48 152.21 143.97 150.68 Z" />
</g>
<g id="#e6d49efb">
<path fill="#e6d49e" opacity="1.00" d=" M 50.02 155.09 L 51.21 154.10 C 52.55 155.14 53.07 156.72 53.05 158.38 C 51.01 159.41 48.58 159.11 46.54 160.19 C 47.25 158.22 48.41 156.42 50.02 155.09 Z" />
</g>
<g id="#b4aa65ff">
<path fill="#b4aa65" opacity="1.00" d=" M 151.99 160.21 C 151.72 158.34 152.46 157.60 154.21 157.98 C 153.70 158.91 152.96 159.65 151.99 160.21 Z" />
</g>
<g id="#302a2066">
<path fill="#302a20" opacity="0.40" d=" M 157.26 160.01 C 159.65 159.87 158.08 164.63 156.16 163.91 L 156.27 163.26 C 157.11 162.41 157.44 161.32 157.26 160.01 Z" />
</g>
</svg>
