<?xml version="1.0" encoding="UTF-8" ?>
<!DOCTYPE svg PUBLIC "-//W3C//DTD SVG 1.1//EN" "http://www.w3.org/Graphics/SVG/1.1/DTD/svg11.dtd">
<svg width="177pt" height="190pt" viewBox="0 0 177 190" version="1.1" xmlns="http://www.w3.org/2000/svg">
<g id="#fddf37fe">
<path fill="#fddf37" opacity="1.00" d=" M 64.79 8.95 C 65.28 8.71 66.26 8.21 66.75 7.96 C 70.55 11.78 74.02 15.91 77.85 19.69 C 76.98 22.19 75.83 24.58 74.23 26.70 C 73.12 26.02 72.02 25.32 70.86 24.71 C 70.46 24.63 69.66 24.47 69.26 24.40 L 69.12 24.37 C 67.78 19.20 66.20 14.10 64.79 8.95 Z" />
</g>
<g id="#e9c530ff">
<path fill="#e9c530" opacity="1.00" d=" M 126.72 16.79 C 131.70 14.12 136.59 11.22 141.78 8.98 L 142.64 9.11 C 144.45 12.07 139.87 14.26 138.45 16.58 C 137.26 16.16 136.00 15.94 135.09 17.06 C 130.01 21.14 125.23 25.59 120.18 29.71 C 114.49 32.32 111.97 38.50 107.18 42.25 C 103.30 45.77 100.38 50.14 97.49 54.45 C 97.23 54.82 96.96 55.17 96.68 55.52 C 94.36 57.52 91.75 59.23 88.81 60.14 C 87.64 60.53 86.45 60.89 85.33 61.43 C 83.73 65.49 84.01 70.01 83.38 74.28 C 82.45 77.23 78.54 79.88 75.87 77.34 C 75.75 77.03 75.53 76.42 75.42 76.12 C 74.63 73.27 74.37 70.31 74.30 67.37 C 74.59 65.97 74.94 64.58 75.28 63.20 L 76.20 63.47 C 76.63 63.61 77.50 63.88 77.94 64.01 C 77.96 67.41 78.07 70.82 78.32 74.21 C 78.82 69.91 80.90 65.24 79.15 61.03 C 78.59 60.81 77.45 60.36 76.88 60.14 L 76.44 59.92 C 75.19 59.05 74.25 59.24 73.61 60.50 C 73.22 59.27 72.86 58.03 72.53 56.78 C 73.72 57.33 74.93 57.89 76.13 58.44 C 78.43 56.52 80.86 54.69 83.69 53.64 C 87.45 51.98 92.01 51.22 94.51 47.62 C 97.54 43.62 101.03 39.91 105.40 37.36 C 111.08 34.22 114.88 28.80 120.05 24.99 C 122.61 22.61 126.44 20.71 126.72 16.79 Z" />
</g>
<g id="#c49a23ff">
<path fill="#c49a23" opacity="1.00" d=" M 135.09 17.06 C 136.00 15.94 137.26 16.16 138.45 16.58 C 131.24 24.98 123.70 33.11 116.68 41.67 C 114.57 44.37 113.49 49.16 116.88 51.32 C 118.99 52.97 121.23 54.45 123.32 56.14 C 117.66 60.50 110.00 57.45 104.03 60.95 C 96.58 65.13 91.25 71.96 86.14 78.61 C 86.94 79.09 87.75 79.57 88.55 80.05 C 92.01 82.07 94.93 84.88 97.52 87.92 C 99.35 89.97 100.76 92.35 101.92 94.84 C 102.07 95.11 102.36 95.66 102.51 95.93 C 103.93 96.15 105.37 96.31 106.80 96.48 C 105.89 96.85 104.98 97.23 104.08 97.60 C 106.29 98.08 108.51 98.55 110.74 99.00 C 108.98 101.47 107.50 104.13 106.44 106.97 C 106.31 106.68 106.06 106.11 105.93 105.82 C 104.92 103.73 103.97 101.42 102.04 100.00 C 99.48 98.80 96.67 98.30 93.95 97.60 C 95.54 97.28 97.13 96.96 98.70 96.58 L 98.91 95.94 C 98.65 95.38 98.13 94.26 97.86 93.70 C 94.75 89.27 91.16 85.01 86.39 82.28 C 84.43 83.40 82.30 84.87 79.94 83.98 C 80.54 82.95 81.18 81.95 81.87 80.98 C 86.06 76.01 88.09 69.72 91.72 64.38 C 90.49 64.00 89.25 63.65 88.04 63.22 L 88.92 63.18 C 90.83 63.12 92.98 63.24 94.30 61.56 C 94.52 61.27 94.96 60.69 95.18 60.41 C 96.23 58.98 96.50 57.23 96.68 55.52 C 96.96 55.17 97.23 54.82 97.49 54.45 C 98.53 54.21 99.72 54.29 100.62 53.62 C 109.03 47.35 113.70 37.70 120.18 29.71 C 125.23 25.59 130.01 21.14 135.09 17.06 M 82.02 81.24 C 80.48 84.22 85.36 81.37 82.02 81.24 Z" />
</g>
<g id="#fcda36ff">
<path fill="#fcda36" opacity="1.00" d=" M 107.05 26.88 C 113.70 23.71 120.11 20.05 126.72 16.79 C 126.44 20.71 122.61 22.61 120.05 24.99 C 114.88 28.80 111.08 34.22 105.40 37.36 C 101.03 39.91 97.54 43.62 94.51 47.62 C 92.01 51.22 87.45 51.98 83.69 53.64 C 80.86 54.69 78.43 56.52 76.13 58.44 C 74.93 57.89 73.72 57.33 72.53 56.78 C 70.30 48.56 74.85 40.90 77.65 33.48 C 79.44 29.12 84.90 29.28 88.82 29.67 C 88.12 29.19 87.43 28.71 86.75 28.22 C 93.51 27.33 100.55 29.80 107.05 26.88 Z" />
<path fill="#fcda36" opacity="1.00" d=" M 66.39 87.27 C 66.95 84.86 69.16 83.40 71.05 82.06 C 69.89 84.11 68.52 86.13 66.39 87.27 Z" />
<path fill="#fcda36" opacity="1.00" d=" M 84.79 97.19 C 85.94 96.44 87.08 95.69 88.22 94.94 C 87.19 96.99 86.38 99.14 85.59 101.29 C 85.33 99.92 85.07 98.55 84.79 97.19 Z" />
</g>
<g id="#fffe40ff">
<path fill="#fffe40" opacity="1.00" d=" M 77.85 19.69 C 80.78 22.56 83.45 25.75 86.75 28.22 C 87.43 28.71 88.12 29.19 88.82 29.67 C 84.90 29.28 79.44 29.12 77.65 33.48 C 74.85 40.90 70.30 48.56 72.53 56.78 C 72.86 58.03 73.22 59.27 73.61 60.50 L 73.88 61.29 C 74.23 61.77 74.93 62.72 75.28 63.20 C 74.94 64.58 74.59 65.97 74.30 67.37 C 73.63 65.31 72.54 63.41 70.84 62.05 C 70.64 61.93 70.23 61.70 70.03 61.59 C 68.69 58.99 67.22 56.45 65.69 53.96 C 67.02 52.76 68.38 51.58 69.43 50.12 C 70.00 48.49 70.43 46.82 70.88 45.15 C 71.46 42.74 72.40 40.41 72.78 37.96 C 72.01 33.35 70.23 28.97 69.26 24.40 C 69.66 24.47 70.46 24.63 70.86 24.71 C 72.02 25.32 73.12 26.02 74.23 26.70 C 75.83 24.58 76.98 22.19 77.85 19.69 Z" />
</g>
<g id="#d8b22aff">
<path fill="#d8b22a" opacity="1.00" d=" M 107.18 42.25 C 111.97 38.50 114.49 32.32 120.18 29.71 C 113.70 37.70 109.03 47.35 100.62 53.62 C 99.72 54.29 98.53 54.21 97.49 54.45 C 100.38 50.14 103.30 45.77 107.18 42.25 Z" />
</g>
<g id="#886449ff">
<path fill="#886449" opacity="1.00" d=" M 70.12 46.96 C 70.31 46.50 70.69 45.60 70.88 45.15 C 70.43 46.82 70.00 48.49 69.43 50.12 C 69.31 49.59 69.07 48.52 68.95 47.99 C 64.12 48.26 59.09 50.04 55.94 53.87 C 53.72 56.92 51.84 60.38 51.36 64.18 C 50.11 62.25 47.07 60.24 48.61 57.67 C 51.82 49.27 61.76 45.81 70.12 46.96 Z" />
</g>
<g id="#76553cff">
<path fill="#76553c" opacity="1.00" d=" M 55.94 53.87 C 59.09 50.04 64.12 48.26 68.95 47.99 C 69.07 48.52 69.31 49.59 69.43 50.12 C 68.38 51.58 67.02 52.76 65.69 53.96 C 64.60 54.91 63.50 55.85 62.41 56.79 C 62.64 57.20 63.11 58.02 63.35 58.43 C 63.40 61.28 63.78 64.10 63.85 66.95 C 62.86 68.77 60.78 69.66 59.22 70.95 L 58.29 70.23 C 55.92 68.29 53.51 66.37 51.36 64.18 C 51.84 60.38 53.72 56.92 55.94 53.87 Z" />
</g>
<g id="#7d5e43ff">
<path fill="#7d5e43" opacity="1.00" d=" M 121.90 49.17 C 131.77 47.05 143.74 47.67 150.47 56.25 C 148.89 57.41 147.31 58.57 145.68 59.65 L 145.33 59.87 C 144.19 59.45 143.05 59.03 141.91 58.61 C 141.43 58.85 140.48 59.33 140.01 59.58 C 138.50 60.27 137.33 61.47 136.24 62.68 C 135.37 62.57 134.51 62.46 133.65 62.35 C 134.24 58.46 135.08 53.31 131.20 50.82 C 128.05 49.67 124.57 50.59 121.31 50.74 C 121.45 50.34 121.75 49.56 121.90 49.17 Z" />
</g>
<g id="#6f4f37ff">
<path fill="#6f4f37" opacity="1.00" d=" M 116.88 51.32 C 118.54 50.57 120.20 49.83 121.90 49.17 C 121.75 49.56 121.45 50.34 121.31 50.74 C 124.57 50.59 128.05 49.67 131.20 50.82 C 135.08 53.31 134.24 58.46 133.65 62.35 C 134.51 62.46 135.37 62.57 136.24 62.68 L 135.32 63.94 C 135.00 65.26 134.75 66.60 134.57 67.94 C 134.39 69.12 134.24 70.30 134.09 71.48 C 133.96 71.72 133.71 72.18 133.58 72.42 C 130.38 72.83 127.21 73.54 123.98 73.70 C 121.33 73.98 119.59 71.15 119.25 68.86 C 119.48 66.05 120.57 63.41 121.35 60.73 C 123.04 60.22 124.69 59.57 126.34 58.94 C 125.35 57.99 124.36 57.04 123.32 56.14 C 121.23 54.45 118.99 52.97 116.88 51.32 Z" />
</g>
<g id="#f4cb2fff">
<path fill="#f4cb2f" opacity="1.00" d=" M 62.41 56.79 C 63.50 55.85 64.60 54.91 65.69 53.96 C 67.22 56.45 68.69 58.99 70.03 61.59 C 67.83 60.48 65.58 59.46 63.35 58.43 C 63.11 58.02 62.64 57.20 62.41 56.79 Z" />
</g>
<g id="#583a24ff">
<path fill="#583a24" opacity="1.00" d=" M 88.81 60.14 C 91.75 59.23 94.36 57.52 96.68 55.52 C 96.50 57.23 96.23 58.98 95.18 60.41 C 95.25 59.68 95.39 58.24 95.46 57.52 C 93.15 58.68 90.91 60.12 89.99 62.69 C 91.07 62.41 93.22 61.84 94.30 61.56 C 92.98 63.24 90.83 63.12 88.92 63.18 C 88.96 62.73 89.03 61.84 89.07 61.39 L 88.81 60.14 Z" />
<path fill="#583a24" opacity="1.00" d=" M 32.36 95.78 C 37.70 90.71 45.22 89.14 50.89 84.50 C 51.48 85.53 52.06 86.57 52.64 87.61 C 52.29 89.34 51.96 91.06 51.64 92.80 C 48.32 94.85 43.99 94.33 40.95 96.91 C 37.11 99.79 33.77 103.66 29.02 105.05 C 26.77 105.72 24.48 104.78 22.39 104.01 C 25.93 101.46 31.83 101.11 32.36 95.78 Z" />
<path fill="#583a24" opacity="1.00" d=" M 41.08 165.85 C 41.98 164.79 43.27 164.12 44.34 163.23 C 44.28 164.55 44.37 165.88 44.58 167.19 C 44.93 168.45 45.31 169.70 45.69 170.96 C 41.94 171.02 38.23 171.53 34.52 172.03 C 34.85 171.62 35.51 170.79 35.84 170.37 L 35.43 171.04 L 35.01 171.69 C 37.89 171.28 40.76 170.84 43.63 170.43 C 43.64 169.45 43.65 167.48 43.65 166.49 C 43.01 166.33 41.72 166.01 41.08 165.85 Z" />
</g>
<g id="#af841cff">
<path fill="#af841c" opacity="1.00" d=" M 123.32 56.14 C 124.36 57.04 125.35 57.99 126.34 58.94 C 124.69 59.57 123.04 60.22 121.35 60.73 C 118.82 61.39 116.26 61.96 113.72 62.61 C 108.10 64.00 102.63 66.08 97.59 68.93 C 96.40 69.86 95.28 70.88 94.20 71.95 C 92.11 74.49 90.35 77.30 88.55 80.05 C 87.75 79.57 86.94 79.09 86.14 78.61 C 91.25 71.96 96.58 65.13 104.03 60.95 C 110.00 57.45 117.66 60.50 123.32 56.14 Z" />
</g>
<g id="#714d33ff">
<path fill="#714d33" opacity="1.00" d=" M 150.47 56.25 L 150.65 56.13 C 151.57 57.83 152.50 59.52 153.45 61.21 C 152.34 62.56 151.21 63.87 150.06 65.17 C 149.91 64.86 149.61 64.22 149.47 63.90 C 148.91 63.16 148.33 62.44 147.74 61.74 C 147.22 61.22 146.19 60.18 145.68 59.65 C 147.31 58.57 148.89 57.41 150.47 56.25 Z" />
</g>
<g id="#afafaaff">
<path fill="#afafaa" opacity="1.00" d=" M 15.17 58.44 C 17.48 58.70 19.58 59.77 21.23 61.40 C 19.35 67.57 16.47 73.88 10.60 77.20 C 10.07 75.65 9.24 74.16 9.09 72.51 C 9.61 70.19 10.22 67.89 10.80 65.59 C 11.98 65.91 13.16 66.23 14.34 66.55 C 15.52 64.71 16.70 62.86 17.86 61.01 C 16.96 60.16 16.06 59.30 15.17 58.44 Z" />
</g>
<g id="#efeadeff">
<path fill="#efeade" opacity="1.00" d=" M 89.99 62.69 C 90.91 60.12 93.15 58.68 95.46 57.52 C 95.39 58.24 95.25 59.68 95.18 60.41 C 94.96 60.69 94.52 61.27 94.30 61.56 C 93.22 61.84 91.07 62.41 89.99 62.69 Z" />
<path fill="#efeade" opacity="1.00" d=" M 136.24 62.68 C 137.33 61.47 138.50 60.27 140.01 59.58 C 141.40 60.14 143.80 59.98 143.80 62.03 C 143.48 64.23 142.41 66.22 141.58 68.26 C 139.23 67.24 137.13 65.74 135.32 63.94 L 136.24 62.68 Z" />
</g>
<g id="#e5e5d7ff">
<path fill="#e5e5d7" opacity="1.00" d=" M 9.09 72.51 C 8.09 67.21 9.36 60.34 15.17 58.44 C 16.06 59.30 16.96 60.16 17.86 61.01 C 16.70 62.86 15.52 64.71 14.34 66.55 C 13.16 66.23 11.98 65.91 10.80 65.59 C 10.22 67.89 9.61 70.19 9.09 72.51 Z" />
<path fill="#e5e5d7" opacity="1.00" d=" M 76.88 60.14 C 77.45 60.36 78.59 60.81 79.15 61.03 C 78.92 62.23 78.18 62.94 76.93 63.18 C 76.92 62.42 76.89 60.90 76.88 60.14 Z" />
<path fill="#e5e5d7" opacity="1.00" d=" M 86.70 62.00 C 87.30 61.85 88.48 61.54 89.07 61.39 C 89.03 61.84 88.96 62.73 88.92 63.18 L 88.04 63.22 C 87.71 62.92 87.04 62.30 86.70 62.00 Z" />
</g>
<g id="#694830ff">
<path fill="#694830" opacity="1.00" d=" M 63.85 66.95 C 63.78 64.10 63.40 61.28 63.35 58.43 C 65.58 59.46 67.83 60.48 70.03 61.59 C 70.23 61.70 70.64 61.93 70.84 62.05 C 70.21 64.99 70.05 68.07 69.00 70.91 C 67.78 72.12 66.31 73.04 64.92 74.03 C 64.18 73.69 63.44 73.32 62.72 72.94 C 61.54 72.30 60.38 71.62 59.22 70.95 C 60.78 69.66 62.86 68.77 63.85 66.95 Z" />
</g>
<g id="#e7e6e5ff">
<path fill="#e7e6e5" opacity="1.00" d=" M 73.61 60.50 C 74.25 59.24 75.19 59.05 76.44 59.92 C 76.10 60.92 74.93 61.71 73.88 61.29 L 73.61 60.50 Z" />
</g>
<g id="#cbc9beff">
<path fill="#cbc9be" opacity="1.00" d=" M 140.01 59.58 C 140.48 59.33 141.43 58.85 141.91 58.61 C 143.05 59.03 144.19 59.45 145.33 59.87 C 145.52 61.54 145.78 63.21 145.72 64.89 C 144.59 67.67 142.40 69.82 140.62 72.19 C 139.26 71.36 137.90 70.54 136.55 69.72 C 135.91 70.09 135.28 70.46 134.66 70.84 C 134.63 70.11 134.59 68.67 134.57 67.94 C 134.75 66.60 135.00 65.26 135.32 63.94 C 137.13 65.74 139.23 67.24 141.58 68.26 C 142.41 66.22 143.48 64.23 143.80 62.03 C 143.80 59.98 141.40 60.14 140.01 59.58 Z" />
</g>
<g id="#404040ff">
<path fill="#404040" opacity="1.00" d=" M 76.44 59.92 L 76.88 60.14 C 76.89 60.90 76.92 62.42 76.93 63.18 L 76.20 63.47 L 75.28 63.20 C 74.93 62.72 74.23 61.77 73.88 61.29 C 74.93 61.71 76.10 60.92 76.44 59.92 Z" />
<path fill="#404040" opacity="1.00" d=" M 149.47 63.90 C 149.61 64.22 149.91 64.86 150.06 65.17 C 152.09 69.68 151.50 74.76 150.28 79.40 C 148.74 81.85 147.13 84.26 145.85 86.86 C 145.71 88.16 145.64 89.46 145.55 90.77 L 143.73 90.84 C 144.36 89.40 144.34 87.73 143.76 86.28 C 143.51 86.45 143.02 86.80 142.77 86.98 C 141.74 85.84 140.71 84.71 139.72 83.54 C 141.28 83.54 142.87 83.73 144.41 83.37 C 149.23 78.15 150.22 70.72 149.47 63.90 Z" />
<path fill="#404040" opacity="1.00" d=" M 145.13 99.25 C 145.45 99.29 146.09 99.35 146.41 99.39 C 147.36 101.57 148.30 103.77 149.21 105.97 C 147.91 106.39 146.60 106.80 145.31 107.24 C 145.36 104.58 145.24 101.91 145.13 99.25 Z" />
<path fill="#404040" opacity="1.00" d=" M 146.07 115.11 C 147.35 114.71 148.66 114.40 149.97 114.10 C 149.32 114.28 148.02 114.64 147.37 114.82 C 147.21 118.72 148.89 122.27 149.94 125.93 C 149.77 127.28 148.44 127.77 147.45 128.41 C 146.99 123.98 146.51 119.55 146.07 115.11 Z" />
<path fill="#404040" opacity="1.00" d=" M 17.92 116.30 C 19.29 116.26 20.66 116.17 22.03 116.05 C 21.51 116.13 20.48 116.28 19.96 116.36 C 20.63 119.06 23.32 122.94 19.58 124.54 C 19.13 121.78 18.66 119.01 17.92 116.30 Z" />
</g>
<g id="#4d2a16ff">
<path fill="#4d2a16" opacity="1.00" d=" M 85.33 61.43 C 86.45 60.89 87.64 60.53 88.81 60.14 L 89.07 61.39 C 88.48 61.54 87.30 61.85 86.70 62.00 C 84.60 65.78 84.82 70.27 83.38 74.28 C 84.01 70.01 83.73 65.49 85.33 61.43 Z" />
<path fill="#4d2a16" opacity="1.00" d=" M 97.59 68.93 C 102.63 66.08 108.10 64.00 113.72 62.61 C 114.19 62.67 115.12 62.80 115.59 62.86 C 114.35 66.22 112.91 70.26 115.79 73.25 C 117.84 76.97 122.22 77.48 126.03 76.81 C 124.75 77.16 123.48 77.49 122.20 77.82 C 121.13 79.59 120.06 81.36 119.06 83.16 C 117.82 83.30 116.58 83.50 115.32 83.50 C 113.86 82.38 112.77 80.87 111.57 79.50 C 107.77 74.98 102.90 71.46 97.59 68.93 Z" />
<path fill="#4d2a16" opacity="1.00" d=" M 89.08 94.56 C 91.93 93.73 94.91 93.62 97.86 93.70 C 98.13 94.26 98.65 95.38 98.91 95.94 C 95.60 95.75 92.30 95.35 89.08 94.56 Z" />
</g>
<g id="#b0afa4ff">
<path fill="#b0afa4" opacity="1.00" d=" M 145.33 59.87 L 145.68 59.65 C 146.19 60.18 147.22 61.22 147.74 61.74 C 147.81 67.19 144.83 72.02 141.01 75.65 C 139.30 75.43 137.87 74.38 136.37 73.63 C 136.17 74.82 135.95 76.01 135.78 77.20 C 135.19 75.30 134.60 73.40 134.09 71.48 C 134.24 70.30 134.39 69.12 134.57 67.94 C 134.59 68.67 134.63 70.11 134.66 70.84 C 135.28 70.46 135.91 70.09 136.55 69.72 C 137.90 70.54 139.26 71.36 140.62 72.19 C 142.40 69.82 144.59 67.67 145.72 64.89 C 145.78 63.21 145.52 61.54 145.33 59.87 Z" />
</g>
<g id="#b8981dff">
<path fill="#b8981d" opacity="1.00" d=" M 79.15 61.03 C 80.90 65.24 78.82 69.91 78.32 74.21 C 78.07 70.82 77.96 67.41 77.94 64.01 C 77.50 63.88 76.63 63.61 76.20 63.47 L 76.93 63.18 C 78.18 62.94 78.92 62.23 79.15 61.03 Z" />
</g>
<g id="#5e3c26ff">
<path fill="#5e3c26" opacity="1.00" d=" M 113.72 62.61 C 116.26 61.96 118.82 61.39 121.35 60.73 C 120.57 63.41 119.48 66.05 119.25 68.86 C 119.59 71.15 121.33 73.98 123.98 73.70 C 127.21 73.54 130.38 72.83 133.58 72.42 L 132.72 73.85 C 131.58 74.78 130.39 75.65 129.20 76.53 C 128.14 76.59 127.08 76.71 126.03 76.81 C 122.22 77.48 117.84 76.97 115.79 73.25 C 112.91 70.26 114.35 66.22 115.59 62.86 C 115.12 62.80 114.19 62.67 113.72 62.61 Z" />
</g>
<g id="#797c7bff">
<path fill="#797c7b" opacity="1.00" d=" M 21.23 61.40 C 21.84 62.27 22.45 63.14 23.07 64.01 C 21.95 70.08 19.05 75.53 15.50 80.51 C 14.97 80.73 13.93 81.17 13.41 81.39 C 12.40 80.04 11.44 78.65 10.60 77.20 C 16.47 73.88 19.35 67.57 21.23 61.40 Z" />
</g>
<g id="#d8b32bff">
<path fill="#d8b32b" opacity="1.00" d=" M 83.38 74.28 C 84.82 70.27 84.60 65.78 86.70 62.00 C 87.04 62.30 87.71 62.92 88.04 63.22 C 89.25 63.65 90.49 64.00 91.72 64.38 C 88.09 69.72 86.06 76.01 81.87 80.98 C 81.18 81.95 80.54 82.95 79.94 83.98 L 79.38 84.02 C 78.12 83.67 77.57 82.25 76.60 81.46 C 76.43 80.58 76.31 79.68 76.14 78.79 C 76.07 78.43 75.93 77.70 75.87 77.34 C 78.54 79.88 82.45 77.23 83.38 74.28 Z" />
</g>
<g id="#7f8180ff">
<path fill="#7f8180" opacity="1.00" d=" M 147.74 61.74 C 148.33 62.44 148.91 63.16 149.47 63.90 C 150.22 70.72 149.23 78.15 144.41 83.37 C 142.87 83.73 141.28 83.54 139.72 83.54 C 138.45 81.97 137.27 80.34 136.23 78.61 C 136.12 78.26 135.89 77.56 135.78 77.20 C 135.95 76.01 136.17 74.82 136.37 73.63 C 137.87 74.38 139.30 75.43 141.01 75.65 C 144.83 72.02 147.81 67.19 147.74 61.74 Z" />
<path fill="#7f8180" opacity="1.00" d=" M 17.02 116.11 L 17.92 116.30 C 18.66 119.01 19.13 121.78 19.58 124.54 C 18.02 124.04 15.68 123.27 15.86 121.19 C 16.16 119.48 16.61 117.80 17.02 116.11 Z" />
</g>
<g id="#5d3b25ff">
<path fill="#5d3b25" opacity="1.00" d=" M 69.00 70.91 C 70.05 68.07 70.21 64.99 70.84 62.05 C 72.54 63.41 73.63 65.31 74.30 67.37 C 74.37 70.31 74.63 73.27 75.42 76.12 C 73.40 76.09 71.34 76.24 69.36 75.73 C 67.86 75.23 66.38 74.66 64.92 74.03 C 66.31 73.04 67.78 72.12 69.00 70.91 Z" />
</g>
<g id="#53575bff">
<path fill="#53575b" opacity="1.00" d=" M 23.07 64.01 C 23.51 65.31 23.96 66.61 24.33 67.94 C 24.00 71.29 23.47 74.77 21.49 77.60 C 19.75 80.65 15.83 83.77 18.48 87.47 C 18.73 89.64 18.45 91.82 18.08 93.96 C 17.84 93.91 17.34 93.83 17.09 93.78 C 16.17 93.25 15.28 92.69 14.37 92.13 C 14.99 91.65 16.22 90.68 16.84 90.20 C 16.39 90.10 15.49 89.89 15.04 89.79 C 14.72 89.45 14.09 88.78 13.77 88.44 C 14.35 88.78 15.51 89.48 16.09 89.83 C 16.30 86.73 15.47 83.74 13.41 81.39 C 13.93 81.17 14.97 80.73 15.50 80.51 C 19.05 75.53 21.95 70.08 23.07 64.01 Z" />
</g>
<g id="#323535e2">
<path fill="#323535" opacity="0.89" d=" M 24.33 67.94 C 24.56 69.82 24.69 71.71 24.81 73.60 C 25.44 73.56 26.70 73.49 27.33 73.46 C 23.76 73.96 23.54 78.00 22.22 80.61 C 20.60 82.66 18.87 84.79 18.48 87.47 C 15.83 83.77 19.75 80.65 21.49 77.60 C 23.47 74.77 24.00 71.29 24.33 67.94 Z" />
</g>
<g id="#583722ff">
<path fill="#583722" opacity="1.00" d=" M 94.20 71.95 C 95.28 70.88 96.40 69.86 97.59 68.93 C 102.90 71.46 107.77 74.98 111.57 79.50 C 112.77 80.87 113.86 82.38 115.32 83.50 C 116.58 83.50 117.82 83.30 119.06 83.16 C 117.36 86.87 116.27 90.83 115.70 94.86 C 111.11 95.15 106.50 95.51 101.92 94.84 C 100.76 92.35 99.35 89.97 97.52 87.92 C 99.60 87.40 101.69 86.89 103.78 86.38 C 103.81 83.78 103.86 80.99 102.27 78.77 C 100.19 75.87 96.94 74.14 94.20 71.95 Z" />
</g>
<g id="#cd9821fb">
<path fill="#cd9821" opacity="1.00" d=" M 47.73 80.74 C 51.23 77.21 54.59 73.55 58.29 70.23 L 59.22 70.95 C 56.35 74.91 52.81 78.34 48.88 81.25 C 48.59 81.12 48.02 80.86 47.73 80.74 Z" />
</g>
<g id="#b6861cff">
<path fill="#b6861c" opacity="1.00" d=" M 59.22 70.95 C 60.38 71.62 61.54 72.30 62.72 72.94 C 59.48 77.43 54.57 80.11 50.16 83.25 C 49.84 82.75 49.20 81.75 48.88 81.25 C 52.81 78.34 56.35 74.91 59.22 70.95 Z" />
</g>
<g id="#63412bff">
<path fill="#63412b" opacity="1.00" d=" M 88.55 80.05 C 90.35 77.30 92.11 74.49 94.20 71.95 C 96.94 74.14 100.19 75.87 102.27 78.77 C 103.86 80.99 103.81 83.78 103.78 86.38 C 101.69 86.89 99.60 87.40 97.52 87.92 C 94.93 84.88 92.01 82.07 88.55 80.05 Z" />
</g>
<g id="#dfbe37ff">
<path fill="#dfbe37" opacity="1.00" d=" M 134.09 71.48 C 134.60 73.40 135.19 75.30 135.78 77.20 C 135.89 77.56 136.12 78.26 136.23 78.61 C 135.64 79.04 134.47 79.89 133.89 80.31 C 133.76 79.85 133.52 78.92 133.40 78.46 C 133.10 76.93 132.87 75.40 132.72 73.85 L 133.58 72.42 C 133.71 72.18 133.96 71.72 134.09 71.48 Z" />
</g>
<g id="#9a6514ff">
<path fill="#9a6514" opacity="1.00" d=" M 62.72 72.94 C 63.44 73.32 64.18 73.69 64.92 74.03 C 66.38 74.66 67.86 75.23 69.36 75.73 C 62.43 77.36 58.28 83.75 52.64 87.61 C 52.06 86.57 51.48 85.53 50.89 84.50 C 50.70 84.18 50.34 83.56 50.16 83.25 C 54.57 80.11 59.48 77.43 62.72 72.94 Z" />
</g>
<g id="#ecc32eff">
<path fill="#ecc32e" opacity="1.00" d=" M 22.22 80.61 C 23.54 78.00 23.76 73.96 27.33 73.46 L 27.16 74.51 C 23.42 79.97 22.98 86.90 18.93 92.17 C 18.89 91.13 18.83 89.05 18.80 88.02 C 21.05 86.17 22.06 83.45 22.22 80.61 Z" />
<path fill="#ecc32e" opacity="1.00" d=" M 119.09 154.09 C 119.99 155.24 121.54 156.30 121.21 157.98 C 121.08 161.62 120.45 165.22 120.12 168.85 C 120.85 168.02 121.59 167.20 122.33 166.38 C 123.79 167.57 125.24 168.78 126.70 169.98 C 126.27 170.25 125.41 170.78 124.98 171.04 C 121.87 171.92 121.22 174.99 120.90 177.80 C 119.45 175.08 116.75 171.97 118.43 168.74 C 119.04 167.04 119.32 165.24 119.20 163.44 C 119.18 160.32 119.23 157.21 119.09 154.09 Z" />
</g>
<g id="#9b641bf1">
<path fill="#9b641b" opacity="0.95" d=" M 129.20 76.53 C 130.39 75.65 131.58 74.78 132.72 73.85 C 132.87 75.40 133.10 76.93 133.40 78.46 C 131.89 78.04 130.49 77.40 129.20 76.53 Z" />
</g>
<g id="#bb8822ff">
<path fill="#bb8822" opacity="1.00" d=" M 27.16 74.51 C 28.96 77.37 28.19 80.79 27.41 83.83 C 32.09 83.40 36.91 83.24 41.23 81.18 C 40.92 81.69 40.28 82.71 39.96 83.22 C 35.68 84.34 31.26 84.66 26.84 84.57 C 26.57 84.58 26.03 84.61 25.76 84.62 C 23.63 87.65 23.28 92.52 18.94 93.25 C 18.94 92.98 18.93 92.44 18.93 92.17 C 22.98 86.90 23.42 79.97 27.16 74.51 Z" />
</g>
<g id="#6d4f36ff">
<path fill="#6d4f36" opacity="1.00" d=" M 41.23 81.18 C 42.45 78.33 45.73 79.79 47.73 80.74 C 48.02 80.86 48.59 81.12 48.88 81.25 C 49.20 81.75 49.84 82.75 50.16 83.25 C 50.34 83.56 50.70 84.18 50.89 84.50 C 45.22 89.14 37.70 90.71 32.36 95.78 L 32.13 95.96 L 30.71 95.21 C 29.76 94.70 28.82 94.19 27.88 93.67 C 26.92 90.73 26.66 87.64 26.84 84.57 C 31.26 84.66 35.68 84.34 39.96 83.22 C 40.28 82.71 40.92 81.69 41.23 81.18 Z" />
</g>
<g id="#ad7b18fa">
<path fill="#ad7b18" opacity="0.98" d=" M 71.05 82.06 C 72.23 80.33 74.40 79.78 76.14 78.79 C 76.31 79.68 76.43 80.58 76.60 81.46 C 72.10 84.55 68.11 88.41 65.27 93.08 C 63.96 95.99 63.73 99.24 62.63 102.22 C 62.06 103.62 61.77 105.11 61.87 106.62 C 61.89 109.14 61.46 111.64 60.94 114.10 C 61.16 109.24 61.18 104.36 60.79 99.51 C 61.51 94.96 63.87 91.03 66.39 87.27 C 68.52 86.13 69.89 84.11 71.05 82.06 Z" />
</g>
<g id="#c49828ff">
<path fill="#c49828" opacity="1.00" d=" M 133.89 80.31 C 134.47 79.89 135.64 79.04 136.23 78.61 C 137.27 80.34 138.45 81.97 139.72 83.54 C 140.71 84.71 141.74 85.84 142.77 86.98 C 142.69 88.30 142.85 89.60 143.25 90.88 C 142.90 91.04 142.19 91.36 141.84 91.52 C 139.07 87.86 136.19 84.29 133.89 80.31 Z" />
</g>
<g id="#a9771bff">
<path fill="#a9771b" opacity="1.00" d=" M 145.85 86.86 C 147.13 84.26 148.74 81.85 150.28 79.40 C 151.64 80.71 152.99 82.04 154.29 83.42 C 152.27 84.33 150.47 85.60 148.81 87.04 C 148.50 87.30 147.86 87.81 147.55 88.07 C 147.12 87.77 146.28 87.16 145.85 86.86 Z" />
</g>
<g id="#816416ff">
<path fill="#816416" opacity="1.00" d=" M 82.02 81.24 C 85.36 81.37 80.48 84.22 82.02 81.24 Z" />
</g>
<g id="#6a462eff">
<path fill="#6a462e" opacity="1.00" d=" M 79.94 83.98 C 82.30 84.87 84.43 83.40 86.39 82.28 C 91.16 85.01 94.75 89.27 97.86 93.70 C 94.91 93.62 91.93 93.73 89.08 94.56 L 88.89 94.60 C 88.04 91.01 86.71 87.52 84.33 84.65 C 82.80 84.50 80.22 85.82 79.38 84.02 L 79.94 83.98 Z" />
</g>
<g id="#a17417ff">
<path fill="#a17417" opacity="1.00" d=" M 25.76 84.62 C 26.03 84.61 26.57 84.58 26.84 84.57 C 26.66 87.64 26.92 90.73 27.88 93.67 C 28.82 94.19 29.76 94.70 30.71 95.21 C 26.71 94.56 22.64 94.65 18.62 94.91 L 18.62 94.54 C 18.70 94.22 18.86 93.57 18.94 93.25 C 23.28 92.52 23.63 87.65 25.76 84.62 Z" />
</g>
<g id="#7e5b42ff">
<path fill="#7e5b42" opacity="1.00" d=" M 148.81 87.04 C 150.47 85.60 152.27 84.33 154.29 83.42 C 156.77 83.41 159.61 83.69 161.32 85.72 C 163.62 88.05 162.69 91.56 163.12 94.48 C 162.84 94.48 162.29 94.46 162.02 94.45 C 160.28 93.57 158.64 92.51 156.92 91.59 C 156.63 91.60 156.04 91.63 155.74 91.65 L 155.69 91.66 C 153.89 90.91 152.08 90.20 150.29 89.45 C 153.49 88.25 156.86 88.87 160.10 89.55 C 158.97 88.47 157.89 87.33 156.61 86.44 C 154.05 85.67 151.34 86.53 148.81 87.04 Z" />
</g>
<g id="#7c7e7eff">
<path fill="#7c7e7e" opacity="1.00" d=" M 142.77 86.98 C 143.02 86.80 143.51 86.45 143.76 86.28 C 144.34 87.73 144.36 89.40 143.73 90.84 L 143.25 90.88 C 142.85 89.60 142.69 88.30 142.77 86.98 Z" />
</g>
<g id="#a8855dff">
<path fill="#a8855d" opacity="1.00" d=" M 148.81 87.04 C 151.34 86.53 154.05 85.67 156.61 86.44 C 157.89 87.33 158.97 88.47 160.10 89.55 C 156.86 88.87 153.49 88.25 150.29 89.45 C 149.35 89.04 148.44 88.56 147.55 88.07 C 147.86 87.81 148.50 87.30 148.81 87.04 Z" />
</g>
<g id="#e5be2eff">
<path fill="#e5be2e" opacity="1.00" d=" M 62.32 91.63 C 63.33 89.92 64.43 88.00 66.39 87.27 C 63.87 91.03 61.51 94.96 60.79 99.51 C 59.14 104.19 60.21 109.23 59.00 113.98 C 58.15 117.62 56.76 121.11 55.47 124.62 C 55.04 124.11 54.18 123.10 53.75 122.59 C 53.17 121.73 52.59 120.85 52.03 119.97 C 49.62 120.67 46.91 122.08 44.70 120.03 C 48.96 117.38 53.33 114.30 55.52 109.62 C 57.62 103.56 59.65 97.47 62.32 91.63 Z" />
</g>
<g id="#e9c42fff">
<path fill="#e9c42f" opacity="1.00" d=" M 145.55 90.77 C 145.64 89.46 145.71 88.16 145.85 86.86 C 146.28 87.16 147.12 87.77 147.55 88.07 C 148.44 88.56 149.35 89.04 150.29 89.45 C 152.08 90.20 153.89 90.91 155.69 91.66 C 150.20 93.41 144.17 94.30 139.57 98.02 C 138.49 98.79 137.40 99.55 136.29 100.27 L 134.84 100.79 C 132.75 95.88 137.96 92.86 141.84 91.52 C 142.19 91.36 142.90 91.04 143.25 90.88 L 143.73 90.84 L 145.55 90.77 Z" />
</g>
<g id="#dcb42cff">
<path fill="#dcb42c" opacity="1.00" d=" M 10.83 90.74 C 11.88 90.50 13.99 90.03 15.04 89.79 C 15.49 89.89 16.39 90.10 16.84 90.20 C 16.22 90.68 14.99 91.65 14.37 92.13 C 15.28 92.69 16.17 93.25 17.09 93.78 C 17.34 93.83 17.84 93.91 18.08 93.96 C 18.22 94.10 18.49 94.39 18.62 94.54 L 18.62 94.91 C 22.64 94.65 26.71 94.56 30.71 95.21 L 32.13 95.96 C 26.69 99.97 19.83 101.76 13.14 100.46 L 13.29 99.38 C 13.68 96.93 12.49 94.68 11.62 92.48 C 11.93 92.13 12.55 91.45 12.86 91.10 C 12.54 91.04 11.89 90.93 11.57 90.88 L 10.83 90.74 Z" />
</g>
<g id="#ffde37ff">
<path fill="#ffde37" opacity="1.00" d=" M 10.11 90.64 L 11.57 90.88 C 11.89 90.93 12.54 91.04 12.86 91.10 C 12.55 91.45 11.93 92.13 11.62 92.48 C 12.49 94.68 13.68 96.93 13.29 99.38 C 12.65 99.03 11.38 98.33 10.74 97.99 C 10.35 100.67 9.76 103.36 9.88 106.09 C 10.44 109.03 11.69 111.78 12.45 114.67 C 9.88 113.08 7.37 110.14 8.14 106.91 C 9.00 101.51 8.65 95.94 10.11 90.64 Z" />
</g>
<g id="#674932ff">
<path fill="#674932" opacity="1.00" d=" M 155.74 91.65 C 156.04 91.63 156.63 91.60 156.92 91.59 C 158.64 92.51 160.28 93.57 162.02 94.45 C 162.29 94.46 162.84 94.48 163.12 94.48 L 164.13 94.50 C 165.37 99.61 163.93 105.66 159.08 108.35 C 159.07 105.50 158.88 102.64 158.32 99.85 C 157.73 97.04 156.66 94.36 155.74 91.65 Z" />
</g>
<g id="#cfa427ff">
<path fill="#cfa427" opacity="1.00" d=" M 139.57 98.02 C 144.17 94.30 150.20 93.41 155.69 91.66 L 155.74 91.65 C 156.66 94.36 157.73 97.04 158.32 99.85 C 158.39 101.15 158.42 102.45 158.41 103.75 C 155.97 104.03 153.54 104.33 151.11 104.64 C 150.08 102.80 149.07 100.96 147.89 99.21 C 150.29 99.32 153.40 101.75 155.22 99.22 C 156.24 97.67 155.04 95.80 154.88 94.16 C 149.80 95.54 144.82 97.39 139.57 98.02 Z" />
</g>
<g id="#af801bff">
<path fill="#af801b" opacity="1.00" d=" M 101.92 94.84 C 106.50 95.51 111.11 95.15 115.70 94.86 C 117.31 95.20 118.58 96.34 119.99 97.14 C 120.27 100.78 117.77 103.55 116.80 106.86 C 116.00 106.33 115.21 105.79 114.41 105.27 C 113.06 108.34 111.66 111.38 110.18 114.40 C 108.74 112.03 107.54 109.51 106.44 106.97 C 107.50 104.13 108.98 101.47 110.74 99.00 C 108.51 98.55 106.29 98.08 104.08 97.60 C 104.98 97.23 105.89 96.85 106.80 96.48 C 105.37 96.31 103.93 96.15 102.51 95.93 C 102.36 95.66 102.07 95.11 101.92 94.84 Z" />
</g>
<g id="#b0821cff">
<path fill="#b0821c" opacity="1.00" d=" M 139.57 98.02 C 144.82 97.39 149.80 95.54 154.88 94.16 C 155.04 95.80 156.24 97.67 155.22 99.22 C 153.40 101.75 150.29 99.32 147.89 99.21 C 147.52 99.25 146.78 99.34 146.41 99.39 C 146.09 99.35 145.45 99.29 145.13 99.25 C 144.71 99.34 143.88 99.53 143.46 99.62 L 143.10 99.70 C 140.51 100.11 138.14 102.50 135.50 100.81 L 136.29 100.27 C 137.40 99.55 138.49 98.79 139.57 98.02 Z" />
</g>
<g id="#cda125ff">
<path fill="#cda125" opacity="1.00" d=" M 88.22 94.94 L 88.89 94.60 L 89.08 94.56 C 92.30 95.35 95.60 95.75 98.91 95.94 L 98.70 96.58 C 97.13 96.96 95.54 97.28 93.95 97.60 C 96.67 98.30 99.48 98.80 102.04 100.00 C 103.97 101.42 104.92 103.73 105.93 105.82 C 105.06 105.65 104.19 105.49 103.32 105.32 C 103.13 107.95 102.92 110.58 102.83 113.22 C 102.34 111.80 101.79 110.41 101.25 109.01 C 99.21 111.77 96.34 113.54 92.84 113.64 C 92.29 112.57 91.69 111.53 91.05 110.52 C 90.24 109.31 89.37 108.14 88.52 106.96 C 85.61 110.85 83.42 115.38 79.82 118.67 C 78.87 118.80 76.98 119.06 76.03 119.19 C 80.23 115.17 84.65 111.17 87.21 105.83 C 86.21 102.99 84.15 100.43 84.79 97.19 C 85.07 98.55 85.33 99.92 85.59 101.29 C 86.38 99.14 87.19 96.99 88.22 94.94 Z" />
</g>
<g id="#a77418ff">
<path fill="#a77418" opacity="1.00" d=" M 32.13 95.96 L 32.36 95.78 C 31.83 101.11 25.93 101.46 22.39 104.01 C 20.83 105.48 19.57 107.25 18.34 109.00 L 17.69 108.92 C 18.24 107.03 18.90 104.94 18.15 103.02 C 17.23 101.41 16.83 104.27 16.97 104.86 C 17.00 106.21 17.14 107.54 17.40 108.87 C 12.73 109.09 12.05 103.91 13.14 100.46 C 19.83 101.76 26.69 99.97 32.13 95.96 Z" />
</g>
<g id="#daae29ff">
<path fill="#daae29" opacity="1.00" d=" M 10.74 97.99 C 11.38 98.33 12.65 99.03 13.29 99.38 L 13.14 100.46 C 12.05 103.91 12.73 109.09 17.40 108.87 L 17.69 108.92 L 18.34 109.00 C 22.04 110.29 26.15 107.15 29.45 109.28 C 24.13 111.66 19.10 115.04 13.05 115.15 L 12.61 115.21 L 12.45 114.67 C 11.69 111.78 10.44 109.03 9.88 106.09 C 9.76 103.36 10.35 100.67 10.74 97.99 Z" />
</g>
<g id="#888672fd">
<path fill="#888672" opacity="1.00" d=" M 143.46 99.62 C 143.88 99.53 144.71 99.34 145.13 99.25 C 145.24 101.91 145.36 104.58 145.31 107.24 L 144.14 107.67 L 144.11 105.57 C 144.11 103.57 143.79 101.59 143.46 99.62 Z" />
</g>
<g id="#deb92cff">
<path fill="#deb92c" opacity="1.00" d=" M 146.41 99.39 C 146.78 99.34 147.52 99.25 147.89 99.21 C 149.07 100.96 150.08 102.80 151.11 104.64 C 153.54 104.33 155.97 104.03 158.41 103.75 C 157.91 105.06 158.08 106.90 156.85 107.83 C 151.55 111.13 144.41 111.49 140.33 116.65 C 138.38 115.86 137.73 113.97 137.27 112.09 C 138.25 111.10 139.24 110.12 140.21 109.13 C 141.52 108.65 142.83 108.15 144.14 107.67 L 145.31 107.24 C 146.60 106.80 147.91 106.39 149.21 105.97 C 148.30 103.77 147.36 101.57 146.41 99.39 Z" />
</g>
<g id="#b48c22f5">
<path fill="#b48c22" opacity="0.96" d=" M 59.00 113.98 C 60.21 109.23 59.14 104.19 60.79 99.51 C 61.18 104.36 61.16 109.24 60.94 114.10 C 60.75 115.67 60.32 117.21 59.78 118.69 C 58.84 121.13 57.91 123.57 57.11 126.06 L 56.58 127.66 L 55.83 127.19 L 54.74 126.52 C 54.92 126.04 55.29 125.09 55.47 124.62 C 56.76 121.11 58.15 117.62 59.00 113.98 Z" />
</g>
<g id="#291f1f7f">
<path fill="#291f1f" opacity="0.50" d=" M 143.10 99.70 L 143.46 99.62 C 143.79 101.59 144.11 103.57 144.11 105.57 C 142.18 104.86 142.34 101.38 143.10 99.70 Z" />
</g>
<g id="#b8911dfd">
<path fill="#b8911d" opacity="1.00" d=" M 158.32 99.85 C 158.88 102.64 159.07 105.50 159.08 108.35 C 157.71 112.31 153.71 113.53 149.97 114.10 C 148.66 114.40 147.35 114.71 146.07 115.11 L 145.12 115.52 C 143.60 116.13 142.06 117.01 140.33 116.65 C 144.41 111.49 151.55 111.13 156.85 107.83 C 158.08 106.90 157.91 105.06 158.41 103.75 C 158.42 102.45 158.39 101.15 158.32 99.85 Z" />
</g>
<g id="#727273ff">
<path fill="#727273" opacity="1.00" d=" M 16.97 104.86 C 16.83 104.27 17.23 101.41 18.15 103.02 C 18.90 104.94 18.24 107.03 17.69 108.92 L 17.40 108.87 C 17.14 107.54 17.00 106.21 16.97 104.86 Z" />
</g>
<g id="#2d210984">
<path fill="#2d2109" opacity="0.52" d=" M 61.87 106.62 C 61.77 105.11 62.06 103.62 62.63 102.22 C 63.91 103.23 63.90 106.86 61.87 106.62 Z" />
</g>
<g id="#e5c02fff">
<path fill="#e5c02f" opacity="1.00" d=" M 103.32 105.32 C 104.19 105.49 105.06 105.65 105.93 105.82 C 106.06 106.11 106.31 106.68 106.44 106.97 C 107.54 109.51 108.74 112.03 110.18 114.40 C 112.81 117.77 116.29 120.37 119.88 122.63 C 118.54 123.17 117.25 123.80 115.94 124.39 C 113.87 123.66 111.82 122.88 109.76 122.10 C 109.31 125.09 108.86 128.11 109.08 131.14 C 107.37 127.92 105.64 124.66 104.64 121.13 C 103.93 118.52 103.38 115.87 102.83 113.22 C 102.92 110.58 103.13 107.95 103.32 105.32 Z" />
</g>
<g id="#c89823ff">
<path fill="#c89823" opacity="1.00" d=" M 114.41 105.27 C 115.21 105.79 116.00 106.33 116.80 106.86 C 117.73 113.29 120.00 119.57 124.50 124.39 C 122.95 123.81 121.42 123.23 119.88 122.63 C 116.29 120.37 112.81 117.77 110.18 114.40 C 111.66 111.38 113.06 108.34 114.41 105.27 Z" />
</g>
<g id="#bc8e1fff">
<path fill="#bc8e1f" opacity="1.00" d=" M 88.52 106.96 C 89.37 108.14 90.24 109.31 91.05 110.52 C 89.06 116.75 84.28 121.93 78.33 124.56 C 75.18 124.36 72.08 123.56 68.90 123.62 L 68.37 123.57 C 69.96 121.00 73.32 120.18 76.03 119.19 C 76.98 119.06 78.87 118.80 79.82 118.67 C 83.42 115.38 85.61 110.85 88.52 106.96 Z" />
</g>
<g id="#c09220fe">
<path fill="#c09220" opacity="1.00" d=" M 29.45 109.28 L 29.59 109.21 C 29.89 113.50 25.97 116.13 22.03 116.05 C 20.66 116.17 19.29 116.26 17.92 116.30 L 17.02 116.11 C 15.69 115.83 14.37 115.50 13.05 115.15 C 19.10 115.04 24.13 111.66 29.45 109.28 Z" />
</g>
<g id="#b5861dff">
<path fill="#b5861d" opacity="1.00" d=" M 92.84 113.64 C 96.34 113.54 99.21 111.77 101.25 109.01 C 101.79 110.41 102.34 111.80 102.83 113.22 C 103.38 115.87 103.93 118.52 104.64 121.13 C 100.54 121.81 96.59 119.79 93.93 116.79 C 93.55 115.74 93.22 114.68 92.84 113.64 Z" />
</g>
<g id="#9e6815ff">
<path fill="#9e6815" opacity="1.00" d=" M 78.33 124.56 C 84.28 121.93 89.06 116.75 91.05 110.52 C 91.69 111.53 92.29 112.57 92.84 113.64 C 93.22 114.68 93.55 115.74 93.93 116.79 L 94.20 117.61 C 89.74 119.67 86.06 122.97 82.67 126.47 C 80.27 129.58 76.35 130.20 72.66 130.08 C 69.57 128.96 66.90 126.85 66.33 123.42 C 66.84 123.46 67.86 123.53 68.37 123.57 L 68.90 123.62 C 72.08 123.56 75.18 124.36 78.33 124.56 Z" />
</g>
<g id="#7f7f7bfd">
<path fill="#7f7f7b" opacity="1.00" d=" M 145.12 115.52 L 146.07 115.11 C 146.51 119.55 146.99 123.98 147.45 128.41 C 146.76 128.25 145.38 127.93 144.68 127.77 C 144.43 126.62 144.19 125.48 143.96 124.34 C 144.51 121.42 144.70 118.45 145.12 115.52 Z" />
</g>
<g id="#54410fa1">
<path fill="#54410f" opacity="0.63" d=" M 57.11 126.06 C 57.91 123.57 58.84 121.13 59.78 118.69 C 59.52 121.34 58.55 123.83 57.11 126.06 Z" />
</g>
<g id="#e9d27aff">
<path fill="#e9d27a" opacity="1.00" d=" M 38.97 121.88 C 40.86 121.20 42.78 120.63 44.70 120.03 C 46.91 122.08 49.62 120.67 52.03 119.97 C 52.59 120.85 53.17 121.73 53.75 122.59 C 52.37 125.69 51.78 129.70 48.48 131.42 C 44.02 133.96 38.86 134.76 33.98 136.16 C 34.27 138.17 34.59 140.18 34.82 142.20 C 33.38 142.73 31.93 143.23 30.48 143.73 C 31.25 142.22 32.03 140.72 32.78 139.21 C 30.71 138.98 28.63 138.75 26.56 138.52 C 27.63 137.39 28.73 136.29 29.82 135.18 C 28.57 135.19 26.06 135.20 24.81 135.21 C 26.29 134.19 27.77 133.16 29.25 132.12 C 27.70 131.71 26.06 131.67 24.56 131.08 C 25.50 130.06 26.82 129.56 28.01 128.94 C 27.44 129.50 26.91 130.09 26.41 130.72 C 29.84 131.56 30.58 127.67 31.84 125.44 C 35.23 124.50 38.60 123.50 41.85 122.14 C 41.13 122.08 39.69 121.95 38.97 121.88 Z" />
</g>
<g id="#50503885">
<path fill="#505038" opacity="0.52" d=" M 26.82 121.93 C 30.25 122.35 33.71 122.52 37.16 122.15 C 34.33 122.80 31.43 123.17 28.53 122.85 C 29.04 123.69 30.22 124.48 29.44 125.54 C 28.54 124.36 27.68 123.14 26.82 121.93 Z" />
</g>
<g id="#f9f599fc">
<path fill="#f9f599" opacity="1.00" d=" M 37.16 122.15 C 37.61 122.08 38.51 121.95 38.97 121.88 C 39.69 121.95 41.13 122.08 41.85 122.14 C 38.60 123.50 35.23 124.50 31.84 125.44 C 30.58 127.67 29.84 131.56 26.41 130.72 C 26.91 130.09 27.44 129.50 28.01 128.94 L 28.72 128.17 L 26.43 127.92 C 27.43 127.12 28.43 126.33 29.44 125.54 C 30.22 124.48 29.04 123.69 28.53 122.85 C 31.43 123.17 34.33 122.80 37.16 122.15 Z" />
</g>
<g id="#ead57cff">
<path fill="#ead57c" opacity="1.00" d=" M 109.76 122.10 C 111.82 122.88 113.87 123.66 115.94 124.39 C 117.25 123.80 118.54 123.17 119.88 122.63 C 121.42 123.23 122.95 123.81 124.50 124.39 C 129.35 126.49 134.60 127.35 139.87 127.19 C 138.48 127.88 137.09 128.58 135.71 129.29 C 129.00 130.14 125.14 137.95 118.04 136.98 C 115.42 137.22 113.87 134.99 112.26 133.35 C 111.94 133.84 111.28 134.82 110.96 135.30 C 110.34 133.91 109.62 132.56 109.08 131.14 C 108.86 128.11 109.31 125.09 109.76 122.10 Z" />
</g>
<g id="#d2b465ff">
<path fill="#d2b465" opacity="1.00" d=" M 53.75 122.59 C 54.18 123.10 55.04 124.11 55.47 124.62 C 55.29 125.09 54.92 126.04 54.74 126.52 C 52.55 133.26 46.20 136.97 40.84 140.93 C 39.36 141.72 39.38 143.33 39.41 144.79 C 39.08 145.23 38.41 146.12 38.08 146.56 C 38.26 145.68 38.63 143.92 38.81 143.04 C 37.46 143.66 34.77 144.92 33.43 145.55 C 33.78 144.71 34.47 143.03 34.82 142.20 C 34.59 140.18 34.27 138.17 33.98 136.16 C 38.86 134.76 44.02 133.96 48.48 131.42 C 51.78 129.70 52.37 125.69 53.75 122.59 Z" />
</g>
<g id="#6f5138ff">
<path fill="#6f5138" opacity="1.00" d=" M 61.31 127.32 C 62.21 125.22 64.50 124.48 66.33 123.42 C 66.90 126.85 69.57 128.96 72.66 130.08 C 74.22 130.88 75.87 131.61 77.18 132.80 C 78.75 135.40 77.10 138.24 75.78 140.53 C 71.95 140.79 67.86 140.86 64.67 143.30 C 64.18 143.57 63.70 143.84 63.22 144.12 C 63.03 144.89 62.64 146.42 62.45 147.19 C 62.44 145.84 62.45 144.49 62.48 143.14 C 61.98 142.75 60.99 141.99 60.50 141.60 C 59.81 136.88 58.76 131.71 61.31 127.32 Z" />
</g>
<g id="#10111155">
<path fill="#101111" opacity="0.33" d=" M 144.68 127.77 C 142.63 128.78 141.62 124.12 143.96 124.34 C 144.19 125.48 144.43 126.62 144.68 127.77 Z" />
</g>
<g id="#5a3b25ff">
<path fill="#5a3b25" opacity="1.00" d=" M 72.66 130.08 C 76.35 130.20 80.27 129.58 82.67 126.47 C 85.24 129.76 85.28 133.95 84.17 137.81 C 83.33 138.65 82.53 139.53 81.64 140.33 C 79.87 141.25 77.96 141.90 76.01 142.35 C 75.14 142.42 73.40 142.57 72.52 142.64 C 69.90 142.81 67.28 142.99 64.67 143.30 C 67.86 140.86 71.95 140.79 75.78 140.53 C 77.10 138.24 78.75 135.40 77.18 132.80 C 75.87 131.61 74.22 130.88 72.66 130.08 Z" />
</g>
<g id="#ad8644ff">
<path fill="#ad8644" opacity="1.00" d=" M 40.84 140.93 C 46.20 136.97 52.55 133.26 54.74 126.52 L 55.83 127.19 L 56.45 127.62 C 53.25 135.60 46.09 141.05 42.54 148.82 C 42.27 147.65 42.01 146.48 41.74 145.31 C 41.16 145.18 39.99 144.92 39.41 144.79 C 39.38 143.33 39.36 141.72 40.84 140.93 Z" />
</g>
<g id="#e0c773ff">
<path fill="#e0c773" opacity="1.00" d=" M 118.04 136.98 C 125.14 137.95 129.00 130.14 135.71 129.29 C 136.16 129.62 137.07 130.29 137.52 130.62 C 135.42 132.22 133.17 133.95 132.43 136.62 C 131.77 139.65 128.15 139.95 125.70 140.78 C 121.65 142.04 117.68 140.05 113.87 138.90 C 114.98 140.63 116.13 142.34 117.22 144.09 L 117.23 145.83 C 114.11 143.01 111.52 139.59 110.96 135.30 C 111.28 134.82 111.94 133.84 112.26 133.35 C 113.87 134.99 115.42 137.22 118.04 136.98 Z" />
</g>
<g id="#d0b263ff">
<path fill="#d0b263" opacity="1.00" d=" M 137.52 130.62 C 138.15 131.61 138.53 132.68 138.64 133.85 C 140.81 134.57 142.98 135.29 145.10 136.17 C 141.52 136.70 137.93 137.17 134.35 137.61 C 135.46 138.65 136.60 139.67 137.73 140.69 C 133.80 141.48 129.18 141.60 126.52 145.08 C 126.63 145.32 126.85 145.79 126.95 146.02 C 127.22 146.55 127.74 147.61 128.00 148.14 C 128.39 148.93 128.76 149.74 129.13 150.54 C 127.75 150.05 126.39 149.52 124.97 149.17 C 124.17 150.07 123.48 151.05 122.77 152.01 C 121.32 149.11 119.40 146.48 117.22 144.09 C 116.13 142.34 114.98 140.63 113.87 138.90 C 117.68 140.05 121.65 142.04 125.70 140.78 C 128.15 139.95 131.77 139.65 132.43 136.62 C 133.17 133.95 135.42 132.22 137.52 130.62 Z" />
</g>
<g id="#b4871dfe">
<path fill="#b4871d" opacity="1.00" d=" M 76.01 142.35 C 77.96 141.90 79.87 141.25 81.64 140.33 C 82.06 147.15 84.32 153.65 88.26 159.22 C 80.55 156.91 80.28 147.87 76.01 142.35 Z" />
</g>
<g id="#b8974eff">
<path fill="#b8974e" opacity="1.00" d=" M 126.52 145.08 C 129.18 141.60 133.80 141.48 137.73 140.69 L 137.95 140.65 C 139.10 141.67 140.25 142.67 141.41 143.67 C 139.82 143.97 138.25 144.30 136.68 144.68 C 135.87 144.59 135.06 144.49 134.25 144.40 C 133.87 145.73 133.49 147.06 133.12 148.40 C 132.15 147.92 131.19 147.43 130.23 146.95 C 129.21 146.40 128.12 146.09 126.95 146.02 C 126.85 145.79 126.63 145.32 126.52 145.08 Z" />
</g>
<g id="#dfb72bff">
<path fill="#dfb72b" opacity="1.00" d=" M 64.67 143.30 C 67.28 142.99 69.90 142.81 72.52 142.64 C 75.23 146.26 76.56 150.58 78.50 154.59 C 81.38 158.65 85.02 162.12 88.10 166.04 C 86.11 166.94 84.11 167.82 82.10 168.68 C 83.59 168.85 85.08 169.03 86.58 169.21 C 84.67 169.79 82.76 170.39 80.82 170.86 C 75.87 171.54 70.98 172.64 66.02 173.20 C 64.88 172.90 63.75 172.58 62.62 172.25 C 64.41 171.95 66.20 171.67 68.00 171.38 C 64.94 171.34 61.88 171.30 58.83 171.24 C 58.27 169.92 57.69 168.61 57.04 167.34 C 61.70 164.64 61.67 158.85 63.60 154.41 C 64.69 151.13 67.13 146.48 63.22 144.12 C 63.70 143.84 64.18 143.57 64.67 143.30 Z" />
</g>
<g id="#c99f24ff">
<path fill="#c99f24" opacity="1.00" d=" M 72.52 142.64 C 73.40 142.57 75.14 142.42 76.01 142.35 C 80.28 147.87 80.55 156.91 88.26 159.22 C 89.60 159.96 91.01 160.95 91.65 162.39 C 92.22 164.07 92.78 165.75 93.35 167.44 L 93.38 167.53 C 91.37 168.07 89.32 168.63 87.64 169.92 C 85.38 170.33 83.10 170.60 80.82 170.86 C 82.76 170.39 84.67 169.79 86.58 169.21 C 85.08 169.03 83.59 168.85 82.10 168.68 C 84.11 167.82 86.11 166.94 88.10 166.04 C 85.02 162.12 81.38 158.65 78.50 154.59 C 76.56 150.58 75.23 146.26 72.52 142.64 Z" />
</g>
<g id="#cda326ff">
<path fill="#cda326" opacity="1.00" d=" M 134.25 144.40 C 135.06 144.49 135.87 144.59 136.68 144.68 C 138.12 148.33 140.28 151.71 141.22 155.54 C 141.16 155.89 141.03 156.60 140.97 156.95 C 138.53 154.76 136.10 152.56 133.61 150.43 C 132.74 156.66 130.79 162.71 130.57 169.03 C 130.57 171.26 128.77 172.85 127.64 174.58 C 126.58 173.51 125.52 172.44 124.46 171.37 L 124.98 171.04 C 125.41 170.78 126.27 170.25 126.70 169.98 C 125.24 168.78 123.79 167.57 122.33 166.38 C 121.59 167.20 120.85 168.02 120.12 168.85 C 120.45 165.22 121.08 161.62 121.21 157.98 C 121.54 156.30 119.99 155.24 119.09 154.09 C 118.26 151.40 117.29 148.67 117.23 145.83 L 117.22 144.09 C 119.40 146.48 121.32 149.11 122.77 152.01 C 123.48 151.05 124.17 150.07 124.97 149.17 C 126.39 149.52 127.75 150.05 129.13 150.54 C 128.76 149.74 128.39 148.93 128.00 148.14 C 128.56 147.84 129.68 147.25 130.23 146.95 C 131.19 147.43 132.15 147.92 133.12 148.40 C 133.49 147.06 133.87 145.73 134.25 144.40 Z" />
</g>
<g id="#f8d430fe">
<path fill="#f8d430" opacity="1.00" d=" M 63.22 144.12 C 67.13 146.48 64.69 151.13 63.60 154.41 C 61.67 158.85 61.70 164.64 57.04 167.34 L 55.91 167.40 C 55.48 165.46 55.10 163.52 54.72 161.57 C 52.35 162.69 49.79 163.24 47.18 163.25 C 48.41 162.17 49.66 161.11 50.97 160.13 C 51.76 159.52 52.60 159.02 53.50 158.61 C 54.04 158.80 55.12 159.19 55.66 159.38 C 56.26 160.96 56.78 162.57 57.31 164.17 C 59.42 158.75 63.40 153.39 62.42 147.31 L 62.45 147.19 C 62.64 146.42 63.03 144.89 63.22 144.12 Z" />
</g>
<g id="#735016ff">
<path fill="#735016" opacity="1.00" d=" M 126.95 146.02 C 128.12 146.09 129.21 146.40 130.23 146.95 C 129.68 147.25 128.56 147.84 128.00 148.14 C 127.74 147.61 127.22 146.55 126.95 146.02 Z" />
</g>
<g id="#fef738ff">
<path fill="#fef738" opacity="1.00" d=" M 62.42 147.31 C 63.40 153.39 59.42 158.75 57.31 164.17 C 56.78 162.57 56.26 160.96 55.66 159.38 C 55.12 159.19 54.04 158.80 53.50 158.61 C 58.06 156.36 60.21 151.59 62.42 147.31 Z" />
</g>
<g id="#ba8e20ff">
<path fill="#ba8e20" opacity="1.00" d=" M 130.57 169.03 C 130.79 162.71 132.74 156.66 133.61 150.43 C 136.10 152.56 138.53 154.76 140.97 156.95 C 141.03 156.60 141.16 155.89 141.22 155.54 L 141.32 155.01 C 142.19 157.03 142.97 159.08 143.74 161.15 C 141.38 165.11 138.83 169.05 137.69 173.58 C 134.99 173.88 132.29 174.21 129.61 174.61 C 133.16 174.92 136.75 175.07 140.24 175.82 C 136.09 175.53 131.58 174.89 127.81 177.14 C 127.77 176.50 127.68 175.22 127.64 174.58 C 128.77 172.85 130.57 171.26 130.57 169.03 Z" />
</g>
<g id="#daaf28ff">
<path fill="#daaf28" opacity="1.00" d=" M 44.34 163.23 C 46.47 162.02 48.74 161.12 50.97 160.13 C 49.66 161.11 48.41 162.17 47.18 163.25 C 49.79 163.24 52.35 162.69 54.72 161.57 C 55.10 163.52 55.48 165.46 55.91 167.40 L 56.02 167.92 C 54.92 168.17 53.81 168.43 52.71 168.68 C 50.06 167.91 47.33 167.47 44.58 167.19 C 44.37 165.88 44.28 164.55 44.34 163.23 Z" />
</g>
<g id="#d6ac28ff">
<path fill="#d6ac28" opacity="1.00" d=" M 143.74 161.15 L 143.86 160.94 C 145.04 165.08 147.92 168.25 150.87 171.23 C 152.17 172.24 151.85 173.93 151.88 175.37 C 150.51 173.93 149.16 172.48 147.81 171.04 C 146.38 172.83 145.22 174.81 144.32 176.92 C 142.96 176.57 141.61 176.14 140.24 175.82 C 136.75 175.07 133.16 174.92 129.61 174.61 C 132.29 174.21 134.99 173.88 137.69 173.58 C 138.83 169.05 141.38 165.11 143.74 161.15 Z" />
</g>
<g id="#97744aff">
<path fill="#97744a" opacity="1.00" d=" M 91.65 162.39 L 92.75 161.47 C 95.11 162.77 96.76 164.96 98.57 166.89 C 96.83 167.06 95.09 167.24 93.35 167.44 C 92.78 165.75 92.22 164.07 91.65 162.39 Z" />
</g>
<g id="#5c4f1393">
<path fill="#5c4f13" opacity="0.58" d=" M 118.43 168.74 C 117.18 167.46 117.12 163.57 119.20 163.44 C 119.32 165.24 119.04 167.04 118.43 168.74 Z" />
</g>
<g id="#d0ba87ff">
<path fill="#d0ba87" opacity="1.00" d=" M 39.76 165.77 C 40.09 165.79 40.75 165.83 41.08 165.85 C 41.72 166.01 43.01 166.33 43.65 166.49 C 43.65 167.48 43.64 169.45 43.63 170.43 C 40.76 170.84 37.89 171.28 35.01 171.69 L 35.43 171.04 C 36.84 169.25 38.38 167.58 39.76 165.77 Z" />
</g>
<g id="#c19923ff">
<path fill="#c19923" opacity="1.00" d=" M 44.58 167.19 C 47.33 167.47 50.06 167.91 52.71 168.68 C 52.27 169.27 51.37 170.46 50.92 171.06 C 49.18 171.08 47.43 171.06 45.69 170.96 C 45.31 169.70 44.93 168.45 44.58 167.19 Z" />
</g>
<g id="#71632ee5">
<path fill="#71632e" opacity="0.90" d=" M 55.91 167.40 L 57.04 167.34 C 57.69 168.61 58.27 169.92 58.83 171.24 C 59.19 172.12 59.56 173.00 59.92 173.88 C 58.15 173.73 56.38 173.69 54.61 173.65 C 55.25 173.48 56.53 173.14 57.17 172.97 C 56.79 171.29 56.40 169.61 56.02 167.92 L 55.91 167.40 Z" />
</g>
<g id="#d7bc8dff">
<path fill="#d7bc8d" opacity="1.00" d=" M 52.71 168.68 C 53.81 168.43 54.92 168.17 56.02 167.92 C 56.40 169.61 56.79 171.29 57.17 172.97 C 56.53 173.14 55.25 173.48 54.61 173.65 L 53.55 173.87 C 51.86 173.97 50.17 174.03 48.49 174.19 C 49.29 173.13 50.12 172.11 50.92 171.06 C 51.37 170.46 52.27 169.27 52.71 168.68 Z" />
</g>
<g id="#a7831ee4">
<path fill="#a7831e" opacity="0.89" d=" M 58.83 171.24 C 61.88 171.30 64.94 171.34 68.00 171.38 C 66.20 171.67 64.41 171.95 62.62 172.25 C 63.75 172.58 64.88 172.90 66.02 173.20 C 64.01 173.64 61.97 173.90 59.92 173.88 C 59.56 173.00 59.19 172.12 58.83 171.24 Z" />
</g>
<g id="#d9ca91ff">
<path fill="#d9ca91" opacity="1.00" d=" M 122.50 173.58 C 123.13 172.82 123.78 172.09 124.46 171.37 C 125.52 172.44 126.58 173.51 127.64 174.58 C 127.68 175.22 127.77 176.50 127.81 177.14 L 127.85 177.75 C 127.41 178.15 126.53 178.95 126.09 179.35 C 124.62 178.78 123.15 178.21 121.67 177.68 C 121.77 176.29 121.69 174.79 122.50 173.58 Z" />
</g>
<g id="#d9c28aff">
<path fill="#d9c28a" opacity="1.00" d=" M 144.32 176.92 C 145.22 174.81 146.38 172.83 147.81 171.04 C 149.16 172.48 150.51 173.93 151.88 175.37 C 151.22 176.58 150.56 177.79 149.89 178.99 C 148.04 178.28 146.19 177.57 144.32 176.92 Z" />
</g>
<g id="#28221962">
<path fill="#282219" opacity="0.38" d=" M 48.03 174.48 L 48.49 174.19 C 50.17 174.03 51.86 173.97 53.55 173.87 C 53.09 175.74 49.04 176.02 48.03 174.48 Z" />
</g>
</svg>
