<?xml version="1.0" encoding="UTF-8" ?>
<!DOCTYPE svg PUBLIC "-//W3C//DTD SVG 1.1//EN" "http://www.w3.org/Graphics/SVG/1.1/DTD/svg11.dtd">
<svg width="107pt" height="162pt" viewBox="0 0 107 162" version="1.1" xmlns="http://www.w3.org/2000/svg">
<g id="#484a4585">
<path fill="#484a45" opacity="0.52" d=" M 48.22 26.56 C 48.97 24.09 54.36 26.18 52.79 28.68 C 52.49 28.39 51.89 27.79 51.58 27.49 C 50.47 27.15 49.35 26.84 48.22 26.56 Z" />
</g>
<g id="#cbd8bfff">
<path fill="#cbd8bf" opacity="1.00" d=" M 43.12 30.56 C 44.42 28.78 46.03 27.16 48.22 26.56 C 49.35 26.84 50.47 27.15 51.58 27.49 C 51.89 27.79 52.49 28.39 52.79 28.68 C 53.01 29.26 53.45 30.40 53.67 30.98 C 55.00 30.34 56.35 29.75 57.72 29.22 C 55.74 30.89 53.72 32.51 51.63 34.04 C 51.15 32.79 51.21 31.20 50.21 30.20 C 47.84 30.19 45.49 30.46 43.12 30.56 Z" />
<path fill="#cbd8bf" opacity="1.00" d=" M 57.32 29.62 C 57.99 29.35 59.33 28.82 60.00 28.55 C 64.07 29.98 63.34 34.87 63.16 38.27 C 62.05 35.68 60.89 33.11 60.24 30.36 C 59.51 30.17 58.05 29.80 57.32 29.62 Z" />
</g>
<g id="#dbdfcbff">
<path fill="#dbdfcb" opacity="1.00" d=" M 34.12 37.24 C 34.20 33.53 35.49 28.62 39.88 28.15 C 41.06 29.23 41.90 30.59 42.82 31.88 C 42.62 32.97 42.42 34.05 42.21 35.13 C 40.46 34.01 38.65 33.00 36.84 31.99 C 35.94 33.74 35.02 35.49 34.12 37.24 Z" />
<path fill="#dbdfcb" opacity="1.00" d=" M 53.02 51.32 C 54.29 50.95 56.05 50.91 56.67 52.35 C 58.78 55.99 58.41 60.36 58.47 64.42 C 57.93 64.55 56.85 64.80 56.31 64.93 C 56.76 60.22 57.21 54.60 53.02 51.32 Z" />
</g>
<g id="#a4b6a9ff">
<path fill="#a4b6a9" opacity="1.00" d=" M 57.72 29.22 C 58.43 28.86 59.24 28.76 60.00 28.55 C 59.33 28.82 57.99 29.35 57.32 29.62 C 58.05 29.80 59.51 30.17 60.24 30.36 C 60.89 33.11 62.05 35.68 63.16 38.27 C 63.30 39.94 63.12 41.62 63.05 43.29 C 62.79 42.90 62.28 42.11 62.02 41.72 C 61.33 40.68 60.63 39.64 59.92 38.61 C 59.01 37.40 58.08 36.19 56.92 35.21 C 54.84 35.28 52.58 35.61 50.89 36.90 C 48.85 39.08 47.29 41.66 45.59 44.10 C 46.20 42.42 46.81 40.73 47.34 39.02 C 47.93 37.21 48.52 35.39 49.07 33.57 C 46.57 33.83 44.09 34.45 42.04 35.99 L 42.21 35.13 C 42.42 34.05 42.62 32.97 42.82 31.88 C 42.88 31.55 43.00 30.89 43.05 30.56 L 43.12 30.56 C 45.49 30.46 47.84 30.19 50.21 30.20 C 51.21 31.20 51.15 32.79 51.63 34.04 C 53.72 32.51 55.74 30.89 57.72 29.22 Z" />
</g>
<g id="#b4c2b7ff">
<path fill="#b4c2b7" opacity="1.00" d=" M 36.84 31.99 C 38.65 33.00 40.46 34.01 42.21 35.13 L 42.04 35.99 L 41.41 36.38 C 39.85 36.86 38.24 37.16 36.64 37.47 C 36.32 38.71 36.00 39.95 35.69 41.19 C 35.10 40.00 34.52 38.80 33.94 37.60 L 34.12 37.24 C 35.02 35.49 35.94 33.74 36.84 31.99 Z" />
</g>
<g id="#8fa19fff">
<path fill="#8fa19f" opacity="1.00" d=" M 42.04 35.99 C 44.09 34.45 46.57 33.83 49.07 33.57 C 48.52 35.39 47.93 37.21 47.34 39.02 L 46.96 37.36 C 43.52 39.68 42.19 43.62 41.77 47.57 C 41.41 47.84 40.69 48.37 40.32 48.63 C 40.18 47.17 40.04 45.70 39.95 44.23 C 39.86 42.24 39.84 40.24 39.81 38.25 C 39.09 39.43 38.37 40.62 37.70 41.83 C 37.09 44.33 36.67 46.87 36.33 49.42 C 35.86 47.33 34.58 45.61 33.17 44.05 C 33.30 43.44 33.45 42.83 33.62 42.23 C 34.18 40.73 34.28 39.16 33.94 37.60 C 34.52 38.80 35.10 40.00 35.69 41.19 C 36.00 39.95 36.32 38.71 36.64 37.47 C 38.24 37.16 39.85 36.86 41.41 36.38 L 42.04 35.99 Z" />
</g>
<g id="#8ea39dff">
<path fill="#8ea39d" opacity="1.00" d=" M 50.89 36.90 C 52.58 35.61 54.84 35.28 56.92 35.21 C 58.08 36.19 59.01 37.40 59.92 38.61 C 57.33 39.26 54.43 39.49 52.32 41.29 C 49.95 43.35 48.23 46.01 46.39 48.52 C 45.86 48.64 44.81 48.88 44.28 49.00 C 44.51 47.91 44.75 46.82 45.01 45.73 C 45.15 45.32 45.44 44.51 45.59 44.10 C 47.29 41.66 48.85 39.08 50.89 36.90 Z" />
</g>
<g id="#5587a2ff">
<path fill="#5587a2" opacity="1.00" d=" M 41.77 47.57 C 42.19 43.62 43.52 39.68 46.96 37.36 L 47.34 39.02 C 46.81 40.73 46.20 42.42 45.59 44.10 C 45.44 44.51 45.15 45.32 45.01 45.73 C 43.92 46.33 42.84 46.94 41.77 47.57 Z" />
</g>
<g id="#558ca6ff">
<path fill="#558ca6" opacity="1.00" d=" M 37.70 41.83 C 38.37 40.62 39.09 39.43 39.81 38.25 C 39.84 40.24 39.86 42.24 39.95 44.23 C 39.49 44.40 38.59 44.73 38.14 44.90 C 38.03 44.13 37.81 42.60 37.70 41.83 Z" />
</g>
<g id="#7dabbfff">
<path fill="#7dabbf" opacity="1.00" d=" M 52.32 41.29 C 54.43 39.49 57.33 39.26 59.92 38.61 C 60.63 39.64 61.33 40.68 62.02 41.72 C 61.27 42.55 60.53 43.37 59.77 44.19 C 56.88 44.38 53.73 44.40 51.35 46.31 C 47.84 48.56 46.65 52.90 43.62 55.57 C 39.58 57.22 35.44 53.63 36.33 49.42 C 36.67 46.87 37.09 44.33 37.70 41.83 C 37.81 42.60 38.03 44.13 38.14 44.90 C 38.59 44.73 39.49 44.40 39.95 44.23 C 40.04 45.70 40.18 47.17 40.32 48.63 C 40.69 48.37 41.41 47.84 41.77 47.57 C 42.84 46.94 43.92 46.33 45.01 45.73 C 44.75 46.82 44.51 47.91 44.28 49.00 C 44.81 48.88 45.86 48.64 46.39 48.52 C 48.23 46.01 49.95 43.35 52.32 41.29 Z" />
</g>
<g id="#9cc3cfff">
<path fill="#9cc3cf" opacity="1.00" d=" M 59.77 44.19 C 60.53 43.37 61.27 42.55 62.02 41.72 C 62.28 42.11 62.79 42.90 63.05 43.29 C 67.99 51.09 68.89 60.92 67.92 69.91 C 66.12 63.51 66.56 56.71 64.60 50.33 C 62.66 52.33 60.74 54.34 58.81 56.35 C 58.33 54.36 57.83 52.19 56.25 50.75 C 54.23 49.53 51.73 50.85 50.89 52.90 C 48.96 57.17 49.48 62.00 49.25 66.56 C 50.93 66.50 52.61 66.45 54.30 66.40 C 54.68 66.60 55.44 66.99 55.82 67.19 C 49.87 72.83 41.41 73.57 33.70 74.73 C 31.91 74.21 30.13 73.66 28.39 72.99 C 26.38 71.32 26.72 68.40 26.65 66.06 C 26.82 67.06 27.15 69.07 27.32 70.08 C 28.49 68.83 29.45 67.41 30.17 65.86 C 30.63 65.75 31.56 65.52 32.02 65.40 L 32.73 65.44 C 32.46 64.43 31.92 62.42 31.65 61.41 C 31.49 58.75 31.62 56.08 31.69 53.42 C 33.18 58.04 32.86 62.93 33.31 67.70 C 36.53 59.99 32.38 51.92 33.17 44.05 C 34.58 45.61 35.86 47.33 36.33 49.42 C 35.44 53.63 39.58 57.22 43.62 55.57 C 46.65 52.90 47.84 48.56 51.35 46.31 C 53.73 44.40 56.88 44.38 59.77 44.19 M 35.15 69.43 C 34.47 70.68 36.29 72.60 37.56 71.92 C 38.14 70.68 36.41 68.87 35.15 69.43 M 40.46 70.00 C 38.97 70.33 39.29 72.90 40.93 71.92 C 42.44 71.59 42.11 68.99 40.46 70.00 Z" />
</g>
<g id="#aedadef9">
<path fill="#aedade" opacity="0.98" d=" M 28.80 49.26 C 29.46 46.42 31.12 43.79 33.62 42.23 C 33.45 42.83 33.30 43.44 33.17 44.05 C 32.38 51.92 36.53 59.99 33.31 67.70 C 32.86 62.93 33.18 58.04 31.69 53.42 C 31.48 52.16 31.27 50.90 31.05 49.65 C 30.55 49.68 29.54 49.73 29.04 49.75 L 28.80 49.26 Z" />
</g>
<g id="#000101ff">
<path fill="#000101" opacity="1.00" d=" M 28.62 50.66 C 28.67 50.31 28.76 49.61 28.80 49.26 L 29.04 49.75 C 29.54 49.73 30.55 49.68 31.05 49.65 C 31.27 50.90 31.48 52.16 31.69 53.42 C 31.62 56.08 31.49 58.75 31.65 61.41 C 31.27 61.82 30.52 62.66 30.14 63.07 C 30.31 59.24 31.00 55.41 30.61 51.57 C 30.59 51.11 30.55 50.19 30.53 49.73 C 30.06 49.96 29.10 50.43 28.62 50.66 Z" />
<path fill="#000101" opacity="1.00" d=" M 50.89 52.90 C 51.73 50.85 54.23 49.53 56.25 50.75 C 57.83 52.19 58.33 54.36 58.81 56.35 C 59.17 59.24 59.20 62.15 59.23 65.06 C 57.59 65.51 55.95 65.98 54.30 66.40 C 52.61 66.45 50.93 66.50 49.25 66.56 C 49.48 62.00 48.96 57.17 50.89 52.90 M 53.02 51.32 C 57.21 54.60 56.76 60.22 56.31 64.93 C 56.85 64.80 57.93 64.55 58.47 64.42 C 58.41 60.36 58.78 55.99 56.67 52.35 C 56.05 50.91 54.29 50.95 53.02 51.32 M 51.84 51.84 C 51.11 54.10 50.48 56.40 49.97 58.72 C 50.76 58.14 52.33 56.99 53.12 56.41 C 53.10 58.90 54.66 62.44 52.12 64.12 C 51.54 62.27 51.04 60.40 50.41 58.57 C 50.11 60.95 49.93 63.34 49.80 65.73 C 51.76 65.64 53.71 65.54 55.66 65.44 C 55.43 60.85 57.39 54.01 51.84 51.84 Z" />
</g>
<g id="#72a0afff">
<path fill="#72a0af" opacity="1.00" d=" M 64.60 50.33 C 66.56 56.71 66.12 63.51 67.92 69.91 C 66.21 73.60 63.42 77.13 59.36 78.25 C 58.25 78.46 57.14 78.64 56.03 78.82 C 59.05 76.95 61.83 74.54 62.56 70.88 C 55.84 72.65 49.47 75.69 42.53 76.65 C 39.52 76.33 36.58 75.61 33.70 74.73 C 41.41 73.57 49.87 72.83 55.82 67.19 C 55.44 66.99 54.68 66.60 54.30 66.40 C 55.95 65.98 57.59 65.51 59.23 65.06 C 59.20 62.15 59.17 59.24 58.81 56.35 C 60.74 54.34 62.66 52.33 64.60 50.33 Z" />
</g>
<g id="#b2a8a6f9">
<path fill="#b2a8a6" opacity="0.98" d=" M 28.62 50.66 C 29.10 50.43 30.06 49.96 30.53 49.73 C 30.55 50.19 30.59 51.11 30.61 51.57 C 28.51 55.45 28.91 59.91 28.82 64.16 C 28.59 63.91 28.13 63.42 27.90 63.17 C 27.54 59.04 27.51 54.65 28.62 50.66 Z" />
</g>
<g id="#af6e5cff">
<path fill="#af6e5c" opacity="1.00" d=" M 28.82 64.16 C 28.91 59.91 28.51 55.45 30.61 51.57 C 31.00 55.41 30.31 59.24 30.14 63.07 C 30.52 62.66 31.27 61.82 31.65 61.41 C 31.92 62.42 32.46 64.43 32.73 65.44 L 32.02 65.40 C 30.90 65.14 29.83 64.73 28.82 64.16 Z" />
</g>
<g id="#b26f5fff">
<path fill="#b26f5f" opacity="1.00" d=" M 51.84 51.84 C 57.39 54.01 55.43 60.85 55.66 65.44 C 53.71 65.54 51.76 65.64 49.80 65.73 C 49.93 63.34 50.11 60.95 50.41 58.57 C 51.04 60.40 51.54 62.27 52.12 64.12 C 54.66 62.44 53.10 58.90 53.12 56.41 C 52.33 56.99 50.76 58.14 49.97 58.72 C 50.48 56.40 51.11 54.10 51.84 51.84 Z" />
</g>
<g id="#c6eeeeff">
<path fill="#c6eeee" opacity="1.00" d=" M 26.65 66.06 C 27.20 64.40 29.16 65.20 30.17 65.86 C 29.45 67.41 28.49 68.83 27.32 70.08 C 27.15 69.07 26.82 67.06 26.65 66.06 Z" />
</g>
<g id="#67838bff">
<path fill="#67838b" opacity="1.00" d=" M 35.15 69.43 C 36.41 68.87 38.14 70.68 37.56 71.92 C 36.29 72.60 34.47 70.68 35.15 69.43 Z" />
</g>
<g id="#5a7880ff">
<path fill="#5a7880" opacity="1.00" d=" M 40.46 70.00 C 42.11 68.99 42.44 71.59 40.93 71.92 C 39.29 72.90 38.97 70.33 40.46 70.00 Z" />
</g>
<g id="#497b96ff">
<path fill="#497b96" opacity="1.00" d=" M 42.53 76.65 C 49.47 75.69 55.84 72.65 62.56 70.88 C 61.83 74.54 59.05 76.95 56.03 78.82 C 57.14 78.64 58.25 78.46 59.36 78.25 L 59.67 79.54 C 60.07 81.15 60.46 82.76 60.84 84.38 C 55.72 85.70 50.33 86.33 45.07 85.51 C 41.78 84.82 38.94 82.89 36.00 81.36 C 40.88 80.97 45.88 80.36 50.16 77.78 C 47.62 77.34 45.08 76.96 42.53 76.65 Z" />
</g>
<g id="#6693a9ff">
<path fill="#6693a9" opacity="1.00" d=" M 28.39 72.99 C 30.13 73.66 31.91 74.21 33.70 74.73 C 36.58 75.61 39.52 76.33 42.53 76.65 C 45.08 76.96 47.62 77.34 50.16 77.78 C 45.88 80.36 40.88 80.97 36.00 81.36 C 38.94 82.89 41.78 84.82 45.07 85.51 C 50.33 86.33 55.72 85.70 60.84 84.38 C 60.46 82.76 60.07 81.15 59.67 79.54 C 62.10 80.12 64.58 80.47 67.06 80.70 C 66.38 80.80 65.00 80.99 64.31 81.09 C 65.46 82.21 67.47 83.05 67.06 85.00 C 66.57 87.23 64.63 88.76 63.32 90.53 C 64.54 91.75 65.76 92.97 66.99 94.19 C 66.65 95.25 66.31 96.31 65.98 97.37 C 65.45 97.03 64.39 96.34 63.85 95.99 C 64.44 98.54 64.75 101.22 66.04 103.54 C 64.81 105.10 65.45 107.13 66.11 108.78 C 65.60 109.76 65.09 110.73 64.57 111.71 C 63.59 109.72 62.61 107.74 61.66 105.74 C 61.60 103.39 61.38 101.00 60.31 98.87 C 59.12 96.39 58.11 93.79 56.57 91.49 C 54.05 90.00 50.87 90.44 48.08 89.83 C 43.51 89.41 40.07 85.94 35.70 84.90 C 33.93 84.52 32.28 83.80 30.75 82.83 C 31.55 82.46 33.13 81.72 33.92 81.35 C 33.53 81.18 32.74 80.86 32.35 80.69 L 31.83 80.48 C 32.66 80.33 34.31 80.04 35.13 79.89 C 32.49 78.01 29.90 75.93 28.39 72.99 Z" />
</g>
<g id="#7eaabcff">
<path fill="#7eaabc" opacity="1.00" d=" M 26.75 84.18 C 28.53 82.96 29.89 80.23 32.35 80.69 C 32.74 80.86 33.53 81.18 33.92 81.35 C 33.13 81.72 31.55 82.46 30.75 82.83 C 32.28 83.80 33.93 84.52 35.70 84.90 C 40.07 85.94 43.51 89.41 48.08 89.83 C 50.87 90.44 54.05 90.00 56.57 91.49 C 58.11 93.79 59.12 96.39 60.31 98.87 C 57.05 99.02 53.80 99.16 50.54 99.40 C 53.73 100.55 57.07 101.15 60.42 101.61 C 57.56 101.95 54.70 102.28 51.84 102.61 C 46.07 98.52 40.41 94.20 34.20 90.78 C 31.80 91.92 31.80 94.94 30.81 97.09 C 29.86 100.71 26.17 102.38 23.93 105.09 C 24.32 106.72 25.32 108.10 26.11 109.55 L 24.73 110.19 C 23.16 107.89 23.08 105.09 23.00 102.41 C 24.29 100.81 26.18 99.35 26.16 97.10 C 26.61 92.81 26.62 88.49 26.75 84.18 Z" />
</g>
<g id="#75a0b3ff">
<path fill="#75a0b3" opacity="1.00" d=" M 64.31 81.09 C 65.00 80.99 66.38 80.80 67.06 80.70 C 68.50 81.49 69.93 82.29 71.37 83.09 C 72.09 85.94 72.37 88.87 72.32 91.81 C 73.40 93.25 74.50 94.68 75.60 96.11 C 73.82 97.67 71.72 98.77 69.53 99.62 C 68.32 98.90 67.15 98.14 65.98 97.37 C 66.31 96.31 66.65 95.25 66.99 94.19 C 65.76 92.97 64.54 91.75 63.32 90.53 C 64.63 88.76 66.57 87.23 67.06 85.00 C 67.47 83.05 65.46 82.21 64.31 81.09 Z" />
</g>
<g id="#81aabbff">
<path fill="#81aabb" opacity="1.00" d=" M 71.37 83.09 C 73.92 87.28 78.85 89.30 80.99 93.84 C 80.70 93.50 80.12 92.82 79.83 92.48 C 78.42 93.69 77.03 94.92 75.60 96.11 C 74.50 94.68 73.40 93.25 72.32 91.81 C 72.37 88.87 72.09 85.94 71.37 83.09 Z" />
</g>
<g id="#92bdceff">
<path fill="#92bdce" opacity="1.00" d=" M 22.05 95.43 C 23.42 91.60 25.29 87.98 26.75 84.18 C 26.62 88.49 26.61 92.81 26.16 97.10 C 26.18 99.35 24.29 100.81 23.00 102.41 C 23.08 105.09 23.16 107.89 24.73 110.19 L 24.66 110.20 C 19.25 111.47 13.41 110.69 8.35 113.31 C 11.72 114.54 15.30 113.74 18.75 113.45 C 16.60 116.95 11.11 118.51 8.08 115.20 C 6.18 111.61 4.68 107.09 6.41 103.17 C 11.25 101.49 16.43 101.50 21.46 102.11 C 22.45 100.80 23.44 99.49 24.43 98.17 C 23.76 97.45 23.09 96.73 22.44 95.99 L 22.05 95.43 M 8.79 104.38 C 12.08 104.77 15.38 105.13 18.59 106.00 C 15.32 108.31 10.83 106.90 7.39 109.08 C 11.11 109.84 14.92 109.61 18.70 109.67 C 18.69 107.55 18.69 105.43 18.70 103.32 C 15.36 103.25 11.99 103.32 8.79 104.38 Z" />
</g>
<g id="#6899aaff">
<path fill="#6899aa" opacity="1.00" d=" M 30.81 97.09 C 31.80 94.94 31.80 91.92 34.20 90.78 C 33.70 93.34 33.09 95.87 32.46 98.40 C 34.46 98.45 36.46 98.52 38.47 98.61 C 36.15 99.43 33.80 100.14 31.44 100.83 C 33.26 101.07 35.09 101.32 36.91 101.58 C 34.92 102.45 32.93 103.31 30.95 104.18 L 32.08 103.14 L 31.29 102.06 C 29.52 104.53 27.97 107.14 26.11 109.55 C 25.32 108.10 24.32 106.72 23.93 105.09 C 26.17 102.38 29.86 100.71 30.81 97.09 Z" />
</g>
<g id="#98c1cdff">
<path fill="#98c1cd" opacity="1.00" d=" M 34.20 90.78 C 40.41 94.20 46.07 98.52 51.84 102.61 C 54.53 103.67 57.38 104.17 60.21 104.69 C 57.55 104.78 54.90 104.92 52.25 105.19 C 54.18 106.13 56.24 106.89 58.42 106.94 C 58.57 109.82 58.83 112.72 58.45 115.59 C 52.58 119.42 45.55 120.82 39.05 123.22 C 37.10 122.53 34.90 122.94 33.49 124.50 C 29.57 128.37 29.19 134.18 28.93 139.36 L 29.00 140.01 L 29.14 141.03 C 29.39 144.09 30.35 147.02 31.55 149.84 C 29.88 151.19 28.22 152.54 26.56 153.88 C 28.02 154.11 29.49 154.33 30.96 154.55 C 28.34 154.62 25.73 154.73 23.11 154.88 C 22.55 154.48 21.99 154.08 21.43 153.68 C 25.84 150.36 27.71 144.71 28.26 139.42 C 27.81 139.23 26.91 138.86 26.46 138.67 L 26.11 138.53 C 26.82 132.99 26.45 127.06 29.18 122.01 C 31.97 119.67 35.59 118.66 38.38 116.36 C 41.79 112.67 38.74 106.05 33.78 106.01 L 33.82 105.75 C 34.35 105.19 34.96 104.74 35.65 104.37 C 34.08 104.33 32.51 104.28 30.95 104.18 C 32.93 103.31 34.92 102.45 36.91 101.58 C 35.09 101.32 33.26 101.07 31.44 100.83 C 33.80 100.14 36.15 99.43 38.47 98.61 C 36.46 98.52 34.46 98.45 32.46 98.40 C 33.09 95.87 33.70 93.34 34.20 90.78 Z" />
</g>
<g id="#a1cdd8ff">
<path fill="#a1cdd8" opacity="1.00" d=" M 75.60 96.11 C 77.03 94.92 78.42 93.69 79.83 92.48 C 80.12 92.82 80.70 93.50 80.99 93.84 C 82.68 95.83 84.01 98.20 84.44 100.81 C 83.44 107.06 79.92 112.40 77.06 117.90 C 75.39 118.88 73.72 119.86 72.11 120.94 C 70.80 121.81 69.57 122.78 68.34 123.75 C 67.60 122.75 66.86 121.75 66.13 120.75 C 67.34 119.44 68.70 118.23 69.66 116.71 L 69.81 116.47 C 70.28 115.94 71.22 114.88 71.70 114.35 C 69.93 114.49 67.74 113.94 66.48 115.56 C 63.69 117.81 64.78 121.66 64.51 124.73 C 63.71 123.24 62.71 121.73 62.72 119.98 C 62.41 116.84 64.78 114.41 66.76 112.31 C 68.81 110.32 71.41 109.15 74.05 108.19 C 72.37 105.76 70.74 103.19 70.57 100.15 C 70.31 100.02 69.79 99.75 69.53 99.62 C 71.72 98.77 73.82 97.67 75.60 96.11 Z" />
</g>
<g id="#add8dcff">
<path fill="#add8dc" opacity="1.00" d=" M 7.10 100.84 C 12.54 100.36 17.64 98.53 22.44 95.99 C 23.09 96.73 23.76 97.45 24.43 98.17 C 23.44 99.49 22.45 100.80 21.46 102.11 C 16.43 101.50 11.25 101.49 6.41 103.17 C 6.59 102.59 6.93 101.42 7.10 100.84 Z" />
</g>
<g id="#5e7f8bff">
<path fill="#5e7f8b" opacity="1.00" d=" M 50.54 99.40 C 53.80 99.16 57.05 99.02 60.31 98.87 C 61.38 101.00 61.60 103.39 61.66 105.74 C 60.85 106.04 59.23 106.64 58.42 106.94 C 56.24 106.89 54.18 106.13 52.25 105.19 C 54.90 104.92 57.55 104.78 60.21 104.69 C 57.38 104.17 54.53 103.67 51.84 102.61 C 54.70 102.28 57.56 101.95 60.42 101.61 C 57.07 101.15 53.73 100.55 50.54 99.40 Z" />
</g>
<g id="#86b1bdfe">
<path fill="#86b1bd" opacity="1.00" d=" M 84.44 100.81 C 85.82 109.47 83.82 118.13 82.72 126.69 C 82.32 124.41 81.95 122.13 81.58 119.84 C 78.46 120.46 75.28 120.66 72.11 120.94 C 73.72 119.86 75.39 118.88 77.06 117.90 C 79.92 112.40 83.44 107.06 84.44 100.81 Z" />
</g>
<g id="#5e8c9dff">
<path fill="#5e8c9d" opacity="1.00" d=" M 8.79 104.38 C 11.99 103.32 15.36 103.25 18.70 103.32 C 18.69 105.43 18.69 107.55 18.70 109.67 C 14.92 109.61 11.11 109.84 7.39 109.08 C 10.83 106.90 15.32 108.31 18.59 106.00 C 15.38 105.13 12.08 104.77 8.79 104.38 Z" />
</g>
<g id="#99d8ddff">
<path fill="#99d8dd" opacity="1.00" d=" M 66.11 108.78 C 65.45 107.13 64.81 105.10 66.04 103.54 C 66.29 103.88 66.80 104.55 67.06 104.89 C 67.33 106.27 66.77 107.60 66.11 108.78 Z" />
</g>
<g id="#acd8deff">
<path fill="#acd8de" opacity="1.00" d=" M 31.59 104.27 C 32.35 104.74 33.09 105.24 33.82 105.75 L 33.78 106.01 C 38.74 106.05 41.79 112.67 38.38 116.36 C 35.59 118.66 31.97 119.67 29.18 122.01 C 30.32 119.77 31.90 117.69 32.41 115.19 C 32.61 112.84 32.05 110.51 31.73 108.20 C 31.19 110.41 30.74 112.65 30.10 114.85 C 30.75 111.34 30.80 107.75 31.59 104.27 Z" />
</g>
<g id="#7da9b7ff">
<path fill="#7da9b7" opacity="1.00" d=" M 67.06 104.89 C 67.36 107.36 67.08 109.85 66.76 112.31 C 64.78 114.41 62.41 116.84 62.72 119.98 C 62.71 121.73 63.71 123.24 64.51 124.73 C 64.78 121.66 63.69 117.81 66.48 115.56 C 67.74 113.94 69.93 114.49 71.70 114.35 C 71.22 114.88 70.28 115.94 69.81 116.47 C 69.77 116.52 69.68 116.61 69.64 116.66 L 69.66 116.71 C 68.70 118.23 67.34 119.44 66.13 120.75 C 67.04 125.86 65.85 130.98 63.76 135.66 C 62.58 134.85 61.40 134.04 60.23 133.23 C 61.61 137.32 62.83 141.79 60.58 145.82 C 64.79 145.73 69.00 145.68 73.21 145.63 C 72.52 144.26 71.81 142.90 71.11 141.55 C 70.91 137.73 70.58 133.82 71.71 130.10 C 72.71 135.05 72.56 140.22 74.53 144.96 C 73.91 145.97 73.05 146.62 71.94 146.89 C 67.50 148.01 62.93 148.46 58.40 149.02 C 58.59 146.87 58.80 144.73 58.97 142.58 C 58.33 143.73 57.72 144.89 57.13 146.06 C 59.96 140.37 57.52 134.16 54.77 128.96 C 55.34 127.54 55.91 126.11 56.47 124.69 C 52.43 124.34 48.40 124.69 44.40 125.18 C 42.38 125.55 40.75 124.03 39.05 123.22 C 45.55 120.82 52.58 119.42 58.45 115.59 C 58.83 112.72 58.57 109.82 58.42 106.94 C 59.23 106.64 60.85 106.04 61.66 105.74 C 62.61 107.74 63.59 109.72 64.57 111.71 C 65.09 110.73 65.60 109.76 66.11 108.78 C 66.77 107.60 67.33 106.27 67.06 104.89 Z" />
</g>
<g id="#cbeaeaf8">
<path fill="#cbeaea" opacity="0.97" d=" M 31.73 108.20 C 32.05 110.51 32.61 112.84 32.41 115.19 C 31.90 117.69 30.32 119.77 29.18 122.01 C 26.45 127.06 26.82 132.99 26.11 138.53 C 26.03 137.93 25.87 136.73 25.80 136.13 C 25.45 132.72 25.57 129.28 25.97 125.88 C 26.89 122.05 28.60 118.47 30.10 114.85 C 30.74 112.65 31.19 110.41 31.73 108.20 Z" />
</g>
<g id="#628da0ff">
<path fill="#628da0" opacity="1.00" d=" M 8.35 113.31 C 13.41 110.69 19.25 111.47 24.66 110.20 C 23.17 111.31 20.09 111.03 19.76 113.03 C 19.70 114.32 19.58 115.62 19.42 116.91 C 16.87 116.97 14.33 117.27 11.88 118.00 C 10.47 117.26 9.19 116.33 8.08 115.20 C 11.11 118.51 16.60 116.95 18.75 113.45 C 15.30 113.74 11.72 114.54 8.35 113.31 Z" />
</g>
<g id="#4d6b71d3">
<path fill="#4d6b71" opacity="0.83" d=" M 69.64 116.66 C 69.68 116.61 69.77 116.52 69.81 116.47 L 69.66 116.71 L 69.64 116.66 Z" />
</g>
<g id="#6d99aaff">
<path fill="#6d99aa" opacity="1.00" d=" M 72.11 120.94 C 75.28 120.66 78.46 120.46 81.58 119.84 C 81.95 122.13 82.32 124.41 82.72 126.69 C 80.68 128.58 78.39 130.15 76.03 131.60 C 74.55 130.62 73.09 129.60 71.66 128.55 C 71.69 127.89 71.71 127.24 71.73 126.59 C 73.42 125.10 75.04 123.53 76.54 121.85 C 73.88 122.83 71.31 124.01 68.76 125.24 C 69.21 126.60 69.64 127.97 70.16 129.31 C 70.52 129.50 71.25 129.87 71.62 130.06 L 71.71 130.10 C 70.58 133.82 70.91 137.73 71.11 141.55 C 71.81 142.90 72.52 144.26 73.21 145.63 C 69.00 145.68 64.79 145.73 60.58 145.82 C 62.83 141.79 61.61 137.32 60.23 133.23 C 61.40 134.04 62.58 134.85 63.76 135.66 C 65.85 130.98 67.04 125.86 66.13 120.75 C 66.86 121.75 67.60 122.75 68.34 123.75 C 69.57 122.78 70.80 121.81 72.11 120.94 M 64.29 139.46 C 63.58 140.68 65.36 142.63 66.60 141.84 C 67.26 140.63 65.52 138.74 64.29 139.46 Z" />
</g>
<g id="#7aa9b9fa">
<path fill="#7aa9b9" opacity="0.98" d=" M 68.76 125.24 C 71.31 124.01 73.88 122.83 76.54 121.85 C 75.04 123.53 73.42 125.10 71.73 126.59 C 71.71 127.24 71.69 127.89 71.66 128.55 L 71.62 130.06 C 71.25 129.87 70.52 129.50 70.16 129.31 C 69.64 127.97 69.21 126.60 68.76 125.24 Z" />
</g>
<g id="#5f8da0ff">
<path fill="#5f8da0" opacity="1.00" d=" M 33.49 124.50 C 34.90 122.94 37.10 122.53 39.05 123.22 C 40.75 124.03 42.38 125.55 44.40 125.18 C 48.40 124.69 52.43 124.34 56.47 124.69 C 55.91 126.11 55.34 127.54 54.77 128.96 C 51.85 127.58 48.47 128.44 45.42 127.48 C 44.90 127.99 44.38 128.51 43.86 129.04 C 42.85 127.77 41.84 126.51 40.84 125.25 C 33.41 127.98 32.37 137.79 34.65 144.30 C 37.39 146.00 40.78 145.29 43.83 145.36 C 45.70 148.51 43.06 151.54 40.29 152.90 C 41.19 152.99 42.09 153.07 42.99 153.15 C 41.92 153.41 40.84 153.71 39.74 153.80 C 37.77 153.50 35.81 153.10 33.85 152.73 C 35.46 151.70 37.06 150.67 38.67 149.65 C 38.65 149.11 38.61 148.03 38.59 147.49 C 35.01 146.07 31.21 144.49 29.14 141.03 L 29.00 140.01 C 30.35 140.02 31.08 139.39 31.20 138.10 C 30.63 136.25 29.03 138.40 28.93 139.36 C 29.19 134.18 29.57 128.37 33.49 124.50 Z" />
</g>
<g id="#616f6fa5">
<path fill="#616f6f" opacity="0.65" d=" M 25.80 136.13 C 24.68 132.78 24.75 129.19 25.97 125.88 C 25.57 129.28 25.45 132.72 25.80 136.13 Z" />
</g>
<g id="#46738aff">
<path fill="#46738a" opacity="1.00" d=" M 34.65 144.30 C 32.37 137.79 33.41 127.98 40.84 125.25 C 41.84 126.51 42.85 127.77 43.86 129.04 C 42.78 130.74 41.51 132.34 40.65 134.18 C 39.76 138.24 41.88 141.98 43.83 145.36 C 40.78 145.29 37.39 146.00 34.65 144.30 Z" />
</g>
<g id="#5d92abf6">
<path fill="#5d92ab" opacity="0.96" d=" M 43.83 145.36 C 41.88 141.98 39.76 138.24 40.65 134.18 C 42.85 137.96 44.13 142.17 45.85 146.18 C 46.79 148.67 45.87 152.59 42.99 153.15 C 42.09 153.07 41.19 152.99 40.29 152.90 C 43.06 151.54 45.70 148.51 43.83 145.36 Z" />
</g>
<g id="#446270ff">
<path fill="#446270" opacity="1.00" d=" M 28.93 139.36 C 29.03 138.40 30.63 136.25 31.20 138.10 C 31.08 139.39 30.35 140.02 29.00 140.01 L 28.93 139.36 Z" />
</g>
<g id="#a0ccd5fe">
<path fill="#a0ccd5" opacity="1.00" d=" M 26.46 138.67 C 26.91 138.86 27.81 139.23 28.26 139.42 C 27.71 144.71 25.84 150.36 21.43 153.68 C 21.99 154.08 22.55 154.48 23.11 154.88 C 22.31 154.92 20.70 155.00 19.90 155.04 C 17.50 154.98 15.02 152.66 16.05 150.14 C 18.47 147.61 22.63 147.74 24.77 144.79 C 26.66 143.32 26.21 140.76 26.46 138.67 Z" />
</g>
<g id="#4b6d7bff">
<path fill="#4b6d7b" opacity="1.00" d=" M 64.29 139.46 C 65.52 138.74 67.26 140.63 66.60 141.84 C 65.36 142.63 63.58 140.68 64.29 139.46 Z" />
</g>
<g id="#74a1b4ff">
<path fill="#74a1b4" opacity="1.00" d=" M 29.14 141.03 C 31.21 144.49 35.01 146.07 38.59 147.49 C 38.61 148.03 38.65 149.11 38.67 149.65 C 37.06 150.67 35.46 151.70 33.85 152.73 C 35.81 153.10 37.77 153.50 39.74 153.80 C 33.23 155.15 26.53 155.90 19.90 155.04 C 20.70 155.00 22.31 154.92 23.11 154.88 C 25.73 154.73 28.34 154.62 30.96 154.55 C 29.49 154.33 28.02 154.11 26.56 153.88 C 28.22 152.54 29.88 151.19 31.55 149.84 C 30.35 147.02 29.39 144.09 29.14 141.03 Z" />
</g>
<g id="#98c6d2ff">
<path fill="#98c6d2" opacity="1.00" d=" M 58.97 142.58 C 58.80 144.73 58.59 146.87 58.40 149.02 C 62.93 148.46 67.50 148.01 71.94 146.89 C 73.05 146.62 73.91 145.97 74.53 144.96 L 74.77 144.68 C 75.70 147.06 77.23 149.12 78.77 151.14 C 75.03 152.39 71.28 153.63 67.43 154.50 C 68.00 155.14 68.56 155.79 69.12 156.44 C 65.21 156.37 60.77 156.18 58.03 152.95 C 56.09 151.17 55.99 148.30 57.13 146.06 C 57.72 144.89 58.33 143.73 58.97 142.58 Z" />
</g>
<g id="#7ba5afff">
<path fill="#7ba5af" opacity="1.00" d=" M 67.43 154.50 C 71.28 153.63 75.03 152.39 78.77 151.14 L 79.22 151.00 C 79.00 156.20 73.10 156.62 69.12 156.44 C 68.56 155.79 68.00 155.14 67.43 154.50 Z" />
</g>
</svg>
