<?xml version="1.0" encoding="UTF-8" ?>
<!DOCTYPE svg PUBLIC "-//W3C//DTD SVG 1.1//EN" "http://www.w3.org/Graphics/SVG/1.1/DTD/svg11.dtd">
<svg width="171pt" height="194pt" viewBox="0 0 171 194" version="1.1" xmlns="http://www.w3.org/2000/svg">
<g id="#6b71a2ff">
<path fill="#6b71a2" opacity="1.00" d=" M 81.52 11.00 C 81.90 10.98 82.66 10.92 83.03 10.89 C 84.52 12.68 84.85 15.02 85.46 17.18 L 85.22 17.38 C 85.10 17.47 84.87 17.65 84.76 17.74 L 86.45 18.72 C 83.37 22.43 80.36 26.34 78.89 31.00 C 81.79 25.72 85.65 21.09 89.75 16.71 C 90.54 15.80 91.64 15.31 92.68 14.77 C 93.38 16.75 93.04 18.91 93.01 20.97 C 85.75 22.69 79.98 30.12 80.43 37.69 C 77.40 38.81 72.38 39.80 70.48 36.58 C 70.57 33.28 70.20 29.96 70.56 26.67 C 71.15 23.13 74.02 20.75 76.49 18.45 L 77.05 19.57 C 74.40 24.64 73.15 30.22 73.41 35.94 C 73.84 33.00 74.04 30.00 74.93 27.14 C 76.78 22.18 80.03 17.82 81.64 12.77 C 81.61 12.33 81.55 11.45 81.52 11.00 Z" />
</g>
<g id="#b9c1dfff">
<path fill="#b9c1df" opacity="1.00" d=" M 77.05 19.57 C 78.56 16.72 79.50 13.55 81.52 11.00 C 81.55 11.45 81.61 12.33 81.64 12.77 C 80.03 17.82 76.78 22.18 74.93 27.14 C 74.04 30.00 73.84 33.00 73.41 35.94 C 73.15 30.22 74.40 24.64 77.05 19.57 Z" />
<path fill="#b9c1df" opacity="1.00" d=" M 67.84 22.10 C 68.88 19.38 68.12 15.88 70.49 13.78 C 69.82 18.96 67.96 23.97 68.20 29.25 C 67.95 27.78 67.67 26.32 67.35 24.86 C 64.04 26.10 65.83 30.51 65.70 33.23 C 65.82 34.80 65.63 36.38 65.19 37.89 C 65.77 38.26 66.91 38.99 67.49 39.36 L 66.13 40.34 C 64.96 41.27 63.84 42.26 62.71 43.23 C 62.70 42.46 62.68 40.91 62.67 40.14 C 62.67 39.67 62.66 38.72 62.66 38.25 C 57.41 39.31 51.72 38.55 46.78 40.85 C 40.30 44.87 37.58 52.34 33.83 58.59 C 33.04 57.56 32.21 56.57 31.25 55.70 C 31.44 57.49 31.71 59.27 31.99 61.05 C 29.23 62.27 26.22 63.48 24.52 66.15 L 24.90 67.42 L 25.06 67.92 C 27.44 72.91 27.87 78.47 29.38 83.72 L 28.00 83.92 C 26.25 78.95 24.53 73.94 23.37 68.79 L 22.77 68.73 C 21.92 68.26 21.11 67.72 20.32 67.16 C 21.21 65.71 21.91 64.14 22.98 62.81 C 24.91 60.61 26.88 58.43 28.40 55.92 L 28.82 55.26 L 29.32 55.23 C 29.73 54.91 30.55 54.27 30.96 53.95 C 33.32 50.86 33.46 46.25 37.14 44.13 C 42.03 39.76 48.40 37.25 54.98 37.54 C 57.83 37.83 60.52 36.75 63.20 35.99 C 63.82 33.06 64.38 30.10 64.45 27.09 C 64.43 24.88 66.66 23.69 67.84 22.10 Z" />
<path fill="#b9c1df" opacity="1.00" d=" M 86.64 18.85 C 87.92 17.16 90.03 12.42 92.68 14.77 C 91.64 15.31 90.54 15.80 89.75 16.71 C 85.65 21.09 81.79 25.72 78.89 31.00 C 80.36 26.34 83.37 22.43 86.45 18.72 L 84.76 17.74 C 84.87 17.65 85.10 17.47 85.22 17.38 C 85.81 17.71 86.28 18.19 86.64 18.85 Z" />
<path fill="#b9c1df" opacity="1.00" d=" M 114.28 163.51 C 114.68 164.46 115.11 165.40 115.55 166.33 C 113.67 170.68 110.37 174.32 109.26 179.01 C 109.16 177.77 109.07 176.54 109.01 175.30 C 109.67 173.16 111.63 171.68 112.45 169.60 C 113.15 167.60 113.65 165.53 114.28 163.51 Z" />
</g>
<g id="#8888a7fd">
<path fill="#8888a7" opacity="1.00" d=" M 70.49 13.78 C 73.23 14.13 74.65 16.72 76.49 18.45 C 74.02 20.75 71.15 23.13 70.56 26.67 C 70.20 29.96 70.57 33.28 70.48 36.58 C 69.14 34.35 68.47 31.82 68.20 29.25 C 67.96 23.97 69.82 18.96 70.49 13.78 Z" />
</g>
<g id="#8d93c1ff">
<path fill="#8d93c1" opacity="1.00" d=" M 80.43 37.69 C 79.98 30.12 85.75 22.69 93.01 20.97 C 95.03 21.64 96.84 22.78 98.63 23.90 C 96.29 25.89 93.96 27.90 91.47 29.71 C 89.00 31.48 86.54 33.29 84.31 35.36 C 84.20 35.49 83.98 35.76 83.88 35.89 C 82.98 36.99 82.08 38.10 81.20 39.21 C 82.98 39.78 84.75 40.36 86.53 40.94 C 86.13 42.78 86.23 45.11 84.50 46.27 C 82.03 47.90 79.44 49.33 76.95 50.93 C 74.41 51.29 71.85 51.47 69.28 51.33 C 67.30 50.91 65.31 50.56 63.32 50.21 C 63.35 52.62 63.00 55.12 63.65 57.48 C 66.16 61.77 69.69 65.54 73.99 68.09 C 78.03 71.16 83.41 69.30 87.65 67.66 C 91.83 65.45 96.72 63.45 98.91 58.93 C 100.62 55.47 103.81 53.14 105.96 50.01 C 107.15 47.28 107.79 44.23 107.62 41.25 C 106.82 39.73 105.83 38.32 104.90 36.87 C 108.84 37.63 109.00 42.10 111.51 44.53 C 113.00 45.61 112.08 47.33 111.84 48.78 C 113.87 52.17 115.50 55.88 115.37 59.93 C 114.25 59.36 113.13 58.79 112.00 58.22 C 109.84 63.63 112.01 69.58 110.08 75.04 C 108.91 78.56 107.89 82.43 105.12 85.08 C 98.18 88.76 89.90 88.98 82.29 87.78 C 81.92 87.28 81.18 86.29 80.80 85.79 C 85.61 82.10 92.10 85.97 97.39 83.46 C 101.49 82.44 103.08 77.89 103.19 74.13 C 101.96 72.51 100.16 71.25 98.13 70.90 C 95.38 72.12 93.00 74.12 90.09 74.98 C 86.93 76.05 83.57 75.65 80.32 75.37 C 80.10 76.40 79.88 77.44 79.69 78.48 C 79.08 80.95 78.99 83.60 77.97 85.94 C 74.04 89.31 68.39 88.82 63.76 90.68 L 63.28 90.82 C 63.07 90.63 62.65 90.26 62.44 90.07 C 61.51 89.39 60.59 88.71 59.66 88.03 C 64.49 86.32 70.39 87.06 74.30 83.28 C 76.31 81.53 75.56 78.65 75.73 76.31 C 67.20 71.35 61.08 63.13 56.77 54.41 C 55.80 54.49 54.82 54.57 53.85 54.65 C 54.39 52.36 55.07 50.11 55.67 47.84 C 50.76 47.81 48.20 52.27 45.79 55.84 C 44.54 57.57 44.60 59.80 43.73 61.69 C 42.25 63.38 39.87 62.78 37.91 62.87 C 39.75 54.96 44.11 47.64 50.37 42.43 C 53.84 39.68 58.57 40.59 62.67 40.14 C 62.68 40.91 62.70 42.46 62.71 43.23 C 62.59 45.56 63.04 47.94 65.17 49.25 C 65.45 48.68 66.01 47.53 66.29 46.96 C 68.31 49.63 71.35 50.08 74.47 49.48 C 76.17 50.29 77.26 48.69 77.13 47.11 C 77.94 45.69 78.55 44.16 78.74 42.53 C 74.63 41.32 69.80 42.78 66.13 40.34 L 67.49 39.36 C 68.13 39.24 69.43 39.00 70.07 38.88 C 68.68 36.95 67.24 35.05 65.70 33.23 C 65.83 30.51 64.04 26.10 67.35 24.86 C 67.67 26.32 67.95 27.78 68.20 29.25 C 68.47 31.82 69.14 34.35 70.48 36.58 C 72.38 39.80 77.40 38.81 80.43 37.69 Z" />
</g>
<g id="#737aafff">
<path fill="#737aaf" opacity="1.00" d=" M 98.63 23.90 C 101.56 27.30 102.14 31.87 104.11 35.76 L 104.59 36.44 C 104.66 36.55 104.82 36.76 104.90 36.87 C 105.83 38.32 106.82 39.73 107.62 41.25 C 107.79 44.23 107.15 47.28 105.96 50.01 C 103.81 53.14 100.62 55.47 98.91 58.93 C 96.72 63.45 91.83 65.45 87.65 67.66 C 83.41 69.30 78.03 71.16 73.99 68.09 C 69.69 65.54 66.16 61.77 63.65 57.48 C 63.00 55.12 63.35 52.62 63.32 50.21 C 65.31 50.56 67.30 50.91 69.28 51.33 C 69.56 51.81 70.13 52.76 70.41 53.24 C 73.10 53.32 76.83 54.55 78.75 52.07 C 78.30 51.79 77.40 51.22 76.95 50.93 C 79.44 49.33 82.03 47.90 84.50 46.27 C 86.23 45.11 86.13 42.78 86.53 40.94 C 84.75 40.36 82.98 39.78 81.20 39.21 C 84.71 39.15 88.21 38.70 91.58 37.72 C 91.58 37.30 91.58 36.46 91.58 36.05 C 91.57 35.28 91.54 33.75 91.53 32.99 C 91.51 31.89 91.49 30.80 91.47 29.71 C 93.96 27.90 96.29 25.89 98.63 23.90 M 89.74 48.87 L 89.76 47.45 C 87.04 49.05 82.24 48.76 81.55 52.53 C 78.95 53.40 76.17 53.47 73.56 54.27 C 73.49 55.34 73.44 56.40 73.40 57.47 C 71.83 57.40 70.26 57.34 68.69 57.29 C 72.46 60.79 77.54 63.99 82.89 62.50 C 87.59 60.98 92.60 59.37 96.28 55.95 C 95.53 55.88 94.04 55.74 93.29 55.66 C 96.43 53.46 99.68 51.31 102.39 48.57 C 104.87 46.04 102.43 40.63 98.78 41.33 C 94.28 41.64 92.88 46.55 89.74 48.87 Z" />
</g>
<g id="#2d2d3fff">
<path fill="#2d2d3f" opacity="1.00" d=" M 84.31 35.36 C 86.54 33.29 89.00 31.48 91.47 29.71 C 91.49 30.80 91.51 31.89 91.53 32.99 C 91.18 32.44 90.49 31.35 90.15 30.81 C 88.37 32.56 89.42 35.17 89.31 37.33 C 89.87 37.01 91.01 36.37 91.58 36.05 C 91.58 36.46 91.58 37.30 91.58 37.72 C 88.21 38.70 84.71 39.15 81.20 39.21 C 82.08 38.10 82.98 36.99 83.88 35.89 C 83.81 36.50 83.67 37.73 83.60 38.34 C 85.29 37.98 86.98 37.64 88.68 37.33 C 88.66 36.36 88.62 34.42 88.60 33.45 L 86.96 33.38 C 86.97 34.42 86.99 36.52 87.00 37.56 C 86.10 36.83 85.20 36.10 84.31 35.36 Z" />
<path fill="#2d2d3f" opacity="1.00" d=" M 103.21 92.02 C 107.21 91.37 110.78 89.27 113.51 86.32 C 113.14 89.15 113.40 92.02 113.54 94.86 C 114.41 94.68 116.14 94.30 117.01 94.12 C 115.19 94.57 113.35 94.99 111.52 95.38 C 111.61 93.42 111.63 91.38 110.22 89.82 C 108.26 91.42 107.72 93.72 108.60 96.04 C 106.16 97.89 103.69 99.71 101.13 101.39 C 99.38 101.31 97.63 101.22 95.88 101.20 C 95.91 98.39 95.92 95.59 95.94 92.78 C 95.43 92.67 94.41 92.43 93.90 92.31 C 94.55 92.32 95.84 92.35 96.49 92.36 C 97.93 92.39 99.37 92.38 100.81 92.33 C 98.63 93.83 98.72 97.92 101.87 97.97 C 104.75 97.24 105.04 93.97 103.21 92.02 Z" />
</g>
<g id="#a7a5a0ff">
<path fill="#a7a5a0" opacity="1.00" d=" M 89.31 37.33 C 89.42 35.17 88.37 32.56 90.15 30.81 C 90.49 31.35 91.18 32.44 91.53 32.99 C 91.54 33.75 91.57 35.28 91.58 36.05 C 91.01 36.37 89.87 37.01 89.31 37.33 Z" />
</g>
<g id="#7f4e5dff">
<path fill="#7f4e5d" opacity="1.00" d=" M 65.70 33.23 C 67.24 35.05 68.68 36.95 70.07 38.88 C 69.43 39.00 68.13 39.24 67.49 39.36 C 66.91 38.99 65.77 38.26 65.19 37.89 C 65.63 36.38 65.82 34.80 65.70 33.23 Z" />
</g>
<g id="#b54d63ff">
<path fill="#b54d63" opacity="1.00" d=" M 86.96 33.38 L 88.60 33.45 C 88.62 34.42 88.66 36.36 88.68 37.33 C 86.98 37.64 85.29 37.98 83.60 38.34 C 83.67 37.73 83.81 36.50 83.88 35.89 C 83.98 35.76 84.20 35.49 84.31 35.36 C 85.20 36.10 86.10 36.83 87.00 37.56 C 86.99 36.52 86.97 34.42 86.96 33.38 Z" />
<path fill="#b54d63" opacity="1.00" d=" M 131.44 67.93 C 131.91 66.29 133.41 65.95 134.79 66.70 C 138.69 68.69 143.51 69.38 146.39 72.95 C 145.69 73.05 144.28 73.25 143.58 73.35 C 143.52 73.70 143.39 74.41 143.33 74.76 C 138.91 77.33 135.30 81.08 132.23 85.12 C 129.95 88.09 128.27 91.69 124.93 93.67 C 125.91 87.93 130.16 83.36 133.64 78.91 C 135.13 77.76 136.57 76.56 138.01 75.35 C 134.34 74.00 128.81 73.38 127.83 68.84 C 128.82 69.12 129.81 69.43 130.79 69.77 C 134.70 71.34 138.58 73.44 142.94 73.12 C 139.22 71.11 134.88 70.50 131.44 67.93 Z" />
<path fill="#b54d63" opacity="1.00" d=" M 18.63 72.99 C 19.39 75.66 19.98 78.39 21.06 80.96 C 22.48 84.36 25.09 87.09 26.41 90.54 C 21.19 89.53 20.50 83.09 18.66 79.00 C 18.35 77.01 18.54 74.98 18.63 72.99 Z" />
</g>
<g id="#979ecaff">
<path fill="#979eca" opacity="1.00" d=" M 104.59 36.44 L 104.11 35.76 C 105.52 35.86 106.92 35.98 108.33 36.11 C 109.18 39.71 113.18 39.79 115.96 41.10 C 118.24 44.19 118.26 49.00 122.06 50.87 C 125.02 52.32 126.78 55.11 128.31 57.90 C 130.04 57.49 131.92 57.39 133.48 56.46 C 135.73 54.42 137.42 51.86 139.41 49.58 C 140.46 51.00 140.97 52.68 141.53 54.33 C 146.57 57.68 151.79 61.52 153.76 67.55 C 152.68 68.77 151.42 69.88 149.73 70.04 C 150.21 64.27 144.55 60.12 141.05 56.13 C 140.97 56.74 140.82 57.96 140.75 58.57 C 139.56 61.80 137.08 64.23 134.79 66.70 C 133.41 65.95 131.91 66.29 131.44 67.93 C 131.28 68.39 130.95 69.31 130.79 69.77 C 129.81 69.43 128.82 69.12 127.83 68.84 C 128.81 73.38 134.34 74.00 138.01 75.35 C 136.57 76.56 135.13 77.76 133.64 78.91 C 132.01 78.98 130.42 79.40 129.29 80.64 C 127.36 79.10 125.42 77.56 123.55 75.93 C 120.66 73.42 118.05 70.60 115.80 67.50 C 115.73 64.97 115.53 62.45 115.37 59.93 C 115.50 55.88 113.87 52.17 111.84 48.78 C 112.08 47.33 113.00 45.61 111.51 44.53 C 109.00 42.10 108.84 37.63 104.90 36.87 C 104.82 36.76 104.66 36.55 104.59 36.44 M 146.13 58.91 C 147.58 62.28 150.81 64.90 150.81 68.81 C 151.38 68.12 151.94 67.42 152.51 66.73 C 150.88 63.78 149.30 60.51 146.13 58.91 Z" />
</g>
<g id="#abb4d9ff">
<path fill="#abb4d9" opacity="1.00" d=" M 108.33 36.11 C 113.69 37.32 119.68 37.27 124.05 41.03 C 130.42 40.89 135.12 45.52 139.41 49.58 C 137.42 51.86 135.73 54.42 133.48 56.46 C 131.92 57.39 130.04 57.49 128.31 57.90 C 126.78 55.11 125.02 52.32 122.06 50.87 C 118.26 49.00 118.24 44.19 115.96 41.10 C 113.18 39.79 109.18 39.71 108.33 36.11 Z" />
</g>
<g id="#a7b0daff">
<path fill="#a7b0da" opacity="1.00" d=" M 46.78 40.85 C 51.72 38.55 57.41 39.31 62.66 38.25 C 62.66 38.72 62.67 39.67 62.67 40.14 C 58.57 40.59 53.84 39.68 50.37 42.43 C 44.11 47.64 39.75 54.96 37.91 62.87 C 37.33 63.03 36.17 63.34 35.60 63.49 C 32.42 65.69 28.70 66.78 25.06 67.92 L 24.90 67.42 C 27.62 65.77 30.72 64.97 33.50 63.47 C 34.66 62.58 34.89 61.47 34.19 60.14 C 33.64 60.37 32.54 60.82 31.99 61.05 C 31.71 59.27 31.44 57.49 31.25 55.70 C 32.21 56.57 33.04 57.56 33.83 58.59 C 37.58 52.34 40.30 44.87 46.78 40.85 Z" />
</g>
<g id="#a7afd6ff">
<path fill="#a7afd6" opacity="1.00" d=" M 62.71 43.23 C 63.84 42.26 64.96 41.27 66.13 40.34 C 69.80 42.78 74.63 41.32 78.74 42.53 C 78.55 44.16 77.94 45.69 77.13 47.11 C 75.73 47.38 74.85 48.17 74.47 49.48 C 71.35 50.08 68.31 49.63 66.29 46.96 C 66.01 47.53 65.45 48.68 65.17 49.25 C 63.04 47.94 62.59 45.56 62.71 43.23 Z" />
</g>
<g id="#505895ff">
<path fill="#505895" opacity="1.00" d=" M 89.74 48.87 C 92.88 46.55 94.28 41.64 98.78 41.33 C 102.43 40.63 104.87 46.04 102.39 48.57 C 99.68 51.31 96.43 53.46 93.29 55.66 C 94.04 55.74 95.53 55.88 96.28 55.95 C 92.60 59.37 87.59 60.98 82.89 62.50 C 77.54 63.99 72.46 60.79 68.69 57.29 C 70.26 57.34 71.83 57.40 73.40 57.47 C 73.44 56.40 73.49 55.34 73.56 54.27 C 76.17 53.47 78.95 53.40 81.55 52.53 C 84.43 51.70 87.32 50.69 89.74 48.87 Z" />
</g>
<g id="#61677dff">
<path fill="#61677d" opacity="1.00" d=" M 74.47 49.48 C 74.85 48.17 75.73 47.38 77.13 47.11 C 77.26 48.69 76.17 50.29 74.47 49.48 Z" />
</g>
<g id="#8187b7ff">
<path fill="#8187b7" opacity="1.00" d=" M 45.79 55.84 C 48.20 52.27 50.76 47.81 55.67 47.84 C 55.07 50.11 54.39 52.36 53.85 54.65 C 53.44 57.34 53.30 60.06 53.15 62.78 C 48.56 65.68 45.33 70.13 41.81 74.16 L 41.07 75.14 C 40.03 74.64 38.98 74.14 37.94 73.63 C 38.28 76.13 38.82 78.75 37.82 81.17 C 37.18 78.73 36.71 76.22 35.67 73.91 C 37.65 71.26 39.88 68.81 41.77 66.09 C 40.74 65.65 39.72 65.22 38.69 64.79 C 37.92 64.47 36.37 63.82 35.60 63.49 C 36.17 63.34 37.33 63.03 37.91 62.87 C 39.87 62.78 42.25 63.38 43.73 61.69 C 44.60 59.80 44.54 57.57 45.79 55.84 Z" />
</g>
<g id="#be6d7cff">
<path fill="#be6d7c" opacity="1.00" d=" M 81.55 52.53 C 82.24 48.76 87.04 49.05 89.76 47.45 L 89.74 48.87 C 87.32 50.69 84.43 51.70 81.55 52.53 Z" />
</g>
<g id="#e190a6ff">
<path fill="#e190a6" opacity="1.00" d=" M 69.28 51.33 C 71.85 51.47 74.41 51.29 76.95 50.93 C 77.40 51.22 78.30 51.79 78.75 52.07 C 76.83 54.55 73.10 53.32 70.41 53.24 C 70.13 52.76 69.56 51.81 69.28 51.33 Z" />
</g>
<g id="#6c4a4eaa">
<path fill="#6c4a4e" opacity="0.67" d=" M 29.27 54.32 L 30.09 53.66 L 30.96 53.95 C 30.55 54.27 29.73 54.91 29.32 55.23 L 29.27 54.32 Z" />
</g>
<g id="#a6aed5ff">
<path fill="#a6aed5" opacity="1.00" d=" M 53.85 54.65 C 54.82 54.57 55.80 54.49 56.77 54.41 C 61.08 63.13 67.20 71.35 75.73 76.31 C 75.56 78.65 76.31 81.53 74.30 83.28 C 70.39 87.06 64.49 86.32 59.66 88.03 C 56.89 85.74 55.18 82.42 54.11 79.04 C 53.81 75.68 53.70 72.30 53.23 68.95 C 53.08 66.89 53.08 64.83 53.15 62.78 C 53.30 60.06 53.44 57.34 53.85 54.65 Z" />
</g>
<g id="#cb5b6aff">
<path fill="#cb5b6a" opacity="1.00" d=" M 22.98 62.81 C 24.31 60.20 25.65 57.31 28.40 55.92 C 26.88 58.43 24.91 60.61 22.98 62.81 Z" />
<path fill="#cb5b6a" opacity="1.00" d=" M 20.97 69.19 C 21.42 69.08 22.32 68.84 22.77 68.73 L 23.37 68.79 C 24.53 73.94 26.25 78.95 28.00 83.92 C 28.32 84.88 28.61 85.85 28.86 86.83 C 28.40 86.95 27.47 87.17 27.01 87.29 C 25.70 85.69 24.71 83.87 24.06 81.92 C 22.68 77.78 20.79 73.65 20.97 69.19 Z" />
</g>
<g id="#a25564ff">
<path fill="#a25564" opacity="1.00" d=" M 141.05 56.13 C 144.55 60.12 150.21 64.27 149.73 70.04 C 146.72 66.22 143.64 62.47 140.75 58.57 C 140.82 57.96 140.97 56.74 141.05 56.13 Z" />
</g>
<g id="#7780b7ff">
<path fill="#7780b7" opacity="1.00" d=" M 112.00 58.22 C 113.13 58.79 114.25 59.36 115.37 59.93 C 115.53 62.45 115.73 64.97 115.80 67.50 C 114.35 71.08 116.31 75.04 114.55 78.52 C 112.99 82.24 111.32 86.50 107.37 88.25 C 103.83 89.84 99.99 90.66 96.49 92.36 C 95.84 92.35 94.55 92.32 93.90 92.31 C 92.64 92.09 91.38 91.89 90.11 91.70 C 88.73 91.52 87.34 91.38 85.95 91.18 L 85.53 91.09 C 82.74 90.20 79.80 90.23 76.95 90.77 C 75.56 90.97 74.18 91.22 72.79 91.42 C 72.45 91.44 71.76 91.48 71.42 91.50 C 70.15 91.57 68.87 91.62 67.60 91.62 C 66.92 91.47 66.25 91.32 65.58 91.16 L 63.76 90.68 C 68.39 88.82 74.04 89.31 77.97 85.94 C 78.99 83.60 79.08 80.95 79.69 78.48 C 80.01 80.92 80.38 83.36 80.80 85.79 C 81.18 86.29 81.92 87.28 82.29 87.78 C 89.90 88.98 98.18 88.76 105.12 85.08 C 107.89 82.43 108.91 78.56 110.08 75.04 C 112.01 69.58 109.84 63.63 112.00 58.22 Z" />
</g>
<g id="#a0a8d1ff">
<path fill="#a0a8d1" opacity="1.00" d=" M 134.79 66.70 C 137.08 64.23 139.56 61.80 140.75 58.57 C 143.64 62.47 146.72 66.22 149.73 70.04 C 151.42 69.88 152.68 68.77 153.76 67.55 L 154.09 67.21 C 154.46 68.10 154.80 69.01 155.11 69.93 C 154.66 73.99 154.80 78.12 153.66 82.08 C 153.44 81.23 153.01 79.53 152.79 78.68 C 152.43 78.83 151.71 79.13 151.35 79.29 C 149.15 80.75 147.49 82.82 145.65 84.69 C 141.35 89.09 136.21 92.54 131.51 96.49 C 131.27 96.70 130.79 97.13 130.54 97.35 C 131.28 98.28 132.24 98.99 133.22 99.67 C 130.75 101.98 129.45 105.09 129.07 108.41 C 125.37 113.55 120.03 117.36 116.95 122.96 C 116.80 124.16 116.67 125.35 116.54 126.55 C 114.93 129.49 115.11 132.79 116.13 135.90 C 117.45 139.70 115.85 144.53 111.93 146.03 C 109.76 146.29 107.61 145.72 105.49 145.37 C 105.22 141.17 106.14 136.51 103.39 132.93 C 100.72 128.57 98.59 123.92 96.96 119.08 C 96.79 117.33 95.14 117.36 93.76 117.24 C 94.75 115.98 95.78 114.75 96.74 113.47 C 96.84 113.30 97.04 112.96 97.14 112.79 C 98.43 109.41 99.06 105.45 101.98 103.00 C 104.32 101.28 107.31 100.99 110.08 100.44 C 114.62 99.75 119.01 98.19 123.06 96.03 C 124.10 95.64 124.54 94.62 124.93 93.67 C 128.27 91.69 129.95 88.09 132.23 85.12 C 135.30 81.08 138.91 77.33 143.33 74.76 C 143.39 74.41 143.52 73.70 143.58 73.35 C 144.28 73.25 145.69 73.05 146.39 72.95 C 143.51 69.38 138.69 68.69 134.79 66.70 M 142.87 77.81 C 137.49 82.03 133.01 87.26 128.79 92.61 C 127.96 93.42 126.91 96.16 129.08 95.62 C 131.39 94.61 133.04 92.51 134.75 90.72 C 138.52 86.16 143.00 82.27 147.24 78.16 C 148.30 77.33 148.64 75.99 149.11 74.80 C 146.67 74.80 144.78 76.54 142.87 77.81 M 106.43 107.91 C 106.46 108.81 106.48 109.71 106.51 110.62 C 104.06 112.32 101.66 114.69 102.12 117.97 L 102.67 117.49 C 103.41 118.44 104.14 119.41 104.87 120.37 C 106.37 120.56 107.88 120.92 109.39 120.78 C 111.07 122.24 113.23 122.76 115.36 123.12 C 115.24 121.78 115.08 120.44 114.89 119.11 C 115.99 117.59 116.93 115.96 117.65 114.23 C 115.67 112.45 114.64 109.89 112.92 107.95 C 110.77 107.55 108.58 107.81 106.43 107.91 M 99.92 115.65 C 101.52 114.03 102.21 111.84 102.99 109.77 C 100.36 109.31 96.81 113.64 99.92 115.65 Z" />
</g>
<g id="#a25668ff">
<path fill="#a25668" opacity="1.00" d=" M 31.99 61.05 C 32.54 60.82 33.64 60.37 34.19 60.14 C 34.89 61.47 34.66 62.58 33.50 63.47 C 30.72 64.97 27.62 65.77 24.90 67.42 L 24.52 66.15 C 26.22 63.48 29.23 62.27 31.99 61.05 Z" />
</g>
<g id="#a74f62ff">
<path fill="#a74f62" opacity="1.00" d=" M 146.13 58.91 C 149.30 60.51 150.88 63.78 152.51 66.73 C 151.94 67.42 151.38 68.12 150.81 68.81 C 150.81 64.90 147.58 62.28 146.13 58.91 Z" />
</g>
<g id="#656fafff">
<path fill="#656faf" opacity="1.00" d=" M 41.81 74.16 C 45.33 70.13 48.56 65.68 53.15 62.78 C 53.08 64.83 53.08 66.89 53.23 68.95 C 50.14 71.28 47.18 73.78 43.90 75.87 C 44.23 77.30 44.56 78.73 44.85 80.17 C 44.25 77.98 43.01 76.06 41.81 74.16 Z" />
<path fill="#656faf" opacity="1.00" d=" M 109.87 181.27 C 111.76 179.52 113.33 177.44 114.43 175.10 C 114.74 176.89 114.06 179.45 116.12 180.40 C 117.79 179.12 118.23 176.82 119.35 175.10 C 119.52 176.78 119.69 178.45 119.87 180.13 C 122.63 181.01 123.41 178.04 124.59 176.26 C 124.72 177.42 124.86 178.58 124.99 179.75 C 128.04 179.73 131.09 179.78 134.14 180.01 C 131.29 180.78 128.24 180.49 125.31 180.46 C 121.85 181.01 118.13 181.18 114.70 180.46 C 113.13 180.95 111.49 181.07 109.87 181.27 Z" />
</g>
<g id="#ad4f60ff">
<path fill="#ad4f60" opacity="1.00" d=" M 25.06 67.92 C 28.70 66.78 32.42 65.69 35.60 63.49 C 36.37 63.82 37.92 64.47 38.69 64.79 C 36.76 66.44 34.65 67.93 32.20 68.70 C 31.61 68.86 30.42 69.19 29.82 69.35 C 31.23 74.13 31.86 79.10 32.35 84.04 C 32.04 84.54 31.42 85.54 31.11 86.05 C 30.68 85.46 29.81 84.30 29.38 83.72 C 27.87 78.47 27.44 72.91 25.06 67.92 M 27.85 69.67 C 28.06 73.14 28.97 76.52 29.62 79.93 C 30.07 76.48 30.26 72.46 27.85 69.67 Z" />
</g>
<g id="#9ea5cfff">
<path fill="#9ea5cf" opacity="1.00" d=" M 38.69 64.79 C 39.72 65.22 40.74 65.65 41.77 66.09 C 39.88 68.81 37.65 71.26 35.67 73.91 C 34.56 72.14 33.35 70.44 32.20 68.70 C 34.65 67.93 36.76 66.44 38.69 64.79 Z" />
</g>
<g id="#5a6eb1ff">
<path fill="#5a6eb1" opacity="1.00" d=" M 114.55 78.52 C 116.31 75.04 114.35 71.08 115.80 67.50 C 118.05 70.60 120.66 73.42 123.55 75.93 C 120.73 79.88 117.08 83.08 113.51 86.32 C 110.78 89.27 107.21 91.37 103.21 92.02 C 102.61 92.10 101.41 92.25 100.81 92.33 C 99.37 92.38 97.93 92.39 96.49 92.36 C 99.99 90.66 103.83 89.84 107.37 88.25 C 111.32 86.50 112.99 82.24 114.55 78.52 Z" />
</g>
<g id="#9694b8ff">
<path fill="#9694b8" opacity="1.00" d=" M 130.79 69.77 C 130.95 69.31 131.28 68.39 131.44 67.93 C 134.88 70.50 139.22 71.11 142.94 73.12 C 138.58 73.44 134.70 71.34 130.79 69.77 Z" />
</g>
<g id="#b1badeff">
<path fill="#b1bade" opacity="1.00" d=" M 20.28 67.70 C 20.45 68.07 20.80 68.82 20.97 69.19 C 20.79 73.65 22.68 77.78 24.06 81.92 C 24.71 83.87 25.70 85.69 27.01 87.29 C 28.19 88.45 28.80 88.30 28.86 86.83 C 28.61 85.85 28.32 84.88 28.00 83.92 L 29.38 83.72 C 29.81 84.30 30.68 85.46 31.11 86.05 C 31.42 85.54 32.04 84.54 32.35 84.04 C 31.86 79.10 31.23 74.13 29.82 69.35 C 30.42 69.19 31.61 68.86 32.20 68.70 C 33.35 70.44 34.56 72.14 35.67 73.91 C 36.71 76.22 37.18 78.73 37.82 81.17 C 38.82 78.75 38.28 76.13 37.94 73.63 C 38.98 74.14 40.03 74.64 41.07 75.14 C 40.89 79.34 41.81 83.78 45.31 86.48 L 45.33 87.24 C 45.35 87.65 45.38 88.46 45.40 88.87 C 47.93 89.44 50.52 89.77 53.11 89.96 C 52.40 89.33 51.68 88.72 50.96 88.11 C 53.25 88.10 54.78 89.85 56.30 91.30 C 55.33 91.76 54.37 92.22 53.40 92.67 C 53.08 93.99 52.77 95.31 52.46 96.64 C 50.23 96.24 48.11 95.43 45.96 94.76 C 43.30 95.13 40.72 96.15 38.41 97.52 C 34.68 101.18 33.39 106.46 32.79 111.49 C 31.32 109.47 29.91 107.39 28.76 105.17 C 27.27 102.59 28.08 99.25 26.19 96.83 C 24.98 94.52 22.34 93.19 21.64 90.60 C 20.57 86.74 18.29 83.14 18.66 79.00 C 20.50 83.09 21.19 89.53 26.41 90.54 C 25.09 87.09 22.48 84.36 21.06 80.96 C 19.98 78.39 19.39 75.66 18.63 72.99 C 19.01 71.18 19.35 69.33 20.28 67.70 Z" />
</g>
<g id="#d35f6dff">
<path fill="#d35f6d" opacity="1.00" d=" M 27.85 69.67 C 30.26 72.46 30.07 76.48 29.62 79.93 C 28.97 76.52 28.06 73.14 27.85 69.67 Z" />
</g>
<g id="#858fc6ff">
<path fill="#858fc6" opacity="1.00" d=" M 155.11 69.93 C 156.49 73.38 158.70 76.96 157.64 80.82 C 156.69 85.12 155.64 89.41 154.03 93.51 C 149.54 94.75 146.60 98.65 142.41 100.46 C 137.72 102.67 132.47 104.23 129.07 108.41 C 129.45 105.09 130.75 101.98 133.22 99.67 C 132.24 98.99 131.28 98.28 130.54 97.35 C 130.79 97.13 131.27 96.70 131.51 96.49 C 131.70 96.80 132.10 97.42 132.29 97.73 C 134.06 98.67 135.63 96.87 137.13 96.15 C 143.12 92.01 148.99 87.24 152.72 80.87 C 152.37 80.47 151.69 79.68 151.35 79.29 C 151.71 79.13 152.43 78.83 152.79 78.68 C 153.01 79.53 153.44 81.23 153.66 82.08 C 154.80 78.12 154.66 73.99 155.11 69.93 M 147.08 93.04 C 143.32 96.84 137.93 98.25 133.94 101.74 C 138.47 101.26 142.43 98.64 146.13 96.16 C 150.05 93.05 154.55 89.28 154.93 83.92 C 152.43 87.05 150.12 90.39 147.08 93.04 Z" />
</g>
<g id="#99a0caff">
<path fill="#99a0ca" opacity="1.00" d=" M 90.09 74.98 C 93.00 74.12 95.38 72.12 98.13 70.90 C 100.16 71.25 101.96 72.51 103.19 74.13 C 103.08 77.89 101.49 82.44 97.39 83.46 C 92.10 85.97 85.61 82.10 80.80 85.79 C 80.38 83.36 80.01 80.92 79.69 78.48 C 79.88 77.44 80.10 76.40 80.32 75.37 C 83.57 75.65 86.93 76.05 90.09 74.98 Z" />
</g>
<g id="#9ca5cffd">
<path fill="#9ca5cf" opacity="1.00" d=" M 41.07 75.14 L 41.81 74.16 C 43.01 76.06 44.25 77.98 44.85 80.17 C 45.24 82.25 45.27 84.37 45.31 86.48 C 41.81 83.78 40.89 79.34 41.07 75.14 Z" />
</g>
<g id="#c8596eff">
<path fill="#c8596e" opacity="1.00" d=" M 142.87 77.81 C 144.78 76.54 146.67 74.80 149.11 74.80 C 148.64 75.99 148.30 77.33 147.24 78.16 C 143.00 82.27 138.52 86.16 134.75 90.72 C 133.04 92.51 131.39 94.61 129.08 95.62 C 126.91 96.16 127.96 93.42 128.79 92.61 C 133.01 87.26 137.49 82.03 142.87 77.81 Z" />
</g>
<g id="#b4bde1ff">
<path fill="#b4bde1" opacity="1.00" d=" M 129.29 80.64 C 130.42 79.40 132.01 78.98 133.64 78.91 C 130.16 83.36 125.91 87.93 124.93 93.67 C 124.54 94.62 124.10 95.64 123.06 96.03 C 119.01 98.19 114.62 99.75 110.08 100.44 C 107.31 100.99 104.32 101.28 101.98 103.00 C 99.06 105.45 98.43 109.41 97.14 112.79 C 94.24 108.95 98.25 104.10 101.13 101.39 C 103.69 99.71 106.16 97.89 108.60 96.04 C 109.57 95.81 110.54 95.59 111.52 95.38 C 113.35 94.99 115.19 94.57 117.01 94.12 L 117.61 93.98 C 121.09 89.18 125.14 84.85 129.29 80.64 Z" />
</g>
<g id="#be5568ff">
<path fill="#be5568" opacity="1.00" d=" M 145.65 84.69 C 147.49 82.82 149.15 80.75 151.35 79.29 C 151.69 79.68 152.37 80.47 152.72 80.87 C 148.99 87.24 143.12 92.01 137.13 96.15 C 135.63 96.87 134.06 98.67 132.29 97.73 C 132.10 97.42 131.70 96.80 131.51 96.49 C 136.21 92.54 141.35 89.09 145.65 84.69 Z" />
</g>
<g id="#6a73a7ff">
<path fill="#6a73a7" opacity="1.00" d=" M 147.08 93.04 C 150.12 90.39 152.43 87.05 154.93 83.92 C 154.55 89.28 150.05 93.05 146.13 96.16 C 142.43 98.64 138.47 101.26 133.94 101.74 C 137.93 98.25 143.32 96.84 147.08 93.04 Z" />
</g>
<g id="#907691ff">
<path fill="#907691" opacity="1.00" d=" M 27.01 87.29 C 27.47 87.17 28.40 86.95 28.86 86.83 C 28.80 88.30 28.19 88.45 27.01 87.29 Z" />
</g>
<g id="#cad0e1fb">
<path fill="#cad0e1" opacity="1.00" d=" M 45.33 87.24 C 47.20 87.53 49.09 87.77 50.96 88.11 C 51.68 88.72 52.40 89.33 53.11 89.96 C 50.52 89.77 47.93 89.44 45.40 88.87 C 45.38 88.46 45.35 87.65 45.33 87.24 Z" />
</g>
<g id="#464450ff">
<path fill="#464450" opacity="1.00" d=" M 62.44 90.07 C 62.65 90.26 63.07 90.63 63.28 90.82 C 63.15 91.94 62.12 94.57 63.70 94.84 C 64.27 93.48 64.29 92.09 63.76 90.68 L 65.58 91.16 C 65.66 93.22 65.41 95.55 67.08 97.10 C 69.85 96.69 68.96 93.09 67.60 91.62 C 68.87 91.62 70.15 91.57 71.42 91.50 C 71.41 94.52 71.42 97.54 71.47 100.57 C 70.20 100.41 68.93 100.25 67.66 100.09 C 65.91 99.63 64.19 99.07 62.47 98.52 C 62.89 95.72 62.70 92.88 62.44 90.07 Z" />
</g>
<g id="#a84562ff">
<path fill="#a84562" opacity="1.00" d=" M 76.95 90.77 C 79.80 90.23 82.74 90.20 85.53 91.09 C 84.23 92.20 83.15 93.52 82.05 94.82 L 81.04 94.89 C 80.85 93.44 80.67 91.98 80.49 90.53 C 79.60 90.59 77.84 90.71 76.95 90.77 Z" />
</g>
<g id="#949cc8ff">
<path fill="#949cc8" opacity="1.00" d=" M 56.30 91.30 C 57.81 92.74 59.30 94.18 60.79 95.64 C 60.54 98.33 60.37 101.02 60.29 103.72 L 60.28 103.75 C 57.85 101.21 54.48 102.83 51.79 103.91 C 51.59 103.57 51.19 102.88 50.99 102.54 C 50.47 102.01 49.93 101.49 49.39 100.98 C 48.33 102.68 47.63 104.74 46.00 105.99 C 44.74 106.84 43.35 105.65 42.09 105.41 C 41.24 107.42 40.40 109.44 39.56 111.45 C 38.83 111.06 38.10 110.66 37.37 110.27 C 36.54 111.61 35.83 113.15 34.26 113.77 C 33.89 113.20 33.16 112.06 32.79 111.49 C 33.39 106.46 34.68 101.18 38.41 97.52 C 40.72 96.15 43.30 95.13 45.96 94.76 C 48.11 95.43 50.23 96.24 52.46 96.64 C 52.77 95.31 53.08 93.99 53.40 92.67 C 54.37 92.22 55.33 91.76 56.30 91.30 Z" />
</g>
<g id="#d0c66bff">
<path fill="#d0c66b" opacity="1.00" d=" M 63.28 90.82 L 63.76 90.68 C 64.29 92.09 64.27 93.48 63.70 94.84 C 62.12 94.57 63.15 91.94 63.28 90.82 Z" />
</g>
<g id="#d8ce73ff">
<path fill="#d8ce73" opacity="1.00" d=" M 65.58 91.16 C 66.25 91.32 66.92 91.47 67.60 91.62 C 68.96 93.09 69.85 96.69 67.08 97.10 C 65.41 95.55 65.66 93.22 65.58 91.16 Z" />
</g>
<g id="#797248ff">
<path fill="#797248" opacity="1.00" d=" M 72.79 91.42 C 74.18 91.22 75.56 90.97 76.95 90.77 C 77.84 90.71 79.60 90.59 80.49 90.53 C 80.67 91.98 80.85 93.44 81.04 94.89 C 80.39 94.89 79.09 94.89 78.45 94.90 C 78.61 96.61 79.76 97.83 80.95 98.95 C 80.34 98.98 79.12 99.05 78.51 99.09 C 80.67 101.04 83.68 101.09 86.40 101.53 C 84.19 101.85 81.99 102.19 79.79 102.53 C 83.51 103.06 88.23 103.22 90.48 99.56 C 92.36 97.14 90.83 94.22 90.11 91.70 C 91.38 91.89 92.64 92.09 93.90 92.31 C 94.41 92.43 95.43 92.67 95.94 92.78 C 95.92 95.59 95.91 98.39 95.88 101.20 C 91.32 101.65 87.74 105.45 83.02 105.13 C 80.79 105.25 78.68 104.44 76.87 103.20 C 77.44 103.23 78.57 103.30 79.13 103.33 C 77.47 101.53 75.37 99.97 74.44 97.63 C 74.00 95.82 74.43 93.95 74.41 92.12 C 74.01 91.95 73.20 91.60 72.79 91.42 M 77.52 99.83 C 76.88 97.43 76.59 94.97 76.93 92.50 C 74.73 94.55 74.85 98.19 77.52 99.83 Z" />
</g>
<g id="#683d38ff">
<path fill="#683d38" opacity="1.00" d=" M 85.53 91.09 L 85.95 91.18 C 85.92 91.86 85.86 93.22 85.83 93.90 C 84.68 94.56 83.35 94.75 82.05 94.82 C 83.15 93.52 84.23 92.20 85.53 91.09 Z" />
</g>
<g id="#706b2dff">
<path fill="#706b2d" opacity="1.00" d=" M 85.95 91.18 C 87.34 91.38 88.73 91.52 90.11 91.70 C 90.83 94.22 92.36 97.14 90.48 99.56 C 88.23 103.22 83.51 103.06 79.79 102.53 C 81.99 102.19 84.19 101.85 86.40 101.53 C 83.68 101.09 80.67 101.04 78.51 99.09 C 79.12 99.05 80.34 98.98 80.95 98.95 C 83.05 98.96 85.14 98.60 86.62 96.98 C 86.33 95.96 86.07 94.93 85.83 93.90 C 85.86 93.22 85.92 91.86 85.95 91.18 M 88.29 93.23 C 88.77 94.99 88.60 96.99 89.22 98.70 C 91.24 97.98 90.46 93.33 88.29 93.23 Z" />
</g>
<g id="#8d8d68ff">
<path fill="#8d8d68" opacity="1.00" d=" M 108.60 96.04 C 107.72 93.72 108.26 91.42 110.22 89.82 C 111.63 91.38 111.61 93.42 111.52 95.38 C 110.54 95.59 109.57 95.81 108.60 96.04 Z" />
</g>
<g id="#bdb25dff">
<path fill="#bdb25d" opacity="1.00" d=" M 71.42 91.50 C 71.76 91.48 72.45 91.44 72.79 91.42 C 73.20 91.60 74.01 91.95 74.41 92.12 C 74.43 93.95 74.00 95.82 74.44 97.63 C 75.37 99.97 77.47 101.53 79.13 103.33 C 78.57 103.30 77.44 103.23 76.87 103.20 C 75.15 102.16 73.41 101.13 71.47 100.57 C 71.42 97.54 71.41 94.52 71.42 91.50 Z" />
<path fill="#bdb25d" opacity="1.00" d=" M 77.52 99.83 C 74.85 98.19 74.73 94.55 76.93 92.50 C 76.59 94.97 76.88 97.43 77.52 99.83 Z" />
</g>
<g id="#9f9b67ff">
<path fill="#9f9b67" opacity="1.00" d=" M 100.81 92.33 C 101.41 92.25 102.61 92.10 103.21 92.02 C 105.04 93.97 104.75 97.24 101.87 97.97 C 98.72 97.92 98.63 93.83 100.81 92.33 Z" />
</g>
<g id="#b6b168ff">
<path fill="#b6b168" opacity="1.00" d=" M 88.29 93.23 C 90.46 93.33 91.24 97.98 89.22 98.70 C 88.60 96.99 88.77 94.99 88.29 93.23 Z" />
<path fill="#b6b168" opacity="1.00" d=" M 82.05 94.82 C 83.35 94.75 84.68 94.56 85.83 93.90 C 86.07 94.93 86.33 95.96 86.62 96.98 C 85.14 98.60 83.05 98.96 80.95 98.95 C 79.76 97.83 78.61 96.61 78.45 94.90 C 79.09 94.89 80.39 94.89 81.04 94.89 L 82.05 94.82 Z" />
</g>
<g id="#7686c2ff">
<path fill="#7686c2" opacity="1.00" d=" M 142.41 100.46 C 146.60 98.65 149.54 94.75 154.03 93.51 C 153.54 96.55 150.83 98.08 148.64 99.82 C 144.66 103.16 139.45 104.34 135.00 106.89 C 130.46 108.74 129.91 114.81 125.31 116.66 C 125.21 117.34 125.02 118.71 124.93 119.39 L 124.09 118.80 C 123.91 118.67 123.55 118.40 123.37 118.27 C 122.91 119.54 122.97 121.10 122.06 122.17 C 120.88 122.81 119.51 123.00 118.21 123.28 L 116.95 122.96 C 120.03 117.36 125.37 113.55 129.07 108.41 C 132.47 104.23 137.72 102.67 142.41 100.46 Z" />
</g>
<g id="#463c65ff">
<path fill="#463c65" opacity="1.00" d=" M 62.47 98.52 C 64.19 99.07 65.91 99.63 67.66 100.09 C 69.36 103.12 71.78 105.64 73.80 108.45 C 72.78 109.29 71.77 110.13 70.75 110.96 C 68.95 109.47 67.02 108.14 64.99 106.97 C 63.64 106.17 62.35 105.30 61.10 104.35 C 60.89 104.20 60.48 103.90 60.28 103.75 L 60.29 103.72 C 61.32 102.13 62.09 100.38 62.47 98.52 Z" />
</g>
<g id="#3b325bff">
<path fill="#3b325b" opacity="1.00" d=" M 67.66 100.09 C 68.93 100.25 70.20 100.41 71.47 100.57 C 73.41 101.13 75.15 102.16 76.87 103.20 C 78.68 104.44 80.79 105.25 83.02 105.13 C 87.74 105.45 91.32 101.65 95.88 101.20 C 97.63 101.22 99.38 101.31 101.13 101.39 C 98.25 104.10 94.24 108.95 97.14 112.79 C 97.04 112.96 96.84 113.30 96.74 113.47 C 93.02 114.64 89.77 117.15 85.82 117.58 C 83.07 117.88 80.31 117.59 77.56 117.41 L 77.14 116.98 C 76.50 116.31 75.86 115.65 75.21 115.00 C 73.77 113.60 72.29 112.25 70.75 110.96 C 71.77 110.13 72.78 109.29 73.80 108.45 C 71.78 105.64 69.36 103.12 67.66 100.09 Z" />
</g>
<g id="#7880b3fc">
<path fill="#7880b3" opacity="1.00" d=" M 49.39 100.98 C 49.93 101.49 50.47 102.01 50.99 102.54 C 50.05 104.66 49.13 106.78 48.25 108.93 C 48.83 110.06 49.41 111.19 49.97 112.33 C 49.46 112.11 48.43 111.67 47.91 111.46 C 46.58 110.33 45.33 109.12 44.08 107.91 C 43.23 109.96 42.45 112.11 40.97 113.81 C 39.12 115.70 36.01 115.87 34.26 113.77 C 35.83 113.15 36.54 111.61 37.37 110.27 C 38.10 110.66 38.83 111.06 39.56 111.45 C 40.40 109.44 41.24 107.42 42.09 105.41 C 43.35 105.65 44.74 106.84 46.00 105.99 C 47.63 104.74 48.33 102.68 49.39 100.98 Z" />
</g>
<g id="#757fb6ff">
<path fill="#757fb6" opacity="1.00" d=" M 51.79 103.91 C 54.48 102.83 57.85 101.21 60.28 103.75 C 60.48 103.90 60.89 104.20 61.10 104.35 C 59.16 106.35 57.07 108.18 54.98 110.03 C 53.82 108.04 52.79 105.98 51.79 103.91 Z" />
</g>
<g id="#676fa8ff">
<path fill="#676fa8" opacity="1.00" d=" M 48.25 108.93 C 49.13 106.78 50.05 104.66 50.99 102.54 C 51.19 102.88 51.59 103.57 51.79 103.91 C 52.79 105.98 53.82 108.04 54.98 110.03 C 54.83 110.30 54.54 110.84 54.39 111.11 L 53.56 111.38 C 52.37 111.74 51.17 112.01 49.97 112.33 C 49.41 111.19 48.83 110.06 48.25 108.93 Z" />
</g>
<g id="#b3bce0ff">
<path fill="#b3bce0" opacity="1.00" d=" M 54.98 110.03 C 57.07 108.18 59.16 106.35 61.10 104.35 C 62.35 105.30 63.64 106.17 64.99 106.97 C 60.09 113.85 56.19 121.37 51.47 128.37 C 49.36 131.58 45.45 133.74 44.91 137.84 C 44.26 140.18 44.85 143.01 43.18 144.95 C 42.93 142.58 42.77 140.20 42.71 137.81 C 43.47 135.05 44.52 132.32 46.73 130.38 C 48.52 128.70 49.45 126.41 49.87 124.03 C 50.71 119.51 52.94 115.44 54.39 111.11 C 54.54 110.84 54.83 110.30 54.98 110.03 Z" />
</g>
<g id="#979cc5ff">
<path fill="#979cc5" opacity="1.00" d=" M 64.99 106.97 C 67.02 108.14 68.95 109.47 70.75 110.96 C 72.29 112.25 73.77 113.60 75.21 115.00 C 73.20 115.43 71.00 115.65 69.44 117.14 C 65.16 121.77 61.03 126.53 57.20 131.54 C 52.86 135.88 50.60 141.66 47.87 147.03 C 47.04 148.52 48.14 150.19 48.43 151.69 C 50.23 156.28 49.72 161.86 53.82 165.30 C 52.91 167.64 52.33 170.51 49.99 171.87 C 47.71 173.21 45.37 174.44 43.18 175.92 C 43.29 176.62 43.51 178.01 43.62 178.71 C 38.62 178.47 33.72 177.41 28.92 176.04 C 28.58 175.15 28.23 174.27 27.89 173.39 C 31.82 170.98 36.54 170.07 40.07 167.00 C 43.04 164.49 46.97 162.71 48.63 158.98 C 48.36 153.85 46.06 149.02 42.80 145.12 C 42.05 142.82 42.12 140.16 42.71 137.81 C 42.77 140.20 42.93 142.58 43.18 144.95 C 44.85 143.01 44.26 140.18 44.91 137.84 C 45.45 133.74 49.36 131.58 51.47 128.37 C 56.19 121.37 60.09 113.85 64.99 106.97 Z" />
</g>
<g id="#626aa2ff">
<path fill="#626aa2" opacity="1.00" d=" M 44.08 107.91 C 45.33 109.12 46.58 110.33 47.91 111.46 C 46.07 113.42 43.55 113.88 40.97 113.81 C 42.45 112.11 43.23 109.96 44.08 107.91 Z" />
</g>
<g id="#959bc4ff">
<path fill="#959bc4" opacity="1.00" d=" M 106.43 107.91 C 108.58 107.81 110.77 107.55 112.92 107.95 C 114.64 109.89 115.67 112.45 117.65 114.23 C 116.93 115.96 115.99 117.59 114.89 119.11 C 114.79 118.54 114.60 117.41 114.50 116.84 C 112.75 118.09 111.08 119.44 109.39 120.78 C 107.88 120.92 106.37 120.56 104.87 120.37 C 105.59 120.28 107.04 120.09 107.77 119.99 C 108.06 117.62 108.35 115.25 108.60 112.87 C 106.52 114.28 104.54 115.81 102.67 117.49 L 102.12 117.97 C 101.66 114.69 104.06 112.32 106.51 110.62 C 106.48 109.71 106.46 108.81 106.43 107.91 Z" />
</g>
<g id="#7981b8ff">
<path fill="#7981b8" opacity="1.00" d=" M 99.92 115.65 C 96.81 113.64 100.36 109.31 102.99 109.77 C 102.21 111.84 101.52 114.03 99.92 115.65 Z" />
</g>
<g id="#f1f1f3fc">
<path fill="#f1f1f3" opacity="1.00" d=" M 53.56 111.38 L 54.39 111.11 C 52.94 115.44 50.71 119.51 49.87 124.03 C 49.45 126.41 48.52 128.70 46.73 130.38 C 46.72 123.51 49.80 116.95 53.56 111.38 Z" />
</g>
<g id="#252049ff">
<path fill="#252049" opacity="1.00" d=" M 85.82 117.58 C 89.77 117.15 93.02 114.64 96.74 113.47 C 95.78 114.75 94.75 115.98 93.76 117.24 C 92.96 118.53 92.23 119.87 91.50 121.21 C 91.96 122.44 92.43 123.66 92.84 124.91 C 92.36 123.91 91.87 122.92 91.26 122.00 C 88.94 121.62 86.52 122.38 84.22 121.69 C 82.83 121.21 81.47 120.65 80.15 119.99 C 79.26 119.16 78.41 118.29 77.56 117.41 C 80.31 117.59 83.07 117.88 85.82 117.58 Z" />
</g>
<g id="#6a73adff">
<path fill="#6a73ad" opacity="1.00" d=" M 102.67 117.49 C 104.54 115.81 106.52 114.28 108.60 112.87 C 108.35 115.25 108.06 117.62 107.77 119.99 C 107.04 120.09 105.59 120.28 104.87 120.37 C 104.14 119.41 103.41 118.44 102.67 117.49 Z" />
</g>
<g id="#757bb0ff">
<path fill="#757bb0" opacity="1.00" d=" M 75.21 115.00 C 75.86 115.65 76.50 116.31 77.14 116.98 C 75.55 117.64 73.52 117.95 72.74 119.71 C 69.50 125.28 67.50 131.55 63.80 136.86 C 61.96 139.51 58.42 139.25 55.59 139.72 C 53.83 142.62 51.73 145.52 51.31 148.97 C 51.00 153.12 51.95 157.22 52.76 161.26 C 57.56 162.45 62.50 162.74 67.38 163.39 L 67.76 163.44 C 69.55 166.68 70.20 170.79 67.98 174.01 C 64.52 174.80 60.94 174.89 57.45 175.51 C 53.02 177.26 48.28 177.90 43.62 178.71 C 43.51 178.01 43.29 176.62 43.18 175.92 C 45.37 174.44 47.71 173.21 49.99 171.87 C 52.33 170.51 52.91 167.64 53.82 165.30 C 49.72 161.86 50.23 156.28 48.43 151.69 C 48.14 150.19 47.04 148.52 47.87 147.03 C 50.60 141.66 52.86 135.88 57.20 131.54 C 60.95 131.51 62.29 126.91 64.91 124.85 C 66.54 122.46 70.88 120.51 69.44 117.14 C 71.00 115.65 73.20 115.43 75.21 115.00 Z" />
</g>
<g id="#5a609dff">
<path fill="#5a609d" opacity="1.00" d=" M 72.74 119.71 C 73.52 117.95 75.55 117.64 77.14 116.98 L 77.56 117.41 C 78.41 118.29 79.26 119.16 80.15 119.99 C 75.35 124.12 73.99 130.56 72.15 136.33 C 75.29 134.85 76.60 131.58 77.80 128.56 C 78.89 128.37 79.97 128.18 81.06 127.99 C 77.22 133.37 73.77 139.84 67.44 142.61 C 68.01 145.95 69.24 149.52 67.83 152.82 C 66.58 156.24 66.04 159.90 67.38 163.39 C 62.50 162.74 57.56 162.45 52.76 161.26 C 51.95 157.22 51.00 153.12 51.31 148.97 C 51.73 145.52 53.83 142.62 55.59 139.72 C 58.42 139.25 61.96 139.51 63.80 136.86 C 67.50 131.55 69.50 125.28 72.74 119.71 Z" />
</g>
<g id="#878fbfff">
<path fill="#878fbf" opacity="1.00" d=" M 93.76 117.24 C 95.14 117.36 96.79 117.33 96.96 119.08 C 96.36 120.35 95.94 121.82 96.68 123.14 C 98.32 127.13 100.40 130.93 102.85 134.48 L 103.39 132.93 C 106.14 136.51 105.22 141.17 105.49 145.37 C 107.61 145.72 109.76 146.29 111.93 146.03 C 115.85 144.53 117.45 139.70 116.13 135.90 C 115.11 132.79 114.93 129.49 116.54 126.55 C 116.85 128.79 117.19 131.03 117.57 133.26 C 120.22 130.84 118.28 126.46 118.21 123.28 C 119.51 123.00 120.88 122.81 122.06 122.17 C 122.97 121.10 122.91 119.54 123.37 118.27 C 123.55 118.40 123.91 118.67 124.09 118.80 C 124.34 122.21 125.18 125.54 125.47 128.95 C 125.78 132.24 124.29 135.29 123.22 138.30 C 125.93 140.07 128.68 142.57 129.00 145.99 C 129.02 149.33 128.76 152.67 128.50 156.00 C 128.27 153.21 128.05 150.41 127.81 147.62 C 126.70 147.60 125.59 147.57 124.49 147.55 C 123.81 145.31 123.10 143.07 122.32 140.86 C 122.06 143.00 121.83 145.14 121.54 147.28 C 121.18 146.65 120.82 146.03 120.45 145.41 C 118.21 148.66 115.17 151.69 111.10 152.28 C 109.77 151.79 108.58 151.04 107.35 150.38 C 107.08 150.87 106.54 151.85 106.27 152.34 C 105.16 150.67 104.56 148.78 104.21 146.82 C 102.88 145.05 100.35 144.51 99.29 142.45 C 95.98 137.10 94.45 130.92 92.84 124.91 C 92.43 123.66 91.96 122.44 91.50 121.21 C 92.23 119.87 92.96 118.53 93.76 117.24 Z" />
</g>
<g id="#6e76b1ff">
<path fill="#6e76b1" opacity="1.00" d=" M 109.39 120.78 C 111.08 119.44 112.75 118.09 114.50 116.84 C 114.60 117.41 114.79 118.54 114.89 119.11 C 115.08 120.44 115.24 121.78 115.36 123.12 C 113.23 122.76 111.07 122.24 109.39 120.78 Z" />
</g>
<g id="#686a8fff">
<path fill="#686a8f" opacity="1.00" d=" M 69.44 117.14 C 70.88 120.51 66.54 122.46 64.91 124.85 C 62.29 126.91 60.95 131.51 57.20 131.54 C 61.03 126.53 65.16 121.77 69.44 117.14 Z" />
</g>
<g id="#434888ff">
<path fill="#434888" opacity="1.00" d=" M 80.15 119.99 C 81.47 120.65 82.83 121.21 84.22 121.69 C 83.25 123.83 82.20 125.93 81.06 127.99 C 79.97 128.18 78.89 128.37 77.80 128.56 C 76.60 131.58 75.29 134.85 72.15 136.33 C 73.99 130.56 75.35 124.12 80.15 119.99 Z" />
</g>
<g id="#75799eff">
<path fill="#75799e" opacity="1.00" d=" M 96.68 123.14 C 95.94 121.82 96.36 120.35 96.96 119.08 C 98.59 123.92 100.72 128.57 103.39 132.93 L 102.85 134.48 C 100.40 130.93 98.32 127.13 96.68 123.14 Z" />
</g>
<g id="#757aa6ff">
<path fill="#757aa6" opacity="1.00" d=" M 116.95 122.96 L 118.21 123.28 C 118.28 126.46 120.22 130.84 117.57 133.26 C 117.19 131.03 116.85 128.79 116.54 126.55 C 116.67 125.35 116.80 124.16 116.95 122.96 Z" />
</g>
<g id="#6771aeff">
<path fill="#6771ae" opacity="1.00" d=" M 122.32 140.86 C 123.10 143.07 123.81 145.31 124.49 147.55 C 125.59 147.57 126.70 147.60 127.81 147.62 C 128.05 150.41 128.27 153.21 128.50 156.00 C 128.76 152.67 129.02 149.33 129.00 145.99 C 129.45 147.62 129.95 149.28 129.75 151.01 C 129.37 155.38 130.11 159.72 130.47 164.07 C 126.70 164.52 122.88 164.75 119.10 164.36 C 118.80 161.32 117.18 158.72 116.10 155.94 C 116.46 152.42 120.97 150.79 121.54 147.28 C 121.83 145.14 122.06 143.00 122.32 140.86 Z" />
</g>
<g id="#7b81aeff">
<path fill="#7b81ae" opacity="1.00" d=" M 120.45 145.41 C 120.82 146.03 121.18 146.65 121.54 147.28 C 120.97 150.79 116.46 152.42 116.10 155.94 C 117.18 158.72 118.80 161.32 119.10 164.36 C 117.21 163.49 115.41 162.45 113.72 161.25 C 110.77 158.68 107.57 156.19 106.27 152.34 C 106.54 151.85 107.08 150.87 107.35 150.38 C 108.58 151.04 109.77 151.79 111.10 152.28 C 115.17 151.69 118.21 148.66 120.45 145.41 Z" />
</g>
<g id="#979dc4ff">
<path fill="#979dc4" opacity="1.00" d=" M 113.72 161.25 C 115.41 162.45 117.21 163.49 119.10 164.36 C 122.88 164.75 126.70 164.52 130.47 164.07 C 131.46 167.70 132.10 171.52 134.45 174.58 C 135.92 176.15 134.63 178.22 134.46 180.03 L 134.14 180.01 C 131.09 179.78 128.04 179.73 124.99 179.75 C 124.86 178.58 124.72 177.42 124.59 176.26 C 123.41 178.04 122.63 181.01 119.87 180.13 C 119.69 178.45 119.52 176.78 119.35 175.10 C 118.23 176.82 117.79 179.12 116.12 180.40 C 114.06 179.45 114.74 176.89 114.43 175.10 C 113.33 177.44 111.76 179.52 109.87 181.27 C 108.52 179.60 108.66 177.36 108.26 175.37 L 109.01 175.30 C 109.07 176.54 109.16 177.77 109.26 179.01 C 110.37 174.32 113.67 170.68 115.55 166.33 C 115.11 165.40 114.68 164.46 114.28 163.51 C 114.14 162.95 113.86 161.81 113.72 161.25 Z" />
</g>
</svg>
