<?xml version="1.0" encoding="UTF-8" ?>
<!DOCTYPE svg PUBLIC "-//W3C//DTD SVG 1.1//EN" "http://www.w3.org/Graphics/SVG/1.1/DTD/svg11.dtd">
<svg width="169pt" height="197pt" viewBox="0 0 169 197" version="1.1" xmlns="http://www.w3.org/2000/svg">
<g id="#728ca7ef">
<path fill="#728ca7" opacity="0.94" d=" M 13.23 13.14 C 14.50 13.53 19.52 12.50 20.08 15.08 C 19.36 15.10 17.93 15.13 17.22 15.14 C 15.02 16.10 13.52 18.17 11.33 19.18 C 8.77 17.41 11.86 14.68 13.23 13.14 Z" />
</g>
<g id="#819dbafa">
<path fill="#819dba" opacity="0.98" d=" M 20.08 15.08 C 22.52 13.82 29.63 10.39 28.95 14.79 C 27.72 17.58 25.06 18.70 22.18 18.85 C 21.56 17.54 20.82 16.31 20.08 15.08 Z" />
</g>
<g id="#68819ffc">
<path fill="#68819f" opacity="1.00" d=" M 11.33 19.18 C 13.52 18.17 15.02 16.10 17.22 15.14 C 16.51 16.47 15.69 17.74 14.99 19.06 C 17.15 21.08 19.85 22.43 22.12 24.32 C 23.72 28.03 19.90 31.23 22.71 34.62 C 27.03 34.74 30.64 37.18 34.64 38.43 C 38.79 41.52 36.78 48.03 35.91 52.32 C 34.01 48.37 36.17 40.07 30.07 39.19 C 29.74 39.34 29.09 39.64 28.77 39.79 C 26.89 38.52 25.20 36.38 22.73 36.50 C 18.31 34.88 14.28 32.04 10.07 29.90 C 11.54 32.93 9.55 35.84 6.31 36.10 L 6.39 35.27 C 6.61 32.80 5.62 30.07 7.65 28.08 C 12.19 30.62 13.04 22.87 11.44 19.70 L 11.33 19.18 M 14.12 20.98 C 13.73 24.02 13.27 27.06 12.99 30.12 C 14.37 28.45 15.39 26.46 17.94 26.79 C 18.70 24.17 17.08 20.88 14.12 20.98 Z" />
</g>
<g id="#4f6988ff">
<path fill="#4f6988" opacity="1.00" d=" M 17.22 15.14 C 17.93 15.13 19.36 15.10 20.08 15.08 C 20.82 16.31 21.56 17.54 22.18 18.85 C 22.40 19.35 22.84 20.36 23.06 20.87 L 23.32 21.78 C 23.02 22.41 22.42 23.68 22.12 24.32 C 19.85 22.43 17.15 21.08 14.99 19.06 C 15.69 17.74 16.51 16.47 17.22 15.14 Z" />
</g>
<g id="#637c9bfd">
<path fill="#637c9b" opacity="1.00" d=" M 22.18 18.85 C 25.06 18.70 27.72 17.58 28.95 14.79 C 29.99 15.14 30.52 15.83 30.53 16.88 C 30.21 18.88 32.11 22.55 29.07 22.86 C 27.20 21.80 25.27 20.83 23.06 20.87 C 22.84 20.36 22.40 19.35 22.18 18.85 Z" />
</g>
<g id="#728ba9fd">
<path fill="#728ba9" opacity="1.00" d=" M 29.07 22.86 C 32.11 22.55 30.21 18.88 30.53 16.88 C 31.26 18.23 34.05 19.32 33.45 20.87 C 31.43 23.35 29.70 28.17 33.98 29.34 C 34.12 30.89 33.55 31.33 32.28 30.65 C 29.04 27.98 24.09 26.46 23.32 21.78 L 23.06 20.87 C 25.27 20.83 27.20 21.80 29.07 22.86 Z" />
</g>
<g id="#afa594f8">
<path fill="#afa594" opacity="0.97" d=" M 83.24 18.18 C 85.21 17.78 88.58 18.57 88.23 21.16 C 86.44 24.98 80.97 25.16 77.95 28.00 C 78.10 24.18 80.45 20.69 83.24 18.18 Z" />
</g>
<g id="#7b9ab7f5">
<path fill="#7b9ab7" opacity="0.96" d=" M 119.32 20.42 C 123.52 20.47 126.93 16.91 131.21 18.16 C 128.41 20.07 127.14 23.42 124.24 25.19 C 123.92 24.83 123.29 24.10 122.97 23.74 C 120.49 19.57 119.27 26.25 118.16 28.29 C 117.89 28.53 117.36 29.02 117.10 29.27 C 115.97 28.65 115.09 27.69 114.16 26.83 C 115.31 24.33 116.16 20.93 119.32 20.42 Z" />
</g>
<g id="#6984a3fd">
<path fill="#6984a3" opacity="1.00" d=" M 131.21 18.16 L 132.10 17.96 L 132.05 18.95 C 130.37 21.26 128.71 23.59 127.09 25.94 C 127.84 25.99 129.35 26.10 130.10 26.15 C 128.76 27.47 125.21 26.20 125.99 29.04 C 125.48 32.96 132.12 33.81 133.33 30.31 C 134.49 27.65 136.64 25.65 139.10 24.19 C 140.60 23.73 141.11 25.96 141.21 27.05 C 140.43 27.99 139.64 28.91 138.83 29.82 C 137.77 30.78 136.66 31.70 135.79 32.83 C 133.59 34.85 135.45 41.78 131.28 38.83 C 130.06 34.28 124.97 34.30 121.08 34.02 C 118.96 34.95 117.22 36.59 115.55 38.16 L 114.85 37.98 C 114.81 36.18 117.17 34.02 115.92 32.56 C 119.16 31.07 125.19 32.37 124.31 27.16 C 124.38 26.50 124.36 25.84 124.24 25.19 C 127.14 23.42 128.41 20.07 131.21 18.16 Z" />
</g>
<g id="#536d8cf8">
<path fill="#536d8c" opacity="0.97" d=" M 132.05 18.95 C 133.74 19.27 134.12 21.41 134.89 22.72 C 133.04 23.48 131.67 24.97 130.10 26.15 C 129.35 26.10 127.84 25.99 127.09 25.94 C 128.71 23.59 130.37 21.26 132.05 18.95 Z" />
</g>
<g id="#7d9bbafc">
<path fill="#7d9bba" opacity="1.00" d=" M 8.58 23.86 C 8.39 22.10 9.67 20.11 11.44 19.70 C 13.04 22.87 12.19 30.62 7.65 28.08 C 8.64 26.84 9.12 25.40 8.58 23.86 Z" />
</g>
<g id="#506a8aff">
<path fill="#506a8a" opacity="1.00" d=" M 14.12 20.98 C 17.08 20.88 18.70 24.17 17.94 26.79 C 15.39 26.46 14.37 28.45 12.99 30.12 C 13.27 27.06 13.73 24.02 14.12 20.98 Z" />
</g>
<g id="#86a1c0fc">
<path fill="#86a1c0" opacity="1.00" d=" M 33.98 29.34 C 29.70 28.17 31.43 23.35 33.45 20.87 C 35.32 22.11 37.03 23.64 39.18 24.37 C 36.39 24.82 32.91 25.65 33.98 29.34 Z" />
</g>
<g id="#84827cfa">
<path fill="#84827c" opacity="0.98" d=" M 88.23 21.16 C 89.94 22.11 89.75 26.01 90.13 28.15 C 88.19 27.93 86.26 26.87 84.30 27.26 C 82.68 28.65 81.24 30.23 79.76 31.76 C 78.82 32.18 77.88 32.61 76.95 33.04 C 77.23 31.35 77.58 29.67 77.95 28.00 C 80.97 25.16 86.44 24.98 88.23 21.16 Z" />
</g>
<g id="#607997ff">
<path fill="#607997" opacity="1.00" d=" M 23.32 21.78 C 24.09 26.46 29.04 27.98 32.28 30.65 C 33.55 31.33 34.12 30.89 33.98 29.34 C 35.67 27.71 37.34 25.79 39.89 25.79 L 40.90 25.97 C 40.95 26.42 41.07 27.33 41.13 27.78 C 39.29 26.96 37.47 27.97 36.10 29.19 C 35.38 31.62 38.68 31.47 39.95 32.77 C 41.28 33.55 42.32 34.77 43.14 36.06 C 43.33 36.35 43.71 36.95 43.90 37.24 C 43.91 37.64 43.92 38.44 43.93 38.84 C 39.34 40.46 39.73 45.90 38.87 49.93 C 38.55 51.21 38.93 53.08 37.12 53.25 L 36.04 53.23 L 35.91 52.32 C 36.78 48.03 38.79 41.52 34.64 38.43 C 30.64 37.18 27.03 34.74 22.71 34.62 C 19.90 31.23 23.72 28.03 22.12 24.32 C 22.42 23.68 23.02 22.41 23.32 21.78 Z" />
</g>
<g id="#9e9a8df3">
<path fill="#9e9a8d" opacity="0.95" d=" M 69.17 22.09 C 71.02 22.84 73.03 23.84 73.93 25.70 C 70.88 27.22 66.90 28.83 67.85 33.01 L 66.96 32.95 C 67.02 31.60 67.03 30.26 67.01 28.92 C 67.23 27.40 66.54 26.70 64.94 26.82 C 66.84 25.69 68.20 24.04 69.17 22.09 Z" />
</g>
<g id="#6a85a4ff">
<path fill="#6a85a4" opacity="1.00" d=" M 118.16 28.29 C 119.27 26.25 120.49 19.57 122.97 23.74 C 120.60 24.45 120.80 27.81 118.16 28.29 Z" />
</g>
<g id="#7d9cbcff">
<path fill="#7d9cbc" opacity="1.00" d=" M 130.10 26.15 C 131.67 24.97 133.04 23.48 134.89 22.72 C 136.40 22.86 137.96 23.09 139.10 24.19 C 136.64 25.65 134.49 27.65 133.33 30.31 C 132.12 33.81 125.48 32.96 125.99 29.04 C 125.21 26.20 128.76 27.47 130.10 26.15 Z" />
</g>
<g id="#92b0c7f4">
<path fill="#92b0c7" opacity="0.96" d=" M 8.58 23.86 C 9.12 25.40 8.64 26.84 7.65 28.08 C 5.62 30.07 6.61 32.80 6.39 35.27 C 2.76 31.62 6.58 27.14 8.58 23.86 Z" />
</g>
<g id="#6c89a9fc">
<path fill="#6c89a9" opacity="1.00" d=" M 39.18 24.37 L 40.03 24.16 C 39.99 24.57 39.93 25.38 39.89 25.79 C 37.34 25.79 35.67 27.71 33.98 29.34 C 32.91 25.65 36.39 24.82 39.18 24.37 Z" />
</g>
<g id="#88867be6">
<path fill="#88867b" opacity="0.90" d=" M 92.19 28.21 C 92.70 24.49 100.74 21.52 101.17 26.84 C 98.33 23.92 95.12 27.24 92.19 28.21 Z" />
</g>
<g id="#536c86ef">
<path fill="#536c86" opacity="0.94" d=" M 118.16 28.29 C 120.80 27.81 120.60 24.45 122.97 23.74 C 123.29 24.10 123.92 24.83 124.24 25.19 C 124.36 25.84 124.38 26.50 124.31 27.16 C 122.60 26.64 122.19 27.40 122.55 28.91 C 121.08 30.37 118.74 30.14 116.86 30.78 C 116.92 30.40 117.04 29.65 117.10 29.27 C 117.36 29.02 117.89 28.53 118.16 28.29 Z" />
</g>
<g id="#6d7171fd">
<path fill="#6d7171" opacity="1.00" d=" M 92.19 28.21 C 95.12 27.24 98.33 23.92 101.17 26.84 C 103.02 27.85 101.02 30.39 101.11 32.01 C 100.98 32.76 100.72 34.28 100.59 35.04 C 100.40 35.30 100.02 35.82 99.83 36.07 C 98.35 34.90 96.84 33.64 95.01 33.03 C 91.46 34.17 88.48 36.55 85.53 38.74 C 83.86 38.86 84.21 39.72 85.07 40.68 C 84.77 40.97 84.16 41.55 83.86 41.85 L 82.98 41.68 C 82.80 41.22 82.43 40.30 82.25 39.85 C 83.16 38.27 84.11 36.70 84.98 35.09 C 87.48 32.90 89.90 30.62 92.19 28.21 Z" />
</g>
<g id="#8d8b83ff">
<path fill="#8d8b83" opacity="1.00" d=" M 67.85 33.01 C 66.90 28.83 70.88 27.22 73.93 25.70 C 75.10 26.47 76.11 27.45 77.17 28.35 C 76.80 28.68 76.07 29.32 75.70 29.64 C 73.77 30.53 72.22 32.02 71.57 34.09 L 70.97 33.81 C 68.83 31.93 68.79 34.31 68.65 36.17 C 68.36 35.12 68.09 34.07 67.85 33.01 Z" />
</g>
<g id="#46617ef3">
<path fill="#46617e" opacity="0.95" d=" M 36.10 29.19 C 37.47 27.97 39.29 26.96 41.13 27.78 C 42.99 28.33 39.11 30.86 39.95 32.77 C 38.68 31.47 35.38 31.62 36.10 29.19 Z" />
</g>
<g id="#96b5c7ef">
<path fill="#96b5c7" opacity="0.94" d=" M 51.67 33.58 C 55.64 30.59 59.79 27.22 64.94 26.82 C 66.54 26.70 67.23 27.40 67.01 28.92 C 62.41 27.02 57.91 30.98 54.33 33.36 C 51.33 35.71 47.38 35.97 43.90 37.24 C 43.71 36.95 43.33 36.35 43.14 36.06 C 45.94 35.09 48.80 34.29 51.67 33.58 Z" />
</g>
<g id="#6a87a6ff">
<path fill="#6a87a6" opacity="1.00" d=" M 84.30 27.26 C 86.26 26.87 88.19 27.93 90.13 28.15 C 88.39 30.41 85.59 32.15 84.98 35.09 C 84.11 36.70 83.16 38.27 82.25 39.85 C 80.80 42.29 79.21 44.64 77.80 47.11 C 75.72 41.98 78.49 36.74 79.76 31.76 C 81.24 30.23 82.68 28.65 84.30 27.26 Z" />
</g>
<g id="#8baac6fb">
<path fill="#8baac6" opacity="1.00" d=" M 122.55 28.91 C 122.19 27.40 122.60 26.64 124.31 27.16 C 125.19 32.37 119.16 31.07 115.92 32.56 L 115.02 32.82 C 114.76 31.40 115.37 30.73 116.86 30.78 C 118.74 30.14 121.08 30.37 122.55 28.91 Z" />
</g>
<g id="#9ab6cef5">
<path fill="#9ab6ce" opacity="0.96" d=" M 141.21 27.05 C 142.90 26.65 144.49 27.12 145.04 28.89 C 142.95 29.06 140.89 29.43 138.83 29.82 C 139.64 28.91 140.43 27.99 141.21 27.05 Z" />
</g>
<g id="#7c9cbffe">
<path fill="#7c9cbf" opacity="1.00" d=" M 54.33 33.36 C 57.91 30.98 62.41 27.02 67.01 28.92 C 67.03 30.26 67.02 31.60 66.96 32.95 C 63.22 32.35 59.70 33.14 56.69 35.29 L 56.09 34.78 C 54.80 34.02 53.58 36.93 51.89 36.78 C 48.97 36.98 47.15 39.34 45.16 41.17 C 44.85 40.59 44.24 39.42 43.93 38.84 C 43.92 38.44 43.91 37.64 43.90 37.24 C 47.38 35.97 51.33 35.71 54.33 33.36 Z" />
</g>
<g id="#a0a19cff">
<path fill="#a0a19c" opacity="1.00" d=" M 77.17 28.35 L 77.95 28.00 C 77.58 29.67 77.23 31.35 76.95 33.04 C 76.77 33.59 76.41 34.69 76.24 35.25 C 76.08 33.71 75.91 32.17 75.74 30.63 L 75.70 29.64 C 76.07 29.32 76.80 28.68 77.17 28.35 Z" />
</g>
<g id="#a5a297fd">
<path fill="#a5a297" opacity="1.00" d=" M 90.13 28.15 C 90.65 28.17 91.68 28.20 92.19 28.21 C 89.90 30.62 87.48 32.90 84.98 35.09 C 85.59 32.15 88.39 30.41 90.13 28.15 Z" />
</g>
<g id="#84a1c1ff">
<path fill="#84a1c1" opacity="1.00" d=" M 138.83 29.82 C 140.89 29.43 142.95 29.06 145.04 28.89 C 146.16 29.23 146.45 30.31 145.93 32.15 C 145.35 31.38 144.75 30.62 144.13 29.89 C 142.30 32.54 140.69 35.33 138.82 37.95 C 135.12 39.13 136.03 35.23 135.79 32.83 C 136.66 31.70 137.77 30.78 138.83 29.82 Z" />
</g>
<g id="#8db0ccff">
<path fill="#8db0cc" opacity="1.00" d=" M 71.57 34.09 C 72.22 32.02 73.77 30.53 75.70 29.64 L 75.74 30.63 C 74.26 31.56 73.56 35.38 71.57 34.09 Z" />
</g>
<g id="#6f89a7fd">
<path fill="#6f89a7" opacity="1.00" d=" M 144.13 29.89 C 144.75 30.62 145.35 31.38 145.93 32.15 C 146.12 33.65 146.03 35.19 145.75 36.68 C 143.64 42.33 150.34 46.02 152.78 50.20 C 150.45 53.45 152.69 59.57 148.20 60.65 C 145.80 60.44 143.40 60.17 141.02 59.85 C 139.42 53.98 149.37 54.53 149.04 49.01 C 149.28 46.85 147.14 45.66 145.83 44.33 C 142.81 44.30 139.56 46.39 136.71 45.19 C 137.12 42.66 136.93 39.87 138.82 37.95 C 140.69 35.33 142.30 32.54 144.13 29.89 Z" />
</g>
<g id="#718fadff">
<path fill="#718fad" opacity="1.00" d=" M 71.57 34.09 C 73.56 35.38 74.26 31.56 75.74 30.63 C 75.91 32.17 76.08 33.71 76.24 35.25 C 75.13 39.51 75.09 43.95 74.66 48.31 C 72.67 43.71 71.66 38.75 70.97 33.81 L 71.57 34.09 Z" />
</g>
<g id="#74797cff">
<path fill="#74797c" opacity="1.00" d=" M 76.95 33.04 C 77.88 32.61 78.82 32.18 79.76 31.76 C 78.49 36.74 75.72 41.98 77.80 47.11 C 78.07 47.64 78.62 48.70 78.90 49.23 C 77.20 49.15 73.82 48.99 72.12 48.91 C 72.07 48.41 71.98 47.39 71.94 46.88 C 72.04 45.29 71.49 43.85 70.37 42.73 C 70.09 42.25 69.53 41.30 69.25 40.82 C 69.07 39.53 68.90 38.24 68.73 36.94 L 68.65 36.17 C 68.79 34.31 68.83 31.93 70.97 33.81 C 71.66 38.75 72.67 43.71 74.66 48.31 C 75.09 43.95 75.13 39.51 76.24 35.25 C 76.41 34.69 76.77 33.59 76.95 33.04 Z" />
</g>
<g id="#95b3cefe">
<path fill="#95b3ce" opacity="1.00" d=" M 101.11 32.01 C 101.53 32.06 102.35 32.17 102.76 32.22 C 105.51 32.74 108.29 33.22 110.98 33.99 L 111.11 34.69 C 110.86 35.03 110.34 35.71 110.08 36.05 C 107.05 37.97 103.62 35.72 100.59 35.04 C 100.72 34.28 100.98 32.76 101.11 32.01 Z" />
</g>
<g id="#b8d7eefb">
<path fill="#b8d7ee" opacity="1.00" d=" M 102.76 32.22 C 106.61 31.90 110.64 31.44 114.21 33.23 C 114.33 35.57 112.30 34.20 110.98 33.99 C 108.29 33.22 105.51 32.74 102.76 32.22 Z" />
</g>
<g id="#6a8cb4ff">
<path fill="#6a8cb4" opacity="1.00" d=" M 56.69 35.29 C 59.70 33.14 63.22 32.35 66.96 32.95 L 67.85 33.01 C 68.09 34.07 68.36 35.12 68.65 36.17 L 68.73 36.94 C 68.21 37.68 67.68 38.41 67.15 39.14 C 63.84 36.70 59.21 38.73 56.69 35.29 Z" />
</g>
<g id="#6a84a2ff">
<path fill="#6a84a2" opacity="1.00" d=" M 85.53 38.74 C 88.48 36.55 91.46 34.17 95.01 33.03 C 96.84 33.64 98.35 34.90 99.83 36.07 C 100.56 37.02 101.29 37.96 101.99 38.93 C 104.09 43.94 108.15 50.56 103.14 55.16 C 103.50 52.16 104.14 48.99 102.94 46.12 C 102.48 46.34 101.58 46.78 101.13 47.00 C 101.10 46.48 101.06 45.44 101.04 44.92 C 101.23 43.66 100.96 42.63 100.22 41.84 C 99.74 41.50 98.78 40.81 98.30 40.47 C 95.83 37.91 92.80 41.71 90.14 42.29 C 88.60 41.11 87.05 39.94 85.53 38.74 Z" />
</g>
<g id="#7f9fbfff">
<path fill="#7f9fbf" opacity="1.00" d=" M 114.21 33.23 L 115.02 32.82 L 115.92 32.56 C 117.17 34.02 114.81 36.18 114.85 37.98 C 113.22 42.19 110.14 38.85 111.11 34.69 L 110.98 33.99 C 112.30 34.20 114.33 35.57 114.21 33.23 Z" />
</g>
<g id="#7893b1ff">
<path fill="#7893b1" opacity="1.00" d=" M 131.28 38.83 C 135.45 41.78 133.59 34.85 135.79 32.83 C 136.03 35.23 135.12 39.13 138.82 37.95 C 136.93 39.87 137.12 42.66 136.71 45.19 C 133.52 43.85 132.28 39.92 128.66 39.48 L 129.29 38.95 C 129.79 38.92 130.78 38.86 131.28 38.83 Z" />
</g>
<g id="#698ab2ff">
<path fill="#698ab2" opacity="1.00" d=" M 51.89 36.78 C 53.58 36.93 54.80 34.02 56.09 34.78 C 56.54 36.19 57.16 37.53 57.73 38.90 C 53.05 39.73 48.96 41.91 44.72 43.88 C 44.83 43.20 45.05 41.85 45.16 41.17 C 47.15 39.34 48.97 36.98 51.89 36.78 Z" />
</g>
<g id="#5a7493ff">
<path fill="#5a7493" opacity="1.00" d=" M 115.55 38.16 C 117.22 36.59 118.96 34.95 121.08 34.02 C 124.97 34.30 130.06 34.28 131.28 38.83 C 130.78 38.86 129.79 38.92 129.29 38.95 C 125.88 39.01 122.48 38.98 119.08 39.16 C 117.88 38.88 116.71 38.55 115.55 38.16 Z" />
</g>
<g id="#5e7ca2ff">
<path fill="#5e7ca2" opacity="1.00" d=" M 56.09 34.78 L 56.69 35.29 C 59.21 38.73 63.84 36.70 67.15 39.14 L 67.14 39.72 C 65.60 40.95 64.28 42.41 63.19 44.04 C 61.80 40.65 57.70 42.08 54.85 42.70 C 51.54 43.15 49.10 45.58 46.15 46.89 C 45.69 45.99 43.59 44.90 44.72 43.88 C 48.96 41.91 53.05 39.73 57.73 38.90 C 57.16 37.53 56.54 36.19 56.09 34.78 Z" />
</g>
<g id="#7f9fc2ff">
<path fill="#7f9fc2" opacity="1.00" d=" M 99.83 36.07 C 100.02 35.82 100.40 35.30 100.59 35.04 C 103.62 35.72 107.05 37.97 110.08 36.05 C 109.75 38.01 110.63 40.55 108.78 41.91 C 106.13 42.37 104.22 39.94 101.99 38.93 C 101.29 37.96 100.56 37.02 99.83 36.07 Z" />
</g>
<g id="#6c8db3ff">
<path fill="#6c8db3" opacity="1.00" d=" M 110.08 36.05 C 110.34 35.71 110.86 35.03 111.11 34.69 C 110.14 38.85 113.22 42.19 114.85 37.98 L 115.55 38.16 C 116.71 38.55 117.88 38.88 119.08 39.16 C 116.61 42.02 113.69 44.65 112.01 48.09 C 111.21 50.57 113.47 51.50 115.29 52.36 C 114.71 53.26 114.11 54.14 113.40 54.93 C 111.60 52.93 110.26 55.43 109.24 56.78 C 106.82 55.16 104.38 57.51 102.05 58.16 C 102.38 57.15 102.74 56.15 103.14 55.16 C 108.15 50.56 104.09 43.94 101.99 38.93 C 104.22 39.94 106.13 42.37 108.78 41.91 C 110.63 40.55 109.75 38.01 110.08 36.05 Z" />
</g>
<g id="#94aec7f9">
<path fill="#94aec7" opacity="0.98" d=" M 22.73 36.50 C 25.20 36.38 26.89 38.52 28.77 39.79 C 30.04 43.57 31.78 47.34 32.35 51.29 C 27.11 48.21 24.60 42.05 22.73 36.50 Z" />
</g>
<g id="#a4bfd2ff">
<path fill="#a4bfd2" opacity="1.00" d=" M 67.15 39.14 C 67.68 38.41 68.21 37.68 68.73 36.94 C 68.90 38.24 69.07 39.53 69.25 40.82 C 68.75 42.30 68.17 43.75 67.65 45.23 C 66.77 43.54 67.32 41.54 67.14 39.72 L 67.15 39.14 Z" />
</g>
<g id="#89a3bdf8">
<path fill="#89a3bd" opacity="0.97" d=" M 152.78 50.20 C 150.34 46.02 143.64 42.33 145.75 36.68 C 149.91 39.60 154.11 44.72 152.78 50.20 Z" />
</g>
<g id="#748eaafc">
<path fill="#748eaa" opacity="1.00" d=" M 28.77 39.79 C 29.09 39.64 29.74 39.34 30.07 39.19 C 36.17 40.07 34.01 48.37 35.91 52.32 L 36.04 53.23 C 34.95 52.62 32.54 52.70 32.35 51.29 C 31.78 47.34 30.04 43.57 28.77 39.79 Z" />
</g>
<g id="#566f8ffd">
<path fill="#566f8f" opacity="1.00" d=" M 38.87 49.93 C 39.73 45.90 39.34 40.46 43.93 38.84 C 44.24 39.42 44.85 40.59 45.16 41.17 C 45.05 41.85 44.83 43.20 44.72 43.88 C 43.59 44.90 45.69 45.99 46.15 46.89 C 49.10 45.58 51.54 43.15 54.85 42.70 C 57.70 42.08 61.80 40.65 63.19 44.04 C 63.12 45.28 63.05 46.51 63.01 47.74 C 60.56 48.31 58.11 48.90 55.72 49.67 C 53.11 50.28 50.81 51.82 48.97 53.73 C 48.35 54.36 47.72 54.97 47.07 55.57 C 44.30 53.93 38.22 55.54 37.12 53.25 C 38.93 53.08 38.55 51.21 38.87 49.93 Z" />
</g>
<g id="#4c5562ff">
<path fill="#4c5562" opacity="1.00" d=" M 85.07 40.68 C 84.21 39.72 83.86 38.86 85.53 38.74 C 87.05 39.94 88.60 41.11 90.14 42.29 C 89.92 43.28 89.69 44.26 89.44 45.24 C 89.00 42.96 87.17 41.42 85.07 40.68 Z" />
</g>
<g id="#7890acff">
<path fill="#7890ac" opacity="1.00" d=" M 90.14 42.29 C 92.80 41.71 95.83 37.91 98.30 40.47 C 96.12 43.09 93.28 48.20 89.24 46.18 L 89.44 45.24 C 89.69 44.26 89.92 43.28 90.14 42.29 Z" />
</g>
<g id="#6081a8ff">
<path fill="#6081a8" opacity="1.00" d=" M 119.08 39.16 C 122.48 38.98 125.88 39.01 129.29 38.95 L 128.66 39.48 L 127.93 40.01 C 123.85 41.79 124.92 46.65 123.90 50.19 C 125.98 41.27 115.55 45.49 117.08 50.91 L 116.81 51.78 C 116.43 51.93 115.67 52.22 115.29 52.36 C 113.47 51.50 111.21 50.57 112.01 48.09 C 113.69 44.65 116.61 42.02 119.08 39.16 Z" />
</g>
<g id="#eef0bdff">
<path fill="#eef0bd" opacity="1.00" d=" M 63.19 44.04 C 64.28 42.41 65.60 40.95 67.14 39.72 C 67.32 41.54 66.77 43.54 67.65 45.23 C 67.97 45.66 68.61 46.52 68.92 46.96 C 69.22 47.25 69.80 47.83 70.09 48.12 C 69.39 49.50 68.75 50.91 68.04 52.29 C 66.98 51.44 65.96 50.54 64.94 49.64 C 64.30 48.99 63.66 48.36 63.01 47.74 C 63.05 46.51 63.12 45.28 63.19 44.04 Z" />
</g>
<g id="#565d5fff">
<path fill="#565d5f" opacity="1.00" d=" M 82.25 39.85 C 82.43 40.30 82.80 41.22 82.98 41.68 C 82.20 42.73 81.43 43.79 80.76 44.92 C 80.41 46.21 79.69 48.79 79.33 50.07 L 78.90 49.23 C 78.62 48.70 78.07 47.64 77.80 47.11 C 79.21 44.64 80.80 42.29 82.25 39.85 Z" />
</g>
<g id="#718dacfe">
<path fill="#718dac" opacity="1.00" d=" M 123.90 50.19 C 124.92 46.65 123.85 41.79 127.93 40.01 C 129.31 46.79 130.97 53.78 135.48 59.25 C 135.35 59.66 135.09 60.48 134.96 60.89 C 134.63 61.62 134.63 62.36 134.96 63.12 C 134.86 67.65 131.65 71.50 131.74 76.17 C 127.47 72.30 131.11 66.01 132.80 61.83 C 133.69 59.61 130.70 58.76 129.37 57.66 C 127.92 56.43 126.42 55.25 124.91 54.10 C 124.58 52.79 124.21 51.50 123.90 50.19 Z" />
</g>
<g id="#829dbaff">
<path fill="#829dba" opacity="1.00" d=" M 127.93 40.01 L 128.66 39.48 C 132.28 39.92 133.52 43.85 136.71 45.19 C 139.56 46.39 142.81 44.30 145.83 44.33 C 147.14 45.66 149.28 46.85 149.04 49.01 C 149.37 54.53 139.42 53.98 141.02 59.85 C 143.40 60.17 145.80 60.44 148.20 60.65 C 146.46 60.91 144.75 61.95 142.97 61.55 C 140.69 60.85 138.40 60.65 136.10 60.95 L 134.96 60.89 C 135.09 60.48 135.35 59.66 135.48 59.25 C 130.97 53.78 129.31 46.79 127.93 40.01 Z" />
</g>
<g id="#f6f4ecff">
<path fill="#f6f4ec" opacity="1.00" d=" M 69.25 40.82 C 69.53 41.30 70.09 42.25 70.37 42.73 C 69.89 44.14 69.36 45.53 68.92 46.96 C 68.61 46.52 67.97 45.66 67.65 45.23 C 68.17 43.75 68.75 42.30 69.25 40.82 Z" />
</g>
<g id="#ececeaff">
<path fill="#ececea" opacity="1.00" d=" M 83.86 41.85 C 84.16 41.55 84.77 40.97 85.07 40.68 C 87.17 41.42 89.00 42.96 89.44 45.24 L 89.24 46.18 C 89.40 49.03 85.42 48.28 85.40 45.86 C 84.94 44.50 84.43 43.16 83.86 41.85 Z" />
</g>
<g id="#c6caa6ff">
<path fill="#c6caa6" opacity="1.00" d=" M 89.24 46.18 C 93.28 48.20 96.12 43.09 98.30 40.47 C 98.78 40.81 99.74 41.50 100.22 41.84 C 99.05 43.84 97.83 45.82 96.81 47.90 C 95.97 48.37 95.11 48.79 94.23 49.16 C 87.92 50.02 82.03 52.90 76.11 55.18 C 76.69 54.21 77.29 53.26 77.82 52.27 C 76.80 51.96 75.79 51.64 74.78 51.30 C 76.19 50.80 78.64 51.73 79.33 50.07 C 79.69 48.79 80.41 46.21 80.76 44.92 C 80.99 46.34 81.12 47.85 82.10 48.99 C 83.59 48.36 85.23 47.71 85.40 45.86 C 85.42 48.28 89.40 49.03 89.24 46.18 Z" />
</g>
<g id="#934e3fff">
<path fill="#934e3f" opacity="1.00" d=" M 80.76 44.92 C 81.43 43.79 82.20 42.73 82.98 41.68 L 83.86 41.85 C 84.43 43.16 84.94 44.50 85.40 45.86 C 85.23 47.71 83.59 48.36 82.10 48.99 C 81.12 47.85 80.99 46.34 80.76 44.92 Z" />
</g>
<g id="#a6ad8eff">
<path fill="#a6ad8e" opacity="1.00" d=" M 100.22 41.84 C 100.96 42.63 101.23 43.66 101.04 44.92 C 99.67 45.96 98.33 47.08 96.81 47.90 C 97.83 45.82 99.05 43.84 100.22 41.84 Z" />
</g>
<g id="#a46653ff">
<path fill="#a46653" opacity="1.00" d=" M 70.37 42.73 C 71.49 43.85 72.04 45.29 71.94 46.88 C 71.48 47.19 70.55 47.81 70.09 48.12 C 69.80 47.83 69.22 47.25 68.92 46.96 C 69.36 45.53 69.89 44.14 70.37 42.73 Z" />
</g>
<g id="#83907aff">
<path fill="#83907a" opacity="1.00" d=" M 96.81 47.90 C 98.33 47.08 99.67 45.96 101.04 44.92 C 101.06 45.44 101.10 46.48 101.13 47.00 C 99.17 56.26 90.93 61.79 82.06 63.16 L 80.90 63.08 C 81.18 61.78 82.07 60.85 83.07 60.04 C 84.33 59.35 85.58 58.65 86.83 57.95 C 89.61 57.75 92.99 57.29 93.95 54.00 C 99.46 50.03 93.80 51.24 91.89 50.80 C 92.67 50.25 93.45 49.70 94.23 49.16 C 95.11 48.79 95.97 48.37 96.81 47.90 Z" />
</g>
<g id="#526e92ff">
<path fill="#526e92" opacity="1.00" d=" M 117.08 50.91 C 115.55 45.49 125.98 41.27 123.90 50.19 C 124.21 51.50 124.58 52.79 124.91 54.10 C 122.30 53.03 119.70 51.95 117.08 50.91 Z" />
</g>
<g id="#4e6c8eff">
<path fill="#4e6c8e" opacity="1.00" d=" M 101.13 47.00 C 101.58 46.78 102.48 46.34 102.94 46.12 C 104.14 48.99 103.50 52.16 103.14 55.16 C 102.74 56.15 102.38 57.15 102.05 58.16 C 99.23 61.30 96.42 64.53 92.87 66.89 C 88.71 66.26 85.04 67.92 81.31 69.33 C 80.48 67.23 78.92 64.09 82.06 63.16 C 90.93 61.79 99.17 56.26 101.13 47.00 Z" />
</g>
<g id="#d5daadff">
<path fill="#d5daad" opacity="1.00" d=" M 70.09 48.12 C 70.55 47.81 71.48 47.19 71.94 46.88 C 71.98 47.39 72.07 48.41 72.12 48.91 C 72.01 50.36 73.65 50.97 74.78 51.30 C 75.79 51.64 76.80 51.96 77.82 52.27 C 77.29 53.26 76.69 54.21 76.11 55.18 C 75.77 55.49 75.09 56.11 74.75 56.42 C 72.12 55.77 70.13 53.88 68.04 52.29 C 68.75 50.91 69.39 49.50 70.09 48.12 Z" />
</g>
<g id="#7899bcff">
<path fill="#7899bc" opacity="1.00" d=" M 55.72 49.67 C 58.11 48.90 60.56 48.31 63.01 47.74 C 63.66 48.36 64.30 48.99 64.94 49.64 C 63.83 52.33 62.89 55.17 62.95 58.12 C 63.65 57.36 64.34 56.58 65.02 55.78 C 66.59 57.12 68.17 58.44 69.81 59.69 C 66.87 64.52 74.81 66.01 77.17 69.00 C 72.41 69.98 69.81 62.92 65.58 63.91 C 65.02 62.80 65.03 61.50 64.69 60.32 C 59.42 61.05 53.60 55.01 55.72 49.67 Z" />
</g>
<g id="#7b95b3ff">
<path fill="#7b95b3" opacity="1.00" d=" M 72.12 48.91 C 73.82 48.99 77.20 49.15 78.90 49.23 L 79.33 50.07 C 78.64 51.73 76.19 50.80 74.78 51.30 C 73.65 50.97 72.01 50.36 72.12 48.91 Z" />
</g>
<g id="#a1a889ff">
<path fill="#a1a889" opacity="1.00" d=" M 76.11 55.18 C 82.03 52.90 87.92 50.02 94.23 49.16 C 93.45 49.70 92.67 50.25 91.89 50.80 C 87.50 52.76 82.34 53.56 78.74 56.91 C 77.29 57.16 74.86 59.02 74.75 56.42 C 75.09 56.11 75.77 55.49 76.11 55.18 Z" />
</g>
<g id="#88a7c8ff">
<path fill="#88a7c8" opacity="1.00" d=" M 48.97 53.73 C 50.81 51.82 53.11 50.28 55.72 49.67 C 53.60 55.01 59.42 61.05 64.69 60.32 C 65.03 61.50 65.02 62.80 65.58 63.91 C 69.09 68.18 75.89 73.47 81.31 69.33 C 85.04 67.92 88.71 66.26 92.87 66.89 C 95.64 67.99 98.92 68.66 101.16 66.14 C 103.18 63.73 106.94 63.78 108.67 61.24 C 109.97 58.93 111.60 56.85 113.40 54.93 C 114.11 54.14 114.71 53.26 115.29 52.36 C 115.67 52.22 116.43 51.93 116.81 51.78 C 114.65 58.16 108.68 62.76 108.08 69.80 C 109.90 71.14 111.86 72.34 114.03 73.01 C 114.52 73.22 115.50 73.64 115.99 73.85 C 114.10 75.29 112.44 77.00 110.91 78.80 C 110.09 79.69 109.26 80.58 108.33 81.37 C 106.92 81.23 105.51 81.12 104.09 81.03 C 103.85 80.84 103.35 80.45 103.10 80.26 C 103.59 77.90 104.51 74.96 100.85 75.87 C 100.29 74.21 101.15 71.80 99.09 71.00 C 95.91 68.74 91.91 68.94 88.17 69.00 C 85.13 68.66 82.26 70.21 82.81 73.59 C 79.72 72.05 78.47 75.43 77.81 77.87 L 78.73 77.91 C 82.19 78.71 85.08 76.80 87.99 75.30 C 89.42 75.19 90.85 75.13 92.28 75.12 C 90.94 77.52 87.69 77.86 86.20 80.24 C 85.95 81.79 86.02 83.38 86.04 84.95 C 84.73 83.41 83.05 82.52 80.98 82.98 C 80.86 86.53 82.14 90.08 84.20 92.94 C 88.85 93.86 92.47 93.70 91.80 87.93 C 91.89 89.63 92.28 92.67 94.71 91.89 C 96.79 91.12 98.53 89.66 100.10 88.13 C 100.54 88.00 101.42 87.75 101.85 87.63 C 101.99 93.11 96.25 95.27 91.94 96.81 C 89.56 96.45 87.17 96.01 84.74 96.15 C 83.89 95.34 83.06 94.50 82.23 93.66 C 81.59 91.75 80.33 90.30 78.15 91.06 C 75.36 93.49 72.32 95.60 68.94 97.13 C 67.76 96.80 67.18 96.13 67.19 95.14 C 69.38 93.03 71.74 91.06 73.68 88.69 C 75.47 85.68 74.79 81.98 75.56 78.66 C 76.39 75.87 72.90 74.01 71.10 72.86 C 67.36 70.96 65.43 67.14 62.83 64.08 C 58.63 64.96 57.46 69.54 58.03 73.27 C 57.43 72.40 56.75 71.60 55.99 70.86 C 51.35 73.32 47.63 78.85 41.77 77.86 C 42.78 76.41 44.44 76.00 46.08 75.69 C 51.60 74.29 54.42 67.36 55.01 62.07 C 53.21 59.16 50.28 57.00 48.97 53.73 Z" />
</g>
<g id="#5f7b9bff">
<path fill="#5f7b9b" opacity="1.00" d=" M 62.95 58.12 C 62.89 55.17 63.83 52.33 64.94 49.64 C 64.97 51.68 65.00 53.73 65.02 55.78 C 64.34 56.58 63.65 57.36 62.95 58.12 Z" />
</g>
<g id="#bbc49fff">
<path fill="#bbc49f" opacity="1.00" d=" M 64.94 49.64 C 65.96 50.54 66.98 51.44 68.04 52.29 C 70.13 53.88 72.12 55.77 74.75 56.42 C 74.86 59.02 77.29 57.16 78.74 56.91 C 82.87 57.42 86.82 55.85 90.27 53.73 C 91.14 55.81 87.81 56.47 86.83 57.95 C 85.58 58.65 84.33 59.35 83.07 60.04 C 79.33 60.22 75.25 59.25 71.77 61.09 C 71.28 60.74 70.30 60.04 69.81 59.69 C 68.17 58.44 66.59 57.12 65.02 55.78 C 65.00 53.73 64.97 51.68 64.94 49.64 Z" />
</g>
<g id="#91787fff">
<path fill="#91787f" opacity="1.00" d=" M 78.74 56.91 C 82.34 53.56 87.50 52.76 91.89 50.80 C 91.36 51.78 90.80 52.75 90.27 53.73 C 86.82 55.85 82.87 57.42 78.74 56.91 Z" />
</g>
<g id="#9da58cff">
<path fill="#9da58c" opacity="1.00" d=" M 91.89 50.80 C 93.80 51.24 99.46 50.03 93.95 54.00 C 92.99 57.29 89.61 57.75 86.83 57.95 C 87.81 56.47 91.14 55.81 90.27 53.73 C 90.80 52.75 91.36 51.78 91.89 50.80 Z" />
</g>
<g id="#91b0cfff">
<path fill="#91b0cf" opacity="1.00" d=" M 117.08 50.91 C 119.70 51.95 122.30 53.03 124.91 54.10 C 126.42 55.25 127.92 56.43 129.37 57.66 C 128.88 62.80 127.17 67.74 126.98 72.93 C 128.24 75.60 130.82 77.31 133.19 78.94 C 133.71 79.67 134.22 80.41 134.72 81.16 C 134.76 81.64 134.84 82.60 134.88 83.08 C 129.11 81.91 123.20 81.80 117.36 82.51 C 115.96 82.88 114.84 81.80 113.78 81.08 C 115.67 80.23 117.72 79.92 119.77 79.73 C 122.88 79.81 126.01 80.07 129.13 79.94 C 128.54 76.94 125.26 75.53 124.24 72.68 C 123.55 68.49 124.77 64.40 124.84 60.24 C 122.56 58.71 118.84 54.76 116.71 58.73 C 112.37 62.17 110.31 68.43 114.03 73.01 C 111.86 72.34 109.90 71.14 108.08 69.80 C 108.68 62.76 114.65 58.16 116.81 51.78 L 117.08 50.91 Z" />
</g>
<g id="#90b0d4fe">
<path fill="#90b0d4" opacity="1.00" d=" M 47.07 55.57 C 47.72 54.97 48.35 54.36 48.97 53.73 C 50.28 57.00 53.21 59.16 55.01 62.07 C 54.42 67.36 51.60 74.29 46.08 75.69 C 45.83 75.25 45.32 74.36 45.06 73.92 C 48.95 69.21 46.36 62.21 46.39 56.72 C 46.56 56.43 46.90 55.86 47.07 55.57 Z" />
</g>
<g id="#627d9bff">
<path fill="#627d9b" opacity="1.00" d=" M 109.24 56.78 C 110.26 55.43 111.60 52.93 113.40 54.93 C 111.60 56.85 109.97 58.93 108.67 61.24 C 107.84 59.68 108.21 58.14 109.24 56.78 Z" />
</g>
<g id="#7496bdff">
<path fill="#7496bd" opacity="1.00" d=" M 102.05 58.16 C 104.38 57.51 106.82 55.16 109.24 56.78 C 108.21 58.14 107.84 59.68 108.67 61.24 C 106.94 63.78 103.18 63.73 101.16 66.14 C 98.92 68.66 95.64 67.99 92.87 66.89 C 96.42 64.53 99.23 61.30 102.05 58.16 Z" />
</g>
<g id="#9cbad7fb">
<path fill="#9cbad7" opacity="1.00" d=" M 41.45 66.75 C 40.83 62.68 42.48 58.40 46.39 56.72 C 46.36 62.21 48.95 69.21 45.06 73.92 C 40.36 75.27 42.30 69.74 41.45 66.75 Z" />
</g>
<g id="#9cbee1ff">
<path fill="#9cbee1" opacity="1.00" d=" M 116.71 58.73 C 118.84 54.76 122.56 58.71 124.84 60.24 C 124.77 64.40 123.55 68.49 124.24 72.68 C 125.26 75.53 128.54 76.94 129.13 79.94 C 126.01 80.07 122.88 79.81 119.77 79.73 C 122.25 79.45 124.72 79.14 127.19 78.78 C 123.63 76.80 119.52 75.94 115.99 73.85 C 115.50 73.64 114.52 73.22 114.03 73.01 C 110.31 68.43 112.37 62.17 116.71 58.73 Z" />
</g>
<g id="#839ebdff">
<path fill="#839ebd" opacity="1.00" d=" M 129.37 57.66 C 130.70 58.76 133.69 59.61 132.80 61.83 C 131.11 66.01 127.47 72.30 131.74 76.17 C 132.24 77.08 132.73 78.01 133.19 78.94 C 130.82 77.31 128.24 75.60 126.98 72.93 C 127.17 67.74 128.88 62.80 129.37 57.66 Z" />
</g>
<g id="#617fa1ff">
<path fill="#617fa1" opacity="1.00" d=" M 77.17 69.00 C 74.81 66.01 66.87 64.52 69.81 59.69 C 70.30 60.04 71.28 60.74 71.77 61.09 C 74.23 63.46 77.73 62.89 80.90 63.08 L 82.06 63.16 C 78.92 64.09 80.48 67.23 81.31 69.33 C 75.89 73.47 69.09 68.18 65.58 63.91 C 69.81 62.92 72.41 69.98 77.17 69.00 Z" />
</g>
<g id="#9ca586ff">
<path fill="#9ca586" opacity="1.00" d=" M 71.77 61.09 C 75.25 59.25 79.33 60.22 83.07 60.04 C 82.07 60.85 81.18 61.78 80.90 63.08 C 77.73 62.89 74.23 63.46 71.77 61.09 Z" />
</g>
<g id="#44586bc1">
<path fill="#44586b" opacity="0.76" d=" M 136.10 60.95 C 138.40 60.65 140.69 60.85 142.97 61.55 C 141.09 62.34 136.91 63.24 136.10 60.95 Z" />
</g>
<g id="#627b9afc">
<path fill="#627b9a" opacity="1.00" d=" M 134.96 63.12 L 135.98 62.98 L 136.01 63.99 C 135.98 68.30 136.02 72.61 135.90 76.92 C 135.50 78.33 135.07 79.73 134.72 81.16 C 134.22 80.41 133.71 79.67 133.19 78.94 C 132.73 78.01 132.24 77.08 131.74 76.17 C 131.65 71.50 134.86 67.65 134.96 63.12 Z" />
</g>
<g id="#8eaed1fe">
<path fill="#8eaed1" opacity="1.00" d=" M 58.03 73.27 C 57.46 69.54 58.63 64.96 62.83 64.08 C 65.43 67.14 67.36 70.96 71.10 72.86 C 72.90 74.01 76.39 75.87 75.56 78.66 C 74.79 81.98 75.47 85.68 73.68 88.69 C 71.74 91.06 69.38 93.03 67.19 95.14 C 66.48 94.44 63.63 94.50 64.30 93.26 C 67.15 89.75 71.90 86.37 69.99 81.09 C 67.50 76.58 64.55 72.33 61.75 68.00 C 59.72 69.07 58.97 71.34 58.03 73.27 Z" />
</g>
<g id="#06080b44">
<path fill="#06080b" opacity="0.27" d=" M 136.01 63.99 L 136.99 64.01 C 136.98 68.34 137.19 72.68 136.92 77.01 L 135.90 76.92 C 136.02 72.61 135.98 68.30 136.01 63.99 Z" />
</g>
<g id="#accbdff9">
<path fill="#accbdf" opacity="0.98" d=" M 41.45 66.75 C 42.30 69.74 40.36 75.27 45.06 73.92 C 45.32 74.36 45.83 75.25 46.08 75.69 C 44.44 76.00 42.78 76.41 41.77 77.86 C 39.83 79.98 38.59 82.64 37.08 85.07 C 35.83 87.77 32.32 89.14 33.78 93.04 C 31.72 93.38 31.90 91.09 31.31 89.76 C 30.79 83.20 38.31 79.49 40.58 73.83 C 39.72 71.40 40.69 69.06 41.45 66.75 Z" />
</g>
<g id="#9cbad8fe">
<path fill="#9cbad8" opacity="1.00" d=" M 58.03 73.27 C 58.97 71.34 59.72 69.07 61.75 68.00 C 64.55 72.33 67.50 76.58 69.99 81.09 C 71.90 86.37 67.15 89.75 64.30 93.26 C 62.24 92.17 60.79 90.23 59.03 88.74 C 60.31 87.31 61.87 85.62 59.91 83.98 C 57.54 85.39 55.82 87.90 52.95 88.32 C 52.12 86.91 48.37 82.68 51.79 82.97 C 52.22 84.30 52.68 85.62 53.16 86.93 C 55.18 84.63 56.84 81.17 60.96 82.68 C 60.72 81.55 62.05 72.39 58.06 74.84 C 58.05 74.45 58.04 73.67 58.03 73.27 Z" />
</g>
<g id="#7593b5ff">
<path fill="#7593b5" opacity="1.00" d=" M 82.81 73.59 C 82.26 70.21 85.13 68.66 88.17 69.00 C 87.39 71.57 86.17 74.85 83.00 75.01 C 81.08 75.05 79.97 76.69 78.73 77.91 L 77.81 77.87 C 78.47 75.43 79.72 72.05 82.81 73.59 Z" />
</g>
<g id="#5f7a9aff">
<path fill="#5f7a9a" opacity="1.00" d=" M 88.17 69.00 C 91.91 68.94 95.91 68.74 99.09 71.00 C 98.81 72.64 99.84 75.79 97.07 75.01 C 100.21 70.49 92.89 69.61 89.96 71.96 C 88.92 72.81 86.06 73.85 87.99 75.30 C 85.08 76.80 82.19 78.71 78.73 77.91 C 79.97 76.69 81.08 75.05 83.00 75.01 C 86.17 74.85 87.39 71.57 88.17 69.00 Z" />
</g>
<g id="#7c9ab8fd">
<path fill="#7c9ab8" opacity="1.00" d=" M 41.77 77.86 C 47.63 78.85 51.35 73.32 55.99 70.86 C 56.75 71.60 57.43 72.40 58.03 73.27 C 58.04 73.67 58.05 74.45 58.06 74.84 C 53.10 71.89 51.82 83.48 47.93 78.13 C 46.28 78.72 44.70 79.50 43.12 80.24 C 44.06 81.55 45.20 82.71 46.12 84.05 C 45.45 85.36 44.25 86.31 43.07 87.16 C 41.41 86.95 39.77 86.63 38.11 86.39 C 36.97 88.28 36.23 91.21 39.01 92.00 C 41.28 92.66 41.05 94.65 39.87 96.28 L 39.14 95.99 C 38.35 94.27 36.75 93.73 34.95 93.97 C 33.94 97.09 38.86 98.47 37.42 101.34 C 34.87 100.02 32.47 98.41 30.10 96.79 C 30.02 94.41 31.13 92.14 31.31 89.76 C 31.90 91.09 31.72 93.38 33.78 93.04 C 32.32 89.14 35.83 87.77 37.08 85.07 C 38.59 82.64 39.83 79.98 41.77 77.86 Z" />
</g>
<g id="#516a89ff">
<path fill="#516a89" opacity="1.00" d=" M 89.96 71.96 C 92.89 69.61 100.21 70.49 97.07 75.01 C 95.48 75.06 93.88 75.05 92.28 75.12 C 90.85 75.13 89.42 75.19 87.99 75.30 C 86.06 73.85 88.92 72.81 89.96 71.96 Z" />
</g>
<g id="#708fb0ff">
<path fill="#708fb0" opacity="1.00" d=" M 99.09 71.00 C 101.15 71.80 100.29 74.21 100.85 75.87 C 94.97 75.56 91.50 81.15 87.83 84.93 C 87.38 84.94 86.49 84.95 86.04 84.95 C 86.02 83.38 85.95 81.79 86.20 80.24 C 87.69 77.86 90.94 77.52 92.28 75.12 C 93.88 75.05 95.48 75.06 97.07 75.01 C 99.84 75.79 98.81 72.64 99.09 71.00 Z" />
</g>
<g id="#6682a1fd">
<path fill="#6682a1" opacity="1.00" d=" M 47.93 78.13 C 51.82 83.48 53.10 71.89 58.06 74.84 C 57.75 76.44 58.58 78.63 57.45 79.89 C 54.88 79.74 51.93 80.55 49.83 81.93 C 50.68 82.03 52.39 82.23 53.24 82.33 C 52.87 82.49 52.15 82.81 51.79 82.97 C 48.37 82.68 52.12 86.91 52.95 88.32 C 53.93 89.00 54.98 89.55 56.02 90.13 C 50.64 92.28 48.62 99.26 42.47 100.47 C 41.91 101.76 37.79 104.20 38.27 102.33 C 40.60 100.82 39.73 98.18 39.14 95.99 L 39.87 96.28 C 41.95 97.36 43.51 94.74 43.99 93.01 C 43.54 90.90 39.59 88.32 43.07 87.16 C 44.25 86.31 45.45 85.36 46.12 84.05 C 45.20 82.71 44.06 81.55 43.12 80.24 C 44.70 79.50 46.28 78.72 47.93 78.13 Z" />
</g>
<g id="#afcde4ff">
<path fill="#afcde4" opacity="1.00" d=" M 58.06 74.84 C 62.05 72.39 60.72 81.55 60.96 82.68 C 56.84 81.17 55.18 84.63 53.16 86.93 C 52.68 85.62 52.22 84.30 51.79 82.97 C 52.15 82.81 52.87 82.49 53.24 82.33 C 54.73 81.70 56.20 80.94 57.45 79.89 C 58.58 78.63 57.75 76.44 58.06 74.84 Z" />
</g>
<g id="#b2d1e9ff">
<path fill="#b2d1e9" opacity="1.00" d=" M 110.91 78.80 C 112.44 77.00 114.10 75.29 115.99 73.85 C 119.52 75.94 123.63 76.80 127.19 78.78 C 124.72 79.14 122.25 79.45 119.77 79.73 C 117.72 79.92 115.67 80.23 113.78 81.08 C 112.80 80.35 111.87 79.56 110.91 78.80 Z" />
</g>
<g id="#617b9bff">
<path fill="#617b9b" opacity="1.00" d=" M 87.83 84.93 C 91.50 81.15 94.97 75.56 100.85 75.87 C 104.51 74.96 103.59 77.90 103.10 80.26 C 100.32 81.29 97.44 82.18 94.92 83.80 C 92.56 84.18 90.23 84.79 87.83 84.93 Z" />
</g>
<g id="#4d617cff">
<path fill="#4d617c" opacity="1.00" d=" M 49.83 81.93 C 51.93 80.55 54.88 79.74 57.45 79.89 C 56.20 80.94 54.73 81.70 53.24 82.33 C 52.39 82.23 50.68 82.03 49.83 81.93 Z" />
</g>
<g id="#7690adfd">
<path fill="#7690ad" opacity="1.00" d=" M 108.33 81.37 C 109.26 80.58 110.09 79.69 110.91 78.80 C 111.87 79.56 112.80 80.35 113.78 81.08 C 114.84 81.80 115.96 82.88 117.36 82.51 C 123.20 81.80 129.11 81.91 134.88 83.08 C 135.67 83.54 137.04 86.64 135.10 85.83 C 128.39 84.82 121.58 85.01 114.86 84.12 C 113.01 81.84 110.08 83.14 107.72 81.96 L 108.33 81.37 Z" />
</g>
<g id="#7492b5ff">
<path fill="#7492b5" opacity="1.00" d=" M 94.92 83.80 C 97.44 82.18 100.32 81.29 103.10 80.26 C 103.35 80.45 103.85 80.84 104.09 81.03 C 100.79 84.47 97.00 87.65 94.71 91.89 C 92.28 92.67 91.89 89.63 91.80 87.93 C 92.82 86.53 93.94 85.22 94.92 83.80 Z" />
</g>
<g id="#6682a2ff">
<path fill="#6682a2" opacity="1.00" d=" M 104.09 81.03 C 105.51 81.12 106.92 81.23 108.33 81.37 L 107.72 81.96 C 105.01 83.81 102.22 85.57 100.10 88.13 C 98.53 89.66 96.79 91.12 94.71 91.89 C 97.00 87.65 100.79 84.47 104.09 81.03 Z" />
</g>
<g id="#5c7695fe">
<path fill="#5c7695" opacity="1.00" d=" M 100.10 88.13 C 102.22 85.57 105.01 83.81 107.72 81.96 C 110.08 83.14 113.01 81.84 114.86 84.12 C 118.85 87.76 124.66 90.53 129.91 87.85 C 131.79 86.53 133.54 87.77 134.99 89.08 C 136.12 93.02 133.58 100.70 128.23 98.81 C 120.96 97.49 115.05 92.75 108.39 89.84 C 106.79 87.82 104.44 85.98 101.85 87.63 C 101.42 87.75 100.54 88.00 100.10 88.13 M 120.93 89.96 C 123.11 93.06 128.74 92.08 132.00 93.00 C 131.99 92.53 131.97 91.60 131.96 91.13 C 128.27 90.83 124.60 90.45 120.93 89.96 Z" />
</g>
<g id="#92b0d1ff">
<path fill="#92b0d1" opacity="1.00" d=" M 80.98 82.98 C 83.05 82.52 84.73 83.41 86.04 84.95 C 86.49 84.95 87.38 84.94 87.83 84.93 C 90.23 84.79 92.56 84.18 94.92 83.80 C 93.94 85.22 92.82 86.53 91.80 87.93 C 92.47 93.70 88.85 93.86 84.20 92.94 C 82.14 90.08 80.86 86.53 80.98 82.98 Z" />
</g>
<g id="#7793b1f9">
<path fill="#7793b1" opacity="0.98" d=" M 52.95 88.32 C 55.82 87.90 57.54 85.39 59.91 83.98 C 61.87 85.62 60.31 87.31 59.03 88.74 C 58.25 89.69 57.25 90.15 56.02 90.13 C 54.98 89.55 53.93 89.00 52.95 88.32 Z" />
</g>
<g id="#6882a0ff">
<path fill="#6882a0" opacity="1.00" d=" M 114.86 84.12 C 121.58 85.01 128.39 84.82 135.10 85.83 C 135.07 86.64 135.02 88.27 134.99 89.08 C 133.54 87.77 131.79 86.53 129.91 87.85 C 124.66 90.53 118.85 87.76 114.86 84.12 Z" />
</g>
<g id="#6f8eb0ff">
<path fill="#6f8eb0" opacity="1.00" d=" M 38.11 86.39 C 39.77 86.63 41.41 86.95 43.07 87.16 C 39.59 88.32 43.54 90.90 43.99 93.01 C 43.51 94.74 41.95 97.36 39.87 96.28 C 41.05 94.65 41.28 92.66 39.01 92.00 C 36.23 91.21 36.97 88.28 38.11 86.39 Z" />
</g>
<g id="#809ab8ff">
<path fill="#809ab8" opacity="1.00" d=" M 101.85 87.63 C 104.44 85.98 106.79 87.82 108.39 89.84 C 105.03 91.99 102.33 94.96 98.91 97.03 C 97.89 97.48 96.86 97.91 95.82 98.31 C 95.35 98.29 94.40 98.24 93.93 98.22 C 90.84 97.76 86.80 99.13 84.74 96.15 C 87.17 96.01 89.56 96.45 91.94 96.81 C 96.25 95.27 101.99 93.11 101.85 87.63 Z" />
</g>
<g id="#7592b1fe">
<path fill="#7592b1" opacity="1.00" d=" M 108.39 89.84 C 115.05 92.75 120.96 97.49 128.23 98.81 C 125.05 99.11 121.89 99.30 119.07 97.68 C 115.88 97.20 113.56 95.17 111.26 93.09 C 107.24 94.68 103.41 97.19 98.91 97.03 C 102.33 94.96 105.03 91.99 108.39 89.84 Z" />
</g>
<g id="#506783ff">
<path fill="#506783" opacity="1.00" d=" M 120.93 89.96 C 124.60 90.45 128.27 90.83 131.96 91.13 C 131.97 91.60 131.99 92.53 132.00 93.00 C 128.74 92.08 123.11 93.06 120.93 89.96 Z" />
</g>
<g id="#7e99b4fa">
<path fill="#7e99b4" opacity="0.98" d=" M 68.94 97.13 C 72.32 95.60 75.36 93.49 78.15 91.06 C 80.33 90.30 81.59 91.75 82.23 93.66 C 79.60 94.86 74.38 94.38 73.97 97.82 C 75.35 97.95 76.73 98.08 78.11 98.21 C 76.60 100.56 75.40 102.93 78.05 105.02 C 77.55 105.04 76.56 105.09 76.06 105.11 C 75.06 104.77 74.07 104.40 73.10 103.99 C 73.52 100.81 70.41 99.45 68.94 97.13 Z" />
</g>
<g id="#536b87ff">
<path fill="#536b87" opacity="1.00" d=" M 98.91 97.03 C 103.41 97.19 107.24 94.68 111.26 93.09 C 110.29 95.74 107.07 96.21 104.92 97.63 C 101.94 98.34 98.90 98.77 95.82 98.31 C 96.86 97.91 97.89 97.48 98.91 97.03 Z" />
</g>
<g id="#5d7795fd">
<path fill="#5d7795" opacity="1.00" d=" M 111.26 93.09 C 113.56 95.17 115.88 97.20 119.07 97.68 C 116.83 99.05 116.74 101.77 115.72 103.94 C 110.20 104.78 104.65 105.38 99.12 106.09 C 98.14 105.66 97.16 105.24 96.18 104.83 C 95.22 104.18 94.29 103.48 93.25 102.97 C 92.90 102.78 92.19 102.40 91.84 102.21 C 96.93 102.93 101.32 100.42 105.88 98.78 C 105.64 98.50 105.16 97.92 104.92 97.63 C 107.07 96.21 110.29 95.74 111.26 93.09 Z" />
</g>
<g id="#6f8eb1fe">
<path fill="#6f8eb1" opacity="1.00" d=" M 34.95 93.97 C 36.75 93.73 38.35 94.27 39.14 95.99 C 39.73 98.18 40.60 100.82 38.27 102.33 L 37.17 102.18 L 37.42 101.34 C 38.86 98.47 33.94 97.09 34.95 93.97 Z" />
</g>
<g id="#758dabff">
<path fill="#758dab" opacity="1.00" d=" M 73.97 97.82 C 74.38 94.38 79.60 94.86 82.23 93.66 C 83.06 94.50 83.89 95.34 84.74 96.15 C 86.80 99.13 90.84 97.76 93.93 98.22 C 96.95 102.92 90.44 100.71 87.36 100.81 C 84.55 100.38 81.74 100.37 79.01 101.15 C 79.08 102.49 79.40 103.79 79.74 105.08 C 79.32 105.06 78.47 105.03 78.05 105.02 C 75.40 102.93 76.60 100.56 78.11 98.21 C 76.73 98.08 75.35 97.95 73.97 97.82 Z" />
</g>
<g id="#6a839cff">
<path fill="#6a839c" opacity="1.00" d=" M 93.93 98.22 C 94.40 98.24 95.35 98.29 95.82 98.31 C 98.90 98.77 101.94 98.34 104.92 97.63 C 105.16 97.92 105.64 98.50 105.88 98.78 C 101.32 100.42 96.93 102.93 91.84 102.21 C 90.15 102.01 88.46 101.82 86.78 101.59 L 87.36 100.81 C 90.44 100.71 96.95 102.92 93.93 98.22 Z" />
</g>
<g id="#5c748fff">
<path fill="#5c748f" opacity="1.00" d=" M 79.01 101.15 C 81.74 100.37 84.55 100.38 87.36 100.81 L 86.78 101.59 C 84.71 102.87 82.83 104.41 80.87 105.84 L 79.98 105.90 L 79.74 105.08 C 79.40 103.79 79.08 102.49 79.01 101.15 Z" />
</g>
<g id="#b3be65ff">
<path fill="#b3be65" opacity="1.00" d=" M 80.87 105.84 C 82.83 104.41 84.71 102.87 86.78 101.59 C 88.46 101.82 90.15 102.01 91.84 102.21 C 92.19 102.40 92.90 102.78 93.25 102.97 C 92.94 103.24 92.34 103.76 92.04 104.03 C 90.44 103.12 88.47 102.54 86.77 103.56 L 85.95 103.91 C 82.08 105.31 84.98 110.06 84.41 113.17 C 83.30 112.08 82.11 111.09 80.90 110.12 C 80.90 108.69 80.89 107.26 80.87 105.84 Z" />
</g>
<g id="#656b2bff">
<path fill="#656b2b" opacity="1.00" d=" M 86.77 103.56 C 88.47 102.54 90.44 103.12 92.04 104.03 C 96.46 107.44 95.38 116.61 87.95 114.07 C 84.53 112.91 91.56 113.50 92.96 111.79 C 95.77 103.50 91.23 106.94 91.94 109.96 C 91.29 112.72 90.70 109.15 91.01 108.07 C 91.85 105.13 89.39 103.61 86.77 103.56 Z" />
</g>
<g id="#818a47ff">
<path fill="#818a47" opacity="1.00" d=" M 93.25 102.97 C 94.29 103.48 95.22 104.18 96.18 104.83 C 96.86 106.93 97.09 109.13 97.34 111.31 C 95.39 113.08 93.56 115.26 90.92 115.99 C 88.42 116.35 86.14 114.80 84.41 113.17 C 84.98 110.06 82.08 105.31 85.95 103.91 C 86.94 106.39 87.64 110.64 91.01 108.07 C 90.70 109.15 91.29 112.72 91.94 109.96 C 91.23 106.94 95.77 103.50 92.96 111.79 C 91.56 113.50 84.53 112.91 87.95 114.07 C 95.38 116.61 96.46 107.44 92.04 104.03 C 92.34 103.76 92.94 103.24 93.25 102.97 Z" />
</g>
<g id="#7c7c4fe5">
<path fill="#7c7c4f" opacity="0.90" d=" M 73.10 103.99 C 74.07 104.40 75.06 104.77 76.06 105.11 C 76.53 107.87 75.32 108.46 73.09 107.09 C 73.09 106.32 73.10 104.77 73.10 103.99 Z" />
</g>
<g id="#6b3f3dff">
<path fill="#6b3f3d" opacity="1.00" d=" M 85.95 103.91 L 86.77 103.56 C 89.39 103.61 91.85 105.13 91.01 108.07 C 87.64 110.64 86.94 106.39 85.95 103.91 Z" />
</g>
<g id="#3f3e5bfe">
<path fill="#3f3e5b" opacity="1.00" d=" M 99.12 106.09 C 104.65 105.38 110.20 104.78 115.72 103.94 C 116.45 106.58 117.46 109.28 116.86 112.06 C 116.33 112.28 115.28 112.72 114.75 112.94 C 112.68 113.66 110.68 114.56 108.79 115.66 C 105.58 117.70 101.96 120.30 100.80 124.10 L 100.28 123.80 C 95.64 119.90 89.26 121.07 83.94 122.80 C 83.34 122.16 82.76 121.52 82.18 120.87 C 81.19 119.73 80.14 118.64 79.07 117.58 C 76.96 115.48 75.00 113.10 72.32 111.71 C 72.68 110.19 72.92 108.64 73.09 107.09 C 75.32 108.46 76.53 107.87 76.06 105.11 C 76.56 105.09 77.55 105.04 78.05 105.02 C 78.47 105.03 79.32 105.06 79.74 105.08 L 79.98 105.90 C 76.25 105.56 78.45 109.89 80.90 110.12 C 82.11 111.09 83.30 112.08 84.41 113.17 C 86.14 114.80 88.42 116.35 90.92 115.99 C 93.56 115.26 95.39 113.08 97.34 111.31 C 99.81 110.83 98.73 107.88 99.12 106.09 Z" />
</g>
<g id="#929d56ff">
<path fill="#929d56" opacity="1.00" d=" M 96.18 104.83 C 97.16 105.24 98.14 105.66 99.12 106.09 C 98.73 107.88 99.81 110.83 97.34 111.31 C 97.09 109.13 96.86 106.93 96.18 104.83 Z" />
</g>
<g id="#748053ff">
<path fill="#748053" opacity="1.00" d=" M 80.90 110.12 C 78.45 109.89 76.25 105.56 79.98 105.90 L 80.87 105.84 C 80.89 107.26 80.90 108.69 80.90 110.12 Z" />
</g>
<g id="#97b9defe">
<path fill="#97b9de" opacity="1.00" d=" M 69.39 114.67 C 69.23 113.32 71.24 112.30 72.32 111.71 C 75.00 113.10 76.96 115.48 79.07 117.58 C 73.99 127.03 65.99 134.52 61.22 144.15 C 60.58 145.80 59.35 147.08 58.06 148.25 C 58.07 146.45 58.07 142.87 58.07 141.08 C 61.80 135.48 65.25 129.61 67.35 123.19 C 68.22 120.40 70.75 117.69 69.39 114.67 Z" />
</g>
<g id="#637991f6">
<path fill="#637991" opacity="0.96" d=" M 114.75 112.94 C 115.28 112.72 116.33 112.28 116.86 112.06 C 117.43 112.96 118.78 113.57 118.77 114.73 C 118.27 115.84 117.81 116.97 117.33 118.09 C 116.53 116.34 115.55 114.69 114.75 112.94 Z" />
</g>
<g id="#86a2c3ff">
<path fill="#86a2c3" opacity="1.00" d=" M 108.79 115.66 C 110.68 114.56 112.68 113.66 114.75 112.94 C 115.55 114.69 116.53 116.34 117.33 118.09 L 117.26 118.84 C 114.35 118.00 111.58 116.81 108.79 115.66 Z" />
</g>
<g id="#abcbe5fc">
<path fill="#abcbe5" opacity="1.00" d=" M 59.44 125.81 C 61.24 121.56 65.48 117.54 69.39 114.67 C 70.75 117.69 68.22 120.40 67.35 123.19 C 65.25 129.61 61.80 135.48 58.07 141.08 C 58.07 142.87 58.07 146.45 58.06 148.25 C 58.05 151.93 59.06 155.52 59.47 159.17 C 58.09 157.40 56.65 155.39 56.98 153.02 C 57.00 149.00 57.00 145.00 56.98 140.99 C 56.95 139.74 57.00 138.50 57.12 137.26 C 60.89 135.77 61.91 129.20 59.44 125.81 Z" />
</g>
<g id="#7892adfa">
<path fill="#7892ad" opacity="0.98" d=" M 117.33 118.09 C 117.81 116.97 118.27 115.84 118.77 114.73 C 126.23 120.34 128.17 131.16 128.81 139.91 C 125.70 145.23 134.22 146.96 134.21 152.11 C 134.10 152.59 133.88 153.54 133.77 154.02 C 130.63 154.05 129.76 150.89 128.41 148.71 C 131.66 155.13 122.22 153.16 123.06 157.91 C 124.87 161.22 126.32 164.91 129.14 167.52 C 125.40 168.74 124.26 163.45 120.98 163.04 C 117.83 162.32 114.17 160.00 113.23 157.14 C 114.71 156.34 115.85 153.83 117.74 154.92 C 118.64 156.00 119.57 157.08 120.64 157.99 C 124.89 149.26 123.51 139.31 122.93 130.00 C 122.75 127.70 121.71 125.55 120.42 123.67 C 119.53 121.96 118.60 120.25 117.26 118.84 L 117.33 118.09 Z" />
</g>
<g id="#91afd1fe">
<path fill="#91afd1" opacity="1.00" d=" M 100.80 124.10 C 101.96 120.30 105.58 117.70 108.79 115.66 C 111.58 116.81 114.35 118.00 117.26 118.84 C 118.60 120.25 119.53 121.96 120.42 123.67 C 119.73 128.64 118.52 133.63 119.23 138.68 C 120.10 140.98 122.85 142.44 122.99 144.92 C 121.44 148.42 117.47 150.70 117.74 154.92 C 115.85 153.83 114.71 156.34 113.23 157.14 C 112.21 154.61 112.18 151.86 111.81 149.21 C 107.35 147.01 105.47 142.07 103.67 137.75 C 104.76 137.72 105.85 137.79 106.94 137.80 C 104.76 133.30 100.94 129.33 100.80 124.10 Z" />
</g>
<g id="#8ca9c8fc">
<path fill="#8ca9c8" opacity="1.00" d=" M 61.22 144.15 C 65.99 134.52 73.99 127.03 79.07 117.58 C 80.14 118.64 81.19 119.73 82.18 120.87 C 79.10 123.66 77.12 127.38 74.66 130.68 C 72.13 133.82 67.94 135.43 66.01 139.09 C 64.56 141.45 63.98 144.22 62.56 146.59 C 61.19 148.73 58.41 150.35 60.53 153.63 C 61.38 157.95 61.59 162.36 62.25 166.71 C 64.12 167.29 66.02 167.76 67.89 168.32 C 71.35 176.08 63.00 175.94 58.84 178.92 C 58.93 175.40 64.54 176.51 64.09 173.02 C 60.49 173.31 55.18 173.28 53.24 177.11 C 53.47 173.03 51.02 176.59 50.36 178.32 C 49.82 180.80 46.82 179.71 45.00 180.07 C 42.48 179.72 44.94 175.48 46.21 174.21 C 52.29 175.53 56.11 170.46 59.80 166.71 C 60.40 164.10 59.93 161.67 59.47 159.17 C 59.06 155.52 58.05 151.93 58.06 148.25 C 59.35 147.08 60.58 145.80 61.22 144.15 Z" />
</g>
<g id="#7b97b7ff">
<path fill="#7b97b7" opacity="1.00" d=" M 82.18 120.87 C 82.76 121.52 83.34 122.16 83.94 122.80 C 82.72 124.98 80.31 126.57 80.13 129.23 C 74.79 131.85 72.42 138.58 66.01 139.09 C 67.94 135.43 72.13 133.82 74.66 130.68 C 77.12 127.38 79.10 123.66 82.18 120.87 Z" />
</g>
<g id="#353253fc">
<path fill="#353253" opacity="1.00" d=" M 83.94 122.80 C 89.26 121.07 95.64 119.90 100.28 123.80 C 99.69 125.29 98.85 126.65 97.99 127.99 C 95.37 127.93 92.79 127.52 90.18 127.64 C 88.60 126.73 87.07 125.74 85.49 124.84 C 85.10 124.33 84.32 123.31 83.94 122.80 Z" />
</g>
<g id="#556885ff">
<path fill="#556885" opacity="1.00" d=" M 83.94 122.80 C 84.32 123.31 85.10 124.33 85.49 124.84 C 84.02 126.22 82.40 127.42 80.85 128.71 L 80.13 129.23 C 80.31 126.57 82.72 124.98 83.94 122.80 Z" />
</g>
<g id="#7d99b1f9">
<path fill="#7d99b1" opacity="0.98" d=" M 100.28 123.80 L 100.80 124.10 C 100.94 129.33 104.76 133.30 106.94 137.80 C 105.85 137.79 104.76 137.72 103.67 137.75 C 100.99 135.67 99.86 131.17 97.99 127.99 C 98.85 126.65 99.69 125.29 100.28 123.80 Z" />
</g>
<g id="#87a3c1ff">
<path fill="#87a3c1" opacity="1.00" d=" M 120.42 123.67 C 121.71 125.55 122.75 127.70 122.93 130.00 C 123.51 139.31 124.89 149.26 120.64 157.99 C 119.57 157.08 118.64 156.00 117.74 154.92 C 117.47 150.70 121.44 148.42 122.99 144.92 C 122.85 142.44 120.10 140.98 119.23 138.68 C 118.52 133.63 119.73 128.64 120.42 123.67 Z" />
</g>
<g id="#5d7896fb">
<path fill="#5d7896" opacity="1.00" d=" M 85.49 124.84 C 87.07 125.74 88.60 126.73 90.18 127.64 C 88.29 132.58 84.55 136.39 81.60 140.68 C 79.74 142.96 75.62 142.74 74.69 145.74 C 73.85 150.03 71.85 145.73 70.69 143.96 C 73.66 141.56 77.03 139.36 78.96 135.97 C 79.89 133.65 82.67 131.26 80.85 128.71 C 82.40 127.42 84.02 126.22 85.49 124.84 Z" />
</g>
<g id="#c1deeafa">
<path fill="#c1deea" opacity="0.98" d=" M 59.44 125.81 C 61.91 129.20 60.89 135.77 57.12 137.26 C 56.69 133.37 56.85 128.97 59.44 125.81 Z" />
</g>
<g id="#718ba9fd">
<path fill="#718ba9" opacity="1.00" d=" M 80.13 129.23 L 80.85 128.71 C 82.67 131.26 79.89 133.65 78.96 135.97 C 77.03 139.36 73.66 141.56 70.69 143.96 C 70.26 143.99 69.42 144.05 68.99 144.08 C 66.72 143.69 64.80 145.74 65.05 147.96 C 62.39 150.08 63.69 152.38 65.35 154.65 C 67.28 152.80 72.37 151.75 71.93 155.78 C 70.47 156.90 67.55 159.13 66.09 160.24 C 63.40 166.33 68.30 168.12 72.87 166.26 C 74.52 168.77 76.61 171.64 75.89 174.82 C 70.66 178.24 64.22 180.58 57.94 181.01 C 58.16 180.49 58.61 179.45 58.84 178.92 C 63.00 175.94 71.35 176.08 67.89 168.32 C 66.02 167.76 64.12 167.29 62.25 166.71 C 61.59 162.36 61.38 157.95 60.53 153.63 C 58.41 150.35 61.19 148.73 62.56 146.59 C 63.98 144.22 64.56 141.45 66.01 139.09 C 72.42 138.58 74.79 131.85 80.13 129.23 Z" />
</g>
<g id="#5a6872ac">
<path fill="#5a6872" opacity="0.67" d=" M 56.01 152.99 C 57.16 149.87 53.93 142.45 56.98 140.99 C 57.00 145.00 57.00 149.00 56.98 153.02 L 56.01 152.99 Z" />
</g>
<g id="#68819fff">
<path fill="#68819f" opacity="1.00" d=" M 65.05 147.96 C 64.80 145.74 66.72 143.69 68.99 144.08 C 68.18 145.81 66.80 147.19 65.05 147.96 Z" />
</g>
<g id="#657e9bfb">
<path fill="#657e9b" opacity="1.00" d=" M 68.99 144.08 C 69.42 144.05 70.26 143.99 70.69 143.96 C 71.85 145.73 73.85 150.03 74.69 145.74 C 78.51 150.73 76.56 157.47 73.01 162.01 C 71.75 163.25 72.29 164.85 72.87 166.26 C 68.30 168.12 63.40 166.33 66.09 160.24 C 67.55 159.13 70.47 156.90 71.93 155.78 C 72.37 151.75 67.28 152.80 65.35 154.65 C 63.69 152.38 62.39 150.08 65.05 147.96 C 66.80 147.19 68.18 145.81 68.99 144.08 Z" />
</g>
<g id="#67819efc">
<path fill="#67819e" opacity="1.00" d=" M 128.41 148.71 C 129.76 150.89 130.63 154.05 133.77 154.02 C 133.88 153.54 134.10 152.59 134.21 152.11 C 137.42 151.27 133.88 157.92 133.58 159.67 C 132.00 162.33 134.09 164.84 134.92 167.32 C 133.00 167.55 131.06 167.42 129.14 167.52 C 126.32 164.91 124.87 161.22 123.06 157.91 C 122.22 153.16 131.66 155.13 128.41 148.71 Z" />
</g>
<g id="#8daac8fc">
<path fill="#8daac8" opacity="1.00" d=" M 120.98 163.04 C 124.26 163.45 125.40 168.74 129.14 167.52 C 131.06 167.42 133.00 167.55 134.92 167.32 C 138.85 170.69 137.73 177.19 134.82 180.92 C 133.16 179.69 127.16 183.07 127.67 178.85 C 127.41 177.57 127.12 176.29 126.84 175.02 C 125.04 176.82 123.87 180.24 120.86 179.95 C 120.93 175.06 126.50 170.43 122.39 165.75 C 121.91 164.85 121.44 163.95 120.98 163.04 Z" />
</g>
<g id="#a5c3ddfa">
<path fill="#a5c3dd" opacity="0.98" d=" M 122.39 165.75 C 126.50 170.43 120.93 175.06 120.86 179.95 C 120.19 179.98 118.85 180.03 118.18 180.06 C 115.59 178.07 118.50 175.59 119.55 173.64 C 120.58 171.04 121.32 168.34 122.39 165.75 Z" />
</g>
<g id="#99b8d5ff">
<path fill="#99b8d5" opacity="1.00" d=" M 53.24 177.11 C 55.18 173.28 60.49 173.31 64.09 173.02 C 64.54 176.51 58.93 175.40 58.84 178.92 C 58.61 179.45 58.16 180.49 57.94 181.01 C 55.93 180.95 53.46 181.55 51.98 179.82 C 52.42 178.92 52.84 178.02 53.24 177.11 Z" />
</g>
<g id="#647c96ed">
<path fill="#647c96" opacity="0.93" d=" M 50.36 178.32 C 51.02 176.59 53.47 173.03 53.24 177.11 C 52.84 178.02 52.42 178.92 51.98 179.82 C 50.46 181.82 45.17 182.33 45.00 180.07 C 46.82 179.71 49.82 180.80 50.36 178.32 Z" />
</g>
<g id="#677f9bef">
<path fill="#677f9b" opacity="0.94" d=" M 120.86 179.95 C 123.87 180.24 125.04 176.82 126.84 175.02 C 127.12 176.29 127.41 177.57 127.67 178.85 C 124.90 181.06 121.39 181.10 117.97 181.00 L 118.18 180.06 C 118.85 180.03 120.19 179.98 120.86 179.95 Z" />
</g>
</svg>
