<?xml version="1.0" encoding="UTF-8" ?>
<!DOCTYPE svg PUBLIC "-//W3C//DTD SVG 1.1//EN" "http://www.w3.org/Graphics/SVG/1.1/DTD/svg11.dtd">
<svg width="112pt" height="112pt" viewBox="0 0 112 112" version="1.1" xmlns="http://www.w3.org/2000/svg">
<g id="#fbf95bfd">
<path fill="#fbf95b" opacity="1.00" d=" M 41.00 8.99 C 46.93 -1.13 64.40 0.67 68.13 11.78 C 67.16 11.47 66.18 11.24 65.17 11.08 C 62.63 14.28 60.93 18.06 58.29 21.19 C 55.69 18.78 53.43 21.04 53.97 24.10 C 52.62 29.61 43.27 30.03 43.87 36.95 C 43.48 37.00 42.70 37.11 42.32 37.16 C 39.73 28.47 34.48 17.38 41.00 8.99 M 41.15 21.15 C 38.87 22.16 40.96 27.96 42.89 24.82 C 43.27 23.45 43.00 21.01 41.15 21.15 Z" />
</g>
<g id="#f1e14cff">
<path fill="#f1e14c" opacity="1.00" d=" M 65.17 11.08 C 66.18 11.24 67.16 11.47 68.13 11.78 C 69.12 12.43 69.49 13.55 69.23 15.14 C 64.60 15.89 63.47 21.88 59.88 24.55 C 58.02 29.86 53.11 33.07 48.86 36.42 C 47.19 36.56 45.53 36.79 43.87 36.95 C 43.27 30.03 52.62 29.61 53.97 24.10 C 55.20 24.57 56.48 24.99 57.81 25.03 C 57.99 23.75 58.15 22.47 58.29 21.19 C 60.93 18.06 62.63 14.28 65.17 11.08 Z" />
</g>
<g id="#e0ca43fc">
<path fill="#e0ca43" opacity="1.00" d=" M 59.88 24.55 C 63.47 21.88 64.60 15.89 69.23 15.14 C 71.31 15.33 70.43 22.36 68.73 24.24 C 68.08 23.00 68.33 20.35 66.24 21.19 C 62.31 26.77 58.33 32.30 53.81 37.42 C 52.15 37.10 50.50 36.80 48.86 36.42 C 53.11 33.07 58.02 29.86 59.88 24.55 Z" />
</g>
<g id="#585631ff">
<path fill="#585631" opacity="1.00" d=" M 53.97 24.10 C 53.43 21.04 55.69 18.78 58.29 21.19 C 58.15 22.47 57.99 23.75 57.81 25.03 C 56.48 24.99 55.20 24.57 53.97 24.10 Z" />
</g>
<g id="#626235ff">
<path fill="#626235" opacity="1.00" d=" M 41.15 21.15 C 43.00 21.01 43.27 23.45 42.89 24.82 C 40.96 27.96 38.87 22.16 41.15 21.15 Z" />
</g>
<g id="#d1b73bfc">
<path fill="#d1b73b" opacity="1.00" d=" M 66.24 21.19 C 68.33 20.35 68.08 23.00 68.73 24.24 C 69.19 26.37 67.21 28.22 65.95 29.76 C 64.96 29.78 63.37 28.43 62.82 29.75 C 61.15 32.82 58.32 35.02 56.61 38.02 C 55.67 37.84 54.74 37.64 53.81 37.42 C 58.33 32.30 62.31 26.77 66.24 21.19 Z" />
</g>
<g id="#c5a534fb">
<path fill="#c5a534" opacity="1.00" d=" M 62.82 29.75 C 63.37 28.43 64.96 29.78 65.95 29.76 C 64.48 32.89 61.89 35.42 60.75 38.75 C 60.30 40.31 59.53 41.20 58.07 39.98 C 57.70 39.49 56.97 38.51 56.61 38.02 C 58.32 35.02 61.15 32.82 62.82 29.75 Z" />
</g>
<g id="#f2a89efe">
<path fill="#f2a89e" opacity="1.00" d=" M 43.87 36.95 C 45.53 36.79 47.19 36.56 48.86 36.42 C 50.50 36.80 52.15 37.10 53.81 37.42 C 54.74 37.64 55.67 37.84 56.61 38.02 C 56.97 38.51 57.70 39.49 58.07 39.98 C 56.65 40.68 55.24 41.41 53.82 42.12 C 51.25 41.36 48.59 41.03 45.94 40.85 C 42.84 41.36 42.06 44.88 43.33 47.38 C 38.75 45.68 39.66 40.26 42.32 37.16 C 42.70 37.11 43.48 37.00 43.87 36.95 Z" />
</g>
<g id="#cc7e6afa">
<path fill="#cc7e6a" opacity="0.98" d=" M 58.07 39.98 C 59.53 41.20 60.30 40.31 60.75 38.75 C 61.06 41.86 61.45 45.08 59.83 47.87 C 57.84 48.53 55.82 49.08 53.80 49.64 C 53.09 49.78 51.67 50.05 50.96 50.18 L 50.17 50.31 C 49.16 49.98 48.14 49.66 47.13 49.33 C 45.91 48.92 44.70 48.48 43.48 48.09 L 43.33 47.38 C 42.06 44.88 42.84 41.36 45.94 40.85 C 43.95 43.25 46.33 45.77 48.78 46.33 C 51.24 47.39 60.04 49.53 58.95 44.18 C 58.32 44.12 57.04 43.98 56.41 43.92 C 55.54 43.32 54.68 42.72 53.82 42.12 C 55.24 41.41 56.65 40.68 58.07 39.98 Z" />
</g>
<g id="#32211eff">
<path fill="#32211e" opacity="1.00" d=" M 45.94 40.85 C 48.59 41.03 51.25 41.36 53.82 42.12 C 54.68 42.72 55.54 43.32 56.41 43.92 C 54.78 46.60 51.59 46.13 48.78 46.33 C 46.33 45.77 43.95 43.25 45.94 40.85 Z" />
</g>
<g id="#ebf6b6fb">
<path fill="#ebf6b6" opacity="1.00" d=" M 62.66 53.31 C 68.65 46.10 78.92 43.65 88.00 43.00 C 89.34 43.31 92.20 42.09 92.31 44.18 C 85.98 46.59 77.90 47.02 73.67 53.04 L 72.68 53.18 C 70.68 53.34 68.75 53.89 66.80 54.27 C 65.39 54.05 64.01 53.75 62.66 53.31 Z" />
</g>
<g id="#b96c57ff">
<path fill="#b96c57" opacity="1.00" d=" M 56.41 43.92 C 57.04 43.98 58.32 44.12 58.95 44.18 C 60.04 49.53 51.24 47.39 48.78 46.33 C 51.59 46.13 54.78 46.60 56.41 43.92 Z" />
</g>
<g id="#b8f598fe">
<path fill="#b8f598" opacity="1.00" d=" M 92.31 44.18 C 93.78 43.57 95.21 44.33 96.21 45.40 C 90.85 47.72 84.28 47.73 79.71 51.74 C 78.73 52.06 77.75 52.39 76.77 52.73 C 76.00 52.81 74.45 52.96 73.67 53.04 C 77.90 47.02 85.98 46.59 92.31 44.18 Z" />
</g>
<g id="#9edc86fd">
<path fill="#9edc86" opacity="1.00" d=" M 96.21 45.40 C 97.50 44.93 98.14 46.97 99.00 47.70 C 93.00 50.84 86.83 53.54 79.71 51.74 C 84.28 47.73 90.85 47.72 96.21 45.40 Z" />
</g>
<g id="#c7f4a5fb">
<path fill="#c7f4a5" opacity="1.00" d=" M 4.81 53.26 C 17.50 50.63 30.38 46.34 43.48 48.09 C 40.86 51.05 36.46 50.72 33.06 52.18 C 27.67 53.96 22.28 55.90 16.59 56.50 C 11.56 59.46 8.93 54.46 4.81 53.26 Z" />
</g>
<g id="#9ad683fd">
<path fill="#9ad683" opacity="1.00" d=" M 43.48 48.09 C 44.70 48.48 45.91 48.92 47.13 49.33 C 43.09 52.27 37.16 52.10 33.85 55.99 C 27.07 57.77 20.06 57.81 13.11 58.11 L 12.89 59.01 C 18.87 59.01 24.86 59.24 30.83 58.81 C 27.50 62.76 28.02 68.23 25.66 72.68 C 25.01 72.81 23.71 73.06 23.07 73.19 C 13.77 72.11 6.75 65.23 2.99 57.01 C 0.68 55.61 2.68 52.08 4.81 53.26 C 8.93 54.46 11.56 59.46 16.59 56.50 C 22.28 55.90 27.67 53.96 33.06 52.18 C 36.46 50.72 40.86 51.05 43.48 48.09 Z" />
</g>
<g id="#a2795af9">
<path fill="#a2795a" opacity="0.98" d=" M 53.80 49.64 C 55.82 49.08 57.84 48.53 59.83 47.87 C 59.78 48.34 59.69 49.26 59.65 49.72 C 59.24 52.30 58.59 54.96 59.78 57.39 C 57.60 60.79 57.43 65.51 60.73 68.24 C 61.26 72.91 62.70 77.67 61.60 82.35 C 58.30 76.19 57.77 68.83 54.30 62.69 C 54.14 62.21 53.81 61.27 53.64 60.80 C 54.04 58.90 54.51 57.02 54.95 55.13 C 55.24 53.12 57.49 49.29 53.80 49.64 Z" />
</g>
<g id="#8cc073fc">
<path fill="#8cc073" opacity="1.00" d=" M 79.71 51.74 C 86.83 53.54 93.00 50.84 99.00 47.70 C 102.19 48.37 102.36 52.73 104.01 55.16 C 104.23 59.19 101.98 54.47 100.81 53.39 C 99.46 53.63 98.14 53.98 96.80 54.25 C 90.21 52.95 83.46 52.89 76.77 52.73 C 77.75 52.39 78.73 52.06 79.71 51.74 Z" />
</g>
<g id="#97c778ff">
<path fill="#97c778" opacity="1.00" d=" M 47.13 49.33 C 48.14 49.66 49.16 49.98 50.17 50.31 C 46.79 52.42 42.17 52.36 39.78 55.91 L 38.90 55.96 C 37.21 55.98 35.53 55.97 33.85 55.99 C 37.16 52.10 43.09 52.27 47.13 49.33 Z" />
</g>
<g id="#8ab36cff">
<path fill="#8ab36c" opacity="1.00" d=" M 50.17 50.31 L 50.96 50.18 C 51.73 51.08 52.50 51.98 53.23 52.90 C 49.75 52.52 46.55 53.84 43.80 55.88 C 42.46 55.91 41.12 55.92 39.78 55.91 C 42.17 52.36 46.79 52.42 50.17 50.31 Z" />
</g>
<g id="#07070520">
<path fill="#070705" opacity="0.13" d=" M 50.96 50.18 C 51.67 50.05 53.09 49.78 53.80 49.64 C 57.49 49.29 55.24 53.12 54.95 55.13 C 54.39 54.38 53.82 53.64 53.23 52.90 C 52.50 51.98 51.73 51.08 50.96 50.18 Z" />
</g>
<g id="#73583cdd">
<path fill="#73583c" opacity="0.87" d=" M 59.78 57.39 C 58.59 54.96 59.24 52.30 59.65 49.72 C 59.93 51.85 60.13 53.98 60.44 56.10 C 60.27 56.42 59.95 57.07 59.78 57.39 Z" />
</g>
<g id="#7f9c5dff">
<path fill="#7f9c5d" opacity="1.00" d=" M 43.80 55.88 C 46.55 53.84 49.75 52.52 53.23 52.90 C 52.47 57.16 47.06 55.64 43.80 55.88 Z" />
</g>
<g id="#697d49f8">
<path fill="#697d49" opacity="0.97" d=" M 53.23 52.90 C 53.82 53.64 54.39 54.38 54.95 55.13 C 54.51 57.02 54.04 58.90 53.64 60.80 C 53.53 61.93 53.07 62.62 52.26 62.87 C 51.52 61.29 50.63 59.79 49.63 58.37 C 46.60 56.09 42.52 57.36 39.00 56.89 L 38.90 55.96 L 39.78 55.91 C 41.12 55.92 42.46 55.91 43.80 55.88 C 47.06 55.64 52.47 57.16 53.23 52.90 Z" />
</g>
<g id="#cbf499fe">
<path fill="#cbf499" opacity="1.00" d=" M 60.44 56.10 C 61.18 55.36 61.31 52.84 62.66 53.31 C 64.01 53.75 65.39 54.05 66.80 54.27 C 67.96 54.59 70.30 55.24 71.47 55.56 C 68.43 59.15 62.53 63.78 64.79 69.13 C 63.40 69.03 62.04 68.73 60.73 68.24 C 57.43 65.51 57.60 60.79 59.78 57.39 C 59.95 57.07 60.27 56.42 60.44 56.10 Z" />
</g>
<g id="#9fda84fe">
<path fill="#9fda84" opacity="1.00" d=" M 66.80 54.27 C 68.75 53.89 70.68 53.34 72.68 53.18 C 74.04 53.59 75.43 53.88 76.84 54.12 C 77.78 54.81 79.52 55.39 78.94 56.93 C 76.97 61.66 74.31 66.15 70.86 69.96 C 69.34 69.75 66.31 69.34 64.79 69.13 C 62.53 63.78 68.43 59.15 71.47 55.56 C 70.30 55.24 67.96 54.59 66.80 54.27 Z" />
</g>
<g id="#699453ff">
<path fill="#699453" opacity="1.00" d=" M 72.68 53.18 L 73.67 53.04 C 74.45 52.96 76.00 52.81 76.77 52.73 C 83.46 52.89 90.21 52.95 96.80 54.25 C 98.43 54.42 101.64 56.02 98.16 56.21 C 96.50 55.72 94.85 55.16 93.12 54.99 C 87.74 54.12 82.28 53.93 76.84 54.12 C 75.43 53.88 74.04 53.59 72.68 53.18 Z" />
</g>
<g id="#7ba55bf8">
<path fill="#7ba55b" opacity="0.97" d=" M 96.80 54.25 C 98.14 53.98 99.46 53.63 100.81 53.39 C 101.98 54.47 104.23 59.19 104.01 55.16 C 105.90 55.86 105.58 59.89 106.84 61.86 C 103.08 62.11 99.52 63.62 95.77 63.83 C 96.00 61.13 97.07 58.65 98.16 56.21 C 101.64 56.02 98.43 54.42 96.80 54.25 Z" />
</g>
<g id="#8ec67bfd">
<path fill="#8ec67b" opacity="1.00" d=" M 76.84 54.12 C 82.28 53.93 87.74 54.12 93.12 54.99 C 94.03 59.51 88.83 61.90 88.72 65.98 C 83.10 67.97 76.98 70.15 70.86 69.96 C 74.31 66.15 76.97 61.66 78.94 56.93 C 79.52 55.39 77.78 54.81 76.84 54.12 Z" />
</g>
<g id="#84b46dfe">
<path fill="#84b46d" opacity="1.00" d=" M 93.12 54.99 C 94.85 55.16 96.50 55.72 98.16 56.21 C 97.07 58.65 96.00 61.13 95.77 63.83 C 93.47 64.69 91.18 65.75 88.72 65.98 C 88.83 61.90 94.03 59.51 93.12 54.99 Z" />
</g>
<g id="#6e9958ff">
<path fill="#6e9958" opacity="1.00" d=" M 13.11 58.11 C 20.06 57.81 27.07 57.77 33.85 55.99 C 35.53 55.97 37.21 55.98 38.90 55.96 L 39.00 56.89 L 39.06 57.81 C 36.30 58.01 33.34 57.46 30.83 58.81 C 24.86 59.24 18.87 59.01 12.89 59.01 L 13.11 58.11 Z" />
</g>
<g id="#7c9e60fd">
<path fill="#7c9e60" opacity="1.00" d=" M 39.00 56.89 C 42.52 57.36 46.60 56.09 49.63 58.37 C 50.63 59.79 51.52 61.29 52.26 62.87 C 49.62 66.05 46.20 70.31 41.82 70.86 C 42.66 68.48 43.62 66.14 44.46 63.75 C 44.74 60.72 42.32 57.55 39.06 57.81 L 39.00 56.89 Z" />
</g>
<g id="#86b771fc">
<path fill="#86b771" opacity="1.00" d=" M 30.83 58.81 C 33.34 57.46 36.30 58.01 39.06 57.81 C 42.32 57.55 44.74 60.72 44.46 63.75 C 43.62 66.14 42.66 68.48 41.82 70.86 C 36.35 74.20 29.14 73.77 22.96 74.08 L 23.07 73.19 C 23.71 73.06 25.01 72.81 25.66 72.68 C 28.02 68.23 27.50 62.76 30.83 58.81 Z" />
</g>
<g id="#ae8f6aef">
<path fill="#ae8f6a" opacity="0.94" d=" M 54.30 62.69 C 57.77 68.83 58.30 76.19 61.60 82.35 C 62.56 89.20 67.17 94.56 70.80 100.19 C 75.69 104.13 82.44 102.73 88.01 101.00 C 90.86 101.71 95.55 103.35 95.06 107.02 C 92.71 105.37 90.23 103.81 87.35 103.33 C 85.98 104.64 84.82 106.07 84.74 108.06 C 83.13 105.96 82.17 102.41 77.98 105.01 C 69.59 104.82 64.18 97.04 60.71 90.29 C 60.37 90.14 59.68 89.83 59.34 89.68 C 57.39 88.64 54.61 92.09 55.78 94.09 C 53.53 98.05 48.65 102.90 43.28 101.72 C 37.50 100.55 31.49 99.69 25.91 102.04 C 29.00 95.72 37.79 96.98 43.07 99.96 C 50.10 100.12 53.37 92.90 56.72 87.74 C 55.88 79.50 53.32 71.07 54.30 62.69 Z" />
</g>
<g id="#92764fe2">
<path fill="#92764f" opacity="0.89" d=" M 55.78 94.09 C 54.61 92.09 57.39 88.64 59.34 89.68 C 58.28 91.15 57.84 93.76 55.78 94.09 Z" />
</g>
</svg>
