<?xml version="1.0" encoding="UTF-8" ?>
<!DOCTYPE svg PUBLIC "-//W3C//DTD SVG 1.1//EN" "http://www.w3.org/Graphics/SVG/1.1/DTD/svg11.dtd">
<svg width="212pt" height="170pt" viewBox="0 0 212 170" version="1.1" xmlns="http://www.w3.org/2000/svg">
<g id="#c9ab7fff">
<path fill="#c9ab7f" opacity="1.00" d=" M 115.27 27.09 C 118.54 26.26 122.15 25.92 125.16 27.74 C 121.10 27.90 116.82 28.81 114.01 32.00 C 109.93 36.68 104.87 40.64 102.05 46.30 C 102.01 45.45 101.94 43.74 101.90 42.89 C 103.60 35.96 108.55 29.69 115.27 27.09 Z" />
</g>
<g id="#b48c60ff">
<path fill="#b48c60" opacity="1.00" d=" M 114.01 32.00 C 116.82 28.81 121.10 27.90 125.16 27.74 C 128.54 29.47 131.20 33.63 131.14 37.53 C 128.19 34.83 125.62 30.41 120.94 31.19 C 113.86 33.22 109.76 41.14 110.42 48.22 C 108.65 51.64 104.33 50.50 101.29 50.00 C 101.17 49.47 100.95 48.41 100.83 47.88 C 100.97 46.18 101.44 44.53 101.90 42.89 C 101.94 43.74 102.01 45.45 102.05 46.30 C 104.87 40.64 109.93 36.68 114.01 32.00 Z" />
</g>
<g id="#feea4cff">
<path fill="#feea4c" opacity="1.00" d=" M 92.92 54.34 C 94.86 51.40 97.26 48.71 100.83 47.88 C 100.95 48.41 101.17 49.47 101.29 50.00 C 104.33 50.50 108.65 51.64 110.42 48.22 C 113.65 47.77 116.22 51.03 117.76 53.56 C 118.62 53.90 119.48 54.24 120.34 54.60 C 119.95 54.90 119.17 55.52 118.78 55.82 C 118.46 55.43 117.80 54.66 117.47 54.27 C 112.28 58.14 105.49 58.44 99.30 57.69 C 97.01 57.41 94.93 56.35 93.02 55.13 L 92.92 54.34 Z" />
</g>
<g id="#ffff59ff">
<path fill="#ffff59" opacity="1.00" d=" M 84.71 60.77 C 86.92 58.06 89.64 55.66 92.92 54.34 L 93.02 55.13 C 92.80 58.35 96.71 58.55 98.98 59.12 C 105.59 60.02 113.37 60.43 118.78 55.82 C 119.17 55.52 119.95 54.90 120.34 54.60 C 123.86 56.83 126.88 59.75 129.00 63.35 C 125.95 62.13 122.98 60.73 120.04 59.28 C 118.95 64.76 120.13 70.89 116.78 75.74 C 114.85 79.11 110.77 80.15 107.20 80.70 C 104.53 80.14 102.04 80.81 100.47 83.18 C 96.44 85.85 91.71 88.33 86.71 87.86 C 86.24 86.58 85.77 85.30 85.31 84.02 C 84.70 83.69 83.48 83.02 82.87 82.69 C 82.13 83.78 81.38 84.87 80.68 86.00 C 80.02 87.20 79.44 88.44 78.85 89.68 C 77.30 90.24 75.75 90.77 74.22 91.36 C 75.22 80.57 77.64 69.34 84.71 60.77 M 90.14 71.05 C 89.83 72.32 88.64 73.84 90.07 74.88 C 91.38 75.33 93.20 74.56 93.11 72.99 C 93.14 71.22 91.42 71.21 90.14 71.05 Z" />
</g>
<g id="#9d9110fe">
<path fill="#9d9110" opacity="1.00" d=" M 93.02 55.13 C 94.93 56.35 97.01 57.41 99.30 57.69 C 105.49 58.44 112.28 58.14 117.47 54.27 C 117.80 54.66 118.46 55.43 118.78 55.82 C 113.37 60.43 105.59 60.02 98.98 59.12 C 96.71 58.55 92.80 58.35 93.02 55.13 Z" />
</g>
<g id="#feef50ff">
<path fill="#feef50" opacity="1.00" d=" M 120.04 59.28 C 122.98 60.73 125.95 62.13 129.00 63.35 C 133.44 69.68 135.75 77.29 136.81 84.89 C 137.98 94.33 138.05 103.88 137.02 113.34 C 136.68 110.59 136.10 107.88 135.63 105.16 C 135.71 104.23 135.77 103.29 135.83 102.36 C 137.01 91.93 135.09 81.39 131.69 71.53 C 129.82 71.62 126.74 70.40 126.45 73.17 C 124.97 78.60 123.73 84.46 119.71 88.68 C 118.29 90.29 116.02 90.42 114.03 90.66 C 109.00 91.09 103.93 91.60 99.11 93.17 C 96.43 94.05 94.30 96.00 91.73 97.10 C 89.77 97.46 87.74 97.17 85.78 96.87 L 85.50 96.81 C 84.16 93.71 82.07 90.96 78.85 89.68 C 79.44 88.44 80.02 87.20 80.68 86.00 C 81.51 87.17 82.35 88.34 83.18 89.52 C 85.45 88.57 85.07 86.01 85.31 84.02 C 85.77 85.30 86.24 86.58 86.71 87.86 C 91.71 88.33 96.44 85.85 100.47 83.18 C 101.38 85.18 103.19 88.21 105.80 86.92 C 108.46 85.87 107.57 82.84 107.20 80.70 C 110.77 80.15 114.85 79.11 116.78 75.74 C 120.13 70.89 118.95 64.76 120.04 59.28 Z" />
</g>
<g id="#d5e12fff">
<path fill="#d5e12f" opacity="1.00" d=" M 90.14 71.05 C 91.42 71.21 93.14 71.22 93.11 72.99 C 93.20 74.56 91.38 75.33 90.07 74.88 C 88.64 73.84 89.83 72.32 90.14 71.05 Z" />
</g>
<g id="#f1d845ff">
<path fill="#f1d845" opacity="1.00" d=" M 126.45 73.17 C 126.74 70.40 129.82 71.62 131.69 71.53 C 135.09 81.39 137.01 91.93 135.83 102.36 C 135.03 97.59 134.38 92.80 133.64 88.02 C 129.91 90.79 126.98 94.49 123.25 97.23 C 120.97 98.25 118.31 97.90 115.86 97.85 L 115.51 97.78 C 111.11 92.32 101.89 93.59 98.59 99.56 C 95.87 103.72 97.38 109.28 100.91 112.46 C 102.63 113.55 104.48 114.41 106.44 114.98 C 107.95 115.01 109.46 115.01 110.98 114.98 C 114.07 115.83 114.09 119.42 114.03 122.03 C 113.95 125.75 112.27 129.16 110.24 132.19 C 108.51 132.44 106.77 132.72 105.05 133.02 C 104.41 131.70 103.64 130.31 102.08 129.99 C 98.27 128.66 94.42 127.45 90.62 126.09 C 91.91 123.71 93.64 121.46 94.26 118.78 C 93.96 115.60 92.72 112.55 91.27 109.72 C 89.93 106.79 86.27 106.87 83.61 106.01 C 85.47 103.32 86.41 100.13 85.78 96.87 C 87.74 97.17 89.77 97.46 91.73 97.10 C 94.30 96.00 96.43 94.05 99.11 93.17 C 103.93 91.60 109.00 91.09 114.03 90.66 C 116.02 90.42 118.29 90.29 119.71 88.68 C 123.73 84.46 124.97 78.60 126.45 73.17 Z" />
</g>
<g id="#c1cb28ff">
<path fill="#c1cb28" opacity="1.00" d=" M 100.47 83.18 C 102.04 80.81 104.53 80.14 107.20 80.70 C 107.57 82.84 108.46 85.87 105.80 86.92 C 103.19 88.21 101.38 85.18 100.47 83.18 Z" />
</g>
<g id="#d2d328ff">
<path fill="#d2d328" opacity="1.00" d=" M 80.68 86.00 C 81.38 84.87 82.13 83.78 82.87 82.69 C 83.48 83.02 84.70 83.69 85.31 84.02 C 85.07 86.01 85.45 88.57 83.18 89.52 C 82.35 88.34 81.51 87.17 80.68 86.00 Z" />
</g>
<g id="#dfc33bff">
<path fill="#dfc33b" opacity="1.00" d=" M 123.25 97.23 C 126.98 94.49 129.91 90.79 133.64 88.02 C 134.38 92.80 135.03 97.59 135.83 102.36 C 135.77 103.29 135.71 104.23 135.63 105.16 C 133.65 109.28 134.61 114.00 133.50 118.34 C 132.98 113.96 132.36 109.59 131.74 105.21 C 128.99 106.84 125.40 108.32 125.01 111.96 C 122.65 121.03 122.42 132.45 113.62 138.02 C 110.93 136.09 108.02 134.48 105.05 133.02 C 106.77 132.72 108.51 132.44 110.24 132.19 C 112.27 129.16 113.95 125.75 114.03 122.03 C 114.09 119.42 114.07 115.83 110.98 114.98 C 116.05 112.58 119.40 106.65 117.36 101.12 C 116.92 100.01 116.42 98.91 115.86 97.85 C 118.31 97.90 120.97 98.25 123.25 97.23 Z" />
</g>
<g id="#eeeeeeff">
<path fill="#eeeeee" opacity="1.00" d=" M 74.22 91.36 C 75.75 90.77 77.30 90.24 78.85 89.68 C 82.07 90.96 84.16 93.71 85.50 96.81 C 84.36 103.06 79.54 107.94 73.40 109.44 C 72.58 108.65 71.79 107.82 71.04 106.96 C 69.51 104.30 68.68 101.20 69.38 98.14 C 69.81 97.20 70.25 96.26 70.74 95.35 C 71.71 93.88 72.85 92.48 74.22 91.36 M 73.31 95.25 C 69.93 97.51 69.78 103.95 74.00 105.43 C 77.61 106.20 79.88 102.03 79.50 98.93 C 79.55 96.03 75.89 93.30 73.31 95.25 Z" />
</g>
<g id="#aff495ff">
<path fill="#aff495" opacity="1.00" d=" M 33.05 98.96 C 39.24 92.99 48.21 89.75 56.80 91.10 C 51.60 92.58 45.49 92.43 41.39 96.45 C 36.82 100.81 31.56 104.82 28.75 110.64 C 26.81 114.40 24.19 117.88 23.16 122.04 C 22.17 125.86 21.45 129.73 20.28 133.50 C 20.15 131.67 20.03 129.83 20.01 128.00 C 22.51 117.70 25.30 106.70 33.05 98.96 Z" />
</g>
<g id="#a2e58aff">
<path fill="#a2e58a" opacity="1.00" d=" M 56.80 91.10 C 58.78 91.21 60.71 91.75 62.66 92.12 C 59.47 92.91 56.05 93.33 53.26 95.20 C 43.21 102.54 39.03 116.94 43.94 128.43 C 42.83 128.67 41.71 128.92 40.60 129.17 C 40.88 129.78 41.16 130.39 41.44 131.01 C 41.11 131.01 40.43 131.02 40.09 131.03 C 36.29 129.31 32.09 127.48 27.86 128.86 C 24.38 130.85 22.45 134.73 18.74 136.43 C 19.10 133.61 19.59 130.81 20.01 128.00 C 20.03 129.83 20.15 131.67 20.28 133.50 C 21.45 129.73 22.17 125.86 23.16 122.04 C 24.19 117.88 26.81 114.40 28.75 110.64 C 31.56 104.82 36.82 100.81 41.39 96.45 C 45.49 92.43 51.60 92.58 56.80 91.10 Z" />
</g>
<g id="#9ed980ff">
<path fill="#9ed980" opacity="1.00" d=" M 62.66 92.12 C 64.74 92.78 66.83 93.45 68.71 94.57 C 62.45 93.78 57.47 98.33 53.75 102.77 C 51.13 105.83 50.66 110.02 49.95 113.84 C 48.98 119.43 51.11 124.85 51.75 130.35 C 48.80 130.98 45.87 131.68 42.89 132.12 C 41.93 131.80 41.00 131.44 40.09 131.03 C 40.43 131.02 41.11 131.01 41.44 131.01 C 41.16 130.39 40.88 129.78 40.60 129.17 C 41.71 128.92 42.83 128.67 43.94 128.43 C 39.03 116.94 43.21 102.54 53.26 95.20 C 56.05 93.33 59.47 92.91 62.66 92.12 Z" />
</g>
<g id="#96c771ff">
<path fill="#96c771" opacity="1.00" d=" M 53.75 102.77 C 57.47 98.33 62.45 93.78 68.71 94.57 C 69.39 94.80 70.07 95.06 70.74 95.35 C 70.25 96.26 69.81 97.20 69.38 98.14 C 67.12 103.12 63.62 107.70 63.16 113.33 C 62.72 118.80 61.49 124.87 64.57 129.83 C 64.30 130.00 64.03 130.18 63.77 130.37 C 61.93 131.64 60.27 133.19 59.10 135.11 L 59.86 133.56 C 54.18 134.08 48.35 133.92 42.89 132.12 C 45.87 131.68 48.80 130.98 51.75 130.35 C 51.11 124.85 48.98 119.43 49.95 113.84 C 50.66 110.02 51.13 105.83 53.75 102.77 Z" />
</g>
<g id="#efefedff">
<path fill="#efefed" opacity="1.00" d=" M 98.59 99.56 C 101.89 93.59 111.11 92.32 115.51 97.78 C 114.80 100.76 113.99 103.72 113.00 106.62 C 112.68 106.51 112.04 106.29 111.72 106.18 C 111.99 103.35 110.93 100.06 107.87 99.30 C 103.91 97.91 99.74 102.18 101.16 106.09 C 101.47 108.18 103.51 109.19 105.03 110.32 C 105.69 110.76 106.34 111.18 107.01 111.61 C 104.97 111.88 102.94 112.17 100.91 112.46 C 97.38 109.28 95.87 103.72 98.59 99.56 Z" />
</g>
<g id="#3a3736ff">
<path fill="#3a3736" opacity="1.00" d=" M 73.31 95.25 C 75.89 93.30 79.55 96.03 79.50 98.93 C 79.88 102.03 77.61 106.20 74.00 105.43 C 69.78 103.95 69.93 97.51 73.31 95.25 Z" />
</g>
<g id="#cecdc7ff">
<path fill="#cecdc7" opacity="1.00" d=" M 85.50 96.81 L 85.78 96.87 C 86.41 100.13 85.47 103.32 83.61 106.01 C 81.78 108.05 79.48 109.65 76.87 110.52 C 75.70 110.20 74.55 109.84 73.40 109.44 C 79.54 107.94 84.36 103.06 85.50 96.81 Z" />
</g>
<g id="#90b461ff">
<path fill="#90b461" opacity="1.00" d=" M 63.16 113.33 C 63.62 107.70 67.12 103.12 69.38 98.14 C 68.68 101.20 69.51 104.30 71.04 106.96 C 69.10 114.38 67.10 121.77 65.50 129.27 L 64.57 129.83 C 61.49 124.87 62.72 118.80 63.16 113.33 Z" />
</g>
<g id="#cacacaff">
<path fill="#cacaca" opacity="1.00" d=" M 115.51 97.78 L 115.86 97.85 C 116.42 98.91 116.92 100.01 117.36 101.12 C 116.95 103.82 116.66 106.73 114.94 108.97 C 112.84 111.86 109.48 113.33 106.44 114.98 C 104.48 114.41 102.63 113.55 100.91 112.46 C 102.94 112.17 104.97 111.88 107.01 111.61 C 106.34 111.18 105.69 110.76 105.03 110.32 C 107.94 110.19 110.30 108.69 111.72 106.18 C 112.04 106.29 112.68 106.51 113.00 106.62 C 113.99 103.72 114.80 100.76 115.51 97.78 Z" />
</g>
<g id="#393837ff">
<path fill="#393837" opacity="1.00" d=" M 101.16 106.09 C 99.74 102.18 103.91 97.91 107.87 99.30 C 110.93 100.06 111.99 103.35 111.72 106.18 C 110.30 108.69 107.94 110.19 105.03 110.32 C 103.51 109.19 101.47 108.18 101.16 106.09 Z" />
<path fill="#393837" opacity="1.00" d=" M 208.01 148.76 C 208.58 152.53 209.02 156.39 208.09 160.14 C 208.34 156.35 208.19 152.55 208.01 148.76 Z" />
</g>
<g id="#a6a292ff">
<path fill="#a6a292" opacity="1.00" d=" M 117.36 101.12 C 119.40 106.65 116.05 112.58 110.98 114.98 C 109.46 115.01 107.95 115.01 106.44 114.98 C 109.48 113.33 112.84 111.86 114.94 108.97 C 116.66 106.73 116.95 103.82 117.36 101.12 Z" />
</g>
<g id="#d1b032ff">
<path fill="#d1b032" opacity="1.00" d=" M 125.01 111.96 C 125.40 108.32 128.99 106.84 131.74 105.21 C 132.36 109.59 132.98 113.96 133.50 118.34 C 131.78 128.87 127.30 138.58 123.49 148.45 C 122.32 146.80 121.13 145.15 119.81 143.61 C 118.01 141.48 115.86 139.67 113.62 138.02 C 122.42 132.45 122.65 121.03 125.01 111.96 Z" />
</g>
<g id="#ffe94aff">
<path fill="#ffe94a" opacity="1.00" d=" M 76.87 110.52 C 79.48 109.65 81.78 108.05 83.61 106.01 C 86.27 106.87 89.93 106.79 91.27 109.72 C 92.72 112.55 93.96 115.60 94.26 118.78 C 93.64 121.46 91.91 123.71 90.62 126.09 C 84.20 125.02 77.58 125.11 71.17 126.17 C 73.21 121.50 74.03 116.45 74.56 111.41 C 75.33 111.11 76.10 110.82 76.87 110.52 Z" />
</g>
<g id="#f2cd31ff">
<path fill="#f2cd31" opacity="1.00" d=" M 133.50 118.34 C 134.61 114.00 133.65 109.28 135.63 105.16 C 136.10 107.88 136.68 110.59 137.02 113.34 C 137.09 114.61 136.72 115.86 136.39 117.08 C 134.55 122.97 133.02 128.97 131.97 135.06 C 130.56 140.54 127.51 145.38 124.45 150.08 L 124.00 149.33 L 123.49 148.45 C 127.30 138.58 131.78 128.87 133.50 118.34 Z" />
</g>
<g id="#4c663a9f">
<path fill="#4c663a" opacity="0.62" d=" M 157.58 106.94 C 162.27 105.36 167.48 105.71 172.23 106.91 C 167.35 106.78 162.45 106.60 157.58 106.94 Z" />
</g>
<g id="#feff54ff">
<path fill="#feff54" opacity="1.00" d=" M 71.04 106.96 C 71.79 107.82 72.58 108.65 73.40 109.44 C 74.55 109.84 75.70 110.20 76.87 110.52 C 76.10 110.82 75.33 111.11 74.56 111.41 C 74.03 116.45 73.21 121.50 71.17 126.17 C 70.04 126.91 68.96 127.70 67.84 128.45 C 67.25 128.65 66.09 129.06 65.50 129.27 C 67.10 121.77 69.10 114.38 71.04 106.96 Z" />
</g>
<g id="#92ce7eff">
<path fill="#92ce7e" opacity="1.00" d=" M 148.69 109.15 C 151.14 108.31 153.65 107.64 156.18 107.06 C 161.18 109.22 166.75 107.47 171.84 109.16 C 174.69 110.06 177.83 109.48 180.60 110.71 C 183.59 111.95 186.46 113.45 189.49 114.60 C 189.06 114.00 188.21 112.82 187.78 112.23 C 199.17 119.02 206.21 131.78 207.52 144.80 C 206.21 149.92 205.80 155.18 205.54 160.44 C 204.57 161.04 203.61 161.64 202.65 162.24 C 199.61 159.42 196.18 157.00 193.15 154.23 C 192.08 150.46 188.00 150.08 184.78 149.28 C 174.16 146.48 163.02 149.00 152.34 146.41 C 152.25 145.01 152.17 143.62 152.08 142.22 C 155.83 139.34 159.88 136.31 161.52 131.69 C 162.76 128.10 164.42 124.57 165.03 120.81 C 162.96 113.68 155.30 110.63 148.69 109.15 Z" />
</g>
<g id="#a8ed8bfd">
<path fill="#a8ed8b" opacity="1.00" d=" M 156.18 107.06 L 157.58 106.94 C 162.45 106.60 167.35 106.78 172.23 106.91 C 177.73 107.41 183.01 109.50 187.78 112.23 C 188.21 112.82 189.06 114.00 189.49 114.60 C 186.46 113.45 183.59 111.95 180.60 110.71 C 177.83 109.48 174.69 110.06 171.84 109.16 C 166.75 107.47 161.18 109.22 156.18 107.06 Z" />
</g>
<g id="#91c471ff">
<path fill="#91c471" opacity="1.00" d=" M 146.11 109.89 C 146.97 109.65 147.83 109.41 148.69 109.15 C 155.30 110.63 162.96 113.68 165.03 120.81 C 164.42 124.57 162.76 128.10 161.52 131.69 C 159.88 136.31 155.83 139.34 152.08 142.22 C 152.17 143.62 152.25 145.01 152.34 146.41 C 151.32 147.00 150.30 147.59 149.29 148.19 C 144.92 146.66 140.28 145.32 136.72 142.23 C 141.08 138.21 144.43 133.20 146.98 127.88 C 148.46 123.70 148.34 119.13 148.41 114.75 C 148.52 112.82 147.09 111.38 146.11 109.89 Z" />
<path fill="#91c471" opacity="1.00" d=" M 207.52 144.80 C 207.74 146.11 207.93 147.43 208.01 148.76 C 208.19 152.55 208.34 156.35 208.09 160.14 C 207.93 161.70 207.66 163.26 207.42 164.82 C 205.77 163.99 204.12 163.16 202.45 162.36 L 202.65 162.24 C 203.61 161.64 204.57 161.04 205.54 160.44 C 205.80 155.18 206.21 149.92 207.52 144.80 Z" />
</g>
<g id="#91b863ff">
<path fill="#91b863" opacity="1.00" d=" M 142.04 112.02 C 143.38 111.28 144.73 110.55 146.11 109.89 C 147.09 111.38 148.52 112.82 148.41 114.75 C 148.34 119.13 148.46 123.70 146.98 127.88 C 144.43 133.20 141.08 138.21 136.72 142.23 C 134.70 140.18 133.16 137.75 132.42 134.96 C 134.21 134.38 136.63 134.55 137.74 132.73 C 141.18 127.72 142.86 121.63 143.57 115.65 C 143.89 114.19 142.87 113.07 142.04 112.02 Z" />
</g>
<g id="#92ac57ff">
<path fill="#92ac57" opacity="1.00" d=" M 136.39 117.08 C 137.81 114.94 140.00 113.50 142.04 112.02 C 142.87 113.07 143.89 114.19 143.57 115.65 C 142.86 121.63 141.18 127.72 137.74 132.73 C 136.63 134.55 134.21 134.38 132.42 134.96 L 131.97 135.06 C 133.02 128.97 134.55 122.97 136.39 117.08 Z" />
</g>
<g id="#e3c328ff">
<path fill="#e3c328" opacity="1.00" d=" M 71.17 126.17 C 77.58 125.11 84.20 125.02 90.62 126.09 C 94.42 127.45 98.27 128.66 102.08 129.99 C 103.64 130.31 104.41 131.70 105.05 133.02 C 98.59 130.47 92.00 128.01 85.09 127.05 C 80.74 126.40 76.33 126.84 71.95 126.84 C 71.78 127.05 71.44 127.48 71.27 127.69 C 70.41 127.88 68.70 128.26 67.84 128.45 C 68.96 127.70 70.04 126.91 71.17 126.17 Z" />
</g>
<g id="#433326ff">
<path fill="#433326" opacity="1.00" d=" M 71.27 127.69 C 71.44 127.48 71.78 127.05 71.95 126.84 C 76.33 126.84 80.74 126.40 85.09 127.05 C 92.00 128.01 98.59 130.47 105.05 133.02 C 108.02 134.48 110.93 136.09 113.62 138.02 C 115.86 139.67 118.01 141.48 119.81 143.61 L 119.25 143.07 C 114.58 138.88 109.26 135.37 103.46 132.94 C 97.42 130.56 91.22 128.34 84.74 127.59 C 80.45 127.09 76.10 126.84 71.83 127.60 C 71.69 127.62 71.41 127.67 71.27 127.69 Z" />
<path fill="#433326" opacity="1.00" d=" M 69.01 139.32 C 76.85 136.61 85.28 138.52 92.96 140.86 C 100.19 143.28 107.56 146.45 112.80 152.20 C 113.34 153.07 113.89 153.94 114.44 154.81 C 113.27 155.49 112.09 156.19 110.88 156.81 C 110.13 157.04 109.38 157.25 108.63 157.45 C 103.50 157.92 98.25 157.84 93.29 156.32 C 89.32 155.11 85.40 153.71 81.65 151.94 C 79.51 150.82 77.41 149.65 75.38 148.34 C 72.90 146.39 70.63 144.13 69.04 141.38 C 69.03 140.87 69.02 139.83 69.01 139.32 Z" />
</g>
<g id="#f6d3c2fc">
<path fill="#f6d3c2" opacity="1.00" d=" M 67.84 128.45 C 68.70 128.26 70.41 127.88 71.27 127.69 C 71.41 127.67 71.69 127.62 71.83 127.60 C 76.10 126.84 80.45 127.09 84.74 127.59 C 80.15 130.04 74.71 128.28 70.03 130.27 C 64.80 133.04 60.52 137.72 59.04 143.55 C 58.84 141.89 57.69 140.14 58.24 138.49 C 60.20 135.88 63.10 133.72 63.77 130.37 C 64.03 130.18 64.30 130.00 64.57 129.83 L 65.50 129.27 C 66.09 129.06 67.25 128.65 67.84 128.45 Z" />
</g>
<g id="#feb6b1ff">
<path fill="#feb6b1" opacity="1.00" d=" M 84.74 127.59 C 91.22 128.34 97.42 130.56 103.46 132.94 C 100.92 137.20 95.39 137.23 91.01 137.18 C 83.35 136.33 75.46 134.64 67.85 136.71 C 65.10 137.59 61.91 139.01 60.97 141.99 C 60.89 143.97 61.26 145.93 61.66 147.86 C 60.62 146.53 59.73 145.09 59.04 143.55 C 60.52 137.72 64.80 133.04 70.03 130.27 C 74.71 128.28 80.15 130.04 84.74 127.59 Z" />
</g>
<g id="#f5f3e1fd">
<path fill="#f5f3e1" opacity="1.00" d=" M 59.10 135.11 C 60.27 133.19 61.93 131.64 63.77 130.37 C 63.10 133.72 60.20 135.88 58.24 138.49 C 58.46 137.64 58.89 135.95 59.10 135.11 Z" />
</g>
<g id="#e9a098ff">
<path fill="#e9a098" opacity="1.00" d=" M 103.46 132.94 C 109.26 135.37 114.58 138.88 119.25 143.07 C 118.24 143.26 117.22 143.45 116.21 143.65 C 115.32 146.07 114.36 148.46 113.35 150.84 L 112.80 152.20 C 107.56 146.45 100.19 143.28 92.96 140.86 C 85.28 138.52 76.85 136.61 69.01 139.32 C 67.82 139.41 66.62 139.43 65.43 139.45 C 63.54 141.31 61.29 143.96 63.24 146.63 C 64.02 148.39 64.89 150.11 65.82 151.80 C 64.31 150.65 62.56 149.60 61.66 147.86 C 61.26 145.93 60.89 143.97 60.97 141.99 C 61.91 139.01 65.10 137.59 67.85 136.71 C 75.46 134.64 83.35 136.33 91.01 137.18 C 95.39 137.23 100.92 137.20 103.46 132.94 Z" />
</g>
<g id="#ce7e67ff">
<path fill="#ce7e67" opacity="1.00" d=" M 65.43 139.45 C 66.62 139.43 67.82 139.41 69.01 139.32 C 69.02 139.83 69.03 140.87 69.04 141.38 C 67.87 142.37 66.66 143.31 65.46 144.25 C 67.35 147.88 71.57 149.08 75.38 148.34 C 77.41 149.65 79.51 150.82 81.65 151.94 C 78.90 152.66 76.01 153.80 73.16 152.90 C 69.33 151.79 66.26 149.08 63.24 146.63 C 61.29 143.96 63.54 141.31 65.43 139.45 Z" />
</g>
<g id="#be6b4dff">
<path fill="#be6b4d" opacity="1.00" d=" M 65.46 144.25 C 66.66 143.31 67.87 142.37 69.04 141.38 C 70.63 144.13 72.90 146.39 75.38 148.34 C 71.57 149.08 67.35 147.88 65.46 144.25 Z" />
</g>
<g id="#d69081ff">
<path fill="#d69081" opacity="1.00" d=" M 116.21 143.65 C 117.22 143.45 118.24 143.26 119.25 143.07 L 119.81 143.61 C 121.13 145.15 122.32 146.80 123.49 148.45 L 124.00 149.33 C 124.15 149.75 124.43 150.57 124.58 150.99 C 123.10 149.63 121.57 148.34 120.03 147.07 C 118.87 152.32 119.02 158.00 120.67 163.14 C 119.49 163.80 118.30 164.46 117.09 165.08 C 116.67 164.76 115.83 164.13 115.40 163.81 C 116.49 161.84 118.36 159.83 117.64 157.40 C 116.97 154.80 114.96 152.88 113.35 150.84 C 114.36 148.46 115.32 146.07 116.21 143.65 Z" />
</g>
<g id="#83b76af7">
<path fill="#83b76a" opacity="0.97" d=" M 152.34 146.41 C 163.02 149.00 174.16 146.48 184.78 149.28 C 188.00 150.08 192.08 150.46 193.15 154.23 C 189.67 152.73 186.05 151.61 182.33 150.86 C 174.61 149.20 166.64 150.58 158.80 150.05 C 155.56 149.86 152.43 148.94 149.29 148.19 C 150.30 147.59 151.32 147.00 152.34 146.41 Z" />
</g>
<g id="#df8c7aff">
<path fill="#df8c7a" opacity="1.00" d=" M 63.24 146.63 C 66.26 149.08 69.33 151.79 73.16 152.90 C 76.01 153.80 78.90 152.66 81.65 151.94 C 85.40 153.71 89.32 155.11 93.29 156.32 C 92.49 157.07 91.70 157.82 90.91 158.57 C 86.28 157.88 81.59 158.12 76.93 158.17 C 77.64 158.73 78.36 159.29 79.09 159.84 C 74.31 157.88 69.59 155.37 65.82 151.80 C 64.89 150.11 64.02 148.39 63.24 146.63 Z" />
</g>
<g id="#ca8573ff">
<path fill="#ca8573" opacity="1.00" d=" M 120.03 147.07 C 121.57 148.34 123.10 149.63 124.58 150.99 C 126.64 155.30 124.83 160.83 120.67 163.14 C 119.02 158.00 118.87 152.32 120.03 147.07 Z" />
</g>
<g id="#31442496">
<path fill="#314424" opacity="0.59" d=" M 158.80 150.05 C 166.64 150.58 174.61 149.20 182.33 150.86 C 174.50 150.32 166.48 152.08 158.80 150.05 Z" />
</g>
<g id="#f9a496ff">
<path fill="#f9a496" opacity="1.00" d=" M 113.35 150.84 C 114.96 152.88 116.97 154.80 117.64 157.40 C 118.36 159.83 116.49 161.84 115.40 163.81 C 115.83 164.13 116.67 164.76 117.09 165.08 C 110.50 166.77 103.56 166.60 96.90 165.41 C 96.20 163.98 95.44 162.58 94.67 161.19 C 95.06 161.12 95.83 160.99 96.22 160.93 C 100.48 161.14 106.15 161.86 108.63 157.45 C 109.38 157.25 110.13 157.04 110.88 156.81 C 111.72 158.98 112.59 161.48 115.44 160.74 C 115.62 159.54 115.79 158.34 115.97 157.14 C 115.46 156.36 114.95 155.58 114.44 154.81 C 113.89 153.94 113.34 153.07 112.80 152.20 L 113.35 150.84 Z" />
</g>
<g id="#ffc4a9ff">
<path fill="#ffc4a9" opacity="1.00" d=" M 110.88 156.81 C 112.09 156.19 113.27 155.49 114.44 154.81 C 114.95 155.58 115.46 156.36 115.97 157.14 C 115.79 158.34 115.62 159.54 115.44 160.74 C 112.59 161.48 111.72 158.98 110.88 156.81 Z" />
</g>
<g id="#f8967eff">
<path fill="#f8967e" opacity="1.00" d=" M 90.91 158.57 C 91.70 157.82 92.49 157.07 93.29 156.32 C 98.25 157.84 103.50 157.92 108.63 157.45 C 106.15 161.86 100.48 161.14 96.22 160.93 C 94.45 160.13 92.71 159.29 90.91 158.57 Z" />
</g>
<g id="#e6988aff">
<path fill="#e6988a" opacity="1.00" d=" M 76.93 158.17 C 81.59 158.12 86.28 157.88 90.91 158.57 C 92.71 159.29 94.45 160.13 96.22 160.93 C 95.83 160.99 95.06 161.12 94.67 161.19 C 95.44 162.58 96.20 163.98 96.90 165.41 C 90.78 164.27 84.68 162.60 79.09 159.84 C 78.36 159.29 77.64 158.73 76.93 158.17 Z" />
</g>
</svg>
