<?xml version="1.0" encoding="UTF-8" ?>
<!DOCTYPE svg PUBLIC "-//W3C//DTD SVG 1.1//EN" "http://www.w3.org/Graphics/SVG/1.1/DTD/svg11.dtd">
<svg width="220pt" height="198pt" viewBox="0 0 220 198" version="1.1" xmlns="http://www.w3.org/2000/svg">
<g id="#7ba364cc">
<path fill="#7ba364" opacity="0.80" d=" M 107.73 6.67 C 117.05 4.96 126.82 6.06 136.22 6.71 C 126.73 7.08 117.22 7.21 107.73 6.67 Z" />
</g>
<g id="#b4f08afc">
<path fill="#b4f08a" opacity="1.00" d=" M 58.94 11.04 C 68.62 9.51 78.45 9.01 88.10 7.21 C 91.86 7.08 95.59 7.96 99.33 8.27 L 98.86 8.98 C 94.21 9.05 89.56 8.88 84.91 9.07 C 85.89 10.37 86.98 11.57 88.05 12.80 C 84.36 14.87 80.72 17.03 76.94 18.93 C 73.22 21.24 68.81 21.83 65.00 23.89 C 61.16 20.43 55.36 22.61 50.66 21.72 C 51.44 19.41 52.95 17.59 55.22 16.61 C 57.22 15.91 59.18 15.04 60.97 13.89 C 60.35 12.90 59.63 11.98 58.94 11.04 Z" />
</g>
<g id="#a5e283fd">
<path fill="#a5e283" opacity="1.00" d=" M 99.33 8.27 C 102.17 7.94 104.95 7.28 107.73 6.67 C 117.22 7.21 126.73 7.08 136.22 6.71 C 142.99 7.53 152.38 7.42 155.09 15.02 C 148.41 14.52 141.98 12.24 135.20 12.72 C 132.85 12.35 130.51 11.96 128.18 11.53 C 123.86 10.84 119.69 13.25 115.19 13.36 C 100.81 20.28 82.68 18.60 69.95 29.10 C 67.88 27.83 66.37 25.85 65.00 23.89 C 68.81 21.83 73.22 21.24 76.94 18.93 C 76.73 19.50 76.31 20.63 76.10 21.20 C 81.50 18.24 86.81 15.12 92.20 12.13 C 94.44 11.22 97.33 11.02 98.86 8.98 L 99.33 8.27 Z" />
</g>
<g id="#b4e26eff">
<path fill="#b4e26e" opacity="1.00" d=" M 84.91 9.07 C 89.56 8.88 94.21 9.05 98.86 8.98 C 97.33 11.02 94.44 11.22 92.20 12.13 C 90.81 12.29 89.42 12.49 88.05 12.80 C 86.98 11.57 85.89 10.37 84.91 9.07 Z" />
</g>
<g id="#99d27cf4">
<path fill="#99d27c" opacity="0.96" d=" M 33.82 18.96 C 40.66 13.18 50.33 12.31 58.94 11.04 C 59.63 11.98 60.35 12.90 60.97 13.89 C 59.18 15.04 57.22 15.91 55.22 16.61 C 47.97 15.82 40.95 18.25 33.82 18.96 Z" />
</g>
<g id="#96c064fd">
<path fill="#96c064" opacity="1.00" d=" M 115.19 13.36 C 119.69 13.25 123.86 10.84 128.18 11.53 C 126.41 11.57 125.85 12.46 126.53 14.01 C 127.40 15.79 125.79 16.51 124.48 17.21 C 123.30 15.57 121.51 16.31 119.95 16.81 C 105.67 21.97 90.01 20.97 75.97 26.98 C 73.92 27.83 71.96 29.08 71.06 31.19 C 70.08 31.78 69.07 32.33 68.07 32.87 C 67.41 31.80 66.80 30.69 66.03 29.69 C 65.50 29.02 64.94 28.39 64.32 27.79 C 63.73 27.01 62.99 26.50 62.11 26.28 C 58.45 25.63 54.72 25.17 51.26 23.74 C 50.11 23.35 49.91 22.67 50.66 21.72 C 55.36 22.61 61.16 20.43 65.00 23.89 C 66.37 25.85 67.88 27.83 69.95 29.10 C 82.68 18.60 100.81 20.28 115.19 13.36 Z" />
</g>
<g id="#86be68ff">
<path fill="#86be68" opacity="1.00" d=" M 88.05 12.80 C 89.42 12.49 90.81 12.29 92.20 12.13 C 86.81 15.12 81.50 18.24 76.10 21.20 C 76.31 20.63 76.73 19.50 76.94 18.93 C 80.72 17.03 84.36 14.87 88.05 12.80 Z" />
</g>
<g id="#648144da">
<path fill="#648144" opacity="0.85" d=" M 126.53 14.01 C 125.85 12.46 126.41 11.57 128.18 11.53 C 130.51 11.96 132.85 12.35 135.20 12.72 C 132.29 12.98 129.37 13.38 126.53 14.01 Z" />
</g>
<g id="#7d9243ff">
<path fill="#7d9243" opacity="1.00" d=" M 119.95 16.81 C 121.51 16.31 123.30 15.57 124.48 17.21 L 123.93 18.00 C 122.27 18.63 120.54 19.04 118.85 19.62 C 117.85 19.95 116.87 20.34 115.92 20.79 C 114.68 20.90 113.44 21.01 112.20 21.10 C 109.58 20.88 107.09 21.68 104.75 22.77 C 93.23 24.16 81.68 26.34 71.06 31.19 C 71.96 29.08 73.92 27.83 75.97 26.98 C 90.01 20.97 105.67 21.97 119.95 16.81 Z" />
</g>
<g id="#a27d52fa">
<path fill="#a27d52" opacity="0.98" d=" M 118.85 19.62 C 120.54 19.04 122.27 18.63 123.93 18.00 C 126.51 22.18 128.90 26.48 130.96 30.94 C 130.23 31.81 129.60 32.89 128.35 33.00 C 128.24 29.41 125.15 27.46 123.28 24.75 C 123.04 24.31 122.56 23.43 122.31 22.99 C 121.44 21.58 120.67 19.92 118.85 19.62 Z" />
</g>
<g id="#f98f5fff">
<path fill="#f98f5f" opacity="1.00" d=" M 115.92 20.79 C 116.87 20.34 117.85 19.95 118.85 19.62 C 120.67 19.92 121.44 21.58 122.31 22.99 C 120.80 25.83 117.82 27.78 116.95 30.95 C 115.32 30.83 113.66 30.41 112.04 30.88 C 112.44 29.37 112.88 27.86 113.28 26.34 C 114.66 24.78 115.69 22.89 115.92 20.79 Z" />
</g>
<g id="#80702eff">
<path fill="#80702e" opacity="1.00" d=" M 104.75 22.77 C 107.09 21.68 109.58 20.88 112.20 21.10 C 111.10 21.66 109.98 22.20 108.87 22.75 C 107.50 22.78 106.12 22.78 104.75 22.77 Z" />
</g>
<g id="#f07936ff">
<path fill="#f07936" opacity="1.00" d=" M 112.20 21.10 C 113.44 21.01 114.68 20.90 115.92 20.79 C 115.69 22.89 114.66 24.78 113.28 26.34 C 112.02 24.90 110.53 23.70 108.87 22.75 C 109.98 22.20 111.10 21.66 112.20 21.10 Z" />
</g>
<g id="#2d1d0bff">
<path fill="#2d1d0b" opacity="1.00" d=" M 71.06 31.19 C 81.68 26.34 93.23 24.16 104.75 22.77 C 106.12 22.78 107.50 22.78 108.87 22.75 C 110.53 23.70 112.02 24.90 113.28 26.34 C 112.88 27.86 112.44 29.37 112.04 30.88 C 108.27 35.34 104.40 40.11 99.01 42.64 C 97.48 43.23 95.95 43.79 94.39 44.27 C 92.72 42.03 91.26 39.61 89.17 37.73 C 89.04 40.83 89.00 43.94 88.97 47.05 C 79.45 49.49 69.51 52.60 59.76 49.38 C 60.73 47.29 61.45 45.09 62.10 42.88 C 62.58 41.79 62.90 40.62 62.08 39.58 C 63.25 36.74 65.70 34.73 68.07 32.87 C 69.07 32.33 70.08 31.78 71.06 31.19 Z" />
</g>
<g id="#e78c6dff">
<path fill="#e78c6d" opacity="1.00" d=" M 122.31 22.99 C 122.56 23.43 123.04 24.31 123.28 24.75 C 122.77 26.52 122.28 28.29 121.98 30.10 C 121.72 31.03 121.43 31.96 121.11 32.88 C 117.79 33.56 116.93 37.67 113.84 38.96 C 115.04 36.36 117.05 33.98 116.95 30.95 C 117.82 27.78 120.80 25.83 122.31 22.99 Z" />
</g>
<g id="#a6855bf6">
<path fill="#a6855b" opacity="0.96" d=" M 123.28 24.75 C 125.15 27.46 128.24 29.41 128.35 33.00 C 129.60 32.89 130.23 31.81 130.96 30.94 C 134.49 38.15 136.66 45.93 137.32 53.93 C 134.24 54.11 134.43 50.10 132.99 48.16 C 132.27 43.92 130.37 40.09 128.75 36.15 C 128.46 36.38 127.87 36.86 127.57 37.09 C 126.37 34.05 125.13 31.02 123.82 28.02 C 123.19 28.70 122.57 29.39 121.98 30.10 C 122.28 28.29 122.77 26.52 123.28 24.75 Z" />
</g>
<g id="#df804ff9">
<path fill="#df804f" opacity="0.98" d=" M 62.11 26.28 C 62.99 26.50 63.73 27.01 64.32 27.79 C 60.58 32.20 56.07 37.10 57.04 43.33 L 56.58 44.16 C 53.82 39.31 58.18 34.50 58.17 29.54 C 59.41 28.37 60.79 27.37 62.11 26.28 Z" />
</g>
<g id="#ce6839ff">
<path fill="#ce6839" opacity="1.00" d=" M 64.32 27.79 C 64.94 28.39 65.50 29.02 66.03 29.69 C 62.87 32.44 58.33 36.71 59.80 41.34 C 58.90 42.03 57.96 42.66 57.04 43.33 C 56.07 37.10 60.58 32.20 64.32 27.79 Z" />
</g>
<g id="#0605020e">
<path fill="#060502" opacity="0.05" d=" M 121.98 30.10 C 122.57 29.39 123.19 28.70 123.82 28.02 C 125.13 31.02 126.37 34.05 127.57 37.09 C 131.62 48.17 132.70 60.07 132.84 71.77 C 132.12 75.22 131.88 78.73 132.23 82.23 C 131.70 86.28 131.55 90.48 130.14 94.35 C 128.11 89.34 127.69 83.80 125.21 78.97 C 124.79 76.35 124.27 73.74 123.87 71.12 C 123.24 67.65 122.05 64.31 121.37 60.85 C 120.05 53.58 118.65 46.29 117.86 38.94 C 119.30 37.14 120.59 35.17 121.11 32.88 C 121.43 31.96 121.72 31.03 121.98 30.10 Z" />
</g>
<g id="#f2966efa">
<path fill="#f2966e" opacity="0.98" d=" M 53.84 34.81 C 54.99 32.83 56.36 30.97 58.17 29.54 C 58.18 34.50 53.82 39.31 56.58 44.16 C 56.40 44.45 56.04 45.04 55.86 45.34 C 51.07 43.90 52.37 38.28 53.84 34.81 Z" />
</g>
<g id="#b45524ff">
<path fill="#b45524" opacity="1.00" d=" M 59.80 41.34 C 58.33 36.71 62.87 32.44 66.03 29.69 C 66.80 30.69 67.41 31.80 68.07 32.87 C 65.70 34.73 63.25 36.74 62.08 39.58 C 61.51 40.02 60.37 40.90 59.80 41.34 Z" />
</g>
<g id="#f29e86ff">
<path fill="#f29e86" opacity="1.00" d=" M 112.04 30.88 C 113.66 30.41 115.32 30.83 116.95 30.95 C 117.05 33.98 115.04 36.36 113.84 38.96 C 109.89 43.07 105.53 46.79 100.32 49.19 C 95.13 50.56 90.29 53.04 85.89 56.06 C 84.03 56.83 82.02 56.99 80.05 57.22 C 86.10 52.08 93.76 48.58 99.99 43.99 C 99.75 43.65 99.25 42.98 99.01 42.64 C 104.40 40.11 108.27 35.34 112.04 30.88 Z" />
</g>
<g id="#cf8566fe">
<path fill="#cf8566" opacity="1.00" d=" M 113.84 38.96 C 116.93 37.67 117.79 33.56 121.11 32.88 C 120.59 35.17 119.30 37.14 117.86 38.94 C 116.88 40.25 115.92 41.57 114.96 42.88 C 112.47 44.63 110.00 46.42 107.81 48.55 C 104.28 49.31 103.12 52.59 101.04 55.04 C 101.31 53.98 101.57 52.91 101.82 51.83 C 97.93 53.25 94.42 55.50 90.68 57.24 C 87.84 57.92 83.98 57.37 82.13 59.99 L 81.76 60.73 C 81.36 60.67 80.56 60.55 80.16 60.48 C 77.40 60.38 74.14 58.88 71.88 60.86 C 70.30 62.23 67.76 64.25 65.88 62.30 C 67.16 62.06 68.33 61.56 69.40 60.82 C 72.40 58.33 76.44 58.21 80.05 57.22 C 82.02 56.99 84.03 56.83 85.89 56.06 C 90.87 54.67 97.15 53.40 100.32 49.19 C 105.53 46.79 109.89 43.07 113.84 38.96 Z" />
</g>
<g id="#f5ae98fd">
<path fill="#f5ae98" opacity="1.00" d=" M 49.34 51.69 C 46.35 45.86 50.53 39.47 53.84 34.81 C 52.37 38.28 51.07 43.90 55.86 45.34 C 55.12 46.47 54.31 47.57 53.85 48.86 C 55.20 48.95 56.56 49.01 57.91 49.04 C 58.37 49.13 59.30 49.30 59.76 49.38 C 69.51 52.60 79.45 49.49 88.97 47.05 C 91.38 47.28 93.66 46.89 94.39 44.27 C 95.95 43.79 97.48 43.23 99.01 42.64 C 99.25 42.98 99.75 43.65 99.99 43.99 C 93.76 48.58 86.10 52.08 80.05 57.22 C 76.44 58.21 72.40 58.33 69.40 60.82 C 67.83 59.91 66.11 59.91 64.54 60.81 L 63.86 61.02 C 58.99 58.11 51.58 57.61 49.34 51.69 Z" />
</g>
<g id="#ba9d71f9">
<path fill="#ba9d71" opacity="0.98" d=" M 127.57 37.09 C 127.87 36.86 128.46 36.38 128.75 36.15 C 130.37 40.09 132.27 43.92 132.99 48.16 C 134.43 50.10 134.24 54.11 137.32 53.93 C 136.84 57.32 134.23 61.88 137.84 64.25 C 137.98 69.24 137.94 74.25 138.24 79.24 C 136.76 88.01 136.16 97.13 132.96 105.50 C 131.30 102.01 130.97 98.07 130.14 94.35 C 131.55 90.48 131.70 86.28 132.23 82.23 C 132.85 78.77 133.09 75.27 132.84 71.77 C 132.70 60.07 131.62 48.17 127.57 37.09 Z" />
</g>
<g id="#edd8b2ff">
<path fill="#edd8b2" opacity="1.00" d=" M 89.17 37.73 C 91.26 39.61 92.72 42.03 94.39 44.27 C 93.66 46.89 91.38 47.28 88.97 47.05 C 89.00 43.94 89.04 40.83 89.17 37.73 Z" />
</g>
<g id="#dec33afe">
<path fill="#dec33a" opacity="1.00" d=" M 114.96 42.88 C 115.92 41.57 116.88 40.25 117.86 38.94 C 118.65 46.29 120.05 53.58 121.37 60.85 C 120.98 63.75 117.77 66.36 119.56 69.35 C 119.82 71.58 122.31 70.78 123.87 71.12 C 124.27 73.74 124.79 76.35 125.21 78.97 C 122.66 77.99 121.72 75.69 121.73 73.11 C 121.06 73.07 119.73 73.01 119.06 72.98 C 118.62 83.75 120.02 94.75 117.40 105.34 C 115.69 113.34 110.79 119.95 106.93 126.98 C 101.63 135.51 98.78 145.26 96.04 154.84 C 99.64 156.23 103.91 156.72 107.49 155.11 C 109.86 154.29 112.23 153.40 114.39 152.12 C 115.06 152.07 116.38 151.96 117.05 151.91 C 117.38 152.18 118.04 152.72 118.37 152.99 C 116.81 154.08 115.25 155.18 113.56 156.06 C 110.44 154.99 107.36 157.52 104.24 157.87 C 99.89 156.78 94.72 157.85 91.01 154.85 C 91.11 152.66 95.17 147.84 91.18 148.03 C 91.54 146.73 91.82 145.42 92.05 144.10 C 92.71 144.72 93.36 145.33 94.01 145.96 C 98.75 135.84 103.67 125.82 109.03 116.01 C 115.24 104.35 114.41 90.81 114.86 78.02 C 115.77 66.29 113.27 54.58 114.96 42.88 Z" />
</g>
<g id="#e8c8a2ff">
<path fill="#e8c8a2" opacity="1.00" d=" M 59.80 41.34 C 60.37 40.90 61.51 40.02 62.08 39.58 C 62.90 40.62 62.58 41.79 62.10 42.88 C 59.99 44.38 59.09 46.86 57.91 49.04 C 56.56 49.01 55.20 48.95 53.85 48.86 C 54.31 47.57 55.12 46.47 55.86 45.34 C 56.04 45.04 56.40 44.45 56.58 44.16 L 57.04 43.33 C 57.96 42.66 58.90 42.03 59.80 41.34 Z" />
</g>
<g id="#b58d60ff">
<path fill="#b58d60" opacity="1.00" d=" M 57.91 49.04 C 59.09 46.86 59.99 44.38 62.10 42.88 C 61.45 45.09 60.73 47.29 59.76 49.38 C 59.30 49.30 58.37 49.13 57.91 49.04 Z" />
</g>
<g id="#e6cd3fff">
<path fill="#e6cd3f" opacity="1.00" d=" M 107.81 48.55 C 110.00 46.42 112.47 44.63 114.96 42.88 C 113.27 54.58 115.77 66.29 114.86 78.02 C 114.41 90.81 115.24 104.35 109.03 116.01 C 103.67 125.82 98.75 135.84 94.01 145.96 C 93.36 145.33 92.71 144.72 92.05 144.10 C 90.63 144.24 89.24 144.55 87.84 144.80 C 90.34 142.24 92.65 139.42 94.09 136.11 C 98.41 125.90 105.56 117.00 108.17 106.06 C 109.86 100.07 111.37 93.26 109.15 87.28 C 112.14 86.68 113.13 83.53 112.07 80.92 C 111.76 70.37 111.63 59.63 109.67 49.27 C 109.21 49.09 108.28 48.73 107.81 48.55 Z" />
</g>
<g id="#e2907aff">
<path fill="#e2907a" opacity="1.00" d=" M 85.89 56.06 C 90.29 53.04 95.13 50.56 100.32 49.19 C 97.15 53.40 90.87 54.67 85.89 56.06 Z" />
</g>
<g id="#ecd443ff">
<path fill="#ecd443" opacity="1.00" d=" M 101.04 55.04 C 103.12 52.59 104.28 49.31 107.81 48.55 C 108.28 48.73 109.21 49.09 109.67 49.27 C 111.63 59.63 111.76 70.37 112.07 80.92 C 110.09 82.02 108.16 83.19 106.14 84.23 C 105.35 76.26 108.09 64.41 99.77 59.48 C 98.79 59.53 97.81 59.61 96.84 59.74 C 98.30 58.23 99.67 56.64 101.04 55.04 Z" />
</g>
<g id="#f2f0efff">
<path fill="#f2f0ef" opacity="1.00" d=" M 90.68 57.24 C 94.42 55.50 97.93 53.25 101.82 51.83 C 101.57 52.91 101.31 53.98 101.04 55.04 C 99.67 56.64 98.30 58.23 96.84 59.74 C 96.38 60.07 95.45 60.72 94.99 61.04 C 90.65 61.78 86.23 61.72 82.13 59.99 C 83.98 57.37 87.84 57.92 90.68 57.24 Z" />
</g>
<g id="#a3845ff6">
<path fill="#a3845f" opacity="0.96" d=" M 137.32 53.93 C 137.72 56.18 138.08 58.45 138.39 60.72 C 138.26 61.61 137.98 63.37 137.84 64.25 C 134.23 61.88 136.84 57.32 137.32 53.93 Z" />
</g>
<g id="#f6e44bff">
<path fill="#f6e44b" opacity="1.00" d=" M 96.84 59.74 C 97.81 59.61 98.79 59.53 99.77 59.48 C 108.09 64.41 105.35 76.26 106.14 84.23 C 106.09 84.66 105.97 85.53 105.92 85.96 C 103.37 90.16 104.42 95.26 103.87 99.92 C 103.19 99.90 101.83 99.87 101.16 99.85 C 98.27 99.39 95.14 98.64 92.93 100.96 C 96.80 91.10 97.55 78.15 90.32 69.67 C 86.36 64.63 78.89 66.08 74.77 61.23 C 76.57 61.04 78.37 60.80 80.16 60.48 C 80.56 60.55 81.36 60.67 81.76 60.73 C 85.72 62.81 91.47 64.78 94.99 61.04 C 95.45 60.72 96.38 60.07 96.84 59.74 Z" />
</g>
<g id="#efdedbff">
<path fill="#efdedb" opacity="1.00" d=" M 64.54 60.81 C 66.11 59.91 67.83 59.91 69.40 60.82 C 68.33 61.56 67.16 62.06 65.88 62.30 C 65.54 61.92 64.87 61.18 64.54 60.81 Z" />
</g>
<g id="#edc945ff">
<path fill="#edc945" opacity="1.00" d=" M 71.88 60.86 C 74.14 58.88 77.40 60.38 80.16 60.48 C 78.37 60.80 76.57 61.04 74.77 61.23 C 74.04 61.14 72.60 60.95 71.88 60.86 Z" />
</g>
<g id="#998e4dff">
<path fill="#998e4d" opacity="1.00" d=" M 82.13 59.99 C 86.23 61.72 90.65 61.78 94.99 61.04 C 91.47 64.78 85.72 62.81 81.76 60.73 L 82.13 59.99 Z" />
</g>
<g id="#fdf451ff">
<path fill="#fdf451" opacity="1.00" d=" M 63.86 61.02 L 64.54 60.81 C 64.87 61.18 65.54 61.92 65.88 62.30 C 67.76 64.25 70.30 62.23 71.88 60.86 C 72.60 60.95 74.04 61.14 74.77 61.23 C 78.89 66.08 86.36 64.63 90.32 69.67 C 97.55 78.15 96.80 91.10 92.93 100.96 C 91.60 103.68 92.20 106.86 92.13 109.79 C 93.41 117.27 88.76 123.53 86.04 130.02 C 83.80 135.41 79.52 139.45 75.27 143.27 C 72.29 146.11 71.21 152.55 75.40 154.56 C 77.53 155.21 79.46 158.56 75.82 158.37 C 71.97 156.67 68.26 154.61 64.70 152.35 C 66.03 147.41 66.19 142.15 68.40 137.45 C 70.90 135.20 73.98 133.22 74.81 129.75 C 76.30 130.70 77.73 132.73 79.73 131.80 C 81.83 129.86 84.49 127.36 83.89 124.21 C 82.84 123.13 81.57 122.27 80.12 121.84 C 80.93 115.46 83.92 109.51 83.94 103.00 C 83.99 94.71 85.44 85.55 80.82 78.12 C 75.55 77.95 70.21 78.33 65.07 76.95 L 65.18 76.16 C 65.82 73.05 66.45 69.80 65.39 66.72 C 64.98 64.79 64.45 62.90 63.86 61.02 Z" />
</g>
<g id="#c6af2ef3">
<path fill="#c6af2e" opacity="0.95" d=" M 121.37 60.85 C 122.05 64.31 123.24 67.65 123.87 71.12 C 122.31 70.78 119.82 71.58 119.56 69.35 C 117.77 66.36 120.98 63.75 121.37 60.85 Z" />
</g>
<g id="#20191069">
<path fill="#201910" opacity="0.41" d=" M 138.39 60.72 C 139.84 66.77 138.98 73.15 138.24 79.24 C 137.94 74.25 137.98 69.24 137.84 64.25 C 137.98 63.37 138.26 61.61 138.39 60.72 Z" />
</g>
<g id="#a0a03bca">
<path fill="#a0a03b" opacity="0.79" d=" M 65.39 66.72 C 66.45 69.80 65.82 73.05 65.18 76.16 C 65.14 73.01 65.28 69.86 65.39 66.72 Z" />
</g>
<g id="#39322579">
<path fill="#393225" opacity="0.47" d=" M 132.23 82.23 C 131.88 78.73 132.12 75.22 132.84 71.77 C 133.09 75.27 132.85 78.77 132.23 82.23 Z" />
</g>
<g id="#d9bb36ff">
<path fill="#d9bb36" opacity="1.00" d=" M 119.06 72.98 C 119.73 73.01 121.06 73.07 121.73 73.11 C 121.72 75.69 122.66 77.99 125.21 78.97 C 122.48 84.72 126.26 90.80 128.57 95.99 C 126.97 101.96 131.71 107.25 130.89 113.22 C 128.09 106.57 127.31 98.83 123.31 92.84 C 121.65 101.48 120.38 110.63 114.80 117.79 C 107.77 128.55 100.23 140.38 101.09 153.80 C 103.20 154.33 105.36 154.65 107.49 155.11 C 103.91 156.72 99.64 156.23 96.04 154.84 C 98.78 145.26 101.63 135.51 106.93 126.98 C 110.79 119.95 115.69 113.34 117.40 105.34 C 120.02 94.75 118.62 83.75 119.06 72.98 Z" />
</g>
<g id="#fefd5aff">
<path fill="#fefd5a" opacity="1.00" d=" M 65.07 76.95 C 70.21 78.33 75.55 77.95 80.82 78.12 C 85.44 85.55 83.99 94.71 83.94 103.00 C 83.92 109.51 80.93 115.46 80.12 121.84 C 76.73 123.29 74.03 125.73 74.81 129.75 C 73.98 133.22 70.90 135.20 68.40 137.45 C 66.19 142.15 66.03 147.41 64.70 152.35 C 57.99 148.96 53.98 142.25 51.83 135.24 C 50.55 132.24 49.94 129.03 49.66 125.78 C 49.87 123.23 50.08 120.69 50.32 118.15 C 50.60 114.35 51.18 110.60 52.41 106.99 C 53.01 104.99 53.58 102.97 54.36 101.03 C 54.81 100.30 55.26 99.58 55.70 98.85 C 55.57 100.62 56.27 101.27 57.79 100.78 C 59.57 97.87 61.52 95.04 63.04 91.98 C 62.37 90.79 61.33 89.88 60.43 88.87 L 60.09 88.27 C 62.53 84.87 63.47 80.75 65.07 76.95 M 56.91 134.99 C 58.01 137.21 58.40 141.33 61.01 142.04 C 60.77 139.52 60.02 134.92 56.91 134.99 Z" />
</g>
<g id="#e7c936f9">
<path fill="#e7c936" opacity="0.98" d=" M 125.21 78.97 C 127.69 83.80 128.11 89.34 130.14 94.35 C 130.97 98.07 131.30 102.01 132.96 105.50 C 133.06 107.91 133.18 110.32 133.31 112.73 C 133.13 116.55 132.95 120.38 133.14 124.20 C 132.50 124.87 131.83 125.49 131.11 126.08 C 131.18 125.36 131.30 123.94 131.36 123.23 C 132.13 119.86 132.31 116.39 130.89 113.22 C 131.71 107.25 126.97 101.96 128.57 95.99 C 126.26 90.80 122.48 84.72 125.21 78.97 Z" />
</g>
<g id="#b6b421ff">
<path fill="#b6b421" opacity="1.00" d=" M 106.14 84.23 C 108.16 83.19 110.09 82.02 112.07 80.92 C 113.13 83.53 112.14 86.68 109.15 87.28 C 108.06 86.86 106.98 86.42 105.92 85.96 C 105.97 85.53 106.09 84.66 106.14 84.23 Z" />
</g>
<g id="#abed8dfc">
<path fill="#abed8d" opacity="1.00" d=" M 4.12 88.22 C 13.43 82.24 24.72 85.13 35.01 85.00 C 43.36 85.59 52.22 84.94 60.09 88.27 L 60.43 88.87 C 60.17 89.14 59.67 89.67 59.41 89.94 C 55.76 89.30 51.91 89.31 48.52 87.67 C 38.85 87.10 29.25 88.46 19.79 90.24 C 17.67 89.80 16.27 89.91 18.22 91.86 C 13.99 95.53 14.19 101.41 12.37 106.32 C 11.05 110.73 8.14 115.02 9.16 119.86 C 10.37 122.98 12.04 125.92 12.97 129.14 C 7.53 125.36 3.54 119.03 4.14 112.23 C 5.28 107.14 5.21 101.87 4.20 96.78 C 3.96 93.94 4.00 91.05 4.12 88.22 Z" />
</g>
<g id="#ecd844ff">
<path fill="#ecd844" opacity="1.00" d=" M 105.92 85.96 C 106.98 86.42 108.06 86.86 109.15 87.28 C 111.37 93.26 109.86 100.07 108.17 106.06 C 105.56 117.00 98.41 125.90 94.09 136.11 C 92.65 139.42 90.34 142.24 87.84 144.80 C 87.01 145.47 84.74 145.49 85.17 146.98 C 86.10 149.68 83.88 152.06 84.25 154.64 C 88.30 157.96 93.51 157.47 98.28 158.81 C 91.12 160.12 83.23 158.24 78.17 152.83 C 80.78 145.55 87.84 141.01 90.97 134.00 C 94.01 126.85 97.65 119.98 100.92 112.94 C 100.74 112.38 100.40 111.26 100.22 110.69 C 100.67 107.09 102.93 103.41 101.16 99.85 C 101.83 99.87 103.19 99.90 103.87 99.92 C 104.42 95.26 103.37 90.16 105.92 85.96 Z" />
</g>
<g id="#a5e383ff">
<path fill="#a5e383" opacity="1.00" d=" M 19.79 90.24 C 29.25 88.46 38.85 87.10 48.52 87.67 C 51.91 89.31 55.76 89.30 59.41 89.94 C 58.42 92.34 57.55 94.78 56.44 97.13 C 56.10 96.03 55.54 95.06 54.75 94.23 C 45.88 92.30 36.67 92.56 27.80 94.30 C 25.10 93.00 22.42 91.67 19.79 90.24 Z" />
</g>
<g id="#faff38ff">
<path fill="#faff38" opacity="1.00" d=" M 60.43 88.87 C 61.33 89.88 62.37 90.79 63.04 91.98 C 61.52 95.04 59.57 97.87 57.79 100.78 C 56.27 101.27 55.57 100.62 55.70 98.85 C 55.89 98.42 56.25 97.56 56.44 97.13 C 57.55 94.78 58.42 92.34 59.41 89.94 C 59.67 89.67 60.17 89.14 60.43 88.87 Z" />
</g>
<g id="#689349ff">
<path fill="#689349" opacity="1.00" d=" M 18.22 91.86 C 16.27 89.91 17.67 89.80 19.79 90.24 C 22.42 91.67 25.10 93.00 27.80 94.30 C 29.83 95.54 31.82 96.86 33.92 98.00 C 36.91 101.42 40.26 104.53 43.12 108.08 C 45.14 111.30 49.32 113.26 50.10 117.15 C 49.19 116.70 48.28 116.26 47.36 115.85 C 44.67 113.18 42.00 110.50 39.30 107.84 C 36.64 105.17 34.14 102.29 31.09 100.03 C 27.11 96.88 23.03 93.63 18.22 91.86 Z" />
</g>
<g id="#a1de81ff">
<path fill="#a1de81" opacity="1.00" d=" M 18.22 91.86 C 23.03 93.63 27.11 96.88 31.09 100.03 C 26.28 104.92 25.51 112.15 21.91 117.82 C 19.34 121.95 20.71 128.11 16.89 131.48 C 15.53 130.79 14.16 130.10 12.97 129.14 C 12.04 125.92 10.37 122.98 9.16 119.86 C 8.14 115.02 11.05 110.73 12.37 106.32 C 14.19 101.41 13.99 95.53 18.22 91.86 Z" />
</g>
<g id="#a1da7bff">
<path fill="#a1da7b" opacity="1.00" d=" M 27.80 94.30 C 36.67 92.56 45.88 92.30 54.75 94.23 C 55.54 95.06 56.10 96.03 56.44 97.13 C 56.25 97.56 55.89 98.42 55.70 98.85 C 55.26 99.58 54.81 100.30 54.36 101.03 C 50.21 97.10 44.08 100.31 39.23 100.48 C 37.43 99.72 35.74 98.70 33.92 98.00 C 31.82 96.86 29.83 95.54 27.80 94.30 Z" />
</g>
<g id="#d4b332ff">
<path fill="#d4b332" opacity="1.00" d=" M 123.31 92.84 C 127.31 98.83 128.09 106.57 130.89 113.22 C 132.31 116.39 132.13 119.86 131.36 123.23 C 130.45 116.65 128.77 110.03 125.88 104.06 C 125.49 104.08 124.72 104.13 124.34 104.16 C 119.63 121.33 101.75 133.80 103.97 153.02 C 105.26 152.84 107.83 152.48 109.12 152.29 C 110.20 151.58 111.24 150.79 112.27 150.00 C 112.98 150.69 113.69 151.40 114.39 152.12 C 112.23 153.40 109.86 154.29 107.49 155.11 C 105.36 154.65 103.20 154.33 101.09 153.80 C 100.23 140.38 107.77 128.55 114.80 117.79 C 120.38 110.63 121.65 101.48 123.31 92.84 Z" />
</g>
<g id="#75a561d0">
<path fill="#75a561" opacity="0.82" d=" M 4.20 96.78 C 5.21 101.87 5.28 107.14 4.14 112.23 C 3.95 107.08 4.10 101.92 4.20 96.78 Z" />
</g>
<g id="#9ed173ff">
<path fill="#9ed173" opacity="1.00" d=" M 33.92 98.00 C 35.74 98.70 37.43 99.72 39.23 100.48 C 44.08 100.31 50.21 97.10 54.36 101.03 C 53.58 102.97 53.01 104.99 52.41 106.99 C 49.51 105.29 46.32 108.57 43.12 108.08 C 40.26 104.53 36.91 101.42 33.92 98.00 Z" />
</g>
<g id="#bbc125ff">
<path fill="#bbc125" opacity="1.00" d=" M 92.93 100.96 C 95.14 98.64 98.27 99.39 101.16 99.85 C 102.93 103.41 100.67 107.09 100.22 110.69 C 97.66 112.84 92.47 114.76 92.13 109.79 C 92.20 106.86 91.60 103.68 92.93 100.96 Z" />
</g>
<g id="#9bd076ff">
<path fill="#9bd076" opacity="1.00" d=" M 31.09 100.03 C 34.14 102.29 36.64 105.17 39.30 107.84 C 39.17 109.13 38.93 110.40 38.56 111.65 C 34.31 117.69 29.81 124.03 28.53 131.49 C 26.60 132.41 24.65 133.26 22.74 134.22 C 20.71 133.49 18.81 132.46 16.89 131.48 C 20.71 128.11 19.34 121.95 21.91 117.82 C 25.51 112.15 26.28 104.92 31.09 100.03 Z" />
</g>
<g id="#cfab2eff">
<path fill="#cfab2e" opacity="1.00" d=" M 124.34 104.16 C 124.72 104.13 125.49 104.08 125.88 104.06 C 128.77 110.03 130.45 116.65 131.36 123.23 C 131.30 123.94 131.18 125.36 131.11 126.08 C 130.84 126.28 130.29 126.69 130.01 126.90 C 129.30 122.22 129.46 117.13 126.84 113.02 C 126.44 113.06 125.63 113.12 125.23 113.15 C 120.63 119.27 116.64 125.85 111.85 131.83 C 108.36 136.89 107.92 143.19 107.04 149.09 C 106.77 150.81 106.89 152.56 109.12 152.29 C 107.83 152.48 105.26 152.84 103.97 153.02 C 101.75 133.80 119.63 121.33 124.34 104.16 Z" />
</g>
<g id="#9cc465ff">
<path fill="#9cc465" opacity="1.00" d=" M 43.12 108.08 C 46.32 108.57 49.51 105.29 52.41 106.99 C 51.18 110.60 50.60 114.35 50.32 118.15 L 50.10 117.15 C 49.32 113.26 45.14 111.30 43.12 108.08 Z" />
</g>
<g id="#b0ee8bfb">
<path fill="#b0ee8b" opacity="1.00" d=" M 162.04 106.16 C 166.02 105.66 170.18 105.67 174.02 107.04 C 187.60 110.81 201.04 115.15 214.13 120.38 C 209.25 122.70 206.20 117.81 201.69 117.47 C 187.98 117.10 174.34 113.13 160.55 114.88 C 152.11 115.79 144.69 119.93 137.06 123.27 C 136.72 122.92 136.05 122.22 135.71 121.87 C 143.18 114.67 152.67 110.35 162.04 106.16 Z" />
</g>
<g id="#93be66fe">
<path fill="#93be66" opacity="1.00" d=" M 39.30 107.84 C 42.00 110.50 44.67 113.18 47.36 115.85 C 42.43 119.65 39.53 125.54 38.55 131.63 C 37.28 133.24 35.52 134.43 34.51 136.25 C 30.56 135.75 26.54 135.51 22.74 134.22 C 24.65 133.26 26.60 132.41 28.53 131.49 C 29.81 124.03 34.31 117.69 38.56 111.65 C 38.93 110.40 39.17 109.13 39.30 107.84 Z" />
</g>
<g id="#f1e148fd">
<path fill="#f1e148" opacity="1.00" d=" M 92.13 109.79 C 92.47 114.76 97.66 112.84 100.22 110.69 C 100.40 111.26 100.74 112.38 100.92 112.94 C 97.65 119.98 94.01 126.85 90.97 134.00 C 87.84 141.01 80.78 145.55 78.17 152.83 C 83.23 158.24 91.12 160.12 98.28 158.81 C 100.32 158.99 102.30 158.43 104.24 157.87 C 107.36 157.52 110.44 154.99 113.56 156.06 C 109.30 159.07 104.00 159.55 99.15 161.04 C 96.49 161.06 93.83 161.11 91.18 161.18 C 86.05 160.46 80.71 160.22 75.82 158.37 C 79.46 158.56 77.53 155.21 75.40 154.56 C 71.21 152.55 72.29 146.11 75.27 143.27 C 79.52 139.45 83.80 135.41 86.04 130.02 C 88.76 123.53 93.41 117.27 92.13 109.79 Z" />
</g>
<g id="#c9a22aff">
<path fill="#c9a22a" opacity="1.00" d=" M 125.23 113.15 C 125.63 113.12 126.44 113.06 126.84 113.02 C 129.46 117.13 129.30 122.22 130.01 126.90 C 129.56 127.20 128.65 127.80 128.20 128.11 C 127.41 125.59 128.35 119.76 124.21 121.15 C 119.82 126.23 115.61 131.61 112.62 137.66 C 111.63 138.83 112.33 140.18 112.83 141.39 C 111.78 142.94 110.85 144.57 109.76 146.09 C 108.80 147.04 107.91 148.06 107.04 149.09 C 107.92 143.19 108.36 136.89 111.85 131.83 C 116.64 125.85 120.63 119.27 125.23 113.15 Z" />
</g>
<g id="#1b190555">
<path fill="#1b1905" opacity="0.33" d=" M 133.31 112.73 C 134.36 116.10 134.07 119.66 134.21 123.14 C 133.94 123.41 133.41 123.94 133.14 124.20 C 132.95 120.38 133.13 116.55 133.31 112.73 Z" />
</g>
<g id="#a3e487fe">
<path fill="#a3e487" opacity="1.00" d=" M 160.55 114.88 C 174.34 113.13 187.98 117.10 201.69 117.47 C 206.20 117.81 209.25 122.70 214.13 120.38 C 216.07 121.06 218.00 121.77 220.00 122.28 L 220.00 125.97 C 209.36 124.27 199.63 129.02 189.33 130.44 C 183.33 132.19 177.55 134.55 171.69 136.69 C 170.41 137.03 169.68 138.12 168.92 139.10 C 168.43 139.04 167.43 138.91 166.94 138.84 C 172.07 132.99 177.98 127.88 183.19 122.09 C 184.41 122.05 185.64 122.01 186.86 121.97 C 190.31 121.96 193.79 122.11 197.24 121.83 C 194.75 119.53 191.28 120.07 188.14 120.00 C 180.15 120.01 172.15 119.86 164.17 120.13 C 164.27 118.85 164.45 117.58 164.55 116.31 C 163.21 115.83 161.86 115.42 160.55 114.88 Z" />
</g>
<g id="#aae47dff">
<path fill="#aae47d" opacity="1.00" d=" M 137.06 123.27 C 144.69 119.93 152.11 115.79 160.55 114.88 C 161.86 115.42 163.21 115.83 164.55 116.31 C 164.45 117.58 164.27 118.85 164.17 120.13 C 156.51 121.24 149.18 123.89 141.86 126.32 C 139.98 127.00 138.11 127.71 136.18 128.25 C 136.45 126.58 136.79 124.93 137.06 123.27 Z" />
</g>
<g id="#8caa52fe">
<path fill="#8caa52" opacity="1.00" d=" M 47.36 115.85 C 48.28 116.26 49.19 116.70 50.10 117.15 L 50.32 118.15 C 50.08 120.69 49.87 123.23 49.66 125.78 C 48.78 127.64 48.16 129.60 47.48 131.53 C 45.46 132.81 43.38 134.04 41.75 135.84 C 39.35 135.97 36.92 136.82 34.51 136.25 C 35.52 134.43 37.28 133.24 38.55 131.63 C 39.53 125.54 42.43 119.65 47.36 115.85 Z" />
</g>
<g id="#6e9e50ff">
<path fill="#6e9e50" opacity="1.00" d=" M 164.17 120.13 C 172.15 119.86 180.15 120.01 188.14 120.00 C 187.82 120.50 187.18 121.48 186.86 121.97 C 185.64 122.01 184.41 122.05 183.19 122.09 C 169.97 121.19 156.49 121.94 144.17 127.22 C 143.59 126.99 142.44 126.54 141.86 126.32 C 149.18 123.89 156.51 121.24 164.17 120.13 Z" />
</g>
<g id="#88c16cff">
<path fill="#88c16c" opacity="1.00" d=" M 188.14 120.00 C 191.28 120.07 194.75 119.53 197.24 121.83 C 193.79 122.11 190.31 121.96 186.86 121.97 C 187.18 121.48 187.82 120.50 188.14 120.00 Z" />
</g>
<g id="#c29726ff">
<path fill="#c29726" opacity="1.00" d=" M 124.21 121.15 C 128.35 119.76 127.41 125.59 128.20 128.11 C 126.93 129.64 125.87 131.33 124.90 133.06 C 120.35 135.02 116.26 137.81 112.83 141.39 C 112.33 140.18 111.63 138.83 112.62 137.66 C 115.61 131.61 119.82 126.23 124.21 121.15 Z" />
</g>
<g id="#c6cf2aff">
<path fill="#c6cf2a" opacity="1.00" d=" M 80.12 121.84 C 81.57 122.27 82.84 123.13 83.89 124.21 C 84.49 127.36 81.83 129.86 79.73 131.80 C 77.73 132.73 76.30 130.70 74.81 129.75 C 74.03 125.73 76.73 123.29 80.12 121.84 Z" />
</g>
<g id="#bfe669fd">
<path fill="#bfe669" opacity="1.00" d=" M 134.21 123.14 C 134.59 122.82 135.33 122.19 135.71 121.87 C 136.05 122.22 136.72 122.92 137.06 123.27 C 136.79 124.93 136.45 126.58 136.18 128.25 C 135.62 128.48 134.51 128.95 133.95 129.18 C 130.82 130.25 128.30 132.77 124.90 133.06 C 125.87 131.33 126.93 129.64 128.20 128.11 C 128.65 127.80 129.56 127.20 130.01 126.90 C 130.29 126.69 130.84 126.28 131.11 126.08 C 131.83 125.49 132.50 124.87 133.14 124.20 C 133.41 123.94 133.94 123.41 134.21 123.14 Z" />
</g>
<g id="#a0dd80fe">
<path fill="#a0dd80" opacity="1.00" d=" M 144.17 127.22 C 156.49 121.94 169.97 121.19 183.19 122.09 C 177.98 127.88 172.07 132.99 166.94 138.84 C 167.43 138.91 168.43 139.04 168.92 139.10 C 165.26 140.69 162.12 143.48 158.10 144.20 C 156.53 144.42 155.84 146.05 155.08 147.23 C 149.31 150.65 142.45 151.50 136.08 153.19 C 132.99 151.74 130.61 152.00 128.93 153.99 C 125.40 153.75 121.89 153.32 118.37 152.99 C 118.04 152.72 117.38 152.18 117.05 151.91 C 116.36 150.54 113.43 148.77 116.67 147.70 C 122.53 141.10 129.63 135.80 136.36 130.32 C 138.83 128.98 141.50 128.08 144.17 127.22 Z" />
</g>
<g id="#7b913ffb">
<path fill="#7b913f" opacity="1.00" d=" M 47.48 131.53 C 48.16 129.60 48.78 127.64 49.66 125.78 C 49.94 129.03 50.55 132.24 51.83 135.24 C 48.60 136.43 45.11 135.86 41.75 135.84 C 43.38 134.04 45.46 132.81 47.48 131.53 Z" />
</g>
<g id="#88b55aff">
<path fill="#88b55a" opacity="1.00" d=" M 136.18 128.25 C 138.11 127.71 139.98 127.00 141.86 126.32 C 142.44 126.54 143.59 126.99 144.17 127.22 C 141.50 128.08 138.83 128.98 136.36 130.32 C 135.01 130.75 133.54 131.23 133.95 129.18 C 134.51 128.95 135.62 128.48 136.18 128.25 Z" />
</g>
<g id="#92cc79fc">
<path fill="#92cc79" opacity="1.00" d=" M 189.33 130.44 C 199.63 129.02 209.36 124.27 220.00 125.97 L 220.00 128.83 C 206.55 130.54 193.13 132.86 180.25 137.20 C 176.42 137.47 172.66 138.32 168.92 139.10 C 169.68 138.12 170.41 137.03 171.69 136.69 C 177.55 134.55 183.33 132.19 189.33 130.44 Z" />
</g>
<g id="#a9d76bff">
<path fill="#a9d76b" opacity="1.00" d=" M 124.90 133.06 C 128.30 132.77 130.82 130.25 133.95 129.18 C 133.54 131.23 135.01 130.75 136.36 130.32 C 129.63 135.80 122.53 141.10 116.67 147.70 C 113.43 148.77 116.36 150.54 117.05 151.91 C 116.38 151.96 115.06 152.07 114.39 152.12 C 113.69 151.40 112.98 150.69 112.27 150.00 C 111.31 148.78 110.35 147.54 109.76 146.09 C 110.85 144.57 111.78 142.94 112.83 141.39 C 116.26 137.81 120.35 135.02 124.90 133.06 Z" />
</g>
<g id="#dfe932ff">
<path fill="#dfe932" opacity="1.00" d=" M 56.91 134.99 C 60.02 134.92 60.77 139.52 61.01 142.04 C 58.40 141.33 58.01 137.21 56.91 134.99 Z" />
</g>
<g id="#7caa60f3">
<path fill="#7caa60" opacity="0.95" d=" M 168.92 139.10 C 172.66 138.32 176.42 137.47 180.25 137.20 C 171.74 140.23 163.50 143.96 155.08 147.23 C 155.84 146.05 156.53 144.42 158.10 144.20 C 162.12 143.48 165.26 140.69 168.92 139.10 Z" />
</g>
<g id="#b1b222ff">
<path fill="#b1b222" opacity="1.00" d=" M 87.84 144.80 C 89.24 144.55 90.63 144.24 92.05 144.10 C 91.82 145.42 91.54 146.73 91.18 148.03 C 89.01 149.46 86.81 148.87 85.17 146.98 C 84.74 145.49 87.01 145.47 87.84 144.80 Z" />
</g>
<g id="#9c8c18ff">
<path fill="#9c8c18" opacity="1.00" d=" M 107.04 149.09 C 107.91 148.06 108.80 147.04 109.76 146.09 C 110.35 147.54 111.31 148.78 112.27 150.00 C 111.24 150.79 110.20 151.58 109.12 152.29 C 106.89 152.56 106.77 150.81 107.04 149.09 Z" />
</g>
<g id="#e2ce3fff">
<path fill="#e2ce3f" opacity="1.00" d=" M 85.17 146.98 C 86.81 148.87 89.01 149.46 91.18 148.03 C 95.17 147.84 91.11 152.66 91.01 154.85 C 94.72 157.85 99.89 156.78 104.24 157.87 C 102.30 158.43 100.32 158.99 98.28 158.81 C 93.51 157.47 88.30 157.96 84.25 154.64 C 83.88 152.06 86.10 149.68 85.17 146.98 Z" />
</g>
<g id="#30422497">
<path fill="#304224" opacity="0.59" d=" M 128.93 153.99 C 130.61 152.00 132.99 151.74 136.08 153.19 C 134.13 154.81 131.75 155.08 128.93 153.99 Z" />
</g>
<g id="#b79c71f5">
<path fill="#b79c71" opacity="0.96" d=" M 91.18 161.18 C 93.83 161.11 96.49 161.06 99.15 161.04 C 91.65 167.88 83.16 173.63 74.02 178.04 C 67.09 181.35 60.07 185.18 52.14 185.09 C 52.10 184.33 52.03 182.82 52.00 182.06 C 57.75 182.29 62.85 179.13 67.98 176.95 C 75.85 171.91 84.43 167.80 91.18 161.18 Z" />
</g>
<g id="#f1ea52fa">
<path fill="#f1ea52" opacity="0.98" d=" M 19.93 177.11 C 26.04 176.94 32.18 176.85 38.11 175.19 C 42.83 174.31 50.96 175.60 51.07 181.78 C 48.52 183.27 46.23 185.17 43.68 186.65 C 40.12 188.00 36.11 187.46 32.68 189.19 C 27.41 186.36 23.23 182.04 19.93 177.11 Z" />
</g>
<g id="#d7c53cf7">
<path fill="#d7c53c" opacity="0.97" d=" M 43.68 186.65 C 46.23 185.17 48.52 183.27 51.07 181.78 L 52.00 182.06 C 52.03 182.82 52.10 184.33 52.14 185.09 C 49.14 192.70 38.87 193.93 32.68 189.19 C 36.11 187.46 40.12 188.00 43.68 186.65 Z" />
</g>
</svg>
