<?xml version="1.0" encoding="UTF-8" ?>
<!DOCTYPE svg PUBLIC "-//W3C//DTD SVG 1.1//EN" "http://www.w3.org/Graphics/SVG/1.1/DTD/svg11.dtd">
<svg width="127pt" height="154pt" viewBox="0 0 127 154" version="1.1" xmlns="http://www.w3.org/2000/svg">
<g id="#a5d9eefb">
<path fill="#a5d9ee" opacity="1.00" d=" M 46.24 9.19 C 51.87 2.51 62.32 3.35 70.05 5.21 C 65.81 6.91 70.70 8.40 71.29 10.97 C 71.03 11.52 70.50 12.62 70.24 13.17 C 67.66 9.98 65.22 5.16 59.98 6.96 C 54.43 6.52 50.17 10.82 46.10 14.01 C 45.77 13.65 45.10 12.95 44.77 12.60 C 45.25 11.46 45.76 10.33 46.24 9.19 Z" />
</g>
<g id="#88bdd6f9">
<path fill="#88bdd6" opacity="0.98" d=" M 70.05 5.21 C 72.34 6.44 75.58 6.49 77.07 8.81 C 75.68 9.08 74.04 8.83 72.87 9.77 C 72.47 10.07 71.69 10.67 71.29 10.97 C 70.70 8.40 65.81 6.91 70.05 5.21 Z" />
</g>
<g id="#aee8fcff">
<path fill="#aee8fc" opacity="1.00" d=" M 46.10 14.01 C 50.17 10.82 54.43 6.52 59.98 6.96 C 65.22 5.16 67.66 9.98 70.24 13.17 C 70.15 16.05 70.05 18.93 70.16 21.81 C 69.70 29.08 69.38 36.60 66.41 43.37 C 64.51 47.75 58.91 48.89 56.57 52.95 C 56.49 51.92 53.61 49.68 54.29 51.80 C 56.38 56.38 51.39 59.60 49.23 63.10 C 48.51 61.77 47.95 60.35 47.22 59.02 C 46.86 58.43 46.13 57.24 45.76 56.65 C 46.11 54.71 46.56 52.78 46.91 50.84 C 46.15 51.58 45.43 52.36 44.75 53.17 C 38.36 44.01 39.22 32.14 42.74 22.04 C 43.80 19.34 44.93 16.66 46.10 14.01 M 42.98 31.99 C 40.68 35.27 44.00 39.39 47.09 37.65 C 46.44 38.92 45.56 40.31 46.34 41.75 C 42.76 43.40 47.35 50.06 47.23 44.81 C 48.43 46.87 51.47 48.10 53.00 45.66 C 53.31 46.22 53.93 47.36 54.24 47.92 C 56.70 46.66 58.24 43.66 58.02 40.90 C 55.16 40.82 56.99 46.56 54.61 44.00 C 55.02 42.67 55.20 41.31 55.16 39.92 C 56.37 38.08 58.30 37.40 60.95 37.86 C 63.16 33.53 65.55 28.93 66.02 24.02 L 66.96 23.97 C 66.24 21.62 69.26 14.77 65.92 15.06 C 65.53 12.37 64.09 9.80 61.01 9.97 C 49.14 8.45 42.49 21.92 42.98 31.99 Z" />
</g>
<g id="#bb4f73f5">
<path fill="#bb4f73" opacity="0.96" d=" M 34.33 28.71 C 34.01 21.31 37.72 10.04 46.24 9.19 C 45.76 10.33 45.25 11.46 44.77 12.60 C 43.25 14.84 41.87 17.19 41.00 19.77 C 38.71 25.58 36.74 31.71 36.95 38.02 C 34.68 36.44 36.23 31.00 34.33 28.71 Z" />
</g>
<g id="#9285a6f7">
<path fill="#9285a6" opacity="0.97" d=" M 72.87 9.77 C 74.04 8.83 75.68 9.08 77.07 8.81 C 78.62 8.60 79.46 9.73 80.06 10.96 C 77.71 10.32 75.30 9.93 72.87 9.77 Z" />
</g>
<g id="#c9fcfeff">
<path fill="#c9fcfe" opacity="1.00" d=" M 42.98 31.99 C 42.49 21.92 49.14 8.45 61.01 9.97 C 64.09 9.80 65.53 12.37 65.92 15.06 C 65.97 18.04 66.01 21.03 66.02 24.02 C 65.55 28.93 63.16 33.53 60.95 37.86 C 58.30 37.40 56.37 38.08 55.16 39.92 C 54.47 38.34 54.23 36.14 52.29 35.63 C 50.19 33.91 48.24 35.94 47.09 37.65 C 44.00 39.39 40.68 35.27 42.98 31.99 M 48.27 32.27 C 49.22 33.38 52.10 33.62 53.70 33.76 C 53.67 31.35 49.89 31.53 48.27 32.27 Z" />
</g>
<g id="#b54c73fe">
<path fill="#b54c73" opacity="1.00" d=" M 71.29 10.97 C 71.69 10.67 72.47 10.07 72.87 9.77 C 75.30 9.93 77.71 10.32 80.06 10.96 C 82.98 13.06 86.62 16.06 87.05 19.98 C 84.27 25.18 82.22 31.82 76.12 33.95 C 74.76 32.88 74.58 27.93 72.58 30.06 C 71.49 27.41 70.91 24.57 70.16 21.81 C 70.05 18.93 70.15 16.05 70.24 13.17 C 70.50 12.62 71.03 11.52 71.29 10.97 M 73.17 12.08 C 69.13 16.47 71.77 22.93 73.19 27.91 C 77.48 30.02 80.66 25.53 81.02 22.02 C 82.31 17.26 78.20 11.46 73.17 12.08 Z" />
</g>
<g id="#d8557fff">
<path fill="#d8557f" opacity="1.00" d=" M 73.17 12.08 C 78.20 11.46 82.31 17.26 81.02 22.02 C 80.66 25.53 77.48 30.02 73.19 27.91 C 71.77 22.93 69.13 16.47 73.17 12.08 Z" />
</g>
<g id="#91bcd8ff">
<path fill="#91bcd8" opacity="1.00" d=" M 41.00 19.77 C 41.87 17.19 43.25 14.84 44.77 12.60 C 45.10 12.95 45.77 13.65 46.10 14.01 C 44.93 16.66 43.80 19.34 42.74 22.04 C 42.16 21.28 41.58 20.52 41.00 19.77 Z" />
</g>
<g id="#98d5eaff">
<path fill="#98d5ea" opacity="1.00" d=" M 65.92 15.06 C 69.26 14.77 66.24 21.62 66.96 23.97 L 66.02 24.02 C 66.01 21.03 65.97 18.04 65.92 15.06 Z" />
</g>
<g id="#97cce6fc">
<path fill="#97cce6" opacity="1.00" d=" M 41.00 19.77 C 41.58 20.52 42.16 21.28 42.74 22.04 C 39.22 32.14 38.36 44.01 44.75 53.17 C 44.22 54.17 43.67 55.16 43.07 56.12 C 41.79 56.08 40.52 56.05 39.24 56.02 C 36.19 50.80 37.41 43.91 36.95 38.02 C 36.74 31.71 38.71 25.58 41.00 19.77 Z" />
</g>
<g id="#984267fe">
<path fill="#984267" opacity="1.00" d=" M 87.05 19.98 C 89.00 19.67 87.66 22.91 88.11 24.06 C 88.08 28.94 84.16 32.71 80.66 35.70 C 79.14 37.06 77.36 36.07 75.67 35.71 C 75.23 35.15 74.79 34.58 74.36 34.02 C 73.76 32.70 73.13 31.40 72.58 30.06 C 74.58 27.93 74.76 32.88 76.12 33.95 C 82.22 31.82 84.27 25.18 87.05 19.98 Z" />
</g>
<g id="#9bd3f0ff">
<path fill="#9bd3f0" opacity="1.00" d=" M 70.16 21.81 C 70.91 24.57 71.49 27.41 72.58 30.06 C 73.13 31.40 73.76 32.70 74.36 34.02 C 73.51 35.02 72.44 35.67 71.10 35.53 C 71.29 36.55 71.58 37.54 71.82 38.55 C 69.74 46.29 64.93 53.12 57.92 57.06 C 57.41 55.99 56.93 54.90 56.49 53.80 L 56.57 52.95 C 58.91 48.89 64.51 47.75 66.41 43.37 C 69.38 36.60 69.70 29.08 70.16 21.81 Z" />
</g>
<g id="#783b5df9">
<path fill="#783b5d" opacity="0.98" d=" M 88.11 24.06 L 89.05 23.97 C 89.41 29.03 88.54 34.02 87.91 39.01 L 87.14 38.98 C 86.94 38.73 86.55 38.23 86.35 37.98 C 86.64 36.65 86.89 35.30 87.05 33.94 C 83.98 35.34 81.62 39.04 77.95 38.30 L 77.27 38.10 C 76.87 37.50 76.07 36.31 75.67 35.71 C 77.36 36.07 79.14 37.06 80.66 35.70 C 84.16 32.71 88.08 28.94 88.11 24.06 Z" />
</g>
<g id="#9ddef0ff">
<path fill="#9ddef0" opacity="1.00" d=" M 48.27 32.27 C 49.89 31.53 53.67 31.35 53.70 33.76 C 52.10 33.62 49.22 33.38 48.27 32.27 Z" />
</g>
<g id="#7cb1cfff">
<path fill="#7cb1cf" opacity="1.00" d=" M 74.36 34.02 C 74.79 34.58 75.23 35.15 75.67 35.71 C 76.07 36.31 76.87 37.50 77.27 38.10 C 76.24 40.34 74.41 38.91 72.66 38.68 L 71.82 38.55 C 71.58 37.54 71.29 36.55 71.10 35.53 C 72.44 35.67 73.51 35.02 74.36 34.02 Z" />
</g>
<g id="#642f50ff">
<path fill="#642f50" opacity="1.00" d=" M 77.95 38.30 C 81.62 39.04 83.98 35.34 87.05 33.94 C 86.89 35.30 86.64 36.65 86.35 37.98 C 84.95 40.27 82.73 41.71 80.12 40.36 C 79.39 39.68 78.67 38.99 77.95 38.30 Z" />
</g>
<g id="#e35a84ff">
<path fill="#e35a84" opacity="1.00" d=" M 47.09 37.65 C 48.24 35.94 50.19 33.91 52.29 35.63 C 54.22 39.02 53.80 44.60 49.12 45.07 C 47.93 42.77 47.85 40.11 47.09 37.65 Z" />
</g>
<g id="#af557aff">
<path fill="#af557a" opacity="1.00" d=" M 52.29 35.63 C 54.23 36.14 54.47 38.34 55.16 39.92 C 55.20 41.31 55.02 42.67 54.61 44.00 C 54.06 44.55 53.53 45.10 53.00 45.66 C 51.47 48.10 48.43 46.87 47.23 44.81 C 46.95 43.78 46.66 42.76 46.34 41.75 C 45.56 40.31 46.44 38.92 47.09 37.65 C 47.85 40.11 47.93 42.77 49.12 45.07 C 53.80 44.60 54.22 39.02 52.29 35.63 Z" />
</g>
<g id="#6596b5ff">
<path fill="#6596b5" opacity="1.00" d=" M 72.66 38.68 C 74.41 38.91 76.24 40.34 77.27 38.10 L 77.95 38.30 C 78.67 38.99 79.39 39.68 80.12 40.36 C 79.70 42.81 78.00 43.03 75.96 42.09 C 75.53 41.81 74.67 41.25 74.24 40.97 C 73.99 40.63 73.49 39.94 73.24 39.59 L 72.66 38.68 Z" />
</g>
<g id="#5587acfa">
<path fill="#5587ac" opacity="0.98" d=" M 86.35 37.98 C 86.55 38.23 86.94 38.73 87.14 38.98 C 84.41 44.14 84.70 50.97 80.86 55.35 C 80.65 53.87 80.83 52.26 79.89 50.99 C 76.22 52.54 75.63 59.08 70.86 57.94 C 73.93 54.78 76.42 51.04 77.94 46.90 C 78.48 45.27 77.39 43.95 76.44 42.77 L 75.96 42.09 C 78.00 43.03 79.70 42.81 80.12 40.36 C 82.73 41.71 84.95 40.27 86.35 37.98 Z" />
</g>
<g id="#8dc6e7ff">
<path fill="#8dc6e7" opacity="1.00" d=" M 57.92 57.06 C 64.93 53.12 69.74 46.29 71.82 38.55 L 72.66 38.68 L 73.24 39.59 C 71.64 46.86 66.92 52.72 61.94 58.01 C 60.70 57.63 58.41 58.66 57.92 57.06 Z" />
</g>
<g id="#82badcff">
<path fill="#82badc" opacity="1.00" d=" M 73.24 39.59 C 73.49 39.94 73.99 40.63 74.24 40.97 C 73.60 47.53 69.23 52.83 65.67 58.07 C 64.42 58.04 63.18 58.01 61.94 58.01 C 66.92 52.72 71.64 46.86 73.24 39.59 Z" />
</g>
<g id="#91c6dbff">
<path fill="#91c6db" opacity="1.00" d=" M 54.61 44.00 C 56.99 46.56 55.16 40.82 58.02 40.90 C 58.24 43.66 56.70 46.66 54.24 47.92 C 53.93 47.36 53.31 46.22 53.00 45.66 C 53.53 45.10 54.06 44.55 54.61 44.00 Z" />
</g>
<g id="#77acceff">
<path fill="#77acce" opacity="1.00" d=" M 74.24 40.97 C 74.67 41.25 75.53 41.81 75.96 42.09 L 76.44 42.77 C 75.59 48.60 71.60 53.03 68.76 57.96 C 67.98 57.99 66.44 58.04 65.67 58.07 C 69.23 52.83 73.60 47.53 74.24 40.97 Z" />
</g>
<g id="#98c7dfff">
<path fill="#98c7df" opacity="1.00" d=" M 46.34 41.75 C 46.66 42.76 46.95 43.78 47.23 44.81 C 47.35 50.06 42.76 43.40 46.34 41.75 Z" />
</g>
<g id="#699cbcff">
<path fill="#699cbc" opacity="1.00" d=" M 76.44 42.77 C 77.39 43.95 78.48 45.27 77.94 46.90 C 76.42 51.04 73.93 54.78 70.86 57.94 C 70.33 57.94 69.28 57.95 68.76 57.96 C 71.60 53.03 75.59 48.60 76.44 42.77 Z" />
</g>
<g id="#6b94a7ff">
<path fill="#6b94a7" opacity="1.00" d=" M 44.75 53.17 C 45.43 52.36 46.15 51.58 46.91 50.84 C 46.56 52.78 46.11 54.71 45.76 56.65 C 44.26 57.54 43.06 58.80 41.80 59.98 C 42.07 58.64 42.46 57.33 43.07 56.12 C 43.67 55.16 44.22 54.17 44.75 53.17 Z" />
</g>
<g id="#95cee8fd">
<path fill="#95cee8" opacity="1.00" d=" M 54.29 51.80 C 53.61 49.68 56.49 51.92 56.57 52.95 L 56.49 53.80 C 56.21 55.43 56.47 57.08 56.67 58.71 C 53.08 61.38 58.34 63.39 60.87 63.72 C 63.04 64.31 65.15 63.55 67.14 62.71 C 69.28 65.24 65.67 65.81 64.04 67.03 C 59.28 69.00 55.26 72.22 50.99 75.03 C 48.24 73.86 47.13 70.57 45.01 68.58 C 44.17 67.62 43.29 66.70 42.36 65.82 C 41.63 64.62 40.20 65.61 39.16 65.64 C 38.27 64.63 37.62 63.37 36.37 62.72 C 36.04 62.48 35.37 62.00 35.04 61.76 C 34.70 59.73 36.88 58.58 38.32 57.67 C 39.43 59.35 40.19 61.22 41.23 62.94 C 43.76 63.32 46.39 61.31 47.22 59.02 C 47.95 60.35 48.51 61.77 49.23 63.10 C 51.39 59.60 56.38 56.38 54.29 51.80 Z" />
</g>
<g id="#497594fd">
<path fill="#497594" opacity="1.00" d=" M 70.86 57.94 C 75.63 59.08 76.22 52.54 79.89 50.99 C 80.83 52.26 80.65 53.87 80.86 55.35 C 80.88 55.73 80.93 56.50 80.95 56.89 C 79.59 57.89 78.23 58.88 76.83 59.83 C 76.34 59.90 75.34 60.02 74.84 60.08 C 72.99 59.79 71.10 59.10 69.24 59.73 C 68.97 59.62 68.41 59.40 68.14 59.28 C 67.52 58.98 66.28 58.37 65.67 58.07 C 66.44 58.04 67.98 57.99 68.76 57.96 C 69.28 57.95 70.33 57.94 70.86 57.94 Z" />
</g>
<g id="#4d6a79ff">
<path fill="#4d6a79" opacity="1.00" d=" M 56.67 58.71 C 56.47 57.08 56.21 55.43 56.49 53.80 C 56.93 54.90 57.41 55.99 57.92 57.06 C 58.41 58.66 60.70 57.63 61.94 58.01 C 61.83 59.32 62.34 61.18 60.47 61.29 C 60.43 59.03 58.41 58.97 56.67 58.71 Z" />
</g>
<g id="#9cb5bffe">
<path fill="#9cb5bf" opacity="1.00" d=" M 39.24 56.02 C 40.52 56.05 41.79 56.08 43.07 56.12 C 42.46 57.33 42.07 58.64 41.80 59.98 C 43.06 58.80 44.26 57.54 45.76 56.65 C 46.13 57.24 46.86 58.43 47.22 59.02 C 46.39 61.31 43.76 63.32 41.23 62.94 C 40.19 61.22 39.43 59.35 38.32 57.67 C 38.55 57.26 39.01 56.43 39.24 56.02 Z" />
</g>
<g id="#76a3befb">
<path fill="#76a3be" opacity="1.00" d=" M 76.83 59.83 C 78.23 58.88 79.59 57.89 80.95 56.89 C 82.66 57.64 85.49 57.33 86.31 59.20 C 84.03 62.56 79.98 59.80 76.83 59.83 Z" />
</g>
<g id="#77848bff">
<path fill="#77848b" opacity="1.00" d=" M 61.94 58.01 C 63.18 58.01 64.42 58.04 65.67 58.07 C 66.28 58.37 67.52 58.98 68.14 59.28 C 66.27 61.58 63.42 62.45 60.87 63.72 C 58.34 63.39 53.08 61.38 56.67 58.71 C 57.25 60.74 58.12 63.16 60.47 61.29 C 62.34 61.18 61.83 59.32 61.94 58.01 Z" />
</g>
<g id="#abababff">
<path fill="#ababab" opacity="1.00" d=" M 56.67 58.71 C 58.41 58.97 60.43 59.03 60.47 61.29 C 58.12 63.16 57.25 60.74 56.67 58.71 Z" />
</g>
<g id="#50636dff">
<path fill="#50636d" opacity="1.00" d=" M 68.14 59.28 C 68.41 59.40 68.97 59.62 69.24 59.73 C 68.54 60.73 67.83 61.71 67.14 62.71 C 65.15 63.55 63.04 64.31 60.87 63.72 C 63.42 62.45 66.27 61.58 68.14 59.28 Z" />
</g>
<g id="#76acccfe">
<path fill="#76accc" opacity="1.00" d=" M 69.24 59.73 C 71.10 59.10 72.99 59.79 74.84 60.08 C 75.48 61.96 76.13 63.85 76.93 65.67 C 74.96 65.74 75.02 67.53 74.77 69.03 C 73.80 68.82 72.92 68.39 72.14 67.75 C 70.68 66.60 68.72 67.08 67.01 66.98 C 66.27 66.99 64.78 67.02 64.04 67.03 C 65.67 65.81 69.28 65.24 67.14 62.71 C 67.83 61.71 68.54 60.73 69.24 59.73 Z" />
</g>
<g id="#88b9d8fb">
<path fill="#88b9d8" opacity="1.00" d=" M 86.31 59.20 C 89.37 60.11 92.19 63.58 91.86 66.79 C 90.07 68.57 87.75 70.42 85.06 69.99 C 82.30 68.63 80.19 65.96 76.93 65.67 C 76.13 63.85 75.48 61.96 74.84 60.08 C 75.34 60.02 76.34 59.90 76.83 59.83 C 79.98 59.80 84.03 62.56 86.31 59.20 Z" />
</g>
<g id="#90bdc8e7">
<path fill="#90bdc8" opacity="0.91" d=" M 33.00 66.11 C 32.77 64.30 33.03 62.36 35.04 61.76 C 35.37 62.00 36.04 62.48 36.37 62.72 C 35.66 64.17 34.36 65.29 33.00 66.11 Z" />
</g>
<g id="#948f87ee">
<path fill="#948f87" opacity="0.93" d=" M 42.36 65.82 C 43.29 66.70 44.17 67.62 45.01 68.58 C 40.58 77.84 36.35 87.81 29.12 95.09 C 29.32 93.69 29.55 92.29 29.55 90.87 C 33.76 82.67 39.91 74.99 42.36 65.82 Z" />
</g>
<g id="#777676ed">
<path fill="#777676" opacity="0.93" d=" M 67.01 66.98 C 68.72 67.08 70.68 66.60 72.14 67.75 C 67.98 67.69 72.33 72.65 70.88 75.18 C 70.09 73.96 69.18 72.81 67.94 72.02 C 66.28 70.97 67.19 68.60 67.01 66.98 Z" />
</g>
<g id="#cec1b0fb">
<path fill="#cec1b0" opacity="1.00" d=" M 67.94 72.02 C 69.18 72.81 70.09 73.96 70.88 75.18 C 73.11 83.30 74.58 91.73 75.00 100.15 C 74.52 102.54 74.68 104.82 75.50 106.99 C 76.63 110.05 75.97 113.55 75.74 116.75 C 75.04 121.38 75.11 126.08 74.75 130.75 C 73.03 136.76 72.14 143.20 68.07 148.24 C 68.07 145.73 68.69 143.27 68.88 140.78 C 66.65 143.63 66.63 147.57 64.33 150.37 L 63.21 150.08 C 61.03 136.13 71.48 124.80 72.30 111.26 C 73.12 107.46 73.23 103.50 72.40 99.69 C 71.53 90.37 69.11 81.28 67.94 72.02 Z" />
</g>
<g id="#c4b7a8f8">
<path fill="#c4b7a8" opacity="0.97" d=" M 29.55 90.87 C 29.55 92.29 29.32 93.69 29.12 95.09 C 26.43 100.85 21.87 105.75 19.82 111.90 C 15.46 121.02 15.90 131.47 12.96 141.00 C 11.02 141.13 8.78 141.29 7.76 139.27 C 4.42 133.20 7.39 126.29 9.16 120.13 C 14.46 109.51 21.64 99.70 29.55 90.87 Z" />
</g>
<g id="#978d81e1">
<path fill="#978d81" opacity="0.88" d=" M 72.40 99.69 C 73.23 103.50 73.12 107.46 72.30 111.26 C 72.08 107.42 71.63 103.51 72.40 99.69 Z" />
</g>
<g id="#505050b7">
<path fill="#505050" opacity="0.72" d=" M 75.00 100.15 C 77.15 101.04 76.36 105.15 75.50 106.99 C 74.68 104.82 74.52 102.54 75.00 100.15 Z" />
</g>
<g id="#797976e5">
<path fill="#797976" opacity="0.90" d=" M 74.75 130.75 C 75.11 126.08 75.04 121.38 75.74 116.75 C 75.95 121.84 76.20 126.96 75.93 132.06 L 74.86 131.81 L 74.75 130.75 Z" />
</g>
<g id="#9a958cfb">
<path fill="#9a958c" opacity="1.00" d=" M 68.07 148.24 C 72.14 143.20 73.03 136.76 74.75 130.75 L 74.86 131.81 C 75.15 138.60 72.86 146.09 67.78 150.81 C 66.94 150.71 63.15 151.85 64.33 150.37 C 66.63 147.57 66.65 143.63 68.88 140.78 C 68.69 143.27 68.07 145.73 68.07 148.24 Z" />
</g>
</svg>
