<?xml version="1.0" encoding="UTF-8" ?>
<!DOCTYPE svg PUBLIC "-//W3C//DTD SVG 1.1//EN" "http://www.w3.org/Graphics/SVG/1.1/DTD/svg11.dtd">
<svg width="136pt" height="201pt" viewBox="0 0 136 201" version="1.1" xmlns="http://www.w3.org/2000/svg">
<g id="#2b2b2b66">
<path fill="#2b2b2b" opacity="0.40" d=" M 60.80 27.91 C 64.28 27.08 67.92 26.91 71.39 27.92 C 67.86 27.76 64.33 27.84 60.80 27.91 Z" />
</g>
<g id="#e2f6f6f9">
<path fill="#e2f6f6" opacity="0.98" d=" M 56.62 29.68 C 57.82 28.72 59.19 27.80 60.80 27.91 C 64.33 27.84 67.86 27.76 71.39 27.92 C 71.97 28.02 73.13 28.23 73.70 28.34 C 73.27 28.45 72.41 28.66 71.98 28.77 C 66.91 29.62 61.74 29.48 56.62 29.68 Z" />
</g>
<g id="#92c5e1ff">
<path fill="#92c5e1" opacity="1.00" d=" M 73.70 28.34 C 77.19 28.27 80.53 29.76 83.40 31.64 C 80.38 31.66 77.29 31.48 74.36 32.32 C 71.87 33.31 70.34 35.68 68.52 37.53 C 67.29 35.32 66.12 33.07 64.99 30.81 C 67.33 30.14 69.65 29.44 71.98 28.77 C 72.41 28.66 73.27 28.45 73.70 28.34 Z" />
</g>
<g id="#a5def8ff">
<path fill="#a5def8" opacity="1.00" d=" M 56.62 29.68 C 61.74 29.48 66.91 29.62 71.98 28.77 C 69.65 29.44 67.33 30.14 64.99 30.81 C 66.12 33.07 67.29 35.32 68.52 37.53 C 67.70 42.81 67.83 48.31 70.29 53.17 C 69.24 53.51 68.18 53.85 67.13 54.18 C 66.09 51.07 65.04 47.95 64.11 44.80 C 63.54 42.28 63.01 39.76 62.47 37.23 C 60.01 37.25 57.30 36.71 55.11 38.13 C 52.44 39.74 50.15 41.87 47.92 44.02 C 47.89 43.15 47.83 41.41 47.80 40.54 C 48.07 40.15 48.62 39.37 48.89 38.98 C 50.70 36.47 52.59 34.03 54.32 31.45 C 54.60 31.03 55.17 30.17 55.46 29.74 C 55.75 29.73 56.33 29.70 56.62 29.68 Z" />
</g>
<g id="#e4728ff5">
<path fill="#e4728f" opacity="0.96" d=" M 32.03 38.01 C 37.91 31.63 46.99 29.11 55.46 29.74 C 55.17 30.17 54.60 31.03 54.32 31.45 C 45.54 30.09 37.22 35.32 31.89 41.90 C 28.96 45.20 27.50 49.41 25.88 53.43 C 25.68 53.88 25.30 54.78 25.11 55.23 C 25.03 54.64 24.86 53.48 24.78 52.90 C 25.07 47.20 28.30 42.13 32.03 38.01 Z" />
</g>
<g id="#c24d75ff">
<path fill="#c24d75" opacity="1.00" d=" M 31.89 41.90 C 37.22 35.32 45.54 30.09 54.32 31.45 C 52.59 34.03 50.70 36.47 48.89 38.98 C 44.70 35.08 39.04 38.37 35.81 41.81 C 32.25 45.33 31.30 50.45 31.07 55.25 C 34.74 53.31 38.16 50.94 41.30 48.22 C 40.13 49.73 39.05 51.30 37.96 52.86 C 36.46 54.37 34.89 55.82 33.30 57.23 C 31.95 57.68 30.57 58.08 29.21 58.49 C 28.12 56.79 27.01 55.10 25.88 53.43 C 27.50 49.41 28.96 45.20 31.89 41.90 Z" />
</g>
<g id="#ba4971ff">
<path fill="#ba4971" opacity="1.00" d=" M 74.36 32.32 C 77.29 31.48 80.38 31.66 83.40 31.64 C 87.93 32.55 92.50 33.93 96.25 36.73 C 100.24 39.55 103.02 43.65 105.47 47.80 C 101.14 55.93 93.93 62.36 85.12 65.22 C 83.29 64.59 81.42 64.08 79.57 63.53 C 76.15 61.19 73.47 57.96 71.11 54.60 C 70.90 54.24 70.49 53.53 70.29 53.17 C 67.83 48.31 67.70 42.81 68.52 37.53 C 70.34 35.68 71.87 33.31 74.36 32.32 M 79.41 35.44 C 75.60 36.79 70.39 38.33 69.95 43.08 C 69.92 47.60 71.11 51.96 73.60 55.74 C 75.86 57.70 77.83 60.73 81.10 60.85 C 84.32 60.72 87.42 59.59 90.31 58.25 C 95.35 55.95 98.56 49.27 95.83 44.13 C 92.79 38.35 85.94 34.46 79.41 35.44 Z" />
</g>
<g id="#ce517aff">
<path fill="#ce517a" opacity="1.00" d=" M 79.41 35.44 C 85.94 34.46 92.79 38.35 95.83 44.13 C 98.56 49.27 95.35 55.95 90.31 58.25 C 87.42 59.59 84.32 60.72 81.10 60.85 C 77.83 60.73 75.86 57.70 73.60 55.74 C 78.86 57.23 84.97 55.76 88.66 51.66 C 92.07 46.92 88.10 40.14 82.77 39.19 C 78.06 37.87 73.83 40.87 69.95 43.08 C 70.39 38.33 75.60 36.79 79.41 35.44 Z" />
</g>
<g id="#e45984ff">
<path fill="#e45984" opacity="1.00" d=" M 35.81 41.81 C 39.04 38.37 44.70 35.08 48.89 38.98 C 48.62 39.37 48.07 40.15 47.80 40.54 C 45.80 43.24 43.57 45.76 41.30 48.22 C 38.16 50.94 34.74 53.31 31.07 55.25 C 31.30 50.45 32.25 45.33 35.81 41.81 Z" />
</g>
<g id="#c4feffff">
<path fill="#c4feff" opacity="1.00" d=" M 55.11 38.13 C 57.30 36.71 60.01 37.25 62.47 37.23 C 63.01 39.76 63.54 42.28 64.11 44.80 C 64.76 48.30 65.50 51.78 66.36 55.23 C 63.15 56.92 59.81 58.38 56.74 60.35 C 55.83 59.02 54.93 57.69 53.98 56.39 C 50.15 54.79 46.34 56.73 43.61 59.43 C 42.95 57.22 42.03 55.11 41.12 52.99 C 43.20 49.87 45.35 46.78 47.92 44.02 C 50.15 41.87 52.44 39.74 55.11 38.13 Z" />
</g>
<g id="#ea5b87ff">
<path fill="#ea5b87" opacity="1.00" d=" M 69.95 43.08 C 73.83 40.87 78.06 37.87 82.77 39.19 C 88.10 40.14 92.07 46.92 88.66 51.66 C 84.97 55.76 78.86 57.23 73.60 55.74 C 71.11 51.96 69.92 47.60 69.95 43.08 Z" />
</g>
<g id="#82b4cdff">
<path fill="#82b4cd" opacity="1.00" d=" M 41.30 48.22 C 43.57 45.76 45.80 43.24 47.80 40.54 C 47.83 41.41 47.89 43.15 47.92 44.02 C 45.35 46.78 43.20 49.87 41.12 52.99 C 42.03 55.11 42.95 57.22 43.61 59.43 C 43.55 59.96 43.43 61.02 43.37 61.55 L 43.00 60.80 C 42.37 59.45 41.63 58.14 40.83 56.88 C 40.40 56.23 39.96 55.58 39.52 54.93 C 37.36 57.01 35.15 59.05 33.11 61.26 C 34.80 58.50 36.28 55.62 37.96 52.86 C 39.05 51.30 40.13 49.73 41.30 48.22 Z" />
</g>
<g id="#5a87a7ff">
<path fill="#5a87a7" opacity="1.00" d=" M 64.11 44.80 C 65.04 47.95 66.09 51.07 67.13 54.18 C 68.18 53.85 69.24 53.51 70.29 53.17 C 70.49 53.53 70.90 54.24 71.11 54.60 C 69.99 55.48 68.87 56.37 67.75 57.25 C 63.43 57.27 59.71 59.65 56.17 61.86 C 56.31 61.48 56.60 60.73 56.74 60.35 C 59.81 58.38 63.15 56.92 66.36 55.23 C 65.50 51.78 64.76 48.30 64.11 44.80 Z" />
<path fill="#5a87a7" opacity="1.00" d=" M 63.76 84.83 C 68.65 83.02 73.87 83.90 78.75 85.23 C 85.89 88.67 93.97 89.69 101.72 87.94 C 111.64 87.11 121.83 91.52 131.42 87.39 C 130.11 89.10 128.72 90.88 126.76 91.89 C 119.76 92.25 112.91 90.29 105.97 89.79 C 102.64 89.88 99.36 90.57 96.02 90.50 C 94.75 90.49 93.49 90.45 92.22 90.35 C 85.88 89.79 79.94 87.38 73.80 85.88 C 71.12 85.31 68.40 84.95 65.67 84.80 C 65.19 84.81 64.24 84.82 63.76 84.83 Z" />
</g>
<g id="#9b3f63ff">
<path fill="#9b3f63" opacity="1.00" d=" M 105.47 47.80 C 106.12 49.57 106.78 51.34 107.42 53.11 C 103.70 58.82 98.23 63.27 91.99 65.95 C 89.73 67.13 87.33 65.85 85.12 65.22 C 93.93 62.36 101.14 55.93 105.47 47.80 Z" />
</g>
<g id="#a84467ff">
<path fill="#a84467" opacity="1.00" d=" M 24.95 63.67 C 24.15 60.15 23.66 56.41 24.78 52.90 C 24.86 53.48 25.03 54.64 25.11 55.23 C 25.30 54.78 25.68 53.88 25.88 53.43 C 27.01 55.10 28.12 56.79 29.21 58.49 C 30.57 58.08 31.95 57.68 33.30 57.23 C 30.77 59.68 28.10 62.04 24.95 63.67 Z" />
</g>
<g id="#95c8e4ff">
<path fill="#95c8e4" opacity="1.00" d=" M 33.30 57.23 C 34.89 55.82 36.46 54.37 37.96 52.86 C 36.28 55.62 34.80 58.50 33.11 61.26 C 28.27 68.89 20.41 73.64 14.47 80.26 C 19.91 80.89 25.52 79.97 30.85 81.50 C 28.82 81.47 26.80 81.68 24.78 81.72 C 23.70 81.57 22.77 81.88 21.99 82.65 C 21.43 82.70 20.32 82.81 19.77 82.87 C 17.68 82.86 15.59 82.90 13.51 82.92 C 11.39 82.28 9.30 81.50 7.06 81.46 C 9.58 80.81 12.03 79.73 13.84 77.81 C 18.06 73.56 23.05 69.60 24.95 63.67 C 28.10 62.04 30.77 59.68 33.30 57.23 Z" />
</g>
<g id="#803658ff">
<path fill="#803658" opacity="1.00" d=" M 107.42 53.11 C 107.80 55.04 108.24 56.95 108.72 58.85 C 108.53 59.10 108.14 59.60 107.95 59.85 C 102.41 64.07 96.67 68.49 89.45 69.09 C 86.01 67.52 82.62 65.79 79.57 63.53 C 81.42 64.08 83.29 64.59 85.12 65.22 C 87.33 65.85 89.73 67.13 91.99 65.95 C 98.23 63.27 103.70 58.82 107.42 53.11 Z" />
<path fill="#803658" opacity="1.00" d=" M 54.14 63.18 C 54.77 60.96 54.20 58.63 53.98 56.39 C 54.93 57.69 55.83 59.02 56.74 60.35 C 56.60 60.73 56.31 61.48 56.17 61.86 C 55.53 65.62 52.62 68.19 48.94 68.84 C 48.52 68.99 47.70 69.28 47.28 69.42 C 44.28 67.46 43.01 64.30 43.00 60.80 L 43.37 61.55 C 44.12 63.12 44.85 64.75 46.01 66.07 C 48.87 67.78 52.81 66.07 54.14 63.18 Z" />
</g>
<g id="#ade4fcff">
<path fill="#ade4fc" opacity="1.00" d=" M 39.52 54.93 C 39.96 55.58 40.40 56.23 40.83 56.88 C 35.93 63.04 31.54 69.58 27.07 76.05 C 30.66 79.88 36.33 82.56 37.28 88.19 C 35.35 86.53 33.72 84.57 31.99 82.71 C 31.70 82.41 31.13 81.80 30.85 81.50 C 25.52 79.97 19.91 80.89 14.47 80.26 C 20.41 73.64 28.27 68.89 33.11 61.26 C 35.15 59.05 37.36 57.01 39.52 54.93 Z" />
</g>
<g id="#abe3fcff">
<path fill="#abe3fc" opacity="1.00" d=" M 67.75 57.25 C 68.87 56.37 69.99 55.48 71.11 54.60 C 73.47 57.96 76.15 61.19 79.57 63.53 C 82.62 65.79 86.01 67.52 89.45 69.09 C 89.49 70.51 89.52 71.92 89.56 73.34 C 90.10 73.47 91.18 73.72 91.73 73.85 C 93.37 74.32 95.00 74.85 96.63 75.38 C 101.32 78.88 106.63 81.37 111.73 84.21 C 111.77 84.77 111.87 85.89 111.92 86.45 C 108.51 86.86 105.11 87.38 101.72 87.94 C 93.97 89.69 85.89 88.67 78.75 85.23 C 84.59 86.04 90.84 87.70 96.41 84.82 C 94.16 82.32 91.65 80.08 88.99 78.02 C 83.93 74.13 80.10 68.83 74.63 65.46 C 71.43 63.61 69.07 60.70 67.75 57.25 Z" />
</g>
<g id="#ef5d8aff">
<path fill="#ef5d8a" opacity="1.00" d=" M 43.61 59.43 C 46.34 56.73 50.15 54.79 53.98 56.39 C 54.20 58.63 54.77 60.96 54.14 63.18 C 52.81 66.07 48.87 67.78 46.01 66.07 C 44.85 64.75 44.12 63.12 43.37 61.55 C 43.43 61.02 43.55 59.96 43.61 59.43 Z" />
</g>
<g id="#caffffff">
<path fill="#caffff" opacity="1.00" d=" M 27.07 76.05 C 31.54 69.58 35.93 63.04 40.83 56.88 C 41.63 58.14 42.37 59.45 43.00 60.80 C 43.01 64.30 44.28 67.46 47.28 69.42 C 46.13 72.62 45.48 75.97 44.97 79.32 C 46.57 75.94 47.79 72.40 48.94 68.84 C 52.62 68.19 55.53 65.62 56.17 61.86 C 59.71 59.65 63.43 57.27 67.75 57.25 C 69.07 60.70 71.43 63.61 74.63 65.46 C 80.10 68.83 83.93 74.13 88.99 78.02 C 91.65 80.08 94.16 82.32 96.41 84.82 C 90.84 87.70 84.59 86.04 78.75 85.23 C 73.87 83.90 68.65 83.02 63.76 84.83 L 63.03 85.02 C 55.90 85.94 49.66 89.84 42.61 91.03 C 42.88 87.95 43.32 84.89 43.74 81.83 C 42.75 84.88 41.71 87.92 40.29 90.81 C 39.27 89.95 38.28 89.07 37.28 88.19 C 36.33 82.56 30.66 79.88 27.07 76.05 Z" />
</g>
<g id="#7ca9c7ff">
<path fill="#7ca9c7" opacity="1.00" d=" M 107.95 59.85 C 108.14 59.60 108.53 59.10 108.72 58.85 C 109.78 61.37 111.26 63.67 112.80 65.92 C 110.87 70.02 108.35 74.19 103.78 75.69 C 101.40 75.57 99.01 75.51 96.63 75.38 C 95.00 74.85 93.37 74.32 91.73 73.85 C 94.34 73.54 96.93 73.05 99.52 72.60 C 99.43 71.80 99.34 71.00 99.25 70.20 C 101.92 69.57 104.92 69.02 106.88 66.93 C 108.07 64.79 107.65 62.20 107.95 59.85 Z" />
<path fill="#7ca9c7" opacity="1.00" d=" M 47.28 69.42 C 47.70 69.28 48.52 68.99 48.94 68.84 C 47.79 72.40 46.57 75.94 44.97 79.32 C 45.48 75.97 46.13 72.62 47.28 69.42 Z" />
</g>
<g id="#5b2b49ff">
<path fill="#5b2b49" opacity="1.00" d=" M 89.45 69.09 C 96.67 68.49 102.41 64.07 107.95 59.85 C 107.65 62.20 108.07 64.79 106.88 66.93 C 104.92 69.02 101.92 69.57 99.25 70.20 C 95.96 70.03 92.71 69.54 89.45 69.09 Z" />
</g>
<g id="#b1e0eef9">
<path fill="#b1e0ee" opacity="0.98" d=" M 18.67 69.45 C 21.11 67.84 21.91 64.25 24.95 63.67 C 23.05 69.60 18.06 73.56 13.84 77.81 C 12.03 79.73 9.58 80.81 7.06 81.46 C 6.27 80.81 5.50 80.14 4.74 79.44 C 11.20 79.49 15.10 73.99 18.67 69.45 Z" />
</g>
<g id="#88b8d6ff">
<path fill="#88b8d6" opacity="1.00" d=" M 103.78 75.69 C 108.35 74.19 110.87 70.02 112.80 65.92 C 114.06 67.51 115.50 68.99 116.46 70.78 C 117.32 72.69 118.08 74.63 118.88 76.56 C 116.66 77.49 114.46 78.73 112.01 78.85 C 109.01 78.66 106.47 76.85 103.78 75.69 Z" />
</g>
<g id="#91c2dfff">
<path fill="#91c2df" opacity="1.00" d=" M 89.45 69.09 C 92.71 69.54 95.96 70.03 99.25 70.20 C 99.34 71.00 99.43 71.80 99.52 72.60 C 96.93 73.05 94.34 73.54 91.73 73.85 C 91.18 73.72 90.10 73.47 89.56 73.34 C 89.52 71.92 89.49 70.51 89.45 69.09 Z" />
</g>
<g id="#fcffffff">
<path fill="#fcffff" opacity="1.00" d=" M 6.95 74.97 C 10.57 72.59 14.69 71.11 18.67 69.45 C 15.10 73.99 11.20 79.49 4.74 79.44 C 5.32 77.91 5.25 75.78 6.95 74.97 Z" />
</g>
<g id="#94c7e5ff">
<path fill="#94c7e5" opacity="1.00" d=" M 118.88 76.56 C 118.08 74.63 117.32 72.69 116.46 70.78 C 120.35 74.50 123.76 78.82 128.45 81.59 C 130.58 82.76 130.92 85.25 131.42 87.39 C 121.83 91.52 111.64 87.11 101.72 87.94 C 105.11 87.38 108.51 86.86 111.92 86.45 C 111.87 85.89 111.77 84.77 111.73 84.21 C 106.63 81.37 101.32 78.88 96.63 75.38 C 99.01 75.51 101.40 75.57 103.78 75.69 C 106.47 76.85 109.01 78.66 112.01 78.85 C 114.46 78.73 116.66 77.49 118.88 76.56 Z" />
</g>
<g id="#24384bac">
<path fill="#24384b" opacity="0.67" d=" M 21.99 82.65 C 22.77 81.88 23.70 81.57 24.78 81.72 C 24.33 83.38 23.40 83.69 21.99 82.65 Z" />
</g>
<g id="#62849dff">
<path fill="#62849d" opacity="1.00" d=" M 40.29 90.81 C 41.71 87.92 42.75 84.88 43.74 81.83 C 43.32 84.89 42.88 87.95 42.61 91.03 C 49.66 89.84 55.90 85.94 63.03 85.02 C 58.92 87.25 54.54 88.88 50.11 90.34 C 52.03 92.33 54.00 94.30 56.32 95.84 C 56.23 100.97 55.87 106.09 55.33 111.19 C 54.09 115.90 51.96 120.32 50.03 124.77 C 47.37 135.44 49.91 146.40 51.51 157.03 C 52.13 159.42 51.22 161.70 50.38 163.90 C 49.56 162.00 48.73 160.09 47.89 158.20 C 46.19 153.07 45.89 147.56 47.12 142.29 C 48.76 135.11 47.15 127.58 49.33 120.50 C 51.05 114.48 53.33 108.40 52.92 102.04 C 52.72 98.38 50.73 95.15 48.52 92.36 C 45.75 91.99 42.88 91.98 40.29 90.81 Z" />
</g>
<g id="#2737479e">
<path fill="#273747" opacity="0.62" d=" M 13.51 82.92 C 15.59 82.90 17.68 82.86 19.77 82.87 C 19.09 84.78 14.07 84.94 13.51 82.92 Z" />
</g>
<g id="#21232aff">
<path fill="#21232a" opacity="1.00" d=" M 31.99 82.71 C 33.72 84.57 35.35 86.53 37.28 88.19 C 38.28 89.07 39.27 89.95 40.29 90.81 C 42.88 91.98 45.75 91.99 48.52 92.36 C 47.23 94.43 45.97 96.52 44.70 98.60 C 43.36 100.67 42.22 102.87 41.40 105.20 C 41.90 102.03 42.78 98.79 42.26 95.58 C 40.73 93.51 38.33 92.35 36.23 90.96 C 36.06 91.51 35.72 92.60 35.56 93.15 C 35.37 89.36 32.88 86.31 31.99 82.71 Z" />
</g>
<g id="#1c2024ff">
<path fill="#1c2024" opacity="1.00" d=" M 63.03 85.02 L 63.76 84.83 C 64.24 84.82 65.19 84.81 65.67 84.80 C 64.94 86.35 64.27 87.93 63.65 89.53 C 62.47 88.86 61.31 88.10 60.01 87.66 C 58.39 88.20 56.89 89.02 55.37 89.79 C 61.52 92.19 70.13 92.42 73.80 85.88 C 79.94 87.38 85.88 89.79 92.22 90.35 C 91.18 92.16 90.12 93.97 89.08 95.78 C 87.95 94.93 86.83 94.07 85.71 93.20 C 84.03 94.74 82.36 96.30 80.68 97.85 C 81.79 98.52 82.90 99.19 83.98 99.93 C 84.04 100.40 84.15 101.34 84.21 101.81 C 83.45 101.06 82.69 100.31 81.93 99.56 C 81.46 99.71 80.53 100.02 80.06 100.17 C 77.42 101.03 74.73 101.73 72.03 102.37 C 71.89 99.99 71.79 97.60 71.54 95.22 L 70.82 94.72 C 69.21 95.37 67.39 95.91 66.29 97.35 C 64.91 98.81 66.20 100.84 66.36 102.51 L 65.26 102.80 C 64.47 102.97 62.89 103.31 62.10 103.48 C 61.82 111.41 62.16 119.36 61.24 127.26 C 61.30 118.90 62.44 110.45 60.92 102.17 C 60.94 99.14 58.83 97.15 56.32 95.84 C 54.00 94.30 52.03 92.33 50.11 90.34 C 54.54 88.88 58.92 87.25 63.03 85.02 Z" />
</g>
<g id="#b3b5b8ff">
<path fill="#b3b5b8" opacity="1.00" d=" M 65.67 84.80 C 68.40 84.95 71.12 85.31 73.80 85.88 C 70.13 92.42 61.52 92.19 55.37 89.79 C 56.89 89.02 58.39 88.20 60.01 87.66 C 61.31 88.10 62.47 88.86 63.65 89.53 C 64.27 87.93 64.94 86.35 65.67 84.80 Z" />
</g>
<g id="#58585bfe">
<path fill="#58585b" opacity="1.00" d=" M 92.22 90.35 C 93.49 90.45 94.75 90.49 96.02 90.50 C 96.15 93.34 96.50 96.16 97.03 98.95 C 95.41 97.99 93.80 97.03 92.18 96.08 C 92.13 96.80 92.02 98.24 91.96 98.96 C 91.07 97.84 90.09 96.79 89.08 95.78 C 90.12 93.97 91.18 92.16 92.22 90.35 Z" />
</g>
<g id="#7b7773ff">
<path fill="#7b7773" opacity="1.00" d=" M 36.23 90.96 C 38.33 92.35 40.73 93.51 42.26 95.58 C 42.78 98.79 41.90 102.03 41.40 105.20 C 40.34 109.99 38.23 114.64 38.40 119.64 C 38.17 120.89 37.93 122.14 37.70 123.40 C 35.67 129.14 37.18 135.21 36.86 141.12 C 36.51 142.51 36.96 143.44 38.21 143.91 C 38.09 144.68 37.85 146.22 37.73 146.99 C 37.40 148.26 37.80 149.27 38.92 150.02 C 40.14 156.38 42.61 162.55 42.59 169.11 C 41.90 170.33 41.05 171.44 40.22 172.57 C 40.33 163.54 36.26 155.24 35.48 146.33 C 35.02 142.19 34.82 138.02 34.48 133.87 C 32.66 141.62 31.44 150.00 34.28 157.67 C 35.98 162.31 37.55 166.99 38.65 171.81 C 38.46 173.84 37.35 175.59 36.22 177.23 C 38.18 182.04 40.81 187.28 39.64 192.58 C 37.95 194.05 35.63 194.25 33.54 194.79 L 33.73 194.37 C 34.85 191.84 36.14 189.14 35.63 186.29 C 35.00 182.29 33.38 178.54 32.37 174.63 C 29.26 162.83 29.03 150.38 31.19 138.39 C 33.08 124.43 39.00 111.12 38.67 96.86 C 37.11 101.46 36.15 106.22 35.17 110.97 C 34.02 116.50 32.09 121.81 30.81 127.31 C 29.49 119.23 34.00 111.77 33.43 103.73 C 33.83 100.16 34.71 96.64 35.56 93.15 C 35.72 92.60 36.06 91.51 36.23 90.96 Z" />
</g>
<g id="#7ca7c3ff">
<path fill="#7ca7c3" opacity="1.00" d=" M 44.70 98.60 C 45.97 96.52 47.23 94.43 48.52 92.36 C 50.73 95.15 52.72 98.38 52.92 102.04 C 53.33 108.40 51.05 114.48 49.33 120.50 C 47.15 127.58 48.76 135.11 47.12 142.29 C 45.89 147.56 46.19 153.07 47.89 158.20 C 46.45 156.48 44.87 154.88 43.39 153.20 C 42.42 145.77 44.99 138.43 43.90 130.99 C 42.70 125.13 46.84 120.22 47.40 114.58 C 47.99 109.65 48.14 104.68 48.28 99.72 C 47.52 99.94 46.77 100.16 46.01 100.39 C 45.68 99.94 45.03 99.05 44.70 98.60 Z" />
</g>
<g id="#757271fe">
<path fill="#757271" opacity="1.00" d=" M 80.68 97.85 C 82.36 96.30 84.03 94.74 85.71 93.20 C 86.83 94.07 87.95 94.93 89.08 95.78 C 89.04 96.29 88.95 97.30 88.91 97.80 C 88.35 99.31 88.67 100.96 89.80 102.12 C 89.87 103.36 89.93 104.61 90.00 105.85 C 89.43 107.15 89.69 108.25 90.79 109.14 C 91.23 113.16 91.59 117.18 91.88 121.21 C 90.14 115.39 88.78 109.46 87.20 103.60 C 86.89 101.82 85.39 100.81 83.98 99.93 C 82.90 99.19 81.79 98.52 80.68 97.85 Z" />
</g>
<g id="#867e7aff">
<path fill="#867e7a" opacity="1.00" d=" M 66.29 97.35 C 67.39 95.91 69.21 95.37 70.82 94.72 C 71.16 98.22 71.45 101.73 71.61 105.25 C 71.85 110.30 71.90 115.36 72.17 120.41 C 72.65 126.77 73.11 133.12 73.43 139.48 C 73.47 142.14 73.69 144.79 73.86 147.44 C 74.23 159.62 75.55 171.77 75.54 183.97 C 75.41 188.13 74.92 192.38 73.28 196.25 C 71.89 198.21 69.39 198.43 67.21 198.72 C 69.03 196.32 70.97 193.81 71.37 190.72 C 72.93 181.02 72.86 171.15 72.57 161.36 C 72.78 144.89 71.14 128.47 70.61 112.02 C 70.56 109.45 69.79 106.98 68.83 104.61 C 68.33 108.47 67.98 112.35 67.85 116.24 C 67.49 111.65 67.46 107.01 66.36 102.51 C 66.20 100.84 64.91 98.81 66.29 97.35 Z" />
</g>
<g id="#46647dfe">
<path fill="#46647d" opacity="1.00" d=" M 70.82 94.72 L 71.54 95.22 C 71.79 97.60 71.89 99.99 72.03 102.37 C 74.73 101.73 77.42 101.03 80.06 100.17 C 80.14 104.33 80.76 108.47 80.91 112.62 C 80.37 114.16 79.78 115.67 79.19 117.19 C 77.01 112.44 75.36 107.48 73.38 102.65 C 72.94 103.30 72.06 104.60 71.61 105.25 C 71.45 101.73 71.16 98.22 70.82 94.72 Z" />
</g>
<g id="#466479ff">
<path fill="#466479" opacity="1.00" d=" M 56.32 95.84 C 58.83 97.15 60.94 99.14 60.92 102.17 C 57.57 104.03 57.02 108.08 55.33 111.19 C 55.87 106.09 56.23 100.97 56.32 95.84 Z" />
</g>
<g id="#767170ff">
<path fill="#767170" opacity="1.00" d=" M 92.18 96.08 C 93.80 97.03 95.41 97.99 97.03 98.95 C 99.70 110.28 102.46 121.83 102.18 133.55 C 99.12 126.30 99.97 118.02 96.28 110.94 C 96.17 111.75 95.94 113.36 95.83 114.17 C 94.58 109.09 92.96 104.10 91.96 98.96 C 92.02 98.24 92.13 96.80 92.18 96.08 Z" />
</g>
<g id="#b9ac9dff">
<path fill="#b9ac9d" opacity="1.00" d=" M 35.17 110.97 C 36.15 106.22 37.11 101.46 38.67 96.86 C 39.00 111.12 33.08 124.43 31.19 138.39 C 29.03 150.38 29.26 162.83 32.37 174.63 C 33.38 178.54 35.00 182.29 35.63 186.29 C 36.14 189.14 34.85 191.84 33.73 194.37 C 29.52 192.68 27.82 188.19 26.85 184.11 C 24.81 175.62 24.64 166.74 25.20 158.06 C 26.35 149.94 26.85 141.77 26.87 133.58 C 27.34 134.26 28.27 135.62 28.73 136.30 C 29.71 133.38 30.47 130.37 30.81 127.31 C 32.09 121.81 34.02 116.50 35.17 110.97 Z" />
</g>
<g id="#19191983">
<path fill="#191919" opacity="0.51" d=" M 88.91 97.80 C 90.17 98.89 90.47 100.62 89.80 102.12 C 88.67 100.96 88.35 99.31 88.91 97.80 Z" />
</g>
<g id="#a5d9f2ff">
<path fill="#a5d9f2" opacity="1.00" d=" M 44.70 98.60 C 45.03 99.05 45.68 99.94 46.01 100.39 C 46.77 100.16 47.52 99.94 48.28 99.72 C 48.14 104.68 47.99 109.65 47.40 114.58 C 46.84 120.22 42.70 125.13 43.90 130.99 C 44.99 138.43 42.42 145.77 43.39 153.20 L 42.86 152.55 C 41.92 148.32 39.04 144.69 38.82 140.28 C 38.78 135.71 38.63 131.15 38.05 126.62 C 37.96 125.81 37.79 124.20 37.70 123.40 C 37.93 122.14 38.17 120.89 38.40 119.64 C 42.13 113.29 45.02 106.09 44.70 98.60 Z" />
</g>
<g id="#9e948aff">
<path fill="#9e948a" opacity="1.00" d=" M 83.98 99.93 C 85.39 100.81 86.89 101.82 87.20 103.60 C 88.78 109.46 90.14 115.39 91.88 121.21 C 93.41 132.07 94.00 143.00 94.24 153.95 C 95.98 150.14 97.01 146.06 97.85 141.97 C 99.47 134.08 97.98 126.03 96.85 118.18 C 96.67 117.60 96.32 116.45 96.15 115.88 C 96.07 115.45 95.91 114.60 95.83 114.17 C 95.94 113.36 96.17 111.75 96.28 110.94 C 99.97 118.02 99.12 126.30 102.18 133.55 C 103.11 146.12 100.61 158.66 97.80 170.87 C 97.07 173.84 94.94 176.14 92.97 178.35 C 91.61 178.20 90.25 178.03 88.90 177.84 C 87.32 179.57 86.02 183.12 83.15 182.25 C 81.56 181.95 80.26 180.66 80.59 178.95 C 80.36 175.48 82.29 172.40 82.91 169.09 C 81.89 165.21 81.27 160.97 83.13 157.22 C 84.26 155.76 85.47 154.38 86.67 152.98 C 87.27 154.61 87.87 156.24 88.48 157.87 C 91.98 145.43 91.04 132.18 88.24 119.70 C 87.73 117.44 87.01 115.20 87.01 112.86 C 86.81 112.37 86.39 111.39 86.19 110.90 C 86.14 110.43 86.05 109.47 86.01 108.99 C 85.85 108.49 85.52 107.47 85.36 106.96 C 84.68 105.32 84.43 103.55 84.21 101.81 C 84.15 101.34 84.04 100.40 83.98 99.93 Z" />
<path fill="#9e948a" opacity="1.00" d=" M 33.43 103.73 C 34.00 111.77 29.49 119.23 30.81 127.31 C 30.47 130.37 29.71 133.38 28.73 136.30 C 28.27 135.62 27.34 134.26 26.87 133.58 C 27.03 133.15 27.34 132.30 27.50 131.88 C 28.06 130.76 28.16 129.51 28.02 128.29 C 28.71 119.93 30.92 111.72 33.43 103.73 Z" />
</g>
<g id="#726f6cfe">
<path fill="#726f6c" opacity="1.00" d=" M 62.10 103.48 C 62.89 103.31 64.47 102.97 65.26 102.80 C 64.82 106.51 64.86 110.27 65.02 114.00 C 65.32 126.82 64.91 139.67 65.85 152.47 C 65.01 157.06 63.90 161.69 64.33 166.40 L 64.36 167.03 C 64.14 167.24 63.71 167.64 63.49 167.84 C 63.21 167.33 62.66 166.31 62.38 165.81 C 63.16 158.90 64.55 150.85 59.35 145.23 L 59.06 144.68 C 59.77 138.87 60.82 133.10 61.24 127.26 C 62.16 119.36 61.82 111.41 62.10 103.48 Z" />
</g>
<g id="#587b97ff">
<path fill="#587b97" opacity="1.00" d=" M 71.61 105.25 C 72.06 104.60 72.94 103.30 73.38 102.65 C 75.36 107.48 77.01 112.44 79.19 117.19 C 79.78 115.67 80.37 114.16 80.91 112.62 C 82.88 120.20 80.03 127.79 78.11 135.06 C 76.81 139.22 76.25 143.70 73.86 147.44 C 73.69 144.79 73.47 142.14 73.43 139.48 C 75.84 133.81 78.51 127.86 78.28 121.59 C 77.66 118.36 74.23 119.32 72.17 120.41 C 71.90 115.36 71.85 110.30 71.61 105.25 Z" />
</g>
<g id="#bbac9eff">
<path fill="#bbac9e" opacity="1.00" d=" M 68.83 104.61 C 69.79 106.98 70.56 109.45 70.61 112.02 C 71.14 128.47 72.78 144.89 72.57 161.36 C 72.86 171.15 72.93 181.02 71.37 190.72 C 70.97 193.81 69.03 196.32 67.21 198.72 C 62.11 195.76 63.00 188.86 64.39 184.05 C 64.55 183.54 64.88 182.53 65.05 182.03 C 65.54 175.80 67.27 169.69 67.29 163.41 C 69.05 154.61 68.90 145.63 68.58 136.71 C 68.80 129.88 68.24 123.06 67.85 116.24 C 67.98 112.35 68.33 108.47 68.83 104.61 Z" />
</g>
<g id="#21212192">
<path fill="#212121" opacity="0.57" d=" M 90.00 105.85 C 91.14 106.73 91.40 107.83 90.79 109.14 C 89.69 108.25 89.43 107.15 90.00 105.85 Z" />
</g>
<g id="#2b2b2a97">
<path fill="#2b2b2a" opacity="0.59" d=" M 85.36 106.96 C 85.52 107.47 85.85 108.49 86.01 108.99 L 85.14 108.72 L 84.81 107.68 L 85.36 106.96 Z" />
</g>
<g id="#333333a1">
<path fill="#333333" opacity="0.63" d=" M 86.19 110.90 C 86.39 111.39 86.81 112.37 87.01 112.86 L 86.13 112.68 L 85.71 111.68 L 86.19 110.90 Z" />
</g>
<g id="#353434a6">
<path fill="#353434" opacity="0.65" d=" M 96.15 115.88 C 96.32 116.45 96.67 117.60 96.85 118.18 C 96.67 117.60 96.32 116.45 96.15 115.88 Z" />
</g>
<g id="#7098b4ff">
<path fill="#7098b4" opacity="1.00" d=" M 72.17 120.41 C 74.23 119.32 77.66 118.36 78.28 121.59 C 78.51 127.86 75.84 133.81 73.43 139.48 C 73.11 133.12 72.65 126.77 72.17 120.41 Z" />
</g>
<g id="#87817bff">
<path fill="#87817b" opacity="1.00" d=" M 88.24 119.70 C 91.04 132.18 91.98 145.43 88.48 157.87 C 87.87 156.24 87.27 154.61 86.67 152.98 C 85.47 154.38 84.26 155.76 83.13 157.22 C 86.63 145.08 89.98 132.42 88.24 119.70 Z" />
</g>
<g id="#506d78ad">
<path fill="#506d78" opacity="0.68" d=" M 38.05 126.62 C 38.63 131.15 38.78 135.71 38.82 140.28 C 38.26 135.75 38.16 131.18 38.05 126.62 Z" />
</g>
<g id="#2e2c2884">
<path fill="#2e2c28" opacity="0.52" d=" M 27.50 131.88 C 26.00 131.29 26.23 128.14 28.02 128.29 C 28.16 129.51 28.06 130.76 27.50 131.88 Z" />
</g>
<g id="#9e9389ff">
<path fill="#9e9389" opacity="1.00" d=" M 34.28 157.67 C 31.44 150.00 32.66 141.62 34.48 133.87 C 34.82 138.02 35.02 142.19 35.48 146.33 C 36.26 155.24 40.33 163.54 40.22 172.57 C 39.83 172.38 39.04 172.00 38.65 171.81 C 37.55 166.99 35.98 162.31 34.28 157.67 Z" />
</g>
<g id="#7ba6c2ff">
<path fill="#7ba6c2" opacity="1.00" d=" M 68.58 136.71 C 68.90 145.63 69.05 154.61 67.29 163.41 C 66.55 164.16 65.07 165.65 64.33 166.40 C 63.90 161.69 65.01 157.06 65.85 152.47 C 66.35 150.03 66.79 147.59 67.17 145.13 C 68.29 144.22 68.52 143.12 67.87 141.83 C 68.11 140.12 68.37 138.42 68.58 136.71 Z" />
</g>
<g id="#222222aa">
<path fill="#222222" opacity="0.67" d=" M 36.86 141.12 C 38.17 141.57 38.62 142.50 38.21 143.91 C 36.96 143.44 36.51 142.51 36.86 141.12 Z" />
</g>
<g id="#34424fae">
<path fill="#34424f" opacity="0.68" d=" M 67.17 145.13 C 66.57 143.85 66.80 142.75 67.87 141.83 C 68.52 143.12 68.29 144.22 67.17 145.13 Z" />
</g>
<g id="#9b9188ff">
<path fill="#9b9188" opacity="1.00" d=" M 59.35 145.23 C 64.55 150.85 63.16 158.90 62.38 165.81 C 60.75 165.67 58.17 166.38 57.76 164.15 C 55.61 157.98 58.04 151.34 59.35 145.23 Z" />
</g>
<g id="#262626a1">
<path fill="#262626" opacity="0.63" d=" M 37.73 146.99 C 39.07 147.53 39.47 148.54 38.92 150.02 C 37.80 149.27 37.40 148.26 37.73 146.99 Z" />
</g>
<g id="#988e87fe">
<path fill="#988e87" opacity="1.00" d=" M 42.86 152.55 L 43.39 153.20 C 44.87 154.88 46.45 156.48 47.89 158.20 C 48.73 160.09 49.56 162.00 50.38 163.90 C 50.01 167.46 44.87 168.59 43.79 164.86 C 42.72 160.85 42.41 156.68 42.86 152.55 Z" />
</g>
<g id="#3d3a3799">
<path fill="#3d3a37" opacity="0.60" d=" M 64.17 182.29 L 65.05 182.03 C 64.88 182.53 64.55 183.54 64.39 184.05 L 63.83 183.32 L 64.17 182.29 Z" />
</g>
</svg>
