<?xml version="1.0" encoding="UTF-8" ?>
<!DOCTYPE svg PUBLIC "-//W3C//DTD SVG 1.1//EN" "http://www.w3.org/Graphics/SVG/1.1/DTD/svg11.dtd">
<svg width="245pt" height="95pt" viewBox="0 0 245 95" version="1.1" xmlns="http://www.w3.org/2000/svg">
<g id="#efead1ff">
<path fill="#efead1" opacity="1.00" d=" M 133.85 7.26 C 135.29 6.05 136.85 4.98 138.54 4.13 C 142.64 5.21 146.88 4.76 151.03 4.36 L 150.71 5.04 C 146.19 5.80 141.60 5.15 137.04 5.38 C 139.78 5.71 142.53 5.86 145.29 5.79 C 142.32 7.57 138.93 7.70 135.59 7.44 C 132.91 9.65 129.82 11.24 126.34 11.61 C 122.47 12.31 122.83 17.30 119.88 19.16 C 119.82 17.85 119.78 16.54 119.74 15.23 C 119.42 15.38 118.78 15.69 118.46 15.85 C 119.18 14.74 120.27 13.99 121.43 13.39 C 123.56 11.13 124.45 7.45 127.86 6.69 C 129.84 5.47 131.97 6.28 133.85 7.26 Z" />
<path fill="#efead1" opacity="1.00" d=" M 211.35 23.19 C 214.81 22.03 218.50 21.78 222.07 21.11 C 223.65 20.79 225.15 21.43 226.35 22.44 C 221.81 22.78 217.38 23.74 212.79 23.88 C 212.43 23.71 211.71 23.36 211.35 23.19 Z" />
<path fill="#efead1" opacity="1.00" d=" M 206.73 25.69 C 208.16 24.69 209.71 23.90 211.32 23.24 C 209.02 26.49 204.91 28.10 202.55 31.44 C 202.51 30.90 202.43 29.82 202.38 29.28 C 203.82 28.06 205.27 26.87 206.73 25.69 Z" />
<path fill="#efead1" opacity="1.00" d=" M 191.90 32.25 C 193.55 30.97 195.17 29.63 196.89 28.43 C 194.88 31.28 193.30 34.40 192.56 37.82 C 192.32 35.97 192.10 34.11 191.90 32.25 Z" />
<path fill="#efead1" opacity="1.00" d=" M 69.57 37.71 C 73.21 36.52 77.17 37.44 80.94 37.17 C 82.66 37.23 84.24 38.02 85.79 38.69 C 80.45 37.50 75.00 37.89 69.57 37.71 Z" />
<path fill="#efead1" opacity="1.00" d=" M 112.85 45.08 C 113.15 44.74 113.73 44.07 114.02 43.74 C 114.36 45.14 114.79 46.52 115.13 47.92 C 116.54 52.22 116.61 57.04 114.56 61.14 C 114.90 56.78 115.36 52.07 113.34 48.05 L 112.31 49.03 C 113.23 48.36 113.57 47.47 113.34 46.36 L 112.85 45.08 Z" />
</g>
<g id="#ffffffff">
<path fill="#ffffff" opacity="1.00" d=" M 137.04 5.38 C 141.60 5.15 146.19 5.80 150.71 5.04 C 151.07 5.12 151.79 5.28 152.14 5.36 C 149.85 5.41 147.56 5.55 145.29 5.79 C 142.53 5.86 139.78 5.71 137.04 5.38 Z" />
<path fill="#ffffff" opacity="1.00" d=" M 118.46 15.85 C 118.78 15.69 119.42 15.38 119.74 15.23 C 119.78 16.54 119.82 17.85 119.88 19.16 C 118.49 19.81 117.04 20.30 115.54 20.59 C 116.12 18.80 117.08 17.15 118.46 15.85 Z" />
<path fill="#ffffff" opacity="1.00" d=" M 120.02 54.65 C 116.40 53.58 117.06 49.22 117.29 46.26 C 119.27 47.74 121.38 49.09 123.71 49.94 C 124.12 51.58 124.52 53.23 124.51 54.93 C 125.52 54.94 126.54 54.95 127.55 54.95 C 127.37 54.24 127.00 52.81 126.82 52.10 C 127.13 52.19 127.74 52.36 128.05 52.45 C 128.06 53.23 128.08 54.78 128.09 55.55 C 127.72 55.64 127.00 55.82 126.64 55.91 C 124.38 55.84 122.21 55.15 120.02 54.65 Z" />
<path fill="#ffffff" opacity="1.00" d=" M 142.78 53.01 C 143.02 52.75 143.49 52.22 143.73 51.96 C 144.23 53.37 144.97 54.83 144.66 56.38 L 144.12 56.74 C 142.66 55.90 142.21 54.65 142.78 53.01 Z" />
</g>
<g id="#afa99aff">
<path fill="#afa99a" opacity="1.00" d=" M 145.29 5.79 C 147.56 5.55 149.85 5.41 152.14 5.36 C 152.79 5.87 154.07 6.88 154.71 7.39 C 151.66 8.95 148.27 8.46 145.03 8.96 C 145.77 10.17 146.64 11.28 147.56 12.36 C 148.92 12.36 150.29 12.34 151.64 12.55 C 153.18 12.85 152.64 14.81 152.98 15.90 C 151.02 15.27 149.06 14.62 147.09 14.02 C 145.37 15.97 144.29 18.68 141.94 19.93 C 139.00 19.40 136.04 19.41 133.09 19.87 C 131.11 19.14 130.02 17.00 128.06 16.23 C 126.31 16.84 124.70 17.78 123.11 18.71 C 122.63 19.02 121.68 19.63 121.20 19.94 C 125.79 23.98 126.34 30.48 129.75 35.24 C 133.32 35.59 137.92 36.65 140.86 34.03 C 142.51 29.43 143.77 24.31 147.87 21.19 C 149.51 21.29 151.17 21.31 152.82 21.33 C 153.00 23.20 153.98 25.77 152.24 27.16 C 147.50 28.62 143.45 32.77 142.66 37.75 C 140.57 39.38 138.63 41.19 136.84 43.14 C 136.34 43.65 135.84 44.17 135.33 44.68 C 134.86 43.49 134.38 42.30 133.92 41.11 C 132.63 42.05 131.36 43.03 130.09 43.99 C 127.23 38.94 121.93 36.01 117.75 32.17 C 117.40 30.63 116.82 29.17 116.14 27.76 C 115.15 28.85 114.20 29.97 113.33 31.17 C 113.21 30.44 112.97 28.99 112.85 28.27 C 111.21 28.71 112.24 31.50 112.07 32.85 L 111.45 33.33 C 111.44 29.83 112.32 26.42 113.04 23.02 C 113.91 22.28 114.71 21.47 115.47 20.61 L 115.54 20.59 C 117.04 20.30 118.49 19.81 119.88 19.16 C 122.83 17.30 122.47 12.31 126.34 11.61 C 129.82 11.24 132.91 9.65 135.59 7.44 C 138.93 7.70 142.32 7.57 145.29 5.79 Z" />
</g>
<g id="#a49d8bff">
<path fill="#a49d8b" opacity="1.00" d=" M 154.71 7.39 C 157.66 5.50 160.76 6.88 163.89 7.26 C 165.07 8.33 166.53 9.20 167.26 10.66 C 167.15 10.88 166.93 11.33 166.81 11.55 C 164.73 10.20 162.35 10.16 160.15 11.28 C 160.27 12.64 160.41 14.00 160.67 15.34 C 159.75 15.45 158.82 15.53 157.90 15.59 C 158.49 16.71 159.09 17.83 159.70 18.94 C 155.05 17.65 150.28 18.24 145.99 20.43 C 146.46 20.62 147.40 21.00 147.87 21.19 C 143.77 24.31 142.51 29.43 140.86 34.03 C 138.61 30.72 132.38 34.87 130.66 30.54 C 128.25 26.59 127.71 20.77 123.11 18.71 C 124.70 17.78 126.31 16.84 128.06 16.23 C 130.02 17.00 131.11 19.14 133.09 19.87 C 136.04 19.41 139.00 19.40 141.94 19.93 C 144.29 18.68 145.37 15.97 147.09 14.02 C 149.06 14.62 151.02 15.27 152.98 15.90 C 152.64 14.81 153.18 12.85 151.64 12.55 C 150.29 12.34 148.92 12.36 147.56 12.36 C 146.64 11.28 145.77 10.17 145.03 8.96 C 148.27 8.46 151.66 8.95 154.71 7.39 Z" />
</g>
<g id="#969082ff">
<path fill="#969082" opacity="1.00" d=" M 160.15 11.28 C 162.35 10.16 164.73 10.20 166.81 11.55 C 166.93 11.33 167.15 10.88 167.26 10.66 L 167.51 10.19 C 167.60 10.64 167.80 11.53 167.90 11.97 C 167.92 12.43 167.98 13.34 168.00 13.79 C 167.00 13.67 166.00 13.54 165.01 13.40 C 166.55 14.65 170.51 15.46 169.02 18.10 C 168.60 19.10 168.54 20.19 168.47 21.26 C 167.91 21.46 167.36 21.66 166.81 21.86 C 166.63 22.55 166.45 23.23 166.26 23.91 C 163.54 22.81 160.83 21.67 157.98 20.97 C 159.65 22.03 161.30 23.12 162.93 24.24 C 163.30 28.03 160.39 30.62 157.18 31.93 C 157.89 33.24 158.71 34.51 159.14 35.95 C 158.94 38.64 156.48 40.22 154.36 41.42 C 149.24 44.18 143.69 46.00 138.54 48.72 C 135.78 50.59 133.01 47.65 130.58 46.50 C 130.46 45.87 130.21 44.62 130.09 43.99 C 131.36 43.03 132.63 42.05 133.92 41.11 C 134.38 42.30 134.86 43.49 135.33 44.68 C 135.84 44.17 136.34 43.65 136.84 43.14 C 136.87 43.66 136.94 44.71 136.97 45.24 C 137.00 45.74 137.06 46.75 137.09 47.25 C 139.78 47.11 141.97 45.36 144.32 44.24 C 147.91 42.20 152.25 41.31 155.14 38.19 C 156.80 36.66 154.55 34.69 153.02 34.29 C 150.95 34.19 149.28 35.77 147.54 36.69 C 146.19 35.12 144.18 37.37 142.66 37.75 C 143.45 32.77 147.50 28.62 152.24 27.16 C 153.98 25.77 153.00 23.20 152.82 21.33 C 151.17 21.31 149.51 21.29 147.87 21.19 C 147.40 21.00 146.46 20.62 145.99 20.43 C 150.28 18.24 155.05 17.65 159.70 18.94 C 159.09 17.83 158.49 16.71 157.90 15.59 C 158.82 15.53 159.75 15.45 160.67 15.34 C 160.41 14.00 160.27 12.64 160.15 11.28 Z" />
</g>
<g id="#80796bff">
<path fill="#80796b" opacity="1.00" d=" M 167.90 11.97 C 168.14 12.39 168.63 13.22 168.87 13.63 C 172.22 14.74 174.01 18.06 174.77 21.22 C 178.34 23.22 179.03 27.68 179.40 31.38 L 178.66 31.83 C 177.43 29.52 176.13 27.25 174.69 25.07 C 172.02 27.20 172.41 30.91 173.06 33.88 C 169.64 35.22 169.55 38.89 169.19 41.99 C 168.94 45.18 166.24 47.67 166.42 50.93 C 166.26 52.47 166.77 54.29 165.55 55.52 C 163.47 58.15 161.26 61.13 157.83 61.98 C 145.18 65.90 131.42 61.34 118.96 66.32 C 118.03 65.59 117.17 64.79 116.37 63.92 C 117.64 62.79 118.94 61.36 120.81 61.54 C 126.81 61.69 132.80 60.89 138.71 59.92 C 141.64 59.42 143.85 56.05 141.19 53.73 C 137.43 54.85 133.57 53.72 129.87 52.92 C 131.70 52.58 132.39 51.05 132.66 49.40 C 132.09 49.02 131.50 48.68 130.90 48.36 C 130.60 48.96 130.01 50.17 129.71 50.77 C 127.66 51.01 125.61 50.75 123.71 49.94 C 121.38 49.09 119.27 47.74 117.29 46.26 C 117.17 46.15 116.94 45.92 116.83 45.81 C 116.25 46.51 115.69 47.21 115.13 47.92 C 114.79 46.52 114.36 45.14 114.02 43.74 L 114.44 43.26 C 119.16 44.75 123.64 46.91 128.26 48.68 C 129.05 47.41 129.74 45.80 128.43 44.56 C 124.59 39.99 120.19 35.79 115.28 32.36 C 116.10 32.30 116.92 32.24 117.75 32.17 C 121.93 36.01 127.23 38.94 130.09 43.99 C 130.21 44.62 130.46 45.87 130.58 46.50 C 133.01 47.65 135.78 50.59 138.54 48.72 C 143.69 46.00 149.24 44.18 154.36 41.42 C 156.48 40.22 158.94 38.64 159.14 35.95 C 158.71 34.51 157.89 33.24 157.18 31.93 C 160.39 30.62 163.30 28.03 162.93 24.24 C 161.30 23.12 159.65 22.03 157.98 20.97 C 160.83 21.67 163.54 22.81 166.26 23.91 C 166.45 23.23 166.63 22.55 166.81 21.86 C 167.36 21.66 167.91 21.46 168.47 21.26 C 168.54 20.19 168.60 19.10 169.02 18.10 C 170.51 15.46 166.55 14.65 165.01 13.40 C 166.00 13.54 167.00 13.67 168.00 13.79 C 167.98 13.34 167.92 12.43 167.90 11.97 M 158.98 32.17 C 161.87 33.94 164.90 35.52 167.36 37.90 C 167.58 37.68 168.01 37.22 168.23 37.00 C 167.09 33.24 162.39 32.41 158.98 32.17 M 159.99 41.03 C 155.95 43.61 151.19 44.73 147.06 47.16 C 143.79 48.76 138.84 49.16 137.14 52.65 C 139.02 52.79 140.90 52.91 142.78 53.01 C 142.21 54.65 142.66 55.90 144.12 56.74 L 144.66 56.38 C 144.64 56.67 144.60 57.26 144.58 57.55 C 148.06 57.59 151.56 57.39 154.99 56.77 C 156.11 56.33 158.30 56.29 158.02 54.54 C 158.18 53.43 158.22 52.32 158.14 51.21 C 159.61 50.47 158.90 48.35 159.38 47.03 C 159.96 43.39 165.71 42.35 164.84 38.19 C 162.78 38.15 161.61 40.08 159.99 41.03 Z" />
</g>
<g id="#d0cdb1f9">
<path fill="#d0cdb1" opacity="0.98" d=" M 29.83 23.29 C 29.89 19.87 33.39 17.64 36.54 17.82 C 35.57 21.11 31.53 21.73 30.77 25.18 C 30.53 24.71 30.06 23.77 29.83 23.29 Z" />
</g>
<g id="#9b9483ff">
<path fill="#9b9483" opacity="1.00" d=" M 36.54 17.82 C 40.63 19.16 44.53 21.44 48.87 21.76 L 48.37 21.97 C 48.13 22.07 47.65 22.26 47.41 22.36 C 47.56 23.80 47.70 25.23 47.85 26.67 C 46.70 26.56 45.54 26.55 44.39 26.46 C 43.07 27.88 42.27 30.56 40.02 30.53 C 37.53 29.10 34.90 27.85 31.94 28.42 C 33.82 30.39 36.09 31.88 38.44 33.23 C 37.92 35.10 37.24 36.93 36.14 38.55 C 33.78 37.84 31.69 36.52 29.44 35.54 C 28.38 35.36 26.47 35.05 26.37 36.59 C 29.27 39.00 32.85 40.41 35.59 43.03 C 34.38 44.39 33.14 46.51 31.04 46.29 C 28.01 45.42 25.14 44.07 22.12 43.14 C 22.15 42.43 22.19 41.01 22.21 40.30 C 23.16 39.16 24.11 38.02 24.96 36.81 L 24.75 35.51 C 24.79 35.24 24.86 34.69 24.90 34.42 C 26.05 31.55 28.28 29.42 30.35 27.22 C 30.18 26.83 29.85 26.04 29.69 25.64 L 29.32 24.80 C 29.45 24.43 29.70 23.67 29.83 23.29 C 30.06 23.77 30.53 24.71 30.77 25.18 C 31.53 21.73 35.57 21.11 36.54 17.82 Z" />
<path fill="#9b9483" opacity="1.00" d=" M 115.13 47.92 C 115.69 47.21 116.25 46.51 116.83 45.81 C 116.94 45.92 117.17 46.15 117.29 46.26 C 117.06 49.22 116.40 53.58 120.02 54.65 L 118.74 54.77 C 119.93 57.35 123.76 57.01 126.21 57.12 L 126.90 55.93 L 126.64 55.91 C 127.00 55.82 127.72 55.64 128.09 55.55 C 128.08 54.78 128.06 53.23 128.05 52.45 C 128.51 52.57 129.42 52.81 129.87 52.92 C 133.57 53.72 137.43 54.85 141.19 53.73 C 143.85 56.05 141.64 59.42 138.71 59.92 C 132.80 60.89 126.81 61.69 120.81 61.54 C 118.94 61.36 117.64 62.79 116.37 63.92 L 116.30 63.98 C 115.75 63.47 114.65 62.44 114.10 61.92 L 114.56 61.14 C 116.61 57.04 116.54 52.22 115.13 47.92 Z" />
</g>
<g id="#817969ff">
<path fill="#817969" opacity="1.00" d=" M 121.20 19.94 C 121.68 19.63 122.63 19.02 123.11 18.71 C 127.71 20.77 128.25 26.59 130.66 30.54 C 132.38 34.87 138.61 30.72 140.86 34.03 C 137.92 36.65 133.32 35.59 129.75 35.24 C 126.34 30.48 125.79 23.98 121.20 19.94 Z" />
</g>
<g id="#fbf6d4ff">
<path fill="#fbf6d4" opacity="1.00" d=" M 47.41 22.36 C 47.65 22.26 48.13 22.07 48.37 21.97 L 49.67 22.06 C 50.67 22.98 53.17 23.57 52.54 25.35 C 50.47 27.22 48.18 28.88 45.59 29.93 C 46.38 29.22 47.17 28.51 47.94 27.77 L 47.85 26.67 C 47.70 25.23 47.56 23.80 47.41 22.36 Z" />
<path fill="#fbf6d4" opacity="1.00" d=" M 220.80 30.79 C 223.73 30.68 226.65 29.20 229.56 30.06 C 227.73 30.37 225.88 30.63 224.17 31.37 C 216.93 31.18 209.63 34.34 205.06 39.99 C 205.18 39.35 205.42 38.08 205.54 37.45 C 210.27 34.53 215.08 31.20 220.80 30.79 Z" />
</g>
<g id="#aca798ff">
<path fill="#aca798" opacity="1.00" d=" M 49.67 22.06 C 52.30 21.35 54.39 23.10 56.64 24.07 C 55.24 26.01 52.76 27.47 52.56 30.04 C 52.42 34.84 46.25 38.21 42.13 36.13 C 43.30 35.00 43.94 33.36 43.52 31.75 C 44.20 31.13 44.89 30.52 45.59 29.93 C 48.18 28.88 50.47 27.22 52.54 25.35 C 53.17 23.57 50.67 22.98 49.67 22.06 Z" />
</g>
<g id="#7d7666ff">
<path fill="#7d7666" opacity="1.00" d=" M 226.35 22.44 C 227.23 23.09 228.16 23.69 229.08 24.29 C 229.42 27.17 229.71 30.25 232.38 31.99 L 232.43 32.87 C 225.06 36.57 216.49 38.64 210.61 44.72 L 211.75 45.11 C 210.63 46.51 209.61 48.83 207.43 47.69 C 206.88 46.33 206.28 44.99 205.71 43.64 C 210.19 39.68 216.32 37.93 220.28 33.46 C 221.64 32.89 223.03 32.35 224.17 31.37 C 225.88 30.63 227.73 30.37 229.56 30.06 C 226.65 29.20 223.73 30.68 220.80 30.79 C 215.08 31.20 210.27 34.53 205.54 37.45 C 205.42 38.08 205.18 39.35 205.06 39.99 L 204.90 40.70 C 203.79 42.40 202.09 43.62 200.73 45.11 C 198.88 44.20 196.87 43.62 195.11 42.54 C 197.43 41.48 200.47 41.18 201.87 38.75 C 203.20 37.13 202.52 34.95 202.61 33.04 C 203.00 33.33 203.79 33.92 204.18 34.22 C 207.89 30.94 212.19 28.47 216.07 25.41 C 214.97 24.90 213.88 24.39 212.79 23.88 C 217.38 23.74 221.81 22.78 226.35 22.44 Z" />
</g>
<g id="#aca594ff">
<path fill="#aca594" opacity="1.00" d=" M 211.32 23.24 L 211.35 23.19 C 211.71 23.36 212.43 23.71 212.79 23.88 C 213.88 24.39 214.97 24.90 216.07 25.41 C 212.19 28.47 207.89 30.94 204.18 34.22 C 203.79 33.92 203.00 33.33 202.61 33.04 C 202.59 32.64 202.57 31.84 202.55 31.44 C 204.91 28.10 209.02 26.49 211.32 23.24 Z" />
</g>
<g id="#756e60ff">
<path fill="#756e60" opacity="1.00" d=" M 56.64 24.07 C 57.84 24.68 59.03 25.33 60.21 25.99 C 61.04 29.47 61.05 33.07 61.42 36.62 C 61.84 39.80 62.11 43.03 62.93 46.14 C 63.32 48.26 65.79 48.56 67.41 49.31 C 66.19 51.26 63.79 50.31 61.94 50.44 C 63.80 51.80 65.55 53.72 67.96 53.97 C 70.94 53.69 73.90 53.15 76.85 52.64 C 80.32 52.03 83.00 49.55 86.18 48.24 C 88.32 47.90 89.84 49.68 91.22 50.99 C 85.08 51.16 79.71 54.60 74.04 56.57 C 76.75 56.64 79.48 56.74 82.13 57.39 L 82.76 57.93 C 75.45 58.91 67.94 57.29 61.80 53.19 C 57.28 52.11 52.42 53.00 47.95 54.19 C 44.54 54.86 41.12 56.48 37.61 55.41 C 37.42 56.05 37.03 57.34 36.84 57.99 C 31.26 58.35 26.07 56.19 20.82 54.69 L 20.37 54.02 C 20.65 53.68 21.20 52.99 21.47 52.64 C 25.28 54.01 29.36 53.68 32.97 51.89 C 30.47 49.05 26.44 48.32 23.20 46.57 C 22.57 46.23 21.95 46.29 21.35 46.76 L 21.62 45.71 C 19.45 44.48 20.65 41.85 20.74 39.88 C 20.89 41.38 21.05 42.88 21.22 44.38 L 22.06 44.40 L 22.12 43.14 C 25.14 44.07 28.01 45.42 31.04 46.29 C 33.14 46.51 34.38 44.39 35.59 43.03 C 32.85 40.41 29.27 39.00 26.37 36.59 C 26.47 35.05 28.38 35.36 29.44 35.54 C 31.69 36.52 33.78 37.84 36.14 38.55 C 37.24 36.93 37.92 35.10 38.44 33.23 C 36.09 31.88 33.82 30.39 31.94 28.42 C 34.90 27.85 37.53 29.10 40.02 30.53 C 42.27 30.56 43.07 27.88 44.39 26.46 C 45.54 26.55 46.70 26.56 47.85 26.67 L 47.94 27.77 C 47.17 28.51 46.38 29.22 45.59 29.93 C 44.89 30.52 44.20 31.13 43.52 31.75 C 42.65 32.52 41.79 33.33 41.06 34.24 C 41.32 34.71 41.86 35.66 42.13 36.13 C 46.25 38.21 52.42 34.84 52.56 30.04 C 52.76 27.47 55.24 26.01 56.64 24.07 M 44.72 45.17 C 48.60 45.13 52.26 46.44 56.02 47.18 C 55.19 44.70 52.13 44.14 49.99 43.21 C 47.92 42.60 43.68 41.54 44.72 45.17 Z" />
</g>
<g id="#6b6455ff">
<path fill="#6b6455" opacity="1.00" d=" M 173.06 33.88 C 172.41 30.91 172.02 27.20 174.69 25.07 C 176.13 27.25 177.43 29.52 178.66 31.83 L 179.40 31.38 L 179.81 31.13 C 180.27 32.63 180.87 34.09 181.59 35.48 C 182.34 35.78 183.08 36.09 183.83 36.41 C 181.19 38.97 178.09 42.74 179.45 46.63 C 180.57 46.59 181.69 46.55 182.82 46.51 C 185.55 50.71 189.64 54.86 195.01 54.85 C 197.12 55.18 198.51 53.36 200.02 52.25 L 200.22 52.71 C 200.30 54.92 200.41 57.26 198.95 59.10 C 191.76 57.21 185.68 52.89 179.68 48.70 C 178.62 47.25 176.51 47.40 176.16 49.30 C 175.30 51.18 174.68 53.15 174.03 55.11 C 174.47 55.53 175.36 56.39 175.80 56.82 C 175.16 57.70 174.49 58.57 173.86 59.46 L 173.75 59.47 C 170.76 59.63 167.47 62.63 167.49 65.69 C 164.83 66.91 163.58 69.82 161.04 71.20 C 157.19 71.78 153.20 71.33 149.52 72.79 C 145.99 71.77 142.26 72.27 138.73 71.28 C 142.31 68.73 146.85 70.22 150.66 68.53 C 150.80 65.80 146.36 66.43 144.41 66.10 C 137.33 65.43 130.18 65.34 123.11 66.15 C 123.08 66.52 123.04 67.28 123.02 67.65 C 121.84 66.77 120.37 66.58 118.96 66.32 C 131.42 61.34 145.18 65.90 157.83 61.98 C 161.26 61.13 163.47 58.15 165.55 55.52 C 166.77 54.29 166.26 52.47 166.42 50.93 C 166.24 47.67 168.94 45.18 169.19 41.99 C 169.55 38.89 169.64 35.22 173.06 33.88 Z" />
</g>
<g id="#c9bfa4fc">
<path fill="#c9bfa4" opacity="1.00" d=" M 29.69 25.64 C 29.85 26.04 30.18 26.83 30.35 27.22 C 28.28 29.42 26.05 31.55 24.90 34.42 C 23.85 30.44 26.94 27.82 29.69 25.64 Z" />
</g>
<g id="#8a8376ff">
<path fill="#8a8376" opacity="1.00" d=" M 202.07 26.54 C 203.38 25.51 205.20 25.88 206.73 25.69 C 205.27 26.87 203.82 28.06 202.38 29.28 C 202.43 29.82 202.51 30.90 202.55 31.44 C 202.57 31.84 202.59 32.64 202.61 33.04 C 202.52 34.95 203.20 37.13 201.87 38.75 C 200.47 41.18 197.43 41.48 195.11 42.54 C 194.69 41.82 194.27 41.10 193.85 40.39 C 196.13 40.40 198.74 40.14 200.13 38.06 C 202.42 35.45 198.16 32.52 199.75 29.74 C 200.39 28.59 201.25 27.57 202.07 26.54 Z" />
<path fill="#8a8376" opacity="1.00" d=" M 61.42 36.62 C 61.79 36.79 62.55 37.13 62.93 37.30 C 63.38 39.88 63.95 42.44 65.24 44.75 C 69.52 46.31 74.27 46.05 78.32 43.96 C 80.25 44.01 82.19 44.15 84.11 44.35 C 85.07 44.77 86.02 45.21 86.96 45.68 C 85.17 46.40 83.29 46.81 81.47 47.43 C 79.56 48.99 77.79 50.95 75.17 51.19 C 72.35 52.10 70.23 49.10 67.41 49.31 C 65.79 48.56 63.32 48.26 62.93 46.14 C 62.11 43.03 61.84 39.80 61.42 36.62 Z" />
</g>
<g id="#aea999ff">
<path fill="#aea999" opacity="1.00" d=" M 196.89 28.43 C 198.05 26.78 200.30 26.91 202.07 26.54 C 201.25 27.57 200.39 28.59 199.75 29.74 C 198.16 32.52 202.42 35.45 200.13 38.06 C 198.74 40.14 196.13 40.40 193.85 40.39 C 193.53 39.75 192.88 38.46 192.56 37.82 C 193.30 34.40 194.88 31.28 196.89 28.43 Z" />
</g>
<g id="#d3cdb5fc">
<path fill="#d3cdb5" opacity="1.00" d=" M 112.07 32.85 C 112.24 31.50 111.21 28.71 112.85 28.27 C 112.97 28.99 113.21 30.44 113.33 31.17 C 113.13 31.61 112.73 32.51 112.53 32.96 L 112.07 32.85 Z" />
</g>
<g id="#a5a18fff">
<path fill="#a5a18f" opacity="1.00" d=" M 113.33 31.17 C 114.20 29.97 115.15 28.85 116.14 27.76 C 116.82 29.17 117.40 30.63 117.75 32.17 C 116.92 32.24 116.10 32.30 115.28 32.36 C 120.19 35.79 124.59 39.99 128.43 44.56 C 129.74 45.80 129.05 47.41 128.26 48.68 C 123.64 46.91 119.16 44.75 114.44 43.26 L 114.02 43.74 C 113.73 44.07 113.15 44.74 112.85 45.08 C 112.40 44.28 111.95 43.48 111.48 42.68 C 108.86 43.25 106.16 43.17 103.53 43.64 C 100.42 45.38 97.94 49.04 93.98 48.56 C 92.43 48.79 91.05 47.90 91.00 46.27 C 92.40 41.91 96.73 39.72 101.12 39.68 C 102.97 39.90 103.63 37.80 105.06 37.09 C 106.67 36.22 108.34 35.41 110.16 35.08 C 109.53 36.92 109.61 38.84 110.13 40.70 C 111.03 40.36 111.91 39.96 112.81 39.63 C 117.22 41.26 121.14 44.13 125.80 45.07 C 124.34 40.57 120.05 38.13 116.62 35.28 C 115.27 34.13 112.75 35.45 112.53 32.96 C 112.73 32.51 113.13 31.61 113.33 31.17 Z" />
</g>
<g id="#cdc6b0ff">
<path fill="#cdc6b0" opacity="1.00" d=" M 41.06 34.24 C 41.79 33.33 42.65 32.52 43.52 31.75 C 43.94 33.36 43.30 35.00 42.13 36.13 C 41.86 35.66 41.32 34.71 41.06 34.24 Z" />
</g>
<g id="#686053ff">
<path fill="#686053" opacity="1.00" d=" M 158.98 32.17 C 162.39 32.41 167.09 33.24 168.23 37.00 C 168.01 37.22 167.58 37.68 167.36 37.90 C 164.90 35.52 161.87 33.94 158.98 32.17 Z" />
</g>
<g id="#9e9684ff">
<path fill="#9e9684" opacity="1.00" d=" M 205.06 39.99 C 209.63 34.34 216.93 31.18 224.17 31.37 C 223.03 32.35 221.64 32.89 220.28 33.46 C 216.32 37.93 210.19 39.68 205.71 43.64 L 204.93 44.23 C 204.92 43.35 204.91 41.58 204.90 40.70 L 205.06 39.99 Z" />
</g>
<g id="#aaa697ff">
<path fill="#aaa697" opacity="1.00" d=" M 232.38 31.99 C 232.47 32.22 232.66 32.69 232.75 32.93 C 232.73 35.36 232.66 37.79 232.67 40.22 C 230.09 41.20 227.39 41.82 224.65 42.06 C 218.64 42.10 212.37 45.29 209.80 50.90 C 207.42 53.26 203.93 54.16 201.11 55.93 C 200.96 55.28 200.64 53.96 200.49 53.31 C 201.06 51.72 201.69 50.15 202.49 48.65 C 202.78 48.56 203.36 48.37 203.65 48.28 C 203.79 47.15 203.94 46.03 204.08 44.91 C 204.29 44.74 204.72 44.40 204.93 44.23 L 205.71 43.64 C 206.28 44.99 206.88 46.33 207.43 47.69 C 209.61 48.83 210.63 46.51 211.75 45.11 C 217.78 40.86 225.17 39.60 232.33 38.71 C 232.42 36.77 232.48 34.82 232.43 32.87 L 232.38 31.99 Z" />
</g>
<g id="#b4afa0ff">
<path fill="#b4afa0" opacity="1.00" d=" M 111.45 33.33 L 112.07 32.85 L 112.53 32.96 C 112.75 35.45 115.27 34.13 116.62 35.28 C 120.05 38.13 124.34 40.57 125.80 45.07 C 121.14 44.13 117.22 41.26 112.81 39.63 C 111.91 39.96 111.03 40.36 110.13 40.70 C 109.61 38.84 109.53 36.92 110.16 35.08 C 110.48 34.64 111.12 33.77 111.45 33.33 Z" />
</g>
<g id="#665e4eff">
<path fill="#665e4e" opacity="1.00" d=" M 210.61 44.72 C 216.49 38.64 225.06 36.57 232.43 32.87 C 232.48 34.82 232.42 36.77 232.33 38.71 C 225.17 39.60 217.78 40.86 211.75 45.11 L 210.61 44.72 Z" />
</g>
<g id="#70695cff">
<path fill="#70695c" opacity="1.00" d=" M 232.75 32.93 C 234.25 33.51 233.04 35.76 233.42 37.01 C 232.93 39.50 235.15 41.14 236.19 43.14 C 236.62 45.93 234.99 48.93 236.70 51.48 C 238.11 53.37 237.02 55.63 236.62 57.66 C 232.46 60.01 227.83 61.50 223.02 61.29 C 221.59 61.24 220.16 61.15 218.74 61.04 C 220.90 58.87 224.25 58.51 226.48 56.36 C 229.27 53.80 232.68 52.18 235.84 50.14 C 234.37 49.03 232.60 49.76 231.01 50.06 C 226.99 51.00 222.79 51.48 219.06 53.40 C 217.98 53.91 216.91 54.43 215.84 54.96 C 214.01 55.18 212.23 54.65 210.48 54.22 C 212.46 47.42 223.90 49.97 224.65 42.06 C 227.39 41.82 230.09 41.20 232.67 40.22 C 232.66 37.79 232.73 35.36 232.75 32.93 Z" />
</g>
<g id="#ada899ff">
<path fill="#ada899" opacity="1.00" d=" M 147.54 36.69 C 149.28 35.77 150.95 34.19 153.02 34.29 C 154.55 34.69 156.80 36.66 155.14 38.19 C 152.25 41.31 147.91 42.20 144.32 44.24 C 141.97 45.36 139.78 47.11 137.09 47.25 C 137.06 46.75 137.00 45.74 136.97 45.24 C 140.15 42.00 143.73 39.16 147.54 36.69 Z" />
</g>
<g id="#bab69ef8">
<path fill="#bab69e" opacity="0.97" d=" M 20.74 39.88 C 21.82 38.26 23.07 36.52 24.75 35.51 L 24.96 36.81 C 24.11 38.02 23.16 39.16 22.21 40.30 C 22.19 41.01 22.15 42.43 22.12 43.14 L 22.06 44.40 L 21.22 44.38 C 21.05 42.88 20.89 41.38 20.74 39.88 Z" />
</g>
<g id="#989785ff">
<path fill="#989785" opacity="1.00" d=" M 62.93 37.30 C 68.69 36.95 74.65 36.44 80.51 36.42 L 80.94 37.17 C 77.17 37.44 73.21 36.52 69.57 37.71 C 75.00 37.89 80.45 37.50 85.79 38.69 C 87.04 40.61 88.31 42.50 89.69 44.32 C 89.32 44.33 88.58 44.37 88.21 44.38 C 85.96 42.14 83.58 39.33 80.07 39.51 C 75.66 39.99 71.28 40.79 66.92 41.64 C 67.77 42.14 68.61 42.75 69.63 42.82 C 72.51 43.30 75.41 43.66 78.32 43.96 C 74.27 46.05 69.52 46.31 65.24 44.75 C 63.95 42.44 63.38 39.88 62.93 37.30 Z" />
</g>
<g id="#7e7769ff">
<path fill="#7e7769" opacity="1.00" d=" M 142.66 37.75 C 144.18 37.37 146.19 35.12 147.54 36.69 C 143.73 39.16 140.15 42.00 136.97 45.24 C 136.94 44.71 136.87 43.66 136.84 43.14 C 138.63 41.19 140.57 39.38 142.66 37.75 Z" />
</g>
<g id="#9c9586ff">
<path fill="#9c9586" opacity="1.00" d=" M 179.45 46.63 C 178.09 42.74 181.19 38.97 183.83 36.41 C 187.85 37.77 191.62 40.03 194.44 43.22 C 196.73 44.45 199.01 45.72 201.22 47.10 C 199.32 49.77 196.63 52.12 193.23 52.39 C 189.59 51.70 186.41 49.57 184.64 46.28 C 184.19 46.34 183.27 46.45 182.82 46.51 C 181.69 46.55 180.57 46.59 179.45 46.63 M 190.24 42.11 C 190.60 45.35 193.24 40.54 190.24 42.11 Z" />
</g>
<g id="#675f51ff">
<path fill="#675f51" opacity="1.00" d=" M 159.99 41.03 C 161.61 40.08 162.78 38.15 164.84 38.19 C 165.71 42.35 159.96 43.39 159.38 47.03 C 158.90 48.35 159.61 50.47 158.14 51.21 C 157.91 49.70 157.52 48.22 157.08 46.75 C 153.99 48.38 150.75 50.17 147.21 50.38 L 146.21 50.13 C 146.12 50.52 145.94 51.30 145.85 51.68 C 144.97 51.10 144.27 51.19 143.73 51.96 C 143.49 52.22 143.02 52.75 142.78 53.01 C 140.90 52.91 139.02 52.79 137.14 52.65 C 138.84 49.16 143.79 48.76 147.06 47.16 C 151.19 44.73 155.95 43.61 159.99 41.03 Z" />
</g>
<g id="#7d7768ff">
<path fill="#7d7768" opacity="1.00" d=" M 66.92 41.64 C 71.28 40.79 75.66 39.99 80.07 39.51 C 83.58 39.33 85.96 42.14 88.21 44.38 C 88.58 44.37 89.32 44.33 89.69 44.32 L 89.86 44.31 C 90.14 44.80 90.71 45.78 91.00 46.27 C 91.05 47.90 92.43 48.79 93.98 48.56 C 97.94 49.04 100.42 45.38 103.53 43.64 C 106.16 43.17 108.86 43.25 111.48 42.68 C 111.95 43.48 112.40 44.28 112.85 45.08 L 113.34 46.36 C 111.44 46.42 109.57 46.14 108.01 45.01 C 107.73 44.86 107.18 44.57 106.91 44.43 C 102.34 47.76 97.42 52.57 91.22 50.99 C 89.84 49.68 88.32 47.90 86.18 48.24 C 83.00 49.55 80.32 52.03 76.85 52.64 C 73.90 53.15 70.94 53.69 67.96 53.97 C 65.55 53.72 63.80 51.80 61.94 50.44 C 63.79 50.31 66.19 51.26 67.41 49.31 C 70.23 49.10 72.35 52.10 75.17 51.19 C 77.79 50.95 79.56 48.99 81.47 47.43 C 83.29 46.81 85.17 46.40 86.96 45.68 C 86.02 45.21 85.07 44.77 84.11 44.35 C 84.47 43.98 85.18 43.24 85.54 42.87 C 80.38 41.28 74.85 41.84 69.63 42.82 C 68.61 42.75 67.77 42.14 66.92 41.64 Z" />
<path fill="#7d7768" opacity="1.00" d=" M 105.03 51.03 C 106.87 50.31 108.64 48.82 110.74 49.38 C 104.76 54.22 96.77 55.05 89.48 56.02 C 89.11 55.94 88.35 55.79 87.98 55.71 C 90.29 54.87 92.61 54.05 95.00 53.45 C 98.41 53.00 101.90 52.55 105.03 51.03 Z" />
</g>
<g id="#6c6458ff">
<path fill="#6c6458" opacity="1.00" d=" M 69.63 42.82 C 74.85 41.84 80.38 41.28 85.54 42.87 C 85.18 43.24 84.47 43.98 84.11 44.35 C 82.19 44.15 80.25 44.01 78.32 43.96 C 75.41 43.66 72.51 43.30 69.63 42.82 Z" />
</g>
<g id="#72685fff">
<path fill="#72685f" opacity="1.00" d=" M 190.24 42.11 C 193.24 40.54 190.60 45.35 190.24 42.11 Z" />
</g>
<g id="#9f9787ff">
<path fill="#9f9787" opacity="1.00" d=" M 209.80 50.90 C 212.37 45.29 218.64 42.10 224.65 42.06 C 223.90 49.97 212.46 47.42 210.48 54.22 C 207.88 57.18 203.46 56.60 200.70 59.32 C 200.26 59.26 199.39 59.15 198.95 59.10 C 200.41 57.26 200.30 54.92 200.22 52.71 L 200.49 53.31 C 200.64 53.96 200.96 55.28 201.11 55.93 C 203.93 54.16 207.42 53.26 209.80 50.90 Z" />
</g>
<g id="#534a3fff">
<path fill="#534a3f" opacity="1.00" d=" M 44.72 45.17 C 43.68 41.54 47.92 42.60 49.99 43.21 C 52.13 44.14 55.19 44.70 56.02 47.18 C 52.26 46.44 48.60 45.13 44.72 45.17 Z" />
</g>
<g id="#686153fe">
<path fill="#686153" opacity="1.00" d=" M 91.22 50.99 C 97.42 52.57 102.34 47.76 106.91 44.43 C 107.18 44.57 107.73 44.86 108.01 45.01 C 105.24 49.66 99.47 51.83 94.27 52.24 C 94.45 52.54 94.82 53.15 95.00 53.45 C 92.61 54.05 90.29 54.87 87.98 55.71 C 88.35 55.79 89.11 55.94 89.48 56.02 L 89.83 56.09 C 87.24 56.37 84.74 57.70 82.13 57.39 C 79.48 56.74 76.75 56.64 74.04 56.57 C 79.71 54.60 85.08 51.16 91.22 50.99 Z" />
</g>
<g id="#5b5246ff">
<path fill="#5b5246" opacity="1.00" d=" M 94.27 52.24 C 99.47 51.83 105.24 49.66 108.01 45.01 C 109.57 46.14 111.44 46.42 113.34 46.36 C 113.57 47.47 113.23 48.36 112.31 49.03 C 111.92 49.12 111.13 49.29 110.74 49.38 C 108.64 48.82 106.87 50.31 105.03 51.03 C 101.90 52.55 98.41 53.00 95.00 53.45 C 94.82 53.15 94.45 52.54 94.27 52.24 Z" />
<path fill="#5b5246" opacity="1.00" d=" M 130.90 48.36 C 131.50 48.68 132.09 49.02 132.66 49.40 C 132.39 51.05 131.70 52.58 129.87 52.92 C 129.42 52.81 128.51 52.57 128.05 52.45 C 127.74 52.36 127.13 52.19 126.82 52.10 C 127.00 52.81 127.37 54.24 127.55 54.95 C 126.54 54.95 125.52 54.94 124.51 54.93 C 124.52 53.23 124.12 51.58 123.71 49.94 C 125.61 50.75 127.66 51.01 129.71 50.77 C 130.01 50.17 130.60 48.96 130.90 48.36 Z" />
</g>
<g id="#d2c5acfc">
<path fill="#d2c5ac" opacity="1.00" d=" M 21.35 46.76 C 21.95 46.29 22.57 46.23 23.20 46.57 C 22.47 48.04 21.58 49.48 20.43 50.64 C 20.26 50.37 19.90 49.81 19.72 49.53 C 20.13 48.84 20.94 47.45 21.35 46.76 Z" />
</g>
<g id="#bdbfc0ff">
<path fill="#bdbfc0" opacity="1.00" d=" M 147.21 50.38 C 150.75 50.17 153.99 48.38 157.08 46.75 C 157.52 48.22 157.91 49.70 158.14 51.21 C 158.22 52.32 158.18 53.43 158.02 54.54 C 154.48 55.30 150.92 55.95 147.33 56.32 C 147.36 54.34 147.32 52.36 147.21 50.38 Z" />
</g>
<g id="#827a6cfd">
<path fill="#827a6c" opacity="1.00" d=" M 182.82 46.51 C 183.27 46.45 184.19 46.34 184.64 46.28 C 186.41 49.57 189.59 51.70 193.23 52.39 C 196.63 52.12 199.32 49.77 201.22 47.10 C 201.54 47.49 202.17 48.27 202.49 48.65 C 201.69 50.15 201.06 51.72 200.49 53.31 L 200.22 52.71 L 200.02 52.25 C 198.51 53.36 197.12 55.18 195.01 54.85 C 189.64 54.86 185.55 50.71 182.82 46.51 Z" />
</g>
<g id="#a19a8bff">
<path fill="#a19a8b" opacity="1.00" d=" M 23.20 46.57 C 26.44 48.32 30.47 49.05 32.97 51.89 C 29.36 53.68 25.28 54.01 21.47 52.64 C 21.20 52.99 20.65 53.68 20.37 54.02 C 18.71 53.29 19.67 50.61 19.29 49.10 L 19.72 49.53 C 19.90 49.81 20.26 50.37 20.43 50.64 C 21.58 49.48 22.47 48.04 23.20 46.57 Z" />
</g>
<g id="#80806ff8">
<path fill="#80806f" opacity="0.97" d=" M 176.16 49.30 C 176.51 47.40 178.62 47.25 179.68 48.70 C 178.65 51.51 177.53 54.35 175.80 56.82 C 175.36 56.39 174.47 55.53 174.03 55.11 C 174.68 53.15 175.30 51.18 176.16 49.30 Z" />
</g>
<g id="#a39d8dff">
<path fill="#a39d8d" opacity="1.00" d=" M 231.01 50.06 C 232.60 49.76 234.37 49.03 235.84 50.14 C 232.68 52.18 229.27 53.80 226.48 56.36 C 224.25 58.51 220.90 58.87 218.74 61.04 C 220.16 61.15 221.59 61.24 223.02 61.29 L 223.45 62.04 L 221.94 61.93 C 219.50 61.88 217.31 60.94 215.65 59.15 L 216.01 58.41 C 217.38 56.95 218.81 55.55 220.17 54.09 L 219.06 53.40 C 222.79 51.48 226.99 51.00 231.01 50.06 Z" />
</g>
<g id="#4d4840ff">
<path fill="#4d4840" opacity="1.00" d=" M 146.21 50.13 L 147.21 50.38 C 147.32 52.36 147.36 54.34 147.33 56.32 C 150.92 55.95 154.48 55.30 158.02 54.54 C 158.30 56.29 156.11 56.33 154.99 56.77 C 151.56 57.39 148.06 57.59 144.58 57.55 C 144.60 57.26 144.64 56.67 144.66 56.38 C 144.97 54.83 144.23 53.37 143.73 51.96 C 144.27 51.19 144.97 51.10 145.85 51.68 C 145.94 51.30 146.12 50.52 146.21 50.13 Z" />
</g>
<g id="#8a8375ff">
<path fill="#8a8375" opacity="1.00" d=" M 200.70 59.32 C 203.46 56.60 207.88 57.18 210.48 54.22 C 212.23 54.65 214.01 55.18 215.84 54.96 C 215.89 55.83 215.97 57.55 216.01 58.41 L 215.65 59.15 C 215.06 58.68 214.43 58.58 213.75 58.85 C 210.92 59.74 208.20 60.95 205.52 62.19 C 203.86 61.31 202.26 60.34 200.70 59.32 Z" />
</g>
<g id="#d0c8aeff">
<path fill="#d0c8ae" opacity="1.00" d=" M 215.84 54.96 C 216.91 54.43 217.98 53.91 219.06 53.40 L 220.17 54.09 C 218.81 55.55 217.38 56.95 216.01 58.41 C 215.97 57.55 215.89 55.83 215.84 54.96 Z" />
</g>
<g id="#69665fff">
<path fill="#69665f" opacity="1.00" d=" M 118.74 54.77 L 120.02 54.65 C 122.21 55.15 124.38 55.84 126.64 55.91 L 126.90 55.93 L 126.21 57.12 C 123.76 57.01 119.93 57.35 118.74 54.77 Z" />
</g>
<g id="#736c5eff">
<path fill="#736c5e" opacity="1.00" d=" M 213.75 58.85 C 214.43 58.58 215.06 58.68 215.65 59.15 C 217.31 60.94 219.50 61.88 221.94 61.93 C 220.48 62.83 218.11 63.28 217.02 61.62 C 213.76 64.00 209.01 64.12 205.52 62.19 C 208.20 60.95 210.92 59.74 213.75 58.85 Z" />
</g>
<g id="#808072f3">
<path fill="#808072" opacity="0.95" d=" M 167.49 65.69 C 167.47 62.63 170.76 59.63 173.75 59.47 C 172.03 61.88 169.82 63.89 167.49 65.69 Z" />
</g>
<g id="#918672ff">
<path fill="#918672" opacity="1.00" d=" M 123.11 66.15 C 130.18 65.34 137.33 65.43 144.41 66.10 C 138.34 69.41 130.85 66.70 124.72 70.00 C 124.30 69.68 123.46 69.04 123.04 68.72 L 123.02 67.65 C 123.04 67.28 123.08 66.52 123.11 66.15 Z" />
</g>
<g id="#7c7364ff">
<path fill="#7c7364" opacity="1.00" d=" M 144.41 66.10 C 146.36 66.43 150.80 65.80 150.66 68.53 C 146.85 70.22 142.31 68.73 138.73 71.28 C 142.26 72.27 145.99 71.77 149.52 72.79 C 144.69 73.97 139.46 74.08 134.77 72.25 C 131.54 71.08 127.47 72.42 124.72 70.00 C 130.85 66.70 138.34 69.41 144.41 66.10 Z" />
</g>
</svg>
