<?xml version="1.0" encoding="UTF-8" ?>
<!DOCTYPE svg PUBLIC "-//W3C//DTD SVG 1.1//EN" "http://www.w3.org/Graphics/SVG/1.1/DTD/svg11.dtd">
<svg width="232pt" height="136pt" viewBox="0 0 232 136" version="1.1" xmlns="http://www.w3.org/2000/svg">
<g id="#20201b65">
<path fill="#20201b" opacity="0.40" d=" M 125.16 7.96 C 125.94 6.14 131.04 6.15 131.85 7.95 C 130.18 7.95 126.83 7.95 125.16 7.96 Z" />
</g>
<g id="#f2f2d9fb">
<path fill="#f2f2d9" opacity="1.00" d=" M 111.58 13.63 C 114.07 8.81 120.60 9.12 125.16 7.96 C 126.83 7.95 130.18 7.95 131.85 7.95 C 133.11 7.92 134.21 8.35 135.14 9.23 C 134.12 9.74 132.99 10.04 132.08 10.74 C 131.22 11.42 130.38 12.12 129.57 12.86 L 129.01 13.20 C 125.51 15.38 121.41 16.14 117.68 17.79 C 116.09 18.42 114.60 19.25 113.13 20.11 C 108.84 21.08 104.46 20.26 100.14 21.03 C 100.44 20.03 100.75 19.04 101.08 18.06 C 105.18 18.67 109.47 17.29 111.58 13.63 Z" />
</g>
<g id="#ccccb5fd">
<path fill="#ccccb5" opacity="1.00" d=" M 135.14 9.23 C 137.35 9.85 139.32 11.17 141.25 12.39 C 140.72 12.58 139.66 12.97 139.13 13.16 C 136.28 12.98 131.78 14.56 132.08 10.74 C 132.99 10.04 134.12 9.74 135.14 9.23 Z" />
</g>
<g id="#b0af9bff">
<path fill="#b0af9b" opacity="1.00" d=" M 129.57 12.86 C 130.38 12.12 131.22 11.42 132.08 10.74 C 131.78 14.56 136.28 12.98 139.13 13.16 C 137.39 14.25 136.13 15.39 139.20 15.39 C 136.07 16.53 131.74 15.44 129.57 12.86 Z" />
</g>
<g id="#8b8b7bf4">
<path fill="#8b8b7b" opacity="0.96" d=" M 141.25 12.39 L 142.11 12.13 L 142.26 13.24 C 141.32 14.07 140.38 14.92 139.20 15.39 C 136.13 15.39 137.39 14.25 139.13 13.16 C 139.66 12.97 140.72 12.58 141.25 12.39 Z" />
</g>
<g id="#d2cfb6fd">
<path fill="#d2cfb6" opacity="1.00" d=" M 152.31 14.29 C 154.18 13.49 156.06 12.70 158.01 12.10 C 159.97 12.95 162.18 13.63 163.64 15.26 C 164.85 18.01 168.02 19.82 168.10 22.98 C 162.48 25.34 159.53 18.30 153.96 20.02 C 150.32 19.53 145.88 18.67 144.08 15.04 C 146.81 14.92 149.75 15.52 152.31 14.29 Z" />
</g>
<g id="#cccab4ff">
<path fill="#cccab4" opacity="1.00" d=" M 117.68 17.79 C 121.41 16.14 125.51 15.38 129.01 13.20 C 128.98 14.74 128.99 16.28 128.83 17.82 C 125.37 19.43 121.04 19.74 117.68 17.79 Z" />
</g>
<g id="#bdbba7fe">
<path fill="#bdbba7" opacity="1.00" d=" M 129.01 13.20 L 129.57 12.86 C 131.74 15.44 136.07 16.53 139.20 15.39 C 140.38 14.92 141.32 14.07 142.26 13.24 C 142.60 13.50 143.28 14.02 143.62 14.28 L 144.08 15.04 C 145.88 18.67 150.32 19.53 153.96 20.02 C 159.53 18.30 162.48 25.34 168.10 22.98 C 168.02 19.82 164.85 18.01 163.64 15.26 C 168.03 16.35 172.97 19.80 172.11 24.99 C 172.48 29.20 166.73 26.65 164.08 26.90 C 160.61 25.55 156.62 21.96 152.88 23.69 C 152.11 24.42 151.39 25.19 150.71 26.00 C 145.88 27.24 141.31 23.08 136.34 24.62 C 133.05 25.45 130.95 20.95 127.67 22.57 C 125.08 23.82 123.31 22.10 122.13 19.96 C 120.91 20.77 119.81 21.74 118.61 22.58 C 116.84 23.90 114.08 21.23 112.62 22.94 C 111.35 25.10 109.45 26.41 106.84 26.34 C 106.38 25.95 105.47 25.19 105.01 24.81 L 104.76 23.90 C 107.73 23.07 110.61 21.91 113.13 20.11 C 114.60 19.25 116.09 18.42 117.68 17.79 C 121.04 19.74 125.37 19.43 128.83 17.82 C 128.99 16.28 128.98 14.74 129.01 13.20 Z" />
</g>
<g id="#51514a96">
<path fill="#51514a" opacity="0.59" d=" M 143.62 14.28 C 146.49 13.83 149.43 13.89 152.31 14.29 C 149.75 15.52 146.81 14.92 144.08 15.04 L 143.62 14.28 Z" />
</g>
<g id="#d4d0b3ff">
<path fill="#d4d0b3" opacity="1.00" d=" M 99.34 19.24 C 99.77 18.94 100.64 18.35 101.08 18.06 C 100.75 19.04 100.44 20.03 100.14 21.03 C 104.46 20.26 108.84 21.08 113.13 20.11 C 110.61 21.91 107.73 23.07 104.76 23.90 C 100.90 23.76 99.32 27.74 97.59 30.48 C 94.86 30.48 91.23 31.89 90.99 34.99 C 90.95 38.10 87.85 39.06 85.31 39.42 C 80.22 43.88 78.56 50.94 77.51 57.41 C 77.25 60.65 75.93 64.06 77.26 67.25 C 76.98 68.25 76.69 69.25 76.39 70.24 C 76.05 68.73 75.87 67.17 75.13 65.79 C 73.77 62.72 74.14 59.21 73.85 55.93 C 73.50 52.19 76.04 49.40 78.35 46.83 C 79.62 45.16 80.54 43.23 81.28 41.28 C 80.89 36.98 84.31 34.56 86.12 31.01 C 86.35 29.86 86.89 29.32 87.75 29.39 C 92.86 29.31 97.59 23.95 99.34 19.24 Z" />
</g>
<g id="#a9a88efa">
<path fill="#a9a88e" opacity="0.98" d=" M 95.42 21.74 C 95.65 20.37 98.07 19.79 99.34 19.24 C 97.59 23.95 92.86 29.31 87.75 29.39 C 90.21 26.92 95.24 25.34 95.42 21.74 Z" />
</g>
<g id="#868375ff">
<path fill="#868375" opacity="1.00" d=" M 118.61 22.58 C 119.81 21.74 120.91 20.77 122.13 19.96 C 121.78 22.10 121.52 25.18 118.80 25.45 C 116.55 25.03 113.91 25.20 112.62 22.94 C 114.08 21.23 116.84 23.90 118.61 22.58 Z" />
</g>
<g id="#adac9bff">
<path fill="#adac9b" opacity="1.00" d=" M 122.13 19.96 C 123.31 22.10 125.08 23.82 127.67 22.57 C 130.95 20.95 133.05 25.45 136.34 24.62 C 141.31 23.08 145.88 27.24 150.71 26.00 C 151.19 27.31 151.69 28.62 152.16 29.94 C 152.08 30.73 151.94 32.32 151.87 33.11 C 147.27 31.45 143.56 27.52 138.37 27.60 C 132.06 26.52 124.36 29.37 118.80 25.45 C 121.52 25.18 121.78 22.10 122.13 19.96 Z" />
</g>
<g id="#d8d8c4eb">
<path fill="#d8d8c4" opacity="0.92" d=" M 87.75 29.39 C 87.80 25.37 92.73 23.99 95.42 21.74 C 95.24 25.34 90.21 26.92 87.75 29.39 Z" />
</g>
<g id="#a19e8fff">
<path fill="#a19e8f" opacity="1.00" d=" M 106.84 26.34 C 109.45 26.41 111.35 25.10 112.62 22.94 C 113.91 25.20 116.55 25.03 118.80 25.45 C 124.36 29.37 132.06 26.52 138.37 27.60 C 143.56 27.52 147.27 31.45 151.87 33.11 C 151.94 32.32 152.08 30.73 152.16 29.94 C 153.28 30.80 154.43 31.66 155.73 32.25 C 158.79 34.07 163.35 35.23 164.90 31.00 C 168.43 33.06 171.80 30.95 175.19 30.20 C 176.53 30.27 177.61 31.96 178.08 33.14 C 175.15 36.95 172.16 40.71 169.48 44.69 C 164.03 46.18 159.69 41.87 154.95 40.08 C 151.72 39.20 150.38 35.97 147.94 34.04 C 145.47 32.61 142.88 31.36 140.10 30.67 C 139.81 30.42 139.24 29.91 138.95 29.65 C 137.40 27.67 135.90 30.86 135.05 32.03 C 133.49 36.19 127.12 36.49 127.09 41.60 C 131.62 42.65 134.52 46.66 138.78 48.34 C 139.43 50.69 137.06 53.66 139.74 55.24 C 143.09 57.57 142.15 62.15 141.75 65.68 C 138.74 67.27 137.56 70.25 136.30 73.20 C 135.66 71.99 136.90 68.78 134.93 68.97 C 133.01 68.74 131.32 69.70 129.79 70.72 C 130.96 71.31 133.98 70.09 133.93 71.86 C 131.77 72.30 130.30 73.89 129.77 76.00 C 127.27 76.20 124.32 76.45 124.67 73.05 C 122.54 72.77 120.79 74.19 119.00 75.08 C 115.86 75.87 115.67 73.52 115.96 71.02 C 121.22 67.78 127.74 67.96 133.21 65.20 C 136.04 63.68 140.17 63.04 140.80 59.28 C 137.75 57.53 136.28 54.29 134.61 51.35 C 130.74 47.13 122.96 45.97 122.57 39.32 C 121.00 35.66 115.94 38.21 113.70 35.26 C 117.49 34.75 123.06 36.58 125.06 32.16 C 120.78 28.73 114.13 29.82 110.01 33.02 C 108.88 30.82 107.81 28.60 106.84 26.34 Z" />
</g>
<g id="#b1b09dfe">
<path fill="#b1b09d" opacity="1.00" d=" M 152.88 23.69 C 156.62 21.96 160.61 25.55 164.08 26.90 C 166.73 26.65 172.48 29.20 172.11 24.99 C 173.57 26.09 173.49 28.84 175.19 30.20 C 171.80 30.95 168.43 33.06 164.90 31.00 C 163.73 28.18 162.73 29.98 161.71 31.87 C 160.28 31.72 157.42 31.41 156.00 31.26 C 154.10 28.95 152.05 26.54 154.85 24.04 C 154.35 23.95 153.37 23.78 152.88 23.69 Z" />
</g>
<g id="#b2af9bff">
<path fill="#b2af9b" opacity="1.00" d=" M 97.59 30.48 C 99.32 27.74 100.90 23.76 104.76 23.90 L 105.01 24.81 C 105.40 26.55 106.10 28.19 106.85 29.80 C 106.50 29.97 105.78 30.29 105.42 30.46 C 106.97 36.03 101.22 35.97 98.20 38.01 C 97.78 36.67 97.30 35.36 96.76 34.07 C 95.04 34.03 93.44 34.74 91.81 35.19 L 90.99 34.99 C 91.23 31.89 94.86 30.48 97.59 30.48 Z" />
</g>
<g id="#838275ff">
<path fill="#838275" opacity="1.00" d=" M 150.71 26.00 C 151.39 25.19 152.11 24.42 152.88 23.69 C 153.37 23.78 154.35 23.95 154.85 24.04 C 152.05 26.54 154.10 28.95 156.00 31.26 L 155.73 32.25 C 154.43 31.66 153.28 30.80 152.16 29.94 C 151.69 28.62 151.19 27.31 150.71 26.00 Z" />
</g>
<g id="#8b8776ff">
<path fill="#8b8776" opacity="1.00" d=" M 105.01 24.81 C 105.47 25.19 106.38 25.95 106.84 26.34 C 107.81 28.60 108.88 30.82 110.01 33.02 C 110.25 33.51 110.74 34.51 110.99 35.00 C 110.56 34.98 109.71 34.93 109.28 34.91 C 108.55 33.17 107.72 31.48 106.85 29.80 C 106.10 28.19 105.40 26.55 105.01 24.81 Z" />
</g>
<g id="#979485ff">
<path fill="#979485" opacity="1.00" d=" M 135.05 32.03 C 135.90 30.86 137.40 27.67 138.95 29.65 C 138.03 30.52 136.88 31.36 137.08 32.79 C 137.05 33.29 136.99 34.29 136.96 34.78 C 135.93 37.16 134.68 39.45 133.85 41.91 C 135.45 41.27 137.01 40.55 138.60 39.86 C 144.29 42.65 140.35 48.88 141.08 53.76 C 142.53 54.07 145.43 54.69 146.87 54.99 C 144.51 60.94 142.01 67.43 142.90 73.85 C 140.48 75.29 137.64 76.35 134.78 76.34 C 134.82 74.50 134.89 70.81 134.93 68.97 C 136.90 68.78 135.66 71.99 136.30 73.20 C 137.56 70.25 138.74 67.27 141.75 65.68 C 142.15 62.15 143.09 57.57 139.74 55.24 C 137.06 53.66 139.43 50.69 138.78 48.34 C 134.52 46.66 131.62 42.65 127.09 41.60 C 127.12 36.49 133.49 36.19 135.05 32.03 Z" />
</g>
<g id="#949284ff">
<path fill="#949284" opacity="1.00" d=" M 161.71 31.87 C 162.73 29.98 163.73 28.18 164.90 31.00 C 163.35 35.23 158.79 34.07 155.73 32.25 L 156.00 31.26 C 157.42 31.41 160.28 31.72 161.71 31.87 Z" />
</g>
<g id="#a9a593fe">
<path fill="#a9a593" opacity="1.00" d=" M 105.42 30.46 C 105.78 30.29 106.50 29.97 106.85 29.80 C 107.72 31.48 108.55 33.17 109.28 34.91 C 108.54 35.87 107.78 36.83 107.06 37.81 C 105.52 37.28 103.61 36.47 103.19 38.68 C 104.61 40.07 107.75 42.62 107.34 38.72 C 108.69 40.93 107.14 43.16 105.81 44.94 C 102.05 46.15 98.63 41.05 95.29 44.29 C 92.02 47.51 91.78 53.01 87.21 55.26 C 88.29 60.49 88.60 66.36 92.81 70.18 L 93.20 70.94 C 93.36 72.63 92.68 73.28 91.14 72.90 C 88.19 68.86 87.89 63.60 85.79 59.15 C 84.58 59.00 83.36 58.94 82.14 58.99 C 83.07 64.02 83.60 70.64 78.60 73.59 C 76.60 73.33 78.69 81.17 75.71 79.34 C 77.74 76.39 75.24 73.30 76.39 70.24 C 76.69 69.25 76.98 68.25 77.26 67.25 C 79.35 62.97 78.37 56.34 83.76 54.74 C 84.05 53.32 84.62 50.48 84.91 49.06 C 86.59 49.43 88.26 49.86 89.97 50.08 C 89.08 48.01 88.15 45.93 86.83 44.09 C 84.19 43.41 83.73 47.40 84.91 49.06 C 79.87 50.12 82.80 44.65 84.37 42.47 C 87.88 41.28 91.77 40.22 94.18 37.18 C 95.69 37.94 98.45 41.78 98.20 38.01 C 101.22 35.97 106.97 36.03 105.42 30.46 Z" />
</g>
<g id="#999686ff">
<path fill="#999686" opacity="1.00" d=" M 110.01 33.02 C 114.13 29.82 120.78 28.73 125.06 32.16 C 123.06 36.58 117.49 34.75 113.70 35.26 C 113.23 35.22 112.28 35.14 111.80 35.10 L 110.99 35.00 C 110.74 34.51 110.25 33.51 110.01 33.02 Z" />
</g>
<g id="#908c7dff">
<path fill="#908c7d" opacity="1.00" d=" M 137.08 32.79 C 136.88 31.36 138.03 30.52 138.95 29.65 C 139.24 29.91 139.81 30.42 140.10 30.67 C 140.00 34.26 145.45 33.41 146.97 36.00 C 149.65 36.67 149.99 39.15 150.83 41.17 L 149.96 40.88 C 145.42 39.18 143.24 46.36 143.99 50.08 C 140.84 54.37 148.72 50.70 151.04 50.95 C 150.44 55.58 148.86 60.24 145.87 63.89 C 144.04 66.49 145.54 69.95 145.75 72.82 C 141.46 77.64 134.53 80.77 127.99 79.28 C 121.27 79.80 114.52 80.26 107.78 79.79 C 110.94 78.45 115.89 80.44 118.16 77.15 C 123.62 77.49 129.97 79.86 134.78 76.34 C 137.64 76.35 140.48 75.29 142.90 73.85 C 142.01 67.43 144.51 60.94 146.87 54.99 C 145.43 54.69 142.53 54.07 141.08 53.76 C 140.35 48.88 144.29 42.65 138.60 39.86 C 139.44 39.15 140.30 38.44 141.17 37.76 C 142.13 37.41 143.09 37.05 144.05 36.69 C 141.89 35.27 139.87 32.39 137.08 32.79 Z" />
</g>
<g id="#ada990fd">
<path fill="#ada990" opacity="1.00" d=" M 84.20 32.15 C 84.68 31.86 85.64 31.29 86.12 31.01 C 84.31 34.56 80.89 36.98 81.28 41.28 C 79.89 39.66 79.16 37.74 79.01 35.63 C 80.75 34.50 82.47 33.31 84.20 32.15 Z" />
</g>
<g id="#949182ff">
<path fill="#949182" opacity="1.00" d=" M 140.10 30.67 C 142.88 31.36 145.47 32.61 147.94 34.04 C 150.38 35.97 151.72 39.20 154.95 40.08 C 159.69 41.87 164.03 46.18 169.48 44.69 C 172.16 40.71 175.15 36.95 178.08 33.14 C 179.35 33.49 180.62 33.85 181.89 34.19 C 182.04 35.91 181.42 39.21 183.78 36.98 C 185.40 40.96 189.53 42.67 193.05 44.58 C 192.83 44.89 192.40 45.50 192.18 45.80 C 194.41 46.72 196.68 48.42 199.19 47.48 C 199.95 47.36 201.47 47.14 202.23 47.03 C 201.46 51.82 193.87 47.25 190.97 49.09 C 190.67 51.85 192.11 54.26 193.09 56.73 C 190.67 57.63 188.36 58.80 186.04 59.94 C 182.06 54.82 181.20 47.98 177.38 42.92 C 176.88 44.62 176.40 46.32 175.78 47.97 C 173.02 46.97 170.17 45.16 167.79 47.99 C 165.79 49.72 167.47 53.75 169.97 54.29 C 170.20 56.37 169.93 59.67 166.98 59.01 C 163.37 59.95 166.13 56.78 166.67 55.13 C 165.38 52.15 161.48 51.87 159.83 49.17 C 157.23 46.63 156.14 42.37 151.99 41.91 C 151.70 41.73 151.12 41.35 150.83 41.17 C 149.99 39.15 149.65 36.67 146.97 36.00 C 145.45 33.41 140.00 34.26 140.10 30.67 Z" />
<path fill="#949182" opacity="1.00" d=" M 78.26 92.17 C 84.38 88.81 89.36 95.87 86.05 101.03 C 84.77 102.86 82.44 106.64 80.16 103.86 C 76.16 101.68 73.72 94.96 78.26 92.17 M 80.35 95.20 C 80.66 96.33 82.36 100.24 83.74 97.87 C 83.74 96.43 81.83 94.60 80.35 95.20 Z" />
</g>
<g id="#d4d1b5f8">
<path fill="#d4d1b5" opacity="0.97" d=" M 69.95 40.04 C 72.98 35.51 78.57 31.65 84.20 32.15 C 82.47 33.31 80.75 34.50 79.01 35.63 C 76.05 37.22 73.11 38.86 69.95 40.04 Z" />
</g>
<g id="#847f6fff">
<path fill="#847f6f" opacity="1.00" d=" M 137.08 32.79 C 139.87 32.39 141.89 35.27 144.05 36.69 C 143.09 37.05 142.13 37.41 141.17 37.76 C 139.85 36.65 138.41 35.71 136.96 34.78 C 136.99 34.29 137.05 33.29 137.08 32.79 Z" />
</g>
<g id="#938e7bff">
<path fill="#938e7b" opacity="1.00" d=" M 91.81 35.19 C 93.44 34.74 95.04 34.03 96.76 34.07 C 97.30 35.36 97.78 36.67 98.20 38.01 C 98.45 41.78 95.69 37.94 94.18 37.18 C 93.38 36.53 92.59 35.86 91.81 35.19 Z" />
</g>
<g id="#727162f2">
<path fill="#727162" opacity="0.95" d=" M 181.89 34.19 C 183.79 33.63 184.75 33.81 184.75 34.72 C 184.51 35.29 184.02 36.42 183.78 36.98 C 181.42 39.21 182.04 35.91 181.89 34.19 Z" />
</g>
<g id="#beb89fff">
<path fill="#beb89f" opacity="1.00" d=" M 90.99 34.99 L 91.81 35.19 C 92.59 35.86 93.38 36.53 94.18 37.18 C 91.77 40.22 87.88 41.28 84.37 42.47 C 82.80 44.65 79.87 50.12 84.91 49.06 C 84.62 50.48 84.05 53.32 83.76 54.74 C 78.37 56.34 79.35 62.97 77.26 67.25 C 75.93 64.06 77.25 60.65 77.51 57.41 C 78.56 50.94 80.22 43.88 85.31 39.42 C 87.85 39.06 90.95 38.10 90.99 34.99 Z" />
</g>
<g id="#afae9fff">
<path fill="#afae9f" opacity="1.00" d=" M 109.28 34.91 C 109.71 34.93 110.56 34.98 110.99 35.00 L 111.80 35.10 C 112.54 39.64 117.40 40.79 120.20 43.80 C 123.84 48.22 129.27 50.19 133.94 53.21 C 136.49 60.47 128.42 63.09 123.21 64.25 C 120.29 63.51 118.00 65.15 115.93 66.98 L 115.13 67.31 C 114.73 67.74 113.92 68.61 113.52 69.04 C 112.68 68.43 111.89 67.77 111.04 67.18 L 110.18 67.23 C 105.42 67.93 100.48 67.35 95.83 68.64 L 95.04 68.86 C 95.19 65.27 91.77 67.56 92.81 70.18 C 88.60 66.36 88.29 60.49 87.21 55.26 C 91.78 53.01 92.02 47.51 95.29 44.29 C 98.63 41.05 102.05 46.15 105.81 44.94 C 107.14 43.16 108.69 40.93 107.34 38.72 L 107.06 37.81 C 107.78 36.83 108.54 35.87 109.28 34.91 M 111.97 43.12 C 109.22 44.25 106.67 45.79 103.94 46.95 C 101.84 47.25 100.29 44.75 98.23 45.19 C 95.21 47.65 93.97 51.51 91.31 54.27 C 88.50 56.39 90.15 60.21 91.17 62.90 C 98.07 63.89 105.00 61.61 111.80 62.89 C 114.52 60.93 111.32 56.14 114.96 54.94 C 116.92 52.66 119.50 53.48 122.02 54.08 C 121.18 51.12 118.86 49.00 116.00 48.01 C 113.42 47.24 115.29 41.94 111.97 43.12 M 121.28 57.31 C 119.32 58.21 116.72 59.54 116.96 62.07 C 118.92 60.30 121.71 59.19 123.08 56.93 C 122.63 57.03 121.73 57.22 121.28 57.31 Z" />
</g>
<g id="#a8a698ff">
<path fill="#a8a698" opacity="1.00" d=" M 111.80 35.10 C 112.28 35.14 113.23 35.22 113.70 35.26 C 115.94 38.21 121.00 35.66 122.57 39.32 C 122.96 45.97 130.74 47.13 134.61 51.35 C 136.28 54.29 137.75 57.53 140.80 59.28 C 140.17 63.04 136.04 63.68 133.21 65.20 C 127.74 67.96 121.22 67.78 115.96 71.02 C 115.95 69.67 115.93 68.33 115.93 66.98 C 118.00 65.15 120.29 63.51 123.21 64.25 C 128.42 63.09 136.49 60.47 133.94 53.21 C 129.27 50.19 123.84 48.22 120.20 43.80 C 117.40 40.79 112.54 39.64 111.80 35.10 Z" />
</g>
<g id="#716b5cff">
<path fill="#716b5c" opacity="1.00" d=" M 136.96 34.78 C 138.41 35.71 139.85 36.65 141.17 37.76 C 140.30 38.44 139.44 39.15 138.60 39.86 C 137.01 40.55 135.45 41.27 133.85 41.91 C 134.68 39.45 135.93 37.16 136.96 34.78 Z" />
</g>
<g id="#b2b19dfa">
<path fill="#b2b19d" opacity="0.98" d=" M 183.78 36.98 C 184.02 36.42 184.51 35.29 184.75 34.72 C 192.19 35.34 200.07 40.22 203.11 46.89 L 202.23 47.03 C 201.47 47.14 199.95 47.36 199.19 47.48 C 197.11 46.58 195.09 45.55 193.05 44.58 C 189.53 42.67 185.40 40.96 183.78 36.98 Z" />
</g>
<g id="#9c9988fe">
<path fill="#9c9988" opacity="1.00" d=" M 69.95 40.04 C 73.11 38.86 76.05 37.22 79.01 35.63 C 79.16 37.74 79.89 39.66 81.28 41.28 C 80.54 43.23 79.62 45.16 78.35 46.83 C 74.10 43.94 72.35 50.73 69.74 52.75 C 67.33 55.68 63.10 55.57 59.82 57.00 C 60.05 54.36 62.81 53.67 64.78 52.70 C 68.90 51.09 71.30 47.05 72.88 43.13 C 71.50 41.13 69.08 43.05 67.26 43.25 C 66.96 41.70 68.80 40.68 69.95 40.04 Z" />
</g>
<g id="#909082ff">
<path fill="#909082" opacity="1.00" d=" M 103.19 38.68 C 103.61 36.47 105.52 37.28 107.06 37.81 L 107.34 38.72 C 107.75 42.62 104.61 40.07 103.19 38.68 Z" />
</g>
<g id="#827d6dff">
<path fill="#827d6d" opacity="1.00" d=" M 143.99 50.08 C 143.24 46.36 145.42 39.18 149.96 40.88 C 151.40 46.71 157.47 51.23 155.72 57.72 C 155.19 60.53 152.14 60.92 150.08 62.20 C 148.54 66.38 156.75 62.86 155.40 66.37 C 154.71 68.17 156.62 69.27 157.01 70.86 C 154.68 73.69 152.80 69.75 150.78 68.54 C 149.22 68.65 147.67 68.92 146.10 68.98 C 145.94 67.29 145.90 65.59 145.87 63.89 C 148.86 60.24 150.44 55.58 151.04 50.95 C 150.94 48.92 150.31 46.98 149.78 45.04 C 146.95 45.08 145.75 48.30 143.99 50.08 Z" />
</g>
<g id="#8a8676ff">
<path fill="#8a8676" opacity="1.00" d=" M 149.96 40.88 L 150.83 41.17 C 151.12 41.35 151.70 41.73 151.99 41.91 C 154.45 47.43 159.73 52.22 158.51 58.69 C 159.29 60.91 156.66 61.37 155.96 63.02 C 157.14 64.74 158.37 66.51 159.95 67.88 C 161.66 67.27 163.33 66.10 165.19 66.90 C 164.67 69.57 163.54 72.07 162.73 74.66 C 161.65 75.42 159.29 75.75 160.28 77.55 C 163.08 78.64 165.51 80.45 167.85 82.30 C 170.07 91.06 162.36 97.54 157.96 103.95 C 156.85 106.91 152.25 109.04 152.82 112.42 C 151.41 113.50 149.72 114.06 147.95 114.08 C 154.83 105.98 160.99 97.30 166.01 87.97 C 168.50 81.74 158.85 76.70 153.84 79.65 L 153.11 79.88 C 152.91 78.59 152.98 77.14 151.90 76.21 C 145.54 76.82 139.94 80.11 133.79 81.45 C 128.85 81.30 123.87 80.78 118.99 81.77 C 117.43 81.93 114.73 80.09 114.82 82.80 C 110.47 82.29 106.10 81.75 101.75 82.61 C 100.17 82.42 98.60 82.11 97.01 82.01 C 94.58 81.69 91.88 81.63 93.10 84.85 C 97.74 85.92 102.54 85.97 107.25 86.65 C 102.26 86.68 97.21 87.51 92.24 86.79 C 90.21 85.58 89.64 83.39 90.00 81.15 C 95.94 80.83 101.83 80.04 107.78 79.79 C 114.52 80.26 121.27 79.80 127.99 79.28 C 134.53 80.77 141.46 77.64 145.75 72.82 C 145.54 69.95 144.04 66.49 145.87 63.89 C 145.90 65.59 145.94 67.29 146.10 68.98 C 147.67 68.92 149.22 68.65 150.78 68.54 C 152.80 69.75 154.68 73.69 157.01 70.86 C 156.62 69.27 154.71 68.17 155.40 66.37 C 156.75 62.86 148.54 66.38 150.08 62.20 C 152.14 60.92 155.19 60.53 155.72 57.72 C 157.47 51.23 151.40 46.71 149.96 40.88 Z" />
</g>
<g id="#a4a290fd">
<path fill="#a4a290" opacity="1.00" d=" M 67.26 43.25 C 69.08 43.05 71.50 41.13 72.88 43.13 C 71.30 47.05 68.90 51.09 64.78 52.70 C 62.81 53.67 60.05 54.36 59.82 57.00 C 58.27 52.96 53.55 56.37 52.67 59.06 C 51.22 55.61 47.42 54.50 44.84 52.17 C 42.93 49.99 39.99 49.58 37.30 49.19 C 36.42 50.72 35.59 52.28 34.88 53.90 C 31.66 55.01 29.39 60.59 25.66 58.24 C 30.46 56.16 34.13 51.95 36.40 47.30 C 38.63 46.74 40.92 48.00 43.21 47.51 C 44.09 47.53 44.91 47.81 45.68 48.37 C 45.96 48.55 46.51 48.92 46.79 49.11 C 49.08 50.66 51.56 51.91 54.12 52.94 C 57.48 53.34 60.46 51.25 63.64 50.51 C 66.23 50.21 64.45 47.63 63.19 46.79 C 64.10 45.39 66.14 44.69 67.26 43.25 Z" />
</g>
<g id="#908c7cff">
<path fill="#908c7c" opacity="1.00" d=" M 151.99 41.91 C 156.14 42.37 157.23 46.63 159.83 49.17 C 161.48 51.87 165.38 52.15 166.67 55.13 C 166.13 56.78 163.37 59.95 166.98 59.01 C 169.93 59.67 170.20 56.37 169.97 54.29 C 171.62 54.66 173.29 54.92 174.95 55.25 C 174.99 57.82 174.19 60.29 173.83 62.81 C 170.67 63.51 167.87 65.16 165.19 66.90 C 163.33 66.10 161.66 67.27 159.95 67.88 C 158.37 66.51 157.14 64.74 155.96 63.02 C 156.66 61.37 159.29 60.91 158.51 58.69 C 159.73 52.22 154.45 47.43 151.99 41.91 Z" />
<path fill="#908c7c" opacity="1.00" d=" M 169.97 54.29 C 167.47 53.75 165.79 49.72 167.79 47.99 C 168.15 50.20 169.03 52.27 169.97 54.29 Z" />
</g>
<g id="#b7b7a8ff">
<path fill="#b7b7a8" opacity="1.00" d=" M 111.97 43.12 C 115.29 41.94 113.42 47.24 116.00 48.01 C 118.86 49.00 121.18 51.12 122.02 54.08 C 119.50 53.48 116.92 52.66 114.96 54.94 C 111.32 56.14 114.52 60.93 111.80 62.89 C 105.00 61.61 98.07 63.89 91.17 62.90 C 90.15 60.21 88.50 56.39 91.31 54.27 C 93.97 51.51 95.21 47.65 98.23 45.19 C 100.29 44.75 101.84 47.25 103.94 46.95 C 106.67 45.79 109.22 44.25 111.97 43.12 Z" />
</g>
<g id="#888472ff">
<path fill="#888472" opacity="1.00" d=" M 177.38 42.92 C 181.20 47.98 182.06 54.82 186.04 59.94 C 184.04 60.98 182.03 62.02 180.02 63.05 L 179.24 63.11 C 177.43 63.02 175.63 62.92 173.83 62.81 C 174.19 60.29 174.99 57.82 174.95 55.25 C 173.29 54.92 171.62 54.66 169.97 54.29 C 169.03 52.27 168.15 50.20 167.79 47.99 C 170.17 45.16 173.02 46.97 175.78 47.97 C 176.40 46.32 176.88 44.62 177.38 42.92 Z" />
</g>
<g id="#999580ff">
<path fill="#999580" opacity="1.00" d=" M 84.91 49.06 C 83.73 47.40 84.19 43.41 86.83 44.09 C 88.15 45.93 89.08 48.01 89.97 50.08 C 88.26 49.86 86.59 49.43 84.91 49.06 Z" />
</g>
<g id="#b9b8a5f7">
<path fill="#b9b8a5" opacity="0.97" d=" M 33.30 46.25 C 36.49 45.05 40.64 44.98 43.21 47.51 C 40.92 48.00 38.63 46.74 36.40 47.30 C 34.13 51.95 30.46 56.16 25.66 58.24 C 25.50 57.66 25.16 56.49 25.00 55.91 C 26.78 51.96 30.27 49.22 33.30 46.25 Z" />
</g>
<g id="#e1e0c8f4">
<path fill="#e1e0c8" opacity="0.96" d=" M 45.68 48.37 C 49.43 45.89 55.27 43.91 59.24 46.35 C 57.07 46.97 54.91 47.60 52.76 48.26 C 50.71 47.95 48.62 48.03 46.79 49.11 C 46.51 48.92 45.96 48.55 45.68 48.37 Z" />
</g>
<g id="#756f60ff">
<path fill="#756f60" opacity="1.00" d=" M 143.99 50.08 C 145.75 48.30 146.95 45.08 149.78 45.04 C 150.31 46.98 150.94 48.92 151.04 50.95 C 148.72 50.70 140.84 54.37 143.99 50.08 Z" />
</g>
<g id="#717064ff">
<path fill="#717064" opacity="1.00" d=" M 192.18 45.80 C 192.40 45.50 192.83 44.89 193.05 44.58 C 195.09 45.55 197.11 46.58 199.19 47.48 C 196.68 48.42 194.41 46.72 192.18 45.80 Z" />
</g>
<g id="#8f8c7aff">
<path fill="#8f8c7a" opacity="1.00" d=" M 59.24 46.35 C 59.70 46.52 60.62 46.86 61.08 47.03 C 58.43 47.96 55.56 49.80 52.76 48.26 C 54.91 47.60 57.07 46.97 59.24 46.35 Z" />
</g>
<g id="#908d7cff">
<path fill="#908d7c" opacity="1.00" d=" M 69.74 52.75 C 72.35 50.73 74.10 43.94 78.35 46.83 C 76.04 49.40 73.50 52.19 73.85 55.93 C 70.19 60.34 59.75 57.08 62.92 65.89 C 61.32 66.79 59.68 67.62 58.01 68.37 C 57.74 68.06 57.19 67.43 56.92 67.12 C 58.14 64.11 62.14 60.95 60.13 57.62 L 59.82 57.00 C 63.10 55.57 67.33 55.68 69.74 52.75 Z" />
</g>
<g id="#b5b29eff">
<path fill="#b5b29e" opacity="1.00" d=" M 52.76 48.26 C 55.56 49.80 58.43 47.96 61.08 47.03 C 61.61 46.97 62.66 46.85 63.19 46.79 C 64.45 47.63 66.23 50.21 63.64 50.51 C 60.46 51.25 57.48 53.34 54.12 52.94 C 51.56 51.91 49.08 50.66 46.79 49.11 C 48.62 48.03 50.71 47.95 52.76 48.26 Z" />
</g>
<g id="#a3a08efe">
<path fill="#a3a08e" opacity="1.00" d=" M 202.23 47.03 L 203.11 46.89 C 204.52 47.23 205.48 48.71 204.72 50.11 C 203.37 51.57 201.96 52.98 200.52 54.35 C 199.04 54.75 196.11 54.35 197.12 56.77 C 203.92 58.15 209.01 63.15 215.03 66.15 C 213.97 63.59 211.90 61.63 210.78 59.10 C 213.44 60.19 216.00 61.55 218.79 62.30 C 221.75 66.31 221.42 73.32 217.77 77.05 C 215.59 74.06 212.60 73.28 209.13 73.19 C 209.86 68.47 206.64 64.26 202.20 62.96 L 201.51 62.67 L 200.99 61.92 C 200.29 60.76 199.34 59.77 198.15 59.14 L 197.36 58.65 C 196.42 56.93 195.05 56.05 193.09 56.73 C 192.11 54.26 190.67 51.85 190.97 49.09 C 193.87 47.25 201.46 51.82 202.23 47.03 Z" />
</g>
<g id="#8f8c7cff">
<path fill="#8f8c7c" opacity="1.00" d=" M 37.30 49.19 C 39.99 49.58 42.93 49.99 44.84 52.17 C 47.42 54.50 51.22 55.61 52.67 59.06 C 53.21 60.35 53.76 61.63 54.30 62.92 C 52.79 63.17 49.77 63.66 48.26 63.91 C 46.77 60.75 44.68 58.13 41.98 56.03 C 38.01 55.58 39.49 52.86 39.62 50.79 C 37.93 51.65 36.44 52.84 34.88 53.90 C 35.59 52.28 36.42 50.72 37.30 49.19 Z" />
</g>
<g id="#c1bea9fd">
<path fill="#c1bea9" opacity="1.00" d=" M 200.52 54.35 C 201.96 52.98 203.37 51.57 204.72 50.11 C 209.84 53.33 220.05 54.38 218.79 62.30 C 216.00 61.55 213.44 60.19 210.78 59.10 C 211.90 61.63 213.97 63.59 215.03 66.15 C 209.01 63.15 203.92 58.15 197.12 56.77 C 196.11 54.35 199.04 54.75 200.52 54.35 Z" />
</g>
<g id="#817d6bfe">
<path fill="#817d6b" opacity="1.00" d=" M 34.88 53.90 C 36.44 52.84 37.93 51.65 39.62 50.79 C 39.49 52.86 38.01 55.58 41.98 56.03 C 44.68 58.13 46.77 60.75 48.26 63.91 C 49.77 63.66 52.79 63.17 54.30 62.92 C 54.50 63.24 54.88 63.89 55.07 64.22 C 55.64 65.21 56.17 66.24 56.92 67.12 C 57.19 67.43 57.74 68.06 58.01 68.37 C 55.26 69.85 53.72 72.69 51.98 75.15 C 57.23 73.39 60.83 66.96 67.30 69.73 C 67.07 73.58 61.73 74.51 59.02 75.94 C 56.25 76.08 53.47 76.04 50.74 76.54 C 48.93 76.58 47.62 74.72 46.00 74.02 C 42.51 75.72 39.18 77.95 34.98 77.03 L 35.30 76.32 C 37.02 74.01 32.59 75.66 31.87 74.10 C 29.91 71.11 26.44 70.56 23.01 70.82 C 23.89 67.16 25.13 63.52 27.20 60.34 C 28.05 60.72 28.84 61.20 29.70 61.58 C 31.55 59.10 33.32 56.57 34.88 53.90 M 30.95 60.97 C 31.00 61.42 31.11 62.33 31.17 62.79 C 34.26 64.86 37.35 67.35 41.08 68.06 C 38.95 64.47 34.31 63.24 30.95 60.97 Z" />
</g>
<g id="#918e7afa">
<path fill="#918e7a" opacity="0.98" d=" M 25.66 58.24 C 29.39 60.59 31.66 55.01 34.88 53.90 C 33.32 56.57 31.55 59.10 29.70 61.58 C 28.84 61.20 28.05 60.72 27.20 60.34 C 25.13 63.52 23.89 67.16 23.01 70.82 C 26.44 70.56 29.91 71.11 31.87 74.10 C 32.59 75.66 37.02 74.01 35.30 76.32 C 33.23 76.03 30.84 76.37 29.19 74.82 C 27.08 72.77 23.78 73.45 21.72 71.39 C 20.06 70.89 16.99 75.33 16.93 72.98 C 18.23 70.41 20.11 68.22 21.89 65.99 C 23.72 63.75 25.69 61.27 25.66 58.24 Z" />
</g>
<g id="#bcbaa6ff">
<path fill="#bcbaa6" opacity="1.00" d=" M 52.67 59.06 C 53.55 56.37 58.27 52.96 59.82 57.00 L 60.13 57.62 C 57.86 59.33 56.48 61.81 55.07 64.22 C 54.88 63.89 54.50 63.24 54.30 62.92 C 53.76 61.63 53.21 60.35 52.67 59.06 Z" />
</g>
<g id="#a3a08dfb">
<path fill="#a3a08d" opacity="1.00" d=" M 23.37 57.67 C 23.37 56.81 23.91 56.22 25.00 55.91 C 25.16 56.49 25.50 57.66 25.66 58.24 C 25.69 61.27 23.72 63.75 21.89 65.99 C 21.69 63.08 24.02 60.51 23.37 57.67 Z" />
</g>
<g id="#7b7662fe">
<path fill="#7b7662" opacity="1.00" d=" M 62.92 65.89 C 59.75 57.08 70.19 60.34 73.85 55.93 C 74.14 59.21 73.77 62.72 75.13 65.79 C 73.08 67.02 70.68 68.03 68.26 67.92 C 67.86 64.81 65.32 64.48 62.92 65.89 Z" />
</g>
<g id="#c1bfadff">
<path fill="#c1bfad" opacity="1.00" d=" M 193.09 56.73 C 195.05 56.05 196.42 56.93 197.36 58.65 C 192.41 60.88 188.73 64.85 184.77 68.42 C 184.38 68.00 183.60 67.17 183.21 66.75 C 182.88 66.34 182.23 65.53 181.90 65.13 C 181.30 64.41 180.67 63.72 180.02 63.05 C 182.03 62.02 184.04 60.98 186.04 59.94 C 188.36 58.80 190.67 57.63 193.09 56.73 Z" />
</g>
<g id="#8e8a80ff">
<path fill="#8e8a80" opacity="1.00" d=" M 121.28 57.31 C 121.73 57.22 122.63 57.03 123.08 56.93 C 121.71 59.19 118.92 60.30 116.96 62.07 C 116.72 59.54 119.32 58.21 121.28 57.31 Z" />
</g>
<g id="#b4b3a3f8">
<path fill="#b4b3a3" opacity="0.97" d=" M 14.27 68.28 C 17.33 64.77 20.17 61.00 23.37 57.67 C 24.02 60.51 21.69 63.08 21.89 65.99 C 20.11 68.22 18.23 70.41 16.93 72.98 C 14.46 72.62 13.14 70.66 14.27 68.28 Z" />
</g>
<g id="#a6a493ff">
<path fill="#a6a493" opacity="1.00" d=" M 55.07 64.22 C 56.48 61.81 57.86 59.33 60.13 57.62 C 62.14 60.95 58.14 64.11 56.92 67.12 C 56.17 66.24 55.64 65.21 55.07 64.22 Z" />
</g>
<g id="#a09d8cfd">
<path fill="#a09d8c" opacity="1.00" d=" M 82.14 58.99 C 83.36 58.94 84.58 59.00 85.79 59.15 C 87.89 63.60 88.19 68.86 91.14 72.90 C 92.68 73.28 93.36 72.63 93.20 70.94 C 93.78 72.02 94.30 73.12 94.84 74.22 L 95.09 75.10 C 94.82 79.44 89.56 75.21 87.06 75.00 C 83.68 76.88 79.31 78.58 79.16 83.02 C 79.89 86.34 83.10 89.67 87.03 88.00 C 90.97 87.70 93.27 92.85 97.63 90.51 C 102.10 89.21 106.60 89.58 111.13 89.96 C 113.66 90.03 116.19 90.11 118.73 90.21 C 120.21 91.75 122.32 92.15 124.26 92.81 C 120.62 93.69 116.95 94.62 113.94 96.96 C 111.30 97.47 108.48 98.54 105.97 97.02 C 103.01 95.70 99.06 96.50 97.17 99.25 C 96.15 102.10 98.48 104.37 99.67 106.71 C 96.93 109.25 93.36 109.90 89.99 111.15 C 88.81 113.76 93.60 115.56 92.28 117.37 C 85.25 113.98 77.53 110.71 73.73 103.29 C 71.77 98.25 68.27 92.51 71.15 87.13 C 72.68 84.92 73.04 79.89 75.71 79.34 C 78.69 81.17 76.60 73.33 78.60 73.59 C 83.60 70.64 83.07 64.02 82.14 58.99 M 78.26 92.17 C 73.72 94.96 76.16 101.68 80.16 103.86 C 82.44 106.64 84.77 102.86 86.05 101.03 C 89.36 95.87 84.38 88.81 78.26 92.17 Z" />
</g>
<g id="#afad9cff">
<path fill="#afad9c" opacity="1.00" d=" M 184.77 68.42 C 188.73 64.85 192.41 60.88 197.36 58.65 L 198.15 59.14 C 196.31 63.44 191.81 65.60 189.39 69.47 C 187.82 71.75 185.28 71.01 184.77 68.42 Z" />
</g>
<g id="#9c9988ff">
<path fill="#9c9988" opacity="1.00" d=" M 198.15 59.14 C 199.34 59.77 200.29 60.76 200.99 61.92 C 196.76 64.72 192.67 67.92 190.73 72.74 C 188.67 73.22 185.79 75.10 184.19 72.83 C 182.50 71.69 183.19 69.46 183.02 67.75 L 183.21 66.75 C 183.60 67.17 184.38 68.00 184.77 68.42 C 185.28 71.01 187.82 71.75 189.39 69.47 C 191.81 65.60 196.31 63.44 198.15 59.14 Z" />
</g>
<g id="#635f51ff">
<path fill="#635f51" opacity="1.00" d=" M 30.95 60.97 C 34.31 63.24 38.95 64.47 41.08 68.06 C 37.35 67.35 34.26 64.86 31.17 62.79 C 31.11 62.33 31.00 61.42 30.95 60.97 Z" />
</g>
<g id="#908e7cfc">
<path fill="#908e7c" opacity="1.00" d=" M 190.73 72.74 C 192.67 67.92 196.76 64.72 200.99 61.92 L 201.51 62.67 C 200.63 64.99 197.99 65.87 196.93 68.01 C 197.50 69.29 198.53 70.29 199.37 71.41 C 199.00 72.71 197.88 73.98 198.80 75.32 C 197.05 76.72 194.96 77.80 193.67 79.69 C 191.79 79.24 189.94 78.71 188.08 78.21 C 186.20 81.84 185.04 85.89 183.68 89.75 C 184.62 93.44 181.60 97.14 178.01 97.77 C 177.40 93.31 172.76 98.59 171.05 100.12 C 172.15 97.10 174.69 95.09 176.58 92.61 C 180.17 88.20 181.22 82.43 183.52 77.36 C 182.41 76.52 181.27 75.71 180.14 74.89 C 180.94 72.70 181.65 70.47 182.23 68.20 L 183.02 67.75 C 183.19 69.46 182.50 71.69 184.19 72.83 C 185.79 75.10 188.67 73.22 190.73 72.74 Z" />
</g>
<g id="#b9b6a3ff">
<path fill="#b9b6a3" opacity="1.00" d=" M 165.19 66.90 C 167.87 65.16 170.67 63.51 173.83 62.81 C 175.63 62.92 177.43 63.02 179.24 63.11 C 178.74 66.41 174.66 64.51 172.26 65.26 C 170.03 66.90 168.70 69.36 167.66 71.86 C 166.47 73.12 165.24 74.41 164.61 76.06 C 164.14 75.71 163.20 75.01 162.73 74.66 C 163.54 72.07 164.67 69.57 165.19 66.90 Z" />
</g>
<g id="#9d9a8aff">
<path fill="#9d9a8a" opacity="1.00" d=" M 179.24 63.11 L 180.02 63.05 C 180.67 63.72 181.30 64.41 181.90 65.13 C 177.15 67.43 171.85 68.29 167.66 71.86 C 168.70 69.36 170.03 66.90 172.26 65.26 C 174.66 64.51 178.74 66.41 179.24 63.11 Z" />
</g>
<g id="#7f7b6bff">
<path fill="#7f7b6b" opacity="1.00" d=" M 201.51 62.67 L 202.20 62.96 C 202.54 64.50 204.58 66.49 202.76 67.73 C 200.80 68.97 201.34 71.08 201.96 72.91 C 200.90 73.71 199.86 74.54 198.80 75.32 C 197.88 73.98 199.00 72.71 199.37 71.41 C 198.53 70.29 197.50 69.29 196.93 68.01 C 197.99 65.87 200.63 64.99 201.51 62.67 Z" />
</g>
<g id="#939081ff">
<path fill="#939081" opacity="1.00" d=" M 202.20 62.96 C 206.64 64.26 209.86 68.47 209.13 73.19 C 207.07 70.53 204.40 71.23 201.96 72.91 C 201.34 71.08 200.80 68.97 202.76 67.73 C 204.58 66.49 202.54 64.50 202.20 62.96 Z" />
</g>
<g id="#676351fd">
<path fill="#676351" opacity="1.00" d=" M 62.92 65.89 C 65.32 64.48 67.86 64.81 68.26 67.92 C 68.02 68.37 67.54 69.28 67.30 69.73 C 60.83 66.96 57.23 73.39 51.98 75.15 C 53.72 72.69 55.26 69.85 58.01 68.37 C 59.68 67.62 61.32 66.79 62.92 65.89 Z" />
</g>
<g id="#86836eff">
<path fill="#86836e" opacity="1.00" d=" M 167.66 71.86 C 171.85 68.29 177.15 67.43 181.90 65.13 C 182.23 65.53 182.88 66.34 183.21 66.75 L 183.02 67.75 L 182.23 68.20 C 179.57 70.75 172.86 67.87 173.06 71.89 C 175.33 73.11 178.10 73.20 180.14 74.89 C 181.27 75.71 182.41 76.52 183.52 77.36 C 181.22 82.43 180.17 88.20 176.58 92.61 C 174.69 95.09 172.15 97.10 171.05 100.12 C 170.09 101.28 169.09 102.41 168.09 103.54 C 166.24 100.84 169.29 97.82 169.05 94.86 C 164.59 97.29 165.21 103.48 161.76 106.75 C 158.83 108.73 155.79 110.51 152.82 112.42 C 152.25 109.04 156.85 106.91 157.96 103.95 C 162.36 97.54 170.07 91.06 167.85 82.30 C 165.51 80.45 163.08 78.64 160.28 77.55 C 159.29 75.75 161.65 75.42 162.73 74.66 C 163.20 75.01 164.14 75.71 164.61 76.06 C 167.33 78.54 170.81 75.64 173.22 74.06 C 170.74 73.96 166.94 76.00 167.66 71.86 Z" />
</g>
<g id="#818176ff">
<path fill="#818176" opacity="1.00" d=" M 92.81 70.18 C 91.77 67.56 95.19 65.27 95.04 68.86 C 95.01 69.68 94.95 71.32 94.93 72.13 C 94.91 72.65 94.87 73.70 94.84 74.22 C 94.30 73.12 93.78 72.02 93.20 70.94 L 92.81 70.18 Z" />
</g>
<g id="#a5a396ff">
<path fill="#a5a396" opacity="1.00" d=" M 95.83 68.64 C 100.48 67.35 105.42 67.93 110.18 67.23 C 109.64 69.59 108.35 72.15 109.87 74.43 C 109.68 74.79 109.31 75.50 109.12 75.86 C 108.67 75.64 107.76 75.18 107.31 74.95 C 105.77 74.40 102.94 71.26 101.96 73.00 C 101.01 72.37 100.07 71.72 99.12 71.09 C 98.01 70.29 96.93 69.45 95.83 68.64 Z" />
</g>
<g id="#727168ff">
<path fill="#727168" opacity="1.00" d=" M 110.18 67.23 L 111.04 67.18 C 110.96 69.68 110.57 72.09 109.87 74.43 C 108.35 72.15 109.64 69.59 110.18 67.23 Z" />
</g>
<g id="#a2a092ff">
<path fill="#a2a092" opacity="1.00" d=" M 111.04 67.18 C 111.89 67.77 112.68 68.43 113.52 69.04 C 113.73 70.73 114.01 72.42 114.44 74.08 C 113.85 77.18 111.49 77.33 109.12 75.86 C 109.31 75.50 109.68 74.79 109.87 74.43 C 110.57 72.09 110.96 69.68 111.04 67.18 Z" />
</g>
<g id="#74716aff">
<path fill="#74716a" opacity="1.00" d=" M 113.52 69.04 C 113.92 68.61 114.73 67.74 115.13 67.31 C 115.48 69.61 115.25 71.87 114.44 74.08 C 114.01 72.42 113.73 70.73 113.52 69.04 Z" />
</g>
<g id="#959282ff">
<path fill="#959282" opacity="1.00" d=" M 115.13 67.31 L 115.93 66.98 C 115.93 68.33 115.95 69.67 115.96 71.02 C 115.67 73.52 115.86 75.87 119.00 75.08 C 118.79 75.60 118.37 76.64 118.16 77.15 C 115.89 80.44 110.94 78.45 107.78 79.79 C 101.83 80.04 95.94 80.83 90.00 81.15 C 89.64 83.39 90.21 85.58 92.24 86.79 C 97.21 87.51 102.26 86.68 107.25 86.65 C 108.65 86.96 111.47 87.56 112.87 87.86 C 111.55 87.99 110.23 88.09 108.91 88.18 C 109.64 88.79 110.38 89.38 111.13 89.96 C 106.60 89.58 102.10 89.21 97.63 90.51 C 93.27 92.85 90.97 87.70 87.03 88.00 C 83.10 89.67 79.89 86.34 79.16 83.02 C 79.31 78.58 83.68 76.88 87.06 75.00 C 89.56 75.21 94.82 79.44 95.09 75.10 L 95.84 75.36 C 99.27 76.85 103.09 77.32 106.79 76.86 C 106.92 76.38 107.18 75.43 107.31 74.95 C 107.76 75.18 108.67 75.64 109.12 75.86 C 111.49 77.33 113.85 77.18 114.44 74.08 C 115.25 71.87 115.48 69.61 115.13 67.31 Z" />
</g>
<g id="#7b7765ff">
<path fill="#7b7765" opacity="1.00" d=" M 173.06 71.89 C 172.86 67.87 179.57 70.75 182.23 68.20 C 181.65 70.47 180.94 72.70 180.14 74.89 C 178.10 73.20 175.33 73.11 173.06 71.89 Z" />
</g>
<g id="#dededcff">
<path fill="#dededc" opacity="1.00" d=" M 95.04 68.86 L 95.83 68.64 C 96.93 69.45 98.01 70.29 99.12 71.09 C 99.61 74.11 96.55 72.62 94.93 72.13 C 94.95 71.32 95.01 69.68 95.04 68.86 Z" />
</g>
<g id="#63615cff">
<path fill="#63615c" opacity="1.00" d=" M 129.79 70.72 C 131.32 69.70 133.01 68.74 134.93 68.97 C 134.89 70.81 134.82 74.50 134.78 76.34 C 129.97 79.86 123.62 77.49 118.16 77.15 C 118.37 76.64 118.79 75.60 119.00 75.08 C 120.79 74.19 122.54 72.77 124.67 73.05 C 124.32 76.45 127.27 76.20 129.77 76.00 C 132.56 76.68 134.86 74.75 133.93 71.86 C 133.98 70.09 130.96 71.31 129.79 70.72 Z" />
</g>
<g id="#c6c6c6ff">
<path fill="#c6c6c6" opacity="1.00" d=" M 99.12 71.09 C 100.07 71.72 101.01 72.37 101.96 73.00 C 101.70 75.70 99.66 76.48 95.84 75.36 L 95.09 75.10 L 94.84 74.22 C 94.87 73.70 94.91 72.65 94.93 72.13 C 96.55 72.62 99.61 74.11 99.12 71.09 Z" />
</g>
<g id="#b1b09ffe">
<path fill="#b1b09f" opacity="1.00" d=" M 201.96 72.91 C 204.40 71.23 207.07 70.53 209.13 73.19 C 209.63 78.75 203.41 81.54 202.67 86.78 C 202.18 87.86 201.35 88.23 200.18 87.90 C 197.72 85.40 195.64 82.57 193.67 79.69 C 194.96 77.80 197.05 76.72 198.80 75.32 C 199.86 74.54 200.90 73.71 201.96 72.91 Z" />
</g>
<g id="#666560ff">
<path fill="#666560" opacity="1.00" d=" M 101.96 73.00 C 102.94 71.26 105.77 74.40 107.31 74.95 C 107.18 75.43 106.92 76.38 106.79 76.86 C 103.09 77.32 99.27 76.85 95.84 75.36 C 99.66 76.48 101.70 75.70 101.96 73.00 Z" />
</g>
<g id="#838282ff">
<path fill="#838282" opacity="1.00" d=" M 129.77 76.00 C 130.30 73.89 131.77 72.30 133.93 71.86 C 134.86 74.75 132.56 76.68 129.77 76.00 Z" />
</g>
<g id="#999582ff">
<path fill="#999582" opacity="1.00" d=" M 164.61 76.06 C 165.24 74.41 166.47 73.12 167.66 71.86 C 166.94 76.00 170.74 73.96 173.22 74.06 C 170.81 75.64 167.33 78.54 164.61 76.06 Z" />
</g>
<g id="#95927ffb">
<path fill="#95927f" opacity="1.00" d=" M 209.13 73.19 C 212.60 73.28 215.59 74.06 217.77 77.05 C 216.10 80.77 212.65 83.84 209.73 86.81 C 207.97 86.80 204.44 86.79 202.67 86.78 C 203.41 81.54 209.63 78.75 209.13 73.19 Z" />
</g>
<g id="#403d36a7">
<path fill="#403d36" opacity="0.65" d=" M 50.74 76.54 C 53.47 76.04 56.25 76.08 59.02 75.94 C 58.13 78.29 53.16 76.63 50.74 76.54 Z" />
</g>
<g id="#847e6fff">
<path fill="#847e6f" opacity="1.00" d=" M 133.79 81.45 C 139.94 80.11 145.54 76.82 151.90 76.21 C 152.98 77.14 152.91 78.59 153.11 79.88 C 152.49 80.89 151.84 81.88 151.27 82.91 L 150.93 83.51 C 149.43 85.09 147.92 86.67 146.26 88.08 C 147.11 85.43 145.89 82.80 143.76 81.15 C 140.64 80.98 137.83 82.97 134.98 84.04 C 132.38 84.00 129.80 83.91 127.21 83.78 C 123.10 83.24 118.95 83.14 114.82 82.80 C 114.73 80.09 117.43 81.93 118.99 81.77 C 123.87 80.78 128.85 81.30 133.79 81.45 Z" />
</g>
<g id="#918e7cfe">
<path fill="#918e7c" opacity="1.00" d=" M 153.84 79.65 C 158.85 76.70 168.50 81.74 166.01 87.97 C 160.99 97.30 154.83 105.98 147.95 114.08 C 149.72 114.06 151.41 113.50 152.82 112.42 C 155.79 110.51 158.83 108.73 161.76 106.75 C 165.21 103.48 164.59 97.29 169.05 94.86 C 169.29 97.82 166.24 100.84 168.09 103.54 C 167.16 105.10 166.01 106.53 165.04 108.07 C 164.09 109.22 164.04 110.75 163.75 112.15 C 163.19 111.16 162.76 109.46 161.28 110.34 C 155.50 112.67 150.01 115.88 144.60 118.90 C 143.96 120.06 142.87 121.28 143.17 122.70 C 145.69 124.27 147.94 126.21 149.19 128.98 C 147.44 128.97 143.93 128.97 142.18 128.96 C 139.57 126.87 141.22 123.02 142.00 120.31 C 141.55 120.33 140.64 120.38 140.19 120.40 C 138.49 120.22 136.78 120.12 135.08 119.99 C 135.83 118.71 135.67 117.76 134.04 117.52 C 137.64 114.89 143.65 115.61 144.87 110.35 C 139.66 109.74 137.98 103.59 138.06 99.18 C 141.53 96.50 146.57 95.80 150.66 97.29 C 151.66 99.13 152.46 101.07 153.34 102.97 C 158.15 98.70 161.16 92.63 163.95 86.91 C 164.65 81.41 157.80 80.59 153.84 79.65 M 139.97 102.10 C 141.21 101.33 142.17 100.22 143.25 99.25 C 144.28 99.75 145.20 100.45 146.23 100.98 C 146.25 96.03 139.36 98.11 139.97 102.10 M 146.23 100.98 C 145.91 102.31 146.13 103.95 144.78 104.75 C 143.68 105.12 140.84 104.71 142.72 106.34 C 144.76 107.67 150.76 102.53 146.23 100.98 Z" />
</g>
<g id="#989585ff">
<path fill="#989585" opacity="1.00" d=" M 153.11 79.88 L 153.84 79.65 C 157.80 80.59 164.65 81.41 163.95 86.91 C 161.16 92.63 158.15 98.70 153.34 102.97 C 152.46 101.07 151.66 99.13 150.66 97.29 C 146.57 95.80 141.53 96.50 138.06 99.18 C 137.98 103.59 139.66 109.74 144.87 110.35 C 143.65 115.61 137.64 114.89 134.04 117.52 C 135.67 117.76 135.83 118.71 135.08 119.99 C 132.05 119.96 130.09 115.98 130.03 113.25 C 132.66 112.74 135.30 112.27 137.93 111.72 C 138.16 107.23 135.05 102.82 136.25 98.34 C 141.66 94.18 149.56 95.49 154.43 90.54 C 156.17 89.66 159.85 89.87 159.03 87.00 C 159.24 83.13 154.21 82.22 151.27 82.91 C 151.84 81.88 152.49 80.89 153.11 79.88 Z" />
</g>
<g id="#7b7665ff">
<path fill="#7b7665" opacity="1.00" d=" M 134.98 84.04 C 137.83 82.97 140.64 80.98 143.76 81.15 C 145.89 82.80 147.11 85.43 146.26 88.08 C 143.33 86.09 140.11 88.38 137.01 88.64 C 133.36 87.45 129.52 87.16 125.78 86.41 C 128.98 86.18 132.24 85.84 134.98 84.04 Z" />
</g>
<g id="#827e6eff">
<path fill="#827e6e" opacity="1.00" d=" M 93.10 84.85 C 91.88 81.63 94.58 81.69 97.01 82.01 C 96.77 82.51 96.28 83.51 96.04 84.01 C 105.93 85.10 115.91 84.98 125.78 86.41 C 129.52 87.16 133.36 87.45 137.01 88.64 C 140.11 88.38 143.33 86.09 146.26 88.08 C 143.68 90.20 140.66 91.72 137.83 93.47 C 137.23 93.33 136.02 93.05 135.41 92.92 C 133.28 90.12 129.85 89.23 126.60 88.45 C 123.30 86.13 121.08 88.72 118.73 90.21 C 116.19 90.11 113.66 90.03 111.13 89.96 C 110.38 89.38 109.64 88.79 108.91 88.18 C 110.23 88.09 111.55 87.99 112.87 87.86 C 111.47 87.56 108.65 86.96 107.25 86.65 C 102.54 85.97 97.74 85.92 93.10 84.85 Z" />
</g>
<g id="#66594dff">
<path fill="#66594d" opacity="1.00" d=" M 97.01 82.01 C 98.60 82.11 100.17 82.42 101.75 82.61 C 110.10 84.51 118.72 84.04 127.21 83.78 C 129.80 83.91 132.38 84.00 134.98 84.04 C 132.24 85.84 128.98 86.18 125.78 86.41 C 115.91 84.98 105.93 85.10 96.04 84.01 C 96.28 83.51 96.77 82.51 97.01 82.01 Z" />
</g>
<g id="#a57c7dff">
<path fill="#a57c7d" opacity="1.00" d=" M 101.75 82.61 C 106.10 81.75 110.47 82.29 114.82 82.80 C 118.95 83.14 123.10 83.24 127.21 83.78 C 118.72 84.04 110.10 84.51 101.75 82.61 Z" />
</g>
<g id="#a09d8cfe">
<path fill="#a09d8c" opacity="1.00" d=" M 151.27 82.91 C 154.21 82.22 159.24 83.13 159.03 87.00 C 159.85 89.87 156.17 89.66 154.43 90.54 C 149.56 95.49 141.66 94.18 136.25 98.34 C 135.05 102.82 138.16 107.23 137.93 111.72 C 135.30 112.27 132.66 112.74 130.03 113.25 C 130.09 115.98 132.05 119.96 135.08 119.99 C 136.78 120.12 138.49 120.22 140.19 120.40 C 136.99 122.70 132.77 122.13 129.30 120.76 C 125.02 116.83 118.93 117.89 113.84 115.99 C 113.66 115.49 113.30 114.48 113.13 113.98 C 116.42 114.88 119.63 116.15 123.14 116.00 C 122.42 115.03 121.64 114.12 120.85 113.21 C 123.42 112.10 125.82 110.68 128.29 109.40 C 131.37 109.13 137.48 112.69 133.99 105.04 C 134.28 103.45 131.99 103.56 131.11 102.82 C 128.59 102.11 129.81 98.32 129.10 96.29 C 130.97 95.95 133.08 95.93 134.21 94.13 C 134.51 93.83 135.11 93.22 135.41 92.92 C 136.02 93.05 137.23 93.33 137.83 93.47 C 142.32 94.61 145.80 89.69 149.46 87.51 C 150.98 86.63 152.94 85.16 150.93 83.51 L 151.27 82.91 Z" />
</g>
<g id="#b6b199ff">
<path fill="#b6b199" opacity="1.00" d=" M 146.26 88.08 C 147.92 86.67 149.43 85.09 150.93 83.51 C 152.94 85.16 150.98 86.63 149.46 87.51 C 145.80 89.69 142.32 94.61 137.83 93.47 C 140.66 91.72 143.68 90.20 146.26 88.08 Z" />
</g>
<g id="#918e7eff">
<path fill="#918e7e" opacity="1.00" d=" M 118.73 90.21 C 121.08 88.72 123.30 86.13 126.60 88.45 C 129.85 89.23 133.28 90.12 135.41 92.92 C 135.11 93.22 134.51 93.83 134.21 94.13 C 130.93 93.42 127.59 93.14 124.26 92.81 C 122.32 92.15 120.21 91.75 118.73 90.21 Z" />
</g>
<g id="#aba998ff">
<path fill="#aba998" opacity="1.00" d=" M 113.94 96.96 C 116.95 94.62 120.62 93.69 124.26 92.81 C 127.59 93.14 130.93 93.42 134.21 94.13 C 133.08 95.93 130.97 95.95 129.10 96.29 C 129.81 98.32 128.59 102.11 131.11 102.82 C 131.99 103.56 134.28 103.45 133.99 105.04 C 137.48 112.69 131.37 109.13 128.29 109.40 C 125.82 110.68 123.42 112.10 120.85 113.21 C 119.75 112.17 118.67 111.10 117.61 110.03 C 119.42 107.47 123.55 106.78 124.55 103.93 C 124.66 101.99 125.84 99.35 123.75 98.11 C 119.39 94.82 116.52 104.56 114.00 98.82 C 113.98 98.35 113.95 97.42 113.94 96.96 Z" />
</g>
<g id="#747367ff">
<path fill="#747367" opacity="1.00" d=" M 80.35 95.20 C 81.83 94.60 83.74 96.43 83.74 97.87 C 82.36 100.24 80.66 96.33 80.35 95.20 Z" />
</g>
<g id="#989583fd">
<path fill="#989583" opacity="1.00" d=" M 97.17 99.25 C 99.06 96.50 103.01 95.70 105.97 97.02 C 108.48 98.54 111.30 97.47 113.94 96.96 C 113.95 97.42 113.98 98.35 114.00 98.82 L 113.15 99.06 C 109.21 100.49 105.07 99.29 101.06 99.05 C 99.62 98.91 98.69 100.49 99.11 101.77 C 100.35 102.27 101.61 102.71 102.88 103.10 C 102.87 104.75 103.17 106.88 101.18 107.49 C 104.92 113.25 111.82 105.19 115.90 108.82 C 116.33 109.12 117.18 109.73 117.61 110.03 C 118.67 111.10 119.75 112.17 120.85 113.21 C 121.64 114.12 122.42 115.03 123.14 116.00 C 119.63 116.15 116.42 114.88 113.13 113.98 C 113.30 114.48 113.66 115.49 113.84 115.99 C 112.55 117.04 111.30 118.14 110.03 119.22 C 105.42 120.77 100.64 121.01 95.87 120.09 C 97.02 121.75 98.39 123.69 100.66 122.56 C 104.01 121.12 106.65 124.38 108.17 126.94 C 106.44 126.97 104.72 127.00 102.99 127.03 C 97.96 126.91 92.91 126.20 88.08 124.76 C 84.95 118.43 89.78 119.92 92.28 117.37 C 93.60 115.56 88.81 113.76 89.99 111.15 C 93.36 109.90 96.93 109.25 99.67 106.71 C 98.48 104.37 96.15 102.10 97.17 99.25 M 103.34 110.47 C 100.44 110.85 97.74 111.95 95.14 113.26 C 94.27 115.53 96.19 117.10 97.97 118.05 C 101.52 120.32 105.92 118.23 109.76 117.72 C 110.91 116.74 112.23 115.73 112.09 114.03 C 109.71 115.19 105.45 117.85 104.01 114.21 C 106.70 112.91 110.57 112.94 112.12 110.04 C 109.19 109.87 106.23 110.07 103.34 110.47 Z" />
</g>
<g id="#9c9b88fc">
<path fill="#9c9b88" opacity="1.00" d=" M 171.05 100.12 C 172.76 98.59 177.40 93.31 178.01 97.77 C 173.51 100.84 171.48 108.29 165.04 108.07 C 166.01 106.53 167.16 105.10 168.09 103.54 C 169.09 102.41 170.09 101.28 171.05 100.12 Z" />
</g>
<g id="#a09d8cff">
<path fill="#a09d8c" opacity="1.00" d=" M 114.00 98.82 C 116.52 104.56 119.39 94.82 123.75 98.11 C 125.84 99.35 124.66 101.99 124.55 103.93 C 120.80 104.52 116.17 104.10 115.90 108.82 C 111.82 105.19 104.92 113.25 101.18 107.49 C 103.17 106.88 102.87 104.75 102.88 103.10 C 104.59 98.09 112.03 104.78 113.15 99.06 L 114.00 98.82 Z" />
</g>
<g id="#79776bff">
<path fill="#79776b" opacity="1.00" d=" M 139.97 102.10 C 139.36 98.11 146.25 96.03 146.23 100.98 C 145.20 100.45 144.28 99.75 143.25 99.25 C 142.17 100.22 141.21 101.33 139.97 102.10 Z" />
</g>
<g id="#898673ff">
<path fill="#898673" opacity="1.00" d=" M 99.11 101.77 C 98.69 100.49 99.62 98.91 101.06 99.05 C 105.07 99.29 109.21 100.49 113.15 99.06 C 112.03 104.78 104.59 98.09 102.88 103.10 C 101.61 102.71 100.35 102.27 99.11 101.77 Z" />
</g>
<g id="#7b786aff">
<path fill="#7b786a" opacity="1.00" d=" M 146.23 100.98 C 150.76 102.53 144.76 107.67 142.72 106.34 C 140.84 104.71 143.68 105.12 144.78 104.75 C 146.13 103.95 145.91 102.31 146.23 100.98 Z" />
</g>
<g id="#c8c5aeff">
<path fill="#c8c5ae" opacity="1.00" d=" M 115.90 108.82 C 116.17 104.10 120.80 104.52 124.55 103.93 C 123.55 106.78 119.42 107.47 117.61 110.03 C 117.18 109.73 116.33 109.12 115.90 108.82 Z" />
</g>
<g id="#8f8b78ff">
<path fill="#8f8b78" opacity="1.00" d=" M 103.34 110.47 C 106.23 110.07 109.19 109.87 112.12 110.04 C 110.57 112.94 106.70 112.91 104.01 114.21 C 105.45 117.85 109.71 115.19 112.09 114.03 C 112.23 115.73 110.91 116.74 109.76 117.72 C 105.92 118.23 101.52 120.32 97.97 118.05 C 96.19 117.10 94.27 115.53 95.14 113.26 C 97.74 111.95 100.44 110.85 103.34 110.47 Z" />
</g>
<g id="#716b5bff">
<path fill="#716b5b" opacity="1.00" d=" M 161.28 110.34 C 162.76 109.46 163.19 111.16 163.75 112.15 C 164.08 113.39 164.13 114.66 163.93 115.94 C 159.20 120.27 151.56 123.66 145.31 120.64 C 145.14 120.21 144.78 119.33 144.60 118.90 C 150.01 115.88 155.50 112.67 161.28 110.34 Z" />
</g>
<g id="#726d5cfb">
<path fill="#726d5c" opacity="1.00" d=" M 110.03 119.22 C 111.30 118.14 112.55 117.04 113.84 115.99 C 118.93 117.89 125.02 116.83 129.30 120.76 C 129.31 122.24 128.54 123.74 126.94 123.95 C 122.72 124.96 118.49 126.00 114.24 126.86 C 110.29 126.38 110.73 122.30 110.03 119.22 Z" />
</g>
<g id="#837e6efe">
<path fill="#837e6e" opacity="1.00" d=" M 145.31 120.64 C 151.56 123.66 159.20 120.27 163.93 115.94 C 164.10 116.45 164.45 117.45 164.63 117.95 C 162.66 121.38 160.21 124.66 160.94 128.97 L 160.05 128.97 C 158.21 127.98 158.04 125.94 157.60 124.11 C 156.03 124.11 152.87 124.11 151.30 124.11 C 150.91 125.74 150.59 127.38 150.11 128.99 L 149.19 128.98 C 147.94 126.21 145.69 124.27 143.17 122.70 C 142.87 121.28 143.96 120.06 144.60 118.90 C 144.78 119.33 145.14 120.21 145.31 120.64 Z" />
</g>
<g id="#938f7efa">
<path fill="#938f7e" opacity="0.98" d=" M 160.94 128.97 C 160.21 124.66 162.66 121.38 164.63 117.95 C 167.64 119.97 173.60 126.99 167.96 129.00 C 166.20 128.99 162.70 128.98 160.94 128.97 Z" />
</g>
<g id="#888473ff">
<path fill="#888473" opacity="1.00" d=" M 95.87 120.09 C 100.64 121.01 105.42 120.77 110.03 119.22 C 110.73 122.30 110.29 126.38 114.24 126.86 L 113.15 126.91 C 111.49 126.95 109.83 126.96 108.17 126.94 C 106.65 124.38 104.01 121.12 100.66 122.56 C 98.39 123.69 97.02 121.75 95.87 120.09 Z" />
</g>
<g id="#908c7dfe">
<path fill="#908c7d" opacity="1.00" d=" M 151.30 124.11 C 152.87 124.11 156.03 124.11 157.60 124.11 C 158.04 125.94 158.21 127.98 160.05 128.97 C 156.73 128.97 153.43 129.05 150.11 128.99 C 150.59 127.38 150.91 125.74 151.30 124.11 Z" />
</g>
<g id="#1b1b166e">
<path fill="#1b1b16" opacity="0.43" d=" M 102.99 127.03 C 104.72 127.00 106.44 126.97 108.17 126.94 C 109.83 126.96 111.49 126.95 113.15 126.91 L 112.95 127.96 C 110.46 127.72 105.48 127.26 102.99 127.03 Z" />
</g>
<g id="#3f3e35a8">
<path fill="#3f3e35" opacity="0.66" d=" M 142.18 128.96 C 143.93 128.97 147.44 128.97 149.19 128.98 L 150.11 128.99 C 153.43 129.05 156.73 128.97 160.05 128.97 L 160.94 128.97 C 162.70 128.98 166.20 128.99 167.96 129.00 L 168.01 129.97 C 159.33 130.04 150.64 130.08 141.96 129.94 L 142.18 128.96 Z" />
</g>
</svg>
