<?xml version="1.0" encoding="UTF-8" ?>
<!DOCTYPE svg PUBLIC "-//W3C//DTD SVG 1.1//EN" "http://www.w3.org/Graphics/SVG/1.1/DTD/svg11.dtd">
<svg width="208pt" height="172pt" viewBox="0 0 208 172" version="1.1" xmlns="http://www.w3.org/2000/svg">
<g id="#15151249">
<path fill="#151512" opacity="0.29" d=" M 108.05 3.06 C 112.68 3.02 117.34 2.79 121.97 3.09 L 122.15 4.14 C 117.37 4.04 112.60 3.90 107.83 4.11 L 108.05 3.06 Z" />
</g>
<g id="#dcdcbff4">
<path fill="#dcdcbf" opacity="0.96" d=" M 99.80 5.56 C 102.09 5.22 104.38 3.80 106.70 4.23 C 107.25 4.44 108.36 4.87 108.91 5.08 L 109.06 6.01 C 105.96 5.98 102.86 6.09 99.80 5.56 Z" />
</g>
<g id="#f9fad6ff">
<path fill="#f9fad6" opacity="1.00" d=" M 106.70 4.23 L 107.83 4.11 C 112.60 3.90 117.37 4.04 122.15 4.14 L 123.26 4.23 C 118.51 5.02 113.71 5.02 108.91 5.08 C 108.36 4.87 107.25 4.44 106.70 4.23 Z" />
</g>
<g id="#bebfa7fd">
<path fill="#bebfa7" opacity="1.00" d=" M 123.26 4.23 C 124.50 4.06 125.74 3.97 126.99 3.97 C 129.44 6.84 125.11 5.88 123.26 6.32 C 118.53 6.12 113.80 6.06 109.06 6.01 L 108.91 5.08 C 113.71 5.02 118.51 5.02 123.26 4.23 Z" />
</g>
<g id="#79766afd">
<path fill="#79766a" opacity="1.00" d=" M 126.99 3.97 C 129.38 4.61 134.38 2.54 135.21 5.15 C 134.22 7.13 132.75 8.80 131.80 10.79 C 132.25 10.66 133.16 10.40 133.62 10.27 C 135.05 10.26 136.46 10.04 137.86 9.80 C 137.18 10.96 136.45 12.08 135.72 13.21 C 134.54 12.93 133.37 12.63 132.21 12.31 C 130.11 10.92 127.83 9.74 125.23 10.05 C 121.54 9.46 117.81 8.80 114.06 8.95 C 111.03 8.30 109.91 11.26 108.17 13.04 C 103.71 13.95 102.81 19.95 99.97 23.16 C 95.65 23.20 99.36 17.49 98.35 14.78 C 98.31 14.37 98.22 13.53 98.18 13.11 C 99.23 11.18 100.98 9.38 100.51 7.00 C 108.05 6.39 115.86 8.14 123.26 6.32 C 125.11 5.88 129.44 6.84 126.99 3.97 Z" />
</g>
<g id="#9c9c8afe">
<path fill="#9c9c8a" opacity="1.00" d=" M 95.22 7.26 C 96.91 7.12 98.24 5.73 99.80 5.56 C 102.86 6.09 105.96 5.98 109.06 6.01 C 113.80 6.06 118.53 6.12 123.26 6.32 C 115.86 8.14 108.05 6.39 100.51 7.00 C 100.98 9.38 99.23 11.18 98.18 13.11 C 92.87 14.66 88.74 18.14 85.62 22.62 C 81.31 26.25 77.72 30.81 73.04 33.92 C 72.51 33.71 71.45 33.29 70.92 33.08 C 71.13 32.53 71.56 31.43 71.78 30.88 C 79.09 28.18 81.94 19.48 88.94 15.91 C 91.65 14.20 94.71 13.10 97.28 11.18 C 95.65 11.06 92.39 10.84 90.76 10.73 C 91.81 9.90 96.79 10.29 93.77 8.97 C 92.12 8.42 94.85 7.80 95.22 7.26 Z" />
</g>
<g id="#595852f2">
<path fill="#595852" opacity="0.95" d=" M 135.21 5.15 C 136.35 5.70 136.96 7.00 137.94 7.81 C 136.34 8.31 134.93 9.25 133.62 10.27 C 133.16 10.40 132.25 10.66 131.80 10.79 C 132.75 8.80 134.22 7.13 135.21 5.15 Z" />
</g>
<g id="#716f64f4">
<path fill="#716f64" opacity="0.96" d=" M 73.96 14.92 C 80.97 12.47 87.36 6.06 95.22 7.26 C 94.85 7.80 92.12 8.42 93.77 8.97 C 96.79 10.29 91.81 9.90 90.76 10.73 C 89.44 11.20 88.21 11.87 86.98 12.52 C 83.21 15.27 77.15 15.78 74.62 19.81 C 74.02 21.24 73.95 22.82 73.70 24.33 L 72.95 24.12 C 73.22 21.04 70.61 17.02 73.96 14.92 Z" />
</g>
<g id="#b5b49efa">
<path fill="#b5b49e" opacity="0.98" d=" M 133.62 10.27 C 134.93 9.25 136.34 8.31 137.94 7.81 C 145.25 7.59 150.69 13.46 156.17 17.50 C 151.99 17.64 148.97 13.54 144.81 13.06 C 142.68 11.63 140.75 7.56 137.86 9.80 C 136.46 10.04 135.05 10.26 133.62 10.27 Z" />
</g>
<g id="#95917fff">
<path fill="#95917f" opacity="1.00" d=" M 108.17 13.04 C 109.91 11.26 111.03 8.30 114.06 8.95 C 113.06 9.88 112.09 10.85 111.51 12.11 C 110.36 14.02 109.47 16.07 108.63 18.13 L 107.97 18.21 C 106.87 18.33 105.77 18.47 104.67 18.65 C 105.83 16.78 107.00 14.91 108.17 13.04 Z" />
</g>
<g id="#d2d7b8ff">
<path fill="#d2d7b8" opacity="1.00" d=" M 114.06 8.95 C 117.81 8.80 121.54 9.46 125.23 10.05 C 120.63 10.42 116.11 12.25 111.51 12.11 C 112.09 10.85 113.06 9.88 114.06 8.95 Z" />
</g>
<g id="#68665dff">
<path fill="#68665d" opacity="1.00" d=" M 137.86 9.80 C 140.75 7.56 142.68 11.63 144.81 13.06 C 146.06 14.41 147.44 15.62 148.87 16.76 C 148.26 17.85 147.70 18.95 147.17 20.07 C 145.88 19.42 144.62 18.74 143.36 18.05 C 142.90 17.79 141.99 17.27 141.54 17.01 C 139.94 15.25 138.00 13.91 135.72 13.21 C 136.45 12.08 137.18 10.96 137.86 9.80 Z" />
</g>
<g id="#b9bba3ff">
<path fill="#b9bba3" opacity="1.00" d=" M 125.23 10.05 C 127.83 9.74 130.11 10.92 132.21 12.31 C 126.56 13.51 120.04 11.42 115.10 15.14 C 112.97 15.88 111.11 19.31 108.63 18.13 C 109.47 16.07 110.36 14.02 111.51 12.11 C 116.11 12.25 120.63 10.42 125.23 10.05 Z" />
</g>
<g id="#d0d2b2ff">
<path fill="#d0d2b2" opacity="1.00" d=" M 86.98 12.52 C 88.21 11.87 89.44 11.20 90.76 10.73 C 92.39 10.84 95.65 11.06 97.28 11.18 C 94.71 13.10 91.65 14.20 88.94 15.91 C 87.67 15.97 86.40 16.04 85.13 16.11 C 85.98 14.97 88.69 14.09 86.98 12.52 Z" />
</g>
<g id="#a7a896ff">
<path fill="#a7a896" opacity="1.00" d=" M 132.21 12.31 C 133.37 12.63 134.54 12.93 135.72 13.21 C 138.00 13.91 139.94 15.25 141.54 17.01 C 134.86 17.96 128.04 14.76 121.32 15.30 C 117.75 19.26 112.10 22.60 106.72 21.88 C 107.13 20.66 107.57 19.44 107.97 18.21 L 108.63 18.13 C 111.11 19.31 112.97 15.88 115.10 15.14 C 120.04 11.42 126.56 13.51 132.21 12.31 Z" />
</g>
<g id="#eeefccff">
<path fill="#eeefcc" opacity="1.00" d=" M 74.62 19.81 C 77.15 15.78 83.21 15.27 86.98 12.52 C 88.69 14.09 85.98 14.97 85.13 16.11 C 84.86 16.33 84.34 16.78 84.08 17.01 C 82.36 17.50 80.65 18.09 79.05 18.91 C 76.99 19.20 74.62 24.29 74.62 19.81 Z" />
</g>
<g id="#8d8e82ff">
<path fill="#8d8e82" opacity="1.00" d=" M 85.62 22.62 C 88.74 18.14 92.87 14.66 98.18 13.11 C 98.22 13.53 98.31 14.37 98.35 14.78 C 98.08 15.10 97.52 15.74 97.24 16.06 C 92.14 18.00 89.14 22.76 85.71 26.72 C 83.36 29.41 79.85 31.01 78.09 34.20 C 76.82 35.40 75.39 36.39 73.98 37.40 C 72.88 36.70 71.90 35.83 70.96 34.93 C 70.95 34.47 70.93 33.54 70.92 33.08 C 71.45 33.29 72.51 33.71 73.04 33.92 C 77.72 30.81 81.31 26.25 85.62 22.62 Z" />
</g>
<g id="#53514bff">
<path fill="#53514b" opacity="1.00" d=" M 99.97 23.16 C 102.81 19.95 103.71 13.95 108.17 13.04 C 107.00 14.91 105.83 16.78 104.67 18.65 C 103.16 20.67 101.70 22.74 100.49 24.95 C 99.15 27.47 97.82 30.04 97.01 32.79 C 98.25 33.63 99.56 34.34 100.86 35.08 L 101.17 35.75 C 100.86 36.03 100.26 36.60 99.96 36.88 C 97.74 34.59 95.01 33.42 91.96 34.93 C 95.09 31.34 97.72 27.35 99.97 23.16 Z" />
</g>
<g id="#909183fb">
<path fill="#909183" opacity="1.00" d=" M 144.81 13.06 C 148.97 13.54 151.99 17.64 156.17 17.50 C 158.25 17.79 159.46 20.32 161.13 21.53 C 158.58 21.72 156.32 20.01 153.73 20.20 C 151.93 19.33 150.43 17.99 148.87 16.76 C 147.44 15.62 146.06 14.41 144.81 13.06 Z" />
</g>
<g id="#65635dff">
<path fill="#65635d" opacity="1.00" d=" M 98.35 14.78 C 99.36 17.49 95.65 23.20 99.97 23.16 C 97.72 27.35 95.09 31.34 91.96 34.93 C 95.01 33.42 97.74 34.59 99.96 36.88 C 105.38 41.66 110.47 46.81 115.44 52.05 C 113.30 53.91 110.88 52.52 109.02 51.08 C 109.28 52.05 109.53 53.02 109.77 53.99 C 104.41 55.07 99.57 58.03 93.99 58.08 C 88.29 58.94 84.68 64.58 78.94 65.23 C 78.65 64.22 78.38 63.21 78.13 62.20 C 82.94 57.61 89.31 55.10 95.97 55.44 C 100.20 55.33 104.04 53.16 108.02 51.94 C 105.87 48.53 103.17 45.50 100.21 42.77 C 97.45 39.93 93.81 36.50 90.14 39.69 C 88.33 40.84 86.38 41.83 84.17 41.53 C 79.63 40.77 77.50 46.86 73.40 48.15 L 73.21 47.26 C 73.40 44.00 75.05 40.65 73.98 37.40 C 75.39 36.39 76.82 35.40 78.09 34.20 C 86.39 30.60 94.83 25.40 97.24 16.06 C 97.52 15.74 98.08 15.10 98.35 14.78 Z" />
</g>
<g id="#9a9b8dff">
<path fill="#9a9b8d" opacity="1.00" d=" M 121.32 15.30 C 128.04 14.76 134.86 17.96 141.54 17.01 C 141.99 17.27 142.90 17.79 143.36 18.05 C 142.54 18.72 141.86 19.79 140.66 19.55 C 136.17 18.65 132.48 22.15 128.11 21.94 C 126.35 21.05 124.81 19.76 122.98 19.01 C 120.06 19.61 120.60 23.90 117.95 25.01 C 114.43 28.27 110.02 26.41 105.98 25.86 L 105.77 24.91 C 106.04 23.89 106.36 22.88 106.72 21.88 C 112.10 22.60 117.75 19.26 121.32 15.30 Z" />
</g>
<g id="#adaf9aff">
<path fill="#adaf9a" opacity="1.00" d=" M 85.13 16.11 C 86.40 16.04 87.67 15.97 88.94 15.91 C 81.94 19.48 79.09 28.18 71.78 30.88 C 71.89 30.12 72.11 28.60 72.22 27.84 L 72.88 28.19 C 73.16 28.36 73.73 28.69 74.01 28.86 C 76.95 24.55 79.89 20.20 84.08 17.01 C 84.34 16.78 84.86 16.33 85.13 16.11 Z" />
</g>
<g id="#7f8077ff">
<path fill="#7f8077" opacity="1.00" d=" M 85.71 26.72 C 89.14 22.76 92.14 18.00 97.24 16.06 C 94.83 25.40 86.39 30.60 78.09 34.20 C 79.85 31.01 83.36 29.41 85.71 26.72 Z" />
</g>
<g id="#c4c7acff">
<path fill="#c4c7ac" opacity="1.00" d=" M 79.05 18.91 C 80.65 18.09 82.36 17.50 84.08 17.01 C 79.89 20.20 76.95 24.55 74.01 28.86 C 73.73 28.69 73.16 28.36 72.88 28.19 C 72.89 27.38 72.92 25.77 72.93 24.96 L 72.95 24.12 L 73.70 24.33 C 76.49 25.08 77.77 20.84 79.05 18.91 Z" />
</g>
<g id="#51504eff">
<path fill="#51504e" opacity="1.00" d=" M 147.17 20.07 C 147.70 18.95 148.26 17.85 148.87 16.76 C 150.43 17.99 151.93 19.33 153.73 20.20 C 158.38 23.02 163.07 25.82 168.02 28.09 C 169.14 28.36 169.79 28.98 169.97 29.97 C 170.09 32.08 170.78 34.22 170.23 36.32 C 168.02 34.56 165.58 33.09 162.98 31.97 C 159.85 30.68 156.42 30.05 153.04 29.97 C 152.95 31.27 152.95 32.57 153.03 33.87 C 152.80 37.97 154.35 41.79 154.83 45.78 C 153.96 49.30 152.19 54.37 147.01 51.97 C 137.63 50.95 127.94 53.98 118.74 52.39 C 128.34 50.20 139.06 50.20 147.32 44.31 C 142.15 44.40 136.96 45.23 131.81 44.33 C 136.62 43.65 141.39 42.60 146.05 41.21 C 147.68 40.86 149.31 40.43 150.86 39.80 C 150.94 37.14 150.98 34.49 150.95 31.83 C 151.00 30.16 151.02 28.49 151.00 26.82 C 151.02 25.01 151.21 22.91 149.39 21.89 C 148.67 21.25 147.93 20.64 147.17 20.07 Z" />
</g>
<g id="#7a776cff">
<path fill="#7a776c" opacity="1.00" d=" M 104.67 18.65 C 105.77 18.47 106.87 18.33 107.97 18.21 C 107.57 19.44 107.13 20.66 106.72 21.88 C 106.36 22.88 106.04 23.89 105.77 24.91 C 104.04 25.44 101.99 26.64 100.49 24.95 C 101.70 22.74 103.16 20.67 104.67 18.65 Z" />
</g>
<g id="#919287ff">
<path fill="#919287" opacity="1.00" d=" M 143.36 18.05 C 144.62 18.74 145.88 19.42 147.17 20.07 C 144.36 21.54 141.28 22.34 138.30 23.34 C 136.71 26.22 134.72 29.09 131.78 30.71 C 128.75 31.58 125.66 32.29 122.87 33.80 C 120.48 34.67 120.09 31.38 118.72 30.15 C 117.10 29.64 115.51 30.27 114.18 31.18 C 111.37 33.49 109.36 29.01 106.57 28.75 C 106.37 27.78 106.17 26.82 105.98 25.86 C 110.02 26.41 114.43 28.27 117.95 25.01 C 120.60 23.90 120.06 19.61 122.98 19.01 C 124.81 19.76 126.35 21.05 128.11 21.94 C 132.48 22.15 136.17 18.65 140.66 19.55 C 141.86 19.79 142.54 18.72 143.36 18.05 Z" />
</g>
<g id="#dcdfbfff">
<path fill="#dcdfbf" opacity="1.00" d=" M 74.62 19.81 C 74.62 24.29 76.99 19.20 79.05 18.91 C 77.77 20.84 76.49 25.08 73.70 24.33 C 73.95 22.82 74.02 21.24 74.62 19.81 Z" />
</g>
<g id="#88887fff">
<path fill="#88887f" opacity="1.00" d=" M 147.17 20.07 C 147.93 20.64 148.67 21.25 149.39 21.89 C 148.97 25.36 144.11 22.96 142.82 25.78 C 140.88 29.34 140.01 34.64 135.01 35.07 C 129.17 37.05 122.98 39.98 116.78 39.25 C 113.27 35.85 109.85 32.36 106.57 28.75 C 109.36 29.01 111.37 33.49 114.18 31.18 C 115.51 30.27 117.10 29.64 118.72 30.15 C 120.09 31.38 120.48 34.67 122.87 33.80 C 125.66 32.29 128.75 31.58 131.78 30.71 C 134.72 29.09 136.71 26.22 138.30 23.34 C 141.28 22.34 144.36 21.54 147.17 20.07 Z" />
</g>
<g id="#787a75fa">
<path fill="#787a75" opacity="0.98" d=" M 153.73 20.20 C 156.32 20.01 158.58 21.72 161.13 21.53 C 163.91 22.58 166.32 25.48 168.02 28.09 C 163.07 25.82 158.38 23.02 153.73 20.20 Z" />
</g>
<g id="#6b6960f8">
<path fill="#6b6960" opacity="0.97" d=" M 66.25 22.20 C 68.64 21.57 70.71 23.57 72.95 24.12 L 72.93 24.96 C 70.23 25.03 67.59 25.56 64.94 25.96 C 64.48 26.01 63.57 26.11 63.12 26.16 C 63.39 24.43 65.16 23.44 66.25 22.20 Z" />
</g>
<g id="#7d7e76ff">
<path fill="#7d7e76" opacity="1.00" d=" M 149.39 21.89 C 151.21 22.91 151.02 25.01 151.00 26.82 C 143.90 26.33 144.97 36.46 138.61 37.48 C 134.05 37.64 130.34 40.39 127.95 44.07 C 123.81 43.94 119.47 42.57 116.78 39.25 C 122.98 39.98 129.17 37.05 135.01 35.07 C 140.01 34.64 140.88 29.34 142.82 25.78 C 144.11 22.96 148.97 25.36 149.39 21.89 Z" />
</g>
<g id="#9b9682ff">
<path fill="#9b9682" opacity="1.00" d=" M 64.94 25.96 C 67.59 25.56 70.23 25.03 72.93 24.96 C 72.92 25.77 72.89 27.38 72.88 28.19 L 72.22 27.84 C 71.87 27.79 71.17 27.71 70.82 27.67 C 68.36 27.96 66.10 28.95 63.83 29.86 C 64.07 28.53 64.46 27.23 64.94 25.96 Z" />
</g>
<g id="#6d6963ff">
<path fill="#6d6963" opacity="1.00" d=" M 97.01 32.79 C 97.82 30.04 99.15 27.47 100.49 24.95 C 101.99 26.64 104.04 25.44 105.77 24.91 L 105.98 25.86 C 106.17 26.82 106.37 27.78 106.57 28.75 C 106.13 31.29 107.96 33.46 108.14 35.95 C 105.70 35.75 103.27 35.46 100.86 35.08 C 99.56 34.34 98.25 33.63 97.01 32.79 Z" />
</g>
<g id="#878475ff">
<path fill="#878475" opacity="1.00" d=" M 63.12 26.16 C 63.57 26.11 64.48 26.01 64.94 25.96 C 64.46 27.23 64.07 28.53 63.83 29.86 C 66.10 28.95 68.36 27.96 70.82 27.67 C 70.30 29.17 69.80 30.68 69.15 32.13 C 66.76 32.70 64.34 34.09 61.91 32.84 C 62.17 31.14 62.81 29.41 62.38 27.68 C 62.56 27.30 62.94 26.54 63.12 26.16 Z" />
</g>
<g id="#625f58ff">
<path fill="#625f58" opacity="1.00" d=" M 70.82 27.67 C 71.17 27.71 71.87 27.79 72.22 27.84 C 72.11 28.60 71.89 30.12 71.78 30.88 C 71.56 31.43 71.13 32.53 70.92 33.08 C 70.93 33.54 70.95 34.47 70.96 34.93 C 71.01 38.36 71.73 41.69 72.66 44.96 C 72.83 48.23 71.11 50.60 68.96 52.70 C 67.20 53.80 69.79 53.97 69.93 55.17 C 70.73 57.69 67.34 57.69 65.92 58.85 C 64.55 59.61 63.16 60.39 62.09 61.54 C 61.79 61.84 61.19 62.44 60.90 62.74 C 59.95 63.67 59.03 64.62 58.27 65.71 C 54.37 70.36 52.15 76.08 49.15 81.30 C 48.59 81.44 47.46 81.72 46.90 81.86 C 47.89 78.94 47.43 75.96 46.82 73.01 L 47.17 72.33 C 48.30 70.37 49.35 68.35 50.23 66.26 C 52.99 60.76 55.40 55.08 58.77 49.89 C 62.99 48.92 66.50 46.29 69.86 43.70 C 70.49 41.15 70.24 38.76 69.10 36.54 C 69.07 35.07 69.09 33.60 69.15 32.13 C 69.80 30.68 70.30 29.17 70.82 27.67 Z" />
</g>
<g id="#70716bff">
<path fill="#70716b" opacity="1.00" d=" M 138.61 37.48 C 144.97 36.46 143.90 26.33 151.00 26.82 C 151.02 28.49 151.00 30.16 150.95 31.83 C 147.34 33.80 146.38 37.44 146.05 41.21 C 141.39 42.60 136.62 43.65 131.81 44.33 C 131.13 44.29 129.77 44.21 129.10 44.17 L 127.95 44.07 C 130.34 40.39 134.05 37.64 138.61 37.48 Z" />
</g>
<g id="#bcbda3fe">
<path fill="#bcbda3" opacity="1.00" d=" M 59.10 31.99 C 59.77 30.31 60.42 28.22 62.38 27.68 C 62.81 29.41 62.17 31.14 61.91 32.84 C 59.91 35.56 58.77 38.75 57.95 41.99 C 56.86 43.59 56.00 45.32 55.16 47.06 C 54.90 45.95 54.60 44.85 54.26 43.77 C 55.67 39.76 57.64 35.97 59.10 31.99 Z" />
</g>
<g id="#65615cff">
<path fill="#65615c" opacity="1.00" d=" M 108.14 35.95 C 107.96 33.46 106.13 31.29 106.57 28.75 C 109.85 32.36 113.27 35.85 116.78 39.25 C 119.47 42.57 123.81 43.94 127.95 44.07 L 129.10 44.17 C 123.82 46.92 117.40 49.54 111.84 46.07 C 108.19 42.73 104.70 39.22 101.17 35.75 L 100.86 35.08 C 103.27 35.46 105.70 35.75 108.14 35.95 Z" />
</g>
<g id="#6d6961ff">
<path fill="#6d6961" opacity="1.00" d=" M 153.04 29.97 C 156.42 30.05 159.85 30.68 162.98 31.97 L 162.75 32.77 C 162.56 33.34 162.17 34.48 161.98 35.04 C 159.04 37.14 155.88 34.89 153.03 33.87 C 152.95 32.57 152.95 31.27 153.04 29.97 Z" />
</g>
<g id="#63615df7">
<path fill="#63615d" opacity="0.97" d=" M 169.97 29.97 C 176.43 33.35 180.66 39.36 182.38 46.37 C 181.45 47.64 180.10 48.47 178.86 49.39 C 178.64 48.76 178.20 47.49 177.98 46.85 C 177.80 46.33 177.44 45.28 177.26 44.75 C 176.59 42.98 175.80 41.19 174.42 39.86 C 173.58 38.89 172.39 38.35 171.28 37.79 C 171.02 37.42 170.49 36.69 170.23 36.32 C 170.78 34.22 170.09 32.08 169.97 29.97 Z" />
</g>
<g id="#636259ee">
<path fill="#636259" opacity="0.93" d=" M 53.34 40.18 C 55.04 37.47 55.76 33.30 59.10 31.99 C 57.64 35.97 55.67 39.76 54.26 43.77 C 53.26 45.59 52.26 47.41 51.29 49.25 C 50.31 46.02 52.70 43.23 53.34 40.18 Z" />
</g>
<g id="#747067ff">
<path fill="#747067" opacity="1.00" d=" M 61.91 32.84 C 64.34 34.09 66.76 32.70 69.15 32.13 C 69.09 33.60 69.07 35.07 69.10 36.54 C 66.12 39.47 64.19 43.79 60.05 45.24 C 60.29 43.12 60.70 41.02 60.98 38.91 C 61.31 36.89 61.69 34.88 61.91 32.84 Z" />
</g>
<g id="#646563ff">
<path fill="#646563" opacity="1.00" d=" M 146.05 41.21 C 146.38 37.44 147.34 33.80 150.95 31.83 C 150.98 34.49 150.94 37.14 150.86 39.80 C 149.31 40.43 147.68 40.86 146.05 41.21 Z" />
</g>
<g id="#989c8bff">
<path fill="#989c8b" opacity="1.00" d=" M 162.98 31.97 C 165.58 33.09 168.02 34.56 170.23 36.32 C 170.49 36.69 171.02 37.42 171.28 37.79 C 168.34 40.41 165.55 37.29 162.94 35.89 C 162.89 35.11 162.80 33.55 162.75 32.77 L 162.98 31.97 Z" />
</g>
<g id="#9b9c8bff">
<path fill="#9b9c8b" opacity="1.00" d=" M 57.95 41.99 C 58.77 38.75 59.91 35.56 61.91 32.84 C 61.69 34.88 61.31 36.89 60.98 38.91 C 60.04 40.00 59.04 41.05 57.95 41.99 Z" />
</g>
<g id="#7d7f77ff">
<path fill="#7d7f77" opacity="1.00" d=" M 161.98 35.04 C 162.17 34.48 162.56 33.34 162.75 32.77 C 162.80 33.55 162.89 35.11 162.94 35.89 C 161.84 40.50 166.99 41.08 169.99 42.86 C 171.75 42.29 174.22 42.19 174.42 39.86 C 175.80 41.19 176.59 42.98 177.26 44.75 C 174.22 47.95 170.65 45.33 167.13 44.94 C 166.07 45.91 165.22 47.08 164.16 48.05 C 163.39 46.68 162.75 45.23 162.07 43.82 C 161.96 40.89 161.96 37.97 161.98 35.04 Z" />
</g>
<g id="#615e59ff">
<path fill="#615e59" opacity="1.00" d=" M 153.03 33.87 C 155.88 34.89 159.04 37.14 161.98 35.04 C 161.96 37.97 161.96 40.89 162.07 43.82 C 161.99 45.84 162.36 47.83 163.10 49.72 C 162.11 52.27 159.42 52.07 157.14 52.09 C 156.18 50.06 155.40 47.95 154.83 45.78 C 154.35 41.79 152.80 37.97 153.03 33.87 Z" />
</g>
<g id="#726f66ff">
<path fill="#726f66" opacity="1.00" d=" M 70.96 34.93 C 71.90 35.83 72.88 36.70 73.98 37.40 C 75.05 40.65 73.40 44.00 73.21 47.26 C 73.07 46.68 72.80 45.53 72.66 44.96 C 71.73 41.69 71.01 38.36 70.96 34.93 Z" />
</g>
<g id="#3e3c3aff">
<path fill="#3e3c3a" opacity="1.00" d=" M 99.96 36.88 C 100.26 36.60 100.86 36.03 101.17 35.75 C 104.70 39.22 108.19 42.73 111.84 46.07 C 114.10 48.16 115.75 51.23 118.74 52.39 C 127.94 53.98 137.63 50.95 147.01 51.97 C 152.19 54.37 153.96 49.30 154.83 45.78 C 155.40 47.95 156.18 50.06 157.14 52.09 C 157.35 53.05 157.48 54.04 157.54 55.03 C 156.95 54.68 155.78 53.98 155.20 53.63 C 154.71 53.50 153.74 53.25 153.25 53.12 C 144.13 52.88 134.87 53.01 125.91 54.92 C 123.43 54.88 120.82 55.01 119.14 57.09 C 118.92 56.78 118.49 56.16 118.27 55.85 C 117.38 54.55 116.53 53.20 115.44 52.05 C 110.47 46.81 105.38 41.66 99.96 36.88 Z" />
</g>
<g id="#898b7fff">
<path fill="#898b7f" opacity="1.00" d=" M 162.94 35.89 C 165.55 37.29 168.34 40.41 171.28 37.79 C 172.39 38.35 173.58 38.89 174.42 39.86 C 174.22 42.19 171.75 42.29 169.99 42.86 C 166.99 41.08 161.84 40.50 162.94 35.89 Z" />
</g>
<g id="#6a6660ff">
<path fill="#6a6660" opacity="1.00" d=" M 60.05 45.24 C 64.19 43.79 66.12 39.47 69.10 36.54 C 70.24 38.76 70.49 41.15 69.86 43.70 C 66.50 46.29 62.99 48.92 58.77 49.89 C 59.17 48.33 59.61 46.79 60.05 45.24 Z" />
</g>
<g id="#7b7c73ff">
<path fill="#7b7c73" opacity="1.00" d=" M 90.14 39.69 C 93.81 36.50 97.45 39.93 100.21 42.77 C 101.70 46.15 100.19 49.32 97.73 51.74 C 90.84 51.24 84.30 53.87 78.60 57.50 C 76.85 59.05 76.02 56.39 76.05 55.00 C 79.81 53.04 84.48 52.52 87.67 49.69 C 88.61 46.49 91.90 43.01 90.14 39.69 Z" />
</g>
<g id="#848579ff">
<path fill="#848579" opacity="1.00" d=" M 57.95 41.99 C 59.04 41.05 60.04 40.00 60.98 38.91 C 60.70 41.02 60.29 43.12 60.05 45.24 C 59.61 46.79 59.17 48.33 58.77 49.89 C 55.40 55.08 52.99 60.76 50.23 66.26 C 50.58 57.58 57.58 50.74 57.95 41.99 Z" />
</g>
<g id="#8a8b7eff">
<path fill="#8a8b7e" opacity="1.00" d=" M 84.17 41.53 C 86.38 41.83 88.33 40.84 90.14 39.69 C 91.90 43.01 88.61 46.49 87.67 49.69 C 84.48 52.52 79.81 53.04 76.05 55.00 C 75.84 53.00 75.48 51.02 75.05 49.06 C 78.04 46.49 81.12 44.04 84.17 41.53 Z" />
</g>
<g id="#474440ff">
<path fill="#474440" opacity="1.00" d=" M 73.40 48.15 C 77.50 46.86 79.63 40.77 84.17 41.53 C 81.12 44.04 78.04 46.49 75.05 49.06 C 72.50 50.55 73.21 53.42 73.69 55.81 C 73.48 56.39 73.07 57.56 72.87 58.15 C 72.68 55.16 72.28 52.41 68.96 52.70 C 71.11 50.60 72.83 48.23 72.66 44.96 C 72.80 45.53 73.07 46.68 73.21 47.26 L 73.40 48.15 Z" />
</g>
<g id="#a2a490fd">
<path fill="#a2a490" opacity="1.00" d=" M 55.16 47.06 C 56.00 45.32 56.86 43.59 57.95 41.99 C 57.58 50.74 50.58 57.58 50.23 66.26 C 49.35 68.35 48.30 70.37 47.17 72.33 C 47.10 70.28 46.99 68.23 46.87 66.18 C 46.55 64.35 46.81 63.38 47.65 63.28 C 47.94 63.40 48.51 63.64 48.79 63.76 C 50.28 57.97 52.76 52.51 55.16 47.06 Z" />
</g>
<g id="#6f7168ff">
<path fill="#6f7168" opacity="1.00" d=" M 100.21 42.77 C 103.17 45.50 105.87 48.53 108.02 51.94 C 104.04 53.16 100.20 55.33 95.97 55.44 C 89.31 55.10 82.94 57.61 78.13 62.20 C 77.35 60.79 76.83 58.94 74.90 58.88 C 74.47 57.86 74.07 56.84 73.69 55.81 C 73.21 53.42 72.50 50.55 75.05 49.06 C 75.48 51.02 75.84 53.00 76.05 55.00 C 76.02 56.39 76.85 59.05 78.60 57.50 C 84.30 53.87 90.84 51.24 97.73 51.74 C 100.19 49.32 101.70 46.15 100.21 42.77 Z" />
</g>
<g id="#d0d4b3fb">
<path fill="#d0d4b3" opacity="1.00" d=" M 54.26 43.77 C 54.60 44.85 54.90 45.95 55.16 47.06 C 52.76 52.51 50.28 57.97 48.79 63.76 C 48.51 63.64 47.94 63.40 47.65 63.28 C 48.25 58.45 50.51 54.04 51.29 49.25 C 52.26 47.41 53.26 45.59 54.26 43.77 Z" />
</g>
<g id="#585553ff">
<path fill="#585553" opacity="1.00" d=" M 129.10 44.17 C 129.77 44.21 131.13 44.29 131.81 44.33 C 136.96 45.23 142.15 44.40 147.32 44.31 C 139.06 50.20 128.34 50.20 118.74 52.39 C 115.75 51.23 114.10 48.16 111.84 46.07 C 117.40 49.54 123.82 46.92 129.10 44.17 Z" />
</g>
<g id="#747671ff">
<path fill="#747671" opacity="1.00" d=" M 162.07 43.82 C 162.75 45.23 163.39 46.68 164.16 48.05 C 165.22 47.08 166.07 45.91 167.13 44.94 C 170.65 45.33 174.22 47.95 177.26 44.75 C 177.44 45.28 177.80 46.33 177.98 46.85 C 174.59 51.11 169.00 51.96 163.85 51.22 C 163.66 50.84 163.28 50.09 163.10 49.72 C 162.36 47.83 161.99 45.84 162.07 43.82 Z" />
</g>
<g id="#484748fb">
<path fill="#484748" opacity="1.00" d=" M 182.38 46.37 C 183.41 45.58 183.28 49.06 183.90 49.98 C 183.98 52.00 183.96 54.01 183.88 56.03 L 183.78 56.94 C 183.58 57.21 183.17 57.74 182.96 58.00 C 182.50 58.12 181.58 58.34 181.12 58.46 C 180.41 57.27 179.80 56.04 179.16 54.82 C 179.05 53.01 178.96 51.20 178.86 49.39 C 180.10 48.47 181.45 47.64 182.38 46.37 Z" />
</g>
<g id="#686c69ff">
<path fill="#686c69" opacity="1.00" d=" M 163.85 51.22 C 169.00 51.96 174.59 51.11 177.98 46.85 C 178.20 47.49 178.64 48.76 178.86 49.39 C 178.96 51.20 179.05 53.01 179.16 54.82 C 179.11 55.63 179.00 57.25 178.94 58.05 C 175.72 53.73 170.48 55.50 165.87 56.13 C 165.21 54.49 164.51 52.86 163.85 51.22 Z" />
</g>
<g id="#504f4dff">
<path fill="#504f4d" opacity="1.00" d=" M 157.14 52.09 C 159.42 52.07 162.11 52.27 163.10 49.72 C 163.28 50.09 163.66 50.84 163.85 51.22 C 164.51 52.86 165.21 54.49 165.87 56.13 C 166.48 57.76 166.97 59.51 168.19 60.82 C 170.83 60.82 173.65 59.86 176.27 60.72 C 173.02 62.15 169.59 64.09 165.92 63.36 C 164.50 63.16 163.19 63.90 161.85 64.20 C 161.08 62.66 160.30 61.12 159.24 59.75 C 158.60 58.21 157.96 56.65 157.54 55.03 C 157.48 54.04 157.35 53.05 157.14 52.09 Z" />
</g>
<g id="#02020221">
<path fill="#020202" opacity="0.13" d=" M 183.90 49.98 C 185.16 50.87 185.93 52.27 187.02 53.35 C 186.23 54.28 185.43 55.20 184.67 56.14 L 183.88 56.03 C 183.96 54.01 183.98 52.00 183.90 49.98 Z" />
</g>
<g id="#4c4d49ff">
<path fill="#4c4d49" opacity="1.00" d=" M 109.02 51.08 C 110.88 52.52 113.30 53.91 115.44 52.05 C 116.53 53.20 117.38 54.55 118.27 55.85 C 117.58 57.95 116.84 60.03 116.12 62.11 C 110.98 64.94 115.11 55.56 111.35 54.01 C 110.07 57.44 108.78 60.89 107.22 64.21 C 103.21 66.71 98.26 67.76 93.65 66.42 C 88.20 64.35 86.03 72.17 80.93 72.35 C 80.65 71.87 80.08 70.91 79.80 70.43 C 85.60 69.57 87.82 60.84 94.62 63.65 C 100.76 64.42 104.37 57.61 109.74 55.58 C 109.75 55.18 109.76 54.39 109.77 53.99 C 109.53 53.02 109.28 52.05 109.02 51.08 Z" />
</g>
<g id="#c9beb7f7">
<path fill="#c9beb7" opacity="0.97" d=" M 187.02 53.35 C 187.93 52.45 188.89 51.58 189.94 50.82 C 189.97 52.39 190.03 55.51 190.06 57.08 C 188.16 58.29 185.93 58.16 184.67 56.14 C 185.43 55.20 186.23 54.28 187.02 53.35 Z" />
</g>
<g id="#bbada8ef">
<path fill="#bbada8" opacity="0.94" d=" M 11.94 51.95 C 15.37 52.32 18.06 55.12 20.01 57.76 C 18.54 58.32 17.11 58.99 15.71 59.70 C 13.60 59.02 12.98 54.34 11.94 51.95 Z" />
</g>
<g id="#504f4aff">
<path fill="#504f4a" opacity="1.00" d=" M 69.93 55.17 C 69.79 53.97 67.20 53.80 68.96 52.70 C 72.28 52.41 72.68 55.16 72.87 58.15 C 72.98 58.57 73.20 59.40 73.31 59.82 C 72.11 62.28 72.64 68.74 68.69 67.37 C 68.20 65.84 67.81 64.28 67.32 62.76 C 66.93 61.43 66.45 60.13 65.92 58.85 C 67.34 57.69 70.73 57.69 69.93 55.17 Z" />
</g>
<g id="#65625cff">
<path fill="#65625c" opacity="1.00" d=" M 125.91 54.92 C 134.87 53.01 144.13 52.88 153.25 53.12 C 151.71 55.01 149.62 55.62 146.98 54.97 C 139.89 54.84 133.23 57.77 126.17 57.99 C 126.10 57.22 125.97 55.68 125.91 54.92 Z" />
</g>
<g id="#595752ff">
<path fill="#595752" opacity="1.00" d=" M 153.25 53.12 C 153.74 53.25 154.71 53.50 155.20 53.63 C 154.40 54.30 153.62 54.99 152.85 55.69 C 150.17 55.93 147.48 55.94 144.86 56.52 C 138.65 57.88 131.96 58.45 126.81 62.58 L 126.10 62.99 C 124.97 63.54 123.94 64.26 122.87 64.91 C 121.36 63.29 120.02 61.51 118.64 59.78 C 118.76 59.11 119.01 57.76 119.14 57.09 C 120.82 55.01 123.43 54.88 125.91 54.92 C 125.97 55.68 126.10 57.22 126.17 57.99 C 133.23 57.77 139.89 54.84 146.98 54.97 C 149.62 55.62 151.71 55.01 153.25 53.12 Z" />
</g>
<g id="#575a54ff">
<path fill="#575a54" opacity="1.00" d=" M 93.99 58.08 C 99.57 58.03 104.41 55.07 109.77 53.99 C 109.76 54.39 109.75 55.18 109.74 55.58 C 104.37 57.61 100.76 64.42 94.62 63.65 C 87.82 60.84 85.60 69.57 79.80 70.43 C 79.56 68.69 79.22 66.96 78.94 65.23 C 84.68 64.58 88.29 58.94 93.99 58.08 Z" />
</g>
<g id="#3b3b3aff">
<path fill="#3b3b3a" opacity="1.00" d=" M 111.35 54.01 C 115.11 55.56 110.98 64.94 116.12 62.11 C 114.28 67.45 113.67 73.78 109.99 78.28 C 106.89 75.56 107.24 71.33 106.20 67.68 C 106.48 66.50 106.84 65.35 107.22 64.21 C 108.78 60.89 110.07 57.44 111.35 54.01 Z" />
</g>
<g id="#5e605eff">
<path fill="#5e605e" opacity="1.00" d=" M 152.85 55.69 C 153.62 54.99 154.40 54.30 155.20 53.63 C 155.78 53.98 156.95 54.68 157.54 55.03 C 157.96 56.65 158.60 58.21 159.24 59.75 C 160.98 67.43 156.42 75.01 151.93 80.96 C 148.59 84.81 151.34 91.60 146.01 94.04 C 143.03 96.98 138.99 98.34 135.76 100.90 C 132.91 100.98 130.05 101.25 127.22 100.83 C 125.51 99.38 124.59 97.31 123.76 95.28 C 123.42 89.19 119.98 82.94 121.60 76.87 C 122.26 79.92 124.66 82.05 126.57 84.36 C 127.94 88.53 127.82 93.23 130.15 97.02 C 132.59 97.07 134.14 95.04 135.06 93.03 C 137.34 89.29 143.27 92.89 145.69 89.68 C 149.59 80.00 153.88 70.51 157.87 60.86 C 158.18 59.47 157.24 57.94 156.23 57.07 C 155.13 56.53 154.01 56.07 152.85 55.69 Z" />
</g>
<g id="#5e6160ff">
<path fill="#5e6160" opacity="1.00" d=" M 165.87 56.13 C 170.48 55.50 175.72 53.73 178.94 58.05 C 179.00 57.25 179.11 55.63 179.16 54.82 C 179.80 56.04 180.41 57.27 181.12 58.46 C 179.51 59.24 177.91 60.02 176.27 60.72 C 173.65 59.86 170.83 60.82 168.19 60.82 C 166.97 59.51 166.48 57.76 165.87 56.13 Z" />
</g>
<g id="#30302eff">
<path fill="#30302e" opacity="1.00" d=" M 72.87 58.15 C 73.07 57.56 73.48 56.39 73.69 55.81 C 74.07 56.84 74.47 57.86 74.90 58.88 C 75.74 62.98 76.50 67.52 79.80 70.43 C 80.08 70.91 80.65 71.87 80.93 72.35 C 82.93 73.81 84.97 73.72 87.07 72.08 C 92.49 71.11 97.60 72.94 102.82 73.88 C 103.88 72.80 104.68 71.50 105.17 70.07 C 105.43 69.47 105.94 68.28 106.20 67.68 C 107.24 71.33 106.89 75.56 109.99 78.28 C 113.67 73.78 114.28 67.45 116.12 62.11 C 116.84 60.03 117.58 57.95 118.27 55.85 C 118.49 56.16 118.92 56.78 119.14 57.09 C 119.01 57.76 118.76 59.11 118.64 59.78 C 118.01 62.00 117.41 64.22 116.86 66.46 C 115.32 71.15 114.32 75.99 113.40 80.83 C 115.82 84.16 118.60 88.06 116.22 92.31 C 113.27 87.27 111.54 80.75 106.26 77.67 C 105.77 77.42 104.77 76.92 104.28 76.68 C 103.76 76.45 102.73 76.00 102.21 75.77 C 97.25 74.64 92.06 75.03 86.99 74.99 C 83.57 74.98 80.17 75.00 76.75 75.16 C 74.81 70.25 75.31 64.74 73.31 59.82 C 73.20 59.40 72.98 58.57 72.87 58.15 Z" />
</g>
<g id="#6d6e69ff">
<path fill="#6d6e69" opacity="1.00" d=" M 144.86 56.52 C 147.48 55.94 150.17 55.93 152.85 55.69 C 154.01 56.07 155.13 56.53 156.23 57.07 C 155.60 60.64 152.52 62.70 150.37 65.33 C 148.67 71.16 149.18 78.20 144.78 82.88 C 142.23 83.26 139.80 81.73 137.26 82.16 C 135.81 83.43 135.17 85.73 133.10 86.12 C 132.73 84.67 131.99 81.77 131.63 80.32 C 126.76 81.76 123.55 79.07 122.52 74.78 C 123.85 70.90 125.40 67.06 126.10 62.99 L 126.81 62.58 C 126.81 65.99 126.47 69.38 126.16 72.77 C 128.04 74.01 129.88 76.19 132.37 75.56 C 136.71 72.92 139.13 77.56 142.86 78.05 C 147.00 72.07 144.36 64.46 146.67 58.12 C 146.22 57.72 145.31 56.92 144.86 56.52 Z" />
</g>
<g id="#63554ee4">
<path fill="#63554e" opacity="0.89" d=" M 183.88 56.03 L 184.67 56.14 C 185.93 58.16 188.16 58.29 190.06 57.08 C 190.45 58.82 190.03 59.89 188.82 60.26 C 186.54 60.25 184.98 58.70 183.78 56.94 L 183.88 56.03 Z" />
</g>
<g id="#75766fff">
<path fill="#75766f" opacity="1.00" d=" M 126.81 62.58 C 131.96 58.45 138.65 57.88 144.86 56.52 C 145.31 56.92 146.22 57.72 146.67 58.12 C 144.36 64.46 147.00 72.07 142.86 78.05 C 139.13 77.56 136.71 72.92 132.37 75.56 C 129.88 76.19 128.04 74.01 126.16 72.77 C 126.47 69.38 126.81 65.99 126.81 62.58 Z" />
</g>
<g id="#646663ff">
<path fill="#646663" opacity="1.00" d=" M 156.23 57.07 C 157.24 57.94 158.18 59.47 157.87 60.86 C 153.88 70.51 149.59 80.00 145.69 89.68 C 143.27 92.89 137.34 89.29 135.06 93.03 C 134.14 95.04 132.59 97.07 130.15 97.02 C 127.82 93.23 127.94 88.53 126.57 84.36 C 124.66 82.05 122.26 79.92 121.60 76.87 C 121.83 76.35 122.29 75.30 122.52 74.78 C 123.55 79.07 126.76 81.76 131.63 80.32 C 131.99 81.77 132.73 84.67 133.10 86.12 C 135.17 85.73 135.81 83.43 137.26 82.16 C 139.80 81.73 142.23 83.26 144.78 82.88 C 149.18 78.20 148.67 71.16 150.37 65.33 C 152.52 62.70 155.60 60.64 156.23 57.07 Z" />
</g>
<g id="#8f7970fe">
<path fill="#8f7970" opacity="1.00" d=" M 182.96 58.00 C 183.17 57.74 183.58 57.21 183.78 56.94 C 184.98 58.70 186.54 60.25 188.82 60.26 C 191.54 65.25 193.07 71.36 192.93 77.13 C 191.37 73.13 188.64 76.44 187.10 78.65 C 187.63 79.01 188.68 79.72 189.21 80.07 C 186.51 80.48 183.79 80.78 181.07 81.01 C 179.81 81.02 178.55 81.09 177.29 81.21 C 176.31 84.01 176.16 87.82 173.01 89.12 C 171.59 88.58 170.86 87.09 169.90 86.01 L 170.12 85.16 C 170.10 82.41 172.56 79.31 171.24 76.63 C 170.80 75.85 170.23 75.19 169.53 74.64 C 168.43 72.75 167.30 70.86 165.87 69.20 C 168.59 68.97 167.97 65.04 170.67 64.65 C 174.76 62.54 180.09 61.88 182.96 58.00 Z" />
</g>
<g id="#907971fe">
<path fill="#907971" opacity="1.00" d=" M 15.71 59.70 C 17.11 58.99 18.54 58.32 20.01 57.76 C 22.07 57.62 22.90 59.62 24.04 60.94 C 26.14 63.23 28.72 65.08 30.29 67.84 C 31.74 68.24 32.25 66.74 32.97 65.84 C 33.08 66.17 33.29 66.84 33.40 67.17 L 33.45 68.02 C 34.07 72.46 32.47 78.29 27.64 79.59 C 23.43 80.05 19.23 80.52 15.02 80.99 C 14.60 80.82 13.77 80.48 13.35 80.31 C 14.29 79.13 14.92 77.76 15.39 76.34 C 21.20 76.14 16.94 70.14 19.84 66.97 C 18.54 64.89 17.00 62.96 16.12 60.65 L 15.71 59.70 Z" />
</g>
<g id="#bba99eff">
<path fill="#bba99e" opacity="1.00" d=" M 181.12 58.46 C 181.58 58.34 182.50 58.12 182.96 58.00 C 180.09 61.88 174.76 62.54 170.67 64.65 C 167.97 65.04 168.59 68.97 165.87 69.20 L 165.00 68.66 C 164.24 68.10 163.48 67.52 162.73 66.94 C 162.44 66.02 162.14 65.11 161.85 64.20 C 163.19 63.90 164.50 63.16 165.92 63.36 C 169.59 64.09 173.02 62.15 176.27 60.72 C 177.91 60.02 179.51 59.24 181.12 58.46 Z" />
</g>
<g id="#6c6e66ff">
<path fill="#6c6e66" opacity="1.00" d=" M 62.09 61.54 C 63.16 60.39 64.55 59.61 65.92 58.85 C 66.45 60.13 66.93 61.43 67.32 62.76 C 66.11 72.52 65.22 82.61 65.73 92.29 C 65.16 95.12 64.12 97.84 63.96 100.74 C 62.67 101.85 60.77 104.12 59.04 102.42 C 65.60 91.52 61.03 78.82 62.93 67.01 C 62.72 65.65 62.30 62.91 62.09 61.54 Z" />
</g>
<g id="#4c4d47ff">
<path fill="#4c4d47" opacity="1.00" d=" M 74.90 58.88 C 76.83 58.94 77.35 60.79 78.13 62.20 C 78.38 63.21 78.65 64.22 78.94 65.23 C 79.22 66.96 79.56 68.69 79.80 70.43 C 76.50 67.52 75.74 62.98 74.90 58.88 Z" />
</g>
<g id="#44433fff">
<path fill="#44433f" opacity="1.00" d=" M 73.31 59.82 C 75.31 64.74 74.81 70.25 76.75 75.16 L 77.11 75.99 C 75.30 76.14 73.56 76.67 71.83 77.23 C 70.41 74.06 69.57 70.71 68.69 67.37 C 72.64 68.74 72.11 62.28 73.31 59.82 Z" />
</g>
<g id="#4e4c49ff">
<path fill="#4e4c49" opacity="1.00" d=" M 116.86 66.46 C 117.41 64.22 118.01 62.00 118.64 59.78 C 120.02 61.51 121.36 63.29 122.87 64.91 C 123.94 64.26 124.97 63.54 126.10 62.99 C 125.40 67.06 123.85 70.90 122.52 74.78 C 122.29 75.30 121.83 76.35 121.60 76.87 C 119.98 82.94 123.42 89.19 123.76 95.28 C 119.29 91.10 121.78 83.79 117.43 79.57 C 116.67 75.29 119.55 70.28 116.86 66.46 Z" />
</g>
<g id="#56585aff">
<path fill="#56585a" opacity="1.00" d=" M 159.24 59.75 C 160.30 61.12 161.08 62.66 161.85 64.20 C 162.14 65.11 162.44 66.02 162.73 66.94 C 158.98 72.96 156.08 79.45 152.81 85.72 C 151.93 90.30 150.16 94.70 147.23 98.36 C 143.54 99.68 139.70 100.82 135.76 100.90 C 138.99 98.34 143.03 96.98 146.01 94.04 C 151.34 91.60 148.59 84.81 151.93 80.96 C 156.42 75.01 160.98 67.43 159.24 59.75 Z" />
</g>
<g id="#9d877cf8">
<path fill="#9d877c" opacity="0.97" d=" M 16.12 60.65 C 17.00 62.96 18.54 64.89 19.84 66.97 C 16.94 70.14 21.20 76.14 15.39 76.34 L 14.56 76.02 C 13.93 75.73 12.67 75.15 12.05 74.86 C 15.44 70.78 16.66 65.89 16.12 60.65 Z" />
</g>
<g id="#af9486fa">
<path fill="#af9486" opacity="0.98" d=" M 24.04 60.94 C 27.00 62.03 29.90 63.30 32.92 64.23 C 32.93 64.63 32.96 65.44 32.97 65.84 C 32.25 66.74 31.74 68.24 30.29 67.84 C 28.72 65.08 26.14 63.23 24.04 60.94 Z" />
</g>
<g id="#d4ccc4f2">
<path fill="#d4ccc4" opacity="0.95" d=" M 32.92 64.23 C 32.91 62.38 35.63 62.47 36.94 61.92 C 37.02 63.25 37.05 64.58 37.03 65.91 C 35.46 64.75 34.32 65.78 33.40 67.17 C 33.29 66.84 33.08 66.17 32.97 65.84 C 32.96 65.44 32.93 64.63 32.92 64.23 Z" />
</g>
<g id="#787b70ff">
<path fill="#787b70" opacity="1.00" d=" M 60.90 62.74 C 61.19 62.44 61.79 61.84 62.09 61.54 C 62.30 62.91 62.72 65.65 62.93 67.01 C 61.03 78.82 65.60 91.52 59.04 102.42 C 58.21 101.68 57.39 100.93 56.59 100.16 C 58.18 98.11 60.41 96.21 59.17 93.00 C 59.87 82.92 59.26 72.77 60.90 62.74 Z" />
</g>
<g id="#86897aff">
<path fill="#86897a" opacity="1.00" d=" M 58.27 65.71 C 59.03 64.62 59.95 63.67 60.90 62.74 C 59.26 72.77 59.87 82.92 59.17 93.00 C 60.41 96.21 58.18 98.11 56.59 100.16 L 55.89 99.67 C 54.54 98.69 53.18 97.72 51.82 96.75 L 52.28 96.19 C 58.58 94.18 56.21 85.81 57.26 81.02 C 56.62 78.34 58.90 74.91 56.87 72.46 C 57.26 70.20 59.15 68.04 58.27 65.71 Z" />
</g>
<g id="#5d6059ff">
<path fill="#5d6059" opacity="1.00" d=" M 67.32 62.76 C 67.81 64.28 68.20 65.84 68.69 67.37 C 69.57 70.71 70.41 74.06 71.83 77.23 C 70.05 79.54 68.50 82.16 69.09 85.22 C 69.08 85.56 69.07 86.23 69.07 86.57 C 67.85 88.41 66.77 90.34 65.73 92.29 C 65.22 82.61 66.11 72.52 67.32 62.76 Z" />
</g>
<g id="#424642ff">
<path fill="#424642" opacity="1.00" d=" M 93.65 66.42 C 98.26 67.76 103.21 66.71 107.22 64.21 C 106.84 65.35 106.48 66.50 106.20 67.68 C 105.94 68.28 105.43 69.47 105.17 70.07 C 99.91 74.56 90.57 64.25 87.07 72.08 C 84.97 73.72 82.93 73.81 80.93 72.35 C 86.03 72.17 88.20 64.35 93.65 66.42 Z" />
</g>
<g id="#b0a29af7">
<path fill="#b0a29a" opacity="0.97" d=" M 33.40 67.17 C 34.32 65.78 35.46 64.75 37.03 65.91 C 37.05 66.45 37.09 67.54 37.11 68.08 C 35.87 68.64 34.55 69.17 33.45 68.02 L 33.40 67.17 Z" />
</g>
<g id="#69685bd5">
<path fill="#69685b" opacity="0.84" d=" M 46.24 72.82 C 45.89 70.88 45.19 67.35 46.87 66.18 C 46.99 68.23 47.10 70.28 47.17 72.33 L 46.82 73.01 L 46.24 72.82 Z" />
</g>
<g id="#adb296ff">
<path fill="#adb296" opacity="1.00" d=" M 58.27 65.71 C 59.15 68.04 57.26 70.20 56.87 72.46 C 54.15 76.62 55.62 84.25 50.29 85.78 C 49.99 85.30 49.37 84.34 49.06 83.86 C 49.09 83.22 49.13 81.94 49.15 81.30 C 52.15 76.08 54.37 70.36 58.27 65.71 Z" />
</g>
<g id="#41403fff">
<path fill="#41403f" opacity="1.00" d=" M 113.40 80.83 C 114.32 75.99 115.32 71.15 116.86 66.46 C 119.55 70.28 116.67 75.29 117.43 79.57 C 121.78 83.79 119.29 91.10 123.76 95.28 C 124.59 97.31 125.51 99.38 127.22 100.83 C 130.05 101.25 132.91 100.98 135.76 100.90 C 139.70 100.82 143.54 99.68 147.23 98.36 C 148.77 97.88 150.32 97.40 151.87 96.94 C 151.56 98.64 151.59 100.82 149.71 101.64 C 141.96 103.46 134.01 105.79 125.98 104.15 C 122.46 104.85 118.81 103.33 118.16 99.78 C 117.31 97.35 116.68 94.84 116.22 92.31 C 118.60 88.06 115.82 84.16 113.40 80.83 Z" />
</g>
<g id="#4e5153ff">
<path fill="#4e5153" opacity="1.00" d=" M 152.81 85.72 C 156.08 79.45 158.98 72.96 162.73 66.94 C 163.48 67.52 164.24 68.10 165.00 68.66 C 163.53 70.17 164.75 72.14 164.87 73.90 C 163.10 75.04 160.88 75.91 159.91 77.91 C 157.27 84.27 154.23 90.46 151.87 96.94 C 150.32 97.40 148.77 97.88 147.23 98.36 C 150.16 94.70 151.93 90.30 152.81 85.72 Z" />
</g>
<g id="#7d655dfb">
<path fill="#7d655d" opacity="1.00" d=" M 27.64 79.59 C 32.47 78.29 34.07 72.46 33.45 68.02 C 34.55 69.17 35.87 68.64 37.11 68.08 C 37.04 68.54 36.91 69.44 36.84 69.89 C 36.65 70.88 36.48 71.87 36.42 72.87 C 36.44 78.44 43.29 80.75 46.09 84.93 C 48.77 89.58 43.95 93.26 42.23 97.23 C 35.44 94.12 29.13 89.37 24.78 83.20 C 22.34 82.87 17.47 82.23 15.03 81.91 L 15.02 80.99 C 19.23 80.52 23.43 80.05 27.64 79.59 M 31.35 80.38 C 29.94 81.92 27.87 82.03 25.91 82.19 C 26.61 84.36 29.59 84.70 30.81 82.80 C 31.81 81.81 34.49 78.94 31.35 80.38 Z" />
</g>
<g id="#393d39ff">
<path fill="#393d39" opacity="1.00" d=" M 87.07 72.08 C 90.57 64.25 99.91 74.56 105.17 70.07 C 104.68 71.50 103.88 72.80 102.82 73.88 C 97.60 72.94 92.49 71.11 87.07 72.08 Z" />
</g>
<g id="#3d3d3fff">
<path fill="#3d3d3f" opacity="1.00" d=" M 164.87 73.90 C 164.75 72.14 163.53 70.17 165.00 68.66 L 165.87 69.20 C 167.30 70.86 168.43 72.75 169.53 74.64 C 169.03 76.22 168.49 77.78 167.86 79.31 L 167.12 79.25 C 166.64 79.23 165.69 79.18 165.22 79.16 C 161.43 83.49 162.25 91.01 156.90 93.96 C 158.40 89.77 159.66 85.48 161.50 81.43 C 162.96 79.10 165.64 76.97 164.87 73.90 Z" />
</g>
<g id="#957e74fc">
<path fill="#957e74" opacity="1.00" d=" M 36.84 69.89 C 40.03 70.67 43.08 71.92 46.24 72.82 L 46.82 73.01 C 47.43 75.96 47.89 78.94 46.90 81.86 C 42.53 80.59 39.85 75.85 36.42 72.87 C 36.48 71.87 36.65 70.88 36.84 69.89 Z" />
</g>
<g id="#67544dfd">
<path fill="#67544d" opacity="1.00" d=" M 46.09 84.93 C 43.29 80.75 36.44 78.44 36.42 72.87 C 39.85 75.85 42.53 80.59 46.90 81.86 C 47.46 81.72 48.59 81.44 49.15 81.30 C 49.13 81.94 49.09 83.22 49.06 83.86 C 48.91 86.93 49.70 89.93 50.03 92.97 C 46.71 90.56 47.63 96.92 46.88 98.89 C 45.58 98.32 41.91 98.66 42.23 97.23 C 43.95 93.26 48.77 89.58 46.09 84.93 Z" />
</g>
<g id="#929683ff">
<path fill="#929683" opacity="1.00" d=" M 50.29 85.78 C 55.62 84.25 54.15 76.62 56.87 72.46 C 58.90 74.91 56.62 78.34 57.26 81.02 C 56.21 85.81 58.58 94.18 52.28 96.19 C 51.52 95.12 50.76 94.06 50.03 92.97 C 49.70 89.93 48.91 86.93 49.06 83.86 C 49.37 84.34 49.99 85.30 50.29 85.78 Z" />
</g>
<g id="#45474aff">
<path fill="#45474a" opacity="1.00" d=" M 159.91 77.91 C 160.88 75.91 163.10 75.04 164.87 73.90 C 165.64 76.97 162.96 79.10 161.50 81.43 C 159.66 85.48 158.40 89.77 156.90 93.96 C 155.23 94.96 153.53 95.92 151.87 96.94 C 154.23 90.46 157.27 84.27 159.91 77.91 Z" />
</g>
<g id="#d3c7c2f7">
<path fill="#d3c7c2" opacity="0.97" d=" M 6.18 77.11 C 7.86 75.82 9.86 74.72 12.05 74.86 C 12.67 75.15 13.93 75.73 14.56 76.02 C 13.00 77.49 11.00 78.23 9.05 79.02 C 8.23 78.35 5.78 78.54 6.18 77.11 Z" />
</g>
<g id="#906c57ff">
<path fill="#906c57" opacity="1.00" d=" M 76.75 75.16 C 80.17 75.00 83.57 74.98 86.99 74.99 L 87.01 75.99 C 86.20 76.05 84.57 76.18 83.75 76.24 C 82.47 76.18 81.19 76.15 79.91 76.14 L 79.13 76.12 L 78.21 76.07 L 77.11 75.99 L 76.75 75.16 Z" />
</g>
<g id="#67493cff">
<path fill="#67493c" opacity="1.00" d=" M 86.99 74.99 C 92.06 75.03 97.25 74.64 102.21 75.77 C 98.39 75.86 94.59 76.01 90.78 76.22 C 89.53 76.13 88.27 76.05 87.01 75.99 L 86.99 74.99 Z" />
</g>
<g id="#aa8f82ff">
<path fill="#aa8f82" opacity="1.00" d=" M 169.53 74.64 C 170.23 75.19 170.80 75.85 171.24 76.63 C 170.13 77.48 169.60 80.12 167.86 79.31 C 168.49 77.78 169.03 76.22 169.53 74.64 Z" />
</g>
<g id="#e6dfd9fe">
<path fill="#e6dfd9" opacity="1.00" d=" M 187.10 78.65 C 188.64 76.44 191.37 73.13 192.93 77.13 C 193.56 77.75 195.10 80.50 193.05 79.97 C 191.77 80.00 190.49 80.03 189.21 80.07 C 188.68 79.72 187.63 79.01 187.10 78.65 Z" />
</g>
<g id="#b2a6a0f6">
<path fill="#b2a6a0" opacity="0.96" d=" M 14.56 76.02 L 15.39 76.34 C 14.92 77.76 14.29 79.13 13.35 80.31 C 12.18 79.71 8.67 80.96 9.05 79.02 C 11.00 78.23 13.00 77.49 14.56 76.02 Z" />
</g>
<g id="#cfb098ff">
<path fill="#cfb098" opacity="1.00" d=" M 71.83 77.23 C 73.56 76.67 75.30 76.14 77.11 75.99 L 78.21 76.07 C 76.78 77.70 75.16 79.14 73.46 80.48 C 71.66 81.77 71.33 84.48 69.09 85.22 C 68.50 82.16 70.05 79.54 71.83 77.23 Z" />
</g>
<g id="#baa194ff">
<path fill="#baa194" opacity="1.00" d=" M 78.21 76.07 L 79.13 76.12 C 79.08 79.41 77.28 82.24 76.41 85.33 C 75.92 88.23 76.94 91.23 76.20 94.12 C 75.45 98.78 72.57 103.00 73.01 107.86 C 72.73 107.68 72.18 107.31 71.91 107.12 C 71.98 104.19 71.28 101.33 71.17 98.42 C 71.69 96.01 68.72 94.29 68.21 91.95 C 68.62 90.16 70.46 88.34 69.07 86.57 C 69.07 86.23 69.08 85.56 69.09 85.22 C 71.33 84.48 71.66 81.77 73.46 80.48 C 75.16 79.14 76.78 77.70 78.21 76.07 Z" />
</g>
<g id="#b1988eff">
<path fill="#b1988e" opacity="1.00" d=" M 79.13 76.12 L 79.91 76.14 C 84.20 78.71 88.42 81.56 91.80 85.26 C 92.45 87.64 90.59 89.82 89.89 91.95 C 86.34 98.24 83.43 106.16 75.81 108.36 C 75.11 108.24 73.71 107.99 73.01 107.86 C 72.57 103.00 75.45 98.78 76.20 94.12 C 76.94 91.23 75.92 88.23 76.41 85.33 C 77.28 82.24 79.08 79.41 79.13 76.12 Z" />
</g>
<g id="#a88f84ff">
<path fill="#a88f84" opacity="1.00" d=" M 79.91 76.14 C 81.19 76.15 82.47 76.18 83.75 76.24 C 88.67 78.38 94.59 77.72 98.95 81.18 C 99.19 82.32 98.95 83.34 98.24 84.24 C 94.32 89.89 89.79 95.33 88.12 102.17 C 87.02 104.59 85.36 106.71 83.70 108.78 C 81.17 108.92 78.63 109.04 76.10 109.12 L 75.81 108.36 C 83.43 106.16 86.34 98.24 89.89 91.95 C 90.59 89.82 92.45 87.64 91.80 85.26 C 88.42 81.56 84.20 78.71 79.91 76.14 Z" />
</g>
<g id="#9d8479ff">
<path fill="#9d8479" opacity="1.00" d=" M 83.75 76.24 C 84.57 76.18 86.20 76.05 87.01 75.99 C 88.27 76.05 89.53 76.13 90.78 76.22 C 93.79 76.61 96.82 76.97 99.85 77.14 C 101.23 78.06 102.61 79.02 103.84 80.16 C 103.08 84.75 98.44 86.31 96.15 89.82 C 95.40 91.10 94.70 92.40 93.95 93.68 C 92.31 95.91 90.71 98.20 89.88 100.86 C 89.44 101.19 88.56 101.84 88.12 102.17 C 89.79 95.33 94.32 89.89 98.24 84.24 C 98.95 83.34 99.19 82.32 98.95 81.18 C 94.59 77.72 88.67 78.38 83.75 76.24 Z" />
</g>
<g id="#8b6d5eff">
<path fill="#8b6d5e" opacity="1.00" d=" M 90.78 76.22 C 94.59 76.01 98.39 75.86 102.21 75.77 C 102.73 76.00 103.76 76.45 104.28 76.68 C 102.80 76.84 101.32 77.00 99.85 77.14 C 96.82 76.97 93.79 76.61 90.78 76.22 Z" />
</g>
<g id="#907d75ff">
<path fill="#907d75" opacity="1.00" d=" M 99.85 77.14 C 101.32 77.00 102.80 76.84 104.28 76.68 C 104.77 76.92 105.77 77.42 106.26 77.67 C 107.23 79.46 108.65 81.40 106.68 83.10 C 106.25 83.68 105.83 84.27 105.43 84.88 C 103.59 85.89 101.63 86.68 99.81 87.75 C 100.64 87.83 102.31 88.01 103.14 88.10 C 102.10 89.96 100.94 91.82 99.06 92.94 C 98.15 91.85 97.17 90.82 96.15 89.82 C 98.44 86.31 103.08 84.75 103.84 80.16 C 102.61 79.02 101.23 78.06 99.85 77.14 Z" />
</g>
<g id="#7c6760ff">
<path fill="#7c6760" opacity="1.00" d=" M 167.86 79.31 C 169.60 80.12 170.13 77.48 171.24 76.63 C 172.56 79.31 170.10 82.41 170.12 85.16 C 170.88 80.55 167.19 86.79 165.54 83.98 C 166.18 82.44 166.76 80.88 167.12 79.25 L 167.86 79.31 Z" />
</g>
<g id="#6b534aff">
<path fill="#6b534a" opacity="1.00" d=" M 106.26 77.67 C 111.54 80.75 113.27 87.27 116.22 92.31 C 116.68 94.84 117.31 97.35 118.16 99.78 C 117.94 100.16 117.51 100.93 117.29 101.31 C 115.16 95.18 112.64 89.18 109.68 83.41 C 108.68 83.26 107.68 83.21 106.68 83.10 C 108.65 81.40 107.23 79.46 106.26 77.67 Z" />
</g>
<g id="#323435ff">
<path fill="#323435" opacity="1.00" d=" M 165.22 79.16 C 165.69 79.18 166.64 79.23 167.12 79.25 C 166.76 80.88 166.18 82.44 165.54 83.98 C 164.35 85.94 165.04 88.51 163.35 90.21 C 163.21 89.61 162.92 88.42 162.78 87.83 C 160.63 90.72 160.54 94.55 158.61 97.55 C 156.40 99.07 148.74 102.35 158.69 101.27 C 160.24 104.19 161.21 107.47 161.01 110.81 C 159.36 113.02 157.51 115.08 155.58 117.05 C 153.90 118.57 152.32 120.20 150.80 121.87 C 150.11 122.55 149.42 123.24 148.73 123.93 L 147.95 124.35 C 147.10 122.82 145.33 121.18 146.24 119.28 C 149.61 114.41 153.83 110.14 157.01 105.13 C 151.67 100.57 144.75 105.81 138.77 105.67 C 132.90 106.29 127.04 105.76 121.20 105.24 C 120.36 106.08 119.38 106.93 119.07 108.13 C 117.73 112.27 117.46 116.71 115.87 120.78 C 113.10 121.07 110.55 122.20 107.92 123.04 C 109.50 120.91 111.60 119.15 112.73 116.71 C 115.66 112.28 111.74 112.24 109.65 110.98 C 112.17 107.79 116.56 105.60 117.29 101.31 C 117.51 100.93 117.94 100.16 118.16 99.78 C 118.81 103.33 122.46 104.85 125.98 104.15 C 134.01 105.79 141.96 103.46 149.71 101.64 C 151.59 100.82 151.56 98.64 151.87 96.94 C 153.53 95.92 155.23 94.96 156.90 93.96 C 162.25 91.01 161.43 83.49 165.22 79.16 Z" />
</g>
<g id="#5e4b46ff">
<path fill="#5e4b46" opacity="1.00" d=" M 31.35 80.38 C 34.49 78.94 31.81 81.81 30.81 82.80 C 29.59 84.70 26.61 84.36 25.91 82.19 C 27.87 82.03 29.94 81.92 31.35 80.38 Z" />
</g>
<g id="#715851fb">
<path fill="#715851" opacity="1.00" d=" M 181.07 81.01 C 183.79 80.78 186.51 80.48 189.21 80.07 C 190.49 80.03 191.77 80.00 193.05 79.97 C 193.39 82.07 189.71 79.97 190.08 82.08 C 189.30 87.37 185.49 91.45 182.80 95.89 C 182.38 95.87 181.54 95.83 181.12 95.80 C 176.71 94.97 171.47 97.62 167.77 94.23 C 166.05 92.39 164.60 88.07 167.87 87.10 C 167.77 91.26 171.33 94.44 175.78 92.89 C 179.27 89.92 182.06 85.90 181.07 81.01 Z" />
</g>
<g id="#80675fff">
<path fill="#80675f" opacity="1.00" d=" M 177.29 81.21 C 178.55 81.09 179.81 81.02 181.07 81.01 C 182.06 85.90 179.27 89.92 175.78 92.89 C 171.33 94.44 167.77 91.26 167.87 87.10 C 168.37 86.83 169.39 86.28 169.90 86.01 C 170.86 87.09 171.59 88.58 173.01 89.12 C 176.16 87.82 176.31 84.01 177.29 81.21 Z" />
</g>
<g id="#7c635bff">
<path fill="#7c635b" opacity="1.00" d=" M 105.43 84.88 C 105.83 84.27 106.25 83.68 106.68 83.10 C 107.68 83.21 108.68 83.26 109.68 83.41 C 112.64 89.18 115.16 95.18 117.29 101.31 C 116.56 105.60 112.17 107.79 109.65 110.98 C 108.07 111.95 106.50 112.95 105.01 114.04 C 101.72 116.59 98.36 119.04 94.76 121.14 C 93.65 121.40 92.56 121.71 91.46 122.00 C 87.92 120.99 84.34 120.16 80.76 119.31 C 83.40 118.07 90.13 121.14 90.26 116.67 L 90.86 116.67 C 90.40 119.59 91.55 120.79 94.08 119.09 C 99.40 116.42 102.96 111.28 107.24 107.24 C 108.62 106.27 107.75 104.65 107.04 103.57 C 109.72 101.80 114.68 101.08 112.02 96.08 C 110.31 93.21 107.58 91.18 105.25 88.85 C 105.33 87.52 105.45 86.20 105.43 84.88 Z" />
</g>
<g id="#604b44fe">
<path fill="#604b44" opacity="1.00" d=" M 165.54 83.98 C 167.19 86.79 170.88 80.55 170.12 85.16 L 169.90 86.01 C 169.39 86.28 168.37 86.83 167.87 87.10 C 164.60 88.07 166.05 92.39 167.77 94.23 C 171.47 97.62 176.71 94.97 181.12 95.80 C 180.73 97.03 179.67 97.87 178.84 98.80 C 177.71 99.23 176.58 99.67 175.44 100.10 C 169.51 100.32 165.29 96.60 162.69 91.80 C 162.86 91.40 163.19 90.61 163.35 90.21 C 165.04 88.51 164.35 85.94 165.54 83.98 Z" />
</g>
<g id="#4e3c38ff">
<path fill="#4e3c38" opacity="1.00" d=" M 105.43 84.88 C 105.45 86.20 105.33 87.52 105.25 88.85 C 107.72 98.28 96.57 98.27 90.99 100.98 L 89.88 100.86 C 90.71 98.20 92.31 95.91 93.95 93.68 C 94.94 94.74 95.86 95.87 96.86 96.93 C 97.64 95.63 98.30 94.26 99.06 92.94 C 98.99 94.58 98.50 96.89 100.98 95.99 C 103.85 95.57 104.65 89.08 103.14 88.10 C 102.31 88.01 100.64 87.83 99.81 87.75 C 101.63 86.68 103.59 85.89 105.43 84.88 Z" />
</g>
<g id="#e9cbafff">
<path fill="#e9cbaf" opacity="1.00" d=" M 65.73 92.29 C 66.77 90.34 67.85 88.41 69.07 86.57 C 70.46 88.34 68.62 90.16 68.21 91.95 C 67.41 94.31 68.53 96.40 70.22 98.00 C 70.14 99.48 70.00 102.45 69.93 103.93 C 68.53 103.74 67.16 103.44 65.77 103.20 C 65.17 102.37 64.57 101.56 63.96 100.74 C 64.12 97.84 65.16 95.12 65.73 92.29 Z" />
</g>
<g id="#626160ff">
<path fill="#626160" opacity="1.00" d=" M 103.14 88.10 C 104.65 89.08 103.85 95.57 100.98 95.99 C 98.50 96.89 98.99 94.58 99.06 92.94 C 100.94 91.82 102.10 89.96 103.14 88.10 Z" />
</g>
<g id="#262526ff">
<path fill="#262526" opacity="1.00" d=" M 158.61 97.55 C 160.54 94.55 160.63 90.72 162.78 87.83 C 162.92 88.42 163.21 89.61 163.35 90.21 C 163.19 90.61 162.86 91.40 162.69 91.80 C 162.26 92.80 161.87 93.81 161.52 94.84 C 160.02 98.00 160.13 102.45 163.13 104.68 C 165.44 104.25 167.71 103.61 169.98 103.01 C 169.93 104.64 169.88 106.26 169.78 107.89 C 169.56 108.14 169.11 108.65 168.88 108.91 C 168.48 108.99 167.67 109.17 167.27 109.26 C 165.17 109.72 163.07 110.17 161.01 110.81 C 161.21 107.47 160.24 104.19 158.69 101.27 C 148.74 102.35 156.40 99.07 158.61 97.55 Z" />
</g>
<g id="#8a7067ff">
<path fill="#8a7067" opacity="1.00" d=" M 105.25 88.85 C 107.58 91.18 110.31 93.21 112.02 96.08 C 114.68 101.08 109.72 101.80 107.04 103.57 C 106.50 103.86 105.43 104.43 104.89 104.71 C 103.94 104.97 103.00 105.27 102.07 105.60 C 100.76 106.07 99.49 106.61 98.20 107.11 C 93.70 108.50 89.41 110.44 84.96 111.98 C 85.86 110.75 87.25 109.44 86.40 107.80 C 87.86 105.48 89.49 103.27 90.99 100.98 C 96.57 98.27 107.72 98.28 105.25 88.85 Z" />
</g>
<g id="#7a4e49ff">
<path fill="#7a4e49" opacity="1.00" d=" M 96.15 89.82 C 97.17 90.82 98.15 91.85 99.06 92.94 C 98.30 94.26 97.64 95.63 96.86 96.93 C 95.86 95.87 94.94 94.74 93.95 93.68 C 94.70 92.40 95.40 91.10 96.15 89.82 Z" />
</g>
<g id="#59453df9">
<path fill="#59453d" opacity="0.98" d=" M 46.88 98.89 C 47.63 96.92 46.71 90.56 50.03 92.97 C 50.76 94.06 51.52 95.12 52.28 96.19 L 51.82 96.75 C 50.99 97.69 50.28 98.72 49.73 99.85 C 48.64 100.03 47.69 99.71 46.88 98.89 Z" />
</g>
<g id="#8b7769ff">
<path fill="#8b7769" opacity="1.00" d=" M 68.21 91.95 C 68.72 94.29 71.69 96.01 71.17 98.42 L 70.22 98.00 C 68.53 96.40 67.41 94.31 68.21 91.95 Z" />
</g>
<g id="#543e38ff">
<path fill="#543e38" opacity="1.00" d=" M 161.52 94.84 C 161.87 93.81 162.26 92.80 162.69 91.80 C 165.29 96.60 169.51 100.32 175.44 100.10 C 174.04 100.89 172.64 101.67 171.20 102.38 C 166.95 101.81 163.09 98.82 161.52 94.84 Z" />
</g>
<g id="#44302bff">
<path fill="#44302b" opacity="1.00" d=" M 163.13 104.68 C 160.13 102.45 160.02 98.00 161.52 94.84 C 163.09 98.82 166.95 101.81 171.20 102.38 C 170.90 102.54 170.28 102.85 169.98 103.01 C 167.71 103.61 165.44 104.25 163.13 104.68 Z" />
</g>
<g id="#6d6d60fc">
<path fill="#6d6d60" opacity="1.00" d=" M 49.73 99.85 C 50.28 98.72 50.99 97.69 51.82 96.75 C 53.18 97.72 54.54 98.69 55.89 99.67 C 56.19 102.12 54.92 103.86 52.83 105.04 C 51.26 103.76 48.21 102.23 49.73 99.85 Z" />
</g>
<g id="#d0b19cff">
<path fill="#d0b19c" opacity="1.00" d=" M 70.22 98.00 L 71.17 98.42 C 71.28 101.33 71.98 104.19 71.91 107.12 C 71.48 106.81 70.63 106.20 70.20 105.89 C 69.12 104.41 68.68 106.34 68.03 107.13 C 67.27 105.82 66.48 104.53 65.77 103.20 C 67.16 103.44 68.53 103.74 69.93 103.93 C 70.00 102.45 70.14 99.48 70.22 98.00 Z" />
</g>
<g id="#3e4041fa">
<path fill="#3e4041" opacity="0.98" d=" M 175.44 100.10 C 176.58 99.67 177.71 99.23 178.84 98.80 C 177.18 102.97 174.45 106.72 171.69 110.26 C 170.58 109.86 169.95 109.07 169.78 107.89 C 169.88 106.26 169.93 104.64 169.98 103.01 C 170.28 102.85 170.90 102.54 171.20 102.38 C 172.64 101.67 174.04 100.89 175.44 100.10 Z" />
</g>
<g id="#5a5852fd">
<path fill="#5a5852" opacity="1.00" d=" M 52.83 105.04 C 54.92 103.86 56.19 102.12 55.89 99.67 L 56.59 100.16 C 57.39 100.93 58.21 101.68 59.04 102.42 C 60.77 104.12 62.67 101.85 63.96 100.74 C 64.57 101.56 65.17 102.37 65.77 103.20 C 66.48 104.53 67.27 105.82 68.03 107.13 C 68.79 108.51 69.59 109.86 70.41 111.21 C 70.59 112.10 70.78 112.99 70.97 113.88 C 69.44 114.22 66.46 113.23 67.03 115.79 C 64.18 113.30 61.61 110.30 58.12 108.72 C 57.32 108.17 56.50 108.18 55.68 108.75 L 55.10 108.97 C 54.14 107.78 52.86 106.69 52.83 105.04 Z" />
</g>
<g id="#76645eff">
<path fill="#76645e" opacity="1.00" d=" M 88.12 102.17 C 88.56 101.84 89.44 101.19 89.88 100.86 L 90.99 100.98 C 89.49 103.27 87.86 105.48 86.40 107.80 C 84.67 111.39 78.48 110.73 76.10 109.12 C 78.63 109.04 81.17 108.92 83.70 108.78 C 85.36 106.71 87.02 104.59 88.12 102.17 Z" />
</g>
<g id="#393c3dfd">
<path fill="#393c3d" opacity="1.00" d=" M 138.77 105.67 C 144.75 105.81 151.67 100.57 157.01 105.13 C 153.83 110.14 149.61 114.41 146.24 119.28 C 145.33 121.18 147.10 122.82 147.95 124.35 C 147.65 124.72 147.06 125.47 146.77 125.84 C 146.16 126.53 145.60 127.26 145.09 128.03 L 144.67 128.66 C 144.50 128.92 144.16 129.44 143.98 129.71 C 143.68 130.21 143.08 131.21 142.78 131.71 C 139.66 133.07 136.19 134.20 132.74 133.78 C 136.14 132.17 139.91 131.13 142.91 128.81 C 143.88 126.05 141.54 124.22 140.18 122.19 C 143.59 117.07 149.04 113.13 151.16 107.22 C 146.96 107.21 142.91 106.17 138.77 105.67 Z" />
</g>
<g id="#71564fff">
<path fill="#71564f" opacity="1.00" d=" M 104.89 104.71 C 105.43 104.43 106.50 103.86 107.04 103.57 C 107.75 104.65 108.62 106.27 107.24 107.24 C 102.96 111.28 99.40 116.42 94.08 119.09 C 94.04 118.60 93.95 117.61 93.90 117.12 C 94.39 116.80 95.35 116.17 95.84 115.85 C 99.47 112.88 104.49 109.92 104.89 104.71 Z" />
</g>
<g id="#b29381ff">
<path fill="#b29381" opacity="1.00" d=" M 68.03 107.13 C 68.68 106.34 69.12 104.41 70.20 105.89 C 70.54 107.65 70.90 109.44 70.41 111.21 C 69.59 109.86 68.79 108.51 68.03 107.13 Z" />
</g>
<g id="#604740ff">
<path fill="#604740" opacity="1.00" d=" M 102.07 105.60 C 103.00 105.27 103.94 104.97 104.89 104.71 C 104.49 109.92 99.47 112.88 95.84 115.85 C 97.14 112.26 102.78 109.49 102.07 105.60 Z" />
</g>
<g id="#444647ff">
<path fill="#444647" opacity="1.00" d=" M 121.20 105.24 C 127.04 105.76 132.90 106.29 138.77 105.67 C 142.91 106.17 146.96 107.21 151.16 107.22 C 149.04 113.13 143.59 117.07 140.18 122.19 C 141.54 124.22 143.88 126.05 142.91 128.81 C 139.91 131.13 136.14 132.17 132.74 133.78 L 131.93 134.02 C 130.69 134.03 129.44 134.02 128.20 134.00 L 127.72 133.33 C 129.57 132.93 131.41 132.43 133.25 131.95 C 135.15 131.53 137.31 130.96 137.69 128.74 C 138.92 125.84 133.03 127.11 134.01 124.04 C 136.95 118.80 143.74 115.35 144.94 109.18 C 142.87 107.22 139.50 108.90 136.98 109.56 C 135.43 110.15 133.89 110.77 132.32 111.29 C 132.45 110.70 132.72 109.53 132.85 108.95 C 128.36 107.23 123.69 107.27 119.07 108.13 C 119.38 106.93 120.36 106.08 121.20 105.24 Z" />
</g>
<g id="#977f76ff">
<path fill="#977f76" opacity="1.00" d=" M 70.20 105.89 C 70.63 106.20 71.48 106.81 71.91 107.12 C 72.18 107.31 72.73 107.68 73.01 107.86 C 73.71 107.99 75.11 108.24 75.81 108.36 L 76.10 109.12 C 78.48 110.73 84.67 111.39 86.40 107.80 C 87.25 109.44 85.86 110.75 84.96 111.98 C 81.60 112.13 78.24 112.04 74.88 112.08 C 73.90 111.36 72.93 110.63 71.92 109.97 C 72.49 112.18 73.06 114.51 74.63 116.26 C 74.70 120.80 79.74 120.17 82.89 121.06 C 85.89 121.92 81.88 122.35 80.75 122.42 C 75.65 122.39 72.42 118.36 70.97 113.88 C 70.78 112.99 70.59 112.10 70.41 111.21 C 70.90 109.44 70.54 107.65 70.20 105.89 Z" />
</g>
<g id="#492d29ff">
<path fill="#492d29" opacity="1.00" d=" M 98.20 107.11 C 99.49 106.61 100.76 106.07 102.07 105.60 C 102.78 109.49 97.14 112.26 95.84 115.85 C 95.35 116.17 94.39 116.80 93.90 117.12 L 92.90 116.72 C 94.79 113.53 98.50 111.22 98.20 107.11 Z" />
</g>
<g id="#7a4647ff">
<path fill="#7a4647" opacity="1.00" d=" M 84.96 111.98 C 89.41 110.44 93.70 108.50 98.20 107.11 C 98.50 111.22 94.79 113.53 92.90 116.72 C 92.22 116.68 91.54 116.66 90.86 116.67 L 90.26 116.67 C 85.10 116.85 77.04 118.52 74.88 112.08 C 78.24 112.04 81.60 112.13 84.96 111.98 Z" />
</g>
<g id="#504e4cff">
<path fill="#504e4c" opacity="1.00" d=" M 119.07 108.13 C 123.69 107.27 128.36 107.23 132.85 108.95 C 132.72 109.53 132.45 110.70 132.32 111.29 C 129.80 112.28 126.93 112.95 125.22 115.24 C 124.02 119.72 122.95 124.26 122.15 128.83 C 123.85 130.52 125.70 132.02 127.72 133.33 L 128.20 134.00 C 125.42 134.01 122.65 133.97 119.88 133.88 L 118.87 133.73 C 119.93 133.11 121.00 132.49 122.01 131.79 C 120.12 128.36 115.24 128.41 113.14 125.16 C 114.11 123.74 115.19 122.37 115.87 120.78 C 117.46 116.71 117.73 112.27 119.07 108.13 Z" />
</g>
<g id="#78796fff">
<path fill="#78796f" opacity="1.00" d=" M 55.68 108.75 C 56.50 108.18 57.32 108.17 58.12 108.72 C 58.86 110.74 62.02 112.16 61.12 114.47 C 59.15 112.71 57.29 110.84 55.68 108.75 Z" />
</g>
<g id="#4e5253ff">
<path fill="#4e5253" opacity="1.00" d=" M 136.98 109.56 C 139.50 108.90 142.87 107.22 144.94 109.18 C 143.74 115.35 136.95 118.80 134.01 124.04 C 133.03 127.11 138.92 125.84 137.69 128.74 C 137.31 130.96 135.15 131.53 133.25 131.95 C 132.73 129.39 130.54 128.13 128.18 127.58 C 128.65 121.64 135.10 117.94 138.02 112.92 C 138.14 111.66 137.80 110.54 136.98 109.56 Z" />
</g>
<g id="#422e27fd">
<path fill="#422e27" opacity="1.00" d=" M 168.88 108.91 C 169.11 108.65 169.56 108.14 169.78 107.89 C 169.95 109.07 170.58 109.86 171.69 110.26 C 171.73 110.64 171.81 111.38 171.84 111.75 C 169.04 118.64 160.58 120.05 154.90 123.84 C 153.35 123.86 150.27 123.91 148.73 123.93 C 149.42 123.24 150.11 122.55 150.80 121.87 C 152.62 121.78 154.65 122.35 156.26 121.24 C 160.77 118.32 166.72 116.73 169.59 111.81 C 169.39 110.83 169.15 109.86 168.88 108.91 Z" />
</g>
<g id="#3b251ffe">
<path fill="#3b251f" opacity="1.00" d=" M 55.10 108.97 L 55.68 108.75 C 57.29 110.84 59.15 112.71 61.12 114.47 C 62.82 116.31 64.53 118.16 66.26 119.99 C 62.44 120.10 58.09 119.61 55.29 116.72 C 54.66 114.89 54.19 113.00 53.84 111.10 C 54.15 110.57 54.79 109.50 55.10 108.97 Z" />
</g>
<g id="#65665eff">
<path fill="#65665e" opacity="1.00" d=" M 58.12 108.72 C 61.61 110.30 64.18 113.30 67.03 115.79 C 67.34 116.08 67.96 116.66 68.28 116.95 C 67.95 118.09 67.56 119.22 67.13 120.33 L 66.26 119.99 C 64.53 118.16 62.82 116.31 61.12 114.47 C 62.02 112.16 58.86 110.74 58.12 108.72 Z" />
</g>
<g id="#2a1b17ff">
<path fill="#2a1b17" opacity="1.00" d=" M 161.01 110.81 C 163.07 110.17 165.17 109.72 167.27 109.26 C 167.03 112.71 163.89 114.75 161.02 116.03 C 159.32 116.53 157.30 118.83 155.58 117.05 C 157.51 115.08 159.36 113.02 161.01 110.81 Z" />
</g>
<g id="#38231eff">
<path fill="#38231e" opacity="1.00" d=" M 167.27 109.26 C 167.67 109.17 168.48 108.99 168.88 108.91 C 169.15 109.86 169.39 110.83 169.59 111.81 C 166.72 116.73 160.77 118.32 156.26 121.24 C 154.65 122.35 152.62 121.78 150.80 121.87 C 152.32 120.20 153.90 118.57 155.58 117.05 C 157.30 118.83 159.32 116.53 161.02 116.03 C 163.89 114.75 167.03 112.71 167.27 109.26 Z" />
</g>
<g id="#4f3532ff">
<path fill="#4f3532" opacity="1.00" d=" M 71.92 109.97 C 72.93 110.63 73.90 111.36 74.88 112.08 C 77.04 118.52 85.10 116.85 90.26 116.67 C 90.13 121.14 83.40 118.07 80.76 119.31 C 78.41 119.01 76.49 117.60 74.63 116.26 C 73.06 114.51 72.49 112.18 71.92 109.97 Z" />
</g>
<g id="#5b5e5dff">
<path fill="#5b5e5d" opacity="1.00" d=" M 132.32 111.29 C 133.89 110.77 135.43 110.15 136.98 109.56 C 137.80 110.54 138.14 111.66 138.02 112.92 C 135.10 117.94 128.65 121.64 128.18 127.58 C 130.54 128.13 132.73 129.39 133.25 131.95 C 131.41 132.43 129.57 132.93 127.72 133.33 C 125.70 132.02 123.85 130.52 122.15 128.83 C 122.95 124.26 124.02 119.72 125.22 115.24 C 126.93 112.95 129.80 112.28 132.32 111.29 Z" />
</g>
<g id="#4d3730ff">
<path fill="#4d3730" opacity="1.00" d=" M 52.85 111.91 C 53.10 111.71 53.59 111.30 53.84 111.10 C 54.19 113.00 54.66 114.89 55.29 116.72 C 58.09 119.61 62.44 120.10 66.26 119.99 L 67.13 120.33 C 68.64 121.41 70.03 122.63 71.35 123.93 C 65.41 124.07 59.40 122.86 54.27 119.76 C 52.13 117.82 52.11 114.52 52.85 111.91 Z" />
</g>
<g id="#444546ff">
<path fill="#444546" opacity="1.00" d=" M 105.01 114.04 C 106.50 112.95 108.07 111.95 109.65 110.98 C 111.74 112.24 115.66 112.28 112.73 116.71 C 111.60 119.15 109.50 120.91 107.92 123.04 C 110.55 122.20 113.10 121.07 115.87 120.78 C 115.19 122.37 114.11 123.74 113.14 125.16 C 112.44 124.06 111.73 124.07 111.02 125.19 C 112.54 126.93 114.11 128.63 115.73 130.29 C 115.65 131.91 115.16 133.48 114.90 135.09 L 114.39 134.54 C 113.17 132.70 110.64 132.94 108.88 131.89 C 109.57 130.29 111.25 129.09 111.00 127.17 C 107.37 126.35 103.61 126.27 100.00 125.36 C 104.60 124.43 108.95 117.70 105.01 114.04 Z" />
</g>
<g id="#5b453efd">
<path fill="#5b453e" opacity="1.00" d=" M 50.18 114.77 C 50.12 113.38 52.02 112.83 52.85 111.91 C 52.11 114.52 52.13 117.82 54.27 119.76 C 59.40 122.86 65.41 124.07 71.35 123.93 L 72.11 124.46 C 73.47 125.63 74.87 126.74 76.15 127.99 C 68.44 126.63 60.18 125.79 53.38 121.61 C 52.05 119.46 51.18 117.08 50.18 114.77 Z" />
</g>
<g id="#4d3831fe">
<path fill="#4d3831" opacity="1.00" d=" M 154.90 123.84 C 160.58 120.05 169.04 118.64 171.84 111.75 C 172.04 112.02 172.42 112.55 172.62 112.81 C 172.06 114.51 172.08 116.48 170.82 117.86 C 163.31 121.84 155.77 127.47 146.77 125.84 C 147.06 125.47 147.65 124.72 147.95 124.35 L 148.73 123.93 C 150.27 123.91 153.35 123.86 154.90 123.84 Z" />
</g>
<g id="#59433cfe">
<path fill="#59433c" opacity="1.00" d=" M 170.82 117.86 C 172.08 116.48 172.06 114.51 172.62 112.81 C 173.14 113.84 174.91 114.54 174.62 115.82 C 174.30 117.11 174.02 118.42 173.65 119.70 C 164.75 124.37 155.71 129.98 145.09 128.03 C 145.60 127.26 146.16 126.53 146.77 125.84 C 155.77 127.47 163.31 121.84 170.82 117.86 Z" />
</g>
<g id="#4b4947ff">
<path fill="#4b4947" opacity="1.00" d=" M 67.03 115.79 C 66.46 113.23 69.44 114.22 70.97 113.88 C 72.42 118.36 75.65 122.39 80.75 122.42 C 81.87 122.66 83.00 122.87 84.14 123.05 C 84.68 126.80 78.52 121.64 80.02 125.96 C 79.41 128.17 82.00 127.71 82.84 128.99 C 82.43 129.34 81.61 130.03 81.20 130.37 C 79.47 129.68 77.80 128.87 76.15 127.99 C 74.87 126.74 73.47 125.63 72.11 124.46 C 74.65 121.32 70.18 118.95 68.28 116.95 C 67.96 116.66 67.34 116.08 67.03 115.79 Z" />
</g>
<g id="#4f5151ff">
<path fill="#4f5151" opacity="1.00" d=" M 94.76 121.14 C 98.36 119.04 101.72 116.59 105.01 114.04 C 108.95 117.70 104.60 124.43 100.00 125.36 C 98.18 124.04 96.30 122.79 94.76 121.14 Z" />
</g>
<g id="#664f47fe">
<path fill="#664f47" opacity="1.00" d=" M 49.10 114.90 L 50.18 114.77 C 51.18 117.08 52.05 119.46 53.38 121.61 C 60.18 125.79 68.44 126.63 76.15 127.99 C 77.80 128.87 79.47 129.68 81.20 130.37 C 80.34 134.62 75.45 132.86 72.66 131.38 C 66.44 128.19 59.42 126.97 53.24 123.71 C 51.39 121.35 50.46 118.47 49.28 115.75 L 49.10 114.90 Z" />
</g>
<g id="#705850fe">
<path fill="#705850" opacity="1.00" d=" M 49.28 115.75 C 50.46 118.47 51.39 121.35 53.24 123.71 C 59.42 126.97 66.44 128.19 72.66 131.38 C 75.45 132.86 80.34 134.62 81.20 130.37 C 81.61 130.03 82.43 129.34 82.84 128.99 L 83.30 129.65 C 81.99 131.86 80.62 134.14 81.03 136.83 C 80.34 136.22 79.65 135.61 78.97 135.00 C 79.12 137.57 79.87 140.18 79.88 142.78 C 74.18 145.08 68.03 146.12 61.98 147.03 C 61.05 143.28 65.43 142.55 67.59 140.59 C 68.17 138.52 69.03 136.42 68.86 134.23 C 66.67 131.71 63.33 130.67 60.16 130.02 C 58.47 132.57 57.53 135.51 56.44 138.34 C 55.72 139.76 57.76 142.54 54.99 142.04 C 54.58 140.77 53.90 139.58 53.61 138.28 C 55.70 136.25 57.66 133.31 56.83 130.26 C 53.01 127.12 46.91 122.61 49.08 116.82 L 49.28 115.75 Z" />
</g>
<g id="#806e68ff">
<path fill="#806e68" opacity="1.00" d=" M 74.63 116.26 C 76.49 117.60 78.41 119.01 80.76 119.31 C 84.34 120.16 87.92 120.99 91.46 122.00 C 90.79 122.35 89.46 123.04 88.80 123.38 C 87.25 123.21 85.70 123.11 84.14 123.05 C 83.00 122.87 81.87 122.66 80.75 122.42 C 81.88 122.35 85.89 121.92 82.89 121.06 C 79.74 120.17 74.70 120.80 74.63 116.26 Z" />
</g>
<g id="#a28c85ff">
<path fill="#a28c85" opacity="1.00" d=" M 90.86 116.67 C 91.54 116.66 92.22 116.68 92.90 116.72 L 93.90 117.12 C 93.95 117.61 94.04 118.60 94.08 119.09 C 91.55 120.79 90.40 119.59 90.86 116.67 Z" />
</g>
<g id="#664f48fe">
<path fill="#664f48" opacity="1.00" d=" M 173.65 119.70 C 174.02 118.42 174.30 117.11 174.62 115.82 C 175.38 117.09 176.62 118.30 176.74 119.84 C 175.64 126.70 167.69 125.25 162.99 127.96 C 157.40 130.24 149.65 133.57 144.67 128.66 L 145.09 128.03 C 155.71 129.98 164.75 124.37 173.65 119.70 Z" />
</g>
<g id="#816a61fe">
<path fill="#816a61" opacity="1.00" d=" M 46.90 121.00 C 47.14 119.50 47.62 117.53 49.08 116.82 C 46.91 122.61 53.01 127.12 56.83 130.26 C 57.66 133.31 55.70 136.25 53.61 138.28 C 54.52 131.53 45.51 127.99 46.90 121.00 Z" />
</g>
<g id="#555753ff">
<path fill="#555753" opacity="1.00" d=" M 68.28 116.95 C 70.18 118.95 74.65 121.32 72.11 124.46 L 71.35 123.93 C 70.03 122.63 68.64 121.41 67.13 120.33 C 67.56 119.22 67.95 118.09 68.28 116.95 Z" />
</g>
<g id="#735c54fd">
<path fill="#735c54" opacity="1.00" d=" M 162.99 127.96 C 167.69 125.25 175.64 126.70 176.74 119.84 C 180.14 126.86 179.25 135.47 176.62 142.68 C 176.02 144.74 174.78 146.72 175.03 148.94 C 175.81 151.01 177.16 152.84 177.74 154.99 C 176.55 154.89 175.53 155.17 174.67 155.83 C 173.56 156.90 174.09 158.76 173.72 160.16 C 172.09 158.83 170.90 156.80 168.92 156.00 C 165.41 155.76 164.83 160.16 163.92 162.70 L 163.14 162.83 C 162.48 160.91 162.70 158.13 160.98 156.91 C 159.53 155.79 157.74 156.21 156.11 156.53 C 154.71 156.13 153.30 155.78 151.87 155.55 C 151.60 155.40 151.07 155.10 150.80 154.95 C 152.27 151.21 153.89 147.14 158.11 145.82 C 160.00 147.84 160.24 145.62 160.62 143.89 C 160.60 146.34 163.03 146.18 164.80 145.89 C 166.23 144.58 166.68 142.46 168.17 141.27 C 168.15 141.98 168.11 143.41 168.08 144.12 C 169.59 142.67 172.65 141.37 171.40 138.87 C 171.24 136.83 173.13 135.62 173.99 133.97 C 172.82 131.36 171.39 127.33 167.10 130.17 C 163.41 131.94 153.64 131.74 155.63 137.93 C 155.44 138.23 155.06 138.81 154.87 139.11 C 153.50 136.56 151.30 134.72 148.34 134.53 C 145.71 134.34 145.01 131.67 143.98 129.71 C 144.16 129.44 144.50 128.92 144.67 128.66 C 149.65 133.57 157.40 130.24 162.99 127.96 Z" />
</g>
<g id="#8d776af8">
<path fill="#8d776a" opacity="0.97" d=" M 45.98 121.99 C 46.21 121.74 46.67 121.25 46.90 121.00 C 45.51 127.99 54.52 131.53 53.61 138.28 C 53.90 139.58 54.58 140.77 54.99 142.04 C 55.81 147.06 50.59 148.03 46.67 148.94 C 45.46 148.63 44.27 148.29 43.07 148.00 L 43.03 147.17 C 46.13 146.97 49.07 145.95 51.91 144.79 C 50.61 140.43 46.16 137.02 46.01 132.01 C 45.98 128.66 46.01 125.33 45.98 121.99 Z" />
</g>
<g id="#5c5e5dff">
<path fill="#5c5e5d" opacity="1.00" d=" M 91.46 122.00 C 92.56 121.71 93.65 121.40 94.76 121.14 C 96.30 122.79 98.18 124.04 100.00 125.36 C 96.29 124.58 92.50 124.19 88.80 123.38 C 89.46 123.04 90.79 122.35 91.46 122.00 Z" />
</g>
<g id="#56473ea9">
<path fill="#56473e" opacity="0.66" d=" M 45.01 131.99 C 45.25 129.49 45.74 124.49 45.98 121.99 C 46.01 125.33 45.98 128.66 46.01 132.01 L 45.01 131.99 Z" />
</g>
<g id="#51504dfd">
<path fill="#51504d" opacity="1.00" d=" M 84.14 123.05 C 85.70 123.11 87.25 123.21 88.80 123.38 C 92.50 124.19 96.29 124.58 100.00 125.36 C 103.61 126.27 107.37 126.35 111.00 127.17 C 111.25 129.09 109.57 130.29 108.88 131.89 C 110.64 132.94 113.17 132.70 114.39 134.54 C 112.79 134.92 109.58 135.67 107.98 136.05 L 108.02 135.07 C 108.82 134.99 110.42 134.84 111.22 134.76 C 103.90 130.44 95.38 129.41 87.13 128.13 C 87.08 128.83 86.97 130.23 86.91 130.93 C 85.53 131.04 83.84 131.29 83.30 129.65 L 82.84 128.99 C 82.00 127.71 79.41 128.17 80.02 125.96 C 78.52 121.64 84.68 126.80 84.14 123.05 Z" />
</g>
<g id="#363636fa">
<path fill="#363636" opacity="0.98" d=" M 111.02 125.19 C 111.73 124.07 112.44 124.06 113.14 125.16 C 115.24 128.41 120.12 128.36 122.01 131.79 C 121.00 132.49 119.93 133.11 118.87 133.73 C 117.28 133.03 116.13 134.27 114.90 135.09 C 115.16 133.48 115.65 131.91 115.73 130.29 C 114.11 128.63 112.54 126.93 111.02 125.19 Z" />
</g>
<g id="#5d5f5cf7">
<path fill="#5d5f5c" opacity="0.97" d=" M 87.13 128.13 C 95.38 129.41 103.90 130.44 111.22 134.76 C 110.42 134.84 108.82 134.99 108.02 135.07 C 100.85 135.07 94.02 132.78 86.99 131.83 L 86.91 130.93 C 86.97 130.23 87.08 128.83 87.13 128.13 Z" />
</g>
<g id="#796159fe">
<path fill="#796159" opacity="1.00" d=" M 60.16 130.02 C 63.33 130.67 66.67 131.71 68.86 134.23 C 69.03 136.42 68.17 138.52 67.59 140.59 C 65.43 142.55 61.05 143.28 61.98 147.03 C 68.03 146.12 74.18 145.08 79.88 142.78 C 79.87 140.18 79.12 137.57 78.97 135.00 C 79.65 135.61 80.34 136.22 81.03 136.83 C 82.24 138.03 84.36 138.84 84.09 140.89 C 84.18 143.53 84.09 146.16 83.85 148.79 C 79.98 151.64 75.63 154.00 70.92 155.07 C 70.26 152.66 74.14 149.81 71.75 148.18 C 68.33 147.28 65.12 149.73 62.94 152.10 C 61.39 149.69 59.24 150.55 57.30 151.96 C 56.17 151.11 55.39 148.73 53.68 149.65 C 51.37 149.81 48.68 151.87 46.67 149.96 L 46.67 148.94 C 50.59 148.03 55.81 147.06 54.99 142.04 C 57.76 142.54 55.72 139.76 56.44 138.34 C 57.53 135.51 58.47 132.57 60.16 130.02 Z" />
</g>
<g id="#846d64fc">
<path fill="#846d64" opacity="1.00" d=" M 142.78 131.71 C 143.08 131.21 143.68 130.21 143.98 129.71 C 145.01 131.67 145.71 134.34 148.34 134.53 C 151.30 134.72 153.50 136.56 154.87 139.11 C 156.16 141.24 157.86 143.24 158.11 145.82 C 153.89 147.14 152.27 151.21 150.80 154.95 C 149.77 155.38 148.74 155.82 147.73 156.29 C 147.85 152.50 148.84 148.80 149.10 145.03 C 148.80 145.23 148.20 145.62 147.90 145.82 C 144.41 143.19 145.40 135.89 142.78 131.71 Z" />
</g>
<g id="#7c655dff">
<path fill="#7c655d" opacity="1.00" d=" M 155.63 137.93 C 153.64 131.74 163.41 131.94 167.10 130.17 C 171.39 127.33 172.82 131.36 173.99 133.97 C 173.13 135.62 171.24 136.83 171.40 138.87 C 170.40 139.77 169.29 140.53 168.17 141.27 C 166.68 142.46 166.23 144.58 164.80 145.89 C 163.03 146.18 160.60 146.34 160.62 143.89 C 159.51 141.56 157.22 139.94 155.63 137.93 Z" />
</g>
<g id="#232323b9">
<path fill="#232323" opacity="0.73" d=" M 119.88 133.88 C 122.65 133.97 125.42 134.01 128.20 134.00 C 129.44 134.02 130.69 134.03 131.93 134.02 L 132.02 134.98 C 128.80 133.77 121.45 137.20 119.88 133.88 Z" />
</g>
<g id="#604f4aff">
<path fill="#604f4a" opacity="1.00" d=" M 154.87 139.11 C 155.06 138.81 155.44 138.23 155.63 137.93 C 157.22 139.94 159.51 141.56 160.62 143.89 C 160.24 145.62 160.00 147.84 158.11 145.82 C 157.86 143.24 156.16 141.24 154.87 139.11 Z" />
</g>
<g id="#5e4b45ff">
<path fill="#5e4b45" opacity="1.00" d=" M 171.40 138.87 C 172.65 141.37 169.59 142.67 168.08 144.12 C 168.11 143.41 168.15 141.98 168.17 141.27 C 169.29 140.53 170.40 139.77 171.40 138.87 Z" />
</g>
<g id="#7c6661f7">
<path fill="#7c6661" opacity="0.97" d=" M 84.09 140.89 C 86.41 141.94 86.40 144.83 86.90 146.98 C 87.07 148.42 87.24 149.87 87.66 151.26 L 87.82 151.91 C 80.08 153.08 72.88 157.00 65.15 157.92 C 65.14 155.72 64.57 153.64 62.94 152.10 C 65.12 149.73 68.33 147.28 71.75 148.18 C 74.14 149.81 70.26 152.66 70.92 155.07 C 75.63 154.00 79.98 151.64 83.85 148.79 C 84.09 146.16 84.18 143.53 84.09 140.89 Z" />
</g>
<g id="#a08678f3">
<path fill="#a08678" opacity="0.95" d=" M 147.90 145.82 C 148.20 145.62 148.80 145.23 149.10 145.03 C 148.84 148.80 147.85 152.50 147.73 156.29 C 147.30 156.47 146.45 156.84 146.02 157.03 C 146.31 153.25 147.05 149.51 147.90 145.82 Z" />
</g>
<g id="#b0acb0e9">
<path fill="#b0acb0" opacity="0.91" d=" M 86.90 146.98 C 88.58 147.90 91.56 148.39 91.04 150.93 C 90.20 151.01 88.50 151.18 87.66 151.26 C 87.24 149.87 87.07 148.42 86.90 146.98 Z" />
</g>
<g id="#b9ada6f5">
<path fill="#b9ada6" opacity="0.96" d=" M 31.21 152.20 C 34.82 150.07 38.61 147.17 43.07 148.00 C 44.27 148.29 45.46 148.63 46.67 148.94 L 46.67 149.96 C 42.89 149.36 39.49 151.98 40.74 155.92 C 38.37 155.98 31.04 159.32 33.91 155.01 C 25.18 157.74 29.53 154.00 31.21 152.20 Z" />
</g>
<g id="#5b4942ff">
<path fill="#5b4942" opacity="1.00" d=" M 53.68 149.65 C 55.39 148.73 56.17 151.11 57.30 151.96 C 56.79 152.26 55.78 152.86 55.27 153.16 C 54.97 152.78 54.38 152.02 54.09 151.64 C 53.99 151.14 53.78 150.15 53.68 149.65 Z" />
</g>
<g id="#a89891fd">
<path fill="#a89891" opacity="1.00" d=" M 40.74 155.92 C 39.49 151.98 42.89 149.36 46.67 149.96 C 48.68 151.87 51.37 149.81 53.68 149.65 C 53.78 150.15 53.99 151.14 54.09 151.64 C 51.75 151.85 48.88 153.20 48.92 155.91 C 50.26 155.98 51.61 156.01 52.96 156.00 L 52.72 156.80 C 49.81 157.74 46.73 157.96 43.69 157.75 C 45.32 155.94 47.14 154.24 48.07 151.92 C 45.21 151.62 42.87 153.44 41.76 155.94 L 40.74 155.92 Z" />
</g>
<g id="#baaaa3f9">
<path fill="#baaaa3" opacity="0.98" d=" M 57.30 151.96 C 59.24 150.55 61.39 149.69 62.94 152.10 C 64.57 153.64 65.14 155.72 65.15 157.92 C 60.60 157.75 56.38 159.49 51.96 160.04 C 52.14 158.94 52.39 157.86 52.72 156.80 L 52.96 156.00 C 53.70 155.03 54.48 154.09 55.27 153.16 C 55.78 152.86 56.79 152.26 57.30 151.96 Z" />
</g>
<g id="#c5b8b2fc">
<path fill="#c5b8b2" opacity="1.00" d=" M 41.76 155.94 C 42.87 153.44 45.21 151.62 48.07 151.92 C 47.14 154.24 45.32 155.94 43.69 157.75 C 41.97 160.25 41.72 157.88 41.76 155.94 Z" />
</g>
<g id="#96857efe">
<path fill="#96857e" opacity="1.00" d=" M 48.92 155.91 C 48.88 153.20 51.75 151.85 54.09 151.64 C 54.38 152.02 54.97 152.78 55.27 153.16 C 54.48 154.09 53.70 155.03 52.96 156.00 C 51.61 156.01 50.26 155.98 48.92 155.91 Z" />
</g>
<g id="#bdafa5f5">
<path fill="#bdafa5" opacity="0.96" d=" M 147.73 156.29 C 148.74 155.82 149.77 155.38 150.80 154.95 C 151.07 155.10 151.60 155.40 151.87 155.55 L 152.08 156.45 C 149.82 157.45 146.37 161.74 150.15 162.85 C 148.60 163.78 146.86 164.30 145.14 164.81 C 143.34 163.22 144.23 157.93 146.02 157.03 C 146.45 156.84 147.30 156.47 147.73 156.29 Z" />
</g>
<g id="#60504bfa">
<path fill="#60504b" opacity="0.98" d=" M 151.87 155.55 C 153.30 155.78 154.71 156.13 156.11 156.53 C 155.14 158.53 154.93 160.74 154.88 162.93 C 154.43 162.95 153.54 162.99 153.10 163.01 C 152.84 161.37 152.34 158.09 152.08 156.45 L 151.87 155.55 Z" />
</g>
<g id="#c4b8adf9">
<path fill="#c4b8ad" opacity="0.98" d=" M 174.67 155.83 C 175.53 155.17 176.55 154.89 177.74 154.99 C 180.07 157.91 184.79 159.44 184.04 164.02 C 179.90 164.37 174.93 161.04 171.66 164.62 C 169.11 164.89 166.55 162.97 163.92 162.70 C 164.83 160.16 165.41 155.76 168.92 156.00 C 170.90 156.80 172.09 158.83 173.72 160.16 C 175.03 162.08 178.83 160.68 177.83 158.28 C 176.82 157.40 175.73 156.64 174.67 155.83 Z" />
</g>
<g id="#cfc1b6fc">
<path fill="#cfc1b6" opacity="1.00" d=" M 156.11 156.53 C 157.74 156.21 159.53 155.79 160.98 156.91 C 160.12 159.67 159.36 162.48 158.06 165.08 C 157.05 164.34 155.01 164.45 154.88 162.93 C 154.93 160.74 155.14 158.53 156.11 156.53 Z" />
</g>
<g id="#b4a59dff">
<path fill="#b4a59d" opacity="1.00" d=" M 173.72 160.16 C 174.09 158.76 173.56 156.90 174.67 155.83 C 175.73 156.64 176.82 157.40 177.83 158.28 C 178.83 160.68 175.03 162.08 173.72 160.16 Z" />
</g>
<g id="#988881fb">
<path fill="#988881" opacity="1.00" d=" M 150.15 162.85 C 146.37 161.74 149.82 157.45 152.08 156.45 C 152.34 158.09 152.84 161.37 153.10 163.01 C 152.36 162.97 150.89 162.89 150.15 162.85 Z" />
</g>
<g id="#a69691f6">
<path fill="#a69691" opacity="0.96" d=" M 160.98 156.91 C 162.70 158.13 162.48 160.91 163.14 162.83 C 161.56 163.80 159.92 164.79 158.06 165.08 C 159.36 162.48 160.12 159.67 160.98 156.91 Z" />
</g>
</svg>
