<?xml version="1.0" encoding="UTF-8" ?>
<!DOCTYPE svg PUBLIC "-//W3C//DTD SVG 1.1//EN" "http://www.w3.org/Graphics/SVG/1.1/DTD/svg11.dtd">
<svg width="102pt" height="170pt" viewBox="0 0 102 170" version="1.1" xmlns="http://www.w3.org/2000/svg">
<g id="#f85900fb">
<path fill="#f85900" opacity="1.00" d=" M 33.26 5.23 C 36.73 4.64 41.20 6.11 43.83 3.00 C 43.91 5.81 44.98 8.40 45.88 11.01 C 44.07 13.87 42.53 17.47 43.68 20.87 C 41.22 21.97 39.90 24.34 39.87 27.00 C 38.80 27.66 37.74 28.34 36.72 29.06 C 34.60 28.75 34.18 26.29 33.53 24.61 C 33.18 19.68 31.19 15.17 29.19 10.74 C 29.78 8.44 31.57 6.78 33.26 5.23 Z" />
</g>
<g id="#fe7a01ff">
<path fill="#fe7a01" opacity="1.00" d=" M 27.00 11.98 C 27.55 11.67 28.64 11.05 29.19 10.74 C 31.19 15.17 33.18 19.68 33.53 24.61 C 34.18 26.29 34.60 28.75 36.72 29.06 C 36.17 31.14 35.88 33.30 34.90 35.24 C 32.14 34.58 32.41 30.96 31.09 28.96 C 30.44 25.62 28.03 23.30 25.39 21.43 C 23.65 17.92 25.84 15.01 27.00 11.98 Z" />
</g>
<g id="#fb8f00fd">
<path fill="#fb8f00" opacity="1.00" d=" M 19.24 16.31 C 21.96 15.11 24.35 13.32 27.00 11.98 C 25.84 15.01 23.65 17.92 25.39 21.43 C 28.03 23.30 30.44 25.62 31.09 28.96 C 32.41 30.96 32.14 34.58 34.90 35.24 C 34.65 35.72 34.14 36.69 33.89 37.18 C 30.36 35.11 29.99 30.55 26.72 28.29 C 22.37 27.00 17.57 26.83 14.06 30.10 C 14.06 28.83 14.07 27.57 14.09 26.31 C 15.65 22.92 20.56 20.44 19.24 16.31 Z" />
</g>
<g id="#fa5d00fc">
<path fill="#fa5d00" opacity="1.00" d=" M 73.22 15.19 C 77.00 17.22 79.50 21.27 79.39 25.66 C 81.15 27.75 83.31 29.92 83.10 32.89 C 78.11 30.27 83.93 37.76 80.65 38.94 C 75.60 37.43 69.72 40.32 70.13 45.91 C 72.50 50.11 72.47 55.41 76.22 58.75 C 74.17 60.69 74.72 64.76 73.06 65.98 C 73.94 60.93 66.72 61.74 64.91 58.05 C 63.01 54.75 66.37 51.14 65.46 47.65 C 63.94 42.11 64.54 36.29 63.39 30.71 C 64.14 27.52 69.70 26.36 69.02 22.01 C 68.96 18.89 71.35 17.13 73.22 15.19 Z" />
</g>
<g id="#dcca84fd">
<path fill="#dcca84" opacity="1.00" d=" M 39.87 27.00 C 42.68 26.21 45.34 24.97 48.12 24.08 C 47.84 25.54 47.26 27.10 46.07 28.05 C 42.92 30.78 39.42 33.34 37.10 36.86 C 36.92 39.30 36.67 41.74 36.36 44.17 C 33.10 43.06 29.60 46.55 33.19 48.82 C 30.85 47.93 29.34 48.63 29.09 51.19 C 27.62 55.06 26.62 61.72 21.30 61.49 C 19.13 61.77 20.62 63.77 20.88 65.05 C 19.80 65.44 18.77 65.95 17.76 66.49 C 15.31 66.69 13.17 63.93 12.30 61.74 C 12.23 60.75 10.97 57.43 12.88 58.09 C 12.70 60.86 14.92 63.72 17.89 63.04 C 21.29 59.06 23.20 54.15 23.87 49.02 C 23.78 46.62 25.38 44.96 27.01 43.46 C 27.54 43.12 28.61 42.46 29.14 42.12 C 30.22 41.34 31.18 40.41 32.09 39.43 C 32.78 38.75 33.38 38.00 33.89 37.18 C 34.14 36.69 34.65 35.72 34.90 35.24 C 35.88 33.30 36.17 31.14 36.72 29.06 C 37.74 28.34 38.80 27.66 39.87 27.00 Z" />
</g>
<g id="#eddd8bf5">
<path fill="#eddd8b" opacity="0.96" d=" M 8.02 24.95 C 10.15 24.77 12.20 25.35 14.09 26.31 C 14.07 27.57 14.06 28.83 14.06 30.10 C 14.05 30.82 14.03 32.27 14.02 33.00 C 13.86 33.31 13.53 33.93 13.36 34.24 C 11.42 31.25 9.54 28.19 8.02 24.95 Z" />
</g>
<g id="#ffa601ff">
<path fill="#ffa601" opacity="1.00" d=" M 14.06 30.10 C 17.57 26.83 22.37 27.00 26.72 28.29 C 29.99 30.55 30.36 35.11 33.89 37.18 C 33.38 38.00 32.78 38.75 32.09 39.43 C 28.95 36.98 28.15 32.02 23.93 31.06 C 20.46 28.98 16.77 30.53 14.02 33.00 C 14.03 32.27 14.05 30.82 14.06 30.10 Z" />
</g>
<g id="#724c2af3">
<path fill="#724c2a" opacity="0.95" d=" M 37.10 36.86 C 39.42 33.34 42.92 30.78 46.07 28.05 C 44.48 31.84 41.18 34.92 40.71 39.15 C 40.19 37.45 38.77 36.90 37.10 36.86 Z" />
</g>
<g id="#fdbf02fe">
<path fill="#fdbf02" opacity="1.00" d=" M 14.02 33.00 C 16.77 30.53 20.46 28.98 23.93 31.06 C 28.15 32.02 28.95 36.98 32.09 39.43 C 31.18 40.41 30.22 41.34 29.14 42.12 C 26.58 39.06 26.67 34.00 22.02 32.96 C 18.96 30.19 16.77 34.32 14.10 35.27 L 13.01 35.09 L 13.36 34.24 C 13.53 33.93 13.86 33.31 14.02 33.00 Z" />
</g>
<g id="#fc7400fe">
<path fill="#fc7400" opacity="1.00" d=" M 61.02 31.00 C 61.61 30.92 62.80 30.78 63.39 30.71 C 64.54 36.29 63.94 42.11 65.46 47.65 C 66.37 51.14 63.01 54.75 64.91 58.05 C 66.72 61.74 73.94 60.93 73.06 65.98 C 72.86 66.42 72.48 67.31 72.28 67.75 C 70.25 65.08 66.91 64.43 64.20 62.78 C 61.89 59.87 61.45 55.92 59.35 52.84 C 58.93 54.19 59.43 56.96 57.22 55.77 C 56.45 54.83 55.82 53.80 55.14 52.79 C 55.07 52.16 54.92 50.90 54.85 50.27 C 52.95 51.43 51.86 49.38 50.85 48.07 C 53.84 48.03 56.85 48.16 59.83 47.87 C 60.73 42.65 62.35 37.16 61.20 31.91 L 61.02 31.00 Z" />
</g>
<g id="#fddd02fe">
<path fill="#fddd02" opacity="1.00" d=" M 14.10 35.27 C 16.77 34.32 18.96 30.19 22.02 32.96 C 26.67 34.00 26.58 39.06 29.14 42.12 C 28.61 42.46 27.54 43.12 27.01 43.46 C 25.14 40.27 24.24 35.73 19.92 35.03 C 17.41 34.21 16.18 36.48 14.94 38.17 L 14.11 38.09 C 14.11 37.38 14.10 35.97 14.10 35.27 Z" />
</g>
<g id="#f49200f9">
<path fill="#f49200" opacity="0.98" d=" M 57.13 35.00 C 57.45 33.25 59.35 31.72 61.20 31.91 C 62.35 37.16 60.73 42.65 59.83 47.87 C 56.85 48.16 53.84 48.03 50.85 48.07 C 50.77 46.71 51.38 45.94 52.68 45.75 C 51.44 43.26 52.15 40.98 54.25 39.33 C 57.08 40.82 57.06 36.82 57.13 35.00 Z" />
</g>
<g id="#fffb04ff">
<path fill="#fffb04" opacity="1.00" d=" M 14.94 38.17 C 16.18 36.48 17.41 34.21 19.92 35.03 C 24.24 35.73 25.14 40.27 27.01 43.46 C 25.38 44.96 23.78 46.62 23.87 49.02 C 18.88 47.69 14.47 43.73 14.94 38.17 Z" />
</g>
<g id="#f27100f7">
<path fill="#f27100" opacity="0.97" d=" M 54.25 39.33 C 54.46 37.66 55.22 35.28 57.13 35.00 C 57.06 36.82 57.08 40.82 54.25 39.33 Z" />
</g>
<g id="#bea863fd">
<path fill="#bea863" opacity="1.00" d=" M 37.10 36.86 C 38.77 36.90 40.19 37.45 40.71 39.15 C 42.24 44.34 42.29 49.85 43.83 55.05 C 43.97 56.76 44.07 58.47 44.18 60.19 C 44.20 60.59 44.24 61.40 44.26 61.80 C 43.91 64.48 45.01 67.80 42.90 69.80 C 37.85 67.74 32.60 66.07 27.88 63.29 C 32.01 63.95 41.75 64.76 41.04 57.93 C 38.51 58.59 35.86 60.94 33.83 58.12 C 28.53 58.19 26.05 64.39 20.88 65.05 C 20.62 63.77 19.13 61.77 21.30 61.49 C 26.62 61.72 27.62 55.06 29.09 51.19 C 33.64 54.02 37.91 49.08 36.36 44.17 C 36.67 41.74 36.92 39.30 37.10 36.86 Z" />
</g>
<g id="#f2e89afd">
<path fill="#f2e89a" opacity="1.00" d=" M 14.11 38.09 L 14.94 38.17 C 14.47 43.73 18.88 47.69 23.87 49.02 C 23.20 54.15 21.29 59.06 17.89 63.04 C 14.92 63.72 12.70 60.86 12.88 58.09 C 15.91 51.66 10.90 44.04 14.11 38.09 Z" />
</g>
<g id="#f94d00fc">
<path fill="#f94d00" opacity="1.00" d=" M 70.13 45.91 C 69.72 40.32 75.60 37.43 80.65 38.94 C 81.11 42.03 84.88 42.42 86.91 44.17 C 86.75 47.40 86.49 50.63 85.76 53.78 C 82.91 55.99 79.80 58.00 76.22 58.75 C 72.47 55.41 72.50 50.11 70.13 45.91 Z" />
</g>
<g id="#241d10ff">
<path fill="#241d10" opacity="1.00" d=" M 33.19 48.82 C 29.60 46.55 33.10 43.06 36.36 44.17 C 37.91 49.08 33.64 54.02 29.09 51.19 C 29.34 48.63 30.85 47.93 33.19 48.82 Z" />
</g>
<g id="#dc4b00ec">
<path fill="#dc4b00" opacity="0.93" d=" M 45.96 55.04 C 46.10 53.93 46.75 53.26 47.89 53.02 C 49.22 55.23 49.71 57.83 50.71 60.19 C 50.51 60.48 50.09 61.05 49.89 61.34 C 49.42 61.25 48.50 61.07 48.04 60.98 C 47.46 59.93 46.87 58.89 46.27 57.85 C 46.19 57.15 46.04 55.74 45.96 55.04 Z" />
</g>
<g id="#fb9200fd">
<path fill="#fb9200" opacity="1.00" d=" M 54.20 54.88 C 54.44 54.36 54.91 53.31 55.14 52.79 C 55.82 53.80 56.45 54.83 57.22 55.77 C 59.43 56.96 58.93 54.19 59.35 52.84 C 61.45 55.92 61.89 59.87 64.20 62.78 C 66.91 64.43 70.25 65.08 72.28 67.75 C 72.77 70.14 70.97 69.80 69.37 69.52 C 66.37 67.94 62.52 67.53 61.02 63.98 C 60.21 61.13 57.77 62.96 55.99 63.76 C 54.54 64.56 51.66 66.15 51.79 63.23 C 57.04 64.21 55.04 58.07 54.20 54.88 Z" />
</g>
<g id="#47200180">
<path fill="#472001" opacity="0.50" d=" M 43.83 55.05 C 44.36 55.05 45.43 55.04 45.96 55.04 C 46.04 55.74 46.19 57.15 46.27 57.85 C 45.59 58.64 44.89 59.42 44.18 60.19 C 44.07 58.47 43.97 56.76 43.83 55.05 Z" />
</g>
<g id="#f96900fc">
<path fill="#f96900" opacity="1.00" d=" M 50.71 60.19 C 52.62 58.87 52.40 55.78 54.20 54.88 C 55.04 58.07 57.04 64.21 51.79 63.23 L 50.90 63.30 C 50.65 62.81 50.14 61.83 49.89 61.34 C 50.09 61.05 50.51 60.48 50.71 60.19 Z" />
</g>
<g id="#ad9758fb">
<path fill="#ad9758" opacity="1.00" d=" M 20.88 65.05 C 26.05 64.39 28.53 58.19 33.83 58.12 C 35.86 60.94 38.51 58.59 41.04 57.93 C 41.75 64.76 32.01 63.95 27.88 63.29 C 27.57 63.43 26.95 63.70 26.64 63.84 C 25.72 64.74 24.84 65.69 23.96 66.63 C 22.06 67.86 19.27 68.89 17.76 66.49 C 18.77 65.95 19.80 65.44 20.88 65.05 Z" />
</g>
<g id="#fe9702ff">
<path fill="#fe9702" opacity="1.00" d=" M 46.27 57.85 C 46.87 58.89 47.46 59.93 48.04 60.98 C 48.25 62.03 48.47 63.09 48.70 64.14 C 48.06 66.75 46.37 64.98 45.01 63.96 C 44.82 63.42 44.45 62.34 44.26 61.80 C 44.24 61.40 44.20 60.59 44.18 60.19 C 44.89 59.42 45.59 58.64 46.27 57.85 Z" />
</g>
<g id="#3a2a0074">
<path fill="#3a2a00" opacity="0.45" d=" M 48.04 60.98 C 48.50 61.07 49.42 61.25 49.89 61.34 C 50.14 61.83 50.65 62.81 50.90 63.30 C 51.39 65.49 50.03 64.93 48.70 64.14 C 48.47 63.09 48.25 62.03 48.04 60.98 Z" />
</g>
<g id="#c8b371ff">
<path fill="#c8b371" opacity="1.00" d=" M 44.26 61.80 C 44.45 62.34 44.82 63.42 45.01 63.96 C 45.44 65.58 45.87 67.20 46.25 68.84 C 46.58 71.69 46.48 77.52 42.31 75.70 C 36.97 72.36 31.52 69.09 26.90 64.77 L 26.64 63.84 C 26.95 63.70 27.57 63.43 27.88 63.29 C 32.60 66.07 37.85 67.74 42.90 69.80 C 45.01 67.80 43.91 64.48 44.26 61.80 Z" />
</g>
<g id="#fbb50cfd">
<path fill="#fbb50c" opacity="1.00" d=" M 55.99 63.76 C 57.77 62.96 60.21 61.13 61.02 63.98 C 62.52 67.53 66.37 67.94 69.37 69.52 C 69.19 70.91 68.65 72.12 67.72 73.16 C 66.90 72.39 66.08 71.61 65.24 70.86 C 63.75 69.28 62.03 67.97 60.22 66.78 C 58.96 65.58 57.77 64.15 55.99 63.76 Z" />
</g>
<g id="#fee40cff">
<path fill="#fee40c" opacity="1.00" d=" M 50.90 63.30 L 51.79 63.23 C 51.66 66.15 54.54 64.56 55.99 63.76 C 57.77 64.15 58.96 65.58 60.22 66.78 C 55.49 66.30 50.41 65.73 46.79 69.48 L 46.25 68.84 C 45.87 67.20 45.44 65.58 45.01 63.96 C 46.37 64.98 48.06 66.75 48.70 64.14 C 50.03 64.93 51.39 65.49 50.90 63.30 Z" />
</g>
<g id="#d9c682fe">
<path fill="#d9c682" opacity="1.00" d=" M 23.96 66.63 C 24.84 65.69 25.72 64.74 26.64 63.84 L 26.90 64.77 C 28.22 69.24 30.89 74.07 35.60 75.53 C 39.16 76.95 42.01 80.33 45.82 80.94 C 47.54 78.95 48.14 76.35 48.34 73.79 C 49.18 76.71 49.74 80.91 52.99 81.96 C 58.24 79.20 62.78 74.80 69.30 75.32 C 70.77 75.32 70.64 78.22 71.31 79.33 C 68.96 80.13 66.38 78.70 64.18 80.17 C 59.86 82.78 56.67 86.94 52.16 89.29 C 52.54 108.31 49.71 127.14 48.02 146.03 C 47.79 147.79 48.19 149.53 49.01 151.08 C 47.04 151.02 45.07 151.00 43.10 151.01 C 43.05 150.51 42.94 149.51 42.88 149.01 C 42.45 146.70 45.76 142.09 42.15 141.79 C 45.08 134.98 43.08 127.30 42.88 120.05 C 42.14 116.09 41.57 111.97 38.91 108.82 C 39.20 106.20 39.93 103.65 40.04 101.02 C 35.24 102.08 29.63 104.86 26.12 99.98 C 26.46 103.27 27.22 106.58 26.80 109.89 C 25.06 123.61 26.61 137.47 25.80 151.24 C 24.52 151.10 23.24 150.98 21.95 150.89 C 22.34 145.25 23.17 139.64 23.03 133.97 C 23.25 122.72 22.56 111.44 23.18 100.21 C 26.58 96.36 32.86 98.14 36.68 94.64 C 39.10 91.59 43.57 90.19 44.81 86.27 C 41.31 83.82 37.99 80.52 33.35 80.55 C 28.56 77.93 29.06 71.27 25.16 67.84 C 24.86 67.53 24.26 66.93 23.96 66.63 Z" />
</g>
<g id="#d2be7bff">
<path fill="#d2be7b" opacity="1.00" d=" M 26.90 64.77 C 31.52 69.09 36.97 72.36 42.31 75.70 C 46.48 77.52 46.58 71.69 46.25 68.84 L 46.79 69.48 C 47.09 69.85 47.70 70.61 48.00 70.99 C 48.09 71.69 48.26 73.09 48.34 73.79 C 48.14 76.35 47.54 78.95 45.82 80.94 C 42.01 80.33 39.16 76.95 35.60 75.53 C 30.89 74.07 28.22 69.24 26.90 64.77 Z" />
</g>
<g id="#fef8a1ff">
<path fill="#fef8a1" opacity="1.00" d=" M 46.79 69.48 C 50.41 65.73 55.49 66.30 60.22 66.78 C 62.03 67.97 63.75 69.28 65.24 70.86 C 63.17 70.79 61.13 70.41 59.07 70.25 C 55.95 70.91 53.15 72.65 49.99 73.17 C 49.35 72.42 48.69 71.69 48.00 70.99 C 47.70 70.61 47.09 69.85 46.79 69.48 Z" />
</g>
<g id="#edeba2f6">
<path fill="#edeba2" opacity="0.96" d=" M 23.96 66.63 C 24.26 66.93 24.86 67.53 25.16 67.84 C 25.17 69.56 25.18 73.01 25.19 74.73 C 21.11 83.80 17.94 93.30 17.39 103.29 C 16.55 96.45 16.47 89.21 20.01 83.03 C 23.15 78.12 23.73 72.32 23.96 66.63 Z" />
</g>
<g id="#e2d08aff">
<path fill="#e2d08a" opacity="1.00" d=" M 25.16 67.84 C 29.06 71.27 28.56 77.93 33.35 80.55 C 37.99 80.52 41.31 83.82 44.81 86.27 C 43.57 90.19 39.10 91.59 36.68 94.64 C 32.86 98.14 26.58 96.36 23.18 100.21 C 22.56 111.44 23.25 122.72 23.03 133.97 L 22.11 134.04 L 21.23 134.08 L 21.30 133.23 C 23.21 122.42 19.32 111.81 20.98 101.00 C 18.65 95.02 25.81 93.69 26.94 89.02 C 28.05 84.30 28.07 78.85 25.19 74.73 C 25.18 73.01 25.17 69.56 25.16 67.84 Z" />
</g>
<g id="#f7e595ff">
<path fill="#f7e595" opacity="1.00" d=" M 49.99 73.17 C 53.15 72.65 55.95 70.91 59.07 70.25 C 61.13 70.41 63.17 70.79 65.24 70.86 C 66.08 71.61 66.90 72.39 67.72 73.16 L 68.05 73.99 C 63.29 73.11 58.14 72.93 54.20 76.19 C 52.08 78.27 50.47 74.94 49.99 73.17 Z" />
</g>
<g id="#e9d589ff">
<path fill="#e9d589" opacity="1.00" d=" M 48.00 70.99 C 48.69 71.69 49.35 72.42 49.99 73.17 C 50.47 74.94 52.08 78.27 54.20 76.19 C 58.14 72.93 63.29 73.11 68.05 73.99 C 68.36 74.33 68.99 74.99 69.30 75.32 C 62.78 74.80 58.24 79.20 52.99 81.96 C 49.74 80.91 49.18 76.71 48.34 73.79 C 48.26 73.09 48.09 71.69 48.00 70.99 Z" />
</g>
<g id="#f0e193fd">
<path fill="#f0e193" opacity="1.00" d=" M 25.19 74.73 C 28.07 78.85 28.05 84.30 26.94 89.02 C 25.81 93.69 18.65 95.02 20.98 101.00 C 19.32 111.81 23.21 122.42 21.30 133.23 C 19.52 127.52 20.57 121.46 19.58 115.64 C 19.57 111.45 17.14 107.44 17.39 103.29 C 17.94 93.30 21.11 83.80 25.19 74.73 Z" />
</g>
<g id="#ccb770fd">
<path fill="#ccb770" opacity="1.00" d=" M 64.18 80.17 C 66.38 78.70 68.96 80.13 71.31 79.33 L 71.97 79.20 C 72.47 84.21 76.40 90.67 72.70 95.25 C 71.98 92.22 73.07 87.98 69.89 86.08 C 68.00 84.64 67.24 81.15 64.25 82.08 C 61.16 87.21 55.97 92.40 57.22 98.96 L 57.28 99.82 C 56.97 103.20 56.17 106.50 55.71 109.85 C 55.51 110.36 55.11 111.38 54.91 111.88 C 52.09 118.55 54.27 126.04 51.72 132.73 C 50.74 136.26 50.76 139.77 51.79 143.27 C 53.45 145.88 51.58 148.65 50.56 151.11 L 49.95 151.14 L 49.01 151.08 C 48.19 149.53 47.79 147.79 48.02 146.03 C 49.71 127.14 52.54 108.31 52.16 89.29 C 56.67 86.94 59.86 82.78 64.18 80.17 Z" />
</g>
<g id="#c4ae67fd">
<path fill="#c4ae67" opacity="1.00" d=" M 64.25 82.08 C 67.24 81.15 68.00 84.64 69.89 86.08 C 73.07 87.98 71.98 92.22 72.70 95.25 C 71.39 102.01 70.32 109.04 71.95 115.83 C 70.67 119.46 65.93 118.18 64.92 115.03 C 63.11 113.01 66.29 111.64 67.26 110.16 C 70.13 107.30 69.52 102.58 70.79 98.99 C 69.04 93.95 63.98 89.72 65.98 83.92 C 62.79 84.08 62.99 88.46 61.53 90.63 C 60.45 93.31 58.07 95.50 58.06 98.54 L 57.22 98.96 C 55.97 92.40 61.16 87.21 64.25 82.08 Z" />
</g>
<g id="#b9a262ff">
<path fill="#b9a262" opacity="1.00" d=" M 61.53 90.63 C 62.99 88.46 62.79 84.08 65.98 83.92 C 63.98 89.72 69.04 93.95 70.79 98.99 C 69.52 102.58 70.13 107.30 67.26 110.16 C 67.17 107.63 67.16 104.79 64.38 103.83 C 63.28 102.51 61.43 102.81 59.96 103.09 L 59.12 102.95 C 58.93 101.44 58.71 99.93 58.06 98.54 C 58.07 95.50 60.45 93.31 61.53 90.63 Z" />
</g>
<g id="#e8ad06f3">
<path fill="#e8ad06" opacity="0.95" d=" M 57.22 98.96 L 58.06 98.54 C 58.71 99.93 58.93 101.44 59.12 102.95 C 59.08 105.02 59.09 107.10 59.14 109.18 C 59.13 109.56 59.12 110.31 59.11 110.68 C 57.71 111.07 56.31 111.46 54.91 111.88 C 55.11 111.38 55.51 110.36 55.71 109.85 C 61.18 111.05 56.25 102.18 57.28 99.82 L 57.22 98.96 Z" />
</g>
<g id="#aa955cfa">
<path fill="#aa955c" opacity="0.98" d=" M 26.12 99.98 C 29.63 104.86 35.24 102.08 40.04 101.02 C 39.93 103.65 39.20 106.20 38.91 108.82 C 36.91 108.21 34.78 108.01 32.90 107.05 C 31.63 106.03 30.42 104.95 29.13 103.96 C 30.15 106.68 28.85 109.87 30.57 112.31 C 31.45 115.09 29.43 118.08 29.32 121.00 C 30.27 129.11 28.08 137.33 30.59 145.32 C 31.54 147.75 29.30 149.85 28.72 152.12 C 27.74 151.85 26.77 151.56 25.80 151.24 C 26.61 137.47 25.06 123.61 26.80 109.89 C 27.22 106.58 26.46 103.27 26.12 99.98 Z" />
</g>
<g id="#faef0cff">
<path fill="#faef0c" opacity="1.00" d=" M 57.28 99.82 C 56.25 102.18 61.18 111.05 55.71 109.85 C 56.17 106.50 56.97 103.20 57.28 99.82 Z" />
</g>
<g id="#f89508ff">
<path fill="#f89508" opacity="1.00" d=" M 59.12 102.95 L 59.96 103.09 C 60.47 104.09 61.20 104.87 62.16 105.43 C 61.17 106.69 60.19 107.97 59.14 109.18 C 59.09 107.10 59.08 105.02 59.12 102.95 Z" />
</g>
<g id="#f3640dff">
<path fill="#f3640d" opacity="1.00" d=" M 59.96 103.09 C 61.43 102.81 63.28 102.51 64.38 103.83 C 63.82 104.23 62.71 105.03 62.16 105.43 C 61.20 104.87 60.47 104.09 59.96 103.09 Z" />
</g>
<g id="#8d7747f6">
<path fill="#8d7747" opacity="0.96" d=" M 29.13 103.96 C 30.42 104.95 31.63 106.03 32.90 107.05 C 32.28 108.86 31.82 110.79 30.57 112.31 C 28.85 109.87 30.15 106.68 29.13 103.96 Z" />
</g>
<g id="#b09a5afb">
<path fill="#b09a5a" opacity="1.00" d=" M 64.38 103.83 C 67.16 104.79 67.17 107.63 67.26 110.16 C 66.29 111.64 63.11 113.01 64.92 115.03 C 65.93 118.18 70.67 119.46 71.95 115.83 C 71.93 117.68 71.89 121.36 71.87 123.20 C 69.23 121.49 66.70 119.62 64.02 117.98 C 62.02 115.93 60.92 112.99 59.11 110.68 C 59.12 110.31 59.13 109.56 59.14 109.18 C 60.19 107.97 61.17 106.69 62.16 105.43 C 62.71 105.03 63.82 104.23 64.38 103.83 Z" />
</g>
<g id="#c3ae6efb">
<path fill="#c3ae6e" opacity="1.00" d=" M 64.02 117.98 C 66.70 119.62 69.23 121.49 71.87 123.20 C 71.33 129.42 72.41 135.70 72.72 141.71 C 72.52 142.28 72.13 143.41 71.94 143.98 C 68.91 143.99 65.90 144.01 62.88 144.03 C 63.15 141.73 63.97 139.55 64.31 137.27 C 64.96 132.82 65.73 128.09 64.37 123.70 C 63.84 121.84 63.97 119.89 64.02 117.98 Z" />
</g>
<g id="#302b1b75">
<path fill="#302b1b" opacity="0.46" d=" M 64.37 123.70 C 65.73 128.09 64.96 132.82 64.31 137.27 C 64.11 132.76 63.58 128.17 64.37 123.70 Z" />
</g>
<g id="#887b4ad4">
<path fill="#887b4a" opacity="0.83" d=" M 51.79 143.27 C 50.76 139.77 50.74 136.26 51.72 132.73 C 51.94 136.23 52.18 139.77 51.79 143.27 Z" />
</g>
<g id="#8e8d61be">
<path fill="#8e8d61" opacity="0.75" d=" M 21.23 134.08 L 22.11 134.04 C 22.02 137.79 21.73 141.53 21.26 145.25 C 21.14 141.53 20.67 137.78 21.23 134.08 Z" />
</g>
<g id="#fbed9dff">
<path fill="#fbed9d" opacity="1.00" d=" M 22.11 134.04 L 23.03 133.97 C 23.17 139.64 22.34 145.25 21.95 150.89 L 21.08 151.10 C 20.93 149.15 20.99 147.19 21.26 145.25 C 21.73 141.53 22.02 137.79 22.11 134.04 Z" />
</g>
<g id="#304458e6">
<path fill="#304458" opacity="0.90" d=" M 42.15 141.79 C 45.76 142.09 42.45 146.70 42.88 149.01 C 38.53 149.30 41.10 143.94 42.15 141.79 Z" />
</g>
<g id="#15161061">
<path fill="#151610" opacity="0.38" d=" M 71.94 143.98 C 72.13 143.41 72.52 142.28 72.72 141.71 C 72.52 144.16 74.27 149.07 72.01 149.99 C 71.99 149.28 71.96 147.84 71.94 147.12 C 71.94 146.34 71.94 144.77 71.94 143.98 Z" />
</g>
<g id="#30384cff">
<path fill="#30384c" opacity="1.00" d=" M 62.88 144.03 C 65.90 144.01 68.91 143.99 71.94 143.98 C 71.94 144.77 71.94 146.34 71.94 147.12 C 69.00 146.55 66.10 145.81 63.23 144.96 L 62.88 144.03 Z" />
</g>
<g id="#2f4361f7">
<path fill="#2f4361" opacity="0.97" d=" M 63.23 144.96 C 66.10 145.81 69.00 146.55 71.94 147.12 C 71.96 147.84 71.99 149.28 72.01 149.99 L 72.00 150.98 C 69.50 150.98 64.48 150.98 61.98 150.98 C 61.75 148.87 62.35 146.85 63.23 144.96 Z" />
</g>
<g id="#293647f4">
<path fill="#293647" opacity="0.96" d=" M 21.08 151.10 L 21.95 150.89 C 23.24 150.98 24.52 151.10 25.80 151.24 C 26.77 151.56 27.74 151.85 28.72 152.12 C 29.82 154.92 29.77 159.16 26.11 159.13 C 26.72 157.29 28.10 154.31 25.70 153.24 C 24.30 153.16 21.51 153.02 20.11 152.94 C 20.35 152.48 20.84 151.56 21.08 151.10 Z" />
</g>
<g id="#2f425bf1">
<path fill="#2f425b" opacity="0.95" d=" M 43.10 151.01 C 45.07 151.00 47.04 151.02 49.01 151.08 L 49.95 151.14 C 49.97 152.78 50.01 156.07 50.03 157.72 C 48.01 160.17 43.22 159.86 41.12 157.80 C 41.63 155.51 41.74 152.98 43.10 151.01 Z" />
</g>
<g id="#1c262ab8">
<path fill="#1c262a" opacity="0.72" d=" M 49.95 151.14 L 50.56 151.11 C 51.33 152.87 51.94 156.86 50.03 157.72 C 50.01 156.07 49.97 152.78 49.95 151.14 Z" />
</g>
<g id="#314767f9">
<path fill="#314767" opacity="0.98" d=" M 20.11 152.94 C 21.51 153.02 24.30 153.16 25.70 153.24 C 28.10 154.31 26.72 157.29 26.11 159.13 C 24.63 159.06 21.67 158.94 20.20 158.87 C 18.41 157.38 20.34 154.90 20.11 152.94 Z" />
</g>
</svg>
