<?xml version="1.0" encoding="UTF-8" ?>
<!DOCTYPE svg PUBLIC "-//W3C//DTD SVG 1.1//EN" "http://www.w3.org/Graphics/SVG/1.1/DTD/svg11.dtd">
<svg width="123pt" height="172pt" viewBox="0 0 123 172" version="1.1" xmlns="http://www.w3.org/2000/svg">
<g id="#f4e6e8fb">
<path fill="#f4e6e8" opacity="1.00" d=" M 63.38 20.30 C 66.83 15.15 73.47 14.43 79.16 15.15 C 71.71 18.92 66.45 26.37 64.15 34.24 C 63.52 36.88 62.28 39.36 61.94 42.07 C 61.68 44.41 60.91 46.93 58.00 46.02 C 57.47 37.14 60.02 28.42 63.38 20.30 Z" />
</g>
<g id="#e8bdc2fd">
<path fill="#e8bdc2" opacity="1.00" d=" M 79.16 15.15 C 80.55 15.08 81.13 16.89 82.03 17.74 C 72.76 18.88 69.18 27.82 64.15 34.24 C 66.45 26.37 71.71 18.92 79.16 15.15 Z" />
</g>
<g id="#ce96a4fb">
<path fill="#ce96a4" opacity="1.00" d=" M 64.15 34.24 C 69.18 27.82 72.76 18.88 82.03 17.74 C 84.11 17.79 85.45 19.73 86.25 21.43 C 84.74 21.60 83.87 20.10 82.70 19.41 C 79.21 20.16 75.71 21.71 73.13 24.19 C 73.48 26.70 74.34 29.33 71.47 30.58 C 73.32 32.29 74.48 34.55 75.02 36.99 L 74.03 36.96 C 73.09 35.62 70.96 29.44 70.98 33.89 C 68.68 35.02 71.23 29.96 69.02 31.13 C 65.94 34.25 64.78 38.98 61.94 42.07 C 62.28 39.36 63.52 36.88 64.15 34.24 Z" />
</g>
<g id="#c28292fe">
<path fill="#c28292" opacity="1.00" d=" M 73.13 24.19 C 75.71 21.71 79.21 20.16 82.70 19.41 C 83.87 20.10 84.74 21.60 86.25 21.43 C 87.72 22.15 88.88 24.35 88.88 26.11 C 86.86 24.85 84.92 23.44 82.79 22.37 C 80.55 22.52 78.35 23.33 77.73 25.73 C 76.38 28.40 73.36 31.85 76.66 34.33 C 78.12 39.40 83.06 42.02 86.99 45.00 C 95.70 53.80 96.38 66.77 97.59 78.38 C 98.45 81.07 98.17 83.86 96.88 86.26 C 96.20 85.56 95.53 84.85 94.87 84.14 C 95.96 73.29 93.70 62.16 88.34 52.68 C 85.23 46.96 80.21 42.80 75.79 38.16 C 75.60 37.87 75.21 37.29 75.02 36.99 C 74.48 34.55 73.32 32.29 71.47 30.58 C 74.34 29.33 73.48 26.70 73.13 24.19 Z" />
</g>
<g id="#ae6b7bff">
<path fill="#ae6b7b" opacity="1.00" d=" M 77.73 25.73 C 78.35 23.33 80.55 22.52 82.79 22.37 C 84.92 23.44 86.86 24.85 88.88 26.11 C 89.62 28.11 90.47 30.08 91.27 32.06 C 92.10 34.48 94.48 37.89 91.78 39.91 C 86.55 39.95 82.36 35.81 77.67 34.08 C 76.74 31.35 77.55 28.51 77.73 25.73 Z" />
</g>
<g id="#b57384ff">
<path fill="#b57384" opacity="1.00" d=" M 76.66 34.33 C 73.36 31.85 76.38 28.40 77.73 25.73 C 77.55 28.51 76.74 31.35 77.67 34.08 L 76.66 34.33 Z" />
</g>
<g id="#c68192f7">
<path fill="#c68192" opacity="0.97" d=" M 88.88 26.11 C 90.97 26.39 91.73 29.13 92.10 30.93 C 91.89 31.21 91.48 31.78 91.27 32.06 C 90.47 30.08 89.62 28.11 88.88 26.11 Z" />
</g>
<g id="#b37180fb">
<path fill="#b37180" opacity="1.00" d=" M 92.10 30.93 C 95.43 36.20 97.42 43.62 97.98 50.15 C 93.37 52.90 92.77 45.31 89.77 43.24 C 85.28 40.79 80.96 38.08 77.67 34.08 C 82.36 35.81 86.55 39.95 91.78 39.91 C 94.48 37.89 92.10 34.48 91.27 32.06 C 91.48 31.78 91.89 31.21 92.10 30.93 Z" />
</g>
<g id="#ebacb7fd">
<path fill="#ebacb7" opacity="1.00" d=" M 70.98 33.89 C 70.96 29.44 73.09 35.62 74.03 36.96 C 74.60 39.26 75.34 41.51 76.09 43.76 C 76.11 46.03 76.61 48.21 77.59 50.29 C 81.64 59.02 79.84 69.18 84.11 77.86 C 83.71 77.94 82.90 78.09 82.49 78.16 C 81.30 77.47 80.07 76.87 78.86 76.21 C 78.14 67.56 77.20 58.92 75.79 50.35 C 75.37 50.21 74.55 49.92 74.13 49.78 C 74.00 46.82 74.31 41.10 72.86 45.84 L 72.06 46.10 C 72.59 41.92 70.70 38.02 70.98 33.89 Z" />
</g>
<g id="#b87686fc">
<path fill="#b87686" opacity="1.00" d=" M 76.66 34.33 L 77.67 34.08 C 80.96 38.08 85.28 40.79 89.77 43.24 C 92.77 45.31 93.37 52.90 97.98 50.15 C 99.64 57.65 100.32 65.36 101.03 73.00 C 101.00 78.70 100.95 84.40 100.88 90.11 C 100.44 89.78 99.57 89.12 99.14 88.79 C 98.38 87.95 97.62 87.11 96.88 86.26 C 98.17 83.86 98.45 81.07 97.59 78.38 C 96.38 66.77 95.70 53.80 86.99 45.00 C 83.06 42.02 78.12 39.40 76.66 34.33 Z" />
</g>
<g id="#d899a8ff">
<path fill="#d899a8" opacity="1.00" d=" M 74.03 36.96 L 75.02 36.99 C 75.21 37.29 75.60 37.87 75.79 38.16 C 80.11 46.42 85.71 54.02 89.26 62.71 C 91.60 69.30 92.92 76.22 93.23 83.21 C 92.08 82.57 90.93 81.94 89.80 81.27 C 90.01 77.99 89.74 74.80 88.02 71.99 C 84.50 62.55 82.64 51.76 76.09 43.76 C 75.34 41.51 74.60 39.26 74.03 36.96 Z" />
</g>
<g id="#ce8e9eff">
<path fill="#ce8e9e" opacity="1.00" d=" M 75.79 38.16 C 80.21 42.80 85.23 46.96 88.34 52.68 C 93.70 62.16 95.96 73.29 94.87 84.14 C 94.46 83.90 93.64 83.44 93.23 83.21 C 92.92 76.22 91.60 69.30 89.26 62.71 C 85.71 54.02 80.11 46.42 75.79 38.16 Z" />
</g>
<g id="#ffd3d5ff">
<path fill="#ffd3d5" opacity="1.00" d=" M 72.86 45.84 C 74.31 41.10 74.00 46.82 74.13 49.78 C 74.29 53.66 73.95 57.44 73.11 61.09 C 73.06 56.01 73.08 50.92 72.86 45.84 Z" />
</g>
<g id="#e1a2b1ff">
<path fill="#e1a2b1" opacity="1.00" d=" M 76.09 43.76 C 82.64 51.76 84.50 62.55 88.02 71.99 C 89.74 74.80 90.01 77.99 89.80 81.27 C 87.85 80.23 85.99 79.02 84.11 77.86 C 79.84 69.18 81.64 59.02 77.59 50.29 C 76.61 48.21 76.11 46.03 76.09 43.76 Z" />
</g>
<g id="#6d625ea7">
<path fill="#6d625e" opacity="0.65" d=" M 72.06 46.10 L 72.86 45.84 C 73.08 50.92 73.06 56.01 73.11 61.09 C 72.91 61.41 72.51 62.04 72.30 62.35 C 71.94 56.95 71.84 51.52 72.06 46.10 Z" />
</g>
<g id="#f9b5c0fe">
<path fill="#f9b5c0" opacity="1.00" d=" M 74.13 49.78 C 74.55 49.92 75.37 50.21 75.79 50.35 C 77.20 58.92 78.14 67.56 78.86 76.21 C 76.93 75.97 74.98 75.70 73.25 74.77 C 73.00 72.26 72.51 67.25 72.26 64.75 C 72.27 64.15 72.29 62.95 72.30 62.35 C 72.51 62.04 72.91 61.41 73.11 61.09 C 73.95 57.44 74.29 53.66 74.13 49.78 Z" />
</g>
<g id="#f6dfd9fa">
<path fill="#f6dfd9" opacity="0.98" d=" M 72.26 64.75 C 72.51 67.25 73.00 72.26 73.25 74.77 C 74.98 75.70 76.93 75.97 78.86 76.21 C 80.07 76.87 81.30 77.47 82.49 78.16 C 77.84 79.92 72.81 77.22 68.01 77.95 C 61.56 76.70 55.97 80.23 50.16 82.22 C 40.20 86.69 30.48 93.44 25.14 103.13 C 24.15 107.13 29.38 103.08 31.12 102.28 C 37.60 100.47 44.24 99.70 50.99 99.98 C 43.80 101.86 36.25 102.46 29.38 105.47 C 27.07 106.55 23.49 108.36 22.17 105.03 L 22.19 104.28 C 26.56 99.49 28.90 93.13 33.69 88.69 C 37.67 84.07 43.49 81.89 48.34 78.37 C 55.50 75.83 63.25 75.24 70.81 74.84 C 71.72 71.54 71.85 68.12 72.26 64.75 Z" />
</g>
<g id="#140c0e4f">
<path fill="#140c0e" opacity="0.31" d=" M 101.03 73.00 L 101.99 73.01 C 101.94 79.08 102.30 85.19 101.79 91.26 C 101.56 90.97 101.10 90.40 100.88 90.11 C 100.95 84.40 101.00 78.70 101.03 73.00 Z" />
</g>
<g id="#ffc7caff">
<path fill="#ffc7ca" opacity="1.00" d=" M 50.16 82.22 C 55.97 80.23 61.56 76.70 68.01 77.95 C 72.81 77.22 77.84 79.92 82.49 78.16 C 82.90 78.09 83.71 77.94 84.11 77.86 C 85.99 79.02 87.85 80.23 89.80 81.27 C 90.93 81.94 92.08 82.57 93.23 83.21 C 83.85 85.31 74.34 81.68 64.98 83.99 C 55.70 85.05 47.04 88.71 38.81 92.89 C 36.00 95.57 30.22 97.45 31.12 102.28 C 29.38 103.08 24.15 107.13 25.14 103.13 C 30.48 93.44 40.20 86.69 50.16 82.22 Z" />
</g>
<g id="#fcb4beff">
<path fill="#fcb4be" opacity="1.00" d=" M 64.98 83.99 C 74.34 81.68 83.85 85.31 93.23 83.21 C 93.64 83.44 94.46 83.90 94.87 84.14 C 95.53 84.85 96.20 85.56 96.88 86.26 C 97.62 87.11 98.38 87.95 99.14 88.79 C 92.96 89.69 86.51 89.29 80.58 91.40 C 71.01 94.32 57.69 90.50 50.99 99.98 C 44.24 99.70 37.60 100.47 31.12 102.28 C 30.22 97.45 36.00 95.57 38.81 92.89 C 47.04 88.71 55.70 85.05 64.98 83.99 Z" />
</g>
<g id="#eea6b3ff">
<path fill="#eea6b3" opacity="1.00" d=" M 80.58 91.40 C 86.51 89.29 92.96 89.69 99.14 88.79 C 99.57 89.12 100.44 89.78 100.88 90.11 C 101.10 90.40 101.56 90.97 101.79 91.26 C 103.14 93.76 105.90 95.48 106.25 98.42 C 103.77 98.28 102.36 95.49 99.92 95.02 C 93.81 95.05 88.23 97.91 83.30 101.27 C 77.97 103.59 72.18 99.77 66.85 101.71 C 63.38 101.80 62.87 106.78 59.13 106.05 C 53.33 105.50 52.24 113.37 47.26 115.26 C 40.61 117.57 33.48 118.82 27.14 122.10 C 26.59 120.33 25.86 118.64 25.09 116.96 C 30.30 117.07 34.86 113.94 39.74 112.61 C 46.82 111.36 50.29 102.96 58.04 103.74 C 58.00 100.44 53.57 99.90 50.99 99.98 C 57.69 90.50 71.01 94.32 80.58 91.40 Z" />
</g>
<g id="#db96a3fe">
<path fill="#db96a3" opacity="1.00" d=" M 83.30 101.27 C 88.23 97.91 93.81 95.05 99.92 95.02 C 102.36 95.49 103.77 98.28 106.25 98.42 C 108.24 100.05 110.19 103.18 110.10 106.03 C 110.05 106.51 109.93 107.48 109.88 107.97 C 106.91 106.86 104.44 104.81 101.85 103.07 C 96.25 105.06 90.76 107.54 85.68 110.67 C 82.13 112.49 80.07 108.06 77.73 106.26 C 75.10 106.28 72.60 107.36 70.00 107.73 C 67.45 106.95 64.47 104.75 62.02 107.00 C 59.26 109.54 56.88 113.45 58.69 117.26 C 57.43 117.08 56.17 116.92 54.90 116.78 C 54.04 112.44 56.27 108.89 59.13 106.05 C 62.87 106.78 63.38 101.80 66.85 101.71 C 72.18 99.77 77.97 103.59 83.30 101.27 Z" />
</g>
<g id="#f4e3defa">
<path fill="#f4e3de" opacity="0.98" d=" M 8.33 101.32 C 10.86 99.38 14.22 100.07 17.20 100.22 C 13.17 100.24 8.40 101.33 7.77 105.90 C 7.18 107.30 6.76 108.77 6.27 110.21 C 5.30 106.99 6.67 104.00 8.33 101.32 Z" />
</g>
<g id="#f4bcc0fa">
<path fill="#f4bcc0" opacity="0.98" d=" M 17.20 100.22 C 19.37 100.65 21.27 102.27 22.19 104.28 C 19.40 102.71 16.40 101.51 13.08 101.98 C 11.18 103.11 9.64 104.73 7.77 105.90 C 8.40 101.33 13.17 100.24 17.20 100.22 Z" />
</g>
<g id="#fdb9c1ff">
<path fill="#fdb9c1" opacity="1.00" d=" M 50.99 99.98 C 53.57 99.90 58.00 100.44 58.04 103.74 C 50.29 102.96 46.82 111.36 39.74 112.61 C 34.86 113.94 30.30 117.07 25.09 116.96 C 23.08 116.68 16.32 114.64 20.17 117.13 C 19.68 117.46 18.72 118.13 18.23 118.47 C 17.38 118.49 16.55 118.36 15.76 118.06 C 16.35 116.72 17.03 115.44 17.72 114.15 C 18.09 113.68 18.84 112.72 19.21 112.25 C 22.26 111.26 22.03 107.62 22.17 105.03 C 23.49 108.36 27.07 106.55 29.38 105.47 C 36.25 102.46 43.80 101.86 50.99 99.98 Z" />
</g>
<g id="#f3a4affc">
<path fill="#f3a4af" opacity="1.00" d=" M 7.77 105.90 C 9.64 104.73 11.18 103.11 13.08 101.98 C 16.40 101.51 19.40 102.71 22.19 104.28 L 22.17 105.03 C 22.03 107.62 22.26 111.26 19.21 112.25 C 19.14 111.73 18.99 110.70 18.91 110.18 C 19.62 109.11 20.40 108.08 21.03 106.96 C 20.17 103.52 16.17 105.65 13.82 105.93 C 11.46 105.71 9.77 107.32 8.62 109.21 C 8.02 110.43 8.59 111.97 8.35 113.31 C 7.02 113.01 6.48 111.38 6.27 110.21 C 6.76 108.77 7.18 107.30 7.77 105.90 Z" />
</g>
<g id="#cc8799fe">
<path fill="#cc8799" opacity="1.00" d=" M 85.68 110.67 C 90.76 107.54 96.25 105.06 101.85 103.07 C 104.44 104.81 106.91 106.86 109.88 107.97 C 109.93 107.48 110.05 106.51 110.10 106.03 L 110.92 106.14 C 111.89 113.14 115.10 119.86 115.03 127.00 C 114.97 132.01 115.05 137.03 114.95 142.04 C 114.89 142.60 114.76 143.72 114.70 144.28 C 112.59 139.10 112.68 132.93 108.58 128.72 C 108.77 122.13 108.30 114.70 102.83 110.17 C 96.29 113.10 88.90 117.65 86.64 124.93 C 84.23 122.25 81.67 119.70 79.05 117.22 C 79.29 115.65 79.75 112.50 79.99 110.93 C 78.02 110.96 76.11 111.43 74.22 111.95 C 72.45 108.53 67.98 107.85 64.89 109.96 C 62.69 112.14 63.63 116.32 62.83 119.14 C 61.42 118.57 60.05 117.94 58.69 117.26 C 56.88 113.45 59.26 109.54 62.02 107.00 C 64.47 104.75 67.45 106.95 70.00 107.73 C 72.60 107.36 75.10 106.28 77.73 106.26 C 80.07 108.06 82.13 112.49 85.68 110.67 Z" />
</g>
<g id="#e28d9fff">
<path fill="#e28d9f" opacity="1.00" d=" M 13.82 105.93 C 16.17 105.65 20.17 103.52 21.03 106.96 C 20.40 108.08 19.62 109.11 18.91 110.18 C 17.25 108.72 15.56 107.30 13.82 105.93 Z" />
</g>
<g id="#985d69ff">
<path fill="#985d69" opacity="1.00" d=" M 8.62 109.21 C 9.77 107.32 11.46 105.71 13.82 105.93 C 15.56 107.30 17.25 108.72 18.91 110.18 C 18.99 110.70 19.14 111.73 19.21 112.25 C 18.84 112.72 18.09 113.68 17.72 114.15 C 17.13 111.96 16.69 109.60 14.78 108.13 C 12.59 107.38 10.76 109.30 8.62 109.21 Z" />
</g>
<g id="#e19bacff">
<path fill="#e19bac" opacity="1.00" d=" M 47.26 115.26 C 52.24 113.37 53.33 105.50 59.13 106.05 C 56.27 108.89 54.04 112.44 54.90 116.78 C 51.53 117.02 48.89 119.19 46.88 121.74 C 41.13 119.61 35.82 122.55 30.65 124.60 C 29.44 125.31 28.19 124.51 27.06 124.09 C 27.08 123.59 27.12 122.59 27.14 122.10 C 33.48 118.82 40.61 117.57 47.26 115.26 Z" />
</g>
<g id="#da8a97fb">
<path fill="#da8a97" opacity="1.00" d=" M 8.62 109.21 C 10.76 109.30 12.59 107.38 14.78 108.13 C 16.69 109.60 17.13 111.96 17.72 114.15 C 17.03 115.44 16.35 116.72 15.76 118.06 L 15.18 117.83 C 13.13 116.05 9.09 116.22 8.35 113.31 C 8.59 111.97 8.02 110.43 8.62 109.21 Z" />
</g>
<g id="#7b4c59ff">
<path fill="#7b4c59" opacity="1.00" d=" M 64.89 109.96 C 67.98 107.85 72.45 108.53 74.22 111.95 L 74.43 112.84 C 74.09 113.35 73.40 114.38 73.05 114.90 C 73.40 112.10 71.01 109.24 68.06 109.99 C 65.60 110.11 66.06 113.38 65.68 115.11 C 64.81 113.54 65.05 111.68 64.89 109.96 Z" />
</g>
<g id="#b87185ff">
<path fill="#b87185" opacity="1.00" d=" M 62.83 119.14 C 63.63 116.32 62.69 112.14 64.89 109.96 C 65.05 111.68 64.81 113.54 65.68 115.11 C 66.41 116.82 67.67 118.20 68.76 119.69 C 68.16 123.10 70.67 127.87 67.29 130.07 C 66.98 128.63 66.75 127.17 66.34 125.75 C 66.09 124.22 65.35 122.89 64.28 121.79 C 63.81 120.90 63.33 120.01 62.83 119.14 Z" />
</g>
<g id="#b97287ff">
<path fill="#b97287" opacity="1.00" d=" M 65.68 115.11 C 66.06 113.38 65.60 110.11 68.06 109.99 C 71.01 109.24 73.40 112.10 73.05 114.90 C 71.98 115.86 70.89 116.81 69.76 117.70 C 68.33 116.95 67.05 115.95 65.68 115.11 Z" />
</g>
<g id="#c27d92ff">
<path fill="#c27d92" opacity="1.00" d=" M 86.64 124.93 C 88.90 117.65 96.29 113.10 102.83 110.17 C 108.30 114.70 108.77 122.13 108.58 128.72 C 112.68 132.93 112.59 139.10 114.70 144.28 C 115.60 146.35 114.37 148.41 113.65 150.31 C 110.29 148.04 108.86 143.84 106.10 140.95 C 105.11 136.33 100.12 137.66 97.27 139.24 C 95.68 140.73 95.85 143.13 95.09 145.05 C 91.06 143.81 94.55 138.80 94.18 136.27 C 94.70 136.18 95.75 135.98 96.27 135.89 C 96.24 136.45 96.18 137.57 96.14 138.13 C 102.36 133.72 108.77 124.14 102.81 117.09 C 97.14 116.65 92.32 122.36 90.36 127.36 C 89.57 135.43 90.50 143.57 89.51 151.62 C 88.83 155.08 87.95 158.55 87.91 162.10 C 87.43 161.78 86.48 161.13 86.01 160.80 C 87.68 151.73 89.03 142.32 86.80 133.22 C 84.36 131.69 80.82 131.14 81.78 135.20 C 79.96 131.57 80.17 127.84 80.96 124.08 C 80.06 122.00 78.01 120.64 76.65 118.85 C 77.07 118.37 77.92 117.39 78.34 116.91 L 79.05 117.22 C 81.67 119.70 84.23 122.25 86.64 124.93 Z" />
</g>
<g id="#b87385ff">
<path fill="#b87385" opacity="1.00" d=" M 74.22 111.95 C 76.11 111.43 78.02 110.96 79.99 110.93 C 79.75 112.50 79.29 115.65 79.05 117.22 L 78.34 116.91 C 76.24 116.31 74.69 115.12 74.43 112.84 L 74.22 111.95 Z" />
</g>
<g id="#a05d6fff">
<path fill="#a05d6f" opacity="1.00" d=" M 74.43 112.84 C 74.69 115.12 76.24 116.31 78.34 116.91 C 77.92 117.39 77.07 118.37 76.65 118.85 C 76.23 119.12 75.39 119.66 74.97 119.93 C 73.04 121.41 70.82 120.09 68.76 119.69 C 67.67 118.20 66.41 116.82 65.68 115.11 C 67.05 115.95 68.33 116.95 69.76 117.70 C 70.89 116.81 71.98 115.86 73.05 114.90 C 73.40 114.38 74.09 113.35 74.43 112.84 Z" />
</g>
<g id="#8a666dff">
<path fill="#8a666d" opacity="1.00" d=" M 20.17 117.13 C 16.32 114.64 23.08 116.68 25.09 116.96 C 25.86 118.64 26.59 120.33 27.14 122.10 C 27.12 122.59 27.08 123.59 27.06 124.09 C 27.02 125.25 26.99 126.41 26.99 127.57 C 26.70 127.48 26.13 127.28 25.84 127.19 C 26.77 123.53 25.32 116.26 20.17 117.13 Z" />
</g>
<g id="#eeebe9fe">
<path fill="#eeebe9" opacity="1.00" d=" M 20.17 117.13 C 25.32 116.26 26.77 123.53 25.84 127.19 C 19.99 131.69 14.02 136.27 11.04 143.26 C 10.62 138.63 12.15 134.27 14.05 130.16 C 14.32 125.88 15.61 121.85 18.23 118.47 C 18.72 118.13 19.68 117.46 20.17 117.13 Z" />
</g>
<g id="#87646dff">
<path fill="#87646d" opacity="1.00" d=" M 46.88 121.74 C 48.89 119.19 51.53 117.02 54.90 116.78 C 56.17 116.92 57.43 117.08 58.69 117.26 C 60.05 117.94 61.42 118.57 62.83 119.14 C 63.33 120.01 63.81 120.90 64.28 121.79 L 64.35 122.92 C 60.94 118.25 53.46 117.24 49.22 121.22 C 47.04 123.17 46.91 126.22 46.90 128.93 C 46.47 128.96 45.60 129.01 45.17 129.04 L 44.91 128.08 C 45.50 125.94 46.17 123.84 46.88 121.74 Z" />
</g>
<g id="#b77385fd">
<path fill="#b77385" opacity="1.00" d=" M 90.36 127.36 C 92.32 122.36 97.14 116.65 102.81 117.09 C 108.77 124.14 102.36 133.72 96.14 138.13 C 96.18 137.57 96.24 136.45 96.27 135.89 C 100.73 133.36 102.40 127.61 99.86 123.07 C 97.04 124.65 93.38 126.00 92.29 129.34 C 88.83 134.74 94.26 133.71 96.27 135.89 C 95.75 135.98 94.70 136.18 94.18 136.27 C 94.55 138.80 91.06 143.81 95.09 145.05 C 93.54 150.75 91.96 156.45 90.21 162.10 C 89.80 163.10 89.50 165.25 87.97 164.83 C 87.95 164.15 87.92 162.78 87.91 162.10 C 87.95 158.55 88.83 155.08 89.51 151.62 C 90.50 143.57 89.57 135.43 90.36 127.36 Z" />
</g>
<g id="#cfaeaaf2">
<path fill="#cfaeaa" opacity="0.95" d=" M 15.18 117.83 L 15.76 118.06 C 16.55 118.36 17.38 118.49 18.23 118.47 C 15.61 121.85 14.32 125.88 14.05 130.16 C 13.55 125.97 14.03 121.85 15.18 117.83 Z" />
</g>
<g id="#e2e3e6ff">
<path fill="#e2e3e6" opacity="1.00" d=" M 49.22 121.22 C 53.46 117.24 60.94 118.25 64.35 122.92 L 64.53 123.84 C 62.53 127.46 59.24 130.05 56.60 133.18 C 53.27 132.01 50.01 130.62 46.90 128.93 C 46.91 126.22 47.04 123.17 49.22 121.22 Z" />
</g>
<g id="#b87084ff">
<path fill="#b87084" opacity="1.00" d=" M 74.97 119.93 C 75.39 119.66 76.23 119.12 76.65 118.85 C 78.01 120.64 80.06 122.00 80.96 124.08 C 80.17 127.84 79.96 131.57 81.78 135.20 C 81.75 136.84 82.52 138.84 81.26 140.21 C 81.18 139.39 81.00 137.76 80.91 136.94 C 79.58 137.95 78.37 139.09 77.05 140.12 C 77.07 133.33 77.64 126.37 74.97 119.93 Z" />
</g>
<g id="#ad6779ff">
<path fill="#ad6779" opacity="1.00" d=" M 67.29 130.07 C 70.67 127.87 68.16 123.10 68.76 119.69 C 70.82 120.09 73.04 121.41 74.97 119.93 C 77.64 126.37 77.07 133.33 77.05 140.12 C 78.37 139.09 79.58 137.95 80.91 136.94 C 81.00 137.76 81.18 139.39 81.26 140.21 C 79.04 142.72 76.63 145.12 73.87 147.06 C 72.80 141.46 76.63 135.71 74.93 129.85 C 72.72 131.76 70.66 133.84 68.69 136.00 C 67.52 136.11 66.34 136.21 65.16 136.30 C 63.94 136.03 62.75 135.67 61.60 135.21 C 61.87 134.97 62.42 134.49 62.69 134.25 C 66.87 135.21 66.01 128.68 66.34 125.75 C 66.75 127.17 66.98 128.63 67.29 130.07 Z" />
</g>
<g id="#d58fa2ff">
<path fill="#d58fa2" opacity="1.00" d=" M 30.65 124.60 C 35.82 122.55 41.13 119.61 46.88 121.74 C 46.17 123.84 45.50 125.94 44.91 128.08 C 38.96 127.33 32.96 126.79 26.99 127.57 C 26.99 126.41 27.02 125.25 27.06 124.09 C 28.19 124.51 29.44 125.31 30.65 124.60 Z" />
</g>
<g id="#71555cff">
<path fill="#71555c" opacity="1.00" d=" M 64.28 121.79 C 65.35 122.89 66.09 124.22 66.34 125.75 C 66.01 128.68 66.87 135.21 62.69 134.25 C 65.02 131.31 65.52 127.42 64.53 123.84 L 64.35 122.92 L 64.28 121.79 Z" />
</g>
<g id="#b06c7dff">
<path fill="#b06c7d" opacity="1.00" d=" M 92.29 129.34 C 93.38 126.00 97.04 124.65 99.86 123.07 C 102.40 127.61 100.73 133.36 96.27 135.89 C 94.26 133.71 88.83 134.74 92.29 129.34 Z" />
</g>
<g id="#d3d4d7ff">
<path fill="#d3d4d7" opacity="1.00" d=" M 64.53 123.84 C 65.52 127.42 65.02 131.31 62.69 134.25 C 62.42 134.49 61.87 134.97 61.60 135.21 C 59.92 134.57 58.25 133.89 56.60 133.18 C 59.24 130.05 62.53 127.46 64.53 123.84 Z" />
</g>
<g id="#f8e4cbff">
<path fill="#f8e4cb" opacity="1.00" d=" M 11.04 143.26 C 14.02 136.27 19.99 131.69 25.84 127.19 C 26.13 127.28 26.70 127.48 26.99 127.57 C 32.96 126.79 38.96 127.33 44.91 128.08 L 45.17 129.04 C 43.19 129.80 41.91 131.25 41.13 133.18 C 37.40 136.63 32.43 138.26 28.09 140.86 C 27.78 138.51 26.14 137.43 23.83 138.02 C 24.78 139.30 25.96 140.37 27.22 141.33 C 22.70 143.93 17.08 142.49 12.65 145.31 L 12.02 144.92 C 11.78 144.51 11.29 143.68 11.04 143.26 Z" />
</g>
<g id="#563844a4">
<path fill="#563844" opacity="0.64" d=" M 115.03 127.00 L 115.99 127.00 C 115.99 130.75 115.97 138.24 115.97 141.99 L 114.95 142.04 C 115.05 137.03 114.97 132.01 115.03 127.00 Z" />
</g>
<g id="#e6cfbbff">
<path fill="#e6cfbb" opacity="1.00" d=" M 45.17 129.04 C 45.60 129.01 46.47 128.96 46.90 128.93 C 50.01 130.62 53.27 132.01 56.60 133.18 C 58.25 133.89 59.92 134.57 61.60 135.21 C 62.75 135.67 63.94 136.03 65.16 136.30 C 59.79 136.64 54.18 135.95 49.09 138.12 C 38.85 142.70 28.00 145.57 16.73 145.71 C 16.03 145.81 14.62 146.01 13.92 146.11 C 13.60 145.91 12.97 145.51 12.65 145.31 C 17.08 142.49 22.70 143.93 27.22 141.33 L 28.09 140.86 C 32.43 138.26 37.40 136.63 41.13 133.18 C 41.91 131.25 43.19 129.80 45.17 129.04 Z" />
</g>
<g id="#a25d70fd">
<path fill="#a25d70" opacity="1.00" d=" M 68.69 136.00 C 70.66 133.84 72.72 131.76 74.93 129.85 C 76.63 135.71 72.80 141.46 73.87 147.06 C 71.45 149.79 65.28 151.46 65.65 155.17 L 65.87 155.87 C 62.55 156.31 59.24 156.91 55.89 156.99 C 55.72 156.52 55.40 155.57 55.23 155.10 C 60.65 151.00 68.27 148.70 71.33 142.16 C 71.51 141.58 71.89 140.44 72.07 139.87 C 71.90 139.41 71.56 138.50 71.39 138.04 C 71.10 137.83 70.53 137.40 70.25 137.19 C 69.86 136.89 69.08 136.30 68.69 136.00 Z" />
</g>
<g id="#cf899bfe">
<path fill="#cf899b" opacity="1.00" d=" M 81.78 135.20 C 80.82 131.14 84.36 131.69 86.80 133.22 C 89.03 142.32 87.68 151.73 86.01 160.80 C 83.77 161.01 81.15 160.71 79.69 162.79 C 75.60 159.84 72.03 153.18 65.65 155.17 C 65.28 151.46 71.45 149.79 73.87 147.06 C 76.63 145.12 79.04 142.72 81.26 140.21 C 82.52 138.84 81.75 136.84 81.78 135.20 Z" />
</g>
<g id="#dbc3b3ff">
<path fill="#dbc3b3" opacity="1.00" d=" M 49.09 138.12 C 54.18 135.95 59.79 136.64 65.16 136.30 C 66.34 136.21 67.52 136.11 68.69 136.00 C 69.08 136.30 69.86 136.89 70.25 137.19 C 68.74 137.44 65.73 137.95 64.23 138.21 C 55.59 136.77 48.47 142.83 40.34 144.33 C 32.53 145.37 24.62 146.58 16.73 145.71 C 28.00 145.57 38.85 142.70 49.09 138.12 Z" />
</g>
<g id="#c6a89dff">
<path fill="#c6a89d" opacity="1.00" d=" M 70.25 137.19 C 70.53 137.40 71.10 137.83 71.39 138.04 C 59.29 140.37 48.73 149.04 35.79 146.84 C 45.91 146.48 54.72 141.02 64.23 138.21 C 65.73 137.95 68.74 137.44 70.25 137.19 Z" />
</g>
<g id="#9b9182ff">
<path fill="#9b9182" opacity="1.00" d=" M 23.83 138.02 C 26.14 137.43 27.78 138.51 28.09 140.86 L 27.22 141.33 C 25.96 140.37 24.78 139.30 23.83 138.02 Z" />
</g>
<g id="#d0b6a8ff">
<path fill="#d0b6a8" opacity="1.00" d=" M 40.34 144.33 C 48.47 142.83 55.59 136.77 64.23 138.21 C 54.72 141.02 45.91 146.48 35.79 146.84 C 31.12 147.24 26.26 146.30 21.70 147.67 C 21.29 147.76 20.45 147.94 20.04 148.03 C 19.56 147.94 18.61 147.76 18.13 147.67 C 16.72 147.17 15.20 146.91 13.92 146.11 C 14.62 146.01 16.03 145.81 16.73 145.71 C 24.62 146.58 32.53 145.37 40.34 144.33 Z" />
</g>
<g id="#bb9891ff">
<path fill="#bb9891" opacity="1.00" d=" M 71.39 138.04 C 71.56 138.50 71.90 139.41 72.07 139.87 C 65.59 140.28 59.98 143.95 53.91 145.89 C 48.37 147.67 42.50 147.94 36.78 148.79 C 31.75 148.44 26.73 147.99 21.70 147.67 C 26.26 146.30 31.12 147.24 35.79 146.84 C 48.73 149.04 59.29 140.37 71.39 138.04 Z" />
</g>
<g id="#b76e8cfd">
<path fill="#b76e8c" opacity="1.00" d=" M 97.27 139.24 C 100.12 137.66 105.11 136.33 106.10 140.95 C 108.86 143.84 110.29 148.04 113.65 150.31 C 114.43 151.94 114.29 152.80 113.23 152.89 C 113.04 148.61 105.36 150.71 104.65 153.92 C 101.24 151.24 98.65 147.59 95.09 145.05 C 95.85 143.13 95.68 140.73 97.27 139.24 Z" />
</g>
<g id="#af8884ff">
<path fill="#af8884" opacity="1.00" d=" M 53.91 145.89 C 59.98 143.95 65.59 140.28 72.07 139.87 C 71.89 140.44 71.51 141.58 71.33 142.16 C 62.62 144.78 53.63 146.98 44.96 149.83 C 42.23 149.50 39.51 149.08 36.78 148.79 C 42.50 147.94 48.37 147.67 53.91 145.89 Z" />
</g>
<g id="#a57679fd">
<path fill="#a57679" opacity="1.00" d=" M 44.96 149.83 C 53.63 146.98 62.62 144.78 71.33 142.16 C 68.27 148.70 60.65 151.00 55.23 155.10 C 55.40 155.57 55.72 156.52 55.89 156.99 C 51.96 158.60 48.12 161.39 43.72 160.91 C 45.53 157.76 52.04 157.88 50.34 153.22 C 52.58 149.17 48.82 149.29 44.96 149.83 Z" />
</g>
<g id="#e1b8bbef">
<path fill="#e1b8bb" opacity="0.94" d=" M 10.11 142.93 L 11.04 143.26 C 11.29 143.68 11.78 144.51 12.02 144.92 C 11.44 148.37 11.22 151.89 10.35 155.29 C 9.97 151.17 9.89 147.05 10.11 142.93 Z" />
</g>
<g id="#de98a6fe">
<path fill="#de98a6" opacity="1.00" d=" M 12.02 144.92 L 12.65 145.31 C 12.97 145.51 13.60 145.91 13.92 146.11 C 15.20 146.91 16.72 147.17 18.13 147.67 C 15.71 150.16 14.31 153.36 13.90 156.80 C 12.59 156.88 11.29 156.96 9.98 157.03 C 10.07 156.60 10.26 155.72 10.35 155.29 C 11.22 151.89 11.44 148.37 12.02 144.92 Z" />
</g>
<g id="#bd868dfd">
<path fill="#bd868d" opacity="1.00" d=" M 13.90 156.80 C 14.31 153.36 15.71 150.16 18.13 147.67 C 18.61 147.76 19.56 147.94 20.04 148.03 C 19.59 148.59 16.64 150.89 18.56 150.49 C 22.41 148.66 22.26 156.07 26.06 154.54 C 28.57 155.30 31.09 156.06 33.70 156.38 C 36.19 156.99 38.71 156.11 41.22 156.10 C 40.96 157.94 40.11 159.56 38.97 161.00 C 37.22 161.01 33.74 161.03 31.99 161.04 C 28.72 161.36 25.60 159.71 23.19 157.66 C 21.85 156.76 20.34 153.62 18.74 155.73 C 16.43 156.76 17.47 159.01 17.94 160.87 C 16.02 161.73 13.98 162.19 11.87 161.93 C 13.69 160.60 18.04 158.14 13.90 156.80 Z" />
</g>
<g id="#a96b75ff">
<path fill="#a96b75" opacity="1.00" d=" M 20.04 148.03 C 20.45 147.94 21.29 147.76 21.70 147.67 C 23.01 150.05 24.09 152.61 26.06 154.54 C 22.26 156.07 22.41 148.66 18.56 150.49 C 16.64 150.89 19.59 148.59 20.04 148.03 Z" />
</g>
<g id="#eb9ba6ff">
<path fill="#eb9ba6" opacity="1.00" d=" M 21.70 147.67 C 26.73 147.99 31.75 148.44 36.78 148.79 C 39.51 149.08 42.23 149.50 44.96 149.83 C 42.85 154.09 37.29 153.92 33.70 156.38 C 31.09 156.06 28.57 155.30 26.06 154.54 C 24.09 152.61 23.01 150.05 21.70 147.67 Z" />
</g>
<g id="#db919dff">
<path fill="#db919d" opacity="1.00" d=" M 44.96 149.83 C 48.82 149.29 52.58 149.17 50.34 153.22 C 47.35 154.32 44.38 155.57 41.22 156.10 C 38.71 156.11 36.19 156.99 33.70 156.38 C 37.29 153.92 42.85 154.09 44.96 149.83 Z" />
</g>
<g id="#cca4b3f8">
<path fill="#cca4b3" opacity="0.97" d=" M 104.65 153.92 C 105.36 150.71 113.04 148.61 113.23 152.89 C 113.12 157.10 106.49 156.21 104.65 153.92 Z" />
</g>
<g id="#b27e83ff">
<path fill="#b27e83" opacity="1.00" d=" M 41.22 156.10 C 44.38 155.57 47.35 154.32 50.34 153.22 C 52.04 157.88 45.53 157.76 43.72 160.91 C 42.13 160.96 40.55 160.99 38.97 161.00 C 40.11 159.56 40.96 157.94 41.22 156.10 Z" />
</g>
<g id="#a25e72fa">
<path fill="#a25e72" opacity="0.98" d=" M 18.74 155.73 C 20.34 153.62 21.85 156.76 23.19 157.66 C 21.64 159.01 19.98 160.35 17.94 160.87 C 17.47 159.01 16.43 156.76 18.74 155.73 Z" />
</g>
<g id="#e9cdd4fe">
<path fill="#e9cdd4" opacity="1.00" d=" M 9.98 157.03 C 11.29 156.96 12.59 156.88 13.90 156.80 C 18.04 158.14 13.69 160.60 11.87 161.93 C 9.50 161.80 10.00 158.70 9.98 157.03 Z" />
</g>
<g id="#785856d4">
<path fill="#785856" opacity="0.83" d=" M 31.99 161.04 C 33.74 161.03 37.22 161.01 38.97 161.00 C 40.55 160.99 42.13 160.96 43.72 160.91 L 44.06 161.88 C 40.94 160.78 33.48 164.08 31.99 161.04 Z" />
</g>
<g id="#dbbdc2fa">
<path fill="#dbbdc2" opacity="0.98" d=" M 79.69 162.79 C 81.15 160.71 83.77 161.01 86.01 160.80 C 86.48 161.13 87.43 161.78 87.91 162.10 C 87.92 162.78 87.95 164.15 87.97 164.83 C 84.88 166.03 81.04 166.70 79.69 162.79 Z" />
</g>
</svg>
