<?xml version="1.0" encoding="UTF-8" ?>
<!DOCTYPE svg PUBLIC "-//W3C//DTD SVG 1.1//EN" "http://www.w3.org/Graphics/SVG/1.1/DTD/svg11.dtd">
<svg width="230pt" height="198pt" viewBox="0 0 230 198" version="1.1" xmlns="http://www.w3.org/2000/svg">
<g id="#ffcbd6ff">
<path fill="#ffcbd6" opacity="1.00" d=" M 46.55 16.18 C 56.14 11.27 67.66 11.02 77.74 14.61 C 77.41 15.10 76.74 16.07 76.41 16.56 C 68.11 18.74 59.43 18.22 50.93 18.13 C 49.17 18.34 47.79 17.25 46.55 16.18 Z" />
</g>
<g id="#ffbbc7ff">
<path fill="#ffbbc7" opacity="1.00" d=" M 18.94 24.19 C 19.19 19.74 21.79 15.24 26.17 13.80 C 31.79 11.91 37.89 15.45 40.57 20.41 C 42.27 18.63 44.34 17.26 46.55 16.18 C 47.79 17.25 49.17 18.34 50.93 18.13 C 59.43 18.22 68.11 18.74 76.41 16.56 C 76.74 16.07 77.41 15.10 77.74 14.61 C 80.01 15.64 82.14 16.95 84.32 18.17 C 82.26 19.36 79.86 21.15 80.15 23.84 C 80.90 25.80 82.02 27.63 82.43 29.71 C 77.94 27.09 71.91 28.46 69.18 32.93 C 66.99 30.79 64.05 29.87 61.03 29.84 C 55.85 29.64 49.55 28.57 45.68 32.91 C 44.82 30.91 43.63 28.23 41.04 28.34 C 38.11 27.79 35.96 30.11 34.06 31.93 L 32.43 31.33 C 33.26 29.98 34.20 28.70 35.20 27.46 C 38.34 27.31 39.41 23.72 37.86 21.33 C 36.17 16.44 29.82 16.02 25.67 17.66 C 22.47 18.62 20.48 21.42 18.94 24.19 Z" />
</g>
<g id="#feb7c6ff">
<path fill="#feb7c6" opacity="1.00" d=" M 88.29 16.04 C 93.45 11.93 101.69 13.15 105.04 18.91 C 107.32 21.98 106.86 25.98 106.19 29.50 C 104.52 26.57 103.45 23.26 101.27 20.66 C 97.93 17.06 92.69 17.26 88.29 16.04 Z" />
</g>
<g id="#ef9fb0ff">
<path fill="#ef9fb0" opacity="1.00" d=" M 85.30 18.65 C 86.26 17.73 87.28 16.90 88.29 16.04 C 92.69 17.26 97.93 17.06 101.27 20.66 C 103.45 23.26 104.52 26.57 106.19 29.50 C 104.99 31.47 103.25 33.05 101.36 34.35 C 100.57 33.13 99.75 31.92 98.90 30.74 C 100.80 28.03 100.82 24.23 98.00 22.12 C 94.42 18.53 88.47 22.66 88.40 27.05 C 89.17 30.21 91.75 32.48 93.59 35.05 C 94.07 35.94 94.51 36.85 94.97 37.75 C 96.04 37.15 97.11 36.54 98.20 35.97 C 98.32 36.32 98.56 37.02 98.69 37.37 C 95.76 42.66 95.55 49.20 96.82 55.02 C 98.09 61.47 98.24 68.19 100.58 74.39 C 101.42 76.61 103.56 77.85 105.25 79.35 L 105.28 79.46 C 105.16 79.86 104.91 80.67 104.78 81.07 C 102.83 79.91 100.75 78.96 98.52 78.50 C 99.88 81.66 102.66 83.90 104.11 87.02 C 104.64 89.24 106.97 90.09 108.06 91.90 C 109.12 96.16 108.92 100.64 110.08 104.90 C 111.07 108.54 111.09 112.58 113.34 115.76 C 111.70 116.90 110.01 117.96 108.22 118.86 C 108.35 118.42 108.63 117.56 108.76 117.13 C 108.35 117.56 107.53 118.43 107.12 118.86 C 101.89 111.98 111.21 103.69 106.62 96.85 C 106.30 98.73 106.05 100.62 105.76 102.51 C 105.32 101.14 104.89 99.78 104.47 98.40 C 103.31 100.76 102.46 103.67 99.99 105.01 C 97.02 106.55 93.85 103.46 90.85 104.84 C 88.21 106.01 86.30 108.27 84.16 110.13 C 83.25 108.75 82.32 107.37 81.41 105.99 C 81.95 105.08 82.48 104.16 82.99 103.23 C 87.11 96.81 89.75 89.08 88.49 81.39 C 90.24 79.25 91.96 77.08 93.60 74.85 C 90.59 68.93 92.61 62.27 91.99 56.00 C 91.70 54.23 89.91 53.75 88.43 53.45 C 86.80 52.06 85.26 50.57 83.63 49.18 C 85.73 47.23 88.35 45.20 88.52 42.07 C 89.34 37.11 86.40 32.43 82.43 29.71 C 82.02 27.63 80.90 25.80 80.15 23.84 C 79.86 21.15 82.26 19.36 84.32 18.17 L 85.30 18.65 Z" />
</g>
<g id="#e695a9ff">
<path fill="#e695a9" opacity="1.00" d=" M 25.67 17.66 C 29.82 16.02 36.17 16.44 37.86 21.33 C 39.41 23.72 38.34 27.31 35.20 27.46 C 34.15 24.87 32.84 22.06 30.07 20.92 C 26.84 19.11 22.90 22.68 23.28 26.06 C 23.05 28.13 24.58 29.72 25.54 31.37 C 25.09 31.92 24.17 33.01 23.72 33.56 C 21.11 31.42 19.43 28.46 18.62 25.21 L 18.94 24.19 C 20.48 21.42 22.47 18.62 25.67 17.66 Z" />
<path fill="#e695a9" opacity="1.00" d=" M 24.39 26.93 C 24.10 24.22 26.83 20.35 29.72 22.18 C 32.02 23.24 33.19 25.73 33.27 28.17 C 32.14 27.10 31.02 26.02 29.91 24.93 C 28.07 25.61 26.23 26.28 24.39 26.93 Z" />
</g>
<g id="#5b433aff">
<path fill="#5b433a" opacity="1.00" d=" M 23.28 26.06 C 22.90 22.68 26.84 19.11 30.07 20.92 C 32.84 22.06 34.15 24.87 35.20 27.46 C 34.20 28.70 33.26 29.98 32.43 31.33 C 32.18 31.78 31.69 32.69 31.44 33.14 C 32.02 31.47 32.66 29.83 33.27 28.17 C 33.19 25.73 32.02 23.24 29.72 22.18 C 26.83 20.35 24.10 24.22 24.39 26.93 C 25.07 28.04 25.79 29.13 26.50 30.23 C 26.26 30.51 25.78 31.08 25.54 31.37 C 24.58 29.72 23.05 28.13 23.28 26.06 Z" />
<path fill="#5b433a" opacity="1.00" d=" M 88.40 27.05 C 88.47 22.66 94.42 18.53 98.00 22.12 C 100.82 24.23 100.80 28.03 98.90 30.74 C 98.46 30.77 97.57 30.82 97.13 30.85 C 98.38 28.78 100.24 26.14 98.01 24.01 C 96.07 20.82 91.39 22.05 90.31 25.32 C 88.09 29.01 92.38 31.82 93.59 35.05 C 91.75 32.48 89.17 30.21 88.40 27.05 Z" />
<path fill="#5b433a" opacity="1.00" d=" M 34.06 31.93 C 35.96 30.11 38.11 27.79 41.04 28.34 C 43.63 28.23 44.82 30.91 45.68 32.91 C 45.80 35.60 45.49 38.29 44.93 40.92 C 44.49 41.10 43.61 41.44 43.17 41.61 C 45.07 37.82 45.58 32.40 41.97 29.43 C 38.60 28.23 35.93 31.00 33.77 33.15 L 34.06 31.93 Z" />
<path fill="#5b433a" opacity="1.00" d=" M 69.18 32.93 C 71.91 28.46 77.94 27.09 82.43 29.71 C 86.40 32.43 89.34 37.11 88.52 42.07 C 88.35 45.20 85.73 47.23 83.63 49.18 C 83.06 48.79 82.48 48.41 81.90 48.04 C 84.07 46.84 85.97 45.24 87.65 43.43 C 88.42 38.55 86.74 33.15 82.16 30.74 C 78.21 27.98 72.54 29.28 70.33 33.59 C 69.21 36.29 69.43 39.22 70.35 41.94 C 69.84 41.70 68.83 41.23 68.33 41.00 C 68.36 38.29 68.31 35.53 69.18 32.93 Z" />
<path fill="#5b433a" opacity="1.00" d=" M 55.61 53.52 C 56.93 52.17 58.61 51.35 60.50 51.16 C 59.58 53.05 57.66 53.90 55.61 53.52 Z" />
<path fill="#5b433a" opacity="1.00" d=" M 38.47 117.39 C 50.24 118.98 62.16 118.92 73.91 117.17 C 74.32 117.12 75.14 117.03 75.55 116.98 C 75.46 117.43 75.27 118.31 75.17 118.76 C 62.93 121.00 50.48 120.50 38.14 119.57 C 38.22 119.02 38.39 117.93 38.47 117.39 Z" />
<path fill="#5b433a" opacity="1.00" d=" M 23.67 133.85 C 24.29 138.19 25.59 142.75 29.38 145.39 C 28.39 145.28 27.40 145.18 26.41 145.08 C 28.56 151.69 32.67 157.48 37.68 162.24 C 40.68 164.61 44.20 166.19 47.43 168.22 L 47.48 168.94 C 42.27 167.60 37.18 165.05 33.93 160.61 C 32.67 158.45 31.05 156.53 29.50 154.58 C 26.33 149.58 25.56 143.61 23.58 138.14 C 23.61 136.71 23.65 135.28 23.67 133.85 Z" />
<path fill="#5b433a" opacity="1.00" d=" M 41.75 151.12 C 60.33 155.18 79.01 149.32 96.58 143.67 C 96.48 144.37 96.40 145.08 96.32 145.79 C 80.96 150.24 65.27 155.48 49.05 154.18 C 46.05 153.84 43.09 153.28 40.14 152.64 C 36.50 151.14 32.22 150.31 29.59 147.15 L 31.03 146.72 C 34.35 148.74 37.96 150.27 41.75 151.12 Z" />
<path fill="#5b433a" opacity="1.00" d=" M 53.53 165.49 C 66.37 167.23 78.71 162.59 90.89 159.33 C 92.26 159.50 93.62 159.76 94.98 159.99 C 94.75 161.39 94.53 162.80 94.25 164.20 C 94.31 163.23 94.43 161.30 94.49 160.34 C 87.51 160.92 81.06 163.86 74.27 165.34 C 63.97 167.80 52.13 168.94 42.74 163.06 C 46.34 163.84 49.86 165.01 53.53 165.49 Z" />
</g>
<g id="#d7859aff">
<path fill="#d7859a" opacity="1.00" d=" M 90.31 25.32 C 91.39 22.05 96.07 20.82 98.01 24.01 C 100.24 26.14 98.38 28.78 97.13 30.85 C 97.57 30.82 98.46 30.77 98.90 30.74 C 99.75 31.92 100.57 33.13 101.36 34.35 C 100.32 34.92 99.25 35.42 98.20 35.97 C 97.11 36.54 96.04 37.15 94.97 37.75 C 94.51 36.85 94.07 35.94 93.59 35.05 C 92.38 31.82 88.09 29.01 90.31 25.32 Z" />
</g>
<g id="#ce7d93ff">
<path fill="#ce7d93" opacity="1.00" d=" M 24.39 26.93 C 26.23 26.28 28.07 25.61 29.91 24.93 C 31.02 26.02 32.14 27.10 33.27 28.17 C 32.66 29.83 32.02 31.47 31.44 33.14 C 31.00 34.37 30.59 35.61 30.15 36.85 L 30.27 35.99 C 28.04 35.30 25.71 34.82 23.72 33.56 C 24.17 33.01 25.09 31.92 25.54 31.37 C 25.78 31.08 26.26 30.51 26.50 30.23 C 25.79 29.13 25.07 28.04 24.39 26.93 Z" />
</g>
<g id="#f5a6b6ff">
<path fill="#f5a6b6" opacity="1.00" d=" M 45.68 32.91 C 49.55 28.57 55.85 29.64 61.03 29.84 C 64.05 29.87 66.99 30.79 69.18 32.93 C 68.31 35.53 68.36 38.29 68.33 41.00 C 65.36 39.88 62.24 39.24 59.11 38.76 C 54.28 37.96 49.48 39.48 44.93 40.92 C 45.49 38.29 45.80 35.60 45.68 32.91 Z" />
</g>
<g id="#ffffffff">
<path fill="#ffffff" opacity="1.00" d=" M 33.77 33.15 C 35.93 31.00 38.60 28.23 41.97 29.43 C 45.58 32.40 45.07 37.82 43.17 41.61 L 42.10 42.10 C 39.88 41.02 37.82 39.66 35.78 38.29 C 33.09 40.54 34.35 43.57 35.92 46.06 C 35.41 46.43 34.40 47.17 33.90 47.54 C 32.89 46.09 31.80 44.70 30.69 43.33 C 31.37 39.83 32.66 36.51 33.77 33.15 M 37.48 36.77 C 39.34 36.53 39.61 34.62 38.79 33.21 C 38.12 34.16 35.57 35.82 37.48 36.77 Z" />
<path fill="#ffffff" opacity="1.00" d=" M 70.33 33.59 C 72.54 29.28 78.21 27.98 82.16 30.74 C 86.74 33.15 88.42 38.55 87.65 43.43 C 85.97 45.24 84.07 46.84 81.90 48.04 C 79.73 46.75 77.57 45.44 75.33 44.28 C 76.86 39.78 73.21 36.44 70.33 33.59 M 76.57 34.72 C 76.07 36.79 80.21 37.95 79.61 35.46 C 79.45 33.69 77.64 33.80 76.57 34.72 Z" />
<path fill="#ffffff" opacity="1.00" d=" M 152.25 66.66 C 150.14 65.90 151.43 63.57 151.76 62.11 C 153.15 62.75 154.54 63.40 155.94 64.03 C 160.99 66.89 167.47 65.80 171.87 70.04 C 171.27 70.38 170.08 71.06 169.48 71.40 C 164.12 68.49 157.83 68.77 152.25 66.66 Z" />
</g>
<g id="#ee96abff">
<path fill="#ee96ab" opacity="1.00" d=" M 31.44 33.14 C 31.69 32.69 32.18 31.78 32.43 31.33 L 34.06 31.93 L 33.77 33.15 C 32.66 36.51 31.37 39.83 30.69 43.33 C 30.00 45.30 31.08 47.64 33.15 48.17 C 31.70 49.49 30.37 50.92 28.98 52.29 C 28.68 52.55 28.10 53.09 27.80 53.35 C 27.76 47.77 27.84 42.05 30.15 36.85 C 30.59 35.61 31.00 34.37 31.44 33.14 Z" />
</g>
<g id="#2a1d2bff">
<path fill="#2a1d2b" opacity="1.00" d=" M 37.48 36.77 C 35.57 35.82 38.12 34.16 38.79 33.21 C 39.61 34.62 39.34 36.53 37.48 36.77 Z" />
<path fill="#2a1d2b" opacity="1.00" d=" M 76.57 34.72 C 77.64 33.80 79.45 33.69 79.61 35.46 C 80.21 37.95 76.07 36.79 76.57 34.72 Z" />
<path fill="#2a1d2b" opacity="1.00" d=" M 30.69 43.33 C 31.80 44.70 32.89 46.09 33.90 47.54 C 33.71 47.70 33.34 48.02 33.15 48.17 C 31.08 47.64 30.00 45.30 30.69 43.33 Z" />
<path fill="#2a1d2b" opacity="1.00" d=" M 122.71 76.76 C 124.20 76.56 125.70 76.40 127.20 76.30 C 126.82 76.48 126.06 76.86 125.68 77.04 C 125.39 78.98 125.16 80.93 124.99 82.89 C 124.82 84.71 124.71 86.53 124.57 88.36 C 125.67 88.07 126.78 87.80 127.89 87.53 C 127.59 87.76 126.98 88.23 126.67 88.46 C 125.47 89.16 124.12 89.53 122.80 89.91 C 122.81 89.46 122.82 88.56 122.82 88.11 C 122.90 87.42 123.04 86.03 123.12 85.33 C 121.95 85.37 120.77 85.38 119.60 85.37 C 120.49 85.04 122.26 84.36 123.14 84.03 C 123.50 81.59 123.92 79.16 124.58 76.79 L 123.96 76.79 L 122.71 76.76 Z" />
<path fill="#2a1d2b" opacity="1.00" d=" M 114.67 83.18 L 116.22 82.98 C 118.09 84.66 119.96 86.40 121.18 88.64 C 118.78 87.10 116.67 85.18 114.67 83.18 Z" />
<path fill="#2a1d2b" opacity="1.00" d=" M 131.07 96.56 C 131.49 96.41 132.35 96.12 132.78 95.98 C 132.49 96.87 132.20 97.77 131.92 98.67 C 133.58 99.58 135.23 100.49 136.89 101.40 C 142.55 104.18 148.17 107.44 151.95 112.66 C 150.40 112.15 149.08 111.19 147.80 110.22 C 146.38 111.01 145.00 111.87 143.58 112.66 C 142.37 113.37 141.18 114.10 140.03 114.89 C 139.50 114.71 138.42 114.35 137.89 114.16 C 140.45 113.09 142.98 111.93 145.30 110.39 C 145.78 110.09 146.74 109.47 147.22 109.16 C 143.91 107.02 140.56 104.84 136.89 103.38 C 136.46 103.60 135.62 104.03 135.20 104.24 C 134.25 104.80 133.32 105.38 132.37 105.94 L 133.29 106.75 C 134.51 108.97 135.51 111.30 136.44 113.66 C 136.15 113.55 135.56 113.33 135.26 113.23 C 133.24 109.54 131.03 105.80 130.45 101.56 C 130.77 102.25 131.39 103.64 131.70 104.34 C 133.01 103.69 134.31 103.06 135.65 102.48 C 133.74 101.48 131.83 100.46 130.05 99.25 C 129.99 98.82 129.88 97.97 129.82 97.55 C 130.13 97.30 130.76 96.80 131.07 96.56 Z" />
<path fill="#2a1d2b" opacity="1.00" d=" M 131.41 129.73 C 131.69 129.64 132.25 129.46 132.52 129.36 C 135.46 133.75 139.11 137.64 141.77 142.21 C 141.43 142.97 141.01 143.70 140.62 144.43 C 143.13 144.92 145.16 146.84 145.50 149.43 C 145.56 151.96 145.10 154.53 145.92 156.99 L 146.08 158.52 C 144.90 157.49 143.75 156.43 142.60 155.37 C 138.58 156.46 134.64 157.79 130.74 159.21 C 130.83 158.55 131.02 157.24 131.11 156.58 C 131.79 149.17 131.70 141.55 129.24 134.45 C 129.64 134.33 130.45 134.11 130.86 134.00 C 129.03 134.09 128.13 132.64 127.37 131.22 C 128.71 130.70 130.05 130.19 131.41 129.73 Z" />
</g>
<g id="#e2e8eeff">
<path fill="#e2e8ee" opacity="1.00" d=" M 70.35 41.94 C 69.43 39.22 69.21 36.29 70.33 33.59 C 73.21 36.44 76.86 39.78 75.33 44.28 C 73.68 43.47 72.00 42.72 70.35 41.94 Z" />
</g>
<g id="#f8dfcbff">
<path fill="#f8dfcb" opacity="1.00" d=" M 44.93 40.92 C 49.48 39.48 54.28 37.96 59.11 38.76 C 62.24 39.24 65.36 39.88 68.33 41.00 C 68.83 41.23 69.84 41.70 70.35 41.94 C 72.00 42.72 73.68 43.47 75.33 44.28 C 77.57 45.44 79.73 46.75 81.90 48.04 C 82.48 48.41 83.06 48.79 83.63 49.18 C 85.26 50.57 86.80 52.06 88.43 53.45 C 89.11 54.62 89.77 55.80 90.43 56.98 C 89.99 57.98 89.54 58.98 89.08 59.98 C 80.14 56.47 71.01 51.54 61.12 52.49 C 60.97 52.16 60.66 51.49 60.50 51.16 C 58.61 51.35 56.93 52.17 55.61 53.52 C 53.50 53.45 51.39 53.38 49.28 53.40 C 49.00 53.13 48.44 52.58 48.16 52.30 C 47.24 51.13 46.16 50.85 44.92 51.44 C 44.56 51.73 43.85 52.32 43.49 52.61 C 40.51 52.45 37.38 52.00 35.51 49.39 C 33.58 50.74 31.66 53.46 28.98 52.29 C 30.37 50.92 31.70 49.49 33.15 48.17 C 33.34 48.02 33.71 47.70 33.90 47.54 C 34.40 47.17 35.41 46.43 35.92 46.06 C 37.92 44.65 39.93 43.25 42.10 42.10 L 43.17 41.61 C 43.61 41.44 44.49 41.10 44.93 40.92 Z" />
</g>
<g id="#feafbfff">
<path fill="#feafbf" opacity="1.00" d=" M 96.82 55.02 C 95.55 49.20 95.76 42.66 98.69 37.37 C 100.80 43.80 100.74 50.66 101.50 57.32 C 100.16 65.00 103.61 72.06 105.25 79.35 C 103.56 77.85 101.42 76.61 100.58 74.39 C 98.24 68.19 98.09 61.47 96.82 55.02 Z" />
</g>
<g id="#c8d3e0ff">
<path fill="#c8d3e0" opacity="1.00" d=" M 35.92 46.06 C 34.35 43.57 33.09 40.54 35.78 38.29 C 37.82 39.66 39.88 41.02 42.10 42.10 C 39.93 43.25 37.92 44.65 35.92 46.06 Z" />
</g>
<g id="#dabfb3ff">
<path fill="#dabfb3" opacity="1.00" d=" M 28.98 52.29 C 31.66 53.46 33.58 50.74 35.51 49.39 C 37.38 52.00 40.51 52.45 43.49 52.61 C 43.85 52.32 44.56 51.73 44.92 51.44 C 45.04 52.77 46.56 54.29 47.91 53.57 C 47.98 53.25 48.10 52.62 48.16 52.30 C 48.44 52.58 49.00 53.13 49.28 53.40 C 51.39 53.38 53.50 53.45 55.61 53.52 C 57.66 53.90 59.58 53.05 60.50 51.16 C 60.66 51.49 60.97 52.16 61.12 52.49 C 71.01 51.54 80.14 56.47 89.08 59.98 C 88.89 60.34 88.52 61.07 88.33 61.43 C 86.83 61.54 85.31 61.54 83.80 61.50 C 80.27 60.76 76.69 60.20 73.07 60.30 C 65.71 60.51 58.42 59.05 51.04 59.34 C 45.03 59.59 39.13 58.24 33.19 57.59 C 31.17 57.28 29.63 58.79 28.09 59.83 C 27.73 57.91 27.54 55.95 27.74 54.00 L 27.80 53.35 C 28.10 53.09 28.68 52.55 28.98 52.29 Z" />
</g>
<g id="#726550ff">
<path fill="#726550" opacity="1.00" d=" M 44.92 51.44 C 46.16 50.85 47.24 51.13 48.16 52.30 C 48.10 52.62 47.98 53.25 47.91 53.57 C 46.56 54.29 45.04 52.77 44.92 51.44 Z" />
</g>
<g id="#dc8a9eff">
<path fill="#dc8a9e" opacity="1.00" d=" M 88.43 53.45 C 89.91 53.75 91.70 54.23 91.99 56.00 C 92.61 62.27 90.59 68.93 93.60 74.85 C 91.96 77.08 90.24 79.25 88.49 81.39 C 89.75 89.08 87.11 96.81 82.99 103.23 C 84.14 95.60 86.11 87.82 85.02 80.09 C 83.69 80.31 82.35 80.51 81.02 80.73 C 81.97 75.21 86.19 70.53 85.79 64.79 C 85.77 64.28 85.74 63.25 85.72 62.73 L 85.97 61.93 C 85.43 61.83 84.34 61.61 83.80 61.50 C 85.31 61.54 86.83 61.54 88.33 61.43 C 88.52 61.07 88.89 60.34 89.08 59.98 C 89.54 58.98 89.99 57.98 90.43 56.98 C 89.77 55.80 89.11 54.62 88.43 53.45 Z" />
</g>
<g id="#a26971ff">
<path fill="#a26971" opacity="1.00" d=" M 28.89 61.58 C 25.93 60.02 27.50 56.61 27.74 54.00 C 27.54 55.95 27.73 57.91 28.09 59.83 C 29.63 58.79 31.17 57.28 33.19 57.59 C 39.13 58.24 45.03 59.59 51.04 59.34 C 58.42 59.05 65.71 60.51 73.07 60.30 C 76.69 60.20 80.27 60.76 83.80 61.50 C 84.34 61.61 85.43 61.83 85.97 61.93 L 85.72 62.73 C 80.99 65.34 77.17 69.57 71.84 71.01 C 74.53 68.94 77.03 66.54 78.67 63.53 C 76.25 63.37 73.90 63.88 71.79 65.07 C 71.19 64.24 70.59 63.41 70.00 62.57 C 62.38 61.21 54.63 60.16 46.88 60.66 C 44.25 60.66 41.66 61.25 39.48 62.76 C 39.40 63.92 39.30 65.08 39.21 66.24 C 37.57 65.28 35.83 64.51 33.98 64.08 C 35.18 66.75 36.85 69.19 38.89 71.29 C 44.65 76.90 53.39 77.26 60.97 77.07 C 65.77 77.17 70.15 74.99 74.82 74.22 C 69.60 79.33 61.97 80.02 55.06 80.20 C 49.13 79.28 42.80 77.99 38.19 73.88 C 34.22 70.43 33.16 64.73 28.89 61.58 Z" />
</g>
<g id="#ffe1f0ff">
<path fill="#ffe1f0" opacity="1.00" d=" M 101.50 57.32 C 102.66 65.52 105.91 73.17 107.97 81.14 C 108.28 82.29 108.68 83.41 109.07 84.53 C 109.96 87.36 110.73 90.22 111.53 93.08 C 112.62 97.08 113.48 101.15 114.39 105.20 C 114.70 106.69 115.03 108.18 115.41 109.65 C 115.24 110.51 114.89 112.23 114.72 113.09 C 111.21 101.98 110.13 90.11 105.28 79.46 L 105.25 79.35 C 103.61 72.06 100.16 65.00 101.50 57.32 Z" />
<path fill="#ffe1f0" opacity="1.00" d=" M 111.42 118.81 C 112.92 117.36 114.89 116.73 116.92 116.48 C 117.51 118.80 118.90 120.77 120.65 122.36 C 123.39 124.90 125.58 127.96 127.37 131.22 C 128.13 132.64 129.03 134.09 130.86 134.00 C 130.45 134.11 129.64 134.33 129.24 134.45 C 131.70 141.55 131.79 149.17 131.11 156.58 C 129.29 153.32 129.95 149.51 129.58 145.96 C 129.36 142.39 127.52 139.22 125.84 136.17 C 124.60 128.09 117.66 123.11 111.42 118.81 Z" />
</g>
<g id="#d47f8eff">
<path fill="#d47f8e" opacity="1.00" d=" M 39.48 62.76 C 41.66 61.25 44.25 60.66 46.88 60.66 C 45.35 65.19 46.86 70.47 50.59 73.40 C 54.75 74.32 59.06 74.12 63.29 74.36 C 58.91 75.33 54.37 75.00 49.93 74.81 C 47.89 74.83 46.25 73.50 44.69 72.38 C 42.49 69.45 40.72 66.22 39.48 62.76 Z" />
</g>
<g id="#df8f9bff">
<path fill="#df8f9b" opacity="1.00" d=" M 46.88 60.66 C 54.63 60.16 62.38 61.21 70.00 62.57 C 70.59 63.41 71.19 64.24 71.79 65.07 C 73.90 63.88 76.25 63.37 78.67 63.53 C 77.03 66.54 74.53 68.94 71.84 71.01 C 68.96 72.06 66.23 73.48 63.29 74.36 C 59.06 74.12 54.75 74.32 50.59 73.40 C 46.86 70.47 45.35 65.19 46.88 60.66 Z" />
</g>
<g id="#d1efefff">
<path fill="#d1efef" opacity="1.00" d=" M 147.99 60.48 C 149.24 61.02 150.51 61.55 151.76 62.11 C 151.43 63.57 150.14 65.90 152.25 66.66 C 157.83 68.77 164.12 68.49 169.48 71.40 C 166.67 73.41 163.10 73.16 159.83 73.14 C 159.13 73.12 157.72 73.08 157.02 73.06 C 155.50 69.95 151.92 69.36 148.90 68.63 C 147.20 71.05 145.49 73.47 143.82 75.91 C 142.58 75.20 141.31 74.54 140.05 73.87 C 140.20 72.95 140.38 72.03 140.57 71.11 C 144.32 68.53 146.33 64.59 147.99 60.48 Z" />
</g>
<g id="#c87e93ff">
<path fill="#c87e93" opacity="1.00" d=" M 28.89 61.58 C 33.16 64.73 34.22 70.43 38.19 73.88 C 42.80 77.99 49.13 79.28 55.06 80.20 C 61.97 80.02 69.60 79.33 74.82 74.22 C 78.98 71.71 82.46 68.29 85.79 64.79 C 86.19 70.53 81.97 75.21 81.02 80.73 C 82.35 80.51 83.69 80.31 85.02 80.09 C 86.11 87.82 84.14 95.60 82.99 103.23 C 82.48 104.16 81.95 105.08 81.41 105.99 C 80.46 107.32 79.40 108.56 78.36 109.82 C 76.10 106.70 73.19 104.05 71.46 100.57 C 69.90 96.56 65.20 95.77 61.64 94.37 C 56.73 92.32 51.38 93.49 46.36 94.42 C 44.40 94.74 42.89 96.25 42.27 98.09 C 41.12 101.00 39.22 103.74 39.16 106.97 C 39.00 109.17 38.79 111.38 38.25 113.53 C 36.71 104.33 33.54 95.38 33.29 85.98 C 33.32 81.29 31.06 77.06 30.32 72.51 C 30.06 68.84 29.32 65.23 28.89 61.58 Z" />
</g>
<g id="#c47484ff">
<path fill="#c47484" opacity="1.00" d=" M 39.21 66.24 C 39.30 65.08 39.40 63.92 39.48 62.76 C 40.72 66.22 42.49 69.45 44.69 72.38 C 42.21 73.43 41.13 71.26 40.31 69.35 C 39.96 69.84 39.25 70.80 38.89 71.29 C 36.85 69.19 35.18 66.75 33.98 64.08 C 35.83 64.51 37.57 65.28 39.21 66.24 Z" />
</g>
<g id="#ba8389ff">
<path fill="#ba8389" opacity="1.00" d=" M 71.84 71.01 C 77.17 69.57 80.99 65.34 85.72 62.73 C 85.74 63.25 85.77 64.28 85.79 64.79 C 82.46 68.29 78.98 71.71 74.82 74.22 C 70.15 74.99 65.77 77.17 60.97 77.07 C 53.39 77.26 44.65 76.90 38.89 71.29 C 39.25 70.80 39.96 69.84 40.31 69.35 C 41.13 71.26 42.21 73.43 44.69 72.38 C 46.25 73.50 47.89 74.83 49.93 74.81 C 54.37 75.00 58.91 75.33 63.29 74.36 C 66.23 73.48 68.96 72.06 71.84 71.01 Z" />
</g>
<g id="#c5f8ffff">
<path fill="#c5f8ff" opacity="1.00" d=" M 171.87 70.04 C 177.19 66.16 183.96 69.15 189.87 67.36 C 190.11 67.68 190.57 68.31 190.81 68.63 C 188.78 68.57 186.76 68.61 184.74 68.69 C 183.18 68.75 181.61 68.85 180.06 68.94 C 179.69 71.39 179.29 73.83 178.97 76.29 C 182.82 81.89 186.98 87.37 189.61 93.72 C 189.43 94.20 189.07 95.17 188.88 95.66 C 187.93 95.17 186.98 94.68 186.03 94.19 C 185.92 97.38 186.12 100.57 186.73 103.71 C 186.32 103.87 185.49 104.19 185.08 104.36 C 182.42 102.49 179.91 100.40 177.12 98.72 C 176.02 97.15 174.71 95.71 173.01 94.80 C 170.56 93.35 168.17 91.49 167.56 88.54 C 166.09 82.87 161.63 78.69 159.83 73.14 C 163.10 73.16 166.67 73.41 169.48 71.40 C 170.08 71.06 171.27 70.38 171.87 70.04 Z" />
</g>
<g id="#bff9ffff">
<path fill="#bff9ff" opacity="1.00" d=" M 211.49 72.43 C 213.87 70.45 216.35 68.49 219.33 67.50 C 219.32 68.27 219.29 69.81 219.27 70.58 C 218.08 71.64 217.42 73.09 218.71 74.38 C 221.65 76.26 225.32 74.79 228.48 74.28 C 228.12 74.68 227.40 75.49 227.04 75.89 C 224.71 76.83 222.39 77.88 220.43 79.47 C 216.38 83.14 209.44 82.50 207.04 88.16 C 205.26 83.99 202.88 80.12 200.38 76.35 C 200.89 75.76 201.92 74.58 202.43 73.99 C 205.38 73.07 208.90 74.48 211.49 72.43 Z" />
</g>
<g id="#b7dee7ff">
<path fill="#b7dee7" opacity="1.00" d=" M 143.82 75.91 C 145.49 73.47 147.20 71.05 148.90 68.63 C 151.92 69.36 155.50 69.95 157.02 73.06 C 158.67 77.06 160.51 80.98 162.02 85.03 C 157.91 84.44 154.31 81.98 150.15 81.70 C 148.29 79.52 146.27 77.43 143.82 75.91 Z" />
</g>
<g id="#c2e7eeff">
<path fill="#c2e7ee" opacity="1.00" d=" M 180.06 68.94 C 181.61 68.85 183.18 68.75 184.74 68.69 C 185.09 69.12 185.79 69.99 186.14 70.42 C 185.26 72.12 184.39 73.84 183.55 75.56 C 182.41 75.78 181.27 75.99 180.13 76.17 C 179.84 76.20 179.26 76.26 178.97 76.29 C 179.29 73.83 179.69 71.39 180.06 68.94 Z" />
</g>
<g id="#d8fefeff">
<path fill="#d8fefe" opacity="1.00" d=" M 184.74 68.69 C 186.76 68.61 188.78 68.57 190.81 68.63 C 194.26 69.74 196.02 73.05 198.69 75.21 C 199.63 74.91 201.50 74.30 202.43 73.99 C 201.92 74.58 200.89 75.76 200.38 76.35 C 200.08 76.31 199.48 76.22 199.18 76.18 C 202.32 81.50 205.54 86.85 207.23 92.85 C 207.17 93.38 207.04 94.45 206.97 94.98 C 206.26 93.97 205.56 92.95 204.81 91.97 C 204.06 91.44 203.31 90.92 202.55 90.41 C 202.06 89.34 201.60 88.27 201.08 87.22 C 199.72 85.94 198.26 84.78 196.86 83.55 C 192.99 79.42 190.00 74.57 186.14 70.42 C 185.79 69.99 185.09 69.12 184.74 68.69 Z" />
</g>
<g id="#3f5869ff">
<path fill="#3f5869" opacity="1.00" d=" M 139.12 73.76 C 139.56 72.86 140.05 71.98 140.57 71.11 C 140.38 72.03 140.20 72.95 140.05 73.87 C 141.31 74.54 142.58 75.20 143.82 75.91 C 146.27 77.43 148.29 79.52 150.15 81.70 C 158.08 91.32 163.70 102.54 169.03 113.74 C 169.57 115.18 170.05 116.65 170.57 118.11 C 171.30 120.15 172.09 122.16 172.81 124.21 C 173.60 126.57 174.24 128.99 174.76 131.43 C 175.36 135.07 176.54 139.39 174.01 142.59 L 173.18 143.40 C 172.95 145.10 172.78 146.81 172.60 148.52 L 171.92 149.10 C 172.13 147.61 172.32 146.11 172.59 144.63 C 174.28 138.52 173.02 132.11 171.38 126.14 C 170.83 124.35 170.21 122.59 169.61 120.82 C 165.74 108.89 159.73 97.74 152.73 87.37 C 149.74 83.52 146.77 79.54 142.76 76.67 C 141.90 75.99 141.03 75.32 140.16 74.66 C 139.17 74.74 138.23 74.61 137.34 74.25 C 137.79 74.13 138.67 73.88 139.12 73.76 Z" />
<path fill="#3f5869" opacity="1.00" d=" M 130.74 159.21 C 134.64 157.79 138.58 156.46 142.60 155.37 C 143.75 156.43 144.90 157.49 146.08 158.52 L 145.92 156.99 C 146.21 157.62 146.80 158.87 147.09 159.49 C 145.76 159.63 144.43 159.80 143.10 159.99 C 142.83 159.89 142.28 159.69 142.00 159.59 C 137.85 161.24 133.55 162.48 129.35 164.00 C 129.60 163.22 129.85 162.44 130.09 161.65 C 130.25 161.04 130.57 159.82 130.74 159.21 Z" />
</g>
<g id="#bffbffff">
<path fill="#bffbff" opacity="1.00" d=" M 183.55 75.56 C 184.39 73.84 185.26 72.12 186.14 70.42 C 190.00 74.57 192.99 79.42 196.86 83.55 C 195.51 86.60 197.96 89.17 199.33 91.66 C 197.11 92.60 195.93 90.65 194.72 89.17 C 194.31 89.15 193.51 89.12 193.11 89.10 C 192.22 90.25 191.38 91.44 190.54 92.62 C 187.65 86.80 184.19 81.25 180.13 76.17 C 181.27 75.99 182.41 75.78 183.55 75.56 Z" />
</g>
<g id="#dfffffff">
<path fill="#dfffff" opacity="1.00" d=" M 218.71 74.38 C 217.42 73.09 218.08 71.64 219.27 70.58 L 219.15 72.15 C 222.44 71.38 225.85 69.99 229.23 71.10 C 229.94 72.34 229.69 73.40 228.48 74.28 C 225.32 74.79 221.65 76.26 218.71 74.38 Z" />
</g>
<g id="#feffffff">
<path fill="#feffff" opacity="1.00" d=" M 118.88 74.14 C 124.95 73.25 131.87 69.87 137.34 74.25 C 138.23 74.61 139.17 74.74 140.16 74.66 C 141.03 75.32 141.90 75.99 142.76 76.67 C 141.89 77.41 141.02 78.15 140.15 78.89 C 136.10 77.03 131.70 75.67 127.20 76.30 C 125.70 76.40 124.20 76.56 122.71 76.76 C 122.29 76.86 121.47 77.04 121.05 77.13 C 120.32 76.14 119.59 75.14 118.88 74.14 Z" />
<path fill="#feffff" opacity="1.00" d=" M 130.05 99.25 C 131.83 100.46 133.74 101.48 135.65 102.48 C 134.31 103.06 133.01 103.69 131.70 104.34 C 131.39 103.64 130.77 102.25 130.45 101.56 C 130.35 100.98 130.15 99.82 130.05 99.25 Z" />
<path fill="#feffff" opacity="1.00" d=" M 135.20 104.24 C 135.62 104.03 136.46 103.60 136.89 103.38 C 140.56 104.84 143.91 107.02 147.22 109.16 C 146.74 109.47 145.78 110.09 145.30 110.39 C 141.75 108.06 137.78 104.23 133.29 106.75 L 132.37 105.94 C 133.32 105.38 134.25 104.80 135.20 104.24 Z" />
</g>
<g id="#f2a4b4ff">
<path fill="#f2a4b4" opacity="1.00" d=" M 28.23 76.44 C 28.93 75.13 29.60 73.80 30.32 72.51 C 31.06 77.06 33.32 81.29 33.29 85.98 C 33.54 95.38 36.71 104.33 38.25 113.53 C 38.12 114.11 37.85 115.26 37.72 115.84 C 34.71 110.92 30.40 106.98 26.41 102.90 C 21.65 100.28 19.76 94.99 17.36 90.47 C 18.63 88.78 19.91 87.11 21.10 85.36 C 24.69 85.93 26.29 81.44 29.91 81.45 C 29.78 79.66 30.44 77.20 28.23 76.44 Z" />
</g>
<g id="#b3ecfbff">
<path fill="#b3ecfb" opacity="1.00" d=" M 157.02 73.06 C 157.72 73.08 159.13 73.12 159.83 73.14 C 161.63 78.69 166.09 82.87 167.56 88.54 C 168.17 91.49 170.56 93.35 173.01 94.80 L 171.52 94.65 C 172.46 96.97 173.75 99.13 175.39 101.03 C 175.82 100.45 176.69 99.30 177.12 98.72 C 179.91 100.40 182.42 102.49 185.08 104.36 C 185.16 105.56 185.23 106.77 185.31 107.97 C 185.01 108.27 184.41 108.87 184.12 109.17 C 181.89 104.48 175.87 104.05 171.90 101.36 C 171.25 102.56 170.58 103.74 169.99 104.97 C 168.36 107.65 169.90 110.85 169.03 113.74 C 163.70 102.54 158.08 91.32 150.15 81.70 C 154.31 81.98 157.91 84.44 162.02 85.03 C 160.51 80.98 158.67 77.06 157.02 73.06 Z" />
</g>
<g id="#bcd7daf7">
<path fill="#bcd7da" opacity="0.97" d=" M 111.42 78.39 C 113.89 76.94 116.37 75.52 118.88 74.14 C 119.59 75.14 120.32 76.14 121.05 77.13 C 118.08 78.73 114.64 80.74 111.42 78.39 Z" />
</g>
<g id="#a7bfcbff">
<path fill="#a7bfcb" opacity="1.00" d=" M 121.05 77.13 C 121.47 77.04 122.29 76.86 122.71 76.76 L 123.96 76.79 C 121.17 78.59 118.29 80.24 115.26 81.60 C 115.50 81.94 115.98 82.63 116.22 82.98 L 114.67 83.18 C 112.13 83.91 110.27 81.62 108.35 80.40 C 109.33 79.66 110.37 79.02 111.42 78.39 C 114.64 80.74 118.08 78.73 121.05 77.13 Z" />
</g>
<g id="#b8e8f4ff">
<path fill="#b8e8f4" opacity="1.00" d=" M 127.20 76.30 C 131.70 75.67 136.10 77.03 140.15 78.89 C 141.02 78.15 141.89 77.41 142.76 76.67 C 146.77 79.54 149.74 83.52 152.73 87.37 C 159.73 97.74 165.74 108.89 169.61 120.82 C 168.95 120.65 167.64 120.32 166.99 120.15 C 166.93 121.93 166.86 123.70 166.80 125.48 C 164.73 125.51 162.66 125.58 160.60 125.64 C 158.43 125.60 156.13 125.84 154.11 124.92 C 150.12 121.22 148.75 115.16 143.58 112.66 C 145.00 111.87 146.38 111.01 147.80 110.22 C 149.08 111.19 150.40 112.15 151.95 112.66 C 148.17 107.44 142.55 104.18 136.89 101.40 C 137.20 100.81 137.82 99.61 138.13 99.02 C 136.02 94.83 134.17 90.44 131.25 86.73 C 129.76 84.58 126.76 84.71 124.99 82.89 C 125.16 80.93 125.39 78.98 125.68 77.04 C 126.06 76.86 126.82 76.48 127.20 76.30 Z" />
</g>
<g id="#3a5364ff">
<path fill="#3a5364" opacity="1.00" d=" M 178.97 76.29 C 179.26 76.26 179.84 76.20 180.13 76.17 C 184.19 81.25 187.65 86.80 190.54 92.62 C 191.57 94.75 192.58 96.89 193.47 99.08 C 194.37 101.41 195.21 103.77 195.93 106.17 C 196.43 107.89 196.82 109.64 197.21 111.39 C 198.71 111.07 200.20 110.67 201.70 110.34 C 201.71 110.89 201.73 111.98 201.74 112.53 C 200.51 112.80 199.27 113.07 198.05 113.35 C 198.00 114.82 197.94 116.29 197.94 117.77 C 196.93 116.90 196.75 115.46 196.21 114.30 C 196.10 113.91 195.89 113.12 195.78 112.73 C 194.32 106.22 192.65 99.70 189.61 93.72 C 186.98 87.37 182.82 81.89 178.97 76.29 Z" />
<path fill="#3a5364" opacity="1.00" d=" M 111.53 93.08 C 111.76 92.60 112.22 91.64 112.45 91.17 C 114.14 99.69 119.52 106.68 124.34 113.67 C 129.44 120.69 135.65 126.80 140.84 133.75 C 144.39 140.75 149.62 146.85 152.67 154.13 C 152.68 157.00 150.05 159.77 147.09 159.49 C 146.80 158.87 146.21 157.62 145.92 156.99 C 145.10 154.53 145.56 151.96 145.50 149.43 C 145.16 146.84 143.13 144.92 140.62 144.43 C 141.01 143.70 141.43 142.97 141.77 142.21 C 139.11 137.64 135.46 133.75 132.52 129.36 C 132.25 129.46 131.69 129.64 131.41 129.73 C 129.61 127.00 127.37 124.62 125.07 122.31 L 126.58 122.10 C 123.25 115.43 116.63 110.56 115.44 102.84 C 115.18 103.43 114.65 104.61 114.39 105.20 C 113.48 101.15 112.62 97.08 111.53 93.08 Z" />
</g>
<g id="#7c959fff">
<path fill="#7c959f" opacity="1.00" d=" M 199.18 76.18 C 199.48 76.22 200.08 76.31 200.38 76.35 C 202.88 80.12 205.26 83.99 207.04 88.16 C 207.56 89.32 208.10 90.46 208.74 91.56 C 210.27 91.79 210.92 89.92 212.03 89.19 C 212.63 90.35 213.22 91.53 213.83 92.69 C 212.14 93.87 210.47 95.06 208.83 96.30 C 208.31 95.14 207.75 94.01 207.23 92.85 C 205.54 86.85 202.32 81.50 199.18 76.18 Z" />
<path fill="#7c959f" opacity="1.00" d=" M 150.98 140.84 C 152.53 139.64 154.09 138.46 155.53 137.13 C 158.26 139.65 161.60 141.29 164.66 143.35 C 167.06 145.91 167.85 149.81 171.12 151.60 C 170.16 152.98 169.14 154.31 168.05 155.59 C 166.83 156.51 165.58 157.39 164.30 158.24 C 163.93 156.46 163.90 154.57 163.10 152.91 C 160.01 148.06 156.22 143.47 150.98 140.84 Z" />
</g>
<g id="#a8c9d2ff">
<path fill="#a8c9d2" opacity="1.00" d=" M 220.43 79.47 C 222.39 77.88 224.71 76.83 227.04 75.89 C 223.86 80.37 220.28 84.55 216.81 88.81 C 216.10 89.53 215.37 90.24 214.64 90.95 C 214.41 89.86 214.19 88.78 213.97 87.70 C 213.48 88.07 212.51 88.82 212.03 89.19 C 210.92 89.92 210.27 91.79 208.74 91.56 C 208.10 90.46 207.56 89.32 207.04 88.16 C 209.44 82.50 216.38 83.14 220.43 79.47 Z" />
</g>
<g id="#ffb3c4ff">
<path fill="#ffb3c4" opacity="1.00" d=" M 28.23 76.44 C 30.44 77.20 29.78 79.66 29.91 81.45 C 26.29 81.44 24.69 85.93 21.10 85.36 C 23.05 82.06 25.94 79.49 28.23 76.44 Z" />
</g>
<g id="#e5e9f4ff">
<path fill="#e5e9f4" opacity="1.00" d=" M 123.96 76.79 L 124.58 76.79 C 123.92 79.16 123.50 81.59 123.14 84.03 C 122.26 84.36 120.49 85.04 119.60 85.37 C 120.77 85.38 121.95 85.37 123.12 85.33 C 123.04 86.03 122.90 87.42 122.82 88.11 C 122.41 88.24 121.59 88.50 121.18 88.64 C 119.96 86.40 118.09 84.66 116.22 82.98 C 115.98 82.63 115.50 81.94 115.26 81.60 C 118.29 80.24 121.17 78.59 123.96 76.79 Z" />
</g>
<g id="#ffc8d9ff">
<path fill="#ffc8d9" opacity="1.00" d=" M 98.52 78.50 C 100.75 78.96 102.83 79.91 104.78 81.07 C 104.64 83.06 104.50 85.05 104.11 87.02 C 102.66 83.90 99.88 81.66 98.52 78.50 Z" />
</g>
<g id="#f5abbaff">
<path fill="#f5abba" opacity="1.00" d=" M 105.28 79.46 C 110.13 90.11 111.21 101.98 114.72 113.09 C 114.89 112.23 115.24 110.51 115.41 109.65 C 115.49 109.89 115.65 110.37 115.73 110.61 C 116.16 112.56 116.48 114.53 116.92 116.48 C 114.89 116.73 112.92 117.36 111.42 118.81 C 117.66 123.11 124.60 128.09 125.84 136.17 C 127.52 139.22 129.36 142.39 129.58 145.96 C 129.95 149.51 129.29 153.32 131.11 156.58 C 131.02 157.24 130.83 158.55 130.74 159.21 C 130.57 159.82 130.25 161.04 130.09 161.65 C 129.07 160.29 128.29 158.08 126.18 158.43 C 122.66 158.64 118.97 156.22 118.45 152.60 C 117.06 142.84 114.35 133.15 109.67 124.44 C 108.80 122.70 108.62 120.73 108.22 118.86 C 110.01 117.96 111.70 116.90 113.34 115.76 C 111.09 112.58 111.07 108.54 110.08 104.90 C 108.92 100.64 109.12 96.16 108.06 91.90 C 106.97 90.09 104.64 89.24 104.11 87.02 C 104.50 85.05 104.64 83.06 104.78 81.07 C 104.91 80.67 105.16 79.86 105.28 79.46 Z" />
</g>
<g id="#82afc2ff">
<path fill="#82afc2" opacity="1.00" d=" M 107.97 81.14 L 108.35 80.40 C 110.27 81.62 112.13 83.91 114.67 83.18 C 116.67 85.18 118.78 87.10 121.18 88.64 C 121.59 88.50 122.41 88.24 122.82 88.11 C 122.82 88.56 122.81 89.46 122.80 89.91 C 124.21 93.55 126.47 96.75 128.56 100.01 C 128.97 99.18 129.39 98.36 129.82 97.55 C 129.88 97.97 129.99 98.82 130.05 99.25 C 130.15 99.82 130.35 100.98 130.45 101.56 C 131.03 105.80 133.24 109.54 135.26 113.23 C 135.56 113.33 136.15 113.55 136.44 113.66 C 136.80 113.79 137.53 114.04 137.89 114.16 C 138.42 114.35 139.50 114.71 140.03 114.89 C 139.47 115.38 138.92 115.86 138.37 116.35 C 143.76 118.48 146.70 123.74 149.46 128.48 C 150.14 128.67 151.50 129.05 152.18 129.24 C 150.76 129.52 149.38 129.93 148.01 130.39 C 147.36 130.74 146.71 131.11 146.07 131.48 C 143.47 128.77 140.77 126.17 138.01 123.64 C 135.43 118.52 131.35 114.40 128.28 109.60 C 123.36 101.43 118.63 93.03 112.15 85.97 C 111.43 84.94 110.27 84.56 109.07 84.53 C 108.68 83.41 108.28 82.29 107.97 81.14 Z" />
</g>
<g id="#a1d7ebff">
<path fill="#a1d7eb" opacity="1.00" d=" M 124.57 88.36 C 124.71 86.53 124.82 84.71 124.99 82.89 C 126.76 84.71 129.76 84.58 131.25 86.73 C 134.17 90.44 136.02 94.83 138.13 99.02 C 137.82 99.61 137.20 100.81 136.89 101.40 C 135.23 100.49 133.58 99.58 131.92 98.67 C 132.20 97.77 132.49 96.87 132.78 95.98 C 132.35 96.12 131.49 96.41 131.07 96.56 C 130.34 93.51 129.05 90.60 126.67 88.46 C 126.98 88.23 127.59 87.76 127.89 87.53 C 126.78 87.80 125.67 88.07 124.57 88.36 Z" />
</g>
<g id="#5f8299ff">
<path fill="#5f8299" opacity="1.00" d=" M 109.07 84.53 C 110.27 84.56 111.43 84.94 112.15 85.97 C 118.63 93.03 123.36 101.43 128.28 109.60 C 131.35 114.40 135.43 118.52 138.01 123.64 C 139.21 127.42 142.09 130.23 144.10 133.55 C 144.14 134.15 144.20 135.36 144.24 135.97 C 143.12 135.21 141.97 134.49 140.84 133.75 C 135.65 126.80 129.44 120.69 124.34 113.67 C 119.52 106.68 114.14 99.69 112.45 91.17 C 112.22 91.64 111.76 92.60 111.53 93.08 C 110.73 90.22 109.96 87.36 109.07 84.53 Z" />
</g>
<g id="#8dbacfff">
<path fill="#8dbacf" opacity="1.00" d=" M 196.86 83.55 C 198.26 84.78 199.72 85.94 201.08 87.22 C 201.14 88.55 201.21 89.88 201.27 91.21 C 200.62 91.38 199.98 91.53 199.33 91.66 C 197.96 89.17 195.51 86.60 196.86 83.55 Z" />
</g>
<g id="#aee3f1ff">
<path fill="#aee3f1" opacity="1.00" d=" M 201.08 87.22 C 201.60 88.27 202.06 89.34 202.55 90.41 C 203.31 90.92 204.06 91.44 204.81 91.97 C 204.48 94.40 204.52 96.89 205.50 99.18 C 201.60 97.79 197.41 97.87 193.47 99.08 C 192.58 96.89 191.57 94.75 190.54 92.62 C 191.38 91.44 192.22 90.25 193.11 89.10 C 192.36 90.48 192.65 91.44 193.99 91.97 C 195.35 91.42 195.59 90.48 194.72 89.17 C 195.93 90.65 197.11 92.60 199.33 91.66 C 199.98 91.53 200.62 91.38 201.27 91.21 C 201.21 89.88 201.14 88.55 201.08 87.22 Z" />
</g>
<g id="#5e7e86ff">
<path fill="#5e7e86" opacity="1.00" d=" M 212.03 89.19 C 212.51 88.82 213.48 88.07 213.97 87.70 C 214.19 88.78 214.41 89.86 214.64 90.95 C 215.37 90.24 216.10 89.53 216.81 88.81 C 215.98 89.81 215.17 90.82 214.34 91.81 C 215.20 93.02 216.14 94.20 216.82 95.54 C 214.21 96.19 211.50 96.18 208.83 96.30 C 210.47 95.06 212.14 93.87 213.83 92.69 C 213.22 91.53 212.63 90.35 212.03 89.19 Z" />
<path fill="#5e7e86" opacity="1.00" d=" M 152.18 129.24 C 153.95 129.85 155.38 131.12 156.91 132.15 L 156.65 133.11 C 156.30 134.46 155.94 135.80 155.53 137.13 C 154.09 138.46 152.53 139.64 150.98 140.84 C 156.22 143.47 160.01 148.06 163.10 152.91 C 163.90 154.57 163.93 156.46 164.30 158.24 C 165.58 157.39 166.83 156.51 168.05 155.59 C 169.36 159.25 170.67 162.95 172.75 166.27 C 174.15 168.44 175.09 170.87 175.40 173.44 C 167.15 171.69 159.53 167.52 152.61 162.79 C 153.87 160.62 155.35 158.52 156.02 156.08 C 155.00 153.60 153.41 151.42 152.01 149.15 C 153.22 147.81 155.31 146.84 155.47 144.85 C 153.84 144.34 152.12 144.56 150.45 144.35 C 148.06 141.81 146.34 138.73 144.24 135.97 C 144.20 135.36 144.14 134.15 144.10 133.55 C 145.62 135.33 147.37 136.89 149.18 138.38 C 148.94 135.69 148.56 133.03 148.01 130.39 C 149.38 129.93 150.76 129.52 152.18 129.24 Z" />
</g>
<g id="#90c3daff">
<path fill="#90c3da" opacity="1.00" d=" M 122.80 89.91 C 124.12 89.53 125.47 89.16 126.67 88.46 C 129.05 90.60 130.34 93.51 131.07 96.56 C 130.76 96.80 130.13 97.30 129.82 97.55 C 129.39 98.36 128.97 99.18 128.56 100.01 C 126.47 96.75 124.21 93.55 122.80 89.91 Z" />
</g>
<g id="#8bbbcfff">
<path fill="#8bbbcf" opacity="1.00" d=" M 193.11 89.10 C 193.51 89.12 194.31 89.15 194.72 89.17 C 195.59 90.48 195.35 91.42 193.99 91.97 C 192.65 91.44 192.36 90.48 193.11 89.10 Z" />
</g>
<g id="#d594a4ff">
<path fill="#d594a4" opacity="1.00" d=" M 14.14 100.53 C 14.12 96.94 15.09 93.30 17.36 90.47 C 19.76 94.99 21.65 100.28 26.41 102.90 C 30.40 106.98 34.71 110.92 37.72 115.84 C 37.85 115.26 38.12 114.11 38.25 113.53 C 38.79 111.38 39.00 109.17 39.16 106.97 C 39.22 103.74 41.12 101.00 42.27 98.09 C 42.89 96.25 44.40 94.74 46.36 94.42 C 51.38 93.49 56.73 92.32 61.64 94.37 C 65.20 95.77 69.90 96.56 71.46 100.57 C 73.19 104.05 76.10 106.70 78.36 109.82 C 79.40 108.56 80.46 107.32 81.41 105.99 C 82.32 107.37 83.25 108.75 84.16 110.13 C 86.30 108.27 88.21 106.01 90.85 104.84 C 93.85 103.46 97.02 106.55 99.99 105.01 C 102.46 103.67 103.31 100.76 104.47 98.40 C 104.89 99.78 105.32 101.14 105.76 102.51 C 105.37 105.11 102.99 106.60 101.68 108.70 C 101.15 110.13 101.03 111.67 100.77 113.17 C 96.21 115.88 91.69 120.13 85.97 119.36 C 82.43 119.26 79.95 116.48 77.46 114.34 C 76.31 115.32 75.10 116.23 73.91 117.17 C 62.16 118.92 50.24 118.98 38.47 117.39 C 38.39 117.93 38.22 119.02 38.14 119.57 L 37.72 119.57 C 35.66 115.35 29.79 117.16 26.26 114.91 C 19.63 112.63 19.08 104.55 14.14 100.53 Z" />
</g>
<g id="#bed9dbff">
<path fill="#bed9db" opacity="1.00" d=" M 204.81 91.97 C 205.56 92.95 206.26 93.97 206.97 94.98 C 207.04 94.45 207.17 93.38 207.23 92.85 C 207.75 94.01 208.31 95.14 208.83 96.30 C 209.44 98.20 209.63 100.20 209.78 102.19 C 208.24 101.36 206.69 100.49 205.50 99.18 C 204.52 96.89 204.48 94.40 204.81 91.97 Z" />
</g>
<g id="#c7e9ebff">
<path fill="#c7e9eb" opacity="1.00" d=" M 186.03 94.19 C 186.98 94.68 187.93 95.17 188.88 95.66 C 189.07 95.17 189.43 94.20 189.61 93.72 C 192.65 99.70 194.32 106.22 195.78 112.73 C 195.54 113.39 195.05 114.69 194.81 115.35 C 193.95 113.27 193.17 111.15 192.53 109.00 C 191.56 110.79 190.50 112.52 189.37 114.22 C 189.17 113.38 188.78 111.69 188.58 110.84 C 188.68 108.83 186.88 108.39 185.31 107.97 C 185.23 106.77 185.16 105.56 185.08 104.36 C 185.49 104.19 186.32 103.87 186.73 103.71 C 186.12 100.57 185.92 97.38 186.03 94.19 Z" />
</g>
<g id="#85b2c8ff">
<path fill="#85b2c8" opacity="1.00" d=" M 171.52 94.65 L 173.01 94.80 C 174.71 95.71 176.02 97.15 177.12 98.72 C 176.69 99.30 175.82 100.45 175.39 101.03 C 173.75 99.13 172.46 96.97 171.52 94.65 Z" />
</g>
<g id="#d8889bff">
<path fill="#d8889b" opacity="1.00" d=" M 106.62 96.85 C 111.21 103.69 101.89 111.98 107.12 118.86 C 103.36 122.80 101.66 128.01 99.07 132.67 C 98.14 129.04 97.43 125.36 96.68 121.69 C 100.03 118.98 102.51 115.41 103.92 111.33 C 102.86 111.93 101.81 112.54 100.77 113.17 C 101.03 111.67 101.15 110.13 101.68 108.70 C 102.99 106.60 105.37 105.11 105.76 102.51 C 106.05 100.62 106.30 98.73 106.62 96.85 Z" />
</g>
<g id="#93b7c4ff">
<path fill="#93b7c4" opacity="1.00" d=" M 193.47 99.08 C 197.41 97.87 201.60 97.79 205.50 99.18 C 206.69 100.49 208.24 101.36 209.78 102.19 C 210.78 102.97 211.60 103.95 212.12 105.12 C 211.37 105.76 210.60 106.37 209.81 106.95 C 209.22 108.78 208.70 110.64 208.13 112.48 C 205.98 109.18 203.99 105.11 199.90 103.92 C 198.41 104.31 197.21 105.36 195.93 106.17 C 195.21 103.77 194.37 101.41 193.47 99.08 Z" />
</g>
<g id="#b87183ff">
<path fill="#b87183" opacity="1.00" d=" M 14.14 100.53 C 19.08 104.55 19.63 112.63 26.26 114.91 C 29.79 117.16 35.66 115.35 37.72 119.57 C 37.35 120.10 36.62 121.17 36.26 121.71 C 36.09 122.00 35.77 122.57 35.61 122.86 C 34.78 121.05 32.62 121.59 31.03 121.33 C 27.43 121.25 24.08 119.84 20.93 118.22 C 20.79 118.76 20.50 119.82 20.36 120.36 C 18.22 117.78 16.41 114.91 15.00 111.88 C 13.92 108.20 14.08 104.32 14.14 100.53 Z" />
</g>
<g id="#abdbe8ff">
<path fill="#abdbe8" opacity="1.00" d=" M 171.90 101.36 C 175.87 104.05 181.89 104.48 184.12 109.17 C 183.75 109.53 183.02 110.23 182.65 110.59 C 182.28 111.23 181.92 111.88 181.57 112.53 C 177.22 112.77 173.74 115.40 170.57 118.11 C 170.05 116.65 169.57 115.18 169.03 113.74 C 169.90 110.85 168.36 107.65 169.99 104.97 C 170.58 103.74 171.25 102.56 171.90 101.36 Z" />
</g>
<g id="#20384eff">
<path fill="#20384e" opacity="1.00" d=" M 114.39 105.20 C 114.65 104.61 115.18 103.43 115.44 102.84 C 116.63 110.56 123.25 115.43 126.58 122.10 L 125.07 122.31 C 121.60 118.70 119.21 114.22 115.73 110.61 C 115.65 110.37 115.49 109.89 115.41 109.65 C 115.03 108.18 114.70 106.69 114.39 105.20 Z" />
</g>
<g id="#708995ff">
<path fill="#708995" opacity="1.00" d=" M 195.93 106.17 C 197.21 105.36 198.41 104.31 199.90 103.92 C 203.99 105.11 205.98 109.18 208.13 112.48 C 206.01 115.63 202.89 118.16 199.03 118.72 C 198.76 118.48 198.22 118.00 197.94 117.77 C 197.94 116.29 198.00 114.82 198.05 113.35 C 199.27 113.07 200.51 112.80 201.74 112.53 C 201.73 111.98 201.71 110.89 201.70 110.34 C 200.20 110.67 198.71 111.07 197.21 111.39 C 196.82 109.64 196.43 107.89 195.93 106.17 Z" />
</g>
<g id="#c4c6c6ff">
<path fill="#c4c6c6" opacity="1.00" d=" M 133.29 106.75 C 137.78 104.23 141.75 108.06 145.30 110.39 C 142.98 111.93 140.45 113.09 137.89 114.16 C 137.53 114.04 136.80 113.79 136.44 113.66 C 135.51 111.30 134.51 108.97 133.29 106.75 Z" />
</g>
<g id="#7e9dafff">
<path fill="#7e9daf" opacity="1.00" d=" M 185.31 107.97 C 186.88 108.39 188.68 108.83 188.58 110.84 C 188.40 112.03 188.19 113.22 187.97 114.40 C 185.78 113.83 183.13 113.21 182.65 110.59 C 183.02 110.23 183.75 109.53 184.12 109.17 C 184.41 108.87 185.01 108.27 185.31 107.97 Z" />
</g>
<g id="#a2c6cfff">
<path fill="#a2c6cf" opacity="1.00" d=" M 189.37 114.22 C 190.50 112.52 191.56 110.79 192.53 109.00 C 193.17 111.15 193.95 113.27 194.81 115.35 C 195.05 114.69 195.54 113.39 195.78 112.73 C 195.89 113.12 196.10 113.91 196.21 114.30 C 196.26 117.06 196.81 119.81 196.69 122.58 C 192.97 120.60 188.81 120.11 184.67 120.18 C 180.20 117.58 176.17 121.69 172.81 124.21 C 172.09 122.16 171.30 120.15 170.57 118.11 C 173.74 115.40 177.22 112.77 181.57 112.53 C 181.92 111.88 182.28 111.23 182.65 110.59 C 183.13 113.21 185.78 113.83 187.97 114.40 C 188.19 113.22 188.40 112.03 188.58 110.84 C 188.78 111.69 189.17 113.38 189.37 114.22 Z" />
</g>
<g id="#be778aff">
<path fill="#be778a" opacity="1.00" d=" M 100.77 113.17 C 101.81 112.54 102.86 111.93 103.92 111.33 C 102.51 115.41 100.03 118.98 96.68 121.69 C 96.48 121.93 96.10 122.41 95.91 122.65 C 95.02 126.51 90.53 126.35 87.68 128.08 C 87.72 127.88 87.81 127.48 87.85 127.27 C 88.12 126.50 88.41 125.73 88.72 124.98 C 84.32 124.73 79.48 124.19 76.52 120.50 C 76.19 120.57 75.54 120.69 75.21 120.75 C 75.20 120.25 75.18 119.26 75.17 118.76 C 75.27 118.31 75.46 117.43 75.55 116.98 C 75.14 117.03 74.32 117.12 73.91 117.17 C 75.10 116.23 76.31 115.32 77.46 114.34 C 79.95 116.48 82.43 119.26 85.97 119.36 C 91.69 120.13 96.21 115.88 100.77 113.17 Z" />
</g>
<g id="#b94968ff">
<path fill="#b94968" opacity="1.00" d=" M 115.73 110.61 C 119.21 114.22 121.60 118.70 125.07 122.31 C 127.37 124.62 129.61 127.00 131.41 129.73 C 130.05 130.19 128.71 130.70 127.37 131.22 C 125.58 127.96 123.39 124.90 120.65 122.36 C 118.90 120.77 117.51 118.80 116.92 116.48 C 116.48 114.53 116.16 112.56 115.73 110.61 Z" />
</g>
<g id="#9dcbdaff">
<path fill="#9dcbda" opacity="1.00" d=" M 140.03 114.89 C 141.18 114.10 142.37 113.37 143.58 112.66 C 148.75 115.16 150.12 121.22 154.11 124.92 C 156.13 125.84 158.43 125.60 160.60 125.64 C 160.77 127.37 160.95 129.10 161.13 130.83 C 159.91 130.61 158.68 130.41 157.45 130.27 C 157.31 130.74 157.04 131.68 156.91 132.15 C 155.38 131.12 153.95 129.85 152.18 129.24 C 151.50 129.05 150.14 128.67 149.46 128.48 C 146.70 123.74 143.76 118.48 138.37 116.35 C 138.92 115.86 139.47 115.38 140.03 114.89 Z" />
</g>
<g id="#723646ff">
<path fill="#723646" opacity="1.00" d=" M 107.12 118.86 C 107.53 118.43 108.35 117.56 108.76 117.13 C 108.63 117.56 108.35 118.42 108.22 118.86 C 103.06 123.79 101.59 131.15 99.30 137.65 C 98.28 141.27 97.74 145.00 97.35 148.74 C 96.59 152.97 96.50 157.26 96.74 161.55 C 96.77 163.89 96.74 166.24 96.71 168.59 C 95.11 168.93 93.52 169.26 91.93 169.64 C 84.44 171.69 76.91 174.42 69.00 173.64 C 77.58 173.56 85.29 169.45 93.50 167.56 C 93.77 166.44 94.02 165.32 94.25 164.20 C 94.53 162.80 94.75 161.39 94.98 159.99 C 93.62 159.76 92.26 159.50 90.89 159.33 C 92.21 158.91 93.55 158.49 94.74 157.77 C 95.30 155.97 95.38 154.07 95.59 152.22 C 95.80 150.07 96.08 147.93 96.32 145.79 C 96.40 145.08 96.48 144.37 96.58 143.67 C 97.01 141.10 97.67 138.59 98.27 136.07 C 97.34 132.98 96.67 129.82 96.15 126.64 C 94.63 127.14 93.12 127.67 91.60 128.18 C 90.96 128.39 89.69 128.82 89.05 129.04 L 87.47 129.17 L 87.68 128.08 C 90.53 126.35 95.02 126.51 95.91 122.65 C 96.10 122.41 96.48 121.93 96.68 121.69 C 97.43 125.36 98.14 129.04 99.07 132.67 C 101.66 128.01 103.36 122.80 107.12 118.86 Z" />
</g>
<g id="#964c60ff">
<path fill="#964c60" opacity="1.00" d=" M 20.93 118.22 C 24.08 119.84 27.43 121.25 31.03 121.33 C 32.62 121.59 34.78 121.05 35.61 122.86 L 35.25 123.80 C 34.19 123.50 33.13 123.19 32.08 122.89 C 31.75 123.42 31.09 124.46 30.76 124.98 C 29.57 124.86 28.39 124.75 27.21 124.65 C 25.39 124.24 23.71 123.40 22.22 122.28 C 21.76 121.80 20.83 120.84 20.36 120.36 C 20.50 119.82 20.79 118.76 20.93 118.22 Z" />
</g>
<g id="#d9c4b6ff">
<path fill="#d9c4b6" opacity="1.00" d=" M 38.14 119.57 C 50.48 120.50 62.93 121.00 75.17 118.76 C 75.18 119.26 75.20 120.25 75.21 120.75 C 75.39 121.82 75.60 122.89 75.82 123.95 C 74.91 124.94 74.03 125.96 73.11 126.95 C 74.43 126.47 75.75 126.00 77.07 125.50 C 78.55 126.47 80.05 127.42 81.43 128.52 C 80.50 129.28 79.57 130.04 78.63 130.81 C 77.79 130.48 76.95 130.16 76.11 129.85 C 64.04 132.36 51.42 133.63 39.24 131.12 C 37.99 130.32 36.80 129.43 35.58 128.58 C 35.86 127.50 36.13 126.43 36.40 125.36 C 37.47 125.49 38.55 125.61 39.62 125.71 C 38.80 124.14 37.59 122.85 36.26 121.71 C 36.62 121.17 37.35 120.10 37.72 119.57 L 38.14 119.57 Z" />
</g>
<g id="#d791a3ff">
<path fill="#d791a3" opacity="1.00" d=" M 99.30 137.65 C 101.59 131.15 103.06 123.79 108.22 118.86 C 108.62 120.73 108.80 122.70 109.67 124.44 C 114.35 133.15 117.06 142.84 118.45 152.60 C 118.97 156.22 122.66 158.64 126.18 158.43 C 128.29 158.08 129.07 160.29 130.09 161.65 C 129.85 162.44 129.60 163.22 129.35 164.00 C 129.16 164.60 128.78 165.81 128.59 166.41 C 123.61 162.45 116.43 164.47 111.36 160.71 C 108.91 158.56 106.36 156.37 104.63 153.58 C 102.77 149.01 102.27 144.03 101.83 139.16 C 101.32 139.69 100.81 140.23 100.30 140.77 C 100.05 139.99 99.55 138.43 99.30 137.65 Z" />
</g>
<g id="#8ca5aeff">
<path fill="#8ca5ae" opacity="1.00" d=" M 172.81 124.21 C 176.17 121.69 180.20 117.58 184.67 120.18 C 188.98 122.82 192.83 126.09 196.81 129.18 C 199.16 130.90 200.13 133.74 201.12 136.35 C 197.59 136.98 194.00 136.88 190.44 136.76 C 188.36 134.10 186.94 130.84 184.36 128.61 C 180.97 126.64 177.75 130.15 174.76 131.43 C 174.24 128.99 173.60 126.57 172.81 124.21 Z" />
</g>
<g id="#9a4e63ff">
<path fill="#9a4e63" opacity="1.00" d=" M 75.21 120.75 C 75.54 120.69 76.19 120.57 76.52 120.50 C 79.48 124.19 84.32 124.73 88.72 124.98 C 88.41 125.73 88.12 126.50 87.85 127.27 C 87.81 127.48 87.72 127.88 87.68 128.08 L 87.47 129.17 C 86.25 128.79 85.05 128.36 83.85 127.94 C 83.32 128.61 82.82 129.29 82.32 129.98 C 82.10 129.61 81.66 128.89 81.43 128.52 C 80.05 127.42 78.55 126.47 77.07 125.50 C 75.75 126.00 74.43 126.47 73.11 126.95 C 74.03 125.96 74.91 124.94 75.82 123.95 C 75.60 122.89 75.39 121.82 75.21 120.75 Z" />
</g>
<g id="#b3d4dbff">
<path fill="#b3d4db" opacity="1.00" d=" M 166.99 120.15 C 167.64 120.32 168.95 120.65 169.61 120.82 C 170.21 122.59 170.83 124.35 171.38 126.14 C 169.65 128.86 170.47 132.11 170.74 135.09 C 167.68 133.39 164.56 131.68 161.13 130.83 C 160.95 129.10 160.77 127.37 160.60 125.64 C 162.66 125.58 164.73 125.51 166.80 125.48 C 166.86 123.70 166.93 121.93 166.99 120.15 Z" />
</g>
<g id="#a2babcff">
<path fill="#a2babc" opacity="1.00" d=" M 184.67 120.18 C 188.81 120.11 192.97 120.60 196.69 122.58 C 196.60 123.05 196.42 124.00 196.32 124.47 C 199.95 127.55 203.95 130.13 208.10 132.44 C 208.17 136.38 203.85 135.93 201.12 136.35 C 200.13 133.74 199.16 130.90 196.81 129.18 C 192.83 126.09 188.98 122.82 184.67 120.18 Z" />
</g>
<g id="#e298a9ff">
<path fill="#e298a9" opacity="1.00" d=" M 22.22 122.28 C 23.71 123.40 25.39 124.24 27.21 124.65 C 26.57 124.78 25.30 125.04 24.67 125.17 C 24.23 125.00 23.36 124.65 22.92 124.48 L 22.87 125.66 C 20.21 130.27 18.46 135.32 15.95 139.98 C 15.02 142.00 12.64 141.28 10.92 141.22 C 10.17 141.86 9.43 142.50 8.70 143.17 C 8.99 138.77 10.68 134.59 12.94 130.86 C 15.08 127.09 19.06 125.04 22.22 122.28 Z" />
</g>
<g id="#c7a1a3ff">
<path fill="#c7a1a3" opacity="1.00" d=" M 36.26 121.71 C 37.59 122.85 38.80 124.14 39.62 125.71 C 38.55 125.61 37.47 125.49 36.40 125.36 C 36.13 126.43 35.86 127.50 35.58 128.58 C 36.80 129.43 37.99 130.32 39.24 131.12 C 35.14 130.41 31.26 128.86 27.18 128.08 C 26.35 127.10 25.52 126.12 24.67 125.17 C 25.30 125.04 26.57 124.78 27.21 124.65 C 28.39 124.75 29.57 124.86 30.76 124.98 C 31.09 124.46 31.75 123.42 32.08 122.89 C 33.13 123.19 34.19 123.50 35.25 123.80 L 35.61 122.86 C 35.77 122.57 36.09 122.00 36.26 121.71 Z" />
</g>
<g id="#7595a4ff">
<path fill="#7595a4" opacity="1.00" d=" M 138.01 123.64 C 140.77 126.17 143.47 128.77 146.07 131.48 C 146.71 131.11 147.36 130.74 148.01 130.39 C 148.56 133.03 148.94 135.69 149.18 138.38 C 147.37 136.89 145.62 135.33 144.10 133.55 C 142.09 130.23 139.21 127.42 138.01 123.64 Z" />
</g>
<g id="#564838ff">
<path fill="#564838" opacity="1.00" d=" M 22.92 124.48 C 23.36 124.65 24.23 125.00 24.67 125.17 C 25.52 126.12 26.35 127.10 27.18 128.08 C 31.26 128.86 35.14 130.41 39.24 131.12 C 51.42 133.63 64.04 132.36 76.11 129.85 C 76.95 130.16 77.79 130.48 78.63 130.81 C 79.57 130.04 80.50 129.28 81.43 128.52 C 81.66 128.89 82.10 129.61 82.32 129.98 L 81.84 130.85 C 69.64 132.89 57.29 135.37 44.87 134.11 C 40.72 133.69 36.62 132.92 32.66 131.62 C 29.27 130.46 26.02 128.90 23.10 126.82 L 22.87 125.66 L 22.92 124.48 Z" />
</g>
<g id="#d38c9dff">
<path fill="#d38c9d" opacity="1.00" d=" M 15.95 139.98 C 18.46 135.32 20.21 130.27 22.87 125.66 L 23.10 126.82 C 23.60 129.13 23.64 131.50 23.67 133.85 C 23.65 135.28 23.61 136.71 23.58 138.14 C 21.09 141.39 21.21 146.27 17.79 148.81 C 14.66 150.05 11.54 147.55 8.33 147.42 C 8.37 146.00 8.51 144.58 8.70 143.17 C 9.43 142.50 10.17 141.86 10.92 141.22 C 12.64 141.28 15.02 142.00 15.95 139.98 Z" />
</g>
<g id="#bc9992ff">
<path fill="#bc9992" opacity="1.00" d=" M 23.10 126.82 C 26.02 128.90 29.27 130.46 32.66 131.62 C 32.74 133.67 33.83 135.43 35.00 137.03 C 38.23 141.49 41.15 146.34 45.68 149.63 C 44.37 150.12 43.06 150.62 41.75 151.12 C 37.96 150.27 34.35 148.74 31.03 146.72 C 30.47 146.29 29.92 145.85 29.38 145.39 C 25.59 142.75 24.29 138.19 23.67 133.85 C 23.64 131.50 23.60 129.13 23.10 126.82 Z" />
</g>
<g id="#d0b2a8ff">
<path fill="#d0b2a8" opacity="1.00" d=" M 91.60 128.18 C 93.12 127.67 94.63 127.14 96.15 126.64 C 96.67 129.82 97.34 132.98 98.27 136.07 C 97.67 138.59 97.01 141.10 96.58 143.67 C 79.01 149.32 60.33 155.18 41.75 151.12 C 43.06 150.62 44.37 150.12 45.68 149.63 C 41.15 146.34 38.23 141.49 35.00 137.03 C 33.83 135.43 32.74 133.67 32.66 131.62 C 36.62 132.92 40.72 133.69 44.87 134.11 C 44.76 134.47 44.54 135.19 44.43 135.55 C 46.98 137.46 49.62 139.29 52.57 140.54 C 58.08 142.94 63.56 145.88 69.65 146.41 C 72.95 146.34 75.94 144.47 78.27 142.26 C 81.03 139.69 84.08 137.46 86.80 134.85 C 86.73 133.97 86.66 133.10 86.59 132.23 C 88.69 131.40 90.79 130.58 92.88 129.74 C 92.56 129.35 91.92 128.57 91.60 128.18 Z" />
</g>
<g id="#a8c3c9ff">
<path fill="#a8c3c9" opacity="1.00" d=" M 170.74 135.09 C 170.47 132.11 169.65 128.86 171.38 126.14 C 173.02 132.11 174.28 138.52 172.59 144.63 C 170.90 142.54 169.69 140.13 168.06 138.01 C 164.53 135.82 160.48 134.66 156.65 133.11 L 156.91 132.15 C 157.04 131.68 157.31 130.74 157.45 130.27 C 158.68 130.41 159.91 130.61 161.13 130.83 C 164.56 131.68 167.68 133.39 170.74 135.09 Z" />
</g>
<g id="#bc949eff">
<path fill="#bc949e" opacity="1.00" d=" M 82.32 129.98 C 82.82 129.29 83.32 128.61 83.85 127.94 C 85.05 128.36 86.25 128.79 87.47 129.17 L 89.05 129.04 C 87.86 129.47 86.69 129.92 85.51 130.37 C 84.95 131.42 84.39 132.47 83.84 133.52 C 83.17 132.63 82.51 131.74 81.84 130.85 L 82.32 129.98 Z" />
</g>
<g id="#6a838eff">
<path fill="#6a838e" opacity="1.00" d=" M 174.76 131.43 C 177.75 130.15 180.97 126.64 184.36 128.61 C 186.94 130.84 188.36 134.10 190.44 136.76 C 188.19 138.42 186.07 140.26 183.64 141.64 C 180.66 143.18 177.21 142.46 174.01 142.59 C 176.54 139.39 175.36 135.07 174.76 131.43 Z" />
</g>
<g id="#d7c0b2ff">
<path fill="#d7c0b2" opacity="1.00" d=" M 89.05 129.04 C 89.69 128.82 90.96 128.39 91.60 128.18 C 91.92 128.57 92.56 129.35 92.88 129.74 C 90.79 130.58 88.69 131.40 86.59 132.23 C 86.66 133.10 86.73 133.97 86.80 134.85 C 84.08 137.46 81.03 139.69 78.27 142.26 C 75.94 144.47 72.95 146.34 69.65 146.41 C 63.56 145.88 58.08 142.94 52.57 140.54 C 49.62 139.29 46.98 137.46 44.43 135.55 C 44.54 135.19 44.76 134.47 44.87 134.11 C 57.29 135.37 69.64 132.89 81.84 130.85 C 82.51 131.74 83.17 132.63 83.84 133.52 C 84.39 132.47 84.95 131.42 85.51 130.37 C 86.69 129.92 87.86 129.47 89.05 129.04 Z" />
</g>
<g id="#96b0b8ff">
<path fill="#96b0b8" opacity="1.00" d=" M 156.65 133.11 C 160.48 134.66 164.53 135.82 168.06 138.01 C 169.69 140.13 170.90 142.54 172.59 144.63 C 172.32 146.11 172.13 147.61 171.92 149.10 C 171.72 149.72 171.32 150.98 171.12 151.60 C 167.85 149.81 167.06 145.91 164.66 143.35 C 161.60 141.29 158.26 139.65 155.53 137.13 C 155.94 135.80 156.30 134.46 156.65 133.11 Z" />
</g>
<g id="#4c6c78ff">
<path fill="#4c6c78" opacity="1.00" d=" M 140.84 133.75 C 141.97 134.49 143.12 135.21 144.24 135.97 C 146.34 138.73 148.06 141.81 150.45 144.35 C 152.12 144.56 153.84 144.34 155.47 144.85 C 155.31 146.84 153.22 147.81 152.01 149.15 C 153.41 151.42 155.00 153.60 156.02 156.08 C 155.35 158.52 153.87 160.62 152.61 162.79 C 151.98 162.98 150.72 163.37 150.09 163.56 C 147.63 162.63 145.23 161.54 143.10 159.99 C 144.43 159.80 145.76 159.63 147.09 159.49 C 150.05 159.77 152.68 157.00 152.67 154.13 C 149.62 146.85 144.39 140.75 140.84 133.75 Z" />
</g>
<g id="#c27c8fff">
<path fill="#c27c8f" opacity="1.00" d=" M 97.35 148.74 C 97.74 145.00 98.28 141.27 99.30 137.65 C 99.55 138.43 100.05 139.99 100.30 140.77 C 100.81 140.23 101.32 139.69 101.83 139.16 C 102.27 144.03 102.77 149.01 104.63 153.58 C 106.36 156.37 108.91 158.56 111.36 160.71 C 116.43 164.47 123.61 162.45 128.59 166.41 C 128.03 167.78 127.39 169.12 126.71 170.43 L 125.67 169.56 C 125.32 169.26 124.61 168.67 124.26 168.37 C 119.90 167.35 115.13 168.00 111.03 165.98 C 106.68 163.08 102.00 159.88 100.14 154.74 C 99.47 154.61 98.80 154.48 98.13 154.35 C 97.86 152.48 97.57 150.61 97.35 148.74 Z" />
</g>
<g id="#c0798cff">
<path fill="#c0798c" opacity="1.00" d=" M 23.58 138.14 C 25.56 143.61 26.33 149.58 29.50 154.58 C 29.19 155.90 28.87 157.22 28.56 158.55 C 22.40 160.78 16.26 158.35 10.18 157.23 C 9.23 154.03 8.72 150.73 8.33 147.42 C 11.54 147.55 14.66 150.05 17.79 148.81 C 21.21 146.27 21.09 141.39 23.58 138.14 Z" />
</g>
<g id="#ac8281ff">
<path fill="#ac8281" opacity="1.00" d=" M 26.41 145.08 C 27.40 145.18 28.39 145.28 29.38 145.39 C 29.92 145.85 30.47 146.29 31.03 146.72 L 29.59 147.15 C 32.22 150.31 36.50 151.14 40.14 152.64 C 39.60 152.76 38.52 152.99 37.99 153.11 C 41.25 155.89 44.67 158.59 48.67 160.24 C 50.97 161.28 54.37 162.23 53.53 165.49 C 49.86 165.01 46.34 163.84 42.74 163.06 C 52.13 168.94 63.97 167.80 74.27 165.34 C 81.06 163.86 87.51 160.92 94.49 160.34 C 94.43 161.30 94.31 163.23 94.25 164.20 C 94.02 165.32 93.77 166.44 93.50 167.56 C 85.29 169.45 77.58 173.56 69.00 173.64 C 76.91 174.42 84.44 171.69 91.93 169.64 C 92.49 169.96 93.60 170.60 94.16 170.91 C 83.01 175.33 70.30 177.37 58.78 173.11 C 54.99 171.49 51.14 170.02 47.43 168.22 C 44.20 166.19 40.68 164.61 37.68 162.24 C 32.67 157.48 28.56 151.69 26.41 145.08 Z" />
</g>
<g id="#c5a59dff">
<path fill="#c5a59d" opacity="1.00" d=" M 49.05 154.18 C 65.27 155.48 80.96 150.24 96.32 145.79 C 96.08 147.93 95.80 150.07 95.59 152.22 C 94.94 151.96 93.65 151.43 93.00 151.17 C 86.64 154.30 80.34 157.83 73.39 159.44 C 64.47 161.29 55.66 158.15 47.24 155.55 C 47.84 155.09 48.44 154.64 49.05 154.18 Z" />
</g>
<g id="#a96175ff">
<path fill="#a96175" opacity="1.00" d=" M 96.74 161.55 C 96.50 157.26 96.59 152.97 97.35 148.74 C 97.57 150.61 97.86 152.48 98.13 154.35 C 98.80 154.48 99.47 154.61 100.14 154.74 C 102.00 159.88 106.68 163.08 111.03 165.98 C 115.13 168.00 119.90 167.35 124.26 168.37 C 124.61 168.67 125.32 169.26 125.67 169.56 C 122.59 170.96 119.98 173.17 116.92 174.58 C 113.36 175.72 109.56 175.45 105.89 175.90 C 108.83 174.82 111.63 173.35 114.14 171.45 C 111.02 170.42 107.70 169.78 104.87 168.07 C 102.18 165.85 100.01 162.97 96.74 161.55 Z" />
</g>
<g id="#b99490ff">
<path fill="#b99490" opacity="1.00" d=" M 73.39 159.44 C 80.34 157.83 86.64 154.30 93.00 151.17 C 93.65 151.43 94.94 151.96 95.59 152.22 C 95.38 154.07 95.30 155.97 94.74 157.77 C 93.55 158.49 92.21 158.91 90.89 159.33 C 78.71 162.59 66.37 167.23 53.53 165.49 C 54.37 162.23 50.97 161.28 48.67 160.24 C 44.67 158.59 41.25 155.89 37.99 153.11 C 38.52 152.99 39.60 152.76 40.14 152.64 C 43.09 153.28 46.05 153.84 49.05 154.18 C 48.44 154.64 47.84 155.09 47.24 155.55 C 55.66 158.15 64.47 161.29 73.39 159.44 Z" />
</g>
<g id="#a75e73ff">
<path fill="#a75e73" opacity="1.00" d=" M 29.50 154.58 C 31.05 156.53 32.67 158.45 33.93 160.61 C 34.34 162.39 34.86 164.15 35.56 165.84 C 29.40 165.82 23.24 165.95 17.10 165.45 C 16.96 165.89 16.67 166.76 16.53 167.20 C 13.94 164.22 11.51 160.99 10.18 157.23 C 16.26 158.35 22.40 160.78 28.56 158.55 C 28.87 157.22 29.19 155.90 29.50 154.58 Z" />
</g>
<g id="#96495fff">
<path fill="#96495f" opacity="1.00" d=" M 33.93 160.61 C 37.18 165.05 42.27 167.60 47.48 168.94 C 47.50 169.27 47.54 169.92 47.56 170.25 L 46.71 171.21 C 43.29 171.64 39.79 172.37 36.38 171.56 C 30.91 170.35 25.12 168.45 19.60 170.48 L 19.53 170.45 C 18.51 169.39 17.50 168.31 16.53 167.20 C 16.67 166.76 16.96 165.89 17.10 165.45 C 23.24 165.95 29.40 165.82 35.56 165.84 C 34.86 164.15 34.34 162.39 33.93 160.61 Z" />
</g>
<g id="#94485dff">
<path fill="#94485d" opacity="1.00" d=" M 96.74 161.55 C 100.01 162.97 102.18 165.85 104.87 168.07 C 107.70 169.78 111.02 170.42 114.14 171.45 C 111.63 173.35 108.83 174.82 105.89 175.90 C 104.39 176.15 102.90 176.39 101.40 176.62 C 101.80 176.15 102.60 175.22 103.00 174.75 C 100.91 173.19 98.78 171.68 96.84 169.94 C 95.94 170.25 95.05 170.58 94.16 170.91 C 93.60 170.60 92.49 169.96 91.93 169.64 C 93.52 169.26 95.11 168.93 96.71 168.59 C 96.74 166.24 96.77 163.89 96.74 161.55 Z" />
</g>
<g id="#b45d79ff">
<path fill="#b45d79" opacity="1.00" d=" M 19.60 170.48 C 25.12 168.45 30.91 170.35 36.38 171.56 C 39.79 172.37 43.29 171.64 46.71 171.21 C 45.61 172.27 44.83 174.10 43.00 173.91 C 35.08 174.58 27.08 172.96 19.60 170.48 Z" />
</g>
<g id="#db7f97ff">
<path fill="#db7f97" opacity="1.00" d=" M 116.92 174.58 C 119.98 173.17 122.59 170.96 125.67 169.56 L 126.71 170.43 C 126.41 170.87 125.83 171.75 125.53 172.19 C 124.18 173.54 122.73 174.78 121.27 176.01 C 121.48 176.61 121.90 177.82 122.11 178.43 C 121.68 178.55 120.83 178.80 120.41 178.92 C 119.67 179.16 118.93 179.40 118.19 179.65 C 115.96 176.31 111.85 177.15 108.50 177.78 C 106.37 178.41 103.99 178.80 102.30 180.36 C 100.80 181.92 101.89 184.27 101.84 186.16 C 101.34 185.90 100.34 185.38 99.84 185.11 C 99.13 182.19 99.12 178.89 101.40 176.62 C 102.90 176.39 104.39 176.15 105.89 175.90 C 109.56 175.45 113.36 175.72 116.92 174.58 Z" />
</g>
<g id="#eac1ccff">
<path fill="#eac1cc" opacity="1.00" d=" M 1.64 181.68 C 5.38 176.39 11.39 173.32 17.37 171.25 C 15.92 172.84 13.17 174.15 13.70 176.68 C 12.72 177.04 11.75 177.40 10.76 177.75 C 10.58 178.62 10.41 179.50 10.22 180.38 C 7.49 181.46 4.58 182.07 1.64 181.68 Z" />
</g>
<g id="#ce6e89ff">
<path fill="#ce6e89" opacity="1.00" d=" M 17.37 171.25 C 17.91 171.05 18.99 170.65 19.53 170.45 L 19.60 170.48 C 27.08 172.96 35.08 174.58 43.00 173.91 C 44.83 174.10 45.61 172.27 46.71 171.21 L 47.56 170.25 C 47.59 170.55 47.65 171.17 47.68 171.47 C 47.76 173.31 47.71 175.16 47.69 177.00 C 43.52 178.19 39.21 177.21 35.00 176.83 C 31.11 176.38 27.91 173.73 24.05 173.16 C 23.03 173.45 22.15 174.07 21.27 174.65 C 19.73 175.88 18.19 177.12 16.69 178.40 C 15.69 177.83 14.69 177.26 13.70 176.68 C 13.17 174.15 15.92 172.84 17.37 171.25 Z" />
</g>
<g id="#d88198ff">
<path fill="#d88198" opacity="1.00" d=" M 47.69 177.00 C 47.71 175.16 47.76 173.31 47.68 171.47 C 49.78 174.15 51.25 177.45 50.30 180.89 C 43.02 179.05 35.53 180.91 28.30 182.12 C 28.02 178.19 24.52 176.06 21.27 174.65 C 22.15 174.07 23.03 173.45 24.05 173.16 C 27.91 173.73 31.11 176.38 35.00 176.83 C 39.21 177.21 43.52 178.19 47.69 177.00 Z" />
</g>
<g id="#ffa6b7ff">
<path fill="#ffa6b7" opacity="1.00" d=" M 121.27 176.01 C 122.73 174.78 124.18 173.54 125.53 172.19 C 126.65 173.38 127.75 174.59 128.79 175.85 C 127.15 178.00 124.63 178.36 122.11 178.43 C 121.90 177.82 121.48 176.61 121.27 176.01 Z" />
</g>
<g id="#e4c1cbff">
<path fill="#e4c1cb" opacity="1.00" d=" M 21.27 174.65 C 24.52 176.06 28.02 178.19 28.30 182.12 L 27.98 183.42 C 23.35 183.58 18.71 184.21 14.07 183.79 C 13.69 183.51 12.92 182.97 12.54 182.69 C 12.89 182.55 13.58 182.27 13.93 182.13 C 14.85 180.89 15.70 179.59 16.69 178.40 C 18.19 177.12 19.73 175.88 21.27 174.65 Z" />
</g>
<g id="#f6d3dcff">
<path fill="#f6d3dc" opacity="1.00" d=" M 128.79 175.85 C 130.02 177.27 130.68 179.04 131.14 180.83 C 131.02 181.21 130.76 181.96 130.64 182.34 C 129.44 181.52 128.21 180.77 127.02 179.97 C 126.55 181.65 126.09 183.32 125.63 185.00 C 126.56 185.15 128.42 185.45 129.35 185.59 C 128.25 186.30 127.16 187.02 126.07 187.73 C 125.33 187.69 123.85 187.60 123.11 187.56 C 121.33 185.01 120.05 182.10 120.41 178.92 C 120.83 178.80 121.68 178.55 122.11 178.43 C 124.63 178.36 127.15 178.00 128.79 175.85 Z" />
</g>
<g id="#d8b1beff">
<path fill="#d8b1be" opacity="1.00" d=" M 10.76 177.75 C 11.75 177.40 12.72 177.04 13.70 176.68 C 14.69 177.26 15.69 177.83 16.69 178.40 C 15.70 179.59 14.85 180.89 13.93 182.13 C 13.58 182.27 12.89 182.55 12.54 182.69 C 8.36 182.92 4.17 183.99 0.00 183.06 L 0.00 182.08 L 0.64 183.06 C 0.89 182.71 1.39 182.03 1.64 181.68 C 4.58 182.07 7.49 181.46 10.22 180.38 C 10.41 179.50 10.58 178.62 10.76 177.75 Z" />
</g>
<g id="#bc6b82ff">
<path fill="#bc6b82" opacity="1.00" d=" M 108.50 177.78 C 111.85 177.15 115.96 176.31 118.19 179.65 C 116.99 181.75 117.20 184.11 117.76 186.36 C 116.15 186.26 114.53 186.29 112.93 186.44 C 113.44 185.22 113.96 184.00 114.49 182.78 C 112.89 180.67 110.80 179.05 108.50 177.78 Z" />
</g>
<g id="#edc6d1ff">
<path fill="#edc6d1" opacity="1.00" d=" M 102.30 180.36 C 103.99 178.80 106.37 178.41 108.50 177.78 C 110.80 179.05 112.89 180.67 114.49 182.78 C 113.96 184.00 113.44 185.22 112.93 186.44 C 109.34 187.73 105.24 188.33 101.84 186.16 C 101.89 184.27 100.80 181.92 102.30 180.36 Z" />
</g>
<g id="#cba3b2ff">
<path fill="#cba3b2" opacity="1.00" d=" M 118.19 179.65 C 118.93 179.40 119.67 179.16 120.41 178.92 C 120.05 182.10 121.33 185.01 123.11 187.56 C 121.29 187.33 119.53 186.81 117.76 186.36 C 117.20 184.11 116.99 181.75 118.19 179.65 Z" />
</g>
<g id="#bd7184ff">
<path fill="#bd7184" opacity="1.00" d=" M 28.30 182.12 C 35.53 180.91 43.02 179.05 50.30 180.89 C 47.56 182.68 44.16 182.24 41.07 182.63 C 36.70 182.82 32.36 183.49 27.98 183.42 L 28.30 182.12 Z" />
</g>
<g id="#fff7f9ff">
<path fill="#fff7f9" opacity="1.00" d=" M 127.02 179.97 C 128.21 180.77 129.44 181.52 130.64 182.34 C 130.21 183.42 129.78 184.51 129.35 185.59 C 128.42 185.45 126.56 185.15 125.63 185.00 C 126.09 183.32 126.55 181.65 127.02 179.97 Z" />
</g>
</svg>
