<?xml version="1.0" encoding="UTF-8" ?>
<!DOCTYPE svg PUBLIC "-//W3C//DTD SVG 1.1//EN" "http://www.w3.org/Graphics/SVG/1.1/DTD/svg11.dtd">
<svg width="181pt" height="116pt" viewBox="0 0 181 116" version="1.1" xmlns="http://www.w3.org/2000/svg">
<g id="#353337f5">
<path fill="#353337" opacity="0.96" d=" M 84.26 9.19 C 86.98 7.54 90.42 8.05 93.23 9.27 C 90.28 11.08 85.00 14.98 82.59 10.85 C 83.01 10.43 83.84 9.60 84.26 9.19 Z" />
</g>
<g id="#484848c9">
<path fill="#484848" opacity="0.79" d=" M 95.06 9.46 C 96.29 8.54 99.29 6.67 99.98 8.98 C 99.51 9.30 98.56 9.92 98.09 10.24 C 97.05 10.06 96.04 9.80 95.06 9.46 Z" />
</g>
<g id="#e6e6e6f8">
<path fill="#e6e6e6" opacity="0.97" d=" M 75.21 14.23 C 75.97 10.74 80.98 8.93 84.26 9.19 C 83.84 9.60 83.01 10.43 82.59 10.85 C 79.85 11.27 77.58 12.92 75.21 14.23 Z" />
</g>
<g id="#898b93fe">
<path fill="#898b93" opacity="1.00" d=" M 93.23 9.27 C 93.68 9.32 94.60 9.41 95.06 9.46 C 96.04 9.80 97.05 10.06 98.09 10.24 C 96.84 10.92 95.38 10.93 94.02 11.22 C 95.28 12.29 97.21 12.97 97.15 14.93 C 91.10 15.09 85.05 14.94 79.00 15.02 C 78.04 14.60 74.32 15.92 75.21 14.23 C 77.58 12.92 79.85 11.27 82.59 10.85 C 85.00 14.98 90.28 11.08 93.23 9.27 Z" />
</g>
<g id="#66666cfe">
<path fill="#66666c" opacity="1.00" d=" M 98.09 10.24 C 98.56 9.92 99.51 9.30 99.98 8.98 L 100.79 8.86 C 98.88 11.68 104.07 11.78 102.94 14.71 C 101.56 15.07 100.16 15.37 98.78 15.73 C 97.28 15.92 95.77 16.06 94.27 16.23 C 91.21 16.14 88.17 15.98 85.11 15.99 C 83.58 15.75 80.53 15.26 79.00 15.02 C 85.05 14.94 91.10 15.09 97.15 14.93 C 97.21 12.97 95.28 12.29 94.02 11.22 C 95.38 10.93 96.84 10.92 98.09 10.24 Z" />
</g>
<g id="#474546ed">
<path fill="#474546" opacity="0.93" d=" M 100.79 8.86 C 103.15 10.44 108.07 10.94 106.92 14.78 C 104.28 15.55 101.56 16.42 98.78 15.73 C 100.16 15.37 101.56 15.07 102.94 14.71 C 104.07 11.78 98.88 11.68 100.79 8.86 Z" />
</g>
<g id="#424144fb">
<path fill="#424144" opacity="1.00" d=" M 85.11 15.99 C 88.17 15.98 91.21 16.14 94.27 16.23 C 92.89 17.25 91.36 18.03 89.86 18.85 C 91.22 18.91 92.59 18.99 93.95 19.08 C 94.65 21.11 87.42 19.20 91.14 20.86 C 93.25 20.64 93.84 23.85 91.27 22.71 C 89.60 22.18 87.86 21.99 86.11 21.98 C 83.40 21.76 86.98 17.75 85.11 15.99 Z" />
</g>
<g id="#282527f2">
<path fill="#282527" opacity="0.95" d=" M 94.27 16.23 C 95.77 16.06 97.28 15.92 98.78 15.73 C 98.44 17.26 97.59 18.59 97.09 20.06 C 98.81 25.96 95.16 32.39 97.94 38.10 C 97.51 38.13 96.64 38.21 96.20 38.24 C 94.40 38.17 92.60 38.07 90.81 37.89 C 91.84 37.08 93.14 36.76 94.30 36.20 C 92.73 36.14 89.60 36.02 88.03 35.96 C 87.72 33.97 91.04 35.39 92.22 34.86 C 93.45 34.84 94.78 34.91 95.79 34.08 C 95.01 32.52 94.48 30.44 92.26 31.20 C 91.06 30.91 89.88 30.57 88.71 30.18 C 89.59 30.10 91.34 29.95 92.22 29.88 C 95.42 30.34 93.66 24.81 90.86 25.29 C 94.67 24.10 93.72 23.68 88.01 24.03 C 84.88 23.12 90.14 22.61 91.27 22.71 C 93.84 23.85 93.25 20.64 91.14 20.86 C 87.42 19.20 94.65 21.11 93.95 19.08 C 92.59 18.99 91.22 18.91 89.86 18.85 C 91.36 18.03 92.89 17.25 94.27 16.23 Z" />
</g>
<g id="#565659fe">
<path fill="#565659" opacity="1.00" d=" M 86.11 21.98 C 87.86 21.99 89.60 22.18 91.27 22.71 C 90.14 22.61 84.88 23.12 88.01 24.03 C 93.72 23.68 94.67 24.10 90.86 25.29 C 88.88 25.49 86.88 25.57 84.91 25.84 C 85.22 24.53 85.69 23.26 86.11 21.98 Z" />
</g>
<g id="#3a383bfa">
<path fill="#3a383b" opacity="0.98" d=" M 84.91 25.84 C 86.88 25.57 88.88 25.49 90.86 25.29 C 93.66 24.81 95.42 30.34 92.22 29.88 C 90.86 29.63 88.14 29.12 86.78 28.87 C 87.75 27.99 89.29 28.08 90.16 27.06 C 88.81 27.00 87.47 26.97 86.12 26.98 C 85.82 26.69 85.21 26.13 84.91 25.84 Z" />
</g>
<g id="#5e5e60ff">
<path fill="#5e5e60" opacity="1.00" d=" M 86.12 26.98 C 87.47 26.97 88.81 27.00 90.16 27.06 C 89.29 28.08 87.75 27.99 86.78 28.87 C 88.14 29.12 90.86 29.63 92.22 29.88 C 91.34 29.95 89.59 30.10 88.71 30.18 C 87.72 30.22 86.75 30.38 85.80 30.67 C 83.86 31.36 86.16 27.95 86.12 26.98 Z" />
</g>
<g id="#4e4e51fc">
<path fill="#4e4e51" opacity="1.00" d=" M 85.80 30.67 C 86.75 30.38 87.72 30.22 88.71 30.18 C 89.88 30.57 91.06 30.91 92.26 31.20 C 90.90 33.01 88.45 32.66 86.75 33.85 C 88.12 34.10 90.85 34.61 92.22 34.86 C 91.04 35.39 87.72 33.97 88.03 35.96 C 89.60 36.02 92.73 36.14 94.30 36.20 C 93.14 36.76 91.84 37.08 90.81 37.89 C 92.60 38.07 94.40 38.17 96.20 38.24 C 92.80 39.01 89.45 38.39 86.08 38.00 L 85.22 37.90 C 85.39 35.49 85.64 33.09 85.80 30.67 Z" />
</g>
<g id="#373336ff">
<path fill="#373336" opacity="1.00" d=" M 92.26 31.20 C 94.48 30.44 95.01 32.52 95.79 34.08 C 94.78 34.91 93.45 34.84 92.22 34.86 C 90.85 34.61 88.12 34.10 86.75 33.85 C 88.45 32.66 90.90 33.01 92.26 31.20 Z" />
</g>
<g id="#cae0ddf4">
<path fill="#cae0dd" opacity="0.96" d=" M 81.98 38.90 C 82.30 37.83 83.38 37.50 85.22 37.90 L 86.08 38.00 C 86.93 39.34 87.14 40.41 85.11 40.19 C 84.62 40.07 83.65 39.85 83.16 39.74 C 82.86 39.53 82.28 39.11 81.98 38.90 Z" />
</g>
<g id="#9bb0aef7">
<path fill="#9bb0ae" opacity="0.97" d=" M 86.08 38.00 C 89.45 38.39 92.80 39.01 96.20 38.24 C 96.64 38.21 97.51 38.13 97.94 38.10 C 101.24 37.98 104.41 39.88 107.18 41.50 C 105.16 41.59 103.20 41.01 101.22 40.74 C 95.84 39.35 90.35 40.12 85.00 41.10 L 85.11 40.19 C 87.14 40.41 86.93 39.34 86.08 38.00 Z" />
</g>
<g id="#e3efeefa">
<path fill="#e3efee" opacity="0.98" d=" M 58.77 57.12 C 63.48 48.34 71.96 40.42 81.98 38.90 C 82.28 39.11 82.86 39.53 83.16 39.74 C 79.46 41.22 75.71 42.96 72.89 45.85 C 71.90 46.48 70.90 47.10 69.91 47.75 C 67.74 48.52 66.08 50.16 64.98 52.15 C 62.79 55.46 60.58 58.91 59.72 62.84 C 58.42 66.04 57.17 69.31 56.77 72.76 C 56.31 74.92 55.83 77.06 55.32 79.20 C 55.20 77.79 55.08 76.37 54.96 74.96 C 54.29 68.78 55.94 62.56 58.77 57.12 Z" />
</g>
<g id="#adcac8fe">
<path fill="#adcac8" opacity="1.00" d=" M 72.89 45.85 C 75.71 42.96 79.46 41.22 83.16 39.74 C 83.65 39.85 84.62 40.07 85.11 40.19 L 85.00 41.10 C 84.53 41.32 83.59 41.77 83.12 41.99 C 79.66 42.18 77.06 44.71 74.00 46.03 L 72.89 45.85 Z" />
</g>
<g id="#7d939fff">
<path fill="#7d939f" opacity="1.00" d=" M 85.00 41.10 C 90.35 40.12 95.84 39.35 101.22 40.74 C 96.40 40.59 91.63 41.16 86.94 42.23 C 90.29 45.99 97.80 44.50 99.99 50.00 C 104.39 54.28 102.26 60.26 99.79 64.80 C 97.94 66.30 96.52 69.60 93.69 68.41 C 93.01 67.41 92.38 66.40 91.76 65.38 L 92.73 65.57 C 95.06 66.54 97.22 65.49 98.01 62.99 C 102.17 57.83 99.30 48.95 93.02 47.01 C 88.93 45.13 84.37 45.27 79.99 44.89 C 81.03 43.92 82.11 42.99 83.12 41.99 C 83.59 41.77 84.53 41.32 85.00 41.10 Z" />
</g>
<g id="#758792ff">
<path fill="#758792" opacity="1.00" d=" M 86.94 42.23 C 91.63 41.16 96.40 40.59 101.22 40.74 C 103.20 41.01 105.16 41.59 107.18 41.50 C 107.68 41.72 108.68 42.16 109.19 42.38 C 105.07 42.63 100.99 42.09 96.89 42.06 C 97.94 45.80 101.92 47.85 103.59 51.37 C 106.23 55.35 104.01 59.79 102.64 63.78 C 101.10 66.74 98.99 72.71 94.73 70.21 C 94.47 69.76 93.95 68.86 93.69 68.41 C 96.52 69.60 97.94 66.30 99.79 64.80 C 102.26 60.26 104.39 54.28 99.99 50.00 C 97.80 44.50 90.29 45.99 86.94 42.23 Z" />
</g>
<g id="#869eadff">
<path fill="#869ead" opacity="1.00" d=" M 74.00 46.03 C 77.06 44.71 79.66 42.18 83.12 41.99 C 82.11 42.99 81.03 43.92 79.99 44.89 C 84.37 45.27 88.93 45.13 93.02 47.01 C 99.30 48.95 102.17 57.83 98.01 62.99 C 97.22 65.49 95.06 66.54 92.73 65.57 C 96.06 62.39 99.81 57.02 96.43 52.62 C 93.14 47.91 86.21 45.85 80.70 47.53 C 76.98 48.31 73.63 50.23 69.93 51.06 C 71.19 49.31 72.66 47.72 74.00 46.03 Z" />
</g>
<g id="#6b7a83fe">
<path fill="#6b7a83" opacity="1.00" d=" M 96.89 42.06 C 100.99 42.09 105.07 42.63 109.19 42.38 C 110.46 42.33 111.15 43.81 112.16 44.39 C 111.65 44.44 110.62 44.54 110.10 44.60 C 107.77 44.30 105.43 44.08 103.08 43.94 C 104.43 48.58 107.59 52.80 106.78 57.90 C 105.69 63.86 103.24 69.68 99.29 74.32 C 98.50 75.67 96.99 74.33 96.02 74.01 C 95.67 72.94 95.31 71.87 94.92 70.81 L 94.73 70.21 C 98.99 72.71 101.10 66.74 102.64 63.78 C 104.01 59.79 106.23 55.35 103.59 51.37 C 101.92 47.85 97.94 45.80 96.89 42.06 Z" />
</g>
<g id="#b1544bfa">
<path fill="#b1544b" opacity="0.98" d=" M 17.17 43.15 C 20.37 43.92 25.51 42.77 27.12 45.07 C 26.85 48.49 25.86 51.79 24.81 55.04 C 21.16 55.14 17.44 55.22 13.96 53.97 C 15.24 50.44 15.19 46.30 17.17 43.15 Z" />
</g>
<g id="#626e76ff">
<path fill="#626e76" opacity="1.00" d=" M 103.08 43.94 C 105.43 44.08 107.77 44.30 110.10 44.60 C 108.88 46.04 107.67 47.68 108.31 49.67 C 110.09 59.95 107.36 73.31 97.09 78.24 C 96.89 77.61 96.48 76.37 96.28 75.74 C 96.22 75.31 96.08 74.45 96.02 74.01 C 96.99 74.33 98.50 75.67 99.29 74.32 C 103.24 69.68 105.69 63.86 106.78 57.90 C 107.59 52.80 104.43 48.58 103.08 43.94 Z" />
</g>
<g id="#5b6369fe">
<path fill="#5b6369" opacity="1.00" d=" M 112.16 44.39 C 113.57 44.20 114.28 46.04 115.14 46.90 C 114.40 46.97 112.90 47.10 112.15 47.16 C 112.24 57.57 110.40 68.45 103.79 76.83 C 101.79 78.19 95.79 84.10 97.09 78.24 C 107.36 73.31 110.09 59.95 108.31 49.67 C 107.67 47.68 108.88 46.04 110.10 44.60 C 110.62 44.54 111.65 44.44 112.16 44.39 Z" />
</g>
<g id="#a1aec8fd">
<path fill="#a1aec8" opacity="1.00" d=" M 27.12 45.07 C 34.58 44.72 42.13 45.72 49.32 47.66 C 52.42 48.69 55.07 50.86 56.11 54.05 C 52.80 56.32 50.43 59.93 49.92 63.97 C 48.90 68.50 45.93 74.46 50.20 78.16 C 47.90 80.11 45.10 81.31 42.26 82.27 C 39.43 82.24 36.59 82.23 33.76 82.25 C 28.77 81.55 23.70 81.30 18.82 80.03 C 19.10 76.31 20.84 72.91 21.14 69.19 C 28.71 68.52 36.15 72.27 43.77 70.81 C 46.23 68.60 48.78 65.63 47.96 62.06 C 47.62 61.07 47.22 60.10 46.76 59.16 C 40.07 56.65 32.84 56.59 25.81 56.12 C 25.56 55.85 25.06 55.31 24.81 55.04 C 25.86 51.79 26.85 48.49 27.12 45.07 Z" />
</g>
<g id="#91acb5ff">
<path fill="#91acb5" opacity="1.00" d=" M 69.91 47.75 C 70.90 47.10 71.90 46.48 72.89 45.85 L 74.00 46.03 C 72.66 47.72 71.19 49.31 69.93 51.06 C 73.63 50.23 76.98 48.31 80.70 47.53 C 81.06 47.83 81.78 48.41 82.14 48.70 C 74.98 49.93 68.37 55.06 66.09 62.07 C 65.69 63.60 66.33 64.31 68.01 64.20 C 66.48 66.17 65.26 68.33 63.98 70.45 C 62.80 67.77 62.17 64.89 61.77 62.00 C 61.17 62.66 60.57 63.32 59.98 64.00 L 59.72 62.84 C 60.58 58.91 62.79 55.46 64.98 52.15 C 67.32 51.62 68.90 49.83 69.91 47.75 Z" />
</g>
<g id="#89a6bcff">
<path fill="#89a6bc" opacity="1.00" d=" M 80.70 47.53 C 86.21 45.85 93.14 47.91 96.43 52.62 C 99.81 57.02 96.06 62.39 92.73 65.57 L 91.76 65.38 C 91.14 64.72 90.52 64.07 89.89 63.42 C 92.46 62.32 93.93 59.52 94.87 57.02 C 94.21 50.89 87.82 47.89 82.14 48.70 C 81.78 48.41 81.06 47.83 80.70 47.53 Z" />
</g>
<g id="#545a60ff">
<path fill="#545a60" opacity="1.00" d=" M 112.15 47.16 C 112.90 47.10 114.40 46.97 115.14 46.90 L 116.15 46.89 L 115.69 47.58 C 112.57 50.49 115.02 55.42 113.92 59.01 C 113.10 69.56 107.32 79.68 97.84 84.69 C 97.33 84.49 96.31 84.09 95.81 83.89 C 95.96 81.17 96.12 78.46 96.28 75.74 C 96.48 76.37 96.89 77.61 97.09 78.24 C 95.79 84.10 101.79 78.19 103.79 76.83 C 110.40 68.45 112.24 57.57 112.15 47.16 Z" />
</g>
<g id="#b6d4d4ff">
<path fill="#b6d4d4" opacity="1.00" d=" M 64.98 52.15 C 66.08 50.16 67.74 48.52 69.91 47.75 C 68.90 49.83 67.32 51.62 64.98 52.15 Z" />
</g>
<g id="#4d5157ff">
<path fill="#4d5157" opacity="1.00" d=" M 113.92 59.01 C 115.02 55.42 112.57 50.49 115.69 47.58 C 116.92 48.00 117.63 48.71 117.80 49.69 C 113.68 54.03 117.42 61.40 115.61 66.69 C 113.84 75.91 107.61 84.12 99.03 88.06 C 97.20 88.57 93.29 91.87 93.80 87.91 C 94.51 86.59 95.14 85.23 95.81 83.89 C 96.31 84.09 97.33 84.49 97.84 84.69 C 107.32 79.68 113.10 69.56 113.92 59.01 Z" />
</g>
<g id="#93b4cbff">
<path fill="#93b4cb" opacity="1.00" d=" M 66.09 62.07 C 68.37 55.06 74.98 49.93 82.14 48.70 C 87.82 47.89 94.21 50.89 94.87 57.02 C 93.93 59.52 92.46 62.32 89.89 63.42 C 89.43 63.13 88.52 62.55 88.06 62.26 C 89.17 60.60 90.26 58.88 90.97 56.99 C 89.72 51.54 82.82 49.62 78.33 52.38 C 75.09 53.94 69.14 56.99 71.91 61.31 C 70.59 62.25 69.29 63.22 68.01 64.20 C 66.33 64.31 65.69 63.60 66.09 62.07 Z" />
</g>
<g id="#46484efe">
<path fill="#46484e" opacity="1.00" d=" M 115.61 66.69 C 117.42 61.40 113.68 54.03 117.80 49.69 C 119.08 50.10 119.79 50.85 119.93 51.97 C 117.88 62.86 120.06 75.76 111.32 84.31 C 105.92 91.10 94.85 90.60 91.04 99.03 C 90.73 103.01 85.26 103.29 85.01 106.84 C 88.86 107.76 92.85 108.10 96.80 108.04 C 96.53 107.09 96.25 106.14 95.97 105.20 C 96.25 104.94 96.81 104.43 97.09 104.17 C 98.66 104.77 100.29 104.41 101.89 104.18 C 101.99 105.46 102.06 106.73 102.10 108.02 C 101.56 108.27 100.48 108.78 99.95 109.03 C 99.42 109.03 98.38 109.02 97.86 109.02 C 95.44 108.50 93.16 108.66 91.00 109.50 C 87.82 110.93 84.28 108.74 81.06 108.98 L 81.28 108.33 C 82.42 106.41 78.87 106.41 77.89 105.26 C 84.27 102.52 88.95 97.49 93.08 92.06 C 91.64 92.27 90.21 92.55 88.78 92.79 C 90.41 91.12 92.06 89.47 93.80 87.91 C 93.29 91.87 97.20 88.57 99.03 88.06 C 107.61 84.12 113.84 75.91 115.61 66.69 Z" />
</g>
<g id="#14343675">
<path fill="#143436" opacity="0.46" d=" M 161.01 49.99 C 163.48 50.25 168.43 50.77 170.90 51.03 L 170.11 51.15 C 167.05 51.10 164.03 51.03 160.98 50.97 L 161.01 49.99 Z" />
</g>
<g id="#9dc3e2ff">
<path fill="#9dc3e2" opacity="1.00" d=" M 78.33 52.38 C 82.82 49.62 89.72 51.54 90.97 56.99 C 90.26 58.88 89.17 60.60 88.06 62.26 C 86.85 61.54 85.58 60.92 84.21 60.59 C 80.18 59.64 75.77 59.73 71.91 61.31 C 69.14 56.99 75.09 53.94 78.33 52.38 Z" />
</g>
<g id="#e5e4d3f5">
<path fill="#e5e4d3" opacity="0.96" d=" M 131.79 54.45 C 139.36 49.47 149.60 51.58 158.17 51.10 C 157.85 51.54 157.20 52.42 156.88 52.86 C 156.61 53.13 156.08 53.68 155.81 53.95 C 151.29 54.04 146.78 53.90 142.27 54.21 C 139.40 54.20 136.51 53.82 133.74 54.63 C 133.25 54.58 132.28 54.50 131.79 54.45 Z" />
</g>
<g id="#68fbfbff">
<path fill="#68fbfb" opacity="1.00" d=" M 158.17 51.10 C 158.87 51.06 160.28 51.00 160.98 50.97 C 164.03 51.03 167.05 51.10 170.11 51.15 C 169.45 51.83 168.79 52.50 168.13 53.17 C 164.37 53.08 160.63 53.00 156.88 52.86 C 157.20 52.42 157.85 51.54 158.17 51.10 Z" />
</g>
<g id="#183646f6">
<path fill="#183646" opacity="0.96" d=" M 170.11 51.15 L 170.90 51.03 C 171.95 55.35 174.38 62.91 169.03 64.91 C 168.99 61.24 168.43 57.64 167.86 54.03 L 168.13 53.17 C 168.79 52.50 169.45 51.83 170.11 51.15 Z" />
</g>
<g id="#3e3e44fe">
<path fill="#3e3e44" opacity="1.00" d=" M 119.93 51.97 C 121.70 53.31 123.19 55.57 123.07 57.90 C 122.56 57.69 121.52 57.26 121.01 57.05 C 120.76 65.24 121.77 73.88 118.64 81.68 C 116.05 86.90 110.83 90.06 106.69 93.91 C 106.04 93.93 104.75 93.97 104.10 93.99 C 100.65 93.62 96.67 95.28 95.60 98.80 C 95.07 100.96 95.20 103.10 95.97 105.20 C 96.25 106.14 96.53 107.09 96.80 108.04 C 92.85 108.10 88.86 107.76 85.01 106.84 C 85.26 103.29 90.73 103.01 91.04 99.03 C 94.85 90.60 105.92 91.10 111.32 84.31 C 120.06 75.76 117.88 62.86 119.93 51.97 Z" />
</g>
<g id="#47adc0ff">
<path fill="#47adc0" opacity="1.00" d=" M 155.81 53.95 C 156.08 53.68 156.61 53.13 156.88 52.86 C 160.63 53.00 164.37 53.08 168.13 53.17 L 167.86 54.03 C 163.84 54.00 159.82 53.97 155.81 53.95 Z" />
</g>
<g id="#431d19ed">
<path fill="#431d19" opacity="0.93" d=" M 13.96 53.97 C 17.44 55.22 21.16 55.14 24.81 55.04 C 25.06 55.31 25.56 55.85 25.81 56.12 C 26.77 57.50 27.79 58.84 29.09 59.91 C 23.53 59.68 16.25 60.23 13.96 53.97 Z" />
</g>
<g id="#8e99afff">
<path fill="#8e99af" opacity="1.00" d=" M 56.11 54.05 C 57.63 54.02 57.92 56.13 58.77 57.12 C 55.94 62.56 54.29 68.78 54.96 74.96 C 52.86 73.16 51.99 77.38 50.20 78.16 C 45.93 74.46 48.90 68.50 49.92 63.97 C 50.43 59.93 52.80 56.32 56.11 54.05 Z" />
</g>
<g id="#75757ffe">
<path fill="#75757f" opacity="1.00" d=" M 127.04 58.66 C 128.46 57.21 129.77 54.80 131.79 54.45 C 132.28 54.50 133.25 54.58 133.74 54.63 C 136.60 54.83 139.60 55.54 142.27 54.21 C 146.78 53.90 151.29 54.04 155.81 53.95 C 156.17 57.62 156.62 61.27 156.88 64.95 C 154.48 64.56 152.19 64.75 150.01 65.50 C 148.71 65.94 147.38 66.10 146.00 66.00 C 142.57 66.08 139.00 65.49 135.71 66.69 C 135.26 66.82 134.37 67.08 133.93 67.21 C 129.78 66.24 131.46 59.46 127.04 58.66 Z" />
</g>
<g id="#969699ff">
<path fill="#969699" opacity="1.00" d=" M 133.74 54.63 C 136.51 53.82 139.40 54.20 142.27 54.21 C 139.60 55.54 136.60 54.83 133.74 54.63 Z" />
</g>
<g id="#296787f9">
<path fill="#296787" opacity="0.98" d=" M 155.81 53.95 C 159.82 53.97 163.84 54.00 167.86 54.03 C 168.43 57.64 168.99 61.24 169.03 64.91 C 165.18 66.18 160.89 66.43 156.94 65.60 L 156.88 64.95 C 156.62 61.27 156.17 57.62 155.81 53.95 Z" />
</g>
<g id="#3a3438f8">
<path fill="#3a3438" opacity="0.97" d=" M 25.81 56.12 C 32.84 56.59 40.07 56.65 46.76 59.16 C 47.22 60.10 47.62 61.07 47.96 62.06 C 41.60 61.88 35.39 60.55 29.09 59.91 C 27.79 58.84 26.77 57.50 25.81 56.12 Z" />
</g>
<g id="#37363dfb">
<path fill="#37363d" opacity="1.00" d=" M 121.01 57.05 C 121.52 57.26 122.56 57.69 123.07 57.90 C 123.91 58.43 124.51 59.21 124.87 60.24 C 124.47 61.06 124.09 61.90 123.72 62.74 C 120.71 69.43 122.00 77.98 125.78 84.17 L 125.98 84.71 C 122.69 94.45 114.55 100.67 108.29 108.24 C 107.16 111.29 100.70 111.00 99.95 109.03 C 100.48 108.78 101.56 108.27 102.10 108.02 C 103.34 108.02 104.59 107.98 105.84 107.92 C 107.17 106.58 108.53 104.52 109.44 102.73 C 109.89 101.18 110.33 99.42 107.97 100.00 C 109.43 98.46 111.06 95.88 108.10 94.94 C 107.75 94.68 107.04 94.17 106.69 93.91 C 110.83 90.06 116.05 86.90 118.64 81.68 C 121.77 73.88 120.76 65.24 121.01 57.05 Z" />
</g>
<g id="#686770fd">
<path fill="#686770" opacity="1.00" d=" M 124.87 60.24 C 125.41 59.85 126.50 59.06 127.04 58.66 C 131.46 59.46 129.78 66.24 133.93 67.21 C 131.32 70.78 131.70 75.50 134.15 79.04 C 132.90 82.36 131.85 85.78 130.06 88.87 C 128.04 88.68 127.21 86.10 125.98 84.71 L 125.78 84.17 C 128.09 78.68 126.37 72.66 125.95 67.02 C 125.98 65.27 124.60 64.09 123.72 62.74 C 124.09 61.90 124.47 61.06 124.87 60.24 Z" />
</g>
<g id="#59656eff">
<path fill="#59656e" opacity="1.00" d=" M 71.91 61.31 C 75.77 59.73 80.18 59.64 84.21 60.59 C 83.61 60.89 82.40 61.49 81.79 61.78 C 72.35 58.98 64.20 68.76 64.66 77.82 C 64.44 78.18 64.02 78.89 63.80 79.24 C 63.58 78.90 63.12 78.21 62.90 77.87 C 63.17 75.38 63.75 72.94 63.98 70.45 C 65.26 68.33 66.48 66.17 68.01 64.20 C 69.29 63.22 70.59 62.25 71.91 61.31 Z" />
</g>
<g id="#f3f2f3ff">
<path fill="#f3f2f3" opacity="1.00" d=" M 64.66 77.82 C 64.20 68.76 72.35 58.98 81.79 61.78 C 84.79 63.05 88.36 63.98 90.25 66.86 C 91.07 72.48 84.38 73.73 82.01 77.94 C 80.62 80.45 81.48 76.26 80.06 75.96 C 76.83 73.04 74.64 77.89 77.15 80.28 C 74.03 82.22 70.93 84.17 67.87 86.19 C 65.95 83.82 65.39 80.70 64.66 77.82 Z" />
</g>
<g id="#4b565fff">
<path fill="#4b565f" opacity="1.00" d=" M 81.79 61.78 C 82.40 61.49 83.61 60.89 84.21 60.59 C 85.58 60.92 86.85 61.54 88.06 62.26 C 88.52 62.55 89.43 63.13 89.89 63.42 C 90.52 64.07 91.14 64.72 91.76 65.38 C 92.38 66.40 93.01 67.41 93.69 68.41 C 93.95 68.86 94.47 69.76 94.73 70.21 L 94.92 70.81 C 94.68 71.31 94.21 72.31 93.97 72.81 L 93.19 73.10 C 93.08 70.67 91.65 68.72 90.25 66.86 C 88.36 63.98 84.79 63.05 81.79 61.78 Z" />
</g>
<g id="#83989eff">
<path fill="#83989e" opacity="1.00" d=" M 59.98 64.00 C 60.57 63.32 61.17 62.66 61.77 62.00 C 62.17 64.89 62.80 67.77 63.98 70.45 C 63.75 72.94 63.17 75.38 62.90 77.87 C 57.63 74.84 59.23 82.88 58.75 86.24 C 56.87 78.77 58.55 71.33 59.98 64.00 Z" />
</g>
<g id="#a1bab9fd">
<path fill="#a1bab9" opacity="1.00" d=" M 56.77 72.76 C 57.17 69.31 58.42 66.04 59.72 62.84 L 59.98 64.00 C 58.55 71.33 56.87 78.77 58.75 86.24 C 58.70 87.23 58.62 88.21 58.50 89.19 C 57.69 87.26 56.56 85.30 56.50 83.17 C 56.90 79.71 57.07 76.23 56.77 72.76 Z" />
</g>
<g id="#5e5e66ff">
<path fill="#5e5e66" opacity="1.00" d=" M 125.78 84.17 C 122.00 77.98 120.71 69.43 123.72 62.74 C 124.60 64.09 125.98 65.27 125.95 67.02 C 126.37 72.66 128.09 78.68 125.78 84.17 Z" />
</g>
<g id="#5d5d65e4">
<path fill="#5d5d65" opacity="0.89" d=" M 150.01 65.50 C 152.19 64.75 154.48 64.56 156.88 64.95 L 156.94 65.60 C 154.89 66.68 152.08 66.43 150.01 65.50 Z" />
</g>
<g id="#0b0b0b4d">
<path fill="#0b0b0b" opacity="0.30" d=" M 135.71 66.69 C 139.00 65.49 142.57 66.08 146.00 66.00 C 145.17 68.91 138.57 66.38 135.71 66.69 Z" />
</g>
<g id="#cdcccdff">
<path fill="#cdcccd" opacity="1.00" d=" M 90.25 66.86 C 91.65 68.72 93.08 70.67 93.19 73.10 C 94.81 78.65 90.17 81.87 86.01 84.02 C 81.32 86.06 78.54 91.73 72.83 91.36 L 71.99 91.07 C 70.74 89.34 69.24 87.82 67.87 86.19 C 70.93 84.17 74.03 82.22 77.15 80.28 C 80.17 80.70 80.25 78.32 80.06 75.96 C 81.48 76.26 80.62 80.45 82.01 77.94 C 84.38 73.73 91.07 72.48 90.25 66.86 Z" />
</g>
<g id="#393536ee">
<path fill="#393536" opacity="0.93" d=" M 133.93 67.21 C 134.37 67.08 135.26 66.82 135.71 66.69 C 134.84 71.05 136.22 74.23 139.11 77.00 C 137.61 78.04 136.02 78.95 134.15 79.04 C 131.70 75.50 131.32 70.78 133.93 67.21 Z" />
</g>
<g id="#3c9fdafb">
<path fill="#3c9fda" opacity="1.00" d=" M 10.07 68.00 C 13.86 67.36 17.52 68.27 21.14 69.19 C 20.84 72.91 19.10 76.31 18.82 80.03 C 15.17 79.86 11.56 79.36 7.93 79.05 L 7.15 78.96 C 8.37 75.38 9.03 71.63 10.07 68.00 Z" />
</g>
<g id="#373b3fff">
<path fill="#373b3f" opacity="1.00" d=" M 93.97 72.81 C 94.21 72.31 94.68 71.31 94.92 70.81 C 95.31 71.87 95.67 72.94 96.02 74.01 C 96.08 74.45 96.22 75.31 96.28 75.74 C 96.12 78.46 95.96 81.17 95.81 83.89 C 95.14 85.23 94.51 86.59 93.80 87.91 C 92.06 89.47 90.41 91.12 88.78 92.79 C 87.19 93.46 85.66 94.25 84.19 95.15 C 79.64 95.20 74.16 94.85 70.89 91.19 L 71.99 91.07 L 72.83 91.36 C 78.16 93.77 85.16 94.01 89.33 89.32 C 94.42 85.27 94.21 78.68 93.97 72.81 Z" />
</g>
<g id="#c1e3dcfb">
<path fill="#c1e3dc" opacity="1.00" d=" M 55.32 79.20 C 55.83 77.06 56.31 74.92 56.77 72.76 C 57.07 76.23 56.90 79.71 56.50 83.17 C 56.14 82.54 55.43 81.28 55.07 80.65 C 55.14 80.29 55.26 79.57 55.32 79.20 Z" />
</g>
<g id="#adadaeff">
<path fill="#adadae" opacity="1.00" d=" M 93.19 73.10 L 93.97 72.81 C 94.21 78.68 94.42 85.27 89.33 89.32 C 85.16 94.01 78.16 93.77 72.83 91.36 C 78.54 91.73 81.32 86.06 86.01 84.02 C 90.17 81.87 94.81 78.65 93.19 73.10 Z" />
</g>
<g id="#2d2529fc">
<path fill="#2d2529" opacity="1.00" d=" M 50.20 78.16 C 51.99 77.38 52.86 73.16 54.96 74.96 C 55.08 76.37 55.20 77.79 55.32 79.20 C 55.26 79.57 55.14 80.29 55.07 80.65 C 52.58 83.13 49.52 85.47 46.01 86.02 C 45.31 85.97 43.93 85.86 43.24 85.81 C 41.51 84.83 39.69 84.02 37.81 83.35 C 39.31 83.08 40.83 82.81 42.26 82.27 C 45.10 81.31 47.90 80.11 50.20 78.16 Z" />
</g>
<g id="#31373aff">
<path fill="#31373a" opacity="1.00" d=" M 77.15 80.28 C 74.64 77.89 76.83 73.04 80.06 75.96 C 80.25 78.32 80.17 80.70 77.15 80.28 Z" />
</g>
<g id="#707f84fb">
<path fill="#707f84" opacity="1.00" d=" M 58.75 86.24 C 59.23 82.88 57.63 74.84 62.90 77.87 C 63.12 78.21 63.58 78.90 63.80 79.24 C 63.97 80.45 64.14 81.66 64.31 82.86 C 64.23 84.69 62.59 84.97 61.18 85.46 C 61.03 88.03 61.02 90.60 61.13 93.17 L 60.28 93.39 C 59.64 92.05 58.40 90.74 58.50 89.19 C 58.62 88.21 58.70 87.23 58.75 86.24 Z" />
</g>
<g id="#75737dfe">
<path fill="#75737d" opacity="1.00" d=" M 134.15 79.04 C 136.02 78.95 137.61 78.04 139.11 77.00 L 140.08 77.02 L 139.88 78.04 L 139.51 78.96 C 138.95 79.62 138.41 80.29 137.89 80.97 C 144.65 81.00 151.48 81.40 158.19 80.24 L 159.01 80.14 C 158.84 84.12 158.78 88.16 159.91 92.01 L 158.93 92.04 C 157.23 92.04 153.83 92.05 152.12 92.06 C 147.07 92.01 142.03 91.98 136.98 92.02 C 134.24 92.36 132.00 90.52 130.06 88.87 C 131.85 85.78 132.90 82.36 134.15 79.04 Z" />
</g>
<g id="#2524226c">
<path fill="#252422" opacity="0.42" d=" M 140.08 77.02 C 144.71 76.95 149.36 76.86 154.00 77.04 L 154.00 78.00 C 149.28 78.03 144.58 77.97 139.88 78.04 L 140.08 77.02 Z" />
</g>
<g id="#6f5749af">
<path fill="#6f5749" opacity="0.69" d=" M 154.00 77.04 C 157.34 77.02 160.78 76.63 164.08 77.35 L 164.11 78.01 C 163.37 78.02 161.88 78.03 161.14 78.04 C 159.36 78.03 155.78 78.01 154.00 78.00 L 154.00 77.04 Z" />
</g>
<g id="#bc5c41db">
<path fill="#bc5c41" opacity="0.86" d=" M 164.08 77.35 C 166.14 76.32 168.97 76.52 171.01 77.55 C 168.78 78.21 166.47 78.37 164.11 78.01 L 164.08 77.35 Z" />
</g>
<g id="#fa7a58fd">
<path fill="#fa7a58" opacity="1.00" d=" M 171.01 77.55 C 171.53 77.42 172.57 77.17 173.09 77.05 C 172.33 78.02 171.57 79.00 170.83 79.99 C 167.17 80.00 163.53 79.96 159.87 80.00 C 160.19 79.51 160.83 78.53 161.14 78.04 C 161.88 78.03 163.37 78.02 164.11 78.01 C 166.47 78.37 168.78 78.21 171.01 77.55 Z" />
</g>
<g id="#481e17f1">
<path fill="#481e17" opacity="0.95" d=" M 173.09 77.05 L 173.94 76.92 C 173.60 81.73 177.92 89.26 172.11 92.05 C 171.87 88.01 171.23 84.01 170.83 79.99 C 171.57 79.00 172.33 78.02 173.09 77.05 Z" />
</g>
<g id="#484e53ff">
<path fill="#484e53" opacity="1.00" d=" M 63.80 79.24 C 64.02 78.89 64.44 78.18 64.66 77.82 C 65.39 80.70 65.95 83.82 67.87 86.19 C 69.24 87.82 70.74 89.34 71.99 91.07 L 70.89 91.19 C 70.49 91.21 69.70 91.25 69.30 91.28 C 67.63 88.48 65.83 85.75 64.31 82.86 C 64.14 81.66 63.97 80.45 63.80 79.24 Z" />
</g>
<g id="#d6d1bcfe">
<path fill="#d6d1bc" opacity="1.00" d=" M 139.88 78.04 C 144.58 77.97 149.28 78.03 154.00 78.00 C 155.78 78.01 159.36 78.03 161.14 78.04 C 160.83 78.53 160.19 79.51 159.87 80.00 L 159.01 80.14 L 158.19 80.24 C 152.15 79.12 145.11 81.79 139.51 78.96 L 139.88 78.04 Z" />
</g>
<g id="#18394af8">
<path fill="#18394a" opacity="0.97" d=" M 7.93 79.05 C 11.56 79.36 15.17 79.86 18.82 80.03 C 19.61 81.29 20.35 82.59 21.14 83.86 C 16.33 83.84 10.32 84.08 7.93 79.05 Z" />
</g>
<g id="#a3a29cff">
<path fill="#a3a29c" opacity="1.00" d=" M 137.89 80.97 C 138.41 80.29 138.95 79.62 139.51 78.96 C 145.11 81.79 152.15 79.12 158.19 80.24 C 151.48 81.40 144.65 81.00 137.89 80.97 Z" />
</g>
<g id="#3b3438f7">
<path fill="#3b3438" opacity="0.97" d=" M 18.82 80.03 C 23.70 81.30 28.77 81.55 33.76 82.25 C 35.10 82.66 36.45 83.01 37.81 83.35 C 39.69 84.02 41.51 84.83 43.24 85.81 C 41.49 85.88 39.73 85.96 37.97 86.01 C 32.35 85.52 26.60 85.46 21.14 83.86 C 20.35 82.59 19.61 81.29 18.82 80.03 Z" />
</g>
<g id="#853b31ff">
<path fill="#853b31" opacity="1.00" d=" M 159.01 80.14 L 159.87 80.00 C 163.53 79.96 167.17 80.00 170.83 79.99 C 171.23 84.01 171.87 88.01 172.11 92.05 L 171.04 92.05 C 167.32 92.00 163.62 92.00 159.91 92.01 C 158.78 88.16 158.84 84.12 159.01 80.14 Z" />
</g>
<g id="#676877ff">
<path fill="#676877" opacity="1.00" d=" M 33.76 82.25 C 36.59 82.23 39.43 82.24 42.26 82.27 C 40.83 82.81 39.31 83.08 37.81 83.35 C 36.45 83.01 35.10 82.66 33.76 82.25 Z" />
</g>
<g id="#606a6fff">
<path fill="#606a6f" opacity="1.00" d=" M 64.31 82.86 C 65.83 85.75 67.63 88.48 69.30 91.28 C 66.86 91.87 64.05 88.97 62.07 91.10 C 62.62 92.08 63.27 92.99 63.90 93.92 C 63.24 93.99 61.92 94.15 61.25 94.22 L 61.13 93.17 C 61.02 90.60 61.03 88.03 61.18 85.46 C 62.59 84.97 64.23 84.69 64.31 82.86 Z" />
</g>
<g id="#110e0f8b">
<path fill="#110e0f" opacity="0.55" d=" M 37.97 86.01 C 39.73 85.96 41.49 85.88 43.24 85.81 C 43.93 85.86 45.31 85.97 46.01 86.02 C 45.11 88.21 40.42 86.54 38.03 86.95 L 37.97 86.01 Z" />
</g>
<g id="#53595fff">
<path fill="#53595f" opacity="1.00" d=" M 62.07 91.10 C 64.05 88.97 66.86 91.87 69.30 91.28 C 69.70 91.25 70.49 91.21 70.89 91.19 C 74.16 94.85 79.64 95.20 84.19 95.15 C 83.47 97.00 82.23 98.58 80.71 99.85 C 73.81 102.47 69.88 95.11 63.90 93.92 C 63.27 92.99 62.62 92.08 62.07 91.10 Z" />
</g>
<g id="#88898ff8">
<path fill="#88898f" opacity="0.97" d=" M 46.87 95.08 C 46.26 92.02 51.78 89.45 52.76 91.66 C 52.58 93.22 52.22 96.36 52.04 97.93 C 51.51 96.70 50.46 94.25 49.94 93.02 C 47.94 92.99 47.23 99.90 46.87 95.08 Z" />
</g>
<g id="#8e91aaff">
<path fill="#8e91aa" opacity="1.00" d=" M 52.04 97.93 C 52.22 96.36 52.58 93.22 52.76 91.66 C 53.82 92.16 54.59 92.96 55.08 94.05 C 55.37 94.57 55.94 95.61 56.23 96.13 C 56.22 98.13 54.25 98.05 52.79 98.42 L 52.04 97.93 Z" />
</g>
<g id="#494d53fd">
<path fill="#494d53" opacity="1.00" d=" M 88.78 92.79 C 90.21 92.55 91.64 92.27 93.08 92.06 C 88.95 97.49 84.27 102.52 77.89 105.26 C 78.87 106.41 82.42 106.41 81.28 108.33 C 76.05 107.14 70.09 104.10 67.03 100.11 C 67.51 100.01 68.49 99.82 68.98 99.72 C 68.85 96.89 65.37 96.03 63.90 93.92 C 69.88 95.11 73.81 102.47 80.71 99.85 C 82.23 98.58 83.47 97.00 84.19 95.15 C 85.66 94.25 87.19 93.46 88.78 92.79 Z" />
</g>
<g id="#363539aa">
<path fill="#363539" opacity="0.67" d=" M 136.98 92.02 C 142.03 91.98 147.07 92.01 152.12 92.06 L 152.10 92.66 C 147.12 93.21 142.05 93.10 137.03 92.96 L 136.98 92.02 Z" />
</g>
<g id="#1f1f2180">
<path fill="#1f1f21" opacity="0.50" d=" M 152.12 92.06 C 153.83 92.05 157.23 92.04 158.93 92.04 L 158.91 92.65 C 156.83 93.44 154.18 93.44 152.10 92.66 L 152.12 92.06 Z" />
</g>
<g id="#0c06054e">
<path fill="#0c0605" opacity="0.31" d=" M 158.93 92.04 L 159.91 92.01 C 163.62 92.00 167.32 92.00 171.04 92.05 L 170.99 93.02 C 166.93 93.28 162.90 93.16 158.91 92.65 L 158.93 92.04 Z" />
</g>
<g id="#373436f2">
<path fill="#373436" opacity="0.95" d=" M 46.87 95.08 C 47.23 99.90 47.94 92.99 49.94 93.02 C 50.46 94.25 51.51 96.70 52.04 97.93 L 52.79 98.42 C 53.58 99.19 54.34 99.99 55.09 100.79 C 53.79 101.29 52.42 101.58 51.14 102.15 C 50.95 103.79 50.95 105.45 50.91 107.11 C 47.08 104.68 45.26 99.32 45.91 94.98 L 46.87 95.08 Z" />
</g>
<g id="#4b4a4de6">
<path fill="#4b4a4d" opacity="0.90" d=" M 60.28 93.39 L 61.13 93.17 L 61.25 94.22 C 59.86 94.92 58.40 95.44 56.92 95.91 L 56.23 96.13 C 55.94 95.61 55.37 94.57 55.08 94.05 C 56.83 93.94 58.61 93.98 60.28 93.39 Z" />
</g>
<g id="#2d282af8">
<path fill="#2d282a" opacity="0.97" d=" M 61.25 94.22 C 61.92 94.15 63.24 93.99 63.90 93.92 C 65.37 96.03 68.85 96.89 68.98 99.72 C 68.49 99.82 67.51 100.01 67.03 100.11 C 63.68 100.66 60.44 101.77 57.06 102.03 C 57.05 101.54 57.02 100.55 57.01 100.06 C 56.99 98.67 56.96 97.29 56.92 95.91 C 58.40 95.44 59.86 94.92 61.25 94.22 Z" />
</g>
<g id="#83899aff">
<path fill="#83899a" opacity="1.00" d=" M 95.60 98.80 C 96.67 95.28 100.65 93.62 104.10 93.99 C 103.40 94.57 102.72 95.18 102.07 95.82 C 101.30 99.00 100.29 101.71 96.69 102.33 C 96.29 101.16 95.92 99.98 95.60 98.80 Z" />
</g>
<g id="#68666eff">
<path fill="#68666e" opacity="1.00" d=" M 104.10 93.99 C 104.75 93.97 106.04 93.93 106.69 93.91 C 107.04 94.17 107.75 94.68 108.10 94.94 C 107.43 96.47 106.93 98.68 105.08 96.91 C 104.13 96.40 103.12 96.04 102.07 95.82 C 102.72 95.18 103.40 94.57 104.10 93.99 Z" />
</g>
<g id="#524d51ff">
<path fill="#524d51" opacity="1.00" d=" M 108.10 94.94 C 111.06 95.88 109.43 98.46 107.97 100.00 C 105.45 100.53 104.55 99.33 105.08 96.91 C 106.93 98.68 107.43 96.47 108.10 94.94 Z" />
</g>
<g id="#64636dff">
<path fill="#64636d" opacity="1.00" d=" M 56.23 96.13 L 56.92 95.91 C 56.96 97.29 56.99 98.67 57.01 100.06 C 56.53 100.24 55.57 100.61 55.09 100.79 C 54.34 99.99 53.58 99.19 52.79 98.42 C 54.25 98.05 56.22 98.13 56.23 96.13 Z" />
</g>
<g id="#302a2eff">
<path fill="#302a2e" opacity="1.00" d=" M 102.07 95.82 C 103.12 96.04 104.13 96.40 105.08 96.91 C 104.55 99.33 105.45 100.53 107.97 100.00 C 110.33 99.42 109.89 101.18 109.44 102.73 C 105.61 101.95 105.79 105.09 105.84 107.92 C 104.59 107.98 103.34 108.02 102.10 108.02 C 102.06 106.73 101.99 105.46 101.89 104.18 C 100.29 104.41 98.66 104.77 97.09 104.17 C 96.99 103.71 96.79 102.79 96.69 102.33 C 100.29 101.71 101.30 99.00 102.07 95.82 Z" />
</g>
<g id="#6b6a73ff">
<path fill="#6b6a73" opacity="1.00" d=" M 95.97 105.20 C 95.20 103.10 95.07 100.96 95.60 98.80 C 95.92 99.98 96.29 101.16 96.69 102.33 C 96.79 102.79 96.99 103.71 97.09 104.17 C 96.81 104.43 96.25 104.94 95.97 105.20 Z" />
</g>
<g id="#544f52fc">
<path fill="#544f52" opacity="1.00" d=" M 55.09 100.79 C 55.57 100.61 56.53 100.24 57.01 100.06 C 57.02 100.55 57.05 101.54 57.06 102.03 C 57.77 105.61 54.09 107.78 50.91 107.11 C 50.95 105.45 50.95 103.79 51.14 102.15 C 52.42 101.58 53.79 101.29 55.09 100.79 Z" />
</g>
<g id="#504749fe">
<path fill="#504749" opacity="1.00" d=" M 105.84 107.92 C 105.79 105.09 105.61 101.95 109.44 102.73 C 108.53 104.52 107.17 106.58 105.84 107.92 Z" />
</g>
<g id="#1d2227a6">
<path fill="#1d2227" opacity="0.65" d=" M 91.00 109.50 C 93.16 108.66 95.44 108.50 97.86 109.02 C 96.93 111.14 92.85 110.34 91.00 109.50 Z" />
</g>
</svg>
