<?xml version="1.0" encoding="UTF-8" ?>
<!DOCTYPE svg PUBLIC "-//W3C//DTD SVG 1.1//EN" "http://www.w3.org/Graphics/SVG/1.1/DTD/svg11.dtd">
<svg width="155pt" height="126pt" viewBox="0 0 155 126" version="1.1" xmlns="http://www.w3.org/2000/svg">
<g id="#702f22fe">
<path fill="#702f22" opacity="1.00" d=" M 52.40 6.34 C 54.52 6.59 56.64 6.81 58.76 7.07 C 59.56 8.98 60.38 10.88 61.17 12.80 C 59.29 12.72 57.41 12.65 55.53 12.57 C 54.57 10.56 53.58 8.56 52.53 6.59 L 52.40 6.34 Z" />
</g>
<g id="#8c4130ff">
<path fill="#8c4130" opacity="1.00" d=" M 52.53 6.59 C 53.58 8.56 54.57 10.56 55.53 12.57 C 54.09 14.14 52.67 15.71 51.24 17.28 C 50.48 15.46 49.70 13.64 48.88 11.84 C 50.03 10.05 51.26 8.30 52.53 6.59 Z" />
</g>
<g id="#d48960f4">
<path fill="#d48960" opacity="0.96" d=" M 97.52 13.57 C 99.32 11.33 100.90 8.02 104.12 7.78 C 102.61 9.67 100.99 11.46 99.24 13.13 L 97.52 13.57 Z" />
</g>
<g id="#6c2e24ff">
<path fill="#6c2e24" opacity="1.00" d=" M 104.12 7.78 C 105.89 9.75 107.82 11.57 109.79 13.34 C 108.13 15.36 106.40 17.33 104.62 19.26 C 102.63 17.44 100.63 15.62 98.63 13.80 L 99.24 13.13 C 100.99 11.46 102.61 9.67 104.12 7.78 Z" />
</g>
<g id="#717070ff">
<path fill="#717070" opacity="1.00" d=" M 51.24 17.28 C 52.67 15.71 54.09 14.14 55.53 12.57 C 57.70 17.92 60.38 23.27 60.30 29.19 C 60.16 29.89 59.87 31.30 59.73 32.01 C 58.30 31.91 56.86 31.81 55.43 31.72 C 55.44 31.02 55.45 30.33 55.46 29.64 C 55.63 25.16 52.68 21.36 51.24 17.28 Z" />
</g>
<g id="#5b5555ff">
<path fill="#5b5555" opacity="1.00" d=" M 55.53 12.57 C 57.41 12.65 59.29 12.72 61.17 12.80 C 62.45 15.96 63.93 19.02 65.27 22.15 C 65.45 24.87 63.44 25.90 61.07 25.79 C 60.80 26.92 60.53 28.05 60.30 29.19 C 60.38 23.27 57.70 17.92 55.53 12.57 Z" />
</g>
<g id="#fcfcfcff">
<path fill="#fcfcfc" opacity="1.00" d=" M 86.00 28.90 C 87.56 22.47 93.43 18.40 97.52 13.57 L 99.24 13.13 L 98.63 13.80 C 95.47 17.66 91.72 21.04 88.96 25.22 C 87.19 27.81 87.39 31.06 87.33 34.04 C 87.21 33.60 86.99 32.73 86.88 32.29 C 86.66 31.46 86.45 30.63 86.24 29.81 L 86.00 28.90 Z" />
<path fill="#fcfcfc" opacity="1.00" d=" M 101.06 35.76 C 103.96 32.66 106.68 29.37 109.65 26.34 L 111.56 25.99 C 107.99 29.10 105.79 34.33 101.06 35.76 Z" />
<path fill="#fcfcfc" opacity="1.00" d=" M 66.67 29.62 C 68.03 28.95 69.42 28.31 70.88 27.90 C 73.86 27.77 76.84 27.87 79.81 28.11 C 80.82 28.12 81.79 28.30 82.73 28.66 C 78.37 28.33 73.82 27.80 69.68 29.58 C 65.36 31.55 61.28 34.69 59.78 39.38 C 58.09 43.70 57.97 48.40 58.54 52.95 C 58.12 52.11 57.69 51.28 57.26 50.45 C 54.59 50.53 51.92 50.60 49.28 50.94 C 43.90 52.02 38.90 55.83 37.22 61.17 C 37.04 61.61 36.68 62.51 36.51 62.95 C 35.73 64.74 34.90 66.50 33.95 68.21 C 34.08 62.25 36.45 56.03 41.61 52.69 C 46.14 49.33 52.09 48.39 57.51 49.81 C 57.23 47.56 56.95 45.28 57.19 43.00 C 57.70 40.33 58.80 37.83 59.95 35.38 C 61.92 33.18 63.92 30.88 66.67 29.62 Z" />
<path fill="#fcfcfc" opacity="1.00" d=" M 65.12 41.05 C 67.44 38.86 70.78 39.71 73.48 40.57 C 72.23 42.56 71.01 44.55 69.86 46.59 C 69.28 46.67 68.12 46.82 67.55 46.89 C 65.88 47.93 64.24 48.99 62.61 50.08 C 62.06 46.90 62.26 43.12 65.12 41.05 Z" />
<path fill="#fcfcfc" opacity="1.00" d=" M 91.95 54.51 C 97.27 51.05 104.12 50.19 110.03 52.63 C 102.64 51.66 94.18 53.20 89.56 59.60 C 86.69 62.53 86.89 67.11 84.33 70.13 C 84.48 66.70 85.07 63.17 86.94 60.23 C 88.54 58.26 90.23 56.38 91.95 54.51 Z" />
</g>
<g id="#595357ff">
<path fill="#595357" opacity="1.00" d=" M 88.96 25.22 C 91.72 21.04 95.47 17.66 98.63 13.80 C 100.63 15.62 102.63 17.44 104.62 19.26 C 102.07 22.16 99.38 24.95 96.96 27.96 C 95.81 29.16 96.29 30.90 96.29 32.38 C 93.93 32.62 91.57 32.85 89.21 33.09 C 88.02 36.85 87.45 40.76 86.37 44.54 C 85.09 48.32 81.61 50.60 78.51 52.79 C 78.15 51.03 77.79 49.27 77.37 47.53 C 77.17 46.69 76.95 45.85 76.70 45.02 C 75.80 43.42 74.74 41.91 73.48 40.57 C 70.78 39.71 67.44 38.86 65.12 41.05 C 62.26 43.12 62.06 46.90 62.61 50.08 C 63.37 51.24 64.19 52.35 65.07 53.42 C 65.71 54.00 66.36 54.56 67.03 55.10 L 65.37 55.12 C 67.65 56.69 70.35 57.27 73.02 57.76 C 70.37 58.60 67.55 59.22 64.83 58.28 C 64.29 57.81 63.22 56.85 62.68 56.37 C 61.08 56.53 59.47 56.70 57.87 56.86 C 58.15 58.03 58.44 59.20 58.74 60.37 C 58.06 61.34 57.36 62.31 56.63 63.25 C 56.18 63.07 55.29 62.70 54.84 62.52 C 55.36 61.25 55.87 59.97 56.43 58.72 C 56.74 58.20 57.36 57.16 57.67 56.64 C 58.20 56.35 59.26 55.78 59.78 55.49 C 60.50 51.75 61.02 47.98 61.57 44.22 C 62.61 42.60 63.76 41.07 64.86 39.50 C 67.93 38.38 71.28 38.39 74.29 39.73 C 74.94 40.31 75.59 40.91 76.21 41.52 C 77.00 42.74 77.71 44.01 78.35 45.31 C 78.72 46.53 79.03 47.76 79.36 48.99 C 85.65 45.84 84.89 38.00 86.88 32.29 C 86.99 32.73 87.21 33.60 87.33 34.04 C 87.39 31.06 87.19 27.81 88.96 25.22 Z" />
</g>
<g id="#969696ff">
<path fill="#969696" opacity="1.00" d=" M 67.03 20.26 C 68.34 18.11 70.79 17.50 73.10 17.02 C 72.90 17.51 72.50 18.48 72.30 18.97 C 73.47 19.38 74.90 19.44 75.86 18.51 L 76.98 17.72 C 78.51 17.22 79.48 17.63 79.88 18.94 C 78.46 21.57 74.94 20.75 72.47 21.11 C 70.63 21.00 68.83 20.62 67.03 20.26 Z" />
<path fill="#969696" opacity="1.00" d=" M 77.43 60.12 C 77.61 57.07 80.37 54.27 83.43 56.02 C 83.78 56.47 84.47 57.39 84.81 57.85 C 83.80 57.30 82.80 56.74 81.80 56.18 C 80.61 57.55 79.43 58.92 78.23 60.28 C 79.03 61.19 79.82 62.12 80.62 63.03 L 80.17 63.19 C 79.24 62.18 78.34 61.14 77.43 60.12 Z" />
<path fill="#969696" opacity="1.00" d=" M 109.60 68.17 C 110.34 71.11 110.14 74.56 107.68 76.67 C 105.52 79.20 101.93 79.42 98.92 78.58 C 102.12 74.74 106.58 72.15 109.60 68.17 Z" />
</g>
<g id="#312d30ff">
<path fill="#312d30" opacity="1.00" d=" M 73.10 17.02 C 74.45 16.73 75.37 17.23 75.86 18.51 C 74.90 19.44 73.47 19.38 72.30 18.97 C 72.50 18.48 72.90 17.51 73.10 17.02 Z" />
<path fill="#312d30" opacity="1.00" d=" M 76.98 17.72 C 77.50 17.49 78.55 17.04 79.08 16.81 C 80.93 17.68 83.08 18.38 84.03 20.36 C 82.25 20.76 80.46 21.12 78.67 21.45 C 78.73 23.69 77.85 26.40 79.81 28.11 C 76.84 27.87 73.86 27.77 70.88 27.90 C 71.28 27.79 72.08 27.57 72.48 27.46 C 72.40 25.35 72.41 23.23 72.47 21.11 C 74.94 20.75 78.46 21.57 79.88 18.94 C 79.48 17.63 78.51 17.22 76.98 17.72 Z" />
<path fill="#312d30" opacity="1.00" d=" M 52.70 42.54 C 55.48 41.26 56.92 38.48 58.71 36.17 L 59.95 35.38 C 58.80 37.83 57.70 40.33 57.19 43.00 C 53.96 42.55 49.78 43.38 47.81 40.07 C 49.28 41.17 50.97 41.94 52.70 42.54 Z" />
<path fill="#312d30" opacity="1.00" d=" M 67.55 46.89 C 68.12 46.82 69.28 46.67 69.86 46.59 L 70.46 47.41 C 70.30 47.84 69.96 48.71 69.79 49.14 C 68.40 49.11 67.65 48.36 67.55 46.89 Z" />
<path fill="#312d30" opacity="1.00" d=" M 52.77 58.38 C 53.42 57.18 54.08 55.99 54.67 54.77 C 55.11 56.15 55.70 57.47 56.43 58.72 C 55.87 59.97 55.36 61.25 54.84 62.52 C 54.08 61.18 53.42 59.78 52.77 58.38 Z" />
<path fill="#312d30" opacity="1.00" d=" M 101.23 72.99 C 99.97 71.56 101.52 69.73 103.18 70.04 C 104.00 71.51 102.99 73.32 101.23 72.99 Z" />
<path fill="#312d30" opacity="1.00" d=" M 127.53 80.73 C 127.67 80.56 127.94 80.21 128.08 80.03 C 127.89 83.24 127.08 87.36 123.48 88.32 C 122.90 91.23 120.03 93.65 116.98 92.76 C 120.74 88.98 124.28 84.96 127.53 80.73 Z" />
</g>
<g id="#245569ff">
<path fill="#245569" opacity="1.00" d=" M 44.01 17.87 C 46.09 18.11 48.18 18.27 50.27 18.37 C 51.16 20.26 51.95 22.19 52.66 24.15 C 50.73 24.09 48.80 24.02 46.87 23.95 C 46.05 22.05 45.15 20.19 44.24 18.33 L 44.01 17.87 Z" />
</g>
<g id="#2f718aff">
<path fill="#2f718a" opacity="1.00" d=" M 40.63 23.06 C 41.82 21.47 43.02 19.89 44.24 18.33 C 45.15 20.19 46.05 22.05 46.87 23.95 L 47.01 24.29 C 45.71 25.86 44.42 27.43 43.13 29.01 C 42.34 27.01 41.50 25.03 40.63 23.06 Z" />
</g>
<g id="#53d1e6ff">
<path fill="#53d1e6" opacity="1.00" d=" M 109.65 26.34 C 111.61 23.89 113.38 20.76 116.63 19.92 C 115.24 22.14 113.54 24.14 111.63 25.92 L 111.56 25.99 L 109.65 26.34 Z" />
<path fill="#53d1e6" opacity="1.00" d=" M 76.50 101.70 L 76.83 101.65 C 77.76 101.50 78.69 101.35 79.62 101.20 C 78.80 103.65 78.02 106.12 76.99 108.50 C 76.24 108.76 74.73 109.28 73.98 109.53 C 74.19 108.90 74.61 107.64 74.82 107.01 C 75.40 105.24 75.97 103.48 76.50 101.70 Z" />
</g>
<g id="#23556dff">
<path fill="#23556d" opacity="1.00" d=" M 116.63 19.92 C 118.60 21.88 120.60 23.80 122.52 25.80 C 120.77 27.70 119.04 29.62 117.33 31.56 C 115.40 29.71 113.50 27.83 111.63 25.92 C 113.54 24.14 115.24 22.14 116.63 19.92 Z" />
</g>
<g id="#433d3dff">
<path fill="#433d3d" opacity="1.00" d=" M 65.27 22.15 C 66.10 24.56 66.49 27.08 66.67 29.62 C 63.92 30.88 61.92 33.18 59.95 35.38 L 58.71 36.17 C 59.09 34.79 59.43 33.40 59.73 32.01 C 59.87 31.30 60.16 29.89 60.30 29.19 C 60.53 28.05 60.80 26.92 61.07 25.79 C 63.44 25.90 65.45 24.87 65.27 22.15 Z" />
</g>
<g id="#5a5755ff">
<path fill="#5a5755" opacity="1.00" d=" M 46.87 23.95 C 48.80 24.02 50.73 24.09 52.66 24.15 L 52.82 24.15 C 53.50 26.07 54.29 27.96 55.46 29.64 C 55.45 30.33 55.44 31.02 55.43 31.72 C 56.86 31.81 58.30 31.91 59.73 32.01 C 59.43 33.40 59.09 34.79 58.71 36.17 C 56.92 38.48 55.48 41.26 52.70 42.54 C 52.76 39.77 53.12 37.01 53.10 34.24 C 52.26 33.54 51.38 32.88 50.48 32.25 C 49.21 29.65 48.12 26.96 47.01 24.29 L 46.87 23.95 Z" />
</g>
<g id="#6f6c6cff">
<path fill="#6f6c6c" opacity="1.00" d=" M 43.13 29.01 C 44.42 27.43 45.71 25.86 47.01 24.29 C 48.12 26.96 49.21 29.65 50.48 32.25 C 51.38 32.88 52.26 33.54 53.10 34.24 C 53.12 37.01 52.76 39.77 52.70 42.54 C 50.97 41.94 49.28 41.17 47.81 40.07 C 46.16 36.42 44.73 32.68 43.13 29.01 Z" />
</g>
<g id="#565154ff">
<path fill="#565154" opacity="1.00" d=" M 111.56 25.99 L 111.63 25.92 C 113.50 27.83 115.40 29.71 117.33 31.56 C 112.74 35.80 109.71 42.74 103.14 44.12 C 101.75 43.95 100.37 43.77 98.99 43.57 C 99.84 43.29 100.69 43.02 101.54 42.74 C 101.16 42.12 100.79 41.50 100.42 40.88 C 100.33 38.97 100.19 36.98 98.98 35.40 C 99.50 35.49 100.54 35.67 101.06 35.76 C 105.79 34.33 107.99 29.10 111.56 25.99 Z" />
</g>
<g id="#788c9bff">
<path fill="#788c9b" opacity="1.00" d=" M 69.68 29.58 C 73.82 27.80 78.37 28.33 82.73 28.66 C 83.20 28.95 84.14 29.54 84.61 29.84 C 82.80 29.90 81.01 29.97 79.21 30.03 C 80.38 31.81 81.74 33.51 82.42 35.56 C 82.88 39.26 80.82 42.71 78.35 45.31 C 77.71 44.01 77.00 42.74 76.21 41.52 C 77.49 39.75 80.12 37.76 78.70 35.33 C 76.83 31.86 72.41 31.96 69.01 31.76 C 69.18 31.21 69.51 30.12 69.68 29.58 Z" />
</g>
<g id="#8eaabeff">
<path fill="#8eaabe" opacity="1.00" d=" M 59.78 39.38 C 61.28 34.69 65.36 31.55 69.68 29.58 C 69.51 30.12 69.18 31.21 69.01 31.76 C 72.41 31.96 76.83 31.86 78.70 35.33 C 80.12 37.76 77.49 39.75 76.21 41.52 C 75.59 40.91 74.94 40.31 74.29 39.73 C 74.22 38.26 75.60 36.05 73.68 35.27 C 70.10 33.34 66.28 36.22 64.86 39.50 C 63.76 41.07 62.61 42.60 61.57 44.22 C 61.03 42.59 60.42 40.98 59.78 39.38 Z" />
</g>
<g id="#5d6770ff">
<path fill="#5d6770" opacity="1.00" d=" M 79.21 30.03 C 81.01 29.97 82.80 29.90 84.61 29.84 C 85.01 29.83 85.83 29.82 86.24 29.81 C 86.45 30.63 86.66 31.46 86.88 32.29 C 84.89 38.00 85.65 45.84 79.36 48.99 C 79.03 47.76 78.72 46.53 78.35 45.31 C 80.82 42.71 82.88 39.26 82.42 35.56 C 81.74 33.51 80.38 31.81 79.21 30.03 Z" />
</g>
<g id="#444348ff">
<path fill="#444348" opacity="1.00" d=" M 89.21 33.09 C 91.57 32.85 93.93 32.62 96.29 32.38 C 97.20 33.37 98.13 34.35 98.98 35.40 C 100.19 36.98 100.33 38.97 100.42 40.88 C 100.79 41.50 101.16 42.12 101.54 42.74 C 100.69 43.02 99.84 43.29 98.99 43.57 C 100.37 43.77 101.75 43.95 103.14 44.12 C 100.53 44.48 97.86 44.57 95.32 43.79 L 94.59 42.59 C 93.55 41.24 92.17 38.39 90.21 39.28 C 89.88 43.19 90.59 47.34 88.89 51.02 C 87.66 53.22 85.37 54.52 83.43 56.02 C 80.37 54.27 77.61 57.07 77.43 60.12 C 78.34 61.14 79.24 62.18 80.17 63.19 C 77.92 65.57 73.57 63.89 70.55 63.88 C 70.86 67.18 70.81 70.55 69.71 73.71 C 69.31 72.25 68.87 70.81 68.43 69.37 C 63.87 75.88 56.86 80.23 49.72 83.44 C 49.68 83.83 49.61 84.60 49.57 84.99 C 48.95 84.95 47.72 84.89 47.10 84.85 C 45.75 84.74 44.60 83.97 43.39 83.44 C 47.01 81.25 50.86 79.48 54.72 77.77 C 53.68 76.96 52.65 76.15 51.65 75.30 C 52.16 75.12 53.16 74.75 53.67 74.57 C 54.06 75.10 54.84 76.17 55.24 76.70 C 56.27 76.01 57.31 75.33 58.37 74.68 C 57.68 74.46 56.30 74.02 55.61 73.80 C 55.76 72.95 55.91 72.10 56.05 71.25 C 56.19 70.17 56.17 69.09 56.21 68.01 C 59.59 66.45 62.75 64.42 65.25 61.63 C 63.97 60.68 62.64 59.73 60.99 59.60 C 62.27 59.17 63.55 58.73 64.83 58.28 C 67.55 59.22 70.37 58.60 73.02 57.76 C 70.35 57.27 67.65 56.69 65.37 55.12 L 67.03 55.10 C 69.34 55.00 71.97 55.42 73.96 53.96 C 76.07 52.50 76.74 49.86 77.37 47.53 C 77.79 49.27 78.15 51.03 78.51 52.79 C 81.61 50.60 85.09 48.32 86.37 44.54 C 87.45 40.76 88.02 36.85 89.21 33.09 Z" />
</g>
<g id="#a2c9efff">
<path fill="#a2c9ef" opacity="1.00" d=" M 64.86 39.50 C 66.28 36.22 70.10 33.34 73.68 35.27 C 75.60 36.05 74.22 38.26 74.29 39.73 C 71.28 38.39 67.93 38.38 64.86 39.50 Z" />
</g>
<g id="#163440ff">
<path fill="#163440" opacity="1.00" d=" M 135.01 39.72 C 135.82 39.22 136.65 38.74 137.48 38.27 C 138.95 40.32 140.46 42.35 142.06 44.31 C 141.61 45.78 141.20 47.29 140.50 48.67 C 138.39 50.18 135.82 50.88 133.48 51.94 C 132.01 49.86 130.64 47.71 129.39 45.50 C 132.88 44.57 136.47 42.99 137.32 39.10 C 136.74 39.26 135.59 39.56 135.01 39.72 Z" />
</g>
<g id="#302d34ff">
<path fill="#302d34" opacity="1.00" d=" M 90.21 39.28 C 92.17 38.39 93.55 41.24 94.59 42.59 C 93.86 46.60 93.87 50.83 91.95 54.51 C 90.23 56.38 88.54 58.26 86.94 60.23 C 85.49 61.60 83.88 64.30 81.57 63.41 L 80.62 63.03 C 79.82 62.12 79.03 61.19 78.23 60.28 C 79.43 58.92 80.61 57.55 81.80 56.18 C 82.80 56.74 83.80 57.30 84.81 57.85 C 84.47 57.39 83.78 56.47 83.43 56.02 C 85.37 54.52 87.66 53.22 88.89 51.02 C 90.59 47.34 89.88 43.19 90.21 39.28 Z" />
</g>
<g id="#338899ff">
<path fill="#338899" opacity="1.00" d=" M 135.01 39.72 C 135.59 39.56 136.74 39.26 137.32 39.10 C 136.47 42.99 132.88 44.57 129.39 45.50 C 129.91 44.11 130.43 42.72 130.95 41.33 C 132.28 40.74 133.62 40.16 135.01 39.72 Z" />
</g>
<g id="#205263ff">
<path fill="#205263" opacity="1.00" d=" M 11.66 39.18 C 14.10 39.63 16.54 40.11 18.98 40.62 C 18.62 41.99 18.26 43.35 17.90 44.71 C 15.33 44.28 12.79 43.62 10.42 42.52 C 10.73 41.68 11.35 40.01 11.66 39.18 Z" />
</g>
<g id="#79868eff">
<path fill="#79868e" opacity="1.00" d=" M 59.78 39.38 C 60.42 40.98 61.03 42.59 61.57 44.22 C 61.02 47.98 60.50 51.75 59.78 55.49 C 59.26 55.78 58.20 56.35 57.67 56.64 C 57.36 57.16 56.74 58.20 56.43 58.72 C 55.70 57.47 55.11 56.15 54.67 54.77 C 54.60 54.54 54.44 54.10 54.36 53.87 C 52.59 53.03 50.75 52.27 49.28 50.94 C 51.92 50.60 54.59 50.53 57.26 50.45 C 57.69 51.28 58.12 52.11 58.54 52.95 C 57.97 48.40 58.09 43.70 59.78 39.38 Z" />
</g>
<g id="#5d5a5aff">
<path fill="#5d5a5a" opacity="1.00" d=" M 18.98 40.62 C 24.78 42.12 30.99 42.36 36.41 45.14 C 35.92 46.39 35.43 47.64 34.94 48.89 C 29.34 47.20 23.71 45.51 17.90 44.71 C 18.26 43.35 18.62 41.99 18.98 40.62 Z" />
</g>
<g id="#ddddddff">
<path fill="#dddddd" opacity="1.00" d=" M 73.48 40.57 C 74.74 41.91 75.80 43.42 76.70 45.02 C 74.75 46.03 72.85 48.11 70.46 47.41 L 69.86 46.59 C 71.01 44.55 72.23 42.56 73.48 40.57 Z" />
</g>
<g id="#9d9d91ff">
<path fill="#9d9d91" opacity="1.00" d=" M 118.15 47.13 C 122.22 44.78 126.69 43.27 130.95 41.33 C 130.43 42.72 129.91 44.11 129.39 45.50 C 126.11 47.00 122.78 48.40 119.44 49.78 C 119.23 49.26 118.82 48.21 118.61 47.69 L 118.15 47.13 Z" />
</g>
<g id="#173643ff">
<path fill="#173643" opacity="1.00" d=" M 9.98 42.32 L 10.42 42.52 C 12.79 43.62 15.33 44.28 17.90 44.71 C 17.64 46.88 17.39 49.06 17.13 51.23 C 14.60 50.70 12.05 50.24 9.49 49.84 C 9.58 47.33 9.76 44.83 9.98 42.32 Z" />
</g>
<g id="#453f40ff">
<path fill="#453f40" opacity="1.00" d=" M 17.90 44.71 C 23.71 45.51 29.34 47.20 34.94 48.89 C 35.43 47.64 35.92 46.39 36.41 45.14 C 38.74 47.19 40.42 49.83 41.61 52.69 C 36.45 56.03 34.08 62.25 33.95 68.21 C 27.77 68.80 21.84 66.71 15.84 65.62 C 15.92 63.44 16.00 61.26 16.08 59.08 L 16.65 59.18 C 21.02 59.81 25.25 61.60 29.71 61.38 C 31.17 60.85 32.33 58.97 31.75 57.45 C 31.30 55.79 30.24 54.16 28.49 53.69 C 24.76 52.64 20.91 52.08 17.13 51.23 C 17.39 49.06 17.64 46.88 17.90 44.71 Z" />
</g>
<g id="#b7b6b7ff">
<path fill="#b7b6b7" opacity="1.00" d=" M 76.70 45.02 C 76.95 45.85 77.17 46.69 77.37 47.53 C 76.74 49.86 76.07 52.50 73.96 53.96 C 71.97 55.42 69.34 55.00 67.03 55.10 C 66.36 54.56 65.71 54.00 65.07 53.42 C 66.70 52.06 68.33 50.70 69.79 49.14 C 69.96 48.71 70.30 47.84 70.46 47.41 C 72.85 48.11 74.75 46.03 76.70 45.02 Z" />
</g>
<g id="#433f41ff">
<path fill="#433f41" opacity="1.00" d=" M 119.44 49.78 C 122.78 48.40 126.11 47.00 129.39 45.50 C 130.64 47.71 132.01 49.86 133.48 51.94 C 130.96 53.06 128.38 54.00 125.82 55.02 C 123.75 55.82 123.14 58.05 122.26 59.87 C 120.66 59.67 119.05 59.46 117.45 59.24 C 118.42 62.82 119.83 66.72 118.32 70.35 C 116.84 73.95 114.55 77.16 112.18 80.22 C 109.75 83.60 105.54 84.68 102.05 86.57 C 103.12 87.07 104.20 87.57 105.30 88.04 C 104.49 88.11 102.87 88.24 102.06 88.31 C 102.86 89.36 103.67 90.42 104.48 91.46 C 101.01 92.91 97.50 94.28 93.93 95.47 C 92.75 94.76 91.57 94.05 90.39 93.35 C 90.60 91.48 90.38 89.39 88.79 88.14 C 87.35 88.01 85.91 88.07 84.46 88.10 C 84.85 87.49 85.61 86.27 86.00 85.65 L 86.30 85.18 C 87.89 84.61 89.44 83.87 91.09 83.46 C 95.15 83.91 99.26 83.54 102.90 81.58 C 101.21 80.87 99.51 80.18 97.89 79.33 C 97.62 78.86 97.08 77.92 96.81 77.46 C 97.34 77.74 98.39 78.30 98.92 78.58 C 101.93 79.42 105.52 79.20 107.68 76.67 C 110.14 74.56 110.34 71.11 109.60 68.17 L 109.36 66.94 L 109.03 65.28 C 110.79 67.48 111.92 70.05 112.66 72.75 C 113.90 68.91 115.98 65.14 115.76 60.99 C 115.70 58.44 114.25 56.26 112.92 54.19 C 113.41 54.45 114.39 54.98 114.88 55.24 C 115.07 54.50 115.46 53.02 115.65 52.28 L 116.30 51.90 C 117.39 51.26 118.42 50.53 119.44 49.78 Z" />
</g>
<g id="#dcdcdcff">
<path fill="#dcdcdc" opacity="1.00" d=" M 62.61 50.08 C 64.24 48.99 65.88 47.93 67.55 46.89 C 67.65 48.36 68.40 49.11 69.79 49.14 C 68.33 50.70 66.70 52.06 65.07 53.42 C 64.19 52.35 63.37 51.24 62.61 50.08 Z" />
</g>
<g id="#f1f0f1ff">
<path fill="#f1f0f1" opacity="1.00" d=" M 116.30 51.90 C 116.19 50.35 117.06 48.26 118.61 47.69 C 118.82 48.21 119.23 49.26 119.44 49.78 C 118.42 50.53 117.39 51.26 116.30 51.90 Z" />
<path fill="#f1f0f1" opacity="1.00" d=" M 97.27 65.11 C 99.21 63.32 102.00 63.56 104.42 63.74 C 102.23 68.02 98.31 70.86 94.74 73.90 C 94.02 70.78 94.54 67.12 97.27 65.11 Z" />
<path fill="#f1f0f1" opacity="1.00" d=" M 120.24 81.43 C 121.30 82.15 122.33 82.92 123.39 83.65 C 124.66 82.54 125.91 81.32 127.53 80.73 C 124.28 84.96 120.74 88.98 116.98 92.76 C 116.86 92.87 116.62 93.10 116.50 93.21 C 117.20 91.54 117.98 89.88 119.13 88.48 C 119.89 87.58 120.65 86.68 121.43 85.80 C 121.06 84.33 120.74 82.86 120.24 81.43 Z" />
</g>
<g id="#8ba4b6ff">
<path fill="#8ba4b6" opacity="1.00" d=" M 37.22 61.17 C 38.90 55.83 43.90 52.02 49.28 50.94 C 50.75 52.27 52.59 53.03 54.36 53.87 C 54.44 54.10 54.60 54.54 54.67 54.77 C 54.08 55.99 53.42 57.18 52.77 58.38 C 53.42 59.78 54.08 61.18 54.84 62.52 C 55.29 62.70 56.18 63.07 56.63 63.25 C 54.39 64.90 52.22 66.66 50.59 68.94 C 52.09 68.81 53.60 68.67 55.11 68.52 C 55.13 69.20 55.18 70.58 55.20 71.26 C 54.35 71.16 52.64 70.94 51.79 70.84 C 51.45 71.09 50.77 71.59 50.43 71.84 C 50.42 68.95 49.60 66.17 48.21 63.66 C 50.78 61.91 52.70 59.38 51.87 56.11 C 48.36 55.40 44.20 56.01 42.59 59.64 C 40.79 60.10 38.99 60.57 37.22 61.17 Z" />
<path fill="#8ba4b6" opacity="1.00" d=" M 33.95 68.21 C 34.90 66.50 35.73 64.74 36.51 62.95 L 37.81 62.31 C 36.60 65.06 36.37 68.04 36.40 71.00 C 36.06 72.00 35.68 72.99 35.28 73.97 C 34.75 72.07 34.31 70.14 33.95 68.21 Z" />
</g>
<g id="#a14834f7">
<path fill="#a14834" opacity="0.97" d=" M 141.26 54.55 C 143.29 53.48 145.45 52.67 147.51 51.64 C 147.02 53.12 146.54 54.61 146.07 56.11 C 143.86 57.13 141.63 58.09 139.35 58.95 C 139.97 57.47 140.58 56.00 141.26 54.55 Z" />
</g>
<g id="#4d1f18ff">
<path fill="#4d1f18" opacity="1.00" d=" M 147.51 51.64 C 149.26 53.63 150.88 55.73 152.40 57.90 C 151.73 59.39 151.06 60.88 150.39 62.38 C 148.31 63.20 146.24 64.04 144.18 64.89 C 142.56 62.92 140.95 60.93 139.35 58.95 C 141.63 58.09 143.86 57.13 146.07 56.11 C 146.54 54.61 147.02 53.12 147.51 51.64 Z" />
</g>
<g id="#7f96a2ff">
<path fill="#7f96a2" opacity="1.00" d=" M 89.56 59.60 C 94.18 53.20 102.64 51.66 110.03 52.63 C 110.48 52.82 111.38 53.20 111.83 53.39 C 110.03 53.75 108.23 54.11 106.43 54.46 C 108.24 57.33 109.74 60.48 109.41 63.97 C 108.03 63.54 106.65 63.10 105.27 62.69 C 106.07 54.90 93.88 54.40 91.53 60.63 C 89.10 64.05 91.35 67.86 92.64 71.20 C 93.00 73.06 93.34 74.92 93.67 76.79 C 93.13 76.72 92.04 76.59 91.50 76.52 C 90.72 75.31 89.93 74.11 89.20 72.86 C 89.27 71.52 89.35 70.18 89.42 68.84 C 88.38 69.30 87.34 69.76 86.31 70.23 C 86.34 71.90 86.37 73.57 86.39 75.24 C 85.97 74.09 85.56 72.94 85.15 71.79 C 83.76 72.21 82.37 72.63 80.98 73.04 C 81.13 74.17 81.27 75.30 81.44 76.42 C 80.89 75.00 80.25 73.39 80.90 71.88 C 81.61 70.68 83.19 70.69 84.33 70.13 C 86.89 67.11 86.69 62.53 89.56 59.60 Z" />
</g>
<g id="#6b2f22ff">
<path fill="#6b2f22" opacity="1.00" d=" M 9.04 56.42 C 9.46 55.72 10.31 54.30 10.73 53.59 C 13.22 54.16 15.72 54.65 18.24 55.09 L 18.16 55.29 C 17.65 56.59 17.15 57.88 16.65 59.18 L 16.08 59.08 C 13.57 58.71 11.09 57.99 9.04 56.42 Z" />
</g>
<g id="#5c656bff">
<path fill="#5c656b" opacity="1.00" d=" M 106.43 54.46 C 108.23 54.11 110.03 53.75 111.83 53.39 L 112.33 53.29 L 112.92 54.19 C 114.25 56.26 115.70 58.44 115.76 60.99 C 115.98 65.14 113.90 68.91 112.66 72.75 C 111.92 70.05 110.79 67.48 109.03 65.28 L 109.36 66.94 L 108.36 66.26 C 107.06 65.39 105.77 64.52 104.42 63.74 C 102.00 63.56 99.21 63.32 97.27 65.11 C 94.54 67.12 94.02 70.78 94.74 73.90 C 95.07 74.47 95.72 75.60 96.05 76.17 C 96.24 76.49 96.62 77.14 96.81 77.46 C 97.08 77.92 97.62 78.86 97.89 79.33 C 99.51 80.18 101.21 80.87 102.90 81.58 C 99.26 83.54 95.15 83.91 91.09 83.46 C 88.92 82.60 87.81 80.43 86.64 78.58 C 87.51 76.68 88.40 74.79 89.20 72.86 C 89.93 74.11 90.72 75.31 91.50 76.52 C 92.04 76.59 93.13 76.72 93.67 76.79 C 93.34 74.92 93.00 73.06 92.64 71.20 C 93.10 69.69 93.60 68.18 94.16 66.70 C 96.16 64.13 99.06 62.50 102.26 61.90 C 103.01 62.10 104.51 62.49 105.27 62.69 C 106.65 63.10 108.03 63.54 109.41 63.97 C 109.74 60.48 108.24 57.33 106.43 54.46 Z" />
</g>
<g id="#343337ff">
<path fill="#343337" opacity="1.00" d=" M 122.26 59.87 C 123.14 58.05 123.75 55.82 125.82 55.02 C 125.81 55.38 125.80 56.12 125.79 56.49 C 125.60 60.38 124.22 64.14 121.76 67.17 L 121.54 67.48 C 121.77 71.56 120.83 75.52 119.06 79.18 C 119.36 79.74 119.95 80.87 120.24 81.43 C 120.74 82.86 121.06 84.33 121.43 85.80 C 120.65 86.68 119.89 87.58 119.13 88.48 C 117.74 87.09 116.35 85.71 114.97 84.32 C 111.89 85.83 108.81 87.88 105.30 88.04 C 104.20 87.57 103.12 87.07 102.05 86.57 C 105.54 84.68 109.75 83.60 112.18 80.22 C 114.55 77.16 116.84 73.95 118.32 70.35 C 119.83 66.72 118.42 62.82 117.45 59.24 C 119.05 59.46 120.66 59.67 122.26 59.87 Z" />
<path fill="#343337" opacity="1.00" d=" M 40.09 70.19 C 38.19 67.68 42.57 65.89 42.51 69.22 C 41.91 69.46 40.70 69.95 40.09 70.19 Z" />
</g>
<g id="#9c9c91ff">
<path fill="#9c9c91" opacity="1.00" d=" M 131.91 58.50 C 134.91 56.93 138.10 55.75 141.26 54.55 C 140.58 56.00 139.97 57.47 139.35 58.95 C 136.86 59.95 134.46 61.17 131.97 62.15 C 131.41 62.19 130.28 62.25 129.72 62.29 C 130.42 61.01 131.12 59.73 131.91 58.50 Z" />
</g>
<g id="#4f2018ff">
<path fill="#4f2018" opacity="1.00" d=" M 8.14 64.05 C 8.34 61.50 8.59 58.95 9.04 56.42 C 11.09 57.99 13.57 58.71 16.08 59.08 C 16.00 61.26 15.92 63.44 15.84 65.62 C 13.27 65.11 10.70 64.57 8.14 64.05 Z" />
</g>
<g id="#636161fd">
<path fill="#636161" opacity="1.00" d=" M 18.16 55.29 C 22.15 56.01 26.16 56.67 30.06 57.79 C 29.46 58.88 29.13 60.21 29.71 61.38 C 25.25 61.60 21.02 59.81 16.65 59.18 C 17.15 57.88 17.65 56.59 18.16 55.29 Z" />
</g>
<g id="#a3cbedff">
<path fill="#a3cbed" opacity="1.00" d=" M 42.59 59.64 C 44.20 56.01 48.36 55.40 51.87 56.11 C 52.70 59.38 50.78 61.91 48.21 63.66 C 46.81 61.75 44.87 60.32 42.59 59.64 Z" />
</g>
<g id="#2b2728ff">
<path fill="#2b2728" opacity="1.00" d=" M 57.87 56.86 C 59.47 56.70 61.08 56.53 62.68 56.37 C 63.22 56.85 64.29 57.81 64.83 58.28 C 63.55 58.73 62.27 59.17 60.99 59.60 C 60.43 59.80 59.30 60.18 58.74 60.37 C 58.44 59.20 58.15 58.03 57.87 56.86 Z" />
</g>
<g id="#99bcd9ff">
<path fill="#99bcd9" opacity="1.00" d=" M 91.53 60.63 C 93.88 54.40 106.07 54.90 105.27 62.69 C 104.51 62.49 103.01 62.10 102.26 61.90 C 100.55 60.47 98.32 58.07 95.99 59.92 C 93.34 61.22 92.93 64.24 94.16 66.70 C 93.60 68.18 93.10 69.69 92.64 71.20 C 91.35 67.86 89.10 64.05 91.53 60.63 Z" />
</g>
<g id="#d6d5d6ff">
<path fill="#d6d5d6" opacity="1.00" d=" M 30.06 57.79 C 30.48 57.70 31.33 57.53 31.75 57.45 C 32.33 58.97 31.17 60.85 29.71 61.38 C 29.13 60.21 29.46 58.88 30.06 57.79 Z" />
<path fill="#d6d5d6" opacity="1.00" d=" M 104.42 63.74 C 105.77 64.52 107.06 65.39 108.36 66.26 C 106.58 67.46 104.88 68.75 103.18 70.04 C 101.52 69.73 99.97 71.56 101.23 72.99 C 99.45 73.95 97.75 75.07 96.05 76.17 C 95.72 75.60 95.07 74.47 94.74 73.90 C 98.31 70.86 102.23 68.02 104.42 63.74 Z" />
</g>
<g id="#453e3eff">
<path fill="#453e3e" opacity="1.00" d=" M 125.79 56.49 C 126.81 57.05 127.82 57.62 128.84 58.20 C 127.42 59.53 126.63 61.25 126.51 63.20 C 128.35 63.00 130.23 62.85 131.97 62.15 C 134.46 61.17 136.86 59.95 139.35 58.95 C 140.95 60.93 142.56 62.92 144.18 64.89 C 140.15 66.41 136.31 68.43 132.15 69.58 C 128.53 70.45 124.74 69.24 121.76 67.17 C 124.22 64.14 125.60 60.38 125.79 56.49 Z" />
</g>
<g id="#605e5eed">
<path fill="#605e5e" opacity="0.93" d=" M 128.84 58.20 C 129.60 58.27 131.14 58.43 131.91 58.50 C 131.12 59.73 130.42 61.01 129.72 62.29 C 130.28 62.25 131.41 62.19 131.97 62.15 C 130.23 62.85 128.35 63.00 126.51 63.20 C 126.63 61.25 127.42 59.53 128.84 58.20 Z" />
</g>
<g id="#a9d5faff">
<path fill="#a9d5fa" opacity="1.00" d=" M 95.99 59.92 C 98.32 58.07 100.55 60.47 102.26 61.90 C 99.06 62.50 96.16 64.13 94.16 66.70 C 92.93 64.24 93.34 61.22 95.99 59.92 Z" />
</g>
<g id="#54575eff">
<path fill="#54575e" opacity="1.00" d=" M 37.22 61.17 C 38.99 60.57 40.79 60.10 42.59 59.64 C 44.87 60.32 46.81 61.75 48.21 63.66 C 49.60 66.17 50.42 68.95 50.43 71.84 C 50.77 71.59 51.45 71.09 51.79 70.84 C 51.73 72.32 51.64 73.81 51.65 75.30 C 52.65 76.15 53.68 76.96 54.72 77.77 C 50.86 79.48 47.01 81.25 43.39 83.44 L 43.17 83.57 L 42.82 82.99 C 41.08 81.29 38.90 79.69 36.36 80.67 C 36.36 81.16 36.36 82.13 36.36 82.62 C 36.34 84.50 36.26 86.38 36.16 88.26 C 33.17 85.77 29.70 82.38 30.80 78.09 C 31.56 75.50 34.52 76.25 36.48 76.54 C 36.07 75.68 35.67 74.82 35.28 73.97 C 35.68 72.99 36.06 72.00 36.40 71.00 C 37.34 72.55 37.99 74.45 39.61 75.44 C 42.11 77.11 45.94 76.01 47.20 73.29 C 48.63 70.80 48.28 67.83 47.77 65.13 C 46.30 63.27 44.75 60.66 42.02 60.81 C 40.55 61.10 39.15 61.67 37.81 62.31 L 36.51 62.95 C 36.68 62.51 37.04 61.61 37.22 61.17 Z" />
</g>
<g id="#5d6a74ff">
<path fill="#5d6a74" opacity="1.00" d=" M 58.74 60.37 C 59.30 60.18 60.43 59.80 60.99 59.60 C 62.64 59.73 63.97 60.68 65.25 61.63 C 62.75 64.42 59.59 66.45 56.21 68.01 C 56.17 69.09 56.19 70.17 56.05 71.25 L 55.20 71.26 C 55.18 70.58 55.13 69.20 55.11 68.52 C 53.60 68.67 52.09 68.81 50.59 68.94 C 52.22 66.66 54.39 64.90 56.63 63.25 C 57.36 62.31 58.06 61.34 58.74 60.37 Z" />
</g>
<g id="#fffeffff">
<path fill="#fffeff" opacity="1.00" d=" M 37.81 62.31 C 39.15 61.67 40.55 61.10 42.02 60.81 C 44.75 60.66 46.30 63.27 47.77 65.13 C 46.05 66.54 44.30 67.91 42.51 69.22 C 42.57 65.89 38.19 67.68 40.09 70.19 C 38.86 70.44 37.63 70.71 36.40 71.00 C 36.37 68.04 36.60 65.06 37.81 62.31 Z" />
</g>
<g id="#d7d7d7ff">
<path fill="#d7d7d7" opacity="1.00" d=" M 47.77 65.13 C 48.28 67.83 48.63 70.80 47.20 73.29 C 45.94 76.01 42.11 77.11 39.61 75.44 C 37.99 74.45 37.34 72.55 36.40 71.00 C 37.63 70.71 38.86 70.44 40.09 70.19 C 40.70 69.95 41.91 69.46 42.51 69.22 C 44.30 67.91 46.05 66.54 47.77 65.13 Z" />
<path fill="#d7d7d7" opacity="1.00" d=" M 76.83 101.65 C 79.15 96.09 79.20 87.75 86.00 85.65 C 85.61 86.27 84.85 87.49 84.46 88.10 C 82.22 92.21 81.19 96.82 79.62 101.20 C 78.69 101.35 77.76 101.50 76.83 101.65 Z" />
</g>
<g id="#b8b8b8ff">
<path fill="#b8b8b8" opacity="1.00" d=" M 103.18 70.04 C 104.88 68.75 106.58 67.46 108.36 66.26 L 109.36 66.94 L 109.60 68.17 C 106.58 72.15 102.12 74.74 98.92 78.58 C 98.39 78.30 97.34 77.74 96.81 77.46 C 96.62 77.14 96.24 76.49 96.05 76.17 C 97.75 75.07 99.45 73.95 101.23 72.99 C 102.99 73.32 104.00 71.51 103.18 70.04 Z" />
<path fill="#b8b8b8" opacity="1.00" d=" M 95.54 98.53 C 96.20 98.26 97.52 97.73 98.17 97.47 C 97.34 101.31 96.12 105.05 94.78 108.74 C 93.67 109.18 92.57 109.65 91.47 110.13 C 92.25 107.42 93.14 104.75 94.16 102.13 C 94.63 100.93 95.08 99.73 95.54 98.53 Z" />
</g>
<g id="#333037ff">
<path fill="#333037" opacity="1.00" d=" M 68.43 69.37 C 68.87 70.81 69.31 72.25 69.71 73.71 C 68.32 78.50 64.26 81.71 60.33 84.42 C 59.95 84.25 59.18 83.91 58.80 83.74 L 58.12 83.43 L 57.43 83.14 C 55.07 84.36 52.66 85.46 50.14 86.28 L 49.89 87.17 L 49.61 86.38 C 49.12 85.49 48.28 84.98 47.10 84.85 C 47.72 84.89 48.95 84.95 49.57 84.99 C 49.61 84.60 49.68 83.83 49.72 83.44 C 56.86 80.23 63.87 75.88 68.43 69.37 Z" />
</g>
<g id="#3a3333ff">
<path fill="#3a3333" opacity="1.00" d=" M 86.31 70.23 C 87.34 69.76 88.38 69.30 89.42 68.84 C 89.35 70.18 89.27 71.52 89.20 72.86 C 88.40 74.79 87.51 76.68 86.64 78.58 C 84.83 78.08 82.73 77.95 81.44 76.42 C 81.27 75.30 81.13 74.17 80.98 73.04 C 82.37 72.63 83.76 72.21 85.15 71.79 C 85.56 72.94 85.97 74.09 86.39 75.24 C 86.37 73.57 86.34 71.90 86.31 70.23 Z" />
</g>
<g id="#332e32ff">
<path fill="#332e32" opacity="1.00" d=" M 51.79 70.84 C 52.64 70.94 54.35 71.16 55.20 71.26 L 56.05 71.25 C 55.91 72.10 55.76 72.95 55.61 73.80 C 56.30 74.02 57.68 74.46 58.37 74.68 C 57.31 75.33 56.27 76.01 55.24 76.70 C 54.84 76.17 54.06 75.10 53.67 74.57 C 53.16 74.75 52.16 75.12 51.65 75.30 C 51.64 73.81 51.73 72.32 51.79 70.84 Z" />
</g>
<g id="#312f32ff">
<path fill="#312f32" opacity="1.00" d=" M 36.36 80.67 C 38.90 79.69 41.08 81.29 42.82 82.99 C 41.64 83.76 40.46 84.52 39.28 85.29 C 38.30 84.40 37.33 83.51 36.36 82.62 C 36.36 82.13 36.36 81.16 36.36 80.67 Z" />
</g>
<g id="#453e40fd">
<path fill="#453e40" opacity="1.00" d=" M 36.16 88.26 C 36.26 86.38 36.34 84.50 36.36 82.62 C 37.33 83.51 38.30 84.40 39.28 85.29 C 40.46 84.52 41.64 83.76 42.82 82.99 L 43.17 83.57 C 44.01 85.13 44.47 87.56 42.82 88.77 C 40.69 90.05 38.26 88.98 36.16 88.26 Z" />
</g>
<g id="#797871ff">
<path fill="#797871" opacity="1.00" d=" M 50.14 86.28 C 52.66 85.46 55.07 84.36 57.43 83.14 L 58.12 83.43 C 56.46 85.60 54.48 87.75 54.10 90.57 C 53.00 90.60 51.89 90.62 50.78 90.65 C 50.49 89.49 50.19 88.33 49.89 87.17 L 50.14 86.28 Z" />
</g>
<g id="#98968eff">
<path fill="#98968e" opacity="1.00" d=" M 54.10 90.57 C 54.48 87.75 56.46 85.60 58.12 83.43 L 58.80 83.74 C 59.14 90.38 56.72 96.65 55.12 102.97 C 53.73 103.35 52.34 103.73 50.95 104.12 C 51.67 101.48 52.42 98.85 53.07 96.19 C 53.49 94.33 53.78 92.45 54.10 90.57 Z" />
</g>
<g id="#51494aff">
<path fill="#51494a" opacity="1.00" d=" M 58.80 83.74 C 59.18 83.91 59.95 84.25 60.33 84.42 C 62.50 85.09 64.99 86.22 64.89 88.89 C 64.93 94.76 62.37 100.23 61.25 105.93 C 59.21 104.94 57.16 103.95 55.12 102.97 C 56.72 96.65 59.14 90.38 58.80 83.74 Z" />
</g>
<g id="#97948cff">
<path fill="#97948c" opacity="1.00" d=" M 49.61 86.38 L 49.89 87.17 C 50.19 88.33 50.49 89.49 50.78 90.65 C 50.50 91.24 49.94 92.41 49.65 93.00 C 47.96 97.07 47.14 101.44 45.99 105.68 C 45.04 105.81 43.13 106.08 42.18 106.21 C 44.15 99.46 44.88 91.93 49.61 86.38 Z" />
</g>
<g id="#555051ff">
<path fill="#555051" opacity="1.00" d=" M 79.62 101.20 C 81.19 96.82 82.22 92.21 84.46 88.10 C 85.91 88.07 87.35 88.01 88.79 88.14 C 90.38 89.39 90.60 91.48 90.39 93.35 C 89.20 97.05 87.83 100.68 86.64 104.38 C 84.30 103.32 81.96 102.26 79.62 101.20 Z" />
</g>
<g id="#41383aff">
<path fill="#41383a" opacity="1.00" d=" M 50.78 90.65 C 51.89 90.62 53.00 90.60 54.10 90.57 C 53.78 92.45 53.49 94.33 53.07 96.19 C 51.93 95.13 50.79 94.06 49.65 93.00 C 49.94 92.41 50.50 91.24 50.78 90.65 Z" />
</g>
<g id="#544e4fff">
<path fill="#544e4f" opacity="1.00" d=" M 93.93 95.47 C 97.50 94.28 101.01 92.91 104.48 91.46 C 107.98 98.43 103.46 105.52 101.59 112.23 C 99.29 111.11 97.02 109.96 94.78 108.74 C 96.12 105.05 97.34 101.31 98.17 97.47 C 97.52 97.73 96.20 98.26 95.54 98.53 C 95.08 99.73 94.63 100.93 94.16 102.13 C 94.87 99.91 95.12 97.57 93.93 95.47 Z" />
</g>
<g id="#4f4747ff">
<path fill="#4f4747" opacity="1.00" d=" M 45.99 105.68 C 47.14 101.44 47.96 97.07 49.65 93.00 C 50.79 94.06 51.93 95.13 53.07 96.19 C 52.42 98.85 51.67 101.48 50.95 104.12 C 50.67 105.13 50.39 106.15 50.12 107.17 C 48.74 106.67 47.37 106.18 45.99 105.68 Z" />
</g>
<g id="#225166ff">
<path fill="#225166" opacity="1.00" d=" M 79.62 101.20 C 81.96 102.26 84.30 103.32 86.64 104.38 C 85.28 107.07 85.52 111.12 82.56 112.62 C 82.17 111.96 81.38 110.65 80.98 109.99 C 79.66 109.48 78.33 108.96 76.99 108.50 C 78.02 106.12 78.80 103.65 79.62 101.20 Z" />
</g>
<g id="#3e9cb6ff">
<path fill="#3e9cb6" opacity="1.00" d=" M 50.95 104.12 C 52.34 103.73 53.73 103.35 55.12 102.97 C 54.50 105.34 54.03 107.77 53.03 110.02 C 51.83 110.86 50.32 111.08 48.97 111.59 C 49.34 110.11 49.72 108.64 50.12 107.17 C 50.39 106.15 50.67 105.13 50.95 104.12 Z" />
</g>
<g id="#20495bfe">
<path fill="#20495b" opacity="1.00" d=" M 55.12 102.97 C 57.16 103.95 59.21 104.94 61.25 105.93 C 60.66 108.40 59.95 110.83 59.17 113.25 C 57.80 113.57 56.43 113.90 55.07 114.23 C 53.68 113.62 52.30 113.01 50.91 112.41 C 50.43 112.21 49.46 111.80 48.97 111.59 C 50.32 111.08 51.83 110.86 53.03 110.02 C 54.03 107.77 54.50 105.34 55.12 102.97 Z" />
</g>
<g id="#bb4f3cfe">
<path fill="#bb4f3c" opacity="1.00" d=" M 42.00 106.23 L 42.18 106.21 C 43.13 106.08 45.04 105.81 45.99 105.68 C 45.32 108.10 44.64 110.51 43.96 112.93 C 43.10 113.09 41.40 113.42 40.54 113.59 C 40.65 112.93 40.85 111.60 40.95 110.94 C 41.21 109.35 41.62 107.79 42.00 106.23 Z" />
</g>
<g id="#60261dff">
<path fill="#60261d" opacity="1.00" d=" M 45.99 105.68 C 47.37 106.18 48.74 106.67 50.12 107.17 C 49.72 108.64 49.34 110.11 48.97 111.59 C 49.46 111.80 50.43 112.21 50.91 112.41 C 50.63 113.50 50.34 114.59 50.05 115.67 C 48.71 115.99 47.37 116.32 46.03 116.64 C 43.96 115.73 41.88 114.81 39.81 113.90 C 40.18 112.91 40.56 111.92 40.95 110.94 C 40.85 111.60 40.65 112.93 40.54 113.59 C 41.40 113.42 43.10 113.09 43.96 112.93 C 44.64 110.51 45.32 108.10 45.99 105.68 Z" />
</g>
<g id="#1a3d4aeb">
<path fill="#1a3d4a" opacity="0.92" d=" M 73.68 109.75 C 74.06 108.83 74.43 107.92 74.82 107.01 C 74.61 107.64 74.19 108.90 73.98 109.53 C 74.73 109.28 76.24 108.76 76.99 108.50 C 78.33 108.96 79.66 109.48 80.98 109.99 C 81.38 110.65 82.17 111.96 82.56 112.62 C 79.30 113.84 76.60 110.75 73.68 109.75 Z" />
</g>
<g id="#d26145f7">
<path fill="#d26145" opacity="0.97" d=" M 91.47 110.13 C 92.57 109.65 93.67 109.18 94.78 108.74 C 93.83 112.24 93.18 116.62 88.93 117.44 C 89.66 114.97 90.35 112.46 91.47 110.13 Z" />
</g>
<g id="#682b22ff">
<path fill="#682b22" opacity="1.00" d=" M 94.78 108.74 C 97.02 109.96 99.29 111.11 101.59 112.23 C 100.79 114.59 100.01 116.96 99.34 119.37 C 98.06 119.80 96.84 120.65 95.46 120.62 C 93.22 119.69 91.13 118.45 88.93 117.44 C 93.18 116.62 93.83 112.24 94.78 108.74 Z" />
</g>
</svg>
