<?xml version="1.0" encoding="UTF-8" ?>
<!DOCTYPE svg PUBLIC "-//W3C//DTD SVG 1.1//EN" "http://www.w3.org/Graphics/SVG/1.1/DTD/svg11.dtd">
<svg width="117pt" height="143pt" viewBox="0 0 117 143" version="1.1" xmlns="http://www.w3.org/2000/svg">
<g id="#c0a796f8">
<path fill="#c0a796" opacity="0.97" d=" M 35.15 10.21 C 38.21 6.65 42.78 10.50 45.66 12.35 C 48.66 13.53 46.49 17.47 45.98 19.82 C 42.63 18.32 39.67 21.74 36.31 21.93 C 36.17 21.49 35.90 20.60 35.76 20.16 C 34.81 16.96 34.81 13.50 35.15 10.21 Z" />
</g>
<g id="#bea592fc">
<path fill="#bea592" opacity="1.00" d=" M 27.11 19.21 C 29.49 18.45 34.33 15.29 34.09 20.01 C 32.61 23.59 33.30 27.19 35.79 30.13 C 37.28 33.18 38.48 36.40 38.01 39.91 C 36.64 42.61 34.06 44.35 31.85 46.33 C 31.55 46.00 30.93 45.34 30.62 45.01 L 30.83 44.34 C 32.96 42.65 35.70 40.17 34.80 37.15 C 33.68 34.83 32.84 32.39 32.08 29.93 C 31.30 25.93 25.90 23.63 27.11 19.21 Z" />
</g>
<g id="#948173fc">
<path fill="#948173" opacity="1.00" d=" M 49.03 19.01 C 50.02 14.45 53.79 19.25 55.88 20.21 C 56.81 24.21 51.27 26.22 51.16 29.74 C 55.11 32.03 60.76 33.27 62.18 38.24 C 56.78 39.25 56.02 45.32 52.92 48.99 C 48.35 46.93 43.65 52.14 41.84 56.07 C 40.47 55.88 39.11 55.64 37.77 55.31 C 42.85 50.91 46.74 45.25 51.02 40.10 C 50.51 40.03 49.47 39.90 48.96 39.83 C 51.42 39.18 50.33 37.02 49.73 35.29 C 47.70 33.54 45.25 32.36 43.12 30.75 C 42.89 27.96 44.81 25.58 45.58 22.99 C 47.81 25.44 47.76 20.04 49.03 19.01 Z" />
</g>
<g id="#a99181fe">
<path fill="#a99181" opacity="1.00" d=" M 36.31 21.93 C 39.67 21.74 42.63 18.32 45.98 19.82 C 45.88 20.62 45.68 22.20 45.58 22.99 C 44.81 25.58 42.89 27.96 43.12 30.75 C 45.25 32.36 47.70 33.54 49.73 35.29 C 50.33 37.02 51.42 39.18 48.96 39.83 C 47.71 40.59 46.46 41.34 45.23 42.12 C 46.36 35.70 40.55 32.61 35.79 30.13 C 33.30 27.19 32.61 23.59 34.09 20.01 C 34.51 20.05 35.35 20.12 35.76 20.16 C 35.90 20.60 36.17 21.49 36.31 21.93 Z" />
</g>
<g id="#c5afa0fe">
<path fill="#c5afa0" opacity="1.00" d=" M 30.16 29.94 C 30.64 29.93 31.60 29.93 32.08 29.93 C 32.84 32.39 33.68 34.83 34.80 37.15 C 35.70 40.17 32.96 42.65 30.83 44.34 C 28.81 41.85 27.21 39.03 24.98 36.71 C 26.49 34.60 30.88 33.52 30.35 30.69 L 30.16 29.94 Z" />
</g>
<g id="#ab988eff">
<path fill="#ab988e" opacity="1.00" d=" M 35.79 30.13 C 40.55 32.61 46.36 35.70 45.23 42.12 C 41.62 44.44 38.06 46.88 34.23 48.80 C 33.40 48.01 32.62 47.18 31.85 46.33 C 34.06 44.35 36.64 42.61 38.01 39.91 C 38.48 36.40 37.28 33.18 35.79 30.13 Z" />
</g>
<g id="#ebd8baf9">
<path fill="#ebd8ba" opacity="0.98" d=" M 18.73 47.25 C 19.05 40.19 24.04 33.66 30.35 30.69 C 30.88 33.52 26.49 34.60 24.98 36.71 C 22.70 38.75 21.74 41.85 20.89 44.70 C 20.58 45.64 20.27 46.59 19.96 47.54 C 19.65 47.47 19.03 47.32 18.73 47.25 Z" />
</g>
<g id="#58742af1">
<path fill="#58742a" opacity="0.95" d=" M 99.29 32.27 C 100.58 31.32 101.62 32.84 102.06 33.89 C 97.37 35.67 92.12 39.99 92.81 45.41 C 89.89 46.78 85.44 52.90 83.19 48.01 C 87.14 42.03 93.84 37.29 99.29 32.27 Z" />
</g>
<g id="#3f5a2afc">
<path fill="#3f5a2a" opacity="1.00" d=" M 92.81 45.41 C 92.12 39.99 97.37 35.67 102.06 33.89 C 103.37 34.45 104.35 35.69 105.08 36.88 C 101.90 39.32 98.43 41.33 95.17 43.66 C 94.58 44.10 93.40 44.97 92.81 45.41 Z" />
</g>
<g id="#d1baa9ff">
<path fill="#d1baa9" opacity="1.00" d=" M 20.89 44.70 C 21.74 41.85 22.70 38.75 24.98 36.71 C 24.67 41.21 25.70 45.57 27.05 49.80 C 26.82 50.15 26.35 50.83 26.12 51.17 C 25.85 50.64 25.32 49.58 25.05 49.05 C 24.21 47.16 23.20 45.01 20.89 44.70 Z" />
</g>
<g id="#5c4b44ff">
<path fill="#5c4b44" opacity="1.00" d=" M 24.98 36.71 C 27.21 39.03 28.81 41.85 30.83 44.34 L 30.62 45.01 C 29.79 46.73 31.72 48.20 32.07 49.84 C 30.63 49.85 29.20 49.73 27.77 49.79 L 27.05 49.80 C 25.70 45.57 24.67 41.21 24.98 36.71 Z" />
</g>
<g id="#577b37fe">
<path fill="#577b37" opacity="1.00" d=" M 95.17 43.66 C 98.43 41.33 101.90 39.32 105.08 36.88 C 107.30 37.34 110.35 39.72 110.61 41.81 C 110.44 42.38 110.11 43.50 109.94 44.06 C 102.53 42.32 96.31 48.04 92.94 54.01 C 91.67 54.36 90.42 54.74 89.17 55.15 C 90.50 53.31 91.13 51.15 90.97 48.87 C 91.98 46.88 96.44 46.15 95.17 43.66 Z" />
</g>
<g id="#766759fe">
<path fill="#766759" opacity="1.00" d=" M 62.18 38.24 C 64.09 39.33 65.21 43.44 65.11 46.05 C 64.91 47.15 65.49 49.33 63.66 48.44 C 59.35 47.18 57.29 59.37 54.23 52.93 C 53.79 51.62 53.32 50.32 52.92 48.99 C 56.02 45.32 56.78 39.25 62.18 38.24 Z" />
</g>
<g id="#4a3c36ff">
<path fill="#4a3c36" opacity="1.00" d=" M 45.23 42.12 C 46.46 41.34 47.71 40.59 48.96 39.83 C 49.47 39.90 50.51 40.03 51.02 40.10 C 46.74 45.25 42.85 50.91 37.77 55.31 C 36.32 56.28 35.05 57.49 33.80 58.71 L 32.98 58.74 C 31.15 55.81 29.38 52.85 27.77 49.79 C 29.20 49.73 30.63 49.85 32.07 49.84 C 31.72 48.20 29.79 46.73 30.62 45.01 C 30.93 45.34 31.55 46.00 31.85 46.33 C 32.62 47.18 33.40 48.01 34.23 48.80 C 38.06 46.88 41.62 44.44 45.23 42.12 Z" />
</g>
<g id="#7f8735fc">
<path fill="#7f8735" opacity="1.00" d=" M 109.94 44.06 C 110.11 43.50 110.44 42.38 110.61 41.81 C 112.09 43.36 113.38 45.12 113.84 47.26 C 112.60 46.58 111.40 45.84 110.21 45.08 L 109.94 44.06 Z" />
</g>
<g id="#83a528fd">
<path fill="#83a528" opacity="1.00" d=" M 92.81 45.41 C 93.40 44.97 94.58 44.10 95.17 43.66 C 96.44 46.15 91.98 46.88 90.97 48.87 C 84.95 54.29 81.09 61.82 73.93 65.92 C 73.95 65.51 74.00 64.70 74.03 64.29 C 78.82 60.56 82.56 55.85 86.02 50.90 C 84.27 51.33 81.92 53.98 81.28 50.98 C 81.00 49.68 82.62 49.01 83.19 48.01 C 85.44 52.90 89.89 46.78 92.81 45.41 Z" />
</g>
<g id="#43622cff">
<path fill="#43622c" opacity="1.00" d=" M 92.94 54.01 C 96.31 48.04 102.53 42.32 109.94 44.06 L 110.21 45.08 C 106.02 47.58 101.44 49.49 97.73 52.73 C 96.22 53.55 94.73 54.40 93.16 55.10 L 92.94 54.01 Z" />
</g>
<g id="#6e6159ff">
<path fill="#6e6159" opacity="1.00" d=" M 20.89 44.70 C 23.20 45.01 24.21 47.16 25.05 49.05 L 24.20 48.96 C 23.03 48.44 21.96 47.47 20.61 47.67 L 19.96 47.54 C 20.27 46.59 20.58 45.64 20.89 44.70 Z" />
</g>
<g id="#2c3f1af5">
<path fill="#2c3f1a" opacity="0.96" d=" M 110.21 45.08 C 111.40 45.84 112.60 46.58 113.84 47.26 L 114.01 47.96 C 108.42 50.03 103.83 54.65 98.02 55.97 C 97.95 55.16 97.80 53.54 97.73 52.73 C 101.44 49.49 106.02 47.58 110.21 45.08 Z" />
</g>
<g id="#5b4e3ffa">
<path fill="#5b4e3f" opacity="0.98" d=" M 65.11 46.05 L 66.04 45.99 C 65.75 50.31 66.78 54.95 64.88 59.03 C 61.50 54.54 57.80 60.50 54.33 62.07 C 54.05 60.58 54.04 58.72 52.05 58.75 C 52.50 57.86 52.91 56.96 53.29 56.04 C 53.69 55.03 54.01 53.99 54.23 52.93 C 57.29 59.37 59.35 47.18 63.66 48.44 C 65.49 49.33 64.91 47.15 65.11 46.05 Z" />
</g>
<g id="#ab9a8bec">
<path fill="#ab9a8b" opacity="0.93" d=" M 17.97 47.08 L 18.73 47.25 C 19.03 47.32 19.65 47.47 19.96 47.54 L 20.61 47.67 C 20.53 51.18 18.44 55.78 21.85 58.25 C 21.90 60.11 19.08 59.59 19.29 62.21 C 18.40 57.22 17.67 52.17 17.97 47.08 Z" />
</g>
<g id="#e6e8e8ff">
<path fill="#e6e8e8" opacity="1.00" d=" M 20.61 47.67 C 21.96 47.47 23.03 48.44 24.20 48.96 C 23.82 49.92 23.44 50.87 23.05 51.83 C 21.96 53.79 21.99 56.06 21.85 58.25 C 18.44 55.78 20.53 51.18 20.61 47.67 Z" />
</g>
<g id="#3b3633ff">
<path fill="#3b3633" opacity="1.00" d=" M 41.84 56.07 C 43.65 52.14 48.35 46.93 52.92 48.99 C 53.32 50.32 53.79 51.62 54.23 52.93 C 54.01 53.99 53.69 55.03 53.29 56.04 C 53.04 54.65 53.08 53.16 52.42 51.88 C 51.11 48.79 48.34 51.43 46.29 52.20 C 46.85 53.85 47.58 55.44 48.12 57.10 C 48.11 57.60 48.08 58.59 48.07 59.09 C 48.06 59.84 48.04 61.34 48.04 62.08 C 49.44 61.05 50.72 59.87 52.05 58.75 C 54.04 58.72 54.05 60.58 54.33 62.07 C 54.12 62.37 53.68 62.96 53.46 63.26 C 53.32 62.69 53.04 61.56 52.90 61.00 C 50.84 62.53 49.02 64.35 47.02 65.95 C 46.55 65.78 45.60 65.45 45.13 65.28 L 44.20 64.93 C 43.07 62.86 44.69 58.75 42.08 57.92 C 41.81 59.29 41.25 62.04 40.97 63.41 L 40.20 62.93 L 39.74 62.18 C 40.41 60.13 41.10 58.09 41.84 56.07 Z" />
</g>
<g id="#3d3534ff">
<path fill="#3d3534" opacity="1.00" d=" M 24.20 48.96 L 25.05 49.05 C 25.32 49.58 25.85 50.64 26.12 51.17 C 26.18 51.83 26.29 53.13 26.35 53.78 C 26.07 54.37 25.51 55.56 25.23 56.15 L 25.12 55.00 C 25.03 53.47 25.15 51.60 23.05 51.83 C 23.44 50.87 23.82 49.92 24.20 48.96 Z" />
</g>
<g id="#6f8822ff">
<path fill="#6f8822" opacity="1.00" d=" M 73.93 65.92 C 81.09 61.82 84.95 54.29 90.97 48.87 C 91.13 51.15 90.50 53.31 89.17 55.15 C 86.23 58.58 82.88 61.60 79.15 64.12 C 75.99 66.00 74.60 69.57 72.15 72.16 C 72.45 70.41 72.74 68.66 72.93 66.89 C 73.18 66.65 73.68 66.16 73.93 65.92 Z" />
</g>
<g id="#98867dff">
<path fill="#98867d" opacity="1.00" d=" M 27.05 49.80 L 27.77 49.79 C 29.38 52.85 31.15 55.81 32.98 58.74 C 31.92 59.01 30.90 59.38 29.92 59.86 C 29.45 60.10 28.53 60.56 28.06 60.80 C 27.66 58.42 27.01 56.10 26.35 53.78 C 26.29 53.13 26.18 51.83 26.12 51.17 C 26.35 50.83 26.82 50.15 27.05 49.80 Z" />
</g>
<g id="#a9a8a7ff">
<path fill="#a9a8a7" opacity="1.00" d=" M 46.29 52.20 C 48.34 51.43 51.11 48.79 52.42 51.88 C 51.63 54.09 49.61 55.40 48.12 57.10 C 47.58 55.44 46.85 53.85 46.29 52.20 Z" />
</g>
<g id="#a2c121f8">
<path fill="#a2c121" opacity="0.97" d=" M 81.28 50.98 C 81.92 53.98 84.27 51.33 86.02 50.90 C 82.56 55.85 78.82 60.56 74.03 64.29 C 73.74 63.97 73.16 63.33 72.87 63.01 C 74.33 58.39 78.15 54.68 81.28 50.98 Z" />
</g>
<g id="#7d735cf0">
<path fill="#7d735c" opacity="0.94" d=" M 23.05 51.83 C 25.15 51.60 25.03 53.47 25.12 55.00 C 21.00 53.92 21.82 62.25 24.91 62.24 L 25.24 62.81 C 20.59 61.98 20.85 66.89 20.33 70.26 C 19.97 67.58 19.22 64.91 19.29 62.21 C 19.08 59.59 21.90 60.11 21.85 58.25 C 21.99 56.06 21.96 53.79 23.05 51.83 Z" />
</g>
<g id="#7e7d7dff">
<path fill="#7e7d7d" opacity="1.00" d=" M 52.42 51.88 C 53.08 53.16 53.04 54.65 53.29 56.04 C 51.10 56.11 49.66 57.83 48.07 59.09 C 48.08 58.59 48.11 57.60 48.12 57.10 C 49.61 55.40 51.63 54.09 52.42 51.88 Z" />
</g>
<g id="#3c4612f1">
<path fill="#3c4612" opacity="0.95" d=" M 93.16 55.10 C 94.73 54.40 96.22 53.55 97.73 52.73 C 97.80 53.54 97.95 55.16 98.02 55.97 C 92.83 60.27 84.00 62.41 79.57 68.47 C 77.60 70.59 75.75 72.83 73.73 74.92 L 73.00 75.17 C 76.82 65.93 86.17 61.52 93.16 55.10 Z" />
</g>
<g id="#6a625dff">
<path fill="#6a625d" opacity="1.00" d=" M 26.35 53.78 C 27.01 56.10 27.66 58.42 28.06 60.80 C 27.04 61.33 25.99 61.81 24.91 62.24 C 24.99 60.21 25.07 58.18 25.23 56.15 C 25.51 55.56 26.07 54.37 26.35 53.78 Z" />
</g>
<g id="#58641aff">
<path fill="#58641a" opacity="1.00" d=" M 89.17 55.15 C 90.42 54.74 91.67 54.36 92.94 54.01 L 93.16 55.10 C 86.17 61.52 76.82 65.93 73.00 75.17 C 72.15 76.70 70.55 76.99 68.94 77.11 C 69.86 75.36 70.90 73.69 72.15 72.16 C 74.60 69.57 75.99 66.00 79.15 64.12 C 82.88 61.60 86.23 58.58 89.17 55.15 Z" />
</g>
<g id="#201b1aff">
<path fill="#201b1a" opacity="1.00" d=" M 24.91 62.24 C 21.82 62.25 21.00 53.92 25.12 55.00 L 25.23 56.15 C 25.07 58.18 24.99 60.21 24.91 62.24 Z" />
</g>
<g id="#806f64ff">
<path fill="#806f64" opacity="1.00" d=" M 33.80 58.71 C 35.05 57.49 36.32 56.28 37.77 55.31 C 39.11 55.64 40.47 55.88 41.84 56.07 C 41.10 58.09 40.41 60.13 39.74 62.18 C 38.85 61.74 37.97 61.29 37.11 60.82 C 36.02 60.10 34.91 59.40 33.80 58.71 Z" />
</g>
<g id="#626262ff">
<path fill="#626262" opacity="1.00" d=" M 48.07 59.09 C 49.66 57.83 51.10 56.11 53.29 56.04 C 52.91 56.96 52.50 57.86 52.05 58.75 C 50.72 59.87 49.44 61.05 48.04 62.08 C 48.04 61.34 48.06 59.84 48.07 59.09 Z" />
</g>
<g id="#504233fd">
<path fill="#504233" opacity="1.00" d=" M 54.33 62.07 C 57.80 60.50 61.50 54.54 64.88 59.03 C 65.30 60.77 64.40 62.38 63.86 63.98 C 59.28 61.43 55.24 64.95 51.91 67.93 C 51.48 67.73 50.63 67.32 50.21 67.12 C 49.87 66.93 49.19 66.55 48.86 66.36 C 50.56 65.64 52.65 65.12 53.46 63.26 C 53.68 62.96 54.12 62.37 54.33 62.07 Z" />
</g>
<g id="#908c85ff">
<path fill="#908c85" opacity="1.00" d=" M 42.08 57.92 C 44.69 58.75 43.07 62.86 44.20 64.93 C 43.68 64.74 42.65 64.36 42.13 64.16 C 41.84 63.98 41.26 63.60 40.97 63.41 C 41.25 62.04 41.81 59.29 42.08 57.92 Z" />
</g>
<g id="#e2b32aff">
<path fill="#e2b32a" opacity="1.00" d=" M 29.92 59.86 C 30.90 59.38 31.92 59.01 32.98 58.74 L 33.80 58.71 C 34.91 59.40 36.02 60.10 37.11 60.82 C 35.97 70.11 29.57 77.19 24.75 84.77 C 22.84 86.39 19.59 91.61 16.79 88.52 C 22.92 85.42 25.71 78.66 29.03 73.02 C 31.69 69.14 31.98 64.52 32.68 60.04 C 31.99 59.99 30.61 59.90 29.92 59.86 Z" />
</g>
<g id="#facd2fff">
<path fill="#facd2f" opacity="1.00" d=" M 28.06 60.80 C 28.53 60.56 29.45 60.10 29.92 59.86 C 30.61 59.90 31.99 59.99 32.68 60.04 C 31.98 64.52 31.69 69.14 29.03 73.02 C 25.71 78.66 22.92 85.42 16.79 88.52 L 16.05 87.97 C 15.99 87.22 15.89 85.73 15.84 84.98 C 18.08 82.81 20.65 80.77 21.57 77.65 C 23.09 72.81 27.97 68.15 25.24 62.81 L 24.91 62.24 C 25.99 61.81 27.04 61.33 28.06 60.80 Z" />
</g>
<g id="#c89e26ff">
<path fill="#c89e26" opacity="1.00" d=" M 37.11 60.82 C 37.97 61.29 38.85 61.74 39.74 62.18 L 40.20 62.93 C 36.18 73.17 29.33 81.93 21.88 89.92 C 20.88 90.56 19.87 91.20 18.87 91.85 C 17.22 91.56 15.93 89.65 16.05 87.97 L 16.79 88.52 C 19.59 91.61 22.84 86.39 24.75 84.77 C 29.57 77.19 35.97 70.11 37.11 60.82 Z" />
</g>
<g id="#252322ff">
<path fill="#252322" opacity="1.00" d=" M 47.02 65.95 C 49.02 64.35 50.84 62.53 52.90 61.00 C 53.04 61.56 53.32 62.69 53.46 63.26 C 52.65 65.12 50.56 65.64 48.86 66.36 C 48.40 66.26 47.48 66.05 47.02 65.95 Z" />
</g>
<g id="#fbee38fe">
<path fill="#fbee38" opacity="1.00" d=" M 20.33 70.26 C 20.85 66.89 20.59 61.98 25.24 62.81 C 27.97 68.15 23.09 72.81 21.57 77.65 C 20.65 80.77 18.08 82.81 15.84 84.98 L 15.76 83.87 C 16.78 80.86 18.16 77.99 19.00 74.93 C 19.42 73.36 19.94 71.83 20.33 70.26 Z" />
</g>
<g id="#b18a1fff">
<path fill="#b18a1f" opacity="1.00" d=" M 40.20 62.93 L 40.97 63.41 C 41.26 63.60 41.84 63.98 42.13 64.16 C 38.46 73.84 31.27 81.45 24.78 89.28 C 23.81 89.50 22.85 89.71 21.88 89.92 C 29.33 81.93 36.18 73.17 40.20 62.93 Z" />
</g>
<g id="#473b2bfc">
<path fill="#473b2b" opacity="1.00" d=" M 51.91 67.93 C 55.24 64.95 59.28 61.43 63.86 63.98 C 63.40 66.41 62.42 68.95 64.04 71.21 C 59.93 72.75 55.54 72.65 51.25 72.06 C 51.55 70.70 51.77 69.32 51.91 67.93 Z" />
</g>
<g id="#a9b940f5">
<path fill="#a9b940" opacity="0.96" d=" M 68.39 68.73 C 69.57 66.82 71.00 64.24 72.87 63.01 C 73.16 63.33 73.74 63.97 74.03 64.29 C 74.00 64.70 73.95 65.51 73.93 65.92 C 73.68 66.16 73.18 66.65 72.93 66.89 C 71.01 68.70 69.66 70.99 68.07 73.07 C 68.18 71.62 68.32 70.18 68.39 68.73 Z" />
</g>
<g id="#98751bff">
<path fill="#98751b" opacity="1.00" d=" M 42.13 64.16 C 42.65 64.36 43.68 64.74 44.20 64.93 L 45.13 65.28 C 42.74 70.86 37.25 74.60 35.01 80.13 C 33.68 81.78 32.26 83.36 30.89 84.97 C 28.94 86.51 27.26 88.57 24.78 89.28 C 31.27 81.45 38.46 73.84 42.13 64.16 Z" />
</g>
<g id="#8a6917ff">
<path fill="#8a6917" opacity="1.00" d=" M 45.13 65.28 C 45.60 65.45 46.55 65.78 47.02 65.95 C 45.40 68.65 43.57 71.23 42.02 73.98 C 39.66 76.01 37.37 78.10 35.01 80.13 C 37.25 74.60 42.74 70.86 45.13 65.28 Z" />
</g>
<g id="#785a13ff">
<path fill="#785a13" opacity="1.00" d=" M 47.02 65.95 C 47.48 66.05 48.40 66.26 48.86 66.36 C 49.19 66.55 49.87 66.93 50.21 67.12 C 47.84 69.82 44.99 71.98 42.02 73.98 C 43.57 71.23 45.40 68.65 47.02 65.95 Z" />
<path fill="#785a13" opacity="1.00" d=" M 35.01 80.13 C 37.37 78.10 39.66 76.01 42.02 73.98 C 40.09 78.83 35.43 82.63 30.89 84.97 C 32.26 83.36 33.68 81.78 35.01 80.13 Z" />
</g>
<g id="#674d11ff">
<path fill="#674d11" opacity="1.00" d=" M 50.21 67.12 C 50.63 67.32 51.48 67.73 51.91 67.93 C 51.77 69.32 51.55 70.70 51.25 72.06 L 50.90 72.80 C 50.20 73.48 49.51 74.16 48.81 74.85 C 47.44 75.77 46.08 76.71 44.78 77.74 C 42.43 79.37 40.13 81.10 37.88 82.87 C 36.41 84.03 35.09 85.37 33.73 86.66 C 32.76 87.27 31.80 87.90 30.87 88.56 C 29.63 89.15 28.39 89.73 27.14 90.28 C 26.55 90.03 25.37 89.53 24.78 89.28 C 27.26 88.57 28.94 86.51 30.89 84.97 C 35.43 82.63 40.09 78.83 42.02 73.98 C 44.99 71.98 47.84 69.82 50.21 67.12 Z" />
</g>
<g id="#8b923dff">
<path fill="#8b923d" opacity="1.00" d=" M 68.07 73.07 C 69.66 70.99 71.01 68.70 72.93 66.89 C 72.74 68.66 72.45 70.41 72.15 72.16 C 70.90 73.69 69.86 75.36 68.94 77.11 C 68.47 77.37 67.52 77.90 67.05 78.16 C 63.01 78.57 67.27 74.72 68.07 73.07 Z" />
</g>
<g id="#c2bc72ff">
<path fill="#c2bc72" opacity="1.00" d=" M 64.31 72.21 C 65.51 70.89 66.74 69.49 68.39 68.73 C 68.32 70.18 68.18 71.62 68.07 73.07 C 67.27 74.72 63.01 78.57 67.05 78.16 C 65.77 78.85 64.43 79.42 63.13 80.05 C 62.66 80.10 61.73 80.18 61.26 80.23 L 61.08 79.23 C 61.68 78.16 62.33 77.12 62.90 76.03 C 63.58 74.84 63.94 73.51 64.31 72.21 Z" />
</g>
<g id="#d8c09efd">
<path fill="#d8c09e" opacity="1.00" d=" M 73.73 74.92 C 75.75 72.83 77.60 70.59 79.57 68.47 C 81.01 68.79 82.27 69.45 83.34 70.47 C 81.87 73.87 78.10 74.67 75.14 76.27 C 74.79 75.93 74.08 75.25 73.73 74.92 Z" />
</g>
<g id="#806f63fe">
<path fill="#806f63" opacity="1.00" d=" M 83.34 70.47 C 85.13 70.29 85.99 76.38 87.25 78.27 C 81.97 76.91 76.94 80.76 75.80 85.88 C 73.65 90.32 75.82 96.92 69.99 98.96 C 63.41 102.81 54.30 105.07 51.25 112.77 L 52.06 113.18 C 50.28 114.39 48.10 115.17 46.74 116.91 C 46.21 117.62 45.72 118.36 45.26 119.12 C 45.46 117.50 44.97 117.02 43.78 117.67 C 43.38 117.79 42.58 118.03 42.18 118.15 C 41.95 117.80 41.47 117.10 41.23 116.74 L 40.94 115.86 C 47.80 110.87 49.15 101.67 56.15 96.97 C 51.92 97.54 49.02 101.24 44.90 102.06 C 49.92 96.60 55.61 89.22 63.92 89.82 C 69.39 88.99 70.14 82.83 71.49 78.53 C 72.72 77.80 73.98 77.10 75.14 76.27 C 78.10 74.67 81.87 73.87 83.34 70.47 Z" />
</g>
<g id="#6d5d4dff">
<path fill="#6d5d4d" opacity="1.00" d=" M 51.25 72.06 C 55.54 72.65 59.93 72.75 64.04 71.21 L 64.31 72.21 C 63.94 73.51 63.58 74.84 62.90 76.03 C 60.70 75.39 58.52 74.65 56.24 74.34 C 54.43 73.93 52.67 73.35 50.90 72.80 L 51.25 72.06 Z" />
</g>
<g id="#887c68ff">
<path fill="#887c68" opacity="1.00" d=" M 48.81 74.85 C 49.51 74.16 50.20 73.48 50.90 72.80 C 52.67 73.35 54.43 73.93 56.24 74.34 C 53.77 74.57 51.29 74.74 48.81 74.85 Z" />
</g>
<g id="#9c8c79ff">
<path fill="#9c8c79" opacity="1.00" d=" M 56.24 74.34 C 58.52 74.65 60.70 75.39 62.90 76.03 C 62.33 77.12 61.68 78.16 61.08 79.23 C 59.57 79.64 57.90 80.44 56.42 79.49 C 52.88 77.61 48.65 78.19 44.78 77.74 C 46.08 76.71 47.44 75.77 48.81 74.85 C 51.29 74.74 53.77 74.57 56.24 74.34 Z" />
</g>
<g id="#a1886df3">
<path fill="#a1886d" opacity="0.95" d=" M 12.33 97.28 C 10.66 89.37 13.47 80.46 19.00 74.93 C 18.16 77.99 16.78 80.86 15.76 83.87 C 15.04 85.82 14.39 87.81 13.84 89.82 C 13.24 92.28 12.95 94.82 12.33 97.28 Z" />
</g>
<g id="#917f75ff">
<path fill="#917f75" opacity="1.00" d=" M 73.00 75.17 L 73.73 74.92 C 74.08 75.25 74.79 75.93 75.14 76.27 C 73.98 77.10 72.72 77.80 71.49 78.53 C 70.14 82.83 69.39 88.99 63.92 89.82 C 55.61 89.22 49.92 96.60 44.90 102.06 C 49.02 101.24 51.92 97.54 56.15 96.97 C 49.15 101.67 47.80 110.87 40.94 115.86 L 40.14 115.86 L 39.78 114.95 C 39.23 113.54 38.53 112.20 37.82 110.87 C 38.63 108.23 41.56 107.25 43.16 105.17 C 41.44 105.08 38.84 106.85 37.68 105.07 C 44.16 100.05 49.53 93.90 54.16 87.18 C 57.52 85.24 61.70 84.07 63.13 80.05 C 64.43 79.42 65.77 78.85 67.05 78.16 C 67.52 77.90 68.47 77.37 68.94 77.11 C 70.55 76.99 72.15 76.70 73.00 75.17 Z" />
</g>
<g id="#ac9c88ff">
<path fill="#ac9c88" opacity="1.00" d=" M 37.88 82.87 C 40.13 81.10 42.43 79.37 44.78 77.74 C 48.65 78.19 52.88 77.61 56.42 79.49 C 57.90 80.44 59.57 79.64 61.08 79.23 L 61.26 80.23 C 57.02 81.55 53.12 83.62 49.17 85.62 C 45.08 86.40 41.27 85.20 37.88 82.87 Z" />
</g>
<g id="#6f6052fe">
<path fill="#6f6052" opacity="1.00" d=" M 75.80 85.88 C 76.94 80.76 81.97 76.91 87.25 78.27 C 88.74 79.08 88.74 82.21 89.00 83.98 C 88.98 85.78 88.92 89.38 88.90 91.18 C 87.81 89.56 86.73 87.93 85.57 86.36 C 83.88 85.05 82.22 86.97 81.29 88.27 C 79.78 92.55 79.29 97.21 77.27 101.30 C 74.81 104.83 71.83 107.98 69.66 111.72 C 66.17 114.69 62.73 117.69 59.75 121.18 C 58.89 121.50 58.02 121.80 57.15 122.10 C 55.41 122.46 53.68 122.89 51.90 122.96 C 56.38 118.29 61.02 113.68 63.98 107.86 C 59.90 108.31 56.47 110.88 52.90 112.70 L 52.06 113.18 L 51.25 112.77 C 54.30 105.07 63.41 102.81 69.99 98.96 C 75.82 96.92 73.65 90.32 75.80 85.88 Z" />
</g>
<g id="#9b897fff">
<path fill="#9b897f" opacity="1.00" d=" M 61.26 80.23 C 61.73 80.18 62.66 80.10 63.13 80.05 C 61.70 84.07 57.52 85.24 54.16 87.18 C 49.53 93.90 44.16 100.05 37.68 105.07 C 37.08 104.19 36.54 103.28 35.96 102.38 C 41.89 99.67 44.23 93.23 46.82 87.72 C 47.59 87.00 48.37 86.30 49.17 85.62 C 53.12 83.62 57.02 81.55 61.26 80.23 Z" />
</g>
<g id="#baaa97ff">
<path fill="#baaa97" opacity="1.00" d=" M 33.73 86.66 C 35.09 85.37 36.41 84.03 37.88 82.87 C 41.27 85.20 45.08 86.40 49.17 85.62 C 48.37 86.30 47.59 87.00 46.82 87.72 C 45.22 88.64 43.72 89.72 42.18 90.75 C 38.82 90.85 36.27 88.53 33.73 86.66 Z" />
</g>
<g id="#ded0b8fe">
<path fill="#ded0b8" opacity="1.00" d=" M 13.84 89.82 C 14.39 87.81 15.04 85.82 15.76 83.87 L 15.84 84.98 C 15.89 85.73 15.99 87.22 16.05 87.97 C 15.93 89.65 17.22 91.56 18.87 91.85 C 21.51 92.27 24.11 91.58 26.63 90.87 C 25.70 94.52 27.11 98.21 26.98 101.90 C 25.30 105.22 20.84 106.88 20.77 110.97 C 17.88 109.03 17.47 104.01 15.10 101.02 C 14.86 97.27 14.27 93.55 13.84 89.82 Z" />
</g>
<g id="#231f1796">
<path fill="#231f17" opacity="0.59" d=" M 89.00 83.98 L 89.99 84.01 C 90.00 88.32 90.16 92.65 89.96 96.97 L 89.02 97.02 C 89.01 95.07 88.97 93.12 88.90 91.18 C 88.92 89.38 88.98 85.78 89.00 83.98 Z" />
</g>
<g id="#605343fe">
<path fill="#605343" opacity="1.00" d=" M 81.29 88.27 C 82.22 86.97 83.88 85.05 85.57 86.36 C 86.73 87.93 87.81 89.56 88.90 91.18 C 88.97 93.12 89.01 95.07 89.02 97.02 C 88.81 100.16 87.71 103.18 86.74 106.17 C 85.88 104.64 85.12 103.03 84.00 101.67 C 81.73 104.17 81.76 108.03 79.57 110.66 C 76.63 114.51 74.18 118.70 71.82 122.92 C 68.16 124.05 65.26 119.31 61.78 121.99 C 61.28 121.79 60.26 121.39 59.75 121.18 C 62.73 117.69 66.17 114.69 69.66 111.72 C 71.83 107.98 74.81 104.83 77.27 101.30 C 79.29 97.21 79.78 92.55 81.29 88.27 Z" />
</g>
<g id="#c3b5a2ff">
<path fill="#c3b5a2" opacity="1.00" d=" M 30.87 88.56 C 31.80 87.90 32.76 87.27 33.73 86.66 C 36.27 88.53 38.82 90.85 42.18 90.75 C 40.85 91.72 39.57 92.75 38.18 93.64 C 36.86 93.60 35.54 93.70 34.23 93.68 C 32.93 92.10 32.03 90.24 30.87 88.56 Z" />
</g>
<g id="#a7958bff">
<path fill="#a7958b" opacity="1.00" d=" M 42.18 90.75 C 43.72 89.72 45.22 88.64 46.82 87.72 C 44.23 93.23 41.89 99.67 35.96 102.38 L 35.21 101.94 C 32.73 98.52 35.10 95.47 38.18 93.64 C 39.57 92.75 40.85 91.72 42.18 90.75 Z" />
</g>
<g id="#886b20ff">
<path fill="#886b20" opacity="1.00" d=" M 21.88 89.92 C 22.85 89.71 23.81 89.50 24.78 89.28 C 25.37 89.53 26.55 90.03 27.14 90.28 L 26.63 90.87 C 24.11 91.58 21.51 92.27 18.87 91.85 C 19.87 91.20 20.88 90.56 21.88 89.92 Z" />
</g>
<g id="#cbc0acff">
<path fill="#cbc0ac" opacity="1.00" d=" M 27.14 90.28 C 28.39 89.73 29.63 89.15 30.87 88.56 C 32.03 90.24 32.93 92.10 34.23 93.68 C 35.54 93.70 36.86 93.60 38.18 93.64 C 35.10 95.47 32.73 98.52 35.21 101.94 C 34.88 108.41 26.33 109.29 22.76 113.81 C 21.32 114.06 20.88 112.05 20.77 110.97 C 20.84 106.88 25.30 105.22 26.98 101.90 C 27.11 98.21 25.70 94.52 26.63 90.87 L 27.14 90.28 Z" />
</g>
<g id="#756a59f5">
<path fill="#756a59" opacity="0.96" d=" M 12.33 97.28 C 12.95 94.82 13.24 92.28 13.84 89.82 C 14.27 93.55 14.86 97.27 15.10 101.02 C 13.75 100.31 11.45 99.15 12.33 97.28 Z" />
</g>
<g id="#bcb09bfe">
<path fill="#bcb09b" opacity="1.00" d=" M 35.21 101.94 L 35.96 102.38 C 36.54 103.28 37.08 104.19 37.68 105.07 C 38.84 106.85 41.44 105.08 43.16 105.17 C 41.56 107.25 38.63 108.23 37.82 110.87 C 33.36 112.95 28.98 115.81 23.92 115.89 L 23.01 115.96 C 22.95 115.42 22.82 114.35 22.76 113.81 C 26.33 109.29 34.88 108.41 35.21 101.94 Z" />
</g>
<g id="#504333f8">
<path fill="#504333" opacity="0.97" d=" M 79.57 110.66 C 81.76 108.03 81.73 104.17 84.00 101.67 C 85.12 103.03 85.88 104.64 86.74 106.17 C 86.50 110.08 86.50 114.22 84.80 117.84 C 81.32 121.01 76.62 123.28 71.82 122.92 C 74.18 118.70 76.63 114.51 79.57 110.66 Z" />
</g>
<g id="#827166ff">
<path fill="#827166" opacity="1.00" d=" M 52.90 112.70 C 56.47 110.88 59.90 108.31 63.98 107.86 C 61.02 113.68 56.38 118.29 51.90 122.96 C 51.05 122.60 50.35 122.03 49.80 121.24 C 49.76 119.58 49.60 117.94 49.54 116.28 C 50.69 115.09 55.37 114.57 52.90 112.70 Z" />
</g>
<g id="#a89d87fc">
<path fill="#a89d87" opacity="1.00" d=" M 23.92 115.89 C 28.98 115.81 33.36 112.95 37.82 110.87 C 38.53 112.20 39.23 113.54 39.78 114.95 C 38.92 115.87 38.11 116.82 37.30 117.78 C 34.17 116.85 31.11 119.46 28.00 119.97 C 27.71 119.75 27.15 119.32 26.87 119.11 C 25.78 118.17 24.37 117.33 23.92 115.89 Z" />
</g>
<g id="#9b897bff">
<path fill="#9b897b" opacity="1.00" d=" M 52.06 113.18 L 52.90 112.70 C 55.37 114.57 50.69 115.09 49.54 116.28 C 49.60 117.94 49.76 119.58 49.80 121.24 C 48.58 119.95 47.65 118.42 46.74 116.91 C 48.10 115.17 50.28 114.39 52.06 113.18 Z" />
</g>
<g id="#f2f2e5ff">
<path fill="#f2f2e5" opacity="1.00" d=" M 37.30 117.78 C 38.11 116.82 38.92 115.87 39.78 114.95 L 40.14 115.86 C 38.67 119.47 37.47 123.21 35.66 126.67 C 35.18 128.27 33.59 128.16 32.66 127.01 C 32.85 126.54 33.22 125.61 33.41 125.15 C 34.63 122.65 35.89 120.17 37.30 117.78 Z" />
</g>
<g id="#e0e0ccff">
<path fill="#e0e0cc" opacity="1.00" d=" M 40.14 115.86 L 40.94 115.86 L 41.23 116.74 C 38.93 121.15 38.57 127.20 33.92 129.96 C 33.45 129.97 32.51 129.99 32.04 130.00 C 31.95 129.46 31.76 128.37 31.67 127.82 C 31.92 127.62 32.42 127.21 32.66 127.01 C 33.59 128.16 35.18 128.27 35.66 126.67 C 37.47 123.21 38.67 119.47 40.14 115.86 Z" />
</g>
<g id="#988a70ff">
<path fill="#988a70" opacity="1.00" d=" M 28.00 119.97 C 31.11 119.46 34.17 116.85 37.30 117.78 C 35.89 120.17 34.63 122.65 33.41 125.15 C 32.44 122.70 29.81 121.68 28.00 119.97 Z" />
</g>
<g id="#c7c9b7ff">
<path fill="#c7c9b7" opacity="1.00" d=" M 41.23 116.74 C 41.47 117.10 41.95 117.80 42.18 118.15 C 40.14 122.30 40.16 130.47 33.92 129.96 C 38.57 127.20 38.93 121.15 41.23 116.74 Z" />
</g>
<g id="#8e8a75fe">
<path fill="#8e8a75" opacity="1.00" d=" M 43.78 117.67 C 44.97 117.02 45.46 117.50 45.26 119.12 C 44.45 121.01 43.55 122.87 42.80 124.79 C 41.62 127.14 41.26 130.77 38.06 131.17 C 40.78 127.07 42.40 122.36 43.78 117.67 Z" />
</g>
<g id="#675d45f9">
<path fill="#675d45" opacity="0.98" d=" M 45.26 119.12 C 45.72 118.36 46.21 117.62 46.74 116.91 C 47.65 118.42 48.58 119.95 49.80 121.24 C 50.35 122.03 51.05 122.60 51.90 122.96 C 53.68 122.89 55.41 122.46 57.15 122.10 L 56.72 122.84 C 55.41 123.79 54.07 124.72 52.83 125.77 C 49.58 126.71 46.14 126.77 42.95 127.88 C 42.91 127.11 42.83 125.56 42.80 124.79 C 43.55 122.87 44.45 121.01 45.26 119.12 Z" />
</g>
<g id="#ada891ff">
<path fill="#ada891" opacity="1.00" d=" M 42.18 118.15 C 42.58 118.03 43.38 117.79 43.78 117.67 C 42.40 122.36 40.78 127.07 38.06 131.17 C 36.71 131.63 35.34 132.00 33.96 132.35 C 33.51 131.99 32.62 131.28 32.17 130.92 L 32.04 130.00 C 32.51 129.99 33.45 129.97 33.92 129.96 C 40.16 130.47 40.14 122.30 42.18 118.15 Z" />
</g>
<g id="#715015eb">
<path fill="#715015" opacity="0.92" d=" M 26.87 119.11 C 27.15 119.32 27.71 119.75 28.00 119.97 C 29.81 121.68 32.44 122.70 33.41 125.15 C 33.22 125.61 32.85 126.54 32.66 127.01 C 32.42 127.21 31.92 127.62 31.67 127.82 C 30.76 128.46 29.87 129.14 28.97 129.80 C 29.29 126.04 26.72 122.85 26.87 119.11 Z" />
</g>
<g id="#5d4410f1">
<path fill="#5d4410" opacity="0.95" d=" M 57.15 122.10 C 58.02 121.80 58.89 121.50 59.75 121.18 C 60.26 121.39 61.28 121.79 61.78 121.99 L 61.95 122.72 C 57.86 123.06 60.79 128.57 59.76 131.30 C 57.87 128.83 56.54 126.04 56.72 122.84 L 57.15 122.10 Z" />
</g>
<g id="#896415fb">
<path fill="#896415" opacity="1.00" d=" M 52.83 125.77 C 54.07 124.72 55.41 123.79 56.72 122.84 C 56.54 126.04 57.87 128.83 59.76 131.30 L 59.81 132.25 C 57.05 132.03 54.22 131.98 52.12 130.02 C 52.17 128.58 52.59 127.18 52.83 125.77 Z" />
</g>
<g id="#7b7154fc">
<path fill="#7b7154" opacity="1.00" d=" M 38.06 131.17 C 41.26 130.77 41.62 127.14 42.80 124.79 C 42.83 125.56 42.91 127.11 42.95 127.88 C 43.14 129.80 41.81 131.40 40.89 132.96 C 39.26 133.00 35.98 133.10 34.34 133.15 L 33.96 132.35 C 35.34 132.00 36.71 131.63 38.06 131.17 Z" />
</g>
<g id="#c19420fa">
<path fill="#c19420" opacity="0.98" d=" M 28.97 129.80 C 29.87 129.14 30.76 128.46 31.67 127.82 C 31.76 128.37 31.95 129.46 32.04 130.00 L 32.17 130.92 C 31.87 132.62 31.44 134.30 30.96 135.96 C 30.66 136.45 30.06 137.42 29.77 137.91 C 26.44 137.46 20.46 138.45 19.05 136.04 C 21.98 134.11 25.13 132.59 28.55 131.76 C 28.53 131.51 28.48 131.00 28.45 130.74 C 28.58 130.51 28.84 130.04 28.97 129.80 Z" />
</g>
<g id="#c49520fb">
<path fill="#c49520" opacity="1.00" d=" M 52.12 130.02 C 54.22 131.98 57.05 132.03 59.81 132.25 C 62.33 133.47 64.13 135.66 66.24 137.42 C 65.38 140.87 60.68 138.44 58.07 139.00 C 58.04 137.65 57.97 136.30 57.88 134.95 C 55.44 134.47 54.95 137.16 54.84 138.97 C 53.23 138.98 51.62 138.99 50.01 139.02 C 48.24 139.01 44.72 138.97 42.95 138.96 C 43.09 133.88 51.05 134.90 52.12 130.02 Z" />
</g>
<g id="#d4a926ee">
<path fill="#d4a926" opacity="0.93" d=" M 15.15 134.18 C 18.69 131.27 24.04 131.45 28.45 130.74 C 28.48 131.00 28.53 131.51 28.55 131.76 C 25.13 132.59 21.98 134.11 19.05 136.04 C 17.46 135.84 13.88 136.98 15.15 134.18 Z" />
</g>
<g id="#a37618ff">
<path fill="#a37618" opacity="1.00" d=" M 32.17 130.92 C 32.62 131.28 33.51 131.99 33.96 132.35 L 34.34 133.15 C 33.25 134.12 32.13 135.07 30.96 135.96 C 31.44 134.30 31.87 132.62 32.17 130.92 Z" />
</g>
<g id="#6f5513f4">
<path fill="#6f5513" opacity="0.96" d=" M 34.34 133.15 C 35.98 133.10 39.26 133.00 40.89 132.96 C 40.90 133.43 40.92 134.37 40.92 134.84 C 37.54 136.58 33.66 138.19 29.77 137.91 C 30.06 137.42 30.66 136.45 30.96 135.96 C 32.13 135.07 33.25 134.12 34.34 133.15 Z" />
</g>
<g id="#aa831cfe">
<path fill="#aa831c" opacity="1.00" d=" M 54.84 138.97 C 54.95 137.16 55.44 134.47 57.88 134.95 C 57.97 136.30 58.04 137.65 58.07 139.00 C 57.26 138.99 55.65 138.97 54.84 138.97 Z" />
</g>
<g id="#1b150462">
<path fill="#1b1504" opacity="0.38" d=" M 66.24 137.42 C 68.28 135.49 66.78 147.28 62.00 140.03 C 58.90 138.80 51.42 142.06 50.01 139.02 C 51.62 138.99 53.23 138.98 54.84 138.97 C 55.65 138.97 57.26 138.99 58.07 139.00 C 60.68 138.44 65.38 140.87 66.24 137.42 Z" />
</g>
</svg>
