<?xml version="1.0" encoding="UTF-8" ?>
<!DOCTYPE svg PUBLIC "-//W3C//DTD SVG 1.1//EN" "http://www.w3.org/Graphics/SVG/1.1/DTD/svg11.dtd">
<svg width="118pt" height="201pt" viewBox="0 0 118 201" version="1.1" xmlns="http://www.w3.org/2000/svg">
<g id="#deb172f0">
<path fill="#deb172" opacity="0.94" d=" M 73.82 7.56 C 78.37 4.05 84.30 4.67 89.73 4.52 C 90.55 6.21 93.30 4.52 93.22 6.34 C 90.84 7.79 88.27 7.48 85.76 6.61 C 82.26 7.04 78.96 9.02 75.32 8.43 C 73.82 9.55 72.57 10.99 70.96 11.96 C 70.70 9.90 70.90 6.46 73.82 7.56 Z" />
</g>
<g id="#d99864fb">
<path fill="#d99864" opacity="1.00" d=" M 75.32 8.43 C 78.96 9.02 82.26 7.04 85.76 6.61 C 88.27 7.48 90.84 7.79 93.22 6.34 C 94.24 6.38 94.72 8.61 96.58 8.40 C 97.27 10.72 101.44 9.28 99.18 12.34 C 97.05 12.44 95.24 10.80 93.09 10.98 C 90.06 12.47 88.46 16.56 84.15 15.35 C 79.29 16.94 75.15 20.10 70.88 22.83 C 70.33 23.10 69.22 23.64 68.67 23.91 C 66.04 25.91 69.21 30.02 70.20 32.32 C 69.98 33.26 69.75 34.19 69.53 35.13 C 67.75 31.72 64.83 28.14 65.79 24.09 C 63.55 20.75 69.31 18.82 67.05 15.01 C 67.19 13.18 69.73 12.99 70.96 11.96 C 72.57 10.99 73.82 9.55 75.32 8.43 Z" />
</g>
<g id="#e0b477ef">
<path fill="#e0b477" opacity="0.94" d=" M 27.70 8.59 C 29.60 8.85 33.77 5.85 34.33 8.24 C 31.17 10.74 26.69 10.29 23.13 12.14 C 21.13 12.27 22.92 15.88 20.87 15.84 C 17.04 15.44 16.22 20.19 17.82 22.86 C 17.51 25.57 16.46 28.43 17.88 30.96 C 16.96 31.26 16.06 31.59 15.16 31.95 C 13.60 29.74 15.08 27.32 14.27 24.98 C 15.88 20.91 14.89 15.86 19.55 13.56 C 20.32 10.14 24.73 9.52 27.70 8.59 Z" />
</g>
<g id="#de9c68ff">
<path fill="#de9c68" opacity="1.00" d=" M 34.33 8.24 C 38.24 7.46 44.07 9.26 45.33 13.26 C 42.82 13.71 40.03 12.41 37.75 13.77 C 32.46 17.14 26.08 19.10 21.77 23.83 C 20.47 23.44 19.15 23.13 17.82 22.86 C 16.22 20.19 17.04 15.44 20.87 15.84 C 22.92 15.88 21.13 12.27 23.13 12.14 C 26.69 10.29 31.17 10.74 34.33 8.24 Z" />
</g>
<g id="#c98e60ff">
<path fill="#c98e60" opacity="1.00" d=" M 84.15 15.35 C 88.46 16.56 90.06 12.47 93.09 10.98 C 95.24 10.80 97.05 12.44 99.18 12.34 C 100.77 12.19 101.28 13.87 100.72 15.15 C 99.93 14.84 99.13 14.56 98.33 14.30 C 96.88 18.17 94.83 21.81 92.48 25.20 C 90.88 21.92 87.41 21.15 84.78 23.77 C 80.80 23.70 76.60 23.56 73.21 25.92 C 71.91 24.35 71.65 27.60 69.91 27.08 C 70.00 25.62 70.38 24.20 70.88 22.83 C 75.15 20.10 79.29 16.94 84.15 15.35 Z" />
</g>
<g id="#c68a5bfd">
<path fill="#c68a5b" opacity="1.00" d=" M 37.75 13.77 C 40.03 12.41 42.82 13.71 45.33 13.26 C 47.76 11.99 49.21 14.38 46.78 15.65 C 43.13 16.48 41.93 19.98 40.43 22.97 C 37.99 20.16 34.85 21.27 32.97 24.01 C 29.14 23.33 25.69 24.63 22.97 27.16 C 22.56 26.05 22.16 24.94 21.77 23.83 C 26.08 19.10 32.46 17.14 37.75 13.77 Z" />
</g>
<g id="#b07b4df8">
<path fill="#b07b4d" opacity="0.97" d=" M 98.33 14.30 C 99.13 14.56 99.93 14.84 100.72 15.15 C 101.04 17.45 104.99 18.63 102.99 21.00 C 101.37 22.97 104.01 24.72 103.97 26.75 C 100.37 26.58 103.61 29.78 102.78 31.64 C 98.25 32.83 98.87 40.28 93.21 39.17 C 97.00 35.17 103.39 29.97 99.84 23.97 C 96.77 27.08 95.04 34.21 89.68 31.37 C 91.22 29.61 92.13 27.50 92.48 25.20 C 94.83 21.81 96.88 18.17 98.33 14.30 Z" />
</g>
<g id="#af784cfb">
<path fill="#af784c" opacity="1.00" d=" M 40.43 22.97 C 41.93 19.98 43.13 16.48 46.78 15.65 C 47.79 15.83 50.11 16.27 49.56 17.73 C 48.22 20.22 52.53 21.75 50.24 24.29 C 49.86 24.21 49.09 24.05 48.70 23.97 C 48.93 22.44 48.12 20.27 46.21 21.13 C 44.37 23.30 43.00 25.83 41.13 27.99 C 40.97 26.30 40.73 24.63 40.43 22.97 Z" />
</g>
<g id="#4b433dff">
<path fill="#4b433d" opacity="1.00" d=" M 32.97 24.01 C 34.85 21.27 37.99 20.16 40.43 22.97 C 40.73 24.63 40.97 26.30 41.13 27.99 C 39.95 30.38 37.29 30.06 35.06 29.86 C 34.37 29.09 33.68 28.34 32.97 27.60 L 32.94 26.75 C 32.95 26.06 32.96 24.70 32.97 24.01 Z" />
</g>
<g id="#9d6a40ff">
<path fill="#9d6a40" opacity="1.00" d=" M 46.21 21.13 C 48.12 20.27 48.93 22.44 48.70 23.97 C 44.70 27.43 43.79 36.21 37.23 34.88 C 36.61 33.43 33.29 30.77 35.06 29.86 C 37.29 30.06 39.95 30.38 41.13 27.99 C 43.00 25.83 44.37 23.30 46.21 21.13 Z" />
</g>
<g id="#453e39ff">
<path fill="#453e39" opacity="1.00" d=" M 84.78 23.77 C 87.41 21.15 90.88 21.92 92.48 25.20 C 92.13 27.50 91.22 29.61 89.68 31.37 C 88.44 31.12 87.20 30.86 85.96 30.61 C 85.38 30.02 84.80 29.44 84.22 28.86 C 84.13 28.37 83.97 27.41 83.88 26.93 C 84.17 25.87 84.46 24.82 84.78 23.77 Z" />
</g>
<g id="#554c43ff">
<path fill="#554c43" opacity="1.00" d=" M 17.82 22.86 C 19.15 23.13 20.47 23.44 21.77 23.83 C 22.16 24.94 22.56 26.05 22.97 27.16 C 23.04 27.66 23.18 28.66 23.25 29.16 C 22.12 29.71 20.95 30.20 19.80 30.71 C 19.32 30.78 18.36 30.90 17.88 30.96 C 16.46 28.43 17.51 25.57 17.82 22.86 Z" />
</g>
<g id="#2c2724ff">
<path fill="#2c2724" opacity="1.00" d=" M 68.67 23.91 C 69.22 23.64 70.33 23.10 70.88 22.83 C 70.38 24.20 70.00 25.62 69.91 27.08 C 71.65 27.60 71.91 24.35 73.21 25.92 L 73.14 26.96 C 72.70 28.32 73.59 30.55 72.06 31.30 C 70.59 28.99 68.70 26.80 68.67 23.91 Z" />
</g>
<g id="#b27e55ff">
<path fill="#b27e55" opacity="1.00" d=" M 22.97 27.16 C 25.69 24.63 29.14 23.33 32.97 24.01 C 32.96 24.70 32.95 26.06 32.94 26.75 C 30.38 26.55 28.70 28.24 27.08 29.93 C 27.66 26.82 24.84 28.73 23.25 29.16 C 23.18 28.66 23.04 27.66 22.97 27.16 Z" />
</g>
<g id="#92623bfc">
<path fill="#92623b" opacity="1.00" d=" M 37.23 34.88 C 43.79 36.21 44.70 27.43 48.70 23.97 C 49.09 24.05 49.86 24.21 50.24 24.29 C 52.71 23.19 52.08 29.54 50.82 30.78 C 51.12 36.72 45.13 40.75 40.52 43.80 C 39.93 43.92 38.75 44.18 38.16 44.30 C 36.21 45.18 34.11 45.52 32.01 45.85 C 30.55 45.14 27.26 45.22 27.35 43.25 C 28.08 41.12 25.71 39.51 24.72 37.86 C 27.85 37.24 31.81 37.78 33.82 34.77 C 34.60 32.81 32.21 32.25 31.10 31.21 C 31.35 29.74 30.91 27.76 32.97 27.60 C 33.68 28.34 34.37 29.09 35.06 29.86 C 33.29 30.77 36.61 33.43 37.23 34.88 Z" />
</g>
<g id="#5d4a3dff">
<path fill="#5d4a3d" opacity="1.00" d=" M 70.20 32.32 C 69.21 30.02 66.04 25.91 68.67 23.91 C 68.70 26.80 70.59 28.99 72.06 31.30 C 71.59 31.55 70.66 32.07 70.20 32.32 Z" />
</g>
<g id="#b98055ff">
<path fill="#b98055" opacity="1.00" d=" M 73.21 25.92 C 76.60 23.56 80.80 23.70 84.78 23.77 C 84.46 24.82 84.17 25.87 83.88 26.93 C 80.38 26.37 76.42 28.89 73.14 26.96 L 73.21 25.92 Z" />
</g>
<g id="#a06c40fc">
<path fill="#a06c40" opacity="1.00" d=" M 89.68 31.37 C 95.04 34.21 96.77 27.08 99.84 23.97 C 103.39 29.97 97.00 35.17 93.21 39.17 C 92.75 41.67 90.98 42.66 88.74 41.28 C 88.19 40.36 88.53 39.83 89.76 39.66 C 87.90 37.12 85.42 33.66 85.96 30.61 C 87.20 30.86 88.44 31.12 89.68 31.37 Z" />
</g>
<g id="#9b7754ff">
<path fill="#9b7754" opacity="1.00" d=" M 27.08 29.93 C 28.70 28.24 30.38 26.55 32.94 26.75 L 32.97 27.60 C 30.91 27.76 31.35 29.74 31.10 31.21 C 26.39 29.30 25.95 35.38 21.86 35.87 C 21.99 34.53 22.11 33.19 22.23 31.85 C 24.14 32.11 25.74 31.19 27.08 29.93 Z" />
</g>
<g id="#a6744dfc">
<path fill="#a6744d" opacity="1.00" d=" M 73.14 26.96 C 76.42 28.89 80.38 26.37 83.88 26.93 C 83.97 27.41 84.13 28.37 84.22 28.86 C 83.43 30.93 81.93 32.33 79.77 32.87 C 80.44 31.90 81.19 30.97 81.88 30.01 C 80.15 28.72 77.50 27.34 76.10 29.81 C 75.24 31.06 74.45 32.37 73.86 33.77 C 72.54 35.11 71.33 36.56 69.95 37.83 C 69.63 36.94 69.49 36.04 69.53 35.13 C 69.75 34.19 69.98 33.26 70.20 32.32 C 70.66 32.07 71.59 31.55 72.06 31.30 C 73.59 30.55 72.70 28.32 73.14 26.96 Z" />
</g>
<g id="#c39e77ff">
<path fill="#c39e77" opacity="1.00" d=" M 23.25 29.16 C 24.84 28.73 27.66 26.82 27.08 29.93 C 25.74 31.19 24.14 32.11 22.23 31.85 C 21.62 31.57 20.41 31.00 19.80 30.71 C 20.95 30.20 22.12 29.71 23.25 29.16 Z" />
</g>
<g id="#a78464fe">
<path fill="#a78464" opacity="1.00" d=" M 76.10 29.81 C 77.50 27.34 80.15 28.72 81.88 30.01 C 81.19 30.97 80.44 31.90 79.77 32.87 C 77.42 35.07 77.63 38.27 76.25 40.93 C 75.62 41.21 74.37 41.75 73.74 42.03 C 73.27 38.14 76.76 34.92 77.66 31.17 C 77.27 30.83 76.49 30.15 76.10 29.81 Z" />
</g>
<g id="#8d613dfd">
<path fill="#8d613d" opacity="1.00" d=" M 84.22 28.86 C 84.80 29.44 85.38 30.02 85.96 30.61 C 85.42 33.66 87.90 37.12 89.76 39.66 C 88.53 39.83 88.19 40.36 88.74 41.28 L 88.99 41.98 C 87.17 43.99 84.49 43.57 82.09 43.17 C 80.24 42.16 78.43 41.00 76.25 40.93 C 77.63 38.27 77.42 35.07 79.77 32.87 C 81.93 32.33 83.43 30.93 84.22 28.86 Z" />
</g>
<g id="#c4a27dff">
<path fill="#c4a27d" opacity="1.00" d=" M 76.10 29.81 C 76.49 30.15 77.27 30.83 77.66 31.17 C 76.76 34.92 73.27 38.14 73.74 42.03 C 73.06 43.91 69.55 44.31 67.97 46.02 C 69.45 41.73 73.37 38.47 73.86 33.77 C 74.45 32.37 75.24 31.06 76.10 29.81 Z" />
</g>
<g id="#e6c9a2f8">
<path fill="#e6c9a2" opacity="0.97" d=" M 15.16 31.95 C 16.06 31.59 16.96 31.26 17.88 30.96 C 18.36 30.90 19.32 30.78 19.80 30.71 C 20.41 31.00 21.62 31.57 22.23 31.85 C 19.46 31.42 17.65 33.42 16.61 35.74 C 16.19 36.89 15.39 37.26 14.22 36.82 C 11.89 35.74 14.53 33.43 15.16 31.95 Z" />
</g>
<g id="#815c3cff">
<path fill="#815c3c" opacity="1.00" d=" M 21.86 35.87 C 25.95 35.38 26.39 29.30 31.10 31.21 C 32.21 32.25 34.60 32.81 33.82 34.77 C 31.81 37.78 27.85 37.24 24.72 37.86 C 22.72 37.94 20.71 37.91 18.70 37.79 C 19.70 37.06 20.73 36.37 21.86 35.87 Z" />
</g>
<g id="#bc956dfa">
<path fill="#bc956d" opacity="0.98" d=" M 16.61 35.74 C 17.65 33.42 19.46 31.42 22.23 31.85 C 22.11 33.19 21.99 34.53 21.86 35.87 C 20.73 36.37 19.70 37.06 18.70 37.79 C 17.12 38.34 16.43 37.65 16.61 35.74 Z" />
</g>
<g id="#e4c89ff8">
<path fill="#e4c89f" opacity="0.97" d=" M 69.95 37.83 C 71.33 36.56 72.54 35.11 73.86 33.77 C 73.37 38.47 69.45 41.73 67.97 46.02 C 65.96 49.39 64.45 43.94 66.60 41.64 C 67.16 39.96 68.70 38.98 69.95 37.83 Z" />
</g>
<g id="#ac794ef9">
<path fill="#ac794e" opacity="0.98" d=" M 18.70 37.79 C 20.71 37.91 22.72 37.94 24.72 37.86 C 25.71 39.51 28.08 41.12 27.35 43.25 C 25.63 43.15 23.91 43.09 22.21 42.82 C 21.01 41.17 19.90 39.45 18.70 37.79 Z" />
</g>
<g id="#353029f5">
<path fill="#353029" opacity="0.96" d=" M 82.09 43.17 C 84.49 43.57 87.17 43.99 88.99 41.98 C 88.83 54.47 84.37 66.30 80.59 78.04 C 79.69 81.43 72.57 80.04 73.92 76.07 C 78.87 65.81 81.53 54.52 82.09 43.17 Z" />
</g>
<g id="#2a251ff3">
<path fill="#2a251f" opacity="0.95" d=" M 32.01 45.85 C 34.11 45.52 36.21 45.18 38.16 44.30 C 37.86 45.79 37.90 47.31 38.00 48.81 C 36.14 48.81 32.49 46.59 32.84 49.93 C 30.92 50.36 32.40 46.97 32.01 45.85 Z" />
</g>
<g id="#120d0976">
<path fill="#120d09" opacity="0.46" d=" M 38.16 44.30 C 38.75 44.18 39.93 43.92 40.52 43.80 C 39.81 45.27 38.91 47.04 38.59 48.93 L 38.00 48.81 C 37.90 47.31 37.86 45.79 38.16 44.30 Z" />
</g>
<g id="#342f2af4">
<path fill="#342f2a" opacity="0.96" d=" M 32.84 49.93 C 32.49 46.59 36.14 48.81 38.00 48.81 L 38.59 48.93 C 41.22 59.15 45.15 69.63 52.85 77.17 C 53.01 80.02 48.82 79.39 46.97 80.63 L 46.18 80.77 C 40.91 70.93 34.04 61.38 32.84 49.93 Z" />
</g>
<g id="#d99159f8">
<path fill="#d99159" opacity="0.97" d=" M 60.65 76.29 C 61.32 73.62 63.91 73.57 65.26 75.71 C 67.48 74.44 69.59 73.76 71.17 76.34 C 70.84 76.50 70.19 76.83 69.87 77.00 C 68.19 77.03 66.51 77.04 64.82 77.06 C 64.34 77.05 63.37 77.02 62.89 77.01 C 62.33 76.83 61.21 76.47 60.65 76.29 Z" />
</g>
<g id="#c28658fe">
<path fill="#c28658" opacity="1.00" d=" M 52.85 77.17 C 52.51 73.24 57.94 76.14 60.65 76.29 C 61.21 76.47 62.33 76.83 62.89 77.01 C 60.70 80.04 63.31 81.97 65.88 83.28 C 66.76 86.98 60.78 88.79 62.31 92.68 C 62.52 97.24 67.70 99.50 67.97 103.92 C 65.62 109.74 61.13 114.40 57.25 119.23 C 54.82 124.20 48.89 120.57 44.93 121.01 C 45.21 125.61 49.09 128.94 51.16 132.87 C 48.07 134.15 47.48 130.91 45.34 129.77 C 46.36 126.17 40.85 124.05 42.97 119.97 C 43.15 115.82 48.52 114.09 52.00 114.92 C 58.93 115.17 65.45 103.61 58.06 99.91 C 54.77 95.72 48.90 97.83 44.97 94.85 C 45.68 89.93 50.88 86.40 49.99 81.18 C 49.51 81.09 48.55 80.92 48.07 80.83 L 46.97 80.63 C 48.82 79.39 53.01 80.02 52.85 77.17 Z" />
</g>
<g id="#99653ff8">
<path fill="#99653f" opacity="0.97" d=" M 71.17 76.34 C 71.85 76.27 73.23 76.14 73.92 76.07 C 72.57 80.04 79.69 81.43 80.59 78.04 C 81.89 78.85 84.30 78.67 84.13 80.74 C 80.70 78.50 80.54 84.46 77.11 82.87 C 74.62 81.48 67.97 80.89 69.87 77.00 C 70.19 76.83 70.84 76.50 71.17 76.34 Z" />
</g>
<g id="#ba8154ff">
<path fill="#ba8154" opacity="1.00" d=" M 62.89 77.01 C 63.37 77.02 64.34 77.05 64.82 77.06 C 64.43 80.06 67.21 81.31 69.36 82.60 C 72.53 84.20 76.89 82.76 79.30 85.69 C 82.87 88.27 80.28 93.26 80.42 96.90 C 81.20 100.69 79.37 104.48 77.80 107.82 C 74.06 110.12 69.88 111.72 66.29 114.32 C 64.19 117.23 62.35 120.33 60.19 123.20 C 58.23 125.94 54.20 125.58 52.11 128.22 C 51.26 131.26 54.69 132.78 56.23 134.85 C 55.92 137.15 52.64 133.41 51.16 132.87 C 49.09 128.94 45.21 125.61 44.93 121.01 C 48.89 120.57 54.82 124.20 57.25 119.23 C 61.13 114.40 65.62 109.74 67.97 103.92 C 67.70 99.50 62.52 97.24 62.31 92.68 C 60.78 88.79 66.76 86.98 65.88 83.28 C 63.31 81.97 60.70 80.04 62.89 77.01 Z" />
</g>
<g id="#b1794dfd">
<path fill="#b1794d" opacity="1.00" d=" M 64.82 77.06 C 66.51 77.04 68.19 77.03 69.87 77.00 C 67.97 80.89 74.62 81.48 77.11 82.87 C 80.54 84.46 80.70 78.50 84.13 80.74 C 87.17 80.95 86.11 85.97 89.80 85.24 C 89.75 87.55 90.24 89.60 92.63 90.43 C 91.57 94.16 96.47 96.27 94.34 99.75 C 98.06 100.38 96.32 103.12 94.64 105.14 C 93.86 103.68 93.08 102.21 92.28 100.76 C 93.24 97.39 89.58 93.87 86.20 95.05 C 83.86 97.33 85.56 101.01 84.79 103.90 C 82.99 109.58 80.03 116.70 73.34 117.46 C 67.99 118.39 65.44 123.62 62.72 127.72 C 60.93 129.89 56.42 130.19 57.02 133.71 C 58.95 134.03 61.09 134.06 62.17 135.97 C 61.63 135.98 60.53 136.00 59.99 136.01 L 59.10 135.99 C 58.12 135.66 57.17 135.28 56.23 134.85 C 54.69 132.78 51.26 131.26 52.11 128.22 C 54.20 125.58 58.23 125.94 60.19 123.20 C 62.35 120.33 64.19 117.23 66.29 114.32 C 69.88 111.72 74.06 110.12 77.80 107.82 C 79.37 104.48 81.20 100.69 80.42 96.90 C 80.28 93.26 82.87 88.27 79.30 85.69 C 76.89 82.76 72.53 84.20 69.36 82.60 C 67.21 81.31 64.43 80.06 64.82 77.06 Z" />
</g>
<g id="#dea169f8">
<path fill="#dea169" opacity="0.97" d=" M 44.42 81.32 C 44.86 81.19 45.74 80.91 46.18 80.77 L 46.97 80.63 L 48.07 80.83 C 47.32 86.15 39.63 87.90 40.93 94.02 C 40.61 99.36 38.40 104.70 39.84 110.01 C 39.71 112.44 38.53 114.67 37.96 117.01 C 33.05 117.41 36.67 112.35 35.08 109.94 C 36.85 106.80 38.29 101.91 36.23 99.06 C 33.80 97.76 33.65 95.22 36.65 94.75 C 35.44 92.41 36.40 90.64 38.79 89.82 C 38.06 85.57 42.51 84.38 44.42 81.32 Z" />
</g>
<g id="#cd8e5efe">
<path fill="#cd8e5e" opacity="1.00" d=" M 48.07 80.83 C 48.55 80.92 49.51 81.09 49.99 81.18 C 50.88 86.40 45.68 89.93 44.97 94.85 C 48.90 97.83 54.77 95.72 58.06 99.91 C 65.45 103.61 58.93 115.17 52.00 114.92 C 48.52 114.09 43.15 115.82 42.97 119.97 C 40.85 124.05 46.36 126.17 45.34 129.77 C 42.15 131.35 43.74 127.18 41.42 126.55 C 40.51 124.22 40.01 121.33 37.16 120.65 C 37.17 119.40 37.69 118.22 37.96 117.01 C 38.53 114.67 39.71 112.44 39.84 110.01 C 38.40 104.70 40.61 99.36 40.93 94.02 C 39.63 87.90 47.32 86.15 48.07 80.83 Z" />
</g>
<g id="#a57045fc">
<path fill="#a57045" opacity="1.00" d=" M 86.20 95.05 C 89.58 93.87 93.24 97.39 92.28 100.76 C 86.70 100.15 88.95 107.13 86.61 110.45 C 85.07 116.27 79.37 119.17 74.20 121.29 C 70.28 122.57 68.54 126.43 66.75 129.76 C 64.78 130.86 60.94 130.52 62.10 133.79 C 64.95 136.16 69.23 133.56 72.78 134.12 L 73.36 134.74 C 71.11 135.90 68.67 136.92 66.10 136.51 C 65.89 137.69 65.49 140.03 65.29 141.21 C 65.23 138.69 65.46 135.67 62.17 135.97 C 61.09 134.06 58.95 134.03 57.02 133.71 C 56.42 130.19 60.93 129.89 62.72 127.72 C 65.44 123.62 67.99 118.39 73.34 117.46 C 80.03 116.70 82.99 109.58 84.79 103.90 C 85.56 101.01 83.86 97.33 86.20 95.05 Z" />
</g>
<g id="#efb474fa">
<path fill="#efb474" opacity="0.98" d=" M 36.23 99.06 C 38.29 101.91 36.85 106.80 35.08 109.94 C 32.88 110.77 34.92 107.92 34.80 106.99 C 34.68 105.75 33.39 105.10 32.95 104.00 C 33.83 102.21 35.81 101.12 36.23 99.06 Z" />
</g>
<g id="#a16c40ff">
<path fill="#a16c40" opacity="1.00" d=" M 86.61 110.45 C 88.95 107.13 86.70 100.15 92.28 100.76 C 93.08 102.21 93.86 103.68 94.64 105.14 L 94.83 105.76 C 90.87 107.29 91.84 112.88 90.61 116.42 C 91.67 120.72 88.47 122.71 85.99 125.08 C 86.28 122.58 87.37 120.29 88.03 117.88 C 81.83 120.55 76.84 125.54 71.20 129.21 C 68.57 130.81 71.49 132.83 72.78 134.12 C 69.23 133.56 64.95 136.16 62.10 133.79 C 60.94 130.52 64.78 130.86 66.75 129.76 C 68.54 126.43 70.28 122.57 74.20 121.29 C 79.37 119.17 85.07 116.27 86.61 110.45 Z" />
</g>
<g id="#a6794cf5">
<path fill="#a6794c" opacity="0.96" d=" M 90.61 116.42 C 91.84 112.88 90.87 107.29 94.83 105.76 C 95.79 107.54 97.87 109.88 95.30 111.30 C 95.48 113.41 95.79 116.55 93.32 117.38 C 93.28 121.07 89.39 122.61 89.60 126.59 C 87.23 128.12 86.10 131.57 82.84 131.31 C 82.19 130.62 81.56 129.90 80.97 129.16 C 83.06 128.26 85.27 127.48 85.99 125.08 C 88.47 122.71 91.67 120.72 90.61 116.42 Z" />
</g>
<g id="#95633afe">
<path fill="#95633a" opacity="1.00" d=" M 71.20 129.21 C 76.84 125.54 81.83 120.55 88.03 117.88 C 87.37 120.29 86.28 122.58 85.99 125.08 C 85.27 127.48 83.06 128.26 80.97 129.16 C 81.56 129.90 82.19 130.62 82.84 131.31 C 82.86 131.75 82.90 132.63 82.92 133.07 C 80.91 133.58 78.09 133.49 77.43 135.95 C 77.25 136.26 76.89 136.87 76.72 137.18 C 75.60 136.36 74.46 135.57 73.36 134.74 L 72.78 134.12 C 71.49 132.83 68.57 130.81 71.20 129.21 Z" />
</g>
<g id="#937152fb">
<path fill="#937152" opacity="1.00" d=" M 77.43 135.95 C 78.09 133.49 80.91 133.58 82.92 133.07 C 83.25 134.00 83.52 134.95 83.74 135.92 C 82.99 139.20 79.43 136.57 77.43 135.95 Z" />
</g>
<g id="#ceac8bfa">
<path fill="#ceac8b" opacity="0.98" d=" M 59.10 135.99 L 59.99 136.01 C 59.56 138.44 60.69 140.28 62.84 141.32 C 63.04 143.89 61.60 146.24 61.05 148.70 C 58.78 154.96 57.39 161.46 55.77 167.90 C 54.50 167.67 53.28 167.29 52.04 166.97 C 53.99 156.64 57.70 146.51 59.10 135.99 Z" />
</g>
<g id="#a68764f5">
<path fill="#a68764" opacity="0.96" d=" M 59.99 136.01 C 60.53 136.00 61.63 135.98 62.17 135.97 C 65.46 135.67 65.23 138.69 65.29 141.21 C 64.84 144.67 63.55 147.93 62.38 151.19 C 62.05 150.57 61.38 149.33 61.05 148.70 C 61.60 146.24 63.04 143.89 62.84 141.32 C 60.69 140.28 59.56 138.44 59.99 136.01 Z" />
</g>
<g id="#ab8968f9">
<path fill="#ab8968" opacity="0.98" d=" M 76.72 137.18 C 76.89 136.87 77.25 136.26 77.43 135.95 C 79.43 136.57 82.99 139.20 83.74 135.92 C 83.99 137.89 85.32 139.84 84.76 141.85 C 83.27 142.38 81.20 146.37 80.30 143.73 C 79.42 142.55 81.59 141.83 82.00 140.86 C 80.28 140.87 78.45 140.95 78.62 143.19 C 77.93 141.20 77.26 139.21 76.72 137.18 Z" />
</g>
<g id="#d4af8efb">
<path fill="#d4af8e" opacity="1.00" d=" M 78.62 143.19 C 78.45 140.95 80.28 140.87 82.00 140.86 C 81.59 141.83 79.42 142.55 80.30 143.73 C 81.20 146.37 83.27 142.38 84.76 141.85 C 85.19 142.91 85.60 143.98 85.98 145.07 C 85.98 148.28 86.06 151.53 85.79 154.75 C 85.27 157.57 84.59 160.52 85.59 163.30 C 85.99 166.76 85.74 170.40 87.38 173.61 C 92.54 177.39 98.37 181.38 105.05 181.06 C 104.23 182.58 104.10 184.74 102.20 185.34 C 101.00 185.14 99.84 184.82 98.72 184.37 C 95.46 182.80 100.42 191.63 96.07 190.11 L 96.31 189.38 C 97.06 187.65 97.11 185.73 97.11 183.88 C 96.63 183.52 95.68 182.80 95.20 182.43 C 93.34 180.85 91.71 178.93 89.39 177.99 C 88.75 180.02 88.00 182.01 87.09 183.94 C 86.62 183.62 85.67 182.99 85.20 182.67 C 82.44 179.30 77.76 182.88 74.13 183.24 C 77.29 180.84 79.23 177.45 80.97 173.96 C 82.32 174.00 83.66 174.01 85.01 174.00 C 85.00 172.23 82.30 173.34 81.18 172.76 C 81.02 169.74 81.19 166.67 80.35 163.74 C 79.85 156.88 78.86 150.07 78.62 143.19 Z" />
</g>
<g id="#0f0d0a3f">
<path fill="#0f0d0a" opacity="0.25" d=" M 85.98 145.07 L 86.98 144.98 C 86.95 147.49 86.89 152.51 86.85 155.03 L 85.79 154.75 C 86.06 151.53 85.98 148.28 85.98 145.07 Z" />
</g>
<g id="#b39273f5">
<path fill="#b39273" opacity="0.96" d=" M 61.05 148.70 C 61.38 149.33 62.05 150.57 62.38 151.19 C 60.44 158.26 56.71 165.50 59.09 172.92 C 59.52 177.21 56.73 172.76 55.47 171.53 C 53.73 170.82 51.88 170.42 50.07 169.92 C 50.74 168.99 50.52 166.87 52.04 166.97 C 53.28 167.29 54.50 167.67 55.77 167.90 C 57.39 161.46 58.78 154.96 61.05 148.70 Z" />
</g>
<g id="#b19572ec">
<path fill="#b19572" opacity="0.93" d=" M 85.59 163.30 C 84.59 160.52 85.27 157.57 85.79 154.75 C 86.07 157.59 86.21 160.49 85.59 163.30 Z" />
</g>
<g id="#9a8469d7">
<path fill="#9a8469" opacity="0.84" d=" M 80.35 163.74 C 81.19 166.67 81.02 169.74 81.18 172.76 C 82.30 173.34 85.00 172.23 85.01 174.00 C 83.66 174.01 82.32 174.00 80.97 173.96 L 79.96 173.91 C 80.03 170.52 80.19 167.11 80.35 163.74 Z" />
</g>
<g id="#d3b08ffa">
<path fill="#d3b08f" opacity="0.98" d=" M 39.75 174.41 C 43.40 173.25 46.90 172.10 50.07 169.92 C 51.88 170.42 53.73 170.82 55.47 171.53 C 56.73 172.76 59.52 177.21 59.09 172.92 C 60.72 174.31 62.31 175.76 64.07 177.00 C 64.47 179.28 64.72 181.59 64.93 183.89 C 63.97 185.15 62.37 184.97 60.96 185.05 C 61.57 184.06 62.34 183.18 62.89 182.16 C 61.30 180.48 59.18 179.56 57.11 178.64 C 57.05 177.39 56.96 176.14 56.85 174.90 C 55.44 175.24 54.26 176.12 53.05 176.87 C 51.56 172.37 45.60 177.23 50.05 179.05 C 48.28 178.76 46.52 178.43 44.75 178.12 C 43.17 176.70 45.80 175.53 46.18 174.12 C 44.05 174.46 41.86 175.31 39.75 174.41 Z" />
</g>
<g id="#c4a483f5">
<path fill="#c4a483" opacity="0.96" d=" M 25.97 176.14 C 31.20 177.73 34.53 171.83 39.75 174.41 C 41.86 175.31 44.05 174.46 46.18 174.12 C 45.80 175.53 43.17 176.70 44.75 178.12 L 45.17 178.77 C 40.44 179.62 35.70 180.47 30.97 181.12 C 27.83 181.82 27.81 179.31 27.82 176.91 C 27.58 177.22 27.11 177.84 26.87 178.15 C 26.62 177.86 26.14 177.28 25.89 176.99 L 25.97 176.14 Z" />
</g>
<g id="#d6c1a5f4">
<path fill="#d6c1a5" opacity="0.96" d=" M 67.95 178.99 C 73.15 182.19 76.49 176.57 79.96 173.91 L 80.97 173.96 C 79.23 177.45 77.29 180.84 74.13 183.24 C 73.13 183.56 72.13 183.83 71.11 184.06 C 70.67 183.74 69.80 183.12 69.37 182.80 C 70.04 184.80 69.55 186.58 67.85 187.86 C 66.58 188.36 65.31 188.89 63.94 189.05 C 64.13 188.01 64.52 187.04 65.12 186.15 C 67.11 184.29 64.15 178.67 67.95 178.99 Z" />
</g>
<g id="#edd0a2ff">
<path fill="#edd0a2" opacity="1.00" d=" M 50.05 179.05 C 45.60 177.23 51.56 172.37 53.05 176.87 C 52.61 177.89 52.56 178.99 52.70 180.07 C 51.81 179.74 50.93 179.39 50.05 179.05 Z" />
</g>
<g id="#b69973f6">
<path fill="#b69973" opacity="0.96" d=" M 53.05 176.87 C 54.26 176.12 55.44 175.24 56.85 174.90 C 56.96 176.14 57.05 177.39 57.11 178.64 C 55.63 179.08 54.15 179.55 52.70 180.07 C 52.56 178.99 52.61 177.89 53.05 176.87 Z" />
</g>
<g id="#dccdc5f7">
<path fill="#dccdc5" opacity="0.97" d=" M 19.92 183.05 C 21.52 180.78 23.47 178.41 25.89 176.99 C 26.14 177.28 26.62 177.86 26.87 178.15 C 27.51 180.55 25.71 181.28 23.75 181.82 C 22.50 182.30 21.25 182.81 19.92 183.05 Z" />
</g>
<g id="#615441d5">
<path fill="#615441" opacity="0.84" d=" M 26.87 178.15 C 27.11 177.84 27.58 177.22 27.82 176.91 C 27.81 179.31 27.83 181.82 30.97 181.12 L 31.03 182.05 C 29.21 181.99 25.57 181.88 23.75 181.82 C 25.71 181.28 27.51 180.55 26.87 178.15 Z" />
</g>
<g id="#7e6e61e6">
<path fill="#7e6e61" opacity="0.90" d=" M 64.07 177.00 C 65.75 176.93 67.27 177.32 67.95 178.99 C 64.15 178.67 67.11 184.29 65.12 186.15 C 65.07 185.59 64.98 184.46 64.93 183.89 C 64.72 181.59 64.47 179.28 64.07 177.00 Z" />
</g>
<g id="#958571ef">
<path fill="#958571" opacity="0.94" d=" M 44.75 178.12 C 46.52 178.43 48.28 178.76 50.05 179.05 C 50.93 179.39 51.81 179.74 52.70 180.07 C 52.36 181.87 51.40 184.29 49.18 184.12 C 49.60 182.83 49.95 181.50 50.05 180.14 C 48.74 180.02 47.43 179.93 46.12 179.86 C 45.88 179.59 45.41 179.04 45.17 178.77 L 44.75 178.12 Z" />
</g>
<g id="#f4d3acfd">
<path fill="#f4d3ac" opacity="1.00" d=" M 89.39 177.99 C 91.71 178.93 93.34 180.85 95.20 182.43 C 93.27 182.95 92.19 184.63 91.04 186.11 C 89.68 185.46 88.36 184.75 87.09 183.94 C 88.00 182.01 88.75 180.02 89.39 177.99 Z" />
</g>
<g id="#e1d7ccf7">
<path fill="#e1d7cc" opacity="0.97" d=" M 46.12 179.86 C 47.43 179.93 48.74 180.02 50.05 180.14 C 49.95 181.50 49.60 182.83 49.18 184.12 C 47.05 188.58 45.31 182.06 46.12 179.86 Z" />
</g>
<g id="#bb9b76f8">
<path fill="#bb9b76" opacity="0.97" d=" M 74.13 183.24 C 77.76 182.88 82.44 179.30 85.20 182.67 C 80.59 183.87 76.00 185.22 71.67 187.21 C 71.43 186.17 71.24 185.12 71.11 184.06 C 72.13 183.83 73.13 183.56 74.13 183.24 Z" />
</g>
<g id="#a19182e5">
<path fill="#a19182" opacity="0.90" d=" M 105.05 181.06 C 107.12 182.18 108.77 183.83 110.00 186.02 C 107.32 185.35 104.64 185.78 101.94 186.09 L 102.20 185.34 C 104.10 184.74 104.23 182.58 105.05 181.06 Z" />
</g>
<g id="#756550f3">
<path fill="#756550" opacity="0.95" d=" M 69.37 182.80 C 69.80 183.12 70.67 183.74 71.11 184.06 C 71.24 185.12 71.43 186.17 71.67 187.21 C 72.28 189.02 68.86 187.52 67.85 187.86 C 69.55 186.58 70.04 184.80 69.37 182.80 Z" />
</g>
<g id="#8a7d6aeb">
<path fill="#8a7d6a" opacity="0.92" d=" M 91.04 186.11 C 92.19 184.63 93.27 182.95 95.20 182.43 C 95.68 182.80 96.63 183.52 97.11 183.88 C 95.66 184.07 94.06 184.00 93.00 185.18 C 92.92 186.82 94.38 187.87 95.22 189.09 C 93.37 189.19 91.57 187.81 91.04 186.11 Z" />
</g>
<g id="#f6e8d8fe">
<path fill="#f6e8d8" opacity="1.00" d=" M 93.00 185.18 C 94.06 184.00 95.66 184.07 97.11 183.88 C 97.11 185.73 97.06 187.65 96.31 189.38 L 95.22 189.09 C 94.38 187.87 92.92 186.82 93.00 185.18 Z" />
</g>
</svg>
