<?xml version="1.0" encoding="UTF-8" ?>
<!DOCTYPE svg PUBLIC "-//W3C//DTD SVG 1.1//EN" "http://www.w3.org/Graphics/SVG/1.1/DTD/svg11.dtd">
<svg width="141pt" height="218pt" viewBox="0 0 141 218" version="1.1" xmlns="http://www.w3.org/2000/svg">
<g id="#564a42ff">
<path fill="#564a42" opacity="1.00" d=" M 61.94 22.01 C 63.12 26.30 64.25 30.62 65.36 34.94 C 65.05 38.80 63.81 42.54 61.79 45.85 C 60.77 39.13 61.19 32.31 61.38 25.55 C 56.40 31.57 50.32 36.56 45.43 42.67 C 44.95 41.97 43.97 40.56 43.48 39.86 C 48.58 33.92 55.48 30.03 61.35 24.96 C 61.50 24.22 61.79 22.75 61.94 22.01 Z" />
</g>
<g id="#4e453dfa">
<path fill="#4e453d" opacity="0.98" d=" M 69.86 42.43 C 74.13 35.17 81.17 30.25 86.90 24.25 C 84.09 29.55 80.91 34.66 77.25 39.41 C 74.68 40.12 72.18 41.12 69.86 42.43 Z" />
</g>
<g id="#5a5147ff">
<path fill="#5a5147" opacity="1.00" d=" M 35.58 44.96 C 35.47 37.69 38.43 30.71 41.90 24.46 C 41.39 28.72 41.44 33.04 40.64 37.26 C 36.17 38.97 36.48 44.17 36.57 48.10 C 36.25 47.05 35.92 46.00 35.58 44.96 Z" />
</g>
<g id="#584d42ff">
<path fill="#584d42" opacity="1.00" d=" M 101.78 46.27 C 101.29 39.36 99.22 32.62 99.35 25.66 C 101.40 30.98 104.46 35.87 106.12 41.34 C 104.37 42.70 102.94 44.39 101.78 46.27 Z" />
</g>
<g id="#514641ff">
<path fill="#514641" opacity="1.00" d=" M 112.18 41.90 C 116.28 36.33 121.33 31.56 125.65 26.17 C 123.67 31.46 120.75 36.32 117.84 41.14 C 115.96 41.41 114.07 41.67 112.18 41.90 Z" />
</g>
<g id="#463832ff">
<path fill="#463832" opacity="1.00" d=" M 65.36 34.94 C 65.93 37.89 66.29 40.89 66.39 43.91 C 66.44 45.59 66.51 47.26 66.57 48.94 C 67.32 47.30 68.08 45.66 68.90 44.05 C 69.14 43.64 69.62 42.83 69.86 42.43 C 72.18 41.12 74.68 40.12 77.25 39.41 C 75.95 41.44 74.68 43.49 73.29 45.45 C 73.10 45.68 72.72 46.15 72.53 46.38 C 70.34 49.08 67.90 51.56 65.26 53.83 C 64.52 52.36 63.78 50.89 63.09 49.39 C 62.71 48.54 62.32 47.70 61.93 46.86 C 61.47 46.89 60.57 46.94 60.11 46.97 C 60.83 46.79 61.39 46.41 61.79 45.85 C 63.81 42.54 65.05 38.80 65.36 34.94 Z" />
</g>
<g id="#463d36ff">
<path fill="#463d36" opacity="1.00" d=" M 36.57 48.10 C 36.48 44.17 36.17 38.97 40.64 37.26 C 40.23 39.44 39.94 41.65 39.56 43.83 C 38.31 44.61 39.26 47.19 40.51 45.57 C 40.51 45.17 40.50 44.37 40.49 43.96 C 41.45 42.57 42.48 41.22 43.48 39.86 C 43.97 40.56 44.95 41.97 45.43 42.67 L 44.98 43.21 C 42.69 46.00 40.11 48.53 37.36 50.87 C 37.16 50.18 36.77 48.79 36.57 48.10 Z" />
<path fill="#463d36" opacity="1.00" d=" M 57.02 56.07 C 57.88 56.79 58.75 57.50 59.61 58.23 C 60.11 58.67 61.12 59.56 61.63 60.00 C 61.73 60.30 61.94 60.91 62.05 61.21 C 61.66 61.01 60.90 60.61 60.51 60.42 C 59.49 59.44 58.35 58.60 57.11 57.91 C 57.09 57.45 57.04 56.53 57.02 56.07 Z" />
</g>
<g id="#453933ff">
<path fill="#453933" opacity="1.00" d=" M 112.18 41.90 C 114.07 41.67 115.96 41.41 117.84 41.14 C 116.14 43.95 114.44 46.78 112.42 49.39 C 110.65 51.70 108.55 53.74 106.30 55.59 C 105.08 53.46 103.91 51.29 102.92 49.04 C 102.53 48.12 102.15 47.20 101.78 46.27 C 102.94 44.39 104.37 42.70 106.12 41.34 C 106.52 43.73 107.04 46.14 106.85 48.58 C 106.16 49.53 107.00 51.67 108.24 50.46 C 108.36 50.00 108.59 49.08 108.70 48.62 C 109.38 46.16 110.84 44.04 112.18 41.90 Z" />
</g>
<g id="#ffba71ff">
<path fill="#ffba71" opacity="1.00" d=" M 47.89 42.16 C 48.04 42.59 48.35 43.46 48.51 43.89 C 48.79 43.90 49.35 43.90 49.63 43.91 C 50.47 43.97 52.15 44.10 53.00 44.16 C 52.99 44.63 52.98 45.57 52.98 46.04 C 50.32 45.52 47.78 44.59 45.37 43.37 C 46.00 43.07 47.26 42.46 47.89 42.16 Z" />
<path fill="#ffba71" opacity="1.00" d=" M 66.39 43.91 C 67.20 43.39 68.03 43.43 68.90 44.05 C 68.08 45.66 67.32 47.30 66.57 48.94 C 66.51 47.26 66.44 45.59 66.39 43.91 Z" />
<path fill="#ffba71" opacity="1.00" d=" M 106.85 48.58 C 107.31 48.59 108.24 48.61 108.70 48.62 C 108.59 49.08 108.36 50.00 108.24 50.46 C 107.00 51.67 106.16 49.53 106.85 48.58 Z" />
<path fill="#ffba71" opacity="1.00" d=" M 82.86 88.30 C 84.38 87.53 85.90 86.76 87.42 85.98 C 88.27 86.55 89.12 87.12 89.97 87.68 C 90.84 87.40 92.59 86.82 93.46 86.54 C 94.39 87.52 95.30 88.52 96.25 89.50 L 96.65 89.87 C 98.26 89.98 99.87 90.01 101.48 90.06 C 101.19 90.62 100.60 91.75 100.31 92.32 C 93.27 87.86 84.59 88.96 76.87 90.71 C 76.68 90.15 76.51 89.59 76.35 89.03 C 78.10 87.21 80.68 88.23 82.86 88.30 Z" />
</g>
<g id="#bf8357ff">
<path fill="#bf8357" opacity="1.00" d=" M 44.98 43.21 L 45.37 43.37 C 47.78 44.59 50.32 45.52 52.98 46.04 C 52.98 45.57 52.99 44.63 53.00 44.16 C 52.15 44.10 50.47 43.97 49.63 43.91 C 50.88 43.76 52.11 43.57 53.35 43.37 C 52.80 46.44 56.24 47.77 58.02 49.59 C 56.70 50.59 55.29 51.48 53.90 52.38 C 54.00 52.91 54.19 53.99 54.29 54.52 C 52.37 57.41 50.02 60.34 46.55 61.34 C 44.77 61.55 43.00 61.11 41.25 60.89 C 42.48 59.96 43.71 59.03 44.94 58.10 C 45.07 58.01 45.32 57.82 45.44 57.72 C 45.33 57.04 45.11 55.68 45.00 55.00 C 42.53 55.21 40.23 56.15 37.99 57.16 C 37.86 56.59 37.61 55.46 37.48 54.90 C 37.40 55.78 37.32 56.66 37.22 57.55 C 36.70 57.71 35.66 58.02 35.15 58.18 C 34.91 57.61 34.45 56.47 34.22 55.89 C 35.35 54.28 36.54 52.67 37.36 50.87 C 40.11 48.53 42.69 46.00 44.98 43.21 M 45.22 54.36 C 45.11 57.70 48.29 52.93 45.22 54.36 Z" />
</g>
<g id="#876445f4">
<path fill="#876445" opacity="0.96" d=" M 40.51 45.57 C 39.26 47.19 38.31 44.61 39.56 43.83 L 40.49 43.96 C 40.50 44.37 40.51 45.17 40.51 45.57 Z" />
</g>
<g id="#ffb377ff">
<path fill="#ffb377" opacity="1.00" d=" M 73.29 45.45 C 74.77 45.19 76.25 44.92 77.75 44.79 C 78.00 45.77 78.20 46.77 78.44 47.76 C 76.45 47.37 74.48 46.89 72.53 46.38 C 72.72 46.15 73.10 45.68 73.29 45.45 Z" />
<path fill="#ffb377" opacity="1.00" d=" M 98.15 52.04 C 98.62 51.95 99.56 51.78 100.02 51.69 C 99.58 53.79 99.03 55.92 97.70 57.66 C 95.49 60.66 94.45 64.26 93.14 67.70 C 92.46 63.94 95.46 60.14 93.19 56.46 C 94.47 55.98 95.74 55.50 97.01 55.01 C 97.39 54.02 97.77 53.03 98.15 52.04 Z" />
<path fill="#ffb377" opacity="1.00" d=" M 63.65 109.58 C 62.91 108.32 59.86 106.46 63.88 106.06 C 65.76 111.17 63.28 116.83 65.44 121.98 C 65.08 122.27 64.35 122.85 63.99 123.14 C 63.71 121.22 64.71 118.57 62.54 117.50 C 62.93 115.36 64.25 113.04 62.79 111.02 C 63.00 110.66 63.43 109.94 63.65 109.58 Z" />
</g>
<g id="#d28d5fff">
<path fill="#d28d5f" opacity="1.00" d=" M 35.58 44.96 C 35.92 46.00 36.25 47.05 36.57 48.10 C 36.77 48.79 37.16 50.18 37.36 50.87 C 36.54 52.67 35.35 54.28 34.22 55.89 C 33.44 55.84 32.66 55.81 31.88 55.79 L 31.14 55.69 L 29.93 55.33 L 31.07 54.04 C 32.32 52.79 33.19 51.22 33.75 49.55 C 34.31 48.00 34.92 46.47 35.58 44.96 Z" />
</g>
<g id="#b87e53ff">
<path fill="#b87e53" opacity="1.00" d=" M 65.26 53.83 C 67.90 51.56 70.34 49.08 72.53 46.38 C 74.48 46.89 76.45 47.37 78.44 47.76 C 78.93 47.85 79.93 48.04 80.43 48.13 C 81.13 50.96 82.92 53.18 85.03 55.10 C 84.37 57.90 85.30 60.51 86.71 62.94 C 86.11 63.32 84.90 64.08 84.30 64.46 C 83.64 61.40 83.27 58.28 82.53 55.23 C 82.05 55.30 81.08 55.43 80.59 55.49 C 78.46 58.38 76.06 61.03 73.56 63.60 C 72.27 63.66 70.97 63.72 69.68 63.78 L 70.20 62.68 C 71.40 62.43 72.59 62.15 73.77 61.83 C 73.90 60.73 74.01 59.63 74.10 58.53 C 74.83 58.06 75.55 57.59 76.26 57.09 C 73.20 57.95 70.23 59.09 67.27 60.25 C 66.96 59.73 66.34 58.69 66.03 58.17 C 65.48 58.62 64.94 59.07 64.39 59.52 C 64.11 59.18 63.55 58.52 63.28 58.19 C 62.86 58.64 62.04 59.55 61.63 60.00 C 61.12 59.56 60.11 58.67 59.61 58.23 C 60.02 55.03 61.03 51.92 63.09 49.39 C 63.78 50.89 64.52 52.36 65.26 53.83 Z" />
</g>
<g id="#d2945eff">
<path fill="#d2945e" opacity="1.00" d=" M 59.67 47.02 L 60.11 46.97 C 60.57 46.94 61.47 46.89 61.93 46.86 C 62.32 47.70 62.71 48.54 63.09 49.39 C 61.03 51.92 60.02 55.03 59.61 58.23 C 58.75 57.50 57.88 56.79 57.02 56.07 C 57.04 56.53 57.09 57.45 57.11 57.91 C 57.09 58.53 57.06 59.76 57.04 60.37 L 57.03 61.22 C 56.48 62.91 55.87 64.57 55.27 66.24 C 54.75 64.84 54.28 63.42 53.92 61.97 C 53.96 59.49 54.12 57.00 54.29 54.52 C 54.60 55.69 54.96 56.85 55.32 58.01 C 55.93 54.03 60.17 51.31 59.66 47.21 L 59.67 47.02 Z" />
</g>
<g id="#f4c07cfe">
<path fill="#f4c07c" opacity="1.00" d=" M 59.66 47.21 C 60.17 51.31 55.93 54.03 55.32 58.01 C 54.96 56.85 54.60 55.69 54.29 54.52 C 54.19 53.99 54.00 52.91 53.90 52.38 C 55.29 51.48 56.70 50.59 58.02 49.59 C 58.43 49.00 59.25 47.80 59.66 47.21 Z" />
</g>
<g id="#e1c883ed">
<path fill="#e1c883" opacity="0.93" d=" M 30.71 51.47 C 31.28 50.39 32.54 49.56 33.75 49.55 C 33.19 51.22 32.32 52.79 31.07 54.04 C 30.98 53.40 30.80 52.11 30.71 51.47 Z" />
</g>
<g id="#c5885aff">
<path fill="#c5885a" opacity="1.00" d=" M 106.30 55.59 C 108.55 53.74 110.65 51.70 112.42 49.39 C 113.84 49.51 115.26 49.54 116.68 49.48 C 116.67 51.53 118.50 51.84 120.09 52.22 C 120.08 52.91 120.05 54.30 120.04 54.99 C 121.03 55.64 122.02 56.29 123.01 56.96 C 122.62 58.23 122.91 59.33 123.89 60.26 C 123.01 62.87 124.62 65.04 125.94 67.14 C 125.34 67.52 124.13 68.26 123.52 68.63 C 122.92 66.32 122.20 64.04 121.35 61.81 C 119.51 62.49 117.63 63.09 115.67 63.29 L 116.76 62.25 C 117.13 61.89 117.89 61.17 118.27 60.81 C 110.84 61.07 103.42 60.55 95.99 60.87 L 96.78 61.68 C 97.58 62.55 98.37 63.43 99.16 64.32 C 98.79 64.46 98.06 64.76 97.70 64.90 C 98.27 64.93 99.42 64.98 99.99 65.01 C 98.81 66.11 97.11 67.13 97.00 68.92 C 97.10 70.07 98.24 70.67 98.92 71.48 L 99.98 72.20 C 97.62 71.95 95.20 71.33 94.10 69.01 C 93.86 68.68 93.38 68.03 93.14 67.70 C 94.45 64.26 95.49 60.66 97.70 57.66 C 99.03 55.92 99.58 53.79 100.02 51.69 L 100.25 50.84 C 100.92 50.39 102.25 49.49 102.92 49.04 C 103.91 51.29 105.08 53.46 106.30 55.59 Z" />
</g>
<g id="#2c2820ff">
<path fill="#2c2820" opacity="1.00" d=" M 45.22 54.36 C 48.29 52.93 45.11 57.70 45.22 54.36 Z" />
<path fill="#2c2820" opacity="1.00" d=" M 67.53 76.31 C 71.41 75.81 74.92 73.50 78.95 74.09 C 77.30 74.50 75.41 74.05 73.92 74.98 L 73.49 75.74 C 74.04 80.24 75.23 84.64 76.35 89.03 C 76.51 89.59 76.68 90.15 76.87 90.71 C 77.38 91.97 77.96 93.20 78.62 94.39 C 79.51 95.95 80.48 97.47 81.42 99.01 C 80.27 99.81 79.12 100.62 77.97 101.42 C 76.74 100.55 75.50 99.71 74.25 98.88 C 73.77 97.43 73.00 96.12 72.19 94.84 C 71.85 94.28 71.17 93.16 70.84 92.60 C 70.15 87.10 68.19 81.84 67.53 76.31 Z" />
</g>
<g id="#7b654eff">
<path fill="#7b654e" opacity="1.00" d=" M 31.88 55.79 C 32.66 55.81 33.44 55.84 34.22 55.89 C 34.45 56.47 34.91 57.61 35.15 58.18 C 34.62 58.34 33.57 58.65 33.04 58.80 C 32.79 58.69 32.29 58.48 32.04 58.37 L 32.31 57.91 C 32.20 57.38 31.99 56.32 31.88 55.79 Z" />
</g>
<g id="#342f28ff">
<path fill="#342f28" opacity="1.00" d=" M 37.22 57.55 C 37.32 56.66 37.40 55.78 37.48 54.90 C 37.61 55.46 37.86 56.59 37.99 57.16 C 40.23 56.15 42.53 55.21 45.00 55.00 C 43.50 55.76 41.97 56.47 40.47 57.26 C 40.36 57.51 40.14 58.03 40.03 58.29 L 39.65 59.25 L 38.51 60.14 C 38.91 59.34 39.29 58.53 39.65 57.72 C 39.04 57.68 37.83 57.59 37.22 57.55 Z" />
<path fill="#342f28" opacity="1.00" d=" M 105.50 79.42 C 107.10 79.69 108.72 79.67 110.34 79.60 C 109.58 85.19 107.35 90.50 104.67 95.43 C 103.49 97.55 102.27 99.66 100.89 101.67 C 99.40 103.64 97.67 105.42 95.95 107.19 C 93.73 106.91 91.79 105.94 90.58 104.00 C 92.44 102.02 94.46 100.22 96.46 98.39 C 97.97 96.52 99.20 94.45 100.31 92.32 C 100.60 91.75 101.19 90.62 101.48 90.06 C 99.87 90.01 98.26 89.98 96.65 89.87 L 96.25 89.50 C 98.10 89.72 99.96 89.74 101.82 89.62 C 103.24 86.29 104.45 82.88 105.50 79.42 Z" />
<path fill="#342f28" opacity="1.00" d=" M 83.55 209.63 C 84.30 208.85 84.66 207.38 85.83 207.19 C 86.08 207.65 86.57 208.56 86.82 209.02 C 86.54 210.48 84.47 210.34 83.55 209.63 Z" />
</g>
<g id="#996640ff">
<path fill="#996640" opacity="1.00" d=" M 46.55 61.34 C 50.02 60.34 52.37 57.41 54.29 54.52 C 54.12 57.00 53.96 59.49 53.92 61.97 C 48.81 65.35 43.29 68.19 38.88 72.51 C 37.78 72.23 36.88 71.73 36.19 70.99 C 35.77 69.60 35.42 68.19 35.06 66.79 C 37.24 66.56 39.72 66.38 40.48 63.90 C 40.24 62.35 39.91 60.80 39.65 59.25 L 40.03 58.29 C 41.67 58.25 43.31 58.18 44.94 58.10 C 43.71 59.03 42.48 59.96 41.25 60.89 C 43.00 61.11 44.77 61.55 46.55 61.34 Z" />
</g>
<g id="#8e5d37ff">
<path fill="#8e5d37" opacity="1.00" d=" M 80.59 55.49 C 81.08 55.43 82.05 55.30 82.53 55.23 C 83.27 58.28 83.64 61.40 84.30 64.46 C 83.28 66.01 82.64 67.76 82.49 69.61 C 81.62 70.11 80.74 70.60 79.87 71.09 C 79.56 72.08 79.25 73.08 78.95 74.09 C 74.92 73.50 71.41 75.81 67.53 76.31 C 65.16 75.31 62.88 74.13 60.56 73.02 C 61.91 72.03 63.24 71.03 64.55 69.99 C 66.63 68.26 68.39 66.16 69.68 63.78 C 70.97 63.72 72.27 63.66 73.56 63.60 C 76.06 61.03 78.46 58.38 80.59 55.49 Z" />
</g>
<g id="#dbd1c5f1">
<path fill="#dbd1c5" opacity="0.95" d=" M 30.18 56.67 C 30.42 56.43 30.90 55.93 31.14 55.69 L 31.88 55.79 C 31.99 56.32 32.20 57.38 32.31 57.91 L 32.04 58.37 L 31.25 58.05 C 30.98 57.70 30.45 57.02 30.18 56.67 Z" />
</g>
<g id="#ddd3caff">
<path fill="#ddd3ca" opacity="1.00" d=" M 40.47 57.26 C 41.97 56.47 43.50 55.76 45.00 55.00 C 45.11 55.68 45.33 57.04 45.44 57.72 C 45.32 57.82 45.07 58.01 44.94 58.10 C 43.31 58.18 41.67 58.25 40.03 58.29 C 40.14 58.03 40.36 57.51 40.47 57.26 Z" />
<path fill="#ddd3ca" opacity="1.00" d=" M 68.29 61.78 C 69.75 59.96 72.03 59.36 74.10 58.53 C 74.01 59.63 73.90 60.73 73.77 61.83 C 71.94 61.84 70.11 61.82 68.29 61.78 Z" />
<path fill="#ddd3ca" opacity="1.00" d=" M 96.78 61.68 C 99.00 62.09 101.22 62.46 103.45 62.76 C 102.02 63.27 100.58 63.77 99.16 64.32 C 98.37 63.43 97.58 62.55 96.78 61.68 Z" />
<path fill="#ddd3ca" opacity="1.00" d=" M 56.07 198.09 C 57.32 197.84 58.56 197.58 59.77 197.15 C 58.31 197.93 57.92 199.05 58.61 200.51 L 58.70 200.90 C 56.92 201.18 55.14 201.54 53.39 201.96 C 54.26 200.66 55.16 199.37 56.07 198.09 Z" />
</g>
<g id="#cda987ff">
<path fill="#cda987" opacity="1.00" d=" M 30.18 56.67 C 30.45 57.02 30.98 57.70 31.25 58.05 C 31.62 58.92 31.96 59.80 32.30 60.69 C 32.08 61.11 31.62 61.95 31.39 62.37 C 27.69 63.34 23.87 63.59 20.11 64.21 C 17.34 64.58 15.76 67.17 13.68 68.73 C 13.23 68.97 12.32 69.43 11.87 69.66 C 12.45 67.86 12.68 65.61 14.51 64.58 C 19.06 61.57 24.74 63.01 29.74 61.46 C 29.83 59.86 29.92 58.26 30.18 56.67 Z" />
<path fill="#cda987" opacity="1.00" d=" M 97.18 159.99 C 97.62 160.90 98.05 161.81 98.48 162.73 C 99.90 163.10 101.32 163.48 102.74 163.85 L 103.11 163.95 C 102.77 174.63 101.20 185.43 103.17 196.04 C 103.41 198.41 105.11 200.18 106.20 202.19 C 106.31 204.00 105.95 205.78 105.35 207.48 C 102.84 206.67 100.55 207.13 99.30 209.63 C 99.26 209.07 99.19 207.95 99.16 207.40 C 99.76 205.36 99.08 203.86 97.13 203.05 C 96.51 204.22 95.89 205.40 95.33 206.60 C 92.81 204.92 89.73 205.15 86.85 205.11 C 90.69 204.72 94.35 202.49 95.72 198.76 C 96.33 196.15 96.49 193.47 96.71 190.81 L 96.78 189.78 C 96.99 191.60 97.29 193.42 97.59 195.23 C 98.35 188.84 97.92 182.40 98.16 175.99 C 98.32 172.14 98.01 168.27 97.03 164.54 C 96.97 164.18 96.86 163.46 96.80 163.10 C 96.90 162.32 97.09 160.77 97.18 159.99 Z" />
</g>
<g id="#231e16ff">
<path fill="#231e16" opacity="1.00" d=" M 67.27 60.25 C 70.23 59.09 73.20 57.95 76.26 57.09 C 75.55 57.59 74.83 58.06 74.10 58.53 C 72.03 59.36 69.75 59.96 68.29 61.78 C 70.11 61.82 71.94 61.84 73.77 61.83 C 72.59 62.15 71.40 62.43 70.20 62.68 C 69.80 62.60 69.02 62.43 68.62 62.35 C 68.16 61.66 67.71 60.96 67.27 60.25 Z" />
<path fill="#231e16" opacity="1.00" d=" M 79.30 138.37 C 82.08 137.79 84.89 137.26 87.74 137.14 C 87.84 137.23 88.05 137.41 88.15 137.50 C 87.01 139.59 88.18 142.07 88.12 144.33 C 86.65 144.77 85.17 145.20 83.66 145.53 C 82.84 145.63 82.02 145.73 81.20 145.80 C 80.56 143.33 79.93 140.85 79.30 138.37 Z" />
</g>
<g id="#b59273ff">
<path fill="#b59273" opacity="1.00" d=" M 31.25 58.05 L 32.04 58.37 C 32.29 58.48 32.79 58.69 33.04 58.80 C 33.57 58.65 34.62 58.34 35.15 58.18 C 35.66 58.02 36.70 57.71 37.22 57.55 C 37.83 57.59 39.04 57.68 39.65 57.72 C 39.29 58.53 38.91 59.34 38.51 60.14 C 36.32 61.35 33.78 61.72 31.39 62.37 C 31.62 61.95 32.08 61.11 32.30 60.69 C 31.96 59.80 31.62 58.92 31.25 58.05 Z" />
<path fill="#b59273" opacity="1.00" d=" M 94.83 149.60 C 96.67 148.93 98.48 148.16 100.22 147.27 C 100.86 149.57 101.48 151.88 101.85 154.24 C 102.27 157.43 102.44 160.65 102.74 163.85 C 101.32 163.48 99.90 163.10 98.48 162.73 C 98.05 161.81 97.62 160.90 97.18 159.99 C 97.09 160.77 96.90 162.32 96.80 163.10 L 96.65 162.21 C 95.91 158.02 95.46 153.80 94.83 149.60 Z" />
</g>
<g id="#e1e1e1ff">
<path fill="#e1e1e1" opacity="1.00" d=" M 57.11 57.91 C 58.35 58.60 59.49 59.44 60.51 60.42 C 59.36 61.17 58.21 61.16 57.04 60.37 C 57.06 59.76 57.09 58.53 57.11 57.91 Z" />
</g>
<g id="#927754ff">
<path fill="#927754" opacity="1.00" d=" M 61.63 60.00 C 62.04 59.55 62.86 58.64 63.28 58.19 C 63.55 58.52 64.11 59.18 64.39 59.52 C 64.94 59.07 65.48 58.62 66.03 58.17 C 66.34 58.69 66.96 59.73 67.27 60.25 C 67.71 60.96 68.16 61.66 68.62 62.35 C 69.02 62.43 69.80 62.60 70.20 62.68 L 69.68 63.78 C 68.39 66.16 66.63 68.26 64.55 69.99 C 63.36 69.83 62.18 69.68 60.99 69.52 C 62.96 67.59 65.10 65.84 67.39 64.32 C 67.27 63.53 67.14 62.75 67.02 61.96 C 65.73 61.93 64.44 61.91 63.16 61.93 C 63.05 62.06 62.83 62.32 62.73 62.45 C 62.39 62.84 61.73 63.63 61.40 64.02 C 59.93 63.11 58.46 62.20 57.03 61.22 L 57.04 60.37 C 58.21 61.16 59.36 61.17 60.51 60.42 C 60.90 60.61 61.66 61.01 62.05 61.21 C 61.94 60.91 61.73 60.30 61.63 60.00 Z" />
<path fill="#927754" opacity="1.00" d=" M 38.51 60.14 L 39.65 59.25 C 39.91 60.80 40.24 62.35 40.48 63.90 C 36.48 62.98 32.35 63.24 28.36 64.11 C 28.71 64.52 29.41 65.34 29.76 65.75 C 26.99 66.79 24.13 67.60 21.23 68.18 C 21.95 68.78 22.67 69.37 23.40 69.97 C 21.07 70.20 18.62 70.33 16.63 68.86 C 17.77 68.23 18.92 67.61 20.08 67.01 C 17.95 67.62 15.82 68.20 13.68 68.73 C 15.76 67.17 17.34 64.58 20.11 64.21 C 23.87 63.59 27.69 63.34 31.39 62.37 C 33.78 61.72 36.32 61.35 38.51 60.14 Z" />
</g>
<g id="#76573eff">
<path fill="#76573e" opacity="1.00" d=" M 95.99 60.87 C 103.42 60.55 110.84 61.07 118.27 60.81 C 117.89 61.17 117.13 61.89 116.76 62.25 C 115.14 62.13 113.52 62.02 111.90 61.93 C 111.47 62.47 110.61 63.55 110.18 64.09 C 111.83 64.00 113.48 63.88 115.12 63.73 C 113.69 65.52 111.31 64.90 109.33 64.98 C 107.95 63.28 105.87 61.62 103.97 63.65 C 103.64 63.95 102.98 64.56 102.65 64.86 L 102.50 65.06 C 101.87 65.05 100.62 65.02 99.99 65.01 C 99.42 64.98 98.27 64.93 97.70 64.90 C 98.06 64.76 98.79 64.46 99.16 64.32 C 100.58 63.77 102.02 63.27 103.45 62.76 C 101.22 62.46 99.00 62.09 96.78 61.68 L 95.99 60.87 M 109.30 62.32 C 109.87 62.82 109.87 62.82 109.30 62.32 Z" />
</g>
<g id="#85552fff">
<path fill="#85552f" opacity="1.00" d=" M 38.88 72.51 C 43.29 68.19 48.81 65.35 53.92 61.97 C 54.28 63.42 54.75 64.84 55.27 66.24 C 55.49 66.80 55.93 67.91 56.15 68.46 C 54.29 69.52 52.53 70.75 50.89 72.11 C 50.35 72.36 49.26 72.86 48.72 73.11 C 46.72 73.47 44.35 74.41 42.62 72.73 C 42.56 72.97 42.43 73.45 42.37 73.69 L 42.23 74.23 C 41.10 73.67 39.99 73.09 38.88 72.51 Z" />
</g>
<g id="#b87d51ff">
<path fill="#b87d51" opacity="1.00" d=" M 55.27 66.24 C 55.87 64.57 56.48 62.91 57.03 61.22 C 58.46 62.20 59.93 63.11 61.40 64.02 C 59.93 65.81 58.19 67.37 56.15 68.46 C 55.93 67.91 55.49 66.80 55.27 66.24 Z" />
</g>
<g id="#a2845fff">
<path fill="#a2845f" opacity="1.00" d=" M 62.73 62.45 C 62.83 62.32 63.05 62.06 63.16 61.93 C 64.44 61.91 65.73 61.93 67.02 61.96 C 67.14 62.75 67.27 63.53 67.39 64.32 C 65.10 65.84 62.96 67.59 60.99 69.52 C 62.18 69.68 63.36 69.83 64.55 69.99 C 63.24 71.03 61.91 72.03 60.56 73.02 C 58.54 74.60 56.27 75.84 53.77 76.47 C 53.18 76.47 52.02 76.48 51.44 76.48 C 53.01 73.46 55.23 70.81 58.28 69.20 C 60.86 67.86 62.50 65.34 62.73 62.45 Z" />
<path fill="#a2845f" opacity="1.00" d=" M 79.56 211.34 C 80.99 208.47 82.87 204.25 86.85 205.11 C 89.73 205.15 92.81 204.92 95.33 206.60 C 95.15 208.00 95.00 209.40 94.89 210.80 C 95.23 211.15 95.93 211.86 96.28 212.22 L 97.13 213.13 C 94.75 212.65 94.18 209.49 94.62 207.46 C 92.02 208.02 89.43 208.57 86.82 209.02 C 86.57 208.56 86.08 207.65 85.83 207.19 C 84.66 207.38 84.30 208.85 83.55 209.63 C 82.24 210.26 80.92 210.84 79.56 211.34 Z" />
</g>
<g id="#949494ff">
<path fill="#949494" opacity="1.00" d=" M 109.30 62.32 C 109.87 62.82 109.87 62.82 109.30 62.32 Z" />
</g>
<g id="#c6c6c6ff">
<path fill="#c6c6c6" opacity="1.00" d=" M 110.18 64.09 C 110.61 63.55 111.47 62.47 111.90 61.93 C 113.52 62.02 115.14 62.13 116.76 62.25 L 115.67 63.29 C 115.53 63.40 115.26 63.62 115.12 63.73 C 113.48 63.88 111.83 64.00 110.18 64.09 Z" />
</g>
<g id="#ac754aff">
<path fill="#ac754a" opacity="1.00" d=" M 115.67 63.29 C 117.63 63.09 119.51 62.49 121.35 61.81 C 122.20 64.04 122.92 66.32 123.52 68.63 C 121.95 70.94 121.59 74.00 119.54 75.92 C 119.11 73.58 120.03 71.38 120.84 69.25 C 118.97 69.56 117.08 70.01 115.17 69.93 C 113.30 68.90 111.79 67.36 110.27 65.90 C 110.03 65.67 109.56 65.21 109.33 64.98 C 111.31 64.90 113.69 65.52 115.12 63.73 C 115.26 63.62 115.53 63.40 115.67 63.29 Z" />
</g>
<g id="#806142ff">
<path fill="#806142" opacity="1.00" d=" M 28.36 64.11 C 32.35 63.24 36.48 62.98 40.48 63.90 C 39.72 66.38 37.24 66.56 35.06 66.79 C 34.35 66.90 32.94 67.12 32.23 67.23 C 29.25 68.02 26.37 69.14 23.40 69.97 C 22.67 69.37 21.95 68.78 21.23 68.18 C 24.13 67.60 26.99 66.79 29.76 65.75 C 29.41 65.34 28.71 64.52 28.36 64.11 Z" />
</g>
<g id="#ddc09af2">
<path fill="#ddc09a" opacity="0.95" d=" M 61.40 64.02 C 61.73 63.63 62.39 62.84 62.73 62.45 C 62.50 65.34 60.86 67.86 58.28 69.20 C 55.23 70.81 53.01 73.46 51.44 76.48 C 52.02 76.48 53.18 76.47 53.77 76.47 C 52.61 77.04 51.49 77.69 50.36 78.30 C 50.28 77.84 50.13 76.92 50.05 76.46 C 50.64 75.08 50.95 73.61 50.89 72.11 C 52.53 70.75 54.29 69.52 56.15 68.46 C 58.19 67.37 59.93 65.81 61.40 64.02 Z" />
<path fill="#ddc09a" opacity="0.95" d=" M 106.20 202.19 C 108.44 203.97 110.96 205.42 113.80 205.93 C 115.79 206.23 117.23 208.20 117.24 210.15 C 116.99 210.48 116.49 211.12 116.25 211.45 L 114.68 210.67 C 114.50 209.47 114.44 208.27 114.34 207.07 C 113.40 207.73 112.49 208.44 111.54 209.09 C 109.40 208.90 107.39 208.08 105.35 207.48 C 105.95 205.78 106.31 204.00 106.20 202.19 Z" />
</g>
<g id="#b39574ff">
<path fill="#b39574" opacity="1.00" d=" M 103.97 63.65 C 105.87 61.62 107.95 63.28 109.33 64.98 C 109.56 65.21 110.03 65.67 110.27 65.90 C 107.66 68.87 104.43 72.96 99.98 72.20 L 98.92 71.48 C 99.61 69.09 100.90 66.95 102.50 65.06 L 102.65 64.86 C 103.31 66.33 104.29 66.67 105.60 65.88 C 106.02 64.57 105.48 63.83 103.97 63.65 Z" />
</g>
<g id="#e6b88bff">
<path fill="#e6b88b" opacity="1.00" d=" M 102.65 64.86 C 102.98 64.56 103.64 63.95 103.97 63.65 C 105.48 63.83 106.02 64.57 105.60 65.88 C 104.29 66.67 103.31 66.33 102.65 64.86 Z" />
</g>
<g id="#e2bd93ff">
<path fill="#e2bd93" opacity="1.00" d=" M 99.99 65.01 C 100.62 65.02 101.87 65.05 102.50 65.06 C 100.90 66.95 99.61 69.09 98.92 71.48 C 98.24 70.67 97.10 70.07 97.00 68.92 C 97.11 67.13 98.81 66.11 99.99 65.01 Z" />
</g>
<g id="#97643dff">
<path fill="#97643d" opacity="1.00" d=" M 110.27 65.90 C 111.79 67.36 113.30 68.90 115.17 69.93 C 117.08 70.01 118.97 69.56 120.84 69.25 C 120.03 71.38 119.11 73.58 119.54 75.92 L 119.54 75.92 C 118.09 76.40 117.95 78.13 117.29 79.29 C 115.05 77.81 112.66 79.25 110.34 79.60 C 108.72 79.67 107.10 79.69 105.50 79.42 C 103.84 78.84 102.16 78.25 100.40 78.76 C 99.46 77.44 98.95 75.29 96.90 75.72 C 96.05 73.45 95.17 71.19 94.10 69.01 C 95.20 71.33 97.62 71.95 99.98 72.20 C 104.43 72.96 107.66 68.87 110.27 65.90 Z" />
</g>
<g id="#b57f55f4">
<path fill="#b57f55" opacity="0.96" d=" M 32.23 67.23 C 32.94 67.12 34.35 66.90 35.06 66.79 C 35.42 68.19 35.77 69.60 36.19 70.99 C 34.29 70.34 32.48 69.51 32.23 67.23 Z" />
</g>
<g id="#2f2c25ff">
<path fill="#2f2c25" opacity="1.00" d=" M 42.37 73.69 C 42.43 73.45 42.56 72.97 42.62 72.73 C 44.35 74.41 46.72 73.47 48.72 73.11 C 48.66 74.39 49.10 75.51 50.05 76.46 C 50.13 76.92 50.28 77.84 50.36 78.30 C 52.15 86.35 57.33 93.47 63.93 98.33 C 64.88 99.14 65.81 99.98 66.74 100.82 C 65.04 101.54 63.37 102.30 61.69 103.06 C 61.43 103.56 60.91 104.55 60.65 105.04 C 60.69 104.14 60.71 103.24 60.72 102.35 C 53.33 97.56 48.10 90.04 45.18 81.83 C 44.20 79.13 44.36 75.92 42.37 73.69 Z" />
</g>
<g id="#b2784cff">
<path fill="#b2784c" opacity="1.00" d=" M 76.87 90.71 C 84.59 88.96 93.27 87.86 100.31 92.32 C 99.20 94.45 97.97 96.52 96.46 98.39 C 92.80 94.46 87.39 92.87 82.14 93.94 C 81.26 94.05 79.50 94.28 78.62 94.39 C 77.96 93.20 77.38 91.97 76.87 90.71 Z" />
</g>
<g id="#9c6941ff">
<path fill="#9c6941" opacity="1.00" d=" M 68.43 97.00 C 69.01 95.75 69.10 94.18 70.11 93.18 C 70.14 93.76 70.19 94.92 70.21 95.50 C 70.70 95.34 71.69 95.01 72.19 94.84 C 73.00 96.12 73.77 97.43 74.25 98.88 C 74.03 99.36 73.58 100.33 73.36 100.82 C 75.85 103.72 79.67 102.19 82.83 101.72 C 83.33 100.17 83.90 98.64 84.18 97.03 C 83.58 95.94 82.84 94.95 82.14 93.94 C 87.39 92.87 92.80 94.46 96.46 98.39 C 94.46 100.22 92.44 102.02 90.58 104.00 C 91.79 105.94 93.73 106.91 95.95 107.19 C 97.67 105.42 99.40 103.64 100.89 101.67 C 101.50 103.92 102.11 106.18 102.70 108.45 C 105.13 109.22 107.61 109.84 110.12 110.34 C 110.25 113.16 110.37 115.99 110.69 118.80 C 110.85 120.24 110.96 121.69 111.06 123.14 C 109.73 123.03 108.40 122.91 107.07 122.77 C 109.92 124.71 106.96 126.80 105.52 128.11 C 104.70 127.33 103.87 126.56 103.04 125.78 C 99.60 126.68 95.97 126.95 92.63 125.52 C 92.26 123.12 91.72 120.74 90.71 118.52 L 90.47 119.41 C 89.17 123.20 88.69 127.26 87.02 130.92 C 83.66 133.85 78.88 134.22 75.14 131.79 C 74.77 131.63 74.05 131.31 73.69 131.14 C 73.00 130.02 72.38 128.86 71.77 127.69 C 76.69 124.61 84.28 124.75 86.43 118.36 C 88.77 114.53 85.38 110.43 81.86 108.99 C 77.51 107.08 73.34 104.78 69.59 101.85 C 69.59 100.16 69.16 98.52 68.43 97.00 Z" />
</g>
<g id="#ebb875ff">
<path fill="#ebb875" opacity="1.00" d=" M 70.11 93.18 L 70.84 92.60 C 71.17 93.16 71.85 94.28 72.19 94.84 C 71.69 95.01 70.70 95.34 70.21 95.50 C 70.19 94.92 70.14 93.76 70.11 93.18 Z" />
</g>
<g id="#845433ff">
<path fill="#845433" opacity="1.00" d=" M 78.62 94.39 C 79.50 94.28 81.26 94.05 82.14 93.94 C 82.84 94.95 83.58 95.94 84.18 97.03 C 83.90 98.64 83.33 100.17 82.83 101.72 C 79.67 102.19 75.85 103.72 73.36 100.82 C 73.58 100.33 74.03 99.36 74.25 98.88 C 75.50 99.71 76.74 100.55 77.97 101.42 C 79.12 100.62 80.27 99.81 81.42 99.01 C 80.48 97.47 79.51 95.95 78.62 94.39 Z" />
</g>
<g id="#ad764bff">
<path fill="#ad764b" opacity="1.00" d=" M 100.89 101.67 C 102.27 99.66 103.49 97.55 104.67 95.43 C 105.12 95.88 106.00 96.78 106.45 97.23 L 106.02 97.44 C 105.57 97.66 104.69 98.08 104.25 98.29 C 108.68 100.65 110.24 105.58 110.12 110.34 C 107.61 109.84 105.13 109.22 102.70 108.45 C 102.11 106.18 101.50 103.92 100.89 101.67 Z" />
</g>
<g id="#905c36ff">
<path fill="#905c36" opacity="1.00" d=" M 63.93 98.33 C 65.44 97.92 66.94 97.50 68.43 97.00 C 69.16 98.52 69.59 100.16 69.59 101.85 C 68.64 103.82 67.35 105.66 65.26 106.52 C 64.07 105.36 62.90 104.20 61.69 103.06 C 63.37 102.30 65.04 101.54 66.74 100.82 C 65.81 99.98 64.88 99.14 63.93 98.33 Z" />
</g>
<g id="#c89163ff">
<path fill="#c89163" opacity="1.00" d=" M 104.25 98.29 C 104.69 98.08 105.57 97.66 106.02 97.44 C 107.97 98.39 109.62 99.81 111.21 101.27 C 110.97 101.85 110.50 103.00 110.27 103.58 C 110.82 104.16 111.91 105.31 112.46 105.89 L 111.57 107.02 C 110.43 108.06 110.65 109.87 111.76 110.85 C 112.03 111.20 112.57 111.90 112.84 112.25 C 112.48 113.80 112.95 115.27 113.61 116.67 C 111.81 116.19 110.84 116.89 110.69 118.80 C 110.37 115.99 110.25 113.16 110.12 110.34 C 110.24 105.58 108.68 100.65 104.25 98.29 Z" />
</g>
<g id="#ba8054ff">
<path fill="#ba8054" opacity="1.00" d=" M 69.59 101.85 C 73.34 104.78 77.51 107.08 81.86 108.99 C 85.38 110.43 88.77 114.53 86.43 118.36 C 84.28 124.75 76.69 124.61 71.77 127.69 C 71.55 127.26 71.11 126.40 70.89 125.96 C 70.15 126.10 68.68 126.38 67.94 126.52 C 66.77 125.21 65.91 123.66 65.44 121.98 C 63.28 116.83 65.76 111.17 63.88 106.06 C 62.80 105.72 61.73 105.38 60.65 105.04 C 60.91 104.55 61.43 103.56 61.69 103.06 C 62.90 104.20 64.07 105.36 65.26 106.52 C 67.35 105.66 68.64 103.82 69.59 101.85 Z" />
</g>
<g id="#41311f88">
<path fill="#41311f" opacity="0.53" d=" M 111.76 110.85 C 110.65 109.87 110.43 108.06 111.57 107.02 C 112.59 108.24 112.65 109.52 111.76 110.85 Z" />
</g>
<g id="#744a2bff">
<path fill="#744a2b" opacity="1.00" d=" M 90.71 118.52 C 91.72 120.74 92.26 123.12 92.63 125.52 C 95.97 126.95 99.60 126.68 103.04 125.78 C 103.87 126.56 104.70 127.33 105.52 128.11 C 101.20 130.06 96.18 129.74 91.79 128.25 C 91.05 125.36 90.78 122.37 90.47 119.41 L 90.71 118.52 Z" />
</g>
<g id="#35312bff">
<path fill="#35312b" opacity="1.00" d=" M 90.47 119.41 C 90.78 122.37 91.05 125.36 91.79 128.25 C 96.18 129.74 101.20 130.06 105.52 128.11 C 106.96 126.80 109.92 124.71 107.07 122.77 C 108.40 122.91 109.73 123.03 111.06 123.14 C 108.53 124.27 107.11 126.88 107.12 129.61 C 106.73 132.56 105.76 135.38 104.75 138.16 C 104.55 138.73 104.15 139.86 103.96 140.43 C 103.75 140.99 103.57 141.56 103.40 142.13 C 102.08 146.03 101.19 150.12 101.85 154.24 C 101.48 151.88 100.86 149.57 100.22 147.27 C 98.48 148.16 96.67 148.93 94.83 149.60 L 94.39 149.76 C 93.95 144.99 91.97 140.51 88.15 137.50 C 88.05 137.41 87.84 137.23 87.74 137.14 C 84.89 137.26 82.08 137.79 79.30 138.37 C 79.93 140.85 80.56 143.33 81.20 145.80 C 78.58 142.30 74.91 139.82 72.21 136.40 C 73.19 134.87 74.16 133.33 75.14 131.79 C 78.88 134.22 83.66 133.85 87.02 130.92 C 88.69 127.26 89.17 123.20 90.47 119.41 Z" />
</g>
<g id="#403e39ff">
<path fill="#403e39" opacity="1.00" d=" M 67.94 126.52 C 68.68 126.38 70.15 126.10 70.89 125.96 C 71.11 126.40 71.55 127.26 71.77 127.69 C 72.38 128.86 73.00 130.02 73.69 131.14 C 74.05 131.31 74.77 131.63 75.14 131.79 C 74.16 133.33 73.19 134.87 72.21 136.40 C 69.92 133.52 68.97 129.97 67.94 126.52 Z" />
</g>
<g id="#804434fe">
<path fill="#804434" opacity="1.00" d=" M 104.75 138.16 C 105.76 135.38 106.73 132.56 107.12 129.61 C 109.35 131.18 111.52 132.84 113.65 134.54 C 113.54 135.47 113.44 136.40 113.33 137.33 C 110.52 137.96 107.64 138.35 104.75 138.16 Z" />
</g>
<g id="#995543ff">
<path fill="#995543" opacity="1.00" d=" M 113.65 134.54 C 118.14 137.94 122.70 141.26 127.13 144.75 C 123.84 143.86 120.47 144.79 117.18 145.15 L 117.15 145.15 L 116.96 145.03 C 113.12 142.35 108.15 142.37 103.96 140.43 C 104.15 139.86 104.55 138.73 104.75 138.16 C 107.64 138.35 110.52 137.96 113.33 137.33 C 113.44 136.40 113.54 135.47 113.65 134.54 Z" />
</g>
<g id="#c1a58aff">
<path fill="#c1a58a" opacity="1.00" d=" M 103.96 140.43 C 108.15 142.37 113.12 142.35 116.96 145.03 L 114.80 145.04 C 113.63 144.99 112.45 144.98 111.27 145.01 C 108.44 144.80 105.87 143.42 103.40 142.13 C 103.57 141.56 103.75 140.99 103.96 140.43 Z" />
<path fill="#c1a58a" opacity="1.00" d=" M 78.63 201.83 C 79.68 202.32 80.69 202.90 81.69 203.50 C 80.69 204.34 79.70 205.20 78.72 206.08 C 78.36 205.13 77.64 203.23 77.28 202.28 L 78.63 201.83 Z" />
</g>
<g id="#af9379ff">
<path fill="#af9379" opacity="1.00" d=" M 117.18 145.15 C 120.47 144.79 123.84 143.86 127.13 144.75 C 127.59 145.06 128.52 145.68 128.98 145.99 C 129.85 147.05 130.68 148.15 131.51 149.24 C 130.84 149.40 129.52 149.70 128.86 149.85 C 124.58 149.90 120.34 148.02 117.18 145.15 Z" />
</g>
<g id="#7c5d40ff">
<path fill="#7c5d40" opacity="1.00" d=" M 83.66 145.53 C 85.17 145.20 86.65 144.77 88.12 144.33 C 88.32 149.24 90.76 153.93 89.93 158.89 C 85.67 155.61 87.35 149.26 83.66 145.53 Z" />
</g>
<g id="#c6a480ff">
<path fill="#c6a480" opacity="1.00" d=" M 81.20 145.80 C 82.02 145.73 82.84 145.63 83.66 145.53 C 82.14 151.95 88.17 157.59 85.81 163.92 C 84.03 171.20 83.53 178.72 82.09 186.07 C 81.20 190.24 82.44 194.43 83.70 198.38 C 84.21 197.10 84.64 195.79 85.13 194.51 C 86.27 195.36 87.38 196.24 88.50 197.13 C 88.86 198.06 89.59 199.91 89.95 200.84 C 87.90 200.29 85.81 200.05 83.70 200.03 C 83.10 201.25 82.23 202.40 82.24 203.83 C 82.10 203.75 81.83 203.58 81.69 203.50 C 80.69 202.90 79.68 202.32 78.63 201.83 C 78.05 201.55 76.90 200.98 76.32 200.70 C 71.45 202.85 66.09 203.29 61.14 205.09 C 62.06 203.47 62.95 201.84 63.84 200.21 C 62.53 200.28 59.91 200.43 58.61 200.51 C 57.92 199.05 58.31 197.93 59.77 197.15 C 64.51 196.53 69.62 196.54 74.32 194.94 C 73.54 197.37 77.14 195.96 75.12 194.62 L 75.03 194.51 C 75.93 193.38 77.20 192.42 77.55 190.95 C 80.21 181.12 81.06 170.93 83.06 160.97 C 84.58 155.87 82.11 150.80 81.20 145.80 Z" />
</g>
<g id="#211c1b68">
<path fill="#211c1b" opacity="0.41" d=" M 111.27 145.01 C 112.45 144.98 113.63 144.99 114.80 145.04 C 115.05 146.89 110.88 146.84 111.27 145.01 Z" />
</g>
<g id="#a48261fe">
<path fill="#a48261" opacity="1.00" d=" M 85.81 163.92 C 88.17 157.59 82.14 151.95 83.66 145.53 C 87.35 149.26 85.67 155.61 89.93 158.89 C 88.73 162.77 87.73 166.72 86.89 170.69 C 85.84 174.83 85.17 179.04 84.89 183.30 L 84.82 183.72 C 84.16 186.97 83.30 190.48 84.64 193.67 L 85.13 194.51 C 84.64 195.79 84.21 197.10 83.70 198.38 C 82.44 194.43 81.20 190.24 82.09 186.07 C 83.53 178.72 84.03 171.20 85.81 163.92 Z" />
</g>
<g id="#2e26205f">
<path fill="#2e2620" opacity="0.37" d=" M 128.98 145.99 C 130.29 146.88 131.50 147.95 132.01 149.50 C 131.22 149.59 129.64 149.76 128.86 149.85 C 129.52 149.70 130.84 149.40 131.51 149.24 C 130.68 148.15 129.85 147.05 128.98 145.99 Z" />
</g>
<g id="#130f0b47">
<path fill="#130f0b" opacity="0.28" d=" M 96.65 162.21 L 96.80 163.10 C 96.86 163.46 96.97 164.18 97.03 164.54 C 96.88 172.95 97.20 181.38 96.78 189.78 L 96.71 190.81 C 95.51 186.61 96.37 182.22 96.19 177.93 C 96.39 172.69 95.62 167.39 96.65 162.21 Z" />
</g>
<g id="#e4bb95ff">
<path fill="#e4bb95" opacity="1.00" d=" M 97.03 164.54 C 98.01 168.27 98.32 172.14 98.16 175.99 C 97.92 182.40 98.35 188.84 97.59 195.23 C 97.29 193.42 96.99 191.60 96.78 189.78 C 97.20 181.38 96.88 172.95 97.03 164.54 Z" />
</g>
<g id="#31271c7e">
<path fill="#31271c" opacity="0.49" d=" M 84.89 183.30 C 85.17 179.04 85.84 174.83 86.89 170.69 C 86.48 174.92 86.14 179.22 84.89 183.30 Z" />
</g>
<g id="#362a1f8d">
<path fill="#362a1f" opacity="0.55" d=" M 84.64 193.67 C 83.30 190.48 84.16 186.97 84.82 183.72 C 84.96 187.04 84.71 190.36 84.64 193.67 Z" />
</g>
<g id="#ffffdbff">
<path fill="#ffffdb" opacity="1.00" d=" M 74.32 194.94 L 75.12 194.62 C 77.14 195.96 73.54 197.37 74.32 194.94 Z" />
</g>
<g id="#ecd9bbff">
<path fill="#ecd9bb" opacity="1.00" d=" M 95.33 206.60 C 95.89 205.40 96.51 204.22 97.13 203.05 C 99.08 203.86 99.76 205.36 99.16 207.40 C 97.99 207.22 96.83 207.04 95.67 206.85 C 97.06 207.89 98.13 209.23 98.91 210.77 C 98.26 211.13 96.94 211.86 96.28 212.22 C 95.93 211.86 95.23 211.15 94.89 210.80 C 95.00 209.40 95.15 208.00 95.33 206.60 Z" />
</g>
<g id="#84786be4">
<path fill="#84786b" opacity="0.89" d=" M 95.67 206.85 C 96.83 207.04 97.99 207.22 99.16 207.40 C 99.19 207.95 99.26 209.07 99.30 209.63 C 99.29 210.06 99.27 210.92 99.25 211.35 L 98.91 210.77 C 98.13 209.23 97.06 207.89 95.67 206.85 Z" />
</g>
<g id="#73665ac8">
<path fill="#73665a" opacity="0.78" d=" M 111.54 209.09 C 112.49 208.44 113.40 207.73 114.34 207.07 C 114.44 208.27 114.50 209.47 114.68 210.67 C 113.69 211.18 111.71 210.22 111.54 209.09 Z" />
</g>
<g id="#5d5d53a0">
<path fill="#5d5d53" opacity="0.63" d=" M 117.24 210.15 C 119.86 210.30 116.69 213.97 116.25 211.45 C 116.49 211.12 116.99 210.48 117.24 210.15 Z" />
</g>
</svg>
