<?xml version="1.0" encoding="UTF-8" ?>
<!DOCTYPE svg PUBLIC "-//W3C//DTD SVG 1.1//EN" "http://www.w3.org/Graphics/SVG/1.1/DTD/svg11.dtd">
<svg width="174pt" height="124pt" viewBox="0 0 174 124" version="1.1" xmlns="http://www.w3.org/2000/svg">
<g id="#d4e8f6ff">
<path fill="#d4e8f6" opacity="1.00" d=" M 70.11 7.78 C 71.40 8.99 72.18 10.58 72.87 12.17 C 71.98 15.61 72.78 19.59 74.86 22.42 C 76.02 21.79 77.16 21.13 78.25 20.38 C 83.93 21.89 89.23 24.85 95.25 24.90 C 97.03 25.95 98.30 27.64 99.57 29.23 C 94.00 29.09 93.27 35.92 88.78 37.84 C 86.98 38.76 85.03 39.31 83.12 39.92 C 81.46 37.59 77.40 37.76 76.83 40.90 C 76.40 41.82 75.98 42.74 75.56 43.67 C 75.34 43.33 74.89 42.64 74.67 42.30 C 67.94 43.25 60.90 43.92 55.14 47.91 L 54.69 47.72 C 55.56 44.35 56.60 40.80 55.26 37.39 C 56.34 37.13 57.43 36.88 58.51 36.65 C 62.02 32.66 64.41 27.87 67.85 23.85 C 67.85 23.32 67.86 22.27 67.87 21.74 C 67.87 21.20 67.86 20.11 67.85 19.56 C 68.11 15.57 69.18 11.67 70.11 7.78 M 76.18 36.03 C 77.84 35.20 79.13 33.35 81.08 33.35 C 83.19 34.23 83.73 36.78 85.66 37.86 C 85.02 35.44 83.73 32.53 80.87 32.28 C 78.54 32.11 77.17 34.26 76.18 36.03 Z" />
</g>
<g id="#a6bed0fa">
<path fill="#a6bed0" opacity="0.98" d=" M 74.86 22.42 C 72.78 19.59 71.98 15.61 72.87 12.17 C 74.15 14.29 75.10 16.62 76.59 18.61 C 77.00 19.05 77.83 19.94 78.25 20.38 C 77.16 21.13 76.02 21.79 74.86 22.42 Z" />
</g>
<g id="#ffffffff">
<path fill="#ffffff" opacity="1.00" d=" M 76.59 18.61 C 83.28 18.52 90.14 20.43 95.25 24.90 C 89.23 24.85 83.93 21.89 78.25 20.38 C 77.83 19.94 77.00 19.05 76.59 18.61 Z" />
<path fill="#ffffff" opacity="1.00" d=" M 78.38 42.39 C 78.27 40.69 78.55 38.10 80.88 39.32 C 81.06 40.10 81.42 41.64 81.60 42.41 C 80.53 42.40 79.45 42.39 78.38 42.39 Z" />
</g>
<g id="#f6fdfeff">
<path fill="#f6fdfe" opacity="1.00" d=" M 54.27 27.33 C 57.86 23.35 63.18 21.85 67.85 19.56 C 67.86 20.11 67.87 21.20 67.87 21.74 C 62.72 22.67 59.82 27.38 55.44 29.75 C 55.32 30.30 55.07 31.42 54.95 31.98 C 53.43 33.49 52.24 35.28 51.06 37.06 C 48.19 40.45 46.41 45.31 47.77 49.68 C 47.17 50.08 46.58 50.51 46.01 50.95 C 45.98 48.88 45.90 46.81 45.91 44.74 C 46.97 38.31 49.41 31.85 54.27 27.33 Z" />
<path fill="#f6fdfe" opacity="1.00" d=" M 144.11 52.25 C 146.74 51.66 149.58 52.14 151.89 53.53 C 149.19 54.01 146.46 54.33 143.73 54.60 C 143.43 55.06 142.84 55.99 142.54 56.45 C 136.44 59.03 134.68 66.00 129.48 69.65 C 128.80 67.41 130.59 65.68 131.65 63.93 C 134.92 59.28 138.41 54.08 144.11 52.25 Z" />
<path fill="#f6fdfe" opacity="1.00" d=" M 134.79 92.32 L 135.53 92.00 C 136.51 92.32 137.49 92.66 138.47 93.01 C 142.53 94.60 147.01 94.26 151.25 95.08 C 151.43 95.62 151.80 96.68 151.98 97.21 C 147.65 96.31 143.23 95.90 138.91 94.96 C 137.19 94.75 136.01 93.40 134.79 92.32 Z" />
</g>
<g id="#dff6ffff">
<path fill="#dff6ff" opacity="1.00" d=" M 55.44 29.75 C 59.82 27.38 62.72 22.67 67.87 21.74 C 67.86 22.27 67.85 23.32 67.85 23.85 C 64.41 27.87 62.02 32.66 58.51 36.65 C 57.43 36.88 56.34 37.13 55.26 37.39 C 50.67 38.51 50.88 44.01 51.71 47.68 C 50.37 48.28 49.06 48.96 47.77 49.68 C 46.41 45.31 48.19 40.45 51.06 37.06 C 52.48 35.66 53.82 34.17 55.32 32.85 C 56.84 33.09 57.05 34.95 57.85 35.99 C 57.75 33.87 57.79 31.53 54.95 31.98 C 55.07 31.42 55.32 30.30 55.44 29.75 Z" />
</g>
<g id="#b4c7d9ff">
<path fill="#b4c7d9" opacity="1.00" d=" M 88.78 37.84 C 93.27 35.92 94.00 29.09 99.57 29.23 C 100.70 31.57 102.21 33.77 103.35 36.12 C 103.57 37.87 103.77 39.62 104.00 41.37 C 103.33 40.24 102.74 39.05 102.24 37.83 C 99.20 42.86 94.95 46.90 89.85 49.83 C 87.50 49.25 85.13 48.75 82.74 48.34 C 84.18 45.70 83.92 42.70 83.12 39.92 C 85.03 39.31 86.98 38.76 88.78 37.84 Z" />
</g>
<g id="#2c2629ff">
<path fill="#2c2629" opacity="1.00" d=" M 51.06 37.06 C 52.24 35.28 53.43 33.49 54.95 31.98 C 57.79 31.53 57.75 33.87 57.85 35.99 C 57.05 34.95 56.84 33.09 55.32 32.85 C 53.82 34.17 52.48 35.66 51.06 37.06 Z" />
<path fill="#2c2629" opacity="1.00" d=" M 76.18 36.03 C 77.17 34.26 78.54 32.11 80.87 32.28 C 83.73 32.53 85.02 35.44 85.66 37.86 C 83.73 36.78 83.19 34.23 81.08 33.35 C 79.13 33.35 77.84 35.20 76.18 36.03 Z" />
<path fill="#2c2629" opacity="1.00" d=" M 60.72 50.93 C 63.46 48.25 67.79 48.34 70.54 50.95 C 68.13 52.92 63.97 55.71 61.71 52.03 L 60.72 50.93 Z" />
</g>
<g id="#89a7c1ff">
<path fill="#89a7c1" opacity="1.00" d=" M 103.35 36.12 C 104.79 38.52 104.96 41.50 105.51 44.19 C 105.73 46.89 105.72 49.60 105.97 52.30 C 106.18 55.12 106.82 57.91 106.73 60.75 C 105.38 63.28 102.90 64.89 100.56 66.39 C 99.84 65.71 99.13 65.02 98.42 64.35 C 100.78 60.89 103.44 57.20 103.12 52.77 C 100.36 54.86 98.04 57.43 95.83 60.08 C 96.28 55.72 94.17 51.30 89.85 49.83 C 94.95 46.90 99.20 42.86 102.24 37.83 C 102.74 39.05 103.33 40.24 104.00 41.37 C 103.77 39.62 103.57 37.87 103.35 36.12 Z" />
</g>
<g id="#212e30ff">
<path fill="#212e30" opacity="1.00" d=" M 51.71 47.68 C 50.88 44.01 50.67 38.51 55.26 37.39 C 56.60 40.80 55.56 44.35 54.69 47.72 C 53.94 47.71 52.45 47.69 51.71 47.68 M 53.48 39.17 C 52.38 39.87 52.84 43.09 54.40 41.67 C 55.44 40.94 55.07 37.68 53.48 39.17 Z" />
<path fill="#212e30" opacity="1.00" d=" M 83.97 105.01 C 89.67 106.04 95.44 105.56 101.17 105.02 C 95.50 106.03 89.62 106.26 83.97 105.01 Z" />
</g>
<g id="#192121ff">
<path fill="#192121" opacity="1.00" d=" M 76.83 40.90 C 77.40 37.76 81.46 37.59 83.12 39.92 C 83.92 42.70 84.18 45.70 82.74 48.34 C 81.54 48.31 80.35 48.35 79.16 48.46 C 77.25 46.39 76.92 43.59 76.83 40.90 M 78.38 42.39 C 79.45 42.39 80.53 42.40 81.60 42.41 C 81.42 41.64 81.06 40.10 80.88 39.32 C 78.55 38.10 78.27 40.69 78.38 42.39 Z" />
</g>
<g id="#efefefff">
<path fill="#efefef" opacity="1.00" d=" M 53.48 39.17 C 55.07 37.68 55.44 40.94 54.40 41.67 C 52.84 43.09 52.38 39.87 53.48 39.17 Z" />
</g>
<g id="#b9cde0ff">
<path fill="#b9cde0" opacity="1.00" d=" M 75.56 43.67 C 75.98 42.74 76.40 41.82 76.83 40.90 C 76.92 43.59 77.25 46.39 79.16 48.46 C 76.23 49.07 73.32 49.84 70.54 50.95 C 67.79 48.34 63.46 48.25 60.72 50.93 C 58.91 49.83 57.03 48.86 55.14 47.91 C 60.90 43.92 67.94 43.25 74.67 42.30 C 74.89 42.64 75.34 43.33 75.56 43.67 Z" />
</g>
<g id="#28282659">
<path fill="#282826" opacity="0.35" d=" M 44.21 53.13 C 45.71 50.53 44.77 47.41 45.91 44.74 C 45.90 46.81 45.98 48.88 46.01 50.95 C 45.37 51.65 44.77 52.38 44.21 53.13 Z" />
</g>
<g id="#aabfd4ff">
<path fill="#aabfd4" opacity="1.00" d=" M 105.97 52.30 C 105.72 49.60 105.73 46.89 105.51 44.19 C 110.06 46.34 113.84 49.70 117.84 52.67 C 113.88 52.37 109.87 53.34 105.97 52.30 Z" />
</g>
<g id="#e9e5c5f8">
<path fill="#e9e5c5" opacity="0.97" d=" M 47.77 49.68 C 49.06 48.96 50.37 48.28 51.71 47.68 C 52.45 47.69 53.94 47.71 54.69 47.72 C 52.77 51.04 48.33 51.62 46.30 54.93 C 46.06 54.75 45.58 54.41 45.35 54.24 C 45.24 56.83 45.13 59.43 44.98 62.02 C 44.49 61.83 43.52 61.46 43.04 61.28 C 42.85 58.53 42.95 55.64 44.21 53.13 C 44.77 52.38 45.37 51.65 46.01 50.95 C 46.58 50.51 47.17 50.08 47.77 49.68 Z" />
</g>
<g id="#e0e1beff">
<path fill="#e0e1be" opacity="1.00" d=" M 54.69 47.72 L 55.14 47.91 C 57.03 48.86 58.91 49.83 60.72 50.93 L 61.71 52.03 C 57.82 55.44 52.53 55.03 47.79 56.10 C 47.42 55.81 46.67 55.22 46.30 54.93 C 48.33 51.62 52.77 51.04 54.69 47.72 Z" />
</g>
<g id="#d5d1afff">
<path fill="#d5d1af" opacity="1.00" d=" M 79.16 48.46 C 80.35 48.35 81.54 48.31 82.74 48.34 C 85.13 48.75 87.50 49.25 89.85 49.83 C 94.17 51.30 96.28 55.72 95.83 60.08 C 95.56 63.28 93.36 65.71 91.32 67.99 C 90.23 68.23 89.16 68.58 88.13 69.01 C 90.11 67.28 92.04 65.46 93.56 63.30 C 95.19 60.88 94.79 57.85 93.47 55.40 C 90.73 57.81 87.32 59.02 83.74 59.42 C 83.54 59.00 83.16 58.16 82.97 57.74 C 82.51 56.86 82.04 55.98 81.56 55.11 C 80.68 55.91 79.82 56.74 78.99 57.59 C 75.80 57.79 72.90 59.14 70.28 60.88 C 68.31 60.43 66.31 60.17 64.30 60.01 L 63.11 60.01 C 61.23 60.17 59.37 60.40 57.52 60.74 C 55.31 58.82 52.47 58.09 49.62 58.78 C 49.43 58.46 49.05 57.83 48.85 57.51 C 48.59 57.16 48.06 56.45 47.79 56.10 C 52.53 55.03 57.82 55.44 61.71 52.03 C 63.97 55.71 68.13 52.92 70.54 50.95 C 73.32 49.84 76.23 49.07 79.16 48.46 Z" />
</g>
<g id="#a0b7ccff">
<path fill="#a0b7cc" opacity="1.00" d=" M 105.97 52.30 C 109.87 53.34 113.88 52.37 117.84 52.67 C 118.64 53.52 119.38 54.42 120.05 55.38 C 120.30 55.84 120.81 56.74 121.06 57.19 C 118.25 57.76 115.38 57.97 112.57 58.58 C 108.48 62.51 106.62 68.08 104.01 73.00 C 100.98 78.71 100.09 85.70 95.10 90.22 C 91.80 93.93 86.74 95.77 84.01 99.97 C 85.22 101.88 87.54 102.59 89.39 103.73 C 87.09 103.68 84.78 103.55 82.48 103.42 C 79.15 102.91 73.13 101.17 74.57 96.66 C 75.16 90.72 81.91 88.22 82.73 82.40 C 83.45 80.40 82.78 78.20 81.32 76.72 C 78.14 75.13 74.64 74.35 71.38 72.96 C 72.87 71.74 74.28 70.43 75.68 69.11 C 79.46 69.78 83.71 71.71 87.31 69.46 L 88.13 69.01 C 89.16 68.58 90.23 68.23 91.32 67.99 C 94.54 68.82 97.76 68.05 100.56 66.39 C 102.90 64.89 105.38 63.28 106.73 60.75 C 106.82 57.91 106.18 55.12 105.97 52.30 Z" />
</g>
<g id="#6e8eacff">
<path fill="#6e8eac" opacity="1.00" d=" M 95.83 60.08 C 98.04 57.43 100.36 54.86 103.12 52.77 C 103.44 57.20 100.78 60.89 98.42 64.35 C 99.13 65.02 99.84 65.71 100.56 66.39 C 97.76 68.05 94.54 68.82 91.32 67.99 C 93.36 65.71 95.56 63.28 95.83 60.08 Z" />
</g>
<g id="#acc0d4ff">
<path fill="#acc0d4" opacity="1.00" d=" M 45.35 54.24 C 45.58 54.41 46.06 54.75 46.30 54.93 C 46.67 55.22 47.42 55.81 47.79 56.10 C 48.06 56.45 48.59 57.16 48.85 57.51 C 48.35 60.58 47.83 63.64 47.37 66.71 C 45.39 65.37 43.96 63.46 43.04 61.28 C 43.52 61.46 44.49 61.83 44.98 62.02 C 45.13 59.43 45.24 56.83 45.35 54.24 Z" />
</g>
<g id="#c6def0ff">
<path fill="#c6def0" opacity="1.00" d=" M 143.73 54.60 C 146.46 54.33 149.19 54.01 151.89 53.53 C 153.37 55.40 154.16 57.64 154.35 60.01 C 153.72 59.72 152.47 59.13 151.84 58.84 C 144.23 63.49 139.55 71.77 131.43 75.80 C 131.01 74.82 130.61 73.84 130.22 72.85 C 129.96 71.78 129.71 70.72 129.48 69.65 C 134.68 66.00 136.44 59.03 142.54 56.45 C 142.84 55.99 143.43 55.06 143.73 54.60 Z" />
</g>
<g id="#b9c9dcff">
<path fill="#b9c9dc" opacity="1.00" d=" M 78.99 57.59 C 79.82 56.74 80.68 55.91 81.56 55.11 C 82.04 55.98 82.51 56.86 82.97 57.74 C 82.07 61.13 80.34 64.19 78.15 66.91 C 77.83 66.50 77.19 65.68 76.87 65.27 C 77.16 64.13 77.44 62.99 77.72 61.86 C 78.10 60.42 78.53 59.00 78.99 57.59 Z" />
</g>
<g id="#87a3bcff">
<path fill="#87a3bc" opacity="1.00" d=" M 120.05 55.38 C 123.45 58.72 127.08 62.30 128.51 66.97 C 129.78 66.19 130.74 65.09 131.65 63.93 C 130.59 65.68 128.80 67.41 129.48 69.65 C 129.71 70.72 129.96 71.78 130.22 72.85 C 130.23 75.62 130.12 78.39 130.11 81.16 C 133.35 79.93 136.34 78.17 139.13 76.12 C 143.37 73.07 148.21 70.46 150.98 65.85 C 153.28 66.09 154.81 63.66 153.37 61.78 C 153.52 61.51 153.83 60.97 153.99 60.70 L 154.77 59.95 C 156.25 64.90 153.35 69.97 155.48 74.85 C 154.83 75.70 154.23 76.58 153.68 77.50 C 151.28 81.07 149.19 84.99 145.85 87.81 C 143.14 90.19 139.38 90.39 136.17 91.72 C 132.25 89.38 128.56 86.68 125.29 83.50 C 127.93 78.27 128.02 71.34 124.43 66.51 C 121.73 66.78 118.97 66.79 116.33 67.50 C 113.11 69.40 110.41 72.74 111.07 76.70 C 114.08 76.83 117.18 76.76 120.06 77.75 C 119.41 77.82 118.10 77.94 117.45 78.00 C 112.83 77.86 107.63 80.77 107.60 85.89 C 109.21 90.58 112.50 94.37 115.11 98.51 C 107.64 103.74 98.19 104.09 89.39 103.73 C 87.54 102.59 85.22 101.88 84.01 99.97 C 86.74 95.77 91.80 93.93 95.10 90.22 C 100.09 85.70 100.98 78.71 104.01 73.00 C 106.62 68.08 108.48 62.51 112.57 58.58 C 115.38 57.97 118.25 57.76 121.06 57.19 C 120.81 56.74 120.30 55.84 120.05 55.38 Z" />
</g>
<g id="#9aa291ff">
<path fill="#9aa291" opacity="1.00" d=" M 83.74 59.42 C 87.32 59.02 90.73 57.81 93.47 55.40 C 94.79 57.85 95.19 60.88 93.56 63.30 C 93.40 62.77 93.07 61.73 92.90 61.20 C 90.50 62.87 87.80 64.13 84.79 63.89 C 84.48 62.39 84.15 60.90 83.74 59.42 Z" />
</g>
<g id="#748eafff">
<path fill="#748eaf" opacity="1.00" d=" M 47.37 66.71 C 47.83 63.64 48.35 60.58 48.85 57.51 C 49.05 57.83 49.43 58.46 49.62 58.78 C 50.55 60.49 51.70 62.05 52.96 63.52 C 53.39 65.27 53.80 67.01 54.16 68.77 C 52.92 68.54 51.69 68.28 50.47 67.99 C 49.41 67.69 48.36 67.34 47.34 66.93 L 47.37 66.71 Z" />
</g>
<g id="#b8bfa7ff">
<path fill="#b8bfa7" opacity="1.00" d=" M 49.62 58.78 C 52.47 58.09 55.31 58.82 57.52 60.74 C 55.96 61.61 54.46 62.56 52.96 63.52 C 51.70 62.05 50.55 60.49 49.62 58.78 Z" />
</g>
<g id="#b4b59fff">
<path fill="#b4b59f" opacity="1.00" d=" M 70.28 60.88 C 72.90 59.14 75.80 57.79 78.99 57.59 C 78.53 59.00 78.10 60.42 77.72 61.86 C 76.19 61.98 74.66 62.13 73.13 62.27 C 72.42 61.92 70.99 61.23 70.28 60.88 Z" />
</g>
<g id="#6e8ca7ff">
<path fill="#6e8ca7" opacity="1.00" d=" M 78.15 66.91 C 80.34 64.19 82.07 61.13 82.97 57.74 C 83.16 58.16 83.54 59.00 83.74 59.42 C 84.15 60.90 84.48 62.39 84.79 63.89 C 84.16 65.62 83.57 67.36 82.99 69.11 C 84.43 69.23 85.87 69.35 87.31 69.46 C 83.71 71.71 79.46 69.78 75.68 69.11 C 76.07 67.83 76.47 66.55 76.87 65.27 C 77.19 65.68 77.83 66.50 78.15 66.91 Z" />
</g>
<g id="#aac0d4ff">
<path fill="#aac0d4" opacity="1.00" d=" M 131.43 75.80 C 139.55 71.77 144.23 63.49 151.84 58.84 C 152.47 59.13 153.72 59.72 154.35 60.01 L 153.99 60.70 C 153.83 60.97 153.52 61.51 153.37 61.78 C 152.34 63.00 151.51 64.35 150.98 65.85 C 148.21 70.46 143.37 73.07 139.13 76.12 C 136.34 78.17 133.35 79.93 130.11 81.16 C 130.12 78.39 130.23 75.62 130.22 72.85 C 130.61 73.84 131.01 74.82 131.43 75.80 Z" />
</g>
<g id="#d7c0efff">
<path fill="#d7c0ef" opacity="1.00" d=" M 57.52 60.74 C 59.37 60.40 61.23 60.17 63.11 60.01 C 62.97 60.70 62.71 62.09 62.57 62.78 C 62.21 64.83 62.05 66.90 61.86 68.97 C 62.47 69.53 63.09 70.09 63.70 70.65 C 61.31 71.10 58.93 71.64 56.58 72.31 C 56.07 71.96 55.06 71.25 54.55 70.89 C 54.43 70.18 54.30 69.47 54.16 68.77 C 53.80 67.01 53.39 65.27 52.96 63.52 C 54.46 62.56 55.96 61.61 57.52 60.74 Z" />
</g>
<g id="#a68cb7ff">
<path fill="#a68cb7" opacity="1.00" d=" M 63.11 60.01 L 64.30 60.01 C 64.19 63.11 64.01 66.22 63.51 69.28 C 62.83 67.18 62.49 64.99 62.57 62.78 C 62.71 62.09 62.97 60.70 63.11 60.01 Z" />
</g>
<g id="#ccb3ddff">
<path fill="#ccb3dd" opacity="1.00" d=" M 64.30 60.01 C 66.31 60.17 68.31 60.43 70.28 60.88 C 70.99 61.23 72.42 61.92 73.13 62.27 C 72.32 64.89 72.11 68.02 69.85 69.89 C 67.63 71.81 65.05 73.26 62.53 74.75 L 61.53 75.26 C 59.83 74.37 58.16 73.41 56.58 72.31 C 58.93 71.64 61.31 71.10 63.70 70.65 C 63.09 70.09 62.47 69.53 61.86 68.97 C 62.05 66.90 62.21 64.83 62.57 62.78 C 62.49 64.99 62.83 67.18 63.51 69.28 C 64.01 66.22 64.19 63.11 64.30 60.01 Z" />
</g>
<g id="#8786b1ff">
<path fill="#8786b1" opacity="1.00" d=" M 73.13 62.27 C 74.66 62.13 76.19 61.98 77.72 61.86 C 77.44 62.99 77.16 64.13 76.87 65.27 C 76.47 66.55 76.07 67.83 75.68 69.11 C 74.28 70.43 72.87 71.74 71.38 72.96 C 70.04 73.63 68.64 74.19 67.23 74.70 C 65.66 74.74 64.09 74.71 62.53 74.75 C 65.05 73.26 67.63 71.81 69.85 69.89 C 72.11 68.02 72.32 64.89 73.13 62.27 Z" />
</g>
<g id="#708682ff">
<path fill="#708682" opacity="1.00" d=" M 84.79 63.89 C 87.80 64.13 90.50 62.87 92.90 61.20 C 93.07 61.73 93.40 62.77 93.56 63.30 C 92.04 65.46 90.11 67.28 88.13 69.01 L 87.31 69.46 C 85.87 69.35 84.43 69.23 82.99 69.11 C 83.57 67.36 84.16 65.62 84.79 63.89 Z" />
</g>
<g id="#9bc0d9ff">
<path fill="#9bc0d9" opacity="1.00" d=" M 154.77 59.95 C 159.28 63.57 158.86 70.67 155.48 74.85 C 153.35 69.97 156.25 64.90 154.77 59.95 Z" />
<path fill="#9bc0d9" opacity="1.00" d=" M 89.39 103.73 C 98.19 104.09 107.64 103.74 115.11 98.51 C 115.85 99.17 116.61 99.82 117.39 100.45 L 117.58 100.69 C 112.09 102.01 106.76 104.06 101.17 105.02 C 95.44 105.56 89.67 106.04 83.97 105.01 C 82.02 104.77 80.08 104.48 78.16 104.08 C 79.60 103.89 81.04 103.64 82.48 103.42 C 84.78 103.55 87.09 103.68 89.39 103.73 Z" />
</g>
<g id="#687c8cff">
<path fill="#687c8c" opacity="1.00" d=" M 153.37 61.78 C 154.81 63.66 153.28 66.09 150.98 65.85 C 151.51 64.35 152.34 63.00 153.37 61.78 Z" />
</g>
<g id="#7795b1ff">
<path fill="#7795b1" opacity="1.00" d=" M 116.33 67.50 C 118.97 66.79 121.73 66.78 124.43 66.51 C 128.02 71.34 127.93 78.27 125.29 83.50 C 123.43 81.69 121.87 79.61 120.06 77.75 C 117.18 76.76 114.08 76.83 111.07 76.70 C 110.41 72.74 113.11 69.40 116.33 67.50 Z" />
</g>
<g id="#ddeefcff">
<path fill="#ddeefc" opacity="1.00" d=" M 50.47 67.99 C 51.69 68.28 52.92 68.54 54.16 68.77 C 54.30 69.47 54.43 70.18 54.55 70.89 C 54.37 75.75 59.01 78.46 60.16 82.85 C 61.07 85.59 60.92 88.52 60.91 91.36 C 59.93 91.65 58.95 91.94 57.97 92.23 C 57.61 91.56 56.90 90.22 56.54 89.55 C 56.05 88.78 55.55 88.00 55.04 87.23 C 54.83 86.81 54.41 85.96 54.19 85.53 C 53.05 82.81 51.59 80.24 49.89 77.83 C 51.61 75.05 51.38 71.02 50.47 67.99 Z" />
</g>
<g id="#cee0efff">
<path fill="#cee0ef" opacity="1.00" d=" M 54.55 70.89 C 55.06 71.25 56.07 71.96 56.58 72.31 C 58.16 73.41 59.83 74.37 61.53 75.26 C 61.54 75.57 61.55 76.19 61.55 76.50 C 62.95 77.75 64.69 78.81 65.40 80.63 C 66.53 83.24 65.46 86.09 65.52 88.81 C 65.35 91.75 66.54 95.06 64.50 97.61 C 62.01 96.23 59.94 94.26 57.97 92.23 C 58.95 91.94 59.93 91.65 60.91 91.36 C 60.92 88.52 61.07 85.59 60.16 82.85 C 59.01 78.46 54.37 75.75 54.55 70.89 Z" />
</g>
<g id="#b3c8daff">
<path fill="#b3c8da" opacity="1.00" d=" M 67.23 74.70 C 68.64 74.19 70.04 73.63 71.38 72.96 C 74.64 74.35 78.14 75.13 81.32 76.72 C 82.78 78.20 83.45 80.40 82.73 82.40 C 81.91 88.22 75.16 90.72 74.57 96.66 C 73.13 101.17 79.15 102.91 82.48 103.42 C 81.04 103.64 79.60 103.89 78.16 104.08 C 75.04 102.98 71.89 101.87 68.92 100.40 C 70.23 100.72 71.56 100.96 72.88 101.23 C 71.51 99.40 69.56 97.55 69.96 95.02 C 69.96 90.35 73.24 86.54 73.84 82.05 C 72.73 78.81 69.30 77.26 67.23 74.70 Z" />
</g>
<g id="#95c4d9ff">
<path fill="#95c4d9" opacity="1.00" d=" M 157.26 72.84 C 158.81 75.41 159.32 78.62 158.34 81.49 C 155.05 89.10 146.32 92.73 138.47 93.01 C 137.49 92.66 136.51 92.32 135.53 92.00 L 136.17 91.72 C 139.38 90.39 143.14 90.19 145.85 87.81 C 149.19 84.99 151.28 81.07 153.68 77.50 L 154.69 76.04 L 155.90 77.52 C 155.11 75.70 156.02 74.21 157.26 72.84 Z" />
</g>
<g id="#c0d4e5ff">
<path fill="#c0d4e5" opacity="1.00" d=" M 61.53 75.26 L 62.53 74.75 C 64.09 74.71 65.66 74.74 67.23 74.70 C 69.30 77.26 72.73 78.81 73.84 82.05 C 73.24 86.54 69.96 90.35 69.96 95.02 C 69.56 97.55 71.51 99.40 72.88 101.23 C 71.56 100.96 70.23 100.72 68.92 100.40 C 67.39 99.57 65.95 98.58 64.50 97.61 C 66.54 95.06 65.35 91.75 65.52 88.81 C 65.46 86.09 66.53 83.24 65.40 80.63 C 64.69 78.81 62.95 77.75 61.55 76.50 C 61.55 76.19 61.54 75.57 61.53 75.26 Z" />
</g>
<g id="#b1c7dbff">
<path fill="#b1c7db" opacity="1.00" d=" M 43.98 83.38 C 45.87 81.45 47.90 79.66 49.89 77.83 C 51.59 80.24 53.05 82.81 54.19 85.53 C 53.48 85.76 52.06 86.21 51.35 86.43 C 46.59 94.90 37.73 99.71 29.66 104.52 C 29.63 104.82 29.57 105.43 29.54 105.74 C 28.98 105.75 27.85 105.78 27.28 105.80 C 25.84 105.48 24.43 105.08 23.00 104.72 C 28.27 102.54 33.61 99.80 37.09 95.12 C 39.66 91.37 41.95 87.44 43.98 83.38 Z" />
</g>
<g id="#b4cee4ff">
<path fill="#b4cee4" opacity="1.00" d=" M 107.60 85.89 C 107.63 80.77 112.83 77.86 117.45 78.00 C 118.68 82.86 123.64 85.03 127.11 88.10 C 127.28 90.90 127.54 93.70 127.86 96.48 C 125.28 96.66 122.42 97.55 120.07 96.05 C 115.84 93.37 111.79 90.04 109.57 85.43 C 109.08 85.55 108.10 85.78 107.60 85.89 Z" />
</g>
<g id="#cadef0ff">
<path fill="#cadef0" opacity="1.00" d=" M 117.45 78.00 C 118.10 77.94 119.41 77.82 120.06 77.75 C 121.87 79.61 123.43 81.69 125.29 83.50 C 128.56 86.68 132.25 89.38 136.17 91.72 L 135.53 92.00 L 134.79 92.32 C 136.01 93.40 137.19 94.75 138.91 94.96 C 143.23 95.90 147.65 96.31 151.98 97.21 C 151.80 96.68 151.43 95.62 151.25 95.08 C 152.57 95.69 153.92 96.25 155.17 97.01 C 155.82 98.27 156.40 99.56 156.98 100.85 C 156.57 101.09 155.76 101.56 155.35 101.80 C 152.89 100.00 150.31 98.28 147.32 97.51 C 148.83 99.19 150.65 100.52 152.56 101.70 C 146.64 105.62 138.72 103.69 134.01 98.80 C 133.02 96.93 133.70 94.45 132.21 92.77 C 130.77 90.96 128.91 89.53 127.11 88.10 C 123.64 85.03 118.68 82.86 117.45 78.00 Z" />
</g>
<g id="#c9e0f2ff">
<path fill="#c9e0f2" opacity="1.00" d=" M 33.00 88.88 C 37.05 87.94 40.54 85.61 43.98 83.38 C 41.95 87.44 39.66 91.37 37.09 95.12 C 33.61 99.80 28.27 102.54 23.00 104.72 C 24.43 105.08 25.84 105.48 27.28 105.80 C 22.94 106.19 18.58 106.09 14.24 106.29 L 13.34 106.04 C 12.85 105.71 11.88 105.06 11.39 104.74 C 13.94 101.26 16.61 97.73 20.18 95.23 C 23.01 93.46 26.51 93.17 29.30 91.30 C 29.81 90.94 30.83 90.22 31.33 89.86 C 26.96 89.27 22.53 89.63 18.28 90.77 C 19.05 88.91 21.33 89.52 22.91 89.31 C 26.26 88.96 29.64 89.19 33.00 88.88 Z" />
</g>
<g id="#c0d3e3ff">
<path fill="#c0d3e3" opacity="1.00" d=" M 107.60 85.89 C 108.10 85.78 109.08 85.55 109.57 85.43 C 111.79 90.04 115.84 93.37 120.07 96.05 C 122.42 97.55 125.28 96.66 127.86 96.48 C 127.54 93.70 127.28 90.90 127.11 88.10 C 128.91 89.53 130.77 90.96 132.21 92.77 C 133.70 94.45 133.02 96.93 134.01 98.80 C 138.72 103.69 146.64 105.62 152.56 101.70 C 154.70 102.60 155.53 105.34 154.24 107.26 C 152.36 109.35 149.73 110.63 146.99 111.12 C 143.03 111.93 139.08 112.85 135.05 113.14 C 127.74 111.83 121.91 106.44 117.58 100.69 L 117.39 100.45 C 116.61 99.82 115.85 99.17 115.11 98.51 C 112.50 94.37 109.21 90.58 107.60 85.89 Z" />
</g>
<g id="#91afc4ff">
<path fill="#91afc4" opacity="1.00" d=" M 51.35 86.43 C 52.06 86.21 53.48 85.76 54.19 85.53 C 54.41 85.96 54.83 86.81 55.04 87.23 C 53.07 88.46 51.35 90.02 49.84 91.78 C 45.89 96.21 41.20 99.92 36.13 102.99 C 41.84 102.36 45.27 96.88 50.71 95.92 C 41.93 106.39 26.88 107.41 14.23 106.29 L 14.24 106.29 C 18.58 106.09 22.94 106.19 27.28 105.80 C 27.85 105.78 28.98 105.75 29.54 105.74 C 29.57 105.43 29.63 104.82 29.66 104.52 C 37.73 99.71 46.59 94.90 51.35 86.43 Z" />
<path fill="#91afc4" opacity="1.00" d=" M 155.17 97.01 C 157.41 98.77 159.94 100.85 160.00 103.97 C 159.79 106.41 159.42 109.62 156.86 110.75 C 153.63 112.07 150.58 114.25 146.95 114.13 C 142.98 114.22 138.86 114.50 135.05 113.14 C 139.08 112.85 143.03 111.93 146.99 111.12 C 149.73 110.63 152.36 109.35 154.24 107.26 C 155.53 105.34 154.70 102.60 152.56 101.70 C 150.65 100.52 148.83 99.19 147.32 97.51 C 150.31 98.28 152.89 100.00 155.35 101.80 C 155.76 101.56 156.57 101.09 156.98 100.85 C 156.40 99.56 155.82 98.27 155.17 97.01 Z" />
</g>
<g id="#718da9ff">
<path fill="#718da9" opacity="1.00" d=" M 49.84 91.78 C 51.35 90.02 53.07 88.46 55.04 87.23 C 55.55 88.00 56.05 88.78 56.54 89.55 C 54.77 91.73 52.95 93.87 50.97 95.87 L 50.71 95.92 C 45.27 96.88 41.84 102.36 36.13 102.99 C 41.20 99.92 45.89 96.21 49.84 91.78 Z" />
</g>
<g id="#fbfdfeff">
<path fill="#fbfdfe" opacity="1.00" d=" M 18.28 90.77 C 22.53 89.63 26.96 89.27 31.33 89.86 C 30.83 90.22 29.81 90.94 29.30 91.30 C 24.58 90.93 20.03 92.16 15.38 92.59 C 16.10 92.13 17.55 91.23 18.28 90.77 Z" />
</g>
<g id="#dbf2ffff">
<path fill="#dbf2ff" opacity="1.00" d=" M 15.38 92.59 C 20.03 92.16 24.58 90.93 29.30 91.30 C 26.51 93.17 23.01 93.46 20.18 95.23 C 16.61 97.73 13.94 101.26 11.39 104.74 C 9.86 102.31 8.96 99.13 10.25 96.41 C 11.22 94.42 13.35 93.54 15.20 92.60 L 15.38 92.59 Z" />
</g>
</svg>
