<?xml version="1.0" encoding="UTF-8" ?>
<!DOCTYPE svg PUBLIC "-//W3C//DTD SVG 1.1//EN" "http://www.w3.org/Graphics/SVG/1.1/DTD/svg11.dtd">
<svg width="170pt" height="157pt" viewBox="0 0 170 157" version="1.1" xmlns="http://www.w3.org/2000/svg">
<g id="#d1e9ffff">
<path fill="#d1e9ff" opacity="1.00" d=" M 131.22 20.31 C 137.93 14.84 147.55 17.05 154.21 21.47 C 155.76 21.93 157.36 22.18 158.96 22.43 C 153.48 23.77 146.65 23.81 143.35 29.18 C 138.43 33.03 132.59 36.01 129.29 41.58 C 128.74 42.71 128.26 43.88 127.77 45.04 C 129.63 44.07 131.47 43.05 133.30 42.01 C 134.82 44.01 132.14 45.01 130.96 46.25 C 130.98 46.77 131.01 47.80 131.02 48.32 C 131.82 48.55 132.62 48.77 133.42 49.00 C 126.12 56.93 121.35 66.79 117.96 76.94 C 117.62 76.60 116.96 75.91 116.63 75.57 C 116.82 71.61 118.53 67.86 118.64 63.87 C 118.67 59.74 118.93 55.26 116.43 51.69 C 111.56 44.08 111.18 34.35 113.98 25.91 C 119.67 24.20 125.76 24.24 131.31 22.00 C 131.29 21.66 131.25 20.97 131.24 20.63 L 131.22 20.31 M 123.39 27.39 C 120.78 33.02 119.69 39.28 118.40 45.33 C 118.69 45.50 119.27 45.85 119.56 46.02 C 121.95 39.84 123.92 33.43 124.76 26.85 C 124.42 26.98 123.73 27.25 123.39 27.39 Z" />
</g>
<g id="#c1d4e9ff">
<path fill="#c1d4e9" opacity="1.00" d=" M 154.21 21.47 C 157.84 21.91 160.87 19.77 164.10 18.57 C 163.55 22.20 161.03 25.06 158.54 27.58 C 154.51 31.84 149.56 35.03 145.08 38.78 C 145.28 37.45 145.59 36.11 145.56 34.75 C 144.85 33.66 143.39 33.40 142.35 32.74 C 143.15 31.71 143.42 30.47 143.35 29.18 C 146.65 23.81 153.48 23.77 158.96 22.43 C 157.36 22.18 155.76 21.93 154.21 21.47 Z" />
</g>
<g id="#effeffff">
<path fill="#effeff" opacity="1.00" d=" M 102.45 22.46 C 107.33 19.80 113.43 19.00 118.61 21.29 C 116.16 21.72 113.67 21.95 111.25 22.52 C 108.64 24.11 106.75 26.70 103.93 27.98 C 100.88 29.56 96.93 30.63 95.70 34.26 C 96.12 36.41 97.06 38.52 96.48 40.75 C 91.60 37.07 84.47 33.64 84.10 26.75 C 87.70 26.53 91.09 28.64 94.71 27.59 C 97.55 26.31 99.87 24.16 102.45 22.46 Z" />
</g>
<g id="#e0f7ffff">
<path fill="#e0f7ff" opacity="1.00" d=" M 118.61 21.29 C 122.76 22.54 127.18 21.92 131.24 20.63 C 131.25 20.97 131.29 21.66 131.31 22.00 C 125.76 24.24 119.67 24.20 113.98 25.91 C 111.18 34.35 111.56 44.08 116.43 51.69 C 118.93 55.26 118.67 59.74 118.64 63.87 C 118.53 67.86 116.82 71.61 116.63 75.57 C 116.96 75.91 117.62 76.60 117.96 76.94 C 117.14 79.26 116.74 81.69 116.42 84.12 C 113.15 88.15 112.43 93.49 109.49 97.73 C 103.49 98.08 98.99 93.43 93.70 91.36 C 88.36 88.65 80.31 87.56 79.35 80.35 C 86.39 81.33 92.82 84.58 98.75 88.36 C 98.64 88.61 98.41 89.11 98.30 89.36 C 100.57 90.89 102.95 93.02 105.84 92.86 C 108.58 91.87 110.36 89.19 111.63 86.68 C 113.51 83.02 112.44 78.83 111.75 75.01 C 110.76 70.04 110.90 64.95 110.47 59.92 C 110.04 64.34 110.72 68.94 109.08 73.17 C 111.01 61.20 107.06 47.57 96.48 40.75 C 97.06 38.52 96.12 36.41 95.70 34.26 C 96.93 30.63 100.88 29.56 103.93 27.98 C 106.75 26.70 108.64 24.11 111.25 22.52 C 113.67 21.95 116.16 21.72 118.61 21.29 M 99.18 32.02 C 101.74 36.48 105.90 39.76 109.36 43.49 C 109.63 37.60 103.68 34.38 99.18 32.02 Z" />
</g>
<g id="#96b9deff">
<path fill="#96b9de" opacity="1.00" d=" M 123.39 27.39 C 123.73 27.25 124.42 26.98 124.76 26.85 C 123.92 33.43 121.95 39.84 119.56 46.02 C 119.27 45.85 118.69 45.50 118.40 45.33 C 119.69 39.28 120.78 33.02 123.39 27.39 Z" />
</g>
<g id="#9fbbd9ff">
<path fill="#9fbbd9" opacity="1.00" d=" M 129.29 41.58 C 132.59 36.01 138.43 33.03 143.35 29.18 C 143.42 30.47 143.15 31.71 142.35 32.74 C 139.58 34.84 136.73 36.82 134.10 39.09 C 132.66 40.18 131.29 41.79 129.29 41.58 Z" />
</g>
<g id="#b7d2efff">
<path fill="#b7d2ef" opacity="1.00" d=" M 99.18 32.02 C 103.68 34.38 109.63 37.60 109.36 43.49 C 105.90 39.76 101.74 36.48 99.18 32.02 Z" />
</g>
<g id="#c8def4ff">
<path fill="#c8def4" opacity="1.00" d=" M 134.10 39.09 C 136.73 36.82 139.58 34.84 142.35 32.74 C 143.39 33.40 144.85 33.66 145.56 34.75 C 145.59 36.11 145.28 37.45 145.08 38.78 C 140.95 41.86 137.13 45.33 133.58 49.05 L 133.42 49.00 C 132.62 48.77 131.82 48.55 131.02 48.32 C 131.01 47.80 130.98 46.77 130.96 46.25 C 132.14 45.01 134.82 44.01 133.30 42.01 C 131.47 43.05 129.63 44.07 127.77 45.04 C 128.26 43.88 128.74 42.71 129.29 41.58 C 131.29 41.79 132.66 40.18 134.10 39.09 Z" />
</g>
<g id="#d8ecfeff">
<path fill="#d8ecfe" opacity="1.00" d=" M 53.91 62.43 C 54.71 60.10 54.99 57.50 56.53 55.50 C 57.74 57.57 58.80 59.72 60.02 61.78 C 61.79 65.19 66.36 64.80 69.65 64.63 C 70.62 65.28 71.60 65.94 72.59 66.59 C 70.00 67.56 67.40 68.55 65.11 70.12 C 58.90 74.42 50.98 76.46 46.28 82.74 C 45.77 81.42 45.27 80.09 44.77 78.77 L 44.72 78.60 C 44.82 78.10 45.02 77.11 45.11 76.61 L 43.22 75.90 C 46.28 71.31 49.18 65.42 55.18 64.41 C 54.55 63.32 53.28 63.10 52.18 62.74 C 52.62 62.67 53.48 62.51 53.91 62.43 Z" />
</g>
<g id="#feffffff">
<path fill="#feffff" opacity="1.00" d=" M 109.08 73.17 C 110.72 68.94 110.04 64.34 110.47 59.92 C 110.90 64.95 110.76 70.04 111.75 75.01 C 112.44 78.83 113.51 83.02 111.63 86.68 C 110.36 89.19 108.58 91.87 105.84 92.86 C 102.95 93.02 100.57 90.89 98.30 89.36 C 98.41 89.11 98.64 88.61 98.75 88.36 C 104.13 84.97 107.75 79.35 109.08 73.17 Z" />
</g>
<g id="#e9eef1f9">
<path fill="#e9eef1" opacity="0.98" d=" M 60.02 61.78 C 63.37 62.01 66.85 62.66 69.65 64.63 C 66.36 64.80 61.79 65.19 60.02 61.78 Z" />
</g>
<g id="#f6fefdff">
<path fill="#f6fefd" opacity="1.00" d=" M 41.01 75.06 C 42.17 69.22 46.79 64.86 52.18 62.74 C 53.28 63.10 54.55 63.32 55.18 64.41 C 49.18 65.42 46.28 71.31 43.22 75.90 C 42.45 76.28 41.68 76.68 40.93 77.09 C 40.95 76.58 40.99 75.57 41.01 75.06 Z" />
</g>
<g id="#c3d8ecff">
<path fill="#c3d8ec" opacity="1.00" d=" M 65.11 70.12 C 67.40 68.55 70.00 67.56 72.59 66.59 C 74.91 69.80 76.80 73.33 78.21 77.03 C 78.11 77.64 77.89 78.85 77.79 79.46 C 76.18 77.11 75.53 73.69 72.91 72.30 C 69.82 73.19 67.24 75.77 64.89 77.99 C 64.37 77.84 63.33 77.55 62.81 77.40 C 59.06 78.87 59.27 83.13 59.61 86.47 C 58.80 85.51 58.03 84.53 57.25 83.56 C 54.55 84.77 51.74 85.72 49.03 86.91 C 48.73 87.20 48.14 87.77 47.84 88.06 C 49.66 88.26 51.49 88.39 53.32 88.45 C 53.20 90.45 53.20 92.48 52.80 94.46 C 50.54 94.86 48.29 95.32 46.06 95.85 C 47.62 98.06 50.24 98.89 52.62 99.86 C 52.87 104.23 52.40 108.65 53.05 113.00 C 53.59 116.81 55.22 120.34 56.64 123.88 C 56.31 124.30 55.67 125.14 55.34 125.55 C 52.25 122.73 50.18 119.15 48.17 115.53 L 48.23 115.33 C 50.00 110.01 49.06 103.67 45.98 98.97 C 45.48 99.49 44.98 100.00 44.46 100.50 C 44.36 98.96 44.74 96.78 42.76 96.33 C 39.60 95.55 37.78 92.23 38.84 89.15 C 38.90 89.87 39.02 91.31 39.08 92.04 C 40.88 90.29 42.34 88.24 43.57 86.06 C 43.84 85.89 44.37 85.56 44.64 85.39 L 45.01 85.27 C 44.98 83.10 44.90 80.93 44.77 78.77 C 45.27 80.09 45.77 81.42 46.28 82.74 C 50.98 76.46 58.90 74.42 65.11 70.12 Z" />
</g>
<g id="#adc1d8ff">
<path fill="#adc1d8" opacity="1.00" d=" M 64.89 77.99 C 67.24 75.77 69.82 73.19 72.91 72.30 C 75.53 73.69 76.18 77.11 77.79 79.46 C 77.89 78.85 78.11 77.64 78.21 77.03 C 78.65 78.12 79.03 79.22 79.35 80.35 C 80.31 87.56 88.36 88.65 93.70 91.36 C 98.99 93.43 103.49 98.08 109.49 97.73 C 112.43 93.49 113.15 88.15 116.42 84.12 C 116.24 90.41 116.36 96.72 115.87 103.00 C 115.64 103.24 115.17 103.72 114.94 103.96 C 111.16 104.77 107.30 104.87 103.75 103.03 C 99.73 100.23 95.56 97.28 90.63 96.42 C 87.59 95.70 84.13 95.56 81.71 93.34 C 79.51 91.33 77.74 88.92 75.83 86.65 C 69.79 87.37 67.27 93.59 62.50 96.40 C 57.93 97.21 53.31 95.74 48.71 96.21 C 52.54 98.26 56.83 99.07 60.96 100.29 C 58.33 105.78 57.19 112.09 59.02 118.01 C 61.15 122.18 64.13 125.85 66.23 130.04 C 69.20 131.66 72.77 131.76 76.03 132.53 C 74.35 132.73 72.67 132.92 70.98 133.06 C 66.99 132.84 63.54 130.66 59.97 129.09 C 58.15 128.32 56.72 126.92 55.34 125.55 C 55.67 125.14 56.31 124.30 56.64 123.88 C 55.22 120.34 53.59 116.81 53.05 113.00 C 52.40 108.65 52.87 104.23 52.62 99.86 C 50.24 98.89 47.62 98.06 46.06 95.85 C 48.29 95.32 50.54 94.86 52.80 94.46 C 53.20 92.48 53.20 90.45 53.32 88.45 C 53.46 88.10 53.73 87.41 53.87 87.07 C 52.26 86.99 50.64 86.90 49.03 86.91 C 51.74 85.72 54.55 84.77 57.25 83.56 C 58.03 84.53 58.80 85.51 59.61 86.47 C 61.86 86.84 64.20 87.04 66.43 86.44 C 67.58 83.79 66.70 80.28 64.89 77.99 Z" />
<path fill="#adc1d8" opacity="1.00" d=" M 40.02 85.93 C 40.10 82.29 40.08 78.61 41.01 75.06 C 40.99 75.57 40.95 76.58 40.93 77.09 C 41.68 76.68 42.45 76.28 43.22 75.90 L 45.11 76.61 C 45.02 77.11 44.82 78.10 44.72 78.60 C 44.15 79.44 43.58 80.28 43.01 81.12 C 42.39 79.96 41.78 78.80 41.16 77.64 C 40.95 79.89 40.62 82.14 40.77 84.40 C 41.41 86.09 43.33 85.22 44.64 85.39 C 44.37 85.56 43.84 85.89 43.57 86.06 C 42.68 86.03 40.90 85.96 40.02 85.93 Z" />
</g>
<g id="#251a13ff">
<path fill="#251a13" opacity="1.00" d=" M 59.61 86.47 C 59.27 83.13 59.06 78.87 62.81 77.40 C 63.33 77.55 64.37 77.84 64.89 77.99 C 66.70 80.28 67.58 83.79 66.43 86.44 C 64.20 87.04 61.86 86.84 59.61 86.47 M 61.98 78.79 C 61.86 79.29 61.62 80.29 61.50 80.78 C 63.53 84.11 65.28 77.01 61.98 78.79 Z" />
<path fill="#251a13" opacity="1.00" d=" M 40.77 84.40 C 40.62 82.14 40.95 79.89 41.16 77.64 C 41.78 78.80 42.39 79.96 43.01 81.12 C 43.58 80.28 44.15 79.44 44.72 78.60 L 44.77 78.77 C 44.90 80.93 44.98 83.10 45.01 85.27 L 44.64 85.39 C 43.33 85.22 41.41 86.09 40.77 84.40 Z" />
<path fill="#251a13" opacity="1.00" d=" M 47.84 88.06 C 48.14 87.77 48.73 87.20 49.03 86.91 C 50.64 86.90 52.26 86.99 53.87 87.07 C 53.73 87.41 53.46 88.10 53.32 88.45 C 51.49 88.39 49.66 88.26 47.84 88.06 Z" />
</g>
<g id="#f6ffffff">
<path fill="#f6ffff" opacity="1.00" d=" M 61.98 78.79 C 65.28 77.01 63.53 84.11 61.50 80.78 C 61.62 80.29 61.86 79.29 61.98 78.79 Z" />
<path fill="#f6ffff" opacity="1.00" d=" M 44.46 100.50 C 44.98 100.00 45.48 99.49 45.98 98.97 C 49.06 103.67 50.00 110.01 48.23 115.33 C 47.97 114.84 47.46 113.85 47.20 113.36 C 46.58 112.02 46.07 110.63 45.63 109.22 C 45.27 107.52 44.99 105.80 44.69 104.09 C 43.96 104.28 42.51 104.66 41.79 104.85 C 41.85 104.18 41.98 102.85 42.04 102.18 C 42.65 101.76 43.86 100.92 44.46 100.50 Z" />
</g>
<g id="#d4eeffff">
<path fill="#d4eeff" opacity="1.00" d=" M 40.02 85.93 C 40.90 85.96 42.68 86.03 43.57 86.06 C 42.34 88.24 40.88 90.29 39.08 92.04 C 39.02 91.31 38.90 89.87 38.84 89.15 C 39.20 88.06 39.59 86.99 40.02 85.93 Z" />
</g>
<g id="#8aa3beff">
<path fill="#8aa3be" opacity="1.00" d=" M 62.50 96.40 C 67.27 93.59 69.79 87.37 75.83 86.65 C 77.74 88.92 79.51 91.33 81.71 93.34 C 84.13 95.56 87.59 95.70 90.63 96.42 C 95.56 97.28 99.73 100.23 103.75 103.03 C 107.10 106.48 111.08 109.84 111.25 115.08 C 111.11 115.54 110.84 116.46 110.70 116.91 C 106.08 114.48 103.01 110.18 99.86 106.17 C 98.40 104.49 96.52 102.29 94.04 102.76 C 92.47 104.13 91.21 105.81 89.88 107.41 C 89.51 106.99 88.78 106.15 88.42 105.74 C 89.05 105.10 89.66 104.45 90.26 103.79 C 90.96 102.87 91.55 101.87 92.13 100.88 C 89.47 100.15 87.11 101.43 84.87 102.68 C 82.15 104.29 78.86 103.93 75.94 104.87 C 72.05 107.68 68.65 111.98 68.57 116.98 C 68.49 118.98 68.45 121.38 70.33 122.63 C 74.56 126.19 78.95 130.86 84.97 130.52 C 90.88 129.69 97.19 127.03 99.52 121.08 C 99.94 121.89 100.35 122.72 100.74 123.54 C 101.24 124.57 101.73 125.61 102.24 126.63 C 99.55 128.00 97.16 129.86 94.52 131.31 C 87.05 134.05 78.76 135.18 70.98 133.06 C 72.67 132.92 74.35 132.73 76.03 132.53 C 72.77 131.76 69.20 131.66 66.23 130.04 C 64.13 125.85 61.15 122.18 59.02 118.01 C 57.19 112.09 58.33 105.78 60.96 100.29 C 56.83 99.07 52.54 98.26 48.71 96.21 C 53.31 95.74 57.93 97.21 62.50 96.40 Z" />
</g>
<g id="#7893aeff">
<path fill="#7893ae" opacity="1.00" d=" M 84.87 102.68 C 87.11 101.43 89.47 100.15 92.13 100.88 C 91.55 101.87 90.96 102.87 90.26 103.79 C 90.07 103.35 89.68 102.48 89.49 102.04 C 87.30 103.36 86.02 105.58 84.49 107.54 C 82.76 109.79 79.84 111.16 79.05 114.06 C 78.22 116.53 77.51 119.11 77.56 121.73 C 80.22 124.12 83.75 125.57 87.14 126.68 C 92.17 126.87 95.32 122.19 98.32 118.85 C 98.62 119.40 99.22 120.52 99.52 121.08 C 97.19 127.03 90.88 129.69 84.97 130.52 C 78.95 130.86 74.56 126.19 70.33 122.63 C 68.45 121.38 68.49 118.98 68.57 116.98 C 68.65 111.98 72.05 107.68 75.94 104.87 C 78.86 103.93 82.15 104.29 84.87 102.68 Z" />
</g>
<g id="#638bb2ff">
<path fill="#638bb2" opacity="1.00" d=" M 40.73 103.11 L 42.04 102.18 C 41.98 102.85 41.85 104.18 41.79 104.85 C 42.51 104.66 43.96 104.28 44.69 104.09 C 44.99 105.80 45.27 107.52 45.63 109.22 C 41.65 111.94 38.00 115.55 36.50 120.24 C 34.78 124.74 30.18 127.04 27.64 130.96 C 32.38 122.41 34.00 111.84 41.53 105.07 C 41.20 104.76 40.53 104.15 40.19 103.84 C 39.98 103.54 39.55 102.94 39.34 102.64 L 40.73 103.11 Z" />
</g>
<g id="#6d89a6ff">
<path fill="#6d89a6" opacity="1.00" d=" M 84.49 107.54 C 86.02 105.58 87.30 103.36 89.49 102.04 C 89.68 102.48 90.07 103.35 90.26 103.79 C 89.66 104.45 89.05 105.10 88.42 105.74 C 88.78 106.15 89.51 106.99 89.88 107.41 C 93.05 110.94 96.06 114.65 98.32 118.85 C 95.32 122.19 92.17 126.87 87.14 126.68 C 83.75 125.57 80.22 124.12 77.56 121.73 C 77.51 119.11 78.22 116.53 79.05 114.06 C 79.84 111.16 82.76 109.79 84.49 107.54 Z" />
</g>
<g id="#aac3ddff">
<path fill="#aac3dd" opacity="1.00" d=" M 89.88 107.41 C 91.21 105.81 92.47 104.13 94.04 102.76 C 96.52 102.29 98.40 104.49 99.86 106.17 C 103.01 110.18 106.08 114.48 110.70 116.91 C 111.95 117.72 113.18 118.61 114.65 118.98 L 114.95 119.59 C 115.62 123.92 118.20 127.51 120.34 131.21 C 119.62 131.85 118.89 132.49 118.17 133.14 C 116.84 132.15 115.50 131.18 114.24 130.11 C 113.68 129.31 113.15 128.50 112.63 127.68 C 113.21 125.07 111.01 123.32 109.63 121.45 C 106.39 117.65 103.84 112.92 99.09 110.78 C 100.65 113.04 102.37 115.20 104.05 117.39 C 103.50 117.73 102.41 118.42 101.86 118.77 C 101.49 120.36 101.11 121.95 100.74 123.54 C 100.35 122.72 99.94 121.89 99.52 121.08 C 99.22 120.52 98.62 119.40 98.32 118.85 C 96.06 114.65 93.05 110.94 89.88 107.41 Z" />
</g>
<g id="#99b8d3ff">
<path fill="#99b8d3" opacity="1.00" d=" M 103.75 103.03 C 107.30 104.87 111.16 104.77 114.94 103.96 C 115.17 103.72 115.64 103.24 115.87 103.00 C 114.97 107.23 113.71 111.47 111.25 115.08 C 111.08 109.84 107.10 106.48 103.75 103.03 Z" />
</g>
<g id="#dff5ffff">
<path fill="#dff5ff" opacity="1.00" d=" M 26.85 120.80 C 30.72 114.77 34.07 107.94 40.19 103.84 C 40.53 104.15 41.20 104.76 41.53 105.07 C 34.00 111.84 32.38 122.41 27.64 130.96 C 24.38 136.85 19.07 141.84 12.56 143.87 C 11.78 142.83 10.99 141.79 10.19 140.77 C 9.61 135.95 14.07 132.95 17.52 130.57 C 21.39 128.07 23.30 123.64 26.85 120.80 Z" />
</g>
<g id="#72a3b9ff">
<path fill="#72a3b9" opacity="1.00" d=" M 36.50 120.24 C 38.00 115.55 41.65 111.94 45.63 109.22 C 46.07 110.63 46.58 112.02 47.20 113.36 C 45.98 118.26 41.07 120.06 36.50 120.24 Z" />
</g>
<g id="#91aac7ff">
<path fill="#91aac7" opacity="1.00" d=" M 99.09 110.78 C 103.84 112.92 106.39 117.65 109.63 121.45 C 111.01 123.32 113.21 125.07 112.63 127.68 C 109.60 124.39 106.69 121.00 104.05 117.39 C 102.37 115.20 100.65 113.04 99.09 110.78 Z" />
</g>
<g id="#b7c9dfff">
<path fill="#b7c9df" opacity="1.00" d=" M 101.86 118.77 C 102.41 118.42 103.50 117.73 104.05 117.39 C 106.69 121.00 109.60 124.39 112.63 127.68 C 113.15 128.50 113.68 129.31 114.24 130.11 C 111.86 131.75 109.35 133.19 106.70 134.36 L 106.37 134.51 C 104.98 131.89 103.56 129.29 102.24 126.63 C 101.73 125.61 101.24 124.57 100.74 123.54 C 101.11 121.95 101.49 120.36 101.86 118.77 Z" />
</g>
<g id="#e5f8ffff">
<path fill="#e5f8ff" opacity="1.00" d=" M 114.65 118.98 C 118.36 118.87 122.09 118.80 125.77 118.29 C 129.22 120.12 130.97 123.82 133.30 126.79 C 134.84 131.45 137.98 136.01 137.23 141.09 C 135.71 143.54 137.15 146.77 135.16 149.02 C 135.16 145.35 135.76 141.72 136.02 138.06 C 134.54 134.44 130.51 132.82 128.27 129.72 C 125.57 126.20 122.18 123.28 118.11 121.47 C 117.06 120.84 115.99 120.22 114.95 119.59 L 114.65 118.98 Z" />
</g>
<g id="#c3d3e7ff">
<path fill="#c3d3e7" opacity="1.00" d=" M 114.95 119.59 C 115.99 120.22 117.06 120.84 118.11 121.47 C 122.31 126.62 127.37 131.39 129.83 137.68 C 127.54 138.24 124.57 137.85 123.01 139.98 C 120.99 142.27 122.81 145.20 123.47 147.65 C 123.10 147.90 122.36 148.39 121.99 148.63 C 115.69 145.56 110.56 140.18 106.70 134.36 C 109.35 133.19 111.86 131.75 114.24 130.11 C 115.50 131.18 116.84 132.15 118.17 133.14 C 118.89 132.49 119.62 131.85 120.34 131.21 C 118.20 127.51 115.62 123.92 114.95 119.59 Z" />
</g>
<g id="#ceddeeff">
<path fill="#ceddee" opacity="1.00" d=" M 118.11 121.47 C 122.18 123.28 125.57 126.20 128.27 129.72 C 130.51 132.82 134.54 134.44 136.02 138.06 C 135.76 141.72 135.16 145.35 135.16 149.02 L 135.13 149.67 C 133.77 150.53 132.44 151.44 131.14 152.40 C 127.84 151.72 124.79 150.29 121.82 148.74 L 121.99 148.63 C 122.36 148.39 123.10 147.90 123.47 147.65 C 122.81 145.20 120.99 142.27 123.01 139.98 C 124.57 137.85 127.54 138.24 129.83 137.68 C 127.37 131.39 122.31 126.62 118.11 121.47 Z" />
</g>
</svg>
