<?xml version="1.0" encoding="UTF-8" ?>
<!DOCTYPE svg PUBLIC "-//W3C//DTD SVG 1.1//EN" "http://www.w3.org/Graphics/SVG/1.1/DTD/svg11.dtd">
<svg width="229pt" height="186pt" viewBox="0 0 229 186" version="1.1" xmlns="http://www.w3.org/2000/svg">
<g id="#675a679c">
<path fill="#675a67" opacity="0.61" d=" M 100.33 18.09 C 99.86 16.23 103.14 16.10 103.86 17.42 C 102.75 17.95 101.55 18.28 100.33 18.09 Z" />
</g>
<g id="#f6d3f7ff">
<path fill="#f6d3f7" opacity="1.00" d=" M 103.86 17.42 C 104.58 17.34 106.03 17.18 106.75 17.10 C 109.76 17.56 112.75 18.15 115.74 18.73 C 106.04 19.49 94.95 19.14 87.14 25.89 C 86.83 24.95 86.50 24.02 86.16 23.09 C 90.49 20.57 95.33 18.55 100.33 18.09 C 101.55 18.28 102.75 17.95 103.86 17.42 Z" />
</g>
<g id="#bc9fc6ff">
<path fill="#bc9fc6" opacity="1.00" d=" M 106.75 17.10 C 113.70 17.01 120.62 18.53 126.91 21.49 C 123.98 21.86 120.56 20.85 118.35 23.39 C 115.64 23.13 112.94 23.63 110.45 24.69 C 103.21 22.44 95.28 24.18 88.84 27.89 C 88.31 27.65 87.27 27.17 86.74 26.92 L 87.14 25.89 C 94.95 19.14 106.04 19.49 115.74 18.73 C 112.75 18.15 109.76 17.56 106.75 17.10 Z" />
</g>
<g id="#ad8fb7ff">
<path fill="#ad8fb7" opacity="1.00" d=" M 118.35 23.39 C 120.56 20.85 123.98 21.86 126.91 21.49 C 130.51 23.25 133.91 25.46 136.83 28.22 C 133.67 31.15 129.44 32.20 125.36 33.16 C 125.09 33.61 124.55 34.53 124.28 34.98 C 125.58 31.48 123.36 28.42 120.97 26.08 C 121.18 25.73 121.59 25.01 121.79 24.66 C 120.64 24.22 119.50 23.80 118.35 23.39 Z" />
</g>
<g id="#3d264dff">
<path fill="#3d264d" opacity="1.00" d=" M 82.98 25.45 C 84.04 24.66 85.10 23.88 86.16 23.09 C 86.50 24.02 86.83 24.95 87.14 25.89 L 86.74 26.92 C 85.91 29.06 84.96 31.15 83.86 33.17 C 82.89 34.86 81.81 36.48 80.71 38.09 L 79.91 38.33 C 81.86 33.90 84.18 29.62 85.60 24.96 C 85.09 25.06 84.08 25.25 83.57 25.34 L 82.98 25.45 Z" />
<path fill="#3d264d" opacity="1.00" d=" M 57.36 81.37 C 58.50 78.72 58.40 75.76 58.62 72.93 C 59.29 75.39 60.02 77.84 60.56 80.34 C 60.43 83.76 59.23 87.12 56.94 89.70 C 56.36 89.98 55.18 90.53 54.60 90.81 C 52.42 90.29 50.22 89.92 48.03 89.49 C 50.15 85.57 55.74 85.64 57.36 81.37 Z" />
</g>
<g id="#cfaaecff">
<path fill="#cfaaec" opacity="1.00" d=" M 88.84 27.89 C 95.28 24.18 103.21 22.44 110.45 24.69 C 109.49 25.66 108.55 26.66 107.67 27.71 C 103.43 25.04 98.30 26.73 93.90 28.01 C 90.59 28.89 88.13 31.35 85.78 33.70 C 85.30 33.56 84.34 33.30 83.86 33.17 C 84.96 31.15 85.91 29.06 86.74 26.92 C 87.27 27.17 88.31 27.65 88.84 27.89 Z" />
<path fill="#cfaaec" opacity="1.00" d=" M 7.75 89.23 C 9.21 89.19 10.67 89.12 12.13 89.08 C 11.68 91.29 11.86 93.77 10.66 95.75 C 9.86 97.29 8.07 96.54 6.78 96.25 C 6.14 95.04 5.70 93.73 5.23 92.45 C 6.08 91.38 6.93 90.32 7.75 89.23 Z" />
</g>
<g id="#251c2bff">
<path fill="#251c2b" opacity="1.00" d=" M 110.45 24.69 C 112.94 23.63 115.64 23.13 118.35 23.39 C 119.50 23.80 120.64 24.22 121.79 24.66 C 121.59 25.01 121.18 25.73 120.97 26.08 C 118.20 24.69 114.47 23.48 111.81 25.75 C 108.39 28.25 108.78 32.98 109.81 36.58 L 110.00 37.62 L 109.05 37.81 C 108.37 36.59 107.75 35.34 107.23 34.04 C 107.19 31.92 107.31 29.80 107.67 27.71 C 108.55 26.66 109.49 25.66 110.45 24.69 Z" />
<path fill="#251c2b" opacity="1.00" d=" M 112.55 31.21 C 112.40 30.11 113.48 29.51 114.02 28.72 C 114.51 29.60 115.04 30.47 115.45 31.39 C 114.45 32.08 113.48 32.02 112.55 31.21 Z" />
<path fill="#251c2b" opacity="1.00" d=" M 76.25 51.50 C 79.18 52.40 82.23 52.04 85.22 51.72 C 85.52 51.79 86.13 51.94 86.44 52.01 C 91.82 53.89 97.57 53.01 103.05 52.06 C 109.40 50.89 115.88 51.31 122.29 51.65 C 122.41 52.99 122.53 54.32 122.61 55.66 C 122.76 60.52 122.40 65.37 122.06 70.20 C 120.74 78.65 118.67 87.28 113.10 94.02 C 107.65 99.87 98.32 101.57 91.26 97.76 C 88.41 95.23 86.12 92.07 84.98 88.41 C 82.17 77.68 84.13 66.52 82.24 55.69 C 81.67 55.28 80.53 54.47 79.96 54.07 C 79.00 53.40 78.04 52.74 77.08 52.09 L 76.25 51.50 M 92.69 67.73 C 88.17 72.97 88.27 80.54 89.00 87.02 C 90.18 90.82 90.66 96.13 95.10 97.49 C 99.01 99.63 103.61 97.94 107.54 96.68 C 113.23 93.86 117.00 87.77 118.23 81.72 C 120.13 78.52 120.28 74.57 120.63 70.95 C 121.05 68.96 119.33 68.01 117.79 67.36 C 117.75 66.72 117.69 66.09 117.61 65.45 C 114.53 63.90 110.85 64.28 107.61 65.10 C 102.65 63.71 96.49 63.79 92.69 67.73 Z" />
</g>
<g id="#fefefeff">
<path fill="#fefefe" opacity="1.00" d=" M 111.81 25.75 C 114.47 23.48 118.20 24.69 120.97 26.08 C 123.36 28.42 125.58 31.48 124.28 34.98 C 122.09 39.59 116.21 38.80 112.04 39.56 L 111.69 39.43 C 111.07 38.47 110.45 37.52 109.81 36.58 C 108.78 32.98 108.39 28.25 111.81 25.75 M 112.55 31.21 C 113.48 32.02 114.45 32.08 115.45 31.39 C 115.04 30.47 114.51 29.60 114.02 28.72 C 113.48 29.51 112.40 30.11 112.55 31.21 Z" />
</g>
<g id="#fcfcfcff">
<path fill="#fcfcfc" opacity="1.00" d=" M 80.42 28.20 C 81.34 27.10 82.39 26.15 83.57 25.34 C 84.08 25.25 85.09 25.06 85.60 24.96 C 84.18 29.62 81.86 33.90 79.91 38.33 C 78.55 38.65 77.18 38.88 75.81 39.11 L 74.53 38.63 C 75.93 35.57 77.12 32.37 79.11 29.61 C 79.43 30.51 80.16 32.67 81.45 31.55 C 82.50 30.39 81.27 29.01 80.42 28.20 Z" />
</g>
<g id="#dcb5f9ff">
<path fill="#dcb5f9" opacity="1.00" d=" M 93.90 28.01 C 98.30 26.73 103.43 25.04 107.67 27.71 C 107.31 29.80 107.19 31.92 107.23 34.04 C 106.68 34.10 105.60 34.22 105.05 34.27 C 105.44 33.08 105.84 31.89 106.23 30.70 C 101.19 27.74 95.03 29.69 90.26 32.24 C 86.32 34.43 82.52 38.86 83.86 43.66 C 84.30 43.58 85.18 43.42 85.62 43.34 C 89.53 43.49 93.74 44.30 97.33 42.24 C 101.01 40.23 104.84 38.38 109.05 37.81 L 110.00 37.62 L 109.81 36.58 C 110.45 37.52 111.07 38.47 111.69 39.43 C 111.80 39.83 112.02 40.64 112.14 41.04 C 104.26 45.69 94.79 50.72 85.46 47.49 C 81.53 46.43 79.94 41.77 80.71 38.09 C 81.81 36.48 82.89 34.86 83.86 33.17 C 84.34 33.30 85.30 33.56 85.78 33.70 C 88.13 31.35 90.59 28.89 93.90 28.01 Z" />
</g>
<g id="#443152ff">
<path fill="#443152" opacity="1.00" d=" M 79.92 28.15 L 80.42 28.20 C 81.27 29.01 82.50 30.39 81.45 31.55 C 80.16 32.67 79.43 30.51 79.11 29.61 C 79.31 29.25 79.72 28.52 79.92 28.15 Z" />
<path fill="#443152" opacity="1.00" d=" M 138.68 46.32 C 141.74 46.35 144.78 45.98 147.71 45.07 C 148.18 45.92 148.61 46.80 149.01 47.69 C 147.70 49.97 145.84 52.46 142.94 52.51 C 136.08 52.84 128.97 52.60 122.61 55.66 C 122.53 54.32 122.41 52.99 122.29 51.65 C 128.62 52.91 132.66 46.41 138.68 46.32 Z" />
</g>
<g id="#5e4a70ff">
<path fill="#5e4a70" opacity="1.00" d=" M 136.83 28.22 L 136.98 28.10 C 138.13 29.60 139.29 31.09 140.46 32.58 C 137.97 33.81 135.46 35.03 132.84 35.94 C 130.21 36.36 127.57 36.81 125.08 37.78 C 122.97 38.80 120.88 39.86 118.69 40.71 C 116.41 40.76 114.07 40.76 112.04 39.56 C 116.21 38.80 122.09 39.59 124.28 34.98 C 124.55 34.53 125.09 33.61 125.36 33.16 C 129.44 32.20 133.67 31.15 136.83 28.22 Z" />
</g>
<g id="#ebc1ffff">
<path fill="#ebc1ff" opacity="1.00" d=" M 90.26 32.24 C 95.03 29.69 101.19 27.74 106.23 30.70 C 105.84 31.89 105.44 33.08 105.05 34.27 C 101.54 34.72 98.63 36.78 96.05 39.07 C 93.19 41.70 89.23 42.31 85.62 43.34 C 85.18 43.42 84.30 43.58 83.86 43.66 C 82.52 38.86 86.32 34.43 90.26 32.24 Z" />
</g>
<g id="#8e6f9bff">
<path fill="#8e6f9b" opacity="1.00" d=" M 132.84 35.94 C 135.46 35.03 137.97 33.81 140.46 32.58 C 142.24 35.30 143.72 38.20 145.24 41.07 C 143.02 42.78 140.82 44.51 138.68 46.32 C 132.66 46.41 128.62 52.91 122.29 51.65 C 115.88 51.31 109.40 50.89 103.05 52.06 C 97.57 53.01 91.82 53.89 86.44 52.01 C 94.92 51.38 103.38 50.39 111.60 48.11 C 116.75 47.81 121.73 46.39 126.84 45.76 C 128.42 45.45 130.12 45.31 131.52 44.44 C 133.79 41.92 135.22 38.78 137.07 35.97 C 135.66 35.94 134.25 35.93 132.84 35.94 Z" />
</g>
<g id="#896aaaff">
<path fill="#896aaa" opacity="1.00" d=" M 96.05 39.07 C 98.63 36.78 101.54 34.72 105.05 34.27 C 105.60 34.22 106.68 34.10 107.23 34.04 C 107.75 35.34 108.37 36.59 109.05 37.81 C 104.84 38.38 101.01 40.23 97.33 42.24 C 93.74 44.30 89.53 43.49 85.62 43.34 C 89.23 42.31 93.19 41.70 96.05 39.07 Z" />
</g>
<g id="#a180b0ff">
<path fill="#a180b0" opacity="1.00" d=" M 125.08 37.78 C 127.57 36.81 130.21 36.36 132.84 35.94 C 134.25 35.93 135.66 35.94 137.07 35.97 C 135.22 38.78 133.79 41.92 131.52 44.44 C 130.12 45.31 128.42 45.45 126.84 45.76 C 121.73 46.39 116.75 47.81 111.60 48.11 C 116.32 46.20 121.18 44.68 125.91 42.80 C 127.94 42.23 128.07 39.79 128.92 38.18 C 127.64 38.04 126.36 37.91 125.08 37.78 Z" />
</g>
<g id="#c5a2dcff">
<path fill="#c5a2dc" opacity="1.00" d=" M 75.81 39.11 C 77.18 38.88 78.55 38.65 79.91 38.33 L 80.71 38.09 C 79.94 41.77 81.53 46.43 85.46 47.49 C 94.79 50.72 104.26 45.69 112.14 41.04 C 112.02 40.64 111.80 39.83 111.69 39.43 L 112.04 39.56 C 114.07 40.76 116.41 40.76 118.69 40.71 C 119.04 40.93 119.73 41.36 120.07 41.58 C 112.49 45.47 104.43 48.63 95.97 49.88 C 90.37 50.78 84.34 49.71 79.73 46.32 C 77.96 44.99 78.18 42.50 77.57 40.60 C 76.29 40.66 75.00 40.71 73.72 40.77 C 74.24 40.35 75.29 39.52 75.81 39.11 Z" />
</g>
<g id="#b291c3ff">
<path fill="#b291c3" opacity="1.00" d=" M 118.69 40.71 C 120.88 39.86 122.97 38.80 125.08 37.78 C 126.36 37.91 127.64 38.04 128.92 38.18 C 128.07 39.79 127.94 42.23 125.91 42.80 C 121.18 44.68 116.32 46.20 111.60 48.11 C 103.38 50.39 94.92 51.38 86.44 52.01 C 86.13 51.94 85.52 51.79 85.22 51.72 C 81.72 49.55 78.19 47.34 74.16 46.31 C 74.06 44.98 73.96 43.65 73.85 42.32 L 73.72 40.77 C 75.00 40.71 76.29 40.66 77.57 40.60 C 78.18 42.50 77.96 44.99 79.73 46.32 C 84.34 49.71 90.37 50.78 95.97 49.88 C 104.43 48.63 112.49 45.47 120.07 41.58 C 119.73 41.36 119.04 40.93 118.69 40.71 Z" />
</g>
<g id="#6a5479f0">
<path fill="#6a5479" opacity="0.94" d=" M 145.24 41.07 C 146.06 42.41 146.87 43.74 147.71 45.07 C 144.78 45.98 141.74 46.35 138.68 46.32 C 140.82 44.51 143.02 42.78 145.24 41.07 Z" />
</g>
<g id="#9d7fa9ff">
<path fill="#9d7fa9" opacity="1.00" d=" M 73.47 42.33 L 73.85 42.32 C 73.96 43.65 74.06 44.98 74.16 46.31 C 78.19 47.34 81.72 49.55 85.22 51.72 C 82.23 52.04 79.18 52.40 76.25 51.50 C 76.05 53.76 75.91 56.01 75.82 58.27 C 75.43 58.05 74.66 57.59 74.27 57.36 L 75.71 57.91 C 75.93 52.51 72.77 47.75 73.47 42.33 Z" />
</g>
<g id="#816391ff">
<path fill="#816391" opacity="1.00" d=" M 142.94 52.51 C 145.84 52.46 147.70 49.97 149.01 47.69 C 150.72 49.57 151.84 54.05 155.09 52.08 C 153.91 52.69 152.72 53.29 151.56 53.95 C 151.11 54.94 150.70 55.95 150.33 56.97 C 146.06 58.85 142.40 61.87 140.04 65.92 C 140.55 65.96 141.58 66.03 142.09 66.07 C 140.93 66.87 139.44 67.59 139.09 69.11 C 138.09 72.19 140.20 75.08 141.21 77.87 C 139.24 78.09 137.26 78.20 135.29 78.33 C 136.13 76.68 136.99 75.04 137.87 73.41 C 137.41 73.59 136.49 73.95 136.02 74.12 C 135.54 73.87 134.56 73.36 134.07 73.10 C 134.24 72.55 134.57 71.44 134.74 70.88 C 131.98 72.46 128.66 73.90 127.48 77.11 C 124.04 85.37 120.36 93.92 113.82 100.24 C 115.77 95.27 119.65 91.31 121.14 86.14 C 122.80 80.46 126.42 75.60 127.98 69.89 C 129.00 66.19 129.80 62.43 130.79 58.72 C 128.64 58.73 126.49 58.78 124.35 58.86 C 123.93 62.71 123.06 66.47 122.06 70.20 C 122.40 65.37 122.76 60.52 122.61 55.66 C 128.97 52.60 136.08 52.84 142.94 52.51 Z" />
</g>
<g id="#a587b2ff">
<path fill="#a587b2" opacity="1.00" d=" M 155.90 51.66 C 158.75 51.87 162.09 52.91 162.74 56.12 C 160.37 58.38 157.68 60.26 154.73 61.69 C 152.24 62.95 149.51 65.21 149.85 68.29 C 150.33 70.93 148.81 73.14 147.39 75.19 C 145.43 76.30 143.38 77.28 141.21 77.87 C 140.20 75.08 138.09 72.19 139.09 69.11 C 139.44 67.59 140.93 66.87 142.09 66.07 C 145.23 64.77 147.96 62.71 150.45 60.43 C 150.42 59.57 150.36 57.83 150.33 56.97 C 150.70 55.95 151.11 54.94 151.56 53.95 C 152.22 55.83 151.67 59.17 154.33 59.51 C 157.74 59.97 160.33 56.92 159.77 53.61 C 158.47 52.97 157.18 52.32 155.90 51.66 M 140.95 74.02 C 143.68 75.59 146.68 72.50 147.47 69.98 C 148.00 67.74 145.31 67.21 143.96 66.23 C 141.26 67.85 139.15 70.89 140.95 74.02 Z" />
</g>
<g id="#c597cffd">
<path fill="#c597cf" opacity="1.00" d=" M 75.82 58.27 C 75.91 56.01 76.05 53.76 76.25 51.50 L 77.08 52.09 C 77.16 55.84 77.06 59.60 77.10 63.36 C 74.59 61.21 72.02 59.14 69.54 56.96 C 69.43 56.71 69.22 56.21 69.12 55.95 C 69.47 55.94 70.17 55.92 70.53 55.91 C 71.89 56.07 73.13 56.55 74.27 57.36 C 74.66 57.59 75.43 58.05 75.82 58.27 Z" />
</g>
<g id="#ddb5ffff">
<path fill="#ddb5ff" opacity="1.00" d=" M 155.09 52.08 L 155.90 51.66 C 157.18 52.32 158.47 52.97 159.77 53.61 C 160.33 56.92 157.74 59.97 154.33 59.51 C 151.67 59.17 152.22 55.83 151.56 53.95 C 152.72 53.29 153.91 52.69 155.09 52.08 Z" />
</g>
<g id="#513863ff">
<path fill="#513863" opacity="1.00" d=" M 58.17 53.39 C 62.51 53.95 66.89 54.57 71.08 55.89 L 70.53 55.91 C 70.17 55.92 69.47 55.94 69.12 55.95 C 69.22 56.21 69.43 56.71 69.54 56.96 C 70.34 59.24 71.13 61.53 72.18 63.71 C 72.16 70.26 71.41 76.82 72.38 83.35 C 71.53 85.73 70.64 88.11 69.41 90.32 C 68.77 90.81 67.49 91.80 66.85 92.29 C 66.89 93.30 66.92 94.31 66.96 95.32 C 66.98 96.87 67.01 98.42 67.03 99.98 C 66.70 97.77 66.46 95.56 66.22 93.34 L 65.47 92.51 C 65.11 92.09 64.37 91.25 64.00 90.84 C 65.74 89.27 67.79 87.93 68.99 85.89 C 70.13 83.00 69.69 79.82 69.43 76.82 C 69.22 74.84 68.87 72.87 68.42 70.93 C 67.56 67.56 66.01 64.34 63.71 61.72 C 61.58 59.80 59.99 57.44 59.71 54.51 C 59.32 54.23 58.55 53.67 58.17 53.39 Z" />
</g>
<g id="#9e7daeff">
<path fill="#9e7dae" opacity="1.00" d=" M 77.08 52.09 C 78.04 52.74 79.00 53.40 79.96 54.07 C 78.24 59.25 79.52 64.68 79.75 69.97 C 79.83 72.60 80.30 75.24 81.86 77.43 C 83.18 70.20 81.32 62.91 82.24 55.69 C 84.13 66.52 82.17 77.68 84.98 88.41 C 83.48 91.85 85.81 94.94 87.01 98.04 C 84.60 97.54 82.18 97.01 79.77 96.49 C 76.94 95.84 74.00 95.78 71.21 96.64 C 71.35 94.36 70.44 92.28 69.41 90.32 C 70.64 88.11 71.53 85.73 72.38 83.35 C 73.70 80.59 75.78 78.10 76.27 75.01 C 76.29 70.88 74.48 67.04 72.18 63.71 C 71.13 61.53 70.34 59.24 69.54 56.96 C 72.02 59.14 74.59 61.21 77.10 63.36 C 77.06 59.60 77.16 55.84 77.08 52.09 M 71.57 95.22 C 75.37 94.85 78.77 93.00 82.36 91.85 C 82.18 91.16 81.84 89.79 81.67 89.10 C 77.59 89.27 74.47 92.66 71.57 95.22 Z" />
</g>
<g id="#fdcfffff">
<path fill="#fdcfff" opacity="1.00" d=" M 47.87 62.20 C 51.99 59.99 53.34 54.67 58.17 53.39 C 58.55 53.67 59.32 54.23 59.71 54.51 L 59.19 55.07 C 58.00 55.62 56.79 56.13 55.58 56.65 C 55.14 57.87 54.71 59.09 54.29 60.32 C 53.20 60.72 52.12 61.12 51.01 61.48 C 50.40 61.62 49.17 61.91 48.55 62.05 L 47.87 62.20 Z" />
<path fill="#fdcfff" opacity="1.00" d=" M 19.27 73.57 C 22.68 72.52 25.14 69.66 27.93 67.56 C 28.80 67.65 30.53 67.82 31.40 67.90 C 27.35 69.69 24.18 75.02 19.27 73.57 Z" />
<path fill="#fdcfff" opacity="1.00" d=" M 60.44 141.87 L 61.06 141.58 C 59.77 145.81 58.07 149.89 56.52 154.03 C 56.39 154.35 56.12 154.99 55.99 155.30 C 55.33 155.44 53.99 155.71 53.32 155.85 C 51.32 155.55 48.16 155.34 48.62 152.48 C 53.81 150.44 56.44 145.34 60.44 141.87 Z" />
</g>
<g id="#b291baff">
<path fill="#b291ba" opacity="1.00" d=" M 55.58 56.65 C 56.79 56.13 58.00 55.62 59.19 55.07 C 58.91 58.21 58.40 61.51 55.37 63.17 C 53.97 62.49 52.50 61.94 51.01 61.48 C 52.12 61.12 53.20 60.72 54.29 60.32 C 54.71 59.09 55.14 57.87 55.58 56.65 Z" />
</g>
<g id="#8b6e9bff">
<path fill="#8b6e9b" opacity="1.00" d=" M 59.19 55.07 L 59.71 54.51 C 59.99 57.44 61.58 59.80 63.71 61.72 C 62.13 63.37 60.51 65.00 58.84 66.57 C 57.70 65.42 56.57 64.26 55.37 63.17 C 58.40 61.51 58.91 58.21 59.19 55.07 Z" />
</g>
<g id="#ab81cbff">
<path fill="#ab81cb" opacity="1.00" d=" M 79.75 69.97 C 79.52 64.68 78.24 59.25 79.96 54.07 C 80.53 54.47 81.67 55.28 82.24 55.69 C 81.32 62.91 83.18 70.20 81.86 77.43 C 80.30 75.24 79.83 72.60 79.75 69.97 Z" />
</g>
<g id="#90719eff">
<path fill="#90719e" opacity="1.00" d=" M 154.73 61.69 C 157.68 60.26 160.37 58.38 162.74 56.12 C 165.07 57.56 167.88 57.82 170.56 57.79 C 170.43 58.36 170.16 59.49 170.03 60.05 L 169.74 60.14 C 167.74 59.62 165.72 59.14 163.65 59.04 C 160.54 59.73 158.13 61.88 155.77 63.86 C 156.22 64.27 157.11 65.09 157.56 65.50 C 157.66 67.23 157.46 68.96 157.17 70.66 C 155.87 70.64 154.55 70.39 153.27 70.68 C 151.03 72.58 149.50 75.33 146.64 76.47 L 147.39 75.19 C 148.81 73.14 150.33 70.93 149.85 68.29 C 149.51 65.21 152.24 62.95 154.73 61.69 M 151.94 64.89 C 151.02 66.68 154.45 69.58 155.05 66.87 C 155.65 64.93 153.18 64.86 151.94 64.89 Z" />
</g>
<g id="#4b365eff">
<path fill="#4b365e" opacity="1.00" d=" M 140.04 65.92 C 142.40 61.87 146.06 58.85 150.33 56.97 C 150.36 57.83 150.42 59.57 150.45 60.43 C 147.96 62.71 145.23 64.77 142.09 66.07 C 141.58 66.03 140.55 65.96 140.04 65.92 Z" />
</g>
<g id="#ad86ccff">
<path fill="#ad86cc" opacity="1.00" d=" M 124.35 58.86 C 126.49 58.78 128.64 58.73 130.79 58.72 C 129.80 62.43 129.00 66.19 127.98 69.89 C 126.42 75.60 122.80 80.46 121.14 86.14 C 119.65 91.31 115.77 95.27 113.82 100.24 C 113.21 101.40 112.63 102.57 112.05 103.75 C 109.67 106.97 108.21 112.11 103.60 112.56 C 101.27 112.86 100.19 110.16 98.93 108.69 C 98.80 108.47 98.56 108.03 98.44 107.81 C 96.18 103.74 90.96 103.04 87.56 100.17 C 87.42 99.64 87.15 98.57 87.01 98.04 C 85.81 94.94 83.48 91.85 84.98 88.41 C 86.12 92.07 88.41 95.23 91.26 97.76 C 90.68 97.90 89.52 98.17 88.94 98.31 C 92.62 100.90 97.47 102.08 100.06 106.00 C 100.92 107.19 101.71 108.42 102.50 109.65 C 107.87 108.36 109.97 102.93 112.49 98.65 C 113.46 97.27 113.33 95.59 113.10 94.02 C 118.67 87.28 120.74 78.65 122.06 70.20 C 123.06 66.47 123.93 62.71 124.35 58.86 Z" />
</g>
<g id="#5f3f75ff">
<path fill="#5f3f75" opacity="1.00" d=" M 155.77 63.86 C 158.13 61.88 160.54 59.73 163.65 59.04 C 164.04 59.55 164.82 60.57 165.21 61.08 C 164.90 63.62 163.17 65.45 161.33 67.06 C 160.07 66.55 158.80 66.06 157.56 65.50 C 157.11 65.09 156.22 64.27 155.77 63.86 Z" />
</g>
<g id="#ae8fbeff">
<path fill="#ae8fbe" opacity="1.00" d=" M 163.65 59.04 C 165.72 59.14 167.74 59.62 169.74 60.14 L 170.03 60.05 C 170.38 60.23 171.10 60.60 171.45 60.79 C 171.37 59.84 171.42 58.90 171.74 57.99 L 172.87 59.80 C 173.02 60.49 173.30 61.87 173.44 62.57 C 175.26 64.91 177.66 67.36 177.48 70.55 C 175.33 74.43 171.24 76.64 167.03 77.55 C 166.18 76.12 165.32 74.68 164.48 73.24 C 163.86 75.42 163.19 77.61 162.00 79.55 C 160.06 77.43 161.22 74.41 161.86 72.00 C 162.98 67.33 168.47 66.71 172.05 64.66 C 169.76 63.48 167.44 62.37 165.21 61.08 C 164.82 60.57 164.04 59.55 163.65 59.04 M 171.19 67.41 C 167.90 66.99 166.28 71.49 168.15 73.77 C 170.53 74.22 173.45 73.63 174.07 70.92 C 175.21 68.98 173.08 67.14 171.19 67.41 Z" />
</g>
<g id="#9171a3ff">
<path fill="#9171a3" opacity="1.00" d=" M 172.87 59.80 C 174.67 61.75 176.70 63.46 178.51 65.40 C 179.44 67.80 179.82 70.37 180.57 72.83 C 180.26 73.33 179.63 74.33 179.32 74.84 C 178.84 74.42 177.89 73.60 177.41 73.18 C 174.91 75.15 172.70 77.49 171.17 80.29 C 167.80 80.72 164.16 81.00 161.66 83.60 C 162.21 84.56 162.77 85.52 163.32 86.49 C 162.17 89.62 163.61 92.83 163.16 96.02 C 162.68 100.39 162.62 104.79 163.06 109.17 C 162.29 109.90 161.51 110.62 160.70 111.31 L 160.10 111.45 C 159.93 110.93 159.58 109.90 159.40 109.39 C 161.95 102.41 161.18 93.76 155.97 88.16 C 156.98 87.57 158.00 86.98 159.03 86.39 C 158.25 83.32 155.11 82.00 152.80 80.23 C 154.10 79.90 156.16 80.41 156.54 78.66 C 158.03 74.76 157.84 69.93 161.33 67.06 C 163.17 65.45 164.90 63.62 165.21 61.08 C 167.44 62.37 169.76 63.48 172.05 64.66 C 168.47 66.71 162.98 67.33 161.86 72.00 C 161.22 74.41 160.06 77.43 162.00 79.55 C 163.19 77.61 163.86 75.42 164.48 73.24 C 165.32 74.68 166.18 76.12 167.03 77.55 C 171.24 76.64 175.33 74.43 177.48 70.55 C 177.66 67.36 175.26 64.91 173.44 62.57 C 173.30 61.87 173.02 60.49 172.87 59.80 Z" />
</g>
<g id="#e2bbe6fc">
<path fill="#e2bbe6" opacity="1.00" d=" M 37.95 65.45 C 39.98 62.07 44.12 63.28 47.37 62.52 C 44.88 64.45 42.13 66.04 39.02 66.71 C 38.36 66.85 37.03 67.13 36.36 67.27 C 36.76 66.81 37.56 65.91 37.95 65.45 Z" />
<path fill="#e2bbe6" opacity="1.00" d=" M 66.96 95.32 C 67.74 96.28 69.29 96.82 69.52 98.15 C 69.98 101.70 69.95 105.32 69.52 108.87 C 69.55 110.23 68.09 110.72 67.30 111.53 C 67.00 110.86 66.42 109.51 66.12 108.84 C 66.22 105.87 67.40 102.99 67.03 99.98 C 67.01 98.42 66.98 96.87 66.96 95.32 Z" />
</g>
<g id="#9e7eb1ff">
<path fill="#9e7eb1" opacity="1.00" d=" M 47.37 62.52 L 47.87 62.20 L 48.55 62.05 C 51.27 65.26 54.15 68.36 56.40 71.94 C 56.20 72.62 55.79 73.98 55.59 74.66 C 53.20 75.50 50.81 76.34 48.42 77.16 C 46.68 72.68 43.87 68.21 39.02 66.71 C 42.13 66.04 44.88 64.45 47.37 62.52 Z" />
</g>
<g id="#564068ff">
<path fill="#564068" opacity="1.00" d=" M 48.55 62.05 C 49.17 61.91 50.40 61.62 51.01 61.48 C 52.50 61.94 53.97 62.49 55.37 63.17 C 56.57 64.26 57.70 65.42 58.84 66.57 C 59.40 69.52 60.18 72.43 60.72 75.38 C 60.71 76.11 60.69 77.57 60.67 78.30 C 60.64 78.81 60.59 79.83 60.56 80.34 C 60.02 77.84 59.29 75.39 58.62 72.93 C 58.40 75.76 58.50 78.72 57.36 81.37 C 55.74 85.64 50.15 85.57 48.03 89.49 C 50.22 89.92 52.42 90.29 54.60 90.81 C 55.81 91.14 57.03 91.50 58.23 91.89 C 55.16 91.62 51.67 90.56 49.19 93.04 C 48.00 92.11 46.81 91.19 45.63 90.26 C 48.61 87.19 49.13 82.63 47.58 78.73 C 47.11 80.75 46.73 82.79 46.18 84.79 C 46.30 82.57 46.04 80.34 45.49 78.19 C 45.25 77.77 44.78 76.93 44.54 76.51 C 42.21 72.77 39.02 69.67 35.11 67.63 C 33.87 67.72 32.64 67.81 31.40 67.90 C 30.53 67.82 28.80 67.65 27.93 67.56 C 31.37 67.38 35.05 67.67 37.95 65.45 C 37.56 65.91 36.76 66.81 36.36 67.27 C 37.03 67.13 38.36 66.85 39.02 66.71 C 43.87 68.21 46.68 72.68 48.42 77.16 C 48.97 79.37 49.19 81.73 50.29 83.77 C 55.16 82.69 59.41 76.82 56.40 71.94 C 54.15 68.36 51.27 65.26 48.55 62.05 Z" />
</g>
<g id="#926eaeff">
<path fill="#926eae" opacity="1.00" d=" M 58.84 66.57 C 60.51 65.00 62.13 63.37 63.71 61.72 C 66.01 64.34 67.56 67.56 68.42 70.93 C 67.94 72.47 68.36 74.91 66.34 75.39 C 64.53 76.05 62.58 75.47 60.72 75.38 C 60.18 72.43 59.40 69.52 58.84 66.57 Z" />
</g>
<g id="#755787ff">
<path fill="#755787" opacity="1.00" d=" M 72.18 63.71 C 74.48 67.04 76.29 70.88 76.27 75.01 C 75.78 78.10 73.70 80.59 72.38 83.35 C 71.41 76.82 72.16 70.26 72.18 63.71 Z" />
</g>
<g id="#7d6ea5ff">
<path fill="#7d6ea5" opacity="1.00" d=" M 92.69 67.73 C 96.49 63.79 102.65 63.71 107.61 65.10 C 102.01 66.66 95.77 68.14 91.89 72.82 C 89.86 76.90 90.23 81.58 90.33 86.00 C 91.05 82.49 91.29 78.55 93.84 75.78 C 98.24 70.87 105.44 69.83 111.69 70.35 C 116.79 71.57 116.90 77.64 118.23 81.72 C 117.00 87.77 113.23 93.86 107.54 96.68 C 107.60 92.29 110.90 88.90 111.71 84.69 C 112.26 81.78 112.95 78.39 111.32 75.71 C 108.16 72.57 103.42 74.34 99.83 75.66 C 96.50 76.64 95.07 80.11 93.90 83.05 C 91.95 87.77 93.66 92.89 95.10 97.49 C 90.66 96.13 90.18 90.82 89.00 87.02 C 88.27 80.54 88.17 72.97 92.69 67.73 Z" />
<path fill="#7d6ea5" opacity="1.00" d=" M 54.60 90.81 C 55.18 90.53 56.36 89.98 56.94 89.70 C 58.54 89.78 60.13 89.93 61.72 90.07 C 61.50 91.02 61.28 91.96 61.06 92.91 C 60.12 92.54 59.18 92.20 58.23 91.89 C 57.03 91.50 55.81 91.14 54.60 90.81 Z" />
</g>
<g id="#655585ff">
<path fill="#655585" opacity="1.00" d=" M 107.61 65.10 C 110.85 64.28 114.53 63.90 117.61 65.45 C 117.69 66.09 117.75 66.72 117.79 67.36 C 119.33 68.01 121.05 68.96 120.63 70.95 C 120.28 74.57 120.13 78.52 118.23 81.72 C 116.90 77.64 116.79 71.57 111.69 70.35 C 105.44 69.83 98.24 70.87 93.84 75.78 C 91.29 78.55 91.05 82.49 90.33 86.00 C 90.23 81.58 89.86 76.90 91.89 72.82 C 95.77 68.14 102.01 66.66 107.61 65.10 Z" />
</g>
<g id="#9d76bbff">
<path fill="#9d76bb" opacity="1.00" d=" M 151.94 64.89 C 153.18 64.86 155.65 64.93 155.05 66.87 C 154.45 69.58 151.02 66.68 151.94 64.89 Z" />
</g>
<g id="#6b5081ff">
<path fill="#6b5081" opacity="1.00" d=" M 157.56 65.50 C 158.80 66.06 160.07 66.55 161.33 67.06 C 157.84 69.93 158.03 74.76 156.54 78.66 C 156.16 80.41 154.10 79.90 152.80 80.23 C 151.10 79.66 149.38 79.14 147.65 78.65 C 148.28 80.51 148.54 82.62 149.84 84.17 C 151.64 85.84 153.91 86.85 155.97 88.16 C 161.18 93.76 161.95 102.41 159.40 109.39 C 159.18 108.97 158.72 108.13 158.50 107.71 C 152.53 106.79 146.42 105.30 141.70 101.31 C 138.05 98.19 134.06 95.04 129.10 94.56 C 128.87 94.21 128.42 93.51 128.19 93.17 C 134.76 93.53 140.70 96.50 146.30 99.71 C 150.27 102.08 154.94 102.53 159.47 102.49 C 159.25 99.51 159.55 96.01 157.31 93.68 C 155.06 92.04 152.46 90.97 150.19 89.36 C 147.82 85.56 145.57 81.08 146.64 76.47 C 149.50 75.33 151.03 72.58 153.27 70.68 C 154.55 70.39 155.87 70.64 157.17 70.66 C 157.46 68.96 157.66 67.23 157.56 65.50 Z" />
</g>
<g id="#ddb5fcff">
<path fill="#ddb5fc" opacity="1.00" d=" M 140.95 74.02 C 139.15 70.89 141.26 67.85 143.96 66.23 C 145.31 67.21 148.00 67.74 147.47 69.98 C 146.68 72.50 143.68 75.59 140.95 74.02 Z" />
</g>
<g id="#dbb3fcff">
<path fill="#dbb3fc" opacity="1.00" d=" M 171.19 67.41 C 173.08 67.14 175.21 68.98 174.07 70.92 C 173.45 73.63 170.53 74.22 168.15 73.77 C 166.28 71.49 167.90 66.99 171.19 67.41 Z" />
</g>
<g id="#a989baff">
<path fill="#a989ba" opacity="1.00" d=" M 31.40 67.90 C 32.64 67.81 33.87 67.72 35.11 67.63 C 39.02 69.67 42.21 72.77 44.54 76.51 C 43.38 77.66 42.33 78.97 40.95 79.86 C 34.91 83.00 28.60 86.55 24.58 92.19 C 23.93 92.84 23.29 93.50 22.64 94.15 C 27.47 93.88 32.32 94.06 37.13 94.55 C 34.43 94.69 31.72 94.82 29.01 94.91 C 28.28 94.91 26.80 94.90 26.07 94.90 C 22.72 95.27 19.63 94.03 17.54 91.38 C 18.20 88.70 15.34 87.53 13.68 86.09 C 14.12 85.73 15.01 85.01 15.45 84.65 C 15.56 84.56 15.77 84.40 15.88 84.31 C 17.14 84.11 18.41 83.92 19.67 83.76 C 19.72 81.71 19.78 79.66 19.84 77.61 C 19.10 77.50 18.37 77.40 17.63 77.29 C 16.88 75.82 16.14 74.36 15.40 72.89 C 16.37 73.06 18.31 73.40 19.27 73.57 C 24.18 75.02 27.35 69.69 31.40 67.90 M 22.28 85.19 C 20.49 85.85 18.13 86.79 18.52 89.14 C 19.82 92.21 24.47 90.89 24.90 87.93 C 25.59 86.44 23.84 84.34 22.28 85.19 Z" />
</g>
<g id="#846398ff">
<path fill="#846398" opacity="1.00" d=" M 68.42 70.93 C 68.87 72.87 69.22 74.84 69.43 76.82 C 69.26 78.24 69.07 79.66 68.86 81.07 C 65.98 80.65 63.16 79.83 60.67 78.30 C 60.69 77.57 60.71 76.11 60.72 75.38 C 62.58 75.47 64.53 76.05 66.34 75.39 C 68.36 74.91 67.94 72.47 68.42 70.93 Z" />
</g>
<g id="#5e3f71ff">
<path fill="#5e3f71" opacity="1.00" d=" M 127.48 77.11 C 128.66 73.90 131.98 72.46 134.74 70.88 C 134.57 71.44 134.24 72.55 134.07 73.10 C 129.38 80.08 124.37 86.87 120.56 94.40 C 120.38 94.65 120.01 95.16 119.83 95.41 C 118.27 97.64 116.62 99.82 115.33 102.23 C 113.26 106.08 112.91 110.60 110.66 114.37 C 107.97 117.19 103.94 117.79 100.66 115.61 C 100.41 115.09 99.92 114.03 99.67 113.51 C 101.91 114.20 104.23 114.53 106.55 114.80 C 108.97 111.44 111.35 107.93 112.05 103.75 C 112.63 102.57 113.21 101.40 113.82 100.24 C 120.36 93.92 124.04 85.37 127.48 77.11 Z" />
</g>
<g id="#826492ff">
<path fill="#826492" opacity="1.00" d=" M 56.40 71.94 C 59.41 76.82 55.16 82.69 50.29 83.77 C 49.19 81.73 48.97 79.37 48.42 77.16 C 50.81 76.34 53.20 75.50 55.59 74.66 C 55.79 73.98 56.20 72.62 56.40 71.94 Z" />
</g>
<g id="#634e79ff">
<path fill="#634e79" opacity="1.00" d=" M 10.86 73.63 C 12.37 73.38 13.89 73.14 15.40 72.89 C 16.14 74.36 16.88 75.82 17.63 77.29 C 18.37 77.40 19.10 77.50 19.84 77.61 C 19.78 79.66 19.72 81.71 19.67 83.76 C 18.41 83.92 17.14 84.11 15.88 84.31 C 16.84 83.42 17.77 82.51 18.71 81.61 C 17.95 80.50 17.19 79.39 16.34 78.33 C 15.48 79.05 14.87 80.00 14.16 80.85 C 14.00 79.29 13.85 77.74 13.59 76.20 C 12.69 75.33 11.78 74.47 10.86 73.63 Z" />
</g>
<g id="#9d79b7ff">
<path fill="#9d79b7" opacity="1.00" d=" M 134.07 73.10 C 134.56 73.36 135.54 73.87 136.02 74.12 C 136.49 73.95 137.41 73.59 137.87 73.41 C 136.99 75.04 136.13 76.68 135.29 78.33 C 137.26 78.20 139.24 78.09 141.21 77.87 C 143.38 77.28 145.43 76.30 147.39 75.19 L 146.64 76.47 C 145.57 81.08 147.82 85.56 150.19 89.36 C 144.99 88.65 139.51 87.55 134.42 89.40 C 129.95 91.43 125.55 93.98 120.56 94.40 C 124.37 86.87 129.38 80.08 134.07 73.10 Z" />
</g>
<g id="#7359a7ff">
<path fill="#7359a7" opacity="1.00" d=" M 171.17 80.29 C 172.70 77.49 174.91 75.15 177.41 73.18 C 177.89 73.60 178.84 74.42 179.32 74.84 C 180.81 83.55 175.41 93.00 166.56 94.96 C 167.47 92.85 168.93 91.07 170.34 89.29 C 172.37 86.71 171.60 83.26 171.17 80.29 Z" />
</g>
<g id="#a183adff">
<path fill="#a183ad" opacity="1.00" d=" M 180.57 72.83 C 180.58 77.51 180.06 82.20 179.83 86.89 C 178.31 94.19 171.18 98.63 164.85 101.51 C 165.25 99.29 165.74 97.07 166.56 94.96 C 175.41 93.00 180.81 83.55 179.32 74.84 C 179.63 74.33 180.26 73.33 180.57 72.83 Z" />
</g>
<g id="#d6b0f2ff">
<path fill="#d6b0f2" opacity="1.00" d=" M 6.93 77.24 C 8.22 76.01 9.52 74.79 10.86 73.63 C 11.78 74.47 12.69 75.33 13.59 76.20 C 12.84 79.17 10.78 81.46 7.53 81.47 L 6.70 81.00 C 6.80 80.36 7.00 79.09 7.10 78.45 L 6.93 77.24 Z" />
</g>
<g id="#8e82beff">
<path fill="#8e82be" opacity="1.00" d=" M 99.83 75.66 C 103.42 74.34 108.16 72.57 111.32 75.71 C 112.95 78.39 112.26 81.78 111.71 84.69 C 110.90 88.90 107.60 92.29 107.54 96.68 C 103.61 97.94 99.01 99.63 95.10 97.49 C 93.66 92.89 91.95 87.77 93.90 83.05 C 95.07 80.11 96.50 76.64 99.83 75.66 M 96.01 85.99 C 96.19 88.87 95.03 93.15 98.35 94.62 C 100.98 96.01 103.15 93.49 104.74 91.72 C 107.65 87.49 109.80 82.17 107.63 77.12 C 102.46 76.62 95.37 79.92 96.01 85.99 Z" />
</g>
<g id="#ab8cbdfe">
<path fill="#ab8cbd" opacity="1.00" d=" M 13.59 76.20 C 13.85 77.74 14.00 79.29 14.16 80.85 C 12.65 82.60 10.53 83.70 8.17 83.41 C 8.01 82.92 7.69 81.95 7.53 81.47 C 10.78 81.46 12.84 79.17 13.59 76.20 Z" />
</g>
<g id="#8d6e9bff">
<path fill="#8d6e9b" opacity="1.00" d=" M 40.95 79.86 C 42.33 78.97 43.38 77.66 44.54 76.51 C 44.78 76.93 45.25 77.77 45.49 78.19 C 45.25 79.78 45.49 81.94 43.77 82.80 C 41.87 83.81 39.71 84.07 37.66 84.61 C 32.38 85.34 29.36 90.33 24.58 92.19 C 28.60 86.55 34.91 83.00 40.95 79.86 Z" />
</g>
<g id="#6e4e80ff">
<path fill="#6e4e80" opacity="1.00" d=" M 69.43 76.82 C 69.69 79.82 70.13 83.00 68.99 85.89 C 67.79 87.93 65.74 89.27 64.00 90.84 C 64.37 91.25 65.11 92.09 65.47 92.51 C 64.51 94.65 62.57 93.53 61.06 92.91 C 61.28 91.96 61.50 91.02 61.72 90.07 C 60.13 89.93 58.54 89.78 56.94 89.70 C 59.23 87.12 60.43 83.76 60.56 80.34 C 60.59 79.83 60.64 78.81 60.67 78.30 C 63.16 79.83 65.98 80.65 68.86 81.07 C 69.07 79.66 69.26 78.24 69.43 76.82 Z" />
</g>
<g id="#9c8fd2ff">
<path fill="#9c8fd2" opacity="1.00" d=" M 96.01 85.99 C 95.37 79.92 102.46 76.62 107.63 77.12 C 109.80 82.17 107.65 87.49 104.74 91.72 C 103.15 93.49 100.98 96.01 98.35 94.62 C 95.03 93.15 96.19 88.87 96.01 85.99 Z" />
</g>
<g id="#4b3f5197">
<path fill="#4b3f51" opacity="0.59" d=" M 6.70 81.00 C 5.09 81.12 5.57 77.76 7.10 78.45 C 7.00 79.09 6.80 80.36 6.70 81.00 Z" />
</g>
<g id="#483858ff">
<path fill="#483858" opacity="1.00" d=" M 14.16 80.85 C 14.87 80.00 15.48 79.05 16.34 78.33 C 17.19 79.39 17.95 80.50 18.71 81.61 C 17.77 82.51 16.84 83.42 15.88 84.31 C 15.77 84.40 15.56 84.56 15.45 84.65 C 12.95 84.87 10.51 84.19 8.17 83.41 C 10.53 83.70 12.65 82.60 14.16 80.85 Z" />
</g>
<g id="#74548aff">
<path fill="#74548a" opacity="1.00" d=" M 45.49 78.19 C 46.04 80.34 46.30 82.57 46.18 84.79 C 45.97 85.18 45.56 85.97 45.35 86.36 C 41.88 87.27 38.27 87.13 34.82 86.26 C 33.87 88.40 33.20 90.65 32.60 92.92 C 36.18 92.68 39.92 93.06 43.34 91.76 C 43.91 91.38 45.06 90.64 45.63 90.26 C 46.81 91.19 48.00 92.11 49.19 93.04 C 46.39 94.44 43.15 94.68 40.16 93.80 C 36.78 95.68 32.71 96.06 29.01 94.91 C 31.72 94.82 34.43 94.69 37.13 94.55 C 32.32 94.06 27.47 93.88 22.64 94.15 C 23.29 93.50 23.93 92.84 24.58 92.19 C 29.36 90.33 32.38 85.34 37.66 84.61 C 39.71 84.07 41.87 83.81 43.77 82.80 C 45.49 81.94 45.25 79.78 45.49 78.19 Z" />
</g>
<g id="#402a53ff">
<path fill="#402a53" opacity="1.00" d=" M 46.18 84.79 C 46.73 82.79 47.11 80.75 47.58 78.73 C 49.13 82.63 48.61 87.19 45.63 90.26 C 45.06 90.64 43.91 91.38 43.34 91.76 C 43.69 89.85 44.34 88.01 45.35 86.36 C 45.56 85.97 45.97 85.18 46.18 84.79 Z" />
</g>
<g id="#9a7dabff">
<path fill="#9a7dab" opacity="1.00" d=" M 147.65 78.65 C 149.38 79.14 151.10 79.66 152.80 80.23 C 155.11 82.00 158.25 83.32 159.03 86.39 C 158.00 86.98 156.98 87.57 155.97 88.16 C 153.91 86.85 151.64 85.84 149.84 84.17 C 148.54 82.62 148.28 80.51 147.65 78.65 Z" />
</g>
<g id="#745391ff">
<path fill="#745391" opacity="1.00" d=" M 161.66 83.60 C 164.16 81.00 167.80 80.72 171.17 80.29 C 171.60 83.26 172.37 86.71 170.34 89.29 C 169.51 88.11 168.06 88.23 166.98 89.00 C 163.05 95.01 164.22 102.45 163.06 109.17 C 162.62 104.79 162.68 100.39 163.16 96.02 C 163.61 92.83 162.17 89.62 163.32 86.49 C 162.77 85.52 162.21 84.56 161.66 83.60 Z" />
</g>
<g id="#d8b1f5ff">
<path fill="#d8b1f5" opacity="1.00" d=" M 22.28 85.19 C 23.84 84.34 25.59 86.44 24.90 87.93 C 24.47 90.89 19.82 92.21 18.52 89.14 C 18.13 86.79 20.49 85.85 22.28 85.19 Z" />
</g>
<g id="#715189ff">
<path fill="#715189" opacity="1.00" d=" M 7.75 89.23 C 9.03 87.16 11.55 86.78 13.68 86.09 C 15.34 87.53 18.20 88.70 17.54 91.38 C 17.05 93.74 16.53 96.10 16.25 98.50 L 16.19 98.98 C 13.65 100.20 10.86 99.58 8.17 99.51 C 11.15 97.90 13.56 95.50 15.80 93.00 C 14.75 91.56 14.11 89.47 12.13 89.08 C 10.67 89.12 9.21 89.19 7.75 89.23 Z" />
</g>
<g id="#64407aff">
<path fill="#64407a" opacity="1.00" d=" M 34.82 86.26 C 38.27 87.13 41.88 87.27 45.35 86.36 C 44.34 88.01 43.69 89.85 43.34 91.76 C 39.92 93.06 36.18 92.68 32.60 92.92 C 33.20 90.65 33.87 88.40 34.82 86.26 Z" />
</g>
<g id="#5f4c71ff">
<path fill="#5f4c71" opacity="1.00" d=" M 164.85 101.51 C 171.18 98.63 178.31 94.19 179.83 86.89 C 179.88 90.15 180.35 93.39 180.96 96.59 C 176.65 101.18 171.31 104.57 165.71 107.36 C 165.13 109.93 163.38 111.36 160.70 111.31 C 161.51 110.62 162.29 109.90 163.06 109.17 C 164.22 102.45 163.05 95.01 166.98 89.00 C 168.06 88.23 169.51 88.11 170.34 89.29 C 168.93 91.07 167.47 92.85 166.56 94.96 C 165.74 97.07 165.25 99.29 164.85 101.51 Z" />
</g>
<g id="#b28fc8ff">
<path fill="#b28fc8" opacity="1.00" d=" M 134.42 89.40 C 139.51 87.55 144.99 88.65 150.19 89.36 C 152.46 90.97 155.06 92.04 157.31 93.68 C 159.55 96.01 159.25 99.51 159.47 102.49 C 154.94 102.53 150.27 102.08 146.30 99.71 C 140.70 96.50 134.76 93.53 128.19 93.17 C 128.42 93.51 128.87 94.21 129.10 94.56 C 126.09 95.49 122.93 96.76 119.83 95.41 C 120.01 95.16 120.38 94.65 120.56 94.40 C 125.55 93.98 129.95 91.43 134.42 89.40 Z" />
</g>
<g id="#a586b6f7">
<path fill="#a586b6" opacity="0.97" d=" M 12.13 89.08 C 14.11 89.47 14.75 91.56 15.80 93.00 C 13.56 95.50 11.15 97.90 8.17 99.51 C 5.29 97.86 4.71 94.69 4.95 91.64 L 5.23 92.45 C 5.70 93.73 6.14 95.04 6.78 96.25 C 8.07 96.54 9.86 97.29 10.66 95.75 C 11.86 93.77 11.68 91.29 12.13 89.08 Z" />
</g>
<g id="#715885ff">
<path fill="#715885" opacity="1.00" d=" M 71.57 95.22 C 74.47 92.66 77.59 89.27 81.67 89.10 C 81.84 89.79 82.18 91.16 82.36 91.85 C 78.77 93.00 75.37 94.85 71.57 95.22 Z" />
</g>
<g id="#ae8fbcff">
<path fill="#ae8fbc" opacity="1.00" d=" M 66.85 92.29 C 67.49 91.80 68.77 90.81 69.41 90.32 C 70.44 92.28 71.35 94.36 71.21 96.64 C 74.00 95.78 76.94 95.84 79.77 96.49 C 77.66 101.67 77.00 107.29 77.01 112.84 C 79.11 113.11 81.20 113.40 83.30 113.62 C 81.23 113.92 79.16 114.51 77.06 114.34 C 74.18 113.44 71.68 111.69 68.84 110.69 C 69.56 116.84 76.90 120.24 82.51 118.98 L 84.32 118.93 C 82.67 119.46 81.03 120.03 79.38 120.59 C 78.70 121.92 78.02 123.26 77.34 124.59 C 78.52 126.15 79.69 127.73 80.96 129.22 C 77.71 127.05 74.59 122.90 70.23 125.02 C 70.70 123.73 71.16 122.43 71.63 121.14 C 71.26 120.54 70.89 119.94 70.53 119.35 C 70.84 119.00 71.48 118.30 71.80 117.95 C 71.11 117.07 70.42 116.20 69.73 115.33 C 68.07 113.43 66.39 111.46 66.12 108.84 C 66.42 109.51 67.00 110.86 67.30 111.53 C 68.09 110.72 69.55 110.23 69.52 108.87 C 69.95 105.32 69.98 101.70 69.52 98.15 C 69.29 96.82 67.74 96.28 66.96 95.32 C 66.92 94.31 66.89 93.30 66.85 92.29 Z" />
</g>
<g id="#412b57ff">
<path fill="#412b57" opacity="1.00" d=" M 16.25 98.50 C 16.53 96.10 17.05 93.74 17.54 91.38 C 19.63 94.03 22.72 95.27 26.07 94.90 C 22.56 95.38 19.41 97.00 16.25 98.50 Z" />
</g>
<g id="#cca4edff">
<path fill="#cca4ed" opacity="1.00" d=" M 91.26 97.76 C 98.32 101.57 107.65 99.87 113.10 94.02 C 113.33 95.59 113.46 97.27 112.49 98.65 C 109.97 102.93 107.87 108.36 102.50 109.65 C 101.71 108.42 100.92 107.19 100.06 106.00 C 97.47 102.08 92.62 100.90 88.94 98.31 C 89.52 98.17 90.68 97.90 91.26 97.76 Z" />
</g>
<g id="#bc97d8ff">
<path fill="#bc97d8" opacity="1.00" d=" M 119.83 95.41 C 122.93 96.76 126.09 95.49 129.10 94.56 C 134.06 95.04 138.05 98.19 141.70 101.31 C 146.42 105.30 152.53 106.79 158.50 107.71 C 158.72 108.13 159.18 108.97 159.40 109.39 C 159.58 109.90 159.93 110.93 160.10 111.45 C 161.38 111.77 162.66 112.10 163.94 112.43 C 162.10 114.05 160.14 115.51 158.08 116.83 C 160.11 116.95 162.13 117.10 164.16 117.19 C 160.08 117.60 155.96 117.73 151.87 117.35 C 148.05 116.03 144.00 115.81 140.04 115.16 C 139.11 114.64 138.20 114.09 137.29 113.55 C 139.27 112.79 141.23 111.96 143.09 110.93 C 141.17 110.09 139.15 109.31 137.02 109.51 C 128.02 109.74 119.54 113.20 110.66 114.37 C 112.91 110.60 113.26 106.08 115.33 102.23 C 116.62 99.82 118.27 97.64 119.83 95.41 Z" />
</g>
<g id="#bd98d6ff">
<path fill="#bd98d6" opacity="1.00" d=" M 77.01 112.84 C 77.00 107.29 77.66 101.67 79.77 96.49 C 82.18 97.01 84.60 97.54 87.01 98.04 C 87.15 98.57 87.42 99.64 87.56 100.17 C 86.70 101.45 85.83 102.72 85.15 104.10 C 88.10 108.36 93.28 110.14 97.96 111.78 C 98.14 110.46 98.30 109.14 98.44 107.81 C 98.56 108.03 98.80 108.47 98.93 108.69 C 99.11 110.26 99.27 111.84 99.42 113.42 C 95.12 114.73 91.30 111.43 87.42 110.09 C 87.33 110.88 87.14 112.45 87.04 113.24 C 85.79 113.35 84.55 113.47 83.30 113.62 C 81.20 113.40 79.11 113.11 77.01 112.84 Z" />
</g>
<g id="#a98cb6ff">
<path fill="#a98cb6" opacity="1.00" d=" M 165.71 107.36 C 171.31 104.57 176.65 101.18 180.96 96.59 C 181.56 100.10 182.38 103.56 183.06 107.06 C 182.77 108.34 183.45 110.44 181.94 111.10 C 176.39 114.01 170.51 116.74 164.16 117.19 C 162.13 117.10 160.11 116.95 158.08 116.83 C 160.14 115.51 162.10 114.05 163.94 112.43 C 162.66 112.10 161.38 111.77 160.10 111.45 L 160.70 111.31 C 163.38 111.36 165.13 109.93 165.71 107.36 Z" />
</g>
<g id="#c89fe9ff">
<path fill="#c89fe9" opacity="1.00" d=" M 85.15 104.10 C 85.83 102.72 86.70 101.45 87.56 100.17 C 90.96 103.04 96.18 103.74 98.44 107.81 C 98.30 109.14 98.14 110.46 97.96 111.78 C 93.28 110.14 88.10 108.36 85.15 104.10 Z" />
</g>
<g id="#80638fff">
<path fill="#80638f" opacity="1.00" d=" M 103.60 112.56 C 108.21 112.11 109.67 106.97 112.05 103.75 C 111.35 107.93 108.97 111.44 106.55 114.80 C 104.23 114.53 101.91 114.20 99.67 113.51 L 99.42 113.42 C 99.27 111.84 99.11 110.26 98.93 108.69 C 100.19 110.16 101.27 112.86 103.60 112.56 Z" />
</g>
<g id="#5a456aff">
<path fill="#5a456a" opacity="1.00" d=" M 183.06 107.06 C 183.34 108.46 183.61 109.86 183.85 111.27 C 183.27 112.60 182.69 113.92 182.12 115.25 C 178.89 117.01 175.70 119.08 172.02 119.72 C 168.21 120.40 164.33 120.46 160.49 120.79 C 155.75 119.84 150.92 119.68 146.11 119.62 C 148.02 118.83 149.93 118.06 151.87 117.35 C 155.96 117.73 160.08 117.60 164.16 117.19 C 170.51 116.74 176.39 114.01 181.94 111.10 C 183.45 110.44 182.77 108.34 183.06 107.06 Z" />
</g>
<g id="#9e7fb8ff">
<path fill="#9e7fb8" opacity="1.00" d=" M 87.42 110.09 C 91.30 111.43 95.12 114.73 99.42 113.42 L 99.67 113.51 C 99.92 114.03 100.41 115.09 100.66 115.61 C 103.94 117.79 107.97 117.19 110.66 114.37 C 119.54 113.20 128.02 109.74 137.02 109.51 C 139.15 109.31 141.17 110.09 143.09 110.93 C 141.23 111.96 139.27 112.79 137.29 113.55 C 138.20 114.09 139.11 114.64 140.04 115.16 C 134.41 114.20 128.68 112.85 122.95 113.82 C 118.76 114.45 115.15 117.01 110.95 117.59 C 105.10 118.25 98.96 118.06 93.56 115.50 C 91.58 114.27 89.44 113.21 87.04 113.24 C 87.14 112.45 87.33 110.88 87.42 110.09 Z" />
<path fill="#9e7fb8" opacity="1.00" d=" M 188.69 120.45 C 192.69 121.96 194.08 126.57 195.36 130.25 C 194.72 130.89 194.07 131.52 193.41 132.15 C 191.53 128.38 189.78 124.53 188.69 120.45 Z" />
</g>
<g id="#674d7fff">
<path fill="#674d7f" opacity="1.00" d=" M 68.84 110.69 C 71.68 111.69 74.18 113.44 77.06 114.34 C 79.16 114.51 81.23 113.92 83.30 113.62 C 84.55 113.47 85.79 113.35 87.04 113.24 C 89.44 113.21 91.58 114.27 93.56 115.50 C 91.27 115.37 88.98 115.25 86.70 115.06 C 87.68 115.93 88.67 116.80 89.67 117.67 C 87.24 117.86 84.84 118.28 82.51 118.98 C 76.90 120.24 69.56 116.84 68.84 110.69 Z" />
</g>
<g id="#856c8fff">
<path fill="#856c8f" opacity="1.00" d=" M 182.12 115.25 C 182.69 113.92 183.27 112.60 183.85 111.27 C 184.22 113.70 185.16 115.96 186.10 118.21 C 186.71 119.79 187.22 121.41 187.66 123.05 C 178.58 124.26 169.38 124.47 160.24 124.98 C 160.72 124.05 161.21 123.12 161.70 122.19 C 160.69 121.83 159.68 121.47 158.66 121.12 L 160.49 120.79 C 164.33 120.46 168.21 120.40 172.02 119.72 C 175.70 119.08 178.89 117.01 182.12 115.25 Z" />
</g>
<g id="#725492ff">
<path fill="#725492" opacity="1.00" d=" M 110.95 117.59 C 115.15 117.01 118.76 114.45 122.95 113.82 C 128.68 112.85 134.41 114.20 140.04 115.16 C 144.00 115.81 148.05 116.03 151.87 117.35 C 149.93 118.06 148.02 118.83 146.11 119.62 C 150.92 119.68 155.75 119.84 160.49 120.79 L 158.66 121.12 C 154.38 121.15 150.09 120.90 145.81 120.77 C 139.40 120.16 133.00 119.02 126.55 119.53 C 119.96 120.21 113.66 122.87 106.96 122.65 C 101.86 122.98 97.10 120.98 92.28 119.69 C 89.69 118.97 86.99 118.79 84.32 118.93 L 82.51 118.98 C 84.84 118.28 87.24 117.86 89.67 117.67 C 88.67 116.80 87.68 115.93 86.70 115.06 C 88.98 115.25 91.27 115.37 93.56 115.50 C 98.96 118.06 105.10 118.25 110.95 117.59 Z" />
</g>
<g id="#cda8d3ff">
<path fill="#cda8d3" opacity="1.00" d=" M 69.73 115.33 C 70.42 116.20 71.11 117.07 71.80 117.95 C 71.48 118.30 70.84 119.00 70.53 119.35 C 70.89 119.94 71.26 120.54 71.63 121.14 C 71.16 122.43 70.70 123.73 70.23 125.02 C 69.38 125.31 68.54 125.62 67.70 125.96 C 66.95 124.40 66.19 122.86 65.41 121.32 C 66.82 119.30 68.21 117.27 69.73 115.33 Z" />
</g>
<g id="#5a466bff">
<path fill="#5a466b" opacity="1.00" d=" M 186.10 118.21 C 186.94 118.94 187.79 119.64 188.66 120.35 L 188.69 120.45 C 189.78 124.53 191.53 128.38 193.41 132.15 C 190.80 134.43 187.26 134.33 184.03 133.97 C 174.77 134.06 165.54 129.37 156.38 132.47 C 152.32 133.74 148.10 134.33 143.86 134.42 C 148.65 133.91 152.85 131.55 156.82 128.98 C 164.21 127.56 171.55 129.84 178.96 129.79 C 181.84 129.84 184.72 129.70 187.60 129.55 C 187.67 127.38 187.75 125.21 187.66 123.05 C 187.22 121.41 186.71 119.79 186.10 118.21 Z" />
</g>
<g id="#bb97d4ff">
<path fill="#bb97d4" opacity="1.00" d=" M 84.32 118.93 C 86.99 118.79 89.69 118.97 92.28 119.69 C 90.69 119.88 89.10 120.13 87.52 120.39 C 86.09 123.18 84.43 125.85 82.53 128.35 C 84.08 129.32 85.61 130.32 87.14 131.34 C 85.06 130.71 82.80 130.45 80.96 129.22 C 79.69 127.73 78.52 126.15 77.34 124.59 C 78.02 123.26 78.70 121.92 79.38 120.59 C 81.03 120.03 82.67 119.46 84.32 118.93 Z" />
</g>
<g id="#cfa5f2ff">
<path fill="#cfa5f2" opacity="1.00" d=" M 87.52 120.39 C 89.10 120.13 90.69 119.88 92.28 119.69 C 97.10 120.98 101.86 122.98 106.96 122.65 C 113.66 122.87 119.96 120.21 126.55 119.53 C 128.49 125.55 135.32 126.99 140.64 128.58 C 143.39 129.01 143.28 132.33 143.86 134.42 C 143.56 134.64 142.96 135.08 142.65 135.31 C 144.36 135.71 146.07 136.10 147.78 136.50 C 146.55 138.58 145.85 141.55 143.15 142.14 C 139.07 143.24 134.78 143.15 130.59 143.46 C 118.49 142.21 106.62 146.81 94.49 145.15 C 89.81 143.57 84.19 144.95 80.08 141.94 C 77.74 140.33 78.64 137.59 79.22 135.35 C 81.05 135.53 82.87 135.69 84.70 135.91 C 92.35 137.61 100.25 138.02 108.06 137.62 C 113.65 137.37 118.49 134.03 124.03 133.50 C 127.02 133.21 130.04 133.40 133.05 133.42 C 125.53 129.84 116.97 131.63 109.05 132.48 C 101.95 132.98 94.77 132.76 87.74 131.64 C 87.59 131.56 87.29 131.42 87.14 131.34 C 85.61 130.32 84.08 129.32 82.53 128.35 C 84.43 125.85 86.09 123.18 87.52 120.39 Z" />
</g>
<g id="#bd98dbff">
<path fill="#bd98db" opacity="1.00" d=" M 126.55 119.53 C 133.00 119.02 139.40 120.16 145.81 120.77 C 142.30 124.55 136.81 122.67 132.32 123.85 C 136.41 126.38 141.21 127.53 145.98 127.66 C 149.61 127.87 153.49 127.12 156.82 128.98 C 152.85 131.55 148.65 133.91 143.86 134.42 C 143.28 132.33 143.39 129.01 140.64 128.58 C 135.32 126.99 128.49 125.55 126.55 119.53 Z" />
</g>
<g id="#a182b0ff">
<path fill="#a182b0" opacity="1.00" d=" M 145.81 120.77 C 150.09 120.90 154.38 121.15 158.66 121.12 C 159.68 121.47 160.69 121.83 161.70 122.19 C 161.21 123.12 160.72 124.05 160.24 124.98 C 169.38 124.47 178.58 124.26 187.66 123.05 C 187.75 125.21 187.67 127.38 187.60 129.55 C 184.72 129.70 181.84 129.84 178.96 129.79 C 171.55 129.84 164.21 127.56 156.82 128.98 C 153.49 127.12 149.61 127.87 145.98 127.66 C 141.21 127.53 136.41 126.38 132.32 123.85 C 136.81 122.67 142.30 124.55 145.81 120.77 Z" />
</g>
<g id="#ffd1ffff">
<path fill="#ffd1ff" opacity="1.00" d=" M 60.34 126.87 C 61.90 124.91 63.64 123.09 65.41 121.32 C 66.19 122.86 66.95 124.40 67.70 125.96 C 66.56 126.43 65.43 126.93 64.31 127.45 C 63.32 127.31 61.33 127.01 60.34 126.87 Z" />
</g>
<g id="#6f5584ff">
<path fill="#6f5584" opacity="1.00" d=" M 70.23 125.02 C 74.59 122.90 77.71 127.05 80.96 129.22 C 82.80 130.45 85.06 130.71 87.14 131.34 C 87.29 131.42 87.59 131.56 87.74 131.64 C 89.13 132.40 90.50 133.19 91.87 133.99 C 89.06 134.45 86.24 134.90 83.41 135.23 C 81.15 134.06 78.99 132.72 76.87 131.32 C 75.13 130.20 73.27 129.27 71.31 128.64 C 68.22 128.50 65.14 128.55 62.05 128.55 C 62.80 128.18 63.55 127.81 64.31 127.45 C 65.43 126.93 66.56 126.43 67.70 125.96 C 68.54 125.62 69.38 125.31 70.23 125.02 Z" />
</g>
<g id="#c4a0ccff">
<path fill="#c4a0cc" opacity="1.00" d=" M 59.32 126.73 L 60.34 126.87 C 61.33 127.01 63.32 127.31 64.31 127.45 C 63.55 127.81 62.80 128.18 62.05 128.55 C 65.14 128.55 68.22 128.50 71.31 128.64 C 70.23 131.13 69.14 133.62 68.03 136.10 C 66.26 136.48 64.51 136.95 62.77 137.43 C 63.37 134.84 64.05 132.27 64.82 129.73 C 64.11 129.83 62.70 130.03 61.99 130.14 C 61.29 129.28 60.60 128.41 59.93 127.53 L 59.32 126.73 Z" />
</g>
<g id="#ffdbffff">
<path fill="#ffdbff" opacity="1.00" d=" M 56.46 131.92 C 57.60 130.44 58.71 128.95 59.93 127.53 C 60.60 128.41 61.29 129.28 61.99 130.14 C 60.83 132.73 59.15 135.05 57.14 137.06 C 56.82 135.36 56.65 133.64 56.46 131.92 Z" />
</g>
<g id="#a98bb7ff">
<path fill="#a98bb7" opacity="1.00" d=" M 71.31 128.64 C 73.27 129.27 75.13 130.20 76.87 131.32 C 73.21 132.12 73.02 135.82 72.91 138.89 C 71.93 136.99 70.23 135.87 68.03 136.10 C 69.14 133.62 70.23 131.13 71.31 128.64 Z" />
</g>
<g id="#e4b8e9ff">
<path fill="#e4b8e9" opacity="1.00" d=" M 61.99 130.14 C 62.70 130.03 64.11 129.83 64.82 129.73 C 64.05 132.27 63.37 134.84 62.77 137.43 C 61.18 137.86 59.60 138.28 58.00 138.63 C 57.78 138.24 57.35 137.45 57.14 137.06 C 59.15 135.05 60.83 132.73 61.99 130.14 Z" />
</g>
<g id="#9577a3ff">
<path fill="#9577a3" opacity="1.00" d=" M 195.36 130.25 C 194.95 132.96 195.09 135.72 196.11 138.29 L 195.71 138.77 C 191.68 145.36 182.80 144.28 176.33 142.87 C 178.51 139.30 182.76 138.33 186.36 136.82 C 185.58 135.86 184.81 134.91 184.03 133.97 C 187.26 134.33 190.80 134.43 193.41 132.15 C 194.07 131.52 194.72 130.89 195.36 130.25 Z" />
</g>
<g id="#7b5d9dff">
<path fill="#7b5d9d" opacity="1.00" d=" M 109.05 132.48 C 116.97 131.63 125.53 129.84 133.05 133.42 C 130.04 133.40 127.02 133.21 124.03 133.50 C 118.49 134.03 113.65 137.37 108.06 137.62 C 100.25 138.02 92.35 137.61 84.70 135.91 L 83.41 135.23 C 86.24 134.90 89.06 134.45 91.87 133.99 C 90.50 133.19 89.13 132.40 87.74 131.64 C 94.77 132.76 101.95 132.98 109.05 132.48 Z" />
</g>
<g id="#a688b2ff">
<path fill="#a688b2" opacity="1.00" d=" M 156.38 132.47 C 165.54 129.37 174.77 134.06 184.03 133.97 C 184.81 134.91 185.58 135.86 186.36 136.82 C 182.76 138.33 178.51 139.30 176.33 142.87 C 176.05 142.80 175.50 142.68 175.22 142.61 C 169.19 140.73 162.89 139.99 156.58 140.05 C 159.85 139.39 163.20 138.78 166.10 137.04 C 165.58 136.13 165.06 135.21 164.55 134.30 C 164.84 134.06 165.43 133.59 165.73 133.35 C 162.60 133.23 159.48 132.88 156.38 132.47 Z" />
</g>
<g id="#694f82ff">
<path fill="#694f82" opacity="1.00" d=" M 56.82 137.24 C 55.79 135.64 56.42 133.68 56.46 131.92 C 56.65 133.64 56.82 135.36 57.14 137.06 C 57.35 137.45 57.78 138.24 58.00 138.63 C 59.60 138.28 61.18 137.86 62.77 137.43 C 64.51 136.95 66.26 136.48 68.03 136.10 C 70.23 135.87 71.93 136.99 72.91 138.89 C 75.71 143.74 81.67 144.54 86.69 145.25 C 88.97 147.00 91.43 148.48 94.00 149.76 C 90.79 149.85 87.58 150.05 84.36 150.17 C 81.35 149.33 78.29 148.40 75.76 146.48 C 73.37 144.06 71.30 140.84 67.62 140.39 C 65.41 140.66 63.21 141.01 61.06 141.58 L 60.44 141.87 C 59.43 140.17 57.80 138.95 56.82 137.24 Z" />
</g>
<g id="#b997cfff">
<path fill="#b997cf" opacity="1.00" d=" M 72.91 138.89 C 73.02 135.82 73.21 132.12 76.87 131.32 C 78.99 132.72 81.15 134.06 83.41 135.23 L 84.70 135.91 C 82.87 135.69 81.05 135.53 79.22 135.35 C 78.64 137.59 77.74 140.33 80.08 141.94 C 84.19 144.95 89.81 143.57 94.49 145.15 C 91.89 145.20 89.29 145.31 86.69 145.25 C 81.67 144.54 75.71 143.74 72.91 138.89 Z" />
</g>
<g id="#b896ceff">
<path fill="#b896ce" opacity="1.00" d=" M 143.86 134.42 C 148.10 134.33 152.32 133.74 156.38 132.47 C 159.48 132.88 162.60 133.23 165.73 133.35 C 165.43 133.59 164.84 134.06 164.55 134.30 C 165.06 135.21 165.58 136.13 166.10 137.04 C 163.20 138.78 159.85 139.39 156.58 140.05 C 153.07 140.66 149.60 141.48 146.20 142.55 C 141.17 144.23 135.77 144.98 130.59 143.46 C 134.78 143.15 139.07 143.24 143.15 142.14 C 145.85 141.55 146.55 138.58 147.78 136.50 C 146.07 136.10 144.36 135.71 142.65 135.31 C 142.96 135.08 143.56 134.64 143.86 134.42 Z" />
</g>
<g id="#4d3a5eff">
<path fill="#4d3a5e" opacity="1.00" d=" M 176.33 142.87 C 182.80 144.28 191.68 145.36 195.71 138.77 C 195.65 139.17 195.53 139.98 195.47 140.38 C 194.14 142.92 192.51 145.49 190.05 147.08 C 186.20 148.63 181.88 148.24 177.83 147.96 C 175.97 147.49 174.10 147.08 172.23 146.70 C 169.73 146.10 167.29 145.30 164.87 144.45 C 168.24 143.48 171.70 142.73 175.22 142.61 C 175.50 142.68 176.05 142.80 176.33 142.87 Z" />
</g>
<g id="#654d7cff">
<path fill="#654d7c" opacity="1.00" d=" M 146.20 142.55 C 149.60 141.48 153.07 140.66 156.58 140.05 C 162.89 139.99 169.19 140.73 175.22 142.61 C 171.70 142.73 168.24 143.48 164.87 144.45 C 167.29 145.30 169.73 146.10 172.23 146.70 C 169.80 146.58 167.38 146.58 164.95 146.55 C 160.54 146.42 156.10 146.54 151.77 147.46 C 148.62 148.05 145.45 148.53 142.25 148.68 C 140.68 148.19 139.15 147.63 137.61 147.07 C 140.65 145.99 145.27 146.47 146.20 142.55 Z" />
</g>
<g id="#bb97c4ff">
<path fill="#bb97c4" opacity="1.00" d=" M 61.06 141.58 C 63.21 141.01 65.41 140.66 67.62 140.39 C 67.75 144.82 65.45 148.76 63.57 152.62 C 63.13 154.36 61.17 153.75 59.85 153.97 C 61.43 150.04 63.09 146.15 64.77 142.26 C 63.53 142.04 62.30 141.81 61.06 141.58 Z" />
</g>
<g id="#a485b3ff">
<path fill="#a485b3" opacity="1.00" d=" M 67.62 140.39 C 71.30 140.84 73.37 144.06 75.76 146.48 C 72.93 149.06 70.72 152.21 69.05 155.65 C 71.31 156.01 74.00 155.65 75.59 157.66 L 74.51 157.83 C 73.94 157.80 72.79 157.73 72.22 157.69 C 68.89 157.43 65.48 157.19 62.44 155.66 C 60.44 154.51 58.14 154.85 55.99 155.30 C 56.12 154.99 56.39 154.35 56.52 154.03 C 57.35 154.02 59.02 153.98 59.85 153.97 C 61.17 153.75 63.13 154.36 63.57 152.62 C 65.45 148.76 67.75 144.82 67.62 140.39 Z" />
</g>
<g id="#816591ff">
<path fill="#816591" opacity="1.00" d=" M 190.05 147.08 C 192.51 145.49 194.14 142.92 195.47 140.38 C 197.32 141.79 199.09 143.31 200.79 144.90 C 199.24 145.38 197.70 145.85 196.16 146.33 C 198.60 151.08 200.33 158.50 207.03 158.27 C 210.03 159.24 212.46 157.41 214.40 155.36 C 216.17 156.37 217.87 157.47 219.54 158.64 C 216.37 159.24 213.32 160.41 211.04 162.75 C 211.65 164.26 212.61 165.76 212.51 167.46 C 208.71 168.74 204.66 168.98 200.72 169.57 C 193.88 169.35 187.10 168.42 180.28 167.93 C 177.75 167.81 175.21 167.74 172.68 167.87 C 173.19 167.66 174.20 167.24 174.70 167.04 C 177.91 166.86 181.22 167.22 184.34 166.31 C 188.54 164.79 191.55 161.28 194.04 157.73 C 188.96 153.94 183.04 151.54 177.83 147.96 C 181.88 148.24 186.20 148.63 190.05 147.08 Z" />
</g>
<g id="#d5acddff">
<path fill="#d5acdd" opacity="1.00" d=" M 61.06 141.58 C 62.30 141.81 63.53 142.04 64.77 142.26 C 63.09 146.15 61.43 150.04 59.85 153.97 C 59.02 153.98 57.35 154.02 56.52 154.03 C 58.07 149.89 59.77 145.81 61.06 141.58 Z" />
</g>
<g id="#715392ff">
<path fill="#715392" opacity="1.00" d=" M 94.49 145.15 C 106.62 146.81 118.49 142.21 130.59 143.46 C 135.77 144.98 141.17 144.23 146.20 142.55 C 145.27 146.47 140.65 145.99 137.61 147.07 C 139.15 147.63 140.68 148.19 142.25 148.68 C 137.35 149.18 132.42 149.39 127.51 148.95 C 120.96 148.09 114.43 149.59 107.94 150.38 C 100.43 151.70 92.75 151.88 85.19 150.97 L 84.36 150.17 C 87.58 150.05 90.79 149.85 94.00 149.76 C 91.43 148.48 88.97 147.00 86.69 145.25 C 89.29 145.31 91.89 145.20 94.49 145.15 Z" />
</g>
<g id="#8a72acff">
<path fill="#8a72ac" opacity="1.00" d=" M 196.16 146.33 C 197.70 145.85 199.24 145.38 200.79 144.90 C 205.13 148.63 209.42 152.50 214.40 155.36 C 212.46 157.41 210.03 159.24 207.03 158.27 C 200.33 158.50 198.60 151.08 196.16 146.33 Z" />
</g>
<g id="#b18ec9ff">
<path fill="#b18ec9" opacity="1.00" d=" M 69.05 155.65 C 70.72 152.21 72.93 149.06 75.76 146.48 C 78.29 148.40 81.35 149.33 84.36 150.17 L 85.19 150.97 C 80.91 151.22 78.09 154.60 75.59 157.66 C 74.00 155.65 71.31 156.01 69.05 155.65 Z" />
</g>
<g id="#aa8abcff">
<path fill="#aa8abc" opacity="1.00" d=" M 151.77 147.46 C 156.10 146.54 160.54 146.42 164.95 146.55 C 167.07 149.12 169.21 151.67 171.30 154.25 C 168.17 154.71 165.08 155.45 162.05 156.36 C 162.45 155.96 163.25 155.17 163.66 154.77 C 160.09 151.71 157.16 146.90 151.77 147.46 Z" />
</g>
<g id="#987ba5ff">
<path fill="#987ba5" opacity="1.00" d=" M 164.95 146.55 C 167.38 146.58 169.80 146.58 172.23 146.70 C 174.10 147.08 175.97 147.49 177.83 147.96 C 183.04 151.54 188.96 153.94 194.04 157.73 C 191.55 161.28 188.54 164.79 184.34 166.31 C 181.22 167.22 177.91 166.86 174.70 167.04 C 176.40 165.25 177.87 163.26 179.33 161.29 C 177.53 159.35 175.76 157.38 173.99 155.41 C 175.31 155.04 176.65 154.71 177.98 154.38 C 175.76 154.30 173.53 154.21 171.30 154.25 C 169.21 151.67 167.07 149.12 164.95 146.55 Z" />
</g>
<g id="#b894cfff">
<path fill="#b894cf" opacity="1.00" d=" M 142.25 148.68 C 145.45 148.53 148.62 148.05 151.77 147.46 C 157.16 146.90 160.09 151.71 163.66 154.77 C 163.25 155.17 162.45 155.96 162.05 156.36 C 158.64 158.44 154.93 160.08 150.92 160.51 C 151.45 159.83 151.97 159.14 152.50 158.46 C 149.50 155.84 147.17 152.30 143.57 150.45 C 138.28 149.41 132.71 150.81 127.51 148.95 C 132.42 149.39 137.35 149.18 142.25 148.68 Z" />
</g>
<g id="#c49de4ff">
<path fill="#c49de4" opacity="1.00" d=" M 107.94 150.38 C 114.43 149.59 120.96 148.09 127.51 148.95 C 132.71 150.81 138.28 149.41 143.57 150.45 C 147.17 152.30 149.50 155.84 152.50 158.46 C 151.97 159.14 151.45 159.83 150.92 160.51 C 147.82 160.55 144.76 159.98 141.77 159.22 C 136.94 157.92 131.89 158.15 126.94 158.33 C 127.90 157.68 128.84 157.02 129.79 156.36 C 122.33 154.48 114.63 152.92 106.90 153.69 C 100.22 153.88 93.93 156.32 87.84 158.85 C 84.85 160.27 81.71 161.71 79.45 164.20 C 79.16 165.92 80.87 167.12 82.36 167.46 C 92.11 170.19 102.17 167.49 112.07 167.52 C 108.49 167.42 104.91 167.28 101.35 166.86 C 103.02 164.98 105.33 164.57 107.68 165.35 C 114.43 167.64 121.45 165.08 127.88 162.95 C 134.25 161.03 140.79 162.95 146.99 164.57 C 147.17 165.08 147.53 166.09 147.72 166.60 C 140.31 167.26 133.11 169.66 125.63 169.52 C 117.11 169.78 108.54 170.43 100.28 172.64 C 93.80 170.81 87.00 171.78 80.37 171.28 C 78.83 170.77 77.32 170.19 75.81 169.63 C 74.88 167.73 73.80 165.87 73.27 163.81 C 73.28 161.75 74.10 159.82 74.51 157.83 L 75.59 157.66 C 78.09 154.60 80.91 151.22 85.19 150.97 C 92.75 151.88 100.43 151.70 107.94 150.38 Z" />
</g>
<g id="#9270a0ff">
<path fill="#9270a0" opacity="1.00" d=" M 42.15 155.58 C 44.32 154.56 46.48 153.54 48.62 152.48 C 48.16 155.34 51.32 155.55 53.32 155.85 C 55.01 156.22 56.67 156.73 58.26 157.41 C 58.58 157.81 59.22 158.61 59.53 159.01 C 59.01 158.82 57.95 158.44 57.43 158.25 C 54.01 158.34 50.60 158.58 47.18 158.70 C 45.19 158.24 43.25 157.41 42.15 155.58 Z" />
</g>
<g id="#d2a8f6ff">
<path fill="#d2a8f6" opacity="1.00" d=" M 106.90 153.69 C 114.63 152.92 122.33 154.48 129.79 156.36 C 128.84 157.02 127.90 157.68 126.94 158.33 C 124.25 159.98 121.77 162.03 118.86 163.30 C 115.25 164.49 111.43 164.86 107.68 165.35 C 105.33 164.57 103.02 164.98 101.35 166.86 C 104.91 167.28 108.49 167.42 112.07 167.52 C 102.17 167.49 92.11 170.19 82.36 167.46 C 80.87 167.12 79.16 165.92 79.45 164.20 C 81.71 161.71 84.85 160.27 87.84 158.85 C 93.93 156.32 100.22 153.88 106.90 153.69 Z" />
</g>
<g id="#70568dff">
<path fill="#70568d" opacity="1.00" d=" M 162.05 156.36 C 165.08 155.45 168.17 154.71 171.30 154.25 C 173.53 154.21 175.76 154.30 177.98 154.38 C 176.65 154.71 175.31 155.04 173.99 155.41 C 170.82 156.32 167.83 157.74 165.06 159.51 C 162.30 161.23 159.60 163.16 156.48 164.18 C 153.38 164.93 150.14 164.70 146.99 164.57 C 140.79 162.95 134.25 161.03 127.88 162.95 C 121.45 165.08 114.43 167.64 107.68 165.35 C 111.43 164.86 115.25 164.49 118.86 163.30 C 121.77 162.03 124.25 159.98 126.94 158.33 C 131.89 158.15 136.94 157.92 141.77 159.22 C 144.76 159.98 147.82 160.55 150.92 160.51 C 154.93 160.08 158.64 158.44 162.05 156.36 Z" />
</g>
<g id="#654e75ff">
<path fill="#654e75" opacity="1.00" d=" M 53.32 155.85 C 53.99 155.71 55.33 155.44 55.99 155.30 C 58.14 154.85 60.44 154.51 62.44 155.66 C 65.48 157.19 68.89 157.43 72.22 157.69 C 68.12 158.69 63.61 161.58 59.53 159.01 C 59.22 158.61 58.58 157.81 58.26 157.41 C 56.67 156.73 55.01 156.22 53.32 155.85 Z" />
</g>
<g id="#d1bbd1ff">
<path fill="#d1bbd1" opacity="1.00" d=" M 36.60 158.06 C 38.50 157.36 40.33 156.47 42.15 155.58 C 43.25 157.41 45.19 158.24 47.18 158.70 C 46.35 158.78 44.69 158.93 43.86 159.00 C 44.55 159.58 45.23 160.17 45.92 160.75 C 43.46 161.43 40.96 161.96 38.46 162.44 C 38.48 162.98 38.53 164.04 38.55 164.57 C 37.36 163.85 35.88 163.33 35.18 162.03 C 35.55 160.67 36.10 159.37 36.60 158.06 Z" />
</g>
<g id="#a78ab6ff">
<path fill="#a78ab6" opacity="1.00" d=" M 165.06 159.51 C 167.83 157.74 170.82 156.32 173.99 155.41 C 175.76 157.38 177.53 159.35 179.33 161.29 C 177.87 163.26 176.40 165.25 174.70 167.04 C 174.20 167.24 173.19 167.66 172.68 167.87 C 170.03 168.89 168.10 171.14 165.51 172.26 C 163.25 173.00 160.88 173.34 158.56 173.83 C 152.90 173.46 147.14 174.09 141.61 172.61 C 143.05 172.27 144.49 171.91 145.93 171.55 C 144.63 171.18 143.33 170.81 142.04 170.45 C 150.96 169.51 160.67 170.53 168.58 165.50 C 171.45 162.82 167.39 160.39 165.06 159.51 Z" />
</g>
<g id="#836a93ff">
<path fill="#836a93" opacity="1.00" d=" M 35.41 167.89 C 34.69 164.55 33.96 160.79 36.60 158.06 C 36.10 159.37 35.55 160.67 35.18 162.03 C 35.88 163.33 37.36 163.85 38.55 164.57 C 39.60 164.96 40.66 165.30 41.75 165.56 C 44.57 166.09 47.53 166.03 50.22 167.11 L 50.32 168.48 C 51.53 168.97 52.77 169.40 54.01 169.86 C 48.02 170.03 42.32 168.07 36.84 165.86 C 36.50 166.34 35.81 167.31 35.47 167.80 L 35.41 167.89 Z" />
</g>
<g id="#dfbbe4ff">
<path fill="#dfbbe4" opacity="1.00" d=" M 47.18 158.70 C 50.60 158.58 54.01 158.34 57.43 158.25 C 55.28 161.40 52.81 164.31 50.22 167.11 C 47.53 166.03 44.57 166.09 41.75 165.56 C 45.20 165.66 48.98 164.63 49.95 160.88 C 49.10 159.23 47.25 160.66 45.92 160.75 C 45.23 160.17 44.55 159.58 43.86 159.00 C 44.69 158.93 46.35 158.78 47.18 158.70 Z" />
</g>
<g id="#b192bfff">
<path fill="#b192bf" opacity="1.00" d=" M 57.43 158.25 C 57.95 158.44 59.01 158.82 59.53 159.01 C 63.61 161.58 68.12 158.69 72.22 157.69 C 72.79 157.73 73.94 157.80 74.51 157.83 C 74.10 159.82 73.28 161.75 73.27 163.81 C 73.80 165.87 74.88 167.73 75.81 169.63 C 77.32 170.19 78.83 170.77 80.37 171.28 C 75.13 171.16 70.13 168.82 64.84 169.91 C 60.18 168.21 55.19 168.52 50.32 168.48 L 50.22 167.11 C 52.81 164.31 55.28 161.40 57.43 158.25 Z" />
</g>
<g id="#4f3e77ff">
<path fill="#4f3e77" opacity="1.00" d=" M 211.04 162.75 C 213.32 160.41 216.37 159.24 219.54 158.64 C 220.12 159.78 220.73 160.91 221.35 162.04 C 220.55 163.86 220.36 166.23 218.68 167.49 C 216.75 168.10 214.73 168.32 212.75 168.69 C 212.42 170.05 212.08 171.41 211.75 172.78 C 206.79 174.82 201.35 175.10 196.06 175.06 C 190.04 174.56 183.99 175.04 177.97 174.58 C 188.08 173.69 198.38 173.31 208.16 170.36 C 205.68 170.03 203.21 169.75 200.72 169.57 C 204.66 168.98 208.71 168.74 212.51 167.46 C 212.61 165.76 211.65 164.26 211.04 162.75 Z" />
</g>
<g id="#ffd9ffff">
<path fill="#ffd9ff" opacity="1.00" d=" M 45.92 160.75 C 47.25 160.66 49.10 159.23 49.95 160.88 C 48.98 164.63 45.20 165.66 41.75 165.56 C 40.66 165.30 39.60 164.96 38.55 164.57 C 38.53 164.04 38.48 162.98 38.46 162.44 C 40.96 161.96 43.46 161.43 45.92 160.75 Z" />
</g>
<g id="#b695cdff">
<path fill="#b695cd" opacity="1.00" d=" M 156.48 164.18 C 159.60 163.16 162.30 161.23 165.06 159.51 C 167.39 160.39 171.45 162.82 168.58 165.50 C 160.67 170.53 150.96 169.51 142.04 170.45 C 143.33 170.81 144.63 171.18 145.93 171.55 C 144.49 171.91 143.05 172.27 141.61 172.61 C 137.36 172.31 133.05 172.12 128.83 172.85 C 124.94 174.01 121.22 176.28 116.99 175.66 C 111.38 174.96 105.77 173.99 100.28 172.64 C 108.54 170.43 117.11 169.78 125.63 169.52 C 133.11 169.66 140.31 167.26 147.72 166.60 C 147.53 166.09 147.17 165.08 146.99 164.57 C 150.14 164.70 153.38 164.93 156.48 164.18 Z" />
</g>
<g id="#68537bff">
<path fill="#68537b" opacity="1.00" d=" M 35.47 167.80 C 35.81 167.31 36.50 166.34 36.84 165.86 C 42.32 168.07 48.02 170.03 54.01 169.86 C 52.77 169.40 51.53 168.97 50.32 168.48 C 55.19 168.52 60.18 168.21 64.84 169.91 C 67.12 170.61 69.47 171.00 71.82 171.42 C 75.42 171.98 78.43 174.33 82.01 174.96 C 86.98 175.85 92.03 176.12 96.99 177.09 C 103.58 178.38 110.33 178.12 117.01 177.89 C 123.06 177.49 129.19 177.16 135.07 175.50 C 133.04 175.23 131.02 174.98 128.99 174.74 C 129.95 174.23 130.91 173.71 131.87 173.20 C 131.11 173.11 129.59 172.94 128.83 172.85 C 133.05 172.12 137.36 172.31 141.61 172.61 C 147.14 174.09 152.90 173.46 158.56 173.83 C 154.15 175.29 149.42 174.71 144.98 176.01 C 139.46 177.60 133.63 177.12 128.04 178.37 C 129.40 178.72 130.76 179.05 132.14 179.35 C 115.87 181.14 99.31 181.43 83.12 178.82 C 77.95 178.08 73.19 175.72 68.01 175.01 C 61.76 174.07 55.18 175.12 49.17 172.72 C 44.68 170.86 39.83 169.98 35.47 167.80 Z" />
</g>
<g id="#584468fe">
<path fill="#584468" opacity="1.00" d=" M 165.51 172.26 C 168.10 171.14 170.03 168.89 172.68 167.87 C 175.21 167.74 177.75 167.81 180.28 167.93 C 177.76 168.71 175.38 169.87 173.08 171.16 C 165.81 175.27 157.56 177.08 149.54 179.06 C 143.75 179.26 137.93 179.20 132.14 179.35 C 130.76 179.05 129.40 178.72 128.04 178.37 C 133.63 177.12 139.46 177.60 144.98 176.01 C 149.42 174.71 154.15 175.29 158.56 173.83 C 160.88 173.34 163.25 173.00 165.51 172.26 Z" />
</g>
<g id="#442f57ff">
<path fill="#442f57" opacity="1.00" d=" M 180.28 167.93 C 187.10 168.42 193.88 169.35 200.72 169.57 C 203.21 169.75 205.68 170.03 208.16 170.36 C 198.38 173.31 188.08 173.69 177.97 174.58 C 183.99 175.04 190.04 174.56 196.06 175.06 C 186.53 175.71 176.82 175.25 167.47 177.59 C 161.59 178.82 155.54 179.38 149.54 179.06 C 157.56 177.08 165.81 175.27 173.08 171.16 C 175.38 169.87 177.76 168.71 180.28 167.93 Z" />
</g>
<g id="#745a91ff">
<path fill="#745a91" opacity="1.00" d=" M 64.84 169.91 C 70.13 168.82 75.13 171.16 80.37 171.28 C 87.00 171.78 93.80 170.81 100.28 172.64 C 105.77 173.99 111.38 174.96 116.99 175.66 C 121.22 176.28 124.94 174.01 128.83 172.85 C 129.59 172.94 131.11 173.11 131.87 173.20 C 130.91 173.71 129.95 174.23 128.99 174.74 C 131.02 174.98 133.04 175.23 135.07 175.50 C 129.19 177.16 123.06 177.49 117.01 177.89 C 110.33 178.12 103.58 178.38 96.99 177.09 C 92.03 176.12 86.98 175.85 82.01 174.96 C 78.43 174.33 75.42 171.98 71.82 171.42 C 69.47 171.00 67.12 170.61 64.84 169.91 Z" />
</g>
</svg>
