<?xml version="1.0" encoding="UTF-8" ?>
<!DOCTYPE svg PUBLIC "-//W3C//DTD SVG 1.1//EN" "http://www.w3.org/Graphics/SVG/1.1/DTD/svg11.dtd">
<svg width="251pt" height="176pt" viewBox="0 0 251 176" version="1.1" xmlns="http://www.w3.org/2000/svg">
<g id="#4d465170">
<path fill="#4d4651" opacity="0.44" d=" M 189.31 10.06 C 191.29 10.38 193.24 10.93 195.06 11.80 C 192.72 11.68 190.37 11.66 188.05 12.00 C 188.37 11.52 189.00 10.54 189.31 10.06 Z" />
</g>
<g id="#aaa5d4ff">
<path fill="#aaa5d4" opacity="1.00" d=" M 183.79 13.90 C 185.20 13.26 186.61 12.59 188.05 12.00 C 190.37 11.66 192.72 11.68 195.06 11.80 C 195.51 12.10 196.42 12.69 196.88 12.98 C 199.76 15.81 201.91 19.59 201.44 23.76 C 199.86 27.56 195.40 29.16 191.55 28.47 C 189.02 27.11 187.02 24.95 185.13 22.83 C 182.85 20.42 183.76 16.87 183.79 13.90 M 187.83 14.87 C 186.78 17.38 186.71 21.05 189.32 22.70 C 191.18 24.71 194.05 25.10 196.63 24.56 C 199.06 23.52 198.91 20.42 199.61 18.26 C 197.94 17.03 196.79 15.06 194.93 14.17 C 192.63 14.10 189.80 13.48 187.83 14.87 Z" />
</g>
<g id="#9b8ba4ff">
<path fill="#9b8ba4" opacity="1.00" d=" M 196.88 12.98 C 198.77 14.25 200.81 15.30 202.87 16.28 L 202.88 17.03 C 202.89 17.37 202.91 18.04 202.93 18.37 C 203.50 24.36 200.42 30.09 195.42 33.31 C 195.44 32.85 195.49 31.93 195.51 31.47 C 189.54 31.71 185.19 27.42 180.61 24.30 C 179.38 20.75 181.27 17.57 182.82 14.51 C 178.76 17.13 175.64 21.71 176.32 26.73 C 173.61 25.61 170.75 24.65 168.58 22.58 C 172.49 18.12 178.18 15.52 183.79 13.90 C 183.76 16.87 182.85 20.42 185.13 22.83 C 187.02 24.95 189.02 27.11 191.55 28.47 C 195.40 29.16 199.86 27.56 201.44 23.76 C 201.91 19.59 199.76 15.81 196.88 12.98 Z" />
</g>
<g id="#b5bbfeff">
<path fill="#b5bbfe" opacity="1.00" d=" M 187.83 14.87 C 189.80 13.48 192.63 14.10 194.93 14.17 C 196.79 15.06 197.94 17.03 199.61 18.26 C 198.91 20.42 199.06 23.52 196.63 24.56 C 194.05 25.10 191.18 24.71 189.32 22.70 C 186.71 21.05 186.78 17.38 187.83 14.87 Z" />
</g>
<g id="#4f4157ff">
<path fill="#4f4157" opacity="1.00" d=" M 176.32 26.73 C 175.64 21.71 178.76 17.13 182.82 14.51 C 181.27 17.57 179.38 20.75 180.61 24.30 C 181.69 28.46 185.60 30.90 187.86 34.37 C 190.90 34.69 194.24 34.67 196.50 37.07 C 194.33 37.95 192.10 38.63 189.87 39.31 C 186.54 37.77 183.22 36.06 180.59 33.44 C 179.52 32.05 178.49 30.63 177.52 29.17 C 177.22 28.56 176.62 27.34 176.32 26.73 Z" />
</g>
<g id="#a393acff">
<path fill="#a393ac" opacity="1.00" d=" M 202.88 17.03 C 205.79 18.26 207.58 21.02 210.06 22.88 C 212.61 25.99 215.71 29.01 215.89 33.29 C 210.87 34.03 205.41 36.47 200.46 34.39 C 204.02 31.41 208.14 26.22 205.35 21.47 C 204.71 20.32 203.72 19.41 202.93 18.37 C 202.91 18.04 202.89 17.37 202.88 17.03 Z" />
</g>
<g id="#67596eff">
<path fill="#67596e" opacity="1.00" d=" M 202.93 18.37 C 203.72 19.41 204.71 20.32 205.35 21.47 C 208.14 26.22 204.02 31.41 200.46 34.39 C 199.21 35.36 197.84 36.22 196.50 37.07 C 194.24 34.67 190.90 34.69 187.86 34.37 C 190.41 34.34 193.05 34.40 195.42 33.31 C 200.42 30.09 203.50 24.36 202.93 18.37 Z" />
</g>
<g id="#837391ff">
<path fill="#837391" opacity="1.00" d=" M 166.50 25.84 C 167.22 24.77 167.94 23.70 168.58 22.58 C 170.75 24.65 173.61 25.61 176.32 26.73 C 176.62 27.34 177.22 28.56 177.52 29.17 C 174.10 29.25 170.69 28.93 167.30 28.60 C 167.10 27.91 166.70 26.53 166.50 25.84 Z" />
</g>
<g id="#7a6b8aff">
<path fill="#7a6b8a" opacity="1.00" d=" M 180.61 24.30 C 185.19 27.42 189.54 31.71 195.51 31.47 C 195.49 31.93 195.44 32.85 195.42 33.31 C 193.05 34.40 190.41 34.34 187.86 34.37 C 185.60 30.90 181.69 28.46 180.61 24.30 Z" />
</g>
<g id="#706181ff">
<path fill="#706181" opacity="1.00" d=" M 165.90 30.88 C 165.04 29.23 166.21 27.49 166.50 25.84 C 166.70 26.53 167.10 27.91 167.30 28.60 C 170.69 28.93 174.10 29.25 177.52 29.17 C 178.49 30.63 179.52 32.05 180.59 33.44 C 176.89 32.96 173.19 31.04 169.59 33.17 C 168.30 32.50 167.07 31.73 165.90 30.88 Z" />
</g>
<g id="#393357ff">
<path fill="#393357" opacity="1.00" d=" M 165.90 30.88 C 167.07 31.73 168.30 32.50 169.59 33.17 C 172.01 33.90 174.47 34.50 176.89 35.27 C 174.65 36.17 172.12 37.03 169.71 36.31 C 167.78 35.18 166.08 33.19 165.90 30.88 Z" />
<path fill="#393357" opacity="1.00" d=" M 36.71 129.96 C 38.34 130.31 39.95 130.74 41.57 131.09 C 41.83 132.83 41.41 134.88 42.72 136.30 C 43.86 137.88 45.95 137.95 47.68 138.39 C 49.14 138.78 50.58 139.23 52.02 139.69 C 48.74 139.77 44.84 140.47 42.40 137.68 C 40.81 135.98 37.74 133.89 35.96 136.52 L 35.51 137.13 C 35.09 134.63 35.25 132.10 36.71 129.96 Z" />
</g>
<g id="#594b60ff">
<path fill="#594b60" opacity="1.00" d=" M 169.59 33.17 C 173.19 31.04 176.89 32.96 180.59 33.44 C 183.22 36.06 186.54 37.77 189.87 39.31 C 191.60 39.56 193.34 39.71 195.07 39.97 C 196.85 40.21 198.06 42.08 199.89 42.04 C 201.64 41.56 203.25 40.73 204.90 39.98 C 206.85 40.59 208.80 41.21 210.79 41.71 L 211.33 41.85 C 210.46 41.89 208.71 41.96 207.83 42.00 C 207.64 42.36 207.26 43.10 207.07 43.47 C 206.11 45.31 205.06 47.10 203.91 48.82 C 203.35 47.56 202.91 46.27 202.60 44.93 C 201.91 44.90 200.54 44.85 199.85 44.82 C 200.14 44.52 200.70 43.91 200.98 43.61 C 198.58 43.24 196.17 42.97 193.78 42.56 C 188.09 41.84 183.84 37.56 178.51 35.83 C 177.97 35.62 177.43 35.44 176.89 35.27 C 174.47 34.50 172.01 33.90 169.59 33.17 Z" />
</g>
<g id="#7f7289ff">
<path fill="#7f7289" opacity="1.00" d=" M 200.46 34.39 C 205.41 36.47 210.87 34.03 215.89 33.29 C 216.64 37.08 215.05 41.22 210.79 41.71 C 208.80 41.21 206.85 40.59 204.90 39.98 C 203.25 40.73 201.64 41.56 199.89 42.04 C 198.06 42.08 196.85 40.21 195.07 39.97 C 193.34 39.71 191.60 39.56 189.87 39.31 C 192.10 38.63 194.33 37.95 196.50 37.07 C 197.84 36.22 199.21 35.36 200.46 34.39 Z" />
</g>
<g id="#3c3046ff">
<path fill="#3c3046" opacity="1.00" d=" M 178.51 35.83 C 183.84 37.56 188.09 41.84 193.78 42.56 C 196.17 42.97 198.58 43.24 200.98 43.61 C 200.70 43.91 200.14 44.52 199.85 44.82 C 197.65 45.58 195.41 46.31 193.08 46.57 C 187.86 45.46 183.59 42.10 179.53 38.83 C 178.84 37.97 178.49 36.97 178.51 35.83 Z" />
</g>
<g id="#534668ff">
<path fill="#534668" opacity="1.00" d=" M 179.53 38.83 C 183.59 42.10 187.86 45.46 193.08 46.57 C 191.43 46.75 190.63 47.58 190.69 49.06 C 191.16 53.51 192.07 57.93 193.27 62.24 C 193.90 60.65 194.48 59.02 194.64 57.30 C 195.11 54.14 195.45 50.95 196.18 47.83 C 197.97 46.93 198.92 49.60 200.13 50.52 C 201.23 50.07 202.39 49.80 203.48 49.32 C 202.55 50.54 201.71 51.83 200.90 53.14 C 199.88 52.49 198.88 51.80 197.87 51.15 C 196.90 54.77 196.37 58.48 195.77 62.17 C 195.56 63.44 195.36 64.72 195.08 65.98 L 195.10 65.31 C 193.70 66.66 192.30 68.21 190.15 68.00 C 188.57 62.81 188.72 57.36 188.59 52.00 C 188.33 54.43 188.02 56.85 187.75 59.29 C 187.20 54.22 186.58 49.07 184.66 44.31 C 183.83 42.54 181.62 43.03 180.07 42.64 C 179.90 41.37 179.72 40.10 179.53 38.83 Z" />
</g>
<g id="#b0aad8ff">
<path fill="#b0aad8" opacity="1.00" d=" M 109.29 41.42 C 115.21 39.91 121.66 40.28 127.71 41.44 C 127.82 42.24 128.03 43.85 128.14 44.65 C 134.51 45.27 139.87 49.31 144.08 53.87 C 143.59 53.92 142.61 54.03 142.12 54.08 C 139.77 51.65 136.48 52.52 133.50 52.76 C 129.66 50.83 125.30 52.05 121.22 51.40 C 114.46 50.13 108.05 53.33 102.06 56.01 C 99.14 57.20 97.60 60.11 95.69 62.43 C 93.80 62.65 91.99 63.22 90.30 64.10 C 89.78 64.18 88.74 64.35 88.21 64.44 C 87.75 64.15 86.83 63.57 86.36 63.29 C 87.71 62.60 89.94 60.01 88.11 58.85 C 86.54 59.51 86.23 61.50 85.92 62.99 C 85.01 62.25 83.71 60.92 84.90 59.81 C 91.31 51.22 101.21 45.78 111.67 43.88 C 115.70 42.33 120.90 44.83 124.32 42.03 C 119.33 41.33 114.28 42.13 109.29 41.42 Z" />
<path fill="#b0aad8" opacity="1.00" d=" M 143.03 103.53 C 145.19 104.91 147.23 106.46 149.23 108.06 C 148.48 109.25 147.98 110.90 146.26 110.70 C 144.93 108.44 143.63 106.11 143.03 103.53 Z" />
</g>
<g id="#aa9ab3ff">
<path fill="#aa9ab3" opacity="1.00" d=" M 97.08 45.38 C 101.06 43.82 105.00 41.92 109.29 41.42 C 114.28 42.13 119.33 41.33 124.32 42.03 C 120.90 44.83 115.70 42.33 111.67 43.88 C 101.21 45.78 91.31 51.22 84.90 59.81 C 83.71 60.92 85.01 62.25 85.92 62.99 L 86.36 63.29 C 86.83 63.57 87.75 64.15 88.21 64.44 C 86.00 64.80 83.78 65.07 81.55 65.20 C 82.33 64.56 83.11 63.92 83.88 63.26 L 84.06 61.94 C 82.58 61.89 81.11 62.02 79.67 62.32 C 82.37 54.24 89.33 48.42 97.08 45.38 Z" />
</g>
<g id="#a392b3ff">
<path fill="#a392b3" opacity="1.00" d=" M 127.71 41.44 C 137.54 42.92 145.59 49.27 153.30 55.06 C 156.27 56.96 158.31 59.91 160.78 62.36 C 160.39 62.37 159.62 62.40 159.24 62.41 C 153.98 58.72 147.66 57.17 142.12 54.08 C 142.61 54.03 143.59 53.92 144.08 53.87 C 139.87 49.31 134.51 45.27 128.14 44.65 C 128.03 43.85 127.82 42.24 127.71 41.44 Z" />
</g>
<g id="#706183ff">
<path fill="#706183" opacity="1.00" d=" M 180.07 42.64 C 181.62 43.03 183.83 42.54 184.66 44.31 C 186.58 49.07 187.20 54.22 187.75 59.29 C 187.77 59.80 187.81 60.83 187.83 61.35 C 185.58 58.42 183.82 55.05 180.87 52.71 C 180.13 55.64 181.30 58.30 182.93 60.65 C 182.36 62.58 181.62 64.46 180.50 66.14 C 180.37 65.35 180.12 63.78 179.99 63.00 C 180.43 56.23 180.79 49.40 180.07 42.64 Z" />
</g>
<g id="#a193b9ff">
<path fill="#a193b9" opacity="1.00" d=" M 203.91 48.82 C 205.06 47.10 206.11 45.31 207.07 43.47 C 207.60 46.69 206.98 49.87 206.61 53.06 C 207.02 59.13 205.84 65.12 206.27 71.20 L 205.91 71.70 C 204.89 73.12 203.92 74.58 203.06 76.10 C 202.24 72.91 202.51 69.63 202.49 66.38 C 201.83 65.44 201.04 64.61 200.28 63.76 C 202.69 60.60 207.44 58.66 206.38 53.86 C 205.35 54.55 204.33 55.23 203.32 55.94 C 203.60 53.57 203.78 51.20 203.91 48.82 L 203.91 48.82 Z" />
</g>
<g id="#867899ff">
<path fill="#867899" opacity="1.00" d=" M 193.08 46.57 C 195.41 46.31 197.65 45.58 199.85 44.82 C 200.54 44.85 201.91 44.90 202.60 44.93 C 202.91 46.27 203.35 47.56 203.91 48.82 L 203.91 48.82 L 203.48 49.32 C 202.39 49.80 201.23 50.07 200.13 50.52 C 198.92 49.60 197.97 46.93 196.18 47.83 C 195.45 50.95 195.11 54.14 194.64 57.30 C 194.26 53.70 193.71 50.13 193.08 46.57 Z" />
</g>
<g id="#695a7dff">
<path fill="#695a7d" opacity="1.00" d=" M 190.69 49.06 C 190.63 47.58 191.43 46.75 193.08 46.57 C 193.71 50.13 194.26 53.70 194.64 57.30 C 194.48 59.02 193.90 60.65 193.27 62.24 C 192.07 57.93 191.16 53.51 190.69 49.06 Z" />
</g>
<g id="#8681b9ff">
<path fill="#8681b9" opacity="1.00" d=" M 203.48 49.32 L 203.91 48.82 C 203.78 51.20 203.60 53.57 203.32 55.94 C 200.64 57.81 198.10 59.88 195.77 62.17 C 196.37 58.48 196.90 54.77 197.87 51.15 C 198.88 51.80 199.88 52.49 200.90 53.14 C 201.71 51.83 202.55 50.54 203.48 49.32 Z" />
</g>
<g id="#b5b7f2ff">
<path fill="#b5b7f2" opacity="1.00" d=" M 102.06 56.01 C 108.05 53.33 114.46 50.13 121.22 51.40 C 125.30 52.05 129.66 50.83 133.50 52.76 C 127.21 52.90 121.21 54.73 115.11 55.99 C 114.46 55.36 113.81 54.73 113.17 54.09 L 112.74 54.89 C 112.48 55.30 111.96 56.13 111.70 56.55 C 107.38 57.84 103.87 60.70 100.28 63.29 C 97.39 65.44 93.58 64.62 90.30 64.10 C 91.99 63.22 93.80 62.65 95.69 62.43 C 97.60 60.11 99.14 57.20 102.06 56.01 Z" />
</g>
<g id="#63577bff">
<path fill="#63577b" opacity="1.00" d=" M 133.50 52.76 C 136.48 52.52 139.77 51.65 142.12 54.08 C 147.66 57.17 153.98 58.72 159.24 62.41 C 159.62 62.40 160.39 62.37 160.78 62.36 L 161.03 62.32 C 162.66 63.94 164.24 65.65 165.33 67.70 C 162.28 66.25 159.09 65.14 155.98 63.85 C 155.67 63.63 155.04 63.20 154.72 62.98 C 152.73 61.52 150.57 60.23 148.14 59.62 C 145.28 59.31 142.12 58.90 139.80 61.01 C 137.53 61.78 135.14 61.64 132.85 61.06 C 133.36 60.95 134.39 60.75 134.90 60.64 C 132.50 59.98 130.09 59.35 127.70 58.67 C 128.03 58.33 128.69 57.65 129.03 57.31 C 132.14 58.00 135.18 58.98 138.27 59.79 C 138.65 59.07 139.41 57.61 139.79 56.88 C 137.25 54.00 132.58 55.15 129.20 55.79 C 126.83 54.98 124.47 55.68 122.26 56.62 C 119.18 57.23 116.04 57.63 113.05 58.66 C 112.97 57.72 112.82 55.83 112.74 54.89 L 113.17 54.09 C 113.81 54.73 114.46 55.36 115.11 55.99 C 121.21 54.73 127.21 52.90 133.50 52.76 Z" />
</g>
<g id="#231b44ff">
<path fill="#231b44" opacity="1.00" d=" M 187.75 59.29 C 188.02 56.85 188.33 54.43 188.59 52.00 C 188.72 57.36 188.57 62.81 190.15 68.00 C 192.30 68.21 193.70 66.66 195.10 65.31 L 195.08 65.98 C 194.45 68.23 193.70 70.56 195.60 72.47 C 195.30 74.49 194.17 76.13 192.66 77.45 C 191.97 77.46 190.61 77.47 189.92 77.47 C 189.05 76.07 188.23 74.60 187.93 72.97 C 188.89 73.73 189.97 74.34 190.94 75.09 C 192.48 73.67 193.04 71.84 192.44 69.81 C 191.19 69.31 189.93 68.83 188.68 68.32 C 188.55 67.72 188.29 66.51 188.16 65.91 C 187.99 64.39 187.89 62.87 187.83 61.35 C 187.81 60.83 187.77 59.80 187.75 59.29 Z" />
</g>
<g id="#4e4360ff">
<path fill="#4e4360" opacity="1.00" d=" M 180.87 52.71 C 183.82 55.05 185.58 58.42 187.83 61.35 C 187.89 62.87 187.99 64.39 188.16 65.91 C 187.65 66.22 186.63 66.84 186.12 67.15 C 185.84 66.53 185.26 65.29 184.97 64.67 C 184.32 63.32 183.65 61.97 182.93 60.65 C 181.30 58.30 180.13 55.64 180.87 52.71 Z" />
</g>
<g id="#5e587dff">
<path fill="#5e587d" opacity="1.00" d=" M 203.32 55.94 C 204.33 55.23 205.35 54.55 206.38 53.86 C 207.44 58.66 202.69 60.60 200.28 63.76 C 198.82 66.71 197.10 69.53 195.60 72.47 C 193.70 70.56 194.45 68.23 195.08 65.98 C 195.36 64.72 195.56 63.44 195.77 62.17 C 198.10 59.88 200.64 57.81 203.32 55.94 Z" />
</g>
<g id="#716c93ff">
<path fill="#716c93" opacity="1.00" d=" M 111.70 56.55 C 111.96 56.13 112.48 55.30 112.74 54.89 C 112.82 55.83 112.97 57.72 113.05 58.66 C 106.87 60.71 103.03 66.14 98.54 70.48 C 95.96 70.64 93.35 70.53 90.81 69.99 C 87.42 69.05 83.89 69.01 80.40 69.17 C 80.02 69.60 79.26 70.46 78.88 70.88 C 78.35 71.49 77.82 72.10 77.29 72.71 C 77.23 72.17 77.12 71.08 77.06 70.54 C 78.33 68.58 79.66 66.62 81.55 65.20 C 83.78 65.07 86.00 64.80 88.21 64.44 C 88.74 64.35 89.78 64.18 90.30 64.10 C 93.58 64.62 97.39 65.44 100.28 63.29 C 103.87 60.70 107.38 57.84 111.70 56.55 Z" />
</g>
<g id="#ffffffff">
<path fill="#ffffff" opacity="1.00" d=" M 122.26 56.62 C 124.47 55.68 126.83 54.98 129.20 55.79 C 132.58 55.15 137.25 54.00 139.79 56.88 C 139.41 57.61 138.65 59.07 138.27 59.79 C 135.18 58.98 132.14 58.00 129.03 57.31 C 127.43 56.94 125.82 56.72 124.18 56.65 C 123.70 56.65 122.74 56.63 122.26 56.62 Z" />
</g>
<g id="#b1b8feff">
<path fill="#b1b8fe" opacity="1.00" d=" M 113.05 58.66 C 116.04 57.63 119.18 57.23 122.26 56.62 C 122.74 56.63 123.70 56.65 124.18 56.65 C 125.28 57.54 126.40 58.41 127.53 59.26 C 124.27 65.17 118.93 70.16 112.75 72.84 C 113.00 71.87 113.24 70.90 113.47 69.92 C 108.48 69.53 103.50 70.01 98.54 70.48 C 103.03 66.14 106.87 60.71 113.05 58.66 Z" />
</g>
<g id="#656292ff">
<path fill="#656292" opacity="1.00" d=" M 124.18 56.65 C 125.82 56.72 127.43 56.94 129.03 57.31 C 128.69 57.65 128.03 58.33 127.70 58.67 C 130.09 59.35 132.50 59.98 134.90 60.64 C 134.39 60.75 133.36 60.95 132.85 61.06 C 132.33 60.96 131.30 60.77 130.78 60.68 C 128.47 62.88 127.39 66.00 125.34 68.42 C 123.57 69.60 122.07 71.12 120.95 72.93 C 121.77 73.00 123.41 73.12 124.24 73.18 C 117.91 76.02 110.93 76.57 104.33 78.51 C 96.17 80.32 87.32 81.13 79.41 77.86 C 80.94 77.41 82.52 77.14 84.11 77.03 C 86.90 77.34 89.76 77.68 92.49 76.84 C 99.41 76.68 106.29 75.34 112.75 72.84 C 118.93 70.16 124.27 65.17 127.53 59.26 C 126.40 58.41 125.28 57.54 124.18 56.65 Z" />
</g>
<g id="#736b87ff">
<path fill="#736b87" opacity="1.00" d=" M 85.92 62.99 C 86.23 61.50 86.54 59.51 88.11 58.85 C 89.94 60.01 87.71 62.60 86.36 63.29 L 85.92 62.99 Z" />
</g>
<g id="#9e9fe6ff">
<path fill="#9e9fe6" opacity="1.00" d=" M 139.80 61.01 C 142.12 58.90 145.28 59.31 148.14 59.62 C 147.46 62.11 146.68 64.56 145.84 66.99 C 142.09 69.21 137.45 67.06 133.85 69.78 C 132.24 70.52 130.60 71.19 128.92 71.73 C 127.36 72.23 125.80 72.71 124.24 73.18 C 123.41 73.12 121.77 73.00 120.95 72.93 C 122.07 71.12 123.57 69.60 125.34 68.42 C 129.22 69.29 132.85 66.86 136.66 66.44 C 139.56 66.13 140.85 63.29 142.00 61.01 C 141.45 61.01 140.35 61.01 139.80 61.01 Z" />
</g>
<g id="#8e88c6ff">
<path fill="#8e88c6" opacity="1.00" d=" M 148.14 59.62 C 150.57 60.23 152.73 61.52 154.72 62.98 C 154.28 67.26 157.38 70.65 158.17 74.67 C 159.03 78.89 159.57 83.17 159.90 87.46 C 157.87 87.45 155.88 87.80 153.97 88.44 C 153.32 81.68 151.68 75.01 151.72 68.19 C 150.18 68.36 148.64 68.51 147.11 68.76 C 146.79 68.32 146.16 67.44 145.84 66.99 C 146.68 64.56 147.46 62.11 148.14 59.62 Z" />
</g>
<g id="#a7adf8ff">
<path fill="#a7adf8" opacity="1.00" d=" M 125.34 68.42 C 127.39 66.00 128.47 62.88 130.78 60.68 C 131.30 60.77 132.33 60.96 132.85 61.06 C 135.14 61.64 137.53 61.78 139.80 61.01 C 140.35 61.01 141.45 61.01 142.00 61.01 C 140.85 63.29 139.56 66.13 136.66 66.44 C 132.85 66.86 129.22 69.29 125.34 68.42 Z" />
</g>
<g id="#817093ff">
<path fill="#817093" opacity="1.00" d=" M 180.50 66.14 C 181.62 64.46 182.36 62.58 182.93 60.65 C 183.65 61.97 184.32 63.32 184.97 64.67 C 183.41 68.18 180.31 70.99 179.90 74.96 C 179.25 77.93 179.13 81.06 177.94 83.89 C 175.08 86.82 172.11 90.57 167.66 90.76 C 166.23 90.71 163.92 91.65 163.44 89.68 C 161.63 84.79 161.38 79.53 160.41 74.46 C 159.49 71.50 157.74 68.88 156.81 65.92 C 161.79 67.42 162.34 74.76 167.66 75.09 C 167.85 74.28 168.24 72.65 168.43 71.83 C 171.20 74.73 172.73 78.66 176.04 81.06 C 178.14 75.27 178.75 69.02 179.99 63.00 C 180.12 63.78 180.37 65.35 180.50 66.14 Z" />
</g>
<g id="#a794b2ff">
<path fill="#a794b2" opacity="1.00" d=" M 23.54 63.22 C 28.97 62.57 34.45 62.16 39.93 62.20 C 40.47 63.01 41.01 63.82 41.54 64.64 C 39.09 64.87 36.63 65.10 34.16 65.05 C 33.37 65.02 31.80 64.94 31.01 64.90 C 29.13 64.17 27.18 63.68 25.18 63.48 C 26.19 65.86 28.26 67.43 30.44 68.65 C 29.79 68.72 28.48 68.87 27.83 68.95 C 25.01 68.76 20.59 67.42 19.32 70.93 C 19.03 70.60 18.45 69.93 18.16 69.60 C 16.83 68.49 15.20 67.85 13.61 67.19 C 16.89 65.80 19.87 63.47 23.54 63.22 Z" />
</g>
<g id="#483e61ff">
<path fill="#483e61" opacity="1.00" d=" M 39.93 62.20 C 41.93 62.32 43.92 62.49 45.91 62.73 L 45.38 62.76 C 44.94 62.79 44.06 62.84 43.62 62.87 C 44.26 63.85 44.92 64.82 45.58 65.79 C 46.10 69.87 47.03 74.18 45.31 78.12 C 44.67 79.74 44.04 81.36 43.52 83.02 C 43.42 83.29 43.24 83.83 43.15 84.10 C 45.09 84.17 47.03 84.23 48.97 84.33 C 47.01 85.66 44.88 86.72 42.57 87.30 C 39.89 84.81 36.41 83.57 32.75 83.55 L 32.94 83.25 C 34.71 82.99 36.50 82.81 38.26 82.50 C 39.81 81.87 41.07 80.79 42.01 79.42 C 44.74 74.90 45.04 68.85 41.54 64.64 C 41.01 63.82 40.47 63.01 39.93 62.20 Z" />
</g>
<g id="#45374fff">
<path fill="#45374f" opacity="1.00" d=" M 79.24 62.40 L 79.67 62.32 C 81.11 62.02 82.58 61.89 84.06 61.94 L 83.88 63.26 C 81.96 63.68 80.06 64.13 78.15 64.59 C 78.52 63.86 78.89 63.13 79.24 62.40 Z" />
<path fill="#45374f" opacity="1.00" d=" M 124.24 73.18 C 125.80 72.71 127.36 72.23 128.92 71.73 C 130.63 72.48 132.33 73.25 134.02 74.03 C 132.09 74.88 130.04 73.35 128.08 73.95 C 120.81 76.08 113.51 78.22 106.05 79.53 C 100.96 79.88 96.10 81.76 90.99 81.85 C 86.93 82.03 83.16 80.21 79.14 80.04 C 78.93 80.56 78.51 81.61 78.30 82.13 C 78.25 81.50 78.14 80.24 78.09 79.61 C 73.85 80.26 76.87 85.94 74.36 88.24 C 69.85 92.77 65.24 97.25 60.42 101.44 C 58.30 101.22 56.17 101.06 54.04 100.92 C 54.06 102.72 54.10 104.53 54.25 106.32 C 53.63 106.05 52.39 105.50 51.77 105.22 C 51.69 103.03 51.67 100.85 51.63 98.67 C 53.09 98.99 54.56 99.32 56.02 99.65 C 56.35 98.58 56.76 97.54 57.08 96.48 C 60.53 94.40 64.50 93.04 67.39 90.15 C 67.62 89.69 68.09 88.78 68.32 88.32 C 69.34 86.87 70.52 85.53 71.38 83.98 C 71.96 81.17 70.85 78.35 69.03 76.25 C 71.40 77.83 73.64 79.97 76.74 79.68 C 76.65 78.99 76.47 77.63 76.37 76.94 C 76.59 77.35 77.03 78.16 77.24 78.56 C 77.96 78.32 78.68 78.08 79.41 77.86 C 87.32 81.13 96.17 80.32 104.33 78.51 C 110.93 76.57 117.91 76.02 124.24 73.18 Z" />
</g>
<g id="#8c7ba1ff">
<path fill="#8c7ba1" opacity="1.00" d=" M 43.62 62.87 C 44.06 62.84 44.94 62.79 45.38 62.76 C 50.02 63.53 54.01 66.21 57.87 68.72 C 57.28 68.98 56.10 69.51 55.51 69.77 C 51.78 69.62 49.17 66.47 45.58 65.79 C 44.92 64.82 44.26 63.85 43.62 62.87 Z" />
</g>
<g id="#d0c8d6fd">
<path fill="#d0c8d6" opacity="1.00" d=" M 78.15 64.59 C 80.06 64.13 81.96 63.68 83.88 63.26 C 83.11 63.92 82.33 64.56 81.55 65.20 C 79.66 66.62 78.33 68.58 77.06 70.54 L 76.95 69.46 C 76.61 67.70 77.45 66.12 78.15 64.59 Z" />
</g>
<g id="#8886baff">
<path fill="#8886ba" opacity="1.00" d=" M 154.72 62.98 C 155.04 63.20 155.67 63.63 155.98 63.85 C 156.19 64.37 156.60 65.40 156.81 65.92 C 157.74 68.88 159.49 71.50 160.41 74.46 C 161.38 79.53 161.63 84.79 163.44 89.68 C 163.92 91.65 166.23 90.71 167.66 90.76 C 172.11 90.57 175.08 86.82 177.94 83.89 C 179.13 81.06 179.25 77.93 179.90 74.96 C 180.31 70.99 183.41 68.18 184.97 64.67 C 185.26 65.29 185.84 66.53 186.12 67.15 C 186.32 67.59 186.72 68.48 186.91 68.92 C 183.63 72.55 181.77 77.22 181.41 82.08 C 181.07 83.35 182.29 84.16 182.97 85.01 C 182.66 85.15 182.04 85.43 181.73 85.57 L 181.36 85.75 C 181.03 85.73 180.36 85.70 180.02 85.68 C 176.90 89.75 174.83 94.55 171.41 98.40 C 168.60 101.44 168.27 105.74 167.50 109.61 C 166.13 110.79 164.78 112.00 163.43 113.22 C 166.68 115.33 170.43 113.34 173.97 113.47 C 176.86 113.49 179.74 113.02 182.46 112.02 C 182.87 112.98 183.31 113.93 183.78 114.87 C 180.64 117.02 176.86 117.57 173.21 118.26 C 174.80 121.10 177.00 123.51 179.29 125.80 C 180.67 127.55 183.20 127.03 185.16 127.35 C 181.28 128.43 177.22 127.66 173.26 127.66 C 165.53 126.96 157.83 125.71 150.05 125.68 C 146.21 125.72 142.44 124.97 138.72 124.09 C 140.45 123.60 142.20 123.11 144.00 122.95 C 148.31 122.76 152.14 120.56 156.34 119.81 C 156.12 117.88 156.56 116.04 157.40 114.31 C 156.97 113.56 156.53 112.81 156.09 112.06 C 159.96 108.58 161.18 102.99 160.87 97.98 C 160.83 95.70 159.26 93.97 157.93 92.28 C 157.02 92.75 156.11 93.22 155.21 93.69 C 154.84 92.42 154.47 91.16 154.15 89.88 C 154.10 89.52 154.01 88.80 153.97 88.44 C 155.88 87.80 157.87 87.45 159.90 87.46 C 159.57 83.17 159.03 78.89 158.17 74.67 C 157.38 70.65 154.28 67.26 154.72 62.98 Z" />
</g>
<g id="#584a5dff">
<path fill="#584a5d" opacity="1.00" d=" M 25.18 63.48 C 27.18 63.68 29.13 64.17 31.01 64.90 C 32.61 66.42 34.96 68.20 34.28 70.72 C 33.05 69.94 31.76 69.26 30.44 68.65 C 28.26 67.43 26.19 65.86 25.18 63.48 Z" />
</g>
<g id="#a289afff">
<path fill="#a289af" opacity="1.00" d=" M 155.98 63.85 C 159.09 65.14 162.28 66.25 165.33 67.70 C 166.52 68.95 167.45 70.42 168.43 71.83 C 168.24 72.65 167.85 74.28 167.66 75.09 C 162.34 74.76 161.79 67.42 156.81 65.92 C 156.60 65.40 156.19 64.37 155.98 63.85 Z" />
</g>
<g id="#a4a5e2ff">
<path fill="#a4a5e2" opacity="1.00" d=" M 200.28 63.76 C 201.04 64.61 201.83 65.44 202.49 66.38 C 202.51 69.63 202.24 72.91 203.06 76.10 C 201.60 78.98 200.24 81.93 198.28 84.52 C 197.31 80.96 193.72 79.76 190.66 78.54 L 189.92 77.47 C 190.61 77.47 191.97 77.46 192.66 77.45 C 194.17 76.13 195.30 74.49 195.60 72.47 C 197.10 69.53 198.82 66.71 200.28 63.76 Z" />
</g>
<g id="#817398ff">
<path fill="#817398" opacity="1.00" d=" M 31.01 64.90 C 31.80 64.94 33.37 65.02 34.16 65.05 C 36.27 66.20 37.10 68.16 36.63 70.49 C 39.03 73.07 40.35 76.36 42.01 79.42 C 41.07 80.79 39.81 81.87 38.26 82.50 C 38.68 79.14 39.61 74.92 36.30 72.67 C 35.64 72.00 34.98 71.34 34.28 70.72 C 34.96 68.20 32.61 66.42 31.01 64.90 Z" />
</g>
<g id="#8a85c2ff">
<path fill="#8a85c2" opacity="1.00" d=" M 34.16 65.05 C 36.63 65.10 39.09 64.87 41.54 64.64 C 45.04 68.85 44.74 74.90 42.01 79.42 C 40.35 76.36 39.03 73.07 36.63 70.49 C 37.10 68.16 36.27 66.20 34.16 65.05 Z" />
</g>
<g id="#8380c5ff">
<path fill="#8380c5" opacity="1.00" d=" M 45.58 65.79 C 49.17 66.47 51.78 69.62 55.51 69.77 C 58.11 74.26 56.39 79.42 54.06 83.60 C 53.17 80.35 52.90 76.84 50.93 74.00 C 49.26 75.54 48.12 79.07 45.31 78.12 C 47.03 74.18 46.10 69.87 45.58 65.79 Z" />
</g>
<g id="#5c518eff">
<path fill="#5c518e" opacity="1.00" d=" M 186.12 67.15 C 186.63 66.84 187.65 66.22 188.16 65.91 C 188.29 66.51 188.55 67.72 188.68 68.32 C 189.93 68.83 191.19 69.31 192.44 69.81 C 193.04 71.84 192.48 73.67 190.94 75.09 C 189.97 74.34 188.89 73.73 187.93 72.97 C 187.61 71.61 187.32 70.25 186.91 68.92 C 186.72 68.48 186.32 67.59 186.12 67.15 Z" />
</g>
<g id="#6d6178f1">
<path fill="#6d6178" opacity="0.95" d=" M 10.98 69.12 C 11.86 68.47 12.72 67.81 13.61 67.19 C 15.20 67.85 16.83 68.49 18.16 69.60 C 17.25 70.77 16.33 71.94 15.43 73.12 C 14.88 72.34 14.31 71.58 13.72 70.84 C 12.81 70.25 11.90 69.68 10.98 69.12 Z" />
</g>
<g id="#8f92e3ff">
<path fill="#8f92e3" opacity="1.00" d=" M 133.85 69.78 C 137.45 67.06 142.09 69.21 145.84 66.99 C 146.16 67.44 146.79 68.32 147.11 68.76 C 146.84 69.03 146.31 69.57 146.04 69.84 C 143.88 72.79 144.80 76.58 144.04 79.94 C 143.05 84.10 143.37 88.39 142.88 92.61 C 141.22 90.01 141.73 86.84 141.19 83.95 C 140.06 80.18 138.97 76.41 137.95 72.61 C 137.59 71.82 137.23 71.03 136.85 70.25 C 136.10 70.13 134.60 69.90 133.85 69.78 Z" />
</g>
<g id="#4b446fff">
<path fill="#4b446f" opacity="1.00" d=" M 147.11 68.76 C 148.64 68.51 150.18 68.36 151.72 68.19 C 151.68 75.01 153.32 81.68 153.97 88.44 C 154.01 88.80 154.10 89.52 154.15 89.88 C 153.83 94.29 155.16 99.00 153.14 103.15 C 153.74 97.05 153.26 90.91 152.45 84.86 C 151.72 79.89 151.03 74.90 151.00 69.86 C 149.35 69.85 147.69 69.85 146.04 69.84 C 146.31 69.57 146.84 69.03 147.11 68.76 Z" />
</g>
<g id="#a9b0f8ff">
<path fill="#a9b0f8" opacity="1.00" d=" M 19.32 70.93 C 20.59 67.42 25.01 68.76 27.83 68.95 C 30.26 70.17 32.21 72.08 33.03 74.71 C 29.78 77.09 25.85 77.93 21.89 78.08 C 21.10 75.67 20.29 73.27 19.32 70.93 Z" />
</g>
<g id="#9c9bd5ff">
<path fill="#9c9bd5" opacity="1.00" d=" M 27.83 68.95 C 28.48 68.87 29.79 68.72 30.44 68.65 C 31.76 69.26 33.05 69.94 34.28 70.72 C 34.98 71.34 35.64 72.00 36.30 72.67 C 36.54 74.51 38.68 77.19 36.48 78.51 C 32.45 81.14 27.23 78.93 22.89 80.85 C 22.68 80.27 22.26 79.12 22.05 78.54 L 21.89 78.08 C 25.85 77.93 29.78 77.09 33.03 74.71 C 32.21 72.08 30.26 70.17 27.83 68.95 Z" />
</g>
<g id="#4e4568ff">
<path fill="#4e4568" opacity="1.00" d=" M 55.51 69.77 C 56.10 69.51 57.28 68.98 57.87 68.72 C 58.28 68.99 59.09 69.52 59.49 69.78 C 59.89 71.57 60.25 73.38 60.60 75.18 C 60.68 79.34 59.36 83.35 57.57 87.06 C 56.49 88.88 55.27 90.62 54.15 92.42 C 52.06 93.28 49.94 92.84 47.91 92.05 C 47.82 92.29 47.63 92.76 47.54 93.00 C 46.93 91.47 45.99 90.12 44.95 88.86 C 46.95 88.91 48.96 88.73 50.95 88.52 C 52.34 87.12 53.20 85.34 54.06 83.60 C 56.39 79.42 58.11 74.26 55.51 69.77 Z" />
</g>
<g id="#93809fff">
<path fill="#93809f" opacity="1.00" d=" M 76.29 68.89 L 76.95 69.46 L 77.06 70.54 C 77.12 71.08 77.23 72.17 77.29 72.71 C 77.82 72.10 78.35 71.49 78.88 70.88 C 80.37 73.13 81.96 75.36 84.11 77.03 C 82.52 77.14 80.94 77.41 79.41 77.86 C 78.68 78.08 77.96 78.32 77.24 78.56 C 77.03 78.16 76.59 77.35 76.37 76.94 L 75.86 76.04 C 77.15 73.81 76.49 71.28 76.29 68.89 Z" />
</g>
<g id="#a49fd2ff">
<path fill="#a49fd2" opacity="1.00" d=" M 80.40 69.17 C 83.89 69.01 87.42 69.05 90.81 69.99 C 89.13 73.09 93.70 73.60 95.65 74.46 C 94.45 75.04 93.36 75.82 92.49 76.84 C 89.76 77.68 86.90 77.34 84.11 77.03 C 81.96 75.36 80.37 73.13 78.88 70.88 C 79.26 70.46 80.02 69.60 80.40 69.17 Z" />
</g>
<g id="#8f94daff">
<path fill="#8f94da" opacity="1.00" d=" M 181.41 82.08 C 181.77 77.22 183.63 72.55 186.91 68.92 C 187.32 70.25 187.61 71.61 187.93 72.97 C 188.23 74.60 189.05 76.07 189.92 77.47 L 190.66 78.54 C 193.72 79.76 197.31 80.96 198.28 84.52 C 196.81 85.21 195.30 85.78 193.77 86.31 C 190.11 86.77 186.49 85.96 182.97 85.01 C 182.29 84.16 181.07 83.35 181.41 82.08 Z" />
</g>
<g id="#9a8aa4ff">
<path fill="#9a8aa4" opacity="1.00" d=" M 1.64 84.08 C 3.91 78.60 7.09 73.59 10.98 69.12 C 11.90 69.68 12.81 70.25 13.72 70.84 C 10.92 72.64 8.46 74.98 6.78 77.88 C 4.52 80.84 3.22 84.76 4.63 88.39 C 5.25 89.70 6.07 91.61 7.80 91.51 C 11.55 91.62 14.09 88.49 17.18 86.90 C 15.87 89.68 14.51 92.52 12.20 94.62 C 8.90 94.24 5.27 93.62 3.05 90.87 C 1.11 89.14 1.51 86.40 1.64 84.08 Z" />
</g>
<g id="#6e6e9fff">
<path fill="#6e6e9f" opacity="1.00" d=" M 18.16 69.60 C 18.45 69.93 19.03 70.60 19.32 70.93 C 20.29 73.27 21.10 75.67 21.89 78.08 L 22.05 78.54 C 21.29 78.58 20.54 78.65 19.78 78.74 C 19.15 80.88 18.75 83.07 18.28 85.25 C 18.30 84.35 18.33 82.54 18.35 81.64 C 17.73 78.69 16.74 75.83 15.43 73.12 C 16.33 71.94 17.25 70.77 18.16 69.60 Z" />
</g>
<g id="#705f84ff">
<path fill="#705f84" opacity="1.00" d=" M 59.49 69.78 C 62.49 72.20 65.90 74.01 69.03 76.25 C 70.85 78.35 71.96 81.17 71.38 83.98 C 70.52 85.53 69.34 86.87 68.32 88.32 C 68.19 85.32 68.36 82.24 67.58 79.32 C 65.95 76.80 63.51 74.96 61.24 73.04 C 61.08 73.58 60.76 74.65 60.60 75.18 C 60.25 73.38 59.89 71.57 59.49 69.78 Z" />
</g>
<g id="#a8abefff">
<path fill="#a8abef" opacity="1.00" d=" M 90.81 69.99 C 93.35 70.53 95.96 70.64 98.54 70.48 C 103.50 70.01 108.48 69.53 113.47 69.92 C 113.24 70.90 113.00 71.87 112.75 72.84 C 106.29 75.34 99.41 76.68 92.49 76.84 C 93.36 75.82 94.45 75.04 95.65 74.46 C 93.70 73.60 89.13 73.09 90.81 69.99 Z" />
</g>
<g id="#575385ff">
<path fill="#575385" opacity="1.00" d=" M 128.92 71.73 C 130.60 71.19 132.24 70.52 133.85 69.78 C 134.60 69.90 136.10 70.13 136.85 70.25 C 137.23 71.03 137.59 71.82 137.95 72.61 C 136.62 73.01 135.31 73.49 134.02 74.03 C 132.33 73.25 130.63 72.48 128.92 71.73 Z" />
</g>
<g id="#161122ff">
<path fill="#161122" opacity="1.00" d=" M 144.04 79.94 C 144.80 76.58 143.88 72.79 146.04 69.84 C 147.69 69.85 149.35 69.85 151.00 69.86 C 151.03 74.90 151.72 79.89 152.45 84.86 C 151.75 85.43 151.06 86.01 150.39 86.61 C 150.19 86.29 149.80 85.67 149.60 85.35 C 147.87 88.24 144.48 90.38 144.31 94.00 C 144.08 96.53 143.96 99.13 144.49 101.64 C 146.17 104.01 149.13 105.03 151.50 106.54 C 151.36 106.87 151.06 107.53 150.91 107.86 C 150.47 108.79 150.03 109.72 149.59 110.66 C 148.48 110.64 147.37 110.71 146.26 110.70 C 147.98 110.90 148.48 109.25 149.23 108.06 C 147.23 106.46 145.19 104.91 143.03 103.53 C 142.82 101.95 142.66 100.36 142.58 98.77 C 142.72 96.72 142.82 94.67 142.88 92.61 C 143.37 88.39 143.05 84.10 144.04 79.94 Z" />
</g>
<g id="#a6a8e6ff">
<path fill="#a6a8e6" opacity="1.00" d=" M 6.78 77.88 C 8.46 74.98 10.92 72.64 13.72 70.84 C 14.31 71.58 14.88 72.34 15.43 73.12 C 16.74 75.83 17.73 78.69 18.35 81.64 C 15.66 83.98 12.78 86.28 9.11 86.72 C 6.96 84.24 5.89 81.13 6.78 77.88 Z" />
</g>
<g id="#655a7aff">
<path fill="#655a7a" opacity="1.00" d=" M 203.06 76.10 C 203.92 74.58 204.89 73.12 205.91 71.70 C 206.43 73.46 206.88 75.26 206.76 77.11 C 202.10 80.41 202.64 88.88 195.92 89.50 C 195.19 88.45 194.47 87.38 193.77 86.31 C 195.30 85.78 196.81 85.21 198.28 84.52 C 200.24 81.93 201.60 78.98 203.06 76.10 Z" />
</g>
<g id="#9889acff">
<path fill="#9889ac" opacity="1.00" d=" M 36.30 72.67 C 39.61 74.92 38.68 79.14 38.26 82.50 C 36.50 82.81 34.71 82.99 32.94 83.25 C 32.07 83.59 31.18 83.88 30.30 84.18 C 29.98 83.84 29.34 83.17 29.02 82.83 C 27.15 82.67 25.28 82.50 23.43 82.23 L 22.89 80.85 C 27.23 78.93 32.45 81.14 36.48 78.51 C 38.68 77.19 36.54 74.51 36.30 72.67 Z" />
</g>
<g id="#7471b8ff">
<path fill="#7471b8" opacity="1.00" d=" M 61.24 73.04 C 63.51 74.96 65.95 76.80 67.58 79.32 C 68.36 82.24 68.19 85.32 68.32 88.32 C 68.09 88.78 67.62 89.69 67.39 90.15 C 64.30 88.44 60.45 89.24 57.57 87.06 C 59.36 83.35 60.68 79.34 60.60 75.18 C 60.76 74.65 61.08 73.58 61.24 73.04 Z" />
</g>
<g id="#191327ff">
<path fill="#191327" opacity="1.00" d=" M 134.02 74.03 C 135.31 73.49 136.62 73.01 137.95 72.61 C 138.97 76.41 140.06 80.18 141.19 83.95 C 141.38 89.88 140.79 95.82 140.18 101.72 C 139.82 101.58 139.10 101.30 138.74 101.17 C 132.94 99.03 126.89 97.61 120.79 96.64 C 121.36 96.28 122.49 95.58 123.06 95.23 C 115.93 94.94 108.64 94.47 101.59 95.55 L 101.06 96.81 C 93.86 98.27 87.00 101.66 81.88 107.00 L 80.58 106.95 C 81.68 104.69 83.51 102.94 85.43 101.36 C 83.76 95.78 83.01 89.96 81.75 84.28 C 81.37 83.94 80.63 83.25 80.25 82.90 C 79.27 87.96 79.60 93.11 80.50 98.14 C 80.47 102.17 78.70 105.96 77.69 109.82 C 77.40 109.33 76.82 108.36 76.53 107.87 C 77.74 104.27 79.11 100.48 78.47 96.62 C 77.83 92.40 77.56 88.11 77.86 83.84 C 77.97 83.41 78.19 82.56 78.30 82.13 C 78.51 81.61 78.93 80.56 79.14 80.04 C 83.16 80.21 86.93 82.03 90.99 81.85 C 96.10 81.76 100.96 79.88 106.05 79.53 C 113.51 78.22 120.81 76.08 128.08 73.95 C 130.04 73.35 132.09 74.88 134.02 74.03 Z" />
</g>
<g id="#837497ff">
<path fill="#837497" opacity="1.00" d=" M 45.31 78.12 C 48.12 79.07 49.26 75.54 50.93 74.00 C 52.90 76.84 53.17 80.35 54.06 83.60 C 53.20 85.34 52.34 87.12 50.95 88.52 C 50.36 87.83 49.88 87.08 49.50 86.28 C 50.50 83.50 51.98 80.87 52.29 77.88 C 48.78 78.83 47.70 83.66 43.52 83.02 C 44.04 81.36 44.67 79.74 45.31 78.12 Z" />
</g>
<g id="#a39cc4ff">
<path fill="#a39cc4" opacity="1.00" d=" M 4.63 88.39 C 3.22 84.76 4.52 80.84 6.78 77.88 C 5.89 81.13 6.96 84.24 9.11 86.72 C 12.78 86.28 15.66 83.98 18.35 81.64 C 18.33 82.54 18.30 84.35 18.28 85.25 L 18.04 86.43 C 17.82 86.55 17.40 86.78 17.18 86.90 C 14.09 88.49 11.55 91.62 7.80 91.51 C 6.07 91.61 5.25 89.70 4.63 88.39 Z" />
</g>
<g id="#54475bff">
<path fill="#54475b" opacity="1.00" d=" M 19.78 78.74 C 20.54 78.65 21.29 78.58 22.05 78.54 C 22.26 79.12 22.68 80.27 22.89 80.85 L 23.43 82.23 C 23.42 83.82 22.68 85.20 21.76 86.45 C 20.50 86.78 19.26 86.78 18.04 86.43 L 18.28 85.25 C 18.75 83.07 19.15 80.88 19.78 78.74 Z" />
</g>
<g id="#65597bfd">
<path fill="#65597b" opacity="1.00" d=" M 43.52 83.02 C 47.70 83.66 48.78 78.83 52.29 77.88 C 51.98 80.87 50.50 83.50 49.50 86.28 C 49.88 87.08 50.36 87.83 50.95 88.52 C 48.96 88.73 46.95 88.91 44.95 88.86 C 44.13 88.39 43.33 87.87 42.57 87.30 C 44.88 86.72 47.01 85.66 48.97 84.33 C 47.03 84.23 45.09 84.17 43.15 84.10 C 43.24 83.83 43.42 83.29 43.52 83.02 Z" />
</g>
<g id="#a898b4ff">
<path fill="#a898b4" opacity="1.00" d=" M 195.92 89.50 C 202.64 88.88 202.10 80.41 206.76 77.11 C 206.68 80.97 206.75 84.82 206.60 88.68 C 205.61 87.82 204.63 86.94 203.68 86.04 C 202.45 87.47 199.66 88.82 200.64 91.09 C 201.66 94.12 204.72 95.47 207.57 96.21 C 207.71 99.05 208.73 101.75 208.97 104.58 C 207.62 105.87 206.28 107.16 204.96 108.48 C 201.89 106.77 198.48 105.73 194.95 105.87 C 196.61 105.48 198.29 105.19 199.97 104.87 C 200.05 99.93 201.39 94.60 199.03 89.98 C 198.35 89.97 197.01 89.93 196.34 89.92 L 195.92 89.50 Z" />
</g>
<g id="#675b7eff">
<path fill="#675b7e" opacity="1.00" d=" M 74.36 88.24 C 76.87 85.94 73.85 80.26 78.09 79.61 C 78.14 80.24 78.25 81.50 78.30 82.13 C 78.19 82.56 77.97 83.41 77.86 83.84 C 76.68 87.41 77.61 91.28 76.59 94.85 C 75.03 98.58 73.70 102.40 71.99 106.07 C 71.93 104.77 71.86 103.49 71.77 102.20 C 67.20 105.85 60.51 109.56 54.88 105.98 C 54.98 105.58 55.18 104.77 55.28 104.36 C 56.76 104.53 58.24 104.72 59.72 104.94 C 59.95 103.77 60.18 102.60 60.42 101.44 C 65.24 97.25 69.85 92.77 74.36 88.24 Z" />
<path fill="#675b7e" opacity="1.00" d=" M 7.14 96.03 C 1.63 95.25 -0.52 88.73 1.64 84.08 C 1.51 86.40 1.11 89.14 3.05 90.87 C 5.27 93.62 8.90 94.24 12.20 94.62 C 10.51 95.10 8.83 95.58 7.14 96.03 Z" />
</g>
<g id="#6b5f8eff">
<path fill="#6b5f8e" opacity="1.00" d=" M 23.43 82.23 C 25.28 82.50 27.15 82.67 29.02 82.83 C 29.34 83.17 29.98 83.84 30.30 84.18 C 31.18 83.88 32.07 83.59 32.94 83.25 L 32.75 83.55 C 31.01 86.49 30.01 89.79 29.18 93.08 C 28.72 93.48 27.82 94.26 27.36 94.66 C 26.69 93.83 25.93 93.08 25.14 92.37 C 26.32 90.77 28.82 89.43 28.06 87.12 C 26.55 85.31 24.31 86.75 22.49 87.02 L 21.34 87.32 L 21.76 86.45 C 22.68 85.20 23.42 83.82 23.43 82.23 Z" />
</g>
<g id="#282433ff">
<path fill="#282433" opacity="1.00" d=" M 80.25 82.90 C 80.63 83.25 81.37 83.94 81.75 84.28 C 83.01 89.96 83.76 95.78 85.43 101.36 C 83.51 102.94 81.68 104.69 80.58 106.95 L 81.88 107.00 C 81.09 108.67 80.42 110.39 79.73 112.11 C 79.29 112.39 78.42 112.94 77.99 113.22 C 74.36 114.01 75.75 109.80 76.53 107.87 C 76.82 108.36 77.40 109.33 77.69 109.82 C 78.70 105.96 80.47 102.17 80.50 98.14 C 79.60 93.11 79.27 87.96 80.25 82.90 Z" />
<path fill="#282433" opacity="1.00" d=" M 29.18 93.08 C 30.01 89.79 31.01 86.49 32.75 83.55 C 33.30 88.77 31.65 94.02 29.62 98.82 C 28.28 98.84 26.90 98.77 25.78 97.95 C 26.43 97.56 27.73 96.78 28.38 96.39 C 28.64 95.29 28.91 94.18 29.18 93.08 Z" />
</g>
<g id="#5d5077ff">
<path fill="#5d5077" opacity="1.00" d=" M 76.59 94.85 C 77.61 91.28 76.68 87.41 77.86 83.84 C 77.56 88.11 77.83 92.40 78.47 96.62 C 79.11 100.48 77.74 104.27 76.53 107.87 C 75.75 109.80 74.36 114.01 77.99 113.22 C 77.15 113.81 76.32 114.40 75.50 115.02 C 76.74 115.82 77.97 116.64 79.21 117.45 C 78.23 117.28 77.26 117.12 76.28 116.96 C 76.39 117.51 76.60 118.59 76.70 119.14 C 76.43 119.62 75.90 120.58 75.64 121.06 C 74.45 120.69 73.25 120.33 72.07 119.93 C 70.04 115.57 69.41 110.36 71.99 106.07 C 73.70 102.40 75.03 98.58 76.59 94.85 Z" />
</g>
<g id="#8f8ab1ff">
<path fill="#8f8ab1" opacity="1.00" d=" M 141.19 83.95 C 141.73 86.84 141.22 90.01 142.88 92.61 C 142.82 94.67 142.72 96.72 142.58 98.77 C 141.63 103.51 140.72 108.66 143.25 113.10 C 142.04 113.45 140.82 113.79 139.61 114.15 C 140.53 112.30 140.59 110.22 139.68 108.34 C 139.46 106.26 137.09 106.64 135.61 106.23 C 129.38 105.27 122.51 103.59 116.55 106.41 C 111.79 104.76 106.80 104.15 101.79 104.04 C 100.44 103.83 99.08 103.65 97.72 103.56 C 97.66 103.22 97.53 102.53 97.46 102.19 C 103.46 100.42 109.76 99.53 116.00 100.24 C 123.52 101.13 131.16 102.15 138.13 105.28 C 138.80 104.08 139.52 102.92 140.18 101.72 C 140.79 95.82 141.38 89.88 141.19 83.95 Z" />
</g>
<g id="#1c172bff">
<path fill="#1c172b" opacity="1.00" d=" M 144.31 94.00 C 144.48 90.38 147.87 88.24 149.60 85.35 C 149.80 85.67 150.19 86.29 150.39 86.61 C 151.06 86.01 151.75 85.43 152.45 84.86 C 153.26 90.91 153.74 97.05 153.14 103.15 C 152.63 104.30 152.05 105.41 151.50 106.54 C 149.13 105.03 146.17 104.01 144.49 101.64 C 143.96 99.13 144.08 96.53 144.31 94.00 Z" />
</g>
<g id="#9492cfff">
<path fill="#9492cf" opacity="1.00" d=" M 180.02 85.68 C 180.36 85.70 181.03 85.73 181.36 85.75 C 179.56 89.32 178.26 93.10 176.73 96.79 C 175.72 98.98 176.67 101.43 177.39 103.57 C 179.35 103.70 181.19 102.47 183.10 102.05 C 183.14 102.71 183.23 104.01 183.27 104.66 C 182.64 107.06 182.15 109.53 182.46 112.02 C 179.74 113.02 176.86 113.49 173.97 113.47 C 170.43 113.34 166.68 115.33 163.43 113.22 C 164.78 112.00 166.13 110.79 167.50 109.61 C 168.27 105.74 168.60 101.44 171.41 98.40 C 174.83 94.55 176.90 89.75 180.02 85.68 Z" />
</g>
<g id="#666593ff">
<path fill="#666593" opacity="1.00" d=" M 181.73 85.57 C 182.04 85.43 182.66 85.15 182.97 85.01 C 186.49 85.96 190.11 86.77 193.77 86.31 C 194.47 87.38 195.19 88.45 195.92 89.50 L 196.34 89.92 C 192.29 90.18 188.15 89.71 184.72 87.36 C 183.71 86.80 182.72 86.17 181.73 85.57 Z" />
</g>
<g id="#514777ff">
<path fill="#514777" opacity="1.00" d=" M 22.49 87.02 C 24.31 86.75 26.55 85.31 28.06 87.12 C 28.82 89.43 26.32 90.77 25.14 92.37 C 25.93 93.08 26.69 93.83 27.36 94.66 C 27.82 94.26 28.72 93.48 29.18 93.08 C 28.91 94.18 28.64 95.29 28.38 96.39 C 27.73 96.78 26.43 97.56 25.78 97.95 C 24.55 94.35 23.59 90.66 22.49 87.02 Z" />
</g>
<g id="#9497e2ff">
<path fill="#9497e2" opacity="1.00" d=" M 181.36 85.75 L 181.73 85.57 C 182.72 86.17 183.71 86.80 184.72 87.36 C 184.71 90.73 185.04 94.08 185.37 97.42 C 189.89 98.34 190.58 103.11 192.05 106.73 C 191.37 107.02 190.70 107.32 190.03 107.62 C 194.01 107.52 198.56 106.99 201.65 110.09 C 200.02 110.42 198.38 110.67 196.74 110.88 C 193.17 109.96 189.32 109.43 186.21 111.86 C 185.20 108.80 184.88 105.59 184.54 102.40 C 184.18 102.31 183.46 102.14 183.10 102.05 C 181.19 102.47 179.35 103.70 177.39 103.57 C 176.67 101.43 175.72 98.98 176.73 96.79 C 178.26 93.10 179.56 89.32 181.36 85.75 Z" />
</g>
<g id="#8c7e94ff">
<path fill="#8c7e94" opacity="1.00" d=" M 200.64 91.09 C 199.66 88.82 202.45 87.47 203.68 86.04 C 204.63 86.94 205.61 87.82 206.60 88.68 L 207.16 89.15 C 207.20 91.51 207.11 93.88 207.57 96.21 C 204.72 95.47 201.66 94.12 200.64 91.09 Z" />
</g>
<g id="#766991ff">
<path fill="#766991" opacity="1.00" d=" M 54.15 92.42 C 55.27 90.62 56.49 88.88 57.57 87.06 C 60.45 89.24 64.30 88.44 67.39 90.15 C 64.50 93.04 60.53 94.40 57.08 96.48 C 56.12 95.11 55.14 93.77 54.15 92.42 Z" />
</g>
<g id="#a5a9efff">
<path fill="#a5a9ef" opacity="1.00" d=" M 185.37 97.42 C 185.04 94.08 184.71 90.73 184.72 87.36 C 188.15 89.71 192.29 90.18 196.34 89.92 C 197.01 89.93 198.35 89.97 199.03 89.98 C 201.39 94.60 200.05 99.93 199.97 104.87 C 198.29 105.19 196.61 105.48 194.95 105.87 C 194.22 106.08 192.78 106.51 192.05 106.73 C 190.58 103.11 189.89 98.34 185.37 97.42 Z" />
</g>
<g id="#7c759dff">
<path fill="#7c759d" opacity="1.00" d=" M 154.15 89.88 C 154.47 91.16 154.84 92.42 155.21 93.69 C 156.11 93.22 157.02 92.75 157.93 92.28 C 159.26 93.97 160.83 95.70 160.87 97.98 C 161.18 102.99 159.96 108.58 156.09 112.06 C 156.53 112.81 156.97 113.56 157.40 114.31 C 156.56 116.04 156.12 117.88 156.34 119.81 C 152.14 120.56 148.31 122.76 144.00 122.95 C 142.20 123.11 140.45 123.60 138.72 124.09 C 138.13 124.00 136.96 123.81 136.37 123.72 C 133.25 122.86 130.01 122.41 126.77 122.74 C 132.27 121.63 137.79 120.61 143.25 119.32 C 140.42 117.81 137.11 119.06 134.07 118.61 C 126.87 117.81 119.62 118.78 112.41 118.06 C 108.86 117.29 105.41 116.15 101.99 114.96 C 98.99 113.55 95.98 115.63 93.09 116.32 C 92.75 116.15 92.07 115.79 91.73 115.61 C 91.69 114.89 91.67 114.16 91.67 113.44 C 88.84 114.29 85.92 114.80 82.97 114.71 C 83.65 113.00 84.00 111.18 84.50 109.41 C 85.56 108.57 86.61 107.72 87.73 106.97 C 89.45 106.16 91.23 105.47 93.02 104.84 C 93.20 105.32 93.55 106.26 93.72 106.73 C 93.11 106.93 91.88 107.32 91.27 107.51 C 93.87 109.16 96.79 110.73 99.99 110.05 C 105.60 108.98 111.38 109.06 117.02 109.82 C 122.86 111.45 128.19 114.69 134.17 115.86 C 138.35 116.58 142.59 115.72 146.50 114.23 C 147.95 113.58 149.86 113.25 150.57 111.63 C 150.72 110.38 150.83 109.12 150.91 107.86 C 151.06 107.53 151.36 106.87 151.50 106.54 C 152.05 105.41 152.63 104.30 153.14 103.15 C 155.16 99.00 153.83 94.29 154.15 89.88 Z" />
</g>
<g id="#605178ff">
<path fill="#605178" opacity="1.00" d=" M 47.91 92.05 C 49.94 92.84 52.06 93.28 54.15 92.42 C 55.14 93.77 56.12 95.11 57.08 96.48 C 56.76 97.54 56.35 98.58 56.02 99.65 C 54.56 99.32 53.09 98.99 51.63 98.67 C 51.67 100.85 51.69 103.03 51.77 105.22 C 50.73 104.03 51.23 102.34 50.95 100.93 C 50.76 97.95 48.61 95.66 47.54 93.00 C 47.63 92.76 47.82 92.29 47.91 92.05 Z" />
</g>
<g id="#02010dff">
<path fill="#02010d" opacity="1.00" d=" M 101.59 95.55 C 108.64 94.47 115.93 94.94 123.06 95.23 C 122.49 95.58 121.36 96.28 120.79 96.64 C 114.23 96.30 107.61 96.21 101.06 96.81 L 101.59 95.55 Z" />
</g>
<g id="#b0adceff">
<path fill="#b0adce" opacity="1.00" d=" M 101.06 96.81 C 107.61 96.21 114.23 96.30 120.79 96.64 C 126.89 97.61 132.94 99.03 138.74 101.17 C 137.64 102.18 136.42 102.44 135.07 101.92 C 127.68 99.38 119.83 97.92 112.00 98.27 C 103.39 97.83 94.69 100.45 87.49 105.10 C 87.55 105.56 87.67 106.50 87.73 106.97 C 86.61 107.72 85.56 108.57 84.50 109.41 C 82.92 110.33 81.30 111.18 79.73 112.11 C 80.42 110.39 81.09 108.67 81.88 107.00 C 87.00 101.66 93.86 98.27 101.06 96.81 Z" />
</g>
<g id="#9f9abfff">
<path fill="#9f9abf" opacity="1.00" d=" M 87.49 105.10 C 94.69 100.45 103.39 97.83 112.00 98.27 C 119.83 97.92 127.68 99.38 135.07 101.92 C 136.42 102.44 137.64 102.18 138.74 101.17 C 139.10 101.30 139.82 101.58 140.18 101.72 C 139.52 102.92 138.80 104.08 138.13 105.28 C 131.16 102.15 123.52 101.13 116.00 100.24 C 109.76 99.53 103.46 100.42 97.46 102.19 C 97.53 102.53 97.66 103.22 97.72 103.56 C 96.14 103.93 94.57 104.35 93.02 104.84 C 91.23 105.47 89.45 106.16 87.73 106.97 C 87.67 106.50 87.55 105.56 87.49 105.10 Z" />
</g>
<g id="#4f4668ff">
<path fill="#4f4668" opacity="1.00" d=" M 143.25 113.10 C 140.72 108.66 141.63 103.51 142.58 98.77 C 142.66 100.36 142.82 101.95 143.03 103.53 C 143.63 106.11 144.93 108.44 146.26 110.70 C 147.37 110.71 148.48 110.64 149.59 110.66 C 150.03 109.72 150.47 108.79 150.91 107.86 C 150.83 109.12 150.72 110.38 150.57 111.63 C 149.86 113.25 147.95 113.58 146.50 114.23 C 145.42 113.84 144.33 113.47 143.25 113.10 Z" />
</g>
<g id="#4f4465ff">
<path fill="#4f4465" opacity="1.00" d=" M 54.04 100.92 C 56.17 101.06 58.30 101.22 60.42 101.44 C 60.18 102.60 59.95 103.77 59.72 104.94 C 58.24 104.72 56.76 104.53 55.28 104.36 C 55.18 104.77 54.98 105.58 54.88 105.98 C 54.79 106.35 54.61 107.07 54.52 107.43 L 54.25 106.32 C 54.10 104.53 54.06 102.72 54.04 100.92 Z" />
</g>
<g id="#7e7398ff">
<path fill="#7e7398" opacity="1.00" d=" M 54.88 105.98 C 60.51 109.56 67.20 105.85 71.77 102.20 C 71.86 103.49 71.93 104.77 71.99 106.07 C 69.41 110.36 70.04 115.57 72.07 119.93 C 69.79 118.90 69.41 116.27 68.54 114.19 C 66.96 115.63 65.45 117.15 63.88 118.61 C 62.70 119.10 61.50 119.53 60.30 119.96 C 60.71 119.12 61.13 118.28 61.54 117.44 C 57.71 117.21 54.54 115.16 52.32 112.10 C 53.23 110.64 54.22 109.17 54.52 107.43 C 54.61 107.07 54.79 106.35 54.88 105.98 Z" />
</g>
<g id="#7573b8ff">
<path fill="#7573b8" opacity="1.00" d=" M 183.10 102.05 C 183.46 102.14 184.18 102.31 184.54 102.40 C 184.88 105.59 185.20 108.80 186.21 111.86 C 189.32 109.43 193.17 109.96 196.74 110.88 C 197.57 114.74 200.87 117.89 200.18 122.05 C 197.74 118.90 197.39 114.27 194.20 111.76 C 191.51 109.68 190.07 113.40 188.79 115.18 C 183.29 115.20 184.19 108.40 183.27 104.66 C 183.23 104.01 183.14 102.71 183.10 102.05 Z" />
</g>
<g id="#847ca9ff">
<path fill="#847ca9" opacity="1.00" d=" M 97.72 103.56 C 99.08 103.65 100.44 103.83 101.79 104.04 C 107.30 105.60 113.01 106.45 118.43 108.33 C 123.47 110.11 128.61 111.64 133.85 112.69 C 135.16 112.85 135.45 111.14 136.23 110.40 C 134.78 110.84 133.34 111.93 131.77 111.31 C 126.62 109.95 121.71 107.79 116.55 106.41 C 122.51 103.59 129.38 105.27 135.61 106.23 C 137.09 106.64 139.46 106.26 139.68 108.34 C 140.59 110.22 140.53 112.30 139.61 114.15 C 140.82 113.79 142.04 113.45 143.25 113.10 C 144.33 113.47 145.42 113.84 146.50 114.23 C 142.59 115.72 138.35 116.58 134.17 115.86 C 128.19 114.69 122.86 111.45 117.02 109.82 C 111.38 109.06 105.60 108.98 99.99 110.05 C 96.79 110.73 93.87 109.16 91.27 107.51 C 91.88 107.32 93.11 106.93 93.72 106.73 C 93.55 106.26 93.20 105.32 93.02 104.84 C 94.57 104.35 96.14 103.93 97.72 103.56 Z" />
</g>
<g id="#484263ff">
<path fill="#484263" opacity="1.00" d=" M 101.79 104.04 C 106.80 104.15 111.79 104.76 116.55 106.41 C 121.71 107.79 126.62 109.95 131.77 111.31 C 133.34 111.93 134.78 110.84 136.23 110.40 C 135.45 111.14 135.16 112.85 133.85 112.69 C 128.61 111.64 123.47 110.11 118.43 108.33 C 113.01 106.45 107.30 105.60 101.79 104.04 Z" />
<path fill="#484263" opacity="1.00" d=" M 22.43 148.20 L 23.20 148.36 C 27.49 149.71 31.92 148.54 36.24 148.05 C 37.70 148.52 39.22 148.81 40.76 148.74 C 43.92 151.95 48.28 152.88 52.64 152.94 C 57.04 154.74 61.93 153.07 66.37 154.68 C 69.77 155.86 73.31 156.53 76.86 157.04 C 78.38 157.10 79.16 158.60 80.20 159.47 C 74.88 158.14 69.41 158.75 64.00 158.56 C 56.81 157.66 49.17 158.91 42.39 155.78 C 37.26 155.58 32.12 155.28 27.07 154.21 C 25.40 152.30 23.63 150.45 22.43 148.20 Z" />
</g>
<g id="#564a5dff">
<path fill="#564a5d" opacity="1.00" d=" M 183.27 104.66 C 184.19 108.40 183.29 115.20 188.79 115.18 C 190.07 113.40 191.51 109.68 194.20 111.76 C 197.39 114.27 197.74 118.90 200.18 122.05 C 201.35 123.19 202.75 123.84 204.39 123.58 C 204.65 121.34 204.30 118.74 206.00 116.97 C 207.74 115.06 208.74 112.68 209.32 110.18 C 209.51 109.98 209.89 109.56 210.07 109.35 L 210.85 108.90 C 211.20 110.16 211.55 111.44 211.74 112.74 C 211.04 115.52 208.87 117.36 206.88 119.23 C 206.96 119.53 207.12 120.13 207.21 120.43 C 209.83 120.77 212.49 120.77 215.13 121.07 C 216.58 121.23 218.04 121.39 219.50 121.56 L 219.25 120.39 C 220.65 120.86 221.85 121.72 222.91 122.73 C 217.82 122.36 212.75 123.23 207.70 123.71 L 207.00 124.22 C 204.20 127.63 200.31 123.06 196.94 125.28 C 194.89 126.20 192.96 127.35 191.04 128.50 C 188.89 129.74 186.50 130.48 184.09 131.05 C 186.08 129.63 187.97 128.05 189.49 126.12 C 190.12 125.41 190.76 124.71 191.42 124.03 C 193.33 122.87 195.39 121.96 197.41 120.98 C 196.03 119.31 194.95 117.01 192.72 116.39 C 190.20 116.38 187.71 116.84 185.22 117.11 C 184.72 116.37 184.24 115.62 183.78 114.87 C 183.31 113.93 182.87 112.98 182.46 112.02 C 182.15 109.53 182.64 107.06 183.27 104.66 Z" />
</g>
<g id="#645465ff">
<path fill="#645465" opacity="1.00" d=" M 204.96 108.48 C 206.28 107.16 207.62 105.87 208.97 104.58 C 209.41 106.15 209.82 107.74 210.07 109.35 C 209.89 109.56 209.51 109.98 209.32 110.18 L 209.06 108.93 C 207.69 110.09 206.31 111.25 204.98 112.44 C 203.87 111.65 202.74 110.90 201.65 110.09 C 198.56 106.99 194.01 107.52 190.03 107.62 C 190.70 107.32 191.37 107.02 192.05 106.73 C 192.78 106.51 194.22 106.08 194.95 105.87 C 198.48 105.73 201.89 106.77 204.96 108.48 Z" />
</g>
<g id="#8d81aeff">
<path fill="#8d81ae" opacity="1.00" d=" M 204.98 112.44 C 206.31 111.25 207.69 110.09 209.06 108.93 L 209.32 110.18 C 208.74 112.68 207.74 115.06 206.00 116.97 C 204.30 118.74 204.65 121.34 204.39 123.58 C 202.75 123.84 201.35 123.19 200.18 122.05 C 200.87 117.89 197.57 114.74 196.74 110.88 C 198.38 110.67 200.02 110.42 201.65 110.09 C 202.74 110.90 203.87 111.65 204.98 112.44 Z" />
</g>
<g id="#796b86ff">
<path fill="#796b86" opacity="1.00" d=" M 79.73 112.11 C 81.30 111.18 82.92 110.33 84.50 109.41 C 84.00 111.18 83.65 113.00 82.97 114.71 C 85.92 114.80 88.84 114.29 91.67 113.44 C 91.67 114.16 91.69 114.89 91.73 115.61 C 92.07 115.79 92.75 116.15 93.09 116.32 C 87.79 118.05 82.25 118.85 76.70 119.14 C 76.60 118.59 76.39 117.51 76.28 116.96 C 77.26 117.12 78.23 117.28 79.21 117.45 C 77.97 116.64 76.74 115.82 75.50 115.02 C 76.32 114.40 77.15 113.81 77.99 113.22 C 78.42 112.94 79.29 112.39 79.73 112.11 Z" />
</g>
<g id="#666184ff">
<path fill="#666184" opacity="1.00" d=" M 49.25 115.22 C 50.29 114.19 51.30 113.15 52.32 112.10 C 54.54 115.16 57.71 117.21 61.54 117.44 C 61.13 118.28 60.71 119.12 60.30 119.96 C 61.50 119.53 62.70 119.10 63.88 118.61 C 65.60 119.64 67.22 120.87 68.16 122.68 C 67.17 122.23 66.18 121.77 65.19 121.31 C 61.41 119.56 57.21 122.00 53.26 121.95 C 54.47 121.16 55.70 120.41 56.94 119.67 C 53.98 118.99 50.78 118.14 49.25 115.22 Z" />
</g>
<g id="#928099ff">
<path fill="#928099" opacity="1.00" d=" M 206.88 119.23 C 208.87 117.36 211.04 115.52 211.74 112.74 C 213.04 114.02 214.33 115.31 215.61 116.62 C 214.38 117.56 213.17 118.51 211.98 119.49 C 213.03 120.00 214.08 120.52 215.13 121.07 C 212.49 120.77 209.83 120.77 207.21 120.43 C 207.12 120.13 206.96 119.53 206.88 119.23 Z" />
</g>
<g id="#9687a2ff">
<path fill="#9687a2" opacity="1.00" d=" M 63.88 118.61 C 65.45 117.15 66.96 115.63 68.54 114.19 C 69.41 116.27 69.79 118.90 72.07 119.93 C 73.25 120.33 74.45 120.69 75.64 121.06 C 78.66 121.96 81.72 122.79 84.62 124.03 C 85.36 127.02 87.74 129.15 89.34 131.68 C 91.70 134.69 93.57 138.15 96.57 140.58 C 95.96 141.08 95.36 141.58 94.76 142.09 C 90.15 139.01 87.01 134.21 82.26 131.31 C 82.03 130.82 81.59 129.85 81.36 129.36 C 75.35 127.28 68.16 128.20 63.03 123.90 C 63.75 123.04 64.47 122.17 65.19 121.31 C 66.18 121.77 67.17 122.23 68.16 122.68 C 67.22 120.87 65.60 119.64 63.88 118.61 Z" />
</g>
<g id="#50465aff">
<path fill="#50465a" opacity="1.00" d=" M 93.09 116.32 C 95.98 115.63 98.99 113.55 101.99 114.96 C 105.41 116.15 108.86 117.29 112.41 118.06 C 104.77 121.36 96.13 120.97 88.63 124.59 C 87.29 124.42 85.95 124.23 84.62 124.03 C 81.72 122.79 78.66 121.96 75.64 121.06 C 75.90 120.58 76.43 119.62 76.70 119.14 C 82.25 118.85 87.79 118.05 93.09 116.32 Z" />
</g>
<g id="#48405aff">
<path fill="#48405a" opacity="1.00" d=" M 49.19 115.14 L 49.25 115.22 C 50.78 118.14 53.98 118.99 56.94 119.67 C 55.70 120.41 54.47 121.16 53.26 121.95 C 50.74 121.15 47.70 120.74 46.47 118.03 C 47.47 117.16 48.33 116.15 49.19 115.14 Z" />
</g>
<g id="#847ea4ff">
<path fill="#847ea4" opacity="1.00" d=" M 183.78 114.87 C 184.24 115.62 184.72 116.37 185.22 117.11 C 184.57 117.63 183.91 118.16 183.27 118.69 C 185.90 120.60 187.99 123.52 191.42 124.03 C 190.76 124.71 190.12 125.41 189.49 126.12 C 188.05 126.53 186.61 126.98 185.16 127.35 C 183.20 127.03 180.67 127.55 179.29 125.80 C 177.00 123.51 174.80 121.10 173.21 118.26 C 176.86 117.57 180.64 117.02 183.78 114.87 Z" />
</g>
<g id="#807492ff">
<path fill="#807492" opacity="1.00" d=" M 185.22 117.11 C 187.71 116.84 190.20 116.38 192.72 116.39 C 194.95 117.01 196.03 119.31 197.41 120.98 C 195.39 121.96 193.33 122.87 191.42 124.03 C 187.99 123.52 185.90 120.60 183.27 118.69 C 183.91 118.16 184.57 117.63 185.22 117.11 Z" />
</g>
<g id="#b7a0bcff">
<path fill="#b7a0bc" opacity="1.00" d=" M 215.61 116.62 C 216.79 117.90 218.04 119.13 219.25 120.39 L 219.50 121.56 C 218.04 121.39 216.58 121.23 215.13 121.07 C 214.08 120.52 213.03 120.00 211.98 119.49 C 213.17 118.51 214.38 117.56 215.61 116.62 Z" />
</g>
<g id="#6f6798ff">
<path fill="#6f6798" opacity="1.00" d=" M 36.71 129.96 C 38.75 125.10 42.09 120.98 46.47 118.03 C 47.70 120.74 50.74 121.15 53.26 121.95 C 51.17 124.84 47.93 126.43 45.04 128.35 C 46.98 130.77 49.89 132.44 52.98 132.82 C 55.46 132.72 57.94 132.52 60.42 132.57 C 57.85 134.23 55.08 136.16 55.14 139.56 C 53.00 137.80 50.27 137.80 47.68 138.39 C 45.95 137.95 43.86 137.88 42.72 136.30 C 41.41 134.88 41.83 132.83 41.57 131.09 C 39.95 130.74 38.34 130.31 36.71 129.96 Z" />
</g>
<g id="#5e5472ff">
<path fill="#5e5472" opacity="1.00" d=" M 112.41 118.06 C 119.62 118.78 126.87 117.81 134.07 118.61 C 137.11 119.06 140.42 117.81 143.25 119.32 C 137.79 120.61 132.27 121.63 126.77 122.74 C 123.89 123.18 121.02 123.69 118.19 124.36 C 116.90 124.64 115.61 124.91 114.32 125.21 C 107.58 125.49 100.90 127.48 94.13 126.21 C 92.28 125.72 90.47 125.09 88.63 124.59 C 96.13 120.97 104.77 121.36 112.41 118.06 Z" />
</g>
<g id="#80739bff">
<path fill="#80739b" opacity="1.00" d=" M 53.26 121.95 C 57.21 122.00 61.41 119.56 65.19 121.31 C 64.47 122.17 63.75 123.04 63.03 123.90 C 68.16 128.20 75.35 127.28 81.36 129.36 C 81.59 129.85 82.03 130.82 82.26 131.31 C 78.54 131.55 74.75 131.15 71.12 132.12 C 67.62 130.37 63.91 131.46 60.42 132.57 C 57.94 132.52 55.46 132.72 52.98 132.82 C 49.89 132.44 46.98 130.77 45.04 128.35 C 47.93 126.43 51.17 124.84 53.26 121.95 Z" />
</g>
<g id="#9e9cd3ff">
<path fill="#9e9cd3" opacity="1.00" d=" M 118.19 124.36 C 121.02 123.69 123.89 123.18 126.77 122.74 C 130.01 122.41 133.25 122.86 136.37 123.72 C 132.04 125.07 127.51 125.49 123.01 125.96 C 121.17 126.46 119.50 125.58 118.19 124.36 Z" />
</g>
<g id="#ad9ab4ff">
<path fill="#ad9ab4" opacity="1.00" d=" M 207.70 123.71 C 212.75 123.23 217.82 122.36 222.91 122.73 C 226.11 124.62 227.87 128.19 229.60 131.35 C 224.11 133.81 219.50 129.42 214.92 127.08 C 212.61 125.34 209.77 124.76 207.00 124.22 L 207.70 123.71 Z" />
</g>
<g id="#9995c9ff">
<path fill="#9995c9" opacity="1.00" d=" M 84.62 124.03 C 85.95 124.23 87.29 124.42 88.63 124.59 C 90.47 125.09 92.28 125.72 94.13 126.21 C 93.70 126.46 92.83 126.95 92.40 127.20 C 92.83 127.84 93.26 128.48 93.70 129.13 C 92.45 133.76 97.90 135.11 100.90 137.06 C 104.67 139.59 110.28 138.63 113.10 142.61 C 107.10 144.35 100.53 144.98 94.76 142.09 C 95.36 141.58 95.96 141.08 96.57 140.58 C 93.57 138.15 91.70 134.69 89.34 131.68 C 87.74 129.15 85.36 127.02 84.62 124.03 Z" />
</g>
<g id="#a5aaf3ff">
<path fill="#a5aaf3" opacity="1.00" d=" M 123.01 125.96 C 127.51 125.49 132.04 125.07 136.37 123.72 C 136.96 123.81 138.13 124.00 138.72 124.09 C 142.44 124.97 146.21 125.72 150.05 125.68 C 157.83 125.71 165.53 126.96 173.26 127.66 C 173.62 129.62 173.42 131.66 172.27 133.34 C 168.67 134.56 164.74 133.82 161.01 134.15 C 160.49 134.98 159.91 135.80 159.09 136.37 C 156.44 135.40 153.73 134.62 150.94 134.19 C 151.54 133.50 152.14 132.81 152.75 132.13 C 145.32 130.16 137.52 131.09 129.99 131.86 C 123.09 132.41 116.34 134.58 109.36 133.83 C 109.15 132.11 108.97 130.39 108.77 128.67 C 107.83 128.13 106.88 127.61 105.93 127.08 C 108.79 126.73 111.83 126.89 114.32 125.21 C 115.61 124.91 116.90 124.64 118.19 124.36 C 119.50 125.58 121.17 126.46 123.01 125.96 Z" />
</g>
<g id="#9d8da9ff">
<path fill="#9d8da9" opacity="1.00" d=" M 196.94 125.28 C 200.31 123.06 204.20 127.63 207.00 124.22 C 209.77 124.76 212.61 125.34 214.92 127.08 C 219.50 129.42 224.11 133.81 229.60 131.35 L 229.91 131.27 C 230.04 131.81 230.31 132.87 230.44 133.41 C 222.99 133.87 215.32 131.37 208.06 133.98 C 202.42 135.53 199.10 141.34 193.20 142.32 C 192.98 141.78 192.54 140.70 192.32 140.16 C 194.07 138.30 196.60 136.74 196.93 133.99 C 197.20 131.54 198.67 129.57 200.23 127.77 C 199.10 126.97 198.01 126.13 196.94 125.28 Z" />
</g>
<g id="#9d9eddff">
<path fill="#9d9edd" opacity="1.00" d=" M 94.13 126.21 C 100.90 127.48 107.58 125.49 114.32 125.21 C 111.83 126.89 108.79 126.73 105.93 127.08 C 106.88 127.61 107.83 128.13 108.77 128.67 C 108.97 130.39 109.15 132.11 109.36 133.83 C 116.34 134.58 123.09 132.41 129.99 131.86 C 137.52 131.09 145.32 130.16 152.75 132.13 C 152.14 132.81 151.54 133.50 150.94 134.19 C 144.50 132.69 137.75 133.17 131.55 135.45 C 126.30 137.48 120.89 139.15 115.77 141.52 C 115.10 141.79 113.76 142.34 113.10 142.61 C 110.28 138.63 104.67 139.59 100.90 137.06 C 97.90 135.11 92.45 133.76 93.70 129.13 C 93.26 128.48 92.83 127.84 92.40 127.20 C 92.83 126.95 93.70 126.46 94.13 126.21 Z" />
</g>
<g id="#a4a1d5ff">
<path fill="#a4a1d5" opacity="1.00" d=" M 185.16 127.35 C 186.61 126.98 188.05 126.53 189.49 126.12 C 187.97 128.05 186.08 129.63 184.09 131.05 C 186.50 130.48 188.89 129.74 191.04 128.50 C 191.50 128.88 192.40 129.65 192.86 130.04 C 191.06 133.09 189.19 136.19 186.76 138.78 C 183.62 140.30 179.94 140.41 176.67 141.63 C 170.67 140.38 164.92 138.20 159.09 136.37 C 159.91 135.80 160.49 134.98 161.01 134.15 C 164.74 133.82 168.67 134.56 172.27 133.34 C 173.42 131.66 173.62 129.62 173.26 127.66 C 177.22 127.66 181.28 128.43 185.16 127.35 Z" />
</g>
<g id="#9f93b8ff">
<path fill="#9f93b8" opacity="1.00" d=" M 191.04 128.50 C 192.96 127.35 194.89 126.20 196.94 125.28 C 198.01 126.13 199.10 126.97 200.23 127.77 C 198.67 129.57 197.20 131.54 196.93 133.99 C 196.60 136.74 194.07 138.30 192.32 140.16 C 192.54 140.70 192.98 141.78 193.20 142.32 C 190.79 142.82 188.36 143.24 185.97 143.80 C 190.83 144.93 196.07 144.83 200.92 143.64 C 206.49 145.76 212.00 148.41 218.02 148.90 C 220.55 148.99 223.15 148.84 225.54 149.84 C 221.13 151.70 216.41 150.55 211.83 150.37 C 214.85 152.29 218.45 153.27 222.02 153.37 C 225.81 153.01 229.59 152.20 233.41 152.78 C 233.02 154.02 232.45 155.44 230.94 155.57 C 223.40 157.34 215.35 157.37 207.86 155.31 C 203.96 154.39 199.95 153.99 195.97 153.60 C 191.65 152.97 187.74 155.71 183.42 155.29 C 181.04 153.82 178.19 153.99 175.59 153.28 C 174.21 152.30 173.09 151.02 171.92 149.82 C 175.32 147.19 179.79 147.09 183.49 145.06 C 181.60 144.26 179.70 143.50 177.75 142.88 C 178.02 142.78 178.56 142.58 178.83 142.48 C 178.29 142.27 177.21 141.84 176.67 141.63 C 179.94 140.41 183.62 140.30 186.76 138.78 C 189.19 136.19 191.06 133.09 192.86 130.04 C 192.40 129.65 191.50 128.88 191.04 128.50 Z" />
</g>
<g id="#6a628cff">
<path fill="#6a628c" opacity="1.00" d=" M 60.42 132.57 C 63.91 131.46 67.62 130.37 71.12 132.12 C 66.64 134.03 60.79 134.51 57.91 138.86 C 57.26 139.90 56.66 140.97 56.00 142.00 C 53.96 143.13 51.88 144.17 49.71 145.03 C 45.13 143.15 39.84 144.65 35.41 142.11 C 35.60 140.25 35.78 138.38 35.96 136.52 C 37.74 133.89 40.81 135.98 42.40 137.68 C 44.84 140.47 48.74 139.77 52.02 139.69 C 50.58 139.23 49.14 138.78 47.68 138.39 C 50.27 137.80 53.00 137.80 55.14 139.56 C 55.08 136.16 57.85 134.23 60.42 132.57 Z" />
</g>
<g id="#473b4dff">
<path fill="#473b4d" opacity="1.00" d=" M 71.12 132.12 C 74.75 131.15 78.54 131.55 82.26 131.31 C 87.01 134.21 90.15 139.01 94.76 142.09 C 100.53 144.98 107.10 144.35 113.10 142.61 C 113.76 142.34 115.10 141.79 115.77 141.52 C 116.27 141.68 117.28 141.99 117.78 142.15 C 117.11 143.11 116.45 144.06 115.80 145.03 C 114.43 145.24 113.08 145.52 111.72 145.78 C 108.02 146.25 104.24 146.90 100.53 146.10 C 98.84 145.44 97.06 145.04 95.27 144.83 C 93.62 143.32 91.92 141.87 90.22 140.44 C 87.02 137.09 82.54 135.56 77.95 135.75 C 71.15 135.57 64.40 136.93 57.91 138.86 C 60.79 134.51 66.64 134.03 71.12 132.12 Z" />
</g>
<g id="#5a547aff">
<path fill="#5a547a" opacity="1.00" d=" M 131.55 135.45 C 137.75 133.17 144.50 132.69 150.94 134.19 C 153.73 134.62 156.44 135.40 159.09 136.37 C 164.92 138.20 170.67 140.38 176.67 141.63 C 177.21 141.84 178.29 142.27 178.83 142.48 C 178.56 142.58 178.02 142.78 177.75 142.88 C 175.60 142.43 173.45 142.00 171.30 141.57 C 166.77 140.85 162.58 138.74 158.00 138.29 C 154.01 137.81 149.98 137.45 145.95 137.55 C 141.73 137.71 137.35 137.74 133.42 139.49 C 127.69 141.70 122.13 145.05 115.80 145.03 C 116.45 144.06 117.11 143.11 117.78 142.15 C 117.28 141.99 116.27 141.68 115.77 141.52 C 120.89 139.15 126.30 137.48 131.55 135.45 Z" />
</g>
<g id="#605165ff">
<path fill="#605165" opacity="1.00" d=" M 208.06 133.98 C 215.32 131.37 222.99 133.87 230.44 133.41 L 230.74 133.40 C 231.23 134.31 231.66 135.25 232.03 136.22 C 231.72 138.20 229.41 137.80 227.94 138.11 C 222.80 138.71 217.43 137.58 212.46 139.39 C 208.59 140.75 204.80 142.31 200.92 143.64 C 196.07 144.83 190.83 144.93 185.97 143.80 C 188.36 143.24 190.79 142.82 193.20 142.32 C 199.10 141.34 202.42 135.53 208.06 133.98 Z" />
</g>
<g id="#786a84ff">
<path fill="#786a84" opacity="1.00" d=" M 57.91 138.86 C 64.40 136.93 71.15 135.57 77.95 135.75 C 82.54 135.56 87.02 137.09 90.22 140.44 C 89.87 141.27 89.54 142.11 89.21 142.96 C 86.28 142.95 83.48 142.08 80.63 141.53 C 72.47 140.43 64.04 139.88 56.00 142.00 C 56.66 140.97 57.26 139.90 57.91 138.86 Z" />
</g>
<g id="#9887a6ff">
<path fill="#9887a6" opacity="1.00" d=" M 232.03 136.22 C 234.38 137.79 236.58 139.58 238.80 141.33 C 236.76 142.90 234.59 144.31 232.47 145.78 C 232.92 146.46 233.36 147.15 233.81 147.84 C 231.19 148.05 228.56 148.25 225.94 148.45 C 228.70 148.65 231.55 148.77 234.12 149.94 C 231.26 149.64 228.40 149.72 225.54 149.84 C 223.15 148.84 220.55 148.99 218.02 148.90 C 212.00 148.41 206.49 145.76 200.92 143.64 C 204.80 142.31 208.59 140.75 212.46 139.39 C 217.43 137.58 222.80 138.71 227.94 138.11 C 229.41 137.80 231.72 138.20 232.03 136.22 Z" />
</g>
<g id="#5f587bff">
<path fill="#5f587b" opacity="1.00" d=" M 35.51 137.13 L 35.96 136.52 C 35.78 138.38 35.60 140.25 35.41 142.11 C 39.84 144.65 45.13 143.15 49.71 145.03 C 46.72 146.25 43.74 147.50 40.76 148.74 C 39.22 148.81 37.70 148.52 36.24 148.05 C 33.47 146.96 30.62 146.07 27.81 145.10 C 27.83 144.36 27.88 142.89 27.90 142.15 C 30.76 140.97 33.99 140.10 35.51 137.13 Z" />
</g>
<g id="#8284c3ff">
<path fill="#8284c3" opacity="1.00" d=" M 133.42 139.49 C 137.35 137.74 141.73 137.71 145.95 137.55 C 145.57 140.14 145.38 143.42 142.58 144.61 C 135.49 147.60 127.55 147.08 120.02 146.85 C 117.22 146.86 114.43 146.51 111.72 145.78 C 113.08 145.52 114.43 145.24 115.80 145.03 C 122.13 145.05 127.69 141.70 133.42 139.49 Z" />
</g>
<g id="#9da0e6ff">
<path fill="#9da0e6" opacity="1.00" d=" M 145.95 137.55 C 149.98 137.45 154.01 137.81 158.00 138.29 C 162.58 138.74 166.77 140.85 171.30 141.57 C 171.46 142.53 171.58 143.51 171.65 144.49 C 166.87 145.04 163.36 148.45 160.68 152.18 C 163.75 153.83 167.49 153.45 170.41 155.46 C 166.76 155.64 163.12 155.69 159.48 155.50 C 150.09 152.51 140.44 155.95 130.97 156.41 C 125.75 156.76 120.52 157.37 115.28 156.94 C 106.88 155.59 98.29 156.90 89.87 155.54 C 96.32 154.49 102.98 152.59 108.16 148.51 C 105.53 148.03 101.72 149.34 100.53 146.10 C 104.24 146.90 108.02 146.25 111.72 145.78 C 114.43 146.51 117.22 146.86 120.02 146.85 C 127.55 147.08 135.49 147.60 142.58 144.61 C 145.38 143.42 145.57 140.14 145.95 137.55 Z" />
</g>
<g id="#8d7e9bff">
<path fill="#8d7e9b" opacity="1.00" d=" M 56.00 142.00 C 64.04 139.88 72.47 140.43 80.63 141.53 C 83.48 142.08 86.28 142.95 89.21 142.96 C 89.54 142.11 89.87 141.27 90.22 140.44 C 91.92 141.87 93.62 143.32 95.27 144.83 C 92.98 145.02 90.68 145.14 88.44 145.62 C 84.64 147.55 80.31 150.09 79.89 154.82 C 80.43 155.13 81.50 155.75 82.04 156.06 C 81.41 155.95 80.16 155.71 79.53 155.59 C 78.69 154.07 78.37 152.02 76.83 151.03 C 75.01 150.97 73.38 152.06 71.61 152.40 C 65.36 153.71 58.96 152.72 52.64 152.94 C 48.28 152.88 43.92 151.95 40.76 148.74 C 43.74 147.50 46.72 146.25 49.71 145.03 C 51.88 144.17 53.96 143.13 56.00 142.00 Z" />
</g>
<g id="#706a9dff">
<path fill="#706a9d" opacity="1.00" d=" M 23.20 148.36 C 22.55 144.94 25.20 143.31 27.90 142.15 C 27.88 142.89 27.83 144.36 27.81 145.10 C 30.62 146.07 33.47 146.96 36.24 148.05 C 31.92 148.54 27.49 149.71 23.20 148.36 Z" />
</g>
<g id="#a09bceff">
<path fill="#a09bce" opacity="1.00" d=" M 171.30 141.57 C 173.45 142.00 175.60 142.43 177.75 142.88 C 179.70 143.50 181.60 144.26 183.49 145.06 C 179.79 147.09 175.32 147.19 171.92 149.82 C 173.09 151.02 174.21 152.30 175.59 153.28 C 178.19 153.99 181.04 153.82 183.42 155.29 C 179.09 155.52 174.74 155.73 170.41 155.46 C 167.49 153.45 163.75 153.83 160.68 152.18 C 163.36 148.45 166.87 145.04 171.65 144.49 C 171.58 143.51 171.46 142.53 171.30 141.57 Z" />
</g>
<g id="#af9db5ff">
<path fill="#af9db5" opacity="1.00" d=" M 232.47 145.78 C 234.59 144.31 236.76 142.90 238.80 141.33 C 242.07 143.32 245.37 145.29 248.36 147.68 C 249.51 149.63 250.55 151.99 250.33 154.32 C 244.67 154.11 239.29 152.08 234.12 149.94 C 231.55 148.77 228.70 148.65 225.94 148.45 C 228.56 148.25 231.19 148.05 233.81 147.84 C 233.36 147.15 232.92 146.46 232.47 145.78 Z" />
</g>
<g id="#9b97ccff">
<path fill="#9b97cc" opacity="1.00" d=" M 88.44 145.62 C 90.68 145.14 92.98 145.02 95.27 144.83 C 97.06 145.04 98.84 145.44 100.53 146.10 C 101.72 149.34 105.53 148.03 108.16 148.51 C 102.98 152.59 96.32 154.49 89.87 155.54 C 98.29 156.90 106.88 155.59 115.28 156.94 C 105.43 157.32 95.57 156.60 85.72 156.69 C 84.49 156.48 83.26 156.31 82.04 156.06 C 81.50 155.75 80.43 155.13 79.89 154.82 C 80.31 150.09 84.64 147.55 88.44 145.62 Z" />
</g>
<g id="#6a5c6fff">
<path fill="#6a5c6f" opacity="1.00" d=" M 211.83 150.37 C 216.41 150.55 221.13 151.70 225.54 149.84 C 228.40 149.72 231.26 149.64 234.12 149.94 C 239.29 152.08 244.67 154.11 250.33 154.32 C 249.93 155.32 249.55 156.34 249.20 157.36 C 244.70 159.15 239.77 158.90 235.03 159.35 C 229.00 159.04 223.02 160.14 216.99 159.79 C 206.69 161.18 196.22 159.44 185.92 160.98 C 170.30 162.77 154.62 160.89 138.95 161.36 C 131.67 162.31 124.30 161.20 117.02 162.10 C 112.67 162.53 108.32 162.07 103.98 161.73 C 97.61 161.89 91.23 161.66 84.91 160.82 C 83.32 160.52 81.35 160.86 80.20 159.47 C 79.16 158.60 78.38 157.10 76.86 157.04 C 73.31 156.53 69.77 155.86 66.37 154.68 C 61.93 153.07 57.04 154.74 52.64 152.94 C 58.96 152.72 65.36 153.71 71.61 152.40 C 73.38 152.06 75.01 150.97 76.83 151.03 C 78.37 152.02 78.69 154.07 79.53 155.59 C 80.16 155.71 81.41 155.95 82.04 156.06 C 83.26 156.31 84.49 156.48 85.72 156.69 C 85.96 157.13 86.45 158.00 86.69 158.43 C 90.84 158.63 94.93 159.48 99.08 159.67 C 113.72 159.69 128.37 159.54 143.01 159.78 C 151.05 159.58 159.40 159.94 167.12 157.37 C 164.54 156.90 161.59 157.33 159.48 155.50 C 163.12 155.69 166.76 155.64 170.41 155.46 C 174.74 155.73 179.09 155.52 183.42 155.29 C 187.74 155.71 191.65 152.97 195.97 153.60 C 199.95 153.99 203.96 154.39 207.86 155.31 C 215.35 157.37 223.40 157.34 230.94 155.57 C 232.45 155.44 233.02 154.02 233.41 152.78 C 229.59 152.20 225.81 153.01 222.02 153.37 C 218.45 153.27 214.85 152.29 211.83 150.37 Z" />
</g>
<g id="#6c6995ff">
<path fill="#6c6995" opacity="1.00" d=" M 130.97 156.41 C 140.44 155.95 150.09 152.51 159.48 155.50 C 161.59 157.33 164.54 156.90 167.12 157.37 C 159.40 159.94 151.05 159.58 143.01 159.78 C 128.37 159.54 113.72 159.69 99.08 159.67 C 94.93 159.48 90.84 158.63 86.69 158.43 C 86.45 158.00 85.96 157.13 85.72 156.69 C 95.57 156.60 105.43 157.32 115.28 156.94 C 120.52 157.37 125.75 156.76 130.97 156.41 Z" />
</g>
</svg>
