<?xml version="1.0" encoding="UTF-8" ?>
<!DOCTYPE svg PUBLIC "-//W3C//DTD SVG 1.1//EN" "http://www.w3.org/Graphics/SVG/1.1/DTD/svg11.dtd">
<svg width="144pt" height="114pt" viewBox="0 0 144 114" version="1.1" xmlns="http://www.w3.org/2000/svg">
<g id="#a599f7ff">
<path fill="#a599f7" opacity="1.00" d=" M 15.82 18.06 C 15.54 15.66 18.13 14.35 20.10 13.87 C 22.02 14.19 22.94 16.25 24.24 17.51 C 23.54 17.74 22.14 18.20 21.44 18.43 C 21.06 21.03 20.63 23.64 19.85 26.16 L 19.46 27.54 C 18.06 24.46 16.72 21.33 15.82 18.06 Z" />
<path fill="#a599f7" opacity="1.00" d=" M 25.37 104.40 C 22.22 101.11 26.09 96.89 27.09 93.41 L 28.05 94.75 C 28.23 95.10 28.61 95.82 28.79 96.17 C 28.74 96.25 28.62 96.41 28.56 96.49 C 26.44 98.29 26.02 100.90 26.08 103.54 C 25.91 103.75 25.55 104.18 25.37 104.40 Z" />
</g>
<g id="#a094eaff">
<path fill="#a094ea" opacity="1.00" d=" M 124.85 17.60 C 126.46 16.33 128.15 17.72 129.68 18.34 C 126.05 22.18 122.06 25.63 118.20 29.22 C 114.96 32.31 110.69 33.91 106.68 35.72 C 106.63 38.02 106.59 40.31 106.55 42.61 C 103.08 43.27 99.38 43.58 96.12 41.90 C 91.58 39.65 86.46 39.05 81.95 36.75 C 85.25 33.71 88.50 30.08 93.09 29.11 L 94.50 30.84 C 94.24 30.11 93.73 28.65 93.47 27.92 L 95.18 28.54 C 98.47 29.60 100.99 32.08 103.79 34.00 C 111.62 29.67 117.53 22.66 124.85 17.60 Z" />
</g>
<g id="#978ce7ff">
<path fill="#978ce7" opacity="1.00" d=" M 21.44 18.43 C 22.14 18.20 23.54 17.74 24.24 17.51 C 26.30 20.36 28.46 23.14 30.57 25.96 C 27.52 27.07 24.72 28.73 22.03 30.52 C 21.31 29.07 20.58 27.62 19.85 26.16 C 20.63 23.64 21.06 21.03 21.44 18.43 Z" />
</g>
<g id="#887fd3ff">
<path fill="#887fd3" opacity="1.00" d=" M 118.20 29.22 C 122.06 25.63 126.05 22.18 129.68 18.34 C 130.40 19.72 130.80 21.22 130.66 22.79 C 130.48 22.21 130.12 21.05 129.94 20.47 C 123.40 26.42 118.56 34.14 111.21 39.22 C 111.72 43.15 114.88 45.77 116.69 49.08 C 116.95 49.54 117.45 50.48 117.70 50.95 C 115.61 51.26 113.52 51.56 111.45 51.98 C 110.81 50.88 110.13 49.80 109.44 48.73 C 104.07 48.65 98.71 48.11 93.41 47.31 C 88.95 46.69 85.62 42.23 80.90 43.10 C 80.40 42.81 79.39 42.24 78.89 41.96 C 79.54 40.03 80.46 38.18 81.95 36.75 C 86.46 39.05 91.58 39.65 96.12 41.90 C 99.38 43.58 103.08 43.27 106.55 42.61 C 106.59 40.31 106.63 38.02 106.68 35.72 C 110.69 33.91 114.96 32.31 118.20 29.22 Z" />
<path fill="#887fd3" opacity="1.00" d=" M 26.08 103.54 C 26.02 100.90 26.44 98.29 28.56 96.49 C 28.65 99.14 28.26 101.77 26.08 103.54 Z" />
</g>
<g id="#cbbbffff">
<path fill="#cbbbff" opacity="1.00" d=" M 50.64 21.05 C 53.82 20.60 57.04 20.35 60.25 20.59 C 58.97 21.58 57.69 22.56 56.42 23.56 C 60.39 23.18 64.35 22.05 68.36 22.69 C 71.15 23.16 74.02 23.29 76.73 22.31 C 80.48 22.99 84.21 23.90 87.78 25.28 C 76.03 30.05 63.20 27.53 51.08 25.94 C 52.85 24.45 54.73 23.11 56.50 21.63 C 53.97 22.85 51.55 24.34 49.47 26.24 C 39.07 28.93 28.67 31.75 18.54 35.36 L 18.68 33.72 C 18.24 34.30 17.79 34.88 17.33 35.44 C 13.12 40.13 7.26 44.11 5.92 50.65 C 5.59 50.48 4.92 50.14 4.59 49.97 C 7.07 41.88 13.79 35.81 20.74 31.39 C 20.34 30.11 19.58 28.90 19.46 27.54 L 19.85 26.16 C 20.58 27.62 21.31 29.07 22.03 30.52 C 21.67 31.33 21.30 32.14 20.94 32.95 C 30.21 28.12 40.63 26.40 50.35 22.77 C 50.42 22.39 50.55 21.62 50.61 21.23 L 50.64 21.05 Z" />
</g>
<g id="#e9d5fcfe">
<path fill="#e9d5fc" opacity="1.00" d=" M 60.25 20.59 C 65.78 20.67 71.39 20.64 76.73 22.31 C 74.02 23.29 71.15 23.16 68.36 22.69 C 64.35 22.05 60.39 23.18 56.42 23.56 C 57.69 22.56 58.97 21.58 60.25 20.59 Z" />
</g>
<g id="#595699ff">
<path fill="#595699" opacity="1.00" d=" M 111.21 39.22 C 118.56 34.14 123.40 26.42 129.94 20.47 C 130.12 21.05 130.48 22.21 130.66 22.79 C 126.60 28.70 122.54 34.62 118.51 40.56 C 116.86 43.04 115.52 46.11 116.69 49.08 C 114.88 45.77 111.72 43.15 111.21 39.22 Z" />
</g>
<g id="#f7eaffff">
<path fill="#f7eaff" opacity="1.00" d=" M 30.57 25.96 C 37.03 23.56 43.82 22.23 50.61 21.23 C 50.55 21.62 50.42 22.39 50.35 22.77 C 40.63 26.40 30.21 28.12 20.94 32.95 C 21.30 32.14 21.67 31.33 22.03 30.52 C 24.72 28.73 27.52 27.07 30.57 25.96 Z" />
</g>
<g id="#222d4dff">
<path fill="#222d4d" opacity="1.00" d=" M 49.47 26.24 C 51.55 24.34 53.97 22.85 56.50 21.63 C 54.73 23.11 52.85 24.45 51.08 25.94 C 50.04 26.96 49.07 28.06 48.12 29.18 C 47.73 30.90 47.68 32.68 47.65 34.45 C 45.04 36.35 42.16 37.83 39.31 39.32 C 35.75 41.36 32.89 44.36 29.98 47.20 C 29.15 45.27 28.32 43.34 27.51 41.41 C 28.88 39.52 30.13 37.54 31.17 35.44 C 36.06 34.38 41.08 34.35 46.04 33.81 C 46.13 30.88 47.28 28.20 49.47 26.24 Z" />
</g>
<g id="#b2a4feff">
<path fill="#b2a4fe" opacity="1.00" d=" M 87.78 25.28 C 89.67 25.44 91.29 26.67 93.01 27.40 C 92.76 27.61 92.27 28.03 92.03 28.24 C 88.52 27.15 85.19 29.03 81.93 30.05 C 76.22 32.12 70.02 33.14 64.00 31.98 C 58.72 30.95 53.34 30.50 48.12 29.18 C 49.07 28.06 50.04 26.96 51.08 25.94 C 63.20 27.53 76.03 30.05 87.78 25.28 Z" />
</g>
<g id="#9f92f0ff">
<path fill="#9f92f0" opacity="1.00" d=" M 18.54 35.36 C 28.67 31.75 39.07 28.93 49.47 26.24 C 47.28 28.20 46.13 30.88 46.04 33.81 C 41.08 34.35 36.06 34.38 31.17 35.44 C 27.07 35.99 23.37 38.04 19.31 38.70 C 18.88 37.63 18.62 36.51 18.54 35.36 Z" />
</g>
<g id="#978ae6ff">
<path fill="#978ae6" opacity="1.00" d=" M 81.93 30.05 C 85.19 29.03 88.52 27.15 92.03 28.24 C 86.65 31.53 80.85 35.01 77.88 40.82 C 68.00 37.97 58.12 34.17 47.65 34.45 C 47.68 32.68 47.73 30.90 48.12 29.18 C 53.34 30.50 58.72 30.95 64.00 31.98 C 70.02 33.14 76.22 32.12 81.93 30.05 Z" />
</g>
<g id="#120d26ff">
<path fill="#120d26" opacity="1.00" d=" M 93.01 27.40 C 93.23 27.22 93.66 26.85 93.88 26.66 C 94.37 27.19 95.34 28.25 95.83 28.77 L 95.18 28.54 L 93.47 27.92 C 93.73 28.65 94.24 30.11 94.50 30.84 L 93.09 29.11 C 88.50 30.08 85.25 33.71 81.95 36.75 C 80.46 38.18 79.54 40.03 78.89 41.96 C 79.39 42.24 80.40 42.81 80.90 43.10 C 85.59 45.94 90.22 48.90 94.61 52.19 C 96.36 53.48 98.13 54.76 99.96 55.94 C 102.62 57.91 105.81 58.85 109.07 59.16 C 109.09 60.69 109.11 62.23 109.13 63.76 C 108.43 64.51 107.75 65.29 107.10 66.09 C 105.29 69.29 104.47 73.16 101.66 75.71 C 98.80 78.34 95.83 80.88 92.55 82.98 C 88.12 83.90 83.50 82.88 79.12 84.11 C 73.89 85.42 69.01 87.93 63.62 88.62 C 65.13 85.72 66.76 82.62 66.70 79.27 C 66.18 77.75 64.77 76.78 63.67 75.70 C 67.30 75.75 70.90 75.19 74.50 74.80 C 74.56 73.70 74.62 72.60 74.69 71.51 C 75.77 72.17 76.88 72.79 78.00 73.38 C 80.21 73.97 82.90 74.45 84.76 72.77 C 87.78 70.12 90.62 67.25 93.20 64.17 C 95.23 61.91 94.22 58.74 93.55 56.15 C 92.49 54.65 91.39 53.18 90.21 51.77 C 88.34 50.44 86.27 49.41 84.11 48.65 C 83.54 48.63 82.40 48.59 81.83 48.57 C 79.73 48.56 77.69 49.06 75.75 49.80 C 75.64 48.42 75.52 47.03 75.41 45.64 C 65.54 41.93 54.87 40.17 44.34 41.44 C 42.27 41.97 40.65 40.75 39.31 39.32 C 42.16 37.83 45.04 36.35 47.65 34.45 C 58.12 34.17 68.00 37.97 77.88 40.82 C 80.85 35.01 86.65 31.53 92.03 28.24 C 92.27 28.03 92.76 27.61 93.01 27.40 Z" />
<path fill="#120d26" opacity="1.00" d=" M 31.18 57.20 C 31.47 57.40 32.05 57.80 32.34 58.00 C 32.14 58.71 31.74 60.13 31.54 60.84 C 31.12 60.81 30.27 60.76 29.85 60.74 C 29.51 59.40 30.26 58.10 31.18 57.20 Z" />
<path fill="#120d26" opacity="1.00" d=" M 80.43 60.01 C 81.36 59.79 82.30 59.61 83.24 59.44 C 83.42 60.03 83.78 61.21 83.96 61.80 C 83.47 62.23 82.50 63.10 82.01 63.54 C 81.29 62.73 80.56 61.93 79.83 61.14 L 80.43 60.01 Z" />
</g>
<g id="#314169ff">
<path fill="#314169" opacity="1.00" d=" M 17.33 35.44 C 17.79 34.88 18.24 34.30 18.68 33.72 L 18.54 35.36 C 18.62 36.51 18.88 37.63 19.31 38.70 C 23.37 38.04 27.07 35.99 31.17 35.44 C 30.13 37.54 28.88 39.52 27.51 41.41 C 28.32 43.34 29.15 45.27 29.98 47.20 C 29.44 48.65 29.02 50.13 28.55 51.61 C 28.22 52.43 27.88 53.25 27.55 54.07 C 26.99 55.48 26.46 56.91 25.90 58.33 L 25.18 59.45 C 25.36 58.43 25.72 56.38 25.90 55.35 C 24.93 54.94 23.95 54.53 22.98 54.11 C 23.81 54.02 25.48 53.83 26.31 53.73 C 22.23 50.73 17.02 50.32 12.36 48.66 C 12.41 47.33 12.45 46.01 12.50 44.68 C 14.19 43.25 16.05 42.01 17.61 40.43 C 17.86 38.77 17.47 37.09 17.33 35.44 Z" />
</g>
<g id="#9a8fe4ff">
<path fill="#9a8fe4" opacity="1.00" d=" M 5.92 50.65 C 7.26 44.11 13.12 40.13 17.33 35.44 C 17.47 37.09 17.86 38.77 17.61 40.43 C 16.05 42.01 14.19 43.25 12.50 44.68 C 10.44 46.54 8.79 48.78 6.87 50.76 C 6.63 50.74 6.16 50.68 5.92 50.65 Z" />
</g>
<g id="#1c1437ff">
<path fill="#1c1437" opacity="1.00" d=" M 29.98 47.20 C 32.89 44.36 35.75 41.36 39.31 39.32 C 40.65 40.75 42.27 41.97 44.34 41.44 C 54.87 40.17 65.54 41.93 75.41 45.64 C 75.52 47.03 75.64 48.42 75.75 49.80 C 71.43 52.27 69.07 57.20 69.49 62.11 C 69.53 62.66 69.61 63.74 69.65 64.28 C 70.56 66.49 71.81 68.55 73.36 70.37 C 73.69 70.65 74.36 71.22 74.69 71.51 C 74.62 72.60 74.56 73.70 74.50 74.80 C 70.90 75.19 67.30 75.75 63.67 75.70 C 62.80 75.42 61.93 75.16 61.06 74.90 C 57.47 73.90 53.74 73.51 50.03 73.54 C 47.97 73.94 45.93 74.43 43.96 75.12 C 39.83 76.85 35.83 78.90 32.02 81.24 C 31.03 80.50 30.02 79.79 29.04 79.05 C 26.70 74.59 24.05 69.59 25.73 64.44 L 25.85 66.15 C 26.54 69.08 29.26 72.06 32.50 71.49 C 35.40 70.69 37.07 67.89 38.19 65.29 C 38.53 64.04 38.83 62.77 39.11 61.50 C 39.36 62.16 39.86 63.49 40.12 64.15 C 39.10 66.79 38.04 69.41 37.01 72.05 C 42.13 72.18 46.91 69.84 52.03 70.02 C 57.88 70.04 63.75 70.41 69.57 69.54 C 67.14 64.01 67.06 57.80 69.65 52.31 C 60.23 51.48 50.85 49.86 41.37 49.99 C 41.23 53.56 41.06 57.13 40.89 60.70 C 40.48 60.57 39.66 60.32 39.25 60.20 C 39.32 59.55 39.45 58.25 39.51 57.60 C 39.49 54.28 40.09 50.12 37.27 47.72 C 36.06 46.46 34.28 47.02 32.79 47.26 C 31.23 48.55 29.81 50.02 28.55 51.61 C 29.02 50.13 29.44 48.65 29.98 47.20 Z" />
</g>
<g id="#736bb9ff">
<path fill="#736bb9" opacity="1.00" d=" M 80.90 43.10 C 85.62 42.23 88.95 46.69 93.41 47.31 C 98.71 48.11 104.07 48.65 109.44 48.73 C 110.13 49.80 110.81 50.88 111.45 51.98 C 111.36 52.52 111.18 53.61 111.08 54.16 L 110.53 54.02 C 105.35 52.55 99.95 52.41 94.61 52.19 C 90.22 48.90 85.59 45.94 80.90 43.10 Z" />
</g>
<g id="#435a87ff">
<path fill="#435a87" opacity="1.00" d=" M 6.87 50.76 C 8.79 48.78 10.44 46.54 12.50 44.68 C 12.45 46.01 12.41 47.33 12.36 48.66 C 17.02 50.32 22.23 50.73 26.31 53.73 C 25.48 53.83 23.81 54.02 22.98 54.11 C 18.09 53.46 13.15 53.46 8.38 54.86 C 7.37 54.35 6.36 53.85 5.35 53.36 C 4.95 52.16 4.60 50.95 4.22 49.74 L 4.59 49.97 C 4.92 50.14 5.59 50.48 5.92 50.65 C 6.16 50.68 6.63 50.74 6.87 50.76 Z" />
</g>
<g id="#cececeff">
<path fill="#cecece" opacity="1.00" d=" M 32.79 47.26 C 34.28 47.02 36.06 46.46 37.27 47.72 C 40.09 50.12 39.49 54.28 39.51 57.60 C 37.04 59.82 35.05 62.79 31.92 64.14 C 29.65 65.10 27.76 63.01 25.83 62.15 C 25.85 61.19 25.88 59.28 25.90 58.33 C 26.46 56.91 26.99 55.48 27.55 54.07 C 28.03 56.36 28.20 58.91 29.85 60.74 C 30.27 60.76 31.12 60.81 31.54 60.84 C 31.74 60.13 32.14 58.71 32.34 58.00 C 32.63 58.19 33.20 58.58 33.49 58.78 C 37.60 57.09 36.57 52.05 35.68 48.64 C 34.96 48.29 33.51 47.60 32.79 47.26 Z" />
</g>
<g id="#f8f8f8ff">
<path fill="#f8f8f8" opacity="1.00" d=" M 28.55 51.61 C 29.81 50.02 31.23 48.55 32.79 47.26 C 33.51 47.60 34.96 48.29 35.68 48.64 C 36.57 52.05 37.60 57.09 33.49 58.78 C 33.20 58.58 32.63 58.19 32.34 58.00 C 32.05 57.80 31.47 57.40 31.18 57.20 C 30.26 58.10 29.51 59.40 29.85 60.74 C 28.20 58.91 28.03 56.36 27.55 54.07 C 27.88 53.25 28.22 52.43 28.55 51.61 Z" />
</g>
<g id="#f4f4f4ff">
<path fill="#f4f4f4" opacity="1.00" d=" M 75.75 49.80 C 77.69 49.06 79.73 48.56 81.83 48.57 C 80.28 52.27 78.92 56.16 75.91 58.98 C 73.43 59.21 70.93 59.87 69.49 62.11 C 69.07 57.20 71.43 52.27 75.75 49.80 Z" />
</g>
<g id="#d0d0d0ff">
<path fill="#d0d0d0" opacity="1.00" d=" M 81.83 48.57 C 82.40 48.59 83.54 48.63 84.11 48.65 C 84.02 52.75 82.53 56.54 80.43 60.01 L 79.83 61.14 C 79.64 60.99 79.26 60.69 79.07 60.54 C 76.59 63.15 73.07 63.83 69.65 64.28 C 69.61 63.74 69.53 62.66 69.49 62.11 C 70.93 59.87 73.43 59.21 75.91 58.98 C 78.92 56.16 80.28 52.27 81.83 48.57 Z" />
</g>
<g id="#abababff">
<path fill="#ababab" opacity="1.00" d=" M 84.11 48.65 C 86.27 49.41 88.34 50.44 90.21 51.77 C 88.79 55.48 87.11 59.23 83.96 61.80 C 83.78 61.21 83.42 60.03 83.24 59.44 C 82.30 59.61 81.36 59.79 80.43 60.01 C 82.53 56.54 84.02 52.75 84.11 48.65 Z" />
<path fill="#ababab" opacity="1.00" d=" M 69.65 64.28 C 73.07 63.83 76.59 63.15 79.07 60.54 C 79.26 60.69 79.64 60.99 79.83 61.14 C 80.56 61.93 81.29 62.73 82.01 63.54 C 79.28 66.00 76.38 68.26 73.36 70.37 C 71.81 68.55 70.56 66.49 69.65 64.28 Z" />
</g>
<g id="#241a46ff">
<path fill="#241a46" opacity="1.00" d=" M 41.37 49.99 C 50.85 49.86 60.23 51.48 69.65 52.31 C 67.06 57.80 67.14 64.01 69.57 69.54 C 63.75 70.41 57.88 70.04 52.03 70.02 C 46.91 69.84 42.13 72.18 37.01 72.05 C 38.04 69.41 39.10 66.79 40.12 64.15 C 39.86 63.49 39.36 62.16 39.11 61.50 C 39.14 61.18 39.22 60.52 39.25 60.20 C 39.66 60.32 40.48 60.57 40.89 60.70 C 41.06 57.13 41.23 53.56 41.37 49.99 Z" />
</g>
<g id="#6a8bc5ff">
<path fill="#6a8bc5" opacity="1.00" d=" M 111.45 51.98 C 113.52 51.56 115.61 51.26 117.70 50.95 L 117.78 50.93 L 118.02 51.92 C 118.34 53.22 118.66 54.53 118.98 55.84 C 116.33 55.35 113.69 54.81 111.08 54.16 C 111.18 53.61 111.36 52.52 111.45 51.98 Z" />
</g>
<g id="#6c6c6cff">
<path fill="#6c6c6c" opacity="1.00" d=" M 90.21 51.77 C 91.39 53.18 92.49 54.65 93.55 56.15 C 91.25 63.95 84.07 68.64 78.00 73.38 C 76.88 72.79 75.77 72.17 74.69 71.51 C 74.36 71.22 73.69 70.65 73.36 70.37 C 76.38 68.26 79.28 66.00 82.01 63.54 C 82.50 63.10 83.47 62.23 83.96 61.80 C 87.11 59.23 88.79 55.48 90.21 51.77 Z" />
</g>
<g id="#5f5b9eff">
<path fill="#5f5b9e" opacity="1.00" d=" M 94.61 52.19 C 99.95 52.41 105.35 52.55 110.53 54.02 C 109.75 54.79 108.99 55.56 108.19 56.31 C 105.48 55.72 102.70 55.39 99.96 55.94 C 98.13 54.76 96.36 53.48 94.61 52.19 Z" />
</g>
<g id="#6270a9f6">
<path fill="#6270a9" opacity="0.96" d=" M 118.02 51.92 C 118.62 53.18 119.21 54.45 119.82 55.71 C 119.18 56.98 118.53 58.23 117.85 59.47 C 118.52 60.57 119.19 61.67 119.86 62.76 C 119.40 63.35 118.48 64.52 118.02 65.11 L 117.16 64.74 C 116.16 64.32 115.17 63.89 114.17 63.47 C 115.42 63.29 116.67 63.11 117.93 62.93 C 117.13 62.36 116.33 61.81 115.53 61.25 C 115.52 59.80 115.52 58.34 115.52 56.89 C 114.00 57.10 112.48 57.31 110.96 57.53 C 109.24 57.76 107.54 58.07 105.83 58.38 C 106.42 57.86 107.60 56.83 108.19 56.31 C 108.99 55.56 109.75 54.79 110.53 54.02 L 111.08 54.16 C 113.69 54.81 116.33 55.35 118.98 55.84 C 118.66 54.53 118.34 53.22 118.02 51.92 Z" />
</g>
<g id="#484478ff">
<path fill="#484478" opacity="1.00" d=" M 99.96 55.94 C 102.70 55.39 105.48 55.72 108.19 56.31 C 107.60 56.83 106.42 57.86 105.83 58.38 C 107.54 58.07 109.24 57.76 110.96 57.53 C 111.71 57.88 113.20 58.56 113.95 58.91 C 112.36 60.54 110.72 62.12 109.13 63.76 C 109.11 62.23 109.09 60.69 109.07 59.16 C 105.81 58.85 102.62 57.91 99.96 55.94 Z" />
</g>
<g id="#3c3c3cff">
<path fill="#3c3c3c" opacity="1.00" d=" M 93.55 56.15 C 94.22 58.74 95.23 61.91 93.20 64.17 C 90.62 67.25 87.78 70.12 84.76 72.77 C 82.90 74.45 80.21 73.97 78.00 73.38 C 84.07 68.64 91.25 63.95 93.55 56.15 Z" />
</g>
<g id="#5c5c9bfd">
<path fill="#5c5c9b" opacity="1.00" d=" M 110.96 57.53 C 112.48 57.31 114.00 57.10 115.52 56.89 C 115.52 58.34 115.52 59.80 115.53 61.25 C 116.33 61.81 117.13 62.36 117.93 62.93 C 116.67 63.11 115.42 63.29 114.17 63.47 C 115.17 63.89 116.16 64.32 117.16 64.74 C 115.63 64.52 114.24 64.75 112.98 65.43 C 112.85 65.55 112.58 65.80 112.45 65.92 C 112.59 66.48 112.88 67.58 113.02 68.14 C 112.44 69.13 111.84 70.11 111.30 71.13 C 110.25 73.30 109.39 75.56 108.16 77.65 L 108.05 75.97 C 108.34 72.79 109.10 69.68 109.87 66.59 C 108.95 66.42 108.02 66.26 107.10 66.09 C 107.75 65.29 108.43 64.51 109.13 63.76 C 110.72 62.12 112.36 60.54 113.95 58.91 C 113.20 58.56 111.71 57.88 110.96 57.53 Z" />
</g>
<g id="#9b9c99ff">
<path fill="#9b9c99" opacity="1.00" d=" M 31.92 64.14 C 35.05 62.79 37.04 59.82 39.51 57.60 C 39.45 58.25 39.32 59.55 39.25 60.20 C 39.22 60.52 39.14 61.18 39.11 61.50 C 38.83 62.77 38.53 64.04 38.19 65.29 C 35.86 66.42 33.56 67.73 30.98 68.21 C 29.11 68.02 27.52 66.91 25.85 66.15 L 25.73 64.44 C 25.76 63.86 25.81 62.72 25.83 62.15 C 27.76 63.01 29.65 65.10 31.92 64.14 Z" />
</g>
<g id="#393261ff">
<path fill="#393261" opacity="1.00" d=" M 25.18 59.45 L 25.90 58.33 C 25.88 59.28 25.85 61.19 25.83 62.15 C 25.81 62.72 25.76 63.86 25.73 64.44 C 24.05 69.59 26.70 74.59 29.04 79.05 C 26.35 77.14 23.68 75.21 21.11 73.15 C 22.69 69.42 23.83 65.53 24.31 61.50 C 24.46 60.76 24.75 60.08 25.18 59.45 Z" />
</g>
<g id="#4b437aff">
<path fill="#4b437a" opacity="1.00" d=" M 22.89 62.29 C 23.25 62.10 23.95 61.70 24.31 61.50 C 23.83 65.53 22.69 69.42 21.11 73.15 C 23.68 75.21 26.35 77.14 29.04 79.05 C 30.02 79.79 31.03 80.50 32.02 81.24 L 32.28 81.44 C 31.33 82.16 30.38 82.87 29.48 83.64 C 28.31 82.67 27.16 81.68 25.87 80.89 C 23.23 79.27 20.09 77.92 18.66 74.98 C 18.69 70.43 20.79 66.22 22.89 62.29 Z" />
</g>
<g id="#645a9fff">
<path fill="#645a9f" opacity="1.00" d=" M 13.48 72.21 C 16.33 68.66 19.01 64.81 22.89 62.29 C 20.79 66.22 18.69 70.43 18.66 74.98 C 20.09 77.92 23.23 79.27 25.87 80.89 C 20.27 79.53 15.02 82.17 9.89 84.00 C 11.06 80.20 12.66 76.57 14.36 72.99 C 13.37 73.58 12.37 74.17 11.39 74.77 C 11.14 73.46 12.02 72.05 13.48 72.21 Z" />
</g>
<g id="#6a6a6aff">
<path fill="#6a6a6a" opacity="1.00" d=" M 30.98 68.21 C 33.56 67.73 35.86 66.42 38.19 65.29 C 37.07 67.89 35.40 70.69 32.50 71.49 C 29.26 72.06 26.54 69.08 25.85 66.15 C 27.52 66.91 29.11 68.02 30.98 68.21 Z" />
</g>
<g id="#16182666">
<path fill="#161826" opacity="0.40" d=" M 112.45 65.92 C 112.58 65.80 112.85 65.55 112.98 65.43 C 113.30 66.54 113.62 67.64 113.94 68.75 C 113.05 69.53 112.17 70.32 111.30 71.13 C 111.84 70.11 112.44 69.13 113.02 68.14 C 112.88 67.58 112.59 66.48 112.45 65.92 Z" />
</g>
<g id="#6d62a5ff">
<path fill="#6d62a5" opacity="1.00" d=" M 107.10 66.09 C 108.02 66.26 108.95 66.42 109.87 66.59 C 109.10 69.68 108.34 72.79 108.05 75.97 C 106.78 76.63 104.84 76.84 104.62 78.59 C 103.84 81.49 103.68 84.50 103.35 87.47 C 101.92 87.84 100.50 88.31 99.03 88.46 C 96.68 87.58 94.71 85.97 92.62 84.61 C 92.61 84.20 92.57 83.39 92.55 82.98 C 95.83 80.88 98.80 78.34 101.66 75.71 C 104.47 73.16 105.29 69.29 107.10 66.09 Z" />
</g>
<g id="#9285d8ff">
<path fill="#9285d8" opacity="1.00" d=" M 11.39 74.77 C 12.37 74.17 13.37 73.58 14.36 72.99 C 12.66 76.57 11.06 80.20 9.89 84.00 C 15.02 82.17 20.27 79.53 25.87 80.89 C 27.16 81.68 28.31 82.67 29.48 83.64 C 29.14 84.18 28.45 85.25 28.11 85.79 C 25.91 85.56 23.71 85.68 21.51 85.85 C 18.49 85.85 15.55 86.62 12.79 87.81 C 11.00 88.64 8.99 88.52 7.07 88.69 C 6.11 87.33 5.35 85.85 4.75 84.30 C 6.65 80.92 9.06 77.86 11.39 74.77 Z" />
</g>
<g id="#dc90acff">
<path fill="#dc90ac" opacity="1.00" d=" M 43.96 75.12 C 45.93 74.43 47.97 73.94 50.03 73.54 C 49.70 74.47 49.38 75.40 49.06 76.32 C 51.94 76.26 54.80 76.68 57.53 77.61 C 58.37 80.89 59.11 84.85 56.64 87.63 C 53.63 90.73 50.02 93.69 45.63 94.43 C 42.69 94.99 39.74 95.66 37.11 97.16 C 36.31 97.56 35.52 97.97 34.73 98.38 C 33.74 98.06 32.75 97.72 31.78 97.35 C 35.62 94.15 40.59 93.43 45.42 93.31 C 46.96 91.28 48.97 89.44 49.74 86.96 C 49.90 83.85 45.81 83.11 44.63 80.63 C 44.18 78.83 44.12 76.96 43.96 75.12 Z" />
</g>
<g id="#b47693ff">
<path fill="#b47693" opacity="1.00" d=" M 50.03 73.54 C 53.74 73.51 57.47 73.90 61.06 74.90 C 65.60 79.34 63.30 86.40 59.54 90.53 C 54.61 94.41 48.49 96.52 42.40 97.77 C 40.63 97.69 38.87 97.42 37.11 97.16 C 39.74 95.66 42.69 94.99 45.63 94.43 C 50.02 93.69 53.63 90.73 56.64 87.63 C 59.11 84.85 58.37 80.89 57.53 77.61 C 54.80 76.68 51.94 76.26 49.06 76.32 C 49.38 75.40 49.70 74.47 50.03 73.54 Z" />
</g>
<g id="#835973ff">
<path fill="#835973" opacity="1.00" d=" M 61.06 74.90 C 61.93 75.16 62.80 75.42 63.67 75.70 C 64.77 76.78 66.18 77.75 66.70 79.27 C 66.76 82.62 65.13 85.72 63.62 88.62 C 62.79 90.00 61.90 91.35 60.96 92.66 C 59.76 93.83 58.44 94.86 57.10 95.87 C 59.12 96.16 61.13 96.49 63.13 96.82 C 61.52 96.65 59.91 96.48 58.30 96.30 C 56.45 97.12 54.60 97.92 52.78 98.78 C 49.35 98.14 45.87 97.92 42.40 97.77 C 48.49 96.52 54.61 94.41 59.54 90.53 C 63.30 86.40 65.60 79.34 61.06 74.90 Z" />
</g>
<g id="#f7a2c4ff">
<path fill="#f7a2c4" opacity="1.00" d=" M 32.02 81.24 C 35.83 78.90 39.83 76.85 43.96 75.12 C 44.12 76.96 44.18 78.83 44.63 80.63 C 45.81 83.11 49.90 83.85 49.74 86.96 C 48.97 89.44 46.96 91.28 45.42 93.31 C 40.59 93.43 35.62 94.15 31.78 97.35 C 30.78 96.97 29.78 96.57 28.79 96.17 C 28.61 95.82 28.23 95.10 28.05 94.75 C 28.38 90.36 30.83 86.65 32.42 82.68 C 32.39 82.37 32.32 81.75 32.28 81.44 L 32.02 81.24 Z" />
</g>
<g id="#8076c9ff">
<path fill="#8076c9" opacity="1.00" d=" M 104.62 78.59 C 104.84 76.84 106.78 76.63 108.05 75.97 L 108.16 77.65 C 108.33 80.80 109.07 83.89 109.18 87.05 C 109.24 89.25 107.23 90.48 105.61 91.51 C 102.91 93.13 99.61 93.94 96.73 92.25 C 95.23 91.33 93.76 90.37 92.24 89.49 C 84.42 84.48 75.15 88.48 67.46 91.63 C 65.29 91.95 63.12 92.29 60.96 92.66 C 61.90 91.35 62.79 90.00 63.62 88.62 C 69.01 87.93 73.89 85.42 79.12 84.11 C 83.50 82.88 88.12 83.90 92.55 82.98 C 92.57 83.39 92.61 84.20 92.62 84.61 C 94.71 85.97 96.68 87.58 99.03 88.46 C 100.50 88.31 101.92 87.84 103.35 87.47 C 103.68 84.50 103.84 81.49 104.62 78.59 Z" />
</g>
<g id="#fae2f0ff">
<path fill="#fae2f0" opacity="1.00" d=" M 29.48 83.64 C 30.38 82.87 31.33 82.16 32.28 81.44 C 32.32 81.75 32.39 82.37 32.42 82.68 C 30.83 86.65 28.38 90.36 28.05 94.75 L 27.09 93.41 L 26.95 92.73 C 26.99 91.63 27.00 90.52 26.99 89.42 C 27.07 88.13 27.44 86.92 28.11 85.79 C 28.45 85.25 29.14 84.18 29.48 83.64 Z" />
</g>
<g id="#343c58ab">
<path fill="#343c58" opacity="0.67" d=" M 12.79 87.81 C 15.55 86.62 18.49 85.85 21.51 85.85 C 18.85 87.32 15.69 87.18 12.79 87.81 Z" />
</g>
<g id="#607bb0ff">
<path fill="#607bb0" opacity="1.00" d=" M 67.46 91.63 C 75.15 88.48 84.42 84.48 92.24 89.49 C 90.65 90.57 89.06 91.65 87.47 92.73 C 88.64 93.65 89.82 94.58 90.90 95.62 C 91.07 95.90 91.40 96.47 91.56 96.76 C 86.58 93.72 81.06 96.42 75.77 96.69 C 76.81 96.26 77.84 95.80 78.86 95.34 C 78.26 95.17 77.05 94.81 76.45 94.63 C 77.28 93.79 78.11 92.95 78.94 92.11 C 75.13 91.70 71.29 91.56 67.46 91.63 Z" />
</g>
<g id="#5d545995">
<path fill="#5d5459" opacity="0.58" d=" M 26.95 92.73 C 25.03 93.13 25.09 88.85 26.99 89.42 C 27.00 90.52 26.99 91.63 26.95 92.73 Z" />
</g>
<g id="#544f8dff">
<path fill="#544f8d" opacity="1.00" d=" M 87.47 92.73 C 89.06 91.65 90.65 90.57 92.24 89.49 C 93.76 90.37 95.23 91.33 96.73 92.25 C 94.83 93.44 92.89 94.56 90.90 95.62 C 89.82 94.58 88.64 93.65 87.47 92.73 Z" />
</g>
<g id="#6a81b9ff">
<path fill="#6a81b9" opacity="1.00" d=" M 67.46 91.63 C 71.29 91.56 75.13 91.70 78.94 92.11 C 78.11 92.95 77.28 93.79 76.45 94.63 C 77.05 94.81 78.26 95.17 78.86 95.34 C 77.84 95.80 76.81 96.26 75.77 96.69 C 71.63 97.46 67.31 97.37 63.13 96.82 C 61.13 96.49 59.12 96.16 57.10 95.87 C 58.44 94.86 59.76 93.83 60.96 92.66 C 63.12 92.29 65.29 91.95 67.46 91.63 Z" />
</g>
<g id="#6c64aeff">
<path fill="#6c64ae" opacity="1.00" d=" M 96.73 92.25 C 99.61 93.94 102.91 93.13 105.61 91.51 C 106.88 96.67 109.17 101.56 109.91 106.85 C 108.58 108.55 106.80 109.84 104.56 109.83 C 105.38 108.23 106.41 106.72 106.90 104.98 C 106.39 100.37 102.84 97.00 98.94 94.94 C 98.01 96.53 97.07 98.12 96.14 99.72 C 95.45 99.50 94.76 99.26 94.08 99.02 C 93.06 98.52 92.07 97.81 91.56 96.76 C 91.40 96.47 91.07 95.90 90.90 95.62 C 92.89 94.56 94.83 93.44 96.73 92.25 Z" />
</g>
<g id="#7d73c5ff">
<path fill="#7d73c5" opacity="1.00" d=" M 96.14 99.72 C 97.07 98.12 98.01 96.53 98.94 94.94 C 102.84 97.00 106.39 100.37 106.90 104.98 C 106.41 106.72 105.38 108.23 104.56 109.83 C 100.81 106.49 97.34 102.83 94.08 99.02 C 94.76 99.26 95.45 99.50 96.14 99.72 Z" />
</g>
<g id="#635ca1fe">
<path fill="#635ca1" opacity="1.00" d=" M 28.56 96.49 C 28.62 96.41 28.74 96.25 28.79 96.17 C 29.78 96.57 30.78 96.97 31.78 97.35 C 32.75 97.72 33.74 98.06 34.73 98.38 C 35.12 98.50 35.90 98.72 36.29 98.83 C 33.74 101.40 31.13 103.93 28.13 105.98 C 27.13 105.54 26.14 105.11 25.14 104.68 L 25.37 104.40 C 25.55 104.18 25.91 103.75 26.08 103.54 C 28.26 101.77 28.65 99.14 28.56 96.49 Z" />
</g>
<g id="#a28e9efc">
<path fill="#a28e9e" opacity="1.00" d=" M 34.73 98.38 C 35.52 97.97 36.31 97.56 37.11 97.16 C 38.87 97.42 40.63 97.69 42.40 97.77 C 45.87 97.92 49.35 98.14 52.78 98.78 L 51.48 98.93 C 47.57 99.14 43.65 99.13 39.74 99.19 C 38.58 99.17 37.43 99.04 36.29 98.83 C 35.90 98.72 35.12 98.50 34.73 98.38 Z" />
</g>
<g id="#1f1d1e6d">
<path fill="#1f1d1e" opacity="0.43" d=" M 39.74 99.19 C 43.65 99.13 47.57 99.14 51.48 98.93 C 47.75 100.35 43.52 100.48 39.74 99.19 Z" />
</g>
</svg>
