<?xml version="1.0" encoding="UTF-8" ?>
<!DOCTYPE svg PUBLIC "-//W3C//DTD SVG 1.1//EN" "http://www.w3.org/Graphics/SVG/1.1/DTD/svg11.dtd">
<svg width="220pt" height="194pt" viewBox="0 0 220 194" version="1.1" xmlns="http://www.w3.org/2000/svg">
<g id="#13101650">
<path fill="#131016" opacity="0.31" d=" M 176.01 19.42 C 179.34 19.73 179.26 14.14 182.54 14.53 C 185.27 16.27 186.10 19.88 188.93 21.47 C 191.39 21.72 193.68 20.36 196.00 19.71 C 199.31 21.26 202.93 21.75 206.56 21.42 C 207.53 23.88 209.25 26.60 208.21 29.30 C 206.35 31.69 204.63 34.18 202.85 36.63 C 202.93 35.93 203.09 34.53 203.17 33.83 C 203.22 33.67 203.33 33.35 203.39 33.19 L 203.64 32.45 C 203.70 32.30 203.80 32.02 203.86 31.88 C 204.26 31.05 205.05 29.41 205.45 28.58 C 205.75 28.13 206.35 27.22 206.65 26.77 C 206.17 25.40 205.63 24.06 205.08 22.73 C 201.96 23.63 199.02 22.11 196.02 21.47 C 194.46 21.97 193.04 22.81 191.59 23.57 C 190.93 23.58 189.61 23.61 188.95 23.62 C 188.60 23.34 187.90 22.77 187.55 22.48 L 186.67 22.76 C 184.40 21.88 183.83 19.42 182.94 17.43 C 182.70 17.12 182.23 16.51 181.99 16.20 C 181.77 16.51 181.33 17.14 181.11 17.45 C 180.83 18.30 180.55 19.15 180.27 20.00 C 179.87 20.35 179.09 21.03 178.69 21.38 C 175.07 21.36 171.28 21.23 168.02 23.05 C 166.75 23.45 166.19 24.29 166.32 25.57 C 163.46 25.81 160.58 25.83 157.71 25.77 C 157.91 24.28 156.60 22.77 155.08 22.86 C 149.69 22.25 144.26 22.51 138.85 22.51 C 137.32 23.75 135.78 24.99 134.22 26.19 C 134.30 28.10 134.40 30.01 134.82 31.88 C 135.15 33.12 135.99 33.88 137.35 34.15 L 137.63 34.89 C 137.72 35.01 137.90 35.25 137.99 35.38 C 139.23 36.34 141.02 37.09 141.21 38.89 C 141.85 44.10 141.27 49.37 141.28 54.60 C 139.32 54.71 137.29 54.90 135.42 54.16 C 135.31 54.04 135.10 53.78 134.99 53.65 C 134.18 51.89 131.76 51.76 130.80 53.45 C 129.06 52.69 126.79 52.00 125.35 53.70 C 125.20 53.83 124.90 54.09 124.75 54.22 C 123.14 54.33 121.56 54.08 120.00 53.77 C 122.05 52.78 123.89 51.33 126.06 50.60 C 130.27 50.53 134.49 50.64 138.56 51.83 C 139.96 46.66 140.22 39.95 135.50 36.35 C 132.43 33.90 130.67 29.62 131.85 25.76 C 132.85 23.67 134.42 21.82 136.38 20.57 C 142.73 20.01 149.15 20.54 155.52 20.55 C 157.06 21.79 158.40 23.72 160.59 23.70 C 163.88 24.34 166.24 21.50 169.06 20.38 C 171.21 19.26 173.68 19.57 176.01 19.42 Z" />
</g>
<g id="#201c2470">
<path fill="#201c24" opacity="0.44" d=" M 181.11 17.45 C 181.33 17.14 181.77 16.51 181.99 16.20 C 182.23 16.51 182.70 17.12 182.94 17.43 C 182.48 17.44 181.57 17.45 181.11 17.45 Z" />
</g>
<g id="#706080ff">
<path fill="#706080" opacity="1.00" d=" M 180.27 20.00 C 180.55 19.15 180.83 18.30 181.11 17.45 C 181.57 17.45 182.48 17.44 182.94 17.43 C 183.83 19.42 184.40 21.88 186.67 22.76 C 187.24 22.98 188.38 23.41 188.95 23.62 C 189.61 23.61 190.93 23.58 191.59 23.57 C 195.85 23.46 200.06 24.10 204.25 24.71 C 204.65 26.00 205.05 27.29 205.45 28.58 C 205.05 29.41 204.26 31.05 203.86 31.88 C 203.80 32.02 203.70 32.30 203.64 32.45 L 203.39 33.19 C 203.33 33.35 203.22 33.67 203.17 33.83 C 200.32 35.33 200.14 38.41 200.27 41.29 C 203.92 43.18 207.68 44.85 211.29 46.82 C 212.02 51.08 213.54 55.67 211.19 59.71 C 211.80 59.90 213.02 60.27 213.63 60.46 L 213.82 60.52 C 211.69 60.57 209.57 60.52 207.45 60.58 C 207.47 61.16 207.50 61.74 207.53 62.32 C 205.06 62.32 202.88 63.71 200.40 63.53 L 200.55 64.52 C 199.10 64.53 197.65 64.56 196.21 64.60 C 196.28 63.91 196.43 62.53 196.50 61.85 C 196.20 61.26 195.60 60.09 195.30 59.51 C 194.94 59.52 194.23 59.56 193.87 59.58 C 193.03 58.30 191.25 58.63 190.26 57.57 L 189.74 57.46 C 188.01 55.39 184.81 56.60 182.48 56.46 C 182.50 57.00 182.55 58.09 182.57 58.64 C 181.87 58.55 180.48 58.37 179.78 58.28 L 179.00 56.75 C 178.42 58.23 177.26 58.84 175.53 58.57 L 175.54 59.42 C 174.82 59.56 173.39 59.84 172.67 59.98 C 171.67 60.23 170.67 60.51 169.68 60.81 C 169.55 64.20 169.48 67.59 169.58 70.99 C 173.21 72.63 178.08 75.35 177.63 80.02 C 177.76 82.00 177.22 83.91 176.18 85.59 C 175.04 84.61 173.92 83.62 172.79 82.64 C 170.21 82.29 167.49 82.35 165.08 81.26 C 163.57 80.24 162.29 78.83 160.49 78.28 C 160.47 78.00 160.44 77.43 160.42 77.14 C 159.19 77.86 157.96 78.58 156.75 79.33 C 156.68 78.66 156.52 77.31 156.44 76.64 C 152.13 72.28 148.81 66.78 143.41 63.61 C 139.13 60.98 134.83 58.40 130.44 55.96 C 130.50 55.48 130.64 54.52 130.70 54.05 L 130.80 53.45 C 132.19 53.64 133.58 53.71 134.99 53.65 C 135.10 53.78 135.31 54.04 135.42 54.16 C 137.29 54.90 139.32 54.71 141.28 54.60 C 145.58 52.31 144.53 46.94 144.49 42.91 C 144.44 38.31 141.24 34.75 138.36 31.51 C 136.97 30.21 137.57 28.15 137.36 26.47 C 142.15 25.22 147.14 25.42 152.04 25.69 C 154.70 25.68 156.15 28.33 158.41 29.33 C 160.42 29.69 162.47 29.51 164.51 29.50 C 167.40 26.26 171.04 23.70 175.34 22.75 C 175.88 22.65 176.96 22.45 177.50 22.35 C 177.79 22.11 178.39 21.62 178.69 21.38 C 179.09 21.03 179.87 20.35 180.27 20.00 Z" />
<path fill="#706080" opacity="1.00" d=" M 41.79 38.64 C 43.50 37.85 45.07 36.53 47.00 36.41 C 50.04 36.64 53.05 37.89 56.09 36.97 C 58.80 36.20 61.47 37.42 64.10 37.95 C 63.02 38.11 61.95 38.29 60.89 38.49 C 67.87 40.85 75.58 41.06 82.76 39.50 C 85.54 39.88 88.28 40.89 90.68 42.36 C 91.95 43.73 92.78 45.44 94.07 46.79 C 95.70 47.78 97.58 48.23 99.39 48.79 C 96.30 51.17 92.94 53.19 89.21 54.37 C 86.90 54.92 86.23 57.45 85.16 59.24 C 81.20 61.43 78.26 64.95 74.82 67.82 C 71.21 71.16 67.01 74.16 64.75 78.65 C 63.07 81.98 61.48 85.35 59.68 88.61 C 53.69 79.30 49.86 68.75 47.45 57.99 C 47.38 60.49 47.30 62.99 47.15 65.48 C 40.99 77.83 40.45 92.53 44.28 105.65 C 45.73 109.33 47.40 112.92 48.75 116.64 C 45.30 116.67 41.91 115.99 38.55 115.31 C 38.17 115.88 37.42 117.01 37.04 117.58 C 33.99 118.47 33.25 114.86 31.89 112.96 C 30.80 112.44 29.72 111.92 28.63 111.40 C 26.45 105.52 29.34 99.68 29.77 93.77 C 32.67 92.47 35.89 91.58 38.32 89.47 C 38.87 86.98 39.10 83.94 36.89 82.17 C 33.44 78.98 31.93 74.00 27.71 71.65 C 25.62 70.24 23.03 70.50 20.64 70.28 C 20.56 67.23 19.64 63.56 21.97 61.08 C 24.95 58.22 28.48 56.03 31.63 53.37 C 33.15 53.40 34.67 53.43 36.19 53.47 C 36.69 53.09 37.68 52.32 38.18 51.94 C 38.27 51.33 38.45 50.12 38.54 49.51 C 39.13 48.86 39.72 48.22 40.31 47.57 C 40.39 44.54 40.95 41.55 41.79 38.64 Z" />
<path fill="#706080" opacity="1.00" d=" M 164.61 115.39 C 167.83 114.81 170.48 116.57 173.07 118.17 C 177.47 117.61 181.76 116.30 186.11 115.40 C 186.72 115.76 187.95 116.46 188.57 116.81 C 188.51 118.00 188.46 119.19 188.40 120.39 C 191.75 123.25 195.40 125.75 199.30 127.82 C 199.32 132.75 203.32 136.92 202.27 141.91 C 201.96 143.90 201.51 145.87 201.10 147.84 C 197.66 147.86 195.81 150.75 196.32 153.99 C 200.36 157.76 198.27 163.68 198.74 168.53 C 196.64 170.38 194.34 171.97 191.82 173.17 C 191.40 172.54 190.56 171.29 190.13 170.66 C 186.65 169.87 183.09 169.49 179.52 169.36 C 175.97 172.44 176.49 178.05 172.27 180.54 C 170.07 180.06 167.85 179.67 165.61 179.39 C 165.56 178.73 165.46 177.41 165.41 176.75 C 158.23 173.73 150.14 176.97 142.84 174.22 C 142.41 173.81 141.57 172.99 141.15 172.58 C 140.01 172.53 138.87 172.48 137.74 172.43 C 136.30 170.51 134.73 168.66 132.69 167.36 C 130.47 165.29 127.62 164.44 124.62 164.62 C 125.06 161.79 124.94 158.93 124.59 156.10 C 130.15 154.49 136.11 153.45 140.79 149.79 C 145.81 145.55 152.63 142.83 155.44 136.49 C 158.54 130.17 163.02 124.32 164.14 117.22 C 164.26 116.76 164.49 115.84 164.61 115.39 Z" />
<path fill="#706080" opacity="1.00" d=" M 50.57 118.99 C 52.25 121.11 53.42 123.63 55.37 125.54 C 56.94 126.44 58.65 127.09 60.33 127.77 C 61.68 130.98 64.51 133.10 66.90 135.48 C 67.75 138.20 68.83 140.85 70.25 143.32 C 70.32 141.53 70.37 139.74 70.42 137.94 L 71.41 138.51 C 71.54 138.59 71.79 138.75 71.92 138.82 C 72.03 141.00 73.17 142.87 74.94 144.10 C 81.48 148.90 88.54 153.19 96.53 155.06 C 95.23 157.61 95.48 160.37 96.44 162.98 C 96.03 164.55 95.62 166.12 95.23 167.69 C 91.75 167.87 88.40 166.88 85.00 166.37 C 82.78 167.51 80.82 169.06 78.73 170.42 C 75.36 172.55 72.88 176.01 68.96 177.27 C 66.55 176.40 67.86 173.43 67.58 171.50 C 66.85 171.39 65.39 171.18 64.66 171.08 C 60.47 166.74 60.56 160.34 57.56 155.33 C 56.90 153.75 56.19 152.20 55.46 150.66 C 53.89 150.32 50.82 150.43 51.39 148.02 C 52.21 141.82 56.51 136.33 55.53 129.83 C 53.53 128.73 51.49 127.66 49.21 127.27 C 49.72 124.52 50.23 121.76 50.57 118.99 Z" />
</g>
<g id="#2e27358a">
<path fill="#2e2735" opacity="0.54" d=" M 168.02 23.05 C 171.28 21.23 175.07 21.36 178.69 21.38 C 178.39 21.62 177.79 22.11 177.50 22.35 C 176.96 22.45 175.88 22.65 175.34 22.75 C 172.90 22.91 170.46 22.98 168.02 23.05 Z" />
</g>
<g id="#26212c7d">
<path fill="#26212c" opacity="0.49" d=" M 186.67 22.76 L 187.55 22.48 C 187.90 22.77 188.60 23.34 188.95 23.62 C 188.38 23.41 187.24 22.98 186.67 22.76 Z" />
</g>
<g id="#43394cb5">
<path fill="#43394c" opacity="0.71" d=" M 191.59 23.57 C 193.04 22.81 194.46 21.97 196.02 21.47 C 199.02 22.11 201.96 23.63 205.08 22.73 C 205.63 24.06 206.17 25.40 206.65 26.77 C 206.35 27.22 205.75 28.13 205.45 28.58 C 205.05 27.29 204.65 26.00 204.25 24.71 C 200.06 24.10 195.85 23.46 191.59 23.57 Z" />
</g>
<g id="#4f4459cb">
<path fill="#4f4459" opacity="0.80" d=" M 134.22 26.19 C 135.78 24.99 137.32 23.75 138.85 22.51 C 144.26 22.51 149.69 22.25 155.08 22.86 C 154.73 24.40 156.09 26.07 157.71 25.77 C 160.58 25.83 163.46 25.81 166.32 25.57 C 167.78 25.40 168.34 24.56 168.02 23.05 C 170.46 22.98 172.90 22.91 175.34 22.75 C 171.04 23.70 167.40 26.26 164.51 29.50 C 162.47 29.51 160.42 29.69 158.41 29.33 C 156.15 28.33 154.70 25.68 152.04 25.69 C 147.14 25.42 142.15 25.22 137.36 26.47 C 137.57 28.15 136.97 30.21 138.36 31.51 C 141.24 34.75 144.44 38.31 144.49 42.91 C 144.53 46.94 145.58 52.31 141.28 54.60 C 141.27 49.37 141.85 44.10 141.21 38.89 C 141.02 37.09 139.23 36.34 137.99 35.38 C 137.90 35.25 137.72 35.01 137.63 34.89 L 137.35 34.15 C 137.16 32.54 136.32 31.78 134.82 31.88 C 134.40 30.01 134.30 28.10 134.22 26.19 Z" />
</g>
<g id="#211c2672">
<path fill="#211c26" opacity="0.45" d=" M 155.08 22.86 C 156.60 22.77 157.91 24.28 157.71 25.77 C 156.09 26.07 154.73 24.40 155.08 22.86 Z" />
</g>
<g id="#27212d7e">
<path fill="#27212d" opacity="0.49" d=" M 166.32 25.57 C 166.19 24.29 166.75 23.45 168.02 23.05 C 168.34 24.56 167.78 25.40 166.32 25.57 Z" />
</g>
<g id="#211d2675">
<path fill="#211d26" opacity="0.46" d=" M 203.64 32.45 C 203.70 32.30 203.80 32.02 203.86 31.88 C 203.80 32.02 203.70 32.30 203.64 32.45 Z" />
</g>
<g id="#2a243086">
<path fill="#2a2430" opacity="0.53" d=" M 134.82 31.88 C 136.32 31.78 137.16 32.54 137.35 34.15 C 135.99 33.88 135.15 33.12 134.82 31.88 Z" />
</g>
<g id="#18141b5a">
<path fill="#18141b" opacity="0.35" d=" M 42.99 34.99 C 46.00 32.28 49.73 34.36 52.97 35.28 C 56.95 33.41 61.04 34.98 65.03 35.72 C 70.67 35.22 76.33 35.89 81.96 35.36 C 85.55 35.11 88.99 36.53 92.25 37.87 C 94.99 39.00 95.98 42.34 98.77 43.40 C 102.28 44.97 106.12 45.78 109.47 47.70 C 111.54 48.82 111.98 51.31 112.84 53.29 C 112.14 53.28 110.73 53.26 110.03 53.25 L 111.20 51.62 C 110.23 50.70 109.27 49.77 108.31 48.83 C 106.64 48.32 104.97 47.77 103.31 47.24 C 100.19 46.18 97.08 45.10 93.96 44.03 C 93.43 42.64 92.90 41.26 92.36 39.88 C 88.28 38.88 84.05 36.14 79.83 38.03 C 76.92 39.07 74.00 37.01 71.05 37.61 C 68.75 38.03 66.42 38.36 64.10 37.95 C 61.47 37.42 58.80 36.20 56.09 36.97 C 53.05 37.89 50.04 36.64 47.00 36.41 C 45.07 36.53 43.50 37.85 41.79 38.64 C 40.95 41.55 40.39 44.54 40.31 47.57 C 39.72 48.22 39.13 48.86 38.54 49.51 C 38.45 50.12 38.27 51.33 38.18 51.94 C 37.68 52.32 36.69 53.09 36.19 53.47 C 34.67 53.43 33.15 53.40 31.63 53.37 C 28.48 56.03 24.95 58.22 21.97 61.08 C 19.64 63.56 20.56 67.23 20.64 70.28 C 23.03 70.50 25.62 70.24 27.71 71.65 C 31.93 74.00 33.44 78.98 36.89 82.17 C 39.10 83.94 38.87 86.98 38.32 89.47 C 35.89 91.58 32.67 92.47 29.77 93.77 C 29.34 99.68 26.45 105.52 28.63 111.40 C 29.72 111.92 30.80 112.44 31.89 112.96 C 33.25 114.86 33.99 118.47 37.04 117.58 C 37.42 117.01 38.17 115.88 38.55 115.31 C 41.91 115.99 45.30 116.67 48.75 116.64 C 49.33 117.44 49.97 118.20 50.57 118.99 C 50.23 121.76 49.72 124.52 49.21 127.27 C 51.49 127.66 53.53 128.73 55.53 129.83 C 56.51 136.33 52.21 141.82 51.39 148.02 C 50.82 150.43 53.89 150.32 55.46 150.66 C 56.19 152.20 56.90 153.75 57.56 155.33 C 58.64 160.87 60.27 166.34 62.68 171.45 C 63.95 173.93 63.58 176.79 63.63 179.48 C 66.34 180.56 69.35 182.36 72.32 181.15 C 74.35 180.07 76.95 178.89 77.35 176.34 C 77.81 174.36 78.25 172.38 78.73 170.42 C 80.82 169.06 82.78 167.51 85.00 166.37 C 88.40 166.88 91.75 167.87 95.23 167.69 C 95.62 166.12 96.03 164.55 96.44 162.98 C 95.48 160.37 95.23 157.61 96.53 155.06 C 98.43 155.66 100.31 156.31 102.16 157.03 C 102.60 157.49 103.48 158.40 103.92 158.85 C 106.28 158.73 108.59 158.22 110.89 157.74 C 109.16 160.57 109.33 163.96 110.12 167.07 C 108.45 169.35 106.31 171.23 104.52 173.40 C 104.31 174.84 104.37 176.29 104.40 177.74 C 104.44 180.27 107.09 182.85 109.61 181.38 C 113.41 180.15 113.17 174.39 116.99 173.50 C 122.00 174.88 120.95 181.46 124.60 184.23 C 124.11 180.45 123.12 176.60 124.23 172.83 C 124.69 170.95 125.10 168.74 126.97 167.73 C 128.85 167.37 130.78 167.38 132.69 167.36 C 134.73 168.66 136.30 170.51 137.74 172.43 C 138.87 172.48 140.01 172.53 141.15 172.58 C 141.57 172.99 142.41 173.81 142.84 174.22 C 150.14 176.97 158.23 173.73 165.41 176.75 C 165.46 177.41 165.56 178.73 165.61 179.39 C 167.85 179.67 170.07 180.06 172.27 180.54 C 176.49 178.05 175.97 172.44 179.52 169.36 C 183.09 169.49 186.65 169.87 190.13 170.66 C 190.56 171.29 191.40 172.54 191.82 173.17 C 194.34 171.97 196.64 170.38 198.74 168.53 C 198.27 163.68 200.36 157.76 196.32 153.99 C 195.81 150.75 197.66 147.86 201.10 147.84 C 201.56 147.68 202.49 147.38 202.96 147.23 C 203.31 145.03 204.01 142.84 203.97 140.60 C 203.16 136.60 201.78 132.74 200.96 128.75 C 200.54 128.51 199.71 128.05 199.30 127.82 C 195.40 125.75 191.75 123.25 188.40 120.39 C 188.46 119.19 188.51 118.00 188.57 116.81 C 187.95 116.46 186.72 115.76 186.11 115.40 C 181.76 116.30 177.47 117.61 173.07 118.17 C 170.48 116.57 167.83 114.81 164.61 115.39 C 164.49 115.84 164.26 116.76 164.14 117.22 C 164.86 112.13 166.10 107.00 165.02 101.86 C 166.66 104.97 164.92 108.73 166.17 111.87 C 169.62 112.54 172.43 115.57 176.14 114.63 C 180.48 114.73 185.13 110.75 189.01 114.17 C 191.05 115.16 191.48 117.51 191.52 119.56 C 194.62 123.25 199.47 124.82 202.83 128.03 C 203.87 134.66 207.28 141.55 204.42 148.21 C 202.10 149.07 199.81 150.10 198.04 151.86 C 199.51 153.90 201.57 155.68 202.44 158.07 C 202.68 162.05 202.03 166.16 200.88 169.95 C 198.29 173.13 194.17 174.58 191.49 177.71 C 189.27 174.39 186.37 171.04 181.92 171.53 C 177.84 172.95 178.09 177.79 177.17 181.25 C 173.19 182.41 169.36 184.66 165.08 184.25 C 164.57 181.38 163.30 178.16 160.08 177.54 C 154.77 176.88 149.41 177.94 144.10 177.31 C 141.39 176.12 138.68 174.91 135.88 173.91 C 133.82 172.44 132.04 170.60 130.00 169.09 C 126.69 170.91 126.18 174.67 125.37 177.99 C 126.32 180.37 126.58 182.92 126.41 185.46 C 124.87 185.23 122.76 185.96 121.79 184.35 C 120.50 181.51 120.32 178.12 118.05 175.78 C 115.36 177.82 113.88 181.16 110.84 182.76 C 109.24 183.81 107.26 183.37 105.46 183.45 C 103.50 180.56 100.69 177.79 100.60 174.08 C 101.44 171.15 104.55 169.13 104.69 165.92 C 103.84 164.22 102.31 163.03 100.98 161.75 C 98.60 163.52 98.38 166.60 97.00 169.00 C 93.02 172.51 88.09 168.30 83.60 169.32 C 81.92 171.43 80.60 173.77 79.98 176.41 C 78.49 179.20 75.70 181.25 75.08 184.52 C 70.53 183.12 65.43 183.58 61.58 180.27 C 61.43 177.25 62.10 174.05 61.10 171.16 C 57.68 165.84 58.19 158.91 54.22 153.85 C 53.20 152.28 51.22 152.65 49.64 152.35 C 49.38 150.40 48.85 148.49 48.74 146.53 C 49.77 142.21 52.76 138.41 52.74 133.86 C 51.47 131.27 47.96 130.97 45.90 129.11 C 45.40 126.23 45.72 123.19 44.33 120.50 C 40.37 120.23 36.39 120.68 32.44 120.32 C 28.75 115.93 25.85 110.75 24.70 105.04 C 26.32 100.75 25.26 95.75 27.54 91.67 C 30.26 90.15 33.54 89.86 36.13 88.04 C 37.80 86.44 35.70 84.72 34.72 83.48 C 32.47 81.25 31.24 78.25 29.07 75.97 C 26.31 73.30 21.89 74.31 18.96 71.98 C 16.17 68.52 15.49 62.98 18.55 59.49 C 21.89 56.89 25.42 54.52 28.69 51.83 C 31.06 49.58 35.13 50.57 37.11 47.90 C 38.11 43.24 38.36 37.68 42.99 34.99 Z" />
</g>
<g id="#201c2570">
<path fill="#201c25" opacity="0.44" d=" M 203.17 33.83 C 203.22 33.67 203.33 33.35 203.39 33.19 C 203.33 33.35 203.22 33.67 203.17 33.83 Z" />
</g>
<g id="#28222e7f">
<path fill="#28222e" opacity="0.50" d=" M 200.27 41.29 C 200.14 38.41 200.32 35.33 203.17 33.83 C 203.09 34.53 202.93 35.93 202.85 36.63 C 202.71 37.52 202.43 39.31 202.28 40.20 C 206.30 42.44 210.54 44.27 214.41 46.77 C 214.30 51.39 214.70 56.02 214.15 60.62 L 213.63 60.46 C 213.02 60.27 211.80 59.90 211.19 59.71 C 213.54 55.67 212.02 51.08 211.29 46.82 C 207.68 44.85 203.92 43.18 200.27 41.29 Z" />
</g>
<g id="#1d18216a">
<path fill="#1d1821" opacity="0.42" d=" M 137.63 34.89 C 137.72 35.01 137.90 35.25 137.99 35.38 C 137.90 35.25 137.72 35.01 137.63 34.89 Z" />
</g>
<g id="#4f4359ca">
<path fill="#4f4359" opacity="0.79" d=" M 79.83 38.03 C 84.05 36.14 88.28 38.88 92.36 39.88 C 92.90 41.26 93.43 42.64 93.96 44.03 C 97.08 45.10 100.19 46.18 103.31 47.24 C 103.46 47.46 103.77 47.89 103.92 48.11 C 106.86 47.86 108.56 50.01 108.89 52.70 C 105.93 50.93 102.72 49.65 99.39 48.79 C 97.58 48.23 95.70 47.78 94.07 46.79 C 92.78 45.44 91.95 43.73 90.68 42.36 C 88.28 40.89 85.54 39.88 82.76 39.50 C 75.58 41.06 67.87 40.85 60.89 38.49 C 61.95 38.29 63.02 38.11 64.10 37.95 C 66.42 38.36 68.75 38.03 71.05 37.61 C 74.00 37.01 76.92 39.07 79.83 38.03 Z" />
</g>
<g id="#1a1415ff">
<path fill="#1a1415" opacity="1.00" d=" M 103.31 47.24 C 104.97 47.77 106.64 48.32 108.31 48.83 C 109.27 49.77 110.23 50.70 111.20 51.62 L 110.03 53.25 C 110.73 53.26 112.14 53.28 112.84 53.29 C 115.23 53.32 117.66 53.14 120.00 53.77 C 121.56 54.08 123.14 54.33 124.75 54.22 C 124.90 54.09 125.20 53.83 125.35 53.70 C 127.06 54.21 129.00 55.09 130.70 54.05 C 130.64 54.52 130.50 55.48 130.44 55.96 C 134.83 58.40 139.13 60.98 143.41 63.61 C 148.81 66.78 152.13 72.28 156.44 76.64 C 156.52 77.31 156.68 78.66 156.75 79.33 C 155.03 80.47 153.38 81.69 151.66 82.82 C 141.52 90.69 131.04 98.11 120.66 105.66 C 113.08 110.57 105.53 115.53 97.86 120.30 C 98.47 121.07 99.07 121.84 99.70 122.60 C 99.40 123.66 99.13 124.73 98.87 125.80 C 99.05 126.09 99.43 126.68 99.62 126.97 C 101.43 129.67 103.77 131.97 106.05 134.27 C 103.94 134.21 101.79 134.17 99.71 134.60 C 97.66 135.34 96.12 137.10 94.03 137.78 C 89.28 139.25 84.31 139.78 79.52 141.08 C 76.81 140.25 74.12 139.35 71.41 138.51 L 70.42 137.94 C 69.18 137.22 68.03 136.36 66.90 135.48 C 64.51 133.10 61.68 130.98 60.33 127.77 C 64.69 130.60 69.46 128.42 73.93 127.19 C 76.61 124.46 78.82 121.31 81.58 118.67 C 81.26 118.37 80.62 117.78 80.30 117.48 C 80.34 116.97 80.42 115.97 80.45 115.47 C 77.73 112.21 74.97 108.99 72.11 105.85 C 67.24 100.67 63.41 94.63 59.68 88.61 C 61.48 85.35 63.07 81.98 64.75 78.65 C 67.01 74.16 71.21 71.16 74.82 67.82 C 78.26 64.95 81.20 61.43 85.16 59.24 C 88.85 58.00 92.45 56.50 96.16 55.29 C 100.32 53.87 104.81 54.33 109.03 53.18 L 108.89 52.70 C 108.56 50.01 106.86 47.86 103.92 48.11 C 103.77 47.89 103.46 47.46 103.31 47.24 M 95.44 74.43 C 90.64 74.91 85.84 79.34 86.53 84.38 C 89.56 92.28 102.97 87.89 101.79 79.93 C 102.03 76.52 98.75 73.78 95.44 74.43 M 84.67 104.02 C 83.70 107.81 82.79 111.67 82.96 115.61 C 87.02 113.43 86.13 107.61 84.67 104.02 M 97.81 117.30 C 98.29 113.94 98.53 110.39 97.09 107.20 C 95.39 110.22 94.74 114.92 97.81 117.30 M 73.24 131.61 C 77.33 129.78 80.69 126.52 81.80 122.08 C 79.79 125.95 76.54 128.86 73.24 131.61 Z" />
</g>
<g id="#5f526efb">
<path fill="#5f526e" opacity="1.00" d=" M 99.39 48.79 C 102.72 49.65 105.93 50.93 108.89 52.70 L 109.03 53.18 C 104.81 54.33 100.32 53.87 96.16 55.29 C 92.45 56.50 88.85 58.00 85.16 59.24 C 86.23 57.45 86.90 54.92 89.21 54.37 C 92.94 53.19 96.30 51.17 99.39 48.79 Z" />
</g>
<g id="#201c256e">
<path fill="#201c25" opacity="0.43" d=" M 125.35 53.70 C 126.79 52.00 129.06 52.69 130.80 53.45 L 130.70 54.05 C 129.00 55.09 127.06 54.21 125.35 53.70 Z" />
</g>
<g id="#2d263474">
<path fill="#2d2634" opacity="0.45" d=" M 130.80 53.45 C 131.76 51.76 134.18 51.89 134.99 53.65 C 133.58 53.71 132.19 53.64 130.80 53.45 Z" />
</g>
<g id="#18151c5e">
<path fill="#18151c" opacity="0.37" d=" M 124.75 54.22 C 124.90 54.09 125.20 53.83 125.35 53.70 C 125.20 53.83 124.90 54.09 124.75 54.22 Z" />
</g>
<g id="#2f28367f">
<path fill="#2f2836" opacity="0.50" d=" M 134.99 53.65 C 135.10 53.78 135.31 54.04 135.42 54.16 C 135.31 54.04 135.10 53.78 134.99 53.65 Z" />
</g>
<g id="#484052ff">
<path fill="#484052" opacity="1.00" d=" M 47.15 65.48 C 47.30 62.99 47.38 60.49 47.45 57.99 C 49.86 68.75 53.69 79.30 59.68 88.61 C 63.41 94.63 67.24 100.67 72.11 105.85 C 74.97 108.99 77.73 112.21 80.45 115.47 C 80.42 115.97 80.34 116.97 80.30 117.48 C 68.01 106.71 57.83 93.46 51.44 78.37 C 49.72 74.18 47.59 70.06 47.15 65.48 Z" />
</g>
<g id="#4e435acb">
<path fill="#4e435a" opacity="0.80" d=" M 169.68 60.81 C 170.67 60.51 171.67 60.23 172.67 59.98 L 173.65 59.75 C 173.83 62.78 172.80 66.13 174.17 68.95 C 174.18 70.84 175.81 71.64 177.48 71.74 C 177.51 72.38 177.58 73.66 177.61 74.30 C 179.06 74.27 181.06 75.11 180.65 76.94 C 180.87 80.06 180.69 83.19 180.65 86.32 C 178.69 87.92 176.10 87.71 173.73 87.74 L 173.06 86.77 C 169.59 85.98 166.06 85.47 162.52 85.19 C 162.57 85.71 162.66 86.74 162.70 87.25 C 162.33 86.56 161.59 85.17 161.22 84.48 C 160.76 82.44 160.61 80.36 160.49 78.28 C 162.29 78.83 163.57 80.24 165.08 81.26 C 167.49 82.35 170.21 82.29 172.79 82.64 C 173.92 83.62 175.04 84.61 176.18 85.59 C 177.22 83.91 177.76 82.00 177.63 80.02 C 178.08 75.35 173.21 72.63 169.58 70.99 C 169.48 67.59 169.55 64.20 169.68 60.81 Z" />
</g>
<g id="#ffffffff">
<path fill="#ffffff" opacity="1.00" d=" M 44.28 105.65 C 40.45 92.53 40.99 77.83 47.15 65.48 C 47.59 70.06 49.72 74.18 51.44 78.37 C 57.83 93.46 68.01 106.71 80.30 117.48 C 80.62 117.78 81.26 118.37 81.58 118.67 C 78.82 121.31 76.61 124.46 73.93 127.19 C 69.46 128.42 64.69 130.60 60.33 127.77 C 58.65 127.09 56.94 126.44 55.37 125.54 C 53.42 123.63 52.25 121.11 50.57 118.99 C 49.97 118.20 49.33 117.44 48.75 116.64 C 47.40 112.92 45.73 109.33 44.28 105.65 M 63.09 103.84 C 62.88 106.44 61.33 110.96 64.63 111.99 C 64.30 109.40 66.03 105.31 63.09 103.84 Z" />
<path fill="#ffffff" opacity="1.00" d=" M 156.75 79.33 C 157.96 78.58 159.19 77.86 160.42 77.14 C 160.44 77.43 160.47 78.00 160.49 78.28 C 160.61 80.36 160.76 82.44 161.22 84.48 C 158.32 90.29 161.69 97.46 158.00 102.96 C 152.27 110.29 144.48 115.50 137.05 120.92 C 131.63 124.02 126.43 127.97 120.03 128.71 C 114.81 129.75 109.71 127.73 104.51 127.84 C 102.93 126.06 101.26 124.38 99.70 122.60 C 99.07 121.84 98.47 121.07 97.86 120.30 C 105.53 115.53 113.08 110.57 120.66 105.66 C 131.04 98.11 141.52 90.69 151.66 82.82 C 153.38 81.69 155.03 80.47 156.75 79.33 M 118.84 119.09 C 119.20 119.18 119.92 119.37 120.28 119.46 C 122.01 116.84 122.34 112.77 120.09 110.36 C 116.42 111.19 117.46 116.54 118.84 119.09 Z" />
</g>
<g id="#3d3738ff">
<path fill="#3d3738" opacity="1.00" d=" M 95.44 74.43 C 98.75 73.78 102.03 76.52 101.79 79.93 C 102.97 87.89 89.56 92.28 86.53 84.38 C 85.84 79.34 90.64 74.91 95.44 74.43 M 90.68 81.01 C 89.90 82.63 91.25 84.68 93.04 84.51 C 95.53 84.84 97.13 82.71 98.42 80.95 C 97.72 79.44 96.85 77.71 94.94 77.57 C 93.11 78.06 91.39 79.19 90.68 81.01 Z" />
</g>
<g id="#645e5fff">
<path fill="#645e5f" opacity="1.00" d=" M 90.68 81.01 C 91.39 79.19 93.11 78.06 94.94 77.57 C 96.85 77.71 97.72 79.44 98.42 80.95 C 97.13 82.71 95.53 84.84 93.04 84.51 C 91.25 84.68 89.90 82.63 90.68 81.01 Z" />
</g>
<g id="#f1f1f1ff">
<path fill="#f1f1f1" opacity="1.00" d=" M 158.00 102.96 C 161.69 97.46 158.32 90.29 161.22 84.48 C 161.59 85.17 162.33 86.56 162.70 87.25 L 162.98 87.80 C 163.58 89.65 163.98 91.58 163.99 93.54 C 161.68 98.98 161.67 105.23 158.21 110.20 C 155.54 115.63 150.70 119.36 146.60 123.62 C 142.95 127.22 138.38 129.75 133.68 131.72 C 128.06 133.98 121.88 132.86 116.09 132.01 C 115.39 132.43 113.99 133.28 113.28 133.70 C 109.85 132.60 106.65 130.83 104.51 127.84 C 109.71 127.73 114.81 129.75 120.03 128.71 C 126.43 127.97 131.63 124.02 137.05 120.92 C 144.48 115.50 152.27 110.29 158.00 102.96 Z" />
</g>
<g id="#110d0eff">
<path fill="#110d0e" opacity="1.00" d=" M 162.98 87.80 C 165.74 91.97 163.73 97.25 165.02 101.86 C 166.10 107.00 164.86 112.13 164.14 117.22 C 163.02 124.32 158.54 130.17 155.44 136.49 C 152.63 142.83 145.81 145.55 140.79 149.79 C 136.11 153.45 130.15 154.49 124.59 156.10 C 117.30 157.89 109.58 157.74 102.16 157.03 C 100.31 156.31 98.43 155.66 96.53 155.06 C 88.54 153.19 81.48 148.90 74.94 144.10 C 73.17 142.87 72.03 141.00 71.92 138.82 C 80.74 144.96 91.45 147.44 102.05 147.87 C 108.96 148.83 115.79 147.19 122.54 145.93 C 123.20 147.53 123.88 149.12 124.57 150.70 C 125.81 148.64 126.74 146.35 128.33 144.51 C 131.87 143.15 135.50 142.01 138.95 140.39 C 133.15 141.35 127.54 143.21 121.69 143.87 C 112.96 144.75 104.16 144.71 95.40 144.40 C 89.99 143.99 84.75 142.44 79.52 141.08 C 84.31 139.78 89.28 139.25 94.03 137.78 C 96.12 137.10 97.66 135.34 99.71 134.60 C 101.79 134.17 103.94 134.21 106.05 134.27 C 107.83 134.94 109.64 135.54 111.47 136.06 C 107.35 132.60 103.39 128.99 99.74 125.03 L 99.62 126.97 C 99.43 126.68 99.05 126.09 98.87 125.80 C 99.13 124.73 99.40 123.66 99.70 122.60 C 101.26 124.38 102.93 126.06 104.51 127.84 C 106.65 130.83 109.85 132.60 113.28 133.70 C 116.75 134.92 120.12 137.18 123.94 136.58 C 129.93 135.98 136.38 136.39 141.53 132.75 C 144.41 131.32 147.59 130.25 149.98 128.01 C 154.63 123.13 160.32 118.62 161.63 111.61 C 162.58 109.48 163.61 107.37 164.21 105.11 C 164.46 101.26 164.07 97.39 163.99 93.54 C 163.98 91.58 163.58 89.65 162.98 87.80 Z" />
</g>
<g id="#dfdfdfff">
<path fill="#dfdfdf" opacity="1.00" d=" M 158.21 110.20 C 161.67 105.23 161.68 98.98 163.99 93.54 C 164.07 97.39 164.46 101.26 164.21 105.11 C 163.61 107.37 162.58 109.48 161.63 111.61 C 158.25 114.90 155.42 118.71 151.94 121.91 C 148.47 125.52 144.28 128.49 141.53 132.75 C 136.38 136.39 129.93 135.98 123.94 136.58 C 120.12 137.18 116.75 134.92 113.28 133.70 C 113.99 133.28 115.39 132.43 116.09 132.01 C 121.88 132.86 128.06 133.98 133.68 131.72 C 138.38 129.75 142.95 127.22 146.60 123.62 C 150.70 119.36 155.54 115.63 158.21 110.20 Z" />
<path fill="#dfdfdf" opacity="1.00" d=" M 66.90 135.48 C 68.03 136.36 69.18 137.22 70.42 137.94 C 70.37 139.74 70.32 141.53 70.25 143.32 C 68.83 140.85 67.75 138.20 66.90 135.48 Z" />
</g>
<g id="#0c0506ff">
<path fill="#0c0506" opacity="1.00" d=" M 63.09 103.84 C 66.03 105.31 64.30 109.40 64.63 111.99 C 61.33 110.96 62.88 106.44 63.09 103.84 Z" />
</g>
<g id="#452b2cff">
<path fill="#452b2c" opacity="1.00" d=" M 84.67 104.02 C 86.13 107.61 87.02 113.43 82.96 115.61 C 82.79 111.67 83.70 107.81 84.67 104.02 Z" />
</g>
<g id="#533333ff">
<path fill="#533333" opacity="1.00" d=" M 97.81 117.30 C 94.74 114.92 95.39 110.22 97.09 107.20 C 98.53 110.39 98.29 113.94 97.81 117.30 Z" />
</g>
<g id="#191718ff">
<path fill="#191718" opacity="1.00" d=" M 118.84 119.09 C 117.46 116.54 116.42 111.19 120.09 110.36 C 122.34 112.77 122.01 116.84 120.28 119.46 C 119.92 119.37 119.20 119.18 118.84 119.09 Z" />
</g>
<g id="#bab9baff">
<path fill="#bab9ba" opacity="1.00" d=" M 151.94 121.91 C 155.42 118.71 158.25 114.90 161.63 111.61 C 160.32 118.62 154.63 123.13 149.98 128.01 C 147.59 130.25 144.41 131.32 141.53 132.75 C 144.28 128.49 148.47 125.52 151.94 121.91 Z" />
</g>
<g id="#c46f78ff">
<path fill="#c46f78" opacity="1.00" d=" M 73.24 131.61 C 76.54 128.86 79.79 125.95 81.80 122.08 C 80.69 126.52 77.33 129.78 73.24 131.61 Z" />
<path fill="#c46f78" opacity="1.00" d=" M 71.41 138.51 C 74.12 139.35 76.81 140.25 79.52 141.08 C 84.75 142.44 89.99 143.99 95.40 144.40 C 104.16 144.71 112.96 144.75 121.69 143.87 C 121.90 144.39 122.33 145.42 122.54 145.93 C 115.79 147.19 108.96 148.83 102.05 147.87 C 91.45 147.44 80.74 144.96 71.92 138.82 C 71.79 138.75 71.54 138.59 71.41 138.51 Z" />
</g>
<g id="#563536ff">
<path fill="#563536" opacity="1.00" d=" M 99.74 125.03 C 103.39 128.99 107.35 132.60 111.47 136.06 C 109.64 135.54 107.83 134.94 106.05 134.27 C 103.77 131.97 101.43 129.67 99.62 126.97 L 99.74 125.03 Z" />
</g>
<g id="#3d3446aa">
<path fill="#3d3446" opacity="0.67" d=" M 199.30 127.82 C 199.71 128.05 200.54 128.51 200.96 128.75 C 201.78 132.74 203.16 136.60 203.97 140.60 C 204.01 142.84 203.31 145.03 202.96 147.23 C 202.49 147.38 201.56 147.68 201.10 147.84 C 201.51 145.87 201.96 143.90 202.27 141.91 C 203.32 136.92 199.32 132.75 199.30 127.82 Z" />
</g>
<g id="#b38eb3ff">
<path fill="#b38eb3" opacity="1.00" d=" M 121.69 143.87 C 127.54 143.21 133.15 141.35 138.95 140.39 C 135.50 142.01 131.87 143.15 128.33 144.51 C 126.74 146.35 125.81 148.64 124.57 150.70 C 123.88 149.12 123.20 147.53 122.54 145.93 C 122.33 145.42 121.90 144.39 121.69 143.87 Z" />
</g>
<g id="#29232f83">
<path fill="#29232f" opacity="0.51" d=" M 57.56 155.33 C 60.56 160.34 60.47 166.74 64.66 171.08 C 65.68 174.20 65.26 178.69 69.25 179.69 C 72.21 179.84 74.70 177.46 77.35 176.34 C 76.95 178.89 74.35 180.07 72.32 181.15 C 69.35 182.36 66.34 180.56 63.63 179.48 C 63.58 176.79 63.95 173.93 62.68 171.45 C 60.27 166.34 58.64 160.87 57.56 155.33 Z" />
</g>
<g id="#5d506ae1">
<path fill="#5d506a" opacity="0.88" d=" M 102.16 157.03 C 109.58 157.74 117.30 157.89 124.59 156.10 C 124.94 158.93 125.06 161.79 124.62 164.62 C 127.62 164.44 130.47 165.29 132.69 167.36 C 130.78 167.38 128.85 167.37 126.97 167.73 C 125.10 168.74 124.69 170.95 124.23 172.83 C 121.52 174.46 119.26 172.64 117.34 170.76 C 117.49 168.99 117.63 167.22 117.77 165.44 C 119.29 164.76 121.20 164.66 122.38 163.41 C 122.47 162.46 122.65 160.56 122.74 159.61 C 121.92 158.87 121.11 158.13 120.30 157.39 C 117.16 157.37 114.01 157.32 110.89 157.74 C 108.59 158.22 106.28 158.73 103.92 158.85 C 103.48 158.40 102.60 157.49 102.16 157.03 Z" />
</g>
<g id="#03030418">
<path fill="#030304" opacity="0.09" d=" M 110.89 157.74 C 114.01 157.32 117.16 157.37 120.30 157.39 C 121.11 158.13 121.92 158.87 122.74 159.61 C 122.65 160.56 122.47 162.46 122.38 163.41 C 121.20 164.66 119.29 164.76 117.77 165.44 L 116.68 165.84 C 115.85 167.19 115.10 168.59 114.35 169.99 C 113.96 170.22 113.19 170.67 112.80 170.90 C 111.86 169.65 110.96 168.38 110.12 167.07 C 109.33 163.96 109.16 160.57 110.89 157.74 Z" />
</g>
<g id="#28232e81">
<path fill="#28232e" opacity="0.51" d=" M 116.68 165.84 L 117.77 165.44 C 117.63 167.22 117.49 168.99 117.34 170.76 C 119.26 172.64 121.52 174.46 124.23 172.83 C 123.12 176.60 124.11 180.45 124.60 184.23 C 120.95 181.46 122.00 174.88 116.99 173.50 C 113.17 174.39 113.41 180.15 109.61 181.38 C 107.09 182.85 104.44 180.27 104.40 177.74 C 105.67 178.43 106.95 179.14 108.22 179.86 C 111.54 177.49 112.80 173.56 114.35 169.99 C 115.10 168.59 115.85 167.19 116.68 165.84 Z" />
</g>
<g id="#584b64d8">
<path fill="#584b64" opacity="0.85" d=" M 104.52 173.40 C 106.31 171.23 108.45 169.35 110.12 167.07 C 110.96 168.38 111.86 169.65 112.80 170.90 C 113.19 170.67 113.96 170.22 114.35 169.99 C 112.80 173.56 111.54 177.49 108.22 179.86 C 106.95 179.14 105.67 178.43 104.40 177.74 C 104.37 176.29 104.31 174.84 104.52 173.40 Z" />
</g>
<g id="#574a63d8">
<path fill="#574a63" opacity="0.85" d=" M 64.66 171.08 C 65.39 171.18 66.85 171.39 67.58 171.50 C 67.86 173.43 66.55 176.40 68.96 177.27 C 72.88 176.01 75.36 172.55 78.73 170.42 C 78.25 172.38 77.81 174.36 77.35 176.34 C 74.70 177.46 72.21 179.84 69.25 179.69 C 65.26 178.69 65.68 174.20 64.66 171.08 Z" />
</g>
</svg>
