<?xml version="1.0" encoding="UTF-8" ?>
<!DOCTYPE svg PUBLIC "-//W3C//DTD SVG 1.1//EN" "http://www.w3.org/Graphics/SVG/1.1/DTD/svg11.dtd">
<svg width="248pt" height="212pt" viewBox="0 0 248 212" version="1.1" xmlns="http://www.w3.org/2000/svg">
<g id="#bba9cef8">
<path fill="#bba9ce" opacity="0.97" d=" M 73.01 4.91 C 79.77 7.39 85.59 12.05 91.19 16.53 C 86.97 17.74 83.20 14.67 79.15 13.97 C 79.62 17.79 80.35 21.70 78.39 25.23 C 76.10 18.66 73.55 11.87 73.01 4.91 Z" />
</g>
<g id="#a798b7ed">
<path fill="#a798b7" opacity="0.93" d=" M 233.96 11.90 C 236.21 9.40 240.82 9.41 244.06 8.14 C 244.04 8.56 244.00 9.40 243.98 9.82 C 243.52 9.89 242.58 10.04 242.11 10.11 C 239.57 10.40 237.42 11.89 235.06 12.74 C 234.78 12.53 234.24 12.11 233.96 11.90 Z" />
</g>
<g id="#867db8ff">
<path fill="#867db8" opacity="1.00" d=" M 235.06 12.74 C 237.42 11.89 239.57 10.40 242.11 10.11 C 240.57 12.17 239.14 14.34 237.31 16.17 C 228.83 19.81 222.38 26.59 214.94 31.85 C 206.39 37.90 198.43 44.78 190.03 51.04 C 185.56 55.54 178.02 55.95 175.01 61.99 C 172.53 67.89 170.01 73.85 165.92 78.85 C 164.95 78.30 164.06 77.65 163.10 77.10 C 153.09 82.51 144.85 90.81 138.12 99.91 C 137.38 100.86 136.62 101.81 135.87 102.76 C 132.73 106.44 129.98 110.45 126.89 114.19 C 124.83 116.44 123.05 119.91 118.96 118.00 C 114.80 118.39 111.11 120.80 107.64 122.99 C 106.38 121.96 105.08 120.98 103.80 119.98 C 105.55 118.40 106.33 116.24 105.98 113.89 C 108.35 114.62 110.69 115.50 113.12 116.01 C 112.57 114.29 111.55 112.77 110.73 111.17 C 114.79 108.72 120.15 110.07 123.77 106.77 C 131.11 102.37 138.14 97.21 143.34 90.31 C 150.50 83.49 158.40 77.22 163.63 68.65 C 166.18 64.94 164.70 59.73 167.20 56.20 C 172.77 52.73 179.60 52.69 185.68 50.65 C 194.74 44.64 202.68 37.05 211.98 31.36 C 211.45 31.04 210.38 30.41 209.85 30.09 C 216.46 27.87 222.00 22.58 226.91 17.83 C 227.20 17.36 227.79 16.42 228.09 15.95 C 230.37 14.79 232.68 13.68 235.06 12.74 Z" />
</g>
<g id="#5a5792fb">
<path fill="#5a5792" opacity="1.00" d=" M 242.11 10.11 C 242.58 10.04 243.52 9.89 243.98 9.82 C 239.78 18.91 231.97 25.98 226.47 34.40 C 225.77 35.16 225.42 36.60 224.24 36.70 C 219.76 37.62 217.97 42.95 215.05 46.03 C 210.26 51.63 207.22 62.74 197.78 60.92 C 203.94 52.58 211.46 45.13 217.98 36.98 C 220.68 32.99 225.47 31.03 227.98 26.89 C 229.33 25.23 230.72 23.61 231.91 21.82 C 233.86 20.09 236.30 18.73 237.31 16.17 C 239.14 14.34 240.57 12.17 242.11 10.11 Z" />
</g>
<g id="#c8b5d6f1">
<path fill="#c8b5d6" opacity="0.95" d=" M 207.34 22.45 C 216.30 19.17 224.87 14.77 233.96 11.90 C 234.24 12.11 234.78 12.53 235.06 12.74 C 232.68 13.68 230.37 14.79 228.09 15.95 C 219.42 18.63 211.19 22.55 202.71 25.76 C 201.49 26.30 200.21 26.85 198.85 26.51 C 201.18 24.28 204.52 23.82 207.34 22.45 Z" />
</g>
<g id="#b2a1c9fc">
<path fill="#b2a1c9" opacity="1.00" d=" M 79.15 13.97 C 83.20 14.67 86.97 17.74 91.19 16.53 C 98.98 20.89 107.24 26.50 114.35 32.22 C 113.05 34.24 110.95 35.52 109.10 36.98 C 106.46 37.72 104.27 39.46 102.10 41.06 C 100.70 41.34 99.31 41.63 97.91 41.89 C 100.07 38.53 107.18 38.01 105.80 33.30 C 98.27 28.11 92.16 18.46 81.99 18.97 C 81.25 22.86 82.13 26.62 83.91 30.04 C 86.37 35.10 87.06 40.77 89.21 45.94 C 92.42 45.45 94.95 43.10 97.91 41.89 C 94.98 44.81 91.53 48.21 87.28 48.90 C 84.55 43.50 83.72 37.06 81.16 31.86 C 81.10 32.38 80.99 33.42 80.94 33.94 L 80.12 33.94 C 80.42 30.88 78.15 28.11 78.39 25.23 C 80.35 21.70 79.62 17.79 79.15 13.97 Z" />
</g>
<g id="#b3a3cbfd">
<path fill="#b3a3cb" opacity="1.00" d=" M 202.71 25.76 C 211.19 22.55 219.42 18.63 228.09 15.95 C 227.79 16.42 227.20 17.36 226.91 17.83 C 222.33 18.78 218.80 22.12 214.34 23.38 C 212.01 24.13 209.52 24.84 207.88 26.78 C 200.08 29.55 192.78 33.59 185.30 37.10 C 185.00 36.85 184.41 36.34 184.11 36.09 C 184.16 35.63 184.26 34.72 184.31 34.26 C 188.71 31.61 194.13 30.39 197.97 26.95 C 198.19 26.84 198.63 26.62 198.85 26.51 C 200.21 26.85 201.49 26.30 202.71 25.76 Z" />
</g>
<g id="#7a72a9ff">
<path fill="#7a72a9" opacity="1.00" d=" M 214.94 31.85 C 222.38 26.59 228.83 19.81 237.31 16.17 C 236.30 18.73 233.86 20.09 231.91 21.82 C 222.52 27.09 214.36 34.18 208.02 42.88 C 202.70 43.40 199.62 48.69 195.33 51.38 C 191.38 53.38 191.24 58.37 187.51 60.52 C 186.20 63.52 186.61 67.10 184.89 69.93 C 180.00 78.18 174.60 86.13 168.82 93.78 C 167.96 95.03 166.41 94.93 165.09 95.18 C 164.84 94.83 164.33 94.15 164.07 93.80 C 164.07 93.09 164.05 91.67 164.04 90.97 C 172.45 81.25 179.57 70.38 184.51 58.50 C 186.45 57.12 188.69 56.14 189.98 53.97 C 197.56 45.83 208.55 41.18 214.94 31.85 Z" />
</g>
<g id="#958ac5ff">
<path fill="#958ac5" opacity="1.00" d=" M 214.34 23.38 C 218.80 22.12 222.33 18.78 226.91 17.83 C 222.00 22.58 216.46 27.87 209.85 30.09 C 208.52 30.19 207.14 30.25 206.01 31.04 C 197.22 36.09 187.78 40.26 180.24 47.23 C 178.47 48.73 176.14 46.79 174.11 47.21 C 168.40 47.86 162.57 48.13 157.10 50.06 C 154.84 50.08 152.59 49.78 150.45 49.06 C 149.02 46.67 146.16 46.94 143.76 46.63 C 148.78 44.43 153.98 42.72 159.24 41.19 C 164.87 39.66 169.89 42.02 174.93 43.91 C 186.24 39.06 197.88 34.00 207.88 26.78 C 209.52 24.84 212.01 24.13 214.34 23.38 Z" />
</g>
<g id="#a99ac9ff">
<path fill="#a99ac9" opacity="1.00" d=" M 81.99 18.97 C 92.16 18.46 98.27 28.11 105.80 33.30 C 107.18 38.01 100.07 38.53 97.91 41.89 C 94.95 43.10 92.42 45.45 89.21 45.94 C 87.06 40.77 86.37 35.10 83.91 30.04 C 82.13 26.62 81.25 22.86 81.99 18.97 Z" />
<path fill="#a99ac9" opacity="1.00" d=" M 121.10 42.14 C 135.59 35.59 152.04 35.11 167.63 36.40 C 170.42 36.89 172.70 38.60 175.12 39.94 C 178.50 40.27 181.31 37.61 184.11 36.09 C 184.41 36.34 185.00 36.85 185.30 37.10 C 181.78 39.14 178.10 41.28 174.06 42.00 C 170.06 40.42 166.99 36.17 162.02 37.93 C 147.36 37.86 132.30 39.84 118.80 45.83 C 106.48 52.04 94.86 63.03 92.73 77.18 C 92.06 76.09 91.37 75.02 90.67 73.97 C 92.74 58.24 107.03 47.27 121.10 42.14 Z" />
</g>
<g id="#6f699cff">
<path fill="#6f699c" opacity="1.00" d=" M 208.02 42.88 C 214.36 34.18 222.52 27.09 231.91 21.82 C 230.72 23.61 229.33 25.23 227.98 26.89 C 215.18 33.47 209.29 47.76 197.25 55.25 C 194.03 57.01 194.85 61.07 196.18 63.92 C 201.39 64.56 205.69 60.85 209.21 57.54 C 209.49 57.56 210.04 57.60 210.32 57.63 L 210.18 58.90 C 209.77 59.40 208.95 60.42 208.54 60.92 C 207.44 61.94 206.68 63.30 207.02 64.85 C 209.91 66.00 213.55 65.03 215.95 67.19 C 215.87 68.53 215.54 69.85 215.31 71.17 C 219.53 70.91 222.30 67.28 226.09 65.96 C 223.31 71.09 217.81 72.49 213.11 75.07 C 209.63 76.20 206.21 75.53 202.91 74.20 C 198.68 74.99 194.26 75.58 190.31 77.30 C 182.74 89.69 173.92 101.39 163.74 111.75 C 163.76 112.69 159.97 114.15 161.72 115.24 L 162.24 115.76 C 158.00 117.03 153.48 119.18 152.86 124.04 C 151.80 124.80 150.75 125.99 149.36 125.21 C 148.22 123.98 146.95 122.89 145.68 121.80 C 149.54 118.55 153.98 115.63 156.58 111.23 L 155.98 110.67 C 158.91 109.53 162.65 108.28 163.83 105.14 C 164.02 101.36 164.03 97.58 164.07 93.80 C 164.33 94.15 164.84 94.83 165.09 95.18 C 165.01 97.80 164.98 100.41 165.03 103.04 C 169.48 101.47 171.66 96.98 174.64 93.64 C 180.34 87.05 183.86 78.94 188.92 71.93 C 190.53 71.02 191.12 69.41 190.67 67.63 C 188.50 62.89 193.76 59.89 193.42 55.33 C 197.35 50.26 204.06 47.98 208.02 42.88 Z" />
</g>
<g id="#d1bad7f5">
<path fill="#d1bad7" opacity="0.96" d=" M 174.02 36.12 C 181.93 33.00 189.78 29.05 197.97 26.95 C 194.13 30.39 188.71 31.61 184.31 34.26 C 184.26 34.72 184.16 35.63 184.11 36.09 C 180.83 34.28 176.57 38.25 174.02 36.12 Z" />
</g>
<g id="#a194c9ff">
<path fill="#a194c9" opacity="1.00" d=" M 185.30 37.10 C 192.78 33.59 200.08 29.55 207.88 26.78 C 197.88 34.00 186.24 39.06 174.93 43.91 C 169.89 42.02 164.87 39.66 159.24 41.19 C 152.37 40.22 145.74 42.42 138.96 42.93 C 131.02 43.64 124.19 48.06 116.96 50.97 C 105.69 58.25 96.81 69.67 95.23 83.27 C 94.70 82.13 94.19 80.98 93.71 79.83 C 93.38 78.94 93.06 78.06 92.73 77.18 C 94.86 63.03 106.48 52.04 118.80 45.83 C 132.30 39.84 147.36 37.86 162.02 37.93 C 166.99 36.17 170.06 40.42 174.06 42.00 C 178.10 41.28 181.78 39.14 185.30 37.10 Z" />
</g>
<g id="#615c95fb">
<path fill="#615c95" opacity="1.00" d=" M 197.25 55.25 C 209.29 47.76 215.18 33.47 227.98 26.89 C 225.47 31.03 220.68 32.99 217.98 36.98 C 211.46 45.13 203.94 52.58 197.78 60.92 C 207.22 62.74 210.26 51.63 215.05 46.03 C 217.97 42.95 219.76 37.62 224.24 36.70 C 220.21 43.99 215.37 50.81 210.89 57.83 L 210.32 57.63 C 210.04 57.60 209.49 57.56 209.21 57.54 C 205.69 60.85 201.39 64.56 196.18 63.92 C 194.85 61.07 194.03 57.01 197.25 55.25 Z" />
</g>
<g id="#8c82c2ff">
<path fill="#8c82c2" opacity="1.00" d=" M 206.01 31.04 C 207.14 30.25 208.52 30.19 209.85 30.09 C 210.38 30.41 211.45 31.04 211.98 31.36 C 202.68 37.05 194.74 44.64 185.68 50.65 C 179.60 52.69 172.77 52.73 167.20 56.20 C 164.70 59.73 166.18 64.94 163.63 68.65 C 158.40 77.22 150.50 83.49 143.34 90.31 C 138.14 97.21 131.11 102.37 123.77 106.77 C 120.15 110.07 114.79 108.72 110.73 111.17 C 110.09 110.08 109.49 108.98 108.89 107.87 C 107.49 105.06 105.75 102.43 103.99 99.84 C 103.77 99.44 103.34 98.64 103.12 98.24 C 105.54 97.08 107.41 95.11 109.37 93.34 C 113.59 92.40 118.33 95.41 122.32 93.32 C 126.16 89.31 132.53 89.94 135.46 84.53 C 137.89 80.92 142.18 79.15 144.20 75.18 C 145.54 71.61 149.99 71.86 151.76 68.71 C 152.53 63.97 153.07 59.21 153.39 54.43 C 154.74 53.07 156.09 51.70 157.10 50.06 C 162.57 48.13 168.40 47.86 174.11 47.21 C 176.14 46.79 178.47 48.73 180.24 47.23 C 187.78 40.26 197.22 36.09 206.01 31.04 Z" />
</g>
<g id="#bca9cefc">
<path fill="#bca9ce" opacity="1.00" d=" M 133.01 31.01 C 143.65 31.43 154.96 29.86 165.22 33.33 C 161.19 34.11 157.13 33.66 153.10 33.30 C 135.71 34.94 118.22 38.99 103.23 48.24 C 96.15 54.94 87.60 63.86 89.69 74.34 C 91.45 78.15 90.17 82.23 89.75 86.20 C 88.43 78.91 87.51 71.51 88.04 64.09 C 90.51 57.57 96.34 52.82 98.00 45.94 C 111.14 42.86 122.96 35.95 136.24 33.27 C 137.75 32.72 140.58 33.85 141.14 32.01 C 138.42 31.99 135.71 31.97 132.99 31.97 L 133.01 31.01 Z" />
</g>
<g id="#bcaacefb">
<path fill="#bcaace" opacity="1.00" d=" M 81.16 31.86 C 83.72 37.06 84.55 43.50 87.28 48.90 C 91.53 48.21 94.98 44.81 97.91 41.89 C 99.31 41.63 100.70 41.34 102.10 41.06 C 100.72 42.68 99.32 44.28 98.00 45.94 C 92.96 47.08 89.00 51.96 83.98 52.50 C 86.22 46.79 80.84 40.07 80.94 33.94 C 80.99 33.42 81.10 32.38 81.16 31.86 Z" />
</g>
<g id="#e1c7e7fc">
<path fill="#e1c7e7" opacity="1.00" d=" M 114.35 32.22 C 120.05 36.43 126.68 30.79 132.99 31.97 C 135.71 31.97 138.42 31.99 141.14 32.01 C 140.58 33.85 137.75 32.72 136.24 33.27 C 125.57 32.90 116.10 38.81 105.88 40.98 C 106.91 39.61 108.02 38.31 109.10 36.98 C 110.95 35.52 113.05 34.24 114.35 32.22 Z" />
</g>
<g id="#8078b1ff">
<path fill="#8078b1" opacity="1.00" d=" M 190.03 51.04 C 198.43 44.78 206.39 37.90 214.94 31.85 C 208.55 41.18 197.56 45.83 189.98 53.97 C 188.69 56.14 186.45 57.12 184.51 58.50 C 179.57 70.38 172.45 81.25 164.04 90.97 C 163.52 88.88 163.00 86.79 162.23 84.78 C 160.42 82.16 161.57 79.51 163.10 77.10 C 164.06 77.65 164.95 78.30 165.92 78.85 C 170.01 73.85 172.53 67.89 175.01 61.99 C 178.02 55.95 185.56 55.54 190.03 51.04 Z" />
</g>
<g id="#c8b4d8ff">
<path fill="#c8b4d8" opacity="1.00" d=" M 105.88 40.98 C 116.10 38.81 125.57 32.90 136.24 33.27 C 122.96 35.95 111.14 42.86 98.00 45.94 C 99.32 44.28 100.72 42.68 102.10 41.06 C 104.27 39.46 106.46 37.72 109.10 36.98 C 108.02 38.31 106.91 39.61 105.88 40.98 Z" />
</g>
<g id="#b2a2cafe">
<path fill="#b2a2ca" opacity="1.00" d=" M 103.23 48.24 C 118.22 38.99 135.71 34.94 153.10 33.30 C 157.13 33.66 161.19 34.11 165.22 33.33 C 168.19 33.17 171.89 34.26 174.02 36.12 C 176.57 38.25 180.83 34.28 184.11 36.09 C 181.31 37.61 178.50 40.27 175.12 39.94 C 172.70 38.60 170.42 36.89 167.63 36.40 C 152.04 35.11 135.59 35.59 121.10 42.14 C 107.03 47.27 92.74 58.24 90.67 73.97 L 89.69 74.34 C 87.60 63.86 96.15 54.94 103.23 48.24 Z" />
</g>
<g id="#9b8ecbff">
<path fill="#9b8ecb" opacity="1.00" d=" M 138.96 42.93 C 145.74 42.42 152.37 40.22 159.24 41.19 C 153.98 42.72 148.78 44.43 143.76 46.63 C 128.09 50.83 111.57 58.81 104.02 74.01 C 101.18 78.50 100.32 83.84 97.90 88.53 C 96.51 87.05 95.84 85.16 95.23 83.27 C 96.81 69.67 105.69 58.25 116.96 50.97 C 124.19 48.06 131.02 43.64 138.96 42.93 Z" />
</g>
<g id="#756ea3ff">
<path fill="#756ea3" opacity="1.00" d=" M 195.33 51.38 C 199.62 48.69 202.70 43.40 208.02 42.88 C 204.06 47.98 197.35 50.26 193.42 55.33 C 193.76 59.89 188.50 62.89 190.67 67.63 C 191.12 69.41 190.53 71.02 188.92 71.93 C 183.86 78.94 180.34 87.05 174.64 93.64 C 171.66 96.98 169.48 101.47 165.03 103.04 C 164.98 100.41 165.01 97.80 165.09 95.18 C 166.41 94.93 167.96 95.03 168.82 93.78 C 174.60 86.13 180.00 78.18 184.89 69.93 C 186.61 67.10 186.20 63.52 187.51 60.52 C 191.24 58.37 191.38 53.38 195.33 51.38 Z" />
</g>
<g id="#ccb7d9fb">
<path fill="#ccb7d9" opacity="1.00" d=" M 83.98 52.50 C 89.00 51.96 92.96 47.08 98.00 45.94 C 96.34 52.82 90.51 57.57 88.04 64.09 C 87.51 71.51 88.43 78.91 89.75 86.20 C 89.88 91.19 90.37 96.17 90.50 101.16 C 89.64 98.52 89.05 95.75 87.65 93.33 C 86.07 91.46 84.06 89.60 83.94 86.98 C 85.31 87.26 86.63 87.74 87.99 88.04 C 88.02 75.66 81.54 64.19 81.00 51.95 C 81.75 52.09 83.23 52.36 83.98 52.50 Z" />
</g>
<g id="#9489ccff">
<path fill="#9489cc" opacity="1.00" d=" M 104.02 74.01 C 111.57 58.81 128.09 50.83 143.76 46.63 C 146.16 46.94 149.02 46.67 150.45 49.06 C 137.10 55.88 122.15 61.55 113.20 74.21 C 111.14 76.50 111.04 81.52 107.26 81.67 C 104.74 86.30 102.66 91.24 102.04 96.44 C 100.40 93.95 99.16 91.22 97.90 88.53 C 100.32 83.84 101.18 78.50 104.02 74.01 Z" />
</g>
<g id="#8f85cbff">
<path fill="#8f85cb" opacity="1.00" d=" M 150.45 49.06 C 152.59 49.78 154.84 50.08 157.10 50.06 C 156.09 51.70 154.74 53.07 153.39 54.43 C 153.07 59.21 152.53 63.97 151.76 68.71 C 149.99 71.86 145.54 71.61 144.20 75.18 C 142.18 79.15 137.89 80.92 135.46 84.53 C 132.53 89.94 126.16 89.31 122.32 93.32 C 118.33 95.41 113.59 92.40 109.37 93.34 C 107.41 95.11 105.54 97.08 103.12 98.24 C 102.85 97.79 102.31 96.89 102.04 96.44 C 102.66 91.24 104.74 86.30 107.26 81.67 C 111.04 81.52 111.14 76.50 113.20 74.21 C 122.15 61.55 137.10 55.88 150.45 49.06 Z" />
</g>
<g id="#7b71a3f9">
<path fill="#7b71a3" opacity="0.98" d=" M 227.00 56.99 C 229.78 58.50 239.71 53.70 237.88 59.71 L 237.05 59.98 C 234.88 60.56 233.07 61.93 231.11 62.96 C 229.13 63.38 227.66 64.81 226.09 65.96 C 222.30 67.28 219.53 70.91 215.31 71.17 C 215.54 69.85 215.87 68.53 215.95 67.19 C 213.55 65.03 209.91 66.00 207.02 64.85 C 206.68 63.30 207.44 61.94 208.54 60.92 C 209.90 62.86 212.25 63.04 214.33 63.67 C 216.93 64.22 219.19 66.15 221.92 65.99 C 225.58 64.19 229.27 62.10 232.19 59.21 C 232.46 58.94 232.99 58.39 233.25 58.11 C 231.69 58.08 228.57 58.00 227.01 57.96 L 227.00 56.99 Z" />
</g>
<g id="#b39fc5f6">
<path fill="#b39fc5" opacity="0.96" d=" M 211.73 59.37 C 216.75 58.30 221.86 57.72 227.01 57.96 C 228.57 58.00 231.69 58.08 233.25 58.11 C 232.99 58.39 232.46 58.94 232.19 59.21 C 225.36 57.98 218.44 61.22 211.73 59.37 Z" />
</g>
<g id="#8e83b7ff">
<path fill="#8e83b7" opacity="1.00" d=" M 210.18 58.90 C 210.57 59.02 211.34 59.25 211.73 59.37 C 218.44 61.22 225.36 57.98 232.19 59.21 C 229.27 62.10 225.58 64.19 221.92 65.99 C 219.19 66.15 216.93 64.22 214.33 63.67 C 212.25 63.04 209.90 62.86 208.54 60.92 C 208.95 60.42 209.77 59.40 210.18 58.90 Z" />
</g>
<g id="#59558dfe">
<path fill="#59558d" opacity="1.00" d=" M 231.11 62.96 C 233.07 61.93 234.88 60.56 237.05 59.98 C 232.67 67.31 225.54 72.58 220.89 79.74 L 220.31 79.63 C 218.42 78.82 217.67 81.50 216.39 82.41 C 211.52 86.37 208.55 91.88 205.03 96.94 C 201.88 98.48 199.71 101.07 198.42 104.30 C 197.83 102.84 198.90 98.77 196.23 100.29 C 182.29 112.49 174.87 130.65 159.75 141.72 C 157.24 142.46 157.54 145.84 160.19 145.40 C 157.53 146.86 154.67 147.88 151.85 148.99 L 151.07 149.15 C 149.35 148.96 147.37 149.23 146.04 147.90 C 147.46 142.93 153.20 141.81 156.71 138.68 C 163.01 132.66 169.34 126.60 174.62 119.64 C 181.03 110.01 188.03 100.36 197.07 93.13 C 205.43 90.02 209.89 81.87 216.13 76.05 C 222.24 73.18 226.81 68.03 231.11 62.96 Z" />
</g>
<g id="#656094ff">
<path fill="#656094" opacity="1.00" d=" M 226.09 65.96 C 227.66 64.81 229.13 63.38 231.11 62.96 C 226.81 68.03 222.24 73.18 216.13 76.05 C 210.79 77.00 207.37 81.13 203.70 84.67 C 201.32 85.55 196.56 87.31 194.17 88.18 C 186.69 96.01 180.58 105.18 172.10 112.02 L 171.76 110.84 C 176.39 101.45 184.65 94.27 190.59 85.65 C 192.00 82.61 195.55 82.30 198.40 81.58 C 204.37 82.26 208.37 77.65 213.11 75.07 C 217.81 72.49 223.31 71.09 226.09 65.96 Z" />
</g>
<g id="#9e90b4fc">
<path fill="#9e90b4" opacity="1.00" d=" M 89.69 74.34 L 90.67 73.97 C 91.37 75.02 92.06 76.09 92.73 77.18 C 93.06 78.06 93.38 78.94 93.71 79.83 C 93.47 80.11 92.99 80.66 92.76 80.94 C 91.54 88.56 90.95 97.37 93.98 104.88 C 94.26 107.79 96.97 109.34 99.14 110.81 C 98.04 115.05 99.48 118.88 101.79 122.27 C 100.30 124.67 104.07 125.28 105.34 126.70 C 104.84 128.82 104.23 130.92 103.82 133.06 C 97.85 128.49 95.71 120.59 93.36 113.83 C 94.12 109.17 90.47 105.67 90.50 101.16 C 90.37 96.17 89.88 91.19 89.75 86.20 C 90.17 82.23 91.45 78.15 89.69 74.34 Z" />
</g>
<g id="#6b6498ff">
<path fill="#6b6498" opacity="1.00" d=" M 190.31 77.30 C 194.26 75.58 198.68 74.99 202.91 74.20 C 206.21 75.53 209.63 76.20 213.11 75.07 C 208.37 77.65 204.37 82.26 198.40 81.58 C 195.55 82.30 192.00 82.61 190.59 85.65 C 184.65 94.27 176.39 101.45 171.76 110.84 C 170.49 111.48 169.29 112.25 168.10 113.03 C 166.09 114.07 163.99 114.99 161.72 115.24 C 159.97 114.15 163.76 112.69 163.74 111.75 C 173.92 101.39 182.74 89.69 190.31 77.30 Z" />
</g>
<g id="#605b91ff">
<path fill="#605b91" opacity="1.00" d=" M 203.70 84.67 C 207.37 81.13 210.79 77.00 216.13 76.05 C 209.89 81.87 205.43 90.02 197.07 93.13 C 188.03 100.36 181.03 110.01 174.62 119.64 C 169.34 126.60 163.01 132.66 156.71 138.68 C 153.20 141.81 147.46 142.93 146.04 147.90 C 147.37 149.23 149.35 148.96 151.07 149.15 C 148.64 149.66 146.21 150.05 143.83 150.71 L 143.09 150.73 C 140.82 150.68 138.78 150.05 137.00 148.83 C 138.13 139.96 149.02 139.03 153.67 132.61 C 154.93 131.91 154.29 130.77 153.88 129.75 C 155.60 128.74 157.37 127.83 159.11 126.85 C 161.62 125.45 164.31 123.94 165.38 121.09 C 165.98 120.46 166.58 119.82 167.17 119.17 C 169.19 117.08 170.69 114.55 172.10 112.02 C 180.58 105.18 186.69 96.01 194.17 88.18 C 196.56 87.31 201.32 85.55 203.70 84.67 Z" />
</g>
<g id="#423c57ff">
<path fill="#423c57" opacity="1.00" d=" M 138.12 99.91 C 144.85 90.81 153.09 82.51 163.10 77.10 C 161.57 79.51 160.42 82.16 162.23 84.78 C 161.99 85.11 161.51 85.77 161.27 86.10 C 160.03 84.54 158.66 82.10 156.27 83.20 C 150.61 89.13 144.21 94.43 139.35 101.08 C 139.04 100.78 138.43 100.20 138.12 99.91 Z" />
</g>
<g id="#605b97fb">
<path fill="#605b97" opacity="1.00" d=" M 216.39 82.41 C 217.67 81.50 218.42 78.82 220.31 79.63 C 217.13 85.46 212.01 89.98 208.69 95.71 C 206.73 97.77 211.16 96.24 210.83 98.15 C 211.17 99.52 211.23 102.44 213.38 101.63 C 221.30 102.28 227.85 96.15 235.35 95.71 C 232.83 99.48 227.69 100.42 224.21 103.20 C 223.01 103.85 221.87 105.17 220.37 104.74 C 216.37 104.81 209.94 101.55 207.50 106.25 C 205.06 105.91 207.62 103.17 205.76 102.24 C 205.14 102.18 203.91 102.06 203.29 101.99 C 203.88 100.31 204.49 98.64 205.03 96.94 C 208.55 91.88 211.52 86.37 216.39 82.41 Z" />
</g>
<g id="#5a546aff">
<path fill="#5a546a" opacity="1.00" d=" M 92.76 80.94 C 92.99 80.66 93.47 80.11 93.71 79.83 C 94.19 80.98 94.70 82.13 95.23 83.27 C 95.84 85.16 96.51 87.05 97.90 88.53 C 99.16 91.22 100.40 93.95 102.04 96.44 C 102.31 96.89 102.85 97.79 103.12 98.24 C 103.34 98.64 103.77 99.44 103.99 99.84 C 102.72 101.36 102.79 103.43 102.68 105.30 C 102.06 102.11 102.49 98.49 100.09 95.92 C 96.86 91.36 94.49 86.25 92.76 80.94 Z" />
</g>
<g id="#e8e8e8ff">
<path fill="#e8e8e8" opacity="1.00" d=" M 93.98 104.88 C 90.95 97.37 91.54 88.56 92.76 80.94 C 94.49 86.25 96.86 91.36 100.09 95.92 C 102.49 98.49 102.06 102.11 102.68 105.30 C 103.00 105.69 103.63 106.47 103.95 106.86 C 105.70 103.51 106.62 107.51 107.87 109.08 C 108.67 110.43 110.21 113.68 107.26 112.83 C 102.67 110.42 97.64 108.71 93.98 104.88 Z" />
</g>
<g id="#d8d8d9ff">
<path fill="#d8d8d9" opacity="1.00" d=" M 156.27 83.20 C 158.66 82.10 160.03 84.54 161.27 86.10 C 161.67 88.42 162.00 90.74 162.05 93.10 C 162.00 96.78 161.96 100.47 162.15 104.16 C 160.46 106.19 158.58 108.22 155.92 108.92 C 148.18 111.56 140.11 113.27 131.96 113.97 C 131.26 110.22 134.73 107.73 136.55 104.92 C 137.10 106.69 137.43 109.62 139.99 109.09 C 140.24 106.35 140.05 103.69 139.35 101.08 C 144.21 94.43 150.61 89.13 156.27 83.20 Z" />
</g>
<g id="#5b556fff">
<path fill="#5b556f" opacity="1.00" d=" M 162.23 84.78 C 163.00 86.79 163.52 88.88 164.04 90.97 C 163.75 91.43 163.17 92.36 162.88 92.82 L 162.05 93.10 C 162.00 90.74 161.67 88.42 161.27 86.10 C 161.51 85.77 161.99 85.11 162.23 84.78 Z" />
</g>
<g id="#3e3651ff">
<path fill="#3e3651" opacity="1.00" d=" M 162.88 92.82 C 163.17 92.36 163.75 91.43 164.04 90.97 C 164.05 91.67 164.07 93.09 164.07 93.80 C 164.03 97.58 164.02 101.36 163.83 105.14 C 163.61 104.83 163.19 104.21 162.97 103.90 C 162.98 100.20 163.01 96.52 162.88 92.82 Z" />
</g>
<g id="#a7a5adff">
<path fill="#a7a5ad" opacity="1.00" d=" M 162.05 93.10 L 162.88 92.82 C 163.01 96.52 162.98 100.20 162.97 103.90 L 162.15 104.16 C 161.96 100.47 162.00 96.78 162.05 93.10 Z" />
</g>
<g id="#837aaaf7">
<path fill="#837aaa" opacity="0.97" d=" M 208.69 95.71 C 216.43 94.74 224.28 95.27 232.00 94.03 C 236.07 87.54 239.20 97.90 235.35 95.71 C 227.85 96.15 221.30 102.28 213.38 101.63 C 211.23 102.44 211.17 99.52 210.83 98.15 C 211.16 96.24 206.73 97.77 208.69 95.71 Z" />
</g>
<g id="#565396ff">
<path fill="#565396" opacity="1.00" d=" M 198.42 104.30 C 199.71 101.07 201.88 98.48 205.03 96.94 C 204.49 98.64 203.88 100.31 203.29 101.99 C 194.25 120.15 180.28 136.29 162.63 146.55 C 159.22 148.02 155.61 149.21 151.85 148.99 C 154.67 147.88 157.53 146.86 160.19 145.40 C 177.10 136.58 191.15 122.00 198.42 104.30 Z" />
</g>
<g id="#0d0c10ff">
<path fill="#0d0c10" opacity="1.00" d=" M 102.68 105.30 C 102.79 103.43 102.72 101.36 103.99 99.84 C 103.98 101.59 103.96 105.11 103.95 106.86 C 103.63 106.47 103.00 105.69 102.68 105.30 Z" />
</g>
<g id="#686479ff">
<path fill="#686479" opacity="1.00" d=" M 103.99 99.84 C 105.75 102.43 107.49 105.06 108.89 107.87 C 108.64 108.17 108.13 108.78 107.87 109.08 C 106.62 107.51 105.70 103.51 103.95 106.86 C 103.96 105.11 103.98 101.59 103.99 99.84 Z" />
</g>
<g id="#25242aff">
<path fill="#25242a" opacity="1.00" d=" M 138.12 99.91 C 138.43 100.20 139.04 100.78 139.35 101.08 C 140.05 103.69 140.24 106.35 139.99 109.09 C 137.43 109.62 137.10 106.69 136.55 104.92 C 136.38 104.38 136.04 103.30 135.87 102.76 C 136.62 101.81 137.38 100.86 138.12 99.91 Z" />
</g>
<g id="#54508bff">
<path fill="#54508b" opacity="1.00" d=" M 196.23 100.29 C 198.90 98.77 197.83 102.84 198.42 104.30 C 191.15 122.00 177.10 136.58 160.19 145.40 C 157.54 145.84 157.24 142.46 159.75 141.72 C 174.87 130.65 182.29 112.49 196.23 100.29 Z" />
</g>
<g id="#5b58a0fe">
<path fill="#5b58a0" opacity="1.00" d=" M 203.29 101.99 C 203.91 102.06 205.14 102.18 205.76 102.24 C 207.62 103.17 205.06 105.91 207.50 106.25 C 208.44 107.94 209.39 109.68 210.98 110.87 C 206.98 114.02 202.11 116.83 198.30 119.59 C 197.77 119.48 196.73 119.25 196.20 119.14 C 189.58 127.80 181.82 135.56 173.38 142.44 C 165.15 149.19 154.42 152.34 143.83 150.71 C 146.21 150.05 148.64 149.66 151.07 149.15 L 151.85 148.99 C 155.61 149.21 159.22 148.02 162.63 146.55 C 180.28 136.29 194.25 120.15 203.29 101.99 Z" />
</g>
<g id="#4d4763ff">
<path fill="#4d4763" opacity="1.00" d=" M 126.89 114.19 C 129.98 110.45 132.73 106.44 135.87 102.76 C 136.04 103.30 136.38 104.38 136.55 104.92 C 134.73 107.73 131.26 110.22 131.96 113.97 C 140.11 113.27 148.18 111.56 155.92 108.92 C 158.58 108.22 160.46 106.19 162.15 104.16 L 162.97 103.90 C 163.19 104.21 163.61 104.83 163.83 105.14 C 162.65 108.28 158.91 109.53 155.98 110.67 C 149.51 113.27 142.54 113.96 135.83 115.66 C 132.98 115.28 127.45 118.82 126.89 114.19 Z" />
</g>
<g id="#55518efa">
<path fill="#55518e" opacity="0.98" d=" M 207.50 106.25 C 209.94 101.55 216.37 104.81 220.37 104.74 C 218.07 107.55 214.26 109.31 210.98 110.87 C 209.39 109.68 208.44 107.94 207.50 106.25 Z" />
</g>
<g id="#645d75ff">
<path fill="#645d75" opacity="1.00" d=" M 93.98 104.88 C 97.64 108.71 102.67 110.42 107.26 112.83 C 106.94 113.10 106.30 113.62 105.98 113.89 C 103.71 112.83 101.46 111.74 99.14 110.81 C 96.97 109.34 94.26 107.79 93.98 104.88 Z" />
</g>
<g id="#4b4560ff">
<path fill="#4b4560" opacity="1.00" d=" M 107.87 109.08 C 108.13 108.78 108.64 108.17 108.89 107.87 C 109.49 108.98 110.09 110.08 110.73 111.17 C 111.55 112.77 112.57 114.29 113.12 116.01 C 110.69 115.50 108.35 114.62 105.98 113.89 C 106.30 113.62 106.94 113.10 107.26 112.83 C 110.21 113.68 108.67 110.43 107.87 109.08 Z" />
</g>
<g id="#9387b7ff">
<path fill="#9387b7" opacity="1.00" d=" M 99.14 110.81 C 101.46 111.74 103.71 112.83 105.98 113.89 C 106.33 116.24 105.55 118.40 103.80 119.98 C 103.13 120.74 102.46 121.51 101.79 122.27 C 99.48 118.88 98.04 115.05 99.14 110.81 Z" />
</g>
<g id="#7870a6ff">
<path fill="#7870a6" opacity="1.00" d=" M 135.83 115.66 C 142.54 113.96 149.51 113.27 155.98 110.67 L 156.58 111.23 C 153.98 115.63 149.54 118.55 145.68 121.80 C 140.91 122.39 135.45 123.67 133.72 128.81 C 133.50 129.28 133.05 130.22 132.83 130.69 L 132.13 131.37 C 131.07 130.81 130.14 130.06 129.29 129.23 C 129.07 128.96 128.62 128.42 128.40 128.15 C 127.60 127.12 126.80 126.09 125.96 125.11 C 125.44 124.75 124.40 124.02 123.89 123.65 C 129.17 122.84 135.04 120.79 138.09 116.11 C 137.52 116.00 136.40 115.78 135.83 115.66 Z" />
</g>
<g id="#cb8485ff">
<path fill="#cb8485" opacity="1.00" d=" M 168.10 113.03 C 169.29 112.25 170.49 111.48 171.76 110.84 L 172.10 112.02 C 170.69 114.55 169.19 117.08 167.17 119.17 C 167.55 117.14 167.88 115.09 168.10 113.03 Z" />
</g>
<g id="#bc829eff">
<path fill="#bc829e" opacity="1.00" d=" M 161.72 115.24 C 163.99 114.99 166.09 114.07 168.10 113.03 C 167.88 115.09 167.55 117.14 167.17 119.17 C 166.58 119.82 165.98 120.46 165.38 121.09 C 165.49 119.16 164.13 118.44 162.76 119.79 C 157.68 124.97 150.71 127.21 143.89 129.01 C 140.26 128.04 140.04 132.28 138.02 134.09 C 136.32 132.91 134.84 131.36 132.83 130.69 C 133.05 130.22 133.50 129.28 133.72 128.81 C 139.02 128.93 145.00 128.32 149.36 125.21 C 150.75 125.99 151.80 124.80 152.86 124.04 C 157.41 123.93 160.28 119.60 162.80 116.31 L 162.24 115.76 L 161.72 115.24 Z" />
</g>
<g id="#8279acfe">
<path fill="#8279ac" opacity="1.00" d=" M 118.96 118.00 C 123.05 119.91 124.83 116.44 126.89 114.19 C 127.45 118.82 132.98 115.28 135.83 115.66 C 136.40 115.78 137.52 116.00 138.09 116.11 C 135.04 120.79 129.17 122.84 123.89 123.65 C 121.86 123.90 119.83 124.05 117.81 124.27 C 116.14 124.36 116.05 126.72 115.29 127.86 C 115.15 128.17 114.87 128.79 114.73 129.10 C 113.78 133.12 113.44 137.30 112.35 141.30 C 109.06 139.30 104.70 137.05 103.82 133.06 C 104.23 130.92 104.84 128.82 105.34 126.70 C 106.56 127.15 107.76 127.63 108.93 128.21 C 110.09 129.45 111.07 131.25 113.05 131.07 C 113.13 129.47 112.81 127.89 111.43 126.94 C 110.16 125.62 108.89 124.32 107.64 122.99 C 111.11 120.80 114.80 118.39 118.96 118.00 Z" />
</g>
<g id="#dd98b0ff">
<path fill="#dd98b0" opacity="1.00" d=" M 152.86 124.04 C 153.48 119.18 158.00 117.03 162.24 115.76 L 162.80 116.31 C 160.28 119.60 157.41 123.93 152.86 124.04 Z" />
</g>
<g id="#a17294ff">
<path fill="#a17294" opacity="1.00" d=" M 162.76 119.79 C 164.13 118.44 165.49 119.16 165.38 121.09 C 162.86 122.63 160.42 124.30 157.90 125.84 C 154.61 128.25 150.08 128.60 146.95 130.97 C 147.51 131.09 148.64 131.32 149.20 131.44 C 148.07 131.90 146.80 132.12 145.89 131.11 C 145.23 130.40 144.56 129.70 143.89 129.01 C 150.71 127.21 157.68 124.97 162.76 119.79 Z" />
</g>
<g id="#6362a3fc">
<path fill="#6362a3" opacity="1.00" d=" M 196.20 119.14 C 196.73 119.25 197.77 119.48 198.30 119.59 C 198.31 121.41 197.01 122.58 195.82 123.75 C 194.12 125.64 194.24 130.10 196.21 131.91 C 201.09 132.18 205.44 129.24 210.01 127.90 C 209.05 129.54 207.69 131.63 205.74 131.99 C 203.86 131.51 201.07 132.90 202.96 134.92 C 201.87 138.26 197.65 139.27 195.00 141.13 C 195.63 142.09 196.38 142.98 197.04 143.93 C 192.77 144.20 185.33 143.04 182.88 147.74 L 182.24 147.85 C 178.17 146.44 173.46 148.72 169.76 150.73 C 167.96 150.97 166.06 151.17 164.83 152.68 L 164.12 152.61 C 159.72 151.61 155.45 154.50 151.00 154.03 C 148.33 154.01 145.65 154.00 142.98 153.99 C 140.93 153.12 134.73 154.94 135.02 152.13 C 135.30 151.89 135.86 151.42 136.14 151.18 C 137.88 151.07 141.35 150.84 143.09 150.73 L 143.83 150.71 C 154.42 152.34 165.15 149.19 173.38 142.44 C 181.82 135.56 189.58 127.80 196.20 119.14 Z" />
</g>
<g id="#f6b1beff">
<path fill="#f6b1be" opacity="1.00" d=" M 101.79 122.27 C 102.46 121.51 103.13 120.74 103.80 119.98 C 105.08 120.98 106.38 121.96 107.64 122.99 C 108.89 124.32 110.16 125.62 111.43 126.94 C 110.80 127.26 109.55 127.89 108.93 128.21 C 107.76 127.63 106.56 127.15 105.34 126.70 C 104.07 125.28 100.30 124.67 101.79 122.27 Z" />
</g>
<g id="#cc8895ff">
<path fill="#cc8895" opacity="1.00" d=" M 157.90 125.84 C 160.42 124.30 162.86 122.63 165.38 121.09 C 164.31 123.94 161.62 125.45 159.11 126.85 C 158.81 126.60 158.21 126.09 157.90 125.84 Z" />
</g>
<g id="#756da0f9">
<path fill="#756da0" opacity="0.98" d=" M 210.31 123.77 C 211.29 122.27 215.72 121.90 218.08 120.96 C 216.05 123.83 213.50 126.80 210.01 127.90 C 205.44 129.24 201.09 132.18 196.21 131.91 C 194.24 130.10 194.12 125.64 195.82 123.75 L 196.89 123.91 L 196.62 124.80 C 195.23 127.06 196.55 128.69 198.99 128.85 C 202.96 127.59 206.66 125.50 210.80 124.79 C 210.68 124.53 210.44 124.03 210.31 123.77 Z" />
</g>
<g id="#eea3c4ff">
<path fill="#eea3c4" opacity="1.00" d=" M 133.72 128.81 C 135.45 123.67 140.91 122.39 145.68 121.80 C 146.95 122.89 148.22 123.98 149.36 125.21 C 145.00 128.32 139.02 128.93 133.72 128.81 Z" />
</g>
<g id="#f4a7c6ff">
<path fill="#f4a7c6" opacity="1.00" d=" M 115.29 127.86 C 116.05 126.72 116.14 124.36 117.81 124.27 C 120.51 124.56 123.24 124.86 125.96 125.11 C 126.80 126.09 127.60 127.12 128.40 128.15 C 124.25 128.39 119.00 130.72 115.29 127.86 Z" />
</g>
<g id="#a586b5ff">
<path fill="#a586b5" opacity="1.00" d=" M 117.81 124.27 C 119.83 124.05 121.86 123.90 123.89 123.65 C 124.40 124.02 125.44 124.75 125.96 125.11 C 123.24 124.86 120.51 124.56 117.81 124.27 Z" />
</g>
<g id="#9f91b9f8">
<path fill="#9f91b9" opacity="0.97" d=" M 196.62 124.80 C 201.19 124.61 205.73 123.86 210.31 123.77 C 210.44 124.03 210.68 124.53 210.80 124.79 C 206.66 125.50 202.96 127.59 198.99 128.85 C 196.55 128.69 195.23 127.06 196.62 124.80 Z" />
</g>
<g id="#e69796ff">
<path fill="#e69796" opacity="1.00" d=" M 146.95 130.97 C 150.08 128.60 154.61 128.25 157.90 125.84 C 158.21 126.09 158.81 126.60 159.11 126.85 C 157.37 127.83 155.60 128.74 153.88 129.75 C 152.34 130.36 150.80 130.98 149.20 131.44 C 148.64 131.32 147.51 131.09 146.95 130.97 Z" />
</g>
<g id="#d396abff">
<path fill="#d396ab" opacity="1.00" d=" M 111.43 126.94 C 112.81 127.89 113.13 129.47 113.05 131.07 C 111.07 131.25 110.09 129.45 108.93 128.21 C 109.55 127.89 110.80 127.26 111.43 126.94 Z" />
</g>
<g id="#d491a6ff">
<path fill="#d491a6" opacity="1.00" d=" M 114.73 129.10 C 114.87 128.79 115.15 128.17 115.29 127.86 C 119.00 130.72 124.25 128.39 128.40 128.15 C 128.62 128.42 129.07 128.96 129.29 129.23 C 127.76 131.30 118.31 127.65 120.57 132.34 L 120.79 133.29 C 118.62 132.13 116.48 130.85 114.73 129.10 Z" />
</g>
<g id="#a091bbf7">
<path fill="#a091bb" opacity="0.97" d=" M 48.01 130.06 C 51.11 131.39 54.03 128.35 57.03 129.47 C 59.31 130.18 61.93 130.93 64.01 129.47 C 69.79 128.33 74.80 133.77 78.05 137.95 C 78.68 140.86 82.55 140.78 83.33 143.36 C 82.42 143.92 81.56 143.89 80.74 143.27 C 76.63 140.49 71.89 138.18 69.12 133.88 C 67.16 132.19 63.99 131.54 61.70 133.11 C 58.44 133.18 53.52 131.41 52.84 135.81 L 52.02 135.83 C 51.32 133.55 51.37 130.18 48.05 130.91 L 48.01 130.06 Z" />
</g>
<g id="#d7c3e7fe">
<path fill="#d7c3e7" opacity="1.00" d=" M 57.03 129.47 C 59.10 128.38 61.95 128.34 64.01 129.47 C 61.93 130.93 59.31 130.18 57.03 129.47 Z" />
</g>
<g id="#7b71a1fd">
<path fill="#7b71a1" opacity="1.00" d=" M 112.35 141.30 C 113.44 137.30 113.78 133.12 114.73 129.10 C 116.48 130.85 118.62 132.13 120.79 133.29 C 122.27 137.35 121.39 142.26 118.23 145.29 C 116.20 144.56 113.00 143.19 112.35 141.30 Z" />
</g>
<g id="#ba8099ff">
<path fill="#ba8099" opacity="1.00" d=" M 129.29 129.23 C 130.14 130.06 131.07 130.81 132.13 131.37 C 131.16 132.30 130.26 133.37 129.07 134.02 C 126.50 132.42 123.44 129.44 120.57 132.34 C 118.31 127.65 127.76 131.30 129.29 129.23 Z" />
</g>
<g id="#70699cfe">
<path fill="#70699c" opacity="1.00" d=" M 138.02 134.09 C 140.04 132.28 140.26 128.04 143.89 129.01 C 144.56 129.70 145.23 130.40 145.89 131.11 C 141.49 132.80 137.81 135.84 133.31 137.32 C 130.65 140.25 128.68 143.91 128.03 147.83 C 130.42 149.60 133.34 150.34 136.14 151.18 C 135.86 151.42 135.30 151.89 135.02 152.13 C 129.03 151.33 123.80 147.74 118.12 145.89 L 118.23 145.29 C 121.39 142.26 122.27 137.35 120.79 133.29 L 120.57 132.34 C 123.44 129.44 126.50 132.42 129.07 134.02 C 130.26 133.37 131.16 132.30 132.13 131.37 L 132.83 130.69 C 134.84 131.36 136.32 132.91 138.02 134.09 Z" />
</g>
<g id="#686296ff">
<path fill="#686296" opacity="1.00" d=" M 149.20 131.44 C 150.80 130.98 152.34 130.36 153.88 129.75 C 154.29 130.77 154.93 131.91 153.67 132.61 C 149.02 139.03 138.13 139.96 137.00 148.83 C 138.78 150.05 140.82 150.68 143.09 150.73 C 141.35 150.84 137.88 151.07 136.14 151.18 C 133.34 150.34 130.42 149.60 128.03 147.83 C 128.68 143.91 130.65 140.25 133.31 137.32 C 137.81 135.84 141.49 132.80 145.89 131.11 C 146.80 132.12 148.07 131.90 149.20 131.44 Z" />
</g>
<g id="#b3a1c8fa">
<path fill="#b3a1c8" opacity="0.98" d=" M 45.15 131.80 C 45.25 130.82 46.22 130.52 48.05 130.91 C 51.37 130.18 51.32 133.55 52.02 135.83 C 50.32 135.92 48.61 135.96 46.91 136.01 C 50.56 134.33 47.95 132.12 45.15 131.80 Z" />
</g>
<g id="#dac4e4fd">
<path fill="#dac4e4" opacity="1.00" d=" M 42.06 136.01 C 42.83 134.51 43.23 132.16 45.15 131.80 C 47.95 132.12 50.56 134.33 46.91 136.01 C 45.65 136.02 44.40 136.04 43.15 136.05 L 42.06 136.01 Z" />
</g>
<g id="#968bc2fd">
<path fill="#968bc2" opacity="1.00" d=" M 61.70 133.11 C 63.99 131.54 67.16 132.19 69.12 133.88 C 71.89 138.18 76.63 140.49 80.74 143.27 C 81.56 143.89 82.42 143.92 83.33 143.36 C 87.33 145.03 85.23 151.81 86.59 155.75 C 84.85 158.73 83.35 161.85 81.92 164.98 C 81.55 166.88 79.97 167.38 78.24 166.88 C 75.42 161.80 75.96 154.74 71.29 150.86 C 71.02 150.62 70.47 150.13 70.19 149.89 C 69.09 148.88 67.91 147.95 66.75 147.01 C 67.38 144.90 68.39 142.95 69.55 141.11 C 68.63 137.17 66.01 133.48 61.70 133.11 Z" />
</g>
<g id="#54508cf3">
<path fill="#54508c" opacity="0.95" d=" M 202.96 134.92 C 201.07 132.90 203.86 131.51 205.74 131.99 C 205.96 133.33 204.28 134.92 202.96 134.92 Z" />
</g>
<g id="#8f85c4ff">
<path fill="#8f85c4" opacity="1.00" d=" M 52.84 135.81 C 53.52 131.41 58.44 133.18 61.70 133.11 C 66.01 133.48 68.63 137.17 69.55 141.11 C 68.39 142.95 67.38 144.90 66.75 147.01 C 62.92 144.29 59.73 140.90 56.80 137.25 C 55.93 135.87 54.24 136.07 52.84 135.81 Z" />
</g>
<g id="#bba9cbf4">
<path fill="#bba9cb" opacity="0.96" d=" M 36.29 139.28 C 36.98 136.82 39.67 135.70 42.06 136.01 L 43.15 136.05 C 42.60 140.14 39.94 143.28 37.53 146.43 C 36.76 151.62 33.07 155.66 29.85 159.57 C 29.56 159.53 28.98 159.44 28.69 159.40 C 30.39 155.42 31.51 151.18 33.29 147.26 C 36.73 145.40 34.09 141.76 36.29 139.28 Z" />
</g>
<g id="#a193c4fb">
<path fill="#a193c4" opacity="1.00" d=" M 43.15 136.05 C 44.40 136.04 45.65 136.02 46.91 136.01 C 46.48 137.96 46.15 139.92 45.96 141.90 C 44.24 144.90 39.95 145.89 39.54 149.65 C 38.26 152.44 42.35 155.52 40.11 157.99 C 38.80 154.54 35.06 156.30 33.77 158.76 C 29.41 163.83 34.98 172.15 29.84 176.82 C 28.10 178.59 30.00 181.12 29.41 183.25 L 28.33 183.00 C 27.10 176.62 26.52 170.09 24.17 163.97 C 24.84 162.17 26.92 160.01 28.69 159.40 C 28.98 159.44 29.56 159.53 29.85 159.57 C 33.07 155.66 36.76 151.62 37.53 146.43 C 39.94 143.28 42.60 140.14 43.15 136.05 Z" />
</g>
<g id="#8379aeff">
<path fill="#8379ae" opacity="1.00" d=" M 46.91 136.01 C 48.61 135.96 50.32 135.92 52.02 135.83 L 52.84 135.81 C 54.24 136.07 55.93 135.87 56.80 137.25 C 59.73 140.90 62.92 144.29 66.75 147.01 C 67.91 147.95 69.09 148.88 70.19 149.89 C 65.47 149.26 61.37 146.24 58.23 142.85 C 57.09 136.62 45.21 137.09 47.73 144.86 C 45.51 147.91 44.93 151.52 44.25 155.25 C 42.47 150.39 45.40 146.42 45.96 141.90 C 46.15 139.92 46.48 137.96 46.91 136.01 Z" />
</g>
<g id="#6c66a0ff">
<path fill="#6c66a0" opacity="1.00" d=" M 47.73 144.86 C 45.21 137.09 57.09 136.62 58.23 142.85 C 55.98 141.91 53.70 140.59 51.17 141.03 C 48.69 144.70 49.31 149.53 49.63 153.68 C 49.00 156.46 46.07 157.41 44.15 159.13 C 44.16 157.83 44.19 156.54 44.25 155.25 C 44.93 151.52 45.51 147.91 47.73 144.86 Z" />
</g>
<g id="#5d5a99fa">
<path fill="#5d5a99" opacity="0.98" d=" M 51.17 141.03 C 53.70 140.59 55.98 141.91 58.23 142.85 C 61.37 146.24 65.47 149.26 70.19 149.89 C 70.47 150.13 71.02 150.62 71.29 150.86 C 65.55 154.56 59.58 158.77 53.65 162.59 C 48.94 164.26 43.60 163.37 39.68 167.04 C 39.40 164.79 39.66 161.99 42.01 160.96 C 43.31 161.02 44.02 160.41 44.15 159.13 C 46.07 157.41 49.00 156.46 49.63 153.68 C 49.31 149.53 48.69 144.70 51.17 141.03 M 52.20 143.11 C 49.46 146.61 53.65 150.59 51.42 154.35 C 50.70 157.94 44.75 157.95 44.89 161.82 C 46.02 161.49 47.17 160.99 48.31 161.60 C 50.93 162.55 53.16 159.99 55.73 159.66 C 57.58 157.50 59.03 155.03 60.86 152.87 C 61.99 151.57 64.60 151.35 64.02 149.08 C 62.56 149.04 59.64 148.94 58.18 148.89 C 58.70 145.40 55.97 141.79 52.20 143.11 Z" />
</g>
<g id="#9085c2ff">
<path fill="#9085c2" opacity="1.00" d=" M 39.54 149.65 C 39.95 145.89 44.24 144.90 45.96 141.90 C 45.40 146.42 42.47 150.39 44.25 155.25 C 44.19 156.54 44.16 157.83 44.15 159.13 C 44.02 160.41 43.31 161.02 42.01 160.96 C 41.37 159.97 40.71 158.99 40.11 157.99 C 42.35 155.52 38.26 152.44 39.54 149.65 Z" />
</g>
<g id="#56528eff">
<path fill="#56528e" opacity="1.00" d=" M 52.20 143.11 C 55.97 141.79 58.70 145.40 58.18 148.89 C 59.64 148.94 62.56 149.04 64.02 149.08 C 64.60 151.35 61.99 151.57 60.86 152.87 C 59.03 155.03 57.58 157.50 55.73 159.66 C 53.16 159.99 50.93 162.55 48.31 161.60 C 47.17 160.99 46.02 161.49 44.89 161.82 C 44.75 157.95 50.70 157.94 51.42 154.35 C 53.65 150.59 49.46 146.61 52.20 143.11 Z" />
</g>
<g id="#bba9d0fd">
<path fill="#bba9d0" opacity="1.00" d=" M 182.88 147.74 C 185.33 143.04 192.77 144.20 197.04 143.93 C 200.23 143.80 203.56 144.44 206.18 146.33 C 203.44 148.00 200.49 149.56 197.17 148.76 C 194.51 148.59 191.89 148.67 189.25 148.74 C 188.74 148.49 187.72 147.99 187.21 147.74 C 185.87 146.88 184.31 147.67 182.88 147.74 Z" />
</g>
<g id="#9185b1fb">
<path fill="#9185b1" opacity="1.00" d=" M 206.18 146.33 C 210.27 147.19 212.05 152.10 214.27 155.29 C 210.07 157.23 209.39 151.95 207.71 149.14 C 204.80 149.64 202.23 151.68 199.04 150.56 C 194.09 150.60 189.83 153.73 185.22 155.19 C 185.17 154.64 185.08 153.55 185.03 153.01 C 189.11 151.68 192.75 148.86 197.17 148.76 C 200.49 149.56 203.44 148.00 206.18 146.33 Z" />
</g>
<g id="#221f2a6f">
<path fill="#221f2a" opacity="0.44" d=" M 169.76 150.73 C 173.46 148.72 178.17 146.44 182.24 147.85 C 179.21 149.09 175.99 149.76 172.83 150.58 C 172.07 150.62 170.53 150.69 169.76 150.73 Z" />
</g>
<g id="#9589c4fa">
<path fill="#9589c4" opacity="0.98" d=" M 182.88 147.74 C 184.31 147.67 185.87 146.88 187.21 147.74 C 184.71 149.07 182.19 150.38 179.86 151.99 C 177.69 151.88 175.97 153.69 175.86 155.79 C 175.36 156.82 174.92 157.89 174.38 158.91 C 173.05 158.68 170.40 158.24 169.07 158.02 C 162.23 161.92 156.59 167.51 151.29 173.27 C 151.21 173.98 151.04 175.41 150.95 176.12 L 150.85 177.11 C 145.88 171.82 150.73 163.04 156.20 160.18 C 159.86 158.79 160.85 154.52 164.12 152.61 L 164.83 152.68 C 167.94 153.28 171.00 152.31 174.04 151.79 C 173.74 151.49 173.13 150.88 172.83 150.58 C 175.99 149.76 179.21 149.09 182.24 147.85 L 182.88 147.74 Z" />
</g>
<g id="#d1bce1ff">
<path fill="#d1bce1" opacity="1.00" d=" M 179.86 151.99 C 182.19 150.38 184.71 149.07 187.21 147.74 C 187.72 147.99 188.74 148.49 189.25 148.74 C 186.16 149.94 183.14 151.39 179.86 151.99 Z" />
</g>
<g id="#aa9bc9ff">
<path fill="#aa9bc9" opacity="1.00" d=" M 189.25 148.74 C 191.89 148.67 194.51 148.59 197.17 148.76 C 192.75 148.86 189.11 151.68 185.03 153.01 C 178.61 152.94 176.72 160.24 172.96 163.95 C 173.01 163.24 173.12 161.82 173.17 161.11 C 173.47 160.56 174.08 159.46 174.38 158.91 C 174.92 157.89 175.36 156.82 175.86 155.79 C 177.82 155.38 179.28 153.88 179.86 151.99 C 183.14 151.39 186.16 149.94 189.25 148.74 Z" />
</g>
<g id="#7f76abfe">
<path fill="#7f76ab" opacity="1.00" d=" M 199.04 150.56 C 202.23 151.68 204.80 149.64 207.71 149.14 C 209.39 151.95 210.07 157.23 214.27 155.29 C 217.02 157.00 218.24 162.37 218.94 165.71 C 216.45 166.11 216.80 169.12 215.86 170.91 C 210.18 182.81 200.49 192.08 191.90 201.95 C 190.92 202.36 189.92 202.70 188.89 202.97 C 195.64 195.31 202.24 187.51 208.36 179.35 C 212.50 173.70 215.97 167.18 216.03 160.00 C 212.72 159.73 209.26 159.65 206.24 161.20 C 206.55 158.13 206.96 155.07 207.02 152.00 C 197.75 150.74 188.34 154.39 181.84 160.97 C 179.95 162.07 178.09 163.19 176.15 164.19 C 178.94 160.96 182.37 158.36 185.22 155.19 C 189.83 153.73 194.09 150.60 199.04 150.56 Z" />
</g>
<g id="#b4a3cbfa">
<path fill="#b4a3cb" opacity="0.98" d=" M 164.83 152.68 C 166.06 151.17 167.96 150.97 169.76 150.73 C 170.53 150.69 172.07 150.62 172.83 150.58 C 173.13 150.88 173.74 151.49 174.04 151.79 C 171.00 152.31 167.94 153.28 164.83 152.68 Z" />
</g>
<g id="#d5c0e5ff">
<path fill="#d5c0e5" opacity="1.00" d=" M 175.86 155.79 C 175.97 153.69 177.69 151.88 179.86 151.99 C 179.28 153.88 177.82 155.38 175.86 155.79 Z" />
</g>
<g id="#70699eff">
<path fill="#70699e" opacity="1.00" d=" M 181.84 160.97 C 188.34 154.39 197.75 150.74 207.02 152.00 C 206.96 155.07 206.55 158.13 206.24 161.20 C 205.26 161.96 204.22 162.64 203.13 163.25 C 203.62 160.55 204.37 157.92 204.89 155.24 C 202.63 154.83 200.41 154.07 198.10 154.09 C 192.52 156.00 187.69 160.05 181.84 160.97 Z" />
</g>
<g id="#8e84c1fe">
<path fill="#8e84c1" opacity="1.00" d=" M 172.96 163.95 C 176.72 160.24 178.61 152.94 185.03 153.01 C 185.08 153.55 185.17 154.64 185.22 155.19 C 182.37 158.36 178.94 160.96 176.15 164.19 C 175.82 164.62 175.15 165.50 174.82 165.93 C 174.10 165.94 172.67 165.95 171.95 165.96 L 171.88 164.98 C 172.15 164.72 172.69 164.21 172.96 163.95 Z" />
</g>
<g id="#0c0a1251">
<path fill="#0c0a12" opacity="0.32" d=" M 142.98 153.99 C 145.65 154.00 148.33 154.01 151.00 154.03 C 150.10 156.20 145.42 154.54 143.02 154.95 L 142.98 153.99 Z" />
</g>
<g id="#5c5894fe">
<path fill="#5c5894" opacity="1.00" d=" M 181.84 160.97 C 187.69 160.05 192.52 156.00 198.10 154.09 C 200.41 154.07 202.63 154.83 204.89 155.24 C 204.37 157.92 203.62 160.55 203.13 163.25 C 202.41 163.82 201.70 164.41 201.00 165.00 C 200.52 165.14 199.56 165.41 199.08 165.54 C 198.26 163.73 197.83 161.75 196.85 160.02 C 194.65 159.60 192.64 160.55 190.78 161.60 C 188.76 162.58 186.76 163.63 184.75 164.64 C 183.19 165.13 181.67 165.87 180.02 166.00 C 178.28 165.99 176.55 165.96 174.82 165.93 C 175.15 165.50 175.82 164.62 176.15 164.19 C 178.09 163.19 179.95 162.07 181.84 160.97 Z" />
</g>
<g id="#8e83bdfe">
<path fill="#8e83bd" opacity="1.00" d=" M 33.77 158.76 C 35.06 156.30 38.80 154.54 40.11 157.99 C 37.96 159.94 35.67 162.77 36.18 165.87 C 36.90 171.70 36.81 177.67 38.71 183.31 C 39.02 184.94 40.07 186.61 39.36 188.28 C 35.86 187.75 31.41 185.79 29.41 183.25 C 30.00 181.12 28.10 178.59 29.84 176.82 C 34.98 172.15 29.41 163.83 33.77 158.76 Z" />
</g>
<g id="#615d90f1">
<path fill="#615d90" opacity="0.95" d=" M 81.92 164.98 C 83.35 161.85 84.85 158.73 86.59 155.75 C 87.99 159.23 86.06 164.94 81.92 164.98 Z" />
</g>
<g id="#7870a1fa">
<path fill="#7870a1" opacity="0.98" d=" M 36.18 165.87 C 35.67 162.77 37.96 159.94 40.11 157.99 C 40.71 158.99 41.37 159.97 42.01 160.96 C 39.66 161.99 39.40 164.79 39.68 167.04 L 39.65 167.75 C 38.95 171.26 38.96 174.77 39.68 178.28 C 40.27 182.21 41.66 185.99 42.08 189.96 C 41.35 189.33 38.92 189.56 39.36 188.28 C 40.07 186.61 39.02 184.94 38.71 183.31 C 36.81 177.67 36.90 171.70 36.18 165.87 Z" />
</g>
<g id="#7f76b1ff">
<path fill="#7f76b1" opacity="1.00" d=" M 151.29 173.27 C 156.59 167.51 162.23 161.92 169.07 158.02 C 170.40 158.24 173.05 158.68 174.38 158.91 C 174.08 159.46 173.47 160.56 173.17 161.11 C 165.33 163.71 158.70 169.19 152.78 174.81 C 152.32 175.14 151.41 175.79 150.95 176.12 C 151.04 175.41 151.21 173.98 151.29 173.27 Z" />
</g>
<g id="#6561a4ff">
<path fill="#6561a4" opacity="1.00" d=" M 190.78 161.60 C 192.64 160.55 194.65 159.60 196.85 160.02 C 197.83 161.75 198.26 163.73 199.08 165.54 C 195.74 166.95 193.66 162.67 190.78 161.60 Z" />
</g>
<g id="#9186bffc">
<path fill="#9186bf" opacity="1.00" d=" M 206.24 161.20 C 209.26 159.65 212.72 159.73 216.03 160.00 C 215.97 167.18 212.50 173.70 208.36 179.35 C 202.24 187.51 195.64 195.31 188.89 202.97 C 187.67 203.72 186.30 204.37 185.64 205.73 C 184.96 207.60 181.87 207.51 183.06 205.06 C 186.53 198.48 188.34 189.26 194.74 185.41 C 197.41 186.71 199.03 183.10 200.59 181.63 C 204.25 176.65 210.42 172.92 210.96 166.19 C 208.47 163.40 203.57 164.39 202.22 167.70 C 200.81 169.62 198.84 171.33 198.88 173.92 C 197.20 173.56 197.04 171.17 195.37 170.58 C 193.73 168.97 191.04 168.70 189.72 166.87 C 190.53 165.96 191.35 165.04 192.22 164.18 C 194.15 165.00 195.09 167.30 197.08 168.00 C 199.14 168.49 199.89 166.24 201.00 165.00 C 201.70 164.41 202.41 163.82 203.13 163.25 C 204.22 162.64 205.26 161.96 206.24 161.20 Z" />
</g>
<g id="#595489f4">
<path fill="#595489" opacity="0.96" d=" M 152.78 174.81 C 158.70 169.19 165.33 163.71 173.17 161.11 C 173.12 161.82 173.01 163.24 172.96 163.95 C 172.69 164.21 172.15 164.72 171.88 164.98 C 165.19 167.51 159.77 173.58 152.78 174.81 Z" />
</g>
<g id="#857badfc">
<path fill="#857bad" opacity="1.00" d=" M 184.75 164.64 C 186.76 163.63 188.76 162.58 190.78 161.60 C 193.66 162.67 195.74 166.95 199.08 165.54 C 199.56 165.41 200.52 165.14 201.00 165.00 C 199.89 166.24 199.14 168.49 197.08 168.00 C 195.09 167.30 194.15 165.00 192.22 164.18 C 191.35 165.04 190.53 165.96 189.72 166.87 C 187.85 167.14 186.31 165.45 184.75 164.64 Z" />
</g>
<g id="#ab9ccafd">
<path fill="#ab9cca" opacity="1.00" d=" M 202.22 167.70 C 203.57 164.39 208.47 163.40 210.96 166.19 C 210.42 172.92 204.25 176.65 200.59 181.63 C 199.03 183.10 197.41 186.71 194.74 185.41 C 196.35 182.46 197.46 179.12 200.07 176.86 C 202.83 174.70 204.01 170.96 202.22 167.70 Z" />
</g>
<g id="#211e308b">
<path fill="#211e30" opacity="0.55" d=" M 171.95 165.96 C 172.67 165.95 174.10 165.94 174.82 165.93 C 176.55 165.96 178.28 165.99 180.02 166.00 C 179.11 168.22 174.43 166.54 172.03 166.94 L 171.95 165.96 Z" />
</g>
<g id="#69649cfb">
<path fill="#69649c" opacity="1.00" d=" M 215.86 170.91 C 216.80 169.12 216.45 166.11 218.94 165.71 C 222.26 165.70 220.19 171.18 218.99 173.00 C 216.57 176.35 215.35 180.46 212.80 183.68 C 203.46 186.79 201.97 199.56 191.90 201.95 C 200.49 192.08 210.18 182.81 215.86 170.91 Z" />
</g>
<g id="#1d1c2d84">
<path fill="#1d1c2d" opacity="0.52" d=" M 39.68 178.28 C 38.96 174.77 38.95 171.26 39.65 167.75 C 39.96 171.24 40.28 174.80 39.68 178.28 Z" />
</g>
<g id="#d9c1e5ff">
<path fill="#d9c1e5" opacity="1.00" d=" M 202.22 167.70 C 204.01 170.96 202.83 174.70 200.07 176.86 C 199.67 175.88 199.27 174.90 198.88 173.92 C 198.84 171.33 200.81 169.62 202.22 167.70 Z" />
</g>
<g id="#58548bf4">
<path fill="#58548b" opacity="0.96" d=" M 191.90 201.95 C 201.97 199.56 203.46 186.79 212.80 183.68 C 211.54 188.99 205.81 191.57 202.94 195.93 C 199.27 201.67 192.49 205.88 185.64 205.73 C 186.30 204.37 187.67 203.72 188.89 202.97 C 189.92 202.70 190.92 202.36 191.90 201.95 Z" />
</g>
</svg>
