<?xml version="1.0" encoding="UTF-8" ?>
<!DOCTYPE svg PUBLIC "-//W3C//DTD SVG 1.1//EN" "http://www.w3.org/Graphics/SVG/1.1/DTD/svg11.dtd">
<svg width="200pt" height="196pt" viewBox="0 0 200 196" version="1.1" xmlns="http://www.w3.org/2000/svg">
<g id="#6f68a2e7">
<path fill="#6f68a2" opacity="0.91" d=" M 160.06 6.92 C 161.46 5.04 164.62 4.01 167.07 3.98 C 166.43 5.74 165.72 9.38 164.30 9.69 C 164.03 9.50 163.50 9.14 163.24 8.95 C 162.95 8.77 162.38 8.39 162.10 8.20 C 161.59 7.88 160.57 7.24 160.06 6.92 Z" />
</g>
<g id="#9f92d2fc">
<path fill="#9f92d2" opacity="1.00" d=" M 31.14 6.84 C 36.27 8.52 40.32 12.41 45.02 14.96 C 45.81 16.67 49.79 16.66 49.90 18.99 C 48.82 22.86 54.83 23.34 53.88 26.78 C 50.51 29.69 47.23 32.90 43.22 34.92 C 40.68 28.06 38.42 20.90 34.20 14.86 C 34.15 15.38 34.04 16.43 33.98 16.95 C 31.20 15.58 32.69 9.53 31.14 6.84 Z" />
</g>
<g id="#8d82c7ff">
<path fill="#8d82c7" opacity="1.00" d=" M 149.36 12.73 C 152.14 10.13 156.64 9.02 160.06 6.92 C 160.57 7.24 161.59 7.88 162.10 8.20 C 159.94 10.49 157.80 12.82 155.38 14.84 C 150.53 15.99 148.05 21.32 144.27 24.27 C 138.73 30.51 129.87 33.25 126.03 41.04 C 123.86 47.06 114.14 48.44 115.98 56.00 C 114.60 60.06 117.87 64.21 116.17 68.11 C 114.86 71.92 113.03 75.52 111.13 79.07 C 110.83 74.60 107.63 69.73 110.84 65.77 C 106.26 67.53 102.93 71.38 98.81 73.93 C 99.46 70.10 102.72 67.50 103.97 63.90 C 104.30 59.92 101.95 56.24 102.20 52.30 C 104.59 50.30 107.03 48.37 109.13 46.05 C 112.46 44.17 116.14 43.06 119.65 41.57 C 123.04 39.74 122.59 34.80 125.83 32.81 C 130.42 29.04 134.94 25.13 140.06 22.09 C 142.69 20.12 146.44 19.09 147.95 15.92 C 148.46 14.87 149.12 13.88 149.36 12.73 Z" />
</g>
<g id="#25223279">
<path fill="#252232" opacity="0.47" d=" M 102.21 7.94 C 102.64 7.97 103.51 8.03 103.95 8.05 C 104.03 14.14 104.14 20.24 103.89 26.33 C 102.56 20.54 103.69 14.49 102.40 8.73 L 102.21 7.94 Z" />
</g>
<g id="#7c73b0ff">
<path fill="#7c73b0" opacity="1.00" d=" M 162.10 8.20 C 162.38 8.39 162.95 8.77 163.24 8.95 C 159.42 12.94 155.98 17.25 152.90 21.83 C 147.26 25.02 143.39 30.41 139.18 35.18 C 136.99 37.96 133.19 39.59 132.49 43.38 C 131.81 49.00 130.10 54.43 129.14 60.00 C 129.64 66.29 132.69 73.13 129.04 79.02 C 128.22 82.25 124.83 83.02 122.18 84.23 C 116.33 86.40 111.10 89.96 105.24 92.06 C 105.19 91.61 105.08 90.72 105.03 90.27 C 107.15 88.67 108.47 86.38 109.54 84.00 C 109.90 84.22 110.64 84.66 111.00 84.88 C 117.29 81.80 125.45 77.51 124.09 69.00 C 125.48 64.05 123.68 59.09 124.15 54.13 C 127.34 47.14 129.79 38.96 136.61 34.54 C 143.08 28.24 150.35 22.43 155.38 14.84 C 157.80 12.82 159.94 10.49 162.10 8.20 Z" />
</g>
<g id="#ad9ee2fb">
<path fill="#ad9ee2" opacity="1.00" d=" M 102.40 8.73 C 103.69 14.49 102.56 20.54 103.89 26.33 C 102.84 27.28 101.36 26.99 100.08 27.05 C 99.96 22.34 99.95 17.64 99.98 12.94 C 100.60 11.44 101.49 10.07 102.40 8.73 Z" />
</g>
<g id="#686197ff">
<path fill="#686197" opacity="1.00" d=" M 163.24 8.95 C 163.50 9.14 164.03 9.50 164.30 9.69 C 164.12 11.35 163.26 12.87 162.03 13.98 C 159.75 16.14 157.89 18.69 155.67 20.92 C 149.73 28.66 143.27 36.24 139.02 45.09 C 138.17 49.44 141.24 52.90 141.86 56.88 C 140.91 58.75 139.50 60.57 140.05 62.80 C 141.10 63.99 142.71 64.00 144.16 64.27 C 142.85 65.72 140.90 65.94 139.11 66.40 C 138.92 71.52 139.72 76.60 139.74 81.71 C 136.89 82.52 137.39 86.63 136.50 88.61 C 136.07 91.97 133.52 94.45 132.70 97.66 C 131.03 109.58 128.74 122.35 120.92 131.92 C 113.92 143.85 100.51 149.29 89.28 156.26 C 87.73 159.43 83.21 162.44 84.89 166.11 C 82.69 165.61 78.93 164.86 79.01 162.06 C 82.12 157.29 85.02 151.45 90.85 149.76 C 98.55 145.81 106.57 141.94 112.80 135.80 C 120.70 129.12 123.18 118.42 126.00 108.89 C 121.95 111.66 117.03 112.91 113.60 116.56 C 107.19 120.47 99.11 122.21 91.76 120.38 C 93.26 120.10 94.77 119.84 96.20 119.32 C 97.46 118.89 98.70 118.41 99.96 117.96 C 99.73 118.50 99.28 119.57 99.05 120.11 C 112.46 119.74 118.05 105.60 126.71 97.67 C 128.64 94.15 123.62 93.16 123.66 89.92 C 124.89 88.57 126.14 87.24 127.27 85.82 C 127.93 86.87 128.54 87.95 129.24 88.99 C 133.19 86.44 135.45 81.71 135.55 77.06 C 136.66 71.84 133.45 66.88 134.54 61.63 C 135.40 56.46 136.15 51.29 135.10 46.07 C 138.61 36.50 147.41 30.20 152.90 21.83 C 155.98 17.25 159.42 12.94 163.24 8.95 Z" />
</g>
<g id="#bfb0edfe">
<path fill="#bfb0ed" opacity="1.00" d=" M 95.89 17.96 C 96.81 16.00 97.93 13.90 99.98 12.94 C 99.95 17.64 99.96 22.34 100.08 27.05 C 101.36 26.99 102.84 27.28 103.89 26.33 C 104.43 25.98 105.52 25.30 106.06 24.95 C 106.82 25.00 108.33 25.09 109.09 25.14 C 108.16 30.36 102.84 33.88 97.63 33.55 C 82.60 34.78 64.96 34.70 54.19 47.19 C 50.41 50.10 48.57 55.36 44.00 57.20 C 48.96 48.87 55.85 40.83 65.02 37.08 C 75.12 34.26 85.47 32.02 96.01 31.93 C 97.99 31.98 99.71 30.77 101.06 29.43 C 95.06 29.23 97.05 22.05 95.89 17.96 Z" />
</g>
<g id="#a09cc6e8">
<path fill="#a09cc6" opacity="0.91" d=" M 144.23 16.15 C 144.11 13.86 147.60 13.34 149.36 12.73 C 149.12 13.88 148.46 14.87 147.95 15.92 C 146.71 15.99 145.47 16.07 144.23 16.15 Z" />
</g>
<g id="#857bbcff">
<path fill="#857bbc" opacity="1.00" d=" M 144.27 24.27 C 148.05 21.32 150.53 15.99 155.38 14.84 C 150.35 22.43 143.08 28.24 136.61 34.54 C 129.79 38.96 127.34 47.14 124.15 54.13 C 123.68 59.09 125.48 64.05 124.09 69.00 C 125.45 77.51 117.29 81.80 111.00 84.88 C 110.64 84.66 109.90 84.22 109.54 84.00 C 109.96 82.33 110.39 80.64 111.13 79.07 C 113.03 75.52 114.86 71.92 116.17 68.11 C 117.87 64.21 114.60 60.06 115.98 56.00 C 114.14 48.44 123.86 47.06 126.03 41.04 C 129.87 33.25 138.73 30.51 144.27 24.27 Z" />
</g>
<g id="#4e4b80f3">
<path fill="#4e4b80" opacity="0.95" d=" M 155.67 20.92 C 157.89 18.69 159.75 16.14 162.03 13.98 C 161.54 16.84 160.41 21.56 158.21 22.83 C 157.35 22.20 156.51 21.56 155.67 20.92 Z" />
</g>
<g id="#a799d3fb">
<path fill="#a799d3" opacity="1.00" d=" M 34.20 14.86 C 38.42 20.90 40.68 28.06 43.22 34.92 C 47.23 32.90 50.51 29.69 53.88 26.78 C 54.83 23.34 48.82 22.86 49.90 18.99 C 53.32 20.34 57.18 22.12 59.24 25.40 C 57.94 28.60 54.49 29.93 52.06 32.08 C 48.75 34.40 46.35 38.29 42.04 38.82 C 40.02 40.00 42.03 34.99 40.11 36.26 C 40.05 36.68 39.92 37.53 39.86 37.96 L 39.14 37.88 C 38.36 30.71 34.77 24.10 33.98 16.95 C 34.04 16.43 34.15 15.38 34.20 14.86 Z" />
</g>
<g id="#bba4dff6">
<path fill="#bba4df" opacity="0.96" d=" M 132.83 21.58 C 136.14 19.07 140.08 16.76 144.23 16.15 C 141.08 18.96 137.14 21.42 132.83 21.58 Z" />
</g>
<g id="#9a8dcdfe">
<path fill="#9a8dcd" opacity="1.00" d=" M 144.23 16.15 C 145.47 16.07 146.71 15.99 147.95 15.92 C 146.44 19.09 142.69 20.12 140.06 22.09 C 134.94 25.13 130.42 29.04 125.83 32.81 C 122.59 34.80 123.04 39.74 119.65 41.57 C 116.14 43.06 112.46 44.17 109.13 46.05 C 106.17 45.17 103.11 45.60 100.15 46.21 C 100.75 44.76 101.36 43.31 102.01 41.88 C 108.66 39.11 117.05 38.81 121.10 32.03 C 124.58 29.45 128.44 27.44 131.94 24.88 C 131.42 24.12 130.88 23.38 130.31 22.67 C 129.29 21.42 132.11 21.84 132.83 21.58 C 137.14 21.42 141.08 18.96 144.23 16.15 Z" />
</g>
<g id="#cdbdf6fc">
<path fill="#cdbdf6" opacity="1.00" d=" M 87.80 27.84 C 90.59 24.65 92.33 20.39 95.89 17.96 C 97.05 22.05 95.06 29.23 101.06 29.43 C 99.71 30.77 97.99 31.98 96.01 31.93 C 85.47 32.02 75.12 34.26 65.02 37.08 C 55.85 40.83 48.96 48.87 44.00 57.20 C 43.29 57.69 42.65 58.42 41.70 58.34 C 42.16 56.47 43.21 54.82 43.86 53.01 C 42.99 50.29 41.74 47.64 41.72 44.72 C 42.79 41.93 46.57 42.28 48.67 40.61 C 53.64 36.11 59.29 32.44 63.94 27.63 C 66.54 29.19 69.18 30.67 71.85 32.06 C 72.67 30.54 74.30 27.49 75.11 25.97 C 77.30 26.50 77.02 30.75 79.80 29.90 C 81.79 27.77 81.17 21.82 84.79 22.06 C 85.89 23.84 84.83 28.64 87.80 27.84 Z" />
</g>
<g id="#b7a9e2fd">
<path fill="#b7a9e2" opacity="1.00" d=" M 106.11 24.16 C 109.66 23.94 112.73 21.99 116.05 20.93 C 114.88 23.50 113.14 25.73 111.60 28.07 C 110.23 29.24 112.39 30.06 112.95 31.03 C 98.81 39.80 80.77 35.04 66.01 42.05 C 59.71 44.52 55.19 49.92 50.97 54.98 C 45.38 64.72 40.06 75.10 37.19 85.95 C 37.29 86.40 37.49 87.31 37.58 87.77 C 37.41 88.05 37.05 88.61 36.88 88.90 C 35.45 92.41 35.88 96.67 36.57 100.35 C 39.20 111.10 40.43 122.11 42.05 133.04 L 41.13 133.00 L 40.22 132.90 C 37.66 126.72 36.01 120.23 34.43 113.75 C 34.03 112.04 33.52 110.36 32.86 108.74 L 32.78 108.07 C 33.00 101.77 32.81 95.46 33.32 89.18 C 33.68 86.17 33.98 83.18 34.34 80.18 C 34.68 76.85 35.62 73.57 35.51 70.20 C 38.45 66.79 38.73 61.24 41.70 58.34 C 42.65 58.42 43.29 57.69 44.00 57.20 C 48.57 55.36 50.41 50.10 54.19 47.19 C 64.96 34.70 82.60 34.78 97.63 33.55 C 102.84 33.88 108.16 30.36 109.09 25.14 C 108.33 25.09 106.82 25.00 106.06 24.95 L 106.11 24.16 Z" />
</g>
<g id="#5a558dfc">
<path fill="#5a558d" opacity="1.00" d=" M 139.02 45.09 C 143.27 36.24 149.73 28.66 155.67 20.92 C 156.51 21.56 157.35 22.20 158.21 22.83 L 157.75 23.55 C 152.20 27.56 150.31 34.90 146.07 40.07 C 144.30 42.36 141.98 48.18 147.01 47.14 C 146.82 49.19 145.11 50.78 145.05 52.84 C 146.10 53.73 147.47 53.94 148.75 54.34 C 150.43 57.30 149.73 60.88 150.69 64.09 C 148.78 64.02 146.87 64.04 144.97 64.21 L 144.16 64.27 C 142.71 64.00 141.10 63.99 140.05 62.80 C 139.50 60.57 140.91 58.75 141.86 56.88 C 141.24 52.90 138.17 49.44 139.02 45.09 Z" />
</g>
<g id="#736ba5ff">
<path fill="#736ba5" opacity="1.00" d=" M 139.18 35.18 C 143.39 30.41 147.26 25.02 152.90 21.83 C 147.41 30.20 138.61 36.50 135.10 46.07 C 136.15 51.29 135.40 56.46 134.54 61.63 C 133.45 66.88 136.66 71.84 135.55 77.06 C 135.45 81.71 133.19 86.44 129.24 88.99 C 128.54 87.95 127.93 86.87 127.27 85.82 C 125.85 84.36 123.77 88.25 122.21 89.15 C 117.28 90.54 108.62 90.18 106.92 96.13 C 104.65 96.99 102.31 97.72 99.92 98.14 C 100.48 96.73 101.19 95.38 101.85 94.01 C 101.10 93.97 99.60 93.88 98.85 93.83 C 100.69 92.74 102.53 91.64 104.14 90.23 L 105.03 90.27 C 105.08 90.72 105.19 91.61 105.24 92.06 C 111.10 89.96 116.33 86.40 122.18 84.23 C 124.83 83.02 128.22 82.25 129.04 79.02 C 132.69 73.13 129.64 66.29 129.14 60.00 C 130.10 54.43 131.81 49.00 132.49 43.38 C 133.19 39.59 136.99 37.96 139.18 35.18 Z" />
</g>
<g id="#a99cd8fe">
<path fill="#a99cd8" opacity="1.00" d=" M 123.71 25.42 C 126.28 25.92 127.82 22.87 130.31 22.67 C 130.88 23.38 131.42 24.12 131.94 24.88 C 128.44 27.44 124.58 29.45 121.10 32.03 C 112.88 38.28 102.13 37.81 92.61 40.52 C 81.92 43.68 69.33 42.69 60.69 50.68 C 55.99 55.02 53.33 60.99 49.37 65.94 C 49.53 67.92 49.71 69.94 48.80 71.78 C 47.06 75.84 47.03 80.32 47.00 84.67 C 43.62 84.82 40.52 87.77 37.19 85.95 C 40.06 75.10 45.38 64.72 50.97 54.98 C 55.19 49.92 59.71 44.52 66.01 42.05 C 80.77 35.04 98.81 39.80 112.95 31.03 C 112.39 30.06 110.23 29.24 111.60 28.07 C 115.60 29.86 119.60 25.28 123.71 25.42 Z" />
</g>
<g id="#48447cf6">
<path fill="#48447c" opacity="0.96" d=" M 146.07 40.07 C 150.31 34.90 152.20 27.56 157.75 23.55 C 155.27 31.64 150.66 38.91 147.83 46.89 L 147.01 47.14 C 141.98 48.18 144.30 42.36 146.07 40.07 Z" />
</g>
<g id="#b6a8e1fd">
<path fill="#b6a8e1" opacity="1.00" d=" M 59.24 25.40 C 60.89 24.46 62.43 26.95 63.94 27.63 C 59.29 32.44 53.64 36.11 48.67 40.61 C 46.57 42.28 42.79 41.93 41.72 44.72 C 40.37 44.44 40.59 39.88 39.86 37.96 C 39.92 37.53 40.05 36.68 40.11 36.26 C 42.03 34.99 40.02 40.00 42.04 38.82 C 46.35 38.29 48.75 34.40 52.06 32.08 C 54.49 29.93 57.94 28.60 59.24 25.40 Z" />
</g>
<g id="#a194d8ff">
<path fill="#a194d8" opacity="1.00" d=" M 92.61 40.52 C 102.13 37.81 112.88 38.28 121.10 32.03 C 117.05 38.81 108.66 39.11 102.01 41.88 C 96.49 42.41 91.42 44.96 86.05 46.16 C 79.24 48.34 71.53 49.02 65.96 53.96 C 60.57 57.44 58.84 64.07 54.73 68.74 C 54.07 68.83 52.75 69.00 52.09 69.09 C 51.24 68.00 50.31 66.96 49.37 65.94 C 53.33 60.99 55.99 55.02 60.69 50.68 C 69.33 42.69 81.92 43.68 92.61 40.52 Z" />
</g>
<g id="#998cd7ff">
<path fill="#998cd7" opacity="1.00" d=" M 86.05 46.16 C 91.42 44.96 96.49 42.41 102.01 41.88 C 101.36 43.31 100.75 44.76 100.15 46.21 C 91.60 50.75 82.24 53.77 74.18 59.24 C 70.93 65.25 64.77 68.63 61.72 74.77 C 60.54 75.55 59.12 75.77 57.81 76.25 C 55.47 74.24 53.69 71.71 52.09 69.09 C 52.75 69.00 54.07 68.83 54.73 68.74 C 58.84 64.07 60.57 57.44 65.96 53.96 C 71.53 49.02 79.24 48.34 86.05 46.16 Z" />
</g>
<g id="#9185d3ff">
<path fill="#9185d3" opacity="1.00" d=" M 100.15 46.21 C 103.11 45.60 106.17 45.17 109.13 46.05 C 107.03 48.37 104.59 50.30 102.20 52.30 C 101.95 56.24 104.30 59.92 103.97 63.90 C 102.72 67.50 99.46 70.10 98.81 73.93 C 98.46 74.18 97.74 74.67 97.38 74.91 C 97.02 74.74 96.30 74.40 95.94 74.23 C 89.37 78.23 83.84 85.07 75.70 85.72 C 71.97 86.27 68.46 84.13 64.73 84.11 C 63.89 83.36 63.05 82.60 62.22 81.85 C 60.74 80.27 59.23 78.72 57.76 77.13 L 57.81 76.25 C 59.12 75.77 60.54 75.55 61.72 74.77 C 64.77 68.63 70.93 65.25 74.18 59.24 C 82.24 53.77 91.60 50.75 100.15 46.21 Z" />
</g>
<g id="#736ba5fe">
<path fill="#736ba5" opacity="1.00" d=" M 144.16 64.27 L 144.97 64.21 C 144.24 68.36 148.20 71.54 152.01 71.99 C 154.97 72.66 158.06 74.63 161.20 73.49 C 173.63 83.12 178.33 100.04 184.27 114.39 C 182.76 115.14 181.50 113.83 180.18 113.30 C 179.10 116.56 177.69 119.67 175.50 122.36 C 173.63 124.05 175.58 126.92 173.17 128.27 L 172.10 128.10 L 172.22 127.15 C 172.89 121.53 172.69 115.77 172.86 110.12 C 168.77 102.02 166.82 92.49 159.81 86.19 C 155.46 81.35 149.85 76.73 143.17 76.03 C 140.43 79.12 141.16 83.44 140.76 87.26 C 140.36 86.10 140.00 84.93 139.67 83.75 C 139.69 83.24 139.72 82.22 139.74 81.71 C 139.72 76.60 138.92 71.52 139.11 66.40 C 140.90 65.94 142.85 65.72 144.16 64.27 Z" />
</g>
<g id="#7f75b0fd">
<path fill="#7f75b0" opacity="1.00" d=" M 144.97 64.21 C 146.87 64.04 148.78 64.02 150.69 64.09 C 153.68 67.79 157.75 70.28 161.20 73.49 C 158.06 74.63 154.97 72.66 152.01 71.99 C 148.20 71.54 144.24 68.36 144.97 64.21 Z" />
</g>
<g id="#5f4580ff">
<path fill="#5f4580" opacity="1.00" d=" M 49.37 65.94 C 50.31 66.96 51.24 68.00 52.09 69.09 C 53.69 71.71 55.47 74.24 57.81 76.25 L 57.76 77.13 L 56.82 77.15 L 56.01 77.14 C 53.88 75.51 52.77 70.57 49.73 71.53 L 48.80 71.78 C 49.71 69.94 49.53 67.92 49.37 65.94 Z" />
</g>
<g id="#563e71ff">
<path fill="#563e71" opacity="1.00" d=" M 98.81 73.93 C 102.93 71.38 106.26 67.53 110.84 65.77 C 107.63 69.73 110.83 74.60 111.13 79.07 C 110.39 80.64 109.96 82.33 109.54 84.00 C 108.47 86.38 107.15 88.67 105.03 90.27 L 104.14 90.23 L 103.05 90.13 C 105.22 87.18 107.71 84.39 109.00 80.90 C 109.43 77.17 108.48 73.57 107.76 69.96 C 103.29 72.38 97.26 75.63 96.42 81.18 C 96.02 79.96 95.57 78.77 95.06 77.60 C 95.83 76.70 96.61 75.81 97.38 74.91 C 97.74 74.67 98.46 74.18 98.81 73.93 Z" />
</g>
<g id="#9186c3fb">
<path fill="#9186c3" opacity="1.00" d=" M 22.97 82.91 C 26.19 78.19 29.97 72.38 35.51 70.20 C 35.62 73.57 34.68 76.85 34.34 80.18 C 34.36 76.09 28.88 78.18 27.78 80.77 C 22.76 90.07 20.97 100.72 17.54 110.66 C 16.42 113.36 15.29 116.11 15.00 119.06 C 14.79 119.36 14.38 119.95 14.18 120.25 C 13.57 109.96 18.43 100.47 19.65 90.42 C 20.77 87.92 21.99 85.47 22.97 82.91 Z" />
</g>
<g id="#e8837bff">
<path fill="#e8837b" opacity="1.00" d=" M 96.42 81.18 C 97.26 75.63 103.29 72.38 107.76 69.96 C 108.48 73.57 109.43 77.17 109.00 80.90 C 107.71 84.39 105.22 87.18 103.05 90.13 C 97.44 93.58 88.76 94.12 84.82 88.00 C 86.19 85.66 88.62 84.24 90.84 82.81 C 91.65 83.75 91.56 86.00 93.13 85.94 C 96.00 86.81 95.94 83.02 96.42 81.18 Z" />
</g>
<g id="#ea847bff">
<path fill="#ea847b" opacity="1.00" d=" M 49.73 71.53 C 52.77 70.57 53.88 75.51 56.01 77.14 C 55.07 79.73 55.28 82.08 56.64 84.18 C 57.09 87.70 59.97 84.64 61.01 83.16 C 62.36 84.81 63.92 86.28 65.15 88.03 C 62.57 92.96 56.48 93.83 52.02 91.00 C 47.67 85.34 47.64 78.10 49.73 71.53 Z" />
</g>
<g id="#715587ff">
<path fill="#715587" opacity="1.00" d=" M 47.00 84.67 C 47.03 80.32 47.06 75.84 48.80 71.78 L 49.73 71.53 C 47.64 78.10 47.67 85.34 52.02 91.00 L 51.87 92.07 C 49.55 90.14 48.36 87.28 47.00 84.67 Z" />
</g>
<g id="#887cc8ff">
<path fill="#887cc8" opacity="1.00" d=" M 95.94 74.23 C 96.30 74.40 97.02 74.74 97.38 74.91 C 96.61 75.81 95.83 76.70 95.06 77.60 C 93.61 78.63 92.11 79.62 90.76 80.79 C 87.68 83.08 84.85 85.67 81.90 88.13 C 79.60 89.35 83.44 90.55 84.08 91.87 C 78.01 93.67 71.48 93.04 65.23 92.88 C 65.15 92.45 64.98 91.60 64.89 91.18 C 66.14 90.49 67.52 90.10 68.87 89.66 C 67.43 87.85 65.73 86.23 64.73 84.11 C 68.46 84.13 71.97 86.27 75.70 85.72 C 83.84 85.07 89.37 78.23 95.94 74.23 Z" />
</g>
<g id="#7c72b7ff">
<path fill="#7c72b7" opacity="1.00" d=" M 143.17 76.03 C 149.85 76.73 155.46 81.35 159.81 86.19 C 166.82 92.49 168.77 102.02 172.86 110.12 C 172.69 115.77 172.89 121.53 172.22 127.15 C 167.93 125.78 163.99 122.52 160.72 119.56 C 162.57 119.80 164.37 120.31 166.18 120.74 C 164.80 116.59 162.14 112.99 158.64 110.38 C 152.65 106.01 148.29 99.94 143.00 94.83 C 142.73 94.51 142.19 93.85 141.92 93.52 C 141.56 92.58 141.18 91.65 140.80 90.72 C 140.81 89.56 140.79 88.41 140.76 87.26 C 141.16 83.44 140.43 79.12 143.17 76.03 Z" />
<path fill="#7c72b7" opacity="1.00" d=" M 43.55 92.94 C 47.09 90.40 50.23 95.22 54.11 94.02 C 55.47 94.10 56.84 94.17 58.20 94.24 C 57.15 94.85 56.09 95.46 55.10 96.15 C 55.67 97.13 56.35 98.05 57.00 98.98 C 52.07 98.45 47.73 95.38 43.55 92.94 Z" />
</g>
<g id="#965358ff">
<path fill="#965358" opacity="1.00" d=" M 56.01 77.14 L 56.82 77.15 C 56.78 78.90 56.69 82.42 56.64 84.18 C 55.28 82.08 55.07 79.73 56.01 77.14 Z" />
</g>
<g id="#463956ff">
<path fill="#463956" opacity="1.00" d=" M 56.82 77.15 L 57.76 77.13 C 59.23 78.72 60.74 80.27 62.22 81.85 C 61.92 82.17 61.31 82.83 61.01 83.16 C 59.97 84.64 57.09 87.70 56.64 84.18 C 56.69 82.42 56.78 78.90 56.82 77.15 Z" />
</g>
<g id="#8177baff">
<path fill="#8177ba" opacity="1.00" d=" M 27.78 80.77 C 28.88 78.18 34.36 76.09 34.34 80.18 C 33.98 83.18 33.68 86.17 33.32 89.18 C 31.74 86.33 32.15 90.48 31.57 91.69 C 26.58 101.11 20.46 109.91 15.00 119.06 C 15.29 116.11 16.42 113.36 17.54 110.66 C 20.97 100.72 22.76 90.07 27.78 80.77 Z" />
</g>
<g id="#2a2032ff">
<path fill="#2a2032" opacity="1.00" d=" M 90.76 80.79 C 92.11 79.62 93.61 78.63 95.06 77.60 C 95.57 78.77 96.02 79.96 96.42 81.18 C 95.94 83.02 96.00 86.81 93.13 85.94 C 91.56 86.00 91.65 83.75 90.84 82.81 C 90.82 82.31 90.78 81.29 90.76 80.79 M 93.30 80.19 C 92.62 81.35 92.59 82.53 93.21 83.72 C 95.54 84.41 95.95 78.85 93.30 80.19 Z" />
</g>
<g id="#9891a7ff">
<path fill="#9891a7" opacity="1.00" d=" M 93.30 80.19 C 95.95 78.85 95.54 84.41 93.21 83.72 C 92.59 82.53 92.62 81.35 93.30 80.19 Z" />
</g>
<g id="#46336dff">
<path fill="#46336d" opacity="1.00" d=" M 81.90 88.13 C 84.85 85.67 87.68 83.08 90.76 80.79 C 90.78 81.29 90.82 82.31 90.84 82.81 C 88.62 84.24 86.19 85.66 84.82 88.00 C 88.76 94.12 97.44 93.58 103.05 90.13 L 104.14 90.23 C 102.53 91.64 100.69 92.74 98.85 93.83 C 96.31 93.94 93.78 94.07 91.25 94.23 C 87.84 92.67 84.79 90.49 81.90 88.13 Z" />
</g>
<g id="#574179ff">
<path fill="#574179" opacity="1.00" d=" M 62.22 81.85 C 63.05 82.60 63.89 83.36 64.73 84.11 C 65.73 86.23 67.43 87.85 68.87 89.66 C 67.52 90.10 66.14 90.49 64.89 91.18 C 62.77 92.42 60.69 93.86 58.20 94.24 C 56.84 94.17 55.47 94.10 54.11 94.02 C 53.35 93.39 52.60 92.74 51.87 92.07 L 52.02 91.00 C 56.48 93.83 62.57 92.96 65.15 88.03 C 63.92 86.28 62.36 84.81 61.01 83.16 C 61.31 82.83 61.92 82.17 62.22 81.85 Z" />
</g>
<g id="#635c92ff">
<path fill="#635c92" opacity="1.00" d=" M 136.50 88.61 C 137.39 86.63 136.89 82.52 139.74 81.71 C 139.72 82.22 139.69 83.24 139.67 83.75 C 136.15 100.25 136.02 118.15 126.91 132.94 C 123.28 140.38 116.58 145.64 109.42 149.49 C 103.07 154.65 94.46 156.88 89.83 164.02 C 90.89 166.03 93.15 166.90 94.93 168.15 C 91.54 167.69 88.23 166.83 84.89 166.11 C 83.21 162.44 87.73 159.43 89.28 156.26 C 100.51 149.29 113.92 143.85 120.92 131.92 C 128.74 122.35 131.03 109.58 132.70 97.66 C 133.52 94.45 136.07 91.97 136.50 88.61 Z" />
</g>
<g id="#9d91cbfb">
<path fill="#9d91cb" opacity="1.00" d=" M 17.53 91.82 C 18.43 88.56 19.88 84.69 22.97 82.91 C 21.99 85.47 20.77 87.92 19.65 90.42 C 18.43 100.47 13.57 109.96 14.18 120.25 C 14.17 120.99 14.14 122.49 14.13 123.23 C 13.23 124.64 12.12 121.35 11.13 120.81 C 11.11 120.07 11.06 118.60 11.04 117.86 C 11.60 118.21 13.43 121.51 12.92 119.10 C 10.44 109.58 15.83 100.82 17.53 91.82 Z" />
</g>
<g id="#5d588fff">
<path fill="#5d588f" opacity="1.00" d=" M 126.91 132.94 C 136.02 118.15 136.15 100.25 139.67 83.75 C 140.00 84.93 140.36 86.10 140.76 87.26 C 140.79 88.41 140.81 89.56 140.80 90.72 C 137.76 96.53 141.17 103.12 139.18 109.11 C 136.83 117.02 135.99 125.50 131.72 132.72 C 126.24 143.35 116.49 150.63 106.22 156.21 C 102.76 158.68 96.84 160.11 96.01 164.84 C 99.44 167.19 103.71 167.69 107.31 169.73 L 106.16 169.87 C 103.50 169.92 100.84 169.93 98.19 169.89 C 97.10 169.30 96.00 168.75 94.93 168.15 C 93.15 166.90 90.89 166.03 89.83 164.02 C 94.46 156.88 103.07 154.65 109.42 149.49 C 116.58 145.64 123.28 140.38 126.91 132.94 Z" />
</g>
<g id="#8b81c0ff">
<path fill="#8b81c0" opacity="1.00" d=" M 37.19 85.95 C 40.52 87.77 43.62 84.82 47.00 84.67 C 48.36 87.28 49.55 90.14 51.87 92.07 C 52.60 92.74 53.35 93.39 54.11 94.02 C 50.23 95.22 47.09 90.40 43.55 92.94 C 41.51 92.04 40.85 88.08 38.48 88.87 C 38.26 88.60 37.81 88.04 37.58 87.77 C 37.49 87.31 37.29 86.40 37.19 85.95 Z" />
</g>
<g id="#433f62ff">
<path fill="#433f62" opacity="1.00" d=" M 122.21 89.15 C 123.77 88.25 125.85 84.36 127.27 85.82 C 126.14 87.24 124.89 88.57 123.66 89.92 C 121.47 93.57 117.58 94.56 113.75 95.67 C 110.50 96.65 107.26 97.68 104.00 98.64 C 101.30 99.51 98.50 100.02 95.76 100.74 C 94.41 101.01 93.07 101.30 91.76 101.69 C 91.11 101.80 89.83 102.01 89.18 102.12 L 88.29 102.22 C 80.81 102.03 73.33 101.98 65.85 101.90 L 64.82 101.87 C 65.18 101.57 65.90 100.96 66.27 100.66 C 77.51 101.45 89.02 101.37 99.92 98.14 C 102.31 97.72 104.65 96.99 106.92 96.13 C 112.06 94.10 118.56 93.77 122.21 89.15 Z" />
</g>
<g id="#756ca7ff">
<path fill="#756ca7" opacity="1.00" d=" M 31.57 91.69 C 32.15 90.48 31.74 86.33 33.32 89.18 C 32.81 95.46 33.00 101.77 32.78 108.07 C 32.54 106.53 32.07 103.46 31.84 101.92 C 26.31 109.34 19.61 115.79 14.13 123.23 C 14.14 122.49 14.17 120.99 14.18 120.25 C 14.38 119.95 14.79 119.36 15.00 119.06 C 20.46 109.91 26.58 101.11 31.57 91.69 Z" />
</g>
<g id="#a094cbfe">
<path fill="#a094cb" opacity="1.00" d=" M 36.88 88.90 C 37.05 88.61 37.41 88.05 37.58 87.77 C 37.81 88.04 38.26 88.60 38.48 88.87 C 38.65 89.31 38.98 90.18 39.14 90.62 C 38.34 93.01 38.16 95.66 38.80 98.12 C 41.24 108.19 44.19 118.15 48.33 127.66 C 49.37 134.29 50.02 141.07 49.97 147.81 C 47.56 149.75 44.19 149.44 41.27 149.42 C 35.80 151.85 35.88 159.13 35.14 164.21 C 34.63 167.49 34.44 170.79 34.45 174.10 C 33.59 176.03 32.93 178.03 32.92 180.17 L 32.81 181.12 C 32.17 180.40 31.51 179.70 30.83 179.01 C 30.60 177.31 31.23 175.68 31.32 173.99 C 33.59 171.15 32.15 167.64 32.32 164.27 C 33.65 160.69 34.03 156.87 35.00 153.19 C 37.28 151.36 38.56 146.80 42.08 147.68 C 44.31 148.21 46.25 145.73 46.94 143.92 C 45.58 131.22 42.26 118.81 39.53 106.35 C 37.62 100.71 36.70 94.85 36.88 88.90 Z" />
</g>
<g id="#5a557dff">
<path fill="#5a557d" opacity="1.00" d=" M 38.48 88.87 C 40.85 88.08 41.51 92.04 43.55 92.94 C 47.73 95.38 52.07 98.45 57.00 98.98 C 57.39 99.01 58.16 99.08 58.55 99.12 C 61.11 99.62 63.73 100.00 66.27 100.66 C 65.90 100.96 65.18 101.57 64.82 101.87 C 64.10 101.92 62.67 102.00 61.96 102.04 C 61.51 102.00 60.60 101.91 60.15 101.87 C 57.91 100.69 55.47 99.99 52.94 99.83 C 49.53 98.70 46.02 94.14 42.61 96.00 C 42.10 95.16 41.59 94.32 41.07 93.49 C 40.50 92.48 39.82 91.54 39.14 90.62 C 38.98 90.18 38.65 89.31 38.48 88.87 Z" />
</g>
<g id="#7d72bcff">
<path fill="#7d72bc" opacity="1.00" d=" M 84.08 91.87 C 83.44 90.55 79.60 89.35 81.90 88.13 C 84.79 90.49 87.84 92.67 91.25 94.23 C 89.70 95.83 87.75 96.56 85.38 96.41 C 77.96 97.29 70.30 99.08 62.88 97.29 C 61.16 96.75 59.90 98.38 58.55 99.12 C 58.16 99.08 57.39 99.01 57.00 98.98 C 56.35 98.05 55.67 97.13 55.10 96.15 C 56.09 95.46 57.15 94.85 58.20 94.24 C 60.69 93.86 62.77 92.42 64.89 91.18 C 64.98 91.60 65.15 92.45 65.23 92.88 C 71.48 93.04 78.01 93.67 84.08 91.87 Z" />
</g>
<g id="#ada0d7ff">
<path fill="#ada0d7" opacity="1.00" d=" M 36.57 100.35 C 35.88 96.67 35.45 92.41 36.88 88.90 C 36.70 94.85 37.62 100.71 39.53 106.35 C 42.26 118.81 45.58 131.22 46.94 143.92 C 46.25 145.73 44.31 148.21 42.08 147.68 C 38.56 146.80 37.28 151.36 35.00 153.19 C 34.92 149.76 36.90 146.47 40.12 145.18 C 45.01 143.31 42.49 137.01 42.05 133.04 C 40.43 122.11 39.20 111.10 36.57 100.35 Z" />
</g>
<g id="#675f9eff">
<path fill="#675f9e" opacity="1.00" d=" M 106.92 96.13 C 108.62 90.18 117.28 90.54 122.21 89.15 C 118.56 93.77 112.06 94.10 106.92 96.13 Z" />
</g>
<g id="#605994ff">
<path fill="#605994" opacity="1.00" d=" M 113.75 95.67 C 117.58 94.56 121.47 93.57 123.66 89.92 C 123.62 93.16 128.64 94.15 126.71 97.67 C 118.05 105.60 112.46 119.74 99.05 120.11 C 99.28 119.57 99.73 118.50 99.96 117.96 C 102.18 116.94 104.42 115.89 106.27 114.27 C 107.20 113.59 108.15 112.95 109.07 112.25 C 111.20 110.65 112.50 108.27 114.10 106.19 C 114.84 105.19 115.56 104.17 116.25 103.12 C 117.08 101.88 117.85 100.59 118.41 99.20 C 120.75 95.44 116.42 95.80 113.75 95.67 Z" />
</g>
<g id="#958ac1ff">
<path fill="#958ac1" opacity="1.00" d=" M 39.14 90.62 C 39.82 91.54 40.50 92.48 41.07 93.49 C 38.39 98.30 42.74 103.78 43.61 108.79 C 43.24 118.51 52.95 124.84 54.69 133.98 C 53.97 139.56 53.85 145.24 52.80 150.77 C 49.27 152.79 45.01 150.76 41.24 151.25 C 37.47 154.50 37.26 159.95 35.14 164.21 C 35.88 159.13 35.80 151.85 41.27 149.42 C 44.19 149.44 47.56 149.75 49.97 147.81 C 50.02 141.07 49.37 134.29 48.33 127.66 C 44.19 118.15 41.24 108.19 38.80 98.12 C 38.16 95.66 38.34 93.01 39.14 90.62 Z" />
</g>
<g id="#58538bff">
<path fill="#58538b" opacity="1.00" d=" M 139.18 109.11 C 141.17 103.12 137.76 96.53 140.80 90.72 C 141.18 91.65 141.56 92.58 141.92 93.52 C 139.22 98.32 144.88 103.31 143.44 108.33 C 140.95 119.76 139.63 132.32 131.39 141.35 C 124.60 152.11 111.15 154.87 102.24 163.18 C 102.92 166.64 108.39 166.38 109.32 169.88 C 108.81 169.84 107.81 169.77 107.31 169.73 C 103.71 167.69 99.44 167.19 96.01 164.84 C 96.84 160.11 102.76 158.68 106.22 156.21 C 116.49 150.63 126.24 143.35 131.72 132.72 C 135.99 125.50 136.83 117.02 139.18 109.11 Z" />
</g>
<g id="#b5a6dcf3">
<path fill="#b5a6dc" opacity="0.95" d=" M 17.53 91.82 C 15.83 100.82 10.44 109.58 12.92 119.10 C 13.43 121.51 11.60 118.21 11.04 117.86 C 10.38 108.90 12.90 99.44 17.53 91.82 Z" />
</g>
<g id="#7c73aeff">
<path fill="#7c73ae" opacity="1.00" d=" M 43.61 108.79 C 42.74 103.78 38.39 98.30 41.07 93.49 C 41.59 94.32 42.10 95.16 42.61 96.00 C 42.91 97.03 43.20 98.06 43.49 99.10 L 43.44 99.87 C 43.66 108.98 49.71 117.86 57.83 122.08 C 64.52 126.13 72.73 125.43 79.86 128.20 C 82.80 129.83 85.84 131.22 89.02 132.31 C 85.11 137.08 79.46 140.29 73.42 141.50 C 71.28 143.99 69.16 146.54 67.48 149.39 C 66.32 152.40 65.67 155.87 62.73 157.73 C 59.90 158.66 56.95 158.39 54.08 157.87 C 50.74 157.27 46.34 155.74 43.96 158.98 C 40.72 164.70 35.84 170.73 37.71 177.74 C 36.64 179.44 34.86 180.14 32.92 180.17 C 32.93 178.03 33.59 176.03 34.45 174.10 C 34.63 173.65 34.98 172.75 35.16 172.29 C 38.85 166.75 38.25 157.30 45.18 154.46 C 49.38 155.14 53.60 156.36 57.90 155.96 C 63.74 153.97 62.43 147.00 65.93 142.98 C 68.09 139.95 69.07 136.13 68.71 132.43 C 62.08 127.62 54.94 123.54 48.76 118.13 C 46.60 115.27 45.09 112.03 43.61 108.79 Z" />
</g>
<g id="#756bb3ff">
<path fill="#756bb3" opacity="1.00" d=" M 91.25 94.23 C 93.78 94.07 96.31 93.94 98.85 93.83 C 99.60 93.88 101.10 93.97 101.85 94.01 C 101.19 95.38 100.48 96.73 99.92 98.14 C 89.02 101.37 77.51 101.45 66.27 100.66 C 63.73 100.00 61.11 99.62 58.55 99.12 C 59.90 98.38 61.16 96.75 62.88 97.29 C 70.30 99.08 77.96 97.29 85.38 96.41 C 87.75 96.56 89.70 95.83 91.25 94.23 Z" />
</g>
<g id="#534e86fe">
<path fill="#534e86" opacity="1.00" d=" M 143.44 108.33 C 144.88 103.31 139.22 98.32 141.92 93.52 C 142.19 93.85 142.73 94.51 143.00 94.83 C 143.31 100.05 147.62 103.82 149.03 108.73 C 148.60 108.88 147.74 109.18 147.31 109.33 C 146.11 114.39 145.74 119.61 144.59 124.68 C 140.95 136.45 133.50 147.42 122.79 153.78 C 117.91 156.57 112.98 159.27 108.29 162.37 C 107.27 165.63 112.26 166.80 114.16 168.82 C 112.84 170.04 111.01 170.25 109.32 169.88 C 108.39 166.38 102.92 166.64 102.24 163.18 C 111.15 154.87 124.60 152.11 131.39 141.35 C 139.63 132.32 140.95 119.76 143.44 108.33 Z" />
</g>
<g id="#938fb4ff">
<path fill="#938fb4" opacity="1.00" d=" M 42.61 96.00 C 46.02 94.14 49.53 98.70 52.94 99.83 C 48.57 99.73 51.62 106.03 51.40 108.78 C 51.09 109.11 50.47 109.76 50.16 110.09 C 49.03 106.62 51.89 100.98 48.07 98.59 C 46.53 97.47 43.40 95.83 43.49 99.10 C 43.20 98.06 42.91 97.03 42.61 96.00 Z" />
</g>
<g id="#7e75adfe">
<path fill="#7e75ad" opacity="1.00" d=" M 143.00 94.83 C 148.29 99.94 152.65 106.01 158.64 110.38 C 162.14 112.99 164.80 116.59 166.18 120.74 C 164.37 120.31 162.57 119.80 160.72 119.56 C 159.29 119.32 158.03 118.50 156.87 117.68 C 156.00 117.06 155.09 116.49 154.19 115.93 C 153.85 115.71 153.17 115.27 152.82 115.06 C 150.85 113.45 150.02 110.98 149.03 108.73 C 147.62 103.82 143.31 100.05 143.00 94.83 Z" />
</g>
<g id="#747195ff">
<path fill="#747195" opacity="1.00" d=" M 104.00 98.64 C 107.26 97.68 110.50 96.65 113.75 95.67 C 116.42 95.80 120.75 95.44 118.41 99.20 C 118.70 96.25 115.68 96.90 113.84 97.53 C 112.87 97.83 111.90 98.14 110.94 98.48 C 109.65 98.73 108.37 99.00 107.08 99.28 C 107.03 103.45 106.67 107.66 107.16 111.83 C 107.63 111.93 108.59 112.15 109.07 112.25 C 108.15 112.95 107.20 113.59 106.27 114.27 C 106.13 113.78 105.86 112.81 105.72 112.32 C 105.65 108.81 106.63 105.11 105.34 101.72 C 105.20 101.32 104.92 100.54 104.78 100.14 C 104.58 99.77 104.19 99.01 104.00 98.64 Z" />
</g>
<g id="#b1addaff">
<path fill="#b1adda" opacity="1.00" d=" M 43.49 99.10 C 43.40 95.83 46.53 97.47 48.07 98.59 C 46.29 99.08 45.57 100.80 44.62 102.20 C 44.32 101.61 43.73 100.45 43.44 99.87 L 43.49 99.10 Z" />
</g>
<g id="#807db0ff">
<path fill="#807db0" opacity="1.00" d=" M 113.84 97.53 C 115.68 96.90 118.70 96.25 118.41 99.20 C 117.85 100.59 117.08 101.88 116.25 103.12 C 116.15 100.96 115.99 98.66 113.84 97.53 Z" />
</g>
<g id="#918fbfff">
<path fill="#918fbf" opacity="1.00" d=" M 110.94 98.48 C 111.90 98.14 112.87 97.83 113.84 97.53 C 115.99 98.66 116.15 100.96 116.25 103.12 C 115.56 104.17 114.84 105.19 114.10 106.19 C 113.18 103.56 112.62 100.76 110.94 98.48 Z" />
</g>
<g id="#cac6edff">
<path fill="#cac6ed" opacity="1.00" d=" M 44.62 102.20 C 45.57 100.80 46.29 99.08 48.07 98.59 C 51.89 100.98 49.03 106.62 50.16 110.09 C 49.89 110.37 49.36 110.93 49.09 111.20 C 46.99 108.53 45.89 105.30 44.62 102.20 Z" />
</g>
<g id="#8e8aaeff">
<path fill="#8e8aae" opacity="1.00" d=" M 95.76 100.74 C 98.50 100.02 101.30 99.51 104.00 98.64 C 104.19 99.01 104.58 99.77 104.78 100.14 C 101.78 100.47 98.77 100.66 95.76 100.74 Z" />
</g>
<g id="#a4a1ccff">
<path fill="#a4a1cc" opacity="1.00" d=" M 107.08 99.28 C 108.37 99.00 109.65 98.73 110.94 98.48 C 112.62 100.76 113.18 103.56 114.10 106.19 C 112.50 108.27 111.20 110.65 109.07 112.25 C 108.59 112.15 107.63 111.93 107.16 111.83 C 106.67 107.66 107.03 103.45 107.08 99.28 Z" />
</g>
<g id="#6f66a6ff">
<path fill="#6f66a6" opacity="1.00" d=" M 57.83 122.08 C 49.71 117.86 43.66 108.98 43.44 99.87 C 43.73 100.45 44.32 101.61 44.62 102.20 C 45.89 105.30 46.99 108.53 49.09 111.20 C 49.86 112.35 50.85 113.31 51.85 114.25 C 54.18 116.40 56.89 118.18 59.82 119.40 C 60.86 119.77 61.93 119.96 63.05 119.97 C 67.00 120.19 70.93 120.72 74.87 121.08 L 75.63 121.17 C 82.72 122.15 89.80 123.18 96.88 124.18 C 99.37 125.30 99.36 126.69 96.89 127.85 C 86.74 125.75 76.32 125.58 66.12 123.75 C 63.39 123.02 60.71 121.97 57.83 122.08 Z" />
</g>
<g id="#dad6faff">
<path fill="#dad6fa" opacity="1.00" d=" M 51.40 108.78 C 51.62 106.03 48.57 99.73 52.94 99.83 C 54.98 101.51 57.54 102.18 60.15 101.87 C 60.63 107.54 60.87 113.24 61.54 118.90 C 61.11 119.03 60.25 119.28 59.82 119.40 C 56.89 118.18 54.18 116.40 51.85 114.25 C 51.86 112.41 51.82 110.57 51.40 108.78 Z" />
</g>
<g id="#a4a0c7ff">
<path fill="#a4a0c7" opacity="1.00" d=" M 52.94 99.83 C 55.47 99.99 57.91 100.69 60.15 101.87 C 57.54 102.18 54.98 101.51 52.94 99.83 Z" />
</g>
<g id="#c3bfe7ff">
<path fill="#c3bfe7" opacity="1.00" d=" M 95.76 100.74 C 98.77 100.66 101.78 100.47 104.78 100.14 C 104.92 100.54 105.20 101.32 105.34 101.72 C 105.27 105.23 104.42 108.93 105.72 112.32 C 105.86 112.81 106.13 113.78 106.27 114.27 C 104.42 115.89 102.18 116.94 99.96 117.96 C 98.70 118.41 97.46 118.89 96.20 119.32 C 95.45 119.19 93.95 118.93 93.19 118.80 C 91.61 113.25 92.23 107.39 91.76 101.69 C 93.07 101.30 94.41 101.01 95.76 100.74 Z" />
</g>
<g id="#5f5a8efa">
<path fill="#5f5a8e" opacity="0.98" d=" M 14.13 123.23 C 19.61 115.79 26.31 109.34 31.84 101.92 C 32.07 103.46 32.54 106.53 32.78 108.07 L 32.86 108.74 C 28.49 113.36 22.54 116.82 18.86 121.96 C 17.27 123.90 14.75 125.59 12.19 126.00 C 11.82 124.27 11.34 122.56 11.13 120.81 C 12.12 121.35 13.23 124.64 14.13 123.23 Z" />
</g>
<g id="#918caaff">
<path fill="#918caa" opacity="1.00" d=" M 60.15 101.87 C 60.60 101.91 61.51 102.00 61.96 102.04 C 62.03 106.11 62.06 110.21 62.66 114.24 C 62.87 116.15 62.98 118.06 63.05 119.97 C 61.93 119.96 60.86 119.77 59.82 119.40 C 60.25 119.28 61.11 119.03 61.54 118.90 C 60.87 113.24 60.63 107.54 60.15 101.87 Z" />
</g>
<g id="#b8b4dcff">
<path fill="#b8b4dc" opacity="1.00" d=" M 61.96 102.04 C 62.67 102.00 64.10 101.92 64.82 101.87 L 65.85 101.90 L 66.04 102.89 C 59.78 101.77 64.39 111.09 62.66 114.24 C 62.06 110.21 62.03 106.11 61.96 102.04 Z" />
</g>
<g id="#827f9eff">
<path fill="#827f9e" opacity="1.00" d=" M 65.85 101.90 C 73.33 101.98 80.81 102.03 88.29 102.22 C 85.60 102.57 82.91 102.90 80.21 103.15 C 78.82 103.10 77.42 103.08 76.03 103.09 C 76.04 105.83 76.06 111.29 76.07 114.02 C 75.83 114.31 75.35 114.89 75.12 115.18 C 75.01 114.45 74.79 113.00 74.68 112.27 C 74.60 109.43 75.89 106.26 74.22 103.78 C 72.82 101.13 68.52 103.60 66.04 102.89 L 65.85 101.90 Z" />
</g>
<g id="#d1cdf6ff">
<path fill="#d1cdf6" opacity="1.00" d=" M 88.29 102.22 L 89.18 102.12 C 89.64 104.97 89.92 107.87 90.34 110.74 C 90.29 113.58 89.79 116.50 90.66 119.27 L 90.86 120.14 C 86.15 120.20 81.46 121.51 76.79 120.22 C 76.93 118.12 77.00 116.03 76.98 113.93 C 77.90 110.50 74.72 103.62 80.21 103.15 C 82.91 102.90 85.60 102.57 88.29 102.22 Z" />
</g>
<g id="#8885a2ff">
<path fill="#8885a2" opacity="1.00" d=" M 89.18 102.12 C 89.83 102.01 91.11 101.80 91.76 101.69 C 92.23 107.39 91.61 113.25 93.19 118.80 C 93.95 118.93 95.45 119.19 96.20 119.32 C 94.77 119.84 93.26 120.10 91.76 120.38 L 90.86 120.14 L 90.66 119.27 C 90.69 116.41 91.12 113.52 90.34 110.74 C 89.92 107.87 89.64 104.97 89.18 102.12 Z" />
</g>
<g id="#9795b6ff">
<path fill="#9795b6" opacity="1.00" d=" M 105.34 101.72 C 106.63 105.11 105.65 108.81 105.72 112.32 C 104.42 108.93 105.27 105.23 105.34 101.72 Z" />
</g>
<g id="#d6d2fbff">
<path fill="#d6d2fb" opacity="1.00" d=" M 62.66 114.24 C 64.39 111.09 59.78 101.77 66.04 102.89 C 68.52 103.60 72.82 101.13 74.22 103.78 C 74.23 106.61 73.87 109.51 74.68 112.27 C 74.79 113.00 75.01 114.45 75.12 115.18 C 75.03 117.15 74.96 119.11 74.87 121.08 C 70.93 120.72 67.00 120.19 63.05 119.97 C 62.98 118.06 62.87 116.15 62.66 114.24 Z" />
</g>
<g id="#b4b0d7ff">
<path fill="#b4b0d7" opacity="1.00" d=" M 76.03 103.09 C 77.42 103.08 78.82 103.10 80.21 103.15 C 74.72 103.62 77.90 110.50 76.98 113.93 L 76.07 114.02 C 76.06 111.29 76.04 105.83 76.03 103.09 Z" />
</g>
<g id="#b8b3daff">
<path fill="#b8b3da" opacity="1.00" d=" M 74.22 103.78 C 75.89 106.26 74.60 109.43 74.68 112.27 C 73.87 109.51 74.23 106.61 74.22 103.78 Z" />
</g>
<g id="#514d87f8">
<path fill="#514d87" opacity="0.97" d=" M 18.86 121.96 C 22.54 116.82 28.49 113.36 32.86 108.74 C 33.52 110.36 34.03 112.04 34.43 113.75 C 30.14 117.59 24.32 120.10 18.86 121.96 Z" />
</g>
<g id="#8c82baff">
<path fill="#8c82ba" opacity="1.00" d=" M 54.69 133.98 C 52.95 124.84 43.24 118.51 43.61 108.79 C 45.09 112.03 46.60 115.27 48.76 118.13 C 50.57 124.39 57.50 126.89 60.80 132.29 C 61.57 137.54 57.70 141.82 57.93 147.01 C 57.50 149.53 56.91 152.24 54.75 153.86 C 50.30 154.84 45.40 152.09 41.17 154.17 C 37.54 159.54 36.14 165.99 35.16 172.29 C 34.98 172.75 34.63 173.65 34.45 174.10 C 34.44 170.79 34.63 167.49 35.14 164.21 C 37.26 159.95 37.47 154.50 41.24 151.25 C 45.01 150.76 49.27 152.79 52.80 150.77 C 53.85 145.24 53.97 139.56 54.69 133.98 Z" />
</g>
<g id="#abaac5ff">
<path fill="#abaac5" opacity="1.00" d=" M 51.40 108.78 C 51.82 110.57 51.86 112.41 51.85 114.25 C 50.85 113.31 49.86 112.35 49.09 111.20 C 49.36 110.93 49.89 110.37 50.16 110.09 C 50.47 109.76 51.09 109.11 51.40 108.78 Z" />
</g>
<g id="#69629cfe">
<path fill="#69629c" opacity="1.00" d=" M 113.60 116.56 C 117.03 112.91 121.95 111.66 126.00 108.89 C 123.18 118.42 120.70 129.12 112.80 135.80 C 106.57 141.94 98.55 145.81 90.85 149.76 C 85.02 151.45 82.12 157.29 79.01 162.06 C 78.93 164.86 82.69 165.61 84.89 166.11 C 88.23 166.83 91.54 167.69 94.93 168.15 C 96.00 168.75 97.10 169.30 98.19 169.89 C 95.11 169.91 92.06 169.98 88.99 170.01 C 83.21 170.50 77.72 168.49 72.04 167.95 C 67.25 167.19 62.54 165.96 58.19 163.79 C 57.86 163.37 57.20 162.53 56.87 162.11 C 61.49 162.94 66.15 164.30 70.90 163.93 C 73.16 162.46 75.46 161.08 77.81 159.77 C 80.58 156.29 80.99 149.95 86.33 149.34 C 97.25 144.15 109.35 138.51 115.30 127.31 C 116.47 125.04 117.13 122.49 117.03 119.93 C 110.68 122.81 103.70 123.27 96.88 124.18 C 89.80 123.18 82.72 122.15 75.63 121.17 C 75.92 120.93 76.50 120.46 76.79 120.22 C 81.46 121.51 86.15 120.20 90.86 120.14 L 91.76 120.38 C 99.11 122.21 107.19 120.47 113.60 116.56 Z" />
</g>
<g id="#4d4983ff">
<path fill="#4d4983" opacity="1.00" d=" M 147.31 109.33 C 147.74 109.18 148.60 108.88 149.03 108.73 C 150.02 110.98 150.85 113.45 152.82 115.06 C 150.80 121.67 149.05 128.37 147.06 134.99 C 144.16 138.27 147.70 139.87 149.26 141.90 C 149.10 144.30 148.38 146.83 146.28 148.29 C 140.72 153.72 135.30 159.29 129.77 164.75 C 128.65 166.27 126.62 165.78 125.00 166.07 C 131.09 161.58 137.15 156.61 141.02 149.99 C 142.45 148.10 140.63 145.75 139.89 143.90 C 133.68 150.28 126.22 155.31 118.28 159.30 C 116.61 160.22 114.68 161.17 113.84 163.00 C 115.03 165.12 117.24 166.36 119.10 167.82 C 117.79 169.12 115.86 169.28 114.16 168.82 C 112.26 166.80 107.27 165.63 108.29 162.37 C 112.98 159.27 117.91 156.57 122.79 153.78 C 133.50 147.42 140.95 136.45 144.59 124.68 C 145.74 119.61 146.11 114.39 147.31 109.33 Z" />
</g>
<g id="#afacccff">
<path fill="#afaccc" opacity="1.00" d=" M 90.34 110.74 C 91.12 113.52 90.69 116.41 90.66 119.27 C 89.79 116.50 90.29 113.58 90.34 110.74 Z" />
</g>
<g id="#5a558af6">
<path fill="#5a558a" opacity="0.96" d=" M 180.18 113.30 C 181.50 113.83 182.76 115.14 184.27 114.39 C 186.55 115.85 186.89 120.33 187.84 123.14 C 186.14 122.66 184.62 121.76 183.04 121.03 C 183.01 122.53 182.96 125.53 182.93 127.03 C 180.42 127.28 178.48 125.41 176.14 124.88 C 181.34 130.46 173.29 131.44 173.17 128.27 C 175.58 126.92 173.63 124.05 175.50 122.36 C 177.69 119.67 179.10 116.56 180.18 113.30 Z" />
</g>
<g id="#9794aeff">
<path fill="#9794ae" opacity="1.00" d=" M 76.07 114.02 L 76.98 113.93 C 77.00 116.03 76.93 118.12 76.79 120.22 C 76.50 120.46 75.92 120.93 75.63 121.17 L 74.87 121.08 C 74.96 119.11 75.03 117.15 75.12 115.18 C 75.35 114.89 75.83 114.31 76.07 114.02 Z" />
</g>
<g id="#504d92ff">
<path fill="#504d92" opacity="1.00" d=" M 152.82 115.06 C 153.17 115.27 153.85 115.71 154.19 115.93 C 153.14 124.99 149.78 133.75 151.02 143.06 C 150.58 142.77 149.70 142.19 149.26 141.90 C 147.70 139.87 144.16 138.27 147.06 134.99 C 149.05 128.37 150.80 121.67 152.82 115.06 Z" />
</g>
<g id="#565396f7">
<path fill="#565396" opacity="0.97" d=" M 154.19 115.93 C 155.09 116.49 156.00 117.06 156.87 117.68 C 155.76 124.46 154.69 131.27 155.04 138.16 C 155.04 139.84 155.04 143.20 155.04 144.87 C 155.01 149.58 155.01 154.30 155.00 159.02 C 154.79 165.44 153.27 171.71 152.84 178.12 C 152.25 177.39 151.68 176.66 151.12 175.92 C 150.64 165.02 155.36 153.55 151.02 143.06 C 149.78 133.75 153.14 124.99 154.19 115.93 Z" />
</g>
<g id="#847ab3ff">
<path fill="#847ab3" opacity="1.00" d=" M 48.76 118.13 C 54.94 123.54 62.08 127.62 68.71 132.43 C 69.07 136.13 68.09 139.95 65.93 142.98 C 62.43 147.00 63.74 153.97 57.90 155.96 C 53.60 156.36 49.38 155.14 45.18 154.46 C 38.25 157.30 38.85 166.75 35.16 172.29 C 36.14 165.99 37.54 159.54 41.17 154.17 C 45.40 152.09 50.30 154.84 54.75 153.86 C 56.91 152.24 57.50 149.53 57.93 147.01 C 57.70 141.82 61.57 137.54 60.80 132.29 C 57.50 126.89 50.57 124.39 48.76 118.13 Z" />
</g>
<g id="#70699fff">
<path fill="#70699f" opacity="1.00" d=" M 96.88 124.18 C 103.70 123.27 110.68 122.81 117.03 119.93 C 117.13 122.49 116.47 125.04 115.30 127.31 C 109.35 138.51 97.25 144.15 86.33 149.34 C 80.99 149.95 80.58 156.29 77.81 159.77 C 75.46 161.08 73.16 162.46 70.90 163.93 C 66.15 164.30 61.49 162.94 56.87 162.11 C 56.45 161.77 55.62 161.09 55.20 160.75 L 54.76 160.12 C 57.77 160.60 60.76 161.22 63.79 161.51 C 67.18 159.90 71.88 158.71 72.40 154.35 C 73.14 149.75 76.34 146.44 80.71 144.78 C 89.78 142.63 100.20 137.76 103.16 128.18 C 101.60 128.10 98.46 127.93 96.89 127.85 C 99.36 126.69 99.37 125.30 96.88 124.18 Z" />
</g>
<g id="#766ea7ff">
<path fill="#766ea7" opacity="1.00" d=" M 57.83 122.08 C 60.71 121.97 63.39 123.02 66.12 123.75 C 76.32 125.58 86.74 125.75 96.89 127.85 C 98.46 127.93 101.60 128.10 103.16 128.18 C 100.20 137.76 89.78 142.63 80.71 144.78 C 76.34 146.44 73.14 149.75 72.40 154.35 C 71.88 158.71 67.18 159.90 63.79 161.51 C 60.76 161.22 57.77 160.60 54.76 160.12 C 54.53 159.80 54.07 159.17 53.84 158.85 L 54.08 157.87 C 56.95 158.39 59.90 158.66 62.73 157.73 C 65.67 155.87 66.32 152.40 67.48 149.39 C 69.16 146.54 71.28 143.99 73.42 141.50 C 79.46 140.29 85.11 137.08 89.02 132.31 C 85.84 131.22 82.80 129.83 79.86 128.20 C 72.73 125.43 64.52 126.13 57.83 122.08 Z" />
</g>
<g id="#c0b1e4f6">
<path fill="#c0b1e4" opacity="0.96" d=" M 41.13 133.00 L 42.05 133.04 C 42.49 137.01 45.01 143.31 40.12 145.18 C 36.90 146.47 34.92 149.76 35.00 153.19 C 34.03 156.87 33.65 160.69 32.32 164.27 C 31.47 153.11 36.69 142.85 41.13 133.00 Z" />
</g>
<g id="#04040733">
<path fill="#040407" opacity="0.20" d=" M 155.04 138.16 C 156.95 139.16 156.31 143.03 155.65 144.90 L 155.04 144.87 C 155.04 143.20 155.04 139.84 155.04 138.16 Z" />
</g>
<g id="#555087fe">
<path fill="#555087" opacity="1.00" d=" M 149.26 141.90 C 149.70 142.19 150.58 142.77 151.02 143.06 C 155.36 153.55 150.64 165.02 151.12 175.92 C 149.15 178.64 148.48 182.17 152.09 183.88 C 149.68 184.16 147.27 184.47 144.88 184.80 C 144.92 182.94 147.00 180.34 144.73 179.16 C 143.10 179.20 139.83 179.29 138.20 179.34 C 137.62 179.21 136.48 178.97 135.91 178.85 C 142.45 173.73 149.66 167.15 149.00 158.00 C 150.37 156.71 149.12 150.77 146.26 152.25 C 140.80 156.38 135.50 160.85 131.22 166.22 C 129.18 168.83 125.34 167.99 122.74 169.80 L 121.88 169.91 L 121.06 169.99 C 122.02 168.36 123.51 167.19 125.00 166.07 C 126.62 165.78 128.65 166.27 129.77 164.75 C 135.30 159.29 140.72 153.72 146.28 148.29 C 148.38 146.83 149.10 144.30 149.26 141.90 Z" />
</g>
<g id="#47437efe">
<path fill="#47437e" opacity="1.00" d=" M 118.28 159.30 C 126.22 155.31 133.68 150.28 139.89 143.90 C 140.63 145.75 142.45 148.10 141.02 149.99 C 137.15 156.61 131.09 161.58 125.00 166.07 C 123.51 167.19 122.02 168.36 121.06 169.99 L 120.61 170.64 C 119.50 172.00 120.53 167.91 119.10 167.82 C 117.24 166.36 115.03 165.12 113.84 163.00 C 114.68 161.17 116.61 160.22 118.28 159.30 Z" />
</g>
<g id="#0f0f1962">
<path fill="#0f0f19" opacity="0.38" d=" M 155.04 144.87 L 155.65 144.90 C 156.20 149.54 156.10 154.29 155.96 158.97 L 155.00 159.02 C 155.01 154.30 155.01 149.58 155.04 144.87 Z" />
</g>
<g id="#5d578cff">
<path fill="#5d578c" opacity="1.00" d=" M 146.26 152.25 C 149.12 150.77 150.37 156.71 149.00 158.00 C 149.66 167.15 142.45 173.73 135.91 178.85 C 136.48 178.97 137.62 179.21 138.20 179.34 C 136.55 179.79 134.84 180.00 133.14 180.00 C 131.55 179.14 128.16 176.49 131.37 175.44 C 136.93 173.95 144.68 168.65 140.89 162.05 C 136.49 163.57 133.73 167.62 129.69 169.71 C 127.95 169.73 124.48 169.78 122.74 169.80 C 125.34 167.99 129.18 168.83 131.22 166.22 C 135.50 160.85 140.80 156.38 146.26 152.25 Z" />
</g>
<g id="#7067a6fe">
<path fill="#7067a6" opacity="1.00" d=" M 43.96 158.98 C 46.34 155.74 50.74 157.27 54.08 157.87 L 53.84 158.85 C 50.79 158.59 47.55 158.34 46.70 161.70 C 45.26 166.49 38.99 169.29 40.08 174.80 C 41.56 175.80 43.20 176.52 44.75 177.38 C 45.38 178.95 44.63 180.57 44.12 182.05 C 40.41 181.24 36.60 180.88 32.81 181.12 L 32.92 180.17 C 34.86 180.14 36.64 179.44 37.71 177.74 C 35.84 170.73 40.72 164.70 43.96 158.98 Z" />
</g>
<g id="#645c99ff">
<path fill="#645c99" opacity="1.00" d=" M 46.70 161.70 C 47.55 158.34 50.79 158.59 53.84 158.85 C 54.07 159.17 54.53 159.80 54.76 160.12 L 55.20 160.75 C 49.75 159.71 48.60 165.70 46.11 169.14 C 44.95 170.91 43.11 172.50 43.05 174.76 C 44.31 175.25 45.60 175.67 46.89 176.07 C 48.75 177.98 46.93 180.08 45.98 181.95 C 45.52 181.97 44.59 182.02 44.12 182.05 C 44.63 180.57 45.38 178.95 44.75 177.38 C 43.20 176.52 41.56 175.80 40.08 174.80 C 38.99 169.29 45.26 166.49 46.70 161.70 Z" />
</g>
<g id="#5a538cff">
<path fill="#5a538c" opacity="1.00" d=" M 46.11 169.14 C 48.60 165.70 49.75 159.71 55.20 160.75 C 55.62 161.09 56.45 161.77 56.87 162.11 C 57.20 162.53 57.86 163.37 58.19 163.79 C 55.52 164.25 51.70 162.93 51.02 167.05 C 49.20 169.81 46.49 172.45 46.89 176.07 C 45.60 175.67 44.31 175.25 43.05 174.76 C 43.11 172.50 44.95 170.91 46.11 169.14 Z" />
</g>
<g id="#655d96ff">
<path fill="#655d96" opacity="1.00" d=" M 129.69 169.71 C 133.73 167.62 136.49 163.57 140.89 162.05 C 144.68 168.65 136.93 173.95 131.37 175.44 C 128.16 176.49 131.55 179.14 133.14 180.00 C 132.38 180.02 130.85 180.05 130.09 180.07 C 123.95 180.72 125.50 172.86 121.88 169.91 L 122.74 169.80 C 124.48 169.78 127.95 169.73 129.69 169.71 Z" />
</g>
<g id="#4e4881fc">
<path fill="#4e4881" opacity="1.00" d=" M 51.02 167.05 C 51.70 162.93 55.52 164.25 58.19 163.79 C 62.54 165.96 67.25 167.19 72.04 167.95 C 71.66 169.77 69.43 170.23 68.03 171.10 C 66.42 169.96 64.82 168.81 63.15 167.76 C 61.10 166.51 58.94 164.94 56.21 166.09 C 53.92 168.55 51.61 171.10 49.99 174.07 C 50.32 176.75 51.92 179.31 54.09 180.91 C 51.38 181.22 48.67 181.53 45.98 181.95 C 46.93 180.08 48.75 177.98 46.89 176.07 C 46.49 172.45 49.20 169.81 51.02 167.05 Z" />
</g>
<g id="#443f76fc">
<path fill="#443f76" opacity="1.00" d=" M 56.21 166.09 C 58.94 164.94 61.10 166.51 63.15 167.76 C 58.43 166.66 53.95 171.02 55.18 175.75 C 56.63 178.27 59.52 178.10 62.06 178.13 C 60.56 180.80 56.75 180.46 54.09 180.91 C 51.92 179.31 50.32 176.75 49.99 174.07 C 51.61 171.10 53.92 168.55 56.21 166.09 Z" />
</g>
<g id="#3b3771fe">
<path fill="#3b3771" opacity="1.00" d=" M 55.18 175.75 C 53.95 171.02 58.43 166.66 63.15 167.76 C 64.82 168.81 66.42 169.96 68.03 171.10 C 65.91 173.30 64.30 176.27 62.06 178.13 C 59.52 178.10 56.63 178.27 55.18 175.75 Z" />
</g>
<g id="#1e1d3591">
<path fill="#1e1d35" opacity="0.57" d=" M 88.99 170.01 C 92.06 169.98 95.11 169.91 98.19 169.89 C 100.84 169.93 103.50 169.92 106.16 169.87 L 105.96 170.93 C 100.31 171.02 94.66 171.15 89.02 170.97 L 88.99 170.01 Z" />
</g>
<g id="#7a70aaf7">
<path fill="#7a70aa" opacity="0.97" d=" M 121.06 169.99 L 121.88 169.91 C 125.50 172.86 123.95 180.72 130.09 180.07 C 131.00 181.69 130.44 183.42 130.02 185.09 C 124.78 182.03 120.73 176.95 120.61 170.64 L 121.06 169.99 Z" />
</g>
<g id="#9088b6e8">
<path fill="#9088b6" opacity="0.91" d=" M 27.70 178.29 C 28.73 176.81 29.20 174.14 31.32 173.99 C 31.23 175.68 30.60 177.31 30.83 179.01 C 29.77 178.80 28.73 178.56 27.70 178.29 Z" />
</g>
<g id="#696298fb">
<path fill="#696298" opacity="1.00" d=" M 151.12 175.92 C 151.68 176.66 152.25 177.39 152.84 178.12 C 154.51 179.72 155.28 181.86 155.93 184.03 C 154.65 184.07 153.37 184.02 152.09 183.88 C 148.48 182.17 149.15 178.64 151.12 175.92 Z" />
</g>
<g id="#322f4399">
<path fill="#322f43" opacity="0.60" d=" M 30.65 180.27 C 29.00 180.70 25.15 178.92 27.70 178.29 C 28.73 178.56 29.77 178.80 30.83 179.01 C 31.51 179.70 32.17 180.40 32.81 181.12 C 33.84 183.02 30.26 181.69 30.65 180.27 Z" />
</g>
<g id="#6a62a1fc">
<path fill="#6a62a1" opacity="1.00" d=" M 138.20 179.34 C 139.83 179.29 143.10 179.20 144.73 179.16 C 147.00 180.34 144.92 182.94 144.88 184.80 C 139.89 185.28 134.90 183.22 130.02 185.09 C 130.44 183.42 131.00 181.69 130.09 180.07 C 130.85 180.05 132.38 180.02 133.14 180.00 C 134.84 180.00 136.55 179.79 138.20 179.34 Z" />
</g>
</svg>
