<?xml version="1.0" encoding="UTF-8" ?>
<!DOCTYPE svg PUBLIC "-//W3C//DTD SVG 1.1//EN" "http://www.w3.org/Graphics/SVG/1.1/DTD/svg11.dtd">
<svg width="220pt" height="248pt" viewBox="0 0 220 248" version="1.1" xmlns="http://www.w3.org/2000/svg">
<g id="#a9a0b3fe">
<path fill="#a9a0b3" opacity="1.00" d=" M 46.76 3.75 C 46.76 1.80 48.86 1.59 50.27 0.99 C 50.73 4.27 49.90 7.55 49.73 10.82 C 49.21 16.21 50.02 21.58 50.11 26.96 C 49.87 27.27 49.40 27.88 49.16 28.19 C 49.12 26.39 49.04 22.78 49.00 20.97 C 47.04 20.88 48.28 23.98 47.72 25.21 C 47.33 23.84 46.55 21.12 46.16 19.76 C 46.10 19.29 45.98 18.35 45.91 17.89 L 46.04 17.11 C 47.33 12.75 46.99 8.22 46.76 3.75 Z" />
</g>
<g id="#e3dad5ff">
<path fill="#e3dad5" opacity="1.00" d=" M 50.27 0.99 C 50.70 1.02 51.56 1.08 51.99 1.11 C 52.04 2.81 52.13 6.23 52.17 7.93 C 52.07 9.77 51.86 13.44 51.76 15.28 C 49.39 15.11 50.09 12.47 49.73 10.82 C 49.90 7.55 50.73 4.27 50.27 0.99 Z" />
</g>
<g id="#4b4a434d">
<path fill="#4b4a43" opacity="0.30" d=" M 51.99 1.11 C 54.08 2.21 54.38 4.49 52.90 7.94 L 52.17 7.93 C 52.13 6.23 52.04 2.81 51.99 1.11 Z" />
</g>
<g id="#898292e7">
<path fill="#898292" opacity="0.91" d=" M 46.04 17.11 C 46.12 12.66 45.70 8.13 46.76 3.75 C 46.99 8.22 47.33 12.75 46.04 17.11 Z" />
</g>
<g id="#c1bbaecc">
<path fill="#c1bbae" opacity="0.80" d=" M 52.17 7.93 L 52.90 7.94 C 53.02 11.62 52.95 15.31 52.95 18.99 C 52.33 17.83 52.04 16.55 51.76 15.28 C 51.86 13.44 52.07 9.77 52.17 7.93 Z" />
</g>
<g id="#ccc5c8ff">
<path fill="#ccc5c8" opacity="1.00" d=" M 50.11 26.96 C 50.02 21.58 49.21 16.21 49.73 10.82 C 50.09 12.47 49.39 15.11 51.76 15.28 C 52.04 16.55 52.33 17.83 52.95 18.99 C 53.00 21.68 53.06 24.36 53.12 27.04 C 52.37 27.02 50.86 26.98 50.11 26.96 Z" />
</g>
<g id="#39373e7e">
<path fill="#39373e" opacity="0.49" d=" M 44.98 34.00 C 45.07 28.62 44.57 23.16 45.91 17.89 C 45.98 18.35 46.10 19.29 46.16 19.76 C 46.09 24.51 46.02 29.26 45.99 34.01 L 44.98 34.00 Z" />
</g>
<g id="#4e4c4759">
<path fill="#4e4c47" opacity="0.35" d=" M 52.95 18.99 C 54.95 21.15 53.74 24.35 53.91 27.06 L 53.12 27.04 C 53.06 24.36 53.00 21.68 52.95 18.99 Z" />
</g>
<g id="#9993a8ff">
<path fill="#9993a8" opacity="1.00" d=" M 46.16 19.76 C 46.55 21.12 47.33 23.84 47.72 25.21 C 47.96 27.88 48.01 30.59 48.61 33.23 C 48.66 33.61 48.76 34.38 48.81 34.76 C 47.79 35.40 46.89 36.21 46.03 37.05 C 46.02 36.29 46.00 34.77 45.99 34.01 C 46.02 29.26 46.09 24.51 46.16 19.76 Z" />
</g>
<g id="#81798fff">
<path fill="#81798f" opacity="1.00" d=" M 47.72 25.21 C 48.28 23.98 47.04 20.88 49.00 20.97 C 49.04 22.78 49.12 26.39 49.16 28.19 C 48.99 29.87 48.80 31.55 48.61 33.23 C 48.01 30.59 47.96 27.88 47.72 25.21 Z" />
</g>
<g id="#b6b1c2ff">
<path fill="#b6b1c2" opacity="1.00" d=" M 50.11 26.96 C 50.86 26.98 52.37 27.02 53.12 27.04 C 51.84 29.86 52.12 32.18 53.96 34.00 C 54.01 35.75 54.12 39.24 54.18 40.99 C 54.18 42.73 54.18 46.22 54.18 47.96 C 53.52 49.07 52.86 50.18 52.18 51.28 C 51.34 51.14 49.65 50.86 48.81 50.72 C 48.81 50.21 48.82 49.19 48.82 48.68 C 49.36 44.04 50.43 39.31 48.81 34.76 C 48.76 34.38 48.66 33.61 48.61 33.23 C 48.80 31.55 48.99 29.87 49.16 28.19 C 49.40 27.88 49.87 27.27 50.11 26.96 Z" />
</g>
<g id="#b6b1abd3">
<path fill="#b6b1ab" opacity="0.83" d=" M 53.12 27.04 L 53.91 27.06 C 53.93 28.79 53.95 32.27 53.96 34.00 C 52.12 32.18 51.84 29.86 53.12 27.04 Z" />
</g>
<g id="#4d4f5681">
<path fill="#4d4f56" opacity="0.51" d=" M 44.98 34.00 L 45.99 34.01 C 46.00 34.77 46.02 36.29 46.03 37.05 C 45.68 41.43 46.64 46.01 45.33 50.29 C 44.75 44.88 45.03 39.42 44.98 34.00 Z" />
</g>
<g id="#5b585362">
<path fill="#5b5853" opacity="0.38" d=" M 53.96 34.00 C 55.96 35.63 56.26 37.96 54.84 40.99 L 54.18 40.99 C 54.12 39.24 54.01 35.75 53.96 34.00 Z" />
</g>
<g id="#a39fb6ff">
<path fill="#a39fb6" opacity="1.00" d=" M 46.03 37.05 C 46.89 36.21 47.79 35.40 48.81 34.76 C 50.43 39.31 49.36 44.04 48.82 48.68 C 47.09 49.70 46.64 51.89 44.91 52.94 C 45.02 52.28 45.23 50.95 45.33 50.29 C 46.64 46.01 45.68 41.43 46.03 37.05 Z" />
</g>
<g id="#afacacd3">
<path fill="#afacac" opacity="0.83" d=" M 54.18 40.99 L 54.84 40.99 C 54.86 42.72 54.89 46.19 54.90 47.92 L 54.18 47.96 C 54.18 46.22 54.18 42.73 54.18 40.99 Z" />
</g>
<g id="#78788eff">
<path fill="#78788e" opacity="1.00" d=" M 54.18 47.96 L 54.90 47.92 L 55.24 48.68 C 53.95 49.87 53.75 54.85 51.63 53.04 C 51.77 52.60 52.04 51.72 52.18 51.28 C 52.86 50.18 53.52 49.07 54.18 47.96 Z" />
</g>
<g id="#7b7d9cfc">
<path fill="#7b7d9c" opacity="1.00" d=" M 44.91 52.94 C 46.64 51.89 47.09 49.70 48.82 48.68 C 48.82 49.19 48.81 50.21 48.81 50.72 C 47.77 52.47 46.76 54.26 45.98 56.15 C 45.72 57.77 47.13 59.67 48.88 58.81 C 52.20 57.30 55.78 56.94 59.41 57.02 C 59.76 58.06 60.02 59.12 60.19 60.20 L 59.77 61.11 C 59.28 61.34 58.29 61.79 57.79 62.01 C 56.93 62.25 56.08 62.51 55.22 62.77 C 52.33 60.59 47.82 60.75 47.04 64.93 C 47.58 65.04 48.65 65.26 49.18 65.37 C 48.00 65.88 46.82 66.39 45.69 67.02 L 44.94 67.40 C 45.03 63.25 45.05 59.11 45.01 54.96 C 41.97 56.74 44.78 63.92 43.14 66.90 L 42.10 66.76 C 41.90 65.27 41.48 62.29 41.28 60.81 C 41.21 60.33 41.07 59.37 41.00 58.89 C 41.74 56.56 42.77 54.31 44.91 52.94 Z" />
</g>
<g id="#8f90abf9">
<path fill="#8f90ab" opacity="0.98" d=" M 55.24 48.68 C 57.38 51.03 58.33 54.11 59.41 57.02 C 55.78 56.94 52.20 57.30 48.88 58.81 C 47.13 59.67 45.72 57.77 45.98 56.15 C 48.56 56.40 50.72 55.58 51.63 53.04 C 53.75 54.85 53.95 49.87 55.24 48.68 Z" />
</g>
<g id="#818096f5">
<path fill="#818096" opacity="0.96" d=" M 86.91 49.84 C 88.83 48.79 90.93 48.73 93.22 49.65 C 91.77 49.77 90.33 49.94 88.89 50.16 C 87.91 51.09 87.03 52.13 86.05 53.07 C 84.33 54.16 82.59 55.22 80.79 56.19 C 80.34 56.42 79.43 56.89 78.97 57.12 C 77.88 57.70 76.85 58.39 75.80 59.06 C 73.13 59.77 75.01 61.65 75.92 63.14 C 75.01 62.75 74.10 62.36 73.20 61.95 C 71.77 59.05 68.68 57.46 65.87 56.15 C 67.39 55.25 69.12 54.82 70.81 54.36 C 73.77 54.80 76.75 54.03 79.73 54.60 C 82.48 53.63 84.89 51.91 86.91 49.84 Z" />
</g>
<g id="#c2c0c0ec">
<path fill="#c2c0c0" opacity="0.93" d=" M 70.81 54.36 C 76.06 52.47 81.52 51.26 86.91 49.84 C 84.89 51.91 82.48 53.63 79.73 54.60 C 76.75 54.03 73.77 54.80 70.81 54.36 Z" />
</g>
<g id="#cec8d1ff">
<path fill="#cec8d1" opacity="1.00" d=" M 86.05 53.07 C 87.03 52.13 87.91 51.09 88.89 50.16 C 89.59 55.20 94.93 56.64 98.22 59.69 C 99.74 61.87 101.33 63.99 102.84 66.17 C 97.62 66.90 96.47 60.54 92.18 58.87 C 89.31 57.90 88.02 55.13 86.05 53.07 Z" />
</g>
<g id="#f4eee2fb">
<path fill="#f4eee2" opacity="1.00" d=" M 88.89 50.16 C 90.33 49.94 91.77 49.77 93.22 49.65 C 96.01 49.49 98.44 50.98 99.19 53.74 C 99.90 57.04 101.97 59.83 103.10 62.99 C 101.46 61.91 99.90 60.72 98.22 59.69 C 94.93 56.64 89.59 55.20 88.89 50.16 Z" />
</g>
<g id="#9e9bbaff">
<path fill="#9e9bba" opacity="1.00" d=" M 45.98 56.15 C 46.76 54.26 47.77 52.47 48.81 50.72 C 49.65 50.86 51.34 51.14 52.18 51.28 C 52.04 51.72 51.77 52.60 51.63 53.04 C 50.72 55.58 48.56 56.40 45.98 56.15 Z" />
</g>
<g id="#b0adc5ff">
<path fill="#b0adc5" opacity="1.00" d=" M 80.79 56.19 C 82.59 55.22 84.33 54.16 86.05 53.07 C 88.02 55.13 89.31 57.90 92.18 58.87 C 96.47 60.54 97.62 66.90 102.84 66.17 L 103.35 66.89 C 101.60 67.18 99.21 66.37 98.18 68.27 C 96.35 70.80 100.99 79.46 96.12 79.04 C 97.34 74.67 96.81 69.53 94.23 65.75 C 89.72 62.65 86.50 57.21 80.79 56.19 Z" />
</g>
<g id="#e1dad2fa">
<path fill="#e1dad2" opacity="0.98" d=" M 99.19 53.74 C 101.76 56.54 104.47 59.33 106.29 62.70 C 102.13 59.86 104.74 68.48 107.48 65.02 C 107.66 65.25 108.02 65.71 108.20 65.94 C 109.20 67.24 110.08 68.62 110.91 70.04 C 111.49 71.32 111.89 72.68 112.12 74.07 L 112.09 75.05 C 112.02 76.63 112.00 78.22 112.00 79.80 C 110.34 82.10 110.07 84.51 111.21 87.03 L 110.04 87.06 C 109.65 82.91 110.60 78.47 109.17 74.46 C 108.69 72.54 108.11 70.64 107.34 68.82 C 107.24 67.04 105.73 67.02 104.33 67.00 L 103.35 66.89 L 102.84 66.17 C 101.33 63.99 99.74 61.87 98.22 59.69 C 99.90 60.72 101.46 61.91 103.10 62.99 C 101.97 59.83 99.90 57.04 99.19 53.74 Z" />
</g>
<g id="#525370ff">
<path fill="#525370" opacity="1.00" d=" M 43.14 66.90 C 44.78 63.92 41.97 56.74 45.01 54.96 C 45.05 59.11 45.03 63.25 44.94 67.40 C 44.49 67.28 43.59 67.02 43.14 66.90 Z" />
</g>
<g id="#5c5d7af4">
<path fill="#5c5d7a" opacity="0.96" d=" M 60.91 59.74 C 62.61 58.62 64.12 57.21 65.87 56.15 C 68.68 57.46 71.77 59.05 73.20 61.95 C 69.12 61.12 65.08 60.01 60.91 59.74 Z" />
</g>
<g id="#a3a1bdff">
<path fill="#a3a1bd" opacity="1.00" d=" M 78.97 57.12 C 79.43 56.89 80.34 56.42 80.79 56.19 C 86.50 57.21 89.72 62.65 94.23 65.75 C 96.81 69.53 97.34 74.67 96.12 79.04 C 94.73 79.07 93.33 79.07 91.93 79.02 C 94.35 77.11 94.25 74.09 91.58 72.44 C 88.75 70.67 87.22 67.56 86.52 64.39 C 83.85 62.12 81.87 59.14 78.97 57.12 Z" />
</g>
<g id="#9795b3ff">
<path fill="#9795b3" opacity="1.00" d=" M 75.80 59.06 C 76.85 58.39 77.88 57.70 78.97 57.12 C 81.87 59.14 83.85 62.12 86.52 64.39 C 87.22 67.56 88.75 70.67 91.58 72.44 C 94.25 74.09 94.35 77.11 91.93 79.02 C 90.33 79.00 88.74 78.92 87.14 78.83 C 88.91 74.84 87.18 69.82 83.46 67.61 C 82.72 63.35 79.15 61.20 75.80 59.06 Z" />
</g>
<g id="#dad4dafe">
<path fill="#dad4da" opacity="1.00" d=" M 35.18 60.07 C 37.05 59.39 39.02 59.04 41.00 58.89 C 41.07 59.37 41.21 60.33 41.28 60.81 C 41.03 61.39 40.52 62.55 40.27 63.13 C 38.12 63.05 35.72 63.45 34.30 65.24 C 34.23 66.74 34.23 68.26 34.29 69.76 C 38.47 71.88 43.97 71.53 48.02 69.21 C 51.97 73.04 56.11 68.39 59.86 66.62 C 61.40 67.90 62.72 69.41 63.86 71.05 C 63.60 72.16 63.26 73.24 62.84 74.29 C 62.14 75.10 61.47 75.93 60.72 76.70 C 51.85 76.11 42.85 75.26 33.99 76.54 C 28.55 75.25 22.99 75.95 17.76 73.62 C 21.76 73.14 25.80 73.27 29.80 72.83 C 31.90 70.68 31.60 67.34 31.12 64.61 C 32.71 63.26 36.96 62.79 35.18 60.07 Z" />
</g>
<g id="#8c8aa8ff">
<path fill="#8c8aa8" opacity="1.00" d=" M 75.92 63.14 C 75.01 61.65 73.13 59.77 75.80 59.06 C 79.15 61.20 82.72 63.35 83.46 67.61 C 87.18 69.82 88.91 74.84 87.14 78.83 C 86.26 78.81 85.37 78.84 84.49 78.93 C 81.90 73.51 79.84 67.82 75.92 63.14 Z" />
</g>
<g id="#cbc5cffa">
<path fill="#cbc5cf" opacity="0.98" d=" M 120.83 60.06 C 124.62 59.69 128.34 58.47 132.18 59.61 C 130.54 59.84 128.78 60.07 127.98 61.72 C 131.63 63.56 136.36 65.35 140.10 62.92 C 140.16 64.21 140.26 65.51 140.42 66.80 C 139.89 71.73 133.02 66.46 130.11 69.64 C 127.31 67.27 125.50 63.84 121.80 62.20 C 123.83 61.29 121.85 60.70 120.83 60.06 Z" />
</g>
<g id="#c2bcb0ed">
<path fill="#c2bcb0" opacity="0.93" d=" M 23.69 65.70 C 26.63 62.31 31.15 61.47 35.18 60.07 C 36.96 62.79 32.71 63.26 31.12 64.61 C 28.65 64.98 26.18 65.38 23.69 65.70 Z" />
</g>
<g id="#eae2d9ff">
<path fill="#eae2d9" opacity="1.00" d=" M 60.19 60.20 L 60.91 59.74 C 65.08 60.01 69.12 61.12 73.20 61.95 C 74.10 62.36 75.01 62.75 75.92 63.14 C 79.84 67.82 81.90 73.51 84.49 78.93 C 84.97 79.92 85.48 80.90 86.02 81.86 C 88.13 86.61 93.27 91.57 91.00 97.15 L 90.62 97.98 C 90.06 99.07 89.52 100.17 89.02 101.29 C 88.07 100.45 86.87 99.67 87.10 98.22 C 89.74 97.81 89.38 94.32 89.71 92.26 C 87.36 88.44 84.58 84.83 81.05 82.03 C 81.66 80.74 82.86 79.67 82.98 78.18 C 81.82 77.54 80.59 77.05 79.40 76.48 C 78.27 74.35 79.84 71.12 77.98 69.20 C 75.13 70.35 70.14 73.99 69.01 69.71 C 71.34 68.30 75.06 67.18 75.06 63.94 C 74.09 64.23 73.13 64.57 72.19 64.97 C 69.30 64.01 66.35 63.27 63.35 62.75 C 62.15 62.21 60.95 61.69 59.77 61.11 L 60.19 60.20 Z" />
</g>
<g id="#bfbbb7f0">
<path fill="#bfbbb7" opacity="0.94" d=" M 110.55 66.19 C 113.62 63.81 116.55 59.88 120.83 60.06 C 121.85 60.70 123.83 61.29 121.80 62.20 L 120.91 62.26 C 118.37 62.90 116.40 65.11 113.82 65.90 C 112.74 66.10 111.65 66.42 110.55 66.19 Z" />
</g>
<g id="#e7ded2f7">
<path fill="#e7ded2" opacity="0.97" d=" M 127.98 61.72 C 128.78 60.07 130.54 59.84 132.18 59.61 C 134.87 60.01 137.89 60.20 140.12 61.89 L 140.10 62.92 C 136.36 65.35 131.63 63.56 127.98 61.72 Z" />
</g>
<g id="#61647fff">
<path fill="#61647f" opacity="1.00" d=" M 41.28 60.81 C 41.48 62.29 41.90 65.27 42.10 66.76 C 41.43 66.58 40.09 66.22 39.42 66.04 C 39.63 65.31 40.06 63.86 40.27 63.13 C 40.52 62.55 41.03 61.39 41.28 60.81 Z" />
</g>
<g id="#65698fff">
<path fill="#65698f" opacity="1.00" d=" M 47.04 64.93 C 47.82 60.75 52.33 60.59 55.22 62.77 C 53.30 63.83 51.32 64.81 49.18 65.37 C 48.65 65.26 47.58 65.04 47.04 64.93 Z" />
</g>
<g id="#d2cdcfff">
<path fill="#d2cdcf" opacity="1.00" d=" M 57.79 62.01 C 58.29 61.79 59.28 61.34 59.77 61.11 C 60.95 61.69 62.15 62.21 63.35 62.75 L 62.92 63.58 C 61.83 64.52 60.59 65.35 59.86 66.62 C 56.11 68.39 51.97 73.04 48.02 69.21 C 43.97 71.53 38.47 71.88 34.29 69.76 C 34.23 68.26 34.23 66.74 34.30 65.24 C 35.72 63.45 38.12 63.05 40.27 63.13 C 40.06 63.86 39.63 65.31 39.42 66.04 C 37.70 69.25 43.08 68.92 44.94 67.40 L 45.69 67.02 C 50.64 69.04 56.84 67.87 59.92 63.35 C 59.39 63.01 58.33 62.35 57.79 62.01 Z" />
</g>
<g id="#c5c0c5ff">
<path fill="#c5c0c5" opacity="1.00" d=" M 55.22 62.77 C 56.08 62.51 56.93 62.25 57.79 62.01 C 58.33 62.35 59.39 63.01 59.92 63.35 C 56.84 67.87 50.64 69.04 45.69 67.02 C 46.82 66.39 48.00 65.88 49.18 65.37 C 51.32 64.81 53.30 63.83 55.22 62.77 Z" />
</g>
<g id="#c7c1baf9">
<path fill="#c7c1ba" opacity="0.98" d=" M 107.48 65.02 C 104.74 68.48 102.13 59.86 106.29 62.70 C 106.59 63.28 107.19 64.44 107.48 65.02 Z" />
</g>
<g id="#a4a3b9ff">
<path fill="#a4a3b9" opacity="1.00" d=" M 113.82 65.90 C 116.40 65.11 118.37 62.90 120.91 62.26 C 122.61 65.11 123.27 68.05 120.92 70.74 C 120.14 70.80 118.58 70.91 117.79 70.97 C 117.84 70.22 117.93 68.72 117.97 67.97 C 118.97 65.04 115.52 66.17 113.82 65.90 Z" />
</g>
<g id="#b8b5ccff">
<path fill="#b8b5cc" opacity="1.00" d=" M 120.91 62.26 L 121.80 62.20 C 125.50 63.84 127.31 67.27 130.11 69.64 C 133.02 66.46 139.89 71.73 140.42 66.80 C 140.79 68.48 140.97 70.19 141.05 71.90 C 138.39 73.63 135.28 74.43 132.29 75.39 C 130.69 73.49 125.37 68.68 124.59 72.99 L 123.91 72.47 C 123.03 71.70 122.01 71.14 120.92 70.74 C 123.27 68.05 122.61 65.11 120.91 62.26 Z" />
</g>
<g id="#9d98a1ff">
<path fill="#9d98a1" opacity="1.00" d=" M 140.12 61.89 C 140.37 62.12 140.88 62.59 141.14 62.82 C 141.76 65.26 142.74 67.60 143.01 70.12 C 142.38 70.74 141.72 71.33 141.05 71.90 C 140.97 70.19 140.79 68.48 140.42 66.80 C 140.26 65.51 140.16 64.21 140.10 62.92 L 140.12 61.89 Z" />
</g>
<g id="#bcb5b6ff">
<path fill="#bcb5b6" opacity="1.00" d=" M 63.35 62.75 C 66.35 63.27 69.30 64.01 72.19 64.97 C 70.44 68.43 66.02 66.72 62.85 66.95 C 63.26 65.27 66.46 63.48 62.92 63.58 L 63.35 62.75 Z" />
</g>
<g id="#d8d1cef5">
<path fill="#d8d1ce" opacity="0.96" d=" M 141.14 62.82 C 143.27 64.57 144.96 66.75 146.45 69.05 C 145.32 69.46 144.17 69.82 143.01 70.12 C 142.74 67.60 141.76 65.26 141.14 62.82 Z" />
</g>
<g id="#a098a0ff">
<path fill="#a098a0" opacity="1.00" d=" M 59.86 66.62 C 60.59 65.35 61.83 64.52 62.92 63.58 C 66.46 63.48 63.26 65.27 62.85 66.95 C 66.02 66.72 70.44 68.43 72.19 64.97 C 73.13 64.57 74.09 64.23 75.06 63.94 C 75.06 67.18 71.34 68.30 69.01 69.71 C 67.24 69.85 63.80 68.23 63.86 71.05 C 62.72 69.41 61.40 67.90 59.86 66.62 Z" />
</g>
<g id="#eae3dbfb">
<path fill="#eae3db" opacity="1.00" d=" M 23.69 65.70 C 26.18 65.38 28.65 64.98 31.12 64.61 C 31.60 67.34 31.90 70.68 29.80 72.83 C 25.80 73.27 21.76 73.14 17.76 73.62 C 17.28 73.66 16.32 73.74 15.84 73.77 C 17.90 70.63 20.72 67.96 23.69 65.70 Z" />
</g>
<g id="#bdbac1ff">
<path fill="#bdbac1" opacity="1.00" d=" M 44.94 67.40 C 43.08 68.92 37.70 69.25 39.42 66.04 C 40.09 66.22 41.43 66.58 42.10 66.76 L 43.14 66.90 C 43.59 67.02 44.49 67.28 44.94 67.40 Z" />
</g>
<g id="#9697a6f3">
<path fill="#9697a6" opacity="0.95" d=" M 108.20 65.94 C 108.79 66.00 109.96 66.13 110.55 66.19 C 111.65 66.42 112.74 66.10 113.82 65.90 C 115.52 66.17 118.97 65.04 117.97 67.97 C 115.39 68.36 110.49 66.30 110.91 70.04 C 110.08 68.62 109.20 67.24 108.20 65.94 Z" />
</g>
<g id="#7b768eff">
<path fill="#7b768e" opacity="1.00" d=" M 98.18 68.27 C 99.21 66.37 101.60 67.18 103.35 66.89 L 104.33 67.00 C 103.69 67.35 102.43 68.05 101.79 68.40 C 97.67 66.85 100.56 73.38 100.04 75.76 C 100.06 77.44 100.16 79.12 100.34 80.79 C 100.09 82.24 99.81 83.70 99.52 85.15 C 99.83 80.77 97.05 79.90 92.75 81.01 C 92.04 81.00 90.62 80.98 89.91 80.97 C 88.58 81.06 87.29 81.45 86.02 81.86 C 85.48 80.90 84.97 79.92 84.49 78.93 C 85.37 78.84 86.26 78.81 87.14 78.83 C 88.74 78.92 90.33 79.00 91.93 79.02 C 93.33 79.07 94.73 79.07 96.12 79.04 C 100.99 79.46 96.35 70.80 98.18 68.27 Z" />
</g>
<g id="#9b96a0ff">
<path fill="#9b96a0" opacity="1.00" d=" M 104.33 67.00 C 105.73 67.02 107.24 67.04 107.34 68.82 C 105.48 68.91 103.60 68.90 101.79 68.40 C 102.43 68.05 103.69 67.35 104.33 67.00 Z" />
</g>
<g id="#c1bcccff">
<path fill="#c1bccc" opacity="1.00" d=" M 100.04 75.76 C 100.56 73.38 97.67 66.85 101.79 68.40 C 103.60 68.90 105.48 68.91 107.34 68.82 C 108.11 70.64 108.69 72.54 109.17 74.46 C 108.43 77.64 107.91 80.89 107.83 84.16 C 103.57 82.80 104.72 76.50 100.04 75.76 Z" />
</g>
<g id="#8587a0ff">
<path fill="#8587a0" opacity="1.00" d=" M 110.91 70.04 C 110.49 66.30 115.39 68.36 117.97 67.97 C 117.93 68.72 117.84 70.22 117.79 70.97 C 115.78 71.77 113.96 72.96 112.12 74.07 C 111.89 72.68 111.49 71.32 110.91 70.04 Z" />
</g>
<g id="#746e80ff">
<path fill="#746e80" opacity="1.00" d=" M 63.86 71.05 C 63.80 68.23 67.24 69.85 69.01 69.71 C 67.43 71.07 65.97 72.58 64.63 74.18 C 64.03 74.23 63.44 74.27 62.84 74.29 C 63.26 73.24 63.60 72.16 63.86 71.05 Z" />
</g>
<g id="#d7cfd4ff">
<path fill="#d7cfd4" opacity="1.00" d=" M 69.01 69.71 C 70.14 73.99 75.13 70.35 77.98 69.20 C 79.84 71.12 78.27 74.35 79.40 76.48 C 80.59 77.05 81.82 77.54 82.98 78.18 C 82.86 79.67 81.66 80.74 81.05 82.03 C 84.58 84.83 87.36 88.44 89.71 92.26 C 89.38 94.32 89.74 97.81 87.10 98.22 C 88.31 93.78 85.95 91.50 82.64 89.69 C 83.43 86.21 79.62 84.38 77.16 82.80 C 76.44 81.74 75.81 80.63 75.02 79.63 C 72.21 76.63 65.81 79.36 64.63 74.18 C 65.97 72.58 67.43 71.07 69.01 69.71 Z" />
</g>
<g id="#b2b0b9f9">
<path fill="#b2b0b9" opacity="0.98" d=" M 146.45 69.05 C 148.49 72.34 153.14 74.76 151.29 79.20 L 151.17 80.03 C 151.29 81.72 150.68 82.26 149.36 81.66 C 147.70 78.69 145.98 75.77 144.18 72.89 C 143.75 71.98 143.36 71.06 143.01 70.12 C 144.17 69.82 145.32 69.46 146.45 69.05 Z" />
</g>
<g id="#6f6981ff">
<path fill="#6f6981" opacity="1.00" d=" M 141.05 71.90 C 141.72 71.33 142.38 70.74 143.01 70.12 C 143.36 71.06 143.75 71.98 144.18 72.89 C 143.94 73.15 143.46 73.67 143.23 73.93 C 139.87 72.50 136.33 76.15 132.92 77.04 C 129.30 77.60 127.82 79.75 129.03 83.82 L 128.12 83.95 C 127.85 83.71 127.31 83.23 127.04 83.00 C 126.82 81.44 126.38 78.34 126.17 76.79 C 125.35 75.37 122.57 74.33 123.91 72.47 L 124.59 72.99 C 125.75 74.26 126.91 75.54 128.19 76.69 C 129.59 76.36 130.94 75.86 132.29 75.39 C 135.28 74.43 138.39 73.63 141.05 71.90 Z" />
</g>
<g id="#5e5e79ff">
<path fill="#5e5e79" opacity="1.00" d=" M 112.12 74.07 C 113.96 72.96 115.78 71.77 117.79 70.97 C 119.82 72.22 125.87 74.07 116.41 73.59 C 116.02 73.75 115.24 74.06 114.85 74.22 C 114.54 74.35 113.91 74.62 113.60 74.75 C 113.22 74.83 112.47 74.98 112.09 75.05 L 112.12 74.07 Z" />
</g>
<g id="#8b89a6ff">
<path fill="#8b89a6" opacity="1.00" d=" M 117.79 70.97 C 118.58 70.91 120.14 70.80 120.92 70.74 C 122.01 71.14 123.03 71.70 123.91 72.47 C 122.57 74.33 125.35 75.37 126.17 76.79 C 126.38 78.34 126.82 81.44 127.04 83.00 C 124.18 83.30 124.13 79.85 122.82 78.13 C 120.30 76.54 117.54 75.45 114.85 74.22 C 115.24 74.06 116.02 73.75 116.41 73.59 C 125.87 74.07 119.82 72.22 117.79 70.97 Z" />
</g>
<g id="#aca8c2ff">
<path fill="#aca8c2" opacity="1.00" d=" M 124.59 72.99 C 125.37 68.68 130.69 73.49 132.29 75.39 C 130.94 75.86 129.59 76.36 128.19 76.69 C 126.91 75.54 125.75 74.26 124.59 72.99 Z" />
</g>
<g id="#a9a6beff">
<path fill="#a9a6be" opacity="1.00" d=" M 132.92 77.04 C 136.33 76.15 139.87 72.50 143.23 73.93 C 144.65 77.31 146.65 80.41 148.06 83.80 C 146.41 85.06 144.84 86.46 143.62 88.15 C 143.15 88.81 142.71 89.49 142.31 90.20 C 142.15 88.57 142.07 86.92 141.70 85.31 C 138.50 82.86 135.74 79.91 132.92 77.04 Z" />
</g>
<g id="#848092ff">
<path fill="#848092" opacity="1.00" d=" M 144.18 72.89 C 145.98 75.77 147.70 78.69 149.36 81.66 C 150.68 82.26 151.29 81.72 151.17 80.03 C 155.25 79.94 150.24 84.07 148.06 83.80 C 146.65 80.41 144.65 77.31 143.23 73.93 C 143.46 73.67 143.94 73.15 144.18 72.89 Z" />
</g>
<g id="#c7c2d5ff">
<path fill="#c7c2d5" opacity="1.00" d=" M 14.71 75.65 C 14.99 75.18 15.55 74.24 15.84 73.77 C 16.32 73.74 17.28 73.66 17.76 73.62 C 22.99 75.95 28.55 75.25 33.99 76.54 C 42.85 75.26 51.85 76.11 60.72 76.70 C 61.47 75.93 62.14 75.10 62.84 74.29 C 63.44 74.27 64.03 74.23 64.63 74.18 C 65.81 79.36 72.21 76.63 75.02 79.63 C 70.62 80.66 71.74 86.32 69.18 89.26 C 68.65 88.12 68.16 86.97 67.70 85.80 C 68.62 82.51 65.40 84.52 65.58 86.61 C 61.98 86.28 61.09 89.31 59.85 91.92 C 58.21 88.64 63.23 84.77 61.22 82.10 C 55.64 76.61 47.01 77.80 40.02 79.54 C 35.93 78.58 29.18 79.48 30.57 85.66 C 29.59 87.30 28.04 88.72 26.09 89.01 C 27.49 86.31 28.72 83.55 29.79 80.72 C 29.87 80.39 30.03 79.73 30.11 79.40 C 24.37 80.80 20.36 75.08 14.71 75.65 Z" />
</g>
<g id="#7f7f9dff">
<path fill="#7f7f9d" opacity="1.00" d=" M 113.60 74.75 C 113.91 74.62 114.54 74.35 114.85 74.22 C 117.54 75.45 120.30 76.54 122.82 78.13 C 124.13 79.85 124.18 83.30 127.04 83.00 C 126.98 83.44 126.87 84.32 126.82 84.77 C 126.47 87.24 126.11 89.72 125.73 92.19 C 124.33 88.80 122.75 85.55 119.42 83.66 C 118.70 80.72 118.16 76.59 114.21 76.67 C 114.06 76.19 113.75 75.23 113.60 74.75 Z" />
</g>
<g id="#b4b2c2fb">
<path fill="#b4b2c2" opacity="1.00" d=" M 154.64 77.04 C 159.11 72.95 165.27 73.94 170.09 76.77 C 166.33 76.44 168.54 80.54 169.98 82.01 C 171.70 85.82 176.64 86.28 178.14 90.11 C 178.16 91.36 178.20 92.61 178.27 93.87 C 178.03 94.45 177.55 95.60 177.31 96.18 C 175.94 95.65 174.54 95.21 173.13 94.83 C 170.95 90.31 167.38 86.27 166.78 81.21 C 166.36 81.37 165.50 81.70 165.07 81.86 C 164.82 81.59 164.34 81.04 164.10 80.77 C 163.32 80.17 162.39 79.91 161.29 80.01 C 158.98 79.23 156.26 79.09 154.64 77.04 Z" />
</g>
<g id="#aa9ca7ff">
<path fill="#aa9ca7" opacity="1.00" d=" M 107.83 84.16 C 107.91 80.89 108.43 77.64 109.17 74.46 C 110.60 78.47 109.65 82.91 110.04 87.06 L 108.88 87.14 C 108.75 86.81 108.50 86.14 108.37 85.81 C 108.23 85.39 107.97 84.57 107.83 84.16 Z" />
</g>
<g id="#6c6f8dff">
<path fill="#6c6f8d" opacity="1.00" d=" M 112.09 75.05 C 112.47 74.98 113.22 74.83 113.60 74.75 C 113.75 75.23 114.06 76.19 114.21 76.67 C 115.64 79.64 115.30 83.77 118.60 85.43 C 121.83 87.46 121.45 91.80 122.73 95.02 C 122.11 97.78 120.80 100.33 120.01 103.05 C 119.51 102.85 118.50 102.46 118.00 102.26 C 117.73 99.24 120.78 96.64 119.34 93.69 C 118.14 90.57 118.70 85.04 114.03 85.99 C 113.43 83.90 112.75 81.83 112.00 79.80 C 112.00 78.22 112.02 76.63 112.09 75.05 Z" />
</g>
<g id="#b7b3c3ff">
<path fill="#b7b3c3" opacity="1.00" d=" M 13.59 77.78 C 13.87 77.25 14.43 76.18 14.71 75.65 C 20.36 75.08 24.37 80.80 30.11 79.40 C 30.03 79.73 29.87 80.39 29.79 80.72 C 28.42 81.59 27.43 82.89 26.38 84.10 C 23.47 79.94 18.14 79.14 13.59 77.78 Z" />
</g>
<g id="#b5b0c5ff">
<path fill="#b5b0c5" opacity="1.00" d=" M 100.04 75.76 C 104.72 76.50 103.57 82.80 107.83 84.16 C 107.97 84.57 108.23 85.39 108.37 85.81 C 108.15 87.59 107.53 89.25 106.10 90.40 C 104.45 89.63 102.88 88.68 101.41 87.60 C 101.15 85.31 100.79 83.04 100.34 80.79 C 100.16 79.12 100.06 77.44 100.04 75.76 Z" />
</g>
<g id="#767793ff">
<path fill="#767793" opacity="1.00" d=" M 114.21 76.67 C 118.16 76.59 118.70 80.72 119.42 83.66 C 122.75 85.55 124.33 88.80 125.73 92.19 C 126.11 89.72 126.47 87.24 126.82 84.77 C 126.87 88.42 127.05 92.09 126.94 95.75 C 124.51 98.07 122.33 100.63 120.01 103.05 C 120.80 100.33 122.11 97.78 122.73 95.02 C 121.45 91.80 121.83 87.46 118.60 85.43 C 115.30 83.77 115.64 79.64 114.21 76.67 Z" />
</g>
<g id="#9996afff">
<path fill="#9996af" opacity="1.00" d=" M 129.03 83.82 C 127.82 79.75 129.30 77.60 132.92 77.04 C 135.74 79.91 138.50 82.86 141.70 85.31 C 142.07 86.92 142.15 88.57 142.31 90.20 C 141.23 91.89 140.03 95.06 137.61 94.56 C 131.30 97.07 132.35 90.79 134.93 88.87 C 134.09 86.46 131.22 84.98 129.03 83.82 Z" />
</g>
<g id="#6a6b82fb">
<path fill="#6a6b82" opacity="1.00" d=" M 151.29 79.20 C 152.44 78.53 153.54 77.79 154.64 77.04 C 156.26 79.09 158.98 79.23 161.29 80.01 C 154.78 78.67 152.77 83.68 150.25 88.14 C 150.15 87.33 149.96 85.72 149.87 84.92 C 147.12 84.66 146.21 89.37 143.62 88.15 C 144.84 86.46 146.41 85.06 148.06 83.80 C 150.24 84.07 155.25 79.94 151.17 80.03 L 151.29 79.20 Z" />
</g>
<g id="#c9c2c8fa">
<path fill="#c9c2c8" opacity="0.98" d=" M 169.98 82.01 C 168.54 80.54 166.33 76.44 170.09 76.77 C 174.81 78.92 178.84 82.44 180.23 87.58 C 179.53 88.42 178.83 89.26 178.14 90.11 C 176.64 86.28 171.70 85.82 169.98 82.01 Z" />
</g>
<g id="#8e8c9efc">
<path fill="#8e8c9e" opacity="1.00" d=" M 13.83 81.28 C 13.24 80.18 12.70 78.89 13.59 77.78 C 15.79 82.32 22.77 81.68 25.91 85.82 C 26.03 85.39 26.26 84.53 26.38 84.10 C 27.43 82.89 28.42 81.59 29.79 80.72 C 28.72 83.55 27.49 86.31 26.09 89.01 L 25.40 89.22 C 22.86 87.50 20.28 85.85 18.00 83.79 C 16.78 82.70 15.39 81.78 13.83 81.28 Z" />
</g>
<g id="#a3a0b2ff">
<path fill="#a3a0b2" opacity="1.00" d=" M 13.59 77.78 C 18.14 79.14 23.47 79.94 26.38 84.10 C 26.26 84.53 26.03 85.39 25.91 85.82 C 22.77 81.68 15.79 82.32 13.59 77.78 Z" />
</g>
<g id="#b9b5caff">
<path fill="#b9b5ca" opacity="1.00" d=" M 40.02 79.54 C 47.01 77.80 55.64 76.61 61.22 82.10 C 60.56 82.89 59.86 83.64 59.12 84.36 C 56.91 84.19 55.28 82.77 53.65 81.42 C 47.06 82.55 39.63 78.80 34.06 83.96 C 33.41 83.21 32.72 82.50 32.00 81.83 C 32.03 84.24 32.61 86.59 33.03 88.95 C 29.90 92.59 30.00 98.60 33.31 102.04 C 30.66 105.61 26.81 108.51 25.26 112.78 L 25.98 113.32 C 25.69 113.54 25.09 113.97 24.80 114.19 C 22.88 113.44 20.99 112.61 19.15 111.67 C 18.20 106.22 21.64 101.58 22.34 96.36 C 23.61 94.52 20.87 94.91 19.79 94.40 C 22.87 94.79 23.35 92.55 23.32 90.00 C 23.84 89.81 24.88 89.42 25.40 89.22 L 26.09 89.01 C 28.04 88.72 29.59 87.30 30.57 85.66 C 29.18 79.48 35.93 78.58 40.02 79.54 Z" />
</g>
<g id="#bfb9c7ff">
<path fill="#bfb9c7" opacity="1.00" d=" M 69.18 89.26 C 71.74 86.32 70.62 80.66 75.02 79.63 C 75.81 80.63 76.44 81.74 77.16 82.80 C 78.88 85.51 81.13 88.06 81.47 91.40 C 81.51 96.69 84.91 100.84 87.07 105.40 C 86.44 106.35 85.91 107.41 85.03 108.16 C 83.56 107.16 82.23 105.96 80.89 104.80 C 81.19 103.15 81.98 101.67 82.63 100.14 C 79.53 97.12 78.67 93.06 77.83 88.96 C 75.73 89.26 75.30 92.14 73.00 91.97 C 70.43 91.71 71.54 94.58 71.05 96.15 C 69.68 94.74 69.42 92.60 68.66 90.85 C 68.79 90.45 69.05 89.66 69.18 89.26 Z" />
</g>
<g id="#a19eadff">
<path fill="#a19ead" opacity="1.00" d=" M 111.21 87.03 C 110.07 84.51 110.34 82.10 112.00 79.80 C 112.86 82.26 112.59 84.67 111.21 87.03 Z" />
</g>
<g id="#585c7bff">
<path fill="#585c7b" opacity="1.00" d=" M 112.00 79.80 C 112.75 81.83 113.43 83.90 114.03 85.99 C 115.26 90.89 116.14 96.61 113.00 100.96 C 112.49 101.02 111.47 101.13 110.97 101.19 C 110.95 98.53 110.89 95.88 110.79 93.24 C 110.90 91.16 111.03 89.09 111.21 87.03 C 112.59 84.67 112.86 82.26 112.00 79.80 Z" />
</g>
<g id="#8082a3ff">
<path fill="#8082a3" opacity="1.00" d=" M 161.29 80.01 C 162.39 79.91 163.32 80.17 164.10 80.77 C 163.84 81.00 163.32 81.46 163.06 81.68 C 161.38 81.86 159.70 81.96 158.03 82.16 C 158.57 84.78 159.51 87.30 159.95 89.94 C 158.30 93.92 154.33 96.18 150.89 98.43 C 149.55 96.23 151.45 91.87 148.07 91.87 C 148.72 90.58 149.48 89.36 150.25 88.14 C 152.77 83.68 154.78 78.67 161.29 80.01 Z" />
</g>
<g id="#777787fe">
<path fill="#777787" opacity="1.00" d=" M 13.83 81.28 C 15.39 81.78 16.78 82.70 18.00 83.79 C 17.74 84.06 17.22 84.60 16.97 84.88 C 15.80 84.29 14.74 83.53 13.77 82.66 C 13.78 82.31 13.81 81.62 13.83 81.28 Z" />
</g>
<g id="#a8a3b9ff">
<path fill="#a8a3b9" opacity="1.00" d=" M 34.06 83.96 C 39.63 78.80 47.06 82.55 53.65 81.42 C 55.28 82.77 56.91 84.19 59.12 84.36 C 56.69 84.85 54.18 84.92 51.79 85.62 C 50.00 86.10 48.25 86.70 46.47 87.20 C 43.98 83.18 37.60 84.31 34.68 87.31 C 34.44 86.20 34.24 85.08 34.06 83.96 Z" />
</g>
<g id="#8d89a1ff">
<path fill="#8d89a1" opacity="1.00" d=" M 86.02 81.86 C 87.29 81.45 88.58 81.06 89.91 80.97 C 86.97 86.17 94.33 89.67 98.03 92.14 C 95.77 93.92 93.51 95.72 91.00 97.15 C 93.27 91.57 88.13 86.61 86.02 81.86 Z" />
</g>
<g id="#9995acff">
<path fill="#9995ac" opacity="1.00" d=" M 89.91 80.97 C 90.62 80.98 92.04 81.00 92.75 81.01 C 94.17 83.58 96.17 85.85 96.32 88.92 C 98.97 89.80 100.47 87.46 99.52 85.15 C 99.81 83.70 100.09 82.24 100.34 80.79 C 100.79 83.04 101.15 85.31 101.41 87.60 C 102.88 88.68 104.45 89.63 106.10 90.40 L 105.99 91.11 C 103.26 91.11 100.38 90.51 98.03 92.14 C 94.33 89.67 86.97 86.17 89.91 80.97 Z" />
</g>
<g id="#a29fb7ff">
<path fill="#a29fb7" opacity="1.00" d=" M 92.75 81.01 C 97.05 79.90 99.83 80.77 99.52 85.15 C 100.47 87.46 98.97 89.80 96.32 88.92 C 96.17 85.85 94.17 83.58 92.75 81.01 Z" />
</g>
<g id="#5e5d73fe">
<path fill="#5e5d73" opacity="1.00" d=" M 163.06 81.68 C 163.32 81.46 163.84 81.00 164.10 80.77 C 164.34 81.04 164.82 81.59 165.07 81.86 C 166.18 86.16 166.44 91.25 169.98 94.39 C 169.65 94.56 169.00 94.91 168.67 95.08 C 164.16 97.30 161.03 101.52 157.58 105.06 C 155.41 107.81 160.22 106.84 161.82 107.33 C 165.97 108.73 173.83 110.30 174.26 103.82 C 174.94 104.75 174.51 107.17 176.10 106.93 C 179.15 107.42 178.33 102.23 181.18 102.08 C 180.40 104.67 180.50 108.26 177.63 109.54 C 175.46 110.46 173.29 111.36 171.18 112.40 C 166.03 110.43 160.83 107.93 155.19 108.07 C 152.83 110.20 153.70 113.38 153.90 116.12 C 152.83 114.75 151.77 113.37 150.63 112.06 C 151.83 109.32 153.99 107.19 155.89 104.93 C 159.05 101.39 162.53 98.16 165.77 94.68 C 166.10 90.14 164.13 85.97 163.06 81.68 Z" />
</g>
<g id="#a3a2bdff">
<path fill="#a3a2bd" opacity="1.00" d=" M 165.07 81.86 C 165.50 81.70 166.36 81.37 166.78 81.21 C 167.38 86.27 170.95 90.31 173.13 94.83 C 172.07 94.68 171.03 94.54 169.98 94.39 C 166.44 91.25 166.18 86.16 165.07 81.86 Z" />
</g>
<g id="#7d778dff">
<path fill="#7d778d" opacity="1.00" d=" M 32.00 81.83 C 32.72 82.50 33.41 83.21 34.06 83.96 C 34.24 85.08 34.44 86.20 34.68 87.31 L 34.58 88.05 C 34.36 88.32 33.92 88.87 33.70 89.14 L 33.03 88.95 C 32.61 86.59 32.03 84.24 32.00 81.83 Z" />
</g>
<g id="#7e768dff">
<path fill="#7e768d" opacity="1.00" d=" M 61.22 82.10 C 63.23 84.77 58.21 88.64 59.85 91.92 C 57.97 93.78 56.70 96.77 54.17 97.69 C 50.12 96.42 44.21 98.55 40.93 96.05 C 45.59 95.18 51.47 97.91 55.43 94.47 C 58.42 92.81 58.16 89.04 58.00 86.06 C 56.73 86.25 55.48 86.56 54.22 86.80 C 53.61 86.51 52.40 85.92 51.79 85.62 C 54.18 84.92 56.69 84.85 59.12 84.36 C 59.86 83.64 60.56 82.89 61.22 82.10 Z" />
</g>
<g id="#9392afff">
<path fill="#9392af" opacity="1.00" d=" M 158.03 82.16 C 159.70 81.96 161.38 81.86 163.06 81.68 C 164.13 85.97 166.10 90.14 165.77 94.68 C 162.53 98.16 159.05 101.39 155.89 104.93 C 155.49 104.75 154.71 104.40 154.32 104.22 C 153.17 102.30 151.78 100.50 150.89 98.43 C 154.33 96.18 158.30 93.92 159.95 89.94 C 159.51 87.30 158.57 84.78 158.03 82.16 Z" />
</g>
<g id="#c0babbf8">
<path fill="#c0babb" opacity="0.97" d=" M 7.81 105.93 C 11.78 98.67 10.71 90.20 13.77 82.66 C 14.03 86.03 14.48 89.40 14.77 92.78 C 13.38 95.60 19.33 95.42 21.20 96.21 C 19.79 100.30 18.73 104.51 17.65 108.70 C 16.33 110.39 13.90 110.11 12.07 110.91 C 10.19 109.67 8.71 108.00 7.81 105.93 Z" />
</g>
<g id="#f0f1f3ff">
<path fill="#f0f1f3" opacity="1.00" d=" M 13.77 82.66 C 14.74 83.53 15.80 84.29 16.97 84.88 C 19.11 86.55 21.31 88.16 23.32 90.00 C 23.35 92.55 22.87 94.79 19.79 94.40 C 18.06 94.05 16.34 93.59 14.77 92.78 C 14.48 89.40 14.03 86.03 13.77 82.66 Z" />
</g>
<g id="#cfc6caff">
<path fill="#cfc6ca" opacity="1.00" d=" M 77.16 82.80 C 79.62 84.38 83.43 86.21 82.64 89.69 C 85.95 91.50 88.31 93.78 87.10 98.22 C 86.87 99.67 88.07 100.45 89.02 101.29 C 88.51 102.72 87.89 104.12 87.07 105.40 C 84.91 100.84 81.51 96.69 81.47 91.40 C 81.13 88.06 78.88 85.51 77.16 82.80 Z" />
</g>
<g id="#555268ff">
<path fill="#555268" opacity="1.00" d=" M 127.04 83.00 C 127.31 83.23 127.85 83.71 128.12 83.95 C 128.42 87.86 127.40 92.16 128.98 95.90 C 128.47 95.86 127.45 95.79 126.94 95.75 C 127.05 92.09 126.87 88.42 126.82 84.77 C 126.87 84.32 126.98 83.44 127.04 83.00 Z" />
</g>
<g id="#595c71ff">
<path fill="#595c71" opacity="1.00" d=" M 16.97 84.88 C 17.22 84.60 17.74 84.06 18.00 83.79 C 20.28 85.85 22.86 87.50 25.40 89.22 C 24.88 89.42 23.84 89.81 23.32 90.00 C 21.31 88.16 19.11 86.55 16.97 84.88 Z" />
</g>
<g id="#bab5ccff">
<path fill="#bab5cc" opacity="1.00" d=" M 65.58 86.61 C 65.40 84.52 68.62 82.51 67.70 85.80 C 67.21 88.00 67.21 90.17 67.70 92.30 C 69.86 98.08 61.16 98.37 59.83 103.01 C 63.32 101.72 66.10 99.18 69.05 97.02 C 69.35 97.24 69.95 97.69 70.25 97.92 C 70.33 102.13 66.97 105.14 63.80 107.40 C 58.91 106.11 56.34 114.36 51.59 111.15 C 53.39 109.07 56.77 108.03 57.16 105.02 C 52.88 107.41 49.10 111.71 43.82 111.06 C 41.08 110.86 38.59 112.10 35.99 112.73 C 33.51 111.94 31.08 110.97 28.64 110.05 C 30.98 107.25 33.32 104.44 35.82 101.78 C 37.37 103.37 39.00 104.94 40.96 106.02 C 44.13 104.23 46.81 101.13 50.95 101.85 C 51.82 101.67 52.52 101.19 53.06 100.39 C 51.66 99.98 49.93 99.90 49.75 98.10 C 51.23 98.00 52.70 97.87 54.17 97.69 C 56.70 96.77 57.97 93.78 59.85 91.92 C 61.09 89.31 61.98 86.28 65.58 86.61 Z" />
</g>
<g id="#8b8ba0ff">
<path fill="#8b8ba0" opacity="1.00" d=" M 128.12 83.95 L 129.03 83.82 C 131.22 84.98 134.09 86.46 134.93 88.87 C 132.35 90.79 131.30 97.07 137.61 94.56 C 140.03 95.06 141.23 91.89 142.31 90.20 C 142.71 89.49 143.15 88.81 143.62 88.15 C 146.21 89.37 147.12 84.66 149.87 84.92 C 149.96 85.72 150.15 87.33 150.25 88.14 C 149.48 89.36 148.72 90.58 148.07 91.87 L 147.63 92.72 C 146.08 95.70 144.67 98.75 143.08 101.71 C 140.22 104.27 137.39 106.88 134.34 109.21 C 135.30 103.31 127.88 103.29 125.60 98.91 C 126.01 98.36 126.82 97.26 127.22 96.71 C 129.97 97.88 132.34 99.74 135.02 101.04 C 136.94 100.01 138.82 98.22 139.14 95.97 C 137.41 96.85 136.15 99.03 134.09 98.99 C 132.35 98.01 130.95 96.45 128.98 95.90 C 127.40 92.16 128.42 87.86 128.12 83.95 Z" />
</g>
<g id="#9c97aeff">
<path fill="#9c97ae" opacity="1.00" d=" M 34.68 87.31 C 37.60 84.31 43.98 83.18 46.47 87.20 C 42.62 87.58 37.55 92.17 34.58 88.05 L 34.68 87.31 Z" />
</g>
<g id="#625c74ff">
<path fill="#625c74" opacity="1.00" d=" M 46.47 87.20 C 48.25 86.70 50.00 86.10 51.79 85.62 C 52.40 85.92 53.61 86.51 54.22 86.80 C 49.20 88.43 44.09 89.77 39.03 91.29 C 39.32 92.99 40.15 94.53 40.93 96.05 C 44.21 98.55 50.12 96.42 54.17 97.69 C 52.70 97.87 51.23 98.00 49.75 98.10 C 46.54 98.06 43.33 97.97 40.13 98.21 C 39.85 97.86 39.30 97.16 39.03 96.81 C 38.82 93.17 35.01 92.09 33.70 89.14 C 33.92 88.87 34.36 88.32 34.58 88.05 C 37.55 92.17 42.62 87.58 46.47 87.20 Z" />
</g>
<g id="#f7f7f9ff">
<path fill="#f7f7f9" opacity="1.00" d=" M 54.22 86.80 C 55.48 86.56 56.73 86.25 58.00 86.06 C 58.16 89.04 58.42 92.81 55.43 94.47 C 51.47 97.91 45.59 95.18 40.93 96.05 C 40.15 94.53 39.32 92.99 39.03 91.29 C 44.09 89.77 49.20 88.43 54.22 86.80 M 46.26 90.32 C 44.04 91.25 44.76 94.58 46.95 95.12 C 46.64 93.89 47.86 89.47 46.26 90.32 Z" />
</g>
<g id="#918da4ff">
<path fill="#918da4" opacity="1.00" d=" M 67.70 92.30 C 67.21 90.17 67.21 88.00 67.70 85.80 C 68.16 86.97 68.65 88.12 69.18 89.26 C 69.05 89.66 68.79 90.45 68.66 90.85 C 68.42 91.21 67.94 91.94 67.70 92.30 Z" />
</g>
<g id="#8b8392ff">
<path fill="#8b8392" opacity="1.00" d=" M 108.37 85.81 C 108.50 86.14 108.75 86.81 108.88 87.14 C 109.25 89.25 109.96 91.27 110.79 93.24 C 110.89 95.88 110.95 98.53 110.97 101.19 L 110.86 102.23 L 110.10 102.09 C 109.99 98.36 109.57 94.66 108.80 91.01 C 107.81 91.26 106.84 91.56 105.90 91.93 L 105.99 91.11 L 106.10 90.40 C 107.53 89.25 108.15 87.59 108.37 85.81 Z" />
</g>
<g id="#636682ff">
<path fill="#636682" opacity="1.00" d=" M 114.03 85.99 C 118.70 85.04 118.14 90.57 119.34 93.69 C 120.78 96.64 117.73 99.24 118.00 102.26 C 116.32 101.88 114.67 101.39 113.00 100.96 C 116.14 96.61 115.26 90.89 114.03 85.99 Z" />
</g>
<g id="#bcb4bbff">
<path fill="#bcb4bb" opacity="1.00" d=" M 108.88 87.14 L 110.04 87.06 L 111.21 87.03 C 111.03 89.09 110.90 91.16 110.79 93.24 C 109.96 91.27 109.25 89.25 108.88 87.14 Z" />
</g>
<g id="#9e9a9ff5">
<path fill="#9e9a9f" opacity="0.96" d=" M 178.14 90.11 C 178.83 89.26 179.53 88.42 180.23 87.58 C 180.93 88.98 181.62 90.39 182.16 91.86 C 179.50 89.91 179.90 93.62 179.16 95.33 C 178.93 94.96 178.49 94.23 178.27 93.87 C 178.20 92.61 178.16 91.36 178.14 90.11 Z" />
</g>
<g id="#aeacc5ff">
<path fill="#aeacc5" opacity="1.00" d=" M 33.03 88.95 L 33.70 89.14 C 35.01 92.09 38.82 93.17 39.03 96.81 C 37.10 98.53 35.19 100.27 33.31 102.04 C 30.00 98.60 29.90 92.59 33.03 88.95 Z" />
</g>
<g id="#b4b0c2ff">
<path fill="#b4b0c2" opacity="1.00" d=" M 73.00 91.97 C 75.30 92.14 75.73 89.26 77.83 88.96 C 78.67 93.06 79.53 97.12 82.63 100.14 C 81.98 101.67 81.19 103.15 80.89 104.80 C 80.60 104.53 80.01 103.99 79.72 103.72 C 78.70 102.08 77.31 100.70 75.56 99.86 C 74.07 98.60 72.49 97.45 71.05 96.15 C 71.54 94.58 70.43 91.71 73.00 91.97 Z" />
</g>
<g id="#393839ff">
<path fill="#393839" opacity="1.00" d=" M 46.26 90.32 C 47.86 89.47 46.64 93.89 46.95 95.12 C 44.76 94.58 44.04 91.25 46.26 90.32 Z" />
</g>
<g id="#7c768bff">
<path fill="#7c768b" opacity="1.00" d=" M 67.70 92.30 C 67.94 91.94 68.42 91.21 68.66 90.85 C 69.42 92.60 69.68 94.74 71.05 96.15 C 72.49 97.45 74.07 98.60 75.56 99.86 C 73.68 101.73 71.87 98.84 70.25 97.92 C 69.95 97.69 69.35 97.24 69.05 97.02 C 66.10 99.18 63.32 101.72 59.83 103.01 C 61.16 98.37 69.86 98.08 67.70 92.30 Z" />
</g>
<g id="#686175ff">
<path fill="#686175" opacity="1.00" d=" M 98.03 92.14 C 100.38 90.51 103.26 91.11 105.99 91.11 L 105.90 91.93 C 105.05 92.29 104.20 92.63 103.33 92.96 C 101.51 91.48 99.76 91.85 98.09 94.07 C 95.76 95.74 93.42 97.38 91.01 98.93 L 90.62 97.98 L 91.00 97.15 C 93.51 95.72 95.77 93.92 98.03 92.14 Z" />
</g>
<g id="#9a9ba7f9">
<path fill="#9a9ba7" opacity="0.98" d=" M 105.90 91.93 C 106.84 91.56 107.81 91.26 108.80 91.01 C 109.57 94.66 109.99 98.36 110.10 102.09 C 109.82 102.49 109.24 103.28 108.96 103.68 C 103.42 105.77 98.08 109.12 92.07 109.45 C 91.57 103.64 100.43 107.17 102.33 102.33 C 105.16 101.35 103.32 99.20 102.64 97.68 C 102.56 96.09 103.12 94.53 103.33 92.96 C 104.20 92.63 105.05 92.29 105.90 91.93 Z" />
</g>
<g id="#b2b0b7fa">
<path fill="#b2b0b7" opacity="0.98" d=" M 179.16 95.33 C 179.90 93.62 179.50 89.91 182.16 91.86 C 183.53 94.15 182.82 96.73 181.74 98.96 C 181.24 99.67 180.72 100.37 180.18 101.06 C 179.77 99.16 179.34 97.26 179.16 95.33 Z" />
</g>
<g id="#86889bff">
<path fill="#86889b" opacity="1.00" d=" M 98.09 94.07 C 99.76 91.85 101.51 91.48 103.33 92.96 C 103.12 94.53 102.56 96.09 102.64 97.68 C 103.32 99.20 105.16 101.35 102.33 102.33 C 100.43 107.17 91.57 103.64 92.07 109.45 C 90.79 109.82 89.49 110.13 88.19 110.40 C 85.37 110.65 86.27 108.90 87.35 107.38 C 90.77 105.71 94.65 104.95 97.84 102.84 C 99.61 98.44 91.29 103.26 91.01 98.93 C 93.42 97.38 95.76 95.74 98.09 94.07 Z" />
</g>
<g id="#5d5a72ff">
<path fill="#5d5a72" opacity="1.00" d=" M 148.07 91.87 C 151.45 91.87 149.55 96.23 150.89 98.43 C 151.78 100.50 153.17 102.30 154.32 104.22 C 154.02 104.34 153.41 104.57 153.10 104.68 C 150.32 101.22 148.40 97.11 147.63 92.72 L 148.07 91.87 Z" />
</g>
<g id="#736d78ff">
<path fill="#736d78" opacity="1.00" d=" M 21.20 96.21 C 19.33 95.42 13.38 95.60 14.77 92.78 C 16.34 93.59 18.06 94.05 19.79 94.40 C 20.87 94.91 23.61 94.52 22.34 96.36 L 21.20 96.21 Z" />
</g>
<g id="#6e7188f9">
<path fill="#6e7188" opacity="0.98" d=" M 143.08 101.71 C 144.67 98.75 146.08 95.70 147.63 92.72 C 148.40 97.11 150.32 101.22 153.10 104.68 C 153.41 104.57 154.02 104.34 154.32 104.22 C 154.71 104.40 155.49 104.75 155.89 104.93 C 153.99 107.19 151.83 109.32 150.63 112.06 C 147.20 109.35 145.21 105.43 143.08 101.71 Z" />
</g>
<g id="#817e97ff">
<path fill="#817e97" opacity="1.00" d=" M 169.98 94.39 C 171.03 94.54 172.07 94.68 173.13 94.83 C 173.78 95.57 174.42 96.32 175.05 97.08 C 172.70 97.27 170.50 96.53 168.67 95.08 C 169.00 94.91 169.65 94.56 169.98 94.39 Z" />
</g>
<g id="#838296f8">
<path fill="#838296" opacity="0.97" d=" M 178.27 93.87 C 178.49 94.23 178.93 94.96 179.16 95.33 C 179.34 97.26 179.77 99.16 180.18 101.06 C 180.72 100.37 181.24 99.67 181.74 98.96 C 182.01 100.31 183.04 101.10 184.14 101.77 C 183.40 101.85 181.92 102.01 181.18 102.08 C 178.33 102.23 179.15 107.42 176.10 106.93 C 174.51 107.17 174.94 104.75 174.26 103.82 C 174.51 102.86 174.77 101.91 175.02 100.95 C 175.81 99.38 176.61 97.80 177.31 96.18 C 177.55 95.60 178.03 94.45 178.27 93.87 Z" />
</g>
<g id="#9d99b2ff">
<path fill="#9d99b2" opacity="1.00" d=" M 157.58 105.06 C 161.03 101.52 164.16 97.30 168.67 95.08 C 170.50 96.53 172.70 97.27 175.05 97.08 C 174.42 96.32 173.78 95.57 173.13 94.83 C 174.54 95.21 175.94 95.65 177.31 96.18 C 176.61 97.80 175.81 99.38 175.02 100.95 C 169.71 102.63 164.35 104.14 158.99 105.67 C 158.64 105.52 157.94 105.21 157.58 105.06 Z" />
</g>
<g id="#8c8b9cfe">
<path fill="#8c8b9c" opacity="1.00" d=" M 21.20 96.21 L 22.34 96.36 C 21.64 101.58 18.20 106.22 19.15 111.67 C 20.99 112.61 22.88 113.44 24.80 114.19 C 23.24 118.12 29.83 118.29 32.22 119.84 C 27.03 120.81 21.97 120.92 17.05 118.93 L 16.17 118.74 C 14.00 117.54 11.80 116.37 9.81 114.87 C 10.44 113.48 11.25 112.19 12.07 110.91 C 13.90 110.11 16.33 110.39 17.65 108.70 C 18.73 104.51 19.79 100.30 21.20 96.21 Z" />
</g>
<g id="#4e4c61ff">
<path fill="#4e4c61" opacity="1.00" d=" M 120.01 103.05 C 122.33 100.63 124.51 98.07 126.94 95.75 L 127.22 96.71 C 126.82 97.26 126.01 98.36 125.60 98.91 C 124.52 100.24 123.64 101.71 122.77 103.18 C 121.83 103.46 120.87 103.68 119.90 103.83 L 120.01 103.05 Z" />
</g>
<g id="#686378ff">
<path fill="#686378" opacity="1.00" d=" M 126.94 95.75 C 127.45 95.79 128.47 95.86 128.98 95.90 C 130.95 96.45 132.35 98.01 134.09 98.99 C 136.15 99.03 137.41 96.85 139.14 95.97 C 138.82 98.22 136.94 100.01 135.02 101.04 C 132.34 99.74 129.97 97.88 127.22 96.71 L 126.94 95.75 Z" />
</g>
<g id="#7a7288ff">
<path fill="#7a7288" opacity="1.00" d=" M 33.31 102.04 C 35.19 100.27 37.10 98.53 39.03 96.81 C 39.30 97.16 39.85 97.86 40.13 98.21 C 38.72 99.43 37.16 100.47 35.82 101.78 C 33.32 104.44 30.98 107.25 28.64 110.05 C 27.02 111.18 29.35 112.01 29.99 112.94 C 28.65 113.06 27.32 113.19 25.98 113.32 L 25.26 112.78 C 26.81 108.51 30.66 105.61 33.31 102.04 Z" />
</g>
<g id="#afadc8ff">
<path fill="#afadc8" opacity="1.00" d=" M 40.13 98.21 C 43.33 97.97 46.54 98.06 49.75 98.10 C 49.93 99.90 51.66 99.98 53.06 100.39 C 52.52 101.19 51.82 101.67 50.95 101.85 C 46.81 101.13 44.13 104.23 40.96 106.02 C 39.00 104.94 37.37 103.37 35.82 101.78 C 37.16 100.47 38.72 99.43 40.13 98.21 Z" />
</g>
<g id="#a5a0b6ff">
<path fill="#a5a0b6" opacity="1.00" d=" M 70.25 97.92 C 71.87 98.84 73.68 101.73 75.56 99.86 C 77.31 100.70 78.70 102.08 79.72 103.72 C 78.05 106.39 81.73 107.75 83.21 109.37 C 79.51 109.99 77.04 105.62 73.97 103.91 C 71.42 106.99 67.41 108.38 65.07 111.65 C 65.61 111.99 66.70 112.66 67.24 113.00 C 61.26 116.86 53.94 117.59 47.02 118.13 C 42.13 118.98 37.24 120.22 32.22 119.84 C 29.83 118.29 23.24 118.12 24.80 114.19 C 25.09 113.97 25.69 113.54 25.98 113.32 C 27.32 113.19 28.65 113.06 29.99 112.94 C 29.35 112.01 27.02 111.18 28.64 110.05 C 31.08 110.97 33.51 111.94 35.99 112.73 C 38.59 112.10 41.08 110.86 43.82 111.06 C 43.84 115.27 49.41 112.40 51.59 111.15 C 56.34 114.36 58.91 106.11 63.80 107.40 C 66.97 105.14 70.33 102.13 70.25 97.92 Z" />
</g>
<g id="#7a7a8cfb">
<path fill="#7a7a8c" opacity="1.00" d=" M 89.02 101.29 C 89.52 100.17 90.06 99.07 90.62 97.98 L 91.01 98.93 C 91.29 103.26 99.61 98.44 97.84 102.84 C 94.65 104.95 90.77 105.71 87.35 107.38 C 86.27 108.90 85.37 110.65 88.19 110.40 C 87.18 110.60 86.16 110.74 85.14 110.81 C 84.51 110.31 83.86 109.83 83.21 109.37 C 81.73 107.75 78.05 106.39 79.72 103.72 C 80.01 103.99 80.60 104.53 80.89 104.80 C 82.23 105.96 83.56 107.16 85.03 108.16 C 85.91 107.41 86.44 106.35 87.07 105.40 C 87.89 104.12 88.51 102.72 89.02 101.29 Z" />
</g>
<g id="#7a7e92fc">
<path fill="#7a7e92" opacity="1.00" d=" M 122.77 103.18 C 123.64 101.71 124.52 100.24 125.60 98.91 C 127.88 103.29 135.30 103.31 134.34 109.21 C 134.04 109.44 133.44 109.91 133.15 110.15 C 128.37 110.09 123.60 110.03 118.82 110.14 C 116.60 108.93 114.60 107.38 112.63 105.80 C 113.76 105.01 114.88 105.62 115.94 106.18 C 119.04 107.71 122.52 109.35 125.96 107.84 C 126.66 105.46 124.20 104.47 122.77 103.18 Z" />
</g>
<g id="#4e4e64ff">
<path fill="#4e4e64" opacity="1.00" d=" M 110.97 101.19 C 111.47 101.13 112.49 101.02 113.00 100.96 C 114.67 101.39 116.32 101.88 118.00 102.26 C 115.61 102.34 113.21 102.77 110.86 102.23 L 110.97 101.19 Z" />
</g>
<g id="#8e8ba4ff">
<path fill="#8e8ba4" opacity="1.00" d=" M 158.99 105.67 C 164.35 104.14 169.71 102.63 175.02 100.95 C 174.77 101.91 174.51 102.86 174.26 103.82 C 170.12 105.02 166.13 106.83 161.82 107.33 C 160.22 106.84 155.41 107.81 157.58 105.06 C 157.94 105.21 158.64 105.52 158.99 105.67 Z" />
</g>
<g id="#5f6279f3">
<path fill="#5f6279" opacity="0.95" d=" M 110.10 102.09 L 110.86 102.23 C 113.21 102.77 115.61 102.34 118.00 102.26 C 118.50 102.46 119.51 102.85 120.01 103.05 L 119.90 103.83 C 116.68 103.02 118.46 106.39 115.94 106.18 C 114.88 105.62 113.76 105.01 112.63 105.80 C 111.44 105.03 110.23 104.29 108.96 103.68 C 109.24 103.28 109.82 102.49 110.10 102.09 Z" />
</g>
<g id="#9797aefc">
<path fill="#9797ae" opacity="1.00" d=" M 181.18 102.08 C 181.92 102.01 183.40 101.85 184.14 101.77 C 185.18 102.02 186.21 102.29 187.23 102.59 C 186.87 102.92 186.14 103.57 185.78 103.89 C 182.25 101.71 185.46 106.28 185.85 107.97 C 181.28 110.64 173.69 110.04 171.88 115.90 C 170.89 116.72 169.89 117.54 168.88 118.34 C 167.45 117.87 166.05 117.33 164.67 116.75 C 166.93 115.44 169.09 113.97 171.18 112.40 C 173.29 111.36 175.46 110.46 177.63 109.54 C 180.50 108.26 180.40 104.67 181.18 102.08 Z" />
</g>
<g id="#6f748aff">
<path fill="#6f748a" opacity="1.00" d=" M 119.90 103.83 C 120.87 103.68 121.83 103.46 122.77 103.18 C 124.20 104.47 126.66 105.46 125.96 107.84 C 122.52 109.35 119.04 107.71 115.94 106.18 C 118.46 106.39 116.68 103.02 119.90 103.83 Z" />
</g>
<g id="#77758fff">
<path fill="#77758f" opacity="1.00" d=" M 185.85 107.97 C 185.46 106.28 182.25 101.71 185.78 103.89 C 186.02 104.19 186.50 104.80 186.75 105.10 C 187.63 106.86 188.81 108.45 190.01 110.00 L 189.03 109.91 C 188.47 109.74 187.35 109.41 186.78 109.25 C 185.89 109.49 185.01 109.78 184.15 110.11 C 179.93 111.75 175.78 113.60 171.88 115.90 C 173.69 110.04 181.28 110.64 185.85 107.97 Z" />
</g>
<g id="#e8e3dbf4">
<path fill="#e8e3db" opacity="0.96" d=" M 185.78 103.89 C 186.14 103.57 186.87 102.92 187.23 102.59 C 196.08 105.25 202.19 113.26 206.42 121.02 C 204.72 122.52 201.84 122.44 200.99 120.10 C 199.07 116.20 197.54 110.60 193.19 108.98 C 191.12 107.55 189.11 106.01 186.75 105.10 C 186.50 104.80 186.02 104.19 185.78 103.89 Z" />
</g>
<g id="#9c98adfd">
<path fill="#9c98ad" opacity="1.00" d=" M 65.07 111.65 C 67.41 108.38 71.42 106.99 73.97 103.91 C 77.04 105.62 79.51 109.99 83.21 109.37 C 83.86 109.83 84.51 110.31 85.14 110.81 C 84.01 112.18 83.00 113.62 81.93 115.03 C 78.28 113.67 74.71 112.01 70.90 111.15 C 69.57 110.61 68.76 111.86 68.00 112.68 L 67.24 113.00 C 66.70 112.66 65.61 111.99 65.07 111.65 Z" />
</g>
<g id="#7e7d95ff">
<path fill="#7e7d95" opacity="1.00" d=" M 161.82 107.33 C 166.13 106.83 170.12 105.02 174.26 103.82 C 173.83 110.30 165.97 108.73 161.82 107.33 Z" />
</g>
<g id="#837a8fff">
<path fill="#837a8f" opacity="1.00" d=" M 43.82 111.06 C 49.10 111.71 52.88 107.41 57.16 105.02 C 56.77 108.03 53.39 109.07 51.59 111.15 C 49.41 112.40 43.84 115.27 43.82 111.06 Z" />
</g>
<g id="#b8b4c5ff">
<path fill="#b8b4c5" opacity="1.00" d=" M 186.75 105.10 C 189.11 106.01 191.12 107.55 193.19 108.98 C 192.86 109.28 192.20 109.90 191.87 110.21 C 191.40 110.16 190.48 110.06 190.01 110.00 C 188.81 108.45 187.63 106.86 186.75 105.10 Z" />
</g>
<g id="#797a88e1">
<path fill="#797a88" opacity="0.88" d=" M 9.81 114.87 C 7.60 112.64 6.30 108.98 7.81 105.93 C 8.71 108.00 10.19 109.67 12.07 110.91 C 11.25 112.19 10.44 113.48 9.81 114.87 Z" />
</g>
<g id="#6e7389fc">
<path fill="#6e7389" opacity="1.00" d=" M 155.19 108.07 C 160.83 107.93 166.03 110.43 171.18 112.40 C 169.09 113.97 166.93 115.44 164.67 116.75 C 163.08 117.34 162.06 118.71 161.20 120.09 C 161.40 115.86 155.22 119.68 153.90 116.12 C 153.70 113.38 152.83 110.20 155.19 108.07 Z" />
</g>
<g id="#a39eb5ff">
<path fill="#a39eb5" opacity="1.00" d=" M 184.15 110.11 C 185.01 109.78 185.89 109.49 186.78 109.25 C 187.17 112.37 190.41 114.57 189.93 117.81 C 188.32 120.89 182.57 117.36 184.16 121.71 C 186.00 122.26 187.88 122.70 189.71 123.31 C 191.67 126.14 193.90 130.00 191.26 133.10 C 191.70 135.29 191.82 137.44 189.94 139.01 C 187.27 138.87 184.67 138.18 182.00 137.96 C 179.89 134.49 179.53 130.51 181.78 127.02 C 177.17 121.50 185.32 115.99 184.15 110.11 Z" />
</g>
<g id="#aaa5bbff">
<path fill="#aaa5bb" opacity="1.00" d=" M 186.78 109.25 C 187.35 109.41 188.47 109.74 189.03 109.91 C 189.60 110.48 190.18 111.05 190.76 111.62 C 190.77 112.37 190.86 113.11 191.05 113.84 C 192.14 116.26 191.34 118.58 190.30 120.84 C 196.18 124.41 194.13 132.45 195.25 138.37 L 195.23 139.30 C 193.46 139.34 191.70 139.12 189.94 139.01 C 191.82 137.44 191.70 135.29 191.26 133.10 C 193.90 130.00 191.67 126.14 189.71 123.31 C 187.88 122.70 186.00 122.26 184.16 121.71 C 182.57 117.36 188.32 120.89 189.93 117.81 C 190.41 114.57 187.17 112.37 186.78 109.25 Z" />
</g>
<g id="#ded6d7ff">
<path fill="#ded6d7" opacity="1.00" d=" M 193.19 108.98 C 197.54 110.60 199.07 116.20 200.99 120.10 C 199.97 119.39 198.95 118.70 197.92 118.02 C 196.78 114.80 194.06 112.67 191.87 110.21 C 192.20 109.90 192.86 109.28 193.19 108.98 Z" />
</g>
<g id="#4f4f5892">
<path fill="#4f4f58" opacity="0.57" d=" M 118.82 110.14 C 123.60 110.03 128.37 110.09 133.15 110.15 C 128.92 112.34 123.24 110.84 118.82 110.14 Z" />
</g>
<g id="#9894acff">
<path fill="#9894ac" opacity="1.00" d=" M 171.88 115.90 C 175.78 113.60 179.93 111.75 184.15 110.11 C 185.32 115.99 177.17 121.50 181.78 127.02 C 179.53 130.51 179.89 134.49 182.00 137.96 C 180.70 137.96 179.39 137.96 178.09 137.96 C 177.58 137.70 176.55 137.17 176.04 136.90 C 174.45 131.12 172.02 125.60 170.52 119.80 C 170.86 118.46 171.46 117.21 171.88 115.90 Z" />
</g>
<g id="#9b95a9ff">
<path fill="#9b95a9" opacity="1.00" d=" M 189.03 109.91 L 190.01 110.00 C 190.48 110.06 191.40 110.16 191.87 110.21 C 194.06 112.67 196.78 114.80 197.92 118.02 C 195.54 115.87 193.22 113.67 190.76 111.62 C 190.18 111.05 189.60 110.48 189.03 109.91 Z" />
</g>
<g id="#5e5b6cf7">
<path fill="#5e5b6c" opacity="0.97" d=" M 68.00 112.68 C 68.76 111.86 69.57 110.61 70.90 111.15 C 74.71 112.01 78.28 113.67 81.93 115.03 C 80.52 115.27 77.70 115.75 76.29 115.99 C 74.90 114.97 73.53 113.94 72.09 113.02 C 71.44 115.77 71.47 118.56 71.85 121.36 C 71.18 122.25 70.15 122.77 69.22 123.35 C 69.19 121.57 69.23 119.79 69.39 118.01 C 70.98 114.87 70.52 113.10 68.00 112.68 Z" />
</g>
<g id="#c1bbceff">
<path fill="#c1bbce" opacity="1.00" d=" M 191.05 113.84 C 190.86 113.11 190.77 112.37 190.76 111.62 C 193.22 113.67 195.54 115.87 197.92 118.02 C 200.15 121.10 201.23 124.30 200.10 128.12 C 199.49 129.89 198.65 131.58 197.79 133.24 C 198.21 126.17 196.40 118.79 191.05 113.84 Z" />
</g>
<g id="#363246ff">
<path fill="#363246" opacity="1.00" d=" M 47.02 118.13 C 53.94 117.59 61.26 116.86 67.24 113.00 L 68.00 112.68 C 66.62 114.79 64.87 116.65 63.73 118.92 C 61.39 121.14 59.05 123.37 56.89 125.77 C 54.65 126.89 52.62 128.45 50.22 129.21 C 42.07 129.01 33.91 128.86 25.76 129.14 C 24.10 128.56 22.44 127.98 20.81 127.31 C 22.11 125.36 23.14 121.48 19.73 121.37 C 17.78 120.23 17.86 122.91 17.15 124.05 C 17.12 122.34 17.08 120.63 17.05 118.93 C 21.97 120.92 27.03 120.81 32.22 119.84 C 37.24 120.22 42.13 118.98 47.02 118.13 Z" />
</g>
<g id="#777895ff">
<path fill="#777895" opacity="1.00" d=" M 68.00 112.68 C 70.52 113.10 70.98 114.87 69.39 118.01 C 67.65 116.24 65.65 118.72 63.73 118.92 C 64.87 116.65 66.62 114.79 68.00 112.68 Z" />
</g>
<g id="#9997a8ff">
<path fill="#9997a8" opacity="1.00" d=" M 72.09 113.02 C 73.53 113.94 74.90 114.97 76.29 115.99 C 74.75 117.73 73.32 119.56 71.85 121.36 C 71.47 118.56 71.44 115.77 72.09 113.02 Z" />
</g>
<g id="#b5aec4ff">
<path fill="#b5aec4" opacity="1.00" d=" M 191.05 113.84 C 196.40 118.79 198.21 126.17 197.79 133.24 C 197.00 134.98 196.12 136.67 195.25 138.37 C 194.13 132.45 196.18 124.41 190.30 120.84 C 191.34 118.58 192.14 116.26 191.05 113.84 Z" />
</g>
<g id="#6d687dff">
<path fill="#6d687d" opacity="1.00" d=" M 168.88 118.34 C 169.89 117.54 170.89 116.72 171.88 115.90 C 171.46 117.21 170.86 118.46 170.52 119.80 C 172.02 125.60 174.45 131.12 176.04 136.90 L 175.10 137.38 C 172.16 131.37 170.23 124.88 168.88 118.34 Z" />
</g>
<g id="#9b97abfd">
<path fill="#9b97ab" opacity="1.00" d=" M 63.73 118.92 C 65.65 118.72 67.65 116.24 69.39 118.01 C 69.23 119.79 69.19 121.57 69.22 123.35 C 64.40 126.50 60.85 131.44 55.27 133.42 C 54.44 133.28 52.76 133.02 51.93 132.89 C 53.79 130.66 56.03 128.65 56.89 125.77 C 59.05 123.37 61.39 121.14 63.73 118.92 Z" />
</g>
<g id="#808195fc">
<path fill="#808195" opacity="1.00" d=" M 161.20 120.09 C 162.06 118.71 163.08 117.34 164.67 116.75 C 166.05 117.33 167.45 117.87 168.88 118.34 C 170.23 124.88 172.16 131.37 175.10 137.38 C 173.34 140.17 171.70 143.20 169.03 145.25 C 164.69 141.64 159.45 138.14 158.94 131.99 C 157.77 127.92 160.35 124.00 161.20 120.09 Z" />
</g>
<g id="#a69da7fc">
<path fill="#a69da7" opacity="1.00" d=" M 197.92 118.02 C 198.95 118.70 199.97 119.39 200.99 120.10 C 201.84 122.44 204.72 122.52 206.42 121.02 C 207.01 121.98 207.58 122.94 208.18 123.89 C 206.17 123.66 204.19 123.21 202.17 123.03 C 202.02 124.64 202.00 126.26 201.82 127.87 C 201.39 127.93 200.53 128.06 200.10 128.12 C 201.23 124.30 200.15 121.10 197.92 118.02 Z" />
</g>
<g id="#605f74e6">
<path fill="#605f74" opacity="0.90" d=" M 16.17 118.74 L 17.05 118.93 C 17.08 120.63 17.12 122.34 17.15 124.05 L 16.91 124.70 C 16.58 125.33 15.93 126.59 15.61 127.22 C 13.88 124.67 15.74 121.47 16.17 118.74 Z" />
</g>
<g id="#443d4fff">
<path fill="#443d4f" opacity="1.00" d=" M 17.15 124.05 C 17.86 122.91 17.78 120.23 19.73 121.37 C 23.14 121.48 22.11 125.36 20.81 127.31 C 19.80 126.91 18.79 126.50 17.79 126.08 C 17.57 125.74 17.13 125.04 16.91 124.70 L 17.15 124.05 Z" />
</g>
<g id="#d3cacafb">
<path fill="#d3caca" opacity="1.00" d=" M 202.17 123.03 C 204.19 123.21 206.17 123.66 208.18 123.89 C 211.36 127.86 212.54 134.13 209.40 138.44 C 206.78 135.58 203.59 133.34 200.64 130.86 C 201.07 129.88 201.46 128.88 201.82 127.87 C 202.00 126.26 202.02 124.64 202.17 123.03 Z" />
</g>
<g id="#7b7c91fa">
<path fill="#7b7c91" opacity="0.98" d=" M 15.61 127.22 C 15.93 126.59 16.58 125.33 16.91 124.70 C 17.13 125.04 17.57 125.74 17.79 126.08 C 20.15 130.00 24.91 131.81 27.26 135.81 C 31.13 130.59 38.72 132.41 44.27 130.31 C 45.76 130.04 48.74 129.49 50.22 129.21 C 52.62 128.45 54.65 126.89 56.89 125.77 C 56.03 128.65 53.79 130.66 51.93 132.89 C 52.76 133.02 54.44 133.28 55.27 133.42 C 49.00 135.64 42.60 137.60 36.10 139.09 C 34.28 139.16 30.63 139.30 28.81 139.37 C 23.60 136.38 18.79 132.32 15.61 127.22 Z" />
</g>
<g id="#676d88ff">
<path fill="#676d88" opacity="1.00" d=" M 17.79 126.08 C 18.79 126.50 19.80 126.91 20.81 127.31 C 22.44 127.98 24.10 128.56 25.76 129.14 C 25.89 129.58 26.17 130.46 26.30 130.90 C 32.29 130.66 38.27 129.46 44.27 130.31 C 38.72 132.41 31.13 130.59 27.26 135.81 C 24.91 131.81 20.15 130.00 17.79 126.08 Z" />
</g>
<g id="#8c8598ff">
<path fill="#8c8598" opacity="1.00" d=" M 200.10 128.12 C 200.53 128.06 201.39 127.93 201.82 127.87 C 201.46 128.88 201.07 129.88 200.64 130.86 C 199.19 133.60 197.89 136.42 196.66 139.26 L 195.95 139.29 L 195.23 139.30 L 195.25 138.37 C 196.12 136.67 197.00 134.98 197.79 133.24 C 198.65 131.58 199.49 129.89 200.10 128.12 Z" />
</g>
<g id="#4e516fff">
<path fill="#4e516f" opacity="1.00" d=" M 25.76 129.14 C 33.91 128.86 42.07 129.01 50.22 129.21 C 48.74 129.49 45.76 130.04 44.27 130.31 C 38.27 129.46 32.29 130.66 26.30 130.90 C 26.17 130.46 25.89 129.58 25.76 129.14 Z" />
</g>
<g id="#b6afbbfe">
<path fill="#b6afbb" opacity="1.00" d=" M 196.66 139.26 C 197.89 136.42 199.19 133.60 200.64 130.86 C 203.59 133.34 206.78 135.58 209.40 138.44 C 208.75 139.43 208.05 140.41 207.13 141.18 C 204.43 138.19 200.26 139.39 196.66 139.26 Z" />
</g>
<g id="#565668fa">
<path fill="#565668" opacity="0.98" d=" M 175.10 137.38 L 176.04 136.90 C 176.55 137.17 177.58 137.70 178.09 137.96 L 177.85 138.71 C 177.29 139.05 176.17 139.72 175.62 140.06 C 174.42 140.99 173.78 142.42 172.88 143.60 C 172.08 144.50 171.30 145.41 170.52 146.33 C 170.15 146.06 169.41 145.52 169.03 145.25 C 171.70 143.20 173.34 140.17 175.10 137.38 Z" />
</g>
<g id="#777386ff">
<path fill="#777386" opacity="1.00" d=" M 178.09 137.96 C 179.39 137.96 180.70 137.96 182.00 137.96 C 184.67 138.18 187.27 138.87 189.94 139.01 C 191.70 139.12 193.46 139.34 195.23 139.30 L 195.95 139.29 C 195.96 139.73 195.99 140.61 196.01 141.05 C 189.87 141.04 183.84 139.92 177.85 138.71 L 178.09 137.96 Z" />
</g>
<g id="#26283170">
<path fill="#262831" opacity="0.44" d=" M 28.81 139.37 C 30.63 139.30 34.28 139.16 36.10 139.09 C 34.49 141.43 30.93 140.84 28.81 139.37 Z" />
</g>
<g id="#8e8da0fd">
<path fill="#8e8da0" opacity="1.00" d=" M 175.62 140.06 C 176.17 139.72 177.29 139.05 177.85 138.71 C 183.84 139.92 189.87 141.04 196.01 141.05 C 199.24 142.52 202.79 140.24 205.84 142.30 C 206.65 144.30 208.42 145.12 211.15 144.77 L 209.98 144.87 C 208.67 144.92 207.36 144.95 206.05 144.95 L 205.25 144.69 C 204.74 144.53 203.71 144.23 203.19 144.07 C 200.40 144.01 197.61 144.05 194.83 144.20 L 194.06 144.22 C 188.05 142.19 181.13 143.22 175.62 140.06 Z" />
</g>
<g id="#9f9dabfe">
<path fill="#9f9dab" opacity="1.00" d=" M 195.95 139.29 L 196.66 139.26 C 200.26 139.39 204.43 138.19 207.13 141.18 C 206.81 141.46 206.16 142.02 205.84 142.30 C 202.79 140.24 199.24 142.52 196.01 141.05 C 195.99 140.61 195.96 139.73 195.95 139.29 Z" />
</g>
<g id="#7f8094ff">
<path fill="#7f8094" opacity="1.00" d=" M 172.88 143.60 C 173.78 142.42 174.42 140.99 175.62 140.06 C 181.13 143.22 188.05 142.19 194.06 144.22 C 191.05 150.08 184.45 141.62 180.20 145.18 C 177.76 147.06 175.39 143.81 172.88 143.60 Z" />
</g>
<g id="#71768bfd">
<path fill="#71768b" opacity="1.00" d=" M 170.52 146.33 C 171.30 145.41 172.08 144.50 172.88 143.60 C 175.39 143.81 177.76 147.06 180.20 145.18 C 184.45 141.62 191.05 150.08 194.06 144.22 L 194.83 144.20 C 198.26 146.35 195.20 148.57 192.84 149.85 C 187.69 151.21 182.54 151.93 177.26 151.65 C 175.60 149.26 172.59 148.34 170.52 146.33 Z" />
</g>
<g id="#7c809eff">
<path fill="#7c809e" opacity="1.00" d=" M 194.83 144.20 C 197.61 144.05 200.40 144.01 203.19 144.07 C 202.70 146.04 201.85 147.89 201.18 149.80 C 199.95 153.65 195.07 151.99 192.84 149.85 C 195.20 148.57 198.26 146.35 194.83 144.20 Z" />
</g>
<g id="#68647cfe">
<path fill="#68647c" opacity="1.00" d=" M 203.19 144.07 C 203.71 144.23 204.74 144.53 205.25 144.69 C 201.32 148.67 204.99 153.28 206.78 157.33 C 207.27 158.49 207.79 159.65 208.30 160.81 C 207.93 161.30 207.19 162.27 206.82 162.75 L 205.99 163.13 C 201.44 165.43 195.37 166.27 193.74 171.84 L 192.81 171.85 L 192.75 170.80 C 193.40 169.57 194.16 168.40 194.76 167.14 C 190.95 163.89 188.06 158.02 181.91 159.90 C 178.60 160.17 174.55 162.47 174.59 166.21 C 174.18 164.54 173.92 162.84 173.96 161.13 C 176.70 160.11 179.43 159.09 182.21 158.20 C 188.45 156.40 191.45 163.28 195.98 165.92 C 199.65 164.35 203.19 162.50 206.77 160.74 C 206.27 159.44 205.63 158.20 205.01 156.96 C 203.82 154.53 202.57 152.12 201.18 149.80 C 201.85 147.89 202.70 146.04 203.19 144.07 Z" />
</g>
<g id="#9697b3ff">
<path fill="#9697b3" opacity="1.00" d=" M 205.25 144.69 L 206.05 144.95 C 206.95 146.82 207.75 148.74 208.44 150.70 C 208.14 152.96 207.85 155.27 206.78 157.33 C 204.99 153.28 201.32 148.67 205.25 144.69 Z" />
</g>
<g id="#bfbcc3ff">
<path fill="#bfbcc3" opacity="1.00" d=" M 206.05 144.95 C 207.36 144.95 208.67 144.92 209.98 144.87 C 210.89 150.34 213.73 155.36 212.93 161.11 C 208.60 159.10 211.38 153.72 208.44 150.70 C 207.75 148.74 206.95 146.82 206.05 144.95 Z" />
</g>
<g id="#e4dfd5fa">
<path fill="#e4dfd5" opacity="0.98" d=" M 209.98 144.87 L 211.15 144.77 C 211.81 144.89 213.13 145.13 213.79 145.25 C 215.04 150.45 216.05 155.71 216.86 161.00 C 215.74 163.32 214.28 163.17 212.93 161.11 C 213.73 155.36 210.89 150.34 209.98 144.87 Z" />
</g>
<g id="#8a8ba8fd">
<path fill="#8a8ba8" opacity="1.00" d=" M 177.26 151.65 C 182.54 151.93 187.69 151.21 192.84 149.85 C 195.07 151.99 199.95 153.65 201.18 149.80 C 202.57 152.12 203.82 154.53 205.01 156.96 C 203.95 157.51 203.02 159.07 201.70 158.25 C 198.30 156.65 194.33 158.77 190.99 157.02 C 188.36 155.83 185.79 154.52 183.16 153.34 C 181.30 154.25 178.85 155.50 178.93 157.89 C 179.75 157.97 181.39 158.12 182.21 158.20 C 179.43 159.09 176.70 160.11 173.96 161.13 C 173.51 157.58 175.73 154.62 177.26 151.65 Z" />
</g>
<g id="#a5a2b7ff">
<path fill="#a5a2b7" opacity="1.00" d=" M 208.44 150.70 C 211.38 153.72 208.60 159.10 212.93 161.11 C 213.20 164.15 213.21 167.22 213.70 170.23 C 213.56 171.67 213.04 173.05 212.33 174.31 C 209.66 173.79 206.97 173.37 204.25 173.60 C 201.53 172.65 204.95 169.43 206.85 169.62 C 206.72 167.44 206.15 165.31 205.99 163.13 L 206.82 162.75 C 208.51 163.95 209.86 165.87 212.08 166.10 C 212.05 163.68 209.73 162.43 208.30 160.81 C 207.79 159.65 207.27 158.49 206.78 157.33 C 207.85 155.27 208.14 152.96 208.44 150.70 Z" />
</g>
<g id="#9694b0ff">
<path fill="#9694b0" opacity="1.00" d=" M 183.16 153.34 C 185.79 154.52 188.36 155.83 190.99 157.02 C 194.33 158.77 198.30 156.65 201.70 158.25 C 203.02 159.07 203.95 157.51 205.01 156.96 C 205.63 158.20 206.27 159.44 206.77 160.74 C 203.19 162.50 199.65 164.35 195.98 165.92 C 191.45 163.28 188.45 156.40 182.21 158.20 C 181.39 158.12 179.75 157.97 178.93 157.89 C 178.85 155.50 181.30 154.25 183.16 153.34 Z" />
</g>
<g id="#8c8a9eff">
<path fill="#8c8a9e" opacity="1.00" d=" M 174.59 166.21 C 174.55 162.47 178.60 160.17 181.91 159.90 C 181.74 160.40 181.40 161.41 181.23 161.91 C 184.77 165.16 188.57 168.11 192.13 171.35 C 191.89 173.31 191.46 175.24 190.91 177.14 C 190.03 172.83 184.88 173.03 181.69 171.24 C 179.60 170.05 177.24 170.94 175.00 171.04 C 174.93 169.42 174.81 167.81 174.59 166.21 Z" />
</g>
<g id="#9a96acff">
<path fill="#9a96ac" opacity="1.00" d=" M 181.91 159.90 C 188.06 158.02 190.95 163.89 194.76 167.14 C 194.16 168.40 193.40 169.57 192.75 170.80 L 192.13 171.35 C 188.57 168.11 184.77 165.16 181.23 161.91 C 181.40 161.41 181.74 160.40 181.91 159.90 Z" />
</g>
<g id="#84819bff">
<path fill="#84819b" opacity="1.00" d=" M 208.30 160.81 C 209.73 162.43 212.05 163.68 212.08 166.10 C 209.86 165.87 208.51 163.95 206.82 162.75 C 207.19 162.27 207.93 161.30 208.30 160.81 Z" />
</g>
<g id="#b3aeb6fb">
<path fill="#b3aeb6" opacity="1.00" d=" M 212.93 161.11 C 214.28 163.17 215.74 163.32 216.86 161.00 C 217.10 163.31 216.37 165.55 215.93 167.79 C 215.16 168.58 214.42 169.39 213.70 170.23 C 213.21 167.22 213.20 164.15 212.93 161.11 Z" />
</g>
<g id="#9d99aeff">
<path fill="#9d99ae" opacity="1.00" d=" M 193.74 171.84 C 195.37 166.27 201.44 165.43 205.99 163.13 C 206.15 165.31 206.72 167.44 206.85 169.62 C 204.95 169.43 201.53 172.65 204.25 173.60 C 206.97 173.37 209.66 173.79 212.33 174.31 C 210.70 177.06 205.94 179.47 203.22 176.76 C 200.38 174.54 197.01 173.25 193.74 171.84 Z" />
</g>
<g id="#8b899bfd">
<path fill="#8b899b" opacity="1.00" d=" M 213.70 170.23 C 214.42 169.39 215.16 168.58 215.93 167.79 C 215.39 171.90 214.52 175.95 213.96 180.06 C 211.27 176.76 207.13 180.06 203.91 180.81 C 202.54 181.42 201.28 182.25 199.93 182.92 C 195.80 180.49 190.89 177.64 192.81 171.85 L 193.74 171.84 C 197.01 173.25 200.38 174.54 203.22 176.76 C 205.94 179.47 210.70 177.06 212.33 174.31 C 213.04 173.05 213.56 171.67 213.70 170.23 Z" />
</g>
<g id="#7e8094fc">
<path fill="#7e8094" opacity="1.00" d=" M 175.00 171.04 C 177.24 170.94 179.60 170.05 181.69 171.24 C 184.88 173.03 190.03 172.83 190.91 177.14 L 190.71 177.82 C 185.81 177.29 180.89 176.95 175.95 177.01 C 174.70 175.27 175.11 173.04 175.00 171.04 Z" />
</g>
<g id="#5b5b6efe">
<path fill="#5b5b6e" opacity="1.00" d=" M 192.13 171.35 L 192.75 170.80 L 192.81 171.85 C 190.89 177.64 195.80 180.49 199.93 182.92 C 201.28 182.25 202.54 181.42 203.91 180.81 C 201.82 183.52 199.48 186.08 197.86 189.12 C 197.36 188.89 196.37 188.41 195.87 188.17 C 197.99 186.83 201.26 182.70 196.11 181.87 C 194.12 178.97 190.87 178.92 187.83 179.03 C 184.49 178.94 181.00 177.44 177.73 178.72 C 176.94 178.34 176.35 177.77 175.95 177.01 C 180.89 176.95 185.81 177.29 190.71 177.82 L 190.91 177.14 C 191.46 175.24 191.89 173.31 192.13 171.35 Z" />
</g>
<g id="#80869bfd">
<path fill="#80869b" opacity="1.00" d=" M 177.73 178.72 C 181.00 177.44 184.49 178.94 187.83 179.03 C 190.42 181.16 193.69 182.79 195.08 186.02 C 193.27 185.67 191.55 184.43 189.66 184.82 C 188.07 184.48 186.62 183.72 185.22 182.92 C 182.82 181.35 180.21 180.15 177.73 178.72 Z" />
</g>
<g id="#656676f8">
<path fill="#656676" opacity="0.97" d=" M 203.91 180.81 C 207.13 180.06 211.27 176.76 213.96 180.06 C 213.84 181.06 213.68 182.06 213.50 183.05 C 210.88 180.61 207.24 181.03 203.91 180.81 Z" />
</g>
<g id="#72768dfe">
<path fill="#72768d" opacity="1.00" d=" M 187.83 179.03 C 190.87 178.92 194.12 178.97 196.11 181.87 C 201.26 182.70 197.99 186.83 195.87 188.17 C 195.50 188.25 194.75 188.39 194.38 188.46 C 192.27 193.29 189.98 198.04 187.70 202.80 C 186.96 204.71 185.78 206.65 186.10 208.78 C 188.93 212.12 193.55 213.93 195.03 218.30 C 193.42 219.36 191.60 220.03 189.86 220.83 C 188.90 220.10 187.99 219.30 187.15 218.43 C 186.83 215.27 184.23 213.00 181.96 211.01 C 181.22 210.31 180.50 209.59 179.81 208.84 C 179.67 208.28 179.38 207.17 179.24 206.61 C 179.22 206.15 179.17 205.22 179.15 204.76 C 180.57 206.45 181.70 208.36 183.00 210.14 C 182.79 208.47 182.40 206.83 182.13 205.17 C 185.21 206.71 185.81 203.39 186.87 201.24 C 188.97 196.13 194.69 189.91 189.66 184.82 C 191.55 184.43 193.27 185.67 195.08 186.02 C 193.69 182.79 190.42 181.16 187.83 179.03 Z" />
</g>
<g id="#75798ffd">
<path fill="#75798f" opacity="1.00" d=" M 203.91 180.81 C 207.24 181.03 210.88 180.61 213.50 183.05 C 213.44 183.44 213.33 184.22 213.27 184.61 C 207.80 183.65 202.95 187.81 197.86 189.12 C 199.48 186.08 201.82 183.52 203.91 180.81 Z" />
</g>
<g id="#9594a7fb">
<path fill="#9594a7" opacity="1.00" d=" M 185.22 182.92 C 186.62 183.72 188.07 184.48 189.66 184.82 C 194.69 189.91 188.97 196.13 186.87 201.24 C 184.23 200.33 186.22 195.31 183.21 196.17 C 181.98 198.16 180.70 200.13 179.40 202.07 C 178.97 200.96 178.54 199.86 178.10 198.77 C 176.79 192.20 181.34 187.40 185.22 182.92 Z" />
</g>
<g id="#a3a1bbfe">
<path fill="#a3a1bb" opacity="1.00" d=" M 197.86 189.12 C 202.95 187.81 207.80 183.65 213.27 184.61 C 213.55 185.20 214.10 186.39 214.37 186.98 C 209.97 189.62 204.45 195.24 199.03 191.67 C 198.66 190.81 198.27 189.96 197.86 189.12 Z" />
</g>
<g id="#7b778ffb">
<path fill="#7b778f" opacity="1.00" d=" M 214.37 186.98 C 214.54 187.46 214.89 188.42 215.06 188.90 C 211.80 190.77 208.49 192.56 205.18 194.34 C 204.48 198.00 205.37 201.58 205.98 205.15 C 201.91 203.15 205.72 197.14 203.10 194.69 C 201.72 193.70 196.51 193.94 199.03 191.67 C 204.45 195.24 209.97 189.62 214.37 186.98 Z" />
</g>
<g id="#9692a9ff">
<path fill="#9692a9" opacity="1.00" d=" M 194.38 188.46 C 194.75 188.39 195.50 188.25 195.87 188.17 C 196.37 188.41 197.36 188.89 197.86 189.12 C 198.27 189.96 198.66 190.81 199.03 191.67 C 196.51 193.94 201.72 193.70 203.10 194.69 C 199.34 194.49 199.67 199.26 196.48 200.54 C 195.27 204.84 198.53 209.64 200.98 213.27 C 199.78 214.20 198.52 215.04 197.31 215.96 C 197.36 212.84 194.55 211.25 192.47 209.47 C 190.65 207.42 189.24 205.06 187.70 202.80 C 189.98 198.04 192.27 193.29 194.38 188.46 Z" />
</g>
<g id="#b0aab9fa">
<path fill="#b0aab9" opacity="0.98" d=" M 205.18 194.34 C 208.49 192.56 211.80 190.77 215.06 188.90 C 216.33 192.89 217.61 196.92 220.00 200.42 L 220.00 202.79 C 219.11 203.97 218.22 205.15 217.18 206.20 C 214.10 201.57 209.35 209.29 205.98 205.15 C 205.37 201.58 204.48 198.00 205.18 194.34 Z" />
</g>
<g id="#a09bb0ff">
<path fill="#a09bb0" opacity="1.00" d=" M 196.48 200.54 C 199.67 199.26 199.34 194.49 203.10 194.69 C 205.72 197.14 201.91 203.15 205.98 205.15 C 208.21 208.89 203.14 210.90 200.98 213.27 C 198.53 209.64 195.27 204.84 196.48 200.54 Z" />
</g>
<g id="#868699fa">
<path fill="#868699" opacity="0.98" d=" M 183.21 196.17 C 186.22 195.31 184.23 200.33 186.87 201.24 C 185.81 203.39 185.21 206.71 182.13 205.17 C 182.40 206.83 182.79 208.47 183.00 210.14 C 181.70 208.36 180.57 206.45 179.15 204.76 C 178.34 202.86 177.90 200.84 178.10 198.77 C 178.54 199.86 178.97 200.96 179.40 202.07 C 180.70 200.13 181.98 198.16 183.21 196.17 Z" />
</g>
<g id="#88879dff">
<path fill="#88879d" opacity="1.00" d=" M 186.10 208.78 C 185.78 206.65 186.96 204.71 187.70 202.80 C 189.24 205.06 190.65 207.42 192.47 209.47 C 194.55 211.25 197.36 212.84 197.31 215.96 L 197.40 216.72 C 196.81 217.12 195.62 217.91 195.03 218.30 C 193.55 213.93 188.93 212.12 186.10 208.78 Z" />
</g>
<g id="#7d7d92fe">
<path fill="#7d7d92" opacity="1.00" d=" M 205.98 205.15 C 209.35 209.29 214.10 201.57 217.18 206.20 C 216.94 206.44 216.48 206.92 216.24 207.17 C 212.82 204.61 209.30 208.87 206.23 210.19 C 204.07 211.42 205.41 214.29 205.20 216.28 C 204.66 216.48 203.58 216.89 203.04 217.09 C 201.36 217.46 202.20 219.94 201.68 221.19 C 201.07 220.13 200.48 219.06 199.80 218.05 C 197.75 218.47 198.52 220.33 199.85 221.15 C 197.65 222.37 195.26 223.28 192.70 222.82 C 193.62 220.35 197.80 219.56 197.40 216.72 L 197.31 215.96 C 198.52 215.04 199.78 214.20 200.98 213.27 C 203.14 210.90 208.21 208.89 205.98 205.15 Z" />
</g>
<g id="#9798a5f5">
<path fill="#9798a5" opacity="0.96" d=" M 206.23 210.19 C 209.30 208.87 212.82 204.61 216.24 207.17 C 212.76 210.43 210.01 214.93 205.20 216.28 C 205.41 214.29 204.07 211.42 206.23 210.19 Z" />
</g>
<g id="#d7d0cbf9">
<path fill="#d7d0cb" opacity="0.98" d=" M 172.68 209.82 C 174.43 208.00 176.98 207.51 179.24 206.61 C 179.38 207.17 179.67 208.28 179.81 208.84 C 177.89 209.78 176.21 211.10 174.36 212.17 C 173.94 211.58 173.10 210.41 172.68 209.82 Z" />
</g>
<g id="#a39fb4fe">
<path fill="#a39fb4" opacity="1.00" d=" M 174.36 212.17 C 176.21 211.10 177.89 209.78 179.81 208.84 C 180.50 209.59 181.22 210.31 181.96 211.01 C 182.05 211.46 182.23 212.36 182.32 212.81 C 181.59 214.90 181.04 217.10 179.84 219.00 C 176.89 218.80 174.14 217.54 171.22 217.14 C 169.61 218.83 168.42 220.85 167.10 222.75 C 166.39 222.85 164.98 223.03 164.28 223.12 C 163.07 221.64 162.49 218.01 160.01 219.66 C 158.24 219.72 154.69 219.85 152.91 219.91 C 157.18 217.31 162.98 218.70 167.75 217.81 C 167.83 217.34 167.98 216.41 168.06 215.94 C 168.32 215.46 168.84 214.51 169.11 214.03 C 170.70 214.68 175.87 215.93 174.17 212.80 L 174.36 212.17 Z" />
</g>
<g id="#bdb2b3f5">
<path fill="#bdb2b3" opacity="0.96" d=" M 170.60 211.89 C 171.19 211.10 171.88 210.41 172.68 209.82 C 173.10 210.41 173.94 211.58 174.36 212.17 L 174.17 212.80 C 172.74 213.20 171.56 212.90 170.60 211.89 Z" />
</g>
<g id="#646379ff">
<path fill="#646379" opacity="1.00" d=" M 181.96 211.01 C 184.23 213.00 186.83 215.27 187.15 218.43 C 186.04 217.50 184.93 216.58 183.82 215.66 C 183.32 214.70 182.82 213.75 182.32 212.81 C 182.23 212.36 182.05 211.46 181.96 211.01 Z" />
</g>
<g id="#827f88f2">
<path fill="#827f88" opacity="0.95" d=" M 169.11 214.03 C 169.55 213.28 170.05 212.57 170.60 211.89 C 171.56 212.90 172.74 213.20 174.17 212.80 C 175.87 215.93 170.70 214.68 169.11 214.03 Z" />
</g>
<g id="#9795abff">
<path fill="#9795ab" opacity="1.00" d=" M 182.32 212.81 C 182.82 213.75 183.32 214.70 183.82 215.66 C 183.50 218.11 183.04 220.64 183.57 223.11 C 182.60 223.14 181.67 223.34 180.77 223.70 C 180.38 223.93 179.59 224.40 179.20 224.63 C 177.45 226.31 175.29 228.13 173.88 225.08 C 173.93 223.35 173.99 221.62 173.92 219.89 C 172.28 220.47 169.47 220.59 170.05 223.05 C 170.54 226.32 168.41 223.47 167.10 222.75 C 168.42 220.85 169.61 218.83 171.22 217.14 C 174.14 217.54 176.89 218.80 179.84 219.00 C 181.04 217.10 181.59 214.90 182.32 212.81 Z" />
</g>
<g id="#e1dad1ee">
<path fill="#e1dad1" opacity="0.93" d=" M 149.71 221.82 C 152.39 214.77 161.68 212.47 168.06 215.94 C 167.98 216.41 167.83 217.34 167.75 217.81 C 162.98 218.70 157.18 217.31 152.91 219.91 C 152.68 220.18 152.20 220.71 151.97 220.98 C 151.40 221.19 150.28 221.61 149.71 221.82 Z" />
</g>
<g id="#cac2c2eb">
<path fill="#cac2c2" opacity="0.92" d=" M 129.52 220.00 C 132.97 215.98 139.32 215.50 143.42 218.86 C 138.62 216.64 133.85 221.71 129.52 220.00 Z" />
</g>
<g id="#80809fff">
<path fill="#80809f" opacity="1.00" d=" M 183.57 223.11 C 183.04 220.64 183.50 218.11 183.82 215.66 C 184.93 216.58 186.04 217.50 187.15 218.43 C 187.99 219.30 188.90 220.10 189.86 220.83 C 191.48 221.75 191.28 223.96 189.81 224.92 C 187.66 224.61 185.59 223.88 183.57 223.11 Z" />
</g>
<g id="#636076fc">
<path fill="#636076" opacity="1.00" d=" M 195.03 218.30 C 195.62 217.91 196.81 217.12 197.40 216.72 C 197.80 219.56 193.62 220.35 192.70 222.82 C 189.84 226.56 190.76 235.25 196.22 235.41 C 194.64 236.29 192.92 236.83 191.15 237.16 C 191.00 233.82 190.46 230.52 189.80 227.26 C 187.42 224.91 183.76 224.88 180.77 223.70 C 181.67 223.34 182.60 223.14 183.57 223.11 C 185.59 223.88 187.66 224.61 189.81 224.92 C 191.28 223.96 191.48 221.75 189.86 220.83 C 191.60 220.03 193.42 219.36 195.03 218.30 Z" />
</g>
<g id="#9e9ea1e4">
<path fill="#9e9ea1" opacity="0.89" d=" M 201.68 221.19 C 202.20 219.94 201.36 217.46 203.04 217.09 C 203.73 219.42 204.14 221.83 203.93 224.27 C 203.08 223.32 202.24 222.35 201.68 221.19 Z" />
</g>
<g id="#67667cf4">
<path fill="#67667c" opacity="0.96" d=" M 199.85 221.15 C 198.52 220.33 197.75 218.47 199.80 218.05 C 200.48 219.06 201.07 220.13 201.68 221.19 C 202.24 222.35 203.08 223.32 203.93 224.27 C 203.99 225.28 203.82 226.24 203.44 227.17 C 203.11 226.55 202.45 225.32 202.12 224.70 C 201.40 223.49 200.70 222.27 199.85 221.15 Z" />
</g>
<g id="#918c9cf8">
<path fill="#918c9c" opacity="0.97" d=" M 129.52 220.00 C 133.85 221.71 138.62 216.64 143.42 218.86 C 137.70 219.47 132.60 222.67 126.89 223.02 C 127.70 221.95 128.55 220.93 129.52 220.00 Z" />
</g>
<g id="#aaa7bdfe">
<path fill="#aaa7bd" opacity="1.00" d=" M 143.42 218.86 C 143.87 219.15 144.79 219.73 145.24 220.03 C 143.07 221.98 141.30 224.61 138.37 225.45 C 135.78 226.07 134.93 228.78 133.75 230.84 C 132.19 231.40 130.63 231.97 129.04 232.45 C 128.38 229.27 127.86 226.11 126.89 223.02 C 132.60 222.67 137.70 219.47 143.42 218.86 Z" />
</g>
<g id="#6f7086fa">
<path fill="#6f7086" opacity="0.98" d=" M 160.01 219.66 C 162.49 218.01 163.07 221.64 164.28 223.12 C 163.13 225.48 160.41 227.29 160.06 229.92 C 161.24 232.18 162.61 234.35 164.11 236.41 C 165.16 237.79 166.50 238.92 167.80 240.08 C 168.32 241.07 168.81 242.08 169.26 243.11 C 169.24 243.63 169.22 244.66 169.20 245.18 C 168.39 246.12 167.56 247.06 166.75 248.00 L 162.46 248.00 C 158.10 246.26 153.01 245.99 149.77 242.16 C 149.88 240.71 149.98 239.26 150.07 237.82 C 155.28 237.98 158.01 243.20 162.79 244.39 C 164.57 245.07 167.52 247.20 168.02 244.02 C 166.77 241.73 165.21 239.57 163.14 237.95 C 161.66 235.36 160.30 232.70 158.59 230.25 C 156.70 231.40 152.24 228.49 150.62 230.88 C 149.82 231.99 150.00 233.48 149.68 234.77 C 149.13 237.17 148.60 239.61 148.09 242.04 C 146.55 244.09 144.81 246.44 141.91 246.12 C 142.65 245.42 143.38 244.71 144.09 243.98 C 140.02 244.35 135.66 245.29 131.83 243.30 C 137.22 242.60 142.26 240.57 146.94 237.89 C 148.47 237.22 147.94 234.98 148.50 233.63 C 146.52 226.78 152.99 229.89 156.28 228.37 C 159.00 227.77 161.03 225.79 162.92 223.87 C 162.05 222.40 161.01 221.04 160.01 219.66 Z" />
</g>
<g id="#cbc5c0f7">
<path fill="#cbc5c0" opacity="0.97" d=" M 114.02 221.24 C 116.58 220.02 119.29 219.90 121.23 222.24 C 119.22 221.65 113.70 225.00 114.02 221.24 Z" />
</g>
<g id="#9c9cb5fc">
<path fill="#9c9cb5" opacity="1.00" d=" M 145.24 220.03 C 146.62 220.87 147.89 222.61 149.71 221.82 C 150.28 221.61 151.40 221.19 151.97 220.98 C 151.61 222.09 151.22 223.18 150.80 224.27 L 149.98 224.13 C 147.64 223.23 143.90 223.14 143.19 226.13 C 142.43 228.60 139.94 229.67 138.04 231.12 C 136.61 231.02 135.18 230.93 133.75 230.84 C 134.93 228.78 135.78 226.07 138.37 225.45 C 141.30 224.61 143.07 221.98 145.24 220.03 Z" />
</g>
<g id="#c0bbc7ff">
<path fill="#c0bbc7" opacity="1.00" d=" M 151.97 220.98 C 152.20 220.71 152.68 220.18 152.91 219.91 C 154.69 219.85 158.24 219.72 160.01 219.66 C 158.13 222.85 154.53 224.89 150.80 224.27 C 151.22 223.18 151.61 222.09 151.97 220.98 Z" />
</g>
<g id="#afaabfff">
<path fill="#afaabf" opacity="1.00" d=" M 160.01 219.66 C 161.01 221.04 162.05 222.40 162.92 223.87 C 161.03 225.79 159.00 227.77 156.28 228.37 C 154.46 228.26 150.82 228.03 149.00 227.92 C 149.26 226.64 149.65 225.39 149.98 224.13 L 150.80 224.27 C 154.53 224.89 158.13 222.85 160.01 219.66 Z" />
</g>
<g id="#87869fff">
<path fill="#87869f" opacity="1.00" d=" M 170.05 223.05 C 169.47 220.59 172.28 220.47 173.92 219.89 C 173.99 221.62 173.93 223.35 173.88 225.08 C 172.09 223.17 170.94 225.51 169.91 226.92 C 171.36 227.99 175.15 231.49 171.08 230.36 C 169.23 233.25 168.59 236.78 167.80 240.08 C 166.50 238.92 165.16 237.79 164.11 236.41 C 165.94 232.10 166.75 227.39 167.10 222.75 C 168.41 223.47 170.54 226.32 170.05 223.05 Z" />
</g>
<g id="#a8a5b8fc">
<path fill="#a8a5b8" opacity="1.00" d=" M 112.85 221.75 C 113.14 221.62 113.73 221.36 114.02 221.24 C 113.70 225.00 119.22 221.65 121.23 222.24 C 121.87 222.69 122.51 223.16 123.13 223.64 C 120.30 225.07 118.30 227.85 114.87 228.23 C 111.47 227.41 112.47 224.38 112.85 221.75 Z" />
</g>
<g id="#87859cff">
<path fill="#87859c" opacity="1.00" d=" M 192.70 222.82 C 195.26 223.28 197.65 222.37 199.85 221.15 C 200.70 222.27 201.40 223.49 202.12 224.70 C 197.14 224.27 198.31 230.99 197.83 234.42 C 197.42 234.67 196.62 235.16 196.22 235.41 C 190.76 235.25 189.84 226.56 192.70 222.82 Z" />
</g>
<g id="#b9b4bef9">
<path fill="#b9b4be" opacity="0.98" d=" M 107.73 224.82 C 108.64 223.24 110.65 222.86 112.16 222.06 C 111.45 224.45 110.32 226.77 108.14 228.16 C 108.04 227.32 107.83 225.65 107.73 224.82 Z" />
</g>
<g id="#8b89a2f9">
<path fill="#8b89a2" opacity="0.98" d=" M 112.16 222.06 L 112.85 221.75 C 112.47 224.38 111.47 227.41 114.87 228.23 L 115.28 228.74 C 115.99 230.79 117.00 232.73 117.67 234.80 C 116.85 236.39 115.78 237.82 114.79 239.31 C 112.78 236.30 111.51 231.55 106.84 233.09 C 104.15 233.33 101.76 232.32 99.51 230.99 C 99.87 234.91 97.50 238.56 93.31 238.67 C 92.15 234.78 89.98 242.46 87.31 240.71 C 83.70 239.06 80.22 236.73 81.76 231.85 C 84.32 229.47 88.17 229.97 90.95 231.75 C 93.78 229.48 97.40 228.63 100.91 228.10 C 102.60 228.94 104.13 230.09 105.84 230.92 C 106.56 228.91 106.94 226.80 107.73 224.82 C 107.83 225.65 108.04 227.32 108.14 228.16 C 110.32 226.77 111.45 224.45 112.16 222.06 Z" />
</g>
<g id="#9392a8fb">
<path fill="#9392a8" opacity="1.00" d=" M 123.13 223.64 C 124.64 224.51 126.15 224.99 126.89 223.02 C 127.86 226.11 128.38 229.27 129.04 232.45 C 128.15 232.73 127.26 233.00 126.36 233.25 C 125.35 230.95 126.38 224.66 122.41 226.33 C 121.03 228.32 119.78 230.41 118.17 232.24 C 117.36 230.96 116.73 229.44 115.28 228.74 L 114.87 228.23 C 118.30 227.85 120.30 225.07 123.13 223.64 Z" />
</g>
<g id="#8b8ca6ff">
<path fill="#8b8ca6" opacity="1.00" d=" M 143.19 226.13 C 143.90 223.14 147.64 223.23 149.98 224.13 C 149.65 225.39 149.26 226.64 149.00 227.92 C 150.82 228.03 154.46 228.26 156.28 228.37 C 152.99 229.89 146.52 226.78 148.50 233.63 C 147.94 234.98 148.47 237.22 146.94 237.89 C 146.95 236.20 146.95 232.82 146.95 231.13 C 143.98 231.38 141.02 231.78 138.06 232.04 L 138.04 231.12 C 139.94 229.67 142.43 228.60 143.19 226.13 Z" />
</g>
<g id="#9692acff">
<path fill="#9692ac" opacity="1.00" d=" M 164.28 223.12 C 164.98 223.03 166.39 222.85 167.10 222.75 C 166.75 227.39 165.94 232.10 164.11 236.41 C 162.61 234.35 161.24 232.18 160.06 229.92 C 160.41 227.29 163.13 225.48 164.28 223.12 Z" />
</g>
<g id="#5d5d70f4">
<path fill="#5d5d70" opacity="0.96" d=" M 169.91 226.92 C 170.94 225.51 172.09 223.17 173.88 225.08 C 175.29 228.13 177.45 226.31 179.20 224.63 C 180.03 226.49 177.52 227.48 176.98 229.08 C 177.49 231.85 178.74 234.41 179.76 237.02 C 175.84 238.80 173.94 243.98 169.20 245.18 C 169.22 244.66 169.24 243.63 169.26 243.11 C 171.76 240.59 174.49 238.32 177.08 235.90 C 176.53 232.25 175.06 224.59 169.91 226.92 Z" />
</g>
<g id="#797a90fd">
<path fill="#797a90" opacity="1.00" d=" M 179.20 224.63 C 179.59 224.40 180.38 223.93 180.77 223.70 C 183.76 224.88 187.42 224.91 189.80 227.26 C 190.46 230.52 191.00 233.82 191.15 237.16 C 187.57 239.41 183.49 239.12 179.76 237.02 C 178.74 234.41 177.49 231.85 176.98 229.08 C 177.52 227.48 180.03 226.49 179.20 224.63 Z" />
</g>
<g id="#9b9aa9fd">
<path fill="#9b9aa9" opacity="1.00" d=" M 197.83 234.42 C 198.31 230.99 197.14 224.27 202.12 224.70 C 202.45 225.32 203.11 226.55 203.44 227.17 C 202.38 230.11 200.37 232.62 197.83 234.42 Z" />
</g>
<g id="#8084a0ff">
<path fill="#8084a0" opacity="1.00" d=" M 122.41 226.33 C 126.38 224.66 125.35 230.95 126.36 233.25 C 124.63 235.23 123.69 235.07 123.92 232.27 L 123.28 232.38 C 121.69 232.38 119.22 233.82 118.17 232.24 C 119.78 230.41 121.03 228.32 122.41 226.33 Z" />
</g>
<g id="#797c97ff">
<path fill="#797c97" opacity="1.00" d=" M 169.91 226.92 C 175.06 224.59 176.53 232.25 177.08 235.90 C 174.49 238.32 171.76 240.59 169.26 243.11 C 168.81 242.08 168.32 241.07 167.80 240.08 C 168.59 236.78 169.23 233.25 171.08 230.36 C 175.15 231.49 171.36 227.99 169.91 226.92 Z" />
</g>
<g id="#d8d2cef5">
<path fill="#d8d2ce" opacity="0.96" d=" M 53.77 233.16 C 58.98 227.69 67.61 228.50 74.06 231.16 C 73.97 234.75 67.79 232.20 65.94 230.08 C 63.97 233.38 60.02 233.33 56.69 234.38 C 55.71 233.98 54.73 233.58 53.77 233.16 Z" />
</g>
<g id="#686981f8">
<path fill="#686981" opacity="0.97" d=" M 115.28 228.74 C 116.73 229.44 117.36 230.96 118.17 232.24 C 119.22 233.82 121.69 232.38 123.28 232.38 C 120.67 235.01 116.52 236.47 116.85 240.98 C 116.70 241.57 116.40 242.77 116.25 243.37 C 112.93 245.18 110.49 241.46 107.97 239.91 C 104.32 243.91 97.73 247.05 93.20 242.78 C 90.93 240.66 89.51 245.52 87.03 245.03 C 82.42 248.00 81.09 240.37 77.18 243.10 L 77.23 242.20 C 80.51 240.64 77.21 237.50 74.84 237.17 C 77.05 237.38 80.66 235.76 79.26 233.12 C 80.11 232.72 80.94 232.30 81.76 231.85 C 80.22 236.73 83.70 239.06 87.31 240.71 C 89.98 242.46 92.15 234.78 93.31 238.67 C 97.50 238.56 99.87 234.91 99.51 230.99 C 101.76 232.32 104.15 233.33 106.84 233.09 C 109.43 235.82 111.90 238.70 114.82 241.09 C 114.81 240.65 114.80 239.75 114.79 239.31 C 115.78 237.82 116.85 236.39 117.67 234.80 C 117.00 232.73 115.99 230.79 115.28 228.74 M 101.21 234.10 C 99.93 236.47 98.26 238.52 95.89 239.87 C 98.28 240.15 100.68 240.46 103.07 240.79 C 102.78 239.80 102.47 238.82 102.14 237.85 C 103.93 237.71 106.08 241.65 106.44 238.35 C 108.32 235.41 103.48 233.72 101.21 234.10 Z" />
</g>
<g id="#a8a4bbfd">
<path fill="#a8a4bb" opacity="1.00" d=" M 56.69 234.38 C 60.02 233.33 63.97 233.38 65.94 230.08 C 67.79 232.20 73.97 234.75 74.06 231.16 C 75.81 231.76 77.55 232.40 79.26 233.12 C 80.66 235.76 77.05 237.38 74.84 237.17 C 72.36 236.92 69.33 236.41 69.63 239.88 C 63.91 243.79 66.36 237.74 63.84 237.09 C 61.44 236.20 58.73 236.05 56.69 234.38 Z" />
</g>
<g id="#9794abff">
<path fill="#9794ab" opacity="1.00" d=" M 150.62 230.88 C 152.24 228.49 156.70 231.40 158.59 230.25 C 160.30 232.70 161.66 235.36 163.14 237.95 C 158.13 237.78 154.75 233.26 150.62 230.88 Z" />
</g>
<g id="#797992ff">
<path fill="#797992" opacity="1.00" d=" M 129.04 232.45 C 130.63 231.97 132.19 231.40 133.75 230.84 C 135.18 230.93 136.61 231.02 138.04 231.12 L 138.06 232.04 L 138.05 232.96 C 135.21 233.83 125.86 231.33 126.97 237.08 C 127.16 238.13 127.39 239.18 127.66 240.22 C 124.03 240.29 120.46 242.06 116.85 240.98 C 116.52 236.47 120.67 235.01 123.28 232.38 L 123.92 232.27 C 123.69 235.07 124.63 235.23 126.36 233.25 C 127.26 233.00 128.15 232.73 129.04 232.45 Z" />
</g>
<g id="#5b5d75fa">
<path fill="#5b5d75" opacity="0.98" d=" M 138.06 232.04 C 141.02 231.78 143.98 231.38 146.95 231.13 C 146.95 232.82 146.95 236.20 146.94 237.89 C 142.26 240.57 137.22 242.60 131.83 243.30 C 130.21 242.82 126.40 240.45 127.02 243.81 C 124.26 240.49 119.72 243.78 116.25 243.37 C 116.40 242.77 116.70 241.57 116.85 240.98 C 120.46 242.06 124.03 240.29 127.66 240.22 C 134.06 243.94 140.91 239.56 146.17 235.91 C 144.84 233.07 141.96 232.65 139.12 232.98 L 138.05 232.96 L 138.06 232.04 Z" />
</g>
<g id="#808196ff">
<path fill="#808196" opacity="1.00" d=" M 149.68 234.77 C 150.00 233.48 149.82 231.99 150.62 230.88 C 154.75 233.26 158.13 237.78 163.14 237.95 C 165.21 239.57 166.77 241.73 168.02 244.02 C 167.52 247.20 164.57 245.07 162.79 244.39 C 158.01 243.20 155.28 237.98 150.07 237.82 C 149.97 237.06 149.78 235.53 149.68 234.77 Z" />
</g>
<g id="#928ea4fb">
<path fill="#928ea4" opacity="1.00" d=" M 47.09 234.09 C 49.49 234.08 52.23 235.90 53.77 233.16 C 54.73 233.58 55.71 233.98 56.69 234.38 C 58.73 236.05 61.44 236.20 63.84 237.09 C 66.36 237.74 63.91 243.79 69.63 239.88 C 69.33 236.41 72.36 236.92 74.84 237.17 C 77.21 237.50 80.51 240.64 77.23 242.20 C 69.87 240.96 62.50 244.11 55.24 242.99 L 54.93 242.15 C 55.11 240.10 54.12 238.50 52.47 237.39 C 50.37 239.20 47.16 238.85 44.77 240.35 C 42.75 239.96 41.32 238.37 42.17 236.29 C 43.77 235.47 45.37 234.63 47.09 234.09 Z" />
</g>
<g id="#7c7c95ff">
<path fill="#7c7c95" opacity="1.00" d=" M 106.84 233.09 C 111.51 231.55 112.78 236.30 114.79 239.31 C 114.80 239.75 114.81 240.65 114.82 241.09 C 111.90 238.70 109.43 235.82 106.84 233.09 Z" />
</g>
<g id="#9694abff">
<path fill="#9694ab" opacity="1.00" d=" M 126.97 237.08 C 125.86 231.33 135.21 233.83 138.05 232.96 L 139.12 232.98 C 139.48 239.30 130.93 239.56 126.97 237.08 Z" />
</g>
<g id="#82829dff">
<path fill="#82829d" opacity="1.00" d=" M 139.12 232.98 C 141.96 232.65 144.84 233.07 146.17 235.91 C 140.91 239.56 134.06 243.94 127.66 240.22 C 127.39 239.18 127.16 238.13 126.97 237.08 C 130.93 239.56 139.48 239.30 139.12 232.98 Z" />
</g>
<g id="#8283a1ff">
<path fill="#8283a1" opacity="1.00" d=" M 101.21 234.10 C 103.48 233.72 108.32 235.41 106.44 238.35 C 106.08 241.65 103.93 237.71 102.14 237.85 C 102.47 238.82 102.78 239.80 103.07 240.79 C 100.68 240.46 98.28 240.15 95.89 239.87 C 98.26 238.52 99.93 236.47 101.21 234.10 Z" />
</g>
<g id="#5a5d74ff">
<path fill="#5a5d74" opacity="1.00" d=" M 148.09 242.04 C 148.60 239.61 149.13 237.17 149.68 234.77 C 149.78 235.53 149.97 237.06 150.07 237.82 C 149.98 239.26 149.88 240.71 149.77 242.16 C 149.35 242.13 148.51 242.07 148.09 242.04 Z" />
</g>
<g id="#656475e2">
<path fill="#656475" opacity="0.89" d=" M 52.47 237.39 C 54.12 238.50 55.11 240.10 54.93 242.15 C 52.47 238.73 48.01 241.73 44.77 240.35 C 47.16 238.85 50.37 239.20 52.47 237.39 Z" />
</g>
<g id="#76768cf8">
<path fill="#76768c" opacity="0.97" d=" M 55.24 242.99 C 62.50 244.11 69.87 240.96 77.23 242.20 L 77.18 243.10 C 76.03 244.22 75.15 246.21 73.24 245.79 C 67.80 244.69 62.25 245.10 56.76 245.21 C 56.01 244.65 55.50 243.91 55.24 242.99 Z" />
</g>
<g id="#76798ef4">
<path fill="#76798e" opacity="0.96" d=" M 127.02 243.81 C 126.40 240.45 130.21 242.82 131.83 243.30 C 135.66 245.29 140.02 244.35 144.09 243.98 C 143.38 244.71 142.65 245.42 141.91 246.12 C 136.94 246.90 131.17 247.06 127.02 243.81 Z" />
</g>
<g id="#4e5264e3">
<path fill="#4e5264" opacity="0.89" d=" M 56.76 245.21 C 62.25 245.10 67.80 244.69 73.24 245.79 C 67.85 245.58 61.87 246.92 56.76 245.21 Z" />
</g>
</svg>
