<?xml version="1.0" encoding="UTF-8" ?>
<!DOCTYPE svg PUBLIC "-//W3C//DTD SVG 1.1//EN" "http://www.w3.org/Graphics/SVG/1.1/DTD/svg11.dtd">
<svg width="132pt" height="155pt" viewBox="0 0 132 155" version="1.1" xmlns="http://www.w3.org/2000/svg">
<g id="#f1ea43f9">
<path fill="#f1ea43" opacity="0.98" d=" M 35.89 16.78 C 35.66 14.51 38.61 14.02 40.34 14.38 C 42.73 15.36 46.32 14.07 48.21 16.42 C 45.99 17.80 43.44 18.23 40.85 17.99 C 39.31 17.15 37.70 15.99 35.89 16.78 Z" />
</g>
<g id="#987e2cf4">
<path fill="#987e2c" opacity="0.96" d=" M 35.89 16.78 C 37.70 15.99 39.31 17.15 40.85 17.99 L 41.24 18.55 C 40.71 18.90 39.65 19.60 39.12 19.95 C 38.86 20.21 38.35 20.74 38.09 21.00 C 37.27 19.64 36.53 18.23 35.89 16.78 Z" />
</g>
<g id="#fbd83cfe">
<path fill="#fbd83c" opacity="1.00" d=" M 48.21 16.42 C 49.56 15.88 50.48 18.25 51.31 19.12 C 50.33 21.37 48.48 23.03 46.94 24.89 L 46.19 25.12 C 45.45 24.08 44.70 23.04 43.95 22.02 C 43.11 20.82 42.17 19.69 41.24 18.55 L 40.85 17.99 C 43.44 18.23 45.99 17.80 48.21 16.42 Z" />
</g>
<g id="#9e8826d9">
<path fill="#9e8826" opacity="0.85" d=" M 100.03 16.95 C 99.93 13.75 106.61 16.75 108.97 16.06 C 108.99 16.55 109.03 17.54 109.05 18.04 C 108.36 17.99 106.98 17.87 106.29 17.82 C 104.72 17.60 101.59 17.17 100.03 16.95 Z" />
</g>
<g id="#fadd3dfe">
<path fill="#fadd3d" opacity="1.00" d=" M 86.99 21.30 C 91.50 19.90 94.65 15.23 100.03 16.95 C 101.59 17.17 104.72 17.60 106.29 17.82 C 105.14 18.26 103.99 18.67 102.82 19.04 C 98.14 20.02 94.41 23.24 90.61 25.95 C 88.88 28.30 91.36 31.53 91.88 34.10 C 93.91 38.57 91.96 43.36 89.50 47.19 C 87.93 44.44 85.16 43.62 82.16 43.71 C 77.49 42.26 75.98 47.63 75.17 51.06 C 76.76 51.02 78.34 50.87 79.91 50.67 C 80.15 50.94 80.64 51.50 80.88 51.77 C 76.31 53.84 71.61 55.69 66.68 56.69 C 61.61 57.78 57.79 61.92 52.61 62.56 C 48.39 63.41 44.10 62.89 39.92 62.14 C 44.01 73.75 38.80 85.76 34.57 96.63 C 34.17 96.78 33.37 97.07 32.96 97.22 C 31.43 95.47 29.53 97.40 27.97 98.03 C 27.87 93.00 29.32 88.13 30.34 83.25 C 30.62 81.74 31.16 78.71 31.43 77.20 C 31.77 75.87 32.09 74.53 32.42 73.20 C 32.76 72.18 33.10 71.17 33.43 70.15 C 33.80 69.16 34.17 68.17 34.53 67.18 C 34.73 66.68 35.13 65.67 35.33 65.17 C 36.48 62.47 37.33 59.28 34.82 57.04 C 30.89 56.82 27.98 60.85 23.88 60.03 C 25.13 58.30 26.63 56.78 28.10 55.24 C 31.40 55.00 36.76 57.77 39.20 55.26 C 39.65 54.16 40.08 53.05 40.46 51.92 C 41.44 53.22 42.04 54.74 42.93 56.09 C 46.04 57.22 50.60 57.43 54.28 57.36 C 64.90 53.67 74.28 45.92 80.31 36.33 C 82.55 32.35 80.19 26.53 83.33 23.29 C 87.71 24.14 88.93 23.48 86.99 21.30 Z" />
</g>
<g id="#fdf849fe">
<path fill="#fdf849" opacity="1.00" d=" M 53.99 20.96 C 64.14 16.01 76.79 17.02 86.99 21.30 C 88.93 23.48 87.71 24.14 83.33 23.29 C 80.19 26.53 82.55 32.35 80.31 36.33 C 74.28 45.92 64.90 53.67 54.28 57.36 C 53.24 56.79 52.19 56.23 51.14 55.68 C 49.00 54.29 45.30 53.50 43.85 56.07 L 42.93 56.09 C 42.04 54.74 41.44 53.22 40.46 51.92 C 40.08 53.05 39.65 54.16 39.20 55.26 C 38.71 47.14 39.46 38.45 43.36 31.17 C 44.47 29.03 45.64 26.92 46.94 24.89 C 48.48 23.03 50.33 21.37 51.31 19.12 C 52.22 19.71 52.98 20.54 53.99 20.96 M 45.99 47.99 L 46.02 48.94 C 51.21 48.80 56.32 48.96 61.06 51.08 C 58.27 45.81 50.63 48.65 45.99 47.99 M 44.99 50.95 L 45.04 51.89 C 49.47 52.00 53.83 52.50 57.99 54.06 C 57.97 53.59 57.93 52.65 57.91 52.17 C 53.71 51.06 49.32 50.85 44.99 50.95 Z" />
</g>
<g id="#3f3016fe">
<path fill="#3f3016" opacity="1.00" d=" M 102.82 19.04 C 103.99 18.67 105.14 18.26 106.29 17.82 C 106.98 17.87 108.36 17.99 109.05 18.04 C 108.46 19.08 107.96 20.23 107.05 21.03 C 102.94 23.65 101.38 29.30 96.98 31.32 C 95.64 30.12 94.29 28.94 92.88 27.83 C 96.89 25.34 101.47 23.59 104.99 20.38 C 104.45 20.05 103.36 19.37 102.82 19.04 Z" />
</g>
<g id="#b9914fff">
<path fill="#b9914f" opacity="1.00" d=" M 39.12 19.95 C 39.65 19.60 40.71 18.90 41.24 18.55 C 42.17 19.69 43.11 20.82 43.95 22.02 C 43.40 22.06 42.31 22.15 41.77 22.19 C 40.89 21.44 40.02 20.68 39.12 19.95 Z" />
</g>
<g id="#5e4624ff">
<path fill="#5e4624" opacity="1.00" d=" M 90.61 25.95 C 94.41 23.24 98.14 20.02 102.82 19.04 C 103.36 19.37 104.45 20.05 104.99 20.38 C 101.47 23.59 96.89 25.34 92.88 27.83 C 92.10 27.23 91.34 26.61 90.61 25.95 Z" />
</g>
<g id="#796021f0">
<path fill="#796021" opacity="0.94" d=" M 39.12 19.95 C 40.02 20.68 40.89 21.44 41.77 22.19 C 42.66 23.99 43.81 26.87 46.19 25.12 L 46.94 24.89 C 45.64 26.92 44.47 29.03 43.36 31.17 C 42.08 27.53 39.54 24.53 38.09 21.00 C 38.35 20.74 38.86 20.21 39.12 19.95 Z" />
</g>
<g id="#5d4d13f2">
<path fill="#5d4d13" opacity="0.95" d=" M 96.98 31.32 C 101.38 29.30 102.94 23.65 107.05 21.03 C 105.87 25.68 102.47 29.19 99.83 33.06 C 98.19 34.44 97.64 32.63 96.98 31.32 Z" />
</g>
<g id="#956e48ff">
<path fill="#956e48" opacity="1.00" d=" M 41.77 22.19 C 42.31 22.15 43.40 22.06 43.95 22.02 C 44.70 23.04 45.45 24.08 46.19 25.12 C 43.81 26.87 42.66 23.99 41.77 22.19 Z" />
</g>
<g id="#dcb934fe">
<path fill="#dcb934" opacity="1.00" d=" M 91.88 34.10 C 91.36 31.53 88.88 28.30 90.61 25.95 C 91.34 26.61 92.10 27.23 92.88 27.83 C 94.29 28.94 95.64 30.12 96.98 31.32 C 97.64 32.63 98.19 34.44 99.83 33.06 C 101.71 36.29 104.04 39.92 103.80 43.76 C 99.86 44.60 97.48 47.96 94.95 50.81 C 90.80 51.85 87.38 55.01 82.89 55.01 C 85.10 53.23 88.83 52.29 89.07 48.99 C 89.18 48.54 89.39 47.64 89.50 47.19 C 91.96 43.36 93.91 38.57 91.88 34.10 Z" />
</g>
<g id="#998433ff">
<path fill="#998433" opacity="1.00" d=" M 75.17 51.06 C 75.98 47.63 77.49 42.26 82.16 43.71 L 81.77 44.57 C 79.48 46.26 79.10 50.19 82.94 49.06 L 84.09 49.14 C 82.71 49.69 81.30 50.16 79.91 50.67 C 78.34 50.87 76.76 51.02 75.17 51.06 Z" />
</g>
<g id="#7f7130ff">
<path fill="#7f7130" opacity="1.00" d=" M 82.16 43.71 C 85.16 43.62 87.93 44.44 89.50 47.19 C 89.39 47.64 89.18 48.54 89.07 48.99 C 87.41 49.03 85.75 49.07 84.09 49.14 L 82.94 49.06 C 84.27 48.30 85.65 47.64 86.94 46.81 C 86.48 44.56 83.46 45.10 81.77 44.57 L 82.16 43.71 Z" />
</g>
<g id="#c6a22dfe">
<path fill="#c6a22d" opacity="1.00" d=" M 94.95 50.81 C 97.48 47.96 99.86 44.60 103.80 43.76 C 105.21 45.21 105.08 47.29 105.16 49.16 C 100.17 50.17 96.93 54.89 94.12 58.83 L 95.03 59.11 C 93.58 60.17 92.31 61.46 91.24 62.90 C 89.28 62.95 86.71 62.66 87.03 60.01 C 87.52 57.30 84.60 58.11 82.90 57.83 C 87.26 55.84 92.94 56.08 94.95 50.81 Z" />
</g>
<g id="#c2c2c2ff">
<path fill="#c2c2c2" opacity="1.00" d=" M 82.94 49.06 C 79.10 50.19 79.48 46.26 81.77 44.57 C 83.46 45.10 86.48 44.56 86.94 46.81 C 85.65 47.64 84.27 48.30 82.94 49.06 Z" />
</g>
<g id="#d1b326ff">
<path fill="#d1b326" opacity="1.00" d=" M 45.99 47.99 C 50.63 48.65 58.27 45.81 61.06 51.08 C 56.32 48.96 51.21 48.80 46.02 48.94 L 45.99 47.99 Z" />
</g>
<g id="#f0c336ff">
<path fill="#f0c336" opacity="1.00" d=" M 84.09 49.14 C 85.75 49.07 87.41 49.03 89.07 48.99 C 88.83 52.29 85.10 53.23 82.89 55.01 C 76.59 59.34 68.11 57.75 61.93 61.93 C 61.66 62.17 61.12 62.65 60.85 62.89 C 60.58 63.14 60.05 63.62 59.78 63.86 C 58.88 64.63 58.01 65.43 57.12 66.22 C 52.25 65.82 46.24 62.50 42.09 66.34 C 43.04 67.91 44.70 68.80 46.22 69.75 C 49.84 78.23 48.41 88.59 43.08 96.05 C 41.25 97.97 40.75 101.52 37.91 102.41 C 36.15 100.79 34.53 99.02 32.96 97.22 C 33.37 97.07 34.17 96.78 34.57 96.63 C 38.80 85.76 44.01 73.75 39.92 62.14 C 44.10 62.89 48.39 63.41 52.61 62.56 C 57.79 61.92 61.61 57.78 66.68 56.69 C 71.61 55.69 76.31 53.84 80.88 51.77 C 80.64 51.50 80.15 50.94 79.91 50.67 C 81.30 50.16 82.71 49.69 84.09 49.14 Z" />
</g>
<g id="#b49629fc">
<path fill="#b49629" opacity="1.00" d=" M 94.12 58.83 C 96.93 54.89 100.17 50.17 105.16 49.16 C 106.53 50.26 107.21 53.84 108.05 55.98 C 106.75 56.24 105.46 56.54 104.15 56.75 C 100.70 55.30 98.35 55.49 98.67 59.18 C 98.28 59.17 97.51 59.16 97.13 59.15 C 96.60 59.14 95.56 59.12 95.03 59.11 L 94.12 58.83 Z" />
</g>
<g id="#d8c12cff">
<path fill="#d8c12c" opacity="1.00" d=" M 44.99 50.95 C 49.32 50.85 53.71 51.06 57.91 52.17 C 57.93 52.65 57.97 53.59 57.99 54.06 C 53.83 52.50 49.47 52.00 45.04 51.89 L 44.99 50.95 Z" />
</g>
<g id="#ddab2eff">
<path fill="#ddab2e" opacity="1.00" d=" M 82.89 55.01 C 87.38 55.01 90.80 51.85 94.95 50.81 C 92.94 56.08 87.26 55.84 82.90 57.83 C 76.70 61.71 68.91 60.73 61.93 61.93 C 68.11 57.75 76.59 59.34 82.89 55.01 Z" />
</g>
<g id="#edbd34fd">
<path fill="#edbd34" opacity="1.00" d=" M 3.29 53.69 C 2.62 52.08 5.92 53.33 6.86 52.97 C 6.59 56.70 4.04 61.96 7.91 64.20 C 8.60 60.84 8.04 57.38 8.72 54.02 C 9.42 51.94 14.03 52.71 14.29 55.25 C 13.53 56.49 12.67 57.67 11.90 58.91 C 9.28 63.29 11.39 71.70 4.75 72.84 C 3.73 72.86 3.25 72.33 3.30 71.25 C 3.70 65.50 5.12 59.32 3.29 53.69 Z" />
</g>
<g id="#be9428f5">
<path fill="#be9428" opacity="0.96" d=" M 6.86 52.97 C 7.32 53.24 8.26 53.76 8.72 54.02 C 8.04 57.38 8.60 60.84 7.91 64.20 C 4.04 61.96 6.59 56.70 6.86 52.97 Z" />
</g>
<g id="#37340e73">
<path fill="#37340e" opacity="0.45" d=" M 2.11 54.00 L 3.29 53.69 C 3.11 59.17 2.78 64.67 3.15 70.15 L 2.06 69.96 C 1.89 64.64 1.91 59.32 2.11 54.00 Z" />
</g>
<g id="#ffee42ff">
<path fill="#ffee42" opacity="1.00" d=" M 3.29 53.69 C 5.12 59.32 3.70 65.50 3.30 71.25 L 3.15 70.15 C 2.78 64.67 3.11 59.17 3.29 53.69 Z" />
</g>
<g id="#c19528fb">
<path fill="#c19528" opacity="1.00" d=" M 14.29 55.25 L 15.04 54.94 C 15.10 55.47 15.23 56.52 15.29 57.05 C 15.39 59.05 15.17 61.05 15.16 63.05 C 14.39 64.12 13.54 65.19 12.07 65.12 C 12.03 63.57 11.94 60.46 11.90 58.91 C 12.67 57.67 13.53 56.49 14.29 55.25 Z" />
</g>
<g id="#f2ca39fc">
<path fill="#f2ca39" opacity="1.00" d=" M 15.29 57.05 C 19.48 56.18 23.83 55.14 28.10 55.24 C 26.63 56.78 25.13 58.30 23.88 60.03 C 27.98 60.85 30.89 56.82 34.82 57.04 C 37.33 59.28 36.48 62.47 35.33 65.17 C 35.05 63.71 34.95 62.11 33.81 61.00 C 29.85 61.49 26.13 63.30 22.03 63.11 C 21.98 61.80 21.37 60.72 20.35 59.93 C 20.00 61.03 19.65 62.12 19.29 63.21 L 18.29 63.18 C 17.51 63.15 15.94 63.08 15.16 63.05 C 15.17 61.05 15.39 59.05 15.29 57.05 Z" />
</g>
<g id="#dfca30ff">
<path fill="#dfca30" opacity="1.00" d=" M 43.85 56.07 C 45.30 53.50 49.00 54.29 51.14 55.68 C 49.31 55.78 45.67 55.97 43.85 56.07 Z" />
</g>
<g id="#c6a321ff">
<path fill="#c6a321" opacity="1.00" d=" M 42.93 56.09 L 43.85 56.07 C 45.67 55.97 49.31 55.78 51.14 55.68 C 52.19 56.23 53.24 56.79 54.28 57.36 C 50.60 57.43 46.04 57.22 42.93 56.09 Z" />
</g>
<g id="#fddc3cff">
<path fill="#fddc3c" opacity="1.00" d=" M 98.67 59.18 C 98.35 55.49 100.70 55.30 104.15 56.75 C 102.41 57.66 100.75 61.10 98.67 59.18 Z" />
</g>
<g id="#f7e441fc">
<path fill="#f7e441" opacity="1.00" d=" M 104.15 56.75 C 105.46 56.54 106.75 56.24 108.05 55.98 C 109.75 55.54 111.10 56.61 112.35 57.57 C 116.39 58.76 121.72 59.55 124.12 62.99 C 123.65 63.04 122.70 63.15 122.22 63.20 C 119.57 63.47 116.92 63.82 114.27 63.94 C 113.89 62.25 114.00 60.37 112.85 58.96 C 110.09 59.92 107.30 61.96 104.99 59.00 C 104.78 58.44 104.36 57.31 104.15 56.75 Z" />
</g>
<g id="#ecbb33ff">
<path fill="#ecbb33" opacity="1.00" d=" M 98.67 59.18 C 100.75 61.10 102.41 57.66 104.15 56.75 C 104.36 57.31 104.78 58.44 104.99 59.00 C 105.84 62.71 105.51 66.93 108.19 69.93 C 113.42 70.04 118.59 66.86 122.22 63.20 C 122.70 63.15 123.65 63.04 124.12 62.99 L 125.16 62.95 C 120.04 70.22 111.85 75.57 103.07 77.02 C 102.76 76.71 102.15 76.09 101.84 75.78 C 101.39 75.47 100.48 74.85 100.02 74.53 C 99.26 73.64 98.51 72.74 97.81 71.80 C 97.16 70.78 96.50 69.77 95.82 68.77 C 95.01 67.52 93.96 66.46 92.92 65.41 C 95.71 64.73 96.05 61.39 97.13 59.15 C 97.51 59.16 98.28 59.17 98.67 59.18 Z" />
</g>
<g id="#c49128ff">
<path fill="#c49128" opacity="1.00" d=" M 61.93 61.93 C 68.91 60.73 76.70 61.71 82.90 57.83 C 84.60 58.11 87.52 57.30 87.03 60.01 C 86.71 62.66 89.28 62.95 91.24 62.90 L 90.68 63.74 C 90.41 64.06 89.87 64.72 89.61 65.04 C 88.15 64.76 86.71 64.33 85.23 64.20 C 83.09 66.12 81.62 68.61 79.88 70.88 C 76.85 71.90 73.80 72.82 70.75 73.78 C 64.21 74.01 55.85 74.15 50.83 69.12 C 52.10 69.08 53.37 69.06 54.64 69.08 C 59.62 72.82 66.66 72.48 71.94 69.54 C 70.47 69.05 69.56 67.73 70.04 66.18 C 70.16 64.82 72.96 64.83 70.88 63.61 C 72.33 63.07 74.22 63.29 75.28 62.03 C 70.44 61.91 65.66 62.61 60.85 62.89 C 61.12 62.65 61.66 62.17 61.93 61.93 Z" />
</g>
<g id="#daab2fff">
<path fill="#daab2f" opacity="1.00" d=" M 4.75 72.84 C 11.39 71.70 9.28 63.29 11.90 58.91 C 11.94 60.46 12.03 63.57 12.07 65.12 C 13.54 65.19 14.39 64.12 15.16 63.05 C 15.94 63.08 17.51 63.15 18.29 63.18 C 18.40 68.21 12.94 68.20 10.56 71.55 C 9.11 72.54 7.51 73.30 5.95 74.11 C 5.65 73.79 5.05 73.15 4.75 72.84 Z" />
</g>
<g id="#f9d73bff">
<path fill="#f9d73b" opacity="1.00" d=" M 95.03 59.11 C 95.56 59.12 96.60 59.14 97.13 59.15 C 96.05 61.39 95.71 64.73 92.92 65.41 C 92.36 64.99 91.24 64.15 90.68 63.74 L 91.24 62.90 C 92.31 61.46 93.58 60.17 95.03 59.11 Z" />
</g>
<g id="#f8cd39ff">
<path fill="#f8cd39" opacity="1.00" d=" M 104.99 59.00 C 107.30 61.96 110.09 59.92 112.85 58.96 C 114.00 60.37 113.89 62.25 114.27 63.94 C 116.92 63.82 119.57 63.47 122.22 63.20 C 118.59 66.86 113.42 70.04 108.19 69.93 C 105.51 66.93 105.84 62.71 104.99 59.00 Z" />
</g>
<g id="#b08f28ff">
<path fill="#b08f28" opacity="1.00" d=" M 20.35 59.93 C 21.37 60.72 21.98 61.80 22.03 63.11 L 22.04 64.13 C 21.12 70.73 31.19 65.25 33.43 70.15 C 33.10 71.17 32.76 72.18 32.42 73.20 C 32.75 69.27 27.43 73.18 25.97 71.93 C 23.89 72.15 22.73 69.85 21.03 69.00 C 17.57 72.06 12.24 73.01 9.67 76.85 C 9.19 76.64 8.22 76.22 7.74 76.01 C 8.95 71.96 14.81 72.49 17.29 69.30 C 19.36 67.94 18.93 65.34 19.29 63.21 C 19.65 62.12 20.00 61.03 20.35 59.93 Z" />
</g>
<g id="#e9ba33ff">
<path fill="#e9ba33" opacity="1.00" d=" M 22.03 63.11 C 26.13 63.30 29.85 61.49 33.81 61.00 C 34.95 62.11 35.05 63.71 35.33 65.17 C 35.13 65.67 34.73 66.68 34.53 67.18 C 31.79 63.18 26.04 65.64 22.04 64.13 L 22.03 63.11 Z" />
</g>
<g id="#d69e84ff">
<path fill="#d69e84" opacity="1.00" d=" M 60.85 62.89 C 65.66 62.61 70.44 61.91 75.28 62.03 C 74.22 63.29 72.33 63.07 70.88 63.61 C 67.18 63.90 63.48 64.06 59.78 63.86 C 60.05 63.62 60.58 63.14 60.85 62.89 Z" />
</g>
<g id="#c59f2cff">
<path fill="#c59f2c" opacity="1.00" d=" M 18.29 63.18 L 19.29 63.21 C 18.93 65.34 19.36 67.94 17.29 69.30 C 14.81 72.49 8.95 71.96 7.74 76.01 C 6.86 75.62 6.26 74.99 5.95 74.11 C 7.51 73.30 9.11 72.54 10.56 71.55 C 12.94 68.20 18.40 68.21 18.29 63.18 Z" />
</g>
<g id="#bf9f2dfd">
<path fill="#bf9f2d" opacity="1.00" d=" M 125.16 62.95 C 126.89 63.38 127.32 65.15 126.88 66.70 C 125.92 67.54 124.01 69.23 123.05 70.08 C 119.64 74.90 113.50 76.38 108.74 79.49 C 107.07 79.17 105.47 78.54 103.82 78.14 C 103.63 77.86 103.25 77.30 103.07 77.02 C 111.85 75.57 120.04 70.22 125.16 62.95 Z" />
</g>
<g id="#d1a82fff">
<path fill="#d1a82f" opacity="1.00" d=" M 22.04 64.13 C 26.04 65.64 31.79 63.18 34.53 67.18 C 34.17 68.17 33.80 69.16 33.43 70.15 C 31.19 65.25 21.12 70.73 22.04 64.13 Z" />
</g>
<g id="#d29b28ff">
<path fill="#d29b28" opacity="1.00" d=" M 42.09 66.34 C 46.24 62.50 52.25 65.82 57.12 66.22 C 56.29 67.16 55.46 68.12 54.64 69.08 C 53.37 69.06 52.10 69.08 50.83 69.12 C 55.85 74.15 64.21 74.01 70.75 73.78 C 71.83 74.27 72.90 74.77 73.98 75.28 C 70.48 77.84 67.29 80.75 64.18 83.75 C 61.98 82.36 59.46 81.83 56.90 81.65 C 53.92 77.21 51.51 71.82 46.22 69.75 C 44.70 68.80 43.04 67.91 42.09 66.34 Z" />
</g>
<g id="#b98021ff">
<path fill="#b98021" opacity="1.00" d=" M 57.12 66.22 C 58.01 65.43 58.88 64.63 59.78 63.86 C 63.48 64.06 67.18 63.90 70.88 63.61 C 72.96 64.83 70.16 64.82 70.04 66.18 C 69.56 67.73 70.47 69.05 71.94 69.54 C 66.66 72.48 59.62 72.82 54.64 69.08 C 55.46 68.12 56.29 67.16 57.12 66.22 Z" />
</g>
<g id="#bc992bff">
<path fill="#bc992b" opacity="1.00" d=" M 85.23 64.20 C 86.71 64.33 88.15 64.76 89.61 65.04 C 89.12 67.30 92.00 69.17 90.35 71.32 C 84.54 82.81 78.47 94.38 70.56 104.58 C 69.91 104.74 68.60 105.07 67.95 105.23 C 66.61 104.30 65.32 103.29 63.96 102.38 C 69.20 95.34 74.49 88.28 78.45 80.40 C 80.24 76.64 84.53 74.92 86.12 71.04 C 84.56 71.00 81.44 70.92 79.88 70.88 C 81.62 68.61 83.09 66.12 85.23 64.20 Z" />
</g>
<g id="#b09128ff">
<path fill="#b09128" opacity="1.00" d=" M 89.61 65.04 C 89.87 64.72 90.41 64.06 90.68 63.74 C 91.24 64.15 92.36 64.99 92.92 65.41 C 93.96 66.46 95.01 67.52 95.82 68.77 C 92.17 74.17 90.50 80.78 87.72 86.70 C 84.59 93.26 81.50 99.84 78.11 106.27 C 74.70 107.62 70.96 107.15 67.95 105.23 C 68.60 105.07 69.91 104.74 70.56 104.58 C 78.47 94.38 84.54 82.81 90.35 71.32 C 92.00 69.17 89.12 67.30 89.61 65.04 Z" />
</g>
<g id="#a28625fe">
<path fill="#a28625" opacity="1.00" d=" M 123.05 70.08 C 124.01 69.23 125.92 67.54 126.88 66.70 C 128.13 67.07 128.45 68.09 127.84 69.75 C 124.09 71.50 122.32 75.69 118.60 77.49 C 114.78 79.18 111.25 81.67 106.79 81.28 L 105.96 81.05 C 105.19 80.12 104.43 79.18 103.82 78.14 C 105.47 78.54 107.07 79.17 108.74 79.49 C 113.50 76.38 119.64 74.90 123.05 70.08 Z" />
</g>
<g id="#907520ff">
<path fill="#907520" opacity="1.00" d=" M 9.67 76.85 C 12.24 73.01 17.57 72.06 21.03 69.00 C 22.73 69.85 23.89 72.15 25.97 71.93 C 27.43 73.18 32.75 69.27 32.42 73.20 C 32.09 74.53 31.77 75.87 31.43 77.20 C 31.68 74.08 28.56 75.34 26.61 75.31 C 23.43 76.78 20.94 74.51 18.05 74.00 C 15.70 74.74 13.95 76.57 12.09 78.09 C 11.49 77.78 10.28 77.16 9.67 76.85 Z" />
</g>
<g id="#a48825ff">
<path fill="#a48825" opacity="1.00" d=" M 87.72 86.70 C 90.50 80.78 92.17 74.17 95.82 68.77 C 96.50 69.77 97.16 70.78 97.81 71.80 C 92.52 80.68 92.05 91.95 87.14 101.20 C 85.74 102.46 84.26 103.64 82.94 104.99 C 81.33 105.45 79.73 105.91 78.11 106.27 C 81.50 99.84 84.59 93.26 87.72 86.70 Z" />
</g>
<g id="#ddb432ff">
<path fill="#ddb432" opacity="1.00" d=" M 46.22 69.75 C 51.51 71.82 53.92 77.21 56.90 81.65 C 58.34 91.07 49.43 96.61 47.84 105.03 C 44.42 106.62 40.51 104.74 37.91 102.41 C 40.75 101.52 41.25 97.97 43.08 96.05 C 48.41 88.59 49.84 78.23 46.22 69.75 Z" />
</g>
<g id="#876e1eff">
<path fill="#876e1e" opacity="1.00" d=" M 118.60 77.49 C 122.32 75.69 124.09 71.50 127.84 69.75 C 128.00 71.13 128.04 72.51 127.99 73.90 C 123.20 76.78 119.27 83.11 113.21 82.89 C 111.05 82.42 108.91 81.88 106.79 81.28 C 111.25 81.67 114.78 79.18 118.60 77.49 Z" />
</g>
<g id="#c89f2cff">
<path fill="#c89f2c" opacity="1.00" d=" M 70.75 73.78 C 73.80 72.82 76.85 71.90 79.88 70.88 C 81.44 70.92 84.56 71.00 86.12 71.04 C 84.53 74.92 80.24 76.64 78.45 80.40 C 74.49 88.28 69.20 95.34 63.96 102.38 C 62.54 101.93 61.13 101.43 59.74 100.89 C 60.98 95.11 67.65 90.06 64.18 83.75 C 67.29 80.75 70.48 77.84 73.98 75.28 C 72.90 74.77 71.83 74.27 70.75 73.78 Z" />
</g>
<g id="#9a7e23ff">
<path fill="#9a7e23" opacity="1.00" d=" M 87.14 101.20 C 92.05 91.95 92.52 80.68 97.81 71.80 C 98.51 72.74 99.26 73.64 100.02 74.53 C 95.43 81.99 96.32 91.49 92.19 99.25 C 90.52 99.94 88.82 100.55 87.14 101.20 Z" />
</g>
<g id="#775e18f7">
<path fill="#775e18" opacity="0.97" d=" M 12.09 78.09 C 13.95 76.57 15.70 74.74 18.05 74.00 C 20.94 74.51 23.43 76.78 26.61 75.31 C 28.56 75.34 31.68 74.08 31.43 77.20 C 31.16 78.71 30.62 81.74 30.34 83.25 C 30.21 82.45 29.96 80.86 29.83 80.06 C 23.88 79.92 17.83 80.30 12.01 78.86 L 12.09 78.09 Z" />
</g>
<g id="#6b5416fc">
<path fill="#6b5416" opacity="1.00" d=" M 113.21 82.89 C 119.27 83.11 123.20 76.78 127.99 73.90 C 127.67 78.26 123.62 80.87 120.32 83.14 C 120.54 85.75 120.98 88.36 121.03 90.99 C 119.04 90.53 117.36 88.71 115.22 89.12 C 111.88 92.52 112.10 98.04 108.28 101.23 C 109.16 95.20 107.48 89.14 108.06 83.10 C 109.77 82.94 111.49 82.92 113.21 82.89 Z" />
</g>
<g id="#907620ff">
<path fill="#907620" opacity="1.00" d=" M 92.19 99.25 C 96.32 91.49 95.43 81.99 100.02 74.53 C 100.48 74.85 101.39 75.47 101.84 75.78 C 100.22 82.69 99.34 89.73 98.79 96.80 C 97.68 97.82 96.18 98.15 94.82 98.69 C 94.16 98.83 92.84 99.11 92.19 99.25 Z" />
</g>
<g id="#856b1cff">
<path fill="#856b1c" opacity="1.00" d=" M 98.79 96.80 C 99.34 89.73 100.22 82.69 101.84 75.78 C 102.15 76.09 102.76 76.71 103.07 77.02 C 103.25 77.30 103.63 77.86 103.82 78.14 C 104.43 79.18 105.19 80.12 105.96 81.05 C 105.50 81.08 104.57 81.13 104.10 81.16 C 103.81 87.04 104.31 92.94 103.89 98.82 C 102.98 99.52 101.98 100.03 100.88 100.35 C 98.95 99.48 96.92 98.90 94.82 98.69 C 96.18 98.15 97.68 97.82 98.79 96.80 Z" />
</g>
<g id="#775e18ff">
<path fill="#775e18" opacity="1.00" d=" M 104.10 81.16 C 104.57 81.13 105.50 81.08 105.96 81.05 L 106.79 81.28 C 108.91 81.88 111.05 82.42 113.21 82.89 C 111.49 82.92 109.77 82.94 108.06 83.10 C 107.48 89.14 109.16 95.20 108.28 101.23 C 106.22 103.20 103.14 101.05 100.88 100.35 C 101.98 100.03 102.98 99.52 103.89 98.82 C 104.31 92.94 103.81 87.04 104.10 81.16 Z" />
</g>
<g id="#d0a92fff">
<path fill="#d0a92f" opacity="1.00" d=" M 47.84 105.03 C 49.43 96.61 58.34 91.07 56.90 81.65 C 59.46 81.83 61.98 82.36 64.18 83.75 C 67.65 90.06 60.98 95.11 59.74 100.89 C 56.98 100.76 54.31 101.44 52.10 103.12 C 50.74 103.88 49.39 104.71 47.84 105.03 Z" />
</g>
<g id="#342b20fe">
<path fill="#342b20" opacity="1.00" d=" M 115.22 89.12 C 117.36 88.71 119.04 90.53 121.03 90.99 C 122.86 91.33 121.58 93.90 121.87 95.17 C 120.73 93.17 118.58 91.55 116.17 92.05 C 113.88 96.43 117.27 101.67 114.97 106.01 C 113.46 110.93 109.77 114.96 109.02 120.13 C 104.17 125.95 99.85 132.22 94.79 137.86 C 93.53 138.34 92.27 139.05 90.88 138.92 C 90.99 137.37 90.98 135.80 91.30 134.28 C 98.47 125.32 108.96 117.47 110.01 105.16 C 107.67 103.57 104.68 103.59 102.01 102.90 C 100.40 102.17 98.82 101.36 97.12 100.86 C 94.20 100.87 91.26 101.04 88.78 102.66 C 86.88 103.56 84.96 104.41 82.94 104.99 C 84.26 103.64 85.74 102.46 87.14 101.20 C 88.82 100.55 90.52 99.94 92.19 99.25 C 92.84 99.11 94.16 98.83 94.82 98.69 C 96.92 98.90 98.95 99.48 100.88 100.35 C 103.14 101.05 106.22 103.20 108.28 101.23 C 112.10 98.04 111.88 92.52 115.22 89.12 Z" />
</g>
<g id="#3b332bfe">
<path fill="#3b332b" opacity="1.00" d=" M 116.17 92.05 C 118.58 91.55 120.73 93.17 121.87 95.17 C 122.13 96.38 122.45 97.59 122.61 98.82 C 117.16 105.32 114.12 113.39 109.02 120.13 C 109.77 114.96 113.46 110.93 114.97 106.01 C 117.27 101.67 113.88 96.43 116.17 92.05 Z" />
</g>
<g id="#574e32ff">
<path fill="#574e32" opacity="1.00" d=" M 27.97 98.03 C 29.53 97.40 31.43 95.47 32.96 97.22 C 34.53 99.02 36.15 100.79 37.91 102.41 C 40.51 104.74 44.42 106.62 47.84 105.03 C 49.39 104.71 50.74 103.88 52.10 103.12 L 52.19 104.10 C 51.16 105.09 50.05 105.98 48.91 106.84 C 46.99 106.97 45.07 107.08 43.16 107.26 C 40.37 106.58 38.09 104.86 36.17 102.79 C 33.93 100.22 30.88 95.98 28.14 100.14 C 28.10 99.61 28.01 98.56 27.97 98.03 Z" />
</g>
<g id="#776c5efd">
<path fill="#776c5e" opacity="1.00" d=" M 28.14 100.14 C 30.88 95.98 33.93 100.22 36.17 102.79 C 34.64 105.52 33.98 111.84 29.69 110.43 C 26.80 109.04 28.42 113.22 28.08 114.79 C 29.51 121.11 26.22 126.49 24.36 132.18 C 23.34 130.40 21.25 128.45 22.37 126.25 C 23.85 119.56 29.36 111.63 25.43 104.82 C 25.57 103.10 27.35 101.72 28.14 100.14 Z" />
</g>
<g id="#4d4239fe">
<path fill="#4d4239" opacity="1.00" d=" M 109.02 120.13 C 114.12 113.39 117.16 105.32 122.61 98.82 C 123.95 102.80 126.12 106.70 126.06 110.99 C 126.02 112.37 125.96 113.75 125.88 115.14 C 124.63 114.02 123.87 112.25 122.11 111.84 C 118.85 119.54 115.05 127.17 109.50 133.50 C 105.72 136.32 101.51 138.54 97.95 141.65 C 97.29 141.19 96.70 140.65 96.18 140.02 C 95.84 139.48 95.14 138.40 94.79 137.86 C 99.85 132.22 104.17 125.95 109.02 120.13 Z" />
</g>
<g id="#4a4026ff">
<path fill="#4a4026" opacity="1.00" d=" M 52.10 103.12 C 54.31 101.44 56.98 100.76 59.74 100.89 C 61.13 101.43 62.54 101.93 63.96 102.38 C 65.32 103.29 66.61 104.30 67.95 105.23 C 70.96 107.15 74.70 107.62 78.11 106.27 C 79.73 105.91 81.33 105.45 82.94 104.99 C 82.68 105.48 82.17 106.47 81.91 106.96 C 78.61 107.67 75.24 107.93 71.88 108.16 C 71.46 108.17 70.62 108.21 70.20 108.22 C 67.83 106.90 65.63 105.31 63.21 104.08 C 59.88 102.14 55.62 102.74 52.19 104.10 L 52.10 103.12 Z" />
</g>
<g id="#463d33ff">
<path fill="#463d33" opacity="1.00" d=" M 88.78 102.66 C 91.26 101.04 94.20 100.87 97.12 100.86 C 99.77 107.19 95.15 112.90 91.95 117.97 C 86.78 125.66 78.54 130.10 71.12 135.25 C 70.94 138.05 74.37 139.27 76.14 140.94 C 73.49 140.94 70.85 140.92 68.21 140.87 C 66.57 138.96 62.92 138.07 63.04 135.19 C 70.87 128.63 80.10 123.62 86.67 115.68 C 88.83 111.71 93.05 108.24 91.98 103.17 C 91.18 103.04 89.58 102.79 88.78 102.66 Z" />
</g>
<g id="#40372dff">
<path fill="#40372d" opacity="1.00" d=" M 97.12 100.86 C 98.82 101.36 100.40 102.17 102.01 102.90 C 103.19 104.57 104.85 106.53 103.63 108.67 C 99.95 118.99 92.23 127.22 83.24 133.23 C 80.35 135.24 83.07 138.67 84.22 140.91 C 83.67 140.93 82.57 140.98 82.02 141.00 C 80.06 141.00 78.10 141.00 76.14 140.94 C 74.37 139.27 70.94 138.05 71.12 135.25 C 78.54 130.10 86.78 125.66 91.95 117.97 C 95.15 112.90 99.77 107.19 97.12 100.86 Z" />
</g>
<g id="#6d6458ff">
<path fill="#6d6458" opacity="1.00" d=" M 36.17 102.79 C 38.09 104.86 40.37 106.58 43.16 107.26 C 40.85 111.40 38.82 117.44 33.23 117.60 C 31.46 116.75 29.83 115.66 28.08 114.79 C 28.42 113.22 26.80 109.04 29.69 110.43 C 33.98 111.84 34.64 105.52 36.17 102.79 Z" />
</g>
<g id="#60564dff">
<path fill="#60564d" opacity="1.00" d=" M 52.19 104.10 C 55.62 102.74 59.88 102.14 63.21 104.08 C 62.56 108.49 58.49 110.78 55.38 113.44 C 51.41 116.76 48.06 120.77 43.95 123.91 C 41.46 125.97 37.86 124.67 34.88 125.18 C 34.21 124.17 33.62 123.12 33.02 122.07 C 38.40 123.22 42.73 119.43 45.24 115.19 C 46.26 111.80 52.00 111.26 50.97 107.14 C 50.45 107.06 49.42 106.91 48.91 106.84 C 50.05 105.98 51.16 105.09 52.19 104.10 Z" />
</g>
<g id="#4a4238ff">
<path fill="#4a4238" opacity="1.00" d=" M 82.94 104.99 C 84.96 104.41 86.88 103.56 88.78 102.66 C 89.58 102.79 91.18 103.04 91.98 103.17 C 93.05 108.24 88.83 111.71 86.67 115.68 C 80.10 123.62 70.87 128.63 63.04 135.19 C 62.92 138.07 66.57 138.96 68.21 140.87 C 67.41 140.91 65.81 140.97 65.01 141.00 C 63.70 141.06 62.40 141.04 61.10 140.94 C 57.73 140.07 54.29 139.39 51.06 138.08 L 50.86 137.21 C 52.21 137.32 53.55 137.51 54.90 137.63 C 58.01 129.18 69.17 128.25 74.14 121.15 C 77.38 116.18 84.63 113.53 85.05 107.10 C 84.26 107.07 82.69 107.00 81.91 106.96 C 82.17 106.47 82.68 105.48 82.94 104.99 Z" />
</g>
<g id="#393027fe">
<path fill="#393027" opacity="1.00" d=" M 102.01 102.90 C 104.68 103.59 107.67 103.57 110.01 105.16 C 108.96 117.47 98.47 125.32 91.30 134.28 C 90.98 135.80 90.99 137.37 90.88 138.92 C 88.92 140.13 86.55 141.05 84.22 140.91 C 83.07 138.67 80.35 135.24 83.24 133.23 C 92.23 127.22 99.95 118.99 103.63 108.67 C 104.85 106.53 103.19 104.57 102.01 102.90 Z" />
</g>
<g id="#5a5147ff">
<path fill="#5a5147" opacity="1.00" d=" M 63.21 104.08 C 65.63 105.31 67.83 106.90 70.20 108.22 C 64.19 113.89 57.33 118.62 51.77 124.77 C 48.98 128.03 44.44 128.38 40.75 130.11 C 38.82 129.44 37.38 127.94 35.82 126.68 C 35.59 126.30 35.12 125.55 34.88 125.18 C 37.86 124.67 41.46 125.97 43.95 123.91 C 48.06 120.77 51.41 116.76 55.38 113.44 C 58.49 110.78 62.56 108.49 63.21 104.08 Z" />
</g>
<g id="#8b7d6cf8">
<path fill="#8b7d6c" opacity="0.97" d=" M 25.43 104.82 C 29.36 111.63 23.85 119.56 22.37 126.25 C 19.46 119.33 21.37 110.91 25.43 104.82 Z" />
</g>
<g id="#665c50ff">
<path fill="#665c50" opacity="1.00" d=" M 43.16 107.26 C 45.07 107.08 46.99 106.97 48.91 106.84 C 49.42 106.91 50.45 107.06 50.97 107.14 C 52.00 111.26 46.26 111.80 45.24 115.19 C 42.73 119.43 38.40 123.22 33.02 122.07 C 31.81 120.22 30.77 118.19 28.96 116.84 C 29.37 118.96 30.42 120.86 31.37 122.77 C 30.74 127.45 28.42 131.65 27.00 136.12 C 25.51 135.58 24.38 133.70 24.36 132.18 C 26.22 126.49 29.51 121.11 28.08 114.79 C 29.83 115.66 31.46 116.75 33.23 117.60 C 38.82 117.44 40.85 111.40 43.16 107.26 Z" />
</g>
<g id="#4f463dff">
<path fill="#4f463d" opacity="1.00" d=" M 71.88 108.16 C 75.24 107.93 78.61 107.67 81.91 106.96 C 82.69 107.00 84.26 107.07 85.05 107.10 C 84.63 113.53 77.38 116.18 74.14 121.15 C 69.17 128.25 58.01 129.18 54.90 137.63 C 53.55 137.51 52.21 137.32 50.86 137.21 C 49.13 136.41 47.53 135.38 45.95 134.33 C 57.60 129.16 65.55 118.99 75.83 111.86 C 75.61 110.03 73.16 109.32 71.88 108.16 Z" />
</g>
<g id="#544c42ff">
<path fill="#544c42" opacity="1.00" d=" M 70.20 108.22 C 70.62 108.21 71.46 108.17 71.88 108.16 C 73.16 109.32 75.61 110.03 75.83 111.86 C 65.55 118.99 57.60 129.16 45.95 134.33 C 44.18 133.16 42.43 131.96 40.68 130.77 L 40.75 130.11 C 44.44 128.38 48.98 128.03 51.77 124.77 C 57.33 118.62 64.19 113.89 70.20 108.22 Z" />
</g>
<g id="#40382efb">
<path fill="#40382e" opacity="1.00" d=" M 126.06 110.99 L 127.04 111.01 C 127.02 117.62 126.57 125.96 122.70 131.35 C 122.55 128.83 122.45 126.30 121.78 123.85 C 116.93 130.17 113.07 138.24 104.95 140.94 C 103.56 141.62 101.39 142.08 102.94 143.89 C 101.95 143.61 100.99 143.28 100.05 142.89 C 99.52 142.58 98.47 141.96 97.95 141.65 C 101.51 138.54 105.72 136.32 109.50 133.50 C 115.05 127.17 118.85 119.54 122.11 111.84 C 123.87 112.25 124.63 114.02 125.88 115.14 C 125.96 113.75 126.02 112.37 126.06 110.99 Z" />
</g>
<g id="#4a3e33ff">
<path fill="#4a3e33" opacity="1.00" d=" M 28.96 116.84 C 30.77 118.19 31.81 120.22 33.02 122.07 C 33.62 123.12 34.21 124.17 34.88 125.18 C 35.12 125.55 35.59 126.30 35.82 126.68 C 34.19 128.53 37.19 130.00 36.94 131.94 C 35.90 134.78 34.08 137.24 32.76 139.95 C 32.28 139.99 31.33 140.06 30.85 140.10 C 30.57 139.83 30.00 139.28 29.72 139.01 C 31.34 133.70 36.87 127.48 31.37 122.77 C 30.42 120.86 29.37 118.96 28.96 116.84 Z" />
</g>
<g id="#574a3ffd">
<path fill="#574a3f" opacity="1.00" d=" M 31.37 122.77 C 36.87 127.48 31.34 133.70 29.72 139.01 C 29.32 138.98 28.52 138.92 28.12 138.89 C 27.22 138.17 26.85 137.25 27.00 136.12 C 28.42 131.65 30.74 127.45 31.37 122.77 Z" />
</g>
<g id="#393127fe">
<path fill="#393127" opacity="1.00" d=" M 104.95 140.94 C 113.07 138.24 116.93 130.17 121.78 123.85 C 122.45 126.30 122.55 128.83 122.70 131.35 C 122.82 134.24 120.14 136.36 118.87 138.80 C 117.14 140.53 115.18 142.02 112.82 142.77 C 112.31 142.97 111.29 143.37 110.78 143.57 C 109.79 143.92 108.81 144.30 107.84 144.69 C 106.49 144.46 105.14 144.28 103.79 144.13 L 102.94 143.89 C 101.39 142.08 103.56 141.62 104.95 140.94 Z" />
</g>
<g id="#3b3027ff">
<path fill="#3b3027" opacity="1.00" d=" M 36.94 131.94 C 37.19 130.00 34.19 128.53 35.82 126.68 C 37.38 127.94 38.82 129.44 40.75 130.11 L 40.68 130.77 C 40.37 132.42 40.82 134.09 40.78 135.75 C 39.36 137.38 37.62 138.69 35.86 139.94 C 35.09 139.94 33.54 139.95 32.76 139.95 C 34.08 137.24 35.90 134.78 36.94 131.94 Z" />
</g>
<g id="#31261cff">
<path fill="#31261c" opacity="1.00" d=" M 40.78 135.75 C 40.82 134.09 40.37 132.42 40.68 130.77 C 42.43 131.96 44.18 133.16 45.95 134.33 C 47.53 135.38 49.13 136.41 50.86 137.21 L 51.06 138.08 C 49.08 138.71 47.08 139.24 45.12 139.92 C 43.13 139.98 41.15 140.01 39.16 140.05 C 38.34 140.02 36.69 139.97 35.86 139.94 C 37.62 138.69 39.36 137.38 40.78 135.75 Z" />
</g>
<g id="#3c3025fb">
<path fill="#3c3025" opacity="1.00" d=" M 45.12 139.92 C 47.08 139.24 49.08 138.71 51.06 138.08 C 54.29 139.39 57.73 140.07 61.10 140.94 C 60.02 147.32 50.86 146.49 46.04 146.86 C 45.85 145.35 45.45 142.33 45.25 140.82 L 45.12 139.92 Z" />
</g>
<g id="#e2d53bf1">
<path fill="#e2d53b" opacity="0.95" d=" M 25.75 147.99 C 22.14 146.20 25.14 139.99 28.12 138.89 C 28.52 138.92 29.32 138.98 29.72 139.01 C 30.00 139.28 30.57 139.83 30.85 140.10 L 31.12 140.88 C 28.43 142.46 26.56 145.00 25.75 147.99 Z" />
</g>
<g id="#4a402ff6">
<path fill="#4a402f" opacity="0.96" d=" M 112.82 142.77 C 115.18 142.02 117.14 140.53 118.87 138.80 C 122.69 140.53 123.44 147.94 120.03 149.89 C 119.79 148.25 120.46 146.19 119.35 144.83 C 118.01 142.44 115.11 143.04 112.82 142.77 Z" />
</g>
<g id="#846629ff">
<path fill="#846629" opacity="1.00" d=" M 30.85 140.10 C 31.33 140.06 32.28 139.99 32.76 139.95 C 33.54 139.95 35.09 139.94 35.86 139.94 C 36.69 139.97 38.34 140.02 39.16 140.05 C 38.90 140.32 38.37 140.87 38.11 141.14 C 36.11 141.08 34.12 141.02 32.12 140.97 L 31.12 140.88 L 30.85 140.10 Z" />
</g>
<g id="#bc9127ff">
<path fill="#bc9127" opacity="1.00" d=" M 39.16 140.05 C 41.15 140.01 43.13 139.98 45.12 139.92 L 45.25 140.82 C 43.27 143.32 41.19 145.76 38.89 147.97 C 38.42 147.98 37.48 148.00 37.01 148.01 C 36.20 147.99 34.57 147.94 33.76 147.91 C 34.98 145.52 36.68 143.42 38.11 141.14 C 38.37 140.87 38.90 140.32 39.16 140.05 Z" />
</g>
<g id="#7f6340f8">
<path fill="#7f6340" opacity="0.97" d=" M 96.18 140.02 C 96.70 140.65 97.29 141.19 97.95 141.65 C 98.47 141.96 99.52 142.58 100.05 142.89 C 97.05 142.45 94.66 145.01 94.81 147.93 C 91.35 148.02 94.17 141.26 96.18 140.02 Z" />
</g>
<g id="#b19022ff">
<path fill="#b19022" opacity="1.00" d=" M 25.75 147.99 C 26.56 145.00 28.43 142.46 31.12 140.88 L 32.12 140.97 C 30.42 143.15 27.84 144.94 27.79 147.97 L 26.79 147.99 L 25.75 147.99 Z" />
</g>
<g id="#eebe34ff">
<path fill="#eebe34" opacity="1.00" d=" M 32.12 140.97 C 34.12 141.02 36.11 141.08 38.11 141.14 C 36.68 143.42 34.98 145.52 33.76 147.91 C 31.77 147.97 29.78 147.98 27.79 147.97 C 27.84 144.94 30.42 143.15 32.12 140.97 Z" />
</g>
<g id="#90711df7">
<path fill="#90711d" opacity="0.97" d=" M 45.25 140.82 C 45.45 142.33 45.85 145.35 46.04 146.86 C 43.80 147.89 41.35 148.20 38.89 147.97 C 41.19 145.76 43.27 143.32 45.25 140.82 Z" />
</g>
<g id="#1d1b17a8">
<path fill="#1d1b17" opacity="0.66" d=" M 65.01 141.00 C 65.81 140.97 67.41 140.91 68.21 140.87 C 70.85 140.92 73.49 140.94 76.14 140.94 C 78.10 141.00 80.06 141.00 82.02 141.00 L 81.99 141.98 C 76.33 142.01 70.67 142.14 65.01 141.97 L 65.01 141.00 Z" />
</g>
<g id="#f4c535fb">
<path fill="#f4c535" opacity="1.00" d=" M 94.81 147.93 C 94.66 145.01 97.05 142.45 100.05 142.89 C 100.99 143.28 101.95 143.61 102.94 143.89 L 103.79 144.13 C 107.18 145.23 105.69 149.17 106.06 151.98 C 105.29 151.99 103.76 152.02 102.99 152.03 C 100.14 151.81 94.81 151.78 94.81 147.93 Z" />
</g>
<g id="#a98a26ff">
<path fill="#a98a26" opacity="1.00" d=" M 110.78 143.57 C 111.29 143.37 112.31 142.97 112.82 142.77 C 115.11 143.04 118.01 142.44 119.35 144.83 C 117.24 147.26 115.19 149.77 112.87 152.02 L 111.85 152.01 L 110.79 151.96 C 111.10 149.26 115.63 144.11 110.78 143.57 Z" />
</g>
<g id="#98781eff">
<path fill="#98781e" opacity="1.00" d=" M 103.79 144.13 C 105.14 144.28 106.49 144.46 107.84 144.69 C 107.88 146.51 107.98 150.15 108.02 151.97 C 107.53 151.97 106.55 151.98 106.06 151.98 C 105.69 149.17 107.18 145.23 103.79 144.13 Z" />
</g>
<g id="#d4aa2fff">
<path fill="#d4aa2f" opacity="1.00" d=" M 107.84 144.69 C 108.81 144.30 109.79 143.92 110.78 143.57 C 115.63 144.11 111.10 149.26 110.79 151.96 C 110.10 151.97 108.71 151.97 108.02 151.97 C 107.98 150.15 107.88 146.51 107.84 144.69 Z" />
</g>
<g id="#816b1cf7">
<path fill="#816b1c" opacity="0.97" d=" M 119.35 144.83 C 120.46 146.19 119.79 148.25 120.03 149.89 C 117.89 151.20 115.37 151.93 112.87 152.02 C 115.19 149.77 117.24 147.26 119.35 144.83 Z" />
</g>
<g id="#2b250972">
<path fill="#2b2509" opacity="0.45" d=" M 26.79 147.99 L 27.79 147.97 C 29.78 147.98 31.77 147.97 33.76 147.91 C 34.57 147.94 36.20 147.99 37.01 148.01 L 36.99 149.01 C 34.44 148.76 29.34 148.25 26.79 147.99 Z" />
</g>
<g id="#3c300d92">
<path fill="#3c300d" opacity="0.57" d=" M 102.99 152.03 C 103.76 152.02 105.29 151.99 106.06 151.98 C 106.55 151.98 107.53 151.97 108.02 151.97 C 108.71 151.97 110.10 151.97 110.79 151.96 L 111.85 152.01 C 112.53 155.26 105.27 152.24 103.03 152.97 L 102.99 152.03 Z" />
</g>
</svg>
