<?xml version="1.0" encoding="UTF-8" ?>
<!DOCTYPE svg PUBLIC "-//W3C//DTD SVG 1.1//EN" "http://www.w3.org/Graphics/SVG/1.1/DTD/svg11.dtd">
<svg width="202pt" height="182pt" viewBox="0 0 202 182" version="1.1" xmlns="http://www.w3.org/2000/svg">
<g id="#c3a62df4">
<path fill="#c3a62d" opacity="0.96" d=" M 127.00 12.88 C 127.34 11.13 129.69 10.83 131.02 9.95 C 130.97 11.40 130.86 14.32 130.81 15.78 C 130.37 17.13 129.49 19.85 129.05 21.21 C 126.27 20.09 131.74 14.56 128.43 13.71 C 128.07 13.50 127.36 13.09 127.00 12.88 Z" />
</g>
<g id="#f4d33cfc">
<path fill="#f4d33c" opacity="1.00" d=" M 112.04 27.03 C 117.41 22.75 121.69 17.09 127.00 12.88 C 127.36 13.09 128.07 13.50 128.43 13.71 C 127.18 15.21 125.88 16.65 124.58 18.10 C 122.02 20.86 119.82 23.94 117.62 26.99 C 115.98 28.23 118.23 28.97 119.05 29.82 C 119.00 32.92 120.73 36.16 119.17 39.11 C 115.61 51.32 104.24 58.28 93.24 62.81 C 92.10 61.62 90.85 60.51 89.39 59.72 C 89.03 59.49 88.32 59.04 87.96 58.81 L 88.04 57.99 C 94.66 55.70 101.51 53.61 106.95 48.95 C 109.75 45.23 112.22 41.23 113.96 36.90 C 113.95 33.52 113.25 30.17 112.04 27.03 Z" />
</g>
<g id="#816519f1">
<path fill="#816519" opacity="0.95" d=" M 128.43 13.71 C 131.74 14.56 126.27 20.09 129.05 21.21 C 129.49 19.85 130.37 17.13 130.81 15.78 C 130.80 22.96 129.47 30.03 128.80 37.15 C 128.28 36.42 127.77 35.67 127.27 34.93 L 126.81 34.19 C 127.17 29.09 128.42 24.02 127.82 18.89 C 127.86 17.44 125.54 18.51 124.58 18.10 C 125.88 16.65 127.18 15.21 128.43 13.71 Z" />
</g>
<g id="#efcd3af9">
<path fill="#efcd3a" opacity="0.98" d=" M 77.97 14.93 C 84.36 18.27 91.34 22.57 95.98 27.94 C 94.72 28.92 93.52 29.98 92.28 30.97 C 89.05 26.47 85.36 21.13 80.10 18.94 L 79.23 18.67 C 78.61 17.49 78.05 16.27 77.97 14.93 Z" />
</g>
<g id="#8d6845ff">
<path fill="#8d6845" opacity="1.00" d=" M 117.62 26.99 C 119.82 23.94 122.02 20.86 124.58 18.10 C 125.54 18.51 127.86 17.44 127.82 18.89 C 126.62 22.80 126.89 27.27 124.95 30.95 C 122.39 29.86 119.94 28.52 117.62 26.99 Z" />
</g>
<g id="#cba92de8">
<path fill="#cba92d" opacity="0.91" d=" M 79.23 18.67 L 80.10 18.94 C 82.51 24.56 82.82 30.97 85.86 36.32 C 85.32 37.63 84.83 38.94 84.28 40.24 C 83.79 32.82 80.34 25.89 79.23 18.67 Z" />
</g>
<g id="#a07744ff">
<path fill="#a07744" opacity="1.00" d=" M 80.10 18.94 C 85.36 21.13 89.05 26.47 92.28 30.97 C 90.06 32.66 87.94 34.47 85.86 36.32 C 82.82 30.97 82.51 24.56 80.10 18.94 Z" />
</g>
<g id="#6c4f20ff">
<path fill="#6c4f20" opacity="1.00" d=" M 124.95 30.95 C 126.89 27.27 126.62 22.80 127.82 18.89 C 128.42 24.02 127.17 29.09 126.81 34.19 C 125.92 33.75 125.03 33.28 124.16 32.78 C 122.82 31.25 120.92 30.49 119.05 29.82 C 118.23 28.97 115.98 28.23 117.62 26.99 C 119.94 28.52 122.39 29.86 124.95 30.95 Z" />
</g>
<g id="#0b0b0334">
<path fill="#0b0b03" opacity="0.20" d=" M 105.15 26.93 C 106.11 25.19 111.01 25.20 112.04 27.03 C 110.32 27.01 106.87 26.96 105.15 26.93 Z" />
</g>
<g id="#fdf74afe">
<path fill="#fdf74a" opacity="1.00" d=" M 95.98 27.94 C 99.04 27.67 102.10 27.28 105.15 26.93 C 106.87 26.96 110.32 27.01 112.04 27.03 C 113.25 30.17 113.95 33.52 113.96 36.90 C 112.22 41.23 109.75 45.23 106.95 48.95 C 101.51 53.61 94.66 55.70 88.04 57.99 C 86.39 58.00 84.74 58.00 83.09 57.99 C 81.54 52.08 81.56 45.80 84.28 40.24 C 84.83 38.94 85.32 37.63 85.86 36.32 C 87.94 34.47 90.06 32.66 92.28 30.97 C 93.52 29.98 94.72 28.92 95.98 27.94 Z" />
</g>
<g id="#e6c137ff">
<path fill="#e6c137" opacity="1.00" d=" M 119.05 29.82 C 120.92 30.49 122.82 31.25 124.16 32.78 C 122.73 38.82 120.29 44.66 116.74 49.76 C 112.89 54.29 107.93 57.60 103.36 61.32 C 103.21 61.89 102.90 63.05 102.74 63.63 C 102.55 63.95 102.15 64.60 101.96 64.93 C 99.19 64.78 96.46 65.33 94.20 67.01 L 94.02 66.12 C 93.79 65.01 93.53 63.91 93.24 62.81 C 104.24 58.28 115.61 51.32 119.17 39.11 C 120.73 36.16 119.00 32.92 119.05 29.82 Z" />
</g>
<g id="#d1b132ff">
<path fill="#d1b132" opacity="1.00" d=" M 124.16 32.78 C 125.03 33.28 125.92 33.75 126.81 34.19 L 127.27 34.93 C 126.55 43.07 119.97 48.65 116.74 55.74 C 116.45 55.98 115.87 56.45 115.58 56.69 C 114.68 57.28 113.77 57.86 113.00 58.61 C 112.24 59.32 111.52 60.05 110.83 60.82 L 109.98 60.94 C 108.50 60.93 104.98 61.36 106.48 63.58 C 109.46 68.13 106.47 73.32 106.05 78.12 C 103.72 82.22 101.97 87.98 96.74 89.02 C 96.04 88.13 95.54 87.10 94.97 86.12 C 103.09 86.79 104.50 75.68 105.95 69.96 C 108.58 65.66 104.86 65.10 102.74 63.63 C 102.90 63.05 103.21 61.89 103.36 61.32 C 107.93 57.60 112.89 54.29 116.74 49.76 C 120.29 44.66 122.73 38.82 124.16 32.78 Z" />
</g>
<g id="#ba9e2cfe">
<path fill="#ba9e2c" opacity="1.00" d=" M 127.27 34.93 C 127.77 35.67 128.28 36.42 128.80 37.15 C 129.74 38.48 130.58 39.89 131.31 41.35 C 127.68 45.75 123.92 50.05 120.85 54.87 C 119.78 55.09 118.71 55.32 117.65 55.57 L 116.74 55.74 C 119.97 48.65 126.55 43.07 127.27 34.93 Z" />
</g>
<g id="#a18826fc">
<path fill="#a18826" opacity="1.00" d=" M 131.31 41.35 L 131.78 40.85 C 132.02 43.32 132.78 45.67 133.22 48.10 C 133.38 50.19 131.53 49.33 130.23 49.33 C 128.17 51.22 126.22 53.23 124.23 55.19 C 123.39 55.11 121.70 54.95 120.85 54.87 C 123.92 50.05 127.68 45.75 131.31 41.35 Z" />
</g>
<g id="#eacf3bf9">
<path fill="#eacf3b" opacity="0.98" d=" M 171.65 51.69 C 173.23 48.56 175.73 42.61 179.97 44.99 L 180.27 45.70 C 177.95 46.95 177.20 49.52 176.80 51.94 C 176.03 53.21 175.35 54.53 174.77 55.90 C 173.55 56.16 172.37 56.55 171.20 56.94 C 169.79 55.68 167.75 58.57 166.12 59.05 C 162.68 55.64 167.16 50.05 171.65 51.69 Z" />
</g>
<g id="#e6bc32fc">
<path fill="#e6bc32" opacity="1.00" d=" M 179.97 44.99 C 182.01 45.05 184.42 44.52 186.05 46.11 C 185.17 47.21 184.22 48.33 184.03 49.78 C 182.39 51.58 180.95 53.61 178.90 54.98 C 179.57 51.97 182.02 48.75 180.27 45.70 L 179.97 44.99 Z" />
</g>
<g id="#c29d2afe">
<path fill="#c29d2a" opacity="1.00" d=" M 176.80 51.94 C 177.20 49.52 177.95 46.95 180.27 45.70 C 179.59 48.01 178.61 50.28 176.80 51.94 Z" />
</g>
<g id="#957921ff">
<path fill="#957921" opacity="1.00" d=" M 180.27 45.70 C 182.02 48.75 179.57 51.97 178.90 54.98 C 177.58 56.88 176.41 58.87 175.07 60.74 C 174.55 61.05 173.51 61.66 172.99 61.96 C 172.68 61.04 172.33 60.14 171.95 59.25 C 173.43 58.70 174.43 57.42 174.77 55.90 C 175.35 54.53 176.03 53.21 176.80 51.94 C 178.61 50.28 179.59 48.01 180.27 45.70 Z" />
</g>
<g id="#b59225f8">
<path fill="#b59225" opacity="0.97" d=" M 186.05 46.11 C 187.22 46.13 187.86 46.70 187.97 47.83 C 186.64 48.45 185.34 49.12 184.03 49.78 C 184.22 48.33 185.17 47.21 186.05 46.11 Z" />
</g>
<g id="#8d741ffe">
<path fill="#8d741f" opacity="1.00" d=" M 133.22 48.10 L 134.05 47.95 C 134.06 49.45 134.08 52.46 134.09 53.97 C 134.71 57.27 131.80 54.55 130.18 54.33 C 126.78 55.41 125.94 59.43 123.92 61.94 C 121.59 66.35 116.76 68.59 112.35 70.47 C 111.62 72.25 111.23 74.15 110.92 76.04 C 110.54 76.96 110.16 77.88 109.78 78.80 C 108.49 81.15 107.33 83.75 104.85 85.10 C 107.56 78.70 111.26 72.32 111.10 65.15 C 113.10 64.96 115.07 64.58 116.96 63.91 C 116.36 63.26 115.75 62.63 115.13 62.01 C 118.39 60.30 124.32 60.03 124.23 55.19 C 126.22 53.23 128.17 51.22 130.23 49.33 C 131.53 49.33 133.38 50.19 133.22 48.10 Z" />
</g>
<g id="#85691bff">
<path fill="#85691b" opacity="1.00" d=" M 184.03 49.78 C 185.34 49.12 186.64 48.45 187.97 47.83 C 186.57 52.05 184.55 56.02 182.57 59.99 C 181.51 61.77 180.37 63.51 179.14 65.17 C 178.57 64.91 177.43 64.39 176.87 64.12 C 177.84 58.67 182.93 55.16 184.03 49.78 Z" />
</g>
<g id="#e1b430fc">
<path fill="#e1b430" opacity="1.00" d=" M 187.97 47.83 C 189.17 47.94 190.22 48.39 191.13 49.19 C 188.85 53.15 185.97 56.72 183.67 60.67 C 183.40 60.50 182.85 60.16 182.57 59.99 C 184.55 56.02 186.57 52.05 187.97 47.83 Z" />
</g>
<g id="#b9992afe">
<path fill="#b9992a" opacity="1.00" d=" M 191.13 49.19 L 192.05 48.97 L 192.03 49.94 C 189.52 55.76 185.06 60.39 181.94 65.85 C 178.39 69.41 175.61 73.63 172.13 77.22 C 172.10 74.47 172.10 71.72 172.11 68.98 L 172.92 69.10 C 172.96 69.83 173.03 71.30 173.07 72.03 C 175.38 70.01 177.38 67.68 179.14 65.17 C 180.37 63.51 181.51 61.77 182.57 59.99 C 182.85 60.16 183.40 60.50 183.67 60.67 C 185.97 56.72 188.85 53.15 191.13 49.19 Z" />
</g>
<g id="#c09b2aff">
<path fill="#c09b2a" opacity="1.00" d=" M 178.90 54.98 C 180.95 53.61 182.39 51.58 184.03 49.78 C 182.93 55.16 177.84 58.67 176.87 64.12 C 176.26 63.00 175.69 61.86 175.07 60.74 C 176.41 58.87 177.58 56.88 178.90 54.98 Z" />
</g>
<g id="#856e1efa">
<path fill="#856e1e" opacity="0.98" d=" M 192.03 49.94 C 193.31 50.34 194.03 52.42 193.79 53.66 C 192.95 54.74 192.18 55.85 191.44 56.99 C 191.12 56.80 190.49 56.41 190.17 56.22 C 187.54 59.81 184.76 63.47 183.82 67.93 C 183.23 71.31 180.05 74.64 181.85 78.12 C 180.20 80.97 175.51 84.33 171.73 83.81 C 171.82 83.40 172.01 82.59 172.10 82.18 C 175.13 76.66 180.44 72.07 181.94 65.85 C 185.06 60.39 189.52 55.76 192.03 49.94 Z" />
</g>
<g id="#7f661cfd">
<path fill="#7f661c" opacity="1.00" d=" M 130.18 54.33 C 131.80 54.55 134.71 57.27 134.09 53.97 C 134.89 54.46 135.47 55.18 135.82 56.13 C 135.51 57.06 135.22 58.00 134.95 58.95 C 133.33 58.82 131.72 58.58 130.11 58.42 C 125.93 63.61 123.03 70.87 115.88 72.76 C 113.65 72.85 112.16 74.34 110.92 76.04 C 111.23 74.15 111.62 72.25 112.35 70.47 C 116.76 68.59 121.59 66.35 123.92 61.94 C 125.94 59.43 126.78 55.41 130.18 54.33 Z" />
</g>
<g id="#d3aa2efd">
<path fill="#d3aa2e" opacity="1.00" d=" M 191.44 56.99 C 192.18 55.85 192.95 54.74 193.79 53.66 C 194.17 54.05 194.93 54.83 195.31 55.22 C 194.60 56.52 193.84 57.78 193.09 59.04 C 191.96 59.66 190.87 61.07 189.53 60.09 C 190.20 59.08 190.83 58.04 191.44 56.99 Z" />
</g>
<g id="#463c22ff">
<path fill="#463c22" opacity="1.00" d=" M 117.65 55.57 C 118.71 55.32 119.78 55.09 120.85 54.87 C 121.70 54.95 123.39 55.11 124.23 55.19 C 124.32 60.03 118.39 60.30 115.13 62.01 C 114.85 60.63 113.95 59.58 113.00 58.61 C 113.77 57.86 114.68 57.28 115.58 56.69 C 115.73 57.53 116.02 59.22 116.17 60.07 C 118.23 59.13 121.95 58.94 122.07 56.15 C 120.60 55.93 119.13 55.74 117.65 55.57 Z" />
</g>
<g id="#78641cfb">
<path fill="#78641c" opacity="1.00" d=" M 195.31 55.22 L 196.02 54.81 C 196.16 64.46 189.01 72.52 181.85 78.12 C 180.05 74.64 183.23 71.31 183.82 67.93 C 184.76 63.47 187.54 59.81 190.17 56.22 C 190.49 56.41 191.12 56.80 191.44 56.99 C 190.83 58.04 190.20 59.08 189.53 60.09 C 187.57 61.94 186.56 64.48 187.02 67.19 C 189.69 65.04 191.36 61.93 193.09 59.04 C 193.84 57.78 194.60 56.52 195.31 55.22 Z" />
</g>
<g id="#7b7773ff">
<path fill="#7b7773" opacity="1.00" d=" M 115.58 56.69 C 115.87 56.45 116.45 55.98 116.74 55.74 L 117.65 55.57 C 119.13 55.74 120.60 55.93 122.07 56.15 C 121.95 58.94 118.23 59.13 116.17 60.07 C 116.02 59.22 115.73 57.53 115.58 56.69 Z" />
</g>
<g id="#d8e0e0fe">
<path fill="#d8e0e0" opacity="1.00" d=" M 135.82 56.13 C 139.46 56.34 144.98 56.33 146.69 59.74 C 145.04 64.58 150.54 69.86 145.81 73.92 C 140.77 73.41 142.27 65.93 140.89 62.02 C 145.27 59.70 135.28 62.47 134.95 58.95 C 135.22 58.00 135.51 57.06 135.82 56.13 Z" />
</g>
<g id="#826b21f7">
<path fill="#826b21" opacity="0.97" d=" M 166.12 59.05 C 167.75 58.57 169.79 55.68 171.20 56.94 C 171.20 57.41 171.21 58.35 171.22 58.82 C 171.16 59.62 171.04 61.21 170.98 62.01 L 170.05 62.06 C 168.23 62.32 166.51 60.67 166.12 59.05 Z" />
</g>
<g id="#c8a630ff">
<path fill="#c8a630" opacity="1.00" d=" M 171.20 56.94 C 172.37 56.55 173.55 56.16 174.77 55.90 C 174.43 57.42 173.43 58.70 171.95 59.25 L 171.22 58.82 C 171.21 58.35 171.20 57.41 171.20 56.94 Z" />
</g>
<g id="#d9c13cf9">
<path fill="#d9c13c" opacity="0.98" d=" M 83.09 57.99 C 84.74 58.00 86.39 58.00 88.04 57.99 L 87.96 58.81 C 86.50 59.01 84.14 58.61 85.09 60.86 C 85.11 62.45 87.49 62.18 88.48 63.04 C 89.17 64.36 89.68 65.76 90.20 67.16 C 88.60 69.08 86.88 70.91 85.64 73.09 C 84.98 71.58 84.31 70.08 83.39 68.71 C 84.56 65.18 82.86 61.58 83.09 57.99 Z" />
</g>
<g id="#755d18ff">
<path fill="#755d18" opacity="1.00" d=" M 130.11 58.42 C 131.72 58.58 133.33 58.82 134.95 58.95 C 134.96 59.70 134.99 61.19 135.01 61.93 C 133.13 62.43 131.22 62.85 129.36 63.41 C 126.51 67.46 123.69 71.64 119.68 74.66 C 116.48 76.27 112.89 76.96 109.78 78.80 C 110.16 77.88 110.54 76.96 110.92 76.04 C 112.16 74.34 113.65 72.85 115.88 72.76 C 123.03 70.87 125.93 63.61 130.11 58.42 Z" />
</g>
<g id="#b4b0a7ff">
<path fill="#b4b0a7" opacity="1.00" d=" M 85.09 60.86 C 84.14 58.61 86.50 59.01 87.96 58.81 C 88.32 59.04 89.03 59.49 89.39 59.72 C 89.10 60.83 88.79 61.93 88.48 63.04 C 87.49 62.18 85.11 62.45 85.09 60.86 Z" />
</g>
<g id="#857c70ff">
<path fill="#857c70" opacity="1.00" d=" M 110.83 60.82 C 111.52 60.05 112.24 59.32 113.00 58.61 C 113.95 59.58 114.85 60.63 115.13 62.01 C 113.75 62.32 112.38 62.69 111.01 63.03 C 110.96 62.48 110.87 61.38 110.83 60.82 Z" />
</g>
<g id="#a5b6bcff">
<path fill="#a5b6bc" opacity="1.00" d=" M 134.95 58.95 C 135.28 62.47 145.27 59.70 140.89 62.02 C 139.67 62.36 138.47 62.73 137.30 63.21 C 137.26 66.72 137.36 70.24 137.08 73.74 C 135.52 73.35 134.02 72.76 132.60 72.03 C 133.32 70.38 134.02 68.73 134.54 67.01 C 135.12 65.39 134.98 63.62 135.01 61.93 C 134.99 61.19 134.96 59.70 134.95 58.95 Z" />
</g>
<g id="#2b2824f7">
<path fill="#2b2824" opacity="0.97" d=" M 171.22 58.82 L 171.95 59.25 C 172.33 60.14 172.68 61.04 172.99 61.96 C 171.61 64.27 171.31 66.61 172.11 68.98 C 172.10 71.72 172.10 74.47 172.13 77.22 C 172.08 78.87 172.10 80.52 172.10 82.18 C 172.01 82.59 171.82 83.40 171.73 83.81 C 171.01 88.72 170.07 94.08 171.81 98.89 C 168.85 98.47 170.65 101.48 170.76 103.12 C 170.04 103.04 168.59 102.89 167.86 102.82 C 168.96 101.43 169.08 99.68 169.04 97.99 C 169.11 96.31 169.25 92.94 169.32 91.25 C 169.66 88.84 169.88 86.42 170.00 83.99 C 170.01 83.26 170.02 81.79 170.03 81.06 C 170.01 80.27 169.99 78.69 169.98 77.91 C 169.97 77.14 169.97 75.62 169.97 74.86 C 170.04 74.15 170.19 72.74 170.27 72.04 C 171.70 69.69 171.86 67.33 170.77 64.97 C 170.82 64.23 170.93 62.75 170.98 62.01 C 171.04 61.21 171.16 59.62 171.22 58.82 Z" />
</g>
<g id="#ae8b25ff">
<path fill="#ae8b25" opacity="1.00" d=" M 189.53 60.09 C 190.87 61.07 191.96 59.66 193.09 59.04 C 191.36 61.93 189.69 65.04 187.02 67.19 C 186.56 64.48 187.57 61.94 189.53 60.09 Z" />
</g>
<g id="#7e6a31ff">
<path fill="#7e6a31" opacity="1.00" d=" M 89.39 59.72 C 90.85 60.51 92.10 61.62 93.24 62.81 C 93.53 63.91 93.79 65.01 94.02 66.12 C 92.76 66.51 91.48 66.86 90.20 67.16 C 89.68 65.76 89.17 64.36 88.48 63.04 C 88.79 61.93 89.10 60.83 89.39 59.72 Z" />
</g>
<g id="#c3cdd2fe">
<path fill="#c3cdd2" opacity="1.00" d=" M 145.81 73.92 C 150.54 69.86 145.04 64.58 146.69 59.74 C 149.77 60.39 150.61 63.17 151.02 65.94 C 151.87 70.43 151.98 75.06 149.02 78.82 C 146.46 78.99 146.49 81.97 145.61 83.77 C 144.00 89.44 135.86 92.36 131.30 88.30 C 130.99 87.79 130.38 86.77 130.07 86.25 C 130.74 81.75 133.99 78.36 137.02 75.21 C 138.38 75.59 139.76 75.88 141.17 76.01 C 140.32 74.45 138.72 73.98 137.08 73.74 C 137.36 70.24 137.26 66.72 137.30 63.21 C 138.47 62.73 139.67 62.36 140.89 62.02 C 142.27 65.93 140.77 73.41 145.81 73.92 Z" />
</g>
<g id="#c1a02dff">
<path fill="#c1a02d" opacity="1.00" d=" M 106.48 63.58 C 104.98 61.36 108.50 60.93 109.98 60.94 C 109.24 66.77 109.16 72.93 106.05 78.12 C 106.47 73.32 109.46 68.13 106.48 63.58 Z" />
</g>
<g id="#a88d29ff">
<path fill="#a88d29" opacity="1.00" d=" M 109.98 60.94 L 110.83 60.82 C 110.87 61.38 110.96 62.48 111.01 63.03 C 111.03 63.56 111.08 64.62 111.10 65.15 C 111.26 72.32 107.56 78.70 104.85 85.10 C 103.15 87.45 101.04 89.45 98.79 91.25 C 98.06 90.55 97.38 89.80 96.74 89.02 C 101.97 87.98 103.72 82.22 106.05 78.12 C 109.16 72.93 109.24 66.77 109.98 60.94 Z" />
</g>
<g id="#f2d53cff">
<path fill="#f2d53c" opacity="1.00" d=" M 172.99 61.96 C 173.51 61.66 174.55 61.05 175.07 60.74 C 175.69 61.86 176.26 63.00 176.87 64.12 C 175.42 65.68 174.01 67.27 172.92 69.10 C 172.94 67.32 172.97 63.75 172.99 61.96 Z" />
</g>
<g id="#6f570fff">
<path fill="#6f570f" opacity="1.00" d=" M 111.01 63.03 C 112.38 62.69 113.75 62.32 115.13 62.01 C 115.75 62.63 116.36 63.26 116.96 63.91 C 115.07 64.58 113.10 64.96 111.10 65.15 C 111.08 64.62 111.03 63.56 111.01 63.03 Z" />
</g>
<g id="#6b5316ff">
<path fill="#6b5316" opacity="1.00" d=" M 129.36 63.41 C 131.22 62.85 133.13 62.43 135.01 61.93 C 134.98 63.62 135.12 65.39 134.54 67.01 C 134.26 66.91 133.68 66.69 133.39 66.59 C 128.98 69.72 125.16 73.56 120.97 76.98 C 117.09 80.41 111.27 80.80 107.82 84.81 C 107.58 85.03 107.09 85.49 106.84 85.72 L 106.15 86.24 C 105.82 85.95 105.18 85.39 104.85 85.10 C 107.33 83.75 108.49 81.15 109.78 78.80 C 112.89 76.96 116.48 76.27 119.68 74.66 C 123.69 71.64 126.51 67.46 129.36 63.41 Z" />
</g>
<g id="#ebca38fa">
<path fill="#ebca38" opacity="0.98" d=" M 170.05 62.06 L 170.98 62.01 C 170.93 62.75 170.82 64.23 170.77 64.97 C 169.27 67.29 169.11 69.65 170.27 72.04 C 170.19 72.74 170.04 74.15 169.97 74.86 C 169.24 76.18 168.07 77.63 166.39 76.76 C 164.74 72.85 161.62 68.57 156.83 69.04 C 155.24 69.26 154.86 68.83 155.70 67.74 C 159.73 67.96 163.77 68.01 167.81 67.90 C 168.61 65.98 168.92 63.84 170.05 62.06 Z" />
</g>
<g id="#988f2dff">
<path fill="#988f2d" opacity="1.00" d=" M 172.11 68.98 C 171.31 66.61 171.61 64.27 172.99 61.96 C 172.97 63.75 172.94 67.32 172.92 69.10 L 172.11 68.98 Z" />
</g>
<g id="#f7d53dff">
<path fill="#f7d53d" opacity="1.00" d=" M 101.96 64.93 C 102.15 64.60 102.55 63.95 102.74 63.63 C 104.86 65.10 108.58 65.66 105.95 69.96 C 104.50 75.68 103.09 86.79 94.97 86.12 C 94.76 85.77 94.35 85.05 94.14 84.70 C 94.05 84.31 93.88 83.53 93.80 83.14 C 103.04 84.03 102.04 70.55 101.96 64.93 Z" />
</g>
<g id="#d2b533ff">
<path fill="#d2b533" opacity="1.00" d=" M 176.87 64.12 C 177.43 64.39 178.57 64.91 179.14 65.17 C 177.38 67.68 175.38 70.01 173.07 72.03 C 173.03 71.30 172.96 69.83 172.92 69.10 C 174.01 67.27 175.42 65.68 176.87 64.12 Z" />
</g>
<g id="#fef144ff">
<path fill="#fef144" opacity="1.00" d=" M 94.20 67.01 C 96.46 65.33 99.19 64.78 101.96 64.93 C 102.04 70.55 103.04 84.03 93.80 83.14 L 93.05 82.86 L 92.81 82.14 C 92.41 78.80 91.85 75.43 92.31 72.08 C 92.98 70.40 93.61 68.71 94.20 67.01 Z" />
</g>
<g id="#817438ff">
<path fill="#817438" opacity="1.00" d=" M 170.27 72.04 C 169.11 69.65 169.27 67.29 170.77 64.97 C 171.86 67.33 171.70 69.69 170.27 72.04 Z" />
</g>
<g id="#cdaf32ff">
<path fill="#cdaf32" opacity="1.00" d=" M 90.20 67.16 C 91.48 66.86 92.76 66.51 94.02 66.12 L 94.20 67.01 C 93.61 68.71 92.98 70.40 92.31 72.08 C 90.33 69.48 88.66 74.41 86.68 75.23 C 86.42 74.69 85.90 73.62 85.64 73.09 C 86.88 70.91 88.60 69.08 90.20 67.16 Z" />
</g>
<g id="#5d4615ff">
<path fill="#5d4615" opacity="1.00" d=" M 133.39 66.59 C 133.68 66.69 134.26 66.91 134.54 67.01 C 134.02 68.73 133.32 70.38 132.60 72.03 C 126.76 79.50 117.70 85.61 107.82 84.81 C 111.27 80.80 117.09 80.41 120.97 76.98 C 125.16 73.56 128.98 69.72 133.39 66.59 Z" />
</g>
<g id="#9dafbaff">
<path fill="#9dafba" opacity="1.00" d=" M 151.02 65.94 C 151.51 66.22 152.48 66.79 152.97 67.08 C 154.01 68.88 154.85 70.80 155.16 72.88 C 155.33 73.84 155.52 74.80 155.72 75.75 C 155.62 76.27 155.42 77.30 155.32 77.82 C 150.58 79.64 149.07 85.17 148.61 89.73 C 145.62 93.01 141.93 96.77 136.98 96.04 C 131.14 97.08 128.52 104.19 122.93 105.94 C 118.23 104.89 113.48 105.61 108.76 106.16 C 108.32 106.29 107.44 106.54 107.00 106.67 C 106.49 107.04 105.48 107.80 104.97 108.18 C 103.62 108.86 102.23 108.73 100.91 108.05 C 99.93 107.50 98.83 107.45 97.85 108.03 C 97.21 107.48 96.58 106.93 95.96 106.38 C 101.30 107.24 104.69 101.86 110.02 103.09 C 117.60 103.23 125.24 101.15 130.73 95.73 C 134.29 91.94 140.28 93.35 144.25 90.24 C 147.72 87.59 148.93 83.00 149.02 78.82 C 151.98 75.06 151.87 70.43 151.02 65.94 Z" />
</g>
<g id="#9e8424ff">
<path fill="#9e8424" opacity="1.00" d=" M 172.13 77.22 C 175.61 73.63 178.39 69.41 181.94 65.85 C 180.44 72.07 175.13 76.66 172.10 82.18 C 172.10 80.52 172.08 78.87 172.13 77.22 Z" />
</g>
<g id="#b78e27fa">
<path fill="#b78e27" opacity="0.98" d=" M 152.97 67.08 C 154.86 66.65 155.77 66.88 155.70 67.74 C 154.86 68.83 155.24 69.26 156.83 69.04 C 157.32 74.64 164.11 76.77 168.11 79.95 C 163.07 79.69 158.84 76.08 155.16 72.88 C 154.85 70.80 154.01 68.88 152.97 67.08 Z" />
</g>
<g id="#d1ddddfe">
<path fill="#d1dddd" opacity="1.00" d=" M 75.89 86.00 C 73.27 79.09 77.55 72.23 83.39 68.71 C 84.31 70.08 84.98 71.58 85.64 73.09 C 85.90 73.62 86.42 74.69 86.68 75.23 C 87.99 78.11 90.61 79.98 92.81 82.14 L 93.05 82.86 C 92.06 83.80 90.57 85.19 91.14 86.71 C 92.42 86.90 93.17 85.32 94.14 84.70 C 94.35 85.05 94.76 85.77 94.97 86.12 C 95.54 87.10 96.04 88.13 96.74 89.02 C 97.38 89.80 98.06 90.55 98.79 91.25 C 100.77 93.30 103.09 95.21 104.03 98.00 C 102.18 103.30 95.67 103.80 90.90 104.16 C 88.58 104.12 88.09 101.34 86.92 99.80 C 86.57 96.58 84.14 95.41 81.19 95.04 C 80.87 94.75 80.22 94.19 79.90 93.91 C 79.21 93.21 78.54 92.51 77.87 91.80 C 77.25 91.06 76.61 90.32 75.97 89.59 C 75.98 88.39 75.95 87.20 75.89 86.00 Z" />
</g>
<g id="#d7aa2eff">
<path fill="#d7aa2e" opacity="1.00" d=" M 156.83 69.04 C 161.62 68.57 164.74 72.85 166.39 76.76 C 168.07 77.63 169.24 76.18 169.97 74.86 C 169.97 75.62 169.97 77.14 169.98 77.91 C 169.40 78.63 168.78 79.31 168.11 79.95 C 164.11 76.77 157.32 74.64 156.83 69.04 Z" />
</g>
<g id="#b59830ff">
<path fill="#b59830" opacity="1.00" d=" M 86.68 75.23 C 88.66 74.41 90.33 69.48 92.31 72.08 C 91.85 75.43 92.41 78.80 92.81 82.14 C 90.61 79.98 87.99 78.11 86.68 75.23 Z" />
</g>
<g id="#919da5ff">
<path fill="#919da5" opacity="1.00" d=" M 107.82 84.81 C 117.70 85.61 126.76 79.50 132.60 72.03 C 134.02 72.76 135.52 73.35 137.08 73.74 C 138.72 73.98 140.32 74.45 141.17 76.01 C 139.76 75.88 138.38 75.59 137.02 75.21 C 135.70 75.01 133.92 73.26 132.93 74.95 C 130.80 77.55 128.33 79.86 126.29 82.53 C 127.72 83.59 129.01 84.81 130.07 86.25 C 130.38 86.77 130.99 87.79 131.30 88.30 C 129.45 88.98 128.50 86.62 127.16 85.76 C 121.58 79.55 113.53 89.73 106.84 85.72 C 107.09 85.49 107.58 85.03 107.82 84.81 Z" />
</g>
<g id="#a18126ff">
<path fill="#a18126" opacity="1.00" d=" M 155.16 72.88 C 158.84 76.08 163.07 79.69 168.11 79.95 C 168.78 79.31 169.40 78.63 169.98 77.91 C 169.99 78.69 170.01 80.27 170.03 81.06 C 164.79 83.45 159.92 78.33 155.72 75.75 C 155.52 74.80 155.33 73.84 155.16 72.88 Z" />
</g>
<g id="#adbac1ff">
<path fill="#adbac1" opacity="1.00" d=" M 132.93 74.95 C 133.92 73.26 135.70 75.01 137.02 75.21 C 133.99 78.36 130.74 81.75 130.07 86.25 C 129.01 84.81 127.72 83.59 126.29 82.53 C 128.33 79.86 130.80 77.55 132.93 74.95 Z" />
</g>
<g id="#896e20ff">
<path fill="#896e20" opacity="1.00" d=" M 155.32 77.82 C 155.42 77.30 155.62 76.27 155.72 75.75 C 159.92 78.33 164.79 83.45 170.03 81.06 C 170.02 81.79 170.01 83.26 170.00 83.99 C 169.50 83.99 168.51 83.99 168.01 84.00 C 166.07 83.97 164.13 83.96 162.20 83.92 C 160.38 81.80 158.33 79.90 156.04 78.31 L 155.32 77.82 Z" />
</g>
<g id="#bca02eeb">
<path fill="#bca02e" opacity="0.92" d=" M 17.17 78.08 C 19.87 77.98 23.64 78.30 25.06 80.95 C 21.49 78.82 19.47 81.91 17.87 84.74 C 17.47 84.57 16.67 84.22 16.27 84.05 C 14.25 82.57 16.16 79.72 17.17 78.08 Z" />
</g>
<g id="#8297a2fe">
<path fill="#8297a2" opacity="1.00" d=" M 148.61 89.73 C 149.07 85.17 150.58 79.64 155.32 77.82 L 156.04 78.31 C 155.04 79.99 153.96 81.63 152.79 83.20 C 150.49 84.09 151.12 86.77 150.70 88.74 C 149.67 91.38 148.64 95.10 145.29 95.30 C 145.15 95.91 144.89 97.12 144.76 97.72 C 141.89 99.13 138.99 100.13 135.83 98.92 C 134.75 99.92 134.39 101.43 133.75 102.70 C 131.70 102.86 130.22 104.16 128.97 105.68 C 128.03 106.21 127.06 106.70 126.07 107.14 C 125.01 107.41 123.94 107.66 122.89 107.99 C 120.91 108.73 118.98 107.09 116.95 107.89 C 116.16 107.94 114.57 108.04 113.78 108.09 C 111.88 108.05 109.89 107.91 108.76 106.16 C 113.48 105.61 118.23 104.89 122.93 105.94 C 128.52 104.19 131.14 97.08 136.98 96.04 C 141.93 96.77 145.62 93.01 148.61 89.73 Z" />
</g>
<g id="#755a16ff">
<path fill="#755a16" opacity="1.00" d=" M 156.04 78.31 C 158.33 79.90 160.38 81.80 162.20 83.92 C 161.38 83.94 159.76 83.98 158.95 84.01 C 157.41 83.81 154.33 83.40 152.79 83.20 C 153.96 81.63 155.04 79.99 156.04 78.31 Z" />
</g>
<g id="#bbc4caff">
<path fill="#bbc4ca" opacity="1.00" d=" M 145.61 83.77 C 146.49 81.97 146.46 78.99 149.02 78.82 C 148.93 83.00 147.72 87.59 144.25 90.24 C 140.28 93.35 134.29 91.94 130.73 95.73 C 125.24 101.15 117.60 103.23 110.02 103.09 C 104.69 101.86 101.30 107.24 95.96 106.38 C 95.66 106.43 95.07 106.54 94.78 106.60 C 93.27 106.52 92.17 104.92 90.90 104.16 C 95.67 103.80 102.18 103.30 104.03 98.00 C 103.09 95.21 100.77 93.30 98.79 91.25 C 100.22 90.90 101.64 90.50 102.98 89.87 C 105.02 91.43 106.25 93.53 106.38 96.14 C 107.05 94.50 107.64 92.82 108.25 91.15 C 114.72 90.09 120.88 87.61 127.16 85.76 C 128.50 86.62 129.45 88.98 131.30 88.30 C 135.86 92.36 144.00 89.44 145.61 83.77 Z" />
</g>
<g id="#7a621afd">
<path fill="#7a621a" opacity="1.00" d=" M 17.87 84.74 C 19.47 81.91 21.49 78.82 25.06 80.95 C 26.15 81.44 27.61 82.48 27.70 83.75 C 29.40 90.51 23.56 99.45 31.23 103.84 C 39.49 104.22 47.76 103.89 56.02 103.96 C 60.66 103.50 64.51 108.14 69.20 106.19 C 67.05 109.22 62.75 108.00 59.60 107.51 C 54.23 105.73 48.54 106.53 43.06 107.09 C 43.05 107.53 43.04 108.40 43.04 108.83 C 48.51 109.21 53.99 109.98 59.24 111.62 C 53.70 114.23 47.77 111.49 41.97 111.96 L 42.08 111.10 C 46.09 111.09 42.12 109.48 40.32 109.59 C 34.06 109.51 29.61 104.06 23.38 103.87 L 23.07 103.25 C 26.94 101.10 24.13 95.68 24.83 92.33 C 22.56 90.97 20.69 87.89 17.74 88.60 C 18.05 86.95 19.83 87.06 21.09 86.58 C 20.19 85.68 19.09 85.07 17.87 84.74 Z" />
</g>
<g id="#a1b1b1ff">
<path fill="#a1b1b1" opacity="1.00" d=" M 91.14 86.71 C 90.57 85.19 92.06 83.80 93.05 82.86 L 93.80 83.14 C 93.88 83.53 94.05 84.31 94.14 84.70 C 93.17 85.32 92.42 86.90 91.14 86.71 Z" />
</g>
<g id="#a8b1baff">
<path fill="#a8b1ba" opacity="1.00" d=" M 106.84 85.72 C 113.53 89.73 121.58 79.55 127.16 85.76 C 120.88 87.61 114.72 90.09 108.25 91.15 C 108.05 89.28 107.73 87.40 106.84 85.72 Z" />
</g>
<g id="#3c351cb2">
<path fill="#3c351c" opacity="0.70" d=" M 150.70 88.74 C 151.12 86.77 150.49 84.09 152.79 83.20 C 154.33 83.40 157.41 83.81 158.95 84.01 L 159.04 84.96 C 157.31 84.99 153.86 85.04 152.13 85.07 C 151.54 86.13 152.87 89.90 150.70 88.74 Z" />
</g>
<g id="#ebcb37fc">
<path fill="#ebcb37" opacity="1.00" d=" M 16.27 84.05 C 16.67 84.22 17.47 84.57 17.87 84.74 C 15.77 87.14 15.56 91.14 12.00 91.97 C 11.06 88.32 12.99 85.50 16.27 84.05 Z" />
</g>
<g id="#876b1cff">
<path fill="#876b1c" opacity="1.00" d=" M 31.23 103.84 C 23.56 99.45 29.40 90.51 27.70 83.75 C 27.91 83.99 28.34 84.48 28.55 84.73 C 27.13 87.63 30.48 89.98 29.90 92.87 C 29.03 94.63 26.60 97.32 29.22 98.77 C 39.22 105.71 52.54 98.60 63.08 104.10 C 66.41 106.27 69.56 102.96 72.42 101.49 C 75.78 99.93 77.72 96.73 79.90 93.91 C 80.22 94.19 80.87 94.75 81.19 95.04 C 80.31 101.23 73.46 102.77 69.20 106.19 C 64.51 108.14 60.66 103.50 56.02 103.96 C 47.76 103.89 39.49 104.22 31.23 103.84 Z" />
</g>
<g id="#5c4e14d9">
<path fill="#5c4e14" opacity="0.85" d=" M 158.95 84.01 C 159.76 83.98 161.38 83.94 162.20 83.92 C 164.13 83.96 166.07 83.97 168.01 84.00 L 168.33 84.81 C 165.23 85.01 162.13 85.12 159.04 84.96 L 158.95 84.01 Z" />
</g>
<g id="#201d15ad">
<path fill="#201d15" opacity="0.68" d=" M 168.01 84.00 C 168.51 83.99 169.50 83.99 170.00 83.99 C 169.88 86.42 169.66 88.84 169.32 91.25 C 168.97 89.11 169.26 86.82 168.33 84.81 L 168.01 84.00 Z" />
</g>
<g id="#b69327f9">
<path fill="#b69327" opacity="0.98" d=" M 17.87 84.74 C 19.09 85.07 20.19 85.68 21.09 86.58 C 19.83 87.06 18.05 86.95 17.74 88.60 C 17.46 89.21 16.89 90.43 16.61 91.04 C 15.53 91.88 14.39 92.65 13.18 93.29 C 10.97 93.36 10.58 92.92 12.00 91.97 C 15.56 91.14 15.77 87.14 17.87 84.74 Z" />
</g>
<g id="#8f7420fe">
<path fill="#8f7420" opacity="1.00" d=" M 29.90 92.87 C 30.48 89.98 27.13 87.63 28.55 84.73 C 28.92 85.25 29.64 86.30 30.01 86.83 C 30.37 89.96 32.47 92.27 34.75 94.25 C 37.93 98.73 43.44 93.93 43.95 89.82 L 44.26 89.02 C 45.26 89.38 45.85 90.04 46.01 90.99 C 46.07 91.48 46.19 92.47 46.25 92.96 C 45.88 93.52 45.14 94.64 44.77 95.20 C 44.12 96.06 43.50 96.95 42.96 97.89 C 49.08 100.83 59.32 96.52 63.08 104.10 C 52.54 98.60 39.22 105.71 29.22 98.77 C 26.60 97.32 29.03 94.63 29.90 92.87 Z" />
</g>
<g id="#caad2ff5">
<path fill="#caad2f" opacity="0.96" d=" M 28.55 84.73 C 31.11 85.49 35.52 85.08 36.95 86.88 C 34.26 86.44 35.16 89.24 35.03 90.93 C 33.64 89.26 32.25 87.36 30.01 86.83 C 29.64 86.30 28.92 85.25 28.55 84.73 Z" />
</g>
<g id="#89742bff">
<path fill="#89742b" opacity="1.00" d=" M 98.79 91.25 C 101.04 89.45 103.15 87.45 104.85 85.10 C 105.18 85.39 105.82 85.95 106.15 86.24 C 105.06 87.42 104.00 88.62 102.98 89.87 C 101.64 90.50 100.22 90.90 98.79 91.25 Z" />
</g>
<g id="#e2af2ffd">
<path fill="#e2af2f" opacity="1.00" d=" M 72.10 88.90 C 72.08 87.16 74.68 86.90 75.89 86.00 C 75.95 87.20 75.98 88.39 75.97 89.59 C 74.76 96.16 69.34 100.14 62.87 101.28 L 63.27 100.21 C 66.48 97.81 69.59 95.25 72.25 92.25 C 73.48 91.35 72.39 89.96 72.10 88.90 Z" />
</g>
<g id="#969ea5ff">
<path fill="#969ea5" opacity="1.00" d=" M 106.15 86.24 L 106.84 85.72 C 107.73 87.40 108.05 89.28 108.25 91.15 C 107.64 92.82 107.05 94.50 106.38 96.14 C 106.25 93.53 105.02 91.43 102.98 89.87 C 104.00 88.62 105.06 87.42 106.15 86.24 Z" />
</g>
<g id="#ab8c27ff">
<path fill="#ab8c27" opacity="1.00" d=" M 30.01 86.83 C 32.25 87.36 33.64 89.26 35.03 90.93 C 34.96 91.76 34.82 93.42 34.75 94.25 C 32.47 92.27 30.37 89.96 30.01 86.83 Z" />
</g>
<g id="#f6e644fb">
<path fill="#f6e644" opacity="1.00" d=" M 35.03 90.93 C 35.16 89.24 34.26 86.44 36.95 86.88 C 39.33 87.17 42.77 87.10 44.26 89.02 L 43.95 89.82 C 41.70 91.56 39.72 95.16 36.38 93.77 C 35.92 92.83 35.47 91.88 35.03 90.93 Z" />
</g>
<g id="#6d5315ff">
<path fill="#6d5315" opacity="1.00" d=" M 17.74 88.60 C 20.69 87.89 22.56 90.97 24.83 92.33 C 24.13 95.68 26.94 101.10 23.07 103.25 C 22.15 102.53 21.26 101.78 20.29 101.13 C 19.81 102.13 19.32 103.14 18.84 104.14 L 17.87 104.45 C 17.98 101.40 17.93 97.23 20.81 95.50 C 20.25 94.90 19.66 94.33 19.04 93.79 C 18.12 92.98 17.24 92.11 16.61 91.04 C 16.89 90.43 17.46 89.21 17.74 88.60 Z" />
</g>
<g id="#f3cb37fb">
<path fill="#f3cb37" opacity="1.00" d=" M 59.94 95.24 C 64.24 93.63 67.82 90.31 72.10 88.90 C 72.39 89.96 73.48 91.35 72.25 92.25 C 69.59 95.25 66.48 97.81 63.27 100.21 C 62.65 98.15 58.50 97.57 59.94 95.24 Z" />
</g>
<g id="#cdad30ff">
<path fill="#cdad30" opacity="1.00" d=" M 36.38 93.77 C 39.72 95.16 41.70 91.56 43.95 89.82 C 43.44 93.93 37.93 98.73 34.75 94.25 C 34.82 93.42 34.96 91.76 35.03 90.93 C 35.47 91.88 35.92 92.83 36.38 93.77 Z" />
</g>
<g id="#c79829ff">
<path fill="#c79829" opacity="1.00" d=" M 62.87 101.28 C 69.34 100.14 74.76 96.16 75.97 89.59 C 76.61 90.32 77.25 91.06 77.87 91.80 C 76.50 98.08 70.51 100.89 64.99 102.99 C 64.18 102.56 63.47 101.99 62.87 101.28 Z" />
</g>
<g id="#8a701efa">
<path fill="#8a701e" opacity="0.98" d=" M 13.18 93.29 C 14.39 92.65 15.53 91.88 16.61 91.04 C 17.24 92.11 18.12 92.98 19.04 93.79 C 17.29 93.96 15.51 94.08 13.82 94.61 L 12.98 94.84 C 13.03 94.45 13.13 93.68 13.18 93.29 Z" />
</g>
<g id="#d5b830ee">
<path fill="#d5b830" opacity="0.93" d=" M 46.01 90.99 C 49.63 92.16 54.44 91.49 57.20 94.54 C 53.44 95.28 50.07 92.42 46.25 92.96 C 46.19 92.47 46.07 91.48 46.01 90.99 Z" />
</g>
<g id="#a58525ff">
<path fill="#a58525" opacity="1.00" d=" M 64.99 102.99 C 70.51 100.89 76.50 98.08 77.87 91.80 C 78.54 92.51 79.21 93.21 79.90 93.91 C 77.72 96.73 75.78 99.93 72.42 101.49 C 69.56 102.96 66.41 106.27 63.08 104.10 C 59.32 96.52 49.08 100.83 42.96 97.89 C 43.50 96.95 44.12 96.06 44.77 95.20 C 50.86 96.65 58.69 95.76 62.87 101.28 C 63.47 101.99 64.18 102.56 64.99 102.99 Z" />
</g>
<g id="#bc9e2dfb">
<path fill="#bc9e2d" opacity="1.00" d=" M 46.25 92.96 C 50.07 92.42 53.44 95.28 57.20 94.54 C 58.14 94.54 59.05 94.77 59.94 95.24 C 58.50 97.57 62.65 98.15 63.27 100.21 L 62.87 101.28 C 58.69 95.76 50.86 96.65 44.77 95.20 C 45.14 94.64 45.88 93.52 46.25 92.96 Z" />
</g>
<g id="#c59d2afd">
<path fill="#c59d2a" opacity="1.00" d=" M 13.82 94.61 C 15.51 94.08 17.29 93.96 19.04 93.79 C 18.60 97.69 17.88 101.50 14.78 104.13 C 13.61 103.68 13.13 103.01 13.36 102.15 C 15.94 100.68 18.25 94.65 13.82 94.61 Z" />
</g>
<g id="#96751eff">
<path fill="#96751e" opacity="1.00" d=" M 19.04 93.79 C 19.66 94.33 20.25 94.90 20.81 95.50 C 17.93 97.23 17.98 101.40 17.87 104.45 C 16.85 105.03 15.79 104.35 14.78 104.13 C 17.88 101.50 18.60 97.69 19.04 93.79 Z" />
</g>
<g id="#eed138fa">
<path fill="#eed138" opacity="0.98" d=" M 12.98 94.84 L 13.82 94.61 C 18.25 94.65 15.94 100.68 13.36 102.15 C 10.28 100.39 11.76 97.33 12.98 94.84 Z" />
</g>
<g id="#6d5617f9">
<path fill="#6d5617" opacity="0.98" d=" M 81.19 95.04 C 84.14 95.41 86.57 96.58 86.92 99.80 C 77.62 103.27 69.56 112.04 59.24 111.62 C 53.99 109.98 48.51 109.21 43.04 108.83 C 43.04 108.40 43.05 107.53 43.06 107.09 C 48.54 106.53 54.23 105.73 59.60 107.51 C 62.75 108.00 67.05 109.22 69.20 106.19 C 73.46 102.77 80.31 101.23 81.19 95.04 Z" />
</g>
<g id="#705616fc">
<path fill="#705616" opacity="1.00" d=" M 135.83 98.92 C 138.99 100.13 141.89 99.13 144.76 97.72 C 146.36 105.50 141.79 113.68 145.21 121.16 C 138.98 126.36 131.30 132.32 131.11 141.15 C 131.07 141.57 131.00 142.40 130.96 142.82 L 129.97 143.06 L 129.91 142.04 C 129.97 138.97 130.88 136.01 131.04 132.96 C 126.17 133.06 121.61 135.23 117.28 137.29 C 117.19 137.93 117.01 139.22 116.92 139.87 C 116.10 141.91 112.21 141.21 110.17 142.23 C 109.79 141.20 109.37 140.18 108.93 139.18 C 116.40 133.19 125.79 130.82 133.77 125.77 C 140.22 120.35 140.33 110.83 139.94 103.15 C 137.92 102.20 135.40 101.78 135.83 98.92 Z" />
</g>
<g id="#502f1df1">
<path fill="#502f1d" opacity="0.95" d=" M 163.01 103.05 C 163.93 100.46 165.76 97.16 169.04 97.99 C 169.08 99.68 168.96 101.43 167.86 102.82 C 165.90 104.36 168.46 106.26 169.86 107.02 C 170.98 106.02 171.20 104.51 170.76 103.12 C 170.65 101.48 168.85 98.47 171.81 98.89 C 174.48 99.58 175.22 102.67 175.89 105.02 C 175.15 108.13 172.29 110.87 169.05 110.99 C 165.64 110.04 162.57 106.75 163.01 103.05 Z" />
</g>
<g id="#7a5e19ff">
<path fill="#7a5e19" opacity="1.00" d=" M 133.75 102.70 C 134.39 101.43 134.75 99.92 135.83 98.92 C 135.40 101.78 137.92 102.20 139.94 103.15 C 140.33 110.83 140.22 120.35 133.77 125.77 C 125.79 130.82 116.40 133.19 108.93 139.18 C 108.25 138.56 107.59 137.93 106.94 137.29 C 111.42 136.26 114.15 132.06 118.36 130.45 C 124.69 127.57 132.24 125.06 134.78 117.83 C 136.23 112.86 137.15 107.06 133.75 102.70 Z" />
</g>
<g id="#b89327ff">
<path fill="#b89327" opacity="1.00" d=" M 20.29 101.13 C 21.26 101.78 22.15 102.53 23.07 103.25 L 23.38 103.87 C 24.16 106.30 21.42 107.50 19.98 108.94 C 20.31 107.06 22.55 102.96 18.84 104.14 C 19.32 103.14 19.81 102.13 20.29 101.13 Z" />
</g>
<g id="#84681cff">
<path fill="#84681c" opacity="1.00" d=" M 128.97 105.68 C 130.22 104.16 131.70 102.86 133.75 102.70 C 137.15 107.06 136.23 112.86 134.78 117.83 C 132.24 125.06 124.69 127.57 118.36 130.45 C 114.15 132.06 111.42 136.26 106.94 137.29 C 106.60 136.95 105.92 136.27 105.58 135.93 L 105.99 135.15 C 110.64 134.77 113.29 130.22 117.31 128.31 C 122.31 124.90 129.61 122.75 131.21 116.13 C 132.53 112.72 131.74 108.12 128.97 105.68 Z" />
</g>
<g id="#03020119">
<path fill="#030201" opacity="0.10" d=" M 169.86 107.02 C 168.46 106.26 165.90 104.36 167.86 102.82 C 168.59 102.89 170.04 103.04 170.76 103.12 C 171.20 104.51 170.98 106.02 169.86 107.02 Z" />
</g>
<g id="#d9b02ffe">
<path fill="#d9b02f" opacity="1.00" d=" M 14.78 104.13 C 15.79 104.35 16.85 105.03 17.87 104.45 L 18.84 104.14 C 22.55 102.96 20.31 107.06 19.98 108.94 L 19.35 109.46 C 17.49 108.11 15.23 106.54 14.78 104.13 Z" />
</g>
<g id="#85701ff9">
<path fill="#85701f" opacity="0.98" d=" M 23.38 103.87 C 29.61 104.06 34.06 109.51 40.32 109.59 C 42.12 109.48 46.09 111.09 42.08 111.10 C 34.28 111.07 26.72 107.73 18.86 110.04 L 19.35 109.46 L 19.98 108.94 C 21.42 107.50 24.16 106.30 23.38 103.87 Z" />
</g>
<g id="#f6ce39fd">
<path fill="#f6ce39" opacity="1.00" d=" M 94.78 106.60 C 95.07 106.54 95.66 106.43 95.96 106.38 C 96.58 106.93 97.21 107.48 97.85 108.03 C 99.38 112.58 97.64 117.35 98.81 121.95 C 96.98 127.46 92.99 132.02 89.89 136.85 C 87.21 141.03 84.19 145.24 80.04 148.03 C 78.17 147.25 78.21 144.38 77.22 142.71 C 77.29 140.12 79.72 145.24 80.61 143.55 C 85.08 137.59 88.72 131.07 92.96 124.96 C 93.76 122.93 96.62 121.07 95.38 118.68 C 94.93 114.67 94.73 110.65 94.78 106.60 Z" />
</g>
<g id="#bd9a2fff">
<path fill="#bd9a2f" opacity="1.00" d=" M 107.00 106.67 C 107.44 106.54 108.32 106.29 108.76 106.16 C 109.89 107.91 111.88 108.05 113.78 108.09 C 113.38 109.45 114.09 110.64 114.56 111.86 C 113.00 117.23 107.09 119.95 105.52 125.38 C 105.87 127.51 104.80 131.42 101.95 130.96 C 103.37 128.94 105.14 126.87 103.95 123.96 C 103.90 119.46 108.09 116.57 109.94 112.85 C 110.48 110.37 108.70 108.21 107.00 106.67 Z" />
</g>
<g id="#90721fff">
<path fill="#90721f" opacity="1.00" d=" M 126.07 107.14 C 127.06 106.70 128.03 106.21 128.97 105.68 C 131.74 108.12 132.53 112.72 131.21 116.13 C 129.61 122.75 122.31 124.90 117.31 128.31 C 113.29 130.22 110.64 134.77 105.99 135.15 L 106.18 134.12 C 112.68 129.04 119.18 123.83 125.79 118.81 C 128.97 115.72 128.50 110.57 126.07 107.14 Z" />
</g>
<g id="#e3b832ff">
<path fill="#e3b832" opacity="1.00" d=" M 97.85 108.03 C 98.83 107.45 99.93 107.50 100.91 108.05 C 102.91 113.23 98.96 118.15 100.58 123.35 C 101.58 125.97 99.18 128.03 97.91 130.03 C 91.44 136.83 87.95 146.92 78.89 150.90 C 76.83 154.27 75.96 158.53 74.20 162.16 C 73.22 164.02 75.30 164.65 76.62 165.27 C 77.18 165.45 78.30 165.81 78.87 165.99 C 79.34 166.09 80.29 166.30 80.77 166.41 C 81.81 166.65 82.87 166.86 83.93 167.04 C 85.58 172.15 80.60 175.55 75.95 175.13 L 76.08 174.12 C 78.94 174.56 78.09 171.49 76.78 170.22 C 74.79 166.75 70.79 163.59 71.56 159.17 C 72.81 153.37 77.86 149.00 77.22 142.71 C 78.21 144.38 78.17 147.25 80.04 148.03 C 84.19 145.24 87.21 141.03 89.89 136.85 C 92.99 132.02 96.98 127.46 98.81 121.95 C 97.64 117.35 99.38 112.58 97.85 108.03 Z" />
</g>
<g id="#caa42dff">
<path fill="#caa42d" opacity="1.00" d=" M 104.97 108.18 C 105.48 107.80 106.49 107.04 107.00 106.67 C 108.70 108.21 110.48 110.37 109.94 112.85 C 108.09 116.57 103.90 119.46 103.95 123.96 C 105.14 126.87 103.37 128.94 101.95 130.96 C 101.28 131.05 99.93 131.23 99.26 131.32 C 94.72 136.58 91.36 142.74 87.08 148.20 C 86.46 148.82 85.83 149.42 85.20 150.01 C 82.97 150.51 80.52 151.14 79.36 153.32 C 78.62 157.34 77.32 161.23 76.62 165.27 C 75.30 164.65 73.22 164.02 74.20 162.16 C 75.96 158.53 76.83 154.27 78.89 150.90 C 87.95 146.92 91.44 136.83 97.91 130.03 C 103.17 129.60 101.69 123.93 102.22 120.13 C 103.68 116.23 106.91 112.50 104.97 108.18 Z" />
</g>
<g id="#a78726ff">
<path fill="#a78726" opacity="1.00" d=" M 116.95 107.89 C 118.98 107.09 120.91 108.73 122.89 107.99 C 123.74 111.25 124.75 115.36 121.72 117.74 C 116.25 121.86 111.76 127.05 106.69 131.62 C 106.25 131.70 105.37 131.85 104.94 131.93 C 108.30 127.00 110.66 121.21 116.07 118.08 C 119.62 115.98 119.80 110.68 116.95 107.89 Z" />
</g>
<g id="#9c7c22ff">
<path fill="#9c7c22" opacity="1.00" d=" M 122.89 107.99 C 123.94 107.66 125.01 107.41 126.07 107.14 C 128.50 110.57 128.97 115.72 125.79 118.81 C 119.18 123.83 112.68 129.04 106.18 134.12 C 99.71 134.52 96.85 141.87 93.32 146.26 C 91.88 146.91 90.46 147.69 88.87 147.87 C 93.57 142.92 96.95 136.72 102.29 132.38 C 102.95 132.27 104.28 132.04 104.94 131.93 C 105.37 131.85 106.25 131.70 106.69 131.62 C 111.76 127.05 116.25 121.86 121.72 117.74 C 124.75 115.36 123.74 111.25 122.89 107.99 Z" />
</g>
<g id="#d4b032ff">
<path fill="#d4b032" opacity="1.00" d=" M 100.91 108.05 C 102.23 108.73 103.62 108.86 104.97 108.18 C 106.91 112.50 103.68 116.23 102.22 120.13 C 101.69 123.93 103.17 129.60 97.91 130.03 C 99.18 128.03 101.58 125.97 100.58 123.35 C 98.96 118.15 102.91 113.23 100.91 108.05 Z" />
</g>
<g id="#b49028ff">
<path fill="#b49028" opacity="1.00" d=" M 113.78 108.09 C 114.57 108.04 116.16 107.94 116.95 107.89 C 119.80 110.68 119.62 115.98 116.07 118.08 C 110.66 121.21 108.30 127.00 104.94 131.93 C 104.28 132.04 102.95 132.27 102.29 132.38 C 96.95 136.72 93.57 142.92 88.87 147.87 C 88.42 147.96 87.52 148.12 87.08 148.20 C 91.36 142.74 94.72 136.58 99.26 131.32 C 99.93 131.23 101.28 131.05 101.95 130.96 C 104.80 131.42 105.87 127.51 105.52 125.38 C 107.09 119.95 113.00 117.23 114.56 111.86 C 114.09 110.64 113.38 109.45 113.78 108.09 Z" />
</g>
<g id="#f7e942fb">
<path fill="#f7e942" opacity="1.00" d=" M 77.10 134.06 C 80.89 126.61 89.06 123.55 95.38 118.68 C 96.62 121.07 93.76 122.93 92.96 124.96 C 88.72 131.07 85.08 137.59 80.61 143.55 C 79.72 145.24 77.29 140.12 77.22 142.71 C 77.86 149.00 72.81 153.37 71.56 159.17 C 71.41 158.64 71.11 157.58 70.96 157.05 C 71.34 149.11 72.43 140.76 77.10 134.06 Z" />
</g>
<g id="#977820fe">
<path fill="#977820" opacity="1.00" d=" M 145.21 121.16 C 146.12 121.71 147.99 121.55 148.01 122.93 C 141.29 126.38 135.98 132.18 132.53 138.84 C 132.06 139.62 131.59 140.39 131.11 141.15 C 131.30 132.32 138.98 126.36 145.21 121.16 Z" />
</g>
<g id="#c79e2bff">
<path fill="#c79e2b" opacity="1.00" d=" M 132.53 138.84 C 135.98 132.18 141.29 126.38 148.01 122.93 C 148.33 123.26 148.96 123.91 149.27 124.23 C 143.26 126.87 138.84 131.58 135.07 136.82 C 139.93 141.39 147.34 146.69 153.69 141.67 C 155.58 137.78 155.61 133.25 156.10 129.02 C 158.33 129.76 160.30 131.25 160.79 133.66 C 158.12 135.90 159.55 139.70 158.67 142.72 C 157.05 146.77 152.70 150.08 148.09 148.99 C 144.50 147.39 141.39 144.96 137.93 143.14 C 136.10 141.78 133.14 141.39 132.53 138.84 Z" />
</g>
<g id="#e7b833fe">
<path fill="#e7b833" opacity="1.00" d=" M 149.27 124.23 C 151.66 125.37 154.77 126.76 156.10 129.02 C 155.61 133.25 155.58 137.78 153.69 141.67 C 147.34 146.69 139.93 141.39 135.07 136.82 C 138.84 131.58 143.26 126.87 149.27 124.23 Z" />
</g>
<g id="#5f4310fb">
<path fill="#5f4310" opacity="1.00" d=" M 117.28 137.29 C 121.61 135.23 126.17 133.06 131.04 132.96 C 130.88 136.01 129.97 138.97 129.91 142.04 C 125.73 140.46 121.36 140.01 116.92 139.87 C 117.01 139.22 117.19 137.93 117.28 137.29 Z" />
</g>
<g id="#7e5f18ff">
<path fill="#7e5f18" opacity="1.00" d=" M 93.32 146.26 C 96.85 141.87 99.71 134.52 106.18 134.12 L 105.99 135.15 L 105.58 135.93 C 99.95 139.07 96.56 144.82 92.83 149.87 C 88.46 154.63 87.64 161.18 86.72 167.29 C 86.03 167.22 84.63 167.10 83.93 167.04 C 84.73 163.11 85.78 159.24 86.33 155.28 C 88.14 151.87 91.46 149.62 93.32 146.26 Z" />
</g>
<g id="#ae8924fd">
<path fill="#ae8924" opacity="1.00" d=" M 158.67 142.72 C 159.55 139.70 158.12 135.90 160.79 133.66 C 162.02 134.98 164.01 136.79 163.82 138.67 C 162.04 140.59 159.83 142.46 160.48 145.62 C 158.79 152.11 150.43 153.61 144.99 151.02 C 142.94 150.41 139.94 147.87 139.08 151.16 C 138.89 150.79 138.51 150.06 138.33 149.69 C 137.05 146.34 133.55 144.94 130.96 142.82 C 131.00 142.40 131.07 141.57 131.11 141.15 C 131.59 140.39 132.06 139.62 132.53 138.84 C 133.14 141.39 136.10 141.78 137.93 143.14 C 141.39 144.96 144.50 147.39 148.09 148.99 C 152.70 150.08 157.05 146.77 158.67 142.72 Z" />
</g>
<g id="#694b12ff">
<path fill="#694b12" opacity="1.00" d=" M 92.83 149.87 C 96.56 144.82 99.95 139.07 105.58 135.93 C 105.92 136.27 106.60 136.95 106.94 137.29 C 107.59 137.93 108.25 138.56 108.93 139.18 C 109.37 140.18 109.79 141.20 110.17 142.23 C 108.38 141.66 107.55 139.85 105.98 138.98 C 99.15 141.75 96.29 149.71 92.38 155.36 C 93.91 157.75 87.65 166.36 93.09 166.21 C 91.50 166.48 88.32 167.02 86.72 167.29 C 87.64 161.18 88.46 154.63 92.83 149.87 Z" />
</g>
<g id="#553d0ef9">
<path fill="#553d0e" opacity="0.98" d=" M 92.38 155.36 C 96.29 149.71 99.15 141.75 105.98 138.98 C 107.55 139.85 108.38 141.66 110.17 142.23 C 107.27 144.29 103.37 145.32 101.52 148.59 C 98.16 153.05 99.39 159.75 96.01 164.08 C 95.03 164.78 94.08 165.53 93.09 166.21 C 87.65 166.36 93.91 157.75 92.38 155.36 Z" />
</g>
<g id="#98771ffe">
<path fill="#98771f" opacity="1.00" d=" M 160.48 145.62 C 159.83 142.46 162.04 140.59 163.82 138.67 C 166.72 139.53 166.00 142.75 166.05 145.08 C 166.18 147.13 165.82 147.36 164.96 145.75 C 164.25 144.08 163.24 146.93 163.06 147.64 C 162.82 148.22 162.34 149.37 162.10 149.95 C 159.65 151.93 157.10 154.05 153.83 154.37 L 153.20 153.86 C 150.37 153.68 146.95 156.19 143.98 157.14 C 145.00 160.09 146.43 162.96 145.99 166.19 C 144.99 165.88 144.02 165.49 143.09 165.01 C 143.27 162.21 142.21 159.65 140.20 157.72 C 139.93 157.24 139.39 156.27 139.12 155.79 C 139.08 154.24 139.07 152.70 139.08 151.16 C 139.94 147.87 142.94 150.41 144.99 151.02 C 150.43 153.61 158.79 152.11 160.48 145.62 Z" />
</g>
<g id="#75641bf2">
<path fill="#75641b" opacity="0.95" d=" M 163.06 147.64 C 163.24 146.93 164.25 144.08 164.96 145.75 C 165.82 147.36 166.18 147.13 166.05 145.08 C 169.18 147.55 165.50 154.05 165.74 158.23 C 165.17 154.63 164.50 151.01 163.06 147.64 Z" />
</g>
<g id="#8e6e1cff">
<path fill="#8e6e1c" opacity="1.00" d=" M 88.87 147.87 C 90.46 147.69 91.88 146.91 93.32 146.26 C 91.46 149.62 88.14 151.87 86.33 155.28 C 85.78 159.24 84.73 163.11 83.93 167.04 C 82.87 166.86 81.81 166.65 80.77 166.41 C 83.31 161.55 82.72 155.83 84.93 150.84 L 85.20 150.01 C 85.83 149.42 86.46 148.82 87.08 148.20 C 87.52 148.12 88.42 147.96 88.87 147.87 Z" />
</g>
<g id="#6f5615fd">
<path fill="#6f5615" opacity="1.00" d=" M 163.06 147.64 C 164.50 151.01 165.17 154.63 165.74 158.23 C 166.06 159.85 166.13 161.56 165.71 163.18 C 160.55 164.64 155.16 164.98 150.02 166.53 C 148.39 163.91 150.12 160.11 152.72 158.70 C 154.73 157.76 153.21 155.47 153.20 153.86 L 153.83 154.37 C 156.90 158.49 162.52 154.08 162.10 149.95 C 162.34 149.37 162.82 148.22 163.06 147.64 Z" />
</g>
<g id="#b69228ff">
<path fill="#b69228" opacity="1.00" d=" M 79.36 153.32 C 80.52 151.14 82.97 150.51 85.20 150.01 L 84.93 150.84 C 83.70 151.62 82.40 152.30 81.31 153.28 C 81.30 157.68 79.19 161.65 78.87 165.99 C 78.30 165.81 77.18 165.45 76.62 165.27 C 77.32 161.23 78.62 157.34 79.36 153.32 Z" />
</g>
<g id="#100c0348">
<path fill="#100c03" opacity="0.28" d=" M 138.33 149.69 C 138.51 150.06 138.89 150.79 139.08 151.16 C 139.07 152.70 139.08 154.24 139.12 155.79 C 139.08 157.53 139.03 159.27 138.98 161.01 L 137.99 161.00 C 138.07 158.18 138.24 152.52 138.33 149.69 Z" />
</g>
<g id="#83691cff">
<path fill="#83691c" opacity="1.00" d=" M 153.83 154.37 C 157.10 154.05 159.65 151.93 162.10 149.95 C 162.52 154.08 156.90 158.49 153.83 154.37 Z" />
</g>
<g id="#a28023ff">
<path fill="#a28023" opacity="1.00" d=" M 81.31 153.28 C 82.40 152.30 83.70 151.62 84.93 150.84 C 82.72 155.83 83.31 161.55 80.77 166.41 C 80.29 166.30 79.34 166.09 78.87 165.99 C 79.19 161.65 81.30 157.68 81.31 153.28 Z" />
</g>
<g id="#88671aff">
<path fill="#88671a" opacity="1.00" d=" M 143.98 157.14 C 146.95 156.19 150.37 153.68 153.20 153.86 C 153.21 155.47 154.73 157.76 152.72 158.70 C 150.12 160.11 148.39 163.91 150.02 166.53 C 148.67 167.07 147.27 166.76 145.99 166.19 C 146.43 162.96 145.00 160.09 143.98 157.14 Z" />
</g>
<g id="#e3b330fe">
<path fill="#e3b330" opacity="1.00" d=" M 139.12 155.79 C 139.39 156.27 139.93 157.24 140.20 157.72 C 139.85 160.40 140.19 163.88 143.09 165.01 C 144.02 165.49 144.99 165.88 145.99 166.19 C 147.27 166.76 148.67 167.07 150.02 166.53 C 155.16 164.98 160.55 164.64 165.71 163.18 C 168.18 164.38 171.04 164.75 173.27 166.42 C 168.95 168.52 164.09 169.41 159.85 171.82 C 154.12 175.05 147.76 169.61 141.89 171.82 C 137.39 171.92 139.44 164.48 138.98 161.01 C 139.03 159.27 139.08 157.53 139.12 155.79 Z" />
</g>
<g id="#f5d339fc">
<path fill="#f5d339" opacity="1.00" d=" M 66.02 167.06 C 71.83 166.67 68.08 158.34 70.96 157.05 C 71.11 157.58 71.41 158.64 71.56 159.17 C 70.79 163.59 74.79 166.75 76.78 170.22 C 78.09 171.49 78.94 174.56 76.08 174.12 C 73.96 174.18 71.72 175.31 69.69 174.27 C 66.90 172.60 63.97 174.79 61.12 175.15 C 59.99 171.26 61.91 167.94 66.02 167.06 Z" />
</g>
<g id="#b78a22fe">
<path fill="#b78a22" opacity="1.00" d=" M 140.20 157.72 C 142.21 159.65 143.27 162.21 143.09 165.01 C 140.19 163.88 139.85 160.40 140.20 157.72 Z" />
</g>
<g id="#87681bff">
<path fill="#87681b" opacity="1.00" d=" M 93.09 166.21 C 94.08 165.53 95.03 164.78 96.01 164.08 C 96.05 166.03 96.06 167.98 96.01 169.94 C 91.55 167.74 86.85 173.65 84.72 176.90 C 84.00 176.90 82.54 176.92 81.81 176.92 C 83.84 173.05 88.11 171.31 91.10 168.31 C 89.64 167.97 88.17 167.66 86.72 167.29 C 88.32 167.02 91.50 166.48 93.09 166.21 Z" />
</g>
<g id="#a98a26fa">
<path fill="#a98a26" opacity="0.98" d=" M 173.27 166.42 C 174.21 166.23 174.90 166.83 175.36 168.22 C 172.57 172.66 163.60 168.87 161.16 174.06 L 160.91 174.50 C 154.57 176.51 148.33 173.54 142.05 172.76 L 141.89 171.82 C 147.76 169.61 154.12 175.05 159.85 171.82 C 164.09 169.41 168.95 168.52 173.27 166.42 Z" />
</g>
<g id="#ab8725fc">
<path fill="#ab8725" opacity="1.00" d=" M 83.93 167.04 C 84.63 167.10 86.03 167.22 86.72 167.29 C 88.17 167.66 89.64 167.97 91.10 168.31 C 88.11 171.31 83.84 173.05 81.81 176.92 C 78.42 175.95 70.74 179.01 69.02 176.08 C 71.36 176.00 73.67 175.63 75.95 175.13 C 80.60 175.55 85.58 172.15 83.93 167.04 Z" />
</g>
<g id="#77631bf3">
<path fill="#77631b" opacity="0.95" d=" M 175.36 168.22 C 176.94 167.39 175.66 170.91 175.88 171.83 C 173.69 173.85 170.52 173.45 167.80 173.93 C 166.14 173.96 162.82 174.03 161.16 174.06 C 163.60 168.87 172.57 172.66 175.36 168.22 Z" />
</g>
<g id="#645014f3">
<path fill="#645014" opacity="0.95" d=" M 84.72 176.90 C 86.85 173.65 91.55 167.74 96.01 169.94 C 96.90 175.51 88.84 175.88 84.72 176.90 Z" />
</g>
<g id="#c9ac31fe">
<path fill="#c9ac31" opacity="1.00" d=" M 61.12 175.15 C 63.97 174.79 66.90 172.60 69.69 174.27 C 71.72 175.31 73.96 174.18 76.08 174.12 L 75.95 175.13 C 73.67 175.63 71.36 176.00 69.02 176.08 C 66.74 175.56 61.56 177.30 61.12 175.15 Z" />
</g>
<g id="#1511046b">
<path fill="#151104" opacity="0.42" d=" M 161.16 174.06 C 162.82 174.03 166.14 173.96 167.80 173.93 C 166.88 176.05 162.78 175.25 160.91 174.50 L 161.16 174.06 Z" />
</g>
</svg>
