<?xml version="1.0" encoding="UTF-8" ?>
<!DOCTYPE svg PUBLIC "-//W3C//DTD SVG 1.1//EN" "http://www.w3.org/Graphics/SVG/1.1/DTD/svg11.dtd">
<svg width="198pt" height="150pt" viewBox="0 0 198 150" version="1.1" xmlns="http://www.w3.org/2000/svg">
<g id="#f6a257fd">
<path fill="#f6a257" opacity="1.00" d=" M 56.19 15.11 C 58.04 13.70 62.28 15.42 62.79 16.93 C 61.22 21.52 66.54 25.05 67.60 29.39 C 71.14 37.19 67.00 33.08 64.88 32.09 C 64.04 31.59 63.18 31.11 62.32 30.64 C 59.76 28.72 56.41 28.00 53.25 28.10 C 50.58 28.32 46.11 28.36 45.80 31.87 C 44.23 38.56 46.10 46.66 41.46 52.42 C 40.42 54.14 38.31 55.47 36.25 54.86 C 35.08 53.63 34.15 52.23 33.13 50.89 C 32.94 52.48 32.58 55.67 32.40 57.27 C 30.07 51.21 31.49 44.76 33.82 38.90 C 36.07 33.61 37.42 27.50 40.97 23.02 C 45.55 19.38 50.50 16.70 56.19 15.11 Z" />
</g>
<g id="#e2c265ef">
<path fill="#e2c265" opacity="0.94" d=" M 40.97 23.02 C 42.42 17.12 50.62 14.74 56.19 15.11 C 50.50 16.70 45.55 19.38 40.97 23.02 Z" />
</g>
<g id="#f1a155fa">
<path fill="#f1a155" opacity="0.98" d=" M 134.01 15.98 C 136.46 14.34 139.71 15.24 142.24 16.32 C 141.14 16.65 140.04 16.98 138.94 17.31 C 140.68 19.65 143.63 20.57 145.93 22.24 C 146.94 25.64 142.36 28.46 139.36 26.57 C 136.09 26.14 132.87 26.65 129.76 27.56 C 128.41 27.90 127.06 28.24 125.76 28.73 C 122.62 29.73 119.76 31.36 116.97 33.09 C 118.98 24.75 126.73 19.50 134.01 15.98 Z" />
</g>
<g id="#d88243fe">
<path fill="#d88243" opacity="1.00" d=" M 142.24 16.32 C 146.09 16.41 149.86 18.87 152.98 21.10 C 152.43 21.83 151.90 22.57 151.39 23.33 C 150.63 34.41 157.59 46.05 152.79 56.82 C 148.99 59.41 144.51 60.74 140.14 62.04 C 139.65 60.69 139.21 59.33 138.81 57.96 C 139.00 56.21 139.24 54.45 139.71 52.75 C 140.02 54.28 140.64 57.33 140.95 58.85 C 149.88 56.79 152.06 45.06 147.80 38.19 C 145.85 34.62 141.47 36.23 139.70 39.08 C 139.45 38.62 138.96 37.71 138.72 37.25 C 139.73 35.72 141.52 34.28 140.95 32.22 C 137.06 30.65 134.50 26.88 129.76 27.56 C 132.87 26.65 136.09 26.14 139.36 26.57 C 142.36 28.46 146.94 25.64 145.93 22.24 C 143.63 20.57 140.68 19.65 138.94 17.31 C 140.04 16.98 141.14 16.65 142.24 16.32 Z" />
</g>
<g id="#bf723cf8">
<path fill="#bf723c" opacity="0.97" d=" M 62.79 16.93 C 66.14 19.08 68.55 24.00 69.07 28.00 C 69.24 30.53 68.99 32.98 68.31 35.37 C 67.01 35.29 65.96 34.76 65.15 33.78 C 65.09 33.36 64.95 32.52 64.88 32.09 C 67.00 33.08 71.14 37.19 67.60 29.39 C 66.54 25.05 61.22 21.52 62.79 16.93 Z" />
</g>
<g id="#b96c36fe">
<path fill="#b96c36" opacity="1.00" d=" M 152.98 21.10 C 154.61 21.39 156.17 23.18 155.96 24.93 C 156.86 35.37 162.19 45.08 159.93 55.88 C 154.86 60.50 148.30 64.48 141.17 63.95 C 140.91 63.47 140.40 62.52 140.14 62.04 C 144.51 60.74 148.99 59.41 152.79 56.82 C 157.59 46.05 150.63 34.41 151.39 23.33 C 151.90 22.57 152.43 21.83 152.98 21.10 Z" />
</g>
<g id="#9f592afc">
<path fill="#9f592a" opacity="1.00" d=" M 155.96 24.93 C 157.96 25.38 158.01 27.74 158.64 29.31 C 160.68 36.10 163.79 42.80 164.03 49.99 C 164.02 52.66 164.00 55.34 163.98 58.02 C 163.37 60.40 162.97 63.66 160.99 65.14 C 160.34 64.35 159.67 63.59 158.97 62.86 C 155.67 65.56 152.70 68.80 148.80 70.68 C 145.35 69.92 142.87 66.87 139.95 65.05 C 137.32 66.77 135.56 70.14 132.10 70.20 C 128.88 68.26 124.87 66.87 122.67 63.75 C 128.22 63.27 134.82 63.61 138.09 58.25 L 138.81 57.96 C 139.21 59.33 139.65 60.69 140.14 62.04 C 140.40 62.52 140.91 63.47 141.17 63.95 C 148.30 64.48 154.86 60.50 159.93 55.88 C 162.19 45.08 156.86 35.37 155.96 24.93 Z" />
</g>
<g id="#de8745fe">
<path fill="#de8745" opacity="1.00" d=" M 45.80 31.87 C 46.11 28.36 50.58 28.32 53.25 28.10 C 51.75 29.43 49.87 30.17 48.21 31.26 C 45.87 38.56 47.81 46.60 44.64 53.68 C 41.97 57.53 37.00 58.62 33.15 60.99 C 32.82 59.77 32.04 58.57 32.40 57.27 C 32.58 55.67 32.94 52.48 33.13 50.89 C 34.15 52.23 35.08 53.63 36.25 54.86 C 38.31 55.47 40.42 54.14 41.46 52.42 C 46.10 46.66 44.23 38.56 45.80 31.87 Z" />
</g>
<g id="#bd7039fe">
<path fill="#bd7039" opacity="1.00" d=" M 53.25 28.10 C 56.41 28.00 59.76 28.72 62.32 30.64 C 58.25 30.47 53.28 28.62 50.28 32.29 C 48.76 34.30 49.05 36.85 49.13 39.21 C 48.64 43.78 47.62 48.27 46.73 52.77 C 46.19 54.16 45.67 55.56 45.09 56.94 C 41.08 59.30 38.80 63.43 35.20 66.16 C 34.13 64.61 33.70 62.76 33.15 60.99 C 37.00 58.62 41.97 57.53 44.64 53.68 C 47.81 46.60 45.87 38.56 48.21 31.26 C 49.87 30.17 51.75 29.43 53.25 28.10 Z" />
</g>
<g id="#854b26e4">
<path fill="#854b26" opacity="0.89" d=" M 69.07 28.00 C 72.44 27.57 69.34 33.80 69.93 35.95 C 69.52 35.80 68.71 35.51 68.31 35.37 C 68.99 32.98 69.24 30.53 69.07 28.00 Z" />
</g>
<g id="#b56a35ff">
<path fill="#b56a35" opacity="1.00" d=" M 125.76 28.73 C 127.06 28.24 128.41 27.90 129.76 27.56 C 134.50 26.88 137.06 30.65 140.95 32.22 C 141.52 34.28 139.73 35.72 138.72 37.25 C 138.13 36.55 137.56 35.84 136.99 35.13 C 136.41 33.47 136.40 31.30 134.69 30.34 C 131.62 30.30 128.64 29.74 125.76 28.73 Z" />
</g>
<g id="#8f4f26f9">
<path fill="#8f4f26" opacity="0.98" d=" M 116.97 33.09 C 119.76 31.36 122.62 29.73 125.76 28.73 C 128.64 29.74 131.62 30.30 134.69 30.34 C 136.40 31.30 136.41 33.47 136.99 35.13 C 133.09 33.75 129.28 31.45 124.98 31.96 C 122.28 32.53 119.67 33.47 116.97 34.03 L 116.97 33.09 Z" />
</g>
<g id="#9b582afe">
<path fill="#9b582a" opacity="1.00" d=" M 50.28 32.29 C 53.28 28.62 58.25 30.47 62.32 30.64 C 63.18 31.11 64.04 31.59 64.88 32.09 C 64.95 32.52 65.09 33.36 65.15 33.78 C 64.65 33.73 63.64 33.62 63.14 33.56 C 57.66 31.80 50.90 33.20 49.13 39.21 C 49.05 36.85 48.76 34.30 50.28 32.29 Z" />
</g>
<g id="#301e11f8">
<path fill="#301e11" opacity="0.97" d=" M 124.98 31.96 C 129.28 31.45 133.09 33.75 136.99 35.13 C 137.56 35.84 138.13 36.55 138.72 37.25 C 138.96 37.71 139.45 38.62 139.70 39.08 C 139.88 43.62 140.20 48.21 139.71 52.75 C 139.24 54.45 139.00 56.21 138.81 57.96 L 138.09 58.25 C 136.02 57.57 133.87 57.11 131.86 56.28 C 135.91 56.64 132.34 51.05 134.99 49.98 C 136.45 47.22 137.15 41.12 135.22 37.73 C 133.15 33.90 127.23 34.12 124.98 31.96 Z" />
</g>
<g id="#301e12fc">
<path fill="#301e12" opacity="1.00" d=" M 49.13 39.21 C 50.90 33.20 57.66 31.80 63.14 33.56 C 58.72 37.15 59.87 44.29 60.66 49.21 C 57.48 52.99 53.07 55.49 48.11 55.92 L 47.24 56.10 C 47.11 55.27 46.86 53.60 46.73 52.77 C 47.62 48.27 48.64 43.78 49.13 39.21 Z" />
</g>
<g id="#f6974bff">
<path fill="#f6974b" opacity="1.00" d=" M 139.70 39.08 C 141.47 36.23 145.85 34.62 147.80 38.19 C 152.06 45.06 149.88 56.79 140.95 58.85 C 140.64 57.33 140.02 54.28 139.71 52.75 C 140.20 48.21 139.88 43.62 139.70 39.08 Z" />
</g>
<g id="#784823cf">
<path fill="#784823" opacity="0.81" d=" M 135.22 37.73 C 137.15 41.12 136.45 47.22 134.99 49.98 C 134.92 45.89 135.00 41.81 135.22 37.73 Z" />
</g>
<g id="#150d074c">
<path fill="#150d07" opacity="0.30" d=" M 119.00 53.99 C 119.26 51.46 119.78 46.39 120.04 43.86 C 120.01 47.24 120.01 50.63 119.98 54.01 L 119.00 53.99 Z" />
</g>
<g id="#cc7c40fc">
<path fill="#cc7c40" opacity="1.00" d=" M 120.04 43.86 C 124.29 47.60 126.20 53.81 131.86 56.28 C 133.87 57.11 136.02 57.57 138.09 58.25 C 134.82 63.61 128.22 63.27 122.67 63.75 C 119.41 62.77 120.60 56.95 119.98 54.01 C 120.01 50.63 120.01 47.24 120.04 43.86 Z" />
</g>
<g id="#d98547fd">
<path fill="#d98547" opacity="1.00" d=" M 60.66 49.21 C 61.95 47.86 62.87 45.29 65.20 46.21 C 65.07 46.85 64.82 48.12 64.69 48.76 C 64.07 50.43 63.45 52.10 62.87 53.78 C 61.16 56.16 59.77 58.74 58.30 61.26 C 55.25 61.53 52.20 62.07 49.14 61.93 C 48.39 60.00 48.34 57.94 48.11 55.92 C 53.07 55.49 57.48 52.99 60.66 49.21 Z" />
</g>
<g id="#633b19cd">
<path fill="#633b19" opacity="0.80" d=" M 65.20 46.21 C 66.62 47.23 66.62 51.81 65.17 52.82 C 65.01 51.47 64.85 50.11 64.69 48.76 C 64.82 48.12 65.07 46.85 65.20 46.21 Z" />
</g>
<g id="#834820f8">
<path fill="#834820" opacity="0.97" d=" M 62.87 53.78 C 63.45 52.10 64.07 50.43 64.69 48.76 C 64.85 50.11 65.01 51.47 65.17 52.82 C 65.30 56.56 64.57 60.20 63.73 63.82 C 58.75 66.34 54.54 70.99 49.04 72.21 C 47.51 71.97 45.97 71.72 44.55 71.08 C 47.11 69.84 49.73 68.72 52.14 67.21 C 58.02 64.88 62.86 60.63 62.87 53.78 Z" />
</g>
<g id="#51341aae">
<path fill="#51341a" opacity="0.68" d=" M 164.03 49.99 C 166.21 50.91 164.54 55.57 164.95 57.97 L 163.98 58.02 C 164.00 55.34 164.02 52.66 164.03 49.99 Z" />
</g>
<g id="#925228fe">
<path fill="#925228" opacity="1.00" d=" M 45.09 56.94 C 45.67 55.56 46.19 54.16 46.73 52.77 C 46.86 53.60 47.11 55.27 47.24 56.10 C 46.85 57.74 46.27 59.32 45.59 60.86 C 42.04 64.91 48.50 67.99 52.14 67.21 C 49.73 68.72 47.11 69.84 44.55 71.08 C 42.69 70.29 40.64 69.63 38.73 70.72 C 37.82 70.14 36.94 69.54 36.05 68.94 L 36.19 68.16 C 36.80 68.03 38.03 67.77 38.65 67.64 C 40.33 63.79 43.45 60.77 45.09 56.94 Z" />
</g>
<g id="#a65f2fff">
<path fill="#a65f2f" opacity="1.00" d=" M 58.30 61.26 C 59.77 58.74 61.16 56.16 62.87 53.78 C 62.86 60.63 58.02 64.88 52.14 67.21 C 48.50 67.99 42.04 64.91 45.59 60.86 C 46.57 63.31 47.93 66.70 52.02 64.07 C 54.39 64.26 57.36 63.80 58.30 61.26 Z" />
</g>
<g id="#bd713cff">
<path fill="#bd713c" opacity="1.00" d=" M 47.24 56.10 L 48.11 55.92 C 48.34 57.94 48.39 60.00 49.14 61.93 C 52.20 62.07 55.25 61.53 58.30 61.26 C 57.36 63.80 54.39 64.26 52.02 64.07 C 47.93 66.70 46.57 63.31 45.59 60.86 C 46.27 59.32 46.85 57.74 47.24 56.10 Z" />
</g>
<g id="#a55f30fe">
<path fill="#a55f30" opacity="1.00" d=" M 35.20 66.16 C 38.80 63.43 41.08 59.30 45.09 56.94 C 43.45 60.77 40.33 63.79 38.65 67.64 C 38.03 67.77 36.80 68.03 36.19 68.16 C 35.94 67.66 35.44 66.66 35.20 66.16 Z" />
</g>
<g id="#cf7f45fb">
<path fill="#cf7f45" opacity="1.00" d=" M 84.82 65.95 C 84.47 63.85 84.27 58.31 88.00 58.96 C 87.93 59.66 87.80 61.07 87.74 61.78 C 87.63 66.33 83.38 79.48 93.21 75.36 L 94.15 75.22 C 100.89 74.91 100.62 66.18 101.13 61.03 C 101.85 61.03 103.29 61.03 104.01 61.03 C 103.95 61.72 103.83 63.09 103.77 63.78 C 103.22 68.11 102.36 72.41 102.05 76.77 C 102.54 76.82 103.52 76.93 104.01 76.98 C 105.10 77.20 106.19 77.46 107.26 77.77 L 106.33 77.86 C 100.65 76.91 96.19 81.08 94.55 86.16 C 94.47 84.27 95.56 81.65 93.05 80.94 C 88.46 77.90 82.19 80.80 82.30 86.26 L 82.23 85.20 C 81.60 82.63 83.34 78.15 80.85 76.97 L 79.88 76.71 L 80.17 76.08 C 84.95 75.46 83.44 69.22 84.82 65.95 Z" />
</g>
<g id="#884b22f3">
<path fill="#884b22" opacity="0.95" d=" M 88.00 58.96 L 88.90 59.05 C 88.62 64.95 90.09 70.95 94.15 75.22 L 93.21 75.36 C 86.21 75.27 88.48 66.56 87.74 61.78 C 87.80 61.07 87.93 59.66 88.00 58.96 Z" />
</g>
<g id="#874a1ef4">
<path fill="#874a1e" opacity="0.96" d=" M 104.01 61.03 L 104.91 61.02 C 105.38 66.81 105.50 73.99 109.97 78.13 C 109.47 78.09 108.49 78.00 107.99 77.95 L 107.26 77.77 C 106.19 77.46 105.10 77.20 104.01 76.98 C 104.90 72.61 103.97 68.18 103.77 63.78 C 103.83 63.09 103.95 61.72 104.01 61.03 Z" />
</g>
<g id="#b56a36ff">
<path fill="#b56a36" opacity="1.00" d=" M 93.21 75.36 C 83.38 79.48 87.63 66.33 87.74 61.78 C 88.48 66.56 86.21 75.27 93.21 75.36 Z" />
</g>
<g id="#81451efa">
<path fill="#81451e" opacity="0.98" d=" M 148.80 70.68 C 152.70 68.80 155.67 65.56 158.97 62.86 C 159.67 63.59 160.34 64.35 160.99 65.14 C 159.75 66.92 158.95 70.03 157.02 70.71 C 152.54 69.84 149.63 75.49 145.04 75.06 C 142.18 75.74 146.17 76.53 147.23 76.41 C 145.25 76.95 143.21 76.69 141.20 76.62 C 138.43 74.18 133.43 73.39 132.10 70.20 C 135.56 70.14 137.32 66.77 139.95 65.05 C 142.87 66.87 145.35 69.92 148.80 70.68 Z" />
</g>
<g id="#b46935ff">
<path fill="#b46935" opacity="1.00" d=" M 102.05 76.77 C 102.36 72.41 103.22 68.11 103.77 63.78 C 103.97 68.18 104.90 72.61 104.01 76.98 C 103.52 76.93 102.54 76.82 102.05 76.77 Z" />
</g>
<g id="#caa888ff">
<path fill="#caa888" opacity="1.00" d=" M 36.05 68.94 C 36.94 69.54 37.82 70.14 38.73 70.72 C 39.90 71.54 41.03 72.41 42.20 73.23 C 40.84 73.61 38.10 74.37 36.73 74.76 L 35.94 74.97 C 35.97 73.46 36.02 70.45 36.05 68.94 Z" />
</g>
<g id="#6e492bfc">
<path fill="#6e492b" opacity="1.00" d=" M 38.73 70.72 C 40.64 69.63 42.69 70.29 44.55 71.08 C 45.97 71.72 47.51 71.97 49.04 72.21 C 48.45 76.56 43.99 78.55 44.50 83.20 L 43.82 83.31 C 42.80 81.58 41.77 79.84 41.00 77.99 C 42.07 76.13 43.81 74.78 45.09 73.07 C 44.37 73.11 42.93 73.19 42.20 73.23 C 41.03 72.41 39.90 71.54 38.73 70.72 Z" />
</g>
<g id="#683313fd">
<path fill="#683313" opacity="1.00" d=" M 145.04 75.06 C 149.63 75.49 152.54 69.84 157.02 70.71 C 156.81 72.09 155.58 72.94 154.79 73.98 C 153.49 74.61 152.17 75.16 150.85 75.73 C 149.64 75.96 148.43 76.19 147.23 76.41 C 146.17 76.53 142.18 75.74 145.04 75.06 Z" />
</g>
<g id="#87684cf9">
<path fill="#87684c" opacity="0.98" d=" M 42.20 73.23 C 42.93 73.19 44.37 73.11 45.09 73.07 C 43.81 74.78 42.07 76.13 41.00 77.99 C 41.77 79.84 42.80 81.58 43.82 83.31 C 43.58 85.62 43.80 87.85 44.49 90.00 L 44.79 90.90 L 43.90 91.17 C 42.81 91.52 40.98 92.46 41.30 93.80 C 42.48 94.11 43.68 94.15 44.90 93.90 C 46.36 94.32 47.80 94.79 49.25 95.21 L 48.73 95.73 C 45.90 96.40 40.20 98.41 39.84 94.00 C 41.91 90.02 43.27 84.62 40.29 80.76 C 40.00 80.29 39.43 79.35 39.14 78.88 C 38.94 78.57 38.55 77.95 38.35 77.64 C 37.78 76.69 37.24 75.73 36.73 74.76 C 38.10 74.37 40.84 73.61 42.20 73.23 Z" />
</g>
<g id="#795b3ef6">
<path fill="#795b3e" opacity="0.96" d=" M 150.85 75.73 C 152.17 75.16 153.49 74.61 154.79 73.98 C 157.96 78.22 152.39 81.53 153.81 86.24 C 151.59 85.65 148.03 81.03 147.13 84.98 L 146.79 85.73 C 145.19 86.52 146.78 82.08 144.12 82.78 L 144.18 82.18 C 146.27 81.41 148.35 80.50 150.03 79.00 C 151.43 77.80 154.88 75.47 150.85 75.73 Z" />
</g>
<g id="#d1cfcefd">
<path fill="#d1cfce" opacity="1.00" d=" M 69.15 77.18 C 72.30 74.85 76.29 74.78 80.07 75.09 L 80.17 76.08 L 79.88 76.71 C 78.62 79.29 77.66 82.00 76.59 84.66 C 74.68 85.70 72.56 86.21 70.56 87.03 C 68.75 86.00 67.12 84.67 65.81 83.05 C 66.74 80.99 67.58 78.86 69.15 77.18 M 73.16 81.16 C 72.64 82.79 73.21 83.35 74.84 82.84 C 75.35 81.21 74.79 80.64 73.16 81.16 Z" />
</g>
<g id="#bd9973fc">
<path fill="#bd9973" opacity="1.00" d=" M 141.20 76.62 C 143.21 76.69 145.25 76.95 147.23 76.41 C 148.43 76.19 149.64 75.96 150.85 75.73 C 154.88 75.47 151.43 77.80 150.03 79.00 C 147.34 79.17 144.63 79.05 142.03 79.77 C 141.09 78.94 140.82 77.89 141.20 76.62 Z" />
</g>
<g id="#e49752f6">
<path fill="#e49752" opacity="0.96" d=" M 61.30 84.17 C 62.44 80.88 65.16 76.91 69.15 77.18 C 67.58 78.86 66.74 80.99 65.81 83.05 C 64.30 81.65 63.12 83.25 61.94 84.22 L 61.30 84.17 Z" />
</g>
<g id="#bcbbb8ff">
<path fill="#bcbbb8" opacity="1.00" d=" M 76.59 84.66 C 77.66 82.00 78.62 79.29 79.88 76.71 L 80.85 76.97 C 80.95 79.65 81.06 82.33 81.18 85.01 C 80.89 86.68 80.46 88.33 79.83 89.91 C 76.61 89.45 73.21 89.08 70.56 87.03 C 72.56 86.21 74.68 85.70 76.59 84.66 Z" />
</g>
<g id="#a69c8afd">
<path fill="#a69c8a" opacity="1.00" d=" M 80.85 76.97 C 83.34 78.15 81.60 82.63 82.23 85.20 L 81.18 85.01 C 81.06 82.33 80.95 79.65 80.85 76.97 Z" />
</g>
<g id="#231d195f">
<path fill="#231d19" opacity="0.37" d=" M 38.35 77.64 C 38.55 77.95 38.94 78.57 39.14 78.88 C 39.12 82.96 39.11 87.04 39.12 91.12 C 38.93 91.42 38.55 92.03 38.36 92.33 C 38.00 87.46 37.55 82.49 38.35 77.64 Z" />
</g>
<g id="#e4e2e0ff">
<path fill="#e4e2e0" opacity="1.00" d=" M 94.55 86.16 C 96.19 81.08 100.65 76.91 106.33 77.86 C 105.65 79.82 104.21 81.33 102.84 82.83 C 102.32 83.13 101.27 83.71 100.75 84.00 C 99.21 85.61 95.17 91.39 94.47 86.90 L 94.55 86.16 Z" />
</g>
<g id="#bab9b7ff">
<path fill="#bab9b7" opacity="1.00" d=" M 106.33 77.86 L 107.26 77.77 L 107.99 77.95 C 109.95 79.14 111.69 80.60 109.78 82.78 C 105.13 85.88 100.76 90.87 94.86 91.21 C 94.53 90.88 93.89 90.23 93.57 89.91 C 93.85 88.90 94.15 87.89 94.47 86.90 C 95.17 91.39 99.21 85.61 100.75 84.00 C 100.52 87.93 105.89 85.02 102.84 82.83 C 104.21 81.33 105.65 79.82 106.33 77.86 Z" />
</g>
<g id="#9f9994ff">
<path fill="#9f9994" opacity="1.00" d=" M 107.99 77.95 C 108.49 78.00 109.47 78.09 109.97 78.13 C 111.27 78.06 111.89 79.49 112.81 80.18 C 112.96 80.83 113.26 82.11 113.41 82.76 C 112.00 86.69 107.93 88.02 104.32 89.27 C 104.46 89.69 104.75 90.54 104.89 90.96 C 102.58 91.40 100.28 91.93 97.95 92.30 C 96.80 92.17 95.77 91.81 94.86 91.21 C 100.76 90.87 105.13 85.88 109.78 82.78 C 111.69 80.60 109.95 79.14 107.99 77.95 Z" />
</g>
<g id="#cdb095ff">
<path fill="#cdb095" opacity="1.00" d=" M 39.14 78.88 C 39.43 79.35 40.00 80.29 40.29 80.76 C 39.71 84.10 40.98 88.07 39.12 91.12 C 39.11 87.04 39.12 82.96 39.14 78.88 Z" />
</g>
<g id="#8e7054fc">
<path fill="#8e7054" opacity="1.00" d=" M 142.03 79.77 C 144.63 79.05 147.34 79.17 150.03 79.00 C 148.35 80.50 146.27 81.41 144.18 82.18 C 142.87 81.88 142.15 81.08 142.03 79.77 Z" />
</g>
<g id="#f99e53ff">
<path fill="#f99e53" opacity="1.00" d=" M 82.30 86.26 C 82.19 80.80 88.46 77.90 93.05 80.94 C 95.56 81.65 94.47 84.27 94.55 86.16 L 94.47 86.90 C 94.15 87.89 93.85 88.90 93.57 89.91 C 92.66 92.31 96.29 96.36 89.99 95.03 C 85.45 97.36 79.98 94.55 76.99 91.04 C 80.58 92.02 81.92 89.36 82.30 86.26 Z" />
</g>
<g id="#877057ff">
<path fill="#877057" opacity="1.00" d=" M 112.81 80.18 C 113.15 80.37 113.82 80.74 114.15 80.92 C 114.42 81.42 114.96 82.41 115.23 82.90 C 114.98 84.32 115.18 85.95 114.33 87.19 C 114.07 85.70 113.79 84.22 113.41 82.76 C 113.26 82.11 112.96 80.83 112.81 80.18 Z" />
</g>
<g id="#9d7f66fa">
<path fill="#9d7f66" opacity="0.98" d=" M 40.29 80.76 C 43.27 84.62 41.91 90.02 39.84 94.00 C 38.64 93.66 38.14 93.10 38.36 92.33 C 38.55 92.03 38.93 91.42 39.12 91.12 C 40.98 88.07 39.71 84.10 40.29 80.76 Z" />
</g>
<g id="#505050ff">
<path fill="#505050" opacity="1.00" d=" M 73.16 81.16 C 74.79 80.64 75.35 81.21 74.84 82.84 C 73.21 83.35 72.64 82.79 73.16 81.16 Z" />
<path fill="#505050" opacity="1.00" d=" M 100.75 84.00 C 101.27 83.71 102.32 83.13 102.84 82.83 C 105.89 85.02 100.52 87.93 100.75 84.00 Z" />
</g>
<g id="#b66c38fe">
<path fill="#b66c38" opacity="1.00" d=" M 114.15 80.92 C 118.56 82.05 123.29 82.57 127.16 85.17 C 125.34 89.14 120.02 90.07 118.59 94.15 C 118.22 92.75 117.81 88.30 116.07 90.69 C 114.90 92.31 115.92 96.24 113.18 95.84 C 109.67 95.87 106.57 94.78 103.87 92.69 C 108.40 91.43 119.15 90.56 115.23 82.90 C 114.96 82.41 114.42 81.42 114.15 80.92 Z" />
</g>
<g id="#c17e4bff">
<path fill="#c17e4b" opacity="1.00" d=" M 61.94 84.22 C 63.12 83.25 64.30 81.65 65.81 83.05 C 67.12 84.67 68.75 86.00 70.56 87.03 C 73.21 89.08 76.61 89.45 79.83 89.91 C 80.46 88.33 80.89 86.68 81.18 85.01 L 82.23 85.20 L 82.30 86.26 C 81.92 89.36 80.58 92.02 76.99 91.04 C 74.02 90.10 71.15 88.86 68.16 87.99 C 68.04 88.79 67.80 90.40 67.69 91.20 C 66.18 90.92 63.16 90.35 61.65 90.07 C 62.03 88.14 62.06 86.17 61.94 84.22 Z" />
</g>
<g id="#55412bd8">
<path fill="#55412b" opacity="0.85" d=" M 43.82 83.31 L 44.50 83.20 C 45.79 85.11 45.37 87.98 44.49 90.00 C 43.80 87.85 43.58 85.62 43.82 83.31 Z" />
</g>
<g id="#948d82ff">
<path fill="#948d82" opacity="1.00" d=" M 113.41 82.76 C 113.79 84.22 114.07 85.70 114.33 87.19 C 112.11 90.04 108.13 90.14 104.89 90.96 C 104.75 90.54 104.46 89.69 104.32 89.27 C 107.93 88.02 112.00 86.69 113.41 82.76 Z" />
</g>
<g id="#965e36ff">
<path fill="#965e36" opacity="1.00" d=" M 115.23 82.90 C 119.15 90.56 108.40 91.43 103.87 92.69 C 101.98 92.88 100.09 93.02 98.19 93.16 L 97.95 92.30 C 100.28 91.93 102.58 91.40 104.89 90.96 C 108.13 90.14 112.11 90.04 114.33 87.19 C 115.18 85.95 114.98 84.32 115.23 82.90 Z" />
</g>
<g id="#8b6a49ff">
<path fill="#8b6a49" opacity="1.00" d=" M 147.13 84.98 C 148.03 81.03 151.59 85.65 153.81 86.24 C 153.81 86.73 153.80 87.73 153.80 88.23 C 151.63 87.05 149.41 85.96 147.13 84.98 Z" />
</g>
<g id="#cfad8ff5">
<path fill="#cfad8f" opacity="0.96" d=" M 61.30 84.17 L 61.94 84.22 C 62.06 86.17 62.03 88.14 61.65 90.07 L 61.13 89.97 C 60.89 88.52 60.87 86.99 60.22 85.64 C 60.49 85.27 61.03 84.53 61.30 84.17 Z" />
</g>
<g id="#99572bf9">
<path fill="#99572b" opacity="0.98" d=" M 127.16 85.17 C 131.53 86.83 134.74 91.02 136.36 95.29 C 133.50 96.07 132.42 90.29 129.11 91.14 C 125.86 92.51 122.06 93.24 119.65 96.01 C 119.38 95.54 118.86 94.62 118.59 94.15 C 120.02 90.07 125.34 89.14 127.16 85.17 Z" />
</g>
<g id="#98795cfd">
<path fill="#98795c" opacity="1.00" d=" M 147.13 84.98 C 149.41 85.96 151.63 87.05 153.80 88.23 C 155.24 90.80 155.24 93.89 154.88 96.76 C 153.21 99.70 149.98 101.05 147.98 103.56 L 147.38 103.92 C 144.35 103.44 141.33 103.09 138.30 102.73 C 134.93 101.36 131.34 100.74 127.84 99.83 C 128.19 97.73 130.14 96.78 131.90 96.02 C 133.30 97.27 135.26 96.89 136.98 97.07 L 136.90 97.95 C 134.46 97.32 134.58 99.99 136.25 100.86 C 140.51 101.02 144.79 101.18 149.06 100.94 C 148.87 100.42 148.50 99.38 148.32 98.87 L 148.01 98.04 L 149.10 98.00 C 154.03 99.33 151.87 93.27 151.88 90.18 C 150.70 89.34 149.27 87.94 147.72 88.68 C 146.80 88.50 146.49 87.51 146.79 85.73 L 147.13 84.98 Z" />
</g>
<g id="#f9e7c0fe">
<path fill="#f9e7c0" opacity="1.00" d=" M 57.99 89.04 C 58.67 87.90 58.79 86.14 60.22 85.64 C 60.87 86.99 60.89 88.52 61.13 89.97 C 60.90 95.39 67.83 92.40 71.26 92.76 C 73.77 93.69 75.98 95.21 78.04 96.90 C 80.77 99.87 84.93 102.62 89.07 100.16 C 91.69 99.13 94.38 98.33 97.05 97.43 C 99.63 97.07 102.24 96.74 104.84 96.46 C 106.81 97.83 109.66 96.52 111.11 98.66 C 108.58 99.02 106.09 99.67 103.85 100.95 C 95.95 103.79 87.30 106.75 78.98 104.02 C 72.65 102.99 67.35 99.38 62.10 95.97 C 60.51 94.04 58.51 92.34 57.66 89.92 L 57.99 89.04 Z" />
</g>
<g id="#e68e4cff">
<path fill="#e68e4c" opacity="1.00" d=" M 68.16 87.99 C 71.15 88.86 74.02 90.10 76.99 91.04 C 79.98 94.55 85.45 97.36 89.99 95.03 C 96.29 96.36 92.66 92.31 93.57 89.91 C 93.89 90.23 94.53 90.88 94.86 91.21 C 95.77 91.81 96.80 92.17 97.95 92.30 L 98.19 93.16 C 97.98 94.53 95.54 96.36 97.05 97.43 C 94.38 98.33 91.69 99.13 89.07 100.16 C 85.15 100.09 81.64 98.22 78.04 96.90 C 75.98 95.21 73.77 93.69 71.26 92.76 C 70.07 92.23 68.87 91.74 67.69 91.20 C 67.80 90.40 68.04 88.79 68.16 87.99 Z" />
</g>
<g id="#b09176f9">
<path fill="#b09176" opacity="0.98" d=" M 147.72 88.68 C 149.27 87.94 150.70 89.34 151.88 90.18 C 151.87 93.27 154.03 99.33 149.10 98.00 C 148.84 94.86 147.79 91.85 147.72 88.68 Z" />
</g>
<g id="#826853e7">
<path fill="#826853" opacity="0.91" d=" M 51.06 91.01 C 51.95 89.01 55.82 89.17 57.99 89.04 L 57.66 89.92 C 56.29 92.23 53.85 94.07 53.99 97.01 C 52.35 96.19 50.53 95.96 48.73 95.73 L 49.25 95.21 C 50.27 93.84 55.23 90.57 51.06 91.01 Z" />
</g>
<g id="#ead0b9ff">
<path fill="#ead0b9" opacity="1.00" d=" M 53.99 97.01 C 53.85 94.07 56.29 92.23 57.66 89.92 C 58.51 92.34 60.51 94.04 62.10 95.97 C 60.04 95.83 57.36 93.69 55.65 94.95 C 55.09 95.63 54.53 96.31 53.99 97.01 Z" />
</g>
<g id="#e0c6acff">
<path fill="#e0c6ac" opacity="1.00" d=" M 61.13 89.97 L 61.65 90.07 C 63.16 90.35 66.18 90.92 67.69 91.20 C 68.87 91.74 70.07 92.23 71.26 92.76 C 67.83 92.40 60.90 95.39 61.13 89.97 Z" />
</g>
<g id="#c0a285ff">
<path fill="#c0a285" opacity="1.00" d=" M 116.07 90.69 C 117.81 88.30 118.22 92.75 118.59 94.15 C 118.86 94.62 119.38 95.54 119.65 96.01 C 120.02 96.50 120.75 97.48 121.12 97.97 C 123.55 102.58 115.93 100.58 113.02 100.95 C 115.38 100.59 117.73 100.20 120.07 99.79 C 119.81 98.64 119.10 97.71 118.42 96.79 C 117.51 94.81 116.85 92.73 116.07 90.69 Z" />
</g>
<g id="#b49880ff">
<path fill="#b49880" opacity="1.00" d=" M 41.30 93.80 C 40.98 92.46 42.81 91.52 43.90 91.17 C 44.23 92.08 44.57 92.99 44.90 93.90 C 43.68 94.15 42.48 94.11 41.30 93.80 Z" />
</g>
<g id="#c9ac93fe">
<path fill="#c9ac93" opacity="1.00" d=" M 43.90 91.17 L 44.79 90.90 C 46.88 90.89 48.97 90.92 51.06 91.01 C 55.23 90.57 50.27 93.84 49.25 95.21 C 47.80 94.79 46.36 94.32 44.90 93.90 C 44.57 92.99 44.23 92.08 43.90 91.17 Z" />
</g>
<g id="#f1d5adff">
<path fill="#f1d5ad" opacity="1.00" d=" M 116.07 90.69 C 116.85 92.73 117.51 94.81 118.42 96.79 C 118.24 97.25 117.87 98.16 117.69 98.62 C 112.99 98.94 108.56 100.81 103.85 100.95 C 106.09 99.67 108.58 99.02 111.11 98.66 C 109.66 96.52 106.81 97.83 104.84 96.46 C 107.61 96.23 110.40 96.02 113.18 95.84 C 115.92 96.24 114.90 92.31 116.07 90.69 Z" />
</g>
<g id="#894a22fd">
<path fill="#894a22" opacity="1.00" d=" M 119.65 96.01 C 122.06 93.24 125.86 92.51 129.11 91.14 C 132.42 90.29 133.50 96.07 136.36 95.29 L 137.08 95.09 C 137.06 95.59 137.01 96.58 136.98 97.07 C 135.26 96.89 133.30 97.27 131.90 96.02 C 129.94 91.38 124.98 95.72 122.70 97.91 C 122.31 97.92 121.52 97.95 121.12 97.97 C 120.75 97.48 120.02 96.50 119.65 96.01 Z" />
</g>
<g id="#d38850ff">
<path fill="#d38850" opacity="1.00" d=" M 98.19 93.16 C 100.09 93.02 101.98 92.88 103.87 92.69 C 106.57 94.78 109.67 95.87 113.18 95.84 C 110.40 96.02 107.61 96.23 104.84 96.46 C 102.24 96.74 99.63 97.07 97.05 97.43 C 95.54 96.36 97.98 94.53 98.19 93.16 Z" />
</g>
<g id="#ddc0a2ff">
<path fill="#ddc0a2" opacity="1.00" d=" M 55.65 94.95 C 57.36 93.69 60.04 95.83 62.10 95.97 C 67.35 99.38 72.65 102.99 78.98 104.02 C 87.30 106.75 95.95 103.79 103.85 100.95 C 108.56 100.81 112.99 98.94 117.69 98.62 C 117.87 98.16 118.24 97.25 118.42 96.79 C 119.10 97.71 119.81 98.64 120.07 99.79 C 117.73 100.20 115.38 100.59 113.02 100.95 C 104.36 102.30 96.07 105.70 87.22 106.32 C 75.72 106.33 64.65 101.97 55.65 94.95 Z" />
</g>
<g id="#783f1cff">
<path fill="#783f1c" opacity="1.00" d=" M 122.70 97.91 C 124.98 95.72 129.94 91.38 131.90 96.02 C 130.14 96.78 128.19 97.73 127.84 99.83 C 127.70 100.18 127.42 100.88 127.27 101.23 L 126.47 100.80 C 126.19 100.61 125.61 100.23 125.33 100.04 C 124.83 99.70 123.83 99.03 123.33 98.70 L 122.70 97.91 Z" />
</g>
<g id="#c9ae96fe">
<path fill="#c9ae96" opacity="1.00" d=" M 53.99 97.01 C 54.53 96.31 55.09 95.63 55.65 94.95 C 64.65 101.97 75.72 106.33 87.22 106.32 C 79.23 107.04 70.16 108.86 63.10 103.85 C 60.53 102.53 58.09 98.97 54.88 100.81 C 53.00 101.59 54.36 98.03 53.99 97.01 Z" />
</g>
<g id="#ddc1a9ff">
<path fill="#ddc1a9" opacity="1.00" d=" M 78.04 96.90 C 81.64 98.22 85.15 100.09 89.07 100.16 C 84.93 102.62 80.77 99.87 78.04 96.90 Z" />
</g>
<g id="#71533bf5">
<path fill="#71533b" opacity="0.96" d=" M 147.98 103.56 C 149.98 101.05 153.21 99.70 154.88 96.76 C 158.21 96.70 155.20 101.96 154.95 103.96 C 153.02 102.37 152.85 103.95 152.88 105.81 C 151.30 104.93 149.70 104.10 147.98 103.56 Z" />
</g>
<g id="#b49475ff">
<path fill="#b49475" opacity="1.00" d=" M 121.12 97.97 C 121.52 97.95 122.31 97.92 122.70 97.91 L 123.33 98.70 C 123.08 100.04 122.48 101.70 120.90 101.85 C 113.99 103.37 107.56 106.44 100.94 108.85 C 92.45 111.32 83.67 112.76 74.84 113.21 C 73.17 112.20 71.48 111.21 69.78 110.25 C 84.62 110.64 99.81 107.90 113.02 100.95 C 115.93 100.58 123.55 102.58 121.12 97.97 Z" />
</g>
<g id="#c6a889fe">
<path fill="#c6a889" opacity="1.00" d=" M 136.25 100.86 C 134.58 99.99 134.46 97.32 136.90 97.95 C 137.36 98.02 138.29 98.15 138.75 98.22 C 141.90 98.81 145.12 99.08 148.32 98.87 C 148.50 99.38 148.87 100.42 149.06 100.94 C 144.79 101.18 140.51 101.02 136.25 100.86 Z" />
</g>
<g id="#715f53c4">
<path fill="#715f53" opacity="0.77" d=" M 138.75 98.22 C 141.82 98.07 144.92 97.87 148.01 98.04 L 148.32 98.87 C 145.12 99.08 141.90 98.81 138.75 98.22 Z" />
</g>
<g id="#a98667f6">
<path fill="#a98667" opacity="0.96" d=" M 30.67 101.50 C 33.07 97.17 36.56 101.75 40.11 101.16 L 39.69 101.71 C 38.55 102.58 38.01 103.64 38.93 104.91 C 35.94 104.18 31.94 104.95 30.67 101.50 Z" />
</g>
<g id="#aa8866ff">
<path fill="#aa8866" opacity="1.00" d=" M 123.33 98.70 C 123.83 99.03 124.83 99.70 125.33 100.04 C 120.33 105.16 113.09 106.93 106.71 109.73 C 99.99 112.82 92.57 113.74 85.43 115.40 C 85.01 115.78 84.16 116.54 83.74 116.92 C 80.50 116.49 77.59 114.91 74.84 113.21 C 83.67 112.76 92.45 111.32 100.94 108.85 C 107.56 106.44 113.99 103.37 120.90 101.85 C 122.48 101.70 123.08 100.04 123.33 98.70 Z" />
</g>
<g id="#bfa185fe">
<path fill="#bfa185" opacity="1.00" d=" M 54.88 100.81 C 58.09 98.97 60.53 102.53 63.10 103.85 C 70.16 108.86 79.23 107.04 87.22 106.32 C 96.07 105.70 104.36 102.30 113.02 100.95 C 99.81 107.90 84.62 110.64 69.78 110.25 C 68.82 109.74 67.88 109.21 66.96 108.66 C 63.75 106.81 60.61 104.81 57.24 103.27 C 56.00 102.83 55.21 102.01 54.88 100.81 Z" />
</g>
<g id="#a17d59ff">
<path fill="#a17d59" opacity="1.00" d=" M 125.33 100.04 C 125.61 100.23 126.19 100.61 126.47 100.80 C 119.44 111.98 104.45 112.32 93.17 117.01 C 93.00 118.65 96.16 118.02 97.33 118.81 C 92.97 121.17 88.06 118.16 83.74 116.92 C 84.16 116.54 85.01 115.78 85.43 115.40 C 92.57 113.74 99.99 112.82 106.71 109.73 C 113.09 106.93 120.33 105.16 125.33 100.04 Z" />
</g>
<g id="#765436fb">
<path fill="#765436" opacity="1.00" d=" M 127.84 99.83 C 131.34 100.74 134.93 101.36 138.30 102.73 L 137.98 103.75 C 137.85 105.80 134.44 110.43 138.06 110.19 C 135.80 111.18 133.39 111.78 131.13 112.77 C 128.35 112.39 125.61 112.01 122.82 111.83 C 127.64 110.92 129.51 106.41 127.45 101.92 L 127.27 101.23 C 127.42 100.88 127.70 100.18 127.84 99.83 M 130.96 103.01 C 130.65 105.89 134.28 106.44 136.02 108.04 C 137.03 104.49 134.53 101.92 130.96 103.01 Z" />
</g>
<g id="#a6896cf2">
<path fill="#a6896c" opacity="0.95" d=" M 27.55 104.78 C 27.67 102.99 27.59 100.21 30.19 100.86 C 30.09 103.99 29.55 107.16 28.08 109.96 C 27.99 108.22 27.82 106.49 27.55 104.78 Z" />
</g>
<g id="#82654af4">
<path fill="#82654a" opacity="0.96" d=" M 30.19 100.86 L 30.67 101.50 C 31.94 104.95 35.94 104.18 38.93 104.91 C 39.38 105.86 39.82 106.82 40.24 107.79 C 37.91 107.59 35.58 107.38 33.25 107.18 C 28.57 110.87 27.90 117.23 24.80 121.94 L 23.86 121.77 C 23.87 121.05 23.89 119.60 23.89 118.88 C 25.64 116.08 26.74 112.96 28.08 109.96 C 29.55 107.16 30.09 103.99 30.19 100.86 Z" />
</g>
<g id="#a7896df9">
<path fill="#a7896d" opacity="0.98" d=" M 48.48 103.02 C 47.27 101.81 50.43 101.11 51.32 101.58 C 53.53 101.57 55.08 104.73 57.24 103.27 C 60.61 104.81 63.75 106.81 66.96 108.66 C 66.75 108.97 66.33 109.60 66.12 109.91 C 70.25 112.05 74.28 114.39 78.22 116.87 C 75.00 117.94 71.24 113.78 68.78 116.67 C 66.94 116.54 65.49 115.06 64.20 113.86 C 61.98 111.67 60.78 105.85 56.85 107.59 C 53.04 108.64 50.80 105.26 48.48 103.02 Z" />
</g>
<g id="#99744eff">
<path fill="#99744e" opacity="1.00" d=" M 126.47 100.80 L 127.27 101.23 L 127.45 101.92 C 126.17 106.23 122.91 109.17 119.64 111.97 C 112.46 113.08 104.97 114.67 99.00 119.04 C 98.58 118.99 97.74 118.87 97.33 118.81 C 96.16 118.02 93.00 118.65 93.17 117.01 C 104.45 112.32 119.44 111.98 126.47 100.80 Z" />
</g>
<g id="#c3a080fc">
<path fill="#c3a080" opacity="1.00" d=" M 38.93 104.91 C 38.01 103.64 38.55 102.58 39.69 101.71 C 42.74 101.44 45.72 104.93 48.48 103.02 C 50.80 105.26 53.04 108.64 56.85 107.59 C 57.71 108.37 58.52 109.20 59.28 110.08 C 52.19 109.78 45.29 107.98 38.93 104.91 Z" />
</g>
<g id="#8c6641ff">
<path fill="#8c6641" opacity="1.00" d=" M 127.45 101.92 C 129.51 106.41 127.64 110.92 122.82 111.83 C 122.02 111.87 120.43 111.94 119.64 111.97 C 122.91 109.17 126.17 106.23 127.45 101.92 Z" />
</g>
<g id="#6b3a1cff">
<path fill="#6b3a1c" opacity="1.00" d=" M 130.96 103.01 C 134.53 101.92 137.03 104.49 136.02 108.04 C 134.28 106.44 130.65 105.89 130.96 103.01 Z" />
</g>
<g id="#362b1f98">
<path fill="#362b1f" opacity="0.60" d=" M 138.30 102.73 C 141.33 103.09 144.35 103.44 147.38 103.92 C 147.08 104.10 146.47 104.47 146.17 104.65 C 143.42 104.33 140.71 104.05 137.98 103.75 L 138.30 102.73 Z" />
</g>
<g id="#96795ff6">
<path fill="#96795f" opacity="0.96" d=" M 152.88 105.81 C 152.85 103.95 153.02 102.37 154.95 103.96 L 155.04 104.86 C 153.99 106.51 152.14 108.32 153.55 110.36 C 153.92 113.22 157.26 111.65 159.04 111.16 C 162.53 114.99 164.98 121.16 169.14 125.08 C 167.53 126.25 165.99 127.53 164.64 129.00 C 162.67 128.09 162.91 122.51 160.56 125.07 C 157.86 120.34 155.85 115.17 152.26 111.00 C 151.94 112.12 151.60 113.24 151.26 114.36 C 150.95 114.00 150.32 113.27 150.01 112.90 C 149.28 111.62 148.68 110.13 147.13 109.68 L 147.26 108.90 C 147.72 107.16 147.91 105.36 147.98 103.56 C 149.70 104.10 151.30 104.93 152.88 105.81 Z" />
</g>
<g id="#06040316">
<path fill="#060403" opacity="0.09" d=" M 137.98 103.75 C 140.71 104.05 143.42 104.33 146.17 104.65 C 144.10 105.92 142.06 107.22 140.15 108.70 C 139.62 109.07 138.58 109.81 138.06 110.19 C 134.44 110.43 137.85 105.80 137.98 103.75 Z" />
</g>
<g id="#c1a184f6">
<path fill="#c1a184" opacity="0.96" d=" M 147.38 103.92 L 147.98 103.56 C 147.91 105.36 147.72 107.16 147.26 108.90 C 144.38 106.90 142.06 109.56 141.48 112.26 C 141.08 111.05 140.64 109.86 140.15 108.70 C 142.06 107.22 144.10 105.92 146.17 104.65 C 146.47 104.47 147.08 104.10 147.38 103.92 Z" />
</g>
<g id="#d3b99bf9">
<path fill="#d3b99b" opacity="0.98" d=" M 27.55 104.78 C 27.82 106.49 27.99 108.22 28.08 109.96 C 26.74 112.96 25.64 116.08 23.89 118.88 C 21.49 121.43 20.58 128.15 16.24 127.35 C 18.19 122.54 21.30 118.13 23.34 113.30 C 24.94 110.55 25.28 107.13 27.55 104.78 Z" />
</g>
<g id="#a0846bf5">
<path fill="#a0846b" opacity="0.96" d=" M 38.93 104.91 C 45.29 107.98 52.19 109.78 59.28 110.08 C 58.04 111.11 56.38 111.38 54.93 112.01 C 53.86 111.97 52.92 111.53 52.10 110.70 C 49.31 108.43 43.88 111.63 45.48 115.62 C 44.76 119.06 40.35 122.35 41.10 125.19 C 40.16 126.21 39.19 127.22 38.20 128.20 C 35.65 128.95 29.72 127.76 32.62 126.33 C 34.63 127.51 38.47 127.39 37.98 124.21 C 37.51 124.12 36.56 123.96 36.08 123.88 C 35.96 122.04 39.81 123.86 39.18 121.09 C 41.72 117.55 43.73 113.54 44.99 109.25 C 43.37 108.91 41.75 108.51 40.24 107.79 C 39.82 106.82 39.38 105.86 38.93 104.91 Z" />
</g>
<g id="#83654afb">
<path fill="#83654a" opacity="1.00" d=" M 155.04 104.86 C 156.81 106.59 157.99 108.93 159.04 111.16 C 157.26 111.65 153.92 113.22 153.55 110.36 C 152.14 108.32 153.99 106.51 155.04 104.86 Z" />
</g>
<g id="#81654af8">
<path fill="#81654a" opacity="0.97" d=" M 56.85 107.59 C 60.78 105.85 61.98 111.67 64.20 113.86 C 61.53 113.30 56.62 114.46 54.93 112.01 C 56.38 111.38 58.04 111.11 59.28 110.08 C 58.52 109.20 57.71 108.37 56.85 107.59 Z" />
</g>
<g id="#a88c73f9">
<path fill="#a88c73" opacity="0.98" d=" M 141.48 112.26 C 142.06 109.56 144.38 106.90 147.26 108.90 L 147.13 109.68 C 145.19 110.92 143.25 112.22 141.12 113.12 L 141.48 112.26 Z" />
</g>
<g id="#9b8268fc">
<path fill="#9b8268" opacity="1.00" d=" M 66.12 109.91 C 66.33 109.60 66.75 108.97 66.96 108.66 C 67.88 109.21 68.82 109.74 69.78 110.25 C 71.48 111.21 73.17 112.20 74.84 113.21 C 77.59 114.91 80.50 116.49 83.74 116.92 C 88.06 118.16 92.97 121.17 97.33 118.81 C 97.74 118.87 98.58 118.99 99.00 119.04 C 98.99 119.47 98.96 120.33 98.95 120.76 C 97.70 120.91 96.44 121.04 95.18 121.17 C 91.86 120.92 88.57 120.29 85.29 119.78 C 82.92 118.83 80.60 117.79 78.22 116.87 C 74.28 114.39 70.25 112.05 66.12 109.91 Z" />
</g>
<g id="#d6b596ff">
<path fill="#d6b596" opacity="1.00" d=" M 138.06 110.19 C 138.58 109.81 139.62 109.07 140.15 108.70 C 140.64 109.86 141.08 111.05 141.48 112.26 L 141.12 113.12 C 140.63 113.36 139.64 113.83 139.15 114.07 C 136.32 114.20 133.85 115.79 131.07 116.10 C 131.08 115.27 131.11 113.60 131.13 112.77 C 133.39 111.78 135.80 111.18 138.06 110.19 Z" />
</g>
<g id="#755a3df1">
<path fill="#755a3d" opacity="0.95" d=" M 45.48 115.62 C 43.88 111.63 49.31 108.43 52.10 110.70 C 46.84 111.99 47.68 119.31 45.38 123.17 C 48.37 124.05 41.89 132.23 42.04 129.01 C 42.16 127.44 44.17 124.27 41.10 125.19 C 40.35 122.35 44.76 119.06 45.48 115.62 Z" />
</g>
<g id="#7c6148f5">
<path fill="#7c6148" opacity="0.96" d=" M 141.12 113.12 C 143.25 112.22 145.19 110.92 147.13 109.68 C 148.68 110.13 149.28 111.62 150.01 112.90 C 143.20 113.08 137.58 117.65 131.87 120.78 C 128.67 121.86 125.40 120.88 122.16 121.48 C 121.66 121.38 120.66 121.19 120.16 121.09 C 120.08 120.59 119.91 119.58 119.82 119.08 C 121.49 119.03 123.64 120.16 124.70 118.33 C 127.56 118.28 130.57 118.53 133.24 117.36 C 135.34 116.51 137.27 115.31 139.15 114.07 C 139.64 113.83 140.63 113.36 141.12 113.12 Z" />
</g>
<g id="#c6aa8ff9">
<path fill="#c6aa8f" opacity="0.98" d=" M 152.26 111.00 C 155.85 115.17 157.86 120.34 160.56 125.07 C 161.14 126.30 161.75 127.52 162.31 128.77 C 162.02 131.23 162.80 134.99 159.10 134.12 C 156.23 127.68 153.65 120.79 151.26 114.36 C 151.60 113.24 151.94 112.12 152.26 111.00 Z" />
</g>
<g id="#765635ff">
<path fill="#765635" opacity="1.00" d=" M 99.00 119.04 C 104.97 114.67 112.46 113.08 119.64 111.97 C 122.53 112.55 125.52 112.90 128.25 114.10 C 127.83 114.59 127.00 115.55 126.59 116.03 C 125.94 116.78 125.31 117.54 124.70 118.33 C 123.64 120.16 121.49 119.03 119.82 119.08 C 118.32 116.33 122.71 110.51 115.11 114.24 C 110.53 115.40 105.54 116.23 101.63 119.02 C 101.03 119.57 100.45 120.14 99.89 120.73 L 98.95 120.76 C 98.96 120.33 98.99 119.47 99.00 119.04 Z" />
</g>
<g id="#573d24ff">
<path fill="#573d24" opacity="1.00" d=" M 119.64 111.97 C 120.43 111.94 122.02 111.87 122.82 111.83 C 125.61 112.01 128.35 112.39 131.13 112.77 C 130.18 113.23 129.21 113.68 128.25 114.10 C 125.52 112.90 122.53 112.55 119.64 111.97 Z" />
</g>
<g id="#ba9878ff">
<path fill="#ba9878" opacity="1.00" d=" M 128.25 114.10 C 129.21 113.68 130.18 113.23 131.13 112.77 C 131.11 113.60 131.08 115.27 131.07 116.10 C 133.85 115.79 136.32 114.20 139.15 114.07 C 137.27 115.31 135.34 116.51 133.24 117.36 C 131.58 117.03 128.25 116.37 126.59 116.03 C 127.00 115.55 127.83 114.59 128.25 114.10 Z" />
</g>
<g id="#906c45ff">
<path fill="#906c45" opacity="1.00" d=" M 101.63 119.02 C 105.54 116.23 110.53 115.40 115.11 114.24 C 122.71 110.51 118.32 116.33 119.82 119.08 C 119.91 119.58 120.08 120.59 120.16 121.09 C 114.49 122.98 108.92 120.14 103.22 120.40 C 102.82 120.06 102.03 119.37 101.63 119.02 Z" />
</g>
<g id="#a8947dfa">
<path fill="#a8947d" opacity="0.98" d=" M 68.78 116.67 C 71.24 113.78 75.00 117.94 78.22 116.87 C 80.60 117.79 82.92 118.83 85.29 119.78 C 82.52 119.87 79.75 119.95 76.98 120.01 C 74.07 119.52 71.21 118.37 68.78 116.67 Z" />
</g>
<g id="#a38467ff">
<path fill="#a38467" opacity="1.00" d=" M 124.70 118.33 C 125.31 117.54 125.94 116.78 126.59 116.03 C 128.25 116.37 131.58 117.03 133.24 117.36 C 130.57 118.53 127.56 118.28 124.70 118.33 Z" />
</g>
<g id="#a38466fb">
<path fill="#a38466" opacity="1.00" d=" M 16.24 127.35 C 20.58 128.15 21.49 121.43 23.89 118.88 C 23.89 119.60 23.87 121.05 23.86 121.77 C 21.15 126.25 17.33 130.14 17.79 135.81 C 17.10 135.88 15.72 136.02 15.03 136.09 C 11.97 136.12 8.91 136.03 5.86 135.94 C 9.20 134.34 16.60 135.36 17.08 130.10 C 16.31 130.08 14.77 130.06 14.00 130.05 C 14.65 129.07 15.65 128.38 16.24 127.35 Z" />
</g>
<g id="#8d7963ee">
<path fill="#8d7963" opacity="0.93" d=" M 99.89 120.73 C 100.45 120.14 101.03 119.57 101.63 119.02 C 102.03 119.37 102.82 120.06 103.22 120.40 C 108.92 120.14 114.49 122.98 120.16 121.09 C 120.66 121.19 121.66 121.38 122.16 121.48 C 115.96 125.01 108.25 124.62 101.93 121.60 C 101.42 121.39 100.40 120.95 99.89 120.73 Z" />
</g>
<g id="#1715135c">
<path fill="#171513" opacity="0.36" d=" M 76.98 120.01 C 79.75 119.95 82.52 119.87 85.29 119.78 C 84.08 122.30 79.58 120.54 77.03 120.95 L 76.98 120.01 Z" />
</g>
<g id="#1312105a">
<path fill="#131210" opacity="0.35" d=" M 95.18 121.17 C 96.44 121.04 97.70 120.91 98.95 120.76 L 99.89 120.73 C 100.40 120.95 101.42 121.39 101.93 121.60 C 100.02 122.17 96.30 122.96 95.18 121.17 Z" />
</g>
<g id="#6f543bec">
<path fill="#6f543b" opacity="0.93" d=" M 17.79 135.81 C 17.33 130.14 21.15 126.25 23.86 121.77 L 24.80 121.94 C 23.87 125.45 23.27 129.69 20.34 132.30 C 19.87 133.84 20.21 135.74 18.82 136.88 C 17.73 136.64 14.58 138.07 15.03 136.09 C 15.72 136.02 17.10 135.88 17.79 135.81 Z" />
</g>
<g id="#e1c2aef8">
<path fill="#e1c2ae" opacity="0.97" d=" M 32.62 126.33 C 33.28 124.91 34.32 123.52 36.08 123.88 C 36.56 123.96 37.51 124.12 37.98 124.21 C 38.47 127.39 34.63 127.51 32.62 126.33 Z" />
</g>
<g id="#1c16115b">
<path fill="#1c1611" opacity="0.36" d=" M 160.56 125.07 C 162.91 122.51 162.67 128.09 164.64 129.00 C 164.95 129.30 165.55 129.91 165.85 130.21 C 165.92 130.95 166.04 132.42 166.11 133.16 C 165.64 133.09 164.71 132.96 164.24 132.89 C 163.65 131.49 162.99 130.12 162.31 128.77 C 161.75 127.52 161.14 126.30 160.56 125.07 Z" />
</g>
<g id="#8f7155fb">
<path fill="#8f7155" opacity="1.00" d=" M 41.10 125.19 C 44.17 124.27 42.16 127.44 42.04 129.01 C 41.05 128.64 37.30 129.94 38.20 128.20 C 39.19 127.22 40.16 126.21 41.10 125.19 Z" />
</g>
<g id="#785b43f9">
<path fill="#785b43" opacity="0.98" d=" M 169.14 125.08 C 170.53 124.77 170.26 126.92 170.80 127.75 C 170.20 128.48 169.63 129.23 169.07 129.99 C 168.27 130.05 166.66 130.16 165.85 130.21 C 165.55 129.91 164.95 129.30 164.64 129.00 C 165.99 127.53 167.53 126.25 169.14 125.08 Z" />
</g>
<g id="#997b5ef9">
<path fill="#997b5e" opacity="0.98" d=" M 169.07 129.99 C 169.63 129.23 170.20 128.48 170.80 127.75 C 171.75 128.23 172.50 128.97 173.03 129.97 C 174.61 132.40 177.65 131.87 180.18 131.41 C 183.01 131.49 184.40 136.67 180.26 134.72 C 177.41 134.20 174.48 133.58 171.69 134.62 C 169.86 135.13 167.93 135.06 166.04 135.11 L 166.21 134.22 C 167.40 132.98 168.78 131.78 169.07 129.99 Z" />
</g>
<g id="#9b7e64f6">
<path fill="#9b7e64" opacity="0.96" d=" M 162.31 128.77 C 162.99 130.12 163.65 131.49 164.24 132.89 C 163.47 133.89 162.68 134.87 161.97 135.91 C 163.25 135.98 164.54 136.04 165.83 136.09 C 166.68 136.83 167.09 137.78 167.07 138.93 C 165.35 138.49 163.84 137.52 162.16 136.99 C 160.85 138.25 161.10 140.15 160.85 141.80 C 158.03 142.31 159.83 136.09 159.10 134.12 C 162.80 134.99 162.02 131.23 162.31 128.77 Z" />
</g>
<g id="#d2be9cf7">
<path fill="#d2be9c" opacity="0.97" d=" M 1.90 137.03 C 4.25 132.59 9.57 131.46 14.00 130.05 C 14.77 130.06 16.31 130.08 17.08 130.10 C 16.60 135.36 9.20 134.34 5.86 135.94 C 4.64 136.64 3.34 137.16 1.90 137.03 Z" />
</g>
<g id="#b28c73ff">
<path fill="#b28c73" opacity="1.00" d=" M 165.85 130.21 C 166.66 130.16 168.27 130.05 169.07 129.99 C 168.78 131.78 167.40 132.98 166.21 134.22 L 166.11 133.16 C 166.04 132.42 165.92 130.95 165.85 130.21 Z" />
</g>
<g id="#c6a68bfd">
<path fill="#c6a68b" opacity="1.00" d=" M 173.03 129.97 C 175.53 129.75 177.98 130.17 180.18 131.41 C 177.65 131.87 174.61 132.40 173.03 129.97 Z" />
</g>
<g id="#76573bfe">
<path fill="#76573b" opacity="1.00" d=" M 164.24 132.89 C 164.71 132.96 165.64 133.09 166.11 133.16 L 166.21 134.22 L 166.04 135.11 L 165.83 136.09 C 164.54 136.04 163.25 135.98 161.97 135.91 C 162.68 134.87 163.47 133.89 164.24 132.89 Z" />
</g>
<g id="#392d209b">
<path fill="#392d20" opacity="0.61" d=" M 171.69 134.62 C 174.48 133.58 177.41 134.20 180.26 134.72 C 177.42 135.11 174.52 135.18 171.69 134.62 Z" />
</g>
<g id="#d8c0a5fc">
<path fill="#d8c0a5" opacity="1.00" d=" M 162.16 136.99 C 163.84 137.52 165.35 138.49 167.07 138.93 C 170.65 139.30 173.35 142.29 173.09 145.94 C 171.19 145.10 169.29 144.26 167.29 143.68 C 165.14 143.10 163.19 140.98 160.85 141.80 C 161.10 140.15 160.85 138.25 162.16 136.99 Z" />
</g>
<g id="#9f8570ea">
<path fill="#9f8570" opacity="0.92" d=" M 160.85 141.80 C 163.19 140.98 165.14 143.10 167.29 143.68 C 165.10 143.57 160.07 145.65 160.85 141.80 Z" />
</g>
</svg>
