<?xml version="1.0" encoding="UTF-8" ?>
<!DOCTYPE svg PUBLIC "-//W3C//DTD SVG 1.1//EN" "http://www.w3.org/Graphics/SVG/1.1/DTD/svg11.dtd">
<svg width="257pt" height="208pt" viewBox="0 0 257 208" version="1.1" xmlns="http://www.w3.org/2000/svg">
<g id="#ec8f4ffe">
<path fill="#ec8f4f" opacity="1.00" d=" M 32.80 9.52 C 36.74 9.05 41.14 8.31 44.90 9.98 C 43.20 12.29 46.41 12.97 47.75 14.28 C 49.91 15.87 50.72 18.62 51.93 20.90 C 50.67 22.42 48.66 21.49 47.00 21.52 C 42.92 21.53 38.85 21.85 34.78 21.81 C 38.67 20.27 43.37 20.57 46.80 17.92 C 45.96 15.38 46.14 11.03 40.98 13.96 C 37.81 14.61 34.27 12.65 31.21 14.20 C 26.89 17.21 19.91 18.80 18.82 24.87 C 17.16 28.91 16.95 34.01 21.88 34.98 C 24.14 32.19 25.30 28.29 28.70 26.62 C 28.42 27.68 28.15 28.74 27.88 29.80 C 26.62 31.90 25.40 34.02 24.09 36.08 C 20.71 40.71 21.18 46.63 19.81 51.95 C 16.82 52.40 16.60 48.34 15.49 46.39 C 13.17 41.80 15.10 36.31 13.13 31.64 C 13.82 29.08 14.69 26.56 14.97 23.91 C 16.10 19.59 20.24 17.19 23.24 14.26 C 26.37 11.30 32.51 12.88 34.92 10.00 C 34.39 9.88 33.33 9.64 32.80 9.52 Z" />
</g>
<g id="#eebb67f6">
<path fill="#eebb67" opacity="0.96" d=" M 18.31 15.34 C 22.64 12.37 27.54 10.09 32.80 9.52 C 33.33 9.64 34.39 9.88 34.92 10.00 C 32.51 12.88 26.37 11.30 23.24 14.26 C 20.24 17.19 16.10 19.59 14.97 23.91 C 14.39 24.12 13.23 24.55 12.65 24.77 C 14.25 21.46 16.12 18.28 18.31 15.34 Z" />
</g>
<g id="#b76936fc">
<path fill="#b76936" opacity="1.00" d=" M 44.90 9.98 C 48.11 11.64 52.46 12.23 53.94 16.03 C 55.43 19.96 58.31 23.69 58.02 28.08 C 56.65 28.02 55.35 27.59 54.12 27.02 C 50.43 21.20 41.57 24.42 36.00 23.02 C 27.64 27.19 29.92 37.89 27.22 45.31 C 23.55 41.71 27.41 37.75 27.80 33.78 C 27.88 32.45 27.91 31.12 27.88 29.80 C 28.15 28.74 28.42 27.68 28.70 26.62 C 30.67 24.98 32.25 22.65 34.78 21.81 C 38.85 21.85 42.92 21.53 47.00 21.52 C 48.66 21.49 50.67 22.42 51.93 20.90 C 50.72 18.62 49.91 15.87 47.75 14.28 C 46.41 12.97 43.20 12.29 44.90 9.98 Z" />
</g>
<g id="#fb9a51ff">
<path fill="#fb9a51" opacity="1.00" d=" M 31.21 14.20 C 34.27 12.65 37.81 14.61 40.98 13.96 C 46.14 11.03 45.96 15.38 46.80 17.92 C 43.37 20.57 38.67 20.27 34.78 21.81 C 32.25 22.65 30.67 24.98 28.70 26.62 C 25.30 28.29 24.14 32.19 21.88 34.98 C 16.95 34.01 17.16 28.91 18.82 24.87 C 19.91 18.80 26.89 17.21 31.21 14.20 Z" />
</g>
<g id="#e79b5af5">
<path fill="#e79b5a" opacity="0.96" d=" M 142.34 19.39 C 144.00 18.48 145.77 19.33 147.26 20.15 C 143.62 22.22 139.63 23.56 135.72 25.00 C 133.96 25.52 132.35 26.41 130.77 27.32 C 129.15 28.19 127.49 29.01 125.81 29.74 C 118.59 32.50 111.57 35.76 104.37 38.55 C 103.99 38.11 103.25 37.23 102.87 36.79 C 115.83 30.68 129.03 24.82 142.34 19.39 Z" />
</g>
<g id="#e0894ffc">
<path fill="#e0894f" opacity="1.00" d=" M 147.26 20.15 C 150.01 21.48 152.70 22.98 155.20 24.76 C 153.28 24.75 150.57 23.04 149.28 25.13 C 149.85 29.00 151.50 32.56 153.08 36.10 C 150.22 36.15 148.98 33.42 146.91 31.98 C 144.41 28.05 140.54 25.33 135.72 25.00 C 139.63 23.56 143.62 22.22 147.26 20.15 Z" />
</g>
<g id="#8a4821fe">
<path fill="#8a4821" opacity="1.00" d=" M 36.00 23.02 C 41.57 24.42 50.43 21.20 54.12 27.02 C 52.77 26.95 51.43 26.89 50.08 26.82 C 47.83 26.52 45.58 26.25 43.32 26.02 C 40.96 25.80 37.75 23.72 36.18 26.20 C 33.61 28.84 32.42 32.64 32.13 36.24 C 27.46 42.93 28.94 51.46 31.32 58.75 C 31.26 59.26 31.12 60.30 31.05 60.82 L 30.05 60.81 C 29.96 59.14 29.85 57.46 29.44 55.83 C 28.67 52.33 27.85 48.83 27.22 45.31 C 29.92 37.89 27.64 27.19 36.00 23.02 Z" />
</g>
<g id="#f3a459fa">
<path fill="#f3a459" opacity="0.98" d=" M 12.65 24.77 C 13.23 24.55 14.39 24.12 14.97 23.91 C 14.69 26.56 13.82 29.08 13.13 31.64 C 9.00 42.16 7.59 53.47 7.76 64.71 C 7.33 65.09 6.48 65.86 6.05 66.25 C 0.91 59.72 4.09 51.04 5.95 43.99 C 8.10 37.64 8.28 30.17 12.65 24.77 Z" />
</g>
<g id="#d98044ff">
<path fill="#d98044" opacity="1.00" d=" M 149.28 25.13 C 150.57 23.04 153.28 24.75 155.20 24.76 C 155.65 25.07 156.57 25.69 157.03 26.00 C 156.38 26.99 155.61 27.90 155.12 28.98 C 157.32 35.84 162.72 43.65 158.74 50.76 C 149.72 58.47 139.48 64.53 129.03 70.06 C 117.23 77.36 105.75 87.30 91.22 87.88 C 89.87 86.44 88.90 84.71 87.76 83.12 C 86.87 83.68 86.06 84.35 85.24 85.00 C 84.96 81.92 87.10 79.29 87.24 76.23 C 87.72 74.59 87.99 72.44 90.13 73.72 C 91.06 74.19 91.97 74.68 92.88 75.20 C 93.18 75.74 93.78 76.82 94.08 77.36 C 92.70 77.90 91.29 78.39 90.01 79.15 C 90.43 81.17 90.91 83.30 92.19 84.98 C 96.85 86.23 100.86 83.63 104.82 81.79 C 112.14 77.25 118.84 71.78 126.07 67.11 C 132.58 63.24 140.09 60.99 145.72 55.71 C 148.26 53.24 150.88 50.86 153.66 48.65 C 156.42 44.91 154.83 39.91 153.08 36.10 C 151.50 32.56 149.85 29.00 149.28 25.13 Z" />
</g>
<g id="#773b18ff">
<path fill="#773b18" opacity="1.00" d=" M 36.18 26.20 C 37.75 23.72 40.96 25.80 43.32 26.02 C 37.76 26.83 35.60 32.48 32.13 36.24 C 32.42 32.64 33.61 28.84 36.18 26.20 Z" />
</g>
<g id="#f08f4bff">
<path fill="#f08f4b" opacity="1.00" d=" M 130.77 27.32 C 132.35 26.41 133.96 25.52 135.72 25.00 C 140.54 25.33 144.41 28.05 146.91 31.98 C 148.38 36.83 150.97 41.56 149.90 46.81 C 139.63 56.46 126.05 61.27 115.10 69.95 C 112.32 66.69 107.65 68.45 105.03 70.99 C 101.40 73.36 97.00 74.10 92.88 75.20 C 91.97 74.68 91.06 74.19 90.13 73.72 C 90.08 72.45 90.04 71.19 90.00 69.92 C 91.60 71.06 93.17 72.39 95.08 72.98 C 98.82 73.55 101.07 69.61 104.10 68.16 C 109.12 65.72 113.92 62.89 118.04 59.09 C 118.06 59.86 118.10 61.39 118.11 62.16 C 121.06 60.06 122.64 56.63 124.85 53.85 C 124.92 54.66 125.05 56.29 125.11 57.10 C 130.98 55.27 135.83 51.14 141.10 48.11 C 147.38 44.43 144.80 35.44 141.29 30.70 C 138.71 27.61 134.33 28.27 130.77 27.32 Z" />
</g>
<g id="#2b190dfd">
<path fill="#2b190d" opacity="1.00" d=" M 43.32 26.02 C 45.58 26.25 47.83 26.52 50.08 26.82 L 49.80 27.70 C 49.40 28.75 49.02 29.80 48.67 30.87 C 47.74 32.87 46.13 36.90 49.07 37.89 L 49.83 38.20 C 52.01 45.90 55.34 53.23 56.72 61.19 C 55.66 62.79 54.55 64.36 53.38 65.88 C 50.60 63.72 48.27 67.27 45.79 68.26 C 44.40 68.72 43.01 69.17 41.65 69.73 C 43.28 69.87 46.52 70.14 48.15 70.28 C 45.05 72.40 41.81 74.75 37.97 75.20 C 36.10 74.56 34.19 74.00 32.24 73.62 C 30.84 73.28 29.42 73.04 28.00 72.76 C 29.59 70.77 31.66 69.12 32.72 66.74 C 32.83 64.04 31.91 61.38 31.32 58.75 C 28.94 51.46 27.46 42.93 32.13 36.24 C 35.60 32.48 37.76 26.83 43.32 26.02 Z" />
</g>
<g id="#ce7840fe">
<path fill="#ce7840" opacity="1.00" d=" M 157.03 26.00 C 160.04 28.09 162.37 30.96 164.96 33.51 C 163.26 39.64 168.86 47.24 163.99 52.95 C 155.09 60.13 144.11 64.43 134.37 70.43 C 129.51 73.20 123.87 74.95 119.83 78.95 C 115.84 81.20 111.77 83.35 107.90 85.81 C 106.97 86.23 106.05 86.65 105.14 87.09 C 100.31 88.51 95.43 90.34 90.29 89.53 C 87.11 89.04 88.14 93.23 87.71 95.16 C 87.34 94.84 86.61 94.19 86.24 93.87 L 86.41 93.15 C 87.39 90.67 85.90 88.20 85.26 85.83 L 85.24 85.00 C 86.06 84.35 86.87 83.68 87.76 83.12 C 88.90 84.71 89.87 86.44 91.22 87.88 C 105.75 87.30 117.23 77.36 129.03 70.06 C 139.48 64.53 149.72 58.47 158.74 50.76 C 162.72 43.65 157.32 35.84 155.12 28.98 C 155.61 27.90 156.38 26.99 157.03 26.00 Z" />
</g>
<g id="#fc9a50ff">
<path fill="#fc9a50" opacity="1.00" d=" M 125.81 29.74 C 127.49 29.01 129.15 28.19 130.77 27.32 C 134.33 28.27 138.71 27.61 141.29 30.70 C 144.80 35.44 147.38 44.43 141.10 48.11 C 135.83 51.14 130.98 55.27 125.11 57.10 C 125.05 56.29 124.92 54.66 124.85 53.85 C 125.88 50.61 126.05 47.17 125.95 43.80 C 121.56 47.69 122.18 54.82 118.04 59.09 C 113.92 62.89 109.12 65.72 104.10 68.16 C 101.07 69.61 98.82 73.55 95.08 72.98 C 93.17 72.39 91.60 71.06 90.00 69.92 C 89.79 68.35 89.41 66.80 89.33 65.22 C 90.01 61.09 89.37 56.75 90.61 52.72 C 90.81 56.16 90.54 59.79 92.23 62.91 C 98.48 65.53 101.21 59.17 105.60 56.56 C 111.10 52.56 118.75 51.79 122.70 45.73 C 123.32 43.79 124.57 39.93 125.20 38.00 C 128.15 37.94 127.51 42.22 129.16 43.99 C 132.34 44.36 134.85 41.91 136.80 39.73 C 137.22 37.15 135.74 34.62 134.66 32.35 C 132.05 30.55 128.96 29.72 125.81 29.74 Z" />
</g>
<g id="#12090257">
<path fill="#120902" opacity="0.34" d=" M 48.67 30.87 C 49.02 29.80 49.40 28.75 49.80 27.70 C 49.98 31.20 49.89 34.70 49.83 38.20 L 49.07 37.89 C 48.97 36.13 48.77 32.62 48.67 30.87 Z" />
</g>
<g id="#d67d43ff">
<path fill="#d67d43" opacity="1.00" d=" M 24.09 36.08 C 25.40 34.02 26.62 31.90 27.88 29.80 C 27.91 31.12 27.88 32.45 27.80 33.78 C 22.18 39.21 24.52 47.40 25.76 54.13 C 26.61 57.31 23.80 59.85 21.72 61.82 C 18.04 62.59 15.31 60.04 12.07 59.10 C 10.99 60.71 10.45 62.59 9.86 64.42 C 8.65 59.00 8.44 53.26 10.21 47.95 C 13.46 51.48 14.93 59.14 20.82 57.92 C 25.39 51.71 21.60 43.12 24.09 36.08 Z" />
</g>
<g id="#fea95aff">
<path fill="#fea95a" opacity="1.00" d=" M 104.37 38.55 C 111.57 35.76 118.59 32.50 125.81 29.74 C 128.96 29.72 132.05 30.55 134.66 32.35 C 135.74 34.62 137.22 37.15 136.80 39.73 C 134.85 41.91 132.34 44.36 129.16 43.99 C 127.51 42.22 128.15 37.94 125.20 38.00 C 124.57 39.93 123.32 43.79 122.70 45.73 C 118.75 51.79 111.10 52.56 105.60 56.56 C 101.21 59.17 98.48 65.53 92.23 62.91 C 90.54 59.79 90.81 56.16 90.61 52.72 C 92.14 46.85 98.65 44.70 102.10 40.19 C 101.52 40.05 100.36 39.78 99.78 39.64 C 100.80 38.68 101.79 37.68 102.87 36.79 C 103.25 37.23 103.99 38.11 104.37 38.55 Z" />
</g>
<g id="#512813ff">
<path fill="#512813" opacity="1.00" d=" M 49.07 37.89 C 46.13 36.90 47.74 32.87 48.67 30.87 C 48.77 32.62 48.97 36.13 49.07 37.89 Z" />
</g>
<g id="#e3874afe">
<path fill="#e3874a" opacity="1.00" d=" M 13.13 31.64 C 15.10 36.31 13.17 41.80 15.49 46.39 C 16.60 48.34 16.82 52.40 19.81 51.95 C 21.18 46.63 20.71 40.71 24.09 36.08 C 21.60 43.12 25.39 51.71 20.82 57.92 C 14.93 59.14 13.46 51.48 10.21 47.95 C 8.44 53.26 8.65 59.00 9.86 64.42 C 9.91 66.75 11.97 69.80 9.15 71.19 C 8.04 69.59 7.00 67.94 6.05 66.25 C 6.48 65.86 7.33 65.09 7.76 64.71 C 7.59 53.47 9.00 42.16 13.13 31.64 Z" />
</g>
<g id="#e78847ff">
<path fill="#e78847" opacity="1.00" d=" M 146.91 31.98 C 148.98 33.42 150.22 36.15 153.08 36.10 C 154.83 39.91 156.42 44.91 153.66 48.65 C 150.88 50.86 148.26 53.24 145.72 55.71 C 140.09 60.99 132.58 63.24 126.07 67.11 C 118.84 71.78 112.14 77.25 104.82 81.79 C 100.86 83.63 96.85 86.23 92.19 84.98 C 90.91 83.30 90.43 81.17 90.01 79.15 C 91.29 78.39 92.70 77.90 94.08 77.36 C 99.35 76.73 105.82 75.73 109.17 71.10 C 107.79 71.02 106.41 70.98 105.03 70.99 C 107.65 68.45 112.32 66.69 115.10 69.95 C 126.05 61.27 139.63 56.46 149.90 46.81 C 150.97 41.56 148.38 36.83 146.91 31.98 Z" />
</g>
<g id="#c6713bff">
<path fill="#c6713b" opacity="1.00" d=" M 25.76 54.13 C 24.52 47.40 22.18 39.21 27.80 33.78 C 27.41 37.75 23.55 41.71 27.22 45.31 C 27.85 48.83 28.67 52.33 29.44 55.83 C 27.71 61.63 21.69 67.51 15.30 66.31 C 11.19 66.92 14.49 72.47 11.17 74.20 C 10.50 73.19 9.80 72.21 9.15 71.19 C 11.97 69.80 9.91 66.75 9.86 64.42 C 10.45 62.59 10.99 60.71 12.07 59.10 C 15.31 60.04 18.04 62.59 21.72 61.82 C 23.80 59.85 26.61 57.31 25.76 54.13 Z" />
</g>
<g id="#c4713bfd">
<path fill="#c4713b" opacity="1.00" d=" M 163.99 52.95 C 168.86 47.24 163.26 39.64 164.96 33.51 C 172.15 38.21 180.24 41.25 188.20 44.36 C 185.67 45.69 183.29 44.06 180.97 43.16 C 178.13 43.91 175.61 45.62 174.49 48.41 C 172.47 53.52 167.31 56.09 163.12 59.16 C 157.43 63.77 149.88 64.86 143.77 68.75 C 139.49 71.66 134.43 72.80 129.75 74.81 C 128.59 75.21 127.68 76.02 126.77 76.80 C 124.51 77.67 122.19 78.40 119.83 78.95 C 123.87 74.95 129.51 73.20 134.37 70.43 C 144.11 64.43 155.09 60.13 163.99 52.95 Z" />
</g>
<g id="#eb9857f7">
<path fill="#eb9857" opacity="0.97" d=" M 88.39 48.37 C 92.11 45.36 95.89 42.43 99.78 39.64 C 100.36 39.78 101.52 40.05 102.10 40.19 C 98.65 44.70 92.14 46.85 90.61 52.72 C 89.37 56.75 90.01 61.09 89.33 65.22 C 88.36 62.50 90.34 57.67 88.09 55.88 C 88.10 62.69 86.67 69.42 87.24 76.23 C 87.10 79.29 84.96 81.92 85.24 85.00 L 85.26 85.83 C 84.93 86.34 84.26 87.38 83.93 87.89 C 83.68 86.93 83.40 85.98 83.09 85.04 C 83.80 82.77 84.50 80.50 85.15 78.21 C 86.41 73.16 86.09 67.91 85.74 62.76 C 86.33 57.92 87.08 53.07 88.39 48.37 Z" />
</g>
<g id="#b66836ff">
<path fill="#b66836" opacity="1.00" d=" M 174.49 48.41 C 175.61 45.62 178.13 43.91 180.97 43.16 C 183.29 44.06 185.67 45.69 188.20 44.36 C 190.33 45.10 192.49 45.98 194.12 47.59 C 191.39 47.89 191.16 50.96 189.71 52.72 C 182.94 55.62 175.84 57.83 169.39 61.45 C 165.14 64.35 159.99 65.31 155.36 67.44 C 147.23 71.01 138.75 74.62 129.75 74.81 C 134.43 72.80 139.49 71.66 143.77 68.75 C 149.88 64.86 157.43 63.77 163.12 59.16 C 167.31 56.09 172.47 53.52 174.49 48.41 Z" />
</g>
<g id="#be7139ff">
<path fill="#be7139" opacity="1.00" d=" M 118.04 59.09 C 122.18 54.82 121.56 47.69 125.95 43.80 C 126.05 47.17 125.88 50.61 124.85 53.85 C 122.64 56.63 121.06 60.06 118.11 62.16 C 118.10 61.39 118.06 59.86 118.04 59.09 Z" />
</g>
<g id="#ab5f30ff">
<path fill="#ab5f30" opacity="1.00" d=" M 189.71 52.72 C 191.16 50.96 191.39 47.89 194.12 47.59 C 197.00 49.88 199.18 53.04 199.40 56.81 C 199.23 57.54 198.89 59.00 198.73 59.72 C 192.46 62.19 187.04 66.49 180.64 68.57 C 163.54 72.15 145.67 72.26 128.95 77.04 C 128.40 76.98 127.31 76.86 126.77 76.80 C 127.68 76.02 128.59 75.21 129.75 74.81 C 138.75 74.62 147.23 71.01 155.36 67.44 C 159.99 65.31 165.14 64.35 169.39 61.45 C 175.84 57.83 182.94 55.62 189.71 52.72 Z" />
</g>
<g id="#b06233fe">
<path fill="#b06233" opacity="1.00" d=" M 29.44 55.83 C 29.85 57.46 29.96 59.14 30.05 60.81 C 24.44 64.61 21.54 71.56 15.20 74.25 C 14.96 75.47 14.47 77.92 14.22 79.14 C 13.21 77.49 12.21 75.84 11.17 74.20 C 14.49 72.47 11.19 66.92 15.30 66.31 C 21.69 67.51 27.71 61.63 29.44 55.83 Z" />
</g>
<g id="#e28b50ff">
<path fill="#e28b50" opacity="1.00" d=" M 88.09 55.88 C 90.34 57.67 88.36 62.50 89.33 65.22 C 89.41 66.80 89.79 68.35 90.00 69.92 C 90.04 71.19 90.08 72.45 90.13 73.72 C 87.99 72.44 87.72 74.59 87.24 76.23 C 86.67 69.42 88.10 62.69 88.09 55.88 Z" />
</g>
<g id="#9f572afd">
<path fill="#9f572a" opacity="1.00" d=" M 199.40 56.81 C 200.53 61.88 201.57 67.18 204.43 71.61 C 208.11 77.08 212.88 82.24 214.34 88.86 C 213.85 88.80 212.86 88.68 212.37 88.62 C 210.13 84.51 207.90 80.36 204.80 76.82 C 203.79 74.59 202.79 72.35 201.64 70.18 C 195.92 69.59 191.14 73.21 186.00 74.99 C 182.62 77.15 178.57 74.83 174.99 75.11 C 169.16 74.12 163.39 76.54 157.59 75.61 C 147.97 73.48 138.56 77.19 128.95 77.04 C 145.67 72.26 163.54 72.15 180.64 68.57 C 187.04 66.49 192.46 62.19 198.73 59.72 C 198.89 59.00 199.23 57.54 199.40 56.81 Z" />
</g>
<g id="#733716fa">
<path fill="#733716" opacity="0.98" d=" M 58.02 59.60 C 58.98 57.52 61.33 57.69 62.17 59.78 C 58.97 63.89 61.13 69.21 60.91 73.91 C 59.15 78.09 56.48 81.78 54.28 85.71 C 54.74 86.02 55.66 86.63 56.12 86.94 C 51.16 92.41 43.31 90.59 36.88 91.95 C 37.15 90.03 39.22 89.63 40.54 88.59 C 50.23 83.61 57.58 73.84 58.98 62.93 C 59.08 61.71 58.76 60.60 58.02 59.60 Z" />
</g>
<g id="#723817fe">
<path fill="#723817" opacity="1.00" d=" M 31.32 58.75 C 31.91 61.38 32.83 64.04 32.72 66.74 C 31.66 69.12 29.59 70.77 28.00 72.76 C 29.42 73.04 30.84 73.28 32.24 73.62 C 30.76 73.76 27.80 74.06 26.31 74.21 C 23.07 75.89 25.44 80.43 26.05 83.16 C 26.63 86.46 29.87 87.83 32.07 89.93 C 31.24 90.04 29.58 90.26 28.76 90.37 C 27.13 89.96 25.52 89.46 23.90 89.04 C 23.63 88.82 23.10 88.39 22.83 88.17 C 23.15 83.39 22.60 78.66 21.82 73.95 C 26.21 71.10 32.52 68.00 30.96 61.80 L 31.05 60.82 C 31.12 60.30 31.26 59.26 31.32 58.75 Z" />
</g>
<g id="#8c4720ff">
<path fill="#8c4720" opacity="1.00" d=" M 56.72 61.19 C 57.05 60.80 57.70 60.00 58.02 59.60 C 58.76 60.60 59.08 61.71 58.98 62.93 C 57.58 73.84 50.23 83.61 40.54 88.59 C 39.22 89.63 37.15 90.03 36.88 91.95 L 36.56 92.78 L 35.85 92.69 C 36.67 89.90 35.06 89.68 32.83 90.59 C 31.47 90.77 30.06 90.86 28.76 90.37 C 29.58 90.26 31.24 90.04 32.07 89.93 C 29.87 87.83 26.63 86.46 26.05 83.16 C 27.68 82.89 29.29 82.47 30.80 81.80 C 30.87 80.09 31.02 76.69 31.10 74.98 C 33.44 76.62 35.26 79.47 38.85 78.10 C 38.57 77.13 38.28 76.16 37.97 75.20 C 41.81 74.75 45.05 72.40 48.15 70.28 C 48.44 70.08 49.01 69.68 49.30 69.48 C 50.88 68.56 52.30 67.37 53.38 65.88 C 54.55 64.36 55.66 62.79 56.72 61.19 Z" />
</g>
<g id="#642e10f7">
<path fill="#642e10" opacity="0.97" d=" M 62.17 59.78 C 67.48 68.64 65.16 81.40 56.12 86.94 C 55.66 86.63 54.74 86.02 54.28 85.71 C 56.48 81.78 59.15 78.09 60.91 73.91 C 61.13 69.21 58.97 63.89 62.17 59.78 Z" />
</g>
<g id="#995229fd">
<path fill="#995229" opacity="1.00" d=" M 15.20 74.25 C 21.54 71.56 24.44 64.61 30.05 60.81 L 31.05 60.82 L 30.96 61.80 C 28.49 66.26 23.93 69.37 21.82 73.95 C 20.92 77.48 19.74 80.95 18.16 84.24 C 16.89 82.51 15.36 80.97 14.22 79.14 C 14.47 77.92 14.96 75.47 15.20 74.25 Z" />
</g>
<g id="#894620ff">
<path fill="#894620" opacity="1.00" d=" M 21.82 73.95 C 23.93 69.37 28.49 66.26 30.96 61.80 C 32.52 68.00 26.21 71.10 21.82 73.95 Z" />
</g>
<g id="#1d140b52">
<path fill="#1d140b" opacity="0.32" d=" M 85.15 78.21 C 84.93 73.06 84.83 67.86 85.74 62.76 C 86.09 67.91 86.41 73.16 85.15 78.21 Z" />
</g>
<g id="#14080350">
<path fill="#140803" opacity="0.31" d=" M 45.79 68.26 C 48.27 67.27 50.60 63.72 53.38 65.88 C 52.30 67.37 50.88 68.56 49.30 69.48 C 48.12 69.10 46.95 68.69 45.79 68.26 Z" />
</g>
<g id="#47250ffd">
<path fill="#47250f" opacity="1.00" d=" M 41.65 69.73 C 43.01 69.17 44.40 68.72 45.79 68.26 C 46.95 68.69 48.12 69.10 49.30 69.48 C 49.01 69.68 48.44 70.08 48.15 70.28 C 46.52 70.14 43.28 69.87 41.65 69.73 Z" />
</g>
<g id="#9c5327ff">
<path fill="#9c5327" opacity="1.00" d=" M 186.00 74.99 C 191.14 73.21 195.92 69.59 201.64 70.18 C 202.79 72.35 203.79 74.59 204.80 76.82 C 202.50 79.63 198.18 82.91 201.44 86.50 C 204.62 95.69 195.72 102.42 190.80 108.79 C 188.00 112.49 182.12 111.52 180.00 116.02 C 177.12 118.59 175.20 123.11 171.21 124.14 C 174.48 116.99 167.31 118.40 164.35 120.40 C 153.48 127.08 141.38 132.99 128.34 132.51 C 126.54 132.42 123.12 130.85 124.07 134.06 C 119.61 130.97 115.06 127.95 111.36 123.94 C 110.34 122.89 109.30 121.87 108.26 120.85 C 107.90 120.33 107.17 119.28 106.81 118.75 C 109.35 118.11 111.70 120.21 113.90 121.17 C 124.75 128.01 139.06 130.07 151.09 125.11 C 156.89 122.76 162.44 119.85 168.00 116.97 C 170.48 115.45 172.36 116.88 173.74 119.00 C 174.97 112.97 179.74 108.96 183.32 104.29 C 187.27 101.58 191.65 98.98 192.97 94.00 C 191.83 91.59 190.79 88.97 188.80 87.12 C 183.19 86.52 179.18 91.84 173.88 92.98 C 175.40 91.08 177.47 89.74 179.18 88.02 C 175.36 87.24 172.36 89.88 169.92 92.42 C 169.63 89.35 169.89 86.29 169.82 83.22 C 163.68 79.06 156.33 78.91 149.30 77.65 C 142.70 76.58 135.96 78.31 129.67 80.16 C 129.22 80.14 128.32 80.10 127.87 80.08 C 126.21 79.99 124.55 79.93 122.89 79.91 C 124.93 78.98 127.20 78.52 128.95 77.04 C 138.56 77.19 147.97 73.48 157.59 75.61 C 163.39 76.54 169.16 74.12 174.99 75.11 C 178.57 74.83 182.62 77.15 186.00 74.99 Z" />
</g>
<g id="#b56b37ff">
<path fill="#b56b37" opacity="1.00" d=" M 105.03 70.99 C 106.41 70.98 107.79 71.02 109.17 71.10 C 105.82 75.73 99.35 76.73 94.08 77.36 C 93.78 76.82 93.18 75.74 92.88 75.20 C 97.00 74.10 101.40 73.36 105.03 70.99 Z" />
</g>
<g id="#86451ffc">
<path fill="#86451f" opacity="1.00" d=" M 18.16 84.24 C 19.74 80.95 20.92 77.48 21.82 73.95 C 22.60 78.66 23.15 83.39 22.83 88.17 C 21.11 87.07 19.26 86.02 18.16 84.24 Z" />
</g>
<g id="#a35427ff">
<path fill="#a35427" opacity="1.00" d=" M 26.31 74.21 C 27.80 74.06 30.76 73.76 32.24 73.62 C 34.19 74.00 36.10 74.56 37.97 75.20 C 38.28 76.16 38.57 77.13 38.85 78.10 C 35.26 79.47 33.44 76.62 31.10 74.98 C 31.02 76.69 30.87 80.09 30.80 81.80 C 29.29 82.47 27.68 82.89 26.05 83.16 C 25.44 80.43 23.07 75.89 26.31 74.21 Z" />
</g>
<g id="#a0562bfd">
<path fill="#a0562b" opacity="1.00" d=" M 119.83 78.95 C 122.19 78.40 124.51 77.67 126.77 76.80 C 127.31 76.86 128.40 76.98 128.95 77.04 C 127.20 78.52 124.93 78.98 122.89 79.91 C 116.91 83.47 110.24 86.19 105.76 91.76 C 102.19 96.74 95.74 97.12 90.91 100.32 C 87.82 98.40 85.29 95.79 82.76 93.22 C 83.92 93.41 85.08 93.63 86.24 93.87 C 86.61 94.19 87.34 94.84 87.71 95.16 C 87.94 95.37 88.41 95.78 88.64 95.99 C 90.37 98.44 93.02 95.56 95.03 95.04 C 99.74 92.59 105.27 90.83 107.90 85.81 C 111.77 83.35 115.84 81.20 119.83 78.95 Z" />
</g>
<g id="#904a21ff">
<path fill="#904a21" opacity="1.00" d=" M 129.67 80.16 C 135.96 78.31 142.70 76.58 149.30 77.65 C 156.33 78.91 163.68 79.06 169.82 83.22 C 169.89 86.29 169.63 89.35 169.92 92.42 C 168.57 94.96 166.48 96.97 164.68 99.20 L 164.08 98.83 C 162.97 98.01 161.88 97.18 160.89 96.23 C 161.68 92.83 165.48 87.57 160.08 85.88 C 156.35 81.64 150.55 82.08 145.59 80.55 C 141.59 79.24 137.60 80.19 133.78 81.37 C 132.39 81.00 131.02 80.63 129.67 80.16 Z" />
</g>
<g id="#924c23ff">
<path fill="#924c23" opacity="1.00" d=" M 201.44 86.50 C 198.18 82.91 202.50 79.63 204.80 76.82 C 207.90 80.36 210.13 84.51 212.37 88.62 C 212.86 88.68 213.85 88.80 214.34 88.86 C 214.57 89.33 215.03 90.28 215.26 90.75 C 215.10 92.91 214.95 95.07 214.90 97.24 C 213.67 94.57 211.94 90.25 208.29 91.14 C 205.09 99.09 201.82 107.36 195.09 113.08 C 189.53 117.33 184.54 123.28 177.28 124.44 C 173.74 128.19 170.55 132.25 167.15 136.11 C 167.05 135.56 166.86 134.45 166.77 133.89 C 167.49 131.93 168.31 130.02 169.15 128.10 C 169.77 125.78 170.06 123.40 170.03 120.98 C 167.75 120.67 165.56 121.41 163.70 122.69 C 154.99 128.43 145.92 133.89 135.99 137.15 C 135.76 139.14 137.89 139.92 139.00 141.16 L 137.94 141.33 L 137.21 141.17 C 136.69 140.91 135.66 140.39 135.14 140.13 C 134.65 139.88 133.67 139.38 133.18 139.13 C 131.50 138.25 129.80 137.41 128.09 136.61 C 126.72 135.80 125.39 134.94 124.07 134.06 C 123.12 130.85 126.54 132.42 128.34 132.51 C 141.38 132.99 153.48 127.08 164.35 120.40 C 167.31 118.40 174.48 116.99 171.21 124.14 C 175.20 123.11 177.12 118.59 180.00 116.02 C 182.12 111.52 188.00 112.49 190.80 108.79 C 195.72 102.42 204.62 95.69 201.44 86.50 Z" />
</g>
<g id="#8e4a22fb">
<path fill="#8e4a22" opacity="1.00" d=" M 105.76 91.76 C 110.24 86.19 116.91 83.47 122.89 79.91 C 124.55 79.93 126.21 79.99 127.87 80.08 C 128.32 83.70 128.76 87.57 131.29 90.41 C 130.18 90.78 129.03 90.54 127.93 90.25 C 126.27 87.80 125.79 84.87 124.83 82.12 C 123.83 82.53 122.86 83.01 121.91 83.52 C 119.69 84.65 117.68 86.16 115.91 87.90 C 111.81 91.58 105.59 92.92 102.53 97.75 C 101.37 99.42 100.25 101.13 99.02 102.75 C 98.71 102.96 98.09 103.39 97.78 103.60 C 96.95 104.07 96.12 104.55 95.29 105.05 C 93.89 103.42 92.41 101.86 90.91 100.32 C 95.74 97.12 102.19 96.74 105.76 91.76 Z" />
</g>
<g id="#0804021c">
<path fill="#080402" opacity="0.11" d=" M 127.87 80.08 C 128.32 80.10 129.22 80.14 129.67 80.16 C 131.02 80.63 132.39 81.00 133.78 81.37 C 135.24 81.89 136.71 82.40 138.18 82.93 C 137.49 86.57 135.74 90.77 131.29 90.41 C 128.76 87.57 128.32 83.70 127.87 80.08 Z" />
</g>
<g id="#87441dfe">
<path fill="#87441d" opacity="1.00" d=" M 133.78 81.37 C 137.60 80.19 141.59 79.24 145.59 80.55 C 150.55 82.08 156.35 81.64 160.08 85.88 C 165.48 87.57 161.68 92.83 160.89 96.23 C 159.28 94.78 157.70 93.30 155.98 91.99 L 155.39 91.50 C 153.33 89.48 150.82 87.88 148.12 86.88 C 148.03 88.21 147.97 89.54 147.95 90.87 C 147.19 90.95 145.67 91.11 144.91 91.18 C 142.97 89.26 145.45 84.84 142.03 84.11 C 140.75 83.68 139.47 83.29 138.18 82.93 C 136.71 82.40 135.24 81.89 133.78 81.37 Z" />
</g>
<g id="#b06634e0">
<path fill="#b06634" opacity="0.88" d=" M 73.86 85.87 C 71.26 84.41 74.05 79.07 77.05 82.17 C 76.00 83.41 74.93 84.64 73.86 85.87 Z" />
</g>
<g id="#cc7239fd">
<path fill="#cc7239" opacity="1.00" d=" M 77.05 82.17 C 79.14 82.96 81.11 84.02 83.09 85.04 C 83.40 85.98 83.68 86.93 83.93 87.89 C 83.19 89.35 84.80 90.58 85.20 91.91 C 81.77 89.93 78.83 86.65 74.77 86.07 L 73.86 85.87 C 74.93 84.64 76.00 83.41 77.05 82.17 Z" />
</g>
<g id="#cb7136ff">
<path fill="#cb7136" opacity="1.00" d=" M 121.91 83.52 C 122.86 83.01 123.83 82.53 124.83 82.12 C 125.79 84.87 126.27 87.80 127.93 90.25 C 124.14 90.34 123.96 85.80 121.91 83.52 Z" />
</g>
<g id="#e37f3cff">
<path fill="#e37f3c" opacity="1.00" d=" M 138.18 82.93 C 139.47 83.29 140.75 83.68 142.03 84.11 C 142.43 89.66 138.60 94.41 139.06 100.01 C 139.66 102.79 136.55 101.86 134.85 102.20 C 134.45 102.05 133.64 101.77 133.23 101.63 C 129.56 99.39 124.77 99.67 120.80 100.72 C 118.22 101.81 115.77 103.21 113.17 104.25 C 108.74 104.32 104.63 101.56 102.53 97.75 C 105.59 92.92 111.81 91.58 115.91 87.90 C 117.68 86.16 119.69 84.65 121.91 83.52 C 123.96 85.80 124.14 90.34 127.93 90.25 C 129.03 90.54 130.18 90.78 131.29 90.41 C 135.74 90.77 137.49 86.57 138.18 82.93 Z" />
</g>
<g id="#ce7034ff">
<path fill="#ce7034" opacity="1.00" d=" M 142.03 84.11 C 145.45 84.84 142.97 89.26 144.91 91.18 C 145.93 92.48 147.06 93.70 148.14 94.95 C 145.62 95.22 142.38 97.08 145.12 100.75 C 147.27 101.32 149.45 101.85 151.26 103.21 C 148.31 104.83 145.54 106.78 142.47 108.17 C 140.10 105.97 137.52 104.01 134.85 102.20 C 136.55 101.86 139.66 102.79 139.06 100.01 C 138.60 94.41 142.43 89.66 142.03 84.11 Z" />
</g>
<g id="#a95d2ef9">
<path fill="#a95d2e" opacity="0.98" d=" M 74.77 86.07 C 78.83 86.65 81.77 89.93 85.20 91.91 C 85.50 92.22 86.11 92.84 86.41 93.15 L 86.24 93.87 C 85.08 93.63 83.92 93.41 82.76 93.22 C 79.38 91.79 77.32 88.54 74.77 86.07 Z" />
</g>
<g id="#e18144ff">
<path fill="#e18144" opacity="1.00" d=" M 85.26 85.83 C 85.90 88.20 87.39 90.67 86.41 93.15 C 86.11 92.84 85.50 92.22 85.20 91.91 C 84.80 90.58 83.19 89.35 83.93 87.89 C 84.26 87.38 84.93 86.34 85.26 85.83 Z" />
</g>
<g id="#b06333ff">
<path fill="#b06333" opacity="1.00" d=" M 105.14 87.09 C 106.05 86.65 106.97 86.23 107.90 85.81 C 105.27 90.83 99.74 92.59 95.03 95.04 C 93.02 95.56 90.37 98.44 88.64 95.99 C 93.34 91.60 100.43 91.48 105.14 87.09 Z" />
</g>
<g id="#c06f3bff">
<path fill="#c06f3b" opacity="1.00" d=" M 90.29 89.53 C 95.43 90.34 100.31 88.51 105.14 87.09 C 100.43 91.48 93.34 91.60 88.64 95.99 C 88.41 95.78 87.94 95.37 87.71 95.16 C 88.14 93.23 87.11 89.04 90.29 89.53 Z" />
</g>
<g id="#10080430">
<path fill="#100804" opacity="0.19" d=" M 148.12 86.88 C 150.82 87.88 153.33 89.48 155.39 91.50 C 153.95 92.45 152.52 93.42 151.03 94.30 C 149.95 93.21 148.96 92.03 147.95 90.87 C 147.97 89.54 148.03 88.21 148.12 86.88 Z" />
</g>
<g id="#a5592cff">
<path fill="#a5592c" opacity="1.00" d=" M 173.88 92.98 C 179.18 91.84 183.19 86.52 188.80 87.12 C 190.79 88.97 191.83 91.59 192.97 94.00 C 191.65 98.98 187.27 101.58 183.32 104.29 C 179.74 108.96 174.97 112.97 173.74 119.00 C 172.36 116.88 170.48 115.45 168.00 116.97 C 168.88 115.73 169.88 114.51 170.11 112.95 C 166.51 113.19 163.39 116.67 159.79 115.34 C 163.10 113.90 166.42 112.46 169.64 110.82 C 169.53 110.53 169.31 109.94 169.20 109.65 C 168.53 107.93 168.04 106.14 167.68 104.33 C 169.41 101.36 170.79 98.20 172.07 95.01 C 172.66 94.33 173.27 93.65 173.88 92.98 Z" />
</g>
<g id="#6d3a1cff">
<path fill="#6d3a1c" opacity="1.00" d=" M 169.92 92.42 C 172.36 89.88 175.36 87.24 179.18 88.02 C 177.47 89.74 175.40 91.08 173.88 92.98 C 173.27 93.65 172.66 94.33 172.07 95.01 C 169.78 96.89 167.55 98.85 165.64 101.12 C 165.40 100.64 164.92 99.68 164.68 99.20 C 166.48 96.97 168.57 94.96 169.92 92.42 Z" />
</g>
<g id="#9f7e5ff9">
<path fill="#9f7e5f" opacity="0.98" d=" M 23.90 89.04 C 25.52 89.46 27.13 89.96 28.76 90.37 C 30.06 90.86 31.47 90.77 32.83 90.59 C 33.12 90.90 33.71 91.51 34.00 91.82 C 31.65 92.38 29.28 92.87 26.90 93.28 C 33.53 96.60 31.57 105.06 34.00 110.99 C 35.61 114.59 34.57 118.41 34.18 122.12 C 33.32 122.84 32.44 123.57 31.56 124.28 C 31.26 124.09 30.68 123.72 30.39 123.53 C 27.49 114.44 28.95 104.62 26.59 95.43 C 24.90 93.65 23.71 91.59 23.90 89.04 Z" />
</g>
<g id="#7e5b3bfd">
<path fill="#7e5b3b" opacity="1.00" d=" M 32.83 90.59 C 35.06 89.68 36.67 89.90 35.85 92.69 C 34.03 94.95 33.97 97.07 35.65 99.07 C 36.21 103.02 37.06 106.92 37.92 110.82 C 36.43 113.36 38.33 116.09 37.77 118.73 C 36.68 119.96 35.45 121.06 34.18 122.12 C 34.57 118.41 35.61 114.59 34.00 110.99 C 31.57 105.06 33.53 96.60 26.90 93.28 C 29.28 92.87 31.65 92.38 34.00 91.82 C 33.71 91.51 33.12 90.90 32.83 90.59 Z" />
</g>
<g id="#a55a2ffb">
<path fill="#a55a2f" opacity="1.00" d=" M 144.91 91.18 C 145.67 91.11 147.19 90.95 147.95 90.87 C 148.96 92.03 149.95 93.21 151.03 94.30 C 150.13 94.72 149.17 94.94 148.14 94.95 C 147.06 93.70 145.93 92.48 144.91 91.18 Z" />
</g>
<g id="#864620fe">
<path fill="#864620" opacity="1.00" d=" M 208.29 91.14 C 211.94 90.25 213.67 94.57 214.90 97.24 C 214.97 97.73 215.11 98.71 215.18 99.21 C 213.42 106.06 211.56 112.90 210.21 119.84 C 210.59 122.68 208.35 123.57 206.04 124.16 C 206.00 122.10 206.38 120.09 207.21 118.21 C 210.06 111.88 211.36 104.93 211.96 98.05 C 212.15 96.96 210.44 95.15 209.66 96.67 C 206.69 100.63 205.09 105.40 202.63 109.67 C 197.11 117.42 189.70 123.91 181.19 128.22 C 177.68 133.49 172.63 137.02 167.71 140.82 C 169.49 140.86 173.06 140.94 174.85 140.97 C 176.92 141.02 179.00 141.05 181.08 141.06 L 180.61 141.87 C 180.13 142.62 179.66 143.37 179.18 144.12 C 179.69 141.39 176.98 142.10 175.23 142.02 C 173.50 141.98 171.78 141.96 170.06 142.00 C 168.07 142.00 166.07 142.09 164.09 142.27 C 163.07 141.36 162.13 140.36 161.75 139.02 C 163.78 137.69 165.61 136.05 166.77 133.89 C 166.86 134.45 167.05 135.56 167.15 136.11 C 170.55 132.25 173.74 128.19 177.28 124.44 C 184.54 123.28 189.53 117.33 195.09 113.08 C 201.82 107.36 205.09 99.09 208.29 91.14 Z" />
</g>
<g id="#1f120975">
<path fill="#1f1209" opacity="0.46" d=" M 215.26 90.75 C 216.77 93.36 215.70 96.46 215.18 99.21 C 215.11 98.71 214.97 97.73 214.90 97.24 C 214.95 95.07 215.10 92.91 215.26 90.75 Z" />
</g>
<g id="#d9793afe">
<path fill="#d9793a" opacity="1.00" d=" M 151.03 94.30 C 152.52 93.42 153.95 92.45 155.39 91.50 L 155.98 91.99 C 156.70 94.61 157.82 97.14 158.06 99.87 C 155.83 101.07 153.57 102.19 151.26 103.21 C 149.45 101.85 147.27 101.32 145.12 100.75 C 142.38 97.08 145.62 95.22 148.14 94.95 C 149.17 94.94 150.13 94.72 151.03 94.30 Z" />
</g>
<g id="#2e1e12ff">
<path fill="#2e1e12" opacity="1.00" d=" M 155.98 91.99 C 157.70 93.30 159.28 94.78 160.89 96.23 C 161.88 97.18 162.97 98.01 164.08 98.83 C 163.15 100.37 162.31 101.96 161.46 103.55 C 159.04 104.15 156.21 103.60 154.01 105.04 C 147.01 109.16 139.33 111.97 132.45 116.32 C 130.32 117.56 136.60 116.02 134.72 117.92 C 134.22 118.02 133.21 118.24 132.71 118.34 C 123.86 117.77 115.31 115.23 106.90 112.58 C 108.67 112.21 110.46 111.97 112.25 111.78 C 113.76 111.93 115.26 112.06 116.77 112.21 C 119.90 112.80 123.19 113.48 126.28 112.35 C 129.27 112.00 132.28 111.67 135.23 111.03 C 137.13 110.91 138.85 110.11 140.48 109.17 C 140.98 108.92 141.97 108.42 142.47 108.17 C 145.54 106.78 148.31 104.83 151.26 103.21 C 153.57 102.19 155.83 101.07 158.06 99.87 C 157.82 97.14 156.70 94.61 155.98 91.99 Z" />
</g>
<g id="#45321fc6">
<path fill="#45321f" opacity="0.78" d=" M 35.65 99.07 C 33.97 97.07 34.03 94.95 35.85 92.69 L 36.56 92.78 C 36.46 94.90 36.21 97.02 35.65 99.07 Z" />
</g>
<g id="#944f26ff">
<path fill="#944f26" opacity="1.00" d=" M 165.64 101.12 C 167.55 98.85 169.78 96.89 172.07 95.01 C 170.79 98.20 169.41 101.36 167.68 104.33 C 166.93 103.31 166.19 102.27 165.64 101.12 Z" />
</g>
<g id="#81401aff">
<path fill="#81401a" opacity="1.00" d=" M 209.66 96.67 C 210.44 95.15 212.15 96.96 211.96 98.05 C 211.36 104.93 210.06 111.88 207.21 118.21 C 207.10 115.47 208.53 112.36 206.89 109.97 C 202.30 112.75 201.32 118.90 197.18 122.18 C 192.65 126.41 186.97 129.20 182.58 133.58 C 180.15 136.17 174.47 136.54 174.85 140.97 C 173.06 140.94 169.49 140.86 167.71 140.82 C 172.63 137.02 177.68 133.49 181.19 128.22 C 189.70 123.91 197.11 117.42 202.63 109.67 C 205.09 105.40 206.69 100.63 209.66 96.67 Z" />
</g>
<g id="#c67038ff">
<path fill="#c67038" opacity="1.00" d=" M 99.02 102.75 C 100.25 101.13 101.37 99.42 102.53 97.75 C 104.63 101.56 108.74 104.32 113.17 104.25 C 110.69 104.83 108.15 105.04 105.70 105.75 C 103.67 104.37 101.54 102.98 99.02 102.75 Z" />
</g>
<g id="#3a2516ff">
<path fill="#3a2516" opacity="1.00" d=" M 164.08 98.83 L 164.68 99.20 C 164.92 99.68 165.40 100.64 165.64 101.12 C 166.19 102.27 166.93 103.31 167.68 104.33 C 168.04 106.14 168.53 107.93 169.20 109.65 C 163.33 112.05 157.66 114.92 151.78 117.28 C 145.73 118.97 139.42 119.17 133.16 119.01 L 132.71 118.34 C 133.21 118.24 134.22 118.02 134.72 117.92 C 136.60 116.02 130.32 117.56 132.45 116.32 C 139.33 111.97 147.01 109.16 154.01 105.04 C 156.21 103.60 159.04 104.15 161.46 103.55 C 162.31 101.96 163.15 100.37 164.08 98.83 Z" />
</g>
<g id="#ab5f2eff">
<path fill="#ab5f2e" opacity="1.00" d=" M 120.80 100.72 C 124.77 99.67 129.56 99.39 133.23 101.63 C 132.90 101.91 132.22 102.49 131.89 102.77 C 129.21 101.20 126.16 101.28 123.14 101.58 C 122.56 101.36 121.38 100.94 120.80 100.72 Z" />
</g>
<g id="#b3946cf5">
<path fill="#b3946c" opacity="0.96" d=" M 71.24 102.72 C 71.63 102.17 72.85 99.77 73.17 101.68 C 73.11 105.10 72.94 108.53 72.98 111.96 C 72.41 108.87 72.13 105.74 71.24 102.72 Z" />
</g>
<g id="#884b24ff">
<path fill="#884b24" opacity="1.00" d=" M 113.17 104.25 C 115.77 103.21 118.22 101.81 120.80 100.72 C 121.38 100.94 122.56 101.36 123.14 101.58 C 118.25 104.06 113.14 106.02 107.68 106.81 C 107.19 106.54 106.20 106.01 105.70 105.75 C 108.15 105.04 110.69 104.83 113.17 104.25 Z" />
</g>
<g id="#c06e3bff">
<path fill="#c06e3b" opacity="1.00" d=" M 123.14 101.58 C 126.16 101.28 129.21 101.20 131.89 102.77 C 132.22 103.00 132.89 103.44 133.22 103.66 C 131.27 103.96 128.83 103.66 127.88 105.80 C 130.33 107.53 132.79 109.27 135.23 111.03 C 132.28 111.67 129.27 112.00 126.28 112.35 C 123.10 112.25 119.94 112.11 116.77 112.21 C 115.26 112.06 113.76 111.93 112.25 111.78 C 111.54 109.84 110.04 108.47 108.27 107.50 L 107.68 106.81 C 113.14 106.02 118.25 104.06 123.14 101.58 Z" />
</g>
<g id="#8d7252f9">
<path fill="#8d7252" opacity="0.98" d=" M 73.17 101.68 C 73.45 102.23 74.01 103.31 74.29 103.86 C 72.90 106.70 73.04 109.13 74.72 111.14 C 75.10 112.45 75.53 113.75 76.03 115.02 C 75.72 115.36 75.09 116.04 74.77 116.39 C 74.20 114.90 73.67 113.39 72.98 111.96 C 72.94 108.53 73.11 105.10 73.17 101.68 Z" />
</g>
<g id="#8a4b23ff">
<path fill="#8a4b23" opacity="1.00" d=" M 131.89 102.77 C 132.22 102.49 132.90 101.91 133.23 101.63 C 133.64 101.77 134.45 102.05 134.85 102.20 C 137.52 104.01 140.10 105.97 142.47 108.17 C 141.97 108.42 140.98 108.92 140.48 109.17 C 138.23 107.10 135.81 105.27 133.22 103.66 C 132.89 103.44 132.22 103.00 131.89 102.77 Z" />
</g>
<g id="#e1be92fc">
<path fill="#e1be92" opacity="1.00" d=" M 71.24 102.72 C 72.13 105.74 72.41 108.87 72.98 111.96 C 71.98 116.89 74.22 121.27 77.18 124.96 C 77.35 129.17 73.46 125.13 71.95 123.97 C 69.32 120.17 70.45 115.33 69.95 111.02 L 69.06 111.05 C 69.03 115.38 68.42 119.67 67.89 123.96 L 67.13 124.16 C 67.02 122.00 66.85 119.85 66.66 117.69 L 66.83 116.80 C 68.13 112.06 68.88 107.08 71.24 102.72 Z" />
</g>
<g id="#b9b8b6ff">
<path fill="#b9b8b6" opacity="1.00" d=" M 97.78 103.60 C 98.09 103.39 98.71 102.96 99.02 102.75 C 101.54 102.98 103.67 104.37 105.70 105.75 C 106.01 107.53 106.33 109.31 106.80 111.05 L 105.74 111.15 C 102.17 110.75 102.90 114.49 104.91 116.03 L 105.27 116.82 C 104.16 118.36 103.03 119.89 101.86 121.39 C 100.56 120.76 99.26 120.13 98.06 119.34 C 98.28 118.75 98.74 117.58 98.96 116.99 C 101.23 119.86 103.82 114.38 99.98 114.71 C 103.31 111.69 103.74 103.23 97.78 103.60 Z" />
</g>
<g id="#0c09064c">
<path fill="#0c0906" opacity="0.30" d=" M 74.29 103.86 C 75.92 105.90 76.06 108.32 74.72 111.14 C 73.04 109.13 72.90 106.70 74.29 103.86 Z" />
</g>
<g id="#e1e0e0fe">
<path fill="#e1e0e0" opacity="1.00" d=" M 95.29 105.05 C 96.12 104.55 96.95 104.07 97.78 103.60 C 103.74 103.23 103.31 111.69 99.98 114.71 C 99.72 115.28 99.22 116.42 98.96 116.99 C 98.74 117.58 98.28 118.75 98.06 119.34 C 95.20 116.96 90.52 115.74 89.59 111.84 C 89.69 111.38 89.90 110.46 90.00 110.00 C 91.99 108.61 93.68 106.86 95.29 105.05 Z" />
</g>
<g id="#ae6233ff">
<path fill="#ae6233" opacity="1.00" d=" M 127.88 105.80 C 128.83 103.66 131.27 103.96 133.22 103.66 C 135.81 105.27 138.23 107.10 140.48 109.17 C 138.85 110.11 137.13 110.91 135.23 111.03 C 132.79 109.27 130.33 107.53 127.88 105.80 Z" />
</g>
<g id="#94908eff">
<path fill="#94908e" opacity="1.00" d=" M 105.70 105.75 C 106.20 106.01 107.19 106.54 107.68 106.81 L 108.27 107.50 C 108.69 109.28 109.81 111.82 106.80 111.05 C 106.33 109.31 106.01 107.53 105.70 105.75 Z" />
</g>
<g id="#6f4d39ff">
<path fill="#6f4d39" opacity="1.00" d=" M 108.27 107.50 C 110.04 108.47 111.54 109.84 112.25 111.78 C 110.46 111.97 108.67 112.21 106.90 112.58 C 106.61 112.22 106.03 111.50 105.74 111.15 L 106.80 111.05 C 109.81 111.82 108.69 109.28 108.27 107.50 Z" />
</g>
<g id="#d17036f7">
<path fill="#d17036" opacity="0.97" d=" M 80.86 118.21 C 83.04 114.68 85.43 110.53 90.00 110.00 C 89.90 110.46 89.69 111.38 89.59 111.84 C 89.37 112.85 89.20 113.87 89.07 114.90 C 87.68 118.94 82.67 120.36 79.80 123.32 C 79.55 123.03 79.05 122.46 78.80 122.18 C 79.49 120.86 80.18 119.54 80.86 118.21 Z" />
</g>
<g id="#d4672eff">
<path fill="#d4672e" opacity="1.00" d=" M 151.78 117.28 C 157.66 114.92 163.33 112.05 169.20 109.65 C 169.31 109.94 169.53 110.53 169.64 110.82 C 166.42 112.46 163.10 113.90 159.79 115.34 C 157.95 115.88 156.30 116.86 154.99 118.26 C 153.91 117.96 152.84 117.63 151.78 117.28 Z" />
</g>
<g id="#773a17ff">
<path fill="#773a17" opacity="1.00" d=" M 197.18 122.18 C 201.32 118.90 202.30 112.75 206.89 109.97 C 208.53 112.36 207.10 115.47 207.21 118.21 C 206.38 120.09 206.00 122.10 206.04 124.16 C 204.11 125.40 202.68 127.16 201.59 129.15 C 200.98 130.06 200.41 131.00 199.84 131.93 C 199.19 132.88 198.59 133.86 197.97 134.83 C 196.62 135.50 195.24 136.08 193.86 136.66 C 191.88 137.46 189.90 138.23 187.94 139.07 C 186.28 139.67 184.57 140.11 182.88 140.60 C 182.43 140.71 181.53 140.95 181.08 141.06 C 179.00 141.05 176.92 141.02 174.85 140.97 C 174.47 136.54 180.15 136.17 182.58 133.58 C 186.97 129.20 192.65 126.41 197.18 122.18 Z" />
</g>
<g id="#6d4d30f7">
<path fill="#6d4d30" opacity="0.97" d=" M 37.92 110.82 C 39.33 112.21 40.58 113.75 42.04 115.08 C 39.58 119.01 37.46 123.64 32.67 125.03 C 32.39 124.84 31.84 124.47 31.56 124.28 C 32.44 123.57 33.32 122.84 34.18 122.12 C 35.45 121.06 36.68 119.96 37.77 118.73 C 38.33 116.09 36.43 113.36 37.92 110.82 Z" />
</g>
<g id="#bfa286ff">
<path fill="#bfa286" opacity="1.00" d=" M 69.06 111.05 L 69.95 111.02 C 70.45 115.33 69.32 120.17 71.95 123.97 C 75.32 129.97 79.88 136.25 86.77 138.39 C 91.85 140.70 96.93 143.67 102.81 142.93 C 104.94 141.61 103.48 139.44 102.29 138.06 C 102.07 137.80 101.62 137.27 101.40 137.00 C 100.32 135.87 100.22 134.32 100.04 132.86 C 100.93 133.98 101.85 135.09 102.85 136.13 C 103.45 136.81 104.06 137.48 104.69 138.14 C 105.37 139.79 106.76 140.91 108.10 142.00 C 108.07 142.48 108.02 143.42 108.00 143.89 C 99.46 145.94 91.13 143.18 82.97 140.99 C 78.44 139.54 76.37 135.07 73.27 131.88 C 73.21 134.23 72.98 136.75 70.20 137.21 L 69.68 136.44 C 70.99 131.94 68.80 128.13 67.89 123.96 C 68.42 119.67 69.03 115.38 69.06 111.05 Z" />
</g>
<g id="#c66d34ff">
<path fill="#c66d34" opacity="1.00" d=" M 104.91 116.03 C 102.90 114.49 102.17 110.75 105.74 111.15 C 106.03 111.50 106.61 112.22 106.90 112.58 C 115.31 115.23 123.86 117.77 132.71 118.34 L 133.16 119.01 C 134.56 121.10 137.62 121.77 140.00 121.03 C 145.19 121.74 150.23 120.10 154.99 118.26 C 157.03 117.73 159.07 117.15 161.18 117.00 C 155.38 123.16 146.00 124.70 138.01 125.07 C 126.13 125.98 116.03 118.67 104.91 116.03 Z" />
</g>
<g id="#ad8c6bff">
<path fill="#ad8c6b" opacity="1.00" d=" M 72.98 111.96 C 73.67 113.39 74.20 114.90 74.77 116.39 C 75.12 118.90 76.42 121.14 78.80 122.18 C 79.05 122.46 79.55 123.03 79.80 123.32 C 80.87 125.25 82.01 127.15 82.95 129.15 C 80.61 128.41 78.98 126.51 77.18 124.96 C 74.22 121.27 71.98 116.89 72.98 111.96 Z" />
</g>
<g id="#996340ff">
<path fill="#996340" opacity="1.00" d=" M 89.07 114.90 C 89.20 113.87 89.37 112.85 89.59 111.84 C 90.52 115.74 95.20 116.96 98.06 119.34 C 99.26 120.13 100.56 120.76 101.86 121.39 C 102.92 122.02 103.97 122.67 105.00 123.35 L 104.73 124.25 C 103.51 123.72 102.30 123.14 101.09 122.58 C 99.16 121.58 97.21 120.61 95.24 119.68 C 94.94 119.46 94.33 119.02 94.03 118.80 C 92.33 117.56 90.69 116.24 89.07 114.90 Z" />
</g>
<g id="#643b21ff">
<path fill="#643b21" opacity="1.00" d=" M 116.77 112.21 C 119.94 112.11 123.10 112.25 126.28 112.35 C 123.19 113.48 119.90 112.80 116.77 112.21 Z" />
</g>
<g id="#b05f2eff">
<path fill="#b05f2e" opacity="1.00" d=" M 159.79 115.34 C 163.39 116.67 166.51 113.19 170.11 112.95 C 169.88 114.51 168.88 115.73 168.00 116.97 C 162.44 119.85 156.89 122.76 151.09 125.11 C 139.06 130.07 124.75 128.01 113.90 121.17 C 111.70 120.21 109.35 118.11 106.81 118.75 L 106.18 118.89 C 105.95 118.37 105.49 117.34 105.27 116.82 L 104.91 116.03 C 116.03 118.67 126.13 125.98 138.01 125.07 C 146.00 124.70 155.38 123.16 161.18 117.00 C 159.07 117.15 157.03 117.73 154.99 118.26 C 156.30 116.86 157.95 115.88 159.79 115.34 Z" />
</g>
<g id="#9e7a57f9">
<path fill="#9e7a57" opacity="0.98" d=" M 42.04 115.08 C 44.78 114.83 46.82 116.74 49.10 117.89 C 53.31 118.41 57.57 117.75 61.78 117.62 C 63.19 117.97 65.51 117.55 65.12 119.72 C 57.76 117.67 49.99 122.07 43.13 117.99 C 40.88 120.70 38.42 123.47 35.78 125.97 C 35.30 126.03 34.34 126.14 33.85 126.20 C 33.56 125.90 32.96 125.32 32.67 125.03 C 37.46 123.64 39.58 119.01 42.04 115.08 Z" />
</g>
<g id="#7f5738fb">
<path fill="#7f5738" opacity="1.00" d=" M 76.03 115.02 C 77.58 116.18 79.08 117.43 80.86 118.21 C 80.18 119.54 79.49 120.86 78.80 122.18 C 76.42 121.14 75.12 118.90 74.77 116.39 C 75.09 116.04 75.72 115.36 76.03 115.02 Z" />
</g>
<g id="#b86636ff">
<path fill="#b86636" opacity="1.00" d=" M 89.07 114.90 C 90.69 116.24 92.33 117.56 94.03 118.80 C 89.85 118.11 89.58 122.82 88.77 125.70 C 88.33 125.92 87.44 126.35 87.00 126.56 C 85.53 127.23 84.24 128.20 82.95 129.15 C 82.01 127.15 80.87 125.25 79.80 123.32 C 82.67 120.36 87.68 118.94 89.07 114.90 Z" />
</g>
<g id="#545454ff">
<path fill="#545454" opacity="1.00" d=" M 98.96 116.99 C 99.22 116.42 99.72 115.28 99.98 114.71 C 103.82 114.38 101.23 119.86 98.96 116.99 Z" />
</g>
<g id="#836040fb">
<path fill="#836040" opacity="1.00" d=" M 61.78 117.62 C 63.45 117.26 65.14 117.02 66.83 116.80 L 66.66 117.69 C 66.31 119.14 66.10 120.61 65.95 122.09 C 55.95 123.70 45.35 122.37 35.78 125.97 C 38.42 123.47 40.88 120.70 43.13 117.99 C 49.99 122.07 57.76 117.67 65.12 119.72 C 65.51 117.55 63.19 117.97 61.78 117.62 Z" />
</g>
<g id="#9d9996ff">
<path fill="#9d9996" opacity="1.00" d=" M 105.27 116.82 C 105.49 117.34 105.95 118.37 106.18 118.89 C 105.87 120.40 105.47 121.88 105.00 123.35 C 103.97 122.67 102.92 122.02 101.86 121.39 C 103.03 119.89 104.16 118.36 105.27 116.82 Z" />
</g>
<g id="#ba622fff">
<path fill="#ba622f" opacity="1.00" d=" M 133.16 119.01 C 139.42 119.17 145.73 118.97 151.78 117.28 C 152.84 117.63 153.91 117.96 154.99 118.26 C 150.23 120.10 145.19 121.74 140.00 121.03 C 137.62 121.77 134.56 121.10 133.16 119.01 Z" />
</g>
<g id="#ac855fff">
<path fill="#ac855f" opacity="1.00" d=" M 65.95 122.09 C 66.10 120.61 66.31 119.14 66.66 117.69 C 66.85 119.85 67.02 122.00 67.13 124.16 C 66.86 125.17 66.54 126.16 66.17 127.13 C 66.10 125.45 66.01 123.77 65.95 122.09 Z" />
</g>
<g id="#cf753bff">
<path fill="#cf753b" opacity="1.00" d=" M 88.77 125.70 C 89.58 122.82 89.85 118.11 94.03 118.80 C 94.33 119.02 94.94 119.46 95.24 119.68 C 93.43 122.89 92.25 126.61 94.14 130.08 C 93.49 130.82 92.84 131.55 92.19 132.28 C 91.02 130.47 89.96 128.59 88.95 126.69 L 88.77 125.70 Z" />
</g>
<g id="#7f7d7cff">
<path fill="#7f7d7c" opacity="1.00" d=" M 106.18 118.89 L 106.81 118.75 C 107.17 119.28 107.90 120.33 108.26 120.85 C 107.49 122.23 106.98 124.32 105.00 123.35 C 105.47 121.88 105.87 120.40 106.18 118.89 Z" />
</g>
<g id="#e1803fff">
<path fill="#e1803f" opacity="1.00" d=" M 95.24 119.68 C 97.21 120.61 99.16 121.58 101.09 122.58 C 99.76 123.69 98.81 125.13 98.20 126.75 L 97.82 127.57 C 96.56 128.35 95.33 129.19 94.14 130.08 C 92.25 126.61 93.43 122.89 95.24 119.68 Z" />
</g>
<g id="#a37c59fb">
<path fill="#a37c59" opacity="1.00" d=" M 210.21 119.84 C 211.82 120.60 214.17 120.77 214.49 122.92 C 210.63 125.16 206.73 127.36 202.83 129.50 C 202.52 129.42 201.90 129.24 201.59 129.15 C 202.68 127.16 204.11 125.40 206.04 124.16 C 208.35 123.57 210.59 122.68 210.21 119.84 Z" />
</g>
<g id="#755f4eff">
<path fill="#755f4e" opacity="1.00" d=" M 108.26 120.85 C 109.30 121.87 110.34 122.89 111.36 123.94 C 110.03 127.10 106.93 125.24 104.73 124.25 L 105.00 123.35 C 106.98 124.32 107.49 122.23 108.26 120.85 Z" />
</g>
<g id="#87441dff">
<path fill="#87441d" opacity="1.00" d=" M 163.70 122.69 C 165.56 121.41 167.75 120.67 170.03 120.98 C 170.06 123.40 169.77 125.78 169.15 128.10 C 169.03 126.51 169.47 124.02 167.05 125.10 C 160.10 128.67 153.92 133.77 146.86 137.25 C 148.28 139.30 150.85 139.91 153.18 140.32 C 148.50 141.18 143.73 140.88 139.00 141.16 C 137.89 139.92 135.76 139.14 135.99 137.15 C 145.92 133.89 154.99 128.43 163.70 122.69 Z" />
</g>
<g id="#684728f4">
<path fill="#684728" opacity="0.96" d=" M 35.78 125.97 C 45.35 122.37 55.95 123.70 65.95 122.09 C 66.01 123.77 66.10 125.45 66.17 127.13 L 65.90 127.87 C 63.93 127.81 62.27 128.63 60.83 129.90 C 55.50 127.70 49.74 126.65 43.95 126.97 C 43.50 126.99 42.58 127.04 42.13 127.06 C 40.56 127.23 37.42 127.58 35.85 127.75 L 35.10 127.83 C 34.79 127.42 34.17 126.60 33.85 126.20 C 34.34 126.14 35.30 126.03 35.78 125.97 Z" />
</g>
<g id="#f78b42ff">
<path fill="#f78b42" opacity="1.00" d=" M 98.20 126.75 C 98.81 125.13 99.76 123.69 101.09 122.58 C 102.30 123.14 103.51 123.72 104.73 124.25 C 106.93 125.24 110.03 127.10 111.36 123.94 C 115.06 127.95 119.61 130.97 124.07 134.06 C 123.38 137.52 118.33 137.12 115.85 138.85 C 111.41 139.03 106.62 137.72 102.95 135.09 C 101.58 132.19 100.08 129.35 98.20 126.75 Z" />
</g>
<g id="#896747ff">
<path fill="#896747" opacity="1.00" d=" M 214.49 122.92 C 214.59 123.38 214.78 124.29 214.88 124.75 C 209.88 127.11 205.86 132.59 199.84 131.93 C 200.41 131.00 200.98 130.06 201.59 129.15 C 201.90 129.24 202.52 129.42 202.83 129.50 C 206.73 127.36 210.63 125.16 214.49 122.92 Z" />
</g>
<g id="#daab83ff">
<path fill="#daab83" opacity="1.00" d=" M 67.13 124.16 L 67.89 123.96 C 68.80 128.13 70.99 131.94 69.68 136.44 C 68.53 133.66 63.75 131.20 65.90 127.87 L 66.17 127.13 C 66.54 126.16 66.86 125.17 67.13 124.16 Z" />
</g>
<g id="#cbad8cff">
<path fill="#cbad8c" opacity="1.00" d=" M 71.95 123.97 C 73.46 125.13 77.35 129.17 77.18 124.96 C 78.98 126.51 80.61 128.41 82.95 129.15 C 80.75 132.27 84.50 136.41 88.00 135.01 C 87.53 132.36 88.94 128.93 87.00 126.56 C 87.44 126.35 88.33 125.92 88.77 125.70 L 88.95 126.69 C 88.93 129.34 88.62 132.42 91.84 133.09 L 91.53 133.86 C 87.83 136.72 93.37 140.33 96.37 140.59 C 100.42 143.84 101.23 140.24 102.29 138.06 C 103.48 139.44 104.94 141.61 102.81 142.93 C 96.93 143.67 91.85 140.70 86.77 138.39 C 79.88 136.25 75.32 129.97 71.95 123.97 Z" />
</g>
<g id="#793a17ff">
<path fill="#793a17" opacity="1.00" d=" M 146.86 137.25 C 153.92 133.77 160.10 128.67 167.05 125.10 C 169.47 124.02 169.03 126.51 169.15 128.10 C 168.31 130.02 167.49 131.93 166.77 133.89 C 165.61 136.05 163.78 137.69 161.75 139.02 L 161.08 139.05 C 158.36 138.85 155.75 139.57 153.18 140.32 C 150.85 139.91 148.28 139.30 146.86 137.25 Z" />
</g>
<g id="#7a5938f8">
<path fill="#7a5938" opacity="0.97" d=" M 199.84 131.93 C 205.86 132.59 209.88 127.11 214.88 124.75 C 215.01 126.85 214.97 128.96 214.98 131.06 C 213.88 127.74 211.83 131.10 210.28 132.26 C 208.02 134.05 208.68 137.40 208.00 139.96 C 207.62 145.39 207.74 151.28 211.23 155.75 C 211.75 155.77 212.78 155.83 213.29 155.85 C 213.17 157.08 213.06 158.32 212.95 159.55 C 211.81 162.09 211.77 165.66 208.81 166.83 C 205.28 168.64 201.22 172.82 197.53 169.14 C 199.89 165.59 204.86 167.08 207.99 164.83 C 208.62 158.11 206.24 151.66 206.02 144.99 C 205.72 140.32 203.62 134.54 197.97 134.83 C 198.59 133.86 199.19 132.88 199.84 131.93 Z" />
</g>
<g id="#957352ff">
<path fill="#957352" opacity="1.00" d=" M 35.85 127.75 C 37.42 127.58 40.56 127.23 42.13 127.06 C 41.90 128.38 41.64 129.70 41.32 131.00 C 41.47 129.39 41.02 128.40 39.96 128.03 C 38.59 127.91 37.22 127.81 35.85 127.75 Z" />
</g>
<g id="#7c5d3ff9">
<path fill="#7c5d3f" opacity="0.98" d=" M 42.13 127.06 C 42.58 127.04 43.50 126.99 43.95 126.97 C 43.95 128.30 43.98 129.62 44.06 130.95 C 45.81 135.53 55.44 131.54 55.96 137.09 C 52.84 136.35 49.42 135.31 46.32 136.35 C 35.31 142.92 29.45 154.93 24.18 166.12 C 23.07 168.47 22.80 172.23 18.35 170.37 C 19.48 174.22 17.28 177.13 14.10 178.47 C 13.32 178.25 11.75 177.82 10.96 177.61 C 12.29 174.83 18.47 171.28 14.11 168.84 C 18.56 167.32 20.84 163.01 23.41 159.38 C 28.43 152.61 31.16 144.36 36.90 138.12 C 39.48 136.52 41.54 134.24 41.32 131.00 C 41.64 129.70 41.90 128.38 42.13 127.06 Z" />
</g>
<g id="#a37e59ff">
<path fill="#a37e59" opacity="1.00" d=" M 43.95 126.97 C 49.74 126.65 55.50 127.70 60.83 129.90 C 62.27 128.63 63.93 127.81 65.90 127.87 C 63.75 131.20 68.53 133.66 69.68 136.44 L 70.20 137.21 C 70.90 138.30 71.81 139.23 72.70 140.17 L 73.21 140.93 C 66.49 140.23 61.46 135.31 55.71 132.31 C 52.22 130.25 47.92 131.28 44.06 130.95 C 43.98 129.62 43.95 128.30 43.95 126.97 Z" />
</g>
<g id="#e0be98ff">
<path fill="#e0be98" opacity="1.00" d=" M 82.95 129.15 C 84.24 128.20 85.53 127.23 87.00 126.56 C 88.94 128.93 87.53 132.36 88.00 135.01 C 84.50 136.41 80.75 132.27 82.95 129.15 Z" />
</g>
<g id="#a0704cff">
<path fill="#a0704c" opacity="1.00" d=" M 88.95 126.69 C 89.96 128.59 91.02 130.47 92.19 132.28 L 91.84 133.09 C 88.62 132.42 88.93 129.34 88.95 126.69 Z" />
</g>
<g id="#ab7f5aff">
<path fill="#ab7f5a" opacity="1.00" d=" M 98.20 126.75 C 100.08 129.35 101.58 132.19 102.95 135.09 L 102.85 136.13 C 101.85 135.09 100.93 133.98 100.04 132.86 C 99.45 131.03 98.63 129.30 97.82 127.57 L 98.20 126.75 Z" />
</g>
<g id="#dfc29af9">
<path fill="#dfc29a" opacity="0.98" d=" M 35.10 127.83 L 35.85 127.75 C 37.22 127.81 38.59 127.91 39.96 128.03 C 38.31 131.15 36.85 134.37 35.79 137.74 C 32.99 140.62 30.60 143.86 28.16 147.05 C 28.95 142.41 23.96 149.74 24.55 144.76 C 28.74 139.53 32.50 134.04 35.10 127.83 Z" />
</g>
<g id="#bf9b72ff">
<path fill="#bf9b72" opacity="1.00" d=" M 39.96 128.03 C 41.02 128.40 41.47 129.39 41.32 131.00 C 39.31 132.98 37.81 135.46 36.90 138.12 L 35.79 137.74 C 36.85 134.37 38.31 131.15 39.96 128.03 Z" />
</g>
<g id="#e9c89eff">
<path fill="#e9c89e" opacity="1.00" d=" M 94.14 130.08 C 95.33 129.19 96.56 128.35 97.82 127.57 C 98.63 129.30 99.45 131.03 100.04 132.86 C 100.22 134.32 100.32 135.87 101.40 137.00 C 98.30 140.49 92.56 137.99 91.53 133.86 L 91.84 133.09 L 92.19 132.28 C 92.84 131.55 93.49 130.82 94.14 130.08 Z" />
</g>
<g id="#977859fb">
<path fill="#977859" opacity="1.00" d=" M 210.28 132.26 C 211.83 131.10 213.88 127.74 214.98 131.06 C 218.69 136.97 222.17 143.04 227.01 148.15 C 223.91 149.68 221.36 146.13 218.24 145.97 C 218.10 146.76 217.83 148.35 217.70 149.14 C 214.77 147.76 214.65 140.68 211.03 142.96 C 210.47 141.24 210.39 137.92 208.00 139.96 C 208.68 137.40 208.02 134.05 210.28 132.26 Z" />
</g>
<g id="#9b7958ff">
<path fill="#9b7958" opacity="1.00" d=" M 36.90 138.12 C 37.81 135.46 39.31 132.98 41.32 131.00 C 41.54 134.24 39.48 136.52 36.90 138.12 Z" />
</g>
<g id="#8d6948fe">
<path fill="#8d6948" opacity="1.00" d=" M 44.06 130.95 C 47.92 131.28 52.22 130.25 55.71 132.31 C 61.46 135.31 66.49 140.23 73.21 140.93 C 74.23 141.88 75.22 142.88 76.20 143.88 C 69.51 144.26 64.54 137.91 57.78 138.13 C 57.33 137.87 56.41 137.35 55.96 137.09 C 55.44 131.54 45.81 135.53 44.06 130.95 Z" />
</g>
<g id="#b79a7eff">
<path fill="#b79a7e" opacity="1.00" d=" M 73.27 131.88 C 76.37 135.07 78.44 139.54 82.97 140.99 C 91.13 143.18 99.46 145.94 108.00 143.89 C 110.15 143.93 112.30 144.19 114.30 145.05 C 108.78 144.75 104.16 147.95 99.01 148.93 C 91.38 147.31 83.58 145.39 76.98 141.06 C 75.76 140.07 74.16 140.25 72.70 140.17 C 71.81 139.23 70.90 138.30 70.20 137.21 C 72.98 136.75 73.21 134.23 73.27 131.88 Z" />
</g>
<g id="#d9b994ff">
<path fill="#d9b994" opacity="1.00" d=" M 96.37 140.59 C 93.37 140.33 87.83 136.72 91.53 133.86 C 92.56 137.99 98.30 140.49 101.40 137.00 C 101.62 137.27 102.07 137.80 102.29 138.06 C 101.23 140.24 100.42 143.84 96.37 140.59 Z" />
</g>
<g id="#e4813fff">
<path fill="#e4813f" opacity="1.00" d=" M 124.07 134.06 C 125.39 134.94 126.72 135.80 128.09 136.61 C 126.69 138.05 125.50 139.67 124.20 141.20 C 121.47 141.19 118.32 140.25 116.76 142.96 C 115.22 142.80 113.73 142.37 112.25 141.93 C 111.18 139.03 107.26 139.02 104.69 138.14 C 104.06 137.48 103.45 136.81 102.85 136.13 L 102.95 135.09 C 106.62 137.72 111.41 139.03 115.85 138.85 C 118.33 137.12 123.38 137.52 124.07 134.06 Z" />
</g>
<g id="#906d4dfe">
<path fill="#906d4d" opacity="1.00" d=" M 193.86 136.66 C 195.24 136.08 196.62 135.50 197.97 134.83 C 203.62 134.54 205.72 140.32 206.02 144.99 C 206.24 151.66 208.62 158.11 207.99 164.83 C 204.86 167.08 199.89 165.59 197.53 169.14 C 194.23 168.60 191.57 166.59 191.93 162.90 C 193.81 161.53 195.65 162.67 197.10 164.05 C 200.89 167.58 206.34 162.09 203.94 157.98 C 203.43 150.15 203.44 138.85 193.86 136.66 Z" />
</g>
<g id="#e1be92ff">
<path fill="#e1be92" opacity="1.00" d=" M 124.20 141.20 C 125.50 139.67 126.69 138.05 128.09 136.61 C 129.80 137.41 131.50 138.25 133.18 139.13 C 131.30 142.58 127.45 142.00 124.02 142.15 L 124.20 141.20 Z" />
</g>
<g id="#a48363ff">
<path fill="#a48363" opacity="1.00" d=" M 187.94 139.07 C 189.90 138.23 191.88 137.46 193.86 136.66 C 203.44 138.85 203.43 150.15 203.94 157.98 C 206.34 162.09 200.89 167.58 197.10 164.05 C 198.44 163.93 200.10 164.23 200.72 162.69 C 202.73 157.13 201.23 150.98 199.55 145.50 C 197.97 144.77 195.22 141.48 195.62 145.23 C 195.30 143.76 195.04 142.28 194.71 140.82 C 193.95 136.99 190.58 142.43 188.13 142.09 C 188.09 141.34 187.99 139.83 187.94 139.07 Z" />
</g>
<g id="#9c7b5bff">
<path fill="#9c7b5b" opacity="1.00" d=" M 28.16 147.05 C 30.60 143.86 32.99 140.62 35.79 137.74 L 36.90 138.12 C 31.16 144.36 28.43 152.61 23.41 159.38 C 20.84 163.01 18.56 167.32 14.11 168.84 C 12.75 167.76 11.38 166.69 9.99 165.65 C 9.90 165.29 9.71 164.56 9.62 164.20 C 10.14 164.45 11.18 164.95 11.69 165.20 C 14.34 167.42 16.49 164.46 17.20 162.05 C 17.44 161.84 17.93 161.43 18.17 161.22 C 22.60 159.35 24.61 154.18 25.95 149.83 C 26.69 148.90 27.45 147.99 28.16 147.05 Z" />
</g>
<g id="#7b5b3cf7">
<path fill="#7b5b3c" opacity="0.97" d=" M 57.78 138.13 C 64.54 137.91 69.51 144.26 76.20 143.88 C 77.67 144.83 79.11 145.83 80.46 146.95 C 78.84 147.69 77.16 148.31 75.54 149.07 C 72.75 147.15 70.16 144.95 67.29 143.14 C 65.23 148.81 63.20 154.51 62.40 160.52 C 60.81 162.94 59.76 165.72 57.79 167.88 C 55.43 168.24 53.10 168.10 50.81 167.43 C 53.10 166.14 57.63 166.16 57.98 163.12 C 57.46 163.06 56.44 162.93 55.92 162.87 C 60.55 156.49 61.72 148.50 63.77 141.05 C 63.29 140.82 62.34 140.35 61.87 140.12 C 60.90 139.74 59.93 139.35 58.97 138.96 C 58.67 138.75 58.08 138.34 57.78 138.13 Z" />
</g>
<g id="#c3743eff">
<path fill="#c3743e" opacity="1.00" d=" M 104.69 138.14 C 107.26 139.02 111.18 139.03 112.25 141.93 C 110.87 141.95 109.48 141.98 108.10 142.00 C 106.76 140.91 105.37 139.79 104.69 138.14 Z" />
</g>
<g id="#b69a7ffb">
<path fill="#b69a7f" opacity="1.00" d=" M 58.97 138.96 C 59.93 139.35 60.90 139.74 61.87 140.12 C 60.68 144.39 59.31 148.61 57.94 152.82 C 56.50 155.76 54.26 158.06 51.70 160.04 C 51.44 159.77 50.93 159.23 50.67 158.96 L 51.02 158.24 C 53.30 153.64 58.83 149.48 57.41 143.84 C 57.85 142.19 58.36 140.56 58.97 138.96 Z" />
</g>
<g id="#ccab86ff">
<path fill="#ccab86" opacity="1.00" d=" M 133.18 139.13 C 133.67 139.38 134.65 139.88 135.14 140.13 C 131.59 146.44 123.61 142.97 117.80 145.28 C 117.81 144.74 117.85 143.66 117.87 143.13 C 119.95 143.04 122.04 142.86 124.02 142.15 C 127.45 142.00 131.30 142.58 133.18 139.13 Z" />
</g>
<g id="#a98968ff">
<path fill="#a98968" opacity="1.00" d=" M 153.18 140.32 C 155.75 139.57 158.36 138.85 161.08 139.05 L 160.79 139.84 C 158.61 140.65 156.41 141.39 154.19 142.07 C 149.06 141.81 144.90 145.56 140.36 147.46 C 135.48 152.20 128.43 152.35 122.11 153.23 C 116.05 154.20 109.95 154.87 103.83 155.18 C 104.14 157.38 106.70 157.69 108.20 158.87 L 108.06 159.88 C 100.36 156.33 92.53 153.05 85.07 149.01 C 84.76 148.77 84.13 148.29 83.82 148.06 C 92.97 149.68 102.54 154.33 111.92 150.94 C 119.80 148.27 128.91 150.60 136.23 146.24 C 139.01 144.42 142.15 143.32 145.29 142.31 C 142.79 142.28 140.34 141.96 137.94 141.33 L 139.00 141.16 C 143.73 140.88 148.50 141.18 153.18 140.32 Z" />
</g>
<g id="#93704bff">
<path fill="#93704b" opacity="1.00" d=" M 161.08 139.05 L 161.75 139.02 C 162.13 140.36 163.07 141.36 164.09 142.27 C 162.39 150.09 154.88 153.39 149.04 157.66 C 150.65 158.01 152.17 158.61 153.22 159.95 C 152.60 160.02 151.37 160.17 150.75 160.25 C 149.23 160.31 147.72 160.51 146.20 160.67 C 142.13 160.22 138.04 160.19 133.96 159.89 C 134.03 159.50 134.17 158.71 134.24 158.32 C 144.63 155.04 156.82 151.07 160.79 139.84 L 161.08 139.05 Z" />
</g>
<g id="#916e4fff">
<path fill="#916e4f" opacity="1.00" d=" M 182.88 140.60 C 184.57 140.11 186.28 139.67 187.94 139.07 C 187.99 139.83 188.09 141.34 188.13 142.09 C 190.58 142.43 193.95 136.99 194.71 140.82 C 192.60 141.64 191.08 143.35 189.68 145.05 C 187.39 143.60 185.35 141.75 182.88 140.60 Z" />
</g>
<g id="#b79876ff">
<path fill="#b79876" opacity="1.00" d=" M 208.00 139.96 C 210.39 137.92 210.47 141.24 211.03 142.96 C 211.00 143.50 210.94 144.57 210.91 145.10 C 209.57 143.00 207.25 136.79 209.01 146.98 C 209.40 150.29 212.22 152.73 213.29 155.85 C 212.78 155.83 211.75 155.77 211.23 155.75 C 207.74 151.28 207.62 145.39 208.00 139.96 Z" />
</g>
<g id="#957555ff">
<path fill="#957555" opacity="1.00" d=" M 61.87 140.12 C 62.34 140.35 63.29 140.82 63.77 141.05 C 61.72 148.50 60.55 156.49 55.92 162.87 L 55.19 163.42 C 54.40 162.74 53.65 162.03 52.92 161.30 C 55.66 159.28 58.28 156.51 57.94 152.82 C 59.31 148.61 60.68 144.39 61.87 140.12 Z" />
</g>
<g id="#af9172ff">
<path fill="#af9172" opacity="1.00" d=" M 72.70 140.17 C 74.16 140.25 75.76 140.07 76.98 141.06 C 83.58 145.39 91.38 147.31 99.01 148.93 C 104.16 147.95 108.78 144.75 114.30 145.05 C 115.46 145.11 116.63 145.18 117.80 145.28 C 123.85 145.49 134.48 148.97 137.21 141.17 L 137.94 141.33 C 140.34 141.96 142.79 142.28 145.29 142.31 C 142.15 143.32 139.01 144.42 136.23 146.24 C 128.91 150.60 119.80 148.27 111.92 150.94 C 102.54 154.33 92.97 149.68 83.82 148.06 C 82.69 147.70 81.58 147.32 80.46 146.95 C 79.11 145.83 77.67 144.83 76.20 143.88 C 75.22 142.88 74.23 141.88 73.21 140.93 L 72.70 140.17 Z" />
</g>
<g id="#bb9c7aff">
<path fill="#bb9c7a" opacity="1.00" d=" M 135.14 140.13 C 135.66 140.39 136.69 140.91 137.21 141.17 C 134.48 148.97 123.85 145.49 117.80 145.28 C 123.61 142.97 131.59 146.44 135.14 140.13 Z" />
</g>
<g id="#9c7a56ff">
<path fill="#9c7a56" opacity="1.00" d=" M 154.19 142.07 C 156.41 141.39 158.61 140.65 160.79 139.84 C 156.82 151.07 144.63 155.04 134.24 158.32 C 134.17 158.71 134.03 159.50 133.96 159.89 C 138.04 160.19 142.13 160.22 146.20 160.67 C 144.53 161.01 142.89 161.47 141.22 161.79 C 132.41 160.66 123.36 161.57 114.86 158.65 C 122.83 156.00 131.93 156.56 139.72 152.76 C 145.46 150.64 150.41 146.86 154.19 142.07 Z" />
</g>
<g id="#c8723cff">
<path fill="#c8723c" opacity="1.00" d=" M 116.76 142.96 C 118.32 140.25 121.47 141.19 124.20 141.20 L 124.02 142.15 C 122.04 142.86 119.95 143.04 117.87 143.13 L 116.76 142.96 Z" />
</g>
<g id="#ab8968ff">
<path fill="#ab8968" opacity="1.00" d=" M 181.08 141.06 C 181.53 140.95 182.43 140.71 182.88 140.60 C 185.35 141.75 187.39 143.60 189.68 145.05 C 190.50 146.02 191.32 147.00 192.13 147.98 C 187.52 148.19 183.26 145.52 180.61 141.87 L 181.08 141.06 Z" />
</g>
<g id="#7c5b3cff">
<path fill="#7c5b3c" opacity="1.00" d=" M 189.68 145.05 C 191.08 143.35 192.60 141.64 194.71 140.82 C 195.04 142.28 195.30 143.76 195.62 145.23 C 195.66 145.68 195.74 146.58 195.79 147.03 C 195.06 147.66 194.36 148.30 193.68 148.98 C 193.29 148.73 192.52 148.23 192.13 147.98 C 191.32 147.00 190.50 146.02 189.68 145.05 Z" />
</g>
<g id="#dfba90ff">
<path fill="#dfba90" opacity="1.00" d=" M 108.10 142.00 C 109.48 141.98 110.87 141.95 112.25 141.93 C 113.73 142.37 115.22 142.80 116.76 142.96 L 117.87 143.13 C 117.85 143.66 117.81 144.74 117.80 145.28 C 116.63 145.18 115.46 145.11 114.30 145.05 C 112.30 144.19 110.15 143.93 108.00 143.89 C 108.02 143.42 108.07 142.48 108.10 142.00 Z" />
</g>
<g id="#a28260ff">
<path fill="#a28260" opacity="1.00" d=" M 140.36 147.46 C 144.90 145.56 149.06 141.81 154.19 142.07 C 150.41 146.86 145.46 150.64 139.72 152.76 C 131.93 156.56 122.83 156.00 114.86 158.65 C 123.36 161.57 132.41 160.66 141.22 161.79 C 139.86 162.10 138.50 162.44 137.12 162.65 C 127.41 161.52 117.25 163.31 108.20 158.87 C 106.70 157.69 104.14 157.38 103.83 155.18 C 109.95 154.87 116.05 154.20 122.11 153.23 C 128.43 152.35 135.48 152.20 140.36 147.46 Z" />
</g>
<g id="#876440ff">
<path fill="#876440" opacity="1.00" d=" M 164.09 142.27 C 166.07 142.09 168.07 142.00 170.06 142.00 C 168.47 144.75 167.35 147.85 165.28 150.28 C 163.64 152.79 159.00 153.40 158.88 156.83 C 160.88 157.12 166.80 155.70 163.99 158.90 C 160.37 159.06 156.81 159.63 153.22 159.95 C 152.17 158.61 150.65 158.01 149.04 157.66 C 154.88 153.39 162.39 150.09 164.09 142.27 Z" />
</g>
<g id="#795633ff">
<path fill="#795633" opacity="1.00" d=" M 170.06 142.00 C 171.78 141.96 173.50 141.98 175.23 142.02 C 174.08 146.97 169.98 150.16 166.92 153.91 C 169.41 155.33 172.27 155.81 175.06 156.29 C 173.57 158.09 171.94 160.18 169.36 160.13 C 167.90 158.73 165.83 159.04 163.99 158.90 C 166.80 155.70 160.88 157.12 158.88 156.83 C 159.00 153.40 163.64 152.79 165.28 150.28 C 167.35 147.85 168.47 144.75 170.06 142.00 Z" />
</g>
<g id="#6a4829fc">
<path fill="#6a4829" opacity="1.00" d=" M 175.23 142.02 C 176.98 142.10 179.69 141.39 179.18 144.12 L 178.72 144.89 C 175.24 148.13 178.15 152.16 181.93 153.24 C 183.09 154.55 184.28 155.83 185.45 157.14 C 183.50 160.23 181.32 163.23 178.79 165.88 C 176.88 166.14 175.11 165.14 173.33 164.66 C 171.99 163.21 170.20 162.32 168.74 161.03 L 169.36 160.13 C 171.94 160.18 173.57 158.09 175.06 156.29 C 172.27 155.81 169.41 155.33 166.92 153.91 C 169.98 150.16 174.08 146.97 175.23 142.02 Z" />
</g>
<g id="#b99572ff">
<path fill="#b99572" opacity="1.00" d=" M 179.18 144.12 C 179.66 143.37 180.13 142.62 180.61 141.87 C 183.26 145.52 187.52 148.19 192.13 147.98 C 192.52 148.23 193.29 148.73 193.68 148.98 L 193.65 149.68 C 193.44 151.02 193.62 152.38 193.76 153.72 C 193.47 154.29 192.88 155.43 192.59 156.00 C 191.71 157.41 190.75 158.77 189.81 160.14 C 188.60 159.03 187.41 157.90 186.24 156.77 C 186.21 152.84 183.92 149.07 180.12 147.78 C 179.62 146.83 179.15 145.87 178.72 144.89 L 179.18 144.12 Z" />
</g>
<g id="#e3c091ff">
<path fill="#e3c091" opacity="1.00" d=" M 209.01 146.98 C 207.25 136.79 209.57 143.00 210.91 145.10 C 212.72 148.16 214.89 150.98 216.98 153.87 C 219.84 160.99 225.81 166.50 228.04 174.01 C 227.52 174.33 226.50 174.98 225.99 175.30 C 219.15 170.51 218.58 161.61 213.29 155.85 C 212.22 152.73 209.40 150.29 209.01 146.98 Z" />
</g>
<g id="#a68667fe">
<path fill="#a68667" opacity="1.00" d=" M 211.03 142.96 C 214.65 140.68 214.77 147.76 217.70 149.14 C 217.83 148.35 218.10 146.76 218.24 145.97 C 221.36 146.13 223.91 149.68 227.01 148.15 C 230.09 151.68 233.03 155.33 236.22 158.77 C 238.94 161.06 246.78 162.33 243.10 167.09 C 241.33 167.98 239.75 169.16 238.14 170.31 C 235.70 170.13 233.45 169.21 231.23 168.25 C 230.88 169.64 230.59 171.04 230.17 172.41 C 225.44 166.48 222.92 158.73 216.98 153.87 C 214.89 150.98 212.72 148.16 210.91 145.10 C 210.94 144.57 211.00 143.50 211.03 142.96 Z" />
</g>
<g id="#c19e7afe">
<path fill="#c19e7a" opacity="1.00" d=" M 195.62 145.23 C 195.22 141.48 197.97 144.77 199.55 145.50 C 201.23 150.98 202.73 157.13 200.72 162.69 C 200.10 164.23 198.44 163.93 197.10 164.05 C 195.65 162.67 193.81 161.53 191.93 162.90 C 191.25 161.96 190.53 161.05 189.81 160.14 C 190.75 158.77 191.71 157.41 192.59 156.00 C 194.40 158.38 197.14 155.05 197.09 153.02 C 195.97 153.21 194.86 153.44 193.76 153.72 C 193.62 152.38 193.44 151.02 193.65 149.68 C 194.51 150.54 195.50 150.94 196.62 150.90 C 196.68 149.57 196.00 148.33 195.79 147.03 C 195.74 146.58 195.66 145.68 195.62 145.23 Z" />
</g>
<g id="#d9c09ef0">
<path fill="#d9c09e" opacity="0.94" d=" M 57.41 143.84 C 58.83 149.48 53.30 153.64 51.02 158.24 C 50.68 157.13 49.48 155.73 50.82 154.80 C 54.04 151.83 55.81 147.81 57.41 143.84 Z" />
</g>
<g id="#e7cca4fc">
<path fill="#e7cca4" opacity="1.00" d=" M 17.76 153.92 C 19.32 150.42 22.21 147.73 24.55 144.76 C 23.96 149.74 28.95 142.41 28.16 147.05 C 27.45 147.99 26.69 148.90 25.95 149.83 C 22.74 153.16 20.65 157.36 18.17 161.22 C 17.93 161.43 17.44 161.84 17.20 162.05 C 14.99 162.31 13.44 164.00 11.69 165.20 C 12.83 161.42 17.74 159.78 17.96 155.77 C 17.91 155.30 17.81 154.38 17.76 153.92 Z" />
</g>
<g id="#906d4dff">
<path fill="#906d4d" opacity="1.00" d=" M 181.93 153.24 C 178.15 152.16 175.24 148.13 178.72 144.89 C 179.15 145.87 179.62 146.83 180.12 147.78 C 180.84 149.55 181.50 151.37 181.93 153.24 Z" />
</g>
<g id="#64462bf5">
<path fill="#64462b" opacity="0.96" d=" M 80.46 146.95 C 81.58 147.32 82.69 147.70 83.82 148.06 C 84.13 148.29 84.76 148.77 85.07 149.01 C 84.23 149.89 83.40 150.79 82.65 151.75 C 80.06 151.56 77.27 151.29 75.54 149.07 C 77.16 148.31 78.84 147.69 80.46 146.95 Z" />
</g>
<g id="#251d1768">
<path fill="#251d17" opacity="0.41" d=" M 193.68 148.98 C 194.36 148.30 195.06 147.66 195.79 147.03 C 196.00 148.33 196.68 149.57 196.62 150.90 C 195.50 150.94 194.51 150.54 193.65 149.68 L 193.68 148.98 Z" />
</g>
<g id="#a07d5eff">
<path fill="#a07d5e" opacity="1.00" d=" M 180.12 147.78 C 183.92 149.07 186.21 152.84 186.24 156.77 L 185.45 157.14 C 184.28 155.83 183.09 154.55 181.93 153.24 C 181.50 151.37 180.84 149.55 180.12 147.78 Z" />
</g>
<g id="#746556fb">
<path fill="#746556" opacity="1.00" d=" M 85.07 149.01 C 92.53 153.05 100.36 156.33 108.06 159.88 C 111.59 161.63 115.32 162.93 119.18 163.76 C 117.81 164.01 116.46 164.33 115.10 164.62 C 105.50 160.32 96.05 155.68 86.32 151.68 C 85.22 150.78 84.57 152.00 83.88 152.73 C 83.57 152.49 82.96 151.99 82.65 151.75 C 83.40 150.79 84.23 149.89 85.07 149.01 Z" />
</g>
<g id="#bf9f7aff">
<path fill="#bf9f7a" opacity="1.00" d=" M 18.17 161.22 C 20.65 157.36 22.74 153.16 25.95 149.83 C 24.61 154.18 22.60 159.35 18.17 161.22 Z" />
</g>
<g id="#9d8b78f7">
<path fill="#9d8b78" opacity="0.97" d=" M 83.88 152.73 C 84.57 152.00 85.22 150.78 86.32 151.68 C 96.05 155.68 105.50 160.32 115.10 164.62 C 103.43 168.32 90.73 162.36 83.88 152.73 Z" />
</g>
<g id="#a68769ff">
<path fill="#a68769" opacity="1.00" d=" M 51.70 160.04 C 54.26 158.06 56.50 155.76 57.94 152.82 C 58.28 156.51 55.66 159.28 52.92 161.30 C 52.61 160.99 52.00 160.36 51.70 160.04 Z" />
</g>
<g id="#f5d19aff">
<path fill="#f5d19a" opacity="1.00" d=" M 193.76 153.72 C 194.86 153.44 195.97 153.21 197.09 153.02 C 197.14 155.05 194.40 158.38 192.59 156.00 C 192.88 155.43 193.47 154.29 193.76 153.72 Z" />
</g>
<g id="#f5e9c9fb">
<path fill="#f5e9c9" opacity="1.00" d=" M 13.92 157.73 C 14.97 156.25 16.23 154.92 17.76 153.92 C 17.81 154.38 17.91 155.30 17.96 155.77 C 17.08 157.11 15.59 158.12 13.92 157.73 Z" />
</g>
<g id="#bd9d7bff">
<path fill="#bd9d7b" opacity="1.00" d=" M 216.98 153.87 C 222.92 158.73 225.44 166.48 230.17 172.41 L 230.00 173.08 C 229.51 173.31 228.53 173.78 228.04 174.01 C 225.81 166.50 219.84 160.99 216.98 153.87 Z" />
</g>
<g id="#d0ba99f1">
<path fill="#d0ba99" opacity="0.95" d=" M 13.92 157.73 C 15.59 158.12 17.08 157.11 17.96 155.77 C 17.74 159.78 12.83 161.42 11.69 165.20 C 11.18 164.95 10.14 164.45 9.62 164.20 C 7.72 161.04 11.45 158.81 13.92 157.73 Z" />
</g>
<g id="#b99b7dfd">
<path fill="#b99b7d" opacity="1.00" d=" M 213.29 155.85 C 218.58 161.61 219.15 170.51 225.99 175.30 C 224.37 176.33 222.67 177.20 220.98 178.09 C 219.25 171.54 216.71 165.24 212.95 159.55 C 213.06 158.32 213.17 157.08 213.29 155.85 Z" />
</g>
<g id="#d6bea2f7">
<path fill="#d6bea2" opacity="0.97" d=" M 41.81 165.87 C 42.59 161.70 46.35 158.50 50.67 158.96 C 50.93 159.23 51.44 159.77 51.70 160.04 C 52.00 160.36 52.61 160.99 52.92 161.30 C 53.65 162.03 54.40 162.74 55.19 163.42 C 53.32 165.86 50.23 163.84 47.79 164.88 C 45.78 163.48 43.77 165.25 41.81 165.87 Z" />
</g>
<g id="#9f8e79fa">
<path fill="#9f8e79" opacity="0.98" d=" M 108.20 158.87 C 117.25 163.31 127.41 161.52 137.12 162.65 C 136.13 163.57 135.29 164.63 134.66 165.82 C 129.40 166.38 124.25 164.95 119.18 163.76 C 115.32 162.93 111.59 161.63 108.06 159.88 L 108.20 158.87 Z" />
</g>
<g id="#5a4a39ff">
<path fill="#5a4a39" opacity="1.00" d=" M 153.22 159.95 C 156.81 159.63 160.37 159.06 163.99 158.90 C 165.83 159.04 167.90 158.73 169.36 160.13 L 168.74 161.03 C 165.75 161.02 162.79 161.01 159.82 161.10 C 158.61 161.11 157.40 161.16 156.20 161.25 C 154.35 161.09 152.51 160.84 150.75 160.25 C 151.37 160.17 152.60 160.02 153.22 159.95 Z" />
</g>
<g id="#6d5f4fff">
<path fill="#6d5f4f" opacity="1.00" d=" M 146.20 160.67 C 147.72 160.51 149.23 160.31 150.75 160.25 C 152.51 160.84 154.35 161.09 156.20 161.25 C 153.04 161.67 149.85 161.87 146.75 162.62 C 142.99 163.47 139.02 163.84 135.62 165.76 L 134.66 165.82 C 135.29 164.63 136.13 163.57 137.12 162.65 C 138.50 162.44 139.86 162.10 141.22 161.79 C 142.89 161.47 144.53 161.01 146.20 160.67 Z" />
</g>
<g id="#8c7b66fd">
<path fill="#8c7b66" opacity="1.00" d=" M 156.20 161.25 C 157.40 161.16 158.61 161.11 159.82 161.10 C 163.10 162.57 166.34 164.64 168.12 167.87 C 166.86 168.60 165.56 169.29 164.18 169.75 C 159.24 165.70 152.61 164.75 146.75 162.62 C 149.85 161.87 153.04 161.67 156.20 161.25 Z" />
</g>
<g id="#7b6854fb">
<path fill="#7b6854" opacity="1.00" d=" M 159.82 161.10 C 162.79 161.01 165.75 161.02 168.74 161.03 C 170.20 162.32 171.99 163.21 173.33 164.66 C 171.57 165.70 169.87 166.83 168.12 167.87 C 166.34 164.64 163.10 162.57 159.82 161.10 Z" />
</g>
<g id="#c6a47bff">
<path fill="#c6a47b" opacity="1.00" d=" M 11.69 165.20 C 13.44 164.00 14.99 162.31 17.20 162.05 C 16.49 164.46 14.34 167.42 11.69 165.20 Z" />
</g>
<g id="#ab8a6afe">
<path fill="#ab8a6a" opacity="1.00" d=" M 55.19 163.42 L 55.92 162.87 C 56.44 162.93 57.46 163.06 57.98 163.12 C 57.63 166.16 53.10 166.14 50.81 167.43 C 49.45 167.05 48.63 165.92 47.79 164.88 C 50.23 163.84 53.32 165.86 55.19 163.42 Z" />
</g>
<g id="#998c7cfb">
<path fill="#998c7c" opacity="1.00" d=" M 135.62 165.76 C 139.02 163.84 142.99 163.47 146.75 162.62 C 152.61 164.75 159.24 165.70 164.18 169.75 C 154.72 173.99 143.76 171.77 135.62 165.76 Z" />
</g>
<g id="#c1a079fe">
<path fill="#c1a079" opacity="1.00" d=" M 8.04 168.96 C 8.68 167.85 9.32 166.74 9.99 165.65 C 11.38 166.69 12.75 167.76 14.11 168.84 C 13.50 171.04 12.24 173.03 10.74 174.73 C 7.72 174.95 4.50 174.73 1.71 176.12 C 1.28 176.08 0.43 176.00 0.00 175.95 L 0.00 174.08 C 3.39 174.37 11.95 174.77 11.06 169.05 C 11.52 167.12 8.92 169.13 8.04 168.96 Z" />
</g>
<g id="#836447f8">
<path fill="#836447" opacity="0.97" d=" M 238.14 170.31 C 239.75 169.16 241.33 167.98 243.10 167.09 C 243.31 167.54 243.71 168.46 243.91 168.91 C 243.22 169.55 242.54 170.20 241.87 170.86 C 240.14 172.42 238.12 173.63 235.83 174.18 L 234.86 174.01 C 235.91 172.73 237.00 171.50 238.14 170.31 Z" />
</g>
<g id="#ebc99bfe">
<path fill="#ebc99b" opacity="1.00" d=" M 8.04 168.96 C 8.92 169.13 11.52 167.12 11.06 169.05 C 11.95 174.77 3.39 174.37 0.00 174.08 L 0.00 173.08 C 4.37 174.11 7.83 173.46 8.04 168.96 Z" />
</g>
<g id="#9a7a5cff">
<path fill="#9a7a5c" opacity="1.00" d=" M 231.23 168.25 C 233.45 169.21 235.70 170.13 238.14 170.31 C 237.00 171.50 235.91 172.73 234.86 174.01 L 234.03 173.91 C 234.62 170.78 231.61 172.81 230.00 173.08 L 230.17 172.41 C 230.59 171.04 230.88 169.64 231.23 168.25 Z" />
</g>
<g id="#f7ddb6fc">
<path fill="#f7ddb6" opacity="1.00" d=" M 0.00 170.16 C 2.68 169.79 5.34 169.20 8.04 168.96 C 7.83 173.46 4.37 174.11 0.00 173.08 L 0.00 170.16 Z" />
</g>
<g id="#9b7958fc">
<path fill="#9b7958" opacity="1.00" d=" M 14.11 168.84 C 18.47 171.28 12.29 174.83 10.96 177.61 C 9.61 177.81 8.27 178.08 6.95 178.40 C 5.19 177.67 3.44 176.91 1.71 176.12 C 4.50 174.73 7.72 174.95 10.74 174.73 C 12.24 173.03 13.50 171.04 14.11 168.84 Z" />
</g>
<g id="#c1a487f5">
<path fill="#c1a487" opacity="0.96" d=" M 241.87 170.86 C 242.54 170.20 243.22 169.55 243.91 168.91 C 245.64 169.62 247.44 170.14 249.22 170.73 C 246.85 171.95 244.28 172.00 241.87 170.86 Z" />
</g>
<g id="#dbbc95fb">
<path fill="#dbbc95" opacity="1.00" d=" M 235.83 174.18 C 238.12 173.63 240.14 172.42 241.87 170.86 C 244.28 172.00 246.85 171.95 249.22 170.73 C 251.84 171.02 254.42 171.58 257.00 172.12 L 257.00 173.95 C 252.23 174.24 247.12 173.46 242.74 175.79 C 240.73 176.29 238.74 176.86 236.72 177.34 C 236.40 176.29 236.10 175.24 235.83 174.18 Z" />
</g>
<g id="#7f6042fa">
<path fill="#7f6042" opacity="0.98" d=" M 230.00 173.08 C 231.61 172.81 234.62 170.78 234.03 173.91 C 234.05 174.37 234.10 175.28 234.12 175.74 C 230.07 175.43 226.61 177.48 223.69 180.07 C 222.78 179.42 221.80 178.86 220.98 178.09 C 222.67 177.20 224.37 176.33 225.99 175.30 C 226.50 174.98 227.52 174.33 228.04 174.01 C 228.53 173.78 229.51 173.31 230.00 173.08 Z" />
</g>
<g id="#0a08062c">
<path fill="#0a0806" opacity="0.17" d=" M 234.03 173.91 L 234.86 174.01 L 235.83 174.18 C 236.10 175.24 236.40 176.29 236.72 177.34 C 236.83 177.74 237.04 178.54 237.14 178.94 L 236.18 178.93 C 235.48 177.87 234.81 176.80 234.12 175.74 C 234.10 175.28 234.05 174.37 234.03 173.91 Z" />
</g>
<g id="#b89875ff">
<path fill="#b89875" opacity="1.00" d=" M 242.74 175.79 C 247.12 173.46 252.23 174.24 257.00 173.95 L 257.00 176.00 C 252.26 175.15 247.50 175.25 242.74 175.79 Z" />
</g>
<g id="#907252f6">
<path fill="#907252" opacity="0.96" d=" M 242.74 175.79 C 247.50 175.25 252.26 175.15 257.00 176.00 L 257.00 176.90 C 250.80 176.90 245.04 179.29 238.94 179.96 L 238.31 180.09 C 238.01 179.80 237.43 179.23 237.14 178.94 C 237.04 178.54 236.83 177.74 236.72 177.34 C 238.74 176.86 240.73 176.29 242.74 175.79 Z" />
</g>
<g id="#b39475f9">
<path fill="#b39475" opacity="0.98" d=" M 223.69 180.07 C 226.61 177.48 230.07 175.43 234.12 175.74 C 234.81 176.80 235.48 177.87 236.18 178.93 C 234.74 178.98 233.30 179.03 231.87 179.08 C 230.90 178.73 229.48 177.41 228.67 178.76 C 226.06 180.22 226.23 185.47 229.89 185.03 C 235.08 185.53 242.00 183.83 246.22 187.86 C 243.23 187.86 240.19 187.28 237.28 188.28 C 234.10 188.20 230.96 188.11 227.79 188.15 C 224.88 186.39 223.48 183.44 223.69 180.07 Z" />
</g>
<g id="#120d095c">
<path fill="#120d09" opacity="0.36" d=" M 6.95 178.40 C 8.27 178.08 9.61 177.81 10.96 177.61 C 11.75 177.82 13.32 178.25 14.10 178.47 C 12.05 180.09 9.19 179.48 6.95 178.40 Z" />
</g>
<g id="#efd9b1fc">
<path fill="#efd9b1" opacity="1.00" d=" M 228.67 178.76 C 229.48 177.41 230.90 178.73 231.87 179.08 C 233.84 179.88 236.25 181.36 238.31 180.09 L 238.94 179.96 C 244.69 181.75 250.48 184.87 251.95 191.18 C 249.85 190.43 248.07 189.06 246.22 187.86 C 242.00 183.83 235.08 185.53 229.89 185.03 C 229.11 183.03 228.90 180.88 228.67 178.76 Z" />
</g>
<g id="#dbb990ff">
<path fill="#dbb990" opacity="1.00" d=" M 229.89 185.03 C 226.23 185.47 226.06 180.22 228.67 178.76 C 228.90 180.88 229.11 183.03 229.89 185.03 Z" />
</g>
<g id="#d4b593fc">
<path fill="#d4b593" opacity="1.00" d=" M 231.87 179.08 C 233.30 179.03 234.74 178.98 236.18 178.93 L 237.14 178.94 C 237.43 179.23 238.01 179.80 238.31 180.09 C 236.25 181.36 233.84 179.88 231.87 179.08 Z" />
</g>
<g id="#4d3c2cb5">
<path fill="#4d3c2c" opacity="0.71" d=" M 227.79 188.15 C 230.96 188.11 234.10 188.20 237.28 188.28 C 234.34 189.16 230.49 189.81 227.79 188.15 Z" />
</g>
</svg>
