<?xml version="1.0" encoding="UTF-8" ?>
<!DOCTYPE svg PUBLIC "-//W3C//DTD SVG 1.1//EN" "http://www.w3.org/Graphics/SVG/1.1/DTD/svg11.dtd">
<svg width="144pt" height="121pt" viewBox="0 0 144 121" version="1.1" xmlns="http://www.w3.org/2000/svg">
<g id="#503f3a87">
<path fill="#503f3a" opacity="0.53" d=" M 54.37 5.06 C 54.09 3.27 57.27 3.15 58.14 4.27 C 56.99 4.93 55.68 5.19 54.37 5.06 Z" />
</g>
<g id="#f1bdaef8">
<path fill="#f1bdae" opacity="0.97" d=" M 58.14 4.27 C 61.61 3.54 65.32 3.88 68.85 4.15 C 64.23 5.87 59.16 5.18 54.51 6.77 C 50.50 8.04 46.30 8.79 42.48 10.60 C 33.36 15.16 25.29 22.04 19.97 30.79 C 16.91 35.10 14.26 39.77 12.96 44.94 C 11.74 48.90 11.99 53.36 9.45 56.84 C 9.68 43.65 15.31 30.71 24.27 21.10 C 25.29 20.20 26.25 19.23 27.15 18.21 C 33.54 12.64 41.13 7.94 49.43 6.08 C 50.73 6.26 52.02 5.91 53.07 5.12 L 54.37 5.06 C 55.68 5.19 56.99 4.93 58.14 4.27 Z" />
</g>
<g id="#ff8d97ff">
<path fill="#ff8d97" opacity="1.00" d=" M 68.85 4.15 C 74.70 4.58 80.58 5.88 85.86 8.48 C 77.28 8.84 68.62 7.48 60.08 8.99 C 49.25 11.12 38.67 15.77 30.86 23.76 C 22.16 31.04 17.53 41.71 14.21 52.29 C 14.02 52.25 13.64 52.19 13.45 52.15 C 15.10 54.50 13.71 57.29 13.60 59.86 C 13.45 63.55 13.10 67.40 14.27 70.97 C 13.61 72.81 12.92 74.63 12.27 76.47 C 10.13 70.22 8.83 63.39 9.45 56.84 C 11.99 53.36 11.74 48.90 12.96 44.94 C 14.26 39.77 16.91 35.10 19.97 30.79 C 25.29 22.04 33.36 15.16 42.48 10.60 C 46.30 8.79 50.50 8.04 54.51 6.77 C 59.16 5.18 64.23 5.87 68.85 4.15 Z" />
</g>
<g id="#604f4c99">
<path fill="#604f4c" opacity="0.60" d=" M 49.43 6.08 C 49.03 4.31 52.14 4.16 53.07 5.12 C 52.02 5.91 50.73 6.26 49.43 6.08 Z" />
</g>
<g id="#d26c88ff">
<path fill="#d26c88" opacity="1.00" d=" M 60.08 8.99 C 68.62 7.48 77.28 8.84 85.86 8.48 C 87.40 8.78 88.85 9.50 90.15 10.36 C 90.24 10.78 90.42 11.61 90.51 12.03 C 79.16 9.86 67.31 9.63 56.05 12.48 C 61.68 12.11 67.04 13.98 71.91 16.63 C 73.41 18.60 74.78 20.67 76.19 22.71 C 73.91 21.18 71.55 19.72 68.90 18.94 C 61.84 16.63 54.00 15.28 46.89 18.14 C 36.87 21.94 27.59 29.63 24.39 40.17 C 21.36 48.21 21.51 58.03 26.88 65.06 C 28.90 67.84 32.33 68.79 35.36 70.00 C 34.97 72.02 33.94 73.81 32.91 75.57 C 28.98 71.29 24.69 67.30 21.24 62.60 C 18.72 59.28 16.73 55.60 14.21 52.29 C 17.53 41.71 22.16 31.04 30.86 23.76 C 38.67 15.77 49.25 11.12 60.08 8.99 Z" />
</g>
<g id="#af597cff">
<path fill="#af597c" opacity="1.00" d=" M 56.05 12.48 C 67.31 9.63 79.16 9.86 90.51 12.03 C 90.42 11.61 90.24 10.78 90.15 10.36 C 93.47 12.13 96.61 14.22 99.48 16.64 C 96.10 16.10 92.67 15.64 89.26 16.05 C 86.88 22.82 90.63 29.60 89.32 36.41 C 88.07 41.59 86.51 46.89 83.25 51.20 C 80.51 54.69 78.33 59.07 73.81 60.54 C 73.71 59.80 73.52 58.34 73.42 57.60 C 74.68 56.71 75.97 55.88 77.25 55.02 C 74.98 55.67 72.74 56.46 70.61 57.49 C 70.33 54.75 72.52 52.93 74.13 51.06 C 78.39 46.33 81.66 40.44 82.35 34.04 C 82.77 26.90 78.85 19.21 71.91 16.63 C 67.04 13.98 61.68 12.11 56.05 12.48 Z" />
</g>
<g id="#fe719bff">
<path fill="#fe719b" opacity="1.00" d=" M 46.89 18.14 C 54.00 15.28 61.84 16.63 68.90 18.94 C 71.45 21.44 74.48 23.95 75.21 27.64 C 76.06 32.50 75.94 37.86 72.99 42.04 C 66.24 51.76 57.62 60.18 47.58 66.47 C 46.01 67.25 44.32 67.75 42.68 68.34 C 42.36 68.16 41.72 67.79 41.40 67.60 C 41.12 66.84 40.56 65.31 40.28 64.55 C 40.37 66.59 40.44 68.64 40.62 70.69 C 39.61 71.31 38.60 71.93 37.59 72.55 C 37.28 70.32 37.33 67.85 35.68 66.09 L 35.66 67.04 C 35.59 67.78 35.43 69.26 35.36 70.00 C 32.33 68.79 28.90 67.84 26.88 65.06 C 21.51 58.03 21.36 48.21 24.39 40.17 C 27.59 29.63 36.87 21.94 46.89 18.14 M 48.33 26.35 C 39.51 28.92 32.74 37.14 30.91 46.03 C 30.56 50.08 32.67 55.25 37.00 56.24 C 44.30 56.09 50.14 50.99 54.96 46.03 C 57.51 42.91 60.61 40.19 62.59 36.65 C 64.16 33.51 63.34 28.53 59.70 27.24 C 56.12 25.80 52.09 25.28 48.33 26.35 Z" />
</g>
<g id="#8d4c70ff">
<path fill="#8d4c70" opacity="1.00" d=" M 89.26 16.05 C 92.67 15.64 96.10 16.10 99.48 16.64 C 100.38 17.24 101.12 18.04 101.93 18.76 C 101.03 30.95 94.96 41.79 89.35 52.36 C 85.97 59.11 80.40 64.38 74.99 69.50 C 74.79 66.49 74.30 63.51 73.81 60.54 C 78.33 59.07 80.51 54.69 83.25 51.20 C 86.51 46.89 88.07 41.59 89.32 36.41 C 90.63 29.60 86.88 22.82 89.26 16.05 Z" />
</g>
<g id="#d3608bff">
<path fill="#d3608b" opacity="1.00" d=" M 71.91 16.63 C 78.85 19.21 82.77 26.90 82.35 34.04 C 81.66 40.44 78.39 46.33 74.13 51.06 C 72.52 52.93 70.33 54.75 70.61 57.49 C 61.48 62.90 52.69 69.04 44.88 76.24 C 43.62 74.19 42.46 72.09 41.39 69.95 C 41.82 69.42 42.25 68.88 42.68 68.34 C 44.32 67.75 46.01 67.25 47.58 66.47 C 57.62 60.18 66.24 51.76 72.99 42.04 C 75.94 37.86 76.06 32.50 75.21 27.64 C 74.48 23.95 71.45 21.44 68.90 18.94 C 71.55 19.72 73.91 21.18 76.19 22.71 C 74.78 20.67 73.41 18.60 71.91 16.63 Z" />
</g>
<g id="#12100e36">
<path fill="#12100e" opacity="0.21" d=" M 24.27 21.10 C 23.00 19.55 25.59 16.73 27.15 18.21 C 26.25 19.23 25.29 20.20 24.27 21.10 Z" />
</g>
<g id="#724166ff">
<path fill="#724166" opacity="1.00" d=" M 101.93 18.76 C 105.26 21.80 107.87 25.48 110.59 29.04 C 110.30 31.55 108.50 33.46 107.75 35.81 C 105.23 43.87 101.72 51.77 96.21 58.26 C 90.26 67.13 82.52 74.62 74.37 81.44 C 72.32 83.47 70.62 85.87 68.21 87.52 C 57.49 89.15 46.46 90.52 35.70 88.47 C 39.84 87.68 44.11 87.96 48.22 87.11 C 52.53 85.25 56.68 83.04 60.96 81.09 C 60.15 80.92 58.52 80.57 57.71 80.40 C 62.97 79.69 68.46 79.35 73.28 76.92 C 73.39 76.52 73.59 75.73 73.69 75.34 C 73.75 75.09 73.87 74.60 73.92 74.35 C 74.32 72.74 74.69 71.13 74.99 69.50 C 80.40 64.38 85.97 59.11 89.35 52.36 C 94.96 41.79 101.03 30.95 101.93 18.76 Z" />
</g>
<g id="#ff7eb1ff">
<path fill="#ff7eb1" opacity="1.00" d=" M 48.33 26.35 C 52.09 25.28 56.12 25.80 59.70 27.24 C 63.34 28.53 64.16 33.51 62.59 36.65 C 60.61 40.19 57.51 42.91 54.96 46.03 C 50.14 50.99 44.30 56.09 37.00 56.24 C 32.67 55.25 30.56 50.08 30.91 46.03 C 32.74 37.14 39.51 28.92 48.33 26.35 Z" />
</g>
<g id="#58355eff">
<path fill="#58355e" opacity="1.00" d=" M 110.59 29.04 C 116.36 38.74 119.77 50.00 119.17 61.34 L 118.74 61.22 C 117.44 61.63 116.45 62.58 115.44 63.45 C 115.00 61.20 114.50 58.97 113.89 56.77 C 111.85 59.34 110.40 62.28 108.91 65.19 C 107.56 67.87 105.24 70.32 105.60 73.54 C 99.61 77.43 93.22 80.76 86.42 82.95 C 80.40 84.67 74.42 86.63 68.21 87.52 C 70.62 85.87 72.32 83.47 74.37 81.44 C 82.52 74.62 90.26 67.13 96.21 58.26 C 101.72 51.77 105.23 43.87 107.75 35.81 C 108.50 33.46 110.30 31.55 110.59 29.04 Z" />
</g>
<g id="#38282aff">
<path fill="#38282a" opacity="1.00" d=" M 13.45 52.15 C 13.64 52.19 14.02 52.25 14.21 52.29 C 16.73 55.60 18.72 59.28 21.24 62.60 C 24.69 67.30 28.98 71.29 32.91 75.57 C 33.94 73.81 34.97 72.02 35.36 70.00 C 35.43 69.26 35.59 67.78 35.66 67.04 C 36.56 69.89 36.26 72.94 34.41 75.35 C 33.82 75.51 32.63 75.82 32.04 75.98 C 31.90 75.86 31.64 75.63 31.50 75.51 C 28.98 73.25 26.61 70.83 24.38 68.29 C 24.11 69.40 23.58 71.62 23.31 72.73 C 22.62 70.63 22.53 68.42 22.20 66.25 C 19.73 62.58 17.10 59.01 14.84 55.19 C 14.25 60.43 14.39 65.71 14.27 70.97 C 13.10 67.40 13.45 63.55 13.60 59.86 C 13.71 57.29 15.10 54.50 13.45 52.15 Z" />
<path fill="#38282a" opacity="1.00" d=" M 14.27 70.98 C 18.51 74.88 23.99 76.97 29.57 78.03 C 25.15 79.78 20.74 76.47 16.85 74.66 C 15.91 73.50 15.11 72.22 14.27 70.98 Z" />
<path fill="#38282a" opacity="1.00" d=" M 62.12 78.31 C 66.08 77.82 69.99 76.86 73.69 75.34 C 73.59 75.73 73.39 76.52 73.28 76.92 C 68.46 79.35 62.97 79.69 57.71 80.40 C 54.88 80.38 51.80 81.07 49.26 79.45 C 53.54 79.04 57.84 78.83 62.12 78.31 Z" />
<path fill="#38282a" opacity="1.00" d=" M 14.31 80.98 C 14.67 80.91 15.39 80.78 15.75 80.71 C 16.13 81.02 16.89 81.63 17.27 81.94 C 22.53 86.02 29.31 87.29 35.70 88.47 C 46.46 90.52 57.49 89.15 68.21 87.52 C 74.42 86.63 80.40 84.67 86.42 82.95 C 87.07 83.29 88.38 83.99 89.03 84.33 C 83.43 86.54 77.53 87.80 71.70 89.23 C 63.73 90.71 55.64 91.46 47.53 91.44 C 39.03 91.37 30.44 89.95 22.56 86.67 C 20.16 85.47 17.54 84.22 16.14 81.79 C 15.80 81.96 15.10 82.29 14.75 82.45 L 14.03 82.73 C 14.10 82.30 14.24 81.42 14.31 80.98 Z" />
</g>
<g id="#212020ff">
<path fill="#212020" opacity="1.00" d=" M 70.61 57.49 C 72.74 56.46 74.98 55.67 77.25 55.02 C 75.97 55.88 74.68 56.71 73.42 57.60 C 73.52 58.34 73.71 59.80 73.81 60.54 C 74.30 63.51 74.79 66.49 74.99 69.50 C 74.69 71.13 74.32 72.74 73.92 74.35 C 73.81 70.14 73.41 65.95 72.79 61.78 C 72.69 60.84 72.50 58.95 72.40 58.01 C 67.63 61.10 62.80 64.09 58.20 67.43 C 58.33 69.80 58.40 72.17 58.29 74.54 C 57.90 74.53 57.13 74.52 56.74 74.52 C 56.38 72.81 56.03 71.10 55.68 69.39 C 52.88 71.76 50.10 74.16 47.19 76.39 C 46.01 76.49 44.81 76.52 43.63 76.68 C 42.53 74.74 41.41 72.79 40.62 70.69 C 40.44 68.64 40.37 66.59 40.28 64.55 C 40.56 65.31 41.12 66.84 41.40 67.60 C 41.72 67.79 42.36 68.16 42.68 68.34 C 42.25 68.88 41.82 69.42 41.39 69.95 C 42.46 72.09 43.62 74.19 44.88 76.24 C 52.69 69.04 61.48 62.90 70.61 57.49 Z" />
<path fill="#212020" opacity="1.00" d=" M 105.60 73.54 C 109.96 71.62 112.38 66.71 116.99 65.45 C 116.45 66.33 115.90 67.20 115.35 68.07 C 114.23 69.21 113.10 70.36 111.92 71.44 C 105.74 76.89 98.26 80.51 90.73 83.68 C 90.31 83.84 89.46 84.17 89.03 84.33 C 88.38 83.99 87.07 83.29 86.42 82.95 C 93.22 80.76 99.61 77.43 105.60 73.54 Z" />
</g>
<g id="#ffffffff">
<path fill="#ffffff" opacity="1.00" d=" M 14.84 55.19 C 17.10 59.01 19.73 62.58 22.20 66.25 C 22.53 68.42 22.62 70.63 23.31 72.73 C 23.58 71.62 24.11 69.40 24.38 68.29 C 26.61 70.83 28.98 73.25 31.50 75.51 C 31.05 76.52 30.41 77.36 29.57 78.03 C 23.99 76.97 18.51 74.88 14.27 70.98 L 14.27 70.97 C 14.39 65.71 14.25 60.43 14.84 55.19 Z" />
</g>
<g id="#3f2a55ff">
<path fill="#3f2a55" opacity="1.00" d=" M 108.91 65.19 C 110.40 62.28 111.85 59.34 113.89 56.77 C 114.50 58.97 115.00 61.20 115.44 63.45 C 116.45 62.58 117.44 61.63 118.74 61.22 C 118.20 62.65 117.72 64.11 116.99 65.45 C 112.38 66.71 109.96 71.62 105.60 73.54 C 105.24 70.32 107.56 67.87 108.91 65.19 Z" />
</g>
<g id="#cdcdcdff">
<path fill="#cdcdcd" opacity="1.00" d=" M 58.20 67.43 C 62.80 64.09 67.63 61.10 72.40 58.01 C 72.50 58.95 72.69 60.84 72.79 61.78 C 72.30 68.88 65.42 72.50 60.40 76.36 C 60.97 77.01 61.55 77.66 62.12 78.31 C 57.84 78.83 53.54 79.04 49.26 79.45 C 48.36 78.59 47.67 77.54 47.19 76.39 C 50.10 74.16 52.88 71.76 55.68 69.39 C 56.03 71.10 56.38 72.81 56.74 74.52 C 57.13 74.52 57.90 74.53 58.29 74.54 C 58.40 72.17 58.33 69.80 58.20 67.43 Z" />
</g>
<g id="#b6b7b6ff">
<path fill="#b6b7b6" opacity="1.00" d=" M 72.79 61.78 C 73.41 65.95 73.81 70.14 73.92 74.35 C 73.87 74.60 73.75 75.09 73.69 75.34 C 69.99 76.86 66.08 77.82 62.12 78.31 C 61.55 77.66 60.97 77.01 60.40 76.36 C 65.42 72.50 72.30 68.88 72.79 61.78 Z" />
</g>
<g id="#5582e0ff">
<path fill="#5582e0" opacity="1.00" d=" M 118.74 61.22 L 119.17 61.34 C 118.32 75.41 112.36 89.34 101.88 98.91 C 94.15 106.22 84.18 111.44 73.62 112.95 C 71.67 112.83 69.70 113.00 67.86 113.69 C 67.21 113.74 65.92 113.85 65.27 113.90 C 61.81 113.63 58.35 113.20 54.88 112.97 C 54.42 112.90 53.50 112.77 53.04 112.70 C 52.00 112.02 51.00 111.28 50.01 110.53 C 62.97 113.11 77.25 112.56 88.93 105.82 C 100.03 99.04 109.90 89.04 113.87 76.40 C 114.90 73.75 115.59 70.95 115.35 68.07 C 115.90 67.20 116.45 66.33 116.99 65.45 C 117.72 64.11 118.20 62.65 118.74 61.22 Z" />
</g>
<g id="#c45c84ff">
<path fill="#c45c84" opacity="1.00" d=" M 35.68 66.09 C 37.33 67.85 37.28 70.32 37.59 72.55 C 38.60 71.93 39.61 71.31 40.62 70.69 C 41.41 72.79 42.53 74.74 43.63 76.68 C 39.95 78.31 34.89 79.91 32.04 75.98 C 32.63 75.82 33.82 75.51 34.41 75.35 C 36.26 72.94 36.56 69.89 35.66 67.04 L 35.68 66.09 Z" />
</g>
<g id="#4463b2ff">
<path fill="#4463b2" opacity="1.00" d=" M 111.92 71.44 C 113.10 70.36 114.23 69.21 115.35 68.07 C 115.59 70.95 114.90 73.75 113.87 76.40 C 109.90 89.04 100.03 99.04 88.93 105.82 C 77.25 112.56 62.97 113.11 50.01 110.53 C 49.30 109.98 48.61 109.42 47.92 108.85 C 54.59 110.47 61.57 110.87 68.33 109.57 C 82.58 107.95 96.74 101.01 104.89 88.90 C 108.29 83.64 112.32 78.04 111.92 71.44 Z" />
</g>
<g id="#d17282ff">
<path fill="#d17282" opacity="1.00" d=" M 14.27 70.97 L 14.27 70.98 C 15.11 72.22 15.91 73.50 16.85 74.66 C 17.13 77.08 17.30 79.51 17.27 81.94 C 16.89 81.63 16.13 81.02 15.75 80.71 C 15.39 80.78 14.67 80.91 14.31 80.98 C 13.94 80.60 13.22 79.83 12.85 79.44 C 12.75 78.43 12.55 77.44 12.27 76.47 C 12.92 74.63 13.61 72.81 14.27 70.97 Z" />
</g>
<g id="#384c8dff">
<path fill="#384c8d" opacity="1.00" d=" M 90.73 83.68 C 98.26 80.51 105.74 76.89 111.92 71.44 C 112.32 78.04 108.29 83.64 104.89 88.90 C 96.74 101.01 82.58 107.95 68.33 109.57 C 65.55 109.18 62.79 108.71 60.01 108.31 C 63.89 106.51 67.90 104.90 71.42 102.43 C 79.34 96.90 87.20 91.14 93.94 84.17 C 93.13 84.05 91.53 83.80 90.73 83.68 Z" />
</g>
<g id="#995274ff">
<path fill="#995274" opacity="1.00" d=" M 16.85 74.66 C 20.74 76.47 25.15 79.78 29.57 78.03 C 30.41 77.36 31.05 76.52 31.50 75.51 C 31.64 75.63 31.90 75.86 32.04 75.98 C 34.89 79.91 39.95 78.31 43.63 76.68 C 44.81 76.52 46.01 76.49 47.19 76.39 C 47.67 77.54 48.36 78.59 49.26 79.45 C 51.80 81.07 54.88 80.38 57.71 80.40 C 58.52 80.57 60.15 80.92 60.96 81.09 C 56.68 83.04 52.53 85.25 48.22 87.11 C 44.11 87.96 39.84 87.68 35.70 88.47 C 29.31 87.29 22.53 86.02 17.27 81.94 C 17.30 79.51 17.13 77.08 16.85 74.66 Z" />
</g>
<g id="#a3abcbff">
<path fill="#a3abcb" opacity="1.00" d=" M 14.75 82.45 C 15.10 82.29 15.80 81.96 16.14 81.79 C 17.54 84.22 20.16 85.47 22.56 86.67 C 22.34 88.97 22.05 91.27 21.68 93.56 C 18.73 90.27 16.83 86.26 14.34 82.65 L 14.75 82.45 Z" />
</g>
<g id="#51629bff">
<path fill="#51629b" opacity="1.00" d=" M 89.03 84.33 C 89.46 84.17 90.31 83.84 90.73 83.68 C 91.53 83.80 93.13 84.05 93.94 84.17 C 87.20 91.14 79.34 96.90 71.42 102.43 C 67.90 104.90 63.89 106.51 60.01 108.31 C 62.79 108.71 65.55 109.18 68.33 109.57 C 61.57 110.87 54.59 110.47 47.92 108.85 C 46.59 107.76 45.30 106.62 43.99 105.51 C 55.23 103.66 64.81 97.03 73.71 90.32 C 73.21 90.05 72.20 89.51 71.70 89.23 C 77.53 87.80 83.43 86.54 89.03 84.33 Z" />
</g>
<g id="#8490b8ff">
<path fill="#8490b8" opacity="1.00" d=" M 22.56 86.67 C 30.44 89.95 39.03 91.37 47.53 91.44 C 41.75 96.48 33.86 97.53 26.61 98.97 C 24.95 97.24 23.28 95.51 21.65 93.75 L 21.68 93.56 C 22.05 91.27 22.34 88.97 22.56 86.67 Z" />
</g>
<g id="#6978a9ff">
<path fill="#6978a9" opacity="1.00" d=" M 47.53 91.44 C 55.64 91.46 63.73 90.71 71.70 89.23 C 72.20 89.51 73.21 90.05 73.71 90.32 C 64.81 97.03 55.23 103.66 43.99 105.51 C 45.30 106.62 46.59 107.76 47.92 108.85 C 48.61 109.42 49.30 109.98 50.01 110.53 C 51.00 111.28 52.00 112.02 53.04 112.70 C 43.17 110.75 33.90 105.88 26.61 98.97 C 33.86 97.53 41.75 96.48 47.53 91.44 Z" />
</g>
<g id="#334d7eb1">
<path fill="#334d7e" opacity="0.69" d=" M 54.88 112.97 C 58.35 113.20 61.81 113.63 65.27 113.90 C 61.78 114.11 58.25 114.04 54.88 112.97 Z" />
</g>
<g id="#1d2d4681">
<path fill="#1d2d46" opacity="0.51" d=" M 67.86 113.69 C 69.70 113.00 71.67 112.83 73.62 112.95 C 73.22 114.89 69.30 114.74 67.86 113.69 Z" />
</g>
</svg>
