<?xml version="1.0" encoding="UTF-8" ?>
<!DOCTYPE svg PUBLIC "-//W3C//DTD SVG 1.1//EN" "http://www.w3.org/Graphics/SVG/1.1/DTD/svg11.dtd">
<svg width="189pt" height="205pt" viewBox="0 0 189 205" version="1.1" xmlns="http://www.w3.org/2000/svg">
<g id="#fffffeff">
<path fill="#fffffe" opacity="1.00" d=" M 30.04 74.07 C 47.86 51.67 79.10 41.00 106.90 47.76 C 114.21 49.16 121.28 51.85 127.70 55.63 C 121.39 55.29 115.25 53.68 109.01 52.84 C 81.45 50.18 52.12 60.89 34.92 83.05 C 28.94 90.19 24.71 98.82 22.73 107.90 C 21.00 111.21 18.00 113.59 15.69 116.47 C 17.08 115.83 18.44 115.16 19.81 114.48 C 17.71 122.47 18.35 130.79 18.32 138.97 C 18.12 140.50 18.76 142.72 16.53 143.19 C 15.54 142.21 14.78 141.04 14.11 139.82 C 9.38 117.03 14.88 91.93 30.04 74.07 Z" />
</g>
<g id="#d0d6e5ff">
<path fill="#d0d6e5" opacity="1.00" d=" M 34.92 83.05 C 52.12 60.89 81.45 50.18 109.01 52.84 C 115.25 53.68 121.39 55.29 127.70 55.63 C 128.04 55.84 128.71 56.25 129.04 56.46 C 129.38 56.94 130.06 57.91 130.40 58.39 C 122.45 57.93 114.77 55.23 106.75 55.57 C 101.08 55.92 94.99 54.71 89.78 57.54 C 94.58 59.72 99.27 62.42 102.60 66.62 C 100.36 65.70 97.99 65.16 95.65 64.57 C 85.78 61.00 74.72 61.34 64.85 64.74 C 58.04 66.95 52.18 71.26 46.71 75.75 C 42.80 78.92 40.41 83.42 37.68 87.54 C 33.74 92.64 33.62 99.33 31.67 105.24 C 31.25 106.51 30.06 107.26 29.19 108.20 C 27.05 107.95 24.89 107.90 22.73 107.90 C 24.71 98.82 28.94 90.19 34.92 83.05 Z" />
</g>
<g id="#bbc5dfff">
<path fill="#bbc5df" opacity="1.00" d=" M 89.78 57.54 C 94.99 54.71 101.08 55.92 106.75 55.57 C 114.77 55.23 122.45 57.93 130.40 58.39 C 130.06 57.91 129.38 56.94 129.04 56.46 C 130.74 57.37 132.46 58.27 133.98 59.46 C 134.32 59.98 135.01 61.04 135.35 61.56 C 130.21 61.23 125.37 59.32 120.27 58.71 C 116.36 58.20 112.40 58.29 108.47 58.41 C 108.09 59.55 107.72 60.70 107.35 61.86 C 110.02 64.09 113.06 66.02 115.01 68.98 C 117.20 72.20 118.88 75.74 120.35 79.34 L 120.37 81.17 C 119.17 80.95 117.97 80.73 116.77 80.50 C 115.96 79.30 115.18 78.08 114.36 76.88 C 114.23 77.69 113.98 79.32 113.85 80.14 C 111.16 74.82 106.83 70.70 102.60 66.62 C 99.27 62.42 94.58 59.72 89.78 57.54 Z" />
</g>
<g id="#a2b1c8ff">
<path fill="#a2b1c8" opacity="1.00" d=" M 108.47 58.41 C 112.40 58.29 116.36 58.20 120.27 58.71 C 125.37 59.32 130.21 61.23 135.35 61.56 C 135.01 61.04 134.32 59.98 133.98 59.46 C 136.84 61.25 139.50 63.34 141.94 65.66 C 139.43 66.47 136.80 66.58 134.20 66.27 C 133.59 74.52 130.08 82.08 127.41 89.80 C 125.19 86.22 122.92 82.67 120.35 79.34 C 118.88 75.74 117.20 72.20 115.01 68.98 C 113.06 66.02 110.02 64.09 107.35 61.86 C 107.72 60.70 108.09 59.55 108.47 58.41 Z" />
</g>
<g id="#dee5ffff">
<path fill="#dee5ff" opacity="1.00" d=" M 64.85 64.74 C 74.72 61.34 85.78 61.00 95.65 64.57 C 97.86 67.96 101.17 70.84 101.95 74.97 C 103.11 79.80 102.55 85.39 99.25 89.29 C 95.65 93.81 91.18 97.59 86.25 100.60 C 87.25 101.10 88.24 101.60 89.23 102.11 C 82.07 103.18 76.39 108.40 73.29 114.74 C 70.78 114.20 68.02 113.85 65.91 115.68 C 65.70 114.35 65.47 113.03 65.21 111.72 C 64.74 113.52 64.36 115.34 64.10 117.18 C 63.40 116.04 62.71 114.89 62.00 113.76 C 61.41 114.82 60.82 115.88 60.22 116.94 C 59.88 114.83 59.56 112.71 59.28 110.60 C 59.17 109.60 59.06 108.60 58.94 107.60 C 58.25 110.12 57.63 112.67 57.19 115.25 C 56.70 114.36 56.20 113.48 55.68 112.61 C 53.46 113.70 51.29 115.16 48.77 115.39 C 47.31 115.14 46.03 114.33 44.68 113.76 C 44.16 113.87 43.10 114.08 42.57 114.19 C 42.50 114.14 42.35 114.03 42.28 113.98 C 40.41 105.25 37.73 96.58 37.68 87.54 C 40.41 83.42 42.80 78.92 46.71 75.75 C 52.18 71.26 58.04 66.95 64.85 64.74 M 67.51 72.61 C 61.86 74.80 56.77 78.21 52.26 82.22 C 50.08 84.57 49.47 87.87 48.66 90.87 C 47.48 94.56 49.49 98.43 51.65 101.33 C 57.72 103.96 64.08 100.67 70.07 99.44 C 74.23 99.05 77.34 96.00 80.22 93.27 C 83.38 89.56 87.57 84.93 85.57 79.66 C 84.96 75.85 81.13 74.14 77.86 73.09 C 74.44 72.77 70.94 72.40 67.51 72.61 Z" />
</g>
<g id="#c0ceffff">
<path fill="#c0ceff" opacity="1.00" d=" M 95.65 64.57 C 97.99 65.16 100.36 65.70 102.60 66.62 C 106.83 70.70 111.16 74.82 113.85 80.14 C 113.76 84.27 114.10 88.61 112.33 92.48 C 110.20 97.12 106.43 100.69 102.96 104.34 C 101.92 103.47 100.88 102.61 99.85 101.74 C 96.31 101.59 92.74 101.51 89.23 102.11 C 88.24 101.60 87.25 101.10 86.25 100.60 C 91.18 97.59 95.65 93.81 99.25 89.29 C 102.55 85.39 103.11 79.80 101.95 74.97 C 101.17 70.84 97.86 67.96 95.65 64.57 Z" />
</g>
<g id="#889dbdff">
<path fill="#889dbd" opacity="1.00" d=" M 134.20 66.27 C 136.80 66.58 139.43 66.47 141.94 65.66 C 142.98 66.62 143.99 67.60 144.98 68.61 C 143.98 75.12 143.96 81.96 140.85 87.95 C 138.37 92.44 136.65 97.39 133.32 101.36 C 130.51 104.76 129.10 109.01 126.71 112.68 C 123.32 117.67 120.95 123.39 116.42 127.52 C 111.33 133.96 106.76 141.10 99.95 145.94 C 96.56 148.27 93.51 151.12 89.81 153.01 C 86.40 153.41 83.00 153.85 79.61 154.41 C 78.80 154.42 77.19 154.45 76.38 154.47 C 77.79 150.36 82.50 149.84 85.60 147.54 C 89.24 144.91 91.89 141.19 95.29 138.28 C 98.29 135.64 101.64 133.36 104.10 130.15 C 106.95 126.34 110.97 123.46 113.20 119.18 C 115.62 114.45 119.98 110.99 121.97 106.01 C 124.52 100.86 125.32 95.11 127.41 89.80 C 130.08 82.08 133.59 74.52 134.20 66.27 Z" />
</g>
<g id="#738bacff">
<path fill="#738bac" opacity="1.00" d=" M 144.98 68.61 C 150.24 73.99 154.81 80.17 158.23 86.85 C 158.14 88.58 157.99 90.31 157.93 92.04 C 156.81 90.83 155.53 89.79 154.22 88.80 C 153.59 100.73 146.86 110.93 140.42 120.54 C 134.78 128.42 128.78 136.04 122.35 143.28 C 119.60 146.61 115.08 147.31 111.57 149.55 C 104.41 151.18 97.13 152.34 89.81 153.01 C 93.51 151.12 96.56 148.27 99.95 145.94 C 106.76 141.10 111.33 133.96 116.42 127.52 C 120.95 123.39 123.32 117.67 126.71 112.68 C 129.10 109.01 130.51 104.76 133.32 101.36 C 136.65 97.39 138.37 92.44 140.85 87.95 C 143.96 81.96 143.98 75.12 144.98 68.61 Z" />
</g>
<g id="#f2fcffff">
<path fill="#f2fcff" opacity="1.00" d=" M 67.51 72.61 C 70.94 72.40 74.44 72.77 77.86 73.09 C 81.13 74.14 84.96 75.85 85.57 79.66 C 87.57 84.93 83.38 89.56 80.22 93.27 C 77.34 96.00 74.23 99.05 70.07 99.44 C 64.08 100.67 57.72 103.96 51.65 101.33 C 49.49 98.43 47.48 94.56 48.66 90.87 C 49.47 87.87 50.08 84.57 52.26 82.22 C 56.77 78.21 61.86 74.80 67.51 72.61 Z" />
</g>
<g id="#abbbecff">
<path fill="#abbbec" opacity="1.00" d=" M 114.36 76.88 C 115.18 78.08 115.96 79.30 116.77 80.50 C 117.97 80.73 119.17 80.95 120.37 81.17 C 121.13 88.71 118.96 96.36 114.53 102.49 C 112.83 104.77 111.12 107.05 109.43 109.35 C 107.21 107.77 105.04 106.11 102.96 104.34 C 106.43 100.69 110.20 97.12 112.33 92.48 C 114.10 88.61 113.76 84.27 113.85 80.14 C 113.98 79.32 114.23 77.69 114.36 76.88 Z" />
</g>
<g id="#99acd8ff">
<path fill="#99acd8" opacity="1.00" d=" M 120.35 79.34 C 122.92 82.67 125.19 86.22 127.41 89.80 C 125.32 95.11 124.52 100.86 121.97 106.01 C 119.98 110.99 115.62 114.45 113.20 119.18 C 110.97 123.46 106.95 126.34 104.10 130.15 C 101.64 133.36 98.29 135.64 95.29 138.28 C 91.89 141.19 89.24 144.91 85.60 147.54 C 82.50 149.84 77.79 150.36 76.38 154.47 C 67.53 154.36 58.48 155.48 49.78 153.71 C 54.13 152.67 58.61 153.26 63.01 152.82 C 69.23 151.40 75.23 148.36 79.38 143.41 C 80.84 141.51 83.21 140.93 85.36 140.20 C 85.43 139.55 85.56 138.25 85.63 137.60 C 85.86 136.05 86.07 134.49 86.32 132.94 C 90.49 130.71 93.29 126.81 96.69 123.66 C 101.15 119.41 105.24 114.80 108.98 109.92 C 109.10 109.78 109.32 109.49 109.43 109.35 C 111.12 107.05 112.83 104.77 114.53 102.49 C 118.96 96.36 121.13 88.71 120.37 81.17 L 120.35 79.34 Z" />
</g>
<g id="#5c87bfff">
<path fill="#5c87bf" opacity="1.00" d=" M 158.23 86.85 C 164.37 97.54 166.98 109.98 167.56 122.19 C 166.79 123.16 166.02 124.14 165.27 125.14 C 162.92 119.60 163.84 113.17 161.88 107.43 C 161.76 102.04 159.85 96.99 157.93 92.04 C 157.99 90.31 158.14 88.58 158.23 86.85 Z" />
</g>
<g id="#d3d5feff">
<path fill="#d3d5fe" opacity="1.00" d=" M 31.67 105.24 C 33.62 99.33 33.74 92.64 37.68 87.54 C 37.73 96.58 40.41 105.25 42.28 113.98 C 38.29 111.35 33.97 108.97 29.19 108.20 C 30.06 107.26 31.25 106.51 31.67 105.24 Z" />
</g>
<g id="#607ca1ff">
<path fill="#607ca1" opacity="1.00" d=" M 154.22 88.80 C 155.53 89.79 156.81 90.83 157.93 92.04 C 159.85 96.99 161.76 102.04 161.88 107.43 C 160.69 104.97 159.62 102.47 158.66 99.92 C 156.65 104.44 155.14 109.19 152.68 113.51 C 147.42 125.15 139.16 135.05 130.79 144.56 C 124.49 146.58 118.12 148.49 111.57 149.55 C 115.08 147.31 119.60 146.61 122.35 143.28 C 128.78 136.04 134.78 128.42 140.42 120.54 C 146.86 110.93 153.59 100.73 154.22 88.80 Z" />
</g>
<g id="#4f6f99ff">
<path fill="#4f6f99" opacity="1.00" d=" M 152.68 113.51 C 155.14 109.19 156.65 104.44 158.66 99.92 C 159.62 102.47 160.69 104.97 161.88 107.43 C 163.84 113.17 162.92 119.60 165.27 125.14 C 164.43 126.31 163.61 127.53 162.48 128.44 C 153.24 136.04 142.14 141.03 130.79 144.56 C 139.16 135.05 147.42 125.15 152.68 113.51 Z" />
</g>
<g id="#2a2a38ff">
<path fill="#2a2a38" opacity="1.00" d=" M 73.29 114.74 C 76.39 108.40 82.07 103.18 89.23 102.11 C 92.74 101.51 96.31 101.59 99.85 101.74 C 100.88 102.61 101.92 103.47 102.96 104.34 C 105.04 106.11 107.21 107.77 109.43 109.35 C 109.32 109.49 109.10 109.78 108.98 109.92 C 105.38 108.64 101.93 106.95 98.29 105.77 C 92.82 104.54 86.66 104.65 81.89 107.93 C 77.42 111.06 75.06 116.17 72.37 120.74 C 70.77 123.53 69.24 126.36 67.71 129.18 C 67.45 129.07 66.94 128.83 66.68 128.71 C 64.19 125.41 63.46 121.21 64.10 117.18 C 64.36 115.34 64.74 113.52 65.21 111.72 C 65.47 113.03 65.70 114.35 65.91 115.68 C 66.45 119.38 66.88 123.10 67.21 126.84 C 69.09 122.73 71.11 118.69 73.29 114.74 Z" />
</g>
<g id="#bec8ffff">
<path fill="#bec8ff" opacity="1.00" d=" M 81.89 107.93 C 86.66 104.65 92.82 104.54 98.29 105.77 C 90.39 109.32 85.07 116.71 77.12 120.13 C 75.64 120.83 73.96 120.65 72.37 120.74 C 75.06 116.17 77.42 111.06 81.89 107.93 Z" />
<path fill="#bec8ff" opacity="1.00" d=" M 56.33 127.54 C 59.76 122.58 58.56 116.25 59.28 110.60 C 59.56 112.71 59.88 114.83 60.22 116.94 C 60.82 115.88 61.41 114.82 62.00 113.76 C 62.71 114.89 63.40 116.04 64.10 117.18 C 63.46 121.21 64.19 125.41 66.68 128.71 C 65.85 128.87 64.20 129.18 63.37 129.34 C 62.54 132.79 62.31 136.86 59.37 139.31 C 56.33 141.86 52.57 143.40 49.64 146.12 C 45.37 145.79 41.82 143.30 38.36 141.03 C 36.01 137.14 33.33 133.32 32.51 128.75 C 34.66 130.39 36.78 132.17 39.40 132.99 C 39.87 134.65 40.33 136.38 41.62 137.63 C 42.27 138.44 42.99 139.20 43.69 139.98 C 44.02 139.20 44.34 138.43 44.68 137.67 C 46.93 134.51 45.33 130.01 48.21 127.22 C 49.05 125.84 50.62 125.52 52.09 125.27 L 52.48 125.61 C 53.62 126.19 54.89 128.59 56.33 127.54 Z" />
</g>
<g id="#afbcf9ff">
<path fill="#afbcf9" opacity="1.00" d=" M 98.29 105.77 C 101.93 106.95 105.38 108.64 108.98 109.92 C 105.24 114.80 101.15 119.41 96.69 123.66 C 93.29 126.81 90.49 130.71 86.32 132.94 C 86.07 134.49 85.86 136.05 85.63 137.60 L 84.68 138.50 C 84.72 135.16 84.52 131.75 82.85 128.77 C 80.27 130.52 80.64 133.85 80.62 136.57 C 79.91 135.53 79.19 134.50 78.47 133.48 C 76.52 136.95 72.98 138.65 69.76 140.68 C 64.57 145.82 57.41 148.91 50.10 149.12 C 49.99 148.37 49.76 146.87 49.64 146.12 C 52.57 143.40 56.33 141.86 59.37 139.31 C 62.31 136.86 62.54 132.79 63.37 129.34 C 64.20 129.18 65.85 128.87 66.68 128.71 C 66.94 128.83 67.45 129.07 67.71 129.18 C 69.24 126.36 70.77 123.53 72.37 120.74 C 73.96 120.65 75.64 120.83 77.12 120.13 C 85.07 116.71 90.39 109.32 98.29 105.77 Z" />
</g>
<g id="#292934ff">
<path fill="#292934" opacity="1.00" d=" M 15.69 116.47 C 18.00 113.59 21.00 111.21 22.73 107.90 C 24.89 107.90 27.05 107.95 29.19 108.20 C 33.97 108.97 38.29 111.35 42.28 113.98 C 42.35 114.03 42.50 114.14 42.57 114.19 C 46.62 117.47 50.60 120.90 53.99 124.88 C 53.61 125.06 52.86 125.42 52.48 125.61 L 52.09 125.27 C 44.45 118.73 35.90 110.06 24.88 111.93 C 24.05 112.32 23.22 112.74 22.40 113.16 C 21.75 113.49 20.46 114.15 19.81 114.48 C 18.44 115.16 17.08 115.83 15.69 116.47 Z" />
<path fill="#292934" opacity="1.00" d=" M 165.27 125.14 C 165.41 125.54 165.69 126.34 165.83 126.74 C 164.92 128.05 164.04 129.37 163.09 130.65 C 162.18 131.44 161.26 132.21 160.30 132.93 C 152.33 138.77 142.99 142.13 133.84 145.58 C 126.17 148.38 118.13 149.88 110.17 151.60 C 101.35 153.49 92.35 154.34 83.38 155.08 C 82.12 154.85 80.87 154.61 79.61 154.41 C 83.00 153.85 86.40 153.41 89.81 153.01 C 97.13 152.34 104.41 151.18 111.57 149.55 C 118.12 148.49 124.49 146.58 130.79 144.56 C 142.14 141.03 153.24 136.04 162.48 128.44 C 163.61 127.53 164.43 126.31 165.27 125.14 Z" />
</g>
<g id="#040409ff">
<path fill="#040409" opacity="1.00" d=" M 58.94 107.60 C 59.06 108.60 59.17 109.60 59.28 110.60 C 58.56 116.25 59.76 122.58 56.33 127.54 C 54.89 128.59 53.62 126.19 52.48 125.61 C 52.86 125.42 53.61 125.06 53.99 124.88 C 54.40 125.37 55.23 126.35 55.64 126.84 C 56.15 122.97 56.55 119.09 57.19 115.25 C 57.63 112.67 58.25 110.12 58.94 107.60 Z" />
</g>
<g id="#bec7d9ff">
<path fill="#bec7d9" opacity="1.00" d=" M 22.40 113.16 C 23.22 112.74 24.05 112.32 24.88 111.93 C 25.13 112.18 25.61 112.69 25.85 112.94 C 25.38 120.46 26.47 128.00 29.90 134.78 C 30.23 136.92 30.45 139.08 30.77 141.23 C 28.88 138.94 26.49 136.85 23.33 136.88 C 22.68 140.15 24.47 145.00 20.89 146.83 C 20.40 146.50 19.43 145.83 18.95 145.49 C 19.38 145.29 20.25 144.88 20.68 144.68 C 21.00 139.45 20.55 134.22 20.82 128.99 C 21.03 123.68 22.29 118.48 22.40 113.16 Z" />
</g>
<g id="#cdd5ffff">
<path fill="#cdd5ff" opacity="1.00" d=" M 24.88 111.93 C 35.90 110.06 44.45 118.73 52.09 125.27 C 50.62 125.52 49.05 125.84 48.21 127.22 C 45.33 130.01 46.93 134.51 44.68 137.67 C 44.68 134.59 44.55 131.42 43.04 128.65 C 41.12 131.26 41.60 134.60 41.62 137.63 C 40.33 136.38 39.87 134.65 39.40 132.99 C 36.78 132.17 34.66 130.39 32.51 128.75 C 29.06 124.26 30.40 118.42 29.95 113.19 C 28.58 113.13 27.22 113.04 25.85 112.94 C 25.61 112.69 25.13 112.18 24.88 111.93 Z" />
</g>
<g id="#d1d4ffff">
<path fill="#d1d4ff" opacity="1.00" d=" M 48.77 115.39 C 51.29 115.16 53.46 113.70 55.68 112.61 C 56.20 113.48 56.70 114.36 57.19 115.25 C 56.55 119.09 56.15 122.97 55.64 126.84 C 55.23 126.35 54.40 125.37 53.99 124.88 C 50.60 120.90 46.62 117.47 42.57 114.19 C 43.10 114.08 44.16 113.87 44.68 113.76 C 46.03 114.33 47.31 115.14 48.77 115.39 Z" />
</g>
<g id="#c6cdedff">
<path fill="#c6cded" opacity="1.00" d=" M 25.85 112.94 C 27.22 113.04 28.58 113.13 29.95 113.19 C 30.40 118.42 29.06 124.26 32.51 128.75 C 33.33 133.32 36.01 137.14 38.36 141.03 C 35.33 139.25 32.46 137.19 29.90 134.78 C 26.47 128.00 25.38 120.46 25.85 112.94 Z" />
</g>
<g id="#dbe4e3ff">
<path fill="#dbe4e3" opacity="1.00" d=" M 19.81 114.48 C 20.46 114.15 21.75 113.49 22.40 113.16 C 22.29 118.48 21.03 123.68 20.82 128.99 C 20.55 134.22 21.00 139.45 20.68 144.68 C 20.25 144.88 19.38 145.29 18.95 145.49 C 18.11 144.76 17.30 143.99 16.53 143.19 C 18.76 142.72 18.12 140.50 18.32 138.97 C 18.35 130.79 17.71 122.47 19.81 114.48 Z" />
</g>
<g id="#c3c7fcff">
<path fill="#c3c7fc" opacity="1.00" d=" M 65.91 115.68 C 68.02 113.85 70.78 114.20 73.29 114.74 C 71.11 118.69 69.09 122.73 67.21 126.84 C 66.88 123.10 66.45 119.38 65.91 115.68 Z" />
</g>
<g id="#56487aff">
<path fill="#56487a" opacity="1.00" d=" M 165.27 125.14 C 166.02 124.14 166.79 123.16 167.56 122.19 C 167.68 137.33 163.72 152.70 155.40 165.44 C 145.16 181.76 128.36 193.44 109.94 198.71 C 102.15 200.62 94.10 201.31 86.09 201.15 C 75.87 200.80 66.01 197.71 56.64 193.82 C 57.87 193.43 59.11 193.06 60.36 192.71 C 68.81 194.22 76.95 197.34 85.62 197.66 C 91.05 198.34 96.54 197.98 101.98 197.59 C 114.06 196.38 125.03 190.50 134.97 183.86 C 142.33 177.66 150.13 171.17 153.80 161.99 C 155.82 156.13 159.40 150.92 160.95 144.89 C 162.10 140.23 163.31 135.50 163.09 130.65 C 164.04 129.37 164.92 128.05 165.83 126.74 C 165.69 126.34 165.41 125.54 165.27 125.14 Z" />
</g>
<g id="#21210035">
<path fill="#212100" opacity="0.21" d=" M 0.00 124.27 C 0.69 126.61 1.28 128.98 1.67 131.40 C 1.25 131.97 0.42 133.12 0.00 133.69 L 0.00 124.27 Z" />
</g>
<g id="#181a21ff">
<path fill="#181a21" opacity="1.00" d=" M 80.62 136.57 C 80.64 133.85 80.27 130.52 82.85 128.77 C 84.52 131.75 84.72 135.16 84.68 138.50 C 84.03 139.07 83.38 139.64 82.72 140.20 C 82.03 138.98 81.32 137.78 80.62 136.57 Z" />
</g>
<g id="#1a1a21ff">
<path fill="#1a1a21" opacity="1.00" d=" M 41.62 137.63 C 41.60 134.60 41.12 131.26 43.04 128.65 C 44.55 131.42 44.68 134.59 44.68 137.67 C 44.34 138.43 44.02 139.20 43.69 139.98 C 42.99 139.20 42.27 138.44 41.62 137.63 Z" />
</g>
<g id="#3f3a68ff">
<path fill="#3f3a68" opacity="1.00" d=" M 160.30 132.93 C 161.26 132.21 162.18 131.44 163.09 130.65 C 163.31 135.50 162.10 140.23 160.95 144.89 C 159.40 150.92 155.82 156.13 153.80 161.99 C 150.13 171.17 142.33 177.66 134.97 183.86 C 125.03 190.50 114.06 196.38 101.98 197.59 C 96.54 197.98 91.05 198.34 85.62 197.66 C 86.79 197.08 87.96 196.50 89.14 195.94 C 97.80 194.34 106.82 193.81 114.89 189.95 C 125.40 186.20 135.20 180.00 142.81 171.79 C 147.73 166.78 150.81 160.38 154.25 154.34 C 157.61 147.72 159.70 140.33 160.30 132.93 Z" />
</g>
<g id="#a4b6e5ff">
<path fill="#a4b6e5" opacity="1.00" d=" M 69.76 140.68 C 72.98 138.65 76.52 136.95 78.47 133.48 C 79.19 134.50 79.91 135.53 80.62 136.57 C 81.32 137.78 82.03 138.98 82.72 140.20 C 83.38 139.64 84.03 139.07 84.68 138.50 L 85.63 137.60 C 85.56 138.25 85.43 139.55 85.36 140.20 C 83.21 140.93 80.84 141.51 79.38 143.41 C 75.23 148.36 69.23 151.40 63.01 152.82 C 58.61 153.26 54.13 152.67 49.78 153.71 C 47.85 153.72 45.91 153.62 43.99 153.42 C 44.51 152.82 45.02 152.22 45.54 151.62 C 44.14 150.92 42.75 150.21 41.38 149.46 C 44.29 149.46 47.20 149.29 50.10 149.12 C 57.41 148.91 64.57 145.82 69.76 140.68 Z" />
</g>
<g id="#413255ff">
<path fill="#413255" opacity="1.00" d=" M 133.84 145.58 C 142.99 142.13 152.33 138.77 160.30 132.93 C 159.70 140.33 157.61 147.72 154.25 154.34 C 154.66 151.10 155.11 147.86 155.57 144.62 C 152.04 145.87 150.33 149.42 148.31 152.28 C 145.76 156.36 141.80 159.24 138.91 163.03 C 132.70 170.79 124.73 176.83 117.01 182.98 C 113.61 185.71 109.63 187.56 105.93 189.83 C 108.91 189.69 111.91 189.71 114.89 189.95 C 106.82 193.81 97.80 194.34 89.14 195.94 C 83.92 196.22 78.71 195.12 74.08 192.70 C 78.03 190.21 82.56 188.87 86.56 186.47 C 89.29 184.84 92.21 183.60 95.13 182.39 C 94.87 181.97 94.36 181.13 94.10 180.71 C 97.89 178.56 101.27 175.65 103.67 171.98 C 103.83 173.33 103.99 174.68 104.15 176.03 C 107.93 173.98 111.17 171.16 114.36 168.32 C 120.02 163.69 125.41 158.68 130.03 153.00 C 132.09 150.51 134.61 148.48 137.04 146.38 C 136.24 146.18 134.64 145.78 133.84 145.58 Z" />
</g>
<g id="#b5c4e8ff">
<path fill="#b5c4e8" opacity="1.00" d=" M 29.90 134.78 C 32.46 137.19 35.33 139.25 38.36 141.03 C 41.82 143.30 45.37 145.79 49.64 146.12 C 49.76 146.87 49.99 148.37 50.10 149.12 C 47.20 149.29 44.29 149.46 41.38 149.46 C 37.41 147.33 33.29 145.14 30.77 141.23 C 30.45 139.08 30.23 136.92 29.90 134.78 Z" />
</g>
<g id="#afbbd1ff">
<path fill="#afbbd1" opacity="1.00" d=" M 23.33 136.88 C 26.49 136.85 28.88 138.94 30.77 141.23 C 33.29 145.14 37.41 147.33 41.38 149.46 C 42.75 150.21 44.14 150.92 45.54 151.62 C 45.02 152.22 44.51 152.82 43.99 153.42 C 36.08 152.16 28.08 150.48 20.89 146.83 C 24.47 145.00 22.68 140.15 23.33 136.88 Z" />
</g>
<g id="#090c08ff">
<path fill="#090c08" opacity="1.00" d=" M 14.11 139.82 C 14.78 141.04 15.54 142.21 16.53 143.19 C 17.30 143.99 18.11 144.76 18.95 145.49 C 19.43 145.83 20.40 146.50 20.89 146.83 C 28.08 150.48 36.08 152.16 43.99 153.42 C 45.91 153.62 47.85 153.72 49.78 153.71 C 58.48 155.48 67.53 154.36 76.38 154.47 C 77.19 154.45 78.80 154.42 79.61 154.41 C 80.87 154.61 82.12 154.85 83.38 155.08 L 84.09 155.23 C 75.22 155.52 66.34 155.22 57.47 155.58 C 46.24 154.54 34.90 153.35 24.33 149.14 C 23.16 148.68 22.00 148.17 20.86 147.63 C 19.67 146.65 18.58 145.57 17.48 144.51 C 16.93 144.61 15.83 144.81 15.28 144.91 C 14.77 143.24 14.45 141.53 14.11 139.82 Z" />
<path fill="#090c08" opacity="1.00" d=" M 101.29 162.58 C 105.73 161.47 110.07 160.00 114.41 158.54 C 112.10 160.18 108.74 160.96 107.67 163.84 C 106.45 166.61 105.33 169.44 103.67 171.98 C 101.27 175.65 97.89 178.56 94.10 180.71 C 86.76 184.33 78.34 183.09 70.47 182.83 C 57.67 181.19 44.64 176.64 35.61 167.04 C 33.38 164.33 30.94 161.75 27.86 160.00 C 33.60 162.49 39.61 164.43 45.76 165.61 C 53.89 166.99 62.15 167.80 70.39 167.29 C 80.82 167.11 91.26 165.46 101.29 162.58 M 94.97 166.26 C 89.44 167.72 83.58 167.69 78.12 169.24 C 63.31 169.77 47.84 169.55 34.08 163.37 C 39.11 171.17 48.12 175.80 56.79 178.51 C 61.49 180.39 66.59 180.81 71.55 181.57 C 71.50 180.77 71.39 179.15 71.33 178.34 C 72.27 179.38 73.18 180.45 74.06 181.55 C 77.92 181.76 81.78 181.60 85.65 181.57 C 85.66 178.47 85.35 175.38 85.16 172.29 C 85.49 172.41 86.15 172.63 86.48 172.75 C 86.57 175.59 87.79 178.19 88.71 180.83 C 97.55 179.36 102.74 171.04 105.89 163.38 C 102.07 163.44 98.61 165.33 94.97 166.26 Z" />
</g>
<g id="#db7987ff">
<path fill="#db7987" opacity="1.00" d=" M 15.28 144.91 C 15.83 144.81 16.93 144.61 17.48 144.51 C 18.58 145.57 19.67 146.65 20.86 147.63 C 21.38 151.50 21.86 155.39 22.23 159.28 C 21.51 158.52 20.81 157.74 20.12 156.96 C 17.79 153.26 16.96 148.90 15.28 144.91 Z" />
</g>
<g id="#302c50ff">
<path fill="#302c50" opacity="1.00" d=" M 148.31 152.28 C 150.33 149.42 152.04 145.87 155.57 144.62 C 155.11 147.86 154.66 151.10 154.25 154.34 C 150.81 160.38 147.73 166.78 142.81 171.79 C 135.20 180.00 125.40 186.20 114.89 189.95 C 111.91 189.71 108.91 189.69 105.93 189.83 C 109.63 187.56 113.61 185.71 117.01 182.98 C 124.73 176.83 132.70 170.79 138.91 163.03 C 141.80 159.24 145.76 156.36 148.31 152.28 Z" />
</g>
<g id="#543a5cff">
<path fill="#543a5c" opacity="1.00" d=" M 110.17 151.60 C 118.13 149.88 126.17 148.38 133.84 145.58 C 134.64 145.78 136.24 146.18 137.04 146.38 C 134.61 148.48 132.09 150.51 130.03 153.00 C 125.41 158.68 120.02 163.69 114.36 168.32 C 111.17 171.16 107.93 173.98 104.15 176.03 C 103.99 174.68 103.83 173.33 103.67 171.98 C 105.33 169.44 106.45 166.61 107.67 163.84 C 108.74 160.96 112.10 160.18 114.41 158.54 C 110.07 160.00 105.73 161.47 101.29 162.58 C 103.63 158.94 107.09 156.30 110.60 153.88 C 110.50 153.31 110.28 152.17 110.17 151.60 Z" />
</g>
<g id="#b5657bff">
<path fill="#b5657b" opacity="1.00" d=" M 20.86 147.63 C 22.00 148.17 23.16 148.68 24.33 149.14 C 25.35 155.30 26.87 161.47 26.36 167.76 C 24.06 164.30 21.57 160.89 20.12 156.96 C 20.81 157.74 21.51 158.52 22.23 159.28 C 21.86 155.39 21.38 151.50 20.86 147.63 Z" />
</g>
<g id="#925472ff">
<path fill="#925472" opacity="1.00" d=" M 24.33 149.14 C 34.90 153.35 46.24 154.54 57.47 155.58 C 62.09 157.59 67.22 156.77 72.10 157.31 C 68.47 158.89 64.64 159.90 60.78 160.73 C 55.56 161.75 51.18 165.34 45.76 165.61 C 39.61 164.43 33.60 162.49 27.86 160.00 C 30.94 161.75 33.38 164.33 35.61 167.04 C 34.61 167.68 33.60 168.32 32.59 168.97 C 32.25 170.52 31.83 172.07 31.49 173.63 C 30.97 173.25 29.91 172.49 29.39 172.11 C 28.20 170.81 27.00 169.42 26.36 167.76 C 26.87 161.47 25.35 155.30 24.33 149.14 Z" />
</g>
<g id="#6b4464ff">
<path fill="#6b4464" opacity="1.00" d=" M 83.38 155.08 C 92.35 154.34 101.35 153.49 110.17 151.60 C 110.28 152.17 110.50 153.31 110.60 153.88 C 107.09 156.30 103.63 158.94 101.29 162.58 C 91.26 165.46 80.82 167.11 70.39 167.29 C 72.49 166.42 74.70 165.84 76.95 165.52 C 80.55 161.97 84.93 159.40 88.99 156.43 C 87.36 156.01 85.73 155.58 84.09 155.23 L 83.38 155.08 Z" />
</g>
<g id="#7d4b6bff">
<path fill="#7d4b6b" opacity="1.00" d=" M 57.47 155.58 C 66.34 155.22 75.22 155.52 84.09 155.23 C 85.73 155.58 87.36 156.01 88.99 156.43 C 84.93 159.40 80.55 161.97 76.95 165.52 C 74.70 165.84 72.49 166.42 70.39 167.29 C 62.15 167.80 53.89 166.99 45.76 165.61 C 51.18 165.34 55.56 161.75 60.78 160.73 C 64.64 159.90 68.47 158.89 72.10 157.31 C 67.22 156.77 62.09 157.59 57.47 155.58 Z" />
</g>
<g id="#5c5c5cff">
<path fill="#5c5c5c" opacity="1.00" d=" M 94.97 166.26 C 98.61 165.33 102.07 163.44 105.89 163.38 C 102.74 171.04 97.55 179.36 88.71 180.83 C 87.79 178.19 86.57 175.59 86.48 172.75 C 87.01 172.87 88.05 173.13 88.57 173.26 C 91.47 171.73 93.85 169.36 96.75 167.80 C 96.30 167.41 95.41 166.64 94.97 166.26 Z" />
</g>
<g id="#818181ff">
<path fill="#818181" opacity="1.00" d=" M 34.08 163.37 C 47.84 169.55 63.31 169.77 78.12 169.24 C 74.26 171.11 69.97 171.98 66.25 174.19 C 63.24 175.92 60.11 177.46 56.79 178.51 C 48.12 175.80 39.11 171.17 34.08 163.37 Z" />
</g>
<g id="#704666ff">
<path fill="#704666" opacity="1.00" d=" M 35.61 167.04 C 44.64 176.64 57.67 181.19 70.47 182.83 C 64.71 184.76 58.59 185.24 52.84 187.19 C 54.40 190.09 57.43 191.54 60.36 192.71 C 59.11 193.06 57.87 193.43 56.64 193.82 C 46.30 188.46 36.40 181.54 29.39 172.11 C 29.91 172.49 30.97 173.25 31.49 173.63 C 31.83 172.07 32.25 170.52 32.59 168.97 C 33.60 168.32 34.61 167.68 35.61 167.04 Z" />
</g>
<g id="#6c6c6cff">
<path fill="#6c6c6c" opacity="1.00" d=" M 78.12 169.24 C 83.58 167.69 89.44 167.72 94.97 166.26 C 95.41 166.64 96.30 167.41 96.75 167.80 C 93.85 169.36 91.47 171.73 88.57 173.26 C 88.05 173.13 87.01 172.87 86.48 172.75 C 86.15 172.63 85.49 172.41 85.16 172.29 C 85.35 175.38 85.66 178.47 85.65 181.57 C 81.78 181.60 77.92 181.76 74.06 181.55 C 73.18 180.45 72.27 179.38 71.33 178.34 C 71.39 179.15 71.50 180.77 71.55 181.57 C 66.59 180.81 61.49 180.39 56.79 178.51 C 60.11 177.46 63.24 175.92 66.25 174.19 C 69.97 171.98 74.26 171.11 78.12 169.24 Z" />
</g>
<g id="#563b5dff">
<path fill="#563b5d" opacity="1.00" d=" M 70.47 182.83 C 78.34 183.09 86.76 184.33 94.10 180.71 C 94.36 181.13 94.87 181.97 95.13 182.39 C 92.21 183.60 89.29 184.84 86.56 186.47 C 82.56 188.87 78.03 190.21 74.08 192.70 C 78.71 195.12 83.92 196.22 89.14 195.94 C 87.96 196.50 86.79 197.08 85.62 197.66 C 76.95 197.34 68.81 194.22 60.36 192.71 C 57.43 191.54 54.40 190.09 52.84 187.19 C 58.59 185.24 64.71 184.76 70.47 182.83 Z" />
</g>
</svg>
