<?xml version="1.0" encoding="UTF-8" ?>
<!DOCTYPE svg PUBLIC "-//W3C//DTD SVG 1.1//EN" "http://www.w3.org/Graphics/SVG/1.1/DTD/svg11.dtd">
<svg width="218pt" height="98pt" viewBox="0 0 218 98" version="1.1" xmlns="http://www.w3.org/2000/svg">
<g id="#ffe4e0ff">
<path fill="#ffe4e0" opacity="1.00" d=" M 113.90 16.91 C 116.88 16.58 119.77 17.43 122.65 17.99 C 121.53 18.57 120.41 19.16 119.29 19.74 C 117.94 31.44 114.88 44.64 104.72 51.87 C 103.68 52.73 102.89 53.83 102.09 54.90 C 98.94 50.88 95.34 46.98 90.82 44.50 C 92.93 37.65 97.25 31.57 101.87 26.17 L 101.30 27.39 C 104.80 25.18 108.18 22.78 111.35 20.11 C 112.72 22.46 114.32 24.69 116.27 26.60 C 115.75 23.78 114.07 21.42 112.60 19.03 C 112.93 18.50 113.58 17.44 113.90 16.91 Z" />
</g>
<g id="#b57f83ff">
<path fill="#b57f83" opacity="1.00" d=" M 109.91 17.76 C 111.24 17.46 112.57 17.18 113.90 16.91 C 113.58 17.44 112.93 18.50 112.60 19.03 C 114.07 21.42 115.75 23.78 116.27 26.60 C 114.32 24.69 112.72 22.46 111.35 20.11 C 108.18 22.78 104.80 25.18 101.30 27.39 L 101.87 26.17 C 105.23 23.15 109.26 20.95 112.60 17.87 C 111.93 17.85 110.58 17.79 109.91 17.76 Z" />
<path fill="#b57f83" opacity="1.00" d=" M 30.05 78.54 C 32.69 77.82 35.35 77.12 38.02 76.47 C 38.58 77.72 39.19 78.95 39.85 80.15 C 40.27 80.79 41.10 82.07 41.51 82.71 C 37.35 82.46 33.53 80.72 30.05 78.54 Z" />
</g>
<g id="#4545457d">
<path fill="#454545" opacity="0.49" d=" M 173.46 18.02 C 173.75 16.08 178.50 15.91 178.78 17.93 C 177.01 17.92 175.23 17.98 173.46 18.02 Z" />
</g>
<g id="#fff9f9ff">
<path fill="#fff9f9" opacity="1.00" d=" M 33.02 21.05 C 37.86 18.86 43.08 16.94 48.47 18.15 C 44.19 19.52 39.22 19.57 35.68 22.65 C 33.87 24.14 32.04 25.64 30.53 27.45 C 24.81 35.38 19.13 44.38 19.76 54.59 C 19.59 54.53 19.24 54.39 19.06 54.33 C 18.91 53.64 18.62 52.26 18.47 51.58 L 17.69 50.25 C 18.84 40.11 23.01 29.64 31.20 23.16 C 32.21 22.74 32.81 22.04 33.02 21.05 Z" />
</g>
<g id="#ffdedcff">
<path fill="#ffdedc" opacity="1.00" d=" M 48.47 18.15 C 50.27 18.80 52.11 19.32 53.84 20.13 C 54.54 20.63 55.23 21.14 55.92 21.66 C 53.83 21.49 51.63 20.82 49.60 21.63 C 48.38 24.10 49.70 26.92 49.33 29.55 C 48.80 32.66 47.68 35.68 47.67 38.88 C 45.92 41.27 44.12 43.62 42.18 45.86 C 39.75 47.58 36.96 48.34 34.37 46.46 C 34.42 42.32 33.84 38.11 34.62 34.01 C 36.88 30.57 40.59 28.47 43.77 25.98 C 42.60 25.75 41.43 25.51 40.26 25.27 C 40.69 25.62 41.54 26.30 41.97 26.64 C 39.21 28.97 35.90 30.90 34.02 34.09 C 32.71 39.27 34.64 44.89 32.81 50.01 C 31.18 52.87 28.21 54.67 26.40 57.43 C 26.10 57.80 25.81 58.17 25.52 58.54 C 23.37 57.60 21.35 56.35 19.76 54.59 C 19.13 44.38 24.81 35.38 30.53 27.45 C 32.04 25.64 33.87 24.14 35.68 22.65 C 39.22 19.57 44.19 19.52 48.47 18.15 Z" />
<path fill="#ffdedc" opacity="1.00" d=" M 33.94 49.67 C 33.08 48.80 34.25 46.66 35.45 47.47 C 36.47 48.38 35.16 50.39 33.94 49.67 Z" />
</g>
<g id="#fffffcff">
<path fill="#fffffc" opacity="1.00" d=" M 97.93 26.05 C 101.35 22.52 105.37 19.66 109.91 17.76 C 110.58 17.79 111.93 17.85 112.60 17.87 C 109.26 20.95 105.23 23.15 101.87 26.17 C 97.25 31.57 92.93 37.65 90.82 44.50 C 92.39 46.65 94.37 48.46 96.23 50.36 C 96.13 52.17 96.11 53.98 96.16 55.79 C 97.01 54.50 97.54 53.08 97.77 51.53 C 98.99 52.96 100.22 54.37 101.44 55.79 L 100.69 56.41 C 97.64 56.29 94.60 56.09 91.57 55.73 C 91.38 55.19 91.00 54.11 90.81 53.57 C 90.64 51.48 90.63 49.39 90.66 47.30 C 90.33 47.72 89.66 48.56 89.32 48.99 C 88.52 47.02 87.71 45.07 86.76 43.17 C 86.33 42.65 85.89 42.13 85.43 41.63 C 84.74 40.86 84.06 40.07 83.43 39.25 C 82.27 37.64 81.11 36.03 79.89 34.47 C 79.21 34.15 77.86 33.51 77.18 33.19 C 76.79 32.96 75.99 32.49 75.60 32.26 L 75.23 32.05 C 77.46 28.24 79.93 24.42 83.50 21.73 C 82.19 23.28 80.92 24.88 79.61 26.44 C 79.89 26.83 80.44 27.61 80.72 27.99 C 80.00 29.44 79.27 30.88 78.52 32.31 C 79.54 32.81 80.53 33.77 81.80 32.94 C 82.31 34.42 82.79 35.91 83.29 37.39 C 85.27 38.23 87.19 39.22 89.00 40.40 C 89.79 38.54 90.60 36.70 91.54 34.92 C 93.33 31.74 95.19 28.51 97.93 26.05 Z" />
</g>
<g id="#f9cccbff">
<path fill="#f9cccb" opacity="1.00" d=" M 122.65 17.99 C 124.24 18.45 125.76 19.08 127.20 19.89 C 126.19 20.67 125.21 21.49 124.23 22.30 C 124.29 28.23 124.24 34.32 121.96 39.91 C 120.60 44.61 117.11 48.19 114.92 52.48 C 113.22 53.35 111.69 54.52 110.20 55.72 C 110.95 55.66 112.46 55.53 113.21 55.47 L 113.93 56.18 C 114.20 56.51 114.74 57.18 115.00 57.52 C 116.47 57.64 117.94 57.66 119.42 57.65 C 118.34 58.66 117.25 59.67 116.14 60.65 C 116.25 60.23 116.46 59.39 116.56 58.97 C 111.03 63.75 103.51 62.43 96.81 62.73 C 97.36 63.04 97.91 63.34 98.47 63.64 C 100.71 65.07 103.40 65.21 105.96 65.45 C 101.31 65.80 96.67 66.69 92.41 68.66 C 92.85 64.80 92.59 60.89 91.83 57.08 C 94.19 57.35 96.56 57.60 98.92 57.85 C 99.36 57.49 100.25 56.77 100.69 56.41 L 101.44 55.79 C 101.60 55.57 101.93 55.13 102.09 54.90 C 102.89 53.83 103.68 52.73 104.72 51.87 C 114.88 44.64 117.94 31.44 119.29 19.74 C 120.41 19.16 121.53 18.57 122.65 17.99 Z" />
</g>
<g id="#fdfcfcff">
<path fill="#fdfcfc" opacity="1.00" d=" M 162.00 24.27 C 164.88 20.96 169.11 18.62 173.46 18.02 C 175.23 17.98 177.01 17.92 178.78 17.93 L 180.42 18.15 C 174.79 19.03 169.17 21.05 164.94 24.98 C 162.44 27.38 160.61 30.77 157.06 31.79 L 156.06 31.93 C 152.56 32.36 148.82 32.71 145.90 34.88 C 141.67 37.94 138.18 41.92 135.15 46.14 C 130.89 52.64 128.47 60.09 126.01 67.40 C 126.01 64.06 126.12 60.70 126.66 57.39 C 127.04 56.04 127.50 54.72 127.92 53.38 C 130.42 47.80 133.29 42.14 138.00 38.08 C 139.24 37.10 140.16 35.84 140.27 34.22 C 140.49 34.42 140.94 34.83 141.17 35.03 C 145.58 32.13 150.75 30.25 156.11 30.91 C 157.09 29.57 158.10 28.23 159.33 27.11 C 160.31 26.25 161.21 25.31 162.00 24.27 Z" />
</g>
<g id="#ffe4e2ff">
<path fill="#ffe4e2" opacity="1.00" d=" M 180.42 18.15 L 181.22 18.02 C 181.36 18.42 181.63 19.20 181.77 19.59 C 181.07 19.84 179.69 20.33 179.00 20.58 C 179.65 22.49 180.31 24.39 180.95 26.30 C 179.93 27.41 178.98 28.58 178.04 29.77 C 174.73 33.02 173.27 37.44 172.81 41.97 C 172.49 41.61 171.85 40.89 171.53 40.53 C 170.23 39.09 168.88 37.68 167.47 36.34 C 166.18 35.29 164.82 34.33 163.44 33.41 C 163.05 33.27 162.26 32.98 161.86 32.84 C 160.29 32.37 158.67 32.06 157.06 31.79 C 160.61 30.77 162.44 27.38 164.94 24.98 C 169.17 21.05 174.79 19.03 180.42 18.15 Z" />
</g>
<g id="#f2c7ccff">
<path fill="#f2c7cc" opacity="1.00" d=" M 181.22 18.02 C 185.63 19.30 189.73 21.72 192.65 25.32 C 190.11 24.69 187.60 23.89 184.98 23.67 C 183.34 23.94 182.19 25.31 180.95 26.30 C 180.31 24.39 179.65 22.49 179.00 20.58 C 179.69 20.33 181.07 19.84 181.77 19.59 C 181.63 19.20 181.36 18.42 181.22 18.02 Z" />
</g>
<g id="#ecc3c5ff">
<path fill="#ecc3c5" opacity="1.00" d=" M 53.84 20.13 C 55.50 20.68 57.00 21.58 58.36 22.67 C 57.01 25.34 55.30 29.66 58.82 31.40 C 54.75 33.31 51.07 35.95 47.67 38.88 C 47.68 35.68 48.80 32.66 49.33 29.55 C 49.70 26.92 48.38 24.10 49.60 21.63 C 51.63 20.82 53.83 21.49 55.92 21.66 C 55.23 21.14 54.54 20.63 53.84 20.13 Z" />
</g>
<g id="#583f3bf8">
<path fill="#583f3b" opacity="0.97" d=" M 83.50 21.73 C 85.02 20.50 86.78 19.68 88.61 19.03 C 88.95 20.22 89.29 21.42 89.64 22.61 C 90.14 22.56 91.14 22.45 91.64 22.40 C 92.62 23.71 93.61 25.02 94.60 26.33 C 93.18 26.52 91.77 26.72 90.38 27.02 C 89.19 25.21 88.01 23.40 86.83 21.58 C 85.72 21.62 84.61 21.67 83.50 21.73 Z" />
</g>
<g id="#e7bcbbff">
<path fill="#e7bcbb" opacity="1.00" d=" M 127.20 19.89 C 129.11 20.93 130.89 22.21 132.53 23.63 C 131.42 23.52 130.30 23.40 129.19 23.29 C 129.93 27.28 130.42 31.39 129.50 35.40 C 128.56 39.70 128.37 44.25 126.35 48.24 C 122.35 49.10 118.69 50.95 114.92 52.48 C 117.11 48.19 120.60 44.61 121.96 39.91 C 124.24 34.32 124.29 28.23 124.23 22.30 C 125.21 21.49 126.19 20.67 127.20 19.89 Z" />
</g>
<g id="#18181840">
<path fill="#181818" opacity="0.25" d=" M 31.20 23.16 C 30.71 21.45 31.32 20.74 33.02 21.05 C 32.81 22.04 32.21 22.74 31.20 23.16 Z" />
</g>
<g id="#4e2918ff">
<path fill="#4e2918" opacity="1.00" d=" M 83.50 21.73 C 84.61 21.67 85.72 21.62 86.83 21.58 C 88.01 23.40 89.19 25.21 90.38 27.02 C 87.98 28.28 85.73 29.81 83.60 31.48 C 83.15 31.85 82.25 32.57 81.80 32.94 C 80.53 33.77 79.54 32.81 78.52 32.31 C 79.27 30.88 80.00 29.44 80.72 27.99 C 80.44 27.61 79.89 26.83 79.61 26.44 C 80.92 24.88 82.19 23.28 83.50 21.73 Z" />
<path fill="#4e2918" opacity="1.00" d=" M 40.26 25.27 C 41.43 25.51 42.60 25.75 43.77 25.98 C 40.59 28.47 36.88 30.57 34.62 34.01 C 33.84 38.11 34.42 42.32 34.37 46.46 C 36.96 48.34 39.75 47.58 42.18 45.86 C 41.86 46.41 41.23 47.50 40.91 48.05 C 38.08 49.53 35.27 51.06 32.61 52.85 C 32.38 54.27 32.18 55.71 31.82 57.11 C 31.51 56.41 30.88 55.01 30.57 54.31 C 29.56 55.51 28.55 56.72 27.50 57.89 C 27.22 57.78 26.67 57.55 26.40 57.43 C 28.21 54.67 31.18 52.87 32.81 50.01 C 34.64 44.89 32.71 39.27 34.02 34.09 C 35.90 30.90 39.21 28.97 41.97 26.64 C 41.54 26.30 40.69 25.62 40.26 25.27 M 33.94 49.67 C 35.16 50.39 36.47 48.38 35.45 47.47 C 34.25 46.66 33.08 48.80 33.94 49.67 Z" />
<path fill="#4e2918" opacity="1.00" d=" M 73.43 32.31 C 73.97 32.30 75.05 32.27 75.60 32.26 C 75.99 32.49 76.79 32.96 77.18 33.19 C 73.91 32.77 71.20 34.45 69.00 36.70 C 70.38 39.26 70.67 42.12 70.55 44.98 C 72.47 44.47 74.43 43.94 76.07 42.75 C 78.28 41.12 80.79 39.97 83.43 39.25 C 84.06 40.07 84.74 40.86 85.43 41.63 C 82.84 39.32 79.59 41.06 77.29 42.84 C 75.25 44.52 72.66 45.04 70.15 45.56 C 68.86 48.29 67.37 50.96 66.62 53.91 C 66.14 57.20 66.50 60.55 66.51 63.86 C 69.21 62.51 71.97 61.29 74.66 59.93 C 74.23 63.17 74.58 66.54 73.56 69.69 C 72.06 71.48 69.46 71.31 67.40 71.91 C 67.39 72.37 67.38 73.30 67.37 73.76 C 67.20 73.48 66.86 72.92 66.70 72.64 L 66.10 71.70 C 63.47 71.32 60.82 71.22 58.19 70.86 C 57.25 70.27 56.30 69.72 55.32 69.20 C 58.63 67.30 62.11 65.74 65.61 64.23 C 65.71 61.46 65.64 58.69 65.77 55.92 C 66.02 50.74 70.45 46.64 69.78 41.30 C 69.70 39.71 68.91 38.28 68.37 36.82 C 70.01 35.26 71.69 33.75 73.43 32.31 M 65.27 66.02 C 64.54 67.48 64.04 69.04 63.55 70.59 C 65.54 70.60 67.54 70.62 69.53 70.64 C 70.79 69.77 72.05 68.91 73.33 68.08 C 73.33 66.09 73.34 64.11 73.35 62.12 C 70.65 63.42 67.79 64.41 65.27 66.02 M 57.86 69.27 C 59.72 71.26 64.65 70.62 62.69 67.04 C 61.07 67.77 59.46 68.50 57.86 69.27 Z" />
<path fill="#4e2918" opacity="1.00" d=" M 90.82 44.50 C 95.34 46.98 98.94 50.88 102.09 54.90 C 101.93 55.13 101.60 55.57 101.44 55.79 C 100.22 54.37 98.99 52.96 97.77 51.53 C 97.54 53.08 97.01 54.50 96.16 55.79 C 96.11 53.98 96.13 52.17 96.23 50.36 C 94.37 48.46 92.39 46.65 90.82 44.50 Z" />
<path fill="#4e2918" opacity="1.00" d=" M 114.92 52.48 C 118.69 50.95 122.35 49.10 126.35 48.24 C 126.77 48.13 127.60 47.91 128.02 47.80 C 127.87 48.18 127.57 48.92 127.42 49.30 C 124.17 50.14 121.04 51.33 117.99 52.71 C 117.79 53.73 117.39 55.77 117.20 56.79 C 120.29 56.55 123.38 56.37 126.48 56.24 C 126.69 54.55 126.92 52.87 127.16 51.19 C 127.35 51.74 127.73 52.83 127.92 53.38 C 127.50 54.72 127.04 56.04 126.66 57.39 C 124.24 57.45 121.83 57.57 119.42 57.65 C 117.94 57.66 116.47 57.64 115.00 57.52 C 114.74 57.18 114.20 56.51 113.93 56.18 C 114.52 56.24 115.70 56.35 116.29 56.41 C 116.08 55.82 115.66 54.65 115.46 54.06 C 114.61 54.36 113.86 54.83 113.21 55.47 C 112.46 55.53 110.95 55.66 110.20 55.72 C 111.69 54.52 113.22 53.35 114.92 52.48 Z" />
<path fill="#4e2918" opacity="1.00" d=" M 38.11 62.20 C 38.90 59.16 39.77 56.12 41.09 53.26 C 42.25 56.53 43.61 59.77 45.65 62.61 C 46.66 63.90 47.73 65.14 48.81 66.37 C 48.80 66.97 48.79 68.15 48.78 68.74 C 45.31 67.67 41.84 66.43 38.88 64.26 C 42.00 65.36 45.03 66.66 48.13 67.83 C 47.27 66.47 46.41 65.11 45.54 63.76 C 44.92 64.06 43.69 64.67 43.08 64.98 C 43.22 63.75 43.36 62.52 43.50 61.29 C 42.55 59.23 41.65 57.16 40.76 55.09 C 39.88 57.46 39.07 59.86 38.11 62.20 Z" />
<path fill="#4e2918" opacity="1.00" d=" M 133.38 53.86 C 135.18 55.48 136.97 57.11 138.83 58.66 C 140.67 60.10 142.62 61.38 144.54 62.72 C 145.50 63.42 146.45 64.13 147.38 64.88 C 147.28 65.27 147.06 66.07 146.96 66.47 C 141.76 66.62 136.54 66.52 131.40 65.73 C 131.55 63.04 131.51 60.27 132.38 57.69 C 132.14 60.19 132.01 62.70 131.87 65.21 C 136.70 65.57 141.56 65.74 146.41 65.66 C 144.70 64.33 142.95 63.03 141.26 61.68 C 140.91 62.57 140.20 64.34 139.85 65.23 C 139.49 63.62 139.26 61.99 139.04 60.36 C 137.06 58.63 135.04 56.96 133.10 55.19 C 133.17 54.86 133.31 54.20 133.38 53.86 Z" />
<path fill="#4e2918" opacity="1.00" d=" M 165.19 57.64 C 166.54 56.79 167.92 56.00 169.32 55.24 C 169.77 55.20 170.66 55.12 171.10 55.08 C 170.76 55.36 170.10 55.90 169.76 56.18 C 167.35 58.01 164.72 59.52 162.14 61.12 C 162.01 62.66 161.86 64.20 161.72 65.74 C 161.16 64.53 160.48 63.40 159.68 62.34 C 157.79 63.55 155.93 64.79 154.10 66.09 C 159.56 66.38 165.11 66.77 170.51 65.62 C 170.48 63.22 170.48 60.83 170.42 58.43 C 171.34 61.04 171.36 63.83 171.43 66.56 C 166.56 67.50 161.60 67.01 156.68 67.18 C 155.19 67.01 153.94 66.16 152.72 65.37 C 156.79 62.66 161.12 60.36 165.19 57.64 Z" />
<path fill="#4e2918" opacity="1.00" d=" M 28.62 58.36 C 31.34 58.52 34.05 58.23 36.67 57.49 C 36.64 57.88 36.58 58.66 36.55 59.04 C 33.91 59.02 31.08 59.64 28.62 58.36 Z" />
<path fill="#4e2918" opacity="1.00" d=" M 96.81 62.73 C 103.51 62.43 111.03 63.75 116.56 58.97 C 116.46 59.39 116.25 60.23 116.14 60.65 C 115.54 61.19 114.92 61.69 114.28 62.18 C 109.33 64.46 103.75 63.67 98.47 63.64 C 97.91 63.34 97.36 63.04 96.81 62.73 Z" />
<path fill="#4e2918" opacity="1.00" d=" M 146.64 74.43 C 148.66 73.73 150.69 73.00 152.75 72.41 C 152.66 72.71 152.48 73.31 152.39 73.61 C 152.02 73.92 151.27 74.53 150.89 74.83 C 149.48 74.62 148.06 74.47 146.64 74.43 Z" />
<path fill="#4e2918" opacity="1.00" d=" M 45.94 77.09 C 47.85 73.89 51.83 73.96 54.80 75.66 C 56.00 76.81 57.12 78.04 58.26 79.25 C 58.07 79.37 57.69 79.61 57.50 79.73 C 56.87 79.16 56.23 78.58 55.60 78.00 C 53.91 76.16 51.54 75.50 49.10 75.55 C 48.45 76.12 47.79 76.69 47.12 77.24 L 45.94 77.09 Z" />
</g>
<g id="#d8aaacfe">
<path fill="#d8aaac" opacity="1.00" d=" M 58.36 22.67 C 61.21 24.88 64.06 27.11 66.21 30.05 C 68.02 30.73 70.06 30.39 71.87 31.15 C 67.53 30.81 63.01 29.59 58.82 31.40 C 55.30 29.66 57.01 25.34 58.36 22.67 Z" />
</g>
<g id="#d3a5a8ff">
<path fill="#d3a5a8" opacity="1.00" d=" M 129.19 23.29 C 130.30 23.40 131.42 23.52 132.53 23.63 C 135.44 26.88 138.80 30.03 140.27 34.22 C 140.16 35.84 139.24 37.10 138.00 38.08 C 133.29 42.14 130.42 47.80 127.92 53.38 C 127.73 52.83 127.35 51.74 127.16 51.19 C 127.22 50.72 127.35 49.77 127.42 49.30 C 127.57 48.92 127.87 48.18 128.02 47.80 C 127.60 47.91 126.77 48.13 126.35 48.24 C 128.37 44.25 128.56 39.70 129.50 35.40 C 130.42 31.39 129.93 27.28 129.19 23.29 Z" />
</g>
<g id="#14141438">
<path fill="#141414" opacity="0.22" d=" M 159.33 27.11 C 157.82 25.60 160.39 22.90 162.00 24.27 C 161.21 25.31 160.31 26.25 159.33 27.11 Z" />
</g>
<g id="#a47d7ff8">
<path fill="#a47d7f" opacity="0.97" d=" M 180.95 26.30 C 182.19 25.31 183.34 23.94 184.98 23.67 C 187.60 23.89 190.11 24.69 192.65 25.32 L 192.84 25.37 C 194.38 27.07 195.91 28.78 197.28 30.61 C 196.98 31.84 196.71 33.07 196.46 34.31 C 194.96 31.89 193.50 29.44 191.76 27.19 C 189.23 26.09 185.76 23.68 183.42 26.28 C 181.67 27.97 180.00 29.73 178.36 31.52 C 178.28 31.08 178.12 30.20 178.04 29.77 C 178.98 28.58 179.93 27.41 180.95 26.30 Z" />
</g>
<g id="#e6babaff">
<path fill="#e6baba" opacity="1.00" d=" M 183.42 26.28 C 185.76 23.68 189.23 26.09 191.76 27.19 C 190.42 32.09 191.11 37.37 189.13 42.12 C 188.07 44.94 186.60 47.60 184.83 50.04 C 183.16 49.50 181.49 48.96 179.80 48.52 C 179.40 47.75 178.99 46.97 178.59 46.20 C 182.72 40.60 185.71 33.21 183.42 26.28 Z" />
</g>
<g id="#fef04dff">
<path fill="#fef04d" opacity="1.00" d=" M 90.38 27.02 C 91.77 26.72 93.18 26.52 94.60 26.33 C 95.43 26.26 97.10 26.12 97.93 26.05 C 95.19 28.51 93.33 31.74 91.54 34.92 C 89.93 31.88 86.75 31.40 83.60 31.48 C 85.73 29.81 87.98 28.28 90.38 27.02 Z" />
</g>
<g id="#fbceccff">
<path fill="#fbcecc" opacity="1.00" d=" M 178.36 31.52 C 180.00 29.73 181.67 27.97 183.42 26.28 C 185.71 33.21 182.72 40.60 178.59 46.20 C 178.99 46.97 179.40 47.75 179.80 48.52 C 178.90 48.35 177.11 48.00 176.21 47.83 C 172.84 42.79 174.89 35.98 178.36 31.52 Z" />
</g>
<g id="#d2a3a4ff">
<path fill="#d2a3a4" opacity="1.00" d=" M 189.13 42.12 C 191.11 37.37 190.42 32.09 191.76 27.19 C 193.50 29.44 194.96 31.89 196.46 34.31 C 195.77 38.47 195.60 42.85 193.61 46.68 C 190.40 52.95 186.11 58.71 180.84 63.39 C 180.31 59.96 179.41 56.60 178.60 53.22 C 179.46 53.14 181.20 52.98 182.07 52.90 C 181.89 52.61 181.53 52.02 181.35 51.73 C 181.26 51.38 181.09 50.69 181.00 50.35 C 181.98 50.62 182.98 50.86 183.98 51.08 L 184.83 50.04 C 186.60 47.60 188.07 44.94 189.13 42.12 Z" />
</g>
<g id="#fffefdff">
<path fill="#fffefd" opacity="1.00" d=" M 58.82 31.40 C 63.01 29.59 67.53 30.81 71.87 31.15 C 70.28 31.34 68.69 31.52 67.10 31.68 C 60.66 31.50 55.47 35.88 51.13 40.11 C 47.19 44.02 44.65 49.03 41.09 53.26 C 39.77 56.12 38.90 59.16 38.11 62.20 C 39.07 59.86 39.88 57.46 40.76 55.09 C 41.65 57.16 42.55 59.23 43.50 61.29 C 43.36 62.52 43.22 63.75 43.08 64.98 C 43.69 64.67 44.92 64.06 45.54 63.76 C 46.41 65.11 47.27 66.47 48.13 67.83 C 45.03 66.66 42.00 65.36 38.88 64.26 C 38.65 67.31 38.11 70.34 37.06 73.22 C 36.70 71.18 36.37 69.14 36.21 67.07 C 36.20 64.39 36.36 61.71 36.55 59.04 C 36.58 58.66 36.64 57.88 36.67 57.49 C 34.05 58.23 31.34 58.52 28.62 58.36 L 27.50 57.89 C 28.55 56.72 29.56 55.51 30.57 54.31 C 30.88 55.01 31.51 56.41 31.82 57.11 C 32.18 55.71 32.38 54.27 32.61 52.85 C 35.27 51.06 38.08 49.53 40.91 48.05 C 41.23 47.50 41.86 46.41 42.18 45.86 C 44.12 43.62 45.92 41.27 47.67 38.88 C 51.07 35.95 54.75 33.31 58.82 31.40 Z" />
</g>
<g id="#c08d8eff">
<path fill="#c08d8e" opacity="1.00" d=" M 172.81 41.97 C 173.27 37.44 174.73 33.02 178.04 29.77 C 178.12 30.20 178.28 31.08 178.36 31.52 C 174.89 35.98 172.84 42.79 176.21 47.83 C 176.47 48.32 176.99 49.28 177.25 49.77 C 177.46 50.30 177.88 51.38 178.09 51.91 C 176.51 59.95 172.96 67.49 168.18 74.10 C 163.03 80.16 156.50 85.25 148.98 87.98 C 146.44 89.21 144.04 87.04 141.73 86.23 C 147.03 83.96 152.47 81.76 156.93 78.00 C 160.97 75.11 163.71 70.81 167.71 67.87 C 165.20 67.90 162.69 67.87 160.19 67.79 C 159.01 67.62 157.84 67.41 156.68 67.18 C 161.60 67.01 166.56 67.50 171.43 66.56 C 171.36 63.83 171.34 61.04 170.42 58.43 C 170.26 57.87 169.93 56.74 169.76 56.18 C 170.10 55.90 170.76 55.36 171.10 55.08 C 170.66 55.12 169.77 55.20 169.32 55.24 C 173.11 51.35 170.82 45.38 171.53 40.53 C 171.85 40.89 172.49 41.61 172.81 41.97 Z" />
</g>
<g id="#ffd9d5ff">
<path fill="#ffd9d5" opacity="1.00" d=" M 71.87 31.15 C 72.42 31.31 73.51 31.62 74.06 31.78 L 73.43 32.31 C 71.69 33.75 70.01 35.26 68.37 36.82 C 68.91 38.28 69.70 39.71 69.78 41.30 C 63.94 46.48 63.16 55.21 57.87 60.87 C 55.56 63.32 52.86 65.35 50.23 67.43 C 49.88 67.17 49.17 66.64 48.81 66.37 C 47.73 65.14 46.66 63.90 45.65 62.61 C 56.99 55.84 61.29 42.75 67.10 31.68 C 68.69 31.52 70.28 31.34 71.87 31.15 Z" />
</g>
<g id="#c08d8dff">
<path fill="#c08d8d" opacity="1.00" d=" M 197.28 30.61 C 199.43 34.46 201.45 38.39 202.63 42.67 C 202.03 42.63 200.83 42.55 200.23 42.51 C 197.85 53.38 190.75 63.06 181.26 68.80 L 180.69 68.98 C 180.75 67.11 180.83 65.25 180.84 63.39 C 186.11 58.71 190.40 52.95 193.61 46.68 C 195.60 42.85 195.77 38.47 196.46 34.31 C 196.71 33.07 196.98 31.84 197.28 30.61 Z" />
</g>
<g id="#ffe5e4ff">
<path fill="#ffe5e4" opacity="1.00" d=" M 51.13 40.11 C 55.47 35.88 60.66 31.50 67.10 31.68 C 61.29 42.75 56.99 55.84 45.65 62.61 C 43.61 59.77 42.25 56.53 41.09 53.26 C 44.65 49.03 47.19 44.02 51.13 40.11 Z" />
</g>
<g id="#ffd33aff">
<path fill="#ffd33a" opacity="1.00" d=" M 81.80 32.94 C 82.25 32.57 83.15 31.85 83.60 31.48 C 86.75 31.40 89.93 31.88 91.54 34.92 C 90.60 36.70 89.79 38.54 89.00 40.40 C 87.19 39.22 85.27 38.23 83.29 37.39 C 82.79 35.91 82.31 34.42 81.80 32.94 Z" />
</g>
<g id="#ffe7e5ff">
<path fill="#ffe7e5" opacity="1.00" d=" M 145.90 34.88 C 148.82 32.71 152.56 32.36 156.06 31.93 C 154.34 32.93 152.57 34.19 152.48 36.37 C 151.43 42.65 148.77 48.48 146.05 54.19 C 144.79 57.06 141.56 57.86 138.83 58.66 C 136.97 57.11 135.18 55.48 133.38 53.86 C 133.31 54.20 133.17 54.86 133.10 55.19 C 132.92 55.82 132.56 57.06 132.38 57.69 C 131.51 60.27 131.55 63.04 131.40 65.73 C 130.92 65.66 129.97 65.52 129.49 65.45 C 129.09 67.05 128.70 68.65 128.30 70.25 C 127.77 69.97 126.72 69.41 126.20 69.13 C 126.15 68.70 126.06 67.83 126.01 67.40 C 128.47 60.09 130.89 52.64 135.15 46.14 C 138.18 41.92 141.67 37.94 145.90 34.88 Z" />
</g>
<g id="#ffdad7ff">
<path fill="#ffdad7" opacity="1.00" d=" M 156.06 31.93 L 157.06 31.79 C 158.67 32.06 160.29 32.37 161.86 32.84 C 160.29 33.25 158.74 33.75 157.20 34.25 C 157.09 39.54 157.54 45.16 155.02 50.02 C 152.46 54.90 150.24 60.77 144.54 62.72 C 142.62 61.38 140.67 60.10 138.83 58.66 C 141.56 57.86 144.79 57.06 146.05 54.19 C 148.77 48.48 151.43 42.65 152.48 36.37 C 152.57 34.19 154.34 32.93 156.06 31.93 Z" />
</g>
<g id="#f9cbcaff">
<path fill="#f9cbca" opacity="1.00" d=" M 157.20 34.25 C 158.74 33.75 160.29 33.25 161.86 32.84 C 162.26 32.98 163.05 33.27 163.44 33.41 C 162.67 34.31 161.90 35.20 161.13 36.10 C 161.08 40.88 161.58 45.74 160.58 50.45 C 158.81 57.09 153.91 62.27 148.72 66.51 C 148.27 65.96 147.83 65.41 147.38 64.88 C 146.45 64.13 145.50 63.42 144.54 62.72 C 150.24 60.77 152.46 54.90 155.02 50.02 C 157.54 45.16 157.09 39.54 157.20 34.25 Z" />
</g>
<g id="#eec2c4ff">
<path fill="#eec2c4" opacity="1.00" d=" M 69.00 36.70 C 71.20 34.45 73.91 32.77 77.18 33.19 C 75.81 36.21 74.48 39.52 76.07 42.75 C 74.43 43.94 72.47 44.47 70.55 44.98 C 70.67 42.12 70.38 39.26 69.00 36.70 Z" />
</g>
<g id="#dcafb1ff">
<path fill="#dcafb1" opacity="1.00" d=" M 77.18 33.19 C 77.86 33.51 79.21 34.15 79.89 34.47 C 81.11 36.03 82.27 37.64 83.43 39.25 C 80.79 39.97 78.28 41.12 76.07 42.75 C 74.48 39.52 75.81 36.21 77.18 33.19 Z" />
</g>
<g id="#e7babbff">
<path fill="#e7babb" opacity="1.00" d=" M 163.44 33.41 C 164.82 34.33 166.18 35.29 167.47 36.34 C 167.36 43.51 166.58 50.60 165.19 57.64 C 161.12 60.36 156.79 62.66 152.72 65.37 C 153.94 66.16 155.19 67.01 156.68 67.18 C 157.84 67.41 159.01 67.62 160.19 67.79 C 157.40 69.46 154.89 71.55 152.39 73.61 C 152.48 73.31 152.66 72.71 152.75 72.41 C 150.69 73.00 148.66 73.73 146.64 74.43 C 148.06 74.47 149.48 74.62 150.89 74.83 C 151.08 75.10 151.47 75.64 151.66 75.91 C 146.64 79.18 140.64 80.36 135.42 83.24 C 132.42 80.67 132.56 76.79 133.30 73.23 C 134.37 73.74 135.45 74.25 136.53 74.77 C 140.66 73.02 144.69 70.48 146.96 66.47 C 147.06 66.07 147.28 65.27 147.38 64.88 C 147.83 65.41 148.27 65.96 148.72 66.51 C 153.91 62.27 158.81 57.09 160.58 50.45 C 161.58 45.74 161.08 40.88 161.13 36.10 C 161.90 35.20 162.67 34.31 163.44 33.41 Z" />
</g>
<g id="#d3a5a6ff">
<path fill="#d3a5a6" opacity="1.00" d=" M 165.19 57.64 C 166.58 50.60 167.36 43.51 167.47 36.34 C 168.88 37.68 170.23 39.09 171.53 40.53 C 170.82 45.38 173.11 51.35 169.32 55.24 C 167.92 56.00 166.54 56.79 165.19 57.64 Z" />
</g>
<g id="#cb9a9cff">
<path fill="#cb9a9c" opacity="1.00" d=" M 77.29 42.84 C 79.59 41.06 82.84 39.32 85.43 41.63 C 85.89 42.13 86.33 42.65 86.76 43.17 C 84.72 48.01 85.29 53.46 83.20 58.27 C 81.33 62.73 78.92 66.98 75.80 70.69 C 72.41 74.66 69.93 79.66 65.07 82.08 C 60.11 85.62 54.31 87.43 48.53 89.12 C 46.32 87.69 44.35 85.94 42.56 84.01 C 47.38 83.21 52.17 81.66 55.60 78.00 C 56.23 78.58 56.87 79.16 57.50 79.73 C 57.69 79.61 58.07 79.37 58.26 79.25 C 61.19 77.20 63.92 74.88 66.70 72.64 C 66.86 72.92 67.20 73.48 67.37 73.76 C 67.38 73.30 67.39 72.37 67.40 71.91 C 69.46 71.31 72.06 71.48 73.56 69.69 C 74.58 66.54 74.23 63.17 74.66 59.93 L 74.75 59.45 C 74.19 59.19 73.07 58.68 72.52 58.42 C 74.06 53.22 77.15 48.38 77.29 42.84 Z" />
</g>
<g id="#f5c9c8ff">
<path fill="#f5c9c8" opacity="1.00" d=" M 57.87 60.87 C 63.16 55.21 63.94 46.48 69.78 41.30 C 70.45 46.64 66.02 50.74 65.77 55.92 C 65.64 58.69 65.71 61.46 65.61 64.23 C 62.11 65.74 58.63 67.30 55.32 69.20 C 56.30 69.72 57.25 70.27 58.19 70.86 C 57.08 72.47 55.94 74.07 54.80 75.66 C 51.83 73.96 47.85 73.89 45.94 77.09 C 43.17 75.95 41.17 77.83 39.85 80.15 C 39.19 78.95 38.58 77.72 38.02 76.47 C 37.66 75.40 37.36 74.31 37.06 73.22 C 38.11 70.34 38.65 67.31 38.88 64.26 C 41.84 66.43 45.31 67.67 48.78 68.74 C 48.79 68.15 48.80 66.97 48.81 66.37 C 49.17 66.64 49.88 67.17 50.23 67.43 C 52.86 65.35 55.56 63.32 57.87 60.87 Z" />
</g>
<g id="#ac7475ff">
<path fill="#ac7475" opacity="1.00" d=" M 200.23 42.51 C 200.83 42.55 202.03 42.63 202.63 42.67 C 204.50 49.12 203.98 56.05 201.96 62.40 C 201.33 61.06 200.72 59.73 200.10 58.39 C 194.95 66.43 187.55 72.84 178.82 76.74 C 182.23 76.52 185.65 76.38 189.07 76.12 C 185.46 77.60 181.67 78.69 177.74 78.65 C 176.94 79.92 176.16 81.19 175.38 82.46 C 175.31 81.41 175.25 80.37 175.20 79.32 C 176.97 77.03 179.13 74.24 177.36 71.28 C 171.62 79.26 164.86 87.51 155.12 90.55 C 157.27 90.96 159.42 91.41 161.59 91.76 C 153.85 93.92 145.39 92.66 138.31 88.97 L 138.30 88.57 C 138.29 88.17 138.27 87.37 138.26 86.98 C 137.87 86.43 137.11 85.32 136.73 84.77 C 138.40 85.21 140.10 85.63 141.73 86.23 C 144.04 87.04 146.44 89.21 148.98 87.98 C 156.50 85.25 163.03 80.16 168.18 74.10 C 172.96 67.49 176.51 59.95 178.09 51.91 C 178.91 51.87 180.54 51.77 181.35 51.73 C 181.53 52.02 181.89 52.61 182.07 52.90 C 181.20 52.98 179.46 53.14 178.60 53.22 C 179.41 56.60 180.31 59.96 180.84 63.39 C 180.83 65.25 180.75 67.11 180.69 68.98 C 180.25 70.67 181.99 72.53 183.70 71.93 C 183.94 70.46 182.23 69.56 181.26 68.80 C 190.75 63.06 197.85 53.38 200.23 42.51 Z" />
</g>
<g id="#e8bab9ff">
<path fill="#e8bab9" opacity="1.00" d=" M 70.15 45.56 C 72.66 45.04 75.25 44.52 77.29 42.84 C 77.15 48.38 74.06 53.22 72.52 58.42 C 73.07 58.68 74.19 59.19 74.75 59.45 L 74.66 59.93 C 71.97 61.29 69.21 62.51 66.51 63.86 C 66.50 60.55 66.14 57.20 66.62 53.91 C 67.37 50.96 68.86 48.29 70.15 45.56 Z" />
</g>
<g id="#b88384ff">
<path fill="#b88384" opacity="1.00" d=" M 83.20 58.27 C 85.29 53.46 84.72 48.01 86.76 43.17 C 87.71 45.07 88.52 47.02 89.32 48.99 C 89.66 48.56 90.33 47.72 90.66 47.30 C 90.63 49.39 90.64 51.48 90.81 53.57 C 87.91 56.79 88.06 61.38 86.06 65.05 C 80.73 74.95 72.74 83.60 62.71 88.83 C 60.73 89.82 58.52 90.14 56.38 90.58 C 56.81 90.91 57.67 91.57 58.10 91.89 C 57.55 91.95 56.45 92.07 55.90 92.13 C 53.31 91.49 50.84 90.44 48.53 89.12 C 54.31 87.43 60.11 85.62 65.07 82.08 C 69.93 79.66 72.41 74.66 75.80 70.69 C 78.92 66.98 81.33 62.73 83.20 58.27 Z" />
</g>
<g id="#80696aff">
<path fill="#80696a" opacity="1.00" d=" M 176.21 47.83 C 177.11 48.00 178.90 48.35 179.80 48.52 C 181.49 48.96 183.16 49.50 184.83 50.04 L 183.98 51.08 C 182.98 50.86 181.98 50.62 181.00 50.35 C 179.78 49.97 178.53 49.77 177.25 49.77 C 176.99 49.28 176.47 48.32 176.21 47.83 Z" />
</g>
<g id="#d7d7dfff">
<path fill="#d7d7df" opacity="1.00" d=" M 117.99 52.71 C 121.04 51.33 124.17 50.14 127.42 49.30 C 127.35 49.77 127.22 50.72 127.16 51.19 C 126.92 52.87 126.69 54.55 126.48 56.24 C 123.38 56.37 120.29 56.55 117.20 56.79 C 117.39 55.77 117.79 53.73 117.99 52.71 Z" />
</g>
<g id="#e8e3e6ff">
<path fill="#e8e3e6" opacity="1.00" d=" M 177.25 49.77 C 178.53 49.77 179.78 49.97 181.00 50.35 C 181.09 50.69 181.26 51.38 181.35 51.73 C 180.54 51.77 178.91 51.87 178.09 51.91 C 177.88 51.38 177.46 50.30 177.25 49.77 Z" />
</g>
<g id="#f0c5c7ff">
<path fill="#f0c5c7" opacity="1.00" d=" M 17.45 50.77 L 18.47 51.58 C 18.62 52.26 18.91 53.64 19.06 54.33 C 19.24 54.39 19.59 54.53 19.76 54.59 C 21.35 56.35 23.37 57.60 25.52 58.54 C 25.81 58.17 26.10 57.80 26.40 57.43 C 26.67 57.55 27.22 57.78 27.50 57.89 L 28.62 58.36 C 31.08 59.64 33.91 59.02 36.55 59.04 C 36.36 61.71 36.20 64.39 36.21 67.07 C 35.71 66.96 34.71 66.74 34.21 66.64 C 30.28 64.50 26.09 62.49 21.48 63.31 C 21.22 64.08 20.70 65.61 20.44 66.37 C 20.06 65.58 19.69 64.78 19.34 63.97 C 18.81 62.28 18.36 60.55 17.73 58.89 C 18.64 58.82 19.51 58.56 20.33 58.18 C 19.46 57.37 18.53 56.65 17.57 55.96 C 17.43 54.24 17.42 52.50 17.45 50.77 Z" />
</g>
<g id="#a2676aff">
<path fill="#a2676a" opacity="1.00" d=" M 86.06 65.05 C 88.06 61.38 87.91 56.79 90.81 53.57 C 91.00 54.11 91.38 55.19 91.57 55.73 C 94.60 56.09 97.64 56.29 100.69 56.41 C 100.25 56.77 99.36 57.49 98.92 57.85 C 96.56 57.60 94.19 57.35 91.83 57.08 C 92.59 60.89 92.85 64.80 92.41 68.66 C 92.11 70.15 91.72 71.62 91.35 73.09 C 92.54 74.29 93.74 75.48 94.99 76.61 C 93.72 75.91 92.35 75.40 90.98 74.93 C 87.96 83.09 81.44 90.14 72.92 92.52 C 67.34 93.77 61.33 94.26 55.90 92.13 C 56.45 92.07 57.55 91.95 58.10 91.89 C 57.67 91.57 56.81 90.91 56.38 90.58 C 58.52 90.14 60.73 89.82 62.71 88.83 C 72.74 83.60 80.73 74.95 86.06 65.05 Z" />
</g>
<g id="#ffffffff">
<path fill="#ffffff" opacity="1.00" d=" M 113.21 55.47 C 113.86 54.83 114.61 54.36 115.46 54.06 C 115.66 54.65 116.08 55.82 116.29 56.41 C 115.70 56.35 114.52 56.24 113.93 56.18 L 113.21 55.47 Z" />
<path fill="#ffffff" opacity="1.00" d=" M 133.10 55.19 C 135.04 56.96 137.06 58.63 139.04 60.36 C 139.26 61.99 139.49 63.62 139.85 65.23 C 140.20 64.34 140.91 62.57 141.26 61.68 C 142.95 63.03 144.70 64.33 146.41 65.66 C 141.56 65.74 136.70 65.57 131.87 65.21 C 132.01 62.70 132.14 60.19 132.38 57.69 C 132.56 57.06 132.92 55.82 133.10 55.19 Z" />
<path fill="#ffffff" opacity="1.00" d=" M 57.86 69.27 C 59.46 68.50 61.07 67.77 62.69 67.04 C 64.65 70.62 59.72 71.26 57.86 69.27 Z" />
</g>
<g id="#625e5ea8">
<path fill="#625e5e" opacity="0.66" d=" M 17.57 55.96 C 18.53 56.65 19.46 57.37 20.33 58.18 C 19.51 58.56 18.64 58.82 17.73 58.89 C 16.50 58.02 16.45 57.05 17.57 55.96 Z" />
</g>
<g id="#b7b9c0ff">
<path fill="#b7b9c0" opacity="1.00" d=" M 162.14 61.12 C 164.72 59.52 167.35 58.01 169.76 56.18 C 169.93 56.74 170.26 57.87 170.42 58.43 C 170.48 60.83 170.48 63.22 170.51 65.62 C 165.11 66.77 159.56 66.38 154.10 66.09 C 155.93 64.79 157.79 63.55 159.68 62.34 C 160.48 63.40 161.16 64.53 161.72 65.74 C 161.86 64.20 162.01 62.66 162.14 61.12 Z" />
</g>
<g id="#cf9fa0ff">
<path fill="#cf9fa0" opacity="1.00" d=" M 119.42 57.65 C 121.83 57.57 124.24 57.45 126.66 57.39 C 126.12 60.70 126.01 64.06 126.01 67.40 C 125.68 67.13 125.03 66.60 124.70 66.33 C 119.80 70.77 114.20 74.32 108.29 77.25 C 105.26 78.45 101.97 78.82 98.89 79.89 C 97.58 78.81 96.24 77.76 94.99 76.61 C 93.74 75.48 92.54 74.29 91.35 73.09 C 99.27 72.75 106.77 69.73 113.24 65.28 C 114.52 64.67 114.47 63.37 114.28 62.18 C 114.92 61.69 115.54 61.19 116.14 60.65 C 117.25 59.67 118.34 58.66 119.42 57.65 Z" />
</g>
<g id="#9b5f63ff">
<path fill="#9b5f63" opacity="1.00" d=" M 178.82 76.74 C 187.55 72.84 194.95 66.43 200.10 58.39 C 200.72 59.73 201.33 61.06 201.96 62.40 C 199.57 68.30 195.01 73.71 189.07 76.12 C 185.65 76.38 182.23 76.52 178.82 76.74 Z" />
</g>
<g id="#755f5fe8">
<path fill="#755f5f" opacity="0.91" d=" M 21.48 63.31 C 26.09 62.49 30.28 64.50 34.21 66.64 C 34.37 67.34 34.69 68.74 34.85 69.44 C 34.13 69.06 33.40 68.68 32.67 68.30 C 29.19 66.20 24.45 63.09 20.86 66.82 C 21.15 67.59 21.74 69.13 22.03 69.90 C 20.74 68.12 19.72 66.15 19.34 63.97 C 19.69 64.78 20.06 65.58 20.44 66.37 C 20.70 65.61 21.22 64.08 21.48 63.31 Z" />
</g>
<g id="#cacbd4ff">
<path fill="#cacbd4" opacity="1.00" d=" M 65.27 66.02 C 67.79 64.41 70.65 63.42 73.35 62.12 C 73.34 64.11 73.33 66.09 73.33 68.08 C 72.05 68.91 70.79 69.77 69.53 70.64 C 67.54 70.62 65.54 70.60 63.55 70.59 C 64.04 69.04 64.54 67.48 65.27 66.02 Z" />
</g>
<g id="#e1b5b6ff">
<path fill="#e1b5b6" opacity="1.00" d=" M 98.47 63.64 C 103.75 63.67 109.33 64.46 114.28 62.18 C 114.47 63.37 114.52 64.67 113.24 65.28 C 106.77 69.73 99.27 72.75 91.35 73.09 C 91.72 71.62 92.11 70.15 92.41 68.66 C 96.67 66.69 101.31 65.80 105.96 65.45 C 103.40 65.21 100.71 65.07 98.47 63.64 Z" />
</g>
<g id="#e1b6b8fe">
<path fill="#e1b6b8" opacity="1.00" d=" M 20.86 66.82 C 24.45 63.09 29.19 66.20 32.67 68.30 C 30.62 71.35 26.78 71.56 23.53 72.38 C 23.16 71.76 22.40 70.52 22.03 69.90 C 21.74 69.13 21.15 67.59 20.86 66.82 Z" />
</g>
<g id="#f6cdcbff">
<path fill="#f6cdcb" opacity="1.00" d=" M 129.49 65.45 C 129.97 65.52 130.92 65.66 131.40 65.73 C 136.54 66.52 141.76 66.62 146.96 66.47 C 144.69 70.48 140.66 73.02 136.53 74.77 C 135.45 74.25 134.37 73.74 133.30 73.23 C 132.56 76.79 132.42 80.67 135.42 83.24 C 135.75 83.63 136.40 84.39 136.73 84.77 C 137.11 85.32 137.87 86.43 138.26 86.98 C 138.27 87.37 138.29 88.17 138.30 88.57 C 135.53 86.79 133.01 84.60 131.14 81.87 C 129.53 79.70 128.22 77.32 127.21 74.82 C 126.72 72.95 126.42 71.04 126.20 69.13 C 126.72 69.41 127.77 69.97 128.30 70.25 C 128.70 68.65 129.09 67.05 129.49 65.45 Z" />
</g>
<g id="#b57f80ff">
<path fill="#b57f80" opacity="1.00" d=" M 108.29 77.25 C 114.20 74.32 119.80 70.77 124.70 66.33 C 125.03 66.60 125.68 67.13 126.01 67.40 C 126.06 67.83 126.15 68.70 126.20 69.13 C 126.42 71.04 126.72 72.95 127.21 74.82 C 124.12 78.14 119.95 80.06 116.43 82.83 C 118.68 83.10 120.93 83.33 123.19 83.49 C 120.29 83.54 117.37 83.83 114.63 84.83 L 114.02 85.02 C 108.69 84.47 103.22 83.21 98.89 79.89 C 101.97 78.82 105.26 78.45 108.29 77.25 Z" />
</g>
<g id="#d4a5a7ff">
<path fill="#d4a5a7" opacity="1.00" d=" M 34.21 66.64 C 34.71 66.74 35.71 66.96 36.21 67.07 C 36.37 69.14 36.70 71.18 37.06 73.22 C 33.56 73.57 30.20 74.67 26.96 75.98 C 25.80 74.79 24.68 73.57 23.53 72.38 C 26.78 71.56 30.62 71.35 32.67 68.30 C 33.40 68.68 34.13 69.06 34.85 69.44 C 34.69 68.74 34.37 67.34 34.21 66.64 Z" />
</g>
<g id="#cf9fa1ff">
<path fill="#cf9fa1" opacity="1.00" d=" M 160.19 67.79 C 162.69 67.87 165.20 67.90 167.71 67.87 C 163.71 70.81 160.97 75.11 156.93 78.00 C 152.47 81.76 147.03 83.96 141.73 86.23 C 140.10 85.63 138.40 85.21 136.73 84.77 C 136.40 84.39 135.75 83.63 135.42 83.24 C 140.64 80.36 146.64 79.18 151.66 75.91 C 151.47 75.64 151.08 75.10 150.89 74.83 C 151.27 74.53 152.02 73.92 152.39 73.61 C 154.89 71.55 157.40 69.46 160.19 67.79 Z" />
</g>
<g id="#845759ff">
<path fill="#845759" opacity="1.00" d=" M 183.70 71.93 C 181.99 72.53 180.25 70.67 180.69 68.98 L 181.26 68.80 C 182.23 69.56 183.94 70.46 183.70 71.93 Z" />
</g>
<g id="#ddaeaeff">
<path fill="#ddaeae" opacity="1.00" d=" M 58.19 70.86 C 60.82 71.22 63.47 71.32 66.10 71.70 L 66.70 72.64 C 63.92 74.88 61.19 77.20 58.26 79.25 C 57.12 78.04 56.00 76.81 54.80 75.66 C 55.94 74.07 57.08 72.47 58.19 70.86 Z" />
</g>
<g id="#9b5e62ff">
<path fill="#9b5e62" opacity="1.00" d=" M 155.12 90.55 C 164.86 87.51 171.62 79.26 177.36 71.28 C 179.13 74.24 176.97 77.03 175.20 79.32 C 175.25 80.37 175.31 81.41 175.38 82.46 L 175.38 82.53 C 171.91 86.92 167.18 90.65 161.59 91.76 C 159.42 91.41 157.27 90.96 155.12 90.55 Z" />
</g>
<g id="#c79596ff">
<path fill="#c79596" opacity="1.00" d=" M 26.96 75.98 C 30.20 74.67 33.56 73.57 37.06 73.22 C 37.36 74.31 37.66 75.40 38.02 76.47 C 35.35 77.12 32.69 77.82 30.05 78.54 C 29.01 77.69 27.98 76.84 26.96 75.98 Z" />
</g>
<g id="#9e6365ff">
<path fill="#9e6365" opacity="1.00" d=" M 116.43 82.83 C 119.95 80.06 124.12 78.14 127.21 74.82 C 128.22 77.32 129.53 79.70 131.14 81.87 C 125.95 84.15 120.30 85.25 114.63 84.83 C 117.37 83.83 120.29 83.54 123.19 83.49 C 120.93 83.33 118.68 83.10 116.43 82.83 Z" />
</g>
<g id="#dfb2b4ff">
<path fill="#dfb2b4" opacity="1.00" d=" M 39.85 80.15 C 41.17 77.83 43.17 75.95 45.94 77.09 L 47.12 77.24 C 47.79 76.69 48.45 76.12 49.10 75.55 C 51.54 75.50 53.91 76.16 55.60 78.00 C 52.17 81.66 47.38 83.21 42.56 84.01 C 42.21 83.58 41.85 83.15 41.51 82.71 C 41.10 82.07 40.27 80.79 39.85 80.15 Z" />
</g>
</svg>
