<?xml version="1.0" encoding="UTF-8" ?>
<!DOCTYPE svg PUBLIC "-//W3C//DTD SVG 1.1//EN" "http://www.w3.org/Graphics/SVG/1.1/DTD/svg11.dtd">
<svg width="281pt" height="196pt" viewBox="0 0 281 196" version="1.1" xmlns="http://www.w3.org/2000/svg">
<g id="#b6e689f7">
<path fill="#b6e689" opacity="0.97" d=" M 64.96 5.03 C 75.18 6.40 85.25 10.76 93.18 17.41 C 89.56 20.87 84.34 17.63 80.18 17.09 C 80.08 17.57 79.88 18.53 79.78 19.01 C 74.90 14.96 71.13 9.46 65.25 6.67 C 65.17 6.26 65.03 5.44 64.96 5.03 Z" />
</g>
<g id="#596e3cee">
<path fill="#596e3c" opacity="0.93" d=" M 116.96 14.96 C 122.40 17.48 124.36 24.39 125.94 29.82 C 122.45 29.18 121.82 32.65 121.32 35.24 C 119.58 28.58 117.77 21.79 116.96 14.96 Z" />
</g>
<g id="#a7d57ff7">
<path fill="#a7d57f" opacity="0.97" d=" M 190.88 27.20 C 206.88 19.96 224.29 15.37 241.99 16.03 L 241.95 16.91 C 229.85 18.31 218.04 21.88 207.01 27.03 C 205.79 27.69 204.45 28.02 203.07 28.02 C 200.27 28.01 197.59 28.73 195.24 30.25 C 194.05 28.88 192.53 27.93 190.88 27.20 Z" />
</g>
<g id="#9dd479fc">
<path fill="#9dd479" opacity="1.00" d=" M 80.18 17.09 C 84.34 17.63 89.56 20.87 93.18 17.41 C 95.93 18.37 98.83 20.73 100.32 23.39 C 97.41 24.83 95.33 19.69 92.38 21.46 C 89.44 22.83 86.40 24.55 83.19 22.80 C 82.02 21.57 80.65 20.48 79.78 19.01 C 79.88 18.53 80.08 17.57 80.18 17.09 Z" />
</g>
<g id="#93a672ce">
<path fill="#93a672" opacity="0.81" d=" M 15.00 18.02 C 21.33 18.01 27.65 17.85 33.98 18.04 L 34.01 18.98 C 27.67 18.99 21.34 19.05 15.01 18.98 L 15.00 18.02 Z" />
</g>
<g id="#586e41c1">
<path fill="#586e41" opacity="0.76" d=" M 5.91 20.98 C 6.39 19.64 8.43 19.06 9.74 19.23 C 11.93 19.66 14.11 20.13 16.29 20.63 C 12.84 20.92 9.37 21.12 5.91 20.98 Z" />
</g>
<g id="#b6e68cfb">
<path fill="#b6e68c" opacity="1.00" d=" M 9.74 19.23 C 11.49 19.05 13.25 18.97 15.01 18.98 C 21.34 19.05 27.67 18.99 34.01 18.98 C 46.94 19.78 59.20 24.07 71.08 28.96 C 71.67 30.12 72.22 31.37 71.01 32.38 C 58.34 28.06 45.53 23.10 31.96 22.96 C 26.52 23.76 21.58 21.18 16.29 20.63 C 14.11 20.13 11.93 19.66 9.74 19.23 Z" />
</g>
<g id="#68a963fb">
<path fill="#68a963" opacity="1.00" d=" M 92.38 21.46 C 95.33 19.69 97.41 24.83 100.32 23.39 C 104.21 25.72 107.76 30.21 110.26 34.42 C 103.47 35.38 96.75 29.72 90.03 32.00 C 87.46 29.49 84.82 26.08 83.19 22.80 C 86.40 24.55 89.44 22.83 92.38 21.46 Z" />
</g>
<g id="#709052f7">
<path fill="#709052" opacity="0.97" d=" M 31.96 22.96 C 45.53 23.10 58.34 28.06 71.01 32.38 C 71.74 32.85 72.46 33.33 73.19 33.80 C 69.81 33.88 66.45 34.05 63.07 34.08 C 53.46 28.97 42.83 25.82 32.15 23.82 L 31.96 22.96 Z" />
</g>
<g id="#c9ef99f8">
<path fill="#c9ef99" opacity="0.97" d=" M 228.36 26.55 C 231.08 25.97 233.98 25.80 236.75 26.26 C 239.79 26.71 242.90 27.07 245.99 27.02 C 247.42 27.03 248.85 27.12 250.27 27.31 C 243.84 28.77 237.05 26.85 230.73 28.72 C 223.59 30.41 216.27 31.27 208.98 32.00 C 206.26 31.98 203.54 31.97 200.83 31.96 L 201.21 31.22 C 209.82 27.63 219.28 28.01 228.36 26.55 Z" />
</g>
<g id="#505b3c95">
<path fill="#505b3c" opacity="0.58" d=" M 236.75 26.26 C 239.19 26.97 245.06 24.44 245.99 27.02 C 242.90 27.07 239.79 26.71 236.75 26.26 Z" />
</g>
<g id="#7fca77fa">
<path fill="#7fca77" opacity="0.98" d=" M 185.11 29.36 C 187.41 30.28 188.94 27.90 190.88 27.20 C 192.53 27.93 194.05 28.88 195.24 30.25 C 190.25 32.09 185.27 34.03 180.22 35.72 C 179.87 35.33 179.17 34.54 178.81 34.14 C 180.29 33.37 181.78 32.61 183.16 31.65 C 183.44 31.31 184.02 30.61 184.31 30.27 C 184.51 30.04 184.91 29.58 185.11 29.36 Z" />
</g>
<g id="#abda7efa">
<path fill="#abda7e" opacity="0.98" d=" M 250.27 27.31 C 251.95 27.16 253.53 28.05 255.16 28.35 C 254.87 28.52 254.28 28.86 253.99 29.04 C 246.23 29.04 238.47 29.09 230.73 28.72 C 237.05 26.85 243.84 28.77 250.27 27.31 Z" />
</g>
<g id="#ccd99bea">
<path fill="#ccd99b" opacity="0.92" d=" M 168.14 30.25 C 173.43 29.10 179.87 27.44 185.11 29.36 C 184.91 29.58 184.51 30.04 184.31 30.27 C 178.92 29.64 173.54 30.16 168.24 31.19 L 168.14 30.25 Z" />
</g>
<g id="#6cab63f5">
<path fill="#6cab63" opacity="0.96" d=" M 195.24 30.25 C 197.59 28.73 200.27 28.01 203.07 28.02 C 202.26 29.63 196.20 30.75 201.21 31.22 L 200.83 31.96 C 190.60 32.46 181.49 37.44 172.72 42.26 C 170.80 43.15 169.02 44.30 167.20 45.38 C 166.60 45.08 165.41 44.48 164.81 44.18 C 169.44 40.81 173.55 36.58 178.81 34.14 C 179.17 34.54 179.87 35.33 180.22 35.72 C 185.27 34.03 190.25 32.09 195.24 30.25 Z" />
</g>
<g id="#99c174f8">
<path fill="#99c174" opacity="0.97" d=" M 255.16 28.35 L 255.78 28.36 C 263.48 29.33 271.26 28.96 279.01 29.01 L 278.99 29.98 C 270.64 29.96 262.28 30.16 253.94 29.94 L 253.99 29.04 C 254.28 28.86 254.87 28.52 255.16 28.35 Z" />
</g>
<g id="#191f1255">
<path fill="#191f12" opacity="0.33" d=" M 255.78 28.36 C 263.82 27.82 271.91 27.89 279.98 28.04 C 279.74 28.29 279.25 28.77 279.01 29.01 C 271.26 28.96 263.48 29.33 255.78 28.36 Z" />
</g>
<g id="#7dc271f6">
<path fill="#7dc271" opacity="0.96" d=" M 71.08 28.96 C 74.89 30.47 79.08 32.40 82.07 35.08 C 79.09 34.78 76.17 34.10 73.19 33.80 C 72.46 33.33 71.74 32.85 71.01 32.38 C 72.22 31.37 71.67 30.12 71.08 28.96 Z" />
</g>
<g id="#69864cf3">
<path fill="#69864c" opacity="0.95" d=" M 208.98 32.00 C 216.27 31.27 223.59 30.41 230.73 28.72 C 238.47 29.09 246.23 29.04 253.99 29.04 L 253.94 29.94 C 238.59 28.87 223.57 31.95 208.71 35.29 C 207.39 33.82 210.65 34.17 209.28 32.72 L 208.98 32.00 Z" />
</g>
<g id="#425e35f6">
<path fill="#425e35" opacity="0.96" d=" M 121.32 35.24 C 121.82 32.65 122.45 29.18 125.94 29.82 C 127.84 31.83 128.47 35.87 129.02 38.86 C 126.89 38.93 124.73 39.13 122.78 40.07 L 122.03 39.93 C 121.61 38.41 120.66 36.85 121.32 35.24 Z" />
</g>
<g id="#acb57bea">
<path fill="#acb57b" opacity="0.92" d=" M 159.82 33.55 C 162.48 32.18 165.18 30.82 168.14 30.25 L 168.24 31.19 C 165.51 32.15 162.86 34.42 159.82 33.55 Z" />
</g>
<g id="#6f8b50f8">
<path fill="#6f8b50" opacity="0.97" d=" M 168.24 31.19 C 173.54 30.16 178.92 29.64 184.31 30.27 C 184.02 30.61 183.44 31.31 183.16 31.65 C 177.01 29.90 171.29 35.04 167.17 39.18 C 162.21 37.32 156.88 39.06 151.83 38.51 C 154.05 36.35 156.62 33.80 159.82 33.55 C 162.86 34.42 165.51 32.15 168.24 31.19 Z" />
</g>
<g id="#5d9455fb">
<path fill="#5d9455" opacity="1.00" d=" M 90.03 32.00 C 96.75 29.72 103.47 35.38 110.26 34.42 C 111.80 34.95 112.79 37.68 113.24 39.37 C 108.64 42.16 102.36 35.87 98.74 39.83 C 96.86 39.42 94.96 39.09 93.03 39.02 L 93.27 38.29 C 93.99 35.91 90.74 34.24 90.03 32.00 Z" />
</g>
<g id="#070a0627">
<path fill="#070a06" opacity="0.15" d=" M 167.17 39.18 C 171.29 35.04 177.01 29.90 183.16 31.65 C 181.78 32.61 180.29 33.37 178.81 34.14 C 173.55 36.58 169.44 40.81 164.81 44.18 C 163.53 45.08 162.31 46.08 161.07 47.05 L 160.69 46.28 C 162.78 43.84 164.98 41.51 167.17 39.18 Z" />
</g>
<g id="#94ec8efe">
<path fill="#94ec8e" opacity="1.00" d=" M 172.72 42.26 C 181.49 37.44 190.60 32.46 200.83 31.96 C 203.54 31.97 206.26 31.98 208.98 32.00 L 209.28 32.72 C 208.79 32.85 207.81 33.12 207.32 33.25 C 195.27 31.93 184.90 38.73 174.05 42.59 C 173.72 42.51 173.06 42.35 172.72 42.26 Z" />
</g>
<g id="#79c472ff">
<path fill="#79c472" opacity="1.00" d=" M 174.05 42.59 C 184.90 38.73 195.27 31.93 207.32 33.25 C 199.64 35.93 191.34 36.91 184.00 40.54 C 178.35 43.34 172.63 46.01 167.10 49.04 C 163.82 49.41 160.87 53.70 157.61 52.16 C 160.98 50.15 164.06 47.72 167.20 45.38 C 169.02 44.30 170.80 43.15 172.72 42.26 C 173.06 42.35 173.72 42.51 174.05 42.59 Z" />
</g>
<g id="#456d41f9">
<path fill="#456d41" opacity="0.98" d=" M 207.32 33.25 C 207.81 33.12 208.79 32.85 209.28 32.72 C 210.65 34.17 207.39 33.82 208.71 35.29 L 208.90 35.86 C 200.60 37.72 192.62 41.07 184.74 44.28 C 184.47 43.03 184.28 41.78 184.00 40.54 C 191.34 36.91 199.64 35.93 207.32 33.25 Z" />
</g>
<g id="#83ab65f4">
<path fill="#83ab65" opacity="0.96" d=" M 58.95 36.02 C 59.33 34.37 61.79 34.81 63.07 34.08 C 65.80 34.57 68.57 34.97 71.26 35.69 C 69.50 35.82 67.74 35.94 65.98 36.02 C 64.22 36.02 60.71 36.02 58.95 36.02 Z" />
</g>
<g id="#b3e689fa">
<path fill="#b3e689" opacity="0.98" d=" M 63.07 34.08 C 66.45 34.05 69.81 33.88 73.19 33.80 C 76.17 34.10 79.09 34.78 82.07 35.08 C 85.95 35.59 89.71 36.67 93.27 38.29 L 93.03 39.02 C 92.27 39.01 90.76 39.00 90.00 38.99 C 83.81 37.62 77.59 36.29 71.26 35.69 C 68.57 34.97 65.80 34.57 63.07 34.08 Z" />
</g>
<g id="#5d8049f8">
<path fill="#5d8049" opacity="0.97" d=" M 65.98 36.02 C 67.74 35.94 69.50 35.82 71.26 35.69 C 77.59 36.29 83.81 37.62 90.00 38.99 L 89.99 39.93 C 89.95 40.44 89.89 41.46 89.85 41.97 C 88.34 42.01 85.31 42.09 83.79 42.13 C 84.83 45.51 89.60 46.32 90.13 49.98 C 83.80 45.96 77.96 41.02 71.01 38.02 C 69.98 36.23 66.16 38.15 65.98 36.02 Z" />
</g>
<g id="#57894efe">
<path fill="#57894e" opacity="1.00" d=" M 98.74 39.83 C 102.36 35.87 108.64 42.16 113.24 39.37 C 113.46 39.52 113.91 39.81 114.13 39.96 C 114.61 40.72 115.12 41.46 115.65 42.20 C 115.78 42.60 116.05 43.40 116.19 43.80 C 112.96 42.03 108.68 44.52 110.65 48.31 C 108.19 46.63 105.89 44.57 102.94 43.77 L 103.23 43.21 C 104.45 41.16 99.93 41.06 98.74 39.83 Z" />
</g>
<g id="#466c3ef9">
<path fill="#466c3e" opacity="0.98" d=" M 144.92 43.91 C 147.67 42.87 149.07 38.95 151.83 38.51 C 156.88 39.06 162.21 37.32 167.17 39.18 C 164.98 41.51 162.78 43.84 160.69 46.28 C 157.85 45.42 159.70 39.62 154.32 43.33 C 150.10 45.14 146.62 48.22 143.16 51.17 C 142.17 51.91 141.00 52.96 139.70 52.35 C 140.83 49.29 141.89 45.62 144.92 43.91 Z" />
</g>
<g id="#71af65fd">
<path fill="#71af65" opacity="1.00" d=" M 90.00 38.99 C 90.76 39.00 92.27 39.01 93.03 39.02 C 94.96 39.09 96.86 39.42 98.74 39.83 C 99.93 41.06 104.45 41.16 103.23 43.21 C 98.85 41.99 94.66 39.69 89.99 39.93 L 90.00 38.99 Z" />
</g>
<g id="#d5eda5fc">
<path fill="#d5eda5" opacity="1.00" d=" M 122.78 40.07 C 124.73 39.13 126.89 38.93 129.02 38.86 C 130.28 38.92 131.34 39.44 132.19 40.40 C 130.25 40.92 128.32 41.43 126.40 42.02 C 125.20 41.35 123.98 40.73 122.78 40.07 Z" />
</g>
<g id="#466a3cfd">
<path fill="#466a3c" opacity="1.00" d=" M 89.99 39.93 C 94.66 39.69 98.85 41.99 103.23 43.21 L 102.94 43.77 C 102.45 43.89 101.48 44.11 100.99 44.23 C 102.46 47.92 104.84 51.23 106.11 55.02 C 102.07 55.70 98.13 50.78 94.94 55.11 C 93.07 53.77 91.07 52.11 90.13 49.98 C 89.60 46.32 84.83 45.51 83.79 42.13 C 85.31 42.09 88.34 42.01 89.85 41.97 C 92.14 45.99 96.18 50.42 101.02 51.12 C 99.56 46.05 93.59 44.90 89.85 41.97 C 89.89 41.46 89.95 40.44 89.99 39.93 Z" />
</g>
<g id="#d3f5a5ff">
<path fill="#d3f5a5" opacity="1.00" d=" M 114.13 39.96 C 116.11 39.93 118.08 39.92 120.06 39.93 L 119.98 40.79 C 118.49 41.12 117.04 41.60 115.65 42.20 C 115.12 41.46 114.61 40.72 114.13 39.96 Z" />
</g>
<g id="#7ba362f8">
<path fill="#7ba362" opacity="0.97" d=" M 120.06 39.93 C 120.55 39.93 121.54 39.93 122.03 39.93 L 122.78 40.07 C 123.98 40.73 125.20 41.35 126.40 42.02 C 125.59 42.76 124.77 43.48 123.94 44.18 C 122.73 43.21 121.38 43.00 120.08 43.95 C 119.96 42.08 123.69 40.50 119.98 40.79 L 120.06 39.93 Z" />
</g>
<g id="#688b51fd">
<path fill="#688b51" opacity="1.00" d=" M 132.19 40.40 C 133.58 40.41 135.66 41.40 135.98 42.87 C 132.97 44.58 129.55 44.93 126.18 45.38 C 125.62 45.08 124.50 44.48 123.94 44.18 C 124.77 43.48 125.59 42.76 126.40 42.02 C 128.32 41.43 130.25 40.92 132.19 40.40 Z" />
</g>
<g id="#85d77dff">
<path fill="#85d77d" opacity="1.00" d=" M 115.65 42.20 C 117.04 41.60 118.49 41.12 119.98 40.79 C 123.69 40.50 119.96 42.08 120.08 43.95 C 119.88 45.70 119.92 47.51 119.35 49.20 C 118.62 47.23 117.35 45.53 116.19 43.80 C 116.05 43.40 115.78 42.60 115.65 42.20 Z" />
</g>
<g id="#406036fc">
<path fill="#406036" opacity="1.00" d=" M 167.10 49.04 C 172.63 46.01 178.35 43.34 184.00 40.54 C 184.28 41.78 184.47 43.03 184.74 44.28 C 184.50 44.64 184.03 45.37 183.80 45.74 C 182.40 46.14 181.03 46.62 179.71 47.22 C 175.51 48.76 172.05 51.73 168.84 54.76 C 169.38 54.83 170.46 54.98 171.01 55.05 C 168.28 57.62 164.09 58.85 160.92 61.12 C 158.58 56.06 154.66 62.75 151.06 62.19 C 151.26 61.87 151.66 61.22 151.86 60.90 C 153.70 59.81 155.53 58.69 157.15 57.28 C 160.51 54.58 163.93 51.97 167.10 49.04 Z" />
</g>
<g id="#507d46ff">
<path fill="#507d46" opacity="1.00" d=" M 89.85 41.97 C 93.59 44.90 99.56 46.05 101.02 51.12 C 96.18 50.42 92.14 45.99 89.85 41.97 Z" />
</g>
<g id="#4c7240ff">
<path fill="#4c7240" opacity="1.00" d=" M 110.65 48.31 C 108.68 44.52 112.96 42.03 116.19 43.80 C 117.35 45.53 118.62 47.23 119.35 49.20 L 119.08 50.14 C 117.44 49.80 115.82 49.36 114.19 49.01 C 114.41 50.05 114.65 51.10 114.89 52.13 C 114.44 51.75 113.54 50.98 113.09 50.60 C 112.28 49.83 111.46 49.07 110.65 48.31 Z" />
</g>
<g id="#54814bff">
<path fill="#54814b" opacity="1.00" d=" M 120.08 43.95 C 121.38 43.00 122.73 43.21 123.94 44.18 C 124.50 44.48 125.62 45.08 126.18 45.38 C 123.37 47.10 120.41 48.65 120.12 52.33 C 119.86 51.78 119.34 50.69 119.08 50.14 L 119.35 49.20 C 119.92 47.51 119.88 45.70 120.08 43.95 Z" />
</g>
<g id="#476c3efe">
<path fill="#476c3e" opacity="1.00" d=" M 126.18 45.38 C 129.55 44.93 132.97 44.58 135.98 42.87 L 136.99 42.94 C 136.95 43.42 136.87 44.39 136.82 44.87 C 130.79 46.38 126.06 50.65 120.44 53.02 L 120.12 52.33 C 120.41 48.65 123.37 47.10 126.18 45.38 Z" />
</g>
<g id="#3f5f36fe">
<path fill="#3f5f36" opacity="1.00" d=" M 154.32 43.33 C 159.70 39.62 157.85 45.42 160.69 46.28 L 161.07 47.05 C 159.29 48.26 158.41 50.24 157.61 52.16 C 156.76 52.82 155.91 53.46 155.06 54.12 C 153.01 52.70 151.09 50.49 148.00 52.08 C 144.64 53.41 141.81 56.57 137.92 55.99 C 138.44 54.96 138.28 52.19 139.70 52.35 C 141.00 52.96 142.17 51.91 143.16 51.17 C 146.62 48.22 150.10 45.14 154.32 43.33 Z" />
</g>
<g id="#3c552ffd">
<path fill="#3c552f" opacity="1.00" d=" M 100.99 44.23 C 101.48 44.11 102.45 43.89 102.94 43.77 C 105.89 44.57 108.19 46.63 110.65 48.31 C 111.46 49.07 112.28 49.83 113.09 50.60 C 110.90 51.07 109.56 52.92 109.04 55.00 C 110.23 58.17 112.81 60.78 112.99 64.30 C 110.68 65.66 108.26 66.84 106.01 68.32 C 104.16 66.35 102.64 64.11 100.94 62.00 C 99.22 59.47 96.61 57.65 94.94 55.11 C 98.13 50.78 102.07 55.70 106.11 55.02 C 104.84 51.23 102.46 47.92 100.99 44.23 Z" />
</g>
<g id="#5f9957f9">
<path fill="#5f9957" opacity="0.98" d=" M 161.07 47.05 C 162.31 46.08 163.53 45.08 164.81 44.18 C 165.41 44.48 166.60 45.08 167.20 45.38 C 164.06 47.72 160.98 50.15 157.61 52.16 C 158.41 50.24 159.29 48.26 161.07 47.05 Z" />
</g>
<g id="#3f5e34fe">
<path fill="#3f5e34" opacity="1.00" d=" M 120.44 53.02 C 126.06 50.65 130.79 46.38 136.82 44.87 C 138.43 46.23 137.03 48.18 136.90 49.86 C 132.79 47.95 129.27 52.13 125.84 53.71 C 122.92 53.85 121.64 56.58 119.84 58.43 C 118.56 56.06 116.69 54.11 114.89 52.13 C 114.65 51.10 114.41 50.05 114.19 49.01 C 115.82 49.36 117.44 49.80 119.08 50.14 C 119.34 50.69 119.86 51.78 120.12 52.33 L 120.44 53.02 Z" />
</g>
<g id="#33392473">
<path fill="#333924" opacity="0.45" d=" M 187.16 45.94 C 187.97 44.18 193.02 44.18 193.85 45.95 C 192.18 45.95 188.83 45.94 187.16 45.94 Z" />
</g>
<g id="#a8dd86f8">
<path fill="#a8dd86" opacity="0.97" d=" M 179.71 47.22 C 181.03 46.62 182.40 46.14 183.80 45.74 C 184.64 45.79 186.32 45.89 187.16 45.94 C 188.83 45.94 192.18 45.95 193.85 45.95 C 201.11 46.22 208.44 47.90 215.20 50.53 C 213.88 50.71 212.55 50.83 211.23 50.84 C 200.96 47.86 189.99 50.02 179.71 47.22 Z" />
</g>
<g id="#649a5bfb">
<path fill="#649a5b" opacity="1.00" d=" M 168.84 54.76 C 172.05 51.73 175.51 48.76 179.71 47.22 C 189.99 50.02 200.96 47.86 211.23 50.84 C 210.42 50.88 208.81 50.95 208.00 50.99 C 205.07 51.04 202.15 51.19 199.26 50.73 C 195.15 50.23 190.70 49.13 186.68 50.63 C 181.40 51.92 176.17 53.42 171.01 55.05 C 170.46 54.98 169.38 54.83 168.84 54.76 Z" />
</g>
<g id="#38502bff">
<path fill="#38502b" opacity="1.00" d=" M 125.84 53.71 C 129.27 52.13 132.79 47.95 136.90 49.86 C 136.95 50.64 137.05 52.20 137.09 52.98 L 136.19 53.02 C 129.46 50.66 125.12 56.32 123.73 61.89 C 121.55 62.45 120.74 59.89 119.84 58.43 C 121.64 56.58 122.92 53.85 125.84 53.71 Z" />
</g>
<g id="#6aa65dff">
<path fill="#6aa65d" opacity="1.00" d=" M 157.61 52.16 C 160.87 53.70 163.82 49.41 167.10 49.04 C 163.93 51.97 160.51 54.58 157.15 57.28 C 155.98 57.29 154.81 57.33 153.65 57.15 C 154.10 56.13 154.57 55.12 155.06 54.12 C 155.91 53.46 156.76 52.82 157.61 52.16 Z" />
</g>
<g id="#4c6f43ed">
<path fill="#4c6f43" opacity="0.93" d=" M 186.68 50.63 C 190.70 49.13 195.15 50.23 199.26 50.73 C 195.06 51.10 190.87 51.07 186.68 50.63 Z" />
</g>
<g id="#597342d6">
<path fill="#597342" opacity="0.84" d=" M 215.20 50.53 C 217.02 50.90 220.21 51.50 220.10 53.90 C 216.31 52.13 212.14 52.12 208.04 51.91 L 208.00 50.99 C 208.81 50.95 210.42 50.88 211.23 50.84 C 212.55 50.83 213.88 50.71 215.20 50.53 Z" />
</g>
<g id="#314222ff">
<path fill="#314222" opacity="1.00" d=" M 109.04 55.00 C 109.56 52.92 110.90 51.07 113.09 50.60 C 113.54 50.98 114.44 51.75 114.89 52.13 C 116.69 54.11 118.56 56.06 119.84 58.43 C 120.74 59.89 121.55 62.45 123.73 61.89 C 125.12 56.32 129.46 50.66 136.19 53.02 C 136.19 55.27 133.82 54.86 132.30 55.39 C 128.92 57.59 127.91 61.82 125.83 65.07 C 125.41 65.06 124.57 65.02 124.15 65.01 C 120.47 64.37 116.72 63.68 112.99 64.30 C 112.81 60.78 110.23 58.17 109.04 55.00 Z" />
</g>
<g id="#38512dff">
<path fill="#38512d" opacity="1.00" d=" M 148.00 52.08 C 151.09 50.49 153.01 52.70 155.06 54.12 C 154.57 55.12 154.10 56.13 153.65 57.15 L 152.96 57.17 C 150.46 56.40 147.22 60.48 146.16 56.76 C 143.08 54.55 139.25 62.32 135.77 58.82 C 136.12 57.88 136.51 56.95 136.93 56.03 L 137.92 55.99 C 141.81 56.57 144.64 53.41 148.00 52.08 Z" />
</g>
<g id="#2a361bfd">
<path fill="#2a361b" opacity="1.00" d=" M 136.19 53.02 L 137.09 52.98 C 137.05 53.74 136.97 55.26 136.93 56.03 C 136.51 56.95 136.12 57.88 135.77 58.82 C 134.35 62.57 134.56 66.96 132.12 70.32 C 130.08 68.51 128.06 66.66 125.83 65.07 C 127.91 61.82 128.92 57.59 132.30 55.39 C 133.82 54.86 136.19 55.27 136.19 53.02 Z" />
</g>
<g id="#324425fe">
<path fill="#324425" opacity="1.00" d=" M 135.77 58.82 C 139.25 62.32 143.08 54.55 146.16 56.76 C 147.22 60.48 150.46 56.40 152.96 57.17 C 152.62 58.42 152.24 59.66 151.86 60.90 C 151.66 61.22 151.26 61.87 151.06 62.19 C 154.66 62.75 158.58 56.06 160.92 61.12 C 160.61 63.18 156.75 63.11 156.90 65.79 L 156.19 65.74 C 152.75 64.46 149.25 64.62 146.50 66.98 C 143.05 68.89 139.32 70.94 138.00 74.89 C 137.72 75.46 137.14 76.60 136.86 77.17 C 136.43 76.80 135.58 76.08 135.15 75.72 C 134.43 73.77 133.41 71.95 132.12 70.32 C 134.56 66.96 134.35 62.57 135.77 58.82 Z" />
</g>
<g id="#558149ff">
<path fill="#558149" opacity="1.00" d=" M 152.96 57.17 L 153.65 57.15 C 154.81 57.33 155.98 57.29 157.15 57.28 C 155.53 58.69 153.70 59.81 151.86 60.90 C 152.24 59.66 152.62 58.42 152.96 57.17 Z" />
</g>
<g id="#e9e288fe">
<path fill="#e9e288" opacity="1.00" d=" M 93.95 61.88 C 94.90 60.19 97.09 61.21 98.16 62.20 C 97.12 62.85 96.07 63.49 95.09 64.23 C 95.70 67.76 97.50 70.96 98.65 74.34 C 98.78 76.00 100.31 76.44 101.15 74.93 C 101.58 75.03 102.46 75.22 102.89 75.32 C 106.80 78.85 97.34 74.72 99.01 79.04 C 103.65 79.73 107.59 75.99 109.03 71.89 C 107.91 72.10 106.81 72.38 105.73 72.73 C 104.13 72.85 102.65 73.42 101.31 74.29 C 101.52 73.14 102.36 72.28 102.95 71.33 C 104.00 70.36 105.02 69.35 106.01 68.32 C 108.26 66.84 110.68 65.66 112.99 64.30 C 116.72 63.68 120.47 64.37 124.15 65.01 C 120.27 68.64 125.92 72.85 125.00 76.36 C 121.97 75.31 119.08 73.86 116.03 72.88 C 113.80 77.63 118.37 80.08 121.77 81.30 C 123.13 81.76 124.55 81.96 125.94 82.29 C 126.14 84.87 122.57 84.72 120.91 85.83 C 118.87 85.36 118.42 89.57 116.92 87.98 C 114.96 83.91 109.00 86.91 105.68 85.26 C 103.24 84.24 101.89 86.28 101.80 88.50 C 98.73 90.60 102.11 96.69 98.25 96.96 L 97.92 95.96 C 97.44 93.96 97.05 91.88 95.97 90.10 C 91.69 92.63 87.23 95.17 82.07 95.16 C 80.30 95.39 79.10 96.90 77.92 98.09 C 75.77 97.21 74.46 93.33 74.10 91.07 C 74.93 88.35 76.04 85.72 76.89 83.00 C 76.53 81.46 74.43 80.61 75.10 78.75 C 75.56 78.62 76.48 78.35 76.95 78.22 C 79.87 81.86 77.39 87.43 80.23 90.95 C 86.26 92.73 93.18 88.05 94.00 82.02 C 95.61 77.05 92.36 72.40 91.52 67.63 C 87.79 62.69 92.63 63.93 93.95 61.88 Z" />
</g>
<g id="#f8f49dfe">
<path fill="#f8f49d" opacity="1.00" d=" M 72.12 75.17 C 79.10 70.55 84.43 61.08 93.95 61.88 C 92.63 63.93 87.79 62.69 91.52 67.63 C 92.36 72.40 95.61 77.05 94.00 82.02 C 93.18 88.05 86.26 92.73 80.23 90.95 C 77.39 87.43 79.87 81.86 76.95 78.22 C 76.48 78.35 75.56 78.62 75.10 78.75 C 73.44 78.20 72.62 76.75 72.12 75.17 M 80.86 71.10 C 78.22 69.80 78.48 73.66 80.89 73.22 C 82.10 73.00 84.38 76.42 84.25 73.87 C 84.70 73.89 85.62 73.92 86.08 73.94 L 86.28 72.83 L 87.09 73.05 C 88.98 68.88 80.03 66.10 80.86 71.10 Z" />
</g>
<g id="#d9d173ff">
<path fill="#d9d173" opacity="1.00" d=" M 98.16 62.20 C 98.60 62.13 99.49 61.99 99.93 61.92 C 99.74 65.35 100.01 69.13 102.95 71.33 C 102.36 72.28 101.52 73.14 101.31 74.29 L 101.15 74.93 C 100.31 76.44 98.78 76.00 98.65 74.34 C 97.50 70.96 95.70 67.76 95.09 64.23 C 96.07 63.49 97.12 62.85 98.16 62.20 Z" />
</g>
<g id="#c6bc5bfd">
<path fill="#c6bc5b" opacity="1.00" d=" M 99.93 61.92 L 100.94 62.00 C 102.64 64.11 104.16 66.35 106.01 68.32 C 105.02 69.35 104.00 70.36 102.95 71.33 C 100.01 69.13 99.74 65.35 99.93 61.92 Z" />
</g>
<g id="#d3c877ff">
<path fill="#d3c877" opacity="1.00" d=" M 124.15 65.01 C 124.57 65.02 125.41 65.06 125.83 65.07 C 128.06 66.66 130.08 68.51 132.12 70.32 C 133.41 71.95 134.43 73.77 135.15 75.72 C 133.19 80.90 134.43 88.05 129.74 91.83 C 125.09 93.70 124.00 88.73 121.13 86.73 L 120.91 85.83 C 122.57 84.72 126.14 84.87 125.94 82.29 C 124.55 81.96 123.13 81.76 121.77 81.30 C 123.95 80.98 128.61 81.68 127.93 78.15 C 128.11 76.61 125.89 77.04 125.00 76.36 C 125.92 72.85 120.27 68.64 124.15 65.01 Z" />
</g>
<g id="#d6d46aff">
<path fill="#d6d46a" opacity="1.00" d=" M 146.50 66.98 C 149.25 64.62 152.75 64.46 156.19 65.74 C 153.22 67.45 149.91 68.40 146.50 66.98 Z" />
</g>
<g id="#e4e080fe">
<path fill="#e4e080" opacity="1.00" d=" M 146.50 66.98 C 149.91 68.40 153.22 67.45 156.19 65.74 L 156.90 65.79 C 160.34 66.07 163.99 68.33 165.97 70.90 C 165.44 71.07 164.37 71.41 163.84 71.58 C 162.58 71.46 161.33 71.42 160.07 71.43 C 158.85 70.88 157.46 70.75 156.17 71.13 C 152.67 71.68 149.04 72.28 146.44 74.87 C 143.58 75.34 139.74 78.90 138.00 74.89 C 139.32 70.94 143.05 68.89 146.50 66.98 Z" />
</g>
<g id="#868662ff">
<path fill="#868662" opacity="1.00" d=" M 80.86 71.10 C 80.03 66.10 88.98 68.88 87.09 73.05 L 86.28 72.83 C 85.77 69.55 83.28 70.04 80.86 71.10 Z" />
</g>
<g id="#ebebe5ff">
<path fill="#ebebe5" opacity="1.00" d=" M 80.86 71.10 C 83.28 70.04 85.77 69.55 86.28 72.83 L 86.08 73.94 C 85.62 73.92 84.70 73.89 84.25 73.87 C 83.17 72.88 82.02 71.98 80.86 71.10 Z" />
</g>
<g id="#9e9e70fd">
<path fill="#9e9e70" opacity="1.00" d=" M 80.89 73.22 C 78.48 73.66 78.22 69.80 80.86 71.10 C 82.02 71.98 83.17 72.88 84.25 73.87 C 84.38 76.42 82.10 73.00 80.89 73.22 Z" />
</g>
<g id="#a9a694ff">
<path fill="#a9a694" opacity="1.00" d=" M 146.44 74.87 C 149.04 72.28 152.67 71.68 156.17 71.13 C 157.02 71.92 157.55 72.92 157.44 74.11 C 154.18 73.94 151.01 74.83 147.89 75.68 C 147.52 75.48 146.80 75.07 146.44 74.87 Z" />
</g>
<g id="#79744eff">
<path fill="#79744e" opacity="1.00" d=" M 156.17 71.13 C 157.46 70.75 158.85 70.88 160.07 71.43 C 159.90 71.82 159.56 72.59 159.39 72.98 C 158.90 73.26 157.93 73.83 157.44 74.11 C 157.55 72.92 157.02 71.92 156.17 71.13 Z" />
</g>
<g id="#eae398fe">
<path fill="#eae398" opacity="1.00" d=" M 160.07 71.43 C 161.33 71.42 162.58 71.46 163.84 71.58 C 165.79 72.86 167.73 74.16 169.75 75.34 C 170.96 76.28 172.35 77.28 172.07 79.04 C 169.41 79.02 166.77 78.99 164.12 78.95 C 161.79 77.62 160.46 75.34 159.39 72.98 C 159.56 72.59 159.90 71.82 160.07 71.43 Z" />
</g>
<g id="#7f7e56f8">
<path fill="#7f7e56" opacity="0.97" d=" M 163.84 71.58 C 164.37 71.41 165.44 71.07 165.97 70.90 C 167.57 71.80 169.63 73.40 169.75 75.34 C 167.73 74.16 165.79 72.86 163.84 71.58 Z" />
</g>
<g id="#b0ae85ff">
<path fill="#b0ae85" opacity="1.00" d=" M 105.73 72.73 C 106.81 72.38 107.91 72.10 109.03 71.89 C 107.59 75.99 103.65 79.73 99.01 79.04 C 97.34 74.72 106.80 78.85 102.89 75.32 C 104.40 75.32 105.66 74.27 105.73 72.73 Z" />
</g>
<g id="#838357ff">
<path fill="#838357" opacity="1.00" d=" M 101.31 74.29 C 102.65 73.42 104.13 72.85 105.73 72.73 C 105.66 74.27 104.40 75.32 102.89 75.32 C 102.46 75.22 101.58 75.03 101.15 74.93 L 101.31 74.29 Z" />
</g>
<g id="#706c4fff">
<path fill="#706c4f" opacity="1.00" d=" M 116.03 72.88 C 119.08 73.86 121.97 75.31 125.00 76.36 C 125.89 77.04 128.11 76.61 127.93 78.15 C 128.61 81.68 123.95 80.98 121.77 81.30 C 118.37 80.08 113.80 77.63 116.03 72.88 M 116.96 74.98 C 116.78 77.13 118.84 79.04 120.91 79.10 C 121.61 80.82 126.35 80.60 127.04 78.23 C 125.20 78.24 121.14 75.49 120.77 78.20 C 119.87 76.71 119.18 74.40 116.96 74.98 Z" />
</g>
<g id="#fcf8a4ff">
<path fill="#fcf8a4" opacity="1.00" d=" M 159.39 72.98 C 160.46 75.34 161.79 77.62 164.12 78.95 L 163.14 78.97 C 160.00 78.97 156.90 78.92 153.78 79.09 C 154.05 79.37 154.59 79.91 154.86 80.18 C 157.29 82.04 161.14 80.55 164.08 81.05 C 160.82 82.94 162.85 87.62 160.00 90.03 C 157.80 94.67 151.77 96.49 147.01 95.99 C 141.50 93.09 141.33 98.43 140.04 101.37 L 139.33 100.79 C 138.39 99.11 137.35 97.48 136.45 95.78 C 136.65 93.92 136.97 92.08 137.22 90.23 C 137.75 87.40 138.55 84.45 137.28 81.73 C 137.10 80.21 136.98 78.69 136.86 77.17 C 137.14 76.60 137.72 75.46 138.00 74.89 C 139.74 78.90 143.58 75.34 146.44 74.87 C 146.80 75.07 147.52 75.48 147.89 75.68 C 151.21 76.20 154.52 75.73 157.44 74.11 C 157.93 73.83 158.90 73.26 159.39 72.98 Z" />
</g>
<g id="#898559ff">
<path fill="#898559" opacity="1.00" d=" M 147.89 75.68 C 151.01 74.83 154.18 73.94 157.44 74.11 C 154.52 75.73 151.21 76.20 147.89 75.68 Z" />
</g>
<g id="#bcbdbcff">
<path fill="#bcbdbc" opacity="1.00" d=" M 116.96 74.98 C 119.18 74.40 119.87 76.71 120.77 78.20 L 120.91 79.10 C 118.84 79.04 116.78 77.13 116.96 74.98 Z" />
</g>
<g id="#cdbe71ff">
<path fill="#cdbe71" opacity="1.00" d=" M 135.15 75.72 C 135.58 76.08 136.43 76.80 136.86 77.17 C 136.98 78.69 137.10 80.21 137.28 81.73 C 137.24 84.56 137.21 87.39 137.22 90.23 C 136.97 92.08 136.65 93.92 136.45 95.78 C 135.03 96.83 134.60 98.65 133.75 100.12 C 133.09 98.89 132.45 97.65 131.74 96.45 C 128.11 96.94 123.96 97.76 121.16 94.81 C 120.94 93.18 120.93 91.52 120.90 89.87 C 120.95 89.09 121.07 87.52 121.13 86.73 C 124.00 88.73 125.09 93.70 129.74 91.83 C 134.43 88.05 133.19 80.90 135.15 75.72 Z" />
</g>
<g id="#a2a0a0ff">
<path fill="#a2a0a0" opacity="1.00" d=" M 120.77 78.20 C 121.14 75.49 125.20 78.24 127.04 78.23 C 126.35 80.60 121.61 80.82 120.91 79.10 L 120.77 78.20 Z" />
</g>
<g id="#938d56ff">
<path fill="#938d56" opacity="1.00" d=" M 153.78 79.09 C 156.90 78.92 160.00 78.97 163.14 78.97 L 162.96 79.97 C 160.25 80.03 157.55 80.10 154.86 80.18 C 154.59 79.91 154.05 79.37 153.78 79.09 Z" />
</g>
<g id="#787548ff">
<path fill="#787548" opacity="1.00" d=" M 163.14 78.97 L 164.12 78.95 C 166.77 78.99 169.41 79.02 172.07 79.04 L 172.02 80.08 L 171.20 80.21 C 168.44 80.12 165.70 80.04 162.96 79.97 L 163.14 78.97 Z" />
</g>
<g id="#bbb577ff">
<path fill="#bbb577" opacity="1.00" d=" M 154.86 80.18 C 157.55 80.10 160.25 80.03 162.96 79.97 C 165.70 80.04 168.44 80.12 171.20 80.21 C 170.68 80.43 169.66 80.89 169.15 81.11 C 167.46 81.09 165.77 81.04 164.08 81.05 C 161.14 80.55 157.29 82.04 154.86 80.18 Z" />
</g>
<g id="#e7de9bfe">
<path fill="#e7de9b" opacity="1.00" d=" M 171.20 80.21 L 172.02 80.08 L 172.85 80.02 C 173.53 85.20 176.22 91.92 172.50 96.22 C 171.73 93.09 172.77 89.86 172.80 86.73 C 168.88 91.11 166.26 96.91 161.00 99.99 C 157.85 101.47 154.56 102.67 151.13 103.31 C 149.39 108.32 156.45 104.88 159.19 106.77 L 158.16 106.90 C 156.35 106.98 152.71 107.15 150.89 107.23 C 149.23 106.97 147.57 106.66 145.95 106.20 C 145.70 106.03 145.19 105.69 144.94 105.53 C 146.00 103.51 145.90 99.95 148.88 99.84 C 154.48 99.10 159.78 96.87 163.29 92.30 C 167.24 89.41 163.98 82.81 169.15 81.11 C 169.66 80.89 170.68 80.43 171.20 80.21 Z" />
</g>
<g id="#f1eaa4ff">
<path fill="#f1eaa4" opacity="1.00" d=" M 164.08 81.05 C 165.77 81.04 167.46 81.09 169.15 81.11 C 163.98 82.81 167.24 89.41 163.29 92.30 C 159.78 96.87 154.48 99.10 148.88 99.84 C 145.90 99.95 146.00 103.51 144.94 105.53 C 143.65 104.75 142.42 103.89 141.22 102.98 C 140.93 102.58 140.33 101.77 140.04 101.37 C 141.33 98.43 141.50 93.09 147.01 95.99 C 151.77 96.49 157.80 94.67 160.00 90.03 C 162.85 87.62 160.82 82.94 164.08 81.05 Z" />
</g>
<g id="#e4de88ff">
<path fill="#e4de88" opacity="1.00" d=" M 137.28 81.73 C 138.55 84.45 137.75 87.40 137.22 90.23 C 137.21 87.39 137.24 84.56 137.28 81.73 Z" />
</g>
<g id="#6f4529ff">
<path fill="#6f4529" opacity="1.00" d=" M 101.80 88.50 C 101.89 86.28 103.24 84.24 105.68 85.26 C 109.00 86.91 114.96 83.91 116.92 87.98 C 112.09 87.51 107.36 88.78 103.17 91.08 C 102.83 90.44 102.14 89.15 101.80 88.50 Z" />
</g>
<g id="#bb7c4bff">
<path fill="#bb7c4b" opacity="1.00" d=" M 116.92 87.98 C 118.42 89.57 118.87 85.36 120.91 85.83 L 121.13 86.73 C 121.07 87.52 120.95 89.09 120.90 89.87 C 118.92 91.67 116.94 93.46 114.93 95.21 C 111.64 95.52 108.26 96.29 105.10 95.02 C 104.43 93.72 103.78 92.41 103.17 91.08 C 107.36 88.78 112.09 87.51 116.92 87.98 Z" />
</g>
<g id="#e4d792fe">
<path fill="#e4d792" opacity="1.00" d=" M 161.00 99.99 C 166.26 96.91 168.88 91.11 172.80 86.73 C 172.77 89.86 171.73 93.09 172.50 96.22 C 171.66 101.26 165.86 103.27 162.78 106.89 C 161.58 106.87 160.38 106.83 159.19 106.77 C 156.45 104.88 149.39 108.32 151.13 103.31 C 154.56 102.67 157.85 101.47 161.00 99.99 Z" />
</g>
<g id="#d0c66dff">
<path fill="#d0c66d" opacity="1.00" d=" M 98.25 96.96 C 102.11 96.69 98.73 90.60 101.80 88.50 C 102.14 89.15 102.83 90.44 103.17 91.08 C 103.78 92.41 104.43 93.72 105.10 95.02 C 103.92 97.24 102.88 99.61 101.01 101.36 C 100.73 101.01 100.16 100.32 99.88 99.97 C 99.31 98.98 98.65 98.03 98.25 96.96 Z" />
</g>
<g id="#d4c97bff">
<path fill="#d4c97b" opacity="1.00" d=" M 82.07 95.16 C 87.23 95.17 91.69 92.63 95.97 90.10 C 97.05 91.88 97.44 93.96 97.92 95.96 C 92.54 97.38 86.79 98.36 81.90 101.02 C 80.02 101.33 78.74 99.51 77.92 98.09 C 79.10 96.90 80.30 95.39 82.07 95.16 Z" />
</g>
<g id="#c4b265ff">
<path fill="#c4b265" opacity="1.00" d=" M 114.93 95.21 C 116.94 93.46 118.92 91.67 120.90 89.87 C 120.93 91.52 120.94 93.18 121.16 94.81 C 123.96 97.76 128.11 96.94 131.74 96.45 C 132.45 97.65 133.09 98.89 133.75 100.12 C 133.33 101.03 132.88 101.92 132.47 102.84 C 131.96 103.21 130.93 103.94 130.42 104.31 C 130.31 96.04 117.28 102.35 114.93 95.21 Z" />
</g>
<g id="#beac5bff">
<path fill="#beac5b" opacity="1.00" d=" M 105.10 95.02 C 108.26 96.29 111.64 95.52 114.93 95.21 C 117.28 102.35 130.31 96.04 130.42 104.31 C 130.09 104.58 129.44 105.11 129.11 105.38 C 124.24 101.68 117.97 100.42 112.00 100.00 C 107.86 97.89 104.91 101.68 104.60 105.07 L 103.94 104.57 C 103.32 103.95 102.70 103.33 102.08 102.71 C 101.81 102.37 101.28 101.70 101.01 101.36 C 102.88 99.61 103.92 97.24 105.10 95.02 Z" />
</g>
<g id="#c2b262fd">
<path fill="#c2b262" opacity="1.00" d=" M 81.90 101.02 C 86.79 98.36 92.54 97.38 97.92 95.96 L 98.25 96.96 C 98.65 98.03 99.31 98.98 99.88 99.97 C 95.43 100.69 90.60 101.09 86.98 104.05 C 85.10 103.83 82.60 102.91 81.90 101.02 Z" />
</g>
<g id="#866b48ff">
<path fill="#866b48" opacity="1.00" d=" M 133.75 100.12 C 134.60 98.65 135.03 96.83 136.45 95.78 C 137.35 97.48 138.39 99.11 139.33 100.79 C 136.74 105.01 134.78 109.57 132.86 114.12 L 131.82 114.18 C 130.48 114.08 129.14 113.99 127.80 113.91 C 128.93 110.05 132.68 106.95 132.47 102.84 C 132.88 101.92 133.33 101.03 133.75 100.12 Z" />
</g>
<g id="#b4a04ffc">
<path fill="#b4a04f" opacity="1.00" d=" M 86.98 104.05 C 90.60 101.09 95.43 100.69 99.88 99.97 C 100.16 100.32 100.73 101.01 101.01 101.36 C 101.28 101.70 101.81 102.37 102.08 102.71 C 101.40 103.33 100.74 103.96 100.09 104.60 C 99.58 104.70 98.55 104.90 98.04 104.99 C 96.28 105.00 92.76 105.02 91.00 105.02 C 89.86 104.57 86.61 106.01 86.98 104.05 Z" />
</g>
<g id="#b4a14eff">
<path fill="#b4a14e" opacity="1.00" d=" M 104.60 105.07 C 104.91 101.68 107.86 97.89 112.00 100.00 C 117.97 100.42 124.24 101.68 129.11 105.38 C 127.45 106.95 125.19 107.56 123.12 108.39 C 122.48 102.53 115.14 103.55 111.00 102.97 C 108.57 102.34 107.84 104.95 107.94 106.83 C 107.46 106.66 106.50 106.34 106.03 106.17 C 105.67 105.90 104.96 105.35 104.60 105.07 Z" />
</g>
<g id="#907756ff">
<path fill="#907756" opacity="1.00" d=" M 139.33 100.79 L 140.04 101.37 C 140.33 101.77 140.93 102.58 141.22 102.98 C 140.76 106.82 138.87 110.27 137.83 113.96 C 136.17 114.00 134.51 114.05 132.86 114.12 C 134.78 109.57 136.74 105.01 139.33 100.79 Z" />
</g>
<g id="#c9b48bfd">
<path fill="#c9b48b" opacity="1.00" d=" M 100.09 104.60 C 100.74 103.96 101.40 103.33 102.08 102.71 C 102.70 103.33 103.32 103.95 103.94 104.57 C 103.74 107.96 103.83 111.77 99.77 111.40 C 99.29 111.48 98.33 111.65 97.85 111.73 L 96.99 111.89 C 96.94 110.49 97.02 109.10 97.22 107.73 L 97.89 108.20 C 97.77 109.71 98.43 110.28 99.85 109.92 C 100.03 108.17 100.75 106.33 100.09 104.60 Z" />
</g>
<g id="#ab9741ff">
<path fill="#ab9741" opacity="1.00" d=" M 107.94 106.83 C 107.84 104.95 108.57 102.34 111.00 102.97 C 115.14 103.55 122.48 102.53 123.12 108.39 C 120.26 109.32 117.14 108.98 114.20 108.70 C 112.87 108.30 111.53 107.94 110.20 107.59 C 109.63 107.40 108.50 107.02 107.94 106.83 Z" />
</g>
<g id="#795c38ff">
<path fill="#795c38" opacity="1.00" d=" M 132.47 102.84 C 132.68 106.95 128.93 110.05 127.80 113.91 C 122.79 113.60 117.50 114.98 112.65 113.28 C 112.37 111.39 110.93 108.21 114.20 108.70 C 117.14 108.98 120.26 109.32 123.12 108.39 C 125.19 107.56 127.45 106.95 129.11 105.38 C 129.44 105.11 130.09 104.58 130.42 104.31 C 130.93 103.94 131.96 103.21 132.47 102.84 Z" />
</g>
<g id="#978163ff">
<path fill="#978163" opacity="1.00" d=" M 141.22 102.98 C 142.42 103.89 143.65 104.75 144.94 105.53 C 145.19 105.69 145.70 106.03 145.95 106.20 C 144.75 108.24 143.59 110.44 143.96 112.90 C 145.78 113.00 149.41 113.19 151.22 113.28 C 146.79 114.05 142.30 114.00 137.83 113.96 C 138.87 110.27 140.76 106.82 141.22 102.98 Z" />
</g>
<g id="#433f2498">
<path fill="#433f24" opacity="0.60" d=" M 91.00 105.02 C 92.76 105.02 96.28 105.00 98.04 104.99 C 98.00 105.80 97.93 107.40 97.89 108.20 L 97.22 107.73 C 97.22 103.97 91.09 107.90 91.00 105.02 Z" />
</g>
<g id="#f0e6b1ff">
<path fill="#f0e6b1" opacity="1.00" d=" M 98.04 104.99 C 98.55 104.90 99.58 104.70 100.09 104.60 C 100.75 106.33 100.03 108.17 99.85 109.92 C 98.43 110.28 97.77 109.71 97.89 108.20 C 97.93 107.40 98.00 105.80 98.04 104.99 Z" />
</g>
<g id="#ab926cff">
<path fill="#ab926c" opacity="1.00" d=" M 99.77 111.40 C 103.83 111.77 103.74 107.96 103.94 104.57 L 104.60 105.07 C 104.96 105.35 105.67 105.90 106.03 106.17 C 105.72 108.14 105.25 110.08 104.91 112.04 C 103.17 112.10 101.45 111.83 99.77 111.40 Z" />
</g>
<g id="#9b8058ff">
<path fill="#9b8058" opacity="1.00" d=" M 106.03 106.17 C 106.50 106.34 107.46 106.66 107.94 106.83 C 108.50 107.02 109.63 107.40 110.20 107.59 C 106.54 107.58 109.46 113.68 104.91 112.04 C 105.25 110.08 105.72 108.14 106.03 106.17 Z" />
</g>
<g id="#9e8c72ff">
<path fill="#9e8c72" opacity="1.00" d=" M 145.95 106.20 C 147.57 106.66 149.23 106.97 150.89 107.23 C 152.38 108.34 154.29 108.33 156.06 108.37 C 156.07 110.17 155.50 112.66 158.19 112.36 C 155.87 112.71 153.55 113.01 151.22 113.28 C 149.41 113.19 145.78 113.00 143.96 112.90 C 143.59 110.44 144.75 108.24 145.95 106.20 Z" />
</g>
<g id="#c5ba8aff">
<path fill="#c5ba8a" opacity="1.00" d=" M 150.89 107.23 C 152.71 107.15 156.35 106.98 158.16 106.90 C 157.64 107.27 156.58 108.00 156.06 108.37 C 154.29 108.33 152.38 108.34 150.89 107.23 Z" />
</g>
<g id="#a8967cfd">
<path fill="#a8967c" opacity="1.00" d=" M 158.16 106.90 L 159.19 106.77 C 160.38 106.83 161.58 106.87 162.78 106.89 C 165.02 106.47 163.63 109.75 164.00 110.99 C 162.08 111.51 160.16 112.04 158.19 112.36 C 155.50 112.66 156.07 110.17 156.06 108.37 C 156.58 108.00 157.64 107.27 158.16 106.90 Z" />
</g>
<g id="#846a48ff">
<path fill="#846a48" opacity="1.00" d=" M 104.91 112.04 C 109.46 113.68 106.54 107.58 110.20 107.59 C 111.53 107.94 112.87 108.30 114.20 108.70 C 110.93 108.21 112.37 111.39 112.65 113.28 C 109.67 113.09 106.60 112.58 103.73 113.62 L 102.86 113.85 C 102.39 113.70 101.44 113.39 100.97 113.24 L 100.11 112.95 C 99.55 112.64 98.42 112.03 97.85 111.73 C 98.33 111.65 99.29 111.48 99.77 111.40 C 101.45 111.83 103.17 112.10 104.91 112.04 Z" />
</g>
<g id="#64533eff">
<path fill="#64533e" opacity="1.00" d=" M 158.19 112.36 C 160.16 112.04 162.08 111.51 164.00 110.99 L 164.03 112.07 C 156.83 115.71 148.64 114.71 140.92 116.00 C 139.71 115.97 138.49 115.93 137.28 115.88 C 135.92 115.46 133.19 114.61 131.82 114.18 L 132.86 114.12 C 134.51 114.05 136.17 114.00 137.83 113.96 C 142.30 114.00 146.79 114.05 151.22 113.28 C 153.55 113.01 155.87 112.71 158.19 112.36 Z" />
</g>
<g id="#eee7bdf8">
<path fill="#eee7bd" opacity="0.97" d=" M 96.12 112.08 L 96.99 111.89 L 97.85 111.73 C 98.28 118.80 95.03 125.82 96.61 132.83 C 96.23 132.93 95.45 133.12 95.06 133.21 C 94.74 126.14 94.80 119.05 96.12 112.08 Z" />
</g>
<g id="#d6c19afd">
<path fill="#d6c19a" opacity="1.00" d=" M 97.85 111.73 C 98.42 112.03 99.55 112.64 100.11 112.95 C 98.74 120.04 98.96 127.29 98.99 134.48 C 98.19 134.38 96.58 134.18 95.77 134.08 C 96.91 135.45 98.54 136.14 100.09 136.93 C 99.85 140.93 102.11 145.22 100.36 148.98 C 99.58 148.18 98.76 147.41 97.91 146.69 C 97.27 146.15 96.62 145.62 95.96 145.11 C 97.65 141.09 93.80 137.40 95.06 133.21 C 95.45 133.12 96.23 132.93 96.61 132.83 C 95.03 125.82 98.28 118.80 97.85 111.73 Z" />
</g>
<g id="#97846cfe">
<path fill="#97846c" opacity="1.00" d=" M 140.92 116.00 C 148.64 114.71 156.83 115.71 164.03 112.07 L 164.88 111.88 C 164.86 118.29 166.57 124.58 166.03 131.01 C 162.67 133.57 164.82 127.04 161.83 126.08 C 156.61 128.55 153.97 134.23 148.85 136.99 C 148.44 137.05 147.61 137.17 147.20 137.23 C 144.16 137.16 141.15 137.06 138.12 137.02 C 139.95 130.15 138.71 122.74 140.92 116.00 Z" />
</g>
<g id="#cab58fff">
<path fill="#cab58f" opacity="1.00" d=" M 100.11 112.95 L 100.97 113.24 C 100.19 120.22 101.53 127.87 98.99 134.48 C 98.96 127.29 98.74 120.04 100.11 112.95 Z" />
</g>
<g id="#bba480ff">
<path fill="#bba480" opacity="1.00" d=" M 100.97 113.24 C 101.44 113.39 102.39 113.70 102.86 113.85 C 101.33 120.86 101.81 128.14 103.21 135.13 C 101.80 134.96 100.39 134.76 98.99 134.48 C 101.53 127.87 100.19 120.22 100.97 113.24 Z" />
</g>
<g id="#554027ff">
<path fill="#554027" opacity="1.00" d=" M 103.73 113.62 C 106.60 112.58 109.67 113.09 112.65 113.28 C 117.50 114.98 122.79 113.60 127.80 113.91 C 129.14 113.99 130.48 114.08 131.82 114.18 C 133.19 114.61 135.92 115.46 137.28 115.88 C 136.48 115.91 134.88 115.96 134.08 115.99 C 132.42 116.01 130.76 116.02 129.10 116.06 C 122.98 116.33 116.91 115.92 110.87 115.02 C 110.39 114.98 109.44 114.89 108.96 114.85 C 107.58 114.46 106.20 114.13 104.80 113.85 L 103.73 113.62 Z" />
</g>
<g id="#ae9773ff">
<path fill="#ae9773" opacity="1.00" d=" M 102.86 113.85 L 103.73 113.62 C 102.65 120.73 106.40 128.40 104.29 135.29 L 103.21 135.13 C 101.81 128.14 101.33 120.86 102.86 113.85 Z" />
</g>
<g id="#9f8663ff">
<path fill="#9f8663" opacity="1.00" d=" M 103.73 113.62 L 104.80 113.85 C 107.78 115.46 106.63 119.07 107.21 121.91 C 107.97 126.72 109.15 131.46 110.82 136.04 C 109.10 136.03 105.67 136.01 103.95 136.00 L 104.29 135.29 C 106.40 128.40 102.65 120.73 103.73 113.62 Z" />
</g>
<g id="#8f7756ff">
<path fill="#8f7756" opacity="1.00" d=" M 104.80 113.85 C 106.20 114.13 107.58 114.46 108.96 114.85 C 109.31 119.69 109.97 124.95 113.23 128.77 C 116.19 132.18 121.01 130.30 124.85 129.79 C 128.35 125.48 130.60 120.32 134.08 115.99 C 134.88 115.96 136.48 115.91 137.28 115.88 C 135.41 120.02 134.10 124.36 132.58 128.63 C 130.84 131.51 128.54 134.02 126.86 136.94 C 125.16 137.03 123.47 137.15 121.78 137.25 C 118.21 137.09 114.67 136.99 111.11 136.87 L 110.82 136.04 C 109.15 131.46 107.97 126.72 107.21 121.91 C 106.63 119.07 107.78 115.46 104.80 113.85 Z" />
</g>
<g id="#896e4cff">
<path fill="#896e4c" opacity="1.00" d=" M 108.96 114.85 C 109.44 114.89 110.39 114.98 110.87 115.02 C 111.95 119.06 113.36 123.98 118.06 124.99 C 123.14 124.37 126.59 120.16 129.10 116.06 C 130.76 116.02 132.42 116.01 134.08 115.99 C 130.60 120.32 128.35 125.48 124.85 129.79 C 121.01 130.30 116.19 132.18 113.23 128.77 C 109.97 124.95 109.31 119.69 108.96 114.85 Z" />
</g>
<g id="#816542ff">
<path fill="#816542" opacity="1.00" d=" M 110.87 115.02 C 116.91 115.92 122.98 116.33 129.10 116.06 C 126.59 120.16 123.14 124.37 118.06 124.99 C 113.36 123.98 111.95 119.06 110.87 115.02 Z" />
</g>
<g id="#947e61ff">
<path fill="#947e61" opacity="1.00" d=" M 137.28 115.88 C 138.49 115.93 139.71 115.97 140.92 116.00 C 138.71 122.74 139.95 130.15 138.12 137.02 C 134.36 137.02 130.61 137.00 126.86 136.94 C 128.54 134.02 130.84 131.51 132.58 128.63 C 134.10 124.36 135.41 120.02 137.28 115.88 Z" />
</g>
<g id="#8a765ffd">
<path fill="#8a765f" opacity="1.00" d=" M 148.85 136.99 C 153.97 134.23 156.61 128.55 161.83 126.08 C 164.82 127.04 162.67 133.57 166.03 131.01 C 165.97 132.39 166.24 134.03 164.83 134.85 C 159.51 135.61 154.28 137.03 148.85 136.99 Z" />
</g>
<g id="#817156ff">
<path fill="#817156" opacity="1.00" d=" M 95.77 134.08 C 96.58 134.18 98.19 134.38 98.99 134.48 C 100.39 134.76 101.80 134.96 103.21 135.13 L 104.29 135.29 L 103.95 136.00 C 103.43 136.17 102.38 136.49 101.85 136.65 C 101.41 136.72 100.53 136.86 100.09 136.93 C 98.54 136.14 96.91 135.45 95.77 134.08 Z" />
</g>
<g id="#554634ff">
<path fill="#554634" opacity="1.00" d=" M 148.85 136.99 C 154.28 137.03 159.51 135.61 164.83 134.85 L 165.10 135.98 C 161.34 138.12 156.80 137.17 152.91 138.78 C 149.35 138.94 145.81 138.92 142.27 139.25 C 136.10 138.98 129.94 138.96 123.78 139.21 C 121.11 139.16 118.45 139.12 115.79 139.09 C 113.53 138.25 111.15 137.87 108.75 137.75 C 109.34 137.53 110.52 137.09 111.11 136.87 C 114.67 136.99 118.21 137.09 121.78 137.25 C 130.18 138.35 138.81 138.52 147.20 137.23 C 147.61 137.17 148.44 137.05 148.85 136.99 Z" />
</g>
<g id="#6a5941ff">
<path fill="#6a5941" opacity="1.00" d=" M 101.85 136.65 C 102.38 136.49 103.43 136.17 103.95 136.00 C 105.67 136.01 109.10 136.03 110.82 136.04 L 111.11 136.87 C 110.52 137.09 109.34 137.53 108.75 137.75 L 107.88 138.05 C 106.20 137.77 104.55 137.33 102.89 136.92 L 101.85 136.65 Z" />
</g>
<g id="#7f6b54fe">
<path fill="#7f6b54" opacity="1.00" d=" M 152.91 138.78 C 156.80 137.17 161.34 138.12 165.10 135.98 C 165.17 138.85 164.23 141.65 162.85 144.14 C 161.93 143.07 161.46 141.34 160.01 140.91 C 152.05 147.37 144.40 154.41 135.38 159.43 C 132.08 161.06 130.23 165.28 125.95 164.06 C 125.44 162.84 124.80 161.58 125.09 160.21 C 131.93 155.34 139.69 151.72 145.87 145.93 C 148.43 143.87 152.88 142.74 152.91 138.78 Z" />
</g>
<g id="#bba785ff">
<path fill="#bba785" opacity="1.00" d=" M 100.09 136.93 C 100.53 136.86 101.41 136.72 101.85 136.65 L 102.89 136.92 C 105.32 141.76 105.77 147.27 107.61 152.33 C 108.25 153.72 107.95 155.24 107.05 156.44 C 106.53 155.98 105.48 155.05 104.95 154.59 C 103.39 152.87 101.73 151.23 100.02 149.66 L 100.36 148.98 C 102.11 145.22 99.85 140.93 100.09 136.93 Z" />
</g>
<g id="#a59173ff">
<path fill="#a59173" opacity="1.00" d=" M 102.89 136.92 C 104.55 137.33 106.20 137.77 107.88 138.05 C 111.70 145.03 114.49 152.77 115.14 160.74 L 114.35 161.20 C 112.90 160.44 111.47 159.67 110.06 158.84 C 109.04 158.07 108.00 157.30 107.05 156.44 C 107.95 155.24 108.25 153.72 107.61 152.33 C 105.77 147.27 105.32 141.76 102.89 136.92 Z" />
</g>
<g id="#77644dff">
<path fill="#77644d" opacity="1.00" d=" M 121.78 137.25 C 123.47 137.15 125.16 137.03 126.86 136.94 C 130.61 137.00 134.36 137.02 138.12 137.02 C 141.15 137.06 144.16 137.16 147.20 137.23 C 138.81 138.52 130.18 138.35 121.78 137.25 Z" />
</g>
<g id="#958165fe">
<path fill="#958165" opacity="1.00" d=" M 107.88 138.05 L 108.75 137.75 C 111.15 137.87 113.53 138.25 115.79 139.09 C 117.56 141.90 120.82 142.45 123.76 143.35 C 122.83 146.33 124.87 150.59 121.76 152.74 C 118.55 155.16 121.34 159.63 121.01 162.99 C 119.18 163.06 117.06 163.31 115.81 161.67 C 115.64 161.44 115.31 160.97 115.14 160.74 C 114.49 152.77 111.70 145.03 107.88 138.05 Z" />
</g>
<g id="#8d7a61ff">
<path fill="#8d7a61" opacity="1.00" d=" M 115.79 139.09 C 118.45 139.12 121.11 139.16 123.78 139.21 C 129.82 139.76 136.35 141.23 142.27 139.25 C 145.81 138.92 149.35 138.94 152.91 138.78 C 152.88 142.74 148.43 143.87 145.87 145.93 C 139.69 151.72 131.93 155.34 125.09 160.21 C 124.80 161.58 125.44 162.84 125.95 164.06 L 125.01 164.08 C 123.83 163.64 120.82 164.97 121.01 162.99 C 121.34 159.63 118.55 155.16 121.76 152.74 C 124.87 150.59 122.83 146.33 123.76 143.35 C 120.82 142.45 117.56 141.90 115.79 139.09 Z" />
</g>
<g id="#826e55ff">
<path fill="#826e55" opacity="1.00" d=" M 123.78 139.21 C 129.94 138.96 136.10 138.98 142.27 139.25 C 136.35 141.23 129.82 139.76 123.78 139.21 Z" />
</g>
<g id="#715d46fa">
<path fill="#715d46" opacity="0.98" d=" M 135.38 159.43 C 144.40 154.41 152.05 147.37 160.01 140.91 C 161.46 141.34 161.93 143.07 162.85 144.14 C 162.61 144.59 162.13 145.47 161.89 145.92 C 159.66 145.15 156.98 145.53 155.56 147.58 C 150.72 152.46 142.68 155.67 140.74 162.75 C 136.62 165.91 129.92 164.32 124.99 165.03 L 125.01 164.08 L 125.95 164.06 C 130.23 165.28 132.08 161.06 135.38 159.43 Z" />
</g>
<g id="#b9a07cf8">
<path fill="#b9a07c" opacity="0.97" d=" M 95.23 145.00 L 95.96 145.11 C 96.62 145.62 97.27 146.15 97.91 146.69 C 95.61 150.41 94.18 154.68 93.76 159.04 C 92.79 158.76 91.84 158.44 90.90 158.07 C 90.48 153.24 94.71 149.68 95.23 145.00 Z" />
</g>
<g id="#917a5bfe">
<path fill="#917a5b" opacity="1.00" d=" M 155.56 147.58 C 156.98 145.53 159.66 145.15 161.89 145.92 C 161.88 150.97 165.15 155.28 165.33 160.30 C 159.48 164.90 151.14 163.18 144.30 164.25 C 143.94 164.69 143.23 165.57 142.87 166.01 L 142.33 166.01 C 141.78 164.93 141.24 163.85 140.74 162.75 C 142.68 155.67 150.72 152.46 155.56 147.58 Z" />
</g>
<g id="#a18865ff">
<path fill="#a18865" opacity="1.00" d=" M 93.76 159.04 C 94.18 154.68 95.61 150.41 97.91 146.69 C 98.76 147.41 99.58 148.18 100.36 148.98 L 100.02 149.66 C 97.04 152.69 97.70 156.88 96.99 160.49 C 95.55 160.15 94.04 160.07 92.69 160.76 C 92.28 160.55 91.46 160.11 91.05 159.89 C 91.01 159.44 90.94 158.53 90.90 158.07 C 91.84 158.44 92.79 158.76 93.76 159.04 Z" />
</g>
<g id="#907755ff">
<path fill="#907755" opacity="1.00" d=" M 96.99 160.49 C 97.70 156.88 97.04 152.69 100.02 149.66 C 101.73 151.23 103.39 152.87 104.95 154.59 C 103.81 156.60 102.99 158.80 103.58 161.12 C 101.34 161.19 99.14 160.98 96.99 160.49 Z" />
</g>
<g id="#715b40ff">
<path fill="#715b40" opacity="1.00" d=" M 103.58 161.12 C 102.99 158.80 103.81 156.60 104.95 154.59 C 105.48 155.05 106.53 155.98 107.05 156.44 C 108.00 157.30 109.04 158.07 110.06 158.84 C 108.44 162.15 104.95 162.24 101.68 162.78 L 100.72 162.99 C 99.15 162.60 97.58 162.21 96.00 161.89 C 94.90 161.50 93.80 161.12 92.69 160.76 C 94.04 160.07 95.55 160.15 96.99 160.49 C 99.14 160.98 101.34 161.19 103.58 161.12 Z" />
</g>
<g id="#55412cff">
<path fill="#55412c" opacity="1.00" d=" M 101.68 162.78 C 104.95 162.24 108.44 162.15 110.06 158.84 C 111.47 159.67 112.90 160.44 114.35 161.20 C 113.75 164.66 109.41 162.62 106.86 163.11 C 106.13 163.07 104.65 162.98 103.92 162.93 C 103.36 162.90 102.24 162.82 101.68 162.78 Z" />
</g>
<g id="#d5c19bf7">
<path fill="#d5c19b" opacity="0.97" d=" M 91.05 159.89 C 91.46 160.11 92.28 160.55 92.69 160.76 C 93.08 163.91 94.09 166.92 95.07 169.92 C 94.52 170.14 93.44 170.58 92.89 170.80 C 92.45 170.85 91.55 170.94 91.10 170.99 C 92.45 167.38 90.63 163.58 91.05 159.89 Z" />
</g>
<g id="#63543ff6">
<path fill="#63543f" opacity="0.96" d=" M 165.33 160.30 C 167.62 159.16 165.47 167.21 165.78 169.24 C 165.56 167.74 165.13 164.74 164.92 163.24 C 160.56 164.15 156.15 164.76 151.78 165.60 C 150.05 165.72 146.57 165.96 144.83 166.07 C 144.34 166.06 143.36 166.02 142.87 166.01 C 143.23 165.57 143.94 164.69 144.30 164.25 C 151.14 163.18 159.48 164.90 165.33 160.30 Z" />
</g>
<g id="#b29d7cff">
<path fill="#b29d7c" opacity="1.00" d=" M 92.69 160.76 C 93.80 161.12 94.90 161.50 96.00 161.89 C 96.99 164.57 98.11 167.21 99.03 169.92 C 97.71 169.95 96.39 169.95 95.07 169.92 C 94.09 166.92 93.08 163.91 92.69 160.76 Z" />
</g>
<g id="#6e5942fb">
<path fill="#6e5942" opacity="1.00" d=" M 114.35 161.20 L 115.14 160.74 C 115.31 160.97 115.64 161.44 115.81 161.67 C 115.17 164.88 117.00 168.02 117.96 171.02 L 117.18 171.11 C 115.11 171.28 113.07 171.66 111.02 171.98 C 113.44 168.49 108.74 165.64 106.86 163.11 C 109.41 162.62 113.75 164.66 114.35 161.20 Z" />
</g>
<g id="#9d8768ff">
<path fill="#9d8768" opacity="1.00" d=" M 96.00 161.89 C 97.58 162.21 99.15 162.60 100.72 162.99 C 101.79 165.84 103.51 168.37 105.11 170.94 C 103.31 170.95 101.50 171.08 99.82 171.76 C 97.88 171.69 95.97 171.25 94.05 170.99 L 92.89 170.80 C 93.44 170.58 94.52 170.14 95.07 169.92 C 96.39 169.95 97.71 169.95 99.03 169.92 C 98.11 167.21 96.99 164.57 96.00 161.89 Z" />
</g>
<g id="#8d785cff">
<path fill="#8d785c" opacity="1.00" d=" M 100.72 162.99 L 101.68 162.78 C 102.24 162.82 103.36 162.90 103.92 162.93 C 105.38 165.54 106.66 168.24 107.91 170.96 C 107.21 170.95 105.81 170.94 105.11 170.94 C 103.51 168.37 101.79 165.84 100.72 162.99 Z" />
</g>
<g id="#7b664dff">
<path fill="#7b664d" opacity="1.00" d=" M 103.92 162.93 C 104.65 162.98 106.13 163.07 106.86 163.11 C 108.74 165.64 113.44 168.49 111.02 171.98 C 109.93 172.22 108.85 172.51 107.78 172.84 C 105.08 172.89 102.47 172.13 99.82 171.76 C 101.50 171.08 103.31 170.95 105.11 170.94 C 105.81 170.94 107.21 170.95 107.91 170.96 C 106.66 168.24 105.38 165.54 103.92 162.93 Z" />
</g>
<g id="#907d65fe">
<path fill="#907d65" opacity="1.00" d=" M 151.78 165.60 C 156.15 164.76 160.56 164.15 164.92 163.24 C 165.13 164.74 165.56 167.74 165.78 169.24 C 165.83 169.98 165.94 171.44 165.99 172.18 C 165.07 172.43 164.14 172.62 163.20 172.74 C 159.77 169.80 156.73 165.48 151.78 165.60 Z" />
</g>
<g id="#cdae83fe">
<path fill="#cdae83" opacity="1.00" d=" M 142.33 166.01 L 142.87 166.01 C 143.43 168.33 143.29 170.68 142.47 173.03 C 141.51 170.91 141.37 168.14 142.33 166.01 Z" />
</g>
<g id="#aa926ffe">
<path fill="#aa926f" opacity="1.00" d=" M 142.87 166.01 C 143.36 166.02 144.34 166.06 144.83 166.07 C 145.59 168.30 147.12 170.38 146.96 172.82 C 145.42 173.40 143.83 173.81 142.22 174.11 L 142.47 173.03 C 143.29 170.68 143.43 168.33 142.87 166.01 Z" />
</g>
<g id="#9b8769ff">
<path fill="#9b8769" opacity="1.00" d=" M 144.83 166.07 C 146.57 165.96 150.05 165.72 151.78 165.60 C 156.73 165.48 159.77 169.80 163.20 172.74 C 162.10 172.53 158.10 173.53 161.04 174.11 C 161.58 174.16 162.67 174.25 163.21 174.30 C 156.17 175.37 149.03 174.95 141.94 175.00 L 142.22 174.11 C 143.83 173.81 145.42 173.40 146.96 172.82 C 147.12 170.38 145.59 168.30 144.83 166.07 Z" />
</g>
<g id="#ede0b8fc">
<path fill="#ede0b8" opacity="1.00" d=" M 87.01 173.18 C 88.21 172.14 89.33 170.79 91.10 170.99 C 91.55 170.94 92.45 170.85 92.89 170.80 L 94.05 170.99 C 92.17 172.63 90.29 174.28 88.31 175.80 C 87.87 174.93 87.43 174.05 87.01 173.18 Z" />
</g>
<g id="#d0bf9bfb">
<path fill="#d0bf9b" opacity="1.00" d=" M 94.05 170.99 C 95.97 171.25 97.88 171.69 99.82 171.76 C 99.17 173.46 98.46 175.13 97.78 176.82 C 96.45 177.01 95.08 177.11 93.80 177.58 C 90.48 178.35 89.85 182.30 90.01 185.18 C 88.30 185.10 86.69 184.50 85.13 183.85 C 84.93 181.18 85.08 178.48 84.12 175.96 C 84.29 174.70 85.72 173.23 87.01 173.18 C 87.43 174.05 87.87 174.93 88.31 175.80 C 90.29 174.28 92.17 172.63 94.05 170.99 Z" />
</g>
<g id="#544432ff">
<path fill="#544432" opacity="1.00" d=" M 111.02 171.98 C 113.07 171.66 115.11 171.28 117.18 171.11 C 115.47 174.06 111.75 172.70 108.87 172.91 L 107.78 172.84 C 108.85 172.51 109.93 172.22 111.02 171.98 Z" />
</g>
<g id="#86755ef8">
<path fill="#86755e" opacity="0.97" d=" M 117.18 171.11 L 117.96 171.02 C 119.78 170.63 118.76 173.65 119.38 174.71 C 119.26 177.17 121.41 181.07 118.77 182.80 C 110.01 185.35 100.85 186.71 91.73 185.79 C 93.32 185.60 96.49 185.22 98.08 185.03 C 99.35 184.80 100.27 183.85 101.28 183.14 C 105.13 181.64 111.82 177.49 108.87 172.91 C 111.75 172.70 115.47 174.06 117.18 171.11 Z" />
</g>
<g id="#ab987aff">
<path fill="#ab987a" opacity="1.00" d=" M 99.82 171.76 C 102.47 172.13 105.08 172.89 107.78 172.84 L 108.87 172.91 C 111.82 177.49 105.13 181.64 101.28 183.14 C 100.97 181.67 100.75 180.15 99.90 178.87 C 99.22 178.15 98.52 177.47 97.78 176.82 C 98.46 175.13 99.17 173.46 99.82 171.76 Z" />
</g>
<g id="#736551f9">
<path fill="#736551" opacity="0.98" d=" M 163.20 172.74 C 164.14 172.62 165.07 172.43 165.99 172.18 C 166.22 172.63 166.68 173.53 166.92 173.98 C 165.68 174.07 164.44 174.18 163.21 174.30 C 162.67 174.25 161.58 174.16 161.04 174.11 C 158.10 173.53 162.10 172.53 163.20 172.74 Z" />
</g>
<g id="#cdbb99fe">
<path fill="#cdbb99" opacity="1.00" d=" M 163.21 174.30 C 164.44 174.18 165.68 174.07 166.92 173.98 C 167.93 175.64 168.89 177.37 169.35 179.28 C 167.88 179.78 166.37 180.11 164.87 180.43 L 164.05 180.42 C 162.95 180.27 161.91 180.67 160.89 181.02 C 157.48 180.10 154.15 178.72 150.86 180.92 C 150.42 180.93 149.55 180.95 149.11 180.96 C 146.26 180.41 144.02 181.74 142.58 184.14 C 140.33 181.00 147.02 180.94 145.25 177.91 C 145.50 175.36 142.80 176.17 141.17 175.92 L 140.95 175.02 L 141.94 175.00 C 149.03 174.95 156.17 175.37 163.21 174.30 Z" />
</g>
<g id="#847f73ee">
<path fill="#847f73" opacity="0.93" d=" M 82.06 175.89 C 82.58 175.91 83.60 175.94 84.12 175.96 C 85.08 178.48 84.93 181.18 85.13 183.85 C 82.80 182.81 75.83 186.20 75.91 182.17 L 76.70 182.28 C 82.91 185.84 84.66 181.44 82.32 176.64 L 82.06 175.89 Z" />
</g>
<g id="#dccca9f8">
<path fill="#dccca9" opacity="0.97" d=" M 141.17 175.92 C 142.80 176.17 145.50 175.36 145.25 177.91 C 147.02 180.94 140.33 181.00 142.58 184.14 C 143.08 185.43 143.64 186.70 144.16 187.98 C 138.80 186.46 137.90 179.93 141.17 175.92 Z" />
</g>
<g id="#dbd5c5f8">
<path fill="#dbd5c5" opacity="0.97" d=" M 76.70 182.28 C 77.99 179.98 79.23 176.75 82.32 176.64 C 84.66 181.44 82.91 185.84 76.70 182.28 Z" />
</g>
<g id="#8c8474ff">
<path fill="#8c8474" opacity="1.00" d=" M 93.80 177.58 C 95.08 177.11 96.45 177.01 97.78 176.82 C 98.52 177.47 99.22 178.15 99.90 178.87 C 99.69 179.15 99.26 179.71 99.05 179.99 L 98.18 179.61 C 96.74 178.89 95.29 178.19 93.80 177.58 Z" />
</g>
<g id="#eae1cbff">
<path fill="#eae1cb" opacity="1.00" d=" M 90.01 185.18 C 89.85 182.30 90.48 178.35 93.80 177.58 C 95.29 178.19 96.74 178.89 98.18 179.61 C 94.88 180.51 92.45 182.92 90.01 185.18 Z" />
</g>
<g id="#5d554aff">
<path fill="#5d554a" opacity="1.00" d=" M 99.05 179.99 C 99.26 179.71 99.69 179.15 99.90 178.87 C 100.75 180.15 100.97 181.67 101.28 183.14 C 100.27 183.85 99.35 184.80 98.08 185.03 C 98.78 183.44 98.97 181.71 99.05 179.99 Z" />
</g>
<g id="#c1ae8dff">
<path fill="#c1ae8d" opacity="1.00" d=" M 150.86 180.92 C 154.15 178.72 157.48 180.10 160.89 181.02 C 160.53 181.97 160.19 182.93 159.87 183.90 C 157.26 184.20 154.68 184.51 152.10 184.93 C 151.70 183.59 151.26 182.26 150.86 180.92 Z" />
</g>
<g id="#a69985f4">
<path fill="#a69985" opacity="0.96" d=" M 169.35 179.28 C 170.86 179.96 169.53 186.07 167.06 187.08 C 168.25 183.51 167.51 181.30 164.87 180.43 C 166.37 180.11 167.88 179.78 169.35 179.28 Z" />
</g>
<g id="#b6ab9afb">
<path fill="#b6ab9a" opacity="1.00" d=" M 90.01 185.18 C 92.45 182.92 94.88 180.51 98.18 179.61 L 99.05 179.99 C 98.97 181.71 98.78 183.44 98.08 185.03 C 96.49 185.22 93.32 185.60 91.73 185.79 C 91.30 185.64 90.44 185.33 90.01 185.18 Z" />
</g>
<g id="#8f8473ff">
<path fill="#8f8473" opacity="1.00" d=" M 160.89 181.02 C 161.91 180.67 162.95 180.27 164.05 180.42 C 161.79 182.29 160.37 185.18 162.06 187.93 C 161.55 187.93 160.54 187.93 160.03 187.94 C 159.98 186.59 159.92 185.24 159.87 183.90 C 160.19 182.93 160.53 181.97 160.89 181.02 Z" />
</g>
<g id="#f7f3e1ff">
<path fill="#f7f3e1" opacity="1.00" d=" M 142.58 184.14 C 144.02 181.74 146.26 180.41 149.11 180.96 L 149.21 181.80 C 148.12 183.86 147.02 185.92 145.98 188.01 C 145.52 188.01 144.62 187.99 144.16 187.98 C 143.64 186.70 143.08 185.43 142.58 184.14 Z" />
</g>
<g id="#897e6cff">
<path fill="#897e6c" opacity="1.00" d=" M 149.11 180.96 C 149.55 180.95 150.42 180.93 150.86 180.92 C 151.26 182.26 151.70 183.59 152.10 184.93 C 151.67 185.91 151.26 186.89 150.87 187.89 L 149.98 187.89 C 149.79 186.37 149.41 183.32 149.21 181.80 L 149.11 180.96 Z" />
</g>
<g id="#f1ebd7fd">
<path fill="#f1ebd7" opacity="1.00" d=" M 162.06 187.93 C 160.37 185.18 161.79 182.29 164.05 180.42 L 164.87 180.43 C 167.51 181.30 168.25 183.51 167.06 187.08 C 167.42 188.84 166.83 189.37 165.28 188.68 C 164.21 188.39 163.14 188.14 162.06 187.93 Z" />
</g>
<g id="#c9beacfe">
<path fill="#c9beac" opacity="1.00" d=" M 149.21 181.80 C 149.41 183.32 149.79 186.37 149.98 187.89 C 148.86 188.12 147.76 188.38 146.67 188.68 L 145.82 188.88 L 145.98 188.01 C 147.02 185.92 148.12 183.86 149.21 181.80 Z" />
</g>
<g id="#ae9d84fe">
<path fill="#ae9d84" opacity="1.00" d=" M 152.10 184.93 C 154.68 184.51 157.26 184.20 159.87 183.90 C 159.92 185.24 159.98 186.59 160.03 187.94 C 156.97 187.96 153.92 187.98 150.87 187.89 C 151.26 186.89 151.67 185.91 152.10 184.93 Z" />
</g>
<g id="#574f44b9">
<path fill="#574f44" opacity="0.73" d=" M 146.67 188.68 C 147.76 188.38 148.86 188.12 149.98 187.89 L 150.87 187.89 C 153.92 187.98 156.97 187.96 160.03 187.94 C 160.54 187.93 161.55 187.93 162.06 187.93 C 163.14 188.14 164.21 188.39 165.28 188.68 C 159.09 189.00 152.84 189.40 146.67 188.68 Z" />
</g>
</svg>
