<?xml version="1.0" encoding="UTF-8" ?>
<!DOCTYPE svg PUBLIC "-//W3C//DTD SVG 1.1//EN" "http://www.w3.org/Graphics/SVG/1.1/DTD/svg11.dtd">
<svg width="120pt" height="129pt" viewBox="0 0 120 129" version="1.1" xmlns="http://www.w3.org/2000/svg">
<g id="#fcefd8ff">
<path fill="#fcefd8" opacity="1.00" d=" M 80.92 29.94 C 84.67 28.21 87.17 24.57 90.96 22.94 C 92.39 22.99 93.45 24.03 94.58 24.76 C 94.27 24.98 93.65 25.42 93.34 25.64 C 91.32 26.96 89.51 28.57 87.91 30.37 C 87.51 30.52 86.73 30.82 86.34 30.96 C 85.64 30.45 84.95 29.92 84.27 29.39 C 83.76 30.51 83.32 31.66 82.63 32.68 C 80.08 34.59 76.09 34.42 74.44 37.52 C 71.40 42.74 66.60 46.83 64.52 52.59 C 61.99 59.16 58.26 65.16 55.47 71.62 C 53.93 75.76 49.73 78.05 48.06 82.10 C 47.82 81.05 47.56 79.99 47.30 78.94 C 46.47 79.75 45.65 80.56 44.83 81.38 C 44.84 78.13 44.80 74.87 44.18 71.67 C 44.17 70.07 44.37 68.49 44.43 66.90 C 45.31 66.91 46.19 66.92 47.07 66.92 C 47.71 63.64 48.63 60.16 47.30 56.91 C 46.74 56.85 45.60 56.73 45.03 56.67 C 44.47 52.65 44.29 48.52 45.33 44.56 C 46.72 47.24 47.53 52.45 51.75 50.91 C 58.94 46.00 64.11 38.91 68.39 31.45 C 70.42 30.98 72.44 30.48 74.49 30.10 C 76.63 30.11 78.82 30.56 80.92 29.94 Z" />
</g>
<g id="#e8dac6ff">
<path fill="#e8dac6" opacity="1.00" d=" M 36.87 29.05 C 35.63 26.11 39.34 23.22 41.91 24.89 C 44.78 26.89 47.45 29.24 50.72 30.59 C 47.87 33.15 45.07 35.79 42.65 38.77 C 41.12 35.30 38.67 32.37 36.87 29.05 Z" />
</g>
<g id="#95795eff">
<path fill="#95795e" opacity="1.00" d=" M 94.58 24.76 C 96.10 28.55 91.85 31.28 90.39 34.41 C 88.53 36.55 89.33 39.37 89.70 41.88 C 88.52 40.71 87.27 39.62 86.01 38.53 C 86.16 33.20 91.48 30.30 93.34 25.64 C 93.65 25.42 94.27 24.98 94.58 24.76 Z" />
<path fill="#95795e" opacity="1.00" d=" M 34.20 60.67 C 34.44 60.99 34.93 61.64 35.17 61.97 C 35.06 64.68 34.62 67.35 34.20 70.03 C 33.40 74.72 35.60 79.16 36.77 83.59 C 37.34 83.25 38.48 82.57 39.05 82.23 C 38.46 83.13 37.92 84.07 37.40 85.02 C 38.00 86.93 37.51 88.85 37.00 90.72 C 35.29 88.53 33.74 86.22 32.32 83.84 C 30.15 80.13 29.28 75.41 25.18 73.18 C 27.59 71.32 29.99 69.44 32.30 67.47 C 32.85 65.18 33.45 62.90 34.20 60.67 Z" />
</g>
<g id="#b8a692ff">
<path fill="#b8a692" opacity="1.00" d=" M 87.91 30.37 C 89.51 28.57 91.32 26.96 93.34 25.64 C 91.48 30.30 86.16 33.20 86.01 38.53 C 87.41 41.06 88.80 43.64 89.18 46.55 C 87.12 46.41 85.06 46.25 83.01 45.99 C 82.45 45.61 81.32 44.86 80.76 44.48 C 79.12 45.19 77.47 45.88 75.88 46.68 C 73.97 49.22 72.62 52.10 71.19 54.92 C 68.05 58.59 66.69 63.30 67.66 68.07 C 65.89 70.16 63.88 72.02 61.90 73.91 C 59.12 76.47 58.76 80.56 56.43 83.45 C 54.89 85.38 53.19 87.18 51.58 89.06 C 50.73 88.00 49.77 86.54 50.65 85.20 C 52.68 83.03 55.43 81.47 56.70 78.66 C 59.07 74.09 62.37 70.02 64.16 65.16 C 66.74 58.17 70.44 51.64 74.42 45.36 C 76.26 42.09 80.52 42.86 83.64 41.98 C 83.34 37.58 85.22 33.71 87.91 30.37 Z" />
</g>
<g id="#fffee0ff">
<path fill="#fffee0" opacity="1.00" d=" M 50.72 30.59 C 55.24 31.62 59.48 29.41 63.95 29.25 C 67.48 28.92 71.05 29.27 74.49 30.10 C 72.44 30.48 70.42 30.98 68.39 31.45 C 64.11 38.91 58.94 46.00 51.75 50.91 C 47.53 52.45 46.72 47.24 45.33 44.56 C 44.29 48.52 44.47 52.65 45.03 56.67 C 44.45 56.67 43.29 56.66 42.70 56.65 C 41.29 55.38 41.57 52.23 40.93 50.21 C 44.03 47.20 42.81 42.65 42.60 38.84 L 42.65 38.77 C 45.07 35.79 47.87 33.15 50.72 30.59 Z" />
</g>
<g id="#e0d2c0ff">
<path fill="#e0d2c0" opacity="1.00" d=" M 84.27 29.39 C 84.95 29.92 85.64 30.45 86.34 30.96 C 84.58 32.69 83.17 34.72 81.64 36.64 C 79.36 39.73 75.50 41.17 73.38 44.41 C 70.97 47.99 68.50 51.53 66.26 55.21 C 60.98 65.17 57.50 76.70 48.41 84.04 C 48.32 83.55 48.14 82.59 48.06 82.10 C 49.73 78.05 53.93 75.76 55.47 71.62 C 58.26 65.16 61.99 59.16 64.52 52.59 C 66.60 46.83 71.40 42.74 74.44 37.52 C 76.09 34.42 80.08 34.59 82.63 32.68 C 83.32 31.66 83.76 30.51 84.27 29.39 Z" />
</g>
<g id="#cabfa9ff">
<path fill="#cabfa9" opacity="1.00" d=" M 86.34 30.96 C 86.73 30.82 87.51 30.52 87.91 30.37 C 85.22 33.71 83.34 37.58 83.64 41.98 C 80.52 42.86 76.26 42.09 74.42 45.36 C 70.44 51.64 66.74 58.17 64.16 65.16 C 62.37 70.02 59.07 74.09 56.70 78.66 C 55.43 81.47 52.68 83.03 50.65 85.20 C 49.77 86.54 50.73 88.00 51.58 89.06 C 54.20 90.24 57.34 91.94 60.09 90.10 C 60.49 89.85 61.27 89.35 61.67 89.09 C 65.57 90.88 70.43 91.09 73.36 94.58 C 74.44 95.76 75.41 97.06 76.39 98.33 C 75.04 101.85 74.16 105.70 71.75 108.69 C 67.96 112.92 63.88 117.58 57.90 118.37 C 54.71 117.35 51.75 115.74 48.87 114.04 C 48.17 113.05 47.50 112.04 46.86 111.01 C 49.92 111.94 53.45 114.96 56.53 112.57 C 60.07 110.24 64.47 108.43 66.38 104.36 C 67.61 102.12 66.35 99.66 65.76 97.43 C 59.16 94.57 51.30 93.86 46.00 88.61 C 47.38 86.74 48.28 84.63 46.00 83.00 C 45.71 82.59 45.12 81.78 44.83 81.38 C 45.65 80.56 46.47 79.75 47.30 78.94 C 47.56 79.99 47.82 81.05 48.06 82.10 C 48.14 82.59 48.32 83.55 48.41 84.04 C 57.50 76.70 60.98 65.17 66.26 55.21 C 68.50 51.53 70.97 47.99 73.38 44.41 C 75.50 41.17 79.36 39.73 81.64 36.64 C 83.17 34.72 84.58 32.69 86.34 30.96 Z" />
</g>
<g id="#a9947eff">
<path fill="#a9947e" opacity="1.00" d=" M 86.01 38.53 C 87.27 39.62 88.52 40.71 89.70 41.88 C 91.26 43.44 92.75 45.34 95.04 45.81 C 96.97 46.54 99.35 46.50 100.85 48.10 C 101.73 51.07 100.64 54.09 99.83 56.95 L 98.79 56.75 C 95.26 56.08 91.66 55.46 88.05 55.82 C 86.51 52.47 85.01 49.09 83.01 45.99 C 85.06 46.25 87.12 46.41 89.18 46.55 C 88.80 43.64 87.41 41.06 86.01 38.53 M 96.48 47.14 C 96.69 48.45 97.42 48.71 98.70 47.91 C 98.49 46.59 97.75 46.33 96.48 47.14 Z" />
</g>
<g id="#806b58ff">
<path fill="#806b58" opacity="1.00" d=" M 75.88 46.68 C 77.47 45.88 79.12 45.19 80.76 44.48 C 81.32 44.86 82.45 45.61 83.01 45.99 C 85.01 49.09 86.51 52.47 88.05 55.82 C 87.22 56.09 86.39 56.37 85.57 56.66 C 83.90 53.11 81.32 50.13 78.81 47.16 C 78.07 47.04 76.61 46.80 75.88 46.68 Z" />
</g>
<g id="#784e27ff">
<path fill="#784e27" opacity="1.00" d=" M 71.19 54.92 C 72.62 52.10 73.97 49.22 75.88 46.68 C 76.61 46.80 78.07 47.04 78.81 47.16 C 81.32 50.13 83.90 53.11 85.57 56.66 C 84.86 60.02 83.97 63.96 80.87 65.93 C 77.56 67.18 74.04 65.88 70.72 65.37 C 69.78 61.91 70.39 58.33 71.19 54.92 M 75.17 56.98 C 74.99 57.14 74.63 57.45 74.45 57.61 L 74.25 57.12 C 73.73 59.11 73.23 61.12 72.74 63.13 C 74.89 64.27 78.80 64.07 79.02 61.03 C 79.93 60.56 80.84 60.09 81.75 59.62 C 80.87 57.39 80.66 53.71 78.09 52.98 C 78.31 52.41 78.75 51.26 78.97 50.68 C 76.68 51.96 76.09 54.74 75.17 56.98 Z" />
</g>
<g id="#d2baa1ff">
<path fill="#d2baa1" opacity="1.00" d=" M 96.48 47.14 C 97.75 46.33 98.49 46.59 98.70 47.91 C 97.42 48.71 96.69 48.45 96.48 47.14 Z" />
</g>
<g id="#221815ff">
<path fill="#221815" opacity="1.00" d=" M 75.17 56.98 C 76.09 54.74 76.68 51.96 78.97 50.68 C 78.75 51.26 78.31 52.41 78.09 52.98 C 77.95 53.37 77.66 54.16 77.51 54.55 C 78.12 56.68 78.81 58.81 79.02 61.03 C 78.80 64.07 74.89 64.27 72.74 63.13 C 73.23 61.12 73.73 59.11 74.25 57.12 L 74.45 57.61 C 74.95 58.84 75.52 60.05 76.05 61.27 C 76.34 59.95 76.64 58.63 76.95 57.31 C 76.50 57.23 75.61 57.06 75.17 56.98 Z" />
</g>
<g id="#d6d6d6ff">
<path fill="#d6d6d6" opacity="1.00" d=" M 78.09 52.98 C 80.66 53.71 80.87 57.39 81.75 59.62 C 80.84 60.09 79.93 60.56 79.02 61.03 C 78.81 58.81 78.12 56.68 77.51 54.55 C 77.66 54.16 77.95 53.37 78.09 52.98 Z" />
</g>
<g id="#9f876eff">
<path fill="#9f876e" opacity="1.00" d=" M 67.66 68.07 C 66.69 63.30 68.05 58.59 71.19 54.92 C 70.39 58.33 69.78 61.91 70.72 65.37 C 74.95 68.69 80.55 66.65 85.42 67.52 C 86.90 69.06 87.56 71.15 88.42 73.05 C 87.84 74.46 86.86 75.22 85.47 75.34 C 82.90 75.16 79.85 73.54 77.64 75.49 C 76.81 78.12 76.78 80.90 76.59 83.63 C 76.06 83.56 75.54 83.48 75.01 83.40 C 73.82 82.37 72.49 81.55 71.04 80.96 C 69.81 78.82 68.24 76.88 65.92 75.86 C 65.52 75.61 64.70 75.10 64.29 74.85 C 64.57 74.31 65.13 73.24 65.40 72.70 C 62.10 75.62 61.35 80.07 61.17 84.26 C 60.37 86.21 59.33 88.04 58.30 89.88 C 58.75 89.94 59.65 90.05 60.09 90.10 C 57.34 91.94 54.20 90.24 51.58 89.06 C 53.19 87.18 54.89 85.38 56.43 83.45 C 58.76 80.56 59.12 76.47 61.90 73.91 C 63.88 72.02 65.89 70.16 67.66 68.07 Z" />
</g>
<g id="#74614dff">
<path fill="#74614d" opacity="1.00" d=" M 85.57 56.66 C 86.39 56.37 87.22 56.09 88.05 55.82 C 91.66 55.46 95.26 56.08 98.79 56.75 C 98.15 57.77 97.51 58.79 96.88 59.82 C 96.89 59.36 96.91 58.46 96.92 58.00 C 94.21 57.61 90.99 56.71 88.62 58.59 C 87.11 60.62 86.24 63.04 85.17 65.31 C 88.07 66.09 90.94 67.01 93.65 68.32 L 93.95 68.46 C 92.46 68.75 90.96 69.04 89.47 69.32 C 89.10 70.56 88.74 71.80 88.42 73.05 C 87.56 71.15 86.90 69.06 85.42 67.52 C 80.55 66.65 74.95 68.69 70.72 65.37 C 74.04 65.88 77.56 67.18 80.87 65.93 C 83.97 63.96 84.86 60.02 85.57 56.66 Z" />
</g>
<g id="#d5c7b4ff">
<path fill="#d5c7b4" opacity="1.00" d=" M 27.99 57.83 C 30.31 57.67 33.02 57.66 34.47 59.85 L 34.20 60.67 C 33.45 62.90 32.85 65.18 32.30 67.47 C 29.99 69.44 27.59 71.32 25.18 73.18 L 24.77 73.50 C 22.11 72.73 20.36 69.65 21.88 67.13 C 21.87 67.66 21.86 68.73 21.85 69.26 C 24.30 68.45 26.68 67.43 28.95 66.21 C 28.12 63.12 28.52 60.04 31.19 57.99 C 30.39 57.95 28.79 57.87 27.99 57.83 Z" />
</g>
<g id="#f9ecb4ff">
<path fill="#f9ecb4" opacity="1.00" d=" M 42.70 56.65 C 43.29 56.66 44.45 56.67 45.03 56.67 C 45.60 56.73 46.74 56.85 47.30 56.91 C 48.63 60.16 47.71 63.64 47.07 66.92 C 46.19 66.92 45.31 66.91 44.43 66.90 C 43.81 63.49 43.40 60.05 42.70 56.65 Z" />
</g>
<g id="#c6bdbdff">
<path fill="#c6bdbd" opacity="1.00" d=" M 74.45 57.61 C 74.63 57.45 74.99 57.14 75.17 56.98 C 75.61 57.06 76.50 57.23 76.95 57.31 C 76.64 58.63 76.34 59.95 76.05 61.27 C 75.52 60.05 74.95 58.84 74.45 57.61 Z" />
<path fill="#c6bdbd" opacity="1.00" d=" M 47.48 117.35 C 48.62 118.00 49.84 118.52 50.91 119.32 C 51.27 119.74 52.01 120.57 52.37 120.99 C 50.16 121.00 47.95 121.08 45.75 121.20 C 46.33 119.92 46.97 118.66 47.48 117.35 Z" />
<path fill="#c6bdbd" opacity="1.00" d=" M 79.62 121.37 C 82.04 121.48 84.20 122.50 85.84 124.31 C 83.45 124.50 80.87 125.46 78.61 124.24 C 78.86 123.52 79.37 122.09 79.62 121.37 Z" />
</g>
<g id="#9b836aff">
<path fill="#9b836a" opacity="1.00" d=" M 88.62 58.59 C 90.99 56.71 94.21 57.61 96.92 58.00 C 96.91 58.46 96.89 59.36 96.88 59.82 C 96.45 62.84 95.53 65.87 93.65 68.32 C 90.94 67.01 88.07 66.09 85.17 65.31 C 86.24 63.04 87.11 60.62 88.62 58.59 Z" />
</g>
<g id="#f7eacaff">
<path fill="#f7eaca" opacity="1.00" d=" M 24.13 61.07 C 25.30 59.92 26.11 57.84 27.99 57.83 C 28.79 57.87 30.39 57.95 31.19 57.99 C 28.52 60.04 28.12 63.12 28.95 66.21 C 26.68 67.43 24.30 68.45 21.85 69.26 C 21.86 68.73 21.87 67.66 21.88 67.13 C 24.09 65.79 24.17 63.41 24.13 61.07 Z" />
</g>
<g id="#241f195f">
<path fill="#241f19" opacity="0.37" d=" M 35.17 61.97 C 36.19 64.68 35.02 67.44 34.20 70.03 C 34.62 67.35 35.06 64.68 35.17 61.97 Z" />
</g>
<g id="#ab8550ff">
<path fill="#ab8550" opacity="1.00" d=" M 44.18 71.67 C 44.80 74.87 44.84 78.13 44.83 81.38 C 45.12 81.78 45.71 82.59 46.00 83.00 C 43.57 85.13 40.57 86.48 37.40 85.02 C 37.92 84.07 38.46 83.13 39.05 82.23 C 40.73 80.74 42.70 79.58 44.22 77.90 C 45.32 75.92 44.13 73.74 44.18 71.67 Z" />
</g>
<g id="#201a14ff">
<path fill="#201a14" opacity="1.00" d=" M 61.17 84.26 C 61.35 80.07 62.10 75.62 65.40 72.70 C 65.13 73.24 64.57 74.31 64.29 74.85 C 64.70 75.10 65.52 75.61 65.92 75.86 C 65.99 77.18 66.04 78.50 66.06 79.82 C 64.74 81.30 63.49 82.83 62.31 84.42 C 62.03 84.38 61.46 84.30 61.17 84.26 Z" />
<path fill="#201a14" opacity="1.00" d=" M 45.75 121.20 C 47.95 121.08 50.16 121.00 52.37 120.99 C 53.03 120.99 54.35 120.99 55.00 120.99 C 51.94 121.45 48.83 121.47 45.75 121.20 Z" />
</g>
<g id="#896439ff">
<path fill="#896439" opacity="1.00" d=" M 77.64 75.49 C 79.85 73.54 82.90 75.16 85.47 75.34 C 86.74 76.78 88.26 77.96 89.82 79.07 C 87.95 81.81 84.72 80.26 82.03 80.39 C 80.06 81.17 78.59 82.86 76.59 83.63 C 76.78 80.90 76.81 78.12 77.64 75.49 Z" />
</g>
<g id="#746049ff">
<path fill="#746049" opacity="1.00" d=" M 65.92 75.86 C 68.24 76.88 69.81 78.82 71.04 80.96 C 70.15 81.73 69.26 82.51 68.38 83.29 C 68.46 82.44 68.55 81.60 68.64 80.75 C 67.78 80.44 66.92 80.13 66.06 79.82 C 66.04 78.50 65.99 77.18 65.92 75.86 Z" />
</g>
<g id="#947245ff">
<path fill="#947245" opacity="1.00" d=" M 89.82 79.07 C 91.32 80.31 92.75 81.64 94.15 82.99 C 91.79 84.07 87.22 83.54 87.37 87.09 C 87.46 88.82 88.08 90.46 88.63 92.08 C 88.82 92.63 89.00 93.18 89.18 93.74 C 87.30 94.82 85.44 95.94 83.61 97.10 C 81.20 93.65 79.37 89.64 75.98 87.00 C 74.50 85.54 72.42 86.45 70.68 86.72 C 69.45 85.88 68.18 85.11 66.92 84.32 C 65.15 85.89 63.42 87.51 61.67 89.09 C 61.27 89.35 60.49 89.85 60.09 90.10 C 59.65 90.05 58.75 89.94 58.30 89.88 C 59.33 88.04 60.37 86.21 61.17 84.26 C 61.46 84.30 62.03 84.38 62.31 84.42 C 63.49 82.83 64.74 81.30 66.06 79.82 C 66.92 80.13 67.78 80.44 68.64 80.75 C 68.55 81.60 68.46 82.44 68.38 83.29 C 69.26 82.51 70.15 81.73 71.04 80.96 C 72.49 81.55 73.82 82.37 75.01 83.40 C 75.54 83.48 76.06 83.56 76.59 83.63 C 78.59 82.86 80.06 81.17 82.03 80.39 C 84.72 80.26 87.95 81.81 89.82 79.07 Z" />
</g>
<g id="#896941ff">
<path fill="#896941" opacity="1.00" d=" M 37.40 85.02 C 40.57 86.48 43.57 85.13 46.00 83.00 C 48.28 84.63 47.38 86.74 46.00 88.61 C 43.49 89.80 41.47 91.71 39.62 93.73 C 38.69 93.78 37.77 93.82 36.84 93.86 C 36.87 92.81 36.92 91.76 37.00 90.72 C 37.51 88.85 38.00 86.93 37.40 85.02 Z" />
</g>
<g id="#b69158ff">
<path fill="#b69158" opacity="1.00" d=" M 87.37 87.09 C 87.22 83.54 91.79 84.07 94.15 82.99 C 96.27 85.51 97.67 88.50 99.26 91.36 C 97.73 93.86 96.11 96.30 94.31 98.61 C 93.50 97.36 91.24 96.60 91.71 94.81 C 91.66 94.42 91.55 93.65 91.50 93.26 L 90.73 93.09 C 90.20 92.83 89.15 92.33 88.63 92.08 C 88.08 90.46 87.46 88.82 87.37 87.09 Z" />
</g>
<g id="#b28e5bff">
<path fill="#b28e5b" opacity="1.00" d=" M 32.32 83.84 C 33.74 86.22 35.29 88.53 37.00 90.72 C 36.92 91.76 36.87 92.81 36.84 93.86 L 36.18 93.87 C 31.69 93.17 31.56 87.41 32.32 83.84 Z" />
</g>
<g id="#bcae9aff">
<path fill="#bcae9a" opacity="1.00" d=" M 61.67 89.09 C 63.42 87.51 65.15 85.89 66.92 84.32 C 68.18 85.11 69.45 85.88 70.68 86.72 C 76.44 91.45 79.12 98.90 78.28 106.26 C 77.51 108.13 76.72 110.00 76.03 111.91 C 75.58 111.81 74.69 111.60 74.25 111.50 C 71.84 114.85 68.66 117.49 65.59 120.19 C 64.94 120.06 63.65 119.79 63.00 119.65 C 61.29 119.27 59.59 118.86 57.90 118.37 C 63.88 117.58 67.96 112.92 71.75 108.69 C 74.16 105.70 75.04 101.85 76.39 98.33 C 75.41 97.06 74.44 95.76 73.36 94.58 C 70.43 91.09 65.57 90.88 61.67 89.09 Z" />
</g>
<g id="#a1814fff">
<path fill="#a1814f" opacity="1.00" d=" M 70.68 86.72 C 72.42 86.45 74.50 85.54 75.98 87.00 C 79.37 89.64 81.20 93.65 83.61 97.10 C 82.51 99.85 81.25 102.52 80.06 105.24 C 79.88 104.93 79.51 104.30 79.33 103.99 C 79.07 104.56 78.54 105.69 78.28 106.26 C 79.12 98.90 76.44 91.45 70.68 86.72 Z" />
</g>
<g id="#dacdb6ff">
<path fill="#dacdb6" opacity="1.00" d=" M 46.00 88.61 C 51.30 93.86 59.16 94.57 65.76 97.43 C 66.35 99.66 67.61 102.12 66.38 104.36 C 64.47 108.43 60.07 110.24 56.53 112.57 C 53.45 114.96 49.92 111.94 46.86 111.01 C 44.06 106.76 43.51 101.55 43.81 96.59 C 44.94 94.05 45.47 91.32 46.00 88.61 Z" />
</g>
<g id="#95794dff">
<path fill="#95794d" opacity="1.00" d=" M 94.31 98.61 C 96.11 96.30 97.73 93.86 99.26 91.36 C 100.45 93.68 101.23 97.20 98.80 99.02 C 97.30 99.85 95.51 99.13 93.92 99.14 L 94.31 98.61 Z" />
</g>
<g id="#978468ff">
<path fill="#978468" opacity="1.00" d=" M 36.84 93.86 C 37.77 93.82 38.69 93.78 39.62 93.73 C 40.24 95.55 40.66 97.48 41.75 99.09 C 41.79 99.73 41.87 100.99 41.91 101.63 L 41.37 101.85 C 38.10 100.46 37.66 96.68 36.18 93.87 L 36.84 93.86 Z" />
</g>
<g id="#b4afb4ff">
<path fill="#b4afb4" opacity="1.00" d=" M 90.73 93.09 L 91.50 93.26 C 91.55 93.65 91.66 94.42 91.71 94.81 C 91.37 94.57 90.69 94.11 90.36 93.87 L 90.73 93.09 Z" />
</g>
<g id="#b2915bff">
<path fill="#b2915b" opacity="1.00" d=" M 83.61 97.10 C 85.44 95.94 87.30 94.82 89.18 93.74 C 90.81 95.64 92.79 97.31 93.81 99.66 C 93.18 99.61 91.91 99.49 91.27 99.43 C 90.09 103.70 89.99 108.55 87.17 112.17 C 84.37 114.84 80.50 118.21 76.46 115.98 C 77.56 112.37 78.78 108.79 80.06 105.24 C 81.25 102.52 82.51 99.85 83.61 97.10 Z" />
</g>
<g id="#b48d5aff">
<path fill="#b48d5a" opacity="1.00" d=" M 41.75 99.09 C 42.44 98.26 43.13 97.42 43.81 96.59 C 43.51 101.55 44.06 106.76 46.86 111.01 C 47.50 112.04 48.17 113.05 48.87 114.04 L 47.22 113.64 C 48.36 115.59 49.55 117.51 50.91 119.32 C 49.84 118.52 48.62 118.00 47.48 117.35 C 42.09 114.88 40.36 108.14 40.98 102.69 L 41.37 101.85 L 41.91 101.63 C 41.87 100.99 41.79 99.73 41.75 99.09 Z" />
</g>
<g id="#9f8252ff">
<path fill="#9f8252" opacity="1.00" d=" M 91.27 99.43 C 91.91 99.49 93.18 99.61 93.81 99.66 C 94.45 102.38 94.18 105.24 95.04 107.91 C 93.08 110.87 92.41 114.42 90.64 117.48 C 89.68 119.15 89.41 121.07 88.92 122.89 C 88.04 123.64 86.88 123.88 85.84 124.31 C 84.20 122.50 82.04 121.48 79.62 121.37 C 77.95 121.26 76.54 120.60 75.38 119.39 C 75.75 118.25 76.10 117.12 76.46 115.98 C 80.50 118.21 84.37 114.84 87.17 112.17 C 89.99 108.55 90.09 103.70 91.27 99.43 Z" />
</g>
<g id="#80663ded">
<path fill="#80663d" opacity="0.93" d=" M 79.33 103.99 C 79.51 104.30 79.88 104.93 80.06 105.24 C 78.78 108.79 77.56 112.37 76.46 115.98 C 76.10 117.12 75.75 118.25 75.38 119.39 C 73.51 119.52 71.64 119.70 69.77 119.84 C 71.30 119.56 72.80 119.20 74.31 118.86 C 74.71 116.51 75.24 114.17 76.03 111.91 C 76.72 110.00 77.51 108.13 78.28 106.26 C 78.54 105.69 79.07 104.56 79.33 103.99 Z" />
</g>
<g id="#a29581fe">
<path fill="#a29581" opacity="1.00" d=" M 74.25 111.50 C 74.69 111.60 75.58 111.81 76.03 111.91 C 75.24 114.17 74.71 116.51 74.31 118.86 C 72.80 119.20 71.30 119.56 69.77 119.84 C 68.38 120.02 66.99 120.13 65.59 120.19 C 68.66 117.49 71.84 114.85 74.25 111.50 Z" />
</g>
<g id="#886644ff">
<path fill="#886644" opacity="1.00" d=" M 47.22 113.64 L 48.87 114.04 C 51.75 115.74 54.71 117.35 57.90 118.37 C 59.59 118.86 61.29 119.27 63.00 119.65 C 60.35 120.15 57.71 120.87 55.00 120.99 C 54.35 120.99 53.03 120.99 52.37 120.99 C 52.01 120.57 51.27 119.74 50.91 119.32 C 49.55 117.51 48.36 115.59 47.22 113.64 Z" />
</g>
</svg>
