<?xml version="1.0" encoding="UTF-8" ?>
<!DOCTYPE svg PUBLIC "-//W3C//DTD SVG 1.1//EN" "http://www.w3.org/Graphics/SVG/1.1/DTD/svg11.dtd">
<svg width="160pt" height="189pt" viewBox="0 0 160 189" version="1.1" xmlns="http://www.w3.org/2000/svg">
<g id="#fdfbe7fe">
<path fill="#fdfbe7" opacity="1.00" d=" M 66.19 31.08 C 68.23 30.91 70.32 33.21 70.74 34.93 C 69.68 38.12 72.77 41.39 75.97 41.24 C 78.97 41.94 82.06 42.01 84.98 41.02 C 87.71 41.03 90.45 41.03 93.19 41.03 C 88.17 43.14 93.58 47.25 95.75 49.33 C 95.45 52.79 97.46 57.29 94.00 60.01 C 90.43 64.64 84.79 66.82 80.21 70.25 C 80.87 75.93 80.64 81.56 80.10 87.21 C 79.05 89.80 77.96 92.38 76.95 94.99 C 76.72 95.49 76.27 96.49 76.04 96.99 C 72.43 98.55 66.51 102.20 63.99 97.85 C 63.91 97.08 63.75 95.54 63.67 94.76 C 66.35 92.54 66.81 104.09 66.18 91.06 C 66.45 86.54 71.03 82.44 69.46 77.82 C 69.31 77.18 69.02 75.90 68.87 75.26 C 69.59 71.17 66.87 67.78 64.33 64.93 C 63.54 67.39 63.22 70.10 61.73 72.28 C 60.04 72.43 58.96 73.72 58.19 75.11 C 57.81 72.45 55.93 69.41 58.02 67.00 C 62.87 60.36 64.16 51.98 64.92 44.01 C 65.48 39.74 64.01 35.04 66.19 31.08 Z" />
</g>
<g id="#d5c9aff3">
<path fill="#d5c9af" opacity="0.95" d=" M 70.74 34.93 C 73.43 35.83 74.58 38.97 75.97 41.24 C 72.77 41.39 69.68 38.12 70.74 34.93 Z" />
</g>
<g id="#e9ddc6fe">
<path fill="#e9ddc6" opacity="1.00" d=" M 121.98 35.12 C 122.43 35.28 123.32 35.59 123.77 35.75 C 123.16 36.44 122.55 37.13 121.95 37.82 C 119.89 39.30 118.53 41.41 117.78 43.81 C 114.48 47.62 107.50 45.22 106.48 51.30 C 104.30 59.49 98.69 66.08 91.65 70.59 C 89.03 71.94 87.33 74.27 87.06 77.21 C 86.14 78.25 85.18 79.25 84.23 80.26 C 84.25 77.24 83.19 73.83 85.39 71.39 C 91.13 66.80 98.99 62.46 100.60 54.62 C 102.23 51.11 99.82 48.33 98.99 45.21 C 100.39 44.96 101.79 44.76 103.19 44.54 C 110.42 44.85 115.27 37.15 121.98 35.12 Z" />
</g>
<g id="#9e8573f7">
<path fill="#9e8573" opacity="0.97" d=" M 121.95 37.82 C 122.55 37.13 123.16 36.44 123.77 35.75 C 123.97 43.14 119.95 50.10 118.68 57.36 C 114.47 54.97 115.54 49.77 117.15 46.10 C 117.38 45.81 117.85 45.25 118.08 44.96 C 119.94 42.94 121.53 40.60 121.95 37.82 Z" />
</g>
<g id="#c1b29bff">
<path fill="#c1b29b" opacity="1.00" d=" M 117.78 43.81 C 118.53 41.41 119.89 39.30 121.95 37.82 C 121.53 40.60 119.94 42.94 118.08 44.96 L 117.78 43.81 Z" />
</g>
<g id="#1818174e">
<path fill="#181817" opacity="0.31" d=" M 84.98 41.02 C 85.84 38.77 90.54 40.44 92.93 40.08 L 93.19 41.03 C 90.45 41.03 87.71 41.03 84.98 41.02 Z" />
</g>
<g id="#f5e9d2fe">
<path fill="#f5e9d2" opacity="1.00" d=" M 93.19 41.03 C 96.49 41.69 100.74 41.84 103.19 44.54 C 101.79 44.76 100.39 44.96 98.99 45.21 C 99.82 48.33 102.23 51.11 100.60 54.62 C 98.99 62.46 91.13 66.80 85.39 71.39 C 83.19 73.83 84.25 77.24 84.23 80.26 C 82.96 82.63 81.51 84.92 80.10 87.21 C 80.64 81.56 80.87 75.93 80.21 70.25 C 84.79 66.82 90.43 64.64 94.00 60.01 C 97.46 57.29 95.45 52.79 95.75 49.33 C 93.58 47.25 88.17 43.14 93.19 41.03 Z" />
</g>
<g id="#d2c1adff">
<path fill="#d2c1ad" opacity="1.00" d=" M 106.48 51.30 C 107.50 45.22 114.48 47.62 117.78 43.81 L 118.08 44.96 C 117.85 45.25 117.38 45.81 117.15 46.10 C 114.95 48.29 112.03 50.61 113.63 54.05 C 111.89 58.24 106.26 60.59 104.33 65.05 L 104.10 65.64 C 102.73 66.49 101.33 67.28 99.95 68.12 C 98.27 69.15 96.77 70.44 95.24 71.68 C 93.86 72.77 92.53 73.92 91.17 75.02 C 89.82 75.79 88.46 76.55 87.06 77.21 C 87.33 74.27 89.03 71.94 91.65 70.59 C 98.69 66.08 104.30 59.49 106.48 51.30 Z" />
</g>
<g id="#b9a38eff">
<path fill="#b9a38e" opacity="1.00" d=" M 113.63 54.05 C 112.03 50.61 114.95 48.29 117.15 46.10 C 115.54 49.77 114.47 54.97 118.68 57.36 C 118.87 57.85 119.23 58.84 119.42 59.33 C 116.05 64.34 109.94 65.10 104.33 65.05 C 106.26 60.59 111.89 58.24 113.63 54.05 Z" />
</g>
<g id="#a28873fd">
<path fill="#a28873" opacity="1.00" d=" M 119.42 59.33 L 119.88 58.82 C 119.15 63.32 121.97 66.83 124.19 70.30 C 121.18 71.74 118.03 75.60 114.58 73.63 C 110.74 72.13 106.77 70.93 102.62 71.09 C 102.92 69.22 104.40 67.58 104.10 65.64 L 104.33 65.05 C 109.94 65.10 116.05 64.34 119.42 59.33 Z" />
</g>
<g id="#f9f4cdfd">
<path fill="#f9f4cd" opacity="1.00" d=" M 64.33 64.93 C 66.87 67.78 69.59 71.17 68.87 75.26 C 67.74 73.88 66.91 72.31 66.02 70.78 C 66.99 72.92 65.52 79.05 68.91 79.93 C 69.04 79.40 69.32 78.35 69.46 77.82 C 71.03 82.44 66.45 86.54 66.18 91.06 C 66.81 104.09 66.35 92.54 63.67 94.76 C 60.10 97.81 59.58 91.77 60.26 89.25 C 61.33 85.46 61.30 81.97 60.19 78.81 C 58.62 78.18 57.34 76.92 58.19 75.11 C 58.96 73.72 60.04 72.43 61.73 72.28 C 63.22 70.10 63.54 67.39 64.33 64.93 Z" />
</g>
<g id="#534a44ff">
<path fill="#534a44" opacity="1.00" d=" M 99.95 68.12 C 101.33 67.28 102.73 66.49 104.10 65.64 C 104.40 67.58 102.92 69.22 102.62 71.09 C 104.17 79.86 93.85 81.51 87.54 81.00 C 88.93 80.35 90.45 80.07 91.91 79.65 C 92.15 78.06 91.66 76.51 91.17 75.02 C 92.53 73.92 93.86 72.77 95.24 71.68 C 95.14 72.35 95.03 73.02 94.90 73.69 C 94.67 75.28 94.23 78.99 96.82 77.81 C 98.90 76.28 100.28 74.29 100.95 71.85 C 101.73 70.27 101.91 68.74 99.95 68.12 Z" />
</g>
<g id="#7a7875ff">
<path fill="#7a7875" opacity="1.00" d=" M 95.24 71.68 C 96.77 70.44 98.27 69.15 99.95 68.12 C 101.91 68.74 101.73 70.27 100.95 71.85 C 98.95 73.15 96.21 78.05 94.90 73.69 C 95.03 73.02 95.14 72.35 95.24 71.68 Z" />
</g>
<g id="#9b7f6afe">
<path fill="#9b7f6a" opacity="1.00" d=" M 124.19 70.30 C 128.45 72.48 126.85 79.48 123.78 82.72 C 118.93 83.29 114.01 85.00 111.71 89.62 C 109.57 91.14 107.86 93.17 105.68 94.65 C 100.30 96.76 93.77 93.83 89.24 98.24 C 88.25 99.57 84.79 100.15 85.69 102.08 L 85.94 102.79 C 85.35 103.06 84.15 103.60 83.55 103.87 C 82.30 104.41 81.07 105.00 79.84 105.60 C 79.38 105.75 78.44 106.05 77.97 106.21 C 77.45 106.12 76.41 105.95 75.89 105.86 C 80.59 103.46 84.22 99.54 87.76 95.71 C 88.83 93.63 86.80 92.43 85.36 91.43 C 83.87 87.76 85.78 84.49 87.01 81.23 L 87.54 81.00 C 93.85 81.51 104.17 79.86 102.62 71.09 C 106.77 70.93 110.74 72.13 114.58 73.63 C 118.03 75.60 121.18 71.74 124.19 70.30 Z" />
</g>
<g id="#c1b6a8ff">
<path fill="#c1b6a8" opacity="1.00" d=" M 66.02 70.78 C 66.91 72.31 67.74 73.88 68.87 75.26 C 69.02 75.90 69.31 77.18 69.46 77.82 C 69.32 78.35 69.04 79.40 68.91 79.93 C 65.52 79.05 66.99 72.92 66.02 70.78 Z" />
</g>
<g id="#646362ff">
<path fill="#646362" opacity="1.00" d=" M 94.90 73.69 C 96.21 78.05 98.95 73.15 100.95 71.85 C 100.28 74.29 98.90 76.28 96.82 77.81 C 94.23 78.99 94.67 75.28 94.90 73.69 Z" />
</g>
<g id="#7e766dff">
<path fill="#7e766d" opacity="1.00" d=" M 87.06 77.21 C 88.46 76.55 89.82 75.79 91.17 75.02 C 91.66 76.51 92.15 78.06 91.91 79.65 C 90.45 80.07 88.93 80.35 87.54 81.00 L 87.01 81.23 C 81.80 83.80 80.99 90.51 77.87 95.00 L 76.95 94.99 C 77.96 92.38 79.05 89.80 80.10 87.21 C 81.51 84.92 82.96 82.63 84.23 80.26 C 85.18 79.25 86.14 78.25 87.06 77.21 Z" />
</g>
<g id="#90907abf">
<path fill="#90907a" opacity="0.75" d=" M 60.19 78.81 C 61.30 81.97 61.33 85.46 60.26 89.25 C 60.07 85.77 59.80 82.28 60.19 78.81 Z" />
</g>
<g id="#ac947fff">
<path fill="#ac947f" opacity="1.00" d=" M 77.87 95.00 C 80.99 90.51 81.80 83.80 87.01 81.23 C 85.78 84.49 83.87 87.76 85.36 91.43 C 86.80 92.43 88.83 93.63 87.76 95.71 C 84.22 99.54 80.59 103.46 75.89 105.86 C 76.41 105.95 77.45 106.12 77.97 106.21 L 77.71 107.16 C 75.94 107.03 74.16 106.94 72.39 106.77 C 72.05 106.66 71.36 106.45 71.02 106.34 C 70.27 106.25 68.76 106.05 68.01 105.95 L 67.96 105.12 C 71.39 104.06 77.33 105.92 78.07 101.31 C 79.11 99.25 78.27 97.09 77.87 95.00 Z" />
</g>
<g id="#8c705bfd">
<path fill="#8c705b" opacity="1.00" d=" M 105.68 94.65 C 107.86 93.17 109.57 91.14 111.71 89.62 C 112.15 91.61 110.80 93.34 110.17 95.12 C 109.01 97.15 108.37 100.48 105.37 99.96 C 103.66 99.11 101.87 98.42 100.05 97.85 C 99.01 97.49 97.96 97.20 96.89 96.97 C 97.30 98.47 98.13 99.79 98.88 101.14 C 95.97 99.48 92.83 98.69 89.80 100.56 C 88.74 100.92 87.68 101.31 86.64 101.73 L 85.69 102.08 C 84.79 100.15 88.25 99.57 89.24 98.24 C 93.77 93.83 100.30 96.76 105.68 94.65 Z" />
</g>
<g id="#5e564bff">
<path fill="#5e564b" opacity="1.00" d=" M 76.95 94.99 L 77.87 95.00 C 78.27 97.09 79.11 99.25 78.07 101.31 C 77.40 100.16 76.80 98.98 76.18 97.82 L 76.04 96.99 C 76.27 96.49 76.72 95.49 76.95 94.99 Z" />
</g>
<g id="#8b5d31fc">
<path fill="#8b5d31" opacity="1.00" d=" M 110.17 95.12 C 111.86 95.23 112.02 97.79 113.05 98.93 C 113.41 100.31 115.78 100.26 115.77 101.71 C 115.81 106.27 114.01 110.58 113.14 115.02 C 111.79 114.26 110.63 113.14 109.05 112.87 C 109.50 114.48 111.08 115.97 110.63 117.71 C 110.23 119.19 109.94 120.69 109.69 122.20 C 107.79 116.88 105.64 111.66 103.84 106.32 C 104.77 104.31 105.08 102.13 105.37 99.96 C 108.37 100.48 109.01 97.15 110.17 95.12 Z" />
</g>
<g id="#e8dbc5ff">
<path fill="#e8dbc5" opacity="1.00" d=" M 63.99 97.85 C 66.51 102.20 72.43 98.55 76.04 96.99 L 76.18 97.82 C 76.10 98.57 75.94 100.07 75.85 100.82 C 71.90 100.49 67.95 101.02 64.60 103.17 C 64.11 101.44 64.06 99.63 63.99 97.85 Z" />
</g>
<g id="#65482eff">
<path fill="#65482e" opacity="1.00" d=" M 96.89 96.97 C 97.96 97.20 99.01 97.49 100.05 97.85 C 101.04 100.78 102.18 103.68 103.84 106.32 C 105.64 111.66 107.79 116.88 109.69 122.20 C 111.61 129.19 112.58 136.77 109.92 143.72 C 107.97 149.28 104.59 154.60 99.15 157.25 L 99.14 156.33 C 99.82 155.59 100.46 154.82 101.09 154.04 C 96.81 154.43 92.54 155.01 88.24 155.16 C 86.17 155.09 84.09 155.07 82.03 154.86 L 82.03 154.04 C 87.29 153.95 92.65 154.34 97.80 152.98 C 100.86 152.61 104.68 152.27 106.08 149.03 C 106.31 148.20 107.71 146.54 106.33 146.11 C 105.94 145.87 105.15 145.40 104.76 145.16 C 109.29 145.83 109.34 140.15 110.08 136.99 C 109.50 137.17 108.35 137.53 107.78 137.71 C 106.25 137.93 104.72 138.11 103.19 138.31 C 102.06 138.03 100.94 137.73 99.83 137.41 C 101.32 137.07 102.81 136.73 104.27 136.27 C 104.96 136.22 106.33 136.10 107.02 136.04 C 111.61 137.19 110.12 132.16 109.91 129.07 C 108.46 124.32 109.03 114.91 100.93 118.01 C 99.56 117.87 98.20 117.67 96.86 117.35 L 98.03 117.22 C 98.56 117.17 99.64 117.06 100.18 117.01 C 101.53 116.87 102.85 116.57 104.17 116.23 C 104.59 116.14 105.43 115.94 105.85 115.84 C 104.02 110.73 101.65 105.81 98.88 101.14 C 98.13 99.79 97.30 98.47 96.89 96.97 Z" />
</g>
<g id="#d29d56fb">
<path fill="#d29d56" opacity="1.00" d=" M 52.94 107.83 C 56.07 103.94 59.79 100.54 63.99 97.85 C 64.06 99.63 64.11 101.44 64.60 103.17 L 64.74 103.84 C 62.68 105.39 60.78 107.15 58.85 108.85 L 58.20 108.66 C 57.64 108.51 56.52 108.21 55.96 108.06 C 55.20 108.00 53.69 107.88 52.94 107.83 Z" />
</g>
<g id="#c3af9cff">
<path fill="#c3af9c" opacity="1.00" d=" M 76.18 97.82 C 76.80 98.98 77.40 100.16 78.07 101.31 C 77.33 105.92 71.39 104.06 67.96 105.12 C 66.88 104.72 65.81 104.29 64.74 103.84 L 64.60 103.17 C 67.95 101.02 71.90 100.49 75.85 100.82 C 75.94 100.07 76.10 98.57 76.18 97.82 Z" />
</g>
<g id="#7a4f29ff">
<path fill="#7a4f29" opacity="1.00" d=" M 100.05 97.85 C 101.87 98.42 103.66 99.11 105.37 99.96 C 105.08 102.13 104.77 104.31 103.84 106.32 C 102.18 103.68 101.04 100.78 100.05 97.85 Z" />
</g>
<g id="#a3805eff">
<path fill="#a3805e" opacity="1.00" d=" M 89.80 100.56 C 92.83 98.69 95.97 99.48 98.88 101.14 C 101.65 105.81 104.02 110.73 105.85 115.84 C 105.43 115.94 104.59 116.14 104.17 116.23 C 101.47 109.62 97.52 101.87 89.80 100.56 Z" />
</g>
<g id="#b08e6bff">
<path fill="#b08e6b" opacity="1.00" d=" M 86.64 101.73 C 87.68 101.31 88.74 100.92 89.80 100.56 C 97.52 101.87 101.47 109.62 104.17 116.23 C 102.85 116.57 101.53 116.87 100.18 117.01 C 100.56 109.78 94.03 102.35 86.64 101.73 Z" />
</g>
<g id="#bf9d77ff">
<path fill="#bf9d77" opacity="1.00" d=" M 85.69 102.08 L 86.64 101.73 C 94.03 102.35 100.56 109.78 100.18 117.01 C 99.64 117.06 98.56 117.17 98.03 117.22 C 96.94 110.27 91.98 105.76 85.94 102.79 L 85.69 102.08 Z" />
</g>
<g id="#9c703df7">
<path fill="#9c703d" opacity="0.97" d=" M 113.14 115.02 C 114.01 110.58 115.81 106.27 115.77 101.71 C 120.66 103.25 123.02 108.23 125.92 112.06 C 129.06 118.20 133.05 124.58 132.83 131.74 C 130.49 135.59 124.53 134.21 121.64 131.96 C 127.80 131.61 127.88 124.24 126.46 119.62 C 125.85 116.86 124.06 114.60 121.95 112.81 C 119.93 114.19 118.75 116.41 117.21 118.25 C 115.97 117.10 113.70 116.63 113.14 115.02 Z" />
</g>
<g id="#cdab83ff">
<path fill="#cdab83" opacity="1.00" d=" M 83.55 103.87 C 84.15 103.60 85.35 103.06 85.94 102.79 C 91.98 105.76 96.94 110.27 98.03 117.22 L 96.86 117.35 C 96.42 117.26 95.55 117.08 95.11 116.99 C 92.28 111.74 88.36 107.34 83.55 103.87 Z" />
</g>
<g id="#ae7e45ff">
<path fill="#ae7e45" opacity="1.00" d=" M 58.85 108.85 C 60.78 107.15 62.68 105.39 64.74 103.84 C 65.81 104.29 66.88 104.72 67.96 105.12 L 68.01 105.95 C 68.01 108.05 68.02 110.15 68.12 112.25 L 67.27 111.66 C 67.23 107.50 62.42 107.37 60.77 110.69 L 60.19 111.20 C 59.85 110.61 59.18 109.44 58.85 108.85 Z" />
</g>
<g id="#dab98eff">
<path fill="#dab98e" opacity="1.00" d=" M 79.84 105.60 C 81.07 105.00 82.30 104.41 83.55 103.87 C 88.36 107.34 92.28 111.74 95.11 116.99 C 93.77 116.98 92.43 116.97 91.09 116.97 C 88.66 112.13 85.35 107.12 79.84 105.60 Z" />
</g>
<g id="#c89251ff">
<path fill="#c89251" opacity="1.00" d=" M 68.01 105.95 C 68.76 106.05 70.27 106.25 71.02 106.34 C 70.15 108.68 69.16 110.96 68.25 113.28 L 68.12 112.25 C 68.02 110.15 68.01 108.05 68.01 105.95 Z" />
</g>
<g id="#9b794dff">
<path fill="#9b794d" opacity="1.00" d=" M 71.02 106.34 C 71.36 106.45 72.05 106.66 72.39 106.77 C 71.25 109.45 69.99 112.10 69.16 114.91 C 71.79 115.70 74.53 116.07 77.20 116.71 C 76.60 116.97 75.39 117.48 74.78 117.73 C 72.61 117.53 70.44 117.33 68.28 117.15 C 67.63 120.00 67.03 122.86 66.76 125.77 C 66.33 128.82 65.96 131.91 65.92 135.00 C 65.88 135.81 65.82 137.43 65.79 138.23 C 65.57 137.68 65.14 136.58 64.93 136.03 C 64.18 128.21 65.85 120.63 68.25 113.28 C 69.16 110.96 70.15 108.68 71.02 106.34 Z" />
</g>
<g id="#e6c598ff">
<path fill="#e6c598" opacity="1.00" d=" M 77.97 106.21 C 78.44 106.05 79.38 105.75 79.84 105.60 C 85.35 107.12 88.66 112.13 91.09 116.97 C 89.78 116.98 88.46 116.98 87.14 116.97 C 84.91 112.91 81.41 109.85 77.71 107.16 L 77.97 106.21 Z" />
</g>
<g id="#f3d2a3ff">
<path fill="#f3d2a3" opacity="1.00" d=" M 72.39 106.77 C 74.16 106.94 75.94 107.03 77.71 107.16 C 81.41 109.85 84.91 112.91 87.14 116.97 C 83.82 116.96 80.51 117.06 77.20 116.71 C 74.53 116.07 71.79 115.70 69.16 114.91 C 69.99 112.10 71.25 109.45 72.39 106.77 Z" />
</g>
<g id="#fbeed2ff">
<path fill="#fbeed2" opacity="1.00" d=" M 48.01 112.95 C 49.34 111.00 50.97 109.13 52.94 107.83 C 53.69 107.88 55.20 108.00 55.96 108.06 C 54.77 113.90 50.42 118.30 46.81 122.77 C 46.11 122.83 44.71 122.96 44.02 123.02 C 43.29 119.05 46.24 116.16 48.01 112.95 Z" />
</g>
<g id="#dfccb2ff">
<path fill="#dfccb2" opacity="1.00" d=" M 55.96 108.06 C 56.52 108.21 57.64 108.51 58.20 108.66 C 56.89 113.39 52.94 116.53 50.60 120.70 C 48.16 123.67 44.31 124.98 42.20 128.26 C 42.23 127.49 42.30 125.95 42.33 125.18 C 42.54 124.66 42.97 123.61 43.19 123.09 L 44.02 123.02 C 44.71 122.96 46.11 122.83 46.81 122.77 C 50.42 118.30 54.77 113.90 55.96 108.06 Z" />
</g>
<g id="#83592ef7">
<path fill="#83592e" opacity="0.97" d=" M 60.77 110.69 C 62.42 107.37 67.23 107.50 67.27 111.66 C 64.68 111.90 63.68 115.06 61.06 115.03 C 60.98 113.58 60.88 112.13 60.77 110.69 Z" />
</g>
<g id="#bca690ff">
<path fill="#bca690" opacity="1.00" d=" M 58.20 108.66 L 58.85 108.85 C 59.18 109.44 59.85 110.61 60.19 111.20 C 58.40 113.38 56.76 115.68 54.97 117.85 C 51.19 122.18 47.39 126.65 42.15 129.27 L 42.20 128.26 C 44.31 124.98 48.16 123.67 50.60 120.70 C 52.94 116.53 56.89 113.39 58.20 108.66 Z" />
</g>
<g id="#947a66f8">
<path fill="#947a66" opacity="0.97" d=" M 60.19 111.20 L 60.77 110.69 C 60.88 112.13 60.98 113.58 61.06 115.03 C 57.87 118.59 55.95 123.65 51.81 126.13 C 50.76 122.93 55.15 121.19 54.97 117.85 C 56.76 115.68 58.40 113.38 60.19 111.20 Z" />
</g>
<g id="#e0aa5bf9">
<path fill="#e0aa5b" opacity="0.98" d=" M 67.27 111.66 L 68.12 112.25 L 68.25 113.28 C 65.85 120.63 64.18 128.21 64.93 136.03 C 60.25 139.63 64.20 128.26 62.35 126.75 C 62.98 121.53 64.67 116.26 67.27 111.66 Z" />
</g>
<g id="#e9b96ffb">
<path fill="#e9b96f" opacity="1.00" d=" M 42.25 119.62 C 42.36 116.68 45.78 114.70 48.01 112.95 C 46.24 116.16 43.29 119.05 44.02 123.02 L 43.19 123.09 C 42.92 121.92 42.61 120.76 42.25 119.62 Z" />
</g>
<g id="#daa65cfd">
<path fill="#daa65c" opacity="1.00" d=" M 117.21 118.25 C 118.75 116.41 119.93 114.19 121.95 112.81 C 124.06 114.60 125.85 116.86 126.46 119.62 C 127.88 124.24 127.80 131.61 121.64 131.96 C 121.43 130.73 122.37 128.06 120.19 129.18 C 119.24 130.35 118.85 131.82 118.28 133.19 C 115.91 130.81 116.67 126.89 118.34 124.30 C 120.07 122.24 116.53 120.38 117.21 118.25 Z" />
</g>
<g id="#fde9baff">
<path fill="#fde9ba" opacity="1.00" d=" M 68.28 117.15 C 70.44 117.33 72.61 117.53 74.78 117.73 C 76.11 117.89 77.43 118.05 78.76 118.22 C 79.78 118.53 80.81 118.83 81.84 119.09 C 80.77 120.89 81.90 122.67 82.46 124.43 C 83.31 128.59 82.89 132.88 82.13 137.02 C 77.03 136.90 71.67 137.01 66.78 135.31 C 66.82 132.12 66.89 128.95 66.76 125.77 C 67.03 122.86 67.63 120.00 68.28 117.15 Z" />
</g>
<g id="#7f6c55ff">
<path fill="#7f6c55" opacity="1.00" d=" M 74.78 117.73 C 75.39 117.48 76.60 116.97 77.20 116.71 C 80.51 117.06 83.82 116.96 87.14 116.97 C 88.46 116.98 89.78 116.98 91.09 116.97 C 92.43 116.97 93.77 116.98 95.11 116.99 C 95.55 117.08 96.42 117.26 96.86 117.35 C 98.20 117.67 99.56 117.87 100.93 118.01 L 100.96 118.88 C 100.21 118.91 98.73 118.97 97.98 119.00 C 97.21 119.00 95.65 119.00 94.88 119.00 C 93.54 118.98 92.21 118.97 90.87 118.95 C 90.20 118.90 88.85 118.78 88.17 118.73 C 85.05 118.23 81.91 117.97 78.76 118.22 C 77.43 118.05 76.11 117.89 74.78 117.73 Z" />
</g>
<g id="#9c8778fa">
<path fill="#9c8778" opacity="0.98" d=" M 42.15 129.27 C 47.39 126.65 51.19 122.18 54.97 117.85 C 55.15 121.19 50.76 122.93 51.81 126.13 C 52.69 128.75 49.88 129.30 48.08 128.28 C 46.29 130.26 45.90 133.17 45.66 135.70 C 44.50 137.12 43.21 138.43 41.90 139.70 C 40.71 139.42 39.52 139.13 38.29 139.04 C 37.88 140.99 37.48 142.95 36.93 144.87 C 36.16 146.10 32.63 146.94 32.78 144.88 C 35.28 141.57 37.04 137.80 39.06 134.19 C 41.70 133.76 42.35 131.66 42.15 129.27 Z" />
</g>
<g id="#c2a884ff">
<path fill="#c2a884" opacity="1.00" d=" M 78.76 118.22 C 81.91 117.97 85.05 118.23 88.17 118.73 L 87.08 118.82 C 85.34 118.93 83.59 119.02 81.84 119.09 C 80.81 118.83 79.78 118.53 78.76 118.22 Z" />
</g>
<g id="#a88564ff">
<path fill="#a88564" opacity="1.00" d=" M 100.93 118.01 C 109.03 114.91 108.46 124.32 109.91 129.07 C 110.12 132.16 111.61 137.19 107.02 136.04 C 106.81 130.53 108.44 122.30 102.92 119.08 C 102.43 119.03 101.45 118.93 100.96 118.88 L 100.93 118.01 Z" />
</g>
<g id="#8f6437f3">
<path fill="#8f6437" opacity="0.95" d=" M 109.69 122.20 C 109.94 120.69 110.23 119.19 110.63 117.71 C 112.84 120.50 112.17 124.49 113.44 127.65 C 114.65 132.25 112.45 137.97 115.72 141.74 C 113.65 145.79 112.33 150.18 110.31 154.26 C 110.17 150.74 111.61 147.01 109.92 143.72 C 112.58 136.77 111.61 129.19 109.69 122.20 Z" />
</g>
<g id="#f7dcb0ff">
<path fill="#f7dcb0" opacity="1.00" d=" M 81.84 119.09 C 83.59 119.02 85.34 118.93 87.08 118.82 C 84.86 124.54 88.14 131.05 85.93 136.99 C 84.66 137.01 83.39 137.02 82.13 137.02 C 82.89 132.88 83.31 128.59 82.46 124.43 C 81.90 122.67 80.77 120.89 81.84 119.09 Z" />
</g>
<g id="#ebcfa6ff">
<path fill="#ebcfa6" opacity="1.00" d=" M 87.08 118.82 L 88.17 118.73 C 88.85 118.78 90.20 118.90 90.87 118.95 C 89.55 124.83 91.48 130.98 91.02 136.99 C 89.32 136.99 87.63 136.99 85.93 136.99 C 88.14 131.05 84.86 124.54 87.08 118.82 Z" />
</g>
<g id="#dec29aff">
<path fill="#dec29a" opacity="1.00" d=" M 90.87 118.95 C 92.21 118.97 93.54 118.98 94.88 119.00 C 93.54 124.91 95.39 131.10 95.13 137.14 C 93.76 137.08 92.39 137.03 91.02 136.99 C 91.48 130.98 89.55 124.83 90.87 118.95 Z" />
</g>
<g id="#d1b38dff">
<path fill="#d1b38d" opacity="1.00" d=" M 94.88 119.00 C 95.65 119.00 97.21 119.00 97.98 119.00 C 98.69 125.01 99.36 131.07 97.92 137.01 C 97.48 137.05 96.61 137.15 96.18 137.20 L 95.13 137.14 C 95.39 131.10 93.54 124.91 94.88 119.00 Z" />
</g>
<g id="#c5a682ff">
<path fill="#c5a682" opacity="1.00" d=" M 97.98 119.00 C 98.73 118.97 100.21 118.91 100.96 118.88 C 99.25 122.75 101.54 126.91 101.76 130.92 C 101.36 133.14 100.73 135.33 99.83 137.41 C 99.35 137.31 98.40 137.11 97.92 137.01 C 99.36 131.07 98.69 125.01 97.98 119.00 Z" />
</g>
<g id="#ba9a77ff">
<path fill="#ba9a77" opacity="1.00" d=" M 100.96 118.88 C 101.45 118.93 102.43 119.03 102.92 119.08 C 103.40 124.81 104.01 130.52 104.27 136.27 C 102.81 136.73 101.32 137.07 99.83 137.41 C 100.73 135.33 101.36 133.14 101.76 130.92 C 101.54 126.91 99.25 122.75 100.96 118.88 Z" />
</g>
<g id="#b18f6dff">
<path fill="#b18f6d" opacity="1.00" d=" M 102.92 119.08 C 108.44 122.30 106.81 130.53 107.02 136.04 C 106.33 136.10 104.96 136.22 104.27 136.27 C 104.01 130.52 103.40 124.81 102.92 119.08 Z" />
</g>
<g id="#d1a059f5">
<path fill="#d1a059" opacity="0.96" d=" M 36.47 129.86 C 38.10 126.70 39.17 121.77 42.25 119.62 C 42.61 120.76 42.92 121.92 43.19 123.09 C 42.97 123.61 42.54 124.66 42.33 125.18 C 42.05 124.85 41.49 124.17 41.21 123.84 C 41.79 127.25 40.93 130.44 39.14 133.23 L 38.32 132.83 C 37.73 131.82 37.13 130.82 36.47 129.86 Z" />
</g>
<g id="#a07444ff">
<path fill="#a07444" opacity="1.00" d=" M 41.21 123.84 C 41.49 124.17 42.05 124.85 42.33 125.18 C 42.30 125.95 42.23 127.49 42.20 128.26 L 42.15 129.27 C 42.35 131.66 41.70 133.76 39.06 134.19 L 39.14 133.23 C 40.93 130.44 41.79 127.25 41.21 123.84 Z" />
</g>
<g id="#ddc89cff">
<path fill="#ddc89c" opacity="1.00" d=" M 65.92 135.00 C 65.96 131.91 66.33 128.82 66.76 125.77 C 66.89 128.95 66.82 132.12 66.78 135.31 L 65.92 135.00 Z" />
</g>
<g id="#eebb68fd">
<path fill="#eebb68" opacity="1.00" d=" M 62.35 126.75 C 64.20 128.26 60.25 139.63 64.93 136.03 C 65.14 136.58 65.57 137.68 65.79 138.23 C 65.88 139.36 65.96 140.48 66.03 141.60 C 64.47 142.98 62.91 144.48 62.62 146.66 C 61.39 152.83 55.39 156.35 53.08 162.09 C 51.97 164.44 48.78 164.31 48.01 166.99 C 47.99 165.28 47.95 161.86 47.92 160.15 C 48.15 155.42 50.96 151.25 53.35 147.30 C 56.17 144.51 60.23 142.60 61.73 138.70 C 62.94 134.68 60.56 130.64 62.35 126.75 Z" />
</g>
<g id="#84603ae5">
<path fill="#84603a" opacity="0.90" d=" M 120.19 129.18 C 122.37 128.06 121.43 130.73 121.64 131.96 C 120.89 133.63 118.50 136.24 118.28 133.19 C 118.85 131.82 119.24 130.35 120.19 129.18 Z" />
</g>
<g id="#e7dab8fb">
<path fill="#e7dab8" opacity="1.00" d=" M 36.47 129.86 C 37.13 130.82 37.73 131.82 38.32 132.83 C 36.67 134.73 35.28 136.82 33.91 138.92 C 33.98 137.25 33.97 135.57 33.99 133.90 C 33.69 132.05 35.46 131.08 36.47 129.86 Z" />
</g>
<g id="#c8b59efc">
<path fill="#c8b59e" opacity="1.00" d=" M 38.32 132.83 L 39.14 133.23 L 39.06 134.19 C 37.04 137.80 35.28 141.57 32.78 144.88 C 31.14 145.37 30.51 144.72 30.88 142.93 C 31.91 141.61 32.95 140.29 33.91 138.92 C 35.28 136.82 36.67 134.73 38.32 132.83 Z" />
</g>
<g id="#f2e6ccfd">
<path fill="#f2e6cc" opacity="1.00" d=" M 29.99 143.12 C 28.00 138.81 30.96 135.89 33.99 133.90 C 33.97 135.57 33.98 137.25 33.91 138.92 C 32.95 140.29 31.91 141.61 30.88 142.93 L 29.99 143.12 Z" />
</g>
<g id="#937e61ff">
<path fill="#937e61" opacity="1.00" d=" M 65.92 135.00 L 66.78 135.31 C 71.67 137.01 77.03 136.90 82.13 137.02 C 83.39 137.02 84.66 137.01 85.93 136.99 C 87.63 136.99 89.32 136.99 91.02 136.99 C 92.39 137.03 93.76 137.08 95.13 137.14 L 96.18 137.20 C 91.46 138.26 86.41 137.13 81.83 138.81 C 76.79 138.95 71.91 137.69 66.96 136.99 C 67.01 139.34 67.63 141.62 68.01 143.93 L 67.97 145.07 C 67.30 143.92 66.69 142.75 66.03 141.60 C 65.96 140.48 65.88 139.36 65.79 138.23 C 65.82 137.43 65.88 135.81 65.92 135.00 Z" />
</g>
<g id="#f7e1b5ff">
<path fill="#f7e1b5" opacity="1.00" d=" M 66.96 136.99 C 71.91 137.69 76.79 138.95 81.83 138.81 L 83.01 138.93 C 81.87 143.21 78.12 145.83 73.77 145.34 C 72.15 145.19 70.53 145.11 68.91 145.05 C 68.68 144.77 68.23 144.21 68.01 143.93 C 67.63 141.62 67.01 139.34 66.96 136.99 Z" />
</g>
<g id="#715f4bff">
<path fill="#715f4b" opacity="1.00" d=" M 96.18 137.20 C 96.61 137.15 97.48 137.05 97.92 137.01 C 98.40 137.11 99.35 137.31 99.83 137.41 C 100.94 137.73 102.06 138.03 103.19 138.31 C 102.67 138.51 101.63 138.89 101.10 139.09 C 99.38 139.08 95.92 139.07 94.20 139.06 C 92.15 139.02 90.10 138.99 88.05 138.99 C 86.37 138.97 84.69 138.96 83.01 138.93 L 81.83 138.81 C 86.41 137.13 91.46 138.26 96.18 137.20 Z" />
</g>
<g id="#a47f5eff">
<path fill="#a47f5e" opacity="1.00" d=" M 107.78 137.71 C 108.35 137.53 109.50 137.17 110.08 136.99 C 109.34 140.15 109.29 145.83 104.76 145.16 C 105.57 142.60 106.55 140.10 107.78 137.71 Z" />
</g>
<g id="#b3906eff">
<path fill="#b3906e" opacity="1.00" d=" M 103.19 138.31 C 104.72 138.11 106.25 137.93 107.78 137.71 C 106.55 140.10 105.57 142.60 104.76 145.16 C 102.49 145.69 100.17 145.97 97.84 146.05 C 98.07 143.38 99.75 141.28 101.10 139.09 C 101.63 138.89 102.67 138.51 103.19 138.31 Z" />
</g>
<g id="#897360f2">
<path fill="#897360" opacity="0.95" d=" M 38.29 139.04 C 39.52 139.13 40.71 139.42 41.90 139.70 C 40.73 141.66 39.82 145.51 36.93 144.87 C 37.48 142.95 37.88 140.99 38.29 139.04 Z" />
</g>
<g id="#e7cca4ff">
<path fill="#e7cca4" opacity="1.00" d=" M 83.01 138.93 C 84.69 138.96 86.37 138.97 88.05 138.99 C 90.14 141.59 86.56 143.54 85.76 145.91 C 84.10 145.99 82.45 146.07 80.80 146.13 C 78.45 145.92 76.10 145.65 73.77 145.34 C 78.12 145.83 81.87 143.21 83.01 138.93 Z" />
</g>
<g id="#d6b993ff">
<path fill="#d6b993" opacity="1.00" d=" M 88.05 138.99 C 90.10 138.99 92.15 139.02 94.20 139.06 C 93.56 141.41 92.43 143.59 91.80 145.94 C 89.79 145.95 87.77 145.93 85.76 145.91 C 86.56 143.54 90.14 141.59 88.05 138.99 Z" />
</g>
<g id="#c6a682ff">
<path fill="#c6a682" opacity="1.00" d=" M 94.20 139.06 C 95.92 139.07 99.38 139.08 101.10 139.09 C 99.75 141.28 98.07 143.38 97.84 146.05 C 97.44 146.12 96.63 146.28 96.23 146.36 C 94.76 146.20 93.28 146.06 91.80 145.94 C 92.43 143.59 93.56 141.41 94.20 139.06 Z" />
</g>
<g id="#d8a55cfe">
<path fill="#d8a55c" opacity="1.00" d=" M 62.62 146.66 C 62.91 144.48 64.47 142.98 66.03 141.60 C 66.69 142.75 67.30 143.92 67.97 145.07 C 67.97 145.70 67.97 146.96 67.97 147.60 C 64.50 148.79 63.40 152.63 61.15 155.16 C 56.68 160.46 54.04 167.08 49.25 172.14 C 48.66 170.47 47.73 168.82 48.01 166.99 C 48.78 164.31 51.97 164.44 53.08 162.09 C 55.39 156.35 61.39 152.83 62.62 146.66 Z" />
</g>
<g id="#b38449fd">
<path fill="#b38449" opacity="1.00" d=" M 110.31 154.26 C 112.33 150.18 113.65 145.79 115.72 141.74 C 119.38 144.94 123.81 149.06 125.05 154.01 C 121.08 157.74 122.39 164.25 119.79 168.94 C 115.51 168.02 112.10 164.77 108.36 162.62 C 108.21 161.95 107.91 160.60 107.76 159.93 C 108.91 158.19 109.85 156.30 110.31 154.26 Z" />
</g>
<g id="#836443ff">
<path fill="#836443" opacity="1.00" d=" M 68.01 143.93 C 68.23 144.21 68.68 144.77 68.91 145.05 C 69.07 145.53 69.41 146.49 69.57 146.96 C 70.27 149.84 73.09 151.43 75.72 152.23 C 77.29 152.47 80.43 152.95 82.00 153.19 L 82.03 154.04 L 82.03 154.86 C 79.94 154.47 72.70 152.88 78.04 156.03 C 80.51 157.63 83.42 158.12 86.29 158.35 L 86.11 159.16 L 85.91 159.94 C 85.23 159.90 83.86 159.83 83.18 159.80 C 80.07 158.42 76.99 156.94 74.18 154.99 C 72.98 153.60 71.72 152.27 70.40 150.99 C 69.58 149.87 68.78 148.73 67.97 147.60 C 67.97 146.96 67.97 145.70 67.97 145.07 L 68.01 143.93 Z" />
</g>
<g id="#885a30ff">
<path fill="#885a30" opacity="1.00" d=" M 99.15 157.25 C 104.59 154.60 107.97 149.28 109.92 143.72 C 111.61 147.01 110.17 150.74 110.31 154.26 C 109.85 156.30 108.91 158.19 107.76 159.93 C 106.67 161.55 105.55 163.17 104.69 164.93 C 104.28 164.67 103.45 164.15 103.04 163.89 C 103.46 161.15 106.45 155.88 99.18 158.84 C 99.17 158.44 99.16 157.65 99.15 157.25 Z" />
</g>
<g id="#8b7a60ff">
<path fill="#8b7a60" opacity="1.00" d=" M 68.91 145.05 C 70.53 145.11 72.15 145.19 73.77 145.34 C 76.10 145.65 78.45 145.92 80.80 146.13 C 81.09 146.38 81.66 146.88 81.95 147.13 L 82.13 148.08 C 77.91 148.27 73.57 145.45 69.57 146.96 C 69.41 146.49 69.07 145.53 68.91 145.05 Z" />
</g>
<g id="#6b5642ff">
<path fill="#6b5642" opacity="1.00" d=" M 97.84 146.05 C 100.17 145.97 102.49 145.69 104.76 145.16 C 105.15 145.40 105.94 145.87 106.33 146.11 C 104.20 146.57 102.08 147.04 99.97 147.53 C 97.05 147.76 94.14 147.93 91.23 148.11 C 89.47 148.14 85.97 148.21 84.21 148.25 C 83.69 148.20 82.65 148.12 82.13 148.08 L 81.95 147.13 C 86.68 146.78 91.60 147.68 96.23 146.36 C 96.63 146.28 97.44 146.12 97.84 146.05 Z" />
</g>
<g id="#dbbf99ff">
<path fill="#dbbf99" opacity="1.00" d=" M 69.57 146.96 C 73.57 145.45 77.91 148.27 82.13 148.08 C 82.65 148.12 83.69 148.20 84.21 148.25 C 81.43 149.67 78.49 150.77 75.72 152.23 C 73.09 151.43 70.27 149.84 69.57 146.96 Z" />
</g>
<g id="#a78c70ff">
<path fill="#a78c70" opacity="1.00" d=" M 80.80 146.13 C 82.45 146.07 84.10 145.99 85.76 145.91 C 87.77 145.93 89.79 145.95 91.80 145.94 C 93.28 146.06 94.76 146.20 96.23 146.36 C 91.60 147.68 86.68 146.78 81.95 147.13 C 81.66 146.88 81.09 146.38 80.80 146.13 Z" />
</g>
<g id="#a57f5eff">
<path fill="#a57f5e" opacity="1.00" d=" M 106.33 146.11 C 107.71 146.54 106.31 148.20 106.08 149.03 C 104.68 152.27 100.86 152.61 97.80 152.98 C 98.39 151.22 101.67 149.37 99.97 147.53 C 102.08 147.04 104.20 146.57 106.33 146.11 Z" />
</g>
<g id="#c29151ff">
<path fill="#c29151" opacity="1.00" d=" M 61.15 155.16 C 63.40 152.63 64.50 148.79 67.97 147.60 C 68.78 148.73 69.58 149.87 70.40 150.99 C 66.96 153.67 62.99 155.74 60.26 159.26 C 57.42 163.47 55.34 168.15 53.74 172.96 C 53.28 173.12 52.38 173.45 51.93 173.61 C 51.02 173.40 50.11 173.20 49.20 173.00 L 49.25 172.14 C 54.04 167.08 56.68 160.46 61.15 155.16 Z" />
</g>
<g id="#c5a683ff">
<path fill="#c5a683" opacity="1.00" d=" M 84.21 148.25 C 85.97 148.21 89.47 148.14 91.23 148.11 C 90.17 151.85 85.43 152.78 82.00 153.19 C 80.43 152.95 77.29 152.47 75.72 152.23 C 78.49 150.77 81.43 149.67 84.21 148.25 Z" />
</g>
<g id="#b28f6dff">
<path fill="#b28f6d" opacity="1.00" d=" M 91.23 148.11 C 94.14 147.93 97.05 147.76 99.97 147.53 C 101.67 149.37 98.39 151.22 97.80 152.98 C 92.65 154.34 87.29 153.95 82.03 154.04 L 82.00 153.19 C 85.43 152.78 90.17 151.85 91.23 148.11 Z" />
</g>
<g id="#ad7d44ff">
<path fill="#ad7d44" opacity="1.00" d=" M 70.40 150.99 C 71.72 152.27 72.98 153.60 74.18 154.99 C 62.65 154.13 58.35 165.62 55.01 174.40 C 54.69 174.04 54.05 173.32 53.74 172.96 C 55.34 168.15 57.42 163.47 60.26 159.26 C 62.99 155.74 66.96 153.67 70.40 150.99 Z" />
</g>
<g id="#af8c6bff">
<path fill="#af8c6b" opacity="1.00" d=" M 78.04 156.03 C 72.70 152.88 79.94 154.47 82.03 154.86 C 84.09 155.07 86.17 155.09 88.24 155.16 C 87.64 156.25 86.99 157.31 86.29 158.35 C 83.42 158.12 80.51 157.63 78.04 156.03 Z" />
</g>
<g id="#a07a59ff">
<path fill="#a07a59" opacity="1.00" d=" M 88.24 155.16 C 92.54 155.01 96.81 154.43 101.09 154.04 C 100.46 154.82 99.82 155.59 99.14 156.33 C 94.94 157.83 90.49 158.45 86.11 159.16 L 86.29 158.35 C 86.99 157.31 87.64 156.25 88.24 155.16 Z" />
</g>
<g id="#9f723efa">
<path fill="#9f723e" opacity="0.98" d=" M 125.05 154.01 L 125.79 154.04 C 126.02 156.99 128.32 159.81 127.70 162.70 C 126.16 165.77 122.59 169.17 123.89 172.85 C 121.16 172.45 118.45 173.63 118.86 176.81 C 116.76 176.07 113.88 176.39 113.27 173.73 C 111.80 169.56 107.31 167.93 104.69 164.93 C 105.55 163.17 106.67 161.55 107.76 159.93 C 107.91 160.60 108.21 161.95 108.36 162.62 C 112.10 164.77 115.51 168.02 119.79 168.94 C 122.39 164.25 121.08 157.74 125.05 154.01 Z" />
</g>
<g id="#996b39ff">
<path fill="#996b39" opacity="1.00" d=" M 55.01 174.40 C 58.35 165.62 62.65 154.13 74.18 154.99 C 76.99 156.94 80.07 158.42 83.18 159.80 C 81.57 160.05 78.34 160.54 76.73 160.79 C 75.45 161.24 74.24 161.84 72.93 162.20 C 71.67 160.29 69.78 157.71 67.24 158.20 C 61.79 162.49 57.31 170.27 59.81 177.26 C 57.79 177.12 56.19 175.98 55.01 174.40 Z" />
</g>
<g id="#7a5a37fa">
<path fill="#7a5a37" opacity="0.98" d=" M 86.11 159.16 C 90.49 158.45 94.94 157.83 99.14 156.33 L 99.15 157.25 C 99.16 157.65 99.17 158.44 99.18 158.84 C 106.45 155.88 103.46 161.15 103.04 163.89 C 99.37 161.88 95.52 160.71 91.29 160.63 C 89.53 160.19 87.72 160.04 85.91 159.94 L 86.11 159.16 Z" />
</g>
<g id="#82552cfc">
<path fill="#82552c" opacity="1.00" d=" M 67.24 158.20 C 69.78 157.71 71.67 160.29 72.93 162.20 L 73.04 163.11 L 72.09 163.02 C 71.04 162.33 70.04 161.57 68.95 160.96 C 66.42 162.25 64.22 165.51 65.61 168.36 C 65.39 171.83 64.62 177.91 59.81 177.26 C 57.31 170.27 61.79 162.49 67.24 158.20 Z" />
</g>
<g id="#17130949">
<path fill="#171309" opacity="0.29" d=" M 48.01 166.99 C 46.20 166.02 46.20 161.09 47.92 160.15 C 47.95 161.86 47.99 165.28 48.01 166.99 Z" />
</g>
<g id="#2f241794">
<path fill="#2f2417" opacity="0.58" d=" M 76.73 160.79 C 78.34 160.54 81.57 160.05 83.18 159.80 C 83.86 159.83 85.23 159.90 85.91 159.94 C 87.72 160.04 89.53 160.19 91.29 160.63 C 86.45 161.03 81.57 161.24 76.73 160.79 Z" />
</g>
<g id="#704522f6">
<path fill="#704522" opacity="0.96" d=" M 65.61 168.36 C 64.22 165.51 66.42 162.25 68.95 160.96 C 70.04 161.57 71.04 162.33 72.09 163.02 C 70.59 165.28 67.64 166.47 65.61 168.36 Z" />
</g>
<g id="#895f35f8">
<path fill="#895f35" opacity="0.97" d=" M 123.89 172.85 C 122.59 169.17 126.16 165.77 127.70 162.70 C 127.28 166.23 129.32 170.80 126.93 173.94 C 125.93 173.56 124.91 173.19 123.89 172.85 Z" />
</g>
<g id="#e6d7bbfd">
<path fill="#e6d7bb" opacity="1.00" d=" M 49.20 173.00 C 50.11 173.20 51.02 173.40 51.93 173.61 C 55.06 175.08 53.81 177.72 50.74 177.76 C 49.50 178.02 48.24 178.10 46.97 178.00 C 46.57 175.92 47.77 174.32 49.20 173.00 Z" />
</g>
<g id="#725b3fe9">
<path fill="#725b3f" opacity="0.91" d=" M 51.93 173.61 C 52.38 173.45 53.28 173.12 53.74 172.96 C 54.05 173.32 54.69 174.04 55.01 174.40 C 56.19 175.98 57.79 177.12 59.81 177.26 C 60.27 180.01 52.98 177.32 50.74 177.76 C 53.81 177.72 55.06 175.08 51.93 173.61 Z" />
</g>
<g id="#e0d0b4fd">
<path fill="#e0d0b4" opacity="1.00" d=" M 118.86 176.81 C 118.45 173.63 121.16 172.45 123.89 172.85 C 124.91 173.19 125.93 173.56 126.93 173.94 C 128.72 179.19 122.04 176.78 118.86 176.81 Z" />
</g>
</svg>
