<?xml version="1.0" encoding="UTF-8" ?>
<!DOCTYPE svg PUBLIC "-//W3C//DTD SVG 1.1//EN" "http://www.w3.org/Graphics/SVG/1.1/DTD/svg11.dtd">
<svg width="143pt" height="192pt" viewBox="0 0 143 192" version="1.1" xmlns="http://www.w3.org/2000/svg">
<g id="#d9bca4f1">
<path fill="#d9bca4" opacity="0.95" d=" M 57.95 19.04 C 67.64 17.78 78.83 16.39 87.19 22.49 C 86.17 22.59 85.15 22.43 84.16 22.17 C 76.80 18.25 68.15 20.65 60.19 20.65 C 59.66 20.47 58.59 20.09 58.06 19.91 L 57.95 19.04 Z" />
</g>
<g id="#eadcb6f6">
<path fill="#eadcb6" opacity="0.96" d=" M 50.93 23.02 C 52.04 20.39 55.61 20.32 58.06 19.91 C 58.59 20.09 59.66 20.47 60.19 20.65 C 57.08 21.37 54.12 22.70 50.93 23.02 Z" />
</g>
<g id="#cfb39ffe">
<path fill="#cfb39f" opacity="1.00" d=" M 60.19 20.65 C 68.15 20.65 76.80 18.25 84.16 22.17 C 84.06 22.60 83.86 23.47 83.76 23.91 C 73.71 22.63 63.14 23.25 53.98 27.97 C 44.41 32.09 39.20 42.79 38.44 52.73 C 38.02 52.91 37.18 53.26 36.76 53.44 C 35.67 47.47 37.16 41.31 40.13 36.11 C 42.37 33.27 46.41 30.94 46.26 26.95 C 46.72 25.07 48.85 23.06 50.93 23.02 C 54.12 22.70 57.08 21.37 60.19 20.65 Z" />
</g>
<g id="#bea295fe">
<path fill="#bea295" opacity="1.00" d=" M 84.16 22.17 C 85.15 22.43 86.17 22.59 87.19 22.49 C 90.37 23.21 93.05 26.03 95.33 28.27 C 88.39 28.93 81.19 28.77 74.69 31.69 C 69.58 34.15 63.38 34.02 59.07 38.10 C 52.12 42.22 47.09 49.98 47.12 58.12 C 44.16 56.66 41.18 55.20 38.14 53.91 C 37.96 55.34 37.82 56.79 37.70 58.23 C 37.11 56.70 36.94 55.06 36.76 53.44 C 37.18 53.26 38.02 52.91 38.44 52.73 C 39.20 42.79 44.41 32.09 53.98 27.97 C 63.14 23.25 73.71 22.63 83.76 23.91 C 83.86 23.47 84.06 22.60 84.16 22.17 Z" />
</g>
<g id="#dabaa1fc">
<path fill="#dabaa1" opacity="1.00" d=" M 34.75 47.76 C 36.28 40.03 38.93 30.99 46.26 26.95 C 46.41 30.94 42.37 33.27 40.13 36.11 C 37.16 41.31 35.67 47.47 36.76 53.44 C 36.94 55.06 37.11 56.70 37.70 58.23 C 38.83 61.46 39.93 64.87 42.60 67.18 C 43.69 75.53 48.58 82.97 50.79 91.08 C 50.72 91.61 50.59 92.68 50.52 93.22 C 47.30 87.76 44.38 82.05 40.77 76.78 C 39.19 73.43 37.56 70.10 36.01 66.73 C 35.35 64.84 34.57 63.00 33.92 61.11 L 33.71 60.29 C 33.04 56.96 34.94 50.81 29.87 51.89 C 30.98 49.97 33.08 49.09 34.75 47.76 Z" />
</g>
<g id="#b4998dff">
<path fill="#b4998d" opacity="1.00" d=" M 95.33 28.27 C 96.25 28.43 96.90 29.08 97.28 30.23 C 92.99 30.49 88.65 31.51 85.17 34.16 C 82.61 37.08 81.23 40.84 78.95 43.97 C 75.63 49.32 69.86 52.23 65.22 56.25 C 62.32 59.39 59.44 63.47 60.73 67.91 C 58.69 72.77 55.58 77.46 56.02 83.00 C 56.82 91.03 58.92 99.07 57.75 107.19 C 55.04 102.24 56.15 96.13 54.26 90.86 C 53.12 85.38 50.01 80.55 49.02 75.02 C 46.55 72.39 48.86 70.83 50.05 69.07 C 51.59 69.02 54.67 68.91 56.21 68.86 C 55.51 66.51 53.43 65.00 52.06 63.07 C 50.88 61.13 48.98 59.91 47.06 58.81 L 47.12 58.12 C 47.09 49.98 52.12 42.22 59.07 38.10 C 63.38 34.02 69.58 34.15 74.69 31.69 C 81.19 28.77 88.39 28.93 95.33 28.27 Z" />
</g>
<g id="#ac9184ff">
<path fill="#ac9184" opacity="1.00" d=" M 97.28 30.23 C 98.77 30.29 98.60 33.14 99.30 34.29 C 95.04 33.95 90.55 33.88 88.28 38.24 C 87.18 43.87 84.45 48.80 81.97 53.87 C 76.33 56.80 68.57 57.00 64.92 62.93 C 63.46 63.67 59.75 69.41 63.89 69.14 C 68.09 72.05 64.25 76.27 62.48 79.41 C 60.77 83.33 60.63 87.72 59.88 91.90 C 59.67 93.01 59.47 94.11 59.27 95.22 C 61.27 93.91 63.12 92.38 64.97 90.87 C 68.09 90.79 71.40 91.55 74.35 90.25 L 75.27 89.93 C 79.05 90.46 81.92 93.07 85.18 94.80 C 85.64 94.86 86.55 94.98 87.01 95.04 C 86.97 95.45 86.90 96.29 86.87 96.71 C 86.64 97.30 86.18 98.48 85.95 99.08 C 81.76 98.38 77.39 94.52 73.29 97.29 C 70.02 98.47 66.98 100.03 65.22 103.19 C 64.93 102.86 64.34 102.19 64.04 101.85 C 64.84 98.76 68.64 97.50 71.30 96.21 C 72.88 95.84 75.84 95.55 74.87 93.21 C 70.46 90.43 65.35 93.52 61.74 96.23 C 60.78 100.66 61.82 106.65 58.80 110.88 C 56.99 110.96 53.37 111.12 51.56 111.20 L 50.75 110.69 C 50.57 110.46 50.22 110.00 50.04 109.76 C 49.54 108.12 49.78 107.23 50.78 107.08 C 50.50 110.77 57.45 110.19 57.75 107.19 C 58.92 99.07 56.82 91.03 56.02 83.00 C 55.58 77.46 58.69 72.77 60.73 67.91 C 59.44 63.47 62.32 59.39 65.22 56.25 C 69.86 52.23 75.63 49.32 78.95 43.97 C 81.23 40.84 82.61 37.08 85.17 34.16 C 88.65 31.51 92.99 30.49 97.28 30.23 Z" />
</g>
<g id="#a2877afe">
<path fill="#a2877a" opacity="1.00" d=" M 88.28 38.24 C 90.55 33.88 95.04 33.95 99.30 34.29 L 100.03 34.27 C 100.08 34.77 100.18 35.77 100.24 36.27 C 97.88 36.24 95.30 35.69 93.30 37.30 C 90.94 41.89 90.42 47.25 87.59 51.63 C 86.02 53.87 86.23 56.74 85.30 59.25 C 85.05 57.68 85.99 54.60 83.88 54.16 C 83.40 54.09 82.45 53.95 81.97 53.87 C 84.45 48.80 87.18 43.87 88.28 38.24 Z" />
</g>
<g id="#9b7e71fe">
<path fill="#9b7e71" opacity="1.00" d=" M 93.30 37.30 C 95.30 35.69 97.88 36.24 100.24 36.27 C 101.73 36.55 101.71 39.11 102.27 40.33 C 101.95 40.41 101.31 40.57 100.99 40.65 C 100.43 37.53 96.20 36.94 94.75 39.74 C 88.83 53.31 85.19 67.83 82.51 82.40 C 80.85 86.93 84.05 90.69 85.18 94.80 C 81.92 93.07 79.05 90.46 75.27 89.93 C 74.83 83.85 77.83 78.32 79.65 72.67 C 80.13 70.75 81.70 68.53 80.12 66.72 C 82.31 65.52 83.54 63.42 84.33 61.12 C 84.58 60.65 85.06 59.71 85.30 59.25 C 86.23 56.74 86.02 53.87 87.59 51.63 C 90.42 47.25 90.94 41.89 93.30 37.30 Z" />
</g>
<g id="#95796bff">
<path fill="#95796b" opacity="1.00" d=" M 94.75 39.74 C 96.20 36.94 100.43 37.53 100.99 40.65 C 98.99 40.54 96.52 40.35 95.23 42.24 C 90.88 54.73 90.31 67.98 89.11 81.02 C 88.12 85.56 90.93 89.44 91.34 93.78 C 92.73 93.87 95.50 94.04 96.88 94.13 C 96.98 94.53 97.17 95.32 97.26 95.72 C 95.56 95.28 93.82 94.97 92.06 94.96 C 92.25 95.99 92.46 97.03 92.69 98.06 L 91.96 98.30 C 91.49 95.57 89.70 94.54 87.01 95.04 C 86.55 94.98 85.64 94.86 85.18 94.80 C 84.05 90.69 80.85 86.93 82.51 82.40 C 85.19 67.83 88.83 53.31 94.75 39.74 Z" />
</g>
<g id="#8c7062fd">
<path fill="#8c7062" opacity="1.00" d=" M 95.23 42.24 C 96.52 40.35 98.99 40.54 100.99 40.65 C 101.31 40.57 101.95 40.41 102.27 40.33 C 103.76 41.15 103.72 44.88 104.77 46.79 C 100.57 49.99 94.21 53.48 95.92 59.93 C 95.33 67.20 96.66 74.66 100.67 80.81 C 98.99 85.04 98.98 89.67 97.88 94.05 L 96.88 94.13 C 95.50 94.04 92.73 93.87 91.34 93.78 C 90.93 89.44 88.12 85.56 89.11 81.02 C 90.31 67.98 90.88 54.73 95.23 42.24 Z" />
</g>
<g id="#9b8074fb">
<path fill="#9b8074" opacity="1.00" d=" M 95.92 59.93 C 94.21 53.48 100.57 49.99 104.77 46.79 C 107.09 48.30 109.34 49.93 111.71 51.37 C 114.38 55.37 117.16 59.99 117.02 64.99 C 116.97 67.66 116.96 70.33 116.98 73.01 C 116.11 81.37 120.33 89.43 118.72 97.75 C 117.22 102.43 109.85 107.46 106.64 101.98 C 106.93 101.74 107.51 101.27 107.80 101.04 C 108.89 102.56 109.31 100.74 109.90 99.87 C 109.65 101.74 110.23 102.31 111.64 101.57 C 113.61 99.26 115.73 97.06 117.64 94.69 C 118.01 92.42 116.52 90.14 115.96 87.99 C 114.60 83.76 109.47 81.76 109.27 77.03 C 111.11 71.61 111.66 65.71 109.67 60.26 C 107.10 57.83 104.48 62.62 101.48 60.43 C 99.77 59.30 97.77 58.65 95.92 59.93 Z" />
</g>
<g id="#bfa08bff">
<path fill="#bfa08b" opacity="1.00" d=" M 28.90 51.87 L 29.87 51.89 C 34.94 50.81 33.04 56.96 33.71 60.29 C 31.76 58.01 30.97 55.05 29.32 52.59 L 28.90 51.87 Z" />
</g>
<g id="#aa8f81fd">
<path fill="#aa8f81" opacity="1.00" d=" M 23.56 61.79 C 23.66 58.00 26.11 54.51 29.32 52.59 C 30.97 55.05 31.76 58.01 33.71 60.29 L 33.92 61.11 C 32.06 60.44 30.13 59.88 28.13 59.96 C 28.74 64.61 28.48 69.46 29.89 73.96 C 27.91 74.04 25.95 74.32 24.00 74.64 C 23.81 70.36 24.27 66.03 23.56 61.79 Z" />
</g>
<g id="#36312fff">
<path fill="#36312f" opacity="1.00" d=" M 38.14 53.91 C 41.18 55.20 44.16 56.66 47.12 58.12 L 47.06 58.81 C 43.09 58.88 46.00 64.60 47.70 66.31 C 49.98 68.64 51.22 64.86 51.22 62.95 L 52.06 63.07 C 53.43 65.00 55.51 66.51 56.21 68.86 C 54.67 68.91 51.59 69.02 50.05 69.07 C 47.57 68.42 45.08 67.82 42.60 67.18 C 39.93 64.87 38.83 61.46 37.70 58.23 C 37.82 56.79 37.96 55.34 38.14 53.91 Z" />
</g>
<g id="#2e2a28ff">
<path fill="#2e2a28" opacity="1.00" d=" M 64.92 62.93 C 68.57 57.00 76.33 56.80 81.97 53.87 C 82.45 53.95 83.40 54.09 83.88 54.16 C 83.99 55.90 84.22 59.38 84.33 61.12 C 83.54 63.42 82.31 65.52 80.12 66.72 C 77.73 67.48 75.28 68.10 72.85 68.75 C 69.86 68.89 66.88 69.03 63.89 69.14 C 59.75 69.41 63.46 63.67 64.92 62.93 M 71.20 59.19 C 69.52 60.02 70.91 61.68 70.99 63.01 C 69.64 62.72 68.33 62.26 66.98 61.99 C 66.36 64.75 68.91 67.76 71.80 66.90 C 72.81 64.78 75.50 57.49 71.20 59.19 Z" />
</g>
<g id="#725f55ff">
<path fill="#725f55" opacity="1.00" d=" M 83.88 54.16 C 85.99 54.60 85.05 57.68 85.30 59.25 C 85.06 59.71 84.58 60.65 84.33 61.12 C 84.22 59.38 83.99 55.90 83.88 54.16 Z" />
</g>
<g id="#d5d5d5ff">
<path fill="#d5d5d5" opacity="1.00" d=" M 47.70 66.31 C 46.00 64.60 43.09 58.88 47.06 58.81 C 46.02 61.99 48.68 62.80 51.22 62.95 C 51.22 64.86 49.98 68.64 47.70 66.31 Z" />
</g>
<g id="#4d4846ff">
<path fill="#4d4846" opacity="1.00" d=" M 47.06 58.81 C 48.98 59.91 50.88 61.13 52.06 63.07 L 51.22 62.95 C 48.68 62.80 46.02 61.99 47.06 58.81 Z" />
</g>
<g id="#d0d0d0ff">
<path fill="#d0d0d0" opacity="1.00" d=" M 71.20 59.19 C 75.50 57.49 72.81 64.78 71.80 66.90 C 68.91 67.76 66.36 64.75 66.98 61.99 C 68.33 62.26 69.64 62.72 70.99 63.01 C 70.91 61.68 69.52 60.02 71.20 59.19 Z" />
</g>
<g id="#aa8f84ff">
<path fill="#aa8f84" opacity="1.00" d=" M 95.92 59.93 C 97.77 58.65 99.77 59.30 101.48 60.43 C 104.48 62.62 107.10 57.83 109.67 60.26 C 111.66 65.71 111.11 71.61 109.27 77.03 C 109.47 81.76 114.60 83.76 115.96 87.99 C 116.52 90.14 118.01 92.42 117.64 94.69 C 115.73 97.06 113.61 99.26 111.64 101.57 C 110.23 102.31 109.65 101.74 109.90 99.87 C 109.40 98.44 109.74 92.34 107.77 95.12 C 107.53 94.59 107.07 93.52 106.83 92.98 C 104.86 88.89 102.70 84.88 100.67 80.81 C 96.66 74.66 95.33 67.20 95.92 59.93 Z" />
</g>
<g id="#9d8175ff">
<path fill="#9d8175" opacity="1.00" d=" M 28.13 59.96 C 30.13 59.88 32.06 60.44 33.92 61.11 C 34.57 63.00 35.35 64.84 36.01 66.73 C 32.57 67.19 34.29 71.62 33.08 74.04 C 32.28 74.02 30.69 73.98 29.89 73.96 C 28.48 69.46 28.74 64.61 28.13 59.96 Z" />
</g>
<g id="#c7a995fb">
<path fill="#c7a995" opacity="1.00" d=" M 23.56 61.79 C 24.27 66.03 23.81 70.36 24.00 74.64 C 25.95 74.32 27.91 74.04 29.89 73.96 C 30.69 73.98 32.28 74.02 33.08 74.04 C 34.07 74.40 35.05 74.78 36.03 75.17 C 36.58 78.02 33.59 75.80 32.14 75.76 C 29.08 74.32 25.93 75.67 23.07 76.92 C 22.05 71.90 21.12 66.55 23.56 61.79 Z" />
</g>
<g id="#10101055">
<path fill="#101010" opacity="0.33" d=" M 117.02 64.99 C 119.22 65.90 117.54 70.58 117.95 72.98 L 116.98 73.01 C 116.96 70.33 116.97 67.66 117.02 64.99 Z" />
</g>
<g id="#8c7366f9">
<path fill="#8c7366" opacity="0.98" d=" M 33.08 74.04 C 34.29 71.62 32.57 67.19 36.01 66.73 C 37.56 70.10 39.19 73.43 40.77 76.78 C 38.32 82.97 36.39 89.30 34.64 95.70 C 33.91 100.02 26.94 100.95 24.89 97.85 C 26.80 97.30 29.76 98.09 30.53 95.67 C 31.03 92.44 32.74 89.71 34.78 87.24 C 33.63 86.05 32.38 84.96 31.24 83.75 C 31.72 80.60 35.76 80.74 37.29 78.30 C 38.80 77.00 37.72 75.39 36.03 75.17 C 35.05 74.78 34.07 74.40 33.08 74.04 Z" />
</g>
<g id="#c3a592fd">
<path fill="#c3a592" opacity="1.00" d=" M 42.60 67.18 C 45.08 67.82 47.57 68.42 50.05 69.07 C 48.86 70.83 46.55 72.39 49.02 75.02 C 50.01 80.55 53.12 85.38 54.26 90.86 C 56.15 96.13 55.04 102.24 57.75 107.19 C 57.45 110.19 50.50 110.77 50.78 107.08 C 51.05 105.27 51.95 103.30 53.78 102.62 C 54.55 99.17 50.68 96.54 50.52 93.22 C 50.59 92.68 50.72 91.61 50.79 91.08 C 48.58 82.97 43.69 75.53 42.60 67.18 Z" />
</g>
<g id="#a18577ff">
<path fill="#a18577" opacity="1.00" d=" M 72.85 68.75 C 75.28 68.10 77.73 67.48 80.12 66.72 C 81.70 68.53 80.13 70.75 79.65 72.67 C 77.83 78.32 74.83 83.85 75.27 89.93 L 74.35 90.25 C 72.17 90.08 70.00 89.81 67.84 89.41 C 66.04 81.92 72.28 75.59 74.93 69.04 C 74.41 68.96 73.37 68.82 72.85 68.75 Z" />
</g>
<g id="#a78b7fff">
<path fill="#a78b7f" opacity="1.00" d=" M 63.89 69.14 C 66.88 69.03 69.86 68.89 72.85 68.75 C 73.37 68.82 74.41 68.96 74.93 69.04 C 72.28 75.59 66.04 81.92 67.84 89.41 C 66.89 89.90 65.92 90.37 64.97 90.87 C 63.25 91.09 61.53 91.35 59.88 91.90 C 60.63 87.72 60.77 83.33 62.48 79.41 C 64.25 76.27 68.09 72.05 63.89 69.14 Z" />
</g>
<g id="#aa9082fc">
<path fill="#aa9082" opacity="1.00" d=" M 23.07 76.92 C 25.93 75.67 29.08 74.32 32.14 75.76 C 33.59 75.80 36.58 78.02 36.03 75.17 C 37.72 75.39 38.80 77.00 37.29 78.30 C 35.76 80.74 31.72 80.60 31.24 83.75 C 32.38 84.96 33.63 86.05 34.78 87.24 C 32.74 89.71 31.03 92.44 30.53 95.67 C 29.76 98.09 26.80 97.30 24.89 97.85 C 20.38 97.00 17.08 92.91 15.00 88.95 C 16.39 84.20 17.93 78.85 23.07 76.92 M 25.20 78.18 C 22.61 79.75 24.91 81.71 27.00 81.97 C 26.79 80.41 27.98 76.87 25.20 78.18 M 17.80 84.14 C 18.79 86.37 20.23 88.27 22.13 89.84 C 23.47 89.32 25.67 89.19 24.89 87.18 C 22.55 86.12 20.19 85.11 17.80 84.14 Z" />
</g>
<g id="#8b7265ff">
<path fill="#8b7265" opacity="1.00" d=" M 25.20 78.18 C 27.98 76.87 26.79 80.41 27.00 81.97 C 24.91 81.71 22.61 79.75 25.20 78.18 Z" />
</g>
<g id="#0a090820">
<path fill="#0a0908" opacity="0.13" d=" M 97.88 94.05 C 98.98 89.67 98.99 85.04 100.67 80.81 C 102.70 84.88 104.86 88.89 106.83 92.98 C 103.84 93.28 100.90 94.01 97.88 94.05 Z" />
</g>
<g id="#886e61ff">
<path fill="#886e61" opacity="1.00" d=" M 17.80 84.14 C 20.19 85.11 22.55 86.12 24.89 87.18 C 25.67 89.19 23.47 89.32 22.13 89.84 C 20.23 88.27 18.79 86.37 17.80 84.14 Z" />
</g>
<g id="#bc9f8fff">
<path fill="#bc9f8f" opacity="1.00" d=" M 67.84 89.41 C 70.00 89.81 72.17 90.08 74.35 90.25 C 71.40 91.55 68.09 90.79 64.97 90.87 C 65.92 90.37 66.89 89.90 67.84 89.41 Z" />
</g>
<g id="#c6a996ff">
<path fill="#c6a996" opacity="1.00" d=" M 59.88 91.90 C 61.53 91.35 63.25 91.09 64.97 90.87 C 63.12 92.38 61.27 93.91 59.27 95.22 C 59.47 94.11 59.67 93.01 59.88 91.90 Z" />
</g>
<g id="#9a7f74ff">
<path fill="#9a7f74" opacity="1.00" d=" M 61.74 96.23 C 65.35 93.52 70.46 90.43 74.87 93.21 C 75.84 95.55 72.88 95.84 71.30 96.21 C 68.05 92.99 65.12 98.79 61.74 96.23 Z" />
</g>
<g id="#d1c1a2fd">
<path fill="#d1c1a2" opacity="1.00" d=" M 97.88 94.05 C 100.90 94.01 103.84 93.28 106.83 92.98 C 107.07 93.52 107.53 94.59 107.77 95.12 C 107.90 97.09 107.90 99.07 107.80 101.04 C 107.51 101.27 106.93 101.74 106.64 101.98 L 105.73 102.41 C 102.45 101.77 105.71 96.42 103.14 96.04 C 103.80 98.83 102.68 103.28 99.22 101.88 C 98.39 99.89 97.87 97.79 97.26 95.72 C 97.17 95.32 96.98 94.53 96.88 94.13 L 97.88 94.05 Z" />
</g>
<g id="#857364ff">
<path fill="#857364" opacity="1.00" d=" M 107.77 95.12 C 109.74 92.34 109.40 98.44 109.90 99.87 C 109.31 100.74 108.89 102.56 107.80 101.04 C 107.90 99.07 107.90 97.09 107.77 95.12 Z" />
</g>
<g id="#a5897cff">
<path fill="#a5897c" opacity="1.00" d=" M 61.74 96.23 C 65.12 98.79 68.05 92.99 71.30 96.21 C 68.64 97.50 64.84 98.76 64.04 101.85 C 63.47 104.30 63.20 106.80 63.22 109.34 C 63.96 107.31 64.52 105.23 65.22 103.19 C 66.98 100.03 70.02 98.47 73.29 97.29 C 77.39 94.52 81.76 98.38 85.95 99.08 C 85.93 99.50 85.89 100.35 85.87 100.78 C 80.23 104.69 72.66 107.49 70.00 114.32 C 69.80 114.04 69.41 113.47 69.21 113.19 C 70.02 110.72 71.11 108.36 72.07 105.95 C 70.65 106.92 69.34 108.03 68.01 109.11 C 68.26 107.46 68.74 105.86 69.29 104.29 C 70.98 101.98 74.91 102.64 76.13 99.95 C 71.97 100.41 66.33 101.73 65.61 106.66 C 65.12 109.13 63.75 111.27 61.71 112.76 C 59.11 112.95 56.51 113.07 53.91 113.13 C 53.10 112.52 52.32 111.87 51.56 111.20 C 53.37 111.12 56.99 110.96 58.80 110.88 C 61.82 106.65 60.78 100.66 61.74 96.23 Z" />
</g>
<g id="#dfd0afff">
<path fill="#dfd0af" opacity="1.00" d=" M 87.01 95.04 C 89.70 94.54 91.49 95.57 91.96 98.30 C 91.93 98.69 91.88 99.47 91.85 99.86 C 90.56 100.16 89.29 100.50 88.03 100.90 C 87.78 99.46 87.36 98.07 86.87 96.71 C 86.90 96.29 86.97 95.45 87.01 95.04 Z" />
</g>
<g id="#e0d1b0ff">
<path fill="#e0d1b0" opacity="1.00" d=" M 92.06 94.96 C 93.82 94.97 95.56 95.28 97.26 95.72 C 97.16 97.48 97.08 99.24 97.04 101.00 C 95.74 100.52 94.39 100.13 93.05 99.79 C 92.96 99.36 92.78 98.49 92.69 98.06 C 92.46 97.03 92.25 95.99 92.06 94.96 Z" />
</g>
<g id="#796d58e8">
<path fill="#796d58" opacity="0.91" d=" M 97.26 95.72 C 97.87 97.79 98.39 99.89 99.22 101.88 C 102.68 103.28 103.80 98.83 103.14 96.04 C 105.71 96.42 102.45 101.77 105.73 102.41 C 106.98 104.55 99.02 102.50 97.05 102.96 L 97.04 102.01 L 97.04 101.00 C 97.08 99.24 97.16 97.48 97.26 95.72 Z" />
</g>
<g id="#8a7367fc">
<path fill="#8a7367" opacity="1.00" d=" M 85.95 99.08 C 86.18 98.48 86.64 97.30 86.87 96.71 C 87.36 98.07 87.78 99.46 88.03 100.90 C 88.07 102.49 87.50 104.90 89.96 103.96 C 91.75 103.97 91.54 101.16 91.85 99.86 C 91.88 99.47 91.93 98.69 91.96 98.30 L 92.69 98.06 C 92.78 98.49 92.96 99.36 93.05 99.79 C 93.07 100.62 93.11 102.26 93.13 103.09 C 94.50 103.02 95.80 102.57 97.04 102.01 L 97.05 102.96 C 96.00 108.19 94.57 114.78 90.10 117.99 L 89.43 118.22 C 88.03 116.19 85.93 114.92 83.69 114.00 C 85.55 111.77 88.73 109.93 86.93 106.18 C 85.24 104.66 82.82 106.24 80.81 105.98 C 82.83 104.69 86.47 103.91 85.87 100.78 C 85.89 100.35 85.93 99.50 85.95 99.08 Z" />
</g>
<g id="#8c7565fd">
<path fill="#8c7565" opacity="1.00" d=" M 65.61 106.66 C 66.33 101.73 71.97 100.41 76.13 99.95 C 74.91 102.64 70.98 101.98 69.29 104.29 C 68.74 105.86 68.26 107.46 68.01 109.11 C 67.70 110.61 68.34 112.01 69.21 113.19 C 69.41 113.47 69.80 114.04 70.00 114.32 C 70.69 115.26 71.45 116.15 72.18 117.08 C 71.90 118.12 71.61 119.16 71.30 120.20 C 71.62 116.31 66.97 118.03 64.37 118.16 C 63.65 121.54 61.26 124.27 60.77 127.73 C 60.17 127.77 59.58 127.82 58.98 127.90 C 58.25 127.93 56.78 128.00 56.05 128.03 C 56.50 126.76 56.90 125.47 57.26 124.17 C 58.81 124.04 60.28 123.57 61.27 122.29 C 58.67 122.55 56.21 122.26 53.87 121.40 C 56.05 120.90 57.58 119.22 58.26 117.14 C 59.57 117.40 60.88 117.68 62.21 117.86 C 59.88 115.57 56.63 114.80 53.91 113.13 C 56.51 113.07 59.11 112.95 61.71 112.76 C 63.75 111.27 65.12 109.13 65.61 106.66 Z" />
</g>
<g id="#c0ad8eff">
<path fill="#c0ad8e" opacity="1.00" d=" M 88.03 100.90 C 89.29 100.50 90.56 100.16 91.85 99.86 C 91.54 101.16 91.75 103.97 89.96 103.96 C 87.50 104.90 88.07 102.49 88.03 100.90 Z" />
</g>
<g id="#c1ac8eff">
<path fill="#c1ac8e" opacity="1.00" d=" M 93.05 99.79 C 94.39 100.13 95.74 100.52 97.04 101.00 L 97.04 102.01 C 95.80 102.57 94.50 103.02 93.13 103.09 C 93.11 102.26 93.07 100.62 93.05 99.79 Z" />
</g>
<g id="#977e72ff">
<path fill="#977e72" opacity="1.00" d=" M 70.00 114.32 C 72.66 107.49 80.23 104.69 85.87 100.78 C 86.47 103.91 82.83 104.69 80.81 105.98 C 82.82 106.24 85.24 104.66 86.93 106.18 C 88.73 109.93 85.55 111.77 83.69 114.00 C 79.90 114.70 75.09 113.92 72.18 117.08 C 71.45 116.15 70.69 115.26 70.00 114.32 Z" />
</g>
<g id="#c7a995ff">
<path fill="#c7a995" opacity="1.00" d=" M 64.04 101.85 C 64.34 102.19 64.93 102.86 65.22 103.19 C 64.52 105.23 63.96 107.31 63.22 109.34 C 63.20 106.80 63.47 104.30 64.04 101.85 Z" />
</g>
<g id="#c6a793ff">
<path fill="#c6a793" opacity="1.00" d=" M 68.01 109.11 C 69.34 108.03 70.65 106.92 72.07 105.95 C 71.11 108.36 70.02 110.72 69.21 113.19 C 68.34 112.01 67.70 110.61 68.01 109.11 Z" />
</g>
<g id="#ccb997f6">
<path fill="#ccb997" opacity="0.96" d=" M 48.24 110.14 C 48.69 110.05 49.59 109.86 50.04 109.76 C 50.22 110.00 50.57 110.46 50.75 110.69 C 50.80 111.46 50.87 112.22 50.96 112.99 C 49.76 115.39 46.96 117.37 47.51 120.30 C 47.95 123.10 44.78 125.19 45.57 128.00 C 45.54 130.17 44.93 132.28 44.32 134.35 C 40.90 134.11 43.24 128.96 43.53 126.69 C 42.34 120.89 46.71 115.70 48.24 110.14 Z" />
</g>
<g id="#76624ffd">
<path fill="#76624f" opacity="1.00" d=" M 50.96 112.99 C 50.87 112.22 50.80 111.46 50.75 110.69 L 51.56 111.20 C 52.32 111.87 53.10 112.52 53.91 113.13 C 56.63 114.80 59.88 115.57 62.21 117.86 C 60.88 117.68 59.57 117.40 58.26 117.14 C 56.88 116.46 55.51 115.78 54.14 115.09 C 53.06 114.41 52.02 113.69 50.96 112.99 Z" />
</g>
<g id="#ae9b80ff">
<path fill="#ae9b80" opacity="1.00" d=" M 50.96 112.99 C 52.02 113.69 53.06 114.41 54.14 115.09 C 54.10 117.12 52.99 118.72 51.69 120.17 C 50.97 120.17 49.54 120.17 48.83 120.17 C 50.28 121.13 51.83 121.94 53.35 122.78 C 52.39 125.26 50.30 126.71 47.79 127.40 C 47.24 127.55 46.13 127.85 45.57 128.00 C 44.78 125.19 47.95 123.10 47.51 120.30 C 46.96 117.37 49.76 115.39 50.96 112.99 Z" />
</g>
<g id="#cab89afe">
<path fill="#cab89a" opacity="1.00" d=" M 72.18 117.08 C 75.09 113.92 79.90 114.70 83.69 114.00 C 85.93 114.92 88.03 116.19 89.43 118.22 C 84.08 121.61 75.84 118.15 71.85 124.03 C 77.33 121.98 84.60 118.84 89.18 124.03 C 87.82 126.83 84.70 127.59 81.78 127.74 C 78.39 128.26 74.50 128.75 72.75 132.15 C 72.39 132.02 71.67 131.77 71.31 131.65 C 71.25 127.83 71.14 124.01 71.30 120.20 C 71.61 119.16 71.90 118.12 72.18 117.08 Z" />
</g>
<g id="#9f8971ff">
<path fill="#9f8971" opacity="1.00" d=" M 54.14 115.09 C 55.51 115.78 56.88 116.46 58.26 117.14 C 57.58 119.22 56.05 120.90 53.87 121.40 C 53.32 121.09 52.23 120.48 51.69 120.17 C 52.99 118.72 54.10 117.12 54.14 115.09 Z" />
</g>
<g id="#04040311">
<path fill="#040403" opacity="0.07" d=" M 64.37 118.16 C 66.97 118.03 71.62 116.31 71.30 120.20 C 71.14 124.01 71.25 127.83 71.31 131.65 C 71.67 131.77 72.39 132.02 72.75 132.15 C 72.80 132.64 72.91 133.62 72.97 134.11 C 73.03 135.78 73.10 137.45 73.24 139.13 C 73.61 139.36 74.35 139.82 74.72 140.05 L 74.95 140.99 C 74.99 143.04 74.99 145.10 75.01 147.15 C 73.16 145.78 71.24 144.50 69.46 143.04 C 68.75 140.61 66.46 139.57 64.32 138.68 C 63.59 137.57 62.80 136.52 61.97 135.49 C 61.45 132.92 60.97 130.34 60.77 127.73 C 61.26 124.27 63.65 121.54 64.37 118.16 Z" />
</g>
<g id="#a6967bfc">
<path fill="#a6967b" opacity="1.00" d=" M 89.43 118.22 L 90.10 117.99 C 88.79 122.00 91.50 126.22 89.80 130.04 C 89.31 129.85 88.33 129.47 87.83 129.28 C 92.05 126.63 83.89 128.20 81.78 127.74 C 84.70 127.59 87.82 126.83 89.18 124.03 C 84.60 118.84 77.33 121.98 71.85 124.03 C 75.84 118.15 84.08 121.61 89.43 118.22 Z" />
</g>
<g id="#74624dff">
<path fill="#74624d" opacity="1.00" d=" M 48.83 120.17 C 49.54 120.17 50.97 120.17 51.69 120.17 C 52.23 120.48 53.32 121.09 53.87 121.40 C 56.21 122.26 58.67 122.55 61.27 122.29 C 60.28 123.57 58.81 124.04 57.26 124.17 C 55.97 123.65 54.67 123.19 53.35 122.78 C 51.83 121.94 50.28 121.13 48.83 120.17 Z" />
</g>
<g id="#9d8870ff">
<path fill="#9d8870" opacity="1.00" d=" M 53.35 122.78 C 54.67 123.19 55.97 123.65 57.26 124.17 C 56.90 125.47 56.50 126.76 56.05 128.03 C 53.28 128.04 50.47 128.17 47.79 127.40 C 50.30 126.71 52.39 125.26 53.35 122.78 Z" />
</g>
<g id="#796751ff">
<path fill="#796751" opacity="1.00" d=" M 45.57 128.00 C 46.13 127.85 47.24 127.55 47.79 127.40 C 50.47 128.17 53.28 128.04 56.05 128.03 C 56.78 128.00 58.25 127.93 58.98 127.90 C 57.01 130.24 54.01 130.18 51.12 130.23 C 49.24 129.56 47.42 128.75 45.57 128.00 Z" />
</g>
<g id="#9c876efd">
<path fill="#9c876e" opacity="1.00" d=" M 58.98 127.90 C 59.58 127.82 60.17 127.77 60.77 127.73 C 60.97 130.34 61.45 132.92 61.97 135.49 C 61.24 136.85 60.96 138.37 60.83 139.90 C 62.00 139.51 63.16 139.10 64.32 138.68 C 64.20 139.19 63.96 140.22 63.84 140.73 C 60.99 144.57 57.45 147.78 52.81 149.28 C 51.34 148.32 54.39 145.83 53.18 144.04 C 55.68 142.64 58.68 141.63 60.11 138.94 C 57.11 140.10 54.26 141.82 50.96 142.04 C 52.22 140.59 53.05 138.90 52.94 136.93 C 55.09 135.75 57.72 135.17 59.16 133.02 C 54.98 134.03 50.90 135.42 46.80 136.71 L 45.93 136.90 L 45.90 135.88 C 47.99 134.28 51.58 133.55 51.12 130.23 C 54.01 130.18 57.01 130.24 58.98 127.90 Z" />
</g>
<g id="#b09c81fc">
<path fill="#b09c81" opacity="1.00" d=" M 45.57 128.00 C 47.42 128.75 49.24 129.56 51.12 130.23 C 51.58 133.55 47.99 134.28 45.90 135.88 C 45.42 136.19 44.45 136.80 43.97 137.10 C 44.06 136.41 44.23 135.04 44.32 134.35 C 44.93 132.28 45.54 130.17 45.57 128.00 Z" />
</g>
<g id="#93856cfd">
<path fill="#93856c" opacity="1.00" d=" M 72.75 132.15 C 74.50 128.75 78.39 128.26 81.78 127.74 C 83.89 128.20 92.05 126.63 87.83 129.28 C 82.79 129.09 75.84 128.98 72.97 134.11 C 72.91 133.62 72.80 132.64 72.75 132.15 Z" />
</g>
<g id="#cbba9cff">
<path fill="#cbba9c" opacity="1.00" d=" M 72.97 134.11 C 75.84 128.98 82.79 129.09 87.83 129.28 C 88.33 129.47 89.31 129.85 89.80 130.04 L 89.87 130.78 C 84.98 133.28 80.11 136.88 74.25 135.43 C 73.89 136.65 73.59 137.90 73.24 139.13 C 73.10 137.45 73.03 135.78 72.97 134.11 Z" />
</g>
<g id="#bfad90ff">
<path fill="#bfad90" opacity="1.00" d=" M 74.25 135.43 C 80.11 136.88 84.98 133.28 89.87 130.78 C 91.24 131.19 92.67 134.03 90.85 134.85 C 85.25 135.80 79.62 137.07 74.72 140.05 C 74.35 139.82 73.61 139.36 73.24 139.13 C 73.59 137.90 73.89 136.65 74.25 135.43 Z" />
</g>
<g id="#7a6750ff">
<path fill="#7a6750" opacity="1.00" d=" M 46.80 136.71 C 50.90 135.42 54.98 134.03 59.16 133.02 C 57.72 135.17 55.09 135.75 52.94 136.93 C 50.89 136.95 48.84 136.85 46.80 136.71 Z" />
</g>
<g id="#8f8068fd">
<path fill="#8f8068" opacity="1.00" d=" M 74.72 140.05 C 79.62 137.07 85.25 135.80 90.85 134.85 L 90.89 136.03 C 85.46 137.26 80.15 138.98 74.95 140.99 L 74.72 140.05 Z" />
</g>
<g id="#d6c09bfc">
<path fill="#d6c09b" opacity="1.00" d=" M 43.97 137.10 C 44.45 136.80 45.42 136.19 45.90 135.88 L 45.93 136.90 C 45.86 138.38 45.72 139.86 45.45 141.32 C 43.16 141.48 44.25 138.45 43.97 137.10 Z" />
</g>
<g id="#bca98bfd">
<path fill="#bca98b" opacity="1.00" d=" M 60.83 139.90 C 60.96 138.37 61.24 136.85 61.97 135.49 C 62.80 136.52 63.59 137.57 64.32 138.68 C 63.16 139.10 62.00 139.51 60.83 139.90 Z" />
</g>
<g id="#c2b093ff">
<path fill="#c2b093" opacity="1.00" d=" M 74.95 140.99 C 80.15 138.98 85.46 137.26 90.89 136.03 C 91.89 137.67 95.29 140.38 92.76 141.89 C 86.89 143.36 81.31 148.18 75.01 147.15 C 74.99 145.10 74.99 143.04 74.95 140.99 Z" />
</g>
<g id="#a89478f7">
<path fill="#a89478" opacity="0.97" d=" M 45.93 136.90 L 46.80 136.71 C 48.84 136.85 50.89 136.95 52.94 136.93 C 53.05 138.90 52.22 140.59 50.96 142.04 C 49.89 142.61 48.82 143.19 47.80 143.84 C 49.59 143.96 51.38 144.01 53.18 144.04 C 54.39 145.83 51.34 148.32 52.81 149.28 C 53.79 149.62 54.79 149.87 55.83 150.02 C 56.41 151.04 57.16 152.14 56.35 153.28 C 51.50 150.99 45.85 147.28 45.45 141.32 C 45.72 139.86 45.86 138.38 45.93 136.90 Z" />
</g>
<g id="#78644eff">
<path fill="#78644e" opacity="1.00" d=" M 50.96 142.04 C 54.26 141.82 57.11 140.10 60.11 138.94 C 58.68 141.63 55.68 142.64 53.18 144.04 C 51.38 144.01 49.59 143.96 47.80 143.84 C 48.82 143.19 49.89 142.61 50.96 142.04 Z" />
</g>
<g id="#ae9e7ff7">
<path fill="#ae9e7f" opacity="0.97" d=" M 64.32 138.68 C 66.46 139.57 68.75 140.61 69.46 143.04 C 67.54 143.66 63.34 146.85 63.73 142.82 C 63.76 142.30 63.82 141.26 63.84 140.73 C 63.96 140.22 64.20 139.19 64.32 138.68 Z" />
</g>
<g id="#76644dff">
<path fill="#76644d" opacity="1.00" d=" M 52.81 149.28 C 57.45 147.78 60.99 144.57 63.84 140.73 C 63.82 141.26 63.76 142.30 63.73 142.82 C 61.80 145.93 58.76 147.95 55.83 150.02 C 54.79 149.87 53.79 149.62 52.81 149.28 Z" />
</g>
<g id="#645945d0">
<path fill="#645945" opacity="0.82" d=" M 75.01 147.15 C 81.31 148.18 86.89 143.36 92.76 141.89 C 93.03 142.40 93.58 143.43 93.85 143.94 C 87.53 144.93 80.72 146.85 75.82 151.08 L 74.95 150.88 C 74.98 149.63 75.00 148.39 75.01 147.15 Z" />
</g>
<g id="#a28a72fb">
<path fill="#a28a72" opacity="1.00" d=" M 55.83 150.02 C 58.76 147.95 61.80 145.93 63.73 142.82 C 63.34 146.85 67.54 143.66 69.46 143.04 C 71.24 144.50 73.16 145.78 75.01 147.15 C 75.00 148.39 74.98 149.63 74.95 150.88 C 70.66 152.84 66.34 154.69 61.83 156.05 C 56.52 159.63 50.43 161.61 44.55 164.05 C 44.07 163.85 43.13 163.44 42.65 163.24 C 46.79 159.79 53.38 159.40 57.77 155.71 C 59.16 153.62 55.80 154.58 56.35 153.28 C 57.16 152.14 56.41 151.04 55.83 150.02 M 68.37 145.28 C 67.02 149.24 62.16 149.94 59.91 153.04 C 63.29 153.33 65.95 150.24 68.28 148.29 C 68.94 147.14 71.29 143.87 68.37 145.28 Z" />
</g>
<g id="#bfae90ff">
<path fill="#bfae90" opacity="1.00" d=" M 75.82 151.08 C 80.72 146.85 87.53 144.93 93.85 143.94 C 94.58 144.91 95.48 145.79 95.98 146.92 C 91.32 151.00 84.80 151.51 80.04 155.16 C 77.92 156.44 77.08 152.32 75.82 151.08 Z" />
</g>
<g id="#77654eff">
<path fill="#77654e" opacity="1.00" d=" M 68.37 145.28 C 71.29 143.87 68.94 147.14 68.28 148.29 C 65.95 150.24 63.29 153.33 59.91 153.04 C 62.16 149.94 67.02 149.24 68.37 145.28 Z" />
</g>
<g id="#b3a084fe">
<path fill="#b3a084" opacity="1.00" d=" M 80.04 155.16 C 84.80 151.51 91.32 151.00 95.98 146.92 C 98.27 146.28 94.66 149.87 96.74 150.22 C 98.76 151.17 102.09 153.75 99.99 156.02 C 95.87 158.87 91.18 160.97 86.10 161.23 C 86.08 161.69 86.02 162.60 86.00 163.05 C 91.22 162.96 95.97 159.88 100.24 157.18 C 102.58 158.05 105.67 162.75 102.82 164.81 C 100.63 165.31 98.47 165.92 96.27 166.37 C 92.92 166.21 89.60 166.01 86.25 166.04 C 84.23 166.44 85.38 163.47 84.69 162.37 C 83.59 161.57 82.11 161.15 81.45 159.88 C 81.35 159.03 81.28 158.18 81.24 157.32 C 85.22 155.68 90.19 155.32 93.17 152.00 C 88.73 152.89 84.75 155.45 80.04 155.16 Z" />
</g>
<g id="#795f54fc">
<path fill="#795f54" opacity="1.00" d=" M 61.83 156.05 C 66.34 154.69 70.66 152.84 74.95 150.88 L 75.82 151.08 C 77.08 152.32 77.92 156.44 80.04 155.16 C 84.75 155.45 88.73 152.89 93.17 152.00 C 90.19 155.32 85.22 155.68 81.24 157.32 C 81.28 158.18 81.35 159.03 81.45 159.88 C 80.87 161.73 81.79 164.65 78.96 164.99 C 69.59 169.35 59.53 173.16 49.06 172.98 C 49.05 172.51 49.03 171.57 49.02 171.09 C 49.00 169.35 48.93 167.62 48.83 165.88 C 54.40 164.90 61.89 163.65 63.79 157.31 C 63.30 156.99 62.32 156.36 61.83 156.05 M 70.23 157.19 C 66.00 159.19 68.29 166.60 72.72 165.71 C 77.86 164.24 76.22 154.77 70.23 157.19 Z" />
</g>
<g id="#8a6e61ff">
<path fill="#8a6e61" opacity="1.00" d=" M 44.55 164.05 C 50.43 161.61 56.52 159.63 61.83 156.05 C 62.32 156.36 63.30 156.99 63.79 157.31 C 61.89 163.65 54.40 164.90 48.83 165.88 C 47.40 165.28 45.96 164.70 44.55 164.05 Z" />
</g>
<g id="#85745cff">
<path fill="#85745c" opacity="1.00" d=" M 86.10 161.23 C 91.18 160.97 95.87 158.87 99.99 156.02 L 100.24 157.18 C 95.97 159.88 91.22 162.96 86.00 163.05 C 86.02 162.60 86.08 161.69 86.10 161.23 Z" />
</g>
<g id="#987f53ff">
<path fill="#987f53" opacity="1.00" d=" M 70.23 157.19 C 76.22 154.77 77.86 164.24 72.72 165.71 C 68.29 166.60 66.00 159.19 70.23 157.19 Z" />
</g>
<g id="#b8aaa0f9">
<path fill="#b8aaa0" opacity="0.98" d=" M 32.11 169.14 C 35.32 167.06 38.50 162.52 42.65 163.24 C 43.13 163.44 44.07 163.85 44.55 164.05 C 45.96 164.70 47.40 165.28 48.83 165.88 C 48.93 167.62 49.00 169.35 49.02 171.09 C 45.92 171.67 42.75 171.85 39.70 172.66 C 36.85 173.28 32.64 172.55 32.11 169.14 Z" />
</g>
<g id="#897262fb">
<path fill="#897262" opacity="1.00" d=" M 96.27 166.37 C 98.47 165.92 100.63 165.31 102.82 164.81 C 103.13 165.14 103.75 165.81 104.06 166.14 C 98.80 167.17 93.47 168.21 88.09 168.03 C 87.37 164.77 94.21 167.94 96.27 166.37 Z" />
</g>
<g id="#a18576fa">
<path fill="#a18576" opacity="0.98" d=" M 86.25 166.04 C 89.60 166.01 92.92 166.21 96.27 166.37 C 94.21 167.94 87.37 164.77 88.09 168.03 C 93.47 168.21 98.80 167.17 104.06 166.14 L 104.85 166.01 C 104.79 169.67 107.75 174.23 104.65 177.19 C 104.25 175.94 103.46 173.44 103.06 172.18 C 97.07 177.08 89.10 174.26 82.94 171.15 C 81.70 171.54 80.66 172.36 79.56 173.01 C 78.90 173.00 77.59 172.99 76.93 172.98 C 79.05 169.75 85.48 170.68 86.25 166.04 Z" />
</g>
<g id="#85756ae9">
<path fill="#85756a" opacity="0.91" d=" M 39.70 172.66 C 42.75 171.85 45.92 171.67 49.02 171.09 C 49.03 171.57 49.05 172.51 49.06 172.98 C 45.93 173.06 42.79 173.18 39.70 172.66 Z" />
</g>
<g id="#927a6ffd">
<path fill="#927a6f" opacity="1.00" d=" M 79.56 173.01 C 80.66 172.36 81.70 171.54 82.94 171.15 C 89.10 174.26 97.07 177.08 103.06 172.18 C 103.46 173.44 104.25 175.94 104.65 177.19 C 104.28 180.57 100.79 182.72 97.67 183.29 C 97.72 181.82 98.58 180.55 98.95 179.15 C 97.09 178.37 95.11 178.02 93.11 177.91 L 92.35 177.81 C 91.34 177.39 90.33 176.99 89.32 176.59 C 87.27 173.62 82.35 174.85 79.56 173.01 Z" />
</g>
<g id="#83695ffc">
<path fill="#83695f" opacity="1.00" d=" M 72.01 175.65 C 73.60 174.72 74.96 172.96 76.93 172.98 C 77.59 172.99 78.90 173.00 79.56 173.01 C 82.35 174.85 87.27 173.62 89.32 176.59 C 86.74 177.72 84.83 179.73 83.46 182.15 C 83.36 181.80 83.16 181.11 83.07 180.76 C 82.86 179.13 83.21 177.22 81.82 176.02 C 78.98 176.45 76.72 178.81 75.12 181.09 C 74.86 179.72 75.39 177.98 74.40 176.87 C 73.80 176.56 72.60 175.95 72.01 175.65 Z" />
</g>
<g id="#b6a89ff5">
<path fill="#b6a89f" opacity="0.96" d=" M 67.01 185.08 C 66.23 181.12 69.07 177.84 72.01 175.65 C 72.60 175.95 73.80 176.56 74.40 176.87 C 73.43 179.30 72.04 181.52 70.72 183.77 C 69.54 184.35 68.34 184.94 67.01 185.08 Z" />
</g>
<g id="#b7a79efd">
<path fill="#b7a79e" opacity="1.00" d=" M 75.12 181.09 C 76.72 178.81 78.98 176.45 81.82 176.02 C 83.21 177.22 82.86 179.13 83.07 180.76 C 81.60 182.01 80.19 183.33 78.77 184.64 C 77.19 184.94 74.03 187.24 74.99 184.01 C 75.02 183.28 75.08 181.82 75.12 181.09 Z" />
</g>
<g id="#9f8d85fe">
<path fill="#9f8d85" opacity="1.00" d=" M 74.40 176.87 C 75.39 177.98 74.86 179.72 75.12 181.09 C 75.08 181.82 75.02 183.28 74.99 184.01 C 73.56 184.03 72.14 183.95 70.72 183.77 C 72.04 181.52 73.43 179.30 74.40 176.87 Z" />
</g>
<g id="#c5b7aefd">
<path fill="#c5b7ae" opacity="1.00" d=" M 83.46 182.15 C 84.83 179.73 86.74 177.72 89.32 176.59 C 90.33 176.99 91.34 177.39 92.35 177.81 C 91.43 180.27 90.06 182.51 88.71 184.75 C 87.94 186.69 85.61 185.92 84.01 185.83 C 83.79 184.61 83.58 183.39 83.46 182.15 Z" />
</g>
<g id="#ae9f96ff">
<path fill="#ae9f96" opacity="1.00" d=" M 92.35 177.81 L 93.11 177.91 C 93.09 180.30 93.41 182.68 93.25 185.07 C 91.73 185.06 90.22 184.96 88.71 184.75 C 90.06 182.51 91.43 180.27 92.35 177.81 Z" />
</g>
<g id="#836b61f9">
<path fill="#836b61" opacity="0.98" d=" M 93.11 177.91 C 95.11 178.02 97.09 178.37 98.95 179.15 C 98.58 180.55 97.72 181.82 97.67 183.29 C 97.21 184.82 94.68 184.87 93.25 185.07 C 93.41 182.68 93.09 180.30 93.11 177.91 Z" />
</g>
<g id="#8b7c76eb">
<path fill="#8b7c76" opacity="0.92" d=" M 78.77 184.64 C 80.19 183.33 81.60 182.01 83.07 180.76 C 83.16 181.11 83.36 181.80 83.46 182.15 C 83.58 183.39 83.79 184.61 84.01 185.83 C 82.30 185.30 80.53 184.96 78.77 184.64 Z" />
</g>
</svg>
