<?xml version="1.0" encoding="UTF-8" ?>
<!DOCTYPE svg PUBLIC "-//W3C//DTD SVG 1.1//EN" "http://www.w3.org/Graphics/SVG/1.1/DTD/svg11.dtd">
<svg width="156pt" height="193pt" viewBox="0 0 156 193" version="1.1" xmlns="http://www.w3.org/2000/svg">
<g id="#b39b89fd">
<path fill="#b39b89" opacity="1.00" d=" M 83.13 31.06 C 86.04 31.02 89.00 30.87 91.93 31.05 C 91.34 34.63 91.17 38.25 90.80 41.84 C 88.59 44.97 84.46 47.40 85.98 52.03 C 85.86 55.67 89.61 57.09 91.78 59.28 C 92.83 61.32 91.68 64.02 94.00 65.38 C 92.11 67.32 90.13 69.17 88.32 71.19 C 88.67 72.93 89.21 74.63 89.80 76.31 C 87.28 77.39 84.76 78.53 82.51 80.13 C 81.87 80.13 80.59 80.14 79.95 80.14 C 78.39 77.96 76.02 76.11 75.88 73.24 C 79.56 73.23 76.71 68.42 77.01 65.99 C 80.23 68.32 81.57 72.22 81.25 76.16 C 83.63 73.95 84.60 70.63 85.63 67.62 C 88.19 61.78 82.29 58.48 79.30 54.64 C 79.22 52.96 79.06 49.61 78.98 47.93 L 79.49 48.14 C 79.86 48.32 80.61 48.68 80.98 48.86 C 81.60 42.91 82.29 36.98 83.13 31.06 Z" />
</g>
<g id="#eed7b2fd">
<path fill="#eed7b2" opacity="1.00" d=" M 73.16 39.27 C 73.81 36.48 76.21 34.36 79.02 33.94 C 78.94 34.62 78.78 35.99 78.70 36.67 C 74.79 44.58 75.88 54.31 77.05 62.94 C 75.66 62.01 74.26 61.07 72.99 59.97 C 72.98 59.48 72.96 58.50 72.96 58.01 C 73.06 51.76 72.87 45.51 73.16 39.27 Z" />
</g>
<g id="#a38878fc">
<path fill="#a38878" opacity="1.00" d=" M 98.26 35.13 C 100.69 34.61 102.69 36.50 104.84 37.30 C 104.45 41.54 104.80 46.14 102.57 49.95 C 100.92 53.74 102.43 57.59 103.45 61.24 C 103.68 63.97 101.52 66.42 101.75 69.09 L 101.88 69.89 C 100.54 70.48 99.26 71.21 98.03 72.01 C 98.52 69.37 99.28 66.66 98.31 64.03 C 98.79 63.22 98.71 62.44 98.08 61.71 C 96.33 59.12 95.87 55.84 93.90 53.41 C 92.68 53.56 91.46 53.80 90.23 53.89 C 89.84 51.99 89.39 50.11 89.15 48.18 C 90.39 46.26 93.29 48.76 94.01 46.13 C 95.53 42.50 96.41 38.63 98.26 35.13 Z" />
</g>
<g id="#cab198fe">
<path fill="#cab198" opacity="1.00" d=" M 77.05 62.94 C 75.88 54.31 74.79 44.58 78.70 36.67 C 78.95 38.16 79.08 39.66 79.08 41.17 C 79.06 42.86 79.01 46.24 78.98 47.93 C 79.06 49.61 79.22 52.96 79.30 54.64 C 82.29 58.48 88.19 61.78 85.63 67.62 C 84.60 70.63 83.63 73.95 81.25 76.16 C 81.57 72.22 80.23 68.32 77.01 65.99 C 75.94 65.07 74.93 64.08 73.88 63.13 C 73.09 62.29 72.80 61.23 72.99 59.97 C 74.26 61.07 75.66 62.01 77.05 62.94 Z" />
</g>
<g id="#13131045">
<path fill="#131310" opacity="0.27" d=" M 72.13 38.97 L 73.16 39.27 C 72.87 45.51 73.06 51.76 72.96 58.01 L 72.01 57.99 C 72.06 51.65 71.73 45.30 72.13 38.97 Z" />
</g>
<g id="#8f7163f5">
<path fill="#8f7163" opacity="0.96" d=" M 109.17 40.06 C 111.32 39.71 112.37 42.07 113.79 43.25 C 113.02 51.07 108.70 58.19 107.99 65.99 C 107.73 66.42 107.21 67.28 106.94 67.71 C 105.17 68.00 103.41 68.38 101.75 69.09 C 101.52 66.42 103.68 63.97 103.45 61.24 C 102.43 57.59 100.92 53.74 102.57 49.95 C 102.88 50.17 103.52 50.63 103.84 50.86 C 105.53 47.22 106.89 43.38 109.17 40.06 Z" />
</g>
<g id="#53433ea9">
<path fill="#53433e" opacity="0.66" d=" M 79.08 41.17 C 80.96 42.31 80.29 46.24 79.49 48.14 L 78.98 47.93 C 79.01 46.24 79.06 42.86 79.08 41.17 Z" />
</g>
<g id="#ad9282ff">
<path fill="#ad9282" opacity="1.00" d=" M 85.98 52.03 C 84.46 47.40 88.59 44.97 90.80 41.84 C 90.76 44.34 90.78 46.85 94.01 46.13 C 93.29 48.76 90.39 46.26 89.15 48.18 C 89.39 50.11 89.84 51.99 90.23 53.89 C 91.46 53.80 92.68 53.56 93.90 53.41 C 95.87 55.84 96.33 59.12 98.08 61.71 C 96.69 62.91 95.34 64.15 94.00 65.38 C 91.68 64.02 92.83 61.32 91.78 59.28 C 89.61 57.09 85.86 55.67 85.98 52.03 Z" />
</g>
<g id="#585553ff">
<path fill="#585553" opacity="1.00" d=" M 94.00 65.38 C 95.34 64.15 96.69 62.91 98.08 61.71 C 98.71 62.44 98.79 63.22 98.31 64.03 C 94.65 65.68 92.69 69.00 92.56 72.91 C 90.97 73.38 89.75 74.55 89.80 76.31 C 89.21 74.63 88.67 72.93 88.32 71.19 C 90.13 69.17 92.11 67.32 94.00 65.38 Z" />
</g>
<g id="#f3efe7fc">
<path fill="#f3efe7" opacity="1.00" d=" M 73.88 63.13 C 74.93 64.08 75.94 65.07 77.01 65.99 C 76.71 68.42 79.56 73.23 75.88 73.24 C 75.71 72.82 75.36 71.99 75.19 71.58 L 75.01 70.88 C 74.80 69.81 74.56 68.75 74.29 67.70 C 73.94 66.20 73.95 64.66 73.88 63.13 Z" />
</g>
<g id="#f9f8f8ff">
<path fill="#f9f8f8" opacity="1.00" d=" M 92.56 72.91 C 92.69 69.00 94.65 65.68 98.31 64.03 C 99.28 66.66 98.52 69.37 98.03 72.01 C 96.27 72.66 94.19 74.92 92.56 72.91 Z" />
</g>
<g id="#14100e49">
<path fill="#14100e" opacity="0.29" d=" M 110.01 65.07 C 114.33 65.00 118.66 64.83 122.98 65.04 L 123.00 65.99 C 118.93 66.05 114.85 66.10 110.78 66.15 L 109.89 66.05 L 110.01 65.07 Z" />
</g>
<g id="#987872fe">
<path fill="#987872" opacity="1.00" d=" M 107.99 65.99 C 108.47 66.00 109.42 66.03 109.89 66.05 L 110.78 66.15 C 111.26 66.44 112.22 67.00 112.70 67.28 C 118.42 69.48 124.16 71.86 129.46 75.15 C 127.23 76.69 124.97 78.18 122.76 79.75 C 122.29 79.89 121.34 80.15 120.87 80.28 C 120.65 79.97 120.23 79.34 120.01 79.02 C 119.19 77.52 118.38 76.01 117.27 74.71 C 116.63 73.89 116.02 73.04 115.30 72.29 C 113.83 70.85 112.21 69.40 110.24 68.70 C 109.16 68.29 108.06 67.96 106.94 67.71 C 107.21 67.28 107.73 66.42 107.99 65.99 Z" />
</g>
<g id="#d1ae94f2">
<path fill="#d1ae94" opacity="0.95" d=" M 110.78 66.15 C 114.85 66.10 118.93 66.05 123.00 65.99 C 127.86 65.33 132.55 66.32 137.24 67.33 C 131.10 68.54 124.95 66.98 118.79 67.09 C 116.76 67.02 114.73 67.14 112.70 67.28 C 112.22 67.00 111.26 66.44 110.78 66.15 Z" />
</g>
<g id="#a18279ff">
<path fill="#a18279" opacity="1.00" d=" M 112.70 67.28 C 114.73 67.14 116.76 67.02 118.79 67.09 C 123.97 69.45 129.30 72.09 135.12 72.19 C 133.30 73.31 131.42 74.30 129.46 75.15 C 124.16 71.86 118.42 69.48 112.70 67.28 Z" />
</g>
<g id="#ab907ff9">
<path fill="#ab907f" opacity="0.98" d=" M 118.79 67.09 C 124.95 66.98 131.10 68.54 137.24 67.33 C 139.50 65.54 143.66 70.48 141.15 70.80 C 139.02 69.97 136.96 71.22 135.12 72.19 C 129.30 72.09 123.97 69.45 118.79 67.09 Z" />
</g>
<g id="#9c7f76f9">
<path fill="#9c7f76" opacity="0.98" d=" M 54.97 71.04 C 61.61 71.25 67.75 68.27 74.29 67.70 C 74.56 68.75 74.80 69.81 75.01 70.88 C 74.03 69.98 73.06 68.29 71.63 69.54 C 64.53 71.87 62.64 79.93 56.99 84.09 C 53.97 83.13 50.04 82.38 48.02 80.06 C 50.94 77.57 56.35 76.46 57.02 72.22 C 56.54 72.13 55.58 71.96 55.10 71.87 L 54.97 71.04 Z" />
</g>
<g id="#e59473ff">
<path fill="#e59473" opacity="1.00" d=" M 101.75 69.09 C 103.41 68.38 105.17 68.00 106.94 67.71 C 108.06 67.96 109.16 68.29 110.24 68.70 C 107.44 69.05 104.67 69.47 101.88 69.89 L 101.75 69.09 Z" />
</g>
<g id="#8b6d68fc">
<path fill="#8b6d68" opacity="1.00" d=" M 71.63 69.54 C 73.06 68.29 74.03 69.98 75.01 70.88 L 75.19 71.58 C 70.85 72.36 71.23 77.38 70.69 80.74 C 69.58 82.92 66.79 83.93 66.81 86.68 C 64.73 86.93 62.75 87.60 61.06 88.85 C 62.03 85.51 58.09 85.99 56.99 84.09 C 62.64 79.93 64.53 71.87 71.63 69.54 Z" />
</g>
<g id="#ef7c64ff">
<path fill="#ef7c64" opacity="1.00" d=" M 101.88 69.89 C 104.67 69.47 107.44 69.05 110.24 68.70 C 112.21 69.40 113.83 70.85 115.30 72.29 C 111.60 72.13 107.34 69.44 104.13 72.11 C 99.56 74.44 99.49 80.11 97.79 84.35 C 97.07 82.95 96.37 81.53 95.77 80.08 C 95.93 79.35 96.25 77.90 96.41 77.18 L 96.92 76.73 C 98.95 74.76 100.24 72.17 101.88 69.89 Z" />
</g>
<g id="#ef9b79ff">
<path fill="#ef9b79" opacity="1.00" d=" M 98.03 72.01 C 99.26 71.21 100.54 70.48 101.88 69.89 C 100.24 72.17 98.95 74.76 96.92 76.73 C 97.00 76.10 97.16 74.85 97.24 74.22 C 97.44 73.67 97.83 72.56 98.03 72.01 Z" />
</g>
<g id="#836565fa">
<path fill="#836565" opacity="0.98" d=" M 135.12 72.19 C 136.96 71.22 139.02 69.97 141.15 70.80 C 137.28 76.35 130.49 79.71 124.74 83.08 L 124.17 83.08 C 123.74 81.96 123.26 80.85 122.76 79.75 C 124.97 78.18 127.23 76.69 129.46 75.15 C 131.42 74.30 133.30 73.31 135.12 72.19 Z" />
</g>
<g id="#d96d5bff">
<path fill="#d96d5b" opacity="1.00" d=" M 104.13 72.11 C 107.34 69.44 111.60 72.13 115.30 72.29 C 116.02 73.04 116.63 73.89 117.27 74.71 C 108.88 72.50 100.42 78.95 99.83 87.31 C 99.17 86.61 98.52 85.91 97.87 85.20 L 97.79 84.35 C 99.49 80.11 99.56 74.44 104.13 72.11 Z" />
</g>
<g id="#b79d8af9">
<path fill="#b79d8a" opacity="0.98" d=" M 44.07 75.16 C 47.41 73.37 51.27 72.02 55.10 71.87 C 55.58 71.96 56.54 72.13 57.02 72.22 C 56.35 76.46 50.94 77.57 48.02 80.06 C 45.89 79.14 43.01 78.05 44.07 75.16 Z" />
</g>
<g id="#836562fe">
<path fill="#836562" opacity="1.00" d=" M 70.69 80.74 C 71.23 77.38 70.85 72.36 75.19 71.58 C 75.36 71.99 75.71 72.82 75.88 73.24 C 76.02 76.11 78.39 77.96 79.95 80.14 C 79.45 82.10 79.10 84.08 79.04 86.10 C 78.94 87.86 78.64 89.59 77.92 91.21 C 77.05 90.69 76.18 90.20 75.29 89.72 C 75.02 89.58 74.48 89.30 74.22 89.15 C 71.91 87.92 69.35 87.24 66.81 86.68 C 66.79 83.93 69.58 82.92 70.69 80.74 Z" />
</g>
<g id="#737572ff">
<path fill="#737572" opacity="1.00" d=" M 92.56 72.91 C 94.19 74.92 96.27 72.66 98.03 72.01 C 97.83 72.56 97.44 73.67 97.24 74.22 C 94.74 74.85 92.22 75.42 89.80 76.31 C 89.75 74.55 90.97 73.38 92.56 72.91 Z" />
</g>
<g id="#9f8271ff">
<path fill="#9f8271" opacity="1.00" d=" M 89.80 76.31 C 92.22 75.42 94.74 74.85 97.24 74.22 C 97.16 74.85 97.00 76.10 96.92 76.73 L 96.41 77.18 C 95.91 75.44 94.32 77.21 93.40 77.43 C 90.74 79.03 87.64 79.58 84.80 80.72 C 84.22 80.57 83.08 80.28 82.51 80.13 C 84.76 78.53 87.28 77.39 89.80 76.31 Z" />
</g>
<g id="#c66252ff">
<path fill="#c66252" opacity="1.00" d=" M 99.83 87.31 C 100.42 78.95 108.88 72.50 117.27 74.71 C 118.38 76.01 119.19 77.52 120.01 79.02 C 115.28 76.70 111.90 80.56 108.61 83.53 C 105.78 84.62 102.62 85.22 100.72 87.82 L 100.17 88.29 L 99.83 87.31 Z" />
</g>
<g id="#8e7165ff">
<path fill="#8e7165" opacity="1.00" d=" M 93.40 77.43 C 94.32 77.21 95.91 75.44 96.41 77.18 C 96.25 77.90 95.93 79.35 95.77 80.08 C 92.14 80.67 88.45 81.38 84.80 80.72 C 87.64 79.58 90.74 79.03 93.40 77.43 Z" />
</g>
<g id="#b05346ff">
<path fill="#b05346" opacity="1.00" d=" M 108.61 83.53 C 111.90 80.56 115.28 76.70 120.01 79.02 C 120.23 79.34 120.65 79.97 120.87 80.28 C 121.21 81.85 121.60 83.41 121.91 84.99 C 120.56 84.28 118.81 83.41 117.36 84.38 C 114.58 86.28 111.09 87.78 110.12 91.30 C 108.77 90.65 107.50 89.87 106.17 89.22 C 104.42 88.48 102.50 88.43 100.72 87.82 C 102.62 85.22 105.78 84.62 108.61 83.53 Z" />
</g>
<g id="#a28aa3ff">
<path fill="#a28aa3" opacity="1.00" d=" M 79.95 80.14 C 80.59 80.14 81.87 80.13 82.51 80.13 C 83.08 80.28 84.22 80.57 84.80 80.72 C 88.45 81.38 92.14 80.67 95.77 80.08 C 96.37 81.53 97.07 82.95 97.79 84.35 L 97.87 85.20 C 94.30 85.20 91.01 83.83 87.75 82.55 C 84.69 82.93 80.87 83.27 79.04 86.10 C 79.10 84.08 79.45 82.10 79.95 80.14 Z" />
</g>
<g id="#775252ff">
<path fill="#775252" opacity="1.00" d=" M 120.87 80.28 C 121.34 80.15 122.29 79.89 122.76 79.75 C 123.26 80.85 123.74 81.96 124.17 83.08 C 124.15 84.83 124.09 88.31 124.06 90.05 C 123.74 89.76 123.10 89.19 122.78 88.90 C 122.45 87.60 122.18 86.30 121.91 84.99 C 121.60 83.41 121.21 81.85 120.87 80.28 Z" />
</g>
<g id="#b09bb1ff">
<path fill="#b09bb1" opacity="1.00" d=" M 79.04 86.10 C 80.87 83.27 84.69 82.93 87.75 82.55 C 91.01 83.83 94.30 85.20 97.87 85.20 C 98.52 85.91 99.17 86.61 99.83 87.31 L 100.17 88.29 C 95.84 93.17 88.71 93.38 82.86 95.41 C 80.86 94.48 79.30 92.89 77.92 91.21 C 78.64 89.59 78.94 87.86 79.04 86.10 Z" />
</g>
<g id="#3b2a2abd">
<path fill="#3b2a2a" opacity="0.74" d=" M 124.17 83.08 L 124.74 83.08 C 125.44 85.25 125.47 87.91 124.62 90.03 L 124.06 90.05 C 124.09 88.31 124.15 84.83 124.17 83.08 Z" />
</g>
<g id="#9c473cfb">
<path fill="#9c473c" opacity="1.00" d=" M 117.36 84.38 C 118.81 83.41 120.56 84.28 121.91 84.99 C 122.18 86.30 122.45 87.60 122.78 88.90 C 118.56 88.63 116.68 92.25 116.65 95.99 C 116.46 96.25 116.08 96.78 115.89 97.04 C 114.30 96.37 114.84 93.58 113.84 92.15 C 112.54 92.07 111.24 92.03 109.94 92.02 L 110.12 91.30 C 111.09 87.78 114.58 86.28 117.36 84.38 Z" />
</g>
<g id="#d56e5bfd">
<path fill="#d56e5b" opacity="1.00" d=" M 61.06 88.85 C 62.75 87.60 64.73 86.93 66.81 86.68 C 69.35 87.24 71.91 87.92 74.22 89.15 C 69.45 96.06 58.78 99.63 57.88 108.95 C 56.90 108.33 56.02 107.59 55.13 106.87 C 51.16 100.47 55.19 92.50 61.06 88.85 Z" />
</g>
<g id="#a28798ff">
<path fill="#a28798" opacity="1.00" d=" M 100.17 88.29 L 100.72 87.82 C 102.50 88.43 104.42 88.48 106.17 89.22 C 105.62 91.40 103.39 92.35 101.85 93.74 C 98.79 93.91 95.70 93.81 92.73 94.64 C 89.54 95.18 86.37 95.91 83.14 96.20 L 82.86 95.41 C 88.71 93.38 95.84 93.17 100.17 88.29 Z" />
</g>
<g id="#b55749fd">
<path fill="#b55749" opacity="1.00" d=" M 74.22 89.15 C 74.48 89.30 75.02 89.58 75.29 89.72 C 76.62 92.32 77.31 95.16 77.84 98.02 C 76.58 101.71 74.21 104.93 72.03 108.14 C 70.01 108.49 67.99 108.83 65.97 109.12 C 64.93 109.31 63.93 109.60 62.95 109.98 C 61.22 109.91 59.30 110.15 57.88 108.95 C 58.78 99.63 69.45 96.06 74.22 89.15 Z" />
</g>
<g id="#907284fa">
<path fill="#907284" opacity="0.98" d=" M 106.17 89.22 C 107.50 89.87 108.77 90.65 110.12 91.30 L 109.94 92.02 C 109.33 93.85 107.36 95.79 105.28 94.75 C 104.14 94.38 103.00 94.04 101.85 93.74 C 103.39 92.35 105.62 91.40 106.17 89.22 Z" />
</g>
<g id="#8c3e36ff">
<path fill="#8c3e36" opacity="1.00" d=" M 116.65 95.99 C 116.68 92.25 118.56 88.63 122.78 88.90 C 123.10 89.19 123.74 89.76 124.06 90.05 C 123.92 92.15 123.28 94.27 121.83 95.87 C 120.11 96.07 118.37 96.01 116.65 95.99 Z" />
</g>
<g id="#0b080825">
<path fill="#0b0808" opacity="0.15" d=" M 75.29 89.72 C 76.18 90.20 77.05 90.69 77.92 91.21 C 79.30 92.89 80.86 94.48 82.86 95.41 L 83.14 96.20 C 83.08 96.59 82.96 97.37 82.91 97.77 C 80.26 101.81 77.41 105.76 73.08 108.09 L 72.03 108.14 C 74.21 104.93 76.58 101.71 77.84 98.02 C 77.31 95.16 76.62 92.32 75.29 89.72 Z" />
</g>
<g id="#8b685ffb">
<path fill="#8b685f" opacity="1.00" d=" M 124.06 90.05 L 124.62 90.03 C 126.12 90.76 126.14 92.37 125.89 93.81 C 122.67 93.67 125.29 97.21 125.02 99.03 C 121.82 99.52 119.34 97.27 116.65 95.99 C 118.37 96.01 120.11 96.07 121.83 95.87 C 123.28 94.27 123.92 92.15 124.06 90.05 Z" />
</g>
<g id="#6e5a68ff">
<path fill="#6e5a68" opacity="1.00" d=" M 92.73 94.64 C 95.70 93.81 98.79 93.91 101.85 93.74 C 103.00 94.04 104.14 94.38 105.28 94.75 C 101.09 94.84 96.91 94.81 92.73 94.64 Z" />
</g>
<g id="#9e8070f6">
<path fill="#9e8070" opacity="0.96" d=" M 125.02 99.03 C 125.29 97.21 122.67 93.67 125.89 93.81 L 126.79 94.00 C 127.25 98.36 129.19 102.38 129.71 106.75 C 128.71 108.77 127.05 112.09 124.28 110.72 C 118.67 108.65 118.33 101.62 115.89 97.04 C 116.08 96.78 116.46 96.25 116.65 95.99 C 119.34 97.27 121.82 99.52 125.02 99.03 Z" />
</g>
<g id="#3e3742fe">
<path fill="#3e3742" opacity="1.00" d=" M 83.14 96.20 C 86.37 95.91 89.54 95.18 92.73 94.64 C 96.91 94.81 101.09 94.84 105.28 94.75 C 105.18 95.63 104.98 97.38 104.88 98.26 C 97.62 99.12 90.01 99.99 82.91 97.77 C 82.96 97.37 83.08 96.59 83.14 96.20 Z" />
</g>
<g id="#ae99b3fe">
<path fill="#ae99b3" opacity="1.00" d=" M 73.08 108.09 C 77.41 105.76 80.26 101.81 82.91 97.77 C 90.01 99.99 97.62 99.12 104.88 98.26 C 107.83 102.04 111.50 105.03 114.86 108.42 C 115.31 110.36 116.86 111.98 118.89 112.21 C 118.71 113.10 118.51 113.98 118.29 114.87 C 117.99 115.14 117.40 115.67 117.10 115.94 C 115.91 114.39 114.56 112.95 112.91 111.89 C 113.65 114.83 116.50 116.73 117.04 119.81 C 116.11 120.59 115.19 121.39 114.25 122.16 C 112.77 119.66 111.15 117.24 109.72 114.72 C 108.27 110.98 107.51 116.26 106.76 117.74 C 106.03 117.86 104.58 118.10 103.85 118.22 C 103.50 117.12 103.15 116.01 102.80 114.91 C 102.23 113.03 101.90 110.90 100.04 109.83 C 100.44 112.00 101.02 114.15 101.69 116.25 C 102.01 117.88 103.03 119.57 102.25 121.22 C 101.22 120.66 100.13 120.29 98.98 120.10 C 98.47 120.05 97.47 119.95 96.96 119.90 C 94.06 118.92 91.23 117.72 88.32 116.77 C 87.73 116.57 86.54 116.18 85.94 115.98 C 84.11 112.52 89.85 110.89 91.12 107.94 C 87.40 108.50 85.42 112.47 82.82 114.92 C 82.41 114.84 81.58 114.67 81.17 114.58 C 80.08 114.34 78.99 114.12 77.90 113.93 C 77.75 113.00 77.72 112.06 77.53 111.14 C 76.13 110.52 75.06 112.13 73.99 112.76 C 73.51 112.83 72.56 112.96 72.09 113.03 C 70.70 113.02 69.32 113.01 67.94 112.98 C 67.65 112.83 67.07 112.51 66.78 112.36 C 67.39 111.96 68.60 111.15 69.21 110.75 C 70.54 109.93 71.81 109.01 73.08 108.09 Z" />
</g>
<g id="#a38c75eb">
<path fill="#a38c75" opacity="0.92" d=" M 55.13 106.87 C 56.02 107.59 56.90 108.33 57.88 108.95 C 59.30 110.15 61.22 109.91 62.95 109.98 C 61.31 114.91 53.30 111.95 55.13 106.87 Z" />
</g>
<g id="#5b4042c7">
<path fill="#5b4042" opacity="0.78" d=" M 65.97 109.12 C 67.99 108.83 70.01 108.49 72.03 108.14 L 73.08 108.09 C 71.81 109.01 70.54 109.93 69.21 110.75 C 68.19 110.14 66.32 110.47 65.97 109.12 Z" />
</g>
<g id="#87778dff">
<path fill="#87778d" opacity="1.00" d=" M 82.82 114.92 C 85.42 112.47 87.40 108.50 91.12 107.94 C 89.85 110.89 84.11 112.52 85.94 115.98 C 84.89 115.65 83.85 115.30 82.82 114.92 Z" />
</g>
<g id="#776476e9">
<path fill="#776476" opacity="0.91" d=" M 114.86 108.42 C 116.69 108.23 118.72 110.48 118.89 112.21 C 116.86 111.98 115.31 110.36 114.86 108.42 Z" />
</g>
<g id="#8f7d95ff">
<path fill="#8f7d95" opacity="1.00" d=" M 100.04 109.83 C 101.90 110.90 102.23 113.03 102.80 114.91 C 102.52 115.25 101.97 115.92 101.69 116.25 C 101.02 114.15 100.44 112.00 100.04 109.83 Z" />
</g>
<g id="#9a8599ff">
<path fill="#9a8599" opacity="1.00" d=" M 73.99 112.76 C 75.06 112.13 76.13 110.52 77.53 111.14 C 77.72 112.06 77.75 113.00 77.90 113.93 C 76.51 113.85 75.25 113.27 73.99 112.76 Z" />
</g>
<g id="#847887e4">
<path fill="#847887" opacity="0.89" d=" M 66.81 118.10 C 64.16 117.53 64.29 112.03 66.78 112.36 C 67.07 112.51 67.65 112.83 67.94 112.98 C 67.30 114.62 67.01 116.36 66.81 118.10 Z" />
</g>
<g id="#776776f1">
<path fill="#776776" opacity="0.95" d=" M 112.91 111.89 C 114.56 112.95 115.91 114.39 117.10 115.94 C 118.15 117.26 120.02 119.75 117.04 119.81 C 116.50 116.73 113.65 114.83 112.91 111.89 Z" />
</g>
<g id="#7d657ce6">
<path fill="#7d657c" opacity="0.90" d=" M 118.89 112.21 C 120.17 112.03 121.04 113.40 121.76 114.27 C 121.46 115.57 119.26 115.20 118.29 114.87 C 118.51 113.98 118.71 113.10 118.89 112.21 Z" />
</g>
<g id="#705769fd">
<path fill="#705769" opacity="1.00" d=" M 67.94 112.98 C 69.32 113.01 70.70 113.02 72.09 113.03 C 71.50 113.93 70.92 114.84 70.39 115.78 C 70.03 116.32 69.30 117.42 68.94 117.97 C 68.41 118.00 67.34 118.07 66.81 118.10 C 67.01 116.36 67.30 114.62 67.94 112.98 Z" />
</g>
<g id="#a88c7ffe">
<path fill="#a88c7f" opacity="1.00" d=" M 72.09 113.03 C 72.56 112.96 73.51 112.83 73.99 112.76 C 75.53 121.54 70.82 129.37 67.34 137.00 C 69.06 144.20 66.72 151.39 63.96 157.97 L 62.99 157.98 C 62.98 150.34 65.84 142.76 64.30 135.16 C 65.82 128.64 70.58 122.54 70.39 115.78 C 70.92 114.84 71.50 113.93 72.09 113.03 Z" />
</g>
<g id="#94766eff">
<path fill="#94766e" opacity="1.00" d=" M 73.99 112.76 C 75.25 113.27 76.51 113.85 77.90 113.93 C 78.99 114.12 80.08 114.34 81.17 114.58 C 77.20 115.20 79.32 120.72 77.29 123.31 C 69.45 133.67 73.58 147.90 67.03 158.87 L 66.24 159.19 C 65.67 158.89 64.53 158.28 63.96 157.97 C 66.72 151.39 69.06 144.20 67.34 137.00 C 70.82 129.37 75.53 121.54 73.99 112.76 Z" />
</g>
<g id="#a48ea6ff">
<path fill="#a48ea6" opacity="1.00" d=" M 106.76 117.74 C 107.51 116.26 108.27 110.98 109.72 114.72 C 108.79 116.82 110.50 118.77 111.06 120.73 C 109.96 121.05 108.87 121.40 107.78 121.77 C 105.19 122.72 103.78 120.59 103.85 118.22 C 104.58 118.10 106.03 117.86 106.76 117.74 Z" />
</g>
<g id="#7e5f58f9">
<path fill="#7e5f58" opacity="0.98" d=" M 77.29 123.31 C 79.32 120.72 77.20 115.20 81.17 114.58 C 81.58 114.67 82.41 114.84 82.82 114.92 C 82.69 120.07 78.81 124.33 78.55 129.28 C 78.16 131.15 75.75 132.23 75.33 134.30 C 75.00 142.91 73.18 151.39 72.94 160.01 C 72.11 160.38 71.27 160.75 70.43 161.12 C 69.31 160.34 68.17 159.60 67.03 158.87 C 73.58 147.90 69.45 133.67 77.29 123.31 Z" />
</g>
<g id="#6f4e4ffd">
<path fill="#6f4e4f" opacity="1.00" d=" M 82.82 114.92 C 83.85 115.30 84.89 115.65 85.94 115.98 C 86.54 116.18 87.73 116.57 88.32 116.77 C 86.95 119.07 85.05 121.20 84.88 123.99 C 83.68 126.33 80.59 127.55 78.55 129.28 C 78.81 124.33 82.69 120.07 82.82 114.92 Z" />
</g>
<g id="#82696fff">
<path fill="#82696f" opacity="1.00" d=" M 101.69 116.25 C 101.97 115.92 102.52 115.25 102.80 114.91 C 103.15 116.01 103.50 117.12 103.85 118.22 C 103.78 120.59 105.19 122.72 107.78 121.77 C 112.29 121.48 107.95 124.66 105.99 124.98 C 104.04 124.54 102.76 123.11 102.25 121.22 C 103.03 119.57 102.01 117.88 101.69 116.25 Z" />
</g>
<g id="#806c7bff">
<path fill="#806c7b" opacity="1.00" d=" M 111.06 120.73 C 110.50 118.77 108.79 116.82 109.72 114.72 C 111.15 117.24 112.77 119.66 114.25 122.16 C 112.91 124.26 111.99 121.78 111.06 120.73 Z" />
</g>
<g id="#bda38ef7">
<path fill="#bda38e" opacity="0.97" d=" M 70.39 115.78 C 70.58 122.54 65.82 128.64 64.30 135.16 C 65.84 142.76 62.98 150.34 62.99 157.98 L 62.09 158.05 C 61.74 144.55 60.12 129.42 68.94 117.97 C 69.30 117.42 70.03 116.32 70.39 115.78 Z" />
</g>
<g id="#8c7590f7">
<path fill="#8c7590" opacity="0.97" d=" M 88.32 116.77 C 91.23 117.72 94.06 118.92 96.96 119.90 L 96.93 120.78 C 92.80 121.45 88.93 123.07 84.88 123.99 C 85.05 121.20 86.95 119.07 88.32 116.77 Z" />
</g>
<g id="#977a6ef9">
<path fill="#977a6e" opacity="0.98" d=" M 98.98 120.10 C 100.13 120.29 101.22 120.66 102.25 121.22 C 102.76 123.11 104.04 124.54 105.99 124.98 C 107.95 124.66 112.29 121.48 107.78 121.77 C 108.87 121.40 109.96 121.05 111.06 120.73 C 111.99 121.78 112.91 124.26 114.25 122.16 C 115.19 121.39 116.11 120.59 117.04 119.81 C 117.91 128.82 124.80 136.16 125.26 145.35 C 123.07 146.07 121.03 142.85 121.47 140.78 C 119.70 142.27 118.58 144.38 117.31 146.28 C 117.46 149.01 118.47 151.64 118.83 154.35 C 118.41 154.21 117.58 153.94 117.16 153.80 C 112.36 141.89 106.01 130.81 98.98 120.10 Z" />
</g>
<g id="#8d6e62fc">
<path fill="#8d6e62" opacity="1.00" d=" M 117.31 146.28 C 118.58 144.38 119.70 142.27 121.47 140.78 C 121.03 142.85 123.07 146.07 125.26 145.35 C 126.43 146.44 127.13 150.04 128.78 151.87 C 128.30 152.10 127.35 152.57 126.88 152.80 C 124.27 153.48 121.56 155.65 118.83 154.35 C 118.47 151.64 117.46 149.01 117.31 146.28 Z" />
</g>
<g id="#e5d2e2fb">
<path fill="#e5d2e2" opacity="1.00" d=" M 126.88 152.80 C 127.35 152.57 128.30 152.10 128.78 151.87 C 129.47 155.82 131.17 159.49 132.27 163.33 C 129.21 163.36 126.16 162.86 123.10 163.06 C 120.44 164.32 119.59 167.42 119.32 170.17 C 118.12 165.09 117.06 159.91 117.35 154.67 C 118.02 156.73 118.65 158.80 119.31 160.86 C 123.79 162.19 127.66 156.97 126.88 152.80 Z" />
</g>
<g id="#ccb5caff">
<path fill="#ccb5ca" opacity="1.00" d=" M 118.83 154.35 C 121.56 155.65 124.27 153.48 126.88 152.80 C 127.66 156.97 123.79 162.19 119.31 160.86 C 118.65 158.80 118.02 156.73 117.35 154.67 L 117.16 153.80 C 117.58 153.94 118.41 154.21 118.83 154.35 Z" />
</g>
<g id="#f0e3edfd">
<path fill="#f0e3ed" opacity="1.00" d=" M 62.09 158.05 L 62.99 157.98 L 63.96 157.97 C 64.53 158.28 65.67 158.89 66.24 159.19 C 64.55 161.85 62.79 164.48 60.96 167.06 L 60.08 167.24 C 58.31 167.05 56.54 166.85 54.81 166.46 C 58.71 165.10 60.77 161.65 62.09 158.05 Z" />
</g>
<g id="#cdb5caff">
<path fill="#cdb5ca" opacity="1.00" d=" M 66.24 159.19 L 67.03 158.87 C 68.17 159.60 69.31 160.34 70.43 161.12 C 67.48 163.37 64.83 166.58 60.96 167.06 C 62.79 164.48 64.55 161.85 66.24 159.19 Z" />
</g>
<g id="#b39cb2fe">
<path fill="#b39cb2" opacity="1.00" d=" M 70.43 161.12 C 71.27 160.75 72.11 160.38 72.94 160.01 L 73.94 159.92 C 73.97 160.45 74.04 161.50 74.07 162.03 C 74.06 163.21 74.01 164.40 73.94 165.58 C 67.03 165.03 60.57 171.57 58.85 177.95 C 57.52 177.98 56.19 178.00 54.86 178.00 C 53.72 173.92 57.74 170.29 60.08 167.24 L 60.96 167.06 C 64.83 166.58 67.48 163.37 70.43 161.12 Z" />
</g>
<g id="#92788cf9">
<path fill="#92788c" opacity="0.98" d=" M 74.07 162.03 C 77.54 162.17 73.57 169.01 72.84 170.84 C 69.15 173.43 66.03 178.69 60.96 178.01 C 60.43 178.00 59.38 177.97 58.85 177.95 C 60.57 171.57 67.03 165.03 73.94 165.58 C 74.01 164.40 74.06 163.21 74.07 162.03 Z" />
</g>
<g id="#bcaabefc">
<path fill="#bcaabe" opacity="1.00" d=" M 119.32 170.17 C 119.59 167.42 120.44 164.32 123.10 163.06 C 126.16 162.86 129.21 163.36 132.27 163.33 C 134.79 164.94 134.39 172.29 130.97 172.99 C 127.65 173.00 124.36 173.03 121.05 172.98 C 119.53 173.30 119.65 171.13 119.32 170.17 Z" />
</g>
<g id="#cebdd1fb">
<path fill="#cebdd1" opacity="1.00" d=" M 51.07 178.00 C 46.78 175.85 48.85 165.23 54.81 166.46 C 56.54 166.85 58.31 167.05 60.08 167.24 C 57.74 170.29 53.72 173.92 54.86 178.00 C 53.59 178.01 52.33 178.01 51.07 178.00 Z" />
</g>
<g id="#5e4f58b9">
<path fill="#5e4f58" opacity="0.73" d=" M 121.05 172.98 C 124.36 173.03 127.65 173.00 130.97 172.99 L 131.01 173.98 C 128.52 173.73 123.54 173.23 121.05 172.98 Z" />
</g>
<g id="#645660c0">
<path fill="#645660" opacity="0.75" d=" M 51.07 178.00 C 52.33 178.01 53.59 178.01 54.86 178.00 C 56.19 178.00 57.52 177.98 58.85 177.95 C 59.38 177.97 60.43 178.00 60.96 178.01 L 61.02 179.01 C 58.53 178.76 53.55 178.25 51.07 178.00 Z" />
</g>
</svg>
