<?xml version="1.0" encoding="UTF-8" ?>
<!DOCTYPE svg PUBLIC "-//W3C//DTD SVG 1.1//EN" "http://www.w3.org/Graphics/SVG/1.1/DTD/svg11.dtd">
<svg width="167pt" height="236pt" viewBox="0 0 167 236" version="1.1" xmlns="http://www.w3.org/2000/svg">
<g id="#8d8d8bbd">
<path fill="#8d8d8b" opacity="0.74" d=" M 79.01 49.00 C 81.75 49.00 87.24 49.01 89.99 49.01 L 90.00 49.97 C 86.33 50.00 82.66 50.03 78.99 49.98 L 79.01 49.00 Z" />
</g>
<g id="#f9ddd5fc">
<path fill="#f9ddd5" opacity="1.00" d=" M 50.86 77.10 C 53.52 63.68 64.87 51.07 78.99 49.98 C 82.66 50.03 86.33 50.00 90.00 49.97 C 95.35 50.08 101.25 51.66 105.14 55.51 C 97.32 55.19 89.15 53.73 81.98 57.96 C 74.24 62.27 63.78 63.64 58.66 71.56 C 58.41 71.43 57.93 71.17 57.69 71.04 C 57.75 70.24 57.87 68.65 57.94 67.86 C 54.67 68.79 51.77 73.48 54.06 76.51 C 53.42 78.24 50.53 80.53 50.86 77.10 Z" />
</g>
<g id="#fec5c5ff">
<path fill="#fec5c5" opacity="1.00" d=" M 81.98 57.96 C 89.15 53.73 97.32 55.19 105.14 55.51 C 107.13 56.00 108.74 57.92 110.30 59.25 C 98.58 58.90 91.24 69.31 82.98 75.97 C 79.43 79.85 74.19 78.60 69.59 79.40 C 63.29 80.89 54.42 79.08 50.10 85.13 C 50.58 82.80 48.63 77.59 50.86 77.10 C 50.53 80.53 53.42 78.24 54.06 76.51 C 55.47 74.82 56.58 72.93 57.69 71.04 C 57.93 71.17 58.41 71.43 58.66 71.56 C 63.78 63.64 74.24 62.27 81.98 57.96 Z" />
</g>
<g id="#fcadb2ff">
<path fill="#fcadb2" opacity="1.00" d=" M 110.30 59.25 C 111.54 58.94 111.32 61.03 111.85 61.77 C 111.44 62.70 111.01 63.62 110.57 64.54 C 104.79 65.67 99.27 70.16 98.36 76.16 C 97.79 74.60 97.14 73.06 96.21 71.69 C 95.51 70.59 92.32 70.45 91.91 71.83 C 89.82 74.93 91.58 78.42 94.35 80.32 C 88.46 84.17 81.05 86.25 74.05 85.24 C 73.59 85.20 72.68 85.13 72.22 85.09 C 65.13 83.83 57.98 84.41 50.96 85.87 L 49.97 86.02 L 50.10 85.13 C 54.42 79.08 63.29 80.89 69.59 79.40 C 74.19 78.60 79.43 79.85 82.98 75.97 C 91.24 69.31 98.58 58.90 110.30 59.25 Z" />
</g>
<g id="#e9989fff">
<path fill="#e9989f" opacity="1.00" d=" M 110.57 64.54 C 111.01 63.62 111.44 62.70 111.85 61.77 C 114.73 63.70 116.01 67.97 117.32 71.29 C 115.09 71.63 113.07 69.40 110.89 70.79 C 103.24 72.58 101.85 82.08 94.97 84.95 C 88.35 88.55 80.46 87.99 73.15 87.99 C 73.44 87.07 73.74 86.15 74.05 85.24 C 81.05 86.25 88.46 84.17 94.35 80.32 C 96.03 79.36 98.04 78.27 98.36 76.16 C 99.27 70.16 104.79 65.67 110.57 64.54 Z" />
</g>
<g id="#6d5e66ff">
<path fill="#6d5e66" opacity="1.00" d=" M 54.06 76.51 C 51.77 73.48 54.67 68.79 57.94 67.86 C 57.87 68.65 57.75 70.24 57.69 71.04 C 56.58 72.93 55.47 74.82 54.06 76.51 Z" />
</g>
<g id="#d2838eff">
<path fill="#d2838e" opacity="1.00" d=" M 110.89 70.79 C 113.07 69.40 115.09 71.63 117.32 71.29 C 118.88 71.10 117.65 73.95 118.03 74.96 C 118.00 75.73 117.93 77.29 117.90 78.06 C 116.80 77.18 115.80 76.21 114.72 75.31 C 106.78 76.99 103.58 85.86 95.82 87.72 C 94.25 88.21 92.68 88.65 91.10 89.08 C 81.33 88.58 71.35 90.18 61.77 87.71 C 63.27 85.48 65.61 86.00 67.43 87.53 C 69.53 89.05 70.97 86.36 72.22 85.09 C 72.68 85.13 73.59 85.20 74.05 85.24 C 73.74 86.15 73.44 87.07 73.15 87.99 C 80.46 87.99 88.35 88.55 94.97 84.95 C 101.85 82.08 103.24 72.58 110.89 70.79 Z" />
</g>
<g id="#a78a8cff">
<path fill="#a78a8c" opacity="1.00" d=" M 91.91 71.83 C 92.32 70.45 95.51 70.59 96.21 71.69 C 94.83 74.16 93.28 74.46 91.91 71.83 Z" />
</g>
<g id="#423442ff">
<path fill="#423442" opacity="1.00" d=" M 91.91 71.83 C 93.28 74.46 94.83 74.16 96.21 71.69 C 97.14 73.06 97.79 74.60 98.36 76.16 C 98.04 78.27 96.03 79.36 94.35 80.32 C 91.58 78.42 89.82 74.93 91.91 71.83 Z" />
</g>
<g id="#be7783fc">
<path fill="#be7783" opacity="1.00" d=" M 95.82 87.72 C 103.58 85.86 106.78 76.99 114.72 75.31 C 115.80 76.21 116.80 77.18 117.90 78.06 C 117.93 77.29 118.00 75.73 118.03 74.96 C 119.52 75.18 119.10 77.21 119.71 78.25 C 119.59 78.69 119.35 79.56 119.23 80.00 L 119.00 80.87 C 118.10 81.30 117.19 81.72 116.27 82.11 C 115.61 81.01 115.42 77.92 113.64 79.62 C 106.72 84.19 99.58 89.67 90.94 90.04 L 91.10 89.08 C 92.68 88.65 94.25 88.21 95.82 87.72 Z" />
</g>
<g id="#f3dfd2f9">
<path fill="#f3dfd2" opacity="0.98" d=" M 119.71 78.25 C 127.32 75.21 135.93 75.62 143.18 79.46 C 139.98 79.84 136.77 80.15 133.58 79.61 C 128.85 77.66 124.70 80.68 120.28 81.66 C 120.02 81.24 119.49 80.42 119.23 80.00 C 119.35 79.56 119.59 78.69 119.71 78.25 Z" />
</g>
<g id="#b76d79ff">
<path fill="#b76d79" opacity="1.00" d=" M 113.64 79.62 C 115.42 77.92 115.61 81.01 116.27 82.11 C 116.22 82.57 116.13 83.48 116.09 83.93 C 113.54 82.02 111.16 84.87 108.89 85.82 C 105.38 87.92 101.30 88.76 97.77 90.81 C 96.20 90.91 94.63 90.98 93.06 91.04 C 92.26 91.04 90.65 91.04 89.85 91.04 C 87.85 90.96 85.85 90.82 83.85 90.63 C 86.21 90.42 88.57 90.22 90.94 90.04 C 99.58 89.67 106.72 84.19 113.64 79.62 Z" />
</g>
<g id="#fbc5c0fd">
<path fill="#fbc5c0" opacity="1.00" d=" M 120.28 81.66 C 124.70 80.68 128.85 77.66 133.58 79.61 C 136.77 80.15 139.98 79.84 143.18 79.46 C 146.37 80.01 149.39 82.17 151.06 85.00 C 141.02 81.34 130.06 83.45 119.99 85.88 C 119.75 84.83 119.49 83.78 119.22 82.74 C 119.16 82.27 119.05 81.34 119.00 80.87 L 119.23 80.00 C 119.49 80.42 120.02 81.24 120.28 81.66 Z" />
</g>
<g id="#f3ded6f9">
<path fill="#f3ded6" opacity="0.98" d=" M 9.37 96.21 C 6.42 88.75 13.74 81.50 20.71 81.28 C 21.35 81.54 22.61 82.06 23.24 82.32 C 17.79 86.24 7.97 87.40 9.37 96.21 Z" />
</g>
<g id="#fffceeff">
<path fill="#fffcee" opacity="1.00" d=" M 20.71 81.28 C 23.89 81.04 27.10 80.82 30.27 81.27 C 27.92 81.60 25.58 81.95 23.24 82.32 C 22.61 82.06 21.35 81.54 20.71 81.28 Z" />
</g>
<g id="#fbc6c4fd">
<path fill="#fbc6c4" opacity="1.00" d=" M 30.27 81.27 C 33.93 81.97 38.07 82.42 41.28 84.43 C 36.92 85.83 32.14 82.47 28.05 84.93 C 24.15 86.45 21.85 90.10 18.66 92.59 C 15.57 94.03 10.73 93.92 10.28 98.18 C 10.05 97.68 9.59 96.70 9.37 96.21 C 7.97 87.40 17.79 86.24 23.24 82.32 C 25.58 81.95 27.92 81.60 30.27 81.27 Z" />
</g>
<g id="#a66e8aff">
<path fill="#a66e8a" opacity="1.00" d=" M 116.27 82.11 C 117.19 81.72 118.10 81.30 119.00 80.87 C 119.05 81.34 119.16 82.27 119.22 82.74 C 117.81 87.28 120.02 91.03 121.79 94.89 L 120.97 94.99 C 119.24 94.93 117.79 95.60 116.88 97.10 C 116.41 94.01 116.03 90.92 115.79 87.81 C 115.90 86.52 116.00 85.23 116.09 83.93 C 116.13 83.48 116.22 82.57 116.27 82.11 Z" />
</g>
<g id="#aa626fff">
<path fill="#aa626f" opacity="1.00" d=" M 108.89 85.82 C 111.16 84.87 113.54 82.02 116.09 83.93 C 116.00 85.23 115.90 86.52 115.79 87.81 C 115.33 88.60 114.88 89.40 114.44 90.20 C 114.43 88.42 113.61 87.71 111.98 88.05 C 108.03 89.23 104.01 90.15 99.96 90.97 C 99.42 90.93 98.32 90.85 97.77 90.81 C 101.30 88.76 105.38 87.92 108.89 85.82 Z" />
</g>
<g id="#fcadb0ff">
<path fill="#fcadb0" opacity="1.00" d=" M 119.22 82.74 C 119.49 83.78 119.75 84.83 119.99 85.88 C 120.26 87.23 120.68 88.54 121.20 89.81 C 126.22 89.94 131.22 90.22 136.22 90.65 C 134.34 92.20 132.62 94.24 129.93 94.00 C 128.22 94.16 126.56 94.60 124.94 95.14 C 126.03 96.60 129.14 97.71 127.05 99.65 C 125.38 100.50 122.96 100.80 122.67 103.03 C 121.32 100.56 121.31 97.60 121.79 94.89 C 120.02 91.03 117.81 87.28 119.22 82.74 Z" />
</g>
<g id="#ffb6b7ff">
<path fill="#ffb6b7" opacity="1.00" d=" M 119.99 85.88 C 130.06 83.45 141.02 81.34 151.06 85.00 C 152.02 85.28 152.68 85.91 153.05 86.89 C 150.20 87.07 145.85 86.41 144.71 89.80 C 141.87 90.04 139.05 90.31 136.22 90.65 C 131.22 90.22 126.22 89.94 121.20 89.81 C 120.68 88.54 120.26 87.23 119.99 85.88 Z" />
</g>
<g id="#fab3b4fc">
<path fill="#fab3b4" opacity="1.00" d=" M 28.05 84.93 C 32.14 82.47 36.92 85.83 41.28 84.43 C 44.36 84.41 47.43 85.95 50.25 87.17 L 49.90 87.87 C 45.81 87.23 41.62 87.86 37.66 86.40 C 30.17 84.90 25.29 92.31 18.94 94.84 C 16.53 96.35 12.14 96.47 11.80 100.04 C 10.68 99.65 10.18 99.03 10.28 98.18 C 10.73 93.92 15.57 94.03 18.66 92.59 C 21.85 90.10 24.15 86.45 28.05 84.93 Z" />
</g>
<g id="#f2989dfe">
<path fill="#f2989d" opacity="1.00" d=" M 50.96 85.87 C 57.98 84.41 65.13 83.83 72.22 85.09 C 70.97 86.36 69.53 89.05 67.43 87.53 C 65.61 86.00 63.27 85.48 61.77 87.71 C 59.26 87.21 56.59 86.66 54.26 88.11 C 54.87 90.40 55.63 92.64 56.27 94.92 C 56.56 94.67 57.15 94.18 57.44 93.94 C 57.89 95.71 58.29 97.50 58.78 99.27 C 56.61 98.83 57.05 94.07 55.52 97.76 C 55.03 98.38 54.54 99.00 54.05 99.62 C 50.49 104.47 46.68 109.60 45.77 115.71 L 45.26 116.28 L 45.08 115.18 C 44.97 114.45 44.75 112.99 44.65 112.25 C 45.90 108.10 46.62 103.78 46.81 99.45 C 45.32 98.88 43.79 98.39 42.37 97.68 C 41.22 95.25 41.47 91.47 38.36 90.59 C 36.06 89.33 33.14 89.67 31.73 91.84 L 30.88 91.88 C 30.69 91.42 30.32 90.49 30.14 90.03 C 34.73 86.83 40.02 89.01 44.10 91.90 C 47.12 91.19 52.71 91.79 53.00 88.19 C 52.23 88.11 50.68 87.95 49.90 87.87 L 50.25 87.17 C 50.43 86.85 50.79 86.20 50.96 85.87 Z" />
</g>
<g id="#f8a5a9ff">
<path fill="#f8a5a9" opacity="1.00" d=" M 18.94 94.84 C 25.29 92.31 30.17 84.90 37.66 86.40 C 41.62 87.86 45.81 87.23 49.90 87.87 C 50.68 87.95 52.23 88.11 53.00 88.19 C 52.71 91.79 47.12 91.19 44.10 91.90 C 40.02 89.01 34.73 86.83 30.14 90.03 C 30.32 90.49 30.69 91.42 30.88 91.88 C 29.62 91.93 28.35 92.01 27.09 92.13 C 27.03 93.42 27.01 94.71 27.04 96.01 C 26.52 95.80 25.50 95.38 24.98 95.18 C 20.63 97.23 15.91 98.44 11.84 101.08 L 11.80 100.04 C 12.14 96.47 16.53 96.35 18.94 94.84 Z" />
</g>
<g id="#d27680ff">
<path fill="#d27680" opacity="1.00" d=" M 54.26 88.11 C 56.59 86.66 59.26 87.21 61.77 87.71 C 71.35 90.18 81.33 88.58 91.10 89.08 L 90.94 90.04 C 88.57 90.22 86.21 90.42 83.85 90.63 L 83.09 90.60 C 74.82 89.51 66.37 90.72 58.18 89.04 C 58.12 89.71 57.99 91.05 57.93 91.72 C 57.81 92.28 57.57 93.38 57.44 93.94 C 57.15 94.18 56.56 94.67 56.27 94.92 C 55.63 92.64 54.87 90.40 54.26 88.11 Z" />
</g>
<g id="#f0a1a5fe">
<path fill="#f0a1a5" opacity="1.00" d=" M 144.71 89.80 C 145.85 86.41 150.20 87.07 153.05 86.89 C 154.88 87.36 155.24 89.82 156.27 91.23 C 155.14 92.18 153.97 93.09 152.83 94.03 L 152.14 93.59 C 151.51 93.15 150.86 92.75 150.19 92.38 C 148.45 91.36 146.56 90.61 144.71 89.80 Z" />
</g>
<g id="#9c5563ff">
<path fill="#9c5563" opacity="1.00" d=" M 99.96 90.97 C 104.01 90.15 108.03 89.23 111.98 88.05 C 113.61 87.71 114.43 88.42 114.44 90.20 C 113.89 91.87 113.36 93.59 112.38 95.08 C 111.53 89.88 105.54 92.54 101.81 92.06 C 101.35 92.04 100.43 91.99 99.98 91.97 L 99.96 90.97 Z" />
</g>
<g id="#955d7aff">
<path fill="#955d7a" opacity="1.00" d=" M 114.44 90.20 C 114.88 89.40 115.33 88.60 115.79 87.81 C 116.03 90.92 116.41 94.01 116.88 97.10 C 116.64 97.55 116.17 98.45 115.93 98.90 C 114.50 102.87 110.46 104.79 108.05 108.06 C 107.80 108.33 107.32 108.87 107.07 109.13 C 107.03 108.33 106.94 106.71 106.89 105.91 C 99.11 108.99 91.63 113.62 82.86 112.97 C 83.07 111.95 83.29 110.94 83.51 109.93 C 86.03 112.31 89.38 109.85 92.10 109.13 C 99.86 106.21 106.74 101.09 112.38 95.08 C 113.36 93.59 113.89 91.87 114.44 90.20 Z" />
</g>
<g id="#b86370ff">
<path fill="#b86370" opacity="1.00" d=" M 58.18 89.04 C 66.37 90.72 74.82 89.51 83.09 90.60 C 81.97 90.95 80.86 91.33 79.75 91.74 C 74.08 92.50 68.47 91.35 62.83 91.02 C 63.96 94.42 71.71 94.34 69.27 98.30 C 65.71 96.32 62.24 94.20 58.73 92.16 L 57.93 91.72 C 57.99 91.05 58.12 89.71 58.18 89.04 Z" />
</g>
<g id="#e58f98ff">
<path fill="#e58f98" opacity="1.00" d=" M 31.73 91.84 C 33.14 89.67 36.06 89.33 38.36 90.59 C 41.47 91.47 41.22 95.25 42.37 97.68 C 43.79 98.39 45.32 98.88 46.81 99.45 C 46.62 103.78 45.90 108.10 44.65 112.25 C 44.35 110.92 44.24 109.55 44.27 108.19 C 44.26 105.88 46.29 102.37 43.34 101.63 C 38.62 100.33 40.63 90.97 34.24 93.05 C 34.19 93.49 34.09 94.36 34.04 94.80 L 33.22 95.04 C 32.75 93.96 32.26 92.90 31.73 91.84 Z" />
</g>
<g id="#ffe6d9ff">
<path fill="#ffe6d9" opacity="1.00" d=" M 136.22 90.65 C 139.05 90.31 141.87 90.04 144.71 89.80 C 146.56 90.61 148.45 91.36 150.19 92.38 C 142.73 91.85 134.56 92.68 128.87 98.03 C 129.08 96.65 129.44 95.31 129.93 94.00 C 132.62 94.24 134.34 92.20 136.22 90.65 Z" />
</g>
<g id="#9d4e5eff">
<path fill="#9d4e5e" opacity="1.00" d=" M 62.83 91.02 C 68.47 91.35 74.08 92.50 79.75 91.74 C 80.63 91.85 82.38 92.07 83.25 92.18 C 80.28 94.48 75.82 93.63 72.79 95.86 C 72.02 96.42 71.45 97.15 71.09 98.06 L 70.71 98.83 C 70.47 99.34 69.98 100.35 69.74 100.86 C 69.48 101.44 68.97 102.61 68.71 103.19 C 68.47 102.63 67.99 101.53 67.75 100.97 L 68.11 100.34 C 68.40 99.83 68.98 98.81 69.27 98.30 C 71.71 94.34 63.96 94.42 62.83 91.02 Z" />
</g>
<g id="#a55b6aff">
<path fill="#a55b6a" opacity="1.00" d=" M 79.75 91.74 C 80.86 91.33 81.97 90.95 83.09 90.60 L 83.85 90.63 C 85.85 90.82 87.85 90.96 89.85 91.04 C 89.78 93.84 89.56 96.64 88.37 99.23 C 87.99 97.47 88.32 95.33 86.78 94.06 C 82.03 94.07 77.53 95.96 72.79 95.86 C 75.82 93.63 80.28 94.48 83.25 92.18 C 82.38 92.07 80.63 91.85 79.75 91.74 Z" />
</g>
<g id="#8f5466ff">
<path fill="#8f5466" opacity="1.00" d=" M 89.85 91.04 C 90.65 91.04 92.26 91.04 93.06 91.04 C 92.92 93.73 93.30 96.55 92.04 99.03 C 90.66 99.98 89.35 101.03 88.05 102.08 C 88.13 101.37 88.29 99.94 88.37 99.23 C 89.56 96.64 89.78 93.84 89.85 91.04 Z" />
</g>
<g id="#763f56ff">
<path fill="#763f56" opacity="1.00" d=" M 93.06 91.04 C 94.63 90.98 96.20 90.91 97.77 90.81 C 98.32 90.85 99.42 90.93 99.96 90.97 L 99.98 91.97 C 98.46 91.98 95.43 92.01 93.91 92.02 C 95.11 93.62 96.47 95.10 97.50 96.82 C 96.40 98.97 94.18 99.08 92.04 99.03 C 93.30 96.55 92.92 93.73 93.06 91.04 Z" />
</g>
<g id="#cb818cfd">
<path fill="#cb818c" opacity="1.00" d=" M 156.27 91.23 L 156.95 90.88 C 159.37 94.84 160.49 99.41 161.01 103.98 C 161.01 106.66 160.99 109.35 160.95 112.04 C 160.90 112.60 160.82 113.71 160.77 114.26 C 158.92 109.52 161.28 102.39 157.04 98.84 C 157.24 100.95 157.77 103.01 157.92 105.12 C 157.66 104.77 157.15 104.07 156.89 103.72 C 155.43 100.20 152.85 103.57 151.18 105.18 C 147.41 109.06 141.68 110.10 137.86 113.88 C 133.69 114.88 129.33 114.05 125.20 115.22 C 122.87 116.56 120.63 118.06 118.35 119.48 C 118.70 126.25 119.48 133.07 117.80 139.76 C 117.35 140.04 116.47 140.59 116.02 140.87 C 115.72 134.37 116.77 126.35 112.30 120.93 C 114.80 119.91 115.05 117.29 116.11 115.12 C 118.34 115.37 121.03 116.97 122.73 114.71 C 124.34 112.73 126.94 112.94 129.24 112.90 C 137.86 112.52 146.39 107.49 151.79 100.84 C 153.04 99.31 156.82 100.97 156.08 97.93 C 155.27 96.80 154.32 95.79 153.40 94.77 L 152.83 94.03 C 153.97 93.09 155.14 92.18 156.27 91.23 Z" />
</g>
<g id="#f9e8e3ff">
<path fill="#f9e8e3" opacity="1.00" d=" M 27.09 92.13 C 28.35 92.01 29.62 91.93 30.88 91.88 L 31.73 91.84 C 32.26 92.90 32.75 93.96 33.22 95.04 C 31.19 95.76 29.14 96.44 27.08 97.05 L 27.04 96.01 C 27.01 94.71 27.03 93.42 27.09 92.13 Z" />
</g>
<g id="#da8c93ff">
<path fill="#da8c93" opacity="1.00" d=" M 57.93 91.72 L 58.73 92.16 C 58.24 97.45 64.62 98.17 68.11 100.34 L 67.75 100.97 C 67.57 101.26 67.22 101.84 67.04 102.13 C 64.31 101.12 61.58 100.10 58.78 99.27 C 58.29 97.50 57.89 95.71 57.44 93.94 C 57.57 93.38 57.81 92.28 57.93 91.72 Z" />
</g>
<g id="#c77883ff">
<path fill="#c77883" opacity="1.00" d=" M 58.73 92.16 C 62.24 94.20 65.71 96.32 69.27 98.30 C 68.98 98.81 68.40 99.83 68.11 100.34 C 64.62 98.17 58.24 97.45 58.73 92.16 Z" />
</g>
<g id="#5d2034ff">
<path fill="#5d2034" opacity="1.00" d=" M 93.91 92.02 C 95.43 92.01 98.46 91.98 99.98 91.97 C 100.43 91.99 101.35 92.04 101.81 92.06 C 102.11 92.28 102.73 92.71 103.04 92.93 C 103.63 94.52 105.04 96.01 104.83 97.77 C 103.45 99.22 101.75 100.29 100.05 101.31 C 99.21 99.81 98.48 98.25 97.50 96.82 C 96.47 95.10 95.11 93.62 93.91 92.02 Z" />
</g>
<g id="#8b4a5eff">
<path fill="#8b4a5e" opacity="1.00" d=" M 101.81 92.06 C 105.54 92.54 111.53 89.88 112.38 95.08 C 106.74 101.09 99.86 106.21 92.10 109.13 C 89.38 109.85 86.03 112.31 83.51 109.93 C 83.59 109.45 83.75 108.48 83.83 107.99 L 84.58 108.26 C 88.89 110.35 93.11 106.34 97.03 105.04 C 101.19 102.33 106.86 100.07 108.88 95.17 C 107.50 93.21 105.28 92.88 103.04 92.93 C 102.73 92.71 102.11 92.28 101.81 92.06 Z" />
</g>
<g id="#ffcdcaff">
<path fill="#ffcdca" opacity="1.00" d=" M 128.87 98.03 C 134.56 92.68 142.73 91.85 150.19 92.38 C 150.86 92.75 151.51 93.15 152.14 93.59 C 146.52 93.64 144.38 99.76 139.67 101.75 C 136.28 102.89 132.47 99.87 129.31 101.91 C 128.97 100.74 128.22 99.99 127.05 99.65 C 129.14 97.71 126.03 96.60 124.94 95.14 C 126.56 94.60 128.22 94.16 129.93 94.00 C 129.44 95.31 129.08 96.65 128.87 98.03 Z" />
</g>
<g id="#d6848eff">
<path fill="#d6848e" opacity="1.00" d=" M 34.24 93.05 C 40.63 90.97 38.62 100.33 43.34 101.63 C 46.29 102.37 44.26 105.88 44.27 108.19 C 44.53 105.46 42.41 103.96 40.55 102.44 C 38.56 99.73 37.40 96.14 34.04 94.80 C 34.09 94.36 34.19 93.49 34.24 93.05 Z" />
</g>
<g id="#803e4dff">
<path fill="#803e4d" opacity="1.00" d=" M 103.04 92.93 C 105.28 92.88 107.50 93.21 108.88 95.17 C 106.86 100.07 101.19 102.33 97.03 105.04 C 93.11 106.34 88.89 110.35 84.58 108.26 C 85.20 106.75 85.88 105.26 86.83 103.92 C 91.30 103.68 96.02 103.44 100.05 101.31 C 101.75 100.29 103.45 99.22 104.83 97.77 C 105.04 96.01 103.63 94.52 103.04 92.93 Z" />
</g>
<g id="#ae6b79ff">
<path fill="#ae6b79" opacity="1.00" d=" M 72.79 95.86 C 77.53 95.96 82.03 94.07 86.78 94.06 C 88.32 95.33 87.99 97.47 88.37 99.23 C 88.29 99.94 88.13 101.37 88.05 102.08 C 87.74 102.54 87.13 103.46 86.83 103.92 C 85.88 105.26 85.20 106.75 84.58 108.26 L 83.83 107.99 C 83.93 106.32 83.98 104.64 84.07 102.97 C 84.35 102.72 84.90 102.22 85.17 101.97 C 87.55 100.12 87.53 96.63 84.76 95.18 C 80.14 95.72 75.62 97.01 71.09 98.06 C 71.45 97.15 72.02 96.42 72.79 95.86 Z" />
</g>
<g id="#febbbeff">
<path fill="#febbbe" opacity="1.00" d=" M 139.67 101.75 C 144.38 99.76 146.52 93.64 152.14 93.59 L 152.83 94.03 L 153.40 94.77 C 148.65 96.68 146.97 102.40 142.01 103.99 C 138.06 106.19 133.48 105.92 129.12 105.99 C 128.84 105.57 128.28 104.72 128.00 104.29 C 128.33 103.69 128.98 102.51 129.31 101.91 C 132.47 99.87 136.28 102.89 139.67 101.75 Z" />
</g>
<g id="#dc8e96fc">
<path fill="#dc8e96" opacity="1.00" d=" M 11.84 101.08 C 15.91 98.44 20.63 97.23 24.98 95.18 C 25.50 95.38 26.52 95.80 27.04 96.01 L 27.08 97.05 L 26.93 97.97 C 23.15 99.42 18.86 99.95 16.05 103.15 C 14.61 102.76 12.59 102.51 11.84 101.08 Z" />
</g>
<g id="#b28e9eff">
<path fill="#b28e9e" opacity="1.00" d=" M 27.08 97.05 C 29.14 96.44 31.19 95.76 33.22 95.04 L 34.04 94.80 C 33.76 95.76 33.46 96.72 33.14 97.68 C 32.14 97.67 31.14 97.72 30.15 97.85 C 29.35 97.88 27.74 97.94 26.93 97.97 L 27.08 97.05 Z" />
</g>
<g id="#c67883fe">
<path fill="#c67883" opacity="1.00" d=" M 34.04 94.80 C 37.40 96.14 38.56 99.73 40.55 102.44 C 42.41 103.96 44.53 105.46 44.27 108.19 C 44.24 109.55 44.35 110.92 44.65 112.25 C 44.75 112.99 44.97 114.45 45.08 115.18 C 44.58 114.86 43.58 114.22 43.08 113.90 C 43.07 112.62 43.03 111.34 42.98 110.07 C 42.91 109.39 42.76 108.03 42.69 107.35 C 39.23 104.41 36.39 100.84 33.14 97.68 C 33.46 96.72 33.76 95.76 34.04 94.80 Z" />
</g>
<g id="#c07884ff">
<path fill="#c07884" opacity="1.00" d=" M 71.09 98.06 C 75.62 97.01 80.14 95.72 84.76 95.18 C 87.53 96.63 87.55 100.12 85.17 101.97 C 84.93 100.28 85.30 98.24 83.80 97.05 C 79.38 97.28 75.21 99.48 70.71 98.83 L 71.09 98.06 Z" />
</g>
<g id="#db888eff">
<path fill="#db888e" opacity="1.00" d=" M 116.88 97.10 C 117.79 95.60 119.24 94.93 120.97 94.99 C 119.07 97.88 118.08 101.25 116.15 104.12 C 116.07 102.38 115.98 100.64 115.93 98.90 C 116.17 98.45 116.64 97.55 116.88 97.10 Z" />
</g>
<g id="#f7999eff">
<path fill="#f7999e" opacity="1.00" d=" M 120.97 94.99 L 121.79 94.89 C 121.31 97.60 121.32 100.56 122.67 103.03 C 124.08 104.44 125.74 105.57 127.20 106.92 C 127.14 107.40 127.02 108.34 126.95 108.82 C 124.35 109.00 121.82 109.69 119.22 109.89 C 118.07 108.30 117.16 106.55 116.15 104.87 L 116.15 104.12 C 118.08 101.25 119.07 97.88 120.97 94.99 Z" />
</g>
<g id="#f8a8acff">
<path fill="#f8a8ac" opacity="1.00" d=" M 153.40 94.77 C 154.32 95.79 155.27 96.80 156.08 97.93 C 153.44 98.25 149.77 97.03 148.99 101.02 C 144.65 107.44 136.09 108.51 129.25 110.60 C 128.47 110.02 127.71 109.43 126.95 108.82 C 127.02 108.34 127.14 107.40 127.20 106.92 C 127.68 106.69 128.64 106.23 129.12 105.99 C 133.48 105.92 138.06 106.19 142.01 103.99 C 146.97 102.40 148.65 96.68 153.40 94.77 Z" />
</g>
<g id="#f3a9aeff">
<path fill="#f3a9ae" opacity="1.00" d=" M 55.52 97.76 C 57.05 94.07 56.61 98.83 58.78 99.27 C 61.29 100.93 63.93 102.39 66.41 104.09 C 66.10 105.12 65.77 106.14 65.42 107.16 C 61.93 104.34 55.92 102.93 55.52 97.76 Z" />
</g>
<g id="#b56e77fe">
<path fill="#b56e77" opacity="1.00" d=" M 30.15 97.85 C 31.14 97.72 32.14 97.67 33.14 97.68 C 36.39 100.84 39.23 104.41 42.69 107.35 C 42.76 108.03 42.91 109.39 42.98 110.07 C 39.83 107.74 36.52 105.57 32.90 104.05 C 29.15 103.91 25.47 104.96 21.85 105.84 C 20.48 106.02 18.34 105.31 17.89 103.91 C 21.98 103.15 25.95 101.69 29.57 99.64 C 29.72 99.19 30.01 98.29 30.15 97.85 Z" />
</g>
<g id="#ce8591ff">
<path fill="#ce8591" opacity="1.00" d=" M 70.71 98.83 C 75.21 99.48 79.38 97.28 83.80 97.05 C 85.30 98.24 84.93 100.28 85.17 101.97 C 84.90 102.22 84.35 102.72 84.07 102.97 C 83.72 101.65 83.27 100.37 82.76 99.11 C 78.35 99.15 74.12 100.56 69.74 100.86 C 69.98 100.35 70.47 99.34 70.71 98.83 Z" />
</g>
<g id="#622d45ff">
<path fill="#622d45" opacity="1.00" d=" M 97.50 96.82 C 98.48 98.25 99.21 99.81 100.05 101.31 C 96.02 103.44 91.30 103.68 86.83 103.92 C 87.13 103.46 87.74 102.54 88.05 102.08 C 89.35 101.03 90.66 99.98 92.04 99.03 C 94.18 99.08 96.40 98.97 97.50 96.82 Z" />
</g>
<g id="#c47c85fe">
<path fill="#c47c85" opacity="1.00" d=" M 16.05 103.15 C 18.86 99.95 23.15 99.42 26.93 97.97 C 27.74 97.94 29.35 97.88 30.15 97.85 C 30.01 98.29 29.72 99.19 29.57 99.64 C 25.95 101.69 21.98 103.15 17.89 103.91 C 17.43 103.72 16.51 103.34 16.05 103.15 Z" />
</g>
<g id="#fdb8bbff">
<path fill="#fdb8bb" opacity="1.00" d=" M 54.05 99.62 C 54.54 99.00 55.03 98.38 55.52 97.76 C 55.92 102.93 61.93 104.34 65.42 107.16 C 65.23 107.81 64.85 109.11 64.66 109.76 C 64.23 110.88 63.83 112.01 63.41 113.13 C 61.81 108.78 55.93 107.48 55.11 102.55 C 54.79 101.56 54.44 100.59 54.05 99.62 Z" />
</g>
<g id="#e5929aff">
<path fill="#e5929a" opacity="1.00" d=" M 148.99 101.02 C 149.77 97.03 153.44 98.25 156.08 97.93 C 156.82 100.97 153.04 99.31 151.79 100.84 C 146.39 107.49 137.86 112.52 129.24 112.90 C 126.53 108.57 121.82 113.62 118.17 112.97 C 116.50 110.65 115.94 107.68 116.15 104.87 C 117.16 106.55 118.07 108.30 119.22 109.89 C 121.82 109.69 124.35 109.00 126.95 108.82 C 127.71 109.43 128.47 110.02 129.25 110.60 C 136.09 108.51 144.65 107.44 148.99 101.02 Z" />
</g>
<g id="#e69ba2ff">
<path fill="#e69ba2" opacity="1.00" d=" M 58.78 99.27 C 61.58 100.10 64.31 101.12 67.04 102.13 C 66.89 102.62 66.57 103.60 66.41 104.09 C 63.93 102.39 61.29 100.93 58.78 99.27 Z" />
</g>
<g id="#dd959fff">
<path fill="#dd959f" opacity="1.00" d=" M 69.74 100.86 C 74.12 100.56 78.35 99.15 82.76 99.11 C 83.27 100.37 83.72 101.65 84.07 102.97 C 82.90 105.31 82.17 107.82 81.24 110.26 C 80.58 107.60 83.22 104.02 80.74 102.12 C 76.64 101.38 72.71 102.63 68.71 103.19 C 68.97 102.61 69.48 101.44 69.74 100.86 Z" />
</g>
<g id="#b86e79ff">
<path fill="#b86e79" opacity="1.00" d=" M 108.05 108.06 C 110.46 104.79 114.50 102.87 115.93 98.90 C 115.98 100.64 116.07 102.38 116.15 104.12 C 113.91 106.23 110.85 107.01 108.05 108.06 Z" />
</g>
<g id="#b36c7cfa">
<path fill="#b36c7c" opacity="0.98" d=" M 157.04 98.84 C 161.28 102.39 158.92 109.52 160.77 114.26 C 160.32 128.27 155.22 141.74 150.84 154.91 C 150.21 156.05 150.39 158.01 148.85 158.37 C 147.82 157.97 147.09 157.27 146.67 156.27 C 149.14 153.62 149.56 149.95 150.44 146.59 C 152.12 137.26 155.04 127.84 153.76 118.29 C 153.32 117.90 152.45 117.12 152.01 116.72 C 155.20 113.68 158.05 109.72 157.92 105.12 C 157.77 103.01 157.24 100.95 157.04 98.84 Z" />
</g>
<g id="#fedfcfff">
<path fill="#fedfcf" opacity="1.00" d=" M 45.77 115.71 C 46.68 109.60 50.49 104.47 54.05 99.62 C 54.44 100.59 54.79 101.56 55.11 102.55 C 54.56 103.56 54.03 104.58 53.52 105.60 L 53.08 106.16 C 50.22 110.35 49.86 115.84 47.04 120.12 C 47.03 118.17 49.40 113.74 45.77 115.71 Z" />
</g>
<g id="#fdece8ff">
<path fill="#fdece8" opacity="1.00" d=" M 122.67 103.03 C 122.96 100.80 125.38 100.50 127.05 99.65 C 128.22 99.99 128.97 100.74 129.31 101.91 C 128.98 102.51 128.33 103.69 128.00 104.29 C 126.22 103.88 124.45 103.42 122.67 103.03 Z" />
</g>
<g id="#c77c85ff">
<path fill="#c77c85" opacity="1.00" d=" M 67.04 102.13 C 67.22 101.84 67.57 101.26 67.75 100.97 C 67.99 101.53 68.47 102.63 68.71 103.19 C 68.45 104.13 68.18 105.08 67.92 106.03 C 67.17 107.68 66.44 109.34 65.85 111.05 C 65.55 110.73 64.96 110.08 64.66 109.76 C 64.85 109.11 65.23 107.81 65.42 107.16 C 65.77 106.14 66.10 105.12 66.41 104.09 C 66.57 103.60 66.89 102.62 67.04 102.13 Z" />
</g>
<g id="#eda6afff">
<path fill="#eda6af" opacity="1.00" d=" M 68.71 103.19 C 72.71 102.63 76.64 101.38 80.74 102.12 C 83.22 104.02 80.58 107.60 81.24 110.26 C 80.74 112.31 80.03 114.30 79.26 116.26 C 78.97 112.49 79.68 108.74 79.98 104.99 C 75.89 104.64 71.97 105.91 67.92 106.03 C 68.18 105.08 68.45 104.13 68.71 103.19 Z" />
</g>
<g id="#be7480ff">
<path fill="#be7480" opacity="1.00" d=" M 151.18 105.18 C 152.85 103.57 155.43 100.20 156.89 103.72 C 156.66 104.24 156.21 105.27 155.98 105.78 C 150.45 107.53 146.85 113.08 140.79 113.72 C 140.06 113.76 138.59 113.84 137.86 113.88 C 141.68 110.10 147.41 109.06 151.18 105.18 Z" />
</g>
<g id="#fec6c9ff">
<path fill="#fec6c9" opacity="1.00" d=" M 53.52 105.60 C 54.03 104.58 54.56 103.56 55.11 102.55 C 55.93 107.48 61.81 108.78 63.41 113.13 C 62.14 117.51 60.99 121.95 59.39 126.23 C 58.90 118.94 54.59 112.74 53.52 105.60 Z" />
</g>
<g id="#c38b92ff">
<path fill="#c38b92" opacity="1.00" d=" M 81.24 110.26 C 82.17 107.82 82.90 105.31 84.07 102.97 C 83.98 104.64 83.93 106.32 83.83 107.99 C 83.75 108.48 83.59 109.45 83.51 109.93 C 83.29 110.94 83.07 111.95 82.86 112.97 C 80.70 116.11 85.03 114.78 86.94 114.95 L 86.97 115.86 C 85.32 116.14 83.21 115.58 82.15 117.22 C 80.25 123.46 79.00 129.87 77.58 136.24 C 77.28 135.10 77.00 133.97 76.74 132.83 C 77.20 129.17 77.60 125.49 77.89 121.82 C 78.42 119.98 78.91 118.14 79.26 116.26 C 80.03 114.30 80.74 112.31 81.24 110.26 Z" />
</g>
<g id="#d8b6b8ff">
<path fill="#d8b6b8" opacity="1.00" d=" M 122.67 103.03 C 124.45 103.42 126.22 103.88 128.00 104.29 C 128.28 104.72 128.84 105.57 129.12 105.99 C 128.64 106.23 127.68 106.69 127.20 106.92 C 125.74 105.57 124.08 104.44 122.67 103.03 Z" />
</g>
<g id="#a25e6bfa">
<path fill="#a25e6b" opacity="0.98" d=" M 21.85 105.84 C 25.47 104.96 29.15 103.91 32.90 104.05 C 36.52 105.57 39.83 107.74 42.98 110.07 C 43.03 111.34 43.07 112.62 43.08 113.90 C 35.94 112.45 29.05 109.31 22.17 106.71 L 21.85 105.84 Z" />
</g>
<g id="#d98790ff">
<path fill="#d98790" opacity="1.00" d=" M 108.05 108.06 C 110.85 107.01 113.91 106.23 116.15 104.12 L 116.15 104.87 C 115.94 107.68 116.50 110.65 118.17 112.97 C 121.82 113.62 126.53 108.57 129.24 112.90 C 126.94 112.94 124.34 112.73 122.73 114.71 C 121.03 116.97 118.34 115.37 116.11 115.12 C 115.05 117.29 114.80 119.91 112.30 120.93 C 111.98 121.22 111.36 121.81 111.05 122.10 C 109.83 119.69 110.22 115.70 107.19 114.79 L 107.05 113.91 C 107.03 112.31 107.04 110.72 107.07 109.13 C 107.32 108.87 107.80 108.33 108.05 108.06 Z" />
</g>
<g id="#ac728cff">
<path fill="#ac728c" opacity="1.00" d=" M 155.98 105.78 C 156.21 105.27 156.66 104.24 156.89 103.72 C 157.15 104.07 157.66 104.77 157.92 105.12 C 158.05 109.72 155.20 113.68 152.01 116.72 C 150.82 117.60 149.60 118.44 148.30 119.15 C 148.44 118.60 148.73 117.48 148.87 116.92 C 148.98 116.48 149.19 115.62 149.30 115.18 C 153.18 113.86 155.41 109.62 155.98 105.78 Z" />
</g>
<g id="#0d090c41">
<path fill="#0d090c" opacity="0.25" d=" M 161.01 103.98 C 163.22 104.90 161.54 109.57 161.94 111.98 L 160.95 112.04 C 160.99 109.35 161.01 106.66 161.01 103.98 Z" />
</g>
<g id="#f6b4bbff">
<path fill="#f6b4bb" opacity="1.00" d=" M 67.92 106.03 C 71.97 105.91 75.89 104.64 79.98 104.99 C 79.68 108.74 78.97 112.49 79.26 116.26 C 78.91 118.14 78.42 119.98 77.89 121.82 C 76.06 127.78 74.76 133.97 75.20 140.23 C 75.13 140.63 74.99 141.43 74.93 141.83 C 74.35 146.29 73.62 150.74 71.97 154.95 C 72.59 140.50 75.55 126.33 77.03 112.01 C 76.90 106.15 68.78 110.56 65.85 111.05 C 66.44 109.34 67.17 107.68 67.92 106.03 Z" />
</g>
<g id="#fedfddfe">
<path fill="#fedfdd" opacity="1.00" d=" M 47.04 120.12 C 49.86 115.84 50.22 110.35 53.08 106.16 C 51.74 114.35 50.61 122.62 50.19 130.89 C 53.68 138.64 49.60 146.98 48.99 154.98 C 51.25 155.48 52.55 154.78 51.85 152.38 C 55.09 150.81 55.80 145.26 59.92 146.03 C 66.04 147.48 66.62 156.88 63.23 161.20 C 53.23 165.92 41.79 166.08 31.28 169.16 C 31.18 169.64 30.98 170.60 30.88 171.09 C 29.70 170.68 29.16 170.03 29.25 169.12 C 35.15 160.55 48.02 165.28 55.13 159.18 C 50.33 156.84 41.50 158.99 39.28 152.66 C 38.71 148.06 38.42 143.25 41.03 139.25 C 40.59 139.16 39.71 138.99 39.27 138.91 C 40.33 133.85 40.52 128.16 43.43 123.72 C 44.91 125.24 41.86 130.17 44.68 128.72 C 45.38 125.83 45.84 122.86 47.04 120.12 Z" />
</g>
<g id="#ffd3d4ff">
<path fill="#ffd3d4" opacity="1.00" d=" M 53.08 106.16 L 53.52 105.60 C 54.59 112.74 58.90 118.94 59.39 126.23 C 57.85 131.87 55.30 137.15 53.62 142.75 C 52.92 145.89 50.19 149.15 51.85 152.38 C 52.55 154.78 51.25 155.48 48.99 154.98 C 49.60 146.98 53.68 138.64 50.19 130.89 C 50.61 122.62 51.74 114.35 53.08 106.16 Z" />
</g>
<g id="#754951ff">
<path fill="#754951" opacity="1.00" d=" M 82.86 112.97 C 91.63 113.62 99.11 108.99 106.89 105.91 C 106.94 106.71 107.03 108.33 107.07 109.13 C 107.04 110.72 107.03 112.31 107.05 113.91 L 106.11 113.95 C 106.05 112.48 105.95 109.52 105.89 108.04 C 103.47 109.23 101.09 110.49 98.77 111.84 C 94.81 112.83 90.90 113.98 86.94 114.95 C 85.03 114.78 80.70 116.11 82.86 112.97 Z" />
</g>
<g id="#af6574ff">
<path fill="#af6574" opacity="1.00" d=" M 140.79 113.72 C 146.85 113.08 150.45 107.53 155.98 105.78 C 155.41 109.62 153.18 113.86 149.30 115.18 C 146.59 114.15 143.64 114.11 140.79 113.72 Z" />
</g>
<g id="#c29684ff">
<path fill="#c29684" opacity="1.00" d=" M 105.89 108.04 C 105.95 109.52 106.05 112.48 106.11 113.95 L 105.16 114.03 C 105.11 112.74 105.04 111.46 104.95 110.17 C 102.97 111.02 100.97 111.90 98.77 111.84 C 101.09 110.49 103.47 109.23 105.89 108.04 Z" />
</g>
<g id="#fcc3c8fe">
<path fill="#fcc3c8" opacity="1.00" d=" M 65.85 111.05 C 68.78 110.56 76.90 106.15 77.03 112.01 C 75.55 126.33 72.59 140.50 71.97 154.95 C 70.03 157.85 69.00 161.22 67.13 164.15 C 61.51 165.44 56.26 167.85 50.81 169.65 C 45.49 169.99 40.14 169.98 34.92 171.16 C 31.42 172.12 34.72 176.50 34.05 179.04 L 33.15 178.84 C 31.09 176.86 31.73 173.63 30.88 171.09 C 38.66 168.08 47.45 169.92 55.01 166.02 C 59.20 163.88 64.84 163.92 67.77 159.74 C 71.54 148.51 70.48 136.57 72.02 125.00 C 72.04 120.53 66.07 120.84 63.02 122.10 C 63.40 118.29 65.12 114.79 65.85 111.05 Z" />
</g>
<g id="#e2989eff">
<path fill="#e2989e" opacity="1.00" d=" M 63.41 113.13 C 63.83 112.01 64.23 110.88 64.66 109.76 C 64.96 110.08 65.55 110.73 65.85 111.05 C 65.12 114.79 63.40 118.29 63.02 122.10 C 59.95 129.32 57.65 136.82 54.84 144.13 C 54.53 143.78 53.93 143.09 53.62 142.75 C 55.30 137.15 57.85 131.87 59.39 126.23 C 60.99 121.95 62.14 117.51 63.41 113.13 Z" />
</g>
<g id="#e6b89bff">
<path fill="#e6b89b" opacity="1.00" d=" M 98.77 111.84 C 100.97 111.90 102.97 111.02 104.95 110.17 C 105.04 111.46 105.11 112.74 105.16 114.03 C 104.88 117.57 103.68 120.95 102.33 124.20 C 102.81 115.95 92.92 115.64 86.97 115.86 L 86.94 114.95 C 90.90 113.98 94.81 112.83 98.77 111.84 Z" />
</g>
<g id="#9f6161ff">
<path fill="#9f6161" opacity="1.00" d=" M 105.16 114.03 L 106.11 113.95 L 107.05 113.91 L 107.19 114.79 C 105.37 121.73 102.24 128.23 97.89 133.92 C 92.06 138.69 85.25 142.54 77.65 143.31 C 77.09 142.21 78.10 141.84 78.89 141.40 C 88.99 140.04 97.67 133.12 102.33 124.20 C 103.68 120.95 104.88 117.57 105.16 114.03 Z" />
</g>
<g id="#c07881ff">
<path fill="#c07881" opacity="1.00" d=" M 125.20 115.22 C 129.33 114.05 133.69 114.88 137.86 113.88 C 137.62 114.39 137.14 115.41 136.90 115.92 C 132.72 117.82 127.24 114.17 123.94 117.86 C 118.65 122.63 122.02 130.41 121.51 136.64 C 120.56 141.95 119.50 147.35 117.26 152.29 C 111.45 162.10 103.02 170.02 94.43 177.37 C 94.30 177.82 94.04 178.72 93.91 179.17 C 90.95 180.11 87.93 180.91 84.82 181.20 C 84.34 181.14 83.38 181.03 82.89 180.98 C 83.11 179.29 83.41 177.62 83.69 175.94 C 81.02 175.98 75.67 176.06 73.00 176.10 C 71.90 175.89 70.82 175.63 69.74 175.31 C 90.10 177.13 112.92 162.48 115.30 141.28 L 116.02 140.87 C 116.47 140.59 117.35 140.04 117.80 139.76 C 119.48 133.07 118.70 126.25 118.35 119.48 C 120.63 118.06 122.87 116.56 125.20 115.22 Z" />
</g>
<g id="#905457ff">
<path fill="#905457" opacity="1.00" d=" M 137.86 113.88 C 138.59 113.84 140.06 113.76 140.79 113.72 C 143.64 114.11 146.59 114.15 149.30 115.18 C 149.19 115.62 148.98 116.48 148.87 116.92 C 148.46 116.93 147.65 116.94 147.24 116.95 C 145.56 114.06 141.97 115.13 139.12 114.95 C 139.29 115.55 139.64 116.76 139.82 117.36 L 139.18 117.36 C 138.61 117.00 137.47 116.28 136.90 115.92 C 137.14 115.41 137.62 114.39 137.86 113.88 Z" />
</g>
<g id="#e4b9a7f7">
<path fill="#e4b9a7" opacity="0.97" d=" M 45.77 115.71 C 49.40 113.74 47.03 118.17 47.04 120.12 C 45.84 122.86 45.38 125.83 44.68 128.72 C 41.86 130.17 44.91 125.24 43.43 123.72 C 43.22 121.18 44.76 118.76 45.26 116.28 L 45.77 115.71 Z" />
</g>
<g id="#e9969dff">
<path fill="#e9969d" opacity="1.00" d=" M 107.19 114.79 C 110.22 115.70 109.83 119.69 111.05 122.10 C 110.24 135.35 101.29 148.07 88.96 153.09 C 94.78 148.39 100.12 142.37 101.98 134.99 C 103.09 131.71 99.57 133.78 97.89 133.92 C 102.24 128.23 105.37 121.73 107.19 114.79 Z" />
</g>
<g id="#a1675fff">
<path fill="#a1675f" opacity="1.00" d=" M 139.12 114.95 C 141.97 115.13 145.56 114.06 147.24 116.95 C 144.80 117.46 142.29 117.47 139.82 117.36 C 139.64 116.76 139.29 115.55 139.12 114.95 Z" />
</g>
<g id="#fcd0acff">
<path fill="#fcd0ac" opacity="1.00" d=" M 82.15 117.22 C 83.21 115.58 85.32 116.14 86.97 115.86 C 92.92 115.64 102.81 115.95 102.33 124.20 C 97.67 133.12 88.99 140.04 78.89 141.40 C 78.17 139.76 77.92 137.98 77.58 136.24 C 79.00 129.87 80.25 123.46 82.15 117.22 Z" />
</g>
<g id="#b26a75ff">
<path fill="#b26a75" opacity="1.00" d=" M 123.94 117.86 C 127.24 114.17 132.72 117.82 136.90 115.92 C 137.47 116.28 138.61 117.00 139.18 117.36 C 138.06 118.37 136.69 118.93 135.24 119.27 C 131.82 119.15 128.42 118.86 125.00 119.05 C 125.01 119.76 125.03 121.18 125.03 121.88 C 126.68 130.16 128.35 138.67 127.00 147.12 C 130.16 146.73 132.08 143.70 135.13 143.03 C 129.74 148.94 124.75 155.65 124.16 163.90 L 123.33 163.85 C 116.06 166.28 110.36 172.38 103.15 175.31 C 104.46 170.44 110.11 168.75 112.35 164.33 C 118.58 159.44 121.66 152.08 123.54 144.61 C 125.43 135.66 121.83 126.74 123.94 117.86 Z" />
</g>
<g id="#9e637cff">
<path fill="#9e637c" opacity="1.00" d=" M 139.18 117.36 L 139.82 117.36 C 142.29 117.47 144.80 117.46 147.24 116.95 C 147.65 116.94 148.46 116.93 148.87 116.92 C 148.73 117.48 148.44 118.60 148.30 119.15 L 148.03 119.73 L 147.01 119.86 C 143.89 120.16 140.81 120.86 137.86 121.89 C 137.32 122.11 136.24 122.56 135.70 122.79 C 135.21 123.08 134.24 123.66 133.76 123.95 L 133.00 124.46 C 130.63 122.12 133.37 120.54 135.24 119.27 C 136.69 118.93 138.06 118.37 139.18 117.36 Z" />
</g>
<g id="#c07580ff">
<path fill="#c07580" opacity="1.00" d=" M 148.30 119.15 C 149.60 118.44 150.82 117.60 152.01 116.72 C 152.45 117.12 153.32 117.90 153.76 118.29 C 155.04 127.84 152.12 137.26 150.44 146.59 C 149.56 149.95 149.14 153.62 146.67 156.27 C 145.98 155.07 145.35 153.83 144.96 152.50 C 148.38 144.82 148.91 136.24 149.96 127.98 C 151.39 124.76 149.76 122.08 148.03 119.73 L 148.30 119.15 Z" />
</g>
<g id="#b9707bff">
<path fill="#b9707b" opacity="1.00" d=" M 121.51 136.64 C 122.02 130.41 118.65 122.63 123.94 117.86 C 121.83 126.74 125.43 135.66 123.54 144.61 C 121.66 152.08 118.58 159.44 112.35 164.33 C 110.11 168.75 104.46 170.44 103.15 175.31 C 100.26 177.00 97.19 178.43 93.91 179.17 C 94.04 178.72 94.30 177.82 94.43 177.37 C 103.02 170.02 111.45 162.10 117.26 152.29 C 119.50 147.35 120.56 141.95 121.51 136.64 Z" />
</g>
<g id="#9d5866ff">
<path fill="#9d5866" opacity="1.00" d=" M 125.00 119.05 C 128.42 118.86 131.82 119.15 135.24 119.27 C 133.37 120.54 130.63 122.12 133.00 124.46 C 130.26 127.99 126.48 124.91 125.03 121.88 C 125.03 121.18 125.01 119.76 125.00 119.05 Z" />
</g>
<g id="#b66e7bff">
<path fill="#b66e7b" opacity="1.00" d=" M 137.86 121.89 C 140.81 120.86 143.89 120.16 147.01 119.86 C 145.88 123.88 146.10 128.13 145.38 132.23 C 144.19 129.84 142.87 127.06 139.90 129.08 C 139.17 126.69 138.55 124.28 137.86 121.89 Z" />
</g>
<g id="#c7808fff">
<path fill="#c7808f" opacity="1.00" d=" M 147.01 119.86 L 148.03 119.73 C 149.76 122.08 151.39 124.76 149.96 127.98 C 148.91 136.24 148.38 144.82 144.96 152.50 C 143.84 149.31 145.66 145.67 144.13 142.54 C 144.34 140.62 144.66 138.71 144.81 136.79 C 145.01 135.27 145.18 133.74 145.38 132.23 C 146.10 128.13 145.88 123.88 147.01 119.86 Z" />
</g>
<g id="#ffd1d5ff">
<path fill="#ffd1d5" opacity="1.00" d=" M 63.02 122.10 C 66.07 120.84 72.04 120.53 72.02 125.00 C 70.48 136.57 71.54 148.51 67.77 159.74 C 64.84 163.92 59.20 163.88 55.01 166.02 C 47.45 169.92 38.66 168.08 30.88 171.09 C 30.98 170.60 31.18 169.64 31.28 169.16 C 41.79 166.08 53.23 165.92 63.23 161.20 C 66.62 156.88 66.04 147.48 59.92 146.03 C 55.80 145.26 55.09 150.81 51.85 152.38 C 52.84 149.62 53.93 146.91 54.84 144.13 C 57.65 136.82 59.95 129.32 63.02 122.10 Z" />
</g>
<g id="#965c5dff">
<path fill="#965c5d" opacity="1.00" d=" M 112.30 120.93 C 116.77 126.35 115.72 134.37 116.02 140.87 L 115.30 141.28 C 115.05 140.65 114.56 139.41 114.31 138.79 C 113.49 134.55 115.00 129.60 112.39 125.84 C 111.56 132.62 107.48 138.29 104.11 144.03 C 97.12 152.81 85.87 157.46 75.04 159.06 L 74.89 158.00 C 75.12 157.72 75.57 157.16 75.79 156.87 C 80.47 157.12 84.78 154.90 88.96 153.09 C 101.29 148.07 110.24 135.35 111.05 122.10 C 111.36 121.81 111.98 121.22 112.30 120.93 Z" />
</g>
<g id="#dea4acff">
<path fill="#dea4ac" opacity="1.00" d=" M 75.20 140.23 C 74.76 133.97 76.06 127.78 77.89 121.82 C 77.60 125.49 77.20 129.17 76.74 132.83 C 76.27 135.29 76.00 137.83 75.20 140.23 Z" />
</g>
<g id="#aa626eff">
<path fill="#aa626e" opacity="1.00" d=" M 125.03 121.88 C 126.48 124.91 130.26 127.99 133.00 124.46 L 133.76 123.95 C 135.46 130.03 137.35 136.87 135.13 143.03 C 132.08 143.70 130.16 146.73 127.00 147.12 C 128.35 138.67 126.68 130.16 125.03 121.88 Z" />
</g>
<g id="#b57690ff">
<path fill="#b57690" opacity="1.00" d=" M 135.70 122.79 C 136.24 122.56 137.32 122.11 137.86 121.89 C 138.55 124.28 139.17 126.69 139.90 129.08 C 140.29 134.16 140.98 139.20 141.32 144.29 C 142.57 141.83 143.47 139.20 144.81 136.79 C 144.66 138.71 144.34 140.62 144.13 142.54 C 143.22 144.20 142.35 145.89 141.15 147.36 C 140.87 146.74 140.30 145.50 140.02 144.88 C 139.63 143.72 138.97 142.71 138.25 141.74 C 138.42 135.32 137.33 128.97 135.70 122.79 Z" />
</g>
<g id="#b06a7eff">
<path fill="#b06a7e" opacity="1.00" d=" M 133.76 123.95 C 134.24 123.66 135.21 123.08 135.70 122.79 C 137.33 128.97 138.42 135.32 138.25 141.74 C 137.22 142.19 136.18 142.62 135.13 143.03 C 137.35 136.87 135.46 130.03 133.76 123.95 Z" />
</g>
<g id="#d3ae94ff">
<path fill="#d3ae94" opacity="1.00" d=" M 112.39 125.84 C 115.00 129.60 113.49 134.55 114.31 138.79 C 113.97 141.63 113.28 144.43 112.18 147.08 C 109.13 150.14 107.25 154.14 104.20 157.20 C 102.30 159.72 98.51 161.44 99.04 165.12 C 90.12 171.42 78.53 175.69 67.68 173.26 C 74.17 173.72 79.54 169.65 85.32 167.34 C 95.18 162.48 102.04 153.58 107.00 144.04 C 106.28 144.04 104.83 144.04 104.11 144.03 C 107.48 138.29 111.56 132.62 112.39 125.84 Z" />
</g>
<g id="#ad6472ff">
<path fill="#ad6472" opacity="1.00" d=" M 139.90 129.08 C 142.87 127.06 144.19 129.84 145.38 132.23 C 145.18 133.74 145.01 135.27 144.81 136.79 C 143.47 139.20 142.57 141.83 141.32 144.29 C 140.98 139.20 140.29 134.16 139.90 129.08 Z" />
</g>
<g id="#cc93a0ff">
<path fill="#cc93a0" opacity="1.00" d=" M 75.20 140.23 C 76.00 137.83 76.27 135.29 76.74 132.83 C 77.00 133.97 77.28 135.10 77.58 136.24 C 77.92 137.98 78.17 139.76 78.89 141.40 C 78.10 141.84 77.09 142.21 77.65 143.31 C 77.36 147.88 76.34 152.34 75.79 156.87 C 75.57 157.16 75.12 157.72 74.89 158.00 C 72.24 160.96 70.66 165.07 66.97 166.96 C 60.95 171.00 53.58 171.27 46.84 173.32 C 49.23 175.15 52.51 174.51 55.12 175.84 C 53.91 176.30 51.23 175.15 51.06 176.92 L 50.84 177.89 C 49.84 176.07 47.80 175.95 45.94 175.93 L 45.45 175.84 C 44.36 175.50 43.25 175.24 42.12 175.06 L 41.23 174.89 C 40.43 174.30 39.65 173.69 38.90 173.06 C 41.96 171.35 45.70 171.62 49.04 171.04 C 55.36 170.29 61.62 168.29 67.13 165.13 C 69.55 163.45 71.29 161.01 72.35 158.28 C 75.03 153.26 74.91 147.37 74.93 141.83 C 74.99 141.43 75.13 140.63 75.20 140.23 Z" />
</g>
<g id="#f9a6abff">
<path fill="#f9a6ab" opacity="1.00" d=" M 97.89 133.92 C 99.57 133.78 103.09 131.71 101.98 134.99 C 100.12 142.37 94.78 148.39 88.96 153.09 C 84.78 154.90 80.47 157.12 75.79 156.87 C 76.34 152.34 77.36 147.88 77.65 143.31 C 85.25 142.54 92.06 138.69 97.89 133.92 Z" />
</g>
<g id="#fbefe9fd">
<path fill="#fbefe9" opacity="1.00" d=" M 39.27 138.91 C 39.71 138.99 40.59 139.16 41.03 139.25 C 38.42 143.25 38.71 148.06 39.28 152.66 C 41.50 158.99 50.33 156.84 55.13 159.18 C 48.02 165.28 35.15 160.55 29.25 169.12 C 28.99 168.78 28.47 168.09 28.21 167.75 C 28.17 157.12 34.55 148.00 39.27 138.91 Z" />
</g>
<g id="#834f52ff">
<path fill="#834f52" opacity="1.00" d=" M 114.31 138.79 C 114.56 139.41 115.05 140.65 115.30 141.28 C 112.92 162.48 90.10 177.13 69.74 175.31 C 68.06 174.87 66.43 174.25 64.78 173.70 C 65.28 173.51 66.29 173.15 66.79 172.97 L 67.68 173.26 C 78.53 175.69 90.12 171.42 99.04 165.12 C 104.83 160.37 110.33 154.54 112.18 147.08 C 113.28 144.43 113.97 141.63 114.31 138.79 Z" />
</g>
<g id="#e1a8b0ff">
<path fill="#e1a8b0" opacity="1.00" d=" M 71.97 154.95 C 73.62 150.74 74.35 146.29 74.93 141.83 C 74.91 147.37 75.03 153.26 72.35 158.28 C 72.25 157.45 72.06 155.79 71.97 154.95 Z" />
</g>
<g id="#c87e88ff">
<path fill="#c87e88" opacity="1.00" d=" M 135.13 143.03 C 136.18 142.62 137.22 142.19 138.25 141.74 C 138.97 142.71 139.63 143.72 140.02 144.88 L 139.15 144.57 C 136.54 143.12 134.97 147.01 133.35 148.34 C 130.28 152.35 125.99 156.62 127.11 162.17 C 125.99 164.09 125.00 166.07 124.12 168.11 C 120.39 170.81 123.95 165.73 124.16 163.90 C 124.75 155.65 129.74 148.94 135.13 143.03 Z" />
</g>
<g id="#f8b4b9ff">
<path fill="#f8b4b9" opacity="1.00" d=" M 51.85 152.38 C 50.19 149.15 52.92 145.89 53.62 142.75 C 53.93 143.09 54.53 143.78 54.84 144.13 C 53.93 146.91 52.84 149.62 51.85 152.38 Z" />
</g>
<g id="#dc8e97ff">
<path fill="#dc8e97" opacity="1.00" d=" M 141.15 147.36 C 142.35 145.89 143.22 144.20 144.13 142.54 C 145.66 145.67 143.84 149.31 144.96 152.50 C 145.35 153.83 145.98 155.07 146.67 156.27 C 147.09 157.27 147.82 157.97 148.85 158.37 C 148.86 159.37 148.66 160.34 148.23 161.28 C 147.22 164.14 147.03 162.12 146.84 160.14 C 143.84 160.98 139.51 162.20 141.96 167.02 C 141.33 170.48 142.04 175.83 138.18 177.18 C 137.94 176.56 137.48 175.31 137.24 174.69 C 137.26 174.32 137.30 173.57 137.32 173.20 C 140.71 166.84 138.20 159.13 139.11 152.20 C 140.43 152.05 141.75 151.91 143.08 151.78 C 142.60 150.23 141.84 148.81 141.15 147.36 Z" />
</g>
<g id="#e2bfa1ff">
<path fill="#e2bfa1" opacity="1.00" d=" M 104.11 144.03 C 104.83 144.04 106.28 144.04 107.00 144.04 C 102.04 153.58 95.18 162.48 85.32 167.34 C 79.54 169.65 74.17 173.72 67.68 173.26 L 66.79 172.97 C 70.99 169.31 73.96 164.53 75.04 159.06 C 85.87 157.46 97.12 152.81 104.11 144.03 Z" />
</g>
<g id="#dd8c95ff">
<path fill="#dd8c95" opacity="1.00" d=" M 133.35 148.34 C 134.97 147.01 136.54 143.12 139.15 144.57 C 135.51 147.83 132.22 151.57 129.86 155.87 C 128.87 157.94 128.48 160.27 127.11 162.17 C 125.99 156.62 130.28 152.35 133.35 148.34 Z" />
</g>
<g id="#ea989fff">
<path fill="#ea989f" opacity="1.00" d=" M 129.86 155.87 C 132.22 151.57 135.51 147.83 139.15 144.57 L 140.02 144.88 C 140.30 145.50 140.87 146.74 141.15 147.36 C 141.84 148.81 142.60 150.23 143.08 151.78 C 141.75 151.91 140.43 152.05 139.11 152.20 C 138.20 159.13 140.71 166.84 137.32 173.20 C 136.57 172.17 135.79 171.17 135.04 170.15 C 136.54 164.47 136.20 158.56 134.75 152.94 C 132.86 153.43 131.46 154.85 129.86 155.87 Z" />
</g>
<g id="#c9a38dff">
<path fill="#c9a38d" opacity="1.00" d=" M 104.20 157.20 C 107.25 154.14 109.13 150.14 112.18 147.08 C 110.33 154.54 104.83 160.37 99.04 165.12 C 98.51 161.44 102.30 159.72 104.20 157.20 Z" />
</g>
<g id="#f8a2a9ff">
<path fill="#f8a2a9" opacity="1.00" d=" M 129.86 155.87 C 131.46 154.85 132.86 153.43 134.75 152.94 C 136.20 158.56 136.54 164.47 135.04 170.15 C 132.29 167.03 127.83 168.17 124.12 168.11 C 125.00 166.07 125.99 164.09 127.11 162.17 C 128.48 160.27 128.87 157.94 129.86 155.87 Z" />
</g>
<g id="#ebb2baff">
<path fill="#ebb2ba" opacity="1.00" d=" M 67.13 164.15 C 69.00 161.22 70.03 157.85 71.97 154.95 C 72.06 155.79 72.25 157.45 72.35 158.28 C 71.29 161.01 69.55 163.45 67.13 165.13 L 67.13 164.15 Z" />
</g>
<g id="#ba8293ff">
<path fill="#ba8293" opacity="1.00" d=" M 66.97 166.96 C 70.66 165.07 72.24 160.96 74.89 158.00 L 75.04 159.06 C 73.96 164.53 70.99 169.31 66.79 172.97 C 66.29 173.15 65.28 173.51 64.78 173.70 C 62.61 174.96 56.01 173.47 57.72 177.19 C 56.85 176.73 55.99 176.28 55.12 175.84 C 52.51 174.51 49.23 175.15 46.84 173.32 C 53.58 171.27 60.95 171.00 66.97 166.96 Z" />
</g>
<g id="#d08896fd">
<path fill="#d08896" opacity="1.00" d=" M 141.96 167.02 C 139.51 162.20 143.84 160.98 146.84 160.14 C 147.03 162.12 147.22 164.14 148.23 161.28 L 148.80 160.88 C 149.05 163.61 150.09 166.23 150.03 168.99 C 150.00 173.66 150.00 178.33 149.99 183.00 C 149.96 183.51 149.91 184.52 149.88 185.03 L 148.88 184.71 C 148.95 180.71 148.98 176.72 148.97 172.73 C 149.77 169.45 148.04 167.14 145.05 166.02 C 142.24 170.19 143.53 176.76 139.30 179.93 C 139.04 179.43 138.52 178.44 138.26 177.94 L 138.18 177.18 C 142.04 175.83 141.33 170.48 141.96 167.02 Z" />
</g>
<g id="#7b464bfe">
<path fill="#7b464b" opacity="1.00" d=" M 103.15 175.31 C 110.36 172.38 116.06 166.28 123.33 163.85 C 122.45 165.19 121.62 166.56 120.76 167.91 C 119.22 170.15 117.68 172.40 116.35 174.77 C 114.02 177.38 111.74 180.05 110.08 183.14 C 108.51 184.99 106.62 186.64 105.68 188.94 C 105.23 188.69 104.34 188.19 103.90 187.94 C 102.53 185.54 106.34 184.94 107.16 183.02 C 103.66 183.75 100.34 185.14 96.92 186.14 C 96.51 186.19 95.67 186.29 95.26 186.33 C 94.89 186.04 94.16 185.46 93.79 185.17 L 94.78 185.03 C 104.68 183.63 113.97 177.24 118.13 168.04 C 112.21 171.78 106.64 176.17 99.99 178.59 C 95.64 180.67 90.84 181.72 86.05 182.13 C 85.74 181.90 85.13 181.43 84.82 181.20 C 87.93 180.91 90.95 180.11 93.91 179.17 C 97.19 178.43 100.26 177.00 103.15 175.31 Z" />
</g>
<g id="#e3a8b3ff">
<path fill="#e3a8b3" opacity="1.00" d=" M 50.81 169.65 C 56.26 167.85 61.51 165.44 67.13 164.15 L 67.13 165.13 C 61.62 168.29 55.36 170.29 49.04 171.04 C 45.70 171.62 41.96 171.35 38.90 173.06 C 39.65 173.69 40.43 174.30 41.23 174.89 L 41.12 175.94 C 38.71 174.74 34.30 174.88 34.92 171.16 C 40.14 169.98 45.49 169.99 50.81 169.65 Z" />
</g>
<g id="#b97a7aff">
<path fill="#b97a7a" opacity="1.00" d=" M 123.33 163.85 L 124.16 163.90 C 123.95 165.73 120.39 170.81 124.12 168.11 C 127.83 168.17 132.29 167.03 135.04 170.15 C 135.79 171.17 136.57 172.17 137.32 173.20 C 137.30 173.57 137.26 174.32 137.24 174.69 L 136.42 175.15 C 134.31 169.22 126.92 167.04 121.98 171.03 C 121.55 169.99 121.15 168.95 120.76 167.91 C 121.62 166.56 122.45 165.19 123.33 163.85 Z" />
</g>
<g id="#c98089ff">
<path fill="#c98089" opacity="1.00" d=" M 145.05 166.02 C 148.04 167.14 149.77 169.45 148.97 172.73 C 144.06 175.22 143.98 181.84 140.76 185.77 C 137.43 189.10 134.38 192.96 129.95 194.90 C 128.23 195.47 126.86 196.56 126.16 198.21 L 125.73 198.94 C 124.48 199.05 122.06 198.60 123.88 200.32 L 124.01 201.00 C 121.36 200.55 119.20 201.67 117.72 203.83 C 117.36 203.72 116.65 203.49 116.29 203.37 C 116.91 202.61 117.51 201.85 118.10 201.08 C 120.50 196.44 126.64 195.83 129.73 192.16 L 128.92 191.80 C 134.34 189.43 139.42 184.51 138.26 177.94 C 138.52 178.44 139.04 179.43 139.30 179.93 C 143.53 176.76 142.24 170.19 145.05 166.02 Z" />
</g>
<g id="#a5766aff">
<path fill="#a5766a" opacity="1.00" d=" M 99.99 178.59 C 106.64 176.17 112.21 171.78 118.13 168.04 C 113.97 177.24 104.68 183.63 94.78 185.03 C 96.24 182.94 102.05 181.32 99.99 178.59 Z" />
</g>
<g id="#a6696cff">
<path fill="#a6696c" opacity="1.00" d=" M 116.35 174.77 C 117.68 172.40 119.22 170.15 120.76 167.91 C 121.15 168.95 121.55 169.99 121.98 171.03 C 120.17 173.79 118.44 176.66 117.84 179.95 L 117.03 179.82 L 116.88 178.85 C 116.79 177.47 116.63 176.11 116.35 174.77 Z" />
</g>
<g id="#f5cda9ff">
<path fill="#f5cda9" opacity="1.00" d=" M 121.98 171.03 C 126.92 167.04 134.31 169.22 136.42 175.15 C 136.01 176.36 135.87 177.85 134.40 178.22 C 133.75 176.68 132.91 175.24 131.97 173.88 C 126.48 167.61 117.22 177.14 121.71 183.21 C 123.25 185.01 125.03 186.69 127.29 187.54 C 126.74 189.00 125.12 189.07 123.83 189.48 L 122.95 189.29 C 120.81 186.42 119.09 183.31 117.84 179.95 C 118.44 176.66 120.17 173.79 121.98 171.03 Z" />
</g>
<g id="#37283183">
<path fill="#372831" opacity="0.51" d=" M 150.03 168.99 L 150.99 169.01 C 150.99 173.66 151.16 178.32 150.95 182.98 L 149.99 183.00 C 150.00 178.33 150.00 173.66 150.03 168.99 Z" />
</g>
<g id="#f8b5b6ff">
<path fill="#f8b5b6" opacity="1.00" d=" M 34.05 179.04 C 34.72 176.50 31.42 172.12 34.92 171.16 C 34.30 174.88 38.71 174.74 41.12 175.94 C 42.00 179.91 37.53 180.12 34.83 179.25 L 34.05 179.04 Z" />
</g>
<g id="#c3817dff">
<path fill="#c3817d" opacity="1.00" d=" M 121.71 183.21 C 117.22 177.14 126.48 167.61 131.97 173.88 C 131.74 174.10 131.29 174.53 131.06 174.75 C 125.81 171.59 120.79 176.91 122.70 181.92 C 122.45 182.24 121.96 182.88 121.71 183.21 Z" />
</g>
<g id="#c27783ff">
<path fill="#c27783" opacity="1.00" d=" M 140.76 185.77 C 143.98 181.84 144.06 175.22 148.97 172.73 C 148.98 176.72 148.95 180.71 148.88 184.71 C 148.58 185.32 147.97 186.54 147.66 187.15 C 147.33 185.76 147.06 184.36 146.74 182.97 C 144.16 183.28 143.92 186.83 142.02 188.02 C 138.50 193.47 132.15 196.31 126.16 198.21 C 126.86 196.56 128.23 195.47 129.95 194.90 C 134.38 192.96 137.43 189.10 140.76 185.77 Z" />
</g>
<g id="#e79a9dff">
<path fill="#e79a9d" opacity="1.00" d=" M 57.72 177.19 C 56.01 173.47 62.61 174.96 64.78 173.70 C 66.43 174.25 68.06 174.87 69.74 175.31 C 70.82 175.63 71.90 175.89 73.00 176.10 C 72.17 177.75 72.05 180.13 69.81 180.45 C 66.45 179.71 63.23 178.26 59.74 178.22 C 59.23 177.96 58.22 177.45 57.72 177.19 Z" />
</g>
<g id="#faa6abff">
<path fill="#faa6ab" opacity="1.00" d=" M 122.70 181.92 C 120.79 176.91 125.81 171.59 131.06 174.75 C 131.84 178.19 133.42 182.69 129.72 184.83 C 126.01 187.08 124.50 183.90 122.70 181.92 Z" />
</g>
<g id="#ae7373ff">
<path fill="#ae7373" opacity="1.00" d=" M 131.06 174.75 C 131.29 174.53 131.74 174.10 131.97 173.88 C 132.91 175.24 133.75 176.68 134.40 178.22 C 134.35 182.56 131.57 186.47 127.29 187.54 C 125.03 186.69 123.25 185.01 121.71 183.21 C 121.96 182.88 122.45 182.24 122.70 181.92 C 124.50 183.90 126.01 187.08 129.72 184.83 C 133.42 182.69 131.84 178.19 131.06 174.75 Z" />
</g>
<g id="#be817cff">
<path fill="#be817c" opacity="1.00" d=" M 41.23 174.89 L 42.12 175.06 C 41.81 177.02 42.61 179.55 40.77 180.91 C 38.28 181.59 36.30 181.03 34.83 179.25 C 37.53 180.12 42.00 179.91 41.12 175.94 L 41.23 174.89 Z" />
</g>
<g id="#edc6adfa">
<path fill="#edc6ad" opacity="0.98" d=" M 42.12 175.06 C 43.25 175.24 44.36 175.50 45.45 175.84 C 45.03 177.62 44.67 179.42 44.05 181.15 C 41.64 182.86 38.69 182.95 35.83 183.30 C 37.21 184.11 38.66 184.79 40.14 185.42 C 39.20 186.66 38.30 187.94 37.35 189.18 C 35.39 186.06 33.76 182.44 33.15 178.84 L 34.05 179.04 L 34.83 179.25 C 36.30 181.03 38.28 181.59 40.77 180.91 C 42.61 179.55 41.81 177.02 42.12 175.06 Z" />
</g>
<g id="#c07681ff">
<path fill="#c07681" opacity="1.00" d=" M 116.35 174.77 C 116.63 176.11 116.79 177.47 116.88 178.85 C 114.58 180.23 112.37 181.74 110.08 183.14 C 111.74 180.05 114.02 177.38 116.35 174.77 Z" />
</g>
<g id="#ddb69aff">
<path fill="#ddb69a" opacity="1.00" d=" M 136.42 175.15 L 137.24 174.69 C 138.55 182.15 132.71 193.24 123.83 189.48 C 125.12 189.07 126.74 189.00 127.29 187.54 C 131.57 186.47 134.35 182.56 134.40 178.22 C 135.87 177.85 136.01 176.36 136.42 175.15 Z" />
</g>
<g id="#a56c6cff">
<path fill="#a56c6c" opacity="1.00" d=" M 137.24 174.69 C 137.48 175.31 137.94 176.56 138.18 177.18 L 138.26 177.94 C 139.42 184.51 134.34 189.43 128.92 191.80 C 127.64 191.73 126.38 191.62 125.11 191.47 C 123.97 190.83 122.92 190.07 121.92 189.24 L 122.95 189.29 L 123.83 189.48 C 132.71 193.24 138.55 182.15 137.24 174.69 Z" />
</g>
<g id="#aa6f6eff">
<path fill="#aa6f6e" opacity="1.00" d=" M 45.45 175.84 L 45.94 175.93 C 46.03 176.65 46.19 178.10 46.28 178.82 C 46.05 179.98 45.58 181.03 44.87 181.96 C 44.66 181.76 44.25 181.35 44.05 181.15 C 44.67 179.42 45.03 177.62 45.45 175.84 Z" />
</g>
<g id="#d58890ff">
<path fill="#d58890" opacity="1.00" d=" M 45.94 175.93 C 47.80 175.95 49.84 176.07 50.84 177.89 C 51.10 178.18 51.62 178.77 51.87 179.06 C 54.00 183.72 51.92 188.88 47.82 191.75 C 45.78 191.50 43.71 190.87 41.69 191.61 L 40.80 191.78 C 40.27 190.72 40.41 189.89 41.72 189.68 C 45.64 188.07 49.02 183.94 47.93 179.40 C 47.52 179.26 46.69 178.97 46.28 178.82 C 46.19 178.10 46.03 176.65 45.94 175.93 Z" />
</g>
<g id="#e1bb9dff">
<path fill="#e1bb9d" opacity="1.00" d=" M 51.06 176.92 C 51.23 175.15 53.91 176.30 55.12 175.84 C 55.99 176.28 56.85 176.73 57.72 177.19 C 58.22 177.45 59.23 177.96 59.74 178.22 C 63.24 180.15 67.08 181.51 71.05 182.02 C 73.44 182.39 75.81 182.93 78.21 183.20 C 77.81 183.58 76.99 184.34 76.59 184.72 C 71.50 184.80 66.73 182.82 61.73 182.20 C 58.09 180.61 54.65 178.61 51.06 176.92 Z" />
</g>
<g id="#d3878fff">
<path fill="#d3878f" opacity="1.00" d=" M 73.00 176.10 C 75.67 176.06 81.02 175.98 83.69 175.94 C 83.41 177.62 83.11 179.29 82.89 180.98 C 78.94 181.00 74.99 181.02 71.03 181.06 C 70.73 180.91 70.12 180.60 69.81 180.45 C 72.05 180.13 72.17 177.75 73.00 176.10 Z" />
</g>
<g id="#a0606efb">
<path fill="#a0606e" opacity="1.00" d=" M 51.06 176.92 C 54.65 178.61 58.09 180.61 61.73 182.20 C 63.01 183.35 64.56 184.07 66.16 184.67 C 60.93 184.90 65.63 193.21 64.04 196.12 C 67.17 195.71 69.07 192.78 72.01 191.91 C 72.03 197.98 64.34 197.83 59.75 198.02 C 59.64 192.61 64.06 184.64 57.11 181.95 C 55.41 180.91 53.67 179.94 51.87 179.06 C 51.62 178.77 51.10 178.18 50.84 177.89 L 51.06 176.92 Z" />
</g>
<g id="#bd807aff">
<path fill="#bd807a" opacity="1.00" d=" M 59.74 178.22 C 63.23 178.26 66.45 179.71 69.81 180.45 C 70.12 180.60 70.73 180.91 71.03 181.06 L 71.05 182.02 C 67.08 181.51 63.24 180.15 59.74 178.22 Z" />
</g>
<g id="#e5989dfd">
<path fill="#e5989d" opacity="1.00" d=" M 46.28 178.82 C 46.69 178.97 47.52 179.26 47.93 179.40 C 49.02 183.94 45.64 188.07 41.72 189.68 C 40.41 189.89 40.27 190.72 40.80 191.78 C 40.43 191.85 39.70 192.01 39.33 192.08 C 38.82 191.09 36.87 190.42 37.35 189.18 C 38.30 187.94 39.20 186.66 40.14 185.42 C 41.79 184.41 43.65 183.51 44.87 181.96 C 45.58 181.03 46.05 179.98 46.28 178.82 Z" />
</g>
<g id="#bc747fff">
<path fill="#bc747f" opacity="1.00" d=" M 51.87 179.06 C 53.67 179.94 55.41 180.91 57.11 181.95 C 56.60 186.17 56.77 193.81 51.21 194.97 C 50.65 194.78 49.53 194.39 48.97 194.20 L 48.09 193.95 C 45.88 193.38 43.81 192.42 41.69 191.61 C 43.71 190.87 45.78 191.50 47.82 191.75 C 51.92 188.88 54.00 183.72 51.87 179.06 Z" />
</g>
<g id="#b28576ff">
<path fill="#b28576" opacity="1.00" d=" M 86.05 182.13 C 90.84 181.72 95.64 180.67 99.99 178.59 C 102.05 181.32 96.24 182.94 94.78 185.03 L 93.79 185.17 C 91.59 185.38 89.41 185.88 87.19 185.93 C 86.93 184.88 86.62 183.84 86.28 182.82 L 86.05 182.13 Z" />
</g>
<g id="#f29ea2fd">
<path fill="#f29ea2" opacity="1.00" d=" M 110.08 183.14 C 112.37 181.74 114.58 180.23 116.88 178.85 L 117.03 179.82 C 117.47 183.28 118.99 186.50 121.21 189.17 C 119.06 191.12 116.48 192.51 114.20 194.28 C 114.13 195.96 114.00 199.31 113.93 200.98 C 113.49 200.95 112.62 200.90 112.18 200.87 C 109.67 197.11 107.22 193.20 105.68 188.94 C 106.62 186.64 108.51 184.99 110.08 183.14 Z" />
</g>
<g id="#c38480ff">
<path fill="#c38480" opacity="1.00" d=" M 117.03 179.82 L 117.84 179.95 C 119.09 183.31 120.81 186.42 122.95 189.29 L 121.92 189.24 L 121.21 189.17 C 118.99 186.50 117.47 183.28 117.03 179.82 Z" />
</g>
<g id="#cb8c87ff">
<path fill="#cb8c87" opacity="1.00" d=" M 35.83 183.30 C 38.69 182.95 41.64 182.86 44.05 181.15 C 44.25 181.35 44.66 181.76 44.87 181.96 C 43.65 183.51 41.79 184.41 40.14 185.42 C 38.66 184.79 37.21 184.11 35.83 183.30 Z" />
</g>
<g id="#a46e6cff">
<path fill="#a46e6c" opacity="1.00" d=" M 71.03 181.06 C 74.99 181.02 78.94 181.00 82.89 180.98 C 83.38 181.03 84.34 181.14 84.82 181.20 C 85.13 181.43 85.74 181.90 86.05 182.13 L 86.28 182.82 C 83.58 182.91 80.90 183.04 78.21 183.20 C 75.81 182.93 73.44 182.39 71.05 182.02 L 71.03 181.06 Z" />
</g>
<g id="#b06873ff">
<path fill="#b06873" opacity="1.00" d=" M 57.11 181.95 C 64.06 184.64 59.64 192.61 59.75 198.02 C 59.06 198.03 57.69 198.06 57.00 198.07 C 54.36 198.17 51.37 198.33 51.21 194.97 C 56.77 193.81 56.60 186.17 57.11 181.95 Z" />
</g>
<g id="#c2938dff">
<path fill="#c2938d" opacity="1.00" d=" M 61.73 182.20 C 66.73 182.82 71.50 184.80 76.59 184.72 C 76.99 184.34 77.81 183.58 78.21 183.20 C 80.90 183.04 83.58 182.91 86.28 182.82 C 86.62 183.84 86.93 184.88 87.19 185.93 C 85.36 186.03 83.53 186.11 81.71 186.24 C 80.67 186.26 79.65 186.41 78.65 186.68 C 77.49 187.00 76.32 187.09 75.13 186.93 C 72.20 185.98 69.20 185.23 66.16 184.67 C 64.56 184.07 63.01 183.35 61.73 182.20 Z" />
</g>
<g id="#9c5d6dff">
<path fill="#9c5d6d" opacity="1.00" d=" M 96.92 186.14 C 100.34 185.14 103.66 183.75 107.16 183.02 C 106.34 184.94 102.53 185.54 103.90 187.94 C 103.17 187.96 101.72 187.99 101.00 188.01 C 100.27 187.99 98.83 187.94 98.11 187.92 C 97.81 187.48 97.22 186.59 96.92 186.14 Z" />
</g>
<g id="#ba6f7dff">
<path fill="#ba6f7d" opacity="1.00" d=" M 142.02 188.02 C 143.92 186.83 144.16 183.28 146.74 182.97 C 147.06 184.36 147.33 185.76 147.66 187.15 C 146.95 189.98 145.90 192.74 144.24 195.15 C 144.16 194.36 144.01 192.79 143.93 192.00 C 138.20 195.27 132.96 200.46 125.73 198.94 L 126.16 198.21 C 132.15 196.31 138.50 193.47 142.02 188.02 Z" />
</g>
<g id="#9a5464fd">
<path fill="#9a5464" opacity="1.00" d=" M 64.04 196.12 C 65.63 193.21 60.93 184.90 66.16 184.67 C 69.20 185.23 72.20 185.98 75.13 186.93 C 74.74 188.83 74.09 191.26 72.01 191.91 C 69.07 192.78 67.17 195.71 64.04 196.12 Z" />
</g>
<g id="#99616dff">
<path fill="#99616d" opacity="1.00" d=" M 87.19 185.93 C 89.41 185.88 91.59 185.38 93.79 185.17 C 94.16 185.46 94.89 186.04 95.26 186.33 C 90.81 186.71 86.02 187.97 81.71 186.24 C 83.53 186.11 85.36 186.03 87.19 185.93 Z" />
</g>
<g id="#b07796f3">
<path fill="#b07796" opacity="0.95" d=" M 147.66 187.15 C 147.97 186.54 148.58 185.32 148.88 184.71 L 149.88 185.03 C 149.03 192.20 145.09 199.42 138.92 203.17 C 138.69 202.94 138.22 202.49 137.99 202.26 C 140.38 200.17 142.57 197.86 144.24 195.15 C 145.90 192.74 146.95 189.98 147.66 187.15 Z" />
</g>
<g id="#a26d82ed">
<path fill="#a26d82" opacity="0.93" d=" M 78.65 186.68 C 79.65 186.41 80.67 186.26 81.71 186.24 C 86.02 187.97 90.81 186.71 95.26 186.33 C 95.67 186.29 96.51 186.19 96.92 186.14 C 97.22 186.59 97.81 187.48 98.11 187.92 C 96.51 188.13 93.33 188.54 91.74 188.74 C 88.30 187.87 80.73 190.35 78.65 186.68 Z" />
</g>
<g id="#44373ba3">
<path fill="#44373b" opacity="0.64" d=" M 91.74 188.74 C 93.33 188.54 96.51 188.13 98.11 187.92 C 98.83 187.94 100.27 187.99 101.00 188.01 C 100.86 191.26 94.20 188.24 91.74 188.74 Z" />
</g>
<g id="#e6969cff">
<path fill="#e6969c" opacity="1.00" d=" M 121.21 189.17 L 121.92 189.24 C 122.92 190.07 123.97 190.83 125.11 191.47 C 123.51 194.62 118.77 193.85 116.72 196.72 C 114.84 198.13 117.48 199.71 118.10 201.08 C 117.51 201.85 116.91 202.61 116.29 203.37 C 115.02 202.93 114.24 202.14 113.93 200.98 C 114.00 199.31 114.13 195.96 114.20 194.28 C 116.48 192.51 119.06 191.12 121.21 189.17 Z" />
</g>
<g id="#d68a92ff">
<path fill="#d68a92" opacity="1.00" d=" M 125.11 191.47 C 126.38 191.62 127.64 191.73 128.92 191.80 L 129.73 192.16 C 126.64 195.83 120.50 196.44 118.10 201.08 C 117.48 199.71 114.84 198.13 116.72 196.72 C 118.77 193.85 123.51 194.62 125.11 191.47 Z" />
</g>
<g id="#f5dcd9fd">
<path fill="#f5dcd9" opacity="1.00" d=" M 39.33 192.08 C 39.70 192.01 40.43 191.85 40.80 191.78 L 41.69 191.61 C 43.81 192.42 45.88 193.38 48.09 193.95 C 48.05 195.28 47.98 196.60 47.87 197.93 C 44.91 197.98 41.96 198.03 39.00 198.03 C 35.23 198.78 37.03 193.09 39.33 192.08 Z" />
</g>
<g id="#ae6775ff">
<path fill="#ae6775" opacity="1.00" d=" M 125.73 198.94 C 132.96 200.46 138.20 195.27 143.93 192.00 C 144.01 192.79 144.16 194.36 144.24 195.15 C 142.57 197.86 140.38 200.17 137.99 202.26 C 137.01 201.73 136.21 199.80 134.95 200.76 L 134.20 201.06 C 133.43 201.00 131.88 200.87 131.10 200.80 C 128.60 199.25 126.19 199.09 123.88 200.32 C 122.06 198.60 124.48 199.05 125.73 198.94 Z" />
</g>
<g id="#b09499f1">
<path fill="#b09499" opacity="0.95" d=" M 48.09 193.95 L 48.97 194.20 C 49.84 195.67 51.08 197.24 50.18 199.00 C 47.39 199.00 41.80 199.00 39.01 199.00 L 39.00 198.03 C 41.96 198.03 44.91 197.98 47.87 197.93 C 47.98 196.60 48.05 195.28 48.09 193.95 Z" />
</g>
<g id="#70434ada">
<path fill="#70434a" opacity="0.85" d=" M 48.97 194.20 C 49.53 194.39 50.65 194.78 51.21 194.97 C 51.37 198.33 54.36 198.17 57.00 198.07 L 56.99 199.03 C 55.29 199.02 51.88 199.01 50.18 199.00 C 51.08 197.24 49.84 195.67 48.97 194.20 Z" />
</g>
<g id="#d4b3b7ff">
<path fill="#d4b3b7" opacity="1.00" d=" M 123.88 200.32 C 126.19 199.09 128.60 199.25 131.10 200.80 C 129.33 200.85 125.79 200.95 124.01 201.00 L 123.88 200.32 Z" />
</g>
<g id="#7e545fee">
<path fill="#7e545f" opacity="0.93" d=" M 134.95 200.76 C 136.21 199.80 137.01 201.73 137.99 202.26 C 138.22 202.49 138.69 202.94 138.92 203.17 C 138.92 204.73 136.22 204.44 135.07 205.01 C 135.97 203.61 135.77 202.14 134.95 200.76 Z" />
</g>
<g id="#f2d4d3fe">
<path fill="#f2d4d3" opacity="1.00" d=" M 117.72 203.83 C 119.20 201.67 121.36 200.55 124.01 201.00 C 125.79 200.95 129.33 200.85 131.10 200.80 C 131.88 200.87 133.43 201.00 134.20 201.06 C 132.06 206.35 125.61 204.73 121.00 205.04 C 119.25 205.44 118.16 205.03 117.72 203.83 Z" />
</g>
<g id="#a88b91eb">
<path fill="#a88b91" opacity="0.92" d=" M 134.20 201.06 L 134.95 200.76 C 135.77 202.14 135.97 203.61 135.07 205.01 C 130.52 206.31 125.70 206.05 121.02 205.99 L 121.00 205.04 C 125.61 204.73 132.06 206.35 134.20 201.06 Z" />
</g>
</svg>
