<?xml version="1.0" encoding="UTF-8" ?>
<!DOCTYPE svg PUBLIC "-//W3C//DTD SVG 1.1//EN" "http://www.w3.org/Graphics/SVG/1.1/DTD/svg11.dtd">
<svg width="163pt" height="132pt" viewBox="0 0 163 132" version="1.1" xmlns="http://www.w3.org/2000/svg">
<g id="#45394e96">
<path fill="#45394e" opacity="0.59" d=" M 56.74 5.79 C 59.38 5.03 62.36 4.38 64.74 6.19 C 63.44 5.90 62.12 5.68 60.80 5.55 C 59.78 5.61 57.75 5.73 56.74 5.79 Z" />
</g>
<g id="#ac91beea">
<path fill="#ac91be" opacity="0.92" d=" M 53.04 7.42 C 54.24 6.81 55.47 6.26 56.74 5.79 C 57.75 5.73 59.78 5.61 60.80 5.55 C 59.35 8.58 55.74 8.66 53.04 7.42 Z" />
</g>
<g id="#9a7fc5ff">
<path fill="#9a7fc5" opacity="1.00" d=" M 60.80 5.55 C 62.12 5.68 63.44 5.90 64.74 6.19 L 65.55 6.48 C 61.64 8.46 58.40 12.50 53.56 11.64 C 52.88 12.61 52.19 13.58 51.51 14.54 L 51.26 13.45 C 51.31 13.22 51.41 12.75 51.46 12.51 C 51.82 10.77 52.38 9.08 53.04 7.42 C 55.74 8.66 59.35 8.58 60.80 5.55 Z" />
</g>
<g id="#7868a8ff">
<path fill="#7868a8" opacity="1.00" d=" M 53.56 11.64 C 58.40 12.50 61.64 8.46 65.55 6.48 L 66.11 6.15 L 66.30 8.62 C 64.69 11.30 62.15 13.20 59.79 15.18 C 62.33 17.44 65.77 19.16 69.01 17.10 C 71.50 16.37 70.49 13.67 70.43 11.81 C 70.87 11.93 71.76 12.17 72.21 12.29 C 73.04 14.51 73.31 17.45 70.95 18.86 C 66.21 22.92 59.68 21.18 54.33 19.60 C 52.03 19.15 52.26 16.27 51.51 14.54 C 52.19 13.58 52.88 12.61 53.56 11.64 Z" />
</g>
<g id="#54477fff">
<path fill="#54477f" opacity="1.00" d=" M 66.30 8.62 L 66.46 8.37 C 67.13 9.70 68.68 9.64 69.89 10.04 C 69.16 10.07 67.69 10.13 66.96 10.16 C 68.10 10.75 69.25 11.30 70.43 11.81 C 70.49 13.67 71.50 16.37 69.01 17.10 C 65.77 19.16 62.33 17.44 59.79 15.18 C 62.15 13.20 64.69 11.30 66.30 8.62 Z" />
</g>
<g id="#ac8fc4fc">
<path fill="#ac8fc4" opacity="1.00" d=" M 66.96 10.16 C 67.69 10.13 69.16 10.07 69.89 10.04 C 75.02 10.78 80.11 12.00 85.14 13.30 C 85.35 13.74 85.76 14.62 85.96 15.06 C 81.40 14.01 76.82 13.09 72.21 12.29 C 71.76 12.17 70.87 11.93 70.43 11.81 C 69.25 11.30 68.10 10.75 66.96 10.16 Z" />
</g>
<g id="#8c78baff">
<path fill="#8c78ba" opacity="1.00" d=" M 92.30 10.83 C 94.49 10.97 96.68 11.32 98.62 12.43 C 96.16 13.07 93.73 13.84 91.30 14.57 C 92.42 15.23 93.53 15.91 94.67 16.55 C 94.07 18.40 95.54 19.30 96.90 20.08 C 94.83 20.33 92.79 20.71 90.78 21.19 C 90.51 22.18 90.27 23.20 89.91 24.16 C 87.98 24.70 85.94 24.61 83.99 25.04 C 82.18 25.69 81.01 27.34 79.74 28.69 C 79.86 30.01 80.94 31.57 79.86 32.73 C 78.14 35.28 75.11 36.27 72.36 37.29 C 74.40 38.29 77.14 38.87 77.74 41.41 C 72.31 37.63 64.67 37.88 59.73 42.37 C 59.61 40.20 59.71 37.92 61.10 36.13 C 61.85 34.49 64.01 32.52 62.32 30.76 C 60.28 29.06 57.71 28.19 55.34 27.06 C 55.77 26.37 56.21 25.68 56.65 24.98 C 54.59 22.38 51.51 21.06 48.47 20.00 C 49.10 18.66 49.73 17.33 50.31 15.98 C 50.55 15.34 51.03 14.08 51.26 13.45 L 51.51 14.54 C 52.26 16.27 52.03 19.15 54.33 19.60 C 59.68 21.18 66.21 22.92 70.95 18.86 C 73.31 17.45 73.04 14.51 72.21 12.29 C 76.82 13.09 81.40 14.01 85.96 15.06 C 85.76 14.62 85.35 13.74 85.14 13.30 C 86.42 13.75 87.71 14.19 88.99 14.64 C 90.11 13.39 91.23 12.12 92.30 10.83 Z" />
</g>
<g id="#ad8ebced">
<path fill="#ad8ebc" opacity="0.93" d=" M 33.59 18.26 C 39.41 15.96 45.35 13.89 51.46 12.51 C 51.41 12.75 51.31 13.22 51.26 13.45 C 51.03 14.08 50.55 15.34 50.31 15.98 C 46.49 15.05 42.51 16.14 39.64 18.81 C 37.90 20.83 35.52 18.93 33.59 18.26 Z" />
</g>
<g id="#726196ff">
<path fill="#726196" opacity="1.00" d=" M 98.62 12.43 C 100.50 13.16 103.03 14.60 102.93 16.91 C 102.72 17.27 102.29 17.98 102.08 18.34 C 99.55 18.02 97.01 17.60 94.67 16.55 C 93.53 15.91 92.42 15.23 91.30 14.57 C 93.73 13.84 96.16 13.07 98.62 12.43 Z" />
</g>
<g id="#806eb3ff">
<path fill="#806eb3" opacity="1.00" d=" M 102.93 16.91 C 104.87 16.29 106.89 13.70 108.98 15.24 C 110.37 16.04 111.51 17.19 112.71 18.23 C 110.70 20.58 107.85 21.78 104.86 22.37 C 104.32 23.61 103.78 24.85 103.25 26.09 C 101.14 24.13 98.85 22.37 96.42 20.83 C 95.24 25.66 94.31 30.62 94.51 35.62 C 94.47 38.51 91.67 39.81 89.41 40.78 C 87.56 45.55 85.53 50.27 84.47 55.30 C 83.19 55.97 81.88 56.59 80.71 57.44 C 77.49 60.91 72.61 60.24 68.39 59.82 C 66.92 59.01 65.49 58.13 64.06 57.26 C 65.24 57.03 66.42 56.81 67.60 56.58 C 68.43 55.07 69.27 53.56 70.10 52.05 C 73.35 51.99 76.63 52.24 79.85 51.65 C 81.93 48.21 79.50 44.41 77.74 41.41 C 77.14 38.87 74.40 38.29 72.36 37.29 C 75.11 36.27 78.14 35.28 79.86 32.73 C 80.94 31.57 79.86 30.01 79.74 28.69 C 81.01 27.34 82.18 25.69 83.99 25.04 C 85.94 24.61 87.98 24.70 89.91 24.16 C 90.27 23.20 90.51 22.18 90.78 21.19 C 92.79 20.71 94.83 20.33 96.90 20.08 C 99.08 19.88 101.19 19.23 103.25 18.51 L 102.08 18.34 C 102.29 17.98 102.72 17.27 102.93 16.91 Z" />
<path fill="#806eb3" opacity="1.00" d=" M 37.05 89.99 C 39.53 90.57 40.98 92.63 42.73 94.27 C 45.11 95.31 47.63 95.97 50.00 97.04 C 50.87 96.59 51.73 96.14 52.60 95.70 C 55.00 96.76 58.38 95.43 57.70 92.42 C 59.03 91.99 60.35 91.56 61.68 91.13 C 61.25 92.28 60.82 93.42 60.39 94.57 C 57.05 95.97 53.75 97.51 50.87 99.73 C 46.60 97.42 42.06 95.51 38.02 92.82 C 37.77 92.11 37.29 90.69 37.05 89.99 Z" />
</g>
<g id="#9e85c7ff">
<path fill="#9e85c7" opacity="1.00" d=" M 39.64 18.81 C 42.51 16.14 46.49 15.05 50.31 15.98 C 49.73 17.33 49.10 18.66 48.47 20.00 C 46.36 20.10 43.65 20.21 42.71 22.50 C 43.17 25.00 44.00 27.43 44.53 29.92 C 46.96 30.90 49.53 30.87 51.83 29.57 C 51.75 32.71 52.28 36.19 50.10 38.80 C 48.80 38.17 47.49 37.55 46.18 36.94 C 44.51 38.56 42.57 39.88 40.29 40.46 C 38.58 38.87 36.39 37.62 33.96 37.97 C 30.22 37.99 27.51 40.97 25.12 43.48 C 23.28 40.74 22.84 37.47 22.67 34.26 C 21.99 34.16 20.61 33.94 19.92 33.83 C 19.88 33.39 19.80 32.51 19.77 32.07 C 19.63 30.69 19.40 29.31 19.17 27.94 C 19.83 28.97 20.51 30.00 21.19 31.02 C 25.01 27.61 29.80 24.91 31.83 19.95 C 31.26 19.28 30.68 18.61 30.12 17.94 C 30.53 17.88 31.37 17.77 31.78 17.72 C 32.24 17.85 33.14 18.12 33.59 18.26 C 35.52 18.93 37.90 20.83 39.64 18.81 Z" />
</g>
<g id="#a48accff">
<path fill="#a48acc" opacity="1.00" d=" M 17.17 23.42 C 19.77 20.60 22.06 16.39 26.23 16.01 C 25.00 20.47 20.65 22.24 17.42 24.98 C 17.36 24.59 17.24 23.81 17.17 23.42 Z" />
<path fill="#a48acc" opacity="1.00" d=" M 19.92 33.83 C 20.61 33.94 21.99 34.16 22.67 34.26 C 22.84 37.47 23.28 40.74 25.12 43.48 C 24.45 45.62 23.39 47.83 23.81 50.13 C 25.27 50.58 26.79 50.75 28.29 50.93 C 26.10 51.72 23.78 52.43 21.95 53.93 C 20.34 57.31 19.48 61.09 17.11 64.10 C 15.60 66.55 12.60 69.10 14.21 72.23 L 15.25 72.87 C 12.30 74.95 9.82 77.62 9.15 81.31 C 8.84 80.29 8.51 79.28 8.29 78.24 C 9.03 76.86 10.07 75.64 10.71 74.21 C 10.41 72.71 9.04 71.73 8.20 70.53 C 6.78 72.64 5.66 74.93 4.78 77.31 C 4.86 75.64 4.91 73.97 4.96 72.29 C 6.82 70.70 8.47 68.88 9.99 66.97 L 10.25 68.53 C 12.99 63.43 13.27 57.50 14.95 52.03 C 15.97 45.78 19.41 40.19 19.92 33.83 Z" />
</g>
<g id="#7968aaff">
<path fill="#7968aa" opacity="1.00" d=" M 26.23 16.01 C 27.90 17.10 29.84 17.52 31.79 17.71 L 31.78 17.72 C 31.37 17.77 30.53 17.88 30.12 17.94 C 30.68 18.61 31.26 19.28 31.83 19.95 C 29.80 24.91 25.01 27.61 21.19 31.02 C 20.51 30.00 19.83 28.97 19.17 27.94 C 18.56 26.97 17.98 25.99 17.42 24.98 C 20.65 22.24 25.00 20.47 26.23 16.01 Z" />
</g>
<g id="#9f83b9ff">
<path fill="#9f83b9" opacity="1.00" d=" M 94.67 16.55 C 97.01 17.60 99.55 18.02 102.08 18.34 L 103.25 18.51 C 101.19 19.23 99.08 19.88 96.90 20.08 C 95.54 19.30 94.07 18.40 94.67 16.55 Z" />
</g>
<g id="#7363a5ff">
<path fill="#7363a5" opacity="1.00" d=" M 112.71 18.23 L 112.82 18.13 C 113.25 18.54 114.11 19.37 114.55 19.78 C 110.34 21.79 106.58 24.58 103.26 27.83 C 104.64 30.13 105.93 32.48 107.09 34.89 C 106.24 35.35 105.36 35.76 104.57 36.32 C 104.19 38.37 104.47 40.58 103.46 42.48 C 98.79 50.04 95.84 58.93 88.50 64.51 C 83.96 67.29 81.21 71.92 78.03 76.03 C 76.35 78.25 76.78 81.72 74.17 83.27 C 70.95 85.45 67.09 86.32 63.45 87.56 C 63.04 86.68 62.63 85.81 62.20 84.94 C 60.25 80.89 56.10 78.50 51.93 77.31 L 53.06 77.15 C 52.66 76.72 51.85 75.87 51.45 75.44 C 53.09 74.33 54.72 73.20 56.32 72.04 C 55.68 71.86 54.40 71.50 53.76 71.32 C 60.40 70.82 66.43 68.03 72.55 65.67 C 72.68 65.54 72.93 65.26 73.05 65.13 C 73.29 64.86 73.77 64.33 74.01 64.06 C 76.39 62.06 80.47 61.10 80.71 57.44 C 81.88 56.59 83.19 55.97 84.47 55.30 C 85.53 50.27 87.56 45.55 89.41 40.78 C 91.67 39.81 94.47 38.51 94.51 35.62 C 94.31 30.62 95.24 25.66 96.42 20.83 C 98.85 22.37 101.14 24.13 103.25 26.09 C 103.78 24.85 104.32 23.61 104.86 22.37 C 107.85 21.78 110.70 20.58 112.71 18.23 Z" />
</g>
<g id="#927ec3ff">
<path fill="#927ec3" opacity="1.00" d=" M 42.71 22.50 C 43.65 20.21 46.36 20.10 48.47 20.00 C 51.51 21.06 54.59 22.38 56.65 24.98 C 56.21 25.68 55.77 26.37 55.34 27.06 C 57.71 28.19 60.28 29.06 62.32 30.76 C 64.01 32.52 61.85 34.49 61.10 36.13 C 59.71 37.92 59.61 40.20 59.73 42.37 C 58.21 45.14 57.44 48.24 57.30 51.38 C 61.54 52.02 65.82 52.15 70.10 52.05 C 69.27 53.56 68.43 55.07 67.60 56.58 C 66.42 56.81 65.24 57.03 64.06 57.26 C 65.49 58.13 66.92 59.01 68.39 59.82 C 61.26 59.33 54.14 58.56 46.99 58.48 C 39.70 58.26 32.42 58.99 25.13 58.83 C 23.99 58.14 22.85 57.45 21.71 56.77 C 23.31 59.11 24.79 61.53 26.05 64.08 C 27.73 64.95 29.39 65.86 31.01 66.84 C 30.20 68.35 29.39 69.85 28.56 71.36 C 26.10 71.45 23.71 72.04 21.32 72.51 C 20.14 71.08 19.26 69.44 18.31 67.86 C 17.00 69.37 15.64 70.84 14.21 72.23 C 12.60 69.10 15.60 66.55 17.11 64.10 C 19.48 61.09 20.34 57.31 21.95 53.93 C 23.78 52.43 26.10 51.72 28.29 50.93 C 32.37 50.80 36.52 51.49 40.54 50.59 C 42.10 47.36 41.45 43.69 40.29 40.46 C 42.57 39.88 44.51 38.56 46.18 36.94 C 47.49 37.55 48.80 38.17 50.10 38.80 C 52.28 36.19 51.75 32.71 51.83 29.57 C 49.53 30.87 46.96 30.90 44.53 29.92 C 44.00 27.43 43.17 25.00 42.71 22.50 Z" />
</g>
<g id="#635594ff">
<path fill="#635594" opacity="1.00" d=" M 114.55 19.78 C 115.14 20.95 117.68 22.76 115.78 23.84 L 114.91 24.03 C 110.60 22.63 105.99 29.99 110.24 32.82 C 111.59 33.99 113.44 33.28 115.02 33.26 C 117.25 37.55 119.64 41.82 120.79 46.55 C 120.45 46.45 119.77 46.26 119.43 46.16 C 118.72 45.47 118.03 44.77 117.36 44.06 C 113.92 44.74 111.63 47.42 110.08 50.38 C 108.85 50.47 107.62 50.56 106.39 50.65 C 104.28 54.66 104.41 60.76 99.53 62.59 C 95.28 64.65 91.29 67.51 88.63 71.46 C 85.03 77.04 83.05 83.63 78.54 88.61 C 76.22 91.16 73.79 93.61 71.71 96.36 C 70.97 94.00 70.80 90.92 68.30 89.66 C 66.38 88.35 64.08 89.52 62.04 89.84 C 62.12 88.21 62.20 86.57 62.20 84.94 C 62.63 85.81 63.04 86.68 63.45 87.56 C 67.09 86.32 70.95 85.45 74.17 83.27 C 76.78 81.72 76.35 78.25 78.03 76.03 C 81.21 71.92 83.96 67.29 88.50 64.51 C 95.84 58.93 98.79 50.04 103.46 42.48 C 104.47 40.58 104.19 38.37 104.57 36.32 C 105.36 35.76 106.24 35.35 107.09 34.89 C 105.93 32.48 104.64 30.13 103.26 27.83 C 106.58 24.58 110.34 21.79 114.55 19.78 Z" />
</g>
<g id="#423767ff">
<path fill="#423767" opacity="1.00" d=" M 110.24 32.82 C 105.99 29.99 110.60 22.63 114.91 24.03 L 115.21 24.73 C 114.78 26.56 113.87 28.24 113.38 30.05 C 113.93 31.12 114.48 32.19 115.02 33.26 C 113.44 33.28 111.59 33.99 110.24 32.82 Z" />
<path fill="#423767" opacity="1.00" d=" M 25.12 43.48 C 27.51 40.97 30.22 37.99 33.96 37.97 C 36.39 37.62 38.58 38.87 40.29 40.46 C 41.45 43.69 42.10 47.36 40.54 50.59 C 36.52 51.49 32.37 50.80 28.29 50.93 C 26.79 50.75 25.27 50.58 23.81 50.13 C 23.39 47.83 24.45 45.62 25.12 43.48 M 24.41 49.11 C 29.58 49.39 34.73 50.11 39.91 49.88 C 41.10 45.42 40.14 39.07 34.32 38.80 C 34.56 39.66 35.04 41.38 35.28 42.24 C 34.58 42.91 33.88 43.58 33.17 44.25 C 33.11 43.50 32.98 42.01 32.92 41.26 L 34.52 41.34 C 34.00 40.55 33.47 39.77 32.95 38.98 C 28.07 39.97 25.06 44.43 24.41 49.11 Z" />
<path fill="#423767" opacity="1.00" d=" M 59.73 42.37 C 64.67 37.88 72.31 37.63 77.74 41.41 C 79.50 44.41 81.93 48.21 79.85 51.65 C 76.63 52.24 73.35 51.99 70.10 52.05 C 65.82 52.15 61.54 52.02 57.30 51.38 C 57.44 48.24 58.21 45.14 59.73 42.37 M 62.75 41.71 C 59.84 43.54 59.12 47.14 58.60 50.27 C 65.38 51.14 72.21 50.35 79.02 50.64 C 79.07 48.21 79.15 45.49 77.47 43.51 C 73.96 39.31 67.24 38.96 62.75 41.71 Z" />
</g>
<g id="#b898caf4">
<path fill="#b898ca" opacity="0.96" d=" M 19.77 32.07 C 19.80 32.51 19.88 33.39 19.92 33.83 C 19.41 40.19 15.97 45.78 14.95 52.03 C 13.27 57.50 12.99 63.43 10.25 68.53 L 9.99 66.97 C 10.04 66.46 10.12 65.42 10.17 64.90 C 10.95 64.19 11.26 63.32 11.11 62.29 C 11.96 55.39 13.22 48.38 16.07 41.96 C 17.55 38.74 17.28 34.79 19.77 32.07 Z" />
</g>
<g id="#ffffffff">
<path fill="#ffffff" opacity="1.00" d=" M 24.41 49.11 C 25.06 44.43 28.07 39.97 32.95 38.98 C 33.47 39.77 34.00 40.55 34.52 41.34 L 32.92 41.26 C 32.98 42.01 33.11 43.50 33.17 44.25 C 33.88 43.58 34.58 42.91 35.28 42.24 C 35.04 41.38 34.56 39.66 34.32 38.80 C 40.14 39.07 41.10 45.42 39.91 49.88 C 34.73 50.11 29.58 49.39 24.41 49.11 Z" />
<path fill="#ffffff" opacity="1.00" d=" M 62.75 41.71 C 67.24 38.96 73.96 39.31 77.47 43.51 C 79.15 45.49 79.07 48.21 79.02 50.64 C 72.21 50.35 65.38 51.14 58.60 50.27 C 59.12 47.14 59.84 43.54 62.75 41.71 M 68.82 45.16 C 69.04 43.87 69.77 42.44 68.91 41.21 C 66.94 41.83 66.41 44.72 68.82 45.16 Z" />
<path fill="#ffffff" opacity="1.00" d=" M 25.97 60.46 C 26.75 60.48 28.29 60.50 29.07 60.51 C 28.29 61.49 27.95 63.55 26.30 62.74 C 26.22 62.17 26.05 61.03 25.97 60.46 Z" />
</g>
<g id="#3e3469ff">
<path fill="#3e3469" opacity="1.00" d=" M 68.82 45.16 C 66.41 44.72 66.94 41.83 68.91 41.21 C 69.77 42.44 69.04 43.87 68.82 45.16 Z" />
<path fill="#3e3469" opacity="1.00" d=" M 40.10 77.97 C 43.89 76.60 47.99 77.15 51.93 77.31 C 56.10 78.50 60.25 80.89 62.20 84.94 C 62.20 86.57 62.12 88.21 62.04 89.84 C 64.08 89.52 66.38 88.35 68.30 89.66 C 70.80 90.92 70.97 94.00 71.71 96.36 C 71.32 96.87 70.52 97.87 70.13 98.38 C 65.96 98.56 62.14 100.28 58.96 102.92 C 61.47 104.08 64.00 106.07 66.93 105.48 C 68.91 105.33 70.89 104.70 72.88 105.00 C 75.19 105.83 74.47 108.43 74.48 110.28 C 72.39 110.89 70.42 111.83 68.48 112.81 C 61.40 109.38 53.01 105.49 45.13 108.51 C 43.44 109.06 41.86 111.56 40.12 109.83 C 43.13 106.34 48.11 106.63 52.10 104.99 C 54.34 105.81 56.59 106.63 58.87 107.31 C 62.35 108.16 65.63 109.63 69.04 110.65 C 71.02 110.62 72.56 109.04 73.06 107.21 C 71.51 106.00 69.61 106.95 67.90 107.11 C 65.64 107.78 63.39 106.90 61.30 106.12 C 59.53 105.31 57.80 104.44 56.18 103.36 C 58.31 100.39 62.25 99.21 65.08 96.93 C 66.52 97.07 67.96 97.20 69.40 97.33 C 69.08 95.51 69.49 93.37 68.30 91.81 C 67.07 90.20 64.92 91.02 63.22 90.92 C 63.17 92.32 63.12 93.72 63.08 95.12 C 58.99 97.24 54.77 99.16 50.98 101.80 C 50.01 101.28 49.04 100.75 48.08 100.21 C 43.43 97.05 36.64 95.83 34.88 89.74 C 33.66 90.47 32.43 91.21 31.21 91.95 C 31.80 93.19 32.39 94.43 33.00 95.67 C 37.92 95.73 41.27 99.83 45.63 101.53 C 46.18 101.87 47.28 102.56 47.84 102.90 C 45.30 104.08 42.79 105.48 40.01 106.00 C 38.60 105.54 37.29 104.82 35.96 104.17 C 35.95 105.11 35.94 106.05 35.94 106.99 L 34.87 106.31 C 34.41 105.35 34.13 104.31 34.16 103.24 C 36.07 103.03 37.84 103.89 39.69 104.18 C 41.28 104.04 42.78 103.40 44.30 102.97 C 40.47 100.51 36.87 97.11 32.10 96.80 C 31.21 95.01 29.95 93.19 30.17 91.10 C 31.40 88.99 33.83 88.35 36.11 88.71 C 35.58 86.80 35.07 84.88 34.56 82.97 C 36.15 81.07 37.61 78.77 40.10 77.97 M 36.69 86.22 C 37.24 88.86 40.14 89.50 42.17 90.67 C 42.43 91.24 42.95 92.38 43.21 92.95 C 45.37 93.16 47.44 93.79 49.19 95.12 C 51.08 93.44 53.50 93.70 55.82 94.02 C 54.18 90.90 57.64 90.54 59.65 89.64 C 61.56 87.76 60.77 84.70 59.08 82.96 C 54.59 78.46 47.82 78.31 41.92 79.08 C 38.84 79.67 35.09 82.79 36.69 86.22 M 37.05 89.99 C 37.29 90.69 37.77 92.11 38.02 92.82 C 42.06 95.51 46.60 97.42 50.87 99.73 C 53.75 97.51 57.05 95.97 60.39 94.57 C 60.82 93.42 61.25 92.28 61.68 91.13 C 60.35 91.56 59.03 91.99 57.70 92.42 C 58.38 95.43 55.00 96.76 52.60 95.70 C 51.73 96.14 50.87 96.59 50.00 97.04 C 47.63 95.97 45.11 95.31 42.73 94.27 C 40.98 92.63 39.53 90.57 37.05 89.99 Z" />
<path fill="#3e3469" opacity="1.00" d=" M 52.50 121.02 C 54.33 121.36 56.04 122.10 57.47 123.31 C 55.98 124.67 54.50 126.03 53.03 127.41 C 50.58 126.86 47.97 126.63 45.78 125.29 C 46.87 125.58 47.96 125.86 49.06 126.12 C 50.21 124.42 51.37 122.73 52.50 121.02 Z" />
</g>
<g id="#554982ff">
<path fill="#554982" opacity="1.00" d=" M 110.08 50.38 C 111.63 47.42 113.92 44.74 117.36 44.06 C 118.03 44.77 118.72 45.47 119.43 46.16 C 119.77 46.26 120.45 46.45 120.79 46.55 L 120.89 46.58 C 121.73 48.79 122.69 50.95 123.46 53.18 C 124.68 55.93 124.40 59.89 127.17 61.61 C 129.92 61.43 132.54 59.84 132.69 56.83 C 132.93 58.00 133.16 59.18 133.37 60.36 C 133.13 61.40 132.89 62.44 132.65 63.48 C 130.82 64.22 128.96 64.97 127.01 65.33 C 123.67 63.39 122.38 59.43 120.49 56.26 C 119.39 59.65 118.61 63.39 116.14 66.09 C 114.45 66.82 112.61 67.17 110.94 67.95 C 109.49 69.33 108.45 71.07 107.04 72.48 C 105.72 72.50 104.42 72.33 103.12 72.22 C 103.84 73.55 104.55 74.88 105.27 76.22 C 102.84 79.14 100.41 82.46 96.69 83.79 C 94.37 83.68 92.39 82.14 90.32 81.23 C 89.34 83.94 88.53 86.73 87.24 89.30 C 85.64 92.34 82.47 94.41 81.63 97.86 C 80.38 101.57 81.16 105.78 79.29 109.28 C 77.71 109.73 76.08 109.94 74.48 110.28 C 74.47 108.43 75.19 105.83 72.88 105.00 C 70.89 104.70 68.91 105.33 66.93 105.48 C 64.00 106.07 61.47 104.08 58.96 102.92 C 62.14 100.28 65.96 98.56 70.13 98.38 C 70.52 97.87 71.32 96.87 71.71 96.36 C 73.79 93.61 76.22 91.16 78.54 88.61 C 83.05 83.63 85.03 77.04 88.63 71.46 C 91.29 67.51 95.28 64.65 99.53 62.59 C 104.41 60.76 104.28 54.66 106.39 50.65 C 107.62 50.56 108.85 50.47 110.08 50.38 M 95.99 72.93 C 93.55 73.99 93.42 76.93 92.58 79.11 C 93.70 79.91 94.91 81.21 96.44 80.58 C 99.22 79.38 100.12 76.15 101.62 73.77 C 100.01 72.58 97.85 71.65 95.99 72.93 Z" />
</g>
<g id="#7766a6ff">
<path fill="#7766a6" opacity="1.00" d=" M 123.46 53.18 C 126.47 54.58 129.56 55.76 132.69 56.83 C 132.54 59.84 129.92 61.43 127.17 61.61 C 124.40 59.89 124.68 55.93 123.46 53.18 Z" />
</g>
<g id="#433a6bff">
<path fill="#433a6b" opacity="1.00" d=" M 120.49 56.26 C 122.38 59.43 123.67 63.39 127.01 65.33 C 128.96 64.97 130.82 64.22 132.65 63.48 C 132.89 62.44 133.13 61.40 133.37 60.36 L 133.41 60.19 C 133.71 63.09 133.28 66.00 133.05 68.89 C 131.35 69.55 129.66 70.23 127.98 70.90 C 127.85 74.63 127.80 79.95 122.92 80.21 C 122.75 80.64 122.41 81.51 122.24 81.95 C 122.77 78.97 123.87 75.98 123.22 72.92 C 120.79 77.54 118.43 82.91 120.35 88.14 C 120.46 90.28 120.13 92.42 120.39 94.55 C 117.36 97.12 113.42 99.74 114.02 104.32 C 116.29 103.34 118.26 101.86 120.22 100.38 C 120.80 100.37 121.96 100.34 122.55 100.32 C 121.77 103.02 119.76 104.99 117.71 106.78 C 115.41 106.23 113.07 105.86 110.73 105.57 C 106.20 108.66 104.02 115.10 97.80 115.50 C 97.82 117.30 97.96 119.10 98.15 120.89 C 96.51 122.06 94.86 123.22 93.23 124.40 C 91.79 124.21 90.36 124.01 88.92 123.82 C 91.04 122.38 93.15 120.93 95.20 119.39 C 91.16 116.70 87.28 121.06 83.62 122.49 C 82.14 122.18 80.67 121.85 79.16 121.75 C 79.37 121.29 79.79 120.37 79.99 119.91 C 73.26 119.25 66.31 119.64 59.82 117.46 C 62.47 115.34 66.44 115.79 68.48 112.81 C 70.42 111.83 72.39 110.89 74.48 110.28 C 76.08 109.94 77.71 109.73 79.29 109.28 C 81.16 105.78 80.38 101.57 81.63 97.86 C 82.47 94.41 85.64 92.34 87.24 89.30 C 88.53 86.73 89.34 83.94 90.32 81.23 C 92.39 82.14 94.37 83.68 96.69 83.79 C 100.41 82.46 102.84 79.14 105.27 76.22 C 104.55 74.88 103.84 73.55 103.12 72.22 C 104.42 72.33 105.72 72.50 107.04 72.48 C 108.45 71.07 109.49 69.33 110.94 67.95 C 112.61 67.17 114.45 66.82 116.14 66.09 C 118.61 63.39 119.39 59.65 120.49 56.26 M 90.11 96.13 C 88.31 97.93 89.99 100.11 90.82 101.91 C 93.24 100.47 95.82 98.74 96.87 96.01 C 96.41 92.60 91.14 93.38 90.11 96.13 Z" />
</g>
<g id="#3e2a44ff">
<path fill="#3e2a44" opacity="1.00" d=" M 21.71 56.77 C 22.85 57.45 23.99 58.14 25.13 58.83 C 32.42 58.99 39.70 58.26 46.99 58.48 C 54.14 58.56 61.26 59.33 68.39 59.82 C 72.61 60.24 77.49 60.91 80.71 57.44 C 80.47 61.10 76.39 62.06 74.01 64.06 C 73.99 63.46 73.95 62.26 73.93 61.66 C 72.85 61.74 70.68 61.90 69.59 61.99 C 70.68 63.09 71.68 64.35 73.05 65.13 C 72.93 65.26 72.68 65.54 72.55 65.67 C 66.43 68.03 60.40 70.82 53.76 71.32 C 46.02 71.42 37.66 71.39 31.01 66.84 C 29.39 65.86 27.73 64.95 26.05 64.08 C 24.79 61.53 23.31 59.11 21.71 56.77 M 25.97 60.46 C 26.05 61.03 26.22 62.17 26.30 62.74 C 27.95 63.55 28.29 61.49 29.07 60.51 C 28.29 60.50 26.75 60.48 25.97 60.46 M 30.29 60.27 C 29.85 61.39 29.42 62.51 29.00 63.63 C 29.49 63.94 30.46 64.58 30.95 64.90 L 31.05 64.88 C 33.53 67.11 36.73 68.23 39.94 68.87 C 47.40 70.30 55.27 70.15 62.53 67.82 C 65.19 67.57 67.35 65.57 69.60 64.25 C 69.27 63.57 68.60 62.22 68.27 61.54 C 55.64 60.38 42.97 59.73 30.29 60.27 Z" />
</g>
<g id="#d54c4fff">
<path fill="#d54c4f" opacity="1.00" d=" M 30.29 60.27 C 42.97 59.73 55.64 60.38 68.27 61.54 C 68.60 62.22 69.27 63.57 69.60 64.25 C 67.35 65.57 65.19 67.57 62.53 67.82 C 53.05 62.36 41.44 62.52 31.05 64.88 L 30.95 64.90 C 30.46 64.58 29.49 63.94 29.00 63.63 C 29.42 62.51 29.85 61.39 30.29 60.27 Z" />
</g>
<g id="#57485ea7">
<path fill="#57485e" opacity="0.65" d=" M 10.17 64.90 C 9.14 63.37 9.46 62.50 11.11 62.29 C 11.26 63.32 10.95 64.19 10.17 64.90 Z" />
</g>
<g id="#ececd4ff">
<path fill="#ececd4" opacity="1.00" d=" M 69.59 61.99 C 70.68 61.90 72.85 61.74 73.93 61.66 C 73.95 62.26 73.99 63.46 74.01 64.06 C 73.77 64.33 73.29 64.86 73.05 65.13 C 71.68 64.35 70.68 63.09 69.59 61.99 Z" />
<path fill="#ececd4" opacity="1.00" d=" M 36.69 86.22 C 35.09 82.79 38.84 79.67 41.92 79.08 C 47.82 78.31 54.59 78.46 59.08 82.96 C 58.02 84.25 57.00 85.57 55.93 86.85 C 54.47 80.38 44.81 79.72 40.82 84.08 C 39.97 86.07 41.91 87.66 43.07 89.00 C 42.84 89.42 42.39 90.25 42.17 90.67 C 40.14 89.50 37.24 88.86 36.69 86.22 Z" />
</g>
<g id="#f25e65ff">
<path fill="#f25e65" opacity="1.00" d=" M 31.05 64.88 C 41.44 62.52 53.05 62.36 62.53 67.82 C 55.27 70.15 47.40 70.30 39.94 68.87 C 36.73 68.23 33.53 67.11 31.05 64.88 Z" />
</g>
<g id="#8774b9ff">
<path fill="#8774b9" opacity="1.00" d=" M 31.01 66.84 C 37.66 71.39 46.02 71.42 53.76 71.32 C 54.40 71.50 55.68 71.86 56.32 72.04 C 54.72 73.20 53.09 74.33 51.45 75.44 C 51.85 75.87 52.66 76.72 53.06 77.15 L 51.93 77.31 C 47.99 77.15 43.89 76.60 40.10 77.97 C 37.61 78.77 36.15 81.07 34.56 82.97 C 34.19 83.18 33.45 83.61 33.08 83.83 C 32.39 83.31 31.71 82.80 31.02 82.29 C 29.14 82.89 27.20 83.43 25.49 84.45 C 25.31 86.05 25.36 87.66 25.35 89.27 C 23.60 87.18 22.03 84.85 22.00 82.02 C 22.00 78.62 20.01 75.86 17.83 73.46 C 17.19 73.32 15.90 73.02 15.25 72.87 L 14.21 72.23 C 15.64 70.84 17.00 69.37 18.31 67.86 C 19.26 69.44 20.14 71.08 21.32 72.51 C 23.71 72.04 26.10 71.45 28.56 71.36 C 29.39 69.85 30.20 68.35 31.01 66.84 Z" />
</g>
<g id="#816dabff">
<path fill="#816dab" opacity="1.00" d=" M 8.20 70.53 C 9.04 71.73 10.41 72.71 10.71 74.21 C 10.07 75.64 9.03 76.86 8.29 78.24 C 8.51 79.28 8.84 80.29 9.15 81.31 C 9.82 77.62 12.30 74.95 15.25 72.87 C 15.90 73.02 17.19 73.32 17.83 73.46 C 20.01 75.86 22.00 78.62 22.00 82.02 C 22.03 84.85 23.60 87.18 25.35 89.27 C 25.36 87.66 25.31 86.05 25.49 84.45 C 27.20 83.43 29.14 82.89 31.02 82.29 C 31.71 82.80 32.39 83.31 33.08 83.83 C 33.45 83.61 34.19 83.18 34.56 82.97 C 35.07 84.88 35.58 86.80 36.11 88.71 C 33.83 88.35 31.40 88.99 30.17 91.10 C 29.95 93.19 31.21 95.01 32.10 96.80 C 31.19 98.66 30.13 100.45 29.06 102.23 C 29.29 103.63 29.52 105.04 29.76 106.45 C 28.30 106.36 26.84 106.27 25.38 106.18 C 25.07 107.55 24.75 108.93 24.44 110.31 C 23.74 109.25 23.05 108.19 22.36 107.12 C 22.89 105.59 24.10 104.07 23.73 102.36 C 22.50 100.36 20.91 98.61 19.48 96.75 L 19.53 96.57 C 21.16 93.23 19.03 90.02 16.72 87.69 C 16.16 87.44 15.03 86.95 14.47 86.70 C 14.26 86.61 13.85 86.43 13.64 86.34 C 15.42 86.06 18.27 87.36 19.14 85.11 C 19.01 83.54 18.73 81.99 18.48 80.44 C 17.34 80.23 16.20 80.07 15.06 79.94 C 12.64 80.86 11.69 83.49 10.57 85.58 C 9.92 84.47 9.29 83.36 8.66 82.24 C 8.18 82.00 7.21 81.52 6.73 81.28 C 6.09 79.95 5.44 78.63 4.78 77.31 C 5.66 74.93 6.78 72.64 8.20 70.53 Z" />
</g>
<g id="#7b6badff">
<path fill="#7b6bad" opacity="1.00" d=" M 95.99 72.93 C 97.85 71.65 100.01 72.58 101.62 73.77 C 100.12 76.15 99.22 79.38 96.44 80.58 C 94.91 81.21 93.70 79.91 92.58 79.11 C 93.42 76.93 93.55 73.99 95.99 72.93 Z" />
</g>
<g id="#574980ff">
<path fill="#574980" opacity="1.00" d=" M 120.35 88.14 C 118.43 82.91 120.79 77.54 123.22 72.92 C 123.87 75.98 122.77 78.97 122.24 81.95 C 121.80 84.32 121.26 86.68 120.55 88.99 L 120.35 88.14 Z" />
</g>
<g id="#4c4277ff">
<path fill="#4c4277" opacity="1.00" d=" M 10.57 85.58 C 11.69 83.49 12.64 80.86 15.06 79.94 C 16.20 80.07 17.34 80.23 18.48 80.44 C 18.73 81.99 19.01 83.54 19.14 85.11 C 18.27 87.36 15.42 86.06 13.64 86.34 C 12.81 86.28 11.15 86.15 10.32 86.09 L 10.57 85.58 Z" />
</g>
<g id="#433a65ff">
<path fill="#433a65" opacity="1.00" d=" M 40.82 84.08 C 44.81 79.72 54.47 80.38 55.93 86.85 C 52.90 90.85 47.27 91.44 43.07 89.00 C 41.91 87.66 39.97 86.07 40.82 84.08 M 42.53 84.65 C 41.27 86.26 43.89 87.40 44.99 88.08 C 48.04 89.97 51.49 88.31 54.26 86.74 C 52.41 82.41 45.85 81.74 42.53 84.65 Z" />
</g>
<g id="#7867abff">
<path fill="#7867ab" opacity="1.00" d=" M 42.53 84.65 C 45.85 81.74 52.41 82.41 54.26 86.74 C 51.49 88.31 48.04 89.97 44.99 88.08 C 43.89 87.40 41.27 86.26 42.53 84.65 Z" />
</g>
<g id="#d3d3c3ff">
<path fill="#d3d3c3" opacity="1.00" d=" M 55.93 86.85 C 57.00 85.57 58.02 84.25 59.08 82.96 C 60.77 84.70 61.56 87.76 59.65 89.64 C 57.64 90.54 54.18 90.90 55.82 94.02 C 53.50 93.70 51.08 93.44 49.19 95.12 C 47.44 93.79 45.37 93.16 43.21 92.95 C 42.95 92.38 42.43 91.24 42.17 90.67 C 42.39 90.25 42.84 89.42 43.07 89.00 C 47.27 91.44 52.90 90.85 55.93 86.85 Z" />
</g>
<g id="#9177b0f7">
<path fill="#9177b0" opacity="0.97" d=" M 14.47 86.70 C 15.03 86.95 16.16 87.44 16.72 87.69 C 19.03 90.02 21.16 93.23 19.53 96.57 C 17.67 93.37 15.96 90.08 14.47 86.70 Z" />
</g>
<g id="#dfdbc7ff">
<path fill="#dfdbc7" opacity="1.00" d=" M 31.21 91.95 C 32.43 91.21 33.66 90.47 34.88 89.74 C 36.64 95.83 43.43 97.05 48.08 100.21 C 47.47 100.54 46.24 101.20 45.63 101.53 C 41.27 99.83 37.92 95.73 33.00 95.67 C 32.39 94.43 31.80 93.19 31.21 91.95 Z" />
</g>
<g id="#b5b5afff">
<path fill="#b5b5af" opacity="1.00" d=" M 63.22 90.92 C 64.92 91.02 67.07 90.20 68.30 91.81 C 69.49 93.37 69.08 95.51 69.40 97.33 C 67.96 97.20 66.52 97.07 65.08 96.93 C 62.25 99.21 58.31 100.39 56.18 103.36 C 57.80 104.44 59.53 105.31 61.30 106.12 C 60.69 106.42 59.48 107.01 58.87 107.31 C 56.59 106.63 54.34 105.81 52.10 104.99 C 48.11 106.63 43.13 106.34 40.12 109.83 C 38.74 108.86 37.36 107.90 35.94 106.99 C 35.94 106.05 35.95 105.11 35.96 104.17 C 37.29 104.82 38.60 105.54 40.01 106.00 C 42.79 105.48 45.30 104.08 47.84 102.90 C 47.28 102.56 46.18 101.87 45.63 101.53 C 46.24 101.20 47.47 100.54 48.08 100.21 C 49.04 100.75 50.01 101.28 50.98 101.80 C 54.77 99.16 58.99 97.24 63.08 95.12 C 63.12 93.72 63.17 92.32 63.22 90.92 Z" />
</g>
<g id="#6f609aff">
<path fill="#6f609a" opacity="1.00" d=" M 90.11 96.13 C 91.14 93.38 96.41 92.60 96.87 96.01 C 95.82 98.74 93.24 100.47 90.82 101.91 C 89.99 100.11 88.31 97.93 90.11 96.13 Z" />
</g>
<g id="#4f457cff">
<path fill="#4f457c" opacity="1.00" d=" M 114.02 104.32 C 113.42 99.74 117.36 97.12 120.39 94.55 C 121.70 96.27 123.51 97.94 123.28 100.31 L 122.55 100.32 C 121.96 100.34 120.80 100.37 120.22 100.38 C 118.26 101.86 116.29 103.34 114.02 104.32 Z" />
</g>
<g id="#72609eff">
<path fill="#72609e" opacity="1.00" d=" M 29.06 102.23 C 30.13 100.45 31.19 98.66 32.10 96.80 C 36.87 97.11 40.47 100.51 44.30 102.97 C 42.78 103.40 41.28 104.04 39.69 104.18 C 37.84 103.89 36.07 103.03 34.16 103.24 C 34.13 104.31 34.41 105.35 34.87 106.31 C 36.07 108.99 37.13 111.72 37.96 114.54 L 36.89 114.23 C 36.31 113.78 35.15 112.88 34.57 112.43 C 32.63 110.91 30.49 109.57 28.07 108.99 C 27.42 110.01 26.80 111.05 26.22 112.13 C 25.64 111.51 25.04 110.91 24.44 110.31 C 24.75 108.93 25.07 107.55 25.38 106.18 C 26.84 106.27 28.30 106.36 29.76 106.45 C 29.52 105.04 29.29 103.63 29.06 102.23 Z" />
</g>
<g id="#98989bff">
<path fill="#98989b" opacity="1.00" d=" M 61.30 106.12 C 63.39 106.90 65.64 107.78 67.90 107.11 C 69.61 106.95 71.51 106.00 73.06 107.21 C 72.56 109.04 71.02 110.62 69.04 110.65 C 65.63 109.63 62.35 108.16 58.87 107.31 C 59.48 107.01 60.69 106.42 61.30 106.12 Z" />
</g>
<g id="#5a4d84ff">
<path fill="#5a4d84" opacity="1.00" d=" M 34.87 106.31 L 35.94 106.99 C 37.36 107.90 38.74 108.86 40.12 109.83 C 41.86 111.56 43.44 109.06 45.13 108.51 C 53.01 105.49 61.40 109.38 68.48 112.81 C 66.44 115.79 62.47 115.34 59.82 117.46 C 66.31 119.64 73.26 119.25 79.99 119.91 C 79.79 120.37 79.37 121.29 79.16 121.75 C 73.49 122.66 67.72 122.81 61.99 122.46 C 60.41 122.26 58.92 122.79 57.47 123.31 C 56.04 122.10 54.33 121.36 52.50 121.02 C 51.37 122.73 50.21 124.42 49.06 126.12 C 47.96 125.86 46.87 125.58 45.78 125.29 C 45.35 125.15 44.50 124.87 44.07 124.73 L 44.27 124.49 C 45.01 123.57 45.75 122.64 46.50 121.73 C 45.09 119.35 43.31 117.10 40.61 116.17 C 39.34 115.57 38.08 114.97 36.89 114.23 L 37.96 114.54 C 37.13 111.72 36.07 108.99 34.87 106.31 Z" />
</g>
<g id="#504475fd">
<path fill="#504475" opacity="1.00" d=" M 26.22 112.13 C 26.80 111.05 27.42 110.01 28.07 108.99 C 30.49 109.57 32.63 110.91 34.57 112.43 C 33.25 112.86 31.96 113.38 30.73 114.03 C 29.14 113.62 27.62 113.00 26.22 112.13 Z" />
</g>
<g id="#7d69a8ff">
<path fill="#7d69a8" opacity="1.00" d=" M 40.61 116.17 C 43.31 117.10 45.09 119.35 46.50 121.73 C 45.75 122.64 45.01 123.57 44.27 124.49 C 40.49 123.65 42.14 118.86 40.61 116.17 Z" />
</g>
<g id="#554880ff">
<path fill="#554880" opacity="1.00" d=" M 83.62 122.49 C 87.28 121.06 91.16 116.70 95.20 119.39 C 93.15 120.93 91.04 122.38 88.92 123.82 C 90.36 124.01 91.79 124.21 93.23 124.40 C 91.11 124.98 88.99 125.56 86.88 126.18 C 85.77 124.96 84.68 123.73 83.62 122.49 Z" />
</g>
</svg>
