<?xml version="1.0" encoding="UTF-8" ?>
<!DOCTYPE svg PUBLIC "-//W3C//DTD SVG 1.1//EN" "http://www.w3.org/Graphics/SVG/1.1/DTD/svg11.dtd">
<svg width="266pt" height="197pt" viewBox="0 0 266 197" version="1.1" xmlns="http://www.w3.org/2000/svg">
<g id="#9777b0ff">
<path fill="#9777b0" opacity="1.00" d=" M 37.84 39.22 C 41.72 35.03 46.50 31.42 52.22 30.30 C 54.38 32.83 56.95 34.97 59.99 36.36 C 53.81 40.41 47.61 45.14 40.31 46.83 C 39.96 47.43 39.60 48.04 39.25 48.64 C 39.16 45.46 38.73 42.29 37.84 39.22 Z" />
</g>
<g id="#6f5473a9">
<path fill="#6f5473" opacity="0.66" d=" M 75.70 33.01 C 78.40 31.89 81.36 31.95 84.22 32.15 C 81.41 32.70 78.56 32.96 75.70 33.01 Z" />
</g>
<g id="#d9aae7ff">
<path fill="#d9aae7" opacity="1.00" d=" M 84.22 32.15 C 89.48 31.17 94.73 32.52 99.97 32.97 C 103.26 33.42 106.72 33.81 109.67 35.44 L 110.28 35.89 C 111.51 35.96 112.75 36.02 113.98 36.06 C 113.32 36.69 112.65 37.31 111.99 37.93 C 111.08 37.52 110.17 37.11 109.27 36.70 C 106.57 35.39 103.65 34.56 100.65 34.38 C 83.25 33.40 65.48 36.78 50.06 45.03 C 44.15 48.35 39.30 53.14 33.99 57.28 L 33.82 56.06 C 35.58 53.55 37.86 51.42 39.25 48.64 C 39.60 48.04 39.96 47.43 40.31 46.83 C 47.61 45.14 53.81 40.41 59.99 36.36 C 65.22 35.30 70.42 33.90 75.70 33.01 C 78.56 32.96 81.41 32.70 84.22 32.15 Z" />
<path fill="#d9aae7" opacity="1.00" d=" M 182.26 42.38 C 182.75 42.28 183.74 42.09 184.23 41.99 C 184.86 42.00 186.10 42.02 186.73 42.02 L 187.71 42.05 C 188.66 42.69 189.60 43.34 190.53 44.01 C 187.74 43.60 184.98 43.08 182.26 42.38 Z" />
</g>
<g id="#b18cc4ff">
<path fill="#b18cc4" opacity="1.00" d=" M 116.31 32.00 L 116.85 32.30 C 118.57 33.54 120.74 33.02 122.67 32.77 C 124.67 33.18 126.63 34.18 128.15 35.53 C 128.46 35.89 129.07 36.61 129.38 36.98 L 128.84 37.32 C 124.24 36.38 119.53 35.56 115.34 33.31 L 116.31 32.00 Z" />
</g>
<g id="#c99fdcf6">
<path fill="#c99fdc" opacity="0.96" d=" M 116.85 32.30 C 118.36 31.56 121.93 31.09 122.67 32.77 C 120.74 33.02 118.57 33.54 116.85 32.30 Z" />
</g>
<g id="#9b79b1ff">
<path fill="#9b79b1" opacity="1.00" d=" M 113.92 35.14 C 114.39 34.53 114.86 33.91 115.34 33.31 C 119.53 35.56 124.24 36.38 128.84 37.32 C 126.06 40.52 120.66 37.70 118.36 41.42 C 117.31 42.89 116.65 44.62 116.33 46.39 C 115.29 50.22 120.06 52.27 120.12 55.94 C 120.44 59.51 120.53 63.20 119.63 66.70 C 118.28 68.10 116.11 68.30 114.44 69.27 C 112.04 70.71 109.17 69.99 106.59 69.57 C 96.74 67.54 87.16 63.61 76.94 63.99 C 77.24 62.07 78.43 60.55 79.55 59.04 C 84.34 59.78 89.21 60.06 93.94 61.18 C 98.38 62.28 103.02 62.67 107.57 62.27 C 109.70 60.44 110.33 57.48 110.86 54.84 C 111.74 50.68 108.56 47.18 108.24 43.17 C 108.94 41.57 110.02 40.17 111.07 38.78 C 111.30 38.57 111.76 38.15 111.99 37.93 C 112.65 37.31 113.32 36.69 113.98 36.06 C 112.75 36.02 111.51 35.96 110.28 35.89 L 109.67 35.44 C 111.08 35.33 112.50 35.23 113.92 35.14 Z" />
</g>
<g id="#bd92ceff">
<path fill="#bd92ce" opacity="1.00" d=" M 50.06 45.03 C 65.48 36.78 83.25 33.40 100.65 34.38 C 103.65 34.56 106.57 35.39 109.27 36.70 C 106.52 37.17 103.74 37.37 100.95 37.36 C 93.81 37.33 86.89 39.33 79.94 40.72 C 75.97 41.44 72.58 43.90 68.60 44.54 C 64.93 45.25 60.96 45.49 57.81 47.72 C 53.55 50.60 48.83 52.69 44.47 55.41 C 37.74 59.06 30.02 61.51 24.77 67.36 C 24.43 67.44 23.76 67.60 23.43 67.69 C 25.28 62.53 30.53 60.12 33.82 56.06 L 33.99 57.28 C 39.30 53.14 44.15 48.35 50.06 45.03 Z" />
</g>
<g id="#8d6ca3ff">
<path fill="#8d6ca3" opacity="1.00" d=" M 128.15 35.53 C 129.37 36.81 132.86 38.66 131.41 40.31 C 127.87 40.34 125.23 42.68 123.03 45.19 C 124.88 48.17 126.70 52.43 130.81 52.38 C 130.76 50.30 130.66 48.21 130.72 46.13 C 132.72 47.31 134.81 48.33 136.97 49.17 C 138.33 51.14 139.58 53.18 140.74 55.27 C 137.81 55.35 134.80 55.04 131.94 55.84 C 130.53 56.76 130.89 58.74 130.61 60.19 C 130.44 65.52 128.54 70.56 127.50 75.75 C 127.07 75.10 126.65 74.43 126.24 73.77 C 125.61 72.04 125.01 70.30 124.43 68.55 C 124.58 71.98 124.86 75.45 124.11 78.82 C 122.98 78.36 121.86 77.89 120.74 77.42 C 119.66 77.98 118.58 78.55 117.51 79.11 C 107.59 74.20 97.00 70.55 86.11 68.53 C 83.48 67.92 80.67 68.78 78.12 67.82 C 77.37 66.66 76.98 65.38 76.94 63.99 C 87.16 63.61 96.74 67.54 106.59 69.57 C 109.17 69.99 112.04 70.71 114.44 69.27 C 116.11 68.30 118.28 68.10 119.63 66.70 C 120.53 63.20 120.44 59.51 120.12 55.94 C 120.06 52.27 115.29 50.22 116.33 46.39 C 116.65 44.62 117.31 42.89 118.36 41.42 C 120.66 37.70 126.06 40.52 128.84 37.32 L 129.38 36.98 C 129.07 36.61 128.46 35.89 128.15 35.53 Z" />
</g>
<g id="#b089c3ff">
<path fill="#b089c3" opacity="1.00" d=" M 79.94 40.72 C 86.89 39.33 93.81 37.33 100.95 37.36 C 103.74 37.37 106.52 37.17 109.27 36.70 C 110.17 37.11 111.08 37.52 111.99 37.93 C 111.76 38.15 111.30 38.57 111.07 38.78 C 109.34 38.78 107.59 38.47 105.88 38.83 C 102.35 41.97 100.16 46.71 95.66 48.68 C 93.57 48.56 91.57 47.83 89.49 47.68 C 86.36 48.39 83.84 50.64 80.83 51.69 C 74.44 53.82 67.69 54.58 61.00 54.98 C 50.03 55.72 39.10 59.41 30.61 66.53 C 26.68 68.82 24.34 72.76 22.35 76.71 C 21.08 73.76 21.43 70.39 23.21 67.74 L 23.43 67.69 C 23.76 67.60 24.43 67.44 24.77 67.36 C 30.02 61.51 37.74 59.06 44.47 55.41 C 48.83 52.69 53.55 50.60 57.81 47.72 C 60.96 45.49 64.93 45.25 68.60 44.54 C 72.58 43.90 75.97 41.44 79.94 40.72 Z" />
</g>
<g id="#a480b9ff">
<path fill="#a480b9" opacity="1.00" d=" M 105.88 38.83 C 107.59 38.47 109.34 38.78 111.07 38.78 C 110.02 40.17 108.94 41.57 108.24 43.17 C 108.56 47.18 111.74 50.68 110.86 54.84 C 110.33 57.48 109.70 60.44 107.57 62.27 C 103.02 62.67 98.38 62.28 93.94 61.18 C 89.21 60.06 84.34 59.78 79.55 59.04 C 78.26 59.99 77.32 61.29 76.63 62.72 C 70.37 62.98 64.08 64.24 57.88 62.63 C 57.07 61.14 56.24 59.49 54.50 58.95 C 54.86 61.27 55.26 63.59 55.62 65.92 C 55.10 66.27 54.05 66.96 53.53 67.30 C 45.70 66.69 37.90 68.75 30.86 72.08 C 28.01 73.34 25.97 75.76 24.10 78.16 C 26.31 78.22 27.04 80.02 27.54 81.85 C 26.31 85.13 24.62 88.20 22.92 91.25 C 22.51 90.83 21.68 89.98 21.27 89.55 C 22.57 85.59 24.88 81.11 22.09 77.22 C 22.16 77.09 22.29 76.84 22.35 76.71 C 24.34 72.76 26.68 68.82 30.61 66.53 C 39.10 59.41 50.03 55.72 61.00 54.98 C 67.69 54.58 74.44 53.82 80.83 51.69 C 83.84 50.64 86.36 48.39 89.49 47.68 C 91.57 47.83 93.57 48.56 95.66 48.68 C 100.16 46.71 102.35 41.97 105.88 38.83 Z" />
</g>
<g id="#72528aff">
<path fill="#72528a" opacity="1.00" d=" M 123.03 45.19 C 125.23 42.68 127.87 40.34 131.41 40.31 C 131.15 42.25 130.82 44.18 130.72 46.13 C 130.66 48.21 130.76 50.30 130.81 52.38 C 126.70 52.43 124.88 48.17 123.03 45.19 Z" />
</g>
<g id="#1d161d5f">
<path fill="#1d161d" opacity="0.37" d=" M 184.23 41.99 C 183.61 40.19 187.45 40.24 186.73 42.02 C 186.10 42.02 184.86 42.00 184.23 41.99 Z" />
</g>
<g id="#a280baff">
<path fill="#a280ba" opacity="1.00" d=" M 187.71 42.05 C 190.45 42.69 193.83 43.33 195.21 46.10 C 194.49 46.09 193.04 46.08 192.31 46.07 C 187.97 45.53 183.55 46.43 180.61 49.87 C 183.41 52.47 186.94 54.03 190.77 54.28 C 192.41 53.84 193.97 53.13 195.36 52.14 L 195.93 51.76 C 202.83 55.19 209.05 59.93 213.73 66.09 L 213.36 66.41 C 212.46 67.18 211.60 67.99 210.73 68.78 C 207.42 67.71 203.91 66.61 200.51 67.99 C 201.33 69.29 202.04 70.67 202.49 72.14 C 194.20 69.39 185.84 65.84 177.02 65.61 C 177.56 66.14 178.66 67.21 179.20 67.75 C 180.00 70.61 181.19 73.55 183.87 75.14 C 188.18 78.22 194.31 80.32 199.13 77.08 C 199.24 77.65 199.47 78.80 199.58 79.37 C 197.61 80.36 195.55 81.15 193.47 81.89 C 193.14 82.64 192.49 84.13 192.16 84.87 C 185.67 83.12 179.12 81.53 172.47 80.46 C 171.94 77.79 170.14 75.81 167.71 74.71 C 162.13 70.04 161.02 61.96 161.71 55.08 C 160.69 54.55 159.67 54.03 158.65 53.52 C 161.08 51.72 162.96 49.34 164.57 46.80 C 165.02 47.19 165.49 47.58 165.96 47.96 C 169.73 51.08 175.12 48.72 179.49 48.46 C 175.57 48.01 171.63 47.94 167.69 47.95 C 171.38 47.38 175.12 47.36 178.84 47.56 C 180.31 46.07 181.48 44.32 182.26 42.38 C 184.98 43.08 187.74 43.60 190.53 44.01 C 189.60 43.34 188.66 42.69 187.71 42.05 Z" />
</g>
<g id="#87699fff">
<path fill="#87699f" opacity="1.00" d=" M 150.40 48.14 C 153.32 45.38 157.04 43.76 160.92 42.86 C 162.12 44.18 163.35 45.49 164.57 46.80 C 162.96 49.34 161.08 51.72 158.65 53.52 C 156.26 54.50 153.69 54.87 151.15 55.17 C 151.36 52.79 150.97 50.44 150.40 48.14 Z" />
</g>
<g id="#9273abff">
<path fill="#9273ab" opacity="1.00" d=" M 180.61 49.87 C 183.55 46.43 187.97 45.53 192.31 46.07 C 191.23 47.69 189.97 49.23 189.31 51.08 C 189.68 52.20 190.24 53.23 190.77 54.28 C 186.94 54.03 183.41 52.47 180.61 49.87 Z" />
</g>
<g id="#7b5b94ff">
<path fill="#7b5b94" opacity="1.00" d=" M 192.31 46.07 C 193.04 46.08 194.49 46.09 195.21 46.10 C 194.98 48.11 195.06 50.14 195.36 52.14 C 193.97 53.13 192.41 53.84 190.77 54.28 C 190.24 53.23 189.68 52.20 189.31 51.08 C 189.97 49.23 191.23 47.69 192.31 46.07 Z" />
</g>
<g id="#c89bdeff">
<path fill="#c89bde" opacity="1.00" d=" M 165.96 47.96 L 167.69 47.95 C 171.63 47.94 175.57 48.01 179.49 48.46 C 175.12 48.72 169.73 51.08 165.96 47.96 Z" />
</g>
<g id="#9a79b2ff">
<path fill="#9a79b2" opacity="1.00" d=" M 151.15 55.17 C 153.69 54.87 156.26 54.50 158.65 53.52 C 159.67 54.03 160.69 54.55 161.71 55.08 C 161.02 61.96 162.13 70.04 167.71 74.71 C 170.14 75.81 171.94 77.79 172.47 80.46 C 173.30 82.85 173.20 85.92 175.45 87.56 C 178.20 88.21 179.39 85.06 181.03 83.50 C 188.55 85.48 196.23 87.19 203.28 90.57 C 200.38 94.66 197.66 98.89 195.00 103.15 C 191.28 100.47 186.89 97.73 182.10 98.31 C 177.50 98.85 174.27 104.32 176.65 108.52 C 172.61 108.90 168.94 105.60 169.29 101.47 C 168.00 101.39 166.72 101.31 165.43 101.24 C 165.40 99.37 165.53 97.47 165.16 95.63 C 164.23 92.76 162.19 90.35 161.56 87.36 C 160.75 83.62 160.54 79.69 158.81 76.21 C 157.58 73.34 155.58 70.77 154.85 67.71 C 154.99 64.60 156.71 61.49 155.63 58.38 C 153.59 56.72 150.74 57.65 148.36 57.79 C 149.27 56.90 150.20 56.02 151.15 55.17 Z" />
</g>
<g id="#7e5c93ff">
<path fill="#7e5c93" opacity="1.00" d=" M 131.94 55.84 C 134.80 55.04 137.81 55.35 140.74 55.27 C 141.42 56.05 142.10 56.83 142.78 57.61 C 142.50 61.76 142.76 65.93 143.33 70.04 C 144.00 76.59 146.98 82.60 149.75 88.47 C 147.93 88.97 146.09 89.43 144.30 90.03 C 143.03 87.27 141.60 84.58 140.06 81.96 C 137.06 77.60 138.90 72.02 137.07 67.26 C 135.57 71.57 135.20 76.20 133.42 80.43 C 131.72 84.66 129.91 88.99 129.63 93.60 C 129.86 95.33 130.97 96.80 131.59 98.41 C 132.64 100.47 132.13 102.85 132.26 105.06 C 132.13 108.45 133.03 112.14 131.15 115.22 C 129.68 117.89 128.84 120.83 127.51 123.56 C 125.91 126.33 123.86 128.79 122.15 131.48 C 126.96 131.48 130.61 134.55 133.41 138.13 L 133.62 138.96 C 127.56 133.89 117.46 136.25 113.66 142.99 C 113.27 145.33 113.55 147.72 113.61 150.08 C 115.62 151.66 117.85 153.01 120.49 152.96 C 121.90 149.72 123.25 146.31 125.83 143.80 C 128.00 141.60 130.91 140.41 133.69 139.18 C 134.23 141.03 134.85 142.85 135.48 144.68 C 138.42 141.54 141.49 138.50 144.86 135.82 C 145.66 135.08 147.16 135.21 147.64 136.28 C 147.43 139.35 145.60 141.99 144.59 144.83 C 140.31 147.66 136.88 151.54 132.71 154.51 C 129.07 154.13 125.93 156.23 122.79 157.72 C 116.82 160.81 110.41 163.07 103.86 164.55 C 96.88 165.57 89.73 165.47 82.75 164.51 C 86.40 162.57 90.77 163.41 94.55 161.76 C 99.20 161.32 104.41 162.57 108.38 159.39 C 110.55 158.25 110.48 155.68 110.63 153.58 C 106.47 152.02 102.83 154.96 98.91 155.82 C 92.65 156.88 86.24 156.60 79.96 155.78 C 84.61 154.02 89.27 152.28 93.49 149.61 C 97.40 148.20 104.13 148.15 103.89 142.42 C 104.52 142.82 105.16 143.21 105.80 143.61 C 107.49 137.77 111.42 132.60 111.69 126.38 C 112.09 122.74 113.76 119.20 112.76 115.50 C 106.34 112.98 99.94 110.23 93.15 108.82 C 78.99 105.62 64.50 103.40 49.94 103.64 C 45.52 103.68 41.10 103.51 36.67 103.43 C 39.67 103.05 42.66 102.68 45.67 102.42 C 61.84 101.91 78.03 103.52 93.90 106.58 C 99.22 109.26 105.20 109.89 111.00 110.84 C 114.26 111.13 117.90 112.35 121.02 110.99 C 124.58 107.24 122.92 101.31 120.66 97.27 C 119.58 97.29 118.50 97.31 117.43 97.33 C 116.93 98.57 116.42 99.81 115.99 101.07 C 116.09 98.65 115.99 96.22 115.52 93.84 L 115.34 92.70 C 113.62 93.98 111.95 95.34 110.52 96.94 C 104.69 96.32 98.79 96.76 93.00 95.73 C 83.37 94.34 73.76 92.19 63.97 92.48 C 57.36 92.59 50.69 92.05 44.11 92.89 C 43.73 93.18 42.96 93.76 42.58 94.05 C 46.09 94.13 49.60 93.97 53.11 93.92 C 53.22 95.37 53.32 96.81 53.43 98.26 C 50.29 98.48 47.15 98.70 44.01 98.89 C 43.46 97.36 42.92 95.82 42.38 94.29 C 37.31 94.64 32.37 95.85 27.41 96.92 C 27.56 97.42 27.84 98.43 27.99 98.93 C 27.45 98.22 26.91 97.52 26.37 96.82 C 25.79 95.83 25.21 94.84 24.63 93.85 C 41.91 88.72 60.15 88.22 77.97 90.03 C 85.89 90.31 93.69 92.87 101.64 91.80 C 102.23 89.46 103.03 87.10 105.02 85.57 C 107.94 86.00 111.02 86.75 113.93 85.95 C 116.55 84.52 118.20 81.54 121.47 81.33 C 120.14 80.61 118.83 79.85 117.51 79.11 C 118.58 78.55 119.66 77.98 120.74 77.42 C 121.86 77.89 122.98 78.36 124.11 78.82 C 123.83 79.99 123.56 81.16 123.28 82.33 C 126.81 81.02 125.99 76.74 126.24 73.77 C 126.65 74.43 127.07 75.10 127.50 75.75 C 128.54 70.56 130.44 65.52 130.61 60.19 C 130.89 58.74 130.53 56.76 131.94 55.84 Z" />
</g>
<g id="#906ea7ff">
<path fill="#906ea7" opacity="1.00" d=" M 145.43 60.73 C 146.38 59.73 147.27 58.65 148.36 57.79 C 150.74 57.65 153.59 56.72 155.63 58.38 C 156.71 61.49 154.99 64.60 154.85 67.71 C 155.58 70.77 157.58 73.34 158.81 76.21 C 160.54 79.69 160.75 83.62 161.56 87.36 C 162.19 90.35 164.23 92.76 165.16 95.63 C 165.53 97.47 165.40 99.37 165.43 101.24 C 166.72 101.31 168.00 101.39 169.29 101.47 C 168.94 105.60 172.61 108.90 176.65 108.52 C 179.59 112.68 182.90 116.78 187.44 119.28 C 182.50 120.51 177.46 122.28 172.31 121.73 C 168.90 120.59 165.71 118.79 162.63 116.96 C 160.30 114.38 158.43 111.37 156.77 108.32 C 155.92 104.72 157.07 100.96 156.51 97.31 C 155.67 96.36 154.51 95.81 153.49 95.12 C 152.09 97.44 150.97 100.01 149.04 101.95 C 147.41 102.64 145.66 102.97 143.96 103.45 C 141.04 100.39 140.57 95.95 141.95 92.07 C 142.08 91.94 142.34 91.69 142.47 91.56 C 145.68 91.53 148.88 91.44 152.09 91.43 C 151.29 90.45 150.49 89.48 149.75 88.47 C 146.98 82.60 144.00 76.59 143.33 70.04 C 142.76 65.93 142.50 61.76 142.78 57.61 C 143.67 58.64 144.55 59.68 145.43 60.73 Z" />
</g>
<g id="#4f326aff">
<path fill="#4f326a" opacity="1.00" d=" M 54.50 58.95 C 56.24 59.49 57.07 61.14 57.88 62.63 C 59.51 66.36 55.25 68.68 52.13 68.95 C 52.48 68.54 53.18 67.71 53.53 67.30 C 54.05 66.96 55.10 66.27 55.62 65.92 C 55.26 63.59 54.86 61.27 54.50 58.95 Z" />
</g>
<g id="#211b28ff">
<path fill="#211b28" opacity="1.00" d=" M 76.63 62.72 C 77.32 61.29 78.26 59.99 79.55 59.04 C 78.43 60.55 77.24 62.07 76.94 63.99 C 76.98 65.38 77.37 66.66 78.12 67.82 C 80.67 68.78 83.48 67.92 86.11 68.53 C 97.00 70.55 107.59 74.20 117.51 79.11 C 118.83 79.85 120.14 80.61 121.47 81.33 C 118.20 81.54 116.55 84.52 113.93 85.95 C 111.02 86.75 107.94 86.00 105.02 85.57 C 98.04 84.14 90.98 82.03 85.12 77.84 C 82.64 76.02 82.30 72.80 82.03 69.98 C 79.52 69.36 76.95 68.61 75.22 66.55 C 75.64 65.25 76.13 63.99 76.63 62.72 M 84.42 70.16 C 84.23 72.24 84.82 74.19 85.85 75.98 C 93.41 81.49 102.83 84.54 112.19 84.46 C 113.51 83.50 115.00 82.59 115.72 81.05 C 115.53 79.61 113.79 79.45 112.76 78.83 C 107.30 76.61 101.73 74.67 96.04 73.17 C 95.67 74.27 95.30 75.38 94.93 76.49 C 92.77 75.94 92.69 73.69 92.37 71.89 C 89.71 71.36 87.08 70.71 84.42 70.16 Z" />
</g>
<g id="#9977aeff">
<path fill="#9977ae" opacity="1.00" d=" M 57.88 62.63 C 64.08 64.24 70.37 62.98 76.63 62.72 C 76.13 63.99 75.64 65.25 75.22 66.55 C 74.72 68.65 74.31 70.84 74.68 73.01 C 74.86 75.72 77.45 77.14 79.06 79.01 C 80.94 80.71 81.12 83.39 81.71 85.70 C 74.43 85.68 67.23 87.16 59.95 86.83 C 47.61 86.67 35.39 88.70 23.55 92.08 L 22.94 92.20 L 22.92 91.25 C 24.62 88.20 26.31 85.13 27.54 81.85 C 27.68 82.22 27.95 82.97 28.09 83.35 C 34.77 82.72 41.18 80.10 46.89 76.66 C 49.73 74.99 50.41 71.52 52.13 68.95 C 55.25 68.68 59.51 66.36 57.88 62.63 Z" />
</g>
<g id="#221e29ff">
<path fill="#221e29" opacity="1.00" d=" M 177.02 65.61 C 185.84 65.84 194.20 69.39 202.49 72.14 C 203.35 72.32 204.22 72.43 205.10 72.49 C 205.00 73.08 204.80 74.26 204.69 74.86 C 205.38 74.41 206.76 73.52 207.44 73.08 C 206.54 74.15 205.63 75.23 204.73 76.31 C 204.01 75.58 203.30 74.85 202.58 74.12 C 201.41 75.10 200.26 76.08 199.13 77.08 C 194.31 80.32 188.18 78.22 183.87 75.14 C 181.19 73.55 180.00 70.61 179.20 67.75 C 178.66 67.21 177.56 66.14 177.02 65.61 M 181.02 67.65 C 181.36 73.61 187.85 76.61 193.03 77.26 C 195.54 77.01 199.57 76.28 199.91 73.27 C 199.24 73.05 197.89 72.60 197.22 72.38 C 196.67 72.78 195.56 73.58 195.01 73.98 C 194.85 73.35 194.54 72.09 194.39 71.46 C 190.02 69.89 185.50 68.82 181.02 67.65 Z" />
<path fill="#221e29" opacity="1.00" d=" M 172.47 80.46 C 179.12 81.53 185.67 83.12 192.16 84.87 C 198.39 86.66 205.47 88.43 208.79 94.62 C 211.52 98.66 214.03 102.91 215.58 107.55 C 215.68 108.67 215.76 109.78 215.84 110.90 C 215.25 111.55 214.67 112.20 214.10 112.86 C 213.71 112.82 212.94 112.72 212.55 112.68 C 212.48 112.31 212.33 111.57 212.26 111.20 C 212.80 109.24 214.34 107.19 213.25 105.13 C 210.87 99.75 207.74 94.49 203.28 90.57 C 196.23 87.19 188.55 85.48 181.03 83.50 C 179.39 85.06 178.20 88.21 175.45 87.56 C 173.20 85.92 173.30 82.85 172.47 80.46 M 174.14 82.32 C 174.59 83.85 175.18 85.33 175.84 86.78 C 176.48 86.37 177.74 85.55 178.38 85.14 C 178.54 84.71 178.88 83.87 179.04 83.44 C 177.43 82.97 175.80 82.57 174.14 82.32 M 214.25 108.70 C 213.26 109.12 212.38 111.44 213.77 111.79 C 214.87 111.44 215.60 109.10 214.25 108.70 Z" />
</g>
<g id="#9572adff">
<path fill="#9572ad" opacity="1.00" d=" M 213.36 66.41 L 213.71 66.21 C 216.96 70.38 219.21 75.20 220.79 80.22 C 221.20 82.94 224.85 83.22 225.36 85.86 C 226.51 88.92 226.28 92.18 225.26 95.24 C 224.24 95.90 223.22 96.58 222.22 97.26 L 221.85 95.99 C 220.52 90.93 217.98 86.28 214.90 82.08 C 212.95 79.54 210.36 77.56 208.55 74.91 C 212.16 79.64 211.20 85.66 212.62 91.09 C 211.35 92.27 210.07 93.45 208.79 94.62 C 205.47 88.43 198.39 86.66 192.16 84.87 C 192.49 84.13 193.14 82.64 193.47 81.89 C 195.55 81.15 197.61 80.36 199.58 79.37 C 199.47 78.80 199.24 77.65 199.13 77.08 C 200.26 76.08 201.41 75.10 202.58 74.12 C 203.30 74.85 204.01 75.58 204.73 76.31 C 205.63 75.23 206.54 74.15 207.44 73.08 C 206.76 73.52 205.38 74.41 204.69 74.86 C 204.80 74.26 205.00 73.08 205.10 72.49 C 204.22 72.43 203.35 72.32 202.49 72.14 C 202.04 70.67 201.33 69.29 200.51 67.99 C 203.91 66.61 207.42 67.71 210.73 68.78 C 211.60 67.99 212.46 67.18 213.36 66.41 Z" />
</g>
<g id="#1a1621ff">
<path fill="#1a1621" opacity="1.00" d=" M 30.86 72.08 C 37.90 68.75 45.70 66.69 53.53 67.30 C 53.18 67.71 52.48 68.54 52.13 68.95 C 50.41 71.52 49.73 74.99 46.89 76.66 C 41.18 80.10 34.77 82.72 28.09 83.35 C 27.95 82.97 27.68 82.22 27.54 81.85 C 27.04 80.02 26.31 78.22 24.10 78.16 C 25.97 75.76 28.01 73.34 30.86 72.08 M 42.55 70.46 C 42.10 71.82 41.66 73.18 41.22 74.54 C 40.89 74.44 40.23 74.23 39.90 74.13 C 39.84 73.41 39.72 71.95 39.65 71.23 C 38.79 71.51 37.93 71.80 37.06 72.09 C 33.57 73.12 30.29 74.75 27.39 76.96 C 27.70 78.55 28.15 80.11 28.74 81.62 C 35.10 81.88 41.17 78.80 46.26 75.22 C 48.33 73.91 48.91 71.40 49.72 69.25 C 47.30 69.43 44.89 69.82 42.55 70.46 Z" />
<path fill="#1a1621" opacity="1.00" d=" M 208.55 74.91 C 210.36 77.56 212.95 79.54 214.90 82.08 C 217.98 86.28 220.52 90.93 221.85 95.99 C 220.42 96.81 219.14 97.86 217.99 99.05 C 215.39 97.03 213.72 94.15 212.62 91.09 C 211.20 85.66 212.16 79.64 208.55 74.91 M 215.33 94.68 C 216.17 96.47 217.83 97.21 219.73 96.72 C 220.09 93.06 217.80 89.86 215.95 86.92 C 215.56 86.85 214.78 86.69 214.39 86.62 C 214.56 84.70 213.81 83.04 212.51 81.64 C 212.12 86.12 213.03 90.79 215.33 94.68 Z" />
</g>
<g id="#8d6ca2ff">
<path fill="#8d6ca2" opacity="1.00" d=" M 75.22 66.55 C 76.95 68.61 79.52 69.36 82.03 69.98 C 82.30 72.80 82.64 76.02 85.12 77.84 C 90.98 82.03 98.04 84.14 105.02 85.57 C 103.03 87.10 102.23 89.46 101.64 91.80 C 93.69 92.87 85.89 90.31 77.97 90.03 C 60.15 88.22 41.91 88.72 24.63 93.85 C 24.36 93.41 23.82 92.52 23.55 92.08 C 35.39 88.70 47.61 86.67 59.95 86.83 C 67.23 87.16 74.43 85.68 81.71 85.70 C 81.12 83.39 80.94 80.71 79.06 79.01 C 77.45 77.14 74.86 75.72 74.68 73.01 C 74.31 70.84 74.72 68.65 75.22 66.55 Z" />
</g>
<g id="#715287ff">
<path fill="#715287" opacity="1.00" d=" M 133.42 80.43 C 135.20 76.20 135.57 71.57 137.07 67.26 C 138.90 72.02 137.06 77.60 140.06 81.96 C 141.60 84.58 143.03 87.27 144.30 90.03 C 143.84 90.41 142.93 91.18 142.47 91.56 C 142.34 91.69 142.08 91.94 141.95 92.07 C 141.14 92.87 140.33 93.67 139.51 94.47 C 138.83 93.28 138.14 92.08 137.45 90.90 C 135.62 100.32 139.60 109.88 137.27 119.28 C 136.28 123.65 133.55 127.38 132.39 131.67 C 132.59 133.84 133.13 135.97 133.41 138.13 C 130.61 134.55 126.96 131.48 122.15 131.48 C 123.86 128.79 125.91 126.33 127.51 123.56 C 128.84 120.83 129.68 117.89 131.15 115.22 C 133.03 112.14 132.13 108.45 132.26 105.06 C 132.13 102.85 132.64 100.47 131.59 98.41 C 130.97 96.80 129.86 95.33 129.63 93.60 C 129.91 88.99 131.72 84.66 133.42 80.43 Z" />
</g>
<g id="#eeeeeeff">
<path fill="#eeeeee" opacity="1.00" d=" M 181.02 67.65 C 185.50 68.82 190.02 69.89 194.39 71.46 C 194.54 72.09 194.85 73.35 195.01 73.98 C 195.56 73.58 196.67 72.78 197.22 72.38 C 197.89 72.60 199.24 73.05 199.91 73.27 C 199.57 76.28 195.54 77.01 193.03 77.26 C 187.85 76.61 181.36 73.61 181.02 67.65 Z" />
</g>
<g id="#fbf4fdff">
<path fill="#fbf4fd" opacity="1.00" d=" M 42.55 70.46 C 44.89 69.82 47.30 69.43 49.72 69.25 C 48.91 71.40 48.33 73.91 46.26 75.22 C 41.17 78.80 35.10 81.88 28.74 81.62 C 28.15 80.11 27.70 78.55 27.39 76.96 C 30.29 74.75 33.57 73.12 37.06 72.09 C 37.93 71.80 38.79 71.51 39.65 71.23 C 39.72 71.95 39.84 73.41 39.90 74.13 C 40.23 74.23 40.89 74.44 41.22 74.54 C 41.66 73.18 42.10 71.82 42.55 70.46 Z" />
<path fill="#fbf4fd" opacity="1.00" d=" M 174.14 82.32 C 175.80 82.57 177.43 82.97 179.04 83.44 C 178.88 83.87 178.54 84.71 178.38 85.14 C 177.74 85.55 176.48 86.37 175.84 86.78 C 175.18 85.33 174.59 83.85 174.14 82.32 Z" />
</g>
<g id="#412a5dff">
<path fill="#412a5d" opacity="1.00" d=" M 124.43 68.55 C 125.01 70.30 125.61 72.04 126.24 73.77 C 125.99 76.74 126.81 81.02 123.28 82.33 C 123.56 81.16 123.83 79.99 124.11 78.82 C 124.86 75.45 124.58 71.98 124.43 68.55 Z" />
<path fill="#412a5d" opacity="1.00" d=" M 176.65 108.52 C 174.27 104.32 177.50 98.85 182.10 98.31 C 186.89 97.73 191.28 100.47 195.00 103.15 C 197.77 105.72 200.42 108.45 202.85 111.36 C 204.03 112.58 203.59 114.41 203.82 115.94 C 201.88 117.87 200.52 120.80 197.61 121.41 C 194.07 122.37 190.53 120.93 187.44 119.28 C 182.90 116.78 179.59 112.68 176.65 108.52 M 177.95 107.01 C 180.64 112.67 185.79 116.72 191.30 119.47 C 193.15 119.97 195.08 120.47 197.01 120.09 C 200.04 119.76 201.68 116.65 202.27 113.98 C 201.16 111.16 198.42 109.40 196.78 106.91 C 193.13 103.69 188.99 100.60 184.07 99.81 C 180.29 99.27 176.22 103.24 177.95 107.01 Z" />
<path fill="#412a5d" opacity="1.00" d=" M 181.56 108.47 C 180.32 106.54 181.85 104.32 183.75 103.65 C 187.88 103.45 191.37 106.02 194.54 108.32 C 196.16 110.23 199.15 111.88 198.78 114.74 C 197.89 117.33 194.99 117.03 192.80 116.87 C 188.15 115.53 184.76 111.87 181.56 108.47 M 182.39 106.99 C 184.80 109.75 187.57 112.29 190.69 114.23 C 192.86 115.03 195.79 116.37 197.62 114.24 C 194.46 110.28 190.42 106.60 185.38 105.40 C 184.03 104.99 183.00 105.84 182.39 106.99 Z" />
<path fill="#412a5d" opacity="1.00" d=" M 40.35 129.93 C 40.10 125.65 44.09 122.96 47.67 121.66 C 54.40 121.20 61.21 121.03 67.89 122.07 C 72.03 122.71 75.62 125.00 79.42 126.61 C 80.45 127.23 81.97 127.45 82.49 128.68 C 82.71 131.56 82.94 134.44 83.45 137.28 C 80.87 140.83 76.38 141.79 72.64 143.64 C 72.12 144.84 71.61 146.03 71.09 147.23 C 66.79 146.95 62.16 148.83 58.08 147.07 C 55.75 144.69 53.99 141.63 50.52 140.70 C 45.87 138.76 40.68 135.52 40.35 129.93 M 46.33 124.51 C 44.74 125.00 43.67 126.39 42.76 127.69 C 40.45 130.40 42.83 134.06 45.06 135.98 C 48.66 138.14 52.37 140.17 56.29 141.68 C 57.13 143.41 57.68 146.08 60.00 146.30 C 63.23 146.10 66.44 145.61 69.69 145.64 C 70.07 144.55 70.35 143.42 70.52 142.27 C 74.24 140.48 78.81 139.72 81.46 136.28 C 80.63 134.03 80.55 131.63 80.54 129.27 C 75.45 127.24 70.74 123.82 65.09 123.57 C 58.85 123.41 52.39 122.52 46.33 124.51 Z" />
<path fill="#412a5d" opacity="1.00" d=" M 51.36 128.27 C 58.49 125.49 66.05 128.75 73.21 129.75 C 74.92 131.70 75.60 135.52 73.03 137.03 C 68.86 139.68 63.57 140.02 58.91 138.58 C 55.71 137.57 51.84 137.09 49.73 134.16 C 48.63 132.24 48.85 128.90 51.36 128.27 M 53.49 129.60 C 52.11 129.90 51.15 131.01 50.11 131.87 C 51.03 132.99 51.75 134.41 53.14 135.02 C 59.24 137.60 66.58 138.96 72.48 135.11 C 72.52 134.27 72.61 132.58 72.65 131.73 C 66.39 130.31 59.95 128.22 53.49 129.60 Z" />
<path fill="#412a5d" opacity="1.00" d=" M 31.55 136.02 C 31.89 135.33 32.56 133.94 32.90 133.25 C 39.42 134.94 41.83 142.15 48.00 144.48 C 53.71 147.60 59.74 150.34 66.06 151.95 C 73.01 150.06 79.87 147.60 86.42 144.59 C 89.35 143.56 90.41 140.51 92.34 138.38 C 94.72 137.15 97.51 137.01 100.14 136.84 C 102.52 137.59 102.94 140.44 103.89 142.42 C 104.13 148.15 97.40 148.20 93.49 149.61 C 89.27 152.28 84.61 154.02 79.96 155.78 C 86.24 156.60 92.65 156.88 98.91 155.82 C 102.83 154.96 106.47 152.02 110.63 153.58 C 110.48 155.68 110.55 158.25 108.38 159.39 C 104.41 162.57 99.20 161.32 94.55 161.76 C 88.33 161.87 82.04 162.10 75.95 160.61 C 71.69 159.59 67.27 159.67 63.00 160.59 C 58.93 161.22 54.92 160.09 51.02 159.08 L 51.46 160.60 C 48.85 159.20 46.23 157.76 43.96 155.84 C 49.41 159.15 56.18 159.55 62.39 159.25 C 67.05 158.37 71.81 158.48 76.44 159.48 C 82.80 160.90 89.33 160.22 95.78 160.27 C 99.63 160.00 104.19 161.28 107.33 158.35 C 108.35 157.46 109.67 154.10 107.09 154.57 C 104.50 154.83 102.22 156.20 99.94 157.34 C 93.37 157.96 86.76 157.80 80.17 157.49 C 78.12 157.42 76.15 156.83 74.36 155.86 C 80.75 153.65 87.55 152.04 92.96 147.77 C 96.12 147.02 99.72 147.11 101.97 144.33 C 101.41 142.62 100.85 140.91 100.30 139.20 C 98.33 139.23 96.32 139.07 94.39 139.51 C 92.63 140.10 92.26 142.18 91.48 143.63 C 84.07 148.68 75.23 150.73 66.90 153.70 C 66.22 153.49 64.87 153.08 64.19 152.87 C 57.32 151.01 50.96 147.73 44.85 144.15 C 40.51 141.73 38.47 136.26 33.30 135.20 C 33.08 138.59 34.29 142.86 37.86 144.02 C 41.21 144.49 43.71 146.87 46.62 148.34 C 51.41 150.72 56.08 153.40 61.19 155.05 C 60.87 155.35 60.22 155.96 59.89 156.26 C 52.82 157.56 45.81 155.05 39.69 151.68 L 42.65 154.65 C 40.33 153.14 38.43 151.09 36.24 149.42 C 42.32 152.56 49.22 156.11 56.22 154.71 C 52.23 152.32 47.95 150.43 43.99 147.97 C 41.10 146.09 37.32 145.66 34.95 142.99 C 33.10 141.09 32.41 138.45 31.55 136.02 Z" />
</g>
<g id="#e0d9e5ff">
<path fill="#e0d9e5" opacity="1.00" d=" M 84.42 70.16 C 87.08 70.71 89.71 71.36 92.37 71.89 C 92.69 73.69 92.77 75.94 94.93 76.49 C 95.30 75.38 95.67 74.27 96.04 73.17 C 101.73 74.67 107.30 76.61 112.76 78.83 C 113.79 79.45 115.53 79.61 115.72 81.05 C 115.00 82.59 113.51 83.50 112.19 84.46 C 102.83 84.54 93.41 81.49 85.85 75.98 C 84.82 74.19 84.23 72.24 84.42 70.16 Z" />
</g>
<g id="#eebbffff">
<path fill="#eebbff" opacity="1.00" d=" M 22.09 77.22 C 24.88 81.11 22.57 85.59 21.27 89.55 C 20.71 91.25 20.11 92.94 19.79 94.71 C 19.12 99.34 19.75 104.07 18.90 108.70 C 18.27 104.39 18.08 100.03 18.00 95.69 C 18.37 94.47 18.81 93.27 19.26 92.08 C 19.97 90.61 20.17 88.99 20.15 87.38 C 20.35 83.92 21.41 80.60 22.09 77.22 Z" />
</g>
<g id="#a7a7a7ff">
<path fill="#a7a7a7" opacity="1.00" d=" M 215.33 94.68 C 213.03 90.79 212.12 86.12 212.51 81.64 C 213.81 83.04 214.56 84.70 214.39 86.62 C 214.78 86.69 215.56 86.85 215.95 86.92 C 217.80 89.86 220.09 93.06 219.73 96.72 C 217.83 97.21 216.17 96.47 215.33 94.68 Z" />
</g>
<g id="#4f3d5286">
<path fill="#4f3d52" opacity="0.53" d=" M 19.26 92.08 C 18.15 90.91 18.22 87.38 20.15 87.38 C 20.17 88.99 19.97 90.61 19.26 92.08 Z" />
</g>
<g id="#a27db9ff">
<path fill="#a27db9" opacity="1.00" d=" M 144.30 90.03 C 146.09 89.43 147.93 88.97 149.75 88.47 C 150.49 89.48 151.29 90.45 152.09 91.43 C 148.88 91.44 145.68 91.53 142.47 91.56 C 142.93 91.18 143.84 90.41 144.30 90.03 Z" />
</g>
<g id="#d6cedcff">
<path fill="#d6cedc" opacity="1.00" d=" M 21.27 89.55 C 21.68 89.98 22.51 90.83 22.92 91.25 L 22.94 92.20 C 23.29 96.52 23.68 100.85 24.53 105.11 C 24.15 105.20 23.39 105.38 23.00 105.47 C 21.32 102.10 20.27 98.44 19.79 94.71 C 20.11 92.94 20.71 91.25 21.27 89.55 Z" />
</g>
<g id="#64467aff">
<path fill="#64467a" opacity="1.00" d=" M 137.27 119.28 C 139.60 109.88 135.62 100.32 137.45 90.90 C 138.14 92.08 138.83 93.28 139.51 94.47 C 140.33 93.67 141.14 92.87 141.95 92.07 C 140.57 95.95 141.04 100.39 143.96 103.45 C 144.26 111.84 145.77 120.50 150.56 127.57 C 151.66 129.22 153.39 130.28 155.10 131.20 C 153.98 132.77 152.84 134.32 151.70 135.87 C 155.99 139.35 160.09 143.13 164.78 146.09 C 164.59 149.40 161.39 151.72 158.23 151.43 C 155.10 149.42 153.35 145.80 150.14 143.82 C 148.69 144.60 147.22 145.36 145.71 145.99 L 144.35 146.14 L 144.59 144.83 C 145.60 141.99 147.43 139.35 147.64 136.28 C 147.16 135.21 145.66 135.08 144.86 135.82 C 141.49 138.50 138.42 141.54 135.48 144.68 C 134.85 142.85 134.23 141.03 133.69 139.18 L 133.62 138.96 L 133.41 138.13 C 133.13 135.97 132.59 133.84 132.39 131.67 C 133.55 127.38 136.28 123.65 137.27 119.28 Z" />
<path fill="#64467a" opacity="1.00" d=" M 38.02 114.33 C 46.64 113.73 55.31 113.58 63.91 114.49 C 72.56 114.95 81.41 115.62 89.28 119.59 C 84.11 119.55 79.22 117.52 74.07 117.32 C 62.27 116.56 50.34 115.20 38.55 116.40 C 37.18 116.63 35.82 116.94 34.46 117.25 C 34.13 117.06 33.47 116.69 33.15 116.51 C 34.76 115.77 36.37 115.00 38.02 114.33 Z" />
</g>
<g id="#8968a4ff">
<path fill="#8968a4" opacity="1.00" d=" M 203.28 90.57 C 207.74 94.49 210.87 99.75 213.25 105.13 C 214.34 107.19 212.80 109.24 212.26 111.20 C 211.88 110.73 211.12 109.78 210.73 109.31 C 208.47 111.57 206.04 113.65 203.82 115.94 C 203.59 114.41 204.03 112.58 202.85 111.36 C 200.42 108.45 197.77 105.72 195.00 103.15 C 197.66 98.89 200.38 94.66 203.28 90.57 Z" />
</g>
<g id="#805f9bff">
<path fill="#805f9b" opacity="1.00" d=" M 212.62 91.09 C 213.72 94.15 215.39 97.03 217.99 99.05 C 217.88 102.05 216.93 104.90 215.58 107.55 C 214.03 102.91 211.52 98.66 208.79 94.62 C 210.07 93.45 211.35 92.27 212.62 91.09 Z" />
</g>
<g id="#b8abc2ff">
<path fill="#b8abc2" opacity="1.00" d=" M 22.94 92.20 L 23.55 92.08 C 23.82 92.52 24.36 93.41 24.63 93.85 C 25.21 94.84 25.79 95.83 26.37 96.82 C 27.13 99.24 27.47 101.75 27.75 104.27 C 26.94 104.48 25.33 104.90 24.53 105.11 C 23.68 100.85 23.29 96.52 22.94 92.20 Z" />
</g>
<g id="#634775ff">
<path fill="#634775" opacity="1.00" d=" M 42.58 94.05 C 42.96 93.76 43.73 93.18 44.11 92.89 C 50.69 92.05 57.36 92.59 63.97 92.48 C 73.76 92.19 83.37 94.34 93.00 95.73 C 98.79 96.76 104.69 96.32 110.52 96.94 C 109.57 98.03 108.63 99.14 107.69 100.23 C 101.81 98.77 95.84 97.72 89.87 96.72 C 88.79 98.31 87.72 99.90 86.56 101.44 L 85.96 101.37 L 86.14 100.47 C 86.40 99.17 86.66 97.87 86.92 96.57 C 82.28 95.87 77.63 95.13 72.95 94.68 C 66.80 94.17 60.63 93.76 54.45 93.99 C 54.11 95.41 53.77 96.83 53.43 98.26 C 53.32 96.81 53.22 95.37 53.11 93.92 C 49.60 93.97 46.09 94.13 42.58 94.05 Z" />
</g>
<g id="#cbc0d3ff">
<path fill="#cbc0d3" opacity="1.00" d=" M 110.52 96.94 C 111.95 95.34 113.62 93.98 115.34 92.70 L 115.52 93.84 C 115.15 96.84 114.80 99.94 113.44 102.68 C 112.52 104.73 110.12 105.17 108.27 106.00 C 107.32 104.97 106.36 103.94 105.40 102.92 C 106.15 102.01 106.91 101.12 107.69 100.23 C 108.63 99.14 109.57 98.03 110.52 96.94 Z" />
</g>
<g id="#602335ff">
<path fill="#602335" opacity="1.00" d=" M 27.41 96.92 C 32.37 95.85 37.31 94.64 42.38 94.29 C 42.92 95.82 43.46 97.36 44.01 98.89 C 47.15 98.70 50.29 98.48 53.43 98.26 C 53.77 96.83 54.11 95.41 54.45 93.99 C 60.63 93.76 66.80 94.17 72.95 94.68 C 73.38 96.11 73.81 97.55 74.23 99.00 C 78.19 99.56 82.16 100.04 86.14 100.47 L 85.96 101.37 C 72.60 99.83 58.84 99.26 45.67 102.42 C 42.66 102.68 39.67 103.05 36.67 103.43 C 34.86 103.59 33.05 103.78 31.24 103.97 C 30.17 102.28 29.09 100.59 27.99 98.93 C 27.84 98.43 27.56 97.42 27.41 96.92 Z" />
</g>
<g id="#b6a6bfff">
<path fill="#b6a6bf" opacity="1.00" d=" M 115.52 93.84 C 115.99 96.22 116.09 98.65 115.99 101.07 C 115.97 101.37 115.94 101.98 115.93 102.28 C 114.44 104.46 112.83 106.54 111.17 108.59 C 109.38 108.54 107.59 108.50 105.80 108.41 C 104.53 108.23 103.26 108.05 102.00 107.86 C 102.72 106.72 103.44 105.58 104.22 104.47 C 104.52 104.08 105.11 103.31 105.40 102.92 C 106.36 103.94 107.32 104.97 108.27 106.00 C 110.12 105.17 112.52 104.73 113.44 102.68 C 114.80 99.94 115.15 96.84 115.52 93.84 Z" />
</g>
<g id="#916ea6ff">
<path fill="#916ea6" opacity="1.00" d=" M 18.90 108.70 C 19.75 104.07 19.12 99.34 19.79 94.71 C 20.27 98.44 21.32 102.10 23.00 105.47 C 23.39 105.38 24.15 105.20 24.53 105.11 C 25.33 104.90 26.94 104.48 27.75 104.27 C 27.47 101.75 27.13 99.24 26.37 96.82 C 26.91 97.52 27.45 98.22 27.99 98.93 C 29.09 100.59 30.17 102.28 31.24 103.97 C 33.05 103.78 34.86 103.59 36.67 103.43 C 41.10 103.51 45.52 103.68 49.94 103.64 C 64.50 103.40 78.99 105.62 93.15 108.82 C 99.94 110.23 106.34 112.98 112.76 115.50 C 113.76 119.20 112.09 122.74 111.69 126.38 C 111.42 132.60 107.49 137.77 105.80 143.61 C 105.16 143.21 104.52 142.82 103.89 142.42 C 102.94 140.44 102.52 137.59 100.14 136.84 C 97.51 137.01 94.72 137.15 92.34 138.38 C 90.41 140.51 89.35 143.56 86.42 144.59 C 79.87 147.60 73.01 150.06 66.06 151.95 C 59.74 150.34 53.71 147.60 48.00 144.48 C 48.68 144.28 50.03 143.88 50.71 143.68 C 50.65 142.68 50.58 141.69 50.52 140.70 C 53.99 141.63 55.75 144.69 58.08 147.07 C 62.16 148.83 66.79 146.95 71.09 147.23 C 71.61 146.03 72.12 144.84 72.64 143.64 C 76.38 141.79 80.87 140.83 83.45 137.28 C 82.94 134.44 82.71 131.56 82.49 128.68 C 83.70 131.29 84.78 133.96 86.02 136.55 C 89.66 135.73 91.29 132.27 92.88 129.28 C 91.96 128.42 91.04 127.56 90.13 126.70 C 90.65 124.61 91.18 122.52 91.71 120.44 C 93.78 119.98 95.85 119.50 97.92 118.98 C 97.88 117.83 97.85 116.68 97.82 115.53 C 95.48 115.40 93.00 115.32 91.02 113.89 C 85.49 110.30 78.79 109.44 72.41 108.48 C 66.93 107.72 61.53 106.19 55.96 106.29 C 47.66 106.28 39.32 105.20 31.05 106.31 C 29.55 106.48 28.46 107.66 27.25 108.43 C 24.47 108.52 21.69 108.67 18.90 108.70 Z" />
</g>
<g id="#786488ff">
<path fill="#786488" opacity="1.00" d=" M 72.95 94.68 C 77.63 95.13 82.28 95.87 86.92 96.57 C 86.66 97.87 86.40 99.17 86.14 100.47 C 82.16 100.04 78.19 99.56 74.23 99.00 C 73.81 97.55 73.38 96.11 72.95 94.68 Z" />
</g>
<g id="#7e5c97ff">
<path fill="#7e5c97" opacity="1.00" d=" M 153.49 95.12 C 154.51 95.81 155.67 96.36 156.51 97.31 C 157.07 100.96 155.92 104.72 156.77 108.32 C 158.43 111.37 160.30 114.38 162.63 116.96 C 165.71 118.79 168.90 120.59 172.31 121.73 C 177.46 122.28 182.50 120.51 187.44 119.28 C 190.53 120.93 194.07 122.37 197.61 121.41 C 200.52 120.80 201.88 117.87 203.82 115.94 C 206.04 113.65 208.47 111.57 210.73 109.31 C 211.12 109.78 211.88 110.73 212.26 111.20 C 212.33 111.57 212.48 112.31 212.55 112.68 C 212.94 112.72 213.71 112.82 214.10 112.86 C 211.90 118.25 207.94 122.53 204.81 127.35 C 207.42 125.74 209.87 123.88 212.36 122.09 C 209.96 126.68 205.38 129.39 201.24 132.20 C 202.15 130.63 203.06 129.07 203.96 127.50 C 201.02 128.68 198.27 130.35 196.32 132.90 C 193.48 135.02 189.76 135.52 186.40 136.39 C 185.73 137.09 185.11 137.83 184.48 138.56 C 181.14 137.37 177.58 137.19 174.06 137.19 C 167.45 136.37 160.94 134.45 155.10 131.20 C 153.39 130.28 151.66 129.22 150.56 127.57 C 145.77 120.50 144.26 111.84 143.96 103.45 C 145.66 102.97 147.41 102.64 149.04 101.95 C 150.97 100.01 152.09 97.44 153.49 95.12 Z" />
</g>
<g id="#c292cfff">
<path fill="#c292cf" opacity="1.00" d=" M 17.66 107.39 C 16.93 103.53 17.07 99.50 18.00 95.69 C 18.08 100.03 18.27 104.39 18.90 108.70 C 19.21 114.28 24.45 118.13 24.53 123.76 C 24.74 126.23 23.32 128.35 21.82 130.16 C 19.92 132.45 17.99 134.72 16.17 137.08 C 16.06 136.42 15.85 135.10 15.74 134.43 C 18.33 132.27 21.54 129.11 20.67 125.43 C 20.15 123.81 19.59 122.20 19.00 120.61 C 17.69 117.28 16.68 113.84 15.89 110.36 C 14.71 110.53 13.53 110.72 12.35 110.92 C 14.04 109.63 15.88 108.56 17.66 107.39 Z" />
</g>
<g id="#6b283aff">
<path fill="#6b283a" opacity="1.00" d=" M 86.56 101.44 C 87.72 99.90 88.79 98.31 89.87 96.72 C 95.84 97.72 101.81 98.77 107.69 100.23 C 106.91 101.12 106.15 102.01 105.40 102.92 C 105.11 103.31 104.52 104.08 104.22 104.47 C 98.40 103.08 92.47 102.27 86.56 101.44 Z" />
</g>
<g id="#6b4e81ff">
<path fill="#6b4e81" opacity="1.00" d=" M 117.43 97.33 C 118.50 97.31 119.58 97.29 120.66 97.27 C 122.92 101.31 124.58 107.24 121.02 110.99 C 117.90 112.35 114.26 111.13 111.00 110.84 C 105.20 109.89 99.22 109.26 93.90 106.58 C 96.58 107.07 99.29 107.46 102.00 107.86 C 103.26 108.05 104.53 108.23 105.80 108.41 C 108.93 108.93 112.12 109.23 115.29 108.99 C 116.48 108.91 117.67 108.82 118.86 108.73 C 119.00 107.26 120.02 105.53 118.98 104.18 C 118.03 103.44 117.01 102.81 115.93 102.28 C 115.94 101.98 115.97 101.37 115.99 101.07 C 116.42 99.81 116.93 98.57 117.43 97.33 Z" />
</g>
<g id="#906fa9ff">
<path fill="#906fa9" opacity="1.00" d=" M 217.99 99.05 C 219.14 97.86 220.42 96.81 221.85 95.99 C 222.55 103.17 219.63 109.99 216.08 116.04 C 215.10 117.90 213.10 119.54 213.38 121.83 C 213.64 124.18 214.91 126.24 216.33 128.07 C 214.31 132.26 210.04 135.00 205.79 136.54 C 203.15 134.32 200.00 131.97 196.32 132.90 C 198.27 130.35 201.02 128.68 203.96 127.50 C 203.06 129.07 202.15 130.63 201.24 132.20 C 205.38 129.39 209.96 126.68 212.36 122.09 C 209.87 123.88 207.42 125.74 204.81 127.35 C 207.94 122.53 211.90 118.25 214.10 112.86 C 214.67 112.20 215.25 111.55 215.84 110.90 C 215.76 109.78 215.68 108.67 215.58 107.55 C 216.93 104.90 217.88 102.05 217.99 99.05 Z" />
</g>
<g id="#ca5567ff">
<path fill="#ca5567" opacity="1.00" d=" M 45.67 102.42 C 58.84 99.26 72.60 99.83 85.96 101.37 L 86.56 101.44 C 92.47 102.27 98.40 103.08 104.22 104.47 C 103.44 105.58 102.72 106.72 102.00 107.86 C 99.29 107.46 96.58 107.07 93.90 106.58 C 78.03 103.52 61.84 101.91 45.67 102.42 Z" />
</g>
<g id="#ece2e1ff">
<path fill="#ece2e1" opacity="1.00" d=" M 177.95 107.01 C 176.22 103.24 180.29 99.27 184.07 99.81 C 188.99 100.60 193.13 103.69 196.78 106.91 C 196.22 107.26 195.10 107.96 194.54 108.32 C 191.37 106.02 187.88 103.45 183.75 103.65 C 181.85 104.32 180.32 106.54 181.56 108.47 C 184.76 111.87 188.15 115.53 192.80 116.87 C 192.42 117.52 191.67 118.82 191.30 119.47 C 185.79 116.72 180.64 112.67 177.95 107.01 Z" />
</g>
<g id="#9781a3ff">
<path fill="#9781a3" opacity="1.00" d=" M 111.17 108.59 C 112.83 106.54 114.44 104.46 115.93 102.28 C 115.76 104.52 115.56 106.76 115.29 108.99 C 112.12 109.23 108.93 108.93 105.80 108.41 C 107.59 108.50 109.38 108.54 111.17 108.59 Z" />
</g>
<g id="#732f44ff">
<path fill="#732f44" opacity="1.00" d=" M 115.93 102.28 C 117.01 102.81 118.03 103.44 118.98 104.18 C 120.02 105.53 119.00 107.26 118.86 108.73 C 117.67 108.82 116.48 108.91 115.29 108.99 C 115.56 106.76 115.76 104.52 115.93 102.28 Z" />
</g>
<g id="#8f6ea8ff">
<path fill="#8f6ea8" opacity="1.00" d=" M 182.39 106.99 C 183.00 105.84 184.03 104.99 185.38 105.40 C 190.42 106.60 194.46 110.28 197.62 114.24 C 195.79 116.37 192.86 115.03 190.69 114.23 C 187.57 112.29 184.80 109.75 182.39 106.99 Z" />
</g>
<g id="#9d7bb2ff">
<path fill="#9d7bb2" opacity="1.00" d=" M 27.25 108.43 C 28.46 107.66 29.55 106.48 31.05 106.31 C 39.32 105.20 47.66 106.28 55.96 106.29 C 61.53 106.19 66.93 107.72 72.41 108.48 C 78.79 109.44 85.49 110.30 91.02 113.89 C 93.00 115.32 95.48 115.40 97.82 115.53 C 97.85 116.68 97.88 117.83 97.92 118.98 C 95.85 119.50 93.78 119.98 91.71 120.44 C 91.18 122.52 90.65 124.61 90.13 126.70 C 91.04 127.56 91.96 128.42 92.88 129.28 C 91.29 132.27 89.66 135.73 86.02 136.55 C 84.78 133.96 83.70 131.29 82.49 128.68 C 81.97 127.45 80.45 127.23 79.42 126.61 C 75.62 125.00 72.03 122.71 67.89 122.07 C 61.21 121.03 54.40 121.20 47.67 121.66 C 50.35 120.21 53.30 119.43 56.25 118.78 C 50.58 116.71 44.45 117.18 38.55 116.40 C 50.34 115.20 62.27 116.56 74.07 117.32 C 79.22 117.52 84.11 119.55 89.28 119.59 C 81.41 115.62 72.56 114.95 63.91 114.49 C 55.31 113.58 46.64 113.73 38.02 114.33 C 41.18 112.82 44.74 112.83 48.17 112.58 C 47.83 111.71 47.47 110.86 47.07 110.03 C 40.77 107.37 33.86 108.76 27.25 108.43 Z" />
</g>
<g id="#cfbcccff">
<path fill="#cfbccc" opacity="1.00" d=" M 196.78 106.91 C 198.42 109.40 201.16 111.16 202.27 113.98 C 201.68 116.65 200.04 119.76 197.01 120.09 C 195.08 120.47 193.15 119.97 191.30 119.47 C 191.67 118.82 192.42 117.52 192.80 116.87 C 194.99 117.03 197.89 117.33 198.78 114.74 C 199.15 111.88 196.16 110.23 194.54 108.32 C 195.10 107.96 196.22 107.26 196.78 106.91 Z" />
</g>
<g id="#a986bfff">
<path fill="#a986bf" opacity="1.00" d=" M 18.90 108.70 C 21.69 108.67 24.47 108.52 27.25 108.43 C 33.86 108.76 40.77 107.37 47.07 110.03 C 47.47 110.86 47.83 111.71 48.17 112.58 C 44.74 112.83 41.18 112.82 38.02 114.33 C 36.37 115.00 34.76 115.77 33.15 116.51 C 33.47 116.69 34.13 117.06 34.46 117.25 C 35.82 116.94 37.18 116.63 38.55 116.40 C 44.45 117.18 50.58 116.71 56.25 118.78 C 53.30 119.43 50.35 120.21 47.67 121.66 C 44.09 122.96 40.10 125.65 40.35 129.93 C 40.68 135.52 45.87 138.76 50.52 140.70 C 50.58 141.69 50.65 142.68 50.71 143.68 C 50.03 143.88 48.68 144.28 48.00 144.48 C 41.83 142.15 39.42 134.94 32.90 133.25 C 32.56 133.94 31.89 135.33 31.55 136.02 C 32.41 138.45 33.10 141.09 34.95 142.99 C 37.32 145.66 41.10 146.09 43.99 147.97 C 47.95 150.43 52.23 152.32 56.22 154.71 C 49.22 156.11 42.32 152.56 36.24 149.42 C 35.75 149.20 34.76 148.77 34.27 148.55 C 33.86 148.38 33.02 148.05 32.61 147.88 C 32.79 147.53 33.15 146.83 33.33 146.48 C 32.97 145.65 32.61 144.83 32.24 144.01 C 30.07 138.51 25.15 134.90 21.82 130.16 C 23.32 128.35 24.74 126.23 24.53 123.76 C 24.45 118.13 19.21 114.28 18.90 108.70 Z" />
</g>
<g id="#a797b8ff">
<path fill="#a797b8" opacity="1.00" d=" M 214.25 108.70 C 215.60 109.10 214.87 111.44 213.77 111.79 C 212.38 111.44 213.26 109.12 214.25 108.70 Z" />
</g>
<g id="#9676aefe">
<path fill="#9676ae" opacity="1.00" d=" M 12.35 110.92 C 13.53 110.72 14.71 110.53 15.89 110.36 C 16.68 113.84 17.69 117.28 19.00 120.61 C 16.83 119.81 14.52 119.58 12.22 119.41 C 11.97 116.68 10.45 113.34 12.35 110.92 Z" />
</g>
<g id="#7f6198fc">
<path fill="#7f6198" opacity="1.00" d=" M 12.22 119.41 C 14.52 119.58 16.83 119.81 19.00 120.61 C 19.59 122.20 20.15 123.81 20.67 125.43 C 19.07 125.40 17.46 125.38 15.86 125.38 C 13.91 123.89 13.03 121.63 12.22 119.41 Z" />
</g>
<g id="#f3e9e5ff">
<path fill="#f3e9e5" opacity="1.00" d=" M 46.33 124.51 C 52.39 122.52 58.85 123.41 65.09 123.57 C 70.74 123.82 75.45 127.24 80.54 129.27 C 80.55 131.63 80.63 134.03 81.46 136.28 C 78.81 139.72 74.24 140.48 70.52 142.27 C 70.35 143.42 70.07 144.55 69.69 145.64 C 66.44 145.61 63.23 146.10 60.00 146.30 C 57.68 146.08 57.13 143.41 56.29 141.68 C 52.37 140.17 48.66 138.14 45.06 135.98 C 42.83 134.06 40.45 130.40 42.76 127.69 C 43.67 126.39 44.74 125.00 46.33 124.51 M 51.36 128.27 C 48.85 128.90 48.63 132.24 49.73 134.16 C 51.84 137.09 55.71 137.57 58.91 138.58 C 63.57 140.02 68.86 139.68 73.03 137.03 C 75.60 135.52 74.92 131.70 73.21 129.75 C 66.05 128.75 58.49 125.49 51.36 128.27 Z" />
</g>
<g id="#9f7eb6ff">
<path fill="#9f7eb6" opacity="1.00" d=" M 53.49 129.60 C 59.95 128.22 66.39 130.31 72.65 131.73 C 72.61 132.58 72.52 134.27 72.48 135.11 C 66.58 138.96 59.24 137.60 53.14 135.02 C 51.75 134.41 51.03 132.99 50.11 131.87 C 51.15 131.01 52.11 129.90 53.49 129.60 Z" />
</g>
<g id="#9b78b1ff">
<path fill="#9b78b1" opacity="1.00" d=" M 16.17 137.08 C 17.99 134.72 19.92 132.45 21.82 130.16 C 25.15 134.90 30.07 138.51 32.24 144.01 C 29.77 142.71 27.07 140.60 24.10 141.60 C 22.77 142.51 21.86 143.90 20.79 145.09 C 20.44 144.85 19.75 144.38 19.41 144.15 C 17.36 141.36 15.76 137.97 15.74 134.43 C 15.85 135.10 16.06 136.42 16.17 137.08 Z" />
</g>
<g id="#fcf6edff">
<path fill="#fcf6ed" opacity="1.00" d=" M 33.30 135.20 C 38.47 136.26 40.51 141.73 44.85 144.15 C 50.96 147.73 57.32 151.01 64.19 152.87 C 63.17 153.57 62.15 154.26 61.19 155.05 C 56.08 153.40 51.41 150.72 46.62 148.34 C 43.71 146.87 41.21 144.49 37.86 144.02 C 34.29 142.86 33.08 138.59 33.30 135.20 Z" />
</g>
<g id="#9776afff">
<path fill="#9776af" opacity="1.00" d=" M 113.66 142.99 C 117.46 136.25 127.56 133.89 133.62 138.96 L 133.69 139.18 C 130.91 140.41 128.00 141.60 125.83 143.80 C 123.25 146.31 121.90 149.72 120.49 152.96 C 117.85 153.01 115.62 151.66 113.61 150.08 C 113.55 147.72 113.27 145.33 113.66 142.99 Z" />
</g>
<g id="#6c4e81ff">
<path fill="#6c4e81" opacity="1.00" d=" M 184.48 138.56 C 185.11 137.83 185.73 137.09 186.40 136.39 C 184.85 140.00 184.21 143.90 182.86 147.58 C 182.63 148.17 182.18 149.37 181.95 149.96 C 179.92 150.26 177.82 150.32 175.88 151.02 C 173.57 152.59 172.02 155.06 169.64 156.53 C 167.30 156.99 164.76 157.16 162.48 156.37 C 160.70 155.11 159.06 153.59 156.96 152.87 C 156.82 154.62 156.60 156.37 156.24 158.10 C 156.21 157.36 156.14 155.89 156.11 155.15 C 154.53 150.55 149.03 149.15 145.71 145.99 C 147.22 145.36 148.69 144.60 150.14 143.82 C 153.35 145.80 155.10 149.42 158.23 151.43 C 161.39 151.72 164.59 149.40 164.78 146.09 C 167.30 145.35 169.89 144.84 172.49 144.45 C 173.01 142.03 173.54 139.61 174.06 137.19 C 177.58 137.19 181.14 137.37 184.48 138.56 Z" />
</g>
<g id="#dfd1d5ff">
<path fill="#dfd1d5" opacity="1.00" d=" M 94.39 139.51 C 96.32 139.07 98.33 139.23 100.30 139.20 C 100.85 140.91 101.41 142.62 101.97 144.33 C 99.72 147.11 96.12 147.02 92.96 147.77 C 87.55 152.04 80.75 153.65 74.36 155.86 C 76.15 156.83 78.12 157.42 80.17 157.49 C 86.76 157.80 93.37 157.96 99.94 157.34 C 98.53 158.28 97.16 159.28 95.78 160.27 C 89.33 160.22 82.80 160.90 76.44 159.48 C 71.81 158.48 67.05 158.37 62.39 159.25 C 61.56 158.24 60.74 157.25 59.89 156.26 C 60.22 155.96 60.87 155.35 61.19 155.05 C 62.15 154.26 63.17 153.57 64.19 152.87 C 64.87 153.08 66.22 153.49 66.90 153.70 C 75.23 150.73 84.07 148.68 91.48 143.63 C 92.26 142.18 92.63 140.10 94.39 139.51 Z" />
</g>
<g id="#87619bff">
<path fill="#87619b" opacity="1.00" d=" M 20.79 145.09 C 21.86 143.90 22.77 142.51 24.10 141.60 C 27.07 140.60 29.77 142.71 32.24 144.01 C 32.61 144.83 32.97 145.65 33.33 146.48 C 33.15 146.83 32.79 147.53 32.61 147.88 C 33.02 148.05 33.86 148.38 34.27 148.55 C 30.76 148.02 27.16 148.12 23.83 149.49 C 22.17 147.87 20.61 146.13 19.41 144.15 C 19.75 144.38 20.44 144.85 20.79 145.09 Z" />
</g>
<g id="#7c5e94ff">
<path fill="#7c5e94" opacity="1.00" d=" M 182.86 147.58 C 192.77 153.08 193.33 168.65 184.43 175.39 C 182.35 176.64 180.30 178.52 177.84 178.76 C 176.01 178.39 174.21 177.94 172.40 177.50 C 175.44 175.61 178.55 173.33 179.81 169.83 C 179.64 167.51 178.48 165.42 177.65 163.29 C 173.45 163.90 168.85 163.90 165.17 166.21 C 164.05 168.22 164.97 170.86 164.86 173.09 C 163.99 173.35 163.12 173.60 162.25 173.82 C 160.74 172.05 162.79 169.74 163.10 167.83 C 161.71 166.25 160.03 164.95 158.05 164.22 L 156.77 163.63 L 156.00 163.24 L 156.24 162.91 C 157.10 162.09 158.19 159.33 156.38 159.17 C 156.24 159.90 155.95 161.34 155.81 162.06 C 155.57 160.72 155.96 159.40 156.24 158.10 C 156.60 156.37 156.82 154.62 156.96 152.87 C 159.06 153.59 160.70 155.11 162.48 156.37 C 164.76 157.16 167.30 156.99 169.64 156.53 C 172.02 155.06 173.57 152.59 175.88 151.02 C 177.82 150.32 179.92 150.26 181.95 149.96 C 182.18 149.37 182.63 148.17 182.86 147.58 Z" />
</g>
<g id="#f2e7e5ff">
<path fill="#f2e7e5" opacity="1.00" d=" M 39.69 151.68 C 45.81 155.05 52.82 157.56 59.89 156.26 C 60.74 157.25 61.56 158.24 62.39 159.25 C 56.18 159.55 49.41 159.15 43.96 155.84 C 43.63 155.55 42.97 154.95 42.65 154.65 L 39.69 151.68 Z" />
</g>
<g id="#8e69a7ff">
<path fill="#8e69a7" opacity="1.00" d=" M 122.79 157.72 C 125.93 156.23 129.07 154.13 132.71 154.51 C 130.73 156.14 128.74 157.87 127.55 160.20 C 127.21 161.20 126.92 162.21 126.62 163.22 C 125.26 162.81 123.84 161.99 122.42 162.67 C 117.64 164.55 112.92 166.76 108.78 169.84 C 110.77 169.54 112.75 169.18 114.71 168.72 C 116.20 168.90 117.68 169.10 119.17 169.33 C 118.59 171.22 117.96 173.09 117.26 174.95 C 115.40 175.18 113.54 175.40 111.67 175.63 C 109.83 173.34 107.94 170.85 105.12 169.75 C 101.26 169.29 97.39 169.81 93.52 169.76 C 97.70 168.86 101.98 168.84 106.22 168.45 C 98.84 167.04 91.41 169.10 83.99 168.64 C 75.69 168.56 68.23 164.47 60.23 162.81 C 61.15 162.06 62.06 161.31 63.00 160.59 C 67.27 159.67 71.69 159.59 75.95 160.61 C 82.04 162.10 88.33 161.87 94.55 161.76 C 90.77 163.41 86.40 162.57 82.75 164.51 C 89.73 165.47 96.88 165.57 103.86 164.55 C 110.41 163.07 116.82 160.81 122.79 157.72 Z" />
</g>
<g id="#c1adbeff">
<path fill="#c1adbe" opacity="1.00" d=" M 99.94 157.34 C 102.22 156.20 104.50 154.83 107.09 154.57 C 109.67 154.10 108.35 157.46 107.33 158.35 C 104.19 161.28 99.63 160.00 95.78 160.27 C 97.16 159.28 98.53 158.28 99.94 157.34 Z" />
</g>
<g id="#9d73b3fc">
<path fill="#9d73b3" opacity="1.00" d=" M 156.38 159.17 C 158.19 159.33 157.10 162.09 156.24 162.91 L 155.81 162.06 C 155.95 161.34 156.24 159.90 156.38 159.17 Z" />
</g>
<g id="#a17db6fb">
<path fill="#a17db6" opacity="1.00" d=" M 51.02 159.08 C 54.92 160.09 58.93 161.22 63.00 160.59 C 62.06 161.31 61.15 162.06 60.23 162.81 C 68.23 164.47 75.69 168.56 83.99 168.64 C 91.41 169.10 98.84 167.04 106.22 168.45 C 101.98 168.84 97.70 168.86 93.52 169.76 C 89.14 170.27 84.64 170.57 80.27 169.93 C 77.59 169.35 74.87 168.96 72.14 168.80 C 68.52 167.84 64.95 166.71 61.29 165.87 C 61.95 167.69 62.60 169.50 63.25 171.32 C 63.01 171.62 62.54 172.22 62.30 172.52 C 60.38 171.30 58.52 170.00 56.67 168.69 C 56.82 167.01 56.98 165.34 57.15 163.68 C 55.24 162.67 53.29 161.74 51.46 160.60 L 51.02 159.08 Z" />
</g>
<g id="#71528cff">
<path fill="#71528c" opacity="1.00" d=" M 126.62 163.22 C 126.92 162.21 127.21 161.20 127.55 160.20 C 127.03 163.13 127.30 166.09 128.01 168.97 C 127.47 169.47 126.38 170.47 125.83 170.97 C 124.96 169.51 124.65 167.84 124.38 166.20 C 121.04 166.53 117.80 167.44 114.71 168.72 C 112.75 169.18 110.77 169.54 108.78 169.84 C 112.92 166.76 117.64 164.55 122.42 162.67 C 123.84 161.99 125.26 162.81 126.62 163.22 Z" />
</g>
<g id="#8768a0ff">
<path fill="#8768a0" opacity="1.00" d=" M 165.17 166.21 C 168.85 163.90 173.45 163.90 177.65 163.29 C 178.48 165.42 179.64 167.51 179.81 169.83 C 178.55 173.33 175.44 175.61 172.40 177.50 C 174.21 177.94 176.01 178.39 177.84 178.76 C 173.64 178.59 168.84 182.06 165.18 178.78 C 163.37 175.90 160.29 174.26 158.24 171.62 C 156.80 169.07 156.73 166.02 156.00 163.24 L 156.77 163.63 C 157.13 165.90 157.61 168.18 158.73 170.23 C 158.59 168.22 158.41 166.21 158.05 164.22 C 160.03 164.95 161.71 166.25 163.10 167.83 C 162.79 169.74 160.74 172.05 162.25 173.82 C 163.12 173.60 163.99 173.35 164.86 173.09 C 164.97 170.86 164.05 168.22 165.17 166.21 Z" />
</g>
<g id="#9d72aeff">
<path fill="#9d72ae" opacity="1.00" d=" M 156.77 163.63 L 158.05 164.22 C 158.41 166.21 158.59 168.22 158.73 170.23 C 157.61 168.18 157.13 165.90 156.77 163.63 Z" />
</g>
<g id="#8d6ea7ff">
<path fill="#8d6ea7" opacity="1.00" d=" M 61.29 165.87 C 64.95 166.71 68.52 167.84 72.14 168.80 C 71.44 168.95 70.04 169.26 69.33 169.42 C 68.60 170.51 67.87 171.60 67.14 172.69 C 66.60 172.79 65.53 172.97 64.99 173.07 C 64.09 172.90 63.19 172.72 62.30 172.52 C 62.54 172.22 63.01 171.62 63.25 171.32 C 62.60 169.50 61.95 167.69 61.29 165.87 Z" />
</g>
<g id="#82639bfe">
<path fill="#82639b" opacity="1.00" d=" M 114.71 168.72 C 117.80 167.44 121.04 166.53 124.38 166.20 C 124.65 167.84 124.96 169.51 125.83 170.97 C 123.11 172.58 120.21 173.82 117.26 174.95 C 117.96 173.09 118.59 171.22 119.17 169.33 C 117.68 169.10 116.20 168.90 114.71 168.72 Z" />
</g>
<g id="#775891ff">
<path fill="#775891" opacity="1.00" d=" M 69.33 169.42 C 70.04 169.26 71.44 168.95 72.14 168.80 C 74.87 168.96 77.59 169.35 80.27 169.93 C 79.35 169.80 77.51 169.53 76.60 169.39 C 75.96 170.62 75.32 171.85 74.69 173.08 C 71.49 173.85 68.10 174.65 64.99 173.07 C 65.53 172.97 66.60 172.79 67.14 172.69 C 67.87 171.60 68.60 170.51 69.33 169.42 Z" />
</g>
</svg>
