<?xml version="1.0" encoding="UTF-8" ?>
<!DOCTYPE svg PUBLIC "-//W3C//DTD SVG 1.1//EN" "http://www.w3.org/Graphics/SVG/1.1/DTD/svg11.dtd">
<svg width="188pt" height="214pt" viewBox="0 0 188 214" version="1.1" xmlns="http://www.w3.org/2000/svg">
<g id="#1e1f205f">
<path fill="#1e1f20" opacity="0.37" d=" M 85.20 36.79 C 86.20 35.30 90.87 35.27 91.84 36.84 C 90.48 36.96 89.11 37.08 87.75 37.19 C 87.11 37.09 85.84 36.89 85.20 36.79 Z" />
</g>
<g id="#d3e3ecf9">
<path fill="#d3e3ec" opacity="0.98" d=" M 82.98 39.14 C 83.13 37.88 83.87 37.09 85.20 36.79 C 85.84 36.89 87.11 37.09 87.75 37.19 L 88.33 37.69 L 87.25 37.92 C 84.84 36.85 82.74 43.49 82.98 39.14 Z" />
</g>
<g id="#8d9fb3f8">
<path fill="#8d9fb3" opacity="0.97" d=" M 87.75 37.19 C 89.11 37.08 90.48 36.96 91.84 36.84 C 93.33 36.64 94.77 37.49 94.94 39.05 C 96.67 49.03 100.43 59.06 108.12 65.98 C 110.39 67.58 112.50 69.19 112.97 72.16 C 109.88 70.73 106.64 69.22 104.22 66.79 C 101.07 60.33 96.16 54.85 94.16 47.84 C 93.84 44.24 90.65 45.03 88.05 45.58 C 87.93 45.14 87.69 44.25 87.57 43.81 C 86.91 41.62 91.47 38.16 88.33 37.69 L 87.75 37.19 Z" />
</g>
<g id="#a4b6c8f9">
<path fill="#a4b6c8" opacity="0.98" d=" M 82.98 39.14 C 82.74 43.49 84.84 36.85 87.25 37.92 C 86.87 41.33 85.67 44.55 84.62 47.80 C 84.41 48.29 83.99 49.26 83.77 49.75 C 81.62 53.50 81.63 58.02 79.78 61.91 C 77.64 62.60 76.23 60.84 74.95 59.46 C 78.77 53.30 81.50 46.27 82.14 39.01 L 82.98 39.14 Z" />
</g>
<g id="#657387ff">
<path fill="#657387" opacity="1.00" d=" M 87.25 37.92 L 88.33 37.69 C 91.47 38.16 86.91 41.62 87.57 43.81 C 86.82 45.87 86.99 48.72 85.10 50.07 C 84.98 49.51 84.74 48.37 84.62 47.80 C 85.67 44.55 86.87 41.33 87.25 37.92 Z" />
</g>
<g id="#8493a9ff">
<path fill="#8493a9" opacity="1.00" d=" M 85.10 50.07 C 86.99 48.72 86.82 45.87 87.57 43.81 C 87.69 44.25 87.93 45.14 88.05 45.58 C 90.65 45.03 93.84 44.24 94.16 47.84 C 93.09 47.67 91.50 46.38 90.70 47.68 C 85.52 52.99 87.18 63.32 79.83 66.65 C 77.19 64.87 74.87 65.65 72.31 66.78 C 70.92 63.75 66.44 62.74 66.95 58.99 C 69.98 56.50 70.35 62.02 72.07 63.57 C 74.61 62.80 76.99 63.24 79.07 64.90 C 84.66 62.82 83.50 54.59 83.77 49.75 C 83.99 49.26 84.41 48.29 84.62 47.80 C 84.74 48.37 84.98 49.51 85.10 50.07 Z" />
</g>
<g id="#7c8ba2ff">
<path fill="#7c8ba2" opacity="1.00" d=" M 90.70 47.68 C 91.50 46.38 93.09 47.67 94.16 47.84 C 96.16 54.85 101.07 60.33 104.22 66.79 C 106.64 69.22 109.88 70.73 112.97 72.16 C 114.61 72.89 116.26 73.63 118.01 74.09 C 117.73 72.71 117.33 71.37 116.96 70.03 C 118.00 70.85 119.25 71.55 119.87 72.78 C 119.47 73.82 119.07 74.85 118.67 75.89 C 113.87 74.99 109.31 72.88 104.67 71.31 C 100.30 69.95 100.30 64.43 97.68 61.30 C 95.19 58.28 94.35 54.39 92.68 50.94 C 90.59 52.74 90.25 55.68 88.96 57.99 C 87.69 61.41 85.19 64.17 83.85 67.55 C 87.27 66.51 87.80 70.77 89.21 72.85 C 92.06 73.01 94.97 72.87 97.82 73.17 C 98.29 74.44 98.66 75.74 98.96 77.06 C 94.46 74.50 88.50 76.30 84.97 71.92 C 80.69 73.63 86.08 78.41 85.01 81.75 C 83.68 80.78 76.65 82.64 79.67 85.33 C 87.60 89.19 97.54 88.51 105.83 85.79 C 105.91 84.30 106.06 81.34 106.14 79.85 C 106.69 80.08 107.80 80.53 108.35 80.75 C 108.49 82.26 108.78 85.29 108.92 86.80 C 102.87 90.54 94.85 89.80 88.00 90.07 C 83.74 89.61 79.01 91.02 75.09 88.78 C 75.40 85.03 74.05 80.65 76.26 77.26 C 78.43 74.98 83.67 75.22 80.97 70.03 C 80.41 66.54 75.69 68.01 74.17 70.16 C 71.46 73.63 70.38 64.25 68.31 68.29 C 65.69 76.22 68.19 88.78 57.98 92.11 L 58.10 91.27 L 58.23 90.41 C 59.45 89.91 60.16 88.86 60.63 87.67 C 63.37 80.49 64.92 72.89 65.23 65.21 C 65.66 61.72 66.17 58.24 66.75 54.77 C 66.80 56.18 66.86 57.58 66.95 58.99 C 66.44 62.74 70.92 63.75 72.31 66.78 C 74.87 65.65 77.19 64.87 79.83 66.65 C 87.18 63.32 85.52 52.99 90.70 47.68 Z" />
</g>
<g id="#95a6baf8">
<path fill="#95a6ba" opacity="0.97" d=" M 60.09 55.04 C 60.86 52.32 62.90 49.20 66.16 49.90 C 67.03 51.49 66.06 52.82 65.11 54.09 C 62.74 63.62 61.33 73.56 59.38 83.26 C 59.23 81.83 59.10 80.41 58.98 78.98 C 58.98 77.25 58.99 75.52 58.97 73.80 C 58.95 73.07 58.92 71.60 58.90 70.87 C 56.36 71.51 54.88 74.13 52.19 74.45 C 50.17 74.59 49.72 76.63 49.09 78.18 C 46.27 80.29 43.28 82.25 40.83 84.79 C 38.80 87.24 37.49 90.15 35.94 92.90 C 35.08 93.61 34.23 94.31 33.37 95.02 C 33.03 94.47 32.35 93.38 32.01 92.83 C 34.91 90.26 38.15 86.72 38.39 82.72 C 42.61 77.89 49.58 73.90 55.31 70.43 C 62.25 69.30 58.88 59.63 60.09 55.04 Z" />
</g>
<g id="#535f71ee">
<path fill="#535f71" opacity="0.93" d=" M 66.16 49.90 C 67.25 49.88 70.58 50.18 69.54 51.74 C 68.33 52.49 66.72 53.07 66.75 54.77 C 66.17 58.24 65.66 61.72 65.23 65.21 C 65.14 61.50 64.87 57.80 65.11 54.09 C 66.06 52.82 67.03 51.49 66.16 49.90 Z" />
</g>
<g id="#8fa0b5ff">
<path fill="#8fa0b5" opacity="1.00" d=" M 79.78 61.91 C 81.63 58.02 81.62 53.50 83.77 49.75 C 83.50 54.59 84.66 62.82 79.07 64.90 C 76.99 63.24 74.61 62.80 72.07 63.57 C 70.35 62.02 69.98 56.50 66.95 58.99 C 66.86 57.58 66.80 56.18 66.75 54.77 C 66.72 53.07 68.33 52.49 69.54 51.74 C 70.47 54.87 72.53 57.34 74.95 59.46 C 76.23 60.84 77.64 62.60 79.78 61.91 Z" />
</g>
<g id="#75839bff">
<path fill="#75839b" opacity="1.00" d=" M 88.96 57.99 C 90.25 55.68 90.59 52.74 92.68 50.94 C 94.35 54.39 95.19 58.28 97.68 61.30 C 100.30 64.43 100.30 69.95 104.67 71.31 C 109.31 72.88 113.87 74.99 118.67 75.89 C 119.07 74.85 119.47 73.82 119.87 72.78 C 122.92 77.18 122.39 83.03 120.97 87.95 C 120.55 89.78 118.64 90.57 117.06 91.16 C 117.42 90.13 117.78 89.09 118.13 88.06 C 118.39 87.58 118.91 86.62 119.17 86.14 C 119.51 83.73 121.44 79.02 118.70 77.21 C 114.25 76.45 109.70 75.65 105.17 76.09 C 104.66 76.97 104.21 77.88 103.83 78.82 L 103.13 78.96 C 101.83 78.56 100.51 78.20 99.18 77.92 L 98.96 77.06 C 98.66 75.74 98.29 74.44 97.82 73.17 C 94.97 72.87 92.06 73.01 89.21 72.85 C 87.80 70.77 87.27 66.51 83.85 67.55 C 85.19 64.17 87.69 61.41 88.96 57.99 Z" />
</g>
<g id="#8797b0ff">
<path fill="#8797b0" opacity="1.00" d=" M 59.38 83.26 C 61.33 73.56 62.74 63.62 65.11 54.09 C 64.87 57.80 65.14 61.50 65.23 65.21 C 64.92 72.89 63.37 80.49 60.63 87.67 C 60.16 88.86 59.45 89.91 58.23 90.41 L 57.91 89.45 C 58.64 87.45 59.06 85.36 59.38 83.26 Z" />
</g>
<g id="#a4b5c8fb">
<path fill="#a4b5c8" opacity="1.00" d=" M 108.12 65.98 C 119.01 61.87 132.36 68.95 135.95 79.94 C 136.32 83.28 137.90 87.20 134.80 89.79 C 133.35 92.13 130.23 90.85 129.38 88.66 C 129.30 83.75 126.35 79.05 127.80 74.12 C 127.70 73.85 127.51 73.30 127.41 73.03 C 125.91 71.27 124.82 67.21 121.88 68.52 C 121.13 68.67 119.63 68.97 118.87 69.13 C 117.55 68.74 116.23 68.32 114.88 68.02 C 115.54 68.72 116.23 69.39 116.96 70.03 C 117.33 71.37 117.73 72.71 118.01 74.09 C 116.26 73.63 114.61 72.89 112.97 72.16 C 112.50 69.19 110.39 67.58 108.12 65.98 Z" />
</g>
<g id="#74829aff">
<path fill="#74829a" opacity="1.00" d=" M 68.31 68.29 C 70.38 64.25 71.46 73.63 74.17 70.16 C 75.69 68.01 80.41 66.54 80.97 70.03 C 83.67 75.22 78.43 74.98 76.26 77.26 C 74.05 80.65 75.40 85.03 75.09 88.78 C 79.01 91.02 83.74 89.61 88.00 90.07 C 94.85 89.80 102.87 90.54 108.92 86.80 C 108.78 85.29 108.49 82.26 108.35 80.75 C 112.20 81.49 114.22 87.78 110.66 89.69 C 98.40 92.85 85.60 91.44 73.24 93.89 C 71.31 90.40 71.53 85.56 68.31 82.96 C 67.04 88.02 63.90 92.28 59.31 94.79 C 58.93 94.28 58.18 93.26 57.80 92.75 L 57.98 92.11 C 68.19 88.78 65.69 76.22 68.31 68.29 Z" />
</g>
<g id="#808fa8ff">
<path fill="#808fa8" opacity="1.00" d=" M 114.88 68.02 C 116.23 68.32 117.55 68.74 118.87 69.13 C 120.51 70.82 122.11 72.55 123.69 74.31 C 125.17 78.19 123.49 83.24 126.41 86.54 C 127.89 88.97 123.14 95.08 121.61 91.23 C 119.14 91.95 117.47 93.98 115.92 95.91 C 111.41 97.57 106.66 98.45 101.94 99.28 C 102.25 100.90 105.47 103.84 101.92 103.07 C 99.33 102.49 96.68 102.20 94.06 101.92 C 95.14 101.02 96.23 100.12 97.29 99.19 C 102.15 98.03 106.80 96.07 111.23 93.77 C 113.18 92.90 115.11 92.00 117.06 91.16 C 118.64 90.57 120.55 89.78 120.97 87.95 C 122.39 83.03 122.92 77.18 119.87 72.78 C 119.25 71.55 118.00 70.85 116.96 70.03 C 116.23 69.39 115.54 68.72 114.88 68.02 Z" />
</g>
<g id="#738497ff">
<path fill="#738497" opacity="1.00" d=" M 121.88 68.52 C 124.82 67.21 125.91 71.27 127.41 73.03 C 124.96 74.69 124.18 69.37 121.88 68.52 Z" />
</g>
<g id="#93a3b8fe">
<path fill="#93a3b8" opacity="1.00" d=" M 118.87 69.13 C 119.63 68.97 121.13 68.67 121.88 68.52 C 124.18 69.37 124.96 74.69 127.41 73.03 C 127.51 73.30 127.70 73.85 127.80 74.12 C 126.35 79.05 129.30 83.75 129.38 88.66 C 130.23 90.85 133.35 92.13 134.80 89.79 C 137.90 87.20 136.32 83.28 135.95 79.94 C 139.24 82.37 140.36 87.41 143.66 90.28 C 143.99 91.56 144.26 92.86 144.75 94.09 C 145.33 95.75 145.92 97.41 146.61 99.03 C 146.82 99.52 147.23 100.50 147.44 100.99 C 145.35 102.76 144.32 98.33 142.09 99.04 C 136.78 102.02 131.80 107.13 125.09 105.97 C 120.97 104.13 116.84 101.88 113.96 98.30 C 114.64 97.52 115.30 96.73 115.92 95.91 C 117.47 93.98 119.14 91.95 121.61 91.23 C 123.14 95.08 127.89 88.97 126.41 86.54 C 123.49 83.24 125.17 78.19 123.69 74.31 C 122.11 72.55 120.51 70.82 118.87 69.13 Z" />
</g>
<g id="#8494aaf8">
<path fill="#8494aa" opacity="0.97" d=" M 52.19 74.45 C 54.88 74.13 56.36 71.51 58.90 70.87 C 58.92 71.60 58.95 73.07 58.97 73.80 C 55.43 74.66 52.31 76.56 49.09 78.18 C 49.72 76.63 50.17 74.59 52.19 74.45 Z" />
</g>
<g id="#8292a9ff">
<path fill="#8292a9" opacity="1.00" d=" M 85.01 81.75 C 86.08 78.41 80.69 73.63 84.97 71.92 C 88.50 76.30 94.46 74.50 98.96 77.06 L 99.18 77.92 C 95.49 77.59 91.81 76.89 88.09 77.00 C 84.74 76.57 88.68 83.12 85.09 83.52 C 88.95 88.63 95.13 83.46 100.02 84.03 C 102.84 84.40 102.58 80.83 103.13 78.96 L 103.83 78.82 C 104.41 79.08 105.56 79.59 106.14 79.85 C 106.06 81.34 105.91 84.30 105.83 85.79 C 97.54 88.51 87.60 89.19 79.67 85.33 C 76.65 82.64 83.68 80.78 85.01 81.75 Z" />
</g>
<g id="#70809aff">
<path fill="#70809a" opacity="1.00" d=" M 49.09 78.18 C 52.31 76.56 55.43 74.66 58.97 73.80 C 58.99 75.52 58.98 77.25 58.98 78.98 L 58.02 78.87 C 58.02 77.59 58.00 76.30 57.95 75.02 C 50.78 78.27 43.98 83.75 40.89 91.08 C 40.54 92.16 40.17 93.24 39.77 94.30 C 38.34 91.56 40.59 87.92 40.83 84.79 C 43.28 82.25 46.27 80.29 49.09 78.18 Z" />
</g>
<g id="#465772ff">
<path fill="#465772" opacity="1.00" d=" M 40.89 91.08 C 43.98 83.75 50.78 78.27 57.95 75.02 C 58.00 76.30 58.02 77.59 58.02 78.87 C 57.05 79.45 56.09 80.03 55.15 80.65 C 50.24 83.60 45.06 86.48 41.63 91.20 L 40.89 91.08 Z" />
</g>
<g id="#697792ff">
<path fill="#697792" opacity="1.00" d=" M 105.17 76.09 C 109.70 75.65 114.25 76.45 118.70 77.21 C 121.44 79.02 119.51 83.73 119.17 86.14 C 119.11 84.35 118.99 80.77 118.93 78.99 C 116.49 77.44 111.44 79.39 113.71 82.31 C 115.22 84.76 114.06 87.49 114.00 90.13 C 115.53 89.79 116.82 88.87 118.13 88.06 C 117.78 89.09 117.42 90.13 117.06 91.16 C 115.11 92.00 113.18 92.90 111.23 93.77 C 98.13 92.08 84.75 95.58 72.28 98.90 C 70.42 96.09 68.63 93.20 66.10 90.94 C 66.08 91.64 66.02 93.03 66.00 93.72 C 64.40 96.41 61.20 99.10 57.92 98.15 C 57.69 97.58 57.22 96.46 56.99 95.90 C 57.20 94.83 57.47 93.78 57.80 92.75 C 58.18 93.26 58.93 94.28 59.31 94.79 C 63.90 92.28 67.04 88.02 68.31 82.96 C 71.53 85.56 71.31 90.40 73.24 93.89 C 85.60 91.44 98.40 92.85 110.66 89.69 C 114.22 87.78 112.20 81.49 108.35 80.75 C 107.80 80.53 106.69 80.08 106.14 79.85 C 105.56 79.59 104.41 79.08 103.83 78.82 C 104.21 77.88 104.66 76.97 105.17 76.09 Z" />
</g>
<g id="#8a99b0ff">
<path fill="#8a99b0" opacity="1.00" d=" M 85.09 83.52 C 88.68 83.12 84.74 76.57 88.09 77.00 C 91.81 76.89 95.49 77.59 99.18 77.92 C 100.51 78.20 101.83 78.56 103.13 78.96 C 102.58 80.83 102.84 84.40 100.02 84.03 C 95.13 83.46 88.95 88.63 85.09 83.52 Z" />
</g>
<g id="#b5caddff">
<path fill="#b5cadd" opacity="1.00" d=" M 55.15 80.65 C 56.09 80.03 57.05 79.45 58.02 78.87 L 58.98 78.98 C 59.10 80.41 59.23 81.83 59.38 83.26 C 59.06 85.36 58.64 87.45 57.91 89.45 C 56.58 87.36 55.91 84.98 55.27 82.61 C 55.25 81.95 55.20 81.30 55.15 80.65 Z" />
</g>
<g id="#616f8aff">
<path fill="#616f8a" opacity="1.00" d=" M 113.71 82.31 C 111.44 79.39 116.49 77.44 118.93 78.99 C 118.99 80.77 119.11 84.35 119.17 86.14 C 118.91 86.62 118.39 87.58 118.13 88.06 C 116.82 88.87 115.53 89.79 114.00 90.13 C 114.06 87.49 115.22 84.76 113.71 82.31 Z" />
</g>
<g id="#c6dce9ff">
<path fill="#c6dce9" opacity="1.00" d=" M 41.63 91.20 C 45.06 86.48 50.24 83.60 55.15 80.65 C 55.20 81.30 55.25 81.95 55.27 82.61 C 50.13 84.39 47.21 90.80 41.63 91.20 Z" />
</g>
<g id="#aebdcbf4">
<path fill="#aebdcb" opacity="0.96" d=" M 27.65 93.29 C 29.49 88.41 34.18 85.44 38.39 82.72 C 38.15 86.72 34.91 90.26 32.01 92.83 C 30.56 93.03 29.12 93.39 27.65 93.29 Z" />
</g>
<g id="#a6bad0ff">
<path fill="#a6bad0" opacity="1.00" d=" M 41.63 91.20 C 47.21 90.80 50.13 84.39 55.27 82.61 C 55.91 84.98 56.58 87.36 57.91 89.45 L 58.23 90.41 L 58.10 91.27 C 54.87 93.28 55.19 87.12 52.07 88.03 C 48.63 89.30 45.82 91.82 42.89 93.96 C 41.95 94.36 40.57 95.63 39.77 94.30 C 40.17 93.24 40.54 92.16 40.89 91.08 L 41.63 91.20 Z" />
</g>
<g id="#7e8fa9ff">
<path fill="#7e8fa9" opacity="1.00" d=" M 35.94 92.90 C 37.49 90.15 38.80 87.24 40.83 84.79 C 40.59 87.92 38.34 91.56 39.77 94.30 C 40.57 95.63 41.95 94.36 42.89 93.96 C 45.57 92.99 48.18 91.79 50.92 90.99 C 53.05 92.49 54.94 94.29 56.99 95.90 C 56.98 97.68 56.97 101.24 56.96 103.03 C 56.51 102.76 55.60 102.24 55.14 101.98 C 54.94 98.82 53.17 96.08 50.71 94.18 C 47.30 93.12 44.66 95.26 41.90 96.63 C 40.87 96.51 39.83 96.38 38.80 96.26 C 41.14 98.37 44.17 99.36 47.00 100.62 C 46.79 100.93 46.38 101.57 46.17 101.88 C 52.37 107.69 62.51 103.56 69.05 109.12 C 69.29 114.33 62.28 115.33 60.98 119.98 C 58.41 123.57 59.76 128.19 58.15 132.10 C 56.81 136.07 54.78 139.76 52.04 142.92 C 52.57 143.03 53.64 143.25 54.18 143.36 C 51.45 145.69 48.24 147.38 45.17 149.22 C 45.76 148.18 46.38 147.15 46.94 146.10 C 40.78 146.67 31.24 150.05 28.74 142.11 L 29.71 142.26 C 36.34 150.40 49.97 145.00 52.94 135.95 C 51.60 129.58 48.66 122.68 51.29 116.33 C 56.35 114.92 61.67 113.90 66.04 110.82 C 63.62 106.34 57.75 107.71 53.60 106.51 C 48.63 106.53 45.13 103.02 41.14 100.74 C 37.82 98.23 34.67 100.30 32.78 102.88 C 33.30 99.41 34.81 96.20 35.94 92.90 Z" />
</g>
<g id="#91a3baff">
<path fill="#91a3ba" opacity="1.00" d=" M 42.89 93.96 C 45.82 91.82 48.63 89.30 52.07 88.03 C 55.19 87.12 54.87 93.28 58.10 91.27 L 57.98 92.11 L 57.80 92.75 C 57.47 93.78 57.20 94.83 56.99 95.90 C 54.94 94.29 53.05 92.49 50.92 90.99 C 48.18 91.79 45.57 92.99 42.89 93.96 Z" />
</g>
<g id="#7a8ba2fc">
<path fill="#7a8ba2" opacity="1.00" d=" M 143.66 90.28 C 144.17 90.41 145.18 90.66 145.69 90.78 C 144.04 92.74 147.71 91.74 148.76 92.28 C 152.31 95.70 154.72 100.39 159.09 102.95 C 159.31 103.48 159.77 104.53 160.00 105.05 C 159.99 105.57 159.98 106.59 159.97 107.10 C 157.41 103.65 153.63 101.40 150.77 98.23 C 148.87 96.73 147.50 93.97 144.75 94.09 C 144.26 92.86 143.99 91.56 143.66 90.28 Z" />
</g>
<g id="#8ea0b5f7">
<path fill="#8ea0b5" opacity="0.97" d=" M 145.69 90.78 C 148.14 91.31 150.42 90.00 152.80 90.13 C 156.41 93.46 158.63 98.09 159.09 102.95 C 154.72 100.39 152.31 95.70 148.76 92.28 C 147.71 91.74 144.04 92.74 145.69 90.78 Z" />
</g>
<g id="#5c6b87ff">
<path fill="#5c6b87" opacity="1.00" d=" M 66.10 90.94 C 68.63 93.20 70.42 96.09 72.28 98.90 C 84.75 95.58 98.13 92.08 111.23 93.77 C 106.80 96.07 102.15 98.03 97.29 99.19 C 96.23 98.70 95.14 98.27 94.03 97.91 C 90.42 97.08 87.45 98.15 85.54 101.09 C 83.62 101.59 81.65 101.97 79.82 102.74 C 79.32 102.98 78.31 103.47 77.80 103.72 C 77.11 103.80 75.73 103.97 75.05 104.06 C 72.28 104.37 69.56 105.03 66.78 105.30 C 65.28 105.03 62.28 104.50 60.78 104.23 C 62.90 104.12 65.01 104.03 67.14 103.99 C 67.83 103.98 69.22 103.96 69.91 103.96 C 68.31 100.66 66.75 97.34 66.00 93.72 C 66.02 93.03 66.08 91.64 66.10 90.94 Z" />
</g>
<g id="#bccfdffc">
<path fill="#bccfdf" opacity="1.00" d=" M 23.64 95.25 C 24.32 93.84 26.14 93.14 27.65 93.29 C 29.12 93.39 30.56 93.03 32.01 92.83 C 32.35 93.38 33.03 94.47 33.37 95.02 C 30.11 94.45 28.32 97.30 26.09 99.06 L 25.22 99.24 C 25.87 97.93 26.59 96.64 27.07 95.25 C 25.93 95.23 24.78 95.29 23.64 95.25 Z" />
</g>
<g id="#5e6e85ff">
<path fill="#5e6e85" opacity="1.00" d=" M 33.37 95.02 C 34.23 94.31 35.08 93.61 35.94 92.90 C 34.81 96.20 33.30 99.41 32.78 102.88 C 32.25 105.48 32.56 108.61 30.06 110.16 C 30.41 106.38 30.92 102.61 30.93 98.81 C 31.81 97.59 32.64 96.33 33.37 95.02 Z" />
</g>
<g id="#72829dff">
<path fill="#72829d" opacity="1.00" d=" M 41.90 96.63 C 44.66 95.26 47.30 93.12 50.71 94.18 C 53.17 96.08 54.94 98.82 55.14 101.98 C 51.98 100.99 50.89 97.32 47.75 96.34 C 45.80 96.46 43.86 96.99 41.90 96.63 Z" />
</g>
<g id="#5c6a85ff">
<path fill="#5c6a85" opacity="1.00" d=" M 57.92 98.15 C 61.20 99.10 64.40 96.41 66.00 93.72 C 66.04 95.79 66.12 97.86 66.43 99.91 C 63.95 100.82 61.46 101.67 59.05 102.74 C 58.56 101.24 58.21 99.70 57.92 98.15 Z" />
</g>
<g id="#3c4860ff">
<path fill="#3c4860" opacity="1.00" d=" M 66.00 93.72 C 66.75 97.34 68.31 100.66 69.91 103.96 C 69.22 103.96 67.83 103.98 67.14 103.99 C 66.93 102.62 66.72 101.25 66.43 99.91 C 66.12 97.86 66.04 95.79 66.00 93.72 Z" />
</g>
<g id="#6f7e97ff">
<path fill="#6f7e97" opacity="1.00" d=" M 144.75 94.09 C 147.50 93.97 148.87 96.73 150.77 98.23 C 153.63 101.40 157.41 103.65 159.97 107.10 C 159.96 107.85 159.94 109.35 159.93 110.09 C 156.21 105.85 151.70 102.39 147.82 98.30 C 147.52 98.49 146.91 98.85 146.61 99.03 C 145.92 97.41 145.33 95.75 144.75 94.09 Z" />
</g>
<g id="#6a7684f8">
<path fill="#6a7684" opacity="0.97" d=" M 18.79 101.97 C 19.78 99.06 21.40 96.81 23.64 95.25 C 24.78 95.29 25.93 95.23 27.07 95.25 C 26.59 96.64 25.87 97.93 25.22 99.24 C 23.48 101.06 21.68 102.81 19.76 104.43 C 19.52 103.82 19.03 102.59 18.79 101.97 Z" />
</g>
<g id="#93a4bdff">
<path fill="#93a4bd" opacity="1.00" d=" M 26.09 99.06 C 28.32 97.30 30.11 94.45 33.37 95.02 C 32.64 96.33 31.81 97.59 30.93 98.81 C 29.07 100.18 28.30 102.12 28.60 104.62 C 28.11 112.18 26.05 119.60 26.28 127.20 C 26.31 127.60 26.37 128.41 26.39 128.81 C 25.95 129.90 25.48 130.98 24.99 132.06 L 24.04 132.02 C 23.39 121.56 24.91 111.19 25.90 100.81 C 25.95 100.37 26.04 99.50 26.09 99.06 Z" />
</g>
<g id="#657590ff">
<path fill="#657590" opacity="1.00" d=" M 38.80 96.26 C 39.83 96.38 40.87 96.51 41.90 96.63 C 43.86 96.99 45.80 96.46 47.75 96.34 C 50.89 97.32 51.98 100.99 55.14 101.98 C 55.60 102.24 56.51 102.76 56.96 103.03 C 57.26 103.26 57.87 103.72 58.17 103.95 C 54.24 103.70 50.62 102.02 47.00 100.62 C 44.17 99.36 41.14 98.37 38.80 96.26 Z" />
</g>
<g id="#4c5b76ff">
<path fill="#4c5b76" opacity="1.00" d=" M 56.99 95.90 C 57.22 96.46 57.69 97.58 57.92 98.15 C 58.21 99.70 58.56 101.24 59.05 102.74 C 61.46 101.67 63.95 100.82 66.43 99.91 C 66.72 101.25 66.93 102.62 67.14 103.99 C 65.01 104.03 62.90 104.12 60.78 104.23 C 60.13 104.16 58.82 104.02 58.17 103.95 C 57.87 103.72 57.26 103.26 56.96 103.03 C 56.97 101.24 56.98 97.68 56.99 95.90 Z" />
</g>
<g id="#6c7f98ff">
<path fill="#6c7f98" opacity="1.00" d=" M 101.94 99.28 C 106.66 98.45 111.41 97.57 115.92 95.91 C 115.30 96.73 114.64 97.52 113.96 98.30 C 111.88 98.83 109.80 99.33 107.74 99.96 C 107.04 100.01 105.63 100.11 104.93 100.16 C 105.23 102.67 107.72 103.97 109.23 105.75 C 109.33 106.26 109.54 107.30 109.65 107.81 C 108.86 112.59 109.88 117.32 110.09 122.08 C 110.00 122.51 109.82 123.37 109.73 123.80 C 109.34 125.06 109.02 126.35 108.57 127.59 C 101.64 132.13 93.82 135.16 85.71 136.78 C 90.17 132.72 95.98 130.34 100.19 126.04 C 97.83 125.94 95.54 126.54 93.27 127.09 C 97.41 122.54 106.18 121.46 106.16 113.91 C 106.12 112.35 107.81 110.00 106.42 108.92 C 105.90 108.68 104.85 108.19 104.33 107.94 C 107.39 106.19 103.37 104.30 101.92 103.07 C 105.47 103.84 102.25 100.90 101.94 99.28 Z" />
</g>
<g id="#afc2d5ff">
<path fill="#afc2d5" opacity="1.00" d=" M 85.54 101.09 C 87.45 98.15 90.42 97.08 94.03 97.91 C 94.23 98.41 94.65 99.41 94.86 99.92 C 91.83 100.66 88.51 102.55 85.54 101.09 Z" />
</g>
<g id="#93a2baff">
<path fill="#93a2ba" opacity="1.00" d=" M 94.03 97.91 C 95.14 98.27 96.23 98.70 97.29 99.19 C 96.23 100.12 95.14 101.02 94.06 101.92 C 93.74 102.15 93.09 102.61 92.77 102.84 C 86.60 105.18 85.33 112.82 85.51 118.70 C 84.14 126.01 76.70 129.90 72.24 135.24 C 64.05 142.12 58.12 151.10 51.04 159.03 C 42.10 169.48 37.06 183.80 23.82 189.78 C 22.84 189.03 22.70 187.55 23.94 186.96 C 28.09 183.45 31.77 179.36 35.13 175.10 C 34.29 175.04 32.61 174.91 31.77 174.85 C 33.18 173.67 34.69 172.63 36.17 171.55 C 39.09 168.85 41.15 164.24 38.53 160.59 C 37.15 159.05 39.38 159.34 40.37 159.00 C 41.21 160.13 40.90 161.74 41.28 163.06 C 44.33 161.09 45.88 157.81 46.42 154.31 C 50.90 149.47 58.45 145.20 60.09 138.79 C 57.93 136.72 60.70 134.81 61.82 133.03 C 61.91 133.54 62.08 134.55 62.17 135.06 C 66.09 131.54 70.20 127.99 72.72 123.27 C 77.27 117.25 81.02 110.42 83.04 103.12 C 82.23 103.02 80.63 102.83 79.82 102.74 C 81.65 101.97 83.62 101.59 85.54 101.09 C 88.51 102.55 91.83 100.66 94.86 99.92 C 94.65 99.41 94.23 98.41 94.03 97.91 Z" />
</g>
<g id="#8b9ab1ff">
<path fill="#8b9ab1" opacity="1.00" d=" M 107.74 99.96 C 109.80 99.33 111.88 98.83 113.96 98.30 C 116.84 101.88 120.97 104.13 125.09 105.97 C 131.80 107.13 136.78 102.02 142.09 99.04 C 144.32 98.33 145.35 102.76 147.44 100.99 C 148.51 102.98 149.50 105.01 150.31 107.12 C 147.53 108.16 145.54 102.50 142.34 104.31 C 137.77 108.84 131.92 113.44 125.30 113.66 C 119.74 108.74 114.07 103.87 107.74 99.96 Z" />
</g>
<g id="#607089ff">
<path fill="#607089" opacity="1.00" d=" M 146.61 99.03 C 146.91 98.85 147.52 98.49 147.82 98.30 C 151.70 102.39 156.21 105.85 159.93 110.09 C 159.91 110.87 159.85 112.42 159.83 113.20 C 157.33 110.84 154.58 106.39 150.94 106.76 L 150.31 107.12 C 149.50 105.01 148.51 102.98 147.44 100.99 C 147.23 100.50 146.82 99.52 146.61 99.03 Z" />
</g>
<g id="#daebf2ff">
<path fill="#daebf2" opacity="1.00" d=" M 25.22 99.24 L 26.09 99.06 C 26.04 99.50 25.95 100.37 25.90 100.81 C 24.74 102.48 23.56 104.15 22.63 105.97 C 21.39 105.91 19.86 106.09 19.76 104.43 C 21.68 102.81 23.48 101.06 25.22 99.24 Z" />
</g>
<g id="#8899b3ff">
<path fill="#8899b3" opacity="1.00" d=" M 28.60 104.62 C 28.30 102.12 29.07 100.18 30.93 98.81 C 30.92 102.61 30.41 106.38 30.06 110.16 C 29.84 110.65 29.39 111.63 29.16 112.13 C 29.37 117.30 29.20 122.73 26.28 127.20 C 26.05 119.60 28.11 112.18 28.60 104.62 Z" />
</g>
<g id="#75859fff">
<path fill="#75859f" opacity="1.00" d=" M 32.78 102.88 C 34.67 100.30 37.82 98.23 41.14 100.74 C 45.08 108.61 54.67 107.35 61.95 109.22 C 62.54 111.24 60.31 111.42 58.93 111.89 C 53.29 111.52 47.96 109.13 42.27 109.16 C 38.61 112.75 35.03 118.03 36.59 123.33 C 36.98 126.02 40.79 124.00 41.51 126.42 C 43.07 130.15 45.62 133.60 45.82 137.77 C 43.81 139.81 41.85 141.92 39.66 143.77 C 36.01 145.16 33.13 142.49 29.71 142.26 L 28.74 142.11 C 27.55 131.59 31.25 121.49 32.08 111.11 C 31.10 111.43 30.13 111.77 29.16 112.13 C 29.39 111.63 29.84 110.65 30.06 110.16 C 32.56 108.61 32.25 105.48 32.78 102.88 Z" />
</g>
<g id="#8391a8ff">
<path fill="#8391a8" opacity="1.00" d=" M 104.93 100.16 C 105.63 100.11 107.04 100.01 107.74 99.96 C 114.07 103.87 119.74 108.74 125.30 113.66 C 131.92 113.44 137.77 108.84 142.34 104.31 C 145.54 102.50 147.53 108.16 150.31 107.12 L 150.94 106.76 L 151.31 107.65 C 151.50 112.47 147.15 107.60 144.97 106.95 C 139.37 111.65 134.03 118.69 126.08 119.01 C 119.71 115.62 116.09 108.32 109.23 105.75 C 107.72 103.97 105.23 102.67 104.93 100.16 Z" />
</g>
<g id="#9fb1c8ff">
<path fill="#9fb1c8" opacity="1.00" d=" M 22.63 105.97 C 23.56 104.15 24.74 102.48 25.90 100.81 C 24.91 111.19 23.39 121.56 24.04 132.02 C 23.95 133.74 23.77 137.16 23.68 138.87 C 23.26 138.95 22.43 139.10 22.01 139.18 C 19.94 132.50 22.88 125.19 22.34 118.30 C 24.03 114.16 21.31 110.05 22.63 105.97 Z" />
</g>
<g id="#7989a4ff">
<path fill="#7989a4" opacity="1.00" d=" M 41.14 100.74 C 45.13 103.02 48.63 106.53 53.60 106.51 C 57.75 107.71 63.62 106.34 66.04 110.82 C 61.67 113.90 56.35 114.92 51.29 116.33 C 48.66 122.68 51.60 129.58 52.94 135.95 C 49.97 145.00 36.34 150.40 29.71 142.26 C 33.13 142.49 36.01 145.16 39.66 143.77 C 41.85 141.92 43.81 139.81 45.82 137.77 C 45.62 133.60 43.07 130.15 41.51 126.42 C 40.79 124.00 36.98 126.02 36.59 123.33 C 35.03 118.03 38.61 112.75 42.27 109.16 C 47.96 109.13 53.29 111.52 58.93 111.89 C 60.31 111.42 62.54 111.24 61.95 109.22 C 54.67 107.35 45.08 108.61 41.14 100.74 Z" />
</g>
<g id="#8798b1ff">
<path fill="#8798b1" opacity="1.00" d=" M 46.17 101.88 C 46.38 101.57 46.79 100.93 47.00 100.62 C 50.62 102.02 54.24 103.70 58.17 103.95 C 58.82 104.02 60.13 104.16 60.78 104.23 C 62.28 104.50 65.28 105.03 66.78 105.30 C 69.21 106.51 71.90 107.28 73.95 109.13 C 68.29 116.23 65.26 124.74 61.82 133.03 C 60.70 134.81 57.93 136.72 60.09 138.79 C 58.17 140.37 56.20 141.90 54.18 143.36 C 53.64 143.25 52.57 143.03 52.04 142.92 C 54.78 139.76 56.81 136.07 58.15 132.10 C 59.76 128.19 58.41 123.57 60.98 119.98 C 62.28 115.33 69.29 114.33 69.05 109.12 C 62.51 103.56 52.37 107.69 46.17 101.88 Z" />
</g>
<g id="#a9bacefe">
<path fill="#a9bace" opacity="1.00" d=" M 16.09 106.15 C 16.70 104.65 17.10 102.61 18.79 101.97 C 19.03 102.59 19.52 103.82 19.76 104.43 C 19.86 106.09 21.39 105.91 22.63 105.97 C 21.31 110.05 24.03 114.16 22.34 118.30 C 22.88 125.19 19.94 132.50 22.01 139.18 C 21.85 140.16 21.66 141.15 21.45 142.13 C 18.07 138.56 19.64 149.23 18.23 150.75 C 18.10 151.36 17.86 152.57 17.74 153.18 C 17.16 148.72 16.98 144.23 16.74 139.75 C 17.29 138.39 18.32 137.31 19.14 136.11 C 20.07 135.03 20.10 133.56 20.34 132.24 C 21.35 128.04 20.25 123.84 20.51 119.63 C 22.37 114.92 18.77 111.05 18.76 106.49 C 17.87 106.36 16.98 106.27 16.09 106.15 Z" />
</g>
<g id="#545f72ff">
<path fill="#545f72" opacity="1.00" d=" M 94.06 101.92 C 96.68 102.20 99.33 102.49 101.92 103.07 C 103.37 104.30 107.39 106.19 104.33 107.94 C 104.07 108.21 103.57 108.74 103.32 109.00 C 102.56 105.18 98.15 105.04 95.09 104.26 C 93.71 105.54 94.99 107.54 94.86 109.14 C 93.39 107.35 92.85 105.12 92.77 102.84 C 93.09 102.61 93.74 102.15 94.06 101.92 Z" />
</g>
<g id="#d2e8f3ff">
<path fill="#d2e8f3" opacity="1.00" d=" M 77.80 103.72 C 78.31 103.47 79.32 102.98 79.82 102.74 C 80.63 102.83 82.23 103.02 83.04 103.12 C 81.02 110.42 77.27 117.25 72.72 123.27 C 72.09 116.50 79.72 111.01 77.80 103.72 Z" />
</g>
<g id="#8796adff">
<path fill="#8796ad" opacity="1.00" d=" M 85.51 118.70 C 85.33 112.82 86.60 105.18 92.77 102.84 C 92.85 105.12 93.39 107.35 94.86 109.14 C 95.60 110.43 96.28 111.75 96.92 113.10 C 97.37 117.99 102.49 115.34 105.36 114.27 C 103.44 118.40 98.51 119.58 94.97 121.93 C 84.06 126.60 76.46 136.06 68.37 144.35 C 60.31 157.12 47.08 166.11 41.15 180.28 C 39.73 181.14 38.28 181.97 36.88 182.86 C 35.95 183.42 34.99 183.94 34.12 184.60 C 33.13 185.18 32.44 185.97 32.05 186.97 C 31.66 188.24 31.26 189.51 31.03 190.82 C 34.43 191.61 37.96 191.71 41.28 192.80 C 40.79 192.92 39.81 193.16 39.31 193.29 C 35.90 193.16 32.50 192.91 29.08 193.00 C 29.28 193.53 29.68 194.58 29.88 195.10 C 27.67 194.74 25.34 193.11 24.39 191.19 C 24.25 190.84 23.96 190.13 23.82 189.78 C 37.06 183.80 42.10 169.48 51.04 159.03 C 58.12 151.10 64.05 142.12 72.24 135.24 C 76.70 129.90 84.14 126.01 85.51 118.70 Z" />
</g>
<g id="#96a7beff">
<path fill="#96a7be" opacity="1.00" d=" M 66.78 105.30 C 69.56 105.03 72.28 104.37 75.05 104.06 C 75.65 107.42 76.27 111.09 74.03 114.02 C 70.23 120.38 68.24 128.69 61.82 133.03 C 65.26 124.74 68.29 116.23 73.95 109.13 C 71.90 107.28 69.21 106.51 66.78 105.30 Z" />
</g>
<g id="#b3c7daff">
<path fill="#b3c7da" opacity="1.00" d=" M 75.05 104.06 C 75.73 103.97 77.11 103.80 77.80 103.72 C 79.72 111.01 72.09 116.50 72.72 123.27 C 70.20 127.99 66.09 131.54 62.17 135.06 C 62.08 134.55 61.91 133.54 61.82 133.03 C 68.24 128.69 70.23 120.38 74.03 114.02 C 76.27 111.09 75.65 107.42 75.05 104.06 Z" />
</g>
<g id="#2c2e33ff">
<path fill="#2c2e33" opacity="1.00" d=" M 95.09 104.26 C 98.15 105.04 102.56 105.18 103.32 109.00 C 102.23 110.22 101.08 111.39 99.89 112.51 C 98.89 112.70 97.90 112.90 96.92 113.10 C 96.28 111.75 95.60 110.43 94.86 109.14 C 94.99 107.54 93.71 105.54 95.09 104.26 Z" />
</g>
<g id="#13171971">
<path fill="#131719" opacity="0.44" d=" M 160.00 105.05 L 160.97 104.98 C 161.00 108.45 161.03 111.93 161.06 115.40 C 160.75 114.85 160.14 113.75 159.83 113.20 C 159.85 112.42 159.91 110.87 159.93 110.09 C 159.94 109.35 159.96 107.85 159.97 107.10 C 159.98 106.59 159.99 105.57 160.00 105.05 Z" />
</g>
<g id="#b8cadafd">
<path fill="#b8cada" opacity="1.00" d=" M 16.09 106.15 C 16.98 106.27 17.87 106.36 18.76 106.49 C 18.77 111.05 22.37 114.92 20.51 119.63 C 20.25 123.84 21.35 128.04 20.34 132.24 C 18.87 126.61 21.98 116.48 15.07 113.73 C 15.01 111.17 13.97 108.01 16.09 106.15 Z" />
</g>
<g id="#7a88a0ff">
<path fill="#7a88a0" opacity="1.00" d=" M 109.23 105.75 C 116.09 108.32 119.71 115.62 126.08 119.01 C 134.03 118.69 139.37 111.65 144.97 106.95 C 147.15 107.60 151.50 112.47 151.31 107.65 C 152.01 109.09 152.80 110.51 153.14 112.09 C 150.23 112.36 146.89 110.18 144.41 112.38 C 140.82 116.39 136.09 119.95 130.61 120.53 C 127.40 120.10 121.77 123.11 119.89 119.07 C 117.02 115.20 113.52 111.85 109.86 108.74 L 109.65 107.81 C 109.54 107.30 109.33 106.26 109.23 105.75 Z" />
</g>
<g id="#4d5e79ff">
<path fill="#4d5e79" opacity="1.00" d=" M 150.94 106.76 C 154.58 106.39 157.33 110.84 159.83 113.20 C 160.14 113.75 160.75 114.85 161.06 115.40 C 160.02 115.66 158.99 115.91 157.95 116.13 C 156.71 116.39 155.50 116.72 154.27 116.98 C 154.48 115.93 154.68 114.88 154.88 113.83 C 153.46 115.07 151.14 117.37 152.79 119.21 C 153.37 120.61 156.59 123.69 153.18 122.94 C 151.30 121.48 149.55 122.71 148.04 124.00 C 148.00 123.48 147.92 122.44 147.89 121.92 C 149.32 120.83 151.66 119.95 150.39 117.80 C 150.88 116.86 151.44 115.97 151.93 115.05 C 152.49 114.13 152.90 113.14 153.14 112.09 C 152.80 110.51 152.01 109.09 151.31 107.65 L 150.94 106.76 Z" />
</g>
<g id="#bfd1dfff">
<path fill="#bfd1df" opacity="1.00" d=" M 104.33 107.94 C 104.85 108.19 105.90 108.68 106.42 108.92 C 105.56 111.96 103.00 114.00 99.89 112.51 C 101.08 111.39 102.23 110.22 103.32 109.00 C 103.57 108.74 104.07 108.21 104.33 107.94 Z" />
</g>
<g id="#516077ff">
<path fill="#516077" opacity="1.00" d=" M 110.09 122.08 C 109.88 117.32 108.86 112.59 109.65 107.81 L 109.86 108.74 C 110.20 110.74 110.69 112.71 111.24 114.66 C 111.70 116.40 112.19 118.13 112.69 119.86 C 111.94 120.29 111.28 120.83 110.71 121.47 L 110.09 122.08 Z" />
</g>
<g id="#98a7bcff">
<path fill="#98a7bc" opacity="1.00" d=" M 106.42 108.92 C 107.81 110.00 106.12 112.35 106.16 113.91 L 105.36 114.27 C 102.49 115.34 97.37 117.99 96.92 113.10 C 97.90 112.90 98.89 112.70 99.89 112.51 C 103.00 114.00 105.56 111.96 106.42 108.92 Z" />
</g>
<g id="#6e7c94ff">
<path fill="#6e7c94" opacity="1.00" d=" M 109.86 108.74 C 113.52 111.85 117.02 115.20 119.89 119.07 C 121.77 123.11 127.40 120.10 130.61 120.53 C 136.09 119.95 140.82 116.39 144.41 112.38 C 146.89 110.18 150.23 112.36 153.14 112.09 C 152.90 113.14 152.49 114.13 151.93 115.05 C 145.93 112.25 141.97 118.84 137.01 121.00 C 132.79 123.32 127.57 125.08 122.84 123.27 C 117.79 122.24 115.69 116.80 111.24 114.66 C 110.69 112.71 110.20 110.74 109.86 108.74 Z" />
</g>
<g id="#7e8da6ff">
<path fill="#7e8da6" opacity="1.00" d=" M 29.16 112.13 C 30.13 111.77 31.10 111.43 32.08 111.11 C 31.25 121.49 27.55 131.59 28.74 142.11 C 27.91 140.68 27.06 139.25 26.19 137.85 C 25.76 134.80 27.36 131.80 26.39 128.81 C 26.37 128.41 26.31 127.60 26.28 127.20 C 29.20 122.73 29.37 117.30 29.16 112.13 Z" />
</g>
<g id="#9babbaee">
<path fill="#9babba" opacity="0.93" d=" M 8.71 113.71 C 9.33 113.32 11.60 110.53 11.03 112.95 C 10.96 118.06 9.31 123.14 10.72 128.22 C 11.21 131.23 12.00 134.19 12.44 137.21 C 12.66 138.54 12.75 139.90 12.50 141.24 C 8.85 134.15 10.01 125.80 7.47 118.36 C 6.71 116.61 6.99 114.72 8.71 113.71 Z" />
</g>
<g id="#8e9db0ff">
<path fill="#8e9db0" opacity="1.00" d=" M 11.03 112.95 L 12.03 112.90 C 12.08 113.62 12.20 115.07 12.26 115.79 C 11.44 119.89 10.99 124.05 10.72 128.22 C 9.31 123.14 10.96 118.06 11.03 112.95 Z" />
</g>
<g id="#5d6e8afd">
<path fill="#5d6e8a" opacity="1.00" d=" M 12.03 112.90 C 13.16 113.30 13.79 114.01 13.91 115.03 C 12.65 119.85 15.06 123.84 18.04 127.18 C 17.34 132.36 15.80 137.65 13.42 142.28 C 13.19 142.02 12.73 141.50 12.50 141.24 C 12.75 139.90 12.66 138.54 12.44 137.21 C 13.75 136.52 15.34 134.94 14.56 133.36 C 12.19 127.85 13.40 121.57 12.26 115.79 C 12.20 115.07 12.08 113.62 12.03 112.90 Z" />
</g>
<g id="#d4e6f0ff">
<path fill="#d4e6f0" opacity="1.00" d=" M 15.07 113.73 C 21.98 116.48 18.87 126.61 20.34 132.24 C 20.10 133.56 20.07 135.03 19.14 136.11 C 19.17 132.31 18.88 128.53 18.29 124.79 C 17.82 121.28 15.46 118.41 14.82 114.96 L 15.07 113.73 Z" />
</g>
<g id="#7a879dff">
<path fill="#7a879d" opacity="1.00" d=" M 105.36 114.27 L 106.16 113.91 C 106.18 121.46 97.41 122.54 93.27 127.09 L 92.86 127.64 C 87.46 131.53 80.26 133.72 76.98 139.99 C 73.46 144.54 71.13 149.78 69.25 155.19 C 68.27 158.32 65.13 159.86 62.69 161.72 C 60.84 162.67 59.26 164.06 57.91 165.63 C 57.25 166.34 56.62 167.07 56.00 167.81 C 55.69 168.11 55.07 168.71 54.76 169.01 C 53.34 170.23 52.00 171.54 50.71 172.89 C 47.58 175.41 44.74 178.40 41.15 180.28 C 47.08 166.11 60.31 157.12 68.37 144.35 C 76.46 136.06 84.06 126.60 94.97 121.93 C 98.51 119.58 103.44 118.40 105.36 114.27 Z" />
</g>
<g id="#616e87ff">
<path fill="#616e87" opacity="1.00" d=" M 137.01 121.00 C 141.97 118.84 145.93 112.25 151.93 115.05 C 151.44 115.97 150.88 116.86 150.39 117.80 C 145.09 117.87 140.36 121.28 136.88 125.04 C 135.90 125.48 134.90 125.89 133.90 126.27 L 133.09 126.27 C 127.52 126.89 121.50 127.74 117.19 123.30 C 115.67 122.18 114.16 121.04 112.69 119.86 C 112.19 118.13 111.70 116.40 111.24 114.66 C 115.69 116.80 117.79 122.24 122.84 123.27 C 127.57 125.08 132.79 123.32 137.01 121.00 Z" />
</g>
<g id="#5a6880ff">
<path fill="#5a6880" opacity="1.00" d=" M 152.79 119.21 C 151.14 117.37 153.46 115.07 154.88 113.83 C 154.68 114.88 154.48 115.93 154.27 116.98 C 155.50 116.72 156.71 116.39 157.95 116.13 C 158.00 116.86 158.09 118.30 158.14 119.02 C 161.64 119.24 164.71 117.09 168.18 116.99 C 166.51 119.43 163.30 119.63 160.84 120.89 C 160.29 121.10 159.21 121.54 158.67 121.75 C 156.68 122.25 155.51 123.62 156.29 125.69 C 158.15 131.68 153.51 137.41 155.42 143.40 C 154.13 146.98 157.08 147.85 158.96 149.30 L 159.21 150.26 C 159.43 151.13 159.68 152.00 159.96 152.87 C 157.21 153.82 154.80 155.51 152.05 156.45 C 149.56 154.54 153.38 152.89 153.96 150.93 C 153.22 147.22 151.86 143.62 151.71 139.80 C 152.67 135.64 157.64 131.02 154.85 126.97 C 151.96 128.64 150.45 132.70 146.89 133.05 C 148.44 129.55 155.40 127.36 153.18 122.94 C 156.59 123.69 153.37 120.61 152.79 119.21 Z" />
</g>
<g id="#8698b0ff">
<path fill="#8698b0" opacity="1.00" d=" M 13.91 115.03 L 14.82 114.96 C 15.46 118.41 17.82 121.28 18.29 124.79 C 18.23 125.39 18.11 126.58 18.04 127.18 C 15.06 123.84 12.65 119.85 13.91 115.03 Z" />
</g>
<g id="#7a8ea6fb">
<path fill="#7a8ea6" opacity="1.00" d=" M 161.06 115.40 C 163.62 114.06 172.57 114.84 170.62 119.69 C 168.16 129.38 163.91 139.69 167.45 149.68 C 168.69 152.18 167.57 154.87 165.86 156.82 C 163.92 157.51 161.96 158.17 160.05 158.95 C 160.12 157.23 161.06 155.45 160.27 153.78 L 159.96 152.87 C 159.68 152.00 159.43 151.13 159.21 150.26 C 162.43 142.63 163.27 134.27 163.90 126.10 C 163.04 124.27 161.84 122.63 160.84 120.89 C 163.30 119.63 166.51 119.43 168.18 116.99 C 164.71 117.09 161.64 119.24 158.14 119.02 C 158.09 118.30 158.00 116.86 157.95 116.13 C 158.99 115.91 160.02 115.66 161.06 115.40 Z" />
</g>
<g id="#7686a0ff">
<path fill="#7686a0" opacity="1.00" d=" M 12.26 115.79 C 13.40 121.57 12.19 127.85 14.56 133.36 C 15.34 134.94 13.75 136.52 12.44 137.21 C 12.00 134.19 11.21 131.23 10.72 128.22 C 10.99 124.05 11.44 119.89 12.26 115.79 Z" />
</g>
<g id="#56637cff">
<path fill="#56637c" opacity="1.00" d=" M 136.88 125.04 C 140.36 121.28 145.09 117.87 150.39 117.80 C 146.92 121.71 141.83 123.70 136.88 125.04 Z" />
</g>
<g id="#354157ff">
<path fill="#354157" opacity="1.00" d=" M 150.39 117.80 C 151.66 119.95 149.32 120.83 147.89 121.92 C 143.71 124.58 139.23 127.94 133.90 126.27 C 134.90 125.89 135.90 125.48 136.88 125.04 C 141.83 123.70 146.92 121.71 150.39 117.80 Z" />
</g>
<g id="#364258ff">
<path fill="#364258" opacity="1.00" d=" M 110.71 121.47 C 111.28 120.83 111.94 120.29 112.69 119.86 C 114.16 121.04 115.67 122.18 117.19 123.30 C 116.68 123.40 115.66 123.61 115.15 123.71 C 113.68 122.93 112.21 122.17 110.71 121.47 Z" />
</g>
<g id="#728199ff">
<path fill="#728199" opacity="1.00" d=" M 158.67 121.75 C 159.21 121.54 160.29 121.10 160.84 120.89 C 161.84 122.63 163.04 124.27 163.90 126.10 C 163.27 134.27 162.43 142.63 159.21 150.26 L 158.96 149.30 C 157.91 140.05 160.96 130.83 158.67 121.75 Z" />
</g>
<g id="#45526bff">
<path fill="#45526b" opacity="1.00" d=" M 110.09 122.08 L 110.71 121.47 C 112.21 122.17 113.68 122.93 115.15 123.71 C 114.60 123.83 113.51 124.06 112.96 124.18 C 115.76 128.25 120.98 131.00 125.98 130.02 C 128.48 130.26 133.78 130.14 133.09 126.27 L 133.90 126.27 C 139.23 127.94 143.71 124.58 147.89 121.92 C 147.92 122.44 148.00 123.48 148.04 124.00 C 147.38 125.00 146.70 125.97 146.06 126.98 C 145.11 127.52 144.15 128.07 143.16 128.56 C 136.17 130.02 129.41 133.48 122.01 132.98 C 117.44 132.24 113.13 130.33 109.99 126.86 C 109.92 126.10 109.80 124.56 109.73 123.80 C 109.82 123.37 110.00 122.51 110.09 122.08 Z" />
</g>
<g id="#718199ff">
<path fill="#718199" opacity="1.00" d=" M 148.04 124.00 C 149.55 122.71 151.30 121.48 153.18 122.94 C 155.40 127.36 148.44 129.55 146.89 133.05 C 150.45 132.70 151.96 128.64 154.85 126.97 C 157.64 131.02 152.67 135.64 151.71 139.80 C 150.60 142.44 149.72 145.18 148.95 147.95 C 148.43 148.20 147.40 148.72 146.88 148.98 C 146.93 145.83 148.29 142.95 149.03 139.94 C 146.11 141.24 143.96 143.79 141.00 145.02 C 139.15 144.33 137.50 143.18 136.07 141.83 C 138.21 136.08 145.97 133.66 146.06 126.98 C 146.70 125.97 147.38 125.00 148.04 124.00 Z" />
</g>
<g id="#68768eff">
<path fill="#68768e" opacity="1.00" d=" M 156.29 125.69 C 155.51 123.62 156.68 122.25 158.67 121.75 C 160.96 130.83 157.91 140.05 158.96 149.30 C 157.08 147.85 154.13 146.98 155.42 143.40 C 153.51 137.41 158.15 131.68 156.29 125.69 Z" />
</g>
<g id="#515d76ff">
<path fill="#515d76" opacity="1.00" d=" M 117.19 123.30 C 121.50 127.74 127.52 126.89 133.09 126.27 C 133.78 130.14 128.48 130.26 125.98 130.02 C 120.98 131.00 115.76 128.25 112.96 124.18 C 113.51 124.06 114.60 123.83 115.15 123.71 C 115.66 123.61 116.68 123.40 117.19 123.30 Z" />
</g>
<g id="#64748cfd">
<path fill="#64748c" opacity="1.00" d=" M 108.57 127.59 C 109.02 126.35 109.34 125.06 109.73 123.80 C 109.80 124.56 109.92 126.10 109.99 126.86 C 109.77 130.02 111.94 132.45 113.64 134.86 C 114.92 136.86 116.02 138.97 117.08 141.09 C 117.15 141.53 117.29 142.41 117.36 142.84 C 118.00 147.19 110.14 140.58 114.99 149.02 C 115.33 152.40 113.17 155.32 113.08 158.62 C 114.50 159.06 116.20 159.24 116.34 161.08 C 113.50 164.18 110.31 166.94 107.59 170.15 C 106.20 171.63 105.08 173.32 103.81 174.90 C 102.77 175.82 101.75 176.78 100.87 177.87 C 100.61 178.41 100.07 179.48 99.81 180.01 C 99.72 180.24 99.53 180.71 99.44 180.94 C 96.55 178.32 93.58 184.75 90.06 181.90 C 86.91 180.61 83.63 179.33 80.31 180.89 C 80.16 179.61 79.46 179.01 78.22 179.07 C 72.53 177.72 66.10 179.97 62.03 183.96 C 62.18 184.32 62.47 185.03 62.62 185.38 C 62.77 185.73 63.07 186.42 63.22 186.76 C 67.34 186.10 70.97 182.76 75.21 183.46 C 71.90 186.71 66.63 186.20 63.18 189.17 C 63.04 190.48 62.92 191.79 62.83 193.11 C 61.54 192.16 60.35 191.04 59.45 189.71 C 58.67 188.50 57.90 187.02 56.26 187.00 C 55.99 186.54 55.44 185.60 55.17 185.13 C 61.77 179.05 69.02 170.65 78.90 172.05 C 84.41 174.27 90.46 180.87 96.75 176.73 C 102.53 169.17 109.39 161.78 112.62 152.70 C 112.76 147.24 111.53 137.63 104.32 137.60 C 95.20 135.06 88.77 143.41 80.79 145.90 C 82.22 144.24 84.41 143.16 85.18 141.01 C 79.13 142.95 76.07 148.78 72.04 153.17 C 72.91 147.38 76.88 142.78 80.03 138.04 C 83.90 134.05 89.13 131.65 93.91 128.90 C 93.65 128.59 93.12 127.96 92.86 127.64 L 93.27 127.09 C 95.54 126.54 97.83 125.94 100.19 126.04 C 95.98 130.34 90.17 132.72 85.71 136.78 C 93.82 135.16 101.64 132.13 108.57 127.59 Z" />
</g>
<g id="#e6eef2fb">
<path fill="#e6eef2" opacity="1.00" d=" M 18.29 124.79 C 18.88 128.53 19.17 132.31 19.14 136.11 C 18.32 137.31 17.29 138.39 16.74 139.75 C 15.13 148.21 16.56 157.03 15.81 165.62 C 13.74 165.84 12.73 167.28 12.19 169.16 C 11.07 160.13 13.78 151.28 13.42 142.28 C 15.80 137.65 17.34 132.36 18.04 127.18 C 18.11 126.58 18.23 125.39 18.29 124.79 Z" />
</g>
<g id="#3a465fff">
<path fill="#3a465f" opacity="1.00" d=" M 109.99 126.86 C 113.13 130.33 117.44 132.24 122.01 132.98 C 129.41 133.48 136.17 130.02 143.16 128.56 C 142.40 129.31 141.67 130.08 140.96 130.87 C 138.00 132.44 135.18 134.24 132.15 135.67 C 128.42 135.25 124.70 135.39 120.99 135.83 C 118.47 136.02 116.04 133.45 113.64 134.86 C 111.94 132.45 109.77 130.02 109.99 126.86 Z" />
</g>
<g id="#65748eff">
<path fill="#65748e" opacity="1.00" d=" M 143.16 128.56 C 144.15 128.07 145.11 127.52 146.06 126.98 C 145.97 133.66 138.21 136.08 136.07 141.83 C 137.50 143.18 139.15 144.33 141.00 145.02 C 143.96 143.79 146.11 141.24 149.03 139.94 C 148.29 142.95 146.93 145.83 146.88 148.98 C 147.40 148.72 148.43 148.20 148.95 147.95 C 148.93 151.33 149.00 154.75 148.89 158.14 C 143.92 158.66 145.47 152.31 144.87 149.00 C 143.56 149.97 142.39 151.12 141.03 152.03 C 138.64 150.51 136.65 148.13 133.40 148.45 C 131.80 147.61 128.46 147.65 129.03 145.13 C 129.91 144.00 131.15 143.15 131.78 141.84 C 133.68 137.27 140.18 136.03 140.96 130.87 C 141.67 130.08 142.40 129.31 143.16 128.56 Z" />
</g>
<g id="#4c586bff">
<path fill="#4c586b" opacity="1.00" d=" M 76.98 139.99 C 80.26 133.72 87.46 131.53 92.86 127.64 C 93.12 127.96 93.65 128.59 93.91 128.90 C 89.13 131.65 83.90 134.05 80.03 138.04 C 76.88 142.78 72.91 147.38 72.04 153.17 C 76.07 148.78 79.13 142.95 85.18 141.01 C 84.41 143.16 82.22 144.24 80.79 145.90 C 77.39 149.22 74.26 152.87 71.53 156.76 C 67.78 159.48 68.13 164.10 66.74 168.08 C 65.34 170.25 63.60 172.37 60.94 172.91 L 60.82 172.06 C 63.06 170.14 66.28 168.68 65.97 165.00 C 70.32 158.98 64.95 161.76 62.69 161.72 C 65.13 159.86 68.27 158.32 69.25 155.19 C 71.13 149.78 73.46 144.54 76.98 139.99 Z" />
</g>
<g id="#56667dff">
<path fill="#56667d" opacity="1.00" d=" M 26.39 128.81 C 27.36 131.80 25.76 134.80 26.19 137.85 C 23.66 141.96 25.29 134.16 24.99 132.06 C 25.48 130.98 25.95 129.90 26.39 128.81 Z" />
</g>
<g id="#596780ff">
<path fill="#596780" opacity="1.00" d=" M 132.15 135.67 C 135.18 134.24 138.00 132.44 140.96 130.87 C 140.18 136.03 133.68 137.27 131.78 141.84 C 131.15 143.15 129.91 144.00 129.03 145.13 C 128.46 147.65 131.80 147.61 133.40 148.45 C 136.65 148.13 138.64 150.51 141.03 152.03 C 142.39 151.12 143.56 149.97 144.87 149.00 C 145.47 152.31 143.92 158.66 148.89 158.14 L 149.65 158.23 C 151.88 158.54 154.01 157.49 156.18 157.13 C 154.76 158.79 153.21 160.39 151.13 161.20 C 145.72 163.68 142.65 169.52 136.92 171.41 C 136.73 171.11 136.35 170.52 136.16 170.23 C 139.12 169.12 141.80 166.31 141.99 163.07 C 139.19 157.72 135.30 150.92 128.06 151.86 C 125.37 151.25 124.59 147.98 123.58 145.77 C 125.27 145.16 127.10 144.68 128.20 143.13 C 127.43 143.13 125.88 143.14 125.11 143.15 C 126.69 141.03 128.29 138.93 129.88 136.83 C 130.45 136.54 131.58 135.96 132.15 135.67 Z" />
</g>
<g id="#8796acff">
<path fill="#8796ac" opacity="1.00" d=" M 24.04 132.02 L 24.99 132.06 C 25.29 134.16 23.66 141.96 26.19 137.85 C 27.06 139.25 27.91 140.68 28.74 142.11 C 31.24 150.05 40.78 146.67 46.94 146.10 C 46.38 147.15 45.76 148.18 45.17 149.22 C 42.83 150.34 35.16 153.58 36.60 149.13 C 34.60 148.91 32.42 147.83 30.52 148.97 C 28.84 147.79 27.61 146.10 26.05 144.78 C 25.76 151.57 27.32 158.21 28.24 164.89 C 28.77 167.60 30.85 170.43 29.07 173.11 C 28.54 173.11 27.48 173.12 26.95 173.12 C 23.71 162.08 23.69 150.25 23.68 138.87 C 23.77 137.16 23.95 133.74 24.04 132.02 Z" />
</g>
<g id="#0b0f17ff">
<path fill="#0b0f17" opacity="1.00" d=" M 113.64 134.86 C 116.04 133.45 118.47 136.02 120.99 135.83 C 124.70 135.39 128.42 135.25 132.15 135.67 C 131.58 135.96 130.45 136.54 129.88 136.83 C 126.92 137.90 123.92 138.82 120.98 139.93 C 119.68 140.31 118.38 140.72 117.08 141.09 C 116.02 138.97 114.92 136.86 113.64 134.86 Z" />
</g>
<g id="#717e95ff">
<path fill="#717e95" opacity="1.00" d=" M 80.79 145.90 C 88.77 143.41 95.20 135.06 104.32 137.60 C 111.53 137.63 112.76 147.24 112.62 152.70 C 109.39 161.78 102.53 169.17 96.75 176.73 C 90.46 180.87 84.41 174.27 78.90 172.05 C 69.02 170.65 61.77 179.05 55.17 185.13 C 55.44 185.60 55.99 186.54 56.26 187.00 C 54.10 188.55 51.72 189.77 49.20 190.63 C 47.00 189.68 43.14 191.45 42.02 189.12 C 49.79 186.19 55.63 180.40 60.88 174.18 C 59.51 173.89 58.13 173.60 56.76 173.25 C 58.16 173.18 59.55 173.07 60.94 172.91 C 63.60 172.37 65.34 170.25 66.74 168.08 C 67.07 168.30 67.72 168.72 68.05 168.93 C 71.59 167.38 74.70 164.22 78.74 164.22 C 82.69 168.04 86.51 172.86 91.81 174.72 C 99.39 169.48 105.23 161.72 109.67 153.72 C 109.82 149.28 107.29 140.27 101.34 141.36 C 92.09 145.10 84.84 152.13 76.61 157.57 C 75.02 159.05 71.35 160.10 71.53 156.76 C 74.26 152.87 77.39 149.22 80.79 145.90 Z" />
</g>
<g id="#455472ff">
<path fill="#455472" opacity="1.00" d=" M 120.98 139.93 C 123.92 138.82 126.92 137.90 129.88 136.83 C 128.29 138.93 126.69 141.03 125.11 143.15 C 123.83 143.35 121.27 143.76 119.99 143.96 C 120.26 142.60 120.64 141.27 120.98 139.93 Z" />
</g>
<g id="#919fb4ff">
<path fill="#919fb4" opacity="1.00" d=" M 22.01 139.18 C 22.43 139.10 23.26 138.95 23.68 138.87 C 23.69 150.25 23.71 162.08 26.95 173.12 C 25.20 173.06 23.46 172.81 21.76 172.45 C 22.24 172.32 23.22 172.07 23.71 171.95 C 23.25 167.62 22.36 163.35 22.17 159.00 C 21.22 154.98 23.39 150.11 20.89 146.50 C 21.03 145.04 21.21 143.58 21.45 142.13 C 21.66 141.15 21.85 140.16 22.01 139.18 Z" />
</g>
<g id="#9cadc5ff">
<path fill="#9cadc5" opacity="1.00" d=" M 54.18 143.36 C 56.20 141.90 58.17 140.37 60.09 138.79 C 58.45 145.20 50.90 149.47 46.42 154.31 C 45.88 157.81 44.33 161.09 41.28 163.06 C 40.90 161.74 41.21 160.13 40.37 159.00 C 39.37 156.94 37.05 156.77 35.34 155.67 C 33.70 153.43 33.07 150.42 30.52 148.97 C 32.42 147.83 34.60 148.91 36.60 149.13 C 35.16 153.58 42.83 150.34 45.17 149.22 C 48.24 147.38 51.45 145.69 54.18 143.36 Z" />
</g>
<g id="#b9cadcfe">
<path fill="#b9cadc" opacity="1.00" d=" M 15.81 165.62 C 16.56 157.03 15.13 148.21 16.74 139.75 C 16.98 144.23 17.16 148.72 17.74 153.18 C 17.45 158.34 17.24 163.52 17.84 168.67 C 17.61 173.11 17.17 177.54 17.99 181.97 C 17.49 181.72 16.50 181.21 16.00 180.96 C 15.84 179.12 15.20 177.39 14.49 175.71 C 13.96 173.44 13.16 171.28 12.19 169.16 C 12.73 167.28 13.74 165.84 15.81 165.62 Z" />
</g>
<g id="#384660ff">
<path fill="#384660" opacity="1.00" d=" M 117.08 141.09 C 118.38 140.72 119.68 140.31 120.98 139.93 C 120.64 141.27 120.26 142.60 119.99 143.96 C 121.27 143.76 123.83 143.35 125.11 143.15 C 125.88 143.14 127.43 143.13 128.20 143.13 C 127.10 144.68 125.27 145.16 123.58 145.77 C 123.17 145.85 122.34 146.02 121.93 146.11 C 120.92 146.33 119.94 146.61 118.97 146.95 C 118.40 145.59 117.87 144.22 117.36 142.84 C 117.29 142.41 117.15 141.53 117.08 141.09 Z" />
</g>
<g id="#515e76ff">
<path fill="#515e76" opacity="1.00" d=" M 148.95 147.95 C 149.72 145.18 150.60 142.44 151.71 139.80 C 151.86 143.62 153.22 147.22 153.96 150.93 C 153.38 152.89 149.56 154.54 152.05 156.45 C 151.24 157.03 150.44 157.62 149.65 158.23 L 148.89 158.14 C 149.00 154.75 148.93 151.33 148.95 147.95 Z" />
</g>
<g id="#bccddeff">
<path fill="#bccdde" opacity="1.00" d=" M 18.23 150.75 C 19.64 149.23 18.07 138.56 21.45 142.13 C 21.21 143.58 21.03 145.04 20.89 146.50 C 19.36 154.26 20.22 162.18 20.00 170.03 C 19.66 169.81 18.98 169.38 18.64 169.17 C 18.45 163.11 20.22 156.62 18.23 150.75 Z" />
</g>
<g id="#7a879eff">
<path fill="#7a879e" opacity="1.00" d=" M 101.34 141.36 C 107.29 140.27 109.82 149.28 109.67 153.72 C 105.23 161.72 99.39 169.48 91.81 174.72 C 86.51 172.86 82.69 168.04 78.74 164.22 C 74.70 164.22 71.59 167.38 68.05 168.93 C 67.72 168.72 67.07 168.30 66.74 168.08 C 68.13 164.10 67.78 159.48 71.53 156.76 C 71.35 160.10 75.02 159.05 76.61 157.57 C 84.84 152.13 92.09 145.10 101.34 141.36 Z" />
</g>
<g id="#5b6b85ff">
<path fill="#5b6b85" opacity="1.00" d=" M 117.36 142.84 C 117.87 144.22 118.40 145.59 118.97 146.95 C 119.68 150.16 119.91 153.47 119.98 156.76 C 118.68 158.13 117.60 159.68 116.34 161.08 C 116.20 159.24 114.50 159.06 113.08 158.62 C 113.17 155.32 115.33 152.40 114.99 149.02 C 110.14 140.58 118.00 147.19 117.36 142.84 Z" />
</g>
<g id="#8290a6ff">
<path fill="#8290a6" opacity="1.00" d=" M 26.05 144.78 C 27.61 146.10 28.84 147.79 30.52 148.97 C 33.07 150.42 33.70 153.43 35.34 155.67 C 37.05 156.77 39.37 156.94 40.37 159.00 C 39.38 159.34 37.15 159.05 38.53 160.59 C 41.15 164.24 39.09 168.85 36.17 171.55 C 33.65 171.13 31.54 173.02 29.07 173.11 C 30.85 170.43 28.77 167.60 28.24 164.89 C 27.32 158.21 25.76 151.57 26.05 144.78 Z" />
</g>
<g id="#43506bff">
<path fill="#43506b" opacity="1.00" d=" M 118.97 146.95 C 119.94 146.61 120.92 146.33 121.93 146.11 C 119.33 150.89 126.48 154.64 130.06 155.85 C 135.25 157.19 136.90 163.61 135.28 168.20 C 134.97 167.82 134.37 167.07 134.06 166.70 C 133.36 165.77 132.66 164.85 131.98 163.92 C 131.44 163.13 130.83 162.40 130.16 161.72 C 128.65 159.79 127.10 162.92 125.56 163.43 C 116.32 166.53 112.51 180.37 100.87 177.87 C 101.75 176.78 102.77 175.82 103.81 174.90 C 112.67 175.93 115.41 164.39 123.12 162.16 C 124.70 161.82 125.91 160.64 126.30 159.07 C 126.77 158.99 127.69 158.83 128.15 158.75 C 126.48 155.89 122.79 157.21 119.98 156.76 C 119.91 153.47 119.68 150.16 118.97 146.95 Z" />
</g>
<g id="#505c75ff">
<path fill="#505c75" opacity="1.00" d=" M 121.93 146.11 C 122.34 146.02 123.17 145.85 123.58 145.77 C 124.59 147.98 125.37 151.25 128.06 151.86 C 135.30 150.92 139.19 157.72 141.99 163.07 C 141.80 166.31 139.12 169.12 136.16 170.23 C 135.94 169.91 135.52 169.27 135.30 168.95 L 135.28 168.20 C 136.90 163.61 135.25 157.19 130.06 155.85 C 126.48 154.64 119.33 150.89 121.93 146.11 Z" />
</g>
<g id="#99a8beff">
<path fill="#99a8be" opacity="1.00" d=" M 20.00 170.03 C 20.22 162.18 19.36 154.26 20.89 146.50 C 23.39 150.11 21.22 154.98 22.17 159.00 C 22.36 163.35 23.25 167.62 23.71 171.95 C 23.22 172.07 22.24 172.32 21.76 172.45 C 21.27 172.39 20.29 172.27 19.80 172.21 C 22.59 175.96 27.66 174.90 31.77 174.85 C 32.61 174.91 34.29 175.04 35.13 175.10 C 31.77 179.36 28.09 183.45 23.94 186.96 C 22.70 187.55 22.84 189.03 23.82 189.78 C 23.96 190.13 24.25 190.84 24.39 191.19 C 23.50 191.16 21.71 191.10 20.82 191.07 L 19.80 191.01 C 19.36 188.63 19.77 185.98 19.71 183.68 C 18.51 185.26 19.80 189.42 16.96 186.92 C 16.46 184.97 16.11 182.98 16.00 180.96 C 16.50 181.21 17.49 181.72 17.99 181.97 C 17.17 177.54 17.61 173.11 17.84 168.67 L 18.64 169.17 C 18.98 169.38 19.66 169.81 20.00 170.03 Z" />
</g>
<g id="#d7e8f4ff">
<path fill="#d7e8f4" opacity="1.00" d=" M 18.23 150.75 C 20.22 156.62 18.45 163.11 18.64 169.17 L 17.84 168.67 C 17.24 163.52 17.45 158.34 17.74 153.18 C 17.86 152.57 18.10 151.36 18.23 150.75 Z" />
</g>
<g id="#434f65ff">
<path fill="#434f65" opacity="1.00" d=" M 152.05 156.45 C 154.80 155.51 157.21 153.82 159.96 152.87 L 160.27 153.78 C 158.94 154.94 157.55 156.02 156.18 157.13 C 154.01 157.49 151.88 158.54 149.65 158.23 C 150.44 157.62 151.24 157.03 152.05 156.45 Z" />
</g>
<g id="#637790ff">
<path fill="#637790" opacity="1.00" d=" M 160.27 153.78 C 161.06 155.45 160.12 157.23 160.05 158.95 L 159.90 159.83 C 157.82 161.73 155.93 163.88 153.65 165.56 C 149.65 165.00 147.52 168.27 144.80 170.28 C 142.80 172.11 139.10 172.95 138.91 176.02 L 138.74 177.12 C 138.12 175.22 137.57 173.30 136.92 171.41 C 142.65 169.52 145.72 163.68 151.13 161.20 C 153.21 160.39 154.76 158.79 156.18 157.13 C 157.55 156.02 158.94 154.94 160.27 153.78 Z" />
</g>
<g id="#263047ff">
<path fill="#263047" opacity="1.00" d=" M 116.34 161.08 C 117.60 159.68 118.68 158.13 119.98 156.76 C 122.79 157.21 126.48 155.89 128.15 158.75 C 127.69 158.83 126.77 158.99 126.30 159.07 C 117.78 157.82 114.42 168.00 107.59 170.15 C 110.31 166.94 113.50 164.18 116.34 161.08 Z" />
</g>
<g id="#515e77fe">
<path fill="#515e77" opacity="1.00" d=" M 160.05 158.95 C 161.96 158.17 163.92 157.51 165.86 156.82 C 165.57 157.29 164.98 158.24 164.68 158.72 C 164.26 158.84 163.42 159.08 163.00 159.19 C 158.72 160.06 162.88 164.40 162.98 166.96 C 158.71 176.36 147.56 175.38 138.91 176.02 C 139.10 172.95 142.80 172.11 144.80 170.28 C 151.39 172.52 161.76 167.80 159.90 159.83 L 160.05 158.95 Z" />
</g>
<g id="#37445fff">
<path fill="#37445f" opacity="1.00" d=" M 107.59 170.15 C 114.42 168.00 117.78 157.82 126.30 159.07 C 125.91 160.64 124.70 161.82 123.12 162.16 C 115.41 164.39 112.67 175.93 103.81 174.90 C 105.08 173.32 106.20 171.63 107.59 170.15 Z" />
</g>
<g id="#616f87fd">
<path fill="#616f87" opacity="1.00" d=" M 162.98 166.96 C 162.88 164.40 158.72 160.06 163.00 159.19 C 163.85 162.90 164.62 166.63 165.68 170.29 C 166.42 171.95 166.23 172.83 165.12 172.94 C 165.06 172.43 164.95 171.41 164.90 170.90 C 163.15 173.07 163.56 176.63 162.22 179.23 C 161.29 178.71 160.35 178.24 159.39 177.81 C 156.27 176.98 153.52 181.00 152.81 183.85 C 149.86 183.91 146.93 183.87 143.99 184.04 C 142.72 184.07 141.50 184.41 140.26 184.64 C 139.77 184.42 138.77 183.99 138.27 183.77 C 137.17 183.31 136.04 182.96 134.87 182.72 C 135.23 182.58 135.95 182.29 136.30 182.15 C 138.58 181.74 138.97 179.04 138.74 177.12 L 138.91 176.02 C 147.56 175.38 158.71 176.36 162.98 166.96 Z" />
</g>
<g id="#6f849bf3">
<path fill="#6f849b" opacity="0.95" d=" M 163.00 159.19 C 163.42 159.08 164.26 158.84 164.68 158.72 C 165.69 162.47 166.42 166.42 165.68 170.29 C 164.62 166.63 163.85 162.90 163.00 159.19 Z" />
</g>
<g id="#1c1f27ff">
<path fill="#1c1f27" opacity="1.00" d=" M 153.65 165.56 C 155.93 163.88 157.82 161.73 159.90 159.83 C 161.76 167.80 151.39 172.52 144.80 170.28 C 147.52 168.27 149.65 165.00 153.65 165.56 Z" />
</g>
<g id="#c8c8c8ff">
<path fill="#c8c8c8" opacity="1.00" d=" M 62.69 161.72 C 64.95 161.76 70.32 158.98 65.97 165.00 C 66.28 168.68 63.06 170.14 60.82 172.06 C 58.57 171.94 55.08 171.91 54.76 169.01 C 55.07 168.71 55.69 168.11 56.00 167.81 C 57.68 168.55 59.26 169.54 61.00 170.15 C 63.25 168.99 64.74 165.83 63.26 163.50 C 63.12 163.05 62.84 162.16 62.69 161.72 Z" />
</g>
<g id="#4b5975ff">
<path fill="#4b5975" opacity="1.00" d=" M 125.56 163.43 C 127.10 162.92 128.65 159.79 130.16 161.72 C 128.59 164.80 125.31 165.44 122.32 166.41 C 116.40 172.53 110.21 183.69 99.81 180.01 C 100.07 179.48 100.61 178.41 100.87 177.87 C 112.51 180.37 116.32 166.53 125.56 163.43 Z" />
</g>
<g id="#3c2b2dff">
<path fill="#3c2b2d" opacity="1.00" d=" M 57.91 165.63 C 59.26 164.06 60.84 162.67 62.69 161.72 C 62.84 162.16 63.12 163.05 63.26 163.50 C 60.80 163.74 60.96 166.31 60.32 168.11 C 59.54 167.26 58.74 166.43 57.91 165.63 Z" />
</g>
<g id="#53617bfc">
<path fill="#53617b" opacity="1.00" d=" M 122.32 166.41 C 125.31 165.44 128.59 164.80 130.16 161.72 C 130.83 162.40 131.44 163.13 131.98 163.92 C 129.45 166.30 126.34 167.83 123.23 169.31 C 117.74 174.19 114.37 181.91 106.69 183.83 C 109.72 183.88 112.81 184.05 115.86 183.97 C 122.22 184.02 128.63 184.19 134.87 182.72 C 136.04 182.96 137.17 183.31 138.27 183.77 C 126.36 184.21 113.59 188.73 102.18 183.98 C 102.12 184.47 101.99 185.47 101.93 185.97 C 100.66 185.14 100.08 182.43 99.44 180.94 C 99.53 180.71 99.72 180.24 99.81 180.01 C 110.21 183.69 116.40 172.53 122.32 166.41 Z" />
</g>
<g id="#8e5753ff">
<path fill="#8e5753" opacity="1.00" d=" M 60.32 168.11 C 60.96 166.31 60.80 163.74 63.26 163.50 C 64.74 165.83 63.25 168.99 61.00 170.15 C 60.83 169.64 60.49 168.62 60.32 168.11 Z" />
</g>
<g id="#626f89ff">
<path fill="#626f89" opacity="1.00" d=" M 123.23 169.31 C 126.34 167.83 129.45 166.30 131.98 163.92 C 132.66 164.85 133.36 165.77 134.06 166.70 C 133.30 168.06 132.72 169.54 131.75 170.78 C 129.69 171.93 126.96 171.57 125.24 173.28 C 122.19 176.91 119.11 180.51 115.86 183.97 C 112.81 184.05 109.72 183.88 106.69 183.83 C 114.37 181.91 117.74 174.19 123.23 169.31 Z" />
</g>
<g id="#642d2dff">
<path fill="#642d2d" opacity="1.00" d=" M 56.00 167.81 C 56.62 167.07 57.25 166.34 57.91 165.63 C 58.74 166.43 59.54 167.26 60.32 168.11 C 60.49 168.62 60.83 169.64 61.00 170.15 C 59.26 169.54 57.68 168.55 56.00 167.81 Z" />
</g>
<g id="#707e95ff">
<path fill="#707e95" opacity="1.00" d=" M 131.75 170.78 C 132.72 169.54 133.30 168.06 134.06 166.70 C 134.37 167.07 134.97 167.82 135.28 168.20 L 135.30 168.95 C 134.71 173.41 136.79 177.72 136.30 182.15 C 135.95 182.29 135.23 182.58 134.87 182.72 C 128.63 184.19 122.22 184.02 115.86 183.97 C 119.11 180.51 122.19 176.91 125.24 173.28 C 126.96 171.57 129.69 171.93 131.75 170.78 Z" />
</g>
<g id="#384555ff">
<path fill="#384555" opacity="1.00" d=" M 50.71 172.89 C 52.00 171.54 53.34 170.23 54.76 169.01 C 55.08 171.91 58.57 171.94 60.82 172.06 L 60.94 172.91 C 59.55 173.07 58.16 173.18 56.76 173.25 C 55.11 173.22 53.10 172.48 51.90 174.04 C 51.61 173.75 51.01 173.18 50.71 172.89 Z" />
</g>
<g id="#758aa2ff">
<path fill="#758aa2" opacity="1.00" d=" M 135.30 168.95 C 135.52 169.27 135.94 169.91 136.16 170.23 C 136.35 170.52 136.73 171.11 136.92 171.41 C 137.57 173.30 138.12 175.22 138.74 177.12 C 138.97 179.04 138.58 181.74 136.30 182.15 C 136.79 177.72 134.71 173.41 135.30 168.95 Z" />
</g>
<g id="#616f84ff">
<path fill="#616f84" opacity="1.00" d=" M 29.07 173.11 C 31.54 173.02 33.65 171.13 36.17 171.55 C 34.69 172.63 33.18 173.67 31.77 174.85 C 27.66 174.90 22.59 175.96 19.80 172.21 C 20.29 172.27 21.27 172.39 21.76 172.45 C 23.46 172.81 25.20 173.06 26.95 173.12 C 27.48 173.12 28.54 173.11 29.07 173.11 Z" />
</g>
<g id="#687d94ef">
<path fill="#687d94" opacity="0.94" d=" M 162.22 179.23 C 163.56 176.63 163.15 173.07 164.90 170.90 C 164.95 171.41 165.06 172.43 165.12 172.94 C 165.16 175.70 166.03 179.16 162.91 180.30 C 162.74 180.04 162.39 179.50 162.22 179.23 Z" />
</g>
<g id="#4d596dff">
<path fill="#4d596d" opacity="1.00" d=" M 41.15 180.28 C 44.74 178.40 47.58 175.41 50.71 172.89 C 51.01 173.18 51.61 173.75 51.90 174.04 C 48.28 178.18 43.28 181.49 37.94 183.00 L 36.88 182.86 C 38.28 181.97 39.73 181.14 41.15 180.28 Z" />
</g>
<g id="#79879eff">
<path fill="#79879e" opacity="1.00" d=" M 51.90 174.04 C 53.10 172.48 55.11 173.22 56.76 173.25 C 58.13 173.60 59.51 173.89 60.88 174.18 C 55.63 180.40 49.79 186.19 42.02 189.12 C 43.14 191.45 47.00 189.68 49.20 190.63 C 46.65 191.64 44.17 193.33 41.28 192.80 C 37.96 191.71 34.43 191.61 31.03 190.82 C 31.26 189.51 31.66 188.24 32.05 186.97 C 32.82 188.04 33.65 189.09 35.08 189.18 C 36.53 187.49 36.20 184.70 37.94 183.00 C 43.28 181.49 48.28 178.18 51.90 174.04 Z" />
</g>
<g id="#d8dfe4f8">
<path fill="#d8dfe4" opacity="0.97" d=" M 14.49 175.71 C 15.20 177.39 15.84 179.12 16.00 180.96 C 16.11 182.98 16.46 184.97 16.96 186.92 C 15.28 187.81 13.57 188.66 11.95 189.66 C 13.05 190.04 14.14 190.43 15.23 190.83 C 13.45 190.89 11.67 190.95 9.89 191.00 C 10.16 188.20 12.55 186.33 13.58 183.83 C 12.71 181.07 13.96 178.40 14.49 175.71 Z" />
</g>
<g id="#545e6eff">
<path fill="#545e6e" opacity="1.00" d=" M 152.81 183.85 C 153.52 181.00 156.27 176.98 159.39 177.81 C 157.53 179.84 155.68 181.86 153.80 183.86 L 152.81 183.85 Z" />
</g>
<g id="#465671ff">
<path fill="#465671" opacity="1.00" d=" M 62.03 183.96 C 66.10 179.97 72.53 177.72 78.22 179.07 C 74.19 183.11 67.64 182.93 62.62 185.38 C 62.47 185.03 62.18 184.32 62.03 183.96 Z" />
</g>
<g id="#b9c3cefb">
<path fill="#b9c3ce" opacity="1.00" d=" M 159.39 177.81 C 160.35 178.24 161.29 178.71 162.22 179.23 C 162.39 179.50 162.74 180.04 162.91 180.30 C 162.93 183.13 164.46 188.60 157.99 185.02 C 157.56 184.94 156.71 184.79 156.28 184.71 C 155.66 184.50 154.42 184.07 153.80 183.86 C 155.68 181.86 157.53 179.84 159.39 177.81 Z" />
</g>
<g id="#4e637ff9">
<path fill="#4e637f" opacity="0.98" d=" M 78.22 179.07 C 79.46 179.01 80.16 179.61 80.31 180.89 C 79.29 182.41 76.98 183.24 75.21 183.46 C 70.97 182.76 67.34 186.10 63.22 186.76 C 63.07 186.42 62.77 185.73 62.62 185.38 C 67.64 182.93 74.19 183.11 78.22 179.07 Z" />
</g>
<g id="#3d434fff">
<path fill="#3d434f" opacity="1.00" d=" M 34.12 184.60 C 34.99 183.94 35.95 183.42 36.88 182.86 L 37.94 183.00 C 36.20 184.70 36.53 187.49 35.08 189.18 C 34.93 187.62 34.82 186.02 34.12 184.60 Z" />
</g>
<g id="#bac3cefe">
<path fill="#bac3ce" opacity="1.00" d=" M 16.96 186.92 C 19.80 189.42 18.51 185.26 19.71 183.68 C 19.77 185.98 19.36 188.63 19.80 191.01 C 18.28 190.96 16.76 190.91 15.23 190.83 C 14.14 190.43 13.05 190.04 11.95 189.66 C 13.57 188.66 15.28 187.81 16.96 186.92 Z" />
</g>
<g id="#6e7c94fe">
<path fill="#6e7c94" opacity="1.00" d=" M 102.18 183.98 C 113.59 188.73 126.36 184.21 138.27 183.77 C 138.46 187.48 136.88 190.79 134.73 193.70 C 134.33 193.52 133.54 193.15 133.14 192.97 C 132.12 191.86 131.02 190.83 129.92 189.81 C 128.75 187.94 127.34 190.50 126.11 191.07 C 124.23 192.21 122.08 193.72 123.55 196.15 L 123.78 197.00 C 120.88 197.04 118.00 197.14 115.12 196.95 C 112.80 194.08 111.02 189.50 106.70 189.50 C 105.39 189.01 104.59 189.84 104.02 190.95 C 102.20 190.59 102.01 187.60 101.93 185.97 C 101.99 185.47 102.12 184.47 102.18 183.98 Z" />
</g>
<g id="#8296abf6">
<path fill="#8296ab" opacity="0.96" d=" M 138.27 183.77 C 138.77 183.99 139.77 184.42 140.26 184.64 C 139.69 189.52 136.56 193.82 132.99 197.06 C 133.05 195.69 133.10 194.33 133.14 192.97 C 133.54 193.15 134.33 193.52 134.73 193.70 C 136.88 190.79 138.46 187.48 138.27 183.77 Z" />
</g>
<g id="#12131450">
<path fill="#121314" opacity="0.31" d=" M 143.99 184.04 C 146.93 183.87 149.86 183.91 152.81 183.85 L 153.80 183.86 C 154.42 184.07 155.66 184.50 156.28 184.71 C 153.29 183.59 145.20 187.36 143.99 184.04 Z" />
</g>
<g id="#292d34ff">
<path fill="#292d34" opacity="1.00" d=" M 32.05 186.97 C 32.44 185.97 33.13 185.18 34.12 184.60 C 34.82 186.02 34.93 187.62 35.08 189.18 C 33.65 189.09 32.82 188.04 32.05 186.97 Z" />
</g>
<g id="#53627afb">
<path fill="#53627a" opacity="1.00" d=" M 56.26 187.00 C 57.90 187.02 58.67 188.50 59.45 189.71 C 56.49 193.68 51.21 196.27 46.27 196.71 C 41.48 195.74 36.01 197.21 31.70 194.39 C 34.30 194.33 36.83 193.96 39.31 193.29 C 39.81 193.16 40.79 192.92 41.28 192.80 C 44.17 193.33 46.65 191.64 49.20 190.63 C 51.72 189.77 54.10 188.55 56.26 187.00 Z" />
</g>
<g id="#9ea5b4f8">
<path fill="#9ea5b4" opacity="0.97" d=" M 104.02 190.95 C 104.59 189.84 105.39 189.01 106.70 189.50 C 108.51 191.95 110.55 194.23 112.16 196.81 C 108.46 197.33 104.75 197.94 101.01 198.05 C 102.10 195.72 103.41 193.47 104.02 190.95 Z" />
</g>
<g id="#4f586afc">
<path fill="#4f586a" opacity="1.00" d=" M 106.70 189.50 C 111.02 189.50 112.80 194.08 115.12 196.95 C 114.38 196.92 112.90 196.85 112.16 196.81 C 110.55 194.23 108.51 191.95 106.70 189.50 Z" />
</g>
<g id="#606c7eff">
<path fill="#606c7e" opacity="1.00" d=" M 126.11 191.07 C 127.34 190.50 128.75 187.94 129.92 189.81 C 127.72 191.84 125.54 193.91 123.55 196.15 C 122.08 193.72 124.23 192.21 126.11 191.07 Z" />
</g>
<g id="#cbd3dafa">
<path fill="#cbd3da" opacity="0.98" d=" M 123.55 196.15 C 125.54 193.91 127.72 191.84 129.92 189.81 C 131.02 190.83 132.12 191.86 133.14 192.97 C 133.10 194.33 133.05 195.69 132.99 197.06 C 132.28 200.74 124.73 198.10 123.78 197.00 L 123.55 196.15 Z" />
</g>
<g id="#2424246d">
<path fill="#242424" opacity="0.43" d=" M 9.89 191.00 C 11.67 190.95 13.45 190.89 15.23 190.83 C 16.76 190.91 18.28 190.96 19.80 191.01 L 20.82 191.07 L 21.06 192.01 C 18.30 192.00 12.79 191.99 10.03 191.98 L 9.89 191.00 Z" />
</g>
<g id="#6e8197fb">
<path fill="#6e8197" opacity="1.00" d=" M 29.08 193.00 C 32.50 192.91 35.90 193.16 39.31 193.29 C 36.83 193.96 34.30 194.33 31.70 194.39 C 36.01 197.21 41.48 195.74 46.27 196.71 C 45.71 196.77 44.59 196.89 44.03 196.94 C 41.01 196.97 38.00 197.00 34.98 197.02 C 33.24 197.00 30.78 196.72 29.88 195.10 C 29.68 194.58 29.28 193.53 29.08 193.00 Z" />
</g>
<g id="#485463bd">
<path fill="#485463" opacity="0.74" d=" M 34.98 197.02 C 38.00 197.00 41.01 196.97 44.03 196.94 C 43.95 200.28 37.47 197.24 35.03 197.96 L 34.98 197.02 Z" />
</g>
</svg>
