<?xml version="1.0" encoding="UTF-8" ?>
<!DOCTYPE svg PUBLIC "-//W3C//DTD SVG 1.1//EN" "http://www.w3.org/Graphics/SVG/1.1/DTD/svg11.dtd">
<svg width="222pt" height="208pt" viewBox="0 0 222 208" version="1.1" xmlns="http://www.w3.org/2000/svg">
<g id="#78879ae5">
<path fill="#78879a" opacity="0.90" d=" M 134.27 6.69 C 133.81 4.57 139.87 3.20 140.13 5.92 C 142.09 8.98 139.53 12.26 138.50 15.18 C 136.42 12.71 139.05 10.53 139.06 7.94 C 137.95 7.92 136.92 8.19 135.99 8.75 L 135.27 9.12 C 135.02 8.51 134.52 7.30 134.27 6.69 Z" />
</g>
<g id="#92a3b8fa">
<path fill="#92a3b8" opacity="0.98" d=" M 67.00 10.02 C 63.98 7.42 69.84 5.57 70.75 8.27 C 73.79 11.12 77.91 13.27 79.98 16.96 C 81.81 19.64 80.56 25.65 84.95 25.04 L 85.01 25.89 C 83.43 26.19 80.86 25.39 80.77 27.73 C 79.11 28.72 76.01 28.43 75.98 30.94 C 74.21 31.26 75.29 28.32 74.64 27.28 C 74.41 20.65 69.15 16.00 67.00 10.02 Z" />
</g>
<g id="#90a0b8ff">
<path fill="#90a0b8" opacity="1.00" d=" M 122.14 18.99 C 125.51 14.57 129.80 10.22 134.27 6.69 C 134.52 7.30 135.02 8.51 135.27 9.12 C 130.25 14.21 124.49 19.26 122.43 26.35 C 121.60 29.93 117.35 34.22 121.23 37.28 C 121.44 37.54 121.86 38.06 122.07 38.32 C 127.19 41.10 127.77 47.45 126.71 52.72 C 126.08 55.02 124.23 56.43 121.84 56.33 C 120.31 54.92 119.07 53.07 117.19 52.14 C 116.06 53.28 114.92 54.45 114.12 55.86 C 112.68 58.31 111.41 60.89 110.82 63.69 C 110.25 64.55 109.66 65.41 109.06 66.25 C 108.69 63.04 109.30 59.94 109.83 56.82 C 107.15 58.92 107.43 62.83 106.99 65.91 C 105.00 59.58 105.26 52.36 101.43 46.62 C 99.30 44.02 100.61 40.50 101.29 37.55 C 100.90 33.58 105.15 29.98 102.92 26.12 C 106.15 29.20 110.63 29.04 114.82 29.50 C 117.78 28.98 119.03 26.09 119.88 23.55 C 121.15 22.30 122.05 20.82 122.14 18.99 Z" />
</g>
<g id="#606e86fd">
<path fill="#606e86" opacity="1.00" d=" M 135.99 8.75 C 136.92 8.19 137.95 7.92 139.06 7.94 C 139.05 10.53 136.42 12.71 138.50 15.18 C 137.59 20.82 134.78 26.15 134.85 32.00 L 133.88 32.06 C 130.57 31.15 124.98 33.86 122.97 29.84 C 124.74 22.08 130.19 16.23 135.49 10.59 C 135.61 10.13 135.86 9.21 135.99 8.75 Z" />
</g>
<g id="#4f5d72ff">
<path fill="#4f5d72" opacity="1.00" d=" M 135.27 9.12 L 135.99 8.75 C 135.86 9.21 135.61 10.13 135.49 10.59 C 130.19 16.23 124.74 22.08 122.97 29.84 C 122.25 32.29 121.87 34.81 121.23 37.28 C 117.35 34.22 121.60 29.93 122.43 26.35 C 124.49 19.26 130.25 14.21 135.27 9.12 Z" />
</g>
<g id="#abbbccf4">
<path fill="#abbbcc" opacity="0.96" d=" M 79.98 16.96 C 83.24 18.92 85.13 23.00 89.04 23.92 C 98.24 22.10 107.82 21.93 116.97 24.13 C 109.87 26.47 100.87 21.71 93.47 24.99 C 90.62 25.00 87.79 25.02 84.95 25.04 C 80.56 25.65 81.81 19.64 79.98 16.96 Z" />
</g>
<g id="#99a9befe">
<path fill="#99a9be" opacity="1.00" d=" M 116.97 24.13 C 118.31 22.12 119.88 19.98 122.14 18.99 C 122.05 20.82 121.15 22.30 119.88 23.55 C 119.03 26.09 117.78 28.98 114.82 29.50 C 110.63 29.04 106.15 29.20 102.92 26.12 C 99.95 23.90 96.36 27.12 93.47 24.99 C 100.87 21.71 109.87 26.47 116.97 24.13 Z" />
</g>
<g id="#8595aeff">
<path fill="#8595ae" opacity="1.00" d=" M 84.95 25.04 C 87.79 25.02 90.62 25.00 93.47 24.99 C 96.36 27.12 99.95 23.90 102.92 26.12 C 105.15 29.98 100.90 33.58 101.29 37.55 C 100.61 40.50 99.30 44.02 101.43 46.62 C 105.26 52.36 105.00 59.58 106.99 65.91 C 107.78 67.18 108.56 68.45 109.38 69.70 C 111.32 69.82 113.05 68.43 114.91 67.93 C 111.82 75.27 103.72 79.30 96.17 80.63 C 93.39 79.95 97.14 78.52 97.64 77.61 C 103.64 73.57 103.51 65.08 102.63 58.56 C 103.49 46.71 84.15 42.88 79.75 53.02 C 79.22 52.78 78.17 52.32 77.65 52.09 C 83.08 48.24 84.59 41.47 89.10 36.93 C 89.41 37.34 90.05 38.18 90.37 38.60 C 95.07 38.02 98.66 34.81 101.30 31.10 C 102.42 29.99 102.36 27.83 100.71 27.27 C 95.45 27.01 90.24 26.47 85.01 25.89 L 84.95 25.04 Z" />
</g>
<g id="#758399ff">
<path fill="#758399" opacity="1.00" d=" M 80.77 27.73 C 80.86 25.39 83.43 26.19 85.01 25.89 C 90.24 26.47 95.45 27.01 100.71 27.27 C 102.36 27.83 102.42 29.99 101.30 31.10 C 101.17 30.62 100.90 29.65 100.77 29.16 C 95.15 29.48 89.02 27.69 83.63 29.83 C 82.68 29.13 81.73 28.42 80.77 27.73 Z" />
</g>
<g id="#b1c2d3fc">
<path fill="#b1c2d3" opacity="1.00" d=" M 75.98 30.94 C 76.01 28.43 79.11 28.72 80.77 27.73 C 81.73 28.42 82.68 29.13 83.63 29.83 C 84.05 30.34 84.89 31.35 85.30 31.86 C 80.79 37.91 76.07 44.32 74.86 51.96 C 73.24 51.98 71.63 51.99 70.01 52.02 C 70.34 50.36 70.23 46.52 71.84 46.34 C 72.09 46.42 72.58 46.57 72.83 46.65 C 74.18 41.87 78.18 37.96 78.11 32.85 C 77.00 33.37 76.50 37.63 75.26 35.30 C 75.80 33.91 75.85 32.41 75.98 30.94 Z" />
</g>
<g id="#637087ff">
<path fill="#637087" opacity="1.00" d=" M 83.63 29.83 C 89.02 27.69 95.15 29.48 100.77 29.16 C 100.90 29.65 101.17 30.62 101.30 31.10 C 98.66 34.81 95.07 38.02 90.37 38.60 C 90.05 38.18 89.41 37.34 89.10 36.93 C 88.86 36.61 88.40 35.99 88.17 35.68 C 87.24 34.38 86.35 33.06 85.30 31.86 C 84.89 31.35 84.05 30.34 83.63 29.83 Z" />
</g>
<g id="#6e7d94fd">
<path fill="#6e7d94" opacity="1.00" d=" M 122.97 29.84 C 124.98 33.86 130.57 31.15 133.88 32.06 C 134.13 32.56 134.64 33.55 134.90 34.05 C 131.69 34.07 128.47 33.69 125.29 34.23 C 124.17 35.56 123.19 37.00 122.07 38.32 C 121.86 38.06 121.44 37.54 121.23 37.28 C 121.87 34.81 122.25 32.29 122.97 29.84 Z" />
</g>
<g id="#78869cfd">
<path fill="#78869c" opacity="1.00" d=" M 150.72 31.74 C 152.56 27.59 157.46 32.23 155.25 35.03 C 156.22 39.22 161.31 39.24 164.97 39.09 C 166.41 43.39 162.02 44.43 159.04 46.13 C 157.29 48.69 162.21 51.19 159.90 52.60 C 155.32 52.04 147.94 58.71 145.84 52.06 C 144.42 47.09 147.24 43.37 150.02 39.85 C 145.22 40.87 142.96 46.77 144.20 51.23 C 141.37 51.47 137.81 50.18 136.37 53.32 C 135.66 56.81 134.95 60.33 133.64 63.65 C 128.31 66.78 122.38 69.23 118.10 73.85 C 115.67 76.26 112.26 77.20 109.08 78.20 C 111.91 75.24 116.19 74.01 118.57 70.60 C 122.64 64.71 131.52 62.69 133.02 55.01 C 133.47 51.90 135.52 49.60 137.28 47.19 C 137.97 45.17 142.85 41.44 141.03 40.04 C 143.40 36.72 148.42 35.49 150.72 31.74 Z" />
</g>
<g id="#d9ebf2fb">
<path fill="#d9ebf2" opacity="1.00" d=" M 71.00 30.98 C 74.11 30.01 74.67 32.98 75.26 35.30 C 76.50 37.63 77.00 33.37 78.11 32.85 C 78.18 37.96 74.18 41.87 72.83 46.65 C 72.58 46.57 72.09 46.42 71.84 46.34 C 72.23 41.18 70.41 36.15 71.00 30.98 Z" />
</g>
<g id="#9eafc4ff">
<path fill="#9eafc4" opacity="1.00" d=" M 85.30 31.86 C 86.35 33.06 87.24 34.38 88.17 35.68 C 87.42 35.81 85.92 36.07 85.17 36.21 C 82.23 41.55 79.50 47.04 75.87 51.98 L 74.86 51.96 C 76.07 44.32 80.79 37.91 85.30 31.86 Z" />
</g>
<g id="#8594aafe">
<path fill="#8594aa" opacity="1.00" d=" M 125.29 34.23 C 128.47 33.69 131.69 34.07 134.90 34.05 C 136.84 36.13 137.70 39.84 141.03 40.04 C 142.85 41.44 137.97 45.17 137.28 47.19 C 135.66 47.45 132.82 45.98 132.49 48.41 C 131.85 53.38 129.42 58.48 125.04 61.13 C 124.33 60.49 123.70 59.77 123.16 58.97 C 122.71 58.10 122.27 57.21 121.84 56.33 C 124.23 56.43 126.08 55.02 126.71 52.72 C 127.77 47.45 127.19 41.10 122.07 38.32 C 123.19 37.00 124.17 35.56 125.29 34.23 Z" />
</g>
<g id="#90a1baff">
<path fill="#90a1ba" opacity="1.00" d=" M 85.17 36.21 C 85.92 36.07 87.42 35.81 88.17 35.68 C 88.40 35.99 88.86 36.61 89.10 36.93 C 84.59 41.47 83.08 48.24 77.65 52.09 C 77.20 52.06 76.31 52.01 75.87 51.98 C 79.50 47.04 82.23 41.55 85.17 36.21 Z" />
</g>
<g id="#566379ff">
<path fill="#566379" opacity="1.00" d=" M 144.20 51.23 C 142.96 46.77 145.22 40.87 150.02 39.85 C 147.24 43.37 144.42 47.09 145.84 52.06 C 145.43 51.85 144.61 51.43 144.20 51.23 Z" />
</g>
<g id="#7f8ca5ff">
<path fill="#7f8ca5" opacity="1.00" d=" M 79.75 53.02 C 84.15 42.88 103.49 46.71 102.63 58.56 C 103.51 65.08 103.64 73.57 97.64 77.61 C 97.14 78.52 93.39 79.95 96.17 80.63 C 103.72 79.30 111.82 75.27 114.91 67.93 L 115.14 67.22 C 115.60 66.92 116.52 66.32 116.98 66.02 C 119.82 64.60 123.47 62.69 123.16 58.97 C 123.70 59.77 124.33 60.49 125.04 61.13 C 129.42 58.48 131.85 53.38 132.49 48.41 C 132.82 45.98 135.66 47.45 137.28 47.19 C 135.52 49.60 133.47 51.90 133.02 55.01 C 131.52 62.69 122.64 64.71 118.57 70.60 C 116.19 74.01 111.91 75.24 109.08 78.20 C 99.63 82.77 88.38 84.86 77.90 83.03 C 78.99 83.97 80.12 84.84 81.23 85.76 C 79.86 85.86 78.50 85.97 77.14 86.09 C 76.30 84.48 75.51 82.85 74.79 81.19 C 76.87 81.61 78.99 81.97 81.12 81.68 C 82.86 82.11 83.05 80.62 83.28 79.25 C 84.91 79.69 86.64 80.01 88.01 81.06 C 90.21 83.34 91.71 79.21 92.97 77.83 C 97.43 74.64 101.92 70.05 100.99 64.00 C 100.82 59.08 99.97 52.31 94.66 50.28 C 89.79 49.44 84.71 49.83 80.66 52.79 L 79.75 53.02 Z" />
</g>
<g id="#73839eff">
<path fill="#73839e" opacity="1.00" d=" M 80.66 52.79 C 84.71 49.83 89.79 49.44 94.66 50.28 C 99.97 52.31 100.82 59.08 100.99 64.00 C 101.92 70.05 97.43 74.64 92.97 77.83 C 91.07 78.49 89.20 79.37 88.01 81.06 C 86.64 80.01 84.91 79.69 83.28 79.25 C 83.05 80.62 82.86 82.11 81.12 81.68 C 77.46 78.26 73.07 73.16 74.56 67.79 C 75.28 68.80 76.02 69.81 76.68 70.87 C 75.23 74.05 79.82 75.63 81.84 77.25 C 90.87 81.19 99.91 71.86 99.90 63.10 C 98.97 59.96 97.64 56.92 95.86 54.17 C 92.44 51.30 86.18 50.54 82.88 53.68 C 82.33 53.45 81.21 53.01 80.66 52.79 Z" />
</g>
<g id="#69768efe">
<path fill="#69768e" opacity="1.00" d=" M 136.37 53.32 C 137.81 50.18 141.37 51.47 144.20 51.23 C 144.61 51.43 145.43 51.85 145.84 52.06 C 147.94 58.71 155.32 52.04 159.90 52.60 C 160.23 57.79 151.39 54.86 154.88 61.96 C 153.37 62.01 151.81 62.21 150.34 61.76 C 147.58 59.58 144.44 57.17 141.22 56.12 C 137.96 59.82 141.72 66.16 139.30 70.30 C 137.19 73.71 132.77 71.08 129.94 69.94 C 124.71 66.69 126.30 74.77 125.84 78.13 C 123.66 77.54 122.30 75.53 120.22 74.73 C 119.69 74.51 118.63 74.07 118.10 73.85 C 122.38 69.23 128.31 66.78 133.64 63.65 C 134.95 60.33 135.66 56.81 136.37 53.32 Z" />
</g>
<g id="#c9c1b4fc">
<path fill="#c9c1b4" opacity="1.00" d=" M 68.18 55.15 C 68.81 54.20 68.37 51.76 70.01 52.02 C 71.63 51.99 73.24 51.98 74.86 51.96 L 75.87 51.98 C 76.31 52.01 77.20 52.06 77.65 52.09 C 78.17 52.32 79.22 52.78 79.75 53.02 C 80.28 53.91 80.76 54.83 81.19 55.78 C 80.13 55.56 79.06 55.33 78.00 55.09 L 77.35 54.72 C 77.07 54.54 76.50 54.17 76.21 53.98 C 74.33 53.60 70.14 51.81 69.91 54.64 C 69.48 54.77 68.61 55.03 68.18 55.15 Z" />
</g>
<g id="#6a7994ff">
<path fill="#6a7994" opacity="1.00" d=" M 82.88 53.68 C 86.18 50.54 92.44 51.30 95.86 54.17 C 97.64 56.92 98.97 59.96 99.90 63.10 C 99.91 71.86 90.87 81.19 81.84 77.25 C 86.91 77.04 92.12 75.58 95.76 71.80 C 99.04 65.95 98.86 57.15 91.93 54.11 C 89.90 54.05 85.75 51.37 85.77 54.92 C 84.81 54.49 83.85 54.07 82.88 53.68 Z" />
</g>
<g id="#4b5768ff">
<path fill="#4b5768" opacity="1.00" d=" M 117.19 52.14 C 119.07 53.07 120.31 54.92 121.84 56.33 C 122.27 57.21 122.71 58.10 123.16 58.97 C 123.47 62.69 119.82 64.60 116.98 66.02 C 117.04 65.55 117.17 64.60 117.23 64.13 C 118.82 62.85 121.43 62.10 121.99 60.01 C 121.19 57.51 119.39 55.46 117.23 54.02 C 116.51 55.01 115.85 56.05 115.18 57.08 C 114.91 56.78 114.38 56.16 114.12 55.86 C 114.92 54.45 116.06 53.28 117.19 52.14 Z" />
</g>
<g id="#a6a096ff">
<path fill="#a6a096" opacity="1.00" d=" M 69.91 54.64 C 70.14 51.81 74.33 53.60 76.21 53.98 C 76.39 56.53 75.49 58.71 73.20 59.93 C 72.94 59.41 72.42 58.37 72.16 57.86 C 71.48 56.74 70.70 55.68 69.91 54.64 Z" />
</g>
<g id="#b3ab9fff">
<path fill="#b3ab9f" opacity="1.00" d=" M 79.75 53.02 L 80.66 52.79 C 81.21 53.01 82.33 53.45 82.88 53.68 C 83.85 54.07 84.81 54.49 85.77 54.92 C 86.59 55.87 87.43 56.81 88.30 57.72 C 86.92 58.78 85.44 59.21 84.10 57.86 L 83.76 56.92 C 82.76 54.06 81.82 55.42 81.75 57.91 C 79.30 58.46 77.23 58.07 78.00 55.09 C 79.06 55.33 80.13 55.56 81.19 55.78 C 80.76 54.83 80.28 53.91 79.75 53.02 Z" />
</g>
<g id="#606d86ff">
<path fill="#606d86" opacity="1.00" d=" M 85.77 54.92 C 85.75 51.37 89.90 54.05 91.93 54.11 C 98.86 57.15 99.04 65.95 95.76 71.80 C 92.12 75.58 86.91 77.04 81.84 77.25 C 79.82 75.63 75.23 74.05 76.68 70.87 C 77.88 72.17 78.89 73.87 80.71 74.36 C 85.75 75.20 93.72 74.04 95.08 68.00 C 97.28 62.01 92.19 54.81 85.77 54.92 Z" />
</g>
<g id="#706a62ff">
<path fill="#706a62" opacity="1.00" d=" M 76.21 53.98 C 76.50 54.17 77.07 54.54 77.35 54.72 C 77.16 56.96 76.71 59.20 75.00 60.79 C 74.47 60.87 73.41 61.04 72.89 61.13 L 72.23 61.21 C 72.47 60.89 72.95 60.25 73.20 59.93 C 75.49 58.71 76.39 56.53 76.21 53.98 Z" />
</g>
<g id="#dddcddff">
<path fill="#dddcdd" opacity="1.00" d=" M 117.23 54.02 C 119.39 55.46 121.19 57.51 121.99 60.01 C 121.43 62.10 118.82 62.85 117.23 64.13 C 116.78 61.72 116.01 59.38 115.18 57.08 C 115.85 56.05 116.51 55.01 117.23 54.02 Z" />
</g>
<g id="#c1d3ddf7">
<path fill="#c1d3dd" opacity="0.97" d=" M 68.18 55.15 C 68.61 55.03 69.48 54.77 69.91 54.64 C 70.70 55.68 71.48 56.74 72.16 57.86 C 68.57 60.23 69.75 65.08 68.45 68.60 C 67.40 70.82 66.91 73.34 65.26 75.23 C 65.33 68.55 65.69 61.13 68.18 55.15 Z" />
</g>
<g id="#9d978fff">
<path fill="#9d978f" opacity="1.00" d=" M 77.35 54.72 L 78.00 55.09 C 77.23 58.07 79.30 58.46 81.75 57.91 C 81.82 55.42 82.76 54.06 83.76 56.92 C 83.96 60.85 81.38 64.05 78.11 65.75 C 77.48 63.87 76.74 61.93 75.00 60.79 C 76.71 59.20 77.16 56.96 77.35 54.72 Z" />
</g>
<g id="#838180ff">
<path fill="#838180" opacity="1.00" d=" M 85.77 54.92 C 92.19 54.81 97.28 62.01 95.08 68.00 C 93.33 68.32 91.32 69.53 89.73 68.13 C 90.79 64.88 92.47 60.31 88.90 58.18 L 88.30 57.72 C 87.43 56.81 86.59 55.87 85.77 54.92 Z" />
</g>
<g id="#553639ff">
<path fill="#553639" opacity="1.00" d=" M 114.12 55.86 C 114.38 56.16 114.91 56.78 115.18 57.08 C 116.01 59.38 116.78 61.72 117.23 64.13 C 117.17 64.60 117.04 65.55 116.98 66.02 C 116.52 66.32 115.60 66.92 115.14 67.22 C 113.67 66.07 112.26 64.86 110.82 63.69 C 111.41 60.89 112.68 58.31 114.12 55.86 Z" />
</g>
<g id="#58667ffd">
<path fill="#58667f" opacity="1.00" d=" M 141.22 56.12 C 144.44 57.17 147.58 59.58 150.34 61.76 C 149.45 63.81 146.14 63.26 145.60 65.65 C 143.63 69.98 146.25 74.14 147.98 77.96 C 147.49 78.20 146.53 78.69 146.05 78.93 C 146.00 78.19 145.92 76.70 145.87 75.96 C 142.84 75.35 142.31 79.13 140.02 80.11 C 135.93 77.51 132.95 73.65 129.94 69.94 C 132.77 71.08 137.19 73.71 139.30 70.30 C 141.72 66.16 137.96 59.82 141.22 56.12 Z" />
</g>
<g id="#67615aff">
<path fill="#67615a" opacity="1.00" d=" M 78.11 65.75 C 81.38 64.05 83.96 60.85 83.76 56.92 L 84.10 57.86 C 84.06 60.04 84.09 62.32 82.81 64.20 C 81.93 65.06 81.03 65.91 80.13 66.74 C 78.69 66.85 77.24 66.93 75.79 66.97 C 76.37 66.66 77.53 66.06 78.11 65.75 Z" />
</g>
<g id="#697283ff">
<path fill="#697283" opacity="1.00" d=" M 106.99 65.91 C 107.43 62.83 107.15 58.92 109.83 56.82 C 109.30 59.94 108.69 63.04 109.06 66.25 C 109.66 65.41 110.25 64.55 110.82 63.69 C 112.26 64.86 113.67 66.07 115.14 67.22 L 114.91 67.93 C 113.05 68.43 111.32 69.82 109.38 69.70 C 108.56 68.45 107.78 67.18 106.99 65.91 Z" />
</g>
<g id="#9fafc2ff">
<path fill="#9fafc2" opacity="1.00" d=" M 72.16 57.86 C 72.42 58.37 72.94 59.41 73.20 59.93 C 72.95 60.25 72.47 60.89 72.23 61.21 L 71.85 61.77 C 69.82 63.48 68.42 72.37 71.30 68.83 C 72.38 71.77 74.37 75.75 71.92 78.46 L 70.98 78.02 C 70.06 76.37 69.45 74.57 68.50 72.93 C 67.93 74.89 67.09 76.76 65.82 78.37 C 65.56 77.76 65.03 76.55 64.76 75.94 L 65.26 75.23 C 66.91 73.34 67.40 70.82 68.45 68.60 C 69.75 65.08 68.57 60.23 72.16 57.86 Z" />
</g>
<g id="#97938cff">
<path fill="#97938c" opacity="1.00" d=" M 84.10 57.86 C 85.44 59.21 86.92 58.78 88.30 57.72 L 88.90 58.18 C 89.39 60.47 90.42 62.91 89.18 65.16 C 87.58 64.92 84.40 64.44 82.81 64.20 C 84.09 62.32 84.06 60.04 84.10 57.86 Z" />
</g>
<g id="#575450ff">
<path fill="#575450" opacity="1.00" d=" M 88.90 58.18 C 92.47 60.31 90.79 64.88 89.73 68.13 C 88.24 71.14 85.18 72.39 82.16 73.34 C 81.58 73.22 80.43 72.99 79.85 72.87 C 83.45 71.02 88.00 69.50 89.18 65.16 C 90.42 62.91 89.39 60.47 88.90 58.18 Z" />
</g>
<g id="#98a8bdfc">
<path fill="#98a8bd" opacity="1.00" d=" M 175.91 67.13 C 184.33 62.90 193.53 59.78 202.97 59.02 C 204.95 58.93 205.10 61.37 205.12 62.83 C 204.64 62.74 203.67 62.55 203.19 62.46 C 195.72 66.16 188.80 70.84 181.79 75.32 C 180.81 74.13 179.95 72.84 179.12 71.54 C 178.28 69.92 177.08 68.52 175.91 67.13 Z" />
</g>
<g id="#dbdbbfff">
<path fill="#dbdbbf" opacity="1.00" d=" M 72.23 61.21 L 72.89 61.13 C 73.57 62.30 77.34 64.68 74.27 65.07 C 73.52 64.23 72.76 63.42 71.98 62.62 L 71.85 61.77 L 72.23 61.21 Z" />
</g>
<g id="#abaea3ff">
<path fill="#abaea3" opacity="1.00" d=" M 72.89 61.13 C 73.41 61.04 74.47 60.87 75.00 60.79 C 76.74 61.93 77.48 63.87 78.11 65.75 C 77.53 66.06 76.37 66.66 75.79 66.97 C 77.24 66.93 78.69 66.85 80.13 66.74 C 81.00 67.98 81.07 69.50 81.06 70.96 C 79.60 70.99 78.14 70.96 76.68 70.87 C 76.02 69.81 75.28 68.80 74.56 67.79 C 74.45 66.88 74.36 65.98 74.27 65.07 C 77.34 64.68 73.57 62.30 72.89 61.13 Z" />
</g>
<g id="#7c8a9eff">
<path fill="#7c8a9e" opacity="1.00" d=" M 71.30 68.83 C 68.42 72.37 69.82 63.48 71.85 61.77 L 71.98 62.62 C 71.54 64.66 71.05 66.72 71.30 68.83 Z" />
</g>
<g id="#7a899ef9">
<path fill="#7a899e" opacity="0.98" d=" M 203.19 62.46 C 203.67 62.55 204.64 62.74 205.12 62.83 C 199.44 69.09 191.22 73.45 184.78 79.28 C 183.73 78.00 182.77 76.65 181.79 75.32 C 188.80 70.84 195.72 66.16 203.19 62.46 Z" />
</g>
<g id="#8f9fb7ff">
<path fill="#8f9fb7" opacity="1.00" d=" M 71.98 62.62 C 72.76 63.42 73.52 64.23 74.27 65.07 C 74.36 65.98 74.45 66.88 74.56 67.79 C 73.07 73.16 77.46 78.26 81.12 81.68 C 78.99 81.97 76.87 81.61 74.79 81.19 C 73.83 80.29 72.88 79.37 71.92 78.46 C 74.37 75.75 72.38 71.77 71.30 68.83 C 71.05 66.72 71.54 64.66 71.98 62.62 Z" />
</g>
<g id="#878886ff">
<path fill="#878886" opacity="1.00" d=" M 80.13 66.74 C 81.03 65.91 81.93 65.06 82.81 64.20 C 84.40 64.44 87.58 64.92 89.18 65.16 C 88.00 69.50 83.45 71.02 79.85 72.87 C 80.43 72.99 81.58 73.22 82.16 73.34 C 81.80 73.60 81.07 74.11 80.71 74.36 C 78.89 73.87 77.88 72.17 76.68 70.87 C 78.14 70.96 79.60 70.99 81.06 70.96 C 81.07 69.50 81.00 67.98 80.13 66.74 Z" />
</g>
<g id="#65748afb">
<path fill="#65748a" opacity="1.00" d=" M 173.90 66.92 C 174.41 66.98 175.41 67.08 175.91 67.13 C 177.08 68.52 178.28 69.92 179.12 71.54 C 178.79 72.16 178.12 73.39 177.79 74.01 C 176.37 72.05 175.36 69.84 174.19 67.73 L 173.90 66.92 Z" />
</g>
<g id="#6e7278ff">
<path fill="#6e7278" opacity="1.00" d=" M 82.16 73.34 C 85.18 72.39 88.24 71.14 89.73 68.13 C 91.32 69.53 93.33 68.32 95.08 68.00 C 93.72 74.04 85.75 75.20 80.71 74.36 C 81.07 74.11 81.80 73.60 82.16 73.34 Z" />
</g>
<g id="#a3b3caf9">
<path fill="#a3b3ca" opacity="0.98" d=" M 156.08 78.72 C 160.84 73.81 168.13 71.04 174.19 67.73 C 174.29 69.11 174.48 70.48 174.56 71.86 C 170.91 75.85 165.75 78.26 160.83 80.37 C 159.27 79.74 157.69 79.19 156.08 78.72 Z" />
</g>
<g id="#92a1b8ff">
<path fill="#92a1b8" opacity="1.00" d=" M 174.19 67.73 C 175.36 69.84 176.37 72.05 177.79 74.01 C 178.16 74.48 178.90 75.43 179.27 75.90 C 179.31 78.27 178.24 80.00 176.04 81.10 C 173.80 82.19 172.10 85.84 169.09 84.96 C 166.13 83.85 163.49 82.02 160.83 80.37 C 165.75 78.26 170.91 75.85 174.56 71.86 C 174.48 70.48 174.29 69.11 174.19 67.73 Z" />
</g>
<g id="#44526cff">
<path fill="#44526c" opacity="1.00" d=" M 125.84 78.13 C 126.30 74.77 124.71 66.69 129.94 69.94 C 132.95 73.65 135.93 77.51 140.02 80.11 C 142.31 79.13 142.84 75.35 145.87 75.96 C 145.92 76.70 146.00 78.19 146.05 78.93 C 145.48 79.29 144.34 80.02 143.78 80.39 C 140.29 82.22 138.02 85.44 136.90 89.12 C 133.52 88.36 130.28 87.02 126.81 86.69 C 128.20 85.11 131.41 84.59 131.02 82.00 C 130.99 80.58 130.28 79.32 129.80 78.03 C 122.96 80.07 117.48 85.17 110.90 87.91 C 106.02 89.47 101.00 90.72 95.86 90.99 C 96.25 87.89 100.82 88.81 102.17 86.08 C 108.39 82.63 114.53 79.01 120.22 74.73 C 122.30 75.53 123.66 77.54 125.84 78.13 Z" />
</g>
<g id="#526073fa">
<path fill="#526073" opacity="0.98" d=" M 177.79 74.01 C 178.12 73.39 178.79 72.16 179.12 71.54 C 179.95 72.84 180.81 74.13 181.79 75.32 C 182.77 76.65 183.73 78.00 184.78 79.28 C 184.81 80.14 184.28 80.71 183.18 81.01 C 182.60 80.25 182.02 79.49 181.43 78.74 C 180.76 77.75 180.04 76.81 179.27 75.90 C 178.90 75.43 178.16 74.48 177.79 74.01 Z" />
</g>
<g id="#65728afe">
<path fill="#65728a" opacity="1.00" d=" M 68.50 72.93 C 69.45 74.57 70.06 76.37 70.98 78.02 C 71.02 83.50 74.17 89.03 71.45 94.37 C 70.50 100.20 64.90 102.69 60.32 105.34 C 57.16 106.74 56.16 111.50 52.17 111.06 C 48.97 108.97 45.65 112.45 42.25 111.72 C 35.64 111.41 29.35 109.32 22.96 107.84 C 26.23 103.97 28.44 99.36 30.91 94.97 C 32.51 92.82 30.97 90.33 30.78 88.03 C 29.04 87.69 27.78 88.45 27.36 90.17 C 27.05 88.96 26.67 87.78 26.22 86.62 L 25.85 85.65 C 30.12 82.96 33.21 86.66 33.60 90.38 C 35.67 95.38 30.45 99.04 31.01 103.84 C 34.89 105.74 39.36 106.69 43.68 106.72 C 48.07 105.23 49.40 100.30 52.20 97.09 C 54.21 96.95 55.36 99.24 57.04 100.08 C 60.52 97.59 63.98 94.93 66.80 91.67 C 68.32 87.13 64.91 82.80 65.82 78.37 C 67.09 76.76 67.93 74.89 68.50 72.93 M 52.24 102.21 C 50.20 104.25 47.64 106.00 46.84 108.93 C 49.59 108.98 52.28 108.42 54.94 107.85 C 55.42 104.70 56.22 100.53 52.24 102.21 Z" />
</g>
<g id="#a3788cff">
<path fill="#a3788c" opacity="1.00" d=" M 118.10 73.85 C 118.63 74.07 119.69 74.51 120.22 74.73 C 114.53 79.01 108.39 82.63 102.17 86.08 C 98.87 86.90 95.63 88.03 92.21 88.29 C 88.22 88.75 84.42 88.12 81.23 85.76 C 80.12 84.84 78.99 83.97 77.90 83.03 C 88.38 84.86 99.63 82.77 109.08 78.20 C 112.26 77.20 115.67 76.26 118.10 73.85 Z" />
</g>
<g id="#7c8da5f6">
<path fill="#7c8da5" opacity="0.96" d=" M 46.20 80.19 C 51.84 76.75 58.53 74.14 65.26 75.23 L 64.76 75.94 C 59.16 75.58 55.82 81.18 50.87 82.77 C 48.16 83.48 45.50 84.35 42.88 85.35 L 42.18 85.22 C 42.81 83.16 44.26 81.22 46.20 80.19 Z" />
</g>
<g id="#6e7c95ff">
<path fill="#6e7c95" opacity="1.00" d=" M 50.87 82.77 C 55.82 81.18 59.16 75.58 64.76 75.94 C 65.03 76.55 65.56 77.76 65.82 78.37 C 64.91 82.80 68.32 87.13 66.80 91.67 C 63.98 94.93 60.52 97.59 57.04 100.08 C 55.36 99.24 54.21 96.95 52.20 97.09 C 49.40 100.30 48.07 105.23 43.68 106.72 C 39.36 106.69 34.89 105.74 31.01 103.84 C 30.45 99.04 35.67 95.38 33.60 90.38 C 33.21 86.66 30.12 82.96 25.85 85.65 C 23.90 85.91 21.96 86.36 20.16 87.18 C 19.96 88.78 19.97 90.39 19.96 92.00 C 18.29 91.00 19.95 87.23 17.03 88.00 C 17.07 88.73 17.15 90.20 17.19 90.94 L 16.45 90.73 C 14.92 90.17 13.28 90.11 11.67 89.98 C 13.40 83.96 21.47 81.48 27.45 81.92 C 27.79 81.98 28.48 82.11 28.83 82.18 C 30.79 83.49 33.62 84.22 34.24 86.81 C 35.80 91.54 38.84 95.47 41.26 99.75 C 43.01 102.49 47.19 100.80 48.01 98.02 C 49.29 94.49 52.51 89.70 48.34 86.88 C 47.81 86.68 46.76 86.27 46.23 86.07 C 45.11 85.85 43.99 85.61 42.88 85.35 C 45.50 84.35 48.16 83.48 50.87 82.77 Z" />
</g>
<g id="#7d8ca3fc">
<path fill="#7d8ca3" opacity="1.00" d=" M 179.27 75.90 C 180.04 76.81 180.76 77.75 181.43 78.74 C 179.03 82.10 176.62 86.04 172.93 87.99 C 165.73 86.79 159.79 81.36 152.84 80.06 C 149.80 80.03 146.81 80.48 143.78 80.39 C 144.34 80.02 145.48 79.29 146.05 78.93 C 146.53 78.69 147.49 78.20 147.98 77.96 C 150.69 77.88 153.50 77.75 156.08 78.72 C 157.69 79.19 159.27 79.74 160.83 80.37 C 163.49 82.02 166.13 83.85 169.09 84.96 C 172.10 85.84 173.80 82.19 176.04 81.10 C 178.24 80.00 179.31 78.27 179.27 75.90 Z" />
</g>
<g id="#59667ffe">
<path fill="#59667f" opacity="1.00" d=" M 70.98 78.02 L 71.92 78.46 C 72.88 79.37 73.83 80.29 74.79 81.19 C 75.51 82.85 76.30 84.48 77.14 86.09 C 77.00 88.88 75.76 91.41 75.14 94.10 C 74.12 99.14 71.87 103.84 69.29 108.26 C 67.11 109.54 63.75 109.23 62.08 110.79 C 62.52 110.88 63.40 111.07 63.84 111.17 L 64.09 112.02 C 61.24 110.86 52.98 113.98 52.17 111.06 C 56.16 111.50 57.16 106.74 60.32 105.34 C 64.90 102.69 70.50 100.20 71.45 94.37 C 74.17 89.03 71.02 83.50 70.98 78.02 Z" />
</g>
<g id="#5d6b83ff">
<path fill="#5d6b83" opacity="1.00" d=" M 88.01 81.06 C 89.20 79.37 91.07 78.49 92.97 77.83 C 91.71 79.21 90.21 83.34 88.01 81.06 Z" />
<path fill="#5d6b83" opacity="1.00" d=" M 162.73 92.56 C 164.32 90.04 167.50 89.27 170.20 88.57 C 172.92 89.09 173.14 92.41 174.59 94.33 L 174.85 95.10 C 170.82 94.14 166.52 94.41 162.73 92.56 Z" />
</g>
<g id="#4e5f79ff">
<path fill="#4e5f79" opacity="1.00" d=" M 110.90 87.91 C 117.48 85.17 122.96 80.07 129.80 78.03 C 130.28 79.32 130.99 80.58 131.02 82.00 C 131.41 84.59 128.20 85.11 126.81 86.69 C 130.28 87.02 133.52 88.36 136.90 89.12 C 136.31 90.55 135.72 91.97 135.05 93.36 C 129.00 86.51 119.90 89.84 111.98 90.05 C 112.66 89.36 113.34 88.68 114.02 87.99 C 113.24 87.97 111.68 87.93 110.90 87.91 Z" />
</g>
<g id="#8793a7eb">
<path fill="#8793a7" opacity="0.92" d=" M 18.92 79.97 C 20.13 76.99 26.72 79.08 28.92 81.26 L 28.83 82.18 C 28.48 82.11 27.79 81.98 27.45 81.92 C 25.10 81.07 22.65 80.02 20.11 80.51 C 19.81 80.38 19.22 80.11 18.92 79.97 Z" />
</g>
<g id="#72829afc">
<path fill="#72829a" opacity="1.00" d=" M 181.43 78.74 C 182.02 79.49 182.60 80.25 183.18 81.01 C 180.59 85.35 173.63 88.52 174.59 94.33 C 173.14 92.41 172.92 89.09 170.20 88.57 C 166.31 86.28 161.84 90.53 158.29 87.71 C 155.59 85.96 154.62 82.56 152.84 80.06 C 159.79 81.36 165.73 86.79 172.93 87.99 C 176.62 86.04 179.03 82.10 181.43 78.74 Z" />
</g>
<g id="#a7b8caf2">
<path fill="#a7b8ca" opacity="0.95" d=" M 8.23 86.20 C 11.13 83.35 14.25 79.10 18.92 79.97 C 19.22 80.11 19.81 80.38 20.11 80.51 C 15.35 81.51 11.05 84.20 8.49 88.39 C 7.49 90.72 6.49 93.05 5.25 95.27 C 4.50 91.93 7.16 89.16 8.23 86.20 Z" />
</g>
<g id="#76859ffd">
<path fill="#76859f" opacity="1.00" d=" M 20.11 80.51 C 22.65 80.02 25.10 81.07 27.45 81.92 C 21.47 81.48 13.40 83.96 11.67 89.98 L 11.96 90.71 C 11.16 91.39 10.40 92.13 9.69 92.91 C 7.41 95.86 6.96 99.62 6.41 103.19 C 5.33 100.79 4.14 97.86 5.25 95.27 C 6.49 93.05 7.49 90.72 8.49 88.39 C 11.05 84.20 15.35 81.51 20.11 80.51 Z" />
</g>
<g id="#6a7a96ff">
<path fill="#6a7a96" opacity="1.00" d=" M 136.90 89.12 C 138.02 85.44 140.29 82.22 143.78 80.39 C 146.81 80.48 149.80 80.03 152.84 80.06 C 154.62 82.56 155.59 85.96 158.29 87.71 C 161.84 90.53 166.31 86.28 170.20 88.57 C 167.50 89.27 164.32 90.04 162.73 92.56 C 161.72 92.62 160.73 92.82 159.78 93.17 C 156.89 93.72 154.44 95.42 152.99 97.99 C 152.24 99.05 151.50 100.10 150.79 101.19 C 150.00 98.89 148.74 96.75 146.77 95.26 C 143.15 95.29 139.35 96.91 135.97 95.08 C 135.74 94.65 135.28 93.79 135.05 93.36 C 135.72 91.97 136.31 90.55 136.90 89.12 Z" />
</g>
<g id="#78859cfc">
<path fill="#78859c" opacity="1.00" d=" M 28.92 81.26 C 31.78 81.70 35.93 84.40 37.53 86.87 C 37.21 88.45 39.17 89.02 39.99 90.06 C 41.71 91.94 43.04 94.44 45.75 95.02 C 46.82 92.38 47.69 89.66 48.34 86.88 C 52.51 89.70 49.29 94.49 48.01 98.02 C 47.19 100.80 43.01 102.49 41.26 99.75 C 38.84 95.47 35.80 91.54 34.24 86.81 C 33.62 84.22 30.79 83.49 28.83 82.18 L 28.92 81.26 Z" />
</g>
<g id="#97a7befc">
<path fill="#97a7be" opacity="1.00" d=" M 42.18 85.22 L 42.88 85.35 C 43.99 85.61 45.11 85.85 46.23 86.07 C 45.25 88.65 43.09 91.92 39.99 90.06 C 39.17 89.02 37.21 88.45 37.53 86.87 C 39.72 88.44 41.73 88.04 42.18 85.22 Z" />
</g>
<g id="#bac2ceff">
<path fill="#bac2ce" opacity="1.00" d=" M 20.16 87.18 C 21.96 86.36 23.90 85.91 25.85 85.65 L 26.22 86.62 C 24.81 88.88 23.29 91.07 21.72 93.22 C 21.28 92.91 20.40 92.30 19.96 92.00 C 19.97 90.39 19.96 88.78 20.16 87.18 Z" />
</g>
<g id="#8191a8fe">
<path fill="#8191a8" opacity="1.00" d=" M 46.23 86.07 C 46.76 86.27 47.81 86.68 48.34 86.88 C 47.69 89.66 46.82 92.38 45.75 95.02 C 43.04 94.44 41.71 91.94 39.99 90.06 C 43.09 91.92 45.25 88.65 46.23 86.07 Z" />
</g>
<g id="#66738dff">
<path fill="#66738d" opacity="1.00" d=" M 77.14 86.09 C 78.50 85.97 79.86 85.86 81.23 85.76 C 84.42 88.12 88.22 88.75 92.21 88.29 C 90.66 88.51 87.56 88.93 86.01 89.14 C 85.44 91.86 89.05 91.53 90.80 92.07 C 90.28 93.35 90.54 94.63 91.18 95.81 C 100.04 98.62 110.02 99.53 118.66 95.58 C 124.54 93.96 130.12 99.47 131.00 104.99 C 130.43 108.22 129.30 111.61 126.77 113.86 C 123.99 114.50 121.51 112.66 118.92 111.99 C 111.11 107.45 102.48 102.45 93.16 105.05 C 94.02 98.91 85.51 99.41 83.56 94.41 C 82.14 90.80 77.27 91.42 75.14 94.10 C 75.76 91.41 77.00 88.88 77.14 86.09 Z" />
</g>
<g id="#57657fff">
<path fill="#57657f" opacity="1.00" d=" M 92.21 88.29 C 95.63 88.03 98.87 86.90 102.17 86.08 C 100.82 88.81 96.25 87.89 95.86 90.99 C 101.00 90.72 106.02 89.47 110.90 87.91 C 111.68 87.93 113.24 87.97 114.02 87.99 C 113.34 88.68 112.66 89.36 111.98 90.05 C 119.90 89.84 129.00 86.51 135.05 93.36 C 135.28 93.79 135.74 94.65 135.97 95.08 C 136.03 96.37 136.10 97.67 136.18 98.97 C 130.43 97.69 128.44 88.13 121.01 90.97 C 114.17 89.96 108.82 96.05 101.99 95.02 C 100.23 94.94 97.76 94.22 98.50 92.00 C 95.93 91.97 93.37 91.99 90.80 92.07 C 89.05 91.53 85.44 91.86 86.01 89.14 C 87.56 88.93 90.66 88.51 92.21 88.29 Z" />
</g>
<g id="#8a96a6ff">
<path fill="#8a96a6" opacity="1.00" d=" M 26.22 86.62 C 26.67 87.78 27.05 88.96 27.36 90.17 C 26.71 92.30 23.81 94.98 21.72 93.22 C 23.29 91.07 24.81 88.88 26.22 86.62 Z" />
</g>
<g id="#59667fff">
<path fill="#59667f" opacity="1.00" d=" M 17.03 88.00 C 19.95 87.23 18.29 91.00 19.96 92.00 C 20.40 92.30 21.28 92.91 21.72 93.22 C 23.81 94.98 26.71 92.30 27.36 90.17 C 27.78 88.45 29.04 87.69 30.78 88.03 C 30.97 90.33 32.51 92.82 30.91 94.97 C 28.44 99.36 26.23 103.97 22.96 107.84 C 20.58 108.52 18.19 109.13 15.80 109.77 L 14.91 109.93 C 14.40 109.73 13.38 109.35 12.87 109.16 C 12.62 108.72 12.12 107.82 11.88 107.37 C 13.30 107.01 14.73 106.64 16.10 106.09 C 18.90 105.63 17.63 100.26 15.13 100.09 C 14.30 100.09 12.63 100.09 11.79 100.09 C 11.14 99.39 11.12 98.70 11.74 98.03 C 13.98 97.94 16.23 97.33 17.94 95.82 C 18.21 94.15 17.68 92.51 17.19 90.94 C 17.15 90.20 17.07 88.73 17.03 88.00 Z" />
</g>
<g id="#a5afbeff">
<path fill="#a5afbe" opacity="1.00" d=" M 11.67 89.98 C 13.28 90.11 14.92 90.17 16.45 90.73 C 15.79 92.25 15.13 93.80 14.10 95.12 C 14.56 92.79 15.42 90.11 11.96 90.71 L 11.67 89.98 Z" />
</g>
<g id="#bec7d2ff">
<path fill="#bec7d2" opacity="1.00" d=" M 9.69 92.91 C 10.40 92.13 11.16 91.39 11.96 90.71 C 15.42 90.11 14.56 92.79 14.10 95.12 C 13.48 95.92 12.81 96.69 12.11 97.42 C 10.54 96.37 9.82 94.76 9.69 92.91 Z" />
</g>
<g id="#8a96a7ff">
<path fill="#8a96a7" opacity="1.00" d=" M 16.45 90.73 L 17.19 90.94 C 17.68 92.51 18.21 94.15 17.94 95.82 C 16.23 97.33 13.98 97.94 11.74 98.03 L 12.11 97.42 C 12.81 96.69 13.48 95.92 14.10 95.12 C 15.13 93.80 15.79 92.25 16.45 90.73 Z" />
</g>
<g id="#5e6c86ff">
<path fill="#5e6c86" opacity="1.00" d=" M 101.99 95.02 C 108.82 96.05 114.17 89.96 121.01 90.97 C 128.44 88.13 130.43 97.69 136.18 98.97 C 136.87 101.47 137.56 104.01 138.16 106.54 C 133.78 108.03 135.39 114.37 131.76 116.88 C 127.24 118.54 123.67 116.34 120.37 113.79 C 120.01 113.34 119.28 112.44 118.92 111.99 C 121.51 112.66 123.99 114.50 126.77 113.86 C 129.30 111.61 130.43 108.22 131.00 104.99 C 130.12 99.47 124.54 93.96 118.66 95.58 C 110.02 99.53 100.04 98.62 91.18 95.81 C 90.54 94.63 90.28 93.35 90.80 92.07 C 93.37 91.99 95.93 91.97 98.50 92.00 C 97.76 94.22 100.23 94.94 101.99 95.02 Z" />
</g>
<g id="#6c7c99ff">
<path fill="#6c7c99" opacity="1.00" d=" M 75.14 94.10 C 77.27 91.42 82.14 90.80 83.56 94.41 C 85.51 99.41 94.02 98.91 93.16 105.05 C 88.43 106.33 84.29 109.03 80.55 112.13 C 77.25 114.04 74.32 117.74 70.33 117.76 C 68.96 116.10 67.55 114.48 66.04 112.94 C 67.08 111.35 68.36 109.92 69.29 108.26 C 71.87 103.84 74.12 99.14 75.14 94.10 Z" />
</g>
<g id="#92a4b8fa">
<path fill="#92a4b8" opacity="0.98" d=" M 159.78 93.17 C 160.73 92.82 161.72 92.62 162.73 92.56 C 166.52 94.41 170.82 94.14 174.85 95.10 C 179.13 98.88 183.29 103.09 183.02 109.19 C 181.66 108.88 180.31 108.54 178.98 108.11 C 178.75 107.59 178.29 106.57 178.06 106.05 C 176.27 97.94 166.21 96.15 159.78 93.17 Z" />
</g>
<g id="#68758ffd">
<path fill="#68758f" opacity="1.00" d=" M 6.41 103.19 C 6.96 99.62 7.41 95.86 9.69 92.91 C 9.82 94.76 10.54 96.37 12.11 97.42 L 11.74 98.03 C 11.12 98.70 11.14 99.39 11.79 100.09 L 11.84 100.90 C 8.73 100.64 10.00 104.72 11.19 106.23 C 11.36 106.51 11.70 107.09 11.88 107.37 C 12.12 107.82 12.62 108.72 12.87 109.16 C 10.39 108.02 7.04 105.83 6.41 103.19 Z" />
</g>
<g id="#808fa7ff">
<path fill="#808fa7" opacity="1.00" d=" M 152.99 97.99 C 154.44 95.42 156.89 93.72 159.78 93.17 C 166.21 96.15 176.27 97.94 178.06 106.05 C 173.80 101.97 168.08 100.07 163.30 96.72 C 161.22 95.65 156.52 94.62 156.90 97.90 C 155.59 97.93 154.29 97.96 152.99 97.99 Z" />
</g>
<g id="#71809aff">
<path fill="#71809a" opacity="1.00" d=" M 135.97 95.08 C 139.35 96.91 143.15 95.29 146.77 95.26 C 148.74 96.75 150.00 98.89 150.79 101.19 C 150.86 101.62 150.99 102.49 151.06 102.92 L 150.97 103.69 C 149.25 106.32 145.91 108.98 146.58 112.37 C 146.65 114.31 150.77 114.65 148.93 116.47 C 145.87 115.43 143.52 113.18 141.31 110.93 C 140.28 109.45 139.27 107.96 138.16 106.54 C 137.56 104.01 136.87 101.47 136.18 98.97 C 136.10 97.67 136.03 96.37 135.97 95.08 Z" />
</g>
<g id="#707f99ff">
<path fill="#707f99" opacity="1.00" d=" M 156.90 97.90 C 156.52 94.62 161.22 95.65 163.30 96.72 C 168.08 100.07 173.80 101.97 178.06 106.05 C 178.29 106.57 178.75 107.59 178.98 108.11 C 178.99 108.56 179.01 109.46 179.01 109.91 C 177.55 109.14 175.92 108.94 174.33 109.42 C 171.48 110.39 168.80 108.60 166.11 107.87 C 165.71 106.40 166.71 103.97 165.28 103.10 C 163.31 101.59 160.86 101.87 158.88 103.19 C 158.46 102.12 158.05 101.05 157.68 99.96 C 157.48 99.45 157.09 98.42 156.90 97.90 Z" />
</g>
<g id="#bfc7d2ff">
<path fill="#bfc7d2" opacity="1.00" d=" M 152.99 97.99 C 154.29 97.96 155.59 97.93 156.90 97.90 C 157.09 98.42 157.48 99.45 157.68 99.96 C 155.40 100.78 153.22 101.85 151.06 102.92 C 150.99 102.49 150.86 101.62 150.79 101.19 C 151.50 100.10 152.24 99.05 152.99 97.99 Z" />
</g>
<g id="#a6b0c0ff">
<path fill="#a6b0c0" opacity="1.00" d=" M 11.79 100.09 C 12.63 100.09 14.30 100.09 15.13 100.09 C 14.69 102.25 14.49 105.16 11.96 105.86 C 11.98 104.21 11.95 102.55 11.84 100.90 L 11.79 100.09 Z" />
</g>
<g id="#8994a6ff">
<path fill="#8994a6" opacity="1.00" d=" M 15.13 100.09 C 17.63 100.26 18.90 105.63 16.10 106.09 C 14.73 106.64 13.30 107.01 11.88 107.37 C 11.70 107.09 11.36 106.51 11.19 106.23 L 11.96 105.86 C 14.49 105.16 14.69 102.25 15.13 100.09 Z" />
</g>
<g id="#909cafff">
<path fill="#909caf" opacity="1.00" d=" M 151.06 102.92 C 153.22 101.85 155.40 100.78 157.68 99.96 C 158.05 101.05 158.46 102.12 158.88 103.19 C 158.39 103.39 157.40 103.80 156.91 104.00 C 155.89 104.31 154.90 104.68 153.94 105.13 C 154.94 108.82 157.12 112.06 158.87 115.43 C 158.85 115.90 158.81 116.85 158.79 117.33 C 158.42 116.94 157.68 116.16 157.31 115.77 C 155.93 113.03 154.41 110.37 152.85 107.74 C 152.83 106.02 153.56 103.53 150.97 103.69 L 151.06 102.92 Z" />
</g>
<g id="#c6cdd6ff">
<path fill="#c6cdd6" opacity="1.00" d=" M 11.19 106.23 C 10.00 104.72 8.73 100.64 11.84 100.90 C 11.95 102.55 11.98 104.21 11.96 105.86 L 11.19 106.23 Z" />
</g>
<g id="#5c6981ff">
<path fill="#5c6981" opacity="1.00" d=" M 52.24 102.21 C 56.22 100.53 55.42 104.70 54.94 107.85 C 52.28 108.42 49.59 108.98 46.84 108.93 C 47.64 106.00 50.20 104.25 52.24 102.21 Z" />
</g>
<g id="#bcc3cfff">
<path fill="#bcc3cf" opacity="1.00" d=" M 158.88 103.19 C 160.86 101.87 163.31 101.59 165.28 103.10 C 162.71 104.66 159.98 105.91 157.20 107.03 C 157.13 106.27 156.98 104.76 156.91 104.00 C 157.40 103.80 158.39 103.39 158.88 103.19 Z" />
</g>
<g id="#949cacff">
<path fill="#949cac" opacity="1.00" d=" M 165.28 103.10 C 166.71 103.97 165.71 106.40 166.11 107.87 C 164.33 109.71 162.17 110.23 159.98 108.71 C 159.14 108.07 157.22 108.36 157.20 107.03 C 159.98 105.91 162.71 104.66 165.28 103.10 Z" />
</g>
<g id="#434f66ff">
<path fill="#434f66" opacity="1.00" d=" M 93.16 105.05 C 102.48 102.45 111.11 107.45 118.92 111.99 C 119.28 112.44 120.01 113.34 120.37 113.79 C 120.02 114.13 119.34 114.83 118.99 115.18 C 113.91 112.32 109.59 107.42 103.32 107.60 C 96.83 105.99 89.72 107.34 84.78 111.95 C 83.37 112.12 81.96 112.34 80.55 112.13 C 84.29 109.03 88.43 106.33 93.16 105.05 Z" />
</g>
<g id="#697790ff">
<path fill="#697790" opacity="1.00" d=" M 146.58 112.37 C 145.91 108.98 149.25 106.32 150.97 103.69 C 153.56 103.53 152.83 106.02 152.85 107.74 C 150.80 110.66 150.89 113.97 152.79 116.93 L 152.11 117.32 C 151.02 117.12 149.97 116.84 148.93 116.47 C 150.77 114.65 146.65 114.31 146.58 112.37 Z" />
</g>
<g id="#75829bff">
<path fill="#75829b" opacity="1.00" d=" M 153.94 105.13 C 154.90 104.68 155.89 104.31 156.91 104.00 C 156.98 104.76 157.13 106.27 157.20 107.03 C 157.22 108.36 159.14 108.07 159.98 108.71 C 158.03 110.09 160.20 111.83 160.93 113.26 C 160.25 113.99 159.56 114.71 158.87 115.43 C 157.12 112.06 154.94 108.82 153.94 105.13 Z" />
</g>
<g id="#5d6c85ff">
<path fill="#5d6c85" opacity="1.00" d=" M 84.78 111.95 C 89.72 107.34 96.83 105.99 103.32 107.60 C 109.59 107.42 113.91 112.32 118.99 115.18 C 119.66 116.12 120.33 117.07 120.98 118.04 L 120.25 118.26 C 113.20 112.52 104.51 109.09 95.29 110.03 C 91.64 107.72 88.50 112.20 84.78 111.95 Z" />
</g>
<g id="#56637cff">
<path fill="#56637c" opacity="1.00" d=" M 131.76 116.88 C 135.39 114.37 133.78 108.03 138.16 106.54 C 139.27 107.96 140.28 109.45 141.31 110.93 C 139.62 116.88 133.39 120.35 127.71 121.74 C 127.28 121.84 126.41 122.04 125.97 122.14 L 125.38 122.26 C 124.45 121.27 123.49 120.30 122.23 119.75 C 121.92 119.32 121.29 118.47 120.98 118.04 C 120.33 117.07 119.66 116.12 118.99 115.18 C 119.34 114.83 120.02 114.13 120.37 113.79 C 123.67 116.34 127.24 118.54 131.76 116.88 Z" />
</g>
<g id="#70859df6">
<path fill="#70859d" opacity="0.96" d=" M 15.80 109.77 C 18.19 109.13 20.58 108.52 22.96 107.84 C 29.35 109.32 35.64 111.41 42.25 111.72 C 36.21 113.52 30.28 111.65 24.26 110.70 C 21.45 110.29 18.63 109.99 15.80 109.77 Z" />
</g>
<g id="#67758dfe">
<path fill="#67758d" opacity="1.00" d=" M 62.08 110.79 C 63.75 109.23 67.11 109.54 69.29 108.26 C 68.36 109.92 67.08 111.35 66.04 112.94 C 67.55 114.48 68.96 116.10 70.33 117.76 C 74.32 117.74 77.25 114.04 80.55 112.13 C 81.96 112.34 83.37 112.12 84.78 111.95 C 88.50 112.20 91.64 107.72 95.29 110.03 C 91.71 111.47 88.09 112.84 84.72 114.75 C 82.98 115.61 81.34 116.67 79.84 117.90 C 79.53 118.19 78.91 118.75 78.60 119.04 C 78.00 119.61 77.41 120.21 76.84 120.81 C 73.35 122.28 69.51 121.65 66.28 119.90 C 65.03 117.40 66.70 112.12 63.84 111.17 C 63.40 111.07 62.52 110.88 62.08 110.79 Z" />
</g>
<g id="#5b6880ff">
<path fill="#5b6880" opacity="1.00" d=" M 152.79 116.93 C 150.89 113.97 150.80 110.66 152.85 107.74 C 154.41 110.37 155.93 113.03 157.31 115.77 C 156.45 116.63 154.80 117.20 155.33 118.72 C 155.92 122.82 155.89 127.08 157.13 131.08 C 158.64 129.93 159.95 128.55 161.27 127.20 L 162.09 126.92 C 162.00 127.38 161.80 128.29 161.71 128.74 C 160.95 129.75 160.22 130.78 159.54 131.84 C 159.16 132.14 158.41 132.72 158.03 133.02 C 155.09 134.70 155.07 138.51 153.37 141.15 C 153.01 139.68 152.68 138.20 152.29 136.74 C 151.96 131.22 150.07 126.00 147.67 121.09 C 148.06 118.85 150.50 118.44 152.11 117.32 L 152.79 116.93 Z" />
</g>
<g id="#63728afd">
<path fill="#63728a" opacity="1.00" d=" M 159.98 108.71 C 162.17 110.23 164.33 109.71 166.11 107.87 C 168.80 108.60 171.48 110.39 174.33 109.42 C 175.92 108.94 177.55 109.14 179.01 109.91 C 179.11 112.67 179.06 115.47 179.48 118.22 C 178.12 124.29 168.63 128.61 164.38 123.26 C 164.77 121.79 161.40 118.55 164.31 119.59 C 167.49 121.28 169.05 117.28 167.52 114.91 C 166.78 112.17 162.91 111.11 160.93 113.26 C 160.20 111.83 158.03 110.09 159.98 108.71 Z" />
</g>
<g id="#7c8ca4fb">
<path fill="#7c8ca4" opacity="1.00" d=" M 178.98 108.11 C 180.31 108.54 181.66 108.88 183.02 109.19 C 182.01 112.24 181.53 115.67 179.48 118.22 C 179.06 115.47 179.11 112.67 179.01 109.91 C 179.01 109.46 178.99 108.56 178.98 108.11 Z" />
</g>
<g id="#22272e83">
<path fill="#22272e" opacity="0.51" d=" M 14.91 109.93 L 15.80 109.77 C 18.63 109.99 21.45 110.29 24.26 110.70 C 21.72 110.03 16.05 112.57 14.91 109.93 Z" />
</g>
<g id="#9a9692ff">
<path fill="#9a9692" opacity="1.00" d=" M 95.29 110.03 C 104.51 109.09 113.20 112.52 120.25 118.26 C 118.85 120.26 116.39 120.03 114.25 119.90 C 109.01 114.36 100.72 112.16 93.30 113.34 C 90.46 113.93 87.64 114.75 84.72 114.75 C 88.09 112.84 91.71 111.47 95.29 110.03 Z" />
</g>
<g id="#4b576fff">
<path fill="#4b576f" opacity="1.00" d=" M 141.31 110.93 C 143.52 113.18 145.87 115.43 148.93 116.47 C 149.97 116.84 151.02 117.12 152.11 117.32 C 150.50 118.44 148.06 118.85 147.67 121.09 C 146.83 119.85 145.90 116.84 144.06 118.64 C 141.22 120.58 138.35 122.54 134.76 122.81 C 132.24 123.89 129.64 123.96 127.71 121.74 C 133.39 120.35 139.62 116.88 141.31 110.93 Z" />
</g>
<g id="#a9b3c1ff">
<path fill="#a9b3c1" opacity="1.00" d=" M 160.93 113.26 C 162.91 111.11 166.78 112.17 167.52 114.91 C 164.90 116.24 162.24 117.68 159.28 118.04 L 158.79 117.33 C 158.81 116.85 158.85 115.90 158.87 115.43 C 159.56 114.71 160.25 113.99 160.93 113.26 Z" />
</g>
<g id="#a9a29bff">
<path fill="#a9a29b" opacity="1.00" d=" M 93.30 113.34 C 100.72 112.16 109.01 114.36 114.25 119.90 C 104.45 120.34 94.77 121.30 84.97 120.01 C 83.30 119.21 81.56 118.59 79.84 117.90 C 81.34 116.67 82.98 115.61 84.72 114.75 C 87.64 114.75 90.46 113.93 93.30 113.34 Z" />
</g>
<g id="#8890a2fc">
<path fill="#8890a2" opacity="1.00" d=" M 167.52 114.91 C 169.05 117.28 167.49 121.28 164.31 119.59 C 161.40 118.55 164.77 121.79 164.38 123.26 C 162.16 123.44 161.59 121.31 160.53 119.86 C 160.12 119.25 159.71 118.64 159.28 118.04 C 162.24 117.68 164.90 116.24 167.52 114.91 Z" />
</g>
<g id="#6b7d96fb">
<path fill="#6b7d96" opacity="1.00" d=" M 157.31 115.77 C 157.68 116.16 158.42 116.94 158.79 117.33 L 159.28 118.04 C 159.71 118.64 160.12 119.25 160.53 119.86 C 159.70 122.35 161.29 124.70 161.27 127.20 C 159.95 128.55 158.64 129.93 157.13 131.08 C 155.89 127.08 155.92 122.82 155.33 118.72 C 154.80 117.20 156.45 116.63 157.31 115.77 Z" />
</g>
<g id="#84827fff">
<path fill="#84827f" opacity="1.00" d=" M 78.60 119.04 C 78.91 118.75 79.53 118.19 79.84 117.90 C 81.56 118.59 83.30 119.21 84.97 120.01 C 83.38 119.76 80.20 119.28 78.60 119.04 Z" />
</g>
<g id="#8c847bff">
<path fill="#8c847b" opacity="1.00" d=" M 120.25 118.26 L 120.98 118.04 C 121.29 118.47 121.92 119.32 122.23 119.75 C 110.07 122.04 96.88 123.70 84.97 120.01 C 94.77 121.30 104.45 120.34 114.25 119.90 C 116.39 120.03 118.85 120.26 120.25 118.26 Z" />
</g>
<g id="#4d4b4aff">
<path fill="#4d4b4a" opacity="1.00" d=" M 144.06 118.64 C 145.90 116.84 146.83 119.85 147.67 121.09 C 150.07 126.00 151.96 131.22 152.29 136.74 C 152.17 139.97 151.33 143.46 153.23 146.32 C 152.98 146.81 152.49 147.79 152.24 148.29 L 151.20 148.07 C 151.07 146.02 150.97 143.96 150.85 141.91 C 150.86 139.87 152.63 134.20 149.84 135.78 L 149.15 136.28 C 148.79 135.93 148.08 135.23 147.73 134.88 C 148.58 133.71 150.72 132.46 149.34 130.88 C 148.17 126.58 146.49 122.39 144.06 118.64 Z" />
</g>
<g id="#685f57ff">
<path fill="#685f57" opacity="1.00" d=" M 76.84 120.81 C 77.41 120.21 78.00 119.61 78.60 119.04 C 80.20 119.28 83.38 119.76 84.97 120.01 C 96.88 123.70 110.07 122.04 122.23 119.75 C 123.49 120.30 124.45 121.27 125.38 122.26 C 123.67 122.79 121.89 122.97 120.12 123.11 C 117.50 123.08 114.89 123.09 112.28 123.15 C 108.42 123.00 104.58 123.22 100.77 123.81 C 94.17 123.95 87.62 122.63 81.13 121.51 C 79.71 121.20 78.27 120.99 76.84 120.81 Z" />
</g>
<g id="#8c8885ff">
<path fill="#8c8885" opacity="1.00" d=" M 134.76 122.81 C 138.35 122.54 141.22 120.58 144.06 118.64 C 146.49 122.39 148.17 126.58 149.34 130.88 C 144.64 127.90 139.41 125.88 134.76 122.81 Z" />
</g>
<g id="#b2ada5fb">
<path fill="#b2ada5" opacity="1.00" d=" M 66.28 119.90 C 69.51 121.65 73.35 122.28 76.84 120.81 C 78.27 120.99 79.71 121.20 81.13 121.51 C 78.28 122.87 77.39 127.32 72.96 125.04 C 70.41 125.57 68.90 123.15 67.02 121.95 C 66.10 124.30 65.89 126.84 65.28 129.28 C 64.89 126.05 64.62 122.78 66.28 119.90 Z" />
</g>
<g id="#cfc4b5ff">
<path fill="#cfc4b5" opacity="1.00" d=" M 67.02 121.95 C 68.90 123.15 70.41 125.57 72.96 125.04 C 77.39 127.32 78.28 122.87 81.13 121.51 C 87.62 122.63 94.17 123.95 100.77 123.81 C 104.19 123.87 107.62 124.05 111.05 124.06 C 109.24 125.20 107.00 125.38 105.05 126.23 C 105.46 129.88 110.10 131.25 111.40 134.64 C 113.44 137.91 107.75 142.80 112.10 144.96 C 108.99 145.06 105.71 144.61 102.72 145.76 C 101.10 145.77 97.84 145.78 96.22 145.79 C 88.68 145.05 81.32 143.29 73.86 142.06 C 71.84 140.67 69.86 139.22 67.89 137.77 C 66.89 135.81 66.04 133.77 65.23 131.73 C 65.24 131.11 65.27 129.89 65.28 129.28 C 65.89 126.84 66.10 124.30 67.02 121.95 Z" />
</g>
<g id="#b1a89dff">
<path fill="#b1a89d" opacity="1.00" d=" M 125.38 122.26 L 125.97 122.14 C 126.95 127.28 133.96 127.52 135.96 132.05 C 136.91 134.23 137.80 136.44 138.64 138.67 C 136.71 139.71 134.74 140.69 132.94 141.94 C 129.27 142.82 125.62 143.89 121.83 144.01 C 124.04 142.56 127.22 141.15 127.03 138.01 C 126.52 132.26 121.00 129.26 117.80 125.01 C 118.54 124.33 119.31 123.70 120.12 123.11 C 121.89 122.97 123.67 122.79 125.38 122.26 Z" />
</g>
<g id="#9e9891ff">
<path fill="#9e9891" opacity="1.00" d=" M 125.97 122.14 C 126.41 122.04 127.28 121.84 127.71 121.74 C 129.64 123.96 132.24 123.89 134.76 122.81 C 139.41 125.88 144.64 127.90 149.34 130.88 C 150.72 132.46 148.58 133.71 147.73 134.88 C 143.26 137.45 139.01 140.49 134.13 142.26 L 132.94 141.94 C 134.74 140.69 136.71 139.71 138.64 138.67 C 137.80 136.44 136.91 134.23 135.96 132.05 C 133.96 127.52 126.95 127.28 125.97 122.14 Z" />
</g>
<g id="#92887dff">
<path fill="#92887d" opacity="1.00" d=" M 100.77 123.81 C 104.58 123.22 108.42 123.00 112.28 123.15 C 111.97 123.37 111.36 123.83 111.05 124.06 C 107.62 124.05 104.19 123.87 100.77 123.81 Z" />
</g>
<g id="#c1b6a8ff">
<path fill="#c1b6a8" opacity="1.00" d=" M 112.28 123.15 C 114.89 123.09 117.50 123.08 120.12 123.11 C 119.31 123.70 118.54 124.33 117.80 125.01 C 121.00 129.26 126.52 132.26 127.03 138.01 C 127.22 141.15 124.04 142.56 121.83 144.01 C 115.52 144.97 109.14 146.45 102.72 145.76 C 105.71 144.61 108.99 145.06 112.10 144.96 C 107.75 142.80 113.44 137.91 111.40 134.64 C 110.10 131.25 105.46 129.88 105.05 126.23 C 107.00 125.38 109.24 125.20 111.05 124.06 C 111.36 123.83 111.97 123.37 112.28 123.15 Z" />
</g>
<g id="#98a7baf8">
<path fill="#98a7ba" opacity="0.97" d=" M 159.54 131.84 C 160.22 130.78 160.95 129.75 161.71 128.74 C 168.35 132.24 176.42 134.36 180.33 141.40 C 175.76 143.23 171.85 138.97 167.94 137.12 C 165.21 135.30 160.69 135.35 159.54 131.84 Z" />
</g>
<g id="#8594adfd">
<path fill="#8594ad" opacity="1.00" d=" M 58.37 134.73 C 59.26 133.37 63.20 132.85 65.23 131.73 C 65.03 133.08 64.82 134.43 64.59 135.78 C 64.21 137.43 64.05 139.12 64.00 140.82 C 59.28 138.92 58.90 147.27 58.18 150.06 C 58.09 152.53 57.91 157.47 57.82 159.95 C 57.83 166.73 52.53 171.06 49.25 176.31 C 48.07 179.40 50.66 181.82 50.70 184.66 C 49.29 185.98 47.89 187.31 46.68 188.83 C 46.23 189.03 45.33 189.42 44.88 189.62 C 44.19 189.75 42.80 190.02 42.11 190.16 C 43.74 187.29 45.75 184.32 48.84 182.85 C 47.91 180.66 46.74 178.53 46.30 176.17 C 47.04 171.44 49.49 167.25 50.46 162.60 C 51.66 154.52 52.21 145.85 56.95 138.88 C 57.64 137.57 59.54 136.32 58.37 134.73 Z" />
</g>
<g id="#a79d89ff">
<path fill="#a79d89" opacity="1.00" d=" M 65.23 131.73 C 66.04 133.77 66.89 135.81 67.89 137.77 L 66.94 138.08 C 65.95 138.67 65.49 139.72 65.54 141.22 C 65.12 139.43 64.86 137.60 64.59 135.78 C 64.82 134.43 65.03 133.08 65.23 131.73 Z" />
</g>
<g id="#879ab0fb">
<path fill="#879ab0" opacity="1.00" d=" M 158.03 133.02 C 158.41 132.72 159.16 132.14 159.54 131.84 C 160.69 135.35 165.21 135.30 167.94 137.12 C 171.85 138.97 175.76 143.23 180.33 141.40 C 183.89 142.57 185.07 147.92 187.04 150.98 C 190.60 156.29 188.15 162.86 189.49 168.78 C 188.32 173.32 186.34 177.59 184.64 181.94 L 183.60 182.26 C 180.96 179.91 183.99 176.36 184.46 173.59 C 184.75 167.49 186.33 160.85 184.13 154.96 C 182.87 151.20 180.86 147.64 177.68 145.20 C 173.36 142.16 171.98 148.30 168.16 146.98 C 166.76 145.07 167.28 142.25 165.29 140.71 C 163.02 138.24 158.16 138.83 157.53 134.81 C 157.66 134.36 157.90 133.46 158.03 133.02 Z" />
</g>
<g id="#4f5b73ff">
<path fill="#4f5b73" opacity="1.00" d=" M 153.37 141.15 C 155.07 138.51 155.09 134.70 158.03 133.02 C 157.90 133.46 157.66 134.36 157.53 134.81 C 156.89 136.84 156.21 138.86 155.60 140.89 C 154.93 142.75 154.18 144.58 153.23 146.32 C 151.33 143.46 152.17 139.97 152.29 136.74 C 152.68 138.20 153.01 139.68 153.37 141.15 Z" />
</g>
<g id="#93a4bcfe">
<path fill="#93a4bc" opacity="1.00" d=" M 50.03 142.98 C 52.21 139.90 55.15 136.86 58.37 134.73 C 59.54 136.32 57.64 137.57 56.95 138.88 C 52.21 145.85 51.66 154.52 50.46 162.60 C 49.49 167.25 47.04 171.44 46.30 176.17 C 45.63 174.90 44.38 173.72 44.34 172.23 C 44.80 168.17 44.86 164.09 45.04 160.01 C 47.92 154.73 47.93 148.55 50.03 142.98 Z" />
</g>
<g id="#675d53ff">
<path fill="#675d53" opacity="1.00" d=" M 134.13 142.26 C 139.01 140.49 143.26 137.45 147.73 134.88 C 148.08 135.23 148.79 135.93 149.15 136.28 C 147.16 137.88 145.11 139.40 143.23 141.12 C 140.07 142.13 136.88 143.20 134.07 145.01 C 129.70 146.08 125.21 146.62 120.81 147.61 C 119.57 147.81 118.33 148.01 117.09 148.20 C 115.34 148.22 111.85 148.28 110.10 148.31 C 108.30 148.04 106.51 147.76 104.75 147.31 C 114.64 147.12 124.95 146.02 134.13 142.26 Z" />
</g>
<g id="#78726eff">
<path fill="#78726e" opacity="1.00" d=" M 149.84 135.78 C 152.63 134.20 150.86 139.87 150.85 141.91 C 150.60 141.65 150.10 141.12 149.85 140.86 C 149.85 139.17 149.82 137.47 149.84 135.78 Z" />
</g>
<g id="#8391a9ff">
<path fill="#8391a9" opacity="1.00" d=" M 155.60 140.89 C 156.21 138.86 156.89 136.84 157.53 134.81 C 158.16 138.83 163.02 138.24 165.29 140.71 C 167.28 142.25 166.76 145.07 168.16 146.98 C 171.98 148.30 173.36 142.16 177.68 145.20 C 180.86 147.64 182.87 151.20 184.13 154.96 C 182.03 153.68 179.95 151.82 177.09 152.96 C 173.87 158.01 173.30 165.62 166.97 167.95 C 163.36 171.22 158.02 170.40 155.12 166.78 C 156.40 159.55 160.94 152.77 160.80 145.31 C 159.00 143.92 157.06 142.67 155.60 140.89 Z" />
</g>
<g id="#67748bff">
<path fill="#67748b" opacity="1.00" d=" M 64.00 140.82 C 64.05 139.12 64.21 137.43 64.59 135.78 C 64.86 137.60 65.12 139.43 65.54 141.22 C 66.52 147.11 69.97 152.14 71.99 157.68 C 69.97 158.76 69.65 160.95 70.20 163.01 C 71.37 164.54 71.54 166.23 70.50 167.88 C 70.32 168.35 69.98 169.29 69.80 169.76 C 67.01 173.61 63.95 177.90 59.10 179.16 C 56.93 179.61 55.60 181.19 54.76 183.16 C 52.66 183.52 52.42 180.65 53.71 179.72 C 59.36 176.22 65.49 171.96 67.14 165.11 C 68.16 159.72 69.68 153.37 66.10 148.52 C 65.52 145.92 64.88 143.33 64.00 140.82 Z" />
</g>
<g id="#9c968fff">
<path fill="#9c968f" opacity="1.00" d=" M 149.15 136.28 L 149.84 135.78 C 149.82 137.47 149.85 139.17 149.85 140.86 C 147.98 142.34 147.28 144.63 146.85 146.94 C 145.06 153.39 141.37 159.12 136.94 164.05 C 133.83 165.70 130.48 167.01 126.91 167.08 C 129.20 165.72 131.97 164.81 132.93 161.95 C 137.53 155.64 140.46 148.35 143.23 141.12 C 145.11 139.40 147.16 137.88 149.15 136.28 Z" />
</g>
<g id="#d2c8b7ff">
<path fill="#d2c8b7" opacity="1.00" d=" M 65.54 141.22 C 65.49 139.72 65.95 138.67 66.94 138.08 C 67.44 141.71 72.42 142.09 74.68 144.33 C 85.91 148.82 98.29 148.91 110.21 149.14 C 107.58 150.51 104.13 150.70 102.29 153.27 C 102.17 154.93 101.95 158.24 101.84 159.89 C 95.28 161.79 88.13 164.23 81.38 161.60 C 78.42 161.06 75.81 159.42 72.84 158.96 C 72.63 158.64 72.20 158.00 71.99 157.68 C 69.97 152.14 66.52 147.11 65.54 141.22 Z" />
</g>
<g id="#796d5eff">
<path fill="#796d5e" opacity="1.00" d=" M 66.94 138.08 L 67.89 137.77 C 69.86 139.22 71.84 140.67 73.86 142.06 C 78.75 144.44 84.37 145.49 89.77 146.29 C 94.73 147.04 99.77 146.80 104.75 147.31 C 106.51 147.76 108.30 148.04 110.10 148.31 L 110.21 149.14 C 98.29 148.91 85.91 148.82 74.68 144.33 C 72.42 142.09 67.44 141.71 66.94 138.08 Z" />
</g>
<g id="#7987a0fe">
<path fill="#7987a0" opacity="1.00" d=" M 58.18 150.06 C 58.90 147.27 59.28 138.92 64.00 140.82 C 64.88 143.33 65.52 145.92 66.10 148.52 C 63.87 156.48 64.69 166.13 58.30 172.30 C 55.99 175.21 49.20 177.53 51.70 182.30 C 54.43 185.37 50.16 190.19 54.78 191.83 C 54.35 194.04 50.90 198.92 53.86 199.92 L 54.83 200.18 C 56.06 201.69 51.44 201.43 52.04 199.99 C 52.11 198.67 51.50 197.94 50.22 197.80 C 51.76 194.39 48.82 191.20 46.68 188.83 C 47.89 187.31 49.29 185.98 50.70 184.66 C 50.66 181.82 48.07 179.40 49.25 176.31 C 52.53 171.06 57.83 166.73 57.82 159.95 C 57.91 157.47 58.09 152.53 58.18 150.06 Z" />
</g>
<g id="#aba399ff">
<path fill="#aba399" opacity="1.00" d=" M 134.07 145.01 C 136.88 143.20 140.07 142.13 143.23 141.12 C 140.46 148.35 137.53 155.64 132.93 161.95 C 131.97 164.81 129.20 165.72 126.91 167.08 C 125.31 167.63 123.67 168.05 122.03 168.47 C 121.55 168.27 120.58 167.89 120.09 167.70 C 124.66 163.35 128.07 157.94 129.85 151.89 C 130.44 149.13 132.65 147.30 134.07 145.01 Z" />
</g>
<g id="#8d8884ff">
<path fill="#8d8884" opacity="1.00" d=" M 146.85 146.94 C 147.28 144.63 147.98 142.34 149.85 140.86 C 150.10 141.12 150.60 141.65 150.85 141.91 C 150.97 143.96 151.07 146.02 151.20 148.07 C 150.12 151.09 149.11 154.12 148.25 157.21 C 147.26 158.21 146.26 159.19 145.24 160.16 C 142.53 161.58 139.78 162.91 136.94 164.05 C 141.37 159.12 145.06 153.39 146.85 146.94 Z" />
</g>
<g id="#7b8ba3ff">
<path fill="#7b8ba3" opacity="1.00" d=" M 153.23 146.32 C 154.18 144.58 154.93 142.75 155.60 140.89 C 157.06 142.67 159.00 143.92 160.80 145.31 C 160.94 152.77 156.40 159.55 155.12 166.78 C 158.02 170.40 163.36 171.22 166.97 167.95 C 173.30 165.62 173.87 158.01 177.09 152.96 C 179.95 151.82 182.03 153.68 184.13 154.96 C 186.33 160.85 184.75 167.49 184.46 173.59 C 183.99 176.36 180.96 179.91 183.60 182.26 C 183.08 184.08 184.00 185.87 183.78 187.69 C 183.28 190.55 182.48 193.59 183.73 196.36 C 184.38 198.52 181.53 199.66 180.27 201.00 C 179.95 199.83 179.58 198.68 179.15 197.56 C 178.88 196.78 178.60 196.00 178.33 195.23 C 179.70 192.13 172.74 192.82 173.02 189.97 C 172.68 188.42 174.07 187.77 175.12 187.06 C 175.56 187.04 176.43 187.00 176.87 186.98 C 182.39 188.20 179.63 180.50 181.17 177.22 C 181.93 175.92 182.77 174.65 183.30 173.24 C 184.24 168.95 184.21 164.44 183.95 160.06 C 184.08 157.70 180.21 157.09 179.73 159.74 C 176.72 162.73 174.99 167.12 171.05 169.09 C 165.63 172.16 159.45 176.63 152.86 174.25 C 150.69 174.04 149.99 171.77 148.88 170.25 C 148.51 168.42 147.97 166.63 147.36 164.87 L 147.17 164.21 C 147.91 163.27 148.14 162.21 147.87 161.02 C 148.28 159.74 148.76 158.47 149.22 157.21 C 150.36 154.28 151.37 151.30 152.24 148.29 C 152.49 147.79 152.98 146.81 153.23 146.32 Z" />
</g>
<g id="#aca193ff">
<path fill="#aca193" opacity="1.00" d=" M 73.86 142.06 C 81.32 143.29 88.68 145.05 96.22 145.79 C 94.07 145.92 91.92 146.11 89.77 146.29 C 84.37 145.49 78.75 144.44 73.86 142.06 Z" />
</g>
<g id="#978c7fff">
<path fill="#978c7f" opacity="1.00" d=" M 121.83 144.01 C 125.62 143.89 129.27 142.82 132.94 141.94 L 134.13 142.26 C 124.95 146.02 114.64 147.12 104.75 147.31 C 99.77 146.80 94.73 147.04 89.77 146.29 C 91.92 146.11 94.07 145.92 96.22 145.79 C 97.84 145.78 101.10 145.77 102.72 145.76 C 109.14 146.45 115.52 144.97 121.83 144.01 Z" />
</g>
<g id="#a4b3c6f6">
<path fill="#a4b3c6" opacity="0.96" d=" M 45.53 150.79 C 46.10 148.09 47.68 144.27 50.03 142.98 C 47.93 148.55 47.92 154.73 45.04 160.01 C 44.59 160.92 44.18 161.86 43.81 162.81 L 42.99 163.12 C 42.85 161.81 42.95 160.53 43.30 159.28 C 44.51 156.63 46.38 153.82 45.53 150.79 Z" />
</g>
<g id="#b9afa3ff">
<path fill="#b9afa3" opacity="1.00" d=" M 120.81 147.61 C 125.21 146.62 129.70 146.08 134.07 145.01 C 132.65 147.30 130.44 149.13 129.85 151.89 C 128.07 157.94 124.66 163.35 120.09 167.70 C 118.33 167.74 116.35 167.61 114.94 168.89 C 114.53 168.99 113.71 169.21 113.30 169.31 C 111.43 169.21 107.70 169.00 105.83 168.90 C 109.53 165.95 113.45 163.24 116.69 159.78 C 117.45 156.82 116.14 153.02 118.36 150.46 C 120.07 149.79 125.64 147.94 120.81 147.61 Z" />
</g>
<g id="#8f8377ff">
<path fill="#8f8377" opacity="1.00" d=" M 110.10 148.31 C 111.85 148.28 115.34 148.22 117.09 148.20 C 115.21 149.75 112.91 150.07 110.21 149.14 L 110.10 148.31 Z" />
</g>
<g id="#c6bcadff">
<path fill="#c6bcad" opacity="1.00" d=" M 117.09 148.20 C 118.33 148.01 119.57 147.81 120.81 147.61 C 125.64 147.94 120.07 149.79 118.36 150.46 C 116.14 153.02 117.45 156.82 116.69 159.78 C 113.45 163.24 109.53 165.95 105.83 168.90 C 104.23 168.96 102.64 169.01 101.05 169.06 C 94.93 168.84 88.93 167.71 83.16 165.73 C 79.73 163.93 76.54 161.74 73.26 159.72 L 72.84 158.96 C 75.81 159.42 78.42 161.06 81.38 161.60 C 88.13 164.23 95.28 161.79 101.84 159.89 C 101.95 158.24 102.17 154.93 102.29 153.27 C 104.13 150.70 107.58 150.51 110.21 149.14 C 112.91 150.07 115.21 149.75 117.09 148.20 Z" />
</g>
<g id="#5f6676ff">
<path fill="#5f6676" opacity="1.00" d=" M 151.20 148.07 L 152.24 148.29 C 151.37 151.30 150.36 154.28 149.22 157.21 L 148.25 157.21 C 149.11 154.12 150.12 151.09 151.20 148.07 Z" />
</g>
<g id="#6c7c94fe">
<path fill="#6c7c94" opacity="1.00" d=" M 58.30 172.30 C 64.69 166.13 63.87 156.48 66.10 148.52 C 69.68 153.37 68.16 159.72 67.14 165.11 C 65.49 171.96 59.36 176.22 53.71 179.72 C 52.42 180.65 52.66 183.52 54.76 183.16 C 57.51 184.08 60.29 185.11 63.24 184.85 C 64.93 185.46 66.53 186.26 68.14 187.05 C 70.42 190.57 66.92 193.73 66.04 197.06 C 70.46 195.59 75.91 194.95 78.63 190.67 C 79.75 188.25 80.61 185.68 82.57 183.77 C 86.92 194.98 73.29 196.70 65.78 198.27 C 64.56 196.61 64.46 191.90 61.92 192.59 L 61.24 192.81 C 59.78 190.45 57.17 191.36 54.78 191.83 C 50.16 190.19 54.43 185.37 51.70 182.30 C 49.20 177.53 55.99 175.21 58.30 172.30 Z" />
</g>
<g id="#bac9d6f6">
<path fill="#bac9d6" opacity="0.96" d=" M 45.53 150.79 C 46.38 153.82 44.51 156.63 43.30 159.28 C 42.39 156.20 43.28 153.04 45.53 150.79 Z" />
</g>
<g id="#404145ff">
<path fill="#404145" opacity="1.00" d=" M 148.25 157.21 L 149.22 157.21 C 148.76 158.47 148.28 159.74 147.87 161.02 C 147.18 161.01 145.81 160.98 145.12 160.97 L 145.24 160.16 C 146.26 159.19 147.26 158.21 148.25 157.21 Z" />
</g>
<g id="#4c586fff">
<path fill="#4c586f" opacity="1.00" d=" M 70.20 163.01 C 69.65 160.95 69.97 158.76 71.99 157.68 C 72.20 158.00 72.63 158.64 72.84 158.96 L 73.26 159.72 L 73.04 160.67 C 72.09 161.45 71.15 162.24 70.20 163.01 Z" />
</g>
<g id="#77869dfe">
<path fill="#77869d" opacity="1.00" d=" M 179.73 159.74 C 180.21 157.09 184.08 157.70 183.95 160.06 C 184.21 164.44 184.24 168.95 183.30 173.24 C 182.89 170.15 183.95 166.51 181.85 163.93 C 177.01 169.22 171.55 174.87 164.00 175.95 C 159.46 176.20 155.42 179.20 150.97 179.25 C 150.37 177.73 149.84 176.19 149.19 174.69 C 148.53 178.04 150.07 180.98 151.08 183.99 L 150.05 184.01 C 147.33 183.52 147.22 178.94 145.69 176.90 C 145.56 176.58 145.29 175.95 145.15 175.64 C 145.25 173.07 145.21 170.50 146.13 168.08 C 147.01 168.85 147.92 169.58 148.88 170.25 C 149.99 171.77 150.69 174.04 152.86 174.25 C 159.45 176.63 165.63 172.16 171.05 169.09 C 174.99 167.12 176.72 162.73 179.73 159.74 Z" />
</g>
<g id="#b9cbddff">
<path fill="#b9cbdd" opacity="1.00" d=" M 43.81 162.81 C 44.18 161.86 44.59 160.92 45.04 160.01 C 44.86 164.09 44.80 168.17 44.34 172.23 L 44.20 171.15 C 44.07 168.36 43.94 165.59 43.81 162.81 Z" />
</g>
<g id="#918b7dff">
<path fill="#918b7d" opacity="1.00" d=" M 73.26 159.72 C 76.54 161.74 79.73 163.93 83.16 165.73 C 82.59 165.96 81.46 166.43 80.89 166.67 C 79.17 165.81 77.70 164.49 75.84 163.91 C 74.77 162.96 73.89 161.82 73.04 160.67 L 73.26 159.72 Z" />
</g>
<g id="#605a50ff">
<path fill="#605a50" opacity="1.00" d=" M 136.94 164.05 C 139.78 162.91 142.53 161.58 145.24 160.16 L 145.12 160.97 L 144.97 161.64 C 143.66 162.77 142.30 163.83 140.92 164.87 C 137.20 166.07 133.62 167.67 129.83 168.66 C 126.47 169.09 123.16 169.79 119.87 170.58 C 116.99 170.81 114.13 170.96 111.27 171.29 C 108.43 171.24 105.60 171.22 102.78 171.21 C 102.04 171.16 100.56 171.06 99.81 171.00 C 100.10 170.74 100.68 170.22 100.97 169.96 C 105.04 169.65 109.31 170.44 113.30 169.31 C 113.71 169.21 114.53 168.99 114.94 168.89 C 117.55 169.80 119.92 169.66 122.03 168.47 C 123.67 168.05 125.31 167.63 126.91 167.08 C 130.48 167.01 133.83 165.70 136.94 164.05 Z" />
</g>
<g id="#5c6982ff">
<path fill="#5c6982" opacity="1.00" d=" M 70.20 163.01 C 71.15 162.24 72.09 161.45 73.04 160.67 C 73.89 161.82 74.77 162.96 75.84 163.91 L 75.74 164.64 C 75.12 166.41 76.83 167.79 77.46 169.31 C 77.15 171.22 76.26 173.01 75.69 174.86 C 73.65 175.46 73.15 173.00 72.12 171.81 C 71.90 170.37 71.45 169.00 70.50 167.88 C 71.54 166.23 71.37 164.54 70.20 163.01 Z" />
</g>
<g id="#5f6571ff">
<path fill="#5f6571" opacity="1.00" d=" M 145.12 160.97 C 145.81 160.98 147.18 161.01 147.87 161.02 C 148.14 162.21 147.91 163.27 147.17 164.21 L 146.40 164.01 C 146.04 163.41 145.33 162.23 144.97 161.64 L 145.12 160.97 Z" />
</g>
<g id="#807d7dff">
<path fill="#807d7d" opacity="1.00" d=" M 140.92 164.87 C 142.30 163.83 143.66 162.77 144.97 161.64 C 145.33 162.23 146.04 163.41 146.40 164.01 C 145.17 169.59 140.26 173.63 134.88 175.10 C 136.27 171.37 138.72 168.16 140.92 164.87 Z" />
</g>
<g id="#4c535a9f">
<path fill="#4c535a" opacity="0.62" d=" M 42.99 163.12 L 43.81 162.81 C 43.94 165.59 44.07 168.36 44.20 171.15 C 41.69 170.25 43.49 165.57 42.99 163.12 Z" />
</g>
<g id="#b6ada1ff">
<path fill="#b6ada1" opacity="1.00" d=" M 75.84 163.91 C 77.70 164.49 79.17 165.81 80.89 166.67 C 86.88 169.08 93.36 170.60 99.81 171.00 C 100.56 171.06 102.04 171.16 102.78 171.21 C 105.59 171.68 108.54 172.48 111.27 171.29 C 114.13 170.96 116.99 170.81 119.87 170.58 C 120.14 170.86 120.68 171.42 120.95 171.70 C 115.72 172.74 111.31 175.93 107.26 179.26 C 97.69 180.15 89.28 174.83 81.03 170.83 C 80.74 170.52 80.17 169.91 79.89 169.60 C 78.49 167.96 77.11 166.30 75.74 164.64 L 75.84 163.91 Z" />
</g>
<g id="#484e58ff">
<path fill="#484e58" opacity="1.00" d=" M 146.40 164.01 L 147.17 164.21 L 147.36 164.87 C 146.93 165.93 146.52 167.00 146.13 168.08 C 145.21 170.50 145.25 173.07 145.15 175.64 L 144.36 175.89 C 141.57 172.50 136.81 176.34 133.76 177.80 C 131.60 178.33 129.46 178.91 127.28 179.35 C 126.94 179.11 126.27 178.64 125.94 178.40 C 129.03 177.64 132.03 176.53 134.88 175.10 C 140.26 173.63 145.17 169.59 146.40 164.01 Z" />
</g>
<g id="#707e95fe">
<path fill="#707e95" opacity="1.00" d=" M 164.00 175.95 C 171.55 174.87 177.01 169.22 181.85 163.93 C 183.95 166.51 182.89 170.15 183.30 173.24 C 182.77 174.65 181.93 175.92 181.17 177.22 C 181.31 175.75 181.51 174.29 181.69 172.83 C 174.63 174.78 168.46 179.41 160.87 179.77 C 157.32 179.82 155.33 183.13 154.00 185.99 C 152.70 185.70 150.23 185.63 150.05 184.01 L 151.08 183.99 C 154.57 184.71 151.08 180.95 150.97 179.25 C 155.42 179.20 159.46 176.20 164.00 175.95 Z" />
</g>
<g id="#515e77ff">
<path fill="#515e77" opacity="1.00" d=" M 77.46 169.31 C 76.83 167.79 75.12 166.41 75.74 164.64 C 77.11 166.30 78.49 167.96 79.89 169.60 C 78.11 172.22 81.89 174.54 83.03 176.79 C 81.07 178.10 76.96 182.25 80.95 183.49 C 77.58 186.59 72.35 186.30 68.14 187.05 C 66.53 186.26 64.93 185.46 63.24 184.85 C 62.14 184.41 61.04 183.99 59.93 183.59 C 62.97 180.55 68.75 181.39 70.36 176.82 C 71.03 178.47 70.35 181.67 73.05 181.02 C 72.82 177.94 71.96 174.92 72.12 171.81 C 73.15 173.00 73.65 175.46 75.69 174.86 C 76.26 173.01 77.15 171.22 77.46 169.31 Z" />
</g>
<g id="#8e8985ff">
<path fill="#8e8985" opacity="1.00" d=" M 129.83 168.66 C 133.62 167.67 137.20 166.07 140.92 164.87 C 138.72 168.16 136.27 171.37 134.88 175.10 C 132.03 176.53 129.03 177.64 125.94 178.40 C 124.58 178.60 123.21 178.76 121.84 178.87 C 126.32 176.90 129.11 172.81 132.02 169.08 C 131.47 168.97 130.38 168.76 129.83 168.66 Z" />
</g>
<g id="#63728cff">
<path fill="#63728c" opacity="1.00" d=" M 147.36 164.87 C 147.97 166.63 148.51 168.42 148.88 170.25 C 147.92 169.58 147.01 168.85 146.13 168.08 C 146.52 167.00 146.93 165.93 147.36 164.87 Z" />
</g>
<g id="#7b7265ff">
<path fill="#7b7265" opacity="1.00" d=" M 80.89 166.67 C 81.46 166.43 82.59 165.96 83.16 165.73 C 88.93 167.71 94.93 168.84 101.05 169.06 L 100.97 169.96 C 100.68 170.22 100.10 170.74 99.81 171.00 C 93.36 170.60 86.88 169.08 80.89 166.67 Z" />
</g>
<g id="#455167ff">
<path fill="#455167" opacity="1.00" d=" M 70.50 167.88 C 71.45 169.00 71.90 170.37 72.12 171.81 C 71.96 174.92 72.82 177.94 73.05 181.02 C 70.35 181.67 71.03 178.47 70.36 176.82 C 70.22 175.06 69.94 171.53 69.80 169.76 C 69.98 169.29 70.32 168.35 70.50 167.88 Z" />
</g>
<g id="#968f85ff">
<path fill="#968f85" opacity="1.00" d=" M 114.94 168.89 C 116.35 167.61 118.33 167.74 120.09 167.70 C 120.58 167.89 121.55 168.27 122.03 168.47 C 119.92 169.66 117.55 169.80 114.94 168.89 Z" />
</g>
<g id="#8f8679ff">
<path fill="#8f8679" opacity="1.00" d=" M 101.05 169.06 C 102.64 169.01 104.23 168.96 105.83 168.90 C 107.70 169.00 111.43 169.21 113.30 169.31 C 109.31 170.44 105.04 169.65 100.97 169.96 L 101.05 169.06 Z" />
</g>
<g id="#a09991ff">
<path fill="#a09991" opacity="1.00" d=" M 119.87 170.58 C 123.16 169.79 126.47 169.09 129.83 168.66 C 130.38 168.76 131.47 168.97 132.02 169.08 C 129.11 172.81 126.32 176.90 121.84 178.87 C 116.83 179.32 111.82 180.25 106.77 179.88 L 107.26 179.26 C 111.31 175.93 115.72 172.74 120.95 171.70 C 120.68 171.42 120.14 170.86 119.87 170.58 Z" />
</g>
<g id="#5e6a83ff">
<path fill="#5e6a83" opacity="1.00" d=" M 59.10 179.16 C 63.95 177.90 67.01 173.61 69.80 169.76 C 69.94 171.53 70.22 175.06 70.36 176.82 C 68.75 181.39 62.97 180.55 59.93 183.59 C 61.04 183.99 62.14 184.41 63.24 184.85 C 60.29 185.11 57.51 184.08 54.76 183.16 C 55.60 181.19 56.93 179.61 59.10 179.16 Z" />
</g>
<g id="#3a465cff">
<path fill="#3a465c" opacity="1.00" d=" M 83.03 176.79 C 81.89 174.54 78.11 172.22 79.89 169.60 C 80.17 169.91 80.74 170.52 81.03 170.83 C 82.45 172.81 84.06 174.66 85.34 176.74 L 84.11 176.81 L 83.03 176.79 Z" />
</g>
<g id="#6f8094f7">
<path fill="#6f8094" opacity="0.97" d=" M 81.03 170.83 C 89.28 174.83 97.69 180.15 107.26 179.26 L 106.77 179.88 C 106.54 180.17 106.08 180.75 105.85 181.04 C 113.00 180.88 120.37 181.72 127.28 179.35 C 129.46 178.91 131.60 178.33 133.76 177.80 C 137.43 178.03 141.04 177.47 144.36 175.89 L 145.15 175.64 C 145.29 175.95 145.56 176.58 145.69 176.90 C 135.89 182.35 124.47 184.95 113.28 183.72 C 103.65 182.86 94.41 179.79 85.34 176.74 C 84.06 174.66 82.45 172.81 81.03 170.83 Z" />
</g>
<g id="#978e82ff">
<path fill="#978e82" opacity="1.00" d=" M 102.78 171.21 C 105.60 171.22 108.43 171.24 111.27 171.29 C 108.54 172.48 105.59 171.68 102.78 171.21 Z" />
</g>
<g id="#68768eff">
<path fill="#68768e" opacity="1.00" d=" M 160.87 179.77 C 168.46 179.41 174.63 174.78 181.69 172.83 C 181.51 174.29 181.31 175.75 181.17 177.22 C 179.63 180.50 182.39 188.20 176.87 186.98 C 177.44 184.49 180.51 181.25 177.82 179.10 C 173.47 179.69 169.28 181.12 164.99 181.99 C 163.49 182.61 158.33 182.54 159.06 185.70 C 161.14 186.15 163.20 186.66 165.24 187.28 C 161.53 188.52 157.68 186.75 154.00 185.99 C 155.33 183.13 157.32 179.82 160.87 179.77 Z" />
</g>
<g id="#556580ff">
<path fill="#556580" opacity="1.00" d=" M 133.76 177.80 C 136.81 176.34 141.57 172.50 144.36 175.89 C 141.04 177.47 137.43 178.03 133.76 177.80 Z" />
</g>
<g id="#5a677dff">
<path fill="#5a677d" opacity="1.00" d=" M 149.19 174.69 C 149.84 176.19 150.37 177.73 150.97 179.25 C 151.08 180.95 154.57 184.71 151.08 183.99 C 150.07 180.98 148.53 178.04 149.19 174.69 Z" />
</g>
<g id="#5b6a83fd">
<path fill="#5b6a83" opacity="1.00" d=" M 80.95 183.49 C 76.96 182.25 81.07 178.10 83.03 176.79 L 84.11 176.81 C 84.41 179.32 82.23 181.28 82.57 183.77 C 80.61 185.68 79.75 188.25 78.63 190.67 C 75.91 194.95 70.46 195.59 66.04 197.06 C 66.92 193.73 70.42 190.57 68.14 187.05 C 72.35 186.30 77.58 186.59 80.95 183.49 Z" />
</g>
<g id="#5e6971ff">
<path fill="#5e6971" opacity="1.00" d=" M 121.84 178.87 C 123.21 178.76 124.58 178.60 125.94 178.40 C 126.27 178.64 126.94 179.11 127.28 179.35 C 120.37 181.72 113.00 180.88 105.85 181.04 C 106.08 180.75 106.54 180.17 106.77 179.88 C 111.82 180.25 116.83 179.32 121.84 178.87 Z" />
</g>
<g id="#5e6b83ff">
<path fill="#5e6b83" opacity="1.00" d=" M 164.99 181.99 C 169.28 181.12 173.47 179.69 177.82 179.10 C 180.51 181.25 177.44 184.49 176.87 186.98 C 176.43 187.00 175.56 187.04 175.12 187.06 C 171.81 187.07 168.53 186.94 165.24 187.28 C 163.20 186.66 161.14 186.15 159.06 185.70 C 158.33 182.54 163.49 182.61 164.99 181.99 Z" />
</g>
<g id="#717f97fd">
<path fill="#717f97" opacity="1.00" d=" M 154.00 185.99 C 157.68 186.75 161.53 188.52 165.24 187.28 C 168.53 186.94 171.81 187.07 175.12 187.06 C 174.07 187.77 172.68 188.42 173.02 189.97 C 172.74 192.82 179.70 192.13 178.33 195.23 C 176.97 194.55 175.69 193.62 174.19 193.29 C 170.96 194.41 169.13 197.56 168.82 200.84 C 167.50 201.03 166.17 201.02 164.84 200.82 C 165.35 199.29 165.10 194.71 162.82 195.75 L 162.30 196.10 C 161.62 195.28 160.91 194.49 160.18 193.72 C 157.22 191.52 153.97 195.27 152.82 197.90 L 151.99 198.12 C 151.91 193.95 153.49 190.07 154.00 185.99 Z" />
</g>
<g id="#96aac3ff">
<path fill="#96aac3" opacity="1.00" d=" M 183.73 196.36 C 182.48 193.59 183.28 190.55 183.78 187.69 C 184.00 190.58 184.01 193.47 183.73 196.36 Z" />
</g>
<g id="#191c206a">
<path fill="#191c20" opacity="0.42" d=" M 183.78 187.69 C 186.28 188.94 184.60 193.42 184.86 195.98 L 183.73 196.36 C 184.01 193.47 184.00 190.58 183.78 187.69 Z" />
</g>
<g id="#5b626cff">
<path fill="#5b626c" opacity="1.00" d=" M 44.88 189.62 C 45.33 189.42 46.23 189.03 46.68 188.83 C 48.82 191.20 51.76 194.39 50.22 197.80 L 49.20 197.82 C 49.03 195.27 48.47 192.49 46.28 190.88 C 45.93 190.56 45.23 189.93 44.88 189.62 Z" />
</g>
<g id="#c7cad3fb">
<path fill="#c7cad3" opacity="1.00" d=" M 42.11 190.16 C 42.80 190.02 44.19 189.75 44.88 189.62 C 45.23 189.93 45.93 190.56 46.28 190.88 C 44.70 193.51 42.80 195.99 41.71 198.89 C 40.26 198.91 37.36 198.97 35.91 199.00 C 37.73 195.89 39.64 192.79 42.11 190.16 Z" />
</g>
<g id="#aab1bbfb">
<path fill="#aab1bb" opacity="1.00" d=" M 46.28 190.88 C 48.47 192.49 49.03 195.27 49.20 197.82 C 46.73 198.30 44.28 199.30 41.71 198.89 C 42.80 195.99 44.70 193.51 46.28 190.88 Z" />
</g>
<g id="#bfc5d0ff">
<path fill="#bfc5d0" opacity="1.00" d=" M 54.78 191.83 C 57.17 191.36 59.78 190.45 61.24 192.81 C 59.57 194.90 58.03 197.20 57.80 199.94 C 57.06 200.00 55.57 200.12 54.83 200.18 L 53.86 199.92 C 53.66 196.89 55.32 194.41 56.90 192.01 C 56.37 191.96 55.31 191.88 54.78 191.83 Z" />
</g>
<g id="#e8ebf3ff">
<path fill="#e8ebf3" opacity="1.00" d=" M 54.78 191.83 C 55.31 191.88 56.37 191.96 56.90 192.01 C 55.32 194.41 53.66 196.89 53.86 199.92 C 50.90 198.92 54.35 194.04 54.78 191.83 Z" />
</g>
<g id="#575f6af6">
<path fill="#575f6a" opacity="0.96" d=" M 61.92 192.59 C 64.46 191.90 64.56 196.61 65.78 198.27 C 65.78 199.18 64.88 199.37 63.07 198.84 C 63.04 196.70 62.85 194.55 61.92 192.59 Z" />
</g>
<g id="#a8b0baf8">
<path fill="#a8b0ba" opacity="0.97" d=" M 61.24 192.81 L 61.92 192.59 C 62.85 194.55 63.04 196.70 63.07 198.84 C 61.38 199.46 59.66 200.21 57.80 199.94 C 58.03 197.20 59.57 194.90 61.24 192.81 Z" />
</g>
<g id="#d8dbe1fd">
<path fill="#d8dbe1" opacity="1.00" d=" M 152.82 197.90 C 153.97 195.27 157.22 191.52 160.18 193.72 C 158.84 196.74 157.83 199.88 156.86 203.03 C 154.25 203.11 152.51 200.33 152.82 197.90 Z" />
</g>
<g id="#dae0e3fd">
<path fill="#dae0e3" opacity="1.00" d=" M 174.19 193.29 C 175.69 193.62 176.97 194.55 178.33 195.23 C 178.60 196.00 178.88 196.78 179.15 197.56 C 177.37 198.96 175.53 200.51 175.96 203.04 L 175.88 203.90 C 173.45 203.06 171.00 202.23 168.82 200.84 C 169.13 197.56 170.96 194.41 174.19 193.29 Z" />
</g>
<g id="#b6bcc6fa">
<path fill="#b6bcc6" opacity="0.98" d=" M 160.18 193.72 C 160.91 194.49 161.62 195.28 162.30 196.10 C 161.20 198.08 158.70 200.62 162.03 201.83 C 160.36 202.43 158.68 203.14 156.86 203.03 C 157.83 199.88 158.84 196.74 160.18 193.72 Z" />
</g>
<g id="#616a77ff">
<path fill="#616a77" opacity="1.00" d=" M 162.82 195.75 C 165.10 194.71 165.35 199.29 164.84 200.82 L 164.28 200.81 C 163.77 199.13 163.16 197.48 162.82 195.75 Z" />
</g>
<g id="#a4abb5fa">
<path fill="#a4abb5" opacity="0.98" d=" M 162.30 196.10 L 162.82 195.75 C 163.16 197.48 163.77 199.13 164.28 200.81 C 163.72 201.07 162.59 201.58 162.03 201.83 C 158.70 200.62 161.20 198.08 162.30 196.10 Z" />
</g>
<g id="#bfc9cbf6">
<path fill="#bfc9cb" opacity="0.96" d=" M 175.96 203.04 C 175.53 200.51 177.37 198.96 179.15 197.56 C 179.58 198.68 179.95 199.83 180.27 201.00 C 179.63 202.59 177.41 202.62 175.96 203.04 Z" />
</g>
</svg>
