<?xml version="1.0" encoding="UTF-8" ?>
<!DOCTYPE svg PUBLIC "-//W3C//DTD SVG 1.1//EN" "http://www.w3.org/Graphics/SVG/1.1/DTD/svg11.dtd">
<svg width="195pt" height="175pt" viewBox="0 0 195 175" version="1.1" xmlns="http://www.w3.org/2000/svg">
<g id="#fcebeffd">
<path fill="#fcebef" opacity="1.00" d=" M 69.24 21.23 C 79.96 11.80 95.02 9.10 108.85 10.22 C 116.27 13.50 125.01 14.81 131.17 20.45 C 122.57 21.98 113.96 18.89 105.37 20.42 C 95.50 22.35 85.16 24.55 77.47 31.50 C 77.10 31.12 76.36 30.34 75.99 29.95 C 71.99 29.97 71.63 34.92 70.66 37.84 C 64.64 39.14 60.69 44.78 55.00 47.01 C 51.97 45.24 48.64 42.88 50.22 38.86 C 53.03 37.32 50.99 36.77 48.76 36.39 C 58.04 35.55 62.80 26.86 69.24 21.23 Z" />
</g>
<g id="#fed6dfff">
<path fill="#fed6df" opacity="1.00" d=" M 105.37 20.42 C 113.96 18.89 122.57 21.98 131.17 20.45 C 133.13 20.92 134.70 22.97 136.31 24.24 C 127.06 23.24 122.75 32.09 115.18 35.27 C 109.79 39.18 103.22 40.82 97.08 43.16 C 95.42 44.08 93.83 42.71 92.23 42.33 C 86.73 44.72 80.70 45.65 74.84 44.02 C 76.86 47.59 81.30 46.88 84.82 46.84 C 88.60 46.51 86.02 48.38 83.96 48.56 C 82.62 48.77 81.28 49.01 79.95 49.28 C 72.11 52.82 63.57 55.30 54.98 56.01 C 51.69 56.35 50.89 52.35 50.19 49.91 C 50.09 49.53 49.89 48.77 49.79 48.39 C 49.49 47.12 48.10 46.61 47.34 45.64 C 47.20 44.01 47.39 42.34 46.95 40.74 C 48.03 40.09 49.12 39.47 50.22 38.86 C 48.64 42.88 51.97 45.24 55.00 47.01 C 60.69 44.78 64.64 39.14 70.66 37.84 C 71.79 41.61 74.83 38.56 75.23 36.13 C 76.00 34.16 76.01 32.03 75.99 29.95 C 76.36 30.34 77.10 31.12 77.47 31.50 C 85.16 24.55 95.50 22.35 105.37 20.42 M 96.17 28.08 C 94.15 30.60 92.04 35.49 95.22 37.87 C 100.21 38.46 101.94 26.74 96.17 28.08 Z" />
</g>
<g id="#fec9d1ff">
<path fill="#fec9d1" opacity="1.00" d=" M 136.31 24.24 C 137.66 24.17 138.22 26.07 139.09 26.90 C 135.31 26.72 131.06 26.42 128.07 29.18 C 127.67 31.69 130.21 35.08 126.02 36.03 C 121.57 39.24 119.05 44.32 114.73 47.69 C 102.01 56.90 86.39 62.37 70.64 62.35 C 62.59 61.45 53.97 63.47 47.47 68.31 C 46.59 71.04 44.58 73.36 44.15 76.22 C 44.11 76.94 44.03 78.38 43.99 79.10 C 46.65 77.22 48.51 73.59 52.20 73.97 C 51.35 78.06 46.21 78.88 43.60 81.55 C 38.67 84.53 42.05 91.58 41.91 96.04 C 45.69 112.62 52.08 128.51 56.01 145.04 C 53.17 143.57 48.02 141.97 47.99 138.09 C 48.05 127.35 43.21 117.41 40.78 107.13 C 38.91 99.31 40.04 91.03 37.62 83.34 C 36.90 82.43 36.09 81.60 35.30 80.77 C 35.01 78.64 35.60 75.60 36.98 74.00 C 43.04 69.39 45.35 61.07 47.18 53.98 C 47.89 52.66 48.61 51.35 49.25 50.00 L 50.19 49.91 C 50.89 52.35 51.69 56.35 54.98 56.01 C 63.57 55.30 72.11 52.82 79.95 49.28 C 79.05 52.60 87.06 50.97 83.96 48.56 C 86.02 48.38 88.60 46.51 84.82 46.84 C 87.33 45.50 90.80 45.04 92.23 42.33 C 93.83 42.71 95.42 44.08 97.08 43.16 C 103.22 40.82 109.79 39.18 115.18 35.27 C 122.75 32.09 127.06 23.24 136.31 24.24 Z" />
</g>
<g id="#ffbec7ff">
<path fill="#ffbec7" opacity="1.00" d=" M 128.07 29.18 C 131.06 26.42 135.31 26.72 139.09 26.90 C 140.81 26.55 141.77 28.03 142.31 29.42 C 138.24 30.77 134.05 29.00 130.01 30.03 C 130.96 31.40 132.13 32.61 133.03 34.01 C 132.37 38.42 126.35 37.09 125.02 40.99 C 123.81 44.76 121.51 47.96 119.17 51.11 C 117.12 54.05 116.58 58.82 112.39 59.51 C 101.70 62.69 92.01 68.78 81.01 70.83 C 76.13 70.34 71.15 70.46 66.34 69.55 C 62.54 68.66 57.40 66.31 54.29 69.14 C 54.82 73.48 54.80 78.62 58.09 81.97 C 58.42 82.39 59.09 83.22 59.43 83.64 C 59.00 85.44 59.31 87.63 57.77 88.96 C 51.81 91.60 48.74 83.74 43.16 85.10 C 41.33 88.52 43.49 92.34 44.32 95.80 C 47.48 102.59 48.45 110.06 50.83 117.11 C 52.02 120.54 51.71 124.88 54.96 127.17 C 56.32 130.14 57.08 133.36 58.70 136.22 C 58.99 136.73 59.57 137.75 59.86 138.26 C 60.71 139.67 61.57 141.15 62.91 142.18 C 64.17 143.21 65.54 144.11 66.87 145.05 C 67.53 147.79 68.48 150.45 71.00 152.00 C 70.45 152.07 69.35 152.20 68.79 152.26 C 68.35 152.08 67.45 151.73 67.00 151.56 C 63.65 150.11 60.45 148.34 57.20 146.68 C 56.90 146.27 56.31 145.45 56.01 145.04 C 52.08 128.51 45.69 112.62 41.91 96.04 C 42.05 91.58 38.67 84.53 43.60 81.55 C 46.21 78.88 51.35 78.06 52.20 73.97 C 52.65 72.68 52.96 71.33 53.07 69.96 C 48.83 70.00 46.63 73.35 44.15 76.22 C 44.58 73.36 46.59 71.04 47.47 68.31 C 53.97 63.47 62.59 61.45 70.64 62.35 C 86.39 62.37 102.01 56.90 114.73 47.69 C 119.05 44.32 121.57 39.24 126.02 36.03 C 130.21 35.08 127.67 31.69 128.07 29.18 Z" />
</g>
<g id="#5d5f76ff">
<path fill="#5d5f76" opacity="1.00" d=" M 96.17 28.08 C 101.94 26.74 100.21 38.46 95.22 37.87 C 92.04 35.49 94.15 30.60 96.17 28.08 Z" />
</g>
<g id="#feb5bdfe">
<path fill="#feb5bd" opacity="1.00" d=" M 130.01 30.03 C 134.05 29.00 138.24 30.77 142.31 29.42 C 148.32 29.79 154.29 30.65 160.27 31.33 C 152.12 34.73 143.32 30.71 134.85 32.05 C 135.53 32.84 136.25 33.60 137.00 34.33 C 134.37 36.49 132.49 40.09 128.36 39.45 C 125.12 40.84 126.11 45.09 124.81 47.88 C 123.04 51.67 120.44 55.22 120.57 59.65 C 116.06 65.84 106.60 63.10 101.33 68.39 C 94.13 74.89 84.34 76.57 75.01 76.98 C 69.64 76.00 64.66 73.65 59.92 71.04 C 56.74 69.83 55.43 73.81 56.57 76.18 C 57.11 78.10 57.69 80.01 58.09 81.97 C 54.80 78.62 54.82 73.48 54.29 69.14 C 57.40 66.31 62.54 68.66 66.34 69.55 C 71.15 70.46 76.13 70.34 81.01 70.83 C 92.01 68.78 101.70 62.69 112.39 59.51 C 116.58 58.82 117.12 54.05 119.17 51.11 C 121.51 47.96 123.81 44.76 125.02 40.99 C 126.35 37.09 132.37 38.42 133.03 34.01 C 132.13 32.61 130.96 31.40 130.01 30.03 Z" />
</g>
<g id="#5e6278ff">
<path fill="#5e6278" opacity="1.00" d=" M 70.66 37.84 C 71.63 34.92 71.99 29.97 75.99 29.95 C 76.01 32.03 76.00 34.16 75.23 36.13 C 74.83 38.56 71.79 41.61 70.66 37.84 Z" />
</g>
<g id="#f5999dfb">
<path fill="#f5999d" opacity="1.00" d=" M 160.27 31.33 C 167.81 31.44 175.96 30.69 183.19 33.29 C 170.06 37.06 156.05 36.94 142.66 34.44 C 141.64 34.24 140.64 34.34 139.67 34.75 C 138.78 34.62 137.89 34.48 137.00 34.33 C 136.25 33.60 135.53 32.84 134.85 32.05 C 143.32 30.71 152.12 34.73 160.27 31.33 Z" />
</g>
<g id="#d87f85fd">
<path fill="#d87f85" opacity="1.00" d=" M 183.19 33.29 L 184.03 33.12 L 184.00 38.04 L 183.13 37.83 C 176.03 36.13 168.51 39.53 161.33 37.56 C 159.42 36.90 157.44 37.09 155.71 38.13 C 152.40 37.93 149.08 35.85 145.74 36.66 C 144.86 36.60 143.99 36.52 143.12 36.43 C 141.96 35.89 140.81 35.33 139.67 34.75 C 140.64 34.34 141.64 34.24 142.66 34.44 C 156.05 36.94 170.06 37.06 183.19 33.29 Z" />
</g>
<g id="#feaeb7ff">
<path fill="#feaeb7" opacity="1.00" d=" M 137.00 34.33 C 137.89 34.48 138.78 34.62 139.67 34.75 C 140.81 35.33 141.96 35.89 143.12 36.43 C 140.43 36.67 137.77 36.83 135.10 37.14 C 135.33 38.40 135.68 39.62 135.92 40.88 C 133.32 40.86 130.73 40.95 128.15 41.15 C 125.44 49.11 126.92 57.47 126.80 65.61 C 123.73 65.86 122.79 68.02 123.19 70.75 C 118.48 73.56 114.32 78.12 111.99 83.05 C 107.41 84.89 103.80 88.74 98.96 89.95 C 102.94 85.25 108.43 82.07 111.99 76.99 C 114.21 73.06 118.54 71.52 121.90 68.85 C 121.90 67.03 119.55 67.11 118.24 66.98 C 115.03 65.78 111.92 67.47 109.15 68.96 C 104.09 68.25 100.87 72.53 98.12 76.09 C 93.98 79.14 88.50 78.71 83.60 79.44 C 77.80 80.62 71.99 79.75 66.20 79.33 C 63.51 77.20 61.04 74.79 58.11 72.99 L 57.73 73.73 C 57.44 74.34 56.86 75.57 56.57 76.18 C 55.43 73.81 56.74 69.83 59.92 71.04 C 64.66 73.65 69.64 76.00 75.01 76.98 C 84.34 76.57 94.13 74.89 101.33 68.39 C 106.60 63.10 116.06 65.84 120.57 59.65 C 120.44 55.22 123.04 51.67 124.81 47.88 C 126.11 45.09 125.12 40.84 128.36 39.45 C 132.49 40.09 134.37 36.49 137.00 34.33 Z" />
</g>
<g id="#edb3b8f6">
<path fill="#edb3b8" opacity="0.96" d=" M 31.72 38.39 C 37.35 37.45 43.18 37.11 48.76 36.39 C 50.99 36.77 53.03 37.32 50.22 38.86 C 44.11 36.30 37.78 40.35 31.72 38.39 Z" />
</g>
<g id="#fda4adff">
<path fill="#fda4ad" opacity="1.00" d=" M 143.12 36.43 C 143.99 36.52 144.86 36.60 145.74 36.66 C 149.82 38.37 153.96 39.97 158.14 41.46 C 155.14 42.04 152.10 41.05 149.08 41.72 C 144.96 40.84 141.16 38.57 136.77 39.08 C 137.63 40.09 138.54 41.07 139.59 41.89 C 141.25 43.23 142.96 44.51 144.74 45.68 C 146.70 47.13 148.71 48.52 150.80 49.78 C 150.83 50.33 150.88 51.42 150.91 51.96 C 148.02 51.38 145.13 51.01 142.22 51.73 C 138.95 47.73 134.89 42.57 129.10 42.85 L 129.08 43.72 C 128.52 51.89 131.13 59.73 133.55 67.40 C 135.37 70.12 133.92 74.30 130.92 74.98 C 127.36 75.87 126.96 70.08 123.19 70.75 C 122.79 68.02 123.73 65.86 126.80 65.61 C 126.92 57.47 125.44 49.11 128.15 41.15 C 130.73 40.95 133.32 40.86 135.92 40.88 C 135.68 39.62 135.33 38.40 135.10 37.14 C 137.77 36.83 140.43 36.67 143.12 36.43 Z" />
</g>
<g id="#ba6166fc">
<path fill="#ba6166" opacity="1.00" d=" M 145.74 36.66 C 149.08 35.85 152.40 37.93 155.71 38.13 C 163.16 39.24 170.71 39.56 178.14 40.85 C 176.90 44.51 166.25 40.34 168.96 44.91 C 165.41 43.60 161.88 42.16 158.14 41.46 C 153.96 39.97 149.82 38.37 145.74 36.66 Z" />
</g>
<g id="#c16c72fc">
<path fill="#c16c72" opacity="1.00" d=" M 155.71 38.13 C 157.44 37.09 159.42 36.90 161.33 37.56 C 168.51 39.53 176.03 36.13 183.13 37.83 C 182.56 39.75 180.04 40.96 178.14 40.85 C 170.71 39.56 163.16 39.24 155.71 38.13 Z" />
</g>
<g id="#f7979bfc">
<path fill="#f7979b" opacity="1.00" d=" M 27.30 38.75 C 26.49 37.09 30.59 38.25 31.72 38.39 C 37.78 40.35 44.11 36.30 50.22 38.86 C 49.12 39.47 48.03 40.09 46.95 40.74 C 46.53 40.85 45.68 41.06 45.26 41.17 C 41.23 40.84 37.44 42.43 33.58 43.33 C 27.76 44.05 21.98 45.05 16.24 46.26 C 15.60 47.05 15.07 47.92 14.67 48.86 C 13.27 48.82 11.19 48.32 10.69 46.86 C 13.27 40.08 22.00 40.41 27.91 39.93 C 27.75 39.64 27.45 39.05 27.30 38.75 Z" />
</g>
<g id="#f0b8b6f7">
<path fill="#f0b8b6" opacity="0.97" d=" M 8.96 39.95 C 14.71 37.96 21.26 39.48 27.30 38.75 C 27.45 39.05 27.75 39.64 27.91 39.93 C 22.00 40.41 13.27 40.08 10.69 46.86 C 7.59 46.47 5.13 41.09 8.96 39.95 Z" />
</g>
<g id="#fa9598fe">
<path fill="#fa9598" opacity="1.00" d=" M 136.77 39.08 C 141.16 38.57 144.96 40.84 149.08 41.72 C 152.10 41.05 155.14 42.04 158.14 41.46 C 161.88 42.16 165.41 43.60 168.96 44.91 C 172.36 45.71 176.52 46.71 179.02 48.91 C 176.69 49.22 174.38 49.61 172.09 50.10 C 165.56 51.31 160.55 45.32 154.21 46.35 C 148.87 46.69 144.71 39.97 139.59 41.89 C 138.54 41.07 137.63 40.09 136.77 39.08 Z" />
</g>
<g id="#d17479fd">
<path fill="#d17479" opacity="1.00" d=" M 33.58 43.33 C 37.44 42.43 41.23 40.84 45.26 41.17 C 42.73 42.61 40.11 43.92 37.33 44.82 C 34.28 43.63 31.34 46.40 28.20 46.36 C 24.47 46.33 21.33 48.45 18.20 50.18 C 16.39 50.53 15.21 50.09 14.67 48.86 C 15.07 47.92 15.60 47.05 16.24 46.26 C 21.98 45.05 27.76 44.05 33.58 43.33 Z" />
</g>
<g id="#fcb5b8ff">
<path fill="#fcb5b8" opacity="1.00" d=" M 45.26 41.17 C 45.68 41.06 46.53 40.85 46.95 40.74 C 47.39 42.34 47.20 44.01 47.34 45.64 C 48.10 46.61 49.49 47.12 49.79 48.39 C 47.45 48.55 45.18 47.79 42.91 47.38 C 44.51 45.76 48.94 42.26 40.44 45.52 C 36.97 46.75 33.57 48.16 29.97 48.96 L 29.97 47.92 C 32.39 46.82 34.87 45.84 37.33 44.82 C 40.11 43.92 42.73 42.61 45.26 41.17 Z" />
</g>
<g id="#f6868bff">
<path fill="#f6868b" opacity="1.00" d=" M 139.59 41.89 C 144.71 39.97 148.87 46.69 154.21 46.35 C 160.55 45.32 165.56 51.31 172.09 50.10 C 170.52 50.41 167.36 51.05 165.78 51.37 C 162.41 50.88 159.40 49.09 156.01 48.71 C 152.26 47.92 148.67 44.65 144.74 45.68 C 142.96 44.51 141.25 43.23 139.59 41.89 Z" />
</g>
<g id="#883a49ff">
<path fill="#883a49" opacity="1.00" d=" M 74.84 44.02 C 80.70 45.65 86.73 44.72 92.23 42.33 C 90.80 45.04 87.33 45.50 84.82 46.84 C 81.30 46.88 76.86 47.59 74.84 44.02 Z" />
</g>
<g id="#fa9497ff">
<path fill="#fa9497" opacity="1.00" d=" M 129.10 42.85 C 134.89 42.57 138.95 47.73 142.22 51.73 C 145.13 51.01 148.02 51.38 150.91 51.96 C 150.88 51.42 150.83 50.33 150.80 49.78 C 154.78 52.12 158.86 54.30 162.76 56.78 L 163.24 57.84 C 162.38 60.62 160.81 64.95 157.09 63.95 C 149.42 60.71 142.65 55.59 136.98 49.53 C 135.88 48.39 134.61 47.43 133.27 46.59 C 132.19 45.70 131.10 44.81 129.85 44.16 L 129.08 43.72 L 129.10 42.85 Z" />
</g>
<g id="#b56063f7">
<path fill="#b56063" opacity="0.97" d=" M 28.20 46.36 C 31.34 46.40 34.28 43.63 37.33 44.82 C 34.87 45.84 32.39 46.82 29.97 47.92 C 26.92 48.90 24.06 50.35 21.08 51.52 C 20.27 51.00 17.48 51.66 18.20 50.18 C 21.33 48.45 24.47 46.33 28.20 46.36 Z" />
</g>
<g id="#f39ca8ff">
<path fill="#f39ca8" opacity="1.00" d=" M 129.08 43.72 L 129.85 44.16 C 130.56 51.34 132.59 58.55 136.09 64.87 C 136.62 70.08 140.01 76.54 136.26 81.25 C 135.01 83.76 132.39 84.82 130.12 86.17 C 128.73 83.60 127.94 80.77 127.15 77.97 C 126.75 76.96 126.34 75.94 125.91 74.94 C 125.27 73.82 125.14 71.23 123.26 72.29 C 118.42 74.49 116.95 80.75 111.99 83.05 C 114.32 78.12 118.48 73.56 123.19 70.75 C 126.96 70.08 127.36 75.87 130.92 74.98 C 133.92 74.30 135.37 70.12 133.55 67.40 C 131.13 59.73 128.52 51.89 129.08 43.72 Z" />
</g>
<g id="#ee919bff">
<path fill="#ee919b" opacity="1.00" d=" M 129.85 44.16 C 131.10 44.81 132.19 45.70 133.27 46.59 C 132.62 54.16 136.70 61.24 140.16 67.76 L 139.05 68.09 C 138.07 67.01 137.10 65.92 136.09 64.87 C 132.59 58.55 130.56 51.34 129.85 44.16 Z" />
</g>
<g id="#fe999fff">
<path fill="#fe999f" opacity="1.00" d=" M 40.44 45.52 C 48.94 42.26 44.51 45.76 42.91 47.38 C 42.47 47.53 41.57 47.84 41.13 48.00 C 36.04 48.37 31.93 54.27 26.77 50.72 C 27.82 50.11 28.89 49.53 29.97 48.96 C 33.57 48.16 36.97 46.75 40.44 45.52 Z" />
</g>
<g id="#da7278ff">
<path fill="#da7278" opacity="1.00" d=" M 144.74 45.68 C 148.67 44.65 152.26 47.92 156.01 48.71 C 154.24 48.91 152.47 49.16 150.80 49.78 C 148.71 48.52 146.70 47.13 144.74 45.68 Z" />
</g>
<g id="#fba8a9fd">
<path fill="#fba8a9" opacity="1.00" d=" M 41.13 48.00 C 41.57 47.84 42.47 47.53 42.91 47.38 C 45.18 47.79 47.45 48.55 49.79 48.39 C 49.89 48.77 50.09 49.53 50.19 49.91 L 49.25 50.00 C 43.76 48.38 40.30 52.48 36.59 55.48 C 30.27 55.87 25.81 60.45 21.57 64.57 C 18.81 67.20 15.47 69.43 13.87 73.02 L 12.96 73.15 C 8.31 73.23 9.55 66.70 13.14 65.76 C 18.97 61.75 25.44 58.77 31.30 54.79 C 34.91 53.07 37.92 50.35 41.13 48.00 Z" />
</g>
<g id="#e38791ff">
<path fill="#e38791" opacity="1.00" d=" M 133.27 46.59 C 134.61 47.43 135.88 48.39 136.98 49.53 C 135.68 51.13 135.81 53.34 136.99 55.01 C 138.50 59.20 140.52 63.16 143.10 66.79 C 143.00 68.30 142.88 69.80 142.75 71.31 L 142.08 70.82 C 141.44 69.80 140.81 68.78 140.16 67.76 C 136.70 61.24 132.62 54.16 133.27 46.59 Z" />
</g>
<g id="#f4a5a5fc">
<path fill="#f4a5a5" opacity="1.00" d=" M 21.08 51.52 C 24.06 50.35 26.92 48.90 29.97 47.92 L 29.97 48.96 C 28.89 49.53 27.82 50.11 26.77 50.72 C 22.47 54.13 16.01 55.57 13.67 60.84 C 12.79 61.91 11.95 63.01 11.10 64.10 C 9.29 64.53 8.21 64.16 7.88 62.99 C 7.15 59.36 10.22 57.55 12.36 55.29 C 14.74 53.22 18.21 52.77 21.08 51.52 Z" />
</g>
<g id="#f98c8fff">
<path fill="#f98c8f" opacity="1.00" d=" M 26.77 50.72 C 31.93 54.27 36.04 48.37 41.13 48.00 C 37.92 50.35 34.91 53.07 31.30 54.79 C 25.06 54.01 20.16 61.22 13.67 60.84 C 16.01 55.57 22.47 54.13 26.77 50.72 Z" />
</g>
<g id="#f19ba4ff">
<path fill="#f19ba4" opacity="1.00" d=" M 79.95 49.28 C 81.28 49.01 82.62 48.77 83.96 48.56 C 87.06 50.97 79.05 52.60 79.95 49.28 Z" />
</g>
<g id="#bd626afa">
<path fill="#bd626a" opacity="0.98" d=" M 150.80 49.78 C 152.47 49.16 154.24 48.91 156.01 48.71 C 161.65 54.76 170.82 52.83 178.14 54.83 C 174.80 58.84 167.52 55.41 162.76 56.78 C 158.86 54.30 154.78 52.12 150.80 49.78 Z" />
</g>
<g id="#ce767cfe">
<path fill="#ce767c" opacity="1.00" d=" M 156.01 48.71 C 159.40 49.09 162.41 50.88 165.78 51.37 C 170.98 52.68 176.32 51.75 181.37 50.32 C 183.51 50.48 180.57 56.03 178.14 54.83 C 170.82 52.83 161.65 54.76 156.01 48.71 Z" />
</g>
<g id="#dd878dff">
<path fill="#dd878d" opacity="1.00" d=" M 172.09 50.10 C 174.38 49.61 176.69 49.22 179.02 48.91 C 179.61 49.26 180.78 49.97 181.37 50.32 C 176.32 51.75 170.98 52.68 165.78 51.37 C 167.36 51.05 170.52 50.41 172.09 50.10 Z" />
</g>
<g id="#f99094ff">
<path fill="#f99094" opacity="1.00" d=" M 36.59 55.48 C 40.30 52.48 43.76 48.38 49.25 50.00 C 48.61 51.35 47.89 52.66 47.18 53.98 L 46.38 54.22 C 40.78 50.37 37.41 58.72 32.91 60.88 C 26.27 64.43 21.19 71.03 13.87 73.02 C 15.47 69.43 18.81 67.20 21.57 64.57 C 25.81 60.45 30.27 55.87 36.59 55.48 Z" />
</g>
<g id="#d97c82fd">
<path fill="#d97c82" opacity="1.00" d=" M 136.99 55.01 C 135.81 53.34 135.68 51.13 136.98 49.53 C 142.65 55.59 149.42 60.71 157.09 63.95 C 160.81 64.95 162.38 60.62 163.24 57.84 C 165.32 59.67 167.72 61.41 168.37 64.29 C 158.52 68.42 147.89 63.05 140.94 55.93 C 141.65 59.03 142.97 61.93 144.17 64.85 C 144.08 65.46 143.88 66.66 143.79 67.27 L 143.10 66.79 C 140.52 63.16 138.50 59.20 136.99 55.01 Z" />
</g>
<g id="#c66a70fc">
<path fill="#c66a70" opacity="1.00" d=" M 32.91 60.88 C 37.41 58.72 40.78 50.37 46.38 54.22 C 46.11 54.62 45.56 55.44 45.29 55.85 C 43.87 54.72 42.56 54.86 41.37 56.26 C 35.92 61.91 29.02 65.81 23.23 71.08 C 23.39 71.55 23.72 72.49 23.88 72.97 C 20.42 74.17 16.66 74.04 13.04 74.01 L 12.96 73.15 L 13.87 73.02 C 21.19 71.03 26.27 64.43 32.91 60.88 Z" />
</g>
<g id="#d0757afb">
<path fill="#d0757a" opacity="1.00" d=" M 13.67 60.84 C 20.16 61.22 25.06 54.01 31.30 54.79 C 25.44 58.77 18.97 61.75 13.14 65.76 C 11.97 65.54 11.29 64.99 11.10 64.10 C 11.95 63.01 12.79 61.91 13.67 60.84 Z" />
</g>
<g id="#fab2b3fc">
<path fill="#fab2b3" opacity="1.00" d=" M 46.38 54.22 L 47.18 53.98 C 45.35 61.07 43.04 69.39 36.98 74.00 C 37.39 71.16 37.11 67.37 39.33 65.36 C 41.66 64.04 42.34 61.25 42.97 58.85 C 43.75 57.86 44.56 56.88 45.29 55.85 C 45.56 55.44 46.11 54.62 46.38 54.22 Z" />
</g>
<g id="#e1bab8ee">
<path fill="#e1bab8" opacity="0.93" d=" M 4.13 59.19 C 6.31 57.13 9.28 55.17 12.36 55.29 C 10.22 57.55 7.15 59.36 7.88 62.99 C 5.98 63.15 3.67 61.18 4.13 59.19 Z" />
</g>
<g id="#a74c54f9">
<path fill="#a74c54" opacity="0.98" d=" M 41.37 56.26 C 42.56 54.86 43.87 54.72 45.29 55.85 C 44.56 56.88 43.75 57.86 42.97 58.85 C 41.11 60.15 39.77 61.92 39.46 64.21 C 37.50 62.10 35.42 66.88 33.73 67.72 C 30.82 69.98 27.53 72.34 23.88 72.97 C 23.72 72.49 23.39 71.55 23.23 71.08 C 29.02 65.81 35.92 61.91 41.37 56.26 Z" />
</g>
<g id="#c97178fe">
<path fill="#c97178" opacity="1.00" d=" M 140.94 55.93 C 147.89 63.05 158.52 68.42 168.37 64.29 C 170.17 63.92 168.30 67.70 167.70 68.75 C 167.21 69.04 166.23 69.62 165.74 69.91 C 165.31 69.93 164.44 69.97 164.01 69.98 L 162.98 69.96 C 162.26 69.88 160.83 69.71 160.11 69.63 C 156.20 68.99 152.19 69.40 148.30 68.70 C 146.85 67.50 145.54 66.14 144.17 64.85 C 142.97 61.93 141.65 59.03 140.94 55.93 Z" />
</g>
<g id="#f29090fa">
<path fill="#f29090" opacity="0.98" d=" M 39.46 64.21 C 39.77 61.92 41.11 60.15 42.97 58.85 C 42.34 61.25 41.66 64.04 39.33 65.36 L 39.46 64.21 Z" />
</g>
<g id="#ea99a5ff">
<path fill="#ea99a5" opacity="1.00" d=" M 136.09 64.87 C 137.10 65.92 138.07 67.01 139.05 68.09 C 139.55 72.61 140.79 77.04 140.56 81.62 C 139.37 86.33 137.21 90.71 135.03 95.02 C 132.78 100.49 127.10 103.06 123.24 107.20 C 122.14 108.48 120.72 109.14 119.00 109.19 C 118.60 107.62 118.19 106.00 118.28 104.36 C 122.07 101.66 123.17 96.68 126.91 93.89 C 129.08 91.90 129.58 88.92 130.12 86.17 C 132.39 84.82 135.01 83.76 136.26 81.25 C 140.01 76.54 136.62 70.08 136.09 64.87 Z" />
</g>
<g id="#cb7e89ff">
<path fill="#cb7e89" opacity="1.00" d=" M 144.17 64.85 C 145.54 66.14 146.85 67.50 148.30 68.70 C 152.19 69.40 156.20 68.99 160.11 69.63 C 158.87 73.01 156.02 75.29 152.98 77.07 C 149.43 74.35 146.12 71.11 143.79 67.27 C 143.88 66.66 144.08 65.46 144.17 64.85 Z" />
</g>
<g id="#ffe3e0ff">
<path fill="#ffe3e0" opacity="1.00" d=" M 109.15 68.96 C 111.92 67.47 115.03 65.78 118.24 66.98 C 114.97 69.84 110.61 71.40 107.93 74.92 C 107.42 74.91 106.41 74.91 105.90 74.90 C 107.44 73.20 108.50 71.15 109.15 68.96 Z" />
</g>
<g id="#fec0c8ff">
<path fill="#fec0c8" opacity="1.00" d=" M 118.24 66.98 C 119.55 67.11 121.90 67.03 121.90 68.85 C 118.54 71.52 114.21 73.06 111.99 76.99 C 108.43 82.07 102.94 85.25 98.96 89.95 C 97.12 91.22 95.83 93.04 94.88 95.04 C 94.17 95.04 92.76 95.03 92.05 95.02 L 91.69 94.18 C 97.19 87.83 102.58 81.38 107.93 74.92 C 110.61 71.40 114.97 69.84 118.24 66.98 Z" />
</g>
<g id="#cf8692ff">
<path fill="#cf8692" opacity="1.00" d=" M 143.10 66.79 L 143.79 67.27 C 146.12 71.11 149.43 74.35 152.98 77.07 C 156.02 75.29 158.87 73.01 160.11 69.63 C 160.83 69.71 162.26 69.88 162.98 69.96 C 163.19 73.59 164.07 77.18 163.94 80.82 C 161.54 82.85 157.95 82.70 155.06 82.98 C 149.95 81.86 149.34 75.30 144.90 73.01 C 144.18 72.45 143.46 71.88 142.75 71.31 C 142.88 69.80 143.00 68.30 143.10 66.79 Z" />
</g>
<g id="#e097a4ff">
<path fill="#e097a4" opacity="1.00" d=" M 139.05 68.09 L 140.16 67.76 C 140.81 68.78 141.44 69.80 142.08 70.82 C 142.58 75.29 143.27 79.72 144.69 84.00 C 143.07 91.57 141.40 99.92 135.12 105.11 C 130.95 109.10 126.91 114.32 120.90 115.34 C 119.77 113.44 118.91 111.40 117.91 109.44 C 118.19 109.38 118.73 109.25 119.00 109.19 C 120.72 109.14 122.14 108.48 123.24 107.20 C 127.10 103.06 132.78 100.49 135.03 95.02 C 137.21 90.71 139.37 86.33 140.56 81.62 C 140.79 77.04 139.55 72.61 139.05 68.09 Z" />
</g>
<g id="#ffa9b0ff">
<path fill="#ffa9b0" opacity="1.00" d=" M 98.12 76.09 C 100.87 72.53 104.09 68.25 109.15 68.96 C 108.50 71.15 107.44 73.20 105.90 74.90 C 102.92 77.55 100.18 80.45 97.19 83.09 C 94.67 81.13 91.91 83.22 89.23 83.44 C 81.18 83.08 73.08 83.64 65.14 84.95 C 61.86 82.21 60.34 77.30 57.73 73.73 L 58.11 72.99 C 61.04 74.79 63.51 77.20 66.20 79.33 C 71.99 79.75 77.80 80.62 83.60 79.44 C 88.50 78.71 93.98 79.14 98.12 76.09 Z" />
</g>
<g id="#da9bb4fb">
<path fill="#da9bb4" opacity="1.00" d=" M 165.74 69.91 C 166.23 69.62 167.21 69.04 167.70 68.75 C 168.81 70.48 169.88 72.64 169.58 74.72 C 168.23 80.09 171.17 85.49 171.24 90.89 C 172.89 98.05 170.84 105.29 169.21 112.24 C 169.19 109.25 168.95 106.27 169.31 103.30 C 171.07 92.05 167.96 80.87 165.74 69.91 Z" />
</g>
<g id="#ffdcdbff">
<path fill="#ffdcdb" opacity="1.00" d=" M 44.15 76.22 C 46.63 73.35 48.83 70.00 53.07 69.96 C 52.96 71.33 52.65 72.68 52.20 73.97 C 48.51 73.59 46.65 77.22 43.99 79.10 C 44.03 78.38 44.11 76.94 44.15 76.22 Z" />
</g>
<g id="#ce8c99ff">
<path fill="#ce8c99" opacity="1.00" d=" M 162.98 69.96 L 164.01 69.98 C 167.61 83.83 169.36 98.70 166.83 112.90 C 163.43 122.79 160.36 133.04 153.35 141.11 C 152.86 137.96 155.95 135.72 157.09 133.07 C 159.15 130.45 159.95 127.21 161.07 124.15 C 164.28 117.92 165.44 110.90 165.98 103.99 C 165.89 104.55 166.99 96.18 164.34 97.37 C 160.55 103.94 157.04 110.69 153.21 117.24 C 149.28 121.27 143.83 123.76 140.45 128.39 C 137.39 133.70 130.25 134.16 125.88 137.86 C 121.60 145.19 111.64 145.95 106.89 152.89 C 108.89 153.85 110.99 154.51 113.21 154.89 C 108.96 154.98 104.37 155.67 100.43 153.61 C 98.86 150.16 96.40 147.14 92.66 145.97 C 96.82 143.12 101.08 140.25 103.92 135.99 C 109.11 132.97 113.33 128.59 117.99 124.85 C 117.83 129.91 122.80 132.88 127.60 131.63 C 139.65 123.74 151.90 114.11 156.77 100.02 C 154.77 91.41 150.70 83.32 146.04 75.85 C 145.65 74.91 145.27 73.96 144.90 73.01 C 149.34 75.30 149.95 81.86 155.06 82.98 C 157.95 82.70 161.54 82.85 163.94 80.82 C 164.07 77.18 163.19 73.59 162.98 69.96 Z" />
</g>
<g id="#d491abfe">
<path fill="#d491ab" opacity="1.00" d=" M 164.01 69.98 C 164.44 69.97 165.31 69.93 165.74 69.91 C 167.96 80.87 171.07 92.05 169.31 103.30 C 168.95 106.27 169.19 109.25 169.21 112.24 C 166.61 119.93 165.31 128.04 160.91 135.02 C 159.03 137.84 156.48 140.44 153.65 142.37 C 153.57 142.05 153.42 141.42 153.35 141.11 C 160.36 133.04 163.43 122.79 166.83 112.90 C 169.36 98.70 167.61 83.83 164.01 69.98 Z" />
</g>
<g id="#d894a1ff">
<path fill="#d894a1" opacity="1.00" d=" M 142.08 70.82 L 142.75 71.31 C 143.46 71.88 144.18 72.45 144.90 73.01 C 145.27 73.96 145.65 74.91 146.04 75.85 C 146.03 78.45 146.83 80.93 147.47 83.42 C 149.53 89.88 143.33 95.60 145.85 101.95 C 143.75 107.43 139.43 111.62 134.40 114.49 C 129.53 117.52 125.05 125.14 118.48 119.94 C 119.01 118.27 119.80 116.71 120.90 115.34 C 126.91 114.32 130.95 109.10 135.12 105.11 C 141.40 99.92 143.07 91.57 144.69 84.00 C 143.27 79.72 142.58 75.29 142.08 70.82 Z" />
</g>
<g id="#dd929eff">
<path fill="#dd929e" opacity="1.00" d=" M 123.26 72.29 C 125.14 71.23 125.27 73.82 125.91 74.94 C 123.59 74.93 120.92 75.44 119.80 77.82 C 116.00 83.36 109.94 86.54 105.23 91.17 C 105.43 91.49 105.82 92.13 106.02 92.45 C 104.07 93.24 102.03 93.77 99.97 94.20 C 101.86 88.65 108.91 87.80 111.99 83.05 C 116.95 80.75 118.42 74.49 123.26 72.29 Z" />
</g>
<g id="#fda3aaff">
<path fill="#fda3aa" opacity="1.00" d=" M 56.57 76.18 C 56.86 75.57 57.44 74.34 57.73 73.73 C 60.34 77.30 61.86 82.21 65.14 84.95 C 73.08 83.64 81.18 83.08 89.23 83.44 C 91.91 83.22 94.67 81.13 97.19 83.09 C 95.09 85.72 93.17 88.50 91.12 91.16 C 89.80 90.44 88.49 89.70 87.14 89.07 C 85.91 88.36 84.52 88.10 83.14 87.97 C 80.82 87.58 78.46 87.11 76.19 87.96 C 72.19 88.64 68.26 90.27 65.26 93.03 C 65.15 92.51 64.93 91.48 64.82 90.97 C 63.88 88.33 62.31 85.78 60.02 84.11 L 59.43 83.64 C 59.09 83.22 58.42 82.39 58.09 81.97 C 57.69 80.01 57.11 78.10 56.57 76.18 Z" />
</g>
<g id="#ffced6ff">
<path fill="#ffced6" opacity="1.00" d=" M 97.19 83.09 C 100.18 80.45 102.92 77.55 105.90 74.90 C 106.41 74.91 107.42 74.91 107.93 74.92 C 102.58 81.38 97.19 87.83 91.69 94.18 C 91.43 93.59 90.90 92.41 90.64 91.82 L 91.12 91.16 C 93.17 88.50 95.09 85.72 97.19 83.09 Z" />
</g>
<g id="#cc8390ff">
<path fill="#cc8390" opacity="1.00" d=" M 119.80 77.82 C 120.92 75.44 123.59 74.93 125.91 74.94 C 126.34 75.94 126.75 76.96 127.15 77.97 C 126.99 79.06 126.70 80.10 126.26 81.11 C 126.05 79.47 125.70 76.07 123.26 77.23 C 119.21 81.55 114.35 85.22 111.06 90.20 C 109.41 91.01 107.73 91.75 106.02 92.45 C 105.82 92.13 105.43 91.49 105.23 91.17 C 109.94 86.54 116.00 83.36 119.80 77.82 Z" />
</g>
<g id="#dfa5c6f7">
<path fill="#dfa5c6" opacity="0.97" d=" M 171.24 90.89 C 171.17 85.49 168.23 80.09 169.58 74.72 C 171.82 79.30 172.57 84.84 173.02 89.99 C 173.00 95.33 172.98 100.67 173.02 106.01 C 172.80 113.81 170.32 121.48 166.06 128.01 C 164.38 130.30 163.93 134.02 160.91 135.02 C 165.31 128.04 166.61 119.93 169.21 112.24 C 170.84 105.29 172.89 98.05 171.24 90.89 Z" />
</g>
<g id="#d1919eff">
<path fill="#d1919e" opacity="1.00" d=" M 146.04 75.85 C 150.70 83.32 154.77 91.41 156.77 100.02 C 151.90 114.11 139.65 123.74 127.60 131.63 C 122.80 132.88 117.83 129.91 117.99 124.85 C 117.96 123.56 117.93 122.27 117.90 120.98 C 118.04 120.72 118.33 120.20 118.48 119.94 C 125.05 125.14 129.53 117.52 134.40 114.49 C 139.43 111.62 143.75 107.43 145.85 101.95 C 143.33 95.60 149.53 89.88 147.47 83.42 C 146.83 80.93 146.03 78.45 146.04 75.85 Z" />
</g>
<g id="#be717dff">
<path fill="#be717d" opacity="1.00" d=" M 123.26 77.23 C 125.70 76.07 126.05 79.47 126.26 81.11 C 125.16 85.55 121.01 87.93 116.77 88.70 C 114.87 89.19 112.98 89.74 111.06 90.20 C 114.35 85.22 119.21 81.55 123.26 77.23 Z" />
</g>
<g id="#ef94a0ff">
<path fill="#ef94a0" opacity="1.00" d=" M 127.15 77.97 C 127.94 80.77 128.73 83.60 130.12 86.17 C 129.58 88.92 129.08 91.90 126.91 93.89 C 123.17 96.68 122.07 101.66 118.28 104.36 C 118.19 106.00 118.60 107.62 119.00 109.19 C 118.73 109.25 118.19 109.38 117.91 109.44 C 115.96 109.62 114.03 109.98 112.10 110.29 C 110.51 108.99 109.06 107.54 107.70 106.01 C 111.17 103.03 114.28 99.69 117.10 96.09 C 118.38 94.42 120.68 92.74 119.82 90.33 C 118.82 89.76 117.80 89.22 116.77 88.70 C 121.01 87.93 125.16 85.55 126.26 81.11 C 126.70 80.10 126.99 79.06 127.15 77.97 Z" />
</g>
<g id="#f9dbdffc">
<path fill="#f9dbdf" opacity="1.00" d=" M 35.30 80.77 C 36.09 81.60 36.90 82.43 37.62 83.34 C 40.04 91.03 38.91 99.31 40.78 107.13 C 43.21 117.41 48.05 127.35 47.99 138.09 C 41.03 134.00 39.30 125.71 36.25 118.86 C 34.92 112.42 32.48 105.92 33.25 99.25 C 33.80 95.85 34.09 92.42 34.03 88.98 C 34.03 86.17 34.06 83.33 35.30 80.77 Z" />
</g>
<g id="#eba1aeff">
<path fill="#eba1ae" opacity="1.00" d=" M 98.96 89.95 C 103.80 88.74 107.41 84.89 111.99 83.05 C 108.91 87.80 101.86 88.65 99.97 94.20 C 98.97 94.48 97.95 94.73 96.93 94.94 C 97.83 93.37 98.52 91.70 98.96 89.95 Z" />
</g>
<g id="#feb5beff">
<path fill="#feb5be" opacity="1.00" d=" M 59.43 83.64 L 60.02 84.11 C 60.97 86.70 62.15 90.82 58.25 91.37 C 53.10 91.29 48.64 88.60 43.87 87.09 C 44.65 93.56 48.48 98.98 51.30 104.65 C 51.60 110.31 53.24 115.74 54.78 121.17 C 54.91 123.17 54.94 125.17 54.96 127.17 C 51.71 124.88 52.02 120.54 50.83 117.11 C 48.45 110.06 47.48 102.59 44.32 95.80 C 43.49 92.34 41.33 88.52 43.16 85.10 C 48.74 83.74 51.81 91.60 57.77 88.96 C 59.31 87.63 59.00 85.44 59.43 83.64 Z" />
</g>
<g id="#eea6b2ff">
<path fill="#eea6b2" opacity="1.00" d=" M 60.02 84.11 C 62.31 85.78 63.88 88.33 64.82 90.97 C 61.20 92.99 56.73 93.73 52.75 92.40 C 54.59 92.13 56.49 92.04 58.25 91.37 C 62.15 90.82 60.97 86.70 60.02 84.11 Z" />
</g>
<g id="#fdadb4ff">
<path fill="#fdadb4" opacity="1.00" d=" M 43.87 87.09 C 48.64 88.60 53.10 91.29 58.25 91.37 C 56.49 92.04 54.59 92.13 52.75 92.40 C 50.41 91.70 48.12 90.84 45.77 90.16 C 46.37 91.21 47.11 92.17 47.82 93.14 C 49.28 96.86 53.09 98.55 55.73 101.29 C 55.91 104.96 56.22 108.62 56.66 112.27 C 56.76 112.97 56.95 114.37 57.05 115.07 C 57.01 115.83 56.92 117.36 56.88 118.12 C 54.60 117.45 54.92 119.63 54.78 121.17 C 53.24 115.74 51.60 110.31 51.30 104.65 C 48.48 98.98 44.65 93.56 43.87 87.09 Z" />
</g>
<g id="#fffdb9ff">
<path fill="#fffdb9" opacity="1.00" d=" M 76.19 87.96 C 78.46 87.11 80.82 87.58 83.14 87.97 C 77.01 92.27 82.80 100.29 79.76 105.74 C 76.27 108.72 71.58 108.59 67.32 109.39 C 63.81 111.11 60.49 113.21 57.05 115.07 C 56.95 114.37 56.76 112.97 56.66 112.27 L 56.92 111.29 C 64.72 104.69 67.56 93.85 76.19 87.96 Z" />
</g>
<g id="#fff9c2ff">
<path fill="#fff9c2" opacity="1.00" d=" M 65.26 93.03 C 68.26 90.27 72.19 88.64 76.19 87.96 C 67.56 93.85 64.72 104.69 56.92 111.29 C 57.98 105.59 60.13 100.19 63.21 95.27 C 63.90 94.53 64.58 93.78 65.26 93.03 Z" />
</g>
<g id="#fff4b2ff">
<path fill="#fff4b2" opacity="1.00" d=" M 83.14 87.97 C 84.52 88.10 85.91 88.36 87.14 89.07 C 84.39 93.08 85.59 98.12 85.58 102.67 C 83.38 108.15 78.65 114.06 71.97 112.99 C 66.68 113.76 60.72 113.94 56.88 118.12 C 56.92 117.36 57.01 115.83 57.05 115.07 C 60.49 113.21 63.81 111.11 67.32 109.39 C 71.58 108.59 76.27 108.72 79.76 105.74 C 82.80 100.29 77.01 92.27 83.14 87.97 Z" />
</g>
<g id="#b0a6a6d4">
<path fill="#b0a6a6" opacity="0.83" d=" M 33.04 89.02 L 34.03 88.98 C 34.09 92.42 33.80 95.85 33.25 99.25 C 33.08 95.84 32.86 92.43 33.04 89.02 Z" />
</g>
<g id="#ffeaacff">
<path fill="#ffeaac" opacity="1.00" d=" M 87.14 89.07 C 88.49 89.70 89.80 90.44 91.12 91.16 L 90.64 91.82 C 86.33 97.24 90.11 105.60 84.83 110.82 C 77.49 118.56 66.08 114.33 57.27 118.97 L 56.88 118.12 C 60.72 113.94 66.68 113.76 71.97 112.99 C 78.65 114.06 83.38 108.15 85.58 102.67 C 85.59 98.12 84.39 93.08 87.14 89.07 Z" />
</g>
<g id="#fa939cff">
<path fill="#fa939c" opacity="1.00" d=" M 111.06 90.20 C 112.98 89.74 114.87 89.19 116.77 88.70 C 117.80 89.22 118.82 89.76 119.82 90.33 C 120.68 92.74 118.38 94.42 117.10 96.09 C 114.28 99.69 111.17 103.03 107.70 106.01 C 105.61 104.75 103.41 103.70 101.15 102.79 C 100.26 101.43 99.37 100.07 98.42 98.74 C 97.78 97.74 97.10 96.76 96.39 95.82 L 95.91 95.13 L 96.93 94.94 C 97.95 94.73 98.97 94.48 99.97 94.20 C 102.03 93.77 104.07 93.24 106.02 92.45 C 107.73 91.75 109.41 91.01 111.06 90.20 Z" />
</g>
<g id="#dd98a3ff">
<path fill="#dd98a3" opacity="1.00" d=" M 45.77 90.16 C 48.12 90.84 50.41 91.70 52.75 92.40 C 56.73 93.73 61.20 92.99 64.82 90.97 C 64.93 91.48 65.15 92.51 65.26 93.03 C 64.58 93.78 63.90 94.53 63.21 95.27 C 57.90 96.26 52.82 94.69 47.82 93.14 C 47.11 92.17 46.37 91.21 45.77 90.16 Z" />
</g>
<g id="#f4b0bcff">
<path fill="#f4b0bc" opacity="1.00" d=" M 94.88 95.04 C 95.83 93.04 97.12 91.22 98.96 89.95 C 98.52 91.70 97.83 93.37 96.93 94.94 L 95.91 95.13 L 94.88 95.04 Z" />
</g>
<g id="#54424a97">
<path fill="#54424a" opacity="0.59" d=" M 173.02 89.99 L 173.99 90.01 C 174.07 95.33 174.07 100.66 173.98 105.99 L 173.02 106.01 C 172.98 100.67 173.00 95.33 173.02 89.99 Z" />
</g>
<g id="#fedea4ff">
<path fill="#fedea4" opacity="1.00" d=" M 84.83 110.82 C 90.11 105.60 86.33 97.24 90.64 91.82 C 90.90 92.41 91.43 93.59 91.69 94.18 L 92.05 95.02 C 90.56 101.52 91.89 110.49 84.99 113.99 C 77.85 120.41 67.43 117.19 59.59 121.63 L 58.64 121.79 C 58.18 120.85 57.69 119.92 57.27 118.97 C 66.08 114.33 77.49 118.56 84.83 110.82 Z" />
</g>
<g id="#fea3abff">
<path fill="#fea3ab" opacity="1.00" d=" M 47.82 93.14 C 52.82 94.69 57.90 96.26 63.21 95.27 C 60.13 100.19 57.98 105.59 56.92 111.29 L 56.66 112.27 C 56.22 108.62 55.91 104.96 55.73 101.29 C 53.09 98.55 49.28 96.86 47.82 93.14 Z" />
</g>
<g id="#fbd19aff">
<path fill="#fbd19a" opacity="1.00" d=" M 92.05 95.02 C 92.76 95.03 94.17 95.04 94.88 95.04 L 95.91 95.13 L 96.39 95.82 C 90.40 100.92 94.74 111.06 87.83 115.87 C 83.53 117.96 79.38 120.60 74.61 121.45 C 70.93 121.68 67.33 122.39 63.78 123.31 C 62.38 122.76 61.01 122.14 59.59 121.63 C 67.43 117.19 77.85 120.41 84.99 113.99 C 91.89 110.49 90.56 101.52 92.05 95.02 Z" />
</g>
<g id="#eac493ff">
<path fill="#eac493" opacity="1.00" d=" M 96.39 95.82 C 97.10 96.76 97.78 97.74 98.42 98.74 C 95.14 105.33 94.49 113.48 88.25 118.20 C 88.15 117.62 87.93 116.45 87.83 115.87 C 94.74 111.06 90.40 100.92 96.39 95.82 Z" />
</g>
<g id="#ca8895ff">
<path fill="#ca8895" opacity="1.00" d=" M 164.34 97.37 C 166.99 96.18 165.89 104.55 165.98 103.99 C 165.44 110.90 164.28 117.92 161.07 124.15 C 161.08 121.37 161.43 118.62 161.70 115.85 C 153.53 120.26 150.10 130.61 141.13 134.19 C 133.11 140.14 124.60 145.67 116.88 151.86 C 120.26 152.82 123.83 152.79 127.26 153.58 C 124.40 154.79 121.33 155.60 118.24 155.80 C 118.01 153.15 114.89 155.38 113.21 154.89 C 110.99 154.51 108.89 153.85 106.89 152.89 C 111.64 145.95 121.60 145.19 125.88 137.86 C 130.25 134.16 137.39 133.70 140.45 128.39 C 143.83 123.76 149.28 121.27 153.21 117.24 C 157.04 110.69 160.55 103.94 164.34 97.37 Z" />
</g>
<g id="#e1b487ff">
<path fill="#e1b487" opacity="1.00" d=" M 98.42 98.74 C 99.37 100.07 100.26 101.43 101.15 102.79 C 101.16 103.23 101.17 104.10 101.18 104.54 C 95.49 109.01 94.14 116.88 88.95 121.90 C 87.91 122.14 86.87 122.42 85.85 122.74 C 85.08 122.77 83.54 122.84 82.76 122.88 C 84.60 121.33 86.58 119.93 88.25 118.20 C 94.49 113.48 95.14 105.33 98.42 98.74 Z" />
</g>
<g id="#eb8a93ff">
<path fill="#eb8a93" opacity="1.00" d=" M 101.15 102.79 C 103.41 103.70 105.61 104.75 107.70 106.01 C 109.06 107.54 110.51 108.99 112.10 110.29 C 110.47 112.93 108.70 115.48 106.93 118.03 L 105.95 117.83 L 105.92 116.76 C 105.84 115.07 106.55 112.53 103.97 112.76 C 103.61 111.81 103.28 110.85 102.98 109.88 C 102.48 108.07 101.87 106.29 101.18 104.54 C 101.17 104.10 101.16 103.23 101.15 102.79 Z" />
</g>
<g id="#d2a47cff">
<path fill="#d2a47c" opacity="1.00" d=" M 88.95 121.90 C 94.14 116.88 95.49 109.01 101.18 104.54 C 101.87 106.29 102.48 108.07 102.98 109.88 C 97.87 109.89 96.89 116.61 94.22 120.14 L 93.86 120.85 C 92.55 121.13 91.24 121.44 89.94 121.75 L 88.95 121.90 Z" />
</g>
<g id="#e18e99ff">
<path fill="#e18e99" opacity="1.00" d=" M 112.10 110.29 C 114.03 109.98 115.96 109.62 117.91 109.44 C 118.91 111.40 119.77 113.44 120.90 115.34 C 119.80 116.71 119.01 118.27 118.48 119.94 C 118.33 120.20 118.04 120.72 117.90 120.98 C 114.28 121.38 110.67 121.71 107.07 120.95 C 107.04 120.22 106.97 118.76 106.93 118.03 C 108.70 115.48 110.47 112.93 112.10 110.29 Z" />
</g>
<g id="#c5926fff">
<path fill="#c5926f" opacity="1.00" d=" M 94.22 120.14 C 96.89 116.61 97.87 109.89 102.98 109.88 C 103.28 110.85 103.61 111.81 103.97 112.76 C 102.29 115.42 100.08 117.76 97.15 119.04 C 96.18 119.41 95.20 119.78 94.22 120.14 Z" />
</g>
<g id="#bb6267ff">
<path fill="#bb6267" opacity="1.00" d=" M 97.15 119.04 C 100.08 117.76 102.29 115.42 103.97 112.76 C 106.55 112.53 105.84 115.07 105.92 116.76 C 98.78 125.81 93.70 136.47 86.86 145.82 C 88.31 146.02 89.76 146.20 91.21 146.36 C 86.96 148.23 82.22 147.87 77.69 148.13 C 81.24 138.76 92.09 134.50 96.29 125.27 C 97.72 123.42 98.43 121.18 97.15 119.04 Z" />
</g>
<g id="#fbbf8eff">
<path fill="#fbbf8e" opacity="1.00" d=" M 74.61 121.45 C 79.38 120.60 83.53 117.96 87.83 115.87 C 87.93 116.45 88.15 117.62 88.25 118.20 C 86.58 119.93 84.60 121.33 82.76 122.88 L 81.94 123.07 C 76.00 123.97 69.63 124.89 63.78 123.31 C 67.33 122.39 70.93 121.68 74.61 121.45 Z" />
</g>
<g id="#c68091fe">
<path fill="#c68091" opacity="1.00" d=" M 141.13 134.19 C 150.10 130.61 153.53 120.26 161.70 115.85 C 161.43 118.62 161.08 121.37 161.07 124.15 C 159.95 127.21 159.15 130.45 157.09 133.07 C 155.95 135.72 152.86 137.96 153.35 141.11 C 153.42 141.42 153.57 142.05 153.65 142.37 C 153.80 143.98 151.02 144.16 149.87 144.89 C 145.05 146.98 140.43 149.55 135.64 151.72 C 133.09 153.06 130.10 153.81 127.26 153.58 C 123.83 152.79 120.26 152.82 116.88 151.86 C 124.60 145.67 133.11 140.14 141.13 134.19 M 155.34 127.40 C 145.81 135.41 135.05 141.73 124.84 148.81 C 121.82 150.37 130.06 153.38 129.67 150.60 C 142.19 149.47 154.29 139.59 156.03 126.91 L 155.34 127.40 Z" />
</g>
<g id="#b2565dff">
<path fill="#b2565d" opacity="1.00" d=" M 86.86 145.82 C 93.70 136.47 98.78 125.81 105.92 116.76 L 105.95 117.83 C 105.98 121.31 106.00 124.81 106.30 128.29 C 105.62 130.89 104.71 133.42 103.92 135.99 C 101.08 140.25 96.82 143.12 92.66 145.97 C 92.30 146.06 91.58 146.26 91.21 146.36 C 89.76 146.20 88.31 146.02 86.86 145.82 Z" />
</g>
<g id="#fe9492ff">
<path fill="#fe9492" opacity="1.00" d=" M 54.78 121.17 C 54.92 119.63 54.60 117.45 56.88 118.12 L 57.27 118.97 C 57.69 119.92 58.18 120.85 58.64 121.79 C 59.40 123.44 60.29 125.02 61.32 126.53 C 58.57 129.04 58.97 132.78 58.70 136.22 C 57.08 133.36 56.32 130.14 54.96 127.17 C 54.94 125.17 54.91 123.17 54.78 121.17 Z" />
</g>
<g id="#c46972ff">
<path fill="#c46972" opacity="1.00" d=" M 105.95 117.83 L 106.93 118.03 C 106.97 118.76 107.04 120.22 107.07 120.95 C 107.14 123.44 106.89 125.89 106.30 128.29 C 106.00 124.81 105.98 121.31 105.95 117.83 Z" />
</g>
<g id="#c66b70ff">
<path fill="#c66b70" opacity="1.00" d=" M 94.22 120.14 C 95.20 119.78 96.18 119.41 97.15 119.04 C 98.43 121.18 97.72 123.42 96.29 125.27 C 92.09 134.50 81.24 138.76 77.69 148.13 L 76.69 148.22 C 75.33 148.02 73.96 147.83 72.67 147.35 C 70.07 137.85 82.12 138.88 86.28 133.29 C 89.43 129.70 95.04 126.46 93.86 120.85 L 94.22 120.14 Z" />
</g>
<g id="#d47378ff">
<path fill="#d47378" opacity="1.00" d=" M 89.94 121.75 C 91.24 121.44 92.55 121.13 93.86 120.85 C 95.04 126.46 89.43 129.70 86.28 133.29 C 82.12 138.88 70.07 137.85 72.67 147.35 C 70.96 146.86 69.34 146.15 67.75 145.37 C 68.01 143.54 66.62 141.22 67.73 139.70 C 73.76 135.65 82.06 135.02 86.79 128.81 C 88.48 126.88 91.87 124.57 89.94 121.75 Z" />
</g>
<g id="#d58995ff">
<path fill="#d58995" opacity="1.00" d=" M 107.07 120.95 C 110.67 121.71 114.28 121.38 117.90 120.98 C 117.93 122.27 117.96 123.56 117.99 124.85 C 113.33 128.59 109.11 132.97 103.92 135.99 C 104.71 133.42 105.62 130.89 106.30 128.29 C 106.89 125.89 107.14 123.44 107.07 120.95 Z" />
</g>
<g id="#fd8889ff">
<path fill="#fd8889" opacity="1.00" d=" M 61.32 126.53 C 60.29 125.02 59.40 123.44 58.64 121.79 L 59.59 121.63 C 61.01 122.14 62.38 122.76 63.78 123.31 C 69.63 124.89 76.00 123.97 81.94 123.07 C 82.08 127.32 77.72 128.75 74.67 130.63 C 70.67 132.89 65.67 131.64 61.42 133.23 C 60.90 134.91 60.45 136.60 59.86 138.26 C 59.57 137.75 58.99 136.73 58.70 136.22 C 58.97 132.78 58.57 129.04 61.32 126.53 Z" />
</g>
<g id="#e37b7eff">
<path fill="#e37b7e" opacity="1.00" d=" M 85.85 122.74 C 86.87 122.42 87.91 122.14 88.95 121.90 L 89.94 121.75 C 91.87 124.57 88.48 126.88 86.79 128.81 C 82.06 135.02 73.76 135.65 67.73 139.70 C 66.62 141.22 68.01 143.54 67.75 145.37 L 66.87 145.05 C 65.54 144.11 64.17 143.21 62.91 142.18 C 64.01 139.98 63.63 136.18 66.68 135.70 C 73.90 134.55 80.82 131.25 85.78 125.82 C 85.80 125.05 85.84 123.51 85.85 122.74 Z" />
</g>
<g id="#f18184ff">
<path fill="#f18184" opacity="1.00" d=" M 81.94 123.07 L 82.76 122.88 C 83.54 122.84 85.08 122.77 85.85 122.74 C 85.84 123.51 85.80 125.05 85.78 125.82 C 80.82 131.25 73.90 134.55 66.68 135.70 C 63.63 136.18 64.01 139.98 62.91 142.18 C 61.57 141.15 60.71 139.67 59.86 138.26 C 60.45 136.60 60.90 134.91 61.42 133.23 C 65.67 131.64 70.67 132.89 74.67 130.63 C 77.72 128.75 82.08 127.32 81.94 123.07 Z" />
</g>
<g id="#c37b89ff">
<path fill="#c37b89" opacity="1.00" d=" M 155.34 127.40 L 156.03 126.91 C 154.29 139.59 142.19 149.47 129.67 150.60 C 130.06 153.38 121.82 150.37 124.84 148.81 C 135.05 141.73 145.81 135.41 155.34 127.40 Z" />
</g>
<g id="#e7a4b1fd">
<path fill="#e7a4b1" opacity="1.00" d=" M 66.87 145.05 L 67.75 145.37 C 69.34 146.15 70.96 146.86 72.67 147.35 C 73.96 147.83 75.33 148.02 76.69 148.22 C 84.84 146.24 86.54 156.36 94.09 155.85 C 92.36 155.92 88.90 156.05 87.17 156.12 C 82.09 156.26 77.34 154.08 72.31 153.74 C 71.14 153.23 69.96 152.76 68.79 152.26 C 69.35 152.20 70.45 152.07 71.00 152.00 C 68.48 150.45 67.53 147.79 66.87 145.05 Z" />
</g>
<g id="#f36a6afe">
<path fill="#f36a6a" opacity="1.00" d=" M 135.64 151.72 C 140.43 149.55 145.05 146.98 149.87 144.89 C 149.85 145.33 149.82 146.21 149.80 146.65 C 149.53 148.92 150.78 152.04 147.85 152.89 C 144.74 155.65 140.24 155.06 136.86 153.10 C 136.56 152.75 135.95 152.07 135.64 151.72 Z" />
</g>
<g id="#d391a0fd">
<path fill="#d391a0" opacity="1.00" d=" M 91.21 146.36 C 91.58 146.26 92.30 146.06 92.66 145.97 C 96.40 147.14 98.86 150.16 100.43 153.61 C 104.37 155.67 108.96 154.98 113.21 154.89 C 114.89 155.38 118.01 153.15 118.24 155.80 C 114.98 156.47 111.60 157.27 108.26 156.75 C 103.56 155.97 98.81 156.07 94.09 155.85 C 86.54 156.36 84.84 146.24 76.69 148.22 L 77.69 148.13 C 82.22 147.87 86.96 148.23 91.21 146.36 Z" />
</g>
<g id="#ef8283f9">
<path fill="#ef8283" opacity="0.98" d=" M 47.04 153.12 C 50.36 150.94 53.17 147.57 57.20 146.68 C 60.45 148.34 63.65 150.11 67.00 151.56 C 66.53 152.62 66.10 153.70 65.72 154.80 C 61.19 156.33 56.27 155.48 51.68 156.61 C 49.37 157.45 45.93 156.03 47.04 153.12 Z" />
</g>
<g id="#ee8082f9">
<path fill="#ee8082" opacity="0.98" d=" M 147.85 152.89 C 150.78 152.04 149.53 148.92 149.80 146.65 C 154.45 149.57 159.15 157.76 153.74 161.83 C 147.48 162.27 138.46 160.16 136.86 153.10 C 140.24 155.06 144.74 155.65 147.85 152.89 Z" />
</g>
<g id="#b66367f3">
<path fill="#b66367" opacity="0.95" d=" M 65.72 154.80 C 66.10 153.70 66.53 152.62 67.00 151.56 C 67.45 151.73 68.35 152.08 68.79 152.26 C 69.96 152.76 71.14 153.23 72.31 153.74 C 71.68 156.21 67.70 154.60 65.72 154.80 Z" />
</g>
<g id="#a47888d5">
<path fill="#a47888" opacity="0.84" d=" M 87.17 156.12 C 88.90 156.05 92.36 155.92 94.09 155.85 L 93.95 156.52 C 92.09 157.30 88.34 157.81 87.17 156.12 Z" />
</g>
<g id="#eba9c8ff">
<path fill="#eba9c8" opacity="1.00" d=" M 94.09 155.85 C 98.81 156.07 103.56 155.97 108.26 156.75 C 103.54 156.62 98.57 157.86 93.95 156.52 L 94.09 155.85 Z" />
</g>
</svg>
