<?xml version="1.0" encoding="UTF-8" ?>
<!DOCTYPE svg PUBLIC "-//W3C//DTD SVG 1.1//EN" "http://www.w3.org/Graphics/SVG/1.1/DTD/svg11.dtd">
<svg width="169pt" height="189pt" viewBox="0 0 169 189" version="1.1" xmlns="http://www.w3.org/2000/svg">
<g id="#8bd5eaf7">
<path fill="#8bd5ea" opacity="0.97" d=" M 59.88 13.89 C 62.96 9.64 70.83 9.50 74.18 13.41 C 69.42 13.80 64.54 12.48 59.88 13.89 Z" />
</g>
<g id="#6cafdff8">
<path fill="#6cafdf" opacity="0.97" d=" M 59.88 13.89 C 64.54 12.48 69.42 13.80 74.18 13.41 C 74.45 13.64 74.98 14.09 75.24 14.32 C 70.01 14.81 64.80 15.43 59.88 17.35 C 57.70 17.73 56.15 19.28 54.74 20.87 L 53.86 21.15 C 53.98 19.01 56.58 17.87 56.38 15.75 C 56.41 14.34 58.82 14.41 59.88 13.89 Z" />
</g>
<g id="#5e9cccf6">
<path fill="#5e9ccc" opacity="0.96" d=" M 75.24 14.32 C 77.16 16.01 79.68 14.94 81.92 16.12 C 84.92 17.30 88.02 18.21 91.27 18.30 C 89.93 18.95 88.42 18.98 86.98 19.16 C 86.54 19.03 85.67 18.79 85.23 18.67 C 82.95 18.03 80.67 17.13 78.27 17.18 C 72.12 16.79 66.03 17.91 59.88 17.35 C 64.80 15.43 70.01 14.81 75.24 14.32 Z" />
</g>
<g id="#6db1e3fa">
<path fill="#6db1e3" opacity="0.98" d=" M 31.10 16.19 C 32.60 15.62 34.13 14.65 35.81 15.11 C 40.20 19.10 39.57 25.95 44.04 29.83 C 41.06 29.50 38.70 31.99 38.81 34.91 C 37.16 35.10 35.47 35.95 33.82 35.32 C 31.15 29.36 30.68 22.63 31.10 16.19 Z" />
</g>
<g id="#87d0e9f6">
<path fill="#87d0e9" opacity="0.96" d=" M 51.92 25.99 C 52.36 22.29 51.72 16.69 56.38 15.75 C 56.58 17.87 53.98 19.01 53.86 21.15 L 53.60 21.94 C 52.97 23.25 53.18 25.10 51.92 25.99 Z" />
</g>
<g id="#5089beff">
<path fill="#5089be" opacity="1.00" d=" M 54.74 20.87 C 56.15 19.28 57.70 17.73 59.88 17.35 C 66.03 17.91 72.12 16.79 78.27 17.18 C 75.56 19.05 70.39 17.91 69.84 22.02 L 69.19 22.21 C 67.80 21.59 66.37 21.07 64.90 20.71 C 66.85 19.35 71.47 16.86 62.02 18.96 C 59.38 18.61 57.19 20.28 54.74 20.87 Z" />
</g>
<g id="#447db2ff">
<path fill="#447db2" opacity="1.00" d=" M 78.27 17.18 C 80.67 17.13 82.95 18.03 85.23 18.67 C 80.37 17.58 76.54 20.24 73.04 23.00 C 71.97 22.70 70.90 22.38 69.84 22.02 C 70.39 17.91 75.56 19.05 78.27 17.18 Z" />
</g>
<g id="#7fc6edf9">
<path fill="#7fc6ed" opacity="0.98" d=" M 91.27 18.30 C 92.99 17.50 94.83 16.50 96.79 17.15 C 98.33 18.57 99.37 20.40 100.24 22.29 C 95.66 23.75 91.28 23.98 87.04 21.81 C 87.02 21.15 87.00 19.82 86.98 19.16 C 88.42 18.98 89.93 18.95 91.27 18.30 Z" />
</g>
<g id="#406a9cff">
<path fill="#406a9c" opacity="1.00" d=" M 54.74 20.87 C 57.19 20.28 59.38 18.61 62.02 18.96 C 71.47 16.86 66.85 19.35 64.90 20.71 C 61.41 21.04 57.97 21.80 54.72 23.11 C 54.44 22.82 53.88 22.24 53.60 21.94 L 53.86 21.15 L 54.74 20.87 Z" />
</g>
<g id="#3b699fff">
<path fill="#3b699f" opacity="1.00" d=" M 73.04 23.00 C 76.54 20.24 80.37 17.58 85.23 18.67 C 85.67 18.79 86.54 19.03 86.98 19.16 C 87.00 19.82 87.02 21.15 87.04 21.81 C 86.19 24.46 89.29 22.78 90.07 24.65 C 87.81 24.55 88.09 26.56 88.03 28.19 C 87.59 29.57 87.09 30.92 86.66 32.31 C 86.07 28.87 87.09 24.16 83.16 22.53 C 80.84 19.40 76.60 22.61 76.75 25.84 C 74.66 30.08 68.96 28.86 64.91 28.98 L 64.11 28.83 C 58.67 26.41 51.91 29.34 49.81 34.79 L 49.12 34.63 C 48.04 34.34 46.96 34.08 45.87 33.87 C 50.00 32.14 52.36 27.67 57.00 26.99 C 62.58 24.75 68.52 28.52 74.05 26.04 C 76.18 25.73 74.27 23.32 73.04 23.00 Z" />
</g>
<g id="#6eb2e2f6">
<path fill="#6eb2e2" opacity="0.96" d=" M 110.76 21.39 C 113.99 20.52 117.99 17.33 121.05 20.13 C 121.16 21.08 121.42 22.05 121.28 23.02 L 120.36 22.88 C 117.16 22.33 113.91 22.16 110.76 21.39 Z" />
</g>
<g id="#5e92c2fa">
<path fill="#5e92c2" opacity="0.98" d=" M 121.05 20.13 C 122.90 19.72 124.55 20.72 126.22 21.32 C 125.25 21.60 124.28 21.88 123.32 22.16 C 123.70 23.19 124.30 24.17 124.31 25.30 C 123.29 24.79 122.26 24.30 121.22 23.83 L 121.28 23.02 C 121.42 22.05 121.16 21.08 121.05 20.13 Z" />
</g>
<g id="#6dafe9ff">
<path fill="#6dafe9" opacity="1.00" d=" M 54.72 23.11 C 57.97 21.80 61.41 21.04 64.90 20.71 C 66.37 21.07 67.80 21.59 69.19 22.21 C 64.46 22.04 59.03 24.60 54.72 23.11 Z" />
</g>
<g id="#2e578bff">
<path fill="#2e578b" opacity="1.00" d=" M 76.75 25.84 C 76.60 22.61 80.84 19.40 83.16 22.53 C 78.84 23.18 80.14 29.19 75.92 29.91 C 73.62 30.67 71.26 31.25 68.93 31.92 C 67.90 30.55 66.37 29.79 64.91 28.98 C 68.96 28.86 74.66 30.08 76.75 25.84 Z" />
</g>
<g id="#508ac1fc">
<path fill="#508ac1" opacity="1.00" d=" M 104.83 23.99 C 106.19 22.25 108.41 20.39 110.76 21.39 C 113.91 22.16 117.16 22.33 120.36 22.88 C 117.00 24.00 111.06 20.97 109.01 25.02 C 107.08 25.49 105.13 25.86 103.19 26.25 C 103.42 28.17 104.47 30.30 103.07 32.03 C 101.93 35.11 98.00 35.31 96.65 38.03 L 95.85 37.99 C 95.33 36.32 94.93 34.62 94.48 32.94 L 94.25 32.01 C 95.38 31.14 96.54 30.23 98.01 30.03 C 101.67 29.80 101.76 25.27 104.83 23.99 Z" />
</g>
<g id="#4877a6f9">
<path fill="#4877a6" opacity="0.98" d=" M 126.22 21.32 C 131.04 21.62 134.79 26.83 137.05 30.91 C 136.59 30.89 135.67 30.86 135.21 30.84 C 133.57 26.97 130.09 24.43 125.98 23.93 C 127.08 25.61 128.68 27.02 129.14 29.05 C 127.43 27.93 125.87 26.62 124.31 25.30 C 124.30 24.17 123.70 23.19 123.32 22.16 C 124.28 21.88 125.25 21.60 126.22 21.32 Z" />
</g>
<g id="#5996cdfd">
<path fill="#5996cd" opacity="1.00" d=" M 51.92 25.99 C 53.18 25.10 52.97 23.25 53.60 21.94 C 53.88 22.24 54.44 22.82 54.72 23.11 C 59.03 24.60 64.46 22.04 69.19 22.21 L 69.84 22.02 C 70.90 22.38 71.97 22.70 73.04 23.00 C 66.27 25.22 58.89 24.35 52.29 27.26 C 50.29 28.18 49.19 32.25 46.64 31.31 C 47.92 29.13 49.96 27.53 51.92 25.99 Z" />
</g>
<g id="#62a3dafe">
<path fill="#62a3da" opacity="1.00" d=" M 87.04 21.81 C 91.28 23.98 95.66 23.75 100.24 22.29 C 101.73 22.93 102.95 24.29 104.83 23.99 C 101.76 25.27 101.67 29.80 98.01 30.03 C 96.54 30.23 95.38 31.14 94.25 32.01 C 93.59 30.09 92.64 28.29 91.45 26.65 C 91.10 26.15 90.41 25.15 90.07 24.65 C 89.29 22.78 86.19 24.46 87.04 21.81 Z" />
</g>
<g id="#4a7eb3fd">
<path fill="#4a7eb3" opacity="1.00" d=" M 73.04 23.00 C 74.27 23.32 76.18 25.73 74.05 26.04 C 68.52 28.52 62.58 24.75 57.00 26.99 C 52.36 27.67 50.00 32.14 45.87 33.87 C 45.14 33.89 43.70 33.93 42.97 33.95 C 43.65 32.95 44.38 31.99 45.09 31.01 C 45.48 31.08 46.25 31.23 46.64 31.31 C 49.19 32.25 50.29 28.18 52.29 27.26 C 58.89 24.35 66.27 25.22 73.04 23.00 Z" />
</g>
<g id="#244272ff">
<path fill="#244272" opacity="1.00" d=" M 75.92 29.91 C 80.14 29.19 78.84 23.18 83.16 22.53 C 87.09 24.16 86.07 28.87 86.66 32.31 L 86.73 33.28 C 85.90 32.93 85.06 32.58 84.21 32.23 C 81.75 30.56 78.93 29.59 75.92 29.91 Z" />
</g>
<g id="#4370a2ff">
<path fill="#4370a2" opacity="1.00" d=" M 109.01 25.02 C 111.06 20.97 117.00 24.00 120.36 22.88 L 121.28 23.02 L 121.22 23.83 C 117.13 23.91 112.92 23.61 109.01 25.02 Z" />
</g>
<g id="#30588bff">
<path fill="#30588b" opacity="1.00" d=" M 109.01 25.02 C 112.92 23.61 117.13 23.91 121.22 23.83 C 122.26 24.30 123.29 24.79 124.31 25.30 C 125.87 26.62 127.43 27.93 129.14 29.05 C 128.68 27.02 127.08 25.61 125.98 23.93 C 130.09 24.43 133.57 26.97 135.21 30.84 C 133.24 30.79 130.71 30.90 132.84 33.09 C 134.36 35.25 135.89 37.44 137.96 39.13 C 138.26 39.57 138.87 40.43 139.17 40.86 C 138.80 43.95 139.88 47.51 138.13 50.28 C 136.56 49.06 135.24 47.38 133.26 46.82 C 134.07 53.89 128.60 58.98 124.93 64.32 C 123.64 63.19 122.28 62.13 120.86 61.16 L 121.77 61.10 C 127.00 61.37 128.57 54.91 131.61 51.59 C 131.67 50.14 131.81 47.23 131.88 45.77 C 132.00 44.07 131.87 42.36 131.44 40.70 C 131.05 39.04 131.09 37.03 129.43 36.06 C 126.39 33.53 123.18 31.23 120.00 28.88 C 120.21 28.42 120.64 27.52 120.85 27.06 C 117.24 23.84 111.59 24.80 108.82 28.62 C 107.52 29.91 106.15 31.24 105.66 33.06 C 103.38 29.04 107.07 27.46 109.01 25.02 Z" />
</g>
<g id="#294878ff">
<path fill="#294878" opacity="1.00" d=" M 88.03 28.19 C 88.09 26.56 87.81 24.55 90.07 24.65 C 90.41 25.15 91.10 26.15 91.45 26.65 C 90.31 27.18 89.17 27.69 88.03 28.19 Z" />
</g>
<g id="#4176adff">
<path fill="#4176ad" opacity="1.00" d=" M 103.19 26.25 C 105.13 25.86 107.08 25.49 109.01 25.02 C 107.07 27.46 103.38 29.04 105.66 33.06 C 105.74 33.42 105.92 34.16 106.01 34.53 C 104.77 35.93 103.74 37.48 102.78 39.08 C 100.69 39.01 98.61 38.78 96.65 38.03 C 98.00 35.31 101.93 35.11 103.07 32.03 C 104.47 30.30 103.42 28.17 103.19 26.25 Z" />
</g>
<g id="#264672ff">
<path fill="#264672" opacity="1.00" d=" M 108.82 28.62 C 111.59 24.80 117.24 23.84 120.85 27.06 C 120.64 27.52 120.21 28.42 120.00 28.88 C 119.49 28.99 118.46 29.20 117.95 29.31 C 115.96 29.76 113.93 30.04 111.89 30.18 L 111.12 29.84 C 110.54 29.53 109.40 28.93 108.82 28.62 Z" />
</g>
<g id="#1b325dff">
<path fill="#1b325d" opacity="1.00" d=" M 88.03 28.19 C 89.17 27.69 90.31 27.18 91.45 26.65 C 92.64 28.29 93.59 30.09 94.25 32.01 L 94.48 32.94 C 92.90 34.10 90.89 34.02 89.04 34.28 L 88.22 34.34 C 87.85 34.08 87.11 33.55 86.73 33.28 L 86.66 32.31 C 87.09 30.92 87.59 29.57 88.03 28.19 Z" />
</g>
<g id="#2b4a78ff">
<path fill="#2b4a78" opacity="1.00" d=" M 49.81 34.79 C 51.91 29.34 58.67 26.41 64.11 28.83 C 59.74 29.75 54.54 30.26 52.17 34.62 C 52.62 34.99 53.50 35.75 53.95 36.12 C 53.52 36.15 52.67 36.20 52.25 36.22 C 51.64 35.86 50.42 35.15 49.81 34.79 Z" />
</g>
<g id="#162c56ff">
<path fill="#162c56" opacity="1.00" d=" M 52.17 34.62 C 54.54 30.26 59.74 29.75 64.11 28.83 L 64.91 28.98 C 66.37 29.79 67.90 30.55 68.93 31.92 C 67.11 32.92 65.41 34.10 63.76 35.36 C 62.16 36.40 60.63 37.57 58.89 38.40 C 57.71 37.94 56.52 37.49 55.30 37.12 C 54.96 36.87 54.29 36.37 53.95 36.12 C 53.50 35.75 52.62 34.99 52.17 34.62 Z" />
</g>
<g id="#203a66ff">
<path fill="#203a66" opacity="1.00" d=" M 105.66 33.06 C 106.15 31.24 107.52 29.91 108.82 28.62 C 109.40 28.93 110.54 29.53 111.12 29.84 L 110.66 30.73 C 109.98 32.05 109.19 33.37 108.94 34.86 C 111.14 36.16 113.77 36.28 116.17 37.09 L 116.34 38.20 C 113.55 37.89 110.84 37.05 108.02 36.96 C 108.02 37.72 108.02 39.23 108.02 39.99 C 110.82 39.54 113.60 38.95 116.34 38.20 C 117.26 38.80 118.15 39.42 119.06 40.02 C 121.22 42.86 122.11 46.39 122.37 49.89 C 120.50 49.44 118.44 47.34 116.63 48.94 C 115.69 47.53 114.81 46.00 113.38 45.03 C 112.85 44.70 111.79 44.06 111.25 43.73 C 110.19 43.12 109.13 42.52 108.07 41.90 C 107.82 41.47 107.31 40.59 107.06 40.16 C 106.93 38.25 107.08 36.21 106.01 34.53 C 105.92 34.16 105.74 33.42 105.66 33.06 Z" />
</g>
<g id="#4175afff">
<path fill="#4175af" opacity="1.00" d=" M 111.89 30.18 C 113.93 30.04 115.96 29.76 117.95 29.31 C 118.04 29.65 118.22 30.35 118.31 30.70 C 119.48 35.11 123.01 38.52 123.97 43.01 C 124.33 44.80 125.56 47.42 127.79 46.92 C 129.15 44.94 130.20 42.76 131.44 40.70 C 131.87 42.36 132.00 44.07 131.88 45.77 C 131.04 47.71 130.36 49.70 129.56 51.64 C 128.26 54.15 125.21 54.73 122.85 55.84 C 122.73 54.35 122.49 51.38 122.37 49.89 C 122.11 46.39 121.22 42.86 119.06 40.02 C 118.13 35.87 116.64 31.17 111.89 30.18 Z" />
</g>
<g id="#5d95cfff">
<path fill="#5d95cf" opacity="1.00" d=" M 117.95 29.31 C 118.46 29.20 119.49 28.99 120.00 28.88 C 123.18 31.23 126.39 33.53 129.43 36.06 C 125.03 38.85 122.00 32.33 118.31 30.70 C 118.22 30.35 118.04 29.65 117.95 29.31 Z" />
</g>
<g id="#5c97cdff">
<path fill="#5c97cd" opacity="1.00" d=" M 38.81 34.91 C 38.70 31.99 41.06 29.50 44.04 29.83 C 44.30 30.12 44.83 30.71 45.09 31.01 C 44.38 31.99 43.65 32.95 42.97 33.95 C 43.70 33.93 45.14 33.89 45.87 33.87 C 46.96 34.08 48.04 34.34 49.12 34.63 C 47.49 34.83 45.86 35.03 44.23 35.25 C 42.42 35.13 40.62 35.00 38.81 34.91 Z" />
</g>
<g id="#5a93cdff">
<path fill="#5a93cd" opacity="1.00" d=" M 68.93 31.92 C 71.26 31.25 73.62 30.67 75.92 29.91 C 78.93 29.59 81.75 30.56 84.21 32.23 C 79.26 31.49 73.34 34.02 68.93 31.92 Z" />
</g>
<g id="#38639bff">
<path fill="#38639b" opacity="1.00" d=" M 111.12 29.84 L 111.89 30.18 C 116.64 31.17 118.13 35.87 119.06 40.02 C 118.15 39.42 117.26 38.80 116.34 38.20 L 116.17 37.09 C 117.28 32.59 110.95 34.39 110.66 30.73 L 111.12 29.84 Z" />
</g>
<g id="#2c4f84ff">
<path fill="#2c4f84" opacity="1.00" d=" M 108.94 34.86 C 109.19 33.37 109.98 32.05 110.66 30.73 C 110.95 34.39 117.28 32.59 116.17 37.09 C 113.77 36.28 111.14 36.16 108.94 34.86 Z" />
</g>
<g id="#4b83bbff">
<path fill="#4b83bb" opacity="1.00" d=" M 118.31 30.70 C 122.00 32.33 125.03 38.85 129.43 36.06 C 131.09 37.03 131.05 39.04 131.44 40.70 C 130.20 42.76 129.15 44.94 127.79 46.92 C 125.56 47.42 124.33 44.80 123.97 43.01 C 123.01 38.52 119.48 35.11 118.31 30.70 Z" />
</g>
<g id="#79bbeefc">
<path fill="#79bbee" opacity="1.00" d=" M 132.84 33.09 C 130.71 30.90 133.24 30.79 135.21 30.84 C 135.67 30.86 136.59 30.89 137.05 30.91 C 140.95 30.93 145.44 32.72 147.32 36.30 C 143.24 37.83 139.27 37.72 137.19 33.83 C 136.24 32.50 134.22 33.38 132.84 33.09 Z" />
</g>
<g id="#4a80baff">
<path fill="#4a80ba" opacity="1.00" d=" M 63.76 35.36 C 65.41 34.10 67.11 32.92 68.93 31.92 C 73.34 34.02 79.26 31.49 84.21 32.23 C 85.06 32.58 85.90 32.93 86.73 33.28 C 87.11 33.55 87.85 34.08 88.22 34.34 C 84.12 34.47 79.96 35.09 75.89 34.36 C 71.83 34.12 67.83 35.66 63.76 35.36 Z" />
</g>
<g id="#27467aff">
<path fill="#27467a" opacity="1.00" d=" M 94.48 32.94 C 94.93 34.62 95.33 36.32 95.85 37.99 C 94.33 37.98 92.82 37.98 91.31 37.98 C 90.66 36.68 89.89 35.46 89.04 34.28 C 90.89 34.02 92.90 34.10 94.48 32.94 Z" />
</g>
<g id="#5990cbff">
<path fill="#5990cb" opacity="1.00" d=" M 132.84 33.09 C 134.22 33.38 136.24 32.50 137.19 33.83 C 137.47 35.59 137.75 37.36 137.96 39.13 C 135.89 37.44 134.36 35.25 132.84 33.09 Z" />
</g>
<g id="#3b69a1ff">
<path fill="#3b69a1" opacity="1.00" d=" M 63.76 35.36 C 67.83 35.66 71.83 34.12 75.89 34.36 C 79.96 35.09 84.12 34.47 88.22 34.34 L 89.04 34.28 C 89.89 35.46 90.66 36.68 91.31 37.98 C 89.70 38.66 87.99 38.96 86.25 38.87 C 78.98 36.30 69.24 33.03 62.98 39.05 C 62.73 39.29 62.25 39.75 62.00 39.98 C 61.56 39.81 60.67 39.45 60.23 39.27 C 59.90 39.06 59.23 38.62 58.89 38.40 C 60.63 37.57 62.16 36.40 63.76 35.36 Z" />
</g>
<g id="#68a6dffc">
<path fill="#68a6df" opacity="1.00" d=" M 137.19 33.83 C 139.27 37.72 143.24 37.83 147.32 36.30 C 149.20 37.46 150.45 40.64 153.19 41.42 C 152.20 41.67 151.22 41.91 150.23 42.13 C 144.94 40.40 142.15 45.23 140.21 49.24 C 138.95 46.79 141.13 43.18 139.17 40.86 C 138.87 40.43 138.26 39.57 137.96 39.13 C 137.75 37.36 137.47 35.59 137.19 33.83 Z" />
</g>
<g id="#8bd4f0f9">
<path fill="#8bd4f0" opacity="0.98" d=" M 29.18 35.11 C 30.72 34.87 32.31 34.91 33.82 35.32 C 35.47 35.95 37.16 35.10 38.81 34.91 C 40.62 35.00 42.42 35.13 44.23 35.25 C 38.74 37.42 31.23 37.30 28.82 43.73 C 26.65 44.41 25.42 46.36 24.08 48.04 C 24.05 47.54 24.00 46.54 23.98 46.05 C 23.99 44.67 23.63 42.86 25.35 42.39 C 28.57 41.23 27.18 37.13 29.18 35.11 Z" />
</g>
<g id="#73c1f6ff">
<path fill="#73c1f6" opacity="1.00" d=" M 44.23 35.25 C 45.86 35.03 47.49 34.83 49.12 34.63 L 49.81 34.79 C 50.42 35.15 51.64 35.86 52.25 36.22 C 45.49 35.84 39.94 40.33 33.24 40.24 C 32.97 40.70 32.42 41.60 32.15 42.05 L 31.74 42.79 C 31.31 43.13 30.44 43.80 30.01 44.13 L 28.82 43.73 C 31.23 37.30 38.74 37.42 44.23 35.25 Z" />
</g>
<g id="#386393ff">
<path fill="#386393" opacity="1.00" d=" M 102.78 39.08 C 103.74 37.48 104.77 35.93 106.01 34.53 C 107.08 36.21 106.93 38.25 107.06 40.16 L 106.19 40.25 C 105.04 39.88 103.91 39.49 102.78 39.08 Z" />
</g>
<g id="#64aee7ff">
<path fill="#64aee7" opacity="1.00" d=" M 52.25 36.22 C 52.67 36.20 53.52 36.15 53.95 36.12 C 54.29 36.37 54.96 36.87 55.30 37.12 C 48.10 40.20 39.68 39.68 32.15 42.05 C 32.42 41.60 32.97 40.70 33.24 40.24 C 39.94 40.33 45.49 35.84 52.25 36.22 Z" />
</g>
<g id="#30578aff">
<path fill="#30578a" opacity="1.00" d=" M 62.98 39.05 C 69.24 33.03 78.98 36.30 86.25 38.87 C 83.95 39.60 81.57 40.22 79.16 39.69 C 76.09 38.29 72.73 38.02 69.40 37.78 C 67.19 37.55 65.14 38.77 62.98 39.05 Z" />
</g>
<g id="#589bd2ff">
<path fill="#589bd2" opacity="1.00" d=" M 55.30 37.12 C 56.52 37.49 57.71 37.94 58.89 38.40 C 59.23 38.62 59.90 39.06 60.23 39.27 C 54.82 40.02 49.27 40.19 44.00 41.71 C 41.26 42.01 38.36 41.57 35.83 42.80 L 35.09 43.10 C 34.25 43.02 32.58 42.87 31.74 42.79 L 32.15 42.05 C 39.68 39.68 48.10 40.20 55.30 37.12 Z" />
</g>
<g id="#244374ff">
<path fill="#244374" opacity="1.00" d=" M 62.98 39.05 C 65.14 38.77 67.19 37.55 69.40 37.78 C 67.94 39.17 65.05 39.62 65.11 42.05 C 64.07 41.37 63.05 40.66 62.00 39.98 C 62.25 39.75 62.73 39.29 62.98 39.05 Z" />
</g>
<g id="#152b54ff">
<path fill="#152b54" opacity="1.00" d=" M 108.02 36.96 C 110.84 37.05 113.55 37.89 116.34 38.20 C 113.60 38.95 110.82 39.54 108.02 39.99 C 108.02 39.23 108.02 37.72 108.02 36.96 Z" />
</g>
<g id="#172f5cff">
<path fill="#172f5c" opacity="1.00" d=" M 69.40 37.78 C 72.73 38.02 76.09 38.29 79.16 39.69 C 76.39 42.10 73.85 44.76 71.08 47.18 C 70.65 47.06 69.81 46.81 69.38 46.69 C 68.77 45.79 68.20 44.86 67.40 44.11 C 66.67 43.39 65.91 42.70 65.11 42.05 C 65.05 39.62 67.94 39.17 69.40 37.78 Z" />
</g>
<g id="#5ca2dbff">
<path fill="#5ca2db" opacity="1.00" d=" M 86.25 38.87 C 87.99 38.96 89.70 38.66 91.31 37.98 C 92.82 37.98 94.33 37.98 95.85 37.99 L 96.65 38.03 C 98.61 38.78 100.69 39.01 102.78 39.08 C 103.91 39.49 105.04 39.88 106.19 40.25 C 99.05 41.09 91.86 41.50 84.79 42.86 C 80.60 43.32 76.88 44.87 74.09 48.07 C 73.11 49.01 70.59 49.59 71.63 51.34 C 73.10 53.73 71.19 56.95 73.20 58.92 C 74.93 59.30 76.59 58.61 78.19 58.05 C 78.62 58.06 79.46 58.07 79.89 58.08 C 84.50 60.67 90.25 60.55 95.15 58.79 C 95.64 58.62 96.61 58.29 97.10 58.12 C 99.35 57.62 101.61 57.08 103.92 56.91 C 109.51 58.57 115.33 59.29 120.86 61.16 C 122.28 62.13 123.64 63.19 124.93 64.32 C 125.50 64.90 126.07 65.48 126.66 66.04 C 127.48 66.84 128.33 67.61 129.21 68.35 C 127.13 69.28 125.52 66.98 123.62 66.49 C 119.26 67.61 116.65 64.56 113.66 62.38 C 109.84 61.34 105.89 60.96 101.99 60.37 C 96.96 61.03 92.12 62.89 87.00 62.98 C 81.29 63.77 75.80 61.53 70.14 61.70 C 69.85 60.38 69.60 59.05 69.29 57.74 C 69.22 57.27 69.08 56.34 69.01 55.88 C 68.97 54.18 68.92 52.48 68.85 50.79 C 69.38 49.46 70.21 48.30 71.08 47.18 C 73.85 44.76 76.39 42.10 79.16 39.69 C 81.57 40.22 83.95 39.60 86.25 38.87 Z" />
</g>
<g id="#4d8ac0ff">
<path fill="#4d8ac0" opacity="1.00" d=" M 60.23 39.27 C 60.67 39.45 61.56 39.81 62.00 39.98 C 57.79 44.31 51.35 42.71 45.91 43.12 C 45.43 42.77 44.48 42.06 44.00 41.71 C 49.27 40.19 54.82 40.02 60.23 39.27 Z" />
</g>
<g id="#4579acff">
<path fill="#4579ac" opacity="1.00" d=" M 62.00 39.98 C 63.05 40.66 64.07 41.37 65.11 42.05 C 60.50 43.30 56.82 46.93 51.86 46.91 L 51.00 47.02 L 50.19 46.86 C 49.72 46.50 48.77 45.79 48.30 45.43 L 47.79 44.94 C 47.18 44.32 46.55 43.72 45.91 43.12 C 51.35 42.71 57.79 44.31 62.00 39.98 Z" />
</g>
<g id="#5293cbff">
<path fill="#5293cb" opacity="1.00" d=" M 106.19 40.25 L 107.06 40.16 C 107.31 40.59 107.82 41.47 108.07 41.90 C 100.27 41.60 92.59 43.41 84.79 42.86 C 91.86 41.50 99.05 41.09 106.19 40.25 Z" />
</g>
<g id="#5592ceff">
<path fill="#5592ce" opacity="1.00" d=" M 139.17 40.86 C 141.13 43.18 138.95 46.79 140.21 49.24 C 142.15 45.23 144.94 40.40 150.23 42.13 C 148.31 43.67 146.13 45.12 145.49 47.66 C 142.91 49.77 139.19 50.60 137.83 53.93 C 136.85 54.87 136.25 57.78 134.62 56.08 C 135.79 54.15 136.98 52.23 138.13 50.28 C 139.88 47.51 138.80 43.95 139.17 40.86 Z" />
</g>
<g id="#4983bafd">
<path fill="#4983ba" opacity="1.00" d=" M 153.19 41.42 C 156.39 44.22 162.71 47.70 162.23 53.15 C 160.21 53.71 158.36 54.92 156.22 54.98 C 154.49 51.85 155.67 43.67 150.05 45.02 C 145.72 47.09 144.08 55.46 137.83 53.93 C 139.19 50.60 142.91 49.77 145.49 47.66 C 146.13 45.12 148.31 43.67 150.23 42.13 C 151.22 41.91 152.20 41.67 153.19 41.42 Z" />
</g>
<g id="#4d87bcff">
<path fill="#4d87bc" opacity="1.00" d=" M 35.83 42.80 C 38.36 41.57 41.26 42.01 44.00 41.71 C 42.26 44.40 38.59 42.58 35.83 42.80 Z" />
</g>
<g id="#406fa0ff">
<path fill="#406fa0" opacity="1.00" d=" M 44.00 41.71 C 44.48 42.06 45.43 42.77 45.91 43.12 C 46.55 43.72 47.18 44.32 47.79 44.94 C 47.11 44.95 45.73 44.97 45.05 44.98 C 41.47 44.21 40.19 48.04 38.25 50.20 C 38.28 48.58 40.05 45.23 37.12 46.53 C 31.14 44.55 27.19 50.54 25.12 55.26 L 24.20 55.37 C 24.48 53.19 25.05 51.05 25.84 49.00 C 28.91 47.01 32.01 45.07 35.09 43.10 L 35.83 42.80 C 38.59 42.58 42.26 44.40 44.00 41.71 Z" />
</g>
<g id="#3b699cff">
<path fill="#3b699c" opacity="1.00" d=" M 65.11 42.05 C 65.91 42.70 66.67 43.39 67.40 44.11 C 62.93 43.24 58.73 46.97 59.24 51.57 C 56.10 53.56 57.48 58.46 53.89 60.00 C 55.26 56.36 58.07 50.91 53.87 48.27 C 53.42 48.42 52.51 48.72 52.05 48.87 C 52.00 48.38 51.91 47.40 51.86 46.91 C 56.82 46.93 60.50 43.30 65.11 42.05 Z" />
</g>
<g id="#4884b9ff">
<path fill="#4884b9" opacity="1.00" d=" M 84.79 42.86 C 92.59 43.41 100.27 41.60 108.07 41.90 C 109.13 42.52 110.19 43.12 111.25 43.73 C 101.03 43.98 90.74 43.63 80.65 45.64 C 78.05 46.09 76.39 48.45 73.84 49.05 L 74.09 48.07 C 76.88 44.87 80.60 43.32 84.79 42.86 Z" />
</g>
<g id="#548bbeff">
<path fill="#548bbe" opacity="1.00" d=" M 30.01 44.13 C 30.44 43.80 31.31 43.13 31.74 42.79 C 32.58 42.87 34.25 43.02 35.09 43.10 C 32.01 45.07 28.91 47.01 25.84 49.00 C 26.25 46.71 28.57 45.71 30.01 44.13 Z" />
</g>
<g id="#72b0dffa">
<path fill="#72b0df" opacity="0.98" d=" M 24.08 48.04 C 25.42 46.36 26.65 44.41 28.82 43.73 L 30.01 44.13 C 28.57 45.71 26.25 46.71 25.84 49.00 C 25.05 51.05 24.48 53.19 24.20 55.37 C 23.05 55.91 22.69 54.50 22.02 53.90 C 19.70 54.78 24.06 61.64 21.02 62.07 C 21.00 60.55 20.97 57.51 20.96 55.99 C 20.60 52.71 21.91 48.09 23.98 46.05 C 24.00 46.54 24.05 47.54 24.08 48.04 Z" />
</g>
<g id="#315687ff">
<path fill="#315687" opacity="1.00" d=" M 59.24 51.57 C 58.73 46.97 62.93 43.24 67.40 44.11 C 68.20 44.86 68.77 45.79 69.38 46.69 C 66.46 45.40 63.80 46.32 62.21 49.20 C 59.66 51.01 62.73 52.95 63.19 54.88 C 61.87 54.23 60.66 53.30 59.19 53.00 C 58.29 56.49 57.47 60.09 54.23 62.19 C 54.14 61.64 53.98 60.54 53.89 60.00 C 57.48 58.46 56.10 53.56 59.24 51.57 Z" />
</g>
<g id="#3f73a6ff">
<path fill="#3f73a6" opacity="1.00" d=" M 80.65 45.64 C 90.74 43.63 101.03 43.98 111.25 43.73 C 111.79 44.06 112.85 44.70 113.38 45.03 C 109.80 45.60 106.30 46.44 102.78 47.28 C 93.69 46.21 82.28 43.85 75.23 51.27 C 75.35 52.88 75.72 54.46 75.96 56.06 C 74.09 54.14 72.03 51.72 73.84 49.05 C 76.39 48.45 78.05 46.09 80.65 45.64 Z" />
</g>
<g id="#2e5a91ff">
<path fill="#2e5a91" opacity="1.00" d=" M 38.25 50.20 C 40.19 48.04 41.47 44.21 45.05 44.98 C 42.02 49.63 41.12 56.19 36.73 59.55 C 36.91 58.11 37.11 56.67 37.31 55.23 C 37.70 53.57 37.97 51.88 38.25 50.20 Z" />
</g>
<g id="#254676ff">
<path fill="#254676" opacity="1.00" d=" M 45.05 44.98 C 45.73 44.97 47.11 44.95 47.79 44.94 L 48.30 45.43 C 43.16 48.21 43.64 55.77 40.26 60.30 C 39.46 61.99 37.71 60.06 36.73 59.55 C 41.12 56.19 42.02 49.63 45.05 44.98 Z" />
</g>
<g id="#385e8eff">
<path fill="#385e8e" opacity="1.00" d=" M 113.38 45.03 C 114.81 46.00 115.69 47.53 116.63 48.94 L 117.12 49.76 C 112.31 49.30 107.03 49.97 102.78 47.28 C 106.30 46.44 109.80 45.60 113.38 45.03 Z" />
</g>
<g id="#3c71a9ff">
<path fill="#3c71a9" opacity="1.00" d=" M 137.83 53.93 C 144.08 55.46 145.72 47.09 150.05 45.02 C 155.67 43.67 154.49 51.85 156.22 54.98 C 158.36 54.92 160.21 53.71 162.23 53.15 C 163.20 53.21 163.37 54.09 162.75 55.79 C 159.05 57.37 157.14 60.98 155.10 64.18 C 154.84 62.56 147.75 55.63 153.04 57.77 C 151.72 54.22 154.34 49.57 150.80 47.10 C 145.99 50.36 142.79 55.59 138.80 59.76 C 136.93 59.58 135.10 59.16 133.24 58.99 C 133.60 57.98 134.05 57.00 134.62 56.08 C 136.25 57.78 136.85 54.87 137.83 53.93 Z" />
</g>
<g id="#355e8eff">
<path fill="#355e8e" opacity="1.00" d=" M 25.12 55.26 C 27.19 50.54 31.14 44.55 37.12 46.53 C 35.77 47.70 34.39 48.83 33.05 50.02 C 31.54 49.97 29.09 47.79 28.97 51.01 C 26.01 54.68 28.29 59.76 25.86 63.52 C 25.18 61.70 25.86 59.76 25.46 57.90 C 25.37 57.24 25.21 55.92 25.12 55.26 Z" />
</g>
<g id="#497cbbff">
<path fill="#497cbb" opacity="1.00" d=" M 37.12 46.53 C 40.05 45.23 38.28 48.58 38.25 50.20 C 37.97 51.88 37.70 53.57 37.31 55.23 C 37.19 52.33 37.12 49.43 37.12 46.53 Z" />
</g>
<g id="#1c335dff">
<path fill="#1c335d" opacity="1.00" d=" M 40.26 60.30 C 43.64 55.77 43.16 48.21 48.30 45.43 C 48.77 45.79 49.72 46.50 50.19 46.86 C 48.13 49.87 46.70 54.26 49.02 57.49 C 47.59 59.09 45.91 60.46 44.09 61.60 C 40.37 62.24 36.86 63.66 33.18 64.45 C 29.31 63.54 29.31 56.65 31.66 53.93 C 33.03 56.07 34.36 58.37 36.73 59.55 C 37.71 60.06 39.46 61.99 40.26 60.30 Z" />
</g>
<g id="#274571ff">
<path fill="#274571" opacity="1.00" d=" M 62.21 49.20 C 63.80 46.32 66.46 45.40 69.38 46.69 C 69.81 46.81 70.65 47.06 71.08 47.18 C 70.21 48.30 69.38 49.46 68.85 50.79 C 65.19 49.33 64.16 54.92 62.86 57.28 C 60.36 58.45 61.33 62.01 58.70 63.19 C 56.77 64.67 54.82 66.11 52.92 67.61 C 51.59 68.59 50.23 69.52 48.88 70.48 C 48.96 67.98 51.05 66.27 52.17 64.21 C 52.86 63.55 53.55 62.87 54.23 62.19 C 57.47 60.09 58.29 56.49 59.19 53.00 C 60.66 53.30 61.87 54.23 63.19 54.88 C 62.73 52.95 59.66 51.01 62.21 49.20 Z" />
</g>
<g id="#2a4c7dff">
<path fill="#2a4c7d" opacity="1.00" d=" M 75.23 51.27 C 82.28 43.85 93.69 46.21 102.78 47.28 C 107.03 49.97 112.31 49.30 117.12 49.76 C 117.82 50.50 118.50 51.25 119.17 52.02 C 119.89 53.66 120.60 55.31 121.11 57.03 C 118.11 55.03 115.43 51.71 111.22 53.01 C 111.05 54.39 110.90 55.77 110.75 57.16 C 108.32 55.66 107.75 51.05 104.22 52.11 C 102.27 53.13 103.16 55.40 103.92 56.91 C 101.61 57.08 99.35 57.62 97.10 58.12 C 97.05 55.08 97.13 52.05 96.91 49.02 C 92.58 49.58 88.03 48.69 83.78 49.58 C 80.35 50.83 77.45 54.55 79.89 58.08 C 79.46 58.07 78.62 58.06 78.19 58.05 C 77.41 57.42 76.66 56.76 75.96 56.06 C 75.72 54.46 75.35 52.88 75.23 51.27 Z" />
</g>
<g id="#35669eff">
<path fill="#35669e" opacity="1.00" d=" M 129.56 51.64 C 130.36 49.70 131.04 47.71 131.88 45.77 C 131.81 47.23 131.67 50.14 131.61 51.59 C 128.57 54.91 127.00 61.37 121.77 61.10 C 121.02 59.25 122.05 57.48 122.85 55.84 C 125.21 54.73 128.26 54.15 129.56 51.64 Z" />
</g>
<g id="#213f6fff">
<path fill="#213f6f" opacity="1.00" d=" M 33.05 50.02 C 34.39 48.83 35.77 47.70 37.12 46.53 C 37.12 49.43 37.19 52.33 37.31 55.23 C 37.11 56.67 36.91 58.11 36.73 59.55 C 34.36 58.37 33.03 56.07 31.66 53.93 C 29.31 56.65 29.31 63.54 33.18 64.45 C 31.94 64.77 30.69 65.02 29.44 65.29 C 29.86 61.86 27.58 58.63 28.24 55.27 C 28.95 52.64 32.62 52.71 33.05 50.02 Z" />
</g>
<g id="#121b30ff">
<path fill="#121b30" opacity="1.00" d=" M 50.19 46.86 L 51.00 47.02 C 49.97 49.43 50.09 51.95 51.32 54.26 C 50.84 55.52 49.94 56.53 49.02 57.49 C 46.70 54.26 48.13 49.87 50.19 46.86 Z" />
</g>
<g id="#1f3a68ff">
<path fill="#1f3a68" opacity="1.00" d=" M 51.00 47.02 L 51.86 46.91 C 51.91 47.40 52.00 48.38 52.05 48.87 C 52.15 49.61 52.34 51.08 52.44 51.82 C 52.16 52.43 51.60 53.65 51.32 54.26 C 50.09 51.95 49.97 49.43 51.00 47.02 Z" />
</g>
<g id="#26497aff">
<path fill="#26497a" opacity="1.00" d=" M 133.26 46.82 C 135.24 47.38 136.56 49.06 138.13 50.28 C 136.98 52.23 135.79 54.15 134.62 56.08 C 134.05 57.00 133.60 57.98 133.24 58.99 C 132.87 60.06 132.47 61.11 132.04 62.15 C 130.90 59.93 128.13 65.27 126.66 66.04 C 126.07 65.48 125.50 64.90 124.93 64.32 C 128.60 58.98 134.07 53.89 133.26 46.82 Z" />
</g>
<g id="#336093fe">
<path fill="#336093" opacity="1.00" d=" M 138.80 59.76 C 142.79 55.59 145.99 50.36 150.80 47.10 C 154.34 49.57 151.72 54.22 153.04 57.77 C 147.75 55.63 154.84 62.56 155.10 64.18 C 157.14 60.98 159.05 57.37 162.75 55.79 C 164.16 56.98 164.29 58.82 162.90 60.08 L 162.25 59.74 C 158.40 59.10 154.61 66.10 159.94 67.29 C 159.18 68.11 158.50 69.01 157.97 70.01 C 155.80 71.05 153.72 72.35 152.19 74.25 C 151.87 76.82 153.23 79.45 151.91 81.94 L 151.11 82.41 C 149.98 81.41 148.88 80.39 147.78 79.36 C 148.95 77.43 149.26 75.18 149.08 72.96 C 147.82 68.10 143.46 62.55 146.64 57.68 C 147.21 56.29 149.39 52.79 146.27 54.28 C 142.28 57.61 137.67 65.23 131.68 63.02 L 132.04 62.15 C 132.47 61.11 132.87 60.06 133.24 58.99 C 135.10 59.16 136.93 59.58 138.80 59.76 Z" />
</g>
<g id="#427eb9ff">
<path fill="#427eb9" opacity="1.00" d=" M 52.05 48.87 C 52.51 48.72 53.42 48.42 53.87 48.27 C 58.07 50.91 55.26 56.36 53.89 60.00 C 52.40 61.13 51.08 62.47 50.05 64.04 C 48.90 65.55 47.51 66.86 46.02 68.04 C 45.23 68.00 43.64 67.93 42.85 67.89 C 47.92 64.31 53.78 58.67 52.44 51.82 C 52.34 51.08 52.15 49.61 52.05 48.87 Z" />
</g>
<g id="#4f90c8ff">
<path fill="#4f90c8" opacity="1.00" d=" M 71.63 51.34 C 70.59 49.59 73.11 49.01 74.09 48.07 L 73.84 49.05 C 72.03 51.72 74.09 54.14 75.96 56.06 C 76.66 56.76 77.41 57.42 78.19 58.05 C 76.59 58.61 74.93 59.30 73.20 58.92 C 71.19 56.95 73.10 53.73 71.63 51.34 Z" />
</g>
<g id="#13223fff">
<path fill="#13223f" opacity="1.00" d=" M 116.63 48.94 C 118.44 47.34 120.50 49.44 122.37 49.89 C 122.45 51.97 120.80 52.06 119.17 52.02 C 118.50 51.25 117.82 50.50 117.12 49.76 L 116.63 48.94 Z" />
</g>
<g id="#2c4e7dff">
<path fill="#2c4e7d" opacity="1.00" d=" M 28.97 51.01 C 29.09 47.79 31.54 49.97 33.05 50.02 C 32.62 52.71 28.95 52.64 28.24 55.27 C 27.58 58.63 29.86 61.86 29.44 65.29 C 28.76 65.54 27.41 66.04 26.73 66.29 C 26.38 65.39 26.09 64.46 25.86 63.52 C 28.29 59.76 26.01 54.68 28.97 51.01 Z" />
</g>
<g id="#142b58ff">
<path fill="#142b58" opacity="1.00" d=" M 83.78 49.58 C 88.03 48.69 92.58 49.58 96.91 49.02 C 97.13 52.05 97.05 55.08 97.10 58.12 C 96.61 58.29 95.64 58.62 95.15 58.79 C 94.58 56.27 91.29 56.73 89.45 55.59 C 88.43 52.85 87.50 49.19 83.78 49.58 Z" />
</g>
<g id="#1d325dff">
<path fill="#1d325d" opacity="1.00" d=" M 62.86 57.28 C 64.16 54.92 65.19 49.33 68.85 50.79 C 68.92 52.48 68.97 54.18 69.01 55.88 C 67.86 58.42 65.33 57.86 62.86 57.28 Z" />
</g>
<g id="#1f2534ff">
<path fill="#1f2534" opacity="1.00" d=" M 79.89 58.08 C 77.45 54.55 80.35 50.83 83.78 49.58 C 87.50 49.19 88.43 52.85 89.45 55.59 C 91.29 56.73 94.58 56.27 95.15 58.79 C 90.25 60.55 84.50 60.67 79.89 58.08 Z" />
</g>
<g id="#213d6aff">
<path fill="#213d6a" opacity="1.00" d=" M 122.37 49.89 C 122.49 51.38 122.73 54.35 122.85 55.84 C 122.05 57.48 121.02 59.25 121.77 61.10 L 120.86 61.16 C 115.33 59.29 109.51 58.57 103.92 56.91 C 103.16 55.40 102.27 53.13 104.22 52.11 C 107.75 51.05 108.32 55.66 110.75 57.16 C 110.90 55.77 111.05 54.39 111.22 53.01 C 115.43 51.71 118.11 55.03 121.11 57.03 C 120.60 55.31 119.89 53.66 119.17 52.02 C 120.80 52.06 122.45 51.97 122.37 49.89 Z" />
</g>
<g id="#5298d5ff">
<path fill="#5298d5" opacity="1.00" d=" M 52.44 51.82 C 53.78 58.67 47.92 64.31 42.85 67.89 C 41.32 68.37 39.80 68.88 38.27 69.33 C 37.39 69.19 35.65 68.90 34.78 68.75 C 37.86 66.86 42.73 66.71 44.35 63.20 C 44.29 62.80 44.15 62.00 44.09 61.60 C 45.91 60.46 47.59 59.09 49.02 57.49 C 49.94 56.53 50.84 55.52 51.32 54.26 C 51.60 53.65 52.16 52.43 52.44 51.82 Z" />
</g>
<g id="#5188baf2">
<path fill="#5188ba" opacity="0.95" d=" M 22.02 53.90 C 22.69 54.50 23.05 55.91 24.20 55.37 L 25.12 55.26 C 25.21 55.92 25.37 57.24 25.46 57.90 C 21.19 58.24 22.97 63.84 22.10 66.87 C 22.63 66.99 23.68 67.23 24.20 67.34 C 23.21 67.67 22.22 67.99 21.22 68.29 L 20.15 68.09 C 21.21 64.97 17.91 57.49 20.96 55.99 C 20.97 57.51 21.00 60.55 21.02 62.07 C 24.06 61.64 19.70 54.78 22.02 53.90 Z" />
</g>
<g id="#244578fd">
<path fill="#244578" opacity="1.00" d=" M 146.27 54.28 C 149.39 52.79 147.21 56.29 146.64 57.68 C 143.46 62.55 147.82 68.10 149.08 72.96 C 144.61 70.76 139.49 71.15 134.67 70.62 C 136.76 69.24 139.82 69.53 141.38 67.46 C 143.30 66.98 145.75 63.27 142.15 64.00 C 138.21 63.44 134.75 65.75 130.93 66.05 C 131.00 64.99 131.25 63.98 131.68 63.02 C 137.67 65.23 142.28 57.61 146.27 54.28 Z" />
</g>
<g id="#2d313eff">
<path fill="#2d313e" opacity="1.00" d=" M 62.86 57.28 C 65.33 57.86 67.86 58.42 69.01 55.88 C 69.08 56.34 69.22 57.27 69.29 57.74 C 69.17 59.48 69.06 61.22 68.83 62.95 C 65.46 63.58 62.09 63.66 58.70 63.19 C 61.33 62.01 60.36 58.45 62.86 57.28 Z" />
</g>
<g id="#3e75aeff">
<path fill="#3e75ae" opacity="1.00" d=" M 22.10 66.87 C 22.97 63.84 21.19 58.24 25.46 57.90 C 25.86 59.76 25.18 61.70 25.86 63.52 C 26.09 64.46 26.38 65.39 26.73 66.29 L 26.98 66.99 C 26.29 67.08 24.90 67.26 24.20 67.34 C 23.68 67.23 22.63 66.99 22.10 66.87 Z" />
</g>
<g id="#3b3e47ff">
<path fill="#3b3e47" opacity="1.00" d=" M 69.29 57.74 C 69.60 59.05 69.85 60.38 70.14 61.70 C 70.55 63.62 72.32 64.91 73.75 66.11 C 75.44 67.39 77.48 68.04 79.40 68.86 C 78.04 69.86 76.68 70.84 75.29 71.80 C 74.62 71.75 73.94 71.71 73.27 71.69 C 71.54 66.76 65.20 67.70 61.23 69.25 C 61.15 69.89 60.99 71.18 60.91 71.83 C 60.23 71.76 59.55 71.71 58.87 71.67 C 58.22 71.12 57.57 70.59 56.91 70.06 C 55.69 69.07 54.37 68.20 52.92 67.61 C 54.82 66.11 56.77 64.67 58.70 63.19 C 62.09 63.66 65.46 63.58 68.83 62.95 C 69.06 61.22 69.17 59.48 69.29 57.74 Z" />
</g>
<g id="#305381ff">
<path fill="#305381" opacity="1.00" d=" M 159.94 67.29 C 154.61 66.10 158.40 59.10 162.25 59.74 C 161.56 62.25 161.53 65.16 159.94 67.29 Z" />
<path fill="#305381" opacity="1.00" d=" M 70.89 102.81 C 72.28 103.87 73.67 104.95 75.11 105.95 C 75.69 106.66 76.26 107.38 76.82 108.11 C 76.89 108.48 77.02 109.21 77.09 109.58 C 73.40 111.72 75.32 116.54 75.57 120.01 C 75.00 122.64 73.73 125.07 73.99 127.88 C 75.33 127.98 76.66 128.05 78.00 128.08 L 78.99 128.12 C 78.77 128.37 78.32 128.87 78.10 129.12 C 75.10 129.37 72.12 129.62 69.15 130.09 C 68.55 130.03 67.34 129.91 66.74 129.85 C 69.64 127.13 73.58 124.46 74.03 120.00 C 73.70 116.37 71.12 113.53 67.80 112.23 C 74.63 115.28 71.73 110.32 72.61 107.68 C 73.57 105.77 71.30 105.37 70.03 104.75 L 70.25 104.03 C 70.41 103.72 70.73 103.11 70.89 102.81 Z" />
</g>
<g id="#376497ff">
<path fill="#376497" opacity="1.00" d=" M 50.05 64.04 C 51.08 62.47 52.40 61.13 53.89 60.00 C 53.98 60.54 54.14 61.64 54.23 62.19 C 53.55 62.87 52.86 63.55 52.17 64.21 C 51.64 64.17 50.58 64.08 50.05 64.04 Z" />
</g>
<g id="#5195cdff">
<path fill="#5195cd" opacity="1.00" d=" M 87.00 62.98 C 92.12 62.89 96.96 61.03 101.99 60.37 C 105.89 60.96 109.84 61.34 113.66 62.38 C 116.65 64.56 119.26 67.61 123.62 66.49 C 125.52 66.98 127.13 69.28 129.21 68.35 C 129.41 68.50 129.81 68.81 130.01 68.96 C 128.17 71.04 130.71 72.53 131.62 74.34 C 131.87 76.97 132.28 79.63 132.67 82.25 C 130.12 80.90 129.35 77.73 127.21 75.87 C 122.91 72.27 119.25 66.81 113.27 66.15 C 105.94 64.35 98.34 63.20 91.08 66.15 C 85.33 68.34 79.23 63.79 73.75 66.11 C 72.32 64.91 70.55 63.62 70.14 61.70 C 75.80 61.53 81.29 63.77 87.00 62.98 Z" />
</g>
<g id="#3e71a5fc">
<path fill="#3e71a5" opacity="1.00" d=" M 162.25 59.74 L 162.90 60.08 C 165.13 64.38 165.12 69.93 164.87 74.81 C 164.59 75.04 164.04 75.50 163.77 75.73 C 161.83 77.13 159.90 78.55 157.99 79.98 C 157.97 76.65 157.99 73.33 157.97 70.01 C 158.50 69.01 159.18 68.11 159.94 67.29 C 161.53 65.16 161.56 62.25 162.25 59.74 Z" />
</g>
<g id="#1a325efe">
<path fill="#1a325e" opacity="1.00" d=" M 126.66 66.04 C 128.13 65.27 130.90 59.93 132.04 62.15 L 131.68 63.02 C 131.25 63.98 131.00 64.99 130.93 66.05 C 134.75 65.75 138.21 63.44 142.15 64.00 C 140.17 64.68 140.07 65.93 141.38 67.46 C 139.82 69.53 136.76 69.24 134.67 70.62 C 139.49 71.15 144.61 70.76 149.08 72.96 C 149.26 75.18 148.95 77.43 147.78 79.36 C 144.97 77.51 142.34 75.31 139.14 74.13 C 135.81 72.93 132.62 71.39 130.01 68.96 C 129.81 68.81 129.41 68.50 129.21 68.35 C 128.33 67.61 127.48 66.84 126.66 66.04 Z" />
</g>
<g id="#77bdedff">
<path fill="#77bded" opacity="1.00" d=" M 33.18 64.45 C 36.86 63.66 40.37 62.24 44.09 61.60 C 44.15 62.00 44.29 62.80 44.35 63.20 C 38.83 64.19 33.50 66.02 28.16 67.72 C 27.86 67.54 27.28 67.17 26.98 66.99 L 26.73 66.29 C 27.41 66.04 28.76 65.54 29.44 65.29 C 30.69 65.02 31.94 64.77 33.18 64.45 Z" />
</g>
<g id="#5face7ff">
<path fill="#5face7" opacity="1.00" d=" M 28.16 67.72 C 33.50 66.02 38.83 64.19 44.35 63.20 C 42.73 66.71 37.86 66.86 34.78 68.75 C 29.44 70.72 24.56 74.22 18.86 74.99 C 21.51 72.51 25.90 71.54 27.32 67.99 L 28.16 67.72 Z" />
</g>
<g id="#345b88ff">
<path fill="#345b88" opacity="1.00" d=" M 50.05 64.04 C 50.58 64.08 51.64 64.17 52.17 64.21 C 51.05 66.27 48.96 67.98 48.88 70.48 C 47.36 72.11 45.04 72.41 43.02 73.06 C 39.91 73.76 36.76 74.41 33.80 75.62 C 31.37 75.75 32.13 78.41 31.80 80.07 C 30.82 77.86 29.09 76.12 26.63 77.64 C 26.23 77.75 25.45 77.97 25.06 78.08 C 30.67 72.46 39.62 72.46 46.02 68.04 C 47.51 66.86 48.90 65.55 50.05 64.04 Z" />
</g>
<g id="#3f6c9cff">
<path fill="#3f6c9c" opacity="1.00" d=" M 91.08 66.15 C 98.34 63.20 105.94 64.35 113.27 66.15 C 112.63 67.18 111.82 68.07 110.96 68.93 C 110.48 68.97 109.51 69.05 109.02 69.10 C 106.42 68.42 103.94 67.08 101.21 67.07 C 98.03 67.92 94.84 68.73 91.73 69.81 C 90.07 69.97 88.42 70.11 86.77 70.23 C 86.33 70.17 85.45 70.03 85.01 69.96 C 83.15 69.54 81.29 69.12 79.40 68.86 C 77.48 68.04 75.44 67.39 73.75 66.11 C 79.23 63.79 85.33 68.34 91.08 66.15 Z" />
</g>
<g id="#03070d3d">
<path fill="#03070d" opacity="0.24" d=" M 142.15 64.00 C 145.75 63.27 143.30 66.98 141.38 67.46 C 140.07 65.93 140.17 64.68 142.15 64.00 Z" />
</g>
<g id="#497dafff">
<path fill="#497daf" opacity="1.00" d=" M 113.27 66.15 C 119.25 66.81 122.91 72.27 127.21 75.87 C 125.07 75.43 123.02 74.20 120.78 74.58 C 118.73 73.14 116.99 71.25 114.80 70.03 C 114.40 69.90 113.60 69.65 113.20 69.53 C 112.64 69.38 111.52 69.08 110.96 68.93 C 111.82 68.07 112.63 67.18 113.27 66.15 Z" />
</g>
<g id="#8ddcf3fb">
<path fill="#8ddcf3" opacity="1.00" d=" M 24.20 67.34 C 24.90 67.26 26.29 67.08 26.98 66.99 C 27.28 67.17 27.86 67.54 28.16 67.72 L 27.32 67.99 C 24.04 68.36 21.17 70.71 17.85 70.51 C 18.86 69.60 20.01 68.89 21.22 68.29 C 22.22 67.99 23.21 67.67 24.20 67.34 Z" />
</g>
<g id="#212733ff">
<path fill="#212733" opacity="1.00" d=" M 91.73 69.81 C 94.84 68.73 98.03 67.92 101.21 67.07 C 101.84 68.93 102.01 70.90 102.09 72.86 C 100.75 73.43 99.48 74.14 98.15 74.74 C 96.86 73.13 96.12 69.92 93.59 71.78 C 93.24 71.53 92.54 71.02 92.19 70.76 L 91.73 69.81 Z" />
</g>
<g id="#336095ff">
<path fill="#336095" opacity="1.00" d=" M 101.21 67.07 C 103.94 67.08 106.42 68.42 109.02 69.10 C 109.80 77.45 106.47 85.91 108.86 94.12 C 108.31 93.90 107.20 93.46 106.65 93.24 C 105.57 86.91 106.19 80.49 106.93 74.17 C 105.80 73.32 104.55 72.66 103.26 72.11 C 102.93 73.15 102.60 74.19 102.28 75.23 C 102.23 74.64 102.14 73.45 102.09 72.86 C 102.01 70.90 101.84 68.93 101.21 67.07 Z" />
</g>
<g id="#77c1effb">
<path fill="#77c1ef" opacity="1.00" d=" M 17.85 70.51 C 21.17 70.71 24.04 68.36 27.32 67.99 C 25.90 71.54 21.51 72.51 18.86 74.99 C 16.64 74.83 14.68 76.80 15.16 79.04 C 11.18 81.98 10.47 86.45 11.06 91.17 C 9.92 90.80 9.30 90.15 9.20 89.24 C 7.78 84.87 12.57 81.80 11.50 77.82 C 12.66 75.36 15.84 72.33 17.85 70.51 Z" />
</g>
<g id="#3e6c9bfe">
<path fill="#3e6c9b" opacity="1.00" d=" M 38.27 69.33 C 39.80 68.88 41.32 68.37 42.85 67.89 C 43.64 67.93 45.23 68.00 46.02 68.04 C 39.62 72.46 30.67 72.46 25.06 78.08 C 23.61 79.74 22.08 81.31 20.63 82.96 C 19.92 83.75 19.34 84.65 18.81 85.56 C 13.26 84.97 12.88 90.97 13.88 95.05 C 13.03 94.17 11.11 93.62 11.20 92.24 C 10.77 86.28 14.79 81.61 18.78 77.79 C 24.91 74.21 31.80 72.19 38.27 69.33 Z" />
</g>
<g id="#e9e9eaff">
<path fill="#e9e9ea" opacity="1.00" d=" M 48.88 70.48 C 50.23 69.52 51.59 68.59 52.92 67.61 C 54.37 68.20 55.69 69.07 56.91 70.06 C 56.05 73.14 55.12 76.23 53.52 79.03 C 52.01 77.49 50.55 78.23 50.08 80.13 C 45.39 83.36 42.38 78.72 42.59 74.77 C 42.69 74.34 42.91 73.48 43.02 73.06 C 45.04 72.41 47.36 72.11 48.88 70.48 Z" />
</g>
<g id="#46464bff">
<path fill="#46464b" opacity="1.00" d=" M 61.23 69.25 C 65.20 67.70 71.54 66.76 73.27 71.69 C 70.51 75.80 68.53 81.30 71.30 85.89 C 70.31 90.27 63.47 90.08 60.96 86.80 C 62.19 81.92 62.60 76.64 60.91 71.83 C 60.99 71.18 61.15 69.89 61.23 69.25 Z" />
</g>
<g id="#568dc2ff">
<path fill="#568dc2" opacity="1.00" d=" M 18.86 74.99 C 24.56 74.22 29.44 70.72 34.78 68.75 C 35.65 68.90 37.39 69.19 38.27 69.33 C 31.80 72.19 24.91 74.21 18.78 77.79 C 14.79 81.61 10.77 86.28 11.20 92.24 L 11.06 91.17 C 10.47 86.45 11.18 81.98 15.16 79.04 C 16.80 78.13 18.28 76.83 18.86 74.99 Z" />
</g>
<g id="#edededff">
<path fill="#ededed" opacity="1.00" d=" M 79.40 68.86 C 81.29 69.12 83.15 69.54 85.01 69.96 C 84.02 72.29 83.45 74.87 81.84 76.87 C 78.87 79.00 75.25 79.77 71.88 81.02 C 71.42 77.50 72.94 74.32 75.29 71.80 C 76.68 70.84 78.04 69.86 79.40 68.86 Z" />
</g>
<g id="#2a4e7bff">
<path fill="#2a4e7b" opacity="1.00" d=" M 109.02 69.10 C 109.51 69.05 110.48 68.97 110.96 68.93 C 111.52 69.08 112.64 69.38 113.20 69.53 C 112.71 69.71 111.74 70.06 111.26 70.24 C 110.83 76.23 110.06 82.23 110.18 88.25 C 110.09 89.98 109.92 93.44 109.84 95.17 C 109.59 94.91 109.10 94.39 108.86 94.12 C 106.47 85.91 109.80 77.45 109.02 69.10 Z" />
</g>
<g id="#578fc4ff">
<path fill="#578fc4" opacity="1.00" d=" M 130.01 68.96 C 132.62 71.39 135.81 72.93 139.14 74.13 C 138.81 74.40 138.15 74.95 137.82 75.22 C 136.53 74.79 134.27 73.14 135.24 75.74 C 131.14 77.66 135.15 82.87 132.50 85.52 C 131.30 86.63 133.43 87.55 133.98 88.34 C 133.77 88.62 133.35 89.17 133.14 89.45 C 131.99 88.26 130.94 86.97 129.94 85.66 C 129.12 84.28 128.29 82.91 127.37 81.61 C 126.29 79.78 124.83 78.22 123.24 76.84 C 122.43 76.07 121.62 75.31 120.78 74.58 C 123.02 74.20 125.07 75.43 127.21 75.87 C 129.35 77.73 130.12 80.90 132.67 82.25 C 132.28 79.63 131.87 76.97 131.62 74.34 C 130.71 72.53 128.17 71.04 130.01 68.96 Z" />
</g>
<g id="#c0c0c0ff">
<path fill="#c0c0c0" opacity="1.00" d=" M 56.91 70.06 C 57.57 70.59 58.22 71.12 58.87 71.67 L 59.25 72.62 C 59.49 80.64 48.02 89.48 42.01 81.93 C 41.82 79.49 42.02 77.11 42.59 74.77 C 42.38 78.72 45.39 83.36 50.08 80.13 C 51.59 82.79 52.71 81.35 53.52 79.03 C 55.12 76.23 56.05 73.14 56.91 70.06 Z" />
<path fill="#c0c0c0" opacity="1.00" d=" M 88.21 70.81 C 88.64 70.93 89.52 71.18 89.95 71.30 C 89.88 74.87 87.08 77.67 85.93 80.95 C 85.28 80.34 84.62 79.73 83.97 79.12 C 83.47 79.05 82.46 78.89 81.96 78.81 C 85.11 77.09 86.75 73.93 88.21 70.81 Z" />
</g>
<g id="#d8d8d8ff">
<path fill="#d8d8d8" opacity="1.00" d=" M 85.01 69.96 C 85.45 70.03 86.33 70.17 86.77 70.23 C 87.13 70.38 87.85 70.66 88.21 70.81 C 86.75 73.93 85.11 77.09 81.96 78.81 C 81.66 79.11 81.07 79.70 80.77 79.99 C 79.18 83.09 75.08 84.92 71.91 83.07 C 71.90 82.56 71.89 81.53 71.88 81.02 C 75.25 79.77 78.87 79.00 81.84 76.87 C 83.45 74.87 84.02 72.29 85.01 69.96 Z" />
</g>
<g id="#a8aaabff">
<path fill="#a8aaab" opacity="1.00" d=" M 86.77 70.23 C 88.42 70.11 90.07 69.97 91.73 69.81 L 92.19 70.76 C 91.44 74.70 89.83 79.18 85.93 80.95 C 87.08 77.67 89.88 74.87 89.95 71.30 C 89.52 71.18 88.64 70.93 88.21 70.81 C 87.85 70.66 87.13 70.38 86.77 70.23 Z" />
</g>
<g id="#213e6bff">
<path fill="#213e6b" opacity="1.00" d=" M 111.26 70.24 C 111.74 70.06 112.71 69.71 113.20 69.53 C 113.60 69.65 114.40 69.90 114.80 70.03 C 114.67 72.35 112.69 75.46 115.26 76.85 C 117.92 76.95 120.58 76.94 123.24 76.84 C 124.83 78.22 126.29 79.78 127.37 81.61 C 125.73 82.15 122.23 81.11 123.04 83.92 L 123.03 84.87 C 121.76 83.44 121.04 81.44 119.20 80.62 C 116.83 78.73 111.87 77.64 111.97 82.07 C 111.44 84.15 110.88 86.22 110.18 88.25 C 110.06 82.23 110.83 76.23 111.26 70.24 Z" />
</g>
<g id="#2b578fff">
<path fill="#2b578f" opacity="1.00" d=" M 114.80 70.03 C 116.99 71.25 118.73 73.14 120.78 74.58 C 121.62 75.31 122.43 76.07 123.24 76.84 C 120.58 76.94 117.92 76.95 115.26 76.85 C 112.69 75.46 114.67 72.35 114.80 70.03 Z" />
</g>
<g id="#305987fd">
<path fill="#305987" opacity="1.00" d=" M 152.19 74.25 C 153.72 72.35 155.80 71.05 157.97 70.01 C 157.99 73.33 157.97 76.65 157.99 79.98 C 159.90 78.55 161.83 77.13 163.77 75.73 C 164.68 79.34 161.57 82.67 158.69 84.27 C 154.32 83.41 159.48 76.16 155.09 74.94 C 153.70 77.26 154.98 80.95 151.91 81.94 C 153.23 79.45 151.87 76.82 152.19 74.25 Z" />
</g>
<g id="#252832ff">
<path fill="#252832" opacity="1.00" d=" M 58.87 71.67 C 59.55 71.71 60.23 71.76 60.91 71.83 C 62.60 76.64 62.19 81.92 60.96 86.80 C 59.90 88.23 58.82 89.65 57.71 91.03 C 55.99 92.50 50.79 94.46 54.26 96.83 C 60.18 97.74 66.59 95.66 72.29 97.80 C 71.76 99.45 71.25 101.11 70.89 102.81 C 70.73 103.11 70.41 103.72 70.25 104.03 C 68.85 103.45 67.39 102.92 65.85 102.97 C 64.22 102.90 62.60 102.92 60.98 102.95 C 59.28 103.07 57.37 102.71 55.91 103.80 C 54.31 104.71 52.72 105.65 51.05 106.42 C 49.26 105.06 51.93 104.65 52.79 103.81 C 52.40 102.55 52.21 101.14 51.40 100.06 C 51.10 99.73 50.51 99.08 50.22 98.75 C 49.11 97.50 47.65 96.67 46.14 96.02 C 45.63 95.84 44.61 95.48 44.10 95.30 C 43.37 95.20 41.91 95.01 41.18 94.91 C 38.16 93.36 38.27 89.50 37.61 86.61 C 39.65 86.33 40.83 88.57 42.63 89.20 C 42.56 88.10 42.48 87.01 42.43 85.92 C 42.75 86.24 43.40 86.89 43.73 87.21 C 44.65 88.15 45.56 89.10 46.58 89.94 C 47.13 90.30 48.24 91.02 48.79 91.38 C 52.88 93.39 57.23 90.48 58.95 86.86 C 59.45 85.92 59.85 84.93 60.12 83.90 C 61.02 81.30 61.50 78.36 60.44 75.76 C 60.08 74.70 59.69 73.65 59.25 72.62 L 58.87 71.67 Z" />
</g>
<g id="#2e3037ff">
<path fill="#2e3037" opacity="1.00" d=" M 73.27 71.69 C 73.94 71.71 74.62 71.75 75.29 71.80 C 72.94 74.32 71.42 77.50 71.88 81.02 C 71.89 81.53 71.90 82.56 71.91 83.07 C 72.16 84.62 72.83 86.11 73.86 87.29 C 74.39 87.92 74.97 88.51 75.59 89.06 C 75.90 89.31 76.53 89.82 76.84 90.08 C 77.29 90.33 78.17 90.85 78.62 91.10 L 78.49 91.92 C 78.20 94.75 83.20 94.26 85.12 95.38 C 83.46 96.31 81.68 97.00 79.92 97.71 C 77.37 97.81 74.83 97.84 72.29 97.80 C 66.59 95.66 60.18 97.74 54.26 96.83 C 50.79 94.46 55.99 92.50 57.71 91.03 C 58.12 91.47 58.94 92.34 59.35 92.77 C 64.50 92.81 70.05 94.05 74.94 91.86 C 73.96 89.74 72.56 87.85 71.30 85.89 C 68.53 81.30 70.51 75.80 73.27 71.69 Z" />
</g>
<g id="#9d9d9dff">
<path fill="#9d9d9d" opacity="1.00" d=" M 92.19 70.76 C 92.54 71.02 93.24 71.53 93.59 71.78 L 94.08 72.43 C 90.85 80.71 83.53 85.82 75.59 89.06 C 74.97 88.51 74.39 87.92 73.86 87.29 C 76.87 86.28 79.87 85.20 82.74 83.81 C 82.55 83.44 82.18 82.68 82.00 82.30 C 84.06 82.39 84.01 80.69 83.97 79.12 C 84.62 79.73 85.28 80.34 85.93 80.95 C 89.83 79.18 91.44 74.70 92.19 70.76 Z" />
</g>
<g id="#1b1e28ff">
<path fill="#1b1e28" opacity="1.00" d=" M 93.59 71.78 C 96.12 69.92 96.86 73.13 98.15 74.74 C 99.48 74.14 100.75 73.43 102.09 72.86 C 102.14 73.45 102.23 74.64 102.28 75.23 C 101.94 76.42 101.57 77.61 101.14 78.78 C 99.96 81.29 98.91 83.95 99.03 86.78 C 97.13 91.70 98.93 96.55 101.38 100.90 C 99.81 104.94 95.13 106.65 92.53 110.04 C 91.88 110.69 91.25 111.35 90.63 112.03 C 89.23 109.56 87.98 106.97 86.09 104.83 C 84.76 103.18 83.30 101.65 81.96 100.00 C 81.32 99.21 80.64 98.44 79.92 97.71 C 81.68 97.00 83.46 96.31 85.12 95.38 C 83.20 94.26 78.20 94.75 78.49 91.92 L 79.56 92.18 C 86.09 95.72 90.44 89.47 94.98 85.97 C 96.64 84.76 97.14 82.76 96.99 80.80 C 97.00 79.11 97.25 77.27 96.36 75.73 C 96.08 75.27 95.50 74.34 95.22 73.87 C 94.93 73.51 94.36 72.79 94.08 72.43 L 93.59 71.78 Z" />
</g>
<g id="#3d75afff">
<path fill="#3d75af" opacity="1.00" d=" M 103.26 72.11 C 104.55 72.66 105.80 73.32 106.93 74.17 C 106.19 80.49 105.57 86.91 106.65 93.24 C 106.17 93.25 105.21 93.25 104.74 93.25 C 102.82 88.75 107.14 80.45 101.14 78.78 C 101.57 77.61 101.94 76.42 102.28 75.23 C 102.60 74.19 102.93 73.15 103.26 72.11 Z" />
</g>
<g id="#2b303bff">
<path fill="#2b303b" opacity="1.00" d=" M 33.80 75.62 C 36.76 74.41 39.91 73.76 43.02 73.06 C 42.91 73.48 42.69 74.34 42.59 74.77 C 42.02 77.11 41.82 79.49 42.01 81.93 C 42.08 83.26 42.26 84.59 42.43 85.92 C 42.48 87.01 42.56 88.10 42.63 89.20 C 40.83 88.57 39.65 86.33 37.61 86.61 L 36.80 86.62 C 35.90 82.92 34.94 79.24 33.80 75.62 Z" />
</g>
<g id="#a0a0a0ff">
<path fill="#a0a0a0" opacity="1.00" d=" M 59.25 72.62 C 59.69 73.65 60.08 74.70 60.44 75.76 C 60.09 83.94 51.07 88.37 43.73 87.21 C 43.40 86.89 42.75 86.24 42.43 85.92 C 42.26 84.59 42.08 83.26 42.01 81.93 C 48.02 89.48 59.49 80.64 59.25 72.62 Z" />
</g>
<g id="#8c8c8cff">
<path fill="#8c8c8c" opacity="1.00" d=" M 75.59 89.06 C 83.53 85.82 90.85 80.71 94.08 72.43 C 94.36 72.79 94.93 73.51 95.22 73.87 C 91.44 81.53 84.87 87.32 76.84 90.08 C 76.53 89.82 75.90 89.31 75.59 89.06 Z" />
</g>
<g id="#797979ff">
<path fill="#797979" opacity="1.00" d=" M 95.22 73.87 C 95.50 74.34 96.08 75.27 96.36 75.73 L 96.09 76.68 C 91.33 82.68 85.80 88.12 78.62 91.10 C 78.17 90.85 77.29 90.33 76.84 90.08 C 84.87 87.32 91.44 81.53 95.22 73.87 Z" />
</g>
<g id="#3f699aff">
<path fill="#3f699a" opacity="1.00" d=" M 135.24 75.74 C 134.27 73.14 136.53 74.79 137.82 75.22 C 141.15 77.09 145.08 78.62 147.04 82.10 C 143.79 80.62 140.72 78.54 137.11 78.02 C 137.00 78.57 136.78 79.66 136.67 80.20 C 136.19 78.71 135.76 77.21 135.24 75.74 Z" />
</g>
<g id="#477aacff">
<path fill="#477aac" opacity="1.00" d=" M 139.14 74.13 C 142.34 75.31 144.97 77.51 147.78 79.36 C 148.88 80.39 149.98 81.41 151.11 82.41 C 151.01 83.97 150.92 85.52 150.83 87.07 C 150.44 87.04 149.65 86.98 149.26 86.96 C 149.00 85.13 148.18 83.52 147.04 82.10 C 145.08 78.62 141.15 77.09 137.82 75.22 C 138.15 74.95 138.81 74.40 139.14 74.13 Z" />
</g>
<g id="#6aa7d8ff">
<path fill="#6aa7d8" opacity="1.00" d=" M 15.16 79.04 C 14.68 76.80 16.64 74.83 18.86 74.99 C 18.28 76.83 16.80 78.13 15.16 79.04 Z" />
</g>
<g id="#2c4c7bfa">
<path fill="#2c4c7b" opacity="0.98" d=" M 155.09 74.94 C 159.48 76.16 154.32 83.41 158.69 84.27 C 158.60 90.56 157.96 97.25 154.80 102.80 C 151.00 105.91 147.73 109.78 146.81 114.75 L 146.26 114.74 C 145.17 109.70 140.07 113.14 136.99 114.08 C 136.44 111.39 137.42 109.52 140.23 109.25 C 145.58 107.01 152.63 103.21 152.65 96.66 C 154.47 92.94 151.31 90.39 150.83 87.07 C 150.92 85.52 151.01 83.97 151.11 82.41 L 151.91 81.94 C 154.98 80.95 153.70 77.26 155.09 74.94 Z" />
</g>
<g id="#234270ff">
<path fill="#234270" opacity="1.00" d=" M 31.80 80.07 C 32.13 78.41 31.37 75.75 33.80 75.62 C 34.94 79.24 35.90 82.92 36.80 86.62 C 36.22 90.16 36.34 93.89 34.98 97.28 C 32.84 92.03 35.86 85.52 32.18 80.81 L 31.80 80.07 Z" />
</g>
<g id="#838383ff">
<path fill="#838383" opacity="1.00" d=" M 60.44 75.76 C 61.50 78.36 61.02 81.30 60.12 83.90 C 55.67 86.10 51.55 88.94 46.58 89.94 C 45.56 89.10 44.65 88.15 43.73 87.21 C 51.07 88.37 60.09 83.94 60.44 75.76 Z" />
</g>
<g id="#565656ff">
<path fill="#565656" opacity="1.00" d=" M 96.36 75.73 C 97.25 77.27 97.00 79.11 96.99 80.80 C 92.42 85.06 88.38 91.07 81.74 91.90 C 86.72 87.18 94.74 84.12 96.09 76.68 L 96.36 75.73 Z" />
</g>
<g id="#4c7eb1ff">
<path fill="#4c7eb1" opacity="1.00" d=" M 135.24 75.74 C 135.76 77.21 136.19 78.71 136.67 80.20 C 136.80 80.66 137.05 81.57 137.18 82.03 C 136.45 84.28 135.46 86.48 133.98 88.34 C 133.43 87.55 131.30 86.63 132.50 85.52 C 135.15 82.87 131.14 77.66 135.24 75.74 Z" />
<path fill="#4c7eb1" opacity="1.00" d=" M 115.15 107.06 C 118.48 107.62 121.81 108.00 125.19 108.21 C 123.41 109.24 121.62 110.25 119.80 111.21 C 117.18 110.98 114.42 111.49 111.98 110.38 C 113.65 109.96 114.30 108.37 115.15 107.06 Z" />
</g>
<g id="#376ba4ff">
<path fill="#376ba4" opacity="1.00" d=" M 26.63 77.64 C 29.09 76.12 30.82 77.86 31.80 80.07 L 32.18 80.81 C 33.23 86.68 32.52 92.48 31.72 98.30 C 31.50 98.58 31.07 99.13 30.86 99.41 C 30.42 98.23 30.04 97.04 29.70 95.83 C 29.84 95.17 30.10 93.86 30.23 93.20 C 31.68 87.62 27.90 82.84 26.63 77.64 Z" />
</g>
<g id="#686868ff">
<path fill="#686868" opacity="1.00" d=" M 78.62 91.10 C 85.80 88.12 91.33 82.68 96.09 76.68 C 94.74 84.12 86.72 87.18 81.74 91.90 C 81.19 91.97 80.11 92.11 79.56 92.18 L 78.49 91.92 L 78.62 91.10 Z" />
</g>
<g id="#a0f3ffff">
<path fill="#a0f3ff" opacity="1.00" d=" M 11.50 77.82 C 12.57 81.80 7.78 84.87 9.20 89.24 C 9.12 86.51 9.05 83.78 8.99 81.04 C 9.26 79.64 10.70 78.90 11.50 77.82 Z" />
</g>
<g id="#4b7eb4fd">
<path fill="#4b7eb4" opacity="1.00" d=" M 25.06 78.08 C 25.45 77.97 26.23 77.75 26.63 77.64 C 27.90 82.84 31.68 87.62 30.23 93.20 C 29.14 91.81 29.72 85.50 27.65 88.08 C 27.00 86.78 26.38 85.46 25.73 84.16 C 24.71 84.80 23.76 85.56 22.79 86.27 C 21.83 85.33 21.10 84.21 20.63 82.96 C 22.08 81.31 23.61 79.74 25.06 78.08 Z" />
</g>
<g id="#434343ff">
<path fill="#434343" opacity="1.00" d=" M 50.08 80.13 C 50.55 78.23 52.01 77.49 53.52 79.03 C 52.71 81.35 51.59 82.79 50.08 80.13 Z" />
</g>
<g id="#315788ff">
<path fill="#315788" opacity="1.00" d=" M 137.11 78.02 C 140.72 78.54 143.79 80.62 147.04 82.10 C 148.18 83.52 149.00 85.13 149.26 86.96 C 147.42 92.63 146.86 99.89 140.94 103.01 C 141.25 101.34 141.66 99.69 141.94 98.01 C 139.49 98.05 137.00 98.85 134.58 98.12 C 134.92 97.09 135.30 96.09 135.73 95.10 C 139.53 97.24 142.51 90.32 146.86 90.71 C 145.74 85.89 140.97 84.36 137.18 82.03 C 137.05 81.57 136.80 80.66 136.67 80.20 C 136.78 79.66 137.00 78.57 137.11 78.02 Z" />
</g>
<g id="#2a2a2aff">
<path fill="#2a2a2a" opacity="1.00" d=" M 80.77 79.99 C 81.07 79.70 81.66 79.11 81.96 78.81 C 82.46 78.89 83.47 79.05 83.97 79.12 C 84.01 80.69 84.06 82.39 82.00 82.30 C 81.69 81.72 81.07 80.57 80.77 79.99 Z" />
</g>
<g id="#4b8bc5ff">
<path fill="#4b8bc5" opacity="1.00" d=" M 101.14 78.78 C 107.14 80.45 102.82 88.75 104.74 93.25 C 101.63 92.20 102.73 87.08 99.03 86.78 C 98.91 83.95 99.96 81.29 101.14 78.78 Z" />
</g>
<g id="#19325bff">
<path fill="#19325b" opacity="1.00" d=" M 111.97 82.07 C 111.87 77.64 116.83 78.73 119.20 80.62 C 118.65 80.87 117.54 81.36 116.98 81.60 C 115.31 81.82 113.64 81.95 111.97 82.07 Z" />
</g>
<g id="#b6b6b6ff">
<path fill="#b6b6b6" opacity="1.00" d=" M 71.91 83.07 C 75.08 84.92 79.18 83.09 80.77 79.99 C 81.07 80.57 81.69 81.72 82.00 82.30 C 82.18 82.68 82.55 83.44 82.74 83.81 C 79.87 85.20 76.87 86.28 73.86 87.29 C 72.83 86.11 72.16 84.62 71.91 83.07 Z" />
</g>
<g id="#597e7db2">
<path fill="#597e7d" opacity="0.70" d=" M 8.05 81.01 L 8.99 81.04 C 9.05 83.78 9.12 86.51 9.20 89.24 C 6.70 88.09 8.47 83.54 8.05 81.01 Z" />
</g>
<g id="#2d5b91ff">
<path fill="#2d5b91" opacity="1.00" d=" M 32.18 80.81 C 35.86 85.52 32.84 92.03 34.98 97.28 L 35.20 97.87 C 34.33 97.98 32.59 98.19 31.72 98.30 C 32.52 92.48 33.23 86.68 32.18 80.81 Z" />
</g>
<g id="#3e3e3fff">
<path fill="#3e3e3f" opacity="1.00" d=" M 81.74 91.90 C 88.38 91.07 92.42 85.06 96.99 80.80 C 97.14 82.76 96.64 84.76 94.98 85.97 C 90.44 89.47 86.09 95.72 79.56 92.18 C 80.11 92.11 81.19 91.97 81.74 91.90 Z" />
</g>
<g id="#112041ff">
<path fill="#112041" opacity="1.00" d=" M 116.98 81.60 C 117.54 81.36 118.65 80.87 119.20 80.62 C 121.04 81.44 121.76 83.44 123.03 84.87 C 122.25 87.89 120.54 90.48 118.12 92.43 C 116.61 91.86 115.23 90.97 114.14 89.78 C 113.05 86.15 120.34 84.87 116.98 81.60 Z" />
</g>
<g id="#0f1420ff">
<path fill="#0f1420" opacity="1.00" d=" M 111.97 82.07 C 113.64 81.95 115.31 81.82 116.98 81.60 C 120.34 84.87 113.05 86.15 114.14 89.78 C 115.23 90.97 116.61 91.86 118.12 92.43 C 116.23 94.34 113.85 95.63 111.69 97.20 C 111.07 96.53 110.45 95.85 109.84 95.17 C 109.92 93.44 110.09 89.98 110.18 88.25 C 110.88 86.22 111.44 84.15 111.97 82.07 Z" />
</g>
<g id="#2a5087ff">
<path fill="#2a5087" opacity="1.00" d=" M 123.04 83.92 C 122.23 81.11 125.73 82.15 127.37 81.61 C 128.29 82.91 129.12 84.28 129.94 85.66 C 129.17 87.56 128.83 89.72 127.27 91.19 C 126.97 88.34 127.29 83.16 123.04 83.92 Z" />
</g>
<g id="#3a679bff">
<path fill="#3a679b" opacity="1.00" d=" M 137.18 82.03 C 140.97 84.36 145.74 85.89 146.86 90.71 C 142.51 90.32 139.53 97.24 135.73 95.10 C 136.36 93.74 136.90 92.34 137.34 90.90 L 137.98 91.24 C 138.42 96.88 144.20 84.29 139.17 88.02 C 138.94 86.68 139.41 84.56 137.37 84.87 C 137.99 86.82 137.18 88.63 136.22 90.30 C 135.09 90.26 133.96 90.12 132.84 90.02 L 133.14 89.45 C 133.35 89.17 133.77 88.62 133.98 88.34 C 135.46 86.48 136.45 84.28 137.18 82.03 Z" />
</g>
<g id="#03060826">
<path fill="#030608" opacity="0.15" d=" M 18.81 85.56 C 19.34 84.65 19.92 83.75 20.63 82.96 C 21.10 84.21 21.83 85.33 22.79 86.27 C 24.06 87.68 25.51 88.93 26.99 90.11 C 27.64 91.39 28.08 92.76 27.97 94.22 C 24.21 92.13 21.66 88.68 18.81 85.56 Z" />
</g>
<g id="#345e92f7">
<path fill="#345e92" opacity="0.97" d=" M 22.79 86.27 C 23.76 85.56 24.71 84.80 25.73 84.16 C 26.38 85.46 27.00 86.78 27.65 88.08 C 27.49 88.59 27.16 89.61 26.99 90.11 C 25.51 88.93 24.06 87.68 22.79 86.27 Z" />
</g>
<g id="#6c6c6cff">
<path fill="#6c6c6c" opacity="1.00" d=" M 46.58 89.94 C 51.55 88.94 55.67 86.10 60.12 83.90 C 59.85 84.93 59.45 85.92 58.95 86.86 C 55.67 88.60 52.36 90.29 48.79 91.38 C 48.24 91.02 47.13 90.30 46.58 89.94 Z" />
</g>
<g id="#305d96ff">
<path fill="#305d96" opacity="1.00" d=" M 123.04 83.92 C 127.29 83.16 126.97 88.34 127.27 91.19 C 124.50 94.52 121.65 97.79 118.78 101.04 C 118.08 100.91 116.70 100.67 116.00 100.55 C 114.83 100.00 113.65 99.47 112.44 99.01 C 112.25 98.55 111.88 97.65 111.69 97.20 C 116.76 97.02 119.95 92.54 123.26 89.25 C 124.58 88.08 124.06 86.03 123.03 84.87 L 123.04 83.92 Z" />
</g>
<g id="#4272b6ff">
<path fill="#4272b6" opacity="1.00" d=" M 123.03 84.87 C 124.06 86.03 124.58 88.08 123.26 89.25 C 119.95 92.54 116.76 97.02 111.69 97.20 C 113.85 95.63 116.23 94.34 118.12 92.43 C 120.54 90.48 122.25 87.89 123.03 84.87 Z" />
</g>
<g id="#1e4174ff">
<path fill="#1e4174" opacity="1.00" d=" M 137.37 84.87 C 139.41 84.56 138.94 86.68 139.17 88.02 C 138.78 89.10 138.38 90.17 137.98 91.24 L 137.34 90.90 C 137.06 90.75 136.50 90.45 136.22 90.30 C 137.18 88.63 137.99 86.82 137.37 84.87 Z" />
</g>
<g id="#2f5889fd">
<path fill="#2f5889" opacity="1.00" d=" M 13.88 95.05 C 12.88 90.97 13.26 84.97 18.81 85.56 C 21.66 88.68 24.21 92.13 27.97 94.22 L 27.94 95.23 C 24.94 94.02 22.14 92.36 19.18 91.05 C 16.36 94.64 19.60 97.92 20.33 101.33 C 17.94 99.63 15.46 97.56 13.88 95.05 Z" />
</g>
<g id="#393a40ff">
<path fill="#393a40" opacity="1.00" d=" M 71.30 85.89 C 72.56 87.85 73.96 89.74 74.94 91.86 C 70.05 94.05 64.50 92.81 59.35 92.77 C 58.94 92.34 58.12 91.47 57.71 91.03 C 58.82 89.65 59.90 88.23 60.96 86.80 C 63.47 90.08 70.31 90.27 71.30 85.89 Z" />
</g>
<g id="#274675ff">
<path fill="#274675" opacity="1.00" d=" M 127.27 91.19 C 128.83 89.72 129.17 87.56 129.94 85.66 C 130.94 86.97 131.99 88.26 133.14 89.45 L 132.84 90.02 C 131.82 92.08 130.45 93.92 129.20 95.84 C 130.50 97.55 133.24 102.10 134.58 98.12 C 137.00 98.85 139.49 98.05 141.94 98.01 C 141.66 99.69 141.25 101.34 140.94 103.01 C 139.93 104.42 139.04 102.95 138.14 102.29 C 137.65 102.02 136.68 101.47 136.19 101.20 C 133.55 101.07 130.90 101.08 128.27 101.22 C 125.41 101.20 122.56 101.19 119.71 101.19 L 118.78 101.04 C 121.65 97.79 124.50 94.52 127.27 91.19 Z" />
</g>
<g id="#5a92c8f9">
<path fill="#5a92c8" opacity="0.98" d=" M 27.65 88.08 C 29.72 85.50 29.14 91.81 30.23 93.20 C 30.10 93.86 29.84 95.17 29.70 95.83 C 29.27 98.03 26.65 100.47 28.13 102.60 C 27.26 103.46 26.18 103.61 25.06 103.19 C 25.94 100.51 27.28 97.98 27.94 95.23 L 27.97 94.22 C 28.08 92.76 27.64 91.39 26.99 90.11 C 27.16 89.61 27.49 88.59 27.65 88.08 Z" />
</g>
<g id="#1a2e56ff">
<path fill="#1a2e56" opacity="1.00" d=" M 34.98 97.28 C 36.34 93.89 36.22 90.16 36.80 86.62 L 37.61 86.61 C 38.27 89.50 38.16 93.36 41.18 94.91 C 39.20 95.92 37.18 96.86 34.98 97.28 Z" />
</g>
<g id="#545455ff">
<path fill="#545455" opacity="1.00" d=" M 48.79 91.38 C 52.36 90.29 55.67 88.60 58.95 86.86 C 57.23 90.48 52.88 93.39 48.79 91.38 Z" />
</g>
<g id="#58a1dbff">
<path fill="#58a1db" opacity="1.00" d=" M 99.03 86.78 C 102.73 87.08 101.63 92.20 104.74 93.25 C 107.10 95.44 108.32 102.24 112.44 99.01 C 113.65 99.47 114.83 100.00 116.00 100.55 C 112.94 104.15 119.48 104.45 121.89 104.77 C 126.35 102.31 132.43 104.67 136.19 101.20 C 136.68 101.47 137.65 102.02 138.14 102.29 C 136.65 104.43 133.89 105.21 131.90 106.82 C 129.61 106.98 127.31 107.27 125.19 108.21 C 121.81 108.00 118.48 107.62 115.15 107.06 C 112.46 107.03 106.33 101.25 105.79 105.91 L 105.09 105.66 C 104.40 105.01 103.71 104.36 103.02 103.71 C 102.45 102.78 101.91 101.84 101.38 100.90 C 98.93 96.55 97.13 91.70 99.03 86.78 Z" />
</g>
<g id="#4778b8ff">
<path fill="#4778b8" opacity="1.00" d=" M 139.17 88.02 C 144.20 84.29 138.42 96.88 137.98 91.24 C 138.38 90.17 138.78 89.10 139.17 88.02 Z" />
</g>
<g id="#37699fff">
<path fill="#37699f" opacity="1.00" d=" M 149.26 86.96 C 149.65 86.98 150.44 87.04 150.83 87.07 C 151.31 90.39 154.47 92.94 152.65 96.66 C 152.63 103.21 145.58 107.01 140.23 109.25 C 138.75 107.55 137.02 107.07 135.17 108.49 C 133.43 108.55 131.71 108.82 129.97 108.97 C 130.61 108.24 131.25 107.53 131.90 106.82 C 133.89 105.21 136.65 104.43 138.14 102.29 C 139.04 102.95 139.93 104.42 140.94 103.01 C 146.86 99.89 147.42 92.63 149.26 86.96 Z" />
</g>
<g id="#122548ff">
<path fill="#122548" opacity="1.00" d=" M 129.20 95.84 C 130.45 93.92 131.82 92.08 132.84 90.02 C 133.96 90.12 135.09 90.26 136.22 90.30 C 136.50 90.45 137.06 90.75 137.34 90.90 C 136.90 92.34 136.36 93.74 135.73 95.10 C 135.30 96.09 134.92 97.09 134.58 98.12 C 133.24 102.10 130.50 97.55 129.20 95.84 Z" />
</g>
<g id="#24406dfc">
<path fill="#24406d" opacity="1.00" d=" M 19.18 91.05 C 22.14 92.36 24.94 94.02 27.94 95.23 C 27.28 97.98 25.94 100.51 25.06 103.19 C 24.89 103.40 24.55 103.80 24.38 104.00 C 23.16 103.08 20.54 103.04 20.33 101.33 C 19.60 97.92 16.36 94.64 19.18 91.05 Z" />
</g>
<g id="#508ac1ff">
<path fill="#508ac1" opacity="1.00" d=" M 104.74 93.25 C 105.21 93.25 106.17 93.25 106.65 93.24 C 107.20 93.46 108.31 93.90 108.86 94.12 C 109.10 94.39 109.59 94.91 109.84 95.17 C 110.45 95.85 111.07 96.53 111.69 97.20 C 111.88 97.65 112.25 98.55 112.44 99.01 C 108.32 102.24 107.10 95.44 104.74 93.25 Z" />
</g>
<g id="#4783beff">
<path fill="#4783be" opacity="1.00" d=" M 34.98 97.28 C 37.18 96.86 39.20 95.92 41.18 94.91 C 41.91 95.01 43.37 95.20 44.10 95.30 C 38.55 97.39 35.35 102.47 31.83 106.90 C 29.90 108.93 27.93 110.94 25.94 112.91 C 28.20 108.86 30.67 104.92 32.88 100.85 C 33.28 99.55 36.15 99.39 35.20 97.87 L 34.98 97.28 Z" />
</g>
<g id="#386aa2ff">
<path fill="#386aa2" opacity="1.00" d=" M 44.10 95.30 C 44.61 95.48 45.63 95.84 46.14 96.02 C 44.00 97.93 41.77 99.77 39.93 101.99 C 37.19 103.56 34.51 105.23 31.83 106.90 C 35.35 102.47 38.55 97.39 44.10 95.30 Z" />
</g>
<g id="#4c80b6ff">
<path fill="#4c80b6" opacity="1.00" d=" M 28.13 102.60 C 26.65 100.47 29.27 98.03 29.70 95.83 C 30.04 97.04 30.42 98.23 30.86 99.41 C 30.22 100.29 29.58 101.17 28.97 102.07 L 28.13 102.60 Z" />
</g>
<g id="#2b568cff">
<path fill="#2b568c" opacity="1.00" d=" M 46.14 96.02 C 47.65 96.67 49.11 97.50 50.22 98.75 C 46.76 99.73 43.34 100.83 39.93 101.99 C 41.77 99.77 44.00 97.93 46.14 96.02 Z" />
</g>
<g id="#5da0d8fc">
<path fill="#5da0d8" opacity="1.00" d=" M 31.72 98.30 C 32.59 98.19 34.33 97.98 35.20 97.87 C 36.15 99.39 33.28 99.55 32.88 100.85 C 30.67 104.92 28.20 108.86 25.94 112.91 C 22.82 117.67 25.12 123.25 25.42 128.22 C 23.80 126.19 22.85 123.72 22.29 121.21 C 22.88 114.31 24.30 107.45 28.97 102.07 C 29.58 101.17 30.22 100.29 30.86 99.41 C 31.07 99.13 31.50 98.58 31.72 98.30 Z" />
</g>
<g id="#325b92ff">
<path fill="#325b92" opacity="1.00" d=" M 72.29 97.80 C 74.83 97.84 77.37 97.81 79.92 97.71 C 80.64 98.44 81.32 99.21 81.96 100.00 C 79.29 99.93 76.63 99.94 73.96 100.06 C 74.16 102.06 74.70 103.99 75.11 105.95 C 73.67 104.95 72.28 103.87 70.89 102.81 C 71.25 101.11 71.76 99.45 72.29 97.80 Z" />
</g>
<g id="#264575fe">
<path fill="#264575" opacity="1.00" d=" M 39.93 101.99 C 43.34 100.83 46.76 99.73 50.22 98.75 C 50.51 99.08 51.10 99.73 51.40 100.06 C 47.94 102.09 42.62 101.68 40.71 105.75 C 40.49 107.30 40.05 110.42 39.84 111.98 C 37.15 109.82 36.43 112.55 35.96 114.94 C 35.67 115.93 35.37 116.92 35.04 117.90 C 34.26 117.95 32.68 118.05 31.90 118.10 C 34.77 116.93 32.40 115.39 31.30 113.81 C 31.87 108.54 36.15 105.18 39.93 101.99 Z" />
</g>
<g id="#1d355fff">
<path fill="#1d355f" opacity="1.00" d=" M 51.40 100.06 C 52.21 101.14 52.40 102.55 52.79 103.81 C 51.93 104.65 49.26 105.06 51.05 106.42 C 50.64 106.62 49.81 107.01 49.40 107.21 C 49.69 104.30 46.29 104.57 44.73 105.95 C 43.39 105.90 42.05 105.83 40.71 105.75 C 42.62 101.68 47.94 102.09 51.40 100.06 Z" />
</g>
<g id="#3a6ba4ff">
<path fill="#3a6ba4" opacity="1.00" d=" M 73.96 100.06 C 76.63 99.94 79.29 99.93 81.96 100.00 C 83.30 101.65 84.76 103.18 86.09 104.83 C 86.12 106.98 86.42 109.10 86.89 111.19 C 83.85 108.41 82.05 102.79 77.11 103.99 C 76.97 105.36 76.87 106.73 76.82 108.11 C 76.26 107.38 75.69 106.66 75.11 105.95 C 74.70 103.99 74.16 102.06 73.96 100.06 Z" />
</g>
<g id="#3f6eaeff">
<path fill="#3f6eae" opacity="1.00" d=" M 101.38 100.90 C 101.91 101.84 102.45 102.78 103.02 103.71 C 99.54 105.44 96.68 108.04 93.77 110.55 C 93.46 110.42 92.84 110.17 92.53 110.04 C 95.13 106.65 99.81 104.94 101.38 100.90 Z" />
</g>
<g id="#6cb6ecff">
<path fill="#6cb6ec" opacity="1.00" d=" M 121.89 104.77 C 119.48 104.45 112.94 104.15 116.00 100.55 C 116.70 100.67 118.08 100.91 118.78 101.04 L 119.71 101.19 C 122.54 101.75 125.57 102.61 128.27 101.22 C 130.90 101.08 133.55 101.07 136.19 101.20 C 132.43 104.67 126.35 102.31 121.89 104.77 Z" />
</g>
<g id="#4d80b2ff">
<path fill="#4d80b2" opacity="1.00" d=" M 119.71 101.19 C 122.56 101.19 125.41 101.20 128.27 101.22 C 125.57 102.61 122.54 101.75 119.71 101.19 Z" />
</g>
<g id="#7bc2e9f5">
<path fill="#7bc2e9" opacity="0.96" d=" M 28.13 102.60 L 28.97 102.07 C 24.30 107.45 22.88 114.31 22.29 121.21 C 20.73 116.84 23.77 112.27 21.34 108.26 C 22.36 106.84 23.31 105.38 24.38 104.00 C 24.55 103.80 24.89 103.40 25.06 103.19 C 26.18 103.61 27.26 103.46 28.13 102.60 Z" />
</g>
<g id="#305788fd">
<path fill="#305788" opacity="1.00" d=" M 31.83 106.90 C 34.51 105.23 37.19 103.56 39.93 101.99 C 36.15 105.18 31.87 108.54 31.30 113.81 C 32.40 115.39 34.77 116.93 31.90 118.10 C 31.94 121.59 34.94 122.47 37.86 122.76 C 37.89 122.39 37.95 121.64 37.98 121.27 L 38.84 121.25 C 39.59 121.87 40.34 122.50 41.09 123.13 C 43.97 127.02 48.88 123.04 49.44 119.36 C 50.30 116.14 53.74 114.50 56.73 113.79 L 56.48 114.82 C 54.03 119.67 59.95 117.74 63.24 117.76 C 64.26 118.09 65.28 118.43 66.29 118.80 C 62.90 119.99 57.55 118.26 56.24 122.30 C 54.49 124.48 56.89 126.70 57.16 128.99 C 56.12 128.30 55.10 127.56 54.10 126.81 C 53.05 125.06 51.98 123.26 50.37 121.94 C 49.93 123.26 50.08 125.11 48.33 125.41 C 41.75 127.12 34.74 125.30 28.85 122.12 C 29.28 124.56 30.05 126.93 30.75 129.31 C 28.98 128.40 28.16 126.49 26.89 125.06 C 25.46 118.34 28.84 112.54 31.83 106.90 Z" />
</g>
<g id="#5e9fdaff">
<path fill="#5e9fda" opacity="1.00" d=" M 55.91 103.80 C 57.37 102.71 59.28 103.07 60.98 102.95 C 60.57 104.97 60.39 107.01 60.13 109.04 C 54.93 109.99 48.76 112.32 46.67 117.68 C 45.70 120.97 41.59 120.68 38.84 121.25 L 37.98 121.27 C 37.71 120.77 37.16 119.79 36.88 119.30 C 38.28 117.50 39.72 115.72 41.21 113.99 L 42.17 113.89 C 43.76 113.94 45.13 113.00 46.24 111.96 C 46.84 111.36 47.40 110.74 47.92 110.08 L 48.29 110.75 C 51.58 108.59 54.90 106.43 58.09 104.11 C 57.54 104.04 56.45 103.88 55.91 103.80 Z" />
</g>
<g id="#4c8fc9ff">
<path fill="#4c8fc9" opacity="1.00" d=" M 60.98 102.95 C 62.60 102.92 64.22 102.90 65.85 102.97 C 65.02 105.03 66.60 106.88 67.00 108.84 C 65.75 108.99 64.49 109.13 63.23 109.26 C 62.46 109.20 60.91 109.10 60.13 109.04 C 60.39 107.01 60.57 104.97 60.98 102.95 Z" />
</g>
<g id="#4478acff">
<path fill="#4478ac" opacity="1.00" d=" M 65.85 102.97 C 67.39 102.92 68.85 103.45 70.25 104.03 L 70.03 104.75 C 68.92 106.71 69.75 108.83 69.98 110.89 C 64.93 109.38 60.17 112.82 54.88 111.99 C 57.64 111.02 60.75 110.99 63.23 109.26 C 64.49 109.13 65.75 108.99 67.00 108.84 C 66.60 106.88 65.02 105.03 65.85 102.97 Z" />
</g>
<g id="#76c0f1ff">
<path fill="#76c0f1" opacity="1.00" d=" M 51.05 106.42 C 52.72 105.65 54.31 104.71 55.91 103.80 C 56.45 103.88 57.54 104.04 58.09 104.11 C 54.90 106.43 51.58 108.59 48.29 110.75 L 47.92 110.08 L 48.03 109.34 C 48.37 108.81 49.05 107.74 49.40 107.21 C 49.81 107.01 50.64 106.62 51.05 106.42 Z" />
</g>
<g id="#457eb4fe">
<path fill="#457eb4" opacity="1.00" d=" M 77.11 103.99 C 82.05 102.79 83.85 108.41 86.89 111.19 C 87.64 113.65 87.79 116.21 87.92 118.78 C 86.29 121.22 84.10 123.53 84.70 126.88 C 83.96 130.52 82.43 134.28 83.96 137.91 C 82.18 138.80 77.61 141.22 77.06 139.17 C 84.51 135.49 81.92 125.23 83.60 118.61 C 85.74 114.86 82.76 110.53 79.11 109.91 C 79.03 110.73 78.87 112.37 78.80 113.19 C 78.22 111.98 77.68 110.77 77.09 109.58 C 77.02 109.21 76.89 108.48 76.82 108.11 C 76.87 106.73 76.97 105.36 77.11 103.99 Z" />
</g>
<g id="#325f97ff">
<path fill="#325f97" opacity="1.00" d=" M 93.77 110.55 C 96.68 108.04 99.54 105.44 103.02 103.71 C 103.71 104.36 104.40 105.01 105.09 105.66 C 100.58 109.26 96.48 113.49 92.00 117.00 C 89.29 116.81 90.18 113.79 90.63 112.03 C 91.25 111.35 91.88 110.69 92.53 110.04 C 92.84 110.17 93.46 110.42 93.77 110.55 Z" />
</g>
<g id="#578ec3ff">
<path fill="#578ec3" opacity="1.00" d=" M 105.79 105.91 C 106.33 101.25 112.46 107.03 115.15 107.06 C 114.30 108.37 113.65 109.96 111.98 110.38 L 111.26 110.07 C 110.81 109.75 109.93 109.13 109.48 108.81 C 108.40 108.02 107.27 107.29 106.10 106.64 L 105.79 105.91 Z" />
</g>
<g id="#111e37ff">
<path fill="#111e37" opacity="1.00" d=" M 44.73 105.95 C 46.29 104.57 49.69 104.30 49.40 107.21 C 49.05 107.74 48.37 108.81 48.03 109.34 C 47.09 108.47 46.09 107.67 45.06 106.92 L 44.73 105.95 Z" />
</g>
<g id="#3b6598ff">
<path fill="#3b6598" opacity="1.00" d=" M 70.03 104.75 C 71.30 105.37 73.57 105.77 72.61 107.68 C 71.73 110.32 74.63 115.28 67.80 112.23 C 71.12 113.53 73.70 116.37 74.03 120.00 C 73.58 124.46 69.64 127.13 66.74 129.85 C 65.17 130.16 62.02 130.79 60.45 131.11 C 59.31 130.46 58.23 129.74 57.16 128.99 C 56.89 126.70 54.49 124.48 56.24 122.30 C 57.55 118.26 62.90 119.99 66.29 118.80 C 66.74 118.88 67.64 119.06 68.09 119.15 C 67.43 119.81 66.73 120.41 65.97 120.96 C 64.26 121.49 62.52 122.07 61.03 123.09 C 61.72 124.86 62.74 126.49 64.14 127.78 C 68.78 127.25 74.00 122.89 71.32 117.82 C 71.04 117.52 70.48 116.93 70.20 116.64 C 66.63 113.15 61.40 111.96 56.73 113.79 C 53.74 114.50 50.30 116.14 49.44 119.36 C 48.88 123.04 43.97 127.02 41.09 123.13 C 48.16 122.34 48.80 114.31 54.88 111.99 C 60.17 112.82 64.93 109.38 69.98 110.89 C 69.75 108.83 68.92 106.71 70.03 104.75 Z" />
</g>
<g id="#325a88fc">
<path fill="#325a88" opacity="1.00" d=" M 86.09 104.83 C 87.98 106.97 89.23 109.56 90.63 112.03 C 90.18 113.79 89.29 116.81 92.00 117.00 C 96.48 113.49 100.58 109.26 105.09 105.66 L 105.79 105.91 L 106.10 106.64 C 101.79 111.45 95.17 114.38 92.27 120.34 C 90.95 126.94 93.65 134.70 99.46 138.34 C 99.42 138.58 99.34 139.07 99.29 139.32 C 94.01 140.49 93.78 131.76 89.27 132.48 C 87.49 132.55 86.36 134.23 84.87 135.02 C 85.83 129.58 88.80 124.44 87.92 118.78 C 87.79 116.21 87.64 113.65 86.89 111.19 C 86.42 109.10 86.12 106.98 86.09 104.83 Z" />
</g>
<g id="#0f2354ff">
<path fill="#0f2354" opacity="1.00" d=" M 39.84 111.98 C 40.05 110.42 40.49 107.30 40.71 105.75 C 42.05 105.83 43.39 105.90 44.73 105.95 L 45.06 106.92 C 45.32 108.63 45.83 110.28 46.24 111.96 C 45.13 113.00 43.76 113.94 42.17 113.89 C 41.38 113.26 40.61 112.63 39.84 111.98 Z" />
</g>
<g id="#416d9eff">
<path fill="#416d9e" opacity="1.00" d=" M 25.94 112.91 C 27.93 110.94 29.90 108.93 31.83 106.90 C 28.84 112.54 25.46 118.34 26.89 125.06 C 23.92 121.42 25.98 117.06 25.94 112.91 Z" />
</g>
<g id="#254481ff">
<path fill="#254481" opacity="1.00" d=" M 45.06 106.92 C 46.09 107.67 47.09 108.47 48.03 109.34 L 47.92 110.08 C 47.40 110.74 46.84 111.36 46.24 111.96 C 45.83 110.28 45.32 108.63 45.06 106.92 Z" />
</g>
<g id="#284976fd">
<path fill="#284976" opacity="1.00" d=" M 92.27 120.34 C 95.17 114.38 101.79 111.45 106.10 106.64 C 107.27 107.29 108.40 108.02 109.48 108.81 C 108.67 109.55 107.83 110.26 106.96 110.93 C 104.24 111.43 102.97 114.20 100.90 115.76 C 99.68 116.97 97.76 117.95 97.94 119.96 C 98.11 121.52 98.45 124.66 98.62 126.23 C 99.26 129.29 102.51 130.14 105.15 130.68 C 104.17 131.21 103.20 131.74 102.24 132.28 C 103.15 133.89 104.20 135.43 105.16 137.02 C 104.49 138.07 103.82 139.13 103.13 140.17 C 102.11 139.73 98.99 140.88 99.29 139.32 C 99.34 139.07 99.42 138.58 99.46 138.34 C 93.65 134.70 90.95 126.94 92.27 120.34 Z" />
</g>
<g id="#4171a6ff">
<path fill="#4171a6" opacity="1.00" d=" M 125.19 108.21 C 127.31 107.27 129.61 106.98 131.90 106.82 C 131.25 107.53 130.61 108.24 129.97 108.97 C 131.71 108.82 133.43 108.55 135.17 108.49 C 134.89 108.75 134.34 109.26 134.07 109.52 C 132.08 110.12 130.10 110.69 128.11 111.27 C 128.45 113.52 129.88 115.67 129.19 117.98 C 126.21 118.19 125.03 114.93 123.26 113.12 C 122.46 112.00 120.94 111.85 119.80 111.21 C 121.62 110.25 123.41 109.24 125.19 108.21 Z" />
</g>
<g id="#2e598bff">
<path fill="#2e598b" opacity="1.00" d=" M 135.17 108.49 C 137.02 107.07 138.75 107.55 140.23 109.25 C 137.42 109.52 136.44 111.39 136.99 114.08 C 140.07 113.14 145.17 109.70 146.26 114.74 C 141.57 113.48 136.47 119.81 132.14 115.91 C 132.58 113.79 135.25 111.63 134.07 109.52 C 134.34 109.26 134.89 108.75 135.17 108.49 Z" />
</g>
<g id="#5184b8ff">
<path fill="#5184b8" opacity="1.00" d=" M 46.67 117.68 C 48.76 112.32 54.93 109.99 60.13 109.04 C 60.91 109.10 62.46 109.20 63.23 109.26 C 60.75 110.99 57.64 111.02 54.88 111.99 C 48.80 114.31 48.16 122.34 41.09 123.13 C 40.34 122.50 39.59 121.87 38.84 121.25 C 41.59 120.68 45.70 120.97 46.67 117.68 Z" />
</g>
<g id="#152133ff">
<path fill="#152133" opacity="1.00" d=" M 109.48 108.81 C 109.93 109.13 110.81 109.75 111.26 110.07 C 111.02 111.79 110.93 113.61 109.96 115.11 C 109.01 113.68 108.12 112.21 106.96 110.93 C 107.83 110.26 108.67 109.55 109.48 108.81 Z" />
</g>
<g id="#254370ff">
<path fill="#254370" opacity="1.00" d=" M 75.57 120.01 C 75.32 116.54 73.40 111.72 77.09 109.58 C 77.68 110.77 78.22 111.98 78.80 113.19 C 79.31 114.66 79.86 116.15 79.87 117.73 C 78.00 120.73 76.27 124.75 78.00 128.08 C 76.66 128.05 75.33 127.98 73.99 127.88 C 73.73 125.07 75.00 122.64 75.57 120.01 Z" />
</g>
<g id="#5a98ceff">
<path fill="#5a98ce" opacity="1.00" d=" M 79.11 109.91 C 82.76 110.53 85.74 114.86 83.60 118.61 C 81.92 125.23 84.51 135.49 77.06 139.17 C 76.60 139.08 75.67 138.89 75.21 138.80 C 72.34 137.61 69.51 136.32 66.77 134.84 C 69.48 132.74 72.51 130.95 75.84 130.04 C 76.49 131.81 76.09 135.63 78.91 134.97 C 79.49 131.64 80.83 128.27 80.50 124.84 C 80.34 123.06 80.02 119.51 79.87 117.73 C 79.86 116.15 79.31 114.66 78.80 113.19 C 78.87 112.37 79.03 110.73 79.11 109.91 Z" />
</g>
<g id="#1e3961ff">
<path fill="#1e3961" opacity="1.00" d=" M 111.26 110.07 L 111.98 110.38 C 114.42 111.49 117.18 110.98 119.80 111.21 C 120.94 111.85 122.46 112.00 123.26 113.12 C 122.61 113.67 121.95 114.19 121.26 114.69 C 115.29 114.35 110.30 118.62 105.23 121.27 C 105.42 121.58 105.81 122.21 106.00 122.52 C 105.05 122.73 104.11 122.94 103.18 123.16 C 103.72 124.17 104.35 125.14 104.91 126.16 C 102.91 126.28 100.75 125.28 101.55 122.97 C 99.09 122.29 98.66 124.17 98.62 126.23 C 98.45 124.66 98.11 121.52 97.94 119.96 C 101.06 119.18 104.54 120.26 107.15 117.83 C 105.58 116.08 103.07 115.99 100.90 115.76 C 102.97 114.20 104.24 111.43 106.96 110.93 C 108.12 112.21 109.01 113.68 109.96 115.11 C 110.93 113.61 111.02 111.79 111.26 110.07 Z" />
</g>
<g id="#2c4d7cfe">
<path fill="#2c4d7c" opacity="1.00" d=" M 128.11 111.27 C 130.10 110.69 132.08 110.12 134.07 109.52 C 135.25 111.63 132.58 113.79 132.14 115.91 C 136.47 119.81 141.57 113.48 146.26 114.74 C 144.68 117.40 142.38 119.08 139.35 119.78 C 135.97 119.11 132.62 118.31 129.19 117.98 C 129.88 115.67 128.45 113.52 128.11 111.27 Z" />
</g>
<g id="#315ba0fe">
<path fill="#315ba0" opacity="1.00" d=" M 35.96 114.94 C 36.43 112.55 37.15 109.82 39.84 111.98 C 40.61 112.63 41.38 113.26 42.17 113.89 L 41.21 113.99 C 39.42 114.05 37.61 114.16 35.96 114.94 Z" />
</g>
<g id="#5388b7fc">
<path fill="#5388b7" opacity="1.00" d=" M 25.42 128.22 C 25.12 123.25 22.82 117.67 25.94 112.91 C 25.98 117.06 23.92 121.42 26.89 125.06 C 27.10 126.44 27.34 127.82 27.37 129.22 C 26.88 128.97 25.90 128.47 25.42 128.22 Z" />
</g>
<g id="#11224bff">
<path fill="#11224b" opacity="1.00" d=" M 56.73 113.79 C 61.40 111.96 66.63 113.15 70.20 116.64 C 69.52 117.50 68.82 118.33 68.09 119.15 C 67.64 119.06 66.74 118.88 66.29 118.80 C 65.28 118.43 64.26 118.09 63.24 117.76 C 60.96 116.87 58.59 116.10 56.48 114.82 L 56.73 113.79 Z" />
</g>
<g id="#214173fc">
<path fill="#214173" opacity="1.00" d=" M 123.26 113.12 C 125.03 114.93 126.21 118.19 129.19 117.98 C 132.62 118.31 135.97 119.11 139.35 119.78 C 138.57 121.53 136.22 121.91 135.77 123.90 C 134.28 123.16 132.78 122.46 131.25 121.84 C 131.42 118.63 129.70 117.76 126.10 119.23 C 122.92 119.61 117.25 122.86 115.82 118.19 C 117.73 117.18 119.55 116.01 121.26 114.69 C 121.95 114.19 122.61 113.67 123.26 113.12 Z" />
</g>
<g id="#487dc5fe">
<path fill="#487dc5" opacity="1.00" d=" M 35.96 114.94 C 37.61 114.16 39.42 114.05 41.21 113.99 C 39.72 115.72 38.28 117.50 36.88 119.30 C 36.42 118.95 35.50 118.25 35.04 117.90 C 35.37 116.92 35.67 115.93 35.96 114.94 Z" />
</g>
<g id="#142b4aff">
<path fill="#142b4a" opacity="1.00" d=" M 105.23 121.27 C 110.30 118.62 115.29 114.35 121.26 114.69 C 119.55 116.01 117.73 117.18 115.82 118.19 C 112.83 119.64 109.82 121.07 106.78 122.40 L 106.00 122.52 C 105.81 122.21 105.42 121.58 105.23 121.27 Z" />
</g>
<g id="#1f3f73ff">
<path fill="#1f3f73" opacity="1.00" d=" M 63.24 117.76 C 59.95 117.74 54.03 119.67 56.48 114.82 C 58.59 116.10 60.96 116.87 63.24 117.76 Z" />
</g>
<g id="#141d2dff">
<path fill="#141d2d" opacity="1.00" d=" M 97.94 119.96 C 97.76 117.95 99.68 116.97 100.90 115.76 C 103.07 115.99 105.58 116.08 107.15 117.83 C 104.54 120.26 101.06 119.18 97.94 119.96 Z" />
</g>
<g id="#5d97d3ff">
<path fill="#5d97d3" opacity="1.00" d=" M 68.09 119.15 C 68.82 118.33 69.52 117.50 70.20 116.64 C 70.48 116.93 71.04 117.52 71.32 117.82 C 71.58 121.41 68.90 125.58 64.94 125.04 C 64.94 123.61 65.37 122.24 65.97 120.96 C 66.73 120.41 67.43 119.81 68.09 119.15 Z" />
</g>
<g id="#060a0e2a">
<path fill="#060a0e" opacity="0.16" d=" M 31.90 118.10 C 32.68 118.05 34.26 117.95 35.04 117.90 C 35.50 118.25 36.42 118.95 36.88 119.30 C 37.16 119.79 37.71 120.77 37.98 121.27 C 37.95 121.64 37.89 122.39 37.86 122.76 C 34.94 122.47 31.94 121.59 31.90 118.10 Z" />
</g>
<g id="#4b7ab0ff">
<path fill="#4b7ab0" opacity="1.00" d=" M 71.32 117.82 C 74.00 122.89 68.78 127.25 64.14 127.78 C 62.74 126.49 61.72 124.86 61.03 123.09 C 62.52 122.07 64.26 121.49 65.97 120.96 C 65.37 122.24 64.94 123.61 64.94 125.04 C 68.90 125.58 71.58 121.41 71.32 117.82 Z" />
</g>
<g id="#182e59ff">
<path fill="#182e59" opacity="1.00" d=" M 78.00 128.08 C 76.27 124.75 78.00 120.73 79.87 117.73 C 80.02 119.51 80.34 123.06 80.50 124.84 C 80.05 125.95 79.55 127.05 78.99 128.12 L 78.00 128.08 Z" />
</g>
<g id="#1b3462ff">
<path fill="#1b3462" opacity="1.00" d=" M 106.78 122.40 C 109.82 121.07 112.83 119.64 115.82 118.19 C 117.25 122.86 122.92 119.61 126.10 119.23 C 129.70 117.76 131.42 118.63 131.25 121.84 C 128.87 122.92 126.41 123.85 123.83 124.31 C 118.21 123.48 111.90 125.48 106.78 122.40 Z" />
</g>
<g id="#3e6c9eff">
<path fill="#3e6c9e" opacity="1.00" d=" M 84.70 126.88 C 84.10 123.53 86.29 121.22 87.92 118.78 C 88.80 124.44 85.83 129.58 84.87 135.02 C 86.36 134.23 87.49 132.55 89.27 132.48 C 88.09 134.64 86.24 136.92 83.96 137.91 C 82.43 134.28 83.96 130.52 84.70 126.88 Z" />
</g>
<g id="#2e4e7dfb">
<path fill="#2e4e7d" opacity="1.00" d=" M 28.85 122.12 C 34.74 125.30 41.75 127.12 48.33 125.41 C 50.08 125.11 49.93 123.26 50.37 121.94 C 51.98 123.26 53.05 125.06 54.10 126.81 C 49.65 126.93 45.48 128.74 41.08 129.23 C 39.58 133.84 45.71 131.41 48.31 133.17 C 47.30 133.43 46.28 133.66 45.24 133.84 C 42.67 133.62 37.53 133.17 34.96 132.95 L 35.27 132.31 C 36.62 130.12 31.81 130.86 30.75 129.31 C 30.05 126.93 29.28 124.56 28.85 122.12 Z" />
</g>
<g id="#24477dfe">
<path fill="#24477d" opacity="1.00" d=" M 106.00 122.52 L 106.78 122.40 C 111.90 125.48 118.21 123.48 123.83 124.31 C 127.84 125.26 132.59 124.36 135.94 127.22 C 136.52 129.13 135.40 131.52 133.11 130.95 C 133.04 130.22 132.90 128.76 132.83 128.03 C 124.77 128.57 116.61 129.11 108.68 130.73 C 107.94 130.47 107.20 130.22 106.46 129.97 C 106.03 128.66 105.65 127.33 104.91 126.16 C 104.35 125.14 103.72 124.17 103.18 123.16 C 104.11 122.94 105.05 122.73 106.00 122.52 Z" />
</g>
<g id="#345b93ff">
<path fill="#345b93" opacity="1.00" d=" M 123.83 124.31 C 126.41 123.85 128.87 122.92 131.25 121.84 C 132.78 122.46 134.28 123.16 135.77 123.90 C 135.81 124.73 135.90 126.39 135.94 127.22 C 132.59 124.36 127.84 125.26 123.83 124.31 Z" />
</g>
<g id="#172c55fe">
<path fill="#172c55" opacity="1.00" d=" M 98.62 126.23 C 98.66 124.17 99.09 122.29 101.55 122.97 C 100.75 125.28 102.91 126.28 104.91 126.16 C 105.65 127.33 106.03 128.66 106.46 129.97 C 106.13 130.15 105.48 130.50 105.15 130.68 C 102.51 130.14 99.26 129.29 98.62 126.23 Z" />
</g>
<g id="#4474a3f5">
<path fill="#4474a3" opacity="0.96" d=" M 26.89 125.06 C 28.16 126.49 28.98 128.40 30.75 129.31 C 31.81 130.86 36.62 130.12 35.27 132.31 C 32.58 132.10 28.84 131.36 27.37 129.22 C 27.34 127.82 27.10 126.44 26.89 125.06 Z" />
</g>
<g id="#75baebff">
<path fill="#75baeb" opacity="1.00" d=" M 80.50 124.84 C 80.83 128.27 79.49 131.64 78.91 134.97 C 76.09 135.63 76.49 131.81 75.84 130.04 C 76.41 129.81 77.53 129.35 78.10 129.12 C 78.32 128.87 78.77 128.37 78.99 128.12 C 79.55 127.05 80.05 125.95 80.50 124.84 Z" />
</g>
<g id="#274570ff">
<path fill="#274570" opacity="1.00" d=" M 41.08 129.23 C 45.48 128.74 49.65 126.93 54.10 126.81 C 55.10 127.56 56.12 128.30 57.16 128.99 C 58.23 129.74 59.31 130.46 60.45 131.11 L 61.03 131.77 C 59.49 132.02 56.41 132.51 54.87 132.76 C 54.45 132.84 53.63 133.02 53.22 133.11 C 51.58 133.12 49.95 133.12 48.31 133.17 C 45.71 131.41 39.58 133.84 41.08 129.23 Z" />
</g>
<g id="#223966fd">
<path fill="#223966" opacity="1.00" d=" M 108.68 130.73 C 116.61 129.11 124.77 128.57 132.83 128.03 C 132.90 128.76 133.04 130.22 133.11 130.95 C 132.71 131.96 131.73 132.39 130.15 132.24 C 129.64 132.44 128.63 132.83 128.12 133.03 C 127.39 133.06 125.92 133.11 125.19 133.14 C 120.47 133.05 115.76 133.03 111.04 132.98 C 110.80 132.75 110.33 132.30 110.09 132.08 C 109.74 131.74 109.04 131.07 108.68 130.73 Z" />
</g>
<g id="#4f82baff">
<path fill="#4f82ba" opacity="1.00" d=" M 69.15 130.09 C 72.12 129.62 75.10 129.37 78.10 129.12 C 77.53 129.35 76.41 129.81 75.84 130.04 C 72.51 130.95 69.48 132.74 66.77 134.84 C 66.27 134.59 65.27 134.10 64.77 133.86 C 65.42 131.85 67.62 131.24 69.15 130.09 Z" />
</g>
<g id="#4773a6ff">
<path fill="#4773a6" opacity="1.00" d=" M 60.45 131.11 C 62.02 130.79 65.17 130.16 66.74 129.85 C 67.34 129.91 68.55 130.03 69.15 130.09 C 67.62 131.24 65.42 131.85 64.77 133.86 C 63.49 133.23 62.25 132.52 61.03 131.77 L 60.45 131.11 Z" />
</g>
<g id="#06050723">
<path fill="#060507" opacity="0.14" d=" M 106.46 129.97 C 107.20 130.22 107.94 130.47 108.68 130.73 C 109.04 131.07 109.74 131.74 110.09 132.08 C 109.81 133.03 109.40 133.94 108.88 134.78 C 107.59 135.46 106.36 136.21 105.16 137.02 C 104.20 135.43 103.15 133.89 102.24 132.28 C 103.20 131.74 104.17 131.21 105.15 130.68 C 105.48 130.50 106.13 130.15 106.46 129.97 Z" />
</g>
<g id="#724c4cfe">
<path fill="#724c4c" opacity="1.00" d=" M 54.87 132.76 C 56.41 132.51 59.49 132.02 61.03 131.77 C 62.25 132.52 63.49 133.23 64.77 133.86 C 65.27 134.10 66.27 134.59 66.77 134.84 C 69.51 136.32 72.34 137.61 75.21 138.80 C 74.64 140.24 76.08 144.08 74.05 143.92 C 74.02 143.43 73.96 142.46 73.93 141.97 C 70.87 146.63 65.28 148.87 59.88 149.22 C 56.20 147.04 61.13 142.51 60.98 139.18 C 59.42 138.30 57.69 137.75 56.15 136.84 C 56.24 135.11 57.95 132.27 54.87 132.76 Z" />
</g>
<g id="#956160fe">
<path fill="#956160" opacity="1.00" d=" M 110.09 132.08 C 110.33 132.30 110.80 132.75 111.04 132.98 C 110.85 138.04 119.61 133.30 122.19 135.24 C 118.36 138.05 110.51 143.44 106.88 137.79 C 107.55 136.79 108.28 135.83 108.88 134.78 C 109.40 133.94 109.81 133.03 110.09 132.08 Z" />
</g>
<g id="#b67269fe">
<path fill="#b67269" opacity="1.00" d=" M 128.12 133.03 C 128.63 132.83 129.64 132.44 130.15 132.24 C 130.07 132.61 129.93 133.35 129.85 133.72 C 127.47 135.55 125.37 137.69 126.79 140.85 C 119.48 142.35 110.89 146.39 103.85 142.08 C 103.70 141.77 103.40 141.15 103.26 140.84 L 103.13 140.17 C 103.82 139.13 104.49 138.07 105.16 137.02 C 106.36 136.21 107.59 135.46 108.88 134.78 C 108.28 135.83 107.55 136.79 106.88 137.79 C 103.82 141.10 109.24 142.95 111.90 142.78 C 115.22 142.04 118.64 141.33 121.64 139.66 C 123.49 137.15 125.71 135.00 128.12 133.03 Z" />
</g>
<g id="#c5796dfa">
<path fill="#c5796d" opacity="0.98" d=" M 48.31 133.17 C 49.95 133.12 51.58 133.12 53.22 133.11 C 51.86 133.92 50.46 134.70 48.91 135.08 C 46.86 135.08 44.84 135.42 42.86 135.98 C 41.41 136.61 38.27 136.42 39.12 138.80 C 40.99 141.12 46.15 141.96 44.94 145.82 C 43.36 146.45 41.71 146.81 40.03 147.04 C 43.02 142.92 34.87 141.24 36.22 136.75 C 38.08 134.96 42.44 135.02 45.24 133.84 C 46.28 133.66 47.30 133.43 48.31 133.17 Z" />
</g>
<g id="#825350fb">
<path fill="#825350" opacity="1.00" d=" M 53.22 133.11 C 53.63 133.02 54.45 132.84 54.87 132.76 C 57.95 132.27 56.24 135.11 56.15 136.84 C 57.69 137.75 59.42 138.30 60.98 139.18 C 61.13 142.51 56.20 147.04 59.88 149.22 C 60.35 149.48 61.29 150.00 61.76 150.26 L 62.18 150.91 C 57.91 149.81 54.08 152.13 49.94 152.04 C 46.73 147.34 56.27 146.06 54.94 141.24 C 52.68 139.37 48.25 138.84 48.91 135.08 C 50.46 134.70 51.86 133.92 53.22 133.11 Z" />
</g>
<g id="#7d565bff">
<path fill="#7d565b" opacity="1.00" d=" M 111.04 132.98 C 115.76 133.03 120.47 133.05 125.19 133.14 C 124.19 133.83 123.19 134.54 122.19 135.24 C 119.61 133.30 110.85 138.04 111.04 132.98 Z" />
</g>
<g id="#a56962ff">
<path fill="#a56962" opacity="1.00" d=" M 125.19 133.14 C 125.92 133.11 127.39 133.06 128.12 133.03 C 125.71 135.00 123.49 137.15 121.64 139.66 C 118.64 141.33 115.22 142.04 111.90 142.78 C 109.24 142.95 103.82 141.10 106.88 137.79 C 110.51 143.44 118.36 138.05 122.19 135.24 C 123.19 134.54 124.19 133.83 125.19 133.14 Z" />
</g>
<g id="#cb7c6bfd">
<path fill="#cb7c6b" opacity="1.00" d=" M 126.79 140.85 C 125.37 137.69 127.47 135.55 129.85 133.72 C 133.73 136.89 140.75 142.39 137.57 148.18 C 137.46 147.63 137.23 146.54 137.11 146.00 C 137.57 142.47 133.00 143.69 130.98 144.96 C 129.00 145.93 128.63 148.99 126.16 149.14 C 126.70 147.50 127.82 145.13 125.74 144.11 C 119.75 143.70 114.03 145.95 108.07 146.00 C 106.36 145.17 104.46 144.00 103.85 142.08 C 110.89 146.39 119.48 142.35 126.79 140.85 Z" />
</g>
<g id="#995e57fc">
<path fill="#995e57" opacity="1.00" d=" M 42.86 135.98 C 44.84 135.42 46.86 135.08 48.91 135.08 C 48.25 138.84 52.68 139.37 54.94 141.24 C 56.27 146.06 46.73 147.34 49.94 152.04 C 44.63 152.05 39.32 152.05 34.02 152.02 L 33.90 151.10 C 34.71 151.08 36.32 151.04 37.13 151.02 C 40.28 151.63 42.08 148.55 44.89 147.86 C 47.39 146.98 50.84 145.42 49.98 142.17 C 47.30 140.43 42.13 140.37 42.86 135.98 Z" />
</g>
<g id="#b36d61ff">
<path fill="#b36d61" opacity="1.00" d=" M 39.12 138.80 C 38.27 136.42 41.41 136.61 42.86 135.98 C 42.13 140.37 47.30 140.43 49.98 142.17 C 50.84 145.42 47.39 146.98 44.89 147.86 C 42.08 148.55 40.28 151.63 37.13 151.02 C 36.37 150.39 35.64 149.75 34.93 149.08 C 36.51 148.14 38.22 147.41 40.03 147.04 C 41.71 146.81 43.36 146.45 44.94 145.82 C 46.15 141.96 40.99 141.12 39.12 138.80 Z" />
</g>
<g id="#e28b75fc">
<path fill="#e28b75" opacity="1.00" d=" M 30.64 140.12 C 31.60 138.04 34.17 137.31 36.22 136.75 C 34.87 141.24 43.02 142.92 40.03 147.04 C 38.22 147.41 36.51 148.14 34.93 149.08 C 35.64 149.75 36.37 150.39 37.13 151.02 C 36.32 151.04 34.71 151.08 33.90 151.10 C 32.30 148.78 33.87 146.39 34.70 144.14 C 33.98 142.13 31.46 142.03 30.64 140.12 Z" />
</g>
<g id="#f4a483fa">
<path fill="#f4a483" opacity="0.98" d=" M 33.90 151.10 C 29.27 150.45 25.90 142.72 30.64 140.12 C 31.46 142.03 33.98 142.13 34.70 144.14 C 33.87 146.39 32.30 148.78 33.90 151.10 Z" />
</g>
<g id="#dc8570fb">
<path fill="#dc8570" opacity="1.00" d=" M 103.26 140.84 C 103.40 141.15 103.70 141.77 103.85 142.08 C 104.46 144.00 106.36 145.17 108.07 146.00 C 114.03 145.95 119.75 143.70 125.74 144.11 C 127.82 145.13 126.70 147.50 126.16 149.14 C 122.11 150.22 117.73 150.22 113.88 152.05 C 114.61 152.71 115.36 153.35 116.13 153.96 C 115.34 153.98 113.77 154.02 112.98 154.04 C 106.95 154.00 98.86 147.19 103.26 140.84 Z" />
</g>
<g id="#89685df7">
<path fill="#89685d" opacity="0.97" d=" M 59.88 149.22 C 65.28 148.87 70.87 146.63 73.93 141.97 C 73.96 142.46 74.02 143.43 74.05 143.92 C 74.47 146.62 71.43 147.82 69.35 148.48 C 66.99 149.72 64.42 150.29 61.76 150.26 C 61.29 150.00 60.35 149.48 59.88 149.22 Z" />
</g>
<g id="#b76e60ff">
<path fill="#b76e60" opacity="1.00" d=" M 130.98 144.96 C 133.00 143.69 137.57 142.47 137.11 146.00 C 129.50 147.29 124.09 154.58 116.13 153.96 C 115.36 153.35 114.61 152.71 113.88 152.05 C 117.73 150.22 122.11 150.22 126.16 149.14 C 128.63 148.99 129.00 145.93 130.98 144.96 Z" />
</g>
<g id="#956259f4">
<path fill="#956259" opacity="0.96" d=" M 116.13 153.96 C 124.09 154.58 129.50 147.29 137.11 146.00 C 137.23 146.54 137.46 147.63 137.57 148.18 C 137.38 151.78 133.48 153.69 130.33 154.41 C 124.64 155.37 118.79 155.03 113.03 154.98 L 112.98 154.04 C 113.77 154.02 115.34 153.98 116.13 153.96 Z" />
</g>
</svg>
