<?xml version="1.0" encoding="UTF-8" ?>
<!DOCTYPE svg PUBLIC "-//W3C//DTD SVG 1.1//EN" "http://www.w3.org/Graphics/SVG/1.1/DTD/svg11.dtd">
<svg width="222pt" height="238pt" viewBox="0 0 222 238" version="1.1" xmlns="http://www.w3.org/2000/svg">
<g id="#59595073">
<path fill="#595950" opacity="0.45" d=" M 80.83 15.09 C 83.62 12.64 87.62 13.07 91.07 12.98 C 93.29 12.83 95.25 13.95 97.13 14.98 C 94.39 14.63 91.77 13.66 89.02 13.47 C 86.27 13.92 83.62 14.88 80.83 15.09 Z" />
</g>
<g id="#b0b09ef4">
<path fill="#b0b09e" opacity="0.96" d=" M 80.83 15.09 C 83.62 14.88 86.27 13.92 89.02 13.47 C 91.77 13.66 94.39 14.63 97.13 14.98 C 101.65 15.61 105.78 17.79 108.92 21.09 C 108.10 21.01 106.46 20.86 105.64 20.78 L 104.83 20.12 C 100.35 16.04 93.75 16.27 88.08 16.18 C 84.45 15.94 80.68 17.90 77.21 16.34 C 78.36 15.76 79.57 15.34 80.83 15.09 Z" />
</g>
<g id="#999a8bff">
<path fill="#999a8b" opacity="1.00" d=" M 64.87 25.68 C 67.64 21.22 72.51 18.38 77.21 16.34 C 80.68 17.90 84.45 15.94 88.08 16.18 C 93.75 16.27 100.35 16.04 104.83 20.12 C 99.12 18.40 93.12 19.68 87.69 21.72 C 84.56 23.04 81.99 25.35 79.04 26.99 C 74.43 29.63 69.23 30.90 64.31 32.79 C 63.75 32.25 62.63 31.17 62.07 30.63 C 62.98 28.97 63.87 27.30 64.87 25.68 Z" />
</g>
<g id="#8e8d7eff">
<path fill="#8e8d7e" opacity="1.00" d=" M 87.69 21.72 C 93.12 19.68 99.12 18.40 104.83 20.12 L 105.64 20.78 C 101.28 21.12 96.44 21.00 92.80 23.81 C 89.04 26.47 87.80 31.37 84.00 33.97 C 81.62 35.55 79.98 38.01 77.63 39.59 C 73.93 41.18 69.83 41.35 65.88 41.81 C 64.23 42.17 62.76 41.36 61.29 40.75 C 60.84 40.76 59.94 40.78 59.49 40.79 C 59.97 37.32 60.62 33.84 62.07 30.63 C 62.63 31.17 63.75 32.25 64.31 32.79 C 69.23 30.90 74.43 29.63 79.04 26.99 C 81.99 25.35 84.56 23.04 87.69 21.72 Z" />
</g>
<g id="#888473ff">
<path fill="#888473" opacity="1.00" d=" M 92.80 23.81 C 96.44 21.00 101.28 21.12 105.64 20.78 C 106.46 20.86 108.10 21.01 108.92 21.09 C 110.09 21.90 110.93 23.09 111.90 24.11 C 110.47 24.60 109.03 25.05 107.57 25.45 L 108.03 23.77 C 103.17 22.57 98.41 26.30 96.53 30.58 C 93.86 35.37 93.15 40.89 93.06 46.29 C 88.26 50.77 85.59 57.78 79.13 60.26 C 74.04 61.33 68.77 60.60 63.61 60.54 C 61.62 54.11 59.92 47.53 59.49 40.79 C 59.94 40.78 60.84 40.76 61.29 40.75 C 62.76 41.36 64.23 42.17 65.88 41.81 C 69.83 41.35 73.93 41.18 77.63 39.59 C 79.98 38.01 81.62 35.55 84.00 33.97 C 87.80 31.37 89.04 26.47 92.80 23.81 Z" />
</g>
<g id="#76705fff">
<path fill="#76705f" opacity="1.00" d=" M 96.53 30.58 C 98.41 26.30 103.17 22.57 108.03 23.77 L 107.57 25.45 C 107.31 25.68 106.77 26.14 106.51 26.38 C 105.76 27.05 105.02 27.74 104.30 28.44 C 103.39 30.49 103.02 32.72 102.89 34.94 C 101.66 40.27 96.86 42.96 93.06 46.29 C 93.15 40.89 93.86 35.37 96.53 30.58 Z" />
</g>
<g id="#ffffc7ff">
<path fill="#ffffc7" opacity="1.00" d=" M 111.90 24.11 C 119.60 22.53 127.74 21.87 135.43 23.77 C 136.92 24.26 139.13 24.48 139.39 26.44 L 138.40 26.36 C 133.02 24.62 127.49 26.65 122.03 26.00 C 117.22 25.45 112.34 26.52 107.57 25.45 C 109.03 25.05 110.47 24.60 111.90 24.11 Z" />
</g>
<g id="#ffffcbff">
<path fill="#ffffcb" opacity="1.00" d=" M 34.85 25.30 C 42.26 22.73 50.31 23.39 57.97 24.18 C 55.73 24.91 53.43 25.58 51.06 25.68 C 45.48 26.02 39.97 27.37 34.35 26.97 C 34.48 26.55 34.73 25.72 34.85 25.30 Z" />
</g>
<g id="#fff6abff">
<path fill="#fff6ab" opacity="1.00" d=" M 57.97 24.18 L 58.26 24.29 C 59.48 24.76 60.73 25.15 61.95 25.62 C 57.03 26.68 52.47 28.84 47.91 30.89 C 43.63 33.14 39.10 30.25 34.76 29.72 L 34.13 29.58 C 33.69 28.42 33.27 27.26 32.84 26.10 C 33.34 25.90 34.35 25.50 34.85 25.30 C 34.73 25.72 34.48 26.55 34.35 26.97 C 39.97 27.37 45.48 26.02 51.06 25.68 C 53.43 25.58 55.73 24.91 57.97 24.18 Z" />
</g>
<g id="#313433ff">
<path fill="#313433" opacity="1.00" d=" M 58.26 24.29 C 60.59 23.87 62.97 24.21 64.87 25.68 C 63.87 27.30 62.98 28.97 62.07 30.63 C 60.62 33.84 59.97 37.32 59.49 40.79 C 59.92 47.53 61.62 54.11 63.61 60.54 C 68.77 60.60 74.04 61.33 79.13 60.26 C 85.59 57.78 88.26 50.77 93.06 46.29 C 96.86 42.96 101.66 40.27 102.89 34.94 C 101.75 38.00 101.79 41.35 103.93 43.95 C 104.55 46.59 104.75 49.31 105.07 52.01 C 101.38 55.78 96.16 57.66 91.04 58.42 C 89.23 58.82 87.66 57.71 86.08 57.06 C 83.60 59.33 81.10 62.16 77.49 62.33 C 72.68 62.68 67.84 61.96 63.04 62.67 C 62.47 61.27 62.01 59.83 61.56 58.38 C 61.22 58.14 60.54 57.65 60.19 57.40 L 61.55 57.90 C 61.06 53.21 59.27 48.77 58.87 44.05 C 58.42 40.99 59.00 37.92 59.66 34.93 C 60.48 32.95 61.24 30.93 62.34 29.09 C 62.96 28.16 63.59 27.24 64.23 26.33 C 63.66 26.15 62.52 25.79 61.95 25.62 C 60.73 25.15 59.48 24.76 58.26 24.29 M 95.24 46.80 C 96.87 49.32 97.46 52.30 98.50 55.07 C 100.26 53.98 102.30 53.20 103.75 51.66 C 104.01 48.20 102.67 44.89 101.14 41.88 C 99.06 43.37 97.03 44.95 95.24 46.80 M 93.69 47.52 C 94.34 49.85 94.68 52.25 95.13 54.62 L 93.64 54.81 L 94.00 54.33 C 93.59 53.91 92.76 53.07 92.35 52.65 C 92.41 52.10 92.55 51.01 92.61 50.46 C 92.55 50.37 92.44 50.18 92.38 50.09 C 91.22 50.40 90.84 51.60 90.17 52.44 C 89.05 53.50 87.61 54.37 87.22 55.97 C 88.00 58.00 90.61 56.87 92.22 57.24 L 91.75 55.94 L 92.15 56.82 C 94.11 56.61 95.98 55.98 97.78 55.19 C 96.59 52.58 96.61 48.92 93.69 47.52 Z" />
</g>
<g id="#fffba8ff">
<path fill="#fffba8" opacity="1.00" d=" M 106.51 26.38 C 106.77 26.14 107.31 25.68 107.57 25.45 C 112.34 26.52 117.22 25.45 122.03 26.00 C 127.49 26.65 133.02 24.62 138.40 26.36 C 136.03 28.21 133.54 29.95 130.65 30.87 C 126.68 32.37 122.45 32.93 118.22 32.82 C 115.15 29.36 110.76 27.82 106.51 26.38 Z" />
</g>
<g id="#eed990ff">
<path fill="#eed990" opacity="1.00" d=" M 47.91 30.89 C 52.47 28.84 57.03 26.68 61.95 25.62 C 62.52 25.79 63.66 26.15 64.23 26.33 C 63.59 27.24 62.96 28.16 62.34 29.09 C 61.80 28.94 60.72 28.63 60.17 28.48 C 56.50 30.57 53.51 33.74 49.68 35.52 C 45.92 35.49 42.33 34.00 38.64 33.38 C 36.86 32.83 35.65 31.27 34.76 29.72 C 39.10 30.25 43.63 33.14 47.91 30.89 Z" />
</g>
<g id="#f1de93ff">
<path fill="#f1de93" opacity="1.00" d=" M 104.30 28.44 C 105.02 27.74 105.76 27.05 106.51 26.38 C 110.76 27.82 115.15 29.36 118.22 32.82 C 122.45 32.93 126.68 32.37 130.65 30.87 L 130.83 31.31 C 129.65 31.93 128.45 32.53 127.38 33.32 C 126.27 33.79 125.22 34.37 124.12 34.85 C 122.45 35.45 120.80 36.12 119.25 36.98 C 116.91 36.53 114.13 36.64 112.41 34.71 C 110.14 32.11 107.47 29.84 104.30 28.44 Z" />
</g>
<g id="#dac27fff">
<path fill="#dac27f" opacity="1.00" d=" M 60.17 28.48 C 60.72 28.63 61.80 28.94 62.34 29.09 C 61.24 30.93 60.48 32.95 59.66 34.93 C 58.16 36.36 56.65 37.85 54.80 38.82 C 52.06 39.27 49.28 38.55 46.53 38.56 L 46.05 38.53 C 43.49 36.94 40.87 35.43 38.64 33.38 C 42.33 34.00 45.92 35.49 49.68 35.52 C 53.51 33.74 56.50 30.57 60.17 28.48 Z" />
</g>
<g id="#dec986ff">
<path fill="#dec986" opacity="1.00" d=" M 102.89 34.94 C 103.02 32.72 103.39 30.49 104.30 28.44 C 107.47 29.84 110.14 32.11 112.41 34.71 C 114.13 36.64 116.91 36.53 119.25 36.98 C 117.36 38.02 115.50 39.11 113.62 40.14 C 109.91 38.66 106.69 36.16 104.91 32.51 C 104.31 33.39 103.64 34.20 102.89 34.94 Z" />
</g>
<g id="#c7b174ff">
<path fill="#c7b174" opacity="1.00" d=" M 104.91 32.51 C 106.69 36.16 109.91 38.66 113.62 40.14 C 110.77 41.75 107.91 43.36 105.15 45.12 C 104.84 44.83 104.23 44.24 103.93 43.95 C 101.79 41.35 101.75 38.00 102.89 34.94 C 103.64 34.20 104.31 33.39 104.91 32.51 Z" />
</g>
<g id="#bca66dff">
<path fill="#bca66d" opacity="1.00" d=" M 54.80 38.82 C 56.65 37.85 58.16 36.36 59.66 34.93 C 59.00 37.92 58.42 40.99 58.87 44.05 C 58.19 45.63 57.75 47.28 57.23 48.90 C 57.30 48.17 57.44 46.70 57.51 45.97 C 54.02 43.24 49.77 41.59 46.53 38.56 C 49.28 38.55 52.06 39.27 54.80 38.82 Z" />
</g>
<g id="#9f7050ff">
<path fill="#9f7050" opacity="1.00" d=" M 119.25 36.98 C 120.80 36.12 122.45 35.45 124.12 34.85 C 123.29 35.98 122.08 36.70 120.84 37.32 C 120.67 37.54 120.33 37.97 120.16 38.18 C 119.95 38.42 119.52 38.89 119.31 39.13 C 116.70 41.58 114.46 44.44 111.60 46.61 C 109.42 48.01 106.73 46.88 105.15 45.12 C 107.91 43.36 110.77 41.75 113.62 40.14 C 115.50 39.11 117.36 38.02 119.25 36.98 Z" />
</g>
<g id="#af815eff">
<path fill="#af815e" opacity="1.00" d=" M 111.60 46.61 C 114.46 44.44 116.70 41.58 119.31 39.13 C 118.50 44.00 116.12 48.84 118.35 53.72 C 120.35 54.08 122.37 54.43 124.38 54.77 L 125.06 54.89 C 125.06 56.64 125.07 58.39 125.09 60.15 C 124.48 59.58 123.87 59.02 123.26 58.45 C 121.55 59.30 119.84 60.14 118.12 60.97 C 115.65 60.12 113.04 58.78 110.38 59.63 C 104.99 61.19 99.64 63.06 94.85 66.02 C 92.41 66.92 89.89 67.55 87.33 67.99 C 93.10 62.03 102.13 60.79 107.79 54.67 C 108.92 53.73 108.02 52.33 107.91 51.17 C 106.96 51.45 106.01 51.73 105.07 52.01 C 104.75 49.31 104.55 46.59 103.93 43.95 C 104.23 44.24 104.84 44.83 105.15 45.12 C 106.73 46.88 109.42 48.01 111.60 46.61 Z" />
</g>
<g id="#c08e68ff">
<path fill="#c08e68" opacity="1.00" d=" M 119.31 39.13 C 119.52 38.89 119.95 38.42 120.16 38.18 C 122.24 43.45 124.86 48.99 124.38 54.77 C 122.37 54.43 120.35 54.08 118.35 53.72 C 116.12 48.84 118.50 44.00 119.31 39.13 Z" />
</g>
<g id="#ffffffff">
<path fill="#ffffff" opacity="1.00" d=" M 95.24 46.80 C 97.03 44.95 99.06 43.37 101.14 41.88 C 102.67 44.89 104.01 48.20 103.75 51.66 C 102.30 53.20 100.26 53.98 98.50 55.07 C 97.46 52.30 96.87 49.32 95.24 46.80 Z" />
<path fill="#ffffff" opacity="1.00" d=" M 92.38 50.09 C 92.44 50.18 92.55 50.37 92.61 50.46 C 92.55 50.37 92.44 50.18 92.38 50.09 Z" />
</g>
<g id="#f9f9ffff">
<path fill="#f9f9ff" opacity="1.00" d=" M 57.23 48.90 C 57.75 47.28 58.19 45.63 58.87 44.05 C 59.27 48.77 61.06 53.21 61.55 57.90 L 60.19 57.40 C 58.01 56.34 56.86 54.18 56.79 51.81 C 56.90 51.08 57.12 49.63 57.23 48.90 Z" />
</g>
<g id="#f09297ff">
<path fill="#f09297" opacity="1.00" d=" M 93.69 47.52 C 96.61 48.92 96.59 52.58 97.78 55.19 C 95.98 55.98 94.11 56.61 92.15 56.82 C 92.52 56.32 93.27 55.31 93.64 54.81 L 95.13 54.62 C 94.68 52.25 94.34 49.85 93.69 47.52 Z" />
</g>
<g id="#a36464ff">
<path fill="#a36464" opacity="1.00" d=" M 90.17 52.44 C 90.84 51.60 91.22 50.40 92.38 50.09 C 92.44 50.18 92.55 50.37 92.61 50.46 C 92.55 51.01 92.41 52.10 92.35 52.65 C 92.76 53.07 93.59 53.91 94.00 54.33 L 93.64 54.81 C 93.27 55.31 92.52 56.32 92.15 56.82 L 91.75 55.94 C 91.23 54.77 90.68 53.61 90.17 52.44 Z" />
</g>
<g id="#c2936dff">
<path fill="#c2936d" opacity="1.00" d=" M 105.07 52.01 C 106.01 51.73 106.96 51.45 107.91 51.17 C 108.02 52.33 108.92 53.73 107.79 54.67 C 102.13 60.79 93.10 62.03 87.33 67.99 C 85.97 68.62 84.60 69.25 83.25 69.91 C 81.40 69.88 79.54 69.79 77.69 69.71 C 77.21 68.92 76.73 68.15 76.23 67.38 C 74.58 66.52 73.31 68.66 73.15 70.06 C 70.88 70.46 68.58 70.41 66.29 70.47 C 65.76 69.11 65.22 67.76 64.66 66.43 C 64.13 65.17 63.57 63.92 63.04 62.67 C 67.84 61.96 72.68 62.68 77.49 62.33 C 81.10 62.16 83.60 59.33 86.08 57.06 C 87.66 57.71 89.23 58.82 91.04 58.42 C 96.16 57.66 101.38 55.78 105.07 52.01 Z" />
</g>
<g id="#a57b5dff">
<path fill="#a57b5d" opacity="1.00" d=" M 55.67 60.26 C 55.72 57.40 55.76 54.52 56.79 51.81 C 56.86 54.18 58.01 56.34 60.19 57.40 C 60.54 57.65 61.22 58.14 61.56 58.38 C 62.01 59.83 62.47 61.27 63.04 62.67 C 63.57 63.92 64.13 65.17 64.66 66.43 C 63.58 67.38 63.19 68.75 62.84 70.09 C 62.48 69.78 61.76 69.16 61.39 68.85 L 60.43 68.50 C 59.73 68.46 59.04 68.43 58.34 68.42 C 58.10 66.22 57.88 64.01 57.40 61.85 C 57.07 61.55 56.42 60.95 56.09 60.65 L 55.67 60.26 Z" />
</g>
<g id="#f0efefff">
<path fill="#f0efef" opacity="1.00" d=" M 87.22 55.97 C 87.61 54.37 89.05 53.50 90.17 52.44 C 90.68 53.61 91.23 54.77 91.75 55.94 L 92.22 57.24 C 90.61 56.87 88.00 58.00 87.22 55.97 Z" />
</g>
<g id="#8f6548ff">
<path fill="#8f6548" opacity="1.00" d=" M 123.26 58.45 C 123.87 59.02 124.48 59.58 125.09 60.15 C 125.08 62.04 125.06 63.93 125.06 65.81 C 126.83 65.01 128.58 64.14 130.42 63.49 C 130.40 67.28 127.07 69.34 124.83 71.88 C 121.77 75.09 120.97 79.60 119.74 83.69 C 119.17 83.88 118.02 84.26 117.45 84.44 C 117.53 84.88 117.70 85.75 117.79 86.18 C 117.27 86.01 116.23 85.68 115.72 85.51 C 115.65 85.07 115.50 84.18 115.43 83.73 C 112.51 82.42 109.72 80.86 106.87 79.40 C 104.04 77.82 100.71 78.75 97.69 79.04 C 100.05 77.82 102.46 76.50 105.15 76.23 C 109.67 75.16 113.18 79.22 117.61 79.18 C 117.78 78.70 118.14 77.73 118.31 77.25 C 119.29 74.09 120.65 71.06 122.64 68.41 C 121.81 67.24 120.97 66.08 120.15 64.91 C 117.92 66.74 115.62 68.48 113.16 70.00 C 110.06 71.53 106.77 72.71 103.30 73.04 C 103.42 72.07 103.54 71.10 103.66 70.13 C 102.55 68.53 101.47 66.92 100.42 65.29 C 98.56 65.48 96.69 65.70 94.85 66.02 C 99.64 63.06 104.99 61.19 110.38 59.63 C 113.04 58.78 115.65 60.12 118.12 60.97 C 119.84 60.14 121.55 59.30 123.26 58.45 M 102.42 65.30 C 101.11 66.53 103.19 68.92 104.47 67.46 C 106.06 66.10 103.83 63.61 102.42 65.30 Z" />
</g>
<g id="#6f4428ff">
<path fill="#6f4428" opacity="1.00" d=" M 56.09 60.65 C 56.42 60.95 57.07 61.55 57.40 61.85 C 57.88 64.01 58.10 66.22 58.34 68.42 C 59.04 68.43 59.73 68.46 60.43 68.50 L 61.39 68.85 C 61.06 69.04 60.38 69.42 60.04 69.61 C 57.40 70.98 53.85 72.87 54.30 76.39 C 53.21 77.97 52.27 79.65 51.16 81.21 C 51.07 76.27 51.94 71.32 54.19 66.89 C 54.80 65.35 56.65 65.89 57.90 65.54 C 57.25 63.93 56.57 62.33 56.09 60.65 Z" />
</g>
<g id="#a67752ff">
<path fill="#a67752" opacity="1.00" d=" M 130.42 63.49 C 131.97 63.96 133.54 64.41 135.09 64.88 C 135.39 69.67 131.99 73.13 130.12 77.16 C 128.60 80.55 132.12 82.93 132.92 85.97 C 132.39 87.09 131.88 88.21 131.34 89.32 C 130.96 89.65 130.21 90.31 129.84 90.64 C 125.61 89.78 121.95 87.28 117.79 86.18 C 117.70 85.75 117.53 84.88 117.45 84.44 C 118.02 84.26 119.17 83.88 119.74 83.69 C 120.97 79.60 121.77 75.09 124.83 71.88 C 127.07 69.34 130.40 67.28 130.42 63.49 Z" />
</g>
<g id="#7f5940ff">
<path fill="#7f5940" opacity="1.00" d=" M 94.85 66.02 C 96.69 65.70 98.56 65.48 100.42 65.29 C 101.47 66.92 102.55 68.53 103.66 70.13 C 103.54 71.10 103.42 72.07 103.30 73.04 C 106.77 72.71 110.06 71.53 113.16 70.00 C 112.17 71.11 111.23 72.26 110.29 73.42 C 113.04 74.52 115.73 75.78 118.31 77.25 C 118.14 77.73 117.78 78.70 117.61 79.18 C 113.18 79.22 109.67 75.16 105.15 76.23 C 102.46 76.50 100.05 77.82 97.69 79.04 C 90.17 81.43 82.53 84.06 74.55 84.17 C 73.60 83.82 72.64 83.49 71.67 83.18 C 80.64 81.77 90.20 81.00 98.17 76.31 C 91.68 76.94 84.51 77.11 78.69 73.86 C 80.27 72.61 81.76 71.25 83.25 69.91 C 84.60 69.25 85.97 68.62 87.33 67.99 C 89.89 67.55 92.41 66.92 94.85 66.02 Z" />
</g>
<g id="#b09987ff">
<path fill="#b09987" opacity="1.00" d=" M 102.42 65.30 C 103.83 63.61 106.06 66.10 104.47 67.46 C 103.19 68.92 101.11 66.53 102.42 65.30 Z" />
</g>
<g id="#70462bff">
<path fill="#70462b" opacity="1.00" d=" M 113.16 70.00 C 115.62 68.48 117.92 66.74 120.15 64.91 C 120.97 66.08 121.81 67.24 122.64 68.41 C 120.65 71.06 119.29 74.09 118.31 77.25 C 115.73 75.78 113.04 74.52 110.29 73.42 C 111.23 72.26 112.17 71.11 113.16 70.00 Z" />
</g>
<g id="#b88760ff">
<path fill="#b88760" opacity="1.00" d=" M 135.09 64.88 C 135.83 65.14 136.57 65.39 137.31 65.64 C 136.28 67.06 137.35 68.73 137.50 70.25 C 138.12 73.00 136.79 75.80 137.39 78.52 C 142.96 81.69 149.48 83.20 154.52 87.22 C 152.65 88.22 150.83 89.30 148.98 90.34 C 146.19 88.03 143.78 85.20 140.59 83.44 C 137.83 83.35 135.37 84.93 132.92 85.97 C 132.12 82.93 128.60 80.55 130.12 77.16 C 131.99 73.13 135.39 69.67 135.09 64.88 Z" />
</g>
<g id="#c4936cff">
<path fill="#c4936c" opacity="1.00" d=" M 137.50 70.25 C 137.35 68.73 136.28 67.06 137.31 65.64 C 138.36 66.07 139.39 66.54 140.40 67.06 L 140.44 67.42 C 140.28 70.14 142.13 72.27 143.74 74.24 C 146.91 78.15 151.17 80.94 155.24 83.81 C 156.45 84.77 158.01 84.84 159.48 84.90 L 160.01 84.93 L 160.06 85.97 C 158.19 86.29 156.33 86.67 154.52 87.22 C 149.48 83.20 142.96 81.69 137.39 78.52 C 136.79 75.80 138.12 73.00 137.50 70.25 Z" />
</g>
<g id="#875e43ff">
<path fill="#875e43" opacity="1.00" d=" M 46.32 75.19 C 48.64 72.17 50.92 68.97 54.19 66.89 C 51.94 71.32 51.07 76.27 51.16 81.21 C 52.27 79.65 53.21 77.97 54.30 76.39 C 55.74 75.06 57.25 73.80 58.88 72.70 C 58.73 73.18 58.45 74.14 58.30 74.61 C 59.09 74.61 59.88 74.61 60.67 74.60 C 61.99 76.77 63.11 79.18 65.06 80.87 C 66.96 82.33 69.42 82.61 71.67 83.18 C 72.64 83.49 73.60 83.82 74.55 84.17 C 74.98 84.58 75.85 85.42 76.29 85.84 C 73.62 85.39 70.92 85.07 68.23 84.75 C 66.51 84.28 64.83 83.67 63.14 83.08 C 62.13 81.58 61.14 80.08 60.16 78.57 C 55.67 83.78 53.81 90.46 53.04 97.16 C 51.15 101.19 49.37 105.27 47.91 109.48 C 47.25 107.74 46.63 105.99 46.16 104.19 C 45.98 102.91 45.85 101.62 45.74 100.33 L 45.72 100.14 C 45.42 100.00 44.82 99.73 44.52 99.59 C 46.33 98.18 45.02 95.35 45.56 93.46 C 44.46 94.44 43.34 95.40 42.21 96.35 C 41.60 95.18 41.00 94.01 40.39 92.84 C 41.00 90.51 41.64 88.18 41.94 85.78 C 42.03 87.63 42.16 89.49 42.59 91.30 C 43.36 92.05 44.14 92.80 44.93 93.53 C 46.99 91.40 48.91 89.15 50.72 86.81 C 49.18 86.38 47.61 86.03 46.04 85.74 C 46.64 82.34 46.86 78.86 46.35 75.43 L 46.32 75.19 Z" />
</g>
<g id="#704e39ff">
<path fill="#704e39" opacity="1.00" d=" M 62.84 70.09 C 63.19 68.75 63.58 67.38 64.66 66.43 C 65.22 67.76 65.76 69.11 66.29 70.47 C 65.58 70.62 64.18 70.92 63.47 71.08 C 65.48 73.31 67.97 75.43 71.13 75.55 C 73.73 75.51 76.22 74.58 78.69 73.86 C 84.51 77.11 91.68 76.94 98.17 76.31 C 90.20 81.00 80.64 81.77 71.67 83.18 C 69.42 82.61 66.96 82.33 65.06 80.87 C 63.11 79.18 61.99 76.77 60.67 74.60 C 59.88 74.61 59.09 74.61 58.30 74.61 C 58.45 74.14 58.73 73.18 58.88 72.70 C 59.24 71.66 59.63 70.63 60.04 69.61 C 60.38 69.42 61.06 69.04 61.39 68.85 C 61.76 69.16 62.48 69.78 62.84 70.09 Z" />
</g>
<g id="#3d2f23ff">
<path fill="#3d2f23" opacity="1.00" d=" M 73.15 70.06 C 73.31 68.66 74.58 66.52 76.23 67.38 C 76.21 69.01 74.62 69.98 73.15 70.06 Z" />
</g>
<g id="#a1795bff">
<path fill="#a1795b" opacity="1.00" d=" M 76.23 67.38 C 76.73 68.15 77.21 68.92 77.69 69.71 C 79.54 69.79 81.40 69.88 83.25 69.91 C 81.76 71.25 80.27 72.61 78.69 73.86 C 76.22 74.58 73.73 75.51 71.13 75.55 C 67.97 75.43 65.48 73.31 63.47 71.08 C 64.18 70.92 65.58 70.62 66.29 70.47 C 68.58 70.41 70.88 70.46 73.15 70.06 C 74.62 69.98 76.21 69.01 76.23 67.38 Z" />
<path fill="#a1795b" opacity="1.00" d=" M 140.30 195.70 C 139.84 192.71 140.31 189.67 141.31 186.84 C 141.96 189.41 142.14 192.07 142.38 194.70 C 145.33 197.33 150.56 197.48 152.30 201.23 C 150.11 200.63 147.93 199.98 145.72 199.48 C 143.89 198.30 141.59 197.53 140.30 195.70 Z" />
</g>
<g id="#e2ab80ff">
<path fill="#e2ab80" opacity="1.00" d=" M 143.74 74.24 C 142.13 72.27 140.28 70.14 140.44 67.42 C 142.79 68.27 145.15 69.28 147.06 70.94 L 145.70 71.06 C 148.00 73.54 150.36 75.97 152.62 78.51 C 153.08 78.41 154.02 78.22 154.48 78.13 L 154.82 78.06 C 156.26 80.41 157.87 82.65 159.48 84.90 C 158.01 84.84 156.45 84.77 155.24 83.81 C 151.17 80.94 146.91 78.15 143.74 74.24 Z" />
</g>
<g id="#55301bff">
<path fill="#55301b" opacity="1.00" d=" M 54.30 76.39 C 53.85 72.87 57.40 70.98 60.04 69.61 C 59.63 70.63 59.24 71.66 58.88 72.70 C 57.25 73.80 55.74 75.06 54.30 76.39 Z" />
</g>
<g id="#ffe5abff">
<path fill="#ffe5ab" opacity="1.00" d=" M 145.70 71.06 L 147.06 70.94 C 150.09 72.63 152.55 75.27 154.48 78.13 C 154.02 78.22 153.08 78.41 152.62 78.51 C 150.36 75.97 148.00 73.54 145.70 71.06 Z" />
<path fill="#ffe5ab" opacity="1.00" d=" M 164.27 93.37 C 167.06 95.68 169.79 98.06 172.24 100.72 C 174.20 102.88 174.39 105.95 175.14 108.63 C 171.65 108.14 168.80 105.93 165.86 104.17 C 160.36 100.85 154.49 97.82 148.04 96.91 C 143.83 96.04 139.30 96.86 135.33 94.93 C 137.44 94.59 139.57 94.31 141.69 94.07 C 143.53 94.09 145.37 94.08 147.21 94.10 C 147.84 94.12 149.11 94.14 149.75 94.15 C 152.83 94.72 155.87 95.50 158.88 96.34 C 161.08 96.91 163.34 97.25 165.60 97.49 C 165.16 96.11 164.72 94.74 164.27 93.37 Z" />
</g>
<g id="#b0805eff">
<path fill="#b0805e" opacity="1.00" d=" M 46.35 75.43 C 46.86 78.86 46.64 82.34 46.04 85.74 C 45.05 87.69 43.85 89.52 42.59 91.30 C 42.16 89.49 42.03 87.63 41.94 85.78 C 42.61 82.06 44.21 78.55 46.35 75.43 Z" />
</g>
<g id="#a0724fff">
<path fill="#a0724f" opacity="1.00" d=" M 97.69 79.04 C 100.71 78.75 104.04 77.82 106.87 79.40 C 109.72 80.86 112.51 82.42 115.43 83.73 C 115.50 84.18 115.65 85.07 115.72 85.51 C 115.80 86.14 115.98 87.38 116.06 88.01 C 117.62 88.76 119.23 89.38 120.87 89.92 C 120.07 92.84 118.61 95.79 118.99 98.88 C 120.05 101.00 122.32 102.12 124.00 103.69 L 123.85 104.68 C 120.57 104.05 116.88 103.00 115.22 99.80 C 111.57 94.51 106.93 88.78 100.20 87.69 C 94.34 86.37 88.26 87.40 82.37 86.31 C 82.48 86.77 82.70 87.69 82.81 88.15 C 80.65 87.33 78.45 86.63 76.29 85.84 C 75.85 85.42 74.98 84.58 74.55 84.17 C 82.53 84.06 90.17 81.43 97.69 79.04 Z" />
</g>
<g id="#a17555ff">
<path fill="#a17555" opacity="1.00" d=" M 53.04 97.16 C 53.81 90.46 55.67 83.78 60.16 78.57 C 61.14 80.08 62.13 81.58 63.14 83.08 C 64.83 83.67 66.51 84.28 68.23 84.75 C 64.59 85.46 61.16 86.93 57.98 88.82 C 57.88 89.26 57.69 90.12 57.60 90.56 C 57.44 90.81 57.10 91.31 56.94 91.57 C 55.69 93.47 54.35 95.30 53.04 97.16 Z" />
</g>
<g id="#845e42ff">
<path fill="#845e42" opacity="1.00" d=" M 132.92 85.97 C 135.37 84.93 137.83 83.35 140.59 83.44 C 143.78 85.20 146.19 88.03 148.98 90.34 C 150.83 89.30 152.65 88.22 154.52 87.22 C 156.33 86.67 158.19 86.29 160.06 85.97 C 159.63 87.14 159.18 88.32 158.71 89.48 C 157.98 89.44 157.24 89.46 156.51 89.55 C 154.68 90.47 152.89 91.47 151.15 92.54 C 151.54 92.87 152.33 93.52 152.73 93.85 C 151.98 93.92 150.49 94.08 149.75 94.15 C 149.11 94.14 147.84 94.12 147.21 94.10 C 145.06 92.13 142.95 90.03 140.38 88.60 C 138.42 87.43 136.12 88.50 134.50 89.75 C 133.44 89.60 132.39 89.46 131.34 89.32 C 131.88 88.21 132.39 87.09 132.92 85.97 Z" />
</g>
<g id="#5e4531ff">
<path fill="#5e4531" opacity="1.00" d=" M 57.98 88.82 C 61.16 86.93 64.59 85.46 68.23 84.75 C 70.92 85.07 73.62 85.39 76.29 85.84 C 78.45 86.63 80.65 87.33 82.81 88.15 C 87.44 90.30 91.28 93.76 95.01 97.18 C 97.84 101.05 100.50 105.07 102.72 109.33 C 104.61 112.86 105.29 116.86 106.68 120.58 C 107.05 126.69 106.91 132.82 106.27 138.90 C 105.51 138.89 103.98 138.86 103.22 138.85 C 103.27 138.53 103.39 137.90 103.44 137.58 C 103.89 134.61 104.32 131.65 104.58 128.66 C 104.61 128.32 104.68 127.63 104.71 127.29 C 104.46 120.64 102.96 113.80 99.45 108.08 C 95.96 100.62 90.18 94.22 82.88 90.33 C 77.61 88.32 71.95 85.85 66.20 87.13 C 63.14 87.70 60.25 88.96 57.60 90.56 C 57.69 90.12 57.88 89.26 57.98 88.82 Z" />
<path fill="#5e4531" opacity="1.00" d=" M 123.87 144.47 C 124.60 144.54 126.07 144.66 126.80 144.73 C 121.49 146.69 117.64 150.95 113.33 154.40 C 111.90 155.51 110.48 156.62 109.07 157.75 C 109.26 156.29 109.53 154.84 109.81 153.40 C 114.75 150.84 119.15 147.39 123.87 144.47 Z" />
</g>
<g id="#64412cff">
<path fill="#64412c" opacity="1.00" d=" M 46.04 85.74 C 47.61 86.03 49.18 86.38 50.72 86.81 C 48.91 89.15 46.99 91.40 44.93 93.53 C 44.14 92.80 43.36 92.05 42.59 91.30 C 43.85 89.52 45.05 87.69 46.04 85.74 Z" />
</g>
<g id="#af805aff">
<path fill="#af805a" opacity="1.00" d=" M 82.37 86.31 C 88.26 87.40 94.34 86.37 100.20 87.69 C 106.93 88.78 111.57 94.51 115.22 99.80 C 116.88 103.00 120.57 104.05 123.85 104.68 L 123.82 104.87 C 123.66 105.85 123.49 106.83 123.32 107.81 C 126.34 107.45 129.40 107.49 132.35 108.30 C 132.72 110.13 133.10 111.95 133.48 113.78 C 133.27 113.74 132.85 113.68 132.64 113.64 C 132.29 113.38 131.59 112.85 131.24 112.58 C 130.34 112.59 129.44 112.63 128.55 112.69 C 127.05 111.00 125.15 109.75 123.20 108.65 C 122.73 109.67 122.28 110.70 121.84 111.74 C 119.50 109.77 116.16 109.23 114.28 106.71 C 112.23 104.14 110.43 101.15 107.31 99.74 C 102.68 97.46 98.69 93.61 93.31 93.24 C 93.86 94.55 94.41 95.87 95.01 97.18 C 91.28 93.76 87.44 90.30 82.81 88.15 C 82.70 87.69 82.48 86.77 82.37 86.31 Z" />
</g>
<g id="#694631ff">
<path fill="#694631" opacity="1.00" d=" M 115.72 85.51 C 116.23 85.68 117.27 86.01 117.79 86.18 C 121.95 87.28 125.61 89.78 129.84 90.64 C 130.21 90.31 130.96 89.65 131.34 89.32 C 132.39 89.46 133.44 89.60 134.50 89.75 C 133.17 90.83 132.12 92.53 130.27 92.69 C 127.12 91.80 124.01 90.83 120.87 89.92 C 119.23 89.38 117.62 88.76 116.06 88.01 C 115.98 87.38 115.80 86.14 115.72 85.51 Z" />
</g>
<g id="#d8c687ff">
<path fill="#d8c687" opacity="1.00" d=" M 66.20 87.13 C 71.95 85.85 77.61 88.32 82.88 90.33 C 82.20 91.31 81.52 92.28 80.84 93.26 C 74.69 95.07 68.39 96.53 62.01 97.15 C 58.65 97.79 58.19 93.69 56.94 91.57 C 57.10 91.31 57.44 90.81 57.60 90.56 C 60.25 88.96 63.14 87.70 66.20 87.13 Z" />
</g>
<g id="#9b6d4bff">
<path fill="#9b6d4b" opacity="1.00" d=" M 134.50 89.75 C 136.12 88.50 138.42 87.43 140.38 88.60 C 142.95 90.03 145.06 92.13 147.21 94.10 C 145.37 94.08 143.53 94.09 141.69 94.07 C 138.33 92.66 134.89 93.66 131.59 94.62 C 130.12 95.20 128.85 94.11 127.72 93.35 C 128.36 93.18 129.63 92.86 130.27 92.69 C 132.12 92.53 133.17 90.83 134.50 89.75 Z" />
</g>
<g id="#d7a479fa">
<path fill="#d7a479" opacity="0.98" d=" M 156.51 89.55 C 157.24 89.46 157.98 89.44 158.71 89.48 C 160.71 90.56 162.45 92.03 164.27 93.37 C 164.72 94.74 165.16 96.11 165.60 97.49 C 163.34 97.25 161.08 96.91 158.88 96.34 C 159.67 96.23 161.24 96.00 162.02 95.88 C 160.29 93.68 158.42 91.60 156.51 89.55 Z" />
</g>
<g id="#805b43ff">
<path fill="#805b43" opacity="1.00" d=" M 120.87 89.92 C 124.01 90.83 127.12 91.80 130.27 92.69 C 129.63 92.86 128.36 93.18 127.72 93.35 C 128.85 94.11 130.12 95.20 131.59 94.62 C 134.89 93.66 138.33 92.66 141.69 94.07 C 139.57 94.31 137.44 94.59 135.33 94.93 C 133.25 95.42 131.39 96.50 129.82 97.94 C 127.73 99.69 125.80 101.63 124.00 103.69 C 122.32 102.12 120.05 101.00 118.99 98.88 C 118.61 95.79 120.07 92.84 120.87 89.92 Z" />
</g>
<g id="#b88761ff">
<path fill="#b88761" opacity="1.00" d=" M 151.15 92.54 C 152.89 91.47 154.68 90.47 156.51 89.55 C 158.42 91.60 160.29 93.68 162.02 95.88 C 161.24 96.00 159.67 96.23 158.88 96.34 C 155.87 95.50 152.83 94.72 149.75 94.15 C 150.49 94.08 151.98 93.92 152.73 93.85 C 152.33 93.52 151.54 92.87 151.15 92.54 Z" />
</g>
<g id="#e9d894ff">
<path fill="#e9d894" opacity="1.00" d=" M 80.84 93.26 C 81.52 92.28 82.20 91.31 82.88 90.33 C 90.18 94.22 95.96 100.62 99.45 108.08 C 96.06 105.45 93.98 101.62 91.18 98.45 C 84.59 101.41 77.00 102.48 71.37 107.34 C 67.99 111.95 69.73 118.56 74.37 121.51 C 84.33 124.25 95.39 122.02 104.71 127.29 C 104.68 127.63 104.61 128.32 104.58 128.66 C 103.89 129.92 103.21 131.18 102.56 132.46 C 99.11 131.37 95.63 130.25 92.00 130.03 C 86.45 129.54 80.64 130.71 75.33 128.55 C 70.07 126.95 65.44 123.70 59.98 122.71 C 58.78 122.56 57.90 121.73 57.05 120.95 L 56.91 119.68 C 58.70 118.22 59.99 116.31 61.05 114.28 L 60.73 114.23 C 58.50 113.78 56.23 113.79 53.97 113.95 C 53.75 113.87 53.33 113.72 53.11 113.65 C 51.17 112.82 49.05 112.63 46.96 112.73 C 47.27 111.64 47.57 110.55 47.91 109.48 C 49.37 105.27 51.15 101.19 53.04 97.16 C 54.35 95.30 55.69 93.47 56.94 91.57 C 58.19 93.69 58.65 97.79 62.01 97.15 C 68.39 96.53 74.69 95.07 80.84 93.26 Z" />
</g>
<g id="#bc8c65ff">
<path fill="#bc8c65" opacity="1.00" d=" M 93.31 93.24 C 98.69 93.61 102.68 97.46 107.31 99.74 C 110.43 101.15 112.23 104.14 114.28 106.71 C 116.16 109.23 119.50 109.77 121.84 111.74 C 119.96 115.73 122.71 119.94 125.43 122.76 C 125.67 123.03 126.15 123.58 126.39 123.86 C 127.15 122.84 127.86 121.81 128.57 120.76 C 128.87 121.55 129.17 122.34 129.47 123.13 C 130.29 125.25 131.34 128.25 134.06 128.32 C 136.31 126.89 137.89 124.70 139.69 122.78 C 141.12 123.26 142.55 123.74 143.98 124.21 C 140.81 126.79 139.60 133.30 143.72 135.44 C 143.74 137.12 143.73 138.81 143.68 140.49 C 143.23 140.79 142.34 141.37 141.89 141.67 C 141.53 141.90 140.79 142.37 140.43 142.60 C 139.16 142.18 137.84 141.91 136.53 141.71 C 134.93 142.08 133.36 142.51 131.79 142.98 C 130.11 143.51 128.44 144.09 126.80 144.73 C 126.07 144.66 124.60 144.54 123.87 144.47 C 123.25 142.76 125.21 141.93 126.04 140.77 C 124.99 139.37 124.43 137.13 122.44 136.86 C 117.70 135.96 112.90 135.36 108.17 134.37 C 107.96 129.75 108.68 124.91 106.68 120.58 C 105.29 116.86 104.61 112.86 102.72 109.33 C 100.50 105.07 97.84 101.05 95.01 97.18 C 94.41 95.87 93.86 94.55 93.31 93.24 Z" />
</g>
<g id="#ffcb9bff">
<path fill="#ffcb9b" opacity="1.00" d=" M 129.82 97.94 C 131.39 96.50 133.25 95.42 135.33 94.93 C 139.30 96.86 143.83 96.04 148.04 96.91 C 154.49 97.82 160.36 100.85 165.86 104.17 C 168.80 105.93 171.65 108.14 175.14 108.63 L 175.64 108.73 C 175.91 110.64 175.53 112.58 175.84 114.49 C 173.27 114.29 170.36 114.57 168.25 112.80 C 165.10 110.33 163.03 106.58 159.27 104.88 C 154.67 102.69 150.29 99.74 145.15 98.97 C 140.00 98.12 134.44 96.24 129.61 99.27 L 129.82 97.94 Z" />
</g>
<g id="#deaa7fff">
<path fill="#deaa7f" opacity="1.00" d=" M 129.61 99.27 C 134.44 96.24 140.00 98.12 145.15 98.97 C 150.29 99.74 154.67 102.69 159.27 104.88 C 163.03 106.58 165.10 110.33 168.25 112.80 C 170.36 114.57 173.27 114.29 175.84 114.49 L 176.68 114.41 C 176.01 115.56 175.42 116.75 174.73 117.89 C 170.47 121.12 164.63 120.81 160.06 118.42 C 159.19 119.29 158.32 120.17 157.51 121.10 C 155.37 120.54 153.24 120.94 151.24 121.76 C 151.41 119.00 152.02 116.30 153.23 113.79 C 151.29 112.82 149.28 111.15 146.99 111.99 C 143.74 112.79 140.25 112.27 137.33 110.66 C 135.39 109.09 135.34 106.30 134.57 104.09 C 130.96 103.49 127.31 103.84 123.82 104.87 L 123.85 104.68 L 124.00 103.69 C 125.80 101.63 127.73 99.69 129.82 97.94 L 129.61 99.27 Z" />
</g>
<g id="#f8e499ff">
<path fill="#f8e499" opacity="1.00" d=" M 71.37 107.34 C 77.00 102.48 84.59 101.41 91.18 98.45 C 93.98 101.62 96.06 105.45 99.45 108.08 C 102.96 113.80 104.46 120.64 104.71 127.29 C 95.39 122.02 84.33 124.25 74.37 121.51 C 69.73 118.56 67.99 111.95 71.37 107.34 Z" />
</g>
<g id="#d4a179ff">
<path fill="#d4a179" opacity="1.00" d=" M 18.38 100.13 C 27.05 99.60 35.97 97.95 44.52 99.59 C 44.82 99.73 45.42 100.00 45.72 100.14 C 45.10 101.21 44.20 101.74 43.02 101.75 C 36.21 102.10 29.40 102.72 22.63 103.57 C 16.77 104.60 14.18 110.44 10.20 114.13 C 10.79 114.00 11.97 113.75 12.56 113.63 C 11.79 114.83 11.06 116.05 10.47 117.36 C 9.07 118.11 7.61 118.76 6.16 119.42 C 6.76 119.94 7.37 120.46 7.99 120.97 C 5.76 120.69 3.51 120.59 1.27 120.76 C 1.26 120.33 1.24 119.48 1.23 119.05 C -1.10 117.48 1.49 115.17 2.09 113.38 C 4.64 113.38 7.05 112.55 9.31 111.42 C 10.10 109.17 10.82 106.90 11.66 104.68 C 13.52 103.89 15.38 103.09 17.17 102.15 C 17.42 101.74 17.90 100.93 18.15 100.52 L 18.38 100.13 Z" />
</g>
<g id="#c49268ff">
<path fill="#c49268" opacity="1.00" d=" M 45.72 100.14 L 45.74 100.33 C 45.85 101.62 45.98 102.91 46.16 104.19 C 42.41 104.36 38.50 104.27 35.03 105.94 C 32.27 107.26 29.50 108.61 26.62 109.67 C 26.33 110.15 25.76 111.09 25.47 111.56 C 21.35 113.18 16.90 113.21 12.56 113.63 C 11.97 113.75 10.79 114.00 10.20 114.13 C 14.18 110.44 16.77 104.60 22.63 103.57 C 29.40 102.72 36.21 102.10 43.02 101.75 C 44.20 101.74 45.10 101.21 45.72 100.14 Z" />
</g>
<g id="#efbb8cff">
<path fill="#efbb8c" opacity="1.00" d=" M 4.12 109.18 C 7.88 106.62 10.80 103.04 14.72 100.68 C 15.57 100.64 17.29 100.56 18.15 100.52 C 17.90 100.93 17.42 101.74 17.17 102.15 C 15.38 103.09 13.52 103.89 11.66 104.68 C 10.82 106.90 10.10 109.17 9.31 111.42 C 7.05 112.55 4.64 113.38 2.09 113.38 C 2.71 111.98 2.71 110.10 4.12 109.18 Z" />
</g>
<g id="#b5855fff">
<path fill="#b5855f" opacity="1.00" d=" M 35.03 105.94 C 38.50 104.27 42.41 104.36 46.16 104.19 C 46.63 105.99 47.25 107.74 47.91 109.48 C 47.57 110.55 47.27 111.64 46.96 112.73 C 45.21 112.96 43.48 113.25 41.74 113.50 C 40.02 113.51 37.75 111.63 36.46 113.38 C 36.21 113.87 35.72 114.86 35.47 115.36 C 35.83 116.17 36.55 117.79 36.91 118.60 C 31.55 118.90 26.25 118.21 21.04 117.00 C 21.07 117.69 21.12 119.06 21.15 119.74 C 20.21 115.66 16.01 114.78 12.56 113.63 C 16.90 113.21 21.35 113.18 25.47 111.56 C 25.76 111.09 26.33 110.15 26.62 109.67 C 29.50 108.61 32.27 107.26 35.03 105.94 Z" />
</g>
<g id="#cd9a6eff">
<path fill="#cd9a6e" opacity="1.00" d=" M 123.82 104.87 C 127.31 103.84 130.96 103.49 134.57 104.09 C 135.34 106.30 135.39 109.09 137.33 110.66 C 140.25 112.27 143.74 112.79 146.99 111.99 C 149.28 111.15 151.29 112.82 153.23 113.79 C 152.02 116.30 151.41 119.00 151.24 121.76 C 153.24 120.94 155.37 120.54 157.51 121.10 C 156.31 123.52 154.99 126.00 152.05 126.50 C 150.21 125.27 148.29 124.17 146.29 123.25 C 145.78 121.90 145.18 120.58 144.57 119.27 C 142.83 119.45 141.09 119.63 139.35 119.82 C 137.70 117.24 135.20 115.36 132.29 114.44 L 132.64 113.64 C 132.85 113.68 133.27 113.74 133.48 113.78 C 133.10 111.95 132.72 110.13 132.35 108.30 C 129.40 107.49 126.34 107.45 123.32 107.81 C 123.49 106.83 123.66 105.85 123.82 104.87 Z" />
</g>
<g id="#e0d1b6ff">
<path fill="#e0d1b6" opacity="1.00" d=" M 123.20 108.65 C 125.15 109.75 127.05 111.00 128.55 112.69 L 129.00 113.55 C 127.40 116.45 126.70 119.72 125.43 122.76 C 122.71 119.94 119.96 115.73 121.84 111.74 C 122.28 110.70 122.73 109.67 123.20 108.65 Z" />
</g>
<g id="#ebe5c9ff">
<path fill="#ebe5c9" opacity="1.00" d=" M 36.46 113.38 C 37.75 111.63 40.02 113.51 41.74 113.50 C 40.53 114.53 39.34 115.58 38.14 116.62 C 37.48 116.30 36.14 115.67 35.47 115.36 C 35.72 114.86 36.21 113.87 36.46 113.38 Z" />
<path fill="#ebe5c9" opacity="1.00" d=" M 144.88 123.70 C 145.23 123.59 145.94 123.36 146.29 123.25 C 148.29 124.17 150.21 125.27 152.05 126.50 C 152.25 127.15 152.45 127.80 152.66 128.46 C 152.05 129.28 151.43 130.10 150.80 130.91 C 150.41 131.19 149.62 131.75 149.23 132.03 C 147.06 131.48 144.98 132.04 143.10 133.13 C 143.96 130.71 144.97 128.35 145.80 125.93 C 145.57 125.37 145.11 124.26 144.88 123.70 Z" />
</g>
<g id="#936c4fff">
<path fill="#936c4f" opacity="1.00" d=" M 128.55 112.69 C 129.44 112.63 130.34 112.59 131.24 112.58 C 131.59 112.85 132.29 113.38 132.64 113.64 L 132.29 114.44 C 131.92 115.16 131.17 116.59 130.80 117.31 C 130.22 116.04 129.63 114.78 129.00 113.55 L 128.55 112.69 Z" />
</g>
<g id="#8b7a66ff">
<path fill="#8b7a66" opacity="1.00" d=" M 41.74 113.50 C 43.48 113.25 45.21 112.96 46.96 112.73 C 49.05 112.63 51.17 112.82 53.11 113.65 C 52.38 113.74 50.91 113.94 50.18 114.04 C 51.29 115.85 52.44 117.65 53.59 119.45 C 52.46 119.63 51.35 119.86 50.24 120.14 C 47.63 122.18 47.72 127.14 43.86 127.69 C 40.08 127.76 40.17 123.10 39.63 120.45 C 39.22 120.57 38.39 120.82 37.97 120.94 C 37.92 120.37 37.83 119.23 37.79 118.65 L 36.91 118.60 C 36.55 117.79 35.83 116.17 35.47 115.36 C 36.14 115.67 37.48 116.30 38.14 116.62 C 39.34 115.58 40.53 114.53 41.74 113.50 Z" />
</g>
<g id="#f4e5c5ff">
<path fill="#f4e5c5" opacity="1.00" d=" M 12.56 113.63 C 16.01 114.78 20.21 115.66 21.15 119.74 L 21.68 120.56 C 21.11 122.30 21.15 124.20 21.82 125.91 C 21.31 126.19 20.30 126.77 19.80 127.06 C 15.37 125.53 11.02 122.36 10.47 117.36 C 11.06 116.05 11.79 114.83 12.56 113.63 Z" />
</g>
<g id="#72604dff">
<path fill="#72604d" opacity="1.00" d=" M 50.18 114.04 C 50.91 113.94 52.38 113.74 53.11 113.65 C 53.33 113.72 53.75 113.87 53.97 113.95 C 54.53 115.19 55.11 116.43 55.70 117.67 C 58.29 118.43 59.34 115.82 60.73 114.23 L 61.05 114.28 C 59.99 116.31 58.70 118.22 56.91 119.68 C 54.81 121.00 54.18 123.22 54.48 125.57 C 53.64 126.48 52.82 127.40 51.91 128.25 C 50.70 128.01 49.84 127.02 48.82 126.39 C 47.19 127.88 45.48 129.29 43.65 130.54 C 41.60 130.62 39.65 129.97 37.65 129.67 L 37.07 129.58 L 37.03 128.91 C 36.98 127.77 36.90 126.64 36.79 125.51 C 37.93 124.62 38.34 123.46 38.04 122.03 L 37.97 120.94 C 38.39 120.82 39.22 120.57 39.63 120.45 C 40.17 123.10 40.08 127.76 43.86 127.69 C 47.72 127.14 47.63 122.18 50.24 120.14 C 51.35 119.86 52.46 119.63 53.59 119.45 C 52.44 117.65 51.29 115.85 50.18 114.04 M 50.15 122.95 C 49.69 124.61 50.25 125.22 51.84 124.78 C 52.31 123.13 51.75 122.52 50.15 122.95 Z" />
</g>
<g id="#e6e3c5ff">
<path fill="#e6e3c5" opacity="1.00" d=" M 53.97 113.95 C 56.23 113.79 58.50 113.78 60.73 114.23 C 59.34 115.82 58.29 118.43 55.70 117.67 C 55.11 116.43 54.53 115.19 53.97 113.95 Z" />
</g>
<g id="#b2a18cff">
<path fill="#b2a18c" opacity="1.00" d=" M 129.00 113.55 C 129.63 114.78 130.22 116.04 130.80 117.31 C 130.05 119.16 129.58 121.13 129.47 123.13 C 129.17 122.34 128.87 121.55 128.57 120.76 C 127.86 121.81 127.15 122.84 126.39 123.86 C 126.15 123.58 125.67 123.03 125.43 122.76 C 126.70 119.72 127.40 116.45 129.00 113.55 Z" />
</g>
<g id="#e9dec4ff">
<path fill="#e9dec4" opacity="1.00" d=" M 132.29 114.44 C 135.20 115.36 137.70 117.24 139.35 119.82 C 139.43 120.56 139.61 122.04 139.69 122.78 C 137.89 124.70 136.31 126.89 134.06 128.32 C 131.34 128.25 130.29 125.25 129.47 123.13 C 129.58 121.13 130.05 119.16 130.80 117.31 C 131.17 116.59 131.92 115.16 132.29 114.44 Z" />
</g>
<g id="#77523cff">
<path fill="#77523c" opacity="1.00" d=" M 6.16 119.42 C 7.61 118.76 9.07 118.11 10.47 117.36 C 11.02 122.36 15.37 125.53 19.80 127.06 C 23.78 127.90 27.90 127.47 31.91 128.12 C 31.85 128.53 31.72 129.36 31.66 129.78 C 27.58 129.54 23.44 128.87 19.38 129.57 C 18.01 129.75 17.60 131.18 17.42 132.32 C 16.98 132.45 16.11 132.73 15.67 132.87 C 15.32 132.26 14.97 131.66 14.62 131.05 C 13.39 128.63 12.65 126.01 11.70 123.47 L 11.19 123.08 C 10.13 122.37 9.06 121.67 7.99 120.97 C 7.37 120.46 6.76 119.94 6.16 119.42 Z" />
</g>
<g id="#8f694eff">
<path fill="#8f694e" opacity="1.00" d=" M 21.04 117.00 C 26.25 118.21 31.55 118.90 36.91 118.60 L 37.79 118.65 C 37.83 119.23 37.92 120.37 37.97 120.94 L 38.04 122.03 C 36.06 121.91 35.33 124.31 36.79 125.51 C 36.90 126.64 36.98 127.77 37.03 128.91 C 30.55 130.37 24.00 131.43 17.42 132.32 C 17.60 131.18 18.01 129.75 19.38 129.57 C 23.44 128.87 27.58 129.54 31.66 129.78 C 31.72 129.36 31.85 128.53 31.91 128.12 C 27.90 127.47 23.78 127.90 19.80 127.06 C 20.30 126.77 21.31 126.19 21.82 125.91 C 23.56 124.63 23.13 121.92 21.68 120.56 L 21.15 119.74 C 21.12 119.06 21.07 117.69 21.04 117.00 Z" />
</g>
<g id="#b98e6cff">
<path fill="#b98e6c" opacity="1.00" d=" M 160.06 118.42 C 164.63 120.81 170.47 121.12 174.73 117.89 C 173.70 121.54 169.56 122.71 166.59 124.41 C 162.10 125.83 157.33 126.64 153.32 129.29 C 153.34 132.60 155.52 135.79 156.35 139.08 C 155.76 139.91 155.18 140.76 154.61 141.61 C 154.30 141.68 153.70 141.82 153.39 141.89 C 152.58 138.22 151.74 134.56 150.80 130.91 C 151.43 130.10 152.05 129.28 152.66 128.46 C 152.45 127.80 152.25 127.15 152.05 126.50 C 154.99 126.00 156.31 123.52 157.51 121.10 C 158.32 120.17 159.19 119.29 160.06 118.42 Z" />
</g>
<g id="#8a6449ff">
<path fill="#8a6449" opacity="1.00" d=" M 139.35 119.82 C 141.09 119.63 142.83 119.45 144.57 119.27 C 145.18 120.58 145.78 121.90 146.29 123.25 C 145.94 123.36 145.23 123.59 144.88 123.70 L 143.98 124.21 C 142.55 123.74 141.12 123.26 139.69 122.78 C 139.61 122.04 139.43 120.56 139.35 119.82 Z" />
</g>
<g id="#efe0c7ff">
<path fill="#efe0c7" opacity="1.00" d=" M 1.27 120.76 C 3.51 120.59 5.76 120.69 7.99 120.97 C 9.06 121.67 10.13 122.37 11.19 123.08 C 10.25 123.56 9.48 124.25 8.90 125.13 C 10.09 126.60 11.28 128.07 12.45 129.56 C 8.90 130.31 6.03 127.36 2.49 127.71 C 2.51 125.32 1.74 123.07 1.27 120.76 Z" />
</g>
<g id="#704730ff">
<path fill="#704730" opacity="1.00" d=" M 21.68 120.56 C 23.13 121.92 23.56 124.63 21.82 125.91 C 21.15 124.20 21.11 122.30 21.68 120.56 Z" />
</g>
<g id="#d0bfc6ff">
<path fill="#d0bfc6" opacity="1.00" d=" M 54.48 125.57 C 54.18 123.22 54.81 121.00 56.91 119.68 L 57.05 120.95 C 57.41 124.17 57.18 127.51 58.28 130.62 C 59.33 132.70 60.33 134.86 60.29 137.25 C 60.03 137.62 59.49 138.37 59.22 138.74 C 55.19 138.96 50.58 138.81 47.99 135.18 C 51.61 133.33 56.00 131.53 57.15 127.19 C 56.71 127.35 55.82 127.66 55.38 127.82 C 51.61 129.19 47.71 130.55 43.65 130.54 C 45.48 129.29 47.19 127.88 48.82 126.39 C 49.84 127.02 50.70 128.01 51.91 128.25 C 52.82 127.40 53.64 126.48 54.48 125.57 Z" />
</g>
<g id="#d8c482ff">
<path fill="#d8c482" opacity="1.00" d=" M 57.05 120.95 C 57.90 121.73 58.78 122.56 59.98 122.71 C 65.44 123.70 70.07 126.95 75.33 128.55 C 80.64 130.71 86.45 129.54 92.00 130.03 C 95.63 130.25 99.11 131.37 102.56 132.46 C 103.21 131.18 103.89 129.92 104.58 128.66 C 104.32 131.65 103.89 134.61 103.44 137.58 C 92.54 132.99 80.30 135.20 69.15 131.64 C 65.61 130.71 61.87 128.72 58.28 130.62 C 57.18 127.51 57.41 124.17 57.05 120.95 Z" />
</g>
<g id="#b2835dff">
<path fill="#b2835d" opacity="1.00" d=" M 106.68 120.58 C 108.68 124.91 107.96 129.75 108.17 134.37 C 112.90 135.36 117.70 135.96 122.44 136.86 C 124.43 137.13 124.99 139.37 126.04 140.77 C 125.21 141.93 123.25 142.76 123.87 144.47 C 119.15 147.39 114.75 150.84 109.81 153.40 C 110.45 148.71 110.42 143.97 109.73 139.29 C 108.58 139.14 107.42 139.01 106.27 138.90 C 106.91 132.82 107.05 126.69 106.68 120.58 Z" />
</g>
<g id="#a29689ff">
<path fill="#a29689" opacity="1.00" d=" M 36.79 125.51 C 35.33 124.31 36.06 121.91 38.04 122.03 C 38.34 123.46 37.93 124.62 36.79 125.51 Z" />
</g>
<g id="#d4c6aeff">
<path fill="#d4c6ae" opacity="1.00" d=" M 11.19 123.08 L 11.70 123.47 C 12.65 126.01 13.39 128.63 14.62 131.05 C 11.75 131.21 8.84 131.12 6.03 130.43 C 8.37 131.68 10.58 133.16 12.72 134.74 C 11.68 135.80 10.63 136.86 9.59 137.92 C 5.79 135.92 1.60 132.58 2.49 127.71 C 6.03 127.36 8.90 130.31 12.45 129.56 C 11.28 128.07 10.09 126.60 8.90 125.13 C 9.48 124.25 10.25 123.56 11.19 123.08 Z" />
</g>
<g id="#ecedeeff">
<path fill="#ecedee" opacity="1.00" d=" M 50.15 122.95 C 51.75 122.52 52.31 123.13 51.84 124.78 C 50.25 125.22 49.69 124.61 50.15 122.95 Z" />
</g>
<g id="#d1c8b5ff">
<path fill="#d1c8b5" opacity="1.00" d=" M 143.98 124.21 L 144.88 123.70 C 145.11 124.26 145.57 125.37 145.80 125.93 C 144.97 128.35 143.96 130.71 143.10 133.13 C 144.98 132.04 147.06 131.48 149.23 132.03 C 147.43 133.22 145.57 134.31 143.72 135.44 C 139.60 133.30 140.81 126.79 143.98 124.21 Z" />
</g>
<g id="#625656ff">
<path fill="#625656" opacity="1.00" d=" M 55.38 127.82 C 55.82 127.66 56.71 127.35 57.15 127.19 C 56.00 131.53 51.61 133.33 47.99 135.18 C 50.58 138.81 55.19 138.96 59.22 138.74 C 59.49 138.37 60.03 137.62 60.29 137.25 C 60.16 137.70 59.88 138.59 59.74 139.04 L 59.22 139.00 C 55.96 138.78 52.66 138.58 49.42 139.07 C 50.52 137.63 48.75 136.75 47.95 135.74 C 45.17 136.18 42.36 136.35 39.55 136.43 C 39.63 135.49 39.79 133.62 39.87 132.69 C 45.28 132.83 52.48 133.61 55.38 127.82 Z" />
</g>
<g id="#9e8e98ff">
<path fill="#9e8e98" opacity="1.00" d=" M 43.65 130.54 C 47.71 130.55 51.61 129.19 55.38 127.82 C 52.48 133.61 45.28 132.83 39.87 132.69 C 39.79 133.62 39.63 135.49 39.55 136.43 C 39.45 137.20 39.33 137.97 39.18 138.73 C 37.26 138.78 35.34 138.60 33.47 138.17 C 34.29 138.05 35.92 137.81 36.73 137.69 C 37.53 135.74 38.42 133.78 38.50 131.65 C 38.28 131.15 37.86 130.16 37.65 129.67 C 39.65 129.97 41.60 130.62 43.65 130.54 Z" />
</g>
<g id="#b5a992ff">
<path fill="#b5a992" opacity="1.00" d=" M 6.03 130.43 C 8.84 131.12 11.75 131.21 14.62 131.05 C 14.97 131.66 15.32 132.26 15.67 132.87 L 16.01 133.44 C 15.42 133.42 14.24 133.38 13.66 133.36 C 13.90 135.42 14.36 137.45 14.90 139.46 C 13.14 138.90 11.37 138.37 9.59 137.92 C 10.63 136.86 11.68 135.80 12.72 134.74 C 10.58 133.16 8.37 131.68 6.03 130.43 Z" />
</g>
<g id="#c8b47aff">
<path fill="#c8b47a" opacity="1.00" d=" M 58.28 130.62 C 61.87 128.72 65.61 130.71 69.15 131.64 C 80.30 135.20 92.54 132.99 103.44 137.58 C 103.39 137.90 103.27 138.53 103.22 138.85 C 99.02 140.64 94.39 140.17 89.95 140.33 C 90.91 140.73 91.86 141.14 92.82 141.56 C 84.71 143.66 77.31 147.96 69.00 149.29 C 72.30 152.95 75.76 157.08 80.77 158.26 C 83.99 159.11 87.16 160.17 90.17 161.60 C 95.11 160.05 100.28 159.73 105.38 159.09 C 105.50 160.18 105.62 161.28 105.75 162.37 C 103.68 165.24 101.50 168.02 99.24 170.74 C 98.41 170.39 97.66 169.74 96.73 169.68 C 85.91 170.55 75.95 176.65 64.95 175.95 C 62.17 174.18 59.90 171.65 57.17 169.76 C 53.70 167.47 56.36 162.84 54.28 159.79 C 52.03 156.05 48.55 153.15 46.94 149.00 C 50.69 145.66 54.87 142.84 59.43 140.74 C 59.38 140.31 59.27 139.43 59.22 139.00 L 59.74 139.04 C 67.13 139.71 75.29 141.99 82.20 138.26 C 74.88 138.74 67.85 136.32 61.02 134.04 C 60.79 135.11 60.55 136.18 60.29 137.25 C 60.33 134.86 59.33 132.70 58.28 130.62 Z" />
</g>
<g id="#dfab80ff">
<path fill="#dfab80" opacity="1.00" d=" M 149.23 132.03 C 149.62 131.75 150.41 131.19 150.80 130.91 C 151.74 134.56 152.58 138.22 153.39 141.89 C 153.70 141.82 154.30 141.68 154.61 141.61 L 155.89 141.34 L 156.11 142.15 C 156.40 144.48 156.69 147.66 159.22 148.68 C 161.25 148.88 163.29 148.55 165.31 148.36 C 163.93 147.32 162.54 146.31 161.11 145.36 C 164.04 142.92 167.09 140.61 170.31 138.55 C 169.96 141.49 169.47 144.44 169.50 147.41 C 170.00 149.34 171.21 151.03 171.84 152.94 C 172.99 152.56 174.16 152.21 175.35 151.96 C 179.27 152.14 182.37 155.33 184.95 158.01 C 186.23 155.95 187.53 153.46 190.23 153.11 C 189.61 155.41 188.99 157.71 188.48 160.04 C 187.42 160.12 186.36 160.20 185.30 160.29 C 185.41 160.73 185.63 161.60 185.73 162.04 C 185.91 162.71 186.27 164.05 186.45 164.71 C 185.91 164.81 184.85 165.00 184.32 165.10 C 180.40 162.62 178.38 158.39 176.63 154.28 C 175.51 154.15 174.39 154.02 173.27 153.89 C 173.61 154.92 173.96 155.96 174.31 156.99 C 174.11 157.41 173.70 158.26 173.49 158.68 C 173.16 158.33 172.49 157.63 172.15 157.28 C 171.61 159.78 171.13 162.30 170.64 164.81 C 169.65 164.03 168.65 163.25 167.65 162.48 C 165.87 162.57 164.07 162.94 162.30 162.62 C 159.60 161.36 157.40 159.10 154.40 158.48 C 152.22 154.10 149.43 149.97 145.72 146.75 C 146.05 144.20 143.71 142.88 141.89 141.67 C 142.34 141.37 143.23 140.79 143.68 140.49 C 143.73 138.81 143.74 137.12 143.72 135.44 C 145.57 134.31 147.43 133.22 149.23 132.03 Z" />
</g>
<g id="#beb6bdff">
<path fill="#beb6bd" opacity="1.00" d=" M 27.41 137.36 C 29.51 133.14 34.93 133.97 38.50 131.65 C 38.42 133.78 37.53 135.74 36.73 137.69 C 35.92 137.81 34.29 138.05 33.47 138.17 C 31.46 137.83 29.44 137.52 27.41 137.36 Z" />
</g>
<g id="#ac9765ff">
<path fill="#ac9765" opacity="1.00" d=" M 61.02 134.04 C 67.85 136.32 74.88 138.74 82.20 138.26 C 75.29 141.99 67.13 139.71 59.74 139.04 C 59.88 138.59 60.16 137.70 60.29 137.25 C 60.55 136.18 60.79 135.11 61.02 134.04 Z" />
</g>
<g id="#d7d7beff">
<path fill="#d7d7be" opacity="1.00" d=" M 39.55 136.43 C 42.36 136.35 45.17 136.18 47.95 135.74 C 48.75 136.75 50.52 137.63 49.42 139.07 C 46.01 139.69 42.61 138.47 39.18 138.73 C 39.33 137.97 39.45 137.20 39.55 136.43 Z" />
</g>
<g id="#b9a471ff">
<path fill="#b9a471" opacity="1.00" d=" M 27.41 137.36 C 29.44 137.52 31.46 137.83 33.47 138.17 C 35.34 138.60 37.26 138.78 39.18 138.73 C 42.61 138.47 46.01 139.69 49.42 139.07 C 52.66 138.58 55.96 138.78 59.22 139.00 C 59.27 139.43 59.38 140.31 59.43 140.74 C 54.87 142.84 50.69 145.66 46.94 149.00 C 48.55 153.15 52.03 156.05 54.28 159.79 C 56.36 162.84 53.70 167.47 57.17 169.76 C 59.90 171.65 62.17 174.18 64.95 175.95 C 75.95 176.65 85.91 170.55 96.73 169.68 C 97.66 169.74 98.41 170.39 99.24 170.74 C 97.32 173.04 95.22 175.18 93.09 177.29 C 93.02 176.77 92.88 175.73 92.81 175.20 C 88.13 177.04 84.04 180.37 78.98 181.19 C 74.51 182.03 69.90 181.71 65.46 182.76 C 64.95 182.85 63.94 183.02 63.44 183.11 C 55.86 182.45 49.03 179.10 42.36 175.73 C 37.64 174.14 34.25 170.39 31.03 166.78 C 29.39 163.14 27.91 159.40 27.01 155.51 C 26.39 152.70 25.49 149.98 24.78 147.20 C 24.42 144.00 25.31 140.65 23.99 137.60 C 25.13 137.44 26.26 137.36 27.41 137.36 Z" />
</g>
<g id="#d6c080ff">
<path fill="#d6c080" opacity="1.00" d=" M 89.95 140.33 C 94.39 140.17 99.02 140.64 103.22 138.85 C 103.98 138.86 105.51 138.89 106.27 138.90 C 107.42 139.01 108.58 139.14 109.73 139.29 C 110.42 143.97 110.45 148.71 109.81 153.40 C 109.53 154.84 109.26 156.29 109.07 157.75 C 107.98 159.31 106.86 160.84 105.75 162.37 C 105.62 161.28 105.50 160.18 105.38 159.09 C 100.28 159.73 95.11 160.05 90.17 161.60 C 87.16 160.17 83.99 159.11 80.77 158.26 C 75.76 157.08 72.30 152.95 69.00 149.29 C 77.31 147.96 84.71 143.66 92.82 141.56 C 91.86 141.14 90.91 140.73 89.95 140.33 Z" />
</g>
<g id="#f6bc8cfd">
<path fill="#f6bc8c" opacity="1.00" d=" M 170.31 138.55 C 171.42 139.43 172.75 140.38 172.50 142.01 C 172.74 145.24 173.29 148.43 173.52 151.66 C 173.98 151.73 174.90 151.88 175.35 151.96 C 174.16 152.21 172.99 152.56 171.84 152.94 C 171.21 151.03 170.00 149.34 169.50 147.41 C 169.47 144.44 169.96 141.49 170.31 138.55 Z" />
</g>
<g id="#d6a375ff">
<path fill="#d6a375" opacity="1.00" d=" M 131.79 142.98 C 133.36 142.51 134.93 142.08 136.53 141.71 C 136.59 145.61 140.36 147.03 142.70 149.41 C 148.62 156.60 152.83 164.99 155.74 173.81 C 152.01 173.73 148.16 173.30 144.60 174.69 C 148.27 175.33 152.00 175.43 155.69 175.92 C 154.38 182.70 155.01 189.64 154.24 196.47 C 154.03 198.40 153.12 200.16 151.97 201.70 L 152.30 201.23 C 150.56 197.48 145.33 197.33 142.38 194.70 C 142.14 192.07 141.96 189.41 141.31 186.84 C 140.31 189.67 139.84 192.71 140.30 195.70 C 141.59 197.53 143.89 198.30 145.72 199.48 C 143.78 199.52 141.86 199.19 140.02 198.62 C 136.61 199.80 132.87 199.71 129.49 198.50 C 127.86 196.34 126.74 193.84 125.64 191.39 C 123.82 187.50 124.61 183.12 124.03 178.99 C 123.24 173.62 125.05 168.23 127.58 163.58 C 130.69 160.18 133.88 156.53 135.00 151.92 C 135.17 148.65 133.01 145.87 131.79 142.98 Z" />
</g>
<g id="#ffce9cff">
<path fill="#ffce9c" opacity="1.00" d=" M 136.53 141.71 C 137.84 141.91 139.16 142.18 140.43 142.60 C 142.20 143.97 143.98 145.33 145.72 146.75 C 149.43 149.97 152.22 154.10 154.40 158.48 C 156.00 163.31 156.69 168.35 157.56 173.34 C 158.79 176.48 160.41 179.57 159.94 183.08 C 159.98 186.74 159.19 190.35 157.54 193.62 C 156.94 187.91 159.12 182.20 157.61 176.52 C 157.13 176.37 156.17 176.07 155.69 175.92 C 152.00 175.43 148.27 175.33 144.60 174.69 C 148.16 173.30 152.01 173.73 155.74 173.81 C 152.83 164.99 148.62 156.60 142.70 149.41 C 140.36 147.03 136.59 145.61 136.53 141.71 Z" />
</g>
<g id="#87674eff">
<path fill="#87674e" opacity="1.00" d=" M 140.43 142.60 C 140.79 142.37 141.53 141.90 141.89 141.67 C 143.71 142.88 146.05 144.20 145.72 146.75 C 143.98 145.33 142.20 143.97 140.43 142.60 Z" />
</g>
<g id="#c5946cff">
<path fill="#c5946c" opacity="1.00" d=" M 126.80 144.73 C 128.44 144.09 130.11 143.51 131.79 142.98 C 133.01 145.87 135.17 148.65 135.00 151.92 C 133.88 156.53 130.69 160.18 127.58 163.58 C 125.05 168.23 123.24 173.62 124.03 178.99 C 124.61 183.12 123.82 187.50 125.64 191.39 C 126.74 193.84 127.86 196.34 129.49 198.50 C 132.87 199.71 136.61 199.80 140.02 198.62 C 141.86 199.19 143.78 199.52 145.72 199.48 C 147.93 199.98 150.11 200.63 152.30 201.23 L 151.97 201.70 C 151.54 201.93 150.67 202.40 150.24 202.63 C 150.95 203.15 151.66 203.68 152.38 204.21 C 151.87 206.85 151.58 209.53 151.10 212.17 C 147.49 212.43 145.43 215.54 144.60 218.74 C 142.68 218.87 140.82 219.35 139.08 220.16 C 141.88 218.46 139.37 215.58 138.70 213.37 C 136.31 212.74 133.93 212.05 131.58 211.31 C 132.30 211.15 133.76 210.83 134.48 210.67 C 131.87 209.69 129.05 209.77 126.33 209.36 C 123.15 207.09 120.32 204.18 118.07 200.99 C 116.02 195.87 116.08 190.23 115.18 184.86 C 114.66 180.82 113.22 176.65 114.57 172.62 C 116.04 167.62 116.70 162.23 119.86 157.92 C 121.65 155.61 121.94 152.70 121.85 149.88 C 118.94 151.21 116.89 155.40 113.33 154.40 C 117.64 150.95 121.49 146.69 126.80 144.73 Z" />
</g>
<g id="#f5c492f9">
<path fill="#f5c492" opacity="0.98" d=" M 156.11 142.15 C 157.80 143.17 159.45 144.28 161.11 145.36 C 162.54 146.31 163.93 147.32 165.31 148.36 C 163.29 148.55 161.25 148.88 159.22 148.68 C 156.69 147.66 156.40 144.48 156.11 142.15 Z" />
</g>
<g id="#a77d5eff">
<path fill="#a77d5e" opacity="1.00" d=" M 113.33 154.40 C 116.89 155.40 118.94 151.21 121.85 149.88 C 121.94 152.70 121.65 155.61 119.86 157.92 C 116.70 162.23 116.04 167.62 114.57 172.62 C 113.22 176.65 114.66 180.82 115.18 184.86 C 116.08 190.23 116.02 195.87 118.07 200.99 C 120.32 204.18 123.15 207.09 126.33 209.36 C 129.05 209.77 131.87 209.69 134.48 210.67 C 133.76 210.83 132.30 211.15 131.58 211.31 C 129.08 211.58 126.65 212.26 124.26 212.99 C 121.84 212.85 120.37 210.83 118.54 209.56 C 117.12 208.91 115.51 208.74 114.15 207.99 C 112.17 204.76 111.41 200.98 110.26 197.41 C 108.24 197.82 106.07 198.57 104.18 197.32 C 106.09 196.35 108.09 195.56 110.09 194.78 C 108.24 193.40 106.12 192.31 104.63 190.51 C 103.08 187.84 102.51 184.76 101.69 181.83 C 99.46 181.60 97.24 181.85 95.14 182.64 C 94.62 180.81 94.06 178.98 93.08 177.34 L 93.09 177.29 C 95.22 175.18 97.32 173.04 99.24 170.74 C 101.50 168.02 103.68 165.24 105.75 162.37 C 106.86 160.84 107.98 159.31 109.07 157.75 C 110.48 156.62 111.90 155.51 113.33 154.40 Z" />
</g>
<g id="#c08e67ff">
<path fill="#c08e67" opacity="1.00" d=" M 173.27 153.89 C 174.39 154.02 175.51 154.15 176.63 154.28 C 178.38 158.39 180.40 162.62 184.32 165.10 C 185.22 167.23 183.25 168.73 181.22 167.84 C 177.57 165.29 175.55 161.15 174.31 156.99 C 173.96 155.96 173.61 154.92 173.27 153.89 Z" />
</g>
<g id="#fdc897ff">
<path fill="#fdc897" opacity="1.00" d=" M 190.23 153.11 C 193.41 155.93 191.43 161.82 195.95 163.50 C 198.27 166.01 201.82 166.08 204.94 166.78 C 210.72 167.69 216.00 170.61 221.90 170.93 C 221.77 172.97 221.13 175.12 219.17 176.11 C 215.03 176.03 211.57 173.61 207.89 172.05 C 200.67 168.34 192.98 165.69 185.73 162.04 C 185.63 161.60 185.41 160.73 185.30 160.29 C 186.36 160.20 187.42 160.12 188.48 160.04 C 188.99 157.71 189.61 155.41 190.23 153.11 Z" />
</g>
<g id="#bb8e6cff">
<path fill="#bb8e6c" opacity="1.00" d=" M 27.01 155.51 C 27.91 159.40 29.39 163.14 31.03 166.78 C 31.30 168.09 31.65 169.41 31.62 170.76 C 30.08 174.20 23.87 175.79 25.41 180.27 C 28.43 182.74 32.07 184.32 35.07 186.83 C 31.79 186.34 28.69 185.16 25.68 183.82 C 26.09 188.73 28.82 193.68 26.82 198.56 C 24.08 193.36 22.98 187.50 21.44 181.88 C 20.78 176.60 20.05 170.97 22.12 165.91 C 23.42 162.30 24.07 158.25 27.01 155.51 Z" />
</g>
<g id="#cb9c77ff">
<path fill="#cb9c77" opacity="1.00" d=" M 172.15 157.28 C 172.49 157.63 173.16 158.33 173.49 158.68 C 173.70 158.26 174.11 157.41 174.31 156.99 C 175.55 161.15 177.57 165.29 181.22 167.84 C 183.25 168.73 185.22 167.23 184.32 165.10 C 184.85 165.00 185.91 164.81 186.45 164.71 C 186.85 165.84 187.28 166.96 187.73 168.07 C 185.56 168.66 183.33 169.05 181.08 169.22 C 182.63 170.29 184.71 171.09 185.32 173.05 C 187.00 178.81 192.81 182.30 198.29 183.79 C 203.88 185.32 208.99 181.95 214.37 181.12 C 212.85 182.95 211.14 184.63 209.02 185.72 C 204.32 188.24 199.85 191.18 195.05 193.49 L 194.75 193.32 C 192.25 191.33 188.97 191.73 186.00 191.72 C 179.98 191.83 173.77 191.86 168.01 189.90 C 164.66 188.16 163.47 184.20 161.57 181.18 C 161.02 181.81 160.48 182.44 159.94 183.08 C 160.41 179.57 158.79 176.48 157.56 173.34 C 156.69 168.35 156.00 163.31 154.40 158.48 C 157.40 159.10 159.60 161.36 162.30 162.62 C 164.07 162.94 165.87 162.57 167.65 162.48 C 168.65 163.25 169.65 164.03 170.64 164.81 C 171.13 162.30 171.61 159.78 172.15 157.28 Z" />
</g>
<g id="#e9b58bff">
<path fill="#e9b58b" opacity="1.00" d=" M 185.73 162.04 C 192.98 165.69 200.67 168.34 207.89 172.05 C 211.57 173.61 215.03 176.03 219.17 176.11 C 218.92 176.41 218.42 177.01 218.17 177.31 C 213.46 179.09 208.38 179.44 203.40 179.79 C 201.90 177.43 199.63 175.85 197.02 174.93 C 193.29 173.60 190.65 170.58 187.73 168.07 C 187.28 166.96 186.85 165.84 186.45 164.71 C 186.27 164.05 185.91 162.71 185.73 162.04 Z" />
</g>
<g id="#fffeb9ff">
<path fill="#fffeb9" opacity="1.00" d=" M 195.95 163.50 C 199.70 163.50 203.18 165.05 206.85 165.59 C 211.18 166.28 215.51 167.03 219.83 167.83 C 220.52 168.86 221.21 169.89 221.90 170.93 C 216.00 170.61 210.72 167.69 204.94 166.78 C 201.82 166.08 198.27 166.01 195.95 163.50 Z" />
</g>
<g id="#a27654ff">
<path fill="#a27654" opacity="1.00" d=" M 31.03 166.78 C 34.25 170.39 37.64 174.14 42.36 175.73 C 49.03 179.10 55.86 182.45 63.44 183.11 L 62.68 183.75 C 62.36 184.19 61.72 185.09 61.40 185.54 C 55.39 185.42 49.19 185.41 43.70 188.26 C 45.80 189.22 47.96 190.02 50.14 190.79 C 50.36 191.24 50.79 192.14 51.01 192.60 C 49.94 192.16 48.87 191.72 47.80 191.29 C 47.35 191.44 46.44 191.74 45.98 191.89 C 47.10 193.12 48.40 194.22 49.25 195.67 C 49.29 198.12 48.50 200.49 48.40 202.94 C 49.26 204.10 50.74 202.71 51.87 202.69 C 59.09 204.38 67.09 205.14 74.01 201.92 C 77.15 200.60 77.73 197.06 78.60 194.17 C 79.70 196.28 80.70 198.46 81.84 200.56 C 80.99 204.49 78.41 207.55 75.17 209.79 C 77.62 209.92 80.08 210.11 82.53 210.36 C 79.71 213.00 75.49 212.13 71.98 212.75 C 63.36 213.01 54.79 213.83 46.15 213.57 C 46.63 213.37 47.61 212.97 48.10 212.77 C 46.70 209.84 44.00 208.12 41.01 207.11 C 39.72 207.78 38.44 208.47 37.20 209.24 C 33.72 208.00 32.74 203.30 28.82 203.08 L 28.32 203.29 C 27.82 201.73 26.85 200.21 26.82 198.56 C 28.82 193.68 26.09 188.73 25.68 183.82 C 28.69 185.16 31.79 186.34 35.07 186.83 C 32.07 184.32 28.43 182.74 25.41 180.27 C 23.87 175.79 30.08 174.20 31.62 170.76 C 31.65 169.41 31.30 168.09 31.03 166.78 Z" />
</g>
<g id="#daaa83ff">
<path fill="#daaa83" opacity="1.00" d=" M 187.73 168.07 C 190.65 170.58 193.29 173.60 197.02 174.93 C 199.63 175.85 201.90 177.43 203.40 179.79 C 208.38 179.44 213.46 179.09 218.17 177.31 C 216.91 178.59 215.64 179.86 214.37 181.12 C 208.99 181.95 203.88 185.32 198.29 183.79 C 192.81 182.30 187.00 178.81 185.32 173.05 C 184.71 171.09 182.63 170.29 181.08 169.22 C 183.33 169.05 185.56 168.66 187.73 168.07 Z" />
</g>
<g id="#aa9465ff">
<path fill="#aa9465" opacity="1.00" d=" M 78.98 181.19 C 84.04 180.37 88.13 177.04 92.81 175.20 C 92.88 175.73 93.02 176.77 93.09 177.29 L 93.08 177.34 C 91.07 182.45 95.26 186.93 99.31 189.40 C 99.47 190.97 98.12 192.14 97.55 193.48 L 99.30 193.58 C 97.04 194.41 94.72 195.07 92.40 195.72 C 90.15 195.42 88.01 194.60 85.94 193.68 C 87.65 193.29 89.34 192.87 91.04 192.45 C 87.90 189.97 84.42 187.99 80.91 186.10 C 76.20 183.44 70.56 184.15 65.46 182.76 C 69.90 181.71 74.51 182.03 78.98 181.19 Z" />
</g>
<g id="#e3b086ff">
<path fill="#e3b086" opacity="1.00" d=" M 155.69 175.92 C 156.17 176.07 157.13 176.37 157.61 176.52 C 159.12 182.20 156.94 187.91 157.54 193.62 C 156.48 196.22 155.43 198.84 154.75 201.57 C 153.54 205.50 153.32 209.61 153.18 213.69 C 152.66 213.31 151.62 212.55 151.10 212.17 C 151.58 209.53 151.87 206.85 152.38 204.21 C 151.66 203.68 150.95 203.15 150.24 202.63 C 150.67 202.40 151.54 201.93 151.97 201.70 C 153.12 200.16 154.03 198.40 154.24 196.47 C 155.01 189.64 154.38 182.70 155.69 175.92 Z" />
</g>
<g id="#5d4733ff">
<path fill="#5d4733" opacity="1.00" d=" M 93.08 177.34 C 94.06 178.98 94.62 180.81 95.14 182.64 C 96.49 184.92 98.37 186.88 99.31 189.40 C 95.26 186.93 91.07 182.45 93.08 177.34 Z" />
</g>
<g id="#b38767ff">
<path fill="#b38767" opacity="1.00" d=" M 159.94 183.08 C 160.48 182.44 161.02 181.81 161.57 181.18 C 163.47 184.20 164.66 188.16 168.01 189.90 C 173.77 191.86 179.98 191.83 186.00 191.72 C 188.97 191.73 192.25 191.33 194.75 193.32 C 190.43 195.43 185.82 197.02 181.04 197.68 C 172.40 199.68 163.62 201.25 154.75 201.57 C 155.43 198.84 156.48 196.22 157.54 193.62 C 159.19 190.35 159.98 186.74 159.94 183.08 Z" />
</g>
<g id="#956b4fff">
<path fill="#956b4f" opacity="1.00" d=" M 95.14 182.64 C 97.24 181.85 99.46 181.60 101.69 181.83 C 102.51 184.76 103.08 187.84 104.63 190.51 C 106.12 192.31 108.24 193.40 110.09 194.78 C 108.09 195.56 106.09 196.35 104.18 197.32 L 104.16 197.33 C 102.90 195.72 101.75 193.21 99.30 193.58 L 97.55 193.48 C 98.12 192.14 99.47 190.97 99.31 189.40 C 98.37 186.88 96.49 184.92 95.14 182.64 Z" />
</g>
<g id="#afa67cff">
<path fill="#afa67c" opacity="1.00" d=" M 63.44 183.11 C 63.94 183.02 64.95 182.85 65.46 182.76 C 70.56 184.15 76.20 183.44 80.91 186.10 C 84.42 187.99 87.90 189.97 91.04 192.45 C 89.34 192.87 87.65 193.29 85.94 193.68 L 85.34 193.82 C 83.60 193.05 81.82 192.39 80.08 191.64 C 74.09 189.44 68.29 186.79 62.68 183.75 L 63.44 183.11 Z" />
</g>
<g id="#8f6444ff">
<path fill="#8f6444" opacity="1.00" d=" M 61.40 185.54 C 61.72 185.09 62.36 184.19 62.68 183.75 C 68.29 186.79 74.09 189.44 80.08 191.64 C 79.50 192.43 79.00 193.28 78.60 194.17 C 77.73 197.06 77.15 200.60 74.01 201.92 C 67.09 205.14 59.09 204.38 51.87 202.69 C 50.74 202.71 49.26 204.10 48.40 202.94 C 48.50 200.49 49.29 198.12 49.25 195.67 C 48.40 194.22 47.10 193.12 45.98 191.89 C 46.44 191.74 47.35 191.44 47.80 191.29 C 48.87 191.72 49.94 192.16 51.01 192.60 C 50.79 192.14 50.36 191.24 50.14 190.79 C 47.96 190.02 45.80 189.22 43.70 188.26 C 49.19 185.41 55.39 185.42 61.40 185.54 Z" />
</g>
<g id="#a39369ff">
<path fill="#a39369" opacity="1.00" d=" M 99.30 193.58 C 101.75 193.21 102.90 195.72 104.16 197.33 C 103.91 197.59 103.41 198.11 103.17 198.37 C 99.61 197.35 95.91 196.94 92.40 195.72 C 94.72 195.07 97.04 194.41 99.30 193.58 Z" />
</g>
<g id="#966e52ff">
<path fill="#966e52" opacity="1.00" d=" M 104.16 197.33 L 104.18 197.32 C 106.07 198.57 108.24 197.82 110.26 197.41 C 111.41 200.98 112.17 204.76 114.15 207.99 C 115.51 208.74 117.12 208.91 118.54 209.56 C 120.37 210.83 121.84 212.85 124.26 212.99 C 123.91 213.27 123.22 213.82 122.87 214.09 C 122.39 214.88 121.92 215.69 121.48 216.51 C 121.23 217.56 121.10 218.63 121.10 219.72 C 120.24 219.62 118.51 219.41 117.64 219.31 C 117.24 218.16 116.82 217.02 116.36 215.89 C 115.47 214.00 113.27 213.59 111.53 212.86 C 109.23 212.07 108.52 209.48 107.25 207.67 C 105.41 204.94 103.48 202.22 102.55 199.02 L 103.17 198.37 C 103.41 198.11 103.91 197.59 104.16 197.33 Z" />
</g>
<g id="#c6946eff">
<path fill="#c6946e" opacity="1.00" d=" M 75.17 209.79 C 78.41 207.55 80.99 204.49 81.84 200.56 C 82.94 203.72 83.71 207.09 82.53 210.36 C 80.08 210.11 77.62 209.92 75.17 209.79 Z" />
</g>
<g id="#fcefd1ff">
<path fill="#fcefd1" opacity="1.00" d=" M 17.31 211.21 C 19.88 207.40 24.32 205.31 28.32 203.29 L 28.82 203.08 C 30.41 205.18 31.99 207.37 32.29 210.09 C 27.27 210.05 22.30 210.82 17.31 211.21 Z" />
</g>
<g id="#916752ff">
<path fill="#916752" opacity="1.00" d=" M 28.82 203.08 C 32.74 203.30 33.72 208.00 37.20 209.24 C 36.68 210.52 36.15 211.80 35.62 213.09 C 34.67 213.05 33.71 213.02 32.76 213.00 C 32.64 212.28 32.41 210.82 32.29 210.09 C 31.99 207.37 30.41 205.18 28.82 203.08 Z" />
</g>
<g id="#e2d0b1ff">
<path fill="#e2d0b1" opacity="1.00" d=" M 37.20 209.24 C 38.44 208.47 39.72 207.78 41.01 207.11 C 44.00 208.12 46.70 209.84 48.10 212.77 C 47.61 212.97 46.63 213.37 46.15 213.57 C 42.63 214.69 38.82 213.87 35.18 214.15 L 35.62 213.09 C 36.15 211.80 36.68 210.52 37.20 209.24 Z" />
</g>
<g id="#d0c7b3ff">
<path fill="#d0c7b3" opacity="1.00" d=" M 17.31 211.21 C 22.30 210.82 27.27 210.05 32.29 210.09 C 32.41 210.82 32.64 212.28 32.76 213.00 C 27.65 212.94 22.53 212.89 17.44 212.37 C 17.24 212.09 16.84 211.54 16.64 211.27 L 17.31 211.21 Z" />
</g>
<g id="#fffff4ff">
<path fill="#fffff4" opacity="1.00" d=" M 124.26 212.99 C 126.65 212.26 129.08 211.58 131.58 211.31 C 133.93 212.05 136.31 212.74 138.70 213.37 C 139.37 215.58 141.88 218.46 139.08 220.16 L 138.12 220.25 C 136.95 220.05 135.80 219.83 134.64 219.60 C 133.92 217.97 133.71 215.95 132.36 214.70 C 129.22 212.91 125.68 214.71 122.72 216.01 C 122.76 215.53 122.84 214.57 122.87 214.09 C 123.22 213.82 123.91 213.27 124.26 212.99 Z" />
</g>
<g id="#fdf7d2ff">
<path fill="#fdf7d2" opacity="1.00" d=" M 144.60 218.74 C 145.43 215.54 147.49 212.43 151.10 212.17 C 151.62 212.55 152.66 213.31 153.18 213.69 C 154.94 215.21 157.17 216.54 157.74 218.97 C 153.36 218.99 148.98 218.83 144.60 218.74 Z" />
</g>
<g id="#f5e8ceff">
<path fill="#f5e8ce" opacity="1.00" d=" M 111.53 212.86 C 113.27 213.59 115.47 214.00 116.36 215.89 C 116.28 216.38 116.11 217.36 116.03 217.84 C 114.12 216.15 111.95 214.84 109.48 214.15 C 109.99 213.83 111.01 213.18 111.53 212.86 Z" />
</g>
<g id="#e6d6b2ff">
<path fill="#e6d6b2" opacity="1.00" d=" M 109.35 214.10 L 109.48 214.15 C 111.95 214.84 114.12 216.15 116.03 217.84 C 116.11 217.36 116.28 216.38 116.36 215.89 C 116.82 217.02 117.24 218.16 117.64 219.31 C 113.45 219.58 109.25 219.64 105.05 219.44 C 106.12 217.38 107.77 215.75 109.35 214.10 Z" />
</g>
<g id="#e1d5bdff">
<path fill="#e1d5bd" opacity="1.00" d=" M 121.48 216.51 C 121.92 215.69 122.39 214.88 122.87 214.09 C 122.84 214.57 122.76 215.53 122.72 216.01 C 125.18 218.47 128.32 220.01 131.43 221.47 C 128.02 222.39 125.00 220.30 121.64 220.22 C 121.60 219.29 121.52 217.44 121.48 216.51 Z" />
</g>
<g id="#fffcdbff">
<path fill="#fffcdb" opacity="1.00" d=" M 122.72 216.01 C 125.68 214.71 129.22 212.91 132.36 214.70 C 133.71 215.95 133.92 217.97 134.64 219.60 C 135.80 219.83 136.95 220.05 138.12 220.25 C 136.04 220.64 133.70 220.26 131.97 221.73 L 131.43 221.47 C 128.32 220.01 125.18 218.47 122.72 216.01 Z" />
</g>
</svg>
