<?xml version="1.0" encoding="UTF-8" ?>
<!DOCTYPE svg PUBLIC "-//W3C//DTD SVG 1.1//EN" "http://www.w3.org/Graphics/SVG/1.1/DTD/svg11.dtd">
<svg width="79pt" height="131pt" viewBox="0 0 79 131" version="1.1" xmlns="http://www.w3.org/2000/svg">
<g id="#8ee9ffff">
<path fill="#8ee9ff" opacity="1.00" d=" M 9.88 35.99 C 10.20 35.60 10.85 34.81 11.18 34.41 C 15.16 35.35 17.43 39.70 20.09 42.60 C 18.54 43.78 17.14 45.14 15.84 46.59 L 15.40 47.06 C 13.81 43.27 10.55 40.06 9.88 35.99 Z" />
</g>
<g id="#5a93beff">
<path fill="#5a93be" opacity="1.00" d=" M 60.04 38.63 C 61.97 38.06 64.70 38.06 63.78 40.93 C 60.12 45.17 55.37 48.30 51.79 52.61 C 54.17 52.42 56.55 52.17 58.93 52.05 C 62.02 55.34 67.02 52.51 70.88 54.17 C 65.35 57.18 58.86 57.76 52.93 59.77 C 54.16 60.40 55.30 61.21 56.33 62.14 C 58.38 64.96 61.18 67.03 64.18 68.74 C 64.52 68.39 65.19 67.69 65.53 67.35 L 65.59 67.28 C 65.50 67.73 65.30 68.63 65.20 69.08 C 64.70 69.25 63.71 69.59 63.21 69.76 C 59.17 68.71 55.06 67.97 51.02 66.96 C 49.76 68.71 48.51 70.49 46.93 71.98 C 45.69 73.12 44.41 74.21 43.15 75.32 C 43.41 76.22 43.68 77.12 43.97 78.01 C 43.54 78.79 43.11 79.57 42.68 80.35 C 41.95 80.58 41.21 80.82 40.47 81.06 C 40.04 79.84 39.61 78.62 39.08 77.45 C 38.80 77.48 38.25 77.52 37.98 77.55 C 35.38 77.88 32.77 78.16 30.14 78.13 C 31.96 75.54 31.59 72.23 31.70 69.24 C 33.02 69.57 34.34 69.94 35.58 70.50 C 37.32 71.60 39.66 71.91 40.82 69.81 C 41.41 68.96 41.96 68.08 42.49 67.19 C 42.69 67.20 43.10 67.21 43.30 67.21 C 43.65 67.25 44.36 67.33 44.71 67.37 C 49.01 62.41 51.55 55.63 51.24 49.06 C 52.48 47.99 53.79 47.00 55.13 46.07 C 57.74 44.24 60.45 42.50 62.85 40.39 C 62.78 40.12 62.64 39.58 62.57 39.31 C 61.93 39.14 60.67 38.80 60.04 38.63 Z" />
</g>
<g id="#f5ffffff">
<path fill="#f5ffff" opacity="1.00" d=" M 24.22 41.39 C 29.60 38.31 36.33 38.37 41.93 40.86 C 37.27 40.72 32.57 40.68 27.95 41.41 C 22.20 43.16 17.63 47.85 15.51 53.41 C 15.51 53.99 15.50 55.15 15.49 55.73 C 15.44 58.08 15.32 60.42 15.25 62.77 L 16.25 63.60 C 16.46 63.75 16.88 64.06 17.09 64.22 C 16.88 65.36 15.74 67.33 17.20 67.97 C 17.68 67.77 18.63 67.35 19.11 67.14 C 19.13 66.88 19.18 66.36 19.20 66.09 C 19.87 66.03 21.21 65.89 21.88 65.82 C 21.06 67.80 19.88 69.63 17.97 70.71 C 15.02 71.88 14.84 75.07 15.46 77.75 C 15.49 78.05 15.54 78.67 15.56 78.97 C 15.30 78.70 14.78 78.17 14.52 77.90 C 12.29 75.16 13.26 71.16 15.73 68.91 C 15.59 68.46 15.31 67.54 15.18 67.08 C 14.92 66.26 14.64 65.44 14.35 64.64 C 14.06 63.00 13.86 61.36 13.74 59.70 C 13.76 58.17 13.83 56.63 13.95 55.10 C 14.00 53.03 14.23 50.93 15.38 49.15 L 15.70 48.51 C 15.73 48.03 15.80 47.07 15.84 46.59 C 17.14 45.14 18.54 43.78 20.09 42.60 C 21.65 43.26 22.88 41.96 24.22 41.39 Z" />
</g>
<g id="#8fddfdff">
<path fill="#8fddfd" opacity="1.00" d=" M 47.75 45.20 C 52.38 44.58 55.92 40.70 60.04 38.63 C 60.67 38.80 61.93 39.14 62.57 39.31 C 62.64 39.58 62.78 40.12 62.85 40.39 C 60.45 42.50 57.74 44.24 55.13 46.07 C 53.73 46.60 52.30 47.04 50.87 47.45 C 45.71 46.17 44.00 52.76 42.76 56.47 C 41.79 55.26 40.71 54.14 39.53 53.14 C 39.41 50.75 40.64 48.71 41.85 46.76 C 43.82 46.23 45.75 45.57 47.75 45.20 Z" />
</g>
<g id="#acffffff">
<path fill="#acffff" opacity="1.00" d=" M 15.51 53.41 C 17.63 47.85 22.20 43.16 27.95 41.41 C 32.57 40.68 37.27 40.72 41.93 40.86 C 44.24 41.61 46.47 43.08 47.75 45.20 C 45.75 45.57 43.82 46.23 41.85 46.76 C 37.08 46.86 32.11 46.55 27.66 48.60 C 24.42 50.00 22.09 52.75 19.61 55.15 C 19.53 54.73 19.36 53.88 19.28 53.46 L 19.05 52.24 C 17.86 53.40 16.67 54.55 15.49 55.73 C 15.50 55.15 15.51 53.99 15.51 53.41 Z" />
</g>
<g id="#3f56568c">
<path fill="#3f5656" opacity="0.55" d=" M 5.30 46.96 C 5.00 45.04 9.28 45.08 8.64 47.02 C 7.53 46.99 6.42 46.96 5.30 46.96 Z" />
</g>
<g id="#80c1e1ff">
<path fill="#80c1e1" opacity="1.00" d=" M 50.87 47.45 C 52.30 47.04 53.73 46.60 55.13 46.07 C 53.79 47.00 52.48 47.99 51.24 49.06 C 47.96 52.25 46.33 56.62 43.85 60.38 C 43.54 59.06 43.21 57.75 42.76 56.47 C 44.00 52.76 45.71 46.17 50.87 47.45 Z" />
<path fill="#80c1e1" opacity="1.00" d=" M 56.33 62.14 C 59.52 63.58 63.11 64.68 65.53 67.35 C 65.19 67.69 64.52 68.39 64.18 68.74 C 61.18 67.03 58.38 64.96 56.33 62.14 Z" />
</g>
<g id="#97edfdff">
<path fill="#97edfd" opacity="1.00" d=" M 5.30 46.96 C 6.42 46.96 7.53 46.99 8.64 47.02 C 11.02 47.14 13.25 48.16 15.38 49.15 C 14.23 50.93 14.00 53.03 13.95 55.10 C 12.95 54.43 11.94 53.77 10.92 53.14 C 8.98 51.38 3.74 50.21 5.30 46.96 Z" />
</g>
<g id="#8ff7ffff">
<path fill="#8ff7ff" opacity="1.00" d=" M 27.66 48.60 C 32.11 46.55 37.08 46.86 41.85 46.76 C 40.64 48.71 39.41 50.75 39.53 53.14 C 37.68 53.39 36.20 54.53 35.08 55.97 C 29.96 56.91 24.71 56.71 19.63 57.89 C 19.63 57.21 19.62 55.84 19.61 55.15 C 22.09 52.75 24.42 50.00 27.66 48.60 Z" />
</g>
<g id="#6fa8ceff">
<path fill="#6fa8ce" opacity="1.00" d=" M 43.85 60.38 C 46.33 56.62 47.96 52.25 51.24 49.06 C 51.55 55.63 49.01 62.41 44.71 67.37 C 44.36 67.33 43.65 67.25 43.30 67.21 C 43.49 64.94 43.72 62.66 43.85 60.38 Z" />
</g>
<g id="#93eefeff">
<path fill="#93eefe" opacity="1.00" d=" M 58.93 52.05 C 62.64 52.10 66.41 51.17 70.07 51.83 C 70.28 52.41 70.68 53.59 70.88 54.17 C 67.02 52.51 62.02 55.34 58.93 52.05 Z" />
</g>
<g id="#30353668">
<path fill="#303536" opacity="0.41" d=" M 10.92 53.14 C 11.94 53.77 12.95 54.43 13.95 55.10 C 13.83 56.63 13.76 58.17 13.74 59.70 L 13.13 60.24 C 13.09 58.80 13.09 57.35 13.11 55.90 C 12.40 54.97 11.67 54.05 10.92 53.14 Z" />
</g>
<g id="#e79179ff">
<path fill="#e79179" opacity="1.00" d=" M 15.49 55.73 C 16.67 54.55 17.86 53.40 19.05 52.24 L 19.28 53.46 C 19.43 56.93 19.37 60.42 18.89 63.87 C 17.52 61.85 18.17 59.39 17.85 57.12 C 16.35 58.96 16.43 61.36 16.25 63.60 L 15.25 62.77 C 15.32 60.42 15.44 58.08 15.49 55.73 Z" />
</g>
<g id="#10161eff">
<path fill="#10161e" opacity="1.00" d=" M 35.08 55.97 C 36.20 54.53 37.68 53.39 39.53 53.14 C 40.71 54.14 41.79 55.26 42.76 56.47 C 43.21 57.75 43.54 59.06 43.85 60.38 C 43.72 62.66 43.49 64.94 43.30 67.21 C 43.10 67.21 42.69 67.20 42.49 67.19 C 43.44 64.08 43.95 60.61 42.66 57.52 C 41.82 55.35 39.77 52.88 37.17 54.13 C 33.53 58.70 32.94 65.81 36.88 70.38 C 37.16 70.63 37.72 71.13 38.00 71.38 C 38.96 70.90 39.90 70.38 40.82 69.81 C 39.66 71.91 37.32 71.60 35.58 70.50 C 34.87 68.95 34.22 67.37 33.69 65.75 C 33.66 65.00 33.58 63.51 33.54 62.76 C 33.60 60.42 34.23 58.14 35.08 55.97 Z" />
<path fill="#10161e" opacity="1.00" d=" M 19.28 53.46 C 19.36 53.88 19.53 54.73 19.61 55.15 C 19.62 55.84 19.63 57.21 19.63 57.89 C 19.58 60.63 19.34 63.36 19.20 66.09 C 19.18 66.36 19.13 66.88 19.11 67.14 C 18.63 67.35 17.68 67.77 17.20 67.97 C 18.18 66.97 18.55 65.81 18.30 64.49 C 18.00 64.43 17.39 64.29 17.09 64.22 C 16.88 64.06 16.46 63.75 16.25 63.60 C 16.43 61.36 16.35 58.96 17.85 57.12 C 18.17 59.39 17.52 61.85 18.89 63.87 C 19.37 60.42 19.43 56.93 19.28 53.46 Z" />
<path fill="#10161e" opacity="1.00" d=" M 36.37 59.20 C 39.32 58.91 38.22 63.47 37.96 65.34 C 37.60 65.54 36.86 65.94 36.49 66.14 C 35.78 63.89 35.51 61.46 36.37 59.20 Z" />
<path fill="#10161e" opacity="1.00" d=" M 15.46 77.75 C 14.84 75.07 15.02 71.88 17.97 70.71 C 20.17 70.52 22.30 71.13 24.07 72.45 C 24.86 73.39 25.61 74.37 26.33 75.36 C 26.39 77.27 26.47 79.56 24.50 80.58 C 21.24 82.78 17.87 79.80 15.46 77.75 Z" />
<path fill="#10161e" opacity="1.00" d=" M 37.98 77.55 C 38.25 77.52 38.80 77.48 39.08 77.45 C 39.61 78.62 40.04 79.84 40.47 81.06 C 43.18 88.15 45.69 96.72 41.77 103.85 C 40.24 107.07 36.91 108.80 33.69 109.91 C 33.60 109.81 33.44 109.60 33.35 109.49 C 37.26 108.57 40.61 106.08 42.25 102.36 C 41.61 102.39 40.34 102.46 39.70 102.49 C 34.68 102.26 29.60 102.53 24.65 101.43 C 25.41 101.44 26.92 101.48 27.68 101.50 C 31.11 101.63 34.55 101.63 37.99 101.70 C 39.51 101.72 41.03 101.75 42.56 101.78 C 43.09 99.36 43.46 96.90 43.59 94.42 C 42.71 94.41 40.93 94.39 40.04 94.38 C 35.31 94.57 30.62 93.96 25.93 93.46 L 24.48 93.54 C 23.94 93.20 23.42 92.85 22.90 92.48 C 22.31 96.41 22.23 100.38 22.68 104.32 L 22.78 105.62 C 21.87 106.32 20.75 106.55 19.62 106.66 C 20.54 105.84 21.51 105.07 22.49 104.31 C 21.79 99.68 22.23 95.01 23.25 90.46 L 23.50 90.78 C 23.99 91.43 24.48 92.08 24.98 92.73 L 26.55 93.02 C 30.94 93.68 35.39 93.84 39.83 93.81 C 40.74 93.80 42.57 93.77 43.48 93.75 C 43.11 91.64 42.76 89.52 42.32 87.41 C 41.72 87.40 40.52 87.37 39.92 87.36 C 35.93 87.33 31.97 86.94 28.01 86.57 L 26.67 86.45 C 31.83 86.15 36.98 87.05 42.15 86.73 C 41.45 85.05 40.80 83.35 40.28 81.60 C 36.74 81.65 33.19 81.76 29.66 81.54 C 33.12 81.24 36.60 81.23 40.08 81.26 C 39.75 79.80 39.05 78.57 37.98 77.55 Z" />
</g>
<g id="#e5d8d7ff">
<path fill="#e5d8d7" opacity="1.00" d=" M 37.17 54.13 C 39.77 52.88 41.82 55.35 42.66 57.52 C 43.95 60.61 43.44 64.08 42.49 67.19 C 41.96 68.08 41.41 68.96 40.82 69.81 C 39.90 70.38 38.96 70.90 38.00 71.38 C 37.72 71.13 37.16 70.63 36.88 70.38 C 37.59 69.77 38.29 69.16 39.00 68.54 C 38.23 67.68 37.39 66.88 36.49 66.14 C 36.86 65.94 37.60 65.54 37.96 65.34 C 38.74 65.28 40.28 65.15 41.06 65.08 C 41.21 61.06 40.80 56.62 37.17 54.13 Z" />
</g>
<g id="#ff9175ff">
<path fill="#ff9175" opacity="1.00" d=" M 36.88 70.38 C 32.94 65.81 33.53 58.70 37.17 54.13 C 40.80 56.62 41.21 61.06 41.06 65.08 C 40.28 65.15 38.74 65.28 37.96 65.34 C 38.22 63.47 39.32 58.91 36.37 59.20 C 35.51 61.46 35.78 63.89 36.49 66.14 C 37.39 66.88 38.23 67.68 39.00 68.54 C 38.29 69.16 37.59 69.77 36.88 70.38 Z" />
<path fill="#ff9175" opacity="1.00" d=" M 17.09 64.22 C 17.39 64.29 18.00 64.43 18.30 64.49 C 18.55 65.81 18.18 66.97 17.20 67.97 C 15.74 67.33 16.88 65.36 17.09 64.22 Z" />
</g>
<g id="#80dfffff">
<path fill="#80dfff" opacity="1.00" d=" M 19.63 57.89 C 24.71 56.71 29.96 56.91 35.08 55.97 C 34.23 58.14 33.60 60.42 33.54 62.76 C 30.40 60.28 26.04 60.32 22.36 61.37 C 20.53 61.98 20.47 64.41 22.16 65.27 L 21.88 65.82 C 21.21 65.89 19.87 66.03 19.20 66.09 C 19.34 63.36 19.58 60.63 19.63 57.89 Z" />
</g>
<g id="#b8f0fbff">
<path fill="#b8f0fb" opacity="1.00" d=" M 13.13 60.24 L 13.74 59.70 C 13.86 61.36 14.06 63.00 14.35 64.64 C 13.57 64.70 12.00 64.83 11.22 64.89 C 11.11 64.19 10.90 62.79 10.79 62.09 C 11.57 61.48 12.35 60.86 13.13 60.24 Z" />
</g>
<g id="#74c5f6ff">
<path fill="#74c5f6" opacity="1.00" d=" M 22.36 61.37 C 26.04 60.32 30.40 60.28 33.54 62.76 C 33.58 63.51 33.66 65.00 33.69 65.75 C 32.00 64.95 30.22 64.35 28.42 63.84 C 28.73 64.78 29.04 65.72 29.34 66.66 C 28.01 66.04 26.68 65.42 25.32 64.88 C 24.53 64.98 22.95 65.17 22.16 65.27 C 20.47 64.41 20.53 61.98 22.36 61.37 Z" />
</g>
<g id="#506b749c">
<path fill="#506b74" opacity="0.61" d=" M 10.15 63.65 C 10.31 63.26 10.63 62.48 10.79 62.09 C 10.90 62.79 11.11 64.19 11.22 64.89 C 12.00 64.83 13.57 64.70 14.35 64.64 C 14.64 65.44 14.92 66.26 15.18 67.08 C 14.39 64.45 10.98 66.11 10.15 63.65 Z" />
</g>
<g id="#65b1d8ff">
<path fill="#65b1d8" opacity="1.00" d=" M 28.42 63.84 C 30.22 64.35 32.00 64.95 33.69 65.75 C 34.22 67.37 34.87 68.95 35.58 70.50 C 34.34 69.94 33.02 69.57 31.70 69.24 C 31.59 72.23 31.96 75.54 30.14 78.13 C 29.91 78.36 29.43 78.84 29.19 79.08 C 25.52 84.02 17.22 83.52 14.52 77.90 C 14.78 78.17 15.30 78.70 15.56 78.97 C 15.54 78.67 15.49 78.05 15.46 77.75 C 17.87 79.80 21.24 82.78 24.50 80.58 C 26.47 79.56 26.39 77.27 26.33 75.36 C 27.97 72.76 30.57 69.98 29.34 66.66 C 29.04 65.72 28.73 64.78 28.42 63.84 Z" />
</g>
<g id="#befdffff">
<path fill="#befdff" opacity="1.00" d=" M 22.16 65.27 C 22.95 65.17 24.53 64.98 25.32 64.88 C 27.38 67.42 26.30 70.45 24.07 72.45 C 22.30 71.13 20.17 70.52 17.97 70.71 C 19.88 69.63 21.06 67.80 21.88 65.82 L 22.16 65.27 Z" />
<path fill="#befdff" opacity="1.00" d=" M 19.24 107.96 L 19.80 108.77 C 19.98 113.78 20.41 118.90 19.17 123.82 C 17.57 118.66 17.93 113.14 19.24 107.96 Z" />
</g>
<g id="#90d4f1ff">
<path fill="#90d4f1" opacity="1.00" d=" M 25.32 64.88 C 26.68 65.42 28.01 66.04 29.34 66.66 C 30.57 69.98 27.97 72.76 26.33 75.36 C 25.61 74.37 24.86 73.39 24.07 72.45 C 26.30 70.45 27.38 67.42 25.32 64.88 Z" />
</g>
<g id="#b2d8c3ff">
<path fill="#b2d8c3" opacity="1.00" d=" M 43.15 75.32 C 44.41 74.21 45.69 73.12 46.93 71.98 C 46.43 74.61 45.59 77.16 44.54 79.63 L 43.97 78.01 C 43.68 77.12 43.41 76.22 43.15 75.32 Z" />
<path fill="#b2d8c3" opacity="1.00" d=" M 39.70 102.49 C 40.34 102.46 41.61 102.39 42.25 102.36 C 40.61 106.08 37.26 108.57 33.35 109.49 C 32.62 108.23 31.94 106.95 31.20 105.69 C 30.86 105.13 30.18 104.01 29.84 103.45 C 33.14 103.45 36.64 104.10 39.70 102.49 Z" />
</g>
<g id="#bde8d4ff">
<path fill="#bde8d4" opacity="1.00" d=" M 30.14 78.13 C 32.77 78.16 35.38 77.88 37.98 77.55 C 39.05 78.57 39.75 79.80 40.08 81.26 C 36.60 81.23 33.12 81.24 29.66 81.54 C 33.19 81.76 36.74 81.65 40.28 81.60 C 40.80 83.35 41.45 85.05 42.15 86.73 C 36.98 87.05 31.83 86.15 26.67 86.45 C 26.21 86.47 25.30 86.51 24.84 86.53 C 25.09 86.25 25.57 85.70 25.81 85.42 C 27.21 85.18 28.60 84.92 29.98 84.61 C 29.49 83.33 29.04 82.02 28.66 80.70 C 28.79 80.30 29.06 79.48 29.19 79.08 C 29.43 78.84 29.91 78.36 30.14 78.13 Z" />
</g>
<g id="#6ba5cbff">
<path fill="#6ba5cb" opacity="1.00" d=" M 42.68 80.35 C 43.11 79.57 43.54 78.79 43.97 78.01 L 44.54 79.63 C 49.61 89.59 50.25 102.01 44.59 111.87 C 43.79 110.54 44.33 109.06 44.49 107.66 C 40.07 107.73 38.04 112.48 33.75 113.09 C 33.82 112.03 33.79 110.97 33.69 109.91 C 36.91 108.80 40.24 107.07 41.77 103.85 C 45.69 96.72 43.18 88.15 40.47 81.06 C 41.21 80.82 41.95 80.58 42.68 80.35 M 47.37 101.57 C 48.39 97.97 47.89 94.17 47.59 90.50 C 46.38 94.04 47.32 97.91 47.37 101.57 Z" />
</g>
<g id="#f7ffddff">
<path fill="#f7ffdd" opacity="1.00" d=" M 25.81 85.42 C 26.46 83.68 27.42 82.08 28.66 80.70 C 29.04 82.02 29.49 83.33 29.98 84.61 C 28.60 84.92 27.21 85.18 25.81 85.42 Z" />
<path fill="#f7ffdd" opacity="1.00" d=" M 23.50 90.78 C 24.02 89.39 24.47 87.97 24.84 86.53 C 25.30 86.51 26.21 86.47 26.67 86.45 L 28.01 86.57 C 27.53 88.72 27.04 90.87 26.55 93.02 L 24.98 92.73 C 24.48 92.08 23.99 91.43 23.50 90.78 Z" />
</g>
<g id="#ccfce0ff">
<path fill="#ccfce0" opacity="1.00" d=" M 28.01 86.57 C 31.97 86.94 35.93 87.33 39.92 87.36 C 37.79 89.32 38.32 91.66 39.83 93.81 C 35.39 93.84 30.94 93.68 26.55 93.02 C 27.04 90.87 27.53 88.72 28.01 86.57 Z" />
</g>
<g id="#c9ddbeff">
<path fill="#c9ddbe" opacity="1.00" d=" M 39.92 87.36 C 40.52 87.37 41.72 87.40 42.32 87.41 C 42.76 89.52 43.11 91.64 43.48 93.75 C 42.57 93.77 40.74 93.80 39.83 93.81 C 38.32 91.66 37.79 89.32 39.92 87.36 Z" />
</g>
<g id="#74bae3ff">
<path fill="#74bae3" opacity="1.00" d=" M 47.37 101.57 C 47.32 97.91 46.38 94.04 47.59 90.50 C 47.89 94.17 48.39 97.97 47.37 101.57 Z" />
</g>
<g id="#fcfddfff">
<path fill="#fcfddf" opacity="1.00" d=" M 22.90 92.48 C 23.42 92.85 23.94 93.20 24.48 93.54 L 25.93 93.46 C 26.04 96.23 26.13 99.09 27.68 101.50 C 26.92 101.48 25.41 101.44 24.65 101.43 C 29.60 102.53 34.68 102.26 39.70 102.49 C 36.64 104.10 33.14 103.45 29.84 103.45 C 27.43 103.53 25.05 103.93 22.68 104.32 C 22.23 100.38 22.31 96.41 22.90 92.48 Z" />
</g>
<g id="#cefbe0ff">
<path fill="#cefbe0" opacity="1.00" d=" M 25.93 93.46 C 30.62 93.96 35.31 94.57 40.04 94.38 C 38.82 95.97 37.60 97.56 36.37 99.15 C 36.91 100.00 37.45 100.85 37.99 101.70 C 34.55 101.63 31.11 101.63 27.68 101.50 C 26.13 99.09 26.04 96.23 25.93 93.46 Z" />
</g>
<g id="#ccdfbeff">
<path fill="#ccdfbe" opacity="1.00" d=" M 40.04 94.38 C 40.93 94.39 42.71 94.41 43.59 94.42 C 43.46 96.90 43.09 99.36 42.56 101.78 C 41.03 101.75 39.51 101.72 37.99 101.70 C 37.45 100.85 36.91 100.00 36.37 99.15 C 37.60 97.56 38.82 95.97 40.04 94.38 Z" />
</g>
<g id="#90f3ffff">
<path fill="#90f3ff" opacity="1.00" d=" M 22.68 104.32 C 25.05 103.93 27.43 103.53 29.84 103.45 C 30.18 104.01 30.86 105.13 31.20 105.69 C 30.90 105.97 30.29 106.51 29.99 106.78 C 26.87 108.84 27.02 112.94 26.11 116.17 C 25.62 119.35 24.13 122.21 22.20 124.74 C 22.59 126.03 22.98 127.32 23.32 128.63 C 21.54 127.40 19.96 125.87 19.17 123.82 C 20.41 118.90 19.98 113.78 19.80 108.77 C 19.76 108.25 19.66 107.19 19.62 106.66 C 20.75 106.55 21.87 106.32 22.78 105.62 L 22.68 104.32 Z" />
</g>
<g id="#5d95beff">
<path fill="#5d95be" opacity="1.00" d=" M 31.20 105.69 C 31.94 106.95 32.62 108.23 33.35 109.49 C 33.44 109.60 33.60 109.81 33.69 109.91 C 33.79 110.97 33.82 112.03 33.75 113.09 C 38.04 112.48 40.07 107.73 44.49 107.66 C 44.33 109.06 43.79 110.54 44.59 111.87 C 41.88 117.92 38.17 123.74 32.93 127.89 C 30.52 130.01 27.00 129.96 24.08 129.11 C 26.14 128.94 28.20 128.76 30.26 128.55 C 28.93 128.26 27.60 127.99 26.27 127.72 C 29.16 121.03 26.58 113.39 29.99 106.78 C 30.29 106.51 30.90 105.97 31.20 105.69 Z" />
</g>
<g id="#75b2d6ff">
<path fill="#75b2d6" opacity="1.00" d=" M 26.11 116.17 C 27.02 112.94 26.87 108.84 29.99 106.78 C 26.58 113.39 29.16 121.03 26.27 127.72 C 27.60 127.99 28.93 128.26 30.26 128.55 C 28.20 128.76 26.14 128.94 24.08 129.11 L 23.46 129.17 L 23.32 128.63 C 22.98 127.32 22.59 126.03 22.20 124.74 C 24.13 122.21 25.62 119.35 26.11 116.17 Z" />
</g>
</svg>
