<?xml version="1.0" encoding="UTF-8" ?>
<!DOCTYPE svg PUBLIC "-//W3C//DTD SVG 1.1//EN" "http://www.w3.org/Graphics/SVG/1.1/DTD/svg11.dtd">
<svg width="144pt" height="165pt" viewBox="0 0 144 165" version="1.1" xmlns="http://www.w3.org/2000/svg">
<g id="#c9dec3f7">
<path fill="#c9dec3" opacity="0.97" d=" M 104.84 15.90 C 106.24 13.36 107.30 10.40 109.92 8.82 C 108.24 11.67 111.39 17.71 107.71 19.62 C 105.17 21.51 102.96 25.45 104.02 28.57 C 100.94 31.39 97.52 33.83 94.07 36.17 C 96.48 29.00 101.40 22.69 104.84 15.90 Z" />
</g>
<g id="#d0e5c9fa">
<path fill="#d0e5c9" opacity="0.98" d=" M 31.19 11.13 C 31.60 11.11 32.43 11.06 32.85 11.04 C 33.92 16.30 34.48 21.65 34.96 26.99 C 35.00 29.49 35.24 31.96 35.70 34.41 C 34.82 36.94 34.05 39.51 33.44 42.13 C 32.89 40.88 32.07 39.79 31.18 38.76 C 30.90 36.22 31.58 33.75 32.05 31.28 C 31.20 31.14 29.32 32.68 29.25 31.20 C 31.25 24.67 28.23 17.37 31.19 11.13 Z" />
</g>
<g id="#87cfeafb">
<path fill="#87cfea" opacity="1.00" d=" M 60.25 16.80 C 61.37 14.62 61.96 10.31 65.21 11.09 C 64.32 15.55 61.87 19.55 60.99 23.99 C 60.58 25.60 62.05 26.49 63.04 27.41 C 60.96 30.86 59.43 25.69 59.58 23.65 C 59.28 21.15 63.24 18.49 60.25 16.80 Z" />
</g>
<g id="#66a0c5f5">
<path fill="#66a0c5" opacity="0.96" d=" M 65.21 11.09 L 66.09 10.96 C 65.97 16.13 65.12 21.25 64.21 26.34 C 63.91 26.61 63.33 27.14 63.04 27.41 C 62.05 26.49 60.58 25.60 60.99 23.99 C 61.87 19.55 64.32 15.55 65.21 11.09 Z" />
</g>
<g id="#94ecf6fa">
<path fill="#94ecf6" opacity="0.98" d=" M 5.00 11.92 C 11.22 17.91 15.90 25.69 21.71 32.28 L 21.58 32.88 C 21.25 33.23 20.59 33.91 20.27 34.25 C 22.89 38.11 25.11 42.31 28.22 45.82 C 29.48 45.94 30.76 45.99 32.04 45.95 L 32.87 45.96 C 32.44 46.24 31.56 46.81 31.12 47.10 C 29.09 47.27 27.75 48.90 26.10 49.90 C 23.05 45.58 20.28 41.06 17.71 36.44 C 17.29 36.52 16.46 36.68 16.05 36.76 C 11.77 28.89 6.09 20.91 5.00 11.92 Z" />
</g>
<g id="#5e97b6ef">
<path fill="#5e97b6" opacity="0.94" d=" M 117.43 18.74 C 118.04 17.12 121.06 15.79 123.07 15.96 C 116.99 25.31 108.39 32.83 102.13 42.08 C 101.55 43.09 102.92 46.47 101.13 45.85 C 101.16 44.16 100.72 43.82 99.78 44.85 C 98.86 45.61 97.95 46.37 97.03 47.12 C 97.05 46.61 97.09 45.59 97.11 45.07 C 98.83 43.91 99.48 41.92 100.22 40.09 C 103.41 36.95 106.14 33.38 109.13 30.06 C 109.37 29.83 109.86 29.36 110.10 29.13 C 112.53 25.91 118.15 23.10 117.43 18.74 Z" />
</g>
<g id="#87e2fbfe">
<path fill="#87e2fb" opacity="1.00" d=" M 60.25 16.80 C 63.24 18.49 59.28 21.15 59.58 23.65 C 59.43 25.69 60.96 30.86 63.04 27.41 C 63.33 27.14 63.91 26.61 64.21 26.34 C 66.34 25.48 67.61 23.10 70.01 22.90 C 69.09 24.67 67.96 26.32 67.08 28.11 C 67.11 31.48 70.50 33.79 71.03 37.00 C 70.59 39.43 68.53 41.26 68.04 43.72 C 66.28 43.83 63.61 42.48 63.02 44.98 C 61.73 48.82 59.44 52.17 57.79 55.84 C 55.58 56.79 53.37 57.78 50.98 58.15 C 50.75 53.87 54.51 51.11 57.13 48.28 C 59.53 45.90 62.18 43.72 64.10 40.91 C 60.63 41.62 58.78 45.23 55.90 47.08 C 53.19 49.00 51.44 51.93 49.09 54.21 C 48.10 48.33 51.53 43.32 53.07 37.94 C 45.23 38.30 39.77 46.40 40.96 54.00 C 40.66 59.10 48.45 59.97 46.26 65.33 C 45.66 65.55 44.45 66.00 43.84 66.22 C 42.92 63.84 41.43 61.80 39.82 59.85 C 39.48 58.96 39.15 58.07 38.84 57.17 C 38.96 56.70 39.19 55.77 39.31 55.30 C 40.57 52.35 38.90 49.31 38.68 46.31 C 39.70 44.02 40.23 41.54 41.30 39.27 C 43.99 36.99 46.53 34.53 49.40 32.48 C 52.01 32.17 54.62 31.68 57.11 30.82 C 56.16 30.13 55.14 29.54 54.13 28.95 C 56.72 25.17 57.87 20.67 60.25 16.80 Z" />
</g>
<g id="#96e3f3fa">
<path fill="#96e3f3" opacity="0.98" d=" M 41.20 17.91 C 44.40 20.82 45.24 25.85 46.25 29.96 C 48.97 30.56 51.72 30.19 54.13 28.95 C 55.14 29.54 56.16 30.13 57.11 30.82 C 54.62 31.68 52.01 32.17 49.40 32.48 C 46.53 34.53 43.99 36.99 41.30 39.27 C 40.23 41.54 39.70 44.02 38.68 46.31 C 38.47 45.29 38.33 44.27 38.24 43.23 C 39.74 38.60 42.09 34.15 42.01 29.15 C 41.29 29.09 39.86 28.96 39.14 28.89 C 39.58 25.19 40.89 21.64 41.20 17.91 Z" />
</g>
<g id="#669badd3">
<path fill="#669bad" opacity="0.83" d=" M 71.18 21.79 C 72.05 20.29 74.27 19.44 75.96 18.88 C 74.93 20.68 74.66 23.28 72.78 24.36 C 71.52 24.03 71.35 22.88 71.18 21.79 Z" />
</g>
<g id="#83d3ebfa">
<path fill="#83d3eb" opacity="0.98" d=" M 111.38 23.70 C 112.30 21.69 115.57 20.35 117.43 18.74 C 118.15 23.10 112.53 25.91 110.10 29.13 C 110.52 27.32 112.09 25.62 111.38 23.70 Z" />
</g>
<g id="#a0b0a0f2">
<path fill="#a0b0a0" opacity="0.95" d=" M 104.02 28.57 C 102.96 25.45 105.17 21.51 107.71 19.62 C 108.47 21.87 106.40 24.05 107.66 26.21 C 106.61 27.23 105.27 27.85 104.02 28.57 Z" />
</g>
<g id="#77b7dafc">
<path fill="#77b7da" opacity="1.00" d=" M 70.01 22.90 C 70.30 22.62 70.88 22.07 71.18 21.79 C 71.35 22.88 71.52 24.03 72.78 24.36 C 72.71 26.85 71.70 29.32 72.14 31.80 C 73.83 34.00 76.62 34.32 79.07 35.16 C 75.54 39.96 73.64 46.12 69.13 50.08 C 69.01 49.51 68.78 48.37 68.67 47.81 C 68.62 47.31 68.51 46.32 68.46 45.82 C 68.38 45.11 68.24 44.41 68.04 43.72 C 68.53 41.26 70.59 39.43 71.03 37.00 C 70.50 33.79 67.11 31.48 67.08 28.11 C 67.96 26.32 69.09 24.67 70.01 22.90 Z" />
</g>
<g id="#8decf9fd">
<path fill="#8decf9" opacity="1.00" d=" M 107.66 26.21 C 108.73 25.16 110.04 24.37 111.38 23.70 C 112.09 25.62 110.52 27.32 110.10 29.13 C 109.86 29.36 109.37 29.83 109.13 30.06 C 105.21 29.62 103.90 34.09 101.19 36.06 C 97.39 37.25 94.10 39.98 90.02 40.18 C 90.55 38.31 92.70 37.43 94.07 36.17 C 97.52 33.83 100.94 31.39 104.02 28.57 C 105.27 27.85 106.61 27.23 107.66 26.21 Z" />
</g>
<g id="#f3f5e0fb">
<path fill="#f3f5e0" opacity="1.00" d=" M 27.03 27.92 C 27.40 25.22 29.08 30.21 29.25 31.20 C 29.32 32.68 31.20 31.14 32.05 31.28 C 31.58 33.75 30.90 36.22 31.18 38.76 C 30.98 40.28 30.70 41.78 30.30 43.26 C 29.07 41.64 27.75 40.09 26.59 38.41 C 26.79 34.91 27.01 31.42 27.03 27.92 Z" />
</g>
<g id="#5f7065c0">
<path fill="#5f7065" opacity="0.75" d=" M 34.96 26.99 C 37.27 27.42 35.04 31.72 36.86 33.41 C 36.57 33.66 35.99 34.16 35.70 34.41 C 35.24 31.96 35.00 29.49 34.96 26.99 Z" />
</g>
<g id="#585b5c9a">
<path fill="#585b5c" opacity="0.60" d=" M 25.36 37.08 C 27.22 35.10 24.38 29.00 27.03 27.92 C 27.01 31.42 26.79 34.91 26.59 38.41 C 26.29 38.08 25.67 37.41 25.36 37.08 Z" />
</g>
<g id="#b7fbfdff">
<path fill="#b7fbfd" opacity="1.00" d=" M 39.14 28.89 C 39.86 28.96 41.29 29.09 42.01 29.15 C 42.09 34.15 39.74 38.60 38.24 43.23 C 37.97 41.76 38.45 39.42 36.18 39.88 C 36.57 42.20 36.98 44.51 37.41 46.82 C 36.55 49.03 35.42 51.12 34.27 53.19 C 34.16 52.39 33.95 50.80 33.84 50.00 C 32.52 50.62 31.22 51.31 30.08 52.22 C 26.87 56.90 30.50 56.93 32.72 57.74 C 33.03 59.09 33.65 61.78 33.96 63.13 C 35.11 65.10 39.51 61.10 40.89 64.24 C 41.89 69.19 33.54 72.75 30.88 68.19 C 31.97 67.49 32.11 66.66 31.33 65.69 L 30.98 65.02 C 30.02 62.47 27.98 60.67 26.31 58.62 C 25.16 54.02 28.30 50.23 31.12 47.10 C 31.56 46.81 32.44 46.24 32.87 45.96 C 33.08 44.68 33.27 43.41 33.44 42.13 C 34.05 39.51 34.82 36.94 35.70 34.41 C 35.99 34.16 36.57 33.66 36.86 33.41 C 38.63 32.47 39.15 30.79 39.14 28.89 Z" />
</g>
<g id="#78c8eeff">
<path fill="#78c8ee" opacity="1.00" d=" M 101.19 36.06 C 103.90 34.09 105.21 29.62 109.13 30.06 C 106.14 33.38 103.41 36.95 100.22 40.09 C 95.01 43.91 90.68 48.96 87.56 54.62 C 86.64 56.03 85.46 57.32 84.00 58.18 C 80.41 56.25 79.19 52.28 78.01 48.67 L 78.03 47.82 L 78.97 47.77 C 82.25 48.04 80.50 54.84 84.76 53.81 C 89.77 47.47 95.70 41.97 101.19 36.06 Z" />
</g>
<g id="#86d5f7fd">
<path fill="#86d5f7" opacity="1.00" d=" M 20.27 34.25 C 20.59 33.91 21.25 33.23 21.58 32.88 C 22.86 34.27 24.12 35.66 25.36 37.08 C 25.67 37.41 26.29 38.08 26.59 38.41 C 27.75 40.09 29.07 41.64 30.30 43.26 C 30.86 44.17 31.45 45.06 32.04 45.95 C 30.76 45.99 29.48 45.94 28.22 45.82 C 25.11 42.31 22.89 38.11 20.27 34.25 Z" />
</g>
<g id="#a3b6a1f6">
<path fill="#a3b6a1" opacity="0.96" d=" M 134.30 34.74 C 134.83 33.08 137.53 33.12 139.06 32.95 C 135.56 39.63 128.32 43.35 124.73 49.85 C 123.21 49.99 121.70 50.12 120.18 50.25 C 119.59 50.17 118.39 50.00 117.79 49.92 C 121.64 46.24 127.06 44.52 130.21 40.08 C 131.69 38.41 134.34 37.33 134.30 34.74 Z" />
</g>
<g id="#659ec4fd">
<path fill="#659ec4" opacity="1.00" d=" M 79.07 35.16 C 80.22 34.86 81.15 35.18 81.87 36.13 C 80.27 39.93 77.36 43.47 78.03 47.82 L 78.01 48.67 C 75.73 53.57 78.37 57.90 82.23 60.90 C 89.24 61.74 94.95 55.85 102.06 57.06 C 100.11 58.09 98.09 58.99 96.17 60.08 C 91.51 60.80 87.14 63.07 82.33 62.72 C 79.39 61.02 76.89 58.66 73.93 57.02 C 71.20 56.79 70.69 60.40 68.44 61.41 C 68.89 57.90 69.34 54.32 67.95 50.97 C 68.15 49.91 68.40 48.85 68.67 47.81 C 68.78 48.37 69.01 49.51 69.13 50.08 C 73.64 46.12 75.54 39.96 79.07 35.16 Z" />
</g>
<g id="#eff6d3fd">
<path fill="#eff6d3" opacity="1.00" d=" M 101.72 48.94 C 113.51 47.10 123.08 38.43 134.30 34.74 C 134.34 37.33 131.69 38.41 130.21 40.08 C 122.84 41.97 116.30 46.05 109.73 49.72 C 108.05 50.00 106.38 50.29 104.74 50.74 C 103.47 50.82 102.19 50.88 100.91 50.94 C 101.11 50.44 101.52 49.44 101.72 48.94 Z" />
</g>
<g id="#a1eef7fb">
<path fill="#a1eef7" opacity="1.00" d=" M 16.05 36.76 C 16.46 36.68 17.29 36.52 17.71 36.44 C 20.28 41.06 23.05 45.58 26.10 49.90 C 27.75 48.90 29.09 47.27 31.12 47.10 C 28.30 50.23 25.16 54.02 26.31 58.62 C 27.98 60.67 30.02 62.47 30.98 65.02 C 30.53 64.65 29.62 63.93 29.17 63.56 C 27.87 62.10 25.99 61.69 24.10 62.00 C 24.03 63.25 23.98 64.51 23.97 65.77 C 23.68 65.66 23.10 65.46 22.81 65.35 C 23.19 62.87 22.85 59.95 20.24 58.74 C 16.04 55.22 11.21 52.53 6.93 49.09 C 2.66 50.43 3.64 44.70 5.73 45.41 C 10.82 46.72 15.99 47.67 21.11 48.84 C 19.95 44.61 17.73 40.78 16.05 36.76 Z" />
</g>
<g id="#80e0fbfe">
<path fill="#80e0fb" opacity="1.00" d=" M 90.02 40.18 C 94.10 39.98 97.39 37.25 101.19 36.06 C 95.70 41.97 89.77 47.47 84.76 53.81 C 80.50 54.84 82.25 48.04 78.97 47.77 C 82.08 44.75 86.03 41.93 90.02 40.18 Z" />
</g>
<g id="#72d6f9ff">
<path fill="#72d6f9" opacity="1.00" d=" M 40.96 54.00 C 39.77 46.40 45.23 38.30 53.07 37.94 C 51.53 43.32 48.10 48.33 49.09 54.21 C 51.44 51.93 53.19 49.00 55.90 47.08 C 56.20 47.38 56.82 47.98 57.13 48.28 C 54.51 51.11 50.75 53.87 50.98 58.15 C 50.32 59.04 49.65 59.92 49.02 60.83 C 50.56 60.57 52.15 60.30 53.31 61.61 C 51.26 63.36 48.92 64.76 46.26 65.33 C 48.45 59.97 40.66 59.10 40.96 54.00 Z" />
</g>
<g id="#82bdd7ff">
<path fill="#82bdd7" opacity="1.00" d=" M 31.18 38.76 C 32.07 39.79 32.89 40.88 33.44 42.13 C 33.27 43.41 33.08 44.68 32.87 45.96 L 32.04 45.95 C 31.45 45.06 30.86 44.17 30.30 43.26 C 30.70 41.78 30.98 40.28 31.18 38.76 Z" />
</g>
<g id="#75baccff">
<path fill="#75bacc" opacity="1.00" d=" M 36.18 39.88 C 38.45 39.42 37.97 41.76 38.24 43.23 C 38.33 44.27 38.47 45.29 38.68 46.31 C 38.90 49.31 40.57 52.35 39.31 55.30 C 38.57 52.50 38.05 49.65 37.41 46.82 C 36.98 44.51 36.57 42.20 36.18 39.88 Z" />
</g>
<g id="#6eafd7ff">
<path fill="#6eafd7" opacity="1.00" d=" M 87.56 54.62 C 90.68 48.96 95.01 43.91 100.22 40.09 C 99.48 41.92 98.83 43.91 97.11 45.07 C 94.55 46.90 90.84 48.84 93.01 53.07 C 92.65 55.24 95.68 52.79 96.78 52.79 C 98.78 54.24 100.88 55.58 103.21 56.46 C 102.92 56.61 102.35 56.91 102.06 57.06 C 94.95 55.85 89.24 61.74 82.23 60.90 C 78.37 57.90 75.73 53.57 78.01 48.67 C 79.19 52.28 80.41 56.25 84.00 58.18 C 85.46 57.32 86.64 56.03 87.56 54.62 Z" />
</g>
<g id="#d4e5bfff">
<path fill="#d4e5bf" opacity="1.00" d=" M 109.73 49.72 C 116.30 46.05 122.84 41.97 130.21 40.08 C 127.06 44.52 121.64 46.24 117.79 49.92 C 115.10 49.89 112.41 49.82 109.73 49.72 Z" />
</g>
<g id="#5694adff">
<path fill="#5694ad" opacity="1.00" d=" M 55.90 47.08 C 58.78 45.23 60.63 41.62 64.10 40.91 C 62.18 43.72 59.53 45.90 57.13 48.28 C 56.82 47.98 56.20 47.38 55.90 47.08 Z" />
</g>
<g id="#7dccf2ff">
<path fill="#7dccf2" opacity="1.00" d=" M 63.02 44.98 C 63.61 42.48 66.28 43.83 68.04 43.72 C 68.24 44.41 68.38 45.11 68.46 45.82 C 65.42 49.40 63.58 54.49 58.74 55.97 L 57.79 55.84 C 59.44 52.17 61.73 48.82 63.02 44.98 Z" />
</g>
<g id="#92a89dfb">
<path fill="#92a89d" opacity="1.00" d=" M 99.78 44.85 C 100.72 43.82 101.16 44.16 101.13 45.85 C 101.33 46.88 101.53 47.91 101.72 48.94 C 101.52 49.44 101.11 50.44 100.91 50.94 L 100.15 51.26 C 100.03 49.12 99.92 46.98 99.78 44.85 Z" />
</g>
<g id="#67a3c8ff">
<path fill="#67a3c8" opacity="1.00" d=" M 93.01 53.07 C 90.84 48.84 94.55 46.90 97.11 45.07 C 97.09 45.59 97.05 46.61 97.03 47.12 C 96.68 48.37 96.28 49.60 96.01 50.87 C 97.39 51.02 98.77 51.15 100.15 51.26 C 99.03 51.77 97.89 52.27 96.78 52.79 C 95.68 52.79 92.65 55.24 93.01 53.07 Z" />
</g>
<g id="#788b89ff">
<path fill="#788b89" opacity="1.00" d=" M 97.03 47.12 C 97.95 46.37 98.86 45.61 99.78 44.85 C 99.92 46.98 100.03 49.12 100.15 51.26 C 98.77 51.15 97.39 51.02 96.01 50.87 C 96.28 49.60 96.68 48.37 97.03 47.12 Z" />
</g>
<g id="#3f5665ff">
<path fill="#3f5665" opacity="1.00" d=" M 68.46 45.82 C 68.51 46.32 68.62 47.31 68.67 47.81 C 68.40 48.85 68.15 49.91 67.95 50.97 L 67.23 50.72 C 65.60 49.68 65.38 52.56 64.42 53.38 C 63.51 55.68 61.26 56.54 59.03 57.07 L 58.74 55.97 C 63.58 54.49 65.42 49.40 68.46 45.82 Z" />
</g>
<g id="#9df1f6ff">
<path fill="#9df1f6" opacity="1.00" d=" M 37.41 46.82 C 38.05 49.65 38.57 52.50 39.31 55.30 C 39.19 55.77 38.96 56.70 38.84 57.17 C 37.51 56.36 36.46 53.70 34.68 54.83 C 34.58 54.42 34.37 53.60 34.27 53.19 C 35.42 51.12 36.55 49.03 37.41 46.82 Z" />
</g>
<g id="#ddf2f2ff">
<path fill="#ddf2f2" opacity="1.00" d=" M 30.08 52.22 C 31.22 51.31 32.52 50.62 33.84 50.00 C 33.95 50.80 34.16 52.39 34.27 53.19 C 34.37 53.60 34.58 54.42 34.68 54.83 C 35.49 57.09 35.95 59.44 36.04 61.88 C 35.52 62.19 34.48 62.81 33.96 63.13 C 33.65 61.78 33.03 59.09 32.72 57.74 C 30.50 56.93 26.87 56.90 30.08 52.22 Z" />
</g>
<g id="#e1e2e2ff">
<path fill="#e1e2e2" opacity="1.00" d=" M 64.42 53.38 C 65.38 52.56 65.60 49.68 67.23 50.72 C 66.89 54.68 68.33 61.51 63.36 63.43 C 61.73 64.79 60.19 62.84 58.80 62.08 C 58.90 60.41 58.98 58.74 59.03 57.07 C 61.26 56.54 63.51 55.68 64.42 53.38 Z" />
</g>
<g id="#b3ece9ff">
<path fill="#b3ece9" opacity="1.00" d=" M 104.74 50.74 C 106.38 50.29 108.05 50.00 109.73 49.72 C 112.41 49.82 115.10 49.89 117.79 49.92 C 118.39 50.00 119.59 50.17 120.18 50.25 C 115.08 51.09 109.89 51.21 104.74 50.74 Z" />
</g>
<g id="#79c4e7fe">
<path fill="#79c4e7" opacity="1.00" d=" M 120.18 50.25 C 121.70 50.12 123.21 49.99 124.73 49.85 C 125.98 52.25 122.85 52.85 121.13 52.80 C 115.04 52.57 109.18 55.38 103.21 56.46 C 100.88 55.58 98.78 54.24 96.78 52.79 C 97.89 52.27 99.03 51.77 100.15 51.26 L 100.91 50.94 C 102.19 50.88 103.47 50.82 104.74 50.74 C 109.89 51.21 115.08 51.09 120.18 50.25 Z" />
</g>
<g id="#5f7a8bff">
<path fill="#5f7a8b" opacity="1.00" d=" M 67.23 50.72 L 67.95 50.97 C 69.34 54.32 68.89 57.90 68.44 61.41 C 66.17 63.55 63.42 65.22 60.22 65.29 C 59.08 64.63 57.94 63.97 56.79 63.32 C 57.29 63.01 58.30 62.39 58.80 62.08 C 60.19 62.84 61.73 64.79 63.36 63.43 C 68.33 61.51 66.89 54.68 67.23 50.72 Z" />
</g>
<g id="#578eb8fd">
<path fill="#578eb8" opacity="1.00" d=" M 103.21 56.46 C 109.18 55.38 115.04 52.57 121.13 52.80 C 120.56 53.85 119.65 55.73 118.31 55.61 C 115.40 55.03 112.35 56.20 110.05 57.96 C 109.07 58.30 108.10 58.65 107.14 59.02 C 103.93 60.06 100.53 60.89 97.78 62.92 C 99.59 62.85 101.38 62.52 103.17 62.21 C 100.77 64.51 97.65 66.19 95.88 69.09 C 99.37 68.26 101.71 65.20 104.94 63.78 C 104.53 66.99 100.29 68.43 100.26 71.53 C 102.75 72.80 104.70 74.88 107.27 76.01 C 106.47 76.77 105.65 77.52 104.83 78.25 C 101.29 81.62 109.03 80.16 111.24 79.35 C 111.92 79.13 113.29 78.71 113.97 78.50 C 115.17 79.58 113.90 80.33 113.12 81.11 C 103.07 83.71 92.39 85.94 81.91 87.16 C 80.29 87.27 79.70 86.59 80.11 85.12 C 83.55 83.76 87.70 85.73 90.54 82.77 C 90.47 81.39 90.33 78.64 90.26 77.26 C 92.04 75.83 94.05 74.73 95.88 73.36 C 89.48 69.95 83.40 65.10 76.09 64.01 C 71.02 65.97 67.59 71.04 62.00 71.93 C 59.67 72.42 57.32 72.87 54.97 73.26 C 55.56 74.83 56.53 76.23 57.02 77.83 C 55.45 79.58 52.91 78.79 50.85 78.96 C 54.12 77.70 52.42 75.70 50.01 74.69 C 52.44 71.04 57.21 70.64 60.91 68.90 C 66.27 67.46 69.63 62.26 75.08 61.09 C 79.33 61.30 82.95 66.62 87.32 64.33 C 90.24 62.86 93.88 62.59 96.17 60.08 C 98.09 58.99 100.11 58.09 102.06 57.06 C 102.35 56.91 102.92 56.61 103.21 56.46 Z" />
</g>
<g id="#5e767aff">
<path fill="#5e767a" opacity="1.00" d=" M 34.68 54.83 C 36.46 53.70 37.51 56.36 38.84 57.17 C 39.15 58.07 39.48 58.96 39.82 59.85 C 38.52 60.45 37.28 61.17 36.04 61.88 C 35.95 59.44 35.49 57.09 34.68 54.83 Z" />
</g>
<g id="#85a79df8">
<path fill="#85a79d" opacity="0.97" d=" M 110.05 57.96 C 112.35 56.20 115.40 55.03 118.31 55.61 C 115.28 60.00 110.79 63.27 107.22 67.27 C 106.81 68.47 107.49 69.67 107.58 70.88 C 105.15 72.06 107.16 73.69 108.30 75.04 C 108.04 75.29 107.53 75.77 107.27 76.01 C 104.70 74.88 102.75 72.80 100.26 71.53 C 100.29 68.43 104.53 66.99 104.94 63.78 C 106.65 61.85 108.35 59.91 110.05 57.96 Z" />
</g>
<g id="#62808dff">
<path fill="#62808d" opacity="1.00" d=" M 50.98 58.15 C 53.37 57.78 55.58 56.79 57.79 55.84 C 57.68 58.42 55.66 60.74 56.79 63.32 L 56.15 63.07 L 55.30 62.73 C 54.80 62.45 53.81 61.89 53.31 61.61 C 52.15 60.30 50.56 60.57 49.02 60.83 C 49.65 59.92 50.32 59.04 50.98 58.15 Z" />
</g>
<g id="#282b2dff">
<path fill="#282b2d" opacity="1.00" d=" M 57.79 55.84 L 58.74 55.97 L 59.03 57.07 C 58.98 58.74 58.90 60.41 58.80 62.08 C 58.30 62.39 57.29 63.01 56.79 63.32 C 55.66 60.74 57.68 58.42 57.79 55.84 Z" />
</g>
<g id="#5f97c1ff">
<path fill="#5f97c1" opacity="1.00" d=" M 68.44 61.41 C 70.69 60.40 71.20 56.79 73.93 57.02 C 76.89 58.66 79.39 61.02 82.33 62.72 C 87.14 63.07 91.51 60.80 96.17 60.08 C 93.88 62.59 90.24 62.86 87.32 64.33 C 82.95 66.62 79.33 61.30 75.08 61.09 C 69.63 62.26 66.27 67.46 60.91 68.90 C 57.21 70.64 52.44 71.04 50.01 74.69 C 52.42 75.70 54.12 77.70 50.85 78.96 C 50.41 78.96 49.51 78.96 49.06 78.96 C 50.42 77.26 47.39 75.60 48.97 74.00 C 51.00 69.29 56.25 67.93 60.22 65.29 C 63.42 65.22 66.17 63.55 68.44 61.41 Z" />
</g>
<g id="#3c5c74ff">
<path fill="#3c5c74" opacity="1.00" d=" M 107.14 59.02 C 108.10 58.65 109.07 58.30 110.05 57.96 C 108.35 59.91 106.65 61.85 104.94 63.78 C 101.71 65.20 99.37 68.26 95.88 69.09 C 97.65 66.19 100.77 64.51 103.17 62.21 C 104.57 61.25 105.94 60.23 107.14 59.02 Z" />
</g>
<g id="#8aaaacff">
<path fill="#8aaaac" opacity="1.00" d=" M 97.78 62.92 C 100.53 60.89 103.93 60.06 107.14 59.02 C 105.94 60.23 104.57 61.25 103.17 62.21 C 101.38 62.52 99.59 62.85 97.78 62.92 Z" />
</g>
<g id="#92e1f6ff">
<path fill="#92e1f6" opacity="1.00" d=" M 36.04 61.88 C 37.28 61.17 38.52 60.45 39.82 59.85 C 41.43 61.80 42.92 63.84 43.84 66.22 C 42.73 69.28 44.68 74.80 40.41 75.48 C 39.98 76.67 39.67 77.90 39.30 79.10 C 36.62 76.24 31.89 68.96 28.03 74.22 C 27.79 73.97 27.29 73.46 27.04 73.20 C 27.53 71.76 27.88 70.27 27.85 68.74 C 28.82 68.36 29.83 68.18 30.88 68.19 C 33.54 72.75 41.89 69.19 40.89 64.24 C 39.51 61.10 35.11 65.10 33.96 63.13 C 34.48 62.81 35.52 62.19 36.04 61.88 Z" />
</g>
<g id="#8dd3f0ff">
<path fill="#8dd3f0" opacity="1.00" d=" M 24.10 62.00 C 25.99 61.69 27.87 62.10 29.17 63.56 C 27.34 64.07 25.67 64.96 23.97 65.77 C 23.98 64.51 24.03 63.25 24.10 62.00 Z" />
</g>
<g id="#7fc6e9ff">
<path fill="#7fc6e9" opacity="1.00" d=" M 46.26 65.33 C 48.92 64.76 51.26 63.36 53.31 61.61 C 53.81 61.89 54.80 62.45 55.30 62.73 C 52.35 64.63 49.29 66.38 46.43 68.42 C 46.93 73.86 43.74 78.28 42.25 83.22 L 41.30 82.99 C 40.67 81.68 39.98 80.40 39.30 79.10 C 39.67 77.90 39.98 76.67 40.41 75.48 C 44.68 74.80 42.73 69.28 43.84 66.22 C 44.45 66.00 45.66 65.55 46.26 65.33 Z" />
</g>
<g id="#73b5dcff">
<path fill="#73b5dc" opacity="1.00" d=" M 46.43 68.42 C 49.29 66.38 52.35 64.63 55.30 62.73 L 56.15 63.07 C 55.56 67.00 49.96 67.12 48.67 70.68 C 47.30 73.95 46.06 77.58 46.93 81.15 L 46.97 82.10 C 45.99 81.78 45.00 81.47 44.01 81.18 C 45.90 90.17 43.59 85.81 42.21 83.98 L 42.25 83.22 C 43.74 78.28 46.93 73.86 46.43 68.42 Z" />
</g>
<g id="#68a6ceff">
<path fill="#68a6ce" opacity="1.00" d=" M 56.15 63.07 L 56.79 63.32 C 57.94 63.97 59.08 64.63 60.22 65.29 C 56.25 67.93 51.00 69.29 48.97 74.00 C 47.39 75.60 50.42 77.26 49.06 78.96 C 48.34 79.69 47.64 80.41 46.93 81.15 C 46.06 77.58 47.30 73.95 48.67 70.68 C 49.96 67.12 55.56 67.00 56.15 63.07 Z" />
</g>
<g id="#72b1cbf0">
<path fill="#72b1cb" opacity="0.94" d=" M 23.97 65.77 C 25.67 64.96 27.34 64.07 29.17 63.56 C 29.62 63.93 30.53 64.65 30.98 65.02 L 31.33 65.69 C 27.16 64.72 23.00 67.51 21.04 71.08 C 16.76 74.31 20.53 65.15 22.81 65.35 C 23.10 65.46 23.68 65.66 23.97 65.77 Z" />
</g>
<g id="#4b83b1fe">
<path fill="#4b83b1" opacity="1.00" d=" M 62.00 71.93 C 67.59 71.04 71.02 65.97 76.09 64.01 C 83.40 65.10 89.48 69.95 95.88 73.36 C 94.05 74.73 92.04 75.83 90.26 77.26 C 90.33 78.64 90.47 81.39 90.54 82.77 C 87.70 85.73 83.55 83.76 80.11 85.12 C 79.70 86.59 80.29 87.27 81.91 87.16 C 81.76 88.27 80.79 88.42 78.99 87.61 C 77.29 86.95 75.23 86.47 74.41 84.65 C 73.46 83.16 72.82 79.81 70.42 81.47 C 67.57 84.57 64.27 80.57 60.92 81.87 L 60.12 81.77 C 55.70 80.08 51.38 81.91 46.97 82.10 L 46.93 81.15 C 47.64 80.41 48.34 79.69 49.06 78.96 C 49.51 78.96 50.41 78.96 50.85 78.96 C 52.91 78.79 55.45 79.58 57.02 77.83 C 56.53 76.23 55.56 74.83 54.97 73.26 C 57.32 72.87 59.67 72.42 62.00 71.93 M 72.09 73.42 C 70.39 73.15 69.17 75.12 68.22 76.30 C 68.40 77.81 70.45 76.66 71.00 75.96 C 71.01 77.41 72.58 78.40 73.93 77.92 C 77.76 76.93 81.15 74.00 85.31 75.31 C 83.49 76.62 81.62 77.85 79.91 79.31 C 78.26 79.86 75.92 80.91 75.90 82.96 C 77.53 81.98 80.07 81.76 81.01 80.08 C 84.11 77.73 87.47 75.78 90.78 73.75 C 91.93 71.03 89.70 72.59 88.39 73.31 C 86.76 69.25 81.22 70.53 77.94 69.04 C 75.25 68.83 73.96 71.95 72.09 73.42 Z" />
</g>
<g id="#5288b1f8">
<path fill="#5288b1" opacity="0.97" d=" M 21.04 71.08 C 23.00 67.51 27.16 64.72 31.33 65.69 C 32.11 66.66 31.97 67.49 30.88 68.19 C 29.83 68.18 28.82 68.36 27.85 68.74 C 25.61 69.60 23.38 70.51 21.04 71.08 Z" />
</g>
<g id="#5193c5ff">
<path fill="#5193c5" opacity="1.00" d=" M 72.09 73.42 C 73.96 71.95 75.25 68.83 77.94 69.04 C 81.22 70.53 86.76 69.25 88.39 73.31 C 87.39 74.01 86.37 74.69 85.31 75.31 C 81.15 74.00 77.76 76.93 73.93 77.92 C 72.58 78.40 71.01 77.41 71.00 75.96 C 71.37 75.12 71.73 74.27 72.09 73.42 Z" />
</g>
<g id="#d4d7b2ff">
<path fill="#d4d7b2" opacity="1.00" d=" M 108.30 75.04 C 107.16 73.69 105.15 72.06 107.58 70.88 C 107.77 71.34 108.15 72.27 108.34 72.74 C 116.37 72.77 124.20 74.76 132.19 75.22 C 124.35 76.54 116.15 76.47 108.30 75.04 Z" />
</g>
<g id="#e9e9cbf5">
<path fill="#e9e9cb" opacity="0.96" d=" M 107.58 70.88 C 116.57 70.97 125.53 72.31 134.24 74.51 C 133.73 74.69 132.70 75.04 132.19 75.22 C 124.20 74.76 116.37 72.77 108.34 72.74 C 108.15 72.27 107.77 71.34 107.58 70.88 Z" />
</g>
<g id="#1b242dff">
<path fill="#1b242d" opacity="1.00" d=" M 28.03 74.22 C 31.89 68.96 36.62 76.24 39.30 79.10 C 39.98 80.40 40.67 81.68 41.30 82.99 C 36.13 84.72 28.84 79.66 24.93 85.07 C 23.40 81.46 27.35 77.76 28.03 74.22 Z" />
</g>
<g id="#304f6aff">
<path fill="#304f6a" opacity="1.00" d=" M 88.39 73.31 C 89.70 72.59 91.93 71.03 90.78 73.75 C 87.47 75.78 84.11 77.73 81.01 80.08 C 80.74 79.89 80.19 79.50 79.91 79.31 C 81.62 77.85 83.49 76.62 85.31 75.31 C 86.37 74.69 87.39 74.01 88.39 73.31 Z" />
</g>
<g id="#73b4cdf7">
<path fill="#73b4cd" opacity="0.97" d=" M 22.40 81.34 C 23.83 78.71 24.45 74.43 27.04 73.20 C 27.29 73.46 27.79 73.97 28.03 74.22 C 27.35 77.76 23.40 81.46 24.93 85.07 C 25.93 86.78 28.38 86.82 30.14 87.24 C 29.85 87.44 29.27 87.85 28.97 88.06 C 25.11 88.95 19.75 86.40 22.40 81.34 Z" />
</g>
<g id="#101e2865">
<path fill="#101e28" opacity="0.40" d=" M 68.22 76.30 C 69.17 75.12 70.39 73.15 72.09 73.42 C 71.73 74.27 71.37 75.12 71.00 75.96 C 70.45 76.66 68.40 77.81 68.22 76.30 Z" />
</g>
<g id="#acb7a1fa">
<path fill="#acb7a1" opacity="0.98" d=" M 134.24 74.51 C 135.24 74.21 138.21 75.18 136.28 76.30 C 132.19 78.04 127.51 79.21 123.00 78.93 C 120.01 78.61 116.89 77.37 113.97 78.50 C 113.29 78.71 111.92 79.13 111.24 79.35 C 109.64 79.07 106.43 78.53 104.83 78.25 C 105.65 77.52 106.47 76.77 107.27 76.01 C 107.53 75.77 108.04 75.29 108.30 75.04 C 116.15 76.47 124.35 76.54 132.19 75.22 C 132.70 75.04 133.73 74.69 134.24 74.51 Z" />
</g>
<g id="#799dacff">
<path fill="#799dac" opacity="1.00" d=" M 111.24 79.35 C 109.03 80.16 101.29 81.62 104.83 78.25 C 106.43 78.53 109.64 79.07 111.24 79.35 Z" />
</g>
<g id="#93aa9df7">
<path fill="#93aa9d" opacity="0.97" d=" M 113.97 78.50 C 116.89 77.37 120.01 78.61 123.00 78.93 C 121.87 81.63 116.02 80.38 113.12 81.11 C 113.90 80.33 115.17 79.58 113.97 78.50 Z" />
</g>
<g id="#3c668dff">
<path fill="#3c668d" opacity="1.00" d=" M 75.90 82.96 C 75.92 80.91 78.26 79.86 79.91 79.31 C 80.19 79.50 80.74 79.89 81.01 80.08 C 80.07 81.76 77.53 81.98 75.90 82.96 Z" />
</g>
<g id="#609bbff9">
<path fill="#609bbf" opacity="0.98" d=" M 44.01 81.18 C 45.00 81.47 45.99 81.78 46.97 82.10 L 46.74 82.89 C 46.43 83.88 46.19 84.90 46.03 85.93 C 46.07 88.36 44.14 89.48 41.91 89.06 C 39.98 89.02 38.04 88.92 36.13 89.21 C 35.63 89.31 34.63 89.52 34.13 89.63 C 32.84 89.24 30.26 88.45 28.97 88.06 C 29.27 87.85 29.85 87.44 30.14 87.24 C 30.55 87.24 31.37 87.24 31.78 87.24 C 34.74 87.07 38.48 89.21 41.20 87.22 C 42.01 86.41 42.34 85.33 42.21 83.98 C 43.59 85.81 45.90 90.17 44.01 81.18 Z" />
</g>
<g id="#6e8a89ff">
<path fill="#6e8a89" opacity="1.00" d=" M 46.97 82.10 C 51.38 81.91 55.70 80.08 60.12 81.77 C 55.72 82.66 51.23 83.23 46.74 82.89 L 46.97 82.10 Z" />
</g>
<g id="#568db6fd">
<path fill="#568db6" opacity="1.00" d=" M 60.92 81.87 C 64.27 80.57 67.57 84.57 70.42 81.47 C 72.82 79.81 73.46 83.16 74.41 84.65 C 75.23 86.47 77.29 86.95 78.99 87.61 C 77.23 89.04 79.10 90.76 79.56 92.35 C 83.09 99.16 77.99 105.61 75.87 111.85 C 74.60 112.60 73.32 113.30 72.03 114.01 C 71.99 112.37 71.93 110.73 71.84 109.09 C 72.59 108.38 73.35 107.68 74.12 106.99 C 75.92 106.92 78.64 105.40 77.86 103.29 C 75.97 103.18 74.98 105.58 74.12 106.99 L 73.16 107.07 C 72.18 104.91 71.34 102.67 70.04 100.67 C 71.14 99.90 72.22 99.10 73.19 98.19 C 72.11 98.36 71.02 98.53 69.94 98.70 C 68.43 96.06 67.07 93.33 65.42 90.77 C 64.81 89.74 64.13 88.74 63.46 87.75 C 62.67 85.76 61.68 83.86 60.92 81.87 Z" />
</g>
<g id="#212f37ff">
<path fill="#212f37" opacity="1.00" d=" M 24.93 85.07 C 28.84 79.66 36.13 84.72 41.30 82.99 L 42.25 83.22 L 42.21 83.98 C 42.34 85.33 42.01 86.41 41.20 87.22 C 38.06 87.18 34.92 87.10 31.78 87.24 C 31.37 87.24 30.55 87.24 30.14 87.24 C 28.38 86.82 25.93 86.78 24.93 85.07 Z" />
</g>
<g id="#96c2b3ff">
<path fill="#96c2b3" opacity="1.00" d=" M 46.74 82.89 C 51.23 83.23 55.72 82.66 60.12 81.77 L 60.92 81.87 C 61.68 83.86 62.67 85.76 63.46 87.75 C 63.69 93.32 56.73 93.05 52.97 92.17 C 53.37 90.51 53.89 88.87 53.98 87.15 C 51.45 86.16 48.71 86.16 46.03 85.93 C 46.19 84.90 46.43 83.88 46.74 82.89 Z" />
</g>
<g id="#9cd1bfff">
<path fill="#9cd1bf" opacity="1.00" d=" M 46.03 85.93 C 48.71 86.16 51.45 86.16 53.98 87.15 C 53.89 88.87 53.37 90.51 52.97 92.17 L 52.76 92.95 C 49.55 94.04 45.54 94.30 43.31 91.24 C 42.96 90.70 42.26 89.60 41.91 89.06 C 44.14 89.48 46.07 88.36 46.03 85.93 Z" />
</g>
<g id="#4d7c98ff">
<path fill="#4d7c98" opacity="1.00" d=" M 31.78 87.24 C 34.92 87.10 38.06 87.18 41.20 87.22 C 38.48 89.21 34.74 87.07 31.78 87.24 Z" />
</g>
<g id="#748a7dff">
<path fill="#748a7d" opacity="1.00" d=" M 63.46 87.75 C 64.13 88.74 64.81 89.74 65.42 90.77 C 64.62 91.50 63.81 92.22 63.01 92.95 C 59.92 93.40 56.83 93.83 53.75 94.23 C 53.50 93.91 53.00 93.27 52.76 92.95 L 52.97 92.17 C 56.73 93.05 63.69 93.32 63.46 87.75 Z" />
</g>
<g id="#c0fffeff">
<path fill="#c0fffe" opacity="1.00" d=" M 34.13 89.63 C 34.63 89.52 35.63 89.31 36.13 89.21 L 36.14 89.99 C 35.59 91.78 34.94 93.53 34.28 95.28 C 34.01 93.41 33.90 91.51 34.13 89.63 Z" />
</g>
<g id="#b1d1b7ff">
<path fill="#b1d1b7" opacity="1.00" d=" M 36.13 89.21 C 38.04 88.92 39.98 89.02 41.91 89.06 C 42.26 89.60 42.96 90.70 43.31 91.24 C 41.88 91.71 40.41 92.00 38.93 92.23 C 37.96 91.53 37.06 90.75 36.14 89.99 L 36.13 89.21 Z" />
</g>
<g id="#e6eec6fd">
<path fill="#e6eec6" opacity="1.00" d=" M 36.14 89.99 C 37.06 90.75 37.96 91.53 38.93 92.23 C 39.86 92.88 40.86 93.42 41.85 93.96 C 40.95 96.19 41.88 98.49 42.12 100.74 C 41.28 100.87 39.60 101.14 38.76 101.27 C 40.52 102.55 42.65 102.94 44.75 103.23 C 44.46 106.08 44.75 109.68 41.04 109.20 C 42.03 110.01 43.08 110.75 43.97 111.67 C 43.07 112.10 42.16 112.52 41.25 112.94 C 36.46 108.53 33.01 101.90 34.28 95.28 C 34.94 93.53 35.59 91.78 36.14 89.99 Z" />
</g>
<g id="#8db09bff">
<path fill="#8db09b" opacity="1.00" d=" M 43.31 91.24 C 45.54 94.30 49.55 94.04 52.76 92.95 C 53.00 93.27 53.50 93.91 53.75 94.23 L 54.23 94.94 C 50.05 95.21 45.96 94.51 41.85 93.96 C 40.86 93.42 39.86 92.88 38.93 92.23 C 40.41 92.00 41.88 91.71 43.31 91.24 Z" />
</g>
<g id="#a0b19fff">
<path fill="#a0b19f" opacity="1.00" d=" M 65.42 90.77 C 67.07 93.33 68.43 96.06 69.94 98.70 C 65.91 97.18 64.64 102.20 60.82 102.02 C 60.99 98.86 62.61 96.06 63.01 92.95 C 63.81 92.22 64.62 91.50 65.42 90.77 Z" />
</g>
<g id="#b1c0a7fe">
<path fill="#b1c0a7" opacity="1.00" d=" M 53.75 94.23 C 56.83 93.83 59.92 93.40 63.01 92.95 C 62.61 96.06 60.99 98.86 60.82 102.02 C 60.31 102.08 59.31 102.21 58.80 102.27 C 55.90 100.83 53.13 102.00 50.69 103.76 C 53.80 103.90 56.95 103.93 60.07 104.09 C 58.73 105.78 57.19 107.32 55.99 109.12 L 55.44 109.88 C 51.85 110.10 50.92 114.42 48.22 116.28 C 45.92 115.84 41.94 115.03 41.25 112.94 C 42.16 112.52 43.07 112.10 43.97 111.67 C 43.08 110.75 42.03 110.01 41.04 109.20 C 44.75 109.68 44.46 106.08 44.75 103.23 C 42.65 102.94 40.52 102.55 38.76 101.27 C 39.60 101.14 41.28 100.87 42.12 100.74 C 45.11 101.10 48.14 104.24 51.04 102.08 C 53.37 100.45 54.57 97.59 55.98 95.17 C 55.54 95.11 54.67 95.00 54.23 94.94 L 53.75 94.23 Z" />
</g>
<g id="#b9dbbeff">
<path fill="#b9dbbe" opacity="1.00" d=" M 41.85 93.96 C 45.96 94.51 50.05 95.21 54.23 94.94 C 54.67 95.00 55.54 95.11 55.98 95.17 C 54.57 97.59 53.37 100.45 51.04 102.08 C 48.14 104.24 45.11 101.10 42.12 100.74 C 41.88 98.49 40.95 96.19 41.85 93.96 Z" />
</g>
<g id="#717e76ff">
<path fill="#717e76" opacity="1.00" d=" M 60.82 102.02 C 64.64 102.20 65.91 97.18 69.94 98.70 C 71.02 98.53 72.11 98.36 73.19 98.19 C 72.22 99.10 71.14 99.90 70.04 100.67 C 66.36 101.59 62.73 103.50 58.80 102.27 C 59.31 102.21 60.31 102.08 60.82 102.02 Z" />
</g>
<g id="#9ba898ff">
<path fill="#9ba898" opacity="1.00" d=" M 50.69 103.76 C 53.13 102.00 55.90 100.83 58.80 102.27 C 62.73 103.50 66.36 101.59 70.04 100.67 C 71.34 102.67 72.18 104.91 73.16 107.07 C 71.31 107.39 69.39 107.51 67.62 108.19 C 63.99 109.89 59.85 110.19 55.99 109.12 C 57.19 107.32 58.73 105.78 60.07 104.09 C 56.95 103.93 53.80 103.90 50.69 103.76 Z" />
</g>
<g id="#3e6786ff">
<path fill="#3e6786" opacity="1.00" d=" M 74.12 106.99 C 74.98 105.58 75.97 103.18 77.86 103.29 C 78.64 105.40 75.92 106.92 74.12 106.99 Z" />
</g>
<g id="#5d6b6bff">
<path fill="#5d6b6b" opacity="1.00" d=" M 67.62 108.19 C 69.39 107.51 71.31 107.39 73.16 107.07 L 74.12 106.99 C 73.35 107.68 72.59 108.38 71.84 109.09 C 70.41 108.89 69.00 108.62 67.62 108.19 Z" />
</g>
<g id="#81928afe">
<path fill="#81928a" opacity="1.00" d=" M 55.99 109.12 C 59.85 110.19 63.99 109.89 67.62 108.19 C 69.00 108.62 70.41 108.89 71.84 109.09 C 71.93 110.73 71.99 112.37 72.03 114.01 C 71.69 114.23 71.01 114.65 70.67 114.87 C 69.43 115.32 68.20 115.80 66.95 116.22 L 66.20 116.15 C 62.59 114.80 58.91 116.59 55.39 117.38 C 55.20 117.76 54.83 118.52 54.65 118.90 C 53.42 118.67 51.16 118.51 51.00 117.01 C 56.42 115.01 61.78 112.85 67.35 111.29 C 63.16 111.63 59.19 111.16 55.44 109.88 L 55.99 109.12 Z" />
</g>
<g id="#97a393fe">
<path fill="#97a393" opacity="1.00" d=" M 48.22 116.28 C 50.92 114.42 51.85 110.10 55.44 109.88 C 59.19 111.16 63.16 111.63 67.35 111.29 C 61.78 112.85 56.42 115.01 51.00 117.01 C 49.13 117.42 48.20 117.17 48.22 116.28 Z" />
</g>
<g id="#59afd6f7">
<path fill="#59afd6" opacity="0.97" d=" M 72.03 114.01 C 73.32 113.30 74.60 112.60 75.87 111.85 C 80.82 117.37 84.01 124.78 86.03 131.98 C 89.14 140.67 85.51 150.18 79.78 156.79 C 79.36 156.87 78.50 157.03 78.07 157.11 C 81.39 151.97 85.41 146.74 85.39 140.31 C 86.36 135.81 85.01 130.53 81.10 127.84 C 78.75 122.56 73.42 119.77 70.67 114.87 C 71.01 114.65 71.69 114.23 72.03 114.01 Z" />
</g>
<g id="#678689fd">
<path fill="#678689" opacity="1.00" d=" M 55.39 117.38 C 58.91 116.59 62.59 114.80 66.20 116.15 C 64.51 118.03 62.08 118.83 59.83 119.80 C 59.34 120.00 58.36 120.41 57.87 120.61 L 57.16 120.83 C 56.08 120.44 55.25 119.80 54.65 118.90 C 54.83 118.52 55.20 117.76 55.39 117.38 Z" />
</g>
<g id="#50a3ccff">
<path fill="#50a3cc" opacity="1.00" d=" M 66.95 116.22 C 68.20 115.80 69.43 115.32 70.67 114.87 C 73.42 119.77 78.75 122.56 81.10 127.84 L 80.02 128.03 C 79.76 127.72 79.23 127.10 78.97 126.79 C 75.88 122.27 69.57 121.16 66.95 116.22 Z" />
</g>
<g id="#4c94beff">
<path fill="#4c94be" opacity="1.00" d=" M 66.20 116.15 L 66.95 116.22 C 69.57 121.16 75.88 122.27 78.97 126.79 C 78.40 127.09 77.27 127.70 76.70 128.00 C 75.03 126.53 73.94 124.50 72.21 123.12 C 68.55 120.60 64.24 119.73 59.83 119.80 C 62.08 118.83 64.51 118.03 66.20 116.15 Z" />
</g>
<g id="#64a1caff">
<path fill="#64a1ca" opacity="1.00" d=" M 57.87 120.61 C 58.36 120.41 59.34 120.00 59.83 119.80 C 64.24 119.73 68.55 120.60 72.21 123.12 C 71.17 126.08 66.54 125.21 65.65 128.62 C 63.78 130.56 62.05 132.65 61.06 135.19 C 61.01 133.77 60.97 132.36 60.93 130.94 C 61.22 130.48 61.79 129.55 62.08 129.09 C 63.43 126.83 66.49 125.15 65.96 122.17 C 63.39 121.14 60.59 120.97 57.87 120.61 Z" />
</g>
<g id="#6ab0dbfe">
<path fill="#6ab0db" opacity="1.00" d=" M 57.16 120.83 L 57.87 120.61 C 60.59 120.97 63.39 121.14 65.96 122.17 C 66.49 125.15 63.43 126.83 62.08 129.09 C 62.26 127.76 62.49 126.45 62.62 125.12 C 61.25 123.30 58.91 122.79 56.97 121.82 L 57.16 120.83 Z" />
</g>
<g id="#70c3f0fe">
<path fill="#70c3f0" opacity="1.00" d=" M 54.67 123.44 C 55.24 123.03 56.40 122.22 56.97 121.82 C 58.91 122.79 61.25 123.30 62.62 125.12 C 62.49 126.45 62.26 127.76 62.08 129.09 C 61.79 129.55 61.22 130.48 60.93 130.94 L 60.03 131.05 C 61.39 126.68 56.86 125.99 54.67 123.44 Z" />
</g>
<g id="#7fd4f4fd">
<path fill="#7fd4f4" opacity="1.00" d=" M 52.42 125.87 C 52.40 124.95 53.74 122.76 54.67 123.44 C 56.86 125.99 61.39 126.68 60.03 131.05 C 57.99 137.92 59.93 144.97 59.97 151.92 C 58.97 153.88 57.31 155.41 56.05 157.21 C 55.03 156.39 53.27 155.64 53.16 154.22 C 59.18 147.79 56.92 138.31 56.82 130.25 C 54.48 129.40 51.52 129.07 52.42 125.87 Z" />
</g>
<g id="#5f96bfff">
<path fill="#5f96bf" opacity="1.00" d=" M 72.21 123.12 C 73.94 124.50 75.03 126.53 76.70 128.00 C 78.59 130.97 79.04 134.53 80.15 137.82 C 80.92 142.57 78.07 149.31 72.94 150.09 C 71.10 147.75 74.37 147.07 75.71 145.69 C 77.68 142.79 76.89 139.07 76.91 135.76 C 76.28 136.87 75.80 138.05 75.28 139.21 C 75.23 136.14 74.81 132.78 72.19 130.77 C 70.77 128.53 67.92 129.04 65.65 128.62 C 66.54 125.21 71.17 126.08 72.21 123.12 Z" />
</g>
<g id="#8dedf9fc">
<path fill="#8dedf9" opacity="1.00" d=" M 52.42 125.87 C 51.52 129.07 54.48 129.40 56.82 130.25 C 56.92 138.31 59.18 147.79 53.16 154.22 C 47.70 146.71 45.12 133.36 52.42 125.87 Z" />
</g>
<g id="#4b81aeff">
<path fill="#4b81ae" opacity="1.00" d=" M 76.70 128.00 C 77.27 127.70 78.40 127.09 78.97 126.79 C 79.23 127.10 79.76 127.72 80.02 128.03 C 84.29 131.95 86.70 140.90 81.14 144.26 C 80.74 142.16 83.59 137.93 80.15 137.82 C 79.04 134.53 78.59 130.97 76.70 128.00 Z" />
</g>
<g id="#5b97c2fd">
<path fill="#5b97c2" opacity="1.00" d=" M 80.02 128.03 L 81.10 127.84 C 85.01 130.53 86.36 135.81 85.39 140.31 C 85.41 146.74 81.39 151.97 78.07 157.11 C 76.37 160.41 72.36 160.59 69.23 161.69 C 68.12 161.35 67.02 161.01 65.92 160.67 C 69.53 158.15 73.48 155.90 75.99 152.14 C 75.46 152.10 74.42 152.02 73.89 151.98 C 76.69 149.81 79.34 147.34 81.14 144.26 C 86.70 140.90 84.29 131.95 80.02 128.03 Z" />
</g>
<g id="#47708cff">
<path fill="#47708c" opacity="1.00" d=" M 61.06 135.19 C 62.05 132.65 63.78 130.56 65.65 128.62 C 67.92 129.04 70.77 128.53 72.19 130.77 L 71.08 130.82 C 68.69 130.12 65.88 130.00 64.27 132.28 C 61.99 136.57 62.36 142.26 65.15 146.24 C 66.58 149.07 69.90 150.37 72.94 150.09 C 78.07 149.31 80.92 142.57 80.15 137.82 C 83.59 137.93 80.74 142.16 81.14 144.26 C 79.34 147.34 76.69 149.81 73.89 151.98 C 68.22 152.70 64.25 148.49 61.96 143.83 C 61.44 140.98 61.14 138.08 61.06 135.19 Z" />
</g>
<g id="#6eadd4ff">
<path fill="#6eadd4" opacity="1.00" d=" M 64.27 132.28 C 65.88 130.00 68.69 130.12 71.08 130.82 C 71.37 131.31 71.94 132.31 72.23 132.80 C 71.57 136.15 69.26 138.22 66.08 139.18 C 66.44 141.65 67.21 144.26 65.15 146.24 C 62.36 142.26 61.99 136.57 64.27 132.28 Z" />
</g>
<g id="#76b7dbfd">
<path fill="#76b7db" opacity="1.00" d=" M 60.03 131.05 L 60.93 130.94 C 60.97 132.36 61.01 133.77 61.06 135.19 C 61.14 138.08 61.44 140.98 61.96 143.83 C 62.00 147.41 64.02 150.48 64.88 153.86 C 63.59 155.93 62.21 157.95 61.09 160.12 C 58.92 160.45 56.81 159.22 56.05 157.21 C 57.31 155.41 58.97 153.88 59.97 151.92 C 59.93 144.97 57.99 137.92 60.03 131.05 Z" />
</g>
<g id="#527fa1ff">
<path fill="#527fa1" opacity="1.00" d=" M 71.08 130.82 L 72.19 130.77 C 74.81 132.78 75.23 136.14 75.28 139.21 C 75.12 142.30 69.23 145.20 68.88 141.33 C 74.24 143.55 75.37 135.97 72.23 132.80 C 71.94 132.31 71.37 131.31 71.08 130.82 Z" />
</g>
<g id="#669ec5ff">
<path fill="#669ec5" opacity="1.00" d=" M 72.23 132.80 C 75.37 135.97 74.24 143.55 68.88 141.33 C 69.23 145.20 75.12 142.30 75.28 139.21 C 75.80 138.05 76.28 136.87 76.91 135.76 C 76.89 139.07 77.68 142.79 75.71 145.69 C 74.37 147.07 71.10 147.75 72.94 150.09 C 69.90 150.37 66.58 149.07 65.15 146.24 C 67.21 144.26 66.44 141.65 66.08 139.18 C 69.26 138.22 71.57 136.15 72.23 132.80 Z" />
</g>
<g id="#6ca7cdfe">
<path fill="#6ca7cd" opacity="1.00" d=" M 61.96 143.83 C 64.25 148.49 68.22 152.70 73.89 151.98 C 74.42 152.02 75.46 152.10 75.99 152.14 C 73.48 155.90 69.53 158.15 65.92 160.67 C 67.02 161.01 68.12 161.35 69.23 161.69 C 66.72 162.16 62.31 162.02 61.09 160.12 C 62.21 157.95 63.59 155.93 64.88 153.86 C 64.02 150.48 62.00 147.41 61.96 143.83 Z" />
</g>
</svg>
