<?xml version="1.0" encoding="UTF-8" ?>
<!DOCTYPE svg PUBLIC "-//W3C//DTD SVG 1.1//EN" "http://www.w3.org/Graphics/SVG/1.1/DTD/svg11.dtd">
<svg width="141pt" height="97pt" viewBox="0 0 141 97" version="1.1" xmlns="http://www.w3.org/2000/svg">
<g id="#59584495">
<path fill="#595844" opacity="0.58" d=" M 96.27 33.11 C 96.55 31.42 97.45 31.15 98.96 32.28 C 98.18 32.95 97.28 33.22 96.27 33.11 Z" />
</g>
<g id="#ffcfb5ff">
<path fill="#ffcfb5" opacity="1.00" d=" M 98.96 32.28 C 99.50 32.19 100.57 32.00 101.11 31.91 C 100.54 33.29 99.95 34.67 99.36 36.04 C 97.44 36.50 95.48 36.91 93.70 37.78 C 93.37 39.04 93.21 40.34 93.00 41.63 C 98.45 40.55 103.72 42.68 109.07 43.38 C 103.50 44.45 97.49 43.35 92.32 46.15 C 91.88 45.90 91.00 45.41 90.56 45.16 C 90.40 41.69 90.74 38.10 93.44 35.60 C 93.38 35.10 93.27 34.09 93.21 33.58 C 94.21 33.30 95.23 33.15 96.27 33.11 C 97.28 33.22 98.18 32.95 98.96 32.28 Z" />
</g>
<g id="#fffffcff">
<path fill="#fffffc" opacity="1.00" d=" M 101.11 31.91 C 105.75 32.19 110.46 31.12 115.04 32.28 C 119.38 33.33 124.36 33.66 127.61 37.11 C 129.26 39.08 131.85 39.61 134.12 40.53 C 133.87 40.77 133.37 41.24 133.12 41.47 C 132.39 41.32 130.92 41.01 130.19 40.85 C 126.85 40.32 125.83 35.46 122.02 36.26 C 118.64 35.70 115.80 37.41 113.71 39.92 C 109.02 38.27 103.92 38.11 99.36 36.04 C 99.95 34.67 100.54 33.29 101.11 31.91 Z" />
</g>
<g id="#f5b190f9">
<path fill="#f5b190" opacity="0.98" d=" M 88.02 35.77 C 89.72 34.98 91.48 34.32 93.21 33.58 C 93.27 34.09 93.38 35.10 93.44 35.60 C 90.74 38.10 90.40 41.69 90.56 45.16 C 87.69 43.60 88.30 40.63 89.11 38.00 C 88.84 37.44 88.29 36.33 88.02 35.77 Z" />
</g>
<g id="#ff9776ff">
<path fill="#ff9776" opacity="1.00" d=" M 82.83 39.76 C 84.57 38.45 86.24 37.04 88.02 35.77 C 88.29 36.33 88.84 37.44 89.11 38.00 C 88.30 40.63 87.69 43.60 90.56 45.16 C 91.00 45.41 91.88 45.90 92.32 46.15 C 92.29 46.56 92.23 47.37 92.20 47.78 C 93.79 47.88 95.38 47.98 96.97 48.10 C 96.51 48.58 96.04 49.05 95.57 49.51 C 92.26 48.27 88.78 48.85 85.45 49.66 C 84.79 49.71 83.47 49.81 82.81 49.86 C 82.25 47.07 84.11 44.71 84.77 42.13 C 84.15 41.31 83.51 40.52 82.83 39.76 Z" />
</g>
<g id="#ffe8d9ff">
<path fill="#ffe8d9" opacity="1.00" d=" M 93.70 37.78 C 95.48 36.91 97.44 36.50 99.36 36.04 C 103.92 38.11 109.02 38.27 113.71 39.92 C 112.28 41.21 110.72 42.37 109.07 43.38 C 103.72 42.68 98.45 40.55 93.00 41.63 C 93.21 40.34 93.37 39.04 93.70 37.78 Z" />
</g>
<g id="#bd958cff">
<path fill="#bd958c" opacity="1.00" d=" M 113.71 39.92 C 115.80 37.41 118.64 35.70 122.02 36.26 C 125.83 35.46 126.85 40.32 130.19 40.85 C 130.92 41.01 132.39 41.32 133.12 41.47 C 129.94 44.36 126.03 46.21 122.13 47.89 C 122.40 47.35 122.94 46.27 123.21 45.73 C 119.13 43.44 114.53 44.38 110.60 46.47 C 108.62 46.32 106.63 46.16 104.65 46.07 C 101.91 45.64 99.22 46.57 96.97 48.10 C 95.38 47.98 93.79 47.88 92.20 47.78 C 92.23 47.37 92.29 46.56 92.32 46.15 C 97.49 43.35 103.50 44.45 109.07 43.38 C 110.72 42.37 112.28 41.21 113.71 39.92 Z" />
</g>
<g id="#fef5daff">
<path fill="#fef5da" opacity="1.00" d=" M 51.70 39.09 C 53.47 41.51 54.91 44.18 57.00 46.36 C 56.80 45.01 56.39 42.30 56.18 40.94 C 57.80 40.50 59.42 40.68 60.64 41.96 C 59.85 42.14 58.28 42.51 57.49 42.69 C 57.52 44.46 57.49 46.22 57.60 47.99 C 57.94 48.48 58.60 49.48 58.93 49.98 C 59.59 50.89 60.25 51.79 60.91 52.69 C 62.44 51.47 63.98 50.25 65.36 48.86 C 65.72 48.51 66.45 47.82 66.81 47.47 C 67.44 47.51 68.69 47.60 69.32 47.64 C 67.65 49.19 65.83 50.62 64.45 52.46 C 62.76 55.16 62.35 58.77 59.41 60.56 C 60.28 58.54 60.80 56.41 61.31 54.29 C 58.52 55.19 55.67 55.90 52.79 56.45 C 53.03 58.13 53.28 59.81 53.51 61.48 C 51.39 58.82 51.75 55.02 49.77 52.22 C 50.67 51.45 51.60 50.70 52.43 49.86 C 52.25 46.26 51.76 42.69 51.70 39.09 Z" />
</g>
<g id="#ff754fff">
<path fill="#ff754f" opacity="1.00" d=" M 80.76 41.45 C 81.28 41.03 82.31 40.19 82.83 39.76 C 83.51 40.52 84.15 41.31 84.77 42.13 C 84.11 44.71 82.25 47.07 82.81 49.86 C 83.47 49.81 84.79 49.71 85.45 49.66 C 88.38 49.93 91.32 50.25 94.27 50.16 C 92.31 51.09 90.27 51.83 88.29 52.73 C 85.40 51.53 82.81 52.71 80.88 54.95 L 80.20 54.44 C 79.48 53.79 78.78 53.13 78.08 52.47 C 77.02 51.46 75.92 50.50 74.81 49.54 C 76.77 46.82 78.76 44.13 80.76 41.45 Z" />
</g>
<g id="#fffef9ff">
<path fill="#fffef9" opacity="1.00" d=" M 78.88 43.55 C 77.44 41.76 79.63 41.47 80.76 41.45 C 78.76 44.13 76.77 46.82 74.81 49.54 C 75.92 50.50 77.02 51.46 78.08 52.47 C 75.93 53.58 74.09 55.14 72.44 56.91 C 72.01 57.00 71.15 57.17 70.72 57.26 C 68.79 57.30 66.76 58.06 66.05 60.02 C 65.38 62.56 66.35 65.11 67.20 67.48 L 67.28 67.76 C 63.19 70.97 57.33 69.06 53.13 72.13 C 48.42 74.64 49.82 80.72 50.44 85.02 C 49.85 85.12 48.68 85.33 48.09 85.43 C 45.76 82.69 43.89 79.60 42.56 76.25 C 39.28 78.59 36.70 83.55 32.15 82.74 C 34.08 78.37 36.95 74.24 41.27 71.97 L 41.78 71.67 C 42.74 72.42 43.45 73.71 44.72 73.97 C 45.28 73.43 46.39 72.33 46.95 71.78 C 47.26 72.03 47.89 72.52 48.20 72.77 C 48.96 68.86 50.02 63.71 46.53 60.79 L 45.80 61.45 C 44.93 62.28 44.06 63.12 43.24 63.99 C 44.35 59.58 46.54 55.44 49.77 52.22 C 51.75 55.02 51.39 58.82 53.51 61.48 C 55.54 61.87 57.74 61.98 59.41 60.56 C 62.35 58.77 62.76 55.16 64.45 52.46 C 65.83 50.62 67.65 49.19 69.32 47.64 L 70.16 47.81 C 71.49 48.18 72.77 48.70 74.06 49.19 C 75.53 47.20 77.16 45.33 78.88 43.55 Z" />
<path fill="#fffef9" opacity="1.00" d=" M 13.15 51.96 C 19.61 51.24 25.23 55.35 29.23 59.99 C 25.73 58.50 23.01 55.44 19.19 54.70 C 17.05 54.09 14.46 54.09 13.15 51.96 Z" />
</g>
<g id="#b27963ff">
<path fill="#b27963" opacity="1.00" d=" M 60.64 41.96 L 60.72 41.94 C 61.12 42.43 61.91 43.43 62.31 43.93 C 63.38 43.84 64.46 43.67 65.55 43.72 C 66.98 43.80 66.64 45.78 67.11 46.71 C 68.13 47.06 69.15 47.42 70.16 47.81 L 69.32 47.64 C 68.69 47.60 67.44 47.51 66.81 47.47 C 66.45 47.82 65.72 48.51 65.36 48.86 L 64.99 47.36 C 64.89 47.03 64.69 46.38 64.59 46.06 C 62.13 46.14 59.82 46.99 57.60 47.99 C 57.49 46.22 57.52 44.46 57.49 42.69 C 58.28 42.51 59.85 42.14 60.64 41.96 Z" />
<path fill="#b27963" opacity="1.00" d=" M 26.99 60.77 C 27.90 60.82 29.72 60.91 30.63 60.96 C 32.55 62.14 34.51 63.24 36.50 64.30 C 35.96 64.63 34.87 65.28 34.32 65.60 C 31.01 65.42 27.64 64.36 24.97 62.35 C 26.09 62.80 27.21 63.23 28.34 63.64 C 28.00 62.92 27.33 61.49 26.99 60.77 Z" />
</g>
<g id="#d2aca6ff">
<path fill="#d2aca6" opacity="1.00" d=" M 110.60 46.47 C 114.53 44.38 119.13 43.44 123.21 45.73 C 122.94 46.27 122.40 47.35 122.13 47.89 C 119.76 48.63 117.44 49.57 115.01 50.07 C 113.07 50.55 110.96 49.01 109.20 50.36 L 108.57 50.53 C 106.28 50.06 108.10 48.55 108.78 47.41 C 110.54 47.37 112.29 47.54 114.04 47.66 C 112.90 47.25 111.76 46.83 110.60 46.47 Z" />
</g>
<g id="#dd6747ff">
<path fill="#dd6747" opacity="1.00" d=" M 57.60 47.99 C 59.82 46.99 62.13 46.14 64.59 46.06 C 64.69 46.38 64.89 47.03 64.99 47.36 C 62.95 48.18 60.93 49.05 58.93 49.98 C 58.60 49.48 57.94 48.48 57.60 47.99 Z" />
</g>
<g id="#fefefcff">
<path fill="#fefefc" opacity="1.00" d=" M 104.65 46.07 C 106.63 46.16 108.62 46.32 110.60 46.47 C 111.76 46.83 112.90 47.25 114.04 47.66 C 112.29 47.54 110.54 47.37 108.78 47.41 C 108.10 48.55 106.28 50.06 108.57 50.53 C 109.20 50.96 110.46 51.83 111.09 52.26 C 111.47 52.83 112.22 53.98 112.60 54.56 C 111.40 54.32 110.20 54.07 109.00 53.81 C 107.54 53.46 106.05 53.21 104.57 52.97 C 104.28 52.93 103.69 52.85 103.40 52.80 C 101.25 52.51 99.10 52.12 96.92 52.10 C 94.84 52.18 93.74 54.23 92.37 55.47 C 90.88 57.05 88.77 57.74 86.80 58.53 L 86.06 57.58 C 85.79 57.23 85.24 56.52 84.96 56.17 C 86.06 55.01 87.15 53.84 88.29 52.73 C 90.27 51.83 92.31 51.09 94.27 50.16 L 95.57 49.51 C 96.04 49.05 96.51 48.58 96.97 48.10 C 99.63 47.87 102.18 47.05 104.65 46.07 Z" />
<path fill="#fefefc" opacity="1.00" d=" M 76.04 62.31 C 76.33 62.06 76.92 61.56 77.21 61.30 C 77.55 63.28 77.90 65.25 78.23 67.23 C 77.41 70.06 74.93 71.35 72.11 71.08 C 71.07 70.29 70.07 69.46 69.13 68.57 C 68.96 68.20 68.64 67.47 68.47 67.10 L 68.67 67.22 C 70.81 68.45 73.13 69.50 75.67 69.28 C 77.11 67.14 77.03 64.63 76.04 62.31 Z" />
</g>
<g id="#fa9e80ff">
<path fill="#fa9e80" opacity="1.00" d=" M 58.93 49.98 C 60.93 49.05 62.95 48.18 64.99 47.36 L 65.36 48.86 C 63.98 50.25 62.44 51.47 60.91 52.69 C 60.25 51.79 59.59 50.89 58.93 49.98 Z" />
</g>
<g id="#d76642ff">
<path fill="#d76642" opacity="1.00" d=" M 85.45 49.66 C 88.78 48.85 92.26 48.27 95.57 49.51 L 94.27 50.16 C 91.32 50.25 88.38 49.93 85.45 49.66 Z" />
</g>
<g id="#c5a198ff">
<path fill="#c5a198" opacity="1.00" d=" M 9.83 55.29 C 10.71 53.97 11.95 52.98 13.15 51.96 C 14.46 54.09 17.05 54.09 19.19 54.70 C 23.01 55.44 25.73 58.50 29.23 59.99 C 29.58 60.23 30.28 60.71 30.63 60.96 C 29.72 60.91 27.90 60.82 26.99 60.77 C 27.33 61.49 28.00 62.92 28.34 63.64 C 27.21 63.23 26.09 62.80 24.97 62.35 C 23.21 61.04 21.61 59.46 19.61 58.50 C 17.56 58.08 15.47 58.01 13.41 57.75 C 12.77 56.21 11.44 55.47 9.83 55.29 Z" />
</g>
<g id="#ff9a7bff">
<path fill="#ff9a7b" opacity="1.00" d=" M 80.88 54.95 C 82.81 52.71 85.40 51.53 88.29 52.73 C 87.15 53.84 86.06 55.01 84.96 56.17 C 85.24 56.52 85.79 57.23 86.06 57.58 C 85.46 57.81 84.24 58.26 83.64 58.49 C 83.55 58.06 83.38 57.21 83.29 56.78 C 82.49 56.16 81.69 55.55 80.88 54.95 Z" />
</g>
<g id="#ff875aff">
<path fill="#ff875a" opacity="1.00" d=" M 92.37 55.47 C 93.74 54.23 94.84 52.18 96.92 52.10 C 99.10 52.12 101.25 52.51 103.40 52.80 C 103.60 53.43 104.01 54.68 104.22 55.31 C 100.27 55.25 96.32 55.51 92.37 55.47 Z" />
</g>
<g id="#ffe9daff">
<path fill="#ffe9da" opacity="1.00" d=" M 111.09 52.26 C 112.38 53.16 113.60 54.16 114.81 55.18 L 114.74 55.68 C 114.69 56.01 114.61 56.68 114.56 57.01 C 115.00 57.70 115.44 58.38 115.91 59.05 C 110.85 59.17 105.92 60.32 101.03 61.51 C 102.79 63.29 104.62 65.00 106.53 66.62 C 106.06 67.03 105.13 67.86 104.66 68.27 C 102.61 67.10 100.39 65.54 97.89 66.14 C 95.56 66.53 92.88 68.06 90.74 66.32 C 88.18 64.82 88.19 61.62 87.55 59.07 C 88.42 59.71 89.28 60.35 90.15 61.00 C 93.81 60.41 97.32 59.16 100.97 58.53 C 104.76 58.20 108.58 58.55 112.37 58.08 C 111.28 56.63 110.19 55.18 109.00 53.81 C 110.20 54.07 111.40 54.32 112.60 54.56 C 112.22 53.98 111.47 52.83 111.09 52.26 Z" />
</g>
<g id="#f6ddd7ff">
<path fill="#f6ddd7" opacity="1.00" d=" M 72.44 56.91 C 74.09 55.14 75.93 53.58 78.08 52.47 C 78.78 53.13 79.48 53.79 80.20 54.44 C 77.86 55.67 78.19 58.55 77.43 60.71 C 75.80 59.40 74.17 58.09 72.44 56.91 Z" />
</g>
<g id="#d07c5aff">
<path fill="#d07c5a" opacity="1.00" d=" M 103.40 52.80 C 103.69 52.85 104.28 52.93 104.57 52.97 C 105.95 53.50 107.08 54.50 107.81 55.77 C 106.60 55.72 105.40 55.55 104.22 55.31 C 104.01 54.68 103.60 53.43 103.40 52.80 Z" />
</g>
<g id="#ffb696ff">
<path fill="#ffb696" opacity="1.00" d=" M 104.57 52.97 C 106.05 53.21 107.54 53.46 109.00 53.81 C 110.19 55.18 111.28 56.63 112.37 58.08 C 108.58 58.55 104.76 58.20 100.97 58.53 C 97.32 59.16 93.81 60.41 90.15 61.00 C 89.28 60.35 88.42 59.71 87.55 59.07 C 87.36 58.94 86.99 58.66 86.80 58.53 C 88.77 57.74 90.88 57.05 92.37 55.47 C 96.32 55.51 100.27 55.25 104.22 55.31 C 105.40 55.55 106.60 55.72 107.81 55.77 C 107.08 54.50 105.95 53.50 104.57 52.97 Z" />
</g>
<g id="#ffd2b7ff">
<path fill="#ffd2b7" opacity="1.00" d=" M 52.79 56.45 C 55.67 55.90 58.52 55.19 61.31 54.29 C 60.80 56.41 60.28 58.54 59.41 60.56 C 57.74 61.98 55.54 61.87 53.51 61.48 C 53.28 59.81 53.03 58.13 52.79 56.45 Z" />
</g>
<g id="#d6b5afff">
<path fill="#d6b5af" opacity="1.00" d=" M 77.43 60.71 C 78.19 58.55 77.86 55.67 80.20 54.44 L 80.88 54.95 C 81.69 55.55 82.49 56.16 83.29 56.78 C 83.38 57.21 83.55 58.06 83.64 58.49 C 83.75 59.17 83.83 59.86 83.84 60.55 C 81.48 66.37 81.18 73.09 77.03 78.08 C 73.93 82.54 68.67 84.46 64.60 87.81 C 71.73 88.37 78.80 84.51 82.32 78.32 C 84.95 74.53 84.79 69.77 85.08 65.38 C 85.70 66.26 86.30 67.15 86.89 68.06 C 88.22 77.86 81.62 87.62 72.47 90.95 L 72.33 89.68 C 66.86 89.78 60.35 90.71 55.85 86.95 C 55.73 82.61 60.30 80.88 63.40 79.02 L 62.10 79.12 C 63.41 77.94 64.61 76.65 65.81 75.36 C 67.48 75.28 69.41 75.33 70.58 73.91 C 70.26 72.09 69.66 70.33 69.13 68.57 C 70.07 69.46 71.07 70.29 72.11 71.08 L 70.65 71.21 C 72.61 71.80 74.78 72.95 76.81 71.89 C 78.57 71.19 80.14 68.75 78.23 67.23 C 77.90 65.25 77.55 63.28 77.21 61.30 L 77.43 60.71 Z" />
</g>
<g id="#ffffffff">
<path fill="#ffffff" opacity="1.00" d=" M 114.56 57.01 C 114.61 56.68 114.69 56.01 114.74 55.68 C 116.87 57.27 119.12 59.20 121.96 59.08 C 126.85 59.12 132.17 58.63 136.37 61.70 C 129.83 62.93 123.17 63.42 116.63 64.54 C 112.46 65.28 108.98 68.52 104.66 68.27 C 105.13 67.86 106.06 67.03 106.53 66.62 C 104.62 65.00 102.79 63.29 101.03 61.51 C 105.92 60.32 110.85 59.17 115.91 59.05 C 115.44 58.38 115.00 57.70 114.56 57.01 Z" />
</g>
<g id="#ff7f54ff">
<path fill="#ff7f54" opacity="1.00" d=" M 70.72 57.26 C 71.15 57.17 72.01 57.00 72.44 56.91 C 74.17 58.09 75.80 59.40 77.43 60.71 C 74.83 61.90 72.62 63.71 70.56 65.66 C 70.09 66.05 69.14 66.83 68.67 67.22 L 68.47 67.10 C 68.15 66.87 67.50 66.41 67.18 66.18 C 66.69 64.09 65.67 61.95 66.30 59.77 C 67.13 58.08 69.17 57.94 70.72 57.26 Z" />
</g>
<g id="#d98061ff">
<path fill="#d98061" opacity="1.00" d=" M 46.53 60.79 C 50.02 63.71 48.96 68.86 48.20 72.77 C 47.89 72.52 47.26 72.03 46.95 71.78 C 46.47 71.38 45.51 70.58 45.03 70.18 C 49.31 69.26 46.99 64.06 45.80 61.45 L 46.53 60.79 Z" />
</g>
<g id="#60352dff">
<path fill="#60352d" opacity="1.00" d=" M 70.56 65.66 C 72.62 63.71 74.83 61.90 77.43 60.71 L 77.21 61.30 C 76.92 61.56 76.33 62.06 76.04 62.31 C 73.76 63.21 74.42 65.71 73.98 67.58 C 72.86 66.89 71.72 66.25 70.56 65.66 Z" />
</g>
<g id="#c0948eff">
<path fill="#c0948e" opacity="1.00" d=" M 83.84 60.55 C 85.66 62.65 86.33 65.41 86.89 68.06 C 86.30 67.15 85.70 66.26 85.08 65.38 C 84.79 69.77 84.95 74.53 82.32 78.32 C 78.80 84.51 71.73 88.37 64.60 87.81 C 68.67 84.46 73.93 82.54 77.03 78.08 C 81.18 73.09 81.48 66.37 83.84 60.55 Z" />
</g>
<g id="#fe8c59ff">
<path fill="#fe8c59" opacity="1.00" d=" M 43.24 63.99 C 44.06 63.12 44.93 62.28 45.80 61.45 C 46.99 64.06 49.31 69.26 45.03 70.18 C 43.98 69.77 42.93 69.37 41.87 68.99 C 41.88 68.31 41.89 66.95 41.89 66.27 L 42.51 65.04 C 42.69 64.78 43.06 64.25 43.24 63.99 Z" />
</g>
<g id="#94bdbdff">
<path fill="#94bdbd" opacity="1.00" d=" M 73.98 67.58 C 74.42 65.71 73.76 63.21 76.04 62.31 C 77.03 64.63 77.11 67.14 75.67 69.28 C 75.25 68.86 74.40 68.00 73.98 67.58 Z" />
</g>
<g id="#d25839f1">
<path fill="#d25839" opacity="0.95" d=" M 36.50 64.30 C 38.52 64.21 40.51 64.77 42.51 65.04 L 41.89 66.27 C 39.87 66.23 37.85 66.08 35.83 65.87 C 35.45 65.80 34.70 65.67 34.32 65.60 C 34.87 65.28 35.96 64.63 36.50 64.30 Z" />
</g>
<g id="#22141058">
<path fill="#221410" opacity="0.35" d=" M 35.83 65.87 C 37.85 66.08 39.87 66.23 41.89 66.27 C 41.89 66.95 41.88 68.31 41.87 68.99 C 41.85 69.66 41.80 71.00 41.78 71.67 L 41.27 71.97 C 41.30 70.35 41.32 68.73 41.34 67.10 C 39.47 66.83 37.62 66.48 35.83 65.87 Z" />
</g>
<g id="#539d9dff">
<path fill="#539d9d" opacity="1.00" d=" M 68.67 67.22 C 69.14 66.83 70.09 66.05 70.56 65.66 C 71.72 66.25 72.86 66.89 73.98 67.58 C 74.40 68.00 75.25 68.86 75.67 69.28 C 73.13 69.50 70.81 68.45 68.67 67.22 Z" />
</g>
<g id="#fedcd1ff">
<path fill="#fedcd1" opacity="1.00" d=" M 67.20 67.48 C 67.68 67.76 68.64 68.30 69.13 68.57 C 69.66 70.33 70.26 72.09 70.58 73.91 C 69.41 75.33 67.48 75.28 65.81 75.36 C 62.51 73.33 58.68 73.04 54.93 73.62 C 54.65 74.19 54.10 75.35 53.82 75.93 L 53.11 77.30 L 54.47 77.16 C 54.86 77.72 55.65 78.86 56.05 79.42 C 58.07 79.36 60.09 79.29 62.10 79.12 L 63.40 79.02 C 60.30 80.88 55.73 82.61 55.85 86.95 C 60.35 90.71 66.86 89.78 72.33 89.68 L 72.47 90.95 C 70.88 91.31 69.32 91.79 67.70 92.02 C 65.91 92.00 64.13 92.02 62.34 92.06 C 56.94 91.85 51.82 89.31 48.09 85.43 C 48.68 85.33 49.85 85.12 50.44 85.02 C 49.82 80.72 48.42 74.64 53.13 72.13 C 57.33 69.06 63.19 70.97 67.28 67.76 L 67.20 67.48 Z" />
</g>
<g id="#a2908bff">
<path fill="#a2908b" opacity="1.00" d=" M 78.23 67.23 C 80.14 68.75 78.57 71.19 76.81 71.89 C 74.78 72.95 72.61 71.80 70.65 71.21 L 72.11 71.08 C 74.93 71.35 77.41 70.06 78.23 67.23 Z" />
</g>
<g id="#689891ff">
<path fill="#689891" opacity="1.00" d=" M 41.87 68.99 C 42.93 69.37 43.98 69.77 45.03 70.18 C 45.51 70.58 46.47 71.38 46.95 71.78 C 46.39 72.33 45.28 73.43 44.72 73.97 C 43.45 73.71 42.74 72.42 41.78 71.67 C 41.80 71.00 41.85 69.66 41.87 68.99 Z" />
</g>
<g id="#e89e95ff">
<path fill="#e89e95" opacity="1.00" d=" M 54.93 73.62 C 58.68 73.04 62.51 73.33 65.81 75.36 C 64.61 76.65 63.41 77.94 62.10 79.12 C 60.09 79.29 58.07 79.36 56.05 79.42 C 55.65 78.86 54.86 77.72 54.47 77.16 C 57.17 76.67 59.83 75.99 62.48 75.26 C 59.58 74.64 56.61 75.03 53.82 75.93 C 54.10 75.35 54.65 74.19 54.93 73.62 Z" />
</g>
<g id="#b57c73ff">
<path fill="#b57c73" opacity="1.00" d=" M 53.82 75.93 C 56.61 75.03 59.58 74.64 62.48 75.26 C 59.83 75.99 57.17 76.67 54.47 77.16 L 53.11 77.30 L 53.82 75.93 Z" />
</g>
<g id="#1515154b">
<path fill="#151515" opacity="0.29" d=" M 62.34 92.06 C 64.13 92.02 65.91 92.00 67.70 92.02 C 67.31 94.02 62.85 93.97 62.34 92.06 Z" />
</g>
</svg>
