<?xml version="1.0" encoding="UTF-8" ?>
<!DOCTYPE svg PUBLIC "-//W3C//DTD SVG 1.1//EN" "http://www.w3.org/Graphics/SVG/1.1/DTD/svg11.dtd">
<svg width="143pt" height="131pt" viewBox="0 0 143 131" version="1.1" xmlns="http://www.w3.org/2000/svg">
<g id="#a69996fa">
<path fill="#a69996" opacity="0.98" d=" M 37.23 9.27 C 39.70 7.02 41.63 3.09 45.95 4.99 C 52.13 8.45 53.87 15.94 55.75 22.28 C 55.10 22.17 53.80 21.95 53.15 21.84 C 52.36 20.62 51.65 19.34 50.72 18.21 C 47.43 16.82 43.73 18.11 40.29 17.30 C 39.94 18.27 39.61 19.25 39.28 20.22 C 38.21 16.68 37.27 12.89 37.23 9.27 Z" />
</g>
<g id="#faf8f0fd">
<path fill="#faf8f0" opacity="1.00" d=" M 106.22 16.22 C 109.01 14.10 111.69 10.73 115.81 12.09 C 118.18 18.63 118.88 25.98 116.56 32.66 C 114.74 39.97 112.43 47.28 108.96 53.98 C 102.91 63.78 101.44 75.71 102.05 87.03 C 102.89 90.56 100.50 92.86 96.99 92.15 C 95.66 91.05 94.38 89.88 92.96 88.89 C 91.16 88.72 92.78 92.68 91.15 91.67 C 89.89 91.12 88.85 90.31 88.50 88.92 L 88.55 88.13 C 89.77 86.78 91.10 85.53 92.27 84.14 C 93.90 81.27 92.31 77.50 92.83 74.27 C 94.73 73.81 96.31 72.54 97.39 70.93 C 97.49 68.93 97.75 67.33 100.17 66.79 C 103.01 66.56 104.48 62.53 102.60 60.57 C 103.88 57.83 103.62 54.77 104.98 52.05 C 103.72 46.24 96.63 45.38 91.83 46.81 C 94.10 43.81 98.34 41.82 99.05 37.89 C 95.15 41.10 91.74 44.84 88.09 48.32 C 85.13 47.77 83.20 45.79 82.71 42.81 L 83.28 42.14 C 86.72 37.91 90.36 33.75 93.05 28.99 C 97.55 24.97 101.99 20.63 106.22 16.22 M 99.20 29.18 C 97.55 30.73 96.12 32.71 95.94 35.04 C 98.91 35.71 103.70 28.55 99.20 29.18 Z" />
</g>
<g id="#907876ff">
<path fill="#907876" opacity="1.00" d=" M 40.29 17.30 C 43.73 18.11 47.43 16.82 50.72 18.21 C 51.65 19.34 52.36 20.62 53.15 21.84 C 49.95 21.56 46.25 20.32 43.97 23.25 C 42.99 22.20 42.08 21.08 41.14 19.99 C 41.23 22.10 40.97 23.72 38.87 21.93 C 38.97 21.50 39.18 20.65 39.28 20.22 C 39.61 19.25 39.94 18.27 40.29 17.30 Z" />
</g>
<g id="#7d5e5aff">
<path fill="#7d5e5a" opacity="1.00" d=" M 41.14 19.99 C 42.08 21.08 42.99 22.20 43.97 23.25 C 42.47 24.36 41.02 25.70 39.14 26.13 C 39.03 24.73 38.94 23.33 38.87 21.93 C 40.97 23.72 41.23 22.10 41.14 19.99 Z" />
</g>
<g id="#3e3533fd">
<path fill="#3e3533" opacity="1.00" d=" M 43.97 23.25 C 46.25 20.32 49.95 21.56 53.15 21.84 C 53.80 21.95 55.10 22.17 55.75 22.28 C 59.97 25.06 65.38 28.27 67.57 32.70 C 66.78 35.40 69.82 37.37 70.17 40.00 C 68.68 39.24 67.53 37.52 65.73 37.61 C 63.97 36.39 61.94 35.86 59.81 36.03 C 50.83 30.22 39.32 26.71 28.84 30.18 C 28.30 29.94 27.21 29.46 26.66 29.22 C 29.32 25.23 34.56 23.66 38.87 21.93 C 38.94 23.33 39.03 24.73 39.14 26.13 C 41.02 25.70 42.47 24.36 43.97 23.25 Z" />
</g>
<g id="#ab9b96fd">
<path fill="#ab9b96" opacity="1.00" d=" M 25.17 30.73 C 24.60 29.11 25.09 28.60 26.66 29.22 C 27.21 29.46 28.30 29.94 28.84 30.18 C 29.60 31.05 30.35 31.92 31.09 32.79 C 32.73 34.98 34.21 37.49 37.18 37.93 C 37.85 38.50 38.52 39.10 39.16 39.71 C 34.12 38.92 36.55 44.60 35.84 47.81 C 33.39 49.70 29.97 49.60 27.03 50.11 C 26.69 49.59 26.02 48.56 25.69 48.04 C 28.91 47.99 32.43 48.14 34.95 45.82 C 35.16 43.75 34.28 41.66 33.07 40.03 C 32.16 38.94 31.21 37.87 30.23 36.84 C 28.42 34.90 26.81 32.80 25.17 30.73 Z" />
</g>
<g id="#ee774dff">
<path fill="#ee774d" opacity="1.00" d=" M 28.84 30.18 C 39.32 26.71 50.83 30.22 59.81 36.03 C 60.76 37.50 61.76 38.95 63.02 40.19 C 62.31 40.74 61.60 41.30 60.90 41.85 C 57.90 41.61 54.23 42.31 53.75 45.87 C 53.01 48.82 52.99 51.93 52.96 54.96 C 52.19 53.59 51.54 52.17 50.87 50.76 C 50.62 48.24 52.22 44.81 49.78 43.29 C 43.72 45.70 43.22 34.75 36.81 37.10 C 35.05 35.48 33.34 33.72 31.09 32.79 C 30.35 31.92 29.60 31.05 28.84 30.18 Z" />
</g>
<g id="#c3b0aafb">
<path fill="#c3b0aa" opacity="1.00" d=" M 72.77 39.35 C 79.18 35.55 85.57 30.16 93.05 28.99 C 90.36 33.75 86.72 37.91 83.28 42.14 C 81.33 41.42 79.70 40.12 77.92 39.10 C 76.29 39.30 74.72 39.78 73.12 40.09 L 72.77 39.35 Z" />
</g>
<g id="#646055ff">
<path fill="#646055" opacity="1.00" d=" M 99.20 29.18 C 103.70 28.55 98.91 35.71 95.94 35.04 C 96.12 32.71 97.55 30.73 99.20 29.18 Z" />
</g>
<g id="#c7c9c8ff">
<path fill="#c7c9c8" opacity="1.00" d=" M 25.17 30.73 C 26.81 32.80 28.42 34.90 30.23 36.84 C 31.88 40.54 29.07 45.92 24.93 44.14 C 24.94 42.68 24.93 41.21 24.91 39.74 C 24.95 37.10 25.00 34.45 25.08 31.81 L 25.17 30.73 Z" />
</g>
<g id="#fa8b5cfe">
<path fill="#fa8b5c" opacity="1.00" d=" M 18.38 40.67 C 19.54 37.39 21.94 33.72 25.08 31.81 C 25.00 34.45 24.95 37.10 24.91 39.74 C 21.49 41.01 20.81 45.93 21.00 48.99 C 18.93 53.38 24.82 55.70 23.77 59.61 C 22.26 60.47 20.58 61.08 19.25 62.24 C 19.07 64.18 17.37 66.80 19.68 68.00 C 19.29 68.29 18.50 68.86 18.11 69.15 C 16.10 70.26 15.97 72.75 15.72 74.76 C 15.21 77.58 14.54 80.54 15.70 83.27 C 15.77 83.96 15.92 85.35 16.00 86.04 L 15.07 85.92 C 13.67 81.63 12.57 77.24 11.76 72.79 C 11.81 71.09 11.90 67.69 11.95 65.99 C 11.91 64.74 12.02 63.52 12.28 62.31 C 14.55 59.82 15.42 56.52 16.34 53.38 C 17.33 49.26 20.08 44.93 18.38 40.67 Z" />
</g>
<g id="#d5aea1ff">
<path fill="#d5aea1" opacity="1.00" d=" M 31.09 32.79 C 33.34 33.72 35.05 35.48 36.81 37.10 L 37.18 37.93 C 34.21 37.49 32.73 34.98 31.09 32.79 Z" />
</g>
<g id="#b45c3ffe">
<path fill="#b45c3f" opacity="1.00" d=" M 70.17 40.00 C 69.82 37.37 66.78 35.40 67.57 32.70 C 70.43 33.74 71.42 36.91 72.77 39.35 L 73.12 40.09 C 74.50 43.12 75.65 46.24 77.06 49.26 C 77.24 50.76 77.51 52.25 77.71 53.75 C 77.46 56.24 77.26 58.73 77.11 61.23 C 76.12 61.60 75.11 61.91 74.08 62.18 C 74.14 59.64 73.89 57.16 73.32 54.72 C 71.86 48.59 68.97 42.97 65.73 37.61 C 67.53 37.52 68.68 39.24 70.17 40.00 Z" />
</g>
<g id="#352b28ff">
<path fill="#352b28" opacity="1.00" d=" M 59.81 36.03 C 61.94 35.86 63.97 36.39 65.73 37.61 C 68.97 42.97 71.86 48.59 73.32 54.72 C 73.10 59.85 73.08 65.00 72.97 70.14 L 72.70 70.91 C 72.12 72.21 72.13 73.63 72.04 75.02 C 71.51 75.25 70.45 75.71 69.93 75.94 C 70.35 73.36 71.02 70.82 71.30 68.22 C 71.86 65.08 72.44 61.81 71.40 58.72 C 70.69 55.33 69.66 52.00 68.33 48.80 C 66.97 45.71 65.20 42.76 63.02 40.19 C 61.76 38.95 60.76 37.50 59.81 36.03 Z" />
</g>
<g id="#bbb7b4ff">
<path fill="#bbb7b4" opacity="1.00" d=" M 30.23 36.84 C 31.21 37.87 32.16 38.94 33.07 40.03 C 34.32 44.93 28.77 45.76 25.69 48.04 C 25.40 47.49 24.81 46.40 24.52 45.86 C 24.62 45.43 24.82 44.57 24.93 44.14 C 29.07 45.92 31.88 40.54 30.23 36.84 Z" />
</g>
<g id="#ec7246ff">
<path fill="#ec7246" opacity="1.00" d=" M 36.81 37.10 C 43.22 34.75 43.72 45.70 49.78 43.29 C 52.22 44.81 50.62 48.24 50.87 50.76 C 48.34 51.32 48.40 54.42 47.21 56.27 C 45.68 60.08 42.37 62.56 39.90 65.68 C 39.46 65.59 38.59 65.41 38.15 65.32 C 37.58 65.21 36.43 64.98 35.85 64.87 C 37.70 61.14 42.36 58.57 42.06 53.96 C 38.39 54.38 34.69 55.43 31.11 53.85 C 27.30 53.51 22.95 50.01 24.52 45.86 C 24.81 46.40 25.40 47.49 25.69 48.04 C 26.02 48.56 26.69 49.59 27.03 50.11 C 29.58 52.07 34.03 52.94 36.96 51.04 C 41.03 49.68 43.94 44.30 40.28 40.89 C 40.00 40.60 39.44 40.01 39.16 39.71 C 38.52 39.10 37.85 38.50 37.18 37.93 L 36.81 37.10 Z" />
</g>
<g id="#cec1a6ff">
<path fill="#cec1a6" opacity="1.00" d=" M 88.09 48.32 C 91.74 44.84 95.15 41.10 99.05 37.89 C 98.34 41.82 94.10 43.81 91.83 46.81 C 90.07 48.39 88.44 50.09 86.85 51.83 C 86.38 52.13 85.46 52.74 85.00 53.05 L 83.92 52.87 C 85.26 51.31 86.67 49.81 88.09 48.32 Z" />
</g>
<g id="#baa29bff">
<path fill="#baa29b" opacity="1.00" d=" M 73.12 40.09 C 74.72 39.78 76.29 39.30 77.92 39.10 C 79.70 40.12 81.33 41.42 83.28 42.14 L 82.71 42.81 C 80.64 44.79 78.91 47.08 77.06 49.26 C 75.65 46.24 74.50 43.12 73.12 40.09 Z" />
</g>
<g id="#fe814eff">
<path fill="#fe814e" opacity="1.00" d=" M 21.00 48.99 C 20.81 45.93 21.49 41.01 24.91 39.74 C 24.93 41.21 24.94 42.68 24.93 44.14 C 24.82 44.57 24.62 45.43 24.52 45.86 C 22.95 50.01 27.30 53.51 31.11 53.85 C 34.69 55.43 38.39 54.38 42.06 53.96 C 42.36 58.57 37.70 61.14 35.85 64.87 C 31.32 65.89 25.44 62.37 21.67 66.00 C 21.00 66.66 20.34 67.33 19.68 68.00 C 17.37 66.80 19.07 64.18 19.25 62.24 C 20.58 61.08 22.26 60.47 23.77 59.61 C 24.82 55.70 18.93 53.38 21.00 48.99 Z" />
</g>
<g id="#abaaa9ff">
<path fill="#abaaa9" opacity="1.00" d=" M 33.07 40.03 C 34.28 41.66 35.16 43.75 34.95 45.82 C 32.43 48.14 28.91 47.99 25.69 48.04 C 28.77 45.76 34.32 44.93 33.07 40.03 Z" />
</g>
<g id="#97817eff">
<path fill="#97817e" opacity="1.00" d=" M 35.84 47.81 C 36.55 44.60 34.12 38.92 39.16 39.71 C 39.44 40.01 40.00 40.60 40.28 40.89 C 38.49 44.03 37.79 47.56 36.96 51.04 C 34.03 52.94 29.58 52.07 27.03 50.11 C 29.97 49.60 33.39 49.70 35.84 47.81 Z" />
</g>
<g id="#b56247ff">
<path fill="#b56247" opacity="1.00" d=" M 63.02 40.19 C 65.20 42.76 66.97 45.71 68.33 48.80 C 68.07 49.40 67.55 50.60 67.29 51.20 C 66.25 49.37 65.19 47.54 63.89 45.88 C 62.86 45.09 61.71 44.47 60.65 43.73 L 60.76 42.78 L 60.90 41.85 C 61.60 41.30 62.31 40.74 63.02 40.19 Z" />
</g>
<g id="#82756ffb">
<path fill="#82756f" opacity="1.00" d=" M 11.70 51.23 C 13.00 47.35 14.65 42.55 18.38 40.67 C 20.08 44.93 17.33 49.26 16.34 53.38 C 15.63 53.09 14.04 49.74 14.01 52.05 C 13.43 51.85 12.28 51.44 11.70 51.23 Z" />
</g>
<g id="#8f6962ff">
<path fill="#8f6962" opacity="1.00" d=" M 40.28 40.89 C 43.94 44.30 41.03 49.68 36.96 51.04 C 37.79 47.56 38.49 44.03 40.28 40.89 Z" />
</g>
<g id="#886558ff">
<path fill="#886558" opacity="1.00" d=" M 53.75 45.87 C 54.23 42.31 57.90 41.61 60.90 41.85 L 60.76 42.78 C 57.57 42.42 55.61 44.72 53.85 47.01 L 53.75 45.87 Z" />
</g>
<g id="#d5d5d3ff">
<path fill="#d5d5d3" opacity="1.00" d=" M 53.85 47.01 C 55.61 44.72 57.57 42.42 60.76 42.78 L 60.65 43.73 C 59.14 44.52 57.75 45.54 56.64 46.82 C 54.81 48.93 55.83 52.72 56.73 55.17 L 57.05 55.94 C 56.74 56.30 56.14 57.03 55.83 57.39 C 54.16 54.18 54.06 50.55 53.85 47.01 Z" />
</g>
<g id="#fcf8d9ff">
<path fill="#fcf8d9" opacity="1.00" d=" M 77.06 49.26 C 78.91 47.08 80.64 44.79 82.71 42.81 C 83.20 45.79 85.13 47.77 88.09 48.32 C 86.67 49.81 85.26 51.31 83.92 52.87 C 81.90 54.11 79.25 59.06 77.91 54.74 L 77.71 53.75 C 77.51 52.25 77.24 50.76 77.06 49.26 Z" />
</g>
<g id="#353434ff">
<path fill="#353434" opacity="1.00" d=" M 56.64 46.82 C 57.75 45.54 59.14 44.52 60.65 43.73 C 61.71 44.47 62.86 45.09 63.89 45.88 C 61.58 45.89 61.85 48.60 61.11 50.16 C 60.02 49.42 58.95 48.65 57.85 47.92 C 57.55 47.64 56.94 47.10 56.64 46.82 Z" />
</g>
<g id="#824d38ff">
<path fill="#824d38" opacity="1.00" d=" M 52.96 54.96 C 52.99 51.93 53.01 48.82 53.75 45.87 L 53.85 47.01 C 54.06 50.55 54.16 54.18 55.83 57.39 C 55.85 57.79 55.87 58.59 55.89 59.00 L 55.87 59.96 C 55.35 59.19 54.83 58.42 54.31 57.66 C 53.88 56.75 53.43 55.85 52.96 54.96 Z" />
</g>
<g id="#191918ff">
<path fill="#191918" opacity="1.00" d=" M 61.11 50.16 C 61.85 48.60 61.58 45.89 63.89 45.88 C 65.19 47.54 66.25 49.37 67.29 51.20 C 67.30 51.60 67.32 52.39 67.33 52.79 C 67.70 56.70 67.09 60.63 64.19 63.37 C 62.84 62.25 61.53 61.09 60.23 59.92 C 59.15 58.60 58.10 57.27 57.05 55.94 L 56.73 55.17 C 56.90 54.64 57.24 53.58 57.41 53.05 C 59.72 55.38 61.31 52.39 61.11 50.16 Z" />
</g>
<g id="#f7efd7ff">
<path fill="#f7efd7" opacity="1.00" d=" M 91.83 46.81 C 96.63 45.38 103.72 46.24 104.98 52.05 C 103.62 54.77 103.88 57.83 102.60 60.57 C 104.48 62.53 103.01 66.56 100.17 66.79 C 99.73 66.63 98.83 66.30 98.39 66.14 C 98.46 61.72 100.04 55.29 95.73 52.23 C 92.76 52.04 89.81 51.93 86.85 51.83 C 88.44 50.09 90.07 48.39 91.83 46.81 Z" />
</g>
<g id="#676767ff">
<path fill="#676767" opacity="1.00" d=" M 56.73 55.17 C 55.83 52.72 54.81 48.93 56.64 46.82 C 56.94 47.10 57.55 47.64 57.85 47.92 C 57.20 49.56 57.20 51.32 57.41 53.05 C 57.24 53.58 56.90 54.64 56.73 55.17 Z" />
</g>
<g id="#b6b6b6ff">
<path fill="#b6b6b6" opacity="1.00" d=" M 57.85 47.92 C 58.95 48.65 60.02 49.42 61.11 50.16 C 61.31 52.39 59.72 55.38 57.41 53.05 C 57.20 51.32 57.20 49.56 57.85 47.92 Z" />
</g>
<g id="#a94c31ff">
<path fill="#a94c31" opacity="1.00" d=" M 68.33 48.80 C 69.66 52.00 70.69 55.33 71.40 58.72 C 71.32 60.56 71.15 64.24 71.06 66.09 C 69.64 65.11 68.47 64.59 69.46 66.83 C 67.56 68.96 65.55 71.69 61.89 70.25 C 61.93 71.73 63.16 72.56 64.15 73.47 C 62.07 77.85 59.75 82.37 55.87 85.42 C 55.32 84.23 54.81 83.03 54.28 81.83 C 53.68 80.27 53.08 78.71 52.58 77.12 C 53.80 74.27 57.61 73.33 58.22 70.13 C 58.92 68.13 59.05 66.01 59.24 63.92 C 60.84 64.00 62.43 64.07 64.03 64.16 L 63.88 64.99 C 63.52 65.59 60.46 67.46 62.89 66.99 C 68.08 67.97 70.02 60.65 68.70 56.87 C 68.38 55.47 67.82 54.13 67.33 52.79 C 67.32 52.39 67.30 51.60 67.29 51.20 C 67.55 50.60 68.07 49.40 68.33 48.80 Z" />
</g>
<g id="#212121e3">
<path fill="#212121" opacity="0.89" d=" M 11.01 51.00 L 11.70 51.23 C 12.28 51.44 13.43 51.85 14.01 52.05 C 13.66 54.77 12.41 57.24 11.82 59.90 C 8.82 60.29 11.76 53.27 11.01 51.00 Z" />
</g>
<g id="#5f4f4aff">
<path fill="#5f4f4a" opacity="1.00" d=" M 14.01 52.05 C 14.04 49.74 15.63 53.09 16.34 53.38 C 15.42 56.52 14.55 59.82 12.28 62.31 C 12.17 61.71 11.94 60.51 11.82 59.90 C 12.41 57.24 13.66 54.77 14.01 52.05 Z" />
</g>
<g id="#d76942ff">
<path fill="#d76942" opacity="1.00" d=" M 47.21 56.27 C 48.40 54.42 48.34 51.32 50.87 50.76 C 51.54 52.17 52.19 53.59 52.96 54.96 C 53.43 55.85 53.88 56.75 54.31 57.66 C 53.31 57.43 52.31 57.28 51.30 57.19 C 49.52 61.63 46.80 65.59 42.69 68.14 C 41.76 67.31 40.84 66.49 39.90 65.68 C 42.37 62.56 45.68 60.08 47.21 56.27 Z" />
</g>
<g id="#fee9ccff">
<path fill="#fee9cc" opacity="1.00" d=" M 85.00 53.05 C 85.46 52.74 86.38 52.13 86.85 51.83 C 89.81 51.93 92.76 52.04 95.73 52.23 C 100.04 55.29 98.46 61.72 98.39 66.14 C 96.63 67.14 94.78 67.93 92.91 68.67 C 90.63 69.34 88.34 70.10 85.94 70.09 C 87.48 66.31 91.78 62.08 89.07 57.96 C 88.22 55.21 85.06 56.13 82.87 55.81 C 83.59 54.90 84.30 53.98 85.00 53.05 Z" />
</g>
<g id="#74402eff">
<path fill="#74402e" opacity="1.00" d=" M 67.33 52.79 C 67.82 54.13 68.38 55.47 68.70 56.87 C 67.91 59.99 67.13 63.52 63.88 64.99 L 64.03 64.16 L 64.19 63.37 C 67.09 60.63 67.70 56.70 67.33 52.79 Z" />
</g>
<g id="#b3a290ff">
<path fill="#b3a290" opacity="1.00" d=" M 77.91 54.74 C 79.25 59.06 81.90 54.11 83.92 52.87 L 85.00 53.05 C 84.30 53.98 83.59 54.90 82.87 55.81 C 82.23 56.41 81.58 57.02 80.95 57.64 C 80.40 57.97 79.31 58.64 78.76 58.97 C 78.44 57.57 78.16 56.16 77.91 54.74 Z" />
</g>
<g id="#5d4035ff">
<path fill="#5d4035" opacity="1.00" d=" M 77.11 61.23 C 77.26 58.73 77.46 56.24 77.71 53.75 L 77.91 54.74 C 78.16 56.16 78.44 57.57 78.76 58.97 C 78.55 59.46 78.12 60.45 77.90 60.94 L 77.11 61.23 Z" />
</g>
<g id="#713f2fff">
<path fill="#713f2f" opacity="1.00" d=" M 73.32 54.72 C 73.89 57.16 74.14 59.64 74.08 62.18 C 74.05 64.17 74.07 66.16 74.12 68.14 C 73.83 68.64 73.26 69.64 72.97 70.14 C 73.08 65.00 73.10 59.85 73.32 54.72 Z" />
</g>
<g id="#797979ff">
<path fill="#797979" opacity="1.00" d=" M 57.05 55.94 C 58.10 57.27 59.15 58.60 60.23 59.92 C 60.55 63.92 57.48 59.74 55.89 59.00 C 55.87 58.59 55.85 57.79 55.83 57.39 C 56.14 57.03 56.74 56.30 57.05 55.94 Z" />
</g>
<g id="#f4d8beff">
<path fill="#f4d8be" opacity="1.00" d=" M 80.95 57.64 C 81.58 57.02 82.23 56.41 82.87 55.81 C 85.06 56.13 88.22 55.21 89.07 57.96 C 91.78 62.08 87.48 66.31 85.94 70.09 C 85.41 70.09 84.35 70.08 83.82 70.08 C 82.79 66.95 86.02 64.33 85.79 61.24 C 84.46 59.71 82.90 58.29 80.95 57.64 Z" />
</g>
<g id="#c55f3dff">
<path fill="#c55f3d" opacity="1.00" d=" M 51.30 57.19 C 52.31 57.28 53.31 57.43 54.31 57.66 C 54.83 58.42 55.35 59.19 55.87 59.96 L 56.07 60.64 C 52.11 61.98 52.00 67.32 48.83 69.83 C 47.89 70.27 46.97 70.74 46.05 71.22 C 44.89 70.24 43.78 69.20 42.69 68.14 C 46.80 65.59 49.52 61.63 51.30 57.19 Z" />
</g>
<g id="#2e231fff">
<path fill="#2e231f" opacity="1.00" d=" M 63.88 64.99 C 67.13 63.52 67.91 59.99 68.70 56.87 C 70.02 60.65 68.08 67.97 62.89 66.99 C 60.46 67.46 63.52 65.59 63.88 64.99 Z" />
</g>
<g id="#ddc1afff">
<path fill="#ddc1af" opacity="1.00" d=" M 78.76 58.97 C 79.31 58.64 80.40 57.97 80.95 57.64 C 82.90 58.29 84.46 59.71 85.79 61.24 C 86.02 64.33 82.79 66.95 83.82 70.08 C 79.09 70.53 83.23 63.07 79.17 62.80 C 79.03 61.53 78.89 60.25 78.76 58.97 Z" />
</g>
<g id="#503a34ff">
<path fill="#503a34" opacity="1.00" d=" M 55.89 59.00 C 57.48 59.74 60.55 63.92 60.23 59.92 C 61.53 61.09 62.84 62.25 64.19 63.37 L 64.03 64.16 C 62.43 64.07 60.84 64.00 59.24 63.92 C 58.21 62.80 57.15 61.71 56.07 60.64 L 55.87 59.96 L 55.89 59.00 Z" />
</g>
<g id="#643527ff">
<path fill="#643527" opacity="1.00" d=" M 71.40 58.72 C 72.44 61.81 71.86 65.08 71.30 68.22 C 71.24 67.69 71.12 66.62 71.06 66.09 C 71.15 64.24 71.32 60.56 71.40 58.72 Z" />
</g>
<g id="#9f796dff">
<path fill="#9f796d" opacity="1.00" d=" M 77.90 60.94 C 78.12 60.45 78.55 59.46 78.76 58.97 C 78.89 60.25 79.03 61.53 79.17 62.80 C 78.89 64.25 79.23 66.00 78.23 67.21 C 78.10 65.12 77.98 63.03 77.90 60.94 Z" />
</g>
<g id="#b55538ff">
<path fill="#b55538" opacity="1.00" d=" M 48.83 69.83 C 52.00 67.32 52.11 61.98 56.07 60.64 C 57.15 61.71 58.21 62.80 59.24 63.92 C 59.05 66.01 58.92 68.13 58.22 70.13 C 57.61 73.33 53.80 74.27 52.58 77.12 C 51.80 74.47 50.54 72.00 48.83 69.83 Z" />
</g>
<g id="#a04e35ff">
<path fill="#a04e35" opacity="1.00" d=" M 77.11 61.23 L 77.90 60.94 C 77.98 63.03 78.10 65.12 78.23 67.21 C 77.43 68.57 75.42 67.75 74.12 68.14 C 74.07 66.16 74.05 64.17 74.08 62.18 C 75.11 61.91 76.12 61.60 77.11 61.23 Z" />
</g>
<g id="#c2a79bff">
<path fill="#c2a79b" opacity="1.00" d=" M 79.17 62.80 C 83.23 63.07 79.09 70.53 83.82 70.08 C 84.35 70.08 85.41 70.09 85.94 70.09 C 88.34 70.10 90.63 69.34 92.91 68.67 C 93.11 69.00 93.53 69.66 93.74 69.99 C 92.07 70.77 87.79 70.33 89.95 72.99 C 87.31 73.12 84.65 73.08 82.07 73.73 C 81.03 73.44 79.99 73.17 78.94 72.94 C 77.62 73.74 78.31 76.43 76.11 75.60 C 74.28 74.54 72.64 73.24 72.70 70.91 L 72.97 70.14 C 73.26 69.64 73.83 68.64 74.12 68.14 C 75.42 67.75 77.43 68.57 78.23 67.21 C 79.23 66.00 78.89 64.25 79.17 62.80 Z" />
</g>
<g id="#fcc7baff">
<path fill="#fcc7ba" opacity="1.00" d=" M 21.67 66.00 C 25.44 62.37 31.32 65.89 35.85 64.87 C 36.43 64.98 37.58 65.21 38.15 65.32 C 36.96 69.67 31.78 68.95 28.20 68.88 C 25.77 68.38 23.17 68.14 21.67 66.00 Z" />
</g>
<g id="#ce9894ff">
<path fill="#ce9894" opacity="1.00" d=" M 38.15 65.32 C 38.59 65.41 39.46 65.59 39.90 65.68 C 39.69 66.19 39.29 67.22 39.09 67.74 C 34.45 72.40 26.74 68.85 20.97 70.06 L 20.92 69.08 C 22.74 69.03 26.38 68.93 28.20 68.88 C 31.78 68.95 36.96 69.67 38.15 65.32 Z" />
</g>
<g id="#9d4830ff">
<path fill="#9d4830" opacity="1.00" d=" M 69.46 66.83 C 68.47 64.59 69.64 65.11 71.06 66.09 C 71.12 66.62 71.24 67.69 71.30 68.22 C 71.02 70.82 70.35 73.36 69.93 75.94 C 70.45 75.71 71.51 75.25 72.04 75.02 C 71.98 77.41 71.30 79.70 70.57 81.96 C 69.54 84.33 69.40 86.68 70.17 89.01 C 69.42 90.37 68.71 91.77 68.03 93.17 C 67.15 94.20 66.22 95.19 65.26 96.15 C 61.71 93.12 58.49 99.60 54.78 97.28 C 58.04 94.17 57.08 89.29 55.87 85.42 C 59.75 82.37 62.07 77.85 64.15 73.47 C 67.03 72.80 71.17 70.30 69.46 66.83 Z" />
</g>
<g id="#c8b5adfb">
<path fill="#c8b5ad" opacity="1.00" d=" M 6.12 67.22 C 7.93 66.29 9.90 65.74 11.95 65.99 C 11.90 67.69 11.81 71.09 11.76 72.79 C 11.00 73.77 10.26 74.77 9.58 75.81 C 8.80 76.62 7.99 77.40 7.19 78.19 C 6.68 74.55 6.33 70.89 6.12 67.22 Z" />
</g>
<g id="#f0b6b0ff">
<path fill="#f0b6b0" opacity="1.00" d=" M 19.68 68.00 C 20.34 67.33 21.00 66.66 21.67 66.00 C 23.17 68.14 25.77 68.38 28.20 68.88 C 26.38 68.93 22.74 69.03 20.92 69.08 L 20.97 70.06 C 21.19 71.85 22.24 73.38 23.03 74.95 C 22.97 76.36 22.89 77.78 22.80 79.19 L 22.07 78.79 C 20.87 75.53 19.59 72.29 18.11 69.15 C 18.50 68.86 19.29 68.29 19.68 68.00 Z" />
</g>
<g id="#b4807fff">
<path fill="#b4807f" opacity="1.00" d=" M 39.90 65.68 C 40.84 66.49 41.76 67.31 42.69 68.14 C 43.78 69.20 44.89 70.24 46.05 71.22 C 45.96 73.04 45.34 74.76 44.16 76.15 C 43.66 76.15 42.66 76.16 42.17 76.16 C 42.88 74.69 45.18 72.36 41.94 72.81 L 42.15 71.94 C 46.29 72.29 40.78 68.18 39.09 67.74 C 39.29 67.22 39.69 66.19 39.90 65.68 Z" />
</g>
<g id="#cdbdb2ff">
<path fill="#cdbdb2" opacity="1.00" d=" M 98.39 66.14 C 98.83 66.30 99.73 66.63 100.17 66.79 C 97.75 67.33 97.49 68.93 97.39 70.93 C 96.38 70.26 95.24 70.37 94.13 70.62 L 93.74 69.99 C 93.53 69.66 93.11 69.00 92.91 68.67 C 94.78 67.93 96.63 67.14 98.39 66.14 Z" />
</g>
<g id="#3a241eff">
<path fill="#3a241e" opacity="1.00" d=" M 69.46 66.83 C 71.17 70.30 67.03 72.80 64.15 73.47 C 63.16 72.56 61.93 71.73 61.89 70.25 C 65.55 71.69 67.56 68.96 69.46 66.83 Z" />
</g>
<g id="#a17072ff">
<path fill="#a17072" opacity="1.00" d=" M 20.97 70.06 C 26.74 68.85 34.45 72.40 39.09 67.74 C 40.78 68.18 46.29 72.29 42.15 71.94 C 40.51 72.01 38.82 72.11 37.36 72.93 C 37.14 71.54 36.37 70.90 35.05 71.00 C 32.09 70.99 29.12 70.83 26.17 71.14 C 25.52 72.69 25.10 74.33 24.82 75.99 C 24.37 75.73 23.48 75.21 23.03 74.95 C 22.24 73.38 21.19 71.85 20.97 70.06 Z" />
</g>
<g id="#f9f3f0fe">
<path fill="#f9f3f0" opacity="1.00" d=" M 15.72 74.76 C 15.97 72.75 16.10 70.26 18.11 69.15 C 19.59 72.29 20.87 75.53 22.07 78.79 C 22.22 84.55 23.07 90.26 23.05 96.03 C 19.55 94.09 16.87 89.92 16.00 86.04 C 15.92 85.35 15.77 83.96 15.70 83.27 C 15.74 80.43 15.74 77.60 15.72 74.76 Z" />
</g>
<g id="#b59c95ff">
<path fill="#b59c95" opacity="1.00" d=" M 46.05 71.22 C 46.97 70.74 47.89 70.27 48.83 69.83 C 50.54 72.00 51.80 74.47 52.58 77.12 C 53.08 78.71 53.68 80.27 54.28 81.83 C 54.31 88.64 45.41 91.43 44.93 98.02 C 48.01 97.91 51.00 96.79 54.10 97.25 C 52.06 98.89 50.07 101.10 47.23 100.97 C 44.29 100.51 41.09 100.33 39.14 97.85 C 41.12 94.15 43.32 90.43 43.91 86.19 C 42.49 84.19 40.05 86.26 38.11 85.81 C 35.21 85.24 32.43 84.26 29.67 83.24 C 29.42 82.91 28.91 82.25 28.66 81.92 C 34.49 83.25 41.26 81.73 44.16 76.15 C 45.34 74.76 45.96 73.04 46.05 71.22 Z" />
</g>
<g id="#ead7c2ff">
<path fill="#ead7c2" opacity="1.00" d=" M 89.95 72.99 C 87.79 70.33 92.07 70.77 93.74 69.99 L 94.13 70.62 C 93.02 71.53 91.92 72.45 90.78 73.33 L 89.95 72.99 Z" />
</g>
<g id="#494441ff">
<path fill="#494441" opacity="1.00" d=" M 94.13 70.62 C 95.24 70.37 96.38 70.26 97.39 70.93 C 96.31 72.54 94.73 73.81 92.83 74.27 C 92.32 74.04 91.30 73.56 90.78 73.33 C 91.92 72.45 93.02 71.53 94.13 70.62 Z" />
</g>
<g id="#b85e59ff">
<path fill="#b85e59" opacity="1.00" d=" M 26.17 71.14 C 29.12 70.83 32.09 70.99 35.05 71.00 C 33.76 73.15 36.97 76.87 37.36 72.93 C 38.82 72.11 40.51 72.01 42.15 71.94 L 41.94 72.81 C 38.32 77.62 32.24 77.04 26.84 77.18 C 26.33 76.88 25.32 76.28 24.82 75.99 C 25.10 74.33 25.52 72.69 26.17 71.14 Z" />
</g>
<g id="#c39f98ff">
<path fill="#c39f98" opacity="1.00" d=" M 35.05 71.00 C 36.37 70.90 37.14 71.54 37.36 72.93 C 36.97 76.87 33.76 73.15 35.05 71.00 Z" />
</g>
<g id="#7f5a4eff">
<path fill="#7f5a4e" opacity="1.00" d=" M 72.04 75.02 C 72.13 73.63 72.12 72.21 72.70 70.91 C 72.64 73.24 74.28 74.54 76.11 75.60 C 74.73 75.59 73.38 75.27 72.04 75.02 Z" />
</g>
<g id="#dcbeaffe">
<path fill="#dcbeaf" opacity="1.00" d=" M 9.58 75.81 C 10.26 74.77 11.00 73.77 11.76 72.79 C 12.57 77.24 13.67 81.63 15.07 85.92 C 15.13 87.74 14.97 89.56 14.65 91.36 C 13.69 89.81 11.98 88.30 12.45 86.31 C 12.96 82.56 10.25 79.38 9.58 75.81 Z" />
</g>
<g id="#d59491ff">
<path fill="#d59491" opacity="1.00" d=" M 26.84 77.18 C 32.24 77.04 38.32 77.62 41.94 72.81 C 45.18 72.36 42.88 74.69 42.17 76.16 C 39.79 78.10 37.04 79.53 33.99 79.98 C 37.46 75.69 28.93 79.43 26.84 77.18 Z" />
</g>
<g id="#b0958eff">
<path fill="#b0958e" opacity="1.00" d=" M 76.11 75.60 C 78.31 76.43 77.62 73.74 78.94 72.94 C 78.93 74.94 79.07 77.09 81.11 78.05 C 80.80 78.28 80.18 78.73 79.87 78.96 C 78.87 78.29 77.88 77.61 76.84 77.00 C 77.24 79.59 79.97 80.78 80.98 83.02 C 81.90 86.38 82.68 89.78 83.33 93.20 C 84.03 96.29 83.51 102.09 79.07 101.04 C 76.81 97.10 78.69 91.17 75.32 87.98 C 75.07 88.52 74.56 89.60 74.31 90.14 C 74.21 87.95 72.93 86.27 71.50 84.74 C 71.27 84.05 70.80 82.66 70.57 81.96 C 71.30 79.70 71.98 77.41 72.04 75.02 C 73.38 75.27 74.73 75.59 76.11 75.60 Z" />
</g>
<g id="#38312eff">
<path fill="#38312e" opacity="1.00" d=" M 78.94 72.94 C 79.99 73.17 81.03 73.44 82.07 73.73 C 82.94 75.41 83.27 77.33 81.11 78.05 C 79.07 77.09 78.93 74.94 78.94 72.94 Z" />
</g>
<g id="#b19c97fd">
<path fill="#b19c97" opacity="1.00" d=" M 82.07 73.73 C 84.65 73.08 87.31 73.12 89.95 72.99 L 90.78 73.33 C 91.30 73.56 92.32 74.04 92.83 74.27 C 92.31 77.50 93.90 81.27 92.27 84.14 C 92.06 80.45 90.60 74.37 85.06 76.97 C 86.36 75.48 83.50 87.46 86.00 82.75 C 88.04 81.17 88.53 86.59 88.55 88.13 L 88.50 88.92 C 85.30 95.09 91.09 95.25 95.22 95.59 C 94.72 95.75 93.71 96.07 93.21 96.23 L 92.95 101.00 L 92.08 100.99 C 93.21 96.80 88.92 97.70 87.26 100.07 C 86.52 96.91 85.15 93.94 84.35 90.80 C 83.97 86.54 82.42 82.39 79.87 78.96 C 80.18 78.73 80.80 78.28 81.11 78.05 C 83.27 77.33 82.94 75.41 82.07 73.73 Z" />
</g>
<g id="#fea481ff">
<path fill="#fea481" opacity="1.00" d=" M 15.70 83.27 C 14.54 80.54 15.21 77.58 15.72 74.76 C 15.74 77.60 15.74 80.43 15.70 83.27 Z" />
</g>
<g id="#e6a49eff">
<path fill="#e6a49e" opacity="1.00" d=" M 23.03 74.95 C 23.48 75.21 24.37 75.73 24.82 75.99 C 25.32 76.28 26.33 76.88 26.84 77.18 C 28.93 79.43 37.46 75.69 33.99 79.98 C 33.55 80.07 32.66 80.25 32.22 80.34 C 29.41 80.25 26.54 78.70 23.77 79.74 C 23.52 79.60 23.04 79.32 22.80 79.19 C 22.89 77.78 22.97 76.36 23.03 74.95 Z" />
</g>
<g id="#eaddd3f8">
<path fill="#eaddd3" opacity="0.97" d=" M 7.19 78.19 C 7.99 77.40 8.80 76.62 9.58 75.81 C 10.25 79.38 12.96 82.56 12.45 86.31 C 11.98 88.30 13.69 89.81 14.65 91.36 C 16.93 95.13 17.09 99.79 18.01 104.00 C 17.74 105.55 17.48 108.59 15.22 107.93 C 14.77 106.02 14.29 104.13 13.73 102.25 C 12.66 100.63 10.35 101.30 9.19 99.79 C 9.04 92.56 6.45 85.42 7.19 78.19 Z" />
</g>
<g id="#a47174ff">
<path fill="#a47174" opacity="1.00" d=" M 42.17 76.16 C 42.66 76.16 43.66 76.15 44.16 76.15 C 41.26 81.73 34.49 83.25 28.66 81.92 C 29.83 81.36 31.03 80.86 32.22 80.34 C 32.66 80.25 33.55 80.07 33.99 79.98 C 37.04 79.53 39.79 78.10 42.17 76.16 Z" />
</g>
<g id="#84716dff">
<path fill="#84716d" opacity="1.00" d=" M 76.84 77.00 C 77.88 77.61 78.87 78.29 79.87 78.96 C 82.42 82.39 83.97 86.54 84.35 90.80 C 84.09 91.40 83.58 92.60 83.33 93.20 C 82.68 89.78 81.90 86.38 80.98 83.02 C 79.97 80.78 77.24 79.59 76.84 77.00 Z" />
</g>
<g id="#a98f88ff">
<path fill="#a98f88" opacity="1.00" d=" M 85.06 76.97 C 90.60 74.37 92.06 80.45 92.27 84.14 C 91.10 85.53 89.77 86.78 88.55 88.13 C 88.53 86.59 88.04 81.17 86.00 82.75 C 83.50 87.46 86.36 75.48 85.06 76.97 Z" />
</g>
<g id="#e2d7d2ff">
<path fill="#e2d7d2" opacity="1.00" d=" M 22.07 78.79 L 22.80 79.19 C 23.04 79.32 23.52 79.60 23.77 79.74 C 28.06 85.88 26.71 93.52 29.84 99.96 C 29.15 99.99 27.77 100.06 27.08 100.09 C 25.44 99.27 23.69 97.76 23.05 96.03 C 23.07 90.26 22.22 84.55 22.07 78.79 Z" />
</g>
<g id="#bd8c90ff">
<path fill="#bd8c90" opacity="1.00" d=" M 23.77 79.74 C 26.54 78.70 29.41 80.25 32.22 80.34 C 31.03 80.86 29.83 81.36 28.66 81.92 C 28.26 81.92 27.45 81.93 27.05 81.93 C 25.98 81.17 24.87 80.46 23.77 79.74 Z" />
</g>
<g id="#d0beb9ff">
<path fill="#d0beb9" opacity="1.00" d=" M 23.77 79.74 C 24.87 80.46 25.98 81.17 27.05 81.93 C 28.76 85.95 32.97 89.12 31.89 94.04 C 31.78 96.57 33.03 98.76 34.15 100.93 C 32.06 100.97 29.98 101.01 27.89 101.03 C 27.69 100.80 27.28 100.33 27.08 100.09 C 27.77 100.06 29.15 99.99 29.84 99.96 C 26.71 93.52 28.06 85.88 23.77 79.74 Z" />
</g>
<g id="#c3b0abff">
<path fill="#c3b0ab" opacity="1.00" d=" M 27.05 81.93 C 27.45 81.93 28.26 81.92 28.66 81.92 C 28.91 82.25 29.42 82.91 29.67 83.24 C 31.02 86.58 35.34 87.02 36.76 90.26 C 37.48 94.09 34.20 99.23 39.14 100.96 C 37.47 100.94 35.81 100.95 34.15 100.93 C 33.03 98.76 31.78 96.57 31.89 94.04 C 32.97 89.12 28.76 85.95 27.05 81.93 Z" />
</g>
<g id="#af9088ff">
<path fill="#af9088" opacity="1.00" d=" M 54.28 81.83 C 54.81 83.03 55.32 84.23 55.87 85.42 C 57.08 89.29 58.04 94.17 54.78 97.28 L 54.10 97.25 C 51.00 96.79 48.01 97.91 44.93 98.02 C 45.41 91.43 54.31 88.64 54.28 81.83 Z" />
</g>
<g id="#a67161ff">
<path fill="#a67161" opacity="1.00" d=" M 70.17 89.01 C 69.40 86.68 69.54 84.33 70.57 81.96 C 70.80 82.66 71.27 84.05 71.50 84.74 C 71.35 86.23 71.20 87.83 70.17 89.01 Z" />
</g>
<g id="#baa39cff">
<path fill="#baa39c" opacity="1.00" d=" M 29.67 83.24 C 32.43 84.26 35.21 85.24 38.11 85.81 C 40.05 86.26 42.49 84.19 43.91 86.19 C 43.32 90.43 41.12 94.15 39.14 97.85 C 41.09 100.33 44.29 100.51 47.23 100.97 C 44.56 101.90 41.76 102.19 39.14 100.96 C 34.20 99.23 37.48 94.09 36.76 90.26 C 35.34 87.02 31.02 86.58 29.67 83.24 Z" />
</g>
<g id="#ba9f95ff">
<path fill="#ba9f95" opacity="1.00" d=" M 71.50 84.74 C 72.93 86.27 74.21 87.95 74.31 90.14 C 74.03 91.66 73.47 94.70 73.20 96.21 C 73.14 94.47 73.07 92.73 72.91 91.00 C 70.80 90.41 71.05 92.53 70.71 93.92 C 69.80 93.71 68.91 93.46 68.03 93.17 C 68.71 91.77 69.42 90.37 70.17 89.01 C 71.20 87.83 71.35 86.23 71.50 84.74 Z" />
</g>
<g id="#d8c8c1f9">
<path fill="#d8c8c1" opacity="0.98" d=" M 102.05 87.03 C 105.43 86.39 102.42 92.71 102.87 94.81 C 100.53 96.03 97.79 96.12 95.22 95.59 C 91.09 95.25 85.30 95.09 88.50 88.92 C 88.85 90.31 89.89 91.12 91.15 91.67 C 92.78 92.68 91.16 88.72 92.96 88.89 C 92.15 92.39 94.34 95.03 97.98 94.06 C 97.73 93.59 97.24 92.63 96.99 92.15 C 100.50 92.86 102.89 90.56 102.05 87.03 Z" />
</g>
<g id="#a98d87ff">
<path fill="#a98d87" opacity="1.00" d=" M 75.32 87.98 C 78.69 91.17 76.81 97.10 79.07 101.04 C 83.51 102.09 84.03 96.29 83.33 93.20 C 83.58 92.60 84.09 91.40 84.35 90.80 C 85.15 93.94 86.52 96.91 87.26 100.07 C 86.88 101.02 86.49 101.97 86.09 102.91 C 83.16 104.91 79.62 104.76 76.25 105.27 C 73.91 107.36 72.75 111.54 68.99 111.16 L 68.69 110.30 C 70.32 108.09 72.23 105.79 71.93 102.85 C 72.14 100.60 72.72 98.42 73.20 96.21 C 73.47 94.70 74.03 91.66 74.31 90.14 C 74.56 89.60 75.07 88.52 75.32 87.98 Z" />
</g>
<g id="#534e4bff">
<path fill="#534e4b" opacity="1.00" d=" M 92.96 88.89 C 94.38 89.88 95.66 91.05 96.99 92.15 C 97.24 92.63 97.73 93.59 97.98 94.06 C 94.34 95.03 92.15 92.39 92.96 88.89 Z" />
</g>
<g id="#dfc9b5fc">
<path fill="#dfc9b5" opacity="1.00" d=" M 70.71 93.92 C 71.05 92.53 70.80 90.41 72.91 91.00 C 73.07 92.73 73.14 94.47 73.20 96.21 C 72.72 98.42 72.14 100.60 71.93 102.85 C 70.62 105.24 66.71 107.27 68.69 110.30 L 68.99 111.16 C 68.66 111.32 68.01 111.64 67.68 111.80 L 67.06 112.08 C 66.43 110.01 65.17 105.88 64.55 103.81 C 64.51 101.96 63.88 100.18 63.04 98.55 C 63.78 97.75 64.52 96.95 65.26 96.15 C 66.22 95.19 67.15 94.20 68.03 93.17 C 68.91 93.46 69.80 93.71 70.71 93.92 Z" />
</g>
<g id="#ab5d41f7">
<path fill="#ab5d41" opacity="0.97" d=" M 54.78 97.28 C 58.49 99.60 61.71 93.12 65.26 96.15 C 64.52 96.95 63.78 97.75 63.04 98.55 C 61.87 99.51 60.68 100.46 59.61 101.55 C 55.91 102.78 52.36 104.38 48.67 105.63 C 41.66 106.47 33.44 105.68 27.89 101.03 C 29.98 101.01 32.06 100.97 34.15 100.93 C 35.81 100.95 37.47 100.94 39.14 100.96 C 41.76 102.19 44.56 101.90 47.23 100.97 C 50.07 101.10 52.06 98.89 54.10 97.25 L 54.78 97.28 Z" />
</g>
<g id="#c2b0aafd">
<path fill="#c2b0aa" opacity="1.00" d=" M 87.26 100.07 C 88.92 97.70 93.21 96.80 92.08 100.99 C 92.48 103.10 91.15 104.68 89.77 106.04 C 88.55 104.99 87.34 103.93 86.09 102.91 C 86.49 101.97 86.88 101.02 87.26 100.07 Z" />
</g>
<g id="#b3a299ff">
<path fill="#b3a299" opacity="1.00" d=" M 59.61 101.55 C 60.68 100.46 61.87 99.51 63.04 98.55 C 63.88 100.18 64.51 101.96 64.55 103.81 C 62.69 103.72 61.10 102.55 59.61 101.55 Z" />
</g>
<g id="#c4ada4ff">
<path fill="#c4ada4" opacity="1.00" d=" M 68.69 110.30 C 66.71 107.27 70.62 105.24 71.93 102.85 C 72.23 105.79 70.32 108.09 68.69 110.30 Z" />
</g>
<g id="#f6f2e2fd">
<path fill="#f6f2e2" opacity="1.00" d=" M 76.25 105.27 C 79.62 104.76 83.16 104.91 86.09 102.91 C 87.34 103.93 88.55 104.99 89.77 106.04 L 89.79 106.84 C 89.52 109.56 88.61 112.41 89.84 115.01 C 82.99 118.62 72.13 119.45 67.68 111.80 C 68.01 111.64 68.66 111.32 68.99 111.16 C 72.75 111.54 73.91 107.36 76.25 105.27 Z" />
</g>
<g id="#d4c9c2f5">
<path fill="#d4c9c2" opacity="0.96" d=" M 89.79 106.84 C 93.24 107.89 93.58 114.22 89.84 115.01 C 88.61 112.41 89.52 109.56 89.79 106.84 Z" />
</g>
</svg>
