<?xml version="1.0" encoding="UTF-8" ?>
<!DOCTYPE svg PUBLIC "-//W3C//DTD SVG 1.1//EN" "http://www.w3.org/Graphics/SVG/1.1/DTD/svg11.dtd">
<svg width="138pt" height="147pt" viewBox="0 0 138 147" version="1.1" xmlns="http://www.w3.org/2000/svg">
<g id="#c98a29fa">
<path fill="#c98a29" opacity="0.98" d=" M 64.64 6.69 C 65.97 2.56 72.53 3.75 72.95 7.94 C 71.58 10.48 71.16 13.39 69.90 15.97 C 66.45 15.78 69.73 8.72 67.15 9.22 C 66.12 15.00 65.57 20.93 66.30 26.77 C 66.02 29.83 65.28 32.81 64.88 35.85 C 60.93 36.77 57.54 38.95 54.11 40.99 C 54.07 40.49 53.98 39.51 53.94 39.01 C 57.24 28.23 61.08 17.46 64.64 6.69 Z" />
</g>
<g id="#ae6f20fd">
<path fill="#ae6f20" opacity="1.00" d=" M 72.95 7.94 L 73.73 8.21 C 77.33 16.87 81.31 25.43 84.26 34.33 C 80.60 34.50 77.06 35.31 73.60 36.53 C 68.14 40.13 67.86 33.80 67.22 30.78 C 66.96 29.44 66.66 28.10 66.30 26.77 C 65.57 20.93 66.12 15.00 67.15 9.22 C 69.73 8.72 66.45 15.78 69.90 15.97 C 71.16 13.39 71.58 10.48 72.95 7.94 Z" />
</g>
<g id="#965b19fe">
<path fill="#965b19" opacity="1.00" d=" M 66.30 26.77 C 66.66 28.10 66.96 29.44 67.22 30.78 C 67.02 34.48 66.35 45.34 73.90 41.60 C 78.88 40.76 83.34 44.48 88.26 44.33 C 89.58 45.02 89.39 48.12 91.00 49.35 C 90.73 49.86 90.21 50.86 89.95 51.37 L 89.26 50.77 C 87.08 48.67 84.46 45.00 81.02 46.75 C 77.25 45.17 73.11 46.00 69.27 44.72 C 66.79 43.78 68.17 37.69 65.02 39.95 C 64.98 38.59 64.93 37.22 64.88 35.85 C 65.28 32.81 66.02 29.83 66.30 26.77 Z" />
</g>
<g id="#9f611cfd">
<path fill="#9f611c" opacity="1.00" d=" M 67.22 30.78 C 67.86 33.80 68.14 40.13 73.60 36.53 C 77.06 35.31 80.60 34.50 84.26 34.33 C 85.90 36.53 87.15 41.10 88.26 44.33 C 83.34 44.48 78.88 40.76 73.90 41.60 C 66.35 45.34 67.02 34.48 67.22 30.78 Z" />
</g>
<g id="#b37422fc">
<path fill="#b37422" opacity="1.00" d=" M 54.11 40.99 C 57.54 38.95 60.93 36.77 64.88 35.85 C 64.93 37.22 64.98 38.59 65.02 39.95 C 65.00 40.42 64.96 41.35 64.94 41.81 C 60.38 42.56 56.49 45.04 52.82 47.68 C 52.34 47.55 51.37 47.30 50.89 47.17 C 51.20 44.43 52.38 40.82 53.94 39.01 C 53.98 39.51 54.07 40.49 54.11 40.99 Z" />
<path fill="#b37422" opacity="1.00" d=" M 38.36 88.75 C 39.87 91.34 41.40 96.61 45.21 95.33 C 44.27 97.34 43.34 99.37 42.69 101.50 C 40.91 104.04 43.53 105.97 44.83 107.95 C 43.32 110.05 41.87 112.18 40.31 114.23 C 39.70 108.28 38.36 102.40 36.37 96.76 C 35.99 94.09 36.88 91.01 38.36 88.75 Z" />
</g>
<g id="#8b5015ff">
<path fill="#8b5015" opacity="1.00" d=" M 65.02 39.95 C 68.17 37.69 66.79 43.78 69.27 44.72 C 73.11 46.00 77.25 45.17 81.02 46.75 L 80.99 47.61 C 79.46 49.07 77.97 50.57 76.43 52.01 C 72.88 49.97 68.85 49.10 64.82 48.88 C 64.53 46.53 64.96 44.17 64.94 41.81 C 64.96 41.35 65.00 40.42 65.02 39.95 Z" />
</g>
<g id="#a4681ffc">
<path fill="#a4681f" opacity="1.00" d=" M 52.82 47.68 C 56.49 45.04 60.38 42.56 64.94 41.81 C 64.96 44.17 64.53 46.53 64.82 48.88 C 61.93 49.94 55.79 48.31 53.97 51.22 C 53.88 51.75 53.69 52.79 53.60 53.32 C 51.61 51.46 51.03 48.31 48.02 47.60 C 47.41 47.00 46.81 46.41 46.20 45.82 C 45.28 44.09 49.72 44.87 49.39 46.68 C 49.76 46.80 50.51 47.05 50.89 47.17 C 51.37 47.30 52.34 47.55 52.82 47.68 Z" />
</g>
<g id="#eacd51fa">
<path fill="#eacd51" opacity="0.98" d=" M 42.05 48.18 C 43.55 47.60 44.84 46.64 46.20 45.82 C 46.81 46.41 47.41 47.00 48.02 47.60 C 45.85 48.80 43.92 50.38 41.71 51.49 C 40.90 50.36 41.37 49.22 42.05 48.18 Z" />
</g>
<g id="#cea440ff">
<path fill="#cea440" opacity="1.00" d=" M 81.02 46.75 C 84.46 45.00 87.08 48.67 89.26 50.77 C 88.76 51.07 87.77 51.69 87.27 51.99 C 85.73 49.83 83.45 48.49 80.99 47.61 L 81.02 46.75 Z" />
</g>
<g id="#ba7923fb">
<path fill="#ba7923" opacity="1.00" d=" M 34.99 47.97 C 36.76 48.03 40.29 48.13 42.05 48.18 C 41.37 49.22 40.90 50.36 41.71 51.49 C 42.08 52.61 42.48 53.71 42.88 54.81 C 38.10 56.98 35.65 62.36 30.86 64.42 C 29.15 63.89 27.45 63.30 25.72 62.81 L 26.30 62.38 C 31.22 59.01 34.78 54.05 39.73 50.71 C 41.17 47.78 36.59 49.46 35.00 48.96 L 34.99 47.97 Z" />
</g>
<g id="#fcea57ff">
<path fill="#fcea57" opacity="1.00" d=" M 41.71 51.49 C 43.92 50.38 45.85 48.80 48.02 47.60 C 49.24 51.79 51.33 55.63 53.15 59.58 C 52.37 62.10 50.49 63.68 47.96 64.33 C 46.71 62.39 45.58 60.38 44.09 58.61 C 43.77 57.32 43.38 56.05 42.88 54.81 C 42.48 53.71 42.08 52.61 41.71 51.49 Z" />
</g>
<g id="#be972fff">
<path fill="#be972f" opacity="1.00" d=" M 48.02 47.60 C 51.03 48.31 51.61 51.46 53.60 53.32 C 53.91 54.60 54.19 55.89 54.58 57.16 C 55.02 58.75 55.60 60.29 56.15 61.85 C 55.92 62.16 55.44 62.80 55.21 63.11 C 54.53 61.93 53.84 60.75 53.15 59.58 C 51.33 55.63 49.24 51.79 48.02 47.60 Z" />
</g>
<g id="#f6d54eff">
<path fill="#f6d54e" opacity="1.00" d=" M 76.43 52.01 C 77.97 50.57 79.46 49.07 80.99 47.61 C 83.45 48.49 85.73 49.83 87.27 51.99 C 84.32 55.55 81.53 59.22 78.82 62.96 C 77.26 65.10 75.45 67.04 73.84 69.14 C 71.81 68.44 69.12 67.78 68.90 65.21 C 69.26 63.76 69.67 62.30 69.44 60.80 C 70.36 58.65 72.42 56.71 71.92 54.20 C 68.42 51.02 63.08 52.59 58.96 52.92 C 56.59 52.80 55.25 55.21 54.58 57.16 C 54.19 55.89 53.91 54.60 53.60 53.32 C 53.69 52.79 53.88 51.75 53.97 51.22 C 60.46 53.16 68.46 48.15 73.99 53.18 C 74.73 54.52 75.68 52.31 76.43 52.01 Z" />
</g>
<g id="#d18f2bfd">
<path fill="#d18f2b" opacity="1.00" d=" M 19.91 49.71 C 24.91 48.97 29.96 48.94 35.00 48.96 C 36.59 49.46 41.17 47.78 39.73 50.71 C 34.78 54.05 31.22 59.01 26.30 62.38 C 19.51 60.38 12.99 57.55 6.42 54.93 C 6.45 56.05 6.50 57.17 6.37 58.29 C 3.07 58.31 4.49 52.75 6.73 51.75 C 10.59 49.37 15.63 50.47 19.91 49.71 Z" />
</g>
<g id="#d2a73dff">
<path fill="#d2a73d" opacity="1.00" d=" M 53.97 51.22 C 55.79 48.31 61.93 49.94 64.82 48.88 C 68.85 49.10 72.88 49.97 76.43 52.01 C 75.68 52.31 74.73 54.52 73.99 53.18 C 68.46 48.15 60.46 53.16 53.97 51.22 Z" />
</g>
<g id="#b87722fd">
<path fill="#b87722" opacity="1.00" d=" M 91.00 49.35 C 92.91 48.77 95.32 48.57 96.88 50.07 C 103.41 53.10 101.86 62.86 108.94 65.13 L 109.25 65.75 C 106.52 66.14 103.84 66.80 101.09 67.08 C 97.54 61.70 94.92 55.65 89.95 51.37 C 90.21 50.86 90.73 49.86 91.00 49.35 Z" />
</g>
<g id="#ce8d2afc">
<path fill="#ce8d2a" opacity="1.00" d=" M 96.88 50.07 C 109.96 50.89 123.30 52.33 135.87 56.21 C 135.99 56.73 136.21 57.77 136.32 58.29 C 127.47 61.52 118.12 63.12 108.94 65.13 C 101.86 62.86 103.41 53.10 96.88 50.07 Z" />
</g>
<g id="#7f4d15ff">
<path fill="#7f4d15" opacity="1.00" d=" M 87.27 51.99 C 87.77 51.69 88.76 51.07 89.26 50.77 C 88.57 52.68 88.04 54.66 87.97 56.70 C 87.05 57.76 86.08 58.78 85.03 59.71 C 84.78 59.94 84.28 60.40 84.03 60.63 C 83.77 60.87 83.25 61.35 82.99 61.59 C 82.02 62.49 81.07 63.40 80.11 64.31 C 79.79 63.97 79.15 63.30 78.82 62.96 C 81.53 59.22 84.32 55.55 87.27 51.99 Z" />
</g>
<g id="#a9671cff">
<path fill="#a9671c" opacity="1.00" d=" M 89.26 50.77 L 89.95 51.37 C 94.92 55.65 97.54 61.70 101.09 67.08 L 101.06 67.98 C 100.32 68.07 98.84 68.24 98.10 68.33 C 93.62 65.38 92.30 59.77 87.97 56.70 C 88.04 54.66 88.57 52.68 89.26 50.77 Z" />
</g>
<g id="#feef56ff">
<path fill="#feef56" opacity="1.00" d=" M 58.96 52.92 C 63.08 52.59 68.42 51.02 71.92 54.20 C 72.42 56.71 70.36 58.65 69.44 60.80 C 67.92 62.90 67.16 66.49 62.97 64.03 C 60.08 65.13 57.21 64.48 56.15 61.85 C 55.60 60.29 55.02 58.75 54.58 57.16 C 55.25 55.21 56.59 52.80 58.96 52.92 Z" />
</g>
<g id="#aa6e20fc">
<path fill="#aa6e20" opacity="1.00" d=" M 6.42 54.93 C 12.99 57.55 19.51 60.38 26.30 62.38 L 25.72 62.81 C 23.96 62.83 23.76 63.22 25.10 63.98 C 25.56 67.35 25.01 70.38 22.18 72.28 C 17.28 67.58 10.03 63.79 6.37 58.29 C 6.50 57.17 6.45 56.05 6.42 54.93 Z" />
</g>
<g id="#ae6d1fff">
<path fill="#ae6d1f" opacity="1.00" d=" M 30.86 64.42 C 35.65 62.36 38.10 56.98 42.88 54.81 C 43.38 56.05 43.77 57.32 44.09 58.61 C 41.34 60.74 40.08 64.10 38.39 67.03 C 36.99 66.56 35.58 66.16 34.18 65.70 C 33.07 65.27 31.97 64.84 30.86 64.42 Z" />
</g>
<g id="#975b1aff">
<path fill="#975b1a" opacity="1.00" d=" M 85.03 59.71 C 86.08 58.78 87.05 57.76 87.97 56.70 C 92.30 59.77 93.62 65.38 98.10 68.33 C 96.66 68.52 93.77 68.89 92.32 69.08 C 92.60 70.69 92.89 72.30 93.11 73.92 C 92.56 74.03 91.47 74.26 90.92 74.37 C 90.66 69.25 90.29 61.97 85.03 59.71 Z" />
</g>
<g id="#915417ff">
<path fill="#915417" opacity="1.00" d=" M 136.32 58.29 C 139.53 58.82 135.79 65.56 133.00 65.84 C 125.34 66.17 120.13 74.64 112.02 73.03 C 108.82 74.76 106.12 72.44 104.91 69.99 C 104.96 67.51 110.59 68.09 109.25 65.75 L 108.94 65.13 C 118.12 63.12 127.47 61.52 136.32 58.29 Z" />
</g>
<g id="#f5d551ff">
<path fill="#f5d551" opacity="1.00" d=" M 38.39 67.03 C 40.08 64.10 41.34 60.74 44.09 58.61 C 44.98 63.27 48.25 66.84 50.32 70.97 C 48.60 72.00 47.45 74.69 45.10 73.91 C 42.27 73.32 39.83 71.73 37.62 69.93 C 37.81 69.20 38.20 67.75 38.39 67.03 Z" />
</g>
<g id="#e2bb2dff">
<path fill="#e2bb2d" opacity="1.00" d=" M 44.09 58.61 C 45.58 60.38 46.71 62.39 47.96 64.33 C 48.96 65.96 50.05 67.53 51.19 69.07 C 50.98 69.54 50.54 70.50 50.32 70.97 C 48.25 66.84 44.98 63.27 44.09 58.61 Z" />
</g>
<g id="#f7d24cff">
<path fill="#f7d24c" opacity="1.00" d=" M 47.96 64.33 C 50.49 63.68 52.37 62.10 53.15 59.58 C 53.84 60.75 54.53 61.93 55.21 63.11 C 55.52 64.07 55.83 65.04 56.11 66.01 C 56.07 66.71 55.97 68.11 55.93 68.80 L 55.08 69.00 C 53.79 69.03 52.49 69.05 51.19 69.07 C 50.05 67.53 48.96 65.96 47.96 64.33 Z" />
</g>
<g id="#ad822cff">
<path fill="#ad822c" opacity="1.00" d=" M 84.03 60.63 C 84.28 60.40 84.78 59.94 85.03 59.71 C 90.29 61.97 90.66 69.25 90.92 74.37 C 89.54 74.61 86.76 75.09 85.37 75.34 L 84.97 74.30 C 85.73 74.17 87.23 73.92 87.99 73.80 C 87.98 69.30 89.17 62.81 84.03 60.63 Z" />
</g>
<g id="#e1b82aff">
<path fill="#e1b82a" opacity="1.00" d=" M 69.44 60.80 C 69.67 62.30 69.26 63.76 68.90 65.21 C 64.68 66.03 60.38 66.01 56.11 66.01 C 55.83 65.04 55.52 64.07 55.21 63.11 C 55.44 62.80 55.92 62.16 56.15 61.85 C 57.21 64.48 60.08 65.13 62.97 64.03 C 67.16 66.49 67.92 62.90 69.44 60.80 Z" />
</g>
<g id="#c99f3bff">
<path fill="#c99f3b" opacity="1.00" d=" M 82.99 61.59 C 83.25 61.35 83.77 60.87 84.03 60.63 C 89.17 62.81 87.98 69.30 87.99 73.80 C 87.23 73.92 85.73 74.17 84.97 74.30 L 83.95 74.07 C 84.39 69.85 86.47 65.02 82.99 61.59 Z" />
</g>
<g id="#e1b742ff">
<path fill="#e1b742" opacity="1.00" d=" M 80.11 64.31 C 81.07 63.40 82.02 62.49 82.99 61.59 C 86.47 65.02 84.39 69.85 83.95 74.07 C 81.44 74.26 78.82 75.54 76.35 74.76 C 75.47 73.15 74.66 71.51 73.71 69.93 C 76.03 68.27 78.18 66.40 80.11 64.31 Z" />
</g>
<g id="#925817ff">
<path fill="#925817" opacity="1.00" d=" M 25.10 63.98 C 23.76 63.22 23.96 62.83 25.72 62.81 C 27.45 63.30 29.15 63.89 30.86 64.42 C 31.97 64.84 33.07 65.27 34.18 65.70 C 33.62 65.80 32.50 66.00 31.94 66.10 C 33.33 67.98 35.05 69.57 36.67 71.24 L 37.22 71.86 C 35.87 72.01 34.52 72.19 33.18 72.40 C 32.73 72.23 31.84 71.89 31.39 71.72 C 32.72 67.01 28.30 65.29 25.10 63.98 Z" />
</g>
<g id="#9e7015ff">
<path fill="#9e7015" opacity="1.00" d=" M 73.84 69.14 C 75.45 67.04 77.26 65.10 78.82 62.96 C 79.15 63.30 79.79 63.97 80.11 64.31 C 78.18 66.40 76.03 68.27 73.71 69.93 L 73.84 69.14 Z" />
</g>
<g id="#a0631cfc">
<path fill="#a0631c" opacity="1.00" d=" M 25.10 63.98 C 28.30 65.29 32.72 67.01 31.39 71.72 C 31.84 71.89 32.73 72.23 33.18 72.40 C 32.06 72.70 30.95 72.99 29.83 73.26 C 28.14 73.76 29.35 76.63 28.92 78.05 C 26.95 76.08 22.74 74.79 22.18 72.28 C 25.01 70.38 25.56 67.35 25.10 63.98 Z" />
</g>
<g id="#e0b744ff">
<path fill="#e0b744" opacity="1.00" d=" M 56.11 66.01 C 60.38 66.01 64.68 66.03 68.90 65.21 C 69.12 67.78 71.81 68.44 73.84 69.14 L 73.71 69.93 C 72.40 72.36 75.37 74.74 76.08 76.93 C 79.20 76.58 82.34 76.17 85.37 75.34 C 86.76 75.09 89.54 74.61 90.92 74.37 C 91.47 74.26 92.56 74.03 93.11 73.92 C 95.58 74.09 97.95 74.79 100.35 75.34 C 97.96 75.53 95.58 75.81 93.22 76.17 C 91.19 78.23 92.06 81.49 91.19 84.08 C 85.90 83.93 80.61 83.96 75.32 84.17 C 74.73 85.39 74.21 86.64 73.71 87.89 C 72.57 89.38 73.15 90.92 74.50 91.99 C 74.91 92.45 75.73 93.39 76.14 93.85 C 73.87 94.63 71.52 95.09 69.11 95.06 C 68.88 94.76 68.43 94.16 68.20 93.86 C 65.31 91.88 60.59 93.14 57.13 92.35 C 55.69 93.51 54.84 95.19 54.08 96.84 C 52.68 99.85 50.98 102.70 49.05 105.40 C 46.87 104.21 44.92 102.62 42.69 101.50 C 43.34 99.37 44.27 97.34 45.21 95.33 C 46.68 93.78 48.49 92.40 49.25 90.34 C 44.64 92.37 40.74 88.20 39.93 83.94 C 43.01 83.87 46.11 83.95 49.11 84.69 C 48.77 83.77 48.41 82.85 48.03 81.95 C 47.99 79.96 48.00 77.96 48.03 75.96 C 48.82 74.31 49.60 72.65 50.32 70.97 C 50.54 70.50 50.98 69.54 51.19 69.07 C 52.49 69.05 53.79 69.03 55.08 69.00 C 53.25 71.81 50.26 74.43 50.96 78.13 C 51.12 79.67 51.45 82.76 51.61 84.30 C 52.04 85.36 52.75 86.26 53.57 87.05 C 53.83 87.30 54.34 87.81 54.60 88.06 C 55.26 88.77 55.99 89.38 56.81 89.89 C 57.72 90.54 58.72 90.89 59.82 90.92 C 67.16 93.64 73.63 86.77 72.99 79.83 C 72.99 79.34 72.98 78.34 72.98 77.84 C 73.07 76.65 72.81 75.54 72.20 74.52 C 71.92 74.06 71.37 73.15 71.09 72.70 C 70.55 72.03 69.96 71.39 69.33 70.81 C 69.01 70.52 68.37 69.96 68.06 69.67 C 66.70 68.57 65.01 67.76 63.21 68.02 C 60.77 68.13 58.34 68.39 55.93 68.80 C 55.97 68.11 56.07 66.71 56.11 66.01 Z" />
</g>
<g id="#7f4912ff">
<path fill="#7f4912" opacity="1.00" d=" M 31.94 66.10 C 32.50 66.00 33.62 65.80 34.18 65.70 C 35.58 66.16 36.99 66.56 38.39 67.03 C 38.20 67.75 37.81 69.20 37.62 69.93 C 37.38 70.25 36.91 70.91 36.67 71.24 C 35.05 69.57 33.33 67.98 31.94 66.10 Z" />
</g>
<g id="#814512fc">
<path fill="#814512" opacity="1.00" d=" M 101.09 67.08 C 103.84 66.80 106.52 66.14 109.25 65.75 C 110.59 68.09 104.96 67.51 104.91 69.99 C 106.12 72.44 108.82 74.76 112.02 73.03 C 120.13 74.64 125.34 66.17 133.00 65.84 C 126.13 71.15 118.68 77.29 111.26 81.95 C 111.38 78.75 108.13 81.29 106.32 80.80 C 105.51 79.84 104.81 78.79 104.00 77.83 C 102.58 78.68 103.00 80.83 102.28 82.20 C 101.84 80.45 101.43 78.70 101.05 76.95 C 101.11 76.54 101.24 75.71 101.31 75.30 C 101.72 73.52 99.41 72.13 100.21 70.31 C 101.37 69.20 104.70 67.53 101.06 67.98 L 101.09 67.08 Z" />
</g>
<g id="#fc524dff">
<path fill="#fc524d" opacity="1.00" d=" M 55.93 68.80 C 58.34 68.39 60.77 68.13 63.21 68.02 C 61.81 73.25 56.56 78.02 50.96 78.13 C 50.26 74.43 53.25 71.81 55.08 69.00 L 55.93 68.80 Z" />
</g>
<g id="#e94744ff">
<path fill="#e94744" opacity="1.00" d=" M 63.21 68.02 C 65.01 67.76 66.70 68.57 68.06 69.67 C 64.83 73.59 61.63 77.67 56.90 79.87 C 55.05 81.26 52.04 81.63 51.61 84.30 C 51.45 82.76 51.12 79.67 50.96 78.13 C 56.56 78.02 61.81 73.25 63.21 68.02 Z" />
</g>
<g id="#753d0fff">
<path fill="#753d0f" opacity="1.00" d=" M 98.10 68.33 C 98.84 68.24 100.32 68.07 101.06 67.98 C 104.70 67.53 101.37 69.20 100.21 70.31 C 99.41 72.13 101.72 73.52 101.31 75.30 L 100.35 75.34 C 97.95 74.79 95.58 74.09 93.11 73.92 C 92.89 72.30 92.60 70.69 92.32 69.08 C 93.77 68.89 96.66 68.52 98.10 68.33 Z" />
</g>
<g id="#d6b12cff">
<path fill="#d6b12c" opacity="1.00" d=" M 36.67 71.24 C 36.91 70.91 37.38 70.25 37.62 69.93 C 39.83 71.73 42.27 73.32 45.10 73.91 C 47.45 74.69 48.60 72.00 50.32 70.97 C 49.60 72.65 48.82 74.31 48.03 75.96 C 44.15 75.41 39.96 74.97 37.22 71.86 L 36.67 71.24 Z" />
</g>
<g id="#d33f3dff">
<path fill="#d33f3d" opacity="1.00" d=" M 56.90 79.87 C 61.63 77.67 64.83 73.59 68.06 69.67 C 68.37 69.96 69.01 70.52 69.33 70.81 C 65.39 77.20 59.36 83.24 51.61 84.30 C 52.04 81.63 55.05 81.26 56.90 79.87 Z" />
</g>
<g id="#c09822ff">
<path fill="#c09822" opacity="1.00" d=" M 76.08 76.93 C 75.37 74.74 72.40 72.36 73.71 69.93 C 74.66 71.51 75.47 73.15 76.35 74.76 C 78.82 75.54 81.44 74.26 83.95 74.07 L 84.97 74.30 L 85.37 75.34 C 82.34 76.17 79.20 76.58 76.08 76.93 Z" />
</g>
<g id="#be3b38ff">
<path fill="#be3b38" opacity="1.00" d=" M 69.33 70.81 C 69.96 71.39 70.55 72.03 71.09 72.70 C 66.78 79.18 60.19 83.29 53.57 87.05 C 52.75 86.26 52.04 85.36 51.61 84.30 C 59.36 83.24 65.39 77.20 69.33 70.81 Z" />
</g>
<g id="#f7ef5dff">
<path fill="#f7ef5d" opacity="1.00" d=" M 33.18 72.40 C 34.52 72.19 35.87 72.01 37.22 71.86 C 37.50 76.00 32.09 72.88 29.83 73.26 C 30.95 72.99 32.06 72.70 33.18 72.40 Z" />
</g>
<g id="#f2d050fe">
<path fill="#f2d050" opacity="1.00" d=" M 37.22 71.86 C 39.96 74.97 44.15 75.41 48.03 75.96 C 48.00 77.96 47.99 79.96 48.03 81.95 C 42.98 81.97 37.94 82.02 32.90 82.03 C 30.61 81.86 28.16 80.79 28.92 78.05 C 29.35 76.63 28.14 73.76 29.83 73.26 C 32.09 72.88 37.50 76.00 37.22 71.86 Z" />
</g>
<g id="#a93431ff">
<path fill="#a93431" opacity="1.00" d=" M 53.57 87.05 C 60.19 83.29 66.78 79.18 71.09 72.70 C 71.37 73.15 71.92 74.06 72.20 74.52 C 67.44 80.23 62.17 86.35 54.60 88.06 C 54.34 87.81 53.83 87.30 53.57 87.05 Z" />
</g>
<g id="#922e2bff">
<path fill="#922e2b" opacity="1.00" d=" M 54.60 88.06 C 62.17 86.35 67.44 80.23 72.20 74.52 C 72.81 75.54 73.07 76.65 72.98 77.84 C 68.33 82.79 62.72 86.62 56.81 89.89 C 55.99 89.38 55.26 88.77 54.60 88.06 Z" />
</g>
<g id="#c9a03eff">
<path fill="#c9a03e" opacity="1.00" d=" M 100.35 75.34 L 101.31 75.30 C 101.24 75.71 101.11 76.54 101.05 76.95 C 100.57 76.94 99.60 76.94 99.12 76.93 C 98.62 76.93 97.62 76.93 97.12 76.93 C 93.21 75.76 97.18 81.70 95.83 82.76 C 94.82 84.38 92.78 83.83 91.19 84.08 C 92.06 81.49 91.19 78.23 93.22 76.17 C 95.58 75.81 97.96 75.53 100.35 75.34 Z" />
</g>
<g id="#b68c36ff">
<path fill="#b68c36" opacity="1.00" d=" M 95.83 82.76 C 97.18 81.70 93.21 75.76 97.12 76.93 C 98.76 80.78 98.92 85.62 93.80 85.47 C 93.07 85.32 91.60 85.03 90.87 84.88 L 91.19 84.08 C 92.78 83.83 94.82 84.38 95.83 82.76 Z" />
</g>
<g id="#a56f27ff">
<path fill="#a56f27" opacity="1.00" d=" M 97.12 76.93 C 97.62 76.93 98.62 76.93 99.12 76.93 C 99.52 79.25 99.83 81.59 100.05 83.94 C 97.45 85.51 101.01 84.98 102.23 85.19 C 99.43 85.68 96.57 86.36 93.80 85.47 C 98.92 85.62 98.76 80.78 97.12 76.93 Z" />
</g>
<g id="#8d5b20ff">
<path fill="#8d5b20" opacity="1.00" d=" M 99.12 76.93 C 99.60 76.94 100.57 76.94 101.05 76.95 C 101.43 78.70 101.84 80.45 102.28 82.20 C 102.15 83.51 101.41 84.09 100.05 83.94 C 99.83 81.59 99.52 79.25 99.12 76.93 Z" />
</g>
<g id="#782423ff">
<path fill="#782423" opacity="1.00" d=" M 56.81 89.89 C 62.72 86.62 68.33 82.79 72.98 77.84 C 72.98 78.34 72.99 79.34 72.99 79.83 C 69.55 84.50 65.10 88.46 59.82 90.92 C 58.72 90.89 57.72 90.54 56.81 89.89 Z" />
</g>
<g id="#753c0ffb">
<path fill="#753c0f" opacity="1.00" d=" M 102.28 82.20 C 103.00 80.83 102.58 78.68 104.00 77.83 C 104.81 78.79 105.51 79.84 106.32 80.80 C 108.13 81.29 111.38 78.75 111.26 81.95 C 109.87 83.80 108.23 85.70 106.25 86.89 C 105.35 85.41 103.90 84.92 102.23 85.19 C 101.01 84.98 97.45 85.51 100.05 83.94 C 101.41 84.09 102.15 83.51 102.28 82.20 Z" />
</g>
<g id="#5b1e1aff">
<path fill="#5b1e1a" opacity="1.00" d=" M 59.82 90.92 C 65.10 88.46 69.55 84.50 72.99 79.83 C 73.63 86.77 67.16 93.64 59.82 90.92 Z" />
</g>
<g id="#ad8322f7">
<path fill="#ad8322" opacity="0.97" d=" M 32.90 82.03 C 37.94 82.02 42.98 81.97 48.03 81.95 C 48.41 82.85 48.77 83.77 49.11 84.69 C 46.11 83.95 43.01 83.87 39.93 83.94 C 38.85 84.05 37.79 84.28 36.75 84.62 C 34.85 85.64 33.85 83.22 32.90 82.03 Z" />
</g>
<g id="#cea83fff">
<path fill="#cea83f" opacity="1.00" d=" M 36.75 84.62 C 37.79 84.28 38.85 84.05 39.93 83.94 C 40.74 88.20 44.64 92.37 49.25 90.34 C 48.49 92.40 46.68 93.78 45.21 95.33 C 41.40 96.61 39.87 91.34 38.36 88.75 C 37.85 87.36 37.33 85.98 36.75 84.62 Z" />
</g>
<g id="#9c701cff">
<path fill="#9c701c" opacity="1.00" d=" M 75.32 84.17 C 80.61 83.96 85.90 83.93 91.19 84.08 L 90.87 84.88 C 89.90 85.11 88.93 85.34 87.97 85.60 C 86.75 85.78 85.52 85.93 84.29 86.06 C 80.37 84.23 76.36 84.51 73.71 87.89 C 74.21 86.64 74.73 85.39 75.32 84.17 Z" />
</g>
<g id="#c09635ff">
<path fill="#c09635" opacity="1.00" d=" M 73.71 87.89 C 76.36 84.51 80.37 84.23 84.29 86.06 C 83.61 89.44 81.20 92.21 77.94 93.36 C 76.86 92.59 75.92 90.59 74.50 91.99 C 73.15 90.92 72.57 89.38 73.71 87.89 Z" />
</g>
<g id="#804c17fe">
<path fill="#804c17" opacity="1.00" d=" M 87.97 85.60 C 88.93 85.34 89.90 85.11 90.87 84.88 C 91.60 85.03 93.07 85.32 93.80 85.47 C 96.57 86.36 99.43 85.68 102.23 85.19 C 103.90 84.92 105.35 85.41 106.25 86.89 C 106.07 89.72 105.35 92.57 103.91 95.03 C 102.66 94.84 101.43 94.58 100.18 94.45 C 95.29 96.86 91.28 100.54 87.48 104.33 C 86.47 102.75 85.55 101.07 84.07 99.87 C 83.80 99.63 83.26 99.14 82.99 98.90 C 86.03 95.47 91.78 92.41 90.95 87.18 C 90.00 86.57 89.01 86.04 87.97 85.60 Z" />
</g>
<g id="#ac8130ff">
<path fill="#ac8130" opacity="1.00" d=" M 84.29 86.06 C 85.52 85.93 86.75 85.78 87.97 85.60 C 88.47 90.03 84.54 92.97 81.80 95.85 C 80.33 95.35 79.01 94.49 77.94 93.36 C 81.20 92.21 83.61 89.44 84.29 86.06 Z" />
</g>
<g id="#986a21ff">
<path fill="#986a21" opacity="1.00" d=" M 87.97 85.60 C 89.01 86.04 90.00 86.57 90.95 87.18 C 91.78 92.41 86.03 95.47 82.99 98.90 C 81.59 97.97 80.23 97.00 78.82 96.08 C 77.93 95.34 77.04 94.59 76.14 93.85 C 75.73 93.39 74.91 92.45 74.50 91.99 C 75.92 90.59 76.86 92.59 77.94 93.36 C 79.01 94.49 80.33 95.35 81.80 95.85 C 84.54 92.97 88.47 90.03 87.97 85.60 Z" />
</g>
<g id="#ac8320ff">
<path fill="#ac8320" opacity="1.00" d=" M 57.13 92.35 C 60.59 93.14 65.31 91.88 68.20 93.86 L 68.14 94.78 C 64.50 94.39 60.82 94.63 57.19 94.11 C 56.03 95.22 55.90 96.87 55.45 98.32 L 54.93 97.77 C 54.72 97.53 54.29 97.07 54.08 96.84 C 54.84 95.19 55.69 93.51 57.13 92.35 Z" />
</g>
<g id="#c69e3cff">
<path fill="#c69e3c" opacity="1.00" d=" M 57.19 94.11 C 60.82 94.63 64.50 94.39 68.14 94.78 C 69.49 101.13 58.39 103.50 55.45 98.32 C 55.90 96.87 56.03 95.22 57.19 94.11 Z" />
</g>
<g id="#b78d35ff">
<path fill="#b78d35" opacity="1.00" d=" M 68.20 93.86 C 68.43 94.16 68.88 94.76 69.11 95.06 C 69.72 96.27 70.32 97.48 70.95 98.68 C 70.83 98.99 70.58 99.61 70.45 99.92 C 67.74 105.21 54.60 106.57 54.79 98.70 L 54.93 97.77 L 55.45 98.32 C 58.39 103.50 69.49 101.13 68.14 94.78 L 68.20 93.86 Z" />
</g>
<g id="#d2aa42ff">
<path fill="#d2aa42" opacity="1.00" d=" M 69.11 95.06 C 71.52 95.09 73.87 94.63 76.14 93.85 C 77.04 94.59 77.93 95.34 78.82 96.08 C 79.29 97.01 79.78 97.92 80.29 98.83 C 79.14 101.54 77.42 103.89 74.13 102.98 C 73.07 101.55 72.01 100.12 70.95 98.68 C 70.32 97.48 69.72 96.27 69.11 95.06 Z" />
</g>
<g id="#885118fe">
<path fill="#885118" opacity="1.00" d=" M 100.18 94.45 C 101.43 94.58 102.66 94.84 103.91 95.03 L 103.77 95.89 C 102.41 97.90 101.20 100.46 98.00 100.01 C 91.49 100.55 85.39 110.65 91.95 115.14 C 92.35 116.10 92.72 117.08 93.03 118.08 C 90.60 116.15 88.60 113.69 86.04 111.93 C 83.03 113.56 80.24 115.73 78.82 118.94 C 76.80 117.56 74.82 115.88 72.26 115.73 C 64.86 117.68 63.45 110.48 58.93 107.08 C 63.74 106.61 70.75 108.22 74.20 103.73 C 75.21 104.84 76.18 105.97 77.08 107.17 C 77.62 107.93 78.21 108.66 78.85 109.33 C 82.11 111.45 86.81 107.72 87.48 104.33 C 91.28 100.54 95.29 96.86 100.18 94.45 Z" />
</g>
<g id="#ab7f2fff">
<path fill="#ab7f2f" opacity="1.00" d=" M 78.82 96.08 C 80.23 97.00 81.59 97.97 82.99 98.90 C 83.26 99.14 83.80 99.63 84.07 99.87 C 84.26 101.82 84.98 103.76 84.79 105.74 C 83.27 107.61 81.42 109.31 78.85 109.33 C 78.21 108.66 77.62 107.93 77.08 107.17 C 79.35 106.38 82.15 105.45 83.06 103.01 C 82.44 101.44 81.37 100.10 80.29 98.83 C 79.78 97.92 79.29 97.01 78.82 96.08 Z" />
</g>
<g id="#945618fd">
<path fill="#945618" opacity="1.00" d=" M 98.00 100.01 C 101.20 100.46 102.41 97.90 103.77 95.89 C 104.67 98.54 105.53 101.24 105.88 104.02 C 100.90 104.54 95.73 105.06 92.19 109.16 C 89.97 110.51 91.69 113.21 91.95 115.14 C 85.39 110.65 91.49 100.55 98.00 100.01 Z" />
</g>
<g id="#cc8c2afa">
<path fill="#cc8c2a" opacity="0.98" d=" M 36.37 96.76 C 38.36 102.40 39.70 108.28 40.31 114.23 C 40.18 114.66 39.93 115.53 39.80 115.96 C 36.08 121.03 32.66 126.35 29.72 131.91 C 27.57 131.52 27.76 128.88 28.38 127.30 C 31.52 117.26 32.74 106.64 36.37 96.76 Z" />
</g>
<g id="#814713fc">
<path fill="#814713" opacity="1.00" d=" M 54.08 96.84 C 54.29 97.07 54.72 97.53 54.93 97.77 L 54.79 98.70 C 54.52 100.20 54.00 103.21 53.73 104.72 C 53.26 106.10 51.00 107.97 52.75 109.23 C 56.15 111.56 58.46 115.00 60.18 118.71 C 55.72 122.24 50.63 124.85 45.81 127.82 C 44.28 128.76 42.82 130.11 40.89 129.99 C 40.40 125.24 47.05 125.24 48.42 121.38 C 50.10 118.53 51.18 114.06 47.73 112.19 C 44.33 111.01 43.12 116.14 39.80 115.96 C 39.93 115.53 40.18 114.66 40.31 114.23 C 41.87 112.18 43.32 110.05 44.83 107.95 C 45.75 108.68 46.72 109.36 47.74 109.96 C 48.17 108.44 48.59 106.92 49.05 105.40 C 50.98 102.70 52.68 99.85 54.08 96.84 Z" />
</g>
<g id="#a77b2dff">
<path fill="#a77b2d" opacity="1.00" d=" M 53.73 104.72 C 54.00 103.21 54.52 100.20 54.79 98.70 C 54.60 106.57 67.74 105.21 70.45 99.92 C 70.95 101.18 72.04 102.34 71.87 103.77 C 66.53 106.76 60.42 105.50 54.67 105.03 L 53.73 104.72 Z" />
</g>
<g id="#9a6b24ff">
<path fill="#9a6b24" opacity="1.00" d=" M 70.45 99.92 C 70.58 99.61 70.83 98.99 70.95 98.68 C 72.01 100.12 73.07 101.55 74.13 102.98 L 74.20 103.73 C 70.75 108.22 63.74 106.61 58.93 107.08 C 57.51 106.38 56.08 105.73 54.67 105.03 C 60.42 105.50 66.53 106.76 71.87 103.77 C 72.04 102.34 70.95 101.18 70.45 99.92 Z" />
</g>
<g id="#c2993cff">
<path fill="#c2993c" opacity="1.00" d=" M 80.29 98.83 C 81.37 100.10 82.44 101.44 83.06 103.01 C 82.15 105.45 79.35 106.38 77.08 107.17 C 76.18 105.97 75.21 104.84 74.20 103.73 L 74.13 102.98 C 77.42 103.89 79.14 101.54 80.29 98.83 Z" />
</g>
<g id="#9b6b27ff">
<path fill="#9b6b27" opacity="1.00" d=" M 84.07 99.87 C 85.55 101.07 86.47 102.75 87.48 104.33 C 86.81 107.72 82.11 111.45 78.85 109.33 C 81.42 109.31 83.27 107.61 84.79 105.74 C 84.98 103.76 84.26 101.82 84.07 99.87 Z" />
</g>
<g id="#bf983dff">
<path fill="#bf983d" opacity="1.00" d=" M 44.83 107.95 C 43.53 105.97 40.91 104.04 42.69 101.50 C 44.92 102.62 46.87 104.21 49.05 105.40 C 48.59 106.92 48.17 108.44 47.74 109.96 C 46.72 109.36 45.75 108.68 44.83 107.95 Z" />
</g>
<g id="#a3661dfc">
<path fill="#a3661d" opacity="1.00" d=" M 92.19 109.16 C 95.73 105.06 100.90 104.54 105.88 104.02 C 108.73 114.24 110.79 124.69 113.02 135.06 L 112.05 135.18 C 108.74 135.18 106.40 132.70 103.84 130.99 C 104.75 133.62 106.84 135.60 108.17 138.02 C 105.03 137.82 102.71 135.32 100.07 133.90 C 93.16 128.71 85.40 124.46 78.82 118.94 C 80.24 115.73 83.03 113.56 86.04 111.93 C 88.60 113.69 90.60 116.15 93.03 118.08 C 92.72 117.08 92.35 116.10 91.95 115.14 C 91.69 113.21 89.97 110.51 92.19 109.16 Z" />
</g>
<g id="#723b0ffa">
<path fill="#723b0f" opacity="0.98" d=" M 52.75 109.23 C 51.00 107.97 53.26 106.10 53.73 104.72 L 54.67 105.03 C 56.08 105.73 57.51 106.38 58.93 107.08 C 63.45 110.48 64.86 117.68 72.26 115.73 C 67.41 114.18 63.97 116.94 60.18 118.71 C 58.46 115.00 56.15 111.56 52.75 109.23 Z" />
</g>
<g id="#8f5216fe">
<path fill="#8f5216" opacity="1.00" d=" M 39.80 115.96 C 43.12 116.14 44.33 111.01 47.73 112.19 C 51.18 114.06 50.10 118.53 48.42 121.38 C 47.05 125.24 40.40 125.24 40.89 129.99 C 38.96 132.29 31.78 136.63 29.72 131.91 C 32.66 126.35 36.08 121.03 39.80 115.96 Z" />
</g>
<g id="#8b5316fb">
<path fill="#8b5316" opacity="1.00" d=" M 103.84 130.99 C 106.40 132.70 108.74 135.18 112.05 135.18 C 111.03 136.44 110.10 138.36 108.17 138.02 C 106.84 135.60 104.75 133.62 103.84 130.99 Z" />
</g>
</svg>
