<?xml version="1.0" encoding="UTF-8" ?>
<!DOCTYPE svg PUBLIC "-//W3C//DTD SVG 1.1//EN" "http://www.w3.org/Graphics/SVG/1.1/DTD/svg11.dtd">
<svg width="192pt" height="176pt" viewBox="0 0 192 176" version="1.1" xmlns="http://www.w3.org/2000/svg">
<g id="#69889ef9">
<path fill="#69889e" opacity="0.98" d=" M 97.27 22.03 C 99.84 18.53 104.93 19.17 108.78 19.14 C 111.56 19.52 114.35 19.89 117.14 20.18 L 117.12 21.37 C 111.29 21.07 105.34 19.72 99.68 21.90 C 99.08 21.93 97.87 22.00 97.27 22.03 Z" />
</g>
<g id="#556a87ff">
<path fill="#556a87" opacity="1.00" d=" M 108.78 19.14 C 115.06 19.30 122.17 19.88 126.94 24.46 C 124.31 27.62 121.84 30.90 119.10 33.96 C 118.31 33.24 117.53 32.51 116.74 31.79 C 115.47 33.13 113.88 34.30 113.13 36.05 C 113.76 39.31 115.98 42.44 114.87 45.86 C 113.39 50.86 113.93 56.08 113.80 61.21 C 112.59 58.94 111.16 56.65 110.85 54.05 C 111.37 50.54 112.67 47.20 113.96 43.91 C 111.76 41.42 109.45 39.02 107.11 36.67 C 107.09 33.04 108.96 29.68 108.85 26.09 C 105.97 24.33 102.63 23.52 99.68 21.90 C 105.34 19.72 111.29 21.07 117.12 21.37 L 117.14 20.18 C 114.35 19.89 111.56 19.52 108.78 19.14 Z" />
</g>
<g id="#4e6381ff">
<path fill="#4e6381" opacity="1.00" d=" M 119.10 33.96 C 121.84 30.90 124.31 27.62 126.94 24.46 C 127.38 25.62 127.83 26.78 128.27 27.94 C 128.05 28.40 127.62 29.31 127.40 29.76 C 127.12 29.37 126.56 28.57 126.28 28.17 C 125.93 32.19 125.12 36.21 125.35 40.25 C 125.85 44.91 129.33 49.47 127.26 54.19 C 125.80 57.97 120.83 56.37 117.77 57.70 C 117.03 59.00 116.47 60.38 115.88 61.75 C 116.97 62.17 118.06 62.57 119.16 62.95 L 117.48 62.86 C 117.11 62.84 116.38 62.79 116.02 62.77 C 115.46 62.69 114.34 62.53 113.78 62.44 L 113.80 61.21 C 113.93 56.08 113.39 50.86 114.87 45.86 C 115.98 42.44 113.76 39.31 113.13 36.05 C 113.88 34.30 115.47 33.13 116.74 31.79 C 117.53 32.51 118.31 33.24 119.10 33.96 Z" />
</g>
<g id="#475572ff">
<path fill="#475572" opacity="1.00" d=" M 126.28 28.17 C 126.56 28.57 127.12 29.37 127.40 29.76 C 127.62 29.31 128.05 28.40 128.27 27.94 C 129.42 32.83 129.01 37.88 129.70 42.82 C 130.30 47.42 133.27 51.14 134.78 55.42 C 134.45 55.32 133.79 55.11 133.46 55.01 C 133.19 54.92 132.64 54.75 132.37 54.67 C 131.56 56.87 131.16 59.62 128.95 60.91 C 126.59 62.02 123.99 62.51 121.47 63.10 C 120.89 63.07 119.74 62.99 119.16 62.95 C 118.06 62.57 116.97 62.17 115.88 61.75 C 116.47 60.38 117.03 59.00 117.77 57.70 C 120.83 56.37 125.80 57.97 127.26 54.19 C 129.33 49.47 125.85 44.91 125.35 40.25 C 125.12 36.21 125.93 32.19 126.28 28.17 Z" />
</g>
<g id="#404764ff">
<path fill="#404764" opacity="1.00" d=" M 132.37 54.67 C 132.64 54.75 133.19 54.92 133.46 55.01 C 133.79 55.11 134.45 55.32 134.78 55.42 L 135.00 55.49 C 135.36 56.44 135.71 57.39 136.06 58.35 C 136.24 58.87 136.61 59.92 136.79 60.44 L 136.52 61.60 C 131.64 62.97 126.53 63.61 121.47 63.10 C 123.99 62.51 126.59 62.02 128.95 60.91 C 131.16 59.62 131.56 56.87 132.37 54.67 Z" />
<path fill="#404764" opacity="1.00" d=" M 114.75 80.39 C 115.63 79.01 116.68 77.75 117.85 76.60 C 117.79 77.52 117.66 79.35 117.60 80.26 C 117.53 80.33 117.39 80.45 117.33 80.52 C 116.68 80.49 115.40 80.42 114.75 80.39 Z" />
<path fill="#404764" opacity="1.00" d=" M 71.78 152.47 C 72.64 150.94 74.17 150.07 75.74 149.40 C 77.49 150.15 77.80 152.04 77.93 153.70 C 76.02 152.69 73.97 151.89 71.78 152.47 Z" />
</g>
<g id="#fff6f2ff">
<path fill="#fff6f2" opacity="1.00" d=" M 136.06 58.35 C 140.62 60.02 144.86 62.67 148.01 66.42 C 143.94 65.12 140.18 63.05 136.79 60.44 C 136.61 59.92 136.24 58.87 136.06 58.35 Z" />
<path fill="#fff6f2" opacity="1.00" d=" M 142.79 79.23 C 143.67 76.19 147.48 76.48 149.96 75.68 C 150.57 76.11 151.16 76.57 151.74 77.04 C 151.52 77.23 151.07 77.61 150.84 77.80 C 151.23 79.53 151.29 81.27 151.04 83.01 C 150.63 81.82 150.17 80.64 149.70 79.48 C 148.41 78.75 147.03 78.20 145.58 77.93 L 145.15 78.21 C 144.63 78.51 143.60 79.12 143.08 79.42 L 142.79 79.23 Z" />
<path fill="#fff6f2" opacity="1.00" d=" M 150.44 86.69 C 151.87 85.84 153.40 85.16 154.92 84.48 C 156.13 85.86 158.36 86.88 158.25 89.01 C 157.82 90.83 157.27 92.62 156.60 94.36 C 155.16 94.33 153.71 94.29 152.27 94.29 L 153.23 93.97 C 155.29 93.43 157.62 91.25 156.17 89.04 C 155.23 86.49 151.24 86.33 150.68 89.25 C 149.53 92.71 146.20 94.54 142.67 94.44 C 143.07 94.20 143.86 93.73 144.25 93.50 C 147.43 92.38 149.26 89.69 150.44 86.69 Z" />
<path fill="#fff6f2" opacity="1.00" d=" M 141.60 116.90 C 143.77 117.01 145.90 117.53 147.63 118.90 C 147.44 121.65 147.46 124.42 147.42 127.18 C 145.72 123.62 143.22 120.50 141.60 116.90 Z" />
</g>
<g id="#ef6685ff">
<path fill="#ef6685" opacity="1.00" d=" M 89.00 59.93 C 91.90 59.80 94.86 59.46 97.69 60.30 C 95.85 60.69 94.04 61.15 92.22 61.60 C 92.16 63.55 92.11 65.50 92.09 67.45 C 90.04 67.94 87.98 68.40 85.92 68.83 C 86.34 65.85 87.64 63.10 88.81 60.36 L 89.00 59.93 Z" />
</g>
<g id="#da6480ff">
<path fill="#da6480" opacity="1.00" d=" M 97.69 60.30 C 98.19 60.48 99.18 60.83 99.68 61.01 C 98.48 61.55 97.29 62.09 96.09 62.63 C 97.76 65.80 99.29 69.03 100.76 72.29 C 99.83 74.60 99.15 77.01 98.23 79.33 C 96.99 81.33 95.76 83.52 93.71 84.79 C 91.23 85.91 88.56 86.55 86.06 87.63 C 85.47 87.50 84.28 87.24 83.69 87.11 C 83.85 86.46 84.16 85.14 84.32 84.49 C 87.40 83.46 90.87 82.62 92.96 79.92 C 95.99 76.31 96.05 70.42 92.09 67.45 C 92.11 65.50 92.16 63.55 92.22 61.60 C 94.04 61.15 95.85 60.69 97.69 60.30 Z" />
</g>
<g id="#fe7c98ff">
<path fill="#fe7c98" opacity="1.00" d=" M 77.65 70.91 C 79.01 65.53 83.85 62.13 88.81 60.36 C 87.64 63.10 86.34 65.85 85.92 68.83 C 86.32 71.50 87.06 74.17 86.82 76.89 C 85.07 80.01 82.18 82.31 80.09 85.20 C 77.75 80.89 75.73 75.78 77.65 70.91 Z" />
<path fill="#fe7c98" opacity="1.00" d=" M 122.93 83.21 C 124.75 82.74 125.49 85.72 123.69 86.20 C 121.74 86.87 120.93 83.56 122.93 83.21 Z" />
<path fill="#fe7c98" opacity="1.00" d=" M 155.01 100.04 C 157.66 99.16 158.50 103.53 155.93 103.92 C 153.78 104.20 153.33 100.76 155.01 100.04 Z" />
</g>
<g id="#c34a6bff">
<path fill="#c34a6b" opacity="1.00" d=" M 99.68 61.01 C 102.27 62.48 104.70 64.30 106.00 67.08 C 104.09 68.64 102.30 70.36 100.76 72.29 C 99.29 69.03 97.76 65.80 96.09 62.63 C 97.29 62.09 98.48 61.55 99.68 61.01 Z" />
</g>
<g id="#f7cdd1ff">
<path fill="#f7cdd1" opacity="1.00" d=" M 136.79 60.44 C 140.18 63.05 143.94 65.12 148.01 66.42 C 149.70 67.83 150.56 69.99 151.71 71.82 C 148.55 70.12 145.16 67.32 141.33 68.51 C 139.46 69.61 137.87 71.12 136.04 72.30 C 133.96 73.53 130.87 74.22 131.06 77.23 C 131.87 78.55 132.72 79.85 133.68 81.07 C 133.48 83.39 133.44 85.73 133.21 88.05 C 131.61 85.28 129.01 82.77 125.58 84.19 C 125.46 83.69 125.23 82.69 125.12 82.19 C 125.81 82.18 127.20 82.17 127.90 82.16 C 127.66 81.55 127.19 80.31 126.96 79.69 C 124.49 79.65 121.86 79.76 120.29 81.98 L 121.65 82.07 C 120.89 83.80 120.57 85.65 121.37 87.45 C 122.03 87.51 123.36 87.63 124.03 87.69 C 123.63 87.93 122.84 88.41 122.45 88.66 C 122.17 88.83 121.62 89.19 121.34 89.36 C 121.19 89.69 120.89 90.36 120.73 90.69 C 119.79 92.83 118.52 94.81 117.12 96.67 C 112.65 92.35 108.41 87.54 105.81 81.84 C 106.39 80.18 107.68 78.92 108.69 77.52 C 108.97 77.95 109.51 78.82 109.79 79.25 C 110.68 80.67 111.73 82.00 112.90 83.20 C 114.66 82.84 116.22 81.95 117.33 80.52 C 117.39 80.45 117.53 80.33 117.60 80.26 C 118.64 79.30 119.72 78.39 120.76 77.42 C 121.50 75.68 122.11 73.08 119.92 72.08 C 116.65 70.10 113.28 73.22 111.14 75.47 C 110.61 75.50 109.56 75.55 109.03 75.58 C 110.43 70.89 112.17 66.05 116.02 62.77 C 116.38 62.79 117.11 62.84 117.48 62.86 C 118.19 64.54 118.46 66.89 120.55 67.45 C 125.85 69.22 131.45 67.53 136.87 67.35 C 136.71 65.43 136.55 63.52 136.52 61.60 L 136.79 60.44 Z" />
<path fill="#f7cdd1" opacity="1.00" d=" M 83.27 140.31 C 83.39 140.03 83.63 139.47 83.75 139.20 C 85.75 140.40 87.78 141.63 89.32 143.42 C 87.28 142.54 85.20 141.72 83.13 140.92 L 83.27 140.31 Z" />
</g>
<g id="#fffaf6ff">
<path fill="#fffaf6" opacity="1.00" d=" M 106.00 67.08 C 108.41 65.25 111.04 63.72 113.78 62.44 C 114.34 62.53 115.46 62.69 116.02 62.77 C 112.17 66.05 110.43 70.89 109.03 75.58 C 109.56 75.55 110.61 75.50 111.14 75.47 C 110.65 76.72 110.22 77.99 109.79 79.25 C 109.51 78.82 108.97 77.95 108.69 77.52 L 108.35 76.99 C 105.89 79.29 103.86 82.38 100.39 83.18 C 102.46 87.65 102.47 92.87 105.39 97.00 C 102.80 94.69 101.08 91.62 99.70 88.47 C 99.56 88.04 99.29 87.16 99.15 86.73 C 98.59 84.30 98.39 81.81 98.23 79.33 C 99.15 77.01 99.83 74.60 100.76 72.29 C 102.30 70.36 104.09 68.64 106.00 67.08 M 100.41 78.79 L 99.07 79.37 C 99.53 79.60 100.45 80.05 100.91 80.27 C 104.96 78.98 108.08 75.12 109.05 71.03 C 109.68 69.23 108.26 67.93 107.14 66.79 C 104.06 70.15 100.53 73.99 100.41 78.79 Z" />
<path fill="#fffaf6" opacity="1.00" d=" M 32.88 100.34 C 33.99 99.64 35.07 98.91 36.14 98.15 C 36.73 98.65 37.32 99.15 37.91 99.65 C 37.01 99.93 36.11 100.21 35.21 100.49 C 34.48 101.92 33.75 103.35 33.00 104.77 C 32.80 103.30 32.76 101.83 32.88 100.34 Z" />
</g>
<g id="#f7b6c0ff">
<path fill="#f7b6c0" opacity="1.00" d=" M 121.47 63.10 C 126.53 63.61 131.64 62.97 136.52 61.60 C 136.55 63.52 136.71 65.43 136.87 67.35 C 131.45 67.53 125.85 69.22 120.55 67.45 C 118.46 66.89 118.19 64.54 117.48 62.86 L 119.16 62.95 C 119.74 62.99 120.89 63.07 121.47 63.10 Z" />
</g>
<g id="#e8738fff">
<path fill="#e8738f" opacity="1.00" d=" M 85.92 68.83 C 87.98 68.40 90.04 67.94 92.09 67.45 C 96.05 70.42 95.99 76.31 92.96 79.92 C 90.87 82.62 87.40 83.46 84.32 84.49 C 84.16 85.14 83.85 86.46 83.69 87.11 C 83.33 87.00 82.62 86.77 82.26 86.65 C 81.51 86.21 80.79 85.72 80.09 85.20 C 82.18 82.31 85.07 80.01 86.82 76.89 C 87.06 74.17 86.32 71.50 85.92 68.83 Z" />
</g>
<g id="#ff9cb5ff">
<path fill="#ff9cb5" opacity="1.00" d=" M 100.41 78.79 C 100.53 73.99 104.06 70.15 107.14 66.79 C 108.71 71.80 105.24 77.26 100.41 78.79 Z" />
</g>
<g id="#dc848eff">
<path fill="#dc848e" opacity="1.00" d=" M 107.14 66.79 C 108.26 67.93 109.68 69.23 109.05 71.03 C 108.08 75.12 104.96 78.98 100.91 80.27 C 100.45 80.05 99.53 79.60 99.07 79.37 L 100.41 78.79 C 105.24 77.26 108.71 71.80 107.14 66.79 Z" />
</g>
<g id="#e1afb8ff">
<path fill="#e1afb8" opacity="1.00" d=" M 141.33 68.51 C 145.16 67.32 148.55 70.12 151.71 71.82 L 152.30 72.17 L 152.08 73.52 C 152.04 73.77 151.96 74.26 151.92 74.51 C 150.01 73.77 148.12 72.83 146.06 72.65 C 143.16 74.57 141.71 77.85 140.23 80.85 C 140.22 80.19 140.21 78.87 140.20 78.21 C 139.67 78.26 138.62 78.37 138.09 78.42 C 137.93 78.07 137.60 77.38 137.43 77.04 L 137.16 76.46 C 140.67 75.89 137.45 73.29 136.04 72.30 C 137.87 71.12 139.46 69.61 141.33 68.51 Z" />
</g>
<g id="#917a7fff">
<path fill="#917a7f" opacity="1.00" d=" M 111.14 75.47 C 113.28 73.22 116.65 70.10 119.92 72.08 C 122.11 73.08 121.50 75.68 120.76 77.42 C 120.56 75.92 120.27 74.45 119.87 73.00 C 116.72 71.36 113.32 74.30 111.67 76.84 C 110.14 78.99 112.17 81.20 112.90 83.20 C 111.73 82.00 110.68 80.67 109.79 79.25 C 110.22 77.99 110.65 76.72 111.14 75.47 Z" />
<path fill="#917a7f" opacity="1.00" d=" M 125.58 84.19 C 129.01 82.77 131.61 85.28 133.21 88.05 C 132.52 89.27 131.77 90.45 131.03 91.64 L 131.05 89.89 C 131.45 87.92 130.41 86.23 129.20 84.79 C 128.77 86.13 128.36 87.49 127.96 88.85 C 127.81 89.38 127.51 90.43 127.36 90.96 C 126.94 89.46 126.52 87.96 126.13 86.45 C 125.99 85.88 125.72 84.76 125.58 84.19 Z" />
<path fill="#917a7f" opacity="1.00" d=" M 125.64 96.23 C 123.64 96.44 120.80 95.59 121.47 93.06 C 122.77 93.77 124.11 94.42 125.40 95.18 C 125.46 95.44 125.58 95.97 125.64 96.23 Z" />
<path fill="#917a7f" opacity="1.00" d=" M 155.49 135.04 L 155.94 134.40 C 154.93 138.30 155.46 142.31 155.90 146.25 C 155.60 144.60 155.23 142.96 154.89 141.32 C 152.83 141.74 150.77 142.14 148.70 142.47 C 148.53 142.15 148.19 141.52 148.02 141.20 C 150.86 139.61 153.79 137.95 155.49 135.04 Z" />
</g>
<g id="#fcfcfcff">
<path fill="#fcfcfc" opacity="1.00" d=" M 111.67 76.84 C 113.32 74.30 116.72 71.36 119.87 73.00 C 120.27 74.45 120.56 75.92 120.76 77.42 C 119.72 78.39 118.64 79.30 117.60 80.26 C 117.66 79.35 117.79 77.52 117.85 76.60 C 116.68 77.75 115.63 79.01 114.75 80.39 C 115.40 80.42 116.68 80.49 117.33 80.52 C 116.22 81.95 114.66 82.84 112.90 83.20 C 112.17 81.20 110.14 78.99 111.67 76.84 Z" />
<path fill="#fcfcfc" opacity="1.00" d=" M 57.00 79.02 C 58.36 78.51 59.72 78.02 61.09 77.55 C 62.26 78.21 63.41 78.90 64.55 79.62 C 63.89 80.40 63.24 81.18 62.59 81.96 C 60.89 81.71 59.20 81.49 57.50 81.28 C 57.33 82.12 56.98 83.80 56.81 84.64 C 55.51 82.85 56.25 80.84 57.00 79.02 Z" />
</g>
<g id="#f9eceeff">
<path fill="#f9ecee" opacity="1.00" d=" M 131.06 77.23 C 130.87 74.22 133.96 73.53 136.04 72.30 C 137.45 73.29 140.67 75.89 137.16 76.46 C 135.01 74.77 132.91 75.47 131.06 77.23 Z" />
</g>
<g id="#c995a1ff">
<path fill="#c995a1" opacity="1.00" d=" M 140.23 80.85 C 141.71 77.85 143.16 74.57 146.06 72.65 C 148.12 72.83 150.01 73.77 151.92 74.51 C 151.96 74.26 152.04 73.77 152.08 73.52 L 152.22 72.77 C 152.39 73.32 152.74 74.43 152.92 74.98 C 153.05 75.83 153.32 77.53 153.46 78.39 C 153.03 78.05 152.17 77.38 151.74 77.04 C 151.16 76.57 150.57 76.11 149.96 75.68 C 147.48 76.48 143.67 76.19 142.79 79.23 C 142.30 80.48 142.42 81.85 142.35 83.16 C 141.80 85.23 141.01 87.27 139.65 88.94 C 136.14 89.38 135.10 84.04 135.99 81.35 C 136.46 79.90 136.98 78.48 137.43 77.04 C 137.60 77.38 137.93 78.07 138.09 78.42 C 138.62 78.37 139.67 78.26 140.20 78.21 C 140.21 78.87 140.22 80.19 140.23 80.85 Z" />
</g>
<g id="#ede1e1ff">
<path fill="#ede1e1" opacity="1.00" d=" M 44.52 76.37 C 46.84 74.07 50.30 75.63 51.93 77.94 C 50.94 78.12 49.95 78.31 48.97 78.51 C 47.21 78.89 45.48 79.36 43.74 79.80 C 44.46 81.17 45.18 82.54 45.96 83.89 C 43.32 82.52 41.27 78.18 44.52 76.37 Z" />
</g>
<g id="#9e3552ff">
<path fill="#9e3552" opacity="1.00" d=" M 131.06 77.23 C 132.91 75.47 135.01 74.77 137.16 76.46 L 137.43 77.04 C 136.98 78.48 136.46 79.90 135.99 81.35 C 135.42 81.28 134.26 81.14 133.68 81.07 C 132.72 79.85 131.87 78.55 131.06 77.23 M 132.41 76.78 C 131.52 80.11 135.52 80.59 136.90 78.17 C 135.77 76.49 134.28 75.42 132.41 76.78 Z" />
<path fill="#9e3552" opacity="1.00" d=" M 121.65 82.07 C 122.52 82.10 124.25 82.16 125.12 82.19 C 125.23 82.69 125.46 83.69 125.58 84.19 C 125.72 84.76 125.99 85.88 126.13 86.45 C 125.60 86.76 124.55 87.38 124.03 87.69 C 123.36 87.63 122.03 87.51 121.37 87.45 C 120.57 85.65 120.89 83.80 121.65 82.07 M 122.93 83.21 C 120.93 83.56 121.74 86.87 123.69 86.20 C 125.49 85.72 124.75 82.74 122.93 83.21 Z" />
<path fill="#9e3552" opacity="1.00" d=" M 150.68 89.25 C 151.24 86.33 155.23 86.49 156.17 89.04 C 157.62 91.25 155.29 93.43 153.23 93.97 C 151.87 92.69 150.86 91.13 150.68 89.25 M 153.06 88.14 C 150.95 88.22 151.04 91.76 153.11 91.76 C 155.68 92.53 155.40 87.29 153.06 88.14 Z" />
<path fill="#9e3552" opacity="1.00" d=" M 153.13 100.43 C 153.65 99.99 154.68 99.11 155.19 98.67 C 156.25 99.06 157.31 99.44 158.37 99.83 C 158.55 101.39 158.71 102.96 158.86 104.53 C 157.52 104.96 156.18 105.40 154.85 105.83 C 153.81 104.19 153.14 102.38 153.13 100.43 M 155.01 100.04 C 153.33 100.76 153.78 104.20 155.93 103.92 C 158.50 103.53 157.66 99.16 155.01 100.04 Z" />
<path fill="#9e3552" opacity="1.00" d=" M 125.61 135.65 C 127.89 135.07 129.24 132.97 130.79 131.39 C 131.07 132.85 131.33 134.33 131.68 135.78 C 131.99 136.13 132.61 136.83 132.92 137.18 C 133.30 137.57 134.06 138.35 134.44 138.74 C 131.19 143.06 124.26 143.88 119.80 140.91 L 119.63 140.48 C 119.06 138.94 118.24 137.50 117.40 136.10 C 120.14 136.12 122.93 136.29 125.61 135.65 Z" />
</g>
<g id="#4f6583ff">
<path fill="#4f6583" opacity="1.00" d=" M 152.92 74.98 C 153.40 76.14 153.82 77.33 154.39 78.45 C 158.39 81.72 162.75 85.13 168.10 85.57 C 172.50 85.98 177.05 86.76 180.80 89.25 C 182.79 91.34 183.87 94.10 184.61 96.86 C 183.66 96.36 182.74 95.84 181.76 95.42 C 180.34 98.54 180.84 103.94 176.39 104.41 C 172.71 104.66 168.68 103.99 165.81 106.90 C 164.47 104.76 162.79 102.85 160.88 101.21 C 160.21 98.54 158.11 96.75 155.32 96.69 C 155.52 96.40 155.92 95.81 156.12 95.52 L 156.60 94.36 C 157.27 92.62 157.82 90.83 158.25 89.01 C 158.36 86.88 156.13 85.86 154.92 84.48 C 153.40 85.16 151.87 85.84 150.44 86.69 C 150.01 86.36 149.15 85.70 148.73 85.37 C 149.56 84.65 150.35 83.87 151.04 83.01 C 151.29 81.27 151.23 79.53 150.84 77.80 C 151.07 77.61 151.52 77.23 151.74 77.04 C 152.17 77.38 153.03 78.05 153.46 78.39 C 153.32 77.53 153.05 75.83 152.92 74.98 Z" />
</g>
<g id="#f27995ff">
<path fill="#f27995" opacity="1.00" d=" M 132.41 76.78 C 134.28 75.42 135.77 76.49 136.90 78.17 C 135.52 80.59 131.52 80.11 132.41 76.78 Z" />
</g>
<g id="#885660ff">
<path fill="#885660" opacity="1.00" d=" M 100.39 83.18 C 103.86 82.38 105.89 79.29 108.35 76.99 L 108.69 77.52 C 107.68 78.92 106.39 80.18 105.81 81.84 C 108.41 87.54 112.65 92.35 117.12 96.67 C 118.34 97.80 119.62 98.87 120.88 99.96 C 122.49 99.12 124.11 98.30 125.68 97.41 L 125.69 98.61 C 123.94 100.14 121.61 101.14 120.36 103.16 C 120.03 104.99 120.70 106.80 121.04 108.59 C 121.61 105.15 123.34 102.15 126.06 99.99 C 126.25 100.34 126.62 101.04 126.80 101.39 C 125.44 103.15 122.75 104.80 123.52 107.38 C 124.29 110.51 128.27 109.84 130.72 110.38 L 130.78 110.64 L 130.01 111.51 C 127.74 111.33 125.47 111.11 123.20 110.83 C 120.01 109.30 118.99 105.17 115.45 104.22 C 111.39 102.94 108.36 99.88 105.39 97.00 C 102.47 92.87 102.46 87.65 100.39 83.18 M 103.66 82.46 C 102.78 85.16 105.50 86.69 107.15 88.24 C 106.39 86.09 105.46 83.95 103.66 82.46 M 102.36 86.23 C 102.85 93.84 108.25 101.31 115.88 103.03 C 112.19 96.88 107.92 90.81 102.36 86.23 Z" />
<path fill="#885660" opacity="1.00" d=" M 145.58 77.93 C 147.03 78.20 148.41 78.75 149.70 79.48 C 149.58 81.25 149.47 83.02 149.34 84.79 C 147.84 84.49 146.34 84.18 144.85 83.86 C 146.18 83.17 147.50 82.48 148.83 81.78 C 147.90 80.30 146.63 79.12 145.15 78.21 L 145.58 77.93 Z" />
</g>
<g id="#be9ea6fd">
<path fill="#be9ea6" opacity="1.00" d=" M 48.97 78.51 C 49.95 78.31 50.94 78.12 51.93 77.94 C 52.00 79.62 52.01 81.32 52.43 82.96 C 52.55 83.08 52.77 83.33 52.89 83.45 L 54.37 83.97 L 54.10 84.81 C 53.87 85.55 53.39 87.03 53.16 87.77 C 52.03 87.30 50.92 86.82 49.81 86.33 C 48.80 85.74 48.03 84.92 47.47 83.85 L 48.17 83.18 C 50.64 83.25 51.70 80.86 49.14 79.80 L 48.97 78.51 Z" />
</g>
<g id="#be6579fb">
<path fill="#be6579" opacity="1.00" d=" M 43.74 79.80 C 45.48 79.36 47.21 78.89 48.97 78.51 L 49.14 79.80 C 48.77 80.92 48.44 82.04 48.17 83.18 L 47.47 83.85 C 47.10 83.86 46.34 83.88 45.96 83.89 C 45.18 82.54 44.46 81.17 43.74 79.80 Z" />
</g>
<g id="#c5586eff">
<path fill="#c5586e" opacity="1.00" d=" M 93.71 84.79 C 95.76 83.52 96.99 81.33 98.23 79.33 C 98.39 81.81 98.59 84.30 99.15 86.73 C 98.36 87.37 97.56 88.00 96.75 88.63 C 95.95 89.24 95.14 89.85 94.30 90.41 L 92.88 91.31 C 91.46 91.24 90.07 90.96 88.68 90.75 C 87.81 89.70 86.94 88.66 86.06 87.63 C 88.56 86.55 91.23 85.91 93.71 84.79 Z" />
</g>
<g id="#ff799cff">
<path fill="#ff799c" opacity="1.00" d=" M 142.35 83.16 C 142.42 81.85 142.30 80.48 142.79 79.23 L 143.08 79.42 C 143.60 79.12 144.63 78.51 145.15 78.21 C 146.63 79.12 147.90 80.30 148.83 81.78 C 147.50 82.48 146.18 83.17 144.85 83.86 C 144.14 83.15 143.45 82.42 142.77 81.68 L 142.35 83.16 Z" />
</g>
<g id="#e3d0d9ff">
<path fill="#e3d0d9" opacity="1.00" d=" M 37.52 79.58 L 38.04 80.14 C 38.70 81.00 39.34 81.89 39.96 82.78 C 38.33 82.94 36.70 83.11 35.07 83.31 L 35.05 83.76 C 34.98 85.12 34.95 86.48 34.97 87.85 L 35.79 88.12 C 37.23 88.31 38.66 88.50 40.10 88.69 C 40.35 88.74 40.83 88.83 41.07 88.88 C 39.97 88.82 37.77 88.69 36.67 88.63 C 38.74 91.55 42.26 91.67 45.49 91.56 C 46.05 91.57 47.16 91.59 47.72 91.60 C 47.63 90.73 47.55 89.85 47.47 88.98 C 46.51 87.81 45.56 86.64 44.60 85.47 C 46.33 85.92 47.94 86.69 49.49 87.55 C 49.57 87.25 49.73 86.63 49.81 86.33 C 50.92 86.82 52.03 87.30 53.16 87.77 C 53.39 87.03 53.87 85.55 54.10 84.81 C 55.23 85.47 56.38 86.10 57.54 86.71 L 59.30 86.26 L 58.83 86.54 L 58.40 86.80 C 58.89 87.38 59.88 88.56 60.38 89.14 C 58.78 91.84 56.97 94.49 54.55 96.51 C 52.16 98.45 49.06 99.07 46.42 100.55 C 46.49 100.88 46.63 101.55 46.69 101.89 C 45.07 102.19 43.44 102.49 41.82 102.81 C 41.55 103.53 41.29 104.25 41.03 104.98 C 40.04 102.39 37.96 100.79 35.21 100.49 C 36.11 100.21 37.01 99.93 37.91 99.65 C 37.32 99.15 36.73 98.65 36.14 98.15 C 37.58 98.39 39.05 98.58 40.29 99.43 C 42.23 98.76 44.15 97.99 45.86 96.83 C 43.60 96.20 41.30 95.73 38.98 95.43 C 38.33 94.18 37.69 92.92 36.96 91.72 C 35.34 91.64 33.71 91.76 32.09 91.84 C 32.08 93.20 32.08 94.57 32.08 95.94 C 33.83 96.04 35.58 96.15 37.34 96.19 C 34.95 97.33 30.97 97.09 30.43 93.92 C 29.01 90.96 32.36 88.25 35.08 88.03 C 34.28 86.98 33.51 85.91 32.76 84.82 C 33.21 83.69 33.68 82.56 34.15 81.44 C 35.29 80.84 36.41 80.22 37.52 79.58 Z" />
</g>
<g id="#c3a1aaff">
<path fill="#c3a1aa" opacity="1.00" d=" M 38.04 80.14 C 41.39 80.17 41.79 84.14 44.49 85.33 L 44.60 85.47 C 45.56 86.64 46.51 87.81 47.47 88.98 C 47.55 89.85 47.63 90.73 47.72 91.60 C 47.16 91.59 46.05 91.57 45.49 91.56 C 44.07 90.59 42.62 89.64 41.07 88.88 C 40.83 88.83 40.35 88.74 40.10 88.69 C 40.36 87.24 40.62 85.79 40.87 84.34 C 40.22 84.22 38.92 83.98 38.26 83.86 C 37.46 83.83 35.85 83.78 35.05 83.76 L 35.07 83.31 C 36.70 83.11 38.33 82.94 39.96 82.78 C 39.34 81.89 38.70 81.00 38.04 80.14 Z" />
</g>
<g id="#995663ff">
<path fill="#995663" opacity="1.00" d=" M 49.14 79.80 C 51.70 80.86 50.64 83.25 48.17 83.18 C 48.44 82.04 48.77 80.92 49.14 79.80 Z" />
</g>
<g id="#bb989dff">
<path fill="#bb989d" opacity="1.00" d=" M 64.55 79.62 C 65.96 82.12 64.95 84.84 62.99 86.71 C 63.55 91.22 65.58 95.43 65.40 100.05 C 64.17 101.71 62.92 103.35 61.67 105.00 C 60.57 105.09 59.46 105.14 58.36 105.16 C 57.79 104.83 56.67 104.18 56.10 103.85 C 57.77 102.70 60.00 101.97 60.87 99.99 C 62.45 96.53 61.58 92.57 60.38 89.14 C 59.88 88.56 58.89 87.38 58.40 86.80 L 58.83 86.54 C 59.99 85.74 61.47 85.72 62.81 85.40 C 62.71 84.54 62.61 83.69 62.51 82.84 L 62.59 81.96 C 63.24 81.18 63.89 80.40 64.55 79.62 Z" />
</g>
<g id="#faececff">
<path fill="#faecec" opacity="1.00" d=" M 120.29 81.98 C 121.86 79.76 124.49 79.65 126.96 79.69 C 127.19 80.31 127.66 81.55 127.90 82.16 C 127.20 82.17 125.81 82.18 125.12 82.19 C 124.25 82.16 122.52 82.10 121.65 82.07 L 120.29 81.98 Z" />
</g>
<g id="#dccbd5ff">
<path fill="#dccbd5" opacity="1.00" d=" M 149.70 79.48 C 150.17 80.64 150.63 81.82 151.04 83.01 C 150.35 83.87 149.56 84.65 148.73 85.37 C 145.20 86.52 144.24 90.16 144.25 93.50 C 143.86 93.73 143.07 94.20 142.67 94.44 C 146.20 94.54 149.53 92.71 150.68 89.25 C 150.86 91.13 151.87 92.69 153.23 93.97 L 152.27 94.29 C 152.01 94.38 151.50 94.54 151.24 94.62 C 150.28 94.98 149.33 95.35 148.39 95.74 C 148.37 96.58 148.33 98.27 148.32 99.12 C 148.50 101.29 150.39 102.61 151.90 103.91 C 151.27 103.87 150.01 103.79 149.39 103.76 C 144.04 103.98 140.36 108.72 135.20 109.59 C 133.56 109.00 132.06 108.10 130.50 107.35 C 134.14 106.15 139.13 105.29 140.04 100.83 C 139.36 98.27 137.55 96.12 135.56 94.43 C 133.63 92.86 131.09 94.26 128.91 94.31 C 127.26 94.64 126.27 92.90 125.18 91.97 C 124.26 90.88 123.37 89.75 122.45 88.66 C 122.84 88.41 123.63 87.93 124.03 87.69 C 124.55 87.38 125.60 86.76 126.13 86.45 C 126.52 87.96 126.94 89.46 127.36 90.96 C 127.51 90.43 127.81 89.38 127.96 88.85 C 128.46 90.23 128.95 91.61 129.46 92.99 C 130.00 91.96 130.54 90.93 131.05 89.89 L 131.03 91.64 C 131.77 90.45 132.52 89.27 133.21 88.05 C 133.44 85.73 133.48 83.39 133.68 81.07 C 134.26 81.14 135.42 81.28 135.99 81.35 C 135.10 84.04 136.14 89.38 139.65 88.94 C 141.01 87.27 141.80 85.23 142.35 83.16 L 142.77 81.68 C 143.45 82.42 144.14 83.15 144.85 83.86 C 146.34 84.18 147.84 84.49 149.34 84.79 C 149.47 83.02 149.58 81.25 149.70 79.48 Z" />
</g>
<g id="#de6e86ff">
<path fill="#de6e86" opacity="1.00" d=" M 57.50 81.28 C 59.20 81.49 60.89 81.71 62.59 81.96 L 62.51 82.84 C 62.44 85.91 58.77 85.35 56.74 86.04 L 56.81 84.64 C 56.98 83.80 57.33 82.12 57.50 81.28 Z" />
</g>
<g id="#dbdbdbff">
<path fill="#dbdbdb" opacity="1.00" d=" M 52.43 82.96 C 52.55 83.08 52.77 83.33 52.89 83.45 C 52.77 83.33 52.55 83.08 52.43 82.96 Z" />
</g>
<g id="#a56770ff">
<path fill="#a56770" opacity="1.00" d=" M 103.66 82.46 C 105.46 83.95 106.39 86.09 107.15 88.24 C 105.50 86.69 102.78 85.16 103.66 82.46 Z" />
</g>
<g id="#cb617dff">
<path fill="#cb617d" opacity="1.00" d=" M 35.05 83.76 C 35.85 83.78 37.46 83.83 38.26 83.86 C 39.68 86.15 37.40 87.06 35.79 88.12 L 34.97 87.85 C 34.95 86.48 34.98 85.12 35.05 83.76 Z" />
</g>
<g id="#a25565ff">
<path fill="#a25565" opacity="1.00" d=" M 38.26 83.86 C 38.92 83.98 40.22 84.22 40.87 84.34 C 40.62 85.79 40.36 87.24 40.10 88.69 C 38.66 88.50 37.23 88.31 35.79 88.12 C 37.40 87.06 39.68 86.15 38.26 83.86 Z" />
</g>
<g id="#fefdfdff">
<path fill="#fefdfd" opacity="1.00" d=" M 129.20 84.79 C 130.41 86.23 131.45 87.92 131.05 89.89 C 130.54 90.93 130.00 91.96 129.46 92.99 C 128.95 91.61 128.46 90.23 127.96 88.85 C 128.36 87.49 128.77 86.13 129.20 84.79 Z" />
<path fill="#fefdfd" opacity="1.00" d=" M 92.88 91.31 L 94.30 90.41 C 94.95 97.01 93.25 103.54 93.36 110.15 C 92.45 117.37 95.26 125.06 101.65 128.93 L 101.80 129.08 C 102.27 130.03 102.74 130.99 103.20 131.95 C 101.55 130.93 99.85 129.91 98.48 128.52 C 94.24 123.37 90.97 117.33 89.92 110.68 C 89.89 109.95 89.84 108.48 89.81 107.75 C 89.54 102.13 90.64 96.45 92.88 91.31 Z" />
</g>
<g id="#46516fff">
<path fill="#46516f" opacity="1.00" d=" M 144.25 93.50 C 144.24 90.16 145.20 86.52 148.73 85.37 C 149.15 85.70 150.01 86.36 150.44 86.69 C 149.26 89.69 147.43 92.38 144.25 93.50 Z" />
<path fill="#46516f" opacity="1.00" d=" M 91.49 150.34 C 93.34 150.27 95.18 150.49 96.95 151.03 C 97.78 152.93 98.32 154.94 98.38 157.03 C 96.10 159.50 93.26 161.28 89.96 162.03 C 87.27 162.52 86.42 165.38 85.33 167.49 C 82.31 169.20 78.74 168.75 75.45 168.34 C 74.32 167.70 73.19 167.05 72.08 166.38 C 74.93 166.11 77.80 165.99 80.61 165.45 C 83.11 165.08 84.26 162.49 85.84 160.82 C 84.96 160.02 84.08 159.23 83.21 158.43 C 84.08 157.96 84.96 157.51 85.85 157.06 C 89.19 156.59 92.93 154.22 91.49 150.34 Z" />
</g>
<g id="#f2bec5ff">
<path fill="#f2bec5" opacity="1.00" d=" M 82.26 86.65 C 82.62 86.77 83.33 87.00 83.69 87.11 C 84.28 87.24 85.47 87.50 86.06 87.63 C 84.83 92.73 81.99 97.19 79.97 101.98 C 79.07 103.93 78.35 106.03 76.92 107.68 C 75.10 107.64 73.94 106.18 73.36 104.60 C 76.40 98.66 79.55 92.76 82.26 86.65 Z" />
</g>
<g id="#e5b3c5ff">
<path fill="#e5b3c5" opacity="1.00" d=" M 96.75 88.63 C 97.56 88.00 98.36 87.37 99.15 86.73 C 99.29 87.16 99.56 88.04 99.70 88.47 C 98.57 93.82 99.91 99.17 101.75 104.19 C 100.34 104.17 98.93 104.15 97.52 104.14 C 96.64 99.01 96.74 93.81 96.75 88.63 Z" />
</g>
<g id="#ed9a9eff">
<path fill="#ed9a9e" opacity="1.00" d=" M 102.36 86.23 C 107.92 90.81 112.19 96.88 115.88 103.03 C 108.25 101.31 102.85 93.84 102.36 86.23 Z" />
</g>
<g id="#c48e93ff">
<path fill="#c48e93" opacity="1.00" d=" M 86.06 87.63 C 86.94 88.66 87.81 89.70 88.68 90.75 C 84.84 97.32 80.71 103.78 77.82 110.84 C 76.22 112.31 73.20 113.26 71.50 111.49 C 68.42 109.03 64.92 107.20 61.67 105.00 C 62.92 103.35 64.17 101.71 65.40 100.05 L 65.77 99.56 C 68.29 101.26 70.86 102.88 73.36 104.60 C 73.94 106.18 75.10 107.64 76.92 107.68 C 78.35 106.03 79.07 103.93 79.97 101.98 C 81.99 97.19 84.83 92.73 86.06 87.63 Z" />
</g>
<g id="#ed7590ff">
<path fill="#ed7590" opacity="1.00" d=" M 153.06 88.14 C 155.40 87.29 155.68 92.53 153.11 91.76 C 151.04 91.76 150.95 88.22 153.06 88.14 Z" />
</g>
<g id="#d8c6ccff">
<path fill="#d8c6cc" opacity="1.00" d=" M 60.38 89.14 C 61.58 92.57 62.45 96.53 60.87 99.99 C 60.00 101.97 57.77 102.70 56.10 103.85 C 56.67 104.18 57.79 104.83 58.36 105.16 C 54.22 105.39 50.32 103.66 46.69 101.89 C 46.63 101.55 46.49 100.88 46.42 100.55 C 49.06 99.07 52.16 98.45 54.55 96.51 C 56.97 94.49 58.78 91.84 60.38 89.14 Z" />
<path fill="#d8c6cc" opacity="1.00" d=" M 158.82 154.77 C 157.72 153.14 161.31 151.12 161.95 153.02 C 161.10 153.88 160.05 154.61 158.82 154.77 Z" />
</g>
<g id="#fbd2d9ff">
<path fill="#fbd2d9" opacity="1.00" d=" M 94.30 90.41 C 95.14 89.85 95.95 89.24 96.75 88.63 C 96.74 93.81 96.64 99.01 97.52 104.14 C 96.01 106.05 94.51 107.99 93.36 110.15 C 93.25 103.54 94.95 97.01 94.30 90.41 Z" />
</g>
<g id="#c29db1ff">
<path fill="#c29db1" opacity="1.00" d=" M 101.75 104.19 C 99.91 99.17 98.57 93.82 99.70 88.47 C 101.08 91.62 102.80 94.69 105.39 97.00 C 108.36 99.88 111.39 102.94 115.45 104.22 C 118.99 105.17 120.01 109.30 123.20 110.83 C 123.77 114.17 123.98 117.99 121.75 120.82 C 119.94 122.47 117.45 123.01 115.22 123.90 C 114.90 121.42 114.63 118.95 114.27 116.48 C 113.63 114.35 112.63 112.33 111.37 110.50 C 109.28 108.47 106.88 106.80 104.29 105.48 C 103.45 105.04 102.60 104.61 101.75 104.19 Z" />
</g>
<g id="#f9f5f6ff">
<path fill="#f9f5f6" opacity="1.00" d=" M 121.34 89.36 C 121.62 89.19 122.17 88.83 122.45 88.66 C 123.37 89.75 124.26 90.88 125.18 91.97 C 125.23 92.78 125.34 94.38 125.40 95.18 C 124.11 94.42 122.77 93.77 121.47 93.06 C 121.28 92.46 120.92 91.28 120.73 90.69 C 120.89 90.36 121.19 89.69 121.34 89.36 Z" />
</g>
<g id="#ebbec3ff">
<path fill="#ebbec3" opacity="1.00" d=" M 117.12 96.67 C 118.52 94.81 119.79 92.83 120.73 90.69 C 120.92 91.28 121.28 92.46 121.47 93.06 C 120.80 95.59 123.64 96.44 125.64 96.23 C 125.65 96.52 125.67 97.11 125.68 97.41 C 124.11 98.30 122.49 99.12 120.88 99.96 C 119.62 98.87 118.34 97.80 117.12 96.67 Z" />
</g>
<g id="#d56676ff">
<path fill="#d56676" opacity="1.00" d=" M 32.09 91.84 C 33.71 91.76 35.34 91.64 36.96 91.72 C 37.69 92.92 38.33 94.18 38.98 95.43 L 37.34 96.19 C 35.58 96.15 33.83 96.04 32.08 95.94 C 32.08 94.57 32.08 93.20 32.09 91.84 Z" />
</g>
<g id="#e9dee5ff">
<path fill="#e9dee5" opacity="1.00" d=" M 125.18 91.97 C 126.27 92.90 127.26 94.64 128.91 94.31 C 131.09 94.26 133.63 92.86 135.56 94.43 C 137.55 96.12 139.36 98.27 140.04 100.83 C 139.13 105.29 134.14 106.15 130.50 107.35 L 129.90 107.30 C 128.93 105.30 127.82 103.37 126.80 101.39 C 126.62 101.04 126.25 100.34 126.06 99.99 C 123.34 102.15 121.61 105.15 121.04 108.59 C 120.70 106.80 120.03 104.99 120.36 103.16 C 121.61 101.14 123.94 100.14 125.69 98.61 L 125.68 97.41 C 125.67 97.11 125.65 96.52 125.64 96.23 C 125.58 95.97 125.46 95.44 125.40 95.18 C 125.34 94.38 125.23 92.78 125.18 91.97 Z" />
</g>
<g id="#4a5273ff">
<path fill="#4a5273" opacity="1.00" d=" M 151.24 94.62 C 151.50 94.54 152.01 94.38 152.27 94.29 C 153.71 94.29 155.16 94.33 156.60 94.36 L 156.12 95.52 C 155.92 95.81 155.52 96.40 155.32 96.69 C 153.27 98.19 151.05 99.99 148.32 99.12 C 148.33 98.27 148.37 96.58 148.39 95.74 C 149.33 95.35 150.28 94.98 151.24 94.62 Z" />
</g>
<g id="#45536cfe">
<path fill="#45536c" opacity="1.00" d=" M 181.76 95.42 C 182.74 95.84 183.66 96.36 184.61 96.86 C 186.03 106.01 186.51 115.57 183.65 124.52 C 182.73 123.53 182.12 122.33 181.87 121.00 C 180.74 116.69 179.46 112.38 177.39 108.41 C 174.52 109.04 171.86 110.52 168.87 110.79 C 167.82 109.52 166.78 108.24 165.81 106.90 C 168.68 103.99 172.71 104.66 176.39 104.41 C 180.84 103.94 180.34 98.54 181.76 95.42 Z" />
</g>
<g id="#fff4f4ff">
<path fill="#fff4f4" opacity="1.00" d=" M 148.32 99.12 C 151.05 99.99 153.27 98.19 155.32 96.69 C 158.11 96.75 160.21 98.54 160.88 101.21 C 160.59 102.61 160.08 103.95 159.56 105.28 C 158.49 105.78 157.43 106.29 156.37 106.82 C 154.83 105.94 153.31 104.99 151.90 103.91 C 150.39 102.61 148.50 101.29 148.32 99.12 M 153.13 100.43 C 153.14 102.38 153.81 104.19 154.85 105.83 C 156.18 105.40 157.52 104.96 158.86 104.53 C 158.71 102.96 158.55 101.39 158.37 99.83 C 157.31 99.44 156.25 99.06 155.19 98.67 C 154.68 99.11 153.65 99.99 153.13 100.43 Z" />
</g>
<g id="#d86a81ff">
<path fill="#d86a81" opacity="1.00" d=" M 35.21 100.49 C 37.96 100.79 40.04 102.39 41.03 104.98 C 40.44 105.43 39.27 106.32 38.69 106.77 C 37.61 106.76 36.53 106.75 35.45 106.75 C 34.64 106.07 33.83 105.41 33.00 104.77 C 33.75 103.35 34.48 101.92 35.21 100.49 Z" />
</g>
<g id="#ca5b71ff">
<path fill="#ca5b71" opacity="1.00" d=" M 123.52 107.38 C 122.75 104.80 125.44 103.15 126.80 101.39 C 127.82 103.37 128.93 105.30 129.90 107.30 C 130.20 108.32 130.47 109.34 130.72 110.38 C 128.27 109.84 124.29 110.51 123.52 107.38 Z" />
</g>
<g id="#fe7793ff">
<path fill="#fe7793" opacity="1.00" d=" M 93.36 110.15 C 94.51 107.99 96.01 106.05 97.52 104.14 C 98.93 104.15 100.34 104.17 101.75 104.19 C 102.60 104.61 103.45 105.04 104.29 105.48 C 101.78 110.25 101.37 115.68 100.72 120.93 C 100.38 123.63 101.05 126.32 101.65 128.93 C 95.26 125.06 92.45 117.37 93.36 110.15 Z" />
</g>
<g id="#d1a0a5ff">
<path fill="#d1a0a5" opacity="1.00" d=" M 135.20 109.59 C 140.36 108.72 144.04 103.98 149.39 103.76 C 146.42 107.19 142.52 109.59 138.32 111.22 C 138.69 111.79 139.06 112.38 139.43 112.97 C 140.20 114.25 140.92 115.56 141.60 116.90 C 143.22 120.50 145.72 123.62 147.42 127.18 C 147.18 128.63 146.40 129.92 145.86 131.27 C 146.57 131.35 147.99 131.52 148.70 131.60 C 149.07 131.71 149.82 131.92 150.19 132.03 C 149.34 132.61 148.50 133.21 147.69 133.85 L 147.91 132.33 L 147.95 132.02 C 146.36 132.07 144.78 132.19 143.19 132.26 C 138.01 129.77 137.30 123.80 134.73 119.29 C 133.33 116.44 131.85 113.63 130.78 110.64 L 130.72 110.38 C 130.47 109.34 130.20 108.32 129.90 107.30 L 130.50 107.35 C 132.06 108.10 133.56 109.00 135.20 109.59 Z" />
</g>
<g id="#ef7391ff">
<path fill="#ef7391" opacity="1.00" d=" M 149.39 103.76 C 150.01 103.79 151.27 103.87 151.90 103.91 C 153.31 104.99 154.83 105.94 156.37 106.82 L 157.31 107.35 C 155.30 107.89 153.29 108.50 151.41 109.41 C 147.66 111.31 143.40 111.69 139.43 112.97 C 139.06 112.38 138.69 111.79 138.32 111.22 C 142.52 109.59 146.42 107.19 149.39 103.76 Z" />
</g>
<g id="#dc6a87ff">
<path fill="#dc6a87" opacity="1.00" d=" M 104.29 105.48 C 106.88 106.80 109.28 108.47 111.37 110.50 C 109.79 114.87 107.63 119.04 104.32 122.37 C 102.15 124.19 103.14 127.04 103.79 129.34 C 103.29 129.28 102.30 129.15 101.80 129.08 L 101.65 128.93 C 101.05 126.32 100.38 123.63 100.72 120.93 C 101.37 115.68 101.78 110.25 104.29 105.48 Z" />
</g>
<g id="#ff90a0ff">
<path fill="#ff90a0" opacity="1.00" d=" M 86.85 113.33 C 87.41 111.27 88.57 109.46 89.81 107.75 C 89.84 108.48 89.89 109.95 89.92 110.68 C 88.46 113.64 87.41 116.78 86.82 120.03 L 86.65 120.88 C 86.44 120.09 86.02 118.51 85.82 117.71 C 86.15 116.25 86.48 114.78 86.85 113.33 Z" />
<path fill="#ff90a0" opacity="1.00" d=" M 130.01 111.51 L 130.78 110.64 C 131.85 113.63 133.33 116.44 134.73 119.29 C 133.43 122.46 134.31 125.83 135.02 129.02 L 134.12 128.18 C 133.40 127.44 132.71 126.67 132.05 125.89 C 130.84 124.20 129.83 122.40 128.97 120.52 C 128.97 117.49 129.06 114.41 130.01 111.51 Z" />
</g>
<g id="#db6985ff">
<path fill="#db6985" opacity="1.00" d=" M 151.41 109.41 C 153.29 108.50 155.30 107.89 157.31 107.35 C 158.12 108.49 158.89 109.65 159.63 110.85 C 158.69 110.74 157.75 110.63 156.81 110.51 C 157.17 115.66 152.40 119.00 147.63 118.90 C 145.90 117.53 143.77 117.01 141.60 116.90 C 140.92 115.56 140.20 114.25 139.43 112.97 C 143.40 111.69 147.66 111.31 151.41 109.41 Z" />
</g>
<g id="#c15369ff">
<path fill="#c15369" opacity="1.00" d=" M 156.81 110.51 C 157.75 110.63 158.69 110.74 159.63 110.85 C 159.93 113.22 160.42 115.58 160.54 117.98 C 159.86 120.61 158.89 123.19 157.56 125.56 C 155.34 127.92 152.51 129.60 150.08 131.72 L 148.70 131.60 C 147.99 131.52 146.57 131.35 145.86 131.27 C 146.40 129.92 147.18 128.63 147.42 127.18 C 147.46 124.42 147.44 121.65 147.63 118.90 C 152.40 119.00 157.17 115.66 156.81 110.51 Z" />
</g>
<g id="#d55877ff">
<path fill="#d55877" opacity="1.00" d=" M 86.82 120.03 C 87.41 116.78 88.46 113.64 89.92 110.68 C 90.97 117.33 94.24 123.37 98.48 128.52 C 96.93 128.76 95.59 128.45 94.49 127.59 C 93.45 126.47 92.44 125.33 91.34 124.29 C 89.81 122.90 88.29 121.49 86.82 120.03 Z" />
</g>
<g id="#cb5c77ff">
<path fill="#cb5c77" opacity="1.00" d=" M 111.37 110.50 C 112.63 112.33 113.63 114.35 114.27 116.48 C 111.59 121.00 106.82 124.23 105.57 129.53 C 105.12 129.48 104.23 129.39 103.79 129.34 C 103.14 127.04 102.15 124.19 104.32 122.37 C 107.63 119.04 109.79 114.87 111.37 110.50 Z" />
</g>
<g id="#b48f9eff">
<path fill="#b48f9e" opacity="1.00" d=" M 123.20 110.83 C 125.47 111.11 127.74 111.33 130.01 111.51 C 129.06 114.41 128.97 117.49 128.97 120.52 C 126.97 121.99 125.04 123.57 122.95 124.94 C 120.16 126.79 116.75 127.33 113.84 128.95 C 112.96 130.06 112.41 131.39 111.76 132.64 C 112.53 133.47 113.31 134.32 114.08 135.16 C 111.68 135.30 109.31 134.90 107.08 134.04 C 107.75 134.05 109.08 134.06 109.75 134.07 C 108.89 133.24 108.06 132.40 107.31 131.49 C 108.43 130.67 109.62 129.96 110.77 129.19 C 114.79 126.21 114.32 120.91 114.27 116.48 C 114.63 118.95 114.90 121.42 115.22 123.90 C 117.45 123.01 119.94 122.47 121.75 120.82 C 123.98 117.99 123.77 114.17 123.20 110.83 Z" />
</g>
<g id="#482d3276">
<path fill="#482d32" opacity="0.46" d=" M 85.82 117.71 C 83.52 117.45 84.74 112.79 86.85 113.33 C 86.48 114.78 86.15 116.25 85.82 117.71 Z" />
</g>
<g id="#b74c63ff">
<path fill="#b74c63" opacity="1.00" d=" M 105.57 129.53 C 106.82 124.23 111.59 121.00 114.27 116.48 C 114.32 120.91 114.79 126.21 110.77 129.19 C 109.04 129.35 107.31 129.48 105.57 129.53 Z" />
</g>
<g id="#e3a2b2ff">
<path fill="#e3a2b2" opacity="1.00" d=" M 86.65 120.88 L 86.82 120.03 C 88.29 121.49 89.81 122.90 91.34 124.29 C 89.53 128.29 85.47 130.80 84.07 134.98 C 83.14 138.93 78.21 136.18 76.21 134.61 C 79.60 130.02 84.48 126.19 86.65 120.88 Z" />
</g>
<g id="#e1728aff">
<path fill="#e1728a" opacity="1.00" d=" M 135.02 129.02 C 134.31 125.83 133.43 122.46 134.73 119.29 C 137.30 123.80 138.01 129.77 143.19 132.26 C 140.25 131.84 137.49 130.65 135.02 129.02 Z" />
</g>
<g id="#ab7d8dff">
<path fill="#ab7d8d" opacity="1.00" d=" M 122.95 124.94 C 125.04 123.57 126.97 121.99 128.97 120.52 C 129.83 122.40 130.84 124.20 132.05 125.89 C 125.71 127.75 118.76 129.67 114.32 134.90 L 114.08 135.16 C 113.31 134.32 112.53 133.47 111.76 132.64 C 112.41 131.39 112.96 130.06 113.84 128.95 C 116.75 127.33 120.16 126.79 122.95 124.94 Z" />
</g>
<g id="#aa7182fa">
<path fill="#aa7182" opacity="0.98" d=" M 91.34 124.29 C 92.44 125.33 93.45 126.47 94.49 127.59 C 91.11 130.57 87.70 133.52 84.02 136.14 L 84.07 134.98 C 85.47 130.80 89.53 128.29 91.34 124.29 Z" />
</g>
<g id="#b54466ff">
<path fill="#b54466" opacity="1.00" d=" M 114.32 134.90 C 118.76 129.67 125.71 127.75 132.05 125.89 C 132.71 126.67 133.40 127.44 134.12 128.18 C 133.66 128.84 132.76 130.14 132.31 130.79 C 131.95 132.43 131.77 134.11 131.68 135.78 C 131.33 134.33 131.07 132.85 130.79 131.39 C 129.24 132.97 127.89 135.07 125.61 135.65 C 122.93 136.29 120.14 136.12 117.40 136.10 C 118.24 137.50 119.06 138.94 119.63 140.48 C 117.03 139.51 115.48 137.29 114.32 134.90 Z" />
</g>
<g id="#d2b0b6ff">
<path fill="#d2b0b6" opacity="1.00" d=" M 101.80 129.08 C 102.30 129.15 103.29 129.28 103.79 129.34 C 104.23 129.39 105.12 129.48 105.57 129.53 C 107.31 129.48 109.04 129.35 110.77 129.19 C 109.62 129.96 108.43 130.67 107.31 131.49 C 108.06 132.40 108.89 133.24 109.75 134.07 C 109.08 134.06 107.75 134.05 107.08 134.04 C 105.61 133.87 104.12 133.13 103.20 131.95 C 102.74 130.99 102.27 130.03 101.80 129.08 Z" />
</g>
<g id="#e9a9b9ff">
<path fill="#e9a9b9" opacity="1.00" d=" M 132.31 130.79 C 132.76 130.14 133.66 128.84 134.12 128.18 L 135.02 129.02 C 137.49 130.65 140.25 131.84 143.19 132.26 C 144.78 132.19 146.36 132.07 147.95 132.02 L 147.91 132.33 C 146.84 133.94 145.74 135.53 144.67 137.14 C 143.20 137.16 141.72 137.19 140.25 137.22 C 138.66 133.93 135.97 131.49 132.31 130.79 Z" />
</g>
<g id="#d996a8ff">
<path fill="#d996a8" opacity="1.00" d=" M 131.68 135.78 C 131.77 134.11 131.95 132.43 132.31 130.79 C 135.97 131.49 138.66 133.93 140.25 137.22 C 137.81 137.27 135.36 137.29 132.92 137.18 C 132.61 136.83 131.99 136.13 131.68 135.78 Z" />
</g>
<g id="#dcc7d1ff">
<path fill="#dcc7d1" opacity="1.00" d=" M 150.19 132.03 C 151.35 131.98 152.52 131.98 153.69 132.01 C 154.14 132.77 155.04 134.28 155.49 135.04 C 153.79 137.95 150.86 139.61 148.02 141.20 C 147.31 141.81 146.61 142.44 145.94 143.09 C 147.72 141.36 146.43 139.44 145.72 137.60 C 146.33 136.33 147.02 135.09 147.69 133.85 C 148.50 133.21 149.34 132.61 150.19 132.03 Z" />
</g>
<g id="#89636ad6">
<path fill="#89636a" opacity="0.84" d=" M 144.67 137.14 C 145.74 135.53 146.84 133.94 147.91 132.33 L 147.69 133.85 C 147.02 135.09 146.33 136.33 145.72 137.60 C 142.42 137.92 139.09 137.98 135.78 137.64 C 135.45 137.92 134.78 138.47 134.44 138.74 C 134.06 138.35 133.30 137.57 132.92 137.18 C 135.36 137.29 137.81 137.27 140.25 137.22 C 141.72 137.19 143.20 137.16 144.67 137.14 Z" />
</g>
<g id="#f1e7e7f9">
<path fill="#f1e7e7" opacity="0.98" d=" M 72.78 137.32 C 73.90 136.56 75.01 135.80 76.12 135.02 C 75.72 137.94 75.37 140.86 75.07 143.79 C 73.01 142.22 72.69 139.73 72.78 137.32 Z" />
</g>
<g id="#d8c2cbfe">
<path fill="#d8c2cb" opacity="1.00" d=" M 76.12 135.02 C 77.82 135.98 79.52 136.89 81.23 137.83 L 80.29 138.04 L 79.52 138.20 C 78.13 140.13 76.69 142.04 75.07 143.79 C 75.37 140.86 75.72 137.94 76.12 135.02 Z" />
</g>
<g id="#bc98a2fe">
<path fill="#bc98a2" opacity="1.00" d=" M 80.29 138.04 C 80.94 138.11 82.24 138.26 82.89 138.34 C 82.98 138.83 83.18 139.81 83.27 140.31 L 83.13 140.92 C 81.15 143.65 78.12 145.01 74.76 144.15 L 75.07 143.79 C 76.69 142.04 78.13 140.13 79.52 138.20 L 80.29 138.04 Z" />
</g>
<g id="#c8969dff">
<path fill="#c8969d" opacity="1.00" d=" M 83.13 140.92 C 85.20 141.72 87.28 142.54 89.32 143.42 C 89.83 144.21 90.10 145.09 90.13 146.06 C 90.22 146.62 90.40 147.73 90.48 148.29 C 89.30 147.56 88.31 146.54 87.06 145.92 C 85.99 147.16 84.86 148.54 84.68 150.23 C 85.13 152.21 86.17 153.99 86.89 155.87 C 86.63 156.17 86.11 156.76 85.85 157.06 C 84.96 157.51 84.08 157.96 83.21 158.43 C 82.44 158.84 81.67 159.24 80.90 159.64 C 82.35 158.34 83.76 157.00 85.14 155.64 C 83.05 152.04 80.88 148.27 77.42 145.82 C 79.44 144.33 81.70 143.06 83.13 140.92 Z" />
</g>
<g id="#f9d2d2ff">
<path fill="#f9d2d2" opacity="1.00" d=" M 145.94 143.09 C 146.61 142.44 147.31 141.81 148.02 141.20 C 148.19 141.52 148.53 142.15 148.70 142.47 C 149.83 147.08 150.26 151.83 150.77 156.54 C 149.78 155.32 148.87 154.04 148.06 152.70 C 147.54 151.74 147.05 150.77 146.60 149.79 C 145.92 148.07 146.03 146.20 145.95 144.40 L 145.94 143.09 Z" />
</g>
<g id="#cd99a3ff">
<path fill="#cd99a3" opacity="1.00" d=" M 148.70 142.47 C 150.77 142.14 152.83 141.74 154.89 141.32 C 155.23 142.96 155.60 144.60 155.90 146.25 L 156.01 147.07 C 155.97 147.86 155.89 149.45 155.86 150.24 C 155.37 149.19 154.89 148.14 154.41 147.08 C 154.17 150.78 153.72 154.47 153.08 158.12 C 152.29 157.62 151.52 157.09 150.77 156.54 C 150.26 151.83 149.83 147.08 148.70 142.47 Z" />
</g>
<g id="#2121214f">
<path fill="#212121" opacity="0.31" d=" M 146.60 149.79 C 144.04 150.09 143.68 144.76 145.95 144.40 C 146.03 146.20 145.92 148.07 146.60 149.79 Z" />
</g>
<g id="#bc818cff">
<path fill="#bc818c" opacity="1.00" d=" M 84.68 150.23 C 84.86 148.54 85.99 147.16 87.06 145.92 C 88.31 146.54 89.30 147.56 90.48 148.29 C 90.40 147.73 90.22 146.62 90.13 146.06 C 90.61 147.48 91.08 148.90 91.49 150.34 C 92.93 154.22 89.19 156.59 85.85 157.06 C 86.11 156.76 86.63 156.17 86.89 155.87 C 86.17 153.99 85.13 152.21 84.68 150.23 Z" />
</g>
<g id="#b1727cfd">
<path fill="#b1727c" opacity="1.00" d=" M 153.08 158.12 C 153.72 154.47 154.17 150.78 154.41 147.08 C 154.89 148.14 155.37 149.19 155.86 150.24 C 155.89 149.45 155.97 147.86 156.01 147.07 C 156.93 150.00 157.64 153.04 157.68 156.13 C 157.40 157.23 157.11 158.32 156.81 159.42 C 155.56 159.00 154.31 158.60 153.08 158.12 Z" />
</g>
<g id="#4e617fff">
<path fill="#4e617f" opacity="1.00" d=" M 66.10 158.97 C 66.35 153.75 70.69 147.03 76.67 148.95 L 75.74 149.40 C 74.17 150.07 72.64 150.94 71.78 152.47 C 70.33 155.73 70.05 159.67 72.56 162.51 C 75.58 164.45 78.05 160.34 80.90 159.64 C 81.67 159.24 82.44 158.84 83.21 158.43 C 84.08 159.23 84.96 160.02 85.84 160.82 C 84.26 162.49 83.11 165.08 80.61 165.45 C 77.80 165.99 74.93 166.11 72.08 166.38 C 73.19 167.05 74.32 167.70 75.45 168.34 C 70.10 169.51 65.46 164.07 66.10 158.97 Z" />
</g>
<g id="#4f5d7bff">
<path fill="#4f5d7b" opacity="1.00" d=" M 150.76 164.17 C 148.28 160.96 145.65 156.72 148.06 152.70 C 148.87 154.04 149.78 155.32 150.77 156.54 C 151.52 157.09 152.29 157.62 153.08 158.12 C 154.31 158.60 155.56 159.00 156.81 159.42 C 157.75 159.75 158.68 160.09 159.62 160.42 C 159.99 162.23 160.48 164.04 161.43 165.64 C 162.61 166.40 163.67 168.15 165.27 167.53 C 165.80 165.37 165.97 163.13 166.10 160.92 C 166.77 164.93 167.15 169.85 163.80 172.84 C 160.06 173.53 155.60 174.26 152.46 171.56 C 150.18 169.69 152.61 166.30 150.76 164.17 Z" />
</g>
<g id="#526684ff">
<path fill="#526684" opacity="1.00" d=" M 158.82 154.77 C 160.05 154.61 161.10 153.88 161.95 153.02 C 164.30 155.03 165.64 157.90 166.10 160.92 C 165.97 163.13 165.80 165.37 165.27 167.53 C 163.67 168.15 162.61 166.40 161.43 165.64 C 161.71 163.43 162.14 161.18 161.80 158.95 C 161.51 157.69 161.14 155.73 159.40 156.24 C 159.40 157.64 159.47 159.03 159.62 160.42 C 158.68 160.09 157.75 159.75 156.81 159.42 C 157.11 158.32 157.40 157.23 157.68 156.13 L 157.98 154.96 L 158.82 154.77 Z" />
</g>
</svg>
