<?xml version="1.0" encoding="UTF-8" ?>
<!DOCTYPE svg PUBLIC "-//W3C//DTD SVG 1.1//EN" "http://www.w3.org/Graphics/SVG/1.1/DTD/svg11.dtd">
<svg width="208pt" height="238pt" viewBox="0 0 208 238" version="1.1" xmlns="http://www.w3.org/2000/svg">
<g id="#4c4a4066">
<path fill="#4c4a40" opacity="0.40" d=" M 206.47 0.00 L 208.00 0.00 L 208.00 1.64 C 207.50 1.96 206.50 2.58 206.00 2.90 C 205.78 2.56 205.34 1.90 205.12 1.56 C 205.46 1.17 206.13 0.39 206.47 0.00 Z" />
</g>
<g id="#93bf79ff">
<path fill="#93bf79" opacity="1.00" d=" M 184.87 26.02 C 191.35 17.65 198.31 9.65 205.12 1.56 C 205.34 1.90 205.78 2.56 206.00 2.90 C 203.24 14.00 198.20 24.33 194.10 34.96 C 191.73 41.53 188.04 47.49 184.75 53.61 C 183.85 50.89 184.22 48.03 184.15 45.23 C 183.58 42.37 181.65 39.94 181.27 37.03 C 182.12 34.11 184.43 31.86 185.77 29.15 C 185.66 28.75 185.43 27.95 185.31 27.55 L 184.87 26.02 Z" />
</g>
<g id="#afd099ff">
<path fill="#afd099" opacity="1.00" d=" M 113.98 17.80 C 113.37 12.82 113.52 7.77 113.90 2.77 C 116.82 14.33 119.58 25.93 122.69 37.44 C 125.83 51.64 128.59 65.93 130.36 80.37 C 129.76 80.27 128.54 80.07 127.94 79.98 C 127.30 76.81 127.01 73.59 126.66 70.38 C 125.77 71.38 124.88 72.38 124.04 73.41 C 121.13 60.75 119.94 47.75 116.71 35.15 C 115.22 29.45 116.21 23.35 113.98 17.80 Z" />
</g>
<g id="#91d97bff">
<path fill="#91d97b" opacity="1.00" d=" M 113.98 17.80 C 116.21 23.35 115.22 29.45 116.71 35.15 C 119.94 47.75 121.13 60.75 124.04 73.41 C 123.90 74.24 123.63 75.91 123.49 76.74 C 121.71 73.80 120.64 70.51 119.84 67.19 C 116.69 50.89 115.01 34.35 113.98 17.80 Z" />
</g>
<g id="#9ae17eff">
<path fill="#9ae17e" opacity="1.00" d=" M 168.19 47.19 C 173.60 40.02 179.31 33.08 184.87 26.02 L 185.31 27.55 C 179.06 37.41 171.31 46.22 164.91 55.98 C 163.08 58.93 160.36 61.54 159.77 65.10 C 158.03 67.11 156.66 69.40 155.61 71.84 C 155.78 73.04 155.94 74.24 156.10 75.45 C 155.57 75.19 154.52 74.68 154.00 74.43 C 151.97 78.71 147.46 82.66 149.12 87.80 C 148.24 87.35 147.38 86.79 146.84 85.94 C 149.08 79.59 152.58 73.77 155.64 67.79 C 159.15 60.54 163.85 53.95 168.19 47.19 Z" />
<path fill="#9ae17e" opacity="1.00" d=" M 159.88 101.81 C 161.16 102.45 162.42 103.15 163.64 103.91 C 164.26 105.11 164.89 106.31 165.52 107.51 C 165.37 107.75 165.06 108.24 164.91 108.48 C 163.91 108.30 162.91 108.12 161.91 107.95 C 160.55 109.25 158.85 110.36 158.00 112.10 C 157.78 113.69 157.86 115.30 157.86 116.91 C 161.00 117.87 164.31 118.13 167.32 116.60 C 168.08 117.14 168.83 117.68 169.60 118.22 C 169.10 119.40 168.57 120.57 168.00 121.72 L 167.69 121.88 C 164.50 121.67 161.19 121.27 158.19 122.64 C 157.44 122.07 156.70 121.49 155.95 120.92 C 154.27 120.93 152.58 120.92 150.90 121.00 C 152.58 120.48 154.31 120.09 156.03 119.68 C 154.86 119.21 153.70 118.75 152.54 118.30 C 151.73 116.04 150.63 113.47 152.20 111.26 C 153.82 107.36 158.26 105.66 159.88 101.81 Z" />
</g>
<g id="#89b76cff">
<path fill="#89b76c" opacity="1.00" d=" M 185.31 27.55 C 185.43 27.95 185.66 28.75 185.77 29.15 C 184.43 31.86 182.12 34.11 181.27 37.03 C 181.65 39.94 183.58 42.37 184.15 45.23 C 184.22 48.03 183.85 50.89 184.75 53.61 C 180.48 62.50 174.80 70.56 169.40 78.77 C 167.89 74.53 165.27 70.52 161.30 68.25 C 160.15 69.80 159.19 71.47 158.22 73.13 C 159.00 70.51 159.50 67.82 159.77 65.10 C 160.36 61.54 163.08 58.93 164.91 55.98 C 171.31 46.22 179.06 37.41 185.31 27.55 Z" />
</g>
<g id="#7fb163ff">
<path fill="#7fb163" opacity="1.00" d=" M 155.61 71.84 C 156.66 69.40 158.03 67.11 159.77 65.10 C 159.50 67.82 159.00 70.51 158.22 73.13 C 159.19 71.47 160.15 69.80 161.30 68.25 C 165.27 70.52 167.89 74.53 169.40 78.77 C 166.48 82.71 163.34 86.48 160.43 90.43 C 154.86 94.63 149.00 98.59 144.77 104.27 C 143.83 104.39 142.89 104.48 141.95 104.55 C 143.13 98.24 145.11 92.12 146.84 85.94 C 147.38 86.79 148.24 87.35 149.12 87.80 C 147.46 82.66 151.97 78.71 154.00 74.43 C 154.52 74.68 155.57 75.19 156.10 75.45 C 155.94 74.24 155.78 73.04 155.61 71.84 Z" />
</g>
<g id="#cdffa0ff">
<path fill="#cdffa0" opacity="1.00" d=" M 114.02 81.22 C 117.40 77.31 116.86 71.42 119.84 67.19 C 120.64 70.51 121.71 73.80 123.49 76.74 C 123.63 75.91 123.90 74.24 124.04 73.41 C 124.88 72.38 125.77 71.38 126.66 70.38 C 127.01 73.59 127.30 76.81 127.94 79.98 C 128.54 80.07 129.76 80.27 130.36 80.37 C 136.77 79.59 142.76 76.87 149.12 75.81 C 146.32 79.95 142.74 83.49 139.85 87.57 C 138.51 89.20 138.37 91.34 138.16 93.34 C 135.34 94.90 133.14 97.34 130.30 98.86 C 129.91 99.55 129.53 100.23 129.14 100.91 C 129.06 99.03 128.97 97.15 128.94 95.26 C 129.04 94.76 129.24 93.75 129.33 93.25 C 125.39 96.66 123.60 101.72 120.26 105.63 C 119.18 104.80 118.15 103.94 117.06 103.14 C 118.15 105.71 120.56 107.88 123.50 106.30 C 122.97 109.43 119.95 111.28 118.97 114.24 L 118.34 113.96 C 117.40 113.56 116.46 113.15 115.53 112.74 C 115.10 110.23 114.63 107.72 113.82 105.30 C 113.72 104.96 113.50 104.27 113.39 103.93 L 113.06 102.96 C 111.31 98.68 111.19 94.03 111.09 89.47 C 109.00 90.05 106.87 90.37 104.72 90.56 C 102.44 86.74 100.09 82.95 97.41 79.40 C 97.69 79.20 98.26 78.80 98.54 78.60 C 103.65 79.64 108.76 81.52 114.02 81.22 Z" />
</g>
<g id="#b4d49fff">
<path fill="#b4d49f" opacity="1.00" d=" M 160.43 90.43 C 169.03 87.70 177.99 86.14 186.98 85.79 C 192.96 86.98 198.82 88.73 204.86 89.71 C 200.04 96.45 194.70 103.21 187.44 107.43 C 181.78 109.51 176.47 113.24 170.22 113.07 C 169.83 110.54 168.76 108.16 166.94 106.35 C 165.89 105.47 164.77 104.67 163.64 103.91 C 162.42 103.15 161.16 102.45 159.88 101.81 C 156.69 100.62 153.09 100.09 149.93 101.67 C 149.43 101.97 148.42 102.59 147.92 102.90 C 147.45 103.18 146.51 103.75 146.04 104.03 L 144.77 104.27 C 149.00 98.59 154.86 94.63 160.43 90.43 Z" />
</g>
<g id="#a88988dc">
<path fill="#a88988" opacity="0.86" d=" M 138.16 93.34 C 138.37 91.34 138.51 89.20 139.85 87.57 C 139.56 89.72 139.28 91.87 139.11 94.03 L 138.16 93.34 Z" />
</g>
<g id="#b6eb96ff">
<path fill="#b6eb96" opacity="1.00" d=" M 104.72 90.56 C 106.87 90.37 109.00 90.05 111.09 89.47 C 111.19 94.03 111.31 98.68 113.06 102.96 C 112.78 103.43 112.22 104.36 111.94 104.82 C 108.81 103.62 107.94 100.38 107.62 97.37 C 107.60 97.27 107.56 97.07 107.54 96.96 C 106.76 95.03 105.84 93.15 105.02 91.24 L 104.72 90.56 Z" />
</g>
<g id="#47a045ff">
<path fill="#47a045" opacity="1.00" d=" M 105.02 91.24 C 105.84 93.15 106.76 95.03 107.54 96.96 C 107.56 97.07 107.60 97.27 107.62 97.37 C 107.74 101.24 108.63 105.03 108.99 108.87 C 105.91 107.27 103.00 105.35 100.37 103.07 C 100.63 102.11 100.89 101.16 101.15 100.20 C 102.96 99.75 104.82 99.54 106.67 99.37 C 106.21 96.64 105.75 93.91 105.02 91.24 Z" />
</g>
<g id="#458649ff">
<path fill="#458649" opacity="1.00" d=" M 120.26 105.63 C 123.60 101.72 125.39 96.66 129.33 93.25 C 129.24 93.75 129.04 94.76 128.94 95.26 C 126.15 97.64 124.76 101.03 124.42 104.63 C 125.59 104.05 126.75 103.44 127.90 102.82 C 126.64 104.21 125.06 105.26 123.50 106.30 C 120.56 107.88 118.15 105.71 117.06 103.14 C 118.15 103.94 119.18 104.80 120.26 105.63 Z" />
<path fill="#458649" opacity="1.00" d=" M 26.78 120.96 C 37.84 116.88 50.20 115.28 61.70 118.42 C 67.59 121.07 72.35 125.68 76.76 130.31 C 80.58 134.86 86.99 134.93 92.29 136.47 C 92.19 138.52 92.09 140.58 91.80 142.62 C 91.13 143.64 90.44 144.64 89.73 145.64 C 89.46 145.39 88.92 144.88 88.65 144.62 C 89.16 143.40 89.68 142.19 90.21 140.99 C 89.85 140.82 89.14 140.49 88.78 140.32 L 87.76 138.66 C 88.65 138.71 90.42 138.81 91.30 138.85 C 89.03 136.36 85.36 136.54 82.40 135.46 C 77.74 134.47 75.06 130.25 71.68 127.32 C 67.47 123.58 62.93 119.51 57.11 118.76 C 43.75 116.91 29.85 119.54 18.03 126.03 C 20.10 123.14 23.58 122.07 26.78 120.96 Z" />
<path fill="#458649" opacity="1.00" d=" M 150.43 151.22 C 150.65 152.06 150.88 152.89 151.11 153.73 C 149.90 153.95 148.70 154.18 147.50 154.44 C 145.93 154.80 144.38 155.22 142.81 155.57 C 138.65 155.44 134.56 154.37 130.38 154.58 C 128.87 154.89 127.38 155.26 125.91 155.72 C 124.94 156.20 123.98 156.69 123.04 157.20 C 123.06 156.06 123.08 154.91 123.11 153.77 C 124.75 153.69 126.39 153.59 128.03 153.48 C 134.82 152.49 141.96 156.07 148.29 152.20 C 148.82 151.96 149.89 151.47 150.43 151.22 Z" />
<path fill="#458649" opacity="1.00" d=" M 151.04 157.63 C 152.61 159.51 153.89 161.66 155.73 163.31 C 159.36 166.09 164.10 166.27 168.34 167.49 L 166.87 168.08 C 165.97 168.43 165.06 168.77 164.15 169.10 C 164.34 169.92 164.54 170.73 164.73 171.55 L 164.78 173.32 C 162.36 170.40 157.89 171.02 155.34 168.20 C 155.19 168.64 154.89 169.51 154.74 169.95 C 148.27 173.54 140.68 173.86 133.52 175.01 C 132.83 174.95 131.44 174.81 130.75 174.75 C 130.50 174.37 130.00 173.60 129.75 173.22 C 133.89 173.22 138.06 173.17 142.13 172.36 C 143.99 172.02 145.84 171.59 147.66 171.07 C 150.01 170.32 152.22 169.22 154.41 168.11 C 152.35 164.98 150.24 161.56 151.04 157.63 Z" />
</g>
<g id="#a5e687ff">
<path fill="#a5e687" opacity="1.00" d=" M 130.30 98.86 C 133.14 97.34 135.34 94.90 138.16 93.34 L 139.11 94.03 C 139.40 95.77 139.89 97.47 140.54 99.11 C 137.94 101.83 134.11 101.72 130.80 102.83 C 126.23 105.53 125.68 111.48 121.88 114.90 C 120.73 115.93 119.36 117.62 117.69 116.51 C 118.01 115.94 118.65 114.81 118.97 114.24 C 119.95 111.28 122.97 109.43 123.50 106.30 C 125.06 105.26 126.64 104.21 127.90 102.82 C 128.21 102.34 128.83 101.39 129.14 100.91 C 129.53 100.23 129.91 99.55 130.30 98.86 Z" />
</g>
<g id="#f8f9f8ff">
<path fill="#f8f9f8" opacity="1.00" d=" M 124.42 104.63 C 124.76 101.03 126.15 97.64 128.94 95.26 C 128.97 97.15 129.06 99.03 129.14 100.91 C 128.83 101.39 128.21 102.34 127.90 102.82 C 126.75 103.44 125.59 104.05 124.42 104.63 Z" />
</g>
<g id="#6bba5eff">
<path fill="#6bba5e" opacity="1.00" d=" M 108.99 108.87 C 108.63 105.03 107.74 101.24 107.62 97.37 C 107.94 100.38 108.81 103.62 111.94 104.82 C 112.22 104.36 112.78 103.43 113.06 102.96 L 113.39 103.93 C 113.50 104.27 113.72 104.96 113.82 105.30 C 111.56 109.07 112.68 113.38 113.72 117.33 C 113.82 117.74 114.03 118.56 114.13 118.96 C 113.14 118.14 112.20 117.26 111.27 116.37 C 107.85 112.30 102.41 111.33 97.96 108.86 C 96.20 108.04 96.13 105.77 95.24 104.29 C 97.16 102.85 99.13 101.49 101.15 100.20 C 100.89 101.16 100.63 102.11 100.37 103.07 C 103.00 105.35 105.91 107.27 108.99 108.87 Z" />
</g>
<g id="#88ce76ff">
<path fill="#88ce76" opacity="1.00" d=" M 140.54 99.11 C 140.96 100.26 141.41 101.40 141.85 102.54 C 141.70 103.05 141.40 104.08 141.24 104.60 L 141.95 104.55 C 142.89 104.48 143.83 104.39 144.77 104.27 L 146.04 104.03 C 145.07 105.12 144.14 106.25 143.25 107.41 C 140.83 106.47 138.33 104.59 135.61 105.47 C 130.26 107.03 126.66 111.64 122.91 115.47 C 123.72 116.20 124.52 116.93 125.33 117.67 C 124.99 117.70 124.32 117.76 123.99 117.79 C 120.53 115.75 117.37 121.03 114.13 118.96 C 114.03 118.56 113.82 117.74 113.72 117.33 C 114.80 116.95 115.89 116.61 117.00 116.31 L 117.69 116.51 C 119.36 117.62 120.73 115.93 121.88 114.90 C 125.68 111.48 126.23 105.53 130.80 102.83 C 134.11 101.72 137.94 101.83 140.54 99.11 Z" />
</g>
<g id="#73b565ff">
<path fill="#73b565" opacity="1.00" d=" M 149.93 101.67 C 153.09 100.09 156.69 100.62 159.88 101.81 C 158.26 105.66 153.82 107.36 152.20 111.26 C 150.63 113.47 151.73 116.04 152.54 118.30 C 153.70 118.75 154.86 119.21 156.03 119.68 C 154.31 120.09 152.58 120.48 150.90 121.00 C 149.13 121.54 150.01 123.92 149.75 125.26 C 150.51 128.05 151.53 130.77 152.54 133.47 C 152.63 133.69 152.80 134.13 152.88 134.34 C 152.42 135.37 151.96 136.39 151.50 137.42 C 148.95 137.16 146.42 136.70 144.05 135.71 C 140.82 136.79 137.48 136.72 134.94 134.21 C 134.30 134.84 133.66 135.48 133.02 136.12 C 130.99 133.05 131.21 128.52 127.86 126.44 C 128.32 126.28 129.24 125.97 129.70 125.81 C 134.34 123.30 141.23 124.42 143.52 129.57 C 145.17 128.31 146.69 126.86 147.96 125.20 C 148.30 125.45 148.97 125.97 149.31 126.22 C 150.12 121.61 146.48 117.69 147.36 113.12 C 147.67 108.81 150.65 105.50 153.04 102.15 C 152.26 102.03 150.71 101.79 149.93 101.67 Z" />
</g>
<g id="#569353ff">
<path fill="#569353" opacity="1.00" d=" M 147.92 102.90 C 148.42 102.59 149.43 101.97 149.93 101.67 C 150.71 101.79 152.26 102.03 153.04 102.15 C 150.65 105.50 147.67 108.81 147.36 113.12 C 146.48 117.69 150.12 121.61 149.31 126.22 C 148.97 125.97 148.30 125.45 147.96 125.20 C 145.95 123.65 143.88 121.98 142.90 119.56 C 144.26 116.74 144.88 113.66 145.59 110.64 C 146.27 107.69 148.28 105.35 149.96 102.92 C 149.45 102.91 148.43 102.90 147.92 102.90 Z" />
</g>
<g id="#3d8940ff">
<path fill="#3d8940" opacity="1.00" d=" M 146.04 104.03 C 146.51 103.75 147.45 103.18 147.92 102.90 C 148.43 102.90 149.45 102.91 149.96 102.92 C 148.28 105.35 146.27 107.69 145.59 110.64 C 144.88 113.66 144.26 116.74 142.90 119.56 C 141.74 115.61 141.02 111.15 143.25 107.41 C 144.14 106.25 145.07 105.12 146.04 104.03 Z" />
</g>
<g id="#b2f68cff">
<path fill="#b2f68c" opacity="1.00" d=" M 163.64 103.91 C 164.77 104.67 165.89 105.47 166.94 106.35 C 167.29 109.31 167.91 112.39 170.16 114.55 C 170.03 115.78 169.86 117.01 169.60 118.22 C 168.83 117.68 168.08 117.14 167.32 116.60 C 164.31 118.13 161.00 117.87 157.86 116.91 C 157.86 115.30 157.78 113.69 158.00 112.10 C 158.85 110.36 160.55 109.25 161.91 107.95 C 162.91 108.12 163.91 108.30 164.91 108.48 C 165.06 108.24 165.37 107.75 165.52 107.51 C 164.89 106.31 164.26 105.11 163.64 103.91 Z" />
</g>
<g id="#80c06cff">
<path fill="#80c06c" opacity="1.00" d=" M 93.62 121.35 C 90.47 116.13 90.99 108.76 95.24 104.29 C 96.13 105.77 96.20 108.04 97.96 108.86 C 102.41 111.33 107.85 112.30 111.27 116.37 C 111.11 118.21 110.95 120.06 110.90 121.91 C 104.99 122.50 99.48 120.47 94.33 117.81 C 94.16 118.70 93.80 120.47 93.62 121.35 Z" />
</g>
<g id="#6bbb5cff">
<path fill="#6bbb5c" opacity="1.00" d=" M 135.61 105.47 C 138.33 104.59 140.83 106.47 143.25 107.41 C 141.02 111.15 141.74 115.61 142.90 119.56 C 143.88 121.98 145.95 123.65 147.96 125.20 C 146.69 126.86 145.17 128.31 143.52 129.57 C 141.23 124.42 134.34 123.30 129.70 125.81 C 130.18 120.46 131.50 115.22 131.87 109.86 C 129.51 112.31 127.49 115.05 125.33 117.67 C 124.52 116.93 123.72 116.20 122.91 115.47 C 126.66 111.64 130.26 107.03 135.61 105.47 Z" />
</g>
<g id="#abe689ff">
<path fill="#abe689" opacity="1.00" d=" M 113.72 117.33 C 112.68 113.38 111.56 109.07 113.82 105.30 C 114.63 107.72 115.10 110.23 115.53 112.74 C 116.46 113.15 117.40 113.56 118.34 113.96 C 118.01 114.55 117.34 115.72 117.00 116.31 C 115.89 116.61 114.80 116.95 113.72 117.33 Z" />
</g>
<g id="#cbf6a9ff">
<path fill="#cbf6a9" opacity="1.00" d=" M 166.94 106.35 C 168.76 108.16 169.83 110.54 170.22 113.07 L 170.16 114.55 C 167.91 112.39 167.29 109.31 166.94 106.35 Z" />
</g>
<g id="#7fb06eff">
<path fill="#7fb06e" opacity="1.00" d=" M 125.33 117.67 C 127.49 115.05 129.51 112.31 131.87 109.86 C 131.50 115.22 130.18 120.46 129.70 125.81 C 129.24 125.97 128.32 126.28 127.86 126.44 C 125.09 127.29 122.24 126.59 119.50 125.99 C 119.77 124.24 120.12 122.51 120.50 120.77 C 122.28 120.54 123.86 119.82 123.99 117.79 C 124.32 117.76 124.99 117.70 125.33 117.67 Z" />
</g>
<g id="#c6ff9dff">
<path fill="#c6ff9d" opacity="1.00" d=" M 30.54 116.35 C 40.56 111.78 52.24 110.93 62.73 114.29 C 68.84 118.04 74.54 122.45 79.52 127.61 C 84.43 130.34 90.26 129.93 95.62 131.06 C 96.12 131.45 97.13 132.24 97.63 132.63 C 98.17 133.50 98.70 134.39 99.20 135.28 C 96.94 135.90 94.64 136.45 92.29 136.47 C 86.99 134.93 80.58 134.86 76.76 130.31 C 72.35 125.68 67.59 121.07 61.70 118.42 C 50.20 115.28 37.84 116.88 26.78 120.96 C 23.58 122.07 20.10 123.14 18.03 126.03 C 14.92 127.34 12.44 129.74 9.38 131.15 C 12.38 127.54 15.98 124.51 19.57 121.52 C 22.73 118.89 26.87 118.02 30.54 116.35 Z" />
</g>
<g id="#668a50ff">
<path fill="#668a50" opacity="1.00" d=" M 118.34 113.96 L 118.97 114.24 C 118.65 114.81 118.01 115.94 117.69 116.51 L 117.00 116.31 C 117.34 115.72 118.01 114.55 118.34 113.96 Z" />
</g>
<g id="#549152ff">
<path fill="#549152" opacity="1.00" d=" M 111.27 116.37 C 112.20 117.26 113.14 118.14 114.13 118.96 C 117.37 121.03 120.53 115.75 123.99 117.79 C 123.86 119.82 122.28 120.54 120.50 120.77 C 120.12 122.51 119.77 124.24 119.50 125.99 C 119.31 129.43 119.57 132.90 120.39 136.25 C 116.95 135.19 115.26 131.76 112.28 130.00 C 111.90 128.71 111.58 127.41 111.34 126.10 C 111.15 124.70 111.00 123.31 110.90 121.91 C 110.95 120.06 111.11 118.21 111.27 116.37 Z" />
</g>
<g id="#e2f4e1ff">
<path fill="#e2f4e1" opacity="1.00" d=" M 18.03 126.03 C 29.85 119.54 43.75 116.91 57.11 118.76 C 62.93 119.51 67.47 123.58 71.68 127.32 C 75.06 130.25 77.74 134.47 82.40 135.46 C 85.36 136.54 89.03 136.36 91.30 138.85 C 90.42 138.81 88.65 138.71 87.76 138.66 C 80.99 137.16 74.15 136.02 67.28 135.09 C 65.09 131.29 62.52 127.43 58.49 125.40 C 50.33 121.39 40.68 121.44 32.12 124.13 C 22.64 127.10 13.64 131.83 5.96 138.15 C 6.62 138.22 7.95 138.36 8.62 138.42 C 8.29 138.58 7.63 138.89 7.30 139.04 C 6.43 138.74 4.33 138.33 5.81 137.14 C 9.52 133.05 14.09 129.88 18.03 126.03 Z" />
</g>
<g id="#649e5fff">
<path fill="#649e5f" opacity="1.00" d=" M 94.33 117.81 C 99.48 120.47 104.99 122.50 110.90 121.91 C 111.00 123.31 111.15 124.70 111.34 126.10 C 110.19 126.58 109.04 127.05 107.89 127.52 C 107.66 128.20 107.43 128.88 107.20 129.56 C 104.46 127.73 101.06 127.42 98.15 125.92 C 96.53 124.51 94.98 123.02 93.62 121.35 C 93.80 120.47 94.16 118.70 94.33 117.81 Z" />
</g>
<g id="#f7feccff">
<path fill="#f7fecc" opacity="1.00" d=" M 149.75 125.26 C 150.01 123.92 149.13 121.54 150.90 121.00 C 152.58 120.92 154.27 120.93 155.95 120.92 C 156.70 121.49 157.44 122.07 158.19 122.64 C 160.02 124.07 161.84 125.50 163.62 126.98 C 163.58 127.10 163.51 127.33 163.47 127.45 C 163.63 127.41 163.94 127.34 164.10 127.30 C 166.16 129.81 168.90 131.49 172.26 130.88 C 171.68 132.12 171.12 133.36 170.56 134.61 C 164.85 131.76 161.37 125.65 155.15 123.66 C 154.69 124.90 154.22 126.14 153.75 127.38 C 153.02 126.00 152.23 124.66 151.45 123.32 C 150.88 123.96 150.31 124.61 149.75 125.26 Z" />
</g>
<g id="#899286ff">
<path fill="#899286" opacity="1.00" d=" M 32.12 124.13 C 40.68 121.44 50.33 121.39 58.49 125.40 C 62.52 127.43 65.09 131.29 67.28 135.09 C 74.15 136.02 80.99 137.16 87.76 138.66 L 88.78 140.32 L 87.35 140.14 C 80.35 138.95 73.37 137.54 66.34 136.55 C 63.54 132.80 61.37 128.10 56.67 126.35 C 44.33 121.09 30.48 125.24 19.19 131.18 C 15.54 133.37 11.32 134.99 8.62 138.42 C 7.95 138.36 6.62 138.22 5.96 138.15 C 13.64 131.83 22.64 127.10 32.12 124.13 Z" />
</g>
<g id="#78b26dff">
<path fill="#78b26d" opacity="1.00" d=" M 158.19 122.64 C 161.19 121.27 164.50 121.67 167.69 121.88 C 167.02 124.06 165.19 125.47 163.62 126.98 C 161.84 125.50 160.02 124.07 158.19 122.64 Z" />
</g>
<g id="#ceffa5ff">
<path fill="#ceffa5" opacity="1.00" d=" M 149.75 125.26 C 150.31 124.61 150.88 123.96 151.45 123.32 C 152.23 124.66 153.02 126.00 153.75 127.38 C 154.76 129.50 155.56 131.71 156.46 133.87 C 155.15 133.74 153.85 133.61 152.54 133.47 C 151.53 130.77 150.51 128.05 149.75 125.26 Z" />
</g>
<g id="#effee9ff">
<path fill="#effee9" opacity="1.00" d=" M 19.19 131.18 C 30.48 125.24 44.33 121.09 56.67 126.35 C 61.37 128.10 63.54 132.80 66.34 136.55 C 73.37 137.54 80.35 138.95 87.35 140.14 C 85.43 140.92 83.56 141.80 81.67 142.66 C 73.55 141.23 65.40 142.08 57.29 143.03 C 57.28 140.85 57.30 138.67 57.39 136.49 C 52.62 131.06 44.94 129.12 37.95 129.86 C 27.75 130.84 17.81 133.95 8.62 138.42 C 11.32 134.99 15.54 133.37 19.19 131.18 Z" />
</g>
<g id="#ffffffff">
<path fill="#ffffff" opacity="1.00" d=" M 155.15 123.66 C 161.37 125.65 164.85 131.76 170.56 134.61 C 170.85 134.62 171.43 134.63 171.72 134.64 C 173.01 137.31 174.39 139.93 175.61 142.64 C 174.89 142.79 173.46 143.10 172.75 143.26 C 172.53 143.63 172.08 144.38 171.86 144.75 C 171.69 145.05 171.33 145.65 171.15 145.95 C 169.30 143.59 167.42 141.24 165.32 139.08 C 164.09 138.22 162.76 137.49 161.46 136.73 C 161.34 138.27 161.27 139.82 161.45 141.36 C 162.13 143.81 163.02 146.20 163.92 148.58 C 163.68 148.51 163.19 148.37 162.95 148.30 C 162.16 146.56 161.36 144.82 160.58 143.08 C 159.23 140.00 157.79 136.96 156.46 133.87 C 155.56 131.71 154.76 129.50 153.75 127.38 C 154.22 126.14 154.69 124.90 155.15 123.66 Z" />
</g>
<g id="#73c662ff">
<path fill="#73c662" opacity="1.00" d=" M 166.55 126.59 C 166.66 125.89 166.89 124.48 167.01 123.78 C 169.13 125.86 170.58 128.45 172.26 130.88 C 168.90 131.49 166.16 129.81 164.10 127.30 C 164.71 127.12 165.93 126.77 166.55 126.59 Z" />
</g>
<g id="#758b65d9">
<path fill="#758b65" opacity="0.85" d=" M 9.38 131.15 C 12.44 129.74 14.92 127.34 18.03 126.03 C 14.09 129.88 9.52 133.05 5.81 137.14 C 4.33 138.33 6.43 138.74 7.30 139.04 C 4.90 140.19 2.48 141.30 0.00 142.29 L 0.00 142.03 C 3.32 138.58 6.13 134.68 9.38 131.15 Z" />
</g>
<g id="#6eb05fff">
<path fill="#6eb05f" opacity="1.00" d=" M 98.15 125.92 C 101.06 127.42 104.46 127.73 107.20 129.56 C 105.56 133.59 104.66 138.03 102.26 141.68 C 101.75 141.63 100.73 141.52 100.21 141.46 C 99.88 139.40 99.67 137.32 99.20 135.28 C 98.70 134.39 98.17 133.50 97.63 132.63 C 97.40 130.38 97.66 128.12 98.15 125.92 Z" />
</g>
<g id="#5e9a59ff">
<path fill="#5e9a59" opacity="1.00" d=" M 120.39 136.25 C 119.57 132.90 119.31 129.43 119.50 125.99 C 122.24 126.59 125.09 127.29 127.86 126.44 C 129.24 131.90 130.98 137.60 135.04 141.72 C 131.98 142.42 128.73 143.08 125.74 141.69 C 125.18 141.08 124.63 140.47 124.09 139.85 C 123.85 139.59 123.37 139.07 123.13 138.81 C 122.63 138.51 121.64 137.91 121.14 137.62 C 120.95 137.28 120.58 136.59 120.39 136.25 Z" />
</g>
<g id="#3d6339ff">
<path fill="#3d6339" opacity="1.00" d=" M 127.86 126.44 C 131.21 128.52 130.99 133.05 133.02 136.12 C 134.08 137.96 135.23 139.74 136.33 141.56 L 135.04 141.72 C 130.98 137.60 129.24 131.90 127.86 126.44 Z" />
</g>
<g id="#62a061ff">
<path fill="#62a061" opacity="1.00" d=" M 112.28 130.00 C 115.26 131.76 116.95 135.19 120.39 136.25 C 120.58 136.59 120.95 137.28 121.14 137.62 C 121.64 137.91 122.63 138.51 123.13 138.81 C 123.37 139.07 123.85 139.59 124.09 139.85 C 123.50 140.23 122.31 140.99 121.72 141.37 C 117.87 138.28 113.94 134.81 112.28 130.00 Z" />
<path fill="#62a061" opacity="1.00" d=" M 95.11 219.48 C 98.17 219.24 100.22 221.79 102.55 223.32 C 104.91 225.24 107.95 225.86 110.84 226.50 C 110.93 227.57 111.02 228.65 111.14 229.72 C 109.53 229.64 107.92 229.56 106.31 229.46 C 105.31 227.29 103.72 225.50 101.34 224.88 C 100.91 225.95 100.50 227.03 100.11 228.12 C 99.26 227.30 98.42 226.47 97.59 225.64 C 97.15 224.96 96.74 224.27 96.35 223.57 C 95.91 222.21 95.50 220.85 95.11 219.48 Z" />
</g>
<g id="#c7ff9dff">
<path fill="#c7ff9d" opacity="1.00" d=" M 172.26 130.88 C 176.26 133.17 178.35 137.53 178.55 142.04 C 180.85 141.48 183.21 141.27 185.57 141.22 C 184.13 147.01 182.37 152.74 180.08 158.26 C 179.51 157.24 178.95 156.22 178.39 155.20 C 173.79 158.08 167.86 159.82 162.73 157.25 C 159.27 155.16 159.41 150.79 159.26 147.25 C 160.49 147.60 161.72 147.95 162.95 148.30 C 163.19 148.37 163.68 148.51 163.92 148.58 C 163.02 146.20 162.13 143.81 161.45 141.36 C 162.74 140.61 164.04 139.85 165.32 139.08 C 167.42 141.24 169.30 143.59 171.15 145.95 C 171.33 145.65 171.69 145.05 171.86 144.75 C 173.59 144.69 175.31 144.71 177.04 144.71 C 176.10 140.88 174.84 137.09 172.41 133.92 L 171.72 134.64 C 171.43 134.63 170.85 134.62 170.56 134.61 C 171.12 133.36 171.68 132.12 172.26 130.88 Z" />
</g>
<g id="#b3f194fc">
<path fill="#b3f194" opacity="1.00" d=" M 152.54 133.47 C 153.85 133.61 155.15 133.74 156.46 133.87 C 157.79 136.96 159.23 140.00 160.58 143.08 C 159.50 142.48 158.42 141.90 157.36 141.27 C 155.30 139.38 153.87 136.94 152.88 134.34 C 152.80 134.13 152.63 133.69 152.54 133.47 Z" />
</g>
<g id="#619e5cff">
<path fill="#619e5c" opacity="1.00" d=" M 133.02 136.12 C 133.66 135.48 134.30 134.84 134.94 134.21 C 137.48 136.72 140.82 136.79 144.05 135.71 C 146.42 136.70 148.95 137.16 151.50 137.42 L 151.29 137.88 C 148.70 140.12 145.48 141.65 142.00 141.58 C 140.11 141.50 138.22 141.44 136.33 141.56 C 135.23 139.74 134.08 137.96 133.02 136.12 Z" />
</g>
<g id="#49894bff">
<path fill="#49894b" opacity="1.00" d=" M 172.41 133.92 C 174.84 137.09 176.10 140.88 177.04 144.71 C 175.31 144.71 173.59 144.69 171.86 144.75 C 172.08 144.38 172.53 143.63 172.75 143.26 C 173.46 143.10 174.89 142.79 175.61 142.64 C 174.39 139.93 173.01 137.31 171.72 134.64 L 172.41 133.92 Z" />
<path fill="#49894b" opacity="1.00" d=" M 112.02 167.68 C 116.48 167.79 121.03 167.44 124.96 165.12 C 125.86 166.58 126.75 168.05 127.61 169.53 C 125.08 170.55 122.54 172.39 119.67 171.81 C 117.58 171.35 115.48 170.92 113.36 170.59 L 112.58 170.46 C 112.44 169.76 112.16 168.38 112.02 167.68 Z" />
</g>
<g id="#94d379ff">
<path fill="#94d379" opacity="1.00" d=" M 92.29 136.47 C 94.64 136.45 96.94 135.90 99.20 135.28 C 99.67 137.32 99.88 139.40 100.21 141.46 C 100.65 141.73 101.54 142.28 101.98 142.55 C 101.66 142.68 101.03 142.94 100.71 143.07 C 97.90 141.45 94.78 141.57 91.80 142.62 C 92.09 140.58 92.19 138.52 92.29 136.47 Z" />
</g>
<g id="#b4f790ff">
<path fill="#b4f790" opacity="1.00" d=" M 112.45 137.88 C 113.68 138.84 114.91 139.82 116.10 140.84 C 115.86 142.20 114.84 143.72 115.78 145.05 C 117.47 148.46 119.74 151.53 121.85 154.68 C 121.94 155.06 122.11 155.83 122.20 156.21 C 121.82 156.02 121.07 155.66 120.69 155.48 C 119.51 157.07 118.11 158.83 115.91 158.74 C 112.49 159.01 110.63 155.62 108.72 153.39 C 107.73 153.57 106.75 153.76 105.76 153.95 C 107.34 148.33 110.49 143.35 112.45 137.88 Z" />
</g>
<g id="#74b866ff">
<path fill="#74b866" opacity="1.00" d=" M 142.00 141.58 C 145.48 141.65 148.70 140.12 151.29 137.88 L 151.16 138.68 C 152.24 140.62 153.37 142.54 154.36 144.54 C 154.01 146.03 153.60 147.51 153.22 149.00 C 154.76 149.98 154.94 151.84 155.48 153.42 C 156.59 157.90 160.84 160.80 165.05 162.05 C 169.41 163.42 173.88 161.06 178.28 162.18 C 176.57 165.71 173.39 168.14 170.04 169.99 C 168.98 169.35 167.92 168.72 166.87 168.08 L 168.34 167.49 C 164.10 166.27 159.36 166.09 155.73 163.31 C 153.89 161.66 152.61 159.51 151.04 157.63 C 150.24 161.56 152.35 164.98 154.41 168.11 C 152.22 169.22 150.01 170.32 147.66 171.07 C 146.39 165.54 148.85 159.96 147.50 154.44 C 148.70 154.18 149.90 153.95 151.11 153.73 C 150.88 152.89 150.65 152.06 150.43 151.22 C 149.62 148.65 149.73 145.47 147.42 143.65 C 146.01 142.16 143.90 141.92 142.00 141.58 Z" />
</g>
<g id="#ddfbdaff">
<path fill="#ddfbda" opacity="1.00" d=" M 87.35 140.14 L 88.78 140.32 C 89.14 140.49 89.85 140.82 90.21 140.99 C 89.68 142.19 89.16 143.40 88.65 144.62 C 86.38 143.79 84.02 143.22 81.67 142.66 C 83.56 141.80 85.43 140.92 87.35 140.14 Z" />
<path fill="#ddfbda" opacity="1.00" d=" M 113.22 224.43 C 115.19 224.44 116.68 225.85 118.22 226.89 C 116.63 230.45 116.20 234.42 114.62 238.00 L 113.97 238.00 C 113.09 236.04 112.25 234.06 111.61 232.01 C 111.47 229.43 111.27 226.43 113.22 224.43 Z" />
</g>
<g id="#84d96cff">
<path fill="#84d96c" opacity="1.00" d=" M 135.04 141.72 L 136.33 141.56 C 138.22 141.44 140.11 141.50 142.00 141.58 C 143.90 141.92 146.01 142.16 147.42 143.65 C 149.73 145.47 149.62 148.65 150.43 151.22 C 149.89 151.47 148.82 151.96 148.29 152.20 C 147.02 149.39 146.40 145.26 142.88 144.43 C 139.33 143.95 135.73 144.64 132.17 144.27 C 129.86 144.02 127.55 144.28 125.26 144.57 L 124.92 143.97 C 125.12 143.40 125.54 142.26 125.74 141.69 C 128.73 143.08 131.98 142.42 135.04 141.72 Z" />
</g>
<g id="#a8e788ff">
<path fill="#a8e788" opacity="1.00" d=" M 157.36 141.27 C 158.42 141.90 159.50 142.48 160.58 143.08 C 161.36 144.82 162.16 146.56 162.95 148.30 C 161.72 147.95 160.49 147.60 159.26 147.25 C 159.41 150.79 159.27 155.16 162.73 157.25 C 167.86 159.82 173.79 158.08 178.39 155.20 C 178.95 156.22 179.51 157.24 180.08 158.26 C 179.53 159.58 178.93 160.89 178.28 162.18 C 173.88 161.06 169.41 163.42 165.05 162.05 C 160.84 160.80 156.59 157.90 155.48 153.42 C 154.94 151.84 154.76 149.98 153.22 149.00 C 153.60 147.51 154.01 146.03 154.36 144.54 L 155.10 144.91 C 155.87 143.70 156.62 142.49 157.36 141.27 Z" />
</g>
<g id="#63a15eff">
<path fill="#63a15e" opacity="1.00" d=" M 91.80 142.62 C 94.78 141.57 97.90 141.45 100.71 143.07 C 97.41 144.55 93.20 148.86 89.73 145.64 C 90.44 144.64 91.13 143.64 91.80 142.62 Z" />
</g>
<g id="#a0e782ff">
<path fill="#a0e782" opacity="1.00" d=" M 115.78 145.05 C 114.84 143.72 115.86 142.20 116.10 140.84 C 117.42 142.00 118.69 143.20 119.90 144.47 C 122.87 147.14 122.85 151.10 121.85 154.68 C 119.74 151.53 117.47 148.46 115.78 145.05 Z" />
</g>
<g id="#86c174ff">
<path fill="#86c174" opacity="1.00" d=" M 119.90 144.47 C 121.01 143.25 122.03 141.96 123.07 140.68 C 123.68 141.78 124.30 142.88 124.92 143.97 L 125.26 144.57 C 127.55 144.28 129.86 144.02 132.17 144.27 C 130.31 147.11 128.99 150.23 128.03 153.48 C 126.39 153.59 124.75 153.69 123.11 153.77 C 123.08 154.91 123.06 156.06 123.04 157.20 C 122.83 156.95 122.41 156.45 122.20 156.21 C 122.11 155.83 121.94 155.06 121.85 154.68 C 122.85 151.10 122.87 147.14 119.90 144.47 Z" />
</g>
<g id="#a9f285ff">
<path fill="#a9f285" opacity="1.00" d=" M 132.17 144.27 C 135.73 144.64 139.33 143.95 142.88 144.43 C 146.40 145.26 147.02 149.39 148.29 152.20 C 141.96 156.07 134.82 152.49 128.03 153.48 C 128.99 150.23 130.31 147.11 132.17 144.27 Z" />
</g>
<g id="#9ede7fff">
<path fill="#9ede7f" opacity="1.00" d=" M 105.76 153.95 C 106.75 153.76 107.73 153.57 108.72 153.39 C 110.63 155.62 112.49 159.01 115.91 158.74 C 118.11 158.83 119.51 157.07 120.69 155.48 C 121.07 155.66 121.82 156.02 122.20 156.21 C 122.41 156.45 122.83 156.95 123.04 157.20 C 121.99 159.10 121.19 161.44 119.04 162.37 C 115.45 162.33 112.11 160.79 109.42 158.48 C 108.31 157.27 106.59 157.71 105.15 157.61 C 105.31 156.38 105.51 155.16 105.76 153.95 Z" />
</g>
<g id="#94ce7cff">
<path fill="#94ce7c" opacity="1.00" d=" M 125.91 155.72 C 127.38 155.26 128.87 154.89 130.38 154.58 C 132.10 159.79 136.51 163.70 141.84 164.91 C 143.78 162.27 145.48 159.35 145.40 155.95 C 144.75 155.86 143.46 155.67 142.81 155.57 C 144.38 155.22 145.93 154.80 147.50 154.44 C 148.85 159.96 146.39 165.54 147.66 171.07 C 145.84 171.59 143.99 172.02 142.13 172.36 C 140.75 172.31 139.37 172.24 138.00 172.16 C 133.16 167.27 130.37 160.90 125.91 155.72 Z" />
</g>
<g id="#ace98aff">
<path fill="#ace98a" opacity="1.00" d=" M 130.38 154.58 C 134.56 154.37 138.65 155.44 142.81 155.57 C 143.46 155.67 144.75 155.86 145.40 155.95 C 145.48 159.35 143.78 162.27 141.84 164.91 C 136.51 163.70 132.10 159.79 130.38 154.58 Z" />
</g>
<g id="#75b36cff">
<path fill="#75b36c" opacity="1.00" d=" M 123.04 157.20 C 123.98 156.69 124.94 156.20 125.91 155.72 C 130.37 160.90 133.16 167.27 138.00 172.16 C 139.37 172.24 140.75 172.31 142.13 172.36 C 138.06 173.17 133.89 173.22 129.75 173.22 C 129.01 172.00 128.31 170.76 127.61 169.53 C 126.75 168.05 125.86 166.58 124.96 165.12 C 121.03 167.44 116.48 167.79 112.02 167.68 C 112.16 168.38 112.44 169.76 112.58 170.46 C 112.02 170.35 110.92 170.13 110.36 170.02 C 106.88 166.82 104.91 162.37 105.15 157.61 C 106.59 157.71 108.31 157.27 109.42 158.48 C 112.11 160.79 115.45 162.33 119.04 162.37 C 121.19 161.44 121.99 159.10 123.04 157.20 Z" />
</g>
<g id="#94cf7aff">
<path fill="#94cf7a" opacity="1.00" d=" M 164.15 169.10 C 165.06 168.77 165.97 168.43 166.87 168.08 C 167.92 168.72 168.98 169.35 170.04 169.99 C 171.14 173.64 172.50 177.21 173.56 180.88 C 172.72 181.87 171.87 182.86 171.03 183.85 C 169.06 179.68 167.34 175.37 164.73 171.55 C 164.54 170.73 164.34 169.92 164.15 169.10 Z" />
</g>
<g id="#7bb56dff">
<path fill="#7bb56d" opacity="1.00" d=" M 133.52 175.01 C 140.68 173.86 148.27 173.54 154.74 169.95 C 153.19 174.51 151.21 179.09 147.78 182.55 C 147.64 181.33 147.67 180.03 147.12 178.90 C 142.52 177.86 137.82 177.10 133.52 175.01 Z" />
</g>
<g id="#75ac68ff">
<path fill="#75ac68" opacity="1.00" d=" M 113.36 170.59 C 115.48 170.92 117.58 171.35 119.67 171.81 C 119.10 175.18 118.58 178.56 118.42 181.98 C 118.34 183.37 118.27 184.77 118.20 186.16 C 116.94 186.26 115.67 186.34 114.41 186.40 C 114.86 182.71 114.91 178.99 114.73 175.29 C 114.27 175.45 113.34 175.79 112.87 175.95 C 113.04 174.16 113.21 172.38 113.36 170.59 Z" />
</g>
<g id="#62a158ff">
<path fill="#62a158" opacity="1.00" d=" M 164.73 171.55 C 167.34 175.37 169.06 179.68 171.03 183.85 C 169.06 186.26 170.20 189.31 170.50 192.06 C 170.85 194.54 169.91 196.94 169.47 199.34 C 169.07 194.71 167.25 190.43 165.95 186.04 C 166.41 184.75 167.56 183.88 168.38 182.83 C 167.11 179.68 165.63 176.61 164.78 173.32 L 164.73 171.55 Z" />
</g>
<g id="#5e9f5eff">
<path fill="#5e9f5e" opacity="1.00" d=" M 112.87 175.95 C 113.34 175.79 114.27 175.45 114.73 175.29 C 114.91 178.99 114.86 182.71 114.41 186.40 C 112.68 186.40 110.95 186.34 109.22 186.28 C 109.31 185.06 109.41 183.85 109.53 182.64 L 110.11 182.08 C 110.73 182.00 111.97 181.85 112.59 181.77 C 112.64 179.83 112.70 177.88 112.87 175.95 Z" />
</g>
<g id="#6aa665ff">
<path fill="#6aa665" opacity="1.00" d=" M 130.75 174.75 C 131.44 174.81 132.83 174.95 133.52 175.01 C 137.82 177.10 142.52 177.86 147.12 178.90 C 147.67 180.03 147.64 181.33 147.78 182.55 C 146.59 183.54 145.23 184.32 143.78 184.82 C 138.17 183.65 133.69 179.52 130.75 174.75 Z" />
</g>
<g id="#6fab64ff">
<path fill="#6fab64" opacity="1.00" d=" M 173.56 180.88 C 174.17 180.29 174.89 180.01 175.71 180.03 C 176.39 180.50 177.06 180.98 177.74 181.47 C 175.73 182.72 172.63 183.44 172.30 186.20 C 171.92 189.13 172.30 192.09 171.99 195.03 C 171.60 200.90 170.60 207.17 173.16 212.72 C 174.56 216.12 177.33 218.79 180.45 220.64 C 183.35 222.12 186.74 222.11 189.73 223.37 C 188.38 224.26 187.02 225.12 185.66 225.98 C 183.97 223.96 181.50 223.16 178.96 222.85 C 178.92 224.54 178.89 226.23 178.94 227.92 C 177.59 227.89 176.25 227.86 174.91 227.83 C 173.29 225.76 171.39 223.80 168.71 223.23 C 166.47 215.33 169.69 207.32 169.47 199.34 C 169.91 196.94 170.85 194.54 170.50 192.06 C 170.20 189.31 169.06 186.26 171.03 183.85 C 171.87 182.86 172.72 181.87 173.56 180.88 Z" />
</g>
<g id="#99df7bff">
<path fill="#99df7b" opacity="1.00" d=" M 175.71 180.03 C 176.55 180.00 178.23 179.95 179.07 179.92 C 180.35 183.08 181.55 186.28 182.81 189.44 C 180.72 189.67 177.40 188.67 176.57 191.40 C 174.61 196.60 174.87 202.37 175.44 207.81 C 175.64 210.91 178.26 213.01 180.98 214.00 C 185.34 216.06 190.28 212.24 194.49 215.07 L 194.68 216.42 C 192.42 216.36 189.95 216.04 188.15 217.76 C 190.40 220.41 192.72 223.09 194.05 226.36 C 192.52 225.49 191.15 224.39 189.73 223.37 C 186.74 222.11 183.35 222.12 180.45 220.64 C 177.33 218.79 174.56 216.12 173.16 212.72 C 170.60 207.17 171.60 200.90 171.99 195.03 C 172.30 192.09 171.92 189.13 172.30 186.20 C 172.63 183.44 175.73 182.72 177.74 181.47 C 177.06 180.98 176.39 180.50 175.71 180.03 Z" />
</g>
<g id="#84d26dff">
<path fill="#84d26d" opacity="1.00" d=" M 108.20 184.04 C 108.53 183.69 109.20 182.99 109.53 182.64 C 109.41 183.85 109.31 185.06 109.22 186.28 C 110.95 186.34 112.68 186.40 114.41 186.40 C 115.67 186.34 116.94 186.26 118.20 186.16 C 118.27 184.77 118.34 183.37 118.42 181.98 C 119.93 182.73 121.40 183.56 122.78 184.54 C 121.96 188.78 121.41 193.08 121.49 197.41 C 120.80 198.43 120.12 199.46 119.44 200.50 C 118.07 198.50 116.76 195.81 114.03 195.56 C 111.10 195.92 108.41 197.33 105.56 198.05 C 107.63 193.65 107.53 188.74 108.20 184.04 Z" />
</g>
<g id="#bafe91ff">
<path fill="#bafe91" opacity="1.00" d=" M 176.57 191.40 C 177.40 188.67 180.72 189.67 182.81 189.44 C 184.79 194.27 186.61 199.25 189.79 203.45 C 192.30 206.87 194.15 210.80 194.49 215.07 C 190.28 212.24 185.34 216.06 180.98 214.00 C 178.26 213.01 175.64 210.91 175.44 207.81 C 174.87 202.37 174.61 196.60 176.57 191.40 Z" />
</g>
<g id="#a0e182ff">
<path fill="#a0e182" opacity="1.00" d=" M 105.56 198.05 C 108.41 197.33 111.10 195.92 114.03 195.56 C 116.76 195.81 118.07 198.50 119.44 200.50 C 120.12 199.46 120.80 198.43 121.49 197.41 C 121.61 203.25 121.29 209.12 122.06 214.93 C 122.50 217.65 121.35 220.21 120.30 222.64 C 116.00 221.05 111.29 222.36 107.00 220.99 C 102.38 219.58 101.09 213.31 95.79 213.45 C 98.91 208.23 103.48 203.89 105.56 198.05 M 111.21 198.51 C 108.39 202.61 103.70 207.57 106.01 212.96 C 106.77 215.49 109.64 216.41 112.04 216.16 C 114.22 215.18 116.24 213.69 117.86 211.93 C 118.96 207.76 116.74 203.83 116.26 199.75 C 114.95 198.56 112.91 198.55 111.21 198.51 Z" />
</g>
<g id="#b2fb8aff">
<path fill="#b2fb8a" opacity="1.00" d=" M 111.21 198.51 C 112.91 198.55 114.95 198.56 116.26 199.75 C 116.74 203.83 118.96 207.76 117.86 211.93 C 116.24 213.69 114.22 215.18 112.04 216.16 C 109.64 216.41 106.77 215.49 106.01 212.96 C 103.70 207.57 108.39 202.61 111.21 198.51 Z" />
</g>
<g id="#7fbf6cff">
<path fill="#7fbf6c" opacity="1.00" d=" M 95.79 213.45 C 101.09 213.31 102.38 219.58 107.00 220.99 C 111.29 222.36 116.00 221.05 120.30 222.64 C 119.65 224.07 118.94 225.48 118.22 226.89 C 116.68 225.85 115.19 224.44 113.22 224.43 C 111.27 226.43 111.47 229.43 111.61 232.01 C 111.49 231.44 111.25 230.30 111.14 229.72 C 111.02 228.65 110.93 227.57 110.84 226.50 C 107.95 225.86 104.91 225.24 102.55 223.32 C 100.22 221.79 98.17 219.24 95.11 219.48 C 94.74 219.46 94.00 219.43 93.63 219.41 C 94.16 217.36 94.80 215.34 95.79 213.45 Z" />
</g>
<g id="#f2fff2ff">
<path fill="#f2fff2" opacity="1.00" d=" M 188.15 217.76 C 189.95 216.04 192.42 216.36 194.68 216.42 C 195.03 220.31 196.44 224.01 196.92 227.88 C 196.20 227.50 194.77 226.74 194.05 226.36 C 192.72 223.09 190.40 220.41 188.15 217.76 Z" />
</g>
<g id="#dfffdcff">
<path fill="#dfffdc" opacity="1.00" d=" M 93.63 219.41 C 94.00 219.43 94.74 219.46 95.11 219.48 C 95.50 220.85 95.91 222.21 96.35 223.57 C 94.00 225.01 91.95 226.87 90.38 229.15 C 89.20 229.84 87.98 230.46 86.77 231.08 C 88.14 226.69 91.12 223.17 93.63 219.41 Z" />
</g>
<g id="#dafadafa">
<path fill="#dafada" opacity="0.98" d=" M 168.71 223.23 C 171.39 223.80 173.29 225.76 174.91 227.83 C 172.92 231.04 170.92 234.25 168.74 237.33 C 167.32 232.63 169.47 227.85 168.71 223.23 Z" />
</g>
<g id="#eafce7ff">
<path fill="#eafce7" opacity="1.00" d=" M 178.96 222.85 C 181.50 223.16 183.97 223.96 185.66 225.98 C 184.16 229.19 183.79 232.78 182.69 236.12 C 180.88 233.68 179.63 230.88 178.94 227.92 C 178.89 226.23 178.92 224.54 178.96 222.85 Z" />
</g>
<g id="#92b5a6e3">
<path fill="#92b5a6" opacity="0.89" d=" M 90.38 229.15 C 91.95 226.87 94.00 225.01 96.35 223.57 C 96.74 224.27 97.15 224.96 97.59 225.64 C 95.03 226.47 92.74 227.89 90.38 229.15 Z" />
</g>
<g id="#dfffdeff">
<path fill="#dfffde" opacity="1.00" d=" M 101.34 224.88 C 103.72 225.50 105.31 227.29 106.31 229.46 C 103.97 232.34 101.56 235.15 99.19 238.00 L 98.41 238.00 C 98.38 234.63 98.95 231.28 100.11 228.12 C 100.50 227.03 100.91 225.95 101.34 224.88 Z" />
</g>
</svg>
