<?xml version="1.0" encoding="UTF-8" ?>
<!DOCTYPE svg PUBLIC "-//W3C//DTD SVG 1.1//EN" "http://www.w3.org/Graphics/SVG/1.1/DTD/svg11.dtd">
<svg width="230pt" height="191pt" viewBox="0 0 230 191" version="1.1" xmlns="http://www.w3.org/2000/svg">
<g id="#3d3d3c75">
<path fill="#3d3d3c" opacity="0.46" d=" M 101.91 16.98 C 106.54 16.15 111.71 14.98 116.15 17.07 C 111.42 16.28 106.66 17.15 101.91 16.98 Z" />
</g>
<g id="#fffebeff">
<path fill="#fffebe" opacity="1.00" d=" M 97.72 18.69 C 98.88 17.68 100.36 17.04 101.91 16.98 C 106.66 17.15 111.42 16.28 116.15 17.07 C 118.12 17.61 120.05 18.28 122.00 18.89 C 127.36 15.24 133.82 17.00 139.84 16.97 C 145.23 21.06 150.58 25.23 154.63 30.72 C 153.31 31.03 152.00 31.33 150.68 31.64 C 150.10 32.38 149.51 33.12 148.92 33.86 C 147.04 31.96 144.56 32.06 142.36 33.33 C 141.95 33.00 141.12 32.35 140.71 32.02 C 139.45 33.65 138.28 35.33 137.18 37.07 C 130.33 34.73 125.87 28.79 119.97 24.99 C 118.40 23.68 116.61 25.26 115.04 25.73 C 114.07 23.99 113.05 22.27 111.99 20.57 C 105.06 21.04 100.89 26.98 95.81 30.87 C 89.37 36.24 84.81 43.35 80.37 50.37 C 75.72 57.47 73.40 65.78 68.92 72.98 C 66.08 78.06 63.38 83.22 60.08 88.03 C 57.61 91.60 57.63 96.67 53.99 99.42 L 54.20 99.92 C 54.01 100.36 53.64 101.24 53.45 101.68 C 49.79 106.20 45.71 110.34 41.63 114.47 C 41.38 114.49 40.86 114.54 40.60 114.56 C 45.57 109.09 49.16 102.63 53.45 96.65 C 54.84 94.71 56.14 92.62 56.36 90.18 C 56.74 88.28 57.27 86.41 58.00 84.62 L 58.30 83.88 C 58.65 83.10 59.04 82.33 59.44 81.57 C 61.27 81.25 62.10 79.48 63.00 78.06 C 65.55 73.49 68.19 68.93 69.95 63.99 C 72.81 56.34 77.15 49.30 79.53 41.47 C 80.20 39.69 81.97 38.64 82.82 36.97 C 83.01 35.59 83.08 34.20 83.02 32.80 L 83.02 32.34 C 84.58 30.77 85.78 28.91 87.14 27.18 C 87.99 26.68 88.67 26.01 89.18 25.15 C 92.00 22.97 94.91 20.89 97.72 18.69 Z" />
<path fill="#fffebe" opacity="1.00" d=" M 156.98 34.20 C 158.33 34.19 158.83 34.90 158.48 36.31 C 157.11 36.30 156.62 35.59 156.98 34.20 Z" />
</g>
<g id="#e1d6a9ff">
<path fill="#e1d6a9" opacity="1.00" d=" M 95.81 30.87 C 100.89 26.98 105.06 21.04 111.99 20.57 C 113.05 22.27 114.07 23.99 115.04 25.73 C 116.61 25.26 118.40 23.68 119.97 24.99 C 125.87 28.79 130.33 34.73 137.18 37.07 C 138.28 35.33 139.45 33.65 140.71 32.02 C 141.12 32.35 141.95 33.00 142.36 33.33 C 140.43 38.06 143.01 43.10 144.14 47.76 C 144.16 51.39 145.25 56.04 142.51 58.93 C 141.43 57.14 140.87 54.85 139.08 53.62 C 136.85 52.72 135.28 54.75 133.60 55.82 C 134.62 52.32 132.43 49.20 130.90 46.24 C 130.39 44.80 128.91 44.29 127.69 43.62 C 126.67 41.16 125.02 39.02 123.28 37.02 C 121.28 34.74 119.38 31.92 116.06 31.66 C 115.30 32.52 114.55 33.39 113.81 34.27 C 112.33 32.41 111.41 29.75 109.01 28.91 C 106.82 29.32 104.94 30.58 102.89 31.40 C 92.77 34.91 86.31 44.31 81.35 53.30 C 78.68 58.93 75.05 64.06 72.64 69.81 C 69.93 76.00 66.99 82.11 63.79 88.07 C 61.54 89.64 61.16 92.47 60.02 94.76 C 59.26 96.57 58.15 98.24 57.64 100.14 C 57.30 103.07 57.80 106.07 57.19 108.97 L 55.78 109.68 C 55.41 106.44 56.10 102.79 54.20 99.92 L 53.99 99.42 C 57.63 96.67 57.61 91.60 60.08 88.03 C 63.38 83.22 66.08 78.06 68.92 72.98 C 73.40 65.78 75.72 57.47 80.37 50.37 C 84.81 43.35 89.37 36.24 95.81 30.87 Z" />
<path fill="#e1d6a9" opacity="1.00" d=" M 163.30 44.21 C 161.53 46.97 159.90 43.02 161.55 41.53 C 161.99 42.20 162.86 43.54 163.30 44.21 Z" />
</g>
<g id="#1d1d1a47">
<path fill="#1d1d1a" opacity="0.28" d=" M 87.14 27.18 C 86.69 25.34 87.37 24.67 89.18 25.15 C 88.67 26.01 87.99 26.68 87.14 27.18 Z" />
</g>
<g id="#33263987">
<path fill="#332639" opacity="0.53" d=" M 42.90 29.79 C 43.26 28.39 46.91 28.34 46.97 29.95 C 45.61 30.15 44.25 30.10 42.90 29.79 Z" />
</g>
<g id="#c0b397ff">
<path fill="#c0b397" opacity="1.00" d=" M 102.89 31.40 C 104.94 30.58 106.82 29.32 109.01 28.91 C 111.41 29.75 112.33 32.41 113.81 34.27 C 112.99 35.47 112.29 36.75 111.59 38.03 C 111.31 37.75 110.75 37.19 110.47 36.90 C 108.29 34.63 105.71 32.80 102.89 31.40 Z" />
</g>
<g id="#d1cfdeff">
<path fill="#d1cfde" opacity="1.00" d=" M 41.67 31.25 C 41.98 30.88 42.59 30.15 42.90 29.79 C 44.25 30.10 45.61 30.15 46.97 29.95 C 47.12 30.14 47.42 30.52 47.57 30.71 C 45.66 31.26 43.64 31.79 41.67 31.25 Z" />
<path fill="#d1cfde" opacity="1.00" d=" M 148.35 73.60 L 148.35 73.60 C 149.47 74.13 150.60 74.62 151.75 75.08 L 152.41 75.49 C 149.87 80.86 153.95 86.01 154.82 91.25 C 153.21 90.48 151.52 89.87 149.95 89.03 C 147.70 84.35 150.40 78.85 148.21 74.12 L 148.35 73.60 Z" />
</g>
<g id="#9e78b7fe">
<path fill="#9e78b7" opacity="1.00" d=" M 41.10 31.13 L 41.67 31.25 C 43.64 31.79 45.66 31.26 47.57 30.71 L 48.59 31.85 L 48.30 32.15 C 46.71 33.82 45.08 35.46 43.52 37.16 L 43.28 37.42 C 42.70 35.31 40.39 33.44 41.10 31.13 Z" />
</g>
<g id="#9370afff">
<path fill="#9370af" opacity="1.00" d=" M 150.68 31.64 C 152.00 31.33 153.31 31.03 154.63 30.72 C 155.44 31.60 156.29 32.45 157.11 33.33 L 156.98 34.20 C 156.62 35.59 157.11 36.30 158.48 36.31 C 161.35 36.06 163.49 39.09 161.55 41.53 C 159.90 43.02 161.53 46.97 163.30 44.21 L 163.63 43.83 C 164.01 44.21 164.78 44.97 165.16 45.35 C 165.32 45.64 165.65 46.22 165.81 46.51 C 164.43 47.84 162.70 48.85 161.62 50.46 C 160.23 54.72 160.45 59.74 157.23 63.23 C 154.74 65.90 153.29 69.26 152.07 72.65 C 150.76 72.70 149.52 73.02 148.35 73.60 L 148.35 73.60 C 147.50 72.84 146.65 72.07 145.83 71.28 L 145.92 71.06 C 147.53 66.56 148.09 61.71 148.12 56.95 C 148.22 55.29 146.76 54.63 145.52 54.02 C 145.26 51.89 144.89 49.77 144.14 47.76 C 143.01 43.10 140.43 38.06 142.36 33.33 C 144.56 32.06 147.04 31.96 148.92 33.86 C 149.51 33.12 150.10 32.38 150.68 31.64 M 151.39 49.69 C 152.56 49.64 153.98 49.93 154.70 48.72 C 155.03 45.82 154.54 42.91 154.74 40.01 C 154.79 37.94 156.91 36.12 155.94 34.02 C 151.62 37.86 150.68 44.16 151.39 49.69 M 146.62 40.93 C 146.63 43.08 146.39 45.77 148.59 46.97 C 149.20 43.00 149.06 38.97 148.55 35.00 C 146.83 36.45 146.68 38.83 146.62 40.93 Z" />
</g>
<g id="#a27ab7ff">
<path fill="#a27ab7" opacity="1.00" d=" M 34.01 32.95 C 35.98 32.02 38.72 30.76 40.07 33.29 C 38.51 34.84 37.06 36.50 35.71 38.23 C 35.02 37.48 34.32 36.74 33.63 35.99 C 33.72 35.23 33.91 33.71 34.01 32.95 Z" />
</g>
<g id="#9772b2ff">
<path fill="#9772b2" opacity="1.00" d=" M 51.36 33.99 C 52.62 32.92 54.21 31.10 56.06 32.09 C 56.98 32.82 58.91 33.57 58.09 35.09 C 57.64 37.68 54.65 38.62 53.71 40.95 C 52.81 44.89 54.26 48.95 56.72 52.05 C 56.91 52.28 57.28 52.75 57.46 52.98 C 57.63 51.11 59.15 49.56 60.94 49.17 C 62.29 49.55 63.40 50.45 64.54 51.23 C 62.41 53.55 60.86 56.44 58.30 58.34 C 55.26 59.44 51.93 60.15 49.74 62.75 C 47.75 65.14 44.84 66.09 41.84 66.43 C 38.71 63.72 37.03 59.79 36.10 55.84 C 36.71 57.29 37.25 58.89 38.62 59.81 C 38.22 56.06 37.39 52.38 36.21 48.80 C 36.18 47.56 35.80 46.46 35.10 45.51 C 35.92 45.86 36.75 46.19 37.59 46.51 C 37.89 46.12 38.49 45.36 38.79 44.97 C 39.06 45.19 39.60 45.62 39.87 45.84 C 39.88 45.30 39.88 44.22 39.89 43.68 C 41.21 43.30 42.61 43.18 43.98 43.38 C 44.38 43.54 45.18 43.88 45.59 44.05 C 44.95 42.52 44.56 40.91 44.26 39.29 C 46.71 40.03 46.74 43.30 48.49 44.93 C 48.81 44.02 49.13 43.11 49.43 42.19 C 49.92 43.30 50.00 44.86 51.40 45.20 L 51.65 44.58 C 52.29 41.08 51.99 37.47 51.36 33.99 Z" />
</g>
<g id="#7e547dff">
<path fill="#7e547d" opacity="1.00" d=" M 56.06 32.09 C 60.19 32.57 58.92 37.43 58.37 40.20 C 57.22 44.05 56.45 48.00 56.72 52.05 C 54.26 48.95 52.81 44.89 53.71 40.95 C 54.65 38.62 57.64 37.68 58.09 35.09 C 58.91 33.57 56.98 32.82 56.06 32.09 Z" />
</g>
<g id="#867274ff">
<path fill="#867274" opacity="1.00" d=" M 81.35 53.30 C 86.31 44.31 92.77 34.91 102.89 31.40 C 105.71 32.80 108.29 34.63 110.47 36.90 C 107.61 36.35 104.76 37.06 102.21 38.36 C 97.20 40.68 92.24 43.46 88.58 47.67 C 84.19 52.79 81.46 59.12 80.03 65.67 C 78.28 70.19 78.04 75.14 76.11 79.58 C 75.26 76.22 74.71 72.79 74.63 69.33 C 74.13 69.45 73.14 69.69 72.64 69.81 C 75.05 64.06 78.68 58.93 81.35 53.30 Z" />
</g>
<g id="#766854ff">
<path fill="#766854" opacity="1.00" d=" M 113.81 34.27 C 114.55 33.39 115.30 32.52 116.06 31.66 C 119.38 31.92 121.28 34.74 123.28 37.02 L 122.01 37.17 C 118.46 36.28 114.97 36.79 111.59 38.03 C 112.29 36.75 112.99 35.47 113.81 34.27 Z" />
</g>
<g id="#795481ff">
<path fill="#795481" opacity="1.00" d=" M 43.52 37.16 C 45.08 35.46 46.71 33.82 48.30 32.15 C 50.40 35.69 50.09 40.12 50.58 44.11 L 51.65 44.58 L 51.40 45.20 C 50.00 44.86 49.92 43.30 49.43 42.19 C 49.13 43.11 48.81 44.02 48.49 44.93 C 46.74 43.30 46.71 40.03 44.26 39.29 C 44.08 38.76 43.71 37.69 43.52 37.16 Z" />
</g>
<g id="#ffffdeff">
<path fill="#ffffde" opacity="1.00" d=" M 75.56 45.57 C 77.80 41.17 79.41 36.32 83.02 32.80 C 83.08 34.20 83.01 35.59 82.82 36.97 C 81.97 38.64 80.20 39.69 79.53 41.47 C 77.15 49.30 72.81 56.34 69.95 63.99 C 68.19 68.93 65.55 73.49 63.00 78.06 C 62.10 79.48 61.27 81.25 59.44 81.57 C 59.81 80.59 60.55 78.62 60.92 77.64 C 59.71 76.47 58.45 75.30 56.80 74.76 C 56.29 73.62 55.79 72.48 55.26 71.35 C 57.88 71.76 59.39 74.68 61.38 76.23 C 63.37 72.71 64.35 68.75 66.15 65.15 C 67.15 63.15 68.05 61.09 68.89 59.02 C 71.08 54.52 73.24 50.00 75.56 45.57 Z" />
<path fill="#ffffde" opacity="1.00" d=" M 45.14 85.85 C 44.58 84.88 43.64 81.78 45.21 81.20 C 46.31 82.62 46.08 84.41 45.14 85.85 Z" />
</g>
<g id="#7d598bff">
<path fill="#7d598b" opacity="1.00" d=" M 35.71 38.23 C 37.06 36.50 38.51 34.84 40.07 33.29 C 41.94 36.38 43.55 39.75 43.98 43.38 C 42.61 43.18 41.21 43.30 39.89 43.68 L 39.37 43.81 C 38.31 41.86 37.25 39.86 35.71 38.23 Z" />
</g>
<g id="#835f98ff">
<path fill="#835f98" opacity="1.00" d=" M 151.39 49.69 C 150.68 44.16 151.62 37.86 155.94 34.02 C 156.91 36.12 154.79 37.94 154.74 40.01 C 154.54 42.91 155.03 45.82 154.70 48.72 C 153.98 49.93 152.56 49.64 151.39 49.69 Z" />
</g>
<g id="#886297ff">
<path fill="#886297" opacity="1.00" d=" M 146.62 40.93 C 146.68 38.83 146.83 36.45 148.55 35.00 C 149.06 38.97 149.20 43.00 148.59 46.97 C 146.39 45.77 146.63 43.08 146.62 40.93 Z" />
</g>
<g id="#8461a2ff">
<path fill="#8461a2" opacity="1.00" d=" M 102.21 38.36 C 104.76 37.06 107.61 36.35 110.47 36.90 C 110.75 37.19 111.31 37.75 111.59 38.03 C 114.97 36.79 118.46 36.28 122.01 37.17 C 122.44 40.49 123.07 43.78 123.32 47.11 C 120.96 46.18 118.45 46.11 116.01 46.71 C 114.54 44.55 112.73 42.20 109.83 42.24 C 106.38 41.42 103.58 43.84 101.07 45.80 C 99.77 45.92 98.47 46.05 97.17 46.19 C 98.64 43.49 102.51 41.82 102.21 38.36 Z" />
</g>
<g id="#9774b3ff">
<path fill="#9774b3" opacity="1.00" d=" M 28.77 38.84 C 29.84 38.17 30.90 37.46 31.96 36.77 C 33.00 37.58 34.03 38.40 35.05 39.23 L 34.87 39.37 C 33.30 40.32 32.08 41.68 31.11 43.22 C 29.22 42.52 28.07 40.88 28.77 38.84 Z" />
</g>
<g id="#6c4c88ff">
<path fill="#6c4c88" opacity="1.00" d=" M 122.01 37.17 L 123.28 37.02 C 125.02 39.02 126.67 41.16 127.69 43.62 C 128.37 46.99 129.31 50.29 130.01 53.65 C 129.76 58.09 130.69 62.58 129.61 66.95 C 128.06 69.27 126.65 71.67 125.09 73.97 C 123.33 76.77 119.62 77.16 117.52 79.64 C 113.28 80.98 110.37 84.52 106.39 86.36 C 101.93 84.46 99.27 79.98 94.72 78.26 C 92.08 77.06 88.82 76.90 86.40 78.68 C 86.47 75.90 84.10 74.21 82.15 72.69 C 81.64 73.00 80.62 73.62 80.11 73.93 C 80.22 71.17 80.17 68.42 80.03 65.67 C 81.46 59.12 84.19 52.79 88.58 47.67 C 92.24 43.46 97.20 40.68 102.21 38.36 C 102.51 41.82 98.64 43.49 97.17 46.19 C 97.00 46.64 96.68 47.55 96.51 48.00 C 96.24 48.25 95.69 48.75 95.41 48.99 C 94.08 49.78 92.90 50.79 91.97 52.03 C 89.65 55.97 88.22 60.43 87.78 64.98 C 87.12 70.90 92.58 76.93 98.60 76.46 C 102.82 78.09 107.50 78.12 111.81 76.80 C 119.01 75.87 124.70 69.09 124.91 61.91 C 125.29 60.22 124.26 58.81 123.22 57.62 C 125.67 54.47 125.87 50.27 123.32 47.11 C 123.07 43.78 122.44 40.49 122.01 37.17 Z" />
</g>
<g id="#7e5c91ff">
<path fill="#7e5c91" opacity="1.00" d=" M 31.11 43.22 C 32.08 41.68 33.30 40.32 34.87 39.37 C 36.58 40.88 37.86 42.90 38.79 44.97 C 38.49 45.36 37.89 46.12 37.59 46.51 C 36.75 46.19 35.92 45.86 35.10 45.51 C 35.80 46.46 36.18 47.56 36.21 48.80 C 36.08 50.92 35.94 53.04 35.93 55.17 C 35.61 53.22 35.37 51.25 35.55 49.27 C 35.02 48.39 33.95 47.51 34.56 46.35 C 33.44 45.27 32.29 44.23 31.11 43.22 Z" />
</g>
<g id="#9b76b8ff">
<path fill="#9b76b8" opacity="1.00" d=" M 101.07 45.80 C 103.58 43.84 106.38 41.42 109.83 42.24 C 112.73 42.20 114.54 44.55 116.01 46.71 C 112.00 49.69 111.61 56.39 116.29 58.93 C 116.15 60.60 116.01 62.26 115.89 63.93 C 113.46 61.00 109.52 59.54 105.88 61.04 C 102.47 59.43 97.76 60.65 96.30 64.31 C 96.26 65.03 96.19 66.45 96.15 67.17 C 96.10 68.89 96.06 70.62 96.00 72.35 C 95.13 70.84 94.75 69.14 94.38 67.46 C 94.06 67.76 93.43 68.35 93.11 68.65 C 92.34 65.50 92.01 62.11 93.68 59.17 C 100.17 59.93 104.76 50.90 101.07 45.80 Z" />
</g>
<g id="#cdbb92ff">
<path fill="#cdbb92" opacity="1.00" d=" M 127.69 43.62 C 128.91 44.29 130.39 44.80 130.90 46.24 C 132.43 49.20 134.62 52.32 133.60 55.82 C 133.55 56.91 133.01 58.22 133.87 59.15 C 136.98 64.03 142.67 66.29 145.92 71.06 L 145.83 71.28 C 142.72 77.12 142.53 84.14 138.50 89.56 C 136.45 88.59 134.33 87.73 132.41 86.52 C 131.02 79.05 133.34 71.48 133.16 63.96 C 133.11 60.29 131.54 56.91 130.01 53.65 C 129.31 50.29 128.37 46.99 127.69 43.62 Z" />
</g>
<g id="#7f5884ff">
<path fill="#7f5884" opacity="1.00" d=" M 165.16 45.35 C 166.71 45.92 166.54 47.76 165.70 48.87 C 163.77 51.86 163.66 55.36 164.11 58.76 C 164.08 59.20 164.00 60.07 163.96 60.51 C 163.84 61.10 163.59 62.29 163.46 62.88 C 162.52 66.64 160.40 69.91 157.78 72.72 C 155.88 72.64 153.97 72.61 152.07 72.65 C 153.29 69.26 154.74 65.90 157.23 63.23 C 160.45 59.74 160.23 54.72 161.62 50.46 C 162.70 48.85 164.43 47.84 165.81 46.51 C 165.65 46.22 165.32 45.64 165.16 45.35 Z" />
</g>
<g id="#544156ff">
<path fill="#544156" opacity="1.00" d=" M 97.17 46.19 C 98.47 46.05 99.77 45.92 101.07 45.80 C 104.76 50.90 100.17 59.93 93.68 59.17 C 92.22 57.04 91.67 54.59 91.97 52.03 C 92.90 50.79 94.08 49.78 95.41 48.99 C 94.12 50.93 93.26 53.14 93.34 55.51 C 93.95 56.76 95.49 58.13 96.86 56.97 C 99.93 55.24 102.04 51.13 100.39 47.75 L 99.10 47.30 C 98.45 47.48 97.16 47.83 96.51 48.00 C 96.68 47.55 97.00 46.64 97.17 46.19 Z" />
<path fill="#544156" opacity="1.00" d=" M 76.11 79.58 C 78.04 75.14 78.28 70.19 80.03 65.67 C 80.17 68.42 80.22 71.17 80.11 73.93 C 79.72 76.66 81.13 79.08 82.64 81.21 L 82.96 81.56 C 82.33 82.25 81.72 82.94 81.11 83.65 C 79.08 85.94 78.39 88.99 77.61 91.87 C 77.33 92.41 76.76 93.49 76.48 94.03 C 76.04 89.66 75.92 85.26 75.94 80.88 C 75.98 80.55 76.07 79.90 76.11 79.58 Z" />
<path fill="#544156" opacity="1.00" d=" M 51.31 82.81 C 53.57 82.94 57.01 81.30 58.30 83.88 L 58.00 84.62 C 55.54 82.94 52.34 83.32 49.67 84.26 C 47.49 84.71 46.67 87.00 45.31 88.49 L 45.02 88.87 C 45.09 88.75 45.22 88.49 45.29 88.37 C 46.06 86.94 46.84 85.52 47.61 84.08 C 48.84 83.64 50.06 83.20 51.31 82.81 Z" />
</g>
<g id="#411f33ff">
<path fill="#411f33" opacity="1.00" d=" M 116.01 46.71 C 118.45 46.11 120.96 46.18 123.32 47.11 C 125.87 50.27 125.67 54.47 123.22 57.62 C 121.22 59.19 118.71 59.53 116.29 58.93 C 111.61 56.39 112.00 49.69 116.01 46.71 M 115.79 48.74 C 113.89 50.81 113.78 54.13 115.56 56.30 C 116.71 58.37 119.98 58.02 121.51 56.58 C 123.89 54.80 124.76 50.54 122.25 48.56 C 120.41 47.26 117.33 46.71 115.79 48.74 Z" />
<path fill="#411f33" opacity="1.00" d=" M 96.55 52.55 C 97.14 51.07 98.04 50.86 99.25 51.94 C 98.86 52.31 98.07 53.06 97.68 53.43 L 96.86 53.35 L 96.55 52.55 Z" />
<path fill="#411f33" opacity="1.00" d=" M 118.98 53.73 C 116.36 54.94 117.03 50.07 119.20 51.84 C 119.14 52.31 119.03 53.26 118.98 53.73 Z" />
<path fill="#411f33" opacity="1.00" d=" M 100.34 66.34 C 103.71 66.74 106.99 68.01 110.39 66.97 C 111.03 69.28 109.09 70.72 107.09 71.11 C 104.80 71.29 102.53 70.96 100.36 70.24 C 100.36 69.27 100.35 67.31 100.34 66.34 Z" />
<path fill="#411f33" opacity="1.00" d=" M 143.42 91.71 C 143.19 97.79 140.13 103.21 137.79 108.68 C 135.73 109.64 133.58 110.47 131.32 110.84 C 136.22 105.13 141.04 98.93 143.42 91.71 Z" />
</g>
<g id="#ebebebff">
<path fill="#ebebeb" opacity="1.00" d=" M 95.41 48.99 C 95.69 48.75 96.24 48.25 96.51 48.00 C 97.16 47.83 98.45 47.48 99.10 47.30 L 100.39 47.75 C 100.33 48.52 100.20 50.06 100.13 50.82 C 99.91 51.10 99.47 51.66 99.25 51.94 C 98.04 50.86 97.14 51.07 96.55 52.55 C 96.08 54.11 94.90 55.08 93.34 55.51 C 93.26 53.14 94.12 50.93 95.41 48.99 Z" />
<path fill="#ebebeb" opacity="1.00" d=" M 115.79 48.74 C 117.33 46.71 120.41 47.26 122.25 48.56 C 121.78 49.92 121.32 51.29 120.89 52.67 C 120.47 52.46 119.62 52.05 119.20 51.84 C 117.03 50.07 116.36 54.94 118.98 53.73 C 118.21 55.00 116.74 55.52 115.56 56.30 C 113.78 54.13 113.89 50.81 115.79 48.74 Z" />
<path fill="#ebebeb" opacity="1.00" d=" M 156.59 75.22 C 159.52 76.87 161.50 79.71 163.97 81.92 C 164.37 81.66 165.16 81.15 165.55 80.90 C 166.77 81.55 167.84 82.45 168.74 83.52 C 169.17 84.48 169.62 85.45 170.07 86.41 C 169.24 86.38 168.42 86.36 167.59 86.37 C 166.98 84.88 166.15 83.49 165.17 82.21 C 165.30 82.92 165.57 84.32 165.70 85.02 C 164.28 85.81 163.53 84.12 162.73 83.34 C 160.72 80.60 158.13 78.29 156.59 75.22 Z" />
</g>
<g id="#bdb5beff">
<path fill="#bdb5be" opacity="1.00" d=" M 100.39 47.75 C 102.04 51.13 99.93 55.24 96.86 56.97 C 95.49 58.13 93.95 56.76 93.34 55.51 C 94.90 55.08 96.08 54.11 96.55 52.55 L 96.86 53.35 L 97.68 53.43 C 98.07 53.06 98.86 52.31 99.25 51.94 C 99.47 51.66 99.91 51.10 100.13 50.82 C 100.20 50.06 100.33 48.52 100.39 47.75 Z" />
<path fill="#bdb5be" opacity="1.00" d=" M 152.41 75.49 C 153.12 76.22 153.66 77.07 154.02 78.04 C 155.16 81.60 158.84 83.48 160.17 86.96 C 161.60 89.75 160.10 92.79 159.25 95.50 C 157.85 94.00 156.39 92.56 154.82 91.25 C 153.95 86.01 149.87 80.86 152.41 75.49 Z" />
<path fill="#bdb5be" opacity="1.00" d=" M 49.67 84.26 C 52.34 83.32 55.54 82.94 58.00 84.62 C 57.27 86.41 56.74 88.28 56.36 90.18 C 56.23 89.69 55.97 88.69 55.84 88.20 C 54.27 90.56 51.98 92.22 49.44 93.41 C 48.52 92.95 46.91 92.67 47.34 91.27 C 47.61 91.44 48.16 91.78 48.43 91.95 C 50.49 89.86 52.71 87.83 54.00 85.14 C 52.56 84.83 51.11 84.54 49.67 84.26 Z" />
</g>
<g id="#a67ebfff">
<path fill="#a67ebf" opacity="1.00" d=" M 144.14 47.76 C 144.89 49.77 145.26 51.89 145.52 54.02 C 146.76 54.63 148.22 55.29 148.12 56.95 C 148.09 61.71 147.53 66.56 145.92 71.06 C 142.67 66.29 136.98 64.03 133.87 59.15 C 133.01 58.22 133.55 56.91 133.60 55.82 C 135.28 54.75 136.85 52.72 139.08 53.62 C 140.87 54.85 141.43 57.14 142.51 58.93 C 145.25 56.04 144.16 51.39 144.14 47.76 Z" />
</g>
<g id="#ca97dcff">
<path fill="#ca97dc" opacity="1.00" d=" M 36.21 48.80 C 37.39 52.38 38.22 56.06 38.62 59.81 C 37.25 58.89 36.71 57.29 36.10 55.84 L 35.93 55.17 C 35.94 53.04 36.08 50.92 36.21 48.80 Z" />
</g>
<g id="#969696ff">
<path fill="#969696" opacity="1.00" d=" M 122.25 48.56 C 124.76 50.54 123.89 54.80 121.51 56.58 C 119.98 58.02 116.71 58.37 115.56 56.30 C 116.74 55.52 118.21 55.00 118.98 53.73 C 119.03 53.26 119.14 52.31 119.20 51.84 C 119.62 52.05 120.47 52.46 120.89 52.67 C 121.32 51.29 121.78 49.92 122.25 48.56 Z" />
</g>
<g id="#d2bd93ff">
<path fill="#d2bd93" opacity="1.00" d=" M 164.11 58.76 C 163.66 55.36 163.77 51.86 165.70 48.87 C 169.23 57.46 172.59 66.35 172.96 75.73 C 173.12 79.52 172.96 83.32 172.99 87.11 L 172.26 86.88 C 172.30 77.08 170.71 66.45 164.11 58.76 Z" />
</g>
<g id="#7e5782ff">
<path fill="#7e5782" opacity="1.00" d=" M 64.54 51.23 L 64.93 50.78 C 65.64 54.88 63.20 59.57 59.58 61.68 C 57.26 63.43 54.56 64.50 52.06 65.94 C 50.75 66.68 49.38 67.32 47.97 67.83 C 46.28 68.12 44.53 68.46 42.91 67.67 C 42.64 67.36 42.11 66.74 41.84 66.43 C 44.84 66.09 47.75 65.14 49.74 62.75 C 51.93 60.15 55.26 59.44 58.30 58.34 C 60.86 56.44 62.41 53.55 64.54 51.23 Z" />
</g>
<g id="#8764a5ff">
<path fill="#8764a5" opacity="1.00" d=" M 87.78 64.98 C 88.22 60.43 89.65 55.97 91.97 52.03 C 91.67 54.59 92.22 57.04 93.68 59.17 C 92.01 62.11 92.34 65.50 93.11 68.65 C 93.43 68.35 94.06 67.76 94.38 67.46 C 94.75 69.14 95.13 70.84 96.00 72.35 C 96.84 73.73 97.74 75.08 98.60 76.46 C 92.58 76.93 87.12 70.90 87.78 64.98 Z" />
</g>
<g id="#b7a687ff">
<path fill="#b7a687" opacity="1.00" d=" M 130.01 53.65 C 131.54 56.91 133.11 60.29 133.16 63.96 C 133.34 71.48 131.02 79.05 132.41 86.52 C 134.33 87.73 136.45 88.59 138.50 89.56 C 142.53 84.14 142.72 77.12 145.83 71.28 C 146.65 72.07 147.50 72.84 148.35 73.60 L 148.21 74.12 C 147.37 76.26 146.68 78.46 146.17 80.70 C 141.82 87.25 139.87 95.54 133.75 100.79 C 131.65 102.81 128.61 100.41 127.70 98.27 C 126.57 93.52 128.33 88.31 126.64 83.63 C 126.69 83.12 126.80 82.09 126.86 81.58 C 126.93 81.34 127.09 80.85 127.17 80.61 C 128.66 76.20 129.05 71.54 129.61 66.95 C 130.69 62.58 129.76 58.09 130.01 53.65 Z" />
</g>
<g id="#8764a0ff">
<path fill="#8764a0" opacity="1.00" d=" M 116.29 58.93 C 118.71 59.53 121.22 59.19 123.22 57.62 C 124.26 58.81 125.29 60.22 124.91 61.91 C 124.70 69.09 119.01 75.87 111.81 76.80 C 113.10 75.27 114.46 73.75 115.29 71.91 C 115.64 69.26 115.69 66.59 115.89 63.93 C 116.01 62.26 116.15 60.60 116.29 58.93 Z" />
</g>
<g id="#4e4e4776">
<path fill="#4e4e47" opacity="0.46" d=" M 66.15 65.15 C 66.81 63.00 67.62 60.89 68.89 59.02 C 68.05 61.09 67.15 63.15 66.15 65.15 Z" />
</g>
<g id="#a5907aff">
<path fill="#a5907a" opacity="1.00" d=" M 164.11 58.76 C 170.71 66.45 172.30 77.08 172.26 86.88 C 171.72 86.76 170.62 86.53 170.07 86.41 C 169.62 85.45 169.17 84.48 168.74 83.52 C 168.72 79.73 168.10 75.94 166.59 72.45 C 164.79 68.68 165.71 64.31 163.96 60.51 C 164.00 60.07 164.08 59.20 164.11 58.76 Z" />
</g>
<g id="#edc1c4ff">
<path fill="#edc1c4" opacity="1.00" d=" M 96.30 64.31 C 97.76 60.65 102.47 59.43 105.88 61.04 C 103.03 62.98 99.37 62.85 96.30 64.31 Z" />
</g>
<g id="#d58798ff">
<path fill="#d58798" opacity="1.00" d=" M 105.88 61.04 C 109.52 59.54 113.46 61.00 115.89 63.93 C 115.69 66.59 115.64 69.26 115.29 71.91 L 114.92 70.55 C 113.20 71.12 112.02 72.53 110.78 73.77 C 108.84 73.91 106.91 73.65 105.16 72.78 C 105.79 72.21 106.43 71.65 107.09 71.11 C 109.09 70.72 111.03 69.28 110.39 66.97 C 106.99 68.01 103.71 66.74 100.34 66.34 C 100.35 67.31 100.36 69.27 100.36 70.24 C 99.52 68.89 99.59 67.24 99.34 65.72 C 98.55 66.08 96.95 66.81 96.15 67.17 C 96.19 66.45 96.26 65.03 96.30 64.31 C 99.37 62.85 103.03 62.98 105.88 61.04 Z" />
</g>
<g id="#887067ff">
<path fill="#887067" opacity="1.00" d=" M 163.46 62.88 C 163.59 62.29 163.84 61.10 163.96 60.51 C 165.71 64.31 164.79 68.68 166.59 72.45 C 168.10 75.94 168.72 79.73 168.74 83.52 C 167.84 82.45 166.77 81.55 165.55 80.90 C 165.14 80.64 164.32 80.13 163.91 79.87 C 163.34 74.23 163.55 68.55 163.46 62.88 Z" />
</g>
<g id="#b39b7bff">
<path fill="#b39b7b" opacity="1.00" d=" M 163.46 62.88 C 163.55 68.55 163.34 74.23 163.91 79.87 C 164.32 80.13 165.14 80.64 165.55 80.90 C 165.16 81.15 164.37 81.66 163.97 81.92 C 161.50 79.71 159.52 76.87 156.59 75.22 L 155.95 75.12 C 156.41 74.52 157.32 73.32 157.78 72.72 C 160.40 69.91 162.52 66.64 163.46 62.88 Z" />
</g>
<g id="#bdb2bcfe">
<path fill="#bdb2bc" opacity="1.00" d=" M 47.97 67.83 C 49.38 67.32 50.75 66.68 52.06 65.94 C 52.00 68.26 54.19 69.55 55.26 71.35 C 55.79 72.48 56.29 73.62 56.80 74.76 C 51.95 72.65 48.35 79.06 51.31 82.81 C 50.06 83.20 48.84 83.64 47.61 84.08 C 47.23 80.19 46.16 76.35 46.37 72.41 C 48.34 71.37 50.61 70.44 51.34 68.12 C 50.50 68.05 48.81 67.90 47.97 67.83 Z" />
</g>
<g id="#c1788dff">
<path fill="#c1788d" opacity="1.00" d=" M 96.15 67.17 C 96.95 66.81 98.55 66.08 99.34 65.72 C 99.59 67.24 99.52 68.89 100.36 70.24 C 102.53 70.96 104.80 71.29 107.09 71.11 C 106.43 71.65 105.79 72.21 105.16 72.78 C 106.91 73.65 108.84 73.91 110.78 73.77 C 112.02 72.53 113.20 71.12 114.92 70.55 L 115.29 71.91 C 114.46 73.75 113.10 75.27 111.81 76.80 C 107.50 78.12 102.82 78.09 98.60 76.46 C 97.74 75.08 96.84 73.73 96.00 72.35 C 96.06 70.62 96.10 68.89 96.15 67.17 Z" />
</g>
<g id="#5b3f71ff">
<path fill="#5b3f71" opacity="1.00" d=" M 125.09 73.97 C 126.65 71.67 128.06 69.27 129.61 66.95 C 129.05 71.54 128.66 76.20 127.17 80.61 C 124.23 78.96 120.74 79.29 117.52 79.64 C 119.62 77.16 123.33 76.77 125.09 73.97 Z" />
</g>
<g id="#cdcddaff">
<path fill="#cdcdda" opacity="1.00" d=" M 42.91 67.67 C 44.53 68.46 46.28 68.12 47.97 67.83 C 48.81 67.90 50.50 68.05 51.34 68.12 C 50.61 70.44 48.34 71.37 46.37 72.41 C 46.16 76.35 47.23 80.19 47.61 84.08 C 46.84 85.52 46.06 86.94 45.29 88.37 L 45.14 85.85 C 46.08 84.41 46.31 82.62 45.21 81.20 C 45.55 79.10 45.04 76.96 45.00 74.75 C 45.28 73.67 45.06 72.71 44.32 71.89 C 43.54 70.60 43.13 69.15 42.91 67.67 Z" />
</g>
<g id="#513b48ff">
<path fill="#513b48" opacity="1.00" d=" M 72.64 69.81 C 73.14 69.69 74.13 69.45 74.63 69.33 C 74.71 72.79 75.26 76.22 76.11 79.58 C 76.07 79.90 75.98 80.55 75.94 80.88 C 75.15 81.40 74.36 81.94 73.58 82.48 C 70.75 84.38 69.07 87.43 66.99 90.03 C 64.98 92.55 64.87 95.90 63.82 98.84 C 63.50 100.11 62.76 100.83 61.60 101.00 C 60.67 96.53 63.20 92.41 63.79 88.07 C 66.99 82.11 69.93 76.00 72.64 69.81 Z" />
<path fill="#513b48" opacity="1.00" d=" M 165.17 82.21 C 166.15 83.49 166.98 84.88 167.59 86.37 C 169.01 90.32 171.89 93.77 171.89 98.15 C 171.53 97.63 170.82 96.60 170.46 96.09 C 168.83 92.42 168.07 88.33 165.70 85.02 C 165.57 84.32 165.30 82.92 165.17 82.21 Z" />
<path fill="#513b48" opacity="1.00" d=" M 60.80 115.20 C 60.99 110.63 59.34 105.55 61.64 101.36 C 62.03 105.94 61.88 110.72 60.80 115.20 Z" />
</g>
<g id="#32313376">
<path fill="#323133" opacity="0.46" d=" M 44.32 71.89 C 45.06 72.71 45.28 73.67 45.00 74.75 C 43.47 74.31 43.24 73.36 44.32 71.89 Z" />
</g>
<g id="#664e68ff">
<path fill="#664e68" opacity="1.00" d=" M 152.07 72.65 C 153.97 72.61 155.88 72.64 157.78 72.72 C 157.32 73.32 156.41 74.52 155.95 75.12 C 154.55 75.10 153.15 75.09 151.75 75.08 C 150.60 74.62 149.47 74.13 148.35 73.60 C 149.52 73.02 150.76 72.70 152.07 72.65 Z" />
</g>
<g id="#4f3271ff">
<path fill="#4f3271" opacity="1.00" d=" M 80.11 73.93 C 80.62 73.62 81.64 73.00 82.15 72.69 C 84.10 74.21 86.47 75.90 86.40 78.68 C 85.98 78.95 85.13 79.50 84.71 79.78 C 84.19 80.14 83.16 80.85 82.64 81.21 C 81.13 79.08 79.72 76.66 80.11 73.93 Z" />
</g>
<g id="#b4a3a6ff">
<path fill="#b4a3a6" opacity="1.00" d=" M 51.31 82.81 C 48.35 79.06 51.95 72.65 56.80 74.76 C 58.45 75.30 59.71 76.47 60.92 77.64 C 60.55 78.62 59.81 80.59 59.44 81.57 C 59.04 82.33 58.65 83.10 58.30 83.88 C 57.01 81.30 53.57 82.94 51.31 82.81 Z" />
</g>
<g id="#8a766eff">
<path fill="#8a766e" opacity="1.00" d=" M 146.17 80.70 C 146.68 78.46 147.37 76.26 148.21 74.12 C 150.40 78.85 147.70 84.35 149.95 89.03 C 151.52 89.87 153.21 90.48 154.82 91.25 C 156.39 92.56 157.85 94.00 159.25 95.50 C 159.79 96.42 160.30 97.35 160.77 98.31 C 160.50 98.90 159.97 100.10 159.70 100.70 L 159.33 100.93 C 158.53 98.67 157.57 96.41 155.78 94.76 C 153.49 93.26 151.42 90.23 148.63 90.22 C 148.23 92.51 148.16 94.85 148.32 97.17 C 144.58 100.81 142.71 105.75 140.34 110.28 C 138.75 113.50 136.70 116.46 135.17 119.71 C 135.66 120.15 136.63 121.03 137.12 121.47 C 136.32 122.02 135.51 122.57 134.70 123.11 C 132.91 124.27 131.01 125.26 129.12 126.24 C 129.66 125.17 130.21 124.11 130.79 123.07 C 131.57 121.67 132.39 120.30 133.14 118.89 C 134.87 115.57 136.36 112.13 137.79 108.68 C 140.13 103.21 143.19 97.79 143.42 91.71 C 144.43 88.06 146.04 84.55 146.17 80.70 Z" />
</g>
<g id="#b1a2a7ff">
<path fill="#b1a2a7" opacity="1.00" d=" M 151.75 75.08 C 153.15 75.09 154.55 75.10 155.95 75.12 L 156.59 75.22 C 158.13 78.29 160.72 80.60 162.73 83.34 C 163.53 84.12 164.28 85.81 165.70 85.02 C 168.07 88.33 168.83 92.42 170.46 96.09 C 167.67 97.59 165.92 100.24 163.74 102.42 C 163.39 102.38 162.68 102.30 162.33 102.26 C 161.85 100.92 161.33 99.61 160.77 98.31 C 160.30 97.35 159.79 96.42 159.25 95.50 C 160.10 92.79 161.60 89.75 160.17 86.96 C 158.84 83.48 155.16 81.60 154.02 78.04 C 153.66 77.07 153.12 76.22 152.41 75.49 L 151.75 75.08 Z" />
</g>
<g id="#14110f50">
<path fill="#14110f" opacity="0.31" d=" M 172.96 75.73 C 174.51 78.59 173.66 81.93 173.79 85.02 C 173.96 90.67 173.06 96.33 173.89 101.97 C 173.81 104.98 174.80 108.55 172.99 111.19 L 172.98 110.26 C 173.59 102.56 172.61 94.83 172.99 87.11 C 172.96 83.32 173.12 79.52 172.96 75.73 Z" />
</g>
<g id="#c1a754ff">
<path fill="#c1a754" opacity="1.00" d=" M 86.40 78.68 C 88.82 76.90 92.08 77.06 94.72 78.26 C 99.27 79.98 101.93 84.46 106.39 86.36 C 104.80 87.32 103.01 87.07 101.29 86.72 C 101.12 87.04 100.79 87.69 100.63 88.02 C 97.19 82.61 90.80 80.38 84.71 79.78 C 85.13 79.50 85.98 78.95 86.40 78.68 Z" />
</g>
<g id="#7c242eff">
<path fill="#7c242e" opacity="1.00" d=" M 82.64 81.21 C 83.16 80.85 84.19 80.14 84.71 79.78 C 90.80 80.38 97.19 82.61 100.63 88.02 C 101.92 91.14 102.71 94.60 101.59 97.91 C 99.80 102.75 95.48 106.55 90.39 107.55 C 87.88 107.42 85.36 107.26 82.86 106.97 C 81.32 106.11 79.73 105.34 78.11 104.66 C 76.78 104.02 75.51 103.26 74.28 102.45 C 76.30 95.72 71.06 89.23 73.58 82.48 C 74.36 81.94 75.15 81.40 75.94 80.88 C 75.92 85.26 76.04 89.66 76.48 94.03 C 76.76 93.49 77.33 92.41 77.61 91.87 C 77.98 95.82 78.26 100.05 80.55 103.45 C 87.55 108.13 97.70 103.71 99.95 95.86 C 100.27 94.48 99.76 93.10 99.54 91.75 C 97.17 84.91 89.78 81.61 82.96 81.56 L 82.64 81.21 Z" />
</g>
<g id="#cfbb5aff">
<path fill="#cfbb5a" opacity="1.00" d=" M 106.39 86.36 C 110.37 84.52 113.28 80.98 117.52 79.64 C 120.74 79.29 124.23 78.96 127.17 80.61 C 127.09 80.85 126.93 81.34 126.86 81.58 C 123.70 82.67 120.28 82.10 117.10 83.04 C 112.41 84.16 107.95 87.67 106.73 92.47 C 105.66 96.18 106.42 100.27 108.80 103.32 C 105.61 103.34 101.42 101.72 101.59 97.91 C 102.71 94.60 101.92 91.14 100.63 88.02 C 100.79 87.69 101.12 87.04 101.29 86.72 C 103.01 87.07 104.80 87.32 106.39 86.36 Z" />
</g>
<g id="#a4927dff">
<path fill="#a4927d" opacity="1.00" d=" M 133.75 100.79 C 139.87 95.54 141.82 87.25 146.17 80.70 C 146.04 84.55 144.43 88.06 143.42 91.71 C 141.04 98.93 136.22 105.13 131.32 110.84 C 129.47 112.72 127.56 114.60 125.19 115.83 C 122.88 116.98 120.58 118.16 118.38 119.51 C 117.39 120.10 116.40 120.68 115.42 121.26 C 115.46 120.04 115.56 118.82 115.67 117.60 C 113.78 118.13 112.03 119.00 110.28 119.87 C 108.06 120.91 105.75 121.78 103.41 122.54 C 104.54 120.97 105.74 119.43 107.09 118.04 C 109.28 115.77 111.59 113.57 113.39 110.95 C 113.85 110.20 114.29 109.44 114.74 108.70 C 115.06 108.20 115.68 107.21 116.00 106.71 C 120.44 99.82 123.13 92.00 126.26 84.48 L 126.64 83.63 C 128.33 88.31 126.57 93.52 127.70 98.27 C 128.61 100.41 131.65 102.81 133.75 100.79 Z" />
</g>
<g id="#d94a44ff">
<path fill="#d94a44" opacity="1.00" d=" M 81.11 83.65 C 81.72 82.94 82.33 82.25 82.96 81.56 C 89.78 81.61 97.17 84.91 99.54 91.75 C 98.91 93.67 98.59 95.75 97.53 97.50 C 93.70 100.39 88.36 102.40 83.73 100.21 C 81.99 98.18 80.72 95.66 80.24 93.02 C 79.70 89.80 82.25 86.84 81.11 83.65 Z" />
</g>
<g id="#702528ff">
<path fill="#702528" opacity="1.00" d=" M 117.10 83.04 C 120.28 82.10 123.70 82.67 126.86 81.58 C 126.80 82.09 126.69 83.12 126.64 83.63 L 126.26 84.48 C 122.40 84.31 118.32 83.70 114.69 85.43 C 111.95 87.09 108.91 89.07 108.39 92.53 C 106.77 96.41 108.73 100.35 110.80 103.60 C 112.04 105.39 113.68 106.80 116.00 106.71 C 115.68 107.21 115.06 108.20 114.74 108.70 C 112.34 107.42 110.45 105.45 108.80 103.32 C 106.42 100.27 105.66 96.18 106.73 92.47 C 107.95 87.67 112.41 84.16 117.10 83.04 Z" />
<path fill="#702528" opacity="1.00" d=" M 96.94 109.73 C 98.61 108.87 100.23 107.91 101.93 107.12 C 100.71 111.73 100.11 116.48 99.99 121.25 C 99.10 125.61 97.83 129.90 97.48 134.36 C 96.68 137.24 95.90 140.14 95.47 143.11 C 94.39 147.62 94.70 152.25 94.35 156.82 C 91.93 165.72 90.22 175.09 91.36 184.32 C 89.98 184.46 88.80 184.08 87.84 183.18 C 88.56 183.29 90.00 183.51 90.72 183.61 C 90.35 174.33 91.61 165.07 93.47 156.00 C 93.43 149.00 94.03 141.99 95.85 135.21 C 96.60 132.31 96.51 129.30 96.76 126.34 C 97.17 124.55 97.54 122.74 97.54 120.89 C 97.48 117.17 97.44 113.43 96.94 109.73 Z" />
</g>
<g id="#9f3236ff">
<path fill="#9f3236" opacity="1.00" d=" M 66.99 90.03 C 69.07 87.43 70.75 84.38 73.58 82.48 C 71.06 89.23 76.30 95.72 74.28 102.45 C 72.56 101.28 70.76 100.17 68.69 99.77 L 67.64 99.50 C 66.37 99.24 65.09 99.06 63.82 98.84 C 64.87 95.90 64.98 92.55 66.99 90.03 Z" />
</g>
<g id="#b83c3aff">
<path fill="#b83c3a" opacity="1.00" d=" M 77.61 91.87 C 78.39 88.99 79.08 85.94 81.11 83.65 C 82.25 86.84 79.70 89.80 80.24 93.02 C 80.72 95.66 81.99 98.18 83.73 100.21 C 88.36 102.40 93.70 100.39 97.53 97.50 C 98.59 95.75 98.91 93.67 99.54 91.75 C 99.76 93.10 100.27 94.48 99.95 95.86 C 97.70 103.71 87.55 108.13 80.55 103.45 C 78.26 100.05 77.98 95.82 77.61 91.87 Z" />
</g>
<g id="#ca423eff">
<path fill="#ca423e" opacity="1.00" d=" M 114.69 85.43 C 118.32 83.70 122.40 84.31 126.26 84.48 C 123.13 92.00 120.44 99.82 116.00 106.71 C 113.68 106.80 112.04 105.39 110.80 103.60 C 118.33 102.03 122.35 93.72 120.43 86.59 C 118.51 86.21 116.60 85.81 114.69 85.43 Z" />
</g>
<g id="#cac6d7ff">
<path fill="#cac6d7" opacity="1.00" d=" M 45.31 88.49 C 46.67 87.00 47.49 84.71 49.67 84.26 C 51.11 84.54 52.56 84.83 54.00 85.14 C 52.71 87.83 50.49 89.86 48.43 91.95 C 48.16 91.78 47.61 91.44 47.34 91.27 C 46.84 90.57 45.82 89.18 45.31 88.49 Z" />
</g>
<g id="#e44e48ff">
<path fill="#e44e48" opacity="1.00" d=" M 108.39 92.53 C 108.91 89.07 111.95 87.09 114.69 85.43 C 116.60 85.81 118.51 86.21 120.43 86.59 C 122.35 93.72 118.33 102.03 110.80 103.60 C 108.73 100.35 106.77 96.41 108.39 92.53 Z" />
</g>
<g id="#b7a7a7ff">
<path fill="#b7a7a7" opacity="1.00" d=" M 167.59 86.37 C 168.42 86.36 169.24 86.38 170.07 86.41 C 170.62 86.53 171.72 86.76 172.26 86.88 L 172.99 87.11 C 172.61 94.83 173.59 102.56 172.98 110.26 C 172.63 108.16 172.43 106.04 172.39 103.91 C 172.30 101.98 172.17 100.06 171.89 98.15 C 171.89 93.77 169.01 90.32 167.59 86.37 Z" />
</g>
<g id="#a196a1ff">
<path fill="#a196a1" opacity="1.00" d=" M 49.44 93.41 C 51.98 92.22 54.27 90.56 55.84 88.20 C 55.97 88.69 56.23 89.69 56.36 90.18 C 56.14 92.62 54.84 94.71 53.45 96.65 C 52.04 95.67 50.35 94.94 49.44 93.41 Z" />
</g>
<g id="#b7a08cff">
<path fill="#b7a08c" opacity="1.00" d=" M 60.02 94.76 C 61.16 92.47 61.54 89.64 63.79 88.07 C 63.20 92.41 60.67 96.53 61.60 101.00 L 61.64 101.36 C 59.34 105.55 60.99 110.63 60.80 115.20 C 60.72 117.81 60.47 120.41 60.39 123.02 C 60.22 122.90 59.88 122.65 59.71 122.53 C 58.83 119.32 57.69 116.16 57.04 112.89 C 57.06 112.28 57.09 111.04 57.11 110.42 C 56.78 110.23 56.11 109.86 55.78 109.68 L 57.19 108.97 C 57.80 106.07 57.30 103.07 57.64 100.14 C 58.15 98.24 59.26 96.57 60.02 94.76 Z" />
</g>
<g id="#d0cedeff">
<path fill="#d0cede" opacity="1.00" d=" M 148.63 90.22 C 151.42 90.23 153.49 93.26 155.78 94.76 C 154.33 96.98 152.80 99.14 151.15 101.22 C 150.19 99.88 149.23 98.54 148.32 97.17 C 148.16 94.85 148.23 92.51 148.63 90.22 Z" />
</g>
<g id="#aea3b2ff">
<path fill="#aea3b2" opacity="1.00" d=" M 155.78 94.76 C 157.57 96.41 158.53 98.67 159.33 100.93 C 157.26 101.87 155.40 103.29 154.46 105.41 C 153.31 104.05 152.19 102.66 151.15 101.22 C 152.80 99.14 154.33 96.98 155.78 94.76 Z" />
</g>
<g id="#998689ff">
<path fill="#998689" opacity="1.00" d=" M 163.74 102.42 C 165.92 100.24 167.67 97.59 170.46 96.09 C 170.82 96.60 171.53 97.63 171.89 98.15 C 172.17 100.06 172.30 101.98 172.39 103.91 C 168.90 100.23 164.63 104.61 162.29 107.36 C 160.23 107.06 158.20 106.60 156.17 106.14 C 155.72 106.05 154.82 105.89 154.37 105.81 L 154.46 105.41 C 155.40 103.29 157.26 101.87 159.33 100.93 L 159.70 100.70 C 159.52 102.48 159.43 104.27 159.26 106.05 C 159.76 105.84 160.75 105.42 161.24 105.21 C 161.59 104.22 161.95 103.23 162.33 102.26 C 162.68 102.30 163.39 102.38 163.74 102.42 Z" />
</g>
<g id="#ab8d4aff">
<path fill="#ab8d4a" opacity="1.00" d=" M 90.39 107.55 C 95.48 106.55 99.80 102.75 101.59 97.91 C 101.42 101.72 105.61 103.34 108.80 103.32 C 110.45 105.45 112.34 107.42 114.74 108.70 C 114.29 109.44 113.85 110.20 113.39 110.95 C 110.95 109.25 108.57 107.49 106.17 105.75 C 103.36 103.24 100.16 106.05 97.45 107.24 C 94.28 109.03 90.53 108.53 87.04 108.62 C 88.15 108.24 89.27 107.88 90.39 107.55 Z" />
</g>
<g id="#a5917cff">
<path fill="#a5917c" opacity="1.00" d=" M 140.34 110.28 C 142.71 105.75 144.58 100.81 148.32 97.17 C 149.23 98.54 150.19 99.88 151.15 101.22 C 152.19 102.66 153.31 104.05 154.46 105.41 L 154.37 105.81 C 154.37 109.88 152.20 113.30 149.30 115.97 C 149.41 114.70 149.53 113.43 149.65 112.16 C 148.60 112.96 147.55 113.75 146.55 114.61 C 143.76 117.36 140.35 119.30 137.12 121.47 C 136.63 121.03 135.66 120.15 135.17 119.71 C 136.70 116.46 138.75 113.50 140.34 110.28 Z" />
</g>
<g id="#645861ff">
<path fill="#645861" opacity="1.00" d=" M 159.70 100.70 C 159.97 100.10 160.50 98.90 160.77 98.31 C 161.33 99.61 161.85 100.92 162.33 102.26 C 161.95 103.23 161.59 104.22 161.24 105.21 C 160.75 105.42 159.76 105.84 159.26 106.05 C 159.43 104.27 159.52 102.48 159.70 100.70 Z" />
</g>
<g id="#6e5659ff">
<path fill="#6e5659" opacity="1.00" d=" M 67.64 99.50 L 68.69 99.77 C 69.11 102.20 69.64 104.65 71.06 106.72 C 73.34 105.83 75.68 105.05 78.11 104.66 C 79.73 105.34 81.32 106.11 82.86 106.97 L 83.27 107.93 C 82.98 108.80 82.68 109.66 82.38 110.53 C 81.49 112.50 80.58 114.48 79.75 116.48 C 78.29 113.89 77.52 111.00 76.38 108.28 C 76.16 108.20 75.72 108.04 75.50 107.95 C 74.17 111.48 73.68 115.57 71.74 118.73 C 70.96 117.34 71.74 114.03 69.44 114.44 C 68.79 109.46 67.82 104.52 67.64 99.50 Z" />
</g>
<g id="#5d444aff">
<path fill="#5d444a" opacity="1.00" d=" M 68.69 99.77 C 70.76 100.17 72.56 101.28 74.28 102.45 C 75.51 103.26 76.78 104.02 78.11 104.66 C 75.68 105.05 73.34 105.83 71.06 106.72 C 69.64 104.65 69.11 102.20 68.69 99.77 Z" />
</g>
<g id="#5f4444ff">
<path fill="#5f4444" opacity="1.00" d=" M 53.45 101.68 C 53.64 101.24 54.01 100.36 54.20 99.92 C 56.10 102.79 55.41 106.44 55.78 109.68 C 56.11 109.86 56.78 110.23 57.11 110.42 C 57.09 111.04 57.06 112.28 57.04 112.89 C 56.34 112.05 55.65 111.20 54.85 110.45 C 54.38 112.44 52.48 113.40 51.10 114.68 C 50.74 112.85 50.20 111.02 50.27 109.14 C 51.07 107.44 52.37 106.04 53.49 104.55 C 53.45 103.60 53.44 102.64 53.45 101.68 Z" />
</g>
<g id="#685353ff">
<path fill="#685353" opacity="1.00" d=" M 53.45 101.68 C 53.44 102.64 53.45 103.60 53.49 104.55 C 52.37 106.04 51.07 107.44 50.27 109.14 C 50.20 111.02 50.74 112.85 51.10 114.68 C 49.88 115.85 48.65 117.04 47.22 117.96 C 47.85 116.41 48.54 114.90 49.21 113.37 C 46.80 114.32 44.48 115.46 42.21 116.71 L 43.59 114.10 C 41.75 115.33 39.94 116.61 38.02 117.72 C 38.67 116.60 39.45 115.56 40.30 114.58 L 40.60 114.56 C 40.86 114.54 41.38 114.49 41.63 114.47 C 45.71 110.34 49.79 106.20 53.45 101.68 Z" />
</g>
<g id="#8a756eff">
<path fill="#8a756e" opacity="1.00" d=" M 162.29 107.36 C 164.63 104.61 168.90 100.23 172.39 103.91 C 172.43 106.04 172.63 108.16 172.98 110.26 L 172.99 111.19 C 172.50 115.77 171.89 120.34 171.21 124.89 C 170.03 124.07 169.74 122.50 169.11 121.29 C 169.34 116.22 168.42 111.19 167.94 106.15 C 167.18 106.07 165.67 105.90 164.92 105.82 C 165.23 108.13 165.55 110.44 165.74 112.77 C 163.70 114.64 163.78 117.79 161.96 119.74 C 161.03 116.68 160.00 113.66 159.18 110.57 C 157.85 111.48 157.38 113.16 156.51 114.46 L 155.78 114.72 C 155.41 114.86 154.68 115.13 154.31 115.26 C 152.44 119.19 150.51 123.10 148.52 126.97 C 148.63 125.19 148.67 123.40 148.67 121.61 C 146.19 123.09 143.76 124.64 141.40 126.30 L 141.19 125.50 C 143.57 122.26 146.64 118.89 146.55 114.61 C 147.55 113.75 148.60 112.96 149.65 112.16 C 149.53 113.43 149.41 114.70 149.30 115.97 C 152.20 113.30 154.37 109.88 154.37 105.81 C 154.82 105.89 155.72 106.05 156.17 106.14 C 156.95 107.35 156.90 108.83 157.11 110.21 C 158.92 109.44 160.84 108.76 162.29 107.36 Z" />
</g>
<g id="#7f5b35ff">
<path fill="#7f5b35" opacity="1.00" d=" M 97.45 107.24 C 100.16 106.05 103.36 103.24 106.17 105.75 C 104.75 106.19 103.33 106.62 101.93 107.12 C 100.23 107.91 98.61 108.87 96.94 109.73 C 92.41 111.55 87.02 111.31 83.27 107.93 L 82.86 106.97 C 85.36 107.26 87.88 107.42 90.39 107.55 C 89.27 107.88 88.15 108.24 87.04 108.62 C 90.53 108.53 94.28 109.03 97.45 107.24 Z" />
</g>
<g id="#a83739ff">
<path fill="#a83739" opacity="1.00" d=" M 101.93 107.12 C 103.33 106.62 104.75 106.19 106.17 105.75 C 108.57 107.49 110.95 109.25 113.39 110.95 C 111.59 113.57 109.28 115.77 107.09 118.04 C 105.42 117.40 103.74 116.80 102.05 116.22 C 101.31 117.87 100.58 119.54 99.99 121.25 C 100.11 116.48 100.71 111.73 101.93 107.12 Z" />
</g>
<g id="#6b2b32ff">
<path fill="#6b2b32" opacity="1.00" d=" M 156.17 106.14 C 158.20 106.60 160.23 107.06 162.29 107.36 C 160.84 108.76 158.92 109.44 157.11 110.21 C 156.90 108.83 156.95 107.35 156.17 106.14 Z" />
</g>
<g id="#725c5cff">
<path fill="#725c5c" opacity="1.00" d=" M 164.92 105.82 C 165.67 105.90 167.18 106.07 167.94 106.15 C 168.42 111.19 169.34 116.22 169.11 121.29 C 168.70 121.39 167.86 121.59 167.45 121.69 C 166.42 118.87 166.09 115.76 165.74 112.77 C 165.55 110.44 165.23 108.13 164.92 105.82 Z" />
</g>
<g id="#a73539ff">
<path fill="#a73539" opacity="1.00" d=" M 83.27 107.93 C 87.02 111.31 92.41 111.55 96.94 109.73 C 97.44 113.43 97.48 117.17 97.54 120.89 C 94.31 117.59 89.81 122.31 86.11 119.92 C 83.18 119.24 83.07 115.94 82.60 113.55 C 82.52 112.54 82.45 111.53 82.38 110.53 C 82.68 109.66 82.98 108.80 83.27 107.93 Z" />
</g>
<g id="#83272dff">
<path fill="#83272d" opacity="1.00" d=" M 131.32 110.84 C 133.58 110.47 135.73 109.64 137.79 108.68 C 136.36 112.13 134.87 115.57 133.14 118.89 C 131.02 116.74 128.01 116.36 125.19 115.83 C 127.56 114.60 129.47 112.72 131.32 110.84 Z" />
</g>
<g id="#d84945ff">
<path fill="#d84945" opacity="1.00" d=" M 82.38 110.53 C 82.45 111.53 82.52 112.54 82.60 113.55 C 81.53 116.95 80.41 121.73 83.62 124.31 C 87.33 126.55 91.63 125.02 95.51 124.23 C 95.82 124.76 96.45 125.81 96.76 126.34 C 96.51 129.30 96.60 132.31 95.85 135.21 C 95.36 134.62 94.37 133.43 93.87 132.83 C 92.73 134.65 91.75 136.61 90.30 138.22 C 87.77 139.22 85.00 139.36 82.32 139.67 C 80.67 134.47 79.70 129.09 78.78 123.72 C 78.88 122.02 78.92 120.31 78.98 118.61 C 79.19 117.88 79.45 117.17 79.75 116.48 C 80.58 114.48 81.49 112.50 82.38 110.53 Z" />
</g>
<g id="#be3f3eff">
<path fill="#be3f3e" opacity="1.00" d=" M 83.62 124.31 C 80.41 121.73 81.53 116.95 82.60 113.55 C 83.07 115.94 83.18 119.24 86.11 119.92 C 89.81 122.31 94.31 117.59 97.54 120.89 C 97.54 122.74 97.17 124.55 96.76 126.34 C 96.45 125.81 95.82 124.76 95.51 124.23 C 91.63 125.02 87.33 126.55 83.62 124.31 Z" />
</g>
<g id="#932d30ff">
<path fill="#932d30" opacity="1.00" d=" M 146.55 114.61 C 146.64 118.89 143.57 122.26 141.19 125.50 C 139.18 124.31 136.92 123.74 134.70 123.11 C 135.51 122.57 136.32 122.02 137.12 121.47 C 140.35 119.30 143.76 117.36 146.55 114.61 Z" />
</g>
<g id="#9b3030ff">
<path fill="#9b3030" opacity="1.00" d=" M 154.31 115.26 C 154.68 115.13 155.41 114.86 155.78 114.72 C 156.49 118.25 159.37 120.68 161.08 123.72 C 157.13 124.67 155.36 128.77 152.06 130.73 C 148.35 129.75 144.73 128.20 141.40 126.30 C 143.76 124.64 146.19 123.09 148.67 121.61 C 148.67 123.40 148.63 125.19 148.52 126.97 C 150.51 123.10 152.44 119.19 154.31 115.26 Z" />
</g>
<g id="#cf4542ff">
<path fill="#cf4542" opacity="1.00" d=" M 102.05 116.22 C 103.74 116.80 105.42 117.40 107.09 118.04 C 105.74 119.43 104.54 120.97 103.41 122.54 C 105.75 121.78 108.06 120.91 110.28 119.87 C 110.74 121.20 111.43 122.51 111.43 123.96 C 111.72 131.29 111.35 138.63 111.28 145.96 C 111.00 146.18 110.44 146.62 110.17 146.84 C 109.38 141.97 111.59 136.11 107.83 132.13 C 105.96 129.69 103.10 128.40 100.34 127.26 C 99.67 129.73 98.82 132.16 97.48 134.36 C 97.83 129.90 99.10 125.61 99.99 121.25 C 100.58 119.54 101.31 117.87 102.05 116.22 Z" />
</g>
<g id="#9c3235ff">
<path fill="#9c3235" opacity="1.00" d=" M 118.38 119.51 C 120.58 118.16 122.88 116.98 125.19 115.83 C 128.01 116.36 131.02 116.74 133.14 118.89 C 132.39 120.30 131.57 121.67 130.79 123.07 C 126.47 122.65 122.23 121.54 118.38 119.51 Z" />
</g>
<g id="#882d2bff">
<path fill="#882d2b" opacity="1.00" d=" M 110.28 119.87 C 112.03 119.00 113.78 118.13 115.67 117.60 C 115.56 118.82 115.46 120.04 115.42 121.26 C 115.42 124.89 115.14 128.52 114.84 132.13 C 114.68 137.83 112.92 143.68 114.59 149.27 C 115.25 157.58 120.57 164.31 125.00 171.00 C 126.85 173.62 126.38 177.00 126.97 180.00 C 127.45 181.79 126.83 183.52 126.30 185.21 C 125.51 185.27 123.93 185.38 123.14 185.44 C 123.84 180.53 124.92 174.63 121.36 170.54 C 118.43 166.07 115.72 161.45 113.21 156.73 C 112.16 153.24 111.86 149.55 111.28 145.96 C 111.35 138.63 111.72 131.29 111.43 123.96 C 111.43 122.51 110.74 121.20 110.28 119.87 Z" />
</g>
<g id="#ff5d4fff">
<path fill="#ff5d4f" opacity="1.00" d=" M 74.90 123.84 C 76.91 122.72 77.56 120.31 78.98 118.61 C 78.92 120.31 78.88 122.02 78.78 123.72 C 76.06 137.52 68.92 150.59 70.12 164.98 C 70.60 170.03 68.96 174.84 67.39 179.54 C 68.23 179.90 69.07 180.27 69.91 180.64 C 69.19 180.78 67.74 181.05 67.01 181.18 C 64.41 181.11 61.79 180.63 59.54 179.26 C 60.10 176.47 60.98 173.75 61.31 170.93 C 61.33 165.61 60.71 160.29 60.90 154.96 C 61.43 151.08 62.28 147.23 62.64 143.32 C 63.47 143.65 64.27 144.03 65.08 144.41 C 67.75 140.42 69.44 135.79 69.99 131.03 C 60.09 128.84 51.14 135.10 41.59 136.42 C 43.54 133.79 47.16 133.90 49.97 132.72 C 58.30 129.86 67.30 128.53 74.90 123.84 Z" />
</g>
<g id="#af3838ff">
<path fill="#af3838" opacity="1.00" d=" M 115.42 121.26 C 116.40 120.68 117.39 120.10 118.38 119.51 C 122.23 121.54 126.47 122.65 130.79 123.07 C 130.21 124.11 129.66 125.17 129.12 126.24 C 131.01 125.26 132.91 124.27 134.70 123.11 C 136.92 123.74 139.18 124.31 141.19 125.50 L 141.40 126.30 C 144.73 128.20 148.35 129.75 152.06 130.73 C 155.36 128.77 157.13 124.67 161.08 123.72 C 162.07 125.21 163.18 126.61 164.36 127.95 C 162.84 128.23 161.29 128.41 159.83 128.94 C 157.01 130.51 156.50 133.94 155.81 136.78 C 150.67 133.62 144.93 131.69 139.23 129.82 C 134.35 128.59 129.12 129.53 124.35 127.74 C 121.81 126.73 119.28 125.63 116.58 125.15 C 116.30 127.54 115.99 129.97 114.84 132.13 C 115.14 128.52 115.42 124.89 115.42 121.26 Z" />
</g>
<g id="#ed514aff">
<path fill="#ed514a" opacity="1.00" d=" M 70.12 164.98 C 68.92 150.59 76.06 137.52 78.78 123.72 C 79.70 129.09 80.67 134.47 82.32 139.67 C 85.00 139.36 87.77 139.22 90.30 138.22 C 91.75 136.61 92.73 134.65 93.87 132.83 C 94.37 133.43 95.36 134.62 95.85 135.21 C 94.03 141.99 93.43 149.00 93.47 156.00 C 91.61 165.07 90.35 174.33 90.72 183.61 C 90.00 183.51 88.56 183.29 87.84 183.18 C 80.97 181.79 73.93 182.06 67.01 181.18 C 67.74 181.05 69.19 180.78 69.91 180.64 C 69.07 180.27 68.23 179.90 67.39 179.54 C 68.96 174.84 70.60 170.03 70.12 164.98 Z" />
</g>
<g id="#cc433fff">
<path fill="#cc433f" opacity="1.00" d=" M 116.58 125.15 C 119.28 125.63 121.81 126.73 124.35 127.74 C 129.12 129.53 134.35 128.59 139.23 129.82 C 144.93 131.69 150.67 133.62 155.81 136.78 C 156.50 133.94 157.01 130.51 159.83 128.94 C 161.29 128.41 162.84 128.23 164.36 127.95 C 167.82 131.12 171.15 134.43 174.47 137.76 C 178.75 140.50 183.44 142.59 187.77 145.26 C 188.11 145.74 188.80 146.69 189.14 147.17 C 188.70 148.08 188.26 148.99 187.82 149.90 C 187.35 150.03 186.41 150.30 185.94 150.43 C 187.92 152.48 189.76 154.65 191.57 156.84 C 191.08 156.58 190.10 156.05 189.61 155.78 C 190.25 158.32 190.43 161.50 193.01 162.93 C 194.74 163.99 196.43 165.65 198.61 165.50 C 201.02 168.42 203.27 171.50 205.62 174.49 C 203.75 174.85 201.99 174.06 200.20 173.71 C 197.93 173.68 195.73 174.97 193.48 174.58 C 188.14 171.45 181.80 170.81 176.48 167.58 C 178.54 163.76 180.44 159.81 181.66 155.64 C 182.45 153.75 180.68 152.24 179.94 150.68 C 181.77 150.54 183.89 150.79 185.17 149.18 C 183.23 148.70 181.28 148.26 179.32 147.82 C 174.30 146.11 169.26 144.40 164.15 142.98 C 162.39 147.30 163.91 151.80 163.95 156.25 C 159.96 149.50 156.45 141.83 149.34 137.77 C 144.86 136.29 140.08 135.69 135.38 135.39 C 133.89 136.58 132.98 138.32 131.64 139.66 C 128.82 140.69 125.85 141.36 122.88 141.75 C 121.67 141.15 120.81 140.04 119.82 139.17 C 118.25 140.38 116.32 141.46 115.54 143.39 C 115.01 145.31 114.83 147.30 114.59 149.27 C 112.92 143.68 114.68 137.83 114.84 132.13 C 115.99 129.97 116.30 127.54 116.58 125.15 Z" />
</g>
<g id="#e64f47ff">
<path fill="#e64f47" opacity="1.00" d=" M 100.34 127.26 C 103.10 128.40 105.96 129.69 107.83 132.13 C 111.59 136.11 109.38 141.97 110.17 146.84 C 110.44 146.62 111.00 146.18 111.28 145.96 C 111.86 149.55 112.16 153.24 113.21 156.73 C 115.72 161.45 118.43 166.07 121.36 170.54 C 121.73 173.68 122.14 176.82 122.62 179.94 C 119.98 181.67 117.18 183.51 113.95 183.73 C 111.23 183.93 108.51 184.09 105.84 184.65 C 109.04 185.05 112.32 185.00 115.39 186.09 C 109.24 186.52 103.00 186.53 96.90 185.62 C 102.38 182.86 109.09 183.68 114.20 180.17 C 115.64 177.54 115.01 174.00 113.77 171.34 C 110.70 165.79 106.18 161.07 103.79 155.14 C 101.93 149.59 101.96 143.56 99.61 138.13 C 98.24 139.80 96.87 141.47 95.47 143.11 C 95.90 140.14 96.68 137.24 97.48 134.36 C 98.82 132.16 99.67 129.73 100.34 127.26 Z" />
</g>
<g id="#ce4642ff">
<path fill="#ce4642" opacity="1.00" d=" M 41.59 136.42 C 51.14 135.10 60.09 128.84 69.99 131.03 C 69.44 135.79 67.75 140.42 65.08 144.41 C 64.27 144.03 63.47 143.65 62.64 143.32 C 61.05 143.05 59.45 142.82 57.90 142.40 C 58.99 141.51 60.08 140.63 61.17 139.74 C 55.63 136.03 48.54 138.50 42.44 139.22 C 42.23 138.52 41.81 137.12 41.59 136.42 Z" />
</g>
<g id="#e04c45ff">
<path fill="#e04c45" opacity="1.00" d=" M 135.38 135.39 C 140.08 135.69 144.86 136.29 149.34 137.77 C 156.45 141.83 159.96 149.50 163.95 156.25 C 166.28 161.87 170.64 167.40 169.53 173.80 C 165.55 176.40 165.23 182.34 160.20 183.66 C 161.45 183.95 162.70 184.26 163.95 184.57 C 159.54 184.88 155.10 184.97 150.78 185.92 C 142.64 186.28 134.47 184.62 126.30 185.21 C 126.83 183.52 127.45 181.79 126.97 180.00 C 126.38 177.00 126.85 173.62 125.00 171.00 C 120.57 164.31 115.25 157.58 114.59 149.27 C 114.83 147.30 115.01 145.31 115.54 143.39 C 116.32 141.46 118.25 140.38 119.82 139.17 C 120.81 140.04 121.67 141.15 122.88 141.75 C 125.85 141.36 128.82 140.69 131.64 139.66 C 132.98 138.32 133.89 136.58 135.38 135.39 Z" />
</g>
<g id="#af3535ff">
<path fill="#af3535" opacity="1.00" d=" M 42.44 139.22 C 48.54 138.50 55.63 136.03 61.17 139.74 C 60.08 140.63 58.99 141.51 57.90 142.40 C 52.73 140.92 47.31 140.70 42.13 139.27 L 42.44 139.22 Z" />
</g>
<g id="#f6554cff">
<path fill="#f6554c" opacity="1.00" d=" M 95.47 143.11 C 96.87 141.47 98.24 139.80 99.61 138.13 C 101.96 143.56 101.93 149.59 103.79 155.14 C 106.18 161.07 110.70 165.79 113.77 171.34 C 115.01 174.00 115.64 177.54 114.20 180.17 C 109.09 183.68 102.38 182.86 96.90 185.62 C 95.03 185.44 93.21 184.96 91.39 184.55 L 91.36 184.32 C 90.22 175.09 91.93 165.72 94.35 156.82 C 94.70 152.25 94.39 147.62 95.47 143.11 Z" />
<path fill="#f6554c" opacity="1.00" d=" M 189.61 155.78 C 190.10 156.05 191.08 156.58 191.57 156.84 C 194.10 159.57 196.37 162.53 198.61 165.50 C 196.43 165.65 194.74 163.99 193.01 162.93 C 190.43 161.50 190.25 158.32 189.61 155.78 Z" />
</g>
<g id="#c33d36ff">
<path fill="#c33d36" opacity="1.00" d=" M 164.15 142.98 C 169.26 144.40 174.30 146.11 179.32 147.82 C 175.87 148.05 172.45 147.48 169.16 146.43 C 168.55 147.37 167.93 148.31 167.32 149.25 C 168.88 152.47 170.76 155.54 173.05 158.30 C 175.57 156.80 175.07 153.64 175.48 151.14 C 176.96 150.93 178.45 150.77 179.94 150.68 C 180.68 152.24 182.45 153.75 181.66 155.64 C 180.44 159.81 178.54 163.76 176.48 167.58 C 181.80 170.81 188.14 171.45 193.48 174.58 C 195.73 174.97 197.93 173.68 200.20 173.71 C 201.99 174.06 203.75 174.85 205.62 174.49 C 206.64 175.54 207.68 177.02 206.07 178.15 C 196.88 180.56 187.30 179.76 177.95 180.98 C 175.69 181.33 173.63 182.30 171.85 183.70 C 164.99 185.45 157.84 186.09 150.78 185.92 C 155.10 184.97 159.54 184.88 163.95 184.57 C 162.70 184.26 161.45 183.95 160.20 183.66 C 165.23 182.34 165.55 176.40 169.53 173.80 C 170.64 167.40 166.28 161.87 163.95 156.25 C 163.91 151.80 162.39 147.30 164.15 142.98 Z" />
</g>
<g id="#a63330ff">
<path fill="#a63330" opacity="1.00" d=" M 169.16 146.43 C 172.45 147.48 175.87 148.05 179.32 147.82 C 181.28 148.26 183.23 148.70 185.17 149.18 C 183.89 150.79 181.77 150.54 179.94 150.68 C 178.45 150.77 176.96 150.93 175.48 151.14 C 175.07 153.64 175.57 156.80 173.05 158.30 C 170.76 155.54 168.88 152.47 167.32 149.25 C 167.93 148.31 168.55 147.37 169.16 146.43 Z" />
</g>
<g id="#cf4136ff">
<path fill="#cf4136" opacity="1.00" d=" M 121.36 170.54 C 124.92 174.63 123.84 180.53 123.14 185.44 C 120.55 185.54 117.96 186.24 115.39 186.09 C 112.32 185.00 109.04 185.05 105.84 184.65 C 108.51 184.09 111.23 183.93 113.95 183.73 C 117.18 183.51 119.98 181.67 122.62 179.94 C 122.14 176.82 121.73 173.68 121.36 170.54 Z" />
</g>
</svg>
