<?xml version="1.0" encoding="UTF-8" ?>
<!DOCTYPE svg PUBLIC "-//W3C//DTD SVG 1.1//EN" "http://www.w3.org/Graphics/SVG/1.1/DTD/svg11.dtd">
<svg width="172pt" height="195pt" viewBox="0 0 172 195" version="1.1" xmlns="http://www.w3.org/2000/svg">
<g id="#e4cb65ff">
<path fill="#e4cb65" opacity="1.00" d=" M 89.33 13.50 C 89.51 11.02 90.05 8.57 90.71 6.18 C 90.92 15.71 90.44 25.26 91.46 34.76 C 97.69 35.57 103.94 37.17 108.97 41.13 C 110.99 39.37 112.90 37.50 114.96 35.79 L 116.30 35.84 C 113.92 38.91 110.75 41.27 108.42 44.37 C 107.08 47.00 108.52 50.21 111.36 50.96 C 111.86 50.06 112.36 49.15 112.86 48.24 C 113.32 48.39 114.23 48.69 114.69 48.84 C 118.00 53.65 122.10 57.86 126.43 61.76 C 122.13 62.25 118.34 59.79 115.13 57.23 C 115.30 59.59 116.88 62.47 115.61 64.55 C 110.46 65.82 105.07 66.31 100.24 68.70 C 100.53 65.72 100.48 62.73 100.57 59.75 C 94.64 62.60 89.23 66.80 85.79 72.48 C 87.63 72.42 89.47 72.35 91.31 72.17 C 89.23 74.16 86.93 75.88 84.70 77.68 C 83.62 78.25 82.53 78.80 81.44 79.32 C 80.27 78.82 79.03 78.53 77.77 78.46 C 74.35 78.34 73.93 74.51 72.97 72.01 C 73.54 71.85 74.70 71.54 75.28 71.39 C 76.49 71.57 77.71 71.75 78.93 71.93 C 78.28 70.69 77.64 69.44 76.97 68.20 C 77.58 67.79 78.80 66.96 79.41 66.55 C 80.22 67.75 81.07 68.93 81.91 70.11 C 85.26 66.68 88.83 63.39 91.27 59.21 C 93.94 54.67 97.71 50.98 101.11 47.01 C 99.72 46.90 98.16 45.99 96.84 46.83 C 91.42 49.81 87.81 55.06 82.68 58.43 C 79.32 55.65 77.83 51.52 75.94 47.74 C 78.60 47.02 76.98 44.61 76.65 42.84 C 77.26 41.54 77.87 40.24 78.53 38.97 C 80.06 37.87 81.85 37.21 83.52 36.35 C 83.61 30.15 83.09 23.69 84.88 17.71 C 85.24 21.69 86.52 25.73 86.03 29.71 C 84.54 33.89 85.07 38.43 85.80 42.71 C 89.36 40.22 87.27 35.58 87.72 31.96 C 87.73 29.43 87.92 26.90 88.24 24.40 L 88.42 24.18 C 91.24 21.37 89.22 16.99 89.33 13.50 Z" />
</g>
<g id="#dfbe63fe">
<path fill="#dfbe63" opacity="1.00" d=" M 89.33 13.50 C 89.22 16.99 91.24 21.37 88.42 24.18 C 88.48 20.61 88.84 17.04 89.33 13.50 Z" />
</g>
<g id="#e6c562ff">
<path fill="#e6c562" opacity="1.00" d=" M 55.72 24.80 C 57.74 23.55 60.10 24.91 61.47 26.48 C 59.29 28.22 57.23 30.11 55.43 32.23 C 52.51 30.71 52.72 26.07 55.72 24.80 Z" />
</g>
<g id="#e3cd67fe">
<path fill="#e3cd67" opacity="1.00" d=" M 117.70 28.86 C 119.05 26.56 122.36 25.92 124.35 27.74 C 126.02 28.99 125.78 31.18 125.37 32.97 C 125.35 32.17 125.31 30.58 125.29 29.79 C 123.62 31.20 121.74 32.39 119.53 32.64 C 119.13 33.09 118.34 33.98 117.94 34.42 C 117.87 32.57 117.77 30.71 117.70 28.86 Z" />
</g>
<g id="#a8833ffc">
<path fill="#a8833f" opacity="1.00" d=" M 55.43 32.23 C 57.23 30.11 59.29 28.22 61.47 26.48 C 61.76 27.90 61.76 29.30 61.45 30.71 C 63.34 32.41 65.32 33.99 67.37 35.48 L 67.16 35.62 C 65.78 36.51 64.51 37.58 63.32 38.71 C 61.99 36.70 60.61 34.73 59.24 32.75 C 57.88 32.75 56.53 32.67 55.18 32.51 L 55.43 32.23 Z" />
</g>
<g id="#c0a452ff">
<path fill="#c0a452" opacity="1.00" d=" M 117.47 33.56 C 117.28 31.98 117.26 30.40 117.70 28.86 C 117.77 30.71 117.87 32.57 117.94 34.42 C 118.34 33.98 119.13 33.09 119.53 32.64 C 121.74 32.39 123.62 31.20 125.29 29.79 C 125.31 30.58 125.35 32.17 125.37 32.97 C 124.18 34.80 122.14 35.51 120.03 35.25 C 117.65 39.01 115.29 42.80 113.26 46.76 C 113.61 47.28 114.33 48.32 114.69 48.84 C 114.23 48.69 113.32 48.39 112.86 48.24 C 112.36 49.15 111.86 50.06 111.36 50.96 C 108.52 50.21 107.08 47.00 108.42 44.37 C 110.75 41.27 113.92 38.91 116.30 35.84 L 114.96 35.79 C 115.77 35.02 116.60 34.27 117.47 33.56 Z" />
</g>
<g id="#b39145ff">
<path fill="#b39145" opacity="1.00" d=" M 85.80 42.71 C 85.07 38.43 84.54 33.89 86.03 29.71 C 86.45 30.27 87.30 31.40 87.72 31.96 C 87.27 35.58 89.36 40.22 85.80 42.71 Z" />
</g>
<g id="#d2b65bff">
<path fill="#d2b65b" opacity="1.00" d=" M 63.32 38.71 C 64.51 37.58 65.78 36.51 67.16 35.62 C 68.45 36.58 69.79 37.49 70.99 38.57 C 70.77 40.49 69.87 42.22 68.79 43.80 C 67.52 42.73 66.23 41.68 64.96 40.61 C 64.55 40.14 63.73 39.18 63.32 38.71 Z" />
</g>
<g id="#f9df6eff">
<path fill="#f9df6e" opacity="1.00" d=" M 68.79 43.80 C 69.87 42.22 70.77 40.49 70.99 38.57 C 72.25 39.54 73.53 40.50 74.82 41.44 C 76.05 40.61 77.29 39.78 78.53 38.97 C 77.87 40.24 77.26 41.54 76.65 42.84 C 76.98 44.61 78.60 47.02 75.94 47.74 C 75.48 47.02 74.56 45.58 74.10 44.85 C 71.99 46.69 73.10 49.28 73.59 51.56 C 75.06 56.71 76.30 62.08 79.41 66.55 C 78.80 66.96 77.58 67.79 76.97 68.20 C 75.12 64.75 72.79 61.58 70.25 58.59 C 70.17 58.94 70.01 59.63 69.92 59.97 C 69.29 62.32 68.83 64.73 68.85 67.18 C 68.54 66.68 67.93 65.70 67.62 65.21 C 64.65 66.60 61.59 68.30 60.06 71.36 C 58.62 70.42 57.26 69.37 55.91 68.32 C 59.38 67.34 61.36 64.10 63.72 61.65 C 64.98 60.50 64.73 58.65 65.07 57.13 L 65.11 56.87 C 67.80 54.65 68.22 51.05 69.42 47.98 C 67.90 45.54 66.26 43.18 64.96 40.61 C 66.23 41.68 67.52 42.73 68.79 43.80 Z" />
</g>
<g id="#414039ff">
<path fill="#414039" opacity="1.00" d=" M 73.59 51.56 C 73.10 49.28 71.99 46.69 74.10 44.85 C 74.56 45.58 75.48 47.02 75.94 47.74 C 77.83 51.52 79.32 55.65 82.68 58.43 C 87.81 55.06 91.42 49.81 96.84 46.83 C 98.16 45.99 99.72 46.90 101.11 47.01 C 97.71 50.98 93.94 54.67 91.27 59.21 C 88.83 63.39 85.26 66.68 81.91 70.11 C 81.07 68.93 80.22 67.75 79.41 66.55 C 76.30 62.08 75.06 56.71 73.59 51.56 Z" />
</g>
<g id="#c8ac56ff">
<path fill="#c8ac56" opacity="1.00" d=" M 115.13 57.23 C 118.34 59.79 122.13 62.25 126.43 61.76 C 129.23 63.58 134.06 66.21 132.12 70.19 C 129.79 67.36 126.72 70.10 124.06 70.81 C 118.52 72.60 112.89 74.73 106.97 74.59 C 103.04 74.54 99.21 76.11 96.49 78.96 C 93.27 80.66 89.94 82.27 86.37 83.06 C 81.13 83.44 76.63 80.73 71.99 78.80 C 71.48 78.62 70.47 78.27 69.96 78.10 C 69.79 77.97 69.45 77.70 69.28 77.56 C 68.42 76.71 67.56 75.84 66.72 74.97 C 65.42 76.74 64.14 78.52 62.87 80.32 C 62.42 78.62 61.98 76.83 62.60 75.11 L 62.83 74.15 C 62.11 73.44 61.40 72.73 60.70 72.02 C 63.41 71.18 66.02 70.01 68.82 69.48 C 68.83 68.91 68.84 67.75 68.85 67.18 C 68.83 64.73 69.29 62.32 69.92 59.97 C 70.12 63.13 70.44 66.28 70.92 69.41 L 70.96 69.42 C 72.39 70.08 73.82 70.77 75.28 71.39 C 74.70 71.54 73.54 71.85 72.97 72.01 C 73.93 74.51 74.35 78.34 77.77 78.46 C 79.17 79.19 80.51 80.05 82.01 80.58 C 83.33 80.09 84.22 78.97 84.70 77.68 C 86.93 75.88 89.23 74.16 91.31 72.17 C 93.93 71.58 96.60 71.34 99.28 71.19 C 99.61 70.36 99.93 69.53 100.24 68.70 C 105.07 66.31 110.46 65.82 115.61 64.55 C 116.88 62.47 115.30 59.59 115.13 57.23 Z" />
</g>
<g id="#fefe83ff">
<path fill="#fefe83" opacity="1.00" d=" M 56.86 61.74 C 59.64 60.29 62.41 58.80 65.07 57.13 C 64.73 58.65 64.98 60.50 63.72 61.65 C 61.36 64.10 59.38 67.34 55.91 68.32 C 53.25 66.77 54.89 63.08 56.86 61.74 Z" />
</g>
<g id="#26211aff">
<path fill="#26211a" opacity="1.00" d=" M 70.25 58.59 C 72.79 61.58 75.12 64.75 76.97 68.20 C 77.64 69.44 78.28 70.69 78.93 71.93 C 77.71 71.75 76.49 71.57 75.28 71.39 C 73.82 70.77 72.39 70.08 70.96 69.42 C 72.82 69.56 74.69 69.69 76.55 69.81 C 76.47 69.41 76.30 68.59 76.22 68.19 C 75.61 68.46 74.40 69.00 73.79 69.27 C 74.66 65.47 72.57 62.41 69.92 59.97 C 70.01 59.63 70.17 58.94 70.25 58.59 Z" />
<path fill="#26211a" opacity="1.00" d=" M 73.26 150.49 C 75.09 147.78 72.61 145.43 71.45 143.06 C 73.87 143.84 76.30 144.62 78.71 145.42 C 80.79 146.11 82.93 146.62 85.10 146.98 C 83.05 149.32 81.17 151.80 79.39 154.34 C 78.05 154.07 76.69 153.87 75.35 153.61 C 73.62 153.16 71.93 152.56 70.28 151.85 C 69.78 151.61 68.77 151.13 68.26 150.89 C 69.88 150.31 71.58 150.27 73.26 150.49 Z" />
</g>
<g id="#252018ff">
<path fill="#252018" opacity="1.00" d=" M 85.79 72.48 C 89.23 66.80 94.64 62.60 100.57 59.75 C 100.48 62.73 100.53 65.72 100.24 68.70 C 99.93 69.53 99.61 70.36 99.28 71.19 C 96.60 71.34 93.93 71.58 91.31 72.17 C 89.47 72.35 87.63 72.42 85.79 72.48 M 92.98 65.94 C 93.50 67.78 93.62 69.70 91.64 70.71 C 92.05 67.20 88.30 68.92 88.74 71.20 C 89.36 71.18 90.61 71.15 91.23 71.13 C 93.98 70.72 97.05 70.96 99.43 69.27 C 99.57 66.69 99.71 64.12 99.69 61.54 C 97.31 62.79 95.06 64.25 92.98 65.94 Z" />
<path fill="#252018" opacity="1.00" d=" M 103.54 82.27 C 104.45 81.91 105.37 81.55 106.28 81.19 C 105.78 82.81 105.27 84.44 104.68 86.04 C 103.44 88.61 102.01 91.08 100.64 93.59 C 99.68 95.33 98.66 97.04 97.66 98.77 C 97.20 96.46 98.04 94.27 98.85 92.14 C 94.32 92.82 89.69 93.67 85.14 92.64 C 82.49 91.95 79.83 92.63 77.24 93.25 L 78.39 91.96 C 79.59 90.38 80.74 88.75 81.95 87.18 C 88.61 87.56 95.04 85.28 101.25 83.17 C 101.82 82.95 102.97 82.50 103.54 82.27 Z" />
</g>
<g id="#e1e1e1ff">
<path fill="#e1e1e1" opacity="1.00" d=" M 69.92 59.97 C 72.57 62.41 74.66 65.47 73.79 69.27 C 74.40 69.00 75.61 68.46 76.22 68.19 C 76.30 68.59 76.47 69.41 76.55 69.81 C 74.69 69.69 72.82 69.56 70.96 69.42 L 70.92 69.41 C 70.44 66.28 70.12 63.13 69.92 59.97 Z" />
<path fill="#e1e1e1" opacity="1.00" d=" M 88.74 71.20 C 88.30 68.92 92.05 67.20 91.64 70.71 L 91.23 71.13 C 90.61 71.15 89.36 71.18 88.74 71.20 Z" />
</g>
<g id="#a4a4a4ff">
<path fill="#a4a4a4" opacity="1.00" d=" M 92.98 65.94 C 95.06 64.25 97.31 62.79 99.69 61.54 C 99.71 64.12 99.57 66.69 99.43 69.27 C 97.05 70.96 93.98 70.72 91.23 71.13 L 91.64 70.71 C 93.62 69.70 93.50 67.78 92.98 65.94 Z" />
</g>
<g id="#e2c762ff">
<path fill="#e2c762" opacity="1.00" d=" M 60.06 71.36 C 61.59 68.30 64.65 66.60 67.62 65.21 C 67.93 65.70 68.54 66.68 68.85 67.18 C 68.84 67.75 68.83 68.91 68.82 69.48 C 66.02 70.01 63.41 71.18 60.70 72.02 L 59.78 72.32 L 60.06 71.36 Z" />
</g>
<g id="#9f823cff">
<path fill="#9f823c" opacity="1.00" d=" M 124.06 70.81 C 126.72 70.10 129.79 67.36 132.12 70.19 C 130.69 71.00 129.23 71.77 127.72 72.41 C 124.35 73.81 120.87 74.94 117.40 76.08 C 117.44 80.05 120.27 82.96 123.34 85.06 C 126.35 87.97 129.42 91.50 129.82 95.85 C 128.92 94.63 128.04 93.40 127.17 92.17 C 122.93 93.30 119.20 90.04 114.98 90.68 C 110.12 91.14 105.28 92.05 100.64 93.59 C 102.01 91.08 103.44 88.61 104.68 86.04 C 109.11 84.75 114.97 83.30 115.40 77.73 C 112.57 78.29 109.77 79.03 107.05 79.99 C 108.52 79.01 109.95 77.96 111.34 76.86 C 108.20 76.37 105.15 77.27 102.14 78.04 C 100.28 78.48 98.39 78.74 96.49 78.96 C 99.21 76.11 103.04 74.54 106.97 74.59 C 112.89 74.73 118.52 72.60 124.06 70.81 Z" />
</g>
<g id="#2a241cff">
<path fill="#2a241c" opacity="1.00" d=" M 117.40 76.08 C 120.87 74.94 124.35 73.81 127.72 72.41 C 127.53 72.72 127.17 73.34 126.99 73.65 C 127.34 73.86 128.06 74.28 128.41 74.50 C 125.08 77.01 122.50 80.68 123.34 85.06 C 120.27 82.96 117.44 80.05 117.40 76.08 Z" />
</g>
<g id="#302a22ff">
<path fill="#302a22" opacity="1.00" d=" M 57.65 80.74 C 59.26 78.83 60.92 76.96 62.60 75.11 C 61.98 76.83 62.42 78.62 62.87 80.32 C 63.38 81.87 63.96 83.40 64.52 84.94 C 63.97 85.36 62.87 86.19 62.32 86.60 C 60.51 84.87 58.90 82.93 57.65 80.74 Z" />
</g>
<g id="#a78940ff">
<path fill="#a78940" opacity="1.00" d=" M 62.87 80.32 C 64.14 78.52 65.42 76.74 66.72 74.97 C 67.56 75.84 68.42 76.71 69.28 77.56 C 68.77 77.78 67.74 78.23 67.23 78.45 C 67.50 79.97 67.76 81.51 67.42 83.05 C 66.89 84.63 66.38 86.22 65.79 87.78 C 65.18 89.27 64.50 90.74 63.84 92.21 C 61.95 91.68 60.19 90.79 58.81 89.38 C 59.97 88.44 61.14 87.51 62.32 86.60 C 62.87 86.19 63.97 85.36 64.52 84.94 C 63.96 83.40 63.38 81.87 62.87 80.32 Z" />
</g>
<g id="#bc9f4eff">
<path fill="#bc9f4e" opacity="1.00" d=" M 123.34 85.06 C 122.50 80.68 125.08 77.01 128.41 74.50 C 130.31 75.59 132.24 76.63 134.19 77.63 C 131.04 80.02 128.40 83.08 127.27 86.94 C 128.02 87.95 128.77 88.97 129.52 89.98 C 133.14 87.89 136.68 85.66 140.32 83.62 C 140.77 84.07 141.67 84.98 142.12 85.44 C 142.50 85.84 143.25 86.64 143.63 87.04 C 139.20 88.74 135.52 92.07 133.18 96.18 L 132.95 95.96 C 132.62 95.63 131.95 94.96 131.62 94.63 C 131.16 100.13 128.38 105.46 124.28 109.14 C 121.65 105.66 119.98 101.17 116.24 98.71 C 109.83 96.76 102.73 97.93 96.68 100.62 C 97.02 100.01 97.34 99.39 97.66 98.77 C 98.66 97.04 99.68 95.33 100.64 93.59 C 105.28 92.05 110.12 91.14 114.98 90.68 C 119.20 90.04 122.93 93.30 127.17 92.17 C 128.04 93.40 128.92 94.63 129.82 95.85 C 129.42 91.50 126.35 87.97 123.34 85.06 Z" />
</g>
<g id="#2a2115ff">
<path fill="#2a2115" opacity="1.00" d=" M 69.28 77.56 C 69.45 77.70 69.79 77.97 69.96 78.10 C 70.47 78.27 71.48 78.62 71.99 78.80 C 71.52 79.15 70.57 79.86 70.10 80.22 C 69.91 80.40 69.53 80.76 69.34 80.94 C 68.68 81.62 68.04 82.32 67.42 83.05 C 67.76 81.51 67.50 79.97 67.23 78.45 C 67.74 78.23 68.77 77.78 69.28 77.56 Z" />
<path fill="#2a2115" opacity="1.00" d=" M 77.77 78.46 C 79.03 78.53 80.27 78.82 81.44 79.32 C 82.53 78.80 83.62 78.25 84.70 77.68 C 84.22 78.97 83.33 80.09 82.01 80.58 C 80.51 80.05 79.17 79.19 77.77 78.46 Z" />
</g>
<g id="#7f5f27ff">
<path fill="#7f5f27" opacity="1.00" d=" M 102.14 78.04 C 105.15 77.27 108.20 76.37 111.34 76.86 C 109.95 77.96 108.52 79.01 107.05 79.99 C 109.77 79.03 112.57 78.29 115.40 77.73 C 114.97 83.30 109.11 84.75 104.68 86.04 C 105.27 84.44 105.78 82.81 106.28 81.19 C 105.37 81.55 104.45 81.91 103.54 82.27 C 103.07 80.86 102.61 79.45 102.14 78.04 Z" />
</g>
<g id="#796148ff">
<path fill="#796148" opacity="1.00" d=" M 96.49 78.96 C 98.39 78.74 100.28 78.48 102.14 78.04 C 102.61 79.45 103.07 80.86 103.54 82.27 C 102.97 82.50 101.82 82.95 101.25 83.17 C 100.87 82.87 100.11 82.26 99.73 81.96 C 98.62 80.99 97.56 79.97 96.49 78.96 Z" />
</g>
<g id="#312f29ff">
<path fill="#312f29" opacity="1.00" d=" M 127.27 86.94 C 128.40 83.08 131.04 80.02 134.19 77.63 C 136.25 79.61 138.30 81.60 140.32 83.62 C 136.68 85.66 133.14 87.89 129.52 89.98 C 128.77 88.97 128.02 87.95 127.27 86.94 Z" />
</g>
<g id="#937333ff">
<path fill="#937333" opacity="1.00" d=" M 71.99 78.80 C 76.63 80.73 81.13 83.44 86.37 83.06 C 84.46 83.50 82.56 83.96 80.68 84.46 C 87.00 86.45 93.86 84.55 99.73 81.96 C 100.11 82.26 100.87 82.87 101.25 83.17 C 95.04 85.28 88.61 87.56 81.95 87.18 C 80.74 88.75 79.59 90.38 78.39 91.96 C 76.22 87.59 71.16 85.32 70.10 80.22 C 70.57 79.86 71.52 79.15 71.99 78.80 Z" />
</g>
<g id="#81602aff">
<path fill="#81602a" opacity="1.00" d=" M 86.37 83.06 C 89.94 82.27 93.27 80.66 96.49 78.96 C 97.56 79.97 98.62 80.99 99.73 81.96 C 93.86 84.55 87.00 86.45 80.68 84.46 C 82.56 83.96 84.46 83.50 86.37 83.06 Z" />
</g>
<g id="#c5ab4eff">
<path fill="#c5ab4e" opacity="1.00" d=" M 55.64 83.25 C 56.32 82.42 56.99 81.59 57.65 80.74 C 58.90 82.93 60.51 84.87 62.32 86.60 C 61.14 87.51 59.97 88.44 58.81 89.38 C 57.37 87.55 56.39 85.43 55.64 83.25 Z" />
</g>
<g id="#b39343ff">
<path fill="#b39343" opacity="1.00" d=" M 69.34 80.94 C 69.53 80.76 69.91 80.40 70.10 80.22 C 71.16 85.32 76.22 87.59 78.39 91.96 L 77.24 93.25 C 77.09 93.38 76.78 93.64 76.62 93.76 C 75.31 92.63 73.92 91.55 72.35 90.79 C 72.04 90.65 71.44 90.37 71.13 90.23 C 71.16 89.83 71.21 89.04 71.23 88.65 C 68.81 86.76 69.10 83.66 69.34 80.94 Z" />
</g>
<g id="#c7a74aff">
<path fill="#c7a74a" opacity="1.00" d=" M 67.42 83.05 C 68.04 82.32 68.68 81.62 69.34 80.94 C 69.10 83.66 68.81 86.76 71.23 88.65 C 71.21 89.04 71.16 89.83 71.13 90.23 C 69.34 89.44 67.56 88.61 65.79 87.78 C 66.38 86.22 66.89 84.63 67.42 83.05 Z" />
</g>
<g id="#36322cff">
<path fill="#36322c" opacity="1.00" d=" M 51.50 87.95 C 52.86 86.37 54.25 84.80 55.64 83.25 C 56.39 85.43 57.37 87.55 58.81 89.38 C 60.19 90.79 61.95 91.68 63.84 92.21 C 64.50 90.74 65.18 89.27 65.79 87.78 C 67.56 88.61 69.34 89.44 71.13 90.23 C 71.44 90.37 72.04 90.65 72.35 90.79 C 70.33 92.06 68.28 93.28 66.31 94.62 C 64.94 95.69 63.61 96.83 62.39 98.07 C 62.10 97.66 61.54 96.86 61.25 96.46 C 59.83 95.91 58.38 95.43 56.95 94.89 C 54.47 93.16 52.86 90.58 51.50 87.95 Z" />
</g>
<g id="#33312bff">
<path fill="#33312b" opacity="1.00" d=" M 142.12 85.44 C 144.42 87.50 146.62 89.68 148.75 91.92 C 144.90 94.77 141.06 97.65 137.38 100.74 C 136.03 99.18 134.66 97.62 133.18 96.18 C 135.52 92.07 139.20 88.74 143.63 87.04 C 143.25 86.64 142.50 85.84 142.12 85.44 Z" />
</g>
<g id="#c9ab55ff">
<path fill="#c9ab55" opacity="1.00" d=" M 50.60 89.27 C 50.82 88.94 51.27 88.28 51.50 87.95 C 52.86 90.58 54.47 93.16 56.95 94.89 C 54.78 98.88 55.42 103.88 52.40 107.47 C 51.31 106.14 50.26 104.80 49.13 103.51 C 50.10 102.40 51.77 101.56 51.87 99.92 C 51.86 96.34 51.05 92.82 50.60 89.27 Z" />
</g>
<g id="#e7cc64ff">
<path fill="#e7cc64" opacity="1.00" d=" M 42.78 89.02 C 43.85 89.78 44.27 91.07 44.91 92.17 C 45.33 91.71 46.17 90.79 46.59 90.34 C 46.70 91.06 46.92 92.51 47.03 93.24 C 48.70 92.43 49.48 90.64 50.60 89.27 C 51.05 92.82 51.86 96.34 51.87 99.92 C 51.77 101.56 50.10 102.40 49.13 103.51 C 46.69 101.42 43.74 100.12 40.81 98.88 C 41.53 95.61 42.14 92.31 42.78 89.02 Z" />
</g>
<g id="#cfb251ff">
<path fill="#cfb251" opacity="1.00" d=" M 66.31 94.62 C 68.28 93.28 70.33 92.06 72.35 90.79 C 73.92 91.55 75.31 92.63 76.62 93.76 C 74.72 95.37 73.00 97.17 71.28 98.96 C 69.77 97.35 68.12 95.89 66.31 94.62 Z" />
</g>
<g id="#312e29ff">
<path fill="#312e29" opacity="1.00" d=" M 77.24 93.25 C 79.83 92.63 82.49 91.95 85.14 92.64 C 89.69 93.67 94.32 92.82 98.85 92.14 C 98.04 94.27 97.20 96.46 97.66 98.77 C 97.34 99.39 97.02 100.01 96.68 100.62 C 95.04 103.32 93.18 105.89 91.77 108.72 C 99.92 109.28 107.89 106.71 116.03 107.32 C 114.23 108.70 112.41 110.05 110.61 111.42 C 105.01 115.74 98.56 118.76 92.84 122.92 C 92.69 122.46 92.38 121.54 92.23 121.09 C 98.08 117.06 104.57 113.88 109.99 109.21 C 103.25 109.92 96.46 110.64 89.68 109.95 C 90.22 106.41 92.76 103.67 93.90 100.34 C 87.49 100.88 81.54 98.20 75.27 97.52 C 72.25 99.45 70.89 104.00 67.11 104.44 C 68.41 102.55 69.70 100.63 71.28 98.96 C 73.00 97.17 74.72 95.37 76.62 93.76 C 76.78 93.64 77.09 93.38 77.24 93.25 Z" />
</g>
<g id="#caaf58ff">
<path fill="#caaf58" opacity="1.00" d=" M 148.75 91.92 C 151.13 94.42 154.06 96.51 155.76 99.58 C 156.29 99.75 157.35 100.09 157.88 100.25 L 158.32 100.59 C 154.45 101.32 150.50 102.05 146.98 103.90 C 145.38 104.79 143.65 105.42 141.81 105.50 C 140.28 103.97 138.81 102.37 137.38 100.74 C 141.06 97.65 144.90 94.77 148.75 91.92 Z" />
</g>
<g id="#a6803bff">
<path fill="#a6803b" opacity="1.00" d=" M 56.95 94.89 C 58.38 95.43 59.83 95.91 61.25 96.46 C 57.73 101.63 55.46 107.46 52.39 112.88 C 52.46 111.08 52.41 109.27 52.40 107.47 C 55.42 103.88 54.78 98.88 56.95 94.89 Z" />
</g>
<g id="#f0d56aff">
<path fill="#f0d56a" opacity="1.00" d=" M 66.31 94.62 C 68.12 95.89 69.77 97.35 71.28 98.96 C 69.70 100.63 68.41 102.55 67.11 104.44 C 63.29 107.70 61.32 112.33 60.21 117.12 C 59.58 112.39 60.08 107.59 60.73 102.88 C 61.18 101.27 61.08 99.30 62.39 98.07 C 63.61 96.83 64.94 95.69 66.31 94.62 Z" />
</g>
<g id="#36302bff">
<path fill="#36302b" opacity="1.00" d=" M 131.62 94.63 C 131.95 94.96 132.62 95.63 132.95 95.96 C 133.46 97.30 133.95 98.66 134.30 100.05 C 134.57 103.39 134.15 106.73 133.94 110.06 C 131.43 114.27 129.01 118.71 124.76 121.44 C 117.64 126.81 109.64 131.05 101.36 134.33 C 98.28 134.57 95.23 135.03 92.37 136.32 C 93.27 135.15 94.18 133.97 95.24 132.93 C 99.12 130.47 102.46 127.25 106.37 124.82 C 106.31 124.39 106.19 123.52 106.13 123.09 C 108.48 121.72 110.80 120.26 112.92 118.53 C 117.20 116.03 120.81 112.65 124.28 109.14 C 128.38 105.46 131.16 100.13 131.62 94.63 Z" />
</g>
<g id="#ccaa55ff">
<path fill="#ccaa55" opacity="1.00" d=" M 160.37 97.28 C 160.89 96.81 161.40 96.33 161.93 95.87 C 161.86 96.59 161.73 98.05 161.66 98.78 C 162.25 98.34 163.42 97.47 164.01 97.03 C 163.42 99.70 163.34 102.47 162.62 105.12 C 162.08 106.23 161.46 107.49 161.97 108.74 L 162.32 110.37 C 160.86 109.68 159.40 108.98 157.95 108.25 C 158.85 104.61 162.20 101.10 160.37 97.28 Z" />
</g>
<g id="#3e3c38ff">
<path fill="#3e3c38" opacity="1.00" d=" M 75.27 97.52 C 81.54 98.20 87.49 100.88 93.90 100.34 C 92.76 103.67 90.22 106.41 89.68 109.95 C 96.46 110.64 103.25 109.92 109.99 109.21 C 104.57 113.88 98.08 117.06 92.23 121.09 C 92.38 121.54 92.69 122.46 92.84 122.92 C 89.67 125.06 86.32 126.94 83.33 129.34 C 79.62 132.23 76.47 135.81 72.44 138.29 C 72.02 136.71 71.59 135.14 71.20 133.56 C 71.58 127.43 74.64 121.97 76.24 116.14 C 72.86 116.48 69.50 116.99 66.12 117.35 C 64.19 117.50 62.26 117.55 60.33 117.60 C 60.54 119.46 60.73 121.32 60.97 123.17 C 60.51 121.19 60.10 119.16 60.21 117.12 C 61.32 112.33 63.29 107.70 67.11 104.44 C 70.89 104.00 72.25 99.45 75.27 97.52 Z" />
</g>
<g id="#d2b65cff">
<path fill="#d2b65c" opacity="1.00" d=" M 96.68 100.62 C 102.73 97.93 109.83 96.76 116.24 98.71 C 119.98 101.17 121.65 105.66 124.28 109.14 C 120.81 112.65 117.20 116.03 112.92 118.53 C 113.18 116.20 115.47 114.85 115.84 112.61 C 114.12 112.12 112.36 111.78 110.61 111.42 C 112.41 110.05 114.23 108.70 116.03 107.32 C 107.89 106.71 99.92 109.28 91.77 108.72 C 93.18 105.89 95.04 103.32 96.68 100.62 Z" />
</g>
<g id="#e2c862ff">
<path fill="#e2c862" opacity="1.00" d=" M 157.94 99.62 C 158.55 99.03 159.77 97.87 160.37 97.28 C 162.20 101.10 158.85 104.61 157.95 108.25 C 157.44 107.99 156.41 107.47 155.90 107.22 C 152.06 105.39 147.69 106.72 143.75 107.44 C 143.10 106.78 142.46 106.14 141.81 105.50 C 143.65 105.42 145.38 104.79 146.98 103.90 C 150.50 102.05 154.45 101.32 158.32 100.59 L 157.88 100.25 L 157.94 99.62 Z" />
</g>
<g id="#3e3c36ff">
<path fill="#3e3c36" opacity="1.00" d=" M 35.16 103.91 C 36.87 102.05 38.87 100.49 40.81 98.88 C 43.74 100.12 46.69 101.42 49.13 103.51 C 50.26 104.80 51.31 106.14 52.40 107.47 C 52.41 109.27 52.46 111.08 52.39 112.88 C 52.17 113.37 51.72 114.35 51.50 114.83 C 50.21 112.05 48.64 109.36 46.35 107.28 C 43.53 105.17 40.35 103.61 37.03 102.49 C 36.56 102.84 35.62 103.55 35.16 103.91 Z" />
</g>
<g id="#d8be5eff">
<path fill="#d8be5e" opacity="1.00" d=" M 134.30 100.05 C 136.86 109.93 136.45 120.50 132.72 130.03 C 132.42 130.22 131.81 130.58 131.51 130.77 C 132.61 131.90 133.79 132.97 134.90 134.10 C 135.25 135.45 135.61 136.80 135.88 138.17 C 133.59 137.82 131.29 137.93 129.01 138.25 C 127.80 138.30 126.76 138.88 125.76 139.50 C 125.61 139.37 125.31 139.12 125.16 139.00 C 127.04 135.66 129.51 132.67 131.17 129.21 C 133.99 123.26 134.09 116.50 133.94 110.06 C 134.15 106.73 134.57 103.39 134.30 100.05 Z" />
</g>
<g id="#eed567ff">
<path fill="#eed567" opacity="1.00" d=" M 35.16 103.91 C 35.62 103.55 36.56 102.84 37.03 102.49 C 40.35 103.61 43.53 105.17 46.35 107.28 C 45.19 108.06 44.02 108.83 42.85 109.61 C 40.01 107.41 36.65 106.03 33.07 105.59 C 33.76 105.02 34.45 104.46 35.16 103.91 Z" />
</g>
<g id="#4d41209f">
<path fill="#4d4120" opacity="0.62" d=" M 161.97 108.74 C 161.46 107.49 162.08 106.23 162.62 105.12 C 163.71 105.91 163.74 109.10 161.97 108.74 Z" />
</g>
<g id="#3f3e37ff">
<path fill="#3f3e37" opacity="1.00" d=" M 29.54 108.74 C 30.72 107.69 31.90 106.64 33.07 105.59 C 36.65 106.03 40.01 107.41 42.85 109.61 C 43.09 109.85 43.57 110.33 43.81 110.57 C 43.15 111.75 42.49 112.93 41.83 114.10 C 41.15 114.37 40.48 114.65 39.81 114.94 L 39.55 115.08 C 36.34 112.76 32.98 110.69 29.54 108.74 Z" />
</g>
<g id="#ffee77ff">
<path fill="#ffee77" opacity="1.00" d=" M 143.75 107.44 C 147.69 106.72 152.06 105.39 155.90 107.22 C 151.97 108.01 147.40 108.73 145.01 112.34 C 145.04 113.27 145.40 114.09 146.08 114.78 C 145.53 115.32 145.00 115.88 144.47 116.44 C 144.49 116.89 144.53 117.79 144.55 118.24 C 143.86 119.85 142.49 121.60 144.23 123.07 L 144.74 123.48 C 144.21 124.37 143.70 125.27 143.19 126.17 C 142.46 120.36 144.04 114.67 145.20 109.03 C 144.84 108.63 144.11 107.84 143.75 107.44 Z" />
</g>
<g id="#c3a353ff">
<path fill="#c3a353" opacity="1.00" d=" M 46.35 107.28 C 48.64 109.36 50.21 112.05 51.50 114.83 C 50.52 116.44 49.50 118.03 48.41 119.56 C 47.80 116.16 46.35 112.97 43.81 110.57 C 43.57 110.33 43.09 109.85 42.85 109.61 C 44.02 108.83 45.19 108.06 46.35 107.28 Z" />
</g>
<g id="#3d3933ff">
<path fill="#3d3933" opacity="1.00" d=" M 145.01 112.34 C 147.40 108.73 151.97 108.01 155.90 107.22 C 156.41 107.47 157.44 107.99 157.95 108.25 C 159.40 108.98 160.86 109.68 162.32 110.37 L 162.49 110.45 C 163.25 112.97 164.03 115.50 164.87 118.00 C 161.35 114.32 156.23 110.61 150.90 112.32 C 149.07 112.59 147.51 113.66 146.08 114.78 C 145.40 114.09 145.04 113.27 145.01 112.34 Z" />
</g>
<g id="#efd66cff">
<path fill="#efd66c" opacity="1.00" d=" M 27.91 110.40 C 28.32 109.99 29.14 109.16 29.54 108.74 C 32.98 110.69 36.34 112.76 39.55 115.08 C 38.71 116.12 37.92 117.20 37.13 118.28 C 34.02 115.49 30.37 113.37 26.47 111.90 C 26.83 111.53 27.55 110.78 27.91 110.40 Z" />
</g>
<g id="#413f37ff">
<path fill="#413f37" opacity="1.00" d=" M 20.81 116.82 C 22.93 114.42 25.36 112.32 27.91 110.40 C 27.55 110.78 26.83 111.53 26.47 111.90 C 30.37 113.37 34.02 115.49 37.13 118.28 C 37.38 118.65 37.90 119.40 38.16 119.77 C 36.96 121.31 35.48 122.55 33.53 122.96 L 33.41 123.01 C 30.88 120.96 28.26 118.98 25.30 117.58 C 23.86 117.07 22.35 116.74 20.81 116.82 Z" />
</g>
<g id="#322b26ff">
<path fill="#322b26" opacity="1.00" d=" M 41.83 114.10 C 42.49 112.93 43.15 111.75 43.81 110.57 C 46.35 112.97 47.80 116.16 48.41 119.56 C 47.36 121.57 45.62 123.14 44.20 124.89 C 43.27 121.36 41.96 117.92 39.81 114.94 C 40.48 114.65 41.15 114.37 41.83 114.10 Z" />
<path fill="#322b26" opacity="1.00" d=" M 33.53 122.96 C 35.48 122.55 36.96 121.31 38.16 119.77 C 40.17 122.33 40.58 125.56 40.72 128.72 L 40.74 128.94 L 40.41 128.99 C 39.21 129.17 38.01 129.39 36.81 129.58 C 35.77 127.34 34.68 125.14 33.53 122.96 Z" />
</g>
<g id="#b48e44ff">
<path fill="#b48e44" opacity="1.00" d=" M 124.76 121.44 C 129.01 118.71 131.43 114.27 133.94 110.06 C 134.09 116.50 133.99 123.26 131.17 129.21 C 129.51 132.67 127.04 135.66 125.16 139.00 C 125.31 139.12 125.61 139.37 125.76 139.50 L 127.66 141.00 C 122.55 143.99 115.97 143.82 111.15 147.64 L 110.89 147.80 C 105.89 147.23 100.93 148.51 95.93 148.28 C 92.27 148.31 88.68 147.61 85.10 146.98 C 82.93 146.62 80.79 146.11 78.71 145.42 C 89.53 142.43 100.99 141.14 111.16 136.15 C 116.65 131.95 123.79 128.83 126.88 122.30 C 126.35 122.09 125.29 121.66 124.76 121.44 Z" />
</g>
<g id="#dec364ff">
<path fill="#dec364" opacity="1.00" d=" M 92.84 122.92 C 98.56 118.76 105.01 115.74 110.61 111.42 C 112.36 111.78 114.12 112.12 115.84 112.61 C 115.47 114.85 113.18 116.20 112.92 118.53 C 110.80 120.26 108.48 121.72 106.13 123.09 C 106.19 123.52 106.31 124.39 106.37 124.82 C 102.46 127.25 99.12 130.47 95.24 132.93 C 93.62 133.40 92.18 134.20 91.35 135.73 C 92.14 136.37 92.93 137.01 93.72 137.65 C 85.52 137.98 77.70 140.39 69.84 142.45 L 68.40 142.02 C 68.80 141.11 69.18 140.19 69.55 139.27 L 69.48 139.17 C 69.01 138.63 68.08 137.55 67.62 137.01 C 68.69 136.76 69.76 136.52 70.83 136.27 C 70.92 135.60 71.10 134.24 71.20 133.56 C 71.59 135.14 72.02 136.71 72.44 138.29 C 76.47 135.81 79.62 132.23 83.33 129.34 C 86.32 126.94 89.67 125.06 92.84 122.92 Z" />
</g>
<g id="#eed26bff">
<path fill="#eed26b" opacity="1.00" d=" M 146.08 114.78 C 147.51 113.66 149.07 112.59 150.90 112.32 C 156.23 110.61 161.35 114.32 164.87 118.00 C 167.87 120.29 170.92 124.62 167.87 128.16 C 167.84 128.69 167.78 129.75 167.75 130.29 C 165.04 126.25 160.37 124.37 155.85 123.16 C 151.62 123.20 147.89 125.44 144.28 127.40 C 143.86 128.82 143.45 130.25 143.06 131.68 C 142.34 130.35 141.59 128.96 140.02 128.49 C 140.80 128.21 141.59 127.94 142.38 127.67 C 142.58 127.29 142.99 126.54 143.19 126.17 C 143.70 125.27 144.21 124.37 144.74 123.48 C 149.29 121.56 154.17 118.39 159.24 120.52 C 157.70 118.90 156.27 117.18 154.99 115.36 C 151.29 115.38 147.79 116.51 144.55 118.24 C 144.53 117.79 144.49 116.89 144.47 116.44 C 145.00 115.88 145.53 115.32 146.08 114.78 M 165.40 119.91 C 165.47 120.97 165.61 123.08 165.68 124.13 C 166.43 125.34 167.21 126.52 168.01 127.69 C 168.99 124.89 168.00 121.46 165.40 119.91 Z" />
</g>
<g id="#c3a34cff">
<path fill="#c3a34c" opacity="1.00" d=" M 39.55 115.08 L 39.81 114.94 C 41.96 117.92 43.27 121.36 44.20 124.89 C 43.08 126.20 41.91 127.47 40.72 128.72 C 40.58 125.56 40.17 122.33 38.16 119.77 C 37.90 119.40 37.38 118.65 37.13 118.28 C 37.92 117.20 38.71 116.12 39.55 115.08 Z" />
</g>
<g id="#f5db6fff">
<path fill="#f5db6f" opacity="1.00" d=" M 66.12 117.35 C 69.50 116.99 72.86 116.48 76.24 116.14 C 74.64 121.97 71.58 127.43 71.20 133.56 C 71.10 134.24 70.92 135.60 70.83 136.27 C 69.76 136.52 68.69 136.76 67.62 137.01 L 67.20 137.10 C 66.21 135.61 65.25 134.09 64.32 132.57 C 66.49 127.85 67.26 122.44 66.12 117.35 Z" />
</g>
<g id="#44423aff">
<path fill="#44423a" opacity="1.00" d=" M 144.55 118.24 C 147.79 116.51 151.29 115.38 154.99 115.36 C 156.27 117.18 157.70 118.90 159.24 120.52 C 154.17 118.39 149.29 121.56 144.74 123.48 L 144.23 123.07 C 142.49 121.60 143.86 119.85 144.55 118.24 Z" />
</g>
<g id="#fce572ff">
<path fill="#fce572" opacity="1.00" d=" M 6.87 137.12 C 9.54 129.19 15.44 123.01 20.81 116.82 C 22.35 116.74 23.86 117.07 25.30 117.58 C 23.94 120.68 21.30 122.76 18.75 124.82 C 15.96 128.08 13.04 131.37 11.40 135.40 C 7.91 137.47 7.61 141.77 6.36 145.23 C 5.88 142.52 5.75 139.70 6.87 137.12 Z" />
</g>
<g id="#e4cb66ff">
<path fill="#e4cb66" opacity="1.00" d=" M 25.30 117.58 C 28.26 118.98 30.88 120.96 33.41 123.01 C 32.57 124.46 31.30 125.91 31.30 127.66 C 32.11 130.09 34.01 131.95 35.48 133.99 C 35.04 134.39 34.16 135.18 33.71 135.58 C 33.32 134.38 32.90 133.19 32.47 132.00 C 31.11 134.95 30.31 138.41 27.67 140.53 C 23.43 144.46 16.67 144.73 11.72 142.03 C 10.67 142.78 9.62 143.53 8.58 144.30 C 8.48 145.92 8.12 147.51 7.13 148.84 C 5.56 145.27 4.60 140.62 6.87 137.12 C 5.75 139.70 5.88 142.52 6.36 145.23 C 7.61 141.77 7.91 137.47 11.40 135.40 C 13.04 131.37 15.96 128.08 18.75 124.82 C 21.30 122.76 23.94 120.68 25.30 117.58 M 20.95 133.23 C 20.28 133.28 18.95 133.39 18.28 133.45 C 18.37 135.88 17.45 139.51 20.63 140.28 C 20.48 138.87 20.30 137.46 20.14 136.05 C 22.17 136.45 24.20 136.82 26.24 137.17 C 25.58 135.17 25.03 133.04 23.67 131.38 C 22.42 131.29 21.82 132.59 20.95 133.23 Z" />
</g>
<g id="#ffe774ff">
<path fill="#ffe774" opacity="1.00" d=" M 60.33 117.60 C 62.26 117.55 64.19 117.50 66.12 117.35 C 67.26 122.44 66.49 127.85 64.32 132.57 C 62.47 129.74 61.83 126.38 60.97 123.17 C 60.73 121.32 60.54 119.46 60.33 117.60 Z" />
</g>
<g id="#3f3625ff">
<path fill="#3f3625" opacity="1.00" d=" M 165.40 119.91 C 168.00 121.46 168.99 124.89 168.01 127.69 C 167.21 126.52 166.43 125.34 165.68 124.13 C 165.61 123.08 165.47 120.97 165.40 119.91 Z" />
</g>
<g id="#c8a653ff">
<path fill="#c8a653" opacity="1.00" d=" M 101.36 134.33 C 109.64 131.05 117.64 126.81 124.76 121.44 C 125.29 121.66 126.35 122.09 126.88 122.30 C 123.79 128.83 116.65 131.95 111.16 136.15 C 100.99 141.14 89.53 142.43 78.71 145.42 C 76.30 144.62 73.87 143.84 71.45 143.06 C 70.91 142.85 70.37 142.65 69.84 142.45 C 77.70 140.39 85.52 137.98 93.72 137.65 C 92.93 137.01 92.14 136.37 91.35 135.73 C 92.18 134.20 93.62 133.40 95.24 132.93 C 94.18 133.97 93.27 135.15 92.37 136.32 C 95.23 135.03 98.28 134.57 101.36 134.33 Z" />
</g>
<g id="#c2a44fff">
<path fill="#c2a44f" opacity="1.00" d=" M 33.41 123.01 L 33.53 122.96 C 34.68 125.14 35.77 127.34 36.81 129.58 C 38.01 129.39 39.21 129.17 40.41 128.99 C 38.87 130.75 37.20 132.40 35.48 133.99 C 34.01 131.95 32.11 130.09 31.30 127.66 C 31.30 125.91 32.57 124.46 33.41 123.01 Z" />
</g>
<g id="#423f39ff">
<path fill="#423f39" opacity="1.00" d=" M 144.28 127.40 C 147.89 125.44 151.62 123.20 155.85 123.16 C 160.37 124.37 165.04 126.25 167.75 130.29 L 168.16 130.81 C 168.07 132.65 167.94 134.50 167.80 136.34 C 166.58 135.10 165.35 133.88 164.05 132.75 C 161.56 130.99 158.81 129.69 156.09 128.35 C 151.93 128.87 147.89 130.08 144.26 132.21 C 144.16 132.59 143.96 133.37 143.86 133.75 C 140.99 132.93 138.01 133.46 135.08 133.58 L 134.90 134.10 C 133.79 132.97 132.61 131.90 131.51 130.77 C 131.81 130.58 132.42 130.22 132.72 130.03 C 133.05 130.35 133.71 130.99 134.04 131.31 C 135.98 130.26 137.94 129.24 140.02 128.49 C 141.59 128.96 142.34 130.35 143.06 131.68 C 143.45 130.25 143.86 128.82 144.28 127.40 Z" />
</g>
<g id="#f2d96cff">
<path fill="#f2d96c" opacity="1.00" d=" M 144.26 132.21 C 147.89 130.08 151.93 128.87 156.09 128.35 C 158.81 129.69 161.56 130.99 164.05 132.75 C 162.32 137.54 160.87 142.63 157.50 146.59 C 155.40 149.32 151.56 149.08 148.84 150.84 C 146.12 152.52 143.37 154.14 140.39 155.32 L 139.91 155.53 C 139.86 154.62 139.76 152.81 139.71 151.90 C 137.98 149.98 136.24 147.24 137.46 144.62 C 138.19 142.74 138.47 140.52 139.99 139.07 C 141.61 137.57 143.55 136.12 143.86 133.75 C 143.96 133.37 144.16 132.59 144.26 132.21 M 139.06 149.11 C 141.18 148.71 143.12 147.74 145.00 146.72 C 146.41 144.37 143.39 143.54 141.86 142.71 C 139.85 144.24 139.05 146.66 139.06 149.11 Z" />
</g>
<g id="#bf9e4dff">
<path fill="#bf9e4d" opacity="1.00" d=" M 20.95 133.23 C 21.82 132.59 22.42 131.29 23.67 131.38 C 25.03 133.04 25.58 135.17 26.24 137.17 C 24.20 136.82 22.17 136.45 20.14 136.05 C 20.30 137.46 20.48 138.87 20.63 140.28 C 17.45 139.51 18.37 135.88 18.28 133.45 C 18.95 133.39 20.28 133.28 20.95 133.23 Z" />
</g>
<g id="#18170d4e">
<path fill="#18170d" opacity="0.31" d=" M 168.16 130.81 C 169.61 135.71 169.33 140.93 169.48 145.99 C 169.20 149.02 169.91 152.19 168.94 155.11 C 168.72 149.08 169.62 142.94 168.38 136.98 C 168.24 136.82 167.94 136.50 167.80 136.34 C 167.94 134.50 168.07 132.65 168.16 130.81 Z" />
</g>
<g id="#c1a450ff">
<path fill="#c1a450" opacity="1.00" d=" M 27.67 140.53 C 30.31 138.41 31.11 134.95 32.47 132.00 C 32.90 133.19 33.32 134.38 33.71 135.58 C 33.93 139.59 29.97 142.93 26.33 143.91 C 25.33 144.86 24.33 145.83 23.34 146.80 C 23.19 146.47 22.89 145.83 22.74 145.51 C 21.18 145.89 19.64 146.35 18.10 146.80 C 17.02 146.30 15.94 145.81 14.86 145.32 C 13.77 147.62 12.32 149.73 10.39 151.42 C 9.27 150.61 8.18 149.75 7.11 148.88 L 7.13 148.84 C 8.12 147.51 8.48 145.92 8.58 144.30 C 9.62 143.53 10.67 142.78 11.72 142.03 C 16.67 144.73 23.43 144.46 27.67 140.53 Z" />
</g>
<g id="#34302eff">
<path fill="#34302e" opacity="1.00" d=" M 135.08 133.58 C 138.01 133.46 140.99 132.93 143.86 133.75 C 143.55 136.12 141.61 137.57 139.99 139.07 C 138.10 139.95 136.07 140.45 134.06 140.95 C 134.48 140.55 135.31 139.76 135.72 139.36 L 135.88 138.17 C 135.61 136.80 135.25 135.45 134.90 134.10 L 135.08 133.58 Z" />
</g>
<g id="#d8b85cff">
<path fill="#d8b85c" opacity="1.00" d=" M 164.05 132.75 C 165.35 133.88 166.58 135.10 167.80 136.34 C 167.94 136.50 168.24 136.82 168.38 136.98 C 169.62 142.94 168.72 149.08 168.94 155.11 C 168.94 157.84 169.00 160.81 166.86 162.84 C 166.37 163.01 165.39 163.35 164.90 163.51 C 165.44 162.25 165.98 160.99 166.52 159.73 C 167.67 157.25 167.33 154.52 166.97 151.92 C 158.76 151.02 149.90 152.20 143.00 157.01 C 141.96 156.87 141.09 156.31 140.39 155.32 C 143.37 154.14 146.12 152.52 148.84 150.84 C 151.56 149.08 155.40 149.32 157.50 146.59 C 160.87 142.63 162.32 137.54 164.05 132.75 Z" />
</g>
<g id="#2e2a23ff">
<path fill="#2e2a23" opacity="1.00" d=" M 125.76 139.50 C 126.76 138.88 127.80 138.30 129.01 138.25 C 128.67 139.49 128.32 140.73 127.98 141.97 C 128.51 141.97 129.57 141.98 130.10 141.98 C 129.59 142.76 129.10 143.55 128.62 144.34 C 128.83 145.24 129.24 147.02 129.45 147.91 C 125.55 151.16 120.46 152.48 116.38 155.47 L 116.25 155.55 C 114.66 152.84 112.98 150.19 111.15 147.64 C 115.97 143.82 122.55 143.99 127.66 141.00 L 125.76 139.50 Z" />
</g>
<g id="#be9543ff">
<path fill="#be9543" opacity="1.00" d=" M 129.01 138.25 C 131.29 137.93 133.59 137.82 135.88 138.17 L 135.72 139.36 C 135.31 139.76 134.48 140.55 134.06 140.95 C 132.78 141.42 131.45 141.80 130.10 141.98 C 129.57 141.98 128.51 141.97 127.98 141.97 C 128.32 140.73 128.67 139.49 129.01 138.25 Z" />
</g>
<g id="#332f27ff">
<path fill="#332f27" opacity="1.00" d=" M 64.96 148.40 C 66.49 145.34 67.78 142.15 69.48 139.17 L 69.55 139.27 C 69.18 140.19 68.80 141.11 68.40 142.02 L 69.84 142.45 C 70.37 142.65 70.91 142.85 71.45 143.06 C 72.61 145.43 75.09 147.78 73.26 150.49 C 71.58 150.27 69.88 150.31 68.26 150.89 C 67.01 150.28 66.02 149.27 64.96 148.40 Z" />
</g>
<g id="#ceb259ff">
<path fill="#ceb259" opacity="1.00" d=" M 139.06 149.11 C 139.05 146.66 139.85 144.24 141.86 142.71 C 143.39 143.54 146.41 144.37 145.00 146.72 C 143.12 147.74 141.18 148.71 139.06 149.11 Z" />
</g>
<g id="#ae8e41ff">
<path fill="#ae8e41" opacity="1.00" d=" M 14.86 145.32 C 15.94 145.81 17.02 146.30 18.10 146.80 C 19.64 146.35 21.18 145.89 22.74 145.51 C 22.89 145.83 23.19 146.47 23.34 146.80 C 22.09 150.71 17.28 150.77 14.17 152.48 C 12.91 152.12 11.65 151.76 10.39 151.42 C 12.32 149.73 13.77 147.62 14.86 145.32 Z" />
</g>
<g id="#a98b41ff">
<path fill="#a98b41" opacity="1.00" d=" M 128.62 144.34 C 130.14 147.24 131.98 149.97 133.29 152.97 C 134.65 156.33 131.08 158.21 128.60 159.43 C 125.68 160.54 122.07 162.28 119.18 160.18 C 118.18 158.65 117.31 157.04 116.38 155.47 C 120.46 152.48 125.55 151.16 129.45 147.91 C 129.24 147.02 128.83 145.24 128.62 144.34 M 128.13 151.97 C 128.79 153.79 128.08 157.47 130.93 157.18 C 130.29 155.38 130.69 152.12 128.13 151.97 M 122.94 153.83 C 122.61 156.25 124.69 158.81 127.12 159.05 C 126.58 156.75 125.02 154.90 122.94 153.83 Z" />
</g>
<g id="#bb9d4afe">
<path fill="#bb9d4a" opacity="1.00" d=" M 65.06 159.23 C 62.60 156.03 63.64 151.83 64.96 148.40 C 66.02 149.27 67.01 150.28 68.26 150.89 C 68.77 151.13 69.78 151.61 70.28 151.85 C 67.90 153.82 66.82 156.70 66.07 159.61 L 65.06 159.23 Z" />
</g>
<g id="#9e7f3bff">
<path fill="#9e7f3b" opacity="1.00" d=" M 70.28 151.85 C 71.93 152.56 73.62 153.16 75.35 153.61 C 74.39 155.74 73.52 157.96 73.50 160.34 C 70.99 160.67 68.47 160.32 66.07 159.61 C 66.82 156.70 67.90 153.82 70.28 151.85 Z" />
</g>
<g id="#846b32ff">
<path fill="#846b32" opacity="1.00" d=" M 128.13 151.97 C 130.69 152.12 130.29 155.38 130.93 157.18 C 128.08 157.47 128.79 153.79 128.13 151.97 Z" />
</g>
<g id="#bf9d4dff">
<path fill="#bf9d4d" opacity="1.00" d=" M 143.00 157.01 C 149.90 152.20 158.76 151.02 166.97 151.92 C 167.33 154.52 167.67 157.25 166.52 159.73 C 163.78 156.01 158.51 156.76 154.57 155.27 C 153.29 159.08 149.78 160.76 146.10 161.56 C 145.17 160.91 144.23 160.27 143.29 159.64 C 143.22 158.98 143.07 157.67 143.00 157.01 Z" />
</g>
<g id="#2b251dff">
<path fill="#2b251d" opacity="1.00" d=" M 133.29 152.97 C 134.30 156.27 135.18 159.60 135.70 163.01 C 135.49 162.72 135.06 162.12 134.85 161.83 C 131.47 165.37 125.74 167.20 121.16 165.05 C 120.93 164.61 120.47 163.73 120.25 163.30 L 119.79 163.72 C 119.67 162.53 119.45 161.34 119.18 160.18 C 122.07 162.28 125.68 160.54 128.60 159.43 C 131.08 158.21 134.65 156.33 133.29 152.97 Z" />
</g>
<g id="#86632cff">
<path fill="#86632c" opacity="1.00" d=" M 75.35 153.61 C 76.69 153.87 78.05 154.07 79.39 154.34 C 79.51 154.64 79.77 155.23 79.89 155.52 C 78.36 157.80 76.24 159.71 73.50 160.34 C 73.52 157.96 74.39 155.74 75.35 153.61 Z" />
</g>
<g id="#7e6730ff">
<path fill="#7e6730" opacity="1.00" d=" M 122.94 153.83 C 125.02 154.90 126.58 156.75 127.12 159.05 C 124.69 158.81 122.61 156.25 122.94 153.83 Z" />
</g>
<g id="#ae8941ff">
<path fill="#ae8941" opacity="1.00" d=" M 154.57 155.27 C 158.51 156.76 163.78 156.01 166.52 159.73 C 165.98 160.99 165.44 162.25 164.90 163.51 C 163.90 163.87 162.92 164.27 161.95 164.67 C 161.26 164.21 160.58 163.76 159.90 163.32 C 157.60 163.81 155.27 164.01 152.93 164.03 C 154.90 163.11 157.02 162.22 158.02 160.13 C 154.70 160.32 151.57 161.48 148.55 162.78 C 147.73 162.37 146.91 161.96 146.10 161.56 C 149.78 160.76 153.29 159.08 154.57 155.27 Z" />
</g>
<g id="#271f19ff">
<path fill="#271f19" opacity="1.00" d=" M 73.50 160.34 C 76.24 159.71 78.36 157.80 79.89 155.52 C 80.23 155.88 80.90 156.61 81.24 156.98 C 81.32 161.26 77.64 163.74 73.90 164.64 C 71.17 164.19 67.83 164.28 66.21 161.61 C 65.92 161.02 65.35 159.83 65.06 159.23 L 66.07 159.61 C 68.47 160.32 70.99 160.67 73.50 160.34 Z" />
</g>
<g id="#a6843fff">
<path fill="#a6843f" opacity="1.00" d=" M 81.24 156.98 C 81.66 157.38 82.08 157.79 82.48 158.21 C 81.81 159.61 81.77 161.13 81.86 162.65 C 84.64 163.12 87.32 164.00 89.87 165.20 C 90.02 165.95 90.31 167.44 90.46 168.19 C 90.30 168.66 90.00 169.59 89.84 170.06 C 86.34 174.64 79.98 173.73 74.94 174.86 C 74.17 173.64 72.48 173.91 71.35 174.36 C 71.46 174.62 71.69 175.13 71.80 175.38 L 71.98 175.76 C 67.77 176.85 63.42 177.43 59.08 176.96 L 58.94 176.35 C 64.75 176.04 69.57 171.99 71.70 166.72 C 73.09 166.28 74.48 165.84 75.87 165.40 C 75.22 165.13 74.56 164.88 73.90 164.64 C 77.64 163.74 81.32 161.26 81.24 156.98 Z" />
</g>
<g id="#c4a851ff">
<path fill="#c4a851" opacity="1.00" d=" M 81.86 162.65 C 81.77 161.13 81.81 159.61 82.48 158.21 C 85.06 160.41 88.37 161.98 89.87 165.20 C 87.32 164.00 84.64 163.12 81.86 162.65 Z" />
<path fill="#c4a851" opacity="1.00" d=" M 57.13 163.83 C 60.18 163.20 63.37 163.04 66.21 161.61 C 67.83 164.28 71.17 164.19 73.90 164.64 C 74.56 164.88 75.22 165.13 75.87 165.40 C 74.48 165.84 73.09 166.28 71.70 166.72 C 69.57 171.99 64.75 176.04 58.94 176.35 C 58.66 174.00 57.64 171.86 55.99 170.18 C 56.61 166.86 59.78 165.47 62.41 163.93 C 60.65 163.87 58.89 163.81 57.13 163.83 Z" />
</g>
<g id="#c2a653ff">
<path fill="#c2a653" opacity="1.00" d=" M 148.55 162.78 C 151.57 161.48 154.70 160.32 158.02 160.13 C 157.02 162.22 154.90 163.11 152.93 164.03 C 155.27 164.01 157.60 163.81 159.90 163.32 C 160.58 163.76 161.26 164.21 161.95 164.67 C 162.92 164.27 163.90 163.87 164.90 163.51 C 165.39 163.35 166.37 163.01 166.86 162.84 C 164.66 167.02 158.37 168.71 154.66 165.48 C 152.34 165.47 150.59 163.63 148.55 162.78 Z" />
</g>
<g id="#cfb256ff">
<path fill="#cfb256" opacity="1.00" d=" M 121.16 165.05 C 125.74 167.20 131.47 165.37 134.85 161.83 C 135.06 162.12 135.49 162.72 135.70 163.01 C 137.82 166.60 141.51 168.63 145.34 169.93 C 145.60 170.75 145.87 171.58 146.14 172.42 C 143.50 173.15 141.81 175.31 139.73 176.91 C 137.33 176.99 134.93 176.28 132.54 176.79 C 132.56 177.32 132.61 178.37 132.64 178.89 C 132.07 178.84 130.94 178.74 130.38 178.70 C 129.94 177.11 129.49 175.53 128.99 173.97 C 127.19 171.42 123.79 171.41 121.06 170.65 C 121.10 168.78 121.16 166.91 121.16 165.05 Z" />
</g>
<g id="#e0c460ff">
<path fill="#e0c460" opacity="1.00" d=" M 46.94 167.08 C 50.26 165.78 53.59 164.40 57.13 163.83 C 58.89 163.81 60.65 163.87 62.41 163.93 C 59.78 165.47 56.61 166.86 55.99 170.18 C 55.77 170.27 55.33 170.45 55.11 170.55 C 52.75 171.67 49.93 172.65 48.95 175.36 C 47.57 173.09 45.56 170.95 45.22 168.23 C 45.65 167.94 46.51 167.37 46.94 167.08 Z" />
</g>
<g id="#fff26bff">
<path fill="#fff26b" opacity="1.00" d=" M 119.79 163.72 L 120.25 163.30 C 118.73 166.65 120.47 170.71 118.02 173.69 C 115.02 170.89 116.98 165.91 119.79 163.72 Z" />
</g>
<g id="#d9bd5afe">
<path fill="#d9bd5a" opacity="1.00" d=" M 120.25 163.30 C 120.47 163.73 120.93 164.61 121.16 165.05 C 121.16 166.91 121.10 168.78 121.06 170.65 C 123.79 171.41 127.19 171.42 128.99 173.97 C 126.29 174.51 125.17 176.83 124.59 179.27 C 124.05 179.36 122.96 179.52 122.42 179.60 C 119.67 179.06 118.83 175.98 118.02 173.69 C 120.47 170.71 118.73 166.65 120.25 163.30 Z" />
</g>
<g id="#6e6556ca">
<path fill="#6e6556" opacity="0.79" d=" M 43.36 169.54 C 44.04 168.03 45.34 167.30 46.94 167.08 C 46.51 167.37 45.65 167.94 45.22 168.23 C 45.56 170.95 47.57 173.09 48.95 175.36 C 48.97 176.04 49.00 177.39 49.01 178.07 C 51.40 176.52 54.05 175.42 56.95 175.48 C 56.68 173.71 56.01 172.07 55.11 170.55 C 55.33 170.45 55.77 170.27 55.99 170.18 C 57.64 171.86 58.66 174.00 58.94 176.35 L 59.08 176.96 C 55.38 176.76 51.73 177.34 48.32 178.79 C 48.38 177.41 47.73 176.19 47.13 175.01 C 43.95 174.96 40.77 175.15 37.63 175.64 C 40.30 174.66 43.15 174.40 45.98 174.27 C 45.67 172.38 45.19 170.49 43.36 169.54 Z" />
</g>
<g id="#c4c18eff">
<path fill="#c4c18e" opacity="1.00" d=" M 90.46 168.19 C 90.77 168.51 91.40 169.16 91.72 169.49 L 91.45 170.34 C 91.05 170.27 90.24 170.13 89.84 170.06 C 90.00 169.59 90.30 168.66 90.46 168.19 Z" />
</g>
<g id="#bfb6aaff">
<path fill="#bfb6aa" opacity="1.00" d=" M 34.62 176.54 C 35.76 172.41 39.79 170.95 43.36 169.54 C 45.19 170.49 45.67 172.38 45.98 174.27 C 43.15 174.40 40.30 174.66 37.63 175.64 C 36.88 175.87 35.37 176.32 34.62 176.54 Z" />
</g>
<g id="#a89455ea">
<path fill="#a89455" opacity="0.92" d=" M 145.34 169.93 C 146.84 171.75 149.51 173.85 148.66 176.45 L 148.34 176.17 C 147.51 175.25 146.70 174.30 145.91 173.34 C 143.64 174.44 142.65 176.73 141.78 178.94 C 140.45 178.98 139.12 179.02 137.79 179.06 C 135.18 178.94 132.59 179.20 130.09 179.96 C 129.75 180.99 129.11 181.78 128.18 182.33 L 128.53 181.22 C 129.13 180.36 129.74 179.52 130.38 178.70 C 130.94 178.74 132.07 178.84 132.64 178.89 C 132.61 178.37 132.56 177.32 132.54 176.79 C 134.93 176.28 137.33 176.99 139.73 176.91 C 141.81 175.31 143.50 173.15 146.14 172.42 C 145.87 171.58 145.60 170.75 145.34 169.93 Z" />
</g>
<g id="#c6c0b0ff">
<path fill="#c6c0b0" opacity="1.00" d=" M 48.95 175.36 C 49.93 172.65 52.75 171.67 55.11 170.55 C 56.01 172.07 56.68 173.71 56.95 175.48 C 54.05 175.42 51.40 176.52 49.01 178.07 C 49.00 177.39 48.97 176.04 48.95 175.36 Z" />
</g>
<g id="#d2a853ff">
<path fill="#d2a853" opacity="1.00" d=" M 71.35 174.36 C 72.48 173.91 74.17 173.64 74.94 174.86 C 74.15 174.99 72.59 175.25 71.80 175.38 C 71.69 175.13 71.46 174.62 71.35 174.36 Z" />
</g>
<g id="#d9d3c1ff">
<path fill="#d9d3c1" opacity="1.00" d=" M 141.78 178.94 C 142.65 176.73 143.64 174.44 145.91 173.34 C 146.70 174.30 147.51 175.25 148.34 176.17 C 147.75 177.77 147.86 179.51 147.92 181.19 C 147.44 180.86 146.47 180.21 145.99 179.89 C 144.67 179.27 143.23 178.97 141.78 178.94 Z" />
</g>
<g id="#d2d2c4ff">
<path fill="#d2d2c4" opacity="1.00" d=" M 124.59 179.27 C 125.17 176.83 126.29 174.51 128.99 173.97 C 129.49 175.53 129.94 177.11 130.38 178.70 C 129.74 179.52 129.13 180.36 128.53 181.22 C 126.61 179.91 124.38 179.47 122.09 179.65 L 122.42 179.60 C 122.96 179.52 124.05 179.36 124.59 179.27 Z" />
</g>
<g id="#433e3790">
<path fill="#433e37" opacity="0.56" d=" M 148.34 176.17 L 148.66 176.45 C 149.71 177.39 149.54 182.72 147.92 181.19 C 147.86 179.51 147.75 177.77 148.34 176.17 Z" />
</g>
<g id="#322f2274">
<path fill="#322f22" opacity="0.45" d=" M 137.79 179.06 C 139.12 179.02 140.45 178.98 141.78 178.94 C 143.23 178.97 144.67 179.27 145.99 179.89 C 143.27 179.56 140.35 180.21 137.79 179.06 Z" />
</g>
</svg>
