<?xml version="1.0" encoding="UTF-8" ?>
<!DOCTYPE svg PUBLIC "-//W3C//DTD SVG 1.1//EN" "http://www.w3.org/Graphics/SVG/1.1/DTD/svg11.dtd">
<svg width="201pt" height="180pt" viewBox="0 0 201 180" version="1.1" xmlns="http://www.w3.org/2000/svg">
<g id="#e4d4cbfb">
<path fill="#e4d4cb" opacity="1.00" d=" M 131.99 6.89 C 132.41 7.23 133.26 7.89 133.68 8.22 C 134.28 10.16 135.24 11.95 136.16 13.75 C 137.66 19.05 138.94 24.40 139.30 29.91 C 140.26 33.94 136.29 36.83 134.62 40.05 C 134.46 39.78 134.13 39.23 133.97 38.95 C 133.88 37.37 134.06 35.79 134.30 34.24 C 134.88 30.45 135.52 26.39 134.38 22.63 C 134.56 17.24 131.92 12.25 131.99 6.89 Z" />
</g>
<g id="#b1a29ffe">
<path fill="#b1a29f" opacity="1.00" d=" M 133.68 8.22 C 137.40 10.02 140.66 13.94 143.30 17.36 C 142.02 17.52 141.02 16.60 139.92 16.14 C 140.95 19.38 141.82 22.69 143.06 25.86 C 143.08 32.32 146.75 40.23 140.84 44.89 C 140.59 45.15 140.10 45.69 139.86 45.95 C 141.88 38.42 143.45 30.22 140.27 22.73 C 139.43 19.54 138.67 16.09 136.16 13.75 C 135.24 11.95 134.28 10.16 133.68 8.22 Z" />
</g>
<g id="#eddfd8fc">
<path fill="#eddfd8" opacity="1.00" d=" M 46.78 25.15 C 49.89 19.96 51.78 13.45 56.93 9.88 L 56.95 10.92 C 57.01 14.05 56.68 17.27 57.63 20.30 C 57.93 21.53 58.04 22.79 57.95 24.06 C 57.39 23.38 56.82 22.71 56.23 22.06 C 54.40 25.88 53.28 29.97 51.79 33.92 C 49.21 32.03 48.22 28.08 46.78 25.15 Z" />
</g>
<g id="#94908ec3">
<path fill="#94908e" opacity="0.76" d=" M 56.95 10.92 C 60.27 11.31 57.33 17.77 57.63 20.30 C 56.68 17.27 57.01 14.05 56.95 10.92 Z" />
</g>
<g id="#d4c1b9ff">
<path fill="#d4c1b9" opacity="1.00" d=" M 136.16 13.75 C 138.67 16.09 139.43 19.54 140.27 22.73 C 139.59 28.39 142.59 34.34 139.55 39.64 C 138.11 41.90 138.37 44.44 138.94 46.93 C 138.22 47.64 138.14 48.43 138.71 49.29 L 138.95 49.97 C 141.08 57.93 137.56 66.29 131.97 72.00 C 129.84 74.10 126.92 72.31 125.07 70.78 C 124.51 67.36 124.67 63.79 126.62 60.87 C 127.26 63.19 126.13 65.44 126.16 67.75 C 127.43 69.74 129.62 70.46 131.90 70.00 C 134.67 66.42 136.79 62.32 137.85 57.92 C 136.98 51.98 132.66 46.18 134.62 40.05 C 136.29 36.83 140.26 33.94 139.30 29.91 C 138.94 24.40 137.66 19.05 136.16 13.75 Z" />
</g>
<g id="#97857ffe">
<path fill="#97857f" opacity="1.00" d=" M 139.92 16.14 C 141.02 16.60 142.02 17.52 143.30 17.36 C 144.65 17.54 144.77 19.86 144.95 21.02 C 145.24 22.60 144.22 25.59 146.87 24.98 C 146.51 25.93 146.19 26.89 145.91 27.87 C 146.86 27.55 147.81 27.22 148.76 26.88 C 149.17 27.84 149.43 28.82 149.54 29.84 C 149.72 38.92 151.35 47.94 149.95 57.03 L 149.28 56.70 C 148.97 56.54 148.35 56.24 148.04 56.08 C 145.10 62.71 142.83 69.69 138.82 75.78 C 135.19 78.53 131.06 80.59 126.87 82.32 C 126.55 81.98 125.90 81.30 125.57 80.96 C 130.47 78.72 136.18 77.01 138.97 72.01 C 143.39 64.46 146.77 55.92 146.13 47.00 C 147.26 39.84 146.61 32.28 143.06 25.86 C 141.82 22.69 140.95 19.38 139.92 16.14 Z" />
</g>
<g id="#c5b3adfb">
<path fill="#c5b3ad" opacity="1.00" d=" M 144.95 21.02 C 147.32 21.50 154.74 21.51 151.07 23.96 C 149.64 24.17 148.23 24.52 146.87 24.98 C 144.22 25.59 145.24 22.60 144.95 21.02 Z" />
</g>
<g id="#d9c8c0fc">
<path fill="#d9c8c0" opacity="1.00" d=" M 56.23 22.06 C 56.82 22.71 57.39 23.38 57.95 24.06 C 57.49 24.97 57.06 25.89 56.67 26.82 C 54.18 31.98 58.53 36.60 57.91 41.76 C 54.76 43.37 51.48 42.23 48.20 42.06 C 45.11 46.03 47.57 51.71 49.25 55.90 C 52.97 56.57 54.39 51.75 57.84 51.08 C 62.71 55.02 65.13 60.81 67.60 66.38 C 69.82 70.46 65.64 73.89 62.09 74.17 C 60.15 74.43 59.95 76.83 59.15 78.24 C 56.48 75.96 54.41 72.19 53.25 68.83 C 57.29 66.79 60.22 71.24 63.78 71.89 C 67.90 66.72 63.24 60.04 59.87 55.96 C 55.99 55.79 52.93 57.81 52.65 61.85 C 49.95 62.87 51.13 57.27 48.67 58.68 L 48.07 58.87 C 47.60 53.94 44.89 49.24 45.21 44.28 C 45.97 40.77 46.00 37.25 45.32 33.72 C 45.17 32.51 45.79 31.39 45.88 30.20 C 44.26 28.92 41.86 28.21 41.03 26.18 C 42.84 25.42 44.78 24.59 46.78 25.15 C 48.22 28.08 49.21 32.03 51.79 33.92 C 53.28 29.97 54.40 25.88 56.23 22.06 Z" />
</g>
<g id="#b4a59cea">
<path fill="#b4a59c" opacity="0.92" d=" M 129.10 24.20 C 130.78 23.45 132.54 22.86 134.38 22.63 C 135.52 26.39 134.88 30.45 134.30 34.24 C 133.98 32.67 133.32 29.53 133.00 27.96 C 131.49 26.96 128.32 26.66 129.10 24.20 Z" />
</g>
<g id="#c3b2acff">
<path fill="#c3b2ac" opacity="1.00" d=" M 140.27 22.73 C 143.45 30.22 141.88 38.42 139.86 45.95 C 139.63 46.20 139.17 46.68 138.94 46.93 C 138.37 44.44 138.11 41.90 139.55 39.64 C 142.59 34.34 139.59 28.39 140.27 22.73 Z" />
</g>
<g id="#ae9e97ef">
<path fill="#ae9e97" opacity="0.94" d=" M 57.95 24.06 C 59.80 25.71 64.09 24.96 64.11 27.87 C 61.72 27.99 59.35 28.34 57.03 28.94 C 56.94 28.41 56.76 27.35 56.67 26.82 C 57.06 25.89 57.49 24.97 57.95 24.06 Z" />
</g>
<g id="#847370f6">
<path fill="#847370" opacity="0.96" d=" M 146.87 24.98 C 148.23 24.52 149.64 24.17 151.07 23.96 C 150.54 25.10 149.61 25.98 148.76 26.88 C 147.81 27.22 146.86 27.55 145.91 27.87 C 146.19 26.89 146.51 25.93 146.87 24.98 Z" />
</g>
<g id="#a2928dff">
<path fill="#a2928d" opacity="1.00" d=" M 143.06 25.86 C 146.61 32.28 147.26 39.84 146.13 47.00 C 146.77 55.92 143.39 64.46 138.97 72.01 C 136.18 77.01 130.47 78.72 125.57 80.96 C 125.42 80.54 125.11 79.70 124.95 79.29 C 130.18 76.91 136.61 74.80 138.93 68.95 C 142.06 62.60 144.74 55.21 143.06 48.08 C 143.00 46.05 143.65 42.78 140.84 44.89 C 146.75 40.23 143.08 32.32 143.06 25.86 Z" />
</g>
<g id="#cdbbb4fd">
<path fill="#cdbbb4" opacity="1.00" d=" M 57.91 41.76 C 58.53 36.60 54.18 31.98 56.67 26.82 C 56.76 27.35 56.94 28.41 57.03 28.94 C 56.97 30.32 58.68 30.48 59.53 31.16 C 61.97 37.09 64.83 42.96 67.05 48.93 C 61.06 55.88 70.98 63.28 70.70 70.71 C 69.36 73.25 67.95 76.18 64.89 76.83 C 62.64 77.20 61.82 79.27 61.32 81.20 C 60.66 80.19 59.42 79.47 59.15 78.24 C 59.95 76.83 60.15 74.43 62.09 74.17 C 65.64 73.89 69.82 70.46 67.60 66.38 C 65.13 60.81 62.71 55.02 57.84 51.08 C 54.39 51.75 52.97 56.57 49.25 55.90 C 47.57 51.71 45.11 46.03 48.20 42.06 C 51.48 42.23 54.76 43.37 57.91 41.76 M 53.33 46.13 C 53.16 48.25 48.46 50.23 51.22 51.82 C 54.82 52.88 56.82 47.41 53.33 46.13 Z" />
</g>
<g id="#7b6965f4">
<path fill="#7b6965" opacity="0.96" d=" M 57.03 28.94 C 59.35 28.34 61.72 27.99 64.11 27.87 C 63.08 29.48 60.96 29.95 59.53 31.16 C 58.68 30.48 56.97 30.32 57.03 28.94 Z" />
</g>
<g id="#aaa19ff2">
<path fill="#aaa19f" opacity="0.95" d=" M 149.95 57.03 C 151.35 47.94 149.72 38.92 149.54 29.84 C 151.14 33.37 151.97 37.28 152.05 41.15 C 152.05 42.83 152.05 46.18 152.05 47.85 C 151.99 51.39 151.29 54.87 150.60 58.32 C 150.43 58.00 150.11 57.35 149.95 57.03 Z" />
</g>
<g id="#f4e7dfff">
<path fill="#f4e7df" opacity="1.00" d=" M 45.32 33.72 C 46.00 37.25 45.97 40.77 45.21 44.28 C 45.15 41.13 45.00 37.99 45.12 34.84 L 45.32 33.72 Z" />
</g>
<g id="#0e0d0d3c">
<path fill="#0e0d0d" opacity="0.24" d=" M 44.07 35.03 L 45.12 34.84 C 45.00 37.99 45.15 41.13 45.21 44.28 C 41.81 43.49 44.68 37.71 44.07 35.03 Z" />
</g>
<g id="#e0cbc2fe">
<path fill="#e0cbc2" opacity="1.00" d=" M 130.02 51.01 C 132.46 47.55 131.19 41.36 133.97 38.95 C 134.13 39.23 134.46 39.78 134.62 40.05 C 132.66 46.18 136.98 51.98 137.85 57.92 C 136.79 62.32 134.67 66.42 131.90 70.00 C 129.62 70.46 127.43 69.74 126.16 67.75 C 126.13 65.44 127.26 63.19 126.62 60.87 C 126.52 60.38 126.32 59.40 126.21 58.92 C 126.46 58.45 126.94 57.51 127.19 57.04 C 128.22 55.07 129.05 53.01 130.02 51.01 Z" />
</g>
<g id="#08080834">
<path fill="#080808" opacity="0.20" d=" M 152.05 41.15 C 153.85 41.96 153.85 47.04 152.05 47.85 C 152.05 46.18 152.05 42.83 152.05 41.15 Z" />
</g>
<g id="#8d7d77ff">
<path fill="#8d7d77" opacity="1.00" d=" M 140.84 44.89 C 143.65 42.78 143.00 46.05 143.06 48.08 C 141.63 48.56 140.17 48.95 138.71 49.29 C 138.14 48.43 138.22 47.64 138.94 46.93 C 139.17 46.68 139.63 46.20 139.86 45.95 C 140.10 45.69 140.59 45.15 140.84 44.89 Z" />
</g>
<g id="#8c7974ff">
<path fill="#8c7974" opacity="1.00" d=" M 53.33 46.13 C 56.82 47.41 54.82 52.88 51.22 51.82 C 48.46 50.23 53.16 48.25 53.33 46.13 Z" />
</g>
<g id="#b1a09bff">
<path fill="#b1a09b" opacity="1.00" d=" M 138.71 49.29 C 140.17 48.95 141.63 48.56 143.06 48.08 C 144.74 55.21 142.06 62.60 138.93 68.95 C 136.61 74.80 130.18 76.91 124.95 79.29 C 124.15 78.13 123.37 76.97 122.61 75.80 C 122.48 75.31 122.23 74.33 122.11 73.84 C 124.05 74.51 125.85 75.78 127.93 75.94 C 136.83 73.39 140.56 63.11 141.45 54.77 C 141.12 52.93 141.72 49.63 138.95 49.97 L 138.71 49.29 Z" />
</g>
<g id="#bba9a2fd">
<path fill="#bba9a2" opacity="1.00" d=" M 67.05 48.93 C 68.42 49.09 68.45 51.00 68.77 52.06 C 67.70 54.17 68.39 56.27 69.52 58.17 C 70.87 63.83 74.22 69.97 71.73 75.70 C 70.39 79.97 65.26 80.04 61.89 81.92 L 61.03 82.09 L 61.32 81.20 C 61.82 79.27 62.64 77.20 64.89 76.83 C 67.95 76.18 69.36 73.25 70.70 70.71 C 70.98 63.28 61.06 55.88 67.05 48.93 Z" />
</g>
<g id="#c2b0a8ff">
<path fill="#c2b0a8" opacity="1.00" d=" M 138.95 49.97 C 141.72 49.63 141.12 52.93 141.45 54.77 C 140.56 63.11 136.83 73.39 127.93 75.94 C 125.85 75.78 124.05 74.51 122.11 73.84 C 121.99 73.45 121.76 72.65 121.65 72.26 C 121.79 69.45 121.95 66.64 122.13 63.84 C 122.42 63.46 122.99 62.70 123.28 62.32 C 124.32 61.25 124.78 59.53 126.21 58.92 C 126.32 59.40 126.52 60.38 126.62 60.87 C 124.67 63.79 124.51 67.36 125.07 70.78 C 126.92 72.31 129.84 74.10 131.97 72.00 C 137.56 66.29 141.08 57.93 138.95 49.97 Z" />
</g>
<g id="#9e9183eb">
<path fill="#9e9183" opacity="0.92" d=" M 122.92 51.02 C 124.69 51.01 128.24 51.01 130.02 51.01 C 129.05 53.01 128.22 55.07 127.19 57.04 C 125.55 55.19 123.90 53.31 122.92 51.02 Z" />
</g>
<g id="#aa998ff9">
<path fill="#aa998f" opacity="0.98" d=" M 68.77 52.06 C 69.38 52.23 70.59 52.56 71.20 52.72 C 71.89 52.84 73.28 53.09 73.97 53.21 C 72.17 54.54 70.16 55.88 69.52 58.17 C 68.39 56.27 67.70 54.17 68.77 52.06 Z" />
</g>
<g id="#6c5c59ea">
<path fill="#6c5c59" opacity="0.92" d=" M 71.20 52.72 C 70.43 50.99 74.05 52.39 75.04 52.05 C 75.41 54.30 73.65 55.95 72.76 57.82 C 71.95 57.91 70.33 58.08 69.52 58.17 C 70.16 55.88 72.17 54.54 73.97 53.21 C 73.28 53.09 71.89 52.84 71.20 52.72 Z" />
</g>
<g id="#e0cfc9fe">
<path fill="#e0cfc9" opacity="1.00" d=" M 52.65 61.85 C 52.93 57.81 55.99 55.79 59.87 55.96 C 63.24 60.04 67.90 66.72 63.78 71.89 C 60.22 71.24 57.29 66.79 53.25 68.83 C 52.02 66.79 49.71 67.28 47.70 67.23 C 50.80 64.97 49.61 61.74 48.67 58.68 C 51.13 57.27 49.95 62.87 52.65 61.85 Z" />
</g>
<g id="#897873f9">
<path fill="#897873" opacity="0.98" d=" M 148.04 56.08 C 148.35 56.24 148.97 56.54 149.28 56.70 C 149.04 59.41 148.36 62.07 148.08 64.78 C 150.01 65.31 151.96 65.79 153.95 66.11 C 153.98 69.09 149.10 64.58 148.33 67.29 C 146.14 73.19 142.48 78.34 140.09 84.13 L 139.76 84.95 C 138.92 85.41 138.07 85.85 137.20 86.26 C 138.42 83.93 140.20 81.68 140.06 78.90 C 136.05 80.02 132.51 82.32 128.82 84.16 C 128.12 83.60 127.47 82.99 126.87 82.32 C 131.06 80.59 135.19 78.53 138.82 75.78 C 142.83 69.69 145.10 62.71 148.04 56.08 Z" />
</g>
<g id="#968986ee">
<path fill="#968986" opacity="0.93" d=" M 149.28 56.70 L 149.95 57.03 C 150.11 57.35 150.43 58.00 150.60 58.32 C 151.55 61.49 154.18 63.47 156.13 65.98 C 155.58 66.01 154.49 66.08 153.95 66.11 C 151.96 65.79 150.01 65.31 148.08 64.78 C 148.36 62.07 149.04 59.41 149.28 56.70 Z" />
</g>
<g id="#ab9990fe">
<path fill="#ab9990" opacity="1.00" d=" M 69.52 58.17 C 70.33 58.08 71.95 57.91 72.76 57.82 C 73.82 58.05 74.57 58.70 75.02 59.76 C 74.55 59.87 73.60 60.10 73.13 60.21 C 73.34 64.57 74.07 68.90 74.27 73.28 C 71.96 78.08 69.91 83.00 67.91 87.94 L 67.25 88.37 C 65.45 86.27 63.53 84.16 61.89 81.92 C 65.26 80.04 70.39 79.97 71.73 75.70 C 74.22 69.97 70.87 63.83 69.52 58.17 Z" />
</g>
<g id="#675542a1">
<path fill="#675542" opacity="0.63" d=" M 98.00 58.00 C 101.12 59.20 108.62 55.86 110.04 59.05 C 106.03 59.01 102.02 58.98 98.02 58.97 L 98.00 58.00 Z" />
</g>
<g id="#dfaa8cfe">
<path fill="#dfaa8c" opacity="1.00" d=" M 81.97 64.15 C 86.26 60.22 92.39 59.18 98.02 58.97 C 102.02 58.98 106.03 59.01 110.04 59.05 C 110.60 59.12 111.73 59.27 112.29 59.35 C 111.22 59.60 110.14 59.83 109.06 60.03 C 105.09 58.87 102.66 61.97 100.99 65.06 C 102.39 71.41 106.67 78.68 102.38 84.75 C 102.79 85.03 103.63 85.60 104.05 85.88 C 103.60 86.18 102.71 86.77 102.26 87.07 C 97.18 85.32 91.70 88.04 86.77 89.08 C 83.72 86.25 80.95 83.11 77.59 80.64 C 78.78 76.73 81.57 73.31 84.23 70.27 C 85.43 69.29 83.37 68.52 82.90 67.83 C 84.25 66.42 82.99 65.26 81.97 64.15 Z" />
</g>
<g id="#bb8e76fe">
<path fill="#bb8e76" opacity="1.00" d=" M 112.29 59.35 C 113.97 59.06 115.58 60.12 117.23 60.35 C 114.25 61.17 108.96 61.55 112.13 66.90 C 113.29 70.84 115.35 74.50 115.66 78.69 C 115.29 78.93 114.57 79.42 114.20 79.66 C 113.70 79.80 112.68 80.07 112.18 80.21 C 109.90 73.89 106.43 66.72 109.06 60.03 C 110.14 59.83 111.22 59.60 112.29 59.35 Z" />
</g>
<g id="#9f8c80fe">
<path fill="#9f8c80" opacity="1.00" d=" M 73.13 60.21 C 73.60 60.10 74.55 59.87 75.02 59.76 C 76.05 60.51 77.70 61.42 77.76 62.80 C 75.52 64.27 76.31 66.80 76.72 69.17 C 76.10 70.65 75.28 72.03 74.27 73.28 C 74.07 68.90 73.34 64.57 73.13 60.21 Z" />
</g>
<g id="#cf9d83ff">
<path fill="#cf9d83" opacity="1.00" d=" M 100.99 65.06 C 102.66 61.97 105.09 58.87 109.06 60.03 C 106.43 66.72 109.90 73.89 112.18 80.21 C 111.44 80.71 110.70 81.22 109.96 81.73 C 107.92 83.01 106.04 84.53 104.05 85.88 C 103.63 85.60 102.79 85.03 102.38 84.75 C 106.67 78.68 102.39 71.41 100.99 65.06 Z" />
</g>
<g id="#a77e6aff">
<path fill="#a77e6a" opacity="1.00" d=" M 117.23 60.35 C 119.33 60.12 121.52 61.20 123.28 62.32 C 122.99 62.70 122.42 63.46 122.13 63.84 C 121.87 63.56 121.34 63.02 121.08 62.74 C 119.44 60.97 116.89 62.50 115.10 63.23 C 116.02 73.92 120.98 83.91 120.84 94.75 C 118.02 96.98 116.04 102.02 111.39 99.60 C 109.03 97.82 105.34 97.28 103.92 94.51 C 104.90 94.10 105.88 93.67 106.85 93.22 C 109.08 93.10 111.53 92.97 112.68 90.72 C 113.42 87.09 114.58 83.38 114.20 79.66 C 114.57 79.42 115.29 78.93 115.66 78.69 C 115.35 74.50 113.29 70.84 112.13 66.90 C 108.96 61.55 114.25 61.17 117.23 60.35 Z" />
</g>
<g id="#97715fff">
<path fill="#97715f" opacity="1.00" d=" M 115.10 63.23 C 116.89 62.50 119.44 60.97 121.08 62.74 C 119.23 62.87 116.20 63.42 117.03 65.99 C 119.73 78.29 125.93 90.13 124.99 103.00 C 124.59 105.72 123.84 109.11 120.65 109.70 C 115.64 112.50 114.32 106.71 111.58 104.38 C 108.10 101.40 104.44 98.24 99.90 97.08 C 96.69 95.97 93.24 96.06 89.89 95.87 C 93.22 95.31 96.52 94.70 99.81 94.04 C 100.36 93.82 101.46 93.36 102.01 93.13 C 100.18 95.00 102.49 95.05 103.92 94.51 C 105.34 97.28 109.03 97.82 111.39 99.60 C 116.04 102.02 118.02 96.98 120.84 94.75 C 120.98 83.91 116.02 73.92 115.10 63.23 Z" />
</g>
<g id="#8b786afb">
<path fill="#8b786a" opacity="1.00" d=" M 76.72 69.17 C 76.31 66.80 75.52 64.27 77.76 62.80 C 78.88 63.28 80.00 63.77 81.12 64.27 C 79.59 65.84 78.06 67.43 76.72 69.17 Z" />
</g>
<g id="#886555ff">
<path fill="#886555" opacity="1.00" d=" M 117.03 65.99 C 116.20 63.42 119.23 62.87 121.08 62.74 C 121.34 63.02 121.87 63.56 122.13 63.84 C 120.82 66.44 120.60 69.56 121.65 72.26 C 121.76 72.65 121.99 73.45 122.11 73.84 C 122.23 74.33 122.48 75.31 122.61 75.80 C 121.00 80.64 125.40 85.07 126.38 89.65 C 130.53 97.04 128.89 105.32 126.90 113.00 C 124.14 114.20 121.16 114.84 118.21 115.33 C 110.68 116.06 110.96 105.70 105.01 102.97 C 103.65 101.83 101.82 102.08 100.18 102.10 C 100.85 100.71 103.18 98.46 100.08 98.80 C 100.03 98.37 99.94 97.51 99.90 97.08 C 104.44 98.24 108.10 101.40 111.58 104.38 C 114.32 106.71 115.64 112.50 120.65 109.70 C 123.84 109.11 124.59 105.72 124.99 103.00 C 125.93 90.13 119.73 78.29 117.03 65.99 Z" />
</g>
<g id="#c19578ff">
<path fill="#c19578" opacity="1.00" d=" M 81.12 64.27 L 81.97 64.15 C 82.99 65.26 84.25 66.42 82.90 67.83 C 74.64 71.43 75.97 83.94 67.91 87.94 C 69.91 83.00 71.96 78.08 74.27 73.28 C 75.28 72.03 76.10 70.65 76.72 69.17 C 78.06 67.43 79.59 65.84 81.12 64.27 Z" />
</g>
<g id="#a48c7dff">
<path fill="#a48c7d" opacity="1.00" d=" M 121.65 72.26 C 120.60 69.56 120.82 66.44 122.13 63.84 C 121.95 66.64 121.79 69.45 121.65 72.26 Z" />
</g>
<g id="#a1968ff1">
<path fill="#a1968f" opacity="0.95" d=" M 53.25 68.83 C 51.42 69.21 44.86 69.50 47.70 67.23 C 49.71 67.28 52.02 66.79 53.25 68.83 Z" />
</g>
<g id="#d0a285fe">
<path fill="#d0a285" opacity="1.00" d=" M 67.91 87.94 C 75.97 83.94 74.64 71.43 82.90 67.83 C 83.37 68.52 85.43 69.29 84.23 70.27 C 81.57 73.31 78.78 76.73 77.59 80.64 C 77.49 81.17 77.28 82.24 77.18 82.78 C 75.79 84.20 75.53 86.33 76.52 88.06 C 76.93 89.26 77.35 90.45 77.81 91.64 C 76.29 93.33 79.09 93.34 80.12 93.98 C 74.67 99.61 73.90 107.40 73.86 114.90 C 72.50 114.69 71.17 114.35 69.82 114.13 C 70.79 115.47 72.23 116.24 73.77 116.74 L 74.65 117.08 C 75.22 121.16 77.08 124.88 77.98 128.87 C 77.80 129.67 74.99 130.97 76.77 131.29 C 78.12 131.84 79.50 132.31 80.87 132.78 C 80.95 134.55 81.02 136.32 80.95 138.09 C 79.51 137.96 78.12 137.60 76.75 137.16 C 76.54 136.76 76.11 135.95 75.90 135.55 C 75.30 133.69 74.58 131.88 74.00 130.03 C 72.22 125.77 70.31 121.51 69.20 116.98 C 68.50 110.82 65.00 105.29 65.74 98.77 C 65.77 98.33 65.85 97.43 65.88 96.98 C 66.10 94.07 66.94 91.27 67.25 88.37 L 67.91 87.94 Z" />
</g>
<g id="#d6cdc9f4">
<path fill="#d6cdc9" opacity="0.96" d=" M 171.11 70.97 C 173.02 70.92 175.36 70.59 176.05 72.86 C 175.30 72.93 173.80 73.05 173.05 73.12 C 173.64 76.02 174.49 78.86 175.19 81.75 C 174.69 81.81 173.71 81.94 173.21 82.01 C 172.71 78.29 171.85 74.64 171.11 70.97 Z" />
</g>
<g id="#a69a98fb">
<path fill="#a69a98" opacity="1.00" d=" M 173.05 73.12 C 173.80 73.05 175.30 72.93 176.05 72.86 C 179.17 74.28 179.17 78.94 178.97 81.83 C 177.97 82.18 176.99 82.55 176.01 82.94 C 175.80 82.64 175.39 82.04 175.19 81.75 C 174.49 78.86 173.64 76.02 173.05 73.12 Z" />
</g>
<g id="#7d5c4eff">
<path fill="#7d5c4e" opacity="1.00" d=" M 126.38 89.65 C 125.40 85.07 121.00 80.64 122.61 75.80 C 123.37 76.97 124.15 78.13 124.95 79.29 C 125.11 79.70 125.42 80.54 125.57 80.96 C 125.61 86.81 130.54 91.47 131.93 97.08 C 133.80 101.25 132.11 105.82 132.11 110.16 C 130.59 111.44 128.69 112.16 126.90 113.00 C 128.89 105.32 130.53 97.04 126.38 89.65 Z" />
</g>
<g id="#79665eff">
<path fill="#79665e" opacity="1.00" d=" M 128.82 84.16 C 132.51 82.32 136.05 80.02 140.06 78.90 C 140.20 81.68 138.42 83.93 137.20 86.26 C 135.94 86.85 134.52 85.84 133.22 85.75 C 131.76 85.20 130.12 85.04 128.82 84.16 Z" />
</g>
<g id="#5f504aff">
<path fill="#5f504a" opacity="1.00" d=" M 112.18 80.21 C 112.68 80.07 113.70 79.80 114.20 79.66 C 114.58 83.38 113.42 87.09 112.68 90.72 C 111.53 92.97 109.08 93.10 106.85 93.22 C 109.01 91.56 112.18 90.10 111.97 86.87 C 111.70 85.38 112.97 82.26 110.98 81.95 L 109.96 81.73 C 110.70 81.22 111.44 80.71 112.18 80.21 Z" />
</g>
<g id="#bbb1b0ef">
<path fill="#bbb1b0" opacity="0.94" d=" M 160.21 80.12 C 161.49 79.87 164.96 80.40 164.63 81.69 C 163.90 82.77 163.43 83.98 163.08 85.23 C 160.76 85.26 157.28 81.92 160.21 80.12 Z" />
</g>
<g id="#403633ff">
<path fill="#403633" opacity="1.00" d=" M 77.18 82.78 C 77.28 82.24 77.49 81.17 77.59 80.64 C 80.95 83.11 83.72 86.25 86.77 89.08 C 87.63 90.11 88.49 91.14 89.32 92.20 L 88.99 92.99 L 88.17 92.93 C 87.12 90.96 83.58 88.17 83.58 92.31 C 83.19 92.23 82.40 92.08 82.01 92.00 C 82.00 90.62 81.97 89.24 81.92 87.86 C 82.20 85.42 79.57 84.13 77.79 83.09 L 77.18 82.78 Z" />
</g>
<g id="#715244ff">
<path fill="#715244" opacity="1.00" d=" M 131.93 97.08 C 130.54 91.47 125.61 86.81 125.57 80.96 C 125.90 81.30 126.55 81.98 126.87 82.32 C 127.47 82.99 128.12 83.60 128.82 84.16 C 130.12 85.04 131.76 85.20 133.22 85.75 C 132.39 85.84 130.72 86.03 129.89 86.12 C 130.48 89.14 134.01 90.48 134.45 93.63 C 136.55 97.88 135.42 102.56 135.14 107.07 C 134.20 108.17 133.22 109.24 132.11 110.16 C 132.11 105.82 133.80 101.25 131.93 97.08 Z" />
</g>
<g id="#38302dff">
<path fill="#38302d" opacity="1.00" d=" M 104.05 85.88 C 106.04 84.53 107.92 83.01 109.96 81.73 L 110.98 81.95 C 110.68 82.40 110.09 83.29 109.80 83.74 C 108.54 84.52 106.47 85.07 106.35 86.82 C 105.73 88.60 106.79 91.62 104.45 92.27 C 103.86 91.23 103.26 90.19 102.67 89.16 C 101.28 90.09 100.07 91.27 98.80 92.36 C 98.61 92.08 98.24 91.52 98.06 91.24 C 99.54 89.94 100.92 88.52 102.26 87.07 C 102.71 86.77 103.60 86.18 104.05 85.88 Z" />
</g>
<g id="#898989ff">
<path fill="#898989" opacity="1.00" d=" M 110.98 81.95 C 112.97 82.26 111.70 85.38 111.97 86.87 C 110.67 87.95 109.39 89.06 108.10 90.15 C 108.15 87.89 108.96 85.79 109.80 83.74 C 110.09 83.29 110.68 82.40 110.98 81.95 Z" />
</g>
<g id="#ddcccafa">
<path fill="#ddccca" opacity="0.98" d=" M 163.08 85.23 C 163.43 83.98 163.90 82.77 164.63 81.69 C 166.16 81.72 167.93 82.46 168.13 84.17 C 167.35 85.46 166.59 86.76 165.85 88.08 C 164.86 87.27 163.33 86.57 163.08 85.23 Z" />
</g>
<g id="#c3957dfd">
<path fill="#c3957d" opacity="1.00" d=" M 168.13 84.17 C 170.11 84.09 171.54 82.83 173.21 82.01 C 173.71 81.94 174.69 81.81 175.19 81.75 C 175.39 82.04 175.80 82.64 176.01 82.94 C 175.53 83.99 174.57 85.18 175.84 86.09 C 177.08 87.76 178.27 89.46 179.41 91.20 C 176.58 93.03 173.62 98.50 170.07 96.01 C 168.90 93.24 166.75 90.90 165.85 88.08 C 166.59 86.76 167.35 85.46 168.13 84.17 Z" />
</g>
<g id="#e4dfdefb">
<path fill="#e4dfde" opacity="1.00" d=" M 176.01 82.94 C 176.99 82.55 177.97 82.18 178.97 81.83 C 180.44 81.63 181.42 82.52 182.01 83.77 C 180.13 84.06 178.37 84.77 176.71 85.68 L 175.84 86.09 C 174.57 85.18 175.53 83.99 176.01 82.94 Z" />
</g>
<g id="#cabfbbf2">
<path fill="#cabfbb" opacity="0.95" d=" M 17.25 84.25 C 19.09 82.60 23.11 82.90 23.12 85.83 L 23.25 86.64 C 22.20 87.41 21.16 88.20 20.09 88.95 C 17.50 89.24 15.66 91.35 15.85 93.97 C 15.39 94.25 14.46 94.82 14.00 95.10 C 12.96 95.71 11.95 96.37 10.94 97.03 C 10.91 94.53 14.09 93.90 14.40 91.72 C 15.14 89.11 19.29 88.10 17.25 84.25 Z" />
</g>
<g id="#997c6cff">
<path fill="#997c6c" opacity="1.00" d=" M 77.18 82.78 L 77.79 83.09 C 77.82 83.78 77.88 85.15 77.91 85.84 C 77.56 86.40 76.87 87.50 76.52 88.06 C 75.53 86.33 75.79 84.20 77.18 82.78 Z" />
</g>
<g id="#ecececff">
<path fill="#ececec" opacity="1.00" d=" M 77.79 83.09 C 79.57 84.13 82.20 85.42 81.92 87.86 C 81.05 91.42 76.83 88.71 77.91 85.84 C 77.88 85.15 77.82 83.78 77.79 83.09 Z" />
</g>
<g id="#9e9e9eff">
<path fill="#9e9e9e" opacity="1.00" d=" M 106.35 86.82 C 106.47 85.07 108.54 84.52 109.80 83.74 C 108.96 85.79 108.15 87.89 108.10 90.15 C 106.41 92.24 106.98 87.87 106.35 86.82 Z" />
</g>
<g id="#715041f8">
<path fill="#715041" opacity="0.97" d=" M 140.09 84.13 L 140.89 84.06 C 141.81 87.95 142.66 91.87 143.69 95.74 C 142.35 98.75 140.70 101.71 140.03 104.94 C 140.82 109.49 146.39 111.30 150.32 109.30 C 152.42 107.91 155.36 109.38 156.98 107.15 C 157.06 107.66 157.21 108.67 157.29 109.17 C 157.40 110.04 157.54 110.90 157.72 111.76 C 156.03 112.97 154.08 113.04 152.17 112.39 C 149.85 113.60 147.86 115.80 144.98 115.04 C 142.77 112.27 139.73 110.38 137.20 107.95 L 136.89 107.31 C 137.80 103.67 139.42 100.31 140.88 96.88 C 142.70 93.02 139.86 88.94 139.76 84.95 L 140.09 84.13 Z" />
</g>
<g id="#ad9994fa">
<path fill="#ad9994" opacity="0.98" d=" M 176.71 85.68 C 178.37 84.77 180.13 84.06 182.01 83.77 C 184.59 83.63 184.34 89.37 183.08 90.16 C 182.14 90.44 181.20 90.70 180.26 90.95 C 179.65 88.90 179.58 85.62 176.71 85.68 Z" />
</g>
<g id="#66483aff">
<path fill="#66483a" opacity="1.00" d=" M 137.20 86.26 C 138.07 85.85 138.92 85.41 139.76 84.95 C 139.86 88.94 142.70 93.02 140.88 96.88 C 139.42 100.31 137.80 103.67 136.89 107.31 C 136.45 107.25 135.57 107.13 135.14 107.07 C 135.42 102.56 136.55 97.88 134.45 93.63 C 134.01 90.48 130.48 89.14 129.89 86.12 C 130.72 86.03 132.39 85.84 133.22 85.75 C 134.52 85.84 135.94 86.85 137.20 86.26 Z" />
</g>
<g id="#bc8f78fb">
<path fill="#bc8f78" opacity="1.00" d=" M 23.12 85.83 C 24.71 86.23 27.92 86.18 28.00 88.23 C 28.01 88.70 28.03 89.62 28.04 90.08 C 28.05 90.52 28.07 91.39 28.08 91.82 C 25.28 91.45 24.62 88.62 23.25 86.64 L 23.12 85.83 Z" />
</g>
<g id="#e7dfd8f7">
<path fill="#e7dfd8" opacity="0.97" d=" M 28.00 88.23 C 30.05 87.85 32.50 84.98 34.20 87.31 C 32.46 88.86 30.64 92.23 28.04 90.08 C 28.03 89.62 28.01 88.70 28.00 88.23 Z" />
</g>
<g id="#d2d2d2ff">
<path fill="#d2d2d2" opacity="1.00" d=" M 76.52 88.06 C 76.87 87.50 77.56 86.40 77.91 85.84 C 76.83 88.71 81.05 91.42 81.92 87.86 C 81.97 89.24 82.00 90.62 82.01 92.00 L 82.01 92.96 C 80.63 92.45 79.22 92.03 77.81 91.64 C 77.35 90.45 76.93 89.26 76.52 88.06 Z" />
</g>
<g id="#cd977dff">
<path fill="#cd977d" opacity="1.00" d=" M 86.77 89.08 C 91.70 88.04 97.18 85.32 102.26 87.07 C 100.92 88.52 99.54 89.94 98.06 91.24 C 95.17 91.73 92.16 93.44 89.32 92.20 C 88.49 91.14 87.63 90.11 86.77 89.08 Z" />
</g>
<g id="#d2bcb3ff">
<path fill="#d2bcb3" opacity="1.00" d=" M 175.84 86.09 L 176.71 85.68 C 179.58 85.62 179.65 88.90 180.26 90.95 L 179.41 91.20 C 178.27 89.46 177.08 87.76 175.84 86.09 Z" />
</g>
<g id="#9c7766ff">
<path fill="#9c7766" opacity="1.00" d=" M 20.09 88.95 C 21.16 88.20 22.20 87.41 23.25 86.64 C 24.62 88.62 25.28 91.45 28.08 91.82 C 29.07 92.11 30.06 92.39 31.06 92.68 C 26.34 94.38 21.45 96.05 16.37 95.73 C 16.02 96.00 15.31 96.53 14.96 96.80 C 14.72 96.38 14.24 95.53 14.00 95.10 C 14.46 94.82 15.39 94.25 15.85 93.97 C 18.03 93.06 19.07 90.92 20.09 88.95 Z" />
</g>
<g id="#bbb1a5fc">
<path fill="#bbb1a5" opacity="1.00" d=" M 34.20 87.31 C 36.35 86.97 33.65 92.74 31.82 92.88 L 31.06 92.68 C 30.06 92.39 29.07 92.11 28.08 91.82 C 28.07 91.39 28.05 90.52 28.04 90.08 C 30.64 92.23 32.46 88.86 34.20 87.31 Z" />
</g>
<g id="#737272ff">
<path fill="#737272" opacity="1.00" d=" M 106.35 86.82 C 106.98 87.87 106.41 92.24 108.10 90.15 C 109.39 89.06 110.67 87.95 111.97 86.87 C 112.18 90.10 109.01 91.56 106.85 93.22 C 106.08 93.08 104.55 92.78 103.79 92.63 L 104.45 92.27 C 106.79 91.62 105.73 88.60 106.35 86.82 Z" />
</g>
<g id="#b38a77ff">
<path fill="#b38a77" opacity="1.00" d=" M 15.85 93.97 C 15.66 91.35 17.50 89.24 20.09 88.95 C 19.07 90.92 18.03 93.06 15.85 93.97 Z" />
</g>
<g id="#b4b3b3ff">
<path fill="#b4b3b3" opacity="1.00" d=" M 98.80 92.36 C 100.07 91.27 101.28 90.09 102.67 89.16 C 103.26 90.19 103.86 91.23 104.45 92.27 L 103.79 92.63 C 103.34 92.76 102.45 93.01 102.01 93.13 C 101.46 93.36 100.36 93.82 99.81 94.04 C 99.56 93.62 99.05 92.78 98.80 92.36 Z" />
</g>
<g id="#b5b5b5ff">
<path fill="#b5b5b5" opacity="1.00" d=" M 83.58 92.31 C 83.58 88.17 87.12 90.96 88.17 92.93 C 86.62 92.88 85.06 92.77 83.58 92.31 Z" />
</g>
<g id="#8c6858fb">
<path fill="#8c6858" opacity="1.00" d=" M 180.26 90.95 C 181.20 90.70 182.14 90.44 183.08 90.16 C 183.23 92.81 181.56 95.01 179.92 96.90 C 177.61 99.33 173.37 98.96 171.63 101.92 L 170.91 101.99 L 170.03 102.03 C 170.04 100.53 170.06 97.51 170.07 96.01 C 173.62 98.50 176.58 93.03 179.41 91.20 L 180.26 90.95 Z" />
</g>
<g id="#a87c66ff">
<path fill="#a87c66" opacity="1.00" d=" M 89.32 92.20 C 92.16 93.44 95.17 91.73 98.06 91.24 C 98.24 91.52 98.61 92.08 98.80 92.36 C 99.05 92.78 99.56 93.62 99.81 94.04 C 96.52 94.70 93.22 95.31 89.89 95.87 C 89.38 96.09 88.35 96.53 87.84 96.75 C 80.92 100.35 78.38 108.60 78.92 115.95 C 78.42 115.95 77.42 115.96 76.92 115.96 C 76.42 108.50 78.00 100.10 84.16 95.26 C 85.18 95.01 86.19 94.71 87.19 94.37 C 87.64 94.02 88.54 93.33 88.99 92.99 L 89.32 92.20 Z" />
</g>
<g id="#e4e2e1f3">
<path fill="#e4e2e1" opacity="0.95" d=" M 9.28 98.30 C 7.74 94.78 10.71 91.23 14.40 91.72 C 14.09 93.90 10.91 94.53 10.94 97.03 C 10.53 97.35 9.70 97.99 9.28 98.30 Z" />
</g>
<g id="#83695bff">
<path fill="#83695b" opacity="1.00" d=" M 80.12 93.98 C 79.09 93.34 76.29 93.33 77.81 91.64 C 79.22 92.03 80.63 92.45 82.01 92.96 C 83.64 93.72 85.41 94.09 87.19 94.37 C 86.19 94.71 85.18 95.01 84.16 95.26 C 82.81 94.84 81.47 94.39 80.12 93.98 Z" />
</g>
<g id="#898786ff">
<path fill="#898786" opacity="1.00" d=" M 82.01 92.00 C 82.40 92.08 83.19 92.23 83.58 92.31 C 85.06 92.77 86.62 92.88 88.17 92.93 L 88.99 92.99 C 88.54 93.33 87.64 94.02 87.19 94.37 C 85.41 94.09 83.64 93.72 82.01 92.96 L 82.01 92.00 Z" />
</g>
<g id="#846152fb">
<path fill="#846152" opacity="1.00" d=" M 16.37 95.73 C 21.45 96.05 26.34 94.38 31.06 92.68 L 31.82 92.88 C 31.64 95.31 33.79 96.74 34.02 99.00 C 32.02 98.61 29.97 98.39 28.10 97.53 C 25.85 98.71 23.73 100.37 21.02 100.12 C 18.55 99.66 16.49 97.93 13.92 97.73 C 14.18 97.50 14.70 97.03 14.96 96.80 C 15.31 96.53 16.02 96.00 16.37 95.73 Z" />
</g>
<g id="#6c554aff">
<path fill="#6c554a" opacity="1.00" d=" M 102.01 93.13 C 102.45 93.01 103.34 92.76 103.79 92.63 C 104.55 92.78 106.08 93.08 106.85 93.22 C 105.88 93.67 104.90 94.10 103.92 94.51 C 102.49 95.05 100.18 95.00 102.01 93.13 Z" />
</g>
<g id="#b88c74ff">
<path fill="#b88c74" opacity="1.00" d=" M 80.12 93.98 C 81.47 94.39 82.81 94.84 84.16 95.26 C 78.00 100.10 76.42 108.50 76.92 115.96 C 75.86 116.19 74.81 116.45 73.77 116.74 C 72.23 116.24 70.79 115.47 69.82 114.13 C 71.17 114.35 72.50 114.69 73.86 114.90 C 73.90 107.40 74.67 99.61 80.12 93.98 Z" />
</g>
<g id="#ac9e9ef5">
<path fill="#ac9e9e" opacity="0.96" d=" M 10.94 97.03 C 11.95 96.37 12.96 95.71 14.00 95.10 C 14.24 95.53 14.72 96.38 14.96 96.80 C 14.70 97.03 14.18 97.50 13.92 97.73 C 13.23 99.19 8.49 99.78 9.28 98.30 C 9.70 97.99 10.53 97.35 10.94 97.03 Z" />
</g>
<g id="#332d2aff">
<path fill="#332d2a" opacity="1.00" d=" M 87.84 96.75 C 88.35 96.53 89.38 96.09 89.89 95.87 C 93.24 96.06 96.69 95.97 99.90 97.08 C 99.94 97.51 100.03 98.37 100.08 98.80 C 98.40 99.81 94.35 99.12 95.06 101.97 C 95.30 105.27 98.51 102.83 100.18 102.10 C 101.82 102.08 103.65 101.83 105.01 102.97 L 105.24 103.91 C 102.21 104.70 99.15 105.38 96.14 106.25 C 95.99 107.52 95.95 108.80 96.01 110.08 C 97.35 109.99 98.63 109.59 99.85 109.07 C 100.58 108.99 102.05 108.84 102.78 108.77 C 104.60 108.87 106.42 109.01 108.24 109.20 C 107.13 109.77 105.98 110.23 104.84 110.72 C 101.86 111.07 98.92 111.66 95.98 112.25 C 96.43 113.36 96.38 115.50 97.82 115.70 C 99.42 115.98 102.61 116.53 104.21 116.81 C 103.68 116.83 102.63 116.88 102.10 116.90 C 99.58 116.73 96.94 116.75 98.01 120.04 L 98.06 120.96 C 99.86 121.07 103.47 121.28 105.27 121.38 C 103.49 121.89 101.63 122.07 99.80 122.23 C 97.17 121.33 98.21 124.40 97.94 125.93 C 96.98 125.72 96.06 125.41 95.17 125.00 C 94.97 124.50 94.56 123.50 94.36 122.99 C 92.16 121.14 87.47 122.76 84.73 124.31 C 84.49 123.82 84.02 122.86 83.78 122.37 C 85.22 122.06 86.68 121.77 88.08 121.30 L 88.84 121.06 C 91.56 121.45 94.81 120.60 94.15 117.16 L 93.30 117.12 C 89.72 117.09 85.97 116.41 82.52 117.69 L 81.57 117.97 C 82.89 113.41 89.85 117.64 92.96 115.90 C 92.64 114.77 93.99 111.93 92.08 112.07 C 88.73 111.69 85.37 111.30 82.02 110.98 C 82.17 110.40 82.47 109.24 82.62 108.67 C 83.46 108.85 85.15 109.22 85.99 109.41 C 87.75 110.53 92.85 111.60 92.01 108.18 C 90.85 105.03 86.62 104.91 83.84 103.90 L 82.91 103.68 C 83.44 103.10 83.98 102.53 84.53 101.97 C 86.70 102.01 90.77 105.52 91.43 102.38 C 92.67 100.27 89.19 99.53 87.96 98.48 C 87.93 98.05 87.87 97.18 87.84 96.75 Z" />
</g>
<g id="#886453fb">
<path fill="#886453" opacity="1.00" d=" M 140.03 104.94 C 140.70 101.71 142.35 98.75 143.69 95.74 C 147.49 96.60 150.94 98.77 152.58 102.37 C 153.50 104.89 157.43 104.53 158.14 107.04 C 157.93 107.58 157.50 108.64 157.29 109.17 C 157.21 108.67 157.06 107.66 156.98 107.15 C 155.36 109.38 152.42 107.91 150.32 109.30 C 146.39 111.30 140.82 109.49 140.03 104.94 Z" />
</g>
<g id="#755344f6">
<path fill="#755344" opacity="0.96" d=" M 28.10 97.53 C 29.97 98.39 32.02 98.61 34.02 99.00 C 37.94 102.59 43.10 106.09 46.59 109.91 C 46.64 111.27 46.86 112.62 47.12 113.96 C 51.28 114.41 55.07 110.74 59.17 113.04 L 58.95 113.92 C 53.27 112.23 48.50 119.46 43.13 115.89 C 38.97 111.54 33.63 108.01 28.66 104.44 C 27.14 104.08 25.63 103.59 25.04 101.98 C 24.57 100.03 20.94 102.16 21.02 100.12 C 23.73 100.37 25.85 98.71 28.10 97.53 Z" />
</g>
<g id="#805c4afb">
<path fill="#805c4a" opacity="1.00" d=" M 62.36 99.73 C 62.52 98.41 64.91 98.01 65.88 96.98 C 65.85 97.43 65.77 98.33 65.74 98.77 C 65.07 104.28 65.40 110.01 63.30 115.25 C 63.06 115.00 62.57 114.51 62.32 114.26 C 62.76 109.45 63.74 104.44 62.36 99.73 Z" />
</g>
<g id="#926d5bff">
<path fill="#926d5b" opacity="1.00" d=" M 78.92 115.95 C 78.38 108.60 80.92 100.35 87.84 96.75 C 87.87 97.18 87.93 98.05 87.96 98.48 C 86.54 99.34 85.58 100.71 84.53 101.97 C 83.98 102.53 83.44 103.10 82.91 103.68 C 80.83 107.26 81.54 111.86 80.83 115.89 C 80.35 115.90 79.40 115.93 78.92 115.95 Z" />
</g>
<g id="#6a4c3ef8">
<path fill="#6a4c3e" opacity="0.97" d=" M 171.63 101.92 C 173.37 98.96 177.61 99.33 179.92 96.90 C 179.78 99.21 179.70 103.82 178.22 104.66 C 176.55 103.87 174.67 104.11 172.90 104.12 C 172.58 103.57 171.95 102.47 171.63 101.92 Z" />
</g>
<g id="#67493af8">
<path fill="#67493a" opacity="0.97" d=" M 63.30 115.25 C 65.40 110.01 65.07 104.28 65.74 98.77 C 65.00 105.29 68.50 110.82 69.20 116.98 C 67.48 116.68 63.62 116.79 63.30 115.25 Z" />
</g>
<g id="#918178ff">
<path fill="#918178" opacity="1.00" d=" M 84.53 101.97 C 85.58 100.71 86.54 99.34 87.96 98.48 C 89.19 99.53 92.67 100.27 91.43 102.38 C 90.77 105.52 86.70 102.01 84.53 101.97 Z" />
</g>
<g id="#98887fff">
<path fill="#98887f" opacity="1.00" d=" M 95.06 101.97 C 94.35 99.12 98.40 99.81 100.08 98.80 C 103.18 98.46 100.85 100.71 100.18 102.10 C 98.51 102.83 95.30 105.27 95.06 101.97 Z" />
</g>
<g id="#b2866ef9">
<path fill="#b2866e" opacity="0.98" d=" M 56.08 107.10 C 59.27 105.75 59.25 100.97 62.36 99.73 C 60.65 104.06 61.51 108.87 60.31 113.31 L 59.17 113.04 C 55.07 110.74 51.28 114.41 47.12 113.96 C 46.86 112.62 46.64 111.27 46.59 109.91 C 50.06 110.42 53.06 108.51 56.08 107.10 Z" />
</g>
<g id="#946e59fb">
<path fill="#946e59" opacity="1.00" d=" M 62.36 99.73 C 63.74 104.44 62.76 109.45 62.32 114.26 C 61.82 114.02 60.82 113.55 60.31 113.31 C 61.51 108.87 60.65 104.06 62.36 99.73 Z" />
</g>
<g id="#a77d68fb">
<path fill="#a77d68" opacity="1.00" d=" M 170.91 101.99 L 171.63 101.92 C 171.95 102.47 172.58 103.57 172.90 104.12 C 172.90 106.89 172.91 112.43 172.92 115.20 C 168.40 112.35 163.08 111.02 157.72 111.76 C 157.54 110.90 157.40 110.04 157.29 109.17 C 157.50 108.64 157.93 107.58 158.14 107.04 C 162.57 106.57 166.35 110.12 170.95 109.03 C 170.94 107.27 170.92 103.75 170.91 101.99 Z" />
</g>
<g id="#77594aff">
<path fill="#77594a" opacity="1.00" d=" M 105.01 102.97 C 110.96 105.70 110.68 116.06 118.21 115.33 C 115.53 115.70 112.84 115.92 110.15 115.94 C 109.59 115.30 109.03 114.67 108.47 114.05 C 108.34 113.54 108.08 112.53 107.95 112.02 C 107.44 110.98 106.40 110.55 104.84 110.72 C 105.98 110.23 107.13 109.77 108.24 109.20 C 106.42 109.01 104.60 108.87 102.78 108.77 C 105.06 108.43 106.80 107.34 105.50 104.89 L 105.24 103.91 L 105.01 102.97 Z" />
</g>
<g id="#705a4fff">
<path fill="#705a4f" opacity="1.00" d=" M 80.83 115.89 C 81.54 111.86 80.83 107.26 82.91 103.68 L 83.84 103.90 C 83.38 105.48 82.99 107.07 82.62 108.67 C 82.47 109.24 82.17 110.40 82.02 110.98 C 80.72 116.84 88.16 114.89 91.85 114.92 C 91.91 114.21 92.02 112.78 92.08 112.07 C 93.99 111.93 92.64 114.77 92.96 115.90 C 89.85 117.64 82.89 113.41 81.57 117.97 L 80.69 118.04 C 80.21 118.06 79.25 118.09 78.77 118.11 C 77.38 117.84 76.00 117.49 74.65 117.08 L 73.77 116.74 C 74.81 116.45 75.86 116.19 76.92 115.96 C 77.42 115.96 78.42 115.95 78.92 115.95 C 79.40 115.93 80.35 115.90 80.83 115.89 Z" />
</g>
<g id="#97867cff">
<path fill="#97867c" opacity="1.00" d=" M 83.84 103.90 C 86.62 104.91 90.85 105.03 92.01 108.18 C 90.00 108.57 87.98 108.94 85.99 109.41 C 85.15 109.22 83.46 108.85 82.62 108.67 C 82.99 107.07 83.38 105.48 83.84 103.90 Z" />
</g>
<g id="#9e8e84ff">
<path fill="#9e8e84" opacity="1.00" d=" M 96.14 106.25 C 99.15 105.38 102.21 104.70 105.24 103.91 L 105.50 104.89 C 103.74 106.49 100.46 106.46 99.85 109.07 C 98.63 109.59 97.35 109.99 96.01 110.08 C 95.95 108.80 95.99 107.52 96.14 106.25 Z" />
</g>
<g id="#866252fb">
<path fill="#866252" opacity="1.00" d=" M 172.90 104.12 C 174.67 104.11 176.55 103.87 178.22 104.66 C 178.11 108.03 178.23 111.43 177.82 114.78 C 174.63 118.60 168.74 114.42 165.01 114.02 C 163.62 111.90 158.44 114.55 157.72 111.76 C 163.08 111.02 168.40 112.35 172.92 115.20 C 172.91 112.43 172.90 106.89 172.90 104.12 Z" />
</g>
<g id="#807067ff">
<path fill="#807067" opacity="1.00" d=" M 105.50 104.89 C 106.80 107.34 105.06 108.43 102.78 108.77 C 102.05 108.84 100.58 108.99 99.85 109.07 C 100.46 106.46 103.74 106.49 105.50 104.89 Z" />
</g>
<g id="#573e33ff">
<path fill="#573e33" opacity="1.00" d=" M 135.14 107.07 C 135.57 107.13 136.45 107.25 136.89 107.31 L 137.20 107.95 C 137.86 110.50 140.59 112.33 140.82 114.91 C 139.64 116.58 139.68 120.06 137.14 119.95 C 136.09 116.71 135.58 113.34 134.80 110.04 C 134.06 110.57 133.34 111.12 132.64 111.70 C 131.36 112.37 130.09 113.05 128.84 113.79 C 124.08 115.70 119.00 116.94 113.86 117.06 C 112.18 117.16 110.53 117.53 108.88 117.82 L 108.87 116.95 C 109.19 116.70 109.83 116.19 110.15 115.94 C 112.84 115.92 115.53 115.70 118.21 115.33 C 121.16 114.84 124.14 114.20 126.90 113.00 C 128.69 112.16 130.59 111.44 132.11 110.16 C 133.22 109.24 134.20 108.17 135.14 107.07 Z" />
</g>
<g id="#6a5d56ff">
<path fill="#6a5d56" opacity="1.00" d=" M 85.99 109.41 C 87.98 108.94 90.00 108.57 92.01 108.18 C 92.85 111.60 87.75 110.53 85.99 109.41 Z" />
</g>
<g id="#624538fc">
<path fill="#624538" opacity="1.00" d=" M 137.20 107.95 C 139.73 110.38 142.77 112.27 144.98 115.04 C 141.83 117.13 142.84 122.68 141.36 126.29 C 141.33 127.85 139.94 129.74 140.82 131.12 C 141.51 132.08 142.47 132.87 142.90 133.99 C 141.37 139.84 137.16 144.47 135.07 150.08 C 134.30 152.49 137.04 153.36 138.92 153.03 C 143.91 153.13 148.89 152.61 153.82 151.84 C 153.90 151.13 154.05 149.72 154.13 149.02 C 156.07 148.70 154.61 151.85 154.97 152.99 C 152.74 153.67 150.44 154.01 148.12 154.07 C 144.76 154.04 141.45 154.29 138.19 155.06 C 136.07 155.04 133.96 155.03 131.85 155.03 L 130.91 154.99 L 130.91 154.03 C 131.51 146.26 139.71 140.88 140.00 132.84 C 136.77 135.71 134.30 139.55 130.21 141.34 C 131.65 136.80 133.69 132.46 134.88 127.84 C 132.11 128.22 129.64 129.59 127.09 130.62 C 124.39 131.53 121.57 131.98 118.85 132.76 C 114.56 132.93 110.27 132.96 105.97 133.00 C 101.58 132.98 97.19 133.09 92.80 133.19 L 91.92 133.01 L 92.00 131.97 C 92.80 131.94 94.40 131.87 95.20 131.84 C 106.46 132.04 118.44 132.93 129.00 128.22 C 131.10 127.50 133.28 126.67 134.71 124.87 C 134.36 120.42 133.20 116.11 132.64 111.70 C 133.34 111.12 134.06 110.57 134.80 110.04 C 135.58 113.34 136.09 116.71 137.14 119.95 C 139.68 120.06 139.64 116.58 140.82 114.91 C 140.59 112.33 137.86 110.50 137.20 107.95 Z" />
</g>
<g id="#98877dff">
<path fill="#98877d" opacity="1.00" d=" M 82.02 110.98 C 85.37 111.30 88.73 111.69 92.08 112.07 C 92.02 112.78 91.91 114.21 91.85 114.92 C 88.16 114.89 80.72 116.84 82.02 110.98 Z" />
</g>
<g id="#a18f85ff">
<path fill="#a18f85" opacity="1.00" d=" M 95.98 112.25 C 98.92 111.66 101.86 111.07 104.84 110.72 C 106.40 110.55 107.44 110.98 107.95 112.02 C 105.50 112.90 101.29 111.64 100.74 114.94 C 99.76 115.17 98.79 115.43 97.82 115.70 C 96.38 115.50 96.43 113.36 95.98 112.25 Z" />
</g>
<g id="#86766eff">
<path fill="#86766e" opacity="1.00" d=" M 100.74 114.94 C 101.29 111.64 105.50 112.90 107.95 112.02 C 108.08 112.53 108.34 113.54 108.47 114.05 C 105.90 114.44 103.32 114.74 100.74 114.94 Z" />
</g>
<g id="#765445ff">
<path fill="#765445" opacity="1.00" d=" M 128.84 113.79 C 130.09 113.05 131.36 112.37 132.64 111.70 C 133.20 116.11 134.36 120.42 134.71 124.87 C 133.28 126.67 131.10 127.50 129.00 128.22 C 127.08 123.62 129.68 118.61 128.84 113.79 Z" />
</g>
<g id="#60534bff">
<path fill="#60534b" opacity="1.00" d=" M 108.47 114.05 C 109.03 114.67 109.59 115.30 110.15 115.94 C 109.83 116.19 109.19 116.70 108.87 116.95 C 107.32 116.94 105.76 116.89 104.21 116.81 C 102.61 116.53 99.42 115.98 97.82 115.70 C 98.79 115.43 99.76 115.17 100.74 114.94 C 103.32 114.74 105.90 114.44 108.47 114.05 Z" />
</g>
<g id="#826051ff">
<path fill="#826051" opacity="1.00" d=" M 113.86 117.06 C 119.00 116.94 124.08 115.70 128.84 113.79 C 129.68 118.61 127.08 123.62 129.00 128.22 C 118.44 132.93 106.46 132.04 95.20 131.84 C 93.08 131.34 90.97 130.82 88.88 130.28 C 94.95 129.59 101.38 130.96 107.27 129.03 C 109.09 128.70 111.79 129.84 112.69 127.67 C 112.97 124.12 113.36 120.58 113.86 117.06 Z" />
</g>
<g id="#b58d76ff">
<path fill="#b58d76" opacity="1.00" d=" M 74.65 117.08 C 76.00 117.49 77.38 117.84 78.77 118.11 C 77.95 122.64 81.23 126.56 82.06 130.86 C 80.30 131.06 78.53 131.17 76.77 131.29 C 74.99 130.97 77.80 129.67 77.98 128.87 C 77.08 124.88 75.22 121.16 74.65 117.08 Z" />
</g>
<g id="#917f75ff">
<path fill="#917f75" opacity="1.00" d=" M 82.52 117.69 C 85.97 116.41 89.72 117.09 93.30 117.12 C 92.26 118.89 90.20 119.58 88.84 121.06 L 88.08 121.30 C 85.37 121.49 83.43 120.23 82.52 117.69 Z" />
</g>
<g id="#6e625cff">
<path fill="#6e625c" opacity="1.00" d=" M 93.30 117.12 L 94.15 117.16 C 94.81 120.60 91.56 121.45 88.84 121.06 C 90.20 119.58 92.26 118.89 93.30 117.12 Z" />
</g>
<g id="#ab9a8eff">
<path fill="#ab9a8e" opacity="1.00" d=" M 98.01 120.04 C 96.94 116.75 99.58 116.73 102.10 116.90 C 101.64 117.84 101.20 118.79 100.77 119.74 C 100.08 119.82 98.70 119.96 98.01 120.04 Z" />
</g>
<g id="#958278ff">
<path fill="#958278" opacity="1.00" d=" M 102.10 116.90 C 102.63 116.88 103.68 116.83 104.21 116.81 C 105.76 116.89 107.32 116.94 108.87 116.95 L 108.88 117.82 C 108.68 118.11 108.27 118.70 108.06 119.00 C 105.63 119.22 103.20 119.47 100.77 119.74 C 101.20 118.79 101.64 117.84 102.10 116.90 Z" />
</g>
<g id="#705548ff">
<path fill="#705548" opacity="1.00" d=" M 108.88 117.82 C 110.53 117.53 112.18 117.16 113.86 117.06 C 113.36 120.58 112.97 124.12 112.69 127.67 C 111.79 129.84 109.09 128.70 107.27 129.03 C 106.48 128.48 105.68 127.94 104.87 127.41 C 107.56 127.57 109.89 122.68 106.19 123.04 C 104.59 122.84 101.39 122.43 99.80 122.23 C 101.63 122.07 103.49 121.89 105.27 121.38 C 106.71 121.13 108.22 120.82 108.06 119.00 C 108.27 118.70 108.68 118.11 108.88 117.82 Z" />
</g>
<g id="#9b7764ff">
<path fill="#9b7764" opacity="1.00" d=" M 78.77 118.11 C 79.25 118.09 80.21 118.06 80.69 118.04 C 81.79 122.77 82.63 130.79 88.88 130.28 C 90.97 130.82 93.08 131.34 95.20 131.84 C 94.40 131.87 92.80 131.94 92.00 131.97 C 88.27 131.99 84.56 132.26 80.87 132.78 C 79.50 132.31 78.12 131.84 76.77 131.29 C 78.53 131.17 80.30 131.06 82.06 130.86 C 81.23 126.56 77.95 122.64 78.77 118.11 Z" />
</g>
<g id="#8c6a58ff">
<path fill="#8c6a58" opacity="1.00" d=" M 80.69 118.04 L 81.57 117.97 C 82.27 119.45 83.00 120.93 83.78 122.37 C 84.02 122.86 84.49 123.82 84.73 124.31 L 84.97 125.16 C 85.03 126.95 86.37 128.23 87.89 128.95 C 88.14 129.29 88.63 129.95 88.88 130.28 C 82.63 130.79 81.79 122.77 80.69 118.04 Z" />
</g>
<g id="#705a4eff">
<path fill="#705a4e" opacity="1.00" d=" M 81.57 117.97 L 82.52 117.69 C 83.43 120.23 85.37 121.49 88.08 121.30 C 86.68 121.77 85.22 122.06 83.78 122.37 C 83.00 120.93 82.27 119.45 81.57 117.97 Z" />
</g>
<g id="#7f6f67ff">
<path fill="#7f6f67" opacity="1.00" d=" M 100.77 119.74 C 103.20 119.47 105.63 119.22 108.06 119.00 C 108.22 120.82 106.71 121.13 105.27 121.38 C 103.47 121.28 99.86 121.07 98.06 120.96 L 98.01 120.04 C 98.70 119.96 100.08 119.82 100.77 119.74 Z" />
</g>
<g id="#9d8a80ff">
<path fill="#9d8a80" opacity="1.00" d=" M 84.73 124.31 C 87.47 122.76 92.16 121.14 94.36 122.99 C 92.18 124.69 89.46 125.20 86.87 125.95 C 86.40 125.75 85.44 125.36 84.97 125.16 L 84.73 124.31 Z" />
</g>
<g id="#a6958bff">
<path fill="#a6958b" opacity="1.00" d=" M 97.94 125.93 C 98.21 124.40 97.17 121.33 99.80 122.23 C 101.39 122.43 104.59 122.84 106.19 123.04 C 104.51 123.85 102.85 124.74 101.53 126.10 C 100.33 126.07 99.14 126.02 97.94 125.93 Z" />
</g>
<g id="#83746cff">
<path fill="#83746c" opacity="1.00" d=" M 94.36 122.99 C 94.56 123.50 94.97 124.50 95.17 125.00 C 93.10 125.78 91.02 126.54 88.95 127.32 C 88.43 126.98 87.39 126.29 86.87 125.95 C 89.46 125.20 92.18 124.69 94.36 122.99 Z" />
</g>
<g id="#8c7c75ff">
<path fill="#8c7c75" opacity="1.00" d=" M 106.19 123.04 C 109.89 122.68 107.56 127.57 104.87 127.41 C 103.75 127.00 102.64 126.56 101.53 126.10 C 102.85 124.74 104.51 123.85 106.19 123.04 Z" />
</g>
<g id="#6b574eff">
<path fill="#6b574e" opacity="1.00" d=" M 84.97 125.16 C 85.44 125.36 86.40 125.75 86.87 125.95 C 87.39 126.29 88.43 126.98 88.95 127.32 C 88.68 127.73 88.15 128.55 87.89 128.95 C 86.37 128.23 85.03 126.95 84.97 125.16 Z" />
</g>
<g id="#453f3bff">
<path fill="#453f3b" opacity="1.00" d=" M 88.95 127.32 C 91.02 126.54 93.10 125.78 95.17 125.00 C 96.06 125.41 96.98 125.72 97.94 125.93 C 99.14 126.02 100.33 126.07 101.53 126.10 C 102.64 126.56 103.75 127.00 104.87 127.41 C 105.68 127.94 106.48 128.48 107.27 129.03 C 101.38 130.96 94.95 129.59 88.88 130.28 C 88.63 129.95 88.14 129.29 87.89 128.95 C 88.15 128.55 88.68 127.73 88.95 127.32 Z" />
</g>
<g id="#755242ff">
<path fill="#755242" opacity="1.00" d=" M 127.09 130.62 C 129.64 129.59 132.11 128.22 134.88 127.84 C 133.69 132.46 131.65 136.80 130.21 141.34 C 128.53 142.30 126.73 143.01 124.90 143.62 C 123.90 143.70 122.91 143.79 121.91 143.86 C 124.42 139.73 129.92 136.22 127.09 130.62 Z" />
</g>
<g id="#634536fc">
<path fill="#634536" opacity="1.00" d=" M 71.32 130.67 C 71.42 129.79 72.31 129.58 74.00 130.03 C 74.58 131.88 75.30 133.69 75.90 135.55 C 74.29 139.82 77.86 144.38 76.98 148.84 C 75.68 149.64 74.24 150.19 72.85 150.80 L 72.07 150.93 C 71.04 150.56 70.00 150.23 68.95 149.92 L 67.96 149.63 C 70.49 149.47 73.27 149.52 73.69 146.66 C 73.45 141.27 72.48 135.92 71.32 130.67 Z" />
</g>
<g id="#a27760fd">
<path fill="#a27760" opacity="1.00" d=" M 65.05 135.94 C 65.90 133.37 68.81 131.60 71.32 130.67 C 67.10 134.61 69.85 141.03 69.88 145.96 C 69.98 148.89 65.96 147.83 64.04 147.42 C 64.84 143.65 65.18 139.82 65.05 135.94 Z" />
</g>
<g id="#815d4afe">
<path fill="#815d4a" opacity="1.00" d=" M 71.32 130.67 C 72.48 135.92 73.45 141.27 73.69 146.66 C 73.27 149.52 70.49 149.47 67.96 149.63 C 66.68 149.38 65.40 149.16 64.11 148.99 C 62.10 148.72 60.12 148.27 58.14 147.85 L 57.91 146.93 C 59.96 147.01 62.00 147.17 64.04 147.42 C 65.96 147.83 69.98 148.89 69.88 145.96 C 69.85 141.03 67.10 134.61 71.32 130.67 Z" />
</g>
<g id="#825e4eff">
<path fill="#825e4e" opacity="1.00" d=" M 118.85 132.76 C 121.57 131.98 124.39 131.53 127.09 130.62 C 129.92 136.22 124.42 139.73 121.91 143.86 C 120.22 144.00 118.53 144.04 116.84 144.10 C 115.93 140.19 119.93 136.85 118.85 132.76 Z" />
</g>
<g id="#805946fd">
<path fill="#805946" opacity="1.00" d=" M 140.82 131.12 C 143.28 130.54 147.47 132.56 147.56 134.75 C 145.33 137.29 145.24 141.34 142.01 143.00 C 138.45 144.85 139.76 149.88 138.92 153.03 C 137.04 153.36 134.30 152.49 135.07 150.08 C 137.16 144.47 141.37 139.84 142.90 133.99 C 142.47 132.87 141.51 132.08 140.82 131.12 Z" />
</g>
<g id="#6c564cff">
<path fill="#6c564c" opacity="1.00" d=" M 80.87 132.78 C 84.56 132.26 88.27 131.99 92.00 131.97 L 91.92 133.01 C 90.24 133.01 88.55 133.05 86.87 133.06 C 85.54 133.03 84.21 133.00 82.88 132.95 C 82.38 132.91 81.37 132.83 80.87 132.78 Z" />
</g>
<g id="#bc927aff">
<path fill="#bc927a" opacity="1.00" d=" M 80.87 132.78 C 81.37 132.83 82.38 132.91 82.88 132.95 C 86.13 135.17 87.22 139.72 85.77 143.29 C 83.69 142.79 81.70 141.98 79.70 141.24 C 78.53 140.02 77.41 138.73 76.75 137.16 C 78.12 137.60 79.51 137.96 80.95 138.09 C 81.02 136.32 80.95 134.55 80.87 132.78 Z" />
</g>
<g id="#b08874ff">
<path fill="#b08874" opacity="1.00" d=" M 82.88 132.95 C 84.21 133.00 85.54 133.03 86.87 133.06 C 91.71 134.90 90.49 139.98 91.91 144.00 C 90.38 143.82 87.31 143.46 85.77 143.29 C 87.22 139.72 86.13 135.17 82.88 132.95 Z" />
</g>
<g id="#a47e6cff">
<path fill="#a47e6c" opacity="1.00" d=" M 86.87 133.06 C 88.55 133.05 90.24 133.01 91.92 133.01 L 92.80 133.19 C 94.70 133.87 97.23 133.87 97.73 136.28 C 98.02 138.87 96.19 141.61 97.94 144.02 C 96.62 144.04 95.29 144.06 93.97 144.09 C 93.46 144.07 92.43 144.02 91.91 144.00 C 90.49 139.98 91.71 134.90 86.87 133.06 Z" />
</g>
<g id="#9a7564ff">
<path fill="#9a7564" opacity="1.00" d=" M 92.80 133.19 C 97.19 133.09 101.58 132.98 105.97 133.00 C 106.68 134.31 107.42 135.62 107.95 137.01 C 107.29 139.42 103.97 141.45 105.94 144.01 C 103.27 144.02 100.61 144.02 97.94 144.02 C 96.19 141.61 98.02 138.87 97.73 136.28 C 97.23 133.87 94.70 133.87 92.80 133.19 Z" />
</g>
<g id="#8f6a5aff">
<path fill="#8f6a5a" opacity="1.00" d=" M 105.97 133.00 C 110.27 132.96 114.56 132.93 118.85 132.76 C 119.93 136.85 115.93 140.19 116.84 144.10 C 116.44 144.14 115.64 144.24 115.23 144.28 C 112.13 144.18 109.04 144.07 105.94 144.01 C 103.97 141.45 107.29 139.42 107.95 137.01 C 107.42 135.62 106.68 134.31 105.97 133.00 Z" />
</g>
<g id="#54382af9">
<path fill="#54382a" opacity="0.98" d=" M 130.21 141.34 C 134.30 139.55 136.77 135.71 140.00 132.84 C 139.71 140.88 131.51 146.26 130.91 154.03 C 129.48 153.80 129.90 151.84 129.33 150.84 C 130.11 148.31 131.11 145.80 131.06 143.11 C 129.03 143.50 126.97 143.96 124.90 143.62 C 126.73 143.01 128.53 142.30 130.21 141.34 Z" />
</g>
<g id="#8f6a57fe">
<path fill="#8f6a57" opacity="1.00" d=" M 142.01 143.00 C 145.24 141.34 145.33 137.29 147.56 134.75 C 150.77 138.85 153.49 143.78 154.13 149.02 C 154.05 149.72 153.90 151.13 153.82 151.84 C 148.89 152.61 143.91 153.13 138.92 153.03 C 139.76 149.88 138.45 144.85 142.01 143.00 Z" />
</g>
<g id="#b98d73fb">
<path fill="#b98d73" opacity="1.00" d=" M 61.96 139.90 C 61.98 138.06 63.48 136.64 65.05 135.94 C 65.18 139.82 64.84 143.65 64.04 147.42 C 62.00 147.17 59.96 147.01 57.91 146.93 C 58.17 146.69 58.69 146.21 58.95 145.97 C 60.69 144.43 61.60 142.15 61.96 139.90 Z" />
</g>
<g id="#472f24fd">
<path fill="#472f24" opacity="1.00" d=" M 76.98 148.84 C 77.86 144.38 74.29 139.82 75.90 135.55 C 76.11 135.95 76.54 136.76 76.75 137.16 C 77.41 138.73 78.53 140.02 79.70 141.24 C 80.29 142.49 80.87 143.75 81.54 144.97 C 82.55 146.94 83.80 148.76 84.94 150.66 C 84.26 152.16 83.68 153.71 82.85 155.14 C 79.72 155.51 77.73 152.99 75.12 151.87 C 74.55 151.60 73.42 151.07 72.85 150.80 C 74.24 150.19 75.68 149.64 76.98 148.84 Z" />
</g>
<g id="#cca184e9">
<path fill="#cca184" opacity="0.91" d=" M 58.95 145.97 C 58.93 143.67 59.76 140.98 61.96 139.90 C 61.60 142.15 60.69 144.43 58.95 145.97 Z" />
</g>
<g id="#8b6c5bff">
<path fill="#8b6c5b" opacity="1.00" d=" M 79.70 141.24 C 81.70 141.98 83.69 142.79 85.77 143.29 C 87.31 143.46 90.38 143.82 91.91 144.00 C 92.43 144.02 93.46 144.07 93.97 144.09 C 93.97 144.57 93.98 145.53 93.99 146.00 C 89.80 146.42 85.45 143.22 81.54 144.97 C 80.87 143.75 80.29 142.49 79.70 141.24 Z" />
</g>
<g id="#634539fd">
<path fill="#634539" opacity="1.00" d=" M 121.91 143.86 C 122.91 143.79 123.90 143.70 124.90 143.62 C 126.97 143.96 129.03 143.50 131.06 143.11 C 131.11 145.80 130.11 148.31 129.33 150.84 C 127.34 152.88 124.83 155.24 122.10 156.03 C 116.66 156.03 111.22 155.93 105.79 156.12 C 104.12 155.99 102.45 155.85 100.78 155.74 C 105.44 155.03 110.15 155.09 114.84 154.94 C 118.52 154.63 124.47 154.83 125.11 150.03 C 125.46 147.28 128.43 141.51 121.24 145.15 C 120.89 145.32 120.20 145.64 119.86 145.81 C 116.57 145.92 113.31 146.02 110.03 145.95 L 108.89 145.89 C 111.01 145.38 113.12 144.84 115.23 144.28 C 115.64 144.24 116.44 144.14 116.84 144.10 C 118.53 144.04 120.22 144.00 121.91 143.86 Z" />
</g>
<g id="#a57e69ff">
<path fill="#a57e69" opacity="1.00" d=" M 81.54 144.97 C 85.45 143.22 89.80 146.42 93.99 146.00 C 95.62 146.04 97.25 146.01 98.88 146.00 C 98.22 148.65 97.46 151.59 98.95 154.06 C 95.94 154.05 92.95 154.05 89.95 154.01 C 88.03 153.30 86.38 152.08 84.94 150.66 C 83.80 148.76 82.55 146.94 81.54 144.97 Z" />
</g>
<g id="#765a4eff">
<path fill="#765a4e" opacity="1.00" d=" M 93.97 144.09 C 95.29 144.06 96.62 144.04 97.94 144.02 C 100.61 144.02 103.27 144.02 105.94 144.01 C 109.04 144.07 112.13 144.18 115.23 144.28 C 113.12 144.84 111.01 145.38 108.89 145.89 C 105.55 145.94 102.22 145.96 98.88 146.00 C 97.25 146.01 95.62 146.04 93.99 146.00 C 93.98 145.53 93.97 144.57 93.97 144.09 Z" />
</g>
<g id="#755243ff">
<path fill="#755243" opacity="1.00" d=" M 119.86 145.81 C 120.20 145.64 120.89 145.32 121.24 145.15 C 128.43 141.51 125.46 147.28 125.11 150.03 C 124.47 154.83 118.52 154.63 114.84 154.94 C 117.63 152.72 120.26 149.62 119.86 145.81 Z" />
</g>
<g id="#946e5eff">
<path fill="#946e5e" opacity="1.00" d=" M 98.88 146.00 C 102.22 145.96 105.55 145.94 108.89 145.89 L 110.03 145.95 C 109.26 148.37 108.21 150.66 106.87 152.80 C 105.09 155.27 101.58 153.72 98.95 154.06 C 97.46 151.59 98.22 148.65 98.88 146.00 Z" />
</g>
<g id="#846050fe">
<path fill="#846050" opacity="1.00" d=" M 110.03 145.95 C 113.31 146.02 116.57 145.92 119.86 145.81 C 120.26 149.62 117.63 152.72 114.84 154.94 C 110.15 155.09 105.44 155.03 100.78 155.74 C 98.16 155.86 95.54 155.97 92.92 156.05 C 91.38 156.41 90.44 155.31 89.95 154.01 C 92.95 154.05 95.94 154.05 98.95 154.06 C 101.58 153.72 105.09 155.27 106.87 152.80 C 108.21 150.66 109.26 148.37 110.03 145.95 Z" />
</g>
<g id="#b68a72fe">
<path fill="#b68a72" opacity="1.00" d=" M 58.14 147.85 C 60.12 148.27 62.10 148.72 64.11 148.99 C 66.69 154.61 62.21 159.01 59.19 163.10 C 58.80 162.16 58.54 161.20 58.40 160.22 C 58.70 156.42 59.49 152.38 58.33 148.64 L 58.14 147.85 Z" />
</g>
<g id="#45382b85">
<path fill="#45382b" opacity="0.52" d=" M 57.16 149.00 L 58.33 148.64 C 58.18 151.76 58.02 154.90 58.00 158.04 C 54.73 157.85 57.67 151.45 57.16 149.00 Z" />
</g>
<g id="#f0ba99ff">
<path fill="#f0ba99" opacity="1.00" d=" M 58.33 148.64 C 59.49 152.38 58.70 156.42 58.40 160.22 C 58.30 159.67 58.10 158.58 58.00 158.04 C 58.02 154.90 58.18 151.76 58.33 148.64 Z" />
</g>
<g id="#a07763fe">
<path fill="#a07763" opacity="1.00" d=" M 64.11 148.99 C 65.40 149.16 66.68 149.38 67.96 149.63 L 68.95 149.92 C 68.66 153.74 69.04 158.90 65.38 161.40 C 63.37 162.69 62.39 164.87 61.78 167.10 C 61.39 166.76 60.61 166.08 60.22 165.75 C 59.77 164.90 59.42 164.02 59.19 163.10 C 62.21 159.01 66.69 154.61 64.11 148.99 Z" />
</g>
<g id="#856353ff">
<path fill="#856353" opacity="1.00" d=" M 68.95 149.92 C 70.00 150.23 71.04 150.56 72.07 150.93 C 71.99 153.96 72.15 157.09 70.94 159.94 C 69.43 164.45 63.93 166.54 63.58 171.56 C 63.22 171.72 62.51 172.03 62.15 172.19 C 62.04 170.49 61.93 168.79 61.78 167.10 C 62.39 164.87 63.37 162.69 65.38 161.40 C 69.04 158.90 68.66 153.74 68.95 149.92 Z" />
</g>
<g id="#6c4e41fb">
<path fill="#6c4e41" opacity="1.00" d=" M 72.07 150.93 L 72.85 150.80 C 73.42 151.07 74.55 151.60 75.12 151.87 C 75.09 157.20 76.20 163.38 70.96 166.49 C 68.99 167.31 67.83 169.10 66.74 170.84 C 65.45 173.02 63.06 173.35 60.74 172.82 C 61.09 172.66 61.80 172.35 62.15 172.19 C 62.51 172.03 63.22 171.72 63.58 171.56 C 63.93 166.54 69.43 164.45 70.94 159.94 C 72.15 157.09 71.99 153.96 72.07 150.93 Z" />
</g>
<g id="#5d4034fc">
<path fill="#5d4034" opacity="1.00" d=" M 75.12 151.87 C 77.73 152.99 79.72 155.51 82.85 155.14 C 82.65 156.34 83.93 160.29 82.32 159.70 C 82.01 159.55 81.38 159.26 81.06 159.12 C 79.78 163.22 78.91 167.66 75.94 170.95 L 75.13 170.99 C 74.24 169.08 73.07 167.21 70.96 166.49 C 76.20 163.38 75.09 157.20 75.12 151.87 Z" />
</g>
<g id="#7d5b4cfc">
<path fill="#7d5b4c" opacity="1.00" d=" M 148.12 154.07 C 150.44 154.01 152.74 153.67 154.97 152.99 C 155.84 157.28 154.24 161.20 152.74 165.07 C 152.47 164.61 151.93 163.69 151.66 163.22 C 147.81 163.83 144.43 166.44 140.72 167.72 L 139.90 167.94 C 138.86 168.19 137.84 168.49 136.83 168.85 C 136.00 168.09 135.51 166.40 136.67 165.70 C 138.80 163.32 142.65 164.19 144.79 161.79 C 147.13 159.92 148.20 157.01 148.12 154.07 Z" />
</g>
<g id="#926d5afd">
<path fill="#926d5a" opacity="1.00" d=" M 138.19 155.06 C 141.45 154.29 144.76 154.04 148.12 154.07 C 148.20 157.01 147.13 159.92 144.79 161.79 C 142.65 164.19 138.80 163.32 136.67 165.70 C 135.51 166.40 136.00 168.09 136.83 168.85 C 136.69 169.46 136.42 170.68 136.28 171.29 C 131.99 172.22 133.18 167.68 131.88 165.09 C 130.76 161.86 131.06 158.35 130.91 154.99 L 131.85 155.03 C 131.81 157.18 132.92 159.32 135.00 160.10 C 137.07 159.33 138.14 157.18 138.19 155.06 Z" />
</g>
<g id="#886350ff">
<path fill="#886350" opacity="1.00" d=" M 131.85 155.03 C 133.96 155.03 136.07 155.04 138.19 155.06 C 138.14 157.18 137.07 159.33 135.00 160.10 C 132.92 159.32 131.81 157.18 131.85 155.03 Z" />
</g>
<g id="#8e6a58f3">
<path fill="#8e6a58" opacity="0.95" d=" M 92.92 156.05 C 95.54 155.97 98.16 155.86 100.78 155.74 C 102.45 155.85 104.12 155.99 105.79 156.12 C 107.78 159.53 111.75 158.98 115.20 159.49 C 112.40 162.84 106.87 160.26 103.29 160.64 C 99.84 159.37 95.02 159.45 92.92 156.05 Z" />
</g>
<g id="#815d4bfb">
<path fill="#815d4b" opacity="1.00" d=" M 105.79 156.12 C 111.22 155.93 116.66 156.03 122.10 156.03 C 120.88 158.45 117.66 159.16 115.20 159.49 C 111.75 158.98 107.78 159.53 105.79 156.12 Z" />
</g>
<g id="#6c5144f2">
<path fill="#6c5144" opacity="0.95" d=" M 81.06 159.12 C 81.38 159.26 82.01 159.55 82.32 159.70 C 82.15 161.83 81.59 163.89 81.00 165.94 C 80.71 167.36 79.91 168.85 80.67 170.27 C 81.02 171.99 77.21 170.58 75.94 170.95 C 78.91 167.66 79.78 163.22 81.06 159.12 Z" />
</g>
<g id="#6b4e41fb">
<path fill="#6b4e41" opacity="1.00" d=" M 140.72 167.72 C 144.43 166.44 147.81 163.83 151.66 163.22 C 151.93 163.69 152.47 164.61 152.74 165.07 C 152.52 165.50 152.07 166.34 151.85 166.77 C 149.97 168.59 147.94 170.33 146.81 172.75 C 144.71 171.61 144.19 172.62 143.07 174.03 C 143.28 171.60 142.41 169.43 140.72 167.72 Z" />
</g>
<g id="#ae9d94fb">
<path fill="#ae9d94" opacity="1.00" d=" M 57.22 167.92 C 56.72 166.32 59.11 165.91 60.22 165.75 C 60.16 168.36 60.02 171.12 57.92 172.97 L 57.02 173.02 C 57.48 171.34 57.87 169.61 57.22 167.92 Z" />
</g>
<g id="#8f7e76fd">
<path fill="#8f7e76" opacity="1.00" d=" M 60.22 165.75 C 60.61 166.08 61.39 166.76 61.78 167.10 C 61.93 168.79 62.04 170.49 62.15 172.19 C 61.80 172.35 61.09 172.66 60.74 172.82 C 60.03 172.86 58.62 172.94 57.92 172.97 C 60.02 171.12 60.16 168.36 60.22 165.75 Z" />
</g>
<g id="#807a75ee">
<path fill="#807a75" opacity="0.93" d=" M 81.00 165.94 C 82.50 166.74 84.28 167.99 84.06 169.93 C 83.21 170.01 81.52 170.18 80.67 170.27 C 79.91 168.85 80.71 167.36 81.00 165.94 Z" />
</g>
<g id="#b4a499f7">
<path fill="#b4a499" opacity="0.97" d=" M 66.74 170.84 C 67.83 169.10 68.99 167.31 70.96 166.49 C 71.54 168.90 71.90 171.35 72.05 173.84 C 69.32 175.85 66.08 174.53 66.74 170.84 Z" />
</g>
<g id="#807269f8">
<path fill="#807269" opacity="0.97" d=" M 70.96 166.49 C 73.07 167.21 74.24 169.08 75.13 170.99 C 75.64 173.51 74.58 174.72 72.05 173.84 C 71.90 171.35 71.54 168.90 70.96 166.49 Z" />
</g>
<g id="#9f8d81f8">
<path fill="#9f8d81" opacity="0.97" d=" M 146.81 172.75 C 147.94 170.33 149.97 168.59 151.85 166.77 C 152.07 166.99 152.52 167.44 152.75 167.66 C 151.10 169.39 150.02 171.57 149.81 173.96 C 148.05 174.43 147.05 174.02 146.81 172.75 Z" />
</g>
<g id="#ccbcb1f2">
<path fill="#ccbcb1" opacity="0.95" d=" M 52.93 172.95 C 53.07 170.40 54.74 168.47 57.22 167.92 C 57.87 169.61 57.48 171.34 57.02 173.02 C 55.66 173.06 54.29 173.04 52.93 172.95 Z" />
</g>
<g id="#b8a69cfd">
<path fill="#b8a69c" opacity="1.00" d=" M 136.83 168.85 C 137.84 168.49 138.86 168.19 139.90 167.94 C 140.68 170.24 141.06 172.64 141.12 175.06 L 140.15 174.92 C 137.92 173.68 137.56 171.12 136.83 168.85 Z" />
</g>
<g id="#948681ff">
<path fill="#948681" opacity="1.00" d=" M 139.90 167.94 L 140.72 167.72 C 142.41 169.43 143.28 171.60 143.07 174.03 L 143.05 174.99 C 142.57 175.01 141.60 175.04 141.12 175.06 C 141.06 172.64 140.68 170.24 139.90 167.94 Z" />
</g>
<g id="#bcaba0fe">
<path fill="#bcaba0" opacity="1.00" d=" M 149.81 173.96 C 150.02 171.57 151.10 169.39 152.75 167.66 C 153.12 167.99 153.87 168.66 154.25 168.99 C 153.60 170.71 152.82 172.38 151.97 174.01 C 151.43 174.00 150.35 173.98 149.81 173.96 Z" />
</g>
<g id="#dcc9befd">
<path fill="#dcc9be" opacity="1.00" d=" M 136.83 168.85 C 137.56 171.12 137.92 173.68 140.15 174.92 C 138.76 175.00 137.37 175.01 135.97 174.97 C 135.91 173.73 136.01 172.50 136.28 171.29 C 136.42 170.68 136.69 169.46 136.83 168.85 Z" />
</g>
<g id="#d2c4bbff">
<path fill="#d2c4bb" opacity="1.00" d=" M 154.25 168.99 C 155.81 170.36 158.14 171.60 158.09 173.96 C 156.56 173.97 153.50 174.00 151.97 174.01 C 152.82 172.38 153.60 170.71 154.25 168.99 Z" />
</g>
</svg>
