<?xml version="1.0" encoding="UTF-8" ?>
<!DOCTYPE svg PUBLIC "-//W3C//DTD SVG 1.1//EN" "http://www.w3.org/Graphics/SVG/1.1/DTD/svg11.dtd">
<svg width="198pt" height="227pt" viewBox="0 0 198 227" version="1.1" xmlns="http://www.w3.org/2000/svg">
<g id="#7f84a2ff">
<path fill="#7f84a2" opacity="1.00" d=" M 170.23 14.05 C 172.81 14.79 175.71 15.28 177.63 17.32 C 181.36 21.04 185.00 24.86 188.79 28.52 C 187.02 28.52 185.25 28.50 183.48 28.47 C 185.07 31.04 186.47 33.72 187.80 36.44 C 183.97 36.73 182.46 32.29 179.91 30.19 C 180.50 29.42 181.09 28.65 181.69 27.88 C 180.12 25.29 178.81 22.49 176.72 20.26 C 174.21 18.08 171.19 16.59 168.50 14.65 C 168.93 14.50 169.80 14.20 170.23 14.05 Z" />
</g>
<g id="#76778eff">
<path fill="#76778e" opacity="1.00" d=" M 165.07 16.09 C 166.21 15.60 167.34 15.10 168.50 14.65 C 171.19 16.59 174.21 18.08 176.72 20.26 C 178.81 22.49 180.12 25.29 181.69 27.88 C 181.09 28.65 180.50 29.42 179.91 30.19 C 182.46 32.29 183.97 36.73 187.80 36.44 C 189.69 39.81 191.69 43.14 193.15 46.73 C 191.34 45.61 189.54 44.46 187.72 43.35 C 187.65 42.66 187.51 41.27 187.44 40.57 C 183.90 37.46 180.18 34.55 176.55 31.53 C 171.51 27.41 168.47 21.52 165.07 16.09 Z" />
</g>
<g id="#606071ff">
<path fill="#606071" opacity="1.00" d=" M 162.80 17.05 C 163.56 16.74 164.32 16.42 165.07 16.09 C 168.47 21.52 171.51 27.41 176.55 31.53 C 180.18 34.55 183.90 37.46 187.44 40.57 C 187.51 41.27 187.65 42.66 187.72 43.35 C 181.31 39.23 174.45 35.89 167.65 32.48 C 167.92 31.89 168.44 30.72 168.70 30.13 C 166.84 27.36 164.71 24.64 164.00 21.31 C 163.60 19.89 163.20 18.46 162.80 17.05 Z" />
</g>
<g id="#a8907aff">
<path fill="#a8907a" opacity="1.00" d=" M 146.43 21.26 C 151.04 17.39 157.32 18.37 162.80 17.05 C 163.20 18.46 163.60 19.89 164.00 21.31 C 159.73 21.74 154.89 21.27 151.21 23.86 C 148.24 26.36 144.41 27.78 142.01 30.92 C 137.61 36.01 133.51 41.38 130.21 47.26 C 126.16 53.50 123.79 60.66 119.65 66.83 C 118.52 65.28 117.40 63.72 116.41 62.08 C 121.41 52.68 126.16 43.11 132.31 34.39 C 136.30 29.28 140.46 24.13 146.43 21.26 Z" />
</g>
<g id="#52525aff">
<path fill="#52525a" opacity="1.00" d=" M 151.21 23.86 C 154.89 21.27 159.73 21.74 164.00 21.31 C 164.71 24.64 166.84 27.36 168.70 30.13 C 168.44 30.72 167.92 31.89 167.65 32.48 C 163.84 30.58 161.69 26.79 160.11 23.01 C 157.15 23.38 154.18 23.63 151.21 23.86 Z" />
<path fill="#52525a" opacity="1.00" d=" M 78.31 86.08 C 78.45 84.55 78.45 82.57 80.31 82.01 C 80.00 85.15 79.54 88.40 80.65 91.46 C 81.24 93.13 81.92 94.76 82.64 96.39 C 83.82 97.83 85.38 98.87 87.13 99.52 L 87.16 99.79 C 86.91 100.25 86.43 101.17 86.18 101.63 C 83.99 100.59 82.13 98.99 80.76 97.00 C 79.42 93.51 78.03 89.88 78.31 86.08 Z" />
<path fill="#52525a" opacity="1.00" d=" M 31.34 91.26 C 31.66 91.24 32.30 91.20 32.62 91.18 C 32.50 93.65 32.39 96.12 32.49 98.59 C 32.64 101.18 33.10 103.73 33.48 106.29 C 33.57 107.10 33.75 108.73 33.84 109.54 C 33.09 109.16 32.33 108.79 31.56 108.43 C 30.58 102.75 31.01 96.98 31.34 91.26 Z" />
</g>
<g id="#9e876dff">
<path fill="#9e876d" opacity="1.00" d=" M 68.77 27.88 C 69.29 27.34 69.80 26.80 70.32 26.26 C 72.11 27.91 74.00 29.44 75.96 30.89 C 76.54 29.58 77.11 28.27 77.68 26.96 C 78.83 27.98 80.00 29.00 81.18 30.00 C 80.94 30.59 80.47 31.78 80.24 32.37 C 82.05 33.62 83.73 35.05 85.21 36.69 C 81.87 39.84 82.15 44.70 80.00 48.50 C 82.97 50.54 86.63 50.95 90.00 52.01 C 89.74 52.37 89.21 53.10 88.95 53.46 C 87.43 53.36 85.91 53.26 84.39 53.15 L 83.53 53.04 C 84.60 54.54 85.84 55.92 87.26 57.10 C 87.84 58.01 88.41 58.92 88.97 59.84 C 89.96 64.22 92.31 68.86 90.33 73.30 C 90.22 71.64 90.06 69.97 89.91 68.31 C 89.34 68.73 88.79 69.16 88.23 69.58 C 85.73 67.39 82.94 65.57 80.01 64.02 C 77.56 62.88 76.46 60.25 74.47 58.60 C 71.22 57.87 67.93 57.34 64.75 56.32 C 60.09 54.71 55.66 57.63 51.13 58.36 C 47.62 58.82 45.23 61.58 42.89 63.95 C 40.61 66.50 37.04 67.20 34.55 69.49 C 31.56 72.23 27.94 74.20 24.03 75.29 C 27.03 71.22 29.49 66.67 33.34 63.30 C 36.75 60.30 38.09 55.43 42.16 53.12 C 43.45 52.14 45.23 51.48 45.69 49.76 C 46.73 46.82 48.28 44.11 50.14 41.62 C 49.00 41.63 47.86 41.64 46.73 41.66 C 47.43 39.57 48.50 37.65 49.84 35.91 C 49.65 34.87 49.46 33.82 49.27 32.78 C 49.59 32.45 50.24 31.81 50.56 31.48 C 50.63 32.45 50.76 34.38 50.83 35.34 C 52.31 33.63 53.74 31.88 55.18 30.13 C 55.99 30.44 56.80 30.74 57.62 31.05 C 59.16 29.68 60.72 28.34 62.27 26.98 C 62.61 27.99 63.29 30.02 63.62 31.03 C 64.51 29.71 65.48 28.45 66.46 27.19 C 67.23 27.42 68.00 27.65 68.77 27.88 Z" />
</g>
<g id="#ab937cff">
<path fill="#ab937c" opacity="1.00" d=" M 81.84 28.42 C 84.44 30.72 87.19 32.85 89.84 35.08 C 98.82 43.04 109.47 49.70 115.44 60.45 C 114.81 60.44 113.55 60.41 112.92 60.40 C 114.27 63.00 115.87 65.53 116.59 68.40 C 116.97 70.97 116.04 73.49 115.61 76.00 C 114.38 74.17 113.05 72.42 111.67 70.71 C 111.75 72.46 111.84 74.20 111.93 75.95 C 110.98 74.63 110.02 73.31 109.06 72.00 C 108.50 72.86 107.94 73.72 107.38 74.59 C 107.01 74.27 106.28 73.61 105.91 73.29 C 106.94 76.83 108.09 80.34 109.34 83.81 C 108.72 83.69 107.47 83.46 106.85 83.34 C 107.63 86.17 108.51 88.97 109.21 91.83 C 109.40 96.67 109.79 101.66 108.67 106.41 C 108.31 106.60 107.60 106.97 107.25 107.15 C 106.98 103.47 106.83 99.79 106.68 96.10 C 105.91 96.92 105.14 97.73 104.36 98.55 C 103.98 98.10 103.22 97.20 102.84 96.75 C 102.04 97.76 101.24 98.77 100.44 99.79 C 99.58 97.34 98.72 94.88 98.03 92.37 C 99.43 90.96 100.68 89.40 101.65 87.67 C 102.47 86.20 103.28 84.71 104.02 83.19 C 105.88 79.41 103.97 75.26 103.34 71.43 C 102.75 67.44 100.19 64.22 97.81 61.13 C 95.40 58.02 92.43 55.33 88.95 53.46 C 89.21 53.10 89.74 52.37 90.00 52.01 C 86.63 50.95 82.97 50.54 80.00 48.50 C 82.15 44.70 81.87 39.84 85.21 36.69 C 83.73 35.05 82.05 33.62 80.24 32.37 C 80.47 31.78 80.94 30.59 81.18 30.00 C 81.34 29.60 81.67 28.81 81.84 28.42 Z" />
</g>
<g id="#9f8c79ff">
<path fill="#9f8c79" opacity="1.00" d=" M 49.27 32.78 C 49.46 33.82 49.65 34.87 49.84 35.91 C 48.50 37.65 47.43 39.57 46.73 41.66 C 47.86 41.64 49.00 41.63 50.14 41.62 C 48.28 44.11 46.73 46.82 45.69 49.76 C 45.23 51.48 43.45 52.14 42.16 53.12 C 38.09 55.43 36.75 60.30 33.34 63.30 C 29.49 66.67 27.03 71.22 24.03 75.29 C 21.70 79.57 20.62 84.36 19.08 88.95 C 15.68 87.18 13.42 83.98 11.38 80.84 C 12.94 75.93 14.48 70.96 17.69 66.83 C 20.42 61.37 24.87 57.25 29.07 52.98 C 34.96 45.41 42.91 39.90 49.27 32.78 Z" />
</g>
<g id="#d1c8ccff">
<path fill="#d1c8cc" opacity="1.00" d=" M 83.53 53.04 L 84.39 53.15 C 88.18 55.88 92.84 57.46 95.67 61.37 C 98.74 64.35 99.51 69.20 103.34 71.43 C 103.97 75.26 105.88 79.41 104.02 83.19 C 103.35 80.09 101.67 77.51 98.68 76.23 C 96.81 72.36 94.88 68.50 93.38 64.46 C 92.19 61.42 90.41 58.41 87.26 57.10 C 85.84 55.92 84.60 54.54 83.53 53.04 Z" />
</g>
<g id="#dcd9ddff">
<path fill="#dcd9dd" opacity="1.00" d=" M 84.39 53.15 C 85.91 53.26 87.43 53.36 88.95 53.46 C 92.43 55.33 95.40 58.02 97.81 61.13 C 100.19 64.22 102.75 67.44 103.34 71.43 C 99.51 69.20 98.74 64.35 95.67 61.37 C 92.84 57.46 88.18 55.88 84.39 53.15 Z" />
</g>
<g id="#92775dff">
<path fill="#92775d" opacity="1.00" d=" M 51.13 58.36 C 55.66 57.63 60.09 54.71 64.75 56.32 C 67.93 57.34 71.22 57.87 74.47 58.60 C 76.46 60.25 77.56 62.88 80.01 64.02 C 82.94 65.57 85.73 67.39 88.23 69.58 C 88.79 69.16 89.34 68.73 89.91 68.31 C 90.06 69.97 90.22 71.64 90.33 73.30 C 90.10 74.09 89.86 74.87 89.62 75.65 C 88.29 77.15 86.96 78.64 85.53 80.04 C 81.60 77.15 78.17 73.60 74.04 70.99 C 66.98 67.80 58.86 68.49 51.60 70.63 C 46.85 72.47 43.36 76.38 39.66 79.72 C 37.12 82.67 34.70 85.91 33.36 89.60 C 33.18 89.99 32.81 90.78 32.62 91.18 C 32.30 91.20 31.66 91.24 31.34 91.26 L 30.23 91.32 C 26.33 91.85 22.56 90.58 19.08 88.95 C 20.62 84.36 21.70 79.57 24.03 75.29 C 27.94 74.20 31.56 72.23 34.55 69.49 C 37.04 67.20 40.61 66.50 42.89 63.95 C 45.23 61.58 47.62 58.82 51.13 58.36 Z" />
</g>
<g id="#bfb9bdff">
<path fill="#bfb9bd" opacity="1.00" d=" M 87.26 57.10 C 90.41 58.41 92.19 61.42 93.38 64.46 C 94.88 68.50 96.81 72.36 98.68 76.23 C 101.67 77.51 103.35 80.09 104.02 83.19 C 103.28 84.71 102.47 86.20 101.65 87.67 C 101.39 86.28 101.29 84.87 101.31 83.45 C 98.65 83.52 95.11 82.06 95.05 79.01 C 94.77 72.27 93.43 65.15 88.97 59.84 C 88.41 58.92 87.84 58.01 87.26 57.10 Z" />
</g>
<g id="#aca6a7ff">
<path fill="#aca6a7" opacity="1.00" d=" M 88.97 59.84 C 93.43 65.15 94.77 72.27 95.05 79.01 C 95.11 82.06 98.65 83.52 101.31 83.45 C 101.29 84.87 101.39 86.28 101.65 87.67 C 100.68 89.40 99.43 90.96 98.03 92.37 C 97.05 93.35 96.05 94.30 95.04 95.26 C 94.81 94.40 94.56 93.53 94.31 92.68 C 90.20 93.11 86.29 94.49 82.64 96.39 C 81.92 94.76 81.24 93.13 80.65 91.46 C 83.61 86.20 88.17 81.62 89.62 75.65 C 89.86 74.87 90.10 74.09 90.33 73.30 C 92.31 68.86 89.96 64.22 88.97 59.84 Z" />
</g>
<g id="#b8a18bff">
<path fill="#b8a18b" opacity="1.00" d=" M 112.92 60.40 C 113.55 60.41 114.81 60.44 115.44 60.45 C 115.68 60.86 116.17 61.67 116.41 62.08 C 117.40 63.72 118.52 65.28 119.65 66.83 C 121.47 70.71 123.71 74.41 125.01 78.51 C 125.53 80.27 125.98 82.04 126.44 83.81 C 126.80 85.16 127.14 86.51 127.49 87.86 C 126.74 88.47 126.00 89.07 125.26 89.68 C 123.64 85.52 121.68 81.48 120.47 77.17 C 120.20 77.43 119.66 77.94 119.39 78.20 C 118.56 84.48 118.58 90.85 117.59 97.11 C 117.09 94.69 116.92 92.17 116.06 89.84 C 114.46 87.22 112.52 84.81 111.25 82.00 C 110.99 83.67 110.72 85.34 110.45 87.00 C 110.08 85.94 109.71 84.87 109.34 83.81 C 108.09 80.34 106.94 76.83 105.91 73.29 C 106.28 73.61 107.01 74.27 107.38 74.59 C 107.94 73.72 108.50 72.86 109.06 72.00 C 110.02 73.31 110.98 74.63 111.93 75.95 C 111.84 74.20 111.75 72.46 111.67 70.71 C 113.05 72.42 114.38 74.17 115.61 76.00 C 116.04 73.49 116.97 70.97 116.59 68.40 C 115.87 65.53 114.27 63.00 112.92 60.40 Z" />
</g>
<g id="#c7bcb8ff">
<path fill="#c7bcb8" opacity="1.00" d=" M 2.90 74.22 C 4.37 70.90 6.55 67.01 10.52 66.44 C 10.03 70.88 9.45 75.35 10.72 79.73 L 11.38 80.84 C 13.42 83.98 15.68 87.18 19.08 88.95 C 22.56 90.58 26.33 91.85 30.23 91.32 C 30.18 95.53 30.33 99.74 30.11 103.95 C 25.22 103.97 20.11 103.82 15.87 101.05 C 8.85 98.14 4.83 90.90 3.58 83.70 C 2.98 86.13 2.71 88.63 2.85 91.14 C 1.71 85.63 2.00 79.75 2.90 74.22 Z" />
</g>
<g id="#b5a38bff">
<path fill="#b5a38b" opacity="1.00" d=" M 150.29 69.25 C 155.26 67.78 160.36 66.80 165.57 67.27 C 167.68 68.24 169.78 69.29 171.63 70.72 C 164.58 69.07 157.30 70.77 150.29 69.25 Z" />
</g>
<g id="#816343ff">
<path fill="#816343" opacity="1.00" d=" M 51.60 70.63 C 58.86 68.49 66.98 67.80 74.04 70.99 C 78.17 73.60 81.60 77.15 85.53 80.04 C 82.84 82.21 79.37 81.49 76.26 80.98 C 72.27 78.38 67.63 77.02 62.85 77.90 C 65.67 77.32 68.55 77.19 71.40 76.84 C 68.14 74.99 64.25 75.76 60.78 76.50 C 57.34 77.36 53.71 77.48 50.38 78.79 C 52.59 79.17 54.82 79.49 57.07 79.42 C 54.04 79.87 50.86 79.90 48.05 81.27 C 44.27 82.87 41.36 85.85 38.24 88.40 C 36.62 88.82 34.99 89.22 33.36 89.60 C 34.70 85.91 37.12 82.67 39.66 79.72 C 43.36 76.38 46.85 72.47 51.60 70.63 Z" />
</g>
<g id="#a38e78ff">
<path fill="#a38e78" opacity="1.00" d=" M 125.01 78.51 C 133.19 74.84 141.75 71.93 150.29 69.25 C 157.30 70.77 164.58 69.07 171.63 70.72 C 172.68 71.50 173.75 72.24 174.87 72.93 C 175.68 74.42 176.44 75.94 177.14 77.49 C 173.68 76.05 170.76 72.33 166.68 73.48 C 160.30 71.38 153.56 73.75 147.47 75.76 C 140.45 78.41 133.25 80.63 126.44 83.81 C 125.98 82.04 125.53 80.27 125.01 78.51 Z" />
</g>
<g id="#6b6a7cff">
<path fill="#6b6a7c" opacity="1.00" d=" M 174.87 72.93 C 175.95 72.39 177.06 71.88 178.18 71.42 C 180.39 73.60 182.22 76.13 184.45 78.30 C 184.09 79.79 183.53 81.25 183.42 82.79 C 183.90 84.70 185.24 86.25 186.22 87.92 C 186.37 89.21 186.06 90.77 187.29 91.64 C 189.63 93.86 191.95 96.14 193.39 99.07 C 194.07 98.50 194.76 97.93 195.46 97.37 C 196.28 98.48 197.16 99.54 198.00 100.64 L 198.00 100.85 C 195.68 100.31 193.38 99.68 191.08 99.11 C 191.51 99.94 192.37 101.59 192.80 102.42 C 191.20 101.40 189.60 100.36 188.03 99.30 C 187.53 97.07 187.64 94.02 185.07 93.06 C 182.84 91.35 178.17 90.94 178.50 87.34 C 178.51 86.81 178.51 85.75 178.52 85.22 C 177.11 83.59 175.69 81.96 174.06 80.55 C 175.23 79.69 176.44 78.82 177.14 77.49 C 176.44 75.94 175.68 74.42 174.87 72.93 Z" />
</g>
<g id="#736450ff">
<path fill="#736450" opacity="1.00" d=" M 166.68 73.48 C 170.76 72.33 173.68 76.05 177.14 77.49 C 176.44 78.82 175.23 79.69 174.06 80.55 C 172.56 79.42 171.00 78.37 169.51 77.25 C 168.92 75.75 167.82 74.57 166.68 73.48 Z" />
</g>
<g id="#674d34ff">
<path fill="#674d34" opacity="1.00" d=" M 60.78 76.50 C 64.25 75.76 68.14 74.99 71.40 76.84 C 68.55 77.19 65.67 77.32 62.85 77.90 C 60.91 78.35 59.03 79.03 57.07 79.42 C 54.82 79.49 52.59 79.17 50.38 78.79 C 53.71 77.48 57.34 77.36 60.78 76.50 Z" />
</g>
<g id="#c4b9b3ff">
<path fill="#c4b9b3" opacity="1.00" d=" M 85.53 80.04 C 86.96 78.64 88.29 77.15 89.62 75.65 C 88.17 81.62 83.61 86.20 80.65 91.46 C 79.54 88.40 80.00 85.15 80.31 82.01 C 78.45 82.57 78.45 84.55 78.31 86.08 C 78.03 89.88 79.42 93.51 80.76 97.00 C 78.70 99.31 76.19 96.58 74.02 95.86 C 72.67 91.76 71.35 87.19 72.86 82.97 C 73.91 82.17 75.09 81.57 76.26 80.98 C 79.37 81.49 82.84 82.21 85.53 80.04 Z" />
</g>
<g id="#a38d7aff">
<path fill="#a38d7a" opacity="1.00" d=" M 119.39 78.20 C 119.66 77.94 120.20 77.43 120.47 77.17 C 121.68 81.48 123.64 85.52 125.26 89.68 C 126.00 89.07 126.74 88.47 127.49 87.86 C 128.77 93.11 128.01 98.55 128.23 103.89 C 128.12 105.90 127.84 107.90 127.58 109.90 C 127.25 112.09 126.90 114.29 126.65 116.49 C 126.33 117.78 125.97 119.05 125.61 120.33 C 125.36 119.51 124.87 117.89 124.62 117.08 C 123.33 120.20 122.98 124.21 119.97 126.22 C 118.17 125.96 116.85 124.62 115.41 123.64 C 114.15 124.92 112.87 126.18 111.56 127.41 C 110.82 123.22 112.70 119.18 113.01 115.03 C 114.52 107.48 112.63 99.87 112.50 92.28 C 111.40 92.13 110.30 91.98 109.21 91.83 C 108.51 88.97 107.63 86.17 106.85 83.34 C 107.47 83.46 108.72 83.69 109.34 83.81 C 109.71 84.87 110.08 85.94 110.45 87.00 C 110.72 85.34 110.99 83.67 111.25 82.00 C 112.52 84.81 114.46 87.22 116.06 89.84 C 116.92 92.17 117.09 94.69 117.59 97.11 C 118.58 90.85 118.56 84.48 119.39 78.20 Z" />
</g>
<g id="#f9b45cff">
<path fill="#f9b45c" opacity="1.00" d=" M 57.07 79.42 C 59.03 79.03 60.91 78.35 62.85 77.90 C 67.63 77.02 72.27 78.38 76.26 80.98 C 75.09 81.57 73.91 82.17 72.86 82.97 C 71.35 87.19 72.67 91.76 74.02 95.86 C 74.94 99.66 77.84 102.33 80.53 104.94 C 80.49 105.83 80.45 106.72 80.40 107.62 C 81.49 108.25 82.58 108.88 83.67 109.50 C 84.63 113.04 85.06 116.69 85.26 120.34 C 82.13 124.65 78.78 128.90 76.69 133.84 C 76.48 134.42 76.07 135.59 75.86 136.18 C 75.12 136.05 73.66 135.81 72.92 135.68 C 73.02 131.54 74.16 127.54 75.72 123.73 C 76.61 120.98 78.23 117.91 76.83 115.07 C 75.55 116.05 74.24 117.02 72.92 117.95 L 72.94 116.97 C 74.00 115.25 75.93 113.70 75.67 111.48 C 75.31 108.57 74.27 105.83 73.48 103.03 C 71.20 108.78 67.85 115.34 69.99 121.56 C 67.48 123.15 68.27 118.75 67.81 117.33 C 65.11 121.19 60.29 122.12 56.30 124.10 C 56.21 127.47 55.99 130.83 55.95 134.20 C 54.02 129.93 54.25 124.81 56.54 120.72 C 61.37 119.55 64.61 115.05 66.93 110.95 C 68.10 107.06 68.47 102.39 66.02 98.90 C 63.94 95.59 63.90 91.50 62.05 88.07 C 62.68 87.26 63.32 86.46 63.95 85.66 C 63.02 84.10 62.12 82.52 61.23 80.94 C 60.13 82.21 58.95 83.40 57.64 84.46 C 56.82 83.73 55.96 83.06 55.06 82.44 C 52.26 83.05 49.47 83.87 46.86 85.05 C 43.36 87.17 41.04 90.68 38.57 93.84 C 38.31 92.82 38.07 91.79 37.83 90.77 C 37.93 90.18 38.13 88.99 38.24 88.40 C 41.36 85.85 44.27 82.87 48.05 81.27 C 50.86 79.90 54.04 79.87 57.07 79.42 Z" />
</g>
<g id="#5c5b68ff">
<path fill="#5c5b68" opacity="1.00" d=" M 168.13 85.67 C 168.15 82.82 168.18 79.86 169.51 77.25 C 171.00 78.37 172.56 79.42 174.06 80.55 C 175.69 81.96 177.11 83.59 178.52 85.22 C 178.51 85.75 178.51 86.81 178.50 87.34 C 178.17 90.94 182.84 91.35 185.07 93.06 C 187.64 94.02 187.53 97.07 188.03 99.30 C 181.57 94.47 173.95 91.37 168.13 85.67 Z" />
</g>
<g id="#828aa6ff">
<path fill="#828aa6" opacity="1.00" d=" M 184.45 78.30 C 187.23 81.42 189.88 84.65 192.30 88.06 C 191.74 88.25 190.61 88.61 190.05 88.79 C 191.88 91.64 193.55 94.57 195.46 97.37 C 194.76 97.93 194.07 98.50 193.39 99.07 C 191.95 96.14 189.63 93.86 187.29 91.64 C 186.06 90.77 186.37 89.21 186.22 87.92 C 185.24 86.25 183.90 84.70 183.42 82.79 C 183.53 81.25 184.09 79.79 184.45 78.30 Z" />
</g>
<g id="#efa451ff">
<path fill="#efa451" opacity="1.00" d=" M 57.64 84.46 C 58.95 83.40 60.13 82.21 61.23 80.94 C 62.12 82.52 63.02 84.10 63.95 85.66 C 63.32 86.46 62.68 87.26 62.05 88.07 C 63.90 91.50 63.94 95.59 66.02 98.90 C 68.47 102.39 68.10 107.06 66.93 110.95 C 64.61 115.05 61.37 119.55 56.54 120.72 C 54.75 119.79 53.20 120.65 51.80 121.79 C 52.04 119.84 52.05 117.79 52.92 116.00 C 53.88 114.88 55.53 114.75 56.80 114.10 C 57.22 113.74 58.06 113.01 58.47 112.65 C 61.59 108.83 58.50 104.20 54.60 102.61 C 54.19 101.94 53.79 101.28 53.38 100.61 C 53.59 100.33 54.00 99.76 54.21 99.47 C 55.36 97.98 56.54 96.11 55.69 94.16 C 53.46 92.35 51.39 94.76 50.83 96.86 L 50.42 97.76 C 49.42 96.46 48.40 95.18 47.38 93.91 C 48.39 93.08 49.37 92.24 50.36 91.39 C 50.47 90.34 50.59 89.29 50.71 88.24 C 51.03 88.48 51.69 88.97 52.01 89.22 C 52.94 90.25 53.96 90.48 55.09 89.92 C 56.08 88.17 56.82 86.30 57.64 84.46 Z" />
</g>
<g id="#e5a756ff">
<path fill="#e5a756" opacity="1.00" d=" M 46.86 85.05 C 49.47 83.87 52.26 83.05 55.06 82.44 C 55.96 83.06 56.82 83.73 57.64 84.46 C 56.82 86.30 56.08 88.17 55.09 89.92 C 55.85 87.68 52.73 87.51 52.01 89.22 C 51.69 88.97 51.03 88.48 50.71 88.24 C 50.59 89.29 50.47 90.34 50.36 91.39 C 49.37 92.24 48.39 93.08 47.38 93.91 C 45.42 95.50 43.10 96.54 40.77 97.46 C 40.40 97.20 39.66 96.68 39.29 96.42 C 38.57 99.87 38.13 103.38 38.13 106.91 L 37.43 106.79 C 37.42 105.55 37.43 104.32 37.46 103.08 C 37.51 98.98 37.24 94.85 37.83 90.77 C 38.07 91.79 38.31 92.82 38.57 93.84 C 41.04 90.68 43.36 87.17 46.86 85.05 Z" />
</g>
<g id="#9e9295ff">
<path fill="#9e9295" opacity="1.00" d=" M 2.85 91.14 C 2.71 88.63 2.98 86.13 3.58 83.70 C 4.83 90.90 8.85 98.14 15.87 101.05 C 20.11 103.82 25.22 103.97 30.11 103.95 C 30.04 104.51 29.92 105.64 29.86 106.21 C 26.10 106.44 22.36 105.72 18.87 104.35 C 15.33 103.17 12.27 100.64 8.44 100.35 C 5.23 98.35 4.35 94.36 2.85 91.14 Z" />
</g>
<g id="#b1a89eff">
<path fill="#b1a89e" opacity="1.00" d=" M 52.01 89.22 C 52.73 87.51 55.85 87.68 55.09 89.92 C 53.96 90.48 52.94 90.25 52.01 89.22 Z" />
</g>
<g id="#c2b8b3ff">
<path fill="#c2b8b3" opacity="1.00" d=" M 33.36 89.60 C 34.99 89.22 36.62 88.82 38.24 88.40 C 38.13 88.99 37.93 90.18 37.83 90.77 C 37.24 94.85 37.51 98.98 37.46 103.08 C 36.06 101.32 34.39 99.80 32.49 98.59 C 32.39 96.12 32.50 93.65 32.62 91.18 C 32.81 90.78 33.18 89.99 33.36 89.60 Z" />
</g>
<g id="#908681ff">
<path fill="#908681" opacity="1.00" d=" M 30.23 91.32 L 31.34 91.26 C 31.01 96.98 30.58 102.75 31.56 108.43 C 30.05 108.72 28.53 109.02 26.99 109.18 C 20.39 108.21 14.02 105.52 9.13 100.91 L 8.44 100.35 C 12.27 100.64 15.33 103.17 18.87 104.35 C 22.36 105.72 26.10 106.44 29.86 106.21 C 29.92 105.64 30.04 104.51 30.11 103.95 C 30.33 99.74 30.18 95.53 30.23 91.32 Z" />
</g>
<g id="#98816cff">
<path fill="#98816c" opacity="1.00" d=" M 109.21 91.83 C 110.30 91.98 111.40 92.13 112.50 92.28 C 112.63 99.87 114.52 107.48 113.01 115.03 C 112.70 119.18 110.82 123.22 111.56 127.41 C 112.87 126.18 114.15 124.92 115.41 123.64 C 116.85 124.62 118.17 125.96 119.97 126.22 C 122.98 124.21 123.33 120.20 124.62 117.08 C 124.87 117.89 125.36 119.51 125.61 120.33 C 123.99 126.14 120.15 130.98 117.13 136.12 C 117.12 135.60 117.09 134.57 117.08 134.05 C 113.93 137.23 111.24 141.15 106.96 142.91 C 104.71 143.88 102.92 145.57 100.93 146.93 C 98.32 148.16 95.16 147.97 92.78 149.75 C 90.91 150.71 89.22 152.93 86.88 152.15 C 82.12 151.22 77.35 150.30 72.51 149.90 C 72.89 148.56 73.25 147.20 73.52 145.83 C 73.51 145.16 73.50 144.49 73.48 143.82 C 71.98 144.64 70.49 145.47 68.97 146.25 C 70.49 144.69 71.52 142.75 72.31 140.74 C 70.15 141.88 68.05 143.21 66.42 145.05 C 66.77 145.48 67.49 146.34 67.84 146.76 C 67.02 147.03 66.19 147.27 65.35 147.48 C 60.58 147.74 54.11 147.98 51.72 142.89 C 56.92 142.76 62.07 141.93 66.84 139.79 C 69.34 138.51 72.09 138.87 74.69 139.57 C 75.11 138.45 75.47 137.31 75.86 136.18 C 76.07 135.59 76.48 134.42 76.69 133.84 C 76.82 134.37 77.07 135.44 77.19 135.97 C 78.73 133.64 80.15 131.14 82.41 129.43 C 87.49 125.57 92.69 121.59 96.41 116.34 C 96.84 113.89 96.02 111.42 95.80 108.98 C 95.03 104.61 95.48 100.16 95.15 95.76 L 95.04 95.26 C 96.05 94.30 97.05 93.35 98.03 92.37 C 98.72 94.88 99.58 97.34 100.44 99.79 C 101.24 98.77 102.04 97.76 102.84 96.75 C 103.22 97.20 103.98 98.10 104.36 98.55 C 105.14 97.73 105.91 96.92 106.68 96.10 C 106.83 99.79 106.98 103.47 107.25 107.15 C 107.60 106.97 108.31 106.60 108.67 106.41 C 109.79 101.66 109.40 96.67 109.21 91.83 Z" />
</g>
<g id="#948b87ff">
<path fill="#948b87" opacity="1.00" d=" M 82.64 96.39 C 86.29 94.49 90.20 93.11 94.31 92.68 C 94.56 93.53 94.81 94.40 95.04 95.26 L 95.15 95.76 C 92.35 96.73 89.58 97.84 87.13 99.52 C 85.38 98.87 83.82 97.83 82.64 96.39 Z" />
</g>
<g id="#d5984fff">
<path fill="#d5984f" opacity="1.00" d=" M 40.77 97.46 C 43.10 96.54 45.42 95.50 47.38 93.91 C 48.40 95.18 49.42 96.46 50.42 97.76 L 50.83 96.86 C 51.96 97.73 53.08 98.60 54.21 99.47 C 54.00 99.76 53.59 100.33 53.38 100.61 C 53.79 101.28 54.19 101.94 54.60 102.61 C 52.70 103.93 50.90 105.47 49.89 107.60 C 50.05 109.76 50.30 112.30 52.29 113.62 C 53.75 114.05 55.29 114.00 56.80 114.10 C 55.53 114.75 53.88 114.88 52.92 116.00 C 52.05 117.79 52.04 119.84 51.80 121.79 C 50.99 128.08 53.66 134.34 52.19 140.55 C 51.68 140.58 50.66 140.63 50.15 140.66 C 49.34 135.96 49.05 130.92 46.20 126.89 C 42.94 122.44 40.18 117.65 38.74 112.28 C 38.40 110.51 38.22 108.71 38.13 106.91 C 38.13 103.38 38.57 99.87 39.29 96.42 C 39.66 96.68 40.40 97.20 40.77 97.46 M 41.00 113.27 C 40.86 114.43 41.28 115.41 42.26 116.21 C 41.79 117.91 43.12 120.79 45.10 120.66 C 45.74 122.51 46.59 124.28 47.49 126.01 C 48.77 122.75 46.53 118.39 43.71 116.64 C 44.21 115.25 42.82 113.62 41.57 113.10 C 42.85 109.86 37.81 111.63 41.00 113.27 Z" />
</g>
<g id="#baab9bff">
<path fill="#baab9b" opacity="1.00" d=" M 50.83 96.86 C 51.39 94.76 53.46 92.35 55.69 94.16 C 56.54 96.11 55.36 97.98 54.21 99.47 C 53.08 98.60 51.96 97.73 50.83 96.86 Z" />
</g>
<g id="#9b908cff">
<path fill="#9b908c" opacity="1.00" d=" M 74.02 95.86 C 76.19 96.58 78.70 99.31 80.76 97.00 C 82.13 98.99 83.99 100.59 86.18 101.63 C 84.60 103.19 82.54 104.08 80.53 104.94 C 77.84 102.33 74.94 99.66 74.02 95.86 Z" />
</g>
<g id="#896c51ff">
<path fill="#896c51" opacity="1.00" d=" M 87.13 99.52 C 89.58 97.84 92.35 96.73 95.15 95.76 C 95.48 100.16 95.03 104.61 95.80 108.98 C 96.02 111.42 96.84 113.89 96.41 116.34 C 92.69 121.59 87.49 125.57 82.41 129.43 C 80.15 131.14 78.73 133.64 77.19 135.97 C 77.07 135.44 76.82 134.37 76.69 133.84 C 78.78 128.90 82.13 124.65 85.26 120.34 C 89.54 114.45 87.99 106.51 87.16 99.79 L 87.13 99.52 Z" />
</g>
<g id="#aba2a1ff">
<path fill="#aba2a1" opacity="1.00" d=" M 32.49 98.59 C 34.39 99.80 36.06 101.32 37.46 103.08 C 37.43 104.32 37.42 105.55 37.43 106.79 C 36.11 106.60 34.80 106.44 33.48 106.29 C 33.10 103.73 32.64 101.18 32.49 98.59 Z" />
</g>
<g id="#e7a64eff">
<path fill="#e7a64e" opacity="1.00" d=" M 87.16 99.79 C 87.99 106.51 89.54 114.45 85.26 120.34 C 85.06 116.69 84.63 113.04 83.67 109.50 C 82.58 108.88 81.49 108.25 80.40 107.62 C 80.45 106.72 80.49 105.83 80.53 104.94 C 82.54 104.08 84.60 103.19 86.18 101.63 C 86.43 101.17 86.91 100.25 87.16 99.79 Z" />
</g>
<g id="#847161ff">
<path fill="#847161" opacity="1.00" d=" M 9.13 100.91 C 14.02 105.52 20.39 108.21 26.99 109.18 C 28.10 114.31 31.66 118.33 34.55 122.53 C 37.14 124.26 40.21 125.22 42.53 127.38 C 42.81 127.19 43.37 126.80 43.65 126.61 C 44.34 127.40 45.03 128.20 45.72 129.00 C 45.84 128.47 46.08 127.42 46.20 126.89 C 49.05 130.92 49.34 135.96 50.15 140.66 C 51.15 143.75 52.79 147.49 56.51 147.77 C 59.02 151.55 63.88 150.22 67.59 149.54 C 69.99 149.13 71.76 147.36 73.52 145.83 C 73.25 147.20 72.89 148.56 72.51 149.90 C 77.35 150.30 82.12 151.22 86.88 152.15 C 89.22 152.93 90.91 150.71 92.78 149.75 C 95.16 147.97 98.32 148.16 100.93 146.93 C 102.92 145.57 104.71 143.88 106.96 142.91 C 111.24 141.15 113.93 137.23 117.08 134.05 C 117.09 134.57 117.12 135.60 117.13 136.12 C 115.00 139.27 111.91 141.61 109.58 144.61 C 107.70 147.04 105.37 149.07 102.94 150.94 C 99.43 149.49 96.32 152.24 93.01 152.95 C 90.19 153.46 88.13 155.46 85.87 157.04 C 83.14 157.04 80.74 155.25 78.00 155.05 C 75.87 155.53 74.19 157.05 72.38 158.18 C 72.11 156.51 71.83 154.85 71.54 153.18 C 62.24 151.73 52.50 150.63 44.24 145.77 C 39.79 142.17 34.81 139.26 30.56 135.41 C 26.82 132.26 24.19 127.00 18.60 127.20 C 13.15 119.42 10.67 110.16 9.13 100.91 Z" />
</g>
<g id="#b19e8bff">
<path fill="#b19e8b" opacity="1.00" d=" M 49.89 107.60 C 50.90 105.47 52.70 103.93 54.60 102.61 C 58.50 104.20 61.59 108.83 58.47 112.65 C 55.15 111.83 52.41 109.80 49.89 107.60 Z" />
</g>
<g id="#483116ff">
<path fill="#483116" opacity="1.00" d=" M 73.48 103.03 C 74.27 105.83 75.31 108.57 75.67 111.48 C 74.96 109.86 74.08 108.33 73.12 106.85 C 72.74 107.63 71.98 109.19 71.60 109.97 C 71.86 111.32 72.12 112.67 72.37 114.02 C 70.71 115.12 69.86 116.73 69.84 118.84 C 70.62 118.37 72.17 117.44 72.94 116.97 L 72.92 117.95 C 72.53 118.24 71.77 118.81 71.39 119.09 C 71.04 119.71 70.34 120.95 69.99 121.56 C 67.85 115.34 71.20 108.78 73.48 103.03 Z" />
</g>
<g id="#ffcb6fff">
<path fill="#ffcb6f" opacity="1.00" d=" M 128.23 103.89 C 130.84 109.29 132.58 115.02 134.16 120.79 C 136.42 127.35 137.76 134.18 138.54 141.06 C 138.94 145.36 137.86 149.57 137.37 153.81 C 136.53 152.65 135.18 151.65 135.22 150.07 C 134.40 141.70 134.46 133.15 131.89 125.06 C 131.25 119.76 127.92 115.24 127.58 109.90 C 127.84 107.90 128.12 105.90 128.23 103.89 Z" />
</g>
<g id="#8a7e81ff">
<path fill="#8a7e81" opacity="1.00" d=" M 33.48 106.29 C 34.80 106.44 36.11 106.60 37.43 106.79 L 38.13 106.91 C 38.22 108.71 38.40 110.51 38.74 112.28 C 37.09 111.39 35.48 110.43 33.84 109.54 C 33.75 108.73 33.57 107.10 33.48 106.29 Z" />
</g>
<g id="#7f6955ff">
<path fill="#7f6955" opacity="1.00" d=" M 31.56 108.43 C 32.33 108.79 33.09 109.16 33.84 109.54 C 35.48 110.43 37.09 111.39 38.74 112.28 C 40.18 117.65 42.94 122.44 46.20 126.89 C 46.08 127.42 45.84 128.47 45.72 129.00 C 45.03 128.20 44.34 127.40 43.65 126.61 C 43.37 126.80 42.81 127.19 42.53 127.38 C 40.21 125.22 37.14 124.26 34.55 122.53 C 31.66 118.33 28.10 114.31 26.99 109.18 C 28.53 109.02 30.05 108.72 31.56 108.43 Z" />
</g>
<g id="#8e8377ff">
<path fill="#8e8377" opacity="1.00" d=" M 49.89 107.60 C 52.41 109.80 55.15 111.83 58.47 112.65 C 58.06 113.01 57.22 113.74 56.80 114.10 C 55.29 114.00 53.75 114.05 52.29 113.62 C 50.30 112.30 50.05 109.76 49.89 107.60 Z" />
</g>
<g id="#e7e5e0ff">
<path fill="#e7e5e0" opacity="1.00" d=" M 71.60 109.97 C 71.98 109.19 72.74 107.63 73.12 106.85 C 74.08 108.33 74.96 109.86 75.67 111.48 C 75.93 113.70 74.00 115.25 72.94 116.97 C 72.17 117.44 70.62 118.37 69.84 118.84 C 69.86 116.73 70.71 115.12 72.37 114.02 C 72.12 112.67 71.86 111.32 71.60 109.97 Z" />
</g>
<g id="#f8b35eff">
<path fill="#f8b35e" opacity="1.00" d=" M 126.65 116.49 C 126.90 114.29 127.25 112.09 127.58 109.90 C 127.92 115.24 131.25 119.76 131.89 125.06 C 134.46 133.15 134.40 141.70 135.22 150.07 C 135.18 151.65 136.53 152.65 137.37 153.81 C 137.06 157.26 137.49 160.70 138.41 164.03 C 138.96 170.91 138.22 177.85 138.78 184.75 C 139.41 189.24 139.54 193.79 139.83 198.32 C 136.30 198.47 132.76 198.44 129.22 198.24 C 131.09 191.58 129.62 184.74 129.31 178.00 C 128.86 173.77 133.81 172.57 136.06 169.91 C 137.19 166.19 135.32 162.57 133.85 159.26 C 131.26 153.80 128.63 148.25 124.59 143.70 C 124.63 141.89 124.51 140.10 124.23 138.32 C 124.65 131.00 127.90 123.85 126.65 116.49 Z" />
</g>
<g id="#8e6c41ff">
<path fill="#8e6c41" opacity="1.00" d=" M 41.00 113.27 C 37.81 111.63 42.85 109.86 41.57 113.10 L 41.00 113.27 Z" />
</g>
<g id="#9a8b77ff">
<path fill="#9a8b77" opacity="1.00" d=" M 41.00 113.27 L 41.57 113.10 C 42.82 113.62 44.21 115.25 43.71 116.64 C 43.34 116.53 42.62 116.32 42.26 116.21 C 41.28 115.41 40.86 114.43 41.00 113.27 Z" />
</g>
<g id="#ffc069ff">
<path fill="#ffc069" opacity="1.00" d=" M 76.83 115.07 C 78.23 117.91 76.61 120.98 75.72 123.73 C 74.16 127.54 73.02 131.54 72.92 135.68 C 73.66 135.81 75.12 136.05 75.86 136.18 C 75.47 137.31 75.11 138.45 74.69 139.57 C 74.17 138.95 73.14 137.71 72.62 137.09 C 66.71 137.58 61.31 140.77 55.28 140.51 C 56.92 138.65 57.25 136.34 55.95 134.20 C 55.99 130.83 56.21 127.47 56.30 124.10 C 60.29 122.12 65.11 121.19 67.81 117.33 C 68.27 118.75 67.48 123.15 69.99 121.56 C 70.34 120.95 71.04 119.71 71.39 119.09 C 71.77 118.81 72.53 118.24 72.92 117.95 C 74.24 117.02 75.55 116.05 76.83 115.07 Z" />
</g>
<g id="#d7c0abff">
<path fill="#d7c0ab" opacity="1.00" d=" M 42.26 116.21 C 42.62 116.32 43.34 116.53 43.71 116.64 C 44.22 117.96 44.65 119.32 45.10 120.66 C 43.12 120.79 41.79 117.91 42.26 116.21 Z" />
</g>
<g id="#a07e4eff">
<path fill="#a07e4e" opacity="1.00" d=" M 43.71 116.64 C 46.53 118.39 48.77 122.75 47.49 126.01 C 46.59 124.28 45.74 122.51 45.10 120.66 C 44.65 119.32 44.22 117.96 43.71 116.64 Z" />
</g>
<g id="#ffbd68ff">
<path fill="#ffbd68" opacity="1.00" d=" M 125.61 120.33 C 125.97 119.05 126.33 117.78 126.65 116.49 C 127.90 123.85 124.65 131.00 124.23 138.32 C 122.71 141.97 121.53 145.77 119.90 149.38 C 117.99 152.36 116.03 155.31 114.10 158.28 C 110.47 163.42 105.25 167.50 102.86 173.47 C 102.26 175.11 101.87 176.83 101.14 178.42 C 96.53 185.51 95.28 194.10 93.60 202.24 C 93.12 204.43 92.97 206.68 92.35 208.85 C 88.02 208.10 83.67 207.49 79.27 207.39 C 78.21 207.07 77.17 206.70 76.15 206.27 L 75.44 205.36 C 76.78 205.04 78.12 204.73 79.46 204.43 C 81.33 199.64 83.36 194.85 84.14 189.73 C 84.45 188.21 84.81 186.70 85.25 185.21 C 89.26 178.81 85.66 170.64 89.65 164.22 C 94.10 159.82 98.42 155.27 102.94 150.94 C 105.37 149.07 107.70 147.04 109.58 144.61 C 111.91 141.61 115.00 139.27 117.13 136.12 C 120.15 130.98 123.99 126.14 125.61 120.33 M 87.86 186.23 C 91.07 184.27 92.62 180.27 93.31 176.71 C 89.74 178.44 87.59 182.29 87.86 186.23 Z" />
</g>
<g id="#ebad61ff">
<path fill="#ebad61" opacity="1.00" d=" M 51.80 121.79 C 53.20 120.65 54.75 119.79 56.54 120.72 C 54.25 124.81 54.02 129.93 55.95 134.20 C 57.25 136.34 56.92 138.65 55.28 140.51 C 54.51 140.52 52.96 140.54 52.19 140.55 C 53.66 134.34 50.99 128.08 51.80 121.79 Z" />
</g>
<g id="#7a6552ff">
<path fill="#7a6552" opacity="1.00" d=" M 18.60 127.20 C 24.19 127.00 26.82 132.26 30.56 135.41 C 34.81 139.26 39.79 142.17 44.24 145.77 C 52.50 150.63 62.24 151.73 71.54 153.18 C 71.83 154.85 72.11 156.51 72.38 158.18 C 74.19 157.05 75.87 155.53 78.00 155.05 C 80.74 155.25 83.14 157.04 85.87 157.04 C 88.13 155.46 90.19 153.46 93.01 152.95 C 96.32 152.24 99.43 149.49 102.94 150.94 C 98.42 155.27 94.10 159.82 89.65 164.22 C 89.09 163.69 87.97 162.61 87.41 162.07 C 86.79 165.30 85.49 168.38 83.61 171.08 C 84.16 168.47 85.12 165.97 85.67 163.36 C 83.82 164.79 82.16 166.43 80.55 168.12 C 79.91 167.82 79.28 167.52 78.65 167.22 C 78.05 165.44 77.41 163.50 75.46 162.84 C 74.35 163.87 73.24 164.91 72.13 165.94 C 70.11 164.45 68.32 162.68 66.74 160.74 C 65.24 161.73 63.74 162.74 62.22 163.71 C 60.51 162.10 58.88 160.37 56.95 159.02 C 54.27 157.43 50.63 157.96 48.37 155.57 C 44.98 152.23 40.93 149.72 37.19 146.81 C 36.33 145.98 35.14 145.85 34.01 145.69 C 32.32 144.09 30.77 142.35 29.25 140.60 C 26.27 137.22 23.49 133.68 20.61 130.23 C 19.94 129.22 19.27 128.21 18.60 127.20 Z" />
</g>
<g id="#e0a55aff">
<path fill="#e0a55a" opacity="1.00" d=" M 20.61 130.23 C 23.49 133.68 26.27 137.22 29.25 140.60 C 29.73 143.00 30.88 145.53 30.00 147.98 C 29.07 150.93 27.77 153.84 27.88 157.01 C 27.93 162.50 27.24 168.31 29.57 173.47 C 30.68 176.12 32.73 178.22 34.89 180.05 C 33.67 183.20 31.96 187.02 34.32 190.09 C 34.97 188.54 35.62 186.98 36.20 185.41 C 35.98 187.86 35.58 190.28 35.02 192.68 C 34.08 192.64 33.14 192.60 32.19 192.56 C 31.97 196.10 32.09 199.71 31.20 203.16 C 30.76 205.34 28.37 205.97 26.77 207.09 C 28.91 197.25 27.20 186.73 22.82 177.74 C 21.17 171.52 24.47 165.31 23.50 159.06 C 22.07 149.51 20.64 139.88 20.61 130.23 M 25.40 179.13 C 26.20 182.39 27.36 185.87 29.82 188.27 C 30.85 184.59 28.75 180.76 25.40 179.13 Z" />
</g>
<g id="#332d2dff">
<path fill="#332d2d" opacity="1.00" d=" M 55.28 140.51 C 61.31 140.77 66.71 137.58 72.62 137.09 C 73.14 137.71 74.17 138.95 74.69 139.57 C 72.09 138.87 69.34 138.51 66.84 139.79 C 62.07 141.93 56.92 142.76 51.72 142.89 C 54.11 147.98 60.58 147.74 65.35 147.48 C 62.47 148.32 59.45 148.10 56.51 147.77 C 52.79 147.49 51.15 143.75 50.15 140.66 C 50.66 140.63 51.68 140.58 52.19 140.55 C 52.96 140.54 54.51 140.52 55.28 140.51 Z" />
<path fill="#332d2d" opacity="1.00" d=" M 92.35 208.85 C 92.97 206.68 93.12 204.43 93.60 202.24 C 93.88 205.50 93.75 208.77 93.85 212.04 C 93.44 211.15 93.01 210.27 92.57 209.41 C 90.56 209.52 88.56 209.62 86.55 209.61 C 82.92 208.26 79.05 208.66 75.27 208.44 C 74.97 206.51 78.17 207.87 79.27 207.39 C 83.67 207.49 88.02 208.10 92.35 208.85 Z" />
</g>
<g id="#d29851ff">
<path fill="#d29851" opacity="1.00" d=" M 124.23 138.32 C 124.51 140.10 124.63 141.89 124.59 143.70 C 128.63 148.25 131.26 153.80 133.85 159.26 C 135.32 162.57 137.19 166.19 136.06 169.91 C 133.81 172.57 128.86 173.77 129.31 178.00 C 129.62 184.74 131.09 191.58 129.22 198.24 C 132.76 198.44 136.30 198.47 139.83 198.32 L 139.94 198.99 C 136.28 198.95 132.58 198.57 128.95 199.17 C 128.44 199.30 127.43 199.55 126.92 199.68 C 127.12 191.83 126.28 183.98 124.55 176.32 C 127.80 173.91 131.41 170.51 131.67 166.29 C 128.81 159.95 122.34 156.04 119.90 149.38 C 121.53 145.77 122.71 141.97 124.23 138.32 Z" />
</g>
<g id="#eea957ff">
<path fill="#eea957" opacity="1.00" d=" M 29.25 140.60 C 30.77 142.35 32.32 144.09 34.01 145.69 C 37.89 150.65 41.49 155.81 45.02 161.02 C 46.14 160.67 47.27 160.33 48.39 160.00 C 47.18 161.32 45.99 162.65 44.77 163.97 C 45.47 165.06 46.18 166.16 46.88 167.26 C 45.97 168.62 44.98 169.97 44.43 171.53 C 44.53 178.93 41.49 186.18 43.18 193.63 C 42.38 194.57 41.58 195.50 40.77 196.43 C 37.72 193.54 37.74 189.09 36.20 185.41 C 36.58 183.74 36.89 182.05 37.24 180.37 C 36.65 180.29 35.48 180.13 34.89 180.05 C 32.73 178.22 30.68 176.12 29.57 173.47 C 27.24 168.31 27.93 162.50 27.88 157.01 C 27.77 153.84 29.07 150.93 30.00 147.98 C 30.88 145.53 29.73 143.00 29.25 140.60 M 35.43 173.19 C 36.86 168.89 36.59 164.19 37.05 159.72 C 33.28 162.91 33.55 169.01 35.43 173.19 Z" />
</g>
<g id="#534840ff">
<path fill="#534840" opacity="1.00" d=" M 66.42 145.05 C 68.05 143.21 70.15 141.88 72.31 140.74 C 71.52 142.75 70.49 144.69 68.97 146.25 L 67.84 146.76 C 67.49 146.34 66.77 145.48 66.42 145.05 Z" />
</g>
<g id="#b18142ff">
<path fill="#b18142" opacity="1.00" d=" M 68.97 146.25 C 70.49 145.47 71.98 144.64 73.48 143.82 C 73.50 144.49 73.51 145.16 73.52 145.83 C 71.76 147.36 69.99 149.13 67.59 149.54 C 63.88 150.22 59.02 151.55 56.51 147.77 C 59.45 148.10 62.47 148.32 65.35 147.48 C 66.19 147.27 67.02 147.03 67.84 146.76 L 68.97 146.25 Z" />
</g>
<g id="#66533dff">
<path fill="#66533d" opacity="1.00" d=" M 34.01 145.69 C 35.14 145.85 36.33 145.98 37.19 146.81 C 40.93 149.72 44.98 152.23 48.37 155.57 C 50.63 157.96 54.27 157.43 56.95 159.02 C 58.88 160.37 60.51 162.10 62.22 163.71 C 63.74 162.74 65.24 161.73 66.74 160.74 C 68.32 162.68 70.11 164.45 72.13 165.94 C 73.24 164.91 74.35 163.87 75.46 162.84 C 77.41 163.50 78.05 165.44 78.65 167.22 C 79.28 167.52 79.91 167.82 80.55 168.12 C 78.24 170.43 75.68 172.45 73.26 174.64 C 72.64 172.68 72.16 170.69 71.75 168.69 C 69.64 171.59 67.31 174.33 65.25 177.28 C 64.95 174.46 64.56 171.65 64.23 168.84 C 63.76 170.04 63.27 171.24 62.79 172.44 C 62.36 172.06 61.52 171.28 61.10 170.89 C 60.19 171.79 59.28 172.70 58.38 173.62 C 56.78 169.28 52.41 167.16 50.32 163.18 C 49.67 162.12 49.04 161.06 48.39 160.00 C 47.27 160.33 46.14 160.67 45.02 161.02 C 41.49 155.81 37.89 150.65 34.01 145.69 Z" />
</g>
<g id="#b07b3eff">
<path fill="#b07b3e" opacity="1.00" d=" M 114.10 158.28 C 116.03 155.31 117.99 152.36 119.90 149.38 C 122.34 156.04 128.81 159.95 131.67 166.29 C 131.41 170.51 127.80 173.91 124.55 176.32 C 124.36 175.65 123.98 174.29 123.79 173.62 C 123.21 167.07 117.75 163.11 114.10 158.28 Z" />
</g>
<g id="#c78a44ff">
<path fill="#c78a44" opacity="1.00" d=" M 35.43 173.19 C 33.55 169.01 33.28 162.91 37.05 159.72 C 36.59 164.19 36.86 168.89 35.43 173.19 Z" />
</g>
<g id="#d09447fb">
<path fill="#d09447" opacity="1.00" d=" M 48.39 160.00 C 49.04 161.06 49.67 162.12 50.32 163.18 C 49.16 164.53 47.99 165.86 46.88 167.26 C 46.18 166.16 45.47 165.06 44.77 163.97 C 45.99 162.65 47.18 161.32 48.39 160.00 Z" />
</g>
<g id="#e6a75bff">
<path fill="#e6a75b" opacity="1.00" d=" M 83.61 171.08 C 85.49 168.38 86.79 165.30 87.41 162.07 C 87.97 162.61 89.09 163.69 89.65 164.22 C 85.66 170.64 89.26 178.81 85.25 185.21 C 84.80 182.81 84.50 180.39 84.40 177.95 C 84.30 175.64 83.89 173.36 83.61 171.08 Z" />
</g>
<g id="#cf974fff">
<path fill="#cf974f" opacity="1.00" d=" M 80.55 168.12 C 82.16 166.43 83.82 164.79 85.67 163.36 C 85.12 165.97 84.16 168.47 83.61 171.08 C 83.89 173.36 84.30 175.64 84.40 177.95 C 83.31 177.60 82.23 177.26 81.14 176.91 C 81.98 180.18 82.69 183.48 83.34 186.79 C 83.97 186.26 84.61 185.73 85.25 185.21 C 84.81 186.70 84.45 188.21 84.14 189.73 C 82.76 191.08 81.41 192.46 80.09 193.87 C 80.52 188.90 80.39 183.89 79.99 178.93 C 79.97 177.67 79.03 176.78 78.33 175.86 C 76.70 182.01 78.13 189.93 72.58 194.29 C 74.19 187.90 73.79 181.13 73.26 174.64 C 75.68 172.45 78.24 170.43 80.55 168.12 Z" />
</g>
<g id="#513e2878">
<path fill="#513e28" opacity="0.47" d=" M 123.79 173.62 C 123.98 174.29 124.36 175.65 124.55 176.32 C 126.28 183.98 127.12 191.83 126.92 199.68 C 127.43 199.55 128.44 199.30 128.95 199.17 C 126.88 200.38 126.54 202.89 125.73 204.93 C 125.56 205.47 125.23 206.54 125.06 207.07 C 125.46 203.71 126.27 200.40 126.47 197.02 C 126.37 189.14 124.36 181.46 123.79 173.62 Z" />
</g>
<g id="#edaa58ff">
<path fill="#edaa58" opacity="1.00" d=" M 78.33 175.86 C 79.03 176.78 79.97 177.67 79.99 178.93 C 80.39 183.89 80.52 188.90 80.09 193.87 C 81.41 192.46 82.76 191.08 84.14 189.73 C 83.36 194.85 81.33 199.64 79.46 204.43 C 78.12 204.73 76.78 205.04 75.44 205.36 C 76.74 202.64 77.86 199.83 78.54 196.90 C 76.33 196.89 74.11 196.88 71.90 196.87 C 72.13 196.01 72.36 195.15 72.58 194.29 C 78.13 189.93 76.70 182.01 78.33 175.86 Z" />
</g>
<g id="#a4773eff">
<path fill="#a4773e" opacity="1.00" d=" M 81.14 176.91 C 82.23 177.26 83.31 177.60 84.40 177.95 C 84.50 180.39 84.80 182.81 85.25 185.21 C 84.61 185.73 83.97 186.26 83.34 186.79 C 82.69 183.48 81.98 180.18 81.14 176.91 Z" />
</g>
<g id="#be8949ff">
<path fill="#be8949" opacity="1.00" d=" M 87.86 186.23 C 87.59 182.29 89.74 178.44 93.31 176.71 C 92.62 180.27 91.07 184.27 87.86 186.23 Z" />
</g>
<g id="#9a703aff">
<path fill="#9a703a" opacity="1.00" d=" M 25.40 179.13 C 28.75 180.76 30.85 184.59 29.82 188.27 C 27.36 185.87 26.20 182.39 25.40 179.13 Z" />
</g>
<g id="#af7d41ff">
<path fill="#af7d41" opacity="1.00" d=" M 34.89 180.05 C 35.48 180.13 36.65 180.29 37.24 180.37 C 36.89 182.05 36.58 183.74 36.20 185.41 C 35.62 186.98 34.97 188.54 34.32 190.09 C 31.96 187.02 33.67 183.20 34.89 180.05 Z" />
</g>
<g id="#f9b35fff">
<path fill="#f9b35f" opacity="1.00" d=" M 36.20 185.41 C 37.74 189.09 37.72 193.54 40.77 196.43 C 41.58 195.50 42.38 194.57 43.18 193.63 C 43.53 198.29 44.03 202.94 45.07 207.51 C 40.38 207.57 35.70 207.62 31.02 207.47 C 29.60 207.53 27.75 207.25 26.85 208.62 L 26.45 208.89 C 26.53 208.44 26.69 207.54 26.77 207.09 C 28.37 205.97 30.76 205.34 31.20 203.16 C 32.09 199.71 31.97 196.10 32.19 192.56 C 33.14 192.60 34.08 192.64 35.02 192.68 C 35.58 190.28 35.98 187.86 36.20 185.41 Z" />
</g>
<g id="#75768bff">
<path fill="#75768b" opacity="1.00" d=" M 71.90 196.87 C 74.11 196.88 76.33 196.89 78.54 196.90 C 77.86 199.83 76.74 202.64 75.44 205.36 C 75.23 205.09 74.82 204.55 74.61 204.29 C 73.43 204.00 72.24 203.74 71.05 203.52 C 70.99 202.86 70.86 201.56 70.80 200.91 C 71.14 199.56 71.53 198.22 71.90 196.87 Z" />
</g>
<g id="#787a91ff">
<path fill="#787a91" opacity="1.00" d=" M 128.95 199.17 C 132.58 198.57 136.28 198.95 139.94 198.99 C 141.07 202.40 142.48 205.75 142.64 209.39 C 142.12 209.47 141.06 209.63 140.54 209.71 C 135.57 208.20 130.13 207.96 125.73 204.93 C 126.54 202.89 126.88 200.38 128.95 199.17 Z" />
</g>
<g id="#5f6172ff">
<path fill="#5f6172" opacity="1.00" d=" M 69.29 206.82 C 69.75 204.84 70.26 202.87 70.80 200.91 C 70.86 201.56 70.99 202.86 71.05 203.52 C 72.24 203.74 73.43 204.00 74.61 204.29 C 74.82 204.55 75.23 205.09 75.44 205.36 L 76.15 206.27 C 77.17 206.70 78.21 207.07 79.27 207.39 C 78.17 207.87 74.97 206.51 75.27 208.44 C 79.05 208.66 82.92 208.26 86.55 209.61 C 83.14 209.79 79.68 209.49 76.32 210.15 C 74.76 211.02 74.47 212.86 74.04 214.42 C 80.51 216.97 87.52 217.17 94.33 218.16 C 89.60 219.14 84.77 218.53 79.99 218.70 C 77.32 218.79 74.64 218.63 72.05 217.97 C 72.79 214.14 73.92 210.42 74.87 206.64 C 73.01 206.70 71.15 206.76 69.29 206.82 Z" />
</g>
<g id="#616175ff">
<path fill="#616175" opacity="1.00" d=" M 125.73 204.93 C 130.13 207.96 135.57 208.20 140.54 209.71 C 135.32 210.29 129.72 210.99 124.68 209.25 C 124.77 208.71 124.96 207.62 125.06 207.07 C 125.23 206.54 125.56 205.47 125.73 204.93 Z" />
</g>
<g id="#2f3c5eed">
<path fill="#2f3c5e" opacity="0.93" d=" M 26.85 208.62 C 27.75 207.25 29.60 207.53 31.02 207.47 C 35.70 207.62 40.38 207.57 45.07 207.51 C 45.36 208.73 45.65 209.96 45.95 211.19 L 45.58 210.60 C 45.37 210.30 44.94 209.69 44.72 209.38 C 38.77 209.02 32.69 210.13 26.85 208.62 Z" />
</g>
<g id="#808096ff">
<path fill="#808096" opacity="1.00" d=" M 26.45 208.89 L 26.85 208.62 C 32.69 210.13 38.77 209.02 44.72 209.38 C 44.94 209.69 45.37 210.30 45.58 210.60 C 45.44 211.47 45.16 213.21 45.02 214.08 C 38.42 215.07 31.29 215.31 25.17 212.21 C 25.54 211.08 25.96 209.97 26.45 208.89 Z" />
</g>
<g id="#7f829eff">
<path fill="#7f829e" opacity="1.00" d=" M 76.32 210.15 C 79.68 209.49 83.14 209.79 86.55 209.61 C 88.56 209.62 90.56 209.52 92.57 209.41 C 93.01 210.27 93.44 211.15 93.85 212.04 C 94.39 214.02 94.86 216.02 95.33 218.02 L 94.33 218.16 C 87.52 217.17 80.51 216.97 74.04 214.42 C 74.47 212.86 74.76 211.02 76.32 210.15 Z" />
</g>
<g id="#65697dff">
<path fill="#65697d" opacity="1.00" d=" M 45.58 210.60 L 45.95 211.19 C 46.43 213.18 46.58 215.23 46.79 217.27 C 44.08 217.27 41.36 217.32 38.67 217.69 C 33.78 218.37 28.89 217.28 24.00 217.22 C 24.39 215.55 24.76 213.87 25.17 212.21 C 31.29 215.31 38.42 215.07 45.02 214.08 C 45.16 213.21 45.44 211.47 45.58 210.60 Z" />
</g>
</svg>
