<?xml version="1.0" encoding="UTF-8" ?>
<!DOCTYPE svg PUBLIC "-//W3C//DTD SVG 1.1//EN" "http://www.w3.org/Graphics/SVG/1.1/DTD/svg11.dtd">
<svg width="185pt" height="137pt" viewBox="0 0 185 137" version="1.1" xmlns="http://www.w3.org/2000/svg">
<g id="#db6d40f2">
<path fill="#db6d40" opacity="0.95" d=" M 43.97 2.92 C 46.59 4.11 46.48 7.79 47.91 10.05 C 49.69 18.34 51.90 26.53 53.77 34.79 C 53.30 43.59 56.12 52.15 57.52 60.78 C 57.16 61.61 56.77 62.42 56.35 63.22 C 52.87 43.06 48.51 22.89 43.97 2.92 Z" />
</g>
<g id="#fcf8c1fe">
<path fill="#fcf8c1" opacity="1.00" d=" M 47.91 10.05 C 52.63 12.34 57.46 14.45 61.96 17.15 C 60.92 29.68 64.25 41.78 66.43 53.97 C 63.48 56.84 61.15 48.87 57.81 52.01 C 56.92 46.17 55.49 40.44 53.77 34.79 C 51.90 26.53 49.69 18.34 47.91 10.05 Z" />
</g>
<g id="#fafad8fd">
<path fill="#fafad8" opacity="1.00" d=" M 83.15 20.07 C 87.89 18.30 92.59 16.41 97.08 14.01 C 94.54 21.95 92.20 29.96 89.88 37.97 C 88.05 42.50 85.97 46.94 84.71 51.67 L 83.95 51.90 C 80.12 52.34 79.73 57.22 77.05 59.22 C 76.33 58.48 75.65 57.70 75.00 56.90 C 74.93 54.97 75.00 53.04 75.08 51.12 C 76.40 41.66 76.07 31.70 79.67 22.69 C 80.13 21.08 81.90 20.84 83.15 20.07 Z" />
</g>
<g id="#dfcb99fe">
<path fill="#dfcb99" opacity="1.00" d=" M 61.96 17.15 C 62.40 17.28 63.28 17.54 63.72 17.67 C 61.57 26.47 64.33 35.19 66.15 43.74 C 66.42 48.22 67.69 52.58 68.70 56.94 C 68.46 57.26 67.99 57.91 67.75 58.24 C 67.21 56.84 66.85 55.40 66.43 53.97 C 64.25 41.78 60.92 29.68 61.96 17.15 Z" />
</g>
<g id="#fefddfff">
<path fill="#fefddf" opacity="1.00" d=" M 66.15 43.74 C 64.33 35.19 61.57 26.47 63.72 17.67 C 67.14 18.24 70.28 19.85 73.71 20.35 C 75.31 21.09 78.90 20.27 77.89 23.02 C 75.86 31.83 75.07 40.87 73.94 49.83 C 73.63 50.32 73.01 51.31 72.70 51.80 C 68.54 51.13 68.61 46.28 66.15 43.74 Z" />
</g>
<g id="#eadeaffb">
<path fill="#eadeaf" opacity="1.00" d=" M 73.71 20.35 C 76.85 20.10 80.01 19.94 83.15 20.07 C 81.90 20.84 80.13 21.08 79.67 22.69 C 76.07 31.70 76.40 41.66 75.08 51.12 L 73.98 50.87 L 73.94 49.83 C 75.07 40.87 75.86 31.83 77.89 23.02 C 78.90 20.27 75.31 21.09 73.71 20.35 Z" />
</g>
<g id="#d75e38ff">
<path fill="#d75e38" opacity="1.00" d=" M 57.52 60.78 C 56.12 52.15 53.30 43.59 53.77 34.79 C 55.49 40.44 56.92 46.17 57.81 52.01 C 58.08 54.32 58.54 56.59 59.14 58.83 C 60.71 63.99 67.03 65.15 71.04 68.08 C 72.18 69.08 73.32 70.07 74.42 71.13 C 72.76 72.01 71.11 73.43 69.09 72.99 C 66.27 71.52 63.95 69.28 61.23 67.65 C 60.53 67.02 59.80 66.42 59.05 65.83 C 58.56 65.51 57.59 64.86 57.10 64.53 C 56.83 64.37 56.29 64.04 56.02 63.87 L 56.35 63.22 C 56.77 62.42 57.16 61.61 57.52 60.78 Z" />
</g>
<g id="#fdfac6ff">
<path fill="#fdfac6" opacity="1.00" d=" M 66.15 43.74 C 68.61 46.28 68.54 51.13 72.70 51.80 C 73.01 51.31 73.63 50.32 73.94 49.83 L 73.98 50.87 C 73.98 54.58 74.06 58.30 74.02 62.01 C 73.23 62.03 71.65 62.06 70.86 62.08 C 70.14 60.37 69.37 58.67 68.70 56.94 C 67.69 52.58 66.42 48.22 66.15 43.74 Z" />
</g>
<g id="#fbdea8ff">
<path fill="#fbdea8" opacity="1.00" d=" M 57.81 52.01 C 61.15 48.87 63.48 56.84 66.43 53.97 C 66.85 55.40 67.21 56.84 67.75 58.24 C 68.32 59.83 68.97 61.39 69.55 62.98 C 67.21 63.99 65.58 60.27 63.67 59.36 C 62.19 58.98 60.65 58.98 59.14 58.83 C 58.54 56.59 58.08 54.32 57.81 52.01 Z" />
</g>
<g id="#d1b68eff">
<path fill="#d1b68e" opacity="1.00" d=" M 73.98 50.87 L 75.08 51.12 C 75.00 53.04 74.93 54.97 75.00 56.90 C 74.97 59.57 75.58 62.19 75.78 64.85 C 75.17 66.75 74.83 70.83 73.28 67.28 C 73.86 65.58 74.05 63.79 74.02 62.01 C 74.06 58.30 73.98 54.58 73.98 50.87 Z" />
</g>
<g id="#f6dfb3fd">
<path fill="#f6dfb3" opacity="1.00" d=" M 77.05 59.22 C 79.73 57.22 80.12 52.34 83.95 51.90 C 83.29 55.26 82.14 58.55 80.72 61.67 C 78.76 62.67 77.28 64.31 75.89 65.97 L 75.78 64.85 C 75.58 62.19 74.97 59.57 75.00 56.90 C 75.65 57.70 76.33 58.48 77.05 59.22 Z" />
</g>
<g id="#bc9678ff">
<path fill="#bc9678" opacity="1.00" d=" M 67.75 58.24 C 67.99 57.91 68.46 57.26 68.70 56.94 C 69.37 58.67 70.14 60.37 70.86 62.08 C 71.49 63.89 72.28 65.64 73.28 67.28 C 74.83 70.83 75.17 66.75 75.78 64.85 L 75.89 65.97 C 75.39 68.91 76.75 69.46 79.12 68.10 C 79.84 71.48 76.81 71.08 74.42 71.13 C 73.32 70.07 72.18 69.08 71.04 68.08 C 70.81 66.31 70.31 64.60 69.55 62.98 C 68.97 61.39 68.32 59.83 67.75 58.24 Z" />
</g>
<g id="#ecc194ff">
<path fill="#ecc194" opacity="1.00" d=" M 59.14 58.83 C 60.65 58.98 62.19 58.98 63.67 59.36 C 65.58 60.27 67.21 63.99 69.55 62.98 C 70.31 64.60 70.81 66.31 71.04 68.08 C 67.03 65.15 60.71 63.99 59.14 58.83 Z" />
</g>
<g id="#35351973">
<path fill="#353519" opacity="0.45" d=" M 116.01 61.02 C 120.66 61.00 125.32 60.85 129.97 61.05 L 130.01 61.99 C 125.33 62.00 120.66 61.99 115.98 62.00 L 116.01 61.02 Z" />
</g>
<g id="#fbe4b1ff">
<path fill="#fbe4b1" opacity="1.00" d=" M 70.86 62.08 C 71.65 62.06 73.23 62.03 74.02 62.01 C 74.05 63.79 73.86 65.58 73.28 67.28 C 72.28 65.64 71.49 63.89 70.86 62.08 Z" />
</g>
<g id="#dcb494ff">
<path fill="#dcb494" opacity="1.00" d=" M 75.89 65.97 C 77.28 64.31 78.76 62.67 80.72 61.67 C 80.76 62.14 80.85 63.09 80.90 63.57 C 80.25 65.06 79.68 66.58 79.12 68.10 C 76.75 69.46 75.39 68.91 75.89 65.97 Z" />
</g>
<g id="#fb874bfd">
<path fill="#fb874b" opacity="1.00" d=" M 80.72 61.67 C 87.42 62.21 93.96 63.76 100.19 66.30 C 96.89 67.68 93.68 69.25 90.72 71.27 C 87.31 73.14 84.04 75.25 80.73 77.28 C 78.45 78.33 76.37 79.73 74.19 80.96 C 71.84 79.84 69.60 81.96 67.30 81.60 C 63.93 79.39 60.87 76.70 58.20 73.68 C 57.33 70.95 57.90 68.26 59.05 65.83 C 59.80 66.42 60.53 67.02 61.23 67.65 C 60.09 71.68 63.60 74.44 66.30 76.81 C 71.78 77.50 77.95 77.16 82.17 73.20 C 84.51 70.23 84.82 65.44 80.90 63.57 C 80.85 63.09 80.76 62.14 80.72 61.67 Z" />
</g>
<g id="#efdf64f7">
<path fill="#efdf64" opacity="0.97" d=" M 100.19 66.30 C 105.23 64.22 110.53 62.46 115.98 62.00 C 120.66 61.99 125.33 62.00 130.01 61.99 C 139.15 63.08 148.55 64.23 157.22 67.46 C 153.36 68.40 149.44 67.07 145.61 66.51 C 141.18 65.25 136.40 65.69 132.10 63.97 C 127.18 62.45 121.82 62.61 116.88 63.94 C 109.28 65.29 102.31 68.44 95.25 71.39 C 93.74 71.45 92.22 71.56 90.72 71.27 C 93.68 69.25 96.89 67.68 100.19 66.30 Z" />
</g>
<g id="#fbcd5cff">
<path fill="#fbcd5c" opacity="1.00" d=" M 116.88 63.94 C 121.82 62.61 127.18 62.45 132.10 63.97 C 127.02 63.93 121.95 63.95 116.88 63.94 Z" />
</g>
<g id="#fa9d54fc">
<path fill="#fa9d54" opacity="1.00" d=" M 53.27 64.67 C 53.65 63.82 54.57 63.56 56.02 63.87 C 56.29 64.04 56.83 64.37 57.10 64.53 C 54.82 67.05 54.28 70.48 54.80 73.73 C 53.46 74.07 52.10 74.33 50.75 74.65 C 50.25 74.70 49.26 74.79 48.76 74.84 C 49.31 71.04 52.30 68.16 53.27 64.67 Z" />
</g>
<g id="#fd7742ff">
<path fill="#fd7742" opacity="1.00" d=" M 79.12 68.10 C 79.68 66.58 80.25 65.06 80.90 63.57 C 84.82 65.44 84.51 70.23 82.17 73.20 C 77.95 77.16 71.78 77.50 66.30 76.81 C 63.60 74.44 60.09 71.68 61.23 67.65 C 63.95 69.28 66.27 71.52 69.09 72.99 C 71.11 73.43 72.76 72.01 74.42 71.13 C 76.81 71.08 79.84 71.48 79.12 68.10 Z" />
</g>
<g id="#d5a04ef9">
<path fill="#d5a04e" opacity="0.98" d=" M 95.25 71.39 C 102.31 68.44 109.28 65.29 116.88 63.94 C 121.95 63.95 127.02 63.93 132.10 63.97 C 136.40 65.69 141.18 65.25 145.61 66.51 C 149.44 67.07 153.36 68.40 157.22 67.46 C 160.48 66.79 159.47 75.95 153.99 70.01 C 146.28 70.07 138.85 67.73 131.26 66.68 C 126.13 65.78 120.84 65.68 115.72 66.69 C 112.41 67.37 108.94 67.72 105.84 69.15 C 101.22 71.22 96.41 72.94 92.18 75.76 C 91.62 75.53 90.51 75.08 89.96 74.85 C 91.69 73.64 93.51 72.58 95.25 71.39 Z" />
</g>
<g id="#fab461fd">
<path fill="#fab461" opacity="1.00" d=" M 45.22 68.12 C 47.62 66.45 50.31 64.99 53.27 64.67 C 52.30 68.16 49.31 71.04 48.76 74.84 C 46.93 74.85 46.73 75.36 48.14 76.36 C 46.83 76.97 45.49 77.55 44.12 78.04 C 42.62 78.45 41.23 79.17 39.88 79.93 C 41.10 75.70 45.10 72.69 45.22 68.12 Z" />
</g>
<g id="#fe914cff">
<path fill="#fe914c" opacity="1.00" d=" M 54.80 73.73 C 54.28 70.48 54.82 67.05 57.10 64.53 C 57.59 64.86 58.56 65.51 59.05 65.83 C 57.90 68.26 57.33 70.95 58.20 73.68 C 60.87 76.70 63.93 79.39 67.30 81.60 C 69.60 81.96 71.84 79.84 74.19 80.96 C 73.30 82.01 70.39 82.63 71.85 84.31 C 71.20 84.86 70.55 85.41 69.90 85.96 C 68.62 86.94 66.17 87.31 66.07 89.19 C 66.05 89.67 66.01 90.61 65.99 91.08 C 68.89 91.31 71.08 89.25 73.27 87.70 C 75.34 86.48 77.32 85.10 79.25 83.68 C 80.91 82.96 82.48 82.05 84.03 81.13 C 82.29 87.24 84.16 93.48 84.47 99.66 C 84.85 100.08 85.60 100.93 85.97 101.36 C 84.94 102.58 83.95 103.83 83.03 105.13 C 80.33 106.32 77.93 107.96 75.84 110.05 C 75.30 109.30 74.74 108.56 74.16 107.83 C 70.67 101.62 62.65 100.36 56.81 103.69 C 52.65 105.77 49.42 109.54 47.85 113.91 C 44.79 115.00 42.88 117.75 43.69 121.02 C 43.25 120.77 42.37 120.27 41.93 120.01 C 40.67 113.92 45.93 110.30 48.78 105.78 C 52.02 100.39 57.33 97.03 61.64 92.64 C 60.45 89.31 57.33 86.79 58.57 82.88 C 60.66 77.81 55.50 73.92 50.75 74.65 C 52.10 74.33 53.46 74.07 54.80 73.73 Z" />
</g>
<g id="#27210f67">
<path fill="#27210f" opacity="0.40" d=" M 115.72 66.69 C 120.84 65.68 126.13 65.78 131.26 66.68 C 126.10 66.94 120.87 67.40 115.72 66.69 Z" />
</g>
<g id="#f6dd6afa">
<path fill="#f6dd6a" opacity="0.98" d=" M 29.76 82.74 C 33.35 76.52 37.95 70.05 45.22 68.12 C 45.10 72.69 41.10 75.70 39.88 79.93 C 38.44 82.51 37.00 85.09 35.59 87.68 C 29.92 92.34 33.11 100.82 31.52 107.20 C 30.94 105.84 30.02 104.55 30.04 103.01 C 29.88 100.56 29.67 98.11 29.39 95.67 C 29.60 93.41 29.79 91.14 29.97 88.88 C 30.05 88.43 30.21 87.55 30.28 87.11 C 30.47 86.57 30.83 85.49 31.02 84.96 C 27.21 84.71 23.64 86.46 20.86 88.95 C 19.90 89.70 19.01 90.53 18.13 91.37 C 16.98 91.03 16.18 90.31 15.73 89.22 C 20.15 86.55 24.95 84.59 29.76 82.74 Z" />
</g>
<g id="#fe9053ff">
<path fill="#fe9053" opacity="1.00" d=" M 92.18 75.76 C 96.41 72.94 101.22 71.22 105.84 69.15 C 107.28 70.05 108.67 71.03 110.01 72.07 L 109.86 72.82 C 101.93 82.35 95.61 93.33 85.97 101.36 C 85.60 100.93 84.85 100.08 84.47 99.66 C 84.16 93.48 82.29 87.24 84.03 81.13 C 86.84 79.48 89.55 77.67 92.18 75.76 Z" />
</g>
<g id="#fed95eff">
<path fill="#fed95e" opacity="1.00" d=" M 80.73 77.28 C 84.04 75.25 87.31 73.14 90.72 71.27 C 92.22 71.56 93.74 71.45 95.25 71.39 C 93.51 72.58 91.69 73.64 89.96 74.85 C 88.74 75.69 87.56 76.59 86.28 77.36 C 84.44 77.57 82.53 77.94 80.73 77.28 Z" />
</g>
<g id="#f6784afd">
<path fill="#f6784a" opacity="1.00" d=" M 110.01 72.07 C 113.95 75.28 119.65 78.51 119.85 84.26 L 119.07 84.21 C 117.63 83.12 116.22 81.98 114.82 80.85 C 111.68 77.46 113.40 84.81 111.72 86.72 C 107.43 90.26 103.16 93.88 99.61 98.17 C 98.34 96.83 96.93 95.61 95.93 94.05 C 99.50 88.68 103.22 83.38 107.72 78.74 C 109.32 77.22 109.36 74.84 109.86 72.82 L 110.01 72.07 Z" />
</g>
<g id="#b44d2dff">
<path fill="#b44d2d" opacity="1.00" d=" M 85.97 101.36 C 95.61 93.33 101.93 82.35 109.86 72.82 C 109.36 74.84 109.32 77.22 107.72 78.74 C 103.22 83.38 99.50 88.68 95.93 94.05 C 96.93 95.61 98.34 96.83 99.61 98.17 L 99.90 99.02 L 98.97 99.03 L 98.26 99.01 C 97.15 97.70 96.03 96.39 94.79 95.19 C 90.44 97.73 87.98 103.29 83.03 105.13 C 83.95 103.83 84.94 102.58 85.97 101.36 Z" />
</g>
<g id="#c56f48ff">
<path fill="#c56f48" opacity="1.00" d=" M 48.14 76.36 C 46.73 75.36 46.93 74.85 48.76 74.84 C 49.26 74.79 50.25 74.70 50.75 74.65 C 55.50 73.92 60.66 77.81 58.57 82.88 C 56.52 85.68 54.44 88.77 51.13 90.17 C 53.55 86.46 59.46 82.64 56.08 77.57 C 55.48 76.89 54.78 76.34 53.98 75.92 C 52.03 75.91 50.08 76.09 48.14 76.36 Z" />
</g>
<g id="#c98840ff">
<path fill="#c98840" opacity="1.00" d=" M 86.28 77.36 C 87.56 76.59 88.74 75.69 89.96 74.85 C 90.51 75.08 91.62 75.53 92.18 75.76 C 89.55 77.67 86.84 79.48 84.03 81.13 C 82.48 82.05 80.91 82.96 79.25 83.68 C 76.01 83.52 73.06 85.40 69.90 85.96 C 70.55 85.41 71.20 84.86 71.85 84.31 C 76.52 81.71 81.78 80.25 86.28 77.36 Z" />
</g>
<g id="#eae9e9ff">
<path fill="#eae9e9" opacity="1.00" d=" M 48.14 76.36 C 50.08 76.09 52.03 75.91 53.98 75.92 C 54.02 84.71 45.97 88.56 38.94 91.08 C 38.60 90.50 37.92 89.33 37.57 88.75 C 37.85 84.27 41.28 81.14 44.12 78.04 C 45.49 77.55 46.83 76.97 48.14 76.36 M 45.16 83.16 C 44.64 84.79 45.21 85.35 46.84 84.84 C 47.36 83.21 46.79 82.64 45.16 83.16 Z" />
</g>
<g id="#d1d0d0ff">
<path fill="#d1d0d0" opacity="1.00" d=" M 53.98 75.92 C 54.78 76.34 55.48 76.89 56.08 77.57 C 53.89 82.61 50.90 87.17 47.10 91.15 C 44.80 91.21 40.76 93.30 38.94 91.08 C 45.97 88.56 54.02 84.71 53.98 75.92 Z" />
</g>
<g id="#fcb94eff">
<path fill="#fcb94e" opacity="1.00" d=" M 74.19 80.96 C 76.37 79.73 78.45 78.33 80.73 77.28 C 82.53 77.94 84.44 77.57 86.28 77.36 C 81.78 80.25 76.52 81.71 71.85 84.31 C 70.39 82.63 73.30 82.01 74.19 80.96 Z" />
</g>
<g id="#ee9f67ff">
<path fill="#ee9f67" opacity="1.00" d=" M 39.88 79.93 C 41.23 79.17 42.62 78.45 44.12 78.04 C 41.28 81.14 37.85 84.27 37.57 88.75 C 37.35 89.37 36.91 90.61 36.69 91.23 C 36.30 90.06 35.93 88.87 35.59 87.68 C 37.00 85.09 38.44 82.51 39.88 79.93 Z" />
</g>
<g id="#bec0c0ff">
<path fill="#bec0c0" opacity="1.00" d=" M 47.10 91.15 C 50.90 87.17 53.89 82.61 56.08 77.57 C 59.46 82.64 53.55 86.46 51.13 90.17 C 49.77 90.46 48.44 90.81 47.10 91.15 Z" />
</g>
<g id="#e96d46ff">
<path fill="#e96d46" opacity="1.00" d=" M 111.72 86.72 C 113.40 84.81 111.68 77.46 114.82 80.85 C 115.09 90.12 107.01 95.17 100.75 100.37 C 100.54 100.03 100.11 99.36 99.90 99.02 L 99.61 98.17 C 103.16 93.88 107.43 90.26 111.72 86.72 Z" />
</g>
<g id="#dc6540ff">
<path fill="#dc6540" opacity="1.00" d=" M 100.75 100.37 C 107.01 95.17 115.09 90.12 114.82 80.85 C 116.22 81.98 117.63 83.12 119.07 84.21 C 118.87 84.62 118.48 85.42 118.28 85.82 C 115.92 85.01 111.56 82.80 114.94 90.00 C 115.07 93.81 111.11 95.53 108.83 97.84 C 106.45 99.78 104.81 102.50 102.18 104.14 C 101.65 102.90 101.18 101.64 100.75 100.37 Z" />
</g>
<g id="#562726ff">
<path fill="#562726" opacity="1.00" d=" M 45.16 83.16 C 46.79 82.64 47.36 83.21 46.84 84.84 C 45.21 85.35 44.64 84.79 45.16 83.16 Z" />
<path fill="#562726" opacity="1.00" d=" M 55.78 110.78 C 58.12 108.53 60.98 106.85 64.01 105.73 C 64.31 106.26 64.90 107.32 65.19 107.85 C 65.08 110.56 64.86 115.96 64.74 118.67 C 62.54 120.31 60.33 121.95 57.92 123.30 C 53.91 120.44 54.91 114.99 55.78 110.78 Z" />
</g>
<g id="#fe9a51ff">
<path fill="#fe9a51" opacity="1.00" d=" M 58.57 82.88 C 57.33 86.79 60.45 89.31 61.64 92.64 C 57.33 97.03 52.02 100.39 48.78 105.78 C 45.93 110.30 40.67 113.92 41.93 120.01 C 40.90 120.08 38.98 119.69 39.23 118.32 C 38.72 109.25 45.58 102.66 48.99 94.92 C 48.77 94.36 48.33 93.23 48.11 92.66 C 49.13 91.85 50.14 91.02 51.13 90.17 C 54.44 88.77 56.52 85.68 58.57 82.88 Z" />
</g>
<g id="#ab622dff">
<path fill="#ab622d" opacity="1.00" d=" M 69.90 85.96 C 73.06 85.40 76.01 83.52 79.25 83.68 C 77.32 85.10 75.34 86.48 73.27 87.70 C 70.77 86.97 68.49 88.85 66.07 89.19 C 66.17 87.31 68.62 86.94 69.90 85.96 Z" />
</g>
<g id="#f4d35bfb">
<path fill="#f4d35b" opacity="1.00" d=" M 119.07 84.21 L 119.85 84.26 C 125.72 88.49 133.00 92.84 136.73 98.93 C 135.95 101.32 137.79 103.34 138.84 105.32 L 139.28 106.39 C 136.68 106.58 135.26 103.60 133.24 102.35 C 129.19 98.97 124.48 96.53 120.03 93.75 C 116.41 92.60 116.43 88.75 118.28 85.82 C 118.48 85.42 118.87 84.62 119.07 84.21 Z" />
</g>
<g id="#f9c154ff">
<path fill="#f9c154" opacity="1.00" d=" M 20.86 88.95 C 23.64 86.46 27.21 84.71 31.02 84.96 C 30.83 85.49 30.47 86.57 30.28 87.11 C 27.06 87.30 24.05 88.59 20.86 88.95 Z" />
</g>
<g id="#ce6340fd">
<path fill="#ce6340" opacity="1.00" d=" M 114.94 90.00 C 111.56 82.80 115.92 85.01 118.28 85.82 C 116.43 88.75 116.41 92.60 120.03 93.75 C 117.80 93.80 117.61 96.18 116.89 97.78 L 116.16 97.61 C 114.03 96.35 113.44 100.89 112.07 101.04 C 110.53 103.60 107.87 105.85 108.01 109.12 C 107.28 110.05 106.53 110.96 105.76 111.86 C 104.79 112.78 103.83 113.70 102.98 114.73 C 104.08 115.04 105.19 115.36 106.30 115.67 C 104.57 115.93 102.82 116.05 101.08 116.02 C 101.21 115.56 101.48 114.62 101.61 114.15 C 102.45 110.94 103.59 107.34 102.18 104.14 C 104.81 102.50 106.45 99.78 108.83 97.84 C 111.11 95.53 115.07 93.81 114.94 90.00 Z" />
</g>
<g id="#ca9247f8">
<path fill="#ca9247" opacity="0.97" d=" M 20.86 88.95 C 24.05 88.59 27.06 87.30 30.28 87.11 C 30.21 87.55 30.05 88.43 29.97 88.88 C 27.50 88.88 25.20 89.70 23.12 90.99 C 21.29 91.26 19.49 91.69 17.65 91.87 L 18.13 91.37 C 19.01 90.53 19.90 89.70 20.86 88.95 Z" />
</g>
<g id="#8d431dff">
<path fill="#8d431d" opacity="1.00" d=" M 66.07 89.19 C 68.49 88.85 70.77 86.97 73.27 87.70 C 71.08 89.25 68.89 91.31 65.99 91.08 C 66.01 90.61 66.05 89.67 66.07 89.19 Z" />
</g>
<g id="#fbbb66fd">
<path fill="#fbbb66" opacity="1.00" d=" M 31.52 107.20 C 33.11 100.82 29.92 92.34 35.59 87.68 C 35.93 88.87 36.30 90.06 36.69 91.23 L 36.94 92.06 C 37.24 99.47 36.30 106.85 35.47 114.20 C 33.71 112.23 31.77 109.87 31.52 107.20 Z" />
</g>
<g id="#d7c354ee">
<path fill="#d7c354" opacity="0.93" d=" M 3.78 95.90 C 7.40 93.11 11.58 91.11 15.73 89.22 C 16.18 90.31 16.98 91.03 18.13 91.37 L 17.65 91.87 C 13.47 94.00 8.59 95.97 3.78 95.90 Z" />
</g>
<g id="#dcb958f2">
<path fill="#dcb958" opacity="0.95" d=" M 23.12 90.99 C 25.20 89.70 27.50 88.88 29.97 88.88 C 29.79 91.14 29.60 93.41 29.39 95.67 C 29.10 95.91 28.51 96.40 28.21 96.64 C 21.67 100.21 15.40 105.90 7.89 107.01 C 12.51 101.29 18.44 96.69 23.12 90.99 Z" />
</g>
<g id="#d97a4fff">
<path fill="#d97a4f" opacity="1.00" d=" M 36.69 91.23 C 36.91 90.61 37.35 89.37 37.57 88.75 C 37.92 89.33 38.60 90.50 38.94 91.08 C 40.76 93.30 44.80 91.21 47.10 91.15 C 48.44 90.81 49.77 90.46 51.13 90.17 C 50.14 91.02 49.13 91.85 48.11 92.66 C 44.41 94.40 40.46 93.97 36.94 92.06 L 36.69 91.23 Z" />
</g>
<g id="#fda65bfe">
<path fill="#fda65b" opacity="1.00" d=" M 36.94 92.06 C 40.46 93.97 44.41 94.40 48.11 92.66 C 48.33 93.23 48.77 94.36 48.99 94.92 C 45.58 102.66 38.72 109.25 39.23 118.32 C 37.91 117.19 35.54 116.03 35.47 114.20 C 36.30 106.85 37.24 99.47 36.94 92.06 Z" />
</g>
<g id="#0f0a0527">
<path fill="#0f0a05" opacity="0.15" d=" M 116.89 97.78 C 117.61 96.18 117.80 93.80 120.03 93.75 C 124.48 96.53 129.19 98.97 133.24 102.35 C 131.34 103.02 129.62 101.74 127.88 101.19 C 124.31 99.76 120.55 98.92 116.89 97.78 Z" />
</g>
<g id="#fa7b4aff">
<path fill="#fa7b4a" opacity="1.00" d=" M 83.03 105.13 C 87.98 103.29 90.44 97.73 94.79 95.19 C 96.03 96.39 97.15 97.70 98.26 99.01 C 93.88 107.16 84.94 110.92 77.84 116.27 C 77.63 115.88 77.20 115.09 76.98 114.69 C 76.74 113.37 76.41 112.08 76.03 110.80 L 75.84 110.05 C 78.46 108.74 80.86 107.10 83.03 105.13 Z" />
</g>
<g id="#83743bb8">
<path fill="#83743b" opacity="0.72" d=" M 28.21 96.64 C 28.51 96.40 29.10 95.91 29.39 95.67 C 29.67 98.11 29.88 100.56 30.04 103.01 C 27.79 102.56 29.83 98.38 28.21 96.64 Z" />
</g>
<g id="#d97550ff">
<path fill="#d97550" opacity="1.00" d=" M 112.07 101.04 C 113.44 100.89 114.03 96.35 116.16 97.61 C 115.75 98.68 115.36 99.76 114.99 100.85 C 114.71 101.30 114.16 102.21 113.89 102.67 C 113.27 103.39 112.68 104.13 112.11 104.89 C 111.30 105.95 110.48 107.01 109.66 108.06 C 109.25 108.33 108.42 108.85 108.01 109.12 C 107.87 105.85 110.53 103.60 112.07 101.04 Z" />
</g>
<g id="#e0683cf8">
<path fill="#e0683c" opacity="0.97" d=" M 116.16 97.61 L 116.89 97.78 C 120.55 98.92 124.31 99.76 127.88 101.19 C 129.62 101.74 131.34 103.02 133.24 102.35 C 135.26 103.60 136.68 106.58 139.28 106.39 C 140.55 106.31 141.19 107.93 142.18 108.54 C 139.32 109.56 136.70 107.81 134.03 107.03 C 128.03 104.04 121.68 101.69 114.99 100.85 C 115.36 99.76 115.75 98.68 116.16 97.61 Z" />
</g>
<g id="#e76b45ff">
<path fill="#e76b45" opacity="1.00" d=" M 98.26 99.01 L 98.97 99.03 C 99.24 100.71 99.78 102.31 100.35 103.91 C 93.12 108.88 86.42 115.10 78.07 118.19 C 78.01 117.71 77.90 116.75 77.84 116.27 C 84.94 110.92 93.88 107.16 98.26 99.01 Z" />
</g>
<g id="#9c422aff">
<path fill="#9c422a" opacity="1.00" d=" M 98.97 99.03 L 99.90 99.02 C 100.11 99.36 100.54 100.03 100.75 100.37 C 101.18 101.64 101.65 102.90 102.18 104.14 C 103.59 107.34 102.45 110.94 101.61 114.15 C 101.35 113.06 101.12 111.96 100.91 110.86 C 101.19 108.46 101.00 106.14 100.35 103.91 C 99.78 102.31 99.24 100.71 98.97 99.03 Z" />
</g>
<g id="#b99147e1">
<path fill="#b99147" opacity="0.88" d=" M 136.73 98.93 C 139.50 100.06 141.46 102.90 142.12 105.79 C 141.03 105.62 139.94 105.46 138.84 105.32 C 137.79 103.34 135.95 101.32 136.73 98.93 Z" />
</g>
<g id="#b85237ff">
<path fill="#b85237" opacity="1.00" d=" M 114.99 100.85 C 121.68 101.69 128.03 104.04 134.03 107.03 L 133.76 108.16 C 130.90 107.51 128.16 106.47 125.31 105.78 C 122.25 104.93 119.18 104.17 116.02 103.88 C 115.49 103.58 114.42 102.97 113.89 102.67 C 114.16 102.21 114.71 101.30 114.99 100.85 Z" />
</g>
<g id="#fee0b0ff">
<path fill="#fee0b0" opacity="1.00" d=" M 56.81 103.69 C 62.65 100.36 70.67 101.62 74.16 107.83 C 70.72 111.11 72.03 117.03 68.25 120.29 C 67.97 117.02 67.62 113.75 66.35 110.71 C 66.04 109.73 65.65 108.77 65.19 107.85 C 64.90 107.32 64.31 106.26 64.01 105.73 C 61.94 103.49 58.29 107.21 56.24 108.24 C 50.98 111.87 52.60 119.01 50.29 124.30 L 49.19 124.05 C 49.17 123.59 49.14 122.67 49.13 122.21 C 49.46 117.30 51.24 112.70 53.33 108.32 C 55.10 106.73 57.23 105.60 59.09 104.11 C 58.52 104.01 57.38 103.80 56.81 103.69 Z" />
</g>
<g id="#a7857aff">
<path fill="#a7857a" opacity="1.00" d=" M 112.11 104.89 C 112.68 104.13 113.27 103.39 113.89 102.67 C 114.42 102.97 115.49 103.58 116.02 103.88 C 117.51 105.22 119.08 106.47 120.87 107.38 C 121.58 108.24 123.09 108.98 122.24 110.27 C 118.97 108.31 116.15 105.07 112.11 104.89 Z" />
</g>
<g id="#ffeec3ff">
<path fill="#ffeec3" opacity="1.00" d=" M 47.85 113.91 C 49.42 109.54 52.65 105.77 56.81 103.69 C 57.38 103.80 58.52 104.01 59.09 104.11 C 57.23 105.60 55.10 106.73 53.33 108.32 C 51.24 112.70 49.46 117.30 49.13 122.21 C 48.60 119.46 48.21 116.67 47.85 113.91 Z" />
</g>
<g id="#d5603fff">
<path fill="#d5603f" opacity="1.00" d=" M 100.35 103.91 C 101.00 106.14 101.19 108.46 100.91 110.86 C 93.62 114.99 85.73 117.78 78.09 121.16 C 78.08 120.41 78.07 118.93 78.07 118.19 C 86.42 115.10 93.12 108.88 100.35 103.91 Z" />
</g>
<g id="#be9a8eff">
<path fill="#be9a8e" opacity="1.00" d=" M 116.02 103.88 C 119.18 104.17 122.25 104.93 125.31 105.78 C 123.86 106.38 122.38 106.94 120.87 107.38 C 119.08 106.47 117.51 105.22 116.02 103.88 Z" />
</g>
<g id="#e5a791fe">
<path fill="#e5a791" opacity="1.00" d=" M 56.24 108.24 C 58.29 107.21 61.94 103.49 64.01 105.73 C 60.98 106.85 58.12 108.53 55.78 110.78 C 51.98 114.79 54.11 121.30 52.35 126.32 C 51.02 125.93 50.33 125.26 50.29 124.30 C 52.60 119.01 50.98 111.87 56.24 108.24 Z" />
</g>
<g id="#ba4c28ff">
<path fill="#ba4c28" opacity="1.00" d=" M 75.84 110.05 C 77.93 107.96 80.33 106.32 83.03 105.13 C 80.86 107.10 78.46 108.74 75.84 110.05 Z" />
</g>
<g id="#d2b6a7ff">
<path fill="#d2b6a7" opacity="1.00" d=" M 112.11 104.89 C 116.15 105.07 118.97 108.31 122.24 110.27 C 122.62 110.48 123.40 110.90 123.79 111.11 C 124.14 111.57 124.84 112.47 125.19 112.93 C 119.78 112.33 114.31 110.96 109.66 108.06 C 110.48 107.01 111.30 105.95 112.11 104.89 Z" />
</g>
<g id="#c5ac9ffa">
<path fill="#c5ac9f" opacity="0.98" d=" M 120.87 107.38 C 122.38 106.94 123.86 106.38 125.31 105.78 C 128.16 106.47 130.90 107.51 133.76 108.16 C 135.85 109.41 138.02 110.51 140.12 111.75 C 140.70 113.99 142.09 115.76 144.10 116.91 C 140.06 116.90 136.02 116.93 131.99 117.03 C 132.64 121.53 137.65 119.66 141.00 120.06 L 141.00 121.01 C 137.90 119.84 130.43 123.05 129.02 120.05 C 129.75 120.02 131.22 119.97 131.95 119.94 C 131.43 119.02 130.87 118.14 130.34 117.24 C 129.52 114.34 126.98 111.32 123.79 111.11 C 123.40 110.90 122.62 110.48 122.24 110.27 C 123.09 108.98 121.58 108.24 120.87 107.38 Z" />
</g>
<g id="#c15b3af4">
<path fill="#c15b3a" opacity="0.96" d=" M 134.03 107.03 C 136.70 107.81 139.32 109.56 142.18 108.54 C 145.32 109.31 147.65 112.74 150.41 114.53 C 152.89 116.11 155.14 118.19 156.00 121.09 C 153.66 120.90 152.40 118.63 150.35 117.73 C 147.04 115.57 143.76 113.34 140.12 111.75 C 138.02 110.51 135.85 109.41 133.76 108.16 L 134.03 107.03 Z" />
</g>
<g id="#86453aff">
<path fill="#86453a" opacity="1.00" d=" M 65.19 107.85 C 65.65 108.77 66.04 109.73 66.35 110.71 C 66.04 114.61 65.09 118.98 67.82 122.24 C 67.95 123.17 68.76 124.15 68.31 125.08 L 67.36 124.90 C 64.56 124.31 61.71 124.03 58.85 124.15 C 58.62 123.93 58.16 123.51 57.92 123.30 C 60.33 121.95 62.54 120.31 64.74 118.67 C 64.86 115.96 65.08 110.56 65.19 107.85 Z" />
</g>
<g id="#f2baa3fd">
<path fill="#f2baa3" opacity="1.00" d=" M 74.16 107.83 C 74.74 108.56 75.30 109.30 75.84 110.05 L 76.03 110.80 C 72.01 112.08 73.69 116.92 71.78 119.85 C 70.77 122.12 68.37 126.67 70.80 127.94 C 71.41 128.14 72.62 128.55 73.23 128.75 C 71.70 128.59 68.64 128.26 67.10 128.10 C 67.52 127.10 67.92 126.09 68.31 125.08 C 68.76 124.15 67.95 123.17 67.82 122.24 C 67.93 121.75 68.14 120.78 68.25 120.29 C 72.03 117.03 70.72 111.11 74.16 107.83 Z" />
</g>
<g id="#dec9b5ff">
<path fill="#dec9b5" opacity="1.00" d=" M 108.01 109.12 C 108.42 108.85 109.25 108.33 109.66 108.06 C 114.31 110.96 119.78 112.33 125.19 112.93 C 126.66 114.21 128.03 115.60 129.39 116.99 C 121.25 116.99 113.56 113.78 105.76 111.86 C 106.53 110.96 107.28 110.05 108.01 109.12 Z" />
</g>
<g id="#b2776efa">
<path fill="#b2776e" opacity="0.98" d=" M 52.35 126.32 C 54.11 121.30 51.98 114.79 55.78 110.78 C 54.91 114.99 53.91 120.44 57.92 123.30 C 58.16 123.51 58.62 123.93 58.85 124.15 C 59.28 125.41 59.72 126.68 60.13 127.95 C 57.82 127.63 53.17 128.55 52.35 126.32 Z" />
</g>
<g id="#f9a98eff">
<path fill="#f9a98e" opacity="1.00" d=" M 66.35 110.71 C 67.62 113.75 67.97 117.02 68.25 120.29 C 68.14 120.78 67.93 121.75 67.82 122.24 C 65.09 118.98 66.04 114.61 66.35 110.71 Z" />
</g>
<g id="#d79b91ff">
<path fill="#d79b91" opacity="1.00" d=" M 71.78 119.85 C 73.69 116.92 72.01 112.08 76.03 110.80 C 76.41 112.08 76.74 113.37 76.98 114.69 C 73.53 118.23 72.71 123.50 70.80 127.94 C 68.37 126.67 70.77 122.12 71.78 119.85 Z" />
</g>
<g id="#c45a3afe">
<path fill="#c45a3a" opacity="1.00" d=" M 78.09 121.16 C 85.73 117.78 93.62 114.99 100.91 110.86 C 101.12 111.96 101.35 113.06 101.61 114.15 C 101.48 114.62 101.21 115.56 101.08 116.02 C 100.35 117.27 99.48 118.42 98.70 119.63 C 96.47 120.18 94.40 121.22 92.69 122.75 C 92.05 122.77 90.78 122.81 90.15 122.83 C 86.11 121.22 82.14 124.14 78.03 124.13 C 78.05 123.39 78.07 121.90 78.09 121.16 Z" />
</g>
<g id="#ac9487ff">
<path fill="#ac9487" opacity="1.00" d=" M 123.79 111.11 C 126.98 111.32 129.52 114.34 130.34 117.24 L 129.39 116.99 C 128.03 115.60 126.66 114.21 125.19 112.93 C 124.84 112.47 124.14 111.57 123.79 111.11 Z" />
</g>
<g id="#ebede1fb">
<path fill="#ebede1" opacity="1.00" d=" M 102.98 114.73 C 103.83 113.70 104.79 112.78 105.76 111.86 C 113.56 113.78 121.25 116.99 129.39 116.99 L 130.34 117.24 C 130.87 118.14 131.43 119.02 131.95 119.94 C 131.22 119.97 129.75 120.02 129.02 120.05 C 121.21 120.00 113.92 116.92 106.30 115.67 C 105.19 115.36 104.08 115.04 102.98 114.73 Z" />
</g>
<g id="#b49a92fa">
<path fill="#b49a92" opacity="0.98" d=" M 140.12 111.75 C 143.76 113.34 147.04 115.57 150.35 117.73 C 149.89 119.14 148.83 119.47 147.17 118.71 C 146.14 118.11 145.12 117.51 144.10 116.91 C 142.09 115.76 140.70 113.99 140.12 111.75 Z" />
</g>
<g id="#fa7f4efe">
<path fill="#fa7f4e" opacity="1.00" d=" M 43.69 121.02 C 42.88 117.75 44.79 115.00 47.85 113.91 C 48.21 116.67 48.60 119.46 49.13 122.21 C 49.14 122.67 49.17 123.59 49.19 124.05 C 47.38 123.04 45.06 122.60 43.69 121.02 Z" />
</g>
<g id="#c78b81fe">
<path fill="#c78b81" opacity="1.00" d=" M 70.80 127.94 C 72.71 123.50 73.53 118.23 76.98 114.69 C 77.20 115.09 77.63 115.88 77.84 116.27 C 77.90 116.75 78.01 117.71 78.07 118.19 C 78.07 118.93 78.08 120.41 78.09 121.16 C 78.07 121.90 78.05 123.39 78.03 124.13 C 78.00 124.53 77.93 125.33 77.89 125.74 C 77.63 126.02 77.10 126.58 76.84 126.86 C 75.86 127.50 74.87 128.13 73.88 128.76 L 73.23 128.75 C 72.62 128.55 71.41 128.14 70.80 127.94 Z" />
</g>
<g id="#dde2d8fd">
<path fill="#dde2d8" opacity="1.00" d=" M 131.99 117.03 C 136.02 116.93 140.06 116.90 144.10 116.91 C 145.12 117.51 146.14 118.11 147.17 118.71 C 145.22 119.57 143.17 120.26 141.00 120.06 C 137.65 119.66 132.64 121.53 131.99 117.03 Z" />
</g>
<g id="#e3e1dbf2">
<path fill="#e3e1db" opacity="0.95" d=" M 92.69 122.75 C 94.40 121.22 96.47 120.18 98.70 119.63 C 101.91 120.09 105.01 121.11 108.26 121.34 C 104.09 121.92 99.82 121.68 95.71 122.63 C 94.95 122.66 93.44 122.72 92.69 122.75 Z" />
</g>
<g id="#3f3f3f7e">
<path fill="#3f3f3f" opacity="0.49" d=" M 108.26 121.34 C 109.83 121.52 112.45 121.38 113.13 123.00 C 107.33 122.88 101.47 123.43 95.71 122.63 C 99.82 121.68 104.09 121.92 108.26 121.34 Z" />
</g>
<g id="#98422af3">
<path fill="#98422a" opacity="0.95" d=" M 78.03 124.13 C 82.14 124.14 86.11 121.22 90.15 122.83 C 89.24 124.85 86.20 125.05 84.19 125.56 C 82.09 125.55 79.99 125.61 77.89 125.74 C 77.93 125.33 78.00 124.53 78.03 124.13 Z" />
</g>
<g id="#ead061f7">
<path fill="#ead061" opacity="0.97" d=" M 119.36 128.54 C 125.89 127.87 131.61 124.18 138.00 123.00 C 139.51 122.58 140.58 123.60 141.09 124.91 C 137.20 126.79 133.39 129.30 129.04 129.96 C 117.22 130.37 105.42 133.24 93.57 131.64 C 88.44 131.37 87.56 130.78 90.93 129.88 C 100.43 130.20 109.97 130.22 119.36 128.54 Z" />
</g>
<g id="#cd8874ff">
<path fill="#cd8874" opacity="1.00" d=" M 58.85 124.15 C 61.71 124.03 64.56 124.31 67.36 124.90 C 65.51 124.91 63.67 124.98 61.83 125.10 C 63.34 125.96 64.89 126.74 66.36 127.69 C 64.30 128.00 62.21 128.13 60.13 127.95 C 59.72 126.68 59.28 125.41 58.85 124.15 Z" />
</g>
<g id="#f2a27aff">
<path fill="#f2a27a" opacity="1.00" d=" M 61.83 125.10 C 63.67 124.98 65.51 124.91 67.36 124.90 L 68.31 125.08 C 67.92 126.09 67.52 127.10 67.10 128.10 L 66.36 127.69 C 64.89 126.74 63.34 125.96 61.83 125.10 Z" />
</g>
<g id="#b67236fb">
<path fill="#b67236" opacity="1.00" d=" M 77.89 125.74 C 79.99 125.61 82.09 125.55 84.19 125.56 C 82.55 126.16 79.06 125.14 79.97 127.98 C 81.21 131.26 86.83 129.31 87.97 133.05 C 84.71 132.96 81.10 132.66 78.29 130.96 C 78.92 129.32 77.73 128.09 76.84 126.86 C 77.10 126.58 77.63 126.02 77.89 125.74 Z" />
</g>
<g id="#96562bef">
<path fill="#96562b" opacity="0.94" d=" M 73.88 128.76 C 74.87 128.13 75.86 127.50 76.84 126.86 C 77.73 128.09 78.92 129.32 78.29 130.96 C 76.70 130.50 75.25 129.67 73.88 128.76 Z" />
</g>
<g id="#c89146f7">
<path fill="#c89146" opacity="0.97" d=" M 79.97 127.98 C 83.16 128.61 89.50 127.29 90.93 129.88 C 87.56 130.78 88.44 131.37 93.57 131.64 C 105.42 133.24 117.22 130.37 129.04 129.96 L 128.88 130.88 C 122.06 132.70 115.06 133.88 108.00 134.02 C 102.33 133.99 96.65 134.00 90.98 134.02 C 89.67 134.28 88.67 133.96 87.97 133.05 C 86.83 129.31 81.21 131.26 79.97 127.98 Z" />
</g>
<g id="#3327137c">
<path fill="#332713" opacity="0.49" d=" M 90.98 134.02 C 96.65 134.00 102.33 133.99 108.00 134.02 L 107.99 134.98 C 102.34 135.00 96.68 135.15 91.03 134.97 L 90.98 134.02 Z" />
</g>
</svg>
