<?xml version="1.0" encoding="UTF-8" ?>
<!DOCTYPE svg PUBLIC "-//W3C//DTD SVG 1.1//EN" "http://www.w3.org/Graphics/SVG/1.1/DTD/svg11.dtd">
<svg width="201pt" height="214pt" viewBox="0 0 201 214" version="1.1" xmlns="http://www.w3.org/2000/svg">
<g id="#dce2e7f8">
<path fill="#dce2e7" opacity="0.97" d=" M 76.16 5.12 C 79.60 4.02 77.74 9.10 76.72 10.72 C 72.78 18.24 70.21 26.37 66.93 34.19 C 65.60 33.03 63.39 31.92 64.91 29.97 C 69.49 22.08 71.60 12.97 76.16 5.12 Z" />
</g>
<g id="#8397aef6">
<path fill="#8397ae" opacity="0.96" d=" M 66.93 34.19 C 70.21 26.37 72.78 18.24 76.72 10.72 C 76.00 17.51 73.97 24.56 71.81 30.83 C 70.18 31.94 68.55 33.06 66.93 34.19 Z" />
</g>
<g id="#9fc2cdf7">
<path fill="#9fc2cd" opacity="0.97" d=" M 77.43 26.69 C 77.50 25.00 79.78 23.94 81.02 22.89 C 80.84 26.89 78.91 30.60 76.86 33.94 C 76.35 33.91 75.34 33.85 74.84 33.82 C 75.70 31.47 78.37 29.38 77.43 26.69 Z" />
</g>
<g id="#408aa0e7">
<path fill="#408aa0" opacity="0.91" d=" M 45.21 24.95 C 46.31 25.55 47.34 26.32 46.70 27.71 C 45.14 33.93 46.31 41.17 43.86 46.94 L 42.94 47.04 C 42.91 42.94 44.50 38.78 43.46 34.74 C 43.09 31.44 44.72 28.21 45.21 24.95 Z" />
</g>
<g id="#e9edf1fa">
<path fill="#e9edf1" opacity="0.98" d=" M 73.00 36.06 C 72.44 32.41 74.82 28.90 77.43 26.69 C 78.37 29.38 75.70 31.47 74.84 33.82 C 74.26 34.59 73.64 35.34 73.00 36.06 Z" />
</g>
<g id="#e1fcfeff">
<path fill="#e1fcfe" opacity="1.00" d=" M 60.00 30.03 C 59.42 29.13 62.84 26.81 61.83 28.82 C 60.31 35.23 61.91 41.95 60.36 48.33 C 60.01 42.23 59.94 36.13 60.00 30.03 Z" />
</g>
<g id="#9ec4e7ff">
<path fill="#9ec4e7" opacity="1.00" d=" M 61.83 28.82 L 62.95 28.99 L 62.92 30.02 C 61.81 36.31 61.96 42.70 61.98 49.06 C 61.53 49.09 60.63 49.16 60.18 49.20 L 60.36 48.33 C 61.91 41.95 60.31 35.23 61.83 28.82 Z" />
</g>
<g id="#1717164a">
<path fill="#171716" opacity="0.29" d=" M 59.04 30.01 L 60.00 30.03 C 59.94 36.13 60.01 42.23 60.36 48.33 L 59.18 48.08 C 58.85 42.07 58.90 36.03 59.04 30.01 Z" />
</g>
<g id="#849ab7fa">
<path fill="#849ab7" opacity="0.98" d=" M 62.92 30.02 C 63.42 30.01 64.41 29.98 64.91 29.97 C 63.39 31.92 65.60 33.03 66.93 34.19 C 62.81 35.54 62.66 39.23 63.03 43.14 C 62.97 45.10 62.99 47.06 62.99 49.02 L 61.98 49.06 C 61.96 42.70 61.81 36.31 62.92 30.02 Z" />
</g>
<g id="#6a829ffd">
<path fill="#6a829f" opacity="1.00" d=" M 66.93 34.19 C 68.55 33.06 70.18 31.94 71.81 30.83 C 72.48 32.32 70.97 36.00 73.00 36.06 C 73.64 35.34 74.26 34.59 74.84 33.82 C 75.34 33.85 76.35 33.91 76.86 33.94 C 76.77 36.13 75.94 38.32 74.78 40.17 C 73.20 39.48 71.83 38.18 70.07 37.97 C 67.61 39.53 65.69 41.86 63.03 43.14 C 62.66 39.23 62.81 35.54 66.93 34.19 Z" />
</g>
<g id="#5ae3f5fc">
<path fill="#5ae3f5" opacity="1.00" d=" M 43.46 34.74 C 44.50 38.78 42.91 42.94 42.94 47.04 C 42.38 50.35 42.21 53.75 41.06 56.93 C 39.61 60.91 38.83 65.18 36.93 68.99 C 36.59 68.72 35.90 68.18 35.56 67.91 C 35.81 66.63 36.04 65.35 36.24 64.06 C 36.42 62.51 36.78 59.41 36.95 57.86 C 33.62 60.16 31.64 63.66 29.70 67.10 C 29.44 66.76 28.93 66.08 28.67 65.74 C 27.21 63.12 25.30 60.81 23.63 58.33 C 26.67 57.94 30.09 58.70 32.63 56.64 C 34.28 53.69 37.06 51.69 39.74 49.75 C 41.15 44.79 41.83 39.64 43.46 34.74 Z" />
</g>
<g id="#557193ff">
<path fill="#557193" opacity="1.00" d=" M 63.03 43.14 C 65.69 41.86 67.61 39.53 70.07 37.97 C 71.83 38.18 73.20 39.48 74.78 40.17 L 74.95 40.92 C 74.61 41.95 74.28 42.98 73.98 44.02 L 73.69 44.98 C 72.43 45.74 71.15 46.48 69.87 47.20 C 67.72 48.27 65.45 49.22 62.99 49.02 C 62.99 47.06 62.97 45.10 63.03 43.14 Z" />
</g>
<g id="#4be2e9f3">
<path fill="#4be2e9" opacity="0.95" d=" M 74.95 40.92 C 79.46 41.90 85.04 42.80 88.29 46.30 C 83.70 44.54 78.89 43.81 73.98 44.02 C 74.28 42.98 74.61 41.95 74.95 40.92 Z" />
</g>
<g id="#c1cbd1ed">
<path fill="#c1cbd1" opacity="0.93" d=" M 112.14 45.06 C 112.60 43.62 112.80 41.42 114.88 41.98 C 115.12 46.49 116.78 50.90 114.65 55.21 C 114.22 53.69 113.85 52.16 113.37 50.65 C 113.22 54.00 113.00 57.39 112.15 60.65 C 111.70 60.81 110.79 61.13 110.34 61.29 L 110.02 60.30 C 110.29 55.18 111.45 50.14 112.14 45.06 Z" />
</g>
<g id="#47d0f5fd">
<path fill="#47d0f5" opacity="1.00" d=" M 73.98 44.02 C 78.89 43.81 83.70 44.54 88.29 46.30 C 90.56 47.43 91.84 50.24 94.69 50.32 C 94.76 53.56 97.86 54.90 100.18 56.45 C 94.85 57.65 89.16 56.16 84.72 53.10 C 86.68 50.60 85.34 50.83 83.22 52.05 L 82.33 51.98 C 80.45 48.66 76.72 47.06 73.69 44.98 L 73.98 44.02 Z" />
</g>
<g id="#3cbeefff">
<path fill="#3cbeef" opacity="1.00" d=" M 69.87 47.20 C 71.15 46.48 72.43 45.74 73.69 44.98 C 76.72 47.06 80.45 48.66 82.33 51.98 C 81.81 52.07 80.76 52.25 80.24 52.34 C 76.69 50.81 73.36 48.84 69.87 47.20 Z" />
</g>
<g id="#5fd5e8f9">
<path fill="#5fd5e8" opacity="0.98" d=" M 13.93 45.98 C 14.39 46.03 15.30 46.14 15.76 46.20 C 18.20 50.36 20.78 54.43 23.63 58.33 C 25.30 60.81 27.21 63.12 28.67 65.74 C 27.94 69.17 30.21 73.07 28.03 76.07 C 26.36 78.28 26.80 81.37 27.82 83.74 C 27.12 84.72 27.49 85.26 28.94 85.38 C 28.09 87.08 24.68 89.72 24.82 86.12 C 25.93 83.80 26.06 81.38 24.86 79.07 C 24.88 76.38 26.76 73.47 25.01 71.00 C 23.28 68.11 22.09 64.98 21.09 61.78 C 20.59 60.23 20.15 58.63 19.33 57.21 C 17.34 53.58 14.95 50.01 13.93 45.98 Z" />
</g>
<g id="#337391fe">
<path fill="#337391" opacity="1.00" d=" M 42.94 47.04 L 43.86 46.94 L 44.83 46.88 C 44.39 49.58 44.15 52.30 43.85 55.02 L 43.73 55.86 C 43.35 58.49 43.04 61.15 42.75 63.81 C 42.36 66.58 42.02 69.38 41.74 72.18 C 39.58 70.75 40.00 68.00 39.67 65.76 C 40.48 62.88 40.72 59.89 41.06 56.93 C 42.21 53.75 42.38 50.35 42.94 47.04 Z" />
</g>
<g id="#4ee2f8fc">
<path fill="#4ee2f8" opacity="1.00" d=" M 44.83 46.88 C 48.65 46.81 52.65 46.50 56.17 48.28 C 51.75 49.89 47.92 52.72 43.85 55.02 C 44.15 52.30 44.39 49.58 44.83 46.88 Z" />
</g>
<g id="#38afe0ff">
<path fill="#38afe0" opacity="1.00" d=" M 62.99 49.02 C 65.45 49.22 67.72 48.27 69.87 47.20 C 73.36 48.84 76.69 50.81 80.24 52.34 C 78.97 53.29 77.63 54.14 76.22 54.87 C 74.22 51.74 70.05 53.45 66.92 52.99 L 66.19 52.65 C 60.97 48.36 57.04 56.31 53.16 59.18 C 52.62 59.11 51.52 58.98 50.98 58.91 C 52.20 57.34 53.14 55.59 53.85 53.73 C 55.54 51.68 57.62 50.01 60.18 49.20 C 60.63 49.16 61.53 49.09 61.98 49.06 L 62.99 49.02 Z" />
</g>
<g id="#40c7f7fe">
<path fill="#40c7f7" opacity="1.00" d=" M 56.17 48.28 C 56.92 48.23 58.42 48.13 59.18 48.08 L 60.36 48.33 L 60.18 49.20 C 57.62 50.01 55.54 51.68 53.85 53.73 C 50.65 55.59 47.72 57.99 44.13 59.10 C 44.03 58.29 43.83 56.67 43.73 55.86 L 43.85 55.02 C 47.92 52.72 51.75 49.89 56.17 48.28 Z" />
</g>
<g id="#339eccff">
<path fill="#339ecc" opacity="1.00" d=" M 53.16 59.18 C 57.04 56.31 60.97 48.36 66.19 52.65 C 62.03 54.83 58.43 57.83 55.02 61.02 C 54.21 60.97 52.60 60.88 51.79 60.83 C 52.14 60.42 52.82 59.59 53.16 59.18 Z" />
</g>
<g id="#2d718bff">
<path fill="#2d718b" opacity="1.00" d=" M 83.22 52.05 C 85.34 50.83 86.68 50.60 84.72 53.10 C 83.36 54.09 81.99 55.06 80.67 56.09 C 79.41 57.06 78.21 58.10 76.95 59.06 C 76.45 58.72 75.45 58.05 74.96 57.71 C 77.75 55.88 80.55 54.06 83.22 52.05 Z" />
</g>
<g id="#89a7b9fd">
<path fill="#89a7b9" opacity="1.00" d=" M 113.37 50.65 C 113.85 52.16 114.22 53.69 114.65 55.21 C 114.99 57.77 115.09 60.34 114.94 62.93 C 114.27 62.32 113.57 61.73 112.85 61.18 L 112.15 60.65 C 113.00 57.39 113.22 54.00 113.37 50.65 Z" />
</g>
<g id="#54bee1ff">
<path fill="#54bee1" opacity="1.00" d=" M 80.24 52.34 C 80.76 52.25 81.81 52.07 82.33 51.98 L 83.22 52.05 C 80.55 54.06 77.75 55.88 74.96 57.71 C 72.91 59.00 70.91 60.37 69.02 61.90 C 65.01 64.56 60.54 66.58 56.89 69.75 C 55.28 70.46 53.69 71.21 52.14 72.04 C 49.06 73.14 46.11 74.54 43.11 75.83 C 43.04 75.20 42.89 73.93 42.82 73.29 C 44.57 72.27 46.36 71.29 48.09 70.23 C 50.08 69.42 52.04 68.53 53.85 67.37 C 59.58 64.24 65.37 61.20 71.00 57.88 C 72.74 56.88 74.46 55.83 76.22 54.87 C 77.63 54.14 78.97 53.29 80.24 52.34 Z" />
</g>
<g id="#2a8cbfff">
<path fill="#2a8cbf" opacity="1.00" d=" M 55.02 61.02 C 58.43 57.83 62.03 54.83 66.19 52.65 L 66.92 52.99 C 67.20 53.43 67.76 54.31 68.04 54.76 C 62.69 56.29 58.90 60.32 55.21 64.22 C 54.46 65.16 52.76 66.02 53.85 67.37 C 52.04 68.53 50.08 69.42 48.09 70.23 C 49.23 66.39 52.75 64.15 55.02 61.02 Z" />
</g>
<g id="#34a0cfff">
<path fill="#34a0cf" opacity="1.00" d=" M 66.92 52.99 C 70.05 53.45 74.22 51.74 76.22 54.87 C 74.46 55.83 72.74 56.88 71.00 57.88 C 69.97 56.88 68.98 55.84 68.04 54.76 C 67.76 54.31 67.20 53.43 66.92 52.99 Z" />
</g>
<g id="#3bb1dbfd">
<path fill="#3bb1db" opacity="1.00" d=" M 80.67 56.09 C 81.99 55.06 83.36 54.09 84.72 53.10 C 89.16 56.16 94.85 57.65 100.18 56.45 C 101.67 56.38 102.92 57.56 104.16 58.25 C 102.95 59.32 102.04 61.38 100.10 60.80 C 93.22 61.02 86.93 58.50 80.67 56.09 Z" />
</g>
<g id="#3d8aa7ea">
<path fill="#3d8aa7" opacity="0.92" d=" M 155.36 54.69 C 154.97 52.94 157.58 52.93 158.77 52.96 C 158.69 53.90 158.61 54.84 158.51 55.77 C 157.64 57.15 156.90 58.60 156.17 60.06 L 156.04 58.89 C 155.93 57.47 155.74 56.06 155.36 54.69 Z" />
</g>
<g id="#34b2f3ff">
<path fill="#34b2f3" opacity="1.00" d=" M 44.13 59.10 C 47.72 57.99 50.65 55.59 53.85 53.73 C 53.14 55.59 52.20 57.34 50.98 58.91 C 48.26 61.26 45.24 63.31 42.91 66.08 C 42.87 65.51 42.79 64.37 42.75 63.81 C 43.04 61.15 43.35 58.49 43.73 55.86 C 43.83 56.67 44.03 58.29 44.13 59.10 Z" />
</g>
<g id="#2982adff">
<path fill="#2982ad" opacity="1.00" d=" M 55.21 64.22 C 58.90 60.32 62.69 56.29 68.04 54.76 C 68.98 55.84 69.97 56.88 71.00 57.88 C 65.37 61.20 59.58 64.24 53.85 67.37 C 52.76 66.02 54.46 65.16 55.21 64.22 Z" />
</g>
<g id="#0b242963">
<path fill="#0b2429" opacity="0.39" d=" M 129.06 55.04 C 129.44 55.24 130.19 55.64 130.57 55.84 C 130.51 56.32 130.38 57.28 130.31 57.76 C 130.12 59.50 130.01 61.25 129.93 63.00 C 126.54 63.41 129.68 57.19 129.06 55.04 Z" />
</g>
<g id="#f6fafafd">
<path fill="#f6fafa" opacity="1.00" d=" M 130.57 55.84 C 132.36 60.09 135.13 55.91 137.72 55.30 C 139.36 57.82 142.12 56.97 143.80 55.03 C 143.80 59.12 147.60 54.92 149.73 55.03 C 149.58 58.18 152.86 56.75 154.45 55.78 C 152.57 63.45 145.72 69.12 141.83 75.86 C 139.79 77.23 137.71 81.65 135.12 79.00 C 134.44 75.52 133.28 72.16 132.25 68.77 C 131.89 65.06 131.14 61.40 130.31 57.76 C 130.38 57.28 130.51 56.32 130.57 55.84 Z" />
</g>
<g id="#3cbcf2fe">
<path fill="#3cbcf2" opacity="1.00" d=" M 154.45 55.78 C 154.67 55.51 155.13 54.96 155.36 54.69 C 155.74 56.06 155.93 57.47 156.04 58.89 C 153.70 61.60 153.00 65.19 151.25 68.24 C 149.43 72.34 145.98 75.72 144.91 80.13 L 145.88 79.94 C 148.66 79.21 151.22 77.87 153.84 76.72 C 154.48 76.98 155.74 77.49 156.37 77.75 C 154.45 79.78 151.84 81.35 149.11 82.07 C 146.42 82.79 143.86 84.02 141.02 84.06 C 141.25 81.32 141.48 78.58 141.83 75.86 C 145.72 69.12 152.57 63.45 154.45 55.78 Z" />
</g>
<g id="#f3f9fafd">
<path fill="#f3f9fa" opacity="1.00" d=" M 158.51 55.77 C 161.27 59.03 164.32 53.09 166.77 56.24 C 168.32 57.77 169.73 53.30 171.22 55.80 C 173.13 58.36 176.05 53.04 178.23 55.79 C 179.51 57.30 181.47 55.84 183.10 55.99 C 181.51 58.32 179.44 60.47 177.03 61.96 C 169.59 67.26 161.90 72.33 153.84 76.72 C 151.22 77.87 148.66 79.21 145.88 79.94 C 150.64 74.15 153.81 67.14 156.17 60.06 C 156.90 58.60 157.64 57.15 158.51 55.77 Z" />
</g>
<g id="#339ac5fe">
<path fill="#339ac5" opacity="1.00" d=" M 76.95 59.06 C 78.21 58.10 79.41 57.06 80.67 56.09 C 86.93 58.50 93.22 61.02 100.10 60.80 C 102.04 61.38 102.95 59.32 104.16 58.25 C 106.09 59.00 107.98 59.87 110.02 60.30 L 110.34 61.29 C 110.05 61.47 109.47 61.83 109.18 62.02 C 104.15 60.46 98.82 63.27 93.76 63.33 C 88.13 62.07 82.09 61.93 76.95 59.06 Z" />
</g>
<g id="#2e8dabd5">
<path fill="#2e8dab" opacity="0.84" d=" M 16.91 57.33 C 17.72 57.30 18.52 57.26 19.33 57.21 C 20.15 58.63 20.59 60.23 21.09 61.78 C 20.80 62.08 20.21 62.67 19.92 62.97 C 18.13 62.03 17.81 59.16 16.91 57.33 Z" />
</g>
<g id="#54bfe8ff">
<path fill="#54bfe8" opacity="1.00" d=" M 36.93 68.99 C 38.83 65.18 39.61 60.91 41.06 56.93 C 40.72 59.89 40.48 62.88 39.67 65.76 C 38.20 69.99 38.03 74.49 38.00 78.92 C 36.63 79.92 35.25 81.42 33.37 80.91 C 33.18 79.75 32.76 78.71 32.11 77.79 C 31.98 79.63 31.94 81.48 31.85 83.32 C 31.33 82.55 30.80 81.79 30.24 81.05 C 29.40 79.44 28.71 77.75 28.03 76.07 C 30.21 73.07 27.94 69.17 28.67 65.74 C 28.93 66.08 29.44 66.76 29.70 67.10 C 29.90 67.38 30.30 67.95 30.50 68.23 C 31.64 69.69 32.47 72.27 34.74 71.97 C 35.03 70.62 35.26 69.26 35.56 67.91 C 35.90 68.18 36.59 68.72 36.93 68.99 Z" />
</g>
<g id="#41ccfdff">
<path fill="#41ccfd" opacity="1.00" d=" M 29.70 67.10 C 31.64 63.66 33.62 60.16 36.95 57.86 C 36.78 59.41 36.42 62.51 36.24 64.06 C 33.58 64.00 32.12 66.52 30.50 68.23 C 30.30 67.95 29.90 67.38 29.70 67.10 Z" />
</g>
<g id="#1d587eff">
<path fill="#1d587e" opacity="1.00" d=" M 69.02 61.90 C 70.91 60.37 72.91 59.00 74.96 57.71 C 75.45 58.05 76.45 58.72 76.95 59.06 C 75.80 59.90 74.71 60.83 73.62 61.75 C 71.38 63.04 69.63 64.95 67.86 66.80 C 73.48 65.30 78.60 69.29 83.38 71.56 C 84.81 72.61 86.00 70.81 87.25 70.34 C 90.48 69.25 93.74 67.85 97.22 68.02 C 95.03 71.23 88.43 69.96 87.95 74.10 C 92.14 72.52 96.64 71.10 100.13 68.22 C 101.74 67.79 103.34 67.30 104.90 66.71 C 104.67 67.26 104.22 68.36 103.99 68.90 C 95.73 70.76 89.47 77.59 81.13 79.23 C 78.36 77.18 75.72 74.96 72.88 73.02 C 70.33 72.38 69.53 75.93 67.95 76.97 C 64.69 80.68 62.49 85.13 60.56 89.64 C 58.64 93.95 53.77 96.26 52.72 101.07 C 52.04 100.43 51.37 99.78 50.71 99.13 C 51.32 94.88 52.90 90.82 54.84 87.01 C 53.56 86.81 51.01 86.41 49.73 86.20 C 50.09 86.01 50.82 85.62 51.19 85.43 C 52.86 84.95 55.68 85.24 55.94 82.93 C 55.97 80.53 58.04 76.96 56.03 75.10 C 55.84 74.84 55.46 74.32 55.27 74.05 C 58.66 68.79 67.31 68.29 69.02 61.90 Z" />
</g>
<g id="#ccdde4f4">
<path fill="#ccdde4" opacity="0.96" d=" M 123.19 58.21 L 124.02 57.90 C 123.98 61.14 124.03 64.39 123.85 67.63 C 122.18 70.90 121.36 74.49 120.97 78.12 C 120.91 78.62 120.79 79.60 120.73 80.09 C 120.30 80.05 119.43 79.95 118.99 79.90 C 119.83 72.59 121.00 65.23 123.19 58.21 Z" />
</g>
<g id="#464f529c">
<path fill="#464f52" opacity="0.61" d=" M 124.02 57.90 C 126.85 59.03 124.47 65.23 124.68 68.15 L 123.85 67.63 C 124.03 64.39 123.98 61.14 124.02 57.90 Z" />
</g>
<g id="#4bdaf7fd">
<path fill="#4bdaf7" opacity="1.00" d=" M 130.31 57.76 C 131.14 61.40 131.89 65.06 132.25 68.77 C 131.91 72.27 132.08 76.66 135.12 79.00 C 137.71 81.65 139.79 77.23 141.83 75.86 C 141.48 78.58 141.25 81.32 141.02 84.06 C 140.70 84.25 140.05 84.63 139.73 84.81 L 138.90 85.25 C 134.91 86.38 131.30 84.89 127.73 83.37 C 131.97 83.89 131.40 80.31 131.03 76.85 C 131.48 74.45 131.31 72.17 130.50 70.01 C 130.36 68.26 130.08 64.75 129.93 63.00 C 130.01 61.25 130.12 59.50 130.31 57.76 Z" />
</g>
<g id="#2da2e7ff">
<path fill="#2da2e7" opacity="1.00" d=" M 42.91 66.08 C 45.24 63.31 48.26 61.26 50.98 58.91 C 51.52 58.98 52.62 59.11 53.16 59.18 C 52.82 59.59 52.14 60.42 51.79 60.83 C 48.87 63.55 46.23 66.58 43.12 69.10 C 43.07 68.35 42.96 66.83 42.91 66.08 Z" />
</g>
<g id="#24769fff">
<path fill="#24769f" opacity="1.00" d=" M 73.62 61.75 C 74.71 60.83 75.80 59.90 76.95 59.06 C 82.09 61.93 88.13 62.07 93.76 63.33 C 98.42 65.94 104.69 64.37 109.18 62.02 C 109.47 61.83 110.05 61.47 110.34 61.29 C 110.79 61.13 111.70 60.81 112.15 60.65 L 112.85 61.18 C 112.75 62.05 112.63 62.93 112.51 63.80 C 112.25 64.08 111.73 64.64 111.47 64.91 C 109.26 63.11 106.97 65.89 104.90 66.71 C 103.34 67.30 101.74 67.79 100.13 68.22 C 101.39 67.04 102.81 66.06 104.16 64.98 C 101.10 64.77 98.16 65.88 95.12 65.78 C 88.32 62.81 80.33 65.05 73.62 61.75 Z" />
</g>
<g id="#2d7aa3ff">
<path fill="#2d7aa3" opacity="1.00" d=" M 151.25 68.24 C 153.00 65.19 153.70 61.60 156.04 58.89 L 156.17 60.06 C 153.81 67.14 150.64 74.15 145.88 79.94 L 144.91 80.13 C 145.98 75.72 149.43 72.34 151.25 68.24 Z" />
</g>
<g id="#2791d5ff">
<path fill="#2791d5" opacity="1.00" d=" M 43.12 69.10 C 46.23 66.58 48.87 63.55 51.79 60.83 C 52.60 60.88 54.21 60.97 55.02 61.02 C 52.75 64.15 49.23 66.39 48.09 70.23 C 46.36 71.29 44.57 72.27 42.82 73.29 C 42.55 73.02 42.01 72.46 41.74 72.18 C 42.02 69.38 42.36 66.58 42.75 63.81 C 42.79 64.37 42.87 65.51 42.91 66.08 C 42.96 66.83 43.07 68.35 43.12 69.10 Z" />
</g>
<g id="#2d89b2ff">
<path fill="#2d89b2" opacity="1.00" d=" M 93.76 63.33 C 98.82 63.27 104.15 60.46 109.18 62.02 C 104.69 64.37 98.42 65.94 93.76 63.33 Z" />
</g>
<g id="#7492aeff">
<path fill="#7492ae" opacity="1.00" d=" M 112.85 61.18 C 113.57 61.73 114.27 62.32 114.94 62.93 C 113.76 65.07 113.62 67.59 115.60 69.28 C 115.72 69.96 115.96 71.32 116.08 72.01 C 111.58 72.16 108.22 76.41 110.06 81.11 C 109.85 81.64 109.44 82.70 109.23 83.23 C 109.11 81.37 108.87 77.64 108.75 75.78 C 108.82 73.15 108.89 70.52 108.94 67.89 C 109.57 67.15 110.20 66.42 110.84 65.70 C 110.88 67.13 110.97 68.56 111.10 69.98 C 114.96 71.10 112.52 66.23 112.51 63.80 C 112.63 62.93 112.75 62.05 112.85 61.18 Z" />
</g>
<g id="#43cff2fa">
<path fill="#43cff2" opacity="0.98" d=" M 19.92 62.97 C 20.21 62.67 20.80 62.08 21.09 61.78 C 22.09 64.98 23.28 68.11 25.01 71.00 C 26.76 73.47 24.88 76.38 24.86 79.07 C 22.44 77.17 20.31 74.94 18.21 72.70 C 16.24 68.98 18.07 67.07 20.77 65.91 C 20.46 64.94 20.18 63.96 19.92 62.97 Z" />
</g>
<g id="#2f5e7aff">
<path fill="#2f5e7a" opacity="1.00" d=" M 56.89 69.75 C 60.54 66.58 65.01 64.56 69.02 61.90 C 67.31 68.29 58.66 68.79 55.27 74.05 C 55.46 74.32 55.84 74.84 56.03 75.10 C 54.17 76.51 52.41 78.05 50.70 79.64 C 50.23 79.96 49.28 80.61 48.81 80.94 C 48.51 83.65 45.32 82.99 45.89 85.84 C 45.47 85.81 44.62 85.76 44.20 85.74 C 42.04 85.63 39.89 85.96 37.74 86.06 C 42.08 78.58 52.40 77.01 56.89 69.75 Z" />
</g>
<g id="#1c6891ff">
<path fill="#1c6891" opacity="1.00" d=" M 67.86 66.80 C 69.63 64.95 71.38 63.04 73.62 61.75 C 80.33 65.05 88.32 62.81 95.12 65.78 C 98.16 65.88 101.10 64.77 104.16 64.98 C 102.81 66.06 101.39 67.04 100.13 68.22 C 96.64 71.10 92.14 72.52 87.95 74.10 C 88.43 69.96 95.03 71.23 97.22 68.02 C 93.74 67.85 90.48 69.25 87.25 70.34 C 86.00 70.81 84.81 72.61 83.38 71.56 C 78.60 69.29 73.48 65.30 67.86 66.80 Z" />
</g>
<g id="#3bb0ddfa">
<path fill="#3bb0dd" opacity="0.98" d=" M 153.84 76.72 C 161.90 72.33 169.59 67.26 177.03 61.96 C 172.54 68.19 165.39 71.66 159.65 76.62 C 158.61 77.01 157.55 78.44 156.37 77.75 C 155.74 77.49 154.48 76.98 153.84 76.72 Z" />
</g>
<g id="#89aebbee">
<path fill="#89aebb" opacity="0.93" d=" M 114.94 62.93 C 118.30 63.59 116.63 67.30 115.60 69.28 C 113.62 67.59 113.76 65.07 114.94 62.93 Z" />
</g>
<g id="#36b1efff">
<path fill="#36b1ef" opacity="1.00" d=" M 30.50 68.23 C 32.12 66.52 33.58 64.00 36.24 64.06 C 36.04 65.35 35.81 66.63 35.56 67.91 C 35.26 69.26 35.03 70.62 34.74 71.97 C 32.47 72.27 31.64 69.69 30.50 68.23 Z" />
</g>
<g id="#205880ff">
<path fill="#205880" opacity="1.00" d=" M 104.90 66.71 C 106.97 65.89 109.26 63.11 111.47 64.91 L 110.84 65.70 C 110.20 66.42 109.57 67.15 108.94 67.89 L 108.16 68.12 C 107.08 67.63 105.99 67.16 104.90 66.71 Z" />
</g>
<g id="#a2b4c9ff">
<path fill="#a2b4c9" opacity="1.00" d=" M 112.51 63.80 C 112.52 66.23 114.96 71.10 111.10 69.98 C 110.97 68.56 110.88 67.13 110.84 65.70 L 111.47 64.91 C 111.73 64.64 112.25 64.08 112.51 63.80 Z" />
</g>
<g id="#439fc9ff">
<path fill="#439fc9" opacity="1.00" d=" M 38.00 78.92 C 38.03 74.49 38.20 69.99 39.67 65.76 C 40.00 68.00 39.58 70.75 41.74 72.18 C 42.01 72.46 42.55 73.02 42.82 73.29 C 42.89 73.93 43.04 75.20 43.11 75.83 C 46.11 74.54 49.06 73.14 52.14 72.04 C 50.13 74.10 47.66 75.62 45.20 77.10 C 43.44 77.20 41.69 77.51 40.03 78.14 C 39.53 78.34 38.51 78.73 38.00 78.92 Z" />
</g>
<g id="#576d7ee6">
<path fill="#576d7e" opacity="0.90" d=" M 104.90 66.71 C 105.99 67.16 107.08 67.63 108.16 68.12 C 107.92 69.50 107.66 70.87 107.34 72.22 C 107.61 69.36 106.43 68.38 103.98 69.88 L 103.99 68.90 C 104.22 68.36 104.67 67.26 104.90 66.71 Z" />
</g>
<g id="#cae9f7fc">
<path fill="#cae9f7" opacity="1.00" d=" M 108.16 68.12 L 108.94 67.89 C 108.89 70.52 108.82 73.15 108.75 75.78 C 108.27 79.27 107.96 82.79 107.76 86.31 C 107.10 84.58 106.94 82.73 106.60 80.93 C 106.84 78.02 106.99 75.11 107.34 72.22 C 107.66 70.87 107.92 69.50 108.16 68.12 Z" />
</g>
<g id="#8198b2f6">
<path fill="#8198b2" opacity="0.96" d=" M 120.97 78.12 C 121.36 74.49 122.18 70.90 123.85 67.63 L 124.68 68.15 C 126.35 69.23 125.55 71.99 127.82 72.36 C 128.20 73.61 128.07 75.07 126.88 75.83 C 124.69 76.05 121.98 75.65 120.97 78.12 Z" />
</g>
<g id="#5e7292fe">
<path fill="#5e7292" opacity="1.00" d=" M 81.13 79.23 C 89.47 77.59 95.73 70.76 103.99 68.90 L 103.98 69.88 C 101.38 71.96 99.28 74.52 97.18 77.08 C 90.75 77.17 84.65 81.71 82.80 87.88 C 81.25 87.97 79.70 88.06 78.16 88.20 C 79.01 85.42 79.98 82.68 80.88 79.91 L 81.13 79.23 Z" />
</g>
<g id="#04060615">
<path fill="#040606" opacity="0.08" d=" M 103.98 69.88 C 106.43 68.38 107.61 69.36 107.34 72.22 C 106.99 75.11 106.84 78.02 106.60 80.93 L 106.17 81.19 C 104.01 82.57 102.15 84.36 100.26 86.09 C 98.89 85.02 97.45 84.01 96.21 82.77 C 96.42 80.86 96.89 78.98 97.18 77.08 C 99.28 74.52 101.38 71.96 103.98 69.88 Z" />
</g>
<g id="#4bb4deff">
<path fill="#4bb4de" opacity="1.00" d=" M 132.25 68.77 C 133.28 72.16 134.44 75.52 135.12 79.00 C 132.08 76.66 131.91 72.27 132.25 68.77 Z" />
</g>
<g id="#327292ff">
<path fill="#327292" opacity="1.00" d=" M 52.14 72.04 C 53.69 71.21 55.28 70.46 56.89 69.75 C 52.40 77.01 42.08 78.58 37.74 86.06 L 36.76 86.25 C 37.72 83.92 38.07 81.43 38.00 78.92 C 38.51 78.73 39.53 78.34 40.03 78.14 C 40.04 78.87 40.06 80.31 40.07 81.04 C 41.88 79.86 43.61 78.56 45.20 77.10 C 47.66 75.62 50.13 74.10 52.14 72.04 Z" />
</g>
<g id="#2d8592c0">
<path fill="#2d8592" opacity="0.75" d=" M 130.50 70.01 C 131.31 72.17 131.48 74.45 131.03 76.85 C 128.84 75.98 129.67 71.85 130.50 70.01 Z" />
</g>
<g id="#577795f9">
<path fill="#577795" opacity="0.98" d=" M 110.06 81.11 C 108.22 76.41 111.58 72.16 116.08 72.01 C 116.08 74.08 115.22 75.99 114.49 77.88 C 112.88 78.76 111.46 79.94 110.06 81.11 Z" />
</g>
<g id="#155076ff">
<path fill="#155076" opacity="1.00" d=" M 67.95 76.97 C 69.53 75.93 70.33 72.38 72.88 73.02 C 75.72 74.96 78.36 77.18 81.13 79.23 L 80.88 79.91 C 76.95 80.57 72.28 85.37 74.92 89.31 C 75.58 90.53 76.04 91.84 76.43 93.17 C 76.25 96.04 73.81 97.63 71.66 99.07 C 70.30 99.88 68.97 100.75 67.75 101.76 C 66.68 102.58 65.58 103.40 64.82 104.55 C 62.96 103.57 62.35 105.28 62.09 106.87 C 59.95 109.51 56.99 111.32 54.11 113.06 L 53.90 111.97 C 54.26 111.48 54.97 110.52 55.33 110.03 C 57.41 106.99 54.12 103.70 52.72 101.07 C 53.77 96.26 58.64 93.95 60.56 89.64 C 62.49 85.13 64.69 80.68 67.95 76.97 Z" />
</g>
<g id="#e6e7e7ff">
<path fill="#e6e7e7" opacity="1.00" d=" M 56.03 75.10 C 58.04 76.96 55.97 80.53 55.94 82.93 C 55.68 85.24 52.86 84.95 51.19 85.43 C 51.03 83.50 50.88 81.56 50.70 79.64 C 52.41 78.05 54.17 76.51 56.03 75.10 Z" />
</g>
<g id="#d5e0e6ff">
<path fill="#d5e0e6" opacity="1.00" d=" M 27.82 83.74 C 26.80 81.37 26.36 78.28 28.03 76.07 C 28.71 77.75 29.40 79.44 30.24 81.05 C 29.78 82.03 29.31 83.01 28.82 83.98 L 27.82 83.74 Z" />
</g>
<g id="#86aad7fe">
<path fill="#86aad7" opacity="1.00" d=" M 107.76 86.31 C 107.96 82.79 108.27 79.27 108.75 75.78 C 108.87 77.64 109.11 81.37 109.23 83.23 C 109.08 84.47 108.94 85.71 108.79 86.95 L 107.72 86.97 L 107.76 86.31 Z" />
</g>
<g id="#567a98f9">
<path fill="#567a98" opacity="0.98" d=" M 120.97 78.12 C 121.98 75.65 124.69 76.05 126.88 75.83 C 127.01 78.20 126.01 80.43 125.94 82.79 C 125.02 82.50 124.09 82.21 123.16 81.92 C 122.35 81.32 121.54 80.71 120.73 80.09 C 120.79 79.60 120.91 78.62 120.97 78.12 Z" />
</g>
<g id="#3a89afff">
<path fill="#3a89af" opacity="1.00" d=" M 40.03 78.14 C 41.69 77.51 43.44 77.20 45.20 77.10 C 43.61 78.56 41.88 79.86 40.07 81.04 C 40.06 80.31 40.04 78.87 40.03 78.14 Z" />
</g>
<g id="#6c7e9afd">
<path fill="#6c7e9a" opacity="1.00" d=" M 82.80 87.88 C 84.65 81.71 90.75 77.17 97.18 77.08 C 96.89 78.98 96.42 80.86 96.21 82.77 C 97.45 84.01 98.89 85.02 100.26 86.09 C 99.79 87.31 99.31 88.52 98.82 89.74 C 98.43 90.09 97.66 90.79 97.28 91.14 C 95.25 90.98 93.10 91.01 91.60 92.58 C 90.22 93.49 88.82 94.44 87.80 95.77 C 85.84 98.63 85.98 102.53 82.97 104.75 C 82.50 104.85 81.56 105.04 81.09 105.14 C 80.87 104.95 80.44 104.55 80.22 104.36 C 80.66 99.14 78.00 92.64 83.11 89.16 C 84.52 88.52 87.91 89.97 87.97 88.04 C 86.25 87.93 84.52 87.91 82.80 87.88 Z" />
</g>
<g id="#44a2ccff">
<path fill="#44a2cc" opacity="1.00" d=" M 32.11 77.79 C 32.76 78.71 33.18 79.75 33.37 80.91 C 35.25 81.42 36.63 79.92 38.00 78.92 C 38.07 81.43 37.72 83.92 36.76 86.25 C 35.05 86.01 33.31 85.87 31.69 85.21 C 31.73 84.74 31.81 83.79 31.85 83.32 C 31.94 81.48 31.98 79.63 32.11 77.79 Z" />
</g>
<g id="#45698bf8">
<path fill="#45698b" opacity="0.97" d=" M 110.06 81.11 C 111.46 79.94 112.88 78.76 114.49 77.88 C 115.59 78.65 117.30 78.64 118.05 79.84 C 116.66 79.84 115.50 80.26 114.56 81.11 C 112.40 82.79 112.23 87.58 108.79 86.95 C 108.94 85.71 109.08 84.47 109.23 83.23 C 109.44 82.70 109.85 81.64 110.06 81.11 Z" />
</g>
<g id="#9b4739ff">
<path fill="#9b4739" opacity="1.00" d=" M 48.81 80.94 C 49.28 80.61 50.23 79.96 50.70 79.64 C 50.88 81.56 51.03 83.50 51.19 85.43 C 48.47 85.51 49.02 82.81 48.81 80.94 Z" />
</g>
<g id="#506789ff">
<path fill="#506789" opacity="1.00" d=" M 74.92 89.31 C 72.28 85.37 76.95 80.57 80.88 79.91 C 79.98 82.68 79.01 85.42 78.16 88.20 C 77.09 88.61 76.01 88.98 74.92 89.31 Z" />
</g>
<g id="#3fbbebff">
<path fill="#3fbbeb" opacity="1.00" d=" M 114.56 81.11 C 115.50 80.26 116.66 79.84 118.05 79.84 L 118.99 79.90 C 119.43 79.95 120.30 80.05 120.73 80.09 C 121.54 80.71 122.35 81.32 123.16 81.92 C 120.31 81.45 117.44 81.18 114.56 81.11 Z" />
</g>
<g id="#5e6e80ff">
<path fill="#5e6e80" opacity="1.00" d=" M 30.24 81.05 C 30.80 81.79 31.33 82.55 31.85 83.32 C 31.81 83.79 31.73 84.74 31.69 85.21 C 30.70 84.90 29.74 84.49 28.82 83.98 C 29.31 83.01 29.78 82.03 30.24 81.05 Z" />
</g>
<g id="#422c2bff">
<path fill="#422c2b" opacity="1.00" d=" M 45.89 85.84 C 45.32 82.99 48.51 83.65 48.81 80.94 C 49.02 82.81 48.47 85.51 51.19 85.43 C 50.82 85.62 50.09 86.01 49.73 86.20 C 49.31 86.16 48.49 86.08 48.07 86.04 C 47.53 85.99 46.43 85.89 45.89 85.84 Z" />
</g>
<g id="#3bb6eaff">
<path fill="#3bb6ea" opacity="1.00" d=" M 100.26 86.09 C 102.15 84.36 104.01 82.57 106.17 81.19 C 106.03 83.09 105.56 85.10 106.20 86.96 C 107.12 88.89 110.00 88.91 111.82 89.83 C 112.84 90.27 113.86 90.72 114.88 91.17 C 112.07 95.15 113.03 100.53 110.80 104.82 C 109.61 104.92 108.41 104.98 107.22 104.98 C 106.91 104.70 106.29 104.12 105.99 103.83 C 106.44 100.06 107.65 96.06 105.44 92.64 C 104.16 90.99 106.16 89.99 107.05 88.85 C 104.26 88.76 101.48 88.92 98.82 89.74 C 99.31 88.52 99.79 87.31 100.26 86.09 Z" />
</g>
<g id="#82d1f7ff">
<path fill="#82d1f7" opacity="1.00" d=" M 106.17 81.19 L 106.60 80.93 C 106.94 82.73 107.10 84.58 107.76 86.31 L 107.72 86.97 C 107.34 86.97 106.58 86.96 106.20 86.96 C 105.56 85.10 106.03 83.09 106.17 81.19 Z" />
</g>
<g id="#2d93c3ff">
<path fill="#2d93c3" opacity="1.00" d=" M 108.79 86.95 C 112.23 87.58 112.40 82.79 114.56 81.11 C 117.44 81.18 120.31 81.45 123.16 81.92 C 124.09 82.21 125.02 82.50 125.94 82.79 C 126.39 82.93 127.28 83.22 127.73 83.37 C 131.30 84.89 134.91 86.38 138.90 85.25 C 139.29 86.18 139.70 87.11 140.12 88.03 L 139.39 88.28 L 138.40 87.84 C 136.65 86.57 134.54 87.00 132.86 88.12 C 132.37 87.83 131.39 87.23 130.90 86.93 C 127.61 85.58 123.80 83.44 120.24 85.07 C 116.79 85.58 115.48 89.58 111.82 89.83 C 110.00 88.91 107.12 88.89 106.20 86.96 C 106.58 86.96 107.34 86.97 107.72 86.97 L 108.79 86.95 Z" />
</g>
<g id="#26789ef3">
<path fill="#26789e" opacity="0.95" d=" M 141.02 84.06 C 143.86 84.02 146.42 82.79 149.11 82.07 C 147.91 84.10 145.42 84.91 143.34 85.70 C 142.15 85.35 140.95 85.05 139.73 84.81 C 140.05 84.63 140.70 84.25 141.02 84.06 Z" />
</g>
<g id="#3bc0effe">
<path fill="#3bc0ef" opacity="1.00" d=" M 28.94 85.38 C 27.49 85.26 27.12 84.72 27.82 83.74 L 28.82 83.98 C 29.74 84.49 30.70 84.90 31.69 85.21 C 33.31 85.87 35.05 86.01 36.76 86.25 C 40.30 85.50 42.04 86.35 41.99 88.79 C 40.22 88.47 38.44 88.46 36.90 89.51 C 39.26 90.19 41.64 91.07 43.38 92.88 C 37.30 92.25 31.22 91.45 25.12 90.99 L 24.09 90.91 L 23.93 85.91 L 24.82 86.12 C 24.68 89.72 28.09 87.08 28.94 85.38 Z" />
</g>
<g id="#267aa4ff">
<path fill="#267aa4" opacity="1.00" d=" M 120.24 85.07 C 123.80 83.44 127.61 85.58 130.90 86.93 C 130.45 87.14 129.54 87.55 129.09 87.75 C 127.43 87.14 125.80 86.44 124.13 85.88 C 125.08 87.59 125.98 89.33 126.48 91.24 C 126.24 92.87 125.44 92.97 124.33 91.99 L 124.01 90.95 C 122.63 88.35 119.00 91.45 116.98 92.20 C 116.45 91.94 115.40 91.43 114.88 91.17 C 113.86 90.72 112.84 90.27 111.82 89.83 C 115.48 89.58 116.79 85.58 120.24 85.07 Z" />
</g>
<g id="#2a8ec4ff">
<path fill="#2a8ec4" opacity="1.00" d=" M 37.74 86.06 C 39.89 85.96 42.04 85.63 44.20 85.74 C 46.08 88.19 45.53 91.20 45.20 94.09 C 44.75 93.79 43.84 93.18 43.38 92.88 C 41.64 91.07 39.26 90.19 36.90 89.51 C 38.44 88.46 40.22 88.47 41.99 88.79 C 42.04 86.35 40.30 85.50 36.76 86.25 L 37.74 86.06 Z" />
</g>
<g id="#9ca694ff">
<path fill="#9ca694" opacity="1.00" d=" M 138.90 85.25 L 139.73 84.81 C 140.95 85.05 142.15 85.35 143.34 85.70 L 143.16 86.89 C 142.16 87.31 141.15 87.69 140.12 88.03 C 139.70 87.11 139.29 86.18 138.90 85.25 Z" />
</g>
<g id="#237aacff">
<path fill="#237aac" opacity="1.00" d=" M 44.20 85.74 C 44.62 85.76 45.47 85.81 45.89 85.84 C 46.43 85.89 47.53 85.99 48.07 86.04 C 49.35 89.35 49.23 92.96 47.80 96.16 C 47.46 95.90 46.77 95.38 46.43 95.11 C 46.12 94.86 45.51 94.35 45.20 94.09 C 45.53 91.20 46.08 88.19 44.20 85.74 Z" />
</g>
<g id="#21678fff">
<path fill="#21678f" opacity="1.00" d=" M 48.07 86.04 C 48.49 86.08 49.31 86.16 49.73 86.20 C 51.01 86.41 53.56 86.81 54.84 87.01 C 52.90 90.82 51.32 94.88 50.71 99.13 C 49.71 98.17 48.75 97.17 47.80 96.16 C 49.23 92.96 49.35 89.35 48.07 86.04 Z" />
</g>
<g id="#909081ff">
<path fill="#909081" opacity="1.00" d=" M 124.13 85.88 C 125.80 86.44 127.43 87.14 129.09 87.75 C 128.26 88.95 127.36 90.09 126.48 91.24 C 125.98 89.33 125.08 87.59 124.13 85.88 Z" />
</g>
<g id="#9fa796ff">
<path fill="#9fa796" opacity="1.00" d=" M 129.09 87.75 C 129.54 87.55 130.45 87.14 130.90 86.93 C 131.39 87.23 132.37 87.83 132.86 88.12 C 132.86 88.64 132.86 89.66 132.86 90.18 C 130.53 91.66 129.63 89.94 129.09 87.75 Z" />
</g>
<g id="#2e748eff">
<path fill="#2e748e" opacity="1.00" d=" M 132.86 88.12 C 134.54 87.00 136.65 86.57 138.40 87.84 C 137.57 87.88 135.93 87.95 135.11 87.99 C 135.50 89.08 135.91 90.16 136.32 91.25 C 134.62 93.56 133.34 92.77 132.86 90.18 C 132.86 89.66 132.86 88.64 132.86 88.12 Z" />
</g>
<g id="#245f7bfb">
<path fill="#245f7b" opacity="1.00" d=" M 140.12 88.03 C 141.15 87.69 142.16 87.31 143.16 86.89 C 142.83 93.02 137.20 98.12 131.21 98.53 C 129.58 98.15 127.96 97.66 126.29 97.50 C 124.83 98.51 123.43 99.62 121.85 100.44 C 121.50 99.44 121.18 98.42 120.90 97.40 C 122.17 95.68 123.46 93.95 124.33 91.99 C 125.44 92.97 126.24 92.87 126.48 91.24 C 127.36 90.09 128.26 88.95 129.09 87.75 C 129.63 89.94 130.53 91.66 132.86 90.18 C 133.34 92.77 134.62 93.56 136.32 91.25 C 137.41 90.33 138.49 89.39 139.39 88.28 L 140.12 88.03 Z" />
</g>
<g id="#495c75ff">
<path fill="#495c75" opacity="1.00" d=" M 78.16 88.20 C 79.70 88.06 81.25 87.97 82.80 87.88 C 84.52 87.91 86.25 87.93 87.97 88.04 C 87.91 89.97 84.52 88.52 83.11 89.16 C 80.33 89.67 76.40 89.40 76.43 93.17 C 76.04 91.84 75.58 90.53 74.92 89.31 C 76.01 88.98 77.09 88.61 78.16 88.20 Z" />
</g>
<g id="#aeaa93ff">
<path fill="#aeaa93" opacity="1.00" d=" M 135.11 87.99 C 135.93 87.95 137.57 87.88 138.40 87.84 L 139.39 88.28 C 138.49 89.39 137.41 90.33 136.32 91.25 C 135.91 90.16 135.50 89.08 135.11 87.99 Z" />
</g>
<g id="#607491ff">
<path fill="#607491" opacity="1.00" d=" M 76.43 93.17 C 76.40 89.40 80.33 89.67 83.11 89.16 C 78.00 92.64 80.66 99.14 80.22 104.36 C 78.83 103.18 77.51 101.93 76.15 100.71 C 75.08 99.22 73.30 99.24 71.66 99.07 C 73.81 97.63 76.25 96.04 76.43 93.17 Z" />
</g>
<g id="#4cddfcfe">
<path fill="#4cddfc" opacity="1.00" d=" M 98.82 89.74 C 101.48 88.92 104.26 88.76 107.05 88.85 C 106.16 89.99 104.16 90.99 105.44 92.64 C 107.65 96.06 106.44 100.06 105.99 103.83 C 102.51 101.76 96.23 107.16 94.04 102.86 C 93.95 102.09 93.77 100.54 93.68 99.76 C 93.65 98.55 93.61 97.35 93.67 96.15 C 94.98 94.56 96.36 93.00 97.28 91.14 C 97.66 90.79 98.43 90.09 98.82 89.74 Z" />
</g>
<g id="#345260ff">
<path fill="#345260" opacity="1.00" d=" M 116.98 92.20 C 119.00 91.45 122.63 88.35 124.01 90.95 C 121.57 90.58 120.00 92.27 118.68 94.04 C 118.11 93.43 117.54 92.81 116.98 92.20 Z" />
</g>
<g id="#ebf5f0fe">
<path fill="#ebf5f0" opacity="1.00" d=" M 25.12 90.99 C 31.22 91.45 37.30 92.25 43.38 92.88 C 39.24 98.46 29.96 92.05 24.98 95.96 C 24.73 96.24 24.24 96.81 23.99 97.09 C 23.84 94.98 24.30 92.93 25.12 90.99 Z" />
</g>
<g id="#080c0c27">
<path fill="#080c0c" opacity="0.15" d=" M 91.60 92.58 C 93.10 91.01 95.25 90.98 97.28 91.14 C 96.36 93.00 94.98 94.56 93.67 96.15 C 93.13 95.29 92.60 94.44 92.06 93.59 L 91.60 92.58 Z" />
</g>
<g id="#2b85aefc">
<path fill="#2b85ae" opacity="1.00" d=" M 114.88 91.17 C 115.40 91.43 116.45 91.94 116.98 92.20 C 117.54 92.81 118.11 93.43 118.68 94.04 C 119.44 95.15 120.17 96.27 120.90 97.40 C 121.18 98.42 121.50 99.44 121.85 100.44 L 122.01 101.20 C 122.36 103.67 121.72 106.07 120.58 108.26 C 120.23 106.79 119.96 105.30 119.75 103.81 C 119.77 103.04 119.83 101.50 119.86 100.73 C 118.98 98.17 114.76 101.66 114.95 104.07 C 114.72 104.62 114.28 105.72 114.05 106.27 C 112.95 106.61 111.85 106.94 110.74 107.25 L 109.84 107.03 C 108.51 106.65 107.20 106.21 105.87 105.83 C 106.21 105.62 106.88 105.19 107.22 104.98 C 108.41 104.98 109.61 104.92 110.80 104.82 C 113.03 100.53 112.07 95.15 114.88 91.17 Z" />
</g>
<g id="#868780ff">
<path fill="#868780" opacity="1.00" d=" M 118.68 94.04 C 120.00 92.27 121.57 90.58 124.01 90.95 L 124.33 91.99 C 123.46 93.95 122.17 95.68 120.90 97.40 C 120.17 96.27 119.44 95.15 118.68 94.04 Z" />
</g>
<g id="#b2baacff">
<path fill="#b2baac" opacity="1.00" d=" M 43.38 92.88 C 43.84 93.18 44.75 93.79 45.20 94.09 C 45.51 94.35 46.12 94.86 46.43 95.11 C 44.70 95.97 42.75 96.05 40.86 96.15 C 35.56 96.04 30.27 95.96 24.98 95.96 C 29.96 92.05 39.24 98.46 43.38 92.88 Z" />
</g>
<g id="#959f93ff">
<path fill="#959f93" opacity="1.00" d=" M 87.80 95.77 C 88.82 94.44 90.22 93.49 91.60 92.58 L 92.06 93.59 C 92.05 97.13 92.02 100.68 91.93 104.22 C 89.86 101.82 89.15 98.59 87.80 95.77 Z" />
</g>
<g id="#3c7a7ff8">
<path fill="#3c7a7f" opacity="0.97" d=" M 92.06 93.59 C 92.60 94.44 93.13 95.29 93.67 96.15 C 93.61 97.35 93.65 98.55 93.68 99.76 C 93.02 101.18 93.56 103.52 91.93 104.22 C 92.02 100.68 92.05 97.13 92.06 93.59 Z" />
</g>
<g id="#8c958fff">
<path fill="#8c958f" opacity="1.00" d=" M 46.43 95.11 C 46.77 95.38 47.46 95.90 47.80 96.16 C 48.75 97.17 49.71 98.17 50.71 99.13 C 51.37 99.78 52.04 100.43 52.72 101.07 C 54.12 103.70 57.41 106.99 55.33 110.03 C 55.03 108.75 54.17 107.81 53.10 107.10 C 51.86 106.15 50.72 105.07 49.78 103.82 C 49.32 103.15 48.82 102.50 48.29 101.88 C 47.21 100.56 45.86 99.49 44.48 98.49 C 43.40 97.53 42.12 96.84 40.86 96.15 C 42.75 96.05 44.70 95.97 46.43 95.11 Z" />
</g>
<g id="#708683f7">
<path fill="#708683" opacity="0.97" d=" M 24.98 95.96 C 30.27 95.96 35.56 96.04 40.86 96.15 C 42.12 96.84 43.40 97.53 44.48 98.49 C 43.30 98.32 42.12 98.15 40.93 98.00 C 40.53 97.93 39.73 97.81 39.33 97.75 C 37.73 97.59 34.53 97.28 32.93 97.12 C 31.27 97.04 29.61 96.97 27.95 97.00 C 25.59 96.25 25.97 98.49 25.89 100.08 C 24.71 99.58 24.59 98.09 23.99 97.09 C 24.24 96.81 24.73 96.24 24.98 95.96 Z" />
</g>
<g id="#215d80ff">
<path fill="#215d80" opacity="1.00" d=" M 82.97 104.75 C 85.98 102.53 85.84 98.63 87.80 95.77 C 89.15 98.59 89.86 101.82 91.93 104.22 C 93.56 103.52 93.02 101.18 93.68 99.76 C 93.77 100.54 93.95 102.09 94.04 102.86 C 94.07 104.93 94.06 106.99 94.00 109.06 C 93.24 110.34 92.41 111.58 91.73 112.92 C 91.50 108.74 87.72 111.19 85.11 110.13 C 84.78 108.74 85.37 106.85 84.15 105.84 C 83.85 105.57 83.26 105.02 82.97 104.75 Z" />
</g>
<g id="#a5b9bff9">
<path fill="#a5b9bf" opacity="0.98" d=" M 25.89 100.08 C 25.97 98.49 25.59 96.25 27.95 97.00 C 28.70 102.72 28.88 108.50 26.62 113.91 C 26.11 115.01 25.62 116.12 25.10 117.22 L 25.06 116.19 C 24.85 114.00 25.47 111.88 25.84 109.75 C 26.10 107.46 27.18 105.13 26.46 102.82 C 26.32 102.14 26.04 100.76 25.89 100.08 Z" />
</g>
<g id="#24283aff">
<path fill="#24283a" opacity="1.00" d=" M 27.95 97.00 C 29.61 96.97 31.27 97.04 32.93 97.12 C 34.29 97.63 37.01 98.64 38.37 99.15 C 37.26 100.25 36.03 101.31 35.37 102.76 L 34.92 103.61 C 32.43 107.17 30.15 110.95 28.82 115.11 C 28.27 114.81 27.17 114.21 26.62 113.91 C 28.88 108.50 28.70 102.72 27.95 97.00 Z" />
</g>
<g id="#394c59ff">
<path fill="#394c59" opacity="1.00" d=" M 32.93 97.12 C 34.53 97.28 37.73 97.59 39.33 97.75 L 39.06 98.65 L 38.37 99.15 C 37.01 98.64 34.29 97.63 32.93 97.12 Z" />
</g>
<g id="#658b7bef">
<path fill="#658b7b" opacity="0.94" d=" M 126.29 97.50 C 127.96 97.66 129.58 98.15 131.21 98.53 C 128.69 100.60 125.11 100.65 122.01 101.20 L 121.85 100.44 C 123.43 99.62 124.83 98.51 126.29 97.50 Z" />
</g>
<g id="#9391c1ff">
<path fill="#9391c1" opacity="1.00" d=" M 39.33 97.75 C 39.73 97.81 40.53 97.93 40.93 98.00 C 38.68 101.21 40.84 104.58 43.74 106.35 C 43.78 108.64 43.17 110.90 43.15 113.20 C 42.07 115.05 40.89 116.88 39.20 118.24 C 38.64 118.19 37.51 118.10 36.94 118.05 C 42.30 113.01 35.17 104.76 39.06 98.65 L 39.33 97.75 Z" />
</g>
<g id="#7a81afff">
<path fill="#7a81af" opacity="1.00" d=" M 40.93 98.00 C 42.12 98.15 43.30 98.32 44.48 98.49 C 45.86 99.49 47.21 100.56 48.29 101.88 C 46.96 105.81 45.36 109.67 43.15 113.20 C 43.17 110.90 43.78 108.64 43.74 106.35 C 40.84 104.58 38.68 101.21 40.93 98.00 Z" />
</g>
<g id="#aca2d1ff">
<path fill="#aca2d1" opacity="1.00" d=" M 38.37 99.15 L 39.06 98.65 C 35.17 104.76 42.30 113.01 36.94 118.05 C 35.56 117.97 34.17 117.88 32.79 117.78 C 33.28 112.73 36.59 107.81 35.37 102.76 C 36.03 101.31 37.26 100.25 38.37 99.15 Z" />
</g>
<g id="#767f6dff">
<path fill="#767f6d" opacity="1.00" d=" M 67.75 101.76 C 68.97 100.75 70.30 99.88 71.66 99.07 C 73.30 99.24 75.08 99.22 76.15 100.71 C 74.33 100.94 72.52 101.22 70.74 101.65 C 69.99 101.68 68.50 101.73 67.75 101.76 Z" />
</g>
<g id="#335e70ff">
<path fill="#335e70" opacity="1.00" d=" M 114.95 104.07 C 114.76 101.66 118.98 98.17 119.86 100.73 C 118.08 101.62 116.51 102.85 114.95 104.07 Z" />
</g>
<g id="#aeb2a7ff">
<path fill="#aeb2a7" opacity="1.00" d=" M 70.74 101.65 C 72.52 101.22 74.33 100.94 76.15 100.71 C 77.51 101.93 78.83 103.18 80.22 104.36 C 80.44 104.55 80.87 104.95 81.09 105.14 C 81.29 105.62 81.70 106.56 81.90 107.03 C 80.27 109.97 78.33 113.29 74.91 114.35 C 74.25 113.70 73.60 113.05 72.97 112.39 C 75.19 109.43 76.74 106.01 76.01 102.15 C 74.26 101.93 72.49 101.80 70.74 101.65 Z" />
</g>
<g id="#989789ff">
<path fill="#989789" opacity="1.00" d=" M 114.95 104.07 C 116.51 102.85 118.08 101.62 119.86 100.73 C 119.83 101.50 119.77 103.04 119.75 103.81 C 118.98 106.41 118.40 109.28 116.27 111.16 C 115.92 110.87 115.24 110.29 114.90 110.00 C 114.51 108.78 114.22 107.54 114.05 106.27 C 114.28 105.72 114.72 104.62 114.95 104.07 Z" />
</g>
<g id="#766987ff">
<path fill="#766987" opacity="1.00" d=" M 48.29 101.88 C 48.82 102.50 49.32 103.15 49.78 103.82 C 47.38 108.26 45.43 112.95 43.60 117.66 C 42.65 118.06 42.19 118.77 42.24 119.79 C 41.95 121.55 41.78 123.86 40.03 124.80 C 37.73 123.32 35.37 123.15 32.96 124.31 C 31.31 123.76 28.64 124.77 27.67 123.10 C 27.95 121.71 28.29 120.34 28.77 119.01 C 29.39 119.76 30.05 120.49 30.73 121.19 C 33.26 122.25 36.87 119.72 39.20 118.24 C 40.89 116.88 42.07 115.05 43.15 113.20 C 45.36 109.67 46.96 105.81 48.29 101.88 Z" />
</g>
<g id="#cbd2c5ff">
<path fill="#cbd2c5" opacity="1.00" d=" M 64.82 104.55 C 65.58 103.40 66.68 102.58 67.75 101.76 C 68.50 101.73 69.99 101.68 70.74 101.65 C 72.49 101.80 74.26 101.93 76.01 102.15 C 76.74 106.01 75.19 109.43 72.97 112.39 C 70.26 109.76 67.66 107.03 64.82 104.55 Z" />
</g>
<g id="#08334ce6">
<path fill="#08334c" opacity="0.90" d=" M 26.46 102.82 C 27.18 105.13 26.10 107.46 25.84 109.75 C 21.26 110.77 21.93 115.93 20.44 119.35 C 19.19 125.76 21.68 132.14 23.92 138.03 C 26.69 144.01 28.72 150.76 33.75 155.28 C 34.71 158.89 30.56 157.59 29.15 155.83 C 23.69 146.49 20.02 136.13 17.46 125.65 C 15.95 121.55 18.57 117.91 19.08 114.01 C 18.87 108.67 25.26 107.44 26.46 102.82 Z" />
</g>
<g id="#c8abccff">
<path fill="#c8abcc" opacity="1.00" d=" M 35.37 102.76 C 36.59 107.81 33.28 112.73 32.79 117.78 C 32.09 118.91 31.41 120.05 30.73 121.19 C 30.05 120.49 29.39 119.76 28.77 119.01 C 31.41 114.15 33.54 108.97 34.92 103.61 L 35.37 102.76 Z" />
</g>
<g id="#34acdbff">
<path fill="#34acdb" opacity="1.00" d=" M 94.04 102.86 C 96.23 107.16 102.51 101.76 105.99 103.83 C 106.29 104.12 106.91 104.70 107.22 104.98 C 106.88 105.19 106.21 105.62 105.87 105.83 C 101.87 104.86 95.60 104.32 94.00 109.06 C 94.06 106.99 94.07 104.93 94.04 102.86 Z" />
</g>
<g id="#e3c3dfff">
<path fill="#e3c3df" opacity="1.00" d=" M 28.82 115.11 C 30.15 110.95 32.43 107.17 34.92 103.61 C 33.54 108.97 31.41 114.15 28.77 119.01 C 28.77 118.45 28.79 117.34 28.79 116.79 C 28.80 116.37 28.81 115.53 28.82 115.11 Z" />
</g>
<g id="#554e69ff">
<path fill="#554e69" opacity="1.00" d=" M 43.60 117.66 C 45.43 112.95 47.38 108.26 49.78 103.82 C 50.72 105.07 51.86 106.15 53.10 107.10 C 50.87 112.80 47.81 118.11 44.93 123.48 C 44.10 121.65 43.90 119.63 43.60 117.66 Z" />
</g>
<g id="#0e2f4bff">
<path fill="#0e2f4b" opacity="1.00" d=" M 62.09 106.87 C 62.35 105.28 62.96 103.57 64.82 104.55 C 67.66 107.03 70.26 109.76 72.97 112.39 C 73.60 113.05 74.25 113.70 74.91 114.35 C 75.14 114.59 75.60 115.07 75.84 115.32 C 76.41 116.61 77.01 117.90 77.63 119.17 C 77.93 120.50 78.14 121.86 78.62 123.15 C 79.08 124.36 79.68 125.52 80.25 126.69 C 79.70 126.77 78.61 126.93 78.06 127.00 L 77.11 126.66 C 76.74 125.77 76.34 124.89 75.93 124.01 C 75.71 123.54 75.27 122.59 75.05 122.12 C 74.49 120.75 74.01 119.35 73.44 117.99 C 73.17 117.50 72.63 116.52 72.36 116.03 C 71.69 115.36 70.98 114.74 70.21 114.19 C 68.88 113.17 67.60 112.08 66.37 110.94 C 65.01 109.52 63.59 108.14 62.09 106.87 Z" />
</g>
<g id="#2d5e73f6">
<path fill="#2d5e73" opacity="0.96" d=" M 116.27 111.16 C 118.40 109.28 118.98 106.41 119.75 103.81 C 119.96 105.30 120.23 106.79 120.58 108.26 C 120.79 110.94 118.94 113.44 118.81 116.17 C 118.28 115.08 117.78 113.98 117.21 112.92 C 116.97 112.48 116.50 111.60 116.27 111.16 Z" />
</g>
<g id="#949890ff">
<path fill="#949890" opacity="1.00" d=" M 81.09 105.14 C 81.56 105.04 82.50 104.85 82.97 104.75 C 83.26 105.02 83.85 105.57 84.15 105.84 C 84.09 108.52 84.04 111.21 83.99 113.90 C 81.24 114.18 78.55 114.85 75.84 115.32 C 75.60 115.07 75.14 114.59 74.91 114.35 C 78.33 113.29 80.27 109.97 81.90 107.03 C 81.70 106.56 81.29 105.62 81.09 105.14 Z" />
</g>
<g id="#4adefdff">
<path fill="#4adefd" opacity="1.00" d=" M 94.00 109.06 C 95.60 104.32 101.87 104.86 105.87 105.83 C 102.40 110.68 105.73 118.37 100.87 122.48 C 98.93 122.15 96.96 122.04 94.99 121.99 C 94.81 121.68 94.46 121.06 94.28 120.75 C 93.99 118.23 93.21 115.80 91.99 113.58 L 91.73 112.92 C 92.41 111.58 93.24 110.34 94.00 109.06 Z" />
</g>
<g id="#425054ff">
<path fill="#425054" opacity="1.00" d=" M 84.15 105.84 C 85.37 106.85 84.78 108.74 85.11 110.13 C 85.80 112.97 85.45 115.27 84.04 117.02 C 84.03 116.24 84.00 114.68 83.99 113.90 C 84.04 111.21 84.09 108.52 84.15 105.84 Z" />
</g>
<g id="#41c1f5ff">
<path fill="#41c1f5" opacity="1.00" d=" M 105.87 105.83 C 107.20 106.21 108.51 106.65 109.84 107.03 C 109.00 112.32 108.53 117.67 107.81 122.98 C 105.46 123.14 103.15 122.98 100.87 122.48 C 105.73 118.37 102.40 110.68 105.87 105.83 Z" />
</g>
<g id="#2e5e75ff">
<path fill="#2e5e75" opacity="1.00" d=" M 110.74 107.25 C 111.85 106.94 112.95 106.61 114.05 106.27 C 114.22 107.54 114.51 108.78 114.90 110.00 L 114.00 110.12 C 112.87 109.20 111.80 108.23 110.74 107.25 Z" />
</g>
<g id="#d4e4dffd">
<path fill="#d4e4df" opacity="1.00" d=" M 53.10 107.10 C 54.17 107.81 55.03 108.75 55.33 110.03 C 54.97 110.52 54.26 111.48 53.90 111.97 C 49.81 116.38 48.79 123.13 43.69 126.67 C 40.88 128.66 37.24 127.73 34.00 128.06 C 31.04 128.37 23.95 128.54 23.90 123.99 C 24.66 123.50 25.20 122.87 25.50 122.10 C 25.69 121.28 26.06 119.65 26.25 118.83 C 26.72 120.25 27.07 121.72 27.67 123.10 C 28.64 124.77 31.31 123.76 32.96 124.31 C 35.42 125.85 37.78 126.02 40.03 124.80 C 41.78 123.86 41.95 121.55 42.24 119.79 C 42.73 121.16 42.94 125.45 44.93 123.48 C 47.81 118.11 50.87 112.80 53.10 107.10 Z" />
</g>
<g id="#e2e7d9ff">
<path fill="#e2e7d9" opacity="1.00" d=" M 62.09 106.87 C 63.59 108.14 65.01 109.52 66.37 110.94 C 65.49 114.34 62.24 115.97 58.80 115.81 C 56.74 116.00 54.68 116.31 52.61 116.22 C 53.15 115.18 53.65 114.13 54.11 113.06 C 56.99 111.32 59.95 109.51 62.09 106.87 Z" />
</g>
<g id="#35a6d8ff">
<path fill="#35a6d8" opacity="1.00" d=" M 109.84 107.03 L 110.74 107.25 C 111.80 108.23 112.87 109.20 114.00 110.12 C 111.15 113.39 111.08 118.11 111.12 122.24 C 111.12 122.73 111.10 123.72 111.10 124.22 C 109.02 124.62 106.91 124.39 104.81 124.56 C 101.91 124.43 99.02 124.03 96.11 124.02 C 95.95 125.41 95.84 126.80 95.77 128.20 C 95.57 126.65 95.18 123.54 94.99 121.99 C 96.96 122.04 98.93 122.15 100.87 122.48 C 103.15 122.98 105.46 123.14 107.81 122.98 C 108.53 117.67 109.00 112.32 109.84 107.03 Z" />
</g>
<g id="#174e72ff">
<path fill="#174e72" opacity="1.00" d=" M 85.11 110.13 C 87.72 111.19 91.50 108.74 91.73 112.92 L 91.99 113.58 C 90.81 114.76 89.69 116.01 88.78 117.42 C 87.05 118.43 85.32 119.49 84.02 121.05 C 83.81 120.72 83.40 120.07 83.20 119.74 C 83.09 119.27 82.88 118.34 82.78 117.87 C 83.10 117.66 83.73 117.23 84.04 117.02 C 85.45 115.27 85.80 112.97 85.11 110.13 Z" />
</g>
<g id="#2f8eb7ff">
<path fill="#2f8eb7" opacity="1.00" d=" M 114.00 110.12 L 114.90 110.00 C 115.24 110.29 115.92 110.87 116.27 111.16 C 116.50 111.60 116.97 112.48 117.21 112.92 C 115.66 114.86 113.67 116.55 112.87 118.97 C 112.31 120.07 111.73 121.16 111.12 122.24 C 111.08 118.11 111.15 113.39 114.00 110.12 Z" />
</g>
<g id="#cbcfc1ff">
<path fill="#cbcfc1" opacity="1.00" d=" M 66.37 110.94 C 67.60 112.08 68.88 113.17 70.21 114.19 C 68.20 115.74 65.71 116.12 63.25 116.33 C 61.77 116.14 60.28 115.97 58.80 115.81 C 62.24 115.97 65.49 114.34 66.37 110.94 Z" />
</g>
<g id="#7d8784f4">
<path fill="#7d8784" opacity="0.96" d=" M 43.69 126.67 C 48.79 123.13 49.81 116.38 53.90 111.97 L 54.11 113.06 C 53.65 114.13 53.15 115.18 52.61 116.22 C 51.91 117.44 51.34 118.72 50.84 120.03 C 50.59 120.46 50.10 121.30 49.85 121.73 C 48.62 123.64 47.61 125.69 46.81 127.82 C 45.80 128.07 44.79 128.32 43.79 128.59 C 41.53 128.03 35.14 130.51 34.00 128.06 C 37.24 127.73 40.88 128.66 43.69 126.67 Z" />
</g>
<g id="#2a7da5ff">
<path fill="#2a7da5" opacity="1.00" d=" M 117.21 112.92 C 117.78 113.98 118.28 115.08 118.81 116.17 C 118.87 120.18 118.88 124.20 118.82 128.22 C 118.45 124.66 117.90 121.14 117.18 117.67 C 116.46 115.75 114.07 118.49 112.87 118.97 C 113.67 116.55 115.66 114.86 117.21 112.92 Z" />
</g>
<g id="#666c77ff">
<path fill="#666c77" opacity="1.00" d=" M 25.10 117.22 C 25.62 116.12 26.11 115.01 26.62 113.91 C 27.17 114.21 28.27 114.81 28.82 115.11 C 28.81 115.53 28.80 116.37 28.79 116.79 C 27.96 117.40 26.30 117.54 26.25 118.83 C 26.06 119.65 25.69 121.28 25.50 122.10 C 25.24 120.48 25.09 118.85 25.10 117.22 Z" />
</g>
<g id="#9ba298ff">
<path fill="#9ba298" opacity="1.00" d=" M 70.21 114.19 C 70.98 114.74 71.69 115.36 72.36 116.03 C 67.08 116.99 60.49 117.02 56.87 121.72 C 55.14 121.37 53.43 120.88 51.76 120.32 C 55.86 119.53 58.66 115.89 63.25 116.33 C 65.71 116.12 68.20 115.74 70.21 114.19 Z" />
</g>
<g id="#7b827fff">
<path fill="#7b827f" opacity="1.00" d=" M 75.84 115.32 C 78.55 114.85 81.24 114.18 83.99 113.90 C 84.00 114.68 84.03 116.24 84.04 117.02 C 83.73 117.23 83.10 117.66 82.78 117.87 C 81.00 118.04 79.25 118.40 77.63 119.17 C 77.01 117.90 76.41 116.61 75.84 115.32 Z" />
</g>
<g id="#92a796ff">
<path fill="#92a796" opacity="1.00" d=" M 88.78 117.42 C 89.69 116.01 90.81 114.76 91.99 113.58 C 93.21 115.80 93.99 118.23 94.28 120.75 C 94.14 122.40 93.87 125.69 93.73 127.34 C 92.00 124.07 91.15 120.34 88.78 117.42 Z" />
</g>
<g id="#9ba19edf">
<path fill="#9ba19e" opacity="0.87" d=" M 24.18 116.00 L 25.06 116.19 L 25.10 117.22 C 25.09 118.85 25.24 120.48 25.50 122.10 C 25.20 122.87 24.66 123.50 23.90 123.99 C 21.54 123.23 24.44 118.38 24.18 116.00 Z" />
</g>
<g id="#babfafff">
<path fill="#babfaf" opacity="1.00" d=" M 50.84 120.03 C 51.34 118.72 51.91 117.44 52.61 116.22 C 54.68 116.31 56.74 116.00 58.80 115.81 C 60.28 115.97 61.77 116.14 63.25 116.33 C 58.66 115.89 55.86 119.53 51.76 120.32 L 50.84 120.03 Z" />
</g>
<g id="#858e88ff">
<path fill="#858e88" opacity="1.00" d=" M 72.36 116.03 C 72.63 116.52 73.17 117.50 73.44 117.99 C 69.83 119.92 64.67 118.68 61.74 121.90 C 60.12 121.93 58.49 121.94 56.87 121.72 C 60.49 117.02 67.08 116.99 72.36 116.03 Z" />
</g>
<g id="#102a3494">
<path fill="#102a34" opacity="0.58" d=" M 118.81 116.17 L 119.87 115.97 C 119.95 120.30 120.23 124.65 119.91 128.98 L 118.91 129.11 L 118.82 128.22 C 118.88 124.20 118.87 120.18 118.81 116.17 Z" />
</g>
<g id="#8fa6c2ff">
<path fill="#8fa6c2" opacity="1.00" d=" M 26.25 118.83 C 26.30 117.54 27.96 117.40 28.79 116.79 C 28.79 117.34 28.77 118.45 28.77 119.01 C 28.29 120.34 27.95 121.71 27.67 123.10 C 27.07 121.72 26.72 120.25 26.25 118.83 Z" />
</g>
<g id="#5f6964ff">
<path fill="#5f6964" opacity="1.00" d=" M 112.87 118.97 C 114.07 118.49 116.46 115.75 117.18 117.67 L 117.10 118.66 C 113.46 119.48 112.39 123.22 111.15 126.22 C 111.14 125.72 111.11 124.72 111.10 124.22 C 111.10 123.72 111.12 122.73 111.12 122.24 C 111.73 121.16 112.31 120.07 112.87 118.97 Z" />
</g>
<g id="#a18aabff">
<path fill="#a18aab" opacity="1.00" d=" M 30.73 121.19 C 31.41 120.05 32.09 118.91 32.79 117.78 C 34.17 117.88 35.56 117.97 36.94 118.05 C 37.51 118.10 38.64 118.19 39.20 118.24 C 36.87 119.72 33.26 122.25 30.73 121.19 Z" />
</g>
<g id="#94abccff">
<path fill="#94abcc" opacity="1.00" d=" M 42.24 119.79 C 42.19 118.77 42.65 118.06 43.60 117.66 C 43.90 119.63 44.10 121.65 44.93 123.48 C 42.94 125.45 42.73 121.16 42.24 119.79 Z" />
</g>
<g id="#747d77ff">
<path fill="#747d77" opacity="1.00" d=" M 73.44 117.99 C 74.01 119.35 74.49 120.75 75.05 122.12 L 74.23 122.21 C 70.07 122.10 65.90 122.00 61.74 121.90 C 64.67 118.68 69.83 119.92 73.44 117.99 Z" />
</g>
<g id="#6a6f69ff">
<path fill="#6a6f69" opacity="1.00" d=" M 77.63 119.17 C 79.25 118.40 81.00 118.04 82.78 117.87 C 82.88 118.34 83.09 119.27 83.20 119.74 C 81.54 120.74 78.95 120.83 78.62 123.15 C 78.14 121.86 77.93 120.50 77.63 119.17 Z" />
</g>
<g id="#246080ff">
<path fill="#246080" opacity="1.00" d=" M 84.02 121.05 C 85.32 119.49 87.05 118.43 88.78 117.42 C 91.15 120.34 92.00 124.07 93.73 127.34 C 93.87 125.69 94.14 122.40 94.28 120.75 C 94.46 121.06 94.81 121.68 94.99 121.99 C 95.18 123.54 95.57 126.65 95.77 128.20 C 95.87 128.85 96.06 130.14 96.16 130.78 C 96.15 132.45 96.13 134.13 96.16 135.81 C 95.96 137.77 94.86 139.73 95.28 141.71 C 97.02 143.96 98.88 146.13 100.84 148.21 C 100.97 146.48 101.03 144.76 101.03 143.03 C 101.49 143.93 101.91 144.86 102.27 145.81 C 102.33 148.33 102.24 150.75 99.30 149.05 C 99.62 152.43 100.05 155.83 99.82 159.24 C 98.75 156.47 97.78 153.38 94.86 152.03 C 94.13 151.42 93.42 150.80 92.71 150.17 C 91.38 147.67 92.87 145.47 94.13 143.35 C 91.12 144.68 91.61 141.24 91.19 138.85 C 90.94 138.35 90.43 137.34 90.18 136.83 C 89.47 134.84 88.86 132.82 88.33 130.78 C 87.89 128.99 87.15 127.31 86.30 125.69 C 85.58 124.12 84.80 122.58 84.02 121.05 Z" />
</g>
<g id="#386070fb">
<path fill="#386070" opacity="1.00" d=" M 117.18 117.67 C 117.90 121.14 118.45 124.66 118.82 128.22 L 118.91 129.11 C 118.59 131.00 118.48 135.63 117.27 135.70 C 117.00 134.76 116.67 133.85 116.29 132.96 C 114.88 131.26 113.32 129.69 112.06 127.87 C 113.37 128.49 114.63 129.21 115.93 129.84 C 116.67 126.16 116.89 122.40 117.10 118.66 L 117.18 117.67 Z" />
</g>
<g id="#b5b19dff">
<path fill="#b5b19d" opacity="1.00" d=" M 111.15 126.22 C 112.39 123.22 113.46 119.48 117.10 118.66 C 116.89 122.40 116.67 126.16 115.93 129.84 C 114.63 129.21 113.37 128.49 112.06 127.87 C 111.78 127.66 111.22 127.26 110.94 127.05 L 111.15 126.22 Z" />
</g>
<g id="#b9ae87ff">
<path fill="#b9ae87" opacity="1.00" d=" M 50.84 120.03 L 51.76 120.32 C 53.43 120.88 55.14 121.37 56.87 121.72 C 58.49 121.94 60.12 121.93 61.74 121.90 C 65.90 122.00 70.07 122.10 74.23 122.21 C 68.79 123.11 63.26 123.07 57.77 123.28 C 55.11 122.86 52.52 122.11 49.85 121.73 C 50.10 121.30 50.59 120.46 50.84 120.03 Z" />
</g>
<g id="#b9b7a7ff">
<path fill="#b9b7a7" opacity="1.00" d=" M 78.62 123.15 C 78.95 120.83 81.54 120.74 83.20 119.74 C 83.40 120.07 83.81 120.72 84.02 121.05 C 84.80 122.58 85.58 124.12 86.30 125.69 C 84.83 128.83 83.58 132.06 82.30 135.29 C 82.83 132.52 82.44 130.05 81.11 127.88 C 80.90 127.58 80.47 126.99 80.25 126.69 C 79.68 125.52 79.08 124.36 78.62 123.15 Z" />
</g>
<g id="#fdfdf6fe">
<path fill="#fdfdf6" opacity="1.00" d=" M 46.81 127.82 C 47.61 125.69 48.62 123.64 49.85 121.73 C 52.52 122.11 55.11 122.86 57.77 123.28 C 62.50 124.13 67.31 123.98 72.09 124.03 C 72.69 130.15 67.18 134.37 63.29 138.27 C 61.06 140.86 57.22 140.09 54.27 141.26 C 52.54 143.20 52.33 145.98 51.26 148.27 C 48.33 145.73 48.30 140.05 47.04 136.02 C 46.97 133.28 46.90 130.55 46.81 127.82 Z" />
</g>
<g id="#e6e5c8ff">
<path fill="#e6e5c8" opacity="1.00" d=" M 74.23 122.21 L 75.05 122.12 C 75.27 122.59 75.71 123.54 75.93 124.01 C 74.65 124.00 73.37 124.01 72.09 124.03 C 67.31 123.98 62.50 124.13 57.77 123.28 C 63.26 123.07 68.79 123.11 74.23 122.21 Z" />
</g>
<g id="#baa6b0ff">
<path fill="#baa6b0" opacity="1.00" d=" M 32.96 124.31 C 35.37 123.15 37.73 123.32 40.03 124.80 C 37.78 126.02 35.42 125.85 32.96 124.31 Z" />
</g>
<g id="#f7f4dafd">
<path fill="#f7f4da" opacity="1.00" d=" M 72.09 124.03 C 73.37 124.01 74.65 124.00 75.93 124.01 C 76.34 124.89 76.74 125.77 77.11 126.66 C 74.47 127.07 74.25 130.15 72.94 131.98 C 69.90 138.28 64.15 143.14 57.19 144.35 C 56.91 147.13 53.44 151.84 55.61 154.12 C 56.14 154.30 57.21 154.66 57.74 154.84 C 59.10 155.20 60.46 155.60 61.83 155.94 C 63.90 157.29 64.63 159.32 64.00 162.04 C 64.36 166.62 66.91 170.77 67.27 175.32 C 58.89 168.64 54.61 158.17 51.26 148.27 C 52.33 145.98 52.54 143.20 54.27 141.26 C 57.22 140.09 61.06 140.86 63.29 138.27 C 67.18 134.37 72.69 130.15 72.09 124.03 Z" />
</g>
<g id="#42c6f4ff">
<path fill="#42c6f4" opacity="1.00" d=" M 96.11 124.02 C 99.02 124.03 101.91 124.43 104.81 124.56 C 106.60 125.30 108.34 126.14 110.12 126.89 C 111.96 129.39 108.47 128.87 107.19 130.22 C 105.27 132.34 104.93 135.36 103.73 137.89 C 99.82 138.18 96.55 134.53 96.16 130.78 C 96.06 130.14 95.87 128.85 95.77 128.20 C 95.84 126.80 95.95 125.41 96.11 124.02 Z" />
</g>
<g id="#237badff">
<path fill="#237bad" opacity="1.00" d=" M 104.81 124.56 C 106.91 124.39 109.02 124.62 111.10 124.22 C 111.11 124.72 111.14 125.72 111.15 126.22 L 110.94 127.05 L 110.12 126.89 C 108.34 126.14 106.60 125.30 104.81 124.56 Z" />
</g>
<g id="#9e9f94ff">
<path fill="#9e9f94" opacity="1.00" d=" M 86.30 125.69 C 87.15 127.31 87.89 128.99 88.33 130.78 C 88.83 136.15 85.01 140.16 80.98 143.12 C 81.03 138.04 81.01 132.96 81.11 127.88 C 82.44 130.05 82.83 132.52 82.30 135.29 C 83.58 132.06 84.83 128.83 86.30 125.69 Z" />
</g>
<g id="#ece7ccff">
<path fill="#ece7cc" opacity="1.00" d=" M 72.94 131.98 C 74.25 130.15 74.47 127.07 77.11 126.66 C 77.05 128.03 76.99 129.41 76.93 130.78 C 73.60 134.22 71.51 138.67 67.81 141.78 C 64.73 143.46 61.42 144.66 58.32 146.27 C 57.74 148.52 57.29 150.81 56.90 153.10 C 56.58 153.35 55.93 153.87 55.61 154.12 C 53.44 151.84 56.91 147.13 57.19 144.35 C 64.15 143.14 69.90 138.28 72.94 131.98 Z" />
</g>
<g id="#cac8b2ff">
<path fill="#cac8b2" opacity="1.00" d=" M 77.11 126.66 L 78.06 127.00 C 78.04 130.96 78.00 134.91 77.96 138.87 C 74.46 142.43 69.97 144.66 65.38 146.48 C 62.43 147.84 61.67 151.13 60.86 153.96 C 59.81 154.22 58.77 154.51 57.74 154.84 C 57.21 154.66 56.14 154.30 55.61 154.12 C 55.93 153.87 56.58 153.35 56.90 153.10 C 60.44 152.90 58.68 147.70 61.61 146.55 C 65.02 144.06 69.64 143.62 72.79 140.78 C 74.75 137.72 77.62 134.72 76.93 130.78 C 76.99 129.41 77.05 128.03 77.11 126.66 Z" />
</g>
<g id="#15445eff">
<path fill="#15445e" opacity="1.00" d=" M 78.06 127.00 C 78.61 126.93 79.70 126.77 80.25 126.69 C 80.47 126.99 80.90 127.58 81.11 127.88 C 81.01 132.96 81.03 138.04 80.98 143.12 L 80.86 143.89 C 80.40 146.58 79.93 149.31 79.93 152.06 C 79.94 152.80 79.94 154.27 79.94 155.01 C 79.96 156.52 79.99 159.55 80.01 161.07 C 83.86 160.11 84.99 155.97 86.16 152.66 C 88.30 156.31 86.66 159.22 84.25 161.71 C 82.77 162.50 81.24 163.22 79.80 164.07 C 77.53 163.86 76.57 162.07 76.89 159.95 C 76.94 158.62 76.98 157.29 77.02 155.97 C 77.08 155.50 77.20 154.58 77.26 154.11 C 77.66 151.38 78.01 148.66 78.00 145.90 C 78.01 144.57 78.01 143.24 77.98 141.91 C 77.98 141.15 77.97 139.63 77.96 138.87 C 78.00 134.91 78.04 130.96 78.06 127.00 Z" />
</g>
<g id="#339bc6ff">
<path fill="#339bc6" opacity="1.00" d=" M 110.12 126.89 L 110.94 127.05 C 111.22 127.26 111.78 127.66 112.06 127.87 C 113.32 129.69 114.88 131.26 116.29 132.96 C 116.17 134.99 114.09 135.10 112.62 135.75 C 110.09 135.62 108.10 136.82 106.98 139.07 C 106.27 140.03 105.54 140.98 104.94 142.02 C 105.92 143.48 107.19 144.72 108.28 146.09 C 108.01 146.57 107.47 147.52 107.21 147.99 C 106.22 146.08 104.18 145.94 102.27 145.81 C 101.91 144.86 101.49 143.93 101.03 143.03 C 99.74 140.41 98.52 137.66 96.16 135.81 C 96.13 134.13 96.15 132.45 96.16 130.78 C 96.55 134.53 99.82 138.18 103.73 137.89 C 104.93 135.36 105.27 132.34 107.19 130.22 C 108.47 128.87 111.96 129.39 110.12 126.89 Z" />
</g>
<g id="#20202060">
<path fill="#202020" opacity="0.38" d=" M 43.79 128.59 C 44.79 128.32 45.80 128.07 46.81 127.82 C 46.90 130.55 46.97 133.28 47.04 136.02 C 43.08 136.42 48.78 127.91 43.79 128.59 Z" />
</g>
<g id="#dcd8c0ff">
<path fill="#dcd8c0" opacity="1.00" d=" M 67.81 141.78 C 71.51 138.67 73.60 134.22 76.93 130.78 C 77.62 134.72 74.75 137.72 72.79 140.78 C 69.64 143.62 65.02 144.06 61.61 146.55 C 58.68 147.70 60.44 152.90 56.90 153.10 C 57.29 150.81 57.74 148.52 58.32 146.27 C 61.42 144.66 64.73 143.46 67.81 141.78 Z" />
</g>
<g id="#8a8c85ff">
<path fill="#8a8c85" opacity="1.00" d=" M 88.33 130.78 C 88.86 132.82 89.47 134.84 90.18 136.83 C 90.08 138.16 89.98 139.49 89.87 140.82 C 86.72 143.75 83.79 146.90 81.06 150.21 C 81.02 148.10 80.92 146.00 80.86 143.89 L 80.98 143.12 C 85.01 140.16 88.83 136.15 88.33 130.78 Z" />
</g>
<g id="#216f93f9">
<path fill="#216f93" opacity="0.98" d=" M 116.29 132.96 C 116.67 133.85 117.00 134.76 117.27 135.70 C 118.55 138.36 117.62 141.17 116.82 143.80 C 115.64 145.58 114.51 147.92 112.12 148.20 C 113.15 144.68 117.24 139.08 113.23 136.44 L 112.62 135.75 C 114.09 135.10 116.17 134.99 116.29 132.96 Z" />
</g>
<g id="#adb9a6ff">
<path fill="#adb9a6" opacity="1.00" d=" M 96.16 135.81 C 98.52 137.66 99.74 140.41 101.03 143.03 C 101.03 144.76 100.97 146.48 100.84 148.21 C 98.88 146.13 97.02 143.96 95.28 141.71 C 94.86 139.73 95.96 137.77 96.16 135.81 Z" />
</g>
<g id="#4e696dff">
<path fill="#4e696d" opacity="1.00" d=" M 106.98 139.07 C 108.10 136.82 110.09 135.62 112.62 135.75 L 113.23 136.44 C 111.09 137.17 109.05 138.17 106.98 139.07 Z" />
</g>
<g id="#515955ff">
<path fill="#515955" opacity="1.00" d=" M 90.18 136.83 C 90.43 137.34 90.94 138.35 91.19 138.85 C 91.45 141.44 91.14 143.92 90.26 146.27 C 90.13 144.46 89.98 142.64 89.87 140.82 C 89.98 139.49 90.08 138.16 90.18 136.83 Z" />
</g>
<g id="#adac9aff">
<path fill="#adac9a" opacity="1.00" d=" M 106.98 139.07 C 109.05 138.17 111.09 137.17 113.23 136.44 C 114.79 140.60 112.59 145.32 109.33 148.02 C 109.07 147.54 108.54 146.57 108.28 146.09 C 107.19 144.72 105.92 143.48 104.94 142.02 C 105.54 140.98 106.27 140.03 106.98 139.07 Z" />
</g>
<g id="#315a6bfb">
<path fill="#315a6b" opacity="1.00" d=" M 113.23 136.44 C 117.24 139.08 113.15 144.68 112.12 148.20 C 114.51 147.92 115.64 145.58 116.82 143.80 C 116.71 145.48 116.80 149.38 115.26 149.62 C 113.21 149.74 112.06 153.00 110.22 154.18 C 109.99 152.35 109.63 150.55 109.16 148.78 L 109.33 148.02 C 112.59 145.32 114.79 140.60 113.23 136.44 Z" />
</g>
<g id="#b7b6a5ff">
<path fill="#b7b6a5" opacity="1.00" d=" M 65.38 146.48 C 69.97 144.66 74.46 142.43 77.96 138.87 C 77.97 139.63 77.98 141.15 77.98 141.91 C 73.92 146.12 66.49 146.21 64.36 152.32 C 64.04 154.11 62.24 153.79 60.86 153.96 C 61.67 151.13 62.43 147.84 65.38 146.48 Z" />
</g>
<g id="#1d455eff">
<path fill="#1d455e" opacity="1.00" d=" M 91.19 138.85 C 91.61 141.24 91.12 144.68 94.13 143.35 C 92.87 145.47 91.38 147.67 92.71 150.17 C 92.31 150.02 91.52 149.74 91.12 149.59 C 90.61 149.42 89.60 149.07 89.09 148.90 C 89.51 148.03 89.90 147.16 90.26 146.27 C 91.14 143.92 91.45 141.44 91.19 138.85 Z" />
</g>
<g id="#78807cff">
<path fill="#78807c" opacity="1.00" d=" M 81.06 150.21 C 83.79 146.90 86.72 143.75 89.87 140.82 C 89.98 142.64 90.13 144.46 90.26 146.27 C 89.90 147.16 89.51 148.03 89.09 148.90 C 86.58 150.35 83.76 152.64 80.77 152.26 C 80.84 151.75 80.98 150.72 81.06 150.21 Z" />
</g>
<g id="#a5a595ff">
<path fill="#a5a595" opacity="1.00" d=" M 64.36 152.32 C 66.49 146.21 73.92 146.12 77.98 141.91 C 78.01 143.24 78.01 144.57 78.00 145.90 C 74.50 148.78 69.80 150.62 67.85 154.94 C 66.12 155.04 64.37 155.15 62.71 155.71 L 61.83 155.94 C 60.46 155.60 59.10 155.20 57.74 154.84 C 58.77 154.51 59.81 154.22 60.86 153.96 C 62.24 153.79 64.04 154.11 64.36 152.32 Z" />
</g>
<g id="#385969ff">
<path fill="#385969" opacity="1.00" d=" M 79.93 152.06 C 79.93 149.31 80.40 146.58 80.86 143.89 C 80.92 146.00 81.02 148.10 81.06 150.21 C 80.98 150.72 80.84 151.75 80.77 152.26 L 79.93 152.06 Z" />
</g>
<g id="#8e928aff">
<path fill="#8e928a" opacity="1.00" d=" M 67.85 154.94 C 69.80 150.62 74.50 148.78 78.00 145.90 C 78.01 148.66 77.66 151.38 77.26 154.11 C 74.11 154.21 71.01 154.99 67.85 154.94 Z" />
</g>
<g id="#1f698bff">
<path fill="#1f698b" opacity="1.00" d=" M 102.27 145.81 C 104.18 145.94 106.22 146.08 107.21 147.99 C 106.11 148.42 103.19 147.05 103.26 148.76 C 103.32 151.57 102.04 154.81 103.82 157.24 C 105.69 158.95 107.57 154.71 106.94 152.98 L 107.14 152.06 C 107.80 150.96 108.41 149.82 109.16 148.78 C 109.63 150.55 109.99 152.35 110.22 154.18 C 110.10 155.76 110.03 157.35 109.94 158.95 C 109.72 159.22 109.27 159.77 109.04 160.05 C 107.91 160.88 107.00 161.96 106.08 163.01 C 104.45 163.62 102.91 164.46 101.25 164.97 C 100.73 163.07 100.23 161.16 99.82 159.24 C 100.05 155.83 99.62 152.43 99.30 149.05 C 102.24 150.75 102.33 148.33 102.27 145.81 Z" />
</g>
<g id="#438094ff">
<path fill="#438094" opacity="1.00" d=" M 108.28 146.09 C 108.54 146.57 109.07 147.54 109.33 148.02 L 109.16 148.78 C 108.41 149.82 107.80 150.96 107.14 152.06 C 107.10 150.70 107.12 149.35 107.21 147.99 C 107.47 147.52 108.01 146.57 108.28 146.09 Z" />
</g>
<g id="#b8b7a2ff">
<path fill="#b8b7a2" opacity="1.00" d=" M 103.26 148.76 C 103.19 147.05 106.11 148.42 107.21 147.99 C 107.12 149.35 107.10 150.70 107.14 152.06 L 106.94 152.98 C 105.97 154.12 104.99 155.25 103.98 156.36 C 104.05 153.78 103.81 151.24 103.26 148.76 Z" />
</g>
<g id="#707263ff">
<path fill="#707263" opacity="1.00" d=" M 80.77 152.26 C 83.76 152.64 86.58 150.35 89.09 148.90 C 89.60 149.07 90.61 149.42 91.12 149.59 C 89.33 150.38 87.74 151.52 86.16 152.66 C 84.09 153.45 82.00 154.17 79.94 155.01 C 79.94 154.27 79.94 152.80 79.93 152.06 L 80.77 152.26 Z" />
</g>
<g id="#508997ff">
<path fill="#508997" opacity="1.00" d=" M 103.26 148.76 C 103.81 151.24 104.05 153.78 103.98 156.36 L 103.82 157.24 C 102.04 154.81 103.32 151.57 103.26 148.76 Z" />
</g>
<g id="#68947ff3">
<path fill="#68947f" opacity="0.95" d=" M 110.22 154.18 C 112.06 153.00 113.21 149.74 115.26 149.62 C 115.00 153.15 112.76 157.12 109.94 158.95 C 110.03 157.35 110.10 155.76 110.22 154.18 Z" />
</g>
<g id="#94968cff">
<path fill="#94968c" opacity="1.00" d=" M 86.16 152.66 C 87.74 151.52 89.33 150.38 91.12 149.59 C 91.52 149.74 92.31 150.02 92.71 150.17 C 93.42 150.80 94.13 151.42 94.86 152.03 C 95.33 153.00 95.82 153.96 96.32 154.92 C 93.04 161.47 88.16 166.93 83.31 172.34 C 81.99 174.55 84.68 176.03 85.97 177.38 C 85.99 177.81 86.03 178.66 86.05 179.09 L 85.26 178.80 C 82.89 178.03 80.74 176.72 79.20 174.74 C 77.70 169.58 84.50 166.74 84.25 161.71 C 86.66 159.22 88.30 156.31 86.16 152.66 Z" />
</g>
<g id="#344d54ff">
<path fill="#344d54" opacity="1.00" d=" M 94.86 152.03 C 97.78 153.38 98.75 156.47 99.82 159.24 C 100.23 161.16 100.73 163.07 101.25 164.97 C 102.91 164.46 104.45 163.62 106.08 163.01 C 104.53 165.12 102.26 166.49 100.28 168.15 C 100.13 165.25 99.48 162.41 98.41 159.71 C 97.89 158.04 97.19 156.44 96.32 154.92 C 95.82 153.96 95.33 153.00 94.86 152.03 Z" />
</g>
<g id="#a5a496ff">
<path fill="#a5a496" opacity="1.00" d=" M 79.94 155.01 C 82.00 154.17 84.09 153.45 86.16 152.66 C 84.99 155.97 83.86 160.11 80.01 161.07 C 79.99 159.55 79.96 156.52 79.94 155.01 Z" />
</g>
<g id="#5a6560ff">
<path fill="#5a6560" opacity="1.00" d=" M 103.98 156.36 C 104.99 155.25 105.97 154.12 106.94 152.98 C 107.57 154.71 105.69 158.95 103.82 157.24 L 103.98 156.36 Z" />
</g>
<g id="#8b876eff">
<path fill="#8b876e" opacity="1.00" d=" M 67.85 154.94 C 71.01 154.99 74.11 154.21 77.26 154.11 C 77.20 154.58 77.08 155.50 77.02 155.97 C 76.58 156.04 75.68 156.18 75.23 156.25 C 72.41 156.23 69.53 155.73 66.82 156.67 L 66.12 156.84 C 64.99 156.45 63.85 156.07 62.71 155.71 C 64.37 155.15 66.12 155.04 67.85 154.94 Z" />
</g>
<g id="#858a83ff">
<path fill="#858a83" opacity="1.00" d=" M 96.32 154.92 C 97.19 156.44 97.89 158.04 98.41 159.71 C 95.94 165.82 89.61 169.61 88.01 176.05 C 87.50 176.39 86.48 177.05 85.97 177.38 C 84.68 176.03 81.99 174.55 83.31 172.34 C 88.16 166.93 93.04 161.47 96.32 154.92 Z" />
</g>
<g id="#e5debdfd">
<path fill="#e5debd" opacity="1.00" d=" M 61.83 155.94 L 62.71 155.71 C 63.85 156.07 64.99 156.45 66.12 156.84 C 65.86 162.87 66.86 168.87 70.09 174.12 C 70.26 174.82 70.32 175.53 70.28 176.25 C 68.70 176.50 67.70 176.19 67.27 175.32 C 66.91 170.77 64.36 166.62 64.00 162.04 C 64.63 159.32 63.90 157.29 61.83 155.94 Z" />
</g>
<g id="#afa688ff">
<path fill="#afa688" opacity="1.00" d=" M 66.82 156.67 C 69.53 155.73 72.41 156.23 75.23 156.25 C 74.25 156.58 73.25 156.90 72.26 157.21 C 70.44 157.04 68.63 156.85 66.82 156.67 Z" />
</g>
<g id="#c4c0aaff">
<path fill="#c4c0aa" opacity="1.00" d=" M 75.23 156.25 C 75.68 156.18 76.58 156.04 77.02 155.97 C 76.98 157.29 76.94 158.62 76.89 159.95 C 75.43 161.52 73.70 162.80 72.19 164.33 C 71.58 168.63 72.76 172.95 72.35 177.24 C 71.83 177.00 70.80 176.50 70.28 176.25 C 70.32 175.53 70.26 174.82 70.09 174.12 C 69.84 171.09 68.92 168.18 68.46 165.20 C 68.83 162.09 71.86 160.30 72.26 157.21 C 73.25 156.90 74.25 156.58 75.23 156.25 Z" />
</g>
<g id="#d5ceb4ff">
<path fill="#d5ceb4" opacity="1.00" d=" M 66.12 156.84 L 66.82 156.67 C 68.63 156.85 70.44 157.04 72.26 157.21 C 71.86 160.30 68.83 162.09 68.46 165.20 C 68.92 168.18 69.84 171.09 70.09 174.12 C 66.86 168.87 65.86 162.87 66.12 156.84 Z" />
</g>
<g id="#b0b09efd">
<path fill="#b0b09e" opacity="1.00" d=" M 72.19 164.33 C 73.70 162.80 75.43 161.52 76.89 159.95 C 76.57 162.07 77.53 163.86 79.80 164.07 C 74.94 167.07 73.59 176.39 79.17 178.91 C 77.05 178.98 73.13 179.42 72.35 177.24 C 72.76 172.95 71.58 168.63 72.19 164.33 Z" />
</g>
<g id="#748681ff">
<path fill="#748681" opacity="1.00" d=" M 98.41 159.71 C 99.48 162.41 100.13 165.25 100.28 168.15 C 98.51 172.72 93.07 177.84 88.01 176.05 C 89.61 169.61 95.94 165.82 98.41 159.71 Z" />
</g>
<g id="#719a87f8">
<path fill="#719a87" opacity="0.97" d=" M 106.08 163.01 C 107.00 161.96 107.91 160.88 109.04 160.05 C 108.91 162.01 109.54 164.29 107.80 165.81 C 101.80 171.91 95.57 179.37 86.05 179.09 C 86.03 178.66 85.99 177.81 85.97 177.38 C 86.48 177.05 87.50 176.39 88.01 176.05 C 93.07 177.84 98.51 172.72 100.28 168.15 C 102.26 166.49 104.53 165.12 106.08 163.01 Z" />
</g>
<g id="#9fa497ff">
<path fill="#9fa497" opacity="1.00" d=" M 79.80 164.07 C 81.24 163.22 82.77 162.50 84.25 161.71 C 84.50 166.74 77.70 169.58 79.20 174.74 C 80.74 176.72 82.89 178.03 85.26 178.80 C 83.24 178.98 81.19 179.15 79.17 178.91 C 73.59 176.39 74.94 167.07 79.80 164.07 Z" />
</g>
</svg>
