<?xml version="1.0" encoding="UTF-8" ?>
<!DOCTYPE svg PUBLIC "-//W3C//DTD SVG 1.1//EN" "http://www.w3.org/Graphics/SVG/1.1/DTD/svg11.dtd">
<svg width="230pt" height="204pt" viewBox="0 0 230 204" version="1.1" xmlns="http://www.w3.org/2000/svg">
<g id="#8aedf4f9">
<path fill="#8aedf4" opacity="0.98" d=" M 56.32 27.28 C 54.28 20.81 58.94 9.24 67.16 12.20 C 62.76 14.51 58.63 18.37 57.04 23.12 C 56.80 24.51 56.60 25.90 56.32 27.28 Z" />
</g>
<g id="#72dcfcfe">
<path fill="#72dcfc" opacity="1.00" d=" M 67.16 12.20 C 68.54 11.51 69.41 12.59 69.99 13.68 C 67.14 14.08 67.46 17.57 66.55 19.64 C 66.01 21.76 63.47 20.69 61.89 21.05 C 60.06 20.77 58.58 21.53 57.68 23.13 L 57.04 23.12 C 58.63 18.37 62.76 14.51 67.16 12.20 Z" />
</g>
<g id="#67caf8ff">
<path fill="#67caf8" opacity="1.00" d=" M 66.55 19.64 C 67.46 17.57 67.14 14.08 69.99 13.68 C 71.05 14.09 71.62 14.75 71.69 15.68 C 70.48 19.07 70.18 21.89 74.05 21.03 C 74.60 21.06 75.71 21.12 76.26 21.15 C 75.87 22.13 75.43 23.09 74.95 24.03 C 73.57 26.21 72.89 28.71 72.56 31.26 L 71.76 30.76 C 71.89 28.13 71.95 25.51 71.93 22.88 C 69.95 24.57 68.07 26.37 66.18 28.17 C 66.00 27.80 65.64 27.06 65.46 26.69 C 64.89 24.46 63.37 22.74 61.89 21.05 C 63.47 20.69 66.01 21.76 66.55 19.64 Z" />
</g>
<g id="#6acef5fb">
<path fill="#6acef5" opacity="1.00" d=" M 106.32 14.34 C 109.33 14.72 113.50 12.70 116.12 15.20 C 110.61 18.05 106.34 22.68 101.73 26.74 C 100.70 26.35 99.78 25.70 98.86 25.11 C 98.01 24.43 97.11 23.80 96.31 23.06 C 99.10 19.56 101.85 15.73 106.32 14.34 Z" />
</g>
<g id="#56a7d6ff">
<path fill="#56a7d6" opacity="1.00" d=" M 116.12 15.20 C 117.14 15.68 118.96 15.62 119.14 17.01 C 117.32 18.89 115.87 21.02 115.61 23.70 C 115.19 23.80 114.35 24.01 113.93 24.12 C 108.90 22.20 105.76 25.94 103.81 29.85 C 102.01 29.09 100.27 27.68 98.20 28.09 C 95.38 31.28 93.91 35.39 92.04 39.16 C 91.34 40.38 90.64 41.61 89.93 42.82 C 86.00 47.63 81.56 51.94 76.85 55.97 C 73.99 58.63 69.93 61.89 65.87 59.17 C 70.40 58.26 74.91 56.70 77.81 52.81 C 85.81 46.10 90.02 36.41 94.04 27.05 C 94.11 23.88 97.08 25.32 98.86 25.11 C 99.78 25.70 100.70 26.35 101.73 26.74 C 106.34 22.68 110.61 18.05 116.12 15.20 Z" />
</g>
<g id="#4990befa">
<path fill="#4990be" opacity="0.98" d=" M 74.05 21.03 C 70.18 21.89 70.48 19.07 71.69 15.68 C 73.64 16.44 73.32 19.30 74.05 21.03 Z" />
</g>
<g id="#4485adfb">
<path fill="#4485ad" opacity="1.00" d=" M 119.14 17.01 C 120.88 17.80 122.66 19.55 121.85 21.65 C 118.33 22.75 119.72 27.18 118.94 29.93 C 118.54 29.68 117.74 29.18 117.34 28.93 C 116.48 27.14 115.20 25.62 113.93 24.12 C 114.35 24.01 115.19 23.80 115.61 23.70 C 115.87 21.02 117.32 18.89 119.14 17.01 Z" />
</g>
<g id="#73d9f5fb">
<path fill="#73d9f5" opacity="1.00" d=" M 80.19 21.17 C 85.08 19.60 90.39 20.42 95.09 22.28 C 90.68 23.80 87.62 27.61 85.87 31.81 C 85.02 31.59 84.18 31.34 83.35 31.07 C 83.02 30.58 82.35 29.59 82.01 29.09 C 80.55 27.02 79.35 24.78 77.97 22.65 C 78.69 22.13 79.43 21.64 80.19 21.17 Z" />
</g>
<g id="#4280a5fe">
<path fill="#4280a5" opacity="1.00" d=" M 57.68 23.13 C 58.58 21.53 60.06 20.77 61.89 21.05 C 63.37 22.74 64.89 24.46 65.46 26.69 C 65.18 27.05 64.62 27.76 64.34 28.12 C 63.69 24.58 61.36 22.25 57.68 23.13 Z" />
</g>
<g id="#5098bdf7">
<path fill="#5098bd" opacity="0.97" d=" M 76.26 21.15 C 77.57 21.01 78.88 21.01 80.19 21.17 C 79.43 21.64 78.69 22.13 77.97 22.65 C 75.56 24.63 77.41 29.01 77.06 31.86 C 78.43 32.05 79.81 32.20 81.20 32.32 C 73.92 36.48 74.82 28.36 74.95 24.03 C 75.43 23.09 75.87 22.13 76.26 21.15 Z" />
</g>
<g id="#62bceafe">
<path fill="#62bcea" opacity="1.00" d=" M 95.09 22.28 C 95.39 22.48 96.00 22.86 96.31 23.06 C 97.11 23.80 98.01 24.43 98.86 25.11 C 97.08 25.32 94.11 23.88 94.04 27.05 C 90.02 36.41 85.81 46.10 77.81 52.81 C 74.91 56.70 70.40 58.26 65.87 59.17 C 64.55 57.97 63.71 58.54 63.23 60.10 C 62.89 59.56 62.22 58.46 61.89 57.92 C 66.71 56.29 72.85 56.74 76.27 52.27 C 81.80 46.93 84.73 39.62 86.54 32.30 L 85.87 31.81 C 87.62 27.61 90.68 23.80 95.09 22.28 Z" />
</g>
<g id="#32678ffd">
<path fill="#32678f" opacity="1.00" d=" M 118.94 29.93 C 119.72 27.18 118.33 22.75 121.85 21.65 C 124.64 23.60 124.41 29.63 121.76 31.70 C 117.33 34.10 113.24 38.74 107.81 37.82 C 110.99 36.12 115.16 35.04 116.40 31.19 C 116.63 30.63 117.10 29.50 117.34 28.93 C 117.74 29.18 118.54 29.68 118.94 29.93 Z" />
</g>
<g id="#63c6f1fc">
<path fill="#63c6f1" opacity="1.00" d=" M 57.04 23.12 L 57.68 23.13 C 61.36 22.25 63.69 24.58 64.34 28.12 C 64.15 29.65 64.02 31.19 63.74 32.71 C 62.18 33.23 60.60 33.69 59.02 34.13 C 57.13 32.90 56.50 29.54 56.32 27.28 C 56.60 25.90 56.80 24.51 57.04 23.12 Z" />
</g>
<g id="#8df8fcfd">
<path fill="#8df8fc" opacity="1.00" d=" M 66.18 28.17 C 68.07 26.37 69.95 24.57 71.93 22.88 C 71.95 25.51 71.89 28.13 71.76 30.76 C 69.46 32.70 67.87 35.38 67.55 38.40 C 68.20 43.97 63.26 47.70 62.87 52.94 C 62.69 53.27 62.32 53.91 62.14 54.23 C 62.08 50.48 62.01 46.74 61.97 42.99 C 61.84 40.95 62.31 38.97 63.00 37.06 C 64.61 34.29 66.48 31.55 66.18 28.17 Z" />
</g>
<g id="#3f7da6ff">
<path fill="#3f7da6" opacity="1.00" d=" M 77.06 31.86 C 77.41 29.01 75.56 24.63 77.97 22.65 C 79.35 24.78 80.55 27.02 82.01 29.09 C 82.26 30.43 81.99 31.50 81.20 32.32 C 79.81 32.20 78.43 32.05 77.06 31.86 Z" />
</g>
<g id="#5eb4e3ff">
<path fill="#5eb4e3" opacity="1.00" d=" M 72.56 31.26 C 72.89 28.71 73.57 26.21 74.95 24.03 C 74.82 28.36 73.92 36.48 81.20 32.32 C 81.99 31.50 82.26 30.43 82.01 29.09 C 82.35 29.59 83.02 30.58 83.35 31.07 C 82.27 36.31 74.97 34.72 72.56 31.26 Z" />
</g>
<g id="#275375fb">
<path fill="#275375" opacity="1.00" d=" M 103.81 29.85 C 105.76 25.94 108.90 22.20 113.93 24.12 C 115.20 25.62 116.48 27.14 117.34 28.93 C 117.10 29.50 116.63 30.63 116.40 31.19 C 116.25 29.97 115.88 28.84 115.29 27.81 C 114.76 26.90 114.02 26.31 113.08 26.04 C 108.06 24.32 104.01 29.47 105.08 34.18 C 105.33 34.68 105.82 35.69 106.06 36.19 C 106.37 37.15 106.96 37.70 107.81 37.82 C 113.24 38.74 117.33 34.10 121.76 31.70 C 121.16 37.18 115.04 40.25 109.91 40.16 L 108.91 40.21 C 106.99 39.53 105.53 38.08 103.99 36.82 C 103.46 34.98 103.09 33.09 103.04 31.17 C 103.23 30.84 103.61 30.18 103.81 29.85 Z" />
</g>
<g id="#51a3ddff">
<path fill="#51a3dd" opacity="1.00" d=" M 105.08 34.18 C 104.01 29.47 108.06 24.32 113.08 26.04 C 110.75 29.01 108.86 32.92 105.08 34.18 Z" />
</g>
<g id="#478fc2ff">
<path fill="#478fc2" opacity="1.00" d=" M 113.08 26.04 C 114.02 26.31 114.76 26.90 115.29 27.81 C 113.68 31.94 109.86 34.26 106.06 36.19 C 105.82 35.69 105.33 34.68 105.08 34.18 C 108.86 32.92 110.75 29.01 113.08 26.04 Z" />
</g>
<g id="#4991befb">
<path fill="#4991be" opacity="1.00" d=" M 65.46 26.69 C 65.64 27.06 66.00 27.80 66.18 28.17 C 66.48 31.55 64.61 34.29 63.00 37.06 C 61.06 37.35 59.85 35.59 59.02 34.13 C 60.60 33.69 62.18 33.23 63.74 32.71 C 64.02 31.19 64.15 29.65 64.34 28.12 C 64.62 27.76 65.18 27.05 65.46 26.69 Z" />
</g>
<g id="#4b94bfff">
<path fill="#4b94bf" opacity="1.00" d=" M 98.20 28.09 C 100.27 27.68 102.01 29.09 103.81 29.85 C 103.61 30.18 103.23 30.84 103.04 31.17 C 102.55 30.91 101.59 30.40 101.10 30.15 C 98.29 33.25 97.10 39.20 92.04 39.16 C 93.91 35.39 95.38 31.28 98.20 28.09 Z" />
</g>
<g id="#3d7caaff">
<path fill="#3d7caa" opacity="1.00" d=" M 115.29 27.81 C 115.88 28.84 116.25 29.97 116.40 31.19 C 115.16 35.04 110.99 36.12 107.81 37.82 C 106.96 37.70 106.37 37.15 106.06 36.19 C 109.86 34.26 113.68 31.94 115.29 27.81 Z" />
</g>
<g id="#4481a8fe">
<path fill="#4481a8" opacity="1.00" d=" M 101.10 30.15 C 101.59 30.40 102.55 30.91 103.04 31.17 C 103.09 33.09 103.46 34.98 103.99 36.82 C 103.02 37.54 102.06 38.27 101.09 38.97 C 98.76 39.58 96.05 40.40 95.05 42.84 C 94.02 44.77 95.11 46.95 95.00 49.01 C 92.70 49.69 92.99 47.37 92.65 45.84 C 91.92 47.58 91.30 49.36 90.64 51.13 C 90.37 51.30 89.82 51.65 89.54 51.82 C 85.41 53.71 81.63 56.28 77.93 58.89 C 74.18 60.34 70.21 61.48 67.02 64.04 C 65.56 63.19 63.49 61.81 63.23 60.10 C 63.71 58.54 64.55 57.97 65.87 59.17 C 69.93 61.89 73.99 58.63 76.85 55.97 C 82.65 54.06 90.20 49.67 89.93 42.82 C 90.64 41.61 91.34 40.38 92.04 39.16 C 97.10 39.20 98.29 33.25 101.10 30.15 Z" />
</g>
<g id="#7decffff">
<path fill="#7decff" opacity="1.00" d=" M 67.55 38.40 C 67.87 35.38 69.46 32.70 71.76 30.76 C 72.79 34.18 76.53 35.89 77.81 39.00 C 76.79 43.14 76.51 48.08 73.31 51.29 C 70.96 54.56 66.29 52.49 62.87 52.94 C 63.26 47.70 68.20 43.97 67.55 38.40 Z" />
</g>
<g id="#6ed2fcff">
<path fill="#6ed2fc" opacity="1.00" d=" M 71.76 30.76 L 72.56 31.26 C 74.97 34.72 82.27 36.31 83.35 31.07 C 84.18 31.34 85.02 31.59 85.87 31.81 L 86.54 32.30 C 84.73 39.62 81.80 46.93 76.27 52.27 C 72.85 56.74 66.71 56.29 61.89 57.92 L 61.94 56.98 C 61.99 56.29 62.09 54.92 62.14 54.23 C 62.32 53.91 62.69 53.27 62.87 52.94 C 66.29 52.49 70.96 54.56 73.31 51.29 C 76.51 48.08 76.79 43.14 77.81 39.00 C 76.53 35.89 72.79 34.18 71.76 30.76 Z" />
</g>
<g id="#286084fd">
<path fill="#286084" opacity="1.00" d=" M 101.09 38.97 C 102.06 38.27 103.02 37.54 103.99 36.82 C 105.53 38.08 106.99 39.53 108.91 40.21 C 108.96 42.81 108.99 45.41 109.02 48.01 C 108.53 52.20 106.97 56.38 104.85 60.03 C 104.47 59.79 103.69 59.33 103.30 59.09 C 103.62 57.65 104.66 55.59 102.22 55.87 C 101.41 53.42 103.73 48.31 100.27 47.89 C 100.14 46.10 99.87 42.51 99.74 40.72 C 100.08 40.28 100.75 39.41 101.09 38.97 Z" />
</g>
<g id="#365061ff">
<path fill="#365061" opacity="1.00" d=" M 95.05 42.84 C 96.05 40.40 98.76 39.58 101.09 38.97 C 100.75 39.41 100.08 40.28 99.74 40.72 C 97.65 41.39 96.54 42.90 96.85 45.14 C 96.25 44.37 95.66 43.60 95.05 42.84 Z" />
</g>
<g id="#06101764">
<path fill="#061017" opacity="0.39" d=" M 108.91 40.21 L 109.91 40.16 C 109.56 42.52 111.21 47.14 109.02 48.01 C 108.99 45.41 108.96 42.81 108.91 40.21 Z" />
</g>
<g id="#d6d6d6ff">
<path fill="#d6d6d6" opacity="1.00" d=" M 96.85 45.14 C 96.54 42.90 97.65 41.39 99.74 40.72 C 99.87 42.51 100.14 46.10 100.27 47.89 C 99.88 49.23 98.95 50.22 97.91 51.10 C 97.66 50.80 97.15 50.19 96.90 49.89 C 96.91 48.31 96.90 46.72 96.85 45.14 Z" />
</g>
<g id="#26474a8b">
<path fill="#26474a" opacity="0.55" d=" M 61.04 43.03 L 61.97 42.99 C 62.01 46.74 62.08 50.48 62.14 54.23 C 62.09 54.92 61.99 56.29 61.94 56.98 L 61.00 57.01 C 60.99 52.35 60.86 47.69 61.04 43.03 Z" />
</g>
<g id="#4d95c0ff">
<path fill="#4d95c0" opacity="1.00" d=" M 76.85 55.97 C 81.56 51.94 86.00 47.63 89.93 42.82 C 90.20 49.67 82.65 54.06 76.85 55.97 Z" />
</g>
<g id="#282d2fff">
<path fill="#282d2f" opacity="1.00" d=" M 95.05 42.84 C 95.66 43.60 96.25 44.37 96.85 45.14 C 96.90 46.72 96.91 48.31 96.90 49.89 C 94.84 50.32 92.70 52.56 90.64 51.13 C 91.30 49.36 91.92 47.58 92.65 45.84 C 92.99 47.37 92.70 49.69 95.00 49.01 C 95.11 46.95 94.02 44.77 95.05 42.84 Z" />
</g>
<g id="#22476aff">
<path fill="#22476a" opacity="1.00" d=" M 100.27 47.89 C 103.73 48.31 101.41 53.42 102.22 55.87 C 101.53 56.94 101.04 58.16 100.11 59.06 C 91.74 61.59 83.76 66.36 74.73 65.94 C 80.94 60.35 90.32 60.22 96.20 54.18 C 95.35 54.07 93.63 53.83 92.78 53.72 C 94.45 52.78 96.40 52.28 97.91 51.10 C 98.95 50.22 99.88 49.23 100.27 47.89 Z" />
</g>
<g id="#464c52ff">
<path fill="#464c52" opacity="1.00" d=" M 90.64 51.13 C 92.70 52.56 94.84 50.32 96.90 49.89 C 97.15 50.19 97.66 50.80 97.91 51.10 C 96.40 52.28 94.45 52.78 92.78 53.72 C 92.36 53.91 91.53 54.29 91.12 54.48 C 90.72 53.81 89.94 52.49 89.54 51.82 C 89.82 51.65 90.37 51.30 90.64 51.13 Z" />
</g>
<g id="#32678fff">
<path fill="#32678f" opacity="1.00" d=" M 77.93 58.89 C 81.63 56.28 85.41 53.71 89.54 51.82 C 89.94 52.49 90.72 53.81 91.12 54.48 C 87.19 57.00 82.78 59.57 77.93 58.89 Z" />
</g>
<g id="#255077ff">
<path fill="#255077" opacity="1.00" d=" M 91.12 54.48 C 91.53 54.29 92.36 53.91 92.78 53.72 C 93.63 53.83 95.35 54.07 96.20 54.18 C 90.32 60.22 80.94 60.35 74.73 65.94 C 74.22 66.01 73.22 66.13 72.72 66.20 C 72.25 66.09 71.31 65.87 70.84 65.76 C 72.92 63.06 76.99 62.46 77.93 58.89 C 82.78 59.57 87.19 57.00 91.12 54.48 Z" />
</g>
<g id="#456c71fc">
<path fill="#456c71" opacity="1.00" d=" M 102.22 55.87 C 104.66 55.59 103.62 57.65 103.30 59.09 C 100.71 62.26 96.40 63.94 94.70 67.81 C 92.05 68.22 89.40 68.62 86.78 69.16 C 83.10 69.03 79.43 68.99 75.76 69.15 C 75.32 69.13 74.43 69.08 73.99 69.05 L 73.14 68.96 C 71.21 68.03 69.18 66.84 67.88 65.07 C 68.87 65.30 69.85 65.53 70.84 65.76 C 71.31 65.87 72.25 66.09 72.72 66.20 C 82.28 68.36 92.43 64.52 100.11 59.06 C 101.04 58.16 101.53 56.94 102.22 55.87 Z" />
</g>
<g id="#2f618afc">
<path fill="#2f618a" opacity="1.00" d=" M 67.02 64.04 C 70.21 61.48 74.18 60.34 77.93 58.89 C 76.99 62.46 72.92 63.06 70.84 65.76 C 69.85 65.53 68.87 65.30 67.88 65.07 C 67.67 64.82 67.24 64.30 67.02 64.04 Z" />
</g>
<g id="#375869ff">
<path fill="#375869" opacity="1.00" d=" M 74.73 65.94 C 83.76 66.36 91.74 61.59 100.11 59.06 C 92.43 64.52 82.28 68.36 72.72 66.20 C 73.22 66.13 74.22 66.01 74.73 65.94 Z" />
</g>
<g id="#215575f7">
<path fill="#215575" opacity="0.97" d=" M 103.30 59.09 C 103.69 59.33 104.47 59.79 104.85 60.03 C 103.11 65.84 98.30 70.47 99.81 77.08 C 99.20 76.16 99.11 74.55 97.75 74.47 C 95.59 74.03 95.99 71.33 95.20 69.76 C 95.08 69.27 94.83 68.30 94.70 67.81 C 96.40 63.94 100.71 62.26 103.30 59.09 Z" />
</g>
<g id="#6a7479ff">
<path fill="#6a7479" opacity="1.00" d=" M 86.78 69.16 C 89.40 68.62 92.05 68.22 94.70 67.81 C 94.83 68.30 95.08 69.27 95.20 69.76 C 95.16 70.34 95.08 71.51 95.04 72.09 C 92.28 71.12 89.54 70.09 86.78 69.16 Z" />
</g>
<g id="#fbfefbfe">
<path fill="#fbfefb" opacity="1.00" d=" M 73.14 68.96 L 73.99 69.05 L 74.04 69.93 C 74.08 71.36 74.16 74.22 74.20 75.65 C 80.30 75.25 85.82 80.44 85.39 86.61 C 85.51 95.15 89.02 103.33 87.87 111.91 C 86.75 116.25 84.79 120.41 81.89 123.86 C 77.11 126.87 71.19 126.55 65.88 127.95 C 66.05 126.68 66.22 125.42 66.38 124.15 C 66.91 118.77 67.96 113.41 68.01 107.99 C 69.36 94.97 71.29 81.94 73.14 68.96 Z" />
</g>
<g id="#e3e4d8ff">
<path fill="#e3e4d8" opacity="1.00" d=" M 73.99 69.05 C 74.43 69.08 75.32 69.13 75.76 69.15 C 76.26 69.42 77.27 69.97 77.77 70.24 C 79.58 71.52 81.72 72.00 83.91 72.08 C 86.58 76.56 89.59 80.99 90.77 86.13 C 91.06 87.69 91.67 89.13 92.82 90.25 C 93.06 91.74 93.54 94.72 93.78 96.21 C 93.92 97.92 94.19 101.32 94.33 103.02 C 94.15 103.52 93.81 104.50 93.63 105.00 C 91.77 99.30 91.77 92.84 88.79 87.58 C 87.14 79.54 81.28 73.48 74.04 69.93 L 73.99 69.05 Z" />
</g>
<g id="#869294ff">
<path fill="#869294" opacity="1.00" d=" M 75.76 69.15 C 79.43 68.99 83.10 69.03 86.78 69.16 C 89.54 70.09 92.28 71.12 95.04 72.09 C 94.99 75.39 95.01 78.70 94.89 81.99 L 93.91 82.30 C 94.32 78.43 93.19 72.88 88.98 71.81 C 85.38 70.56 81.56 70.25 77.77 70.24 C 77.27 69.97 76.26 69.42 75.76 69.15 Z" />
</g>
<g id="#fcfbe8ff">
<path fill="#fcfbe8" opacity="1.00" d=" M 74.04 69.93 C 81.28 73.48 87.14 79.54 88.79 87.58 C 89.35 95.71 91.05 103.79 91.84 111.90 C 91.34 120.89 84.33 127.62 77.34 132.36 C 72.30 135.46 68.00 139.51 63.81 143.65 C 63.51 143.46 62.91 143.09 62.61 142.91 C 63.88 137.96 64.54 132.88 65.88 127.95 C 71.19 126.55 77.11 126.87 81.89 123.86 C 84.79 120.41 86.75 116.25 87.87 111.91 C 89.02 103.33 85.51 95.15 85.39 86.61 C 85.82 80.44 80.30 75.25 74.20 75.65 C 74.16 74.22 74.08 71.36 74.04 69.93 Z" />
</g>
<g id="#bac0baff">
<path fill="#bac0ba" opacity="1.00" d=" M 77.77 70.24 C 81.56 70.25 85.38 70.56 88.98 71.81 C 90.25 75.46 91.75 79.07 93.91 82.30 C 93.97 85.78 93.96 89.28 94.18 92.77 C 94.08 93.63 93.88 95.35 93.78 96.21 C 93.54 94.72 93.06 91.74 92.82 90.25 C 91.73 84.10 90.73 76.67 85.72 72.32 C 85.27 72.26 84.36 72.14 83.91 72.08 C 81.72 72.00 79.58 71.52 77.77 70.24 Z" />
</g>
<g id="#356a91fe">
<path fill="#356a91" opacity="1.00" d=" M 95.20 69.76 C 95.99 71.33 95.59 74.03 97.75 74.47 C 99.11 74.55 99.20 76.16 99.81 77.08 L 99.79 77.86 C 99.55 79.40 99.09 82.48 98.85 84.02 C 97.47 84.03 96.17 83.57 94.92 83.04 L 94.89 81.99 C 95.01 78.70 94.99 75.39 95.04 72.09 C 95.08 71.51 95.16 70.34 95.20 69.76 Z" />
</g>
<g id="#d0d2c9ff">
<path fill="#d0d2c9" opacity="1.00" d=" M 83.91 72.08 C 84.36 72.14 85.27 72.26 85.72 72.32 C 90.73 76.67 91.73 84.10 92.82 90.25 C 91.67 89.13 91.06 87.69 90.77 86.13 C 89.59 80.99 86.58 76.56 83.91 72.08 Z" />
</g>
<g id="#a8aba7ff">
<path fill="#a8aba7" opacity="1.00" d=" M 88.98 71.81 C 93.19 72.88 94.32 78.43 93.91 82.30 C 91.75 79.07 90.25 75.46 88.98 71.81 Z" />
</g>
<g id="#b8a0a7fa">
<path fill="#b8a0a7" opacity="0.98" d=" M 99.81 77.08 C 102.01 77.12 105.23 76.08 106.04 78.91 C 100.75 77.79 104.36 83.56 104.43 86.42 C 102.97 89.87 105.63 91.02 107.59 92.25 C 107.62 93.18 107.71 94.10 107.85 95.02 C 100.78 93.22 103.65 84.39 100.15 79.71 C 100.06 79.25 99.88 78.32 99.79 77.86 L 99.81 77.08 Z" />
</g>
<g id="#4986acff">
<path fill="#4986ac" opacity="1.00" d=" M 98.85 84.02 C 99.09 82.48 99.55 79.40 99.79 77.86 C 99.88 78.32 100.06 79.25 100.15 79.71 C 100.12 83.11 99.87 86.55 100.37 89.93 C 99.05 92.21 97.40 89.92 96.20 88.81 C 94.42 87.46 95.19 84.97 94.92 83.04 C 96.17 83.57 97.47 84.03 98.85 84.02 Z" />
</g>
<g id="#7b6d78f7">
<path fill="#7b6d78" opacity="0.97" d=" M 104.43 86.42 C 104.36 83.56 100.75 77.79 106.04 78.91 L 106.94 78.93 C 105.72 83.20 108.90 87.08 107.78 91.26 L 107.59 92.25 C 105.63 91.02 102.97 89.87 104.43 86.42 Z" />
</g>
<g id="#ceb1b7fe">
<path fill="#ceb1b7" opacity="1.00" d=" M 100.15 79.71 C 103.65 84.39 100.78 93.22 107.85 95.02 C 112.02 96.15 116.70 96.07 120.42 98.52 C 123.00 100.17 124.44 96.24 124.79 94.28 L 124.90 93.45 C 127.16 91.60 131.00 91.55 132.40 94.35 C 130.92 95.90 128.37 95.53 126.96 96.94 C 125.22 98.37 124.99 102.55 122.20 101.80 C 116.34 98.21 109.20 99.35 102.69 98.26 C 101.80 95.52 101.18 92.70 100.37 89.93 C 99.87 86.55 100.12 83.11 100.15 79.71 Z" />
</g>
<g id="#e8cccffc">
<path fill="#e8cccf" opacity="1.00" d=" M 112.20 91.17 C 115.17 87.61 113.45 78.16 120.15 80.01 C 119.84 83.70 119.15 87.34 118.29 90.93 C 118.75 91.16 119.67 91.62 120.13 91.84 L 120.99 92.22 C 122.27 92.89 123.51 93.61 124.79 94.28 C 124.44 96.24 123.00 100.17 120.42 98.52 C 116.70 96.07 112.02 96.15 107.85 95.02 C 107.71 94.10 107.62 93.18 107.59 92.25 L 107.78 91.26 C 109.13 91.27 111.59 92.99 112.20 91.17 Z" />
</g>
<g id="#ccafb7ff">
<path fill="#ccafb7" opacity="1.00" d=" M 120.15 80.01 L 121.17 79.84 C 121.30 80.35 121.54 81.37 121.66 81.88 C 121.32 85.23 120.90 88.57 120.13 91.84 C 119.67 91.62 118.75 91.16 118.29 90.93 C 119.15 87.34 119.84 83.70 120.15 80.01 Z" />
</g>
<g id="#8f7f88f9">
<path fill="#8f7f88" opacity="0.98" d=" M 121.17 79.84 C 122.25 79.95 123.16 80.39 123.92 81.17 C 124.47 85.18 123.24 89.61 124.90 93.45 L 124.79 94.28 C 123.51 93.61 122.27 92.89 120.99 92.22 C 121.92 88.87 122.35 85.31 121.66 81.88 C 121.54 81.37 121.30 80.35 121.17 79.84 Z" />
</g>
<g id="#4f4b52cf">
<path fill="#4f4b52" opacity="0.81" d=" M 123.92 81.17 L 124.92 80.95 C 125.06 85.12 125.05 89.28 124.90 93.45 C 123.24 89.61 124.47 85.18 123.92 81.17 Z" />
</g>
<g id="#5099c2ff">
<path fill="#5099c2" opacity="1.00" d=" M 93.91 82.30 L 94.89 81.99 L 94.92 83.04 C 95.19 84.97 94.42 87.46 96.20 88.81 C 97.40 89.92 99.05 92.21 100.37 89.93 C 101.18 92.70 101.80 95.52 102.69 98.26 C 103.06 99.47 103.46 100.67 103.94 101.83 C 104.90 104.37 105.88 106.90 107.18 109.28 C 105.51 109.21 103.83 109.04 102.16 109.09 C 101.73 116.39 100.89 123.67 99.95 130.92 L 99.10 131.02 C 98.67 128.70 98.12 126.41 97.89 124.06 C 99.76 113.53 98.79 102.54 94.18 92.77 C 93.96 89.28 93.97 85.78 93.91 82.30 Z" />
</g>
<g id="#ad979fff">
<path fill="#ad979f" opacity="1.00" d=" M 120.13 91.84 C 120.90 88.57 121.32 85.23 121.66 81.88 C 122.35 85.31 121.92 88.87 120.99 92.22 L 120.13 91.84 Z" />
</g>
<g id="#f3efd7ff">
<path fill="#f3efd7" opacity="1.00" d=" M 91.84 111.90 C 91.05 103.79 89.35 95.71 88.79 87.58 C 91.77 92.84 91.77 99.30 93.63 105.00 C 93.77 106.65 93.92 108.31 94.24 109.95 C 95.59 119.87 87.47 126.23 82.72 133.71 C 75.11 138.84 67.27 145.12 63.86 153.95 C 62.66 156.82 60.65 160.71 56.90 159.92 C 57.04 159.42 57.32 158.42 57.46 157.92 C 59.57 153.22 61.06 148.29 62.05 143.23 L 62.61 142.91 C 62.91 143.09 63.51 143.46 63.81 143.65 C 68.00 139.51 72.30 135.46 77.34 132.36 C 84.33 127.62 91.34 120.89 91.84 111.90 Z" />
</g>
<g id="#5aa6d3ff">
<path fill="#5aa6d3" opacity="1.00" d=" M 94.18 92.77 C 98.79 102.54 99.76 113.53 97.89 124.06 L 97.08 123.89 C 96.91 122.50 96.70 121.11 96.39 119.74 C 95.83 116.49 94.99 113.28 94.89 109.96 C 95.72 107.40 95.54 105.09 94.33 103.02 C 94.19 101.32 93.92 97.92 93.78 96.21 C 93.88 95.35 94.08 93.63 94.18 92.77 Z" />
</g>
<g id="#a88f97fe">
<path fill="#a88f97" opacity="1.00" d=" M 132.40 94.35 L 133.08 93.95 C 133.04 94.41 132.95 95.34 132.91 95.80 C 130.26 96.96 128.59 99.20 127.76 101.91 C 125.68 105.09 127.38 107.33 130.19 108.28 L 130.68 109.17 C 129.96 112.53 127.34 114.69 124.17 115.70 C 118.37 112.41 113.84 107.36 109.11 102.74 C 113.77 102.66 117.48 105.97 121.82 106.94 C 124.52 104.44 127.00 100.95 126.96 96.94 C 128.37 95.53 130.92 95.90 132.40 94.35 Z" />
</g>
<g id="#655d68ff">
<path fill="#655d68" opacity="1.00" d=" M 127.76 101.91 C 128.59 99.20 130.26 96.96 132.91 95.80 C 132.91 96.57 132.91 98.10 132.91 98.87 L 132.80 99.79 C 132.38 102.97 131.90 106.18 130.68 109.17 L 130.19 108.28 C 129.04 106.28 127.74 104.31 127.76 101.91 Z" />
</g>
<g id="#b89da4ff">
<path fill="#b89da4" opacity="1.00" d=" M 122.20 101.80 C 124.99 102.55 125.22 98.37 126.96 96.94 C 127.00 100.95 124.52 104.44 121.82 106.94 C 117.48 105.97 113.77 102.66 109.11 102.74 C 107.47 102.03 105.74 101.09 103.94 101.83 C 103.46 100.67 103.06 99.47 102.69 98.26 C 109.20 99.35 116.34 98.21 122.20 101.80 Z" />
</g>
<g id="#c6b0b3fa">
<path fill="#c6b0b3" opacity="0.98" d=" M 132.91 98.87 C 136.04 100.23 139.40 102.44 141.29 105.34 C 138.29 106.12 135.61 105.35 133.09 103.88 C 132.94 102.52 132.85 101.15 132.80 99.79 L 132.91 98.87 Z" />
</g>
<g id="#a18a92ff">
<path fill="#a18a92" opacity="1.00" d=" M 130.68 109.17 C 131.90 106.18 132.38 102.97 132.80 99.79 C 132.85 101.15 132.94 102.52 133.09 103.88 C 133.08 108.66 136.73 112.38 141.42 112.84 C 140.90 117.09 137.31 115.57 134.37 115.51 C 130.92 118.91 123.51 116.82 125.10 124.35 C 123.12 122.49 121.16 120.62 119.11 118.86 C 117.12 117.31 115.23 115.64 113.17 114.19 C 111.04 112.73 108.85 111.29 107.18 109.28 C 105.88 106.90 104.90 104.37 103.94 101.83 C 105.74 101.09 107.47 102.03 109.11 102.74 C 113.84 107.36 118.37 112.41 124.17 115.70 C 127.34 114.69 129.96 112.53 130.68 109.17 Z" />
</g>
<g id="#8b7781ff">
<path fill="#8b7781" opacity="1.00" d=" M 130.19 108.28 C 127.38 107.33 125.68 105.09 127.76 101.91 C 127.74 104.31 129.04 106.28 130.19 108.28 Z" />
</g>
<g id="#a0c7d8ff">
<path fill="#a0c7d8" opacity="1.00" d=" M 94.33 103.02 C 95.54 105.09 95.72 107.40 94.89 109.96 L 94.24 109.95 C 93.92 108.31 93.77 106.65 93.63 105.00 C 93.81 104.50 94.15 103.52 94.33 103.02 Z" />
</g>
<g id="#b39ea4fd">
<path fill="#b39ea4" opacity="1.00" d=" M 133.09 103.88 C 135.61 105.35 138.29 106.12 141.29 105.34 C 143.71 106.29 144.99 109.75 148.21 109.36 C 146.60 110.45 143.62 110.04 143.00 112.18 L 142.76 113.02 C 142.42 112.98 141.76 112.89 141.42 112.84 C 136.73 112.38 133.08 108.66 133.09 103.88 Z" />
</g>
<g id="#dcc3c8fd">
<path fill="#dcc3c8" opacity="1.00" d=" M 148.21 109.36 C 150.90 108.60 155.28 104.97 157.01 108.76 C 154.11 109.22 152.45 110.93 152.73 113.96 C 149.44 113.73 146.18 113.06 143.00 112.18 C 143.62 110.04 146.60 110.45 148.21 109.36 Z" />
</g>
<g id="#89f3f7fb">
<path fill="#89f3f7" opacity="1.00" d=" M 65.06 117.17 C 67.08 114.67 65.51 109.12 68.01 107.99 C 67.96 113.41 66.91 118.77 66.38 124.15 C 66.11 123.87 65.57 123.31 65.30 123.03 C 63.46 130.04 59.79 136.39 57.06 143.06 C 56.27 144.47 53.43 147.81 53.97 144.10 C 53.93 137.45 58.43 131.88 61.02 125.98 L 61.41 125.17 C 62.64 122.51 63.91 119.86 65.06 117.17 Z" />
</g>
<g id="#498fb9ff">
<path fill="#498fb9" opacity="1.00" d=" M 102.16 109.09 C 103.83 109.04 105.51 109.21 107.18 109.28 C 108.85 111.29 111.04 112.73 113.17 114.19 C 111.44 117.35 107.87 114.64 105.17 115.05 C 102.99 121.79 106.88 130.39 101.93 136.45 C 101.31 135.26 100.79 134.03 100.25 132.81 C 100.17 132.34 100.03 131.39 99.95 130.92 C 100.89 123.67 101.73 116.39 102.16 109.09 Z" />
</g>
<g id="#bca1a8ff">
<path fill="#bca1a8" opacity="1.00" d=" M 152.73 113.96 C 152.45 110.93 154.11 109.22 157.01 108.76 C 157.32 109.12 157.95 109.83 158.27 110.18 C 157.02 110.92 155.73 111.60 154.59 112.49 C 153.33 116.05 149.04 116.42 146.02 117.80 C 145.51 117.57 144.50 117.13 144.00 116.90 C 143.61 115.60 143.18 114.31 142.76 113.02 L 143.00 112.18 C 146.18 113.06 149.44 113.73 152.73 113.96 Z" />
</g>
<g id="#e6e0cbff">
<path fill="#e6e0cb" opacity="1.00" d=" M 94.24 109.95 L 94.89 109.96 C 94.99 113.28 95.83 116.49 96.39 119.74 C 90.97 126.87 87.47 135.64 80.01 141.02 C 72.67 146.28 67.54 153.68 63.80 161.78 C 61.22 163.05 55.60 164.89 55.64 160.84 L 55.89 159.98 L 56.90 159.92 C 60.65 160.71 62.66 156.82 63.86 153.95 C 67.27 145.12 75.11 138.84 82.72 133.71 C 87.47 126.23 95.59 119.87 94.24 109.95 Z" />
</g>
<g id="#8c7b85ff">
<path fill="#8c7b85" opacity="1.00" d=" M 158.27 110.18 L 159.03 109.86 C 159.01 110.36 158.97 111.36 158.95 111.87 C 155.85 111.40 157.69 114.18 158.08 115.81 C 156.52 115.06 155.24 116.02 154.02 116.92 C 151.72 117.95 149.54 119.29 147.10 120.00 C 142.88 120.01 140.65 124.75 136.03 124.08 C 126.95 121.75 136.90 132.80 130.06 131.04 C 129.34 130.08 128.63 129.12 127.90 128.18 C 128.66 128.12 130.17 128.01 130.93 127.95 C 130.05 125.97 128.95 124.10 128.14 122.10 C 129.99 119.87 133.22 123.38 135.18 121.15 C 137.72 118.99 141.06 118.33 144.00 116.90 C 144.50 117.13 145.51 117.57 146.02 117.80 C 149.04 116.42 153.33 116.05 154.59 112.49 C 155.73 111.60 157.02 110.92 158.27 110.18 Z" />
</g>
<g id="#494956de">
<path fill="#494956" opacity="0.87" d=" M 158.08 115.81 C 157.69 114.18 155.85 111.40 158.95 111.87 C 161.11 111.27 159.33 116.10 158.08 115.81 Z" />
</g>
<g id="#96828bff">
<path fill="#96828b" opacity="1.00" d=" M 141.42 112.84 C 141.76 112.89 142.42 112.98 142.76 113.02 C 143.18 114.31 143.61 115.60 144.00 116.90 C 141.06 118.33 137.72 118.99 135.18 121.15 C 133.22 123.38 129.99 119.87 128.14 122.10 C 128.95 124.10 130.05 125.97 130.93 127.95 C 130.17 128.01 128.66 128.12 127.90 128.18 C 126.98 127.45 126.07 126.71 125.13 126.01 C 125.12 125.59 125.11 124.76 125.10 124.35 C 123.51 116.82 130.92 118.91 134.37 115.51 C 137.31 115.57 140.90 117.09 141.42 112.84 Z" />
</g>
<g id="#4586afff">
<path fill="#4586af" opacity="1.00" d=" M 113.17 114.19 C 115.23 115.64 117.12 117.31 119.11 118.86 C 116.60 124.94 104.15 114.32 108.31 124.88 C 109.77 131.29 108.88 137.59 106.05 143.40 C 105.08 141.92 104.15 140.42 103.22 138.93 C 102.76 138.12 102.33 137.29 101.93 136.45 C 106.88 130.39 102.99 121.79 105.17 115.05 C 107.87 114.64 111.44 117.35 113.17 114.19 Z" />
</g>
<g id="#c1a6adf9">
<path fill="#c1a6ad" opacity="0.98" d=" M 56.21 115.08 C 59.25 115.15 62.16 116.32 65.06 117.17 C 63.91 119.86 62.64 122.51 61.41 125.17 C 60.66 121.98 57.07 121.00 54.74 119.19 C 55.06 117.76 55.66 116.42 56.21 115.08 Z" />
</g>
<g id="#54505fff">
<path fill="#54505f" opacity="1.00" d=" M 154.02 116.92 C 155.24 116.02 156.52 115.06 158.08 115.81 C 157.07 118.29 154.29 119.60 152.79 121.78 C 151.88 122.95 152.13 124.60 151.71 125.97 C 149.65 126.42 148.24 124.02 149.28 122.31 C 150.85 120.50 152.43 118.71 154.02 116.92 Z" />
</g>
<g id="#68616dfd">
<path fill="#68616d" opacity="1.00" d=" M 147.10 120.00 C 149.54 119.29 151.72 117.95 154.02 116.92 C 152.43 118.71 150.85 120.50 149.28 122.31 C 148.24 124.02 149.65 126.42 151.71 125.97 C 152.13 124.60 151.88 122.95 152.79 121.78 C 153.71 123.62 154.88 125.64 154.81 127.73 C 154.00 129.14 153.26 130.58 152.49 132.00 C 148.67 130.83 144.06 133.15 140.52 135.05 C 139.31 134.11 138.74 132.68 138.99 131.16 C 141.08 129.88 143.63 129.77 145.84 128.76 C 146.17 126.21 147.22 123.51 146.16 121.00 C 146.39 120.75 146.87 120.25 147.10 120.00 Z" />
</g>
<g id="#816f75e9">
<path fill="#816f75" opacity="0.91" d=" M 53.95 118.89 L 54.74 119.19 C 57.07 121.00 60.66 121.98 61.41 125.17 L 61.02 125.98 C 58.25 124.17 53.13 123.08 53.95 118.89 Z" />
</g>
<g id="#407ea7ff">
<path fill="#407ea7" opacity="1.00" d=" M 108.31 124.88 C 104.15 114.32 116.60 124.94 119.11 118.86 C 121.16 120.62 123.12 122.49 125.10 124.35 C 125.11 124.76 125.12 125.59 125.13 126.01 C 121.33 127.80 117.81 125.43 114.14 125.04 C 111.77 129.67 117.14 135.32 113.55 139.60 C 111.72 141.99 110.39 144.69 108.84 147.26 C 107.94 146.23 107.09 145.16 106.29 144.06 L 106.05 143.40 C 108.88 137.59 109.77 131.29 108.31 124.88 Z" />
</g>
<g id="#d6d3bfff">
<path fill="#d6d3bf" opacity="1.00" d=" M 96.39 119.74 C 96.70 121.11 96.91 122.50 97.08 123.89 C 93.58 131.38 89.51 138.68 83.78 144.72 C 79.04 147.48 74.77 151.04 71.38 155.35 C 69.79 158.69 68.72 162.36 66.19 165.17 C 62.88 167.81 57.57 167.31 54.70 164.14 C 54.99 163.03 55.30 161.93 55.64 160.84 C 55.60 164.89 61.22 163.05 63.80 161.78 C 67.54 153.68 72.67 146.28 80.01 141.02 C 87.47 135.64 90.97 126.87 96.39 119.74 Z" />
</g>
<g id="#81727dff">
<path fill="#81727d" opacity="1.00" d=" M 136.03 124.08 C 140.65 124.75 142.88 120.01 147.10 120.00 C 146.87 120.25 146.39 120.75 146.16 121.00 C 144.81 122.38 143.99 124.18 142.70 125.61 C 140.01 126.28 136.93 126.75 135.25 129.23 C 134.40 130.85 134.24 133.26 131.92 133.37 C 131.27 132.62 130.65 131.84 130.06 131.04 C 136.90 132.80 126.95 121.75 136.03 124.08 Z" />
</g>
<g id="#786a75ff">
<path fill="#786a75" opacity="1.00" d=" M 142.70 125.61 C 143.99 124.18 144.81 122.38 146.16 121.00 C 147.22 123.51 146.17 126.21 145.84 128.76 C 143.63 129.77 141.08 129.88 138.99 131.16 C 138.74 132.68 139.31 134.11 140.52 135.05 C 142.15 136.75 143.81 138.59 146.10 139.39 C 145.77 139.82 145.11 140.68 144.78 141.11 C 144.37 140.80 143.55 140.16 143.14 139.84 C 140.98 136.86 138.14 134.74 134.03 135.98 C 133.84 135.75 133.45 135.27 133.25 135.04 C 132.92 134.62 132.25 133.79 131.92 133.37 C 134.24 133.26 134.40 130.85 135.25 129.23 C 136.93 126.75 140.01 126.28 142.70 125.61 Z" />
</g>
<g id="#77e0fbfe">
<path fill="#77e0fb" opacity="1.00" d=" M 65.30 123.03 C 65.57 123.31 66.11 123.87 66.38 124.15 C 66.22 125.42 66.05 126.68 65.88 127.95 C 64.54 132.88 63.88 137.96 62.61 142.91 L 62.05 143.23 C 58.69 144.54 60.03 149.25 57.30 151.29 C 56.11 153.41 53.71 153.05 51.71 152.55 C 52.50 150.02 52.02 145.25 53.97 144.10 C 53.43 147.81 56.27 144.47 57.06 143.06 C 59.79 136.39 63.46 130.04 65.30 123.03 Z" />
</g>
<g id="#c7c5b5ff">
<path fill="#c7c5b5" opacity="1.00" d=" M 97.08 123.89 L 97.89 124.06 C 98.12 126.41 98.67 128.70 99.10 131.02 C 93.61 137.52 90.11 146.15 82.26 150.27 C 78.60 153.27 73.84 155.94 72.97 160.98 C 72.43 166.67 67.55 169.45 63.32 172.27 C 61.67 171.44 60.39 170.05 58.92 168.95 C 57.13 166.95 52.21 168.57 51.82 165.13 C 52.79 164.82 53.75 164.49 54.70 164.14 C 57.57 167.31 62.88 167.81 66.19 165.17 C 68.72 162.36 69.79 158.69 71.38 155.35 C 74.77 151.04 79.04 147.48 83.78 144.72 C 89.51 138.68 93.58 131.38 97.08 123.89 Z" />
</g>
<g id="#3b769eff">
<path fill="#3b769e" opacity="1.00" d=" M 114.14 125.04 C 117.81 125.43 121.33 127.80 125.13 126.01 C 126.07 126.71 126.98 127.45 127.90 128.18 C 128.63 129.12 129.34 130.08 130.06 131.04 C 130.65 131.84 131.27 132.62 131.92 133.37 C 132.25 133.79 132.92 134.62 133.25 135.04 C 132.69 135.35 131.58 135.98 131.02 136.29 C 129.26 134.00 127.35 131.81 125.20 129.88 C 125.15 130.54 125.05 131.85 125.01 132.51 C 120.90 133.67 121.97 138.47 120.59 141.62 C 117.52 144.65 114.47 147.74 111.80 151.14 C 111.01 150.05 110.23 148.97 109.37 147.94 L 108.84 147.26 C 110.39 144.69 111.72 141.99 113.55 139.60 C 117.14 135.32 111.77 129.67 114.14 125.04 Z" />
</g>
<g id="#a58f96fe">
<path fill="#a58f96" opacity="1.00" d=" M 152.49 132.00 C 153.26 130.58 154.00 129.14 154.81 127.73 C 155.38 128.06 156.51 128.73 157.08 129.06 C 154.73 133.02 152.50 137.08 149.78 140.80 C 148.12 141.05 146.45 141.05 144.78 141.11 C 145.11 140.68 145.77 139.82 146.10 139.39 C 148.31 137.02 151.10 135.01 152.49 132.00 Z" />
</g>
<g id="#766c75fc">
<path fill="#766c75" opacity="1.00" d=" M 157.08 129.06 L 158.00 128.98 C 158.07 129.55 158.22 130.68 158.29 131.25 C 157.55 132.50 156.71 133.69 155.91 134.91 C 153.78 138.78 149.72 145.39 144.78 141.11 C 146.45 141.05 148.12 141.05 149.78 140.80 C 152.50 137.08 154.73 133.02 157.08 129.06 Z" />
</g>
<g id="#1b4d7aff">
<path fill="#1b4d7a" opacity="1.00" d=" M 125.20 129.88 C 127.35 131.81 129.26 134.00 131.02 136.29 C 131.47 137.87 131.91 139.46 132.05 141.10 C 129.95 140.87 128.60 139.14 127.01 137.95 C 126.30 136.15 125.74 134.29 125.01 132.51 C 125.05 131.85 125.15 130.54 125.20 129.88 Z" />
</g>
<g id="#bbb9abff">
<path fill="#bbb9ab" opacity="1.00" d=" M 99.10 131.02 L 99.95 130.92 C 100.03 131.39 100.17 132.34 100.25 132.81 C 99.64 143.14 89.95 149.81 82.22 155.24 C 74.85 159.62 76.52 170.87 68.31 174.27 C 67.04 173.47 62.88 173.51 63.32 172.27 C 67.55 169.45 72.43 166.67 72.97 160.98 C 73.84 155.94 78.60 153.27 82.26 150.27 C 90.11 146.15 93.61 137.52 99.10 131.02 Z" />
</g>
<g id="#5c5461ff">
<path fill="#5c5461" opacity="1.00" d=" M 140.52 135.05 C 144.06 133.15 148.67 130.83 152.49 132.00 C 151.10 135.01 148.31 137.02 146.10 139.39 C 143.81 138.59 142.15 136.75 140.52 135.05 Z" />
</g>
<g id="#35444dee">
<path fill="#35444d" opacity="0.93" d=" M 158.29 131.25 L 158.98 130.79 C 158.76 133.32 158.30 138.38 158.07 140.91 C 157.57 139.47 156.93 138.08 156.27 136.72 C 156.18 136.26 156.00 135.36 155.91 134.91 C 156.71 133.69 157.55 132.50 158.29 131.25 Z" />
</g>
<g id="#adaea1fe">
<path fill="#adaea1" opacity="1.00" d=" M 100.25 132.81 C 100.79 134.03 101.31 135.26 101.93 136.45 C 102.33 137.29 102.76 138.12 103.22 138.93 C 100.99 149.05 89.94 153.67 82.40 159.44 C 80.77 163.49 79.33 167.64 77.69 171.70 C 76.55 173.56 78.74 175.30 78.31 177.25 C 74.69 177.23 71.48 175.36 67.95 174.80 L 68.31 174.27 C 76.52 170.87 74.85 159.62 82.22 155.24 C 89.95 149.81 99.64 143.14 100.25 132.81 Z" />
</g>
<g id="#376e96ff">
<path fill="#376e96" opacity="1.00" d=" M 120.59 141.62 C 121.97 138.47 120.90 133.67 125.01 132.51 C 125.74 134.29 126.30 136.15 127.01 137.95 C 127.40 140.06 129.22 143.03 126.31 144.32 C 123.42 148.56 116.04 149.98 116.72 156.14 C 116.38 155.84 115.71 155.23 115.37 154.93 C 114.36 153.91 113.34 152.91 112.32 151.91 L 111.80 151.14 C 114.47 147.74 117.52 144.65 120.59 141.62 Z" />
</g>
<g id="#31658dff">
<path fill="#31658d" opacity="1.00" d=" M 133.25 135.04 C 133.45 135.27 133.84 135.75 134.03 135.98 C 135.15 137.49 136.38 138.91 137.63 140.31 C 138.46 141.69 139.50 142.94 140.76 143.96 C 141.50 149.39 133.86 145.72 132.46 148.78 C 127.46 150.74 125.03 156.01 120.88 159.19 C 120.06 158.74 119.23 158.30 118.39 157.87 C 117.97 157.44 117.14 156.58 116.72 156.14 C 116.04 149.98 123.42 148.56 126.31 144.32 C 129.22 143.03 127.40 140.06 127.01 137.95 C 128.60 139.14 129.95 140.87 132.05 141.10 C 131.91 139.46 131.47 137.87 131.02 136.29 C 131.58 135.98 132.69 135.35 133.25 135.04 Z" />
</g>
<g id="#565361ff">
<path fill="#565361" opacity="1.00" d=" M 144.78 141.11 C 149.72 145.39 153.78 138.78 155.91 134.91 C 156.00 135.36 156.18 136.26 156.27 136.72 C 154.64 139.59 153.37 142.73 151.18 145.24 C 147.81 144.64 144.01 141.82 140.76 143.96 C 139.50 142.94 138.46 141.69 137.63 140.31 C 139.46 140.13 141.30 139.96 143.14 139.84 C 143.55 140.16 144.37 140.80 144.78 141.11 Z" />
</g>
<g id="#6b5e69ff">
<path fill="#6b5e69" opacity="1.00" d=" M 134.03 135.98 C 138.14 134.74 140.98 136.86 143.14 139.84 C 141.30 139.96 139.46 140.13 137.63 140.31 C 136.38 138.91 135.15 137.49 134.03 135.98 Z" />
</g>
<g id="#246488fc">
<path fill="#246488" opacity="1.00" d=" M 156.27 136.72 C 156.93 138.08 157.57 139.47 158.07 140.91 C 158.73 144.87 160.97 149.01 158.96 152.88 C 157.18 152.86 158.33 149.98 157.74 148.82 C 155.17 150.74 156.15 154.30 155.10 157.03 C 154.31 157.02 152.73 156.99 151.94 156.98 C 150.82 153.79 150.21 150.44 149.14 147.24 C 149.84 146.59 150.52 145.92 151.18 145.24 C 153.37 142.73 154.64 139.59 156.27 136.72 Z" />
</g>
<g id="#a2a49afe">
<path fill="#a2a49a" opacity="1.00" d=" M 103.22 138.93 C 104.15 140.42 105.08 141.92 106.05 143.40 L 106.29 144.06 C 106.15 144.72 105.87 146.06 105.73 146.72 C 99.63 151.74 93.02 156.12 86.34 160.31 C 83.81 164.41 82.59 169.22 82.02 173.94 C 82.78 176.27 85.42 177.46 87.21 179.02 C 84.43 178.87 80.02 178.88 78.31 177.25 C 78.74 175.30 76.55 173.56 77.69 171.70 C 79.33 167.64 80.77 163.49 82.40 159.44 C 89.94 153.67 100.99 149.05 103.22 138.93 Z" />
</g>
<g id="#67ccf9fe">
<path fill="#67ccf9" opacity="1.00" d=" M 57.30 151.29 C 60.03 149.25 58.69 144.54 62.05 143.23 C 61.06 148.29 59.57 153.22 57.46 157.92 C 53.45 156.88 49.38 157.29 45.34 157.68 C 44.07 156.61 42.95 155.37 41.73 154.25 C 38.64 154.70 37.45 157.04 38.53 159.87 C 35.43 164.00 29.13 162.95 25.75 166.81 C 25.02 166.84 23.56 166.89 22.83 166.91 C 25.13 164.20 27.99 162.08 30.45 159.55 C 31.54 157.07 33.29 155.01 35.14 153.07 C 36.88 152.96 38.63 152.79 40.32 152.30 C 44.07 151.61 47.90 153.13 51.71 152.55 C 53.71 153.05 56.11 153.41 57.30 151.29 Z" />
</g>
<g id="#433f4cff">
<path fill="#433f4c" opacity="1.00" d=" M 140.76 143.96 C 144.01 141.82 147.81 144.64 151.18 145.24 C 150.52 145.92 149.84 146.59 149.14 147.24 C 145.97 147.30 143.26 145.72 140.76 143.96 Z" />
</g>
<g id="#989a93ff">
<path fill="#989a93" opacity="1.00" d=" M 106.29 144.06 C 107.09 145.16 107.94 146.23 108.84 147.26 L 109.37 147.94 C 103.27 156.61 89.83 158.14 87.58 169.64 C 85.39 173.03 86.89 176.84 90.09 178.88 C 89.37 178.91 87.93 178.98 87.21 179.02 C 85.42 177.46 82.78 176.27 82.02 173.94 C 82.59 169.22 83.81 164.41 86.34 160.31 C 93.02 156.12 99.63 151.74 105.73 146.72 C 105.87 146.06 106.15 144.72 106.29 144.06 Z" />
</g>
<g id="#245079ff">
<path fill="#245079" opacity="1.00" d=" M 140.76 143.96 C 143.26 145.72 145.97 147.30 149.14 147.24 C 150.21 150.44 150.82 153.79 151.94 156.98 C 150.65 156.95 149.36 156.95 148.07 156.98 C 147.00 157.07 146.03 157.41 145.15 158.01 C 141.03 160.32 138.97 165.09 136.68 169.07 C 133.71 167.94 130.92 166.37 128.04 165.04 C 127.28 159.81 132.89 157.29 135.76 153.78 C 134.70 152.09 133.40 150.55 132.46 148.78 C 133.86 145.72 141.50 149.39 140.76 143.96 Z" />
</g>
<g id="#8c908bfe">
<path fill="#8c908b" opacity="1.00" d=" M 109.37 147.94 C 110.23 148.97 111.01 150.05 111.80 151.14 L 112.32 151.91 C 106.46 156.88 100.20 161.35 94.48 166.49 C 92.30 169.63 89.86 174.55 93.35 177.63 C 94.20 179.71 97.15 178.19 98.14 179.92 C 97.36 179.96 95.80 180.03 95.01 180.07 C 92.82 179.49 87.25 181.35 87.21 179.02 C 87.93 178.98 89.37 178.91 90.09 178.88 C 86.89 176.84 85.39 173.03 87.58 169.64 C 89.83 158.14 103.27 156.61 109.37 147.94 Z" />
</g>
<g id="#2d5c83ff">
<path fill="#2d5c83" opacity="1.00" d=" M 120.88 159.19 C 125.03 156.01 127.46 150.74 132.46 148.78 C 133.40 150.55 134.70 152.09 135.76 153.78 C 132.89 157.29 127.28 159.81 128.04 165.04 C 126.54 163.92 125.06 162.78 123.45 161.82 C 122.58 160.95 121.72 160.08 120.88 159.19 Z" />
</g>
<g id="#1a5379fd">
<path fill="#1a5379" opacity="1.00" d=" M 155.10 157.03 C 156.15 154.30 155.17 150.74 157.74 148.82 C 158.33 149.98 157.18 152.86 158.96 152.88 C 159.46 152.93 160.47 153.04 160.98 153.09 C 160.99 154.40 161.00 155.70 161.00 157.01 C 159.04 157.03 157.07 157.04 155.10 157.03 Z" />
</g>
<g id="#366c6fa6">
<path fill="#366c6f" opacity="0.65" d=" M 30.00 150.98 C 32.58 151.31 37.74 151.97 40.32 152.30 C 36.88 152.14 33.44 151.99 30.00 151.97 L 30.00 150.98 Z" />
</g>
<g id="#87f0f7fb">
<path fill="#87f0f7" opacity="1.00" d=" M 9.86 160.88 C 14.40 154.25 22.92 153.77 30.00 151.97 C 33.44 151.99 36.88 152.14 40.32 152.30 C 38.63 152.79 36.88 152.96 35.14 153.07 C 25.08 152.81 18.04 161.85 10.07 166.71 C 10.60 167.00 11.65 167.58 12.17 167.87 C 10.75 167.93 9.33 167.98 7.91 168.01 C 5.24 167.71 9.80 162.70 9.86 160.88 Z" />
</g>
<g id="#828784fd">
<path fill="#828784" opacity="1.00" d=" M 112.32 151.91 C 113.34 152.91 114.36 153.91 115.37 154.93 C 109.79 160.20 103.31 164.46 97.78 169.75 C 96.79 171.71 94.77 175.15 97.21 176.78 C 99.46 178.60 102.56 178.75 105.21 179.74 C 103.35 179.92 101.50 180.16 99.70 180.64 C 98.37 180.64 94.81 182.14 95.01 180.07 C 95.80 180.03 97.36 179.96 98.14 179.92 C 97.15 178.19 94.20 179.71 93.35 177.63 C 89.86 174.55 92.30 169.63 94.48 166.49 C 100.20 161.35 106.46 156.88 112.32 151.91 Z" />
</g>
<g id="#71dcfeff">
<path fill="#71dcfe" opacity="1.00" d=" M 10.07 166.71 C 18.04 161.85 25.08 152.81 35.14 153.07 C 33.29 155.01 31.54 157.07 30.45 159.55 C 27.99 162.08 25.13 164.20 22.83 166.91 C 20.11 167.04 17.35 166.87 14.73 167.71 C 14.09 167.75 12.81 167.83 12.17 167.87 C 11.65 167.58 10.60 167.00 10.07 166.71 Z" />
</g>
<g id="#31739ffa">
<path fill="#31739f" opacity="0.98" d=" M 160.98 153.09 L 161.89 153.07 C 163.29 154.05 164.31 155.41 165.09 156.92 C 163.73 156.99 162.37 157.02 161.00 157.01 C 161.00 155.70 160.99 154.40 160.98 153.09 Z" />
</g>
<g id="#4ca0c8f8">
<path fill="#4ca0c8" opacity="0.97" d=" M 161.89 153.07 C 163.41 153.28 166.45 153.69 167.97 153.90 C 164.83 153.05 161.89 157.25 169.86 155.33 C 171.97 155.82 173.96 157.22 176.21 156.56 C 179.57 156.73 182.78 158.72 185.09 161.06 C 173.78 158.87 162.38 156.79 150.75 158.22 C 150.30 158.16 149.41 158.03 148.97 157.96 L 147.96 157.80 L 148.07 156.98 C 149.36 156.95 150.65 156.95 151.94 156.98 C 152.73 156.99 154.31 157.02 155.10 157.03 C 157.07 157.04 159.04 157.03 161.00 157.01 C 162.37 157.02 163.73 156.99 165.09 156.92 C 164.31 155.41 163.29 154.05 161.89 153.07 Z" />
</g>
<g id="#62c0f1ff">
<path fill="#62c0f1" opacity="1.00" d=" M 38.53 159.87 C 37.45 157.04 38.64 154.70 41.73 154.25 C 42.95 155.37 44.07 156.61 45.34 157.68 C 49.38 157.29 53.45 156.88 57.46 157.92 C 57.32 158.42 57.04 159.42 56.90 159.92 L 55.89 159.98 C 53.38 159.81 51.16 161.00 48.88 161.82 C 46.92 161.99 45.07 161.05 43.11 161.12 C 40.45 162.33 37.72 163.60 35.72 165.81 C 34.73 166.09 33.75 166.39 32.77 166.71 C 31.01 166.74 27.50 166.79 25.75 166.81 C 29.13 162.95 35.43 164.00 38.53 159.87 Z" />
</g>
<g id="#55b9e9f8">
<path fill="#55b9e9" opacity="0.97" d=" M 169.86 155.33 C 161.89 157.25 164.83 153.05 167.97 153.90 C 170.86 153.92 174.02 154.56 176.21 156.56 C 173.96 157.22 171.97 155.82 169.86 155.33 Z" />
</g>
<g id="#7a8180ff">
<path fill="#7a8180" opacity="1.00" d=" M 115.37 154.93 C 115.71 155.23 116.38 155.84 116.72 156.14 C 117.14 156.58 117.97 157.44 118.39 157.87 C 115.20 165.51 104.28 166.92 102.09 175.01 C 102.97 180.50 110.68 177.55 114.30 179.70 L 113.16 179.88 C 110.51 179.90 107.85 179.85 105.21 179.74 C 102.56 178.75 99.46 178.60 97.21 176.78 C 94.77 175.15 96.79 171.71 97.78 169.75 C 103.31 164.46 109.79 160.20 115.37 154.93 Z" />
</g>
<g id="#3d7ca8ff">
<path fill="#3d7ca8" opacity="1.00" d=" M 145.15 158.01 C 146.03 157.41 147.00 157.07 148.07 156.98 L 147.96 157.80 C 146.12 159.87 145.00 162.41 143.92 164.93 C 141.96 165.94 141.95 168.11 141.70 170.03 C 141.22 170.03 140.27 170.03 139.80 170.02 C 139.78 165.37 143.53 162.11 145.15 158.01 Z" />
</g>
<g id="#6e7779fe">
<path fill="#6e7779" opacity="1.00" d=" M 118.39 157.87 C 119.23 158.30 120.06 158.74 120.88 159.19 C 121.72 160.08 122.58 160.95 123.45 161.82 C 122.04 165.95 117.63 167.76 114.73 170.72 C 113.34 172.30 110.29 173.23 111.02 175.83 C 113.78 177.53 117.20 177.60 120.24 178.59 C 118.27 178.94 116.35 180.26 114.30 179.70 C 110.68 177.55 102.97 180.50 102.09 175.01 C 104.28 166.92 115.20 165.51 118.39 157.87 Z" />
</g>
<g id="#326790ff">
<path fill="#326790" opacity="1.00" d=" M 136.68 169.07 C 138.97 165.09 141.03 160.32 145.15 158.01 C 143.53 162.11 139.78 165.37 139.80 170.02 L 138.87 170.05 C 138.32 169.81 137.23 169.31 136.68 169.07 Z" />
</g>
<g id="#4996c6ff">
<path fill="#4996c6" opacity="1.00" d=" M 143.92 164.93 C 145.00 162.41 146.12 159.87 147.96 157.80 C 147.09 160.42 146.22 163.19 143.92 164.93 Z" />
</g>
<g id="#55aaddff">
<path fill="#55aadd" opacity="1.00" d=" M 147.96 157.80 L 148.97 157.96 C 149.18 158.45 149.60 159.43 149.80 159.92 C 147.57 163.37 145.16 166.82 145.68 171.27 C 145.24 171.22 144.38 171.13 143.94 171.08 C 143.96 169.03 143.94 166.98 143.92 164.93 C 146.22 163.19 147.09 160.42 147.96 157.80 Z" />
</g>
<g id="#67cbfdff">
<path fill="#67cbfd" opacity="1.00" d=" M 148.97 157.96 C 149.41 158.03 150.30 158.16 150.75 158.22 C 155.21 161.87 161.05 157.45 166.01 159.92 C 171.75 161.16 177.73 161.57 183.25 163.67 C 178.76 163.88 174.27 163.88 169.79 164.16 C 171.08 166.80 176.26 165.58 175.91 168.84 C 171.53 172.29 165.24 171.97 159.99 171.29 C 156.04 170.99 151.43 171.33 148.04 168.82 C 147.31 165.61 150.36 163.09 149.80 159.92 C 149.60 159.43 149.18 158.45 148.97 157.96 Z" />
</g>
<g id="#70dcf6fc">
<path fill="#70dcf6" opacity="1.00" d=" M 150.75 158.22 C 162.38 156.79 173.78 158.87 185.09 161.06 C 189.59 163.12 194.78 163.93 199.17 166.56 C 197.12 166.98 195.16 166.20 193.20 165.73 C 189.93 164.81 186.62 164.08 183.25 163.67 C 177.73 161.57 171.75 161.16 166.01 159.92 C 161.05 157.45 155.21 161.87 150.75 158.22 Z" />
</g>
<g id="#59aedbff">
<path fill="#59aedb" opacity="1.00" d=" M 48.88 161.82 C 51.16 161.00 53.38 159.81 55.89 159.98 L 55.64 160.84 C 55.30 161.93 54.99 163.03 54.70 164.14 C 53.75 164.49 52.79 164.82 51.82 165.13 C 46.44 165.01 41.10 166.16 35.72 165.81 C 37.72 163.60 40.45 162.33 43.11 161.12 C 45.07 161.05 46.92 161.99 48.88 161.82 Z" />
</g>
<g id="#65c2f5ff">
<path fill="#65c2f5" opacity="1.00" d=" M 145.68 171.27 C 145.16 166.82 147.57 163.37 149.80 159.92 C 150.36 163.09 147.31 165.61 148.04 168.82 C 151.43 171.33 156.04 170.99 159.99 171.29 C 165.24 171.97 171.53 172.29 175.91 168.84 C 176.26 165.58 171.08 166.80 169.79 164.16 C 174.27 163.88 178.76 163.88 183.25 163.67 C 186.62 164.08 189.93 164.81 193.20 165.73 C 186.09 165.59 180.37 170.07 174.57 173.56 C 169.65 174.06 164.71 173.93 159.78 174.25 C 154.99 173.77 150.27 172.68 145.68 171.27 Z" />
</g>
<g id="#626e73fe">
<path fill="#626e73" opacity="1.00" d=" M 123.45 161.82 C 125.06 162.78 126.54 163.92 128.04 165.04 C 126.57 168.04 123.03 170.27 123.05 173.76 C 125.73 174.48 128.44 175.01 131.16 175.61 C 127.66 176.92 123.98 178.60 120.24 178.59 C 117.20 177.60 113.78 177.53 111.02 175.83 C 110.29 173.23 113.34 172.30 114.73 170.72 C 117.63 167.76 122.04 165.95 123.45 161.82 Z" />
</g>
<g id="#a0aea9fb">
<path fill="#a0aea9" opacity="1.00" d=" M 35.72 165.81 C 41.10 166.16 46.44 165.01 51.82 165.13 C 52.21 168.57 57.13 166.95 58.92 168.95 C 56.89 169.26 54.93 169.94 52.89 170.18 C 47.08 167.27 40.63 166.40 34.23 167.96 C 33.87 167.65 33.13 167.02 32.77 166.71 C 33.75 166.39 34.73 166.09 35.72 165.81 Z" />
</g>
<g id="#58676efc">
<path fill="#58676e" opacity="1.00" d=" M 128.04 165.04 C 130.92 166.37 133.71 167.94 136.68 169.07 C 137.23 169.31 138.32 169.81 138.87 170.05 C 139.19 170.99 139.53 171.92 139.87 172.85 C 136.79 173.18 134.20 175.25 131.16 175.61 C 128.44 175.01 125.73 174.48 123.05 173.76 C 123.03 170.27 126.57 168.04 128.04 165.04 Z" />
</g>
<g id="#4d92c1ff">
<path fill="#4d92c1" opacity="1.00" d=" M 141.70 170.03 C 141.95 168.11 141.96 165.94 143.92 164.93 C 143.94 166.98 143.96 169.03 143.94 171.08 L 143.00 171.02 C 142.67 170.77 142.03 170.28 141.70 170.03 Z" />
</g>
<g id="#62b9e6fe">
<path fill="#62b9e6" opacity="1.00" d=" M 174.57 173.56 C 180.37 170.07 186.09 165.59 193.20 165.73 C 195.16 166.20 197.12 166.98 199.17 166.56 C 200.98 166.54 202.52 167.92 204.17 168.55 C 200.47 168.98 196.79 167.65 193.10 168.14 C 186.89 170.06 180.78 172.62 175.78 176.89 C 170.36 176.81 164.98 175.72 159.78 174.25 C 164.71 173.93 169.65 174.06 174.57 173.56 Z" />
</g>
<g id="#a9ddefff">
<path fill="#a9ddef" opacity="1.00" d=" M 14.73 167.71 C 17.35 166.87 20.11 167.04 22.83 166.91 L 22.92 167.96 C 20.19 167.89 17.46 167.80 14.73 167.71 Z" />
</g>
<g id="#cdcdc1ff">
<path fill="#cdcdc1" opacity="1.00" d=" M 22.83 166.91 C 23.56 166.89 25.02 166.84 25.75 166.81 C 27.50 166.79 31.01 166.74 32.77 166.71 C 33.13 167.02 33.87 167.65 34.23 167.96 L 33.29 168.14 C 29.86 168.38 26.45 168.77 23.02 168.93 L 22.92 167.96 L 22.83 166.91 Z" />
</g>
<g id="#83948efc">
<path fill="#83948e" opacity="1.00" d=" M 34.23 167.96 C 40.63 166.40 47.08 167.27 52.89 170.18 L 53.04 171.06 C 52.54 171.05 51.54 171.04 51.04 171.03 C 47.23 171.19 43.72 169.84 40.08 169.15 C 37.31 169.85 34.69 171.02 32.14 172.29 C 31.85 173.62 32.45 174.85 32.92 176.05 C 27.26 176.43 21.68 175.47 16.07 174.91 L 16.04 174.11 C 21.91 172.76 27.87 170.86 33.29 168.14 L 34.23 167.96 Z" />
</g>
<g id="#e5e2c9fa">
<path fill="#e5e2c9" opacity="0.98" d=" M 7.91 168.01 C 9.33 167.98 10.75 167.93 12.17 167.87 C 12.81 167.83 14.09 167.75 14.73 167.71 C 17.46 167.80 20.19 167.89 22.92 167.96 L 23.02 168.93 C 18.67 169.12 15.69 173.32 10.95 172.15 C 9.43 171.32 7.80 169.92 7.91 168.01 Z" />
</g>
<g id="#aeb3a5fd">
<path fill="#aeb3a5" opacity="1.00" d=" M 23.02 168.93 C 26.45 168.77 29.86 168.38 33.29 168.14 C 27.87 170.86 21.91 172.76 16.04 174.11 C 14.11 174.09 11.67 174.44 10.95 172.15 C 15.69 173.32 18.67 169.12 23.02 168.93 Z" />
</g>
<g id="#5aabd3fc">
<path fill="#5aabd3" opacity="1.00" d=" M 175.78 176.89 C 180.78 172.62 186.89 170.06 193.10 168.14 C 196.79 167.65 200.47 168.98 204.17 168.55 C 206.42 168.69 208.42 170.22 210.21 171.50 C 209.71 171.55 208.73 171.64 208.23 171.69 C 198.77 167.26 187.87 171.88 179.64 176.97 C 178.35 176.95 177.06 176.92 175.78 176.89 Z" />
</g>
<g id="#65857ffa">
<path fill="#65857f" opacity="0.98" d=" M 32.14 172.29 C 34.69 171.02 37.31 169.85 40.08 169.15 C 43.72 169.84 47.23 171.19 51.04 171.03 L 50.78 171.76 C 44.85 173.25 39.14 176.19 32.92 176.05 C 32.45 174.85 31.85 173.62 32.14 172.29 Z" />
</g>
<g id="#7c8786f7">
<path fill="#7c8786" opacity="0.97" d=" M 138.87 170.05 L 139.80 170.02 C 140.27 170.03 141.22 170.03 141.70 170.03 C 142.03 170.28 142.67 170.77 143.00 171.02 C 144.05 172.46 144.87 174.04 145.36 175.77 C 143.48 175.14 140.81 174.69 139.87 172.85 C 139.53 171.92 139.19 170.99 138.87 170.05 Z" />
</g>
<g id="#539cc1ff">
<path fill="#539cc1" opacity="1.00" d=" M 179.64 176.97 C 187.87 171.88 198.77 167.26 208.23 171.69 C 200.40 172.04 188.94 170.55 183.76 177.92 C 183.12 178.02 181.84 178.21 181.20 178.30 C 180.81 177.97 180.03 177.31 179.64 176.97 Z" />
</g>
<g id="#b4bab3ff">
<path fill="#b4bab3" opacity="1.00" d=" M 143.00 171.02 L 143.94 171.08 C 144.38 171.13 145.24 171.22 145.68 171.27 C 150.27 172.68 154.99 173.77 159.78 174.25 C 164.98 175.72 170.36 176.81 175.78 176.89 C 177.06 176.92 178.35 176.95 179.64 176.97 C 180.03 177.31 180.81 177.97 181.20 178.30 C 171.69 180.07 162.13 177.49 152.99 175.03 C 151.13 175.04 149.58 176.32 147.91 176.99 C 146.69 177.27 145.84 176.86 145.36 175.77 C 144.87 174.04 144.05 172.46 143.00 171.02 Z" />
</g>
<g id="#498cb2ff">
<path fill="#498cb2" opacity="1.00" d=" M 210.21 171.50 C 211.75 171.47 213.59 172.43 214.03 174.01 C 206.43 173.15 198.09 171.35 190.97 174.96 C 189.60 175.62 187.99 176.22 187.83 177.98 C 186.47 177.95 185.11 177.93 183.76 177.92 C 188.94 170.55 200.40 172.04 208.23 171.69 C 208.73 171.64 209.71 171.55 210.21 171.50 Z" />
</g>
<g id="#3f7ca1ff">
<path fill="#3f7ca1" opacity="1.00" d=" M 190.97 174.96 C 198.09 171.35 206.43 173.15 214.03 174.01 C 215.02 174.27 215.74 174.93 216.21 175.98 C 214.95 176.00 213.70 176.02 212.44 176.05 C 211.14 175.34 209.95 173.95 208.31 174.33 C 202.71 174.85 196.63 174.44 191.79 177.79 C 191.40 177.91 190.62 178.14 190.23 178.26 C 189.63 178.19 188.43 178.05 187.83 177.98 C 187.99 176.22 189.60 175.62 190.97 174.96 Z" />
</g>
<g id="#396c8eff">
<path fill="#396c8e" opacity="1.00" d=" M 208.31 174.33 C 209.95 173.95 211.14 175.34 212.44 176.05 C 205.64 177.30 198.73 178.31 191.79 177.79 C 196.63 174.44 202.71 174.85 208.31 174.33 Z" />
</g>
<g id="#88928cfa">
<path fill="#88928c" opacity="0.98" d=" M 147.91 176.99 C 149.58 176.32 151.13 175.04 152.99 175.03 C 162.13 177.49 171.69 180.07 181.20 178.30 C 181.84 178.21 183.12 178.02 183.76 177.92 C 185.11 177.93 186.47 177.95 187.83 177.98 C 188.43 178.05 189.63 178.19 190.23 178.26 C 187.42 181.08 182.47 179.56 179.87 182.65 C 181.81 183.01 183.96 183.08 185.22 184.83 L 183.96 184.98 C 182.26 185.01 178.85 185.05 177.15 185.07 C 168.49 184.89 159.89 182.52 151.90 179.18 C 150.65 178.40 148.35 178.60 147.91 176.99 Z" />
</g>
<g id="#697d7bf8">
<path fill="#697d7b" opacity="0.97" d=" M 212.44 176.05 C 213.70 176.02 214.95 176.00 216.21 175.98 C 207.43 182.31 195.69 183.82 185.22 184.83 C 183.96 183.08 181.81 183.01 179.87 182.65 C 182.47 179.56 187.42 181.08 190.23 178.26 C 190.62 178.14 191.40 177.91 191.79 177.79 C 198.73 178.31 205.64 177.30 212.44 176.05 Z" />
</g>
<g id="#384b45b3">
<path fill="#384b45" opacity="0.70" d=" M 99.70 180.64 C 101.50 180.16 103.35 179.92 105.21 179.74 C 107.85 179.85 110.51 179.90 113.16 179.88 L 112.96 180.95 C 108.55 180.92 104.08 181.39 99.70 180.64 Z" />
</g>
<g id="#0608083b">
<path fill="#060808" opacity="0.23" d=" M 177.15 185.07 C 178.85 185.05 182.26 185.01 183.96 184.98 C 183.06 186.83 178.07 186.81 177.15 185.07 Z" />
</g>
</svg>
