<?xml version="1.0" encoding="UTF-8" ?>
<!DOCTYPE svg PUBLIC "-//W3C//DTD SVG 1.1//EN" "http://www.w3.org/Graphics/SVG/1.1/DTD/svg11.dtd">
<svg width="131pt" height="136pt" viewBox="0 0 131 136" version="1.1" xmlns="http://www.w3.org/2000/svg">
<g id="#feeafeff">
<path fill="#feeafe" opacity="1.00" d=" M 35.28 33.43 C 38.99 28.63 44.24 23.54 50.83 24.40 C 55.76 24.81 58.86 28.97 62.33 31.94 L 61.23 32.13 C 56.59 30.67 51.78 30.14 47.00 31.23 C 42.88 31.02 39.40 34.91 35.28 33.43 Z" />
<path fill="#feeafe" opacity="1.00" d=" M 33.17 36.28 L 33.68 35.23 C 33.90 35.84 34.35 37.07 34.57 37.68 C 32.33 39.43 30.12 41.27 28.45 43.61 C 28.22 42.67 27.98 41.74 27.73 40.81 C 28.41 39.52 29.10 38.23 29.95 37.03 C 31.29 37.28 32.37 37.03 33.17 36.28 Z" />
</g>
<g id="#cbb3e0ff">
<path fill="#cbb3e0" opacity="1.00" d=" M 8.62 33.05 C 9.05 27.90 14.73 24.09 19.62 26.21 L 19.03 26.87 C 17.60 27.16 16.14 27.35 14.75 27.79 C 13.89 28.85 14.96 30.32 15.27 31.43 C 14.32 32.13 13.37 32.83 12.42 33.52 C 12.43 40.07 10.12 49.13 16.98 53.14 C 20.31 51.25 21.46 47.43 24.03 44.82 C 25.29 43.51 26.62 42.25 27.73 40.81 C 27.98 41.74 28.22 42.67 28.45 43.61 C 30.12 41.27 32.33 39.43 34.57 37.68 C 34.35 37.07 33.90 35.84 33.68 35.23 C 34.18 34.62 34.69 34.01 35.20 33.41 L 35.28 33.43 C 39.40 34.91 42.88 31.02 47.00 31.23 C 51.78 30.14 56.59 30.67 61.23 32.13 C 61.50 32.64 62.05 33.67 62.33 34.19 C 59.59 34.01 56.84 33.94 54.11 34.20 C 54.47 35.15 54.82 36.11 55.16 37.07 C 55.69 38.67 56.10 40.30 56.48 41.95 C 56.28 42.33 55.89 43.10 55.69 43.48 C 50.62 41.59 46.28 45.25 41.57 46.51 L 41.32 47.18 C 41.09 47.93 40.65 49.42 40.42 50.17 C 39.20 52.69 37.39 54.95 34.77 56.08 C 34.28 56.15 33.31 56.27 32.83 56.33 C 34.30 59.17 38.33 58.57 41.00 59.42 C 40.82 59.78 40.46 60.49 40.28 60.85 C 40.86 60.96 42.00 61.17 42.57 61.28 C 39.47 65.02 38.38 69.92 36.10 74.15 C 33.96 77.92 34.35 82.48 32.25 86.24 C 31.00 88.27 31.44 90.69 31.56 92.93 C 30.70 91.43 29.91 89.83 28.49 88.78 C 28.50 90.17 28.55 91.55 28.65 92.94 C 27.18 93.04 25.70 93.14 24.23 93.24 C 23.80 96.96 23.86 100.71 23.70 104.44 C 22.99 104.65 21.55 105.05 20.83 105.25 C 18.10 103.39 15.62 101.20 13.05 99.12 C 11.12 101.78 10.39 105.01 8.98 107.93 C 8.12 110.00 5.54 108.75 3.87 109.03 C 3.40 107.55 2.80 106.08 2.82 104.50 C 4.65 104.45 6.87 104.37 7.35 102.18 C 11.10 92.21 13.87 81.88 17.88 72.00 C 19.13 68.47 19.83 64.78 20.69 61.14 C 18.98 60.97 17.26 60.81 15.55 60.64 C 14.77 59.07 14.00 57.49 13.20 55.93 C 13.13 56.41 12.98 57.38 12.91 57.86 C 10.44 49.86 7.74 41.51 8.62 33.05 Z" />
</g>
<g id="#a681c5ff">
<path fill="#a681c5" opacity="1.00" d=" M 14.75 27.79 C 16.14 27.35 17.60 27.16 19.03 26.87 C 20.29 26.92 21.37 27.44 22.29 28.42 C 21.94 31.13 21.82 34.12 23.56 36.41 C 24.47 38.08 26.52 37.21 27.99 37.28 C 27.78 36.17 27.55 35.06 27.30 33.97 C 27.87 34.73 28.43 35.51 28.99 36.29 C 30.38 36.29 31.78 36.29 33.17 36.28 C 32.37 37.03 31.29 37.28 29.95 37.03 C 29.10 38.23 28.41 39.52 27.73 40.81 C 26.62 42.25 25.29 43.51 24.03 44.82 C 23.95 44.18 23.79 42.91 23.71 42.28 C 22.42 42.27 21.01 42.85 19.80 42.27 C 17.23 39.12 18.03 34.47 15.27 31.43 C 14.96 30.32 13.89 28.85 14.75 27.79 Z" />
</g>
<g id="#8b57a3ff">
<path fill="#8b57a3" opacity="1.00" d=" M 22.29 28.42 C 24.07 30.17 25.83 31.95 27.30 33.97 C 27.55 35.06 27.78 36.17 27.99 37.28 C 26.52 37.21 24.47 38.08 23.56 36.41 C 21.82 34.12 21.94 31.13 22.29 28.42 Z" />
</g>
<g id="#bb9cccff">
<path fill="#bb9ccc" opacity="1.00" d=" M 62.33 31.94 C 64.97 34.53 68.08 31.32 71.03 31.02 C 71.89 32.58 73.98 32.54 75.02 31.20 C 77.55 31.13 80.14 32.91 82.16 34.44 C 82.43 34.91 82.98 35.84 83.25 36.31 C 82.12 36.01 80.99 35.71 79.85 35.40 C 82.23 39.72 83.71 44.51 86.43 48.64 C 89.49 50.58 92.49 47.62 92.98 44.58 C 93.21 44.84 93.65 45.37 93.87 45.64 C 94.04 46.34 94.38 47.75 94.55 48.45 C 96.61 48.94 98.74 49.02 100.84 48.78 C 100.61 48.45 100.15 47.80 99.92 47.47 C 100.31 47.39 101.09 47.22 101.48 47.13 C 104.73 48.32 108.52 48.82 111.69 47.10 L 112.09 46.94 C 112.87 47.59 113.64 48.25 114.40 48.91 C 113.87 49.10 112.80 49.48 112.27 49.67 C 109.42 49.32 106.46 48.61 103.66 49.65 C 100.00 50.91 96.09 51.52 92.24 50.77 C 89.85 50.84 87.34 52.79 85.19 50.81 C 81.43 49.37 81.67 44.08 77.88 42.90 C 75.02 41.15 72.70 37.84 69.05 37.90 C 64.41 37.98 59.69 38.37 55.16 37.07 C 54.82 36.11 54.47 35.15 54.11 34.20 C 56.84 33.94 59.59 34.01 62.33 34.19 C 62.05 33.67 61.50 32.64 61.23 32.13 L 62.33 31.94 Z" />
</g>
<g id="#debaeeff">
<path fill="#debaee" opacity="1.00" d=" M 71.03 31.02 C 72.40 30.54 73.73 30.60 75.02 31.20 C 73.98 32.54 71.89 32.58 71.03 31.02 Z" />
</g>
<g id="#bea3edff">
<path fill="#bea3ed" opacity="1.00" d=" M 12.42 33.52 C 13.37 32.83 14.32 32.13 15.27 31.43 C 18.03 34.47 17.23 39.12 19.80 42.27 C 21.01 42.85 22.42 42.27 23.71 42.28 C 23.79 42.91 23.95 44.18 24.03 44.82 C 21.46 47.43 20.31 51.25 16.98 53.14 C 10.12 49.13 12.43 40.07 12.42 33.52 Z" />
</g>
<g id="#aa83bdff">
<path fill="#aa83bd" opacity="1.00" d=" M 82.16 34.44 C 85.86 37.72 89.23 41.35 92.98 44.58 C 92.49 47.62 89.49 50.58 86.43 48.64 C 83.71 44.51 82.23 39.72 79.85 35.40 C 80.99 35.71 82.12 36.01 83.25 36.31 C 82.98 35.84 82.43 34.91 82.16 34.44 Z" />
</g>
<g id="#bea2e5ff">
<path fill="#bea2e5" opacity="1.00" d=" M 55.16 37.07 C 59.69 38.37 64.41 37.98 69.05 37.90 C 72.70 37.84 75.02 41.15 77.88 42.90 C 76.32 47.84 81.47 53.44 77.51 57.63 C 78.00 57.83 78.99 58.23 79.49 58.44 L 79.69 59.05 C 75.89 59.07 72.12 59.56 68.32 59.48 C 67.31 58.78 66.30 58.09 65.28 57.39 C 66.04 56.75 66.79 56.10 67.55 55.45 C 67.22 55.16 66.55 54.57 66.21 54.27 C 69.34 54.86 69.19 50.38 66.18 50.79 C 65.53 50.65 64.88 50.52 64.23 50.39 C 64.49 48.33 65.71 45.80 63.78 44.18 C 61.76 42.50 58.98 42.28 56.48 41.95 C 56.10 40.30 55.69 38.67 55.16 37.07 Z" />
</g>
<g id="#c8b1f3ff">
<path fill="#c8b1f3" opacity="1.00" d=" M 56.48 41.95 C 58.98 42.28 61.76 42.50 63.78 44.18 C 65.71 45.80 64.49 48.33 64.23 50.39 C 64.88 50.52 65.53 50.65 66.18 50.79 C 65.83 51.33 65.13 52.41 64.78 52.95 C 65.14 53.28 65.85 53.94 66.21 54.27 C 66.55 54.57 67.22 55.16 67.55 55.45 C 66.79 56.10 66.04 56.75 65.28 57.39 C 66.30 58.09 67.31 58.78 68.32 59.48 C 57.08 59.35 45.72 58.81 34.77 56.08 C 37.39 54.95 39.20 52.69 40.42 50.17 C 41.48 50.49 43.05 51.06 43.60 49.64 C 44.77 48.14 42.66 46.90 41.32 47.18 L 41.57 46.51 C 46.28 45.25 50.62 41.59 55.69 43.48 C 55.89 43.10 56.28 42.33 56.48 41.95 Z" />
</g>
<g id="#b08ed5ff">
<path fill="#b08ed5" opacity="1.00" d=" M 77.88 42.90 C 81.67 44.08 81.43 49.37 85.19 50.81 C 87.34 52.79 89.85 50.84 92.24 50.77 C 91.05 53.92 90.97 57.86 93.61 60.33 C 95.18 61.65 97.16 60.58 98.61 59.64 C 102.87 56.70 108.43 55.89 112.06 52.01 C 112.11 51.43 112.22 50.26 112.27 49.67 C 112.80 49.48 113.87 49.10 114.40 48.91 C 114.86 51.07 115.30 53.72 113.27 55.23 C 107.54 60.59 101.76 66.21 94.72 69.81 C 90.80 74.20 91.64 80.52 89.60 85.70 C 88.00 89.34 89.46 93.76 87.07 97.12 C 82.29 103.64 75.09 108.23 67.34 110.38 C 60.48 112.96 53.07 110.88 46.00 112.10 C 42.31 112.77 38.56 112.95 34.84 112.52 C 30.86 112.06 26.78 112.92 22.87 111.90 C 23.41 110.66 23.96 109.43 24.51 108.19 C 30.72 109.09 36.98 107.42 43.02 106.11 C 53.93 103.95 64.50 98.28 70.86 88.95 C 72.13 86.63 73.93 84.69 75.47 82.56 C 76.97 77.81 78.60 73.02 79.04 68.03 C 79.21 65.52 80.77 63.17 80.13 60.62 C 80.02 60.22 79.80 59.44 79.69 59.05 L 79.49 58.44 C 78.99 58.23 78.00 57.83 77.51 57.63 C 81.47 53.44 76.32 47.84 77.88 42.90 Z" />
</g>
<g id="#efd0f5fe">
<path fill="#efd0f5" opacity="1.00" d=" M 93.87 45.64 C 95.63 46.92 97.75 47.54 99.92 47.47 C 100.15 47.80 100.61 48.45 100.84 48.78 C 98.74 49.02 96.61 48.94 94.55 48.45 C 94.38 47.75 94.04 46.34 93.87 45.64 Z" />
<path fill="#efd0f5" opacity="1.00" d=" M 13.20 55.93 C 14.00 57.49 14.77 59.07 15.55 60.64 C 17.26 60.81 18.98 60.97 20.69 61.14 C 19.83 64.78 19.13 68.47 17.88 72.00 C 13.87 81.88 11.10 92.21 7.35 102.18 C 6.87 104.37 4.65 104.45 2.82 104.50 C 2.85 101.59 2.94 98.62 3.78 95.81 C 3.94 97.25 4.11 98.69 4.31 100.13 C 7.58 96.01 9.25 90.92 11.19 86.10 C 11.79 83.95 13.37 81.10 11.26 79.28 C 11.56 78.63 11.85 77.98 12.14 77.32 L 12.27 77.37 C 12.68 77.52 13.49 77.81 13.89 77.96 C 16.36 73.08 17.29 67.35 15.61 62.06 C 15.36 62.28 14.88 62.73 14.63 62.96 L 14.35 63.23 C 13.89 61.43 13.35 59.66 12.91 57.86 C 12.98 57.38 13.13 56.41 13.20 55.93 Z" />
</g>
<g id="#221f225c">
<path fill="#221f22" opacity="0.36" d=" M 104.29 46.96 C 104.63 45.11 109.35 45.14 109.83 46.91 C 107.98 47.02 106.13 47.05 104.29 46.96 Z" />
</g>
<g id="#594f64ff">
<path fill="#594f64" opacity="1.00" d=" M 41.32 47.18 C 42.66 46.90 44.77 48.14 43.60 49.64 C 43.05 51.06 41.48 50.49 40.42 50.17 C 40.65 49.42 41.09 47.93 41.32 47.18 Z" />
</g>
<g id="#e4caf9ff">
<path fill="#e4caf9" opacity="1.00" d=" M 101.48 47.13 C 102.18 47.09 103.59 47.00 104.29 46.96 C 106.13 47.05 107.98 47.02 109.83 46.91 L 111.69 47.10 C 108.52 48.82 104.73 48.32 101.48 47.13 Z" />
</g>
<g id="#a278bcff">
<path fill="#a278bc" opacity="1.00" d=" M 112.09 46.94 C 113.49 47.87 115.47 48.32 116.40 49.78 C 115.86 52.68 116.28 56.02 114.39 58.48 C 112.16 61.44 109.65 64.24 106.55 66.30 C 103.34 67.23 101.00 69.95 99.92 73.04 C 98.30 77.56 97.86 82.39 97.19 87.11 C 96.60 91.30 97.17 95.95 94.51 99.56 C 91.79 104.40 87.08 107.49 82.77 110.77 C 79.41 113.32 75.21 114.14 71.20 115.11 C 66.42 116.33 61.44 115.36 56.60 116.11 C 49.76 114.60 42.77 115.70 36.05 117.25 C 28.37 118.96 20.34 118.06 13.09 115.13 C 12.54 115.35 11.44 115.77 10.89 115.99 C 8.44 114.91 6.62 112.79 4.82 110.87 C 6.48 110.79 8.14 111.10 9.80 110.93 C 10.75 109.86 11.50 108.64 12.29 107.45 C 15.96 108.56 19.33 110.45 22.87 111.90 C 26.78 112.92 30.86 112.06 34.84 112.52 C 38.56 112.95 42.31 112.77 46.00 112.10 C 53.07 110.88 60.48 112.96 67.34 110.38 C 75.09 108.23 82.29 103.64 87.07 97.12 C 89.46 93.76 88.00 89.34 89.60 85.70 C 91.64 80.52 90.80 74.20 94.72 69.81 C 101.76 66.21 107.54 60.59 113.27 55.23 C 115.30 53.72 114.86 51.07 114.40 48.91 C 113.64 48.25 112.87 47.59 112.09 46.94 Z" />
</g>
<g id="#bea2efff">
<path fill="#bea2ef" opacity="1.00" d=" M 103.66 49.65 C 106.46 48.61 109.42 49.32 112.27 49.67 C 112.22 50.26 112.11 51.43 112.06 52.01 C 108.43 55.89 102.87 56.70 98.61 59.64 C 97.16 60.58 95.18 61.65 93.61 60.33 C 90.97 57.86 91.05 53.92 92.24 50.77 C 96.09 51.52 100.00 50.91 103.66 49.65 Z" />
</g>
<g id="#8d5aa2ff">
<path fill="#8d5aa2" opacity="1.00" d=" M 116.40 49.78 C 117.05 50.52 117.68 51.29 118.27 52.08 C 117.97 57.62 115.41 62.67 111.74 66.74 C 109.49 69.46 106.36 71.71 105.23 75.18 C 104.29 79.52 110.08 81.63 109.23 86.03 C 108.86 91.35 110.68 97.54 107.09 102.09 C 102.86 107.52 97.41 111.89 91.67 115.63 C 86.22 118.57 80.11 120.05 74.01 120.93 C 64.08 122.57 54.34 117.75 44.40 119.55 C 37.01 120.89 29.49 121.96 21.97 120.97 C 18.32 119.22 14.46 117.91 10.89 115.99 C 11.44 115.77 12.54 115.35 13.09 115.13 C 20.34 118.06 28.37 118.96 36.05 117.25 C 42.77 115.70 49.76 114.60 56.60 116.11 C 59.47 117.75 62.85 117.27 66.01 117.46 C 73.00 117.91 80.00 115.61 85.86 111.90 C 90.51 108.24 95.93 105.00 98.40 99.35 C 101.12 94.59 99.68 88.99 100.81 83.86 C 101.60 80.19 100.65 76.33 101.69 72.71 C 103.05 70.40 105.03 68.51 106.55 66.30 C 109.65 64.24 112.16 61.44 114.39 58.48 C 116.28 56.02 115.86 52.68 116.40 49.78 Z" />
</g>
<g id="#4a415bff">
<path fill="#4a415b" opacity="1.00" d=" M 66.18 50.79 C 69.19 50.38 69.34 54.86 66.21 54.27 C 65.85 53.94 65.14 53.28 64.78 52.95 C 65.13 52.41 65.83 51.33 66.18 50.79 Z" />
</g>
<g id="#76398fff">
<path fill="#76398f" opacity="1.00" d=" M 118.27 52.08 C 119.52 54.39 120.42 57.08 120.03 59.72 C 118.35 62.24 116.83 64.86 115.58 67.62 C 113.97 71.30 109.95 73.60 109.71 77.92 C 110.37 78.29 111.70 79.02 112.36 79.39 C 113.21 88.05 119.82 94.63 124.14 101.72 L 123.89 102.74 C 119.00 109.41 111.73 113.51 104.60 117.35 C 101.64 118.88 97.79 119.34 95.85 122.33 C 93.28 123.26 89.50 122.03 87.93 124.73 L 87.89 124.79 C 78.17 126.86 68.18 126.32 58.50 124.45 C 57.28 123.25 55.66 122.85 54.00 122.93 C 48.00 122.85 42.01 122.90 36.02 122.93 C 34.42 122.83 32.95 123.41 31.52 124.02 C 28.22 123.95 24.93 122.48 21.97 120.97 C 29.49 121.96 37.01 120.89 44.40 119.55 C 54.34 117.75 64.08 122.57 74.01 120.93 C 80.11 120.05 86.22 118.57 91.67 115.63 C 97.41 111.89 102.86 107.52 107.09 102.09 C 110.68 97.54 108.86 91.35 109.23 86.03 C 110.08 81.63 104.29 79.52 105.23 75.18 C 106.36 71.71 109.49 69.46 111.74 66.74 C 115.41 62.67 117.97 57.62 118.27 52.08 Z" />
</g>
<g id="#6a5c82ff">
<path fill="#6a5c82" opacity="1.00" d=" M 32.83 56.33 C 33.31 56.27 34.28 56.15 34.77 56.08 C 45.72 58.81 57.08 59.35 68.32 59.48 C 72.12 59.56 75.89 59.07 79.69 59.05 C 79.80 59.44 80.02 60.22 80.13 60.62 C 79.39 60.78 77.92 61.12 77.19 61.29 C 65.10 61.88 52.98 61.00 41.00 59.42 C 38.33 58.57 34.30 59.17 32.83 56.33 Z" />
</g>
<g id="#c5adf6ff">
<path fill="#c5adf6" opacity="1.00" d=" M 40.28 60.85 C 40.46 60.49 40.82 59.78 41.00 59.42 C 52.98 61.00 65.10 61.88 77.19 61.29 C 72.00 62.75 66.58 62.78 61.24 63.27 C 58.76 71.99 54.31 80.00 49.70 87.76 C 44.86 92.91 37.81 94.85 31.19 96.61 C 30.26 95.45 29.36 94.25 28.65 92.94 C 28.55 91.55 28.50 90.17 28.49 88.78 C 29.91 89.83 30.70 91.43 31.56 92.93 C 31.44 90.69 31.00 88.27 32.25 86.24 C 34.35 82.48 33.96 77.92 36.10 74.15 C 38.38 69.92 39.47 65.02 42.57 61.28 C 42.00 61.17 40.86 60.96 40.28 60.85 Z" />
</g>
<g id="#5a1884ff">
<path fill="#5a1884" opacity="1.00" d=" M 115.58 67.62 C 116.83 64.86 118.35 62.24 120.03 59.72 C 120.33 67.18 114.88 72.83 112.36 79.39 C 111.70 79.02 110.37 78.29 109.71 77.92 C 109.95 73.60 113.97 71.30 115.58 67.62 Z" />
</g>
<g id="#bca0e9ff">
<path fill="#bca0e9" opacity="1.00" d=" M 77.19 61.29 C 77.92 61.12 79.39 60.78 80.13 60.62 C 80.77 63.17 79.21 65.52 79.04 68.03 C 78.60 73.02 76.97 77.81 75.47 82.56 C 73.93 84.69 72.13 86.63 70.86 88.95 C 64.50 98.28 53.93 103.95 43.02 106.11 C 36.98 107.42 30.72 109.09 24.51 108.19 C 23.28 107.22 22.08 106.21 20.83 105.25 C 21.55 105.05 22.99 104.65 23.70 104.44 C 23.86 100.71 23.80 96.96 24.23 93.24 C 25.70 93.14 27.18 93.04 28.65 92.94 C 29.36 94.25 30.26 95.45 31.19 96.61 C 37.81 94.85 44.86 92.91 49.70 87.76 C 54.31 80.00 58.76 71.99 61.24 63.27 C 66.58 62.78 72.00 62.75 77.19 61.29 Z" />
</g>
<g id="#fbf3fbfe">
<path fill="#fbf3fb" opacity="1.00" d=" M 14.63 62.96 C 14.88 62.73 15.36 62.28 15.61 62.06 C 17.29 67.35 16.36 73.08 13.89 77.96 C 13.49 77.81 12.68 77.52 12.27 77.37 C 12.97 75.66 13.69 73.95 14.26 72.19 C 15.41 69.23 15.03 66.02 14.63 62.96 Z" />
</g>
<g id="#31303162">
<path fill="#313031" opacity="0.38" d=" M 14.35 63.23 L 14.63 62.96 C 15.03 66.02 15.41 69.23 14.26 72.19 C 14.74 69.19 14.48 66.19 14.35 63.23 Z" />
</g>
<g id="#986aaeff">
<path fill="#986aae" opacity="1.00" d=" M 99.92 73.04 C 101.00 69.95 103.34 67.23 106.55 66.30 C 105.03 68.51 103.05 70.40 101.69 72.71 C 100.65 76.33 101.60 80.19 100.81 83.86 C 99.68 88.99 101.12 94.59 98.40 99.35 C 95.93 105.00 90.51 108.24 85.86 111.90 C 80.00 115.61 73.00 117.91 66.01 117.46 C 62.85 117.27 59.47 117.75 56.60 116.11 C 61.44 115.36 66.42 116.33 71.20 115.11 C 75.21 114.14 79.41 113.32 82.77 110.77 C 87.08 107.49 91.79 104.40 94.51 99.56 C 97.17 95.95 96.60 91.30 97.19 87.11 C 97.86 82.39 98.30 77.56 99.92 73.04 Z" />
</g>
<g id="#f7f7f7fb">
<path fill="#f7f7f7" opacity="1.00" d=" M 11.26 79.28 C 13.37 81.10 11.79 83.95 11.19 86.10 C 9.25 90.92 7.58 96.01 4.31 100.13 C 4.11 98.69 3.94 97.25 3.78 95.81 C 5.79 90.08 8.37 84.60 11.26 79.28 Z" />
</g>
<g id="#bb9cceff">
<path fill="#bb9cce" opacity="1.00" d=" M 13.05 99.12 C 15.62 101.20 18.10 103.39 20.83 105.25 C 22.08 106.21 23.28 107.22 24.51 108.19 C 23.96 109.43 23.41 110.66 22.87 111.90 C 19.33 110.45 15.96 108.56 12.29 107.45 C 11.50 108.64 10.75 109.86 9.80 110.93 C 8.14 111.10 6.48 110.79 4.82 110.87 C 4.58 110.41 4.11 109.49 3.87 109.03 C 5.54 108.75 8.12 110.00 8.98 107.93 C 10.39 105.01 11.12 101.78 13.05 99.12 Z" />
</g>
<g id="#601d9dff">
<path fill="#601d9d" opacity="1.00" d=" M 124.14 101.72 C 126.72 105.29 126.91 110.12 124.81 113.95 C 121.04 120.94 112.40 123.14 105.02 123.49 C 99.35 124.29 93.61 124.13 87.93 124.73 C 89.50 122.03 93.28 123.26 95.85 122.33 C 102.87 120.48 110.64 120.98 116.97 117.01 C 119.43 115.56 121.25 113.28 123.32 111.35 C 124.31 108.59 123.84 105.61 123.89 102.74 L 124.14 101.72 Z" />
</g>
<g id="#641d84ff">
<path fill="#641d84" opacity="1.00" d=" M 104.60 117.35 C 111.73 113.51 119.00 109.41 123.89 102.74 C 123.84 105.61 124.31 108.59 123.32 111.35 C 121.25 113.28 119.43 115.56 116.97 117.01 C 110.64 120.98 102.87 120.48 95.85 122.33 C 97.79 119.34 101.64 118.88 104.60 117.35 Z" />
</g>
<g id="#7937a7ff">
<path fill="#7937a7" opacity="1.00" d=" M 31.52 124.02 C 32.95 123.41 34.42 122.83 36.02 122.93 C 42.01 122.90 48.00 122.85 54.00 122.93 C 55.66 122.85 57.28 123.25 58.50 124.45 C 49.51 123.87 40.48 125.05 31.52 124.02 Z" />
</g>
</svg>
