<?xml version="1.0" encoding="UTF-8" ?>
<!DOCTYPE svg PUBLIC "-//W3C//DTD SVG 1.1//EN" "http://www.w3.org/Graphics/SVG/1.1/DTD/svg11.dtd">
<svg width="138pt" height="116pt" viewBox="0 0 138 116" version="1.1" xmlns="http://www.w3.org/2000/svg">
<g id="#fff2c6ff">
<path fill="#fff2c6" opacity="1.00" d=" M 89.69 5.89 L 89.87 7.09 C 89.94 9.37 89.22 11.82 90.29 13.98 C 91.22 16.06 92.45 17.99 93.45 20.04 L 93.01 21.23 C 92.37 20.79 91.09 19.93 90.45 19.50 C 90.27 19.41 89.92 19.24 89.74 19.15 C 88.37 19.27 87.01 19.45 85.66 19.70 C 79.35 22.84 77.90 30.19 75.19 36.03 C 74.99 35.97 74.60 35.83 74.40 35.77 C 76.90 29.94 79.06 23.90 82.79 18.71 C 85.21 14.50 88.95 10.89 89.69 5.89 Z" />
</g>
<g id="#dec9abff">
<path fill="#dec9ab" opacity="1.00" d=" M 89.87 7.09 C 91.90 12.25 95.25 16.68 97.87 21.52 C 96.50 20.70 95.21 19.75 93.94 18.78 C 93.82 19.10 93.57 19.73 93.45 20.04 C 92.45 17.99 91.22 16.06 90.29 13.98 C 89.22 11.82 89.94 9.37 89.87 7.09 Z" />
<path fill="#dec9ab" opacity="1.00" d=" M 69.60 63.63 C 70.01 63.56 70.84 63.40 71.25 63.32 C 71.28 63.90 71.35 65.06 71.38 65.64 C 70.87 65.63 69.84 65.61 69.32 65.60 C 69.39 65.11 69.53 64.13 69.60 63.63 Z" />
<path fill="#dec9ab" opacity="1.00" d=" M 46.90 79.25 C 48.17 80.51 49.48 81.73 50.77 82.97 C 51.97 84.42 53.07 86.01 54.58 87.18 C 57.62 89.49 61.16 91.42 65.04 91.71 C 67.46 91.86 69.85 92.27 72.20 92.87 C 72.20 93.89 72.40 94.93 72.09 95.92 C 67.55 97.51 62.71 98.03 58.14 99.52 C 57.38 99.01 56.62 98.50 55.86 98.00 C 52.01 94.78 51.63 89.24 48.02 85.81 C 47.42 83.67 46.89 81.49 46.90 79.25 Z" />
</g>
<g id="#dc9c54ff">
<path fill="#dc9c54" opacity="1.00" d=" M 85.66 19.70 C 87.01 19.45 88.37 19.27 89.74 19.15 C 89.92 19.24 90.27 19.41 90.45 19.50 C 90.21 22.50 91.20 25.63 90.54 28.54 C 87.60 32.56 83.82 35.89 80.18 39.28 C 79.58 38.85 78.37 37.99 77.77 37.57 L 77.94 37.03 C 80.70 31.35 83.94 25.81 85.66 19.70 Z" />
</g>
<g id="#cb914eff">
<path fill="#cb914e" opacity="1.00" d=" M 93.94 18.78 C 95.21 19.75 96.50 20.70 97.87 21.52 L 98.16 21.71 C 96.06 26.37 100.01 32.08 96.23 36.27 C 92.48 39.68 87.22 40.55 82.64 42.39 C 82.39 42.01 81.90 41.25 81.66 40.87 C 81.19 40.32 80.70 39.79 80.18 39.28 C 83.82 35.89 87.60 32.56 90.54 28.54 C 91.20 25.63 90.21 22.50 90.45 19.50 C 91.09 19.93 92.37 20.79 93.01 21.23 L 93.45 20.04 C 93.57 19.73 93.82 19.10 93.94 18.78 Z" />
</g>
<g id="#eead5dff">
<path fill="#eead5d" opacity="1.00" d=" M 75.19 36.03 C 77.90 30.19 79.35 22.84 85.66 19.70 C 83.94 25.81 80.70 31.35 77.94 37.03 C 77.25 36.78 75.88 36.28 75.19 36.03 Z" />
</g>
<g id="#bb8347ff">
<path fill="#bb8347" opacity="1.00" d=" M 0.94 20.84 C 16.85 26.41 32.73 33.42 45.46 44.72 C 40.41 51.68 44.27 60.71 42.74 68.55 L 42.56 68.78 C 42.96 63.19 42.16 57.61 42.32 52.02 C 34.11 51.59 25.77 49.00 19.75 43.18 C 12.72 36.44 6.43 28.88 0.94 20.84 M 4.78 23.99 C 5.84 25.95 7.12 27.79 8.59 29.47 C 14.19 36.17 20.14 42.87 27.74 47.36 C 32.29 50.16 37.73 50.58 42.93 50.86 C 42.44 49.18 41.85 47.53 41.06 45.97 C 41.70 45.93 42.96 45.83 43.60 45.79 C 39.88 42.20 35.18 39.91 31.03 36.89 C 23.04 31.19 13.79 27.71 4.78 23.99 Z" />
<path fill="#bb8347" opacity="1.00" d=" M 98.16 21.71 C 101.38 26.24 104.29 31.11 106.05 36.41 C 115.74 34.19 125.37 31.60 135.18 29.98 C 134.70 30.70 134.22 31.42 133.73 32.14 C 132.10 32.35 130.49 32.57 128.88 32.86 C 118.61 35.24 108.05 36.86 98.35 41.16 C 94.17 42.97 89.97 44.74 85.86 46.72 C 84.70 45.34 83.59 43.92 82.64 42.39 C 87.22 40.55 92.48 39.68 96.23 36.27 C 100.01 32.08 96.06 26.37 98.16 21.71 Z" />
</g>
<g id="#5d3106ff">
<path fill="#5d3106" opacity="1.00" d=" M 4.78 23.99 C 13.79 27.71 23.04 31.19 31.03 36.89 C 35.18 39.91 39.88 42.20 43.60 45.79 C 42.96 45.83 41.70 45.93 41.06 45.97 C 41.85 47.53 42.44 49.18 42.93 50.86 C 37.73 50.58 32.29 50.16 27.74 47.36 C 20.14 42.87 14.19 36.17 8.59 29.47 C 7.12 27.79 5.84 25.95 4.78 23.99 Z" />
</g>
<g id="#8b5d2eff">
<path fill="#8b5d2e" opacity="1.00" d=" M 128.88 32.86 C 130.49 32.57 132.10 32.35 133.73 32.14 C 126.08 40.42 117.96 48.76 107.80 53.93 C 106.28 54.84 106.00 56.83 105.06 58.21 C 104.05 57.52 103.38 56.03 102.03 56.03 C 97.61 55.91 93.13 56.50 88.79 55.34 C 92.92 55.10 97.15 55.39 101.18 54.23 C 112.83 50.54 122.70 42.39 130.31 32.99 L 128.88 32.86 Z" />
<path fill="#8b5d2e" opacity="1.00" d=" M 80.98 48.41 C 81.35 48.35 82.09 48.24 82.46 48.19 C 82.99 48.44 84.04 48.94 84.57 49.19 C 84.43 50.77 84.32 52.36 84.20 53.95 C 84.59 53.99 85.37 54.05 85.77 54.09 C 86.20 54.33 87.06 54.82 87.49 55.06 C 87.45 56.25 87.41 57.43 87.42 58.62 L 87.45 59.21 C 86.97 62.68 90.49 64.55 92.95 66.16 C 94.06 67.01 95.45 66.58 96.71 66.51 C 96.79 66.65 96.97 66.92 97.05 67.06 C 99.61 71.56 99.32 76.98 99.28 81.98 C 98.98 86.93 100.40 92.00 98.70 96.82 C 96.76 89.50 98.12 81.84 97.65 74.36 C 96.86 74.41 96.08 74.45 95.29 74.49 C 93.28 71.12 90.08 68.78 87.24 66.16 C 86.69 68.75 86.24 71.45 84.81 73.74 C 83.01 76.80 80.14 79.54 80.49 83.40 C 76.98 81.42 73.36 83.98 69.83 84.55 C 73.19 81.72 77.14 79.03 78.50 74.61 C 82.28 66.35 80.21 57.14 80.98 48.41 Z" />
</g>
<g id="#482304ff">
<path fill="#482304" opacity="1.00" d=" M 98.35 41.16 C 108.05 36.86 118.61 35.24 128.88 32.86 L 130.31 32.99 C 122.70 42.39 112.83 50.54 101.18 54.23 C 96.04 54.41 90.90 54.07 85.77 54.09 C 85.37 54.05 84.59 53.99 84.20 53.95 C 84.32 52.36 84.43 50.77 84.57 49.19 C 84.04 48.94 82.99 48.44 82.46 48.19 C 83.60 47.73 84.74 47.24 85.86 46.72 C 89.97 44.74 94.17 42.97 98.35 41.16 M 113.21 40.30 C 104.43 42.95 96.39 47.45 88.15 51.38 C 96.92 54.47 106.88 51.73 113.85 45.88 C 118.21 42.77 122.31 39.29 125.78 35.19 C 121.23 36.00 117.58 39.00 113.21 40.30 Z" />
</g>
<g id="#d39550ff">
<path fill="#d39550" opacity="1.00" d=" M 61.02 34.87 C 65.45 33.55 70.11 34.25 74.40 35.77 C 74.60 35.83 74.99 35.97 75.19 36.03 C 75.88 36.28 77.25 36.78 77.94 37.03 L 77.77 37.57 C 77.43 39.64 77.81 41.90 76.86 43.83 C 74.89 45.93 72.42 43.64 70.56 42.64 C 66.68 42.64 62.96 41.39 59.10 41.21 C 60.62 45.71 63.34 49.62 65.68 53.70 C 64.60 57.26 62.59 60.42 59.53 62.58 C 55.61 65.46 54.10 70.30 50.86 73.74 C 50.92 72.06 51.00 70.38 51.07 68.70 C 51.32 66.69 51.40 64.64 51.97 62.68 C 53.08 60.17 55.20 58.03 55.35 55.15 C 55.64 50.91 55.60 46.07 52.53 42.78 C 54.48 41.88 55.26 40.04 55.30 37.96 C 60.35 39.80 65.71 39.55 70.89 38.44 C 70.37 37.31 69.85 36.19 69.33 35.06 C 66.56 34.88 63.79 34.75 61.02 34.87 Z" />
</g>
<g id="#fdbb62ff">
<path fill="#fdbb62" opacity="1.00" d=" M 54.57 36.88 C 56.64 35.98 58.76 35.15 61.02 34.87 C 63.79 34.75 66.56 34.88 69.33 35.06 C 69.85 36.19 70.37 37.31 70.89 38.44 C 65.71 39.55 60.35 39.80 55.30 37.96 L 54.57 36.88 Z" />
</g>
<g id="#562d05ff">
<path fill="#562d05" opacity="1.00" d=" M 113.21 40.30 C 117.58 39.00 121.23 36.00 125.78 35.19 C 122.31 39.29 118.21 42.77 113.85 45.88 C 106.88 51.73 96.92 54.47 88.15 51.38 C 96.39 47.45 104.43 42.95 113.21 40.30 Z" />
</g>
<g id="#e09f55ff">
<path fill="#e09f55" opacity="1.00" d=" M 47.49 38.70 C 50.15 39.90 52.41 38.18 54.57 36.88 L 55.30 37.96 C 55.26 40.04 54.48 41.88 52.53 42.78 C 55.60 46.07 55.64 50.91 55.35 55.15 C 55.20 58.03 53.08 60.17 51.97 62.68 C 51.40 64.64 51.32 66.69 51.07 68.70 C 50.97 68.21 50.75 67.24 50.64 66.75 C 50.08 63.79 49.10 60.74 46.43 59.01 C 47.59 57.67 47.77 55.85 48.25 54.22 C 48.83 51.67 50.20 49.42 51.05 46.98 C 51.08 44.65 49.55 42.65 48.57 40.62 C 48.30 40.14 47.76 39.18 47.49 38.70 Z" />
</g>
<g id="#c0884aff">
<path fill="#c0884a" opacity="1.00" d=" M 76.86 43.83 C 77.81 41.90 77.43 39.64 77.77 37.57 C 78.37 37.99 79.58 38.85 80.18 39.28 C 80.70 39.79 81.19 40.32 81.66 40.87 C 79.75 44.16 77.41 47.21 75.91 50.71 C 74.90 54.21 74.90 57.98 73.27 61.30 C 71.69 61.43 69.55 60.82 68.58 62.52 C 66.19 65.72 66.03 70.05 67.09 73.78 C 66.39 74.53 65.70 75.28 65.01 76.04 C 65.14 77.47 65.30 78.90 65.35 80.34 C 60.78 80.91 56.22 80.07 51.65 80.21 C 54.27 81.94 57.40 82.34 60.46 82.34 C 58.22 82.72 56.01 83.29 53.77 83.72 C 52.77 83.48 51.76 83.23 50.77 82.97 C 49.48 81.73 48.17 80.51 46.90 79.25 C 46.41 78.71 45.98 78.13 45.53 77.56 C 46.02 76.47 46.50 75.37 46.98 74.27 C 48.28 74.10 49.57 73.94 50.86 73.74 C 54.10 70.30 55.61 65.46 59.53 62.58 C 62.59 60.42 64.60 57.26 65.68 53.70 C 63.34 49.62 60.62 45.71 59.10 41.21 C 62.96 41.39 66.68 42.64 70.56 42.64 C 72.42 43.64 74.89 45.93 76.86 43.83 M 56.35 76.43 C 55.20 77.91 57.80 79.57 58.80 78.09 C 59.86 76.63 57.36 75.11 56.35 76.43 Z" />
</g>
<g id="#f7b563ff">
<path fill="#f7b563" opacity="1.00" d=" M 48.57 40.62 C 49.55 42.65 51.08 44.65 51.05 46.98 C 50.20 49.42 48.83 51.67 48.25 54.22 C 47.77 55.85 47.59 57.67 46.43 59.01 C 43.09 61.98 44.25 66.75 44.92 70.57 C 45.55 71.83 46.28 73.05 46.98 74.27 C 46.50 75.37 46.02 76.47 45.53 77.56 C 44.34 74.77 43.28 71.91 42.88 68.88 L 43.29 69.74 C 44.00 65.51 43.67 61.20 44.02 56.94 C 44.42 52.92 47.51 49.86 48.50 46.03 C 48.23 44.77 47.74 43.58 47.35 42.35 C 47.66 41.92 48.27 41.06 48.57 40.62 Z" />
</g>
<g id="#a16f3aff">
<path fill="#a16f3a" opacity="1.00" d=" M 75.91 50.71 C 77.41 47.21 79.75 44.16 81.66 40.87 C 81.90 41.25 82.39 42.01 82.64 42.39 C 83.59 43.92 84.70 45.34 85.86 46.72 C 84.74 47.24 83.60 47.73 82.46 48.19 C 82.09 48.24 81.35 48.35 80.98 48.41 C 80.21 57.14 82.28 66.35 78.50 74.61 C 77.14 79.03 73.19 81.72 69.83 84.55 C 66.53 85.32 63.12 85.51 59.74 85.43 C 57.73 84.93 55.77 84.26 53.77 83.72 C 56.01 83.29 58.22 82.72 60.46 82.34 C 61.91 82.19 63.36 82.04 64.80 81.83 C 64.94 81.46 65.21 80.71 65.35 80.34 C 65.30 78.90 65.14 77.47 65.01 76.04 C 65.70 75.28 66.39 74.53 67.09 73.78 C 68.68 75.13 70.68 76.39 72.86 75.61 C 76.05 74.74 76.99 70.94 76.63 68.03 C 76.66 65.35 74.67 63.37 73.27 61.30 C 74.90 57.98 74.90 54.21 75.91 50.71 Z" />
</g>
<g id="#fee476ff">
<path fill="#fee476" opacity="1.00" d=" M 45.46 44.72 C 45.93 44.13 46.88 42.94 47.35 42.35 C 47.74 43.58 48.23 44.77 48.50 46.03 C 47.51 49.86 44.42 52.92 44.02 56.94 C 43.67 61.20 44.00 65.51 43.29 69.74 L 42.88 68.88 L 42.74 68.55 C 44.27 60.71 40.41 51.68 45.46 44.72 Z" />
</g>
<g id="#774923ff">
<path fill="#774923" opacity="1.00" d=" M 85.77 54.09 C 90.90 54.07 96.04 54.41 101.18 54.23 C 97.15 55.39 92.92 55.10 88.79 55.34 C 93.13 56.50 97.61 55.91 102.03 56.03 C 103.38 56.03 104.05 57.52 105.06 58.21 C 103.83 59.82 102.70 61.51 101.78 63.31 C 100.98 62.14 100.80 60.18 99.19 59.82 C 95.37 58.77 91.35 58.85 87.42 58.62 C 87.41 57.43 87.45 56.25 87.49 55.06 C 87.06 54.82 86.20 54.33 85.77 54.09 Z" />
</g>
<g id="#633819ff">
<path fill="#633819" opacity="1.00" d=" M 87.42 58.62 C 91.35 58.85 95.37 58.77 99.19 59.82 C 100.80 60.18 100.98 62.14 101.78 63.31 C 100.62 65.04 98.89 66.16 97.05 67.06 C 96.97 66.92 96.79 66.65 96.71 66.51 C 94.62 62.98 91.07 60.86 87.45 59.21 L 87.42 58.62 Z" />
</g>
<g id="#2a1503ff">
<path fill="#2a1503" opacity="1.00" d=" M 44.92 70.57 C 44.25 66.75 43.09 61.98 46.43 59.01 C 49.10 60.74 50.08 63.79 50.64 66.75 C 50.47 67.58 50.14 69.24 49.98 70.07 C 49.44 69.50 48.91 68.93 48.38 68.36 C 47.98 69.36 47.58 70.36 47.17 71.36 C 47.02 69.89 46.86 68.43 46.70 66.96 C 46.11 68.17 45.51 69.37 44.92 70.57 M 47.15 62.31 C 45.71 65.43 50.41 62.62 47.15 62.31 Z" />
</g>
<g id="#ae743dff">
<path fill="#ae743d" opacity="1.00" d=" M 92.95 66.16 C 90.49 64.55 86.97 62.68 87.45 59.21 C 91.07 60.86 94.62 62.98 96.71 66.51 C 95.45 66.58 94.06 67.01 92.95 66.16 Z" />
</g>
<g id="#0e0701ff">
<path fill="#0e0701" opacity="1.00" d=" M 68.58 62.52 C 69.55 60.82 71.69 61.43 73.27 61.30 C 74.67 63.37 76.66 65.35 76.63 68.03 C 76.99 70.94 76.05 74.74 72.86 75.61 C 70.68 76.39 68.68 75.13 67.09 73.78 C 66.03 70.05 66.19 65.72 68.58 62.52 M 69.60 63.63 C 69.53 64.13 69.39 65.11 69.32 65.60 C 69.84 65.61 70.87 65.63 71.38 65.64 C 71.35 65.06 71.28 63.90 71.25 63.32 C 70.84 63.40 70.01 63.56 69.60 63.63 Z" />
<path fill="#0e0701" opacity="1.00" d=" M 56.35 76.43 C 57.36 75.11 59.86 76.63 58.80 78.09 C 57.80 79.57 55.20 77.91 56.35 76.43 Z" />
</g>
<g id="#f2f2f2ff">
<path fill="#f2f2f2" opacity="1.00" d=" M 47.15 62.31 C 50.41 62.62 45.71 65.43 47.15 62.31 Z" />
</g>
<g id="#a08261ff">
<path fill="#a08261" opacity="1.00" d=" M 87.24 66.16 C 90.08 68.78 93.28 71.12 95.29 74.49 C 93.83 75.96 92.49 77.53 91.25 79.18 C 92.38 79.35 93.50 79.52 94.63 79.69 C 94.25 78.64 93.87 77.59 93.50 76.54 C 94.22 76.51 95.65 76.47 96.37 76.44 C 96.81 82.83 95.52 90.35 89.04 93.29 C 88.66 92.16 88.28 91.03 87.91 89.91 C 86.94 90.48 85.98 91.06 85.01 91.64 C 84.72 90.73 84.44 89.81 84.15 88.90 C 85.86 88.72 87.60 88.63 89.26 88.14 C 90.63 86.37 91.54 84.30 92.60 82.34 C 90.46 80.66 88.38 78.92 86.37 77.11 C 83.89 79.24 84.28 82.79 83.11 85.60 C 82.83 86.00 82.27 86.79 81.99 87.19 C 78.94 86.18 75.78 84.96 72.51 85.57 C 68.28 86.29 63.91 86.75 59.74 85.43 C 63.12 85.51 66.53 85.32 69.83 84.55 C 73.36 83.98 76.98 81.42 80.49 83.40 C 80.14 79.54 83.01 76.80 84.81 73.74 C 86.24 71.45 86.69 68.75 87.24 66.16 Z" />
</g>
<g id="#43280cff">
<path fill="#43280c" opacity="1.00" d=" M 44.92 70.57 C 45.51 69.37 46.11 68.17 46.70 66.96 C 46.86 68.43 47.02 69.89 47.17 71.36 C 47.58 70.36 47.98 69.36 48.38 68.36 C 48.91 68.93 49.44 69.50 49.98 70.07 C 50.14 69.24 50.47 67.58 50.64 66.75 C 50.75 67.24 50.97 68.21 51.07 68.70 C 51.00 70.38 50.92 72.06 50.86 73.74 C 49.57 73.94 48.28 74.10 46.98 74.27 C 46.28 73.05 45.55 71.83 44.92 70.57 Z" />
</g>
<g id="#7f4f27fe">
<path fill="#7f4f27" opacity="1.00" d=" M 95.29 74.49 C 96.08 74.45 96.86 74.41 97.65 74.36 C 98.12 81.84 96.76 89.50 98.70 96.82 C 98.95 98.29 98.40 99.74 98.11 101.16 C 98.04 100.40 97.89 98.86 97.82 98.10 C 97.38 98.58 96.95 99.05 96.51 99.53 C 95.93 98.44 95.40 97.31 94.69 96.29 C 93.05 95.75 91.32 95.65 89.62 95.44 C 89.06 96.50 88.51 97.56 87.96 98.62 C 85.99 97.77 83.97 97.05 81.92 96.41 C 82.81 93.12 86.37 93.59 89.04 93.29 C 95.52 90.35 96.81 82.83 96.37 76.44 C 95.65 76.47 94.22 76.51 93.50 76.54 C 93.87 77.59 94.25 78.64 94.63 79.69 C 93.50 79.52 92.38 79.35 91.25 79.18 C 92.49 77.53 93.83 75.96 95.29 74.49 Z" />
</g>
<g id="#ab9176ff">
<path fill="#ab9176" opacity="1.00" d=" M 83.11 85.60 C 84.28 82.79 83.89 79.24 86.37 77.11 C 88.38 78.92 90.46 80.66 92.60 82.34 C 91.54 84.30 90.63 86.37 89.26 88.14 C 87.60 88.63 85.86 88.72 84.15 88.90 C 83.81 87.80 83.46 86.70 83.11 85.60 Z" />
</g>
<g id="#7c5226ff">
<path fill="#7c5226" opacity="1.00" d=" M 51.65 80.21 C 56.22 80.07 60.78 80.91 65.35 80.34 C 65.21 80.71 64.94 81.46 64.80 81.83 C 63.36 82.04 61.91 82.19 60.46 82.34 C 57.40 82.34 54.27 81.94 51.65 80.21 Z" />
</g>
<g id="#b4997aff">
<path fill="#b4997a" opacity="1.00" d=" M 50.77 82.97 C 51.76 83.23 52.77 83.48 53.77 83.72 C 55.77 84.26 57.73 84.93 59.74 85.43 C 63.91 86.75 68.28 86.29 72.51 85.57 C 75.78 84.96 78.94 86.18 81.99 87.19 C 84.03 92.34 80.42 97.00 76.39 99.87 C 75.71 98.93 75.02 98.00 74.34 97.07 C 73.45 102.28 67.74 103.17 63.45 104.05 C 63.13 103.93 62.49 103.69 62.17 103.57 C 61.44 102.87 60.74 102.14 60.04 101.42 C 64.28 101.20 68.41 100.12 72.34 98.52 C 72.78 97.57 73.23 96.62 73.68 95.68 C 74.68 95.64 75.69 95.60 76.70 95.57 C 77.48 94.39 78.26 93.22 79.03 92.04 C 77.89 91.29 76.82 90.26 75.36 90.27 C 68.38 89.66 61.47 88.41 54.58 87.18 C 53.07 86.01 51.97 84.42 50.77 82.97 Z" />
</g>
<g id="#907754ff">
<path fill="#907754" opacity="1.00" d=" M 81.99 87.19 C 82.27 86.79 82.83 86.00 83.11 85.60 C 83.46 86.70 83.81 87.80 84.15 88.90 C 84.44 89.81 84.72 90.73 85.01 91.64 C 85.98 91.06 86.94 90.48 87.91 89.91 C 88.28 91.03 88.66 92.16 89.04 93.29 C 86.37 93.59 82.81 93.12 81.92 96.41 C 81.63 97.00 81.04 98.16 80.75 98.74 C 79.27 100.89 77.04 102.37 74.54 103.06 C 70.98 104.21 67.11 105.87 63.45 104.05 C 67.74 103.17 73.45 102.28 74.34 97.07 C 75.02 98.00 75.71 98.93 76.39 99.87 C 80.42 97.00 84.03 92.34 81.99 87.19 Z" />
</g>
<g id="#c6b194ff">
<path fill="#c6b194" opacity="1.00" d=" M 54.58 87.18 C 61.47 88.41 68.38 89.66 75.36 90.27 C 76.82 90.26 77.89 91.29 79.03 92.04 C 78.26 93.22 77.48 94.39 76.70 95.57 C 75.69 95.60 74.68 95.64 73.68 95.68 C 73.23 96.62 72.78 97.57 72.34 98.52 C 68.41 100.12 64.28 101.20 60.04 101.42 C 59.56 100.95 58.61 100.00 58.14 99.52 C 62.71 98.03 67.55 97.51 72.09 95.92 C 72.40 94.93 72.20 93.89 72.20 92.87 C 69.85 92.27 67.46 91.86 65.04 91.71 C 61.16 91.42 57.62 89.49 54.58 87.18 Z" />
</g>
<g id="#926030ff">
<path fill="#926030" opacity="1.00" d=" M 89.62 95.44 C 91.32 95.65 93.05 95.75 94.69 96.29 C 95.40 97.31 95.93 98.44 96.51 99.53 C 96.95 99.05 97.38 98.58 97.82 98.10 C 97.89 98.86 98.04 100.40 98.11 101.16 C 98.05 103.42 97.64 105.69 96.83 107.80 C 93.34 109.90 88.94 109.02 85.17 108.20 C 84.41 109.87 84.75 112.89 82.45 113.22 C 78.96 113.67 75.39 113.50 71.95 112.79 C 72.84 110.82 73.75 108.85 74.67 106.89 C 74.93 108.91 74.91 110.98 75.45 112.95 C 77.26 111.46 76.94 108.39 78.80 106.75 C 79.13 108.91 79.39 111.09 79.67 113.26 C 82.60 108.74 83.98 103.46 84.89 98.20 C 83.51 98.38 82.13 98.56 80.75 98.74 C 81.04 98.16 81.63 97.00 81.92 96.41 C 83.97 97.05 85.99 97.77 87.96 98.62 C 88.51 97.56 89.06 96.50 89.62 95.44 Z" />
</g>
<g id="#c18c4ff9">
<path fill="#c18c4f" opacity="0.98" d=" M 55.86 98.00 C 56.62 98.50 57.38 99.01 58.14 99.52 C 58.61 100.00 59.56 100.95 60.04 101.42 C 60.74 102.14 61.44 102.87 62.17 103.57 C 61.20 105.70 60.33 107.88 59.54 110.08 C 59.16 108.31 58.76 106.54 58.30 104.78 C 57.70 106.54 57.24 108.33 56.83 110.14 L 56.10 111.06 C 54.87 107.21 57.17 103.93 58.15 100.41 C 57.36 99.62 56.60 98.82 55.86 98.00 Z" />
</g>
<g id="#af773fff">
<path fill="#af773f" opacity="1.00" d=" M 80.75 98.74 C 82.13 98.56 83.51 98.38 84.89 98.20 C 83.98 103.46 82.60 108.74 79.67 113.26 C 79.39 111.09 79.13 108.91 78.80 106.75 C 76.94 108.39 77.26 111.46 75.45 112.95 C 74.91 110.98 74.93 108.91 74.67 106.89 C 73.75 108.85 72.84 110.82 71.95 112.79 C 71.95 111.05 71.96 109.32 71.97 107.59 C 70.79 107.66 69.60 107.74 68.42 107.83 C 71.45 107.76 73.37 105.66 74.54 103.06 C 77.04 102.37 79.27 100.89 80.75 98.74 Z" />
</g>
<g id="#8a5b32ff">
<path fill="#8a5b32" opacity="1.00" d=" M 63.45 104.05 C 67.11 105.87 70.98 104.21 74.54 103.06 C 73.37 105.66 71.45 107.76 68.42 107.83 C 68.12 109.12 67.86 111.11 66.07 111.05 C 62.96 111.40 59.82 111.13 56.70 111.12 L 56.83 110.14 C 57.24 108.33 57.70 106.54 58.30 104.78 C 58.76 106.54 59.16 108.31 59.54 110.08 C 60.33 107.88 61.20 105.70 62.17 103.57 C 62.49 103.69 63.13 103.93 63.45 104.05 Z" />
</g>
</svg>
