<?xml version="1.0" encoding="UTF-8" ?>
<!DOCTYPE svg PUBLIC "-//W3C//DTD SVG 1.1//EN" "http://www.w3.org/Graphics/SVG/1.1/DTD/svg11.dtd">
<svg width="192pt" height="145pt" viewBox="0 0 192 145" version="1.1" xmlns="http://www.w3.org/2000/svg">
<g id="#97b9a0ff">
<path fill="#97b9a0" opacity="1.00" d=" M 58.90 4.73 C 59.07 3.67 59.28 2.61 59.54 1.57 C 59.97 7.85 59.75 14.39 62.18 20.32 C 61.46 23.35 60.30 26.31 58.20 28.68 C 58.13 23.07 59.07 17.49 58.64 11.88 C 58.49 9.49 58.61 7.10 58.90 4.73 Z" />
<path fill="#97b9a0" opacity="1.00" d=" M 78.76 65.86 C 81.32 65.18 83.89 64.52 86.52 64.14 C 88.80 65.37 91.05 66.80 93.61 67.36 C 95.89 67.52 98.07 66.56 100.18 65.83 C 100.05 66.18 99.79 66.89 99.66 67.24 C 99.13 68.67 98.66 70.13 98.35 71.63 L 96.84 71.49 C 95.91 71.23 94.99 70.94 94.08 70.63 C 92.97 70.25 91.85 69.88 90.74 69.52 C 88.73 68.95 86.71 68.49 84.67 68.05 C 82.83 67.67 80.98 67.30 79.15 66.84 L 78.76 65.86 Z" />
</g>
<g id="#0b0b0eff">
<path fill="#0b0b0e" opacity="1.00" d=" M 57.46 11.59 C 57.81 9.28 58.34 7.00 58.90 4.73 C 58.61 7.10 58.49 9.49 58.64 11.88 C 59.07 17.49 58.13 23.07 58.20 28.68 C 58.07 33.94 58.34 39.20 58.31 44.46 L 59.09 43.80 C 58.92 44.07 58.56 44.62 58.38 44.89 C 58.27 46.28 58.18 47.66 58.10 49.05 C 57.06 41.70 57.87 34.27 57.58 26.88 C 56.92 21.79 59.98 16.34 57.46 11.59 Z" />
<path fill="#0b0b0e" opacity="1.00" d=" M 9.45 35.07 C 20.18 40.23 29.86 47.41 38.94 55.05 C 39.80 55.41 40.67 55.74 41.55 56.04 C 41.46 56.77 41.36 57.51 41.28 58.25 C 33.65 50.76 24.73 44.74 15.73 39.04 C 13.65 37.70 11.55 36.38 9.45 35.07 Z" />
<path fill="#0b0b0e" opacity="1.00" d=" M 111.89 46.58 C 111.85 44.85 112.61 43.23 113.67 41.90 C 114.45 43.31 113.98 46.94 111.89 46.58 Z" />
<path fill="#0b0b0e" opacity="1.00" d=" M 41.86 62.98 L 43.04 63.73 C 43.71 64.19 44.36 64.68 44.96 65.23 C 44.21 67.34 44.31 69.57 44.62 71.76 C 45.27 70.50 45.92 69.25 46.57 68.00 C 46.67 68.31 46.85 68.94 46.95 69.26 C 47.14 70.26 47.51 72.26 47.70 73.26 C 46.75 73.28 44.85 73.32 43.89 73.35 C 43.59 72.81 42.99 71.75 42.69 71.22 C 42.25 68.49 42.13 65.73 41.86 62.98 Z" />
<path fill="#0b0b0e" opacity="1.00" d=" M 60.19 73.33 C 61.40 70.03 63.05 66.53 66.57 65.19 L 67.76 64.76 C 69.69 64.49 71.63 64.31 73.57 64.14 C 73.51 65.95 73.41 67.75 73.26 69.55 C 72.37 70.92 71.37 72.21 70.29 73.43 C 67.83 74.02 65.30 74.38 62.77 74.10 C 61.91 73.84 61.05 73.58 60.19 73.33 M 65.14 66.83 C 63.73 67.72 62.79 69.60 63.72 71.19 C 66.65 73.21 68.25 66.77 65.14 66.83 Z" />
<path fill="#0b0b0e" opacity="1.00" d=" M 51.43 77.24 C 51.61 76.59 51.96 75.29 52.14 74.65 C 52.61 74.81 53.54 75.14 54.01 75.31 L 54.20 76.11 C 53.68 77.19 52.76 77.57 51.43 77.24 Z" />
<path fill="#0b0b0e" opacity="1.00" d=" M 172.86 109.12 C 175.98 109.13 179.10 109.39 182.15 110.03 C 179.06 109.70 175.96 109.37 172.86 109.12 Z" />
<path fill="#0b0b0e" opacity="1.00" d=" M 55.41 139.32 C 55.07 137.55 55.01 135.74 55.66 134.04 C 55.10 135.66 55.35 137.65 56.72 138.77 C 57.30 137.44 57.50 135.99 57.84 134.59 C 57.82 135.36 57.79 136.89 57.77 137.66 C 57.71 138.00 57.60 138.69 57.55 139.04 C 58.56 139.08 60.59 139.18 61.61 139.22 C 61.60 138.32 61.59 136.51 61.59 135.60 C 61.86 136.72 62.14 137.84 62.43 138.95 L 63.98 138.45 C 64.56 139.56 64.97 140.75 65.41 141.93 L 65.75 141.98 C 68.92 142.28 72.11 142.34 75.29 142.32 C 71.86 142.71 68.41 142.53 65.00 142.14 C 64.69 141.65 64.08 140.68 63.78 140.20 C 61.25 138.64 58.15 140.24 55.41 139.32 Z" />
</g>
<g id="#2588adfc">
<path fill="#2588ad" opacity="1.00" d=" M 57.46 11.59 C 59.98 16.34 56.92 21.79 57.58 26.88 C 56.48 28.00 55.39 29.12 54.33 30.28 C 55.05 24.00 56.27 17.79 57.46 11.59 Z" />
</g>
<g id="#6d9e8cff">
<path fill="#6d9e8c" opacity="1.00" d=" M 62.18 20.32 C 62.22 25.54 62.01 30.80 62.82 35.98 C 65.00 35.36 67.14 34.59 69.08 33.40 C 67.22 34.72 65.10 35.57 63.00 36.41 C 63.33 37.99 63.67 39.56 63.99 41.14 C 62.09 41.45 60.48 42.52 59.09 43.80 L 58.31 44.46 C 58.34 39.20 58.07 33.94 58.20 28.68 C 60.30 26.31 61.46 23.35 62.18 20.32 M 61.37 26.34 C 60.69 28.25 60.03 30.76 61.13 32.61 C 62.61 31.54 62.32 27.61 61.37 26.34 Z" />
</g>
<g id="#8bbea9ff">
<path fill="#8bbea9" opacity="1.00" d=" M 61.37 26.34 C 62.32 27.61 62.61 31.54 61.13 32.61 C 60.03 30.76 60.69 28.25 61.37 26.34 Z" />
</g>
<g id="#217999ff">
<path fill="#217999" opacity="1.00" d=" M 54.33 30.28 C 55.39 29.12 56.48 28.00 57.58 26.88 C 57.87 34.27 57.06 41.70 58.10 49.05 C 58.18 47.66 58.27 46.28 58.38 44.89 C 58.56 44.62 58.92 44.07 59.09 43.80 C 60.48 42.52 62.09 41.45 63.99 41.14 C 65.60 41.39 67.20 41.71 68.80 41.99 C 68.92 41.40 69.16 40.22 69.28 39.63 C 69.36 40.69 69.45 41.74 69.55 42.80 C 72.79 44.35 75.87 46.20 78.85 48.20 C 79.79 46.75 80.73 45.31 81.70 43.87 C 83.05 41.90 84.47 39.98 85.91 38.08 C 83.96 41.68 81.89 45.23 79.88 48.80 L 81.50 48.27 C 81.39 49.41 81.27 50.56 81.16 51.70 C 81.93 51.83 83.47 52.08 84.24 52.21 C 81.75 53.64 79.35 56.40 76.19 55.57 C 72.41 54.34 69.32 50.80 65.04 51.56 C 64.70 51.52 64.00 51.44 63.65 51.40 C 62.10 53.00 60.60 54.66 59.16 56.37 C 57.36 58.54 55.39 60.55 53.32 62.46 C 50.93 58.96 49.31 55.01 48.44 50.87 C 47.37 51.25 46.30 51.64 45.22 52.02 C 46.66 48.54 50.51 46.90 52.50 43.76 C 53.11 40.74 53.36 37.67 53.60 34.60 C 53.77 33.16 53.83 31.66 54.33 30.28 M 50.92 52.71 C 51.25 55.31 52.12 57.78 53.31 60.10 C 55.57 58.39 57.31 56.13 58.80 53.74 C 56.41 52.21 53.61 51.98 50.92 52.71 Z" />
</g>
<g id="#2891b5ff">
<path fill="#2891b5" opacity="1.00" d=" M 3.11 31.02 C 14.68 34.50 25.95 38.91 36.84 44.12 C 37.46 44.41 38.70 44.99 39.32 45.28 C 39.79 48.53 40.03 51.88 38.94 55.05 C 29.86 47.41 20.18 40.23 9.45 35.07 C 7.85 34.30 6.24 33.53 4.63 32.78 L 4.20 32.58 C 3.93 32.19 3.38 31.41 3.11 31.02 Z" />
</g>
<g id="#c5ffffff">
<path fill="#c5ffff" opacity="1.00" d=" M 69.08 33.40 C 69.85 32.83 70.62 32.28 71.39 31.74 C 75.18 36.47 81.75 38.28 87.33 35.74 C 88.46 38.88 89.96 41.89 92.18 44.42 C 88.67 45.85 85.09 47.09 81.50 48.27 L 79.88 48.80 C 81.89 45.23 83.96 41.68 85.91 38.08 C 84.47 39.98 83.05 41.90 81.70 43.87 C 78.32 43.58 73.96 44.52 71.72 41.27 C 70.86 39.28 70.75 37.06 70.34 34.95 C 69.97 36.51 69.58 38.06 69.28 39.63 C 69.16 40.22 68.92 41.40 68.80 41.99 C 67.20 41.71 65.60 41.39 63.99 41.14 C 63.67 39.56 63.33 37.99 63.00 36.41 C 65.10 35.57 67.22 34.72 69.08 33.40 Z" />
</g>
<g id="#cbe2bfff">
<path fill="#cbe2bf" opacity="1.00" d=" M 4.63 32.78 C 6.24 33.53 7.85 34.30 9.45 35.07 C 11.55 36.38 13.65 37.70 15.73 39.04 C 16.00 41.63 15.47 44.73 17.07 46.92 C 22.16 49.25 27.59 50.91 32.30 54.02 L 32.50 55.68 C 26.71 53.83 21.61 49.43 15.30 49.60 C 13.81 48.43 12.43 47.13 11.07 45.82 C 9.98 41.03 7.80 36.53 4.63 32.78 Z" />
</g>
<g id="#c6ffffff">
<path fill="#c6ffff" opacity="1.00" d=" M 47.05 42.18 C 49.78 40.17 51.67 37.33 53.60 34.60 C 53.36 37.67 53.11 40.74 52.50 43.76 C 49.99 44.88 47.86 46.79 45.28 47.72 C 43.19 47.20 41.27 46.17 39.32 45.28 C 38.70 44.99 37.46 44.41 36.84 44.12 C 40.27 43.76 44.04 44.21 47.05 42.18 Z" />
</g>
<g id="#9ee5e9ff">
<path fill="#9ee5e9" opacity="1.00" d=" M 70.34 34.95 C 70.75 37.06 70.86 39.28 71.72 41.27 C 73.96 44.52 78.32 43.58 81.70 43.87 C 80.73 45.31 79.79 46.75 78.85 48.20 C 75.87 46.20 72.79 44.35 69.55 42.80 C 69.45 41.74 69.36 40.69 69.28 39.63 C 69.58 38.06 69.97 36.51 70.34 34.95 Z" />
</g>
<g id="#10232ba1">
<path fill="#10232b" opacity="0.63" d=" M 116.20 36.99 C 115.51 34.55 119.52 36.53 117.00 37.25 L 116.20 36.99 Z" />
</g>
<g id="#23586cf9">
<path fill="#23586c" opacity="0.98" d=" M 104.94 40.01 C 108.45 38.65 112.07 37.34 115.87 37.13 C 114.09 38.22 112.36 39.38 110.53 40.40 C 98.96 46.00 87.42 51.92 77.13 59.69 C 77.01 59.70 76.76 59.72 76.64 59.73 C 75.77 58.79 74.83 57.92 73.89 57.06 C 72.44 55.83 70.89 54.72 69.27 53.74 C 67.88 52.98 66.46 52.27 65.04 51.56 C 69.32 50.80 72.41 54.34 76.19 55.57 C 79.35 56.40 81.75 53.64 84.24 52.21 C 91.73 47.57 99.92 44.26 107.63 40.05 C 106.96 40.04 105.61 40.02 104.94 40.01 Z" />
</g>
<g id="#b1ccafff">
<path fill="#b1ccaf" opacity="1.00" d=" M 115.87 37.13 L 116.20 36.99 L 117.00 37.25 C 115.87 38.79 114.77 40.35 113.67 41.90 C 112.61 43.23 111.85 44.85 111.89 46.58 C 111.78 48.01 111.57 49.43 111.25 50.84 L 111.00 50.56 C 110.94 50.08 110.82 49.11 110.76 48.63 C 109.75 48.66 108.75 48.69 107.75 48.72 C 108.74 45.97 109.67 43.19 110.53 40.40 C 112.36 39.38 114.09 38.22 115.87 37.13 Z" />
<path fill="#b1ccaf" opacity="1.00" d=" M 86.52 64.14 C 91.72 63.36 96.99 63.07 102.25 63.08 C 101.95 63.53 101.34 64.42 101.04 64.87 C 100.83 65.11 100.40 65.59 100.18 65.83 C 98.07 66.56 95.89 67.52 93.61 67.36 C 91.05 66.80 88.80 65.37 86.52 64.14 Z" />
</g>
<g id="#ddf4ceff">
<path fill="#ddf4ce" opacity="1.00" d=" M 17.07 46.92 C 15.47 44.73 16.00 41.63 15.73 39.04 C 24.73 44.74 33.65 50.76 41.28 58.25 L 41.21 59.29 C 38.18 57.63 35.25 55.80 32.30 54.02 C 27.59 50.91 22.16 49.25 17.07 46.92 Z" />
</g>
<g id="#2895bcff">
<path fill="#2895bc" opacity="1.00" d=" M 92.18 44.42 C 96.36 42.78 100.57 41.13 104.94 40.01 C 105.61 40.02 106.96 40.04 107.63 40.05 C 99.92 44.26 91.73 47.57 84.24 52.21 C 83.47 52.08 81.93 51.83 81.16 51.70 C 81.27 50.56 81.39 49.41 81.50 48.27 C 85.09 47.09 88.67 45.85 92.18 44.42 Z" />
</g>
<g id="#c6dfbfff">
<path fill="#c6dfbf" opacity="1.00" d=" M 77.13 59.69 C 87.42 51.92 98.96 46.00 110.53 40.40 C 109.67 43.19 108.74 45.97 107.75 48.72 C 108.75 48.69 109.75 48.66 110.76 48.63 C 110.82 49.11 110.94 50.08 111.00 50.56 L 110.44 50.82 C 103.14 51.21 96.05 53.88 89.11 56.10 C 85.09 57.21 81.48 60.37 77.13 59.69 Z" />
</g>
<g id="#41d6f9ff">
<path fill="#41d6f9" opacity="1.00" d=" M 45.28 47.72 C 47.86 46.79 49.99 44.88 52.50 43.76 C 50.51 46.90 46.66 48.54 45.22 52.02 L 45.18 52.59 C 43.99 53.75 42.79 54.91 41.55 56.04 C 40.67 55.74 39.80 55.41 38.94 55.05 C 40.03 51.88 39.79 48.53 39.32 45.28 C 41.27 46.17 43.19 47.20 45.28 47.72 Z" />
</g>
<g id="#d7f1cbff">
<path fill="#d7f1cb" opacity="1.00" d=" M 15.30 49.60 C 21.61 49.43 26.71 53.83 32.50 55.68 L 32.30 54.02 C 35.25 55.80 38.18 57.63 41.21 59.29 C 41.17 60.02 41.11 61.48 41.08 62.21 C 39.57 61.99 38.06 61.79 36.57 61.49 C 31.16 59.91 25.68 58.23 19.97 58.43 L 19.59 58.42 C 18.98 55.13 17.47 52.13 15.30 49.60 Z" />
</g>
<g id="#869a85f3">
<path fill="#869a85" opacity="0.95" d=" M 89.11 56.10 C 96.05 53.88 103.14 51.21 110.44 50.82 C 110.14 51.35 109.53 52.41 109.23 52.94 L 108.62 52.94 C 97.96 53.25 87.87 57.86 78.62 62.86 C 86.89 62.29 95.18 62.05 103.42 61.22 C 103.77 60.11 104.14 59.00 104.53 57.90 C 104.32 59.28 104.16 60.67 104.02 62.06 C 103.04 63.01 102.06 63.97 101.04 64.87 C 101.34 64.42 101.95 63.53 102.25 63.08 C 96.99 63.07 91.72 63.36 86.52 64.14 C 83.89 64.52 81.32 65.18 78.76 65.86 C 78.54 65.23 78.10 63.96 77.88 63.33 C 77.48 62.12 77.08 60.92 76.64 59.73 C 76.76 59.72 77.01 59.70 77.13 59.69 C 81.48 60.37 85.09 57.21 89.11 56.10 Z" />
</g>
<g id="#a2ffffff">
<path fill="#a2ffff" opacity="1.00" d=" M 45.22 52.02 C 46.30 51.64 47.37 51.25 48.44 50.87 C 49.31 55.01 50.93 58.96 53.32 62.46 C 55.39 60.55 57.36 58.54 59.16 56.37 C 61.04 60.43 58.94 65.08 55.62 67.66 C 53.72 68.72 51.50 68.96 49.42 69.48 C 49.12 70.63 48.83 71.78 48.53 72.93 C 47.99 71.71 47.46 70.49 46.95 69.26 C 46.85 68.94 46.67 68.31 46.57 68.00 L 46.51 67.37 L 46.22 66.76 C 45.91 66.38 45.28 65.61 44.96 65.23 C 44.36 64.68 43.71 64.19 43.04 63.73 C 44.19 60.12 45.18 56.41 45.18 52.59 L 45.22 52.02 Z" />
</g>
<g id="#2aa1cdff">
<path fill="#2aa1cd" opacity="1.00" d=" M 50.92 52.71 C 53.61 51.98 56.41 52.21 58.80 53.74 C 57.31 56.13 55.57 58.39 53.31 60.10 C 52.12 57.78 51.25 55.31 50.92 52.71 Z" />
</g>
<g id="#8ffeffff">
<path fill="#8ffeff" opacity="1.00" d=" M 59.16 56.37 C 60.60 54.66 62.10 53.00 63.65 51.40 C 64.00 51.44 64.70 51.52 65.04 51.56 C 66.46 52.27 67.88 52.98 69.27 53.74 C 68.23 57.52 67.33 61.34 66.57 65.19 C 63.05 66.53 61.40 70.03 60.19 73.33 C 58.17 73.43 56.83 74.93 55.54 76.29 C 55.03 75.96 54.52 75.63 54.01 75.31 C 53.54 75.14 52.61 74.81 52.14 74.65 C 51.96 75.29 51.61 76.59 51.43 77.24 C 49.46 77.22 47.49 77.27 45.52 77.34 C 45.21 78.01 44.60 79.35 44.30 80.02 L 44.05 80.47 C 42.83 77.55 41.24 74.37 42.69 71.22 C 42.99 71.75 43.59 72.81 43.89 73.35 C 44.85 73.32 46.75 73.28 47.70 73.26 C 47.51 72.26 47.14 70.26 46.95 69.26 C 47.46 70.49 47.99 71.71 48.53 72.93 C 48.83 71.78 49.12 70.63 49.42 69.48 C 51.50 68.96 53.72 68.72 55.62 67.66 C 58.94 65.08 61.04 60.43 59.16 56.37 Z" />
</g>
<g id="#ddffffff">
<path fill="#ddffff" opacity="1.00" d=" M 41.55 56.04 C 42.79 54.91 43.99 53.75 45.18 52.59 C 45.18 56.41 44.19 60.12 43.04 63.73 L 41.86 62.98 L 41.08 62.43 L 41.08 62.21 C 41.11 61.48 41.17 60.02 41.21 59.29 L 41.28 58.25 C 41.36 57.51 41.46 56.77 41.55 56.04 Z" />
</g>
<g id="#c3dcbcff">
<path fill="#c3dcbc" opacity="1.00" d=" M 78.62 62.86 C 87.87 57.86 97.96 53.25 108.62 52.94 C 107.10 54.45 105.61 56.03 104.53 57.90 C 104.14 59.00 103.77 60.11 103.42 61.22 C 95.18 62.05 86.89 62.29 78.62 62.86 Z" />
</g>
<g id="#6ec3deff">
<path fill="#6ec3de" opacity="1.00" d=" M 69.27 53.74 C 70.89 54.72 72.44 55.83 73.89 57.06 C 72.00 59.76 71.52 64.00 67.76 64.76 L 66.57 65.19 C 67.33 61.34 68.23 57.52 69.27 53.74 Z" />
</g>
<g id="#5497b1ff">
<path fill="#5497b1" opacity="1.00" d=" M 67.76 64.76 C 71.52 64.00 72.00 59.76 73.89 57.06 C 74.83 57.92 75.77 58.79 76.64 59.73 C 77.08 60.92 77.48 62.12 77.88 63.33 C 76.18 65.28 74.67 67.39 73.26 69.55 C 73.41 67.75 73.51 65.95 73.57 64.14 C 71.63 64.31 69.69 64.49 67.76 64.76 Z" />
</g>
<g id="#c3e0bcff">
<path fill="#c3e0bc" opacity="1.00" d=" M 19.97 58.43 C 25.68 58.23 31.16 59.91 36.57 61.49 C 32.23 65.04 26.06 64.59 21.94 60.95 C 21.19 60.19 20.53 59.35 19.97 58.43 Z" />
</g>
<g id="#aecdaeff">
<path fill="#aecdae" opacity="1.00" d=" M 21.94 60.95 C 26.06 64.59 32.23 65.04 36.57 61.49 C 38.06 61.79 39.57 61.99 41.08 62.21 L 41.08 62.43 C 41.06 63.24 41.03 64.88 41.02 65.70 C 37.44 65.49 33.86 65.40 30.28 65.41 C 30.51 65.54 30.98 65.80 31.21 65.92 L 31.38 66.78 C 30.06 66.96 28.74 67.14 27.43 67.33 C 27.13 67.71 26.52 68.49 26.22 68.87 L 26.88 67.13 C 26.26 67.26 25.01 67.51 24.39 67.64 C 23.88 65.31 23.03 63.07 21.94 60.95 Z" />
</g>
<g id="#88c9cdff">
<path fill="#88c9cd" opacity="1.00" d=" M 41.08 62.43 L 41.86 62.98 C 42.13 65.73 42.25 68.49 42.69 71.22 C 41.24 74.37 42.83 77.55 44.05 80.47 C 42.74 80.85 41.40 81.13 40.06 81.41 C 39.54 79.07 39.46 76.20 37.24 74.73 C 35.51 73.95 33.58 73.78 31.73 73.39 C 34.85 73.31 37.98 73.42 41.08 73.80 C 41.03 71.10 40.99 68.40 41.02 65.70 C 41.03 64.88 41.06 63.24 41.08 62.43 Z" />
</g>
<g id="#33728fff">
<path fill="#33728f" opacity="1.00" d=" M 73.26 69.55 C 74.67 67.39 76.18 65.28 77.88 63.33 C 78.10 63.96 78.54 65.23 78.76 65.86 L 79.15 66.84 C 80.98 67.30 82.83 67.67 84.67 68.05 C 83.85 69.69 81.42 71.14 81.75 73.06 C 83.47 73.72 85.28 74.09 87.06 74.53 C 84.53 74.79 81.99 75.09 79.46 75.38 C 78.67 77.07 77.07 78.65 77.27 80.64 C 78.11 81.60 79.08 82.44 80.05 83.27 C 81.73 84.65 83.42 86.04 84.97 87.57 C 85.21 87.89 85.71 88.53 85.95 88.85 C 84.74 87.97 83.53 87.08 82.33 86.18 C 81.05 85.22 79.78 84.25 78.46 83.34 C 75.23 80.66 72.03 83.72 69.56 85.83 C 69.57 87.95 69.58 90.08 69.56 92.20 C 68.96 90.28 68.37 88.36 67.78 86.43 C 65.12 87.15 62.30 87.52 59.87 88.86 C 58.92 90.02 58.31 91.42 57.71 92.79 C 57.38 93.88 57.07 94.98 56.79 96.09 L 56.50 97.33 C 56.63 95.90 56.74 94.46 56.93 93.03 C 57.25 91.37 57.68 89.73 58.11 88.09 C 56.57 87.62 55.03 87.14 53.49 86.70 C 59.08 84.68 65.59 83.32 69.37 78.30 C 70.38 76.87 71.97 75.02 70.29 73.43 C 71.37 72.21 72.37 70.92 73.26 69.55 Z" />
</g>
<g id="#77b9bcff">
<path fill="#77b9bc" opacity="1.00" d=" M 30.28 65.41 C 33.86 65.40 37.44 65.49 41.02 65.70 C 40.99 68.40 41.03 71.10 41.08 73.80 C 37.98 73.42 34.85 73.31 31.73 73.39 C 29.47 73.45 27.22 73.23 25.01 72.82 C 26.79 72.58 28.57 72.38 30.36 72.19 C 32.89 71.91 35.39 71.41 37.86 70.78 C 37.65 69.46 37.49 68.12 37.14 66.83 C 35.19 66.38 33.18 66.25 31.21 65.92 C 30.98 65.80 30.51 65.54 30.28 65.41 Z" />
</g>
<g id="#97dcddff">
<path fill="#97dcdd" opacity="1.00" d=" M 31.21 65.92 C 33.18 66.25 35.19 66.38 37.14 66.83 C 37.49 68.12 37.65 69.46 37.86 70.78 C 35.39 71.41 32.89 71.91 30.36 72.19 C 30.73 70.39 31.10 68.60 31.38 66.78 L 31.21 65.92 Z" />
</g>
<g id="#deffffff">
<path fill="#deffff" opacity="1.00" d=" M 44.62 71.76 C 44.31 69.57 44.21 67.34 44.96 65.23 C 45.28 65.61 45.91 66.38 46.22 66.76 L 46.51 67.37 L 46.57 68.00 C 45.92 69.25 45.27 70.50 44.62 71.76 Z" />
<path fill="#deffff" opacity="1.00" d=" M 96.52 76.08 C 96.60 74.55 96.68 73.02 96.84 71.49 L 98.35 71.63 C 98.57 73.33 98.90 75.02 99.26 76.69 C 98.47 77.34 97.68 78.00 96.91 78.67 C 95.10 80.26 93.41 82.00 92.02 83.97 C 90.66 86.03 89.51 88.22 88.39 90.42 C 87.51 90.79 86.63 91.17 85.75 91.55 C 83.56 92.50 81.40 93.54 79.34 94.75 C 78.63 95.18 77.93 95.63 77.24 96.10 C 75.96 97.00 74.71 97.94 73.50 98.92 C 68.72 101.42 62.86 100.15 57.89 102.40 C 57.31 102.60 56.13 103.02 55.54 103.22 C 55.31 103.42 54.84 103.80 54.60 104.00 C 53.83 103.42 53.07 102.81 52.23 102.32 C 47.95 99.32 42.71 98.96 37.70 98.31 C 36.69 95.80 35.82 92.89 33.38 91.36 C 31.17 89.79 28.71 88.61 26.30 87.37 C 28.35 83.63 27.73 79.38 25.55 75.89 C 26.62 76.66 27.73 77.38 28.70 78.28 C 30.08 80.93 29.08 83.95 28.68 86.71 C 32.39 87.19 36.17 88.44 38.64 91.41 C 40.17 92.83 39.26 95.06 39.35 96.87 C 43.92 96.00 48.66 96.03 53.03 97.78 C 53.54 98.85 54.07 99.92 54.59 100.98 C 54.75 100.82 55.07 100.50 55.22 100.34 L 56.21 99.33 C 60.53 97.84 65.08 97.00 69.66 97.11 C 70.21 97.28 71.29 97.62 71.84 97.79 C 71.79 96.16 71.76 94.52 71.72 92.89 C 74.79 89.98 78.37 87.69 82.33 86.18 C 83.53 87.08 84.74 87.97 85.95 88.85 C 85.71 88.53 85.21 87.89 84.97 87.57 C 87.68 82.77 91.76 78.84 96.52 76.08 Z" />
<path fill="#deffff" opacity="1.00" d=" M 165.83 109.32 C 168.12 108.69 170.52 109.00 172.86 109.12 C 175.96 109.37 179.06 109.70 182.15 110.03 C 184.35 110.30 186.53 110.72 188.68 111.26 C 177.95 111.58 167.18 111.25 156.47 110.60 C 157.19 110.47 158.62 110.20 159.34 110.07 C 161.54 110.49 163.76 110.13 165.83 109.32 Z" />
</g>
<g id="#c3fefeff">
<path fill="#c3fefe" opacity="1.00" d=" M 27.43 67.33 C 28.74 67.14 30.06 66.96 31.38 66.78 C 31.10 68.60 30.73 70.39 30.36 72.19 C 28.57 72.38 26.79 72.58 25.01 72.82 C 27.22 73.23 29.47 73.45 31.73 73.39 C 33.42 76.24 36.30 79.01 35.46 82.64 C 34.21 83.38 32.99 84.16 31.79 84.98 C 36.44 84.73 43.95 86.37 43.13 92.52 L 42.63 93.38 C 46.78 92.79 51.04 92.90 54.92 94.62 C 55.02 96.53 55.12 98.44 55.22 100.34 C 55.07 100.50 54.75 100.82 54.59 100.98 C 54.07 99.92 53.54 98.85 53.03 97.78 C 48.66 96.03 43.92 96.00 39.35 96.87 C 39.26 95.06 40.17 92.83 38.64 91.41 C 36.17 88.44 32.39 87.19 28.68 86.71 C 29.08 83.95 30.08 80.93 28.70 78.28 C 27.73 77.38 26.62 76.66 25.55 75.89 C 24.37 75.07 23.35 74.04 22.32 73.05 C 23.67 71.70 25.05 70.38 26.22 68.87 C 26.52 68.49 27.13 67.71 27.43 67.33 Z" />
</g>
<g id="#595959ff">
<path fill="#595959" opacity="1.00" d=" M 65.14 66.83 C 68.25 66.77 66.65 73.21 63.72 71.19 C 62.79 69.60 63.73 67.72 65.14 66.83 Z" />
</g>
<g id="#79bbbcff">
<path fill="#79bbbc" opacity="1.00" d=" M 84.67 68.05 C 86.71 68.49 88.73 68.95 90.74 69.52 C 89.55 70.74 88.44 72.02 87.45 73.40 C 88.24 73.60 89.81 73.99 90.59 74.18 C 92.20 74.61 93.79 75.09 95.38 75.59 C 92.18 75.98 88.89 75.87 85.77 76.74 C 83.37 78.41 81.83 81.00 80.05 83.27 C 79.08 82.44 78.11 81.60 77.27 80.64 C 77.07 78.65 78.67 77.07 79.46 75.38 C 81.99 75.09 84.53 74.79 87.06 74.53 C 85.28 74.09 83.47 73.72 81.75 73.06 C 81.42 71.14 83.85 69.69 84.67 68.05 Z" />
</g>
<g id="#99eeffff">
<path fill="#99eeff" opacity="1.00" d=" M 98.35 71.63 C 98.66 70.13 99.13 68.67 99.66 67.24 C 100.29 67.90 101.56 69.23 102.19 69.89 C 103.69 73.01 104.78 76.31 106.15 79.49 C 106.33 79.95 106.69 80.87 106.87 81.34 C 106.73 81.82 106.45 82.78 106.30 83.27 C 105.44 79.42 103.34 76.07 100.86 73.07 C 100.33 74.27 99.79 75.48 99.26 76.69 C 98.90 75.02 98.57 73.33 98.35 71.63 Z" />
</g>
<g id="#6fbed7ff">
<path fill="#6fbed7" opacity="1.00" d=" M 102.19 69.89 C 102.47 69.79 103.01 69.59 103.29 69.49 C 104.21 72.06 106.39 73.79 108.29 75.63 C 108.32 75.66 108.38 75.72 108.41 75.76 C 113.67 81.96 118.75 88.32 123.39 95.00 C 125.57 96.00 125.62 98.81 127.41 100.22 C 128.96 101.65 130.59 103.00 132.19 104.39 C 132.43 104.59 132.91 105.00 133.15 105.20 C 137.65 109.61 144.20 109.84 149.77 112.06 L 150.67 113.46 C 146.24 112.85 141.78 114.09 137.38 113.43 C 132.06 111.75 128.44 107.17 124.98 103.07 C 119.79 96.48 114.84 89.71 110.27 82.69 C 109.19 81.28 108.33 79.08 106.15 79.49 C 104.78 76.31 103.69 73.01 102.19 69.89 Z" />
</g>
<g id="#9cdadbff">
<path fill="#9cdadb" opacity="1.00" d=" M 87.45 73.40 C 88.44 72.02 89.55 70.74 90.74 69.52 C 91.85 69.88 92.97 70.25 94.08 70.63 C 92.91 71.81 91.75 72.99 90.59 74.18 C 89.81 73.99 88.24 73.60 87.45 73.40 Z" />
</g>
<g id="#bbf6f6ff">
<path fill="#bbf6f6" opacity="1.00" d=" M 90.59 74.18 C 91.75 72.99 92.91 71.81 94.08 70.63 C 94.99 70.94 95.91 71.23 96.84 71.49 C 96.68 73.02 96.60 74.55 96.52 76.08 C 91.76 78.84 87.68 82.77 84.97 87.57 C 83.42 86.04 81.73 84.65 80.05 83.27 C 81.83 81.00 83.37 78.41 85.77 76.74 C 88.89 75.87 92.18 75.98 95.38 75.59 C 93.79 75.09 92.20 74.61 90.59 74.18 Z" />
</g>
<g id="#7bd9f6ff">
<path fill="#7bd9f6" opacity="1.00" d=" M 55.54 76.29 C 56.83 74.93 58.17 73.43 60.19 73.33 C 61.05 73.58 61.91 73.84 62.77 74.10 C 63.38 74.27 64.59 74.60 65.19 74.76 C 62.68 76.98 60.17 79.22 57.43 81.16 C 55.94 80.65 54.44 80.15 52.95 79.65 C 51.77 80.22 50.58 80.78 49.40 81.33 C 48.17 81.56 46.95 81.78 45.73 82.01 C 45.37 81.51 44.66 80.52 44.30 80.02 C 44.60 79.35 45.21 78.01 45.52 77.34 C 47.49 77.27 49.46 77.22 51.43 77.24 C 52.76 77.57 53.68 77.19 54.20 76.11 L 54.01 75.31 C 54.52 75.63 55.03 75.96 55.54 76.29 Z" />
</g>
<g id="#a5e6e9ff">
<path fill="#a5e6e9" opacity="1.00" d=" M 31.73 73.39 C 33.58 73.78 35.51 73.95 37.24 74.73 C 39.46 76.20 39.54 79.07 40.06 81.41 C 38.50 81.71 36.96 82.10 35.46 82.64 C 36.30 79.01 33.42 76.24 31.73 73.39 Z" />
</g>
<g id="#5392a8ff">
<path fill="#5392a8" opacity="1.00" d=" M 62.77 74.10 C 65.30 74.38 67.83 74.02 70.29 73.43 C 71.97 75.02 70.38 76.87 69.37 78.30 C 65.59 83.32 59.08 84.68 53.49 86.70 C 51.38 87.14 49.44 88.10 47.72 89.37 C 46.63 90.10 45.54 90.83 44.44 91.55 C 45.82 89.60 47.26 87.68 48.90 85.94 C 52.99 84.22 57.51 83.62 61.36 81.34 C 63.96 79.82 65.95 77.51 67.99 75.34 C 67.29 75.20 65.89 74.91 65.19 74.76 C 64.59 74.60 63.38 74.27 62.77 74.10 Z" />
</g>
<g id="#61b0c9ff">
<path fill="#61b0c9" opacity="1.00" d=" M 99.26 76.69 C 99.79 75.48 100.33 74.27 100.86 73.07 C 103.34 76.07 105.44 79.42 106.30 83.27 C 106.25 84.02 106.14 85.52 106.08 86.27 C 104.57 84.58 103.01 82.93 101.51 81.21 C 101.85 85.49 100.52 89.63 98.35 93.28 C 98.15 88.38 97.86 83.48 96.91 78.67 C 97.68 78.00 98.47 77.34 99.26 76.69 Z" />
</g>
<g id="#5da9c2ff">
<path fill="#5da9c2" opacity="1.00" d=" M 65.19 74.76 C 65.89 74.91 67.29 75.20 67.99 75.34 C 65.95 77.51 63.96 79.82 61.36 81.34 C 57.51 83.62 52.99 84.22 48.90 85.94 C 47.82 84.65 46.74 83.36 45.73 82.01 C 46.95 81.78 48.17 81.56 49.40 81.33 C 51.62 81.43 53.83 81.72 56.05 81.88 C 56.40 81.70 57.09 81.34 57.43 81.16 C 60.17 79.22 62.68 76.98 65.19 74.76 Z" />
</g>
<g id="#0e1d2ca3">
<path fill="#0e1d2c" opacity="0.64" d=" M 108.29 75.63 C 108.32 75.66 108.38 75.72 108.41 75.76 C 108.38 75.72 108.32 75.66 108.29 75.63 Z" />
</g>
<g id="#498da8ff">
<path fill="#498da8" opacity="1.00" d=" M 92.02 83.97 C 93.41 82.00 95.10 80.26 96.91 78.67 C 97.86 83.48 98.15 88.38 98.35 93.28 C 100.52 89.63 101.85 85.49 101.51 81.21 C 103.01 82.93 104.57 84.58 106.08 86.27 C 106.59 89.35 106.94 92.47 106.96 95.59 C 105.79 99.80 104.06 103.84 103.09 108.11 C 102.22 110.07 104.65 110.66 105.76 111.65 C 105.87 114.81 105.77 117.98 105.49 121.13 C 105.16 118.54 104.98 115.94 104.81 113.34 C 104.40 113.32 103.57 113.27 103.16 113.24 C 101.54 113.16 99.92 113.08 98.31 112.99 C 97.66 107.72 95.29 102.90 94.17 97.74 C 93.24 97.36 92.31 96.97 91.39 96.57 C 90.44 95.62 89.41 95.40 88.29 95.89 C 90.23 94.23 93.04 92.88 93.25 90.00 C 93.79 87.89 92.65 85.91 92.02 83.97 Z" />
</g>
<g id="#55a1c4ff">
<path fill="#55a1c4" opacity="1.00" d=" M 106.15 79.49 C 108.33 79.08 109.19 81.28 110.27 82.69 C 114.84 89.71 119.79 96.48 124.98 103.07 C 128.44 107.17 132.06 111.75 137.38 113.43 C 141.78 114.09 146.24 112.85 150.67 113.46 C 156.08 114.13 161.53 113.80 166.95 114.11 C 172.40 115.35 177.98 112.54 183.34 114.75 C 178.71 116.68 173.60 117.85 168.59 117.94 C 165.43 117.21 162.20 116.87 158.96 116.92 L 159.01 117.84 C 161.73 117.94 164.44 118.05 167.16 118.01 C 161.94 118.85 156.62 118.04 151.84 115.82 C 150.85 116.24 149.88 116.71 148.86 117.07 C 144.58 117.01 140.28 117.33 136.01 116.94 C 129.41 116.00 123.25 112.03 119.78 106.32 C 116.42 101.60 114.25 95.73 109.12 92.56 C 109.24 88.69 108.57 84.83 106.87 81.34 C 106.69 80.87 106.33 79.95 106.15 79.49 Z" />
</g>
<g id="#9cdaddff">
<path fill="#9cdadd" opacity="1.00" d=" M 40.06 81.41 C 41.40 81.13 42.74 80.85 44.05 80.47 L 44.30 80.02 C 44.66 80.52 45.37 81.51 45.73 82.01 C 46.74 83.36 47.82 84.65 48.90 85.94 C 47.26 87.68 45.82 89.60 44.44 91.55 C 44.11 91.79 43.46 92.28 43.13 92.52 C 43.95 86.37 36.44 84.73 31.79 84.98 C 32.99 84.16 34.21 83.38 35.46 82.64 C 36.96 82.10 38.50 81.71 40.06 81.41 Z" />
</g>
<g id="#3d6a7aff">
<path fill="#3d6a7a" opacity="1.00" d=" M 49.40 81.33 C 50.58 80.78 51.77 80.22 52.95 79.65 C 54.44 80.15 55.94 80.65 57.43 81.16 C 57.09 81.34 56.40 81.70 56.05 81.88 C 53.83 81.72 51.62 81.43 49.40 81.33 Z" />
</g>
<g id="#8ec9caff">
<path fill="#8ec9ca" opacity="1.00" d=" M 69.56 85.83 C 72.03 83.72 75.23 80.66 78.46 83.34 C 76.14 84.67 73.63 85.76 71.55 87.47 C 70.58 90.34 71.18 93.55 70.59 96.53 C 70.20 95.79 69.43 94.31 69.05 93.57 C 68.63 92.75 68.22 91.92 67.82 91.10 C 64.42 91.48 61.05 92.05 57.71 92.79 C 58.31 91.42 58.92 90.02 59.87 88.86 C 62.30 87.52 65.12 87.15 67.78 86.43 C 68.37 88.36 68.96 90.28 69.56 92.20 C 69.58 90.08 69.57 87.95 69.56 85.83 Z" />
</g>
<g id="#63c6dfff">
<path fill="#63c6df" opacity="1.00" d=" M 106.87 81.34 C 108.57 84.83 109.24 88.69 109.12 92.56 C 107.93 99.34 114.52 103.19 118.02 107.94 C 121.80 113.17 127.62 116.73 133.86 118.18 C 138.34 118.83 142.88 118.19 147.37 118.15 C 141.61 121.83 134.17 121.92 127.67 120.49 C 120.04 119.14 113.24 115.09 107.17 110.44 C 105.03 105.71 107.68 100.54 106.96 95.59 C 106.94 92.47 106.59 89.35 106.08 86.27 C 106.14 85.52 106.25 84.02 106.30 83.27 C 106.45 82.78 106.73 81.82 106.87 81.34 Z" />
</g>
<g id="#a8e2e1ff">
<path fill="#a8e2e1" opacity="1.00" d=" M 71.55 87.47 C 73.63 85.76 76.14 84.67 78.46 83.34 C 79.78 84.25 81.05 85.22 82.33 86.18 C 78.37 87.69 74.79 89.98 71.72 92.89 C 71.76 94.52 71.79 96.16 71.84 97.79 C 71.29 97.62 70.21 97.28 69.66 97.11 L 70.59 96.53 C 71.18 93.55 70.58 90.34 71.55 87.47 Z" />
</g>
<g id="#50adc7ff">
<path fill="#50adc7" opacity="1.00" d=" M 88.39 90.42 C 89.51 88.22 90.66 86.03 92.02 83.97 C 92.65 85.91 93.79 87.89 93.25 90.00 C 93.04 92.88 90.23 94.23 88.29 95.89 C 85.11 98.48 86.13 103.30 84.62 106.78 C 83.56 101.68 85.28 96.62 85.75 91.55 C 86.63 91.17 87.51 90.79 88.39 90.42 Z" />
</g>
<g id="#8ccbcbff">
<path fill="#8ccbcb" opacity="1.00" d=" M 47.72 89.37 C 49.44 88.10 51.38 87.14 53.49 86.70 C 55.03 87.14 56.57 87.62 58.11 88.09 C 57.68 89.73 57.25 91.37 56.93 93.03 C 54.26 90.93 50.95 90.11 47.72 89.37 Z" />
</g>
<g id="#aae6e6ff">
<path fill="#aae6e6" opacity="1.00" d=" M 44.44 91.55 C 45.54 90.83 46.63 90.10 47.72 89.37 C 50.95 90.11 54.26 90.93 56.93 93.03 C 56.74 94.46 56.63 95.90 56.50 97.33 C 56.43 97.83 56.28 98.83 56.21 99.33 L 55.22 100.34 C 55.12 98.44 55.02 96.53 54.92 94.62 C 51.04 92.90 46.78 92.79 42.63 93.38 L 43.13 92.52 C 43.46 92.28 44.11 91.79 44.44 91.55 Z" />
</g>
<g id="#afe8e8ff">
<path fill="#afe8e8" opacity="1.00" d=" M 57.71 92.79 C 61.05 92.05 64.42 91.48 67.82 91.10 C 68.22 91.92 68.63 92.75 69.05 93.57 C 64.94 94.29 60.85 95.13 56.79 96.09 C 57.07 94.98 57.38 93.88 57.71 92.79 Z" />
</g>
<g id="#4b8ea9ff">
<path fill="#4b8ea9" opacity="1.00" d=" M 79.34 94.75 C 81.40 93.54 83.56 92.50 85.75 91.55 C 85.28 96.62 83.56 101.68 84.62 106.78 C 83.50 111.21 82.35 115.64 81.17 120.05 L 81.08 119.57 C 80.27 114.99 78.86 110.37 79.72 105.69 C 80.39 102.04 80.51 98.30 79.34 94.75 Z" />
</g>
<g id="#54b1ddff">
<path fill="#54b1dd" opacity="1.00" d=" M 109.12 92.56 C 114.25 95.73 116.42 101.60 119.78 106.32 C 123.25 112.03 129.41 116.00 136.01 116.94 C 140.28 117.33 144.58 117.01 148.86 117.07 C 148.49 117.34 147.74 117.88 147.37 118.15 C 142.88 118.19 138.34 118.83 133.86 118.18 C 127.62 116.73 121.80 113.17 118.02 107.94 C 114.52 103.19 107.93 99.34 109.12 92.56 Z" />
</g>
<g id="#c8ffffff">
<path fill="#c8ffff" opacity="1.00" d=" M 56.79 96.09 C 60.85 95.13 64.94 94.29 69.05 93.57 C 69.43 94.31 70.20 95.79 70.59 96.53 L 69.66 97.11 C 65.08 97.00 60.53 97.84 56.21 99.33 C 56.28 98.83 56.43 97.83 56.50 97.33 L 56.79 96.09 Z" />
</g>
<g id="#5596b2fc">
<path fill="#5596b2" opacity="1.00" d=" M 77.24 96.10 C 77.93 95.63 78.63 95.18 79.34 94.75 C 80.51 98.30 80.39 102.04 79.72 105.69 C 78.86 110.37 80.27 114.99 81.08 119.57 C 80.42 125.84 77.18 131.67 77.22 138.06 C 77.16 139.66 77.32 141.89 75.29 142.32 C 72.11 142.34 68.92 142.28 65.75 141.98 C 66.21 140.27 66.69 138.55 67.14 136.84 C 67.30 138.47 67.48 140.09 67.76 141.71 C 70.29 142.58 70.64 140.02 71.30 138.31 C 72.17 138.89 73.05 139.47 73.92 140.05 C 74.41 138.70 74.89 137.36 75.38 136.01 C 75.82 137.14 76.27 138.28 76.72 139.41 C 76.76 137.69 76.81 135.98 76.85 134.27 C 76.39 134.34 75.47 134.47 75.01 134.53 C 75.44 127.54 78.41 120.92 78.16 113.86 C 75.95 108.03 79.29 101.87 77.24 96.10 Z" />
</g>
<g id="#4ba8beff">
<path fill="#4ba8be" opacity="1.00" d=" M 103.09 108.11 C 104.06 103.84 105.79 99.80 106.96 95.59 C 107.68 100.54 105.03 105.71 107.17 110.44 C 107.06 114.74 107.39 119.04 107.41 123.34 C 106.79 123.42 105.54 123.57 104.92 123.64 C 104.20 120.20 103.59 116.74 103.16 113.24 C 103.57 113.27 104.40 113.32 104.81 113.34 C 104.98 115.94 105.16 118.54 105.49 121.13 C 105.77 117.98 105.87 114.81 105.76 111.65 C 104.65 110.66 102.22 110.07 103.09 108.11 Z" />
</g>
<g id="#62c2d8ff">
<path fill="#62c2d8" opacity="1.00" d=" M 73.50 98.92 C 74.71 97.94 75.96 97.00 77.24 96.10 C 79.29 101.87 75.95 108.03 78.16 113.86 C 76.30 113.00 74.30 112.56 72.27 112.39 C 72.07 111.94 71.67 111.03 71.48 110.58 C 70.93 110.51 69.82 110.37 69.27 110.30 C 69.35 109.93 69.50 109.19 69.58 108.83 C 71.14 105.63 72.27 102.25 73.50 98.92 Z" />
</g>
<g id="#65cfe5ff">
<path fill="#65cfe5" opacity="1.00" d=" M 91.39 96.57 C 92.31 96.97 93.24 97.36 94.17 97.74 C 95.29 102.90 97.66 107.72 98.31 112.99 C 99.92 113.08 101.54 113.16 103.16 113.24 C 103.59 116.74 104.20 120.20 104.92 123.64 C 105.54 123.57 106.79 123.42 107.41 123.34 C 107.62 124.56 107.89 125.78 108.06 127.01 C 108.05 127.46 108.02 128.38 108.01 128.83 C 107.12 128.65 106.24 128.48 105.35 128.30 C 105.02 128.81 104.37 129.83 104.05 130.33 C 104.50 128.97 104.89 127.59 105.26 126.20 C 103.91 124.25 102.60 122.27 101.33 120.28 C 100.80 121.44 100.27 122.61 99.76 123.79 C 99.20 121.91 98.43 120.11 97.41 118.43 C 96.30 114.38 96.70 110.04 95.60 105.97 C 94.46 102.72 92.54 99.81 91.39 96.57 Z" />
</g>
<g id="#39788fff">
<path fill="#39788f" opacity="1.00" d=" M 57.89 102.40 C 62.86 100.15 68.72 101.42 73.50 98.92 C 72.27 102.25 71.14 105.63 69.58 108.83 C 69.18 108.39 68.39 107.53 67.99 107.09 C 68.16 109.33 68.37 111.56 68.51 113.80 C 67.74 119.12 68.50 124.50 67.93 129.82 C 63.95 124.70 67.62 117.13 64.34 111.83 C 60.81 109.76 59.30 106.03 57.89 102.40 Z" />
</g>
<g id="#0f313ec0">
<path fill="#0f313e" opacity="0.75" d=" M 127.41 100.22 C 128.56 100.16 129.72 100.10 130.88 100.04 C 131.31 101.49 131.76 102.93 132.19 104.39 C 130.59 103.00 128.96 101.65 127.41 100.22 Z" />
</g>
<g id="#92fdfdff">
<path fill="#92fdfd" opacity="1.00" d=" M 52.23 102.32 C 53.07 102.81 53.83 103.42 54.60 104.00 C 54.84 103.80 55.31 103.42 55.54 103.22 C 56.36 105.86 57.27 108.47 58.02 111.13 C 59.78 117.08 59.24 123.36 60.47 129.40 C 61.09 132.43 60.43 135.79 57.77 137.66 C 57.79 136.89 57.82 135.36 57.84 134.59 C 57.50 135.99 57.30 137.44 56.72 138.77 C 55.35 137.65 55.10 135.66 55.66 134.04 C 56.40 133.05 57.20 132.11 58.00 131.16 C 58.09 125.45 57.28 119.78 56.97 114.09 C 56.94 111.01 55.66 108.17 54.62 105.34 C 53.60 104.56 52.32 103.74 52.23 102.32 Z" />
</g>
<g id="#549eb3ff">
<path fill="#549eb3" opacity="1.00" d=" M 55.54 103.22 C 56.13 103.02 57.31 102.60 57.89 102.40 C 59.30 106.03 60.81 109.76 64.34 111.83 C 67.62 117.13 63.95 124.70 67.93 129.82 C 67.65 131.44 67.17 133.02 66.58 134.55 C 64.13 127.42 64.73 119.76 63.49 112.41 C 62.41 112.15 61.34 111.90 60.27 111.65 C 59.71 111.52 58.59 111.26 58.02 111.13 C 57.27 108.47 56.36 105.86 55.54 103.22 Z" />
</g>
<g id="#1c4b62f2">
<path fill="#1c4b62" opacity="0.95" d=" M 133.15 105.20 C 133.83 105.03 135.19 104.68 135.87 104.51 C 137.32 106.79 139.93 108.03 142.56 106.85 L 143.14 107.72 C 143.38 108.07 143.85 108.78 144.08 109.13 C 145.31 109.01 146.54 108.88 147.77 108.76 C 148.43 109.86 149.09 110.97 149.77 112.06 C 144.20 109.84 137.65 109.61 133.15 105.20 Z" />
</g>
<g id="#9ef8ffff">
<path fill="#9ef8ff" opacity="1.00" d=" M 143.14 107.72 C 146.48 107.58 150.11 107.30 153.10 109.08 C 154.22 109.58 155.25 110.37 156.47 110.60 C 167.18 111.25 177.95 111.58 188.68 111.26 C 181.64 113.49 174.13 112.60 166.95 114.11 C 161.53 113.80 156.08 114.13 150.67 113.46 L 149.77 112.06 C 149.09 110.97 148.43 109.86 147.77 108.76 C 146.54 108.88 145.31 109.01 144.08 109.13 C 143.85 108.78 143.38 108.07 143.14 107.72 Z" />
</g>
<g id="#707b7bac">
<path fill="#707b7b" opacity="0.67" d=" M 159.34 110.07 C 160.30 108.19 164.04 108.39 165.83 109.32 C 163.76 110.13 161.54 110.49 159.34 110.07 Z" />
</g>
<g id="#76eafeff">
<path fill="#76eafe" opacity="1.00" d=" M 69.27 110.30 C 69.82 110.37 70.93 110.51 71.48 110.58 C 71.67 111.03 72.07 111.94 72.27 112.39 C 74.30 112.56 76.30 113.00 78.16 113.86 C 78.41 120.92 75.44 127.54 75.01 134.53 C 75.47 134.47 76.39 134.34 76.85 134.27 C 76.81 135.98 76.76 137.69 76.72 139.41 C 76.27 138.28 75.82 137.14 75.38 136.01 C 74.89 137.36 74.41 138.70 73.92 140.05 C 73.05 139.47 72.17 138.89 71.30 138.31 C 70.64 140.02 70.29 142.58 67.76 141.71 C 67.48 140.09 67.30 138.47 67.14 136.84 C 66.69 138.55 66.21 140.27 65.75 141.98 L 65.41 141.93 C 64.97 140.75 64.56 139.56 63.98 138.45 C 64.91 137.19 65.79 135.89 66.58 134.55 C 67.17 133.02 67.65 131.44 67.93 129.82 C 68.50 124.50 67.74 119.12 68.51 113.80 C 68.70 112.93 69.08 111.17 69.27 110.30 Z" />
</g>
<g id="#77eeffff">
<path fill="#77eeff" opacity="1.00" d=" M 58.02 111.13 C 58.59 111.26 59.71 111.52 60.27 111.65 C 62.91 119.33 62.82 127.62 63.99 135.60 C 63.09 135.02 62.18 134.43 61.27 133.85 C 61.35 134.29 61.51 135.16 61.59 135.60 C 61.59 136.51 61.60 138.32 61.61 139.22 C 60.59 139.18 58.56 139.08 57.55 139.04 C 57.60 138.69 57.71 138.00 57.77 137.66 C 60.43 135.79 61.09 132.43 60.47 129.40 C 59.24 123.36 59.78 117.08 58.02 111.13 Z" />
</g>
<g id="#74e3f7ff">
<path fill="#74e3f7" opacity="1.00" d=" M 188.68 111.26 C 189.92 111.04 190.72 112.38 191.69 112.91 L 189.90 113.14 C 187.95 113.51 185.48 113.14 184.15 114.93 L 183.34 114.75 C 177.98 112.54 172.40 115.35 166.95 114.11 C 174.13 112.60 181.64 113.49 188.68 111.26 Z" />
<path fill="#74e3f7" opacity="1.00" d=" M 97.41 118.43 C 98.43 120.11 99.20 121.91 99.76 123.79 C 100.27 122.61 100.80 121.44 101.33 120.28 C 102.60 122.27 103.91 124.25 105.26 126.20 C 104.89 127.59 104.50 128.97 104.05 130.33 C 103.50 130.83 102.40 131.82 101.85 132.31 C 101.31 130.83 100.78 129.34 100.27 127.85 C 99.81 129.65 99.34 131.45 98.83 133.24 C 97.03 132.22 96.88 130.03 97.40 128.23 C 98.25 125.00 97.49 121.70 97.41 118.43 Z" />
</g>
<g id="#64c5ddff">
<path fill="#64c5dd" opacity="1.00" d=" M 60.27 111.65 C 61.34 111.90 62.41 112.15 63.49 112.41 C 64.73 119.76 64.13 127.42 66.58 134.55 C 65.79 135.89 64.91 137.19 63.98 138.45 L 62.43 138.95 C 62.14 137.84 61.86 136.72 61.59 135.60 C 61.51 135.16 61.35 134.29 61.27 133.85 C 62.18 134.43 63.09 135.02 63.99 135.60 C 62.82 127.62 62.91 119.33 60.27 111.65 Z" />
</g>
<g id="#23475287">
<path fill="#234752" opacity="0.53" d=" M 184.15 114.93 C 185.48 113.14 187.95 113.51 189.90 113.14 C 189.49 115.06 185.83 115.63 184.15 114.93 Z" />
</g>
<g id="#61c4e5fe">
<path fill="#61c4e5" opacity="1.00" d=" M 158.96 116.92 C 162.20 116.87 165.43 117.21 168.59 117.94 L 167.16 118.01 C 164.44 118.05 161.73 117.94 159.01 117.84 L 158.96 116.92 Z" />
</g>
<g id="#46859cfb">
<path fill="#46859c" opacity="1.00" d=" M 108.06 127.01 C 109.01 128.95 108.73 131.06 108.11 133.05 C 105.01 133.09 101.92 133.05 98.83 133.24 C 99.34 131.45 99.81 129.65 100.27 127.85 C 100.78 129.34 101.31 130.83 101.85 132.31 C 102.40 131.82 103.50 130.83 104.05 130.33 C 104.37 129.83 105.02 128.81 105.35 128.30 C 106.24 128.48 107.12 128.65 108.01 128.83 C 108.02 128.38 108.05 127.46 108.06 127.01 Z" />
</g>
</svg>
