<?xml version="1.0" encoding="UTF-8" ?>
<!DOCTYPE svg PUBLIC "-//W3C//DTD SVG 1.1//EN" "http://www.w3.org/Graphics/SVG/1.1/DTD/svg11.dtd">
<svg width="136pt" height="151pt" viewBox="0 0 136 151" version="1.1" xmlns="http://www.w3.org/2000/svg">
<g id="#d3b250f9">
<path fill="#d3b250" opacity="0.98" d=" M 21.21 9.75 C 20.70 7.96 20.04 0.95 22.15 3.93 C 26.28 13.53 30.02 23.40 31.59 33.78 C 29.34 39.35 28.49 46.71 31.68 52.08 C 31.26 52.39 30.42 53.00 30.00 53.30 C 29.41 50.48 29.04 47.62 28.43 44.80 C 27.70 37.38 26.02 30.12 24.77 22.79 C 24.67 18.15 22.87 13.98 21.21 9.75 Z" />
</g>
<g id="#71573ce2">
<path fill="#71573c" opacity="0.89" d=" M 21.21 9.75 C 22.87 13.98 24.67 18.15 24.77 22.79 C 24.55 23.34 24.10 24.43 23.87 24.97 L 22.98 25.02 L 22.09 25.02 C 22.43 19.89 20.69 14.86 21.21 9.75 Z" />
</g>
<g id="#c9ae50f1">
<path fill="#c9ae50" opacity="0.95" d=" M 71.26 25.27 C 76.61 20.41 82.48 16.03 89.07 12.98 C 88.96 15.86 87.64 18.48 86.63 21.13 C 86.41 20.78 85.96 20.10 85.74 19.76 C 86.12 18.77 86.50 17.78 86.86 16.78 C 84.14 17.85 81.98 19.92 79.68 21.64 C 73.06 27.02 65.37 32.00 61.87 40.11 C 61.61 39.84 61.10 39.30 60.84 39.03 C 60.68 33.34 67.51 30.62 68.18 25.24 C 69.17 25.49 70.44 26.38 71.26 25.27 Z" />
</g>
<g id="#260f2bff">
<path fill="#260f2b" opacity="1.00" d=" M 79.68 21.64 C 81.98 19.92 84.14 17.85 86.86 16.78 C 86.50 17.78 86.12 18.77 85.74 19.76 C 84.13 23.40 82.61 27.09 81.20 30.81 C 77.54 39.16 71.12 45.67 64.65 51.88 C 62.81 53.63 61.46 55.80 60.02 57.87 C 58.43 56.85 56.73 57.16 55.81 58.85 C 54.38 56.54 57.18 53.62 57.48 51.10 C 59.08 47.49 60.50 43.81 61.87 40.11 C 65.37 32.00 73.06 27.02 79.68 21.64 Z" />
</g>
<g id="#b3a48ff8">
<path fill="#b3a48f" opacity="0.97" d=" M 54.19 20.06 C 54.61 20.05 55.46 20.03 55.88 20.03 C 56.25 26.48 58.63 32.60 59.15 39.01 C 59.74 42.35 56.85 44.01 55.54 46.62 C 52.91 45.88 50.50 46.56 48.30 48.10 C 47.88 47.04 47.44 45.99 46.99 44.95 C 48.05 36.44 53.17 28.69 54.19 20.06 Z" />
</g>
<g id="#908037e0">
<path fill="#908037" opacity="0.88" d=" M 81.20 30.81 C 82.61 27.09 84.13 23.40 85.74 19.76 C 85.96 20.10 86.41 20.78 86.63 21.13 C 86.46 24.99 82.43 28.43 83.75 32.28 C 82.44 35.16 81.75 32.81 81.20 30.81 Z" />
</g>
<g id="#381948ff">
<path fill="#381948" opacity="1.00" d=" M 23.87 24.97 C 24.10 24.43 24.55 23.34 24.77 22.79 C 26.02 30.12 27.70 37.38 28.43 44.80 C 28.03 46.01 27.59 47.20 27.11 48.38 C 27.15 44.75 26.26 41.22 25.19 37.77 C 24.65 33.52 24.20 29.25 23.87 24.97 Z" />
</g>
<g id="#866f3be1">
<path fill="#866f3b" opacity="0.88" d=" M 22.98 25.02 L 23.87 24.97 C 24.20 29.25 24.65 33.52 25.19 37.77 L 24.18 37.99 C 23.55 33.70 22.86 29.37 22.98 25.02 Z" />
</g>
<g id="#998a4dc5">
<path fill="#998a4d" opacity="0.77" d=" M 85.48 29.80 C 85.64 28.08 86.60 25.92 88.03 24.90 C 87.03 27.00 89.06 33.13 86.08 32.94 C 85.89 31.89 85.70 30.84 85.48 29.80 Z" />
</g>
<g id="#c5a849fc">
<path fill="#c5a849" opacity="1.00" d=" M 85.48 29.80 C 85.70 30.84 85.89 31.89 86.08 32.94 C 86.27 38.13 82.84 43.26 83.72 48.30 L 83.95 49.03 C 81.59 49.61 79.25 50.23 76.90 50.80 C 77.75 47.77 79.15 44.95 80.07 41.95 C 76.24 44.84 72.42 47.77 68.74 50.86 C 67.59 51.89 66.45 52.93 65.29 53.96 C 65.13 53.44 64.81 52.40 64.65 51.88 C 71.12 45.67 77.54 39.16 81.20 30.81 C 81.75 32.81 82.44 35.16 83.75 32.28 C 84.18 31.66 85.05 30.42 85.48 29.80 Z" />
</g>
<g id="#bfaf96f3">
<path fill="#bfaf96" opacity="0.95" d=" M 37.06 30.94 C 40.58 33.98 41.85 39.82 44.82 43.76 C 43.17 45.63 41.86 47.76 40.58 49.89 C 38.70 48.81 37.95 46.72 37.25 44.80 C 36.75 40.23 36.91 35.55 37.06 30.94 Z" />
</g>
<g id="#a88537f8">
<path fill="#a88537" opacity="0.97" d=" M 31.68 52.08 C 28.49 46.71 29.34 39.35 31.59 33.78 C 31.28 37.65 32.73 41.19 33.54 44.81 C 33.20 46.15 32.89 47.50 32.57 48.85 C 32.28 49.92 31.98 51.00 31.68 52.08 Z" />
</g>
<g id="#8a7041d9">
<path fill="#8a7041" opacity="0.85" d=" M 25.19 37.77 C 26.26 41.22 27.15 44.75 27.11 48.38 C 26.58 48.14 25.51 47.65 24.98 47.41 C 26.98 44.65 24.58 40.92 25.19 37.77 Z" />
</g>
<g id="#cfb157f5">
<path fill="#cfb157" opacity="0.96" d=" M 83.72 48.30 C 89.16 45.33 93.62 40.83 99.09 37.98 C 97.87 41.14 96.69 45.94 94.08 47.50 C 90.65 47.21 87.31 48.65 83.95 49.03 L 83.72 48.30 Z" />
</g>
<g id="#c39f49fd">
<path fill="#c39f49" opacity="1.00" d=" M 59.15 39.01 C 59.57 39.02 60.42 39.02 60.84 39.03 C 61.10 39.30 61.61 39.84 61.87 40.11 C 60.50 43.81 59.08 47.49 57.48 51.10 C 55.07 48.00 53.44 55.34 50.37 53.68 C 49.29 52.10 47.91 50.74 45.85 51.61 C 45.79 49.89 46.81 48.78 48.30 48.10 C 50.50 46.56 52.91 45.88 55.54 46.62 C 56.85 44.01 59.74 42.35 59.15 39.01 Z" />
</g>
<g id="#bdb19fff">
<path fill="#bdb19f" opacity="1.00" d=" M 68.74 50.86 C 72.42 47.77 76.24 44.84 80.07 41.95 C 79.15 44.95 77.75 47.77 76.90 50.80 C 79.25 50.23 81.59 49.61 83.95 49.03 C 87.31 48.65 90.65 47.21 94.08 47.50 C 90.90 49.87 87.87 52.44 84.80 54.94 C 83.31 56.18 81.89 57.57 80.03 58.23 C 75.25 59.15 68.01 56.72 68.74 50.86 Z" />
</g>
<g id="#dfba50fe">
<path fill="#dfba50" opacity="1.00" d=" M 40.58 49.89 C 41.86 47.76 43.17 45.63 44.82 43.76 L 44.95 44.90 C 44.71 47.87 44.08 50.82 44.10 53.81 C 47.52 56.62 52.05 57.66 55.54 60.44 C 57.45 64.39 60.10 70.42 55.30 73.23 C 52.29 76.66 55.20 68.44 53.16 66.87 C 52.97 66.55 52.58 65.92 52.39 65.60 C 51.42 59.03 44.71 56.47 39.09 55.36 C 35.95 55.94 32.61 54.40 29.98 56.86 C 29.99 55.67 30.00 54.49 30.00 53.30 C 30.42 53.00 31.26 52.39 31.68 52.08 C 31.98 51.00 32.28 49.92 32.57 48.85 C 33.59 50.03 34.68 51.17 35.90 52.16 C 35.93 50.83 35.92 49.50 35.88 48.18 C 35.91 46.89 36.37 45.76 37.25 44.80 C 37.95 46.72 38.70 48.81 40.58 49.89 Z" />
</g>
<g id="#7d5e3fff">
<path fill="#7d5e3f" opacity="1.00" d=" M 28.43 44.80 C 29.04 47.62 29.41 50.48 30.00 53.30 C 30.00 54.49 29.99 55.67 29.98 56.86 C 29.52 56.64 28.61 56.22 28.15 56.00 C 27.74 53.47 27.19 50.95 27.11 48.38 C 27.59 47.20 28.03 46.01 28.43 44.80 Z" />
</g>
<g id="#d2c2a2f7">
<path fill="#d2c2a2" opacity="0.97" d=" M 32.57 48.85 C 32.89 47.50 33.20 46.15 33.54 44.81 C 34.37 45.90 35.15 47.02 35.88 48.18 C 35.92 49.50 35.93 50.83 35.90 52.16 C 34.68 51.17 33.59 50.03 32.57 48.85 Z" />
</g>
<g id="#cba847ff">
<path fill="#cba847" opacity="1.00" d=" M 44.95 44.90 C 45.46 44.91 46.48 44.93 46.99 44.95 C 47.44 45.99 47.88 47.04 48.30 48.10 C 46.81 48.78 45.79 49.89 45.85 51.61 C 47.91 50.74 49.29 52.10 50.37 53.68 C 53.44 55.34 55.07 48.00 57.48 51.10 C 57.18 53.62 54.38 56.54 55.81 58.85 C 56.46 59.60 57.11 60.34 57.76 61.08 C 61.06 66.33 63.03 73.49 56.83 77.82 C 49.75 80.96 42.44 83.70 34.74 84.73 C 33.72 85.05 32.72 85.42 31.73 85.83 C 31.30 85.63 30.42 85.25 29.99 85.05 C 29.70 84.87 29.12 84.52 28.82 84.34 C 30.33 83.76 31.78 83.07 33.21 82.32 C 34.13 81.91 35.05 81.50 35.96 81.10 C 37.95 82.50 43.57 80.00 42.36 77.02 C 45.93 77.24 50.10 77.56 52.85 74.79 C 52.99 72.15 53.09 69.51 53.16 66.87 C 55.20 68.44 52.29 76.66 55.30 73.23 C 60.10 70.42 57.45 64.39 55.54 60.44 C 52.05 57.66 47.52 56.62 44.10 53.81 C 44.08 50.82 44.71 47.87 44.95 44.90 Z" />
</g>
<g id="#e3ddc7f2">
<path fill="#e3ddc7" opacity="0.95" d=" M 21.10 45.84 C 22.44 46.23 23.70 46.84 24.98 47.41 C 25.51 47.65 26.58 48.14 27.11 48.38 C 27.19 50.95 27.74 53.47 28.15 56.00 C 28.01 57.31 29.57 59.28 28.24 60.15 C 25.43 55.62 23.37 50.65 21.10 45.84 Z" />
</g>
<g id="#c1a248f8">
<path fill="#c1a248" opacity="0.97" d=" M 84.80 54.94 C 87.87 52.44 90.90 49.87 94.08 47.50 C 93.82 48.15 93.31 49.45 93.06 50.10 C 94.08 49.79 95.10 49.47 96.11 49.13 C 95.97 52.22 93.93 54.87 93.94 57.99 C 99.73 58.66 105.36 56.55 111.14 57.03 C 106.71 59.87 101.70 63.90 96.24 63.72 C 93.88 63.11 91.53 62.55 89.19 61.90 C 86.78 60.14 84.20 58.36 84.80 54.94 Z" />
</g>
<g id="#b1a593ff">
<path fill="#b1a593" opacity="1.00" d=" M 65.29 53.96 C 66.45 52.93 67.59 51.89 68.74 50.86 C 68.01 56.72 75.25 59.15 80.03 58.23 C 79.58 59.06 79.19 59.91 78.86 60.78 C 82.33 60.87 85.76 61.44 89.19 61.90 C 91.53 62.55 93.88 63.11 96.24 63.72 C 95.61 64.07 94.33 64.76 93.70 65.11 C 89.27 67.57 83.73 68.26 79.96 71.69 C 83.07 73.11 86.33 74.20 89.36 75.81 C 87.07 77.14 84.59 78.10 82.25 79.33 C 81.68 80.96 83.50 82.39 84.12 83.83 C 79.74 84.63 75.42 86.37 70.90 85.99 C 70.93 83.55 72.89 81.44 72.22 78.97 C 74.04 79.26 74.09 78.39 73.28 77.09 C 72.60 74.51 75.78 73.31 75.97 71.04 C 75.00 69.57 74.37 66.99 72.20 67.19 L 71.12 67.06 C 70.56 65.74 70.16 64.36 69.79 62.99 L 69.56 62.19 C 60.19 63.74 67.29 59.91 69.13 58.00 C 67.52 56.95 65.83 55.99 65.29 53.96 Z" />
</g>
<g id="#ac8c3dff">
<path fill="#ac8c3d" opacity="1.00" d=" M 60.02 57.87 C 61.46 55.80 62.81 53.63 64.65 51.88 C 64.81 52.40 65.13 53.44 65.29 53.96 C 65.83 55.99 67.52 56.95 69.13 58.00 C 67.29 59.91 60.19 63.74 69.56 62.19 L 69.79 62.99 C 68.10 64.24 66.32 65.42 64.93 67.03 C 62.77 64.77 60.98 61.90 57.76 61.08 C 58.52 60.02 59.30 58.97 60.02 57.87 Z" />
</g>
<g id="#f5d962fe">
<path fill="#f5d962" opacity="1.00" d=" M 29.98 56.86 C 32.61 54.40 35.95 55.94 39.09 55.36 C 44.71 56.47 51.42 59.03 52.39 65.60 C 50.34 66.84 48.33 68.16 46.16 69.16 C 40.25 67.35 34.86 69.68 31.16 74.11 C 29.77 71.38 28.73 68.50 27.31 65.78 C 27.27 64.13 28.84 61.38 25.94 61.87 C 26.67 61.25 27.44 60.68 28.24 60.15 C 29.57 59.28 28.01 57.31 28.15 56.00 C 28.61 56.22 29.52 56.64 29.98 56.86 Z" />
</g>
<g id="#d3b457ff">
<path fill="#d3b457" opacity="1.00" d=" M 80.03 58.23 C 81.89 57.57 83.31 56.18 84.80 54.94 C 84.20 58.36 86.78 60.14 89.19 61.90 C 85.76 61.44 82.33 60.87 78.86 60.78 C 79.19 59.91 79.58 59.06 80.03 58.23 Z" />
</g>
<g id="#795d32ff">
<path fill="#795d32" opacity="1.00" d=" M 55.81 58.85 C 56.73 57.16 58.43 56.85 60.02 57.87 C 59.30 58.97 58.52 60.02 57.76 61.08 C 57.11 60.34 56.46 59.60 55.81 58.85 Z" />
</g>
<g id="#ba983cff">
<path fill="#ba983c" opacity="1.00" d=" M 57.76 61.08 C 60.98 61.90 62.77 64.77 64.93 67.03 C 64.34 69.53 62.06 71.23 61.77 73.86 C 60.42 77.39 59.95 81.71 56.90 84.23 C 54.25 84.65 51.64 85.30 49.07 86.09 C 49.29 85.57 49.72 84.53 49.93 84.00 C 44.89 84.67 39.83 85.16 34.74 84.73 C 42.44 83.70 49.75 80.96 56.83 77.82 C 63.03 73.49 61.06 66.33 57.76 61.08 Z" />
</g>
<g id="#ebe9d8f7">
<path fill="#ebe9d8" opacity="0.97" d=" M 19.88 62.05 C 21.39 62.00 24.42 61.91 25.94 61.87 C 28.84 61.38 27.27 64.13 27.31 65.78 C 27.21 67.60 27.02 71.23 26.92 73.05 C 23.81 70.26 21.48 65.96 19.88 62.05 Z" />
</g>
<g id="#a39074ff">
<path fill="#a39074" opacity="1.00" d=" M 64.93 67.03 C 66.32 65.42 68.10 64.24 69.79 62.99 C 70.16 64.36 70.56 65.74 71.12 67.06 C 69.05 66.99 66.99 66.98 64.93 67.03 Z" />
</g>
<g id="#ba9841f9">
<path fill="#ba9841" opacity="0.98" d=" M 79.96 71.69 C 83.73 68.26 89.27 67.57 93.70 65.11 C 95.65 66.79 101.44 66.59 100.29 69.89 C 101.85 71.02 105.57 70.13 104.98 72.85 C 103.30 73.19 100.33 72.50 100.06 74.88 C 101.68 76.05 103.77 76.52 105.20 77.94 C 102.21 77.80 99.25 77.39 96.33 76.75 C 94.68 74.35 91.83 75.48 89.36 75.81 C 86.33 74.20 83.07 73.11 79.96 71.69 Z" />
</g>
<g id="#61544cff">
<path fill="#61544c" opacity="1.00" d=" M 27.31 65.78 C 28.73 68.50 29.77 71.38 31.16 74.11 C 31.10 74.85 30.98 76.34 30.93 77.09 C 29.05 76.85 28.06 75.19 26.95 73.88 L 26.92 73.05 C 27.02 71.23 27.21 67.60 27.31 65.78 Z" />
</g>
<g id="#302a29ff">
<path fill="#302a29" opacity="1.00" d=" M 46.16 69.16 C 48.33 68.16 50.34 66.84 52.39 65.60 C 52.58 65.92 52.97 66.55 53.16 66.87 C 53.09 69.51 52.99 72.15 52.85 74.79 C 50.10 77.56 45.93 77.24 42.36 77.02 C 42.72 74.06 44.07 71.29 46.16 69.16 Z" />
</g>
<g id="#aa8c3aff">
<path fill="#aa8c3a" opacity="1.00" d=" M 64.93 67.03 C 66.99 66.98 69.05 66.99 71.12 67.06 L 72.20 67.19 C 71.22 68.00 70.20 68.75 69.00 69.19 C 65.83 70.56 61.23 71.68 62.36 76.57 C 62.01 78.38 61.26 80.23 61.95 82.05 C 61.90 83.49 61.94 85.00 61.11 86.25 L 60.22 85.88 C 59.12 85.31 58.00 84.79 56.90 84.23 C 59.95 81.71 60.42 77.39 61.77 73.86 C 62.06 71.23 64.34 69.53 64.93 67.03 Z" />
</g>
<g id="#a29079ff">
<path fill="#a29079" opacity="1.00" d=" M 72.20 67.19 C 74.37 66.99 75.00 69.57 75.97 71.04 C 75.78 73.31 72.60 74.51 73.28 77.09 C 71.36 75.92 69.42 74.75 67.73 73.26 C 78.01 75.46 71.32 70.95 69.00 69.19 C 70.20 68.75 71.22 68.00 72.20 67.19 Z" />
</g>
<g id="#e4c358ff">
<path fill="#e4c358" opacity="1.00" d=" M 31.16 74.11 C 34.86 69.68 40.25 67.35 46.16 69.16 C 44.07 71.29 42.72 74.06 42.36 77.02 C 43.57 80.00 37.95 82.50 35.96 81.10 C 35.42 80.21 34.79 79.40 34.07 78.66 C 33.09 78.01 31.99 77.57 30.93 77.09 C 30.98 76.34 31.10 74.85 31.16 74.11 Z" />
</g>
<g id="#98782fff">
<path fill="#98782f" opacity="1.00" d=" M 62.36 76.57 C 61.23 71.68 65.83 70.56 69.00 69.19 C 71.32 70.95 78.01 75.46 67.73 73.26 C 69.42 74.75 71.36 75.92 73.28 77.09 C 70.51 77.49 67.76 77.83 64.99 78.17 C 65.98 79.45 67.09 80.63 68.06 81.92 C 67.25 81.99 65.61 82.11 64.79 82.18 C 64.08 82.15 62.66 82.09 61.95 82.05 C 61.26 80.23 62.01 78.38 62.36 76.57 Z" />
</g>
<g id="#f7e065ff">
<path fill="#f7e065" opacity="1.00" d=" M 26.95 73.88 C 28.06 75.19 29.05 76.85 30.93 77.09 C 31.99 77.57 33.09 78.01 34.07 78.66 C 32.26 79.49 31.92 80.77 33.21 82.32 C 31.78 83.07 30.33 83.76 28.82 84.34 L 28.03 83.96 C 27.31 80.98 27.16 77.91 26.96 74.86 L 26.95 73.88 Z" />
</g>
<g id="#ebe6c5fb">
<path fill="#ebe6c5" opacity="1.00" d=" M 21.04 80.87 C 22.29 78.43 24.83 76.64 26.96 74.86 C 27.16 77.91 27.31 80.98 28.03 83.96 C 27.53 83.77 26.53 83.39 26.03 83.21 C 24.29 82.61 22.53 81.97 21.04 80.87 Z" />
</g>
<g id="#aa8634fe">
<path fill="#aa8634" opacity="1.00" d=" M 89.36 75.81 C 91.83 75.48 94.68 74.35 96.33 76.75 C 96.16 77.49 95.80 78.96 95.63 79.70 C 91.94 83.06 96.82 90.46 91.42 92.33 C 89.07 89.43 86.60 86.62 84.12 83.83 C 83.50 82.39 81.68 80.96 82.25 79.33 C 84.59 78.10 87.07 77.14 89.36 75.81 Z" />
</g>
<g id="#9c886aff">
<path fill="#9c886a" opacity="1.00" d=" M 73.28 77.09 C 74.09 78.39 74.04 79.26 72.22 78.97 C 70.63 79.03 68.53 78.69 68.97 81.00 C 69.36 83.48 65.69 84.69 64.79 82.18 C 65.61 82.11 67.25 81.99 68.06 81.92 C 67.09 80.63 65.98 79.45 64.99 78.17 C 67.76 77.83 70.51 77.49 73.28 77.09 Z" />
</g>
<g id="#5f5334ff">
<path fill="#5f5334" opacity="1.00" d=" M 33.21 82.32 C 31.92 80.77 32.26 79.49 34.07 78.66 C 34.79 79.40 35.42 80.21 35.96 81.10 C 35.05 81.50 34.13 81.91 33.21 82.32 Z" />
</g>
<g id="#a89984ff">
<path fill="#a89984" opacity="1.00" d=" M 68.97 81.00 C 68.53 78.69 70.63 79.03 72.22 78.97 C 72.89 81.44 70.93 83.55 70.90 85.99 C 75.42 86.37 79.74 84.63 84.12 83.83 C 86.60 86.62 89.07 89.43 91.42 92.33 C 91.00 92.60 90.17 93.12 89.76 93.38 C 86.59 92.52 83.40 91.75 80.20 91.06 C 78.81 90.73 77.44 90.34 76.04 90.06 C 73.36 89.45 70.65 89.02 67.91 88.93 C 65.72 87.84 63.38 87.13 61.11 86.25 C 61.94 85.00 61.90 83.49 61.95 82.05 C 62.66 82.09 64.08 82.15 64.79 82.18 C 65.69 84.69 69.36 83.48 68.97 81.00 Z" />
</g>
<g id="#b7973cfb">
<path fill="#b7973c" opacity="1.00" d=" M 91.42 92.33 C 96.82 90.46 91.94 83.06 95.63 79.70 C 97.70 83.45 99.15 87.76 99.19 92.09 C 99.10 92.46 98.92 93.21 98.84 93.58 C 95.80 92.57 92.73 94.49 89.76 93.38 C 90.17 93.12 91.00 92.60 91.42 92.33 Z" />
</g>
<g id="#ccbfaff8">
<path fill="#ccbfaf" opacity="0.97" d=" M 26.03 83.21 C 26.53 83.39 27.53 83.77 28.03 83.96 L 28.82 84.34 C 29.12 84.52 29.70 84.87 29.99 85.05 C 30.22 87.34 30.49 89.63 30.79 91.92 C 28.41 93.95 25.75 95.67 22.94 97.04 C 23.24 92.27 25.89 87.99 26.03 83.21 Z" />
</g>
<g id="#a07e2eff">
<path fill="#a07e2e" opacity="1.00" d=" M 34.74 84.73 C 39.83 85.16 44.89 84.67 49.93 84.00 C 49.72 84.53 49.29 85.57 49.07 86.09 C 47.77 86.53 46.43 86.87 45.09 87.16 C 41.65 87.09 38.21 87.03 34.78 87.19 C 33.74 86.78 32.73 86.32 31.73 85.83 C 32.72 85.42 33.72 85.05 34.74 84.73 Z" />
</g>
<g id="#a5937cff">
<path fill="#a5937c" opacity="1.00" d=" M 49.07 86.09 C 51.64 85.30 54.25 84.65 56.90 84.23 C 58.00 84.79 59.12 85.31 60.22 85.88 C 55.18 87.00 50.10 90.64 44.86 88.12 L 45.09 87.16 C 46.43 86.87 47.77 86.53 49.07 86.09 Z" />
</g>
<g id="#c5b8a5ff">
<path fill="#c5b8a5" opacity="1.00" d=" M 29.99 85.05 C 30.42 85.25 31.30 85.63 31.73 85.83 C 32.73 86.32 33.74 86.78 34.78 87.19 C 35.78 87.58 36.81 87.91 37.86 88.16 C 38.67 90.75 39.41 93.36 40.28 95.94 C 39.39 98.09 37.98 99.96 36.77 101.93 C 35.74 103.52 34.86 105.20 33.95 106.86 C 33.00 108.29 32.09 109.76 31.06 111.15 C 31.35 107.49 31.86 103.86 32.24 100.22 C 32.69 97.11 33.28 94.05 33.93 90.98 C 33.36 91.15 32.22 91.49 31.65 91.67 L 30.79 91.92 C 30.49 89.63 30.22 87.34 29.99 85.05 Z" />
</g>
<g id="#b0a391fd">
<path fill="#b0a391" opacity="1.00" d=" M 44.86 88.12 C 50.10 90.64 55.18 87.00 60.22 85.88 L 61.11 86.25 C 63.38 87.13 65.72 87.84 67.91 88.93 C 68.75 91.45 69.77 93.90 70.71 96.38 C 71.12 97.66 71.56 98.92 72.09 100.15 C 72.67 101.60 73.28 103.03 73.96 104.43 C 74.12 105.73 74.35 107.04 74.29 108.36 C 70.48 104.53 66.38 100.66 62.27 96.97 C 61.88 98.76 61.32 100.51 60.67 102.22 C 60.51 101.69 60.20 100.63 60.04 100.09 C 59.06 96.79 58.63 93.15 56.85 90.17 C 51.91 90.77 45.74 92.02 41.76 88.14 C 42.54 88.14 44.08 88.12 44.86 88.12 Z" />
</g>
<g id="#b99f54ff">
<path fill="#b99f54" opacity="1.00" d=" M 34.78 87.19 C 38.21 87.03 41.65 87.09 45.09 87.16 L 44.86 88.12 C 44.08 88.12 42.54 88.14 41.76 88.14 C 40.46 88.13 39.16 88.13 37.86 88.16 C 36.81 87.91 35.78 87.58 34.78 87.19 Z" />
</g>
<g id="#b8ad9dfe">
<path fill="#b8ad9d" opacity="1.00" d=" M 37.86 88.16 C 39.16 88.13 40.46 88.13 41.76 88.14 C 45.74 92.02 51.91 90.77 56.85 90.17 C 58.63 93.15 59.06 96.79 60.04 100.09 C 58.48 98.91 57.12 97.35 55.18 96.79 C 55.07 99.47 54.92 102.15 54.73 104.82 C 54.23 109.33 53.54 113.82 52.68 118.29 C 51.94 116.89 51.32 115.44 50.80 113.96 C 50.33 112.60 49.93 111.21 49.37 109.88 C 48.21 106.85 46.84 103.90 45.73 100.85 C 45.42 99.87 45.09 98.90 44.74 97.94 C 43.46 99.25 42.47 100.80 41.27 102.18 C 41.02 100.62 40.53 97.50 40.28 95.94 C 39.41 93.36 38.67 90.75 37.86 88.16 Z" />
</g>
<g id="#8a6226ff">
<path fill="#8a6226" opacity="1.00" d=" M 67.91 88.93 C 70.65 89.02 73.36 89.45 76.04 90.06 C 78.02 93.24 72.64 94.72 70.71 96.38 C 69.77 93.90 68.75 91.45 67.91 88.93 Z" />
</g>
<g id="#a07932ff">
<path fill="#a07932" opacity="1.00" d=" M 76.04 90.06 C 77.44 90.34 78.81 90.73 80.20 91.06 C 78.34 94.75 75.13 97.46 72.09 100.15 C 71.56 98.92 71.12 97.66 70.71 96.38 C 72.64 94.72 78.02 93.24 76.04 90.06 Z" />
</g>
<g id="#e3ba5aff">
<path fill="#e3ba5a" opacity="1.00" d=" M 31.65 91.67 C 32.22 91.49 33.36 91.15 33.93 90.98 C 33.28 94.05 32.69 97.11 32.24 100.22 L 32.15 99.18 C 32.02 97.30 31.77 93.55 31.65 91.67 Z" />
</g>
<g id="#aa8836fa">
<path fill="#aa8836" opacity="0.98" d=" M 80.20 91.06 C 83.40 91.75 86.59 92.52 89.76 93.38 C 92.73 94.49 95.80 92.57 98.84 93.58 C 98.92 93.21 99.10 92.46 99.19 92.09 C 100.22 92.22 100.37 93.11 99.64 94.78 C 99.49 95.30 99.20 96.36 99.06 96.88 C 97.05 97.55 95.16 98.60 93.08 99.02 C 91.61 98.15 90.37 96.93 88.91 96.05 C 86.54 95.14 84.43 93.62 82.00 92.92 C 82.25 94.28 82.69 95.60 82.99 96.95 C 82.51 96.77 81.57 96.39 81.09 96.21 C 78.50 98.76 76.28 101.64 73.96 104.43 C 73.28 103.03 72.67 101.60 72.09 100.15 C 75.13 97.46 78.34 94.75 80.20 91.06 Z" />
</g>
<g id="#c09b41f9">
<path fill="#c09b41" opacity="0.98" d=" M 99.06 96.88 C 99.20 96.36 99.49 95.30 99.64 94.78 C 102.45 102.23 103.56 110.21 106.38 117.68 C 106.26 119.06 106.01 121.83 105.89 123.21 C 102.90 123.52 105.09 119.49 103.10 118.99 C 102.70 120.62 103.82 123.97 101.00 122.99 C 98.56 123.30 98.43 120.22 97.15 118.81 C 97.04 120.54 96.99 122.26 96.94 123.99 C 91.50 124.14 94.75 116.42 93.97 112.93 C 93.43 108.99 95.79 114.01 97.88 113.13 C 97.06 107.51 96.72 102.08 99.06 96.88 Z" />
</g>
<g id="#8d6a2bf9">
<path fill="#8d6a2b" opacity="0.98" d=" M 40.28 95.94 C 40.53 97.50 41.02 100.62 41.27 102.18 C 42.47 100.80 43.46 99.25 44.74 97.94 C 45.09 98.90 45.42 99.87 45.73 100.85 C 43.39 103.09 42.45 106.68 39.71 108.40 C 38.16 106.54 37.49 104.19 36.77 101.93 C 37.98 99.96 39.39 98.09 40.28 95.94 Z" />
</g>
<g id="#bd983ffe">
<path fill="#bd983f" opacity="1.00" d=" M 81.09 96.21 C 81.57 96.39 82.51 96.77 82.99 96.95 C 83.27 97.89 83.42 98.84 83.44 99.81 C 83.29 101.42 83.37 103.03 83.35 104.63 C 80.26 105.59 78.41 110.38 74.93 109.26 C 74.77 109.03 74.45 108.58 74.29 108.36 C 74.35 107.04 74.12 105.73 73.96 104.43 C 76.28 101.64 78.50 98.76 81.09 96.21 Z" />
</g>
<g id="#ba933cfa">
<path fill="#ba933c" opacity="0.98" d=" M 88.91 96.05 C 90.37 96.93 91.61 98.15 93.08 99.02 C 95.16 98.60 97.05 97.55 99.06 96.88 C 96.72 102.08 97.06 107.51 97.88 113.13 C 95.79 114.01 93.43 108.99 93.97 112.93 L 93.15 112.93 C 92.61 107.11 89.76 101.80 88.91 96.05 Z" />
</g>
<g id="#9f7c33fb">
<path fill="#9f7c33" opacity="1.00" d=" M 55.18 96.79 C 57.12 97.35 58.48 98.91 60.04 100.09 C 60.20 100.63 60.51 101.69 60.67 102.22 C 61.11 105.26 61.00 110.21 59.06 112.19 C 55.07 114.19 55.85 107.17 54.73 104.82 C 54.92 102.15 55.07 99.47 55.18 96.79 Z" />
</g>
<g id="#ceaf4cf9">
<path fill="#ceaf4c" opacity="0.98" d=" M 31.14 98.95 L 32.15 99.18 L 32.24 100.22 C 31.86 103.86 31.35 107.49 31.06 111.15 C 32.09 109.76 33.00 108.29 33.95 106.86 C 33.49 113.19 29.37 118.60 27.76 124.72 C 27.15 126.62 26.43 128.74 24.25 129.30 C 21.35 129.23 18.32 128.86 16.08 126.83 C 15.52 123.12 18.79 120.33 21.63 118.57 C 24.85 112.20 31.29 106.57 31.14 98.95 Z" />
</g>
<g id="#cdab49f9">
<path fill="#cdab49" opacity="0.98" d=" M 83.35 104.63 C 83.37 103.03 83.29 101.42 83.44 99.81 C 86.43 104.82 86.06 111.01 88.57 116.23 C 89.96 120.76 92.31 125.11 92.01 130.02 C 92.86 133.62 88.41 136.75 85.00 135.01 C 78.08 138.24 77.09 128.93 80.60 125.73 C 79.81 119.90 76.82 114.74 74.93 109.26 C 78.41 110.38 80.26 105.59 83.35 104.63 Z" />
</g>
<g id="#a38133f6">
<path fill="#a38133" opacity="0.96" d=" M 33.95 106.86 C 34.86 105.20 35.74 103.52 36.77 101.93 C 37.49 104.19 38.16 106.54 39.71 108.40 L 40.04 109.03 C 36.66 114.78 32.34 120.12 30.56 126.65 C 28.99 128.87 28.27 132.62 23.84 130.02 L 24.25 129.30 C 26.43 128.74 27.15 126.62 27.76 124.72 C 29.37 118.60 33.49 113.19 33.95 106.86 Z" />
</g>
<g id="#af8d3bf9">
<path fill="#af8d3b" opacity="0.98" d=" M 52.68 118.29 C 53.54 113.82 54.23 109.33 54.73 104.82 C 55.85 107.17 55.07 114.19 59.06 112.19 C 59.27 115.30 58.99 118.53 56.82 120.91 C 54.41 120.75 49.59 120.43 47.18 120.28 C 47.06 117.59 47.98 114.81 50.80 113.96 C 51.32 115.44 51.94 116.89 52.68 118.29 Z" />
</g>
<g id="#d0ad4bf5">
<path fill="#d0ad4b" opacity="0.96" d=" M 49.37 109.88 C 49.93 111.21 50.33 112.60 50.80 113.96 C 47.98 114.81 47.06 117.59 47.18 120.28 C 44.78 120.55 41.95 119.00 43.18 116.23 C 45.26 114.14 47.42 112.11 49.37 109.88 Z" />
</g>
<g id="#967a30f3">
<path fill="#967a30" opacity="0.95" d=" M 97.15 118.81 C 98.43 120.22 98.56 123.30 101.00 122.99 C 103.82 123.97 102.70 120.62 103.10 118.99 C 105.09 119.49 102.90 123.52 105.89 123.21 C 106.18 126.06 99.21 123.28 96.94 123.99 C 96.99 122.26 97.04 120.54 97.15 118.81 Z" />
</g>
</svg>
