<?xml version="1.0" encoding="UTF-8" ?>
<!DOCTYPE svg PUBLIC "-//W3C//DTD SVG 1.1//EN" "http://www.w3.org/Graphics/SVG/1.1/DTD/svg11.dtd">
<svg width="118pt" height="207pt" viewBox="0 0 118 207" version="1.1" xmlns="http://www.w3.org/2000/svg">
<g id="#ccaf71fc">
<path fill="#ccaf71" opacity="1.00" d=" M 58.07 3.87 C 60.26 6.66 62.83 9.40 63.78 12.90 C 62.43 16.68 65.51 20.10 66.35 23.67 C 68.65 30.76 74.27 36.19 76.99 43.12 C 74.06 42.84 71.18 41.80 68.94 39.85 C 69.16 39.37 69.59 38.43 69.80 37.95 C 67.98 35.24 66.64 32.14 64.26 29.84 C 63.43 28.68 61.61 27.70 62.12 26.02 C 62.20 24.27 63.73 21.90 61.37 21.09 C 60.67 22.46 60.01 23.85 59.25 25.18 C 58.65 24.07 59.93 20.66 58.06 21.12 C 57.89 22.66 57.54 25.72 57.37 27.26 C 54.58 23.28 56.38 17.68 56.00 13.01 C 58.23 12.44 55.78 16.53 58.02 16.05 C 57.98 11.98 58.00 7.92 58.07 3.87 Z" />
</g>
<g id="#c29f64fc">
<path fill="#c29f64" opacity="1.00" d=" M 63.78 12.90 C 65.00 13.37 65.31 14.80 66.17 15.67 C 67.36 15.58 68.54 15.44 69.73 15.35 C 71.78 21.13 74.55 26.70 78.11 31.69 C 81.81 29.84 79.84 36.60 81.88 36.93 C 82.25 35.00 81.89 32.02 83.83 31.00 C 84.97 37.80 87.20 44.39 88.23 51.21 C 87.79 52.78 88.35 53.36 89.89 52.94 C 90.05 50.41 90.36 45.35 90.52 42.82 C 92.28 48.43 94.12 54.10 95.00 59.91 C 89.94 58.19 87.66 68.34 82.98 68.38 C 81.39 65.01 79.12 62.01 76.75 59.15 C 73.62 58.75 72.93 63.01 71.35 65.01 C 71.03 59.02 63.78 58.77 59.31 59.66 C 56.35 56.51 57.01 51.98 57.01 47.98 C 60.24 47.73 58.67 52.57 60.72 54.34 C 60.74 52.56 60.77 49.01 60.79 47.23 C 60.95 44.84 61.36 42.47 61.31 40.07 C 61.54 39.78 61.99 39.20 62.21 38.90 C 63.27 40.44 63.93 42.49 65.84 43.18 C 68.76 44.07 65.51 48.80 67.83 50.21 C 68.11 47.62 68.67 42.44 68.94 39.85 C 71.18 41.80 74.06 42.84 76.99 43.12 C 74.27 36.19 68.65 30.76 66.35 23.67 C 65.51 20.10 62.43 16.68 63.78 12.90 M 75.11 44.19 C 72.16 48.15 71.79 53.32 71.04 58.04 C 77.20 57.84 71.29 48.29 76.76 46.68 C 76.22 45.91 76.49 43.65 75.11 44.19 Z" />
</g>
<g id="#eacd86ff">
<path fill="#eacd86" opacity="1.00" d=" M 58.06 21.12 C 59.93 20.66 58.65 24.07 59.25 25.18 C 60.01 23.85 60.67 22.46 61.37 21.09 C 63.73 21.90 62.20 24.27 62.12 26.02 C 61.61 27.70 63.43 28.68 64.26 29.84 C 64.05 32.97 63.64 36.09 62.21 38.90 C 61.99 39.20 61.54 39.78 61.31 40.07 C 60.20 40.32 59.09 40.57 57.98 40.82 C 58.59 36.87 60.60 31.85 57.27 28.69 C 57.30 28.33 57.35 27.62 57.37 27.26 C 57.54 25.72 57.89 22.66 58.06 21.12 Z" />
</g>
<g id="#fce795ff">
<path fill="#fce795" opacity="1.00" d=" M 57.27 28.69 C 60.60 31.85 58.59 36.87 57.98 40.82 C 54.73 41.82 57.78 34.98 56.98 33.00 C 56.98 31.56 57.07 30.12 57.27 28.69 Z" />
</g>
<g id="#d9ba7aff">
<path fill="#d9ba7a" opacity="1.00" d=" M 64.26 29.84 C 66.64 32.14 67.98 35.24 69.80 37.95 C 69.59 38.43 69.16 39.37 68.94 39.85 C 68.67 42.44 68.11 47.62 67.83 50.21 C 65.51 48.80 68.76 44.07 65.84 43.18 C 63.93 42.49 63.27 40.44 62.21 38.90 C 63.64 36.09 64.05 32.97 64.26 29.84 Z" />
</g>
<g id="#e0c07cfe">
<path fill="#e0c07c" opacity="1.00" d=" M 54.11 33.10 C 56.27 32.23 53.72 36.71 55.90 35.94 C 55.62 34.33 55.98 33.35 56.98 33.00 C 57.78 34.98 54.73 41.82 57.98 40.82 C 59.09 40.57 60.20 40.32 61.31 40.07 C 61.36 42.47 60.95 44.84 60.79 47.23 C 60.39 45.84 60.08 44.43 59.73 43.04 C 55.29 44.85 55.31 50.71 54.63 54.68 C 52.93 61.93 55.09 69.46 58.16 76.01 C 60.28 76.18 61.88 74.59 63.77 73.91 C 64.10 75.49 64.78 78.66 65.12 80.24 C 62.88 82.28 60.34 84.17 57.28 84.69 C 57.08 84.27 56.69 83.44 56.49 83.03 C 54.83 86.08 53.54 89.31 52.09 92.47 C 51.75 91.80 51.06 90.46 50.71 89.80 C 51.71 87.19 49.13 87.86 48.07 89.23 C 47.71 92.66 48.79 95.91 49.37 99.22 L 49.12 100.06 C 48.92 100.59 48.52 101.66 48.33 102.19 C 47.50 98.82 46.32 95.54 45.73 92.11 C 44.23 91.80 43.57 92.47 43.75 94.14 C 43.49 93.56 42.97 92.40 42.71 91.82 C 42.21 87.19 36.88 94.12 40.03 96.00 C 41.08 100.34 38.61 103.99 37.99 108.06 C 37.76 108.35 37.31 108.94 37.09 109.23 C 36.83 106.57 37.43 104.01 38.45 101.57 C 40.02 97.69 38.06 94.00 38.00 90.17 C 40.58 87.65 49.06 90.87 48.00 85.12 C 45.11 82.99 43.09 79.73 44.46 76.08 C 44.82 74.98 45.27 73.93 45.79 72.91 C 45.77 74.88 46.48 77.48 48.99 77.11 C 49.17 74.28 49.35 71.33 48.21 68.68 C 48.85 66.11 51.00 63.23 48.41 61.07 C 48.94 59.80 49.48 58.53 49.89 57.21 C 50.44 55.50 51.56 53.99 51.85 52.20 C 52.41 45.81 53.31 39.46 54.11 33.10 Z" />
</g>
<g id="#7d6940bc">
<path fill="#7d6940" opacity="0.74" d=" M 89.04 38.95 C 90.68 39.14 90.14 41.57 90.52 42.82 C 90.36 45.35 90.05 50.41 89.89 52.94 C 88.35 53.36 87.79 52.78 88.23 51.21 C 89.04 47.16 88.88 43.05 89.04 38.95 Z" />
</g>
<g id="#a58652e5">
<path fill="#a58652" opacity="0.90" d=" M 48.07 42.02 C 51.23 43.74 47.48 51.41 51.85 52.20 C 51.56 53.99 50.44 55.50 49.89 57.21 C 49.30 56.08 48.75 54.93 48.18 53.79 C 47.98 53.28 47.56 52.27 47.36 51.77 C 46.57 48.60 48.10 45.22 48.07 42.02 Z" />
</g>
<g id="#d3b173ff">
<path fill="#d3b173" opacity="1.00" d=" M 54.63 54.68 C 55.31 50.71 55.29 44.85 59.73 43.04 C 60.08 44.43 60.39 45.84 60.79 47.23 C 60.77 49.01 60.74 52.56 60.72 54.34 C 58.67 52.57 60.24 47.73 57.01 47.98 C 57.01 51.98 56.35 56.51 59.31 59.66 C 63.78 58.77 71.03 59.02 71.35 65.01 C 72.93 63.01 73.62 58.75 76.75 59.15 C 79.12 62.01 81.39 65.01 82.98 68.38 C 78.96 70.49 77.07 66.38 75.63 63.32 C 73.32 62.11 73.83 65.62 73.18 66.97 C 74.74 68.84 76.87 70.20 78.42 72.10 C 74.14 75.06 69.59 77.58 65.12 80.24 C 64.78 78.66 64.10 75.49 63.77 73.91 C 61.88 74.59 60.28 76.18 58.16 76.01 C 55.09 69.46 52.93 61.93 54.63 54.68 Z" />
</g>
<g id="#e3bc76ff">
<path fill="#e3bc76" opacity="1.00" d=" M 75.11 44.19 C 76.49 43.65 76.22 45.91 76.76 46.68 C 71.29 48.29 77.20 57.84 71.04 58.04 C 71.79 53.32 72.16 48.15 75.11 44.19 Z" />
</g>
<g id="#f2d78dfc">
<path fill="#f2d78d" opacity="1.00" d=" M 47.36 51.77 C 47.56 52.27 47.98 53.28 48.18 53.79 C 48.24 55.61 48.35 59.25 48.41 61.07 C 51.00 63.23 48.85 66.11 48.21 68.68 C 47.43 70.10 46.57 71.49 45.79 72.91 C 45.27 73.93 44.82 74.98 44.46 76.08 C 44.30 75.52 43.99 74.39 43.83 73.83 C 43.89 71.20 43.95 68.56 44.02 65.93 C 44.89 61.16 46.15 56.46 47.36 51.77 Z" />
</g>
<g id="#c9a566ff">
<path fill="#c9a566" opacity="1.00" d=" M 48.18 53.79 C 48.75 54.93 49.30 56.08 49.89 57.21 C 49.48 58.53 48.94 59.80 48.41 61.07 C 48.35 59.25 48.24 55.61 48.18 53.79 Z" />
</g>
<g id="#c8a96afe">
<path fill="#c8a96a" opacity="1.00" d=" M 82.98 68.38 C 87.66 68.34 89.94 58.19 95.00 59.91 C 96.10 66.32 97.36 72.71 98.35 79.14 C 98.74 82.10 99.09 85.11 100.15 87.92 C 98.57 86.81 97.13 85.52 95.58 84.36 C 92.90 85.16 84.20 80.88 87.84 89.01 C 84.42 89.71 86.27 85.04 85.02 82.98 C 84.22 81.18 82.18 80.35 80.92 78.92 C 81.16 76.54 84.08 74.05 82.30 71.82 C 81.49 70.58 79.64 72.17 78.42 72.10 C 76.87 70.20 74.74 68.84 73.18 66.97 C 73.83 65.62 73.32 62.11 75.63 63.32 C 77.07 66.38 78.96 70.49 82.98 68.38 M 91.25 67.29 C 88.75 69.22 90.28 73.75 86.99 74.99 C 83.79 75.28 86.00 82.13 88.24 79.25 C 90.39 75.31 94.92 71.99 91.88 66.83 L 91.25 67.29 Z" />
</g>
<g id="#a07b48e5">
<path fill="#a07b48" opacity="0.90" d=" M 41.22 63.27 C 42.70 62.63 41.95 66.12 42.56 67.17 C 42.06 68.75 41.51 70.32 41.14 71.93 L 40.84 72.96 C 40.30 72.26 39.78 71.56 39.25 70.86 C 39.22 68.27 40.77 65.84 41.22 63.27 Z" />
</g>
<g id="#dab471fe">
<path fill="#dab471" opacity="1.00" d=" M 42.56 67.17 C 42.93 66.86 43.65 66.24 44.02 65.93 C 43.95 68.56 43.89 71.20 43.83 73.83 C 43.31 74.97 42.82 76.12 42.26 77.24 C 41.98 75.91 41.42 73.26 41.14 71.93 C 41.51 70.32 42.06 68.75 42.56 67.17 Z" />
</g>
<g id="#ddb875ff">
<path fill="#ddb875" opacity="1.00" d=" M 91.25 67.29 L 91.88 66.83 C 94.92 71.99 90.39 75.31 88.24 79.25 C 86.00 82.13 83.79 75.28 86.99 74.99 C 90.28 73.75 88.75 69.22 91.25 67.29 Z" />
</g>
<g id="#54432a95">
<path fill="#54432a" opacity="0.58" d=" M 101.23 68.76 C 103.44 66.17 103.77 72.55 102.61 73.94 C 102.27 72.64 101.57 70.05 101.23 68.76 Z" />
</g>
<g id="#d27234f7">
<path fill="#d27234" opacity="0.97" d=" M 2.98 68.95 C 3.43 69.01 4.34 69.12 4.79 69.18 C 10.33 75.92 16.29 83.25 18.03 91.94 C 17.98 96.18 16.73 100.59 18.38 104.67 C 18.99 106.12 18.84 107.68 18.45 109.17 C 14.19 99.21 13.94 87.60 7.23 78.68 C 8.48 90.33 10.84 103.09 18.75 112.23 C 18.98 113.94 19.15 115.68 19.67 117.34 C 19.78 117.70 19.99 118.44 20.10 118.81 C 20.26 119.35 20.59 120.43 20.76 120.97 C 19.52 121.65 18.33 122.42 17.09 123.11 C 17.06 122.31 17.00 120.70 16.97 119.90 C 16.61 117.83 19.03 115.52 17.21 113.78 C 10.22 104.83 7.36 93.63 5.54 82.64 C 5.43 77.94 2.87 73.66 2.98 68.95 Z" />
</g>
<g id="#d0a768ff">
<path fill="#d0a768" opacity="1.00" d=" M 48.21 68.68 C 49.35 71.33 49.17 74.28 48.99 77.11 C 46.48 77.48 45.77 74.88 45.79 72.91 C 46.57 71.49 47.43 70.10 48.21 68.68 Z" />
</g>
<g id="#be9a5df8">
<path fill="#be9a5d" opacity="0.97" d=" M 101.23 68.76 C 101.57 70.05 102.27 72.64 102.61 73.94 C 104.53 77.86 100.68 85.27 104.26 87.86 C 103.36 89.42 103.08 93.51 100.77 90.92 C 100.71 89.89 100.50 88.89 100.15 87.92 C 99.09 85.11 98.74 82.10 98.35 79.14 C 100.23 76.00 100.44 72.26 101.23 68.76 Z" />
</g>
<g id="#c6a164f7">
<path fill="#c6a164" opacity="0.97" d=" M 39.25 70.86 C 39.78 71.56 40.30 72.26 40.84 72.96 C 40.41 74.63 39.57 76.18 38.02 77.04 C 37.76 74.87 38.39 72.81 39.25 70.86 Z" />
</g>
<g id="#cd6a33ff">
<path fill="#cd6a33" opacity="1.00" d=" M 78.42 72.10 C 79.64 72.17 81.49 70.58 82.30 71.82 C 81.69 72.87 81.07 73.92 80.47 74.97 C 79.20 73.79 78.04 75.13 76.95 75.82 C 67.26 82.02 55.95 88.64 52.29 100.25 C 51.49 100.20 49.91 100.11 49.12 100.06 L 49.37 99.22 C 49.57 98.72 49.97 97.71 50.17 97.20 C 50.85 95.64 51.49 94.06 52.09 92.47 C 53.54 89.31 54.83 86.08 56.49 83.03 C 56.69 83.44 57.08 84.27 57.28 84.69 C 60.34 84.17 62.88 82.28 65.12 80.24 C 69.59 77.58 74.14 75.06 78.42 72.10 Z" />
</g>
<g id="#e8cd87fe">
<path fill="#e8cd87" opacity="1.00" d=" M 41.14 71.93 C 41.42 73.26 41.98 75.91 42.26 77.24 C 42.82 76.12 43.31 74.97 43.83 73.83 C 43.99 74.39 44.30 75.52 44.46 76.08 C 43.09 79.73 45.11 82.99 48.00 85.12 C 49.06 90.87 40.58 87.65 38.00 90.17 C 38.06 94.00 40.02 97.69 38.45 101.57 C 37.43 104.01 36.83 106.57 37.09 109.23 L 37.07 110.09 L 36.24 110.13 C 34.92 109.34 33.58 108.55 32.02 108.39 C 31.79 105.28 35.36 103.99 36.39 101.36 C 37.92 97.72 35.80 94.01 34.40 90.72 C 34.25 88.77 33.07 87.43 31.32 86.69 C 30.40 85.06 31.90 83.43 32.32 81.90 C 32.79 83.95 33.80 84.19 34.96 82.46 C 36.63 81.07 36.43 78.40 38.02 77.04 C 39.57 76.18 40.41 74.63 40.84 72.96 L 41.14 71.93 Z" />
</g>
<g id="#d1b776ff">
<path fill="#d1b776" opacity="1.00" d=" M 82.30 71.82 C 84.08 74.05 81.16 76.54 80.92 78.92 C 82.18 80.35 84.22 81.18 85.02 82.98 C 86.27 85.04 84.42 89.71 87.84 89.01 C 84.20 80.88 92.90 85.16 95.58 84.36 C 97.13 85.52 98.57 86.81 100.15 87.92 C 100.50 88.89 100.71 89.89 100.77 90.92 C 96.81 93.63 97.22 99.56 93.16 102.08 C 89.29 99.24 93.84 93.40 90.40 91.17 C 85.95 94.95 87.82 100.59 87.16 105.69 C 92.71 105.53 88.29 111.51 86.77 113.78 C 82.71 116.98 78.89 121.96 72.98 121.03 C 70.93 120.91 68.37 122.93 69.80 125.04 C 70.08 126.10 70.40 127.16 70.76 128.20 C 70.86 129.38 70.94 130.55 71.01 131.73 C 70.72 132.00 70.15 132.56 69.86 132.84 C 68.36 133.71 68.27 135.23 68.42 136.79 C 64.72 139.10 61.77 143.26 62.27 147.72 C 63.29 150.50 65.50 146.47 67.14 145.97 C 67.14 147.94 65.38 148.94 64.01 150.01 C 61.20 151.57 61.16 155.15 59.67 157.69 C 55.76 161.69 50.63 164.12 45.76 166.72 C 47.12 166.97 49.86 167.46 51.23 167.70 C 48.36 168.93 45.14 169.29 42.05 168.88 C 40.36 168.36 38.65 167.91 36.93 167.47 C 37.52 167.17 38.70 166.57 39.28 166.27 C 30.23 170.63 33.76 163.42 36.69 164.32 C 45.27 165.77 54.95 161.80 58.63 153.68 C 60.40 147.93 61.96 142.01 62.02 135.96 C 55.76 135.43 55.45 144.22 50.26 146.27 C 42.19 149.19 31.66 152.93 23.98 147.01 C 21.43 145.27 17.23 143.56 17.04 139.93 C 20.01 142.50 23.60 144.13 27.00 146.03 C 34.15 149.72 42.79 146.60 49.75 143.72 C 52.91 139.21 56.81 135.06 58.94 129.91 C 59.06 125.63 59.08 121.34 58.86 117.06 C 58.93 116.26 59.06 114.67 59.12 113.87 C 62.89 120.21 71.85 114.70 76.88 112.93 C 75.95 110.62 74.54 108.52 73.91 106.10 C 73.00 103.28 73.78 99.75 71.20 97.80 C 71.86 96.45 72.56 95.12 73.26 93.80 C 74.89 96.31 71.90 104.28 77.02 104.05 C 76.83 100.06 76.47 95.72 73.88 92.49 C 75.66 86.51 78.30 80.82 80.47 74.97 C 81.07 73.92 81.69 72.87 82.30 71.82 Z" />
</g>
<g id="#b55d2dff">
<path fill="#b55d2d" opacity="1.00" d=" M 76.95 75.82 C 78.04 75.13 79.20 73.79 80.47 74.97 C 78.30 80.82 75.66 86.51 73.88 92.49 C 73.72 92.82 73.41 93.47 73.26 93.80 C 72.56 95.12 71.86 96.45 71.20 97.80 C 69.47 101.04 67.05 103.82 64.22 106.14 C 63.87 105.58 63.16 104.45 62.80 103.88 C 70.09 96.18 75.23 86.29 76.95 75.82 Z" />
</g>
<g id="#071d24ff">
<path fill="#071d24" opacity="1.00" d=" M 52.29 100.25 C 55.95 88.64 67.26 82.02 76.95 75.82 C 75.23 86.29 70.09 96.18 62.80 103.88 C 59.16 107.57 55.26 110.99 51.01 113.96 C 51.31 112.63 51.69 111.31 51.99 109.99 C 50.34 111.09 48.99 112.80 46.92 113.11 C 48.30 108.67 50.60 104.58 52.29 100.25 Z" />
</g>
<g id="#8c7741cf">
<path fill="#8c7741" opacity="0.81" d=" M 32.32 81.90 C 32.85 80.66 32.34 78.37 33.84 77.98 C 34.06 79.51 34.13 81.10 34.96 82.46 C 33.80 84.19 32.79 83.95 32.32 81.90 Z" />
</g>
<g id="#172a2fff">
<path fill="#172a2f" opacity="1.00" d=" M 7.23 78.68 C 13.94 87.60 14.19 99.21 18.45 109.17 C 18.58 109.50 18.83 110.16 18.96 110.49 C 18.91 110.92 18.80 111.79 18.75 112.23 C 10.84 103.09 8.48 90.33 7.23 78.68 Z" />
</g>
<g id="#766540bd">
<path fill="#766540" opacity="0.74" d=" M 104.26 87.86 C 103.24 85.09 109.42 79.19 106.03 88.98 C 105.58 90.12 107.03 93.22 105.12 92.99 C 104.99 91.26 104.81 89.52 104.26 87.86 Z" />
</g>
<g id="#f3e9a7fb">
<path fill="#f3e9a7" opacity="1.00" d=" M 31.32 86.69 C 33.07 87.43 34.25 88.77 34.40 90.72 C 36.32 98.33 30.61 103.69 29.59 110.69 C 27.09 113.88 21.87 113.36 19.67 117.34 C 19.15 115.68 18.98 113.94 18.75 112.23 C 18.80 111.79 18.91 110.92 18.96 110.49 C 20.05 109.21 21.05 107.85 22.00 106.46 C 23.62 104.86 25.36 103.32 26.37 101.24 C 28.72 101.04 32.14 104.67 29.12 96.99 C 29.48 93.49 29.86 89.93 31.32 86.69 Z" />
</g>
<g id="#d4b372ff">
<path fill="#d4b372" opacity="1.00" d=" M 48.07 89.23 C 49.13 87.86 51.71 87.19 50.71 89.80 C 50.48 92.26 50.30 94.73 50.17 97.20 C 49.97 97.71 49.57 98.72 49.37 99.22 C 48.79 95.91 47.71 92.66 48.07 89.23 Z" />
</g>
<g id="#c1a867fe">
<path fill="#c1a867" opacity="1.00" d=" M 104.26 87.86 C 104.81 89.52 104.99 91.26 105.12 92.99 C 104.65 98.60 102.64 103.96 100.66 109.19 C 100.14 107.81 99.98 106.33 99.66 104.91 C 97.33 106.66 96.26 109.50 95.02 112.03 C 96.03 112.32 97.07 112.43 98.11 112.57 C 97.27 115.02 94.56 116.07 92.99 118.00 C 87.43 124.64 78.02 126.74 69.80 125.04 C 68.37 122.93 70.93 120.91 72.98 121.03 C 78.89 121.96 82.71 116.98 86.77 113.78 C 88.29 111.51 92.71 105.53 87.16 105.69 C 87.82 100.59 85.95 94.95 90.40 91.17 C 93.84 93.40 89.29 99.24 93.16 102.08 C 97.22 99.56 96.81 93.63 100.77 90.92 C 103.08 93.51 103.36 89.42 104.26 87.86 Z" />
</g>
<g id="#ccaf6fff">
<path fill="#ccaf6f" opacity="1.00" d=" M 40.03 96.00 C 36.88 94.12 42.21 87.19 42.71 91.82 C 39.58 96.76 42.60 103.77 37.99 108.06 C 38.61 103.99 41.08 100.34 40.03 96.00 Z" />
</g>
<g id="#c4985cff">
<path fill="#c4985c" opacity="1.00" d=" M 50.17 97.20 C 50.30 94.73 50.48 92.26 50.71 89.80 C 51.06 90.46 51.75 91.80 52.09 92.47 C 51.49 94.06 50.85 95.64 50.17 97.20 Z" />
</g>
<g id="#ecda97ff">
<path fill="#ecda97" opacity="1.00" d=" M 34.40 90.72 C 35.80 94.01 37.92 97.72 36.39 101.36 C 35.36 103.99 31.79 105.28 32.02 108.39 C 33.58 108.55 34.92 109.34 36.24 110.13 C 35.38 111.88 34.34 113.53 33.32 115.19 C 29.29 117.70 24.55 117.62 20.10 118.81 C 19.99 118.44 19.78 117.70 19.67 117.34 C 21.87 113.36 27.09 113.88 29.59 110.69 C 30.61 103.69 36.32 98.33 34.40 90.72 Z" />
</g>
<g id="#a95527f3">
<path fill="#a95527" opacity="0.95" d=" M 18.03 91.94 C 21.21 95.22 19.59 102.11 22.00 106.46 C 21.05 107.85 20.05 109.21 18.96 110.49 C 18.83 110.16 18.58 109.50 18.45 109.17 C 18.84 107.68 18.99 106.12 18.38 104.67 C 16.73 100.59 17.98 96.18 18.03 91.94 Z" />
</g>
<g id="#bd9c5fff">
<path fill="#bd9c5f" opacity="1.00" d=" M 37.99 108.06 C 42.60 103.77 39.58 96.76 42.71 91.82 C 42.97 92.40 43.49 93.56 43.75 94.14 C 44.95 97.35 45.45 100.95 44.39 104.26 C 44.24 102.38 43.93 98.61 43.77 96.73 C 41.67 102.23 40.80 108.32 37.14 113.13 C 37.12 112.37 37.09 110.85 37.07 110.09 L 37.09 109.23 C 37.31 108.94 37.76 108.35 37.99 108.06 Z" />
</g>
<g id="#e7cf89ff">
<path fill="#e7cf89" opacity="1.00" d=" M 43.75 94.14 C 43.57 92.47 44.23 91.80 45.73 92.11 C 46.32 95.54 47.50 98.82 48.33 102.19 C 47.27 104.37 47.10 108.27 43.82 107.95 C 44.00 106.72 44.19 105.49 44.39 104.26 C 45.45 100.95 44.95 97.35 43.75 94.14 Z" />
</g>
<g id="#c2a264ff">
<path fill="#c2a264" opacity="1.00" d=" M 73.26 93.80 C 73.41 93.47 73.72 92.82 73.88 92.49 C 76.47 95.72 76.83 100.06 77.02 104.05 C 71.90 104.28 74.89 96.31 73.26 93.80 Z" />
</g>
<g id="#aa874cff">
<path fill="#aa874c" opacity="1.00" d=" M 37.14 113.13 C 40.80 108.32 41.67 102.23 43.77 96.73 C 43.93 98.61 44.24 102.38 44.39 104.26 C 44.19 105.49 44.00 106.72 43.82 107.95 C 39.23 115.28 34.74 126.37 24.18 125.07 L 23.71 124.46 C 25.89 123.90 28.04 123.19 30.09 122.25 C 33.36 121.19 35.49 118.20 35.99 114.88 C 36.28 114.44 36.86 113.57 37.14 113.13 Z" />
</g>
<g id="#dac382ff">
<path fill="#dac382" opacity="1.00" d=" M 71.20 97.80 C 73.78 99.75 73.00 103.28 73.91 106.10 C 74.54 108.52 75.95 110.62 76.88 112.93 C 71.85 114.70 62.89 120.21 59.12 113.87 C 59.06 114.67 58.93 116.26 58.86 117.06 L 58.05 116.47 C 57.36 115.19 56.55 113.98 55.76 112.77 C 58.48 110.43 61.45 108.41 64.22 106.14 C 67.05 103.82 69.47 101.04 71.20 97.80 Z" />
</g>
<g id="#ad5629ff">
<path fill="#ad5629" opacity="1.00" d=" M 49.12 100.06 C 49.91 100.11 51.49 100.20 52.29 100.25 C 50.60 104.58 48.30 108.67 46.92 113.11 C 48.99 112.80 50.34 111.09 51.99 109.99 C 51.69 111.31 51.31 112.63 51.01 113.96 C 55.26 110.99 59.16 107.57 62.80 103.88 C 63.16 104.45 63.87 105.58 64.22 106.14 C 61.45 108.41 58.48 110.43 55.76 112.77 C 54.58 113.57 53.35 114.31 52.21 115.17 C 53.43 118.39 55.84 121.25 55.02 125.03 C 55.33 129.00 52.85 132.42 52.13 136.23 C 50.57 137.95 49.01 139.70 47.16 141.12 C 45.07 141.36 43.01 141.76 40.92 141.99 C 43.19 139.91 45.70 138.06 47.72 135.72 C 49.47 129.03 51.02 120.67 45.77 115.11 C 39.25 117.08 35.57 124.88 28.69 126.70 C 26.98 127.55 25.22 126.40 24.18 125.07 C 34.74 126.37 39.23 115.28 43.82 107.95 C 47.10 108.27 47.27 104.37 48.33 102.19 C 48.52 101.66 48.92 100.59 49.12 100.06 Z" />
</g>
<g id="#b2985af8">
<path fill="#b2985a" opacity="0.97" d=" M 95.02 112.03 C 96.26 109.50 97.33 106.66 99.66 104.91 C 99.98 106.33 100.14 107.81 100.66 109.19 C 100.51 111.25 104.02 107.66 102.92 109.97 C 101.14 114.67 97.18 118.21 93.78 121.77 C 88.28 126.83 83.43 133.80 75.66 135.31 C 73.73 131.11 83.40 131.44 79.80 128.10 C 76.78 127.96 73.77 127.98 70.76 128.20 C 70.40 127.16 70.08 126.10 69.80 125.04 C 78.02 126.74 87.43 124.64 92.99 118.00 C 94.56 116.07 97.27 115.02 98.11 112.57 C 97.07 112.43 96.03 112.32 95.02 112.03 Z" />
</g>
<g id="#ceb573ff">
<path fill="#ceb573" opacity="1.00" d=" M 36.24 110.13 L 37.07 110.09 C 37.09 110.85 37.12 112.37 37.14 113.13 C 36.86 113.57 36.28 114.44 35.99 114.88 C 33.81 117.15 31.80 119.60 30.09 122.25 C 27.35 122.19 24.60 122.15 21.86 122.12 C 21.58 121.83 21.04 121.26 20.76 120.97 C 25.88 122.45 31.32 120.01 33.32 115.19 C 34.34 113.53 35.38 111.88 36.24 110.13 Z" />
</g>
<g id="#c5995fff">
<path fill="#c5995f" opacity="1.00" d=" M 52.21 115.17 C 53.35 114.31 54.58 113.57 55.76 112.77 C 56.55 113.98 57.36 115.19 58.05 116.47 C 56.84 123.18 58.38 131.50 52.13 136.23 C 52.85 132.42 55.33 129.00 55.02 125.03 C 55.84 121.25 53.43 118.39 52.21 115.17 Z" />
</g>
<g id="#dfc985ff">
<path fill="#dfc985" opacity="1.00" d=" M 20.10 118.81 C 24.55 117.62 29.29 117.70 33.32 115.19 C 31.32 120.01 25.88 122.45 20.76 120.97 C 20.59 120.43 20.26 119.35 20.10 118.81 Z" />
</g>
<g id="#bba160ff">
<path fill="#bba160" opacity="1.00" d=" M 30.09 122.25 C 31.80 119.60 33.81 117.15 35.99 114.88 C 35.49 118.20 33.36 121.19 30.09 122.25 Z" />
</g>
<g id="#bf612fff">
<path fill="#bf612f" opacity="1.00" d=" M 28.69 126.70 C 35.57 124.88 39.25 117.08 45.77 115.11 C 51.02 120.67 49.47 129.03 47.72 135.72 C 45.70 138.06 43.19 139.91 40.92 141.99 C 43.01 141.76 45.07 141.36 47.16 141.12 C 42.52 144.40 36.94 146.48 31.18 145.95 C 29.68 145.13 28.17 144.31 26.73 143.37 C 29.37 142.84 34.02 144.63 34.16 141.07 C 37.11 138.95 44.82 138.54 43.37 133.93 C 43.60 133.46 44.05 132.53 44.27 132.07 C 45.40 129.58 44.92 126.63 44.99 123.97 C 39.12 123.49 32.85 128.32 35.02 134.99 C 33.23 135.12 34.34 132.30 33.73 131.20 C 30.19 131.19 26.66 130.87 23.20 130.16 C 22.63 131.28 23.83 134.12 22.00 134.00 C 21.95 132.30 21.94 130.59 21.55 128.93 C 21.38 128.15 21.04 126.60 20.86 125.82 C 20.61 123.97 18.51 124.05 17.10 123.95 L 17.09 123.11 C 18.33 122.42 19.52 121.65 20.76 120.97 C 21.04 121.26 21.58 121.83 21.86 122.12 C 22.47 122.90 23.09 123.68 23.71 124.46 L 24.18 125.07 C 25.22 126.40 26.98 127.55 28.69 126.70 Z" />
</g>
<g id="#caa66bff">
<path fill="#caa66b" opacity="1.00" d=" M 52.13 136.23 C 58.38 131.50 56.84 123.18 58.05 116.47 L 58.86 117.06 C 59.08 121.34 59.06 125.63 58.94 129.91 C 56.81 135.06 52.91 139.21 49.75 143.72 C 42.79 146.60 34.15 149.72 27.00 146.03 C 28.40 146.02 29.79 145.99 31.18 145.95 C 36.94 146.48 42.52 144.40 47.16 141.12 C 49.01 139.70 50.57 137.95 52.13 136.23 Z" />
</g>
<g id="#2c261866">
<path fill="#2c2618" opacity="0.40" d=" M 14.42 122.81 C 13.99 121.43 16.12 120.72 16.97 119.90 C 17.00 120.70 17.06 122.31 17.09 123.11 L 17.10 123.95 C 17.08 124.45 17.06 125.45 17.05 125.95 L 16.20 126.04 L 15.35 126.11 C 15.05 125.00 14.75 123.90 14.42 122.81 Z" />
</g>
<g id="#c19e62ff">
<path fill="#c19e62" opacity="1.00" d=" M 21.86 122.12 C 24.60 122.15 27.35 122.19 30.09 122.25 C 28.04 123.19 25.89 123.90 23.71 124.46 C 23.09 123.68 22.47 122.90 21.86 122.12 Z" />
</g>
<g id="#e7d187f4">
<path fill="#e7d187" opacity="0.96" d=" M 14.42 122.81 C 14.75 123.90 15.05 125.00 15.35 126.11 C 15.10 127.80 13.55 127.97 12.17 128.29 C 12.72 126.38 13.66 124.63 14.42 122.81 Z" />
</g>
<g id="#261d14ff">
<path fill="#261d14" opacity="1.00" d=" M 17.10 123.95 C 18.51 124.05 20.61 123.97 20.86 125.82 C 19.05 125.90 18.96 127.63 18.56 129.01 C 18.19 129.29 17.45 129.85 17.08 130.13 C 17.06 128.74 17.05 127.34 17.05 125.95 C 17.06 125.45 17.08 124.45 17.10 123.95 Z" />
</g>
<g id="#27201cff">
<path fill="#27201c" opacity="1.00" d=" M 35.02 134.99 C 32.85 128.32 39.12 123.49 44.99 123.97 C 44.92 126.63 45.40 129.58 44.27 132.07 C 43.45 131.38 42.61 130.71 41.77 130.05 C 44.76 130.87 43.94 127.78 43.98 125.91 C 41.27 125.69 40.59 128.01 41.77 130.05 C 39.36 130.22 35.97 130.64 36.98 133.90 C 38.78 134.06 40.58 134.11 42.38 134.13 C 39.96 134.73 37.50 135.02 35.02 134.99 Z" />
</g>
<g id="#f2e49afb">
<path fill="#f2e49a" opacity="1.00" d=" M 15.35 126.11 L 16.20 126.04 C 15.32 131.55 12.96 136.94 14.33 142.64 C 16.41 148.18 20.74 152.33 23.73 157.29 C 24.90 160.52 20.79 162.20 19.03 164.24 C 13.92 159.79 9.04 154.18 7.62 147.31 C 6.96 140.77 7.54 133.40 12.17 128.29 C 13.55 127.97 15.10 127.80 15.35 126.11 Z" />
</g>
<g id="#e7d18aff">
<path fill="#e7d18a" opacity="1.00" d=" M 16.20 126.04 L 17.05 125.95 C 17.05 127.34 17.06 128.74 17.08 130.13 C 17.07 130.58 17.06 131.48 17.05 131.93 C 16.90 133.25 16.68 134.56 16.44 135.88 C 13.84 140.09 15.77 144.80 20.06 146.86 C 23.42 152.78 30.70 154.19 35.11 158.88 C 31.95 160.65 27.99 160.80 25.20 163.22 C 24.30 163.67 23.48 165.30 24.78 165.81 C 24.82 166.23 24.92 167.08 24.97 167.51 C 24.52 167.35 23.62 167.03 23.17 166.87 C 22.60 166.55 21.47 165.93 20.91 165.61 C 20.52 165.41 19.75 165.00 19.36 164.79 L 19.03 164.24 C 20.79 162.20 24.90 160.52 23.73 157.29 C 20.74 152.33 16.41 148.18 14.33 142.64 C 12.96 136.94 15.32 131.55 16.20 126.04 Z" />
</g>
<g id="#9f9d9dff">
<path fill="#9f9d9d" opacity="1.00" d=" M 18.56 129.01 C 18.96 127.63 19.05 125.90 20.86 125.82 C 21.04 126.60 21.38 128.15 21.55 128.93 C 20.57 129.98 19.57 130.01 18.56 129.01 Z" />
</g>
<g id="#7d7d7dff">
<path fill="#7d7d7d" opacity="1.00" d=" M 41.77 130.05 C 40.59 128.01 41.27 125.69 43.98 125.91 C 43.94 127.78 44.76 130.87 41.77 130.05 Z" />
</g>
<g id="#a6844afd">
<path fill="#a6844a" opacity="1.00" d=" M 70.76 128.20 C 73.77 127.98 76.78 127.96 79.80 128.10 C 83.40 131.44 73.73 131.11 75.66 135.31 L 75.82 136.07 C 75.32 136.11 74.33 136.18 73.83 136.22 C 73.40 135.88 72.54 135.20 72.11 134.85 C 71.87 134.31 71.37 133.22 71.12 132.68 L 71.01 131.73 C 70.94 130.55 70.86 129.38 70.76 128.20 Z" />
</g>
<g id="#20313aff">
<path fill="#20313a" opacity="1.00" d=" M 17.08 130.13 C 17.45 129.85 18.19 129.29 18.56 129.01 C 19.57 130.01 20.57 129.98 21.55 128.93 C 21.94 130.59 21.95 132.30 22.00 134.00 C 20.00 134.35 17.93 133.94 17.05 131.93 C 17.06 131.48 17.07 130.58 17.08 130.13 Z" />
</g>
<g id="#da7438ff">
<path fill="#da7438" opacity="1.00" d=" M 23.20 130.16 C 26.66 130.87 30.19 131.19 33.73 131.20 C 34.34 132.30 33.23 135.12 35.02 134.99 C 37.50 135.02 39.96 134.73 42.38 134.13 L 43.37 133.93 C 44.82 138.54 37.11 138.95 34.16 141.07 C 30.07 141.86 25.88 142.31 21.83 141.16 C 22.87 142.95 24.90 143.06 26.73 143.37 C 28.17 144.31 29.68 145.13 31.18 145.95 C 29.79 145.99 28.40 146.02 27.00 146.03 C 23.60 144.13 20.01 142.50 17.04 139.93 C 16.84 138.57 16.66 137.22 16.44 135.88 C 16.68 134.56 16.90 133.25 17.05 131.93 C 17.93 133.94 20.00 134.35 22.00 134.00 C 23.83 134.12 22.63 131.28 23.20 130.16 Z" />
</g>
<g id="#0b2431ff">
<path fill="#0b2431" opacity="1.00" d=" M 36.98 133.90 C 35.97 130.64 39.36 130.22 41.77 130.05 C 42.61 130.71 43.45 131.38 44.27 132.07 C 44.05 132.53 43.60 133.46 43.37 133.93 L 42.38 134.13 C 40.58 134.11 38.78 134.06 36.98 133.90 Z" />
</g>
<g id="#dac682ff">
<path fill="#dac682" opacity="1.00" d=" M 69.86 132.84 C 70.15 132.56 70.72 132.00 71.01 131.73 L 71.12 132.68 C 71.05 136.53 70.94 140.41 71.29 144.27 C 71.12 145.73 70.98 147.19 70.83 148.66 C 69.64 150.10 68.61 151.64 67.60 153.21 C 67.08 150.49 69.08 148.20 69.59 145.62 C 70.13 141.38 69.98 137.10 69.86 132.84 Z" />
</g>
<g id="#c4ac69fe">
<path fill="#c4ac69" opacity="1.00" d=" M 68.42 136.79 C 68.27 135.23 68.36 133.71 69.86 132.84 C 69.98 137.10 70.13 141.38 69.59 145.62 C 69.08 148.20 67.08 150.49 67.60 153.21 C 67.09 155.22 64.17 157.52 66.92 159.02 C 62.65 161.24 58.71 164.04 54.78 166.81 C 53.64 167.20 52.49 168.12 51.23 167.70 C 49.86 167.46 47.12 166.97 45.76 166.72 C 50.63 164.12 55.76 161.69 59.67 157.69 C 61.16 155.15 61.20 151.57 64.01 150.01 C 65.38 148.94 67.14 147.94 67.14 145.97 C 65.50 146.47 63.29 150.50 62.27 147.72 C 61.77 143.26 64.72 139.10 68.42 136.79 Z" />
</g>
<g id="#cf965cff">
<path fill="#cf965c" opacity="1.00" d=" M 71.12 132.68 C 71.37 133.22 71.87 134.31 72.11 134.85 C 72.16 135.33 72.27 136.27 72.32 136.75 C 72.05 139.26 71.71 141.77 71.29 144.27 C 70.94 140.41 71.05 136.53 71.12 132.68 Z" />
</g>
<g id="#ca6832f4">
<path fill="#ca6832" opacity="0.96" d=" M 72.11 134.85 C 72.54 135.20 73.40 135.88 73.83 136.22 C 78.37 144.79 82.34 154.09 80.91 164.04 L 80.02 163.74 C 79.98 163.33 79.91 162.50 79.87 162.09 C 79.59 153.11 77.03 144.40 72.32 136.75 C 72.27 136.27 72.16 135.33 72.11 134.85 Z" />
</g>
<g id="#d8c27eff">
<path fill="#d8c27e" opacity="1.00" d=" M 16.44 135.88 C 16.66 137.22 16.84 138.57 17.04 139.93 C 17.23 143.56 21.43 145.27 23.98 147.01 C 31.66 152.93 42.19 149.19 50.26 146.27 C 55.45 144.22 55.76 135.43 62.02 135.96 C 61.96 142.01 60.40 147.93 58.63 153.68 C 54.95 161.80 45.27 165.77 36.69 164.32 C 33.76 163.42 30.23 170.63 39.28 166.27 C 38.70 166.57 37.52 167.17 36.93 167.47 C 33.00 167.53 28.81 168.72 24.97 167.51 C 24.92 167.08 24.82 166.23 24.78 165.81 C 29.81 160.79 38.03 162.66 44.39 161.42 C 52.39 161.94 58.74 151.93 55.92 145.10 C 50.58 148.44 45.10 152.01 38.64 152.61 C 31.60 154.87 25.81 149.94 20.06 146.86 C 15.77 144.80 13.84 140.09 16.44 135.88 Z" />
</g>
<g id="#b85a2bff">
<path fill="#b85a2b" opacity="1.00" d=" M 72.32 136.75 C 77.03 144.40 79.59 153.11 79.87 162.09 C 74.60 163.01 78.54 157.08 77.94 154.19 C 75.58 152.33 73.21 150.49 70.83 148.66 C 70.98 147.19 71.12 145.73 71.29 144.27 C 71.71 141.77 72.05 139.26 72.32 136.75 Z" />
</g>
<g id="#9b4d23ff">
<path fill="#9b4d23" opacity="1.00" d=" M 21.83 141.16 C 25.88 142.31 30.07 141.86 34.16 141.07 C 34.02 144.63 29.37 142.84 26.73 143.37 C 24.90 143.06 22.87 142.95 21.83 141.16 Z" />
</g>
<g id="#ddcb87ff">
<path fill="#ddcb87" opacity="1.00" d=" M 38.64 152.61 C 45.10 152.01 50.58 148.44 55.92 145.10 C 58.74 151.93 52.39 161.94 44.39 161.42 C 38.03 162.66 29.81 160.79 24.78 165.81 C 23.48 165.30 24.30 163.67 25.20 163.22 C 27.99 160.80 31.95 160.65 35.11 158.88 C 30.70 154.19 23.42 152.78 20.06 146.86 C 25.81 149.94 31.60 154.87 38.64 152.61 Z" />
</g>
<g id="#a74f25ff">
<path fill="#a74f25" opacity="1.00" d=" M 67.60 153.21 C 68.61 151.64 69.64 150.10 70.83 148.66 C 73.21 150.49 75.58 152.33 77.94 154.19 C 78.54 157.08 74.60 163.01 79.87 162.09 C 79.91 162.50 79.98 163.33 80.02 163.74 C 78.05 165.57 76.86 168.86 73.04 166.99 C 70.00 165.97 68.89 162.54 68.34 159.66 C 68.22 161.45 67.97 165.03 67.85 166.82 C 64.59 168.31 61.48 170.12 58.28 171.73 C 57.38 171.03 56.49 170.32 55.61 169.59 C 59.14 165.71 68.61 165.89 66.92 159.02 C 64.17 157.52 67.09 155.22 67.60 153.21 Z" />
</g>
<g id="#883c1cfc">
<path fill="#883c1c" opacity="1.00" d=" M 54.78 166.81 C 58.71 164.04 62.65 161.24 66.92 159.02 C 68.61 165.89 59.14 165.71 55.61 169.59 C 54.90 169.77 54.62 168.84 54.78 166.81 Z" />
</g>
<g id="#b4592afb">
<path fill="#b4592a" opacity="1.00" d=" M 68.34 159.66 C 68.89 162.54 70.00 165.97 73.04 166.99 C 76.86 168.86 78.05 165.57 80.02 163.74 L 80.91 164.04 C 80.37 168.60 78.92 173.12 79.78 177.77 C 79.12 179.24 77.51 179.08 76.16 178.93 C 75.60 178.02 75.07 177.10 74.47 176.21 C 73.96 177.69 72.52 177.89 71.15 177.94 C 70.85 176.35 70.47 174.78 69.94 173.26 C 66.27 175.20 62.11 176.08 57.97 175.78 C 56.10 175.09 56.47 171.41 55.61 169.59 C 56.49 170.32 57.38 171.03 58.28 171.73 C 61.48 170.12 64.59 168.31 67.85 166.82 C 67.97 165.03 68.22 161.45 68.34 159.66 Z" />
</g>
<g id="#ca6830f9">
<path fill="#ca6830" opacity="0.98" d=" M 19.36 164.79 C 19.75 165.00 20.52 165.41 20.91 165.61 C 18.23 172.15 23.74 178.82 19.79 184.94 C 18.53 184.97 17.27 185.00 16.00 185.02 C 11.00 185.31 13.95 179.92 16.18 178.22 C 17.76 174.00 18.01 169.20 19.36 164.79 Z" />
</g>
<g id="#b3592afd">
<path fill="#b3592a" opacity="1.00" d=" M 19.79 184.94 C 23.74 178.82 18.23 172.15 20.91 165.61 C 21.47 165.93 22.60 166.55 23.17 166.87 C 23.50 171.77 24.53 176.59 27.12 180.82 C 26.66 182.02 28.05 185.33 25.98 185.01 C 23.92 185.00 21.86 184.97 19.79 184.94 Z" />
</g>
<g id="#a24f26f9">
<path fill="#a24f26" opacity="0.98" d=" M 23.17 166.87 C 23.62 167.03 24.52 167.35 24.97 167.51 C 28.81 168.72 33.00 167.53 36.93 167.47 C 38.65 167.91 40.36 168.36 42.05 168.88 C 40.13 171.34 40.25 173.98 40.93 176.81 C 37.60 179.27 32.88 179.20 29.05 178.07 C 26.72 176.85 29.23 182.12 27.12 180.82 C 24.53 176.59 23.50 171.77 23.17 166.87 M 27.04 169.00 C 27.34 171.49 24.86 177.25 28.94 175.97 C 30.05 173.12 36.26 165.57 27.04 169.00 Z" />
</g>
<g id="#8f3f1eff">
<path fill="#8f3f1e" opacity="1.00" d=" M 27.04 169.00 C 36.26 165.57 30.05 173.12 28.94 175.97 C 24.86 177.25 27.34 171.49 27.04 169.00 Z" />
</g>
<g id="#c76530fc">
<path fill="#c76530" opacity="1.00" d=" M 57.97 175.78 C 62.11 176.08 66.27 175.20 69.94 173.26 C 70.47 174.78 70.85 176.35 71.15 177.94 C 70.63 178.22 69.58 178.79 69.06 179.08 C 68.78 180.56 68.24 183.53 67.96 185.02 C 67.24 185.01 65.79 184.99 65.06 184.98 C 64.77 183.36 65.90 180.08 63.10 181.03 C 63.01 182.34 62.96 183.66 62.94 184.98 C 61.65 184.99 60.36 185.00 59.08 185.00 C 59.01 183.61 58.93 182.21 58.83 180.82 C 57.82 181.84 56.96 183.00 56.09 184.14 C 52.77 182.49 57.99 178.55 57.97 175.78 Z" />
</g>
<g id="#582a14cc">
<path fill="#582a14" opacity="0.80" d=" M 74.47 176.21 C 75.07 177.10 75.60 178.02 76.16 178.93 C 74.38 178.97 70.83 179.04 69.06 179.08 C 69.58 178.79 70.63 178.22 71.15 177.94 C 72.52 177.89 73.96 177.69 74.47 176.21 Z" />
</g>
<g id="#a14d21f6">
<path fill="#a14d21" opacity="0.96" d=" M 56.09 184.14 C 56.96 183.00 57.82 181.84 58.83 180.82 C 58.93 182.21 59.01 183.61 59.08 185.00 C 57.20 185.44 56.20 185.15 56.09 184.14 Z" />
</g>
<g id="#8e461eff">
<path fill="#8e461e" opacity="1.00" d=" M 63.10 181.03 C 65.90 180.08 64.77 183.36 65.06 184.98 C 64.53 184.98 63.47 184.98 62.94 184.98 C 62.96 183.66 63.01 182.34 63.10 181.03 Z" />
</g>
<g id="#34180b88">
<path fill="#34180b" opacity="0.53" d=" M 16.00 185.02 C 17.27 185.00 18.53 184.97 19.79 184.94 C 21.86 184.97 23.92 185.00 25.98 185.01 L 26.01 185.99 C 23.50 185.75 18.50 185.26 16.00 185.02 Z" />
</g>
<g id="#0c050242">
<path fill="#0c0502" opacity="0.26" d=" M 59.08 185.00 C 60.36 185.00 61.65 184.99 62.94 184.98 C 63.47 184.98 64.53 184.98 65.06 184.98 C 65.79 184.99 67.24 185.01 67.96 185.02 C 68.04 188.23 61.38 185.24 59.00 185.95 L 59.08 185.00 Z" />
</g>
</svg>
