<?xml version="1.0" encoding="UTF-8" ?>
<!DOCTYPE svg PUBLIC "-//W3C//DTD SVG 1.1//EN" "http://www.w3.org/Graphics/SVG/1.1/DTD/svg11.dtd">
<svg width="156pt" height="157pt" viewBox="0 0 156 157" version="1.1" xmlns="http://www.w3.org/2000/svg">
<g id="#3811145f">
<path fill="#381114" opacity="0.37" d=" M 71.10 8.04 C 71.35 7.80 71.85 7.33 72.09 7.10 C 77.41 6.95 82.73 7.56 88.05 7.69 C 91.60 7.96 95.22 7.46 98.70 8.39 C 98.35 8.35 97.64 8.27 97.28 8.23 C 88.56 8.01 79.83 7.95 71.10 8.04 Z" />
</g>
<g id="#ff6577ff">
<path fill="#ff6577" opacity="1.00" d=" M 57.63 15.37 C 62.14 12.97 66.65 10.55 71.10 8.04 C 79.83 7.95 88.56 8.01 97.28 8.23 L 97.35 9.26 C 96.08 11.69 94.69 14.06 93.17 16.35 C 92.98 16.63 92.60 17.20 92.41 17.48 C 89.53 18.60 86.68 19.81 83.72 20.70 C 74.93 19.96 66.11 20.48 57.30 20.10 C 57.36 18.52 57.42 16.94 57.63 15.37 Z" />
</g>
<g id="#ff4657ff">
<path fill="#ff4657" opacity="1.00" d=" M 97.28 8.23 C 97.64 8.27 98.35 8.35 98.70 8.39 C 104.51 14.84 110.25 21.36 116.28 27.60 L 116.19 28.23 L 115.85 28.80 C 112.20 30.69 107.36 29.35 103.25 29.33 C 100.80 25.99 98.19 22.77 95.71 19.46 C 94.34 16.41 96.23 13.70 97.49 11.05 C 97.46 10.60 97.39 9.70 97.35 9.26 L 97.28 8.23 Z" />
</g>
<g id="#c02c3cff">
<path fill="#c02c3c" opacity="1.00" d=" M 93.17 16.35 C 94.69 14.06 96.08 11.69 97.35 9.26 C 97.39 9.70 97.46 10.60 97.49 11.05 C 96.23 13.70 94.34 16.41 95.71 19.46 C 94.88 18.40 94.02 17.38 93.17 16.35 Z" />
<path fill="#c02c3c" opacity="1.00" d=" M 105.02 31.79 C 109.05 31.40 113.11 31.34 117.15 31.67 C 117.28 33.54 117.44 35.42 117.53 37.30 C 117.32 41.11 116.52 44.87 116.27 48.68 C 113.93 53.32 109.71 56.55 106.40 60.46 C 103.41 63.48 100.97 67.10 97.56 69.69 C 93.54 71.36 89.08 71.58 84.86 72.51 C 83.57 67.08 83.09 61.49 81.82 56.06 C 83.40 51.82 87.12 48.97 90.04 45.69 C 93.71 46.81 97.37 47.99 101.03 49.17 C 103.27 43.61 103.62 37.57 105.02 31.79 Z" />
</g>
<g id="#94222fff">
<path fill="#94222f" opacity="1.00" d=" M 56.45 16.01 C 56.75 15.85 57.33 15.53 57.63 15.37 C 57.42 16.94 57.36 18.52 57.30 20.10 C 66.11 20.48 74.93 19.96 83.72 20.70 C 83.37 24.63 83.03 28.56 82.66 32.49 C 85.30 36.15 87.74 39.95 90.32 43.66 C 93.71 45.00 97.26 45.90 100.75 46.97 C 101.89 41.53 103.00 36.10 104.23 30.69 C 103.98 30.35 103.49 29.67 103.25 29.33 C 107.36 29.35 112.20 30.69 115.85 28.80 L 116.19 28.23 C 120.12 29.50 117.78 34.38 117.53 37.30 C 117.44 35.42 117.28 33.54 117.15 31.67 C 113.11 31.34 109.05 31.40 105.02 31.79 C 103.62 37.57 103.27 43.61 101.03 49.17 C 97.37 47.99 93.71 46.81 90.04 45.69 C 87.12 48.97 83.40 51.82 81.82 56.06 L 81.30 55.34 C 81.00 54.97 80.40 54.24 80.10 53.88 C 78.32 51.96 76.35 50.21 74.34 48.53 C 74.06 48.31 73.52 47.86 73.24 47.63 C 75.95 43.42 78.67 39.18 80.93 34.71 C 82.22 30.17 82.28 25.37 82.45 20.68 C 74.00 20.38 65.53 20.39 57.08 20.44 C 53.90 26.06 47.93 29.49 45.17 35.35 C 45.88 33.22 46.41 30.81 48.17 29.26 C 51.09 26.78 53.53 23.81 55.93 20.84 C 57.14 19.61 56.50 17.77 56.47 16.26 L 56.45 16.01 M 82.30 34.62 C 79.90 38.80 77.38 42.91 75.14 47.18 C 77.01 49.15 78.99 51.02 81.07 52.77 C 83.77 49.98 86.25 46.99 88.82 44.08 C 86.88 40.77 84.87 37.48 82.30 34.62 Z" />
</g>
<g id="#ecdfd9ff">
<path fill="#ecdfd9" opacity="1.00" d=" M 56.47 16.26 C 56.50 17.77 57.14 19.61 55.93 20.84 C 53.53 23.81 51.09 26.78 48.17 29.26 C 50.76 24.82 53.68 20.57 56.47 16.26 Z" />
<path fill="#ecdfd9" opacity="1.00" d=" M 83.72 20.70 C 86.68 19.81 89.53 18.60 92.41 17.48 C 90.01 22.99 86.12 27.64 82.66 32.49 C 83.03 28.56 83.37 24.63 83.72 20.70 Z" />
</g>
<g id="#cbc1bcff">
<path fill="#cbc1bc" opacity="1.00" d=" M 92.41 17.48 C 92.60 17.20 92.98 16.63 93.17 16.35 C 94.02 17.38 94.88 18.40 95.71 19.46 C 98.19 22.77 100.80 25.99 103.25 29.33 C 103.49 29.67 103.98 30.35 104.23 30.69 C 99.42 34.83 95.27 39.68 90.32 43.66 C 87.74 39.95 85.30 36.15 82.66 32.49 C 86.12 27.64 90.01 22.99 92.41 17.48 M 89.72 26.41 C 89.97 28.45 90.23 30.50 90.48 32.55 C 91.96 33.35 93.45 34.15 94.94 34.93 C 94.89 33.02 94.93 31.09 94.62 29.19 C 93.16 28.00 91.37 27.29 89.72 26.41 Z" />
</g>
<g id="#ff4f5fff">
<path fill="#ff4f5f" opacity="1.00" d=" M 57.08 20.44 C 65.53 20.39 74.00 20.38 82.45 20.68 C 82.28 25.37 82.22 30.17 80.93 34.71 C 78.67 39.18 75.95 43.42 73.24 47.63 C 63.99 47.65 54.76 46.95 45.52 46.89 C 44.82 46.93 43.42 46.99 42.72 47.02 C 42.52 46.15 42.32 45.28 42.11 44.41 C 42.52 41.25 44.14 38.35 45.17 35.35 C 47.93 29.49 53.90 26.06 57.08 20.44 Z" />
</g>
<g id="#302e2dff">
<path fill="#302e2d" opacity="1.00" d=" M 89.72 26.41 C 91.37 27.29 93.16 28.00 94.62 29.19 C 94.93 31.09 94.89 33.02 94.94 34.93 C 93.45 34.15 91.96 33.35 90.48 32.55 C 90.23 30.50 89.97 28.45 89.72 26.41 Z" />
<path fill="#302e2d" opacity="1.00" d=" M 38.41 58.35 C 38.21 55.44 38.42 52.49 39.69 49.83 C 38.86 52.59 38.58 55.48 38.41 58.35 Z" />
</g>
<g id="#aba29fff">
<path fill="#aba29f" opacity="1.00" d=" M 90.32 43.66 C 95.27 39.68 99.42 34.83 104.23 30.69 C 103.00 36.10 101.89 41.53 100.75 46.97 C 97.26 45.90 93.71 45.00 90.32 43.66 Z" />
</g>
<g id="#e83a4bff">
<path fill="#e83a4b" opacity="1.00" d=" M 82.30 34.62 C 84.87 37.48 86.88 40.77 88.82 44.08 C 86.25 46.99 83.77 49.98 81.07 52.77 C 78.99 51.02 77.01 49.15 75.14 47.18 C 77.38 42.91 79.90 38.80 82.30 34.62 Z" />
</g>
<g id="#6b5e64c5">
<path fill="#6b5e64" opacity="0.77" d=" M 40.47 48.94 C 39.58 47.79 40.66 44.66 42.11 44.41 C 42.32 45.28 42.52 46.15 42.72 47.02 C 42.15 47.55 41.57 48.09 41.01 48.62 L 40.47 48.94 Z" />
</g>
<g id="#47c8d3ff">
<path fill="#47c8d3" opacity="1.00" d=" M 42.72 47.02 C 43.42 46.99 44.82 46.93 45.52 46.89 C 54.51 47.65 63.55 48.02 72.58 48.03 C 67.87 57.25 63.34 66.57 58.25 75.59 C 52.06 75.31 45.87 75.26 39.70 74.74 C 40.34 68.17 41.13 61.61 41.69 55.03 C 41.93 52.86 41.74 50.68 41.01 48.62 C 41.57 48.09 42.15 47.55 42.72 47.02 Z" />
</g>
<g id="#2e7c85ff">
<path fill="#2e7c85" opacity="1.00" d=" M 45.52 46.89 C 54.76 46.95 63.99 47.65 73.24 47.63 C 73.52 47.86 74.06 48.31 74.34 48.53 C 69.66 57.67 65.03 66.83 60.49 76.03 C 60.20 76.14 59.62 76.36 59.34 76.47 C 59.52 76.96 59.90 77.93 60.09 78.42 C 55.09 77.46 49.99 77.54 44.94 77.87 C 42.65 77.94 40.36 77.77 38.07 77.74 C 39.77 68.13 40.46 58.35 41.01 48.62 C 41.74 50.68 41.93 52.86 41.69 55.03 C 41.13 61.61 40.34 68.17 39.70 74.74 C 45.87 75.26 52.06 75.31 58.25 75.59 C 63.34 66.57 67.87 57.25 72.58 48.03 C 63.55 48.02 54.51 47.65 45.52 46.89 Z" />
</g>
<g id="#4de4f3ff">
<path fill="#4de4f3" opacity="1.00" d=" M 40.47 48.94 L 41.01 48.62 C 40.46 58.35 39.77 68.13 38.07 77.74 C 37.63 71.28 38.25 64.80 38.41 58.35 C 38.58 55.48 38.86 52.59 39.69 49.83 L 40.47 48.94 Z" />
<path fill="#4de4f3" opacity="1.00" d=" M 105.58 105.99 C 109.07 103.41 112.57 100.85 116.05 98.27 C 117.25 98.82 118.46 99.38 119.67 99.94 C 122.06 101.05 124.44 102.19 126.84 103.31 C 131.82 105.57 136.73 108.02 141.75 110.20 C 136.24 113.68 129.98 115.94 123.97 118.43 C 114.67 117.49 105.54 114.76 96.32 113.06 C 96.79 112.70 97.73 111.98 98.20 111.62 C 98.51 111.38 99.14 110.90 99.46 110.66 C 101.54 109.16 103.56 107.57 105.58 105.99 Z" />
</g>
<g id="#3ca0b2ff">
<path fill="#3ca0b2" opacity="1.00" d=" M 74.34 48.53 C 76.35 50.21 78.32 51.96 80.10 53.88 C 74.10 60.95 68.47 68.35 62.38 75.33 C 61.90 75.51 60.96 75.85 60.49 76.03 C 65.03 66.83 69.66 57.67 74.34 48.53 Z" />
</g>
<g id="#772331fc">
<path fill="#772331" opacity="1.00" d=" M 106.40 60.46 C 109.71 56.55 113.93 53.32 116.27 48.68 C 116.44 51.19 115.26 53.28 113.38 54.84 C 111.05 57.36 108.90 60.05 106.51 62.51 C 105.35 63.68 104.19 64.85 103.04 66.02 C 104.42 66.93 105.81 67.82 107.18 68.74 C 109.41 70.48 111.56 72.33 113.77 74.11 C 109.25 73.74 106.64 68.62 102.05 69.04 C 98.66 70.49 95.63 72.96 91.78 73.08 C 90.54 73.24 89.30 73.37 88.07 73.56 C 87.19 73.80 85.44 74.26 84.56 74.50 C 84.25 73.76 83.96 73.02 83.67 72.27 C 82.71 66.66 81.84 61.01 81.30 55.34 L 81.82 56.06 C 83.09 61.49 83.57 67.08 84.86 72.51 C 89.08 71.58 93.54 71.36 97.56 69.69 C 100.97 67.10 103.41 63.48 106.40 60.46 Z" />
</g>
<g id="#286474ff">
<path fill="#286474" opacity="1.00" d=" M 80.10 53.88 C 80.40 54.24 81.00 54.97 81.30 55.34 C 75.77 62.36 69.69 68.95 64.45 76.19 C 70.93 75.41 77.50 74.49 83.67 72.27 C 83.96 73.02 84.25 73.76 84.56 74.50 C 76.51 76.19 68.38 78.89 60.09 78.42 C 59.90 77.93 59.52 76.96 59.34 76.47 C 59.62 76.36 60.20 76.14 60.49 76.03 C 60.96 75.85 61.90 75.51 62.38 75.33 C 68.47 68.35 74.10 60.95 80.10 53.88 Z" />
</g>
<g id="#2a7b92ff">
<path fill="#2a7b92" opacity="1.00" d=" M 106.51 62.51 C 108.90 60.05 111.05 57.36 113.38 54.84 C 114.15 61.72 115.19 68.57 115.83 75.46 L 114.36 74.50 L 113.77 74.11 C 111.56 72.33 109.41 70.48 107.18 68.74 C 107.24 66.64 107.05 64.54 106.51 62.51 Z" />
</g>
<g id="#337c90ff">
<path fill="#337c90" opacity="1.00" d=" M 64.45 76.19 C 69.69 68.95 75.77 62.36 81.30 55.34 C 81.84 61.01 82.71 66.66 83.67 72.27 C 77.50 74.49 70.93 75.41 64.45 76.19 Z" />
</g>
<g id="#2c788aff">
<path fill="#2c788a" opacity="1.00" d=" M 103.04 66.02 C 104.19 64.85 105.35 63.68 106.51 62.51 C 107.05 64.54 107.24 66.64 107.18 68.74 C 105.81 67.82 104.42 66.93 103.04 66.02 Z" />
</g>
<g id="#862535ff">
<path fill="#862535" opacity="1.00" d=" M 91.78 73.08 C 95.63 72.96 98.66 70.49 102.05 69.04 C 106.64 68.62 109.25 73.74 113.77 74.11 L 114.36 74.50 C 117.29 76.67 120.27 78.81 122.93 81.31 C 118.76 79.89 115.32 76.62 110.81 76.23 C 105.28 75.43 99.66 76.22 94.39 77.97 C 93.53 76.33 92.65 74.70 91.78 73.08 Z" />
</g>
<g id="#21626eff">
<path fill="#21626e" opacity="1.00" d=" M 88.07 73.56 C 89.30 73.37 90.54 73.24 91.78 73.08 C 92.65 74.70 93.53 76.33 94.39 77.97 C 94.55 78.28 94.88 78.91 95.05 79.22 C 94.53 80.85 94.15 82.57 94.65 84.26 C 95.94 89.87 97.16 95.50 98.54 101.09 C 99.67 96.88 99.86 92.51 100.25 88.19 C 101.02 89.33 101.35 90.56 101.24 91.91 C 100.93 96.23 100.26 100.52 99.69 104.81 C 99.40 106.75 99.33 108.71 99.46 110.66 C 99.14 110.90 98.51 111.38 98.20 111.62 C 97.91 110.78 97.62 109.95 97.34 109.11 C 88.91 107.90 80.36 108.55 71.90 107.78 C 64.92 107.11 57.91 107.41 50.93 106.82 C 45.64 106.38 40.33 106.19 35.02 106.14 C 39.33 112.83 43.67 119.51 47.77 126.33 C 48.67 127.68 49.44 129.19 50.75 130.20 C 55.05 131.39 59.60 130.76 64.00 131.16 C 74.53 132.10 85.13 131.90 95.63 133.13 L 94.60 133.78 C 81.40 133.29 68.22 132.37 55.02 131.85 C 53.78 132.49 52.81 133.51 51.74 134.39 C 51.68 133.79 51.62 133.18 51.56 132.58 C 45.92 129.90 44.75 123.00 40.55 118.81 C 38.38 124.23 36.29 129.69 33.92 135.03 C 31.72 139.55 33.01 144.66 33.43 149.42 C 37.43 146.87 39.92 142.33 44.59 140.84 C 40.86 145.03 36.53 148.66 32.36 152.42 C 23.25 151.63 14.09 151.43 4.97 150.73 C 5.18 146.79 2.89 142.15 5.94 138.89 L 5.42 140.80 C 9.76 140.66 14.07 140.09 18.38 139.61 C 22.47 139.27 26.60 139.10 30.64 138.29 C 34.22 131.47 36.74 124.05 39.82 116.96 C 38.41 114.58 36.98 112.20 35.50 109.86 C 34.38 108.10 33.26 106.35 32.15 104.59 C 32.52 103.56 32.91 102.53 33.31 101.51 C 33.75 100.85 34.25 100.23 34.79 99.64 L 34.53 101.04 C 34.35 102.03 34.18 103.03 34.04 104.03 C 44.65 105.10 55.35 104.89 65.99 105.70 C 76.68 105.83 87.34 107.07 98.03 106.88 C 97.28 102.83 96.16 98.87 95.18 94.88 C 93.72 88.16 91.55 81.62 90.13 74.89 C 89.61 74.56 88.58 73.89 88.07 73.56 M 13.01 141.70 C 10.59 141.97 8.04 141.93 5.77 142.90 C 5.69 145.10 6.29 147.25 6.63 149.40 C 14.64 149.74 22.58 150.73 30.61 150.60 C 30.55 147.13 30.68 143.61 29.64 140.26 C 24.08 140.47 18.57 141.39 13.01 141.70 Z" />
</g>
<g id="#287e95ff">
<path fill="#287e95" opacity="1.00" d=" M 84.56 74.50 C 85.44 74.26 87.19 73.80 88.07 73.56 C 88.58 73.89 89.61 74.56 90.13 74.89 C 91.55 81.62 93.72 88.16 95.18 94.88 C 88.78 94.94 82.39 94.75 75.99 94.86 C 72.72 94.88 69.86 96.67 66.76 97.43 C 63.66 96.90 61.28 94.18 58.04 93.99 C 52.20 93.40 46.36 92.77 40.49 92.59 C 39.79 96.19 36.95 98.55 34.53 101.04 L 34.79 99.64 C 37.74 92.21 41.76 85.22 44.94 77.87 C 49.99 77.54 55.09 77.46 60.09 78.42 C 68.38 78.89 76.51 76.19 84.56 74.50 Z" />
</g>
<g id="#942838ff">
<path fill="#942838" opacity="1.00" d=" M 94.39 77.97 C 99.66 76.22 105.28 75.43 110.81 76.23 C 115.32 76.62 118.76 79.89 122.93 81.31 C 123.36 81.58 124.21 82.13 124.63 82.40 C 115.77 82.02 107.12 83.96 98.40 85.09 C 97.24 83.16 96.12 81.20 95.05 79.22 C 94.88 78.91 94.55 78.28 94.39 77.97 Z" />
</g>
<g id="#2a728bff">
<path fill="#2a728b" opacity="1.00" d=" M 94.65 84.26 C 94.15 82.57 94.53 80.85 95.05 79.22 C 96.12 81.20 97.24 83.16 98.40 85.09 C 99.01 86.13 99.65 87.15 100.25 88.19 C 99.86 92.51 99.67 96.88 98.54 101.09 C 97.16 95.50 95.94 89.87 94.65 84.26 Z" />
</g>
<g id="#a62c3cff">
<path fill="#a62c3c" opacity="1.00" d=" M 98.40 85.09 C 107.12 83.96 115.77 82.02 124.63 82.40 L 124.98 82.40 C 126.11 85.96 127.12 89.56 128.43 93.06 L 128.19 93.39 C 128.08 93.54 127.85 93.85 127.74 94.00 C 127.93 94.66 128.31 95.99 128.50 96.65 C 125.56 97.75 122.61 98.84 119.67 99.94 C 118.46 99.38 117.25 98.82 116.05 98.27 C 112.57 100.85 109.07 103.41 105.58 105.99 C 103.74 106.42 101.89 106.80 100.04 107.18 C 99.95 106.59 99.77 105.41 99.69 104.81 C 100.26 100.52 100.93 96.23 101.24 91.91 C 101.35 90.56 101.02 89.33 100.25 88.19 C 99.65 87.15 99.01 86.13 98.40 85.09 Z" />
</g>
<g id="#2e8ba1ff">
<path fill="#2e8ba1" opacity="1.00" d=" M 40.49 92.59 C 46.36 92.77 52.20 93.40 58.04 93.99 C 61.28 94.18 63.66 96.90 66.76 97.43 C 69.86 96.67 72.72 94.88 75.99 94.86 C 82.39 94.75 88.78 94.94 95.18 94.88 C 96.16 98.87 97.28 102.83 98.03 106.88 C 87.34 107.07 76.68 105.83 65.99 105.70 C 55.35 104.89 44.65 105.10 34.04 104.03 C 34.18 103.03 34.35 102.03 34.53 101.04 C 36.95 98.55 39.79 96.19 40.49 92.59 Z" />
</g>
<g id="#9b2d3fff">
<path fill="#9b2d3f" opacity="1.00" d=" M 128.19 93.39 C 128.48 93.49 129.06 93.69 129.35 93.80 C 129.50 97.14 128.62 100.47 126.84 103.31 C 124.44 102.19 122.06 101.05 119.67 99.94 C 122.61 98.84 125.56 97.75 128.50 96.65 C 128.31 95.99 127.93 94.66 127.74 94.00 C 127.85 93.85 128.08 93.54 128.19 93.39 Z" />
</g>
<g id="#42c3d2ff">
<path fill="#42c3d2" opacity="1.00" d=" M 23.48 105.33 C 26.51 103.54 30.01 102.69 33.31 101.51 C 32.91 102.53 32.52 103.56 32.15 104.59 C 33.26 106.35 34.38 108.10 35.50 109.86 C 31.45 115.63 27.08 121.20 22.53 126.60 C 19.81 130.22 17.30 134.00 14.36 137.46 C 15.69 138.19 17.03 138.92 18.38 139.61 C 14.07 140.09 9.76 140.66 5.42 140.80 L 5.94 138.89 L 6.53 137.58 C 6.55 137.53 6.60 137.44 6.62 137.39 C 12.30 126.74 17.72 115.93 23.48 105.33 Z" />
</g>
<g id="#57424eff">
<path fill="#57424e" opacity="1.00" d=" M 99.46 110.66 C 99.33 108.71 99.40 106.75 99.69 104.81 C 99.77 105.41 99.95 106.59 100.04 107.18 C 101.89 106.80 103.74 106.42 105.58 105.99 C 103.56 107.57 101.54 109.16 99.46 110.66 Z" />
</g>
<g id="#2c7c92ff">
<path fill="#2c7c92" opacity="1.00" d=" M 35.02 106.14 C 40.33 106.19 45.64 106.38 50.93 106.82 C 57.91 107.41 64.92 107.11 71.90 107.78 C 80.36 108.55 88.91 107.90 97.34 109.11 C 97.62 109.95 97.91 110.78 98.20 111.62 C 97.73 111.98 96.79 112.70 96.32 113.06 C 94.17 116.95 94.48 121.73 94.28 126.04 C 94.51 128.41 98.70 131.24 95.63 133.13 C 85.13 131.90 74.53 132.10 64.00 131.16 C 59.60 130.76 55.05 131.39 50.75 130.20 C 49.44 129.19 48.67 127.68 47.77 126.33 C 43.67 119.51 39.33 112.83 35.02 106.14 Z" />
</g>
<g id="#3fb8c8ff">
<path fill="#3fb8c8" opacity="1.00" d=" M 35.50 109.86 C 36.98 112.20 38.41 114.58 39.82 116.96 C 36.74 124.05 34.22 131.47 30.64 138.29 C 26.60 139.10 22.47 139.27 18.38 139.61 C 17.03 138.92 15.69 138.19 14.36 137.46 C 17.30 134.00 19.81 130.22 22.53 126.60 C 27.08 121.20 31.45 115.63 35.50 109.86 Z" />
</g>
<g id="#23676fff">
<path fill="#23676f" opacity="1.00" d=" M 141.75 110.20 L 142.28 109.83 C 142.53 110.30 143.01 111.24 143.26 111.71 C 137.29 114.79 130.81 116.86 125.07 120.31 C 124.36 122.62 123.75 125.23 124.48 127.61 C 129.07 131.40 134.31 134.35 139.11 137.86 C 142.56 140.13 145.74 142.96 149.74 144.25 C 149.99 140.13 150.24 136.00 150.14 131.88 C 152.08 136.70 149.91 141.95 149.80 146.96 C 148.08 146.84 146.37 146.75 144.68 146.47 C 145.31 146.32 146.57 146.04 147.19 145.90 C 140.72 141.73 134.36 137.38 127.99 133.06 C 125.23 131.26 122.53 128.80 119.02 128.88 C 111.56 128.58 104.11 128.30 96.65 128.00 C 98.88 129.59 101.07 131.23 103.13 133.03 C 102.70 132.95 101.85 132.78 101.42 132.69 C 100.44 130.35 97.56 131.51 99.12 133.80 C 97.61 133.83 96.11 133.83 94.60 133.78 L 95.63 133.13 C 98.70 131.24 94.51 128.41 94.28 126.04 C 94.48 121.73 94.17 116.95 96.32 113.06 C 105.54 114.76 114.67 117.49 123.97 118.43 C 129.98 115.94 136.24 113.68 141.75 110.20 M 97.19 115.02 C 96.18 118.48 96.35 122.13 96.07 125.69 C 104.43 126.84 112.93 126.13 121.28 127.42 C 122.45 125.03 122.43 122.37 122.39 119.78 C 115.32 118.21 108.20 116.88 101.12 115.35 C 99.82 115.19 98.48 114.52 97.19 115.02 Z" />
</g>
<g id="#3393abff">
<path fill="#3393ab" opacity="1.00" d=" M 125.07 120.31 C 130.81 116.86 137.29 114.79 143.26 111.71 C 144.43 115.54 146.02 119.24 146.97 123.13 C 147.16 123.63 147.53 124.62 147.72 125.11 C 148.63 127.33 149.42 129.59 150.14 131.88 C 150.24 136.00 149.99 140.13 149.74 144.25 C 145.74 142.96 142.56 140.13 139.11 137.86 C 134.31 134.35 129.07 131.40 124.48 127.61 C 123.75 125.23 124.36 122.62 125.07 120.31 Z" />
</g>
<g id="#3aaabbff">
<path fill="#3aaabb" opacity="1.00" d=" M 97.19 115.02 C 98.48 114.52 99.82 115.19 101.12 115.35 C 108.20 116.88 115.32 118.21 122.39 119.78 C 122.43 122.37 122.45 125.03 121.28 127.42 C 112.93 126.13 104.43 126.84 96.07 125.69 C 96.35 122.13 96.18 118.48 97.19 115.02 Z" />
</g>
<g id="#2e7d95ff">
<path fill="#2e7d95" opacity="1.00" d=" M 40.55 118.81 C 44.75 123.00 45.92 129.90 51.56 132.58 C 51.62 133.18 51.68 133.79 51.74 134.39 C 49.35 136.52 47.27 139.05 44.59 140.84 C 39.92 142.33 37.43 146.87 33.43 149.42 C 33.01 144.66 31.72 139.55 33.92 135.03 C 36.29 129.69 38.38 124.23 40.55 118.81 Z" />
</g>
<g id="#0d272d94">
<path fill="#0d272d" opacity="0.58" d=" M 146.97 123.13 L 147.86 123.32 L 148.25 124.34 L 147.72 125.11 C 147.53 124.62 147.16 123.63 146.97 123.13 Z" />
</g>
<g id="#37b3c4ff">
<path fill="#37b3c4" opacity="1.00" d=" M 96.65 128.00 C 104.11 128.30 111.56 128.58 119.02 128.88 C 122.53 128.80 125.23 131.26 127.99 133.06 C 134.36 137.38 140.72 141.73 147.19 145.90 C 146.57 146.04 145.31 146.32 144.68 146.47 C 137.13 146.16 129.54 145.85 122.03 145.14 C 115.67 141.21 109.27 137.29 103.13 133.03 C 101.07 131.23 98.88 129.59 96.65 128.00 Z" />
</g>
<g id="#662130e0">
<path fill="#662130" opacity="0.88" d=" M 99.12 133.80 C 97.56 131.51 100.44 130.35 101.42 132.69 C 100.84 132.97 99.70 133.52 99.12 133.80 Z" />
</g>
<g id="#112d3597">
<path fill="#112d35" opacity="0.59" d=" M 6.53 137.58 C 6.55 137.53 6.60 137.44 6.62 137.39 C 6.60 137.44 6.55 137.53 6.53 137.58 Z" />
</g>
<g id="#38a2b5ff">
<path fill="#38a2b5" opacity="1.00" d=" M 13.01 141.70 C 18.57 141.39 24.08 140.47 29.64 140.26 C 30.68 143.61 30.55 147.13 30.61 150.60 C 22.58 150.73 14.64 149.74 6.63 149.40 C 6.29 147.25 5.69 145.10 5.77 142.90 C 8.04 141.93 10.59 141.97 13.01 141.70 Z" />
</g>
</svg>
