<?xml version="1.0" encoding="UTF-8" ?>
<!DOCTYPE svg PUBLIC "-//W3C//DTD SVG 1.1//EN" "http://www.w3.org/Graphics/SVG/1.1/DTD/svg11.dtd">
<svg width="142pt" height="116pt" viewBox="0 0 142 116" version="1.1" xmlns="http://www.w3.org/2000/svg">
<g id="#f4f3c8fa">
<path fill="#f4f3c8" opacity="0.98" d=" M 71.06 7.16 C 82.93 4.23 96.05 2.74 107.74 7.29 C 109.31 8.13 111.54 9.06 111.91 10.95 L 112.01 11.86 C 109.32 12.21 106.65 12.54 103.98 12.99 C 102.77 12.17 101.58 11.30 100.27 10.65 C 95.88 8.69 91.00 8.15 86.25 7.65 C 81.40 6.38 76.54 7.54 71.76 8.35 L 70.92 8.16 L 71.06 7.16 Z" />
</g>
<g id="#f3e49dff">
<path fill="#f3e49d" opacity="1.00" d=" M 71.76 8.35 C 76.54 7.54 81.40 6.38 86.25 7.65 C 85.90 7.95 85.19 8.54 84.84 8.84 C 80.51 8.64 75.97 9.67 71.76 8.35 Z" />
</g>
<g id="#fdfcc1fe">
<path fill="#fdfcc1" opacity="1.00" d=" M 56.87 24.83 C 59.80 18.29 63.81 10.79 70.92 8.16 L 71.76 8.35 C 75.97 9.67 80.51 8.64 84.84 8.84 C 89.66 9.11 94.46 9.97 99.00 11.63 C 100.57 12.34 101.90 13.44 103.23 14.51 C 97.62 15.58 98.24 22.99 94.04 25.25 C 88.12 24.31 82.21 23.22 76.22 22.76 C 73.40 22.26 70.51 21.68 67.73 22.62 C 67.05 22.72 65.68 22.90 65.00 22.99 C 62.23 23.32 59.53 24.04 56.87 24.83 Z" />
</g>
<g id="#e6cf7dff">
<path fill="#e6cf7d" opacity="1.00" d=" M 84.84 8.84 C 85.19 8.54 85.90 7.95 86.25 7.65 C 91.00 8.15 95.88 8.69 100.27 10.65 C 99.95 10.89 99.32 11.38 99.00 11.63 C 94.46 9.97 89.66 9.11 84.84 8.84 Z" />
</g>
<g id="#c8b46aff">
<path fill="#c8b46a" opacity="1.00" d=" M 99.00 11.63 C 99.32 11.38 99.95 10.89 100.27 10.65 C 101.58 11.30 102.77 12.17 103.98 12.99 L 104.10 13.82 L 104.18 14.83 L 103.23 14.51 C 101.90 13.44 100.57 12.34 99.00 11.63 Z" />
</g>
<g id="#b0c09af9">
<path fill="#b0c09a" opacity="0.98" d=" M 111.91 10.95 C 113.48 11.61 114.59 13.01 115.65 14.29 C 117.79 21.08 120.57 27.84 121.00 34.99 C 121.02 38.08 120.78 41.23 121.59 44.25 L 121.70 44.84 C 120.74 47.14 118.96 53.28 119.87 43.06 C 119.59 39.17 118.25 35.42 118.92 31.50 C 118.51 31.48 117.71 31.44 117.30 31.43 C 116.10 27.96 115.01 24.46 114.82 20.76 C 115.24 18.27 114.85 15.77 113.19 13.81 C 112.90 13.32 112.31 12.35 112.01 11.86 L 111.91 10.95 Z" />
</g>
<g id="#dedca6ff">
<path fill="#dedca6" opacity="1.00" d=" M 103.98 12.99 C 106.65 12.54 109.32 12.21 112.01 11.86 C 112.31 12.35 112.90 13.32 113.19 13.81 L 113.14 14.80 C 110.76 14.98 108.41 15.36 106.10 15.94 C 105.44 15.22 104.78 14.52 104.10 13.82 L 103.98 12.99 Z" />
</g>
<g id="#9a9667ff">
<path fill="#9a9667" opacity="1.00" d=" M 104.10 13.82 C 104.78 14.52 105.44 15.22 106.10 15.94 C 106.73 17.32 107.37 18.70 108.01 20.08 C 108.55 22.08 108.99 24.11 109.30 26.16 C 108.92 27.10 108.51 28.03 108.07 28.95 C 108.02 27.10 107.83 25.25 107.28 23.48 C 106.97 22.15 106.72 20.79 106.14 19.54 C 105.61 18.23 104.95 16.99 104.31 15.74 L 104.18 14.83 L 104.10 13.82 Z" />
</g>
<g id="#aab48fff">
<path fill="#aab48f" opacity="1.00" d=" M 113.19 13.81 C 114.85 15.77 115.24 18.27 114.82 20.76 C 112.54 22.83 113.58 27.17 109.30 26.16 C 108.99 24.11 108.55 22.08 108.01 20.08 C 109.64 20.05 111.26 20.04 112.88 19.90 C 113.04 18.20 113.07 16.50 113.14 14.80 L 113.19 13.81 Z" />
</g>
<g id="#ece5aaff">
<path fill="#ece5aa" opacity="1.00" d=" M 94.04 25.25 C 98.24 22.99 97.62 15.58 103.23 14.51 L 104.18 14.83 L 104.31 15.74 C 101.65 19.23 99.03 22.85 97.68 27.07 C 96.49 26.71 95.29 26.34 94.09 26.01 L 94.04 25.25 Z" />
</g>
<g id="#c0c59bff">
<path fill="#c0c59b" opacity="1.00" d=" M 106.10 15.94 C 108.41 15.36 110.76 14.98 113.14 14.80 C 113.07 16.50 113.04 18.20 112.88 19.90 C 111.26 20.04 109.64 20.05 108.01 20.08 C 107.37 18.70 106.73 17.32 106.10 15.94 Z" />
</g>
<g id="#d2cfa0ff">
<path fill="#d2cfa0" opacity="1.00" d=" M 104.31 15.74 C 104.95 16.99 105.61 18.23 106.14 19.54 C 102.76 21.68 102.67 26.88 98.95 28.37 C 98.63 28.04 98.00 27.40 97.68 27.07 C 99.03 22.85 101.65 19.23 104.31 15.74 Z" />
</g>
<g id="#b8ba93ff">
<path fill="#b8ba93" opacity="1.00" d=" M 98.95 28.37 C 102.67 26.88 102.76 21.68 106.14 19.54 C 106.72 20.79 106.97 22.15 107.28 23.48 C 105.26 25.88 103.75 28.62 102.08 31.26 L 101.24 30.89 C 100.48 30.04 99.71 29.20 98.95 28.37 Z" />
</g>
<g id="#97a184fe">
<path fill="#97a184" opacity="1.00" d=" M 109.30 26.16 C 113.58 27.17 112.54 22.83 114.82 20.76 C 115.01 24.46 116.10 27.96 117.30 31.43 C 117.71 31.44 118.51 31.48 118.92 31.50 C 118.25 35.42 119.59 39.17 119.87 43.06 C 118.96 53.28 120.74 47.14 121.70 44.84 C 122.04 46.91 122.14 49.03 121.73 51.09 L 121.20 50.93 C 120.88 50.69 120.23 50.23 119.91 49.99 C 119.81 53.80 120.06 57.57 120.64 61.31 C 121.31 66.85 119.10 72.39 117.64 77.70 C 116.86 80.32 115.86 82.95 113.93 84.96 C 112.34 85.66 110.71 86.28 109.07 86.82 C 105.69 83.10 109.20 79.01 109.00 74.79 L 109.08 73.90 C 110.23 74.98 111.50 75.97 113.11 75.17 C 115.94 77.09 114.34 72.76 114.82 71.17 C 113.53 71.88 112.28 72.65 110.96 73.29 C 108.85 71.10 108.90 67.74 108.01 64.94 C 108.11 59.64 107.53 54.26 108.53 49.01 C 109.52 46.87 111.06 45.06 112.14 42.97 C 109.34 42.52 108.64 45.77 107.67 47.71 C 106.92 49.44 106.90 51.36 106.66 53.20 C 105.85 47.75 106.97 42.20 106.00 36.78 C 107.61 33.57 110.13 29.65 114.24 31.63 C 113.58 27.49 109.37 29.30 107.15 31.08 C 107.38 30.55 107.84 29.48 108.07 28.95 C 108.51 28.03 108.92 27.10 109.30 26.16 M 110.33 58.10 C 109.58 59.64 109.53 62.02 111.31 62.89 C 112.88 63.64 113.04 61.90 111.97 61.19 C 111.99 58.08 111.33 54.99 111.96 51.89 C 109.22 52.73 109.84 55.92 110.33 58.10 Z" />
</g>
<g id="#f2eba5ff">
<path fill="#f2eba5" opacity="1.00" d=" M 67.73 22.62 C 70.51 21.68 73.40 22.26 76.22 22.76 C 73.39 22.74 70.56 22.70 67.73 22.62 Z" />
</g>
<g id="#cfb057f9">
<path fill="#cfb057" opacity="0.98" d=" M 56.87 24.83 C 59.53 24.04 62.23 23.32 65.00 22.99 L 65.00 23.97 L 64.97 24.96 C 61.81 24.89 58.70 25.25 56.04 27.01 C 56.25 26.47 56.66 25.38 56.87 24.83 Z" />
</g>
<g id="#ba923dff">
<path fill="#ba923d" opacity="1.00" d=" M 65.00 22.99 C 65.68 22.90 67.05 22.72 67.73 22.62 C 70.56 22.70 73.39 22.74 76.22 22.76 C 82.21 23.22 88.12 24.31 94.04 25.25 L 94.09 26.01 L 94.12 26.88 C 89.82 26.13 85.57 25.17 81.23 24.72 C 75.87 23.80 70.41 24.04 65.00 23.97 L 65.00 22.99 Z" />
</g>
<g id="#e8d992ff">
<path fill="#e8d992" opacity="1.00" d=" M 65.00 23.97 C 70.41 24.04 75.87 23.80 81.23 24.72 C 75.81 24.88 70.39 25.06 64.97 24.96 L 65.00 23.97 Z" />
</g>
<g id="#a5ac8dff">
<path fill="#a5ac8d" opacity="1.00" d=" M 102.08 31.26 C 103.75 28.62 105.26 25.88 107.28 23.48 C 107.83 25.25 108.02 27.10 108.07 28.95 C 107.84 29.48 107.38 30.55 107.15 31.08 C 106.44 32.82 105.89 34.72 104.47 36.03 C 103.90 34.33 103.15 32.70 102.08 31.26 Z" />
</g>
<g id="#fefdbdff">
<path fill="#fefdbd" opacity="1.00" d=" M 56.04 27.01 C 58.70 25.25 61.81 24.89 64.97 24.96 C 70.39 25.06 75.81 24.88 81.23 24.72 C 85.57 25.17 89.82 26.13 94.12 26.88 C 90.23 32.08 90.20 39.02 88.80 45.15 L 87.78 45.35 C 84.58 45.14 81.39 45.02 78.20 44.72 C 69.42 43.28 60.52 44.35 51.70 44.29 C 52.53 38.44 53.46 32.37 56.04 27.01 Z" />
</g>
<g id="#987f41ff">
<path fill="#987f41" opacity="1.00" d=" M 94.09 26.01 C 95.29 26.34 96.49 26.71 97.68 27.07 C 98.00 27.40 98.63 28.04 98.95 28.37 C 99.71 29.20 100.48 30.04 101.24 30.89 L 101.20 31.86 L 100.33 31.93 C 99.61 31.18 98.87 30.45 98.11 29.74 C 97.49 29.12 96.81 28.58 96.07 28.11 C 95.58 27.80 94.61 27.18 94.12 26.88 L 94.09 26.01 Z" />
</g>
<g id="#f5ecafff">
<path fill="#f5ecaf" opacity="1.00" d=" M 94.12 26.88 C 94.61 27.18 95.58 27.80 96.07 28.11 C 94.37 32.96 93.10 37.93 91.94 42.93 C 91.72 44.47 90.19 45.13 88.80 45.15 C 90.20 39.02 90.23 32.08 94.12 26.88 Z" />
</g>
<g id="#ded7a3ff">
<path fill="#ded7a3" opacity="1.00" d=" M 96.07 28.11 C 96.81 28.58 97.49 29.12 98.11 29.74 C 95.91 34.91 95.03 40.53 93.92 46.01 C 92.38 45.84 89.32 45.51 87.78 45.35 L 88.80 45.15 C 90.19 45.13 91.72 44.47 91.94 42.93 C 93.10 37.93 94.37 32.96 96.07 28.11 Z" />
</g>
<g id="#7a734cff">
<path fill="#7a734c" opacity="1.00" d=" M 107.15 31.08 C 109.37 29.30 113.58 27.49 114.24 31.63 C 110.13 29.65 107.61 33.57 106.00 36.78 C 105.52 37.12 104.57 37.81 104.10 38.15 C 103.48 36.74 102.89 35.31 102.21 33.93 C 101.96 33.41 101.45 32.38 101.20 31.86 L 101.24 30.89 L 102.08 31.26 C 103.15 32.70 103.90 34.33 104.47 36.03 C 105.89 34.72 106.44 32.82 107.15 31.08 Z" />
</g>
<g id="#c7c59aff">
<path fill="#c7c59a" opacity="1.00" d=" M 98.11 29.74 C 98.87 30.45 99.61 31.18 100.33 31.93 C 97.92 36.61 96.69 41.75 95.83 46.92 C 95.38 46.92 94.47 46.92 94.02 46.92 L 93.92 46.01 C 95.03 40.53 95.91 34.91 98.11 29.74 Z" />
</g>
<g id="#b5b792ff">
<path fill="#b5b792" opacity="1.00" d=" M 100.33 31.93 L 101.20 31.86 C 101.45 32.38 101.96 33.41 102.21 33.93 C 101.13 38.72 99.29 43.32 98.66 48.21 C 97.71 47.78 96.77 47.35 95.83 46.92 C 96.69 41.75 97.92 36.61 100.33 31.93 Z" />
</g>
<g id="#a4a98aff">
<path fill="#a4a98a" opacity="1.00" d=" M 102.21 33.93 C 102.89 35.31 103.48 36.74 104.10 38.15 C 103.08 42.04 101.72 45.96 102.10 50.04 C 100.95 49.43 99.80 48.83 98.66 48.21 C 99.29 43.32 101.13 38.72 102.21 33.93 Z" />
</g>
<g id="#6e7f65c6">
<path fill="#6e7f65" opacity="0.78" d=" M 121.00 34.99 C 124.25 35.14 121.37 41.81 121.59 44.25 C 120.78 41.23 121.02 38.08 121.00 34.99 Z" />
</g>
<g id="#94977dff">
<path fill="#94977d" opacity="1.00" d=" M 104.10 38.15 C 104.57 37.81 105.52 37.12 106.00 36.78 C 106.97 42.20 105.85 47.75 106.66 53.20 C 106.80 57.14 106.92 61.07 107.04 65.01 C 107.22 68.07 108.27 70.97 109.08 73.90 L 109.00 74.79 C 108.21 76.31 107.53 77.94 106.27 79.15 C 104.34 74.90 106.21 67.80 102.04 65.17 L 101.28 65.00 C 101.83 60.78 102.11 56.53 102.24 52.27 C 102.25 51.52 102.21 50.78 102.10 50.04 C 101.72 45.96 103.08 42.04 104.10 38.15 Z" />
</g>
<g id="#6f6135ff">
<path fill="#6f6135" opacity="1.00" d=" M 107.67 47.71 C 108.64 45.77 109.34 42.52 112.14 42.97 C 111.06 45.06 109.52 46.87 108.53 49.01 C 108.31 48.68 107.88 48.03 107.67 47.71 Z" />
</g>
<g id="#c3a253fc">
<path fill="#c3a253" opacity="1.00" d=" M 51.15 45.99 C 51.29 45.57 51.56 44.72 51.70 44.29 C 60.52 44.35 69.42 43.28 78.20 44.72 C 76.60 44.98 73.39 45.51 71.78 45.78 C 64.91 46.03 58.03 46.03 51.15 45.99 Z" />
</g>
<g id="#b29044ff">
<path fill="#b29044" opacity="1.00" d=" M 71.78 45.78 C 73.39 45.51 76.60 44.98 78.20 44.72 C 81.39 45.02 84.58 45.14 87.78 45.35 C 89.32 45.51 92.38 45.84 93.92 46.01 L 94.02 46.92 C 93.73 47.11 93.14 47.49 92.84 47.68 L 91.95 47.94 C 90.27 47.59 88.59 47.21 86.88 47.04 C 81.86 46.51 76.82 46.06 71.78 45.78 Z" />
</g>
<g id="#fdfbb7ff">
<path fill="#fdfbb7" opacity="1.00" d=" M 51.15 45.99 C 58.03 46.03 64.91 46.03 71.78 45.78 C 76.82 46.06 81.86 46.51 86.88 47.04 C 87.36 47.36 88.31 48.00 88.78 48.32 C 87.21 53.55 84.80 58.55 83.86 63.97 C 72.24 64.40 60.66 63.64 49.08 62.96 C 48.84 57.20 50.78 51.69 51.15 45.99 Z" />
</g>
<g id="#f0e5aaff">
<path fill="#f0e5aa" opacity="1.00" d=" M 86.88 47.04 C 88.59 47.21 90.27 47.59 91.95 47.94 C 90.44 53.18 89.28 58.53 88.94 63.99 C 88.21 64.00 86.76 64.01 86.04 64.02 C 85.49 64.01 84.41 63.98 83.86 63.97 C 84.80 58.55 87.21 53.55 88.78 48.32 C 88.31 48.00 87.36 47.36 86.88 47.04 Z" />
</g>
<g id="#7f7040ff">
<path fill="#7f7040" opacity="1.00" d=" M 92.84 47.68 C 93.14 47.49 93.73 47.11 94.02 46.92 C 94.47 46.92 95.38 46.92 95.83 46.92 C 96.77 47.35 97.71 47.78 98.66 48.21 C 99.80 48.83 100.95 49.43 102.10 50.04 C 102.21 50.78 102.25 51.52 102.24 52.27 C 101.72 51.91 100.68 51.19 100.16 50.83 C 98.97 49.98 97.64 49.36 96.26 48.88 C 95.13 48.46 93.99 48.06 92.84 47.68 Z" />
</g>
<g id="#d7d09fff">
<path fill="#d7d09f" opacity="1.00" d=" M 91.95 47.94 L 92.84 47.68 C 95.43 52.72 91.96 58.56 91.85 63.86 C 91.12 63.89 89.66 63.96 88.94 63.99 C 89.28 58.53 90.44 53.18 91.95 47.94 Z" />
</g>
<g id="#bfbc92ff">
<path fill="#bfbc92" opacity="1.00" d=" M 92.84 47.68 C 93.99 48.06 95.13 48.46 96.26 48.88 C 96.55 54.26 95.46 59.81 94.12 65.00 C 91.38 64.97 88.64 64.95 85.91 64.94 L 86.04 64.02 C 86.76 64.01 88.21 64.00 88.94 63.99 C 89.66 63.96 91.12 63.89 91.85 63.86 C 91.96 58.56 95.43 52.72 92.84 47.68 Z" />
</g>
<g id="#7b7556ff">
<path fill="#7b7556" opacity="1.00" d=" M 106.66 53.20 C 106.90 51.36 106.92 49.44 107.67 47.71 C 107.88 48.03 108.31 48.68 108.53 49.01 C 107.53 54.26 108.11 59.64 108.01 64.94 L 107.04 65.01 C 106.92 61.07 106.80 57.14 106.66 53.20 Z" />
</g>
<g id="#abad8cff">
<path fill="#abad8c" opacity="1.00" d=" M 96.26 48.88 C 97.64 49.36 98.97 49.98 100.16 50.83 C 99.06 55.60 98.35 60.45 97.69 65.30 C 96.50 65.17 95.31 65.07 94.12 65.00 C 95.46 59.81 96.55 54.26 96.26 48.88 Z" />
</g>
<g id="#afc6a5ff">
<path fill="#afc6a5" opacity="1.00" d=" M 119.91 49.99 C 120.23 50.23 120.88 50.69 121.20 50.93 C 121.15 52.65 121.07 56.11 121.02 57.83 C 120.93 58.70 120.74 60.44 120.64 61.31 C 120.06 57.57 119.81 53.80 119.91 49.99 Z" />
</g>
<g id="#9da386ff">
<path fill="#9da386" opacity="1.00" d=" M 100.16 50.83 C 100.68 51.19 101.72 51.91 102.24 52.27 C 102.11 56.53 101.83 60.78 101.28 65.00 C 100.11 65.39 98.89 65.88 97.69 65.30 C 98.35 60.45 99.06 55.60 100.16 50.83 Z" />
</g>
<g id="#434e3c99">
<path fill="#434e3c" opacity="0.60" d=" M 121.20 50.93 L 121.73 51.09 C 122.31 52.99 123.05 56.92 121.02 57.83 C 121.07 56.11 121.15 52.65 121.20 50.93 Z" />
</g>
<g id="#858a6cff">
<path fill="#858a6c" opacity="1.00" d=" M 110.33 58.10 C 109.84 55.92 109.22 52.73 111.96 51.89 C 111.33 54.99 111.99 58.08 111.97 61.19 C 111.31 60.22 110.85 59.14 110.33 58.10 Z" />
</g>
<g id="#6f6d4bff">
<path fill="#6f6d4b" opacity="1.00" d=" M 110.33 58.10 C 110.85 59.14 111.31 60.22 111.97 61.19 C 113.04 61.90 112.88 63.64 111.31 62.89 C 109.53 62.02 109.58 59.64 110.33 58.10 Z" />
</g>
<g id="#bc9a50fe">
<path fill="#bc9a50" opacity="1.00" d=" M 49.08 62.96 C 60.66 63.64 72.24 64.40 83.86 63.97 C 84.41 63.98 85.49 64.01 86.04 64.02 L 85.91 64.94 C 85.39 65.16 84.35 65.60 83.83 65.82 C 71.91 66.84 60.09 64.52 48.19 65.05 C 48.41 64.53 48.86 63.49 49.08 62.96 Z" />
</g>
<g id="#fdf6b2ff">
<path fill="#fdf6b2" opacity="1.00" d=" M 48.19 65.05 C 60.09 64.52 71.91 66.84 83.83 65.82 L 84.93 65.92 C 84.87 67.35 84.77 70.22 84.72 71.65 C 79.35 75.23 73.22 77.58 66.94 78.99 C 60.77 80.81 56.04 75.36 50.02 76.03 C 46.25 74.68 44.53 75.64 44.88 78.92 C 44.70 79.25 44.33 79.91 44.15 80.24 C 42.76 74.51 47.12 70.29 48.19 65.05 Z" />
</g>
<g id="#826c37ff">
<path fill="#826c37" opacity="1.00" d=" M 83.83 65.82 C 84.35 65.60 85.39 65.16 85.91 64.94 C 88.64 64.95 91.38 64.97 94.12 65.00 C 95.31 65.07 96.50 65.17 97.69 65.30 C 98.89 65.88 100.11 65.39 101.28 65.00 L 102.04 65.17 C 101.82 65.58 101.37 66.39 101.14 66.79 C 99.47 66.90 97.80 66.97 96.12 66.99 C 95.62 66.96 94.62 66.88 94.12 66.84 C 92.08 66.10 89.92 66.07 87.78 66.13 C 87.07 66.08 85.64 65.97 84.93 65.92 L 83.83 65.82 Z" />
</g>
<g id="#83876fff">
<path fill="#83876f" opacity="1.00" d=" M 102.04 65.17 C 106.21 67.80 104.34 74.90 106.27 79.15 C 107.53 77.94 108.21 76.31 109.00 74.79 C 109.20 79.01 105.69 83.10 109.07 86.82 C 107.76 87.26 106.46 87.71 105.13 88.07 C 103.33 81.07 102.00 73.97 101.14 66.79 C 101.37 66.39 101.82 65.58 102.04 65.17 Z" />
</g>
<g id="#645b33ff">
<path fill="#645b33" opacity="1.00" d=" M 107.04 65.01 L 108.01 64.94 C 108.90 67.74 108.85 71.10 110.96 73.29 C 111.67 73.92 112.39 74.55 113.11 75.17 C 111.50 75.97 110.23 74.98 109.08 73.90 C 108.27 70.97 107.22 68.07 107.04 65.01 Z" />
</g>
<g id="#eedca1ff">
<path fill="#eedca1" opacity="1.00" d=" M 84.93 65.92 C 85.64 65.97 87.07 66.08 87.78 66.13 C 88.33 66.32 89.44 66.68 89.99 66.86 C 89.07 69.80 89.57 73.89 86.01 75.02 C 80.84 77.45 74.77 77.62 70.02 81.08 C 65.10 82.40 59.40 82.35 55.31 78.98 C 52.15 77.08 48.04 76.87 44.88 78.92 C 44.53 75.64 46.25 74.68 50.02 76.03 C 56.04 75.36 60.77 80.81 66.94 78.99 C 73.22 77.58 79.35 75.23 84.72 71.65 C 84.77 70.22 84.87 67.35 84.93 65.92 Z" />
</g>
<g id="#c4b88dff">
<path fill="#c4b88d" opacity="1.00" d=" M 87.78 66.13 C 89.92 66.07 92.08 66.10 94.12 66.84 C 94.03 70.16 94.21 73.51 93.84 76.82 C 91.55 78.79 88.36 79.02 85.69 80.29 C 82.70 80.07 79.72 79.93 76.74 79.68 C 81.28 77.80 86.97 79.31 90.78 75.81 C 93.48 73.97 91.78 70.04 91.88 67.26 C 91.40 67.16 90.46 66.96 89.99 66.86 C 89.44 66.68 88.33 66.32 87.78 66.13 Z" />
</g>
<g id="#d8ca98ff">
<path fill="#d8ca98" opacity="1.00" d=" M 89.99 66.86 C 90.46 66.96 91.40 67.16 91.88 67.26 C 91.78 70.04 93.48 73.97 90.78 75.81 C 86.97 79.31 81.28 77.80 76.74 79.68 C 75.39 80.07 74.07 80.54 72.76 81.02 C 72.07 81.04 70.70 81.06 70.02 81.08 C 74.77 77.62 80.84 77.45 86.01 75.02 C 89.57 73.89 89.07 69.80 89.99 66.86 Z" />
</g>
<g id="#b1ac89ff">
<path fill="#b1ac89" opacity="1.00" d=" M 94.12 66.84 C 94.62 66.88 95.62 66.96 96.12 66.99 C 96.69 70.17 97.54 73.53 96.71 76.72 C 95.96 79.87 92.19 79.74 89.75 80.88 C 88.38 80.85 87.02 80.63 85.69 80.29 C 88.36 79.02 91.55 78.79 93.84 76.82 C 94.21 73.51 94.03 70.16 94.12 66.84 Z" />
</g>
<g id="#9ea185ff">
<path fill="#9ea185" opacity="1.00" d=" M 96.12 66.99 C 97.80 66.97 99.47 66.90 101.14 66.79 C 102.00 73.97 103.33 81.07 105.13 88.07 L 104.29 88.31 C 102.71 84.01 99.48 79.65 94.24 81.15 C 92.74 81.07 91.25 80.98 89.75 80.88 C 92.19 79.74 95.96 79.87 96.71 76.72 C 97.54 73.53 96.69 70.17 96.12 66.99 Z" />
</g>
<g id="#818463ff">
<path fill="#818463" opacity="1.00" d=" M 110.96 73.29 C 112.28 72.65 113.53 71.88 114.82 71.17 C 114.34 72.76 115.94 77.09 113.11 75.17 C 112.39 74.55 111.67 73.92 110.96 73.29 Z" />
</g>
<g id="#64d5eaf8">
<path fill="#64d5ea" opacity="0.97" d=" M 22.91 76.03 C 30.13 75.58 35.59 81.26 41.79 84.13 L 41.94 84.91 C 38.91 84.42 40.44 87.59 40.52 89.34 C 41.24 91.97 38.64 93.70 36.78 94.99 C 33.96 95.03 32.68 91.77 30.91 90.09 C 27.77 85.75 24.00 81.45 22.91 76.03 Z" />
</g>
<g id="#dfc289fb">
<path fill="#dfc289" opacity="1.00" d=" M 44.88 78.92 C 48.04 76.87 52.15 77.08 55.31 78.98 C 52.27 78.94 49.26 79.47 46.35 80.30 C 45.97 81.61 45.67 82.94 45.30 84.24 C 44.37 83.14 43.56 81.72 44.15 80.24 C 44.33 79.91 44.70 79.25 44.88 78.92 Z" />
</g>
<g id="#ab8f6bfe">
<path fill="#ab8f6b" opacity="1.00" d=" M 46.35 80.30 C 49.26 79.47 52.27 78.94 55.31 78.98 C 53.85 79.62 52.31 80.08 50.89 80.81 C 49.13 82.17 47.64 83.83 45.97 85.29 L 45.09 85.05 L 45.30 84.24 C 45.67 82.94 45.97 81.61 46.35 80.30 Z" />
</g>
<g id="#cdb188ff">
<path fill="#cdb188" opacity="1.00" d=" M 55.31 78.98 C 59.40 82.35 65.10 82.40 70.02 81.08 C 70.70 81.06 72.07 81.04 72.76 81.02 C 73.12 81.29 73.85 81.83 74.22 82.10 C 73.17 82.76 72.10 83.41 71.03 84.05 C 70.59 84.09 69.70 84.18 69.25 84.22 C 66.42 84.20 63.59 84.20 60.77 84.23 C 57.77 82.19 54.86 80.11 50.89 80.81 C 52.31 80.08 53.85 79.62 55.31 78.98 Z" />
</g>
<g id="#a68e6fff">
<path fill="#a68e6f" opacity="1.00" d=" M 72.76 81.02 C 74.07 80.54 75.39 80.07 76.74 79.68 C 79.72 79.93 82.70 80.07 85.69 80.29 C 87.02 80.63 88.38 80.85 89.75 80.88 C 91.25 80.98 92.74 81.07 94.24 81.15 C 92.78 81.70 91.28 82.18 89.80 82.68 C 89.05 82.80 87.55 83.02 86.80 83.14 C 85.75 83.27 84.72 83.47 83.70 83.72 C 81.08 81.47 77.43 82.24 74.22 82.10 C 73.85 81.83 73.12 81.29 72.76 81.02 Z" />
</g>
<g id="#eeefefff">
<path fill="#eeefef" opacity="1.00" d=" M 45.97 85.29 C 47.64 83.83 49.13 82.17 50.89 80.81 C 54.86 80.11 57.77 82.19 60.77 84.23 C 60.97 84.66 61.37 85.54 61.56 85.98 C 61.69 86.49 61.94 87.51 62.07 88.03 C 61.94 88.54 61.70 89.58 61.58 90.09 C 61.33 90.59 60.81 91.59 60.55 92.09 C 60.02 93.04 59.51 94.00 58.97 94.95 C 56.12 97.72 50.55 98.38 48.22 94.78 C 45.61 92.31 46.13 88.58 45.97 85.29 M 53.29 83.33 C 50.03 84.02 45.88 86.42 48.14 90.77 C 49.48 92.21 51.13 93.35 53.00 93.99 C 56.38 93.30 59.50 89.12 57.05 85.97 C 56.17 84.76 55.15 82.37 53.29 83.33 Z" />
</g>
<g id="#908b73ff">
<path fill="#908b73" opacity="1.00" d=" M 94.24 81.15 C 99.48 79.65 102.71 84.01 104.29 88.31 C 103.51 88.22 101.94 88.03 101.16 87.93 C 97.99 85.03 94.23 82.78 89.80 82.68 C 91.28 82.18 92.78 81.70 94.24 81.15 Z" />
</g>
<g id="#ededeeff">
<path fill="#ededee" opacity="1.00" d=" M 74.22 82.10 C 77.43 82.24 81.08 81.47 83.70 83.72 C 84.08 84.24 84.82 85.28 85.20 85.81 C 86.12 90.30 85.05 94.40 81.62 97.24 C 79.10 97.55 76.58 97.86 74.07 98.18 C 72.83 97.20 71.62 96.18 70.37 95.23 C 70.12 94.66 69.62 93.53 69.37 92.96 C 69.16 91.59 68.98 90.23 68.83 88.85 L 68.78 87.89 C 69.40 86.54 70.19 85.27 71.03 84.05 C 72.10 83.41 73.17 82.76 74.22 82.10 M 76.29 84.33 C 73.03 85.02 68.88 87.42 71.14 91.77 C 72.48 93.21 74.13 94.35 76.00 94.99 C 79.38 94.30 82.50 90.12 80.05 86.97 C 79.17 85.76 78.15 83.37 76.29 84.33 Z" />
</g>
<g id="#474545ff">
<path fill="#474545" opacity="1.00" d=" M 53.29 83.33 C 55.15 82.37 56.17 84.76 57.05 85.97 C 59.50 89.12 56.38 93.30 53.00 93.99 C 51.13 93.35 49.48 92.21 48.14 90.77 C 45.88 86.42 50.03 84.02 53.29 83.33 Z" />
</g>
<g id="#1b1716ff">
<path fill="#1b1716" opacity="1.00" d=" M 83.70 83.72 C 84.72 83.47 85.75 83.27 86.80 83.14 C 87.84 83.76 88.88 84.37 89.94 84.97 C 90.79 85.89 91.63 86.82 92.41 87.81 L 91.35 87.58 C 89.62 87.14 87.83 87.04 86.06 86.94 C 85.84 86.65 85.41 86.09 85.20 85.81 C 84.82 85.28 84.08 84.24 83.70 83.72 Z" />
</g>
<g id="#82715cff">
<path fill="#82715c" opacity="1.00" d=" M 86.80 83.14 C 87.55 83.02 89.05 82.80 89.80 82.68 C 94.23 82.78 97.99 85.03 101.16 87.93 C 99.50 87.92 97.84 87.93 96.19 87.90 C 94.79 85.63 92.59 84.63 89.94 84.97 C 88.88 84.37 87.84 83.76 86.80 83.14 Z" />
</g>
<g id="#5ab0c5fe">
<path fill="#5ab0c5" opacity="1.00" d=" M 41.79 84.13 C 42.89 84.44 43.99 84.74 45.09 85.05 L 45.97 85.29 C 46.13 88.58 45.61 92.31 48.22 94.78 C 50.55 98.38 56.12 97.72 58.97 94.95 C 62.76 94.33 66.59 94.71 70.37 95.23 C 71.62 96.18 72.83 97.20 74.07 98.18 C 75.04 102.41 70.68 105.08 71.08 109.17 C 71.05 109.85 70.99 111.21 70.96 111.89 C 71.44 113.80 69.85 115.20 68.03 115.17 C 70.64 110.31 70.22 104.51 70.87 99.21 C 67.48 95.23 60.51 95.02 57.25 99.26 C 56.07 101.75 56.32 104.65 55.24 107.17 C 53.54 108.20 51.90 109.32 50.15 110.25 C 51.89 107.50 54.94 104.71 52.78 101.27 C 46.35 98.42 42.20 91.95 41.94 84.91 L 41.79 84.13 Z" />
</g>
<g id="#a58368ff">
<path fill="#a58368" opacity="1.00" d=" M 60.77 84.23 C 63.59 84.20 66.42 84.20 69.25 84.22 C 66.66 84.70 63.89 84.62 61.56 85.98 C 61.37 85.54 60.97 84.66 60.77 84.23 Z" />
</g>
<g id="#2a2523ff">
<path fill="#2a2523" opacity="1.00" d=" M 69.25 84.22 C 69.70 84.18 70.59 84.09 71.03 84.05 C 70.19 85.27 69.40 86.54 68.78 87.89 C 67.10 87.93 63.74 87.99 62.07 88.03 C 61.94 87.51 61.69 86.49 61.56 85.98 C 63.89 84.62 66.66 84.70 69.25 84.22 Z" />
</g>
<g id="#454343ff">
<path fill="#454343" opacity="1.00" d=" M 76.29 84.33 C 78.15 83.37 79.17 85.76 80.05 86.97 C 82.50 90.12 79.38 94.30 76.00 94.99 C 74.13 94.35 72.48 93.21 71.14 91.77 C 68.88 87.42 73.03 85.02 76.29 84.33 Z" />
</g>
<g id="#5ec0d4f9">
<path fill="#5ec0d4" opacity="0.98" d=" M 40.52 89.34 C 40.44 87.59 38.91 84.42 41.94 84.91 C 42.20 91.95 46.35 98.42 52.78 101.27 C 54.94 104.71 51.89 107.50 50.15 110.25 C 48.88 111.00 47.56 111.66 46.23 112.29 L 45.17 112.04 C 45.09 111.58 44.91 110.66 44.83 110.21 L 45.61 110.24 C 49.30 110.69 51.52 105.11 50.99 101.84 C 50.39 102.59 49.83 103.36 49.29 104.15 C 49.22 103.64 49.09 102.63 49.02 102.12 C 46.16 104.63 42.91 106.63 39.80 108.82 C 39.09 108.87 37.68 108.96 36.98 109.01 C 34.52 109.28 36.98 106.35 38.20 106.16 C 41.20 105.07 38.82 102.13 38.96 99.92 C 41.13 99.96 46.53 104.45 45.85 100.21 C 42.97 98.36 38.59 98.18 36.78 94.99 C 38.64 93.70 41.24 91.97 40.52 89.34 Z" />
</g>
<g id="#6b5a4bff">
<path fill="#6b5a4b" opacity="1.00" d=" M 89.94 84.97 C 92.59 84.63 94.79 85.63 96.19 87.90 C 95.68 87.92 94.66 87.95 94.15 87.97 C 93.72 87.93 92.84 87.85 92.41 87.81 C 91.63 86.82 90.79 85.89 89.94 84.97 Z" />
</g>
<g id="#66d9f2ff">
<path fill="#66d9f2" opacity="1.00" d=" M 109.07 86.82 C 110.71 86.28 112.34 85.66 113.93 84.96 C 114.79 85.05 116.51 85.24 117.37 85.33 C 114.83 88.75 112.18 92.18 108.44 94.36 C 104.33 95.17 100.56 97.55 96.21 96.91 C 93.72 95.04 95.65 91.66 96.28 89.29 C 98.90 88.90 101.74 89.21 104.29 88.31 L 105.13 88.07 C 106.46 87.71 107.76 87.26 109.07 86.82 Z" />
</g>
<g id="#3e94bbf3">
<path fill="#3e94bb" opacity="0.95" d=" M 117.37 85.33 L 118.07 84.87 C 117.94 89.97 113.62 94.08 109.95 97.15 C 108.02 98.53 106.06 99.89 103.83 100.75 C 102.85 101.12 101.87 101.49 100.88 101.85 C 100.92 101.16 100.99 99.78 101.02 99.09 C 103.57 97.65 106.53 96.68 108.44 94.36 C 112.18 92.18 114.83 88.75 117.37 85.33 Z" />
</g>
<g id="#588e9dff">
<path fill="#588e9d" opacity="1.00" d=" M 85.20 85.81 C 85.41 86.09 85.84 86.65 86.06 86.94 C 86.05 87.67 86.03 89.14 86.02 89.87 C 87.69 88.87 89.41 87.93 91.35 87.58 L 92.41 87.81 C 89.69 90.05 87.56 92.84 85.98 95.99 C 85.82 99.26 83.21 97.56 81.62 97.24 C 85.05 94.40 86.12 90.30 85.20 85.81 Z" />
</g>
<g id="#3b5a62ff">
<path fill="#3b5a62" opacity="1.00" d=" M 86.06 86.94 C 87.83 87.04 89.62 87.14 91.35 87.58 C 89.41 87.93 87.69 88.87 86.02 89.87 C 86.03 89.14 86.05 87.67 86.06 86.94 Z" />
</g>
<g id="#457382ff">
<path fill="#457382" opacity="1.00" d=" M 62.07 88.03 C 63.74 87.99 67.10 87.93 68.78 87.89 L 68.83 88.85 C 67.63 91.79 64.02 89.86 61.58 90.09 C 61.70 89.58 61.94 88.54 62.07 88.03 Z" />
</g>
<g id="#4f9eb7fd">
<path fill="#4f9eb7" opacity="1.00" d=" M 92.41 87.81 C 92.84 87.85 93.72 87.93 94.15 87.97 C 91.99 90.87 88.78 93.91 89.09 97.76 C 91.95 100.95 97.42 97.83 101.02 99.09 C 100.99 99.78 100.92 101.16 100.88 101.85 C 100.41 102.03 99.48 102.37 99.01 102.55 C 98.74 102.41 98.18 102.14 97.91 102.01 C 95.10 100.82 91.89 100.95 88.90 101.03 C 88.99 103.19 90.23 105.01 91.00 106.97 C 90.02 106.55 89.02 106.20 87.99 105.92 C 88.10 107.59 87.54 109.73 89.18 110.83 C 90.68 113.09 93.29 111.40 95.03 110.42 C 96.88 108.97 95.72 112.70 94.41 112.52 C 91.94 114.56 87.91 113.04 86.08 110.70 C 84.80 108.18 85.48 103.61 82.29 102.83 C 82.54 105.87 82.92 108.91 83.04 111.97 C 82.79 112.23 82.29 112.77 82.04 113.04 C 82.02 111.26 81.97 107.70 81.95 105.92 C 81.53 102.17 76.83 100.22 74.70 103.80 C 73.25 105.42 72.23 107.34 71.08 109.17 C 70.68 105.08 75.04 102.41 74.07 98.18 C 76.58 97.86 79.10 97.55 81.62 97.24 C 83.21 97.56 85.82 99.26 85.98 95.99 C 87.56 92.84 89.69 90.05 92.41 87.81 Z" />
</g>
<g id="#5cb9d1ff">
<path fill="#5cb9d1" opacity="1.00" d=" M 94.15 87.97 C 94.66 87.95 95.68 87.92 96.19 87.90 C 97.84 87.93 99.50 87.92 101.16 87.93 C 101.94 88.03 103.51 88.22 104.29 88.31 C 101.74 89.21 98.90 88.90 96.28 89.29 C 95.65 91.66 93.72 95.04 96.21 96.91 C 100.56 97.55 104.33 95.17 108.44 94.36 C 106.53 96.68 103.57 97.65 101.02 99.09 C 97.42 97.83 91.95 100.95 89.09 97.76 C 88.78 93.91 91.99 90.87 94.15 87.97 Z" />
</g>
<g id="#508b9cff">
<path fill="#508b9c" opacity="1.00" d=" M 61.58 90.09 C 64.02 89.86 67.63 91.79 68.83 88.85 C 68.98 90.23 69.16 91.59 69.37 92.96 C 68.74 94.30 67.49 92.63 66.60 92.53 C 64.69 91.64 62.49 93.01 60.55 92.09 C 60.81 91.59 61.33 90.59 61.58 90.09 Z" />
</g>
<g id="#5ba1b4ff">
<path fill="#5ba1b4" opacity="1.00" d=" M 58.97 94.95 C 59.51 94.00 60.02 93.04 60.55 92.09 C 62.49 93.01 64.69 91.64 66.60 92.53 C 67.49 92.63 68.74 94.30 69.37 92.96 C 69.62 93.53 70.12 94.66 70.37 95.23 C 66.59 94.71 62.76 94.33 58.97 94.95 Z" />
</g>
<g id="#61c8dfff">
<path fill="#61c8df" opacity="1.00" d=" M 57.25 99.26 C 60.51 95.02 67.48 95.23 70.87 99.21 C 70.22 104.51 70.64 110.31 68.03 115.17 C 66.10 114.59 65.92 112.26 65.19 110.70 C 65.07 109.05 64.99 107.40 64.93 105.75 C 64.91 105.04 64.89 103.62 64.88 102.91 C 61.56 103.38 60.89 107.75 58.82 109.89 C 57.78 110.85 56.77 111.84 55.78 112.84 C 54.75 114.60 53.16 113.62 52.92 111.92 C 53.77 110.37 54.58 108.80 55.24 107.17 C 56.32 104.65 56.07 101.75 57.25 99.26 Z" />
</g>
<g id="#819783f2">
<path fill="#819783" opacity="0.95" d=" M 103.83 100.75 C 106.06 99.89 108.02 98.53 109.95 97.15 C 110.84 99.41 112.23 103.23 108.98 104.23 C 106.51 104.40 105.14 102.53 103.83 100.75 Z" />
</g>
<g id="#4088a6fe">
<path fill="#4088a6" opacity="1.00" d=" M 88.90 101.03 C 91.89 100.95 95.10 100.82 97.91 102.01 C 96.02 102.58 94.39 103.57 95.05 105.83 C 99.10 107.65 103.74 106.59 108.02 106.99 C 107.74 108.08 106.73 108.42 105.00 107.99 C 100.89 107.86 96.79 108.12 92.78 108.99 C 92.07 108.42 91.48 107.75 91.00 106.97 C 90.23 105.01 88.99 103.19 88.90 101.03 Z" />
</g>
<g id="#233333c0">
<path fill="#233333" opacity="0.75" d=" M 100.88 101.85 C 101.87 101.49 102.85 101.12 103.83 100.75 C 105.14 102.53 106.51 104.40 108.98 104.23 C 108.73 104.66 108.23 105.53 107.97 105.96 L 107.18 105.86 C 105.41 104.57 103.33 103.93 101.18 103.62 C 100.64 103.35 99.55 102.82 99.01 102.55 C 99.48 102.37 100.41 102.03 100.88 101.85 Z" />
</g>
<g id="#53a5b8fe">
<path fill="#53a5b8" opacity="1.00" d=" M 39.80 108.82 C 42.91 106.63 46.16 104.63 49.02 102.12 C 49.09 102.63 49.22 103.64 49.29 104.15 C 49.13 105.09 48.82 105.97 48.36 106.77 C 45.98 106.31 43.77 107.69 41.72 108.70 C 41.24 108.73 40.28 108.79 39.80 108.82 Z" />
</g>
<g id="#6ee0efff">
<path fill="#6ee0ef" opacity="1.00" d=" M 49.29 104.15 C 49.83 103.36 50.39 102.59 50.99 101.84 C 51.52 105.11 49.30 110.69 45.61 110.24 L 46.21 109.43 C 46.96 108.57 47.67 107.68 48.36 106.77 C 48.82 105.97 49.13 105.09 49.29 104.15 Z" />
</g>
<g id="#5cb5caff">
<path fill="#5cb5ca" opacity="1.00" d=" M 74.70 103.80 C 76.83 100.22 81.53 102.17 81.95 105.92 C 80.41 106.21 78.32 105.53 77.35 107.13 C 77.53 108.43 77.80 109.71 78.02 111.01 L 77.09 110.82 C 74.92 109.10 74.86 106.34 74.70 103.80 Z" />
</g>
<g id="#54acc5fb">
<path fill="#54acc5" opacity="1.00" d=" M 95.05 105.83 C 94.39 103.57 96.02 102.58 97.91 102.01 C 98.18 102.14 98.74 102.41 99.01 102.55 C 99.55 102.82 100.64 103.35 101.18 103.62 C 100.63 103.73 99.55 103.94 99.01 104.04 C 100.56 106.29 104.58 105.72 107.18 105.86 L 107.97 105.96 L 108.02 106.99 C 103.74 106.59 99.10 107.65 95.05 105.83 Z" />
</g>
<g id="#50a3bdff">
<path fill="#50a3bd" opacity="1.00" d=" M 58.82 109.89 C 60.89 107.75 61.56 103.38 64.88 102.91 C 64.89 103.62 64.91 105.04 64.93 105.75 C 62.70 106.83 60.85 108.50 58.82 109.89 Z" />
</g>
<g id="#3b7b94f9">
<path fill="#3b7b94" opacity="0.98" d=" M 82.29 102.83 C 85.48 103.61 84.80 108.18 86.08 110.70 C 85.07 111.14 84.06 111.56 83.04 111.97 C 82.92 108.91 82.54 105.87 82.29 102.83 Z" />
</g>
<g id="#3d7e9aff">
<path fill="#3d7e9a" opacity="1.00" d=" M 71.08 109.17 C 72.23 107.34 73.25 105.42 74.70 103.80 C 74.86 106.34 74.92 109.10 77.09 110.82 C 75.02 110.99 72.90 111.06 70.96 111.89 C 70.99 111.21 71.05 109.85 71.08 109.17 Z" />
</g>
<g id="#63cde4fe">
<path fill="#63cde4" opacity="1.00" d=" M 99.01 104.04 C 99.55 103.94 100.63 103.73 101.18 103.62 C 103.33 103.93 105.41 104.57 107.18 105.86 C 104.58 105.72 100.56 106.29 99.01 104.04 Z" />
</g>
<g id="#3d708aff">
<path fill="#3d708a" opacity="1.00" d=" M 41.72 108.70 C 43.77 107.69 45.98 106.31 48.36 106.77 C 47.67 107.68 46.96 108.57 46.21 109.43 C 44.72 109.17 43.22 108.92 41.72 108.70 Z" />
</g>
<g id="#326c8bf7">
<path fill="#326c8b" opacity="0.97" d=" M 58.82 109.89 C 60.85 108.50 62.70 106.83 64.93 105.75 C 64.99 107.40 65.07 109.05 65.19 110.70 C 62.68 112.91 58.92 112.63 55.78 112.84 C 56.77 111.84 57.78 110.85 58.82 109.89 Z" />
</g>
<g id="#63cde4ff">
<path fill="#63cde4" opacity="1.00" d=" M 77.35 107.13 C 78.32 105.53 80.41 106.21 81.95 105.92 C 81.97 107.70 82.02 111.26 82.04 113.04 C 80.44 113.16 78.17 113.09 78.02 111.01 C 77.80 109.71 77.53 108.43 77.35 107.13 Z" />
</g>
<g id="#62cae3ff">
<path fill="#62cae3" opacity="1.00" d=" M 87.99 105.92 C 89.02 106.20 90.02 106.55 91.00 106.97 C 91.48 107.75 92.07 108.42 92.78 108.99 C 93.34 109.35 94.46 110.07 95.03 110.42 C 93.29 111.40 90.68 113.09 89.18 110.83 C 87.54 109.73 88.10 107.59 87.99 105.92 Z" />
</g>
<g id="#377590f2">
<path fill="#377590" opacity="0.95" d=" M 50.15 110.25 C 51.90 109.32 53.54 108.20 55.24 107.17 C 54.58 108.80 53.77 110.37 52.92 111.92 C 51.43 112.30 44.21 115.07 46.23 112.29 C 47.56 111.66 48.88 111.00 50.15 110.25 Z" />
</g>
<g id="#1b3241a5">
<path fill="#1b3241" opacity="0.65" d=" M 92.78 108.99 C 96.79 108.12 100.89 107.86 105.00 107.99 L 104.98 108.92 C 102.49 109.30 97.51 110.05 95.03 110.42 C 94.46 110.07 93.34 109.35 92.78 108.99 Z" />
</g>
<g id="#1c3141a8">
<path fill="#1c3141" opacity="0.66" d=" M 36.98 109.01 C 37.68 108.96 39.09 108.87 39.80 108.82 C 40.28 108.79 41.24 108.73 41.72 108.70 C 43.22 108.92 44.72 109.17 46.21 109.43 L 45.61 110.24 L 44.83 110.21 C 42.57 109.42 37.70 111.39 36.98 109.01 Z" />
</g>
</svg>
