<?xml version="1.0" encoding="UTF-8" ?>
<!DOCTYPE svg PUBLIC "-//W3C//DTD SVG 1.1//EN" "http://www.w3.org/Graphics/SVG/1.1/DTD/svg11.dtd">
<svg width="174pt" height="164pt" viewBox="0 0 174 164" version="1.1" xmlns="http://www.w3.org/2000/svg">
<g id="#c0a46af1">
<path fill="#c0a46a" opacity="0.95" d=" M 108.14 2.13 C 110.20 3.77 111.06 7.99 110.93 10.89 C 107.29 9.90 104.81 13.83 105.85 17.01 C 104.20 17.02 102.55 17.01 100.90 17.00 C 105.89 13.74 106.06 7.27 108.14 2.13 Z" />
</g>
<g id="#b0935df7">
<path fill="#b0935d" opacity="0.97" d=" M 92.43 9.74 C 91.69 8.12 92.11 7.62 93.68 8.23 C 94.69 11.38 97.83 13.69 97.87 17.09 C 97.42 16.85 96.53 16.36 96.08 16.11 C 93.37 19.76 91.38 23.92 89.68 28.12 C 89.42 27.55 88.89 26.42 88.63 25.86 C 89.17 24.63 89.73 23.40 90.23 22.15 C 91.91 18.29 93.69 14.03 92.43 9.74 Z" />
</g>
<g id="#d1b271f3">
<path fill="#d1b271" opacity="0.95" d=" M 92.43 9.74 C 93.69 14.03 91.91 18.29 90.23 22.15 L 90.15 21.03 C 90.14 20.53 90.12 19.51 90.12 19.01 C 90.80 15.90 91.60 12.81 92.43 9.74 Z" />
</g>
<g id="#9d8152fa">
<path fill="#9d8152" opacity="0.98" d=" M 105.85 17.01 C 104.81 13.83 107.29 9.90 110.93 10.89 C 112.90 11.50 112.01 15.16 113.01 16.98 C 111.22 16.99 107.64 17.00 105.85 17.01 Z" />
</g>
<g id="#f5e194fd">
<path fill="#f5e194" opacity="1.00" d=" M 119.63 17.75 C 120.70 15.56 124.32 10.82 122.20 19.75 C 125.76 22.02 130.84 22.57 133.35 26.19 C 131.92 26.64 129.07 27.54 127.64 27.99 C 126.22 26.77 124.95 25.13 122.97 24.87 C 123.60 25.87 124.31 26.82 125.04 27.77 C 119.35 29.18 115.76 33.51 112.67 38.18 C 110.06 37.18 107.41 36.30 104.79 35.34 C 106.75 31.65 107.49 27.35 106.84 23.23 C 105.12 21.03 102.40 20.14 99.77 19.67 L 100.15 19.06 C 102.74 17.88 108.43 20.56 110.12 18.01 C 107.33 18.02 101.76 18.04 98.97 18.05 C 98.70 17.81 98.15 17.33 97.87 17.09 C 98.63 17.07 100.14 17.02 100.90 17.00 C 102.55 17.01 104.20 17.02 105.85 17.01 C 107.64 17.00 111.22 16.99 113.01 16.98 C 115.27 16.79 117.40 18.62 119.63 17.75 Z" />
</g>
<g id="#a38655ff">
<path fill="#a38655" opacity="1.00" d=" M 96.08 16.11 C 96.53 16.36 97.42 16.85 97.87 17.09 C 98.15 17.33 98.70 17.81 98.97 18.05 C 99.26 18.30 99.85 18.81 100.15 19.06 L 99.77 19.67 C 97.03 21.88 91.70 24.96 92.86 29.09 C 91.44 29.36 90.38 29.04 89.68 28.12 C 91.38 23.92 93.37 19.76 96.08 16.11 Z" />
</g>
<g id="#edca79ff">
<path fill="#edca79" opacity="1.00" d=" M 98.97 18.05 C 101.76 18.04 107.33 18.02 110.12 18.01 C 108.43 20.56 102.74 17.88 100.15 19.06 C 99.85 18.81 99.26 18.30 98.97 18.05 Z" />
</g>
<g id="#f7f0aefb">
<path fill="#f7f0ae" opacity="1.00" d=" M 74.01 29.16 C 78.94 25.34 83.76 20.22 90.12 19.01 C 90.12 19.51 90.14 20.53 90.15 21.03 C 86.24 24.96 81.95 28.50 77.91 32.30 C 76.65 31.54 75.41 30.75 74.18 29.94 L 74.01 29.16 Z" />
</g>
<g id="#91764dff">
<path fill="#91764d" opacity="1.00" d=" M 92.86 29.09 C 91.70 24.96 97.03 21.88 99.77 19.67 C 101.14 21.90 102.63 24.38 101.28 26.99 C 98.69 28.40 95.87 29.44 92.86 29.09 Z" />
</g>
<g id="#eaca82ff">
<path fill="#eaca82" opacity="1.00" d=" M 99.77 19.67 C 102.40 20.14 105.12 21.03 106.84 23.23 C 107.49 27.35 106.75 31.65 104.79 35.34 C 103.17 34.99 101.56 34.62 99.96 34.18 C 100.84 31.90 102.27 29.47 101.28 26.99 C 102.63 24.38 101.14 21.90 99.77 19.67 Z" />
</g>
<g id="#f4d388ff">
<path fill="#f4d388" opacity="1.00" d=" M 77.91 32.30 C 81.95 28.50 86.24 24.96 90.15 21.03 L 90.23 22.15 C 89.73 23.40 89.17 24.63 88.63 25.86 C 86.25 28.14 84.54 31.06 81.84 33.01 C 81.33 33.05 80.31 33.14 79.80 33.19 C 79.32 32.97 78.38 32.52 77.91 32.30 Z" />
</g>
<g id="#c9af66ff">
<path fill="#c9af66" opacity="1.00" d=" M 122.97 24.87 C 124.95 25.13 126.22 26.77 127.64 27.99 L 127.98 28.87 L 127.06 28.99 L 126.26 29.07 C 125.96 28.75 125.34 28.10 125.04 27.77 C 124.31 26.82 123.60 25.87 122.97 24.87 Z" />
</g>
<g id="#d8b674ff">
<path fill="#d8b674" opacity="1.00" d=" M 81.84 33.01 C 84.54 31.06 86.25 28.14 88.63 25.86 C 88.89 26.42 89.42 27.55 89.68 28.12 C 90.38 29.04 91.44 29.36 92.86 29.09 C 95.87 29.44 98.69 28.40 101.28 26.99 C 102.27 29.47 100.84 31.90 99.96 34.18 C 93.94 33.49 87.91 32.77 81.84 33.01 Z" />
</g>
<g id="#cfc68bfa">
<path fill="#cfc68b" opacity="0.98" d=" M 133.35 26.19 C 135.43 27.58 137.01 29.83 138.09 32.93 C 135.07 32.23 132.24 30.81 129.08 30.87 C 128.81 30.37 128.26 29.37 127.98 28.87 L 127.64 27.99 C 129.07 27.54 131.92 26.64 133.35 26.19 Z" />
</g>
<g id="#e7d18fff">
<path fill="#e7d18f" opacity="1.00" d=" M 112.67 38.18 C 115.76 33.51 119.35 29.18 125.04 27.77 C 125.34 28.10 125.96 28.75 126.26 29.07 C 121.46 31.33 118.54 35.73 114.91 39.39 C 114.35 39.09 113.23 38.48 112.67 38.18 Z" />
</g>
<g id="#d9d7bbea">
<path fill="#d9d7bb" opacity="0.92" d=" M 69.71 35.25 C 70.59 33.10 71.79 29.85 74.01 29.16 L 74.18 29.94 C 74.26 30.41 74.43 31.33 74.52 31.80 C 74.07 34.16 71.46 34.26 69.71 35.25 Z" />
</g>
<g id="#d6c489ff">
<path fill="#d6c489" opacity="1.00" d=" M 126.26 29.07 L 127.06 28.99 C 127.17 29.45 127.39 30.38 127.49 30.84 C 124.14 34.11 119.77 36.56 117.82 41.01 C 116.85 40.46 115.88 39.93 114.91 39.39 C 118.54 35.73 121.46 31.33 126.26 29.07 Z" />
</g>
<g id="#919167ff">
<path fill="#919167" opacity="1.00" d=" M 127.06 28.99 L 127.98 28.87 C 128.26 29.37 128.81 30.37 129.08 30.87 C 129.43 31.86 129.76 32.87 130.07 33.88 C 131.02 37.73 128.89 45.82 134.77 44.93 C 135.60 43.60 136.21 42.15 137.00 40.80 C 137.15 43.78 135.08 47.07 137.32 49.68 C 138.06 51.41 140.62 52.60 139.78 54.72 C 138.75 55.91 137.61 57.00 136.37 57.96 C 135.74 55.48 134.60 53.19 133.18 51.08 C 135.51 48.10 130.61 48.67 128.69 48.63 C 129.35 45.11 130.43 41.42 129.56 37.86 C 129.20 36.17 128.95 34.44 128.30 32.83 C 128.10 32.33 127.69 31.34 127.49 30.84 C 127.39 30.38 127.17 29.45 127.06 28.99 Z" />
</g>
<g id="#b99d65ff">
<path fill="#b99d65" opacity="1.00" d=" M 74.18 29.94 C 75.41 30.75 76.65 31.54 77.91 32.30 C 78.38 32.52 79.32 32.97 79.80 33.19 C 82.22 33.84 84.77 34.05 87.22 34.64 C 85.38 34.89 83.55 35.18 81.76 35.62 C 80.27 35.45 78.80 35.16 77.30 35.11 C 76.90 36.77 76.55 38.44 76.08 40.07 L 75.11 39.98 C 75.11 39.24 75.09 37.77 75.08 37.04 C 75.04 35.28 74.88 33.52 74.52 31.80 C 74.43 31.33 74.26 30.41 74.18 29.94 Z" />
</g>
<g id="#c4b682ff">
<path fill="#c4b682" opacity="1.00" d=" M 127.49 30.84 C 127.69 31.34 128.10 32.33 128.30 32.83 C 125.13 36.27 122.53 40.23 118.99 43.31 C 118.69 42.74 118.11 41.59 117.82 41.01 C 119.77 36.56 124.14 34.11 127.49 30.84 Z" />
</g>
<g id="#b9bb85fc">
<path fill="#b9bb85" opacity="1.00" d=" M 129.08 30.87 C 132.24 30.81 135.07 32.23 138.09 32.93 L 138.85 33.15 C 139.51 37.93 141.94 42.52 141.75 47.36 C 137.50 44.29 138.29 38.48 137.78 33.81 C 137.02 35.12 136.36 36.48 135.66 37.82 C 133.49 36.99 131.78 35.38 130.07 33.88 C 129.76 32.87 129.43 31.86 129.08 30.87 Z" />
</g>
<g id="#e3bf70ff">
<path fill="#e3bf70" opacity="1.00" d=" M 74.52 31.80 C 74.88 33.52 75.04 35.28 75.08 37.04 L 74.33 36.77 C 73.98 36.64 73.28 36.39 72.93 36.27 C 71.86 35.93 70.78 35.59 69.71 35.25 C 71.46 34.26 74.07 34.16 74.52 31.80 Z" />
</g>
<g id="#a48235ff">
<path fill="#a48235" opacity="1.00" d=" M 79.80 33.19 C 80.31 33.14 81.33 33.05 81.84 33.01 C 87.91 32.77 93.94 33.49 99.96 34.18 C 101.56 34.62 103.17 34.99 104.79 35.34 C 107.41 36.30 110.06 37.18 112.67 38.18 C 113.23 38.48 114.35 39.09 114.91 39.39 C 115.88 39.93 116.85 40.46 117.82 41.01 C 118.11 41.59 118.69 42.74 118.99 43.31 L 118.02 43.11 L 117.31 42.80 C 116.97 42.61 116.28 42.24 115.94 42.05 C 115.10 41.59 114.26 41.13 113.41 40.68 C 110.08 38.26 105.89 37.49 101.97 36.46 C 100.35 36.04 98.68 35.80 97.02 35.56 C 93.76 35.15 90.48 35.03 87.22 34.64 C 84.77 34.05 82.22 33.84 79.80 33.19 Z" />
</g>
<g id="#afa679ff">
<path fill="#afa679" opacity="1.00" d=" M 128.30 32.83 C 128.95 34.44 129.20 36.17 129.56 37.86 C 127.40 41.14 124.23 43.71 121.23 46.21 C 120.50 45.22 119.75 44.27 118.99 43.31 C 122.53 40.23 125.13 36.27 128.30 32.83 Z" />
</g>
<g id="#a0a678fe">
<path fill="#a0a678" opacity="1.00" d=" M 130.07 33.88 C 131.78 35.38 133.49 36.99 135.66 37.82 C 136.36 36.48 137.02 35.12 137.78 33.81 C 138.29 38.48 137.50 44.29 141.75 47.36 C 142.91 47.88 143.21 48.65 142.64 49.67 C 139.77 54.03 142.36 59.93 142.09 64.94 C 142.56 64.70 143.48 64.22 143.95 63.98 C 143.92 64.42 143.87 65.29 143.85 65.73 C 140.09 69.52 142.65 75.88 141.93 80.82 C 140.00 82.60 138.09 84.40 136.16 86.18 C 135.51 78.19 139.45 69.37 134.85 62.07 C 133.67 58.79 129.36 53.97 132.21 50.73 L 133.18 51.08 C 134.60 53.19 135.74 55.48 136.37 57.96 C 137.61 57.00 138.75 55.91 139.78 54.72 C 140.62 52.60 138.06 51.41 137.32 49.68 C 135.08 47.07 137.15 43.78 137.00 40.80 C 136.21 42.15 135.60 43.60 134.77 44.93 C 128.89 45.82 131.02 37.73 130.07 33.88 Z" />
</g>
<g id="#f5f0a9f9">
<path fill="#f5f0a9" opacity="0.98" d=" M 66.97 38.98 C 67.96 38.38 67.99 34.71 69.71 35.25 C 70.78 35.59 71.86 35.93 72.93 36.27 C 70.72 40.23 68.27 44.06 66.15 48.07 C 64.59 53.04 63.24 58.07 61.92 63.10 C 60.84 63.20 59.76 63.36 58.68 63.28 C 60.61 54.92 63.34 46.76 66.97 38.98 Z" />
</g>
<g id="#a88f5eff">
<path fill="#a88f5e" opacity="1.00" d=" M 77.30 35.11 C 78.80 35.16 80.27 35.45 81.76 35.62 C 82.60 36.29 83.44 36.97 84.28 37.65 C 82.63 37.83 80.96 37.95 79.33 38.27 C 78.53 40.47 77.69 42.65 76.97 44.87 L 76.00 45.10 C 76.02 43.42 76.04 41.75 76.08 40.07 C 76.55 38.44 76.90 36.77 77.30 35.11 Z" />
</g>
<g id="#caa96aff">
<path fill="#caa96a" opacity="1.00" d=" M 81.76 35.62 C 83.55 35.18 85.38 34.89 87.22 34.64 C 90.48 35.03 93.76 35.15 97.02 35.56 C 94.70 39.81 98.04 45.13 95.61 49.63 C 93.02 54.57 90.06 59.47 88.82 64.96 C 86.09 64.91 83.32 65.09 80.76 64.03 C 82.98 61.80 87.17 60.71 87.03 57.01 C 90.28 54.06 94.97 51.03 94.05 45.94 C 94.27 44.49 93.30 43.55 92.19 42.82 C 89.70 40.88 87.02 39.21 84.28 37.65 C 83.44 36.97 82.60 36.29 81.76 35.62 Z" />
</g>
<g id="#feea99ff">
<path fill="#feea99" opacity="1.00" d=" M 72.93 36.27 C 73.28 36.39 73.98 36.64 74.33 36.77 C 74.11 39.05 73.30 41.12 71.90 42.98 C 67.67 48.84 67.08 56.27 65.05 63.00 C 64.27 63.03 62.70 63.08 61.92 63.10 C 63.24 58.07 64.59 53.04 66.15 48.07 C 68.27 44.06 70.72 40.23 72.93 36.27 Z" />
</g>
<g id="#dbbc78ff">
<path fill="#dbbc78" opacity="1.00" d=" M 95.61 49.63 C 98.04 45.13 94.70 39.81 97.02 35.56 C 98.68 35.80 100.35 36.04 101.97 36.46 C 101.39 40.26 101.00 44.08 100.78 47.91 C 99.09 54.06 95.07 59.17 92.74 65.05 C 91.43 65.02 90.12 64.99 88.82 64.96 C 90.06 59.47 93.02 54.57 95.61 49.63 Z" />
</g>
<g id="#f4d489ff">
<path fill="#f4d489" opacity="1.00" d=" M 74.33 36.77 L 75.08 37.04 C 75.09 37.77 75.11 39.24 75.11 39.98 C 75.05 40.43 74.93 41.32 74.87 41.76 C 70.33 47.94 69.65 55.63 68.91 62.98 C 67.62 62.99 66.34 63.00 65.05 63.00 C 67.08 56.27 67.67 48.84 71.90 42.98 C 73.30 41.12 74.11 39.05 74.33 36.77 Z" />
</g>
<g id="#eace87ff">
<path fill="#eace87" opacity="1.00" d=" M 100.78 47.91 C 101.00 44.08 101.39 40.26 101.97 36.46 C 105.89 37.49 110.08 38.26 113.41 40.68 C 110.29 48.24 107.40 55.92 106.02 64.02 C 105.70 65.96 103.34 66.07 101.82 66.50 C 101.42 66.47 100.61 66.40 100.21 66.37 C 97.71 65.99 95.22 65.55 92.74 65.05 C 95.07 59.17 99.09 54.06 100.78 47.91 Z" />
</g>
<g id="#9b8155ff">
<path fill="#9b8155" opacity="1.00" d=" M 79.33 38.27 C 80.96 37.95 82.63 37.83 84.28 37.65 C 87.02 39.21 89.70 40.88 92.19 42.82 C 88.56 42.65 84.93 41.68 81.29 42.17 C 79.60 46.60 77.24 50.94 77.99 55.89 C 77.27 55.35 76.57 54.80 75.89 54.23 C 76.85 51.22 76.84 48.00 76.97 44.87 C 77.69 42.65 78.53 40.47 79.33 38.27 Z" />
</g>
<g id="#9b9a71ff">
<path fill="#9b9a71" opacity="1.00" d=" M 129.56 37.86 C 130.43 41.42 129.35 45.11 128.69 48.63 L 127.98 49.22 C 126.48 50.55 125.51 52.36 124.05 53.74 C 123.78 51.02 122.33 48.65 121.23 46.21 C 124.23 43.71 127.40 41.14 129.56 37.86 Z" />
</g>
<g id="#d4b16fff">
<path fill="#d4b16f" opacity="1.00" d=" M 75.11 39.98 L 76.08 40.07 C 76.04 41.75 76.02 43.42 76.00 45.10 C 75.99 48.10 74.48 51.36 75.89 54.23 C 75.96 57.12 76.12 60.02 75.94 62.91 C 74.61 62.99 73.28 63.02 71.94 63.00 C 72.47 57.52 72.21 51.77 74.53 46.66 C 75.13 45.11 74.79 43.39 74.87 41.76 C 74.93 41.32 75.05 40.43 75.11 39.98 Z" />
</g>
<g id="#dbc586ff">
<path fill="#dbc586" opacity="1.00" d=" M 113.41 40.68 C 114.26 41.13 115.10 41.59 115.94 42.05 C 112.40 50.07 109.73 58.45 107.87 67.01 L 106.97 67.13 C 105.24 66.98 103.52 66.79 101.82 66.50 C 103.34 66.07 105.70 65.96 106.02 64.02 C 107.40 55.92 110.29 48.24 113.41 40.68 Z" />
</g>
<g id="#e5c47dff">
<path fill="#e5c47d" opacity="1.00" d=" M 68.91 62.98 C 69.65 55.63 70.33 47.94 74.87 41.76 C 74.79 43.39 75.13 45.11 74.53 46.66 C 72.21 51.77 72.47 57.52 71.94 63.00 L 70.98 63.02 C 70.47 63.01 69.43 62.99 68.91 62.98 Z" />
</g>
<g id="#88714bff">
<path fill="#88714b" opacity="1.00" d=" M 81.29 42.17 C 84.93 41.68 88.56 42.65 92.19 42.82 C 93.30 43.55 94.27 44.49 94.05 45.94 C 86.60 43.65 80.75 50.33 79.85 56.97 C 79.39 56.70 78.46 56.16 77.99 55.89 C 77.24 50.94 79.60 46.60 81.29 42.17 Z" />
</g>
<g id="#cdbb82ff">
<path fill="#cdbb82" opacity="1.00" d=" M 115.94 42.05 C 116.28 42.24 116.97 42.61 117.31 42.80 C 114.81 50.77 112.28 58.76 109.76 66.73 C 109.29 66.80 108.34 66.94 107.87 67.01 C 109.73 58.45 112.40 50.07 115.94 42.05 Z" />
</g>
<g id="#bdae7bff">
<path fill="#bdae7b" opacity="1.00" d=" M 117.31 42.80 L 118.02 43.11 C 118.41 44.05 118.83 44.97 119.28 45.88 C 115.26 52.64 113.98 60.35 111.65 67.72 C 111.19 67.89 110.27 68.21 109.81 68.38 C 109.10 68.27 107.67 68.05 106.96 67.95 L 106.97 67.13 L 107.87 67.01 C 108.34 66.94 109.29 66.80 109.76 66.73 C 112.28 58.76 114.81 50.77 117.31 42.80 Z" />
</g>
<g id="#837541ff">
<path fill="#837541" opacity="1.00" d=" M 118.02 43.11 L 118.99 43.31 C 119.75 44.27 120.50 45.22 121.23 46.21 C 122.33 48.65 123.78 51.02 124.05 53.74 L 123.44 54.33 C 123.12 53.89 122.46 53.00 122.14 52.56 C 121.87 51.53 121.53 50.52 121.12 49.54 C 120.62 48.27 119.94 47.08 119.28 45.88 C 118.83 44.97 118.41 44.05 118.02 43.11 Z" />
</g>
<g id="#c29d61ff">
<path fill="#c29d61" opacity="1.00" d=" M 76.00 45.10 L 76.97 44.87 C 76.84 48.00 76.85 51.22 75.89 54.23 C 74.48 51.36 75.99 48.10 76.00 45.10 Z" />
</g>
<g id="#746041ff">
<path fill="#746041" opacity="1.00" d=" M 79.85 56.97 C 80.75 50.33 86.60 43.65 94.05 45.94 C 94.97 51.03 90.28 54.06 87.03 57.01 C 85.24 57.00 81.65 56.98 79.85 56.97 Z" />
</g>
<g id="#aea375ff">
<path fill="#aea375" opacity="1.00" d=" M 119.28 45.88 C 119.94 47.08 120.62 48.27 121.12 49.54 C 116.00 54.84 116.04 62.98 112.98 69.47 C 111.92 69.10 110.87 68.74 109.81 68.38 C 110.27 68.21 111.19 67.89 111.65 67.72 C 113.98 60.35 115.26 52.64 119.28 45.88 Z" />
</g>
<g id="#736b36ff">
<path fill="#736b36" opacity="1.00" d=" M 128.69 48.63 C 130.61 48.67 135.51 48.10 133.18 51.08 L 132.21 50.73 C 131.20 50.37 130.18 50.07 129.14 49.82 C 128.85 49.67 128.27 49.37 127.98 49.22 L 128.69 48.63 Z" />
</g>
<g id="#8d8862ff">
<path fill="#8d8862" opacity="1.00" d=" M 124.05 53.74 C 125.51 52.36 126.48 50.55 127.98 49.22 C 128.27 49.37 128.85 49.67 129.14 49.82 C 127.79 51.97 125.88 53.99 126.95 57.00 C 126.96 61.49 125.10 65.71 125.01 70.18 C 126.67 68.08 127.53 65.15 130.00 63.83 C 131.93 64.82 133.35 66.63 133.16 68.89 C 131.81 68.22 130.56 67.33 129.09 66.93 C 128.11 70.06 126.99 74.11 128.90 77.03 C 128.64 79.65 128.54 82.27 128.44 84.90 C 126.27 86.87 128.21 89.78 128.27 92.18 C 127.97 92.45 127.38 92.98 127.09 93.25 C 123.86 86.49 125.87 78.97 126.04 71.87 C 122.47 78.25 124.16 87.79 124.32 95.37 C 124.03 95.57 123.47 95.96 123.18 96.16 C 121.59 88.53 123.57 80.75 121.78 73.21 C 121.12 73.16 119.81 73.07 119.15 73.02 C 118.83 72.81 118.19 72.39 117.88 72.18 C 120.85 66.64 120.81 60.05 123.44 54.33 L 124.05 53.74 Z" />
</g>
<g id="#a19971ff">
<path fill="#a19971" opacity="1.00" d=" M 112.98 69.47 C 116.04 62.98 116.00 54.84 121.12 49.54 C 121.53 50.52 121.87 51.53 122.14 52.56 C 118.55 57.90 117.41 64.43 114.84 70.25 C 114.38 70.06 113.45 69.66 112.98 69.47 Z" />
</g>
<g id="#979871ff">
<path fill="#979871" opacity="1.00" d=" M 129.14 49.82 C 130.18 50.07 131.20 50.37 132.21 50.73 C 129.36 53.97 133.67 58.79 134.85 62.07 C 139.45 69.37 135.51 78.19 136.16 86.18 C 133.73 88.42 130.96 90.27 128.27 92.18 C 128.21 89.78 126.27 86.87 128.44 84.90 C 129.25 86.38 129.91 88.55 132.05 88.06 C 129.84 84.73 131.05 80.30 128.90 77.03 C 126.99 74.11 128.11 70.06 129.09 66.93 C 130.56 67.33 131.81 68.22 133.16 68.89 C 133.35 66.63 131.93 64.82 130.00 63.83 C 127.53 65.15 126.67 68.08 125.01 70.18 C 125.10 65.71 126.96 61.49 126.95 57.00 C 125.88 53.99 127.79 51.97 129.14 49.82 Z" />
</g>
<g id="#aab47df2">
<path fill="#aab47d" opacity="0.95" d=" M 142.09 64.94 C 142.36 59.93 139.77 54.03 142.64 49.67 C 143.18 53.78 144.00 57.88 144.06 62.04 C 144.03 62.52 143.98 63.49 143.95 63.98 C 143.48 64.22 142.56 64.70 142.09 64.94 Z" />
</g>
<g id="#95906bff">
<path fill="#95906b" opacity="1.00" d=" M 114.84 70.25 C 117.41 64.43 118.55 57.90 122.14 52.56 C 122.46 53.00 123.12 53.89 123.44 54.33 C 120.81 60.05 120.85 66.64 117.88 72.18 C 116.87 71.53 115.85 70.90 114.84 70.25 Z" />
</g>
<g id="#c4a264ff">
<path fill="#c4a264" opacity="1.00" d=" M 75.89 54.23 C 76.57 54.80 77.27 55.35 77.99 55.89 C 78.46 56.16 79.39 56.70 79.85 56.97 C 81.65 56.98 85.24 57.00 87.03 57.01 C 87.17 60.71 82.98 61.80 80.76 64.03 C 77.47 64.00 74.19 63.97 70.91 63.94 L 70.98 63.02 L 71.94 63.00 C 73.28 63.02 74.61 62.99 75.94 62.91 C 76.12 60.02 75.96 57.12 75.89 54.23 Z" />
</g>
<g id="#0404032a">
<path fill="#040403" opacity="0.16" d=" M 144.06 62.04 L 145.01 61.99 C 145.01 64.74 144.99 70.24 144.99 72.99 L 144.02 73.01 C 143.98 71.19 143.89 67.55 143.85 65.73 C 143.87 65.29 143.92 64.42 143.95 63.98 C 143.98 63.49 144.03 62.52 144.06 62.04 Z" />
</g>
<g id="#b79035f8">
<path fill="#b79035" opacity="0.97" d=" M 58.15 65.03 C 58.29 64.59 58.55 63.71 58.68 63.28 C 59.76 63.36 60.84 63.20 61.92 63.10 C 62.70 63.08 64.27 63.03 65.05 63.00 C 66.34 63.00 67.62 62.99 68.91 62.98 C 69.43 62.99 70.47 63.01 70.98 63.02 L 70.91 63.94 C 69.91 64.17 68.91 64.43 67.93 64.71 C 67.21 64.79 65.76 64.95 65.04 65.03 C 63.32 65.03 59.88 65.03 58.15 65.03 Z" />
</g>
<g id="#956e1cff">
<path fill="#956e1c" opacity="1.00" d=" M 67.93 64.71 C 68.91 64.43 69.91 64.17 70.91 63.94 C 74.19 63.97 77.47 64.00 80.76 64.03 C 83.32 65.09 86.09 64.91 88.82 64.96 C 90.12 64.99 91.43 65.02 92.74 65.05 C 95.22 65.55 97.71 65.99 100.21 66.37 C 99.17 66.62 98.13 66.85 97.09 67.06 C 94.39 67.05 91.71 67.01 89.02 66.95 C 88.28 66.87 86.80 66.70 86.06 66.61 C 80.99 66.09 75.90 65.93 70.87 65.08 C 70.13 64.99 68.66 64.80 67.93 64.71 Z" />
</g>
<g id="#f9eb9ffc">
<path fill="#f9eb9f" opacity="1.00" d=" M 58.15 65.03 C 59.88 65.03 63.32 65.03 65.04 65.03 C 62.39 68.73 61.25 73.24 59.40 77.35 C 58.71 78.55 59.52 79.82 59.88 80.97 C 58.55 81.36 57.23 81.81 55.90 82.21 C 55.60 81.99 55.00 81.55 54.71 81.33 C 55.43 75.83 56.37 70.29 58.15 65.03 Z" />
</g>
<g id="#f4d68bff">
<path fill="#f4d68b" opacity="1.00" d=" M 65.04 65.03 C 65.76 64.95 67.21 64.79 67.93 64.71 C 67.51 70.73 62.23 74.96 61.76 80.92 C 61.29 80.93 60.35 80.96 59.88 80.97 C 59.52 79.82 58.71 78.55 59.40 77.35 C 61.25 73.24 62.39 68.73 65.04 65.03 Z" />
</g>
<g id="#debe79ff">
<path fill="#debe79" opacity="1.00" d=" M 67.93 64.71 C 68.66 64.80 70.13 64.99 70.87 65.08 C 71.35 65.38 72.30 65.97 72.78 66.26 C 69.73 71.38 65.31 75.85 64.11 81.85 L 63.26 81.65 C 62.89 81.46 62.14 81.10 61.76 80.92 C 62.23 74.96 67.51 70.73 67.93 64.71 Z" />
</g>
<g id="#c8a769ff">
<path fill="#c8a769" opacity="1.00" d=" M 70.87 65.08 C 75.90 65.93 80.99 66.09 86.06 66.61 C 84.47 72.29 93.66 77.57 90.14 84.01 C 89.66 84.05 88.69 84.13 88.21 84.17 C 91.10 77.52 84.85 73.24 80.69 69.27 C 76.04 68.30 71.19 72.45 69.13 76.21 L 68.91 77.12 C 72.44 76.70 75.68 74.74 79.33 75.16 C 76.47 77.04 73.10 77.93 69.73 78.35 C 68.00 79.38 70.44 83.16 70.56 85.22 C 70.90 86.70 71.43 88.15 72.59 89.18 C 76.82 91.84 81.62 87.70 85.94 86.85 C 85.62 89.48 82.58 94.59 89.99 90.83 C 94.77 90.06 100.05 91.09 104.49 88.99 C 105.09 89.62 105.68 90.25 106.28 90.89 C 98.06 92.21 89.01 91.55 81.97 96.93 C 77.00 100.68 70.35 99.44 66.22 95.27 L 65.75 96.06 C 63.92 94.45 62.19 92.72 60.65 90.83 L 61.04 89.97 C 64.57 90.76 67.29 93.68 70.92 94.23 C 68.72 91.67 66.65 88.70 66.96 85.15 C 71.58 85.12 65.94 82.11 64.11 81.85 C 65.31 75.85 69.73 71.38 72.78 66.26 C 72.30 65.97 71.35 65.38 70.87 65.08 Z" />
</g>
<g id="#ad8a36ff">
<path fill="#ad8a36" opacity="1.00" d=" M 100.21 66.37 C 100.61 66.40 101.42 66.47 101.82 66.50 C 103.52 66.79 105.24 66.98 106.97 67.13 L 106.96 67.95 C 106.45 68.13 105.42 68.51 104.91 68.70 C 102.26 68.51 99.61 68.18 96.97 67.96 L 97.09 67.06 C 98.13 66.85 99.17 66.62 100.21 66.37 Z" />
</g>
<g id="#a6b47ef3">
<path fill="#a6b47e" opacity="0.95" d=" M 141.93 80.82 C 142.65 75.88 140.09 69.52 143.85 65.73 C 143.89 67.55 143.98 71.19 144.02 73.01 C 144.62 75.79 142.37 78.57 144.03 81.13 C 143.50 81.05 142.46 80.90 141.93 80.82 Z" />
</g>
<g id="#d5b573ff">
<path fill="#d5b573" opacity="1.00" d=" M 90.14 84.01 C 93.66 77.57 84.47 72.29 86.06 66.61 C 86.80 66.70 88.28 66.87 89.02 66.95 C 89.76 71.36 91.46 75.40 93.76 79.22 C 94.75 81.09 92.90 82.54 91.94 83.91 C 91.49 83.93 90.59 83.98 90.14 84.01 Z" />
</g>
<g id="#ddc27fff">
<path fill="#ddc27f" opacity="1.00" d=" M 89.02 66.95 C 91.71 67.01 94.39 67.05 97.09 67.06 L 96.97 67.96 C 95.64 67.97 94.31 68.03 92.99 68.13 C 91.29 72.21 94.66 76.56 98.05 77.98 C 103.14 78.91 102.90 71.85 104.91 68.70 L 105.91 68.94 C 108.15 71.71 105.62 74.91 104.76 77.72 C 103.29 80.29 103.17 84.56 99.85 85.35 C 97.29 84.51 94.65 83.86 91.94 83.91 C 92.90 82.54 94.75 81.09 93.76 79.22 C 91.46 75.40 89.76 71.36 89.02 66.95 Z" />
</g>
<g id="#e9ce88ff">
<path fill="#e9ce88" opacity="1.00" d=" M 92.99 68.13 C 94.31 68.03 95.64 67.97 96.97 67.96 C 99.61 68.18 102.26 68.51 104.91 68.70 C 102.90 71.85 103.14 78.91 98.05 77.98 C 94.66 76.56 91.29 72.21 92.99 68.13 Z" />
</g>
<g id="#80692aff">
<path fill="#80692a" opacity="1.00" d=" M 104.91 68.70 C 105.42 68.51 106.45 68.13 106.96 67.95 C 107.67 68.05 109.10 68.27 109.81 68.38 C 110.87 68.74 111.92 69.10 112.98 69.47 C 113.45 69.66 114.38 70.06 114.84 70.25 C 115.85 70.90 116.87 71.53 117.88 72.18 C 118.19 72.39 118.83 72.81 119.15 73.02 C 118.90 73.30 118.39 73.85 118.14 74.13 C 117.63 73.85 116.62 73.29 116.12 73.01 C 115.64 72.73 114.68 72.17 114.20 71.89 C 113.65 71.63 112.55 71.11 112.00 70.85 C 111.47 70.66 110.43 70.28 109.91 70.08 C 108.59 69.65 107.26 69.25 105.91 68.94 L 104.91 68.70 Z" />
</g>
<g id="#be9c61ff">
<path fill="#be9c61" opacity="1.00" d=" M 69.13 76.21 C 71.19 72.45 76.04 68.30 80.69 69.27 C 84.85 73.24 91.10 77.52 88.21 84.17 L 87.90 85.06 C 84.37 85.96 85.74 83.06 85.99 80.84 C 85.91 79.77 85.58 78.79 84.99 77.89 C 84.70 77.44 84.12 76.54 83.83 76.09 C 79.13 76.79 74.48 80.12 69.73 78.35 C 73.10 77.93 76.47 77.04 79.33 75.16 C 80.99 74.91 78.79 72.74 77.94 73.01 C 74.71 72.87 72.09 75.22 69.13 76.21 Z" />
</g>
<g id="#ccb77cff">
<path fill="#ccb77c" opacity="1.00" d=" M 105.91 68.94 C 107.26 69.25 108.59 69.65 109.91 70.08 C 107.79 75.57 106.06 81.23 104.92 86.99 C 103.26 86.34 101.54 85.88 99.85 85.35 C 103.17 84.56 103.29 80.29 104.76 77.72 C 105.62 74.91 108.15 71.71 105.91 68.94 Z" />
</g>
<g id="#b9a876ff">
<path fill="#b9a876" opacity="1.00" d=" M 109.91 70.08 C 110.43 70.28 111.47 70.66 112.00 70.85 C 109.78 76.61 108.84 82.84 106.02 88.37 L 105.04 88.10 L 104.92 86.99 C 106.06 81.23 107.79 75.57 109.91 70.08 Z" />
</g>
<g id="#a89b6fff">
<path fill="#a89b6f" opacity="1.00" d=" M 112.00 70.85 C 112.55 71.11 113.65 71.63 114.20 71.89 C 112.05 77.98 111.09 84.54 107.83 90.20 C 107.22 89.59 106.62 88.98 106.02 88.37 C 108.84 82.84 109.78 76.61 112.00 70.85 Z" />
</g>
<g id="#9b916aff">
<path fill="#9b916a" opacity="1.00" d=" M 114.20 71.89 C 114.68 72.17 115.64 72.73 116.12 73.01 C 115.79 79.85 112.10 85.92 109.64 92.18 C 109.04 91.52 108.43 90.86 107.83 90.20 C 111.09 84.54 112.05 77.98 114.20 71.89 Z" />
</g>
<g id="#7f7b52ff">
<path fill="#7f7b52" opacity="1.00" d=" M 124.32 95.37 C 124.16 87.79 122.47 78.25 126.04 71.87 C 125.87 78.97 123.86 86.49 127.09 93.25 C 126.24 94.05 125.29 94.73 124.32 95.37 Z" />
</g>
<g id="#e1be79ff">
<path fill="#e1be79" opacity="1.00" d=" M 69.13 76.21 C 72.09 75.22 74.71 72.87 77.94 73.01 C 78.79 72.74 80.99 74.91 79.33 75.16 C 75.68 74.74 72.44 76.70 68.91 77.12 L 69.13 76.21 Z" />
</g>
<g id="#8e8764ff">
<path fill="#8e8764" opacity="1.00" d=" M 116.12 73.01 C 116.62 73.29 117.63 73.85 118.14 74.13 C 119.84 80.27 117.54 86.84 117.86 93.19 C 116.74 91.75 116.73 88.27 114.22 89.13 C 113.02 90.76 112.11 92.58 111.05 94.30 C 110.70 93.77 109.99 92.71 109.64 92.18 C 112.10 85.92 115.79 79.85 116.12 73.01 Z" />
</g>
<g id="#86805fff">
<path fill="#86805f" opacity="1.00" d=" M 119.15 73.02 C 119.81 73.07 121.12 73.16 121.78 73.21 C 123.57 80.75 121.59 88.53 123.18 96.16 C 120.15 98.05 116.71 99.40 113.19 100.06 C 112.94 97.99 112.11 96.08 111.05 94.30 C 112.11 92.58 113.02 90.76 114.22 89.13 C 116.73 88.27 116.74 91.75 117.86 93.19 C 117.54 86.84 119.84 80.27 118.14 74.13 C 118.39 73.85 118.90 73.30 119.15 73.02 Z" />
</g>
<g id="#a28b5cff">
<path fill="#a28b5c" opacity="1.00" d=" M 69.73 78.35 C 74.48 80.12 79.13 76.79 83.83 76.09 C 84.12 76.54 84.70 77.44 84.99 77.89 C 80.99 78.89 77.20 80.66 73.05 81.09 C 70.99 81.26 70.90 83.66 70.56 85.22 C 70.44 83.16 68.00 79.38 69.73 78.35 Z" />
</g>
<g id="#7e794bff">
<path fill="#7e794b" opacity="1.00" d=" M 128.90 77.03 C 131.05 80.30 129.84 84.73 132.05 88.06 C 129.91 88.55 129.25 86.38 128.44 84.90 C 128.54 82.27 128.64 79.65 128.90 77.03 Z" />
</g>
<g id="#8d7852ff">
<path fill="#8d7852" opacity="1.00" d=" M 73.05 81.09 C 77.20 80.66 80.99 78.89 84.99 77.89 C 85.58 78.79 85.91 79.77 85.99 80.84 C 80.74 82.21 73.65 82.76 72.59 89.18 C 71.43 88.15 70.90 86.70 70.56 85.22 C 70.90 83.66 70.99 81.26 73.05 81.09 Z" />
</g>
<g id="#e6ca83fb">
<path fill="#e6ca83" opacity="1.00" d=" M 54.14 80.93 L 54.71 81.33 C 55.00 81.55 55.60 81.99 55.90 82.21 C 57.24 83.50 59.18 82.76 60.81 82.78 C 61.37 82.82 62.51 82.91 63.08 82.95 C 65.93 90.32 51.61 84.82 52.07 92.01 C 52.38 92.98 51.34 96.77 50.98 94.04 C 50.97 93.53 50.93 92.52 50.92 92.01 C 49.92 87.66 54.83 85.23 54.14 80.93 Z" />
</g>
<g id="#c6a24aff">
<path fill="#c6a24a" opacity="1.00" d=" M 55.90 82.21 C 57.23 81.81 58.55 81.36 59.88 80.97 C 60.35 80.96 61.29 80.93 61.76 80.92 C 62.14 81.10 62.89 81.46 63.26 81.65 C 62.65 81.93 61.42 82.50 60.81 82.78 C 59.18 82.76 57.24 83.50 55.90 82.21 Z" />
</g>
<g id="#7b6844ff">
<path fill="#7b6844" opacity="1.00" d=" M 72.59 89.18 C 73.65 82.76 80.74 82.21 85.99 80.84 C 85.74 83.06 84.37 85.96 87.90 85.06 C 88.22 85.23 88.86 85.59 89.18 85.77 C 88.09 86.11 87.01 86.47 85.94 86.85 C 81.62 87.70 76.82 91.84 72.59 89.18 Z" />
</g>
<g id="#6fe8f9ff">
<path fill="#6fe8f9" opacity="1.00" d=" M 136.16 86.18 C 138.09 84.40 140.00 82.60 141.93 80.82 C 142.46 80.90 143.50 81.05 144.03 81.13 L 145.31 81.35 C 143.78 83.74 142.11 86.09 140.08 88.09 C 132.61 93.63 127.55 102.06 118.85 105.95 C 115.55 106.70 113.80 102.85 111.73 101.05 L 112.16 100.25 L 113.19 100.06 C 116.71 99.40 120.15 98.05 123.18 96.16 C 123.47 95.96 124.03 95.57 124.32 95.37 C 125.29 94.73 126.24 94.05 127.09 93.25 C 127.38 92.98 127.97 92.45 128.27 92.18 C 130.96 90.27 133.73 88.42 136.16 86.18 Z" />
</g>
<g id="#4eb6d8fb">
<path fill="#4eb6d8" opacity="1.00" d=" M 145.31 81.35 C 146.95 80.64 145.82 85.48 144.69 86.63 C 143.15 87.73 141.75 89.02 140.22 90.14 C 140.18 89.63 140.11 88.61 140.08 88.09 C 142.11 86.09 143.78 83.74 145.31 81.35 Z" />
</g>
<g id="#936f24ff">
<path fill="#936f24" opacity="1.00" d=" M 60.81 82.78 C 61.42 82.50 62.65 81.93 63.26 81.65 L 64.11 81.85 C 65.94 82.11 71.58 85.12 66.96 85.15 C 65.76 84.26 64.67 83.06 63.08 82.95 C 62.51 82.91 61.37 82.82 60.81 82.78 Z" />
</g>
<g id="#d2b170ff">
<path fill="#d2b170" opacity="1.00" d=" M 63.08 82.95 C 64.67 83.06 65.76 84.26 66.96 85.15 C 66.65 88.70 68.72 91.67 70.92 94.23 C 67.29 93.68 64.57 90.76 61.04 89.97 C 57.84 89.73 54.72 90.20 52.07 92.01 C 51.61 84.82 65.93 90.32 63.08 82.95 Z" />
</g>
<g id="#a58537ff">
<path fill="#a58537" opacity="1.00" d=" M 88.21 84.17 C 88.69 84.13 89.66 84.05 90.14 84.01 C 90.59 83.98 91.49 83.93 91.94 83.91 C 94.65 83.86 97.29 84.51 99.85 85.35 C 101.54 85.88 103.26 86.34 104.92 86.99 L 105.04 88.10 L 103.95 88.13 C 99.28 86.13 94.17 86.09 89.18 85.77 C 88.86 85.59 88.22 85.23 87.90 85.06 L 88.21 84.17 Z" />
</g>
<g id="#63d6f0fc">
<path fill="#63d6f0" opacity="1.00" d=" M 9.97 88.88 C 10.07 84.46 15.36 84.45 18.72 85.27 C 27.68 85.53 35.48 90.28 43.71 93.25 L 43.98 94.00 C 44.46 95.48 45.03 96.93 45.48 98.41 C 48.34 102.77 42.44 105.32 44.43 109.64 C 44.76 112.47 45.24 115.31 45.88 118.10 C 44.97 117.35 44.05 116.63 43.12 115.91 C 41.69 114.82 40.43 113.54 39.29 112.15 C 31.09 102.64 21.56 94.03 9.97 88.88 Z" />
</g>
<g id="#d7b979ff">
<path fill="#d7b979" opacity="1.00" d=" M 85.94 86.85 C 87.01 86.47 88.09 86.11 89.18 85.77 C 94.17 86.09 99.28 86.13 103.95 88.13 L 104.49 88.99 C 100.05 91.09 94.77 90.06 89.99 90.83 C 82.58 94.59 85.62 89.48 85.94 86.85 Z" />
</g>
<g id="#449bbffd">
<path fill="#449bbf" opacity="1.00" d=" M 140.22 90.14 C 141.75 89.02 143.15 87.73 144.69 86.63 C 144.16 89.91 142.82 93.02 140.94 95.75 C 138.08 94.38 136.72 98.42 134.74 99.73 C 128.88 107.33 120.93 112.98 112.65 117.70 C 109.14 120.55 107.27 117.47 106.90 115.02 C 106.04 112.01 106.15 108.82 106.66 105.76 C 107.69 108.77 107.07 112.43 109.19 114.96 C 112.10 116.40 114.08 114.54 115.96 113.04 C 124.73 106.33 134.06 99.41 140.22 90.14 Z" />
</g>
<g id="#867248ff">
<path fill="#867248" opacity="1.00" d=" M 103.95 88.13 L 105.04 88.10 L 106.02 88.37 C 106.62 88.98 107.22 89.59 107.83 90.20 C 108.43 90.86 109.04 91.52 109.64 92.18 C 109.99 92.71 110.70 93.77 111.05 94.30 C 112.11 96.08 112.94 97.99 113.19 100.06 L 112.16 100.25 C 108.36 99.77 104.73 96.60 100.95 97.62 L 100.22 97.89 C 99.15 96.71 98.05 95.55 96.92 94.44 C 97.38 94.41 98.31 94.36 98.77 94.33 C 102.31 95.93 106.24 96.05 110.07 96.01 C 109.52 94.96 109.01 93.86 108.22 92.97 C 107.60 92.25 106.96 91.55 106.28 90.89 C 105.68 90.25 105.09 89.62 104.49 88.99 L 103.95 88.13 Z" />
</g>
<g id="#61d2edff">
<path fill="#61d2ed" opacity="1.00" d=" M 118.85 105.95 C 127.55 102.06 132.61 93.63 140.08 88.09 C 140.11 88.61 140.18 89.63 140.22 90.14 C 131.89 96.08 126.33 105.43 116.88 109.85 C 115.03 110.31 113.01 111.10 111.32 109.77 C 111.07 107.13 111.05 104.45 110.08 101.96 C 110.49 101.73 111.32 101.28 111.73 101.05 C 113.80 102.85 115.55 106.70 118.85 105.95 Z" />
</g>
<g id="#af8d57f3">
<path fill="#af8d57" opacity="0.95" d=" M 52.07 92.01 C 54.72 90.20 57.84 89.73 61.04 89.97 L 60.65 90.83 C 56.84 91.36 53.54 93.57 51.89 97.07 C 51.42 96.79 50.49 96.24 50.02 95.96 C 50.37 94.82 48.93 91.65 50.92 92.01 C 50.93 92.52 50.97 93.53 50.98 94.04 C 51.34 96.77 52.38 92.98 52.07 92.01 Z" />
</g>
<g id="#55bad9ff">
<path fill="#55bad9" opacity="1.00" d=" M 116.88 109.85 C 126.33 105.43 131.89 96.08 140.22 90.14 C 134.06 99.41 124.73 106.33 115.96 113.04 C 106.91 116.28 109.08 107.17 109.12 102.09 L 110.08 101.96 C 111.05 104.45 111.07 107.13 111.32 109.77 C 113.01 111.10 115.03 110.31 116.88 109.85 Z" />
</g>
<g id="#efe8b3ff">
<path fill="#efe8b3" opacity="1.00" d=" M 51.89 97.07 C 53.54 93.57 56.84 91.36 60.65 90.83 C 62.19 92.72 63.92 94.45 65.75 96.06 L 66.23 96.88 C 64.30 99.08 62.26 101.18 60.14 103.21 C 60.06 100.12 60.13 97.04 59.90 93.97 C 56.87 93.31 57.77 97.17 56.99 98.96 C 55.12 100.74 54.55 104.64 56.96 106.09 C 56.94 106.60 56.89 107.62 56.87 108.12 C 56.36 108.13 55.34 108.14 54.83 108.15 C 51.49 105.62 51.32 100.88 51.89 97.07 Z" />
</g>
<g id="#b3945eff">
<path fill="#b3945e" opacity="1.00" d=" M 81.97 96.93 C 89.01 91.55 98.06 92.21 106.28 90.89 C 106.96 91.55 107.60 92.25 108.22 92.97 C 105.10 93.63 101.93 93.96 98.77 94.33 C 98.31 94.36 97.38 94.41 96.92 94.44 C 92.68 93.73 88.35 94.60 85.35 97.74 C 81.82 98.26 79.05 102.16 75.01 101.98 C 72.65 101.53 70.52 100.32 68.16 99.85 C 67.96 99.57 67.55 99.02 67.34 98.75 C 67.06 98.28 66.51 97.35 66.23 96.88 L 65.75 96.06 L 66.22 95.27 C 70.35 99.44 77.00 100.68 81.97 96.93 Z" />
</g>
<g id="#9b8559ff">
<path fill="#9b8559" opacity="1.00" d=" M 98.77 94.33 C 101.93 93.96 105.10 93.63 108.22 92.97 C 109.01 93.86 109.52 94.96 110.07 96.01 C 106.24 96.05 102.31 95.93 98.77 94.33 Z" />
</g>
<g id="#68e3f9fd">
<path fill="#68e3f9" opacity="1.00" d=" M 43.98 94.00 C 46.05 94.42 48.13 94.99 50.02 95.96 C 50.49 96.24 51.42 96.79 51.89 97.07 C 51.32 100.88 51.49 105.62 54.83 108.15 C 55.11 108.39 55.67 108.87 55.95 109.11 C 55.95 116.18 54.88 123.75 58.98 130.02 C 60.51 135.50 66.77 136.97 69.24 141.65 C 61.94 143.86 55.32 147.78 47.98 149.86 C 46.32 149.63 44.79 147.72 44.86 145.98 C 45.49 143.96 46.20 141.97 46.86 139.96 C 48.73 133.54 52.56 125.43 47.27 119.75 C 46.92 119.34 46.23 118.51 45.88 118.10 C 45.24 115.31 44.76 112.47 44.43 109.64 C 42.44 105.32 48.34 102.77 45.48 98.41 C 45.03 96.93 44.46 95.48 43.98 94.00 Z" />
</g>
<g id="#1b1b18ff">
<path fill="#1b1b18" opacity="1.00" d=" M 56.99 98.96 C 57.77 97.17 56.87 93.31 59.90 93.97 C 60.13 97.04 60.06 100.12 60.14 103.21 C 60.15 103.72 60.16 104.73 60.16 105.23 C 60.17 105.74 60.18 106.76 60.19 107.28 C 60.37 109.79 58.29 108.52 56.87 108.12 C 56.89 107.62 56.94 106.60 56.96 106.09 C 56.97 104.31 56.98 100.74 56.99 98.96 Z" />
</g>
<g id="#eae4afff">
<path fill="#eae4af" opacity="1.00" d=" M 85.35 97.74 C 88.35 94.60 92.68 93.73 96.92 94.44 C 98.05 95.55 99.15 96.71 100.22 97.89 C 97.87 100.96 95.84 104.65 92.15 106.26 C 90.90 103.66 94.41 95.99 89.36 96.93 C 89.51 98.33 90.07 99.84 89.10 101.07 C 87.69 103.58 87.78 106.60 88.60 109.25 C 88.70 109.69 88.90 110.58 88.99 111.02 C 88.44 111.06 87.35 111.15 86.80 111.19 C 84.19 109.05 83.09 105.27 82.78 101.94 C 83.65 100.55 84.49 99.13 85.35 97.74 Z" />
</g>
<g id="#3c8eb0fe">
<path fill="#3c8eb0" opacity="1.00" d=" M 134.74 99.73 C 136.72 98.42 138.08 94.38 140.94 95.75 C 140.00 97.83 139.44 100.22 138.01 102.01 C 133.28 106.49 130.04 112.40 124.79 116.36 C 122.63 117.99 120.65 119.85 118.80 121.83 C 118.55 122.06 118.05 122.53 117.80 122.76 C 115.02 125.25 111.71 128.37 113.26 132.68 C 114.41 135.03 116.15 137.04 117.98 138.89 C 119.74 141.09 123.14 141.95 124.67 143.83 C 124.69 145.17 124.80 146.50 124.85 147.85 C 124.59 148.17 124.07 148.83 123.81 149.15 C 123.56 148.67 123.06 147.71 122.81 147.23 C 119.79 142.07 115.38 137.53 109.92 135.01 C 103.63 135.30 98.56 140.75 92.00 139.99 C 88.01 139.52 83.52 141.12 79.74 139.30 C 91.79 141.10 104.46 134.98 110.43 124.39 C 113.57 121.79 117.42 120.04 120.18 116.99 C 117.65 116.76 115.81 118.65 113.65 119.60 C 110.09 121.17 106.04 121.29 102.23 120.83 C 98.37 117.70 105.59 114.86 104.09 110.92 C 104.96 108.18 103.29 103.21 106.93 102.84 C 106.86 103.57 106.73 105.03 106.66 105.76 C 106.15 108.82 106.04 112.01 106.90 115.02 C 107.27 117.47 109.14 120.55 112.65 117.70 C 120.93 112.98 128.88 107.33 134.74 99.73 Z" />
</g>
<g id="#d6d09dff">
<path fill="#d6d09d" opacity="1.00" d=" M 66.23 96.88 C 66.51 97.35 67.06 98.28 67.34 98.75 C 65.53 101.53 63.67 104.52 60.16 105.23 C 60.16 104.73 60.15 103.72 60.14 103.21 C 62.26 101.18 64.30 99.08 66.23 96.88 Z" />
</g>
<g id="#a08151ff">
<path fill="#a08151" opacity="1.00" d=" M 75.01 101.98 C 79.05 102.16 81.82 98.26 85.35 97.74 C 84.49 99.13 83.65 100.55 82.78 101.94 C 81.92 102.65 81.05 103.36 80.18 104.06 C 75.75 105.33 71.32 104.21 68.15 100.82 L 68.16 99.85 C 70.52 100.32 72.65 101.53 75.01 101.98 Z" />
</g>
<g id="#181714ff">
<path fill="#181714" opacity="1.00" d=" M 89.36 96.93 C 94.41 95.99 90.90 103.66 92.15 106.26 C 92.14 107.02 92.11 108.54 92.09 109.31 C 91.99 109.81 91.80 110.82 91.71 111.33 C 91.03 111.25 89.67 111.09 88.99 111.02 C 88.90 110.58 88.70 109.69 88.60 109.25 C 88.72 106.52 88.88 103.79 89.10 101.07 C 90.07 99.84 89.51 98.33 89.36 96.93 Z" />
</g>
<g id="#715c3dff">
<path fill="#715c3d" opacity="1.00" d=" M 100.95 97.62 C 104.73 96.60 108.36 99.77 112.16 100.25 L 111.73 101.05 C 111.32 101.28 110.49 101.73 110.08 101.96 L 109.12 102.09 L 108.23 102.18 C 107.43 102.10 105.83 101.95 105.04 101.87 C 103.60 100.53 102.30 99.05 100.95 97.62 Z" />
</g>
<g id="#cec797ff">
<path fill="#cec797" opacity="1.00" d=" M 100.22 97.89 L 100.95 97.62 C 101.07 98.16 101.32 99.24 101.45 99.78 C 99.29 103.67 96.11 107.26 92.09 109.31 C 92.11 108.54 92.14 107.02 92.15 106.26 C 95.84 104.65 97.87 100.96 100.22 97.89 Z" />
</g>
<g id="#496f70ff">
<path fill="#496f70" opacity="1.00" d=" M 100.95 97.62 C 102.30 99.05 103.60 100.53 105.04 101.87 C 104.10 102.94 103.21 104.04 102.27 105.11 L 102.12 103.95 C 101.97 102.54 101.79 101.14 101.45 99.78 C 101.32 99.24 101.07 98.16 100.95 97.62 Z" />
</g>
<g id="#54513eff">
<path fill="#54513e" opacity="1.00" d=" M 56.96 106.09 C 54.55 104.64 55.12 100.74 56.99 98.96 C 56.98 100.74 56.97 104.31 56.96 106.09 Z" />
</g>
<g id="#c0ba8cff">
<path fill="#c0ba8c" opacity="1.00" d=" M 67.34 98.75 C 67.55 99.02 67.96 99.57 68.16 99.85 L 68.15 100.82 L 68.04 101.79 C 65.68 103.98 63.30 106.22 60.19 107.28 C 60.18 106.76 60.17 105.74 60.16 105.23 C 63.67 104.52 65.53 101.53 67.34 98.75 Z" />
</g>
<g id="#b4ad83ff">
<path fill="#b4ad83" opacity="1.00" d=" M 101.45 99.78 C 101.79 101.14 101.97 102.54 102.12 103.95 C 98.62 106.13 96.15 112.46 91.71 111.33 C 91.80 110.82 91.99 109.81 92.09 109.31 C 96.11 107.26 99.29 103.67 101.45 99.78 Z" />
</g>
<g id="#4b8584ff">
<path fill="#4b8584" opacity="1.00" d=" M 68.15 100.82 C 71.32 104.21 75.75 105.33 80.18 104.06 C 80.88 106.73 77.01 108.48 79.00 110.77 C 78.25 110.85 76.75 111.01 75.99 111.09 C 75.04 111.23 74.10 111.40 73.16 111.59 C 70.98 110.94 68.88 110.94 66.86 111.61 C 66.42 111.77 65.55 112.08 65.11 112.24 C 63.85 112.11 63.09 111.43 62.84 110.22 C 65.73 108.34 68.27 105.47 68.04 101.79 L 68.15 100.82 Z" />
</g>
<g id="#4a483aff">
<path fill="#4a483a" opacity="1.00" d=" M 88.60 109.25 C 87.78 106.60 87.69 103.58 89.10 101.07 C 88.88 103.79 88.72 106.52 88.60 109.25 Z" />
</g>
<g id="#a5a57fff">
<path fill="#a5a57f" opacity="1.00" d=" M 60.19 107.28 C 63.30 106.22 65.68 103.98 68.04 101.79 C 68.27 105.47 65.73 108.34 62.84 110.22 C 62.37 110.19 61.44 110.15 60.97 110.12 C 60.22 110.09 58.72 110.03 57.97 110.00 C 57.46 109.78 56.45 109.33 55.95 109.11 C 55.67 108.87 55.11 108.39 54.83 108.15 C 55.34 108.14 56.36 108.13 56.87 108.12 C 58.29 108.52 60.37 109.79 60.19 107.28 Z" />
</g>
<g id="#43787cff">
<path fill="#43787c" opacity="1.00" d=" M 80.18 104.06 C 81.05 103.36 81.92 102.65 82.78 101.94 C 83.09 105.27 84.19 109.05 86.80 111.19 C 88.23 111.92 89.73 112.50 91.21 113.13 C 90.19 114.17 89.15 115.20 88.07 116.18 C 86.99 115.42 85.91 114.65 84.81 113.92 C 83.05 112.57 81.10 111.48 79.00 110.77 C 77.01 108.48 80.88 106.73 80.18 104.06 Z" />
</g>
<g id="#387b97ff">
<path fill="#387b97" opacity="1.00" d=" M 102.27 105.11 C 103.21 104.04 104.10 102.94 105.04 101.87 C 105.83 101.95 107.43 102.10 108.23 102.18 C 107.90 102.35 107.25 102.68 106.93 102.84 C 103.29 103.21 104.96 108.18 104.09 110.92 C 102.18 112.78 99.99 114.34 98.19 116.31 C 97.49 121.19 98.62 126.01 98.95 130.86 C 95.00 134.30 90.47 138.13 84.76 137.20 C 88.92 134.95 93.29 132.87 94.93 127.92 C 95.08 122.98 94.99 118.04 95.02 113.10 C 98.48 111.61 101.26 108.80 102.27 105.11 Z" />
</g>
<g id="#50acc7ff">
<path fill="#50acc7" opacity="1.00" d=" M 108.23 102.18 L 109.12 102.09 C 109.08 107.17 106.91 116.28 115.96 113.04 C 114.08 114.54 112.10 116.40 109.19 114.96 C 107.07 112.43 107.69 108.77 106.66 105.76 C 106.73 105.03 106.86 103.57 106.93 102.84 C 107.25 102.68 107.90 102.35 108.23 102.18 Z" />
</g>
<g id="#96a77af8">
<path fill="#96a77a" opacity="0.97" d=" M 124.79 116.36 C 130.04 112.40 133.28 106.49 138.01 102.01 C 137.74 107.43 133.30 111.31 130.68 115.75 C 129.71 116.07 128.74 116.40 127.78 116.75 C 126.78 116.65 125.78 116.52 124.79 116.36 Z" />
</g>
<g id="#959575ff">
<path fill="#959575" opacity="1.00" d=" M 91.71 111.33 C 96.15 112.46 98.62 106.13 102.12 103.95 L 102.27 105.11 C 101.26 108.80 98.48 111.61 95.02 113.10 C 93.75 113.10 92.48 113.11 91.21 113.13 C 89.73 112.50 88.23 111.92 86.80 111.19 C 87.35 111.15 88.44 111.06 88.99 111.02 C 89.67 111.09 91.03 111.25 91.71 111.33 Z" />
</g>
<g id="#5fc7deff">
<path fill="#5fc7de" opacity="1.00" d=" M 55.95 109.11 C 56.45 109.33 57.46 109.78 57.97 110.00 C 58.03 113.10 57.60 116.36 58.98 119.25 C 59.16 119.75 59.54 120.77 59.72 121.28 C 59.78 121.96 59.88 123.34 59.93 124.03 C 59.31 127.47 62.06 129.55 63.95 131.95 C 64.21 134.56 66.98 135.49 68.70 137.04 C 70.31 138.54 72.23 139.60 74.07 140.78 C 72.65 141.04 71.22 141.28 69.80 141.57 L 69.24 141.65 C 66.77 136.97 60.51 135.50 58.98 130.02 C 54.88 123.75 55.95 116.18 55.95 109.11 Z" />
</g>
<g id="#5cb4c0ff">
<path fill="#5cb4c0" opacity="1.00" d=" M 57.97 110.00 C 58.72 110.03 60.22 110.09 60.97 110.12 C 61.02 112.14 61.09 114.16 61.17 116.18 C 60.44 117.20 59.72 118.23 58.98 119.25 C 57.60 116.36 58.03 113.10 57.97 110.00 Z" />
</g>
<g id="#63a29eff">
<path fill="#63a29e" opacity="1.00" d=" M 60.97 110.12 C 61.44 110.15 62.37 110.19 62.84 110.22 C 63.09 111.43 63.85 112.11 65.11 112.24 C 63.83 113.59 62.51 114.90 61.17 116.18 C 61.09 114.16 61.02 112.14 60.97 110.12 Z" />
</g>
<g id="#d8b354ff">
<path fill="#d8b354" opacity="1.00" d=" M 66.86 111.61 C 68.88 110.94 70.98 110.94 73.16 111.59 C 72.52 113.09 71.94 114.61 71.37 116.14 C 70.87 113.89 69.09 112.14 66.86 111.61 Z" />
</g>
<g id="#2d281fff">
<path fill="#2d281f" opacity="1.00" d=" M 73.16 111.59 C 74.10 111.40 75.04 111.23 75.99 111.09 C 75.58 112.06 75.21 113.03 74.86 114.02 C 73.73 116.88 72.64 119.86 72.97 122.99 L 73.03 123.98 C 77.73 123.79 82.66 124.81 87.24 123.30 L 88.05 123.10 C 88.79 123.06 90.26 122.99 91.00 122.96 C 91.01 123.71 91.04 125.22 91.05 125.97 C 89.43 126.38 87.80 126.80 86.15 127.11 C 84.45 127.05 82.75 126.98 81.05 126.97 C 78.36 126.89 75.68 126.92 73.00 127.06 C 73.22 128.59 73.67 131.64 73.90 133.16 L 74.06 134.05 C 73.73 134.38 73.06 135.05 72.73 135.38 C 71.82 133.60 71.06 131.75 70.40 129.87 C 70.20 128.66 69.97 127.46 69.72 126.27 C 66.32 126.24 63.02 125.38 59.93 124.03 C 59.88 123.34 59.78 121.96 59.72 121.28 C 62.98 122.11 66.28 122.76 69.65 122.90 C 70.17 120.63 70.72 118.37 71.37 116.14 C 71.94 114.61 72.52 113.09 73.16 111.59 Z" />
</g>
<g id="#ccaf56ff">
<path fill="#ccaf56" opacity="1.00" d=" M 75.99 111.09 C 76.75 111.01 78.25 110.85 79.00 110.77 C 81.10 111.48 83.05 112.57 84.81 113.92 C 84.35 117.08 86.48 119.96 86.22 123.19 C 85.44 123.13 83.86 123.03 83.08 122.97 C 84.25 117.74 79.91 113.61 74.86 114.02 C 75.21 113.03 75.58 112.06 75.99 111.09 Z" />
</g>
<g id="#3681a6ff">
<path fill="#3681a6" opacity="1.00" d=" M 98.19 116.31 C 99.99 114.34 102.18 112.78 104.09 110.92 C 105.59 114.86 98.37 117.70 102.23 120.83 C 106.04 121.29 110.09 121.17 113.65 119.60 C 115.81 118.65 117.65 116.76 120.18 116.99 C 117.42 120.04 113.57 121.79 110.43 124.39 C 104.46 134.98 91.79 141.10 79.74 139.30 C 78.36 138.72 77.05 137.98 75.74 137.26 C 77.21 137.15 78.69 137.05 80.17 136.97 C 81.70 137.05 83.23 137.16 84.76 137.20 C 90.47 138.13 95.00 134.30 98.95 130.86 C 98.62 126.01 97.49 121.19 98.19 116.31 Z" />
</g>
<g id="#50a4b2fa">
<path fill="#50a4b2" opacity="0.98" d=" M 39.29 112.15 C 40.43 113.54 41.69 114.82 43.12 115.91 C 39.89 118.23 35.88 118.93 32.20 120.25 C 32.70 118.45 34.28 116.62 33.35 114.72 C 33.95 113.29 37.67 113.46 39.29 112.15 Z" />
</g>
<g id="#f6e570ff">
<path fill="#f6e570" opacity="1.00" d=" M 65.11 112.24 C 65.55 112.08 66.42 111.77 66.86 111.61 C 69.09 112.14 70.87 113.89 71.37 116.14 C 70.72 118.37 70.17 120.63 69.65 122.90 C 66.28 122.76 62.98 122.11 59.72 121.28 C 59.54 120.77 59.16 119.75 58.98 119.25 C 59.72 118.23 60.44 117.20 61.17 116.18 C 62.51 114.90 63.83 113.59 65.11 112.24 Z" />
</g>
<g id="#367289ff">
<path fill="#367289" opacity="1.00" d=" M 91.21 113.13 C 92.48 113.11 93.75 113.10 95.02 113.10 C 94.99 118.04 95.08 122.98 94.93 127.92 C 93.29 132.87 88.92 134.95 84.76 137.20 C 83.23 137.16 81.70 137.05 80.17 136.97 L 79.70 136.18 C 85.09 136.29 91.73 131.81 91.05 125.97 C 91.04 125.22 91.01 123.71 91.00 122.96 C 90.78 120.68 89.29 118.82 88.23 116.87 L 88.07 116.18 C 89.15 115.20 90.19 114.17 91.21 113.13 Z" />
</g>
<g id="#58bbd1f7">
<path fill="#58bbd1" opacity="0.97" d=" M 130.68 115.75 C 138.79 114.01 147.68 110.94 155.70 114.37 C 161.49 117.46 168.53 122.72 167.98 130.12 C 163.35 125.09 157.70 121.30 151.37 118.67 C 151.16 118.29 150.73 117.55 150.52 117.18 C 145.28 116.68 140.15 117.93 134.99 118.61 C 132.61 117.92 130.30 116.90 127.78 116.75 C 128.74 116.40 129.71 116.07 130.68 115.75 Z" />
</g>
<g id="#f1d96aff">
<path fill="#f1d96a" opacity="1.00" d=" M 74.86 114.02 C 79.91 113.61 84.25 117.74 83.08 122.97 C 79.70 122.97 76.34 123.00 72.97 122.99 C 72.64 119.86 73.73 116.88 74.86 114.02 Z" />
</g>
<g id="#b19a4eff">
<path fill="#b19a4e" opacity="1.00" d=" M 84.81 113.92 C 85.91 114.65 86.99 115.42 88.07 116.18 L 88.23 116.87 C 88.12 118.94 88.06 121.02 88.05 123.10 L 87.24 123.30 L 86.22 123.19 C 86.48 119.96 84.35 117.08 84.81 113.92 Z" />
</g>
<g id="#55b3c5fb">
<path fill="#55b3c5" opacity="1.00" d=" M 27.39 118.69 C 27.94 116.79 31.30 115.40 33.35 114.72 C 34.28 116.62 32.70 118.45 32.20 120.25 C 31.48 120.85 30.76 121.45 30.04 122.05 C 26.48 124.82 23.52 128.25 20.02 131.10 C 21.84 126.91 25.67 124.00 27.80 120.05 C 27.70 119.71 27.49 119.03 27.39 118.69 Z" />
</g>
<g id="#397c90f6">
<path fill="#397c90" opacity="0.96" d=" M 32.20 120.25 C 35.88 118.93 39.89 118.23 43.12 115.91 C 44.05 116.63 44.97 117.35 45.88 118.10 C 46.23 118.51 46.92 119.34 47.27 119.75 C 40.88 118.82 35.10 121.65 29.93 124.97 C 29.96 124.24 30.01 122.78 30.04 122.05 C 30.76 121.45 31.48 120.85 32.20 120.25 Z" />
</g>
<g id="#4694a6fd">
<path fill="#4694a6" opacity="1.00" d=" M 118.80 121.83 C 120.65 119.85 122.63 117.99 124.79 116.36 C 125.78 116.52 126.78 116.65 127.78 116.75 C 130.30 116.90 132.61 117.92 134.99 118.61 C 140.15 117.93 145.28 116.68 150.52 117.18 C 150.73 117.55 151.16 118.29 151.37 118.67 C 145.16 118.80 139.19 121.36 133.13 121.83 C 128.46 120.39 123.59 122.56 118.80 121.83 Z" />
</g>
<g id="#978547ff">
<path fill="#978547" opacity="1.00" d=" M 88.23 116.87 C 89.29 118.82 90.78 120.68 91.00 122.96 C 90.26 122.99 88.79 123.06 88.05 123.10 C 88.06 121.02 88.12 118.94 88.23 116.87 Z" />
</g>
<g id="#5bc4d8f7">
<path fill="#5bc4d8" opacity="0.97" d=" M 7.18 139.21 C 14.24 132.73 19.59 124.33 27.39 118.69 C 27.49 119.03 27.70 119.71 27.80 120.05 C 25.67 124.00 21.84 126.91 20.02 131.10 C 18.48 133.20 13.95 134.41 14.65 137.32 C 13.39 139.49 9.74 141.43 6.99 142.06 C 7.03 141.35 7.13 139.92 7.18 139.21 Z" />
</g>
<g id="#366f7df7">
<path fill="#366f7d" opacity="0.97" d=" M 118.80 121.83 C 123.59 122.56 128.46 120.39 133.13 121.83 L 132.94 122.82 C 129.11 123.40 125.26 125.60 121.32 124.84 C 120.15 124.13 118.98 123.45 117.80 122.76 C 118.05 122.53 118.55 122.06 118.80 121.83 Z" />
</g>
<g id="#3c8aa6f5">
<path fill="#3c8aa6" opacity="0.96" d=" M 20.02 131.10 C 23.52 128.25 26.48 124.82 30.04 122.05 C 30.01 122.78 29.96 124.24 29.93 124.97 C 30.01 126.85 27.10 127.02 26.31 128.36 C 22.68 131.61 19.22 135.45 14.65 137.32 C 13.95 134.41 18.48 133.20 20.02 131.10 Z" />
</g>
<g id="#85763fff">
<path fill="#85763f" opacity="1.00" d=" M 72.97 122.99 C 76.34 123.00 79.70 122.97 83.08 122.97 C 83.86 123.03 85.44 123.13 86.22 123.19 L 87.24 123.30 C 82.66 124.81 77.73 123.79 73.03 123.98 L 72.97 122.99 Z" />
</g>
<g id="#35636cfb">
<path fill="#35636c" opacity="1.00" d=" M 113.26 132.68 C 111.71 128.37 115.02 125.25 117.80 122.76 C 118.98 123.45 120.15 124.13 121.32 124.84 C 120.11 127.12 115.68 126.98 116.03 130.03 C 116.24 130.30 116.68 130.83 116.90 131.10 C 118.77 132.67 119.24 134.90 118.33 137.14 C 118.24 137.58 118.06 138.45 117.98 138.89 C 116.15 137.04 114.41 135.03 113.26 132.68 Z" />
</g>
<g id="#f2e676ff">
<path fill="#f2e676" opacity="1.00" d=" M 59.93 124.03 C 63.02 125.38 66.32 126.24 69.72 126.27 C 69.97 127.46 70.20 128.66 70.40 129.87 C 69.75 131.48 68.91 133.01 67.95 134.46 C 66.57 133.70 65.25 132.83 63.95 131.95 C 62.06 129.55 59.31 127.47 59.93 124.03 Z" />
</g>
<g id="#87814bff">
<path fill="#87814b" opacity="1.00" d=" M 86.15 127.11 C 87.80 126.80 89.43 126.38 91.05 125.97 C 91.73 131.81 85.09 136.29 79.70 136.18 C 82.49 133.59 86.84 131.54 86.15 127.11 Z" />
</g>
<g id="#d4c467ff">
<path fill="#d4c467" opacity="1.00" d=" M 73.00 127.06 C 75.68 126.92 78.36 126.89 81.05 126.97 C 83.64 131.08 77.36 133.95 73.90 133.16 C 73.67 131.64 73.22 128.59 73.00 127.06 Z" />
</g>
<g id="#aaa057ff">
<path fill="#aaa057" opacity="1.00" d=" M 81.05 126.97 C 82.75 126.98 84.45 127.05 86.15 127.11 C 86.84 131.54 82.49 133.59 79.70 136.18 C 77.61 136.09 75.65 135.44 74.06 134.05 L 73.90 133.16 C 77.36 133.95 83.64 131.08 81.05 126.97 Z" />
</g>
<g id="#0b181a4f">
<path fill="#0b181a" opacity="0.31" d=" M 129.84 128.13 C 130.89 125.71 135.51 127.42 137.99 127.14 L 138.35 128.30 C 135.51 128.16 132.67 128.11 129.84 128.13 Z" />
</g>
<g id="#4994a2f4">
<path fill="#4994a2" opacity="0.96" d=" M 116.03 130.03 C 120.30 129.69 124.46 127.96 128.73 128.23 C 131.89 128.80 135.25 129.54 138.35 128.30 C 140.70 128.39 143.88 129.28 145.31 131.25 C 138.99 129.28 132.47 131.49 126.10 130.24 C 123.35 132.40 120.06 131.77 116.90 131.10 C 116.68 130.83 116.24 130.30 116.03 130.03 Z" />
</g>
<g id="#60c1cffe">
<path fill="#60c1cf" opacity="1.00" d=" M 128.73 128.23 L 129.84 128.13 C 132.67 128.11 135.51 128.16 138.35 128.30 C 135.25 129.54 131.89 128.80 128.73 128.23 Z" />
</g>
<g id="#afa65fff">
<path fill="#afa65f" opacity="1.00" d=" M 70.40 129.87 C 71.06 131.75 71.82 133.60 72.73 135.38 L 73.05 136.09 C 72.33 136.01 70.89 135.85 70.16 135.77 C 69.42 135.33 68.68 134.90 67.95 134.46 C 68.91 133.01 69.75 131.48 70.40 129.87 Z" />
</g>
<g id="#387b90f8">
<path fill="#387b90" opacity="0.97" d=" M 116.90 131.10 C 120.06 131.77 123.35 132.40 126.10 130.24 C 132.47 131.49 138.99 129.28 145.31 131.25 C 141.56 131.66 137.79 131.92 134.02 132.05 C 134.20 132.33 134.54 132.88 134.71 133.16 L 135.13 133.84 C 129.47 134.64 123.97 136.34 118.33 137.14 C 119.24 134.90 118.77 132.67 116.90 131.10 Z" />
</g>
<g id="#3c92b5f8">
<path fill="#3c92b5" opacity="0.97" d=" M 145.31 131.25 C 147.51 130.11 148.98 133.89 146.23 133.67 C 142.40 133.24 138.56 133.07 134.71 133.16 C 134.54 132.88 134.20 132.33 134.02 132.05 C 137.79 131.92 141.56 131.66 145.31 131.25 Z" />
</g>
<g id="#5cb0c2ff">
<path fill="#5cb0c2" opacity="1.00" d=" M 63.95 131.95 C 65.25 132.83 66.57 133.70 67.95 134.46 C 68.68 134.90 69.42 135.33 70.16 135.77 C 69.80 136.09 69.07 136.73 68.70 137.04 C 66.98 135.49 64.21 134.56 63.95 131.95 Z" />
</g>
<g id="#0e252b71">
<path fill="#0e252b" opacity="0.44" d=" M 134.71 133.16 C 138.56 133.07 142.40 133.24 146.23 133.67 C 142.54 133.85 138.82 134.29 135.13 133.84 L 134.71 133.16 Z" />
</g>
<g id="#566c5dff">
<path fill="#566c5d" opacity="1.00" d=" M 74.06 134.05 C 75.65 135.44 77.61 136.09 79.70 136.18 L 80.17 136.97 C 78.69 137.05 77.21 137.15 75.74 137.26 C 74.84 136.87 73.95 136.48 73.05 136.09 L 72.73 135.38 C 73.06 135.05 73.73 134.38 74.06 134.05 Z" />
</g>
<g id="#3ea0c8ff">
<path fill="#3ea0c8" opacity="1.00" d=" M 92.00 139.99 C 98.56 140.75 103.63 135.30 109.92 135.01 C 115.38 137.53 119.79 142.07 122.81 147.23 C 116.68 143.79 109.81 140.42 102.60 141.39 C 91.17 142.86 79.21 142.14 68.70 137.04 C 69.07 136.73 69.80 136.09 70.16 135.77 C 70.89 135.85 72.33 136.01 73.05 136.09 C 73.95 136.48 74.84 136.87 75.74 137.26 C 77.05 137.98 78.36 138.72 79.74 139.30 C 83.52 141.12 88.01 139.52 92.00 139.99 Z" />
</g>
<g id="#44b7dcfb">
<path fill="#44b7dc" opacity="1.00" d=" M 68.70 137.04 C 79.21 142.14 91.17 142.86 102.60 141.39 C 109.81 140.42 116.68 143.79 122.81 147.23 C 123.06 147.71 123.56 148.67 123.81 149.15 C 123.87 149.58 124.00 150.43 124.06 150.85 C 124.44 152.62 123.00 153.67 121.84 154.68 C 109.79 152.22 98.92 145.85 86.95 143.15 C 81.23 142.64 75.52 142.00 69.80 141.57 C 71.22 141.28 72.65 141.04 74.07 140.78 C 72.23 139.60 70.31 138.54 68.70 137.04 Z" />
</g>
<g id="#28515895">
<path fill="#285158" opacity="0.58" d=" M 32.00 139.00 C 34.50 139.25 39.50 139.74 42.00 139.99 C 38.66 140.02 35.33 140.03 32.00 139.98 L 32.00 139.00 Z" />
</g>
<g id="#5dc5dbf8">
<path fill="#5dc5db" opacity="0.97" d=" M 30.26 142.71 C 27.62 141.25 29.48 139.05 32.00 139.98 C 35.33 140.03 38.66 140.02 42.00 139.99 C 43.62 139.97 45.24 139.94 46.86 139.96 C 46.20 141.97 45.49 143.96 44.86 145.98 C 39.85 145.93 35.19 143.48 30.26 142.71 Z" />
</g>
<g id="#489ab1f8">
<path fill="#489ab1" opacity="0.97" d=" M 124.85 147.85 C 124.80 146.50 124.69 145.17 124.67 143.83 C 134.59 146.23 144.87 145.74 154.94 147.11 C 156.34 147.62 158.63 147.76 157.96 149.85 C 152.32 150.69 146.65 151.53 140.99 152.04 C 138.41 151.99 135.83 151.93 133.25 151.85 C 130.97 149.59 127.62 149.24 124.85 147.85 Z" />
</g>
<g id="#3a8097f3">
<path fill="#3a8097" opacity="0.95" d=" M 123.81 149.15 C 124.07 148.83 124.59 148.17 124.85 147.85 C 127.62 149.24 130.97 149.59 133.25 151.85 C 132.70 151.87 131.61 151.92 131.06 151.95 C 128.68 151.95 126.42 151.03 124.06 150.85 C 124.00 150.43 123.87 149.58 123.81 149.15 Z" />
</g>
<g id="#03070836">
<path fill="#030708" opacity="0.21" d=" M 131.06 151.95 C 131.61 151.92 132.70 151.87 133.25 151.85 C 135.83 151.93 138.41 151.99 140.99 152.04 L 141.00 153.01 C 138.50 153.00 133.48 153.00 130.97 153.00 L 131.06 151.95 Z" />
</g>
</svg>
