<?xml version="1.0" encoding="UTF-8" ?>
<!DOCTYPE svg PUBLIC "-//W3C//DTD SVG 1.1//EN" "http://www.w3.org/Graphics/SVG/1.1/DTD/svg11.dtd">
<svg width="135pt" height="95pt" viewBox="0 0 135 95" version="1.1" xmlns="http://www.w3.org/2000/svg">
<g id="#130d0645">
<path fill="#130d06" opacity="0.27" d=" M 67.00 2.00 C 69.51 2.24 74.51 2.74 77.02 2.98 C 73.67 2.99 70.34 3.02 67.00 2.97 L 67.00 2.00 Z" />
</g>
<g id="#e5a765f9">
<path fill="#e5a765" opacity="0.98" d=" M 15.60 39.67 C 23.13 18.43 44.86 4.15 67.00 2.97 C 70.34 3.02 73.67 2.99 77.02 2.98 C 78.87 2.82 80.53 3.70 82.22 4.29 C 68.17 6.14 53.91 8.98 40.99 15.02 C 32.81 19.84 24.61 25.83 21.00 35.00 C 18.85 40.66 14.38 45.92 15.15 52.25 C 15.10 52.91 15.00 54.22 14.95 54.87 L 14.42 55.42 C 11.78 50.81 13.97 44.59 15.60 39.67 Z" />
</g>
<g id="#cd9257fe">
<path fill="#cd9257" opacity="1.00" d=" M 82.22 4.29 C 86.05 4.02 89.65 6.22 93.17 7.53 C 70.79 7.38 45.87 10.79 29.22 27.22 C 23.06 34.70 20.85 44.50 15.15 52.25 C 14.38 45.92 18.85 40.66 21.00 35.00 C 24.61 25.83 32.81 19.84 40.99 15.02 C 53.91 8.98 68.17 6.14 82.22 4.29 Z" />
</g>
<g id="#bb824cff">
<path fill="#bb824c" opacity="1.00" d=" M 29.22 27.22 C 45.87 10.79 70.79 7.38 93.17 7.53 C 95.88 7.98 98.75 9.46 100.08 12.00 C 91.83 11.16 83.52 10.45 75.25 11.21 C 73.99 12.34 72.73 13.51 71.88 14.98 C 73.34 17.19 76.08 18.28 77.34 20.67 C 81.46 29.45 76.21 41.13 67.14 44.26 C 70.75 39.63 73.98 34.76 76.15 29.29 C 78.34 26.57 76.37 23.28 72.95 23.75 C 73.27 23.15 75.85 22.34 74.18 21.87 C 65.11 15.36 52.61 15.85 43.05 21.00 C 41.24 21.70 41.09 23.63 40.25 25.06 C 39.86 23.98 39.40 22.92 38.88 21.90 C 36.89 23.39 33.81 25.44 35.98 28.14 C 29.97 30.17 29.47 38.43 30.13 43.82 C 36.37 48.80 44.73 48.65 52.21 50.32 C 41.74 52.83 31.85 44.83 21.27 47.22 C 19.13 49.74 17.29 52.52 14.95 54.87 C 15.00 54.22 15.10 52.91 15.15 52.25 C 20.85 44.50 23.06 34.70 29.22 27.22 Z" />
</g>
<g id="#b27842ff">
<path fill="#b27842" opacity="1.00" d=" M 75.25 11.21 C 83.52 10.45 91.83 11.16 100.08 12.00 C 101.36 11.98 102.40 12.50 103.19 13.54 C 96.20 13.72 88.88 10.68 82.10 14.12 C 84.01 18.67 87.92 22.60 87.02 28.01 C 88.81 34.04 84.38 38.72 80.82 42.82 C 75.12 47.96 67.02 48.39 60.10 51.12 C 54.85 53.34 49.29 52.76 43.82 52.12 C 34.42 48.94 21.25 48.04 15.67 57.96 C 14.84 57.46 13.15 56.48 14.42 55.42 L 14.95 54.87 C 17.29 52.52 19.13 49.74 21.27 47.22 C 31.85 44.83 41.74 52.83 52.21 50.32 C 57.48 49.14 62.55 47.11 67.14 44.26 C 76.21 41.13 81.46 29.45 77.34 20.67 C 76.08 18.28 73.34 17.19 71.88 14.98 C 72.73 13.51 73.99 12.34 75.25 11.21 Z" />
</g>
<g id="#a76f3cff">
<path fill="#a76f3c" opacity="1.00" d=" M 82.10 14.12 C 88.88 10.68 96.20 13.72 103.19 13.54 C 104.76 13.69 106.33 15.08 107.32 16.30 C 104.85 16.56 99.91 17.08 97.44 17.34 C 93.95 22.27 96.46 28.49 95.01 34.01 C 93.48 40.12 89.71 46.65 83.00 47.96 C 76.93 49.26 70.73 49.91 64.81 51.86 C 57.92 53.01 50.54 55.45 43.82 52.12 C 49.29 52.76 54.85 53.34 60.10 51.12 C 67.02 48.39 75.12 47.96 80.82 42.82 C 84.38 38.72 88.81 34.04 87.02 28.01 C 87.92 22.60 84.01 18.67 82.10 14.12 Z" />
</g>
<g id="#9b6534ff">
<path fill="#9b6534" opacity="1.00" d=" M 107.32 16.30 C 108.99 16.63 110.06 18.72 111.18 20.00 C 107.87 21.08 110.12 24.33 109.63 26.69 C 107.72 30.95 104.87 34.74 103.17 39.11 C 100.88 44.49 98.22 50.56 91.89 51.93 C 85.23 51.84 78.37 49.70 71.86 51.78 L 71.11 52.07 C 69.01 52.04 66.91 51.93 64.81 51.86 C 70.73 49.91 76.93 49.26 83.00 47.96 C 89.71 46.65 93.48 40.12 95.01 34.01 C 96.46 28.49 93.95 22.27 97.44 17.34 C 99.91 17.08 104.85 16.56 107.32 16.30 Z" />
</g>
<g id="#c5864cff">
<path fill="#c5864c" opacity="1.00" d=" M 43.05 21.00 C 52.61 15.85 65.11 15.36 74.18 21.87 C 75.85 22.34 73.27 23.15 72.95 23.75 C 71.36 24.56 70.61 26.04 71.06 27.80 C 72.32 29.29 74.42 28.94 76.15 29.29 C 73.98 34.76 70.75 39.63 67.14 44.26 C 62.55 47.11 57.48 49.14 52.21 50.32 C 44.73 48.65 36.37 48.80 30.13 43.82 C 29.47 38.43 29.97 30.17 35.98 28.14 C 37.69 27.65 39.40 26.68 40.25 25.06 C 41.09 23.63 41.24 21.70 43.05 21.00 M 54.33 21.40 C 45.91 22.23 37.36 28.19 36.00 36.98 C 34.20 41.57 38.49 44.64 42.06 45.91 C 51.09 49.71 60.23 42.34 64.95 34.97 C 68.11 31.27 67.78 25.16 63.76 22.30 C 60.65 21.68 57.58 20.43 54.33 21.40 Z" />
</g>
<g id="#8f5a2bfe">
<path fill="#8f5a2b" opacity="1.00" d=" M 111.18 20.00 C 114.44 22.05 116.41 26.05 119.14 28.92 C 121.65 37.49 115.69 44.55 110.71 50.74 C 107.82 52.99 105.20 56.43 101.24 56.56 C 91.32 55.75 81.81 52.54 71.86 51.78 C 78.37 49.70 85.23 51.84 91.89 51.93 C 98.22 50.56 100.88 44.49 103.17 39.11 C 104.87 34.74 107.72 30.95 109.63 26.69 C 110.12 24.33 107.87 21.08 111.18 20.00 Z" />
</g>
<g id="#d28f50ff">
<path fill="#d28f50" opacity="1.00" d=" M 54.33 21.40 C 57.58 20.43 60.65 21.68 63.76 22.30 C 67.78 25.16 68.11 31.27 64.95 34.97 C 60.23 42.34 51.09 49.71 42.06 45.91 C 38.49 44.64 34.20 41.57 36.00 36.98 C 37.36 28.19 45.91 22.23 54.33 21.40 Z" />
</g>
<g id="#30251aff">
<path fill="#30251a" opacity="1.00" d=" M 35.98 28.14 C 33.81 25.44 36.89 23.39 38.88 21.90 C 39.40 22.92 39.86 23.98 40.25 25.06 C 39.40 26.68 37.69 27.65 35.98 28.14 Z" />
</g>
<g id="#332416ff">
<path fill="#332416" opacity="1.00" d=" M 71.06 27.80 C 70.61 26.04 71.36 24.56 72.95 23.75 C 76.37 23.28 78.34 26.57 76.15 29.29 C 74.42 28.94 72.32 29.29 71.06 27.80 Z" />
</g>
<g id="#804e21fc">
<path fill="#804e21" opacity="1.00" d=" M 119.14 28.92 C 126.11 36.43 128.84 46.66 131.55 56.34 C 131.61 60.53 134.18 66.92 129.09 69.04 C 130.51 62.21 130.29 54.13 125.11 48.86 C 119.94 54.85 113.39 60.07 105.01 60.16 C 99.25 61.69 94.41 56.63 88.76 57.18 C 86.18 56.62 83.72 55.62 81.21 54.83 C 77.53 54.14 73.81 53.84 70.05 53.93 C 69.23 53.89 67.59 53.82 66.78 53.78 C 68.23 53.22 69.69 52.70 71.11 52.07 L 71.86 51.78 C 81.81 52.54 91.32 55.75 101.24 56.56 C 105.20 56.43 107.82 52.99 110.71 50.74 C 115.69 44.55 121.65 37.49 119.14 28.92 Z" />
</g>
<g id="#75471afd">
<path fill="#75471a" opacity="1.00" d=" M 105.01 60.16 C 113.39 60.07 119.94 54.85 125.11 48.86 C 130.29 54.13 130.51 62.21 129.09 69.04 C 128.22 71.44 122.89 71.48 122.39 69.28 C 123.43 67.06 123.12 64.53 120.70 63.43 C 122.46 61.75 124.94 61.20 126.95 59.88 C 126.40 58.59 125.74 57.33 124.93 56.19 C 116.96 59.85 108.23 61.24 99.78 63.37 C 95.98 61.53 92.43 59.24 88.76 57.18 C 94.41 56.63 99.25 61.69 105.01 60.16 Z" />
</g>
<g id="#905d2eff">
<path fill="#905d2e" opacity="1.00" d=" M 15.67 57.96 C 21.25 48.04 34.42 48.94 43.82 52.12 C 50.54 55.45 57.92 53.01 64.81 51.86 C 66.91 51.93 69.01 52.04 71.11 52.07 C 69.69 52.70 68.23 53.22 66.78 53.78 C 60.79 54.77 54.82 55.84 48.77 56.31 C 45.47 55.44 42.46 53.78 39.22 52.77 C 31.85 50.09 21.98 52.26 18.69 59.90 C 17.21 60.39 16.28 59.10 15.67 57.96 Z" />
</g>
<g id="#68411bf8">
<path fill="#68411b" opacity="0.97" d=" M 18.69 59.90 C 21.98 52.26 31.85 50.09 39.22 52.77 C 35.23 53.42 29.86 51.72 26.59 54.92 C 26.05 55.75 25.62 56.65 25.31 57.58 C 26.15 58.39 28.25 58.76 27.36 60.29 C 25.54 60.05 23.38 58.02 21.79 59.79 C 21.06 60.48 18.47 62.15 18.69 59.90 Z" />
</g>
<g id="#231910fe">
<path fill="#231910" opacity="1.00" d=" M 26.59 54.92 C 29.86 51.72 35.23 53.42 39.22 52.77 C 42.46 53.78 45.47 55.44 48.77 56.31 C 50.12 56.70 52.82 57.47 54.17 57.85 C 53.58 57.94 52.41 58.12 51.83 58.21 C 55.56 61.20 59.89 63.52 64.72 63.80 C 66.50 61.06 68.35 57.91 72.19 59.03 C 70.80 60.31 67.73 60.56 68.02 62.96 C 68.75 67.60 76.28 63.64 79.01 65.03 C 81.14 64.76 85.10 63.49 83.18 60.76 C 85.59 60.76 84.94 63.31 85.02 64.94 C 78.81 67.32 72.01 66.23 65.77 68.38 C 62.17 67.75 58.57 67.00 54.90 67.00 C 51.47 67.52 54.01 65.26 54.94 63.86 C 54.02 62.00 52.24 60.54 50.28 59.87 C 46.80 58.05 42.82 57.88 38.96 58.01 C 38.15 60.89 40.70 61.55 42.90 62.16 C 43.83 62.97 44.68 63.87 45.28 64.97 C 42.71 64.29 40.59 62.48 37.94 62.07 C 37.49 61.97 36.58 61.78 36.13 61.68 C 35.59 61.41 34.50 60.86 33.95 60.58 C 33.55 60.38 32.73 59.98 32.32 59.78 C 30.18 58.50 27.16 57.73 26.59 54.92 Z" />
</g>
<g id="#6f451bff">
<path fill="#6f451b" opacity="1.00" d=" M 48.77 56.31 C 54.82 55.84 60.79 54.77 66.78 53.78 C 67.59 53.82 69.23 53.89 70.05 53.93 L 69.91 54.92 C 64.72 56.21 59.47 57.22 54.17 57.85 C 52.82 57.47 50.12 56.70 48.77 56.31 Z" />
</g>
<g id="#553414ff">
<path fill="#553414" opacity="1.00" d=" M 70.05 53.93 C 73.81 53.84 77.53 54.14 81.21 54.83 C 77.44 54.89 73.68 55.01 69.91 54.92 L 70.05 53.93 Z" />
</g>
<g id="#51310ff7">
<path fill="#51310f" opacity="0.97" d=" M 25.31 57.58 C 25.62 56.65 26.05 55.75 26.59 54.92 C 27.16 57.73 30.18 58.50 32.32 59.78 C 31.93 60.89 31.55 62.00 31.16 63.11 C 30.00 62.25 27.23 61.94 27.36 60.29 C 28.25 58.76 26.15 58.39 25.31 57.58 Z" />
</g>
<g id="#1c150afd">
<path fill="#1c150a" opacity="1.00" d=" M 54.17 57.85 C 59.47 57.22 64.72 56.21 69.91 54.92 C 73.68 55.01 77.44 54.89 81.21 54.83 C 83.72 55.62 86.18 56.62 88.76 57.18 C 92.43 59.24 95.98 61.53 99.78 63.37 C 100.13 63.55 100.83 63.92 101.19 64.11 C 100.02 64.95 98.86 65.81 97.75 66.72 C 94.81 67.34 91.89 68.29 88.85 68.00 C 86.45 67.53 84.17 67.70 82.01 68.49 C 80.73 68.94 79.40 69.12 78.03 69.04 C 73.95 68.87 69.80 69.11 65.77 68.38 C 72.01 66.23 78.81 67.32 85.02 64.94 C 84.94 63.31 85.59 60.76 83.18 60.76 C 79.75 59.14 75.93 58.98 72.19 59.03 C 68.35 57.91 66.50 61.06 64.72 63.80 C 59.89 63.52 55.56 61.20 51.83 58.21 C 52.41 58.12 53.58 57.94 54.17 57.85 Z" />
</g>
<g id="#6f4014ff">
<path fill="#6f4014" opacity="1.00" d=" M 99.78 63.37 C 108.23 61.24 116.96 59.85 124.93 56.19 C 125.74 57.33 126.40 58.59 126.95 59.88 C 124.94 61.20 122.46 61.75 120.70 63.43 C 119.30 64.00 117.44 63.95 116.66 65.47 L 116.15 66.08 C 116.06 65.59 115.88 64.60 115.79 64.10 C 110.92 63.77 105.93 65.76 101.19 64.11 C 100.83 63.92 100.13 63.55 99.78 63.37 Z" />
</g>
<g id="#492226ff">
<path fill="#492226" opacity="1.00" d=" M 38.96 58.01 C 42.82 57.88 46.80 58.05 50.28 59.87 C 50.26 63.73 45.52 61.65 42.90 62.16 C 40.70 61.55 38.15 60.89 38.96 58.01 Z" />
</g>
<g id="#2e1617ff">
<path fill="#2e1617" opacity="1.00" d=" M 72.19 59.03 C 75.93 58.98 79.75 59.14 83.18 60.76 C 85.10 63.49 81.14 64.76 79.01 65.03 C 76.28 63.64 68.75 67.60 68.02 62.96 C 67.73 60.56 70.80 60.31 72.19 59.03 Z" />
</g>
<g id="#7e5525f7">
<path fill="#7e5525" opacity="0.97" d=" M 32.32 59.78 C 32.73 59.98 33.55 60.38 33.95 60.58 C 31.56 64.07 35.32 67.72 35.86 71.27 C 33.67 70.81 31.29 70.08 30.17 67.96 C 30.60 66.36 30.89 64.74 31.16 63.11 C 31.55 62.00 31.93 60.89 32.32 59.78 Z" />
</g>
<g id="#381d18fe">
<path fill="#381d18" opacity="1.00" d=" M 50.28 59.87 C 52.24 60.54 54.02 62.00 54.94 63.86 C 54.01 65.26 51.47 67.52 54.90 67.00 C 54.95 67.48 55.05 68.45 55.10 68.94 C 52.05 68.25 49.99 65.29 46.84 65.14 C 46.45 65.10 45.67 65.01 45.28 64.97 C 44.68 63.87 43.83 62.97 42.90 62.16 C 45.52 61.65 50.26 63.73 50.28 59.87 Z" />
</g>
<g id="#664219ff">
<path fill="#664219" opacity="1.00" d=" M 35.86 71.27 C 35.32 67.72 31.56 64.07 33.95 60.58 C 34.50 60.86 35.59 61.41 36.13 61.68 C 35.96 64.92 36.89 68.06 37.92 71.09 C 37.40 71.14 36.38 71.22 35.86 71.27 Z" />
</g>
<g id="#543311ff">
<path fill="#543311" opacity="1.00" d=" M 36.13 61.68 C 36.58 61.78 37.49 61.97 37.94 62.07 C 39.17 65.45 38.73 71.48 43.96 70.03 C 43.40 71.01 42.36 71.40 40.83 71.19 C 40.10 71.17 38.65 71.12 37.92 71.09 C 36.89 68.06 35.96 64.92 36.13 61.68 Z" />
</g>
<g id="#392008ff">
<path fill="#392008" opacity="1.00" d=" M 37.94 62.07 C 40.59 62.48 42.71 64.29 45.28 64.97 C 44.90 66.67 44.47 68.36 43.96 70.03 C 38.73 71.48 39.17 65.45 37.94 62.07 Z" />
</g>
<g id="#5f3b14fd">
<path fill="#5f3b14" opacity="1.00" d=" M 101.19 64.11 C 105.93 65.76 110.92 63.77 115.79 64.10 C 115.88 64.60 116.06 65.59 116.15 66.08 C 116.04 68.12 115.98 70.17 115.93 72.21 C 111.71 71.12 107.99 67.86 103.30 69.20 C 102.21 70.50 101.26 71.90 100.14 73.18 C 99.70 72.86 98.82 72.21 98.39 71.89 C 98.95 70.11 98.24 68.41 97.75 66.72 C 98.86 65.81 100.02 64.95 101.19 64.11 Z" />
</g>
<g id="#8b5e2ffd">
<path fill="#8b5e2f" opacity="1.00" d=" M 116.66 65.47 C 117.44 63.95 119.30 64.00 120.70 63.43 C 123.12 64.53 123.43 67.06 122.39 69.28 C 120.81 68.51 119.22 67.72 117.84 66.62 C 117.54 66.33 116.96 65.76 116.66 65.47 Z" />
</g>
<g id="#6f481bf9">
<path fill="#6f481b" opacity="0.98" d=" M 45.28 64.97 C 45.67 65.01 46.45 65.10 46.84 65.14 C 47.47 66.79 48.07 68.50 49.18 69.90 C 51.85 69.95 54.53 69.93 57.20 69.87 C 61.51 72.17 66.06 73.64 71.00 72.76 C 71.54 73.72 71.97 74.73 72.28 75.79 C 71.29 82.22 62.66 80.89 58.08 81.12 C 56.55 81.40 55.69 83.38 53.95 82.96 C 53.40 82.94 52.31 82.90 51.77 82.88 C 53.53 79.56 57.43 77.22 57.93 73.31 C 54.43 72.05 50.91 70.77 47.10 70.97 C 47.39 72.69 47.82 74.37 48.00 76.11 C 44.93 75.71 42.75 73.41 40.83 71.19 C 42.36 71.40 43.40 71.01 43.96 70.03 C 44.47 68.36 44.90 66.67 45.28 64.97 Z" />
</g>
<g id="#4e3010f9">
<path fill="#4e3010" opacity="0.98" d=" M 46.84 65.14 C 49.99 65.29 52.05 68.25 55.10 68.94 C 55.62 69.17 56.68 69.63 57.20 69.87 C 54.53 69.93 51.85 69.95 49.18 69.90 C 48.07 68.50 47.47 66.79 46.84 65.14 Z" />
</g>
<g id="#1a100478">
<path fill="#1a1004" opacity="0.47" d=" M 116.15 66.08 L 116.66 65.47 C 116.96 65.76 117.54 66.33 117.84 66.62 C 116.36 68.54 118.40 74.17 115.96 74.97 C 115.95 74.28 115.94 72.90 115.93 72.21 C 115.98 70.17 116.04 68.12 116.15 66.08 Z" />
</g>
<g id="#01000012">
<path fill="#010000" opacity="0.07" d=" M 54.90 67.00 C 58.57 67.00 62.17 67.75 65.77 68.38 C 69.80 69.11 73.95 68.87 78.03 69.04 C 77.68 70.84 74.75 69.65 73.50 70.81 C 72.41 71.08 71.70 71.96 71.00 72.76 C 66.06 73.64 61.51 72.17 57.20 69.87 C 56.68 69.63 55.62 69.17 55.10 68.94 C 55.05 68.45 54.95 67.48 54.90 67.00 Z" />
</g>
<g id="#9d6b30fb">
<path fill="#9d6b30" opacity="1.00" d=" M 30.17 67.96 C 31.29 70.08 33.67 70.81 35.86 71.27 C 41.46 74.63 46.97 79.52 53.97 77.15 C 52.53 79.02 51.08 80.90 49.84 82.92 C 48.56 82.97 47.28 83.01 46.00 83.03 C 41.91 82.67 36.87 82.51 34.97 78.03 C 32.62 74.98 28.55 72.42 30.17 67.96 Z" />
</g>
<g id="#09060392">
<path fill="#090603" opacity="0.57" d=" M 82.01 68.49 C 84.17 67.70 86.45 67.53 88.85 68.00 C 87.96 70.16 83.84 69.36 82.01 68.49 Z" />
</g>
<g id="#754a19fc">
<path fill="#754a19" opacity="1.00" d=" M 103.30 69.20 C 107.99 67.86 111.71 71.12 115.93 72.21 C 115.94 72.90 115.95 74.28 115.96 74.97 C 115.34 77.87 111.09 78.31 109.08 80.12 C 106.17 81.40 104.25 85.34 100.74 84.79 C 102.25 80.71 108.25 78.85 107.94 74.16 C 105.53 72.26 102.36 74.94 100.14 73.18 C 101.26 71.90 102.21 70.50 103.30 69.20 Z" />
</g>
<g id="#835824ff">
<path fill="#835824" opacity="1.00" d=" M 35.86 71.27 C 36.38 71.22 37.40 71.14 37.92 71.09 C 38.65 71.12 40.10 71.17 40.83 71.19 C 42.75 73.41 44.93 75.71 48.00 76.11 C 47.82 74.37 47.39 72.69 47.10 70.97 C 50.91 70.77 54.43 72.05 57.93 73.31 C 57.43 77.22 53.53 79.56 51.77 82.88 C 51.29 82.89 50.32 82.91 49.84 82.92 C 51.08 80.90 52.53 79.02 53.97 77.15 C 46.97 79.52 41.46 74.63 35.86 71.27 Z" />
</g>
<g id="#4e3111d0">
<path fill="#4e3111" opacity="0.82" d=" M 71.00 72.76 C 71.70 71.96 72.41 71.08 73.50 70.81 C 73.28 72.27 73.55 75.04 72.28 75.79 C 71.97 74.73 71.54 73.72 71.00 72.76 Z" />
</g>
<g id="#6e4a1ef3">
<path fill="#6e4a1e" opacity="0.95" d=" M 82.86 72.13 C 84.40 72.79 87.48 74.11 89.03 74.77 C 92.30 74.29 95.22 72.69 98.39 71.89 C 95.80 74.16 93.57 76.87 90.70 78.80 C 86.85 80.07 83.38 78.28 79.75 77.62 C 78.19 76.85 77.93 74.38 77.04 72.89 C 79.65 73.16 81.37 75.42 83.80 76.16 C 83.44 74.83 83.06 73.50 82.86 72.13 Z" />
</g>
<g id="#8f6028fb">
<path fill="#8f6028" opacity="1.00" d=" M 98.39 71.89 C 98.82 72.21 99.70 72.86 100.14 73.18 C 102.36 74.94 105.53 72.26 107.94 74.16 C 108.25 78.85 102.25 80.71 100.74 84.79 C 93.37 86.00 81.24 87.43 79.75 77.62 C 83.38 78.28 86.85 80.07 90.70 78.80 C 93.57 76.87 95.80 74.16 98.39 71.89 Z" />
</g>
<g id="#36240a9e">
<path fill="#36240a" opacity="0.62" d=" M 46.00 83.03 C 47.28 83.01 48.56 82.97 49.84 82.92 C 50.32 82.91 51.29 82.89 51.77 82.88 C 52.31 82.90 53.40 82.94 53.95 82.96 C 53.34 85.26 48.38 83.51 46.03 83.96 L 46.00 83.03 Z" />
</g>
</svg>
