<?xml version="1.0" encoding="UTF-8" ?>
<!DOCTYPE svg PUBLIC "-//W3C//DTD SVG 1.1//EN" "http://www.w3.org/Graphics/SVG/1.1/DTD/svg11.dtd">
<svg width="134pt" height="185pt" viewBox="0 0 134 185" version="1.1" xmlns="http://www.w3.org/2000/svg">
<g id="#ad7438fd">
<path fill="#ad7438" opacity="1.00" d=" M 105.29 10.30 C 112.07 7.63 118.53 4.26 125.03 1.00 C 124.88 2.64 125.51 4.76 123.87 5.82 C 120.79 8.76 116.98 10.95 114.36 14.33 C 109.91 23.78 105.75 33.75 98.98 41.80 L 98.21 42.13 C 97.80 41.51 96.99 40.26 96.59 39.63 C 99.81 33.83 104.36 28.79 106.48 22.38 C 106.92 20.70 109.17 18.22 106.74 17.15 C 100.65 16.99 92.06 16.39 88.44 22.36 C 86.41 28.06 84.06 33.67 80.77 38.77 C 77.93 43.10 76.19 48.29 71.87 51.45 C 69.50 48.28 74.01 45.74 74.96 42.98 C 79.73 34.87 86.32 27.34 88.01 17.84 C 86.98 19.16 86.12 20.60 85.24 22.03 L 85.03 20.89 C 84.89 17.60 81.02 16.83 78.80 15.20 C 80.15 14.95 82.86 14.45 84.21 14.20 L 85.11 14.08 C 91.96 15.86 98.93 12.81 105.29 10.30 Z" />
</g>
<g id="#7b5123ec">
<path fill="#7b5123" opacity="0.93" d=" M 14.87 5.05 C 19.42 7.73 23.31 11.43 27.01 15.14 C 25.74 14.88 24.46 14.61 23.20 14.29 C 20.00 12.36 17.21 9.89 15.21 6.70 C 15.13 6.29 14.95 5.47 14.87 5.05 Z" />
</g>
<g id="#7e4f21f9">
<path fill="#7e4f21" opacity="0.98" d=" M 114.36 14.33 C 116.98 10.95 120.79 8.76 123.87 5.82 C 123.35 21.97 111.90 35.16 101.34 46.34 C 101.16 46.80 100.78 47.73 100.59 48.20 C 100.29 47.06 100.02 45.92 99.76 44.78 C 99.54 43.77 99.28 42.78 98.98 41.80 C 105.75 33.75 109.91 23.78 114.36 14.33 Z" />
</g>
<g id="#e9a857fa">
<path fill="#e9a857" opacity="0.98" d=" M 14.26 7.01 L 15.21 6.70 C 17.21 9.89 20.00 12.36 23.20 14.29 C 22.07 16.62 18.90 16.49 17.10 18.16 C 14.27 25.18 14.86 32.80 15.20 40.19 C 14.96 40.44 14.48 40.95 14.24 41.20 C 13.19 38.94 12.81 36.48 13.00 34.00 C 13.00 30.89 13.32 27.71 12.37 24.70 C 11.38 18.73 13.50 12.88 14.26 7.01 Z" />
</g>
<g id="#1b130a52">
<path fill="#1b130a" opacity="0.32" d=" M 76.99 13.99 C 77.86 11.78 82.59 13.44 84.98 13.10 L 85.11 14.08 L 84.21 14.20 C 82.41 14.15 78.80 14.04 76.99 13.99 Z" />
</g>
<g id="#cb904cfe">
<path fill="#cb904c" opacity="1.00" d=" M 23.20 14.29 C 24.46 14.61 25.74 14.88 27.01 15.14 C 28.45 15.54 29.75 16.32 31.02 17.10 C 30.90 18.47 31.26 20.33 29.35 20.41 C 26.83 20.78 24.19 17.69 21.63 19.59 C 14.51 22.84 17.39 32.50 16.69 38.66 C 16.32 39.04 15.57 39.81 15.20 40.19 C 14.86 32.80 14.27 25.18 17.10 18.16 C 18.90 16.49 22.07 16.62 23.20 14.29 Z" />
</g>
<g id="#c68843fe">
<path fill="#c68843" opacity="1.00" d=" M 70.08 15.07 C 72.27 14.14 74.63 13.81 76.99 13.99 C 78.80 14.04 82.41 14.15 84.21 14.20 C 82.86 14.45 80.15 14.95 78.80 15.20 C 81.02 16.83 84.89 17.60 85.03 20.89 C 80.60 25.11 78.62 31.23 75.21 36.24 L 74.15 36.09 C 76.12 31.46 78.79 27.13 80.43 22.37 C 81.13 19.91 82.66 15.30 76.01 18.97 C 68.93 18.60 62.02 20.47 54.98 20.82 C 49.08 21.37 42.94 21.26 37.29 23.27 C 33.63 28.09 34.60 34.72 32.81 40.30 C 30.72 34.28 31.19 27.88 30.73 21.63 C 32.26 20.02 34.07 18.70 36.35 18.45 C 47.87 18.83 59.45 18.55 70.88 16.94 C 70.68 16.47 70.28 15.54 70.08 15.07 Z" />
</g>
<g id="#513c1fa5">
<path fill="#513c1f" opacity="0.65" d=" M 32.05 16.02 C 32.57 13.07 39.25 15.72 42.00 15.04 L 42.00 16.00 C 38.68 16.01 35.36 15.99 32.05 16.02 Z" />
</g>
<g id="#0b080439">
<path fill="#0b0804" opacity="0.22" d=" M 42.00 15.04 C 44.75 15.03 50.25 15.02 53.00 15.02 L 53.00 16.01 C 49.33 16.03 45.67 16.03 42.00 16.00 L 42.00 15.04 Z" />
</g>
<g id="#b07b40fe">
<path fill="#b07b40" opacity="1.00" d=" M 53.00 16.01 C 58.76 16.77 64.38 14.99 70.08 15.07 C 70.28 15.54 70.68 16.47 70.88 16.94 C 59.45 18.55 47.87 18.83 36.35 18.45 C 34.07 18.70 32.26 20.02 30.73 21.63 C 30.34 21.84 29.58 22.27 29.19 22.48 C 29.11 30.87 28.95 40.91 34.20 47.94 C 34.69 49.23 34.96 50.57 35.24 51.91 L 34.17 51.97 C 33.90 51.69 33.34 51.12 33.07 50.83 C 29.42 45.56 27.13 39.33 24.09 33.89 C 18.24 44.94 25.76 59.99 37.17 63.86 C 38.57 64.50 39.94 65.22 41.31 65.94 C 41.42 69.27 37.82 66.86 35.90 67.05 C 34.43 67.20 33.64 66.13 32.93 65.03 C 28.55 60.33 24.46 55.45 20.84 50.16 C 18.78 50.54 18.16 53.42 16.97 54.98 C 17.44 52.38 17.21 49.92 16.27 47.61 C 15.55 45.52 14.05 43.44 14.24 41.20 C 14.48 40.95 14.96 40.44 15.20 40.19 C 15.57 39.81 16.32 39.04 16.69 38.66 C 17.39 32.50 14.51 22.84 21.63 19.59 C 24.19 17.69 26.83 20.78 29.35 20.41 C 31.26 20.33 30.90 18.47 31.02 17.10 C 31.28 16.83 31.79 16.29 32.05 16.02 C 35.36 15.99 38.68 16.01 42.00 16.00 C 45.67 16.03 49.33 16.03 53.00 16.01 Z" />
</g>
<g id="#c7833bff">
<path fill="#c7833b" opacity="1.00" d=" M 88.44 22.36 C 92.06 16.39 100.65 16.99 106.74 17.15 C 109.17 18.22 106.92 20.70 106.48 22.38 C 104.36 28.79 99.81 33.83 96.59 39.63 C 92.99 40.94 94.17 45.06 93.35 48.12 C 93.21 46.72 93.05 45.32 92.88 43.92 C 87.40 51.31 79.54 56.45 71.34 60.37 C 70.14 61.33 68.77 60.64 67.55 60.14 C 68.36 59.41 69.18 58.70 70.02 58.00 C 72.64 56.83 71.92 53.94 71.87 51.45 C 76.19 48.29 77.93 43.10 80.77 38.77 C 84.06 33.67 86.41 28.06 88.44 22.36 Z" />
</g>
<g id="#694722ff">
<path fill="#694722" opacity="1.00" d=" M 85.24 22.03 C 86.12 20.60 86.98 19.16 88.01 17.84 C 86.32 27.34 79.73 34.87 74.96 42.98 C 74.01 45.74 69.50 48.28 71.87 51.45 C 71.92 53.94 72.64 56.83 70.02 58.00 C 71.20 55.36 70.64 52.58 69.80 49.94 C 68.55 51.58 67.41 53.31 66.32 55.05 C 66.04 54.77 65.47 54.21 65.19 53.92 C 67.09 50.97 69.12 48.11 71.04 45.18 C 76.74 38.20 81.68 30.35 85.24 22.03 Z" />
</g>
<g id="#de9646ff">
<path fill="#de9646" opacity="1.00" d=" M 54.98 20.82 C 62.02 20.47 68.93 18.60 76.01 18.97 C 82.66 15.30 81.13 19.91 80.43 22.37 C 78.79 27.13 76.12 31.46 74.15 36.09 C 68.12 45.39 62.33 55.59 52.64 61.56 C 50.80 62.17 48.92 62.72 46.99 62.96 C 43.83 63.18 41.80 59.04 38.63 59.71 C 37.96 59.85 36.61 60.14 35.94 60.28 C 35.82 57.48 36.00 54.63 35.24 51.91 C 34.96 50.57 34.69 49.23 34.20 47.94 C 33.79 45.39 33.21 42.86 32.81 40.30 C 34.60 34.72 33.63 28.09 37.29 23.27 C 42.94 21.26 49.08 21.37 54.98 20.82 Z" />
</g>
<g id="#b67735ff">
<path fill="#b67735" opacity="1.00" d=" M 75.21 36.24 C 78.62 31.23 80.60 25.11 85.03 20.89 L 85.24 22.03 C 81.68 30.35 76.74 38.20 71.04 45.18 C 71.70 41.88 73.96 39.29 75.21 36.24 Z" />
</g>
<g id="#956736ff">
<path fill="#956736" opacity="1.00" d=" M 29.19 22.48 C 29.58 22.27 30.34 21.84 30.73 21.63 C 31.19 27.88 30.72 34.28 32.81 40.30 C 33.21 42.86 33.79 45.39 34.20 47.94 C 28.95 40.91 29.11 30.87 29.19 22.48 Z" />
</g>
<g id="#9f7038d4">
<path fill="#9f7038" opacity="0.83" d=" M 12.37 24.70 C 13.32 27.71 13.00 30.89 13.00 34.00 C 9.75 33.85 12.68 27.15 12.37 24.70 Z" />
</g>
<g id="#c0823fff">
<path fill="#c0823f" opacity="1.00" d=" M 24.09 33.89 C 27.13 39.33 29.42 45.56 33.07 50.83 C 31.70 56.03 33.00 60.76 37.17 63.86 C 25.76 59.99 18.24 44.94 24.09 33.89 Z" />
</g>
<g id="#bd7c37ff">
<path fill="#bd7c37" opacity="1.00" d=" M 74.15 36.09 L 75.21 36.24 C 73.96 39.29 71.70 41.88 71.04 45.18 C 69.12 48.11 67.09 50.97 65.19 53.92 C 64.15 55.61 63.05 57.25 61.89 58.86 C 61.56 59.35 60.90 60.34 60.56 60.84 C 58.76 63.55 56.85 66.19 55.04 68.89 C 55.48 68.90 56.36 68.92 56.80 68.92 L 56.77 69.77 C 55.27 70.51 53.70 71.25 51.98 71.08 C 47.07 72.49 44.22 69.02 41.31 65.94 C 40.83 64.97 40.35 64.01 39.86 63.05 C 39.50 61.92 39.09 60.81 38.63 59.71 C 41.80 59.04 43.83 63.18 46.99 62.96 C 48.92 62.72 50.80 62.17 52.64 61.56 C 62.33 55.59 68.12 45.39 74.15 36.09 Z" />
</g>
<g id="#dfc49aff">
<path fill="#dfc49a" opacity="1.00" d=" M 93.35 48.12 C 94.17 45.06 92.99 40.94 96.59 39.63 C 96.99 40.26 97.80 41.51 98.21 42.13 C 97.16 46.77 95.32 51.25 94.92 56.02 C 92.67 65.88 89.32 75.53 88.63 85.69 C 88.08 92.10 86.99 98.45 85.79 104.76 C 85.18 107.88 84.97 111.07 85.18 114.24 C 84.95 115.27 84.67 116.28 84.34 117.29 C 83.95 111.16 83.77 104.99 84.08 98.85 C 85.14 91.76 85.96 84.63 86.18 77.46 C 86.69 75.84 86.97 74.16 87.24 72.49 C 87.65 71.40 88.02 70.29 88.34 69.16 C 89.01 66.59 89.60 64.01 90.23 61.43 C 91.11 58.73 91.79 55.97 92.35 53.19 C 92.81 51.53 93.05 49.82 93.35 48.12 Z" />
</g>
<g id="#ac8c63ff">
<path fill="#ac8c63" opacity="1.00" d=" M 98.21 42.13 L 98.98 41.80 C 99.28 42.78 99.54 43.77 99.76 44.78 C 97.06 47.84 97.35 52.34 95.85 56.01 L 94.92 56.02 C 95.32 51.25 97.16 46.77 98.21 42.13 Z" />
</g>
<g id="#9f662dfe">
<path fill="#9f662d" opacity="1.00" d=" M 71.34 60.37 C 79.54 56.45 87.40 51.31 92.88 43.92 C 93.05 45.32 93.21 46.72 93.35 48.12 C 89.37 52.35 83.92 54.91 80.03 59.15 C 78.73 60.08 77.39 60.95 76.09 61.87 C 75.63 62.16 74.71 62.74 74.25 63.03 C 70.19 64.57 65.53 65.20 62.08 67.94 C 60.75 69.37 58.52 69.18 56.77 69.77 L 56.80 68.92 C 58.68 66.82 60.66 64.80 63.18 63.47 C 64.39 62.94 65.36 62.01 65.91 60.80 L 66.22 60.22 C 66.55 60.20 67.22 60.16 67.55 60.14 C 68.77 60.64 70.14 61.33 71.34 60.37 Z" />
</g>
<g id="#8c6f41ff">
<path fill="#8c6f41" opacity="1.00" d=" M 95.85 56.01 C 97.35 52.34 97.06 47.84 99.76 44.78 C 100.02 45.92 100.29 47.06 100.59 48.20 C 101.01 49.38 101.09 50.57 100.83 51.78 C 99.97 54.21 98.38 56.22 96.75 58.17 C 96.52 57.63 96.08 56.55 95.85 56.01 Z" />
</g>
<g id="#dbc49cf6">
<path fill="#dbc49c" opacity="0.96" d=" M 14.18 52.07 C 14.85 50.61 14.50 48.20 16.27 47.61 C 17.21 49.92 17.44 52.38 16.97 54.98 C 15.66 58.54 15.12 62.24 14.96 66.01 C 14.30 69.27 13.52 72.51 12.82 75.76 C 11.99 77.70 11.25 79.69 10.67 81.72 C 10.33 82.72 10.01 83.72 9.73 84.73 C 9.28 86.09 9.08 87.51 8.90 88.92 L 7.99 89.06 C 7.43 76.43 13.53 64.64 14.18 52.07 Z" />
</g>
<g id="#8f5b28ff">
<path fill="#8f5b28" opacity="1.00" d=" M 80.03 59.15 C 83.92 54.91 89.37 52.35 93.35 48.12 C 93.05 49.82 92.81 51.53 92.35 53.19 C 90.52 54.10 88.70 55.05 86.85 55.93 C 84.56 56.98 82.39 58.27 80.03 59.15 Z" />
</g>
<g id="#986936fc">
<path fill="#986936" opacity="1.00" d=" M 16.97 54.98 C 18.16 53.42 18.78 50.54 20.84 50.16 C 24.46 55.45 28.55 60.33 32.93 65.03 C 28.59 64.67 25.01 62.55 22.97 58.65 C 22.59 57.02 21.52 55.65 20.07 54.82 C 19.03 55.89 18.12 57.08 17.12 58.20 C 17.09 57.39 17.01 55.78 16.97 54.98 Z" />
</g>
<g id="#b2afafff">
<path fill="#b2afaf" opacity="1.00" d=" M 66.32 55.05 C 67.41 53.31 68.55 51.58 69.80 49.94 C 70.64 52.58 71.20 55.36 70.02 58.00 C 69.18 58.70 68.36 59.41 67.55 60.14 C 67.22 60.16 66.55 60.20 66.22 60.22 C 66.84 58.54 66.88 56.76 66.32 55.05 Z" />
</g>
<g id="#765737ff">
<path fill="#765737" opacity="1.00" d=" M 33.07 50.83 C 33.34 51.12 33.90 51.69 34.17 51.97 C 34.15 54.92 33.00 58.53 35.94 60.28 C 36.82 61.69 38.07 63.04 39.86 63.05 C 40.35 64.01 40.83 64.97 41.31 65.94 C 39.94 65.22 38.57 64.50 37.17 63.86 C 33.00 60.76 31.70 56.03 33.07 50.83 Z" />
</g>
<g id="#e3e1dfff">
<path fill="#e3e1df" opacity="1.00" d=" M 34.17 51.97 L 35.24 51.91 C 36.00 54.63 35.82 57.48 35.94 60.28 C 33.00 58.53 34.15 54.92 34.17 51.97 Z" />
</g>
<g id="#9e8e57ff">
<path fill="#9e8e57" opacity="1.00" d=" M 96.75 58.17 C 98.38 56.22 99.97 54.21 100.83 51.78 C 100.87 52.58 100.94 54.17 100.97 54.97 C 101.01 56.70 101.07 60.16 101.11 61.89 C 101.10 64.28 100.82 66.68 99.77 68.85 C 99.61 69.11 99.28 69.62 99.12 69.87 C 97.63 72.12 95.87 74.25 94.92 76.80 L 94.58 77.64 C 92.79 81.55 92.20 85.89 91.56 90.11 C 90.92 94.70 90.33 99.29 89.80 103.90 C 89.41 105.50 89.12 107.13 88.94 108.78 C 88.73 109.13 88.31 109.84 88.10 110.20 C 88.12 97.17 90.84 84.31 93.41 71.59 C 93.62 66.91 95.27 62.54 96.75 58.17 Z" />
</g>
<g id="#5c3214ff">
<path fill="#5c3214" opacity="1.00" d=" M 86.85 55.93 C 88.70 55.05 90.52 54.10 92.35 53.19 C 91.79 55.97 91.11 58.73 90.23 61.43 C 88.83 59.80 85.19 58.52 86.85 55.93 Z" />
</g>
<g id="#40322aff">
<path fill="#40322a" opacity="1.00" d=" M 65.19 53.92 C 65.47 54.21 66.04 54.77 66.32 55.05 C 66.88 56.76 66.84 58.54 66.22 60.22 C 65.19 59.27 63.57 58.74 62.48 59.95 C 62.33 59.68 62.04 59.13 61.89 58.86 C 63.05 57.25 64.15 55.61 65.19 53.92 Z" />
</g>
<g id="#b29063ff">
<path fill="#b29063" opacity="1.00" d=" M 14.96 66.01 C 15.12 62.24 15.66 58.54 16.97 54.98 C 17.01 55.78 17.09 57.39 17.12 58.20 C 16.51 60.76 15.96 63.34 15.89 65.98 L 14.96 66.01 Z" />
</g>
<g id="#735021f8">
<path fill="#735021" opacity="0.97" d=" M 17.12 58.20 C 18.12 57.08 19.03 55.89 20.07 54.82 C 21.52 55.65 22.59 57.02 22.97 58.65 C 20.94 68.67 18.70 78.69 17.88 88.90 L 17.19 88.81 C 15.13 88.37 11.83 88.86 15.11 83.99 C 15.50 78.05 18.45 71.79 15.89 65.98 C 15.96 63.34 16.51 60.76 17.12 58.20 Z" />
</g>
<g id="#8f5d29f4">
<path fill="#8f5d29" opacity="0.96" d=" M 100.97 54.97 C 102.85 54.87 101.34 57.67 102.82 58.23 C 107.87 62.14 112.40 66.71 117.63 70.41 C 119.08 71.66 121.21 72.77 121.09 74.97 C 118.74 73.93 116.45 72.77 114.13 71.66 C 113.33 70.69 112.33 69.90 111.04 69.80 C 109.96 68.95 108.91 68.07 107.97 67.07 C 106.23 64.71 103.54 63.40 101.11 61.89 C 101.07 60.16 101.01 56.70 100.97 54.97 Z" />
</g>
<g id="#804f24ff">
<path fill="#804f24" opacity="1.00" d=" M 80.03 59.15 C 82.39 58.27 84.56 56.98 86.85 55.93 C 85.19 58.52 88.83 59.80 90.23 61.43 C 89.60 64.01 89.01 66.59 88.34 69.16 C 88.17 68.48 87.83 67.12 87.67 66.44 C 83.75 65.03 80.35 62.24 76.09 61.87 C 77.39 60.95 78.73 60.08 80.03 59.15 Z" />
</g>
<g id="#977c4ff9">
<path fill="#977c4f" opacity="0.98" d=" M 94.92 56.02 L 95.85 56.01 C 96.08 56.55 96.52 57.63 96.75 58.17 C 95.27 62.54 93.62 66.91 93.41 71.59 C 90.84 84.31 88.12 97.17 88.10 110.20 C 88.03 111.83 88.01 113.47 88.01 115.11 C 88.08 122.75 86.88 130.34 86.94 137.99 L 86.03 137.95 C 85.62 131.08 84.18 124.11 84.34 117.29 C 84.67 116.28 84.95 115.27 85.18 114.24 C 85.96 111.13 86.01 107.93 85.79 104.76 C 86.99 98.45 88.08 92.10 88.63 85.69 C 89.32 75.53 92.67 65.88 94.92 56.02 Z" />
</g>
<g id="#6d563eff">
<path fill="#6d563e" opacity="1.00" d=" M 60.56 60.84 C 60.90 60.34 61.56 59.35 61.89 58.86 C 62.04 59.13 62.33 59.68 62.48 59.95 C 61.46 62.85 64.48 61.67 65.91 60.80 C 65.36 62.01 64.39 62.94 63.18 63.47 C 61.76 63.13 60.89 62.25 60.56 60.84 Z" />
</g>
<g id="#a6a7a8ff">
<path fill="#a6a7a8" opacity="1.00" d=" M 62.48 59.95 C 63.57 58.74 65.19 59.27 66.22 60.22 L 65.91 60.80 C 64.48 61.67 61.46 62.85 62.48 59.95 Z" />
</g>
<g id="#d0c9c1ff">
<path fill="#d0c9c1" opacity="1.00" d=" M 35.94 60.28 C 36.61 60.14 37.96 59.85 38.63 59.71 C 39.09 60.81 39.50 61.92 39.86 63.05 C 38.07 63.04 36.82 61.69 35.94 60.28 Z" />
</g>
<g id="#5a3918ff">
<path fill="#5a3918" opacity="1.00" d=" M 55.04 68.89 C 56.85 66.19 58.76 63.55 60.56 60.84 C 60.89 62.25 61.76 63.13 63.18 63.47 C 60.66 64.80 58.68 66.82 56.80 68.92 C 56.36 68.92 55.48 68.90 55.04 68.89 Z" />
</g>
<g id="#5c3413ff">
<path fill="#5c3413" opacity="1.00" d=" M 76.09 61.87 C 80.35 62.24 83.75 65.03 87.67 66.44 C 87.83 67.12 88.17 68.48 88.34 69.16 C 88.02 70.29 87.65 71.40 87.24 72.49 C 84.68 71.21 85.62 67.96 83.67 66.33 C 80.28 65.76 77.07 64.52 73.75 63.68 L 74.25 63.03 C 74.71 62.74 75.63 62.16 76.09 61.87 Z" />
</g>
<g id="#7b4a1ff5">
<path fill="#7b4a1f" opacity="0.96" d=" M 101.11 61.89 C 103.54 63.40 106.23 64.71 107.97 67.07 C 106.90 66.75 105.83 66.45 104.76 66.17 C 105.69 68.43 108.16 69.43 109.96 70.92 C 110.91 71.64 111.87 72.38 112.96 72.91 C 115.70 75.43 120.63 77.05 121.08 80.97 C 118.47 79.49 115.85 78.03 113.17 76.68 C 112.43 76.12 111.69 75.54 110.96 74.96 C 107.39 73.41 104.66 67.64 100.48 68.65 L 99.77 68.85 C 100.82 66.68 101.10 64.28 101.11 61.89 Z" />
</g>
<g id="#7a4d24f9">
<path fill="#7a4d24" opacity="0.98" d=" M 62.08 67.94 C 65.53 65.20 70.19 64.57 74.25 63.03 L 73.75 63.68 C 73.46 64.01 72.90 64.68 72.62 65.02 C 70.02 66.18 66.21 66.00 64.73 68.70 C 63.84 68.47 62.96 68.22 62.08 67.94 Z" />
</g>
<g id="#22160dff">
<path fill="#22160d" opacity="1.00" d=" M 72.62 65.02 C 72.90 64.68 73.46 64.01 73.75 63.68 C 77.07 64.52 80.28 65.76 83.67 66.33 C 85.62 67.96 84.68 71.21 87.24 72.49 C 86.97 74.16 86.69 75.84 86.18 77.46 C 84.49 75.70 82.94 73.81 81.60 71.78 C 81.49 70.19 82.51 68.18 80.79 67.18 C 79.17 66.99 77.52 67.05 75.89 67.02 C 74.77 66.40 73.69 65.72 72.62 65.02 Z" />
</g>
<g id="#7c5b3afe">
<path fill="#7c5b3a" opacity="1.00" d=" M 64.73 68.70 C 66.21 66.00 70.02 66.18 72.62 65.02 C 73.69 65.72 74.77 66.40 75.89 67.02 C 77.97 68.12 80.58 69.01 80.32 71.87 C 81.63 74.76 78.34 77.28 79.68 80.17 C 78.76 79.82 77.82 79.50 76.87 79.23 C 76.44 79.13 75.58 78.92 75.15 78.82 C 74.19 77.26 73.37 75.61 72.20 74.20 C 70.53 71.34 67.43 70.28 64.73 68.70 Z" />
</g>
<g id="#815f2efc">
<path fill="#815f2e" opacity="1.00" d=" M 14.96 66.01 L 15.89 65.98 C 18.45 71.79 15.50 78.05 15.11 83.99 C 11.83 88.86 15.13 88.37 17.19 88.81 C 17.13 91.78 17.14 94.79 16.73 97.75 C 16.02 104.18 15.15 110.90 16.59 117.30 C 16.77 123.93 18.44 130.46 17.99 137.12 C 15.57 134.53 14.60 130.53 13.50 127.16 C 11.82 110.13 11.02 92.84 12.82 75.76 C 13.52 72.51 14.30 69.27 14.96 66.01 Z" />
</g>
<g id="#6f4822e9">
<path fill="#6f4822" opacity="0.91" d=" M 41.31 65.94 C 44.22 69.02 47.07 72.49 51.98 71.08 L 52.01 72.05 C 47.93 73.14 44.17 70.18 40.24 71.84 C 39.14 69.92 37.24 68.74 35.90 67.05 C 37.82 66.86 41.42 69.27 41.31 65.94 Z" />
</g>
<g id="#2d1b0a94">
<path fill="#2d1b0a" opacity="0.58" d=" M 104.76 66.17 C 105.83 66.45 106.90 66.75 107.97 67.07 C 108.91 68.07 109.96 68.95 111.04 69.80 C 110.77 70.08 110.23 70.64 109.96 70.92 C 108.16 69.43 105.69 68.43 104.76 66.17 Z" />
</g>
<g id="#674628fd">
<path fill="#674628" opacity="1.00" d=" M 75.89 67.02 C 77.52 67.05 79.17 66.99 80.79 67.18 C 82.51 68.18 81.49 70.19 81.60 71.78 C 82.94 73.81 84.49 75.70 86.18 77.46 C 85.96 84.63 85.14 91.76 84.08 98.85 C 81.90 97.49 80.69 100.07 79.04 101.07 C 81.12 95.23 83.59 89.34 83.98 83.13 C 83.73 82.83 83.24 82.25 83.00 81.95 C 81.90 81.35 80.78 80.77 79.68 80.17 C 78.34 77.28 81.63 74.76 80.32 71.87 C 80.58 69.01 77.97 68.12 75.89 67.02 Z" />
</g>
<g id="#552f12ea">
<path fill="#552f12" opacity="0.92" d=" M 100.48 68.65 C 104.66 67.64 107.39 73.41 110.96 74.96 C 109.59 74.63 108.19 74.39 106.78 74.61 C 105.81 74.10 104.86 73.55 103.91 72.99 C 102.74 71.57 101.41 70.26 100.48 68.65 Z" />
</g>
<g id="#6b3d18fb">
<path fill="#6b3d18" opacity="1.00" d=" M 99.12 69.87 C 99.28 69.62 99.61 69.11 99.77 68.85 L 100.48 68.65 C 101.41 70.26 102.74 71.57 103.91 72.99 C 107.72 79.84 115.99 83.17 120.40 89.70 C 116.91 88.57 113.00 87.30 110.34 84.74 C 107.95 78.79 101.54 75.74 99.12 69.87 Z" />
</g>
<g id="#562e10fa">
<path fill="#562e10" opacity="0.98" d=" M 99.12 69.87 C 101.54 75.74 107.95 78.79 110.34 84.74 C 108.75 84.46 107.24 83.20 105.60 83.82 C 102.91 80.31 99.84 76.34 94.92 76.80 C 95.87 74.25 97.63 72.12 99.12 69.87 Z" />
</g>
<g id="#0f0a0441">
<path fill="#0f0a04" opacity="0.25" d=" M 109.96 70.92 C 110.23 70.64 110.77 70.08 111.04 69.80 C 112.33 69.90 113.33 70.69 114.13 71.66 C 113.84 71.97 113.25 72.60 112.96 72.91 C 111.87 72.38 110.91 71.64 109.96 70.92 Z" />
</g>
<g id="#8b5525f6">
<path fill="#8b5525" opacity="0.96" d=" M 103.91 72.99 C 104.86 73.55 105.81 74.10 106.78 74.61 C 108.50 75.69 110.19 76.80 111.90 77.89 C 118.79 83.73 126.60 88.58 132.74 95.27 C 132.83 95.69 133.01 96.54 133.10 96.97 C 128.91 94.54 123.58 93.52 120.40 89.70 C 115.99 83.17 107.72 79.84 103.91 72.99 Z" />
</g>
<g id="#6e3f19fd">
<path fill="#6e3f19" opacity="1.00" d=" M 72.20 74.20 C 73.37 75.61 74.19 77.26 75.15 78.82 C 74.07 81.16 74.09 83.66 75.03 86.04 C 72.33 88.28 73.20 91.89 73.04 95.04 C 68.25 101.54 61.75 106.43 55.69 111.67 C 53.62 113.28 51.03 114.33 49.87 116.86 C 48.41 116.78 48.09 114.83 47.20 113.90 L 47.19 113.17 C 57.66 108.08 64.85 98.69 71.64 89.58 C 71.69 87.04 71.77 81.94 71.81 79.39 C 70.35 79.08 69.12 78.50 69.16 76.85 C 69.69 75.61 71.29 75.17 72.20 74.20 Z" />
</g>
<g id="#0804023e">
<path fill="#080402" opacity="0.24" d=" M 106.78 74.61 C 108.19 74.39 109.59 74.63 110.96 74.96 C 111.69 75.54 112.43 76.12 113.17 76.68 C 112.86 76.98 112.22 77.59 111.90 77.89 C 110.19 76.80 108.50 75.69 106.78 74.61 Z" />
</g>
<g id="#9b7c54fb">
<path fill="#9b7c54" opacity="1.00" d=" M 10.67 81.72 C 11.25 79.69 11.99 77.70 12.82 75.76 C 11.02 92.84 11.82 110.13 13.50 127.16 C 12.45 123.52 10.83 119.98 10.50 116.17 C 10.55 114.06 10.53 111.95 10.46 109.85 L 10.45 109.14 C 11.28 100.02 11.16 90.85 10.67 81.72 Z" />
</g>
<g id="#855123fb">
<path fill="#855123" opacity="1.00" d=" M 62.34 81.70 C 63.63 79.36 66.90 78.32 69.16 76.85 C 69.12 78.50 70.35 79.08 71.81 79.39 C 71.77 81.94 71.69 87.04 71.64 89.58 C 64.85 98.69 57.66 108.08 47.19 113.17 C 46.43 111.70 44.24 107.44 45.62 107.31 C 46.67 107.91 47.20 107.51 47.22 106.13 C 50.79 109.54 54.74 106.45 57.14 103.29 C 61.73 100.66 64.27 95.62 67.55 91.61 C 68.17 88.99 70.78 85.42 68.79 83.13 C 66.53 83.23 64.31 83.82 62.05 83.97 C 62.18 83.22 62.27 82.46 62.34 81.70 Z" />
</g>
<g id="#75471efd">
<path fill="#75471e" opacity="1.00" d=" M 94.92 76.80 C 99.84 76.34 102.91 80.31 105.60 83.82 C 108.83 87.92 107.93 93.84 107.84 98.69 L 107.10 99.06 C 105.77 99.72 104.20 100.26 103.81 101.87 C 102.91 104.36 100.13 105.11 97.93 106.03 C 102.28 101.32 103.94 94.63 102.77 88.32 C 100.11 84.71 97.45 81.09 94.58 77.64 L 94.92 76.80 Z" />
</g>
<g id="#89572aff">
<path fill="#89572a" opacity="1.00" d=" M 91.56 90.11 C 92.20 85.89 92.79 81.55 94.58 77.64 C 97.45 81.09 100.11 84.71 102.77 88.32 C 103.94 94.63 102.28 101.32 97.93 106.03 C 96.83 107.44 96.47 109.26 95.84 110.90 C 94.23 110.97 92.61 111.05 91.00 111.14 C 90.31 110.35 89.62 109.57 88.94 108.78 C 89.12 107.13 89.41 105.50 89.80 103.90 C 91.71 104.71 93.55 106.42 95.76 105.86 C 100.20 102.12 100.39 94.50 96.82 90.16 C 95.06 90.07 93.31 90.30 91.56 90.11 Z" />
</g>
<g id="#be9370ff">
<path fill="#be9370" opacity="1.00" d=" M 75.15 78.82 C 75.58 78.92 76.44 79.13 76.87 79.23 C 76.26 81.50 76.02 83.89 75.03 86.04 C 74.09 83.66 74.07 81.16 75.15 78.82 Z" />
</g>
<g id="#a37d58ff">
<path fill="#a37d58" opacity="1.00" d=" M 76.87 79.23 C 77.82 79.50 78.76 79.82 79.68 80.17 C 80.78 80.77 81.90 81.35 83.00 81.95 C 79.83 87.64 80.97 94.72 77.22 100.20 C 77.04 97.35 77.14 94.48 76.37 91.72 C 75.97 89.82 75.46 87.94 75.03 86.04 C 76.02 83.89 76.26 81.50 76.87 79.23 Z" />
</g>
<g id="#c2a174ff">
<path fill="#c2a174" opacity="1.00" d=" M 9.73 84.73 C 10.01 83.72 10.33 82.72 10.67 81.72 C 11.16 90.85 11.28 100.02 10.45 109.14 C 9.85 101.01 10.15 92.86 9.73 84.73 Z" />
</g>
<g id="#c18243f0">
<path fill="#c18243" opacity="0.94" d=" M 45.62 107.31 C 47.42 96.99 54.18 87.96 62.34 81.70 C 62.27 82.46 62.18 83.22 62.05 83.97 C 59.49 85.95 57.40 88.39 55.52 91.00 C 51.66 95.34 48.71 100.50 47.22 106.13 C 47.20 107.51 46.67 107.91 45.62 107.31 Z" />
</g>
<g id="#835e3afb">
<path fill="#835e3a" opacity="1.00" d=" M 83.00 81.95 C 83.24 82.25 83.73 82.83 83.98 83.13 C 83.59 89.34 81.12 95.23 79.04 101.07 C 78.02 102.46 77.37 102.47 77.07 101.11 L 77.22 100.20 C 80.97 94.72 79.83 87.64 83.00 81.95 Z" />
</g>
<g id="#955b29ff">
<path fill="#955b29" opacity="1.00" d=" M 62.05 83.97 C 64.31 83.82 66.53 83.23 68.79 83.13 C 70.78 85.42 68.17 88.99 67.55 91.61 C 64.27 95.62 61.73 100.66 57.14 103.29 C 59.05 98.05 65.03 94.80 65.88 89.21 C 62.67 85.35 58.96 94.06 55.52 91.00 C 57.40 88.39 59.49 85.95 62.05 83.97 Z" />
</g>
<g id="#eece9fff">
<path fill="#eece9f" opacity="1.00" d=" M 8.90 88.92 C 9.08 87.51 9.28 86.09 9.73 84.73 C 10.15 92.86 9.85 101.01 10.45 109.14 L 10.46 109.85 C 10.12 110.19 9.46 110.87 9.13 111.21 C 9.00 103.78 8.99 96.35 8.90 88.92 Z" />
</g>
<g id="#1c140cff">
<path fill="#1c140c" opacity="1.00" d=" M 73.04 95.04 C 73.20 91.89 72.33 88.28 75.03 86.04 C 75.46 87.94 75.97 89.82 76.37 91.72 C 76.21 93.19 76.07 94.67 75.93 96.15 C 74.96 95.79 74.00 95.42 73.04 95.04 Z" />
</g>
<g id="#a0662fff">
<path fill="#a0662f" opacity="1.00" d=" M 55.52 91.00 C 58.96 94.06 62.67 85.35 65.88 89.21 C 65.03 94.80 59.05 98.05 57.14 103.29 C 54.74 106.45 50.79 109.54 47.22 106.13 C 48.71 100.50 51.66 95.34 55.52 91.00 Z" />
</g>
<g id="#423d3486">
<path fill="#423d34" opacity="0.53" d=" M 7.99 89.06 L 8.90 88.92 C 8.99 96.35 9.00 103.78 9.13 111.21 L 8.09 110.94 C 7.95 103.64 7.91 96.35 7.99 89.06 Z" />
</g>
<g id="#a66c33ff">
<path fill="#a66c33" opacity="1.00" d=" M 89.80 103.90 C 90.33 99.29 90.92 94.70 91.56 90.11 C 93.31 90.30 95.06 90.07 96.82 90.16 C 100.39 94.50 100.20 102.12 95.76 105.86 C 93.55 106.42 91.71 104.71 89.80 103.90 Z" />
</g>
<g id="#654b30f2">
<path fill="#654b30" opacity="0.95" d=" M 76.37 91.72 C 77.14 94.48 77.04 97.35 77.22 100.20 L 77.07 101.11 C 76.79 100.80 76.24 100.17 75.96 99.86 C 75.95 98.62 75.94 97.38 75.93 96.15 C 76.07 94.67 76.21 93.19 76.37 91.72 Z" />
</g>
<g id="#582e0dfa">
<path fill="#582e0d" opacity="0.98" d=" M 73.04 95.04 C 74.00 95.42 74.96 95.79 75.93 96.15 C 75.94 97.38 75.95 98.62 75.96 99.86 C 70.80 103.24 65.24 106.19 61.41 111.17 C 61.48 111.57 61.62 112.35 61.69 112.75 C 59.57 113.87 57.83 115.54 55.96 117.01 C 53.93 117.05 51.90 117.05 49.87 116.86 C 51.03 114.33 53.62 113.28 55.69 111.67 C 61.75 106.43 68.25 101.54 73.04 95.04 Z" />
</g>
<g id="#513d1cc9">
<path fill="#513d1c" opacity="0.79" d=" M 16.59 117.30 C 15.15 110.90 16.02 104.18 16.73 97.75 C 16.82 104.24 17.65 110.85 16.59 117.30 Z" />
</g>
<g id="#683c14fa">
<path fill="#683c14" opacity="0.98" d=" M 103.81 101.87 C 104.20 100.26 105.77 99.72 107.10 99.06 C 106.92 101.94 105.08 104.36 104.19 107.05 C 105.97 115.27 107.57 123.58 108.02 131.99 C 107.99 134.99 107.98 138.01 108.01 141.01 C 107.97 143.76 108.54 146.69 107.17 149.20 C 104.55 152.22 101.38 155.53 97.04 155.14 C 96.51 154.83 95.45 154.21 94.92 153.90 C 97.06 153.10 99.77 153.26 101.26 151.26 C 104.23 147.95 102.44 142.94 103.06 139.00 C 103.99 129.57 99.64 120.52 100.83 111.14 C 100.39 111.11 99.51 111.05 99.07 111.02 C 98.26 110.99 96.65 110.93 95.84 110.90 C 96.47 109.26 96.83 107.44 97.93 106.03 C 100.13 105.11 102.91 104.36 103.81 101.87 Z" />
</g>
<g id="#b39469ff">
<path fill="#b39469" opacity="1.00" d=" M 85.18 114.24 C 84.97 111.07 85.18 107.88 85.79 104.76 C 86.01 107.93 85.96 111.13 85.18 114.24 Z" />
</g>
<g id="#3c2f188d">
<path fill="#3c2f18" opacity="0.55" d=" M 88.94 108.78 C 89.62 109.57 90.31 110.35 91.00 111.14 C 90.20 112.30 89.41 113.48 88.68 114.69 L 88.01 115.11 C 88.01 113.47 88.03 111.83 88.10 110.20 C 88.31 109.84 88.73 109.13 88.94 108.78 Z" />
</g>
<g id="#b5966ef8">
<path fill="#b5966e" opacity="0.97" d=" M 10.46 109.85 C 10.53 111.95 10.55 114.06 10.50 116.17 C 10.09 114.51 9.16 112.95 9.13 111.21 C 9.46 110.87 10.12 110.19 10.46 109.85 Z" />
</g>
<g id="#96602bfc">
<path fill="#96602b" opacity="1.00" d=" M 91.00 111.14 C 92.61 111.05 94.23 110.97 95.84 110.90 C 96.65 110.93 98.26 110.99 99.07 111.02 C 96.58 119.58 100.87 128.33 100.06 137.01 C 101.57 141.74 97.80 145.16 95.91 148.85 C 96.00 143.47 96.25 138.05 95.31 132.73 C 94.53 126.26 93.16 119.65 88.68 114.69 C 89.41 113.48 90.20 112.30 91.00 111.14 Z" />
</g>
<g id="#7b4b1ffe">
<path fill="#7b4b1f" opacity="1.00" d=" M 99.07 111.02 C 99.51 111.05 100.39 111.11 100.83 111.14 C 99.64 120.52 103.99 129.57 103.06 139.00 C 102.44 142.94 104.23 147.95 101.26 151.26 C 99.77 153.26 97.06 153.10 94.92 153.90 C 93.16 154.44 93.65 149.86 95.28 149.36 L 95.91 148.85 C 97.80 145.16 101.57 141.74 100.06 137.01 C 100.87 128.33 96.58 119.58 99.07 111.02 Z" />
</g>
<g id="#643915f9">
<path fill="#643915" opacity="0.98" d=" M 55.96 117.01 C 57.83 115.54 59.57 113.87 61.69 112.75 C 64.25 112.47 61.79 115.64 62.06 116.95 C 63.77 122.30 67.73 126.26 71.28 130.32 C 68.72 131.31 63.73 130.37 67.19 136.01 C 67.92 138.94 67.80 141.90 67.02 144.81 C 66.57 144.67 65.69 144.38 65.24 144.23 C 64.32 135.77 56.59 130.48 52.30 123.71 C 51.22 121.72 47.65 121.94 47.23 120.04 C 50.35 119.57 53.27 118.57 55.96 117.01 Z" />
</g>
<g id="#875324f9">
<path fill="#875324" opacity="0.98" d=" M 47.20 113.90 C 48.09 114.83 48.41 116.78 49.87 116.86 C 51.90 117.05 53.93 117.05 55.96 117.01 C 53.27 118.57 50.35 119.57 47.23 120.04 C 45.38 118.52 45.59 115.52 47.20 113.90 Z" />
</g>
<g id="#5a300ffc">
<path fill="#5a300f" opacity="1.00" d=" M 71.28 130.32 C 73.03 130.61 73.86 133.12 75.92 133.13 C 79.25 133.54 79.06 138.27 76.99 140.23 C 75.15 143.76 70.94 145.85 67.02 144.81 C 67.80 141.90 67.92 138.94 67.19 136.01 C 63.73 130.37 68.72 131.31 71.28 130.32 Z" />
</g>
<g id="#0705013a">
<path fill="#070501" opacity="0.23" d=" M 108.02 131.99 C 111.25 132.07 108.24 138.56 108.96 140.97 L 108.01 141.01 C 107.98 138.01 107.99 134.99 108.02 131.99 Z" />
</g>
<g id="#110b0545">
<path fill="#110b05" opacity="0.27" d=" M 95.31 132.73 C 96.25 138.05 96.00 143.47 95.91 148.85 L 95.28 149.36 C 94.99 143.83 94.62 138.24 95.31 132.73 Z" />
</g>
<g id="#6f431bf9">
<path fill="#6f431b" opacity="0.98" d=" M 67.02 144.81 C 70.94 145.85 75.15 143.76 76.99 140.23 C 77.65 142.72 79.71 145.06 78.80 147.76 C 76.49 150.98 72.55 152.05 68.77 152.27 C 68.07 150.93 68.34 148.91 67.00 148.04 C 65.70 147.25 64.32 146.61 62.95 145.96 C 63.40 145.08 64.17 144.51 65.24 144.23 C 65.69 144.38 66.57 144.67 67.02 144.81 Z" />
</g>
<g id="#8a6030f5">
<path fill="#8a6030" opacity="0.96" d=" M 55.95 146.05 C 57.70 146.03 61.20 145.98 62.95 145.96 C 64.32 146.61 65.70 147.25 67.00 148.04 C 67.02 149.35 66.99 150.66 66.92 151.98 C 62.32 154.69 62.43 150.89 61.15 148.78 C 61.04 150.14 60.96 151.50 60.90 152.87 C 57.68 153.65 54.38 153.88 51.09 154.10 C 51.98 153.32 53.01 152.73 53.97 152.05 C 56.00 151.11 60.37 151.41 59.95 148.28 C 59.51 148.18 58.64 147.98 58.20 147.88 C 57.64 147.66 56.51 147.23 55.95 147.02 L 55.95 146.05 Z" />
</g>
<g id="#d0b085fa">
<path fill="#d0b085" opacity="0.98" d=" M 41.87 151.90 C 44.78 147.32 51.10 146.89 55.95 147.02 C 56.51 147.23 57.64 147.66 58.20 147.88 C 56.64 149.11 55.16 150.44 53.97 152.05 C 53.01 152.73 51.98 153.32 51.09 154.10 C 49.55 156.15 50.12 153.13 49.85 152.08 C 47.19 152.07 44.53 152.01 41.87 151.90 Z" />
</g>
<g id="#a58967ff">
<path fill="#a58967" opacity="1.00" d=" M 58.20 147.88 C 58.64 147.98 59.51 148.18 59.95 148.28 C 60.37 151.41 56.00 151.11 53.97 152.05 C 55.16 150.44 56.64 149.11 58.20 147.88 Z" />
</g>
<g id="#513014f5">
<path fill="#513014" opacity="0.96" d=" M 67.00 148.04 C 68.34 148.91 68.07 150.93 68.77 152.27 C 69.82 155.26 62.79 152.35 60.90 152.87 C 60.96 151.50 61.04 150.14 61.15 148.78 C 62.43 150.89 62.32 154.69 66.92 151.98 C 66.99 150.66 67.02 149.35 67.00 148.04 Z" />
</g>
<g id="#582f12f7">
<path fill="#582f12" opacity="0.97" d=" M 107.17 149.20 C 109.62 149.29 106.40 153.57 105.55 155.01 C 105.39 155.24 105.08 155.69 104.92 155.92 C 103.68 155.92 102.43 155.95 101.19 155.99 C 99.73 155.89 98.35 156.33 97.10 157.04 C 97.09 156.57 97.05 155.62 97.04 155.14 C 101.38 155.53 104.55 152.22 107.17 149.20 Z" />
</g>
<g id="#2719098b">
<path fill="#271909" opacity="0.55" d=" M 104.92 155.92 C 105.08 155.69 105.39 155.24 105.55 155.01 C 106.32 157.13 106.54 159.85 105.52 161.92 L 104.99 161.81 C 104.93 159.85 104.92 157.88 104.92 155.92 Z" />
</g>
<g id="#b37337fc">
<path fill="#b37337" opacity="1.00" d=" M 97.10 157.04 C 98.35 156.33 99.73 155.89 101.19 155.99 C 101.70 158.59 99.68 160.80 99.21 163.29 C 99.05 164.48 98.39 165.05 97.22 165.01 C 96.74 163.46 97.69 160.49 95.12 160.98 L 94.19 160.87 C 94.73 159.33 96.14 158.31 97.10 157.04 Z" />
</g>
<g id="#8c5d2dfe">
<path fill="#8c5d2d" opacity="1.00" d=" M 101.19 155.99 C 102.43 155.95 103.68 155.92 104.92 155.92 C 104.92 157.88 104.93 159.85 104.99 161.81 C 103.14 161.27 101.42 161.67 99.95 162.88 L 99.21 163.29 C 99.68 160.80 101.70 158.59 101.19 155.99 Z" />
</g>
<g id="#cbae89f1">
<path fill="#cbae89" opacity="0.95" d=" M 86.98 169.03 C 86.60 164.87 90.19 161.28 94.19 160.87 C 92.73 162.33 91.05 163.69 90.71 165.87 C 90.47 166.35 89.97 167.30 89.73 167.78 C 89.13 168.82 88.22 169.23 86.98 169.03 Z" />
</g>
<g id="#a58a64fa">
<path fill="#a58a64" opacity="0.98" d=" M 94.19 160.87 L 95.12 160.98 L 95.37 161.81 C 94.46 163.87 92.92 165.33 90.71 165.87 C 91.05 163.69 92.73 162.33 94.19 160.87 Z" />
</g>
<g id="#613f1eff">
<path fill="#613f1e" opacity="1.00" d=" M 95.12 160.98 C 97.69 160.49 96.74 163.46 97.22 165.01 C 98.39 165.05 99.05 164.48 99.21 163.29 L 99.95 162.88 C 99.97 164.22 99.99 165.56 100.03 166.90 C 98.72 167.02 97.40 167.01 96.09 166.87 C 95.97 165.17 95.93 163.44 95.37 161.81 L 95.12 160.98 Z" />
</g>
<g id="#c5ab8bfa">
<path fill="#c5ab8b" opacity="0.98" d=" M 99.95 162.88 C 101.42 161.67 103.14 161.27 104.99 161.81 L 105.52 161.92 C 106.84 164.46 109.22 166.59 108.05 169.97 C 105.60 168.29 102.49 168.38 100.03 166.90 C 99.99 165.56 99.97 164.22 99.95 162.88 Z" />
</g>
<g id="#81653bf5">
<path fill="#81653b" opacity="0.96" d=" M 95.37 161.81 C 95.93 163.44 95.97 165.17 96.09 166.87 C 94.42 168.61 91.84 167.95 89.73 167.78 C 89.97 167.30 90.47 166.35 90.71 165.87 C 92.92 165.33 94.46 163.87 95.37 161.81 Z" />
</g>
<g id="#cecce3e6">
<path fill="#cecce3" opacity="0.90" d=" M 83.96 178.97 C 87.76 178.06 87.93 182.59 89.28 185.00 L 85.15 185.00 C 84.73 182.99 84.17 181.01 83.96 178.97 Z" />
</g>
</svg>
