<?xml version="1.0" encoding="UTF-8" ?>
<!DOCTYPE svg PUBLIC "-//W3C//DTD SVG 1.1//EN" "http://www.w3.org/Graphics/SVG/1.1/DTD/svg11.dtd">
<svg width="250pt" height="116pt" viewBox="0 0 250 116" version="1.1" xmlns="http://www.w3.org/2000/svg">
<g id="#ffffffff">
<path fill="#ffffff" opacity="1.00" d=" M 196.59 1.46 C 199.35 -0.93 203.02 0.74 205.97 1.79 C 206.67 3.04 207.38 4.29 208.11 5.52 L 206.80 6.15 C 205.45 4.82 204.19 3.40 202.93 2.00 C 202.02 2.92 201.11 3.83 200.21 4.75 C 199.12 3.78 197.36 0.34 195.90 2.88 C 195.33 4.05 194.91 5.29 194.47 6.52 C 194.08 6.53 193.32 6.56 192.94 6.58 L 192.27 5.75 C 190.84 3.68 187.80 5.10 185.73 4.97 C 189.44 4.09 193.53 4.01 196.59 1.46 Z" />
<path fill="#ffffff" opacity="1.00" d=" M 93.65 26.43 C 95.62 26.09 97.61 25.74 99.44 24.91 C 102.37 24.63 105.33 24.76 108.24 25.19 C 108.57 25.11 109.21 24.95 109.54 24.87 C 111.12 26.54 112.97 27.93 115.01 29.00 C 115.09 30.43 115.21 31.85 115.37 33.28 C 113.99 33.85 112.62 34.43 111.25 34.99 C 111.21 33.03 110.78 31.12 110.42 29.20 C 109.53 29.87 108.61 30.49 107.81 31.25 C 105.89 27.16 101.34 30.35 98.62 31.67 C 96.24 32.46 95.94 35.08 95.24 37.12 C 94.08 36.02 92.91 34.92 91.73 33.84 C 91.53 32.62 91.34 31.40 91.18 30.17 C 91.95 28.89 92.83 27.68 93.65 26.43 Z" />
<path fill="#ffffff" opacity="1.00" d=" M 109.24 30.64 C 111.73 31.07 111.20 34.50 109.95 35.93 C 109.36 36.17 108.19 36.63 107.61 36.86 C 106.86 34.64 107.25 32.09 109.24 30.64 Z" />
</g>
<g id="#979ac0ff">
<path fill="#979ac0" opacity="1.00" d=" M 200.21 4.75 C 201.11 3.83 202.02 2.92 202.93 2.00 C 204.19 3.40 205.45 4.82 206.80 6.15 C 209.51 8.22 212.58 9.81 215.08 12.16 C 213.10 11.51 211.10 10.89 209.14 10.19 C 206.09 8.81 203.25 6.83 199.93 6.18 C 198.10 6.13 196.29 6.38 194.47 6.52 C 194.91 5.29 195.33 4.05 195.90 2.88 C 197.36 0.34 199.12 3.78 200.21 4.75 Z" />
</g>
<g id="#dad4eaff">
<path fill="#dad4ea" opacity="1.00" d=" M 7.04 8.12 C 10.12 6.00 13.35 3.94 16.93 2.80 C 19.89 2.64 22.59 3.97 25.38 4.70 C 37.55 7.10 49.93 8.47 62.00 11.38 C 69.14 13.29 76.54 15.74 81.84 21.15 C 84.85 24.27 88.35 26.87 91.18 30.17 C 91.34 31.40 91.53 32.62 91.73 33.84 C 92.91 34.92 94.08 36.02 95.24 37.12 C 95.94 35.08 96.24 32.46 98.62 31.67 C 101.34 30.35 105.89 27.16 107.81 31.25 C 106.31 33.15 105.04 35.32 103.09 36.79 C 102.07 36.26 101.06 35.72 100.07 35.16 C 102.70 38.41 107.01 36.72 110.56 37.26 C 110.80 36.51 111.03 35.75 111.25 34.99 C 112.62 34.43 113.99 33.85 115.37 33.28 C 115.82 35.11 117.59 35.90 118.84 37.10 C 119.24 38.41 119.47 39.76 119.66 41.12 C 119.41 41.15 118.90 41.22 118.65 41.26 C 119.38 44.95 118.21 48.54 115.24 50.91 C 115.60 49.05 115.97 47.20 116.33 45.34 C 114.53 45.99 112.85 46.93 111.65 48.47 C 107.32 49.08 102.89 47.84 98.61 48.99 C 96.21 49.49 94.18 50.97 92.24 52.38 C 92.07 52.52 91.74 52.80 91.57 52.94 L 90.55 53.78 C 88.89 51.95 87.15 50.19 85.31 48.53 C 85.06 46.10 85.55 43.72 86.69 41.58 C 87.80 39.36 89.14 37.28 90.61 35.29 C 83.65 30.19 79.77 21.16 71.11 18.48 C 69.94 18.46 68.77 18.45 67.61 18.44 C 66.36 17.43 65.21 16.19 63.64 15.69 C 54.92 13.01 45.80 12.07 36.92 10.08 C 34.11 9.42 31.21 9.29 28.34 9.33 L 28.48 8.46 C 27.36 7.93 26.22 7.44 25.08 6.96 C 24.18 7.82 23.29 8.74 22.09 9.18 C 21.40 7.48 20.71 5.78 20.04 4.07 C 17.93 5.09 15.86 6.19 13.78 7.28 C 11.77 8.12 9.79 9.02 7.72 9.70 C 6.31 10.61 5.76 8.60 7.04 8.12 M 93.36 40.22 C 92.10 40.71 90.93 42.47 91.50 43.80 C 93.28 44.71 95.33 40.91 93.36 40.22 M 88.14 42.23 C 88.68 42.74 88.68 42.74 88.14 42.23 Z" />
</g>
<g id="#9797baff">
<path fill="#9797ba" opacity="1.00" d=" M 13.78 7.28 C 15.86 6.19 17.93 5.09 20.04 4.07 C 20.71 5.78 21.40 7.48 22.09 9.18 L 21.48 9.45 C 19.62 9.89 17.92 10.76 16.42 11.94 C 15.90 11.67 14.86 11.14 14.34 10.88 C 14.42 10.20 14.57 8.84 14.64 8.16 C 14.92 7.92 15.46 7.45 15.74 7.21 C 15.25 7.23 14.27 7.27 13.78 7.28 Z" />
</g>
<g id="#c2c1d9ff">
<path fill="#c2c1d9" opacity="1.00" d=" M 147.12 17.08 C 158.83 9.96 172.54 7.78 185.73 4.97 C 187.80 5.10 190.84 3.68 192.27 5.75 C 187.01 7.88 181.76 10.20 176.10 11.04 C 171.03 12.36 165.66 13.08 160.99 15.58 C 160.46 15.94 159.40 16.67 158.87 17.03 C 155.11 15.52 150.93 16.04 147.12 17.08 Z" />
</g>
<g id="#7b6bb2ff">
<path fill="#7b6bb2" opacity="1.00" d=" M 176.10 11.04 C 181.76 10.20 187.01 7.88 192.27 5.75 L 192.94 6.58 C 193.32 6.56 194.08 6.53 194.47 6.52 C 196.29 6.38 198.10 6.13 199.93 6.18 C 203.25 6.83 206.09 8.81 209.14 10.19 C 203.54 8.62 197.78 10.03 192.14 10.41 C 185.36 11.91 178.76 14.15 171.98 15.68 C 169.41 16.11 166.83 16.52 164.36 17.37 C 163.23 16.78 162.11 16.18 160.99 15.58 C 165.66 13.08 171.03 12.36 176.10 11.04 Z" />
</g>
<g id="#c3c1d9ff">
<path fill="#c3c1d9" opacity="1.00" d=" M 206.80 6.15 L 208.11 5.52 C 213.42 7.10 218.05 10.22 222.50 13.43 C 229.15 17.32 233.11 24.20 238.28 29.71 C 243.01 34.56 245.87 40.75 249.57 46.34 L 250.00 45.08 L 250.00 46.84 C 246.33 46.01 245.37 41.77 243.29 39.12 C 239.56 32.92 233.83 28.33 228.93 23.11 C 224.95 18.70 219.65 15.87 215.08 12.16 C 212.58 9.81 209.51 8.22 206.80 6.15 Z" />
</g>
<g id="#8169a6ff">
<path fill="#8169a6" opacity="1.00" d=" M 22.09 9.18 C 23.29 8.74 24.18 7.82 25.08 6.96 C 26.22 7.44 27.36 7.93 28.48 8.46 L 28.34 9.33 C 25.85 11.76 22.33 12.33 19.13 13.28 C 23.36 17.94 29.85 18.84 35.23 21.59 C 39.62 23.99 45.09 21.78 49.26 24.74 C 40.95 24.71 31.90 23.89 24.30 27.88 C 20.56 26.69 16.97 25.14 13.42 23.49 C 13.03 21.86 12.64 20.23 12.25 18.60 C 14.76 15.02 18.36 12.46 21.48 9.45 L 22.09 9.18 Z" />
</g>
<g id="#a9a9c9ff">
<path fill="#a9a9c9" opacity="1.00" d=" M 5.01 20.28 C 7.50 15.75 10.60 11.44 14.64 8.16 C 14.57 8.84 14.42 10.20 14.34 10.88 C 14.86 11.14 15.90 11.67 16.42 11.94 C 11.40 15.66 7.78 21.30 6.58 27.44 C 5.51 32.39 3.98 37.25 3.53 42.32 C 2.86 44.89 2.66 47.55 2.26 50.17 C 1.89 50.39 1.15 50.84 0.79 51.06 C 0.81 45.65 0.92 40.22 1.86 34.88 C 2.84 30.00 3.75 25.10 5.01 20.28 Z" />
</g>
<g id="#725c8eff">
<path fill="#725c8e" opacity="1.00" d=" M 16.42 11.94 C 17.92 10.76 19.62 9.89 21.48 9.45 C 18.36 12.46 14.76 15.02 12.25 18.60 C 10.10 21.38 8.84 24.70 8.01 28.08 C 6.97 32.39 5.36 36.55 4.64 40.93 L 5.78 40.90 C 5.22 41.25 4.09 41.96 3.53 42.32 C 3.98 37.25 5.51 32.39 6.58 27.44 C 7.78 21.30 11.40 15.66 16.42 11.94 Z" />
<path fill="#725c8e" opacity="1.00" d=" M 137.78 34.79 C 141.43 35.49 142.21 39.61 143.63 42.45 C 142.64 43.73 141.73 45.10 141.51 46.75 C 139.31 48.72 136.88 50.43 134.31 51.89 C 132.73 49.78 130.48 47.57 131.27 44.66 C 131.29 41.89 134.35 41.09 136.07 39.52 C 137.04 38.13 137.26 36.37 137.78 34.79 Z" />
</g>
<g id="#7561a0ff">
<path fill="#7561a0" opacity="1.00" d=" M 192.14 10.41 C 197.78 10.03 203.54 8.62 209.14 10.19 C 211.10 10.89 213.10 11.51 215.08 12.16 C 219.65 15.87 224.95 18.70 228.93 23.11 C 233.83 28.33 239.56 32.92 243.29 39.12 C 235.65 35.05 229.50 28.32 221.09 25.74 C 210.60 21.25 198.23 20.42 187.50 24.63 C 183.22 23.73 178.52 24.61 174.57 22.41 C 171.95 21.10 168.94 21.15 166.11 20.72 C 168.61 19.76 170.54 17.91 171.98 15.68 C 178.76 14.15 185.36 11.91 192.14 10.41 Z" />
</g>
<g id="#7562a1ff">
<path fill="#7562a1" opacity="1.00" d=" M 19.13 13.28 C 22.33 12.33 25.85 11.76 28.34 9.33 C 31.21 9.29 34.11 9.42 36.92 10.08 C 45.80 12.07 54.92 13.01 63.64 15.69 C 65.21 16.19 66.36 17.43 67.61 18.44 C 68.77 18.45 69.94 18.46 71.11 18.48 C 70.40 19.34 69.69 20.20 68.98 21.06 C 71.19 26.80 74.55 32.34 74.69 38.65 C 69.08 30.10 58.80 26.68 49.26 24.74 C 45.09 21.78 39.62 23.99 35.23 21.59 C 29.85 18.84 23.36 17.94 19.13 13.28 Z" />
</g>
<g id="#dbd6eeff">
<path fill="#dbd6ee" opacity="1.00" d=" M 109.54 24.87 C 113.36 22.15 116.80 18.95 120.63 16.25 C 118.83 20.53 116.42 24.56 115.01 29.00 C 112.97 27.93 111.12 26.54 109.54 24.87 Z" />
</g>
<g id="#bbbad1ff">
<path fill="#bbbad1" opacity="1.00" d=" M 147.12 17.08 C 150.93 16.04 155.11 15.52 158.87 17.03 L 159.51 17.99 C 159.03 18.14 158.07 18.44 157.59 18.59 C 157.36 18.66 156.90 18.80 156.67 18.87 C 155.95 18.57 154.52 17.99 153.80 17.69 C 148.17 20.28 143.53 24.51 139.19 28.84 C 135.91 30.11 133.73 32.91 131.11 35.09 C 130.09 36.30 128.60 35.63 127.33 35.36 C 133.05 28.41 139.58 22.03 147.12 17.08 Z" />
</g>
<g id="#7c659cff">
<path fill="#7c659c" opacity="1.00" d=" M 158.87 17.03 C 159.40 16.67 160.46 15.94 160.99 15.58 C 162.11 16.18 163.23 16.78 164.36 17.37 C 166.83 16.52 169.41 16.11 171.98 15.68 C 170.54 17.91 168.61 19.76 166.11 20.72 C 168.94 21.15 171.95 21.10 174.57 22.41 C 178.52 24.61 183.22 23.73 187.50 24.63 C 184.16 26.40 180.87 28.40 178.18 31.10 C 175.85 33.67 174.31 36.83 172.51 39.77 C 161.76 37.06 150.16 39.92 141.51 46.75 C 141.73 45.10 142.64 43.73 143.63 42.45 C 142.21 39.61 141.43 35.49 137.78 34.79 C 137.26 36.37 137.04 38.13 136.07 39.52 C 134.35 41.09 131.29 41.89 131.27 44.66 C 130.48 47.57 132.73 49.78 134.31 51.89 C 133.30 52.42 132.27 52.91 131.23 53.36 L 130.66 53.14 C 130.81 50.88 129.00 49.69 127.33 48.59 C 128.17 46.23 130.22 43.94 129.52 41.32 C 131.94 37.34 135.06 33.87 138.12 30.39 C 140.69 30.84 142.08 28.13 143.87 26.83 C 147.41 23.13 152.02 20.83 156.67 18.87 C 156.90 18.80 157.36 18.66 157.59 18.59 C 161.81 24.32 165.33 30.55 169.87 36.04 C 167.82 29.30 162.96 24.00 159.51 17.99 L 158.87 17.03 Z" />
</g>
<g id="#ece6f8ff">
<path fill="#ece6f8" opacity="1.00" d=" M 95.23 16.45 C 97.07 19.04 98.15 22.04 99.44 24.91 C 97.61 25.74 95.62 26.09 93.65 26.43 C 94.32 23.12 94.64 19.77 95.23 16.45 Z" />
</g>
<g id="#6c5d8bff">
<path fill="#6c5d8b" opacity="1.00" d=" M 139.19 28.84 C 143.53 24.51 148.17 20.28 153.80 17.69 C 154.52 17.99 155.95 18.57 156.67 18.87 C 152.02 20.83 147.41 23.13 143.87 26.83 C 142.08 28.13 140.69 30.84 138.12 30.39 L 139.19 28.84 Z" />
</g>
<g id="#695587ff">
<path fill="#695587" opacity="1.00" d=" M 159.51 17.99 C 162.96 24.00 167.82 29.30 169.87 36.04 C 165.33 30.55 161.81 24.32 157.59 18.59 C 158.07 18.44 159.03 18.14 159.51 17.99 Z" />
</g>
<g id="#8a70aeff">
<path fill="#8a70ae" opacity="1.00" d=" M 12.25 18.60 C 12.64 20.23 13.03 21.86 13.42 23.49 C 16.97 25.14 20.56 26.69 24.30 27.88 C 16.88 30.26 11.74 36.25 5.78 40.90 L 4.64 40.93 C 5.36 36.55 6.97 32.39 8.01 28.08 C 8.84 24.70 10.10 21.38 12.25 18.60 Z" />
</g>
<g id="#6b5b99ff">
<path fill="#6b5b99" opacity="1.00" d=" M 71.11 18.48 C 79.77 21.16 83.65 30.19 90.61 35.29 C 89.14 37.28 87.80 39.36 86.69 41.58 C 83.51 40.57 80.35 41.44 77.22 42.10 C 76.27 41.03 75.48 39.83 74.69 38.65 C 74.55 32.34 71.19 26.80 68.98 21.06 C 69.69 20.20 70.40 19.34 71.11 18.48 Z" />
</g>
<g id="#3a1e28ff">
<path fill="#3a1e28" opacity="1.00" d=" M 107.81 31.25 C 108.61 30.49 109.53 29.87 110.42 29.20 C 110.78 31.12 111.21 33.03 111.25 34.99 C 111.03 35.75 110.80 36.51 110.56 37.26 C 107.01 36.72 102.70 38.41 100.07 35.16 C 101.06 35.72 102.07 36.26 103.09 36.79 C 105.04 35.32 106.31 33.15 107.81 31.25 M 109.24 30.64 C 107.25 32.09 106.86 34.64 107.61 36.86 C 108.19 36.63 109.36 36.17 109.95 35.93 C 111.20 34.50 111.73 31.07 109.24 30.64 Z" />
<path fill="#3a1e28" opacity="1.00" d=" M 98.61 48.99 C 102.89 47.84 107.32 49.08 111.65 48.47 C 112.17 48.41 113.20 48.30 113.72 48.24 C 110.55 50.74 108.94 54.72 105.45 56.84 C 102.10 59.17 100.34 63.04 97.30 65.71 C 97.95 66.06 99.26 66.76 99.92 67.11 C 97.94 67.74 95.98 68.43 93.97 68.92 C 92.08 68.73 90.21 68.41 88.34 68.09 C 88.62 66.32 88.81 64.53 88.66 62.73 C 90.02 63.76 91.29 65.00 92.95 65.53 C 95.76 65.08 97.92 62.97 99.70 60.89 C 101.02 58.83 102.28 56.74 103.61 54.68 C 104.62 53.06 105.60 51.41 106.59 49.77 C 103.91 49.69 101.25 49.42 98.61 48.99 Z" />
</g>
<g id="#a2a0b8ff">
<path fill="#a2a0b8" opacity="1.00" d=" M 131.11 35.09 C 133.73 32.91 135.91 30.11 139.19 28.84 L 138.12 30.39 C 135.06 33.87 131.94 37.34 129.52 41.32 C 127.86 44.07 126.24 46.88 125.23 49.95 C 126.76 51.43 128.75 52.28 130.66 53.14 L 131.23 53.36 C 131.03 53.60 130.63 54.08 130.43 54.32 C 129.86 54.33 128.71 54.35 128.14 54.36 C 128.28 60.33 132.16 65.13 136.07 69.26 C 139.43 74.76 138.49 81.35 139.00 87.47 C 137.75 90.11 137.54 93.06 138.15 95.90 C 139.96 101.66 144.03 106.97 142.69 113.37 C 141.37 111.25 141.27 107.91 138.52 107.11 C 138.50 110.06 138.60 113.01 138.57 115.97 L 136.81 115.33 C 134.50 109.44 134.45 103.01 133.09 96.89 L 133.35 96.09 C 133.74 95.42 134.13 94.75 134.54 94.09 C 134.88 96.10 135.20 98.11 135.59 100.11 C 137.61 97.09 137.42 93.51 136.77 90.08 C 134.95 90.22 133.14 90.47 131.38 90.94 C 129.32 89.65 127.18 88.51 125.01 87.43 C 125.76 86.15 126.52 84.87 127.33 83.63 C 127.79 83.72 128.70 83.90 129.15 84.00 C 127.85 81.43 126.66 78.80 125.76 76.06 C 126.13 74.50 126.34 72.91 126.37 71.31 C 125.45 72.46 124.54 73.62 123.70 74.84 C 123.27 74.67 122.43 74.34 122.01 74.17 C 120.63 74.97 119.32 75.95 117.79 76.43 C 115.71 75.99 113.72 75.16 111.86 74.15 C 109.66 70.61 110.11 65.95 107.38 62.67 C 105.33 66.08 103.81 69.77 102.25 73.42 C 103.97 76.19 105.54 79.73 108.99 80.64 C 108.93 81.10 108.80 82.03 108.74 82.50 C 106.30 84.22 104.08 86.23 102.18 88.52 C 104.60 88.61 107.08 88.63 109.36 89.55 C 108.73 89.80 107.48 90.29 106.85 90.53 C 103.15 90.74 98.30 91.35 95.91 87.77 C 94.05 83.35 95.86 78.48 97.92 74.48 C 98.50 73.38 99.10 72.30 99.72 71.22 C 97.17 71.80 94.52 71.92 92.05 70.93 C 92.69 70.26 93.33 69.59 93.97 68.92 C 95.98 68.43 97.94 67.74 99.92 67.11 C 99.26 66.76 97.95 66.06 97.30 65.71 C 100.34 63.04 102.10 59.17 105.45 56.84 C 108.94 54.72 110.55 50.74 113.72 48.24 C 113.20 48.30 112.17 48.41 111.65 48.47 C 112.85 46.93 114.53 45.99 116.33 45.34 C 115.97 47.20 115.60 49.05 115.24 50.91 C 118.21 48.54 119.38 44.95 118.65 41.26 C 118.90 41.22 119.41 41.15 119.66 41.12 C 120.51 41.24 122.19 41.49 123.03 41.61 C 124.59 39.62 125.77 37.35 127.33 35.36 C 128.60 35.63 130.09 36.30 131.11 35.09 Z" />
</g>
<g id="#79798e9d">
<path fill="#79798e" opacity="0.62" d=" M 0.00 39.18 C 0.62 37.74 1.29 36.33 1.86 34.88 C 0.92 40.22 0.81 45.65 0.79 51.06 L 0.00 51.52 L 0.00 39.18 Z" />
</g>
<g id="#aeabbfff">
<path fill="#aeabbf" opacity="1.00" d=" M 93.36 40.22 C 95.33 40.91 93.28 44.71 91.50 43.80 C 90.93 42.47 92.10 40.71 93.36 40.22 Z" />
</g>
<g id="#a3a3b3ff">
<path fill="#a3a3b3" opacity="1.00" d=" M 88.14 42.23 C 88.68 42.74 88.68 42.74 88.14 42.23 Z" />
</g>
<g id="#6d5e7fff">
<path fill="#6d5e7f" opacity="1.00" d=" M 129.52 41.32 C 130.22 43.94 128.17 46.23 127.33 48.59 C 129.00 49.69 130.81 50.88 130.66 53.14 C 128.75 52.28 126.76 51.43 125.23 49.95 C 126.24 46.88 127.86 44.07 129.52 41.32 Z" />
</g>
<g id="#754958ff">
<path fill="#754958" opacity="1.00" d=" M 92.24 52.38 C 94.18 50.97 96.21 49.49 98.61 48.99 C 101.25 49.42 103.91 49.69 106.59 49.77 C 105.60 51.41 104.62 53.06 103.61 54.68 C 100.30 52.27 96.03 53.13 92.24 52.38 Z" />
</g>
<g id="#9b5e6cff">
<path fill="#9b5e6c" opacity="1.00" d=" M 91.57 52.94 C 91.74 52.80 92.07 52.52 92.24 52.38 C 96.03 53.13 100.30 52.27 103.61 54.68 C 102.28 56.74 101.02 58.83 99.70 60.89 C 97.49 59.41 95.01 58.37 92.33 58.23 C 91.62 57.38 90.93 56.52 90.25 55.65 C 90.62 54.72 91.06 53.81 91.57 52.94 Z" />
</g>
<g id="#dfd9ebff">
<path fill="#dfd9eb" opacity="1.00" d=" M 128.14 54.36 C 128.71 54.35 129.86 54.33 130.43 54.32 C 127.93 60.32 134.68 64.03 136.07 69.26 C 132.16 65.13 128.28 60.33 128.14 54.36 Z" />
<path fill="#dfd9eb" opacity="1.00" d=" M 138.15 95.90 C 137.54 93.06 137.75 90.11 139.00 87.47 C 141.32 92.30 143.84 97.11 144.93 102.42 C 144.02 101.25 143.05 100.13 142.07 99.02 C 140.61 98.19 139.26 97.16 138.15 95.90 Z" />
</g>
<g id="#c37383ff">
<path fill="#c37383" opacity="1.00" d=" M 89.35 54.48 C 89.58 54.77 90.02 55.36 90.25 55.65 C 90.93 56.52 91.62 57.38 92.33 58.23 C 95.01 58.37 97.49 59.41 99.70 60.89 C 97.92 62.97 95.76 65.08 92.95 65.53 C 91.29 65.00 90.02 63.76 88.66 62.73 C 88.50 61.39 88.29 60.05 88.12 58.70 C 88.51 57.29 88.94 55.89 89.35 54.48 Z" />
</g>
<g id="#9390afff">
<path fill="#9390af" opacity="1.00" d=" M 85.87 67.83 C 86.56 64.77 87.23 61.71 88.12 58.70 C 88.29 60.05 88.50 61.39 88.66 62.73 C 88.81 64.53 88.62 66.32 88.34 68.09 C 90.21 68.41 92.08 68.73 93.97 68.92 C 93.33 69.59 92.69 70.26 92.05 70.93 C 94.52 71.92 97.17 71.80 99.72 71.22 C 99.10 72.30 98.50 73.38 97.92 74.48 C 95.97 74.77 94.01 74.67 92.08 74.28 C 89.94 72.20 87.48 70.39 85.87 67.83 Z" />
</g>
<g id="#8687aaff">
<path fill="#8687aa" opacity="1.00" d=" M 107.38 62.67 C 110.11 65.95 109.66 70.61 111.86 74.15 C 113.72 75.16 115.71 75.99 117.79 76.43 C 119.32 75.95 120.63 74.97 122.01 74.17 C 122.43 74.34 123.27 74.67 123.70 74.84 C 123.20 76.57 122.94 78.36 122.92 80.17 C 125.41 80.60 125.12 77.67 125.76 76.06 C 126.66 78.80 127.85 81.43 129.15 84.00 C 128.70 83.90 127.79 83.72 127.33 83.63 C 126.46 82.87 125.63 82.06 124.72 81.35 C 122.21 81.27 119.78 82.17 117.53 83.20 C 117.21 83.35 116.58 83.65 116.26 83.80 L 116.12 82.88 C 115.57 82.63 114.48 82.13 113.93 81.88 C 112.35 81.24 110.68 80.81 108.99 80.64 C 105.54 79.73 103.97 76.19 102.25 73.42 C 103.81 69.77 105.33 66.08 107.38 62.67 Z" />
</g>
<g id="#6e7188ff">
<path fill="#6e7188" opacity="1.00" d=" M 123.70 74.84 C 124.54 73.62 125.45 72.46 126.37 71.31 C 126.34 72.91 126.13 74.50 125.76 76.06 C 125.12 77.67 125.41 80.60 122.92 80.17 C 122.94 78.36 123.20 76.57 123.70 74.84 Z" />
</g>
<g id="#8f98c4ff">
<path fill="#8f98c4" opacity="1.00" d=" M 117.53 83.20 C 119.78 82.17 122.21 81.27 124.72 81.35 C 125.63 82.06 126.46 82.87 127.33 83.63 C 126.52 84.87 125.76 86.15 125.01 87.43 C 122.42 86.18 119.93 84.76 117.53 83.20 Z" />
</g>
<g id="#bab6ccff">
<path fill="#bab6cc" opacity="1.00" d=" M 113.93 81.88 C 114.48 82.13 115.57 82.63 116.12 82.88 L 116.26 83.80 C 117.14 91.04 116.94 98.39 116.18 105.64 C 114.13 102.99 114.98 99.56 114.26 96.52 C 113.32 93.80 111.70 91.27 109.36 89.55 C 107.08 88.63 104.60 88.61 102.18 88.52 C 104.08 86.23 106.30 84.22 108.74 82.50 C 109.42 83.89 109.95 85.41 111.03 86.56 C 112.62 85.49 113.05 83.48 113.93 81.88 Z" />
</g>
<g id="#8182a0ff">
<path fill="#8182a0" opacity="1.00" d=" M 106.85 90.53 C 107.48 90.29 108.73 89.80 109.36 89.55 C 111.70 91.27 113.32 93.80 114.26 96.52 C 114.98 99.56 114.13 102.99 116.18 105.64 C 116.19 106.09 116.20 107.00 116.20 107.45 C 113.44 108.21 113.76 103.80 112.86 102.03 C 110.87 99.86 110.26 104.90 111.28 106.17 C 110.28 105.69 109.74 104.92 109.65 103.85 C 108.76 99.97 109.45 96.02 109.53 92.11 C 108.86 91.72 107.52 90.93 106.85 90.53 Z" />
</g>
<g id="#8385adff">
<path fill="#8385ad" opacity="1.00" d=" M 131.38 90.94 C 133.14 90.47 134.95 90.22 136.77 90.08 C 137.42 93.51 137.61 97.09 135.59 100.11 C 135.20 98.11 134.88 96.10 134.54 94.09 C 134.13 94.75 133.74 95.42 133.35 96.09 C 133.50 95.33 133.79 93.80 133.94 93.04 C 133.30 92.52 132.02 91.47 131.38 90.94 Z" />
</g>
<g id="#a9adceff">
<path fill="#a9adce" opacity="1.00" d=" M 138.15 95.90 C 139.26 97.16 140.61 98.19 142.07 99.02 C 143.05 100.13 144.02 101.25 144.93 102.42 C 145.39 103.30 145.85 104.17 146.33 105.05 C 143.44 105.87 143.54 108.82 144.28 111.23 C 144.50 111.89 144.94 113.22 145.16 113.89 L 143.05 114.09 L 142.69 113.37 C 144.03 106.97 139.96 101.66 138.15 95.90 Z" />
</g>
<g id="#a6a6bff8">
<path fill="#a6a6bf" opacity="0.97" d=" M 111.28 106.17 C 110.26 104.90 110.87 99.86 112.86 102.03 C 112.65 103.51 112.47 105.04 111.75 106.38 L 111.28 106.17 Z" />
</g>
<g id="#9797bfff">
<path fill="#9797bf" opacity="1.00" d=" M 146.33 105.05 C 148.10 104.74 149.89 104.48 151.68 104.22 C 150.23 107.63 148.73 111.03 147.64 114.57 C 146.52 113.45 145.41 112.33 144.28 111.23 C 143.54 108.82 143.44 105.87 146.33 105.05 Z" />
</g>
</svg>
