<?xml version="1.0" encoding="UTF-8" ?>
<!DOCTYPE svg PUBLIC "-//W3C//DTD SVG 1.1//EN" "http://www.w3.org/Graphics/SVG/1.1/DTD/svg11.dtd">
<svg width="255pt" height="204pt" viewBox="0 0 255 204" version="1.1" xmlns="http://www.w3.org/2000/svg">
<g id="#0a8eaaf9">
<path fill="#0a8eaa" opacity="0.98" d=" M 90.15 7.08 C 90.75 5.14 91.86 2.50 93.99 2.09 C 99.41 4.36 105.74 6.44 110.08 10.04 C 103.07 12.36 96.57 16.16 89.31 17.67 C 88.93 18.52 88.59 19.38 88.27 20.25 C 87.72 15.79 89.24 11.41 90.15 7.08 Z" />
</g>
<g id="#097f9efe">
<path fill="#097f9e" opacity="1.00" d=" M 154.33 4.68 C 154.42 3.26 162.11 0.94 161.11 4.07 C 158.64 8.19 155.65 11.94 152.30 15.36 C 153.39 19.50 153.68 28.11 147.14 27.01 C 143.91 22.99 140.19 19.34 135.62 16.89 C 137.63 16.47 139.68 16.18 141.67 15.66 C 144.15 11.77 148.17 9.38 152.03 7.06 C 152.89 6.32 155.31 6.27 154.33 4.68 Z" />
</g>
<g id="#086d8dff">
<path fill="#086d8d" opacity="1.00" d=" M 161.11 4.07 C 162.17 4.26 162.50 5.27 162.12 7.12 C 160.69 12.43 155.29 18.87 160.21 23.80 C 160.80 25.16 161.93 24.55 162.94 24.11 C 163.08 25.52 163.29 26.92 163.66 28.29 C 163.80 29.03 164.08 30.50 164.22 31.23 C 159.60 32.79 155.92 35.90 151.88 38.47 C 150.94 36.26 150.16 33.99 149.24 31.78 C 148.60 30.16 147.87 28.59 147.14 27.01 C 153.68 28.11 153.39 19.50 152.30 15.36 C 155.65 11.94 158.64 8.19 161.11 4.07 Z" />
</g>
<g id="#0b93b0fd">
<path fill="#0b93b0" opacity="1.00" d=" M 134.31 11.40 C 141.63 11.35 147.32 5.86 154.33 4.68 C 155.31 6.27 152.89 6.32 152.03 7.06 C 148.17 9.38 144.15 11.77 141.67 15.66 C 139.68 16.18 137.63 16.47 135.62 16.89 C 128.45 14.23 122.02 20.50 115.09 20.99 C 112.49 19.60 110.18 17.72 107.78 16.02 C 116.04 11.60 125.31 12.17 134.31 11.40 Z" />
</g>
<g id="#055c7efc">
<path fill="#055c7e" opacity="1.00" d=" M 162.12 7.12 C 164.00 6.48 162.57 9.95 163.02 11.00 C 162.97 15.37 162.98 19.74 162.94 24.11 C 161.93 24.55 160.80 25.16 160.21 23.80 C 155.29 18.87 160.69 12.43 162.12 7.12 Z" />
</g>
<g id="#15b6cdfd">
<path fill="#15b6cd" opacity="1.00" d=" M 89.31 17.67 C 96.57 16.16 103.07 12.36 110.08 10.04 C 112.71 10.46 115.32 10.89 117.99 11.00 C 122.67 11.11 127.36 10.96 132.05 11.04 C 132.61 11.13 133.74 11.31 134.31 11.40 C 125.31 12.17 116.04 11.60 107.78 16.02 C 106.42 16.29 101.01 15.22 104.19 17.18 C 100.27 19.15 95.75 20.36 92.69 23.68 C 88.12 27.73 86.22 33.80 83.68 39.16 C 83.49 38.64 83.11 37.60 82.92 37.07 C 82.57 30.93 87.79 26.25 88.27 20.25 C 88.59 19.38 88.93 18.52 89.31 17.67 Z" />
</g>
<g id="#042e3379">
<path fill="#042e33" opacity="0.47" d=" M 118.00 10.02 C 122.65 10.01 127.32 9.84 131.97 10.06 L 132.05 11.04 C 127.36 10.96 122.67 11.11 117.99 11.00 L 118.00 10.02 Z" />
</g>
<g id="#000f1664">
<path fill="#000f16" opacity="0.39" d=" M 163.02 11.00 L 163.99 11.00 C 163.91 16.75 164.40 22.57 163.66 28.29 C 163.29 26.92 163.08 25.52 162.94 24.11 C 162.98 19.74 162.97 15.37 163.02 11.00 Z" />
</g>
<g id="#326c76ff">
<path fill="#326c76" opacity="1.00" d=" M 104.19 17.18 C 101.01 15.22 106.42 16.29 107.78 16.02 C 110.18 17.72 112.49 19.60 115.09 20.99 C 122.02 20.50 128.45 14.23 135.62 16.89 C 140.19 19.34 143.91 22.99 147.14 27.01 C 147.87 28.59 148.60 30.16 149.24 31.78 C 149.20 32.34 149.14 33.45 149.10 34.00 L 148.20 33.86 C 147.91 33.31 147.33 32.22 147.04 31.67 C 145.80 28.88 144.81 25.85 142.39 23.82 C 139.49 20.44 135.38 18.27 131.08 17.27 C 125.65 18.92 120.60 21.77 115.06 23.00 C 111.12 21.66 108.63 16.91 104.19 17.18 Z" />
</g>
<g id="#fcfcf2ff">
<path fill="#fcfcf2" opacity="1.00" d=" M 104.19 17.18 C 108.63 16.91 111.12 21.66 115.06 23.00 C 120.60 21.77 125.65 18.92 131.08 17.27 C 135.38 18.27 139.49 20.44 142.39 23.82 C 142.94 27.79 137.28 27.05 137.83 30.91 C 132.36 31.15 125.73 27.34 120.82 30.76 C 124.54 31.68 128.38 31.94 132.21 32.15 C 124.92 33.46 117.64 35.46 111.14 39.06 C 111.34 39.53 111.76 40.47 111.96 40.94 C 110.28 40.94 106.91 40.96 105.23 40.97 C 104.77 39.62 104.27 38.29 103.74 36.96 C 101.59 38.49 99.07 41.36 100.92 44.02 C 95.76 47.31 87.97 46.18 84.01 51.16 C 84.02 47.70 84.02 44.23 83.74 40.78 C 83.72 40.37 83.69 39.56 83.68 39.16 C 86.22 33.80 88.12 27.73 92.69 23.68 C 95.75 20.36 100.27 19.15 104.19 17.18 M 96.34 29.42 C 94.68 29.88 92.43 30.01 91.91 32.01 C 96.25 31.50 100.59 30.90 104.98 30.90 C 105.96 26.41 97.81 30.81 96.34 29.42 Z" />
</g>
<g id="#f8efdeff">
<path fill="#f8efde" opacity="1.00" d=" M 142.39 23.82 C 144.81 25.85 145.80 28.88 147.04 31.67 C 139.91 36.55 131.24 38.38 124.06 43.00 C 122.94 41.31 123.01 37.30 120.21 38.11 C 119.38 39.23 118.73 40.47 118.06 41.69 L 117.28 41.59 C 115.53 41.23 113.75 41.05 111.96 40.94 C 111.76 40.47 111.34 39.53 111.14 39.06 C 117.64 35.46 124.92 33.46 132.21 32.15 C 134.50 32.09 136.72 32.71 138.96 33.06 C 138.68 32.52 138.11 31.45 137.83 30.91 C 137.28 27.05 142.94 27.79 142.39 23.82 Z" />
</g>
<g id="#68645dff">
<path fill="#68645d" opacity="1.00" d=" M 96.34 29.42 C 97.81 30.81 105.96 26.41 104.98 30.90 C 100.59 30.90 96.25 31.50 91.91 32.01 C 92.43 30.01 94.68 29.88 96.34 29.42 Z" />
</g>
<g id="#6f6d65ff">
<path fill="#6f6d65" opacity="1.00" d=" M 120.82 30.76 C 125.73 27.34 132.36 31.15 137.83 30.91 C 138.11 31.45 138.68 32.52 138.96 33.06 C 136.72 32.71 134.50 32.09 132.21 32.15 C 128.38 31.94 124.54 31.68 120.82 30.76 Z" />
</g>
<g id="#065a7afd">
<path fill="#065a7a" opacity="1.00" d=" M 164.22 31.23 L 164.85 30.97 C 165.10 34.01 166.30 36.92 166.04 40.00 C 165.98 42.07 165.89 44.15 165.81 46.22 C 165.20 44.46 164.86 42.57 163.85 40.97 C 159.57 41.89 156.67 45.82 153.00 48.04 C 152.72 44.83 152.33 41.65 151.88 38.47 C 155.92 35.90 159.60 32.79 164.22 31.23 Z" />
</g>
<g id="#eee1d0ff">
<path fill="#eee1d0" opacity="1.00" d=" M 124.06 43.00 C 131.24 38.38 139.91 36.55 147.04 31.67 C 147.33 32.22 147.91 33.31 148.20 33.86 C 148.15 34.35 148.05 35.32 148.00 35.81 C 129.88 45.54 110.48 53.19 90.30 57.36 C 87.95 58.44 87.82 60.97 87.73 63.23 C 86.44 61.85 85.42 60.18 85.08 58.29 C 87.47 56.62 89.11 53.94 92.24 53.36 C 102.20 50.75 111.22 44.97 121.76 44.71 C 122.07 44.53 122.70 44.19 123.01 44.01 C 123.27 43.76 123.80 43.25 124.06 43.00 Z" />
</g>
<g id="#1a404fff">
<path fill="#1a404f" opacity="1.00" d=" M 149.24 31.78 C 150.16 33.99 150.94 36.26 151.88 38.47 C 152.33 41.65 152.72 44.83 153.00 48.04 C 152.39 50.66 152.06 53.33 151.55 55.97 C 150.61 60.52 148.61 64.73 146.79 68.98 L 145.81 68.97 C 146.65 65.24 148.51 61.82 149.21 58.03 C 149.59 56.74 149.94 55.43 150.21 54.10 C 150.97 49.43 151.89 44.35 150.33 39.73 C 150.01 38.74 149.66 37.75 149.30 36.78 C 149.25 36.08 149.15 34.69 149.10 34.00 C 149.14 33.45 149.20 32.34 149.24 31.78 Z" />
</g>
<g id="#d9cec0ff">
<path fill="#d9cec0" opacity="1.00" d=" M 148.20 33.86 L 149.10 34.00 C 149.15 34.69 149.25 36.08 149.30 36.78 C 148.84 39.18 149.76 42.52 145.97 43.02 C 136.18 49.41 124.99 53.12 114.04 56.96 C 106.83 59.44 98.80 59.61 91.99 63.15 C 92.46 65.17 93.39 67.03 94.10 68.97 C 91.23 67.72 89.36 64.34 90.14 61.25 C 97.55 58.00 105.73 57.07 113.31 54.32 C 125.12 49.60 137.63 45.79 147.77 37.83 C 147.83 37.33 147.94 36.32 148.00 35.81 C 148.05 35.32 148.15 34.35 148.20 33.86 Z" />
</g>
<g id="#e5d7c5ff">
<path fill="#e5d7c5" opacity="1.00" d=" M 90.30 57.36 C 110.48 53.19 129.88 45.54 148.00 35.81 C 147.94 36.32 147.83 37.33 147.77 37.83 C 137.63 45.79 125.12 49.60 113.31 54.32 C 105.73 57.07 97.55 58.00 90.14 61.25 C 89.36 64.34 91.23 67.72 94.10 68.97 C 95.26 69.58 96.51 69.97 97.75 70.40 C 98.25 70.61 99.26 71.03 99.76 71.23 C 113.80 75.07 128.98 74.60 143.26 73.26 C 145.22 73.07 147.19 72.99 149.16 72.95 L 150.06 72.97 C 150.24 73.50 150.59 74.55 150.77 75.08 C 131.69 74.19 112.09 77.37 93.54 71.42 C 91.93 70.30 90.47 68.99 89.07 67.63 C 88.74 66.13 88.27 64.67 87.73 63.23 C 87.82 60.97 87.95 58.44 90.30 57.36 Z" />
</g>
<g id="#197a88f4">
<path fill="#197a88" opacity="0.96" d=" M 81.99 42.00 C 82.46 40.61 80.93 36.81 82.92 37.07 C 83.11 37.60 83.49 38.64 83.68 39.16 C 83.69 39.56 83.72 40.37 83.74 40.78 C 83.34 44.86 82.19 49.25 83.63 53.26 C 84.09 54.94 84.62 56.61 85.08 58.29 C 85.42 60.18 86.44 61.85 87.73 63.23 C 88.27 64.67 88.74 66.13 89.07 67.63 C 88.55 67.93 87.50 68.54 86.98 68.84 C 86.69 69.05 86.11 69.46 85.81 69.67 C 85.01 70.22 84.21 70.77 83.40 71.31 C 83.31 69.03 84.78 65.95 82.42 64.58 C 83.12 63.19 84.91 61.36 82.02 61.96 C 82.49 61.65 83.44 61.02 83.92 60.71 C 83.95 57.04 81.20 53.82 81.98 50.00 C 82.02 47.33 82.03 44.67 81.99 42.00 Z" />
</g>
<g id="#b1aca0ff">
<path fill="#b1aca0" opacity="1.00" d=" M 100.92 44.02 C 99.07 41.36 101.59 38.49 103.74 36.96 C 104.27 38.29 104.77 39.62 105.23 40.97 L 104.77 41.75 C 101.81 44.96 108.95 42.58 111.00 43.03 L 111.00 44.00 C 107.63 44.02 104.28 43.99 100.92 44.02 Z" />
</g>
<g id="#cfc4b8ff">
<path fill="#cfc4b8" opacity="1.00" d=" M 149.30 36.78 C 149.66 37.75 150.01 38.74 150.33 39.73 C 150.26 40.53 150.10 42.13 150.02 42.92 C 134.41 54.93 114.71 59.43 95.98 64.10 C 95.62 66.40 96.74 68.43 97.75 70.40 C 96.51 69.97 95.26 69.58 94.10 68.97 C 93.39 67.03 92.46 65.17 91.99 63.15 C 98.80 59.61 106.83 59.44 114.04 56.96 C 124.99 53.12 136.18 49.41 145.97 43.02 C 149.76 42.52 148.84 39.18 149.30 36.78 Z" />
</g>
<g id="#9e988fff">
<path fill="#9e988f" opacity="1.00" d=" M 120.21 38.11 C 123.01 37.30 122.94 41.31 124.06 43.00 C 123.80 43.25 123.27 43.76 123.01 44.01 C 119.00 44.04 115.00 44.04 111.00 44.00 L 111.00 43.03 C 113.66 43.05 116.33 43.03 119.00 42.98 C 118.76 42.65 118.30 42.01 118.06 41.69 C 118.73 40.47 119.38 39.23 120.21 38.11 Z" />
</g>
<g id="#748185ff">
<path fill="#748185" opacity="1.00" d=" M 150.33 39.73 C 151.89 44.35 150.97 49.43 150.21 54.10 C 150.16 53.30 150.06 51.70 150.02 50.90 C 150.00 50.40 149.98 49.41 149.97 48.92 C 149.96 48.15 149.95 46.63 149.94 45.87 C 149.96 45.13 150.00 43.66 150.02 42.92 C 150.10 42.13 150.26 40.53 150.33 39.73 Z" />
</g>
<g id="#000c1263">
<path fill="#000c12" opacity="0.39" d=" M 166.04 40.00 L 167.01 40.00 C 166.77 42.50 166.29 47.50 166.04 50.00 C 165.97 48.74 165.90 47.48 165.81 46.22 C 165.89 44.15 165.98 42.07 166.04 40.00 Z" />
</g>
<g id="#b7c3b7ff">
<path fill="#b7c3b7" opacity="1.00" d=" M 83.63 53.26 C 82.19 49.25 83.34 44.86 83.74 40.78 C 84.02 44.23 84.02 47.70 84.01 51.16 C 83.91 51.69 83.72 52.74 83.63 53.26 Z" />
</g>
<g id="#dcd2c1ff">
<path fill="#dcd2c1" opacity="1.00" d=" M 105.23 40.97 C 106.91 40.96 110.28 40.94 111.96 40.94 C 113.75 41.05 115.53 41.23 117.28 41.59 C 113.11 41.81 108.94 41.86 104.77 41.75 L 105.23 40.97 Z" />
</g>
<g id="#054c6bff">
<path fill="#054c6b" opacity="1.00" d=" M 153.00 48.04 C 156.67 45.82 159.57 41.89 163.85 40.97 C 164.86 42.57 165.20 44.46 165.81 46.22 C 165.90 47.48 165.97 48.74 166.04 50.00 C 166.05 50.52 166.06 51.56 166.07 52.09 C 163.70 53.93 163.56 50.64 162.71 49.07 C 159.09 51.16 156.55 54.69 152.83 56.63 C 152.51 56.47 151.87 56.14 151.55 55.97 C 152.06 53.33 152.39 50.66 153.00 48.04 Z" />
</g>
<g id="#00171c5c">
<path fill="#00171c" opacity="0.36" d=" M 81.05 42.02 L 81.99 42.00 C 82.03 44.67 82.02 47.33 81.98 50.00 C 79.79 49.12 81.46 44.41 81.05 42.02 Z" />
</g>
<g id="#453723ff">
<path fill="#453723" opacity="1.00" d=" M 111.00 43.03 C 108.95 42.58 101.81 44.96 104.77 41.75 C 108.94 41.86 113.11 41.81 117.28 41.59 L 118.06 41.69 C 118.30 42.01 118.76 42.65 119.00 42.98 C 116.33 43.03 113.66 43.05 111.00 43.03 Z" />
</g>
<g id="#c6bcb1ff">
<path fill="#c6bcb1" opacity="1.00" d=" M 95.98 64.10 C 114.71 59.43 134.41 54.93 150.02 42.92 C 150.00 43.66 149.96 45.13 149.94 45.87 C 136.80 54.99 121.40 60.37 105.89 63.86 C 103.99 64.62 100.36 65.15 101.04 67.93 C 101.07 69.54 103.17 69.94 104.15 70.95 C 102.68 71.03 101.22 71.12 99.76 71.23 C 99.26 71.03 98.25 70.61 97.75 70.40 C 96.74 68.43 95.62 66.40 95.98 64.10 Z" />
</g>
<g id="#fcf1dbff">
<path fill="#fcf1db" opacity="1.00" d=" M 84.01 51.16 C 87.97 46.18 95.76 47.31 100.92 44.02 C 104.28 43.99 107.63 44.02 111.00 44.00 C 115.00 44.04 119.00 44.04 123.01 44.01 C 122.70 44.19 122.07 44.53 121.76 44.71 C 111.22 44.97 102.20 50.75 92.24 53.36 C 89.11 53.94 87.47 56.62 85.08 58.29 C 84.62 56.61 84.09 54.94 83.63 53.26 C 83.72 52.74 83.91 51.69 84.01 51.16 Z" />
</g>
<g id="#bdb4abff">
<path fill="#bdb4ab" opacity="1.00" d=" M 105.89 63.86 C 121.40 60.37 136.80 54.99 149.94 45.87 C 149.95 46.63 149.96 48.15 149.97 48.92 C 138.29 55.81 125.83 61.32 112.65 64.62 C 110.25 65.01 108.13 66.70 107.06 68.84 C 109.10 71.27 112.35 71.12 115.24 71.75 C 114.37 71.89 112.63 72.16 111.76 72.29 C 109.20 71.92 106.66 71.51 104.15 70.95 C 103.17 69.94 101.07 69.54 101.04 67.93 C 100.36 65.15 103.99 64.62 105.89 63.86 Z" />
</g>
<g id="#b4aba4ff">
<path fill="#b4aba4" opacity="1.00" d=" M 112.65 64.62 C 125.83 61.32 138.29 55.81 149.97 48.92 C 149.98 49.41 150.00 50.40 150.02 50.90 C 141.02 57.81 130.41 61.76 120.04 66.03 C 118.54 66.44 115.65 69.97 118.30 70.76 C 126.90 71.25 135.54 71.18 144.14 70.58 C 144.48 70.67 145.17 70.84 145.51 70.93 C 135.56 72.74 125.31 72.16 115.24 71.75 C 112.35 71.12 109.10 71.27 107.06 68.84 C 108.13 66.70 110.25 65.01 112.65 64.62 Z" />
</g>
<g id="#04405dfd">
<path fill="#04405d" opacity="1.00" d=" M 152.83 56.63 C 156.55 54.69 159.09 51.16 162.71 49.07 C 163.56 50.64 163.70 53.93 166.07 52.09 C 165.37 55.29 164.62 58.49 163.84 61.68 C 163.57 63.23 163.04 66.32 162.78 67.87 C 157.83 68.52 151.21 66.04 147.94 71.09 C 147.65 70.56 147.08 69.50 146.79 68.98 C 148.61 64.73 150.61 60.52 151.55 55.97 C 151.87 56.14 152.51 56.47 152.83 56.63 Z" />
</g>
<g id="#a7a19dff">
<path fill="#a7a19d" opacity="1.00" d=" M 120.04 66.03 C 130.41 61.76 141.02 57.81 150.02 50.90 C 150.06 51.70 150.16 53.30 150.21 54.10 C 145.25 57.25 140.52 60.88 135.05 63.14 C 132.28 64.38 128.36 66.23 128.92 69.92 C 133.97 70.27 139.17 69.33 144.14 70.58 C 135.54 71.18 126.90 71.25 118.30 70.76 C 115.65 69.97 118.54 66.44 120.04 66.03 Z" />
</g>
<g id="#989595ff">
<path fill="#989595" opacity="1.00" d=" M 135.05 63.14 C 140.52 60.88 145.25 57.25 150.21 54.10 C 149.94 55.43 149.59 56.74 149.21 58.03 C 146.45 61.31 141.33 62.67 140.05 67.01 C 140.22 69.79 143.91 68.81 145.81 68.97 L 146.79 68.98 C 147.08 69.50 147.65 70.56 147.94 71.09 C 147.33 71.05 146.12 70.97 145.51 70.93 C 145.17 70.84 144.48 70.67 144.14 70.58 C 139.17 69.33 133.97 70.27 128.92 69.92 C 128.36 66.23 132.28 64.38 135.05 63.14 Z" />
</g>
<g id="#8a898cff">
<path fill="#8a898c" opacity="1.00" d=" M 140.05 67.01 C 141.33 62.67 146.45 61.31 149.21 58.03 C 148.51 61.82 146.65 65.24 145.81 68.97 C 143.91 68.81 140.22 69.79 140.05 67.01 Z" />
</g>
<g id="#0fa4b9fc">
<path fill="#0fa4b9" opacity="1.00" d=" M 67.06 68.71 C 70.75 65.53 76.90 63.46 82.02 61.96 C 84.91 61.36 83.12 63.19 82.42 64.58 C 84.78 65.95 83.31 69.03 83.40 71.31 C 82.64 71.89 81.87 72.46 81.09 73.02 C 77.74 74.55 73.85 77.16 73.05 81.02 L 72.89 81.69 C 64.65 91.89 59.76 104.13 56.80 116.76 C 56.29 118.04 55.95 119.39 55.74 120.75 C 54.89 124.25 54.90 127.75 55.75 131.26 C 56.21 135.84 57.87 140.15 59.50 144.42 C 61.23 149.56 59.13 154.47 57.38 159.19 C 53.25 153.36 51.26 146.08 50.97 139.00 C 50.99 135.00 51.00 130.99 50.98 126.99 C 51.05 122.54 52.37 118.24 53.02 113.86 C 53.76 110.95 54.49 108.03 55.25 105.13 C 57.45 101.30 58.33 96.90 60.39 93.01 C 62.46 88.28 64.40 83.47 67.20 79.11 C 68.37 77.22 70.87 75.27 69.05 72.98 C 67.88 71.60 69.51 68.80 67.06 68.71 Z" />
</g>
<g id="#08536bfe">
<path fill="#08536b" opacity="1.00" d=" M 162.78 67.87 C 163.04 66.32 163.57 63.23 163.84 61.68 C 165.03 61.87 166.08 62.35 167.01 63.11 C 165.64 66.00 166.43 69.04 167.02 72.00 C 161.38 72.14 154.69 68.65 150.06 72.97 L 149.16 72.95 C 148.85 72.48 148.24 71.55 147.94 71.09 C 151.21 66.04 157.83 68.52 162.78 67.87 Z" />
</g>
<g id="#096481ff">
<path fill="#096481" opacity="1.00" d=" M 167.01 63.11 C 168.22 62.78 169.14 63.13 169.77 64.17 C 173.58 75.39 172.36 88.60 181.21 97.79 C 186.85 103.61 194.08 110.85 202.92 109.35 C 206.86 109.21 211.86 110.08 214.60 106.69 C 214.89 104.16 215.75 101.23 218.95 101.79 C 220.84 103.23 221.51 106.09 222.27 108.33 L 221.90 109.21 C 220.67 108.61 219.74 107.21 218.31 107.17 C 217.41 109.00 216.64 110.90 215.66 112.69 C 212.94 114.35 209.63 113.92 206.60 114.47 C 199.35 117.04 193.44 111.65 187.70 108.29 C 180.88 104.34 177.33 97.09 173.00 90.83 C 176.40 106.56 182.93 123.50 176.53 139.39 C 175.15 145.58 169.04 148.71 164.82 152.80 C 162.48 155.22 159.25 156.36 156.04 157.05 C 156.18 155.89 156.36 154.74 156.59 153.60 C 162.57 145.57 167.82 136.27 168.07 126.00 C 169.75 113.26 166.00 100.58 161.00 88.99 C 160.38 87.68 159.70 86.26 158.25 85.71 C 157.93 85.50 157.29 85.09 156.97 84.89 C 156.74 84.43 156.29 83.52 156.07 83.07 C 155.35 81.46 155.28 78.35 153.02 78.30 C 150.47 79.58 151.05 76.80 150.77 75.08 C 150.59 74.55 150.24 73.50 150.06 72.97 C 154.69 68.65 161.38 72.14 167.02 72.00 C 166.43 69.04 165.64 66.00 167.01 63.11 Z" />
</g>
<g id="#086c87fe">
<path fill="#086c87" opacity="1.00" d=" M 169.77 64.17 C 171.22 64.02 173.42 64.47 173.90 66.01 C 175.71 70.40 179.60 73.68 180.30 78.69 C 181.98 84.98 187.43 89.13 190.18 94.90 C 193.11 100.36 199.52 102.52 205.40 102.45 C 212.27 106.74 210.21 96.05 215.99 97.84 C 217.42 98.63 219.23 99.92 218.95 101.79 C 215.75 101.23 214.89 104.16 214.60 106.69 C 211.86 110.08 206.86 109.21 202.92 109.35 C 194.08 110.85 186.85 103.61 181.21 97.79 C 172.36 88.60 173.58 75.39 169.77 64.17 Z" />
</g>
<g id="#08738efd">
<path fill="#08738e" opacity="1.00" d=" M 173.90 66.01 C 183.78 69.91 192.49 76.62 200.98 83.02 C 206.12 87.80 212.76 91.39 215.99 97.84 C 210.21 96.05 212.27 106.74 205.40 102.45 C 199.52 102.52 193.11 100.36 190.18 94.90 C 187.43 89.13 181.98 84.98 180.30 78.69 C 179.60 73.68 175.71 70.40 173.90 66.01 Z" />
</g>
<g id="#f7ebd9ff">
<path fill="#f7ebd9" opacity="1.00" d=" M 86.98 68.84 C 87.50 68.54 88.55 67.93 89.07 67.63 C 90.47 68.99 91.93 70.30 93.54 71.42 C 94.74 73.25 96.55 74.12 98.98 74.03 C 112.46 76.80 126.62 76.72 139.65 81.48 C 144.04 85.26 152.07 88.70 150.06 96.00 C 150.20 102.33 146.40 107.84 142.21 112.21 C 129.51 123.13 118.14 135.51 105.70 146.69 C 96.48 152.55 86.26 156.73 75.92 160.20 C 74.97 159.73 74.00 159.31 73.01 158.92 C 72.72 158.49 72.13 157.63 71.84 157.20 C 78.33 157.31 83.74 153.09 89.25 150.27 C 101.41 144.62 109.53 133.30 116.04 122.05 C 122.22 113.92 131.03 108.22 136.98 99.86 C 137.14 97.42 135.34 95.46 134.65 93.23 C 132.14 87.23 125.64 85.00 119.99 83.03 C 110.22 80.04 100.19 77.61 91.05 72.94 C 89.10 72.22 88.21 70.33 86.98 68.84 Z" />
</g>
<g id="#0a8da6fa">
<path fill="#0a8da6" opacity="0.98" d=" M 57.33 76.34 C 61.09 74.42 62.51 69.52 67.06 68.71 C 69.51 68.80 67.88 71.60 69.05 72.98 C 70.87 75.27 68.37 77.22 67.20 79.11 C 66.20 77.42 66.89 73.45 64.09 74.02 C 58.33 79.29 53.41 85.43 48.01 91.01 C 41.08 95.69 33.70 99.99 29.10 107.19 C 30.21 99.06 36.22 91.66 43.00 87.13 C 44.96 86.24 47.74 85.47 48.11 83.01 C 48.66 81.40 50.11 79.93 51.91 79.97 C 54.31 79.95 55.62 77.67 57.33 76.34 Z" />
</g>
<g id="#fdf2dfff">
<path fill="#fdf2df" opacity="1.00" d=" M 85.81 69.67 C 86.11 69.46 86.69 69.05 86.98 68.84 C 88.21 70.33 89.10 72.22 91.05 72.94 C 100.19 77.61 110.22 80.04 119.99 83.03 C 125.64 85.00 132.14 87.23 134.65 93.23 C 135.34 95.46 137.14 97.42 136.98 99.86 C 131.03 108.22 122.22 113.92 116.04 122.05 C 109.53 133.30 101.41 144.62 89.25 150.27 C 83.74 153.09 78.33 157.31 71.84 157.20 C 71.56 156.88 71.01 156.23 70.74 155.91 C 80.62 150.73 91.04 145.05 97.50 135.61 C 98.56 129.32 103.85 124.87 105.49 118.69 C 106.24 115.66 109.15 114.12 110.58 111.49 C 113.69 107.64 114.60 102.55 118.03 98.91 C 117.52 95.56 116.30 92.18 114.81 89.15 C 105.05 82.82 92.87 79.51 85.81 69.67 Z" />
</g>
<g id="#fffae6ff">
<path fill="#fffae6" opacity="1.00" d=" M 83.40 71.31 C 84.21 70.77 85.01 70.22 85.81 69.67 C 92.87 79.51 105.05 82.82 114.81 89.15 C 116.30 92.18 117.52 95.56 118.03 98.91 C 114.60 102.55 113.69 107.64 110.58 111.49 C 109.15 114.12 106.24 115.66 105.49 118.69 C 103.85 124.87 98.56 129.32 97.50 135.61 C 91.04 145.05 80.62 150.73 70.74 155.91 C 69.54 155.15 68.31 154.44 67.03 153.84 C 66.75 153.46 66.19 152.69 65.92 152.31 C 72.82 150.59 77.79 144.52 82.76 139.77 C 89.35 130.92 93.47 120.61 99.32 111.31 C 102.19 105.66 105.06 99.62 103.93 93.10 C 100.05 85.21 88.95 85.95 84.44 78.62 C 83.46 75.16 80.28 76.75 77.87 76.89 C 78.96 75.62 80.03 74.32 81.09 73.02 C 81.87 72.46 82.64 71.89 83.40 71.31 Z" />
</g>
<g id="#ede3d4ff">
<path fill="#ede3d4" opacity="1.00" d=" M 93.54 71.42 C 112.09 77.37 131.69 74.19 150.77 75.08 C 151.05 76.80 150.47 79.58 153.02 78.30 C 153.08 80.52 153.68 82.47 156.07 83.07 C 156.29 83.52 156.74 84.43 156.97 84.89 C 156.52 87.83 158.00 90.15 160.19 91.93 C 158.86 99.77 157.32 107.86 152.52 114.43 C 147.17 125.53 135.69 130.99 127.25 139.25 C 114.89 152.92 96.58 159.31 78.87 162.23 C 77.87 161.57 76.90 160.88 75.92 160.20 C 86.26 156.73 96.48 152.55 105.70 146.69 C 118.14 135.51 129.51 123.13 142.21 112.21 C 146.40 107.84 150.20 102.33 150.06 96.00 C 152.07 88.70 144.04 85.26 139.65 81.48 C 126.62 76.72 112.46 76.80 98.98 74.03 C 96.55 74.12 94.74 73.25 93.54 71.42 Z" />
</g>
<g id="#dbcab7ff">
<path fill="#dbcab7" opacity="1.00" d=" M 99.76 71.23 C 101.22 71.12 102.68 71.03 104.15 70.95 C 106.66 71.51 109.20 71.92 111.76 72.29 C 122.19 73.74 132.77 72.59 143.26 73.26 C 128.98 74.60 113.80 75.07 99.76 71.23 Z" />
</g>
<g id="#cbbdafff">
<path fill="#cbbdaf" opacity="1.00" d=" M 145.51 70.93 C 146.12 70.97 147.33 71.05 147.94 71.09 C 148.24 71.55 148.85 72.48 149.16 72.95 C 147.19 72.99 145.22 73.07 143.26 73.26 C 132.77 72.59 122.19 73.74 111.76 72.29 C 112.63 72.16 114.37 71.89 115.24 71.75 C 125.31 72.16 135.56 72.74 145.51 70.93 Z" />
</g>
<g id="#2f818cff">
<path fill="#2f818c" opacity="1.00" d=" M 73.05 81.02 C 73.85 77.16 77.74 74.55 81.09 73.02 C 80.03 74.32 78.96 75.62 77.87 76.89 C 76.27 78.27 74.70 79.69 73.05 81.02 Z" />
</g>
<g id="#097a96ff">
<path fill="#097a96" opacity="1.00" d=" M 48.01 91.01 C 53.41 85.43 58.33 79.29 64.09 74.02 C 66.89 73.45 66.20 77.42 67.20 79.11 C 64.40 83.47 62.46 88.28 60.39 93.01 C 60.02 92.77 59.29 92.30 58.92 92.07 C 55.47 94.54 53.02 98.27 49.01 100.00 C 42.72 104.19 33.59 104.10 29.71 111.48 L 29.16 112.16 C 29.02 110.51 28.87 108.84 29.10 107.19 C 33.70 99.99 41.08 95.69 48.01 91.01 Z" />
</g>
<g id="#0ca3b5e8">
<path fill="#0ca3b5" opacity="0.91" d=" M 51.91 79.97 C 53.33 78.32 54.68 75.31 57.33 76.34 C 55.62 77.67 54.31 79.95 51.91 79.97 Z" />
</g>
<g id="#ffffefff">
<path fill="#ffffef" opacity="1.00" d=" M 77.87 76.89 C 80.28 76.75 83.46 75.16 84.44 78.62 C 88.95 85.95 100.05 85.21 103.93 93.10 C 105.06 99.62 102.19 105.66 99.32 111.31 C 93.47 120.61 89.35 130.92 82.76 139.77 C 77.79 144.52 72.82 150.59 65.92 152.31 C 64.03 149.79 62.43 147.07 61.08 144.23 C 66.24 140.05 69.44 133.22 74.46 128.49 C 80.33 119.08 86.15 109.49 89.85 98.97 C 87.91 93.25 84.06 87.41 77.65 86.41 C 74.93 86.29 73.92 83.79 72.89 81.69 L 73.05 81.02 C 74.70 79.69 76.27 78.27 77.87 76.89 Z" />
</g>
<g id="#d2c9b8ff">
<path fill="#d2c9b8" opacity="1.00" d=" M 153.02 78.30 C 155.28 78.35 155.35 81.46 156.07 83.07 C 153.68 82.47 153.08 80.52 153.02 78.30 Z" />
</g>
<g id="#fefefaff">
<path fill="#fefefa" opacity="1.00" d=" M 56.80 116.76 C 59.76 104.13 64.65 91.89 72.89 81.69 C 73.92 83.79 74.93 86.29 77.65 86.41 C 84.06 87.41 87.91 93.25 89.85 98.97 C 86.15 109.49 80.33 119.08 74.46 128.49 C 69.44 133.22 66.24 140.05 61.08 144.23 C 58.67 140.20 57.92 135.51 56.84 131.02 C 56.94 126.26 57.01 121.51 56.80 116.76 Z" />
</g>
<g id="#0aa1b5e6">
<path fill="#0aa1b5" opacity="0.90" d=" M 43.00 87.13 C 44.07 85.26 45.64 82.75 48.11 83.01 C 47.74 85.47 44.96 86.24 43.00 87.13 Z" />
</g>
<g id="#d4cdbcff">
<path fill="#d4cdbc" opacity="1.00" d=" M 156.97 84.89 C 157.29 85.09 157.93 85.50 158.25 85.71 C 158.99 87.75 159.69 89.81 160.19 91.93 C 158.00 90.15 156.52 87.83 156.97 84.89 Z" />
</g>
<g id="#255263ff">
<path fill="#255263" opacity="1.00" d=" M 158.25 85.71 C 159.70 86.26 160.38 87.68 161.00 88.99 C 166.00 100.58 169.75 113.26 168.07 126.00 C 167.82 136.27 162.57 145.57 156.59 153.60 C 147.77 162.73 135.84 168.67 123.20 170.17 C 122.48 170.18 121.04 170.21 120.32 170.23 L 119.98 169.14 C 134.53 167.65 149.02 160.47 157.41 148.25 C 157.59 147.99 157.95 147.46 158.13 147.20 C 160.24 144.36 161.84 141.19 163.16 137.92 C 164.42 136.24 165.33 134.21 164.98 132.06 C 165.82 130.22 166.07 128.21 166.28 126.23 C 166.79 121.79 167.79 117.08 166.36 112.71 C 166.06 111.40 165.75 110.09 165.41 108.78 C 164.12 103.06 163.42 96.97 160.19 91.93 C 159.69 89.81 158.99 87.75 158.25 85.71 Z" />
</g>
<g id="#065a7bff">
<path fill="#065a7b" opacity="1.00" d=" M 173.00 90.83 C 177.33 97.09 180.88 104.34 187.70 108.29 C 193.44 111.65 199.35 117.04 206.60 114.47 C 209.63 113.92 212.94 114.35 215.66 112.69 C 216.64 110.90 217.41 109.00 218.31 107.17 C 219.74 107.21 220.67 108.61 221.90 109.21 C 219.86 115.97 212.73 119.19 206.09 118.96 C 196.12 118.26 189.02 110.83 180.88 106.00 C 183.07 112.88 186.67 119.23 188.76 126.16 C 189.20 132.34 189.52 138.67 187.65 144.67 C 182.07 155.94 169.14 160.05 158.28 164.43 C 145.19 167.73 132.50 174.35 118.84 174.43 C 120.38 173.10 121.81 171.65 123.20 170.17 C 135.84 168.67 147.77 162.73 156.59 153.60 C 156.36 154.74 156.18 155.89 156.04 157.05 C 159.25 156.36 162.48 155.22 164.82 152.80 C 169.04 148.71 175.15 145.58 176.53 139.39 C 182.93 123.50 176.40 106.56 173.00 90.83 Z" />
</g>
<g id="#096983ff">
<path fill="#096983" opacity="1.00" d=" M 58.92 92.07 C 59.29 92.30 60.02 92.77 60.39 93.01 C 58.33 96.90 57.45 101.30 55.25 105.13 C 49.75 106.89 44.68 109.83 38.98 111.02 C 31.05 110.76 35.46 112.55 37.16 113.67 C 35.70 114.35 34.31 115.16 32.92 115.97 L 31.98 115.91 C 33.89 113.89 30.97 112.76 29.71 111.48 C 33.59 104.10 42.72 104.19 49.01 100.00 C 53.02 98.27 55.47 94.54 58.92 92.07 Z" />
</g>
<g id="#ded8cfff">
<path fill="#ded8cf" opacity="1.00" d=" M 160.19 91.93 C 163.42 96.97 164.12 103.06 165.41 108.78 C 163.94 112.00 162.75 115.33 161.57 118.66 C 157.09 126.25 151.44 133.08 145.66 139.71 C 139.56 145.50 132.04 149.39 125.20 154.18 C 114.38 160.90 101.04 160.89 89.68 166.29 C 85.84 165.70 82.07 164.45 78.87 162.23 C 96.58 159.31 114.89 152.92 127.25 139.25 C 135.69 130.99 147.17 125.53 152.52 114.43 C 157.32 107.86 158.86 99.77 160.19 91.93 Z" />
</g>
<g id="#06506dfb">
<path fill="#06506d" opacity="1.00" d=" M 38.98 111.02 C 44.68 109.83 49.75 106.89 55.25 105.13 C 54.49 108.03 53.76 110.95 53.02 113.86 C 47.44 115.50 41.83 118.50 35.90 117.81 L 36.04 116.96 C 38.59 117.81 40.50 113.84 37.16 113.67 C 35.46 112.55 31.05 110.76 38.98 111.02 Z" />
</g>
<g id="#065174fd">
<path fill="#065174" opacity="1.00" d=" M 180.88 106.00 C 189.02 110.83 196.12 118.26 206.09 118.96 C 212.73 119.19 219.86 115.97 221.90 109.21 L 222.27 108.33 L 222.96 107.83 C 223.56 112.13 223.89 116.50 223.58 120.84 C 222.09 121.43 219.83 124.13 219.59 121.04 C 217.98 122.08 217.16 124.08 217.64 125.94 C 217.24 126.24 216.45 126.84 216.05 127.14 C 215.77 125.60 215.23 122.52 214.96 120.98 C 211.68 120.54 211.89 123.64 213.05 125.69 C 211.66 126.08 210.29 126.48 208.94 126.93 C 210.98 124.08 208.80 120.21 205.23 121.06 C 205.11 121.54 204.87 122.49 204.75 122.96 C 202.53 122.73 201.06 120.66 198.99 119.95 C 199.49 126.21 200.84 132.47 200.75 138.75 C 200.29 141.80 199.90 144.90 199.99 148.01 C 200.15 154.21 197.23 160.30 193.64 165.19 C 192.19 163.37 195.04 155.00 190.34 157.42 C 177.11 163.74 162.90 167.51 148.95 171.85 C 143.39 174.06 136.17 173.32 131.69 177.88 C 128.78 177.93 125.89 177.97 123.00 178.03 C 120.34 178.43 117.79 178.30 115.35 177.63 C 115.03 177.47 114.37 177.13 114.05 176.97 C 113.16 176.25 111.49 176.30 111.15 175.09 C 113.65 174.41 116.25 173.73 118.84 174.43 C 132.50 174.35 145.19 167.73 158.28 164.43 C 169.14 160.05 182.07 155.94 187.65 144.67 C 189.52 138.67 189.20 132.34 188.76 126.16 C 186.67 119.23 183.07 112.88 180.88 106.00 Z" />
</g>
<g id="#cfccc8ff">
<path fill="#cfccc8" opacity="1.00" d=" M 165.41 108.78 C 165.75 110.09 166.06 111.40 166.36 112.71 C 166.10 117.21 166.08 121.72 166.28 126.23 C 166.07 128.21 165.82 130.22 164.98 132.06 C 162.97 133.37 162.36 135.70 163.16 137.92 C 161.43 140.73 154.98 143.35 158.13 147.20 C 157.95 147.46 157.59 147.99 157.41 148.25 C 155.78 146.93 154.31 147.73 152.98 148.97 C 138.61 161.24 119.75 164.81 101.88 168.73 L 101.11 168.71 C 97.21 168.35 93.39 167.50 89.68 166.29 C 101.04 160.89 114.38 160.90 125.20 154.18 C 132.04 149.39 139.56 145.50 145.66 139.71 C 151.44 133.08 157.09 126.25 161.57 118.66 C 162.75 115.33 163.94 112.00 165.41 108.78 Z" />
</g>
<g id="#c4c1bdf3">
<path fill="#c4c1bd" opacity="0.95" d=" M 29.16 112.16 L 29.71 111.48 C 30.97 112.76 33.89 113.89 31.98 115.91 C 30.49 116.69 28.50 120.43 27.17 117.78 C 26.45 115.67 28.06 113.78 29.16 112.16 Z" />
</g>
<g id="#849090ff">
<path fill="#849090" opacity="1.00" d=" M 166.36 112.71 C 167.79 117.08 166.79 121.79 166.28 126.23 C 166.08 121.72 166.10 117.21 166.36 112.71 Z" />
</g>
<g id="#b8b2aafb">
<path fill="#b8b2aa" opacity="1.00" d=" M 32.92 115.97 C 34.31 115.16 35.70 114.35 37.16 113.67 C 36.42 114.65 36.05 115.74 36.04 116.96 L 35.90 117.81 C 33.61 119.27 32.25 118.97 32.92 115.97 Z" />
</g>
<g id="#818b8eff">
<path fill="#818b8e" opacity="1.00" d=" M 37.16 113.67 C 40.50 113.84 38.59 117.81 36.04 116.96 C 36.05 115.74 36.42 114.65 37.16 113.67 Z" />
</g>
<g id="#72a4a5ff">
<path fill="#72a4a5" opacity="1.00" d=" M 55.74 120.75 C 55.95 119.39 56.29 118.04 56.80 116.76 C 57.01 121.51 56.94 126.26 56.84 131.02 L 55.75 131.26 C 55.86 127.75 56.01 124.25 55.74 120.75 Z" />
</g>
<g id="#018daaff">
<path fill="#018daa" opacity="1.00" d=" M 55.75 131.26 C 54.90 127.75 54.89 124.25 55.74 120.75 C 56.01 124.25 55.86 127.75 55.75 131.26 Z" />
</g>
<g id="#bab7a7fc">
<path fill="#bab7a7" opacity="1.00" d=" M 205.23 121.06 C 208.80 120.21 210.98 124.08 208.94 126.93 C 207.20 126.12 205.79 124.54 204.75 122.96 C 204.87 122.49 205.11 121.54 205.23 121.06 Z" />
</g>
<g id="#c9c6c2fd">
<path fill="#c9c6c2" opacity="1.00" d=" M 213.05 125.69 C 211.89 123.64 211.68 120.54 214.96 120.98 C 215.23 122.52 215.77 125.60 216.05 127.14 C 216.29 129.47 213.80 126.15 213.05 125.69 Z" />
</g>
<g id="#a3a19fee">
<path fill="#a3a19f" opacity="0.93" d=" M 217.64 125.94 C 217.16 124.08 217.98 122.08 219.59 121.04 C 219.83 124.13 222.09 121.43 223.58 120.84 C 224.78 123.05 225.26 125.44 225.03 128.02 C 223.70 127.38 222.42 126.67 221.10 126.03 C 221.04 126.80 220.91 128.34 220.84 129.11 C 219.67 128.18 218.39 127.26 217.64 125.94 Z" />
</g>
<g id="#010d0e40">
<path fill="#010d0e" opacity="0.25" d=" M 50.01 139.00 C 51.17 135.88 47.92 128.44 50.98 126.99 C 51.00 130.99 50.99 135.00 50.97 139.00 L 50.01 139.00 Z" />
</g>
<g id="#0f7b95fe">
<path fill="#0f7b95" opacity="1.00" d=" M 55.75 131.26 L 56.84 131.02 C 57.92 135.51 58.67 140.20 61.08 144.23 C 62.43 147.07 64.03 149.79 65.92 152.31 C 66.19 152.69 66.75 153.46 67.03 153.84 C 68.32 155.90 70.03 157.64 71.86 159.22 C 73.63 161.57 77.73 162.41 77.08 165.98 C 72.38 166.30 67.61 164.66 62.99 165.94 C 60.62 164.93 57.79 161.86 57.38 159.19 C 59.13 154.47 61.23 149.56 59.50 144.42 C 57.87 140.15 56.21 135.84 55.75 131.26 Z" />
</g>
<g id="#a4aba8ff">
<path fill="#a4aba8" opacity="1.00" d=" M 163.16 137.92 C 162.36 135.70 162.97 133.37 164.98 132.06 C 165.33 134.21 164.42 136.24 163.16 137.92 Z" />
</g>
<g id="#b6b8b6ff">
<path fill="#b6b8b6" opacity="1.00" d=" M 158.13 147.20 C 154.98 143.35 161.43 140.73 163.16 137.92 C 161.84 141.19 160.24 144.36 158.13 147.20 Z" />
</g>
<g id="#01293aa6">
<path fill="#01293a" opacity="0.65" d=" M 199.99 148.01 C 199.90 144.90 200.29 141.80 200.75 138.75 C 200.02 141.22 202.54 147.00 199.99 148.01 Z" />
</g>
<g id="#bdbdbcff">
<path fill="#bdbdbc" opacity="1.00" d=" M 152.98 148.97 C 154.31 147.73 155.78 146.93 157.41 148.25 C 149.02 160.47 134.53 167.65 119.98 169.14 C 115.32 169.04 110.66 169.00 106.01 169.04 C 104.63 168.94 103.25 168.84 101.88 168.73 C 119.75 164.81 138.61 161.24 152.98 148.97 Z" />
</g>
<g id="#3e6d76ff">
<path fill="#3e6d76" opacity="1.00" d=" M 67.03 153.84 C 68.31 154.44 69.54 155.15 70.74 155.91 C 71.01 156.23 71.56 156.88 71.84 157.20 C 72.13 157.63 72.72 158.49 73.01 158.92 L 71.86 159.22 C 70.03 157.64 68.32 155.90 67.03 153.84 Z" />
</g>
<g id="#054868fe">
<path fill="#054868" opacity="1.00" d=" M 190.34 157.42 C 195.04 155.00 192.19 163.37 193.64 165.19 C 193.53 166.86 191.47 167.83 190.34 168.98 C 189.26 166.82 188.37 163.13 184.37 166.43 C 171.73 168.95 159.41 172.79 146.89 175.82 C 145.10 176.60 142.56 176.62 141.70 178.67 C 138.60 179.55 135.20 178.99 132.01 178.86 L 131.69 177.88 C 136.17 173.32 143.39 174.06 148.95 171.85 C 162.90 167.51 177.11 163.74 190.34 157.42 Z" />
</g>
<g id="#0b5f7dff">
<path fill="#0b5f7d" opacity="1.00" d=" M 71.86 159.22 L 73.01 158.92 C 74.00 159.31 74.97 159.73 75.92 160.20 C 76.90 160.88 77.87 161.57 78.87 162.23 C 82.07 164.45 85.84 165.70 89.68 166.29 C 93.39 167.50 97.21 168.35 101.11 168.71 C 99.79 169.20 97.25 168.19 96.82 169.97 C 99.83 169.99 102.88 170.02 105.90 170.08 L 106.80 170.18 C 111.20 170.74 116.03 172.02 120.32 170.23 C 121.04 170.21 122.48 170.18 123.20 170.17 C 121.81 171.65 120.38 173.10 118.84 174.43 C 116.25 173.73 113.65 174.41 111.15 175.09 C 111.49 176.30 113.16 176.25 114.05 176.97 C 112.29 176.98 108.78 177.01 107.02 177.02 C 104.08 176.94 101.14 176.98 98.21 176.69 C 87.56 173.75 76.85 170.63 65.93 168.97 L 65.21 168.73 C 64.94 168.63 64.39 168.43 64.12 168.33 L 63.23 168.00 C 63.17 167.49 63.05 166.46 62.99 165.94 C 67.61 164.66 72.38 166.30 77.08 165.98 C 77.73 162.41 73.63 161.57 71.86 159.22 Z" />
</g>
<g id="#053e59fe">
<path fill="#053e59" opacity="1.00" d=" M 184.37 166.43 C 188.37 163.13 189.26 166.82 190.34 168.98 C 189.87 170.12 189.09 170.79 188.00 170.98 C 178.84 169.40 169.80 172.73 160.98 174.85 C 156.50 176.12 151.22 176.30 147.71 179.78 L 146.82 180.01 L 146.03 180.18 C 144.52 179.90 143.13 179.20 141.70 178.67 C 142.56 176.62 145.10 176.60 146.89 175.82 C 159.41 172.79 171.73 168.95 184.37 166.43 Z" />
</g>
<g id="#e0cea6f2">
<path fill="#e0cea6" opacity="0.95" d=" M 56.30 172.24 C 58.02 170.05 60.73 169.01 63.23 168.00 L 64.12 168.33 C 63.01 169.18 61.84 169.95 60.66 170.70 C 56.40 172.09 57.68 177.62 57.05 180.97 C 56.18 179.97 55.16 179.25 53.79 179.58 L 54.07 178.89 C 55.21 176.81 56.04 174.61 56.30 172.24 Z" />
</g>
<g id="#b3957aff">
<path fill="#b3957a" opacity="1.00" d=" M 64.12 168.33 C 64.39 168.43 64.94 168.63 65.21 168.73 C 64.06 170.90 62.33 173.18 63.14 175.79 C 65.25 178.09 67.72 180.45 70.94 180.95 L 70.93 181.62 C 70.47 182.76 70.05 183.92 69.68 185.09 C 66.44 185.77 65.06 183.14 63.38 180.98 C 62.80 180.67 61.64 180.06 61.05 179.76 C 60.26 176.82 59.77 173.66 60.66 170.70 C 61.84 169.95 63.01 169.18 64.12 168.33 Z" />
</g>
<g id="#9f826bff">
<path fill="#9f826b" opacity="1.00" d=" M 65.21 168.73 L 65.93 168.97 C 66.64 169.57 67.35 170.18 68.06 170.80 C 67.80 173.26 68.92 175.59 70.97 176.96 C 75.34 179.68 80.79 179.91 85.48 182.00 C 82.91 184.58 79.50 183.97 76.40 182.91 C 76.17 180.04 72.86 181.33 70.94 180.95 C 67.72 180.45 65.25 178.09 63.14 175.79 C 62.33 173.18 64.06 170.90 65.21 168.73 Z" />
</g>
<g id="#135569ff">
<path fill="#135569" opacity="1.00" d=" M 65.93 168.97 C 76.85 170.63 87.56 173.75 98.21 176.69 C 96.74 176.94 95.27 177.24 93.83 177.61 C 91.94 178.00 90.02 177.92 88.19 177.33 C 81.32 175.64 74.89 172.58 68.06 170.80 C 67.35 170.18 66.64 169.57 65.93 168.97 Z" />
</g>
<g id="#0e445aff">
<path fill="#0e445a" opacity="1.00" d=" M 96.82 169.97 C 97.25 168.19 99.79 169.20 101.11 168.71 L 101.88 168.73 C 103.25 168.84 104.63 168.94 106.01 169.04 L 105.90 170.08 C 102.88 170.02 99.83 169.99 96.82 169.97 Z" />
</g>
<g id="#3d5763ff">
<path fill="#3d5763" opacity="1.00" d=" M 106.01 169.04 C 110.66 169.00 115.32 169.04 119.98 169.14 L 120.32 170.23 C 115.81 170.08 111.31 170.11 106.80 170.18 L 105.90 170.08 L 106.01 169.04 Z" />
</g>
<g id="#034864ff">
<path fill="#034864" opacity="1.00" d=" M 106.80 170.18 C 111.31 170.11 115.81 170.08 120.32 170.23 C 116.03 172.02 111.20 170.74 106.80 170.18 Z" />
</g>
<g id="#0b374bff">
<path fill="#0b374b" opacity="1.00" d=" M 160.98 174.85 C 169.80 172.73 178.84 169.40 188.00 170.98 L 187.71 171.98 C 186.81 172.24 185.92 172.51 185.02 172.79 C 183.96 173.06 182.90 173.35 181.86 173.67 C 179.97 174.05 178.10 174.49 176.24 175.00 C 167.99 176.03 159.69 177.44 151.69 179.75 L 150.72 180.04 C 149.97 179.97 148.46 179.84 147.71 179.78 C 151.22 176.30 156.50 176.12 160.98 174.85 Z" />
</g>
<g id="#cbae8efc">
<path fill="#cbae8e" opacity="1.00" d=" M 57.05 180.97 C 57.68 177.62 56.40 172.09 60.66 170.70 C 59.77 173.66 60.26 176.82 61.05 179.76 C 59.73 180.19 58.43 180.72 57.05 180.97 Z" />
</g>
<g id="#896c55ff">
<path fill="#896c55" opacity="1.00" d=" M 68.06 170.80 C 74.89 172.58 81.32 175.64 88.19 177.33 C 82.45 178.48 76.66 178.01 70.97 176.96 C 68.92 175.59 67.80 173.26 68.06 170.80 Z" />
</g>
<g id="#a89a8cfa">
<path fill="#a89a8c" opacity="0.98" d=" M 185.02 172.79 C 185.92 172.51 186.81 172.24 187.71 171.98 C 191.87 174.18 195.82 179.46 193.92 184.11 C 193.16 182.54 191.73 181.96 190.05 181.92 C 185.31 181.26 186.10 176.37 185.02 172.79 Z" />
</g>
<g id="#9e8a7aff">
<path fill="#9e8a7a" opacity="1.00" d=" M 181.86 173.67 C 182.90 173.35 183.96 173.06 185.02 172.79 C 186.10 176.37 185.31 181.26 190.05 181.92 C 189.62 182.88 189.20 183.84 188.79 184.81 C 186.20 184.63 184.13 185.85 182.65 187.90 C 179.40 187.44 176.69 187.75 176.25 191.13 C 176.90 187.50 174.49 185.10 170.87 185.75 C 176.17 183.69 182.47 180.26 181.86 173.67 Z" />
</g>
<g id="#9d8069ff">
<path fill="#9d8069" opacity="1.00" d=" M 176.24 175.00 C 178.10 174.49 179.97 174.05 181.86 173.67 C 182.47 180.26 176.17 183.69 170.87 185.75 L 170.07 185.96 C 166.38 185.67 162.74 185.09 159.04 184.96 C 158.36 184.92 156.99 184.83 156.31 184.78 C 154.37 183.29 152.36 181.87 150.72 180.04 L 151.69 179.75 C 159.41 181.97 172.38 184.66 176.24 175.00 Z" />
</g>
<g id="#8f7058ff">
<path fill="#8f7058" opacity="1.00" d=" M 151.69 179.75 C 159.69 177.44 167.99 176.03 176.24 175.00 C 172.38 184.66 159.41 181.97 151.69 179.75 Z" />
</g>
<g id="#8e7767ff">
<path fill="#8e7767" opacity="1.00" d=" M 70.97 176.96 C 76.66 178.01 82.45 178.48 88.19 177.33 C 90.02 177.92 91.94 178.00 93.83 177.61 C 95.44 178.00 97.33 178.95 96.96 180.94 C 93.12 181.13 89.31 181.69 85.48 182.00 C 80.79 179.91 75.34 179.68 70.97 176.96 Z" />
</g>
<g id="#6e6e6ffb">
<path fill="#6e6e6f" opacity="1.00" d=" M 93.83 177.61 C 95.27 177.24 96.74 176.94 98.21 176.69 C 101.14 176.98 104.08 176.94 107.02 177.02 L 107.01 177.99 C 106.85 181.35 103.67 185.03 100.23 184.72 C 98.07 184.36 96.55 183.37 96.96 180.94 C 97.33 178.95 95.44 178.00 93.83 177.61 Z" />
</g>
<g id="#042433a7">
<path fill="#042433" opacity="0.65" d=" M 107.02 177.02 C 108.78 177.01 112.29 176.98 114.05 176.97 C 114.37 177.13 115.03 177.47 115.35 177.63 C 112.60 178.12 109.79 178.09 107.01 177.99 L 107.02 177.02 Z" />
</g>
<g id="#011a2790">
<path fill="#011a27" opacity="0.56" d=" M 123.00 178.03 C 125.89 177.97 128.78 177.93 131.69 177.88 L 132.01 178.86 C 129.62 178.14 124.00 180.48 123.00 178.03 Z" />
</g>
<g id="#cfccc1f3">
<path fill="#cfccc1" opacity="0.95" d=" M 47.95 183.98 C 47.88 180.90 51.50 179.41 54.07 178.89 L 53.79 179.58 C 53.16 181.01 52.61 182.49 51.98 183.93 C 50.64 184.04 49.29 184.05 47.95 183.98 Z" />
</g>
<g id="#c1b5abf9">
<path fill="#c1b5ab" opacity="0.98" d=" M 53.79 179.58 C 55.16 179.25 56.18 179.97 57.05 180.97 C 58.43 180.72 59.73 180.19 61.05 179.76 C 61.64 180.06 62.80 180.67 63.38 180.98 C 62.48 182.76 61.24 184.33 60.12 185.99 C 59.20 187.66 55.09 187.72 55.94 185.03 C 56.07 183.09 53.15 184.44 51.98 183.93 C 52.61 182.49 53.16 181.01 53.79 179.58 Z" />
</g>
<g id="#c5ae92f4">
<path fill="#c5ae92" opacity="0.96" d=" M 146.03 180.18 L 146.82 180.01 C 146.34 184.51 152.09 184.81 154.79 187.02 C 154.41 188.34 154.10 189.67 153.84 191.01 C 149.17 190.56 142.36 185.09 146.03 180.18 Z" />
</g>
<g id="#b4957afe">
<path fill="#b4957a" opacity="1.00" d=" M 146.82 180.01 L 147.71 179.78 C 148.46 179.84 149.97 179.97 150.72 180.04 C 152.36 181.87 154.37 183.29 156.31 184.78 L 156.33 185.61 C 155.94 185.96 155.17 186.67 154.79 187.02 C 152.09 184.81 146.34 184.51 146.82 180.01 Z" />
</g>
<g id="#99938ff7">
<path fill="#99938f" opacity="0.97" d=" M 63.38 180.98 C 65.06 183.14 66.44 185.77 69.68 185.09 C 70.09 185.57 70.90 186.53 71.31 187.00 C 67.59 186.62 63.87 186.07 60.12 185.99 C 61.24 184.33 62.48 182.76 63.38 180.98 Z" />
</g>
<g id="#b9ac9dfc">
<path fill="#b9ac9d" opacity="1.00" d=" M 70.94 180.95 C 72.86 181.33 76.17 180.04 76.40 182.91 C 75.70 184.32 74.92 185.68 74.16 187.05 L 73.73 187.81 C 73.38 187.70 72.68 187.50 72.33 187.40 C 73.76 185.28 72.23 183.30 70.93 181.62 L 70.94 180.95 Z" />
</g>
<g id="#837e7efb">
<path fill="#837e7e" opacity="1.00" d=" M 85.48 182.00 C 89.31 181.69 93.12 181.13 96.96 180.94 C 96.55 183.37 98.07 184.36 100.23 184.72 C 94.90 185.91 89.44 186.49 84.01 187.00 C 80.72 187.00 77.45 186.97 74.16 187.05 C 74.92 185.68 75.70 184.32 76.40 182.91 C 79.50 183.97 82.91 184.58 85.48 182.00 Z" />
</g>
<g id="#e7ddc4fe">
<path fill="#e7ddc4" opacity="1.00" d=" M 69.68 185.09 C 70.05 183.92 70.47 182.76 70.93 181.62 C 72.23 183.30 73.76 185.28 72.33 187.40 L 71.31 187.00 C 70.90 186.53 70.09 185.57 69.68 185.09 Z" />
</g>
<g id="#8b8c94fc">
<path fill="#8b8c94" opacity="1.00" d=" M 190.05 181.92 C 191.73 181.96 193.16 182.54 193.92 184.11 C 194.62 186.49 192.28 188.07 191.59 190.14 C 190.69 188.34 189.75 186.57 188.79 184.81 C 189.20 183.84 189.62 182.88 190.05 181.92 Z" />
</g>
<g id="#c3b4a4fe">
<path fill="#c3b4a4" opacity="1.00" d=" M 156.31 184.78 C 156.99 184.83 158.36 184.92 159.04 184.96 C 159.47 186.17 159.83 187.40 160.14 188.65 C 158.98 189.67 157.86 190.74 156.75 191.82 C 156.29 191.87 155.38 191.96 154.92 192.01 C 155.49 189.91 156.50 187.83 156.33 185.61 L 156.31 184.78 Z" />
</g>
<g id="#a08d7eff">
<path fill="#a08d7e" opacity="1.00" d=" M 159.04 184.96 C 162.74 185.09 166.38 185.67 170.07 185.96 L 169.71 186.65 C 168.75 188.32 167.43 190.19 168.99 191.95 C 167.03 191.95 165.08 191.97 163.13 191.97 C 163.38 189.76 162.38 188.57 160.14 188.65 C 159.83 187.40 159.47 186.17 159.04 184.96 Z" />
</g>
<g id="#c8bfb5f9">
<path fill="#c8bfb5" opacity="0.98" d=" M 182.65 187.90 C 184.13 185.85 186.20 184.63 188.79 184.81 C 189.75 186.57 190.69 188.34 191.59 190.14 C 193.93 194.54 186.01 190.46 183.73 191.16 C 183.33 190.09 182.97 189.00 182.65 187.90 Z" />
</g>
<g id="#ebddc7ff">
<path fill="#ebddc7" opacity="1.00" d=" M 154.79 187.02 C 155.17 186.67 155.94 185.96 156.33 185.61 C 156.50 187.83 155.49 189.91 154.92 192.01 C 154.65 191.76 154.11 191.26 153.84 191.01 C 154.10 189.67 154.41 188.34 154.79 187.02 Z" />
</g>
<g id="#c1b6aaff">
<path fill="#c1b6aa" opacity="1.00" d=" M 170.07 185.96 L 170.87 185.75 C 174.49 185.10 176.90 187.50 176.25 191.13 L 175.95 191.91 C 175.49 192.20 174.55 192.80 174.08 193.10 C 174.56 189.86 173.83 186.19 169.71 186.65 L 170.07 185.96 Z" />
</g>
<g id="#1515165e">
<path fill="#151516" opacity="0.37" d=" M 74.16 187.05 C 77.45 186.97 80.72 187.00 84.01 187.00 C 83.11 189.88 76.62 187.35 73.73 187.81 L 74.16 187.05 Z" />
</g>
<g id="#ded2c1fe">
<path fill="#ded2c1" opacity="1.00" d=" M 168.99 191.95 C 167.43 190.19 168.75 188.32 169.71 186.65 C 173.83 186.19 174.56 189.86 174.08 193.10 C 173.63 192.99 172.73 192.79 172.28 192.69 C 171.19 192.40 170.09 192.16 168.99 191.95 Z" />
</g>
<g id="#7d7878f7">
<path fill="#7d7878" opacity="0.97" d=" M 176.25 191.13 C 176.69 187.75 179.40 187.44 182.65 187.90 C 182.97 189.00 183.33 190.09 183.73 191.16 C 185.04 194.20 177.82 191.35 175.95 191.91 L 176.25 191.13 Z" />
</g>
<g id="#86878dfd">
<path fill="#86878d" opacity="1.00" d=" M 156.75 191.82 C 157.86 190.74 158.98 189.67 160.14 188.65 C 162.38 188.57 163.38 189.76 163.13 191.97 L 162.09 192.01 C 160.31 192.06 158.52 192.00 156.75 191.82 Z" />
</g>
<g id="#0f0f0f47">
<path fill="#0f0f0f" opacity="0.28" d=" M 162.09 192.01 L 163.13 191.97 C 165.08 191.97 167.03 191.95 168.99 191.95 C 170.09 192.16 171.19 192.40 172.28 192.69 C 168.84 192.90 165.42 193.13 161.99 192.98 L 162.09 192.01 Z" />
</g>
</svg>
