<?xml version="1.0" encoding="UTF-8" ?>
<!DOCTYPE svg PUBLIC "-//W3C//DTD SVG 1.1//EN" "http://www.w3.org/Graphics/SVG/1.1/DTD/svg11.dtd">
<svg width="245pt" height="246pt" viewBox="0 0 245 246" version="1.1" xmlns="http://www.w3.org/2000/svg">
<g id="#85c9eff3">
<path fill="#85c9ef" opacity="0.95" d=" M 200.90 0.00 L 201.76 0.00 C 202.96 0.90 204.15 1.82 205.25 2.83 C 200.95 2.60 201.94 6.73 201.85 9.94 L 200.75 10.31 C 200.79 7.15 200.89 3.99 200.80 0.83 L 200.90 0.00 Z" />
</g>
<g id="#1e2f3a3b">
<path fill="#1e2f3a" opacity="0.23" d=" M 200.75 10.31 C 199.39 7.28 200.22 3.94 200.80 0.83 C 200.89 3.99 200.79 7.15 200.75 10.31 Z" />
</g>
<g id="#b7f3fafa">
<path fill="#b7f3fa" opacity="0.98" d=" M 201.85 9.94 C 201.94 6.73 200.95 2.60 205.25 2.83 C 211.80 8.30 210.74 18.12 212.28 25.78 C 212.20 27.60 212.06 31.24 211.98 33.06 C 209.81 31.90 207.54 30.90 205.44 29.62 C 202.93 23.95 203.50 17.70 202.32 11.76 C 202.20 11.31 201.97 10.39 201.85 9.94 Z" />
</g>
<g id="#659fc8c9">
<path fill="#659fc8" opacity="0.79" d=" M 15.20 6.13 C 15.66 6.10 16.59 6.02 17.06 5.99 C 16.43 11.10 14.65 16.01 14.32 21.18 C 13.98 20.01 13.60 18.86 13.17 17.73 C 13.60 13.83 14.28 9.95 15.20 6.13 Z" />
</g>
<g id="#517e9999">
<path fill="#517e99" opacity="0.60" d=" M 200.75 10.31 L 201.85 9.94 C 201.97 10.39 202.20 11.31 202.32 11.76 C 202.12 13.93 201.90 16.10 201.69 18.26 C 200.92 15.68 200.96 12.97 200.75 10.31 Z" />
</g>
<g id="#87cef9fb">
<path fill="#87cef9" opacity="1.00" d=" M 202.32 11.76 C 203.50 17.70 202.93 23.95 205.44 29.62 C 207.54 30.90 209.81 31.90 211.98 33.06 C 212.01 37.45 212.10 41.84 212.21 46.23 C 211.41 49.56 210.86 52.99 209.62 56.19 C 209.02 57.42 209.02 58.81 208.97 60.15 C 210.53 59.33 211.52 57.87 212.14 56.26 C 216.02 50.45 218.83 44.09 221.79 37.78 C 219.93 43.90 224.60 48.93 226.87 54.19 C 223.42 61.50 220.08 69.01 213.80 74.39 C 212.81 75.28 212.18 76.48 211.77 77.72 C 212.88 77.50 214.00 77.29 215.12 77.09 C 214.10 78.42 212.99 79.68 211.74 80.79 C 207.69 80.75 203.52 80.95 199.56 80.06 C 200.18 76.64 200.70 73.19 200.83 69.71 C 198.20 73.83 198.45 79.15 197.03 83.80 C 193.25 85.21 192.21 90.10 190.10 93.28 C 182.60 100.84 174.64 107.87 168.04 116.30 C 167.24 115.53 166.45 114.73 165.68 113.93 C 172.48 106.64 178.92 99.03 186.29 92.28 C 193.09 86.29 193.66 76.67 196.56 68.67 C 198.27 51.84 204.24 35.44 201.69 18.26 C 201.90 16.10 202.12 13.93 202.32 11.76 M 204.15 33.91 C 202.99 41.28 203.17 48.84 201.18 56.07 C 201.55 58.10 198.58 64.76 201.90 63.92 C 202.86 57.25 204.12 50.63 204.80 43.93 C 204.10 41.12 208.32 35.56 204.15 33.91 Z" />
</g>
<g id="#8ad4f2f5">
<path fill="#8ad4f2" opacity="0.96" d=" M 13.17 17.73 C 13.60 18.86 13.98 20.01 14.32 21.18 C 13.86 24.42 13.28 27.65 12.72 30.89 C 11.37 33.30 11.17 35.65 12.13 37.96 C 12.41 42.35 11.23 47.00 12.69 51.27 C 13.41 61.33 14.90 71.51 19.26 80.71 C 23.11 92.11 33.78 98.97 40.75 108.25 C 45.01 112.90 47.79 119.49 53.98 122.01 C 62.97 125.85 72.25 129.03 81.15 133.09 C 81.23 136.87 76.26 134.61 73.75 135.27 C 73.35 135.11 72.55 134.79 72.15 134.63 C 65.91 131.82 59.55 129.28 53.17 126.82 C 43.15 121.42 38.58 110.10 30.25 102.75 C 25.24 98.34 22.30 92.16 17.47 87.60 C 16.53 82.84 14.67 78.32 10.89 75.11 L 11.20 74.19 C 11.59 74.10 12.39 73.92 12.79 73.83 C 8.84 64.88 8.67 54.84 7.65 45.26 C 7.78 42.18 7.95 39.10 8.00 36.01 L 8.98 35.99 C 8.99 36.49 9.01 37.50 9.02 38.01 C 9.00 40.97 8.87 43.95 9.06 46.92 C 12.24 47.32 9.14 40.26 9.95 37.96 C 10.80 31.18 12.61 24.56 13.17 17.73 Z" />
</g>
<g id="#afeaf7f7">
<path fill="#afeaf7" opacity="0.97" d=" M 226.30 24.05 C 229.20 24.26 229.27 28.48 230.39 30.65 C 231.52 38.52 229.54 46.76 226.87 54.19 C 224.60 48.93 219.93 43.90 221.79 37.78 C 223.29 33.20 225.44 28.82 226.30 24.05 Z" />
</g>
<g id="#3e5b6666">
<path fill="#3e5b66" opacity="0.40" d=" M 212.28 25.78 C 213.24 32.53 213.54 39.50 212.21 46.23 C 212.10 41.84 212.01 37.45 211.98 33.06 C 212.06 31.24 212.20 27.60 212.28 25.78 Z" />
</g>
<g id="#86afbebf">
<path fill="#86afbe" opacity="0.75" d=" M 7.25 27.66 C 9.11 30.06 9.05 33.06 8.98 35.99 L 8.00 36.01 L 6.98 36.01 C 6.99 33.22 7.08 30.44 7.25 27.66 Z" />
</g>
<g id="#71b3d4d7">
<path fill="#71b3d4" opacity="0.84" d=" M 12.13 37.96 C 11.17 35.65 11.37 33.30 12.72 30.89 C 12.79 32.66 12.92 36.20 12.99 37.97 L 12.13 37.96 Z" />
</g>
<g id="#6bb0eaff">
<path fill="#6bb0ea" opacity="1.00" d=" M 204.15 33.91 C 208.32 35.56 204.10 41.12 204.80 43.93 C 204.12 50.63 202.86 57.25 201.90 63.92 C 198.58 64.76 201.55 58.10 201.18 56.07 C 203.17 48.84 202.99 41.28 204.15 33.91 Z" />
</g>
<g id="#6f99aeaf">
<path fill="#6f99ae" opacity="0.69" d=" M 6.98 36.01 L 8.00 36.01 C 7.95 39.10 7.78 42.18 7.65 45.26 C 6.70 42.27 6.96 39.10 6.98 36.01 Z" />
</g>
<g id="#415d7476">
<path fill="#415d74" opacity="0.46" d=" M 9.02 38.01 L 9.95 37.96 C 9.14 40.26 12.24 47.32 9.06 46.92 C 8.87 43.95 9.00 40.97 9.02 38.01 Z" />
</g>
<g id="#263a4445">
<path fill="#263a44" opacity="0.27" d=" M 12.13 37.96 L 12.99 37.97 C 12.94 42.40 12.86 46.83 12.69 51.27 C 11.23 47.00 12.41 42.35 12.13 37.96 Z" />
</g>
<g id="#5aaccfea">
<path fill="#5aaccf" opacity="0.92" d=" M 208.97 60.15 C 209.02 58.81 209.02 57.42 209.62 56.19 C 210.45 56.26 211.29 56.28 212.14 56.26 C 211.52 57.87 210.53 59.33 208.97 60.15 Z" />
</g>
<g id="#a1d2f7fa">
<path fill="#a1d2f7" opacity="0.98" d=" M 228.98 68.12 C 234.20 65.31 238.56 61.01 244.26 59.10 C 244.27 60.83 244.28 64.29 244.29 66.02 C 243.42 73.32 235.59 76.64 230.85 81.36 C 230.00 80.15 230.09 78.69 230.42 77.32 C 231.26 74.18 229.62 71.15 228.98 68.12 Z" />
</g>
<g id="#789baeaf">
<path fill="#789bae" opacity="0.69" d=" M 244.26 59.10 L 245.00 58.85 L 245.00 65.81 L 244.29 66.02 C 244.28 64.29 244.27 60.83 244.26 59.10 Z" />
</g>
<g id="#64b6d4e6">
<path fill="#64b6d4" opacity="0.90" d=" M 0.00 62.55 C 4.57 65.38 8.80 69.35 11.20 74.19 L 10.89 75.11 C 9.97 74.37 9.04 73.63 8.07 72.94 C 8.07 74.77 8.22 76.59 8.14 78.42 C 4.02 74.25 3.86 67.80 0.00 63.54 L 0.00 62.55 Z" />
</g>
<g id="#79b7e7fc">
<path fill="#79b7e7" opacity="1.00" d=" M 216.96 73.96 C 220.76 71.61 224.98 70.07 228.98 68.12 C 229.62 71.15 231.26 74.18 230.42 77.32 C 230.09 78.69 230.00 80.15 230.85 81.36 C 225.05 85.66 218.52 88.93 211.70 91.29 C 209.89 91.47 212.50 93.04 212.77 93.82 C 209.69 94.65 206.75 96.29 203.41 95.60 C 200.93 94.05 198.48 92.45 196.11 90.75 C 197.07 87.14 198.85 83.77 199.56 80.06 C 203.52 80.95 207.69 80.75 211.74 80.79 C 212.99 79.68 214.10 78.42 215.12 77.09 C 214.00 77.29 212.88 77.50 211.77 77.72 C 212.18 76.48 212.81 75.28 213.80 74.39 C 214.88 74.81 216.03 74.69 216.96 73.96 Z" />
</g>
<g id="#6ea8d6fd">
<path fill="#6ea8d6" opacity="1.00" d=" M 197.03 83.80 C 198.45 79.15 198.20 73.83 200.83 69.71 C 200.70 73.19 200.18 76.64 199.56 80.06 C 198.85 83.77 197.07 87.14 196.11 90.75 C 198.48 92.45 200.93 94.05 203.41 95.60 C 206.75 96.29 209.69 94.65 212.77 93.82 C 212.50 93.04 209.89 91.47 211.70 91.29 C 216.91 92.02 222.05 90.95 227.16 90.09 C 226.94 94.02 224.63 97.40 224.10 101.27 C 218.81 104.49 211.89 103.51 206.76 106.85 C 209.50 106.96 212.26 107.01 215.02 106.98 L 214.97 107.96 C 202.94 108.96 191.01 111.21 179.22 113.81 C 178.93 113.58 178.34 113.11 178.05 112.88 C 181.62 108.75 184.72 104.22 188.04 99.88 C 187.60 99.98 186.71 100.18 186.27 100.28 C 181.55 105.07 177.38 110.40 173.32 115.75 C 172.12 117.38 171.06 119.12 169.76 120.68 C 168.07 120.59 166.38 120.39 164.68 120.59 C 165.69 119.07 166.85 117.67 168.04 116.30 C 174.64 107.87 182.60 100.84 190.10 93.28 C 193.75 91.65 196.13 87.61 197.03 83.80 Z" />
</g>
<g id="#47a1ccfb">
<path fill="#47a1cc" opacity="1.00" d=" M 8.07 72.94 C 9.04 73.63 9.97 74.37 10.89 75.11 C 14.67 78.32 16.53 82.84 17.47 87.60 C 22.30 92.16 25.24 98.34 30.25 102.75 C 38.58 110.10 43.15 121.42 53.17 126.82 C 53.30 128.31 54.76 131.08 52.01 129.96 C 46.44 127.79 40.88 125.23 35.47 122.55 C 35.34 122.16 35.08 121.37 34.95 120.97 C 35.39 118.64 33.01 119.05 31.48 118.73 C 24.54 117.88 16.88 116.77 12.93 110.13 C 16.66 108.26 21.03 108.02 25.13 107.49 C 24.78 106.65 24.19 106.03 23.38 105.61 C 17.52 101.93 12.77 96.70 8.78 91.10 C 13.05 91.90 16.73 94.55 21.04 95.12 C 20.77 94.62 20.24 93.64 19.97 93.14 C 16.38 87.96 10.89 84.28 8.14 78.42 C 8.22 76.59 8.07 74.77 8.07 72.94 Z" />
</g>
<g id="#7ebfefff">
<path fill="#7ebfef" opacity="1.00" d=" M 190.10 93.28 C 192.21 90.10 193.25 85.21 197.03 83.80 C 196.13 87.61 193.75 91.65 190.10 93.28 Z" />
</g>
<g id="#8ebbe1f5">
<path fill="#8ebbe1" opacity="0.96" d=" M 227.16 90.09 C 232.68 87.96 238.63 87.34 244.13 85.18 C 242.51 95.19 232.27 98.11 224.10 101.27 C 224.63 97.40 226.94 94.02 227.16 90.09 Z" />
</g>
<g id="#8cc4ced9">
<path fill="#8cc4ce" opacity="0.85" d=" M 6.69 88.21 C 11.16 89.73 15.31 92.19 19.97 93.14 C 20.24 93.64 20.77 94.62 21.04 95.12 C 16.73 94.55 13.05 91.90 8.78 91.10 C 7.94 90.25 7.16 89.33 6.69 88.21 Z" />
</g>
<g id="#0c283136">
<path fill="#0c2831" opacity="0.21" d=" M 105.29 89.75 C 105.71 89.53 106.55 89.10 106.96 88.89 C 107.18 92.04 106.66 95.16 106.25 98.28 C 106.08 95.41 106.30 92.48 105.29 89.75 Z" />
</g>
<g id="#32a6d1f8">
<path fill="#32a6d1" opacity="0.97" d=" M 105.29 89.75 C 106.30 92.48 106.08 95.41 106.25 98.28 C 105.90 98.46 105.19 98.81 104.84 98.99 C 102.77 98.98 100.78 98.45 98.83 97.82 C 100.90 95.06 103.03 92.35 105.29 89.75 Z" />
</g>
<g id="#2586b8fc">
<path fill="#2586b8" opacity="1.00" d=" M 93.84 105.88 C 95.48 103.18 96.83 100.29 98.83 97.82 C 100.78 98.45 102.77 98.98 104.84 98.99 C 104.64 101.03 104.81 103.08 105.23 105.08 L 104.68 105.85 C 103.61 106.94 102.58 108.06 101.62 109.25 C 100.44 110.69 99.32 112.18 98.40 113.81 C 97.44 115.32 96.53 116.90 95.21 118.16 C 94.26 114.14 94.01 110.00 93.84 105.88 Z" />
</g>
<g id="#17536f99">
<path fill="#17536f" opacity="0.60" d=" M 104.84 98.99 C 105.19 98.81 105.90 98.46 106.25 98.28 C 106.49 100.66 106.15 102.93 105.23 105.08 C 104.81 103.08 104.64 101.03 104.84 98.99 Z" />
</g>
<g id="#689fcdff">
<path fill="#689fcd" opacity="1.00" d=" M 186.27 100.28 C 186.71 100.18 187.60 99.98 188.04 99.88 C 184.72 104.22 181.62 108.75 178.05 112.88 C 178.34 113.11 178.93 113.58 179.22 113.81 C 191.01 111.21 202.94 108.96 214.97 107.96 C 217.04 107.99 219.11 108.03 221.18 108.02 C 219.50 110.92 217.51 113.65 215.96 116.62 C 214.49 116.96 211.55 117.64 210.08 117.98 C 207.43 117.77 204.90 118.09 202.47 118.94 C 196.42 117.64 192.77 120.43 201.20 120.87 C 191.15 121.66 180.93 119.39 171.04 122.07 C 171.97 120.06 174.52 118.15 173.32 115.75 C 177.38 110.40 181.55 105.07 186.27 100.28 Z" />
</g>
<g id="#2d98c4ed">
<path fill="#2d98c4" opacity="0.93" d=" M 80.91 100.98 C 84.57 102.73 88.08 104.81 91.21 107.40 C 88.01 107.65 84.81 107.20 81.61 107.22 C 81.43 105.66 81.09 102.54 80.91 100.98 Z" />
</g>
<g id="#2992c4f7">
<path fill="#2992c4" opacity="0.97" d=" M 108.17 107.08 C 114.92 104.43 121.78 101.47 129.09 100.93 C 125.59 103.76 122.50 107.03 119.22 110.10 C 114.11 109.69 110.08 114.33 104.79 112.95 C 105.62 110.83 107.19 109.12 108.17 107.08 Z" />
</g>
<g id="#165f8cfb">
<path fill="#165f8c" opacity="1.00" d=" M 92.20 108.02 C 92.75 107.31 93.30 106.60 93.84 105.88 C 94.01 110.00 94.26 114.14 95.21 118.16 C 96.53 116.90 97.44 115.32 98.40 113.81 C 98.44 115.57 98.17 117.31 98.10 119.07 C 103.67 118.28 108.76 115.59 114.15 114.06 C 113.43 114.74 112.71 115.41 111.97 116.07 C 111.69 116.25 111.11 116.62 110.83 116.81 C 108.78 117.30 106.76 117.89 104.78 118.60 L 103.97 118.88 C 102.17 119.76 98.99 119.39 98.82 121.99 L 98.24 121.63 C 97.80 119.13 95.53 121.80 94.11 121.94 C 93.87 121.67 93.40 121.11 93.16 120.84 C 92.90 120.48 92.38 119.77 92.11 119.41 C 93.60 115.82 89.25 111.57 92.20 108.02 Z" />
</g>
<g id="#146191e4">
<path fill="#146191" opacity="0.89" d=" M 101.62 109.25 C 102.58 108.06 103.61 106.94 104.68 105.85 C 105.33 106.24 106.62 107.02 107.27 107.41 C 105.39 108.02 103.65 109.26 101.62 109.25 Z" />
</g>
<g id="#237aaafb">
<path fill="#237aaa" opacity="1.00" d=" M 81.61 107.22 C 84.81 107.20 88.01 107.65 91.21 107.40 C 91.46 107.55 91.95 107.87 92.20 108.02 C 89.25 111.57 93.60 115.82 92.11 119.41 C 88.69 117.60 87.17 112.59 82.84 112.96 C 82.18 111.11 81.96 109.15 81.61 107.22 Z" />
</g>
<g id="#217baefd">
<path fill="#217bae" opacity="1.00" d=" M 107.27 107.41 L 108.17 107.08 C 107.19 109.12 105.62 110.83 104.79 112.95 C 110.08 114.33 114.11 109.69 119.22 110.10 C 117.67 111.59 115.88 112.79 114.15 114.06 C 108.76 115.59 103.67 118.28 98.10 119.07 C 98.17 117.31 98.44 115.57 98.40 113.81 C 99.32 112.18 100.44 110.69 101.62 109.25 C 103.65 109.26 105.39 108.02 107.27 107.41 Z" />
</g>
<g id="#47709199">
<path fill="#477091" opacity="0.60" d=" M 215.02 106.98 C 217.78 106.98 220.49 107.36 223.23 107.75 C 222.72 107.81 221.70 107.95 221.18 108.02 C 219.11 108.03 217.04 107.99 214.97 107.96 L 215.02 106.98 Z" />
</g>
<g id="#84afd5f8">
<path fill="#84afd5" opacity="0.97" d=" M 221.18 108.02 C 221.70 107.95 222.72 107.81 223.23 107.75 C 227.19 108.26 231.14 108.91 235.13 109.20 C 233.78 113.91 228.65 116.34 224.14 117.32 C 222.32 117.29 218.67 117.22 216.84 117.19 L 215.96 116.62 C 217.51 113.65 219.50 110.92 221.18 108.02 Z" />
</g>
<g id="#165176fa">
<path fill="#165176" opacity="0.98" d=" M 82.84 112.96 C 87.17 112.59 88.69 117.60 92.11 119.41 C 92.38 119.77 92.90 120.48 93.16 120.84 L 92.32 121.12 C 91.30 120.68 90.28 120.23 89.26 119.79 C 88.68 119.64 87.52 119.33 86.94 119.18 C 84.79 117.71 83.37 115.51 82.84 112.96 Z" />
</g>
<g id="#7fc6f2f7">
<path fill="#7fc6f2" opacity="0.97" d=" M 158.74 121.71 C 161.41 119.46 163.32 116.48 165.68 113.93 C 166.45 114.73 167.24 115.53 168.04 116.30 C 166.85 117.67 165.69 119.07 164.68 120.59 C 162.24 123.24 159.83 126.01 156.75 127.95 C 147.29 130.15 138.41 134.32 129.16 137.27 C 126.36 137.67 127.12 134.77 126.87 132.98 C 137.41 129.01 148.09 125.41 158.74 121.71 Z" />
</g>
<g id="#72b5effc">
<path fill="#72b5ef" opacity="1.00" d=" M 110.83 116.81 C 111.11 116.62 111.69 116.25 111.97 116.07 C 112.12 117.98 112.53 119.86 112.67 121.78 C 112.60 125.83 110.82 130.40 112.69 134.29 C 113.65 136.47 114.97 139.57 118.60 136.55 C 121.38 135.42 124.06 134.04 126.87 132.98 C 127.12 134.77 126.36 137.67 129.16 137.27 C 127.00 137.99 124.82 138.66 122.75 139.64 C 122.29 139.71 121.37 139.85 120.90 139.92 C 117.54 139.78 115.24 142.09 113.72 144.80 C 112.43 144.72 111.18 144.38 109.92 144.15 L 109.11 143.92 C 107.63 141.93 106.39 139.69 104.45 138.08 C 104.19 139.51 103.15 140.30 101.99 139.15 C 101.59 136.46 97.40 135.48 94.97 135.96 C 94.55 134.69 94.24 133.39 94.01 132.08 C 96.47 132.18 98.17 130.43 99.99 129.07 C 106.35 128.25 107.13 120.88 110.83 116.81 Z" />
</g>
<g id="#5f94c1ff">
<path fill="#5f94c1" opacity="1.00" d=" M 173.32 115.75 C 174.52 118.15 171.97 120.06 171.04 122.07 C 180.93 119.39 191.15 121.66 201.20 120.87 C 203.18 120.94 205.15 120.91 207.13 120.85 C 208.07 121.58 209.49 121.85 210.03 123.01 C 208.79 125.08 207.34 127.02 205.89 128.96 C 205.11 129.04 203.54 129.21 202.76 129.30 L 201.92 129.19 C 200.60 128.57 198.98 127.60 197.69 128.87 C 196.22 129.10 193.27 129.58 191.80 129.81 C 189.02 129.89 184.67 129.84 184.64 126.14 C 179.42 126.88 174.14 125.73 168.99 126.99 C 169.17 125.25 169.59 123.56 169.86 121.84 C 167.73 123.55 166.34 125.94 164.72 128.10 C 162.09 128.55 159.32 128.75 156.75 127.95 C 159.83 126.01 162.24 123.24 164.68 120.59 C 166.38 120.39 168.07 120.59 169.76 120.68 C 171.06 119.12 172.12 117.38 173.32 115.75 Z" />
</g>
<g id="#67a3deff">
<path fill="#67a3de" opacity="1.00" d=" M 104.78 118.60 C 106.76 117.89 108.78 117.30 110.83 116.81 C 107.13 120.88 106.35 128.25 99.99 129.07 L 100.33 128.26 C 101.67 125.95 98.81 123.84 98.24 121.63 L 98.82 121.99 C 100.49 123.35 104.54 125.70 105.22 122.36 C 106.43 121.07 107.76 118.47 104.78 118.60 Z" />
</g>
<g id="#5680a1c7">
<path fill="#5680a1" opacity="0.78" d=" M 210.08 117.98 C 211.55 117.64 214.49 116.96 215.96 116.62 L 216.84 117.19 L 216.91 117.95 C 215.20 117.96 211.79 117.97 210.08 117.98 Z" />
</g>
<g id="#1d262e37">
<path fill="#1d262e" opacity="0.22" d=" M 216.84 117.19 C 218.67 117.22 222.32 117.29 224.14 117.32 C 222.00 118.75 219.59 118.96 216.91 117.95 L 216.84 117.19 Z" />
</g>
<g id="#2134434e">
<path fill="#213443" opacity="0.31" d=" M 202.47 118.94 C 204.90 118.09 207.43 117.77 210.08 117.98 C 208.97 118.66 207.84 119.29 206.73 119.96 C 205.24 119.90 203.74 119.77 202.47 118.94 Z" />
</g>
<g id="#84d8e8fa">
<path fill="#84d8e8" opacity="0.98" d=" M 31.48 118.73 C 33.01 119.05 35.39 118.64 34.95 120.97 C 32.93 120.65 30.88 120.63 28.85 120.41 C 29.51 119.99 30.82 119.15 31.48 118.73 Z" />
</g>
<g id="#c2ccd5ff">
<path fill="#c2ccd5" opacity="1.00" d=" M 86.94 119.18 C 87.52 119.33 88.68 119.64 89.26 119.79 C 89.20 120.31 89.09 121.34 89.03 121.86 C 88.52 122.15 87.51 122.72 87.00 123.00 C 86.86 121.73 86.85 120.45 86.94 119.18 Z" />
</g>
<g id="#64625cff">
<path fill="#64625c" opacity="1.00" d=" M 98.82 121.99 C 98.99 119.39 102.17 119.76 103.97 118.88 C 103.74 120.29 104.16 121.45 105.22 122.36 C 104.54 125.70 100.49 123.35 98.82 121.99 Z" />
</g>
<g id="#fefefdff">
<path fill="#fefefd" opacity="1.00" d=" M 103.97 118.88 L 104.78 118.60 C 107.76 118.47 106.43 121.07 105.22 122.36 C 104.16 121.45 103.74 120.29 103.97 118.88 Z" />
</g>
<g id="#76bbf0ff">
<path fill="#76bbf0" opacity="1.00" d=" M 201.20 120.87 C 192.77 120.43 196.42 117.64 202.47 118.94 C 203.74 119.77 205.24 119.90 206.73 119.96 L 207.13 120.85 C 205.15 120.91 203.18 120.94 201.20 120.87 Z" />
</g>
<g id="#4192c0f7">
<path fill="#4192c0" opacity="0.97" d=" M 26.64 121.69 C 27.37 121.25 28.10 120.82 28.85 120.41 C 30.88 120.63 32.93 120.65 34.95 120.97 C 35.08 121.37 35.34 122.16 35.47 122.55 C 40.88 125.23 46.44 127.79 52.01 129.96 C 54.76 131.08 53.30 128.31 53.17 126.82 C 59.55 129.28 65.91 131.82 72.15 134.63 C 68.12 134.54 71.82 136.64 72.91 138.10 C 75.13 139.85 71.54 143.28 74.24 144.76 C 76.63 146.25 78.01 148.26 77.72 151.16 C 76.50 150.73 75.28 150.31 74.06 149.91 C 71.59 148.40 70.84 145.59 70.73 142.87 C 70.09 144.24 69.57 145.66 68.82 146.97 C 65.01 147.82 65.79 141.21 65.64 139.70 C 64.70 142.13 64.18 144.75 62.85 147.03 C 60.82 146.66 59.00 145.62 57.18 144.71 C 56.75 142.75 57.61 140.82 57.90 138.90 C 56.47 140.09 55.18 141.44 53.76 142.64 C 51.83 142.26 49.99 141.58 48.17 140.86 C 48.72 139.84 49.35 138.87 49.92 137.87 C 46.95 139.63 43.22 140.46 40.01 138.83 C 39.84 137.37 43.52 133.77 40.38 135.46 C 37.16 137.98 33.48 136.59 31.89 133.02 C 32.81 131.29 34.88 130.57 36.24 129.21 C 37.91 127.27 33.11 128.05 32.02 127.81 C 30.48 125.55 28.84 123.34 26.64 121.69 Z" />
</g>
<g id="#5b4d50ff">
<path fill="#5b4d50" opacity="1.00" d=" M 89.26 119.79 C 90.28 120.23 91.30 120.68 92.32 121.12 C 90.98 122.29 88.28 125.96 89.03 121.86 C 89.09 121.34 89.20 120.31 89.26 119.79 Z" />
</g>
<g id="#76818fff">
<path fill="#76818f" opacity="1.00" d=" M 94.11 121.94 C 95.53 121.80 97.80 119.13 98.24 121.63 C 98.81 123.84 101.67 125.95 100.33 128.26 C 97.50 128.52 94.66 128.80 91.83 129.05 C 90.70 126.59 91.62 123.18 94.11 121.94 Z" />
</g>
<g id="#76a1c7f1">
<path fill="#76a1c7" opacity="0.95" d=" M 206.73 119.96 C 211.93 120.69 217.31 121.67 221.99 124.14 C 221.37 127.32 217.04 128.33 214.30 129.39 C 211.49 129.21 208.69 129.06 205.89 128.96 C 207.34 127.02 208.79 125.08 210.03 123.01 C 209.49 121.85 208.07 121.58 207.13 120.85 L 206.73 119.96 Z" />
</g>
<g id="#5e8ab7f7">
<path fill="#5e8ab7" opacity="0.97" d=" M 92.32 121.12 L 93.16 120.84 C 93.40 121.11 93.87 121.67 94.11 121.94 C 91.62 123.18 90.70 126.59 91.83 129.05 C 90.56 128.66 89.25 128.46 87.94 128.81 C 87.46 126.91 87.06 124.97 87.00 123.00 C 87.51 122.72 88.52 122.15 89.03 121.86 C 88.28 125.96 90.98 122.29 92.32 121.12 Z" />
</g>
<g id="#4ca6c9ef">
<path fill="#4ca6c9" opacity="0.94" d=" M 23.15 124.80 C 22.45 122.59 25.34 122.59 26.64 121.69 C 28.84 123.34 30.48 125.55 32.02 127.81 C 31.53 128.03 30.56 128.47 30.07 128.68 C 27.48 128.02 24.98 126.78 23.15 124.80 Z" />
</g>
<g id="#3045555d">
<path fill="#304555" opacity="0.36" d=" M 112.69 134.29 C 110.82 130.40 112.60 125.83 112.67 121.78 C 112.91 125.95 112.91 130.12 112.69 134.29 Z" />
</g>
<g id="#588bb8fd">
<path fill="#588bb8" opacity="1.00" d=" M 164.72 128.10 C 166.34 125.94 167.73 123.55 169.86 121.84 C 169.59 123.56 169.17 125.25 168.99 126.99 C 174.14 125.73 179.42 126.88 184.64 126.14 C 184.67 129.84 189.02 129.89 191.80 129.81 C 195.00 130.23 198.15 131.03 201.40 131.08 C 200.50 132.68 199.54 134.25 198.69 135.88 C 197.72 136.11 196.77 136.37 195.82 136.66 L 195.05 136.87 C 194.34 134.58 191.55 134.21 189.93 135.81 C 186.88 135.74 180.02 135.55 181.56 131.10 C 176.47 129.03 170.64 130.59 165.32 129.78 C 165.17 129.36 164.87 128.52 164.72 128.10 Z" />
</g>
<g id="#347296ba">
<path fill="#347296" opacity="0.73" d=" M 30.07 128.68 C 30.56 128.47 31.53 128.03 32.02 127.81 C 33.11 128.05 37.91 127.27 36.24 129.21 C 34.18 129.16 32.08 129.20 30.07 128.68 Z" />
</g>
<g id="#5989b5d9">
<path fill="#5989b5" opacity="0.85" d=" M 87.94 128.81 C 89.25 128.46 90.56 128.66 91.83 129.05 C 92.57 130.04 93.30 131.05 94.01 132.08 C 92.40 132.01 90.79 131.97 89.19 132.08 C 88.59 133.09 89.79 136.54 88.00 135.85 C 87.99 134.09 87.96 130.57 87.94 128.81 Z" />
</g>
<g id="#4d5d6dff">
<path fill="#4d5d6d" opacity="1.00" d=" M 91.83 129.05 C 94.66 128.80 97.50 128.52 100.33 128.26 L 99.99 129.07 C 98.17 130.43 96.47 132.18 94.01 132.08 C 93.30 131.05 92.57 130.04 91.83 129.05 Z" />
</g>
<g id="#5586b2fc">
<path fill="#5586b2" opacity="1.00" d=" M 129.16 137.27 C 138.41 134.32 147.29 130.15 156.75 127.95 C 159.32 128.75 162.09 128.55 164.72 128.10 C 164.87 128.52 165.17 129.36 165.32 129.78 C 170.64 130.59 176.47 129.03 181.56 131.10 C 180.02 135.55 186.88 135.74 189.93 135.81 C 191.36 136.35 192.76 137.06 194.33 137.14 C 192.76 137.96 190.36 137.76 189.76 139.77 C 187.44 145.09 181.05 141.91 176.83 141.07 C 178.01 142.78 181.26 143.34 180.88 145.79 C 178.45 148.79 173.71 146.51 170.86 144.95 C 169.98 143.31 170.16 141.50 170.69 139.78 C 172.31 140.33 176.95 144.03 175.85 140.21 C 174.16 139.89 172.33 138.71 170.69 139.78 C 165.87 143.50 163.42 134.26 158.01 136.82 C 149.21 134.14 140.92 139.97 132.09 138.38 C 129.76 138.70 125.09 139.33 122.75 139.64 C 124.82 138.66 127.00 137.99 129.16 137.27 Z" />
</g>
<g id="#334c6070">
<path fill="#334c60" opacity="0.44" d=" M 197.69 128.87 C 198.98 127.60 200.60 128.57 201.92 129.19 C 201.95 129.58 202.01 130.34 202.04 130.72 L 201.40 131.08 C 200.13 130.40 198.74 129.88 197.69 128.87 Z" />
</g>
<g id="#7dbdedf8">
<path fill="#7dbded" opacity="0.97" d=" M 191.80 129.81 C 193.27 129.58 196.22 129.10 197.69 128.87 C 198.74 129.88 200.13 130.40 201.40 131.08 C 198.15 131.03 195.00 130.23 191.80 129.81 Z" />
</g>
<g id="#2e3e4e63">
<path fill="#2e3e4e" opacity="0.39" d=" M 202.76 129.30 C 203.54 129.21 205.11 129.04 205.89 128.96 C 208.69 129.06 211.49 129.21 214.30 129.39 C 210.57 130.60 206.51 129.78 202.76 129.30 Z" />
</g>
<g id="#719dc2f1">
<path fill="#719dc2" opacity="0.95" d=" M 201.40 131.08 L 202.04 130.72 C 204.82 130.94 207.42 131.98 209.87 133.25 C 208.96 137.79 202.10 137.69 198.69 135.88 C 199.54 134.25 200.50 132.68 201.40 131.08 Z" />
</g>
<g id="#72aee1fc">
<path fill="#72aee1" opacity="1.00" d=" M 89.19 132.08 C 90.79 131.97 92.40 132.01 94.01 132.08 C 94.24 133.39 94.55 134.69 94.97 135.96 C 94.06 137.10 93.06 138.16 92.19 139.32 L 91.81 139.82 C 89.15 138.04 88.44 140.45 88.05 142.79 L 87.30 143.13 C 85.38 141.37 83.95 138.67 80.97 138.90 C 78.40 138.06 75.76 137.17 73.75 135.27 C 76.26 134.61 81.23 136.87 81.15 133.09 C 83.35 134.19 85.62 135.18 88.00 135.85 C 89.79 136.54 88.59 133.09 89.19 132.08 Z" />
</g>
<g id="#417aaffc">
<path fill="#417aaf" opacity="1.00" d=" M 72.91 138.10 C 71.82 136.64 68.12 134.54 72.15 134.63 C 72.55 134.79 73.35 135.11 73.75 135.27 C 75.76 137.17 78.40 138.06 80.97 138.90 C 83.34 140.36 84.27 142.83 84.95 145.40 C 84.33 147.49 83.64 149.57 83.09 151.69 L 82.14 151.85 C 80.17 151.73 78.57 151.94 79.71 154.17 C 77.86 154.29 78.02 152.46 77.72 151.16 C 78.01 148.26 76.63 146.25 74.24 144.76 C 71.54 143.28 75.13 139.85 72.91 138.10 Z" />
</g>
<g id="#9ed3f8ff">
<path fill="#9ed3f8" opacity="1.00" d=" M 94.97 135.96 C 97.40 135.48 101.59 136.46 101.99 139.15 C 100.82 138.23 99.83 138.00 99.67 139.82 C 98.43 139.37 97.07 136.62 95.94 137.82 C 94.86 138.77 93.74 139.96 92.19 139.32 C 93.06 138.16 94.06 137.10 94.97 135.96 Z" />
</g>
<g id="#8ac2edff">
<path fill="#8ac2ed" opacity="1.00" d=" M 189.93 135.81 C 191.55 134.21 194.34 134.58 195.05 136.87 L 194.33 137.14 C 192.76 137.06 191.36 136.35 189.93 135.81 Z" />
</g>
<g id="#4b79a5fb">
<path fill="#4b79a5" opacity="1.00" d=" M 132.09 138.38 C 140.92 139.97 149.21 134.14 158.01 136.82 C 163.42 134.26 165.87 143.50 170.69 139.78 C 170.16 141.50 169.98 143.31 170.86 144.95 C 169.05 148.85 164.06 146.16 161.30 144.70 C 159.64 143.70 157.83 142.93 155.85 142.96 C 157.19 144.11 158.64 145.12 160.10 146.11 C 159.14 147.40 158.24 148.74 157.53 150.18 C 155.59 149.38 153.89 147.99 151.81 147.56 C 150.57 146.59 149.29 145.65 147.89 144.92 C 148.16 147.85 151.04 149.49 153.29 150.91 C 155.58 156.01 146.59 154.12 144.67 151.27 C 145.86 145.32 139.24 144.31 135.19 142.42 C 134.09 142.96 133.05 143.60 132.00 144.22 C 128.66 143.25 126.13 140.09 122.24 141.13 C 120.14 142.12 121.66 144.35 122.04 145.93 C 123.12 149.14 126.91 149.85 129.05 151.96 C 128.88 152.21 128.55 152.71 128.38 152.96 C 124.41 151.45 120.97 149.22 120.05 144.77 C 119.97 143.10 120.25 141.46 120.90 139.92 C 121.37 139.85 122.29 139.71 122.75 139.64 C 125.09 139.33 129.76 138.70 132.09 138.38 M 160.85 140.10 C 161.64 142.89 165.52 143.91 168.01 145.08 C 168.49 141.39 162.95 141.89 160.85 140.10 Z" />
</g>
<g id="#d4faffff">
<path fill="#d4faff" opacity="1.00" d=" M 95.94 137.82 C 97.07 136.62 98.43 139.37 99.67 139.82 C 99.83 138.00 100.82 138.23 101.99 139.15 C 103.15 140.30 104.19 139.51 104.45 138.08 C 106.39 139.69 107.63 141.93 109.11 143.92 C 105.76 152.99 112.09 161.68 110.69 170.70 C 108.28 172.78 107.21 178.26 103.12 176.94 C 99.55 175.34 95.96 173.50 93.13 170.75 C 91.40 161.24 95.92 152.13 94.41 142.69 C 94.35 140.96 95.53 139.46 95.94 137.82 Z" />
</g>
<g id="#729cc2f9">
<path fill="#729cc2" opacity="0.98" d=" M 194.33 137.14 L 195.05 136.87 L 195.82 136.66 C 197.31 137.53 200.60 137.36 199.91 139.84 C 196.74 141.49 193.08 140.31 189.76 139.77 C 190.36 137.76 192.76 137.96 194.33 137.14 Z" />
</g>
<g id="#c6e9f8ff">
<path fill="#c6e9f8" opacity="1.00" d=" M 92.19 139.32 C 93.74 139.96 94.86 138.77 95.94 137.82 C 95.53 139.46 94.35 140.96 94.41 142.69 C 95.92 152.13 91.40 161.24 93.13 170.75 C 95.96 173.50 99.55 175.34 103.12 176.94 C 107.21 178.26 108.28 172.78 110.69 170.70 C 112.09 161.68 105.76 152.99 109.11 143.92 L 109.92 144.15 C 110.69 145.02 111.46 145.88 112.19 146.78 C 110.93 155.09 115.42 163.10 113.42 171.35 C 112.65 174.79 110.32 177.57 107.78 179.88 C 100.52 181.86 93.64 176.73 90.37 170.61 C 89.10 160.30 90.39 150.01 91.81 139.82 L 92.19 139.32 Z" />
</g>
<g id="#629accff">
<path fill="#629acc" opacity="1.00" d=" M 80.97 138.90 C 83.95 138.67 85.38 141.37 87.30 143.13 C 86.51 143.88 85.73 144.64 84.95 145.40 C 84.27 142.83 83.34 140.36 80.97 138.90 Z" />
</g>
<g id="#b8d6e6ff">
<path fill="#b8d6e6" opacity="1.00" d=" M 88.05 142.79 C 88.44 140.45 89.15 138.04 91.81 139.82 C 90.39 150.01 89.10 160.30 90.37 170.61 C 93.64 176.73 100.52 181.86 107.78 179.88 C 110.32 177.57 112.65 174.79 113.42 171.35 C 115.42 163.10 110.93 155.09 112.19 146.78 C 113.00 147.69 113.69 148.68 114.12 149.82 C 113.76 156.16 117.61 162.11 116.64 168.42 C 117.19 173.59 113.14 176.93 110.85 180.95 C 108.45 183.78 104.43 183.13 101.09 182.87 C 94.90 181.73 90.47 176.68 87.65 171.35 C 85.04 161.93 88.48 152.22 88.05 142.79 Z" />
</g>
<g id="#7cb9e8ff">
<path fill="#7cb9e8" opacity="1.00" d=" M 170.69 139.78 C 172.33 138.71 174.16 139.89 175.85 140.21 C 176.95 144.03 172.31 140.33 170.69 139.78 Z" />
</g>
<g id="#69a2d6fd">
<path fill="#69a2d6" opacity="1.00" d=" M 113.72 144.80 C 115.24 142.09 117.54 139.78 120.90 139.92 C 120.25 141.46 119.97 143.10 120.05 144.77 C 120.03 146.45 119.96 148.14 120.17 149.81 C 121.78 151.96 125.49 151.76 126.15 154.69 C 124.92 156.90 125.80 159.35 125.85 161.71 C 122.02 167.02 130.07 173.99 125.17 178.17 C 122.91 171.01 123.21 163.44 121.85 156.12 C 121.01 153.55 118.50 151.60 115.93 150.97 C 115.47 150.68 114.57 150.11 114.12 149.82 C 113.69 148.68 113.00 147.69 112.19 146.78 C 111.46 145.88 110.69 145.02 109.92 144.15 C 111.18 144.38 112.43 144.72 113.72 144.80 Z" />
</g>
<g id="#78b0e0ff">
<path fill="#78b0e0" opacity="1.00" d=" M 160.85 140.10 C 162.95 141.89 168.49 141.39 168.01 145.08 C 165.52 143.91 161.64 142.89 160.85 140.10 Z" />
</g>
<g id="#396b9efc">
<path fill="#396b9e" opacity="1.00" d=" M 122.24 141.13 C 126.13 140.09 128.66 143.25 132.00 144.22 C 130.64 145.16 129.00 145.75 127.88 146.99 C 129.43 148.56 130.36 151.94 133.05 151.32 C 134.83 151.25 134.95 153.84 135.75 155.04 C 135.78 155.74 135.84 157.13 135.87 157.83 C 132.24 159.54 129.41 157.56 126.80 155.15 C 127.19 154.60 127.99 153.51 128.38 152.96 C 128.55 152.71 128.88 152.21 129.05 151.96 C 126.91 149.85 123.12 149.14 122.04 145.93 C 121.66 144.35 120.14 142.12 122.24 141.13 Z" />
</g>
<g id="#3b6591f8">
<path fill="#3b6591" opacity="0.97" d=" M 135.19 142.42 C 139.24 144.31 145.86 145.32 144.67 151.27 C 144.33 151.20 143.64 151.06 143.30 150.98 C 143.12 149.50 141.69 147.92 140.13 148.30 C 139.34 150.12 141.60 151.35 143.07 151.69 C 144.49 152.61 145.31 154.03 144.96 155.76 C 143.03 156.15 141.11 156.64 139.15 156.85 C 137.47 156.91 137.35 152.68 135.75 155.04 C 134.95 153.84 134.83 151.25 133.05 151.32 C 130.36 151.94 129.43 148.56 127.88 146.99 C 129.00 145.75 130.64 145.16 132.00 144.22 C 133.05 143.60 134.09 142.96 135.19 142.42 Z" />
</g>
<g id="#abc5d3ff">
<path fill="#abc5d3" opacity="1.00" d=" M 87.30 143.13 L 88.05 142.79 C 88.48 152.22 85.04 161.93 87.65 171.35 C 90.47 176.68 94.90 181.73 101.09 182.87 C 104.43 183.13 108.45 183.78 110.85 180.95 C 110.90 181.41 111.02 182.33 111.08 182.80 C 111.10 183.36 111.15 184.48 111.17 185.04 C 103.48 186.81 94.88 184.45 89.32 178.75 C 87.53 174.64 84.75 170.70 85.12 166.00 C 84.38 161.29 86.59 155.64 83.09 151.69 C 83.64 149.57 84.33 147.49 84.95 145.40 C 85.73 144.64 86.51 143.88 87.30 143.13 Z" />
</g>
<g id="#81bde8ff">
<path fill="#81bde8" opacity="1.00" d=" M 155.85 142.96 C 157.83 142.93 159.64 143.70 161.30 144.70 L 161.02 145.61 L 160.10 146.11 C 158.64 145.12 157.19 144.11 155.85 142.96 Z" />
</g>
<g id="#5d91c2ff">
<path fill="#5d91c2" opacity="1.00" d=" M 120.05 144.77 C 120.97 149.22 124.41 151.45 128.38 152.96 C 127.99 153.51 127.19 154.60 126.80 155.15 L 126.15 154.69 C 125.49 151.76 121.78 151.96 120.17 149.81 C 119.96 148.14 120.03 146.45 120.05 144.77 Z" />
</g>
<g id="#71a8cff8">
<path fill="#71a8cf" opacity="0.97" d=" M 147.89 144.92 C 149.29 145.65 150.57 146.59 151.81 147.56 C 152.31 148.67 152.80 149.79 153.29 150.91 C 151.04 149.49 148.16 147.85 147.89 144.92 Z" />
</g>
<g id="#628eb0f2">
<path fill="#628eb0" opacity="0.95" d=" M 160.10 146.11 L 161.02 145.61 C 162.18 146.86 164.09 147.82 164.02 149.78 C 161.88 149.92 159.56 151.35 157.53 150.18 C 158.24 148.74 159.14 147.40 160.10 146.11 Z" />
</g>
<g id="#699cc4f4">
<path fill="#699cc4" opacity="0.96" d=" M 140.13 148.30 C 141.69 147.92 143.12 149.50 143.30 150.98 L 143.07 151.69 C 141.60 151.35 139.34 150.12 140.13 148.30 Z" />
</g>
<g id="#1f79a3f3">
<path fill="#1f79a3" opacity="0.95" d=" M 74.06 149.91 C 75.28 150.31 76.50 150.73 77.72 151.16 C 78.02 152.46 77.86 154.29 79.71 154.17 C 78.57 151.94 80.17 151.73 82.14 151.85 C 81.80 156.59 80.11 161.09 79.49 165.78 C 79.79 168.83 80.38 171.88 81.05 174.88 C 81.31 176.21 81.77 177.50 82.19 178.80 C 82.48 185.37 81.90 191.87 80.11 198.18 C 79.44 199.21 78.79 200.25 78.08 201.25 C 78.01 192.81 79.42 184.43 79.04 175.98 C 79.22 174.60 78.00 173.70 77.30 172.70 C 76.95 171.72 76.59 170.74 76.23 169.77 C 75.88 163.11 74.50 156.56 74.06 149.91 Z" />
</g>
<g id="#a9c4d8ff">
<path fill="#a9c4d8" opacity="1.00" d=" M 114.12 149.82 C 114.57 150.11 115.47 150.68 115.93 150.97 C 116.31 151.94 116.70 152.91 117.11 153.87 C 117.43 162.87 120.59 173.31 113.80 180.79 C 113.06 180.83 111.59 180.91 110.85 180.95 C 113.14 176.93 117.19 173.59 116.64 168.42 C 117.61 162.11 113.76 156.16 114.12 149.82 Z" />
</g>
<g id="#598bbefe">
<path fill="#598bbe" opacity="1.00" d=" M 115.93 150.97 C 118.50 151.60 121.01 153.55 121.85 156.12 C 123.21 163.44 122.91 171.01 125.17 178.17 C 124.82 178.61 124.12 179.48 123.77 179.92 C 121.20 182.71 121.21 187.34 123.84 190.12 C 125.84 192.98 127.86 197.27 131.97 197.15 C 131.27 198.79 130.68 200.47 129.88 202.07 C 125.31 199.19 122.22 194.71 120.45 189.65 C 120.23 186.03 120.93 182.34 120.36 178.75 C 120.19 177.46 120.05 176.18 119.93 174.89 L 120.08 174.12 C 120.96 171.03 121.43 167.80 120.39 164.73 C 119.98 160.93 118.50 157.39 117.11 153.87 C 116.70 152.91 116.31 151.94 115.93 150.97 Z" />
</g>
<g id="#9bb4c4ff">
<path fill="#9bb4c4" opacity="1.00" d=" M 82.14 151.85 L 83.09 151.69 C 86.59 155.64 84.38 161.29 85.12 166.00 C 84.75 170.70 87.53 174.64 89.32 178.75 C 94.88 184.45 103.48 186.81 111.17 185.04 L 111.23 185.95 L 111.05 186.94 C 105.37 187.55 98.95 188.81 93.98 185.00 C 89.32 182.55 85.70 178.63 82.81 174.31 C 82.37 174.45 81.49 174.73 81.05 174.88 C 80.38 171.88 79.79 168.83 79.49 165.78 C 80.11 161.09 81.80 156.59 82.14 151.85 Z" />
</g>
<g id="#9cb4c8ff">
<path fill="#9cb4c8" opacity="1.00" d=" M 117.11 153.87 C 118.50 157.39 119.98 160.93 120.39 164.73 C 120.26 167.84 120.14 170.99 120.08 174.12 L 119.93 174.89 C 117.50 176.51 115.80 179.13 116.07 182.15 C 116.03 182.62 115.93 183.58 115.88 184.05 C 114.09 185.66 112.61 183.76 111.08 182.80 C 111.02 182.33 110.90 181.41 110.85 180.95 C 111.59 180.91 113.06 180.83 113.80 180.79 C 120.59 173.31 117.43 162.87 117.11 153.87 Z" />
</g>
<g id="#76b8f0fa">
<path fill="#76b8f0" opacity="0.98" d=" M 125.17 178.17 C 130.07 173.99 122.02 167.02 125.85 161.71 C 128.30 167.79 130.86 173.83 133.30 179.91 L 133.39 180.75 C 133.27 183.59 132.49 186.60 133.82 189.26 C 133.87 190.94 134.23 192.77 133.29 194.29 C 127.29 192.55 124.48 185.66 123.77 179.92 C 124.12 179.48 124.82 178.61 125.17 178.17 Z" />
</g>
<g id="#839cb8ff">
<path fill="#839cb8" opacity="1.00" d=" M 120.39 164.73 C 121.43 167.80 120.96 171.03 120.08 174.12 C 120.14 170.99 120.26 167.84 120.39 164.73 Z" />
</g>
<g id="#277f9090">
<path fill="#277f90" opacity="0.56" d=" M 176.72 168.67 C 180.74 167.33 185.18 167.92 189.24 168.76 C 185.06 168.83 180.89 168.79 176.72 168.67 Z" />
</g>
<g id="#3ed1f8fd">
<path fill="#3ed1f8" opacity="1.00" d=" M 163.13 170.92 C 167.60 169.83 172.18 169.38 176.72 168.67 C 180.89 168.79 185.06 168.83 189.24 168.76 C 190.55 169.32 192.40 169.56 193.09 170.94 C 191.45 171.97 188.17 174.05 186.53 175.08 C 183.44 172.34 179.35 175.98 176.04 176.16 C 170.31 177.94 164.58 179.82 158.59 180.44 C 152.04 180.72 145.29 184.52 138.90 181.23 C 146.81 179.81 154.14 176.51 161.55 173.54 C 162.10 172.68 162.63 171.81 163.13 170.92 Z" />
</g>
<g id="#05141c25">
<path fill="#05141c" opacity="0.15" d=" M 76.23 169.77 C 76.59 170.74 76.95 171.72 77.30 172.70 C 77.01 178.55 77.25 184.46 76.36 190.27 C 75.60 183.46 76.13 176.59 76.23 169.77 Z" />
</g>
<g id="#2d94bbed">
<path fill="#2d94bb" opacity="0.93" d=" M 135.81 179.65 C 144.57 175.83 153.77 172.89 163.13 170.92 C 162.63 171.81 162.10 172.68 161.55 173.54 C 154.14 176.51 146.81 179.81 138.90 181.23 C 137.88 180.69 136.85 180.16 135.81 179.65 Z" />
</g>
<g id="#2086b5f8">
<path fill="#2086b5" opacity="0.97" d=" M 77.30 172.70 C 78.00 173.70 79.22 174.60 79.04 175.98 C 79.42 184.43 78.01 192.81 78.08 201.25 C 78.79 200.25 79.44 199.21 80.11 198.18 C 82.67 196.91 85.13 194.67 88.19 195.82 C 88.00 197.94 87.69 200.06 87.31 202.16 C 89.26 202.10 90.91 201.05 92.44 199.95 C 93.17 200.74 93.77 201.62 94.36 202.51 C 93.13 203.08 91.91 203.67 90.69 204.28 C 86.46 201.68 82.67 204.75 78.98 206.76 C 78.68 207.03 78.08 207.56 77.78 207.83 C 77.51 208.10 76.97 208.65 76.70 208.92 C 75.26 208.92 72.40 208.93 70.96 208.93 C 71.11 202.36 76.45 197.00 76.36 190.27 C 77.25 184.46 77.01 178.55 77.30 172.70 Z" />
</g>
<g id="#8aa3b5ff">
<path fill="#8aa3b5" opacity="1.00" d=" M 81.05 174.88 C 81.49 174.73 82.37 174.45 82.81 174.31 C 85.70 178.63 89.32 182.55 93.98 185.00 C 98.95 188.81 105.37 187.55 111.05 186.94 C 111.29 190.04 108.39 190.35 106.04 189.83 C 106.35 187.70 105.44 188.07 104.25 189.22 C 100.16 190.92 95.95 188.70 91.86 188.05 C 91.66 187.80 91.28 187.30 91.08 187.06 C 89.21 184.09 85.67 182.93 82.95 180.94 C 82.76 180.41 82.38 179.33 82.19 178.80 C 81.77 177.50 81.31 176.21 81.05 174.88 Z" />
</g>
<g id="#31a6d6f8">
<path fill="#31a6d6" opacity="0.97" d=" M 176.04 176.16 C 179.35 175.98 183.44 172.34 186.53 175.08 C 175.30 181.08 162.64 183.64 150.28 186.32 C 145.27 186.22 140.25 185.65 135.26 186.13 C 135.15 186.60 134.94 187.55 134.84 188.03 L 133.85 188.17 C 133.84 185.68 133.69 183.21 133.39 180.75 L 133.30 179.91 C 133.92 179.84 135.18 179.72 135.81 179.65 C 136.85 180.16 137.88 180.69 138.90 181.23 C 145.29 184.52 152.04 180.72 158.59 180.44 C 164.58 179.82 170.31 177.94 176.04 176.16 Z" />
</g>
<g id="#879bb0ff">
<path fill="#879bb0" opacity="1.00" d=" M 116.07 182.15 C 115.80 179.13 117.50 176.51 119.93 174.89 C 120.05 176.18 120.19 177.46 120.36 178.75 C 120.02 179.30 119.36 180.41 119.02 180.96 C 117.57 179.91 116.66 180.66 116.07 182.15 Z" />
</g>
<g id="#2783afff">
<path fill="#2783af" opacity="1.00" d=" M 82.19 178.80 C 82.38 179.33 82.76 180.41 82.95 180.94 C 83.52 183.16 84.69 185.13 85.88 187.07 C 86.18 188.86 86.78 190.58 87.61 192.19 C 88.14 193.41 88.70 194.62 89.25 195.83 L 88.19 195.82 C 85.13 194.67 82.67 196.91 80.11 198.18 C 81.90 191.87 82.48 185.37 82.19 178.80 Z" />
</g>
<g id="#436c9bfd">
<path fill="#436c9b" opacity="1.00" d=" M 120.36 178.75 C 120.93 182.34 120.23 186.03 120.45 189.65 C 122.22 194.71 125.31 199.19 129.88 202.07 C 129.36 203.13 128.74 204.14 128.14 205.16 C 127.64 205.31 126.63 205.63 126.13 205.79 C 122.05 199.19 117.11 191.94 118.55 183.90 C 118.70 182.92 118.86 181.94 119.02 180.96 C 119.36 180.41 120.02 179.30 120.36 178.75 Z" />
</g>
<g id="#72859bff">
<path fill="#72859b" opacity="1.00" d=" M 116.07 182.15 C 116.66 180.66 117.57 179.91 119.02 180.96 C 118.86 181.94 118.70 182.92 118.55 183.90 C 117.55 185.12 116.54 186.34 115.37 187.41 C 115.58 186.30 115.75 185.18 115.88 184.05 C 115.93 183.58 116.03 182.62 116.07 182.15 Z" />
</g>
<g id="#65a3dcff">
<path fill="#65a3dc" opacity="1.00" d=" M 123.84 190.12 C 121.21 187.34 121.20 182.71 123.77 179.92 C 124.48 185.66 127.29 192.55 133.29 194.29 C 132.87 195.25 132.42 196.20 131.97 197.15 C 127.86 197.27 125.84 192.98 123.84 190.12 Z" />
</g>
<g id="#7796abff">
<path fill="#7796ab" opacity="1.00" d=" M 82.95 180.94 C 85.67 182.93 89.21 184.09 91.08 187.06 C 89.40 187.95 87.61 187.51 85.88 187.07 C 84.69 185.13 83.52 183.16 82.95 180.94 Z" />
</g>
<g id="#91d6fdff">
<path fill="#91d6fd" opacity="1.00" d=" M 133.39 180.75 C 133.69 183.21 133.84 185.68 133.85 188.17 L 133.82 189.26 C 132.49 186.60 133.27 183.59 133.39 180.75 Z" />
</g>
<g id="#859cafff">
<path fill="#859caf" opacity="1.00" d=" M 111.08 182.80 C 112.61 183.76 114.09 185.66 115.88 184.05 C 115.75 185.18 115.58 186.30 115.37 187.41 C 115.24 187.87 114.99 188.79 114.86 189.25 C 113.40 188.44 112.37 187.12 111.23 185.95 L 111.17 185.04 C 111.15 184.48 111.10 183.36 111.08 182.80 Z" />
</g>
<g id="#30547cf5">
<path fill="#30547c" opacity="0.96" d=" M 118.55 183.90 C 117.11 191.94 122.05 199.19 126.13 205.79 C 126.63 205.63 127.64 205.31 128.14 205.16 C 127.57 206.23 126.76 207.15 125.98 208.08 L 125.00 208.02 C 123.99 207.76 122.98 207.52 121.96 207.29 C 120.44 206.91 119.69 208.85 119.02 209.88 C 118.55 209.90 117.63 209.93 117.17 209.94 C 117.00 209.48 116.66 208.54 116.49 208.07 C 117.27 204.17 116.42 200.02 114.89 196.38 C 112.99 196.65 111.09 196.95 109.18 197.20 C 109.35 196.62 109.69 195.47 109.86 194.89 C 110.39 193.22 110.92 191.55 111.55 189.92 C 111.85 191.06 112.27 192.16 112.80 193.20 C 114.79 195.05 120.93 197.43 117.03 189.98 C 117.64 187.43 116.30 188.13 114.86 189.25 C 114.99 188.79 115.24 187.87 115.37 187.41 C 116.54 186.34 117.55 185.12 118.55 183.90 Z" />
</g>
<g id="#6f859bff">
<path fill="#6f859b" opacity="1.00" d=" M 111.23 185.95 C 112.37 187.12 113.40 188.44 114.86 189.25 C 114.17 190.57 113.48 191.88 112.80 193.20 C 112.27 192.16 111.85 191.06 111.55 189.92 C 110.92 191.55 110.39 193.22 109.86 194.89 C 108.33 194.98 106.81 195.05 105.28 195.18 C 106.22 193.48 107.34 191.68 106.04 189.83 C 108.39 190.35 111.29 190.04 111.05 186.94 L 111.23 185.95 Z" />
</g>
<g id="#19719bec">
<path fill="#19719b" opacity="0.93" d=" M 135.26 186.13 C 140.25 185.65 145.27 186.22 150.28 186.32 C 145.26 187.68 139.99 187.77 134.84 188.03 C 134.94 187.55 135.15 186.60 135.26 186.13 Z" />
</g>
<g id="#5d829eff">
<path fill="#5d829e" opacity="1.00" d=" M 85.88 187.07 C 87.61 187.51 89.40 187.95 91.08 187.06 C 91.28 187.30 91.66 187.80 91.86 188.05 L 91.71 188.84 C 91.47 189.98 91.30 191.14 91.10 192.29 C 89.63 191.16 87.36 188.56 87.61 192.19 C 86.78 190.58 86.18 188.86 85.88 187.07 Z" />
</g>
<g id="#7c95a8ff">
<path fill="#7c95a8" opacity="1.00" d=" M 91.86 188.05 C 95.95 188.70 100.16 190.92 104.25 189.22 C 103.17 194.30 97.29 190.90 93.65 191.26 C 92.99 190.46 92.34 189.66 91.71 188.84 L 91.86 188.05 Z" />
</g>
<g id="#6d859aff">
<path fill="#6d859a" opacity="1.00" d=" M 104.25 189.22 C 105.44 188.07 106.35 187.70 106.04 189.83 C 105.08 191.59 104.23 193.47 102.78 194.90 C 99.50 195.42 95.42 194.24 93.65 191.26 C 97.29 190.90 103.17 194.30 104.25 189.22 Z" />
</g>
<g id="#21436fff">
<path fill="#21436f" opacity="1.00" d=" M 114.86 189.25 C 116.30 188.13 117.64 187.43 117.03 189.98 C 120.93 197.43 114.79 195.05 112.80 193.20 C 113.48 191.88 114.17 190.57 114.86 189.25 Z" />
</g>
<g id="#56718aff">
<path fill="#56718a" opacity="1.00" d=" M 91.10 192.29 C 91.30 191.14 91.47 189.98 91.71 188.84 C 92.34 189.66 92.99 190.46 93.65 191.26 C 95.42 194.24 99.50 195.42 102.78 194.90 C 104.23 193.47 105.08 191.59 106.04 189.83 C 107.34 191.68 106.22 193.48 105.28 195.18 C 104.54 197.31 102.57 198.40 100.72 199.44 C 98.26 197.80 95.70 196.32 93.12 194.87 C 92.44 194.02 91.77 193.15 91.10 192.29 Z" />
</g>
<g id="#3c638dff">
<path fill="#3c638d" opacity="1.00" d=" M 87.61 192.19 C 87.36 188.56 89.63 191.16 91.10 192.29 C 91.77 193.15 92.44 194.02 93.12 194.87 C 92.18 195.68 91.24 196.49 90.23 197.21 C 89.99 196.87 89.50 196.18 89.25 195.83 C 88.70 194.62 88.14 193.41 87.61 192.19 Z" />
</g>
<g id="#2e547ff6">
<path fill="#2e547f" opacity="0.96" d=" M 90.23 197.21 C 91.24 196.49 92.18 195.68 93.12 194.87 C 95.70 196.32 98.26 197.80 100.72 199.44 C 102.19 201.03 104.15 201.31 105.94 200.04 C 106.73 202.04 107.31 204.28 104.69 205.06 C 102.51 204.69 100.27 204.31 98.39 205.77 C 97.63 205.76 96.86 205.77 96.10 205.80 C 95.83 205.73 95.29 205.57 95.02 205.50 C 96.14 204.43 95.00 203.41 94.36 202.51 C 93.77 201.62 93.17 200.74 92.44 199.95 C 91.70 198.61 89.99 199.75 88.82 199.61 C 89.26 198.79 89.73 197.99 90.23 197.21 Z" />
</g>
<g id="#466482f9">
<path fill="#466482" opacity="0.98" d=" M 105.28 195.18 C 106.81 195.05 108.33 194.98 109.86 194.89 C 109.69 195.47 109.35 196.62 109.18 197.20 C 108.13 198.18 107.02 199.09 105.94 200.04 C 104.15 201.31 102.19 201.03 100.72 199.44 C 102.57 198.40 104.54 197.31 105.28 195.18 Z" />
</g>
<g id="#31a3d3fa">
<path fill="#31a3d3" opacity="0.98" d=" M 88.19 195.82 L 89.25 195.83 C 89.50 196.18 89.99 196.87 90.23 197.21 C 89.73 197.99 89.26 198.79 88.82 199.61 C 89.99 199.75 91.70 198.61 92.44 199.95 C 90.91 201.05 89.26 202.10 87.31 202.16 C 87.69 200.06 88.00 197.94 88.19 195.82 Z" />
</g>
<g id="#05060a10">
<path fill="#05060a" opacity="0.06" d=" M 109.18 197.20 C 111.09 196.95 112.99 196.65 114.89 196.38 C 116.42 200.02 117.27 204.17 116.49 208.07 C 115.38 207.31 114.26 206.52 113.01 206.00 C 110.70 207.07 108.66 209.14 105.90 208.31 C 105.45 207.24 105.05 206.16 104.69 205.06 C 107.31 204.28 106.73 202.04 105.94 200.04 C 107.02 199.09 108.13 198.18 109.18 197.20 Z" />
</g>
<g id="#a3a4a7fd">
<path fill="#a3a4a7" opacity="1.00" d=" M 78.98 206.76 C 82.67 204.75 86.46 201.68 90.69 204.28 C 92.12 204.75 93.57 205.11 95.02 205.50 C 95.29 205.57 95.83 205.73 96.10 205.80 C 96.50 207.19 96.83 208.60 97.13 210.03 C 94.70 207.80 94.30 210.88 93.68 212.80 C 92.25 212.24 90.87 211.57 89.56 210.78 C 89.68 209.34 89.89 207.80 88.41 206.96 C 87.97 208.24 87.69 209.59 86.95 210.74 C 84.98 210.73 82.12 208.55 80.75 210.19 C 80.13 208.88 81.23 206.58 78.98 206.76 Z" />
</g>
<g id="#101a1e2f">
<path fill="#101a1e" opacity="0.18" d=" M 90.69 204.28 C 91.91 203.67 93.13 203.08 94.36 202.51 C 95.00 203.41 96.14 204.43 95.02 205.50 C 93.57 205.11 92.12 204.75 90.69 204.28 Z" />
</g>
<g id="#767b86f5">
<path fill="#767b86" opacity="0.96" d=" M 98.39 205.77 C 100.27 204.31 102.51 204.69 104.69 205.06 C 105.05 206.16 105.45 207.24 105.90 208.31 C 104.50 209.40 103.28 210.71 101.95 211.89 C 100.61 211.48 99.30 210.98 98.02 210.42 C 99.29 209.09 98.66 207.34 98.39 205.77 Z" />
</g>
<g id="#292f3258">
<path fill="#292f32" opacity="0.35" d=" M 96.10 205.80 C 96.86 205.77 97.63 205.76 98.39 205.77 C 98.66 207.34 99.29 209.09 98.02 210.42 L 97.13 210.03 C 96.83 208.60 96.50 207.19 96.10 205.80 Z" />
</g>
<g id="#a2a1a2f9">
<path fill="#a2a1a2" opacity="0.98" d=" M 105.90 208.31 C 108.66 209.14 110.70 207.07 113.01 206.00 C 114.26 206.52 115.38 207.31 116.49 208.07 C 116.66 208.54 117.00 209.48 117.17 209.94 C 117.86 211.31 117.78 212.72 116.97 214.01 C 116.09 214.63 115.23 215.28 114.32 215.86 C 113.52 213.36 112.91 209.11 108.37 212.11 C 108.75 217.09 104.49 212.16 102.21 214.17 C 99.27 216.25 95.75 213.40 97.13 210.03 L 98.02 210.42 C 99.30 210.98 100.61 211.48 101.95 211.89 C 103.28 210.71 104.50 209.40 105.90 208.31 Z" />
</g>
<g id="#b7b4b4ff">
<path fill="#b7b4b4" opacity="1.00" d=" M 77.78 207.83 C 78.08 207.56 78.68 207.03 78.98 206.76 C 81.23 206.58 80.13 208.88 80.75 210.19 L 81.07 211.21 C 77.98 213.36 77.60 210.56 77.78 207.83 Z" />
</g>
<g id="#80878bf3">
<path fill="#80878b" opacity="0.95" d=" M 88.41 206.96 C 89.89 207.80 89.68 209.34 89.56 210.78 C 90.87 211.57 92.25 212.24 93.68 212.80 C 94.30 210.88 94.70 207.80 97.13 210.03 C 95.75 213.40 99.27 216.25 102.21 214.17 C 104.49 212.16 108.75 217.09 108.37 212.11 C 112.91 209.11 113.52 213.36 114.32 215.86 C 115.23 215.28 116.09 214.63 116.97 214.01 C 117.25 214.44 117.81 215.31 118.09 215.75 C 115.10 216.08 114.46 218.46 115.02 221.09 C 117.77 221.08 119.94 218.18 118.09 215.75 C 118.59 215.76 119.57 215.78 120.06 215.79 C 120.87 217.79 121.44 219.96 123.29 221.28 C 121.15 221.37 119.20 221.60 118.33 223.92 C 116.27 221.91 113.95 223.68 112.28 225.15 C 111.76 221.73 109.10 219.25 107.81 216.13 C 106.15 215.93 106.37 218.78 105.64 219.87 C 102.44 218.60 99.33 217.15 96.12 215.94 C 95.26 219.23 97.86 224.31 94.04 226.03 C 94.33 222.90 97.30 216.42 92.19 218.14 C 91.27 219.90 90.22 222.26 92.53 223.44 C 91.98 224.74 91.21 225.93 90.62 227.21 C 89.50 224.44 90.20 221.24 89.58 218.40 C 88.45 216.87 87.13 215.49 86.06 213.92 C 85.86 210.98 83.54 210.61 81.07 211.21 L 80.75 210.19 C 82.12 208.55 84.98 210.73 86.95 210.74 C 87.69 209.59 87.97 208.24 88.41 206.96 M 88.98 212.96 C 88.91 214.36 88.84 216.98 90.85 216.84 C 93.23 215.53 91.37 212.31 88.98 212.96 Z" />
</g>
<g id="#7c858eff">
<path fill="#7c858e" opacity="1.00" d=" M 119.02 209.88 C 119.69 208.85 120.44 206.91 121.96 207.29 C 122.23 208.24 122.69 209.20 122.43 210.22 C 121.58 210.13 119.87 209.97 119.02 209.88 Z" />
</g>
<g id="#a0a4a6fc">
<path fill="#a0a4a6" opacity="1.00" d=" M 121.96 207.29 C 122.98 207.52 123.99 207.76 125.00 208.02 C 124.99 211.03 124.98 214.09 125.00 217.12 C 124.04 215.67 121.25 215.63 121.88 217.95 C 122.17 219.78 124.24 218.71 125.04 217.95 C 125.09 218.51 125.18 219.63 125.23 220.19 C 124.74 220.46 123.78 221.01 123.29 221.28 C 121.44 219.96 120.87 217.79 120.06 215.79 C 120.93 213.98 122.65 212.37 122.43 210.22 C 122.69 209.20 122.23 208.24 121.96 207.29 Z" />
</g>
<g id="#919b9feb">
<path fill="#919b9f" opacity="0.92" d=" M 76.70 208.92 C 76.97 208.65 77.51 208.10 77.78 207.83 C 77.60 210.56 77.98 213.36 81.07 211.21 C 83.54 210.61 85.86 210.98 86.06 213.92 C 84.62 216.92 83.05 215.04 81.06 213.85 C 79.73 213.88 78.53 214.29 77.45 215.06 C 76.19 213.19 75.76 211.02 76.70 208.92 Z" />
</g>
<g id="#747271ad">
<path fill="#747271" opacity="0.68" d=" M 125.00 208.02 L 125.98 208.08 C 125.56 212.02 126.90 216.69 125.23 220.19 C 125.18 219.63 125.09 218.51 125.04 217.95 L 125.00 217.12 C 124.98 214.09 124.99 211.03 125.00 208.02 Z" />
</g>
<g id="#b3b3b3fe">
<path fill="#b3b3b3" opacity="1.00" d=" M 117.17 209.94 C 117.63 209.93 118.55 209.90 119.02 209.88 C 119.87 209.97 121.58 210.13 122.43 210.22 C 122.65 212.37 120.93 213.98 120.06 215.79 C 119.57 215.78 118.59 215.76 118.09 215.75 C 117.81 215.31 117.25 214.44 116.97 214.01 C 117.78 212.72 117.86 211.31 117.17 209.94 Z" />
</g>
<g id="#adcadbff">
<path fill="#adcadb" opacity="1.00" d=" M 88.98 212.96 C 91.37 212.31 93.23 215.53 90.85 216.84 C 88.84 216.98 88.91 214.36 88.98 212.96 Z" />
</g>
<g id="#bfd2d4f0">
<path fill="#bfd2d4" opacity="0.94" d=" M 77.45 215.06 C 78.53 214.29 79.73 213.88 81.06 213.85 C 81.04 215.25 80.98 216.66 80.89 218.06 C 78.89 218.47 78.22 216.45 77.45 215.06 Z" />
</g>
<g id="#b1c7d1ff">
<path fill="#b1c7d1" opacity="1.00" d=" M 115.02 221.09 C 114.46 218.46 115.10 216.08 118.09 215.75 C 119.94 218.18 117.77 221.08 115.02 221.09 Z" />
</g>
<g id="#d7cbc9ff">
<path fill="#d7cbc9" opacity="1.00" d=" M 121.88 217.95 C 121.25 215.63 124.04 215.67 125.00 217.12 L 125.04 217.95 C 124.24 218.71 122.17 219.78 121.88 217.95 Z" />
</g>
<g id="#b9bdbefa">
<path fill="#b9bdbe" opacity="0.98" d=" M 92.19 218.14 C 97.30 216.42 94.33 222.90 94.04 226.03 C 93.02 226.30 91.03 229.09 90.62 227.21 C 91.21 225.93 91.98 224.74 92.53 223.44 C 90.22 222.26 91.27 219.90 92.19 218.14 Z" />
</g>
<g id="#adb1b0f2">
<path fill="#adb1b0" opacity="0.95" d=" M 112.28 225.15 C 113.95 223.68 116.27 221.91 118.33 223.92 C 117.29 227.32 117.52 232.20 113.08 232.98 C 111.67 230.58 110.49 227.67 112.28 225.15 Z" />
</g>
</svg>
