<?xml version="1.0" encoding="UTF-8" ?>
<!DOCTYPE svg PUBLIC "-//W3C//DTD SVG 1.1//EN" "http://www.w3.org/Graphics/SVG/1.1/DTD/svg11.dtd">
<svg width="215pt" height="244pt" viewBox="0 0 215 244" version="1.1" xmlns="http://www.w3.org/2000/svg">
<g id="#fef082ff">
<path fill="#fef082" opacity="1.00" d=" M 3.28 7.19 C 10.42 19.99 17.54 32.79 24.99 45.41 C 23.78 48.18 25.81 50.63 27.01 52.96 C 29.77 57.71 31.44 63.00 34.24 67.73 C 36.16 70.95 38.03 74.21 39.69 77.57 C 39.37 77.74 38.74 78.09 38.43 78.26 C 34.55 71.10 30.15 64.24 26.12 57.17 C 26.86 54.03 24.69 51.45 23.24 48.89 C 20.52 44.04 18.38 38.90 15.94 33.91 C 14.84 31.50 13.68 29.12 12.49 26.77 C 9.29 20.30 6.37 13.70 3.28 7.19 Z" />
<path fill="#fef082" opacity="1.00" d=" M 76.11 205.13 C 76.91 208.04 77.71 210.99 79.31 213.59 C 78.75 214.70 78.18 215.81 77.61 216.93 C 76.87 217.18 76.12 217.43 75.38 217.69 C 75.20 216.43 75.03 215.17 74.85 213.92 C 74.32 214.60 73.81 215.30 73.30 216.00 C 73.77 213.26 74.43 210.54 75.30 207.90 C 75.61 206.98 75.88 206.06 76.11 205.13 Z" />
</g>
<g id="#ab8349ff">
<path fill="#ab8349" opacity="1.00" d=" M 174.71 45.08 C 185.48 33.13 195.99 20.95 206.65 8.91 C 202.58 15.50 198.48 22.07 194.60 28.78 C 189.52 36.73 184.76 44.89 179.46 52.71 C 176.61 53.70 174.53 55.90 172.56 58.08 C 172.93 53.93 174.45 50.03 176.73 46.56 C 176.23 46.19 175.22 45.45 174.71 45.08 Z" />
</g>
<g id="#151410ff">
<path fill="#151410" opacity="1.00" d=" M 37.53 19.81 C 38.63 21.64 39.60 23.55 40.43 25.52 C 48.47 43.09 56.38 60.72 64.69 78.16 C 65.19 80.45 65.29 82.82 65.87 85.10 C 66.21 87.22 66.51 89.35 66.79 91.48 C 65.29 91.11 63.80 90.72 62.32 90.31 L 61.79 90.13 C 62.65 90.33 64.36 90.73 65.21 90.92 C 55.40 75.26 48.35 58.14 40.69 41.38 C 40.08 39.98 39.58 38.53 39.13 37.08 C 44.98 48.07 50.51 59.28 56.79 70.03 C 50.53 53.24 44.04 36.51 37.53 19.81 Z" />
<path fill="#151410" opacity="1.00" d=" M 137.24 181.05 C 138.66 181.26 139.97 181.85 141.17 182.63 C 140.09 184.05 136.64 182.90 137.24 181.05 Z" />
<path fill="#151410" opacity="1.00" d=" M 79.30 188.22 C 79.82 187.80 80.88 186.95 81.40 186.53 C 80.69 188.80 79.92 191.06 79.19 193.33 C 77.89 197.19 76.99 201.16 76.11 205.13 C 75.88 206.06 75.61 206.98 75.30 207.90 C 75.24 207.14 75.11 205.63 75.05 204.87 C 75.85 202.54 76.12 200.10 76.07 197.65 C 76.32 194.32 78.95 191.74 79.26 188.40 L 79.30 188.22 Z" />
</g>
<g id="#001320ff">
<path fill="#001320" opacity="1.00" d=" M 196.33 28.36 C 197.92 26.79 199.48 25.19 201.27 23.83 C 196.11 32.00 190.05 39.59 184.52 47.52 C 181.57 51.30 179.27 55.60 175.84 58.99 C 177.00 56.87 178.18 54.75 179.46 52.71 C 184.76 44.89 189.52 36.73 194.60 28.78 C 195.03 28.68 195.90 28.46 196.33 28.36 Z" />
<path fill="#001320" opacity="1.00" d=" M 127.57 206.00 C 128.87 204.17 130.37 202.49 132.18 201.16 C 134.32 204.95 135.85 209.04 137.63 213.01 C 134.25 210.72 130.82 208.48 127.57 206.00 Z" />
</g>
<g id="#001b2efc">
<path fill="#001b2e" opacity="1.00" d=" M 12.49 26.77 C 13.68 29.12 14.84 31.50 15.94 33.91 C 14.63 31.61 13.48 29.22 12.49 26.77 Z" />
<path fill="#001b2e" opacity="1.00" d=" M 64.60 110.55 C 64.44 107.64 64.06 104.76 63.43 101.92 C 65.02 104.34 65.58 107.15 65.23 110.01 C 65.58 109.76 66.28 109.24 66.63 108.98 L 66.59 109.95 C 66.58 110.73 66.54 112.29 66.53 113.06 C 65.88 112.23 65.24 111.39 64.60 110.55 Z" />
<path fill="#001b2e" opacity="1.00" d=" M 71.30 207.86 C 72.90 204.46 73.78 200.68 76.07 197.65 C 76.12 200.10 75.85 202.54 75.05 204.87 C 73.77 205.82 72.55 206.86 71.30 207.86 Z" />
<path fill="#001b2e" opacity="1.00" d=" M 84.49 210.48 C 86.58 211.27 88.66 212.08 90.73 212.92 C 88.88 216.72 87.30 220.70 84.85 224.18 C 84.50 219.62 84.34 215.05 84.49 210.48 Z" />
</g>
<g id="#0d0a08ff">
<path fill="#0d0a08" opacity="1.00" d=" M 127.22 72.24 C 136.90 61.18 145.43 49.16 154.95 37.97 C 153.04 41.97 150.95 45.88 149.06 49.89 C 143.07 58.82 136.91 67.63 130.94 76.56 C 126.18 83.55 121.11 90.33 116.42 97.37 C 114.70 97.32 112.98 97.25 111.26 97.17 L 110.57 97.13 C 113.14 92.93 116.14 89.02 118.83 84.90 C 121.64 80.69 123.77 76.00 127.22 72.24 Z" />
</g>
<g id="#a37636ff">
<path fill="#a37636" opacity="1.00" d=" M 157.26 64.51 C 162.83 57.89 168.96 51.60 174.71 45.08 C 175.22 45.45 176.23 46.19 176.73 46.56 C 174.45 50.03 172.93 53.93 172.56 58.08 C 174.53 55.90 176.61 53.70 179.46 52.71 C 178.18 54.75 177.00 56.87 175.84 58.99 C 172.57 64.26 168.61 69.08 165.39 74.39 C 164.59 74.13 163.79 73.88 162.99 73.62 C 161.62 74.35 160.25 75.10 158.88 75.84 C 155.84 72.78 157.07 68.35 157.26 64.51 Z" />
</g>
<g id="#eec05ffd">
<path fill="#eec05f" opacity="1.00" d=" M 24.99 45.41 C 28.80 51.76 32.97 57.95 36.28 64.55 C 37.67 71.12 40.65 77.21 44.07 82.95 C 45.80 85.87 48.86 89.11 46.70 92.65 C 43.73 87.98 41.05 83.13 38.43 78.26 C 38.74 78.09 39.37 77.74 39.69 77.57 C 38.03 74.21 36.16 70.95 34.24 67.73 C 31.44 63.00 29.77 57.71 27.01 52.96 C 25.81 50.63 23.78 48.18 24.99 45.41 Z" />
</g>
<g id="#68653fff">
<path fill="#68653f" opacity="1.00" d=" M 23.24 48.89 C 24.69 51.45 26.86 54.03 26.12 57.17 C 24.53 55.03 23.22 52.70 21.93 50.37 L 24.13 51.19 L 23.24 48.89 Z" />
<path fill="#68653f" opacity="1.00" d=" M 73.59 110.70 C 75.77 107.47 78.62 104.79 81.81 102.58 L 83.32 102.08 C 83.09 103.68 82.87 105.28 82.66 106.88 C 82.39 110.79 78.92 112.48 75.57 113.43 C 75.21 113.27 74.48 112.95 74.11 112.79 C 71.02 110.46 69.69 115.46 68.04 117.37 C 68.74 114.59 70.41 112.32 72.97 110.97 C 71.68 109.95 70.37 108.96 69.11 107.92 C 70.87 108.36 72.28 109.49 73.59 110.70 M 78.32 107.08 C 77.05 107.51 76.33 109.40 77.18 110.49 C 78.81 111.12 80.26 107.33 78.32 107.08 Z" />
<path fill="#68653f" opacity="1.00" d=" M 35.77 162.15 C 36.06 162.03 36.64 161.81 36.93 161.69 C 36.57 163.73 36.59 166.11 34.56 167.32 C 35.28 165.68 35.61 163.92 35.77 162.15 Z" />
<path fill="#68653f" opacity="1.00" d=" M 74.27 189.42 L 75.17 189.38 C 74.90 189.83 74.36 190.72 74.09 191.17 L 73.71 190.34 L 74.27 189.42 Z" />
<path fill="#68653f" opacity="1.00" d=" M 71.68 223.34 L 72.05 223.38 C 72.25 224.32 72.44 225.27 72.63 226.22 C 72.94 227.29 71.09 228.51 70.82 226.97 C 70.56 225.61 70.85 224.40 71.68 223.34 Z" />
</g>
<g id="#9f7540ff">
<path fill="#9f7540" opacity="1.00" d=" M 130.94 76.56 C 136.91 67.63 143.07 58.82 149.06 49.89 C 145.07 60.75 139.81 71.11 135.34 81.78 C 134.05 81.75 132.76 81.72 131.47 81.68 C 131.30 79.98 131.13 78.27 130.94 76.56 Z" />
<path fill="#9f7540" opacity="1.00" d=" M 145.99 121.05 C 153.07 120.69 160.08 119.32 167.17 119.30 C 159.70 121.61 152.47 124.65 145.00 126.97 C 144.26 126.91 142.77 126.78 142.03 126.71 C 142.85 124.52 143.63 122.05 145.99 121.05 Z" />
</g>
<g id="#b79465ff">
<path fill="#b79465" opacity="1.00" d=" M 64.01 68.05 C 63.59 65.70 63.28 63.33 63.20 60.94 C 64.20 62.95 65.12 65.01 65.84 67.15 C 65.25 66.12 64.65 65.11 64.03 64.10 C 64.03 65.09 64.02 67.07 64.01 68.05 Z" />
<path fill="#b79465" opacity="1.00" d=" M 69.16 157.46 L 69.68 157.89 C 69.88 158.18 70.30 158.75 70.51 159.03 C 71.74 159.63 73.02 160.13 74.26 160.71 C 72.79 163.72 71.29 166.72 69.73 169.69 C 68.91 169.80 67.28 170.03 66.47 170.15 L 67.22 168.90 C 68.43 167.50 68.11 165.60 67.38 164.05 C 66.95 161.79 68.76 159.67 69.16 157.46 Z" />
</g>
<g id="#49492e89">
<path fill="#49492e" opacity="0.54" d=" M 99.49 64.03 C 97.95 62.08 102.51 61.46 100.99 63.71 L 100.24 64.07 L 99.49 64.03 Z" />
</g>
<g id="#d6a34eff">
<path fill="#d6a34e" opacity="1.00" d=" M 36.28 64.55 C 36.59 64.53 37.20 64.48 37.51 64.46 L 37.35 65.31 C 38.65 65.78 39.37 66.96 40.09 68.05 C 43.80 73.92 47.44 79.84 51.23 85.66 C 52.35 87.78 54.95 87.98 56.98 88.75 C 54.28 88.07 51.57 87.45 48.86 86.87 C 51.67 89.89 54.75 92.66 57.42 95.81 C 54.43 95.81 51.45 95.76 48.46 95.79 C 47.88 94.74 47.29 93.70 46.70 92.65 C 48.86 89.11 45.80 85.87 44.07 82.95 C 40.65 77.21 37.67 71.12 36.28 64.55 Z" />
</g>
<g id="#ffff99ff">
<path fill="#ffff99" opacity="1.00" d=" M 99.49 64.03 L 100.24 64.07 C 97.72 69.25 95.32 74.48 92.96 79.73 C 91.35 78.05 89.15 78.33 87.07 78.69 C 91.32 73.90 95.13 68.71 99.49 64.03 Z" />
<path fill="#ffff99" opacity="1.00" d=" M 75.17 189.38 C 77.38 184.96 80.22 180.81 83.19 176.85 C 82.03 180.69 79.71 184.16 79.30 188.22 L 79.26 188.40 C 75.48 193.36 71.74 198.36 67.89 203.25 C 69.22 198.91 71.65 194.96 74.09 191.17 C 74.36 190.72 74.90 189.83 75.17 189.38 Z" />
<path fill="#ffff99" opacity="1.00" d=" M 73.30 216.00 C 73.81 215.30 74.32 214.60 74.85 213.92 C 75.03 215.17 75.20 216.43 75.38 217.69 C 76.12 217.43 76.87 217.18 77.61 216.93 C 75.91 220.00 74.10 223.02 72.63 226.22 C 72.44 225.27 72.25 224.32 72.05 223.38 C 72.00 220.87 72.70 218.41 73.30 216.00 Z" />
</g>
<g id="#ffff91ff">
<path fill="#ffff91" opacity="1.00" d=" M 64.03 64.10 C 64.65 65.11 65.25 66.12 65.84 67.15 C 67.56 70.59 69.08 74.12 70.53 77.67 C 68.82 77.86 67.10 78.04 65.39 78.22 C 64.81 74.85 64.35 71.46 64.01 68.05 C 64.02 67.07 64.03 65.09 64.03 64.10 Z" />
</g>
<g id="#966a30ff">
<path fill="#966a30" opacity="1.00" d=" M 139.24 82.81 C 145.53 77.00 151.21 70.57 157.26 64.51 C 157.07 68.35 155.84 72.78 158.88 75.84 C 160.25 75.10 161.62 74.35 162.99 73.62 C 163.79 73.88 164.59 74.13 165.39 74.39 C 161.43 80.56 157.03 86.43 153.00 92.55 C 160.64 88.98 167.95 84.80 175.30 80.69 C 176.34 84.00 173.61 86.36 171.93 88.82 L 172.82 89.55 L 173.00 89.70 C 163.21 98.40 153.50 107.20 143.64 115.82 C 142.51 116.92 141.40 118.05 140.25 119.14 C 139.37 119.89 138.47 120.61 137.55 121.32 C 140.36 121.24 143.18 121.17 145.99 121.05 C 143.63 122.05 142.85 124.52 142.03 126.71 C 142.77 126.78 144.26 126.91 145.00 126.97 C 140.07 128.81 135.11 130.65 130.02 131.99 C 129.54 131.99 128.60 132.00 128.13 132.00 C 128.72 131.35 129.31 130.71 129.91 130.06 C 128.01 129.92 126.10 129.78 124.20 129.66 C 122.62 124.70 124.02 119.47 125.94 114.83 C 128.18 109.78 126.59 103.60 129.96 98.97 C 132.11 96.18 134.61 93.62 136.28 90.47 C 135.38 90.23 133.59 89.73 132.69 89.49 C 135.10 87.50 137.24 85.21 139.24 82.81 Z" />
</g>
<g id="#3e2f1e90">
<path fill="#3e2f1e" opacity="0.56" d=" M 193.00 69.89 C 193.09 68.70 194.56 67.70 195.68 68.14 C 196.06 69.36 194.60 70.62 193.48 70.80 L 192.98 70.53 L 193.00 69.89 Z" />
</g>
<g id="#a77e45ff">
<path fill="#a77e45" opacity="1.00" d=" M 175.30 80.69 C 181.21 77.11 187.03 73.36 193.00 69.89 L 192.98 70.53 C 191.32 72.98 188.79 74.70 186.72 76.80 C 182.03 80.98 177.63 85.49 172.82 89.55 L 171.93 88.82 C 173.61 86.36 176.34 84.00 175.30 80.69 Z" />
</g>
<g id="#8a5c29ff">
<path fill="#8a5c29" opacity="1.00" d=" M 116.42 97.37 C 121.11 90.33 126.18 83.55 130.94 76.56 C 131.13 78.27 131.30 79.98 131.47 81.68 C 132.76 81.72 134.05 81.75 135.34 81.78 C 134.73 82.89 134.11 83.98 133.47 85.07 C 132.34 86.90 131.55 88.91 130.87 90.94 C 131.33 90.58 132.23 89.85 132.69 89.49 C 133.59 89.73 135.38 90.23 136.28 90.47 C 134.61 93.62 132.11 96.18 129.96 98.97 C 126.59 103.60 128.18 109.78 125.94 114.83 C 124.02 119.47 122.62 124.70 124.20 129.66 C 126.10 129.78 128.01 129.92 129.91 130.06 C 129.31 130.71 128.72 131.35 128.13 132.00 C 128.60 132.00 129.54 131.99 130.02 131.99 C 123.74 134.07 117.83 137.02 111.70 139.44 C 111.61 138.19 111.51 136.95 111.42 135.70 C 110.80 135.30 110.19 134.90 109.57 134.51 C 109.61 133.46 109.65 132.40 109.70 131.35 C 108.41 131.94 107.13 132.53 105.85 133.12 C 104.99 131.79 104.13 130.47 103.28 129.14 C 102.94 133.90 103.16 139.21 100.27 143.27 C 98.26 144.58 94.79 144.90 93.07 142.91 C 91.54 141.43 90.06 139.57 87.73 139.60 C 81.94 139.27 76.38 135.49 74.77 129.78 C 76.99 131.69 79.05 133.81 81.48 135.46 C 84.39 136.35 87.49 136.16 90.50 136.26 C 91.62 137.22 92.81 138.11 94.00 138.99 C 93.77 138.01 93.51 137.03 93.24 136.07 C 94.51 134.04 95.96 132.09 96.79 129.83 C 97.12 127.84 96.53 125.83 96.19 123.88 C 102.01 125.26 107.95 126.18 113.64 128.11 C 113.57 127.60 113.43 126.57 113.36 126.06 C 118.04 119.96 120.66 111.46 117.89 104.01 C 117.48 102.21 115.40 102.12 114.00 101.51 C 115.36 101.16 116.73 100.81 118.10 100.44 C 121.03 99.61 123.98 98.86 126.94 98.11 C 123.45 97.67 119.93 97.47 116.42 97.37 Z" />
</g>
<g id="#ffff6eff">
<path fill="#ffff6e" opacity="1.00" d=" M 65.39 78.22 C 67.10 78.04 68.82 77.86 70.53 77.67 L 70.75 77.65 C 72.68 82.14 74.55 86.66 76.89 90.95 C 78.28 89.28 79.68 87.60 81.07 85.93 C 82.66 85.81 84.26 85.70 85.85 85.60 C 85.51 88.00 84.72 90.29 83.65 92.46 C 84.92 93.92 86.43 95.13 87.75 96.53 C 85.99 97.95 84.32 99.49 82.93 101.28 C 82.65 101.60 82.09 102.25 81.81 102.58 C 78.62 104.79 75.77 107.47 73.59 110.70 C 72.28 109.49 70.87 108.36 69.11 107.92 C 68.26 108.58 67.43 109.26 66.59 109.95 L 66.63 108.98 C 66.28 109.24 65.58 109.76 65.23 110.01 C 65.58 107.15 65.02 104.34 63.43 101.92 C 62.27 99.72 61.06 97.55 59.95 95.33 C 61.36 94.61 62.77 93.90 64.17 93.18 C 63.57 92.21 62.95 91.25 62.32 90.31 C 63.80 90.72 65.29 91.11 66.79 91.48 C 66.51 89.35 66.21 87.22 65.87 85.10 C 65.67 82.81 65.67 80.50 65.39 78.22 Z" />
</g>
<g id="#fef071ff">
<path fill="#fef071" opacity="1.00" d=" M 87.07 78.69 C 89.15 78.33 91.35 78.05 92.96 79.73 C 90.99 83.89 89.09 88.08 87.11 92.24 C 85.96 92.34 84.80 92.41 83.65 92.46 C 84.72 90.29 85.51 88.00 85.85 85.60 C 84.26 85.70 82.66 85.81 81.07 85.93 C 83.05 83.49 85.12 81.14 87.07 78.69 Z" />
</g>
<g id="#2f2110be">
<path fill="#2f2110" opacity="0.75" d=" M 133.05 87.63 C 135.02 85.92 136.99 84.17 139.24 82.81 C 137.24 85.21 135.10 87.50 132.69 89.49 C 132.23 89.85 131.33 90.58 130.87 90.94 C 131.55 88.91 132.34 86.90 133.47 85.07 L 133.05 87.63 Z" />
</g>
<g id="#ffe170ff">
<path fill="#ffe170" opacity="1.00" d=" M 48.86 86.87 C 51.57 87.45 54.28 88.07 56.98 88.75 C 58.60 89.16 60.20 89.62 61.79 90.13 L 62.32 90.31 C 62.95 91.25 63.57 92.21 64.17 93.18 C 62.77 93.90 61.36 94.61 59.95 95.33 C 61.06 97.55 62.27 99.72 63.43 101.92 C 64.06 104.76 64.44 107.64 64.60 110.55 C 65.24 111.39 65.88 112.23 66.53 113.06 C 66.54 112.29 66.58 110.73 66.59 109.95 C 67.43 109.26 68.26 108.58 69.11 107.92 C 70.37 108.96 71.68 109.95 72.97 110.97 C 70.41 112.32 68.74 114.59 68.04 117.37 C 66.46 120.42 64.50 123.25 62.84 126.25 C 60.54 128.65 58.06 131.01 56.78 134.15 L 56.64 134.42 L 55.98 134.79 C 53.07 135.94 51.45 138.71 49.78 141.18 C 48.95 141.94 47.94 142.35 46.73 142.39 C 51.34 134.88 57.96 128.79 62.68 121.33 C 63.69 119.50 64.35 117.52 65.00 115.54 C 62.55 115.06 60.13 114.42 57.79 113.55 C 58.04 111.62 58.22 109.68 58.17 107.73 C 58.49 107.26 59.12 106.34 59.44 105.87 C 57.07 104.63 54.70 103.41 52.26 102.32 C 47.99 100.36 43.63 98.53 39.65 96.01 C 42.58 95.83 45.52 95.86 48.46 95.79 C 51.45 95.76 54.43 95.81 57.42 95.81 C 54.75 92.66 51.67 89.89 48.86 86.87 Z" />
<path fill="#ffe170" opacity="1.00" d=" M 130.11 178.47 C 131.21 177.51 132.32 176.56 133.51 175.71 C 138.10 178.40 142.45 181.47 147.07 184.10 C 147.24 184.49 147.58 185.27 147.74 185.66 C 145.60 184.53 143.30 183.77 141.17 182.63 C 139.97 181.85 138.66 181.26 137.24 181.05 C 134.75 180.54 132.45 179.41 130.11 178.47 Z" />
</g>
<g id="#e6bd58ff">
<path fill="#e6bd58" opacity="1.00" d=" M 106.84 89.24 C 109.57 88.46 112.40 88.08 115.21 87.64 C 113.33 89.68 110.58 90.52 108.25 91.91 C 104.89 90.58 101.60 91.96 98.79 93.85 C 97.00 94.89 95.20 95.91 93.37 96.87 C 92.96 97.10 92.13 97.55 91.72 97.78 C 87.90 100.72 86.89 105.98 83.16 109.11 C 83.03 108.56 82.78 107.44 82.66 106.88 C 82.87 105.28 83.09 103.68 83.32 102.08 L 81.81 102.58 C 82.09 102.25 82.65 101.60 82.93 101.28 C 86.81 99.66 90.30 97.28 93.73 94.89 C 93.43 94.58 92.84 93.96 92.55 93.65 C 93.07 93.10 93.59 92.54 94.11 91.99 C 92.41 92.00 90.72 92.02 89.02 92.10 C 93.11 91.29 97.22 90.37 101.39 90.16 C 103.26 90.28 105.10 89.94 106.84 89.24 Z" />
</g>
<g id="#59482c90">
<path fill="#59482c" opacity="0.56" d=" M 101.39 90.16 C 101.64 88.12 105.43 88.15 106.84 89.24 C 105.10 89.94 103.26 90.28 101.39 90.16 Z" />
</g>
<g id="#c39a4ff5">
<path fill="#c39a4f" opacity="0.96" d=" M 98.79 93.85 C 101.60 91.96 104.89 90.58 108.25 91.91 C 105.77 93.55 103.13 94.94 100.45 96.22 C 100.04 95.63 99.20 94.44 98.79 93.85 Z" />
</g>
<g id="#fee160ff">
<path fill="#fee160" opacity="1.00" d=" M 83.65 92.46 C 84.80 92.41 85.96 92.34 87.11 92.24 C 87.59 92.20 88.54 92.13 89.02 92.10 C 90.72 92.02 92.41 92.00 94.11 91.99 C 93.59 92.54 93.07 93.10 92.55 93.65 C 92.84 93.96 93.43 94.58 93.73 94.89 C 90.30 97.28 86.81 99.66 82.93 101.28 C 84.32 99.49 85.99 97.95 87.75 96.53 C 86.43 95.13 84.92 93.92 83.65 92.46 Z" />
</g>
<g id="#b88b44ff">
<path fill="#b88b44" opacity="1.00" d=" M 93.37 96.87 C 95.20 95.91 97.00 94.89 98.79 93.85 C 99.20 94.44 100.04 95.63 100.45 96.22 C 103.54 97.47 107.25 96.63 110.57 97.13 L 111.26 97.17 C 113.30 98.71 115.67 99.68 118.10 100.44 C 116.73 100.81 115.36 101.16 114.00 101.51 C 112.26 101.93 110.55 102.42 108.83 102.89 C 107.76 103.16 106.69 103.44 105.63 103.72 C 102.36 104.54 99.13 105.51 95.89 106.47 C 95.54 106.37 94.84 106.17 94.49 106.08 C 95.93 104.18 96.89 101.98 97.82 99.81 C 96.33 98.84 94.85 97.86 93.37 96.87 Z" />
</g>
<g id="#c49646ff">
<path fill="#c49646" opacity="1.00" d=" M 91.72 97.78 C 92.13 97.55 92.96 97.10 93.37 96.87 C 94.85 97.86 96.33 98.84 97.82 99.81 C 96.89 101.98 95.93 104.18 94.49 106.08 C 94.16 106.43 93.50 107.14 93.18 107.49 C 94.94 109.59 97.06 111.50 98.19 114.04 C 98.40 117.72 94.58 120.92 90.97 120.01 C 86.84 119.00 81.61 120.93 78.48 117.28 C 77.71 116.11 76.96 114.93 76.19 113.76 C 80.81 116.72 86.87 118.25 91.61 114.59 C 92.03 109.67 91.70 104.60 93.78 99.97 C 93.09 99.24 92.41 98.51 91.72 97.78 Z" />
</g>
<g id="#d1aa63ff">
<path fill="#d1aa63" opacity="1.00" d=" M 111.26 97.17 C 112.98 97.25 114.70 97.32 116.42 97.37 C 119.93 97.47 123.45 97.67 126.94 98.11 C 123.98 98.86 121.03 99.61 118.10 100.44 C 115.67 99.68 113.30 98.71 111.26 97.17 Z" />
</g>
<g id="#d4a74eff">
<path fill="#d4a74e" opacity="1.00" d=" M 83.16 109.11 C 86.89 105.98 87.90 100.72 91.72 97.78 C 92.41 98.51 93.09 99.24 93.78 99.97 C 91.70 104.60 92.03 109.67 91.61 114.59 C 86.87 118.25 80.81 116.72 76.19 113.76 L 75.57 113.43 C 78.92 112.48 82.39 110.79 82.66 106.88 C 82.78 107.44 83.03 108.56 83.16 109.11 Z" />
</g>
<g id="#e0af55ff">
<path fill="#e0af55" opacity="1.00" d=" M 52.26 102.32 C 54.70 103.41 57.07 104.63 59.44 105.87 C 59.12 106.34 58.49 107.26 58.17 107.73 C 57.67 108.34 57.16 108.96 56.64 109.57 C 55.62 106.91 54.08 104.50 52.26 102.32 Z" />
<path fill="#e0af55" opacity="1.00" d=" M 89.57 167.71 C 89.81 167.92 90.30 168.36 90.54 168.57 C 93.38 171.23 91.38 176.07 94.73 178.30 C 98.16 180.12 102.14 179.21 105.65 178.14 C 105.52 177.82 105.25 177.16 105.11 176.84 C 105.10 175.99 105.08 174.30 105.06 173.46 C 106.16 174.87 107.19 176.33 108.20 177.81 L 107.76 178.64 C 101.95 182.03 93.76 182.43 88.58 177.65 C 88.86 174.93 89.20 172.22 89.69 169.54 C 88.89 169.95 88.11 170.38 87.33 170.83 C 88.06 169.78 88.83 168.75 89.57 167.71 Z" />
</g>
<g id="#815224ff">
<path fill="#815224" opacity="1.00" d=" M 108.83 102.89 C 110.55 102.42 112.26 101.93 114.00 101.51 C 115.40 102.12 117.48 102.21 117.89 104.01 C 120.66 111.46 118.04 119.96 113.36 126.06 C 109.60 121.98 105.84 117.80 103.57 112.66 C 104.30 111.23 105.12 109.84 106.01 108.50 C 107.94 106.50 109.90 104.54 111.81 102.52 C 111.06 102.61 109.57 102.80 108.83 102.89 Z" />
</g>
<g id="#130f09f8">
<path fill="#130f09" opacity="0.97" d=" M 105.63 103.72 C 106.69 103.44 107.76 103.16 108.83 102.89 C 109.57 102.80 111.06 102.61 111.81 102.52 C 109.90 104.54 107.94 106.50 106.01 108.50 C 104.36 109.63 102.59 110.58 100.73 111.33 C 102.33 108.77 104.02 106.27 105.63 103.72 Z" />
</g>
<g id="#aa7e3eff">
<path fill="#aa7e3e" opacity="1.00" d=" M 93.18 107.49 C 93.50 107.14 94.16 106.43 94.49 106.08 C 94.84 106.17 95.54 106.37 95.89 106.47 C 97.55 108.05 99.07 109.75 100.73 111.33 C 102.59 110.58 104.36 109.63 106.01 108.50 C 105.12 109.84 104.30 111.23 103.57 112.66 C 103.32 113.17 102.83 114.19 102.59 114.70 C 101.38 113.80 100.16 112.90 98.95 111.99 C 100.55 115.06 102.88 118.09 102.74 121.71 C 100.32 123.14 97.40 122.98 94.71 123.14 C 92.24 122.40 89.72 121.83 87.20 121.29 C 88.35 126.54 91.42 131.06 93.24 136.07 C 93.51 137.03 93.77 138.01 94.00 138.99 C 92.81 138.11 91.62 137.22 90.50 136.26 C 86.67 131.70 82.12 127.79 77.03 124.69 C 75.49 124.24 73.91 123.91 72.35 123.55 C 74.77 121.87 76.82 119.72 78.48 117.28 C 81.61 120.93 86.84 119.00 90.97 120.01 C 94.58 120.92 98.40 117.72 98.19 114.04 C 97.06 111.50 94.94 109.59 93.18 107.49 Z" />
</g>
<g id="#7c7c7cff">
<path fill="#7c7c7c" opacity="1.00" d=" M 78.32 107.08 C 80.26 107.33 78.81 111.12 77.18 110.49 C 76.33 109.40 77.05 107.51 78.32 107.08 Z" />
</g>
<g id="#e8b75bff">
<path fill="#e8b75b" opacity="1.00" d=" M 56.64 109.57 C 57.16 108.96 57.67 108.34 58.17 107.73 C 58.22 109.68 58.04 111.62 57.79 113.55 C 60.13 114.42 62.55 115.06 65.00 115.54 C 64.35 117.52 63.69 119.50 62.68 121.33 C 56.28 122.61 50.09 124.75 43.80 126.44 C 48.15 120.87 52.05 114.94 56.64 109.57 Z" />
</g>
<g id="#9b6c37ff">
<path fill="#9b6c37" opacity="1.00" d=" M 98.95 111.99 C 100.16 112.90 101.38 113.80 102.59 114.70 C 102.83 114.19 103.32 113.17 103.57 112.66 C 105.84 117.80 109.60 121.98 113.36 126.06 C 113.43 126.57 113.57 127.60 113.64 128.11 C 107.95 126.18 102.01 125.26 96.19 123.88 C 95.82 123.70 95.08 123.33 94.71 123.14 C 97.40 122.98 100.32 123.14 102.74 121.71 C 102.88 118.09 100.55 115.06 98.95 111.99 Z" />
</g>
<g id="#efb05bff">
<path fill="#efb05b" opacity="1.00" d=" M 68.04 117.37 C 69.69 115.46 71.02 110.46 74.11 112.79 L 74.39 113.89 C 70.63 118.10 67.15 122.58 62.84 126.25 C 64.50 123.25 66.46 120.42 68.04 117.37 Z" />
</g>
<g id="#a47638ff">
<path fill="#a47638" opacity="1.00" d=" M 74.11 112.79 C 74.48 112.95 75.21 113.27 75.57 113.43 L 76.19 113.76 C 76.96 114.93 77.71 116.11 78.48 117.28 C 76.82 119.72 74.77 121.87 72.35 123.55 C 73.91 123.91 75.49 124.24 77.03 124.69 C 75.61 124.84 74.19 125.02 72.77 125.23 C 72.07 125.76 71.38 126.31 70.70 126.88 C 69.70 127.57 69.04 128.60 68.54 129.68 C 67.32 131.43 66.06 133.16 64.79 134.88 C 64.32 135.46 63.37 136.63 62.89 137.21 C 62.93 134.31 63.00 131.40 63.09 128.49 C 64.00 127.67 64.93 126.88 65.86 126.08 C 67.23 126.05 68.51 125.44 69.26 124.28 C 70.88 122.55 72.75 121.04 74.09 119.07 C 74.90 117.48 74.51 115.60 74.39 113.89 L 74.11 112.79 Z" />
</g>
<g id="#c18846fc">
<path fill="#c18846" opacity="1.00" d=" M 74.39 113.89 C 74.51 115.60 74.90 117.48 74.09 119.07 C 72.75 121.04 70.88 122.55 69.26 124.28 C 67.77 123.25 66.15 124.54 65.86 126.08 C 64.93 126.88 64.00 127.67 63.09 128.49 C 62.51 129.02 61.95 129.55 61.39 130.10 C 59.94 131.55 58.47 132.98 56.78 134.15 C 58.06 131.01 60.54 128.65 62.84 126.25 C 67.15 122.58 70.63 118.10 74.39 113.89 Z" />
</g>
<g id="#08090bb2">
<path fill="#08090b" opacity="0.70" d=" M 140.25 119.14 C 141.40 118.05 142.51 116.92 143.64 115.82 C 144.55 115.93 146.35 116.15 147.25 116.26 C 145.26 117.91 142.80 118.85 140.25 119.14 Z" />
</g>
<g id="#7f5023ff">
<path fill="#7f5023" opacity="1.00" d=" M 93.24 136.07 C 91.42 131.06 88.35 126.54 87.20 121.29 C 89.72 121.83 92.24 122.40 94.71 123.14 C 95.08 123.33 95.82 123.70 96.19 123.88 C 96.53 125.83 97.12 127.84 96.79 129.83 C 95.96 132.09 94.51 134.04 93.24 136.07 Z" />
</g>
<g id="#d7b15eff">
<path fill="#d7b15e" opacity="1.00" d=" M 65.86 126.08 C 66.15 124.54 67.77 123.25 69.26 124.28 C 68.51 125.44 67.23 126.05 65.86 126.08 Z" />
</g>
<g id="#986c33ff">
<path fill="#986c33" opacity="1.00" d=" M 70.70 126.88 C 71.38 126.31 72.07 125.76 72.77 125.23 C 73.43 126.75 74.08 128.28 74.77 129.78 C 76.38 135.49 81.94 139.27 87.73 139.60 C 90.06 139.57 91.54 141.43 93.07 142.91 C 94.79 144.90 98.26 144.58 100.27 143.27 C 103.16 139.21 102.94 133.90 103.28 129.14 C 104.13 130.47 104.99 131.79 105.85 133.12 C 107.13 132.53 108.41 131.94 109.70 131.35 C 109.65 132.40 109.61 133.46 109.57 134.51 C 110.19 134.90 110.80 135.30 111.42 135.70 C 111.51 136.95 111.61 138.19 111.70 139.44 L 111.72 139.60 C 110.36 140.08 109.00 140.56 107.65 141.04 C 107.90 144.93 107.69 148.89 108.60 152.72 C 107.40 152.20 106.19 151.69 104.98 151.18 C 104.89 151.75 104.71 152.88 104.61 153.45 C 103.58 153.05 102.55 152.65 101.52 152.26 C 101.41 152.94 101.21 154.31 101.10 154.99 C 99.69 155.26 98.28 155.52 96.87 155.79 C 95.86 157.47 94.60 159.07 94.11 161.01 C 94.35 163.05 95.25 164.92 96.16 166.74 C 95.11 166.60 94.07 166.45 93.03 166.31 C 92.20 167.07 91.37 167.82 90.54 168.57 C 90.30 168.36 89.81 167.92 89.57 167.71 C 88.29 166.62 87.05 165.50 85.77 164.43 C 85.48 164.19 84.90 163.71 84.61 163.47 C 84.63 162.43 84.64 161.39 84.66 160.35 C 83.37 159.75 82.08 159.16 80.79 158.57 C 80.49 157.15 80.20 155.72 79.92 154.29 C 82.82 153.83 85.31 155.48 87.88 156.49 C 89.57 155.52 91.03 153.15 89.62 151.36 C 86.38 146.99 81.14 144.65 77.72 140.44 C 74.69 136.63 73.00 132.01 71.04 127.62 L 70.70 126.88 Z" />
</g>
<g id="#7e4f23ff">
<path fill="#7e4f23" opacity="1.00" d=" M 72.77 125.23 C 74.19 125.02 75.61 124.84 77.03 124.69 C 82.12 127.79 86.67 131.70 90.50 136.26 C 87.49 136.16 84.39 136.35 81.48 135.46 C 79.05 133.81 76.99 131.69 74.77 129.78 C 74.08 128.28 73.43 126.75 72.77 125.23 Z" />
</g>
<g id="#e0a44af4">
<path fill="#e0a44a" opacity="0.96" d=" M 68.54 129.68 C 69.04 128.60 69.70 127.57 70.70 126.88 L 71.04 127.62 C 71.61 129.20 71.25 130.33 69.94 131.01 C 69.59 130.68 68.89 130.01 68.54 129.68 Z" />
</g>
<g id="#be8e44ff">
<path fill="#be8e44" opacity="1.00" d=" M 71.04 127.62 C 73.00 132.01 74.69 136.63 77.72 140.44 C 81.14 144.65 86.38 146.99 89.62 151.36 C 91.03 153.15 89.57 155.52 87.88 156.49 C 85.31 155.48 82.82 153.83 79.92 154.29 C 78.61 154.43 77.30 154.60 76.00 154.80 C 77.32 152.64 77.99 150.18 78.33 147.69 C 76.76 148.55 75.22 149.45 73.70 150.40 C 74.10 147.95 74.70 145.54 75.30 143.14 C 73.46 139.11 73.12 134.34 69.94 131.01 C 71.25 130.33 71.61 129.20 71.04 127.62 Z" />
</g>
<g id="#1b150b56">
<path fill="#1b150b" opacity="0.34" d=" M 61.39 130.10 C 61.95 129.55 62.51 129.02 63.09 128.49 C 63.00 131.40 62.93 134.31 62.89 137.21 C 63.37 136.63 64.32 135.46 64.79 134.88 C 64.40 136.45 63.43 137.72 62.00 138.49 C 61.94 135.69 62.79 132.69 61.39 130.10 Z" />
</g>
<g id="#b38b44e0">
<path fill="#b38b44" opacity="0.88" d=" M 49.78 141.18 C 51.45 138.71 53.07 135.94 55.98 134.79 C 54.57 137.46 52.12 139.36 49.78 141.18 Z" />
</g>
<g id="#da9f4cff">
<path fill="#da9f4c" opacity="1.00" d=" M 73.70 150.40 C 75.22 149.45 76.76 148.55 78.33 147.69 C 77.99 150.18 77.32 152.64 76.00 154.80 L 74.90 155.01 C 75.18 153.78 75.47 152.55 75.76 151.32 C 75.16 151.14 73.98 150.78 73.39 150.59 L 73.70 150.40 Z" />
</g>
<g id="#a17d56ff">
<path fill="#a17d56" opacity="1.00" d=" M 69.68 157.89 C 70.32 155.21 72.18 153.03 73.39 150.59 C 73.98 150.78 75.16 151.14 75.76 151.32 C 75.47 152.55 75.18 153.78 74.90 155.01 L 76.00 154.80 C 77.30 154.60 78.61 154.43 79.92 154.29 C 80.20 155.72 80.49 157.15 80.79 158.57 C 78.65 163.82 74.24 167.64 71.94 172.75 C 71.03 172.63 70.18 172.33 69.39 171.85 C 69.26 171.90 69.02 172.01 68.90 172.06 C 68.38 171.65 67.34 170.84 66.82 170.43 L 66.47 170.15 C 67.28 170.03 68.91 169.80 69.73 169.69 C 71.29 166.72 72.79 163.72 74.26 160.71 C 73.02 160.13 71.74 159.63 70.51 159.03 C 70.30 158.75 69.88 158.18 69.68 157.89 Z" />
</g>
<g id="#7f614dff">
<path fill="#7f614d" opacity="1.00" d=" M 104.98 151.18 C 106.19 151.69 107.40 152.20 108.60 152.72 C 109.87 156.59 111.15 160.54 111.35 164.64 C 111.18 167.05 110.76 169.43 110.25 171.78 C 109.42 170.11 108.57 168.44 107.68 166.80 C 108.16 162.07 106.16 157.77 104.61 153.45 C 104.71 152.88 104.89 151.75 104.98 151.18 Z" />
</g>
<g id="#ac865dff">
<path fill="#ac865d" opacity="1.00" d=" M 101.52 152.26 C 102.55 152.65 103.58 153.05 104.61 153.45 C 106.16 157.77 108.16 162.07 107.68 166.80 C 106.32 166.80 104.96 166.79 103.61 166.77 C 103.06 168.26 102.15 169.75 102.47 171.40 C 103.77 171.68 105.12 171.63 106.45 171.68 C 106.77 171.18 107.42 170.19 107.74 169.70 C 107.77 170.43 107.84 171.89 107.88 172.62 C 106.00 173.09 104.13 173.56 102.25 174.00 C 100.14 171.65 98.01 169.30 96.16 166.74 C 95.25 164.92 94.35 163.05 94.11 161.01 C 94.60 159.07 95.86 157.47 96.87 155.79 C 98.28 155.52 99.69 155.26 101.10 154.99 C 101.21 154.31 101.41 152.94 101.52 152.26 Z" />
</g>
<g id="#6d4e3bff">
<path fill="#6d4e3b" opacity="1.00" d=" M 71.94 172.75 C 74.24 167.64 78.65 163.82 80.79 158.57 C 82.08 159.16 83.37 159.75 84.66 160.35 C 84.64 161.39 84.63 162.43 84.61 163.47 C 84.90 163.71 85.48 164.19 85.77 164.43 C 85.40 164.50 84.65 164.65 84.28 164.73 C 80.87 168.04 77.44 171.54 72.92 173.32 C 72.67 173.18 72.18 172.89 71.94 172.75 Z" />
</g>
<g id="#f1e6bcff">
<path fill="#f1e6bc" opacity="1.00" d=" M 26.65 164.44 C 29.23 162.46 32.56 161.61 35.77 162.15 C 35.61 163.92 35.28 165.68 34.56 167.32 C 34.43 167.46 34.15 167.73 34.02 167.87 C 33.01 167.19 31.98 166.54 30.92 165.95 C 29.51 165.39 28.08 164.93 26.65 164.44 Z" />
</g>
<g id="#e4a34eff">
<path fill="#e4a34e" opacity="1.00" d=" M 36.93 161.69 C 39.07 163.21 40.90 165.11 42.53 167.16 C 40.77 168.08 39.03 169.05 37.32 170.05 C 36.19 169.36 35.11 168.60 34.02 167.87 C 34.15 167.73 34.43 167.46 34.56 167.32 C 36.59 166.11 36.57 163.73 36.93 161.69 Z" />
</g>
<g id="#ffffe3ff">
<path fill="#ffffe3" opacity="1.00" d=" M 120.55 163.62 C 121.73 163.42 122.89 163.21 124.06 162.98 C 125.87 163.80 127.47 165.12 125.95 167.15 C 124.24 167.43 122.50 167.58 120.77 167.77 C 120.77 166.44 120.65 165.10 120.56 163.77 L 120.55 163.62 Z" />
<path fill="#ffffe3" opacity="1.00" d=" M 52.16 205.36 C 52.80 205.52 54.07 205.85 54.71 206.02 C 54.71 206.64 54.71 207.89 54.71 208.51 C 53.12 209.73 51.45 210.85 49.57 211.57 C 50.60 209.58 51.86 207.63 52.16 205.36 Z" />
</g>
<g id="#433f3481">
<path fill="#433f34" opacity="0.51" d=" M 26.24 166.92 C 26.38 166.09 26.52 165.26 26.65 164.44 C 28.08 164.93 29.51 165.39 30.92 165.95 C 30.73 166.16 30.36 166.59 30.17 166.81 L 29.22 166.85 C 28.48 166.87 26.99 166.90 26.24 166.92 Z" />
</g>
<g id="#d1a884ff">
<path fill="#d1a884" opacity="1.00" d=" M 67.38 164.05 C 68.11 165.60 68.43 167.50 67.22 168.90 C 66.17 167.60 66.25 165.28 67.38 164.05 Z" />
</g>
<g id="#fecb5dff">
<path fill="#fecb5d" opacity="1.00" d=" M 118.21 167.81 C 118.90 166.42 119.13 164.65 120.56 163.77 C 120.65 165.10 120.77 166.44 120.77 167.77 C 120.20 169.09 119.56 170.38 118.96 171.68 C 117.61 174.52 117.09 177.65 116.57 180.73 C 115.90 180.49 115.23 180.27 114.56 180.04 C 113.04 177.33 111.57 174.59 110.25 171.78 C 110.76 169.43 111.18 167.05 111.35 164.64 C 113.69 165.58 115.96 166.68 118.21 167.81 Z" />
</g>
<g id="#ffc758ff">
<path fill="#ffc758" opacity="1.00" d=" M 30.92 165.95 C 31.98 166.54 33.01 167.19 34.02 167.87 C 35.11 168.60 36.19 169.36 37.32 170.05 C 37.85 170.24 38.93 170.62 39.46 170.81 L 40.25 171.93 C 41.38 173.80 42.29 175.80 43.20 177.80 C 42.51 178.20 41.12 179.00 40.43 179.40 C 39.32 177.19 37.65 175.36 36.19 173.39 C 35.94 172.92 35.43 171.98 35.17 171.51 C 33.33 171.53 31.50 171.55 29.66 171.58 C 29.80 169.98 29.97 168.39 30.17 166.81 C 30.36 166.59 30.73 166.16 30.92 165.95 Z" />
</g>
<g id="#bb954cff">
<path fill="#bb954c" opacity="1.00" d=" M 90.54 168.57 C 91.37 167.82 92.20 167.07 93.03 166.31 C 94.07 166.45 95.11 166.60 96.16 166.74 C 98.01 169.30 100.14 171.65 102.25 174.00 C 100.06 174.52 97.80 174.92 95.80 176.02 C 98.55 178.03 102.02 177.14 105.11 176.84 C 105.25 177.16 105.52 177.82 105.65 178.14 C 102.14 179.21 98.16 180.12 94.73 178.30 C 91.38 176.07 93.38 171.23 90.54 168.57 Z" />
</g>
<g id="#ffffd1ff">
<path fill="#ffffd1" opacity="1.00" d=" M 20.27 169.89 C 21.89 168.33 23.87 166.80 26.24 166.92 C 26.99 166.90 28.48 166.87 29.22 166.85 C 29.15 167.34 29.01 168.33 28.94 168.82 C 28.82 169.52 28.58 170.93 28.46 171.63 L 26.91 170.74 C 25.90 169.98 24.63 169.67 23.38 169.86 C 22.60 169.87 21.05 169.88 20.27 169.89 Z" />
<path fill="#ffffd1" opacity="1.00" d=" M 102.47 171.40 C 102.15 169.75 103.06 168.26 103.61 166.77 C 104.96 166.79 106.32 166.80 107.68 166.80 C 107.70 167.53 107.73 168.97 107.74 169.70 C 107.42 170.19 106.77 171.18 106.45 171.68 C 105.12 171.63 103.77 171.68 102.47 171.40 Z" />
</g>
<g id="#c0964eea">
<path fill="#c0964e" opacity="0.92" d=" M 29.22 166.85 L 30.17 166.81 C 29.97 168.39 29.80 169.98 29.66 171.58 C 31.50 171.55 33.33 171.53 35.17 171.51 C 35.43 171.98 35.94 172.92 36.19 173.39 C 33.30 172.89 27.38 173.50 28.94 168.82 C 29.01 168.33 29.15 167.34 29.22 166.85 Z" />
</g>
<g id="#ffffd3ff">
<path fill="#ffffd3" opacity="1.00" d=" M 42.53 167.16 C 44.87 167.20 49.57 166.42 46.10 171.06 L 46.16 170.05 L 46.27 169.10 C 43.98 169.58 41.72 170.21 39.46 170.81 C 38.93 170.62 37.85 170.24 37.32 170.05 C 39.03 169.05 40.77 168.08 42.53 167.16 Z" />
<path fill="#ffffd3" opacity="1.00" d=" M 137.77 168.83 C 139.88 169.23 142.55 169.37 143.96 171.23 C 144.02 171.62 144.16 172.40 144.22 172.79 C 142.40 173.17 140.59 173.59 138.78 174.05 C 138.05 173.06 137.29 172.10 136.56 171.12 C 136.86 170.55 137.46 169.40 137.77 168.83 Z" />
</g>
<g id="#c08441ff">
<path fill="#c08441" opacity="1.00" d=" M 107.68 166.80 C 108.57 168.44 109.42 170.11 110.25 171.78 C 111.57 174.59 113.04 177.33 114.56 180.04 C 113.82 180.97 113.08 181.90 112.35 182.83 C 110.82 181.28 109.39 179.63 108.20 177.81 C 107.19 176.33 106.16 174.87 105.06 173.46 C 105.08 174.30 105.10 175.99 105.11 176.84 C 102.02 177.14 98.55 178.03 95.80 176.02 C 97.80 174.92 100.06 174.52 102.25 174.00 C 104.13 173.56 106.00 173.09 107.88 172.62 C 107.84 171.89 107.77 170.43 107.74 169.70 C 107.73 168.97 107.70 167.53 107.68 166.80 Z" />
</g>
<g id="#bb7d3eff">
<path fill="#bb7d3e" opacity="1.00" d=" M 120.77 167.77 C 122.50 167.58 124.24 167.43 125.95 167.15 C 125.57 168.50 124.55 169.49 123.70 170.55 C 121.88 173.88 121.34 178.11 122.62 181.71 C 125.49 180.92 127.11 178.08 129.40 176.38 C 131.08 174.62 133.59 174.45 135.84 174.05 C 135.97 172.20 136.09 170.36 136.21 168.52 L 136.24 168.07 C 136.62 168.26 137.39 168.64 137.77 168.83 C 137.46 169.40 136.86 170.55 136.56 171.12 C 137.29 172.10 138.05 173.06 138.78 174.05 C 138.48 176.47 135.15 175.02 133.51 175.71 C 132.32 176.56 131.21 177.51 130.11 178.47 C 129.94 178.63 129.61 178.95 129.44 179.11 C 129.04 179.51 128.24 180.32 127.84 180.73 C 125.22 183.33 122.41 185.81 120.46 188.99 C 120.34 189.33 120.10 190.02 119.98 190.36 C 116.95 193.18 115.01 196.97 114.62 201.11 C 112.23 194.77 118.46 190.27 120.83 185.08 C 120.03 184.03 118.78 183.19 118.40 181.89 C 118.49 178.48 119.04 175.10 118.96 171.68 C 119.56 170.38 120.20 169.09 120.77 167.77 Z" />
</g>
<g id="#d9c59eff">
<path fill="#d9c59e" opacity="1.00" d=" M 47.06 168.97 C 47.08 168.81 47.12 168.50 47.14 168.34 C 47.12 168.50 47.08 168.81 47.06 168.97 Z" />
</g>
<g id="#ac6e36ff">
<path fill="#ac6e36" opacity="1.00" d=" M 47.14 168.34 C 48.97 167.59 49.35 169.90 50.18 170.90 C 51.63 173.58 51.69 176.85 53.41 179.40 C 57.07 181.79 60.38 178.19 63.44 176.53 C 65.31 175.19 67.82 174.64 69.29 172.85 C 70.38 173.62 69.76 175.08 68.84 175.68 C 65.24 178.54 61.05 180.60 57.58 183.63 C 55.23 185.36 56.45 188.49 56.55 190.91 C 56.87 195.80 58.81 200.58 58.01 205.53 C 56.27 205.26 54.53 205.03 52.81 204.68 C 53.69 204.59 55.46 204.41 56.34 204.32 C 57.58 198.35 53.69 193.41 50.58 188.79 C 48.04 184.10 49.27 178.47 46.91 173.79 C 46.31 173.46 45.10 172.81 44.50 172.48 L 45.11 172.11 C 45.44 171.94 46.12 171.60 46.46 171.43 C 46.61 170.82 46.91 169.59 47.06 168.97 C 47.08 168.81 47.12 168.50 47.14 168.34 Z" />
</g>
<g id="#fdc95cff">
<path fill="#fdc95c" opacity="1.00" d=" M 128.10 172.66 C 130.88 171.44 133.45 169.80 136.21 168.52 C 136.09 170.36 135.97 172.20 135.84 174.05 C 133.59 174.45 131.08 174.62 129.40 176.38 C 127.11 178.08 125.49 180.92 122.62 181.71 C 121.34 178.11 121.88 173.88 123.70 170.55 C 125.16 171.26 126.58 172.07 128.10 172.66 Z" />
</g>
<g id="#645c53a3">
<path fill="#645c53" opacity="0.64" d=" M 23.38 169.86 C 24.63 169.67 25.90 169.98 26.91 170.74 C 26.07 171.86 22.92 171.63 23.38 169.86 Z" />
</g>
<g id="#c7ac8cff">
<path fill="#c7ac8c" opacity="1.00" d=" M 39.46 170.81 C 41.72 170.21 43.98 169.58 46.27 169.10 L 46.16 170.05 C 45.89 170.56 45.37 171.60 45.11 172.11 L 44.50 172.48 C 43.06 172.52 41.63 172.30 40.25 171.93 L 39.46 170.81 Z" />
</g>
<g id="#ffd35fff">
<path fill="#ffd35f" opacity="1.00" d=" M 87.33 170.83 C 88.11 170.38 88.89 169.95 89.69 169.54 C 89.20 172.22 88.86 174.93 88.58 177.65 C 86.99 184.08 86.08 190.68 84.10 197.01 C 83.72 199.54 84.08 202.10 84.21 204.63 C 83.30 206.18 82.46 207.77 81.64 209.37 C 81.26 209.02 80.49 208.32 80.11 207.96 C 81.23 203.09 81.10 198.00 79.19 193.33 C 79.92 191.06 80.69 188.80 81.40 186.53 C 80.88 186.95 79.82 187.80 79.30 188.22 C 79.71 184.16 82.03 180.69 83.19 176.85 C 84.32 174.69 85.79 172.71 87.33 170.83 Z" />
</g>
<g id="#f0ab4eff">
<path fill="#f0ab4e" opacity="1.00" d=" M 53.41 179.40 C 58.05 176.67 62.32 173.39 66.82 170.43 C 67.34 170.84 68.38 171.65 68.90 172.06 L 69.29 172.85 C 67.82 174.64 65.31 175.19 63.44 176.53 C 60.38 178.19 57.07 181.79 53.41 179.40 Z" />
</g>
<g id="#2f282474">
<path fill="#2f2824" opacity="0.45" d=" M 143.96 171.23 C 145.61 171.62 145.69 172.14 144.22 172.79 C 144.16 172.40 144.02 171.62 143.96 171.23 Z" />
</g>
<g id="#e9a74eff">
<path fill="#e9a74e" opacity="1.00" d=" M 40.25 171.93 C 41.63 172.30 43.06 172.52 44.50 172.48 C 45.10 172.81 46.31 173.46 46.91 173.79 C 46.44 175.50 45.99 177.22 45.54 178.94 C 44.76 178.55 43.98 178.17 43.20 177.80 C 42.29 175.80 41.38 173.80 40.25 171.93 Z" />
</g>
<g id="#d5964dff">
<path fill="#d5964d" opacity="1.00" d=" M 116.57 180.73 C 117.09 177.65 117.61 174.52 118.96 171.68 C 119.04 175.10 118.49 178.48 118.40 181.89 C 118.78 183.19 120.03 184.03 120.83 185.08 C 118.46 190.27 112.23 194.77 114.62 201.11 C 115.40 203.50 115.76 205.98 114.93 208.43 C 114.78 207.95 114.46 207.01 114.31 206.54 C 114.09 206.51 113.65 206.45 113.43 206.42 C 112.87 201.60 112.36 196.78 112.03 191.94 C 111.70 187.21 109.36 183.00 107.76 178.64 L 108.20 177.81 C 109.39 179.63 110.82 181.28 112.35 182.83 C 113.08 181.90 113.82 180.97 114.56 180.04 C 115.23 180.27 115.90 180.49 116.57 180.73 Z" />
</g>
<g id="#fed671ff">
<path fill="#fed671" opacity="1.00" d=" M 45.54 178.94 C 45.99 177.22 46.44 175.50 46.91 173.79 C 49.27 178.47 48.04 184.10 50.58 188.79 C 50.45 189.21 50.17 190.04 50.04 190.46 C 49.66 190.46 48.91 190.47 48.54 190.48 C 47.02 188.33 45.36 186.26 44.04 183.98 C 43.69 183.04 43.08 182.31 42.23 181.79 C 41.59 181.02 40.99 180.22 40.43 179.40 C 41.12 179.00 42.51 178.20 43.20 177.80 C 43.98 178.17 44.76 178.55 45.54 178.94 Z" />
</g>
<g id="#ffcb52ff">
<path fill="#ffcb52" opacity="1.00" d=" M 84.10 197.01 C 86.08 190.68 86.99 184.08 88.58 177.65 C 93.76 182.43 101.95 182.03 107.76 178.64 C 109.36 183.00 111.70 187.21 112.03 191.94 C 112.36 196.78 112.87 201.60 113.43 206.42 C 111.95 206.41 110.46 206.43 108.98 206.48 C 109.15 205.01 109.33 203.54 109.50 202.08 C 108.00 200.04 106.50 198.01 104.96 196.01 C 104.38 201.81 103.63 207.59 102.53 213.31 C 99.03 214.57 99.29 218.63 98.46 221.59 C 97.99 221.63 97.07 221.70 96.60 221.74 C 96.38 220.48 96.15 219.22 95.93 217.97 C 95.17 217.89 93.65 217.75 92.89 217.67 L 92.87 217.12 C 92.54 208.70 89.01 200.62 89.52 192.09 C 89.07 196.46 86.63 200.19 84.59 203.96 L 84.21 204.63 C 84.08 202.10 83.72 199.54 84.10 197.01 Z" />
</g>
<g id="#0d110dff">
<path fill="#0d110d" opacity="1.00" d=" M 129.44 179.11 C 134.47 182.98 139.56 186.83 144.18 191.19 C 141.31 190.57 138.52 189.65 135.68 188.94 C 133.11 186.16 130.48 183.44 127.84 180.73 C 128.24 180.32 129.04 179.51 129.44 179.11 Z" />
</g>
<g id="#cfa451ff">
<path fill="#cfa451" opacity="1.00" d=" M 120.46 188.99 C 122.41 185.81 125.22 183.33 127.84 180.73 C 130.48 183.44 133.11 186.16 135.68 188.94 C 141.72 195.64 148.02 202.19 152.97 209.78 C 144.67 205.17 136.97 199.59 128.91 194.59 C 126.11 192.69 123.27 190.86 120.46 188.99 Z" />
</g>
<g id="#3028155c">
<path fill="#302815" opacity="0.36" d=" M 42.23 181.79 C 43.08 182.31 43.69 183.04 44.04 183.98 C 42.23 184.27 41.63 183.54 42.23 181.79 Z" />
</g>
<g id="#ffd15cff">
<path fill="#ffd15c" opacity="1.00" d=" M 50.58 188.79 C 53.69 193.41 57.58 198.35 56.34 204.32 C 55.46 204.41 53.69 204.59 52.81 204.68 C 52.82 204.01 52.84 202.67 52.86 201.99 C 54.26 197.69 51.18 193.60 48.54 190.48 C 48.91 190.47 49.66 190.46 50.04 190.46 C 50.17 190.04 50.45 189.21 50.58 188.79 Z" />
</g>
<g id="#0e0c0bff">
<path fill="#0e0c0b" opacity="1.00" d=" M 120.46 188.99 C 123.27 190.86 126.11 192.69 128.91 194.59 C 130.02 196.76 131.08 198.96 132.27 201.08 L 132.18 201.16 C 130.37 202.49 128.87 204.17 127.57 206.00 C 126.38 205.00 125.12 204.07 124.04 202.97 C 122.68 198.76 121.26 194.58 119.98 190.36 C 120.10 190.02 120.34 189.33 120.46 188.99 Z" />
</g>
<g id="#d8aa51ff">
<path fill="#d8aa51" opacity="1.00" d=" M 114.62 201.11 C 115.01 196.97 116.95 193.18 119.98 190.36 C 121.26 194.58 122.68 198.76 124.04 202.97 C 125.14 206.57 126.31 210.15 127.38 213.77 C 124.57 213.94 121.16 213.59 119.73 216.64 C 118.13 214.55 116.58 212.41 114.94 210.35 C 114.94 209.87 114.94 208.91 114.93 208.43 C 115.76 205.98 115.40 203.50 114.62 201.11 Z" />
</g>
<g id="#110f0cff">
<path fill="#110f0c" opacity="1.00" d=" M 84.59 203.96 C 86.63 200.19 89.07 196.46 89.52 192.09 C 89.01 200.62 92.54 208.70 92.87 217.12 C 92.23 215.11 92.03 212.97 91.11 211.06 L 90.73 212.92 C 88.66 212.08 86.58 211.27 84.49 210.48 C 84.49 208.31 84.43 206.13 84.59 203.96 Z" />
</g>
<g id="#ffe26dff">
<path fill="#ffe26d" opacity="1.00" d=" M 76.11 205.13 C 76.99 201.16 77.89 197.19 79.19 193.33 C 81.10 198.00 81.23 203.09 80.11 207.96 C 80.49 208.32 81.26 209.02 81.64 209.37 C 80.88 210.79 80.10 212.19 79.31 213.59 C 77.71 210.99 76.91 208.04 76.11 205.13 Z" />
</g>
<g id="#100e0bff">
<path fill="#100e0b" opacity="1.00" d=" M 104.96 196.01 C 106.50 198.01 108.00 200.04 109.50 202.08 C 109.33 203.54 109.15 205.01 108.98 206.48 C 110.46 206.43 111.95 206.41 113.43 206.42 C 113.65 206.45 114.09 206.51 114.31 206.54 C 114.46 207.01 114.78 207.95 114.93 208.43 C 114.94 208.91 114.94 209.87 114.94 210.35 C 114.96 211.79 114.98 213.24 115.00 214.68 L 113.32 213.79 C 113.25 215.87 113.17 217.96 112.96 220.04 C 112.88 218.01 112.73 215.98 112.61 213.95 C 110.27 213.09 107.81 213.39 105.46 214.04 C 104.75 212.74 104.04 211.43 103.33 210.14 C 102.65 214.82 102.02 219.51 101.12 224.15 C 101.58 220.54 102.05 216.93 102.53 213.31 C 103.63 207.59 104.38 201.81 104.96 196.01 M 109.82 206.84 C 110.20 209.50 111.63 211.77 113.12 213.93 C 115.08 211.94 114.43 209.30 114.16 206.81 C 113.07 206.82 110.91 206.83 109.82 206.84 Z" />
</g>
<g id="#8e7b66d8">
<path fill="#8e7b66" opacity="0.85" d=" M 52.16 205.36 C 52.32 204.22 52.52 203.09 52.86 201.99 C 52.84 202.67 52.82 204.01 52.81 204.68 C 54.53 205.03 56.27 205.26 58.01 205.53 C 55.81 208.76 52.92 212.45 48.53 212.04 C 48.79 211.92 49.31 211.69 49.57 211.57 C 51.45 210.85 53.12 209.73 54.71 208.51 C 54.71 207.89 54.71 206.64 54.71 206.02 C 54.07 205.85 52.80 205.52 52.16 205.36 Z" />
</g>
<g id="#f8f7ccff">
<path fill="#f8f7cc" opacity="1.00" d=" M 109.82 206.84 C 110.91 206.83 113.07 206.82 114.16 206.81 C 114.43 209.30 115.08 211.94 113.12 213.93 C 111.63 211.77 110.20 209.50 109.82 206.84 Z" />
</g>
<g id="#001725fe">
<path fill="#001725" opacity="1.00" d=" M 105.46 214.04 C 107.81 213.39 110.27 213.09 112.61 213.95 C 112.73 215.98 112.88 218.01 112.96 220.04 C 112.98 222.16 112.79 224.27 112.59 226.37 C 109.64 222.63 107.54 218.30 105.46 214.04 Z" />
</g>
<g id="#e9c46dfe">
<path fill="#e9c46d" opacity="1.00" d=" M 98.46 221.59 C 99.29 218.63 99.03 214.57 102.53 213.31 C 102.05 216.93 101.58 220.54 101.12 224.15 C 100.08 229.47 99.88 235.08 97.69 240.08 C 95.34 232.80 94.37 225.17 92.89 217.67 C 93.65 217.75 95.17 217.89 95.93 217.97 C 96.15 219.22 96.38 220.48 96.60 221.74 C 97.07 221.70 97.99 221.63 98.46 221.59 Z" />
</g>
<g id="#cfa65efe">
<path fill="#cfa65e" opacity="1.00" d=" M 119.73 216.64 C 121.16 213.59 124.57 213.94 127.38 213.77 C 129.22 220.04 131.24 226.31 132.25 232.79 C 127.41 227.97 123.80 222.13 119.62 216.77 L 119.73 216.64 Z" />
</g>
</svg>
