<?xml version="1.0" encoding="UTF-8" ?>
<!DOCTYPE svg PUBLIC "-//W3C//DTD SVG 1.1//EN" "http://www.w3.org/Graphics/SVG/1.1/DTD/svg11.dtd">
<svg width="233pt" height="98pt" viewBox="0 0 233 98" version="1.1" xmlns="http://www.w3.org/2000/svg">
<g id="#ff6d04ff">
<path fill="#ff6d04" opacity="1.00" d=" M 216.54 0.00 L 217.27 0.00 C 217.52 1.11 217.77 2.22 218.02 3.34 C 218.09 5.81 219.78 7.47 221.68 8.78 C 221.76 7.72 221.90 5.60 221.98 4.54 L 222.94 4.90 C 224.09 6.02 225.18 7.19 226.31 8.34 L 223.25 8.44 C 225.70 11.13 229.46 12.47 233.00 11.34 L 233.00 13.72 C 229.11 14.07 225.60 12.36 221.95 11.42 C 219.65 13.11 217.52 15.07 214.96 16.37 C 213.41 16.59 212.53 15.18 211.74 14.12 C 212.82 13.18 213.92 12.26 215.08 11.41 C 215.35 11.22 215.89 10.85 216.16 10.66 C 215.42 10.17 213.95 9.19 213.21 8.69 C 214.25 7.96 215.28 7.20 216.31 6.45 C 214.90 5.09 213.48 3.73 212.08 2.37 L 213.59 1.99 C 214.31 1.81 215.76 1.46 216.48 1.28 L 216.54 0.00 Z" />
<path fill="#ff6d04" opacity="1.00" d=" M 128.79 70.97 C 131.67 71.67 133.97 73.61 136.26 75.37 C 136.38 77.51 136.62 79.65 137.27 81.70 C 136.70 82.55 136.12 83.39 135.56 84.23 C 137.23 86.53 138.68 89.16 141.06 90.83 C 142.60 90.91 144.14 90.78 145.67 90.71 C 145.50 89.84 145.33 88.97 145.16 88.10 C 146.43 87.42 147.10 86.03 148.37 85.31 C 149.69 89.58 147.51 93.74 147.64 98.00 L 147.25 98.00 C 146.63 97.71 145.41 97.14 144.79 96.85 C 144.36 95.81 143.94 94.77 143.51 93.74 C 143.16 94.43 142.46 95.82 142.12 96.51 C 141.57 95.29 141.04 94.07 140.52 92.85 C 140.27 93.05 139.77 93.46 139.52 93.67 C 137.85 94.19 136.06 94.68 134.81 96.00 C 134.36 95.56 133.47 94.68 133.02 94.24 C 128.53 94.22 125.32 90.14 124.93 85.92 C 125.34 86.16 126.15 86.65 126.55 86.89 C 126.42 88.45 127.07 89.97 128.21 91.03 C 128.46 90.60 128.97 89.73 129.22 89.30 C 129.89 84.64 126.80 80.49 125.11 76.34 C 125.15 75.91 125.22 75.03 125.25 74.60 C 127.25 76.01 129.44 77.12 131.68 78.11 C 130.46 75.85 128.61 73.69 128.79 70.97 Z" />
</g>
<g id="#ffd667ff">
<path fill="#ffd667" opacity="1.00" d=" M 197.96 2.38 C 201.89 2.37 205.87 1.28 209.74 2.27 C 207.33 2.62 204.95 3.12 202.57 3.64 C 193.60 2.94 184.99 6.35 176.97 9.95 C 167.14 15.17 157.64 21.07 149.00 28.10 C 143.12 33.04 136.30 36.66 130.00 41.02 C 127.00 43.13 123.68 44.73 120.25 45.99 C 120.52 47.47 120.78 48.95 121.14 50.41 C 121.55 50.52 122.35 50.74 122.76 50.85 L 123.46 51.07 C 123.50 52.05 123.51 53.03 123.55 54.01 C 123.99 57.27 124.45 60.54 125.33 63.71 L 126.06 64.83 C 126.68 67.91 126.12 71.03 125.36 74.03 C 123.55 73.28 121.75 72.51 120.05 71.54 L 120.42 70.04 C 120.81 68.56 121.26 67.10 121.69 65.63 C 118.07 63.96 113.90 62.87 111.26 59.68 C 109.02 56.95 107.38 53.54 107.27 49.97 C 107.49 46.62 109.44 43.75 110.79 40.77 C 111.04 41.36 111.53 42.55 111.77 43.14 C 113.45 43.41 115.12 43.70 116.79 44.02 C 119.18 42.60 121.56 41.10 124.23 40.24 C 129.93 38.58 134.94 35.19 139.50 31.47 C 143.42 28.19 148.36 26.49 152.40 23.38 C 166.02 13.61 180.77 3.74 197.96 2.38 Z" />
<path fill="#ffd667" opacity="1.00" d=" M 12.37 4.53 C 24.39 2.33 37.07 1.12 49.00 4.60 C 50.46 3.85 51.92 3.11 53.38 2.37 C 52.95 3.38 52.53 4.39 52.11 5.41 C 54.18 6.08 56.22 6.83 58.22 7.70 C 58.65 7.25 59.52 6.36 59.95 5.91 C 59.75 9.54 63.23 10.34 65.89 11.33 C 67.03 11.88 68.29 12.64 69.61 12.21 C 69.98 13.18 70.36 14.14 70.75 15.10 L 71.49 17.05 C 62.83 11.97 53.99 6.54 43.86 5.10 C 36.49 3.47 28.96 4.00 21.50 4.54 C 18.44 4.35 15.49 5.11 12.91 6.78 C 12.79 6.83 12.55 6.95 12.43 7.00 C 12.41 6.39 12.38 5.15 12.37 4.53 Z" />
</g>
<g id="#ad7d3aff">
<path fill="#ad7d3a" opacity="1.00" d=" M 209.74 2.27 C 210.52 2.32 211.30 2.35 212.08 2.37 C 213.48 3.73 214.90 5.09 216.31 6.45 C 213.71 7.28 211.08 8.01 208.49 8.84 C 210.06 9.00 211.65 9.04 213.21 8.69 C 213.95 9.19 215.42 10.17 216.16 10.66 C 215.89 10.85 215.35 11.22 215.08 11.41 C 210.84 13.50 206.20 11.21 201.76 11.28 C 203.75 12.36 205.79 13.32 207.85 14.26 C 207.38 14.37 206.45 14.58 205.98 14.69 C 200.41 15.44 194.88 14.18 189.34 13.86 C 188.67 13.80 187.32 13.69 186.65 13.64 C 190.62 10.91 195.46 12.10 199.82 12.92 C 198.47 12.09 197.05 11.34 195.87 10.27 C 195.54 9.05 195.48 7.78 195.35 6.54 C 197.84 5.79 200.25 4.80 202.57 3.64 C 204.95 3.12 207.33 2.62 209.74 2.27 Z" />
</g>
<g id="#ff8f14ff">
<path fill="#ff8f14" opacity="1.00" d=" M 2.29 5.68 C 4.92 7.47 7.44 4.89 9.66 3.70 C 10.36 6.69 8.94 11.24 5.07 10.18 C 5.18 9.70 5.40 8.75 5.51 8.27 C 4.01 8.64 2.51 9.01 1.01 9.38 L 0.24 8.02 L 2.56 7.91 C 2.47 7.16 2.38 6.42 2.29 5.68 Z" />
</g>
<g id="#ff6b03ff">
<path fill="#ff6b03" opacity="1.00" d=" M 9.66 3.70 C 10.05 3.64 10.83 3.52 11.22 3.46 L 12.37 4.53 C 12.38 5.15 12.41 6.39 12.43 7.00 C 13.11 8.10 13.88 9.12 14.64 10.15 C 13.30 11.28 10.65 11.99 11.68 14.27 C 8.69 13.97 5.73 14.49 3.02 15.79 C 3.56 16.36 4.63 17.51 5.17 18.08 C 3.71 17.44 2.25 16.80 0.83 16.07 C 0.74 15.55 0.55 14.50 0.45 13.98 C 1.92 12.63 3.46 11.36 5.07 10.18 C 8.94 11.24 10.36 6.69 9.66 3.70 Z" />
</g>
<g id="#b08841ff">
<path fill="#b08841" opacity="1.00" d=" M 21.50 4.54 C 28.96 4.00 36.49 3.47 43.86 5.10 C 53.99 6.54 62.83 11.97 71.49 17.05 C 79.97 24.53 88.72 31.70 97.05 39.35 C 96.83 39.87 96.40 40.90 96.18 41.41 L 95.58 41.07 C 87.11 32.32 78.56 23.29 67.99 17.07 C 63.94 14.31 58.81 15.14 54.39 13.46 C 51.40 12.44 48.37 10.57 45.11 11.57 C 41.39 12.46 37.59 12.81 33.78 13.07 L 32.83 13.17 C 33.27 12.50 34.14 11.15 34.57 10.47 C 34.68 10.28 34.90 9.89 35.01 9.69 C 31.96 4.86 24.93 9.04 21.50 4.54 Z" />
</g>
<g id="#bc8b44ff">
<path fill="#bc8b44" opacity="1.00" d=" M 176.97 9.95 C 184.99 6.35 193.60 2.94 202.57 3.64 C 200.25 4.80 197.84 5.79 195.35 6.54 C 195.48 7.78 195.54 9.05 195.87 10.27 C 197.05 11.34 198.47 12.09 199.82 12.92 C 195.46 12.10 190.62 10.91 186.65 13.64 C 187.32 13.69 188.67 13.80 189.34 13.86 C 186.51 15.66 183.78 17.82 180.44 18.56 C 177.89 19.13 175.22 17.98 172.71 18.73 C 169.96 20.24 167.86 22.77 164.86 23.88 C 160.26 25.58 156.60 28.90 152.77 31.85 C 151.80 31.51 150.82 31.17 149.85 30.84 C 148.30 32.55 147.15 34.55 146.44 36.74 C 142.76 39.16 138.93 41.43 134.67 42.65 C 134.00 43.66 133.33 44.68 132.68 45.71 C 132.57 45.88 132.36 46.22 132.25 46.39 C 129.90 46.66 127.52 47.18 126.25 49.41 C 125.09 49.91 123.93 50.41 122.76 50.85 C 122.35 50.74 121.55 50.52 121.14 50.41 C 120.78 48.95 120.52 47.47 120.25 45.99 C 123.68 44.73 127.00 43.13 130.00 41.02 C 136.30 36.66 143.12 33.04 149.00 28.10 C 157.64 21.07 167.14 15.17 176.97 9.95 Z" />
</g>
<g id="#fc9b1bff">
<path fill="#fc9b1b" opacity="1.00" d=" M 218.02 3.34 C 219.34 3.72 220.67 4.11 221.98 4.54 C 221.90 5.60 221.76 7.72 221.68 8.78 C 219.78 7.47 218.09 5.81 218.02 3.34 Z" />
</g>
<g id="#a26f38ff">
<path fill="#a26f38" opacity="1.00" d=" M 12.91 6.78 C 15.49 5.11 18.44 4.35 21.50 4.54 C 24.93 9.04 31.96 4.86 35.01 9.69 C 34.90 9.89 34.68 10.28 34.57 10.47 C 30.28 10.68 26.05 11.42 21.77 11.79 C 20.65 11.40 19.56 10.97 18.48 10.48 C 21.22 10.24 23.89 9.54 26.38 8.38 C 23.41 8.13 20.42 8.12 17.44 7.98 C 15.92 7.62 14.42 7.17 12.91 6.78 Z" />
</g>
<g id="#fe7407ff">
<path fill="#fe7407" opacity="1.00" d=" M 103.41 6.64 C 104.82 6.25 106.24 5.60 107.71 5.57 C 107.65 8.54 105.20 11.01 105.42 14.12 C 107.58 12.16 109.33 9.77 111.72 8.08 C 112.09 8.37 112.83 8.97 113.20 9.27 C 108.17 11.83 107.66 18.16 108.79 23.06 C 108.41 26.03 106.09 27.90 103.67 29.30 C 103.67 27.18 103.69 25.06 103.70 22.94 C 102.47 24.28 101.24 25.62 99.99 26.95 C 99.88 23.28 100.93 19.80 102.19 16.40 C 103.02 14.86 101.31 13.64 100.76 12.35 C 101.42 10.41 101.22 7.62 103.41 6.64 Z" />
</g>
<g id="#fba31eff">
<path fill="#fba31e" opacity="1.00" d=" M 69.28 6.36 C 71.06 6.31 69.91 8.72 68.70 8.62 C 66.89 8.68 68.04 6.24 69.28 6.36 Z" />
<path fill="#fba31e" opacity="1.00" d=" M 115.75 72.49 C 117.69 72.03 118.51 74.45 118.10 75.97 C 116.56 75.61 115.15 74.17 115.75 72.49 Z" />
<path fill="#fba31e" opacity="1.00" d=" M 124.02 76.04 L 125.11 76.34 C 126.80 80.49 129.89 84.64 129.22 89.30 C 128.73 88.35 128.18 87.45 127.55 86.59 C 127.30 86.67 126.80 86.82 126.55 86.89 C 126.15 86.65 125.34 86.16 124.93 85.92 C 124.62 85.71 123.99 85.29 123.68 85.08 C 124.74 82.68 125.07 80.10 124.29 77.57 C 124.22 77.19 124.08 76.43 124.02 76.04 Z" />
</g>
<g id="#f7f03dff">
<path fill="#f7f03d" opacity="1.00" d=" M 208.49 8.84 C 211.08 8.01 213.71 7.28 216.31 6.45 C 215.28 7.20 214.25 7.96 213.21 8.69 C 211.65 9.04 210.06 9.00 208.49 8.84 Z" />
<path fill="#f7f03d" opacity="1.00" d=" M 65.89 11.33 C 67.09 10.24 69.34 10.30 69.61 12.21 C 68.29 12.64 67.03 11.88 65.89 11.33 Z" />
<path fill="#f7f03d" opacity="1.00" d=" M 76.34 12.52 C 76.84 12.84 77.84 13.49 78.34 13.81 C 78.53 14.61 78.67 15.42 78.83 16.23 C 81.32 18.22 83.64 20.41 85.96 22.60 C 86.15 22.44 86.53 22.13 86.72 21.97 C 86.69 22.81 86.63 24.49 86.60 25.33 C 88.33 25.47 90.07 25.56 91.80 25.59 C 93.29 28.21 95.61 30.43 95.90 33.59 C 87.82 27.99 80.85 20.93 72.61 15.56 C 73.99 15.19 75.36 14.78 76.73 14.39 C 76.63 13.92 76.44 12.99 76.34 12.52 Z" />
</g>
<g id="#fab728ff">
<path fill="#fab728" opacity="1.00" d=" M 12.43 7.00 C 12.55 6.95 12.79 6.83 12.91 6.78 C 14.42 7.17 15.92 7.62 17.44 7.98 C 17.49 8.50 17.59 9.56 17.63 10.09 C 17.85 10.18 18.27 10.38 18.48 10.48 C 19.56 10.97 20.65 11.40 21.77 11.79 C 21.49 12.33 20.93 13.42 20.65 13.96 C 21.44 15.08 22.24 16.21 23.04 17.33 C 23.51 16.33 23.99 15.33 24.46 14.32 C 27.24 13.89 30.04 13.54 32.83 13.17 L 33.78 13.07 C 33.56 14.73 33.33 16.38 33.11 18.04 C 35.44 16.87 37.79 15.30 40.52 15.50 C 38.90 16.91 37.60 18.66 35.89 19.98 C 33.37 21.53 29.76 21.33 27.66 19.14 C 27.26 18.81 26.46 18.14 26.06 17.81 C 24.64 17.61 23.15 17.71 21.76 17.28 C 20.54 16.19 19.54 14.87 18.31 13.78 C 17.12 13.84 15.96 14.15 14.78 14.33 C 14.00 14.32 12.45 14.29 11.68 14.27 C 10.65 11.99 13.30 11.28 14.64 10.15 C 13.88 9.12 13.11 8.10 12.43 7.00 Z" />
</g>
<g id="#15090015">
<path fill="#150900" opacity="0.08" d=" M 0.00 7.61 L 0.24 8.02 L 1.01 9.38 C 2.51 9.01 4.01 8.64 5.51 8.27 C 5.40 8.75 5.18 9.70 5.07 10.18 C 3.46 11.36 1.92 12.63 0.45 13.98 C 0.55 14.50 0.74 15.55 0.83 16.07 L 0.00 15.61 L 0.00 7.61 Z" />
<path fill="#150900" opacity="0.08" d=" M 193.61 23.00 C 194.74 23.45 195.85 23.91 197.00 24.31 C 197.21 25.87 197.55 27.41 197.81 28.97 C 196.66 27.05 195.86 23.70 192.79 24.59 C 193.28 25.20 194.27 26.42 194.77 27.03 C 194.67 27.58 194.46 28.68 194.36 29.22 C 193.78 29.41 192.63 29.78 192.05 29.97 C 191.20 28.55 190.60 27.02 189.88 25.54 C 191.66 25.77 192.47 23.95 193.61 23.00 Z" />
<path fill="#150900" opacity="0.08" d=" M 178.79 28.21 C 179.22 28.18 180.09 28.13 180.52 28.11 C 180.62 28.49 180.81 29.26 180.91 29.65 C 180.28 29.51 179.03 29.23 178.41 29.09 L 178.79 28.21 Z" />
<path fill="#150900" opacity="0.08" d=" M 105.80 33.21 C 106.30 32.49 106.80 31.76 107.30 31.03 C 107.39 31.29 107.58 31.82 107.67 32.09 C 106.18 32.12 105.03 34.00 105.96 35.28 C 105.43 35.46 104.37 35.83 103.84 36.01 C 104.51 35.09 105.16 34.15 105.80 33.21 Z" />
</g>
<g id="#e4d23eff">
<path fill="#e4d23e" opacity="1.00" d=" M 17.44 7.98 C 20.42 8.12 23.41 8.13 26.38 8.38 C 23.89 9.54 21.22 10.24 18.48 10.48 C 18.27 10.38 17.85 10.18 17.63 10.09 C 17.59 9.56 17.49 8.50 17.44 7.98 Z" />
</g>
<g id="#4f3f0a4f">
<path fill="#4f3f0a" opacity="0.31" d=" M 70.49 9.00 C 71.90 8.62 72.40 9.12 71.97 10.51 C 70.57 10.88 70.07 10.38 70.49 9.00 Z" />
</g>
<g id="#fd9313ff">
<path fill="#fd9313" opacity="1.00" d=" M 115.65 11.42 C 116.99 10.75 118.36 10.13 119.73 9.50 C 120.20 10.13 120.68 10.76 121.16 11.38 C 119.91 11.50 118.84 11.96 117.92 12.76 C 117.64 13.26 117.09 14.27 116.81 14.78 C 114.94 15.18 112.57 14.67 111.14 16.21 C 110.37 17.22 109.39 19.07 111.19 19.59 C 112.69 19.66 114.17 19.44 115.66 19.30 C 114.45 20.89 113.26 22.50 112.06 24.10 C 111.45 24.43 110.24 25.07 109.64 25.40 C 109.34 24.62 109.06 23.84 108.79 23.06 C 107.66 18.16 108.17 11.83 113.20 9.27 C 114.02 9.98 114.84 10.70 115.65 11.42 Z" />
<path fill="#fd9313" opacity="1.00" d=" M 132.25 46.39 C 132.36 46.22 132.57 45.88 132.68 45.71 C 133.71 47.62 135.77 47.87 137.73 48.08 C 136.47 50.20 134.65 51.90 132.97 53.68 C 132.85 52.86 132.60 51.22 132.48 50.41 C 130.57 50.65 128.67 50.93 126.77 51.12 L 126.21 51.05 C 125.33 52.04 124.44 53.03 123.55 54.01 C 123.51 53.03 123.50 52.05 123.46 51.07 L 122.76 50.85 C 123.93 50.41 125.09 49.91 126.25 49.41 C 127.83 49.08 129.43 48.80 131.00 48.41 C 131.31 47.91 131.94 46.90 132.25 46.39 Z" />
</g>
<g id="#f5ea41ff">
<path fill="#f5ea41" opacity="1.00" d=" M 21.77 11.79 C 26.05 11.42 30.28 10.68 34.57 10.47 C 34.14 11.15 33.27 12.50 32.83 13.17 C 30.04 13.54 27.24 13.89 24.46 14.32 C 23.99 15.33 23.51 16.33 23.04 17.33 C 22.24 16.21 21.44 15.08 20.65 13.96 C 20.93 13.42 21.49 12.33 21.77 11.79 Z" />
</g>
<g id="#f9ff49ff">
<path fill="#f9ff49" opacity="1.00" d=" M 33.78 13.07 C 37.59 12.81 41.39 12.46 45.11 11.57 C 48.37 10.57 51.40 12.44 54.39 13.46 C 58.81 15.14 63.94 14.31 67.99 17.07 C 78.56 23.29 87.11 32.32 95.58 41.07 C 91.43 39.26 87.63 36.81 83.98 34.15 C 83.99 34.64 84.00 35.62 84.00 36.12 C 83.44 34.54 82.86 32.88 81.53 31.78 C 78.19 29.38 74.81 27.04 71.33 24.85 C 71.06 25.37 70.52 26.39 70.26 26.90 C 70.30 25.63 70.33 24.36 70.34 23.09 C 69.75 22.66 68.58 21.80 67.99 21.37 C 66.92 22.58 65.86 23.81 64.80 25.03 C 64.35 23.12 64.43 20.75 62.52 19.61 C 60.62 18.17 58.68 16.18 56.10 16.40 C 53.01 16.58 50.07 15.63 47.05 15.23 C 45.25 15.27 43.46 15.40 41.66 15.47 L 40.52 15.50 C 37.79 15.30 35.44 16.87 33.11 18.04 C 33.33 16.38 33.56 14.73 33.78 13.07 Z" />
</g>
<g id="#ffb325ff">
<path fill="#ffb325" opacity="1.00" d=" M 76.22 12.09 C 77.49 11.55 78.76 11.00 80.02 10.44 C 80.40 11.87 80.52 13.42 81.26 14.73 C 82.86 15.67 84.72 15.97 86.47 16.53 C 86.82 18.08 87.20 19.62 87.57 21.17 L 86.72 21.97 C 86.53 22.13 86.15 22.44 85.96 22.60 C 83.64 20.41 81.32 18.22 78.83 16.23 C 78.67 15.42 78.53 14.61 78.34 13.81 C 77.84 13.49 76.84 12.84 76.34 12.52 L 76.22 12.09 Z" />
</g>
<g id="#fe800eff">
<path fill="#fe800e" opacity="1.00" d=" M 80.02 10.44 C 80.62 10.89 81.81 11.78 82.41 12.23 C 83.46 12.39 84.52 12.55 85.57 12.71 C 85.71 13.27 85.99 14.39 86.12 14.95 L 86.47 16.53 C 84.72 15.97 82.86 15.67 81.26 14.73 C 80.52 13.42 80.40 11.87 80.02 10.44 Z" />
<path fill="#fe800e" opacity="1.00" d=" M 208.00 17.21 C 209.37 17.89 210.74 18.57 212.12 19.26 C 213.36 18.83 214.61 18.41 215.84 17.93 C 216.31 18.82 216.79 19.71 217.28 20.59 C 216.73 22.17 216.19 23.74 215.66 25.32 C 214.43 23.71 214.33 21.68 214.12 19.75 C 213.35 19.62 211.80 19.36 211.02 19.23 C 210.15 21.14 209.28 23.05 208.43 24.96 C 208.02 24.74 207.20 24.29 206.79 24.07 C 205.81 22.78 204.91 21.44 204.00 20.10 C 205.56 20.32 207.12 20.53 208.68 20.75 C 208.45 19.57 208.22 18.39 208.00 17.21 Z" />
<path fill="#fe800e" opacity="1.00" d=" M 192.79 24.59 C 195.86 23.70 196.66 27.05 197.81 28.97 C 196.72 29.61 195.61 30.21 194.47 30.75 C 194.44 30.37 194.39 29.60 194.36 29.22 C 194.46 28.68 194.67 27.58 194.77 27.03 C 194.27 26.42 193.28 25.20 192.79 24.59 Z" />
</g>
<g id="#f8f946ff">
<path fill="#f8f946" opacity="1.00" d=" M 201.76 11.28 C 206.20 11.21 210.84 13.50 215.08 11.41 C 213.92 12.26 212.82 13.18 211.74 14.12 C 211.43 13.70 210.80 12.85 210.48 12.42 C 209.82 12.88 208.51 13.80 207.85 14.26 C 205.79 13.32 203.75 12.36 201.76 11.28 Z" />
<path fill="#f8f946" opacity="1.00" d=" M 189.34 13.86 C 194.88 14.18 200.41 15.44 205.98 14.69 C 206.16 16.19 206.35 17.69 206.54 19.20 C 205.28 18.50 204.02 17.80 202.76 17.11 C 201.11 17.22 199.45 17.33 197.80 17.45 C 196.41 19.33 194.91 21.13 193.32 22.85 C 192.10 21.62 190.88 20.38 189.66 19.15 C 185.08 19.15 179.84 20.09 177.81 24.80 C 178.72 25.89 179.65 26.97 180.52 28.11 C 180.09 28.13 179.22 28.18 178.79 28.21 C 176.70 27.48 174.81 26.30 172.97 25.09 C 169.96 26.81 166.71 28.09 163.74 29.88 C 162.92 30.88 162.73 32.24 162.24 33.42 C 161.47 33.33 160.69 33.25 159.92 33.17 C 160.95 34.26 162.00 35.35 163.05 36.44 C 162.21 36.46 160.54 36.50 159.71 36.52 C 159.33 36.75 158.56 37.19 158.18 37.42 C 156.82 36.80 155.49 36.08 154.06 35.66 C 148.50 38.15 142.59 40.82 138.75 45.75 C 138.65 45.97 138.45 46.41 138.35 46.62 L 137.73 48.08 C 135.77 47.87 133.71 47.62 132.68 45.71 C 133.33 44.68 134.00 43.66 134.67 42.65 C 138.93 41.43 142.76 39.16 146.44 36.74 C 147.15 34.55 148.30 32.55 149.85 30.84 C 150.82 31.17 151.80 31.51 152.77 31.85 C 156.60 28.90 160.26 25.58 164.86 23.88 C 167.86 22.77 169.96 20.24 172.71 18.73 C 175.22 17.98 177.89 19.13 180.44 18.56 C 183.78 17.82 186.51 15.66 189.34 13.86 Z" />
</g>
<g id="#fab627ff">
<path fill="#fab627" opacity="1.00" d=" M 214.96 16.37 C 217.52 15.07 219.65 13.11 221.95 11.42 C 222.99 12.66 224.04 13.92 225.18 15.08 C 223.53 16.09 221.94 17.19 220.35 18.29 C 220.26 17.21 220.18 16.14 220.10 15.07 C 218.69 16.05 217.30 17.04 215.84 17.93 C 214.61 18.41 213.36 18.83 212.12 19.26 C 210.74 18.57 209.37 17.89 208.00 17.21 C 208.22 18.39 208.45 19.57 208.68 20.75 C 207.12 20.53 205.56 20.32 204.00 20.10 C 204.91 21.44 205.81 22.78 206.79 24.07 C 204.65 23.47 202.50 22.91 200.38 22.25 C 200.57 23.77 200.89 25.44 199.53 26.58 L 199.28 23.76 C 198.71 23.90 197.57 24.17 197.00 24.31 C 195.85 23.91 194.74 23.45 193.61 23.00 C 192.47 23.95 191.66 25.77 189.88 25.54 L 189.06 23.87 C 188.23 25.01 187.43 26.16 186.57 27.27 C 185.16 27.09 183.76 26.90 182.36 26.72 C 182.08 27.37 181.54 28.68 181.27 29.33 L 180.91 29.65 C 180.81 29.26 180.62 28.49 180.52 28.11 C 179.65 26.97 178.72 25.89 177.81 24.80 C 179.84 20.09 185.08 19.15 189.66 19.15 C 190.88 20.38 192.10 21.62 193.32 22.85 C 194.91 21.13 196.41 19.33 197.80 17.45 C 199.45 17.33 201.11 17.22 202.76 17.11 C 204.02 17.80 205.28 18.50 206.54 19.20 C 206.35 17.69 206.16 16.19 205.98 14.69 C 206.45 14.58 207.38 14.37 207.85 14.26 C 208.51 13.80 209.82 12.88 210.48 12.42 C 210.80 12.85 211.43 13.70 211.74 14.12 C 212.53 15.18 213.41 16.59 214.96 16.37 Z" />
</g>
<g id="#fe790bff">
<path fill="#fe790b" opacity="1.00" d=" M 14.78 14.33 C 15.96 14.15 17.12 13.84 18.31 13.78 C 19.54 14.87 20.54 16.19 21.76 17.28 C 23.15 17.71 24.64 17.61 26.06 17.81 C 26.46 18.14 27.26 18.81 27.66 19.14 C 25.95 19.55 24.11 20.07 22.90 18.37 C 21.84 18.90 20.78 19.43 19.72 19.96 C 20.00 20.89 20.28 21.82 20.55 22.76 C 20.18 22.78 19.42 22.83 19.04 22.85 C 18.16 20.96 17.29 19.04 15.96 17.40 C 14.20 17.10 12.43 17.61 10.68 17.74 C 12.07 16.63 13.46 15.52 14.78 14.33 Z" />
<path fill="#fe790b" opacity="1.00" d=" M 182.36 26.72 C 183.76 26.90 185.16 27.09 186.57 27.27 C 185.81 28.24 185.04 29.19 184.26 30.15 C 184.35 30.97 184.51 32.63 184.59 33.45 C 183.49 32.81 182.41 32.17 181.33 31.51 C 179.56 32.27 177.78 32.98 176.01 33.70 C 176.24 32.21 176.47 30.72 176.69 29.22 C 177.12 29.19 177.98 29.12 178.41 29.09 C 179.03 29.23 180.28 29.51 180.91 29.65 L 181.27 29.33 C 181.54 28.68 182.08 27.37 182.36 26.72 Z" />
</g>
<g id="#fbbd2fff">
<path fill="#fbbd2f" opacity="1.00" d=" M 100.76 12.35 C 101.31 13.64 103.02 14.86 102.19 16.40 C 100.93 19.80 99.88 23.28 99.99 26.95 C 101.24 25.62 102.47 24.28 103.70 22.94 C 103.69 25.06 103.67 27.18 103.67 29.30 C 102.57 30.23 101.62 31.30 100.68 32.39 C 102.38 32.68 104.09 32.95 105.80 33.21 C 105.16 34.15 104.51 35.09 103.84 36.01 C 102.39 35.07 100.80 33.47 99.03 34.71 C 98.33 33.76 97.60 32.84 96.87 31.92 C 97.27 30.84 97.71 29.77 98.16 28.72 C 99.03 23.26 99.55 17.75 100.76 12.35 Z" />
</g>
<g id="#ff6b02ff">
<path fill="#ff6b02" opacity="1.00" d=" M 117.92 12.76 C 118.44 13.02 119.48 13.55 120.00 13.81 C 120.44 13.59 121.32 13.16 121.76 12.95 C 122.23 13.55 123.18 14.75 123.65 15.35 C 123.30 15.72 122.61 16.45 122.26 16.82 C 122.72 17.35 123.65 18.39 124.12 18.92 C 122.60 19.62 120.97 20.02 119.41 20.61 C 118.45 22.70 118.04 25.02 116.97 27.07 C 115.50 28.62 113.22 28.97 111.39 29.95 C 110.98 29.66 110.17 29.09 109.77 28.81 L 109.98 30.61 C 109.12 29.32 108.22 28.06 107.32 26.79 C 108.09 26.32 108.86 25.85 109.64 25.40 C 110.24 25.07 111.45 24.43 112.06 24.10 C 113.26 22.50 114.45 20.89 115.66 19.30 C 114.17 19.44 112.69 19.66 111.19 19.59 C 109.39 19.07 110.37 17.22 111.14 16.21 C 112.57 14.67 114.94 15.18 116.81 14.78 C 117.09 14.27 117.64 13.26 117.92 12.76 Z" />
</g>
<g id="#f4f442ff">
<path fill="#f4f442" opacity="1.00" d=" M 47.05 15.23 C 50.07 15.63 53.01 16.58 56.10 16.40 C 58.68 16.18 60.62 18.17 62.52 19.61 C 60.31 19.09 58.09 18.66 55.87 18.20 C 55.76 18.61 55.54 19.44 55.42 19.86 C 54.84 19.74 53.66 19.50 53.08 19.37 C 52.59 19.83 51.61 20.76 51.12 21.22 C 50.75 21.16 50.01 21.06 49.65 21.01 C 49.01 18.99 48.49 16.86 47.05 15.23 Z" />
</g>
<g id="#e36504e3">
<path fill="#e36504" opacity="0.89" d=" M 215.84 17.93 C 217.30 17.04 218.69 16.05 220.10 15.07 C 220.18 16.14 220.26 17.21 220.35 18.29 C 220.39 18.76 220.47 19.70 220.52 20.18 C 219.43 20.28 218.35 20.42 217.28 20.59 C 216.79 19.71 216.31 18.82 215.84 17.93 Z" />
</g>
<g id="#ff6c04ff">
<path fill="#ff6c04" opacity="1.00" d=" M 225.18 15.08 C 226.33 15.95 227.47 16.83 228.62 17.70 C 228.63 18.28 228.64 19.44 228.64 20.02 C 225.82 19.77 223.02 19.25 220.35 18.29 C 221.94 17.19 223.53 16.09 225.18 15.08 Z" />
</g>
<g id="#faba28ff">
<path fill="#faba28" opacity="1.00" d=" M 41.66 15.47 C 43.46 15.40 45.25 15.27 47.05 15.23 C 48.49 16.86 49.01 18.99 49.65 21.01 C 48.10 20.78 46.56 20.56 45.02 20.33 C 44.88 21.85 44.75 23.36 44.61 24.88 C 43.89 24.91 42.45 24.98 41.73 25.02 L 40.68 24.74 C 41.45 21.71 42.26 18.62 41.66 15.47 Z" />
</g>
<g id="#fcf37afe">
<path fill="#fcf37a" opacity="1.00" d=" M 70.75 15.10 C 71.22 15.21 72.15 15.44 72.61 15.56 C 80.85 20.93 87.82 27.99 95.90 33.59 C 95.97 33.75 96.11 34.07 96.18 34.23 C 96.70 35.40 97.22 36.58 97.72 37.77 C 97.50 38.30 97.28 38.83 97.05 39.35 C 88.72 31.70 79.97 24.53 71.49 17.05 L 70.75 15.10 Z" />
</g>
<g id="#ffb424ff">
<path fill="#ffb424" opacity="1.00" d=" M 55.87 18.20 C 58.09 18.66 60.31 19.09 62.52 19.61 C 64.43 20.75 64.35 23.12 64.80 25.03 C 63.46 26.45 61.92 27.65 60.34 28.79 C 61.39 26.82 63.10 25.10 63.31 22.78 C 60.43 22.47 57.51 22.35 54.63 22.75 C 54.91 21.79 55.17 20.83 55.42 19.86 C 55.54 19.44 55.76 18.61 55.87 18.20 Z" />
</g>
<g id="#ff8710ff">
<path fill="#ff8710" opacity="1.00" d=" M 45.02 20.33 C 46.56 20.56 48.10 20.78 49.65 21.01 C 50.01 21.06 50.75 21.16 51.12 21.22 C 48.88 23.52 46.26 25.38 43.78 27.41 C 43.11 26.60 42.43 25.80 41.73 25.02 C 42.45 24.98 43.89 24.91 44.61 24.88 C 44.75 23.36 44.88 21.85 45.02 20.33 Z" />
</g>
<g id="#46240446">
<path fill="#462404" opacity="0.27" d=" M 36.28 21.16 C 39.28 19.65 36.40 24.50 36.28 21.16 Z" />
</g>
<g id="#803c0380">
<path fill="#803c03" opacity="0.50" d=" M 33.02 22.09 C 34.62 21.58 35.17 22.14 34.68 23.79 C 33.08 24.32 32.53 23.76 33.02 22.09 Z" />
</g>
<g id="#fdf881ff">
<path fill="#fdf881" opacity="1.00" d=" M 108.79 23.06 C 109.06 23.84 109.34 24.62 109.64 25.40 C 108.86 25.85 108.09 26.32 107.32 26.79 C 108.22 28.06 109.12 29.32 109.98 30.61 C 110.26 32.40 110.36 34.21 110.20 36.01 C 109.76 36.08 108.88 36.22 108.44 36.28 C 108.01 36.00 107.15 35.44 106.72 35.16 C 107.85 34.35 108.17 33.33 107.67 32.09 C 107.58 31.82 107.39 31.29 107.30 31.03 C 106.80 31.76 106.30 32.49 105.80 33.21 C 104.09 32.95 102.38 32.68 100.68 32.39 C 101.62 31.30 102.57 30.23 103.67 29.30 C 106.09 27.90 108.41 26.03 108.79 23.06 Z" />
</g>
<g id="#220f0123">
<path fill="#220f01" opacity="0.14" d=" M 53.23 25.33 C 54.51 24.04 55.44 26.50 54.32 27.25 C 53.05 28.55 52.10 26.07 53.23 25.33 Z" />
</g>
<g id="#fbb627ff">
<path fill="#fbb627" opacity="1.00" d=" M 71.33 24.85 C 74.81 27.04 78.19 29.38 81.53 31.78 C 79.05 32.90 76.57 35.90 73.70 34.09 C 73.09 33.16 72.52 32.21 71.92 31.28 C 73.63 30.86 72.87 28.07 71.20 29.05 C 69.48 29.47 67.77 29.90 66.05 30.31 L 65.75 28.76 C 67.17 28.22 68.61 27.76 70.07 27.32 L 70.26 26.90 C 70.52 26.39 71.06 25.37 71.33 24.85 Z" />
</g>
<g id="#fab925ff">
<path fill="#fab925" opacity="1.00" d=" M 163.74 29.88 C 166.71 28.09 169.96 26.81 172.97 25.09 C 174.81 26.30 176.70 27.48 178.79 28.21 L 178.41 29.09 C 177.98 29.12 177.12 29.19 176.69 29.22 C 175.93 29.03 174.42 28.65 173.66 28.46 C 172.67 30.70 173.08 33.09 173.27 35.44 C 171.86 34.99 170.47 34.46 169.05 34.06 L 167.54 33.69 C 168.10 32.80 168.66 31.91 169.22 31.02 C 168.68 31.01 167.58 30.99 167.04 30.99 C 166.94 31.56 166.75 32.70 166.65 33.27 C 166.38 33.50 165.85 33.96 165.58 34.20 C 164.36 35.55 163.84 37.31 163.27 39.00 C 162.74 39.56 162.21 40.13 161.68 40.70 C 160.99 39.32 160.33 37.93 159.71 36.52 C 160.54 36.50 162.21 36.46 163.05 36.44 C 162.00 35.35 160.95 34.26 159.92 33.17 C 160.69 33.25 161.47 33.33 162.24 33.42 C 162.73 32.24 162.92 30.88 163.74 29.88 Z" />
</g>
<g id="#ff7506ff">
<path fill="#ff7506" opacity="1.00" d=" M 66.05 30.31 C 67.77 29.90 69.48 29.47 71.20 29.05 C 71.38 29.60 71.74 30.72 71.92 31.28 C 72.52 32.21 73.09 33.16 73.70 34.09 C 72.45 34.45 71.21 34.84 69.94 35.10 C 67.62 34.64 66.29 32.54 66.05 30.31 Z" />
</g>
<g id="#d48a18d6">
<path fill="#d48a18" opacity="0.84" d=" M 71.20 29.05 C 72.87 28.07 73.63 30.86 71.92 31.28 C 71.74 30.72 71.38 29.60 71.20 29.05 Z" />
</g>
<g id="#b76710b8">
<path fill="#b76710" opacity="0.72" d=" M 167.04 30.99 C 167.58 30.99 168.68 31.01 169.22 31.02 C 168.66 31.91 168.10 32.80 167.54 33.69 L 169.05 34.06 C 168.52 35.71 168.01 37.36 167.53 39.02 C 167.24 39.02 166.67 39.01 166.39 39.01 C 166.14 37.40 165.88 35.79 165.58 34.20 C 165.85 33.96 166.38 33.50 166.65 33.27 C 166.75 32.70 166.94 31.56 167.04 30.99 Z" />
</g>
<g id="#a58448d8">
<path fill="#a58448" opacity="0.85" d=" M 96.18 34.23 C 96.35 33.65 96.70 32.50 96.87 31.92 C 97.60 32.84 98.33 33.76 99.03 34.71 C 98.59 35.73 98.16 36.75 97.72 37.77 C 97.22 36.58 96.70 35.40 96.18 34.23 Z" />
</g>
<g id="#dbdbdeff">
<path fill="#dbdbde" opacity="1.00" d=" M 105.96 35.28 C 105.03 34.00 106.18 32.12 107.67 32.09 C 108.17 33.33 107.85 34.35 106.72 35.16 L 105.96 35.28 Z" />
</g>
<g id="#ffd033ff">
<path fill="#ffd033" opacity="1.00" d=" M 83.98 34.15 C 87.63 36.81 91.43 39.26 95.58 41.07 L 96.18 41.41 L 96.10 41.59 C 94.71 42.96 93.30 44.34 91.68 45.45 C 91.63 43.97 91.57 42.50 91.49 41.02 C 90.18 41.13 88.88 41.25 87.57 41.37 C 85.54 40.23 83.68 38.72 84.00 36.12 C 84.00 35.62 83.99 34.64 83.98 34.15 Z" />
</g>
<g id="#fbcb9eff">
<path fill="#fbcb9e" opacity="1.00" d=" M 99.03 34.71 C 100.80 33.47 102.39 35.07 103.84 36.01 C 104.23 36.33 105.00 36.98 105.38 37.30 C 103.93 38.35 102.47 39.39 101.01 40.44 C 100.55 40.77 99.64 41.45 99.18 41.79 C 98.43 42.37 97.68 42.96 96.93 43.54 L 94.98 44.97 C 95.26 44.13 95.82 42.44 96.10 41.59 L 96.18 41.41 C 96.40 40.90 96.83 39.87 97.05 39.35 C 97.28 38.83 97.50 38.30 97.72 37.77 C 98.16 36.75 98.59 35.73 99.03 34.71 Z" />
<path fill="#fbcb9e" opacity="1.00" d=" M 115.08 86.60 C 116.94 86.15 119.48 86.54 120.24 84.18 C 120.97 85.57 121.69 86.97 122.44 88.35 C 121.67 90.21 121.35 92.47 119.60 93.72 C 119.65 92.01 119.73 90.29 119.84 88.58 C 119.50 87.01 119.02 86.97 118.40 88.48 C 118.29 89.13 118.09 90.45 117.98 91.10 L 116.51 92.22 C 116.52 91.11 116.55 88.87 116.56 87.75 C 115.22 89.05 115.44 91.66 113.31 92.02 C 113.33 90.05 113.87 88.17 115.08 86.60 Z" />
</g>
<g id="#e9b258ff">
<path fill="#e9b258" opacity="1.00" d=" M 105.96 35.28 L 106.72 35.16 C 107.15 35.44 108.01 36.00 108.44 36.28 C 108.88 36.22 109.76 36.08 110.20 36.01 C 110.03 37.63 110.15 39.27 110.79 40.77 C 109.44 43.75 107.49 46.62 107.27 49.97 C 107.38 53.54 109.02 56.95 111.26 59.68 C 113.90 62.87 118.07 63.96 121.69 65.63 C 121.26 67.10 120.81 68.56 120.42 70.04 C 119.69 66.17 114.68 66.18 112.19 63.75 C 107.81 61.09 108.05 54.78 103.46 52.38 C 103.38 51.54 103.28 50.71 103.16 49.88 C 102.93 49.28 102.47 48.08 102.24 47.48 L 102.14 47.27 C 101.52 45.26 100.46 43.44 99.18 41.79 C 99.64 41.45 100.55 40.77 101.01 40.44 C 103.88 41.20 104.87 44.19 106.35 46.41 C 107.14 45.20 108.05 44.04 108.60 42.70 C 108.98 40.34 106.89 38.73 105.38 37.30 C 105.00 36.98 104.23 36.33 103.84 36.01 C 104.37 35.83 105.43 35.46 105.96 35.28 Z" />
</g>
<g id="#fbb426ff">
<path fill="#fbb426" opacity="1.00" d=" M 138.75 45.75 C 142.59 40.82 148.50 38.15 154.06 35.66 C 155.49 36.08 156.82 36.80 158.18 37.42 C 157.47 39.46 157.54 42.00 155.76 43.49 C 153.93 45.22 152.13 47.01 150.46 48.90 C 150.33 47.69 150.19 46.49 150.05 45.29 C 148.32 45.38 146.58 45.44 144.85 45.41 C 144.28 45.82 143.71 46.24 143.15 46.66 C 141.55 46.63 139.95 46.62 138.35 46.62 C 138.45 46.41 138.65 45.97 138.75 45.75 Z" />
</g>
<g id="#b1813eff">
<path fill="#b1813e" opacity="1.00" d=" M 101.01 40.44 C 102.47 39.39 103.93 38.35 105.38 37.30 C 106.89 38.73 108.98 40.34 108.60 42.70 C 108.05 44.04 107.14 45.20 106.35 46.41 C 104.87 44.19 103.88 41.20 101.01 40.44 Z" />
</g>
<g id="#b37012b3">
<path fill="#b37012" opacity="0.70" d=" M 87.57 41.37 C 88.88 41.25 90.18 41.13 91.49 41.02 C 91.57 42.50 91.63 43.97 91.68 45.45 C 91.25 45.74 90.41 46.31 89.99 46.60 C 90.25 45.00 90.55 43.40 90.88 41.82 C 89.77 41.69 88.67 41.54 87.57 41.37 Z" />
</g>
<g id="#9f773cdd">
<path fill="#9f773c" opacity="0.87" d=" M 96.93 43.54 C 97.68 42.96 98.43 42.37 99.18 41.79 C 100.46 43.44 101.52 45.26 102.14 47.27 C 100.50 45.90 98.76 44.63 96.93 43.54 Z" />
</g>
<g id="#f4e43dff">
<path fill="#f4e43d" opacity="1.00" d=" M 126.25 49.41 C 127.52 47.18 129.90 46.66 132.25 46.39 C 131.94 46.90 131.31 47.91 131.00 48.41 C 129.43 48.80 127.83 49.08 126.25 49.41 Z" />
</g>
<g id="#bd640bbe">
<path fill="#bd640b" opacity="0.75" d=" M 98.39 47.91 C 101.47 46.44 98.43 51.24 98.39 47.91 Z" />
</g>
<g id="#c56009c8">
<path fill="#c56009" opacity="0.78" d=" M 103.16 49.88 C 101.11 51.06 99.92 47.99 102.24 47.48 C 102.47 48.08 102.93 49.28 103.16 49.88 Z" />
</g>
<g id="#84520f84">
<path fill="#84520f" opacity="0.52" d=" M 126.77 51.12 C 128.67 50.93 130.57 50.65 132.48 50.41 C 132.60 51.22 132.85 52.86 132.97 53.68 C 132.31 52.75 131.65 51.81 130.99 50.88 C 130.46 51.17 129.42 51.75 128.89 52.04 C 128.36 51.81 127.30 51.35 126.77 51.12 Z" />
</g>
<g id="#c9974aff">
<path fill="#c9974a" opacity="1.00" d=" M 103.46 52.38 C 108.05 54.78 107.81 61.09 112.19 63.75 C 114.68 66.18 119.69 66.17 120.42 70.04 L 120.05 71.54 L 118.64 70.76 C 116.12 69.77 113.24 69.63 110.99 68.01 C 108.86 66.49 106.74 64.92 104.46 63.62 C 103.53 59.94 103.26 56.16 103.46 52.38 Z" />
</g>
<g id="#fe7809ff">
<path fill="#fe7809" opacity="1.00" d=" M 131.16 60.45 C 133.56 59.96 136.01 59.75 138.43 59.42 C 137.16 63.05 136.46 66.82 135.67 70.57 C 136.06 71.01 136.85 71.89 137.25 72.33 C 136.80 72.14 135.89 71.75 135.44 71.56 C 131.80 70.11 128.76 67.59 126.06 64.83 L 125.33 63.71 C 126.23 63.83 128.03 64.08 128.93 64.20 C 129.63 62.93 130.18 61.54 131.16 60.45 Z" />
</g>
<g id="#a5853eff">
<path fill="#a5853e" opacity="1.00" d=" M 104.46 63.62 C 106.74 64.92 108.86 66.49 110.99 68.01 C 113.24 69.63 116.12 69.77 118.64 70.76 C 119.51 73.41 120.78 76.10 124.02 76.04 C 124.08 76.43 124.22 77.19 124.29 77.57 C 123.91 78.23 123.14 79.53 122.76 80.18 C 122.32 80.30 121.43 80.56 120.99 80.68 C 120.88 79.25 120.70 77.41 119.40 76.55 L 118.10 75.97 C 118.51 74.45 117.69 72.03 115.75 72.49 C 115.45 72.52 114.85 72.56 114.55 72.58 C 109.62 73.89 107.21 68.63 104.70 65.47 C 104.64 65.01 104.52 64.08 104.46 63.62 Z" />
<path fill="#a5853e" opacity="1.00" d=" M 118.40 88.48 C 119.02 86.97 119.50 87.01 119.84 88.58 C 119.48 88.56 118.76 88.50 118.40 88.48 Z" />
</g>
<g id="#f8b927ff">
<path fill="#f8b927" opacity="1.00" d=" M 126.06 64.83 C 128.76 67.59 131.80 70.11 135.44 71.56 C 135.78 72.81 136.10 74.08 136.26 75.37 C 133.97 73.61 131.67 71.67 128.79 70.97 C 128.61 73.69 130.46 75.85 131.68 78.11 C 129.44 77.12 127.25 76.01 125.25 74.60 L 125.36 74.03 C 126.12 71.03 126.68 67.91 126.06 64.83 Z" />
</g>
<g id="#cb9446ff">
<path fill="#cb9446" opacity="1.00" d=" M 104.70 65.47 C 107.21 68.63 109.62 73.89 114.55 72.58 C 114.16 73.79 113.77 75.01 113.38 76.22 C 111.51 76.20 109.64 76.17 107.78 76.15 C 105.18 73.23 104.22 69.31 104.70 65.47 Z" />
</g>
<g id="#e1a954ff">
<path fill="#e1a954" opacity="1.00" d=" M 118.64 70.76 L 120.05 71.54 C 121.75 72.51 123.55 73.28 125.36 74.03 L 125.25 74.60 C 125.22 75.03 125.15 75.91 125.11 76.34 L 124.02 76.04 C 120.78 76.10 119.51 73.41 118.64 70.76 Z" />
</g>
<g id="#ff6e04ff">
<path fill="#ff6e04" opacity="1.00" d=" M 138.16 73.31 C 138.92 72.09 139.69 70.88 140.47 69.68 C 140.47 71.10 140.43 72.52 140.37 73.93 C 140.76 73.47 141.54 72.53 141.93 72.06 C 143.98 74.80 146.42 77.23 148.35 80.06 C 147.09 79.69 145.85 79.29 144.62 78.87 C 144.49 79.18 144.23 79.80 144.10 80.11 C 144.64 80.21 145.70 80.42 146.23 80.52 C 146.21 81.67 146.18 82.83 146.14 83.98 C 145.14 84.36 144.15 84.75 143.18 85.17 C 141.37 84.34 139.74 82.98 139.20 81.00 C 139.94 79.76 140.87 78.64 141.75 77.49 C 140.57 76.08 139.39 74.67 138.16 73.31 Z" />
</g>
<g id="#fd8a12ff">
<path fill="#fd8a12" opacity="1.00" d=" M 135.44 71.56 C 135.89 71.75 136.80 72.14 137.25 72.33 C 137.48 72.58 137.94 73.07 138.16 73.31 C 139.39 74.67 140.57 76.08 141.75 77.49 C 140.87 78.64 139.94 79.76 139.20 81.00 C 139.74 82.98 141.37 84.34 143.18 85.17 C 143.80 86.17 144.32 87.26 145.16 88.10 C 145.33 88.97 145.50 89.84 145.67 90.71 C 144.14 90.78 142.60 90.91 141.06 90.83 C 138.68 89.16 137.23 86.53 135.56 84.23 C 136.12 83.39 136.70 82.55 137.27 81.70 C 136.62 79.65 136.38 77.51 136.26 75.37 C 136.10 74.08 135.78 72.81 135.44 71.56 Z" />
</g>
<g id="#9c6b34f7">
<path fill="#9c6b34" opacity="0.97" d=" M 107.78 76.15 C 109.64 76.17 111.51 76.20 113.38 76.22 L 113.09 77.15 C 112.35 78.50 111.33 79.67 110.27 80.79 C 109.65 79.13 108.83 77.57 107.78 76.15 Z" />
</g>
<g id="#bf7216dc">
<path fill="#bf7216" opacity="0.86" d=" M 119.40 76.55 C 120.70 77.41 120.88 79.25 120.99 80.68 L 120.48 81.45 C 120.04 81.10 119.17 80.41 118.73 80.06 C 118.84 78.87 119.06 77.70 119.40 76.55 Z" />
</g>
<g id="#ddb38efa">
<path fill="#ddb38e" opacity="0.98" d=" M 110.27 80.79 C 111.33 79.67 112.35 78.50 113.09 77.15 C 112.22 80.93 111.37 84.72 110.72 88.56 C 111.37 90.38 111.84 92.27 112.25 94.16 C 111.75 94.31 110.74 94.61 110.24 94.76 C 110.13 93.95 109.91 92.31 109.81 91.49 L 109.25 91.60 C 109.03 93.30 108.76 95.00 108.45 96.69 C 107.55 94.71 107.17 92.55 106.67 90.46 C 106.03 91.77 105.41 93.10 104.81 94.43 C 103.57 95.00 102.33 95.56 101.08 96.10 C 101.42 94.26 101.84 92.44 102.34 90.64 C 104.44 89.75 106.54 88.86 108.66 88.00 C 109.16 85.59 109.73 83.19 110.27 80.79 Z" />
</g>
<g id="#edc234fb">
<path fill="#edc234" opacity="1.00" d=" M 124.29 77.57 C 125.07 80.10 124.74 82.68 123.68 85.08 C 123.22 84.77 122.30 84.13 121.84 83.81 C 122.20 82.62 122.52 81.40 122.76 80.18 C 123.14 79.53 123.91 78.23 124.29 77.57 Z" />
</g>
<g id="#e8c39dff">
<path fill="#e8c39d" opacity="1.00" d=" M 120.99 80.68 C 121.43 80.56 122.32 80.30 122.76 80.18 C 122.52 81.40 122.20 82.62 121.84 83.81 C 121.54 83.83 120.94 83.87 120.64 83.89 C 120.60 83.28 120.52 82.06 120.48 81.45 L 120.99 80.68 Z" />
</g>
<g id="#f89517fb">
<path fill="#f89517" opacity="1.00" d=" M 134.81 96.00 C 136.06 94.68 137.85 94.19 139.52 93.67 C 138.94 95.60 136.71 98.16 134.81 96.00 Z" />
</g>
</svg>
