<?xml version="1.0" encoding="UTF-8" ?>
<!DOCTYPE svg PUBLIC "-//W3C//DTD SVG 1.1//EN" "http://www.w3.org/Graphics/SVG/1.1/DTD/svg11.dtd">
<svg width="115pt" height="176pt" viewBox="0 0 115 176" version="1.1" xmlns="http://www.w3.org/2000/svg">
<g id="#f8fcffff">
<path fill="#f8fcff" opacity="1.00" d=" M 41.13 41.30 C 41.20 39.29 41.35 36.99 42.97 35.55 C 43.08 37.62 43.00 39.69 42.68 41.74 C 42.05 46.73 41.16 51.71 39.22 56.38 C 39.49 53.63 39.71 50.86 40.20 48.14 C 40.77 45.90 41.20 43.62 41.13 41.30 Z" />
<path fill="#f8fcff" opacity="1.00" d=" M 83.35 44.54 C 85.97 41.35 88.48 37.70 92.44 36.07 C 92.35 36.64 92.27 37.21 92.18 37.78 C 86.36 40.77 83.84 47.36 81.03 52.89 C 80.44 54.21 79.85 55.53 79.25 56.85 C 78.94 56.32 78.32 55.26 78.01 54.73 L 78.02 54.66 C 78.68 50.83 81.15 47.63 83.35 44.54 Z" />
<path fill="#f8fcff" opacity="1.00" d=" M 42.31 68.06 C 44.29 67.43 46.24 66.71 48.27 66.25 C 52.64 65.78 57.15 66.10 61.22 67.87 C 56.58 74.01 49.22 76.58 42.80 80.31 C 41.27 77.83 40.59 75.00 40.10 72.17 C 40.06 71.73 39.97 70.87 39.93 70.44 C 40.48 70.12 41.58 69.49 42.14 69.17 C 42.18 68.90 42.27 68.34 42.31 68.06 Z" />
</g>
<g id="#a8b3c5ff">
<path fill="#a8b3c5" opacity="1.00" d=" M 81.03 52.89 C 83.84 47.36 86.36 40.77 92.18 37.78 C 90.50 44.08 88.15 50.45 88.52 57.07 C 88.86 57.37 89.53 57.99 89.87 58.30 C 89.46 58.04 88.63 57.53 88.22 57.28 C 88.07 56.66 87.77 55.42 87.62 54.81 C 87.63 52.29 87.71 49.77 87.85 47.26 C 86.39 50.00 84.18 52.23 81.03 52.89 Z" />
</g>
<g id="#0e040cff">
<path fill="#0e040c" opacity="1.00" d=" M 40.20 48.14 C 39.02 46.23 39.15 42.42 41.13 41.30 C 41.20 43.62 40.77 45.90 40.20 48.14 Z" />
<path fill="#0e040c" opacity="1.00" d=" M 65.77 53.64 C 67.47 52.07 69.18 54.06 70.28 55.28 C 71.51 57.93 72.49 60.70 73.12 63.56 C 72.85 65.39 72.66 67.30 71.82 68.98 C 70.71 71.22 67.84 69.99 65.94 70.25 C 67.43 72.58 68.48 75.18 68.52 77.98 C 67.37 78.98 66.21 79.97 64.97 80.87 C 65.94 79.98 66.85 79.02 67.73 78.04 L 67.93 76.42 C 67.77 75.01 67.33 73.66 66.77 72.36 C 66.31 71.45 65.84 70.55 65.37 69.64 C 64.91 69.45 64.01 69.06 63.56 68.86 C 62.97 68.61 61.81 68.12 61.22 67.87 C 57.15 66.10 52.64 65.78 48.27 66.25 C 54.05 64.95 59.94 66.66 65.14 69.19 C 64.58 66.64 64.26 64.05 64.05 61.45 C 64.41 58.83 64.18 55.91 65.77 53.64 M 65.71 54.78 C 64.82 57.09 65.51 59.51 65.98 61.82 C 66.58 61.70 67.80 61.46 68.40 61.34 C 68.69 59.04 69.69 53.57 65.71 54.78 Z" />
</g>
<g id="#c4cefcff">
<path fill="#c4cefc" opacity="1.00" d=" M 39.22 56.38 C 41.16 51.71 42.05 46.73 42.68 41.74 C 42.62 44.87 42.77 48.00 42.96 51.12 C 42.87 51.37 42.68 51.88 42.59 52.13 C 43.00 55.39 40.45 57.86 39.95 60.93 C 39.21 64.06 39.67 67.28 39.93 70.44 C 39.97 70.87 40.06 71.73 40.10 72.17 C 39.21 70.18 37.94 68.10 38.26 65.85 C 38.46 64.63 38.48 63.41 38.33 62.19 C 38.38 60.23 38.75 58.28 39.22 56.38 Z" />
<path fill="#c4cefc" opacity="1.00" d=" M 49.83 55.00 C 51.30 52.86 54.08 50.57 56.43 53.07 C 56.55 56.13 53.78 57.43 51.18 57.73 C 50.84 57.05 50.17 55.68 49.83 55.00 Z" />
</g>
<g id="#292a2a62">
<path fill="#292a2a" opacity="0.38" d=" M 54.63 46.04 C 57.74 44.55 61.30 44.67 64.44 46.01 C 61.17 45.82 57.89 45.83 54.63 46.04 Z" />
</g>
<g id="#e8fbffff">
<path fill="#e8fbff" opacity="1.00" d=" M 45.00 50.88 C 47.69 48.39 51.08 46.85 54.63 46.04 C 57.89 45.83 61.17 45.82 64.44 46.01 C 66.59 46.52 68.71 47.26 70.57 48.49 C 63.50 47.96 55.25 45.25 49.17 50.30 C 47.09 51.92 44.97 53.73 43.82 56.15 C 43.08 58.12 42.43 60.12 41.64 62.06 C 40.78 58.76 42.20 55.56 45.03 53.74 C 44.65 53.35 43.89 52.56 43.51 52.17 C 43.97 52.06 44.89 51.86 45.35 51.75 C 45.26 51.54 45.09 51.10 45.00 50.88 Z" />
<path fill="#e8fbff" opacity="1.00" d=" M 76.42 140.58 C 84.27 140.83 92.02 138.66 99.86 138.43 C 102.37 138.71 104.91 139.25 106.93 140.85 C 98.55 142.43 90.01 143.04 81.49 142.66 C 80.16 142.44 78.84 142.15 77.52 141.90 C 77.15 141.46 76.78 141.02 76.42 140.58 Z" />
</g>
<g id="#929ec1ff">
<path fill="#929ec1" opacity="1.00" d=" M 81.03 52.89 C 84.18 52.23 86.39 50.00 87.85 47.26 C 87.71 49.77 87.63 52.29 87.62 54.81 C 87.65 58.75 83.94 60.08 80.87 61.28 C 80.43 59.77 79.88 58.29 79.25 56.85 C 79.85 55.53 80.44 54.21 81.03 52.89 Z" />
</g>
<g id="#aaccffff">
<path fill="#aaccff" opacity="1.00" d=" M 49.17 50.30 C 55.25 45.25 63.50 47.96 70.57 48.49 C 71.11 48.77 72.20 49.35 72.74 49.64 C 72.08 51.59 71.22 53.45 70.28 55.28 C 69.18 54.06 67.47 52.07 65.77 53.64 C 64.18 55.91 64.41 58.83 64.05 61.45 C 63.33 58.09 63.25 54.46 61.71 51.36 C 58.55 47.63 53.23 49.81 49.17 50.30 Z" />
</g>
<g id="#94b2f6ff">
<path fill="#94b2f6" opacity="1.00" d=" M 49.17 50.30 C 53.23 49.81 58.55 47.63 61.71 51.36 C 63.25 54.46 63.33 58.09 64.05 61.45 C 64.26 64.05 64.58 66.64 65.14 69.19 C 59.94 66.66 54.05 64.95 48.27 66.25 C 46.24 66.71 44.29 67.43 42.31 68.06 C 42.73 64.08 43.09 60.09 43.82 56.15 C 44.97 53.73 47.09 51.92 49.17 50.30 M 49.83 55.00 L 49.37 54.04 C 48.01 56.78 48.04 59.86 48.19 62.84 C 51.29 64.05 55.05 64.84 58.07 62.99 C 60.00 60.56 60.05 57.08 59.81 54.11 C 59.79 52.35 57.89 52.30 56.67 51.78 L 56.43 53.07 C 54.08 50.57 51.30 52.86 49.83 55.00 Z" />
</g>
<g id="#87a4e4ff">
<path fill="#87a4e4" opacity="1.00" d=" M 72.74 49.64 C 73.69 51.15 76.63 52.62 75.61 54.59 C 73.80 57.22 73.65 60.51 73.12 63.56 C 72.49 60.70 71.51 57.93 70.28 55.28 C 71.22 53.45 72.08 51.59 72.74 49.64 Z" />
</g>
<g id="#2f0727ff">
<path fill="#2f0727" opacity="1.00" d=" M 42.96 51.12 C 43.37 50.81 44.19 50.20 44.60 49.89 L 45.00 50.88 C 45.09 51.10 45.26 51.54 45.35 51.75 C 44.89 51.86 43.97 52.06 43.51 52.17 C 43.89 52.56 44.65 53.35 45.03 53.74 C 42.20 55.56 40.78 58.76 41.64 62.06 C 42.43 60.12 43.08 58.12 43.82 56.15 C 43.09 60.09 42.73 64.08 42.31 68.06 C 42.27 68.34 42.18 68.90 42.14 69.17 C 41.58 69.49 40.48 70.12 39.93 70.44 C 39.67 67.28 39.21 64.06 39.95 60.93 C 40.45 57.86 43.00 55.39 42.59 52.13 C 42.68 51.88 42.87 51.37 42.96 51.12 Z" />
</g>
<g id="#839ff2ff">
<path fill="#839ff2" opacity="1.00" d=" M 56.67 51.78 C 57.89 52.30 59.79 52.35 59.81 54.11 C 60.05 57.08 60.00 60.56 58.07 62.99 C 55.05 64.84 51.29 64.05 48.19 62.84 C 48.04 59.86 48.01 56.78 49.37 54.04 L 49.83 55.00 C 50.17 55.68 50.84 57.05 51.18 57.73 C 53.78 57.43 56.55 56.13 56.43 53.07 L 56.67 51.78 Z" />
</g>
<g id="#7d7b7cff">
<path fill="#7d7b7c" opacity="1.00" d=" M 65.71 54.78 C 69.69 53.57 68.69 59.04 68.40 61.34 C 67.80 61.46 66.58 61.70 65.98 61.82 C 65.51 59.51 64.82 57.09 65.71 54.78 Z" />
<path fill="#7d7b7c" opacity="1.00" d=" M 38.26 65.85 C 36.57 65.98 36.64 62.02 38.33 62.19 C 38.48 63.41 38.46 64.63 38.26 65.85 Z" />
</g>
<g id="#728ecfff">
<path fill="#728ecf" opacity="1.00" d=" M 73.12 63.56 C 73.65 60.51 73.80 57.22 75.61 54.59 C 76.21 54.61 77.42 54.64 78.02 54.66 L 78.01 54.73 C 77.51 57.32 77.17 59.93 76.87 62.55 C 75.60 68.37 73.71 74.46 68.52 77.98 C 68.48 75.18 67.43 72.58 65.94 70.25 C 67.84 69.99 70.71 71.22 71.82 68.98 C 72.66 67.30 72.85 65.39 73.12 63.56 Z" />
</g>
<g id="#c6cde8ff">
<path fill="#c6cde8" opacity="1.00" d=" M 80.87 61.28 C 83.94 60.08 87.65 58.75 87.62 54.81 C 87.77 55.42 88.07 56.66 88.22 57.28 C 88.63 57.53 89.46 58.04 89.87 58.30 L 90.58 58.72 C 87.29 60.11 83.92 61.32 80.53 62.41 C 80.61 62.13 80.79 61.56 80.87 61.28 Z" />
</g>
<g id="#b0b5e1ff">
<path fill="#b0b5e1" opacity="1.00" d=" M 76.87 62.55 C 77.17 59.93 77.51 57.32 78.01 54.73 C 78.32 55.26 78.94 56.32 79.25 56.85 C 79.88 58.29 80.43 59.77 80.87 61.28 C 80.79 61.56 80.61 62.13 80.53 62.41 C 83.92 61.32 87.29 60.11 90.58 58.72 C 89.79 59.90 89.14 61.17 88.90 62.58 C 87.44 67.90 88.28 73.45 87.72 78.88 C 86.67 77.82 85.18 77.33 84.21 76.21 C 84.64 72.69 83.59 69.26 83.03 65.82 C 84.07 67.62 85.10 69.43 86.12 71.25 C 86.55 67.95 86.82 64.64 86.97 61.32 C 83.94 62.71 80.97 64.21 78.02 65.75 C 77.73 64.95 77.16 63.35 76.87 62.55 Z" />
</g>
<g id="#8693beff">
<path fill="#8693be" opacity="1.00" d=" M 78.02 65.75 C 80.97 64.21 83.94 62.71 86.97 61.32 C 86.82 64.64 86.55 67.95 86.12 71.25 C 85.10 69.43 84.07 67.62 83.03 65.82 C 83.59 69.26 84.64 72.69 84.21 76.21 C 83.68 75.67 82.62 74.60 82.09 74.06 C 80.51 71.41 79.18 68.61 78.02 65.75 Z" />
</g>
<g id="#597bc0ff">
<path fill="#597bc0" opacity="1.00" d=" M 68.52 77.98 C 73.71 74.46 75.60 68.37 76.87 62.55 C 77.16 63.35 77.73 64.95 78.02 65.75 C 79.18 68.61 80.51 71.41 82.09 74.06 C 81.02 73.00 79.98 71.92 78.96 70.82 C 78.05 74.92 75.97 78.56 73.91 82.16 C 72.18 85.19 71.68 88.68 70.58 91.94 C 69.77 93.36 68.91 94.74 68.05 96.13 C 67.84 93.11 67.68 90.08 67.57 87.06 C 62.73 85.82 57.73 85.70 52.79 85.14 C 52.28 84.94 51.24 84.53 50.72 84.33 C 51.31 84.08 52.49 83.58 53.08 83.33 C 53.35 83.21 53.90 82.98 54.17 82.87 C 57.87 84.00 61.80 82.88 64.97 80.87 C 66.21 79.97 67.37 78.98 68.52 77.98 Z" />
</g>
<g id="#19222758">
<path fill="#192227" opacity="0.35" d=" M 87.72 78.88 C 88.28 73.45 87.44 67.90 88.90 62.58 C 89.10 66.07 88.04 69.51 88.44 73.00 C 88.52 75.20 89.68 77.80 87.68 79.48 L 87.72 78.88 Z" />
</g>
<g id="#e5e7edff">
<path fill="#e5e7ed" opacity="1.00" d=" M 61.22 67.87 C 61.81 68.12 62.97 68.61 63.56 68.86 C 61.83 71.57 60.15 74.56 57.21 76.13 C 53.16 78.27 48.76 79.64 44.43 81.06 C 44.02 80.87 43.21 80.49 42.80 80.31 C 49.22 76.58 56.58 74.01 61.22 67.87 Z" />
</g>
<g id="#cbd0ddff">
<path fill="#cbd0dd" opacity="1.00" d=" M 63.56 68.86 C 64.01 69.06 64.91 69.45 65.37 69.64 C 65.84 70.55 66.31 71.45 66.77 72.36 C 63.15 74.83 59.83 77.96 55.61 79.40 C 52.85 80.32 50.13 81.35 47.52 82.63 L 46.56 83.03 C 45.84 82.38 45.13 81.73 44.43 81.06 C 48.76 79.64 53.16 78.27 57.21 76.13 C 60.15 74.56 61.83 71.57 63.56 68.86 Z" />
</g>
<g id="#adb9ccff">
<path fill="#adb9cc" opacity="1.00" d=" M 55.61 79.40 C 59.83 77.96 63.15 74.83 66.77 72.36 C 67.33 73.66 67.77 75.01 67.93 76.42 C 62.76 77.07 58.57 80.38 54.17 82.87 C 53.90 82.98 53.35 83.21 53.08 83.33 C 51.22 83.13 49.38 82.85 47.52 82.63 C 50.13 81.35 52.85 80.32 55.61 79.40 Z" />
</g>
<g id="#90a1bdff">
<path fill="#90a1bd" opacity="1.00" d=" M 54.17 82.87 C 58.57 80.38 62.76 77.07 67.93 76.42 L 67.73 78.04 C 66.85 79.02 65.94 79.98 64.97 80.87 C 61.80 82.88 57.87 84.00 54.17 82.87 Z" />
</g>
<g id="#90abf0ff">
<path fill="#90abf0" opacity="1.00" d=" M 46.56 83.03 L 47.52 82.63 C 49.38 82.85 51.22 83.13 53.08 83.33 C 52.49 83.58 51.31 84.08 50.72 84.33 C 51.24 84.53 52.28 84.94 52.79 85.14 C 54.25 85.74 55.70 86.36 57.14 87.01 C 55.13 87.10 53.06 87.33 51.34 88.45 C 50.62 89.27 49.91 90.10 49.22 90.94 C 49.07 88.96 48.92 86.98 48.64 85.01 L 47.89 84.23 C 47.56 83.93 46.89 83.33 46.56 83.03 Z" />
</g>
<g id="#d6ddf9ff">
<path fill="#d6ddf9" opacity="1.00" d=" M 47.89 84.23 L 48.64 85.01 C 48.92 86.98 49.07 88.96 49.22 90.94 C 49.91 90.10 50.62 89.27 51.34 88.45 C 53.78 91.40 55.04 95.02 55.79 98.73 C 54.02 99.12 52.26 99.49 50.49 99.85 C 50.25 97.39 49.98 94.94 49.74 92.48 C 49.21 92.65 48.14 93.00 47.60 93.17 C 47.56 90.18 47.94 87.21 47.89 84.23 Z" />
</g>
<g id="#7b99d4ff">
<path fill="#7b99d4" opacity="1.00" d=" M 52.79 85.14 C 57.73 85.70 62.73 85.82 67.57 87.06 C 67.68 90.08 67.84 93.11 68.05 96.13 C 68.91 94.74 69.77 93.36 70.58 91.94 C 68.94 103.90 68.20 116.24 70.49 128.17 C 71.24 132.78 73.37 137.06 76.42 140.58 C 76.78 141.02 77.15 141.46 77.52 141.90 C 81.59 147.94 89.10 150.04 96.01 150.30 C 100.53 150.19 105.03 148.92 109.56 149.72 C 108.61 152.88 107.80 156.09 107.09 159.31 C 101.89 160.20 96.59 160.04 91.33 160.12 C 83.93 159.33 77.65 154.91 72.96 149.36 C 63.26 134.88 64.42 116.63 63.48 100.00 C 63.15 95.16 62.66 88.69 57.14 87.01 C 55.70 86.36 54.25 85.74 52.79 85.14 Z" />
</g>
<g id="#cfd4dfff">
<path fill="#cfd4df" opacity="1.00" d=" M 51.34 88.45 C 53.06 87.33 55.13 87.10 57.14 87.01 C 62.66 88.69 63.15 95.16 63.48 100.00 C 64.42 116.63 63.26 134.88 72.96 149.36 C 71.22 153.47 70.37 157.98 67.52 161.55 C 66.01 163.12 68.17 164.78 68.69 166.33 C 68.02 166.26 66.69 166.13 66.02 166.07 C 63.77 164.82 61.76 163.20 59.64 161.76 C 59.05 158.38 58.22 154.90 59.33 151.52 C 60.81 146.12 60.79 140.50 60.07 134.99 C 59.20 124.80 60.30 114.54 59.48 104.35 C 59.41 101.87 57.52 100.21 55.79 98.73 C 55.04 95.02 53.78 91.40 51.34 88.45 Z" />
</g>
<g id="#e9ebf1ff">
<path fill="#e9ebf1" opacity="1.00" d=" M 47.60 93.17 C 48.14 93.00 49.21 92.65 49.74 92.48 C 49.98 94.94 50.25 97.39 50.49 99.85 C 52.26 99.49 54.02 99.12 55.79 98.73 C 57.52 100.21 59.41 101.87 59.48 104.35 C 60.30 114.54 59.20 124.80 60.07 134.99 C 60.79 140.50 60.81 146.12 59.33 151.52 C 58.22 154.90 59.05 158.38 59.64 161.76 C 58.91 161.13 57.47 159.88 56.74 159.25 L 57.50 159.53 C 56.33 155.88 53.51 152.95 52.81 149.11 C 51.96 145.13 51.77 141.05 51.14 137.03 C 50.25 130.01 48.08 123.13 48.32 115.99 C 48.60 109.02 46.93 101.99 48.78 95.13 C 48.54 94.77 48.06 94.05 47.82 93.69 L 47.60 93.17 Z" />
</g>
<g id="#fcfeffff">
<path fill="#fcfeff" opacity="1.00" d=" M 47.27 93.90 L 47.82 93.69 C 48.06 94.05 48.54 94.77 48.78 95.13 C 46.93 101.99 48.60 109.02 48.32 115.99 C 48.08 123.13 50.25 130.01 51.14 137.03 C 51.77 141.05 51.96 145.13 52.81 149.11 C 53.51 152.95 56.33 155.88 57.50 159.53 C 54.79 157.35 52.35 154.82 50.28 152.02 C 49.22 150.10 48.30 148.11 47.37 146.13 C 46.66 144.62 45.94 143.12 45.22 141.63 C 43.80 141.53 42.37 141.42 40.94 141.31 C 41.41 141.19 42.34 140.96 42.80 140.84 C 43.70 140.85 44.60 140.90 45.50 140.99 C 41.48 125.46 43.88 109.30 47.27 93.90 Z" />
</g>
<g id="#9cbbf1ff">
<path fill="#9cbbf1" opacity="1.00" d=" M 11.57 124.17 C 10.29 121.61 11.50 118.77 12.53 116.35 C 14.51 122.40 18.76 127.34 23.33 131.63 C 28.82 136.48 36.00 138.56 42.80 140.84 C 42.34 140.96 41.41 141.19 40.94 141.31 C 42.37 141.42 43.80 141.53 45.22 141.63 C 45.94 143.12 46.66 144.62 47.37 146.13 C 43.29 145.27 39.14 144.35 35.43 142.38 C 33.53 141.39 32.26 139.46 30.34 138.55 C 28.59 138.81 26.92 139.43 25.21 139.86 C 24.53 140.09 23.16 140.54 22.48 140.77 L 22.03 140.69 C 17.35 136.08 13.50 130.50 11.57 124.17 Z" />
</g>
<g id="#92b0e8ff">
<path fill="#92b0e8" opacity="1.00" d=" M 30.34 138.55 C 32.26 139.46 33.53 141.39 35.43 142.38 C 39.14 144.35 43.29 145.27 47.37 146.13 C 48.30 148.11 49.22 150.10 50.28 152.02 C 47.04 151.14 43.84 150.13 40.67 149.03 C 35.31 146.35 29.86 143.70 25.21 139.86 C 26.92 139.43 28.59 138.81 30.34 138.55 Z" />
</g>
<g id="#cdd2d8ff">
<path fill="#cdd2d8" opacity="1.00" d=" M 22.48 140.77 C 23.16 140.54 24.53 140.09 25.21 139.86 C 29.86 143.70 35.31 146.35 40.67 149.03 C 39.63 149.08 38.59 149.17 37.56 149.26 C 37.56 149.84 37.56 151.00 37.56 151.58 C 32.29 148.37 26.77 145.29 22.48 140.77 Z" />
</g>
<g id="#bfe1ffff">
<path fill="#bfe1ff" opacity="1.00" d=" M 81.49 142.66 C 90.01 143.04 98.55 142.43 106.93 140.85 L 107.19 140.81 C 108.10 141.63 108.97 142.50 109.81 143.41 C 104.25 146.03 97.97 145.30 92.02 145.37 C 88.40 145.19 84.20 145.58 81.49 142.66 Z" />
</g>
<g id="#a0bff3ff">
<path fill="#a0bff3" opacity="1.00" d=" M 77.52 141.90 C 78.84 142.15 80.16 142.44 81.49 142.66 C 84.20 145.58 88.40 145.19 92.02 145.37 C 97.97 145.30 104.25 146.03 109.81 143.41 L 109.97 143.34 C 110.44 144.23 110.90 145.12 111.35 146.01 C 111.62 147.43 111.83 148.86 112.06 150.29 C 111.23 150.09 110.40 149.88 109.56 149.72 C 105.03 148.92 100.53 150.19 96.01 150.30 C 89.10 150.04 81.59 147.94 77.52 141.90 Z" />
</g>
<g id="#74a9eaff">
<path fill="#74a9ea" opacity="1.00" d=" M 111.35 146.01 C 112.49 148.72 113.59 151.99 112.53 154.84 C 111.12 156.29 109.66 157.68 108.20 159.09 L 107.09 159.31 C 107.80 156.09 108.61 152.88 109.56 149.72 C 110.40 149.88 111.23 150.09 112.06 150.29 C 111.83 148.86 111.62 147.43 111.35 146.01 Z" />
</g>
<g id="#bec7d1ff">
<path fill="#bec7d1" opacity="1.00" d=" M 37.56 149.26 C 38.59 149.17 39.63 149.08 40.67 149.03 C 43.84 150.13 47.04 151.14 50.28 152.02 C 52.35 154.82 54.79 157.35 57.50 159.53 L 56.74 159.25 C 50.25 156.96 43.64 154.88 37.56 151.58 C 37.56 151.00 37.56 149.84 37.56 149.26 Z" />
</g>
<g id="#b6c0ceff">
<path fill="#b6c0ce" opacity="1.00" d=" M 72.96 149.36 C 77.65 154.91 83.93 159.33 91.33 160.12 C 84.84 160.85 79.02 163.82 73.25 166.65 C 75.06 167.35 76.86 168.07 78.68 168.71 L 77.61 169.85 C 73.74 168.62 69.84 167.46 66.02 166.07 C 66.69 166.13 68.02 166.26 68.69 166.33 C 68.17 164.78 66.01 163.12 67.52 161.55 C 70.37 157.98 71.22 153.47 72.96 149.36 Z" />
</g>
<g id="#85cfdef3">
<path fill="#85cfde" opacity="0.95" d=" M 108.20 159.09 C 109.66 157.68 111.12 156.29 112.53 154.84 C 111.91 162.34 104.94 167.67 98.06 169.29 C 97.08 169.18 95.12 168.95 94.14 168.84 C 96.79 167.65 99.66 166.87 102.10 165.24 C 104.41 163.48 106.17 161.14 108.20 159.09 Z" />
</g>
<g id="#9cafc3ff">
<path fill="#9cafc3" opacity="1.00" d=" M 91.33 160.12 C 96.59 160.04 101.89 160.20 107.09 159.31 L 108.20 159.09 C 106.17 161.14 104.41 163.48 102.10 165.24 C 99.66 166.87 96.79 167.65 94.14 168.84 C 95.12 168.95 97.08 169.18 98.06 169.29 C 97.09 169.44 96.11 169.76 95.13 169.69 C 89.79 167.94 84.16 169.31 78.68 168.71 C 76.86 168.07 75.06 167.35 73.25 166.65 C 79.02 163.82 84.84 160.85 91.33 160.12 Z" />
</g>
<g id="#a3daf2ff">
<path fill="#a3daf2" opacity="1.00" d=" M 78.68 168.71 C 84.16 169.31 89.79 167.94 95.13 169.69 C 89.39 171.15 83.41 170.64 77.61 169.85 L 78.68 168.71 Z" />
</g>
</svg>
