<?xml version="1.0" encoding="UTF-8" ?>
<!DOCTYPE svg PUBLIC "-//W3C//DTD SVG 1.1//EN" "http://www.w3.org/Graphics/SVG/1.1/DTD/svg11.dtd">
<svg width="165pt" height="202pt" viewBox="0 0 165 202" version="1.1" xmlns="http://www.w3.org/2000/svg">
<g id="#0c0c0c35">
<path fill="#0c0c0c" opacity="0.21" d=" M 62.03 38.00 C 63.17 34.78 59.92 27.62 62.99 25.91 C 63.02 29.94 63.03 33.97 63.03 38.00 L 62.03 38.00 Z" />
</g>
<g id="#d4dfe8f9">
<path fill="#d4dfe8" opacity="0.98" d=" M 62.99 25.91 C 64.98 27.91 65.16 31.97 65.81 34.88 C 65.00 39.90 65.09 44.99 64.84 50.06 C 63.99 52.29 62.93 54.59 63.23 57.04 C 63.28 57.93 63.35 58.83 63.41 59.72 L 62.27 59.98 C 62.15 57.32 62.05 54.66 61.97 52.00 C 61.98 47.31 63.22 42.70 63.03 38.00 C 63.03 33.97 63.02 29.94 62.99 25.91 Z" />
</g>
<g id="#b4c1d2fb">
<path fill="#b4c1d2" opacity="1.00" d=" M 100.54 34.82 C 100.90 32.06 102.58 29.37 104.93 27.82 C 105.34 30.32 104.94 32.62 103.72 34.71 C 99.07 42.56 96.41 51.72 90.74 58.81 C 89.90 60.78 89.06 62.76 87.85 64.54 C 87.62 64.16 87.16 63.41 86.94 63.03 C 86.96 61.77 86.99 60.51 87.03 59.25 C 91.96 55.85 94.18 49.19 96.93 43.97 C 97.59 40.71 101.03 38.27 100.54 34.82 Z" />
</g>
<g id="#9cacc1fb">
<path fill="#9cacc1" opacity="1.00" d=" M 65.81 34.88 C 68.02 34.53 66.65 37.76 66.93 39.00 C 66.14 42.66 67.03 46.91 64.84 50.06 C 65.09 44.99 65.00 39.90 65.81 34.88 Z" />
</g>
<g id="#d5e2e9f9">
<path fill="#d5e2e9" opacity="0.98" d=" M 100.54 34.82 C 101.03 38.27 97.59 40.71 96.93 43.97 C 94.18 49.19 91.96 55.85 87.03 59.25 C 86.76 56.65 87.10 54.06 88.89 52.06 C 93.19 46.58 96.57 40.51 100.54 34.82 Z" />
</g>
<g id="#7894acf6">
<path fill="#7894ac" opacity="0.96" d=" M 90.74 58.81 C 96.41 51.72 99.07 42.56 103.72 34.71 C 105.05 42.18 100.45 48.75 98.83 55.78 L 98.29 55.67 C 95.92 55.11 95.23 59.21 94.90 61.04 C 94.21 62.55 94.84 65.76 92.96 66.02 C 91.18 64.02 90.73 61.41 90.74 58.81 Z" />
</g>
<g id="#738aa0f1">
<path fill="#738aa0" opacity="0.95" d=" M 66.93 39.00 C 70.23 40.52 66.02 49.29 71.28 49.34 L 70.82 49.86 C 68.47 49.77 66.89 51.40 65.59 53.14 C 65.30 52.12 65.05 51.09 64.84 50.06 C 67.03 46.91 66.14 42.66 66.93 39.00 Z" />
</g>
<g id="#98ccf4fd">
<path fill="#98ccf4" opacity="1.00" d=" M 71.28 49.34 C 74.19 46.04 79.53 48.51 83.15 49.37 C 81.54 49.91 79.67 50.11 78.56 51.56 C 76.70 53.82 72.05 53.27 71.96 56.96 C 70.47 56.99 67.47 57.06 65.97 57.09 C 65.68 59.06 66.18 61.00 67.78 62.27 L 67.94 63.12 C 67.04 68.10 66.85 73.24 65.03 78.01 C 64.85 78.56 64.50 79.66 64.33 80.21 C 64.91 75.32 63.28 70.71 62.95 65.95 C 63.27 63.89 64.07 61.81 63.41 59.72 C 63.35 58.83 63.28 57.93 63.23 57.04 C 64.02 55.96 64.86 54.92 65.79 53.96 C 67.62 52.81 69.40 51.51 70.82 49.86 L 71.28 49.34 Z" />
</g>
<g id="#80b2e9ff">
<path fill="#80b2e9" opacity="1.00" d=" M 83.15 49.37 C 84.37 48.99 85.02 50.68 85.97 51.19 C 82.45 52.87 84.01 57.83 80.91 59.76 C 80.60 60.05 79.98 60.64 79.67 60.94 C 78.62 62.70 78.31 64.81 77.84 66.79 C 71.60 67.10 72.07 75.38 67.89 78.69 C 66.93 78.48 65.98 78.26 65.03 78.01 C 66.85 73.24 67.04 68.10 67.94 63.12 C 70.65 63.43 74.41 60.85 72.40 57.94 L 71.96 56.96 C 72.05 53.27 76.70 53.82 78.56 51.56 C 79.67 50.11 81.54 49.91 83.15 49.37 Z" />
</g>
<g id="#9db2c8ff">
<path fill="#9db2c8" opacity="1.00" d=" M 63.23 57.04 C 62.93 54.59 63.99 52.29 64.84 50.06 C 65.05 51.09 65.30 52.12 65.59 53.14 L 65.79 53.96 C 64.86 54.92 64.02 55.96 63.23 57.04 Z" />
</g>
<g id="#b6ecf6ff">
<path fill="#b6ecf6" opacity="1.00" d=" M 65.59 53.14 C 66.89 51.40 68.47 49.77 70.82 49.86 C 69.40 51.51 67.62 52.81 65.79 53.96 L 65.59 53.14 Z" />
</g>
<g id="#6990c1f9">
<path fill="#6990c1" opacity="0.98" d=" M 85.97 51.19 C 86.95 51.44 87.93 51.73 88.89 52.06 C 87.10 54.06 86.76 56.65 87.03 59.25 C 86.99 60.51 86.96 61.77 86.94 63.03 C 86.50 63.01 85.62 62.97 85.17 62.95 C 84.41 61.03 83.15 59.62 80.91 59.76 C 84.01 57.83 82.45 52.87 85.97 51.19 Z" />
</g>
<g id="#8b8b8bbd">
<path fill="#8b8b8b" opacity="0.74" d=" M 61.03 52.02 L 61.97 52.00 C 62.05 54.66 62.15 57.32 62.27 59.98 L 62.11 61.01 C 58.67 61.14 61.78 54.44 61.03 52.02 Z" />
</g>
<g id="#6eb7caf6">
<path fill="#6eb7ca" opacity="0.96" d=" M 94.90 61.04 C 95.23 59.21 95.92 55.11 98.29 55.67 C 97.71 57.62 97.13 60.41 94.90 61.04 Z" />
</g>
<g id="#cfe6f3ff">
<path fill="#cfe6f3" opacity="1.00" d=" M 65.97 57.09 C 67.47 57.06 70.47 56.99 71.96 56.96 L 72.40 57.94 C 70.81 59.23 68.87 58.04 67.09 58.03 C 67.27 59.45 67.56 60.85 67.78 62.27 C 66.18 61.00 65.68 59.06 65.97 57.09 Z" />
</g>
<g id="#acbfd5ff">
<path fill="#acbfd5" opacity="1.00" d=" M 67.09 58.03 C 68.87 58.04 70.81 59.23 72.40 57.94 C 74.41 60.85 70.65 63.43 67.94 63.12 L 67.78 62.27 C 67.56 60.85 67.27 59.45 67.09 58.03 Z" />
</g>
<g id="#849cb9fd">
<path fill="#849cb9" opacity="1.00" d=" M 87.85 64.54 C 89.06 62.76 89.90 60.78 90.74 58.81 C 90.73 61.41 91.18 64.02 92.96 66.02 L 93.04 67.01 L 91.99 67.09 C 89.96 67.35 88.46 66.48 87.85 64.54 Z" />
</g>
<g id="#7c8990e3">
<path fill="#7c8990" opacity="0.89" d=" M 62.27 59.98 L 63.41 59.72 C 64.07 61.81 63.27 63.89 62.95 65.95 C 60.86 66.20 62.39 62.42 62.11 61.01 L 62.27 59.98 Z" />
</g>
<g id="#18141aff">
<path fill="#18141a" opacity="1.00" d=" M 79.67 60.94 C 79.98 60.64 80.60 60.05 80.91 59.76 C 83.15 59.62 84.41 61.03 85.17 62.95 C 86.32 67.60 84.55 73.51 79.04 73.11 C 78.63 69.34 77.55 64.72 82.04 66.92 C 82.51 64.52 80.95 62.75 79.67 60.94 Z" />
</g>
<g id="#4e5968ff">
<path fill="#4e5968" opacity="1.00" d=" M 77.84 66.79 C 78.31 64.81 78.62 62.70 79.67 60.94 C 80.95 62.75 82.51 64.52 82.04 66.92 C 77.55 64.72 78.63 69.34 79.04 73.11 L 78.04 72.75 C 77.98 70.76 77.92 68.77 77.84 66.79 Z" />
</g>
<g id="#4e7ab1fd">
<path fill="#4e7ab1" opacity="1.00" d=" M 85.17 62.95 C 85.62 62.97 86.50 63.01 86.94 63.03 C 87.16 63.41 87.62 64.16 87.85 64.54 C 88.46 66.48 89.96 67.35 91.99 67.09 C 90.99 68.08 90.59 70.53 89.25 70.60 C 87.07 69.45 87.42 73.19 86.06 74.13 C 82.13 77.55 78.54 81.56 73.73 83.79 L 72.72 83.83 C 74.69 80.35 80.81 77.36 79.04 73.11 C 84.55 73.51 86.32 67.60 85.17 62.95 Z" />
</g>
<g id="#709ed3fc">
<path fill="#709ed3" opacity="1.00" d=" M 67.89 78.69 C 72.07 75.38 71.60 67.10 77.84 66.79 C 77.92 68.77 77.98 70.76 78.04 72.75 C 73.64 74.37 73.39 80.77 69.20 83.25 C 67.28 83.37 64.33 82.28 64.33 80.21 C 64.50 79.66 64.85 78.56 65.03 78.01 C 65.98 78.26 66.93 78.48 67.89 78.69 Z" />
</g>
<g id="#5986befa">
<path fill="#5986be" opacity="0.98" d=" M 86.06 74.13 C 87.42 73.19 87.07 69.45 89.25 70.60 C 84.28 86.25 80.83 102.59 79.95 119.03 L 79.06 118.95 C 79.10 116.40 78.26 114.00 77.21 111.71 C 77.15 110.22 77.16 108.72 77.22 107.22 C 77.78 103.77 78.05 100.30 77.98 96.81 C 79.47 94.21 78.40 91.21 75.94 89.66 C 75.28 89.11 74.63 88.56 73.96 88.02 C 73.86 86.61 73.78 85.20 73.73 83.79 C 78.54 81.56 82.13 77.55 86.06 74.13 Z" />
</g>
<g id="#5e89c1fc">
<path fill="#5e89c1" opacity="1.00" d=" M 69.20 83.25 C 73.39 80.77 73.64 74.37 78.04 72.75 L 79.04 73.11 C 80.81 77.36 74.69 80.35 72.72 83.83 C 71.79 83.68 68.27 84.95 69.20 83.25 Z" />
</g>
<g id="#3568a7f3">
<path fill="#3568a7" opacity="0.95" d=" M 70.35 98.14 C 70.35 94.26 69.46 89.57 73.96 88.02 C 74.63 88.56 75.28 89.11 75.94 89.66 C 75.09 92.68 73.77 95.51 71.72 97.90 C 71.38 97.96 70.70 98.08 70.35 98.14 Z" />
</g>
<g id="#295a97ff">
<path fill="#295a97" opacity="1.00" d=" M 71.72 97.90 C 73.77 95.51 75.09 92.68 75.94 89.66 C 78.40 91.21 79.47 94.21 77.98 96.81 C 77.71 97.12 77.18 97.73 76.92 98.04 C 75.18 98.00 73.45 97.96 71.72 97.90 Z" />
</g>
<g id="#9bb7dbff">
<path fill="#9bb7db" opacity="1.00" d=" M 76.92 98.04 C 77.18 97.73 77.71 97.12 77.98 96.81 C 78.05 100.30 77.78 103.77 77.22 107.22 C 77.13 104.15 77.01 101.10 76.92 98.04 Z" />
</g>
<g id="#f4f9fbfe">
<path fill="#f4f9fb" opacity="1.00" d=" M 70.35 98.14 C 70.70 98.08 71.38 97.96 71.72 97.90 C 72.91 99.81 74.27 101.60 75.57 103.43 C 75.90 106.67 76.07 109.94 76.20 113.19 C 76.31 117.46 75.30 121.59 74.75 125.78 C 73.85 131.39 74.05 137.08 73.71 142.74 C 71.38 151.33 76.61 159.76 74.41 168.34 C 74.05 171.03 72.53 173.37 72.01 176.00 C 72.34 178.11 73.43 180.00 74.06 182.03 C 70.39 178.86 66.61 175.25 63.02 172.16 C 66.77 172.47 62.82 168.64 62.38 166.86 C 60.94 164.07 59.86 161.11 59.42 157.99 C 54.12 137.20 64.05 117.44 70.35 98.14 Z" />
</g>
<g id="#cad9eaff">
<path fill="#cad9ea" opacity="1.00" d=" M 71.72 97.90 C 73.45 97.96 75.18 98.00 76.92 98.04 C 77.01 101.10 77.13 104.15 77.22 107.22 C 77.16 108.72 77.15 110.22 77.21 111.71 C 76.96 112.08 76.45 112.82 76.20 113.19 C 76.07 109.94 75.90 106.67 75.57 103.43 C 74.27 101.60 72.91 99.81 71.72 97.90 Z" />
</g>
<g id="#6c9ad0fd">
<path fill="#6c9ad0" opacity="1.00" d=" M 77.21 111.71 C 78.26 114.00 79.10 116.40 79.06 118.95 C 79.35 125.37 78.16 131.97 79.58 138.30 C 79.57 144.43 82.16 150.05 83.58 155.85 C 83.33 156.86 83.08 157.88 82.82 158.89 C 81.17 157.81 79.78 156.11 77.65 156.13 C 76.10 152.32 75.86 148.16 74.82 144.21 C 74.99 138.07 75.00 131.92 74.75 125.78 C 75.30 121.59 76.31 117.46 76.20 113.19 C 76.45 112.82 76.96 112.08 77.21 111.71 Z" />
</g>
<g id="#577eade1">
<path fill="#577ead" opacity="0.88" d=" M 34.87 119.03 C 37.63 120.91 40.36 123.27 42.18 126.09 C 42.34 128.03 41.49 128.03 40.22 126.98 C 38.49 124.31 35.78 122.11 34.87 119.03 Z" />
</g>
<g id="#1d34478e">
<path fill="#1d3447" opacity="0.56" d=" M 79.06 118.95 L 79.95 119.03 C 79.80 125.43 80.64 131.95 79.58 138.30 C 78.16 131.97 79.35 125.37 79.06 118.95 Z" />
</g>
<g id="#2a5b98f8">
<path fill="#2a5b98" opacity="0.97" d=" M 42.18 126.09 C 45.08 125.44 48.99 127.18 49.85 129.96 C 46.96 132.11 44.32 134.71 41.07 136.33 C 37.91 134.24 39.31 129.99 40.22 126.98 C 41.49 128.03 42.34 128.03 42.18 126.09 Z" />
</g>
<g id="#c7d9edff">
<path fill="#c7d9ed" opacity="1.00" d=" M 73.71 142.74 C 74.05 137.08 73.85 131.39 74.75 125.78 C 75.00 131.92 74.99 138.07 74.82 144.21 C 74.54 143.84 73.99 143.11 73.71 142.74 Z" />
</g>
<g id="#1b437df9">
<path fill="#1b437d" opacity="0.98" d=" M 41.07 136.33 C 44.32 134.71 46.96 132.11 49.85 129.96 C 51.42 131.23 50.81 133.13 50.37 134.77 C 52.38 136.03 54.22 137.50 55.90 139.18 C 57.60 143.64 55.05 147.65 51.70 150.16 L 50.90 150.41 C 49.36 147.57 53.52 144.58 52.00 141.25 C 48.57 141.65 45.67 139.94 43.15 137.98 C 42.43 137.46 41.74 136.91 41.07 136.33 Z" />
</g>
<g id="#24528efb">
<path fill="#24528e" opacity="1.00" d=" M 43.15 137.98 C 45.67 139.94 48.57 141.65 52.00 141.25 C 53.52 144.58 49.36 147.57 50.90 150.41 C 49.61 151.02 48.26 150.22 46.97 150.05 C 42.17 147.90 38.77 142.27 43.15 137.98 Z" />
</g>
<g id="#dfe8f1ff">
<path fill="#dfe8f1" opacity="1.00" d=" M 74.41 168.34 C 76.61 159.76 71.38 151.33 73.71 142.74 C 73.99 143.11 74.54 143.84 74.82 144.21 C 75.86 148.16 76.10 152.32 77.65 156.13 C 79.69 163.33 84.14 169.83 90.31 174.11 C 86.96 177.08 81.88 176.72 78.16 179.28 C 77.80 181.56 78.72 183.77 79.04 186.00 C 76.67 186.20 75.11 183.81 74.06 182.03 C 73.43 180.00 72.34 178.11 72.01 176.00 C 72.53 173.37 74.05 171.03 74.41 168.34 Z" />
</g>
<g id="#80a8d5f8">
<path fill="#80a8d5" opacity="0.97" d=" M 46.97 150.05 C 48.26 150.22 49.61 151.02 50.90 150.41 L 51.70 150.16 C 53.87 153.05 55.24 156.49 58.10 158.85 C 58.43 158.63 59.09 158.20 59.42 157.99 C 59.86 161.11 60.94 164.07 62.38 166.86 C 62.14 168.21 61.36 169.01 60.02 169.27 C 58.06 168.49 56.58 167.13 56.16 164.99 C 55.70 162.68 53.83 161.14 51.91 160.01 C 48.96 157.62 47.96 153.59 46.97 150.05 Z" />
</g>
<g id="#7aa8ddfe">
<path fill="#7aa8dd" opacity="1.00" d=" M 77.65 156.13 C 79.78 156.11 81.17 157.81 82.82 158.89 C 83.08 157.88 83.33 156.86 83.58 155.85 C 86.00 160.03 90.63 162.39 94.01 165.09 C 93.68 165.23 93.02 165.49 92.69 165.62 C 92.29 165.78 91.48 166.09 91.07 166.24 C 94.52 172.67 101.36 178.35 108.99 177.98 C 121.65 179.55 133.55 174.34 145.82 172.30 C 146.13 172.66 146.76 173.38 147.08 173.74 C 140.85 174.68 134.91 176.91 128.95 178.87 C 121.99 181.44 114.48 180.84 107.29 182.20 C 107.20 182.67 107.02 183.60 106.92 184.06 L 106.14 184.17 C 100.25 181.92 95.19 178.03 90.31 174.11 C 84.14 169.83 79.69 163.33 77.65 156.13 Z" />
</g>
<g id="#becbd8ec">
<path fill="#becbd8" opacity="0.93" d=" M 51.91 160.01 C 53.83 161.14 55.70 162.68 56.16 164.99 C 54.24 164.02 51.99 162.37 51.91 160.01 Z" />
</g>
<g id="#c3eff2f8">
<path fill="#c3eff2" opacity="0.97" d=" M 97.68 166.86 C 110.92 165.82 123.95 162.06 137.29 162.60 C 139.79 163.11 143.00 163.47 144.21 166.08 C 128.97 164.94 113.94 168.06 98.74 168.26 C 97.36 168.28 97.00 167.81 97.68 166.86 Z" />
</g>
<g id="#89bbeffe">
<path fill="#89bbef" opacity="1.00" d=" M 92.69 165.62 C 93.02 165.49 93.68 165.23 94.01 165.09 C 95.01 165.79 98.24 165.44 97.68 166.86 C 97.00 167.81 97.36 168.28 98.74 168.26 C 99.78 168.89 100.81 169.55 101.87 170.16 C 105.75 172.69 110.64 171.80 115.00 172.05 C 125.81 172.15 136.45 169.98 147.18 169.26 C 148.69 169.31 148.54 171.95 149.11 173.08 C 147.06 171.72 145.11 169.54 142.10 171.23 C 132.63 171.91 123.60 175.80 113.99 175.07 C 105.63 176.02 97.94 171.78 92.69 165.62 Z" />
</g>
<g id="#80b0e6ff">
<path fill="#80b0e6" opacity="1.00" d=" M 91.07 166.24 C 91.48 166.09 92.29 165.78 92.69 165.62 C 97.94 171.78 105.63 176.02 113.99 175.07 C 123.60 175.80 132.63 171.91 142.10 171.23 C 145.11 169.54 147.06 171.72 149.11 173.08 L 149.10 174.10 C 149.38 177.23 148.10 175.05 147.08 173.74 C 146.76 173.38 146.13 172.66 145.82 172.30 C 133.55 174.34 121.65 179.55 108.99 177.98 C 101.36 178.35 94.52 172.67 91.07 166.24 Z" />
</g>
<g id="#a4dbfeff">
<path fill="#a4dbfe" opacity="1.00" d=" M 98.74 168.26 C 113.94 168.06 128.97 164.94 144.21 166.08 L 145.29 166.37 C 144.86 166.67 143.99 167.26 143.56 167.56 C 129.70 169.07 115.74 168.86 101.87 170.16 C 100.81 169.55 99.78 168.89 98.74 168.26 Z" />
</g>
<g id="#95c9f9fe">
<path fill="#95c9f9" opacity="1.00" d=" M 145.29 166.37 C 146.44 165.58 146.47 168.59 147.18 169.26 C 136.45 169.98 125.81 172.15 115.00 172.05 C 110.64 171.80 105.75 172.69 101.87 170.16 C 115.74 168.86 129.70 169.07 143.56 167.56 C 143.99 167.26 144.86 166.67 145.29 166.37 Z" />
</g>
<g id="#c4dff3ff">
<path fill="#c4dff3" opacity="1.00" d=" M 62.38 166.86 C 62.82 168.64 66.77 172.47 63.02 172.16 C 61.64 171.75 60.87 170.34 60.02 169.27 C 61.36 169.01 62.14 168.21 62.38 166.86 Z" />
</g>
<g id="#d1dce9ff">
<path fill="#d1dce9" opacity="1.00" d=" M 90.31 174.11 C 95.19 178.03 100.25 181.92 106.14 184.17 C 99.59 185.47 92.89 184.76 86.27 185.22 C 83.86 186.34 84.67 188.30 85.36 190.27 C 83.02 189.57 80.12 188.18 79.04 186.00 C 78.72 183.77 77.80 181.56 78.16 179.28 C 81.88 176.72 86.96 177.08 90.31 174.11 Z" />
</g>
<g id="#709ed3fe">
<path fill="#709ed3" opacity="1.00" d=" M 128.95 178.87 C 134.91 176.91 140.85 174.68 147.08 173.74 C 148.10 175.05 149.38 177.23 149.10 174.10 C 152.27 172.91 150.28 179.45 149.05 180.93 L 148.34 181.20 C 148.03 178.46 146.67 174.22 142.38 177.42 C 137.15 179.44 131.57 180.81 126.79 183.80 C 128.17 183.90 129.55 183.97 130.94 184.02 L 131.29 184.76 C 128.26 184.89 125.25 184.98 122.24 185.30 C 117.11 185.12 112.04 184.31 106.92 184.06 C 107.02 183.60 107.20 182.67 107.29 182.20 C 114.48 180.84 121.99 181.44 128.95 178.87 Z" />
</g>
<g id="#6491caff">
<path fill="#6491ca" opacity="1.00" d=" M 142.38 177.42 C 146.67 174.22 148.03 178.46 148.34 181.20 C 147.34 181.58 146.33 181.93 145.31 182.24 C 143.51 182.74 141.64 183.08 139.97 183.93 C 136.94 183.98 133.95 184.02 130.94 184.02 C 129.55 183.97 128.17 183.90 126.79 183.80 C 131.57 180.81 137.15 179.44 142.38 177.42 Z" />
</g>
<g id="#86c5dbf3">
<path fill="#86c5db" opacity="0.95" d=" M 148.34 181.20 L 149.05 180.93 C 146.23 193.79 131.00 195.23 120.05 195.88 L 119.68 194.88 C 126.67 193.46 135.07 194.04 140.29 188.32 C 142.47 186.73 144.35 184.80 145.31 182.24 C 146.33 181.93 147.34 181.58 148.34 181.20 Z" />
</g>
<g id="#99b3cfff">
<path fill="#99b3cf" opacity="1.00" d=" M 139.97 183.93 C 141.64 183.08 143.51 182.74 145.31 182.24 C 144.35 184.80 142.47 186.73 140.29 188.32 C 135.07 194.04 126.67 193.46 119.68 194.88 C 115.71 194.88 111.74 194.84 107.78 194.74 C 118.75 192.24 130.68 190.78 139.97 183.93 Z" />
</g>
<g id="#c1cedffe">
<path fill="#c1cedf" opacity="1.00" d=" M 106.14 184.17 L 106.92 184.06 C 112.04 184.31 117.11 185.12 122.24 185.30 C 112.66 189.17 102.15 187.90 92.30 190.32 C 89.57 191.75 93.48 191.59 92.27 193.36 C 89.91 192.87 86.81 192.17 85.36 190.27 C 84.67 188.30 83.86 186.34 86.27 185.22 C 92.89 184.76 99.59 185.47 106.14 184.17 Z" />
</g>
<g id="#a5b8cffd">
<path fill="#a5b8cf" opacity="1.00" d=" M 130.94 184.02 C 133.95 184.02 136.94 183.98 139.97 183.93 C 130.68 190.78 118.75 192.24 107.78 194.74 C 106.07 194.98 104.36 195.24 102.69 195.68 C 100.81 195.45 94.13 196.82 95.13 194.11 C 97.66 193.06 99.98 191.36 103.00 192.03 C 112.81 191.20 122.48 188.96 131.83 185.91 C 131.69 185.62 131.42 185.05 131.29 184.76 L 130.94 184.02 Z" />
</g>
<g id="#b3c3d7fe">
<path fill="#b3c3d7" opacity="1.00" d=" M 122.24 185.30 C 125.25 184.98 128.26 184.89 131.29 184.76 C 131.42 185.05 131.69 185.62 131.83 185.91 C 122.48 188.96 112.81 191.20 103.00 192.03 C 99.98 191.36 97.66 193.06 95.13 194.11 C 93.38 194.45 92.43 194.20 92.27 193.36 C 93.48 191.59 89.57 191.75 92.30 190.32 C 102.15 187.90 112.66 189.17 122.24 185.30 Z" />
</g>
<g id="#a6defaff">
<path fill="#a6defa" opacity="1.00" d=" M 102.69 195.68 C 104.36 195.24 106.07 194.98 107.78 194.74 C 111.74 194.84 115.71 194.88 119.68 194.88 L 120.05 195.88 C 114.64 195.93 109.22 196.18 103.82 195.85 L 102.69 195.68 Z" />
</g>
<g id="#11191b52">
<path fill="#11191b" opacity="0.32" d=" M 103.82 195.85 C 109.22 196.18 114.64 195.93 120.05 195.88 L 119.99 196.94 C 114.66 197.08 109.34 197.08 104.02 196.94 L 103.82 195.85 Z" />
</g>
</svg>
