<?xml version="1.0" encoding="UTF-8" ?>
<!DOCTYPE svg PUBLIC "-//W3C//DTD SVG 1.1//EN" "http://www.w3.org/Graphics/SVG/1.1/DTD/svg11.dtd">
<svg width="155pt" height="265pt" viewBox="0 0 155 265" version="1.1" xmlns="http://www.w3.org/2000/svg">
<g id="#d89049ff">
<path fill="#d89049" opacity="1.00" d=" M 68.13 56.06 C 71.60 54.78 75.36 56.14 77.56 59.01 C 75.92 59.25 75.03 60.31 75.28 61.96 C 75.39 66.13 75.73 70.30 75.78 74.48 C 75.08 75.26 74.37 76.03 73.67 76.81 C 71.72 77.52 69.78 78.27 67.90 79.15 C 67.97 79.61 68.09 80.53 68.16 80.99 C 68.31 82.00 68.47 83.01 68.58 84.03 C 68.13 84.26 67.24 84.72 66.79 84.95 C 67.11 81.25 65.31 78.03 63.67 74.88 C 63.02 71.45 64.22 67.91 63.63 64.43 C 63.53 61.18 65.31 57.74 68.13 56.06 Z" />
</g>
<g id="#ffcf5fff">
<path fill="#ffcf5f" opacity="1.00" d=" M 135.07 59.16 C 136.93 57.89 139.17 57.81 141.34 58.06 C 139.38 58.76 137.46 59.55 135.61 60.51 C 130.58 63.30 126.93 67.99 123.27 72.32 C 120.31 76.60 116.22 80.07 113.82 84.73 C 113.33 86.07 112.91 87.42 112.44 88.77 C 111.50 83.74 114.92 79.45 118.12 76.02 C 123.50 70.18 127.51 62.56 135.07 59.16 Z" />
<path fill="#ffcf5f" opacity="1.00" d=" M 87.10 79.18 C 87.88 78.44 88.78 77.84 89.69 77.28 C 89.59 79.47 92.48 80.42 93.52 82.15 C 90.31 84.24 87.41 86.90 86.34 90.71 C 85.50 92.37 84.57 93.99 83.75 95.67 C 81.88 98.98 79.27 102.07 78.99 106.03 C 78.51 110.77 76.76 115.98 72.22 118.28 C 71.61 118.45 70.39 118.79 69.78 118.96 C 67.88 119.61 65.90 120.03 63.90 120.17 C 63.70 119.62 63.29 118.51 63.09 117.96 C 67.88 118.43 71.17 114.06 73.31 110.39 C 75.46 106.95 73.65 102.90 74.37 99.19 C 74.70 96.48 75.63 93.50 74.11 90.97 C 72.16 89.49 69.63 89.18 67.35 88.46 C 66.97 87.39 66.60 86.32 66.24 85.25 L 66.79 84.95 C 67.24 84.72 68.13 84.26 68.58 84.03 C 68.47 83.01 68.31 82.00 68.16 80.99 C 71.14 79.82 74.22 78.87 77.35 78.20 C 80.03 78.19 82.70 78.28 85.37 78.46 C 83.36 80.71 80.77 83.49 81.94 86.76 C 84.96 85.32 86.46 82.30 87.10 79.18 Z" />
</g>
<g id="#ec943dff">
<path fill="#ec943d" opacity="1.00" d=" M 141.34 58.06 C 141.59 58.33 142.08 58.85 142.33 59.12 L 142.49 60.38 C 140.20 60.50 137.90 60.46 135.61 60.51 C 137.46 59.55 139.38 58.76 141.34 58.06 Z" />
<path fill="#ec943d" opacity="1.00" d=" M 124.28 224.22 C 125.62 225.06 127.03 225.76 128.46 226.41 C 130.79 226.67 133.14 226.81 135.48 226.89 C 134.57 233.61 126.57 234.23 121.22 235.12 C 122.54 231.58 123.74 227.97 124.28 224.22 Z" />
</g>
<g id="#ffeebbff">
<path fill="#ffeebb" opacity="1.00" d=" M 112.13 59.18 L 113.49 58.96 C 112.78 60.50 112.39 62.15 112.02 63.79 C 110.25 69.43 104.76 73.58 98.99 74.51 C 95.77 74.96 92.67 76.01 89.69 77.28 C 88.78 77.84 87.88 78.44 87.10 79.18 C 84.74 81.21 82.98 83.82 81.94 86.76 C 80.77 83.49 83.36 80.71 85.37 78.46 C 85.65 78.23 86.20 77.77 86.47 77.54 C 90.77 72.91 97.30 72.95 102.80 70.82 C 107.76 68.76 109.90 63.65 112.13 59.18 Z" />
<path fill="#ffeebb" opacity="1.00" d=" M 41.86 62.60 C 42.27 62.72 43.09 62.95 43.50 63.07 C 44.54 63.50 45.31 64.22 45.82 65.24 C 46.14 66.18 46.77 66.83 47.70 67.19 C 48.59 67.71 49.41 68.34 50.13 69.09 C 51.05 70.14 52.26 71.01 53.72 70.96 C 56.62 71.01 59.18 72.46 61.74 73.65 C 61.63 72.27 61.94 71.05 62.66 69.98 C 63.51 68.99 63.83 67.58 63.44 66.34 L 62.81 64.77 L 63.63 64.43 C 64.22 67.91 63.02 71.45 63.67 74.88 C 65.31 78.03 67.11 81.25 66.79 84.95 L 66.24 85.25 C 65.96 84.46 65.40 82.90 65.13 82.11 C 64.22 80.27 62.98 78.60 61.58 77.09 C 60.13 75.38 57.97 74.65 56.11 73.51 C 55.31 72.67 54.40 72.44 53.37 72.82 L 52.33 73.15 C 50.20 71.85 47.83 70.74 46.19 68.79 C 45.84 67.87 45.21 67.21 44.32 66.81 C 43.07 65.76 41.70 64.40 41.86 62.60 Z" />
</g>
<g id="#5b4e448c">
<path fill="#5b4e44" opacity="0.55" d=" M 113.49 58.96 C 115.27 59.83 113.92 64.01 112.02 63.79 C 112.39 62.15 112.78 60.50 113.49 58.96 Z" />
</g>
<g id="#a86230ff">
<path fill="#a86230" opacity="1.00" d=" M 142.33 59.12 C 143.04 59.98 143.73 60.85 144.43 61.73 C 142.75 61.79 141.04 62.45 139.37 62.04 C 137.25 61.05 135.06 61.87 133.40 63.35 C 130.05 65.96 127.51 69.40 124.83 72.66 C 121.81 76.50 118.43 80.16 116.37 84.64 C 115.51 86.93 114.81 89.27 114.19 91.63 C 112.98 96.38 112.06 101.24 109.88 105.68 C 110.57 98.57 113.95 91.97 113.82 84.73 C 116.22 80.07 120.31 76.60 123.27 72.32 C 126.93 67.99 130.58 63.30 135.61 60.51 C 137.90 60.46 140.20 60.50 142.49 60.38 L 142.33 59.12 Z" />
<path fill="#a86230" opacity="1.00" d=" M 133.91 220.72 C 137.07 220.19 139.89 218.57 142.75 217.21 C 142.59 218.20 142.43 219.18 142.27 220.17 C 141.83 221.65 139.98 223.24 141.39 224.78 C 141.00 225.10 140.61 225.41 140.21 225.73 C 138.66 226.23 137.08 226.62 135.48 226.89 C 133.14 226.81 130.79 226.67 128.46 226.41 C 127.91 225.11 127.04 223.84 127.20 222.36 C 129.23 221.17 131.66 221.21 133.91 220.72 Z" />
</g>
<g id="#5d5d5399">
<path fill="#5d5d53" opacity="0.60" d=" M 41.86 62.60 C 42.85 61.30 43.40 61.46 43.50 63.07 C 43.09 62.95 42.27 62.72 41.86 62.60 Z" />
</g>
<g id="#186256ff">
<path fill="#186256" opacity="1.00" d=" M 133.40 63.35 C 135.06 61.87 137.25 61.05 139.37 62.04 C 137.88 64.53 136.04 66.83 134.82 69.47 C 133.32 74.14 132.69 79.02 131.71 83.81 C 131.03 87.50 130.95 91.26 130.84 95.00 C 130.61 94.56 130.16 93.70 129.94 93.27 C 129.65 89.28 129.91 85.29 130.33 81.32 C 130.79 78.16 128.92 75.35 127.82 72.53 C 126.82 72.57 125.83 72.61 124.83 72.66 C 127.51 69.40 130.05 65.96 133.40 63.35 Z" />
</g>
<g id="#161612ff">
<path fill="#161612" opacity="1.00" d=" M 45.82 65.24 C 47.53 64.79 48.16 65.44 47.70 67.19 C 46.77 66.83 46.14 66.18 45.82 65.24 Z" />
<path fill="#161612" opacity="1.00" d=" M 44.32 66.81 C 45.21 67.21 45.84 67.87 46.19 68.79 C 44.43 69.22 43.81 68.56 44.32 66.81 Z" />
<path fill="#161612" opacity="1.00" d=" M 50.13 69.09 C 51.30 67.96 54.34 69.26 53.72 70.96 C 52.26 71.01 51.05 70.14 50.13 69.09 Z" />
<path fill="#161612" opacity="1.00" d=" M 85.29 94.11 C 85.72 94.14 86.58 94.20 87.02 94.23 C 87.49 95.49 87.92 96.78 88.37 98.06 C 88.53 97.20 88.87 95.49 89.04 94.63 C 89.44 95.30 90.24 96.63 90.64 97.30 C 90.71 95.99 90.78 94.67 90.84 93.36 C 90.96 93.97 91.21 95.18 91.33 95.78 C 91.74 98.64 91.63 101.53 91.49 104.40 C 89.95 104.82 88.42 105.24 86.87 105.60 C 86.16 101.80 85.58 97.97 85.29 94.11 Z" />
<path fill="#161612" opacity="1.00" d=" M 26.22 164.89 C 26.43 163.53 26.67 162.17 26.99 160.83 C 26.87 161.72 26.64 163.51 26.53 164.40 C 27.79 165.26 29.03 166.19 30.48 166.72 L 31.60 167.07 L 32.44 167.38 L 31.80 167.44 C 31.11 167.65 29.72 168.07 29.02 168.28 C 29.55 168.63 30.60 169.34 31.12 169.69 C 30.98 170.65 30.71 172.59 30.57 173.56 C 30.07 172.19 30.15 170.49 28.90 169.53 C 28.42 169.80 27.46 170.35 26.98 170.63 C 27.44 170.32 28.37 169.71 28.83 169.40 C 28.86 167.47 28.38 165.42 26.22 164.89 Z" />
<path fill="#161612" opacity="1.00" d=" M 144.00 232.96 C 145.91 238.47 145.29 244.38 144.82 250.07 C 145.02 251.89 143.23 252.80 142.24 254.02 C 142.48 253.53 142.96 252.55 143.20 252.06 C 142.68 251.68 141.64 250.93 141.12 250.55 C 139.71 250.22 138.29 250.01 136.88 249.80 C 138.07 249.71 139.26 249.60 140.47 249.55 C 141.14 250.11 142.50 251.24 143.18 251.80 C 145.78 245.86 145.46 239.15 144.00 232.96 Z" />
<path fill="#161612" opacity="1.00" d=" M 50.82 254.52 C 51.58 253.71 52.32 252.90 53.05 252.08 C 53.36 254.49 53.65 256.91 53.92 259.33 C 53.54 257.54 53.25 255.72 52.96 253.92 C 52.42 254.07 51.36 254.37 50.82 254.52 Z" />
</g>
<g id="#ffcf5dff">
<path fill="#ffcf5d" opacity="1.00" d=" M 62.66 69.98 C 61.67 69.14 61.87 66.16 63.44 66.34 C 63.83 67.58 63.51 68.99 62.66 69.98 Z" />
<path fill="#ffcf5d" opacity="1.00" d=" M 26.99 160.83 C 29.11 152.44 36.33 146.87 42.20 141.04 C 43.08 141.68 43.97 142.33 44.85 142.97 C 44.72 145.26 44.76 147.59 44.27 149.84 C 41.54 156.85 34.32 160.54 30.48 166.72 C 29.03 166.19 27.79 165.26 26.53 164.40 C 26.64 163.51 26.87 161.72 26.99 160.83 Z" />
</g>
<g id="#f9be59ff">
<path fill="#f9be59" opacity="1.00" d=" M 80.59 68.50 C 83.02 71.21 83.87 74.97 86.47 77.54 C 86.20 77.77 85.65 78.23 85.37 78.46 C 82.70 78.28 80.03 78.19 77.35 78.20 C 76.12 77.76 74.89 77.30 73.67 76.81 C 74.37 76.03 75.08 75.26 75.78 74.48 C 77.54 72.61 79.07 70.55 80.59 68.50 Z" />
</g>
<g id="#16564aff">
<path fill="#16564a" opacity="1.00" d=" M 124.83 72.66 C 125.83 72.61 126.82 72.57 127.82 72.53 C 128.92 75.35 130.79 78.16 130.33 81.32 C 129.91 85.29 129.65 89.28 129.94 93.27 C 126.44 89.16 122.13 84.83 116.37 84.64 C 118.43 80.16 121.81 76.50 124.83 72.66 Z" />
</g>
<g id="#bb9172ff">
<path fill="#bb9172" opacity="1.00" d=" M 53.37 72.82 C 54.40 72.44 55.31 72.67 56.11 73.51 C 54.71 74.57 53.79 74.34 53.37 72.82 Z" />
<path fill="#bb9172" opacity="1.00" d=" M 75.59 127.77 C 79.97 128.06 84.23 126.87 88.12 124.95 C 89.27 126.86 90.28 128.84 91.19 130.87 C 85.78 131.32 80.35 130.45 75.59 127.77 Z" />
</g>
<g id="#e6a352ff">
<path fill="#e6a352" opacity="1.00" d=" M 61.58 77.09 C 62.98 78.60 64.22 80.27 65.13 82.11 C 64.14 83.29 63.15 84.47 62.31 85.75 C 62.01 82.86 61.03 80.05 61.58 77.09 Z" />
<path fill="#e6a352" opacity="1.00" d=" M 93.52 82.15 L 93.70 82.02 C 94.49 83.65 95.41 85.24 95.98 86.97 C 96.05 87.42 96.19 88.31 96.26 88.75 C 95.01 88.60 93.76 88.41 92.49 88.40 C 91.72 89.51 91.18 90.76 90.65 92.00 C 89.23 91.53 87.78 91.13 86.34 90.71 C 87.41 86.90 90.31 84.24 93.52 82.15 Z" />
</g>
<g id="#fdeb72ff">
<path fill="#fdeb72" opacity="1.00" d=" M 67.90 79.15 C 69.78 78.27 71.72 77.52 73.67 76.81 C 74.89 77.30 76.12 77.76 77.35 78.20 C 74.22 78.87 71.14 79.82 68.16 80.99 C 68.09 80.53 67.97 79.61 67.90 79.15 Z" />
</g>
<g id="#ba8f63fd">
<path fill="#ba8f63" opacity="1.00" d=" M 81.94 86.76 C 82.98 83.82 84.74 81.21 87.10 79.18 C 86.46 82.30 84.96 85.32 81.94 86.76 Z" />
</g>
<g id="#ffdf67ff">
<path fill="#ffdf67" opacity="1.00" d=" M 62.31 85.75 C 63.15 84.47 64.14 83.29 65.13 82.11 C 65.40 82.90 65.96 84.46 66.24 85.25 C 66.60 86.32 66.97 87.39 67.35 88.46 C 69.63 89.18 72.16 89.49 74.11 90.97 C 75.63 93.50 74.70 96.48 74.37 99.19 C 73.65 102.90 75.46 106.95 73.31 110.39 C 71.17 114.06 67.88 118.43 63.09 117.96 C 62.63 117.85 61.69 117.64 61.22 117.54 C 61.13 117.82 60.95 118.39 60.85 118.68 C 60.29 119.66 59.72 120.64 59.12 121.60 C 56.12 116.59 56.36 110.41 58.36 105.09 C 61.53 100.81 62.66 95.46 62.73 90.22 L 62.73 90.01 C 62.12 89.42 61.49 88.85 60.85 88.29 C 61.21 87.66 61.94 86.39 62.31 85.75 Z" />
</g>
<g id="#154a3eff">
<path fill="#154a3e" opacity="1.00" d=" M 130.84 95.00 C 130.95 91.26 131.03 87.50 131.71 83.81 C 131.53 88.51 131.52 93.21 131.90 97.90 C 128.60 101.84 124.69 105.24 121.55 109.33 C 121.57 106.66 122.86 104.27 123.36 101.70 C 123.13 96.61 119.12 92.51 114.19 91.63 C 114.81 89.27 115.51 86.93 116.37 84.64 C 122.13 84.83 126.44 89.16 129.94 93.27 C 130.16 93.70 130.61 94.56 130.84 95.00 Z" />
</g>
<g id="#e9a450ff">
<path fill="#e9a450" opacity="1.00" d=" M 112.44 88.77 C 112.91 87.42 113.33 86.07 113.82 84.73 C 113.95 91.97 110.57 98.57 109.88 105.68 C 108.94 108.48 107.63 111.13 106.40 113.82 C 105.17 114.94 103.95 116.08 102.70 117.19 L 102.97 115.96 C 107.39 107.38 109.94 98.05 112.44 88.77 Z" />
<path fill="#e9a450" opacity="1.00" d=" M 134.62 180.35 C 137.07 180.58 139.51 180.87 141.95 181.17 C 145.18 185.88 147.05 191.34 147.93 196.96 C 147.89 200.30 147.68 203.64 147.54 206.98 C 147.67 201.34 146.74 195.74 144.49 190.54 C 142.82 189.69 141.15 188.85 139.47 188.02 C 137.91 193.57 137.74 200.00 133.23 204.19 C 131.42 206.95 128.07 207.28 125.10 207.78 C 125.00 207.20 124.79 206.03 124.69 205.44 C 125.54 200.84 126.33 196.23 127.53 191.71 C 127.67 193.52 127.89 195.32 128.12 197.12 C 132.97 192.98 134.11 186.37 134.62 180.35 Z" />
</g>
<g id="#d58f48ff">
<path fill="#d58f48" opacity="1.00" d=" M 95.98 86.97 C 96.88 88.91 97.73 90.91 98.07 93.04 C 98.18 95.49 97.97 97.95 97.29 100.31 C 96.97 98.31 96.73 96.30 96.52 94.29 C 94.72 94.51 92.98 95.04 91.33 95.78 C 91.21 95.18 90.96 93.97 90.84 93.36 L 90.77 92.86 L 90.65 92.00 C 91.18 90.76 91.72 89.51 92.49 88.40 C 93.76 88.41 95.01 88.60 96.26 88.75 C 96.19 88.31 96.05 87.42 95.98 86.97 Z" />
</g>
<g id="#ceb1a7ff">
<path fill="#ceb1a7" opacity="1.00" d=" M 60.73 88.19 L 60.85 88.29 C 61.49 88.85 62.12 89.42 62.73 90.01 L 62.73 90.22 C 61.20 91.39 60.48 93.21 59.61 94.86 C 59.64 94.15 59.69 92.73 59.71 92.03 C 60.01 90.73 60.35 89.46 60.73 88.19 Z" />
<path fill="#ceb1a7" opacity="1.00" d=" M 86.57 91.53 C 87.97 91.97 89.37 92.42 90.77 92.86 L 90.84 93.36 C 90.78 94.67 90.71 95.99 90.64 97.30 C 90.24 96.63 89.44 95.30 89.04 94.63 C 88.87 95.49 88.53 97.20 88.37 98.06 C 87.92 96.78 87.49 95.49 87.02 94.23 L 88.88 94.31 C 88.30 93.62 87.15 92.22 86.57 91.53 Z" />
<path fill="#ceb1a7" opacity="1.00" d=" M 143.26 174.55 C 144.98 172.78 146.88 171.21 148.94 169.86 C 149.33 172.50 148.80 175.13 148.78 177.78 C 146.90 176.76 145.00 175.78 143.26 174.55 Z" />
<path fill="#ceb1a7" opacity="1.00" d=" M 67.71 249.64 C 68.38 250.30 69.04 250.98 69.70 251.67 C 69.28 252.16 68.43 253.14 68.01 253.62 C 66.68 254.98 65.13 256.08 63.47 256.99 C 64.74 254.46 66.14 252.00 67.71 249.64 Z" />
</g>
<g id="#4e4e3eff">
<path fill="#4e4e3e" opacity="1.00" d=" M 59.61 94.86 C 60.48 93.21 61.20 91.39 62.73 90.22 C 62.66 95.46 61.53 100.81 58.36 105.09 C 59.05 100.75 58.32 96.25 59.71 92.03 C 59.69 92.73 59.64 94.15 59.61 94.86 Z" />
<path fill="#4e4e3e" opacity="1.00" d=" M 80.51 125.57 C 82.77 124.86 84.71 123.47 86.04 121.50 C 86.71 122.66 87.42 123.80 88.12 124.95 C 84.23 126.87 79.97 128.06 75.59 127.77 L 74.59 127.60 C 76.55 126.87 78.54 126.25 80.51 125.57 Z" />
<path fill="#4e4e3e" opacity="1.00" d=" M 41.32 194.94 C 40.16 194.08 40.54 190.98 42.27 191.37 C 42.41 192.65 42.06 193.89 41.32 194.94 Z" />
<path fill="#4e4e3e" opacity="1.00" d=" M 54.39 247.67 C 54.50 247.24 54.72 246.38 54.84 245.94 C 56.87 246.80 58.85 247.76 60.81 248.79 C 63.13 247.40 65.87 247.06 68.23 248.64 C 68.45 248.88 68.88 249.37 69.09 249.61 C 69.60 250.19 70.11 250.76 70.62 251.33 C 69.79 252.14 69.00 253.00 68.01 253.62 C 68.43 253.14 69.28 252.16 69.70 251.67 C 69.04 250.98 68.38 250.30 67.71 249.64 C 65.99 247.96 63.65 248.18 61.50 248.61 C 61.53 249.89 61.56 251.18 61.60 252.47 C 60.23 253.92 58.88 255.39 57.38 256.72 L 57.75 255.86 C 58.51 254.05 59.99 252.35 59.77 250.28 C 59.20 248.00 56.51 246.97 54.39 247.67 Z" />
</g>
<g id="#564730ff">
<path fill="#564730" opacity="1.00" d=" M 83.75 95.67 C 84.57 93.99 85.50 92.37 86.34 90.71 C 87.78 91.13 89.23 91.53 90.65 92.00 L 90.77 92.86 C 89.37 92.42 87.97 91.97 86.57 91.53 C 87.15 92.22 88.30 93.62 88.88 94.31 L 87.02 94.23 C 86.58 94.20 85.72 94.14 85.29 94.11 C 85.58 97.97 86.16 101.80 86.87 105.60 C 85.84 105.13 84.81 104.64 83.79 104.14 C 83.94 101.31 83.79 98.49 83.75 95.67 Z" />
</g>
<g id="#133e32ff">
<path fill="#133e32" opacity="1.00" d=" M 109.88 105.68 C 112.06 101.24 112.98 96.38 114.19 91.63 C 119.12 92.51 123.13 96.61 123.36 101.70 C 122.86 104.27 121.57 106.66 121.55 109.33 L 121.51 109.82 C 117.07 117.11 111.82 123.89 106.41 130.48 C 104.76 128.76 103.17 126.87 102.41 124.58 C 103.23 120.84 105.18 117.44 106.40 113.82 C 107.63 111.13 108.94 108.48 109.88 105.68 Z" />
</g>
<g id="#b87239ff">
<path fill="#b87239" opacity="1.00" d=" M 98.07 93.04 C 99.84 101.49 97.21 110.24 99.54 118.60 C 101.23 119.89 101.82 116.78 102.97 115.96 L 102.70 117.19 C 103.95 116.08 105.17 114.94 106.40 113.82 C 105.18 117.44 103.23 120.84 102.41 124.58 C 103.17 126.87 104.76 128.76 106.41 130.48 L 107.22 130.84 C 108.22 131.23 109.24 131.58 110.27 131.89 C 109.90 132.25 109.15 132.98 108.78 133.34 C 108.24 137.18 108.01 141.80 104.29 144.03 C 101.09 140.63 98.54 136.73 96.09 132.78 C 95.61 131.64 94.53 131.46 93.44 131.59 C 92.52 129.45 91.59 127.32 90.76 125.15 C 93.31 123.18 98.74 122.34 97.78 118.15 C 98.04 115.52 95.39 115.02 93.47 114.32 C 93.58 112.80 93.69 111.29 93.79 109.78 C 90.14 110.71 87.64 113.57 85.53 116.50 C 83.06 119.98 79.64 122.57 76.03 124.77 C 77.52 125.03 79.02 125.30 80.51 125.57 C 78.54 126.25 76.55 126.87 74.59 127.60 C 72.68 127.33 70.75 127.26 68.83 127.15 C 68.40 127.13 67.53 127.07 67.10 127.05 C 66.96 129.24 67.01 131.43 67.20 133.62 C 65.46 136.71 65.12 140.28 64.57 143.72 C 64.45 143.88 64.21 144.19 64.09 144.35 C 62.01 146.74 60.63 149.99 61.44 153.18 C 65.85 159.12 73.80 160.46 80.75 160.60 C 82.89 160.69 85.03 160.78 87.17 160.78 C 83.67 161.57 80.07 161.60 76.50 161.83 C 70.51 161.07 64.84 158.70 60.71 154.19 C 59.93 158.19 57.95 163.26 61.74 166.38 C 68.09 171.81 77.28 173.21 85.30 171.59 C 85.91 171.59 87.13 171.59 87.73 171.59 C 88.84 171.66 89.96 171.74 91.07 171.82 C 88.94 172.37 86.81 172.94 84.66 173.36 C 75.42 174.08 64.05 172.68 58.86 163.93 C 58.16 167.81 55.72 172.51 58.93 175.88 C 62.98 181.34 70.05 182.19 75.87 184.63 L 74.38 184.89 C 67.91 183.72 60.83 181.04 57.75 174.77 C 57.26 175.45 56.76 176.13 56.25 176.80 C 56.54 168.74 58.88 160.96 59.89 152.99 C 60.41 150.28 60.83 147.50 62.05 145.00 C 65.36 139.20 65.68 132.32 66.11 125.80 C 65.61 126.53 65.11 127.26 64.63 128.01 C 64.99 126.78 64.55 125.88 63.29 125.29 C 67.60 123.84 72.14 122.60 75.77 119.74 C 80.25 115.75 82.95 110.04 83.79 104.14 C 84.81 104.64 85.84 105.13 86.87 105.60 C 88.42 105.24 89.95 104.82 91.49 104.40 C 91.63 101.53 91.74 98.64 91.33 95.78 C 92.98 95.04 94.72 94.51 96.52 94.29 C 96.73 96.30 96.97 98.31 97.29 100.31 C 97.97 97.95 98.18 95.49 98.07 93.04 Z" />
</g>
<g id="#e09e4fff">
<path fill="#e09e4f" opacity="1.00" d=" M 78.99 106.03 C 79.27 102.07 81.88 98.98 83.75 95.67 C 83.79 98.49 83.94 101.31 83.79 104.14 C 82.95 110.04 80.25 115.75 75.77 119.74 C 72.14 122.60 67.60 123.84 63.29 125.29 C 61.71 124.28 60.38 122.96 59.12 121.60 C 59.72 120.64 60.29 119.66 60.85 118.68 C 61.65 119.69 62.67 120.19 63.90 120.17 C 65.90 120.03 67.88 119.61 69.78 118.96 C 69.65 119.45 69.40 120.43 69.28 120.92 C 70.88 121.20 72.32 119.91 72.22 118.28 C 76.76 115.98 78.51 110.77 78.99 106.03 Z" />
</g>
<g id="#a55e2eff">
<path fill="#a55e2e" opacity="1.00" d=" M 85.53 116.50 C 87.64 113.57 90.14 110.71 93.79 109.78 C 93.69 111.29 93.58 112.80 93.47 114.32 C 95.39 115.02 98.04 115.52 97.78 118.15 C 98.74 122.34 93.31 123.18 90.76 125.15 C 90.02 123.26 89.14 121.42 87.91 119.80 C 87.18 120.24 86.56 120.81 86.04 121.50 C 84.71 123.47 82.77 124.86 80.51 125.57 C 79.02 125.30 77.52 125.03 76.03 124.77 C 79.64 122.57 83.06 119.98 85.53 116.50 Z" />
</g>
<g id="#af8241ff">
<path fill="#af8241" opacity="1.00" d=" M 61.22 117.54 C 61.69 117.64 62.63 117.85 63.09 117.96 C 63.29 118.51 63.70 119.62 63.90 120.17 C 62.67 120.19 61.65 119.69 60.85 118.68 C 60.95 118.39 61.13 117.82 61.22 117.54 Z" />
</g>
<g id="#936b34ff">
<path fill="#936b34" opacity="1.00" d=" M 69.78 118.96 C 70.39 118.79 71.61 118.45 72.22 118.28 C 72.32 119.91 70.88 121.20 69.28 120.92 C 69.40 120.43 69.65 119.45 69.78 118.96 Z" />
</g>
<g id="#975227ff">
<path fill="#975227" opacity="1.00" d=" M 86.04 121.50 C 86.56 120.81 87.18 120.24 87.91 119.80 C 89.14 121.42 90.02 123.26 90.76 125.15 C 91.59 127.32 92.52 129.45 93.44 131.59 C 94.45 134.38 95.05 137.29 95.91 140.12 C 97.06 144.28 100.29 147.48 101.29 151.70 C 103.13 158.77 105.86 165.57 108.96 172.18 C 111.42 178.42 113.89 184.77 117.87 190.23 C 119.82 192.87 121.33 195.81 122.57 198.85 C 123.09 196.00 123.81 193.19 124.78 190.46 C 125.43 195.19 124.51 199.90 124.17 204.61 C 123.84 206.49 123.40 208.36 122.83 210.19 C 122.13 211.90 121.45 213.88 119.47 214.44 C 118.91 214.28 117.78 213.96 117.22 213.80 C 119.66 211.73 121.70 209.18 122.17 205.92 C 117.53 210.34 112.34 214.01 106.56 216.79 C 105.97 216.97 104.79 217.34 104.21 217.52 C 103.67 217.28 102.61 216.81 102.07 216.57 C 109.68 215.73 116.04 210.41 120.93 204.82 C 122.72 203.16 121.32 200.85 120.40 199.16 C 115.87 204.23 110.17 208.38 103.61 210.34 C 100.96 211.01 98.33 211.77 95.77 212.75 C 92.74 213.31 89.65 213.41 86.58 213.60 C 82.11 213.42 77.71 212.53 73.37 211.51 C 70.21 210.23 67.16 208.70 64.14 207.12 C 64.39 207.14 64.90 207.18 65.15 207.20 C 66.48 207.81 67.79 208.45 69.11 209.09 C 72.10 210.70 75.41 211.46 78.75 211.95 C 84.09 212.85 89.60 212.68 94.90 211.60 C 99.79 210.51 104.71 209.21 109.02 206.56 C 113.28 204.54 116.79 201.36 119.83 197.80 C 119.12 196.20 118.42 194.59 117.72 192.99 C 115.34 194.89 112.89 196.73 110.27 198.29 C 105.52 201.36 100.08 202.99 94.67 204.45 C 90.31 204.74 85.98 205.43 81.60 205.52 C 77.78 205.01 74.02 204.03 70.17 203.73 C 70.66 203.53 71.64 203.14 72.13 202.94 C 73.60 203.26 75.08 203.52 76.56 203.76 C 83.03 205.21 89.78 204.28 96.13 202.66 C 100.40 201.61 104.54 200.06 108.26 197.67 C 111.12 196.05 114.47 194.84 116.28 191.90 C 115.56 189.81 114.31 187.97 113.17 186.09 C 110.70 187.54 108.31 189.09 105.86 190.56 C 104.02 191.60 102.08 192.43 100.13 193.23 C 99.52 192.92 98.29 192.31 97.68 192.01 C 99.24 191.63 100.79 191.21 102.31 190.69 C 105.80 188.85 109.77 187.25 112.28 184.13 C 111.42 181.66 110.23 179.30 108.74 177.15 C 105.88 177.94 103.54 179.87 100.90 181.15 C 97.49 182.26 94.07 183.35 90.63 184.35 C 85.21 184.58 79.80 185.87 74.38 184.89 L 75.87 184.63 C 79.42 184.43 82.98 184.26 86.50 183.72 C 89.58 183.41 92.59 182.67 95.52 181.68 C 98.19 180.84 100.78 179.74 103.18 178.28 C 104.70 177.19 106.72 176.47 107.74 174.86 C 107.09 171.70 105.33 168.91 103.99 166.02 C 102.67 166.80 101.37 167.61 100.03 168.35 C 97.70 169.63 95.22 170.61 92.70 171.45 C 92.29 171.54 91.48 171.73 91.07 171.82 C 89.96 171.74 88.84 171.66 87.73 171.59 C 89.96 171.03 92.16 170.35 94.33 169.61 C 97.43 168.32 101.26 167.10 102.90 163.96 C 102.70 161.14 101.51 158.54 100.61 155.91 C 98.06 157.00 95.55 158.20 92.95 159.18 C 91.03 159.75 89.13 160.37 87.17 160.78 C 85.03 160.78 82.89 160.69 80.75 160.60 C 83.02 160.46 85.29 160.19 87.52 159.71 C 90.55 158.86 93.51 157.79 96.35 156.42 C 97.54 155.83 98.71 155.21 99.90 154.61 C 99.69 151.51 98.84 148.18 96.09 146.34 C 93.85 146.45 91.84 147.57 89.76 148.29 C 84.83 150.15 79.51 149.28 74.38 149.75 C 70.54 148.85 67.05 146.95 64.09 144.35 C 64.21 144.19 64.45 143.88 64.57 143.72 C 67.37 145.85 70.33 148.21 73.96 148.58 C 78.62 149.05 83.43 148.96 87.97 147.68 C 90.31 146.81 92.60 145.79 94.91 144.82 C 94.53 141.48 93.59 138.25 92.52 135.07 C 87.22 137.56 81.38 137.80 75.63 137.76 C 72.54 137.04 69.50 135.90 67.20 133.62 C 71.76 136.19 76.94 137.08 82.13 136.60 C 85.74 136.35 89.09 134.90 92.15 133.06 C 91.91 132.51 91.43 131.42 91.19 130.87 C 90.28 128.84 89.27 126.86 88.12 124.95 C 87.42 123.80 86.71 122.66 86.04 121.50 Z" />
<path fill="#975227" opacity="1.00" d=" M 59.36 220.98 C 61.07 218.26 63.15 215.79 65.61 213.71 C 69.59 216.37 73.89 218.61 78.54 219.84 C 75.58 224.36 69.84 224.71 64.96 224.28 C 62.82 223.72 61.15 222.18 59.36 220.98 Z" />
<path fill="#975227" opacity="1.00" d=" M 117.35 248.19 C 120.00 247.46 122.44 248.71 124.73 249.87 C 126.16 249.28 127.55 248.58 129.06 248.23 C 131.68 248.73 134.12 250.32 136.88 249.80 C 136.09 250.97 135.30 252.13 134.48 253.29 C 134.33 253.47 134.01 253.85 133.86 254.04 C 132.81 251.99 131.68 249.49 129.09 249.14 C 127.10 249.30 125.86 250.84 124.98 252.46 C 124.50 251.92 124.01 251.41 123.50 250.92 C 122.40 250.04 121.27 249.21 120.14 248.39 C 119.01 248.92 117.88 249.45 116.76 249.98 C 116.91 249.53 117.21 248.64 117.35 248.19 Z" />
</g>
<g id="#ffd86aff">
<path fill="#ffd86a" opacity="1.00" d=" M 127.15 121.30 C 131.29 120.15 135.84 120.70 139.42 123.13 C 135.23 124.90 131.42 127.52 127.05 128.89 C 123.90 129.98 120.15 130.90 118.62 134.22 C 117.29 133.68 115.93 133.25 114.55 132.89 C 113.12 132.55 111.69 132.26 110.27 131.89 C 109.24 131.58 108.22 131.23 107.22 130.84 C 113.30 126.67 119.60 122.14 127.15 121.30 Z" />
</g>
<g id="#febf5fff">
<path fill="#febf5f" opacity="1.00" d=" M 139.42 123.13 C 140.57 123.80 141.36 124.94 142.31 125.87 C 141.28 125.73 140.25 125.59 139.22 125.46 C 134.99 129.96 129.39 132.72 124.88 136.87 C 122.59 136.59 120.67 135.16 118.62 134.22 C 120.15 130.90 123.90 129.98 127.05 128.89 C 131.42 127.52 135.23 124.90 139.42 123.13 Z" />
</g>
<g id="#e69f4aff">
<path fill="#e69f4a" opacity="1.00" d=" M 139.22 125.46 C 140.25 125.59 141.28 125.73 142.31 125.87 C 142.59 130.51 140.78 134.84 139.13 139.07 C 139.34 136.82 138.96 134.60 138.32 132.46 C 136.03 135.33 133.90 138.34 131.61 141.23 C 132.97 143.20 134.52 145.04 136.28 146.67 C 140.50 150.94 144.84 155.45 147.12 161.12 C 147.12 165.80 143.29 169.08 140.54 172.43 C 139.99 172.38 138.90 172.27 138.35 172.22 C 139.73 170.44 141.79 169.02 142.64 166.90 C 142.93 161.23 138.96 156.61 135.28 152.77 C 132.50 149.83 129.61 146.93 126.07 144.90 C 123.26 151.02 123.03 158.34 125.27 164.66 C 127.18 169.62 132.75 170.95 137.35 172.13 C 136.71 172.98 136.07 173.84 135.42 174.69 C 133.96 174.13 132.41 173.93 130.88 173.70 C 130.78 178.31 130.93 183.08 128.90 187.35 C 128.27 183.03 128.69 178.71 129.32 174.43 C 128.65 172.17 126.45 170.76 124.99 168.99 C 121.85 165.93 120.93 161.48 118.76 157.81 C 119.52 157.66 120.28 157.51 121.05 157.37 C 120.87 154.39 120.45 151.43 119.58 148.58 C 117.60 147.58 115.49 146.72 113.83 145.21 C 112.77 143.76 112.43 141.94 111.85 140.27 C 113.32 138.05 114.45 135.59 114.55 132.89 C 115.93 133.25 117.29 133.68 118.62 134.22 C 120.67 135.16 122.59 136.59 124.88 136.87 C 129.39 132.72 134.99 129.96 139.22 125.46 Z" />
</g>
<g id="#ffb755ff">
<path fill="#ffb755" opacity="1.00" d=" M 64.63 128.01 C 65.11 127.26 65.61 126.53 66.11 125.80 C 65.68 132.32 65.36 139.20 62.05 145.00 C 60.83 147.50 60.41 150.28 59.89 152.99 C 59.48 153.00 58.65 153.01 58.24 153.02 L 57.22 152.72 C 57.67 152.08 58.56 150.80 59.01 150.16 C 58.58 149.84 57.72 149.20 57.29 148.88 C 56.73 147.49 57.15 145.08 55.31 144.63 C 52.12 143.43 49.05 145.94 47.80 148.73 C 44.02 156.09 38.25 162.23 31.60 167.07 L 30.48 166.72 C 34.32 160.54 41.54 156.85 44.27 149.84 C 44.76 147.59 44.72 145.26 44.85 142.97 C 43.97 142.33 43.08 141.68 42.20 141.04 C 45.74 137.22 49.85 133.97 54.33 131.33 C 55.74 132.08 57.15 132.82 58.56 133.57 C 58.62 137.48 58.41 141.45 59.45 145.27 C 60.52 141.51 61.62 137.74 63.33 134.20 C 64.24 132.38 64.79 130.37 64.42 128.32 L 64.63 128.01 Z" />
</g>
<g id="#f4cf96ff">
<path fill="#f4cf96" opacity="1.00" d=" M 67.10 127.05 C 67.53 127.07 68.40 127.13 68.83 127.15 C 73.52 129.31 77.53 132.81 82.65 134.09 C 82.52 134.72 82.26 135.97 82.13 136.60 C 76.94 137.08 71.76 136.19 67.20 133.62 C 67.01 131.43 66.96 129.24 67.10 127.05 Z" />
</g>
<g id="#d5ae84ff">
<path fill="#d5ae84" opacity="1.00" d=" M 68.83 127.15 C 70.75 127.26 72.68 127.33 74.59 127.60 L 75.59 127.77 C 80.35 130.45 85.78 131.32 91.19 130.87 C 91.43 131.42 91.91 132.51 92.15 133.06 C 89.09 134.90 85.74 136.35 82.13 136.60 C 82.26 135.97 82.52 134.72 82.65 134.09 C 77.53 132.81 73.52 129.31 68.83 127.15 Z" />
<path fill="#d5ae84" opacity="1.00" d=" M 55.11 188.12 C 54.96 186.34 55.19 184.51 56.34 183.07 C 58.48 185.62 60.69 188.16 63.37 190.17 C 62.92 190.25 62.01 190.41 61.56 190.49 C 59.25 189.34 58.66 185.51 56.15 185.27 C 54.96 187.66 54.97 191.00 57.13 192.86 C 60.20 196.80 64.42 199.47 68.96 201.41 C 70.01 201.93 71.06 202.46 72.13 202.94 C 71.64 203.14 70.66 203.53 70.17 203.73 C 63.98 201.94 59.74 197.03 55.73 192.33 L 55.59 194.02 C 55.36 192.06 55.20 190.09 55.11 188.12 Z" />
</g>
<g id="#654f259d">
<path fill="#654f25" opacity="0.62" d=" M 59.36 130.06 C 58.96 128.31 62.08 128.22 62.89 129.31 C 61.92 130.16 60.58 130.29 59.36 130.06 Z" />
</g>
<g id="#ffdf68ff">
<path fill="#ffdf68" opacity="1.00" d=" M 62.89 129.31 L 64.42 128.32 C 64.79 130.37 64.24 132.38 63.33 134.20 C 61.62 137.74 60.52 141.51 59.45 145.27 C 58.41 141.45 58.62 137.48 58.56 133.57 C 57.15 132.82 55.74 132.08 54.33 131.33 C 55.87 130.46 57.52 129.55 59.36 130.06 C 60.58 130.29 61.92 130.16 62.89 129.31 Z" />
</g>
<g id="#c98641ff">
<path fill="#c98641" opacity="1.00" d=" M 93.44 131.59 C 94.53 131.46 95.61 131.64 96.09 132.78 C 98.54 136.73 101.09 140.63 104.29 144.03 C 108.01 141.80 108.24 137.18 108.78 133.34 C 109.15 132.98 109.90 132.25 110.27 131.89 C 111.69 132.26 113.12 132.55 114.55 132.89 C 114.45 135.59 113.32 138.05 111.85 140.27 C 112.43 141.94 112.77 143.76 113.83 145.21 C 115.49 146.72 117.60 147.58 119.58 148.58 C 120.45 151.43 120.87 154.39 121.05 157.37 C 120.28 157.51 119.52 157.66 118.76 157.81 C 117.26 156.62 115.69 155.53 114.13 154.43 C 115.44 154.14 116.74 153.86 118.05 153.57 C 114.20 150.36 109.71 148.07 105.08 146.19 C 105.46 150.93 104.85 155.82 106.48 160.39 C 107.58 164.64 110.09 168.35 111.19 172.60 C 110.63 172.50 109.52 172.28 108.96 172.18 C 105.86 165.57 103.13 158.77 101.29 151.70 C 100.29 147.48 97.06 144.28 95.91 140.12 C 95.05 137.29 94.45 134.38 93.44 131.59 Z" />
</g>
<g id="#d48c47ff">
<path fill="#d48c47" opacity="1.00" d=" M 131.61 141.23 C 133.90 138.34 136.03 135.33 138.32 132.46 C 138.96 134.60 139.34 136.82 139.13 139.07 C 138.37 141.67 137.20 144.12 136.28 146.67 C 134.52 145.04 132.97 143.20 131.61 141.23 Z" />
</g>
<g id="#ffe6a6ff">
<path fill="#ffe6a6" opacity="1.00" d=" M 64.57 143.72 C 65.12 140.28 65.46 136.71 67.20 133.62 C 69.50 135.90 72.54 137.04 75.63 137.76 C 77.85 138.44 80.16 138.82 82.31 139.69 C 84.84 141.78 87.38 144.30 87.97 147.68 C 83.43 148.96 78.62 149.05 73.96 148.58 C 70.33 148.21 67.37 145.85 64.57 143.72 Z" />
</g>
<g id="#e8c595ff">
<path fill="#e8c595" opacity="1.00" d=" M 75.63 137.76 C 81.38 137.80 87.22 137.56 92.52 135.07 C 93.59 138.25 94.53 141.48 94.91 144.82 C 92.60 145.79 90.31 146.81 87.97 147.68 C 87.38 144.30 84.84 141.78 82.31 139.69 C 80.16 138.82 77.85 138.44 75.63 137.76 Z" />
</g>
<g id="#db984aff">
<path fill="#db984a" opacity="1.00" d=" M 47.80 148.73 C 49.05 145.94 52.12 143.43 55.31 144.63 C 57.15 145.08 56.73 147.49 57.29 148.88 C 55.44 148.23 52.68 147.21 51.44 149.42 C 47.11 156.63 42.79 164.45 34.99 168.42 C 34.10 168.17 33.25 167.82 32.44 167.38 L 31.60 167.07 C 38.25 162.23 44.02 156.09 47.80 148.73 Z" />
</g>
<g id="#fff7b5ff">
<path fill="#fff7b5" opacity="1.00" d=" M 61.44 153.18 C 60.63 149.99 62.01 146.74 64.09 144.35 C 67.05 146.95 70.54 148.85 74.38 149.75 C 78.18 151.41 82.43 150.59 86.33 151.67 C 89.04 153.33 89.05 157.19 87.52 159.71 C 85.29 160.19 83.02 160.46 80.75 160.60 C 73.80 160.46 65.85 159.12 61.44 153.18 Z" />
</g>
<g id="#ffc158ff">
<path fill="#ffc158" opacity="1.00" d=" M 126.07 144.90 C 129.61 146.93 132.50 149.83 135.28 152.77 C 138.96 156.61 142.93 161.23 142.64 166.90 C 141.79 169.02 139.73 170.44 138.35 172.22 C 138.10 172.20 137.60 172.15 137.35 172.13 C 132.75 170.95 127.18 169.62 125.27 164.66 C 123.03 158.34 123.26 151.02 126.07 144.90 Z" />
</g>
<g id="#ba753bff">
<path fill="#ba753b" opacity="1.00" d=" M 105.08 146.19 C 109.71 148.07 114.20 150.36 118.05 153.57 C 116.74 153.86 115.44 154.14 114.13 154.43 C 115.69 155.53 117.26 156.62 118.76 157.81 C 120.93 161.48 121.85 165.93 124.99 168.99 C 126.45 170.76 128.65 172.17 129.32 174.43 C 128.69 178.71 128.27 183.03 128.90 187.35 C 128.42 188.79 127.92 190.23 127.53 191.71 C 126.33 196.23 125.54 200.84 124.69 205.44 L 124.17 204.61 C 124.51 199.90 125.43 195.19 124.78 190.46 C 123.81 193.19 123.09 196.00 122.57 198.85 C 121.33 195.81 119.82 192.87 117.87 190.23 C 113.89 184.77 111.42 178.42 108.96 172.18 C 109.52 172.28 110.63 172.50 111.19 172.60 C 110.09 168.35 107.58 164.64 106.48 160.39 C 104.85 155.82 105.46 150.93 105.08 146.19 Z" />
</g>
<g id="#debd92ff">
<path fill="#debd92" opacity="1.00" d=" M 89.76 148.29 C 91.84 147.57 93.85 146.45 96.09 146.34 C 98.84 148.18 99.69 151.51 99.90 154.61 C 98.71 155.21 97.54 155.83 96.35 156.42 C 96.00 154.53 95.83 152.58 95.17 150.77 C 94.06 148.94 91.58 148.94 89.76 148.29 Z" />
</g>
<g id="#b56f38ff">
<path fill="#b56f38" opacity="1.00" d=" M 51.44 149.42 C 52.68 147.21 55.44 148.23 57.29 148.88 C 57.72 149.20 58.58 149.84 59.01 150.16 C 58.56 150.80 57.67 152.08 57.22 152.72 C 52.01 159.80 46.06 167.84 36.76 169.32 C 36.32 169.21 35.44 169.01 35.00 168.90 L 34.99 168.42 C 42.79 164.45 47.11 156.63 51.44 149.42 Z" />
</g>
<g id="#f4d2a0ff">
<path fill="#f4d2a0" opacity="1.00" d=" M 74.38 149.75 C 79.51 149.28 84.83 150.15 89.76 148.29 C 91.58 148.94 94.06 148.94 95.17 150.77 C 95.83 152.58 96.00 154.53 96.35 156.42 C 93.51 157.79 90.55 158.86 87.52 159.71 C 89.05 157.19 89.04 153.33 86.33 151.67 C 82.43 150.59 78.18 151.41 74.38 149.75 Z" />
</g>
<g id="#fff275ff">
<path fill="#fff275" opacity="1.00" d=" M 58.24 153.02 C 58.65 153.01 59.48 153.00 59.89 152.99 C 58.88 160.96 56.54 168.74 56.25 176.80 C 56.10 178.88 56.03 180.99 56.34 183.07 C 55.19 184.51 54.96 186.34 55.11 188.12 C 54.65 188.25 53.72 188.52 53.26 188.65 C 52.82 185.01 52.22 181.35 50.73 177.97 C 52.10 176.54 53.41 175.04 54.74 173.56 C 54.88 166.85 54.79 160.05 57.06 153.63 C 57.35 153.48 57.94 153.18 58.24 153.02 Z" />
<path fill="#fff275" opacity="1.00" d=" M 42.27 191.37 C 43.25 187.13 45.93 183.17 49.11 180.15 C 48.49 185.33 44.17 188.98 43.23 194.04 C 41.87 198.54 43.14 203.44 41.22 207.79 C 39.43 203.75 40.15 199.06 41.32 194.94 C 42.06 193.89 42.41 192.65 42.27 191.37 Z" />
</g>
<g id="#fffebeff">
<path fill="#fffebe" opacity="1.00" d=" M 60.71 154.19 C 64.84 158.70 70.51 161.07 76.50 161.83 C 79.80 163.04 83.34 163.07 86.82 163.15 C 86.97 166.06 86.78 169.01 85.30 171.59 C 77.28 173.21 68.09 171.81 61.74 166.38 C 57.95 163.26 59.93 158.19 60.71 154.19 Z" />
</g>
<g id="#e1c197ff">
<path fill="#e1c197" opacity="1.00" d=" M 92.95 159.18 C 95.55 158.20 98.06 157.00 100.61 155.91 C 101.51 158.54 102.70 161.14 102.90 163.96 C 101.26 167.10 97.43 168.32 94.33 169.61 C 94.73 166.18 96.66 161.45 92.95 159.18 Z" />
</g>
<g id="#fedfaaff">
<path fill="#fedfaa" opacity="1.00" d=" M 87.17 160.78 C 89.13 160.37 91.03 159.75 92.95 159.18 C 96.66 161.45 94.73 166.18 94.33 169.61 C 92.16 170.35 89.96 171.03 87.73 171.59 C 87.13 171.59 85.91 171.59 85.30 171.59 C 86.78 169.01 86.97 166.06 86.82 163.15 C 83.34 163.07 79.80 163.04 76.50 161.83 C 80.07 161.60 83.67 161.57 87.17 160.78 Z" />
</g>
<g id="#b97840f1">
<path fill="#b97840" opacity="0.95" d=" M 147.12 161.12 C 147.45 162.44 147.80 163.75 148.07 165.10 C 149.15 169.14 145.36 171.29 142.33 172.84 C 141.89 172.74 140.99 172.53 140.54 172.43 C 143.29 169.08 147.12 165.80 147.12 161.12 Z" />
</g>
<g id="#ffffc2ff">
<path fill="#ffffc2" opacity="1.00" d=" M 58.86 163.93 C 64.05 172.68 75.42 174.08 84.66 173.36 C 86.02 173.73 87.38 174.11 88.73 174.51 C 88.49 177.68 87.62 180.75 86.50 183.72 C 82.98 184.26 79.42 184.43 75.87 184.63 C 70.05 182.19 62.98 181.34 58.93 175.88 C 55.72 172.51 58.16 167.81 58.86 163.93 Z" />
</g>
<g id="#6c5644cf">
<path fill="#6c5644" opacity="0.81" d=" M 148.07 165.10 C 148.24 166.70 148.48 168.31 148.94 169.86 C 146.88 171.21 144.98 172.78 143.26 174.55 C 141.09 173.37 140.96 175.81 140.41 177.35 C 140.71 177.39 141.31 177.47 141.61 177.51 L 140.23 177.42 L 140.00 179.20 L 139.62 178.91 C 139.99 177.04 140.34 175.17 140.67 173.30 C 138.90 173.69 137.15 174.16 135.42 174.69 C 136.07 173.84 136.71 172.98 137.35 172.13 C 137.60 172.15 138.10 172.20 138.35 172.22 C 138.90 172.27 139.99 172.38 140.54 172.43 C 140.99 172.53 141.89 172.74 142.33 172.84 C 145.36 171.29 149.15 169.14 148.07 165.10 Z" />
</g>
<g id="#fffad2ff">
<path fill="#fffad2" opacity="1.00" d=" M 26.22 164.89 C 28.38 165.42 28.86 167.47 28.83 169.40 C 28.37 169.71 27.44 170.32 26.98 170.63 L 26.19 171.13 C 25.86 169.06 26.07 166.96 26.22 164.89 Z" />
<path fill="#fffad2" opacity="1.00" d=" M 116.76 249.98 C 117.88 249.45 119.01 248.92 120.14 248.39 C 121.27 249.21 122.40 250.04 123.50 250.92 C 122.78 252.98 122.06 255.05 121.33 257.12 C 120.85 257.46 119.90 258.15 119.42 258.49 C 118.12 256.17 117.01 253.74 116.45 251.13 L 116.76 249.98 Z" />
</g>
<g id="#cdab8aff">
<path fill="#cdab8a" opacity="1.00" d=" M 100.03 168.35 C 101.37 167.61 102.67 166.80 103.99 166.02 C 105.33 168.91 107.09 171.70 107.74 174.86 C 106.72 176.47 104.70 177.19 103.18 178.28 C 102.49 174.93 104.00 169.99 100.03 168.35 Z" />
</g>
<g id="#d7c9bbfc">
<path fill="#d7c9bb" opacity="1.00" d=" M 29.02 168.28 C 29.72 168.07 31.11 167.65 31.80 167.44 C 32.42 167.84 33.65 168.64 34.27 169.04 C 34.45 171.30 31.86 172.15 30.57 173.56 C 30.71 172.59 30.98 170.65 31.12 169.69 C 30.60 169.34 29.55 168.63 29.02 168.28 Z" />
</g>
<g id="#e0bf99ff">
<path fill="#e0bf99" opacity="1.00" d=" M 92.70 171.45 C 95.22 170.61 97.70 169.63 100.03 168.35 C 104.00 169.99 102.49 174.93 103.18 178.28 C 100.78 179.74 98.19 180.84 95.52 181.68 C 96.84 178.73 96.93 175.48 96.76 172.30 C 95.41 172.00 94.06 171.72 92.70 171.45 Z" />
</g>
<g id="#f6d8a9ff">
<path fill="#f6d8a9" opacity="1.00" d=" M 91.07 171.82 C 91.48 171.73 92.29 171.54 92.70 171.45 C 94.06 171.72 95.41 172.00 96.76 172.30 C 96.93 175.48 96.84 178.73 95.52 181.68 C 92.59 182.67 89.58 183.41 86.50 183.72 C 87.62 180.75 88.49 177.68 88.73 174.51 C 87.38 174.11 86.02 173.73 84.66 173.36 C 86.81 172.94 88.94 172.37 91.07 171.82 Z" />
</g>
<g id="#feb957ff">
<path fill="#feb957" opacity="1.00" d=" M 130.88 173.70 C 132.41 173.93 133.96 174.13 135.42 174.69 C 136.66 176.24 137.97 177.78 139.62 178.91 L 140.00 179.20 C 140.49 179.70 141.46 180.68 141.95 181.17 C 139.51 180.87 137.07 180.58 134.62 180.35 C 134.11 186.37 132.97 192.98 128.12 197.12 C 127.89 195.32 127.67 193.52 127.53 191.71 C 127.92 190.23 128.42 188.79 128.90 187.35 C 130.93 183.08 130.78 178.31 130.88 173.70 Z" />
</g>
<g id="#e6d7bfff">
<path fill="#e6d7bf" opacity="1.00" d=" M 135.42 174.69 C 137.15 174.16 138.90 173.69 140.67 173.30 C 140.34 175.17 139.99 177.04 139.62 178.91 C 137.97 177.78 136.66 176.24 135.42 174.69 Z" />
</g>
<g id="#fffec5ff">
<path fill="#fffec5" opacity="1.00" d=" M 56.25 176.80 C 56.76 176.13 57.26 175.45 57.75 174.77 C 60.83 181.04 67.91 183.72 74.38 184.89 C 77.85 186.02 81.48 186.45 85.05 187.16 C 84.14 189.77 82.81 192.21 81.04 194.34 C 74.95 194.03 68.83 193.01 63.37 190.17 C 60.69 188.16 58.48 185.62 56.34 183.07 C 56.03 180.99 56.10 178.88 56.25 176.80 Z" />
</g>
<g id="#c8a587ff">
<path fill="#c8a587" opacity="1.00" d=" M 100.90 181.15 C 103.54 179.87 105.88 177.94 108.74 177.15 C 110.23 179.30 111.42 181.66 112.28 184.13 C 109.77 187.25 105.80 188.85 102.31 190.69 C 102.10 187.58 104.60 182.90 100.90 181.15 Z" />
</g>
<g id="#ffc25cff">
<path fill="#ffc25c" opacity="1.00" d=" M 49.11 180.15 C 49.55 179.36 50.09 178.63 50.73 177.97 C 52.22 181.35 52.82 185.01 53.26 188.65 C 53.72 188.52 54.65 188.25 55.11 188.12 C 55.20 190.09 55.36 192.06 55.59 194.02 C 55.77 195.83 56.06 197.62 56.33 199.42 C 53.02 199.71 51.52 203.31 49.41 205.42 C 46.50 208.42 46.51 212.75 47.12 216.61 C 44.30 214.30 42.67 211.05 41.22 207.79 C 43.14 203.44 41.87 198.54 43.23 194.04 C 44.17 188.98 48.49 185.33 49.11 180.15 Z" />
</g>
<g id="#dfbf9bff">
<path fill="#dfbf9b" opacity="1.00" d=" M 90.63 184.35 C 94.07 183.35 97.49 182.26 100.90 181.15 C 104.60 182.90 102.10 187.58 102.31 190.69 C 100.79 191.21 99.24 191.63 97.68 192.01 C 95.93 192.42 94.17 192.82 92.41 193.17 C 93.89 190.80 94.80 188.13 95.03 185.33 C 93.56 184.99 92.10 184.66 90.63 184.35 Z" />
</g>
<g id="#fffccdff">
<path fill="#fffccd" opacity="1.00" d=" M 56.15 185.27 C 58.66 185.51 59.25 189.34 61.56 190.49 C 65.41 193.16 69.71 195.31 74.44 195.77 C 73.08 198.07 71.25 200.02 68.96 201.41 C 64.42 199.47 60.20 196.80 57.13 192.86 C 54.97 191.00 54.96 187.66 56.15 185.27 Z" />
</g>
<g id="#f9ddaeff">
<path fill="#f9ddae" opacity="1.00" d=" M 74.38 184.89 C 79.80 185.87 85.21 184.58 90.63 184.35 C 92.10 184.66 93.56 184.99 95.03 185.33 C 94.80 188.13 93.89 190.80 92.41 193.17 C 88.65 193.80 84.84 194.13 81.04 194.34 C 82.81 192.21 84.14 189.77 85.05 187.16 C 81.48 186.45 77.85 186.02 74.38 184.89 Z" />
</g>
<g id="#c29a7fff">
<path fill="#c29a7f" opacity="1.00" d=" M 105.86 190.56 C 108.31 189.09 110.70 187.54 113.17 186.09 C 114.31 187.97 115.56 189.81 116.28 191.90 C 114.47 194.84 111.12 196.05 108.26 197.67 C 108.40 195.56 108.58 193.45 108.77 191.35 C 108.04 191.15 106.59 190.76 105.86 190.56 Z" />
</g>
<g id="#ca8744ff">
<path fill="#ca8744" opacity="1.00" d=" M 139.47 188.02 C 141.15 188.85 142.82 189.69 144.49 190.54 C 146.74 195.74 147.67 201.34 147.54 206.98 C 147.68 203.64 147.89 200.30 147.93 196.96 C 148.58 200.81 149.39 204.91 147.83 208.65 C 147.33 209.76 146.80 210.86 146.27 211.95 C 146.12 210.52 145.98 209.10 145.85 207.67 C 143.29 210.44 141.36 214.02 137.94 215.84 C 134.71 217.04 131.22 217.22 127.84 217.72 C 126.17 215.20 124.45 212.72 122.83 210.19 C 123.40 208.36 123.84 206.49 124.17 204.61 L 124.69 205.44 C 124.79 206.03 125.00 207.20 125.10 207.78 C 128.07 207.28 131.42 206.95 133.23 204.19 C 137.74 200.00 137.91 193.57 139.47 188.02 Z" />
</g>
<g id="#c2a771ff">
<path fill="#c2a771" opacity="1.00" d=" M 61.56 190.49 C 62.01 190.41 62.92 190.25 63.37 190.17 C 68.83 193.01 74.95 194.03 81.04 194.34 C 84.84 194.13 88.65 193.80 92.41 193.17 C 94.17 192.82 95.93 192.42 97.68 192.01 C 98.29 192.31 99.52 192.92 100.13 193.23 C 98.69 193.81 97.26 194.40 95.81 194.95 C 90.31 196.53 84.53 196.42 78.87 196.28 C 77.39 196.14 75.91 195.97 74.44 195.77 C 69.71 195.31 65.41 193.16 61.56 190.49 Z" />
</g>
<g id="#cdaa8dff">
<path fill="#cdaa8d" opacity="1.00" d=" M 100.13 193.23 C 102.08 192.43 104.02 191.60 105.86 190.56 C 106.59 190.76 108.04 191.15 108.77 191.35 C 108.58 193.45 108.40 195.56 108.26 197.67 C 104.54 200.06 100.40 201.61 96.13 202.66 C 97.17 200.22 98.20 197.78 99.19 195.32 C 98.34 195.23 96.65 195.05 95.81 194.95 C 97.26 194.40 98.69 193.81 100.13 193.23 Z" />
</g>
<g id="#fef6c7ff">
<path fill="#fef6c7" opacity="1.00" d=" M 55.73 192.33 C 59.74 197.03 63.98 201.94 70.17 203.73 C 69.83 205.52 69.48 207.31 69.11 209.09 C 67.79 208.45 66.48 207.81 65.15 207.20 C 62.55 204.45 60.22 201.27 56.70 199.61 L 56.33 199.42 C 56.06 197.62 55.77 195.83 55.59 194.02 L 55.73 192.33 Z" />
</g>
<g id="#bb8d73ff">
<path fill="#bb8d73" opacity="1.00" d=" M 110.27 198.29 C 112.89 196.73 115.34 194.89 117.72 192.99 C 118.42 194.59 119.12 196.20 119.83 197.80 C 116.79 201.36 113.28 204.54 109.02 206.56 C 109.64 203.84 110.68 201.12 110.27 198.29 Z" />
</g>
<g id="#e2c4a0ff">
<path fill="#e2c4a0" opacity="1.00" d=" M 78.87 196.28 C 84.53 196.42 90.31 196.53 95.81 194.95 C 96.65 195.05 98.34 195.23 99.19 195.32 C 98.20 197.78 97.17 200.22 96.13 202.66 C 89.78 204.28 83.03 205.21 76.56 203.76 C 81.84 203.72 86.75 201.50 90.02 197.34 C 86.31 196.94 82.58 196.64 78.87 196.28 Z" />
</g>
<g id="#fae2b3ff">
<path fill="#fae2b3" opacity="1.00" d=" M 74.44 195.77 C 75.91 195.97 77.39 196.14 78.87 196.28 C 82.58 196.64 86.31 196.94 90.02 197.34 C 86.75 201.50 81.84 203.72 76.56 203.76 C 75.08 203.52 73.60 203.26 72.13 202.94 C 71.06 202.46 70.01 201.93 68.96 201.41 C 71.25 200.02 73.08 198.07 74.44 195.77 Z" />
</g>
<g id="#e6a14dff">
<path fill="#e6a14d" opacity="1.00" d=" M 49.41 205.42 C 51.52 203.31 53.02 199.71 56.33 199.42 L 56.70 199.61 C 57.19 201.46 57.79 203.29 58.78 204.94 C 56.89 207.97 54.69 210.81 52.91 213.92 C 51.38 216.33 52.84 219.16 53.80 221.49 C 51.37 220.29 49.24 218.61 47.15 216.91 L 47.12 216.61 C 46.51 212.75 46.50 208.42 49.41 205.42 Z" />
</g>
<g id="#c79e84ff">
<path fill="#c79e84" opacity="1.00" d=" M 94.67 204.45 C 100.08 202.99 105.52 201.36 110.27 198.29 C 110.68 201.12 109.64 203.84 109.02 206.56 C 104.71 209.21 99.79 210.51 94.90 211.60 C 95.52 209.33 96.48 207.18 97.68 205.16 C 96.93 204.98 95.42 204.63 94.67 204.45 Z" />
</g>
<g id="#fbe6b8ff">
<path fill="#fbe6b8" opacity="1.00" d=" M 56.70 199.61 C 60.22 201.27 62.55 204.45 65.15 207.20 C 64.90 207.18 64.39 207.14 64.14 207.12 C 67.16 208.70 70.21 210.23 73.37 211.51 C 72.98 212.13 72.22 213.37 71.83 213.99 C 69.91 213.76 67.98 213.55 66.06 213.35 C 63.19 210.97 60.86 208.02 58.78 204.94 C 57.79 203.29 57.19 201.46 56.70 199.61 Z" />
</g>
<g id="#b9876fff">
<path fill="#b9876f" opacity="1.00" d=" M 103.61 210.34 C 110.17 208.38 115.87 204.23 120.40 199.16 C 121.32 200.85 122.72 203.16 120.93 204.82 C 116.04 210.41 109.68 215.73 102.07 216.57 C 102.61 216.81 103.67 217.28 104.21 217.52 C 97.62 219.83 90.50 219.67 83.67 218.73 C 88.81 218.09 93.94 217.34 99.04 216.45 C 97.74 216.15 96.45 215.86 95.15 215.58 C 96.07 214.75 96.99 213.93 97.91 213.10 C 97.38 213.01 96.31 212.84 95.77 212.75 C 98.33 211.77 100.96 211.01 103.61 210.34 Z" />
</g>
<g id="#e9d0acff">
<path fill="#e9d0ac" opacity="1.00" d=" M 70.17 203.73 C 74.02 204.03 77.78 205.01 81.60 205.52 C 81.20 207.87 79.98 209.94 78.75 211.95 C 75.41 211.46 72.10 210.70 69.11 209.09 C 69.48 207.31 69.83 205.52 70.17 203.73 Z" />
</g>
<g id="#b87539ff">
<path fill="#b87539" opacity="1.00" d=" M 52.91 213.92 C 54.69 210.81 56.89 207.97 58.78 204.94 C 60.86 208.02 63.19 210.97 66.06 213.35 L 65.61 213.71 C 63.15 215.79 61.07 218.26 59.36 220.98 C 61.15 222.18 62.82 223.72 64.96 224.28 C 69.84 224.71 75.58 224.36 78.54 219.84 C 79.68 220.09 80.83 220.31 81.98 220.51 C 79.59 227.23 77.73 234.11 75.95 241.00 C 75.00 244.82 72.99 248.24 70.62 251.33 C 70.11 250.76 69.60 250.19 69.09 249.61 C 73.69 242.17 71.81 233.28 72.61 225.04 C 69.01 225.02 65.41 225.03 61.81 225.11 C 60.99 224.52 60.17 223.93 59.35 223.35 C 58.98 224.26 58.59 225.17 58.20 226.08 C 60.17 222.86 55.83 222.43 53.80 221.49 C 52.84 219.16 51.38 216.33 52.91 213.92 Z" />
</g>
<g id="#d4b496ff">
<path fill="#d4b496" opacity="1.00" d=" M 81.60 205.52 C 85.98 205.43 90.31 204.74 94.67 204.45 C 95.42 204.63 96.93 204.98 97.68 205.16 C 96.48 207.18 95.52 209.33 94.90 211.60 C 89.60 212.68 84.09 212.85 78.75 211.95 C 79.98 209.94 81.20 207.87 81.60 205.52 Z" />
</g>
<g id="#bf977fff">
<path fill="#bf977f" opacity="1.00" d=" M 106.56 216.79 C 112.34 214.01 117.53 210.34 122.17 205.92 C 121.70 209.18 119.66 211.73 117.22 213.80 C 117.78 213.96 118.91 214.28 119.47 214.44 C 119.10 214.63 118.35 215.02 117.98 215.22 C 115.96 216.25 114.09 217.70 111.87 218.22 C 110.09 217.77 108.33 217.25 106.56 216.79 Z" />
</g>
<g id="#b77238ff">
<path fill="#b77238" opacity="1.00" d=" M 137.94 215.84 C 141.36 214.02 143.29 210.44 145.85 207.67 C 145.98 209.10 146.12 210.52 146.27 211.95 C 146.80 210.86 147.33 209.76 147.83 208.65 C 147.51 210.76 147.22 212.89 146.66 214.96 C 145.94 217.48 143.15 219.15 143.40 221.99 C 143.31 225.38 143.60 228.78 143.84 232.16 C 143.11 228.19 143.24 224.11 142.27 220.17 C 142.43 219.18 142.59 218.20 142.75 217.21 C 139.89 218.57 137.07 220.19 133.91 220.72 C 131.66 221.21 129.23 221.17 127.20 222.36 C 127.04 223.84 127.91 225.11 128.46 226.41 C 127.03 225.76 125.62 225.06 124.28 224.22 L 123.37 223.33 C 120.76 221.21 118.60 218.62 117.98 215.22 C 118.35 215.02 119.10 214.63 119.47 214.44 C 121.45 213.88 122.13 211.90 122.83 210.19 C 124.45 212.72 126.17 215.20 127.84 217.72 C 131.22 217.22 134.71 217.04 137.94 215.84 Z" />
</g>
<g id="#dfbc9aff">
<path fill="#dfbc9a" opacity="1.00" d=" M 73.37 211.51 C 77.71 212.53 82.11 213.42 86.58 213.60 C 85.15 214.18 83.74 214.82 82.33 215.46 C 82.84 215.89 83.34 216.31 83.85 216.74 C 81.17 216.83 78.48 217.01 75.81 217.34 C 78.41 217.89 81.03 218.43 83.67 218.73 C 90.50 219.67 97.62 219.83 104.21 217.52 C 104.79 217.34 105.97 216.97 106.56 216.79 C 108.33 217.25 110.09 217.77 111.87 218.22 C 102.48 222.10 91.87 221.96 81.98 220.51 C 80.83 220.31 79.68 220.09 78.54 219.84 C 73.89 218.61 69.59 216.37 65.61 213.71 L 66.06 213.35 C 67.98 213.55 69.91 213.76 71.83 213.99 C 72.22 213.37 72.98 212.13 73.37 211.51 Z" />
</g>
<g id="#cda488ff">
<path fill="#cda488" opacity="1.00" d=" M 86.58 213.60 C 89.65 213.41 92.74 213.31 95.77 212.75 C 96.31 212.84 97.38 213.01 97.91 213.10 C 96.99 213.93 96.07 214.75 95.15 215.58 C 96.45 215.86 97.74 216.15 99.04 216.45 C 93.94 217.34 88.81 218.09 83.67 218.73 C 81.03 218.43 78.41 217.89 75.81 217.34 C 78.48 217.01 81.17 216.83 83.85 216.74 C 83.34 216.31 82.84 215.89 82.33 215.46 C 83.74 214.82 85.15 214.18 86.58 213.60 Z" />
</g>
<g id="#cb8a44ff">
<path fill="#cb8a44" opacity="1.00" d=" M 142.27 220.17 C 143.24 224.11 143.11 228.19 143.84 232.16 L 144.00 232.96 C 145.46 239.15 145.78 245.86 143.18 251.80 C 142.50 251.24 141.14 250.11 140.47 249.55 C 142.15 241.57 138.85 233.69 140.21 225.73 C 140.61 225.41 141.00 225.10 141.39 224.78 C 139.98 223.24 141.83 221.65 142.27 220.17 Z" />
</g>
<g id="#fea948ff">
<path fill="#fea948" opacity="1.00" d=" M 59.35 223.35 C 60.17 223.93 60.99 224.52 61.81 225.11 C 61.33 226.14 60.84 227.17 60.36 228.20 C 63.07 230.19 66.69 230.58 69.20 232.80 C 69.98 238.02 70.73 243.74 68.23 248.64 C 65.87 247.06 63.13 247.40 60.81 248.79 C 58.85 247.76 56.87 246.80 54.84 245.94 C 54.33 245.28 53.83 244.62 53.33 243.97 C 54.16 239.21 55.14 234.47 56.06 229.73 C 56.72 228.49 57.56 227.34 58.20 226.08 C 58.59 225.17 58.98 224.26 59.35 223.35 Z" />
</g>
<g id="#ffab4aff">
<path fill="#ffab4a" opacity="1.00" d=" M 123.37 223.33 L 124.28 224.22 C 123.74 227.97 122.54 231.58 121.22 235.12 C 126.57 234.23 134.57 233.61 135.48 226.89 C 137.08 226.62 138.66 226.23 140.21 225.73 C 138.85 233.69 142.15 241.57 140.47 249.55 C 139.26 249.60 138.07 249.71 136.88 249.80 C 134.12 250.32 131.68 248.73 129.06 248.23 C 127.55 248.58 126.16 249.28 124.73 249.87 C 122.44 248.71 120.00 247.46 117.35 248.19 C 117.21 248.64 116.91 249.53 116.76 249.98 L 116.45 251.13 C 112.32 241.03 121.93 232.84 123.37 223.33 Z" />
</g>
<g id="#e9913bff">
<path fill="#e9913b" opacity="1.00" d=" M 61.81 225.11 C 65.41 225.03 69.01 225.02 72.61 225.04 C 71.81 233.28 73.69 242.17 69.09 249.61 C 68.88 249.37 68.45 248.88 68.23 248.64 C 70.73 243.74 69.98 238.02 69.20 232.80 C 66.69 230.58 63.07 230.19 60.36 228.20 C 60.84 227.17 61.33 226.14 61.81 225.11 Z" />
</g>
<g id="#ffba56ff">
<path fill="#ffba56" opacity="1.00" d=" M 47.43 246.44 C 48.18 240.04 51.95 234.49 56.06 229.73 C 55.14 234.47 54.16 239.21 53.33 243.97 C 53.83 244.62 54.33 245.28 54.84 245.94 C 54.72 246.38 54.50 247.24 54.39 247.67 L 53.88 249.66 C 51.75 248.55 49.60 247.47 47.43 246.44 Z" />
</g>
<g id="#f7eec8ff">
<path fill="#f7eec8" opacity="1.00" d=" M 47.43 246.44 C 49.60 247.47 51.75 248.55 53.88 249.66 C 53.64 250.47 53.37 251.28 53.05 252.08 C 52.32 252.90 51.58 253.71 50.82 254.52 C 50.22 255.14 49.02 256.38 48.42 257.00 C 46.59 253.76 47.64 249.95 47.43 246.44 Z" />
</g>
<g id="#ffeec2ff">
<path fill="#ffeec2" opacity="1.00" d=" M 54.39 247.67 C 56.51 246.97 59.20 248.00 59.77 250.28 C 59.99 252.35 58.51 254.05 57.75 255.86 L 57.26 256.81 C 56.15 257.65 55.05 258.50 53.92 259.33 C 53.65 256.91 53.36 254.49 53.05 252.08 C 53.37 251.28 53.64 250.47 53.88 249.66 L 54.39 247.67 Z" />
</g>
<g id="#fef3c8ff">
<path fill="#fef3c8" opacity="1.00" d=" M 61.50 248.61 C 63.65 248.18 65.99 247.96 67.71 249.64 C 66.14 252.00 64.74 254.46 63.47 256.99 C 63.06 257.32 62.25 257.98 61.84 258.31 C 61.71 256.36 61.65 254.42 61.60 252.47 C 61.56 251.18 61.53 249.89 61.50 248.61 Z" />
</g>
<g id="#fdecc2ff">
<path fill="#fdecc2" opacity="1.00" d=" M 124.98 252.46 C 125.86 250.84 127.10 249.30 129.09 249.14 C 131.68 249.49 132.81 251.99 133.86 254.04 C 132.36 256.17 131.23 258.56 129.47 260.50 C 127.08 262.14 126.55 257.73 126.04 256.11 C 125.96 255.44 125.80 254.09 125.72 253.42 L 124.98 252.46 Z" />
</g>
<g id="#fbfbd2fd">
<path fill="#fbfbd2" opacity="1.00" d=" M 136.88 249.80 C 138.29 250.01 139.71 250.22 141.12 250.55 C 139.95 253.40 138.87 256.31 138.09 259.30 L 137.82 260.22 C 136.55 259.71 135.98 258.87 136.11 257.69 C 136.28 256.66 135.99 255.78 135.24 255.03 L 134.48 253.29 C 135.30 252.13 136.09 250.97 136.88 249.80 Z" />
</g>
<g id="#847770c9">
<path fill="#847770" opacity="0.79" d=" M 123.50 250.92 C 124.01 251.41 124.50 251.92 124.98 252.46 L 125.72 253.42 C 125.80 254.09 125.96 255.44 126.04 256.11 C 125.87 255.33 125.53 253.78 125.36 253.00 C 122.91 254.53 122.49 259.77 118.98 258.80 L 119.42 258.49 C 119.90 258.15 120.85 257.46 121.33 257.12 C 122.06 255.05 122.78 252.98 123.50 250.92 Z" />
</g>
<g id="#b49e91ed">
<path fill="#b49e91" opacity="0.93" d=" M 141.12 250.55 C 141.64 250.93 142.68 251.68 143.20 252.06 C 142.96 252.55 142.48 253.53 142.24 254.02 C 141.33 256.11 139.76 257.78 138.09 259.30 C 138.87 256.31 139.95 253.40 141.12 250.55 Z" />
</g>
<g id="#6260579a">
<path fill="#626057" opacity="0.60" d=" M 135.24 255.03 C 135.99 255.78 136.28 256.66 136.11 257.69 C 134.47 257.44 134.18 256.55 135.24 255.03 Z" />
</g>
</svg>
