<?xml version="1.0" encoding="UTF-8" ?>
<!DOCTYPE svg PUBLIC "-//W3C//DTD SVG 1.1//EN" "http://www.w3.org/Graphics/SVG/1.1/DTD/svg11.dtd">
<svg width="174pt" height="206pt" viewBox="0 0 174 206" version="1.1" xmlns="http://www.w3.org/2000/svg">
<g id="#dedeffff">
<path fill="#dedeff" opacity="1.00" d=" M 47.79 5.05 C 48.42 4.88 49.69 4.55 50.32 4.38 C 51.08 6.29 51.88 8.19 52.80 10.03 C 51.93 12.48 50.78 14.82 49.26 16.94 C 49.94 12.89 48.64 8.96 47.79 5.05 Z" />
</g>
<g id="#dfe0feff">
<path fill="#dfe0fe" opacity="1.00" d=" M 81.35 5.56 C 84.47 4.58 87.72 4.83 90.80 5.87 C 87.34 8.86 85.58 13.06 85.04 17.54 L 84.61 17.54 C 82.76 17.54 80.91 17.56 79.06 17.59 C 77.80 16.10 76.55 14.59 75.41 13.00 L 76.46 11.75 C 78.21 9.78 79.64 7.56 81.35 5.56 Z" />
</g>
<g id="#fff9ffff">
<path fill="#fff9ff" opacity="1.00" d=" M 49.26 16.94 C 50.78 14.82 51.93 12.48 52.80 10.03 C 53.33 10.82 53.86 11.61 54.40 12.40 C 61.26 9.33 69.47 8.80 76.46 11.75 L 75.41 13.00 C 70.62 15.56 65.46 17.40 60.13 18.40 C 55.50 19.04 51.58 22.86 46.72 21.48 C 47.49 19.92 48.27 18.37 49.26 16.94 Z" />
</g>
<g id="#ebefffff">
<path fill="#ebefff" opacity="1.00" d=" M 60.13 18.40 C 65.46 17.40 70.62 15.56 75.41 13.00 C 76.55 14.59 77.80 16.10 79.06 17.59 C 80.91 17.56 82.76 17.54 84.61 17.54 C 84.70 19.37 84.79 21.21 85.22 23.00 C 85.57 27.30 85.19 31.69 83.65 35.75 C 82.66 33.91 81.80 32.00 81.09 30.03 C 74.60 26.39 67.28 29.54 61.26 32.59 C 60.85 32.95 60.02 33.67 59.61 34.03 C 55.68 30.73 52.12 26.40 46.71 25.68 C 46.42 25.47 45.83 25.06 45.54 24.86 C 45.96 23.74 46.34 22.61 46.72 21.48 C 51.58 22.86 55.50 19.04 60.13 18.40 Z" />
</g>
<g id="#c1b4d5ff">
<path fill="#c1b4d5" opacity="1.00" d=" M 45.54 24.86 C 45.83 25.06 46.42 25.47 46.71 25.68 C 49.35 28.26 52.24 30.61 54.72 33.35 C 54.29 34.91 53.85 36.47 53.41 38.02 C 52.37 37.59 51.33 37.16 50.29 36.74 C 49.69 34.99 49.09 33.23 48.44 31.50 C 48.27 32.15 47.93 33.45 47.76 34.11 C 46.79 31.09 45.60 28.07 45.54 24.86 Z" />
</g>
<g id="#d9d1feff">
<path fill="#d9d1fe" opacity="1.00" d=" M 46.71 25.68 C 52.12 26.40 55.68 30.73 59.61 34.03 C 59.83 35.97 60.00 38.16 62.11 39.00 C 61.87 36.85 61.58 34.72 61.26 32.59 C 67.28 29.54 74.60 26.39 81.09 30.03 C 81.80 32.00 82.66 33.91 83.65 35.75 C 83.46 36.50 83.27 37.24 83.09 37.99 C 81.06 37.38 79.03 36.78 77.00 36.19 C 76.76 34.63 76.53 33.07 76.34 31.50 C 76.45 31.11 76.67 30.31 76.78 29.91 C 72.05 32.32 66.90 34.43 63.58 38.80 C 62.39 39.69 61.20 40.58 60.00 41.46 C 58.75 40.16 57.50 38.88 56.35 37.50 C 55.78 36.13 55.27 34.73 54.72 33.35 C 52.24 30.61 49.35 28.26 46.71 25.68 Z" />
</g>
<g id="#604777ff">
<path fill="#604777" opacity="1.00" d=" M 63.58 38.80 C 66.90 34.43 72.05 32.32 76.78 29.91 C 76.67 30.31 76.45 31.11 76.34 31.50 C 76.22 31.91 75.99 32.73 75.87 33.14 L 75.12 31.87 C 73.86 32.52 72.64 33.22 71.41 33.92 C 71.48 34.89 71.60 36.84 71.66 37.81 C 70.31 37.26 68.97 36.69 67.63 36.12 C 66.80 36.66 65.96 37.21 65.13 37.75 C 64.74 38.01 63.97 38.54 63.58 38.80 Z" />
<path fill="#604777" opacity="1.00" d=" M 72.93 38.82 C 73.39 38.46 74.32 37.73 74.78 37.37 L 74.46 38.49 C 72.97 41.68 69.45 40.42 67.23 38.83 C 69.13 38.85 71.03 38.88 72.93 38.82 Z" />
<path fill="#604777" opacity="1.00" d=" M 57.67 98.72 C 61.47 94.88 67.34 94.71 72.33 95.59 C 76.17 96.15 78.51 99.46 81.00 102.06 C 81.08 101.39 81.23 100.03 81.31 99.36 C 81.35 99.11 81.43 98.62 81.47 98.37 C 81.42 100.76 81.41 103.16 81.54 105.56 C 81.29 105.18 80.81 104.43 80.57 104.05 C 78.81 101.57 77.13 98.85 74.47 97.23 C 69.09 94.75 61.88 95.43 57.99 100.26 C 54.87 102.93 53.56 106.82 53.35 110.82 C 53.36 108.54 53.44 106.27 53.21 104.00 C 54.65 102.21 56.08 100.39 57.67 98.72 Z" />
<path fill="#604777" opacity="1.00" d=" M 48.88 137.84 C 49.35 137.73 50.29 137.50 50.76 137.38 C 53.81 142.34 58.28 146.24 61.20 151.28 C 57.80 150.15 54.65 151.61 52.23 153.96 C 50.28 151.25 49.16 148.06 47.20 145.35 C 47.55 144.29 47.84 143.21 48.08 142.13 C 48.39 140.71 48.64 139.27 48.88 137.84 Z" />
<path fill="#604777" opacity="1.00" d=" M 76.42 150.29 C 79.93 147.65 83.07 144.25 83.95 139.80 C 85.19 145.33 91.41 147.65 93.21 153.00 C 92.84 152.63 92.11 151.87 91.74 151.49 C 91.11 150.75 90.51 149.99 89.89 149.25 C 88.61 147.76 87.19 145.98 85.03 145.95 C 82.63 147.35 80.78 149.45 78.65 151.19 L 78.41 151.16 C 77.91 150.94 76.92 150.51 76.42 150.29 Z" />
</g>
<g id="#e7e6efff">
<path fill="#e7e6ef" opacity="1.00" d=" M 48.44 31.50 C 49.09 33.23 49.69 34.99 50.29 36.74 C 51.33 37.16 52.37 37.59 53.41 38.02 C 51.76 38.10 50.12 38.18 48.48 38.26 C 48.24 36.87 47.91 35.50 47.76 34.11 C 47.93 33.45 48.27 32.15 48.44 31.50 Z" />
</g>
<g id="#ffffffff">
<path fill="#ffffff" opacity="1.00" d=" M 71.41 33.92 C 72.64 33.22 73.86 32.52 75.12 31.87 L 75.87 33.14 C 75.51 34.55 75.17 35.97 74.78 37.37 C 74.32 37.73 73.39 38.46 72.93 38.82 C 71.03 38.88 69.13 38.85 67.23 38.83 C 66.71 38.56 65.66 38.02 65.13 37.75 C 65.96 37.21 66.80 36.66 67.63 36.12 C 68.97 36.69 70.31 37.26 71.66 37.81 C 71.60 36.84 71.48 34.89 71.41 33.92 Z" />
</g>
<g id="#c2b5dfff">
<path fill="#c2b5df" opacity="1.00" d=" M 75.87 33.14 C 75.99 32.73 76.22 31.91 76.34 31.50 C 76.53 33.07 76.76 34.63 77.00 36.19 C 79.03 36.78 81.06 37.38 83.09 37.99 C 82.28 39.99 81.29 42.10 79.38 43.28 C 72.43 41.85 65.36 42.88 58.68 44.99 C 58.27 45.11 57.44 45.33 57.03 45.45 C 56.11 43.42 55.19 41.40 54.27 39.38 C 54.79 38.91 55.83 37.97 56.35 37.50 C 57.50 38.88 58.75 40.16 60.00 41.46 C 61.20 40.58 62.39 39.69 63.58 38.80 C 63.97 38.54 64.74 38.01 65.13 37.75 C 65.66 38.02 66.71 38.56 67.23 38.83 C 69.45 40.42 72.97 41.68 74.46 38.49 L 74.78 37.37 C 75.17 35.97 75.51 34.55 75.87 33.14 Z" />
</g>
<g id="#a79fcfff">
<path fill="#a79fcf" opacity="1.00" d=" M 59.61 34.03 C 60.02 33.67 60.85 32.95 61.26 32.59 C 61.58 34.72 61.87 36.85 62.11 39.00 C 60.00 38.16 59.83 35.97 59.61 34.03 Z" />
</g>
<g id="#9889baff">
<path fill="#9889ba" opacity="1.00" d=" M 53.41 38.02 C 53.85 36.47 54.29 34.91 54.72 33.35 C 55.27 34.73 55.78 36.13 56.35 37.50 C 55.83 37.97 54.79 38.91 54.27 39.38 C 55.19 41.40 56.11 43.42 57.03 45.45 C 57.44 45.33 58.27 45.11 58.68 44.99 C 63.90 46.51 69.21 44.51 74.50 44.60 C 72.01 48.58 70.37 53.02 67.82 56.97 C 67.37 55.15 66.93 53.31 66.51 51.48 C 65.45 53.18 64.35 54.86 63.21 56.52 C 63.04 56.26 62.72 55.74 62.56 55.48 C 62.73 53.92 62.98 52.38 63.21 50.83 C 66.16 49.94 69.04 48.77 71.53 46.92 C 67.50 46.44 63.28 46.35 59.54 48.17 L 58.72 48.48 C 54.13 46.80 48.90 43.66 48.48 38.26 C 50.12 38.18 51.76 38.10 53.41 38.02 Z" />
</g>
<g id="#a895c6ff">
<path fill="#a895c6" opacity="1.00" d=" M 58.68 44.99 C 65.36 42.88 72.43 41.85 79.38 43.28 C 78.35 43.95 77.31 44.58 76.33 45.32 C 75.22 47.70 74.97 50.42 73.52 52.67 C 74.10 52.62 75.27 52.53 75.86 52.48 C 76.37 52.90 77.39 53.75 77.90 54.17 C 70.77 60.77 59.74 59.21 51.78 55.06 C 51.75 54.18 51.71 53.31 51.67 52.44 C 52.60 51.99 53.52 51.55 54.44 51.10 C 56.34 52.17 58.42 52.86 60.64 52.63 C 61.28 53.57 61.92 54.52 62.56 55.48 C 62.72 55.74 63.04 56.26 63.21 56.52 C 64.35 54.86 65.45 53.18 66.51 51.48 C 66.93 53.31 67.37 55.15 67.82 56.97 C 70.37 53.02 72.01 48.58 74.50 44.60 C 69.21 44.51 63.90 46.51 58.68 44.99 Z" />
</g>
<g id="#6f6798ff">
<path fill="#6f6798" opacity="1.00" d=" M 59.54 48.17 C 63.28 46.35 67.50 46.44 71.53 46.92 C 69.04 48.77 66.16 49.94 63.21 50.83 C 62.98 52.38 62.73 53.92 62.56 55.48 C 61.92 54.52 61.28 53.57 60.64 52.63 C 60.56 51.08 60.16 49.58 59.54 48.17 Z" />
</g>
<g id="#cbbee2ff">
<path fill="#cbbee2" opacity="1.00" d=" M 44.83 50.82 C 47.50 48.14 51.39 50.30 54.44 51.10 C 53.52 51.55 52.60 51.99 51.67 52.44 C 51.71 53.31 51.75 54.18 51.78 55.06 C 51.79 55.84 51.81 57.40 51.81 58.18 C 50.80 58.35 49.78 58.53 48.77 58.70 C 48.40 60.22 48.03 61.74 47.66 63.26 C 47.39 62.61 46.86 61.32 46.59 60.68 C 46.08 59.51 45.55 58.35 45.02 57.19 C 42.98 58.63 40.96 60.09 39.14 61.80 C 40.45 57.83 43.27 54.67 44.83 50.82 Z" />
</g>
<g id="#b8b3eaff">
<path fill="#b8b3ea" opacity="1.00" d=" M 75.36 52.06 C 79.13 50.87 83.22 49.99 86.96 51.84 L 86.69 51.89 C 86.09 52.01 84.88 52.23 84.28 52.35 C 83.63 54.76 83.70 57.71 81.59 59.41 C 78.75 62.06 75.07 63.43 71.47 64.67 C 71.08 66.61 70.55 68.52 69.86 70.37 C 69.01 67.74 68.17 65.10 67.17 62.52 C 66.47 65.31 65.89 68.19 64.44 70.72 C 63.96 67.97 63.68 65.19 63.44 62.41 C 59.37 61.64 55.17 60.79 51.81 58.18 C 51.81 57.40 51.79 55.84 51.78 55.06 C 59.74 59.21 70.77 60.77 77.90 54.17 C 77.39 53.75 76.37 52.90 75.86 52.48 L 75.36 52.06 Z" />
</g>
<g id="#cbccffff">
<path fill="#cbccff" opacity="1.00" d=" M 84.28 52.35 C 84.88 52.23 86.09 52.01 86.69 51.89 C 87.53 55.03 90.43 56.83 91.84 59.58 C 92.84 63.47 95.12 66.89 95.92 70.84 C 92.07 68.49 90.06 64.24 86.61 61.48 C 83.69 60.64 84.94 65.38 84.52 67.12 C 83.96 69.42 83.21 71.68 82.56 73.96 L 81.50 74.36 C 76.60 75.12 71.88 73.03 66.99 73.23 C 62.95 73.13 59.02 74.57 54.99 74.30 C 50.62 72.35 49.35 67.30 47.66 63.26 C 48.03 61.74 48.40 60.22 48.77 58.70 C 49.78 58.53 50.80 58.35 51.81 58.18 C 55.17 60.79 59.37 61.64 63.44 62.41 C 63.68 65.19 63.96 67.97 64.44 70.72 C 65.89 68.19 66.47 65.31 67.17 62.52 C 68.17 65.10 69.01 67.74 69.86 70.37 C 70.55 68.52 71.08 66.61 71.47 64.67 C 75.07 63.43 78.75 62.06 81.59 59.41 C 83.70 57.71 83.63 54.76 84.28 52.35 Z" />
</g>
<g id="#bdb3daff">
<path fill="#bdb3da" opacity="1.00" d=" M 39.14 61.80 C 40.96 60.09 42.98 58.63 45.02 57.19 C 45.55 58.35 46.08 59.51 46.59 60.68 C 41.93 65.10 39.32 71.08 37.02 76.96 C 35.68 80.30 35.40 83.91 35.26 87.47 C 30.25 93.09 25.68 99.04 21.41 105.24 C 21.47 103.86 21.32 102.38 22.06 101.14 C 24.94 95.51 29.38 90.86 32.35 85.29 C 33.51 83.68 31.93 82.11 31.38 80.61 C 31.40 78.92 31.45 77.23 31.53 75.55 L 31.53 75.52 C 34.90 71.46 36.24 66.17 39.14 61.80 Z" />
</g>
<g id="#d6d9feff">
<path fill="#d6d9fe" opacity="1.00" d=" M 91.84 59.58 C 93.92 61.61 95.85 63.79 97.85 65.91 L 97.86 65.97 C 98.62 70.87 103.38 73.23 106.21 76.82 C 110.89 82.54 113.50 89.56 116.95 96.02 C 118.96 99.50 118.62 103.63 119.58 107.41 C 120.89 109.11 123.14 109.75 124.71 111.18 C 125.91 113.85 126.52 116.73 127.59 119.45 C 127.77 117.59 127.98 115.74 128.05 113.88 C 128.28 114.41 128.75 115.49 128.99 116.03 C 129.76 116.92 130.46 117.87 131.26 118.74 C 131.10 120.56 130.96 122.37 130.77 124.19 C 130.47 125.54 129.89 127.86 128.00 127.34 C 125.07 127.50 123.02 125.38 121.26 123.38 C 121.87 121.59 122.44 119.80 122.97 117.99 C 121.62 116.89 120.27 115.80 118.87 114.78 C 118.27 114.65 117.06 114.39 116.46 114.26 C 114.93 114.00 113.39 113.81 111.85 113.62 C 112.40 112.19 112.83 110.71 113.25 109.24 C 114.05 106.62 114.76 103.98 115.39 101.32 C 111.35 94.39 107.84 87.16 103.62 80.34 C 101.47 76.84 97.99 74.40 95.92 70.84 C 95.12 66.89 92.84 63.47 91.84 59.58 Z" />
</g>
<g id="#9e93b8ff">
<path fill="#9e93b8" opacity="1.00" d=" M 37.02 76.96 C 39.32 71.08 41.93 65.10 46.59 60.68 C 46.86 61.32 47.39 62.61 47.66 63.26 C 49.35 67.30 50.62 72.35 54.99 74.30 C 59.02 74.57 62.95 73.13 66.99 73.23 C 71.88 73.03 76.60 75.12 81.50 74.36 C 80.42 75.06 79.38 75.80 78.38 76.61 C 72.21 74.53 65.55 73.88 59.25 75.79 C 57.95 76.09 56.65 76.42 55.35 76.74 C 54.20 75.90 53.01 75.11 51.83 74.32 C 51.75 75.28 51.60 77.19 51.53 78.15 C 49.59 75.19 49.64 71.51 48.24 68.34 C 46.95 68.06 46.28 69.74 45.40 70.42 C 41.53 75.80 39.82 82.55 35.26 87.47 C 35.40 83.91 35.68 80.30 37.02 76.96 Z" />
</g>
<g id="#a89ecaff">
<path fill="#a89eca" opacity="1.00" d=" M 84.52 67.12 C 84.94 65.38 83.69 60.64 86.61 61.48 C 90.06 64.24 92.07 68.49 95.92 70.84 C 97.99 74.40 101.47 76.84 103.62 80.34 C 107.84 87.16 111.35 94.39 115.39 101.32 C 114.76 103.98 114.05 106.62 113.25 109.24 C 115.60 100.25 108.06 93.45 103.49 86.70 C 103.00 81.81 99.12 78.39 96.06 74.92 C 93.76 72.58 91.92 69.81 89.49 67.60 C 88.38 67.02 87.38 68.09 86.37 68.37 C 85.76 67.94 85.14 67.53 84.52 67.12 Z" />
</g>
<g id="#827aa1ea">
<path fill="#827aa1" opacity="0.92" d=" M 86.37 68.37 C 87.38 68.09 88.38 67.02 89.49 67.60 C 91.92 69.81 93.76 72.58 96.06 74.92 C 99.12 78.39 103.00 81.81 103.49 86.70 C 98.04 80.38 93.16 73.38 86.37 68.37 Z" />
</g>
<g id="#ebebffff">
<path fill="#ebebff" opacity="1.00" d=" M 97.86 65.97 C 101.78 69.45 106.03 72.61 109.79 76.25 C 114.72 84.81 117.77 94.43 123.71 102.43 C 126.33 105.70 126.83 109.99 128.05 113.88 C 127.98 115.74 127.77 117.59 127.59 119.45 C 126.52 116.73 125.91 113.85 124.71 111.18 C 123.14 109.75 120.89 109.11 119.58 107.41 C 118.62 103.63 118.96 99.50 116.95 96.02 C 113.50 89.56 110.89 82.54 106.21 76.82 C 103.38 73.23 98.62 70.87 97.86 65.97 Z" />
</g>
<g id="#d9cdf1ff">
<path fill="#d9cdf1" opacity="1.00" d=" M 81.50 74.36 L 82.56 73.96 C 81.42 77.64 79.56 81.17 79.45 85.09 C 78.93 88.29 80.28 91.34 81.47 94.23 C 84.43 95.24 87.22 96.72 89.67 98.67 C 86.94 98.75 84.20 98.59 81.47 98.37 C 81.43 98.62 81.35 99.11 81.31 99.36 C 80.43 98.67 79.55 98.01 78.66 97.35 C 76.82 90.70 73.58 82.80 78.38 76.61 C 79.38 75.80 80.42 75.06 81.50 74.36 Z" />
</g>
<g id="#bbadceff">
<path fill="#bbadce" opacity="1.00" d=" M 51.83 74.32 C 53.01 75.11 54.20 75.90 55.35 76.74 C 58.32 82.72 56.76 89.43 55.73 95.68 C 54.96 95.27 54.19 94.87 53.42 94.47 C 52.98 94.94 52.09 95.89 51.65 96.36 C 51.58 95.85 51.44 94.81 51.36 94.29 C 52.91 89.04 54.13 83.31 51.53 78.15 C 51.60 77.19 51.75 75.28 51.83 74.32 Z" />
</g>
<g id="#d0d4ffff">
<path fill="#d0d4ff" opacity="1.00" d=" M 59.25 75.79 C 65.55 73.88 72.21 74.53 78.38 76.61 C 73.58 82.80 76.82 90.70 78.66 97.35 C 79.55 98.01 80.43 98.67 81.31 99.36 C 81.23 100.03 81.08 101.39 81.00 102.06 C 78.51 99.46 76.17 96.15 72.33 95.59 C 67.34 94.71 61.47 94.88 57.67 98.72 C 59.46 93.65 59.94 88.25 60.98 83.00 C 61.61 80.43 60.22 78.06 59.25 75.79 Z" />
</g>
<g id="#d1d0ffff">
<path fill="#d1d0ff" opacity="1.00" d=" M 31.53 75.55 C 31.45 77.23 31.40 78.92 31.38 80.61 C 31.93 82.11 33.51 83.68 32.35 85.29 C 29.38 90.86 24.94 95.51 22.06 101.14 C 21.32 102.38 21.47 103.86 21.41 105.24 C 21.39 106.63 21.36 108.02 21.33 109.42 L 20.72 109.75 C 19.14 110.61 17.56 111.47 15.93 112.24 C 16.53 107.81 16.70 103.36 16.97 98.91 C 22.37 91.45 25.19 82.35 31.53 75.55 Z" />
</g>
<g id="#c6c1f1ff">
<path fill="#c6c1f1" opacity="1.00" d=" M 55.35 76.74 C 56.65 76.42 57.95 76.09 59.25 75.79 C 60.22 78.06 61.61 80.43 60.98 83.00 C 59.94 88.25 59.46 93.65 57.67 98.72 C 56.08 100.39 54.65 102.21 53.21 104.00 C 52.73 101.45 52.10 98.92 51.65 96.36 C 52.09 95.89 52.98 94.94 53.42 94.47 C 54.19 94.87 54.96 95.27 55.73 95.68 C 56.76 89.43 58.32 82.72 55.35 76.74 Z" />
</g>
<g id="#d6d6ffff">
<path fill="#d6d6ff" opacity="1.00" d=" M 27.16 120.50 C 31.60 109.17 40.22 99.36 51.36 94.29 C 51.44 94.81 51.58 95.85 51.65 96.36 C 52.10 98.92 52.73 101.45 53.21 104.00 C 53.44 106.27 53.36 108.54 53.35 110.82 C 53.00 113.22 52.63 115.63 52.29 118.05 C 51.55 117.46 50.82 116.88 50.08 116.30 C 47.72 119.20 45.49 122.20 43.10 125.06 C 40.50 128.34 36.46 129.80 32.89 131.71 C 31.36 127.78 29.59 123.95 27.16 120.50 Z" />
</g>
<g id="#b08fd9ff">
<path fill="#b08fd9" opacity="1.00" d=" M 57.99 100.26 C 61.88 95.43 69.09 94.75 74.47 97.23 C 77.13 98.85 78.81 101.57 80.57 104.05 C 78.23 112.58 78.30 121.70 74.98 129.98 C 74.07 132.46 71.34 133.17 69.21 134.24 C 63.71 130.59 61.51 124.12 60.14 117.98 C 58.87 112.14 59.76 106.03 57.99 100.26 Z" />
</g>
<g id="#d6d9ffff">
<path fill="#d6d9ff" opacity="1.00" d=" M 81.47 98.37 C 84.20 98.59 86.94 98.75 89.67 98.67 C 90.67 99.45 91.66 100.25 92.60 101.10 C 92.64 103.40 93.20 105.65 94.18 107.74 C 96.75 113.24 97.21 119.44 99.87 124.92 C 103.08 132.05 104.87 139.85 103.86 147.69 C 102.95 148.18 102.05 148.67 101.15 149.17 C 99.24 148.46 97.50 147.33 96.68 145.40 C 94.24 140.61 90.39 136.67 88.37 131.66 C 87.19 128.82 85.98 125.99 84.62 123.22 C 84.16 123.70 83.24 124.65 82.78 125.13 C 82.42 118.60 82.16 112.06 81.54 105.56 C 81.41 103.16 81.42 100.76 81.47 98.37 Z" />
</g>
<g id="#eaddfeff">
<path fill="#eaddfe" opacity="1.00" d=" M 11.96 106.18 C 13.52 103.68 15.25 101.30 16.97 98.91 C 16.70 103.36 16.53 107.81 15.93 112.24 C 14.82 111.62 13.73 110.97 12.64 110.32 C 11.94 113.92 11.53 117.57 10.67 121.13 C 10.12 121.08 9.02 120.97 8.48 120.91 C 9.58 116.00 9.30 110.62 11.96 106.18 Z" />
</g>
<g id="#9e7cbaff">
<path fill="#9e7cba" opacity="1.00" d=" M 53.35 110.82 C 53.56 106.82 54.87 102.93 57.99 100.26 C 59.76 106.03 58.87 112.14 60.14 117.98 C 61.51 124.12 63.71 130.59 69.21 134.24 C 71.34 133.17 74.07 132.46 74.98 129.98 C 78.30 121.70 78.23 112.58 80.57 104.05 C 80.81 104.43 81.29 105.18 81.54 105.56 C 82.16 112.06 82.42 118.60 82.78 125.13 C 82.91 127.62 83.00 130.13 83.32 132.61 C 80.04 137.91 75.03 143.83 68.18 143.40 C 61.94 141.63 58.69 135.54 55.76 130.27 C 54.94 128.18 52.65 127.89 50.78 127.28 C 51.32 124.21 51.84 121.13 52.29 118.05 C 52.63 115.63 53.00 113.22 53.35 110.82 Z" />
</g>
<g id="#ece6ffff">
<path fill="#ece6ff" opacity="1.00" d=" M 94.18 107.74 C 93.20 105.65 92.64 103.40 92.60 101.10 C 100.36 107.49 104.90 117.01 107.20 126.61 C 107.77 130.27 108.09 133.99 107.82 137.70 C 107.59 139.24 107.30 140.78 107.05 142.33 C 107.02 146.54 104.05 149.91 103.46 153.96 C 103.53 168.35 109.23 182.85 119.57 192.95 C 117.74 193.60 115.83 194.05 113.88 194.06 L 113.10 193.01 C 112.45 191.48 111.85 189.93 111.19 188.41 C 108.26 181.35 105.37 174.22 103.21 166.89 L 102.98 165.67 C 101.59 160.24 103.70 154.32 101.15 149.17 C 102.05 148.67 102.95 148.18 103.86 147.69 C 104.87 139.85 103.08 132.05 99.87 124.92 C 97.21 119.44 96.75 113.24 94.18 107.74 Z" />
</g>
<g id="#ada3ceff">
<path fill="#ada3ce" opacity="1.00" d=" M 12.64 110.32 C 13.73 110.97 14.82 111.62 15.93 112.24 C 17.56 111.47 19.14 110.61 20.72 109.75 C 20.72 111.12 20.71 112.50 20.69 113.87 C 19.12 113.29 17.51 112.83 15.92 112.34 C 14.86 113.50 13.80 114.66 12.74 115.82 C 14.80 118.18 17.63 119.42 20.61 120.16 C 20.81 120.32 21.21 120.65 21.41 120.82 C 23.54 123.05 22.66 126.69 20.23 128.30 C 19.17 128.32 18.12 128.35 17.06 128.38 C 15.73 129.08 14.51 130.43 12.85 130.17 C 10.85 129.58 9.43 127.98 8.23 126.38 C 10.93 127.05 13.76 128.28 16.57 127.48 C 17.65 126.67 18.25 125.40 18.72 124.18 C 16.54 122.14 13.50 121.59 10.67 121.13 C 11.53 117.57 11.94 113.92 12.64 110.32 Z" />
</g>
<g id="#cbcaffff">
<path fill="#cbcaff" opacity="1.00" d=" M 12.74 115.82 C 13.80 114.66 14.86 113.50 15.92 112.34 C 17.51 112.83 19.12 113.29 20.69 113.87 C 22.76 115.51 21.46 118.59 21.41 120.82 C 21.21 120.65 20.81 120.32 20.61 120.16 C 17.63 119.42 14.80 118.18 12.74 115.82 Z" />
</g>
<g id="#d6d2ffff">
<path fill="#d6d2ff" opacity="1.00" d=" M 111.85 113.62 C 113.39 113.81 114.93 114.00 116.46 114.26 C 116.60 115.60 116.81 116.93 117.10 118.25 C 116.92 118.82 116.58 119.96 116.41 120.52 C 115.79 120.88 114.56 121.59 113.95 121.95 C 112.07 120.61 110.20 119.27 108.32 117.94 C 109.46 116.47 110.73 115.11 111.85 113.62 Z" />
</g>
<g id="#c2bff4ff">
<path fill="#c2bff4" opacity="1.00" d=" M 50.08 116.30 C 50.82 116.88 51.55 117.46 52.29 118.05 C 51.84 121.13 51.32 124.21 50.78 127.28 C 50.67 127.91 50.43 129.17 50.32 129.80 C 46.61 131.75 43.16 134.20 40.42 137.42 C 38.43 139.91 35.28 140.92 32.24 141.40 C 31.88 141.30 31.17 141.10 30.81 140.99 C 31.37 138.56 32.62 136.42 34.42 134.70 C 33.90 133.71 33.36 132.72 32.89 131.71 C 36.46 129.80 40.50 128.34 43.10 125.06 C 45.49 122.20 47.72 119.20 50.08 116.30 Z" />
</g>
<g id="#a198bee5">
<path fill="#a198be" opacity="0.90" d=" M 108.32 117.94 C 110.20 119.27 112.07 120.61 113.95 121.95 C 114.56 121.59 115.79 120.88 116.41 120.52 C 116.58 119.96 116.92 118.82 117.10 118.25 C 117.95 120.37 116.51 122.14 115.03 123.53 L 114.86 123.72 C 113.24 123.53 111.63 123.34 110.04 123.02 C 108.16 122.08 108.60 119.67 108.32 117.94 Z" />
</g>
<g id="#e6afe6ff">
<path fill="#e6afe6" opacity="1.00" d=" M 131.26 118.74 C 131.38 119.89 131.50 121.04 131.63 122.20 C 134.07 121.88 136.53 121.40 139.02 121.61 C 145.89 122.38 153.17 122.23 159.41 125.61 C 164.90 128.16 170.58 131.61 172.98 137.47 C 170.70 137.19 168.41 136.66 166.47 135.39 C 162.32 132.81 158.00 130.54 153.64 128.35 C 146.52 124.96 138.51 124.59 130.77 124.19 C 130.96 122.37 131.10 120.56 131.26 118.74 Z" />
</g>
<g id="#d0cdfeff">
<path fill="#d0cdfe" opacity="1.00" d=" M 8.48 120.91 C 9.02 120.97 10.12 121.08 10.67 121.13 C 13.50 121.59 16.54 122.14 18.72 124.18 C 18.25 125.40 17.65 126.67 16.57 127.48 C 13.76 128.28 10.93 127.05 8.23 126.38 C 8.42 124.56 8.50 122.73 8.48 120.91 Z" />
</g>
<g id="#ccc4e8ff">
<path fill="#ccc4e8" opacity="1.00" d=" M 27.16 120.50 C 29.59 123.95 31.36 127.78 32.89 131.71 C 33.36 132.72 33.90 133.71 34.42 134.70 C 32.62 136.42 31.37 138.56 30.81 140.99 C 28.61 139.75 26.48 140.82 24.56 142.05 C 23.91 134.83 24.44 127.25 27.16 120.50 Z" />
</g>
<g id="#b9b2deff">
<path fill="#b9b2de" opacity="1.00" d=" M 84.62 123.22 C 85.98 125.99 87.19 128.82 88.37 131.66 C 90.39 136.67 94.24 140.61 96.68 145.40 C 97.50 147.33 99.24 148.46 101.15 149.17 C 103.70 154.32 101.59 160.24 102.98 165.67 C 101.97 166.76 100.91 167.83 100.07 169.06 C 100.27 170.96 100.86 172.79 101.32 174.64 C 102.21 178.88 102.90 183.20 104.66 187.21 C 106.83 187.61 109.01 188.02 111.19 188.41 C 111.85 189.93 112.45 191.48 113.10 193.01 C 109.87 192.46 106.64 193.06 103.67 194.37 C 105.61 196.81 107.20 199.51 109.26 201.84 C 111.53 202.57 113.97 201.72 116.28 201.57 L 115.31 203.40 C 111.57 203.94 107.76 203.59 104.00 203.45 C 101.66 199.21 102.66 194.10 100.74 189.71 L 100.79 189.39 C 102.45 183.22 100.08 177.11 99.35 171.01 C 98.63 166.70 98.65 162.33 98.41 157.99 C 98.42 154.47 95.51 152.07 93.52 149.51 C 90.04 145.72 88.24 140.61 84.13 137.36 C 83.89 135.77 83.56 134.20 83.32 132.61 C 83.00 130.13 82.91 127.62 82.78 125.13 C 83.24 124.65 84.16 123.70 84.62 123.22 Z" />
</g>
<g id="#cc9ed5ff">
<path fill="#cc9ed5" opacity="1.00" d=" M 110.04 123.02 C 111.63 123.34 113.24 123.53 114.86 123.72 L 114.89 123.97 C 117.04 124.25 119.16 123.74 121.26 123.38 C 123.02 125.38 125.07 127.50 128.00 127.34 C 129.89 127.86 130.47 125.54 130.77 124.19 C 138.51 124.59 146.52 124.96 153.64 128.35 C 158.00 130.54 162.32 132.81 166.47 135.39 C 168.41 136.66 170.70 137.19 172.98 137.47 L 173.23 137.51 C 173.41 139.24 173.59 140.96 173.77 142.70 C 166.45 139.99 161.14 133.53 153.41 131.71 C 142.08 127.91 129.62 129.34 118.66 133.69 C 115.12 135.19 111.68 137.10 107.82 137.70 C 108.09 133.99 107.77 130.27 107.20 126.61 C 109.10 126.11 111.00 125.62 112.88 125.04 C 112.85 124.84 112.79 124.44 112.76 124.24 C 111.85 123.83 110.94 123.43 110.04 123.02 Z" />
</g>
<g id="#826092ff">
<path fill="#826092" opacity="1.00" d=" M 50.78 127.28 C 52.65 127.89 54.94 128.18 55.76 130.27 C 58.69 135.54 61.94 141.63 68.18 143.40 C 75.03 143.83 80.04 137.91 83.32 132.61 C 83.56 134.20 83.89 135.77 84.13 137.36 C 84.08 137.97 84.00 139.19 83.95 139.80 C 83.07 144.25 79.93 147.65 76.42 150.29 C 71.47 151.72 66.22 153.64 61.20 151.28 C 58.28 146.24 53.81 142.34 50.76 137.38 C 50.29 137.50 49.35 137.73 48.88 137.84 C 48.98 137.22 49.18 135.96 49.28 135.34 C 49.61 133.49 49.97 131.64 50.32 129.80 C 50.43 129.17 50.67 127.91 50.78 127.28 Z" />
</g>
<g id="#ae86beff">
<path fill="#ae86be" opacity="1.00" d=" M 118.66 133.69 C 129.62 129.34 142.08 127.91 153.41 131.71 C 161.14 133.53 166.45 139.99 173.77 142.70 C 173.30 145.79 172.33 148.85 170.18 151.21 C 165.37 146.57 161.53 140.88 155.97 137.07 C 147.50 132.07 136.84 130.60 127.41 133.42 C 120.31 135.62 113.29 138.20 107.05 142.33 C 107.30 140.78 107.59 139.24 107.82 137.70 C 111.68 137.10 115.12 135.19 118.66 133.69 Z" />
</g>
<g id="#b2aad5ff">
<path fill="#b2aad5" opacity="1.00" d=" M 40.42 137.42 C 43.16 134.20 46.61 131.75 50.32 129.80 C 49.97 131.64 49.61 133.49 49.28 135.34 C 43.82 139.76 40.16 146.34 33.69 149.56 C 31.80 150.39 29.79 150.88 27.82 151.45 C 26.02 148.61 24.98 145.37 24.56 142.05 C 26.48 140.82 28.61 139.75 30.81 140.99 C 31.17 141.10 31.88 141.30 32.24 141.40 C 35.28 140.92 38.43 139.91 40.42 137.42 Z" />
</g>
<g id="#8674b9ff">
<path fill="#8674b9" opacity="1.00" d=" M 127.41 133.42 C 136.84 130.60 147.50 132.07 155.97 137.07 C 161.53 140.88 165.37 146.57 170.18 151.21 C 166.44 154.23 160.94 156.28 156.56 153.30 C 151.55 150.05 150.84 143.72 149.24 138.49 C 143.78 132.45 134.84 133.05 127.41 133.42 Z" />
</g>
<g id="#a495bdff">
<path fill="#a495bd" opacity="1.00" d=" M 33.69 149.56 C 40.16 146.34 43.82 139.76 49.28 135.34 C 49.18 135.96 48.98 137.22 48.88 137.84 C 48.64 139.27 48.39 140.71 48.08 142.13 C 47.99 141.54 47.80 140.37 47.71 139.78 C 42.66 145.23 37.82 150.87 32.60 156.16 C 34.28 158.22 36.61 159.01 39.21 158.55 C 39.52 160.03 39.82 161.51 40.14 162.99 C 42.59 163.60 44.76 164.89 45.93 167.23 L 45.37 167.21 L 44.30 167.18 C 43.75 167.17 42.65 167.13 42.10 167.12 C 40.68 168.85 39.25 170.58 37.94 172.40 C 37.31 169.03 37.04 165.51 35.69 162.33 C 34.45 160.26 32.47 161.80 30.98 162.63 C 30.76 161.48 30.62 160.33 30.31 159.21 C 29.47 156.63 28.89 153.95 27.82 151.45 C 29.79 150.88 31.80 150.39 33.69 149.56 Z" />
</g>
<g id="#9d91c2ff">
<path fill="#9d91c2" opacity="1.00" d=" M 84.13 137.36 C 88.24 140.61 90.04 145.72 93.52 149.51 C 95.51 152.07 98.42 154.47 98.41 157.99 C 98.65 162.33 98.63 166.70 99.35 171.01 C 100.08 177.11 102.45 183.22 100.79 189.39 C 99.00 186.26 97.54 182.94 96.37 179.53 C 96.86 179.40 97.82 179.15 98.30 179.02 C 98.40 172.30 97.13 165.65 97.26 158.93 C 97.48 156.27 95.89 154.13 93.48 153.19 L 93.21 153.00 C 91.41 147.65 85.19 145.33 83.95 139.80 C 84.00 139.19 84.08 137.97 84.13 137.36 Z" />
</g>
<g id="#8c81a9ff">
<path fill="#8c81a9" opacity="1.00" d=" M 32.60 156.16 C 37.82 150.87 42.66 145.23 47.71 139.78 C 47.80 140.37 47.99 141.54 48.08 142.13 C 47.84 143.21 47.55 144.29 47.20 145.35 C 43.77 147.07 41.67 150.34 39.22 153.16 C 39.21 154.95 39.21 156.75 39.21 158.55 C 36.61 159.01 34.28 158.22 32.60 156.16 Z" />
</g>
<g id="#bd91c4ff">
<path fill="#bd91c4" opacity="1.00" d=" M 78.65 151.19 C 80.78 149.45 82.63 147.35 85.03 145.95 C 87.19 145.98 88.61 147.76 89.89 149.25 C 86.61 151.61 82.52 151.96 78.65 151.19 Z" />
</g>
<g id="#a67fb6ff">
<path fill="#a67fb6" opacity="1.00" d=" M 89.89 149.25 C 90.51 149.99 91.11 150.75 91.74 151.49 C 88.14 153.96 84.15 155.70 80.15 157.40 C 78.65 156.08 77.16 154.77 75.66 153.44 C 76.58 152.68 77.50 151.92 78.41 151.16 L 78.65 151.19 C 82.52 151.96 86.61 151.61 89.89 149.25 Z" />
</g>
<g id="#645693ff">
<path fill="#645693" opacity="1.00" d=" M 61.20 151.28 C 66.22 153.64 71.47 151.72 76.42 150.29 C 76.92 150.51 77.91 150.94 78.41 151.16 C 77.50 151.92 76.58 152.68 75.66 153.44 C 73.53 155.09 71.52 157.10 68.89 157.93 C 65.89 158.57 62.81 158.61 59.78 158.95 L 59.14 159.01 C 56.84 157.32 54.55 155.62 52.23 153.96 C 54.65 151.61 57.80 150.15 61.20 151.28 Z" />
</g>
<g id="#8b71b2ff">
<path fill="#8b71b2" opacity="1.00" d=" M 68.89 157.93 C 71.52 157.10 73.53 155.09 75.66 153.44 C 77.16 154.77 78.65 156.08 80.15 157.40 C 73.96 160.87 66.42 161.58 59.78 158.95 C 62.81 158.61 65.89 158.57 68.89 157.93 Z" />
</g>
<g id="#8479acff">
<path fill="#8479ac" opacity="1.00" d=" M 93.48 153.19 C 95.89 154.13 97.48 156.27 97.26 158.93 C 97.13 165.65 98.40 172.30 98.30 179.02 C 97.82 179.15 96.86 179.40 96.37 179.53 C 91.92 179.72 88.84 175.23 89.58 171.05 C 90.51 174.10 93.39 175.61 95.96 177.07 C 95.71 173.41 94.43 169.94 92.17 167.04 C 93.21 165.98 94.27 164.95 95.34 163.94 C 95.34 160.27 94.63 156.66 93.48 153.19 Z" />
</g>
<g id="#948aabff">
<path fill="#948aab" opacity="1.00" d=" M 30.31 159.21 C 30.62 160.33 30.76 161.48 30.98 162.63 C 31.12 164.86 32.46 166.64 33.84 168.28 C 33.71 170.23 33.57 172.19 33.38 174.14 L 32.24 172.80 C 31.54 171.72 30.93 170.58 30.32 169.44 C 30.73 166.03 30.16 162.62 30.31 159.21 Z" />
</g>
<g id="#afa6daff">
<path fill="#afa6da" opacity="1.00" d=" M 30.98 162.63 C 32.47 161.80 34.45 160.26 35.69 162.33 C 37.04 165.51 37.31 169.03 37.94 172.40 C 37.88 174.26 37.80 176.11 37.70 177.97 C 37.01 178.86 36.33 179.76 35.68 180.69 C 35.07 178.46 34.75 176.06 33.38 174.14 C 33.57 172.19 33.71 170.23 33.84 168.28 C 32.46 166.64 31.12 164.86 30.98 162.63 Z" />
</g>
<g id="#9693c1ff">
<path fill="#9693c1" opacity="1.00" d=" M 100.07 169.06 C 100.91 167.83 101.97 166.76 102.98 165.67 L 103.21 166.89 C 102.93 169.55 102.19 172.12 101.32 174.64 C 100.86 172.79 100.27 170.96 100.07 169.06 Z" />
</g>
<g id="#7c7199f9">
<path fill="#7c7199" opacity="0.98" d=" M 42.10 167.12 C 42.65 167.13 43.75 167.17 44.30 167.18 C 41.35 169.33 39.38 172.55 40.23 176.29 C 41.69 177.03 43.14 177.77 44.60 178.52 C 43.37 179.16 42.20 179.91 41.04 180.66 C 39.92 179.77 38.81 178.87 37.70 177.97 C 37.80 176.11 37.88 174.26 37.94 172.40 C 39.25 170.58 40.68 168.85 42.10 167.12 Z" />
</g>
<g id="#bbbaf6ff">
<path fill="#bbbaf6" opacity="1.00" d=" M 103.21 166.89 C 105.37 174.22 108.26 181.35 111.19 188.41 C 109.01 188.02 106.83 187.61 104.66 187.21 C 102.90 183.20 102.21 178.88 101.32 174.64 C 102.19 172.12 102.93 169.55 103.21 166.89 Z" />
</g>
<g id="#a9a3dbff">
<path fill="#a9a3db" opacity="1.00" d=" M 40.23 176.29 C 39.38 172.55 41.35 169.33 44.30 167.18 L 45.37 167.21 C 46.63 169.17 48.09 171.46 47.60 173.90 C 47.41 175.85 45.79 177.13 44.60 178.52 C 43.14 177.77 41.69 177.03 40.23 176.29 Z" />
</g>
<g id="#a59cccff">
<path fill="#a59ccc" opacity="1.00" d=" M 89.58 171.05 C 90.22 169.58 91.19 168.29 92.17 167.04 C 94.43 169.94 95.71 173.41 95.96 177.07 C 93.39 175.61 90.51 174.10 89.58 171.05 Z" />
</g>
<g id="#c7badfff">
<path fill="#c7badf" opacity="1.00" d=" M 30.32 169.44 C 30.93 170.58 31.54 171.72 32.24 172.80 C 29.53 177.39 26.60 182.02 25.23 187.21 C 24.70 190.49 28.72 189.82 30.78 190.03 C 32.40 186.91 33.85 183.69 35.68 180.69 C 36.33 179.76 37.01 178.86 37.70 177.97 C 38.81 178.87 39.92 179.77 41.04 180.66 C 38.21 186.11 34.11 190.85 32.04 196.70 C 28.45 193.75 23.77 193.29 19.35 192.71 C 21.15 189.46 23.16 186.29 24.22 182.69 C 26.31 178.30 29.24 174.27 30.32 169.44 Z" />
</g>
<g id="#b6b5f3ff">
<path fill="#b6b5f3" opacity="1.00" d=" M 25.23 187.21 C 26.60 182.02 29.53 177.39 32.24 172.80 L 33.38 174.14 C 34.75 176.06 35.07 178.46 35.68 180.69 C 33.85 183.69 32.40 186.91 30.78 190.03 C 28.72 189.82 24.70 190.49 25.23 187.21 Z" />
</g>
<g id="#dad6fbff">
<path fill="#dad6fb" opacity="1.00" d=" M 12.49 193.71 C 17.10 190.80 20.61 186.68 24.22 182.69 C 23.16 186.29 21.15 189.46 19.35 192.71 C 23.77 193.29 28.45 193.75 32.04 196.70 C 30.45 199.88 27.36 201.69 24.39 203.37 C 21.21 203.50 18.02 203.57 14.84 203.25 C 10.97 202.14 6.88 202.57 2.90 202.45 C 7.37 202.09 11.88 201.82 16.34 202.51 C 14.42 199.89 13.33 196.82 12.49 193.71 Z" />
</g>
<g id="#d3d2ffff">
<path fill="#d3d2ff" opacity="1.00" d=" M 2.66 193.64 C 4.19 193.10 5.72 192.57 7.23 192.00 C 8.46 192.30 9.68 192.62 10.91 192.90 C 10.86 195.75 11.84 200.19 7.97 200.85 C 5.36 200.48 1.73 199.36 2.08 196.06 C 2.23 195.45 2.51 194.24 2.66 193.64 Z" />
</g>
<g id="#d5d4feff">
<path fill="#d5d4fe" opacity="1.00" d=" M 119.57 192.95 C 122.10 192.95 124.60 193.32 127.06 193.91 C 127.46 195.56 128.03 197.19 128.25 198.88 C 127.81 200.45 127.09 201.94 126.48 203.46 C 123.14 203.59 119.79 203.58 116.45 203.46 C 116.41 202.98 116.32 202.04 116.28 201.57 C 113.97 201.72 111.53 202.57 109.26 201.84 C 107.20 199.51 105.61 196.81 103.67 194.37 C 106.64 193.06 109.87 192.46 113.10 193.01 L 113.88 194.06 C 115.83 194.05 117.74 193.60 119.57 192.95 Z" />
</g>
<g id="#bcb4dbff">
<path fill="#bcb4db" opacity="1.00" d=" M 10.91 192.90 C 11.31 193.10 12.09 193.51 12.49 193.71 C 13.33 196.82 14.42 199.89 16.34 202.51 C 11.88 201.82 7.37 202.09 2.90 202.45 C 2.28 200.37 0.50 198.12 2.08 196.06 C 1.73 199.36 5.36 200.48 7.97 200.85 C 11.84 200.19 10.86 195.75 10.91 192.90 Z" />
</g>
</svg>
