<?xml version="1.0" encoding="UTF-8" ?>
<!DOCTYPE svg PUBLIC "-//W3C//DTD SVG 1.1//EN" "http://www.w3.org/Graphics/SVG/1.1/DTD/svg11.dtd">
<svg width="111pt" height="125pt" viewBox="0 0 111 125" version="1.1" xmlns="http://www.w3.org/2000/svg">
<g id="#fadfe2fd">
<path fill="#fadfe2" opacity="1.00" d=" M 39.25 14.19 C 47.89 16.52 57.08 11.82 65.30 15.64 C 68.49 16.61 73.74 12.95 75.32 16.24 C 71.62 17.57 61.87 14.83 65.02 23.01 C 66.57 26.89 64.77 29.22 61.94 30.81 C 60.72 31.69 59.72 32.81 58.72 33.92 C 58.07 32.96 57.35 32.06 56.17 31.78 C 56.44 34.07 56.62 36.37 56.70 38.67 C 52.55 40.84 48.34 42.88 44.14 44.95 C 43.27 43.91 42.39 42.88 41.70 41.71 C 42.52 41.72 43.33 41.74 44.15 41.77 L 45.05 41.79 C 45.71 37.53 43.66 33.68 41.83 30.05 C 38.11 29.47 39.13 34.66 38.37 37.22 C 35.60 34.28 36.87 29.48 38.14 26.08 C 40.47 22.17 34.36 16.90 39.25 14.19 Z" />
</g>
<g id="#f0bac3fe">
<path fill="#f0bac3" opacity="1.00" d=" M 75.32 16.24 C 76.92 16.03 76.83 23.54 74.77 24.66 C 69.76 25.70 70.35 32.79 67.19 36.26 C 66.73 35.14 66.27 34.03 65.81 32.91 C 65.45 30.97 63.57 30.86 61.94 30.81 C 64.77 29.22 66.57 26.89 65.02 23.01 C 61.87 14.83 71.62 17.57 75.32 16.24 Z" />
</g>
<g id="#cb98a3fd">
<path fill="#cb98a3" opacity="1.00" d=" M 67.19 36.26 C 70.35 32.79 69.76 25.70 74.77 24.66 C 76.82 25.50 76.85 28.42 77.39 30.31 C 74.18 33.72 70.82 37.17 66.99 39.89 C 67.05 38.68 67.12 37.47 67.19 36.26 Z" />
</g>
<g id="#cfbec3fe">
<path fill="#cfbec3" opacity="1.00" d=" M 38.37 37.22 C 39.13 34.66 38.11 29.47 41.83 30.05 C 43.66 33.68 45.71 37.53 45.05 41.79 L 44.15 41.77 C 44.44 38.71 42.76 36.24 41.15 33.82 C 40.91 35.20 40.44 37.97 40.20 39.35 C 39.02 38.90 38.42 38.19 38.37 37.22 Z" />
</g>
<g id="#ac7682fa">
<path fill="#ac7682" opacity="0.98" d=" M 77.39 30.31 L 78.07 29.89 C 77.89 33.18 77.16 38.44 74.09 39.76 C 70.99 38.93 68.93 42.36 66.12 43.17 C 64.24 44.18 62.09 45.07 61.12 47.12 L 60.69 47.73 C 58.88 48.79 57.04 49.83 55.03 50.49 C 54.86 50.20 54.51 49.62 54.33 49.33 C 57.68 47.48 60.63 45.04 63.61 42.68 C 63.46 42.42 63.15 41.91 62.99 41.66 C 64.09 41.21 65.21 40.80 66.27 40.26 L 66.99 39.89 C 70.82 37.17 74.18 33.72 77.39 30.31 Z" />
</g>
<g id="#8b8185ff">
<path fill="#8b8185" opacity="1.00" d=" M 58.72 33.92 C 59.72 32.81 60.72 31.69 61.94 30.81 C 63.57 30.86 65.45 30.97 65.81 32.91 C 65.10 34.45 64.36 35.98 63.21 37.23 C 62.59 36.87 61.11 33.54 61.12 35.87 C 61.46 38.08 59.63 38.05 57.99 38.10 C 58.04 36.68 58.37 35.29 58.72 33.92 Z" />
</g>
<g id="#f7bdc1fe">
<path fill="#f7bdc1" opacity="1.00" d=" M 56.17 31.78 C 57.35 32.06 58.07 32.96 58.72 33.92 C 58.37 35.29 58.04 36.68 57.99 38.10 C 57.99 39.41 58.08 40.71 58.26 42.01 C 58.30 42.44 58.38 43.29 58.43 43.71 C 55.42 46.18 52.08 48.35 48.23 49.19 C 46.56 48.34 44.63 46.79 44.14 44.95 C 48.34 42.88 52.55 40.84 56.70 38.67 C 56.62 36.37 56.44 34.07 56.17 31.78 Z" />
</g>
<g id="#706064ff">
<path fill="#706064" opacity="1.00" d=" M 63.21 37.23 C 64.36 35.98 65.10 34.45 65.81 32.91 C 66.27 34.03 66.73 35.14 67.19 36.26 C 67.12 37.47 67.05 38.68 66.99 39.89 L 66.27 40.26 C 66.02 38.94 66.32 35.32 64.97 38.24 C 64.46 39.80 63.73 37.58 63.21 37.23 Z" />
</g>
<g id="#6a758ff7">
<path fill="#6a758f" opacity="0.97" d=" M 41.15 33.82 C 42.76 36.24 44.44 38.71 44.15 41.77 C 43.33 41.74 42.52 41.72 41.70 41.71 C 40.48 41.77 39.69 40.46 40.20 39.35 C 40.44 37.97 40.91 35.20 41.15 33.82 Z" />
</g>
<g id="#363b48ff">
<path fill="#363b48" opacity="1.00" d=" M 61.12 35.87 C 61.11 33.54 62.59 36.87 63.21 37.23 C 63.73 37.58 64.46 39.80 64.97 38.24 C 66.32 35.32 66.02 38.94 66.27 40.26 C 65.21 40.80 64.09 41.21 62.99 41.66 C 61.42 41.83 59.84 41.93 58.26 42.01 C 58.08 40.71 57.99 39.41 57.99 38.10 C 59.63 38.05 61.46 38.08 61.12 35.87 Z" />
</g>
<g id="#8e5c6af4">
<path fill="#8e5c6a" opacity="0.96" d=" M 66.12 43.17 C 68.93 42.36 70.99 38.93 74.09 39.76 C 73.29 41.41 70.88 41.75 70.69 43.86 C 67.23 42.65 64.83 47.55 61.12 47.12 C 62.09 45.07 64.24 44.18 66.12 43.17 Z" />
</g>
<g id="#d898a3f9">
<path fill="#d898a3" opacity="0.98" d=" M 58.26 42.01 C 59.84 41.93 61.42 41.83 62.99 41.66 C 63.15 41.91 63.46 42.42 63.61 42.68 C 60.63 45.04 57.68 47.48 54.33 49.33 C 54.51 49.62 54.86 50.20 55.03 50.49 C 54.73 50.80 54.13 51.43 53.82 51.75 C 49.98 52.46 51.85 58.52 52.91 61.13 C 53.97 64.57 51.17 63.71 48.87 63.78 L 47.99 63.87 C 46.88 58.97 49.85 53.92 48.23 49.19 C 52.08 48.35 55.42 46.18 58.43 43.71 C 58.38 43.29 58.30 42.44 58.26 42.01 Z" />
</g>
<g id="#e28c99ff">
<path fill="#e28c99" opacity="1.00" d=" M 61.12 47.12 C 64.83 47.55 67.23 42.65 70.69 43.86 C 71.92 45.29 73.26 46.64 74.27 48.24 C 69.22 47.63 73.36 55.77 71.29 58.23 C 70.54 55.61 72.59 50.09 69.13 49.06 C 67.53 53.44 67.63 58.50 66.06 63.03 C 65.46 63.75 64.85 64.46 64.24 65.17 C 64.46 62.71 64.58 60.22 64.29 57.77 C 63.77 54.56 63.17 51.36 63.93 48.13 C 63.12 48.03 61.50 47.83 60.69 47.73 L 61.12 47.12 Z" />
</g>
<g id="#f997a2ff">
<path fill="#f997a2" opacity="1.00" d=" M 55.03 50.49 C 57.04 49.83 58.88 48.79 60.69 47.73 C 61.50 47.83 63.12 48.03 63.93 48.13 C 63.17 51.36 63.77 54.56 64.29 57.77 C 64.08 58.14 63.66 58.88 63.45 59.25 C 62.06 54.79 58.10 54.45 53.90 54.89 C 53.88 54.10 53.84 52.53 53.82 51.75 C 54.13 51.43 54.73 50.80 55.03 50.49 Z" />
</g>
<g id="#a36d79f9">
<path fill="#a36d79" opacity="0.98" d=" M 71.29 58.23 C 73.36 55.77 69.22 47.63 74.27 48.24 C 75.62 48.70 77.36 50.28 77.60 51.70 C 77.33 57.88 78.86 64.22 76.48 70.16 C 76.18 69.56 75.59 68.35 75.29 67.75 C 75.37 71.83 73.26 75.27 71.85 78.90 C 69.00 79.89 66.10 80.75 63.12 81.29 C 61.62 86.34 68.10 82.79 70.75 82.69 C 71.57 82.77 73.19 82.92 74.01 82.99 C 72.88 86.15 65.37 83.50 62.81 85.10 C 62.30 84.38 61.78 83.68 61.25 82.98 C 60.94 84.41 60.64 85.84 60.27 87.26 C 60.14 85.17 60.03 83.09 59.97 81.00 C 59.96 80.54 59.95 79.61 59.94 79.15 C 60.49 79.66 61.05 80.15 61.64 80.62 C 65.08 78.04 67.10 74.11 69.97 70.98 C 71.81 68.61 73.41 64.54 69.86 62.95 C 70.38 61.39 70.96 59.84 71.29 58.23 Z" />
</g>
<g id="#f8a9b1ff">
<path fill="#f8a9b1" opacity="1.00" d=" M 69.13 49.06 C 72.59 50.09 70.54 55.61 71.29 58.23 C 70.96 59.84 70.38 61.39 69.86 62.95 L 69.01 62.99 C 68.27 63.00 66.80 63.02 66.06 63.03 C 67.63 58.50 67.53 53.44 69.13 49.06 Z" />
</g>
<g id="#a96976ff">
<path fill="#a96976" opacity="1.00" d=" M 52.91 61.13 C 51.85 58.52 49.98 52.46 53.82 51.75 C 53.84 52.53 53.88 54.10 53.90 54.89 C 53.32 56.50 53.04 58.19 53.01 59.90 L 52.91 61.13 Z" />
</g>
<g id="#c18894fd">
<path fill="#c18894" opacity="1.00" d=" M 76.48 70.16 C 78.86 64.22 77.33 57.88 77.60 51.70 C 80.23 52.71 80.87 56.28 82.76 58.21 C 82.28 61.48 81.29 64.63 80.75 67.89 C 79.70 72.05 76.61 75.74 77.15 80.22 C 76.79 81.19 76.42 82.15 76.04 83.11 C 75.53 83.08 74.52 83.02 74.01 82.99 C 73.19 82.92 71.57 82.77 70.75 82.69 C 73.32 82.43 76.62 81.60 74.05 78.63 C 75.13 75.89 76.09 73.10 76.48 70.16 Z" />
</g>
<g id="#f6a7b1ff">
<path fill="#f6a7b1" opacity="1.00" d=" M 53.90 54.89 C 58.10 54.45 62.06 54.79 63.45 59.25 C 61.25 63.99 56.24 66.88 55.09 72.06 C 55.28 67.91 55.53 63.44 53.01 59.90 C 53.04 58.19 53.32 56.50 53.90 54.89 Z" />
</g>
<g id="#df9ea9ff">
<path fill="#df9ea9" opacity="1.00" d=" M 64.29 57.77 C 64.58 60.22 64.46 62.71 64.24 65.17 C 61.67 68.86 59.22 72.65 56.40 76.15 C 55.57 75.10 54.71 74.08 53.90 73.02 C 54.20 72.78 54.80 72.30 55.09 72.06 C 56.24 66.88 61.25 63.99 63.45 59.25 C 63.66 58.88 64.08 58.14 64.29 57.77 Z" />
</g>
<g id="#b07883fd">
<path fill="#b07883" opacity="1.00" d=" M 82.76 58.21 C 85.12 58.74 87.31 60.02 89.18 61.53 C 87.31 61.89 85.69 60.78 84.02 60.15 C 84.12 61.70 84.33 63.24 84.41 64.79 L 84.45 65.65 C 84.22 67.34 84.01 69.03 83.82 70.72 C 80.32 72.66 79.37 77.12 77.15 80.22 C 76.61 75.74 79.70 72.05 80.75 67.89 C 81.29 64.63 82.28 61.48 82.76 58.21 Z" />
</g>
<g id="#f2bac7fe">
<path fill="#f2bac7" opacity="1.00" d=" M 53.01 59.90 C 55.53 63.44 55.28 67.91 55.09 72.06 C 54.80 72.30 54.20 72.78 53.90 73.02 C 53.44 71.99 52.97 70.96 52.43 69.97 C 51.71 72.04 50.71 73.98 49.83 75.98 C 48.56 75.65 47.71 74.57 48.28 73.27 C 48.75 70.12 49.08 66.96 48.87 63.78 C 51.17 63.71 53.97 64.57 52.91 61.13 L 53.01 59.90 Z" />
</g>
<g id="#94646cf0">
<path fill="#94646c" opacity="0.94" d=" M 84.02 60.15 C 85.69 60.78 87.31 61.89 89.18 61.53 C 95.57 62.57 98.51 72.41 92.96 76.08 C 92.59 73.70 94.73 70.53 92.32 68.86 C 92.00 68.89 91.36 68.96 91.04 68.99 C 89.32 66.91 86.80 65.86 84.41 64.79 C 84.33 63.24 84.12 61.70 84.02 60.15 Z" />
</g>
<g id="#c88d99ff">
<path fill="#c88d99" opacity="1.00" d=" M 66.06 63.03 C 66.80 63.02 68.27 63.00 69.01 62.99 C 66.56 68.58 63.23 73.76 59.05 78.23 C 58.04 77.69 57.01 77.19 55.96 76.73 L 56.40 76.15 C 59.22 72.65 61.67 68.86 64.24 65.17 C 64.85 64.46 65.46 63.75 66.06 63.03 Z" />
</g>
<g id="#b47c88ff">
<path fill="#b47c88" opacity="1.00" d=" M 69.01 62.99 L 69.86 62.95 C 73.41 64.54 71.81 68.61 69.97 70.98 C 67.10 74.11 65.08 78.04 61.64 80.62 C 61.05 80.15 60.49 79.66 59.94 79.15 C 59.72 78.92 59.28 78.46 59.05 78.23 C 63.23 73.76 66.56 68.58 69.01 62.99 Z" />
</g>
<g id="#ffe6f3ff">
<path fill="#ffe6f3" opacity="1.00" d=" M 47.99 63.87 L 48.87 63.78 C 49.08 66.96 48.75 70.12 48.28 73.27 C 48.08 70.13 47.90 67.00 47.99 63.87 Z" />
</g>
<g id="#06050513">
<path fill="#060505" opacity="0.07" d=" M 84.41 64.79 C 86.80 65.86 89.32 66.91 91.04 68.99 C 91.42 72.98 87.36 75.09 84.14 76.20 L 84.27 75.30 C 84.93 72.11 85.36 68.82 84.45 65.65 L 84.41 64.79 Z" />
</g>
<g id="#493943ab">
<path fill="#493943" opacity="0.67" d=" M 84.45 65.65 C 85.36 68.82 84.93 72.11 84.27 75.30 C 84.12 73.77 83.97 72.24 83.82 70.72 C 84.01 69.03 84.22 67.34 84.45 65.65 Z" />
</g>
<g id="#80515bf6">
<path fill="#80515b" opacity="0.96" d=" M 75.29 67.75 C 75.59 68.35 76.18 69.56 76.48 70.16 C 76.09 73.10 75.13 75.89 74.05 78.63 C 73.50 78.70 72.40 78.83 71.85 78.90 C 73.26 75.27 75.37 71.83 75.29 67.75 Z" />
</g>
<g id="#e0b7c1fc">
<path fill="#e0b7c1" opacity="1.00" d=" M 91.04 68.99 C 91.36 68.96 92.00 68.89 92.32 68.86 C 92.17 70.56 91.88 73.96 91.73 75.66 C 89.53 77.17 86.95 78.19 85.06 80.12 C 84.22 80.98 83.15 81.25 81.88 80.94 C 82.42 79.26 83.21 77.69 84.14 76.20 C 87.36 75.09 91.42 72.98 91.04 68.99 Z" />
</g>
<g id="#aa767ff6">
<path fill="#aa767f" opacity="0.96" d=" M 92.32 68.86 C 94.73 70.53 92.59 73.70 92.96 76.08 C 91.86 78.57 87.81 79.68 85.06 80.12 C 86.95 78.19 89.53 77.17 91.73 75.66 C 91.88 73.96 92.17 70.56 92.32 68.86 Z" />
</g>
<g id="#d098a5fb">
<path fill="#d098a5" opacity="1.00" d=" M 52.43 69.97 C 52.97 70.96 53.44 71.99 53.90 73.02 C 52.73 74.62 51.96 76.46 51.21 78.28 L 50.16 78.00 C 50.08 77.50 49.91 76.49 49.83 75.98 C 50.71 73.98 51.71 72.04 52.43 69.97 Z" />
</g>
<g id="#9b6471fd">
<path fill="#9b6471" opacity="1.00" d=" M 77.15 80.22 C 79.37 77.12 80.32 72.66 83.82 70.72 C 83.97 72.24 84.12 73.77 84.27 75.30 L 84.14 76.20 C 83.21 77.69 82.42 79.26 81.88 80.94 C 81.47 81.84 80.79 82.52 79.83 83.00 C 78.60 83.49 77.33 83.86 76.05 84.20 L 76.04 83.11 C 76.42 82.15 76.79 81.19 77.15 80.22 Z" />
</g>
<g id="#a9727ef9">
<path fill="#a9727e" opacity="0.98" d=" M 51.21 78.28 C 51.96 76.46 52.73 74.62 53.90 73.02 C 54.71 74.08 55.57 75.10 56.40 76.15 L 55.96 76.73 C 54.99 77.53 54.04 78.34 53.06 79.11 C 52.60 78.91 51.67 78.49 51.21 78.28 Z" />
</g>
<g id="#874c5af6">
<path fill="#874c5a" opacity="0.96" d=" M 53.06 79.11 C 54.04 78.34 54.99 77.53 55.96 76.73 C 57.01 77.19 58.04 77.69 59.05 78.23 C 59.28 78.46 59.72 78.92 59.94 79.15 C 59.95 79.61 59.96 80.54 59.97 81.00 C 59.28 80.93 57.90 80.79 57.21 80.72 C 55.90 80.29 53.08 80.82 53.06 79.11 Z" />
</g>
<g id="#eec4c9fd">
<path fill="#eec4c9" opacity="1.00" d=" M 63.12 81.29 C 66.10 80.75 69.00 79.89 71.85 78.90 C 72.40 78.83 73.50 78.70 74.05 78.63 C 76.62 81.60 73.32 82.43 70.75 82.69 C 68.10 82.79 61.62 86.34 63.12 81.29 Z" />
</g>
<g id="#e8bac0f8">
<path fill="#e8bac0" opacity="0.97" d=" M 12.70 83.71 C 21.37 78.48 31.96 80.15 41.01 83.51 C 43.24 84.40 45.88 84.76 48.00 83.51 C 51.14 82.85 54.27 82.14 57.43 81.58 C 57.53 81.95 57.72 82.68 57.82 83.04 C 56.88 83.57 55.94 84.09 55.01 84.62 C 46.69 87.17 37.82 85.31 29.31 86.31 C 24.22 87.00 19.09 87.09 13.97 86.99 C 12.43 87.16 11.10 84.46 12.70 83.71 Z" />
</g>
<g id="#ce7e88fe">
<path fill="#ce7e88" opacity="1.00" d=" M 57.21 80.72 C 57.90 80.79 59.28 80.93 59.97 81.00 C 60.03 83.09 60.14 85.17 60.27 87.26 C 58.85 94.82 58.83 102.59 57.09 110.10 C 56.60 111.12 55.56 111.42 53.96 111.00 C 53.60 107.61 54.92 104.49 56.37 101.52 C 56.80 95.38 58.57 89.23 57.82 83.04 C 57.72 82.68 57.53 81.95 57.43 81.58 L 57.21 80.72 Z" />
</g>
<g id="#ae9298d2">
<path fill="#ae9298" opacity="0.82" d=" M 41.01 83.51 C 43.06 82.39 45.96 82.33 48.00 83.51 C 45.88 84.76 43.24 84.40 41.01 83.51 Z" />
</g>
<g id="#f0a0aaf9">
<path fill="#f0a0aa" opacity="0.98" d=" M 55.01 84.62 C 55.94 84.09 56.88 83.57 57.82 83.04 C 58.57 89.23 56.80 95.38 56.37 101.52 C 54.92 104.49 53.60 107.61 53.96 111.00 C 53.72 111.25 53.25 111.74 53.01 111.99 L 53.00 111.01 C 52.44 108.56 54.40 103.92 52.03 102.93 C 52.01 104.71 51.99 108.28 51.97 110.07 C 50.63 109.74 50.58 108.00 50.04 106.95 C 51.28 100.51 52.65 93.99 55.48 88.03 C 56.28 86.89 55.91 85.56 55.01 84.62 Z" />
</g>
<g id="#925c69f2">
<path fill="#925c69" opacity="0.95" d=" M 61.25 82.98 C 61.78 83.68 62.30 84.38 62.81 85.10 C 61.71 93.02 61.09 101.07 58.74 108.76 C 58.33 109.10 57.50 109.76 57.09 110.10 C 58.83 102.59 58.85 94.82 60.27 87.26 C 60.64 85.84 60.94 84.41 61.25 82.98 Z" />
</g>
<g id="#de909bfb">
<path fill="#de909b" opacity="1.00" d=" M 76.05 84.20 C 77.33 83.86 78.60 83.49 79.83 83.00 C 83.27 89.55 83.72 97.24 85.58 104.33 C 86.92 108.65 86.65 117.56 79.28 114.86 C 74.66 105.44 76.33 94.33 76.05 84.20 Z" />
</g>
<g id="#aa7782f6">
<path fill="#aa7782" opacity="0.96" d=" M 29.31 86.31 C 37.82 85.31 46.69 87.17 55.01 84.62 C 55.91 85.56 56.28 86.89 55.48 88.03 C 44.04 84.56 32.51 94.00 20.98 90.03 C 19.31 88.74 14.93 89.46 13.97 86.99 C 19.09 87.09 24.22 87.00 29.31 86.31 Z" />
</g>
<g id="#de8d96fd">
<path fill="#de8d96" opacity="1.00" d=" M 52.03 102.93 C 54.40 103.92 52.44 108.56 53.00 111.01 C 52.74 110.77 52.23 110.30 51.97 110.07 C 51.99 108.28 52.01 104.71 52.03 102.93 Z" />
</g>
</svg>
